<svg xmlns="http://www.w3.org/2000/svg" xml:space="preserve" style="shape-rendering:geometricPrecision;text-rendering:geometricPrecision;image-rendering:optimizeQuality;fill-rule:evenodd;clip-rule:evenodd" viewBox="0 -0.02 5804.15 6571.16"><!-- Source: https://football-logos.cc --><defs data-source="https://football-logos.cc"><style>.fil1{fill:#fefefe}</style></defs><g id="Layer_x0020_1" data-source="https://football-logos.cc"><path d="M2930.34 6571.14c-734.66-443.2-1269.05-975.03-1663.66-1516.23C685.41 4258.87 320.64 3392.1 163.82 2459.7c-29.84-179.83-53.69-368.19-68.18-553.97 399.71-102.31 984.39-271.89 1110.52-548.06 79.27-196.87 20.45-420.14-112.5-521.59-92.04-69.89-225.01-93.74-363.93-7.66-73.29 55.4-102.28 162.77-86.08 240.35 15.33 94.58 107.39 174.7 234.37 134.66l15.34 46.85c-106.59 164-294.3 210.54-456.39 207.41-243.26-4.71-390.84-223.74-427.13-437.36C-64.94 579.98 294.58 151.69 813.75 154c308.31 1.37 633.3 95.75 922.73 158.44 410.27 88.9 795.69 164.49 1193.86 166.52 920.49 9.38 1944.93-242.91 2869.67-478.98 0 819.89 35.79 1650.03-103.13 2459.7-160.24 933.24-519.9 1797.48-1102.88 2595.21-396.3 542.93-928.98 1073.03-1663.66 1516.23z" style="fill:#e42d24"></path><path d="M1597.53 3636.83c-68.71-97.8-99.41-197.21-88.09-286.93 11.32-92.94 64.66-172.97 155.19-235.98 92.15-63.86 184.27-86.51 272.36-67.13 90.53 18.62 172.99 80.85 241.69 178.65 49.27 70.31 79.19 138.21 90.51 199.62 9.7 63.87 1.62 122.86-22.63 174.59-23.44 55.77-67.09 105.08-128.52 147.91-63.85 44.45-125.28 72.74-180.24 80.02-56.58 8.89-119.62-4.86-175.39-34.76-57.39-31.53-113.97-83.25-163.26-153.57l-1.62-2.43zm176.21-119.62c43.65 62.25 86.48 97.81 122.85 109.93 37.98 13.73 79.21 8.07 114.77-16.98 37.98-26.67 59-61.42 60.62-100.22 0-38.79-22.64-96.99-70.32-164.08-39.61-57.38-81.63-92.93-118.8-105.88-39.62-11.31-81.65-4.84-118.82 21.83-33.14 23.44-53.36 59.79-54.15 98.59 0 39.62 20.19 94.56 63.85 156.8zM4284.18 1755.23c-68.73-97.82-99.43-196.42-88.08-286.15 12.08-93.75 64.66-172.95 155.14-235.99 92.17-64.67 185.1-87.29 273.23-67.89 89.7 18.58 172.94 80.82 241.65 178.6 49.31 70.36 79.2 138.25 90.54 199.64 8.89 63.86.78 122.86-23.46 174.6-23.43 55.78-66.28 105.09-127.71 147.9-64.67 45.28-125.25 72.74-180.22 80.05-57.4 9.66-119.63-4.88-176.22-34.77-57.4-30.71-113.98-83.28-163.25-152.76zm176.22-119.63c43.63 62.24 86.48 98.6 123.64 109.94 37.2 13.73 79.2 8.08 114.75-17 37.2-25.86 59.01-61.43 59.86-100.25.81-38.77-21.85-96.93-69.51-164.87-39.62-56.58-82.47-92.13-119.62-105.06-39.63-11.31-80.83-4.84-118.02 21.81-33.11 22.62-54.16 59.82-54.16 98.6-.81 40.42 19.42 94.58 63.08 156.82zM5127.18 1625.91l-433.22-617.55 288.54-201.23c51.73-37.19 97.82-61.43 134.17-70.31 35.57-10.5 74.35-5.66 108.31 7.27 37.17 13.73 71.93 43.63 96.98 80.01 23.46 33.93 38.81 68.71 43.66 101.06 3.23 36.35-.81 69.47-13.74 102.63-8.11 16.97-25.07 43.62-45.27 66.28 22.62-8.07 46.05-10.53 61.43-8.07 8.08 1.61 27.47 4.03 47.66 12.12 22.66 8.07 43.66 16.15 53.36 21l210.98 119.63-198.87 139.02-225.49-125.29c-25.05-16.16-49.31-25.85-63.05-25.04-18.58-2.43-38.81 4.85-52.54 14.54l-14.55 10.5 176.22 251.38-174.59 122.06zm-84.05-490.65 71.12-50.09c8.89-6.46 24.24-20.23 42.82-40.42 8.92-6.46 14.58-23.43 14.58-37.97 0-15.38-4.07-31.54-13.74-44.46-12.12-18.58-29.92-29.08-47.69-33.15-18.58-1.61-47.7 6.5-78.4 28.31l-76.01 53.36 87.32 124.44zM844.23 3703.91l324.13-226.31c54.15-37.99 108.29-52.55 155.99-43.65 49.3 10.51 93.76 37.99 122.84 80.02 25.07 36.37 35.58 75.97 32.34 116.39.82 26.67-9.7 57.38-29.9 83.25 44.44-16.99 90.52-16.99 125.29-7.29 37.17 12.93 73.54 38.8 100.21 76.79 21.82 31.51 36.38 67.9 38.8 101.84 3.23 34.76-.81 69.5-15.35 97.8-7.27 21-25.05 44.45-50.93 67.88-34.76 31.53-59 53.35-72.73 63.04l-298.26 208.53-432.42-618.31zm514.87 362.92 87.3-60.61c28.28-20.22 47.67-42.86 53.34-61.44 4.85-17.78-1.61-41.23-14.56-59.01-12.11-17.78-30.71-29.91-49.3-31.51-18.58-1.62-48.49 6.47-77.59 26.67l-87.29 61.42zm-168.93-240.87 75.98-53.35c25.86-17.78 42.84-38.8 45.26-54.96 2.42-17.78-1.61-37.17-14.54-55.78-12.14-17.78-29.91-29.08-46.89-32.33-16.97-4.04-42.03 5.66-67.89 23.46l-75.98 53.33 84.06 119.62zM3573.71 1793.2l289.38-202.87c60.58-42.01 122.83-58.97 176.18-49.31 51.74 9.7 102.67 47.7 144.67 106.7 43.66 62.24 59.01 124.48 50.12 181.87-8.88 57.39-51.7 113.13-119.62 160.83l-94.55 67.09 161.64 230.34-174.56 122.86-433.25-617.51zm358.88 139.83 40.39-28.27c33.16-23.43 50.94-48.51 58.2-67.9 5.66-21 .81-43.66-13.74-65.46-12.92-17.77-32.35-30.74-50.93-37.2-21-4.04-50.08 4.03-83.24 27.5l-47.69 33.12 97 138.2zM3618.17 2896.46c-6.46-9.69-17.77-12.92-27.47-10.49-11.34.81-24.27 4.84-36.39 12.92-21.81 15.38-29.92 40.42-18.58 69.5 6.46 17.01 19.38 42.85 40.42 72.74l.78 1.65c-3.23-20.23 0-42.05 11.31-59.01 9.73-19.41 26.69-39.62 48.51-54.97 29.11-20.19 63.04-28.31 96.2-28.31 44.43 4.04 84.87 26.69 114.79 70.35 25.05 35.54 34.74 75.94 28.28 117.98-8.07 49.31-37.2 91.35-87.32 126.89-50.09 34.76-104.24 46.88-155.99 33.14-50.93-13.73-99.39-50.1-141.41-110.72-38.84-54.97-59.04-109.13-64.7-156.79-4.85-63.04 21.81-116.4 76.78-155.21 47.7-33.12 93.78-47.66 131.75-44.43 31.5 1.61 59.81 18.58 80.01 46.89l-96.97 67.85zm20.19 227.14c12.12 17.78 28.28 31.51 43.66 33.93 16.16 3.24 34.74.81 52.55-12.12 18.58-12.92 29.89-30.7 31.5-48.51 2.43-17.77-1.61-33.11-13.73-50.12-12.92-18.54-28.32-30.7-46.89-35.54-18.58-7.27-37.96-4.85-54.97 6.46-19.38 13.74-29.89 29.89-30.7 48.51.81 20.2 4.85 40.43 16.97 58.2l1.61-.82zM3316.67 2587.73l158.44-126.1c21.81 26.66 48.47 43.63 67.89 52.55 33.15 12.12 68.71 6.46 101.82-17 23.47-16.13 39.63-39.59 43.66-57.36 6.46-21.85 1.62-43.66-10.49-59.82-10.5-15.35-27.51-25.89-48.51-30.74-19.39-2.42-59.01 6.46-113.94 29.93-88.13 33.93-160.87 46.85-215.04 38.77-52.51-9.69-98.59-40.39-130.91-86.47-21.84-31.5-34.77-69.5-38-104.24-4.03-40.43 5.66-82.48 28.28-121.29 21.81-37.96 61.43-82.4 120.44-123.64 71.13-49.31 136.6-71.92 193.99-69.5 58.19 1.61 116.4 34.74 167.33 92.13l-156.01 123.68c-23.43-21.81-48.51-38.78-70.32-39.59-23.43-2.43-50.12 4.85-72.74 21-19.38 13.74-29.89 27.51-34.77 42.82-1.58 17 0 35.57 8.88 47.69 8.08 10.5 19.42 17.81 29.93 17.81 12.92 2.39 41.24-2.46 75.98-17.81 88.93-35.54 157.6-51.73 201.26-59.81 46.08-5.66 85.66 2.42 118.82 17.8 31.51 16.16 64.63 43.63 88.09 76.78 27.47 39.62 42.81 85.66 46.08 130.94 2.39 43.62-8.07 93.74-30.74 131.74-23.43 41.2-64.66 84.86-118.78 122.83-94.59 66.28-177.84 92.97-240.08 79.24-62.24-13.77-120.44-51.74-168.91-109.94l-1.65-2.43zM2824.47 2317.77l172.96-121.25 257.85 368.58c25.85 36.36 43.62 77.59 55.74 115.56 12.96 37.2 15.38 81.62 10.54 119.62-4.89 38.81-16.16 73.55-31.54 100.21-25.86 33.15-63.86 71.16-110.74 104.28-25.86 17.77-58.98 37.2-91.33 55.75-34.74 20.23-70.31 30.73-98.59 34.77-30.73 1.61-66.29-4.04-96.99-12.92-31.51-9.7-63.85-25.04-88.91-46.85-35.54-29.12-65.47-62.24-86.47-92.97L2458.34 2574l174.58-122.05 263.48 375.82c23.44 33.96 53.36 54.97 78.4 61.43 29.1 6.46 62.23-1.58 90.53-21.81 28.28-20.19 47.7-47.69 53.36-75.16 3.24-29.93-7.31-64.67-30.74-98.6l-263.47-375.85zM2004.91 2891.62l174.57-122.87 324.93 464.77 272.37-190.73 107.51 153.55-446.98 312.79zM3840.43 2934.46l-150.32-229.56 261.88-183.45 50.12 71.13-171.37 119.59 61.43 100.24.81.82c-.81-21.01 2.42-42.85 10.5-59.82 7.27-19.39 21-35.54 40.42-49.31 33.93-24.23 73.55-30.71 112.37-19.39 35.54 9.7 68.7 33.16 93.74 68.71 25.86 38 38.78 79.2 33.93 120.43-4.04 46.09-32.31 87.29-79.2 120.44-46.89 32.32-89.71 51.74-126.9 51.74-43.66 2.42-80.82-18.62-110.7-60.62l99.39-69.51c12.12 16.97 26.66 24.23 37.2 26.66 10.5 2.42 26.66-4.04 38.78-12.92 16.16-10.54 25.08-27.47 26.69-46.89-.81-17.77-7.31-37.16-19.42-53.36-12.12-17.77-25.85-28.28-39.59-33.11-17-8.89-34.77-5.66-50.12 5.66-9.7 6.46-17.77 16.96-23.43 24.23-4.04 11.34-3.23 25.08 4.04 38l-100.25 70.31zM3307.01 3159.16c-13.77-19.39-32.35-29.08-46.92-30.71-16.12-3.23-36.35 4.04-50.9 14.55-18.58 12.92-29.92 27.47-33.11 44.45-3.28 16.16 3.2 33.94 14.54 50.92 12.12 16.99 25.86 26.67 37.97 29.91 17.77 5.66 38 .81 57.39-12.92 15.35-10.51 27.5-28.31 29.12-45.26 4.03-16.98 1.57-33.97-8.08-48.52v-2.42zm-96.2 303.09 98.63-68.7c8.88 12.13 19.38 18.59 30.7 18.59 12.92-2.43 28.28-8.09 42.81-17.78 25.89-18.58 36.39-45.26 26.69-75.99-4.03-19.38-19.38-46.86-42.04-80-2.43 39.6-25.05 75.16-63.05 101.83-33.12 23.45-70.28 34.75-105.87 30.71-40.42-4.03-76.77-26.67-101.85-62.24-29.89-42.82-38.78-88.08-22.62-132.55 14.55-39.59 42.85-77.59 84.86-106.67 53.36-38 108.32-49.31 160.06-31.54 50.09 14.58 98.6 54.16 141.45 114.78 43.62 62.24 62.2 123.68 57.35 176.2-5.62 55.78-35.54 102.64-88.08 139.84-39.59 27.48-77.59 43.64-113.94 45.26-42.85 4.03-79.24-15.35-105.09-51.73zM2814.77 3409.71c17.78-22.64 32.33-45.26 41.22-66.27 7.29-16.99 15.35-42.04 21.02-68.7l84.86-59.82 266.72 381.48-101.02 71.13-198.03-282.07c-6.47 16.97-14.55 37.18-24.23 52.53-8.1 21.83-20.21 42.03-32.34 58.2l-58.19-86.49zM2942.47 6348.14c-577.56-348.41-1103.3-828.25-1503.15-1371.91l4130.13-2908.06c-82.36 714.8-238.98 1285.28-556.43 1934.46-289.84 592.76-663.62 1127.45-1123.21 1587.27-282.72 282.85-596.47 538.81-947.35 758.24zM684.97 3634.76c-215.03-529.48-336.25-1026.87-395.24-1589.02 296.14-75.76 687.66-213.44 920.21-386.32 201.28-149.59 277.35-471.29 200.17-699.66-27.89-82.48-72.17-172.95-148-242.7-83.28-76.6-205.4-127.99-336.08-144.43-62.87-7.91-125.08-1.65-183.38 17.7C552.98 653.3 427.63 809.71 427.5 1010.3c-.07 99.96 32.5 189.04 76.37 241.9-180.19 10.23-305.79-119.87-299.92-364.23 9.51-192.86 112.15-328.41 234.85-413.72 105.99-73.69 241.39-113.94 394.99-123.07 90.49-5.41 195.68 10.08 296.52 28.45 138.18 25.12 273.11 59.29 395.22 85.6 487.78 105.12 953.71 196.37 1427.3 191.95 487.48 2.56 945.56-51.63 1406.7-136.6 351.8-64.8 705.34-147.05 1075.23-238.24L684.98 3634.78z" class="fil1"></path><path d="M2939.84 5833.79h209.48V5606.2h-209.48z" style="fill:#aa612e"></path><path d="M3045.83 4396.59c-85.17 143.84-182.72 254.22-328.7 349.44h226.94c-87.6 150.68-184.59 298.91-333 400.95h254.41c-108.87 168.62-247.22 340.4-404.74 460.39H3630.9c-157.53-119.99-299.74-291.77-408.59-460.39h258.26c-148.43-102.04-246.85-250.27-334.44-400.95h228.55c-145.97-95.21-243.69-205.6-328.86-349.44z" style="fill:#009644"></path></g><!-- source: https://football-logos.cc --></svg>