<svg xmlns="http://www.w3.org/2000/svg" viewBox="0 0 277.46 414.72"><!-- Source: https://football-logos.cc --><linearGradient id="a" x1="338.9" x2="322.8" y1="292.1" y2="203.1" gradientUnits="userSpaceOnUse" data-source="https://football-logos.cc"><stop offset="0" stop-color="#e6d82f"></stop><stop offset="1" stop-color="#faf26f"></stop></linearGradient><linearGradient id="b" x1="391.9" x2="341.2" y1="310.6" y2="310.6" gradientUnits="userSpaceOnUse"><stop offset="0" stop-color="#d2c308"></stop><stop offset="1" stop-color="#e8da34"></stop></linearGradient><path fill="#fbffff" fill-rule="evenodd" d="M139.015 411.317c34.1-51.6 147.9-22 132.6-142.5 6.8-12.2 4.7-19.8-2.1-25 3.3-6.5-9.3-16.3 2.3-19.5-54.6-70.6 20.9-107-20.4-132.8-21 17.1-41.9 17-62.9 0-14.4 13.6-30.9 20.2-49.7 19-18.9 1.2-35.4-5.4-49.7-19-21 17-41.9 17.1-62.9 0-41.1 25.7 34.3 62.1-20.3 132.7 11.6 3.2-1 13 2.3 19.5-6.7 5.2-8.9 12.8-2.1 25-15.1 120.5 98.8 90.9 132.9 142.6" clip-rule="evenodd"></path><path fill="#ceaf54" d="M139.015 408.017c12.8-17.4 34.7-25.3 57.2-33.4 40.6-14.6 83.2-29.9 73.6-105.6l-.1-.6.3-.5c3.2-5.7 4.3-10.3 3.8-14-.5-3.5-2.4-6.3-5.4-8.6l-1.3-1 .7-1.4c.9-1.8-.1-4.6-1.2-7.3-.5-1.2-.9-2.3-1.3-3.6-1-3.6-.8-6.7 3.4-8.7-29.1-39.1-19.2-67.7-11.6-89.9 5.7-16.5 10.1-29.2-5.6-39.7-10.5 8.3-21 12.4-31.6 12.3-10.5 0-21-4.1-31.4-12.2-7 6.4-14.5 11.2-22.6 14.3-8.5 3.3-17.6 4.7-27.2 4.1-9.7.6-18.7-.8-27.2-4.1-8-3.1-15.6-7.9-22.6-14.3-10.4 8.1-20.9 12.2-31.4 12.2-10.6 0-21.1-4.1-31.6-12.3-15.4 10.6-11 23.3-5.3 39.7 7.7 22.2 17.5 50.8-11.6 89.9 4.2 2 4.4 5.1 3.4 8.7-.3 1.2-.8 2.4-1.3 3.6-1 2.7-2.1 5.4-1.2 7.3l.7 1.4-1.3 1c-3 2.3-4.9 5.1-5.4 8.6-.5 3.7.6 8.2 3.8 14l.3.5-.1.6c-9.6 75.7 33 91 73.7 105.6 22.6 8.1 44.5 15.9 57.4 33.4m58.4-29.8c-22.8 8.2-45 16.2-56.9 34.1l-1.6 2.4-1.6-2.4c-11.9-18-34.1-26-56.9-34.1-41.9-15-85.9-30.8-76.3-109-3.4-6.3-4.5-11.4-4-15.8.5-4.2 2.6-7.5 5.7-10.2-.8-2.9.4-6 1.6-8.9.4-1.1.9-2.2 1.1-3.2.6-2.1.3-3.9-3.3-4.9l-2.7-.8 1.7-2.3c29.7-38.5 20-66.6 12.5-88.4-6.1-18.5-11-32.7 8.5-44.9l1.2-.7 1.1.9c10.1 8.3 20.2 12.4 30.2 12.4s20.1-4.1 30.2-12.4l1.3-1.1 1.2 1.2c7 6.6 14.5 11.5 22.5 14.6s16.6 4.4 25.8 3.8h.2c9.2.6 17.7-.7 25.8-3.8 8-3.1 15.5-8 22.5-14.6l1.2-1.2 1.3 1.1c10.1 8.2 20.2 12.4 30.2 12.4s20.1-4.1 30.2-12.4l1.1-.9 1.2.7c19.6 12.3 14.7 26.4 8.3 44.9-7.5 21.8-17.2 49.9 12.5 88.4l1.7 2.3-2.7.8c-3.6 1-3.9 2.8-3.3 4.9.3.9.7 2.1 1.1 3.2 1.2 2.9 2.4 6 1.6 8.9 3.1 2.7 5.2 6.1 5.7 10.2.6 4.3-.6 9.5-4 15.8 9.9 78.2-34 94-75.9 109"></path><path d="M89.215 124.117c15.4 8.9 32.1 13 49.8 12.9v67h-83c9.3-24.8 9.5-49.7 0-74.5 11.1 1.3 22.1-.4 33.2-5.4z" style="fill-rule:evenodd;clip-rule:evenodd;fill:#fbffff;stroke:#fbffff;stroke-width:.4799;stroke-miterlimit:22.9256"></path><path fill="#fbffff" fill-rule="evenodd" d="M224.415 198.217c-24.3-1.6-32.1-25.4-28.5-64.4 1.4 37.5 11.1 58.6 28.5 64.4m-34.1-62.1v.2zc-.3 2.1-.6 4.1-.8 6.2-.9 7.6-1.3 15.1-1.3 22.5 0 9 .6 17.8 2 26.4v-.1.1c1.4-8.6 2-17.4 2-26.4 0-7.4-.4-14.9-1.3-22.5-.1-2-.3-4.1-.6-6.2m-34.2 62.1c17.4-5.9 27.2-26.9 28.6-64.4 3.5 39-4.3 62.8-28.6 64.4" clip-rule="evenodd"></path><path fill="#e30615" d="m92.315 183.217-19.1-34.4h13.2l8.9 17.6 2.6 5.9c.7-1.5 1.1-2.5 1.3-3 .4-1 .9-1.9 1.3-2.9l9-17.6h12.9l-18.8 34.4z" data-source="https://football-logos.cc"></path><g fill="#ceaf54"><path d="m91.415 183.717-19.1-34.4-.8-1.4h15.399999999999999l.3.5 8.9 17.6 1.7 3.9c.2-.4.3-.7.4-.9v-.1c.2-.5.4-1 .7-1.5.2-.5.5-1 .7-1.5l9-17.6.3-.5h15.1l-.8 1.4-18.8 34.4-.3.5h-12.5zm-16.6-33.9 18 32.5h10.2l17.8-32.5h-10.7l-8.7 17c-.2.5-.4.9-.7 1.4-.2.4-.4.9-.6 1.4-.1.3-.3.6-.5 1.1-.2.4-.5 1-.8 1.9l-.9 1.9-.9-1.9-2.6-5.8-8.7-17zM87.215 144.317c0 .1 0 .2-.1.2-.1.1-.2.1-.3.1h-2c-.2 0-.3-.1-.3-.2v-.1c.1-1.8.1-2.9.1-3.3v-2.1c0-.1 0-.2-.1-.2s-.2 0-.4.1-.3.1-.4.1-.2-.1-.2-.3v-1.4c0-.1.1-.2.2-.2.7-.3 1.2-.7 1.6-1.2.1-.1.2-.1.2-.1h.1c.2 0 .4.1.8.2.2 0 .5.1.8.1.1 0 .1.1.1.2v.2c-.1.4-.1 1.4-.1 3.1v2.5zM95.915 139.817c0 1.6-.6 2.8-1.7 3.8-1.1.9-2.4 1.3-4 1.3-.1 0-.2-.1-.2-.2-.3-.8-.5-1.4-.5-1.6s.1-.2.3-.2q2.25 0 3-1.2c.1-.1.1-.2.1-.2s-.1 0-.2.1c-.4.2-.9.3-1.4.3-.8 0-1.5-.2-2-.7s-.8-1.2-.8-2c0-1.1.4-1.9 1.1-2.5.7-.5 1.5-.8 2.6-.8 1.2 0 2.1.4 2.8 1.1.5.6.9 1.6.9 2.8m-2.7-.7q0-.6-.3-.9c-.2-.3-.5-.4-.9-.4q-1.2 0-1.2 1.2c0 .3.1.6.3.8s.5.3.8.3.6-.1.8-.3c.4-.1.5-.4.5-.7M104.115 141.517c0 1.1-.4 1.9-1.1 2.5s-1.5.8-2.6.8c-1.2 0-2.1-.4-2.8-1.1s-1-1.7-1-2.9c0-1.5.6-2.7 1.7-3.7 1.1-.9 2.4-1.4 3.9-1.4.1 0 .2.1.2.2.4.9.5 1.4.5 1.5q0 .3-.3.3c-.6 0-1.1.1-1.6.2-.6.2-1 .5-1.3.8-.1.1-.1.2-.1.2h.1c.4-.2.9-.3 1.4-.3.8 0 1.5.2 2 .7.7.7 1 1.3 1 2.2m-2.5 0c0-.3-.1-.6-.3-.8s-.5-.3-.8-.3q-.6 0-.9.3c-.3.3-.3.5-.3.9s.1.7.3.9c.2.3.5.4.9.4s.7-.1.9-.4c.1-.3.2-.6.2-1M111.815 142.617v2c0 .1-.1.2-.2.2s-.3 0-.7-.1-1.2-.1-2.4-.1c-.4 0-.9 0-1.6.1-.7 0-1.3.1-1.6.1-.1 0-.2-.1-.2-.2 0-.2-.1-.4-.1-.7-.1-.5-.2-.8-.2-.8 0-.1.2-.2.6-.2.5-.1.8-.1.9-.3q.75-.6 1.5-1.5c.6-.8 1-1.4 1-1.7s-.1-.6-.4-.9q-.3-.3-.9-.3c-.6 0-.8.1-1.1.2s-.5.2-.8.4l-.4.2c-.2 0-.2-.2-.2-.6v-.6c0-.1 0-.2-.1-.4s-.1-.3-.1-.4 0-.1.1-.2c.4-.3.9-.5 1.6-.7.6-.1 1.2-.2 1.7-.2.9 0 1.7.2 2.3.6.7.5 1.1 1.1 1.1 2 0 1.1-.9 2.5-2.6 4 1.2-.1 2.2-.1 2.9-.1-.2-.1-.1 0-.1.2M70.715 196.817c0 .7-.2 1.2-.6 1.6-.5.5-1.3.7-2.5.7h-.8c-1.3 0-2.1 0-2.4-.1-.1 0-.2-.1-.2-.2 0-.4 0-1 .1-1.7 0-.8.1-1.4.1-1.8s0-1.2-.1-2.4c0-.3 0-.7-.1-1.3v-.1c0-.1.1-.1.2-.1h3.2c.9 0 1.5.2 2 .4.6.3.8.9.8 1.7 0 .2-.1.4-.2.7-.1.2-.2.3-.4.5l-.2.2s0 .1.1.1c.3.1.4.4.6.7.3.5.4.8.4 1.1m-2.4-3c0-.3-.2-.5-.5-.6-.2-.1-.5-.1-.9-.1s-.6 0-.6.1v.6c0 .4 0 .6.1.6h.7c.9.1 1.2-.1 1.2-.6m.2 3c0-.3-.1-.5-.4-.7-.2-.1-.5-.1-.8-.1h-.8s-.1.3-.1.7 0 .7.1.7c0 0 .3.1.8.1.4 0 .7 0 .8-.1.3-.1.4-.3.4-.6M76.915 197.517c0 .2 0 .4-.1.9-.1.4-.1.7-.2.8 0 .1-.1.1-.2.1h-.2c-.3 0-1-.1-2.3-.1h-2.4c-.1 0-.2-.1-.2-.2 0-.4 0-1 .1-1.8 0-.8.1-1.4.1-1.8s0-1.2-.1-2.3c0-.3 0-.7-.1-1.3v-.1c0-.1 0-.1.1-.1h4.8c.2 0 .3.1.3.2s0 .3.1.8c0 .4.1.7.1.8s0 .1-.1.1h-.1c-1-.1-1.8-.1-2.6-.1-.2 0-.3 0-.4.1v.4c0 .2 0 .4.1.5s.2.1.4.1h2.4999999999999996c.1 0 .1 0 .1.1 0-.1 0 .2-.1.8v.9c0 .1-.1.1-.2.1 0 0-.2 0-.5-.1h-2c-.1 0-.2 0-.3.1v.3c0 .3 0 .4.1.5s.3.2.7.2h.8c.2 0 .5 0 .9-.1.4 0 .7-.1.8-.1 0 .1.1.2.1.3M82.615 199.317h-4.7c-.1 0-.2-.1-.2-.2v-7.4c0-.1.1-.1.2-.1h2c.1 0 .1 0 .1.1v.1c0 .7-.1 1.7-.1 3.1v2.5s0 .1.1.1h.1c.3 0 .8 0 1.5-.1.6 0 1.1-.1 1.5-.1.1 0 .1 0 .1.1 0 .6 0 1.1-.1 1.6 0 .1-.1.1-.1.2-.2.1-.3.1-.4.1M91.115 195.417c0 1.1-.4 2.1-1.1 2.8-.7.8-1.7 1.2-2.8 1.2s-2-.4-2.8-1.2c-.7-.8-1.1-1.7-1.1-2.8s.4-2.1 1.1-2.8c.7-.8 1.7-1.2 2.8-1.2s2 .4 2.8 1.2c.8.7 1.1 1.7 1.1 2.8m-2 0c0-.5-.2-1-.5-1.4s-.8-.6-1.3-.6-.9.2-1.3.6c-.3.4-.5.9-.5 1.4 0 .6.2 1 .5 1.4s.8.6 1.3.6.9-.2 1.3-.6c.3-.4.5-.9.5-1.4M98.415 196.517c0 .9-.1 1.5-.3 1.9q-.6.9-3 .9c-.7 0-1.3-.1-1.7-.2-.6-.2-1-.5-1.2-1-.1-.2-.1-.7-.1-1.3v-1.4c0-.4 0-1-.1-1.9 0-.8-.1-1.5-.1-1.9 0-.1 0-.1.1-.1h2c.1 0 .1 0 .1.1v4.2c0 .6.1.9.2 1.1.2.3.5.4 1 .4.7 0 1.1-.4 1.1-1.1v-4.6c0-.1 0-.2.1-.2h2c.1 0 .2 0 .2.1v1.9c0 .8-.1 1.5-.1 1.9v.5c-.2.4-.2.6-.2.7M101.615 195.217v3.9h-2c-.1 0-.2-.1-.2-.2v-.9c.1-1.5.1-2.4.1-2.9v-3.4c0-.1 0-.1.1-.1h2c.1 0 .2 0 .2.1 0 .4 0 1-.1 1.7 0 .8-.1 1.4-.1 1.8M107.615 199.317h-4.8c-.1 0-.2 0-.2-.1 0-.2 0-.6-.1-1 0-.2-.1-.3-.1-.3s.4-.7 1.3-2.1 1.3-2.1 1.3-2.2 0-.1-.1-.1h-2.2c-.1 0-.1 0-.1-.1s0-.4.1-.8.1-.7.1-.8 0-.1.1-.1h4.4c.1 0 .1 0 .1.1.1.3.1.7.1 1.2 0 .1 0 .1-.1.2-.2.3-.7 1.1-1.4 2.2-.8 1.3-1.2 1.9-1.2 2h1.8c.1 0 .3 0 .5-.1.2 0 .4-.1.5-.1s.1 0 .1.1c0 .6-.1 1.2-.2 1.8.2.1.2.2.1.2M115.715 195.417c0 1.1-.3 2-1 2.8-.6.7-1.4 1.1-2.5 1.1h-3.3c-.1 0-.2 0-.2-.1v-7.4c0-.1.1-.1.2-.1h3.5c.9.1 1.5.3 2 .6s.8.8 1.1 1.4c.1.5.2 1.1.2 1.7m-2 0c0-.6-.2-1.1-.5-1.5q-.6-.6-1.5-.6c-.9 0-.8.1-.8.2v3.8c0 .2.3.2.9.2s1.1-.2 1.5-.6c.2-.4.4-.9.4-1.5M123.715 199.017c0 .1 0 .1-.1.1h-2c-.1 0-.2-.1-.2-.2-.1-.5-.2-.8-.3-.8h-2.4c-.1.1-.1.3-.2.6s-.2.5-.2.5h-1.2c-.6 0-.8-.1-.8-.2s.4-1.2 1.2-3.4c.9-2.4 1.4-3.7 1.4-3.9 0-.1.1-.2.2-.2h1.7999999999999998c.1 0 .1.1.2.2q.3.6 1.5 3.9c.7 2.2 1.1 3.3 1.1 3.4m-3.8-4.9c-.1.2-.2.5-.4 1-.2.6-.3.9-.3 1s.1.1.3.1h.6c.2 0 .4 0 .4-.1v-.1c0-.1-.1-.4-.2-1-.2-.4-.3-.7-.4-.9M131.315 195.417c0 1.1-.3 2-1 2.8-.6.7-1.4 1.1-2.5 1.1h-3.3c-.1 0-.2 0-.2-.1v-7.4c0-.1.1-.1.2-.1h3.5c.9.1 1.5.3 2 .6s.8.8 1.1 1.4c.1.5.2 1.1.2 1.7m-2.1 0c0-.6-.2-1.1-.5-1.5q-.6-.6-1.5-.6c-.9 0-.8.1-.8.2v3.8c0 .2.3.2.9.2s1.1-.2 1.5-.6c.3-.4.4-.9.4-1.5"></path></g><path fill="#e30615" d="M71.415 220.917c.2.6.7 2.1 1.5 4.7.3 1.2.5 2.4.5 3.8h-2.5c-1.8-2.5-3.6-4.3-5.5-5.4s-4-1.7-6.3-1.7c-2.9 0-5.2 1.1-6.9 3.4-2.4 3-3.6 7.3-3.6 12.7 0 3.1.2 5.4.6 6.7.7 2.2 1.5 3.9 2.5 5.3.8 1 1.8 1.9 3.1 2.5 1.6.8 3.4 1.3 5.2 1.3 2 0 4-.6 5.9-1.9s3.7-3.2 5.5-5.7c.7-.1 1.6-.2 2.7-.2-.1.7-.2 1.4-.4 2.2-.1.3-.3 1.5-.6 3.5l-.3.8-.4 1.3c-1.1.9-2.7 1.5-4.8 2-2 .4-4.6.7-7.5.7-2.3 0-4.4-.2-6.5-.6-2-.4-3.8-1.1-5.2-2-2.1-1.3-3.8-2.8-5-4.3q-1.8-2.4-2.7-5.1c-.9-2.7-.9-3.9-.9-6.2 0-5.5 1.8-10.1 5.5-13.7 3.6-3.6 8.3-5.4 13.9-5.4 2.3 0 4.5.1 6.5.3s3.9.5 5.7 1M97.315 248.917c1.2 0 2.2.4 3 1.1s1.2 1.6 1.2 2.5c0 1.2-.3 2.2-.7 2.8-.9 1.1-2 1.6-3.2 1.6s-2.2-.4-2.9-1.1c-.8-.8-1.1-1.7-1.1-2.9 0-.8.2-1.4.6-2.1.3-.5.8-1 1.7-1.6.1-.1.7-.3 1.4-.3M121.315 254.617q.75-.45 2.1-.6c1.35-.15 1.8-.3 2.6-.6.1-.4.2-.6.2-.8 0-.3.1-1.1.1-2.7v-6.2l.1-3.3v-4.1c.1-2 .1-3.9.1-5.7 0-3.8 0-6.3-.1-7.4l-1.6-.3q-2.25-.15-3-.3l-.1-1.7.1-.3c.9-.2 1.8-.2 2.6-.2h2.6c1.3.1 2.1.2 2.2.2l1.5-.1 3.5-.2q3.3-.3 6.9-.3c3.8 0 6.8 1 9.1 2.9 2.2 1.9 3.4 4.2 3.4 6.7q0 2.85-1.8 5.1c-1.8 2.25-3.1 2.7-5.6 3.5.2.4.5.8.9 1.4.8 1.1 1.4 2.1 1.9 2.8l4.4 7.2c1.1 1.9 1.8 3 2.2 3.3.3.3 1.1.7 2.1 1.1.8.3 1.5.6 1.9.9.1.3.2.6.2.8v.6h-1.2999999999999998l-1.4-.2h-1.1c-.6-.1-1.3-.1-2.2-.1h-2.8c-.2 0-.9.1-1.9.2-.5 0-.9.1-1.2.1l-.9-1.8c-.8-1.4-1.3-2.4-1.6-3.1-.8-1.8-2.2-4.7-4.2-8.6-.9-1.8-1.6-2.8-1.9-3.1-.5-.4-1.5-.6-2.9-.6-.4 0-1 0-1.9.1-.1.5-.1 1.2-.1 1.9l.1 6.2-.1 5.2c.5.3 1.2.6 2 .7 1.5.3 2.7.7 3.7 1.1 0 .9 0 1.6-.1 2.1h-.7l-1.1.1c-4-.4-6.3-.5-7.1-.5h-1l-3.8.3c-1.2.1-2.2.2-3.2.2h-1.2c0-.5-.1-.8-.1-.9-.5-.4-.5-.7-.5-1m12.5-18c.9 0 1.5.1 2 .1 3.1 0 5.4-.6 6.7-1.7s2-2.6 2-4.5c0-1.2-.2-2.3-.5-3.3s-.7-1.8-1.2-2.3c-.7-.7-1.6-1.3-2.7-1.6-.8-.3-2.1-.4-3.9-.4-.9 0-1.6 0-2.2.1v4.2l-.1 2.3v3c0 .8-.1 2-.1 3.3zM180.315 248.917c1.2 0 2.2.4 3 1.1s1.2 1.6 1.2 2.5c0 1.2-.3 2.2-.7 2.8-.9 1.1-2 1.6-3.2 1.6s-2.2-.4-2.9-1.1c-.8-.8-1.1-1.7-1.1-2.9 0-.8.2-1.4.6-2.1.3-.5.8-1 1.7-1.6.1-.1.6-.3 1.4-.3M204.015 256.517l.1-2.2c.4-.1 1-.2 1.6-.3 1.2-.2 2.2-.4 2.9-.7.3-.4.4-.8.5-1.2.2-1 .2-2.6.2-4.6v-11.8c0-1.2-.1-4.4-.2-9.6 0-1.4-.1-2.2-.3-2.6l-.3-.3c-.3-.2-.8-.3-1.7-.4q-.6 0-2.7-.3l-.1-2 6.2-.1 9.1-.3h5.1c1.4 0 2.9.2 4.6.6.6.2 1.3.5 2.3.9.9.5 1.8 1.1 2.5 1.8s1.2 1.6 1.5 2.5.5 1.9.5 2.9c0 1.1-.3 2.1-.8 3s-1.3 1.7-2.3 2.5q-.75.6-3.6 1.8c2.8.6 4.9 1.8 6.4 3.5s2.2 3.5 2.2 5.6c0 1.2-.2 2.5-.7 3.8-.3 1-.9 1.9-1.7 2.8-1.1 1.1-2.2 2-3.3 2.6-1.2.6-2.8 1.1-4.9 1.4-1 .2-2.6.3-4.7.3l-4.7-.1c-2 0-4.4.1-7.1.3-.9 0-3.1.1-6.6.2m12.9-21.1c.7.1 1.6.2 2.6.2q4.2 0 6.3-1.5c2.1-1.5 2.1-2.8 2.1-5.3 0-1.8-.7-3.3-2-4.4-1.3-1.2-3.4-1.8-6.1-1.8-.8 0-1.8.1-3.1.3v1.8c.1 1.6.1 3.8.1 6.6v2.3c.1.4.1 1 .1 1.8m.3 17.7c1.2.5 2.3.8 3.4.8 2.1 0 3.8-.3 5.2-1 1.3-.6 2.3-1.5 2.9-2.7.6-1.1.9-2.6.9-4.3 0-1.8-.3-3.2-1-4.3-.9-1.5-2-2.5-3.4-3-1.3-.5-3.3-.8-5.9-.8-1.2 0-2 .1-2.4.2v7.5l.1 6.4c0 .5.1.8.2 1.2"></path><path fill="#e30615" fill-rule="evenodd" d="m139.015 215.717 111.7.1c-21.3-36.2-20.3-72.5 0-108.7-20.7 11.8-41.4 11.1-62.1-.1-14.9 11.7-31.4 17.3-49.6 16.6-18.2.6-35-4.9-49.8-16.6-20.7 11.2-41.4 11.9-62.1.1 20.3 36.2 21.3 72.5 0 108.7zm0-78.7v67h-83c9.3-24.8 9.5-49.7 0-74.5 11 1.3 22.1-.4 33.1-5.4 15.5 8.9 32.1 13 49.9 12.9m85.4 61.2c-24.3-1.6-32.1-25.4-28.5-64.4 1.4 37.5 11.1 58.6 28.5 64.4m-39.7-64.4c3.6 39-4.2 62.8-28.6 64.4 17.4-5.8 27.2-26.9 28.6-64.4m4.8 8.5c.2-2.1.5-4.1.7-6.2v.2-.2c.3 2.1.5 4.1.7 6.2.8 7.6 1.3 15.1 1.3 22.5 0 9-.6 17.8-2 26.4v-.1.1c-1.4-8.6-2-17.4-2-26.4 0-7.4.5-14.9 1.3-22.5M122.715 360.917v-91.2h32.400000000000006v91.2l-16 16zm130.9-100.2h-229.39999999999998c-22 123.3 86 72.3 114.8 128.1 28.8-55.8 136.6-4.8 114.6-128.1m-167.1 9v78.1l-27.9-7.5-.1-70.7h28zm104.8 78.1v-78.1h28l-.1 70.7z" clip-rule="evenodd"></path><path fill="#fbffff" fill-rule="evenodd" d="M58.515 269.717h28v78.1l-27.9-7.5zm160.8 0h-28v78.1l27.9-7.5zm-80.3 0h16.1v91.2l-16 16-16.3-16v-91.2z" clip-rule="evenodd"></path><path fill="#ceaf54" d="M58.515 268.817h29v80.2l-1.2-.3-27.9-7.5-.7-.2v-.7l-.1-70.7v-1h.9zm27.1 1.9h-26.1l.1 69 26 7zm132.7 0h-26.1v75.9l26-7zm-27-1.9h29v1l-.1 70.7v.7l-.7.2-27.9 7.5-1.2.3v-80.5h.9zm-52.3 0h17.1v92.6l-.3.3-16 16-.7.7-.7-.7-16.3-16-.3-.3v-92.6h1zm15.1 1.9h-30.4v89.9l15.4 15.1 15.1-15.1v-89.9z"></path><g fill-rule="evenodd" data-source="https://football-logos.cc"><path fill="url(#a)" d="m340.1 292.8-.4-140.5-32.16 98.6z" transform="matrix(.31025 0 0 .31025 34.736 -47.25)"></path><path fill="#d2c308" d="m140.282.031 9.757 30.293-9.63 13.247z"></path><path fill="#faf26f" d="m140.561 43.466 41.511-13.152-32.141-.003z"></path><path fill="#a29910" d="m140.53 43.683 15.776 5.38 25.782-18.715z"></path><path fill="#d2c308" d="m124.428 49.112 15.612-5.311-41.635-13.496z"></path><path fill="#faf26f" d="m140.096 43.9-25.648 36.02 9.996-30.746z"></path><path fill="url(#b)" d="m341.1 293.6 50.78 16.82 31.72 97.69z" transform="matrix(.31025 0 0 .31025 34.736 -47.25)"></path><path fill="#a29910" d="m140.282 60.901 25.775 18.507-25.614-35.493z"></path><path fill="#faf26f" d="m129.95 30.683 10.413 13.254-42.07-13.62z"></path><path fill="#a29910" d="M140.282 60.901 114.562 79.3l25.76-35.523z"></path></g><!-- source: https://football-logos.cc --></svg>