<svg xmlns="http://www.w3.org/2000/svg" viewBox="41.69 23.53 948.2 953.88"><!-- Source: https://football-logos.cc --><path fill="#05258d" fill-rule="evenodd" d="M873.58 570.48a.471.467 12.588 0 0 .41.64q2.82.13 10 .89 50.72 5.37 91.14 10.6c4.96.64 11.09 2.42 13.69 7.03q1.04 1.84 1.04 6.97.05 120.47 0 199.39c0 6.17-4.41 6.87-9.77 6.17q-30.45-4.02-69.1-7.88-66.84-6.69-130.24-11.2a1.678 1.668-67.265 0 0-1.38.57q-21.66 24.5-44.78 46.89-22.23 21.53-48.72 42.7-31.77 25.38-63.93 46.18c-30.72 19.88-62.21 38.24-94.24 54.51-6.16 3.13-8.74 5.04-14.55 1.75q-6.41-3.64-13.77-7.35c-20.7-10.46-40.82-22.37-62.19-35.34q-8.06-4.89-24.11-15.4-49.39-32.31-92.52-70.43-29.44-26.01-62.86-63.43a1.034 1.03-23.081 0 0-.85-.34q-86.26 6.57-111.11 8.82-44.28 4.03-95.49 10.05c-2.9.34-6.21-.15-7.83-2.75q-.73-1.17-.73-4.68.06-156.6.19-201.55c.02-6.51 5.65-8.97 11.72-9.88 33.83-5.08 67.2-8.15 104.12-11.68a.661.658-12.627 0 0 .56-.88q-4.6-12.56-5.65-15.5-33.3-92.77-34.23-192.03c-.24-24.85-.03-54.11 2.9-81.31q4.84-45.03 10.02-74.26c5.78-32.65 13.65-66.66 21.94-99.94a4.3 4.158-24.054 0 1 .37-.92q1.68-3.04 4.88-4.66 12.68-6.43 23.73-11.25 45.98-20.05 93.54-33.69c44.15-12.67 87.77-21.18 135.64-27.23q40.84-5.16 81.32-6.22c124.28-3.26 249.1 19.25 363.07 68.88q9.75 4.24 17.23 7.99 3.74 1.87 4.77 5.71c6.86 25.47 13.35 53.74 19.05 82.41q3.28 16.5 3.39 17.16 9.15 53.03 11.89 95.02 1.79 27.4 1.08 66.49-.77 42.02-7.93 87.11-9.51 59.95-31.71 115.87M375.03 231.57l-11.96 9.78a.42.413 61.402 0 1-.66-.2q-.15-.49-.02-.98 9.01-35.18 35.6-60.69 16.32-15.66 36-25.74 10.69-5.48 21.46-10.24a.694.692 62.303 0 0 .31-1c-.93-1.51-2.14-3.49-3.33-5.03q-10.64-13.68-8.81-31.02.22-2.06 2.4-8.81a.476.474-67.911 0 1 .66-.28q22.45 11.25 39.53 18.91 8.06 3.61 17.34 2.78a6.715 6.428-55.714 0 0 1.51-.32c1.96-.66 3.34-1.23 5.04-1.34q16.57-1.15 29.04 3.02 8.85 2.97 19.53 9.47 5.75 3.5 13.08 2.51 17.13-2.34 31.14-11.31 4.26-2.73 5.17-3.3c4.54-2.84 8.7-4.18 13.47-4.95a.88.862-17.345 0 1 .92.47q1.39 2.8 1.16 5.97c-1.11 15.23-7.85 30.27-17.9 41.62q-9.45 10.67-11.12 13a.327.323-60.216 0 0 .13.49c11.83 5.25 21.01 9.54 31.97 16.42q8.77 5.5 14 9.79 18.82 15.48 30.93 37.76a1.074 1.073 65.202 0 0 1.33.49c10.91-4.22 19.95-6.84 29.91-11.18 19.04-8.3 36.31-17.83 51.86-28.99q12.68-9.1 27.29-21.58c13-11.09 25.91-19.03 42.14-21.26a1.07 1.07 85.982 0 0 .92-1.06q-.03-7.17-5.66-11.19-5.82-4.16-11.89-7.33-17.66-9.2-36.98-16.52-23.1-8.75-43.56-14.65-62.33-17.97-129.03-23.71c-52.9-4.56-107.1-4.53-160.57 1.12q-33.06 3.48-43.55 5.13-37.11 5.8-56.79 10.51-27.94 6.69-36.46 9.27-18.86 5.7-39.8 13.1c-13.58 4.8-24.48 9.49-37.46 15.84q-7.16 3.5-13.63 8.11-3.32 2.36-4.19 5.75-3.13 12.17-8.57 36.2c-8.32 36.68-11.98 73.6-16.32 111.64-1.43 12.59-2.1 24.99-2.13 35.96a.688.684-5.557 0 0 .82.67q11.68-2.29 27.89-6.8 13.91-3.87 27.01-9.52 15.26-6.58 24.95-11.92c4.77-2.63 10.02-6.12 14.57-8.72 9.16-5.25 20.6-13.86 26.5-17.66q4.08-2.64 14.24-9.96 7.07-5.09 18.22-11.42c10.57-6 19.76-5.18 30.84-2.32a2.52 2.52 18.353 0 0 2.97-1.49l9.19-22.82a.416.412-8.869 0 0-.65-.47m41.5 91.67-1.93 11.07a.33.324-49.965 0 1-.63.06q-1.84-5.29-2.58-11.18c-2.05-16.36-.41-33.23 4.62-48.65q3.4-10.42 10.43-19.63a.259.258-16.819 0 1 .45.24c-5.77 16.24-7.69 34.55-2.27 51.29a.145.142 40.279 0 0 .28-.02q1.42-11.11 5.01-22.5 4.41-13.99 12.79-25.99 11.42-16.34 24.21-28.03 14.24-13 16.71-15.2a.28.277-72.898 0 0-.25-.48q-14.65 3.77-27.98 11.94-3.85 2.36-4.81 2.92a.185.183 3.532 0 1-.24-.27c12.85-16.68 31.69-28.49 52.96-30.44a.355.355 80.192 0 0 .31-.44q-.06-.25-.28-.44-.19-.16-.47-.2-3.56-.49-6.01-1.26a.401.4-39.232 0 1 .08-.78c14.46-1.5 22.95-2.08 32.81-3.95q21.05-3.99 40.95-12.9 10.2-4.56 20.05-12.91 1.76-1.49 2.76-3.01a.421.42-84.466 0 0-.51-.62c-5.13 2.09-9.3 4.11-14.58 5.73q-17.43 5.33-35.76 5.32a.295.293-61.69 0 1-.16-.54q.48-.32 1.32-.57c8.45-2.52 19.26-4.56 27.07-7.49 7.97-2.99 13.43-4.42 19.28-7.94q7.05-4.24 9.13-5.83 8.71-6.66 12.11-17.07a.345.344-3.174 0 0-.47-.42l-5.35 2.44a.509.509 82.759 0 1-.71-.55l1.11-6.35a.34.336 74.828 0 0-.55-.32c-2.42 2.05-5.86 4.22-8.93 5.43q-11.64 4.58-23.51 6.29-9.82 1.42-18.56-3.68c-5.67-3.31-9.78-6.32-14.66-8.07-14.36-5.15-28.65-4.44-43.11.34a5.673 5.659 48.474 0 1-4.2-.26l-40.86-19.48a.333.328-78.887 0 0-.47.32c.81 15.47 8.82 29.19 20.94 38.64a.254.252 60.116 0 1-.12.45q-5.11.7-10.69 2.58-26.32 8.88-48.68 26.11c-2.72 2.09-4.97 4.53-7.87 6.94-9.42 7.82-17 18.19-22.95 29.41q-.22.41-.16.68a.473.455-26.82 0 0 .75.23c14.17-11.54 28.2-22.02 44.51-29.46a.239.234 11.913 0 1 .26.39q-5.4 4.65-10.21 9.27-37.59 36.05-48.48 87.53-3.26 15.37-1.35 30.69a.244.239 50.471 0 0 .47.05q8.43-27.43 22.96-52.32a.38.378 68.404 0 1 .69.3c-7.2 24.53-9.59 50.78-4.4 75.86 3.44 16.61 8.91 31.83 18.16 46.51q.96 1.53 2.03 2.35a.446.443-74.21 0 0 .71-.4q-1.35-13.49-3.99-25.4a.142.134-20.118 0 1 .08-.16l.24-.11a.542.533 66.039 0 1 .71.28q1.63 3.86 3.98 7.45 6.97 10.65 13.7 18.81 18.29 22.18 43.88 34.07a.272.27 84.06 0 0 .33-.41q-5.34-7.07-10.56-12.77c-5.86-6.39-11.94-14.87-15.22-20.53-6.65-11.49-12.99-24.14-16.92-36.51q-4.37-13.77-6.98-26.46a.214.213-46.191 0 0-.42.01m397.04-99.03a.12.117-35.407 0 1-.04.22q-26.32 3.96-53.39 9.76-14.91 3.19-40.88 9.63c-14.46 3.59-21.58 4.97-37.56 8.3a.683.679-17.659 0 0-.49.94q11.4 26.18 13.13 54.59a.791.781-2.583 0 0 .82.74q28.82-1.13 56.35-6.6 5.6-1.11 24.68-7.55c5.35-1.81 10.43-3.3 15.57-3.1q29.17 1.15 58.03 4.05a.628.628-20.363 0 0 .69-.69q-3.91-37.66-10.83-78.68-3.98-23.62-9.58-45.57-.79-3.09-1.57-5.01a1.727 1.721 67.081 0 0-2.28-.93q-5.76 2.49-10.36 3.95c-13.55 4.3-23.32 14.15-26.08 27.78-.86 4.21-3.2 16.24-.52 19.33q1.85 2.15 4.1 2.39 10.3 1.09 20.21 6.45m-252.63-18.47c-3.79-6.52-7.48-11.31-15.58-9.35q-8.74 2.11-22.7 6.05-13.88 3.92-25.75 12.97-6.27 4.79-14.46 11.72c-3.28 2.78-9.26 6.85-5.06 11.52q14.97 16.64 16.76 18.94 2.09 2.68 4.53 1.81c14.93-5.34 27.81-9.48 40.52-13.79 1.84-.62 3.73-1.76 4.56-3.36q3.34-6.39 8.58-17.49c2.94-6.23 6.65-12.47 8.69-18a1.187 1.179 40.145 0 0-.09-1.02m112.3 73.17c-2.03-32.06-24.54-56.04-47.25-76.24a.499.496 33.232 0 0-.78.16c-2.59 5.33-5.27 9.45-1.09 15.06q3.98 5.35 5.27 6.96 10.21 12.72 15.71 25.32 2.33 5.34 4.19 7.54c5.77 6.83 10.24 10.17 20.47 18.54q1.7 1.39 3.03 2.85a.26.259-67.771 0 0 .45-.19m-99.32-70.55c-3.15-.1-6.09.56-7.72 3.85q-7.54 15.18-14.4 29.59-2.22 4.66.1 8.02 9.15 13.24 23.01 35.26 2.4 3.83 6.18 4.29 22.37 2.71 38.72 5.93c4.96.98 7.84.48 10.03-3.98 1.93-3.91 3.08-6.53 5.12-9.92q2.98-4.94 6.88-11.92c3.88-6.94.8-11.8-2.92-17.81q-3.08-5-19.07-30.16-2.19-3.45-4.77-4.1-16.3-4.11-38.07-9.46-1.5-.37-2.52.26a1.038 1.009 29.433 0 1-.57.15m-104.55 33.45q-7.74 6.54-20.74 23.25-8.66 11.13-12.2 23.05-4.49 15.16 2.67 29.29 4 7.87 11.87 12.93c3.09 1.98 4.67 3.42 7.85 1.26q16.64-11.3 24.67-17.1 2.46-1.78 2.64-3.23.97-8.04 4.67-41.23c.45-3.96.52-5.37-2.09-8.03q-4.16-4.24-9.11-10.17c-2.97-3.56-6.68-6.73-9.46-9.96a.553.546-40.141 0 0-.77-.06m-105.4 114.8c-11.47-20.13-10.88-44.01-7.5-66.54 1.16-7.71 3.67-16.6 4.73-22.62.56-3.18-2.53-4.85-5.16-4.91-5.89-.13-12.93 1.01-16.27 5.3q-14.8 19.01-34.56 33.87-10.34 7.78-20.48 15.02c-1.23.88-2.83 2.5-3.64 3.37a1.413 1.409-49.761 0 0 .17 2.07q2.48 1.95 5.84 3.01 25.11 7.94 47.03 18.18 3.68 1.72 7.43 3.97a.23.229-23.043 0 1-.17.42q-20.04-4.42-32.75-7.69c-17.67-4.55-34.93-5.06-51.37 1.24q-17.91 6.85-21.18 7.84-14.27 4.32-31.05 4.91-6.68.23-13.07-.41-8.69-.87-13.02-1.45a.443.438-85.398 0 0-.5.43q-.14 10.64.18 24.1c.2 8.52 6.41 7.47 12.13 9.48q41 14.43 84.57 20.62c31 4.41 59.91 5.02 92.17 7q22.21 1.36 43.71 5.74a.153.152 10.137 0 1 .12.17v.01a.192.191-86.622 0 1-.19.17q-39.45-1.24-76.26-.42c-18.21.41-31.9.01-53.54.12q-24.1.12-40.16-.92-25.23-1.63-43.16-4.41-8.97-1.4-18.74-2.83a.526.52-89.633 0 0-.59.59l8.1 60.88a.667.66-2.966 0 0 .65.58q15.13.06 30.09 2.45 21.82 3.48 29.72 5.35 12.38 2.94 27.99 5.22 13.54 1.99 23.27 1.19 8.85-.72 32.69-3.77 31.51-4.04 62.04-4.19 11.45-.06 41.26 2.74 11 1.03 51.26 2.45.49.02.9-.43a.402.4-61.211 0 0-.19-.66q-23.05-6.21-44.94-9.66c-9.54-1.49-20.11-2.05-29.27-1.72q-15.66.57-29.65 4.68a.35.346-82.24 0 1-.39-.52c10.13-16.14 25.17-30.18 42.89-37.56 9.65-4.02 17.1-6.58 27.21-7.95q4.62-.63 4.8-.68a.228.227 54.988 0 0 .07-.4l-35.87-26.27a.533.532 5.875 0 0-.8.65l4.14 9.12a.235.235 2.684 0 1-.33.3c-30.99-17.79-46.7-55.76-50.55-89.75a.471.47-34.017 0 0-.88-.17c-5.29 9.74-7.22 21.3-8.4 32.58a.285.284 33.149 0 1-.53.11m110.12 99.08c-11.04.07-22.7 1.12-33.24 5.58a.481.48-53.098 0 0 .13.92c7.72.9 18.92 2.47 29.66 4.79 16.93 3.66 29.6 6.3 45.85 8.56q16.88 2.35 34.53-.4c13.54-2.11 26.93-5.73 38.35-12.8a.508.507 34.679 0 0-.17-.93q-.84-.16-2.18.11-17.54 3.57-35.33 1.54a.319.318-46.937 0 1-.02-.63c14.97-2.81 28.6-7.8 42.04-16.17q14.43-8.98 25.44-19.68a.343.342 85.196 0 1 .52.44l-14.99 22.02a.273.272 7.092 0 0 .32.41c9.7-3.73 19.47-9.75 27.94-16.76q21.15-17.51 34.92-42.56 8.14-14.81 12.33-34.15 5.68-26.2 3.65-48.07-.69-7.36-2.64-13.07a.258.255 43.515 0 0-.49.01q-1.7 6.2-3.17 15.91-2.91 19.13-5.14 32.93-2.43 15.02-11.9 27.13a.343.34 70.53 0 1-.6-.29l5.49-24.15a.698.696 87.583 0 0-.89-.82q-14.1 4.49-19.11 6.32-2.08.76-3.06 2.22-7.59 11.27-9.95 13.8-17.68 18.93-33.67 31.3-35.44 27.42-81.71 34.02c-14.65 2.09-29.7 2.91-43.69 4.44q-19.2 2.09-26.15 3.6-12.99 2.82-25.97 9.43a.511.508 28.882 0 0 .28.96c5.61-.49 12.49-1.66 18.03-1.75q15.39-.26 30.04 3.7 3.02.81 4.65 1.69a.213.213-85.756 0 1-.1.4m118.79-66.45 6.64-.91a6.029 6.022-68.7 0 0 3.07-1.35q8.27-6.87 15.06-13.04 9.67-8.78 17.85-21.91 2.98-4.76 1.78-9.1-5.86-21.28-10.02-35.37-.78-2.64-4.46-4.48a1.358 1.283-26.081 0 0-.45-.14q-29.26-4.5-43.76-6.58-3.51-.51-5.59 1.91-11.33 13.13-21.27 25.44-2.18 2.7-4.86 5.7-3.97 4.43-4.64 5.85-.68 1.46-.12 3.46 7.34 26.11 9.7 34.16.61 2.07.63 2.16c1.27 5.91 4.78 5.92 11.06 7.47q16.23 4.01 29.28 6.72a.532.482 47.855 0 0 .1.01m66.09 52.35 2.67-17.72a1.78 1.78 2.342 0 0-1.88-2.04q-.11.01-.72.71-7.46 8.58-13.26 14.74-11.18 11.88-27.08 24.18c-8.99 6.96-18.67 12.78-27.8 17.41q-2.35 1.2-5.23 2.12a.053.05 35.548 0 0 .02.1q9.69.16 18.16-.24 6.87-.32 17.94-2.71c20.07-4.33 39.12-7.48 58.25-12.06q3.04-.73 17.43-3.66 9.86-2 40.85-9.56c4.73-1.15 10.71-3.31 16.46-4.83q2.28-.6 12.24-3.96 7.08-2.4 16.69-6.15 28.17-11.02 55.25-28.69c7.96-5.2 13.55-9.52 14.1-19.12q2.01-34.85-.75-72.2a.293.291-5.533 0 0-.33-.27q-19.51 2.23-38.67 3.5c-11.02.73-17.61 2.2-24.65 9.78-5.1 5.49-9.68 13.71-13.2 19.88-6.06 10.63-14.57 19.84-24.84 25.56-20.21 11.24-42.12 16.82-67.24 23.74-3.51.97-4.63 1.82-5.96 5.58-4.91 13.82-9.48 24.51-17.96 36.11a.273.272-22.774 0 1-.49-.2m-115.93-56.02c3.1-2.1 3.69-4.18 2.85-7.41q-4.19-16.02-8.57-31.58-1.34-4.74-1.64-5.75-1.03-3.39-4.56-4.96-19.17-8.52-39.7-16.07a4.45 4.431 42.687 0 0-3.4.13q-2.19.99-5.19 3.14-7.69 5.52-18.68 13.02c-2.73 1.86-4.68 3.98-4.05 7.11q4.45 22.12 5.08 25.47c1.44 7.76 3.96 13.93 10.54 17.57q15.53 8.61 36.47 17.69a2.875 2.834 51.237 0 0 1.63.19q4.66-.87 6.99-2.56 19.31-14 22.23-15.99m-86.84 4.71c9.9 10.14 21.01 18.08 34.44 23.86q16.13 6.94 30.08 6.69a.315.314-18.553 0 0 .25-.5q-2.93-4.03-6.24-7.46-2.24-2.33-8.75-5.18-16.53-7.23-20.55-9.01c-5.62-2.48-10.32-6.4-15.91-7.7q-5.92-1.37-13.19-1.02a.191.189-23.184 0 0-.13.32m263.4 92.52a.42.42-56.703 0 1 .42-.42q8.95-.09 25.48-1.09 48.09-2.9 97.7-6.14a1.157 1.146-87.481 0 0 1.06-.98q5.27-36.07 7.52-56.89.29-2.64.2-4.7a.84.84-11.411 0 0-1.13-.75q-2.32.87-4.32 2.19-13.98 9.22-26.12 15.35c-26.49 13.35-53.66 22.87-82.63 31.1q-21.59 6.13-30.51 8.27-35.09 8.43-57.26 13.75-2.54.61-3.76 1.28a.851.816 1.193 0 0-.25.23q-.1.15-.11.32-.01.5.47.57 5.99.97 11.14 1.37 19.48 1.52 68.58 6.03a.211.199 4.436 0 1 .19.21l-.01.01a.14.13 0 0 1-.14.13q-23.87-.53-46.87-.66-70.58-.41-141.15-.08c-6.73.03-10.96-.28-16.36-.1q-4.72.16-9.97.21-99.13.83-205.26 2.38-11.53.17-15.84 1.68c-12.41 4.34-16.31 13.84-19.65 26.7q-1.34 5.16-4.26 15.18-3.08 10.56-5.67 20.36c-1.26 4.73-2.9 11.21-7.77 11.51q-29.85 1.82-30.57 1.89-3.15.33-21.74 1.81-53.6 4.27-99.93 9.41-3.62.41-22.03 2.23-17.33 1.71-22.02 2.64c-5.41 1.08-8.79 3.19-8.94 8.89q-.35 13.18-.36 26.31-.02 18.11.04 149.5 0 9.65.13 20.61a3.324 3.161-56.797 0 0 .19 1.04c1.52 4.12 4.85 2.21 7.78 1.91q33.8-3.51 90.63-9.17 28.27-2.81 48.19-4.09 16.01-1.02 30.73-2.15 30.18-2.3 69.93-4.43a1.466 1.46 66.929 0 1 1.16.47q26.66 28.9 58.18 54.36 36.61 29.58 75.62 53.52 11.59 7.11 29.51 17.75 12.35 7.33 53.67 29.4c3.13 1.67 5.26 2.01 8.4.41q.01 0 10.06-5.62 5.56-3.11 10.19-5.33 9.5-4.56 21.18-11.15c8.07-4.56 16.49-9.03 26.01-14.71q22.13-13.21 43.47-27.55 30.6-20.55 60.2-46.52 19.3-16.93 44.72-43.72a2.056 1.936-76.793 0 1 .77-.51q1.8-.66 4.51-.57 48.86 1.54 100.17 6.39c3.12.3 7.06.27 10.34.58q62.08 5.75 124.54 12.86 3.08.35 4.32-.52 1.67-1.17 1.67-4.01.22-83.16.09-186.12-.01-9.59-.85-11.64-2.23-5.48-9.06-6.4-30.57-4.08-85.05-9.94-30.27-3.25-98.89-8.94-2.82-.24-4-1.02c-2.63-1.74-4.02-7.9-5.66-12.77a.377.377-8.504 0 1 .37-.5q16.09.59 31.51 1.8 4.73.37 6.55-4.19 4.93-12.31 8.53-21.42 9.28-23.53 14.61-48.16a.657.653-86.333 0 0-.69-.79q-31.96 2.58-66.25 3.62c-18.18.54-38.02-1.29-55.56-2.12a.09.09-56.249 0 1-.09-.09zm-529.33-1.03a.615.609-4.106 0 0-.63.72q7.33 39.91 24.9 76.19.73 1.51 1.77 2.39a1.719 1.667 68.812 0 0 .87.4q3.65.51 8.33.39 10.46-.27 21.07-.27a1.855 1.777 29.291 0 0 .89-.23q2.63-1.44 3.58-4.08 3.68-10.31 9.09-27.51c2.12-6.7 3.84-16.64 5.91-22.2q1.09-2.91 6.12-10.99a.39.387-67.378 0 0-.24-.59q-1.1-.27-12.47-3.78-7.29-2.25-12.62-3.37-28.41-5.94-56.57-7.07" data-source="https://football-logos.cc"></path><path fill="#fff" fill-rule="evenodd" d="M375.03 231.57a.416.412-8.869 0 1 .65.47l-9.19 22.82a2.52 2.52 18.353 0 1-2.97 1.49c-11.08-2.86-20.27-3.68-30.84 2.32q-11.15 6.33-18.22 11.42-10.16 7.32-14.24 9.96c-5.9 3.8-17.34 12.41-26.5 17.66-4.55 2.6-9.8 6.09-14.57 8.72q-9.69 5.34-24.95 11.92-13.1 5.65-27.01 9.52-16.21 4.51-27.89 6.8a.688.684-5.557 0 1-.82-.67c.03-10.97.7-23.37 2.13-35.96 4.34-38.04 8-74.96 16.32-111.64q5.44-24.03 8.57-36.2.87-3.39 4.19-5.75 6.47-4.61 13.63-8.11c12.98-6.35 23.88-11.04 37.46-15.84q20.94-7.4 39.8-13.1 8.52-2.58 36.46-9.27 19.68-4.71 56.79-10.51 10.49-1.65 43.55-5.13c53.47-5.65 107.67-5.68 160.57-1.12q66.7 5.74 129.03 23.71 20.46 5.9 43.56 14.65 19.32 7.32 36.98 16.52 6.07 3.17 11.89 7.33 5.63 4.02 5.66 11.19a1.07 1.07 85.982 0 1-.92 1.06c-16.23 2.23-29.14 10.17-42.14 21.26q-14.61 12.48-27.29 21.58c-15.55 11.16-32.82 20.69-51.86 28.99-9.96 4.34-19 6.96-29.91 11.18a1.074 1.073 65.202 0 1-1.33-.49q-12.11-22.28-30.93-37.76-5.23-4.29-14-9.79c-10.96-6.88-20.14-11.17-31.97-16.42a.327.323-60.216 0 1-.13-.49q1.67-2.33 11.12-13c10.05-11.35 16.79-26.39 17.9-41.62q.23-3.17-1.16-5.97a.88.862-17.345 0 0-.92-.47c-4.77.77-8.93 2.11-13.47 4.95q-.91.57-5.17 3.3-14.01 8.97-31.14 11.31-7.33.99-13.08-2.51-10.68-6.5-19.53-9.47-12.47-4.17-29.04-3.02c-1.7.11-3.08.68-5.04 1.34a6.715 6.428-55.714 0 1-1.51.32q-9.28.83-17.34-2.78-17.08-7.66-39.53-18.91a.476.474-67.911 0 0-.66.28q-2.18 6.75-2.4 8.81-1.83 17.34 8.81 31.02c1.19 1.54 2.4 3.52 3.33 5.03a.694.692 62.303 0 1-.31 1q-10.77 4.76-21.46 10.24-19.68 10.08-36 25.74-26.59 25.51-35.6 60.69-.13.49.02.98a.42.413 61.402 0 0 .66.2z"></path><path fill="#d6ab50" fill-rule="evenodd" d="M416.53 323.24a.214.213-46.191 0 1 .42-.01q2.61 12.69 6.98 26.46c3.93 12.37 10.27 25.02 16.92 36.51 3.28 5.66 9.36 14.14 15.22 20.53q5.22 5.7 10.56 12.77a.272.27 84.06 0 1-.33.41q-25.59-11.89-43.88-34.07-6.73-8.16-13.7-18.81-2.35-3.59-3.98-7.45a.542.533 66.039 0 0-.71-.28l-.24.11a.142.134-20.118 0 0-.08.16q2.64 11.91 3.99 25.4a.446.443-74.21 0 1-.71.4q-1.07-.82-2.03-2.35c-9.25-14.68-14.72-29.9-18.16-46.51-5.19-25.08-2.8-51.33 4.4-75.86a.38.378 68.404 0 0-.69-.3q-14.53 24.89-22.96 52.32a.244.239 50.471 0 1-.47-.05q-1.91-15.32 1.35-30.69 10.89-51.48 48.48-87.53 4.81-4.62 10.21-9.27a.239.234 11.913 0 0-.26-.39c-16.31 7.44-30.34 17.92-44.51 29.46a.473.455-26.82 0 1-.75-.23q-.06-.27.16-.68c5.95-11.22 13.53-21.59 22.95-29.41 2.9-2.41 5.15-4.85 7.87-6.94q22.36-17.23 48.68-26.11 5.58-1.88 10.69-2.58a.254.252 60.116 0 0 .12-.45c-12.12-9.45-20.13-23.17-20.94-38.64a.333.328-78.887 0 1 .47-.32l40.86 19.48a5.673 5.659 48.474 0 0 4.2.26c14.46-4.78 28.75-5.49 43.11-.34 4.88 1.75 8.99 4.76 14.66 8.07q8.74 5.1 18.56 3.68 11.87-1.71 23.51-6.29c3.07-1.21 6.51-3.38 8.93-5.43a.34.336 74.828 0 1 .55.32l-1.11 6.35a.509.509 82.759 0 0 .71.55l5.35-2.44a.345.344-3.174 0 1 .47.42q-3.4 10.41-12.11 17.07-2.08 1.59-9.13 5.83c-5.85 3.52-11.31 4.95-19.28 7.94-7.81 2.93-18.62 4.97-27.07 7.49q-.84.25-1.32.57a.295.293-61.69 0 0 .16.54q18.33.01 35.76-5.32c5.28-1.62 9.45-3.64 14.58-5.73a.421.42-84.466 0 1 .51.62q-1 1.52-2.76 3.01-9.85 8.35-20.05 12.91-19.9 8.91-40.95 12.9c-9.86 1.87-18.35 2.45-32.81 3.95a.401.4-39.232 0 0-.08.78q2.45.77 6.01 1.26.28.04.47.2.22.19.28.44a.355.355 80.192 0 1-.31.44c-21.27 1.95-40.11 13.76-52.96 30.44a.185.183 3.532 0 0 .24.27q.96-.56 4.81-2.92 13.33-8.17 27.98-11.94a.28.277-72.898 0 1 .25.48q-2.47 2.2-16.71 15.2-12.79 11.69-24.21 28.03-8.38 12-12.79 25.99-3.59 11.39-5.01 22.5a.145.142 40.279 0 1-.28.02c-5.42-16.74-3.5-35.05 2.27-51.29a.259.258-16.819 0 0-.45-.24q-7.03 9.21-10.43 19.63c-5.03 15.42-6.67 32.29-4.62 48.65q.74 5.89 2.58 11.18a.33.324-49.965 0 0 .63-.06zM463.9 126.1q.07.53.54 1.22 6.21 9.22 17.26 14.84a3.866 3.863-48.881 0 0 3.96-.27l.07-.05a1.704 1.702 45.865 0 0 .04-2.76q-12.11-9.03-21.06-13.56a.565.562-80.448 0 0-.81.58m70.493 16.074c-8.218 1.352-14.197 5.646-20.34 10.974a.363.362-59.14 0 0 .157.628q10.952 2.509 22.199.659t20.819-7.735a.363.362 40.458 0 0-.052-.645c-7.527-3.08-14.566-5.232-22.783-3.881"></path><path fill="#05258d" fill-rule="evenodd" d="M463.9 126.1a.565.562-80.448 0 1 .81-.58q8.95 4.53 21.06 13.56a1.704 1.702 45.865 0 1-.04 2.76l-.07.05a3.866 3.863-48.881 0 1-3.96.27q-11.05-5.62-17.26-14.84-.47-.69-.54-1.22M536.409 154.435q-11.247 1.85-22.199-.659a.363.362-59.14 0 1-.157-.628c6.143-5.328 12.122-9.622 20.34-10.974 8.217-1.351 15.256.801 22.783 3.881a.363.362 40.458 0 1 .052.645q-9.571 5.885-20.819 7.735"></path><path fill="#d6ab50" fill-rule="evenodd" d="M813.57 224.21q-9.91-5.36-20.21-6.45-2.25-.24-4.1-2.39c-2.68-3.09-.34-15.12.52-19.33 2.76-13.63 12.53-23.48 26.08-27.78q4.6-1.46 10.36-3.95a1.727 1.721 67.081 0 1 2.28.93q.78 1.92 1.57 5.01 5.6 21.95 9.58 45.57 6.92 41.02 10.83 78.68a.628.628 30.177 0 1-.69.69q-28.86-2.9-58.03-4.05c-5.14-.2-10.22 1.29-15.57 3.1q-19.08 6.44-24.68 7.55-27.53 5.47-56.35 6.6a.791.781-2.583 0 1-.82-.74q-1.73-28.41-13.13-54.59a.683.679-17.659 0 1 .49-.94c15.98-3.33 23.1-4.71 37.56-8.3q25.97-6.44 40.88-9.63 27.07-5.8 53.39-9.76a.12.117-35.407 0 0 .04-.22"></path><path fill="#fff" fill-rule="evenodd" d="M561.03 206.76c-2.04 5.53-5.75 11.77-8.69 18q-5.24 11.1-8.58 17.49c-.83 1.6-2.72 2.74-4.56 3.36-12.71 4.31-25.59 8.45-40.52 13.79q-2.44.87-4.53-1.81-1.79-2.3-16.76-18.94c-4.2-4.67 1.78-8.74 5.06-11.52q8.19-6.93 14.46-11.72 11.87-9.05 25.75-12.97 13.96-3.94 22.7-6.05c8.1-1.96 11.79 2.83 15.58 9.35a1.187 1.179 40.145 0 1 .09 1.02M673.24 278.91a.26.259-67.771 0 1-.45.19q-1.33-1.46-3.03-2.85c-10.23-8.37-14.7-11.71-20.47-18.54q-1.86-2.2-4.19-7.54-5.5-12.6-15.71-25.32-1.29-1.61-5.27-6.96c-4.18-5.61-1.5-9.73 1.09-15.06a.499.496 33.232 0 1 .78-.16c22.71 20.2 45.22 44.18 47.25 76.24M574.49 208.21q1.02-.63 2.52-.26 21.77 5.35 38.07 9.46 2.58.65 4.77 4.1 15.99 25.16 19.07 30.16c3.72 6.01 6.8 10.87 2.92 17.81q-3.9 6.98-6.88 11.92c-2.04 3.39-3.19 6.01-5.12 9.92-2.19 4.46-5.07 4.96-10.03 3.98q-16.35-3.22-38.72-5.93-3.78-.46-6.18-4.29-13.86-22.02-23.01-35.26-2.32-3.36-.1-8.02 6.86-14.41 14.4-29.59c1.63-3.29 4.57-3.95 7.72-3.85a1.038 1.009 29.433 0 0 .57-.15M470.14 241.87c2.78 3.23 6.49 6.4 9.46 9.96q4.95 5.93 9.11 10.17c2.61 2.66 2.54 4.07 2.09 8.03q-3.7 33.19-4.67 41.23-.18 1.45-2.64 3.23-8.03 5.8-24.67 17.1c-3.18 2.16-4.76.72-7.85-1.26q-7.87-5.06-11.87-12.93-7.16-14.13-2.67-29.29 3.54-11.92 12.2-23.05 13-16.71 20.74-23.25a.553.546-40.141 0 1 .77.06"></path><path fill="#d6ab50" fill-rule="evenodd" d="M363.97 356.61a.285.284 33.149 0 0 .53-.11c1.18-11.28 3.11-22.84 8.4-32.58a.471.47-34.017 0 1 .88.17c3.85 33.99 19.56 71.96 50.55 89.75a.235.235 2.684 0 0 .33-.3l-4.14-9.12a.533.532 5.875 0 1 .8-.65l35.87 26.27a.228.227 54.988 0 1-.07.4q-.18.05-4.8.68c-10.11 1.37-17.56 3.93-27.21 7.95-17.72 7.38-32.76 21.42-42.89 37.56a.35.346-82.24 0 0 .39.52q13.99-4.11 29.65-4.68c9.16-.33 19.73.23 29.27 1.72q21.89 3.45 44.94 9.66a.402.4-61.211 0 1 .19.66q-.41.45-.9.43-40.26-1.42-51.26-2.45-29.81-2.8-41.26-2.74-30.53.15-62.04 4.19-23.84 3.05-32.69 3.77-9.73.8-23.27-1.19-15.61-2.28-27.99-5.22-7.9-1.87-29.72-5.35-14.96-2.39-30.09-2.45a.667.66-2.966 0 1-.65-.58l-8.1-60.88a.526.52-89.633 0 1 .59-.59q9.77 1.43 18.74 2.83 17.93 2.78 43.16 4.41 16.06 1.04 40.16.92c21.64-.11 35.33.29 53.54-.12q36.81-.82 76.26.42a.192.191-86.622 0 0 .19-.17v-.01a.153.152 10.137 0 0-.12-.17q-21.5-4.38-43.71-5.74c-32.26-1.98-61.17-2.59-92.17-7q-43.57-6.19-84.57-20.62c-5.72-2.01-11.93-.96-12.13-9.48q-.32-13.46-.18-24.1a.443.438-85.398 0 1 .5-.43q4.33.58 13.02 1.45 6.39.64 13.07.41 16.78-.59 31.05-4.91 3.27-.99 21.18-7.84c16.44-6.3 33.7-5.79 51.37-1.24q12.71 3.27 32.75 7.69a.23.229-23.043 0 0 .17-.42q-3.75-2.25-7.43-3.97-21.92-10.24-47.03-18.18-3.36-1.06-5.84-3.01a1.413 1.409-49.761 0 1-.17-2.07c.81-.87 2.41-2.49 3.64-3.37q10.14-7.24 20.48-15.02 19.76-14.86 34.56-33.87c3.34-4.29 10.38-5.43 16.27-5.3 2.63.06 5.72 1.73 5.16 4.91-1.06 6.02-3.57 14.91-4.73 22.62-3.38 22.53-3.97 46.41 7.5 66.54"></path><path fill="#d6ab50" fill-rule="evenodd" d="M474.19 455.29q-1.63-.88-4.65-1.69-14.65-3.96-30.04-3.7c-5.54.09-12.42 1.26-18.03 1.75a.511.508 28.882 0 1-.28-.96q12.98-6.61 25.97-9.43 6.95-1.51 26.15-3.6c13.99-1.53 29.04-2.35 43.69-4.44q46.27-6.6 81.71-34.02 15.99-12.37 33.67-31.3 2.36-2.53 9.95-13.8.98-1.46 3.06-2.22 5.01-1.83 19.11-6.32a.698.696 87.583 0 1 .89.82l-5.49 24.15a.343.34 70.53 0 0 .6.29q9.47-12.11 11.9-27.13 2.23-13.8 5.14-32.93 1.47-9.71 3.17-15.91a.258.255 43.515 0 1 .49-.01q1.95 5.71 2.64 13.07 2.03 21.87-3.65 48.07-4.19 19.34-12.33 34.15-13.77 25.05-34.92 42.56c-8.47 7.01-18.24 13.03-27.94 16.76a.273.272 7.092 0 1-.32-.41l14.99-22.02a.343.342 85.196 0 0-.52-.44q-11.01 10.7-25.44 19.68c-13.44 8.37-27.07 13.36-42.04 16.17a.319.318-46.937 0 0 .02.63q17.79 2.03 35.33-1.54 1.34-.27 2.18-.11a.508.507 34.679 0 1 .17.93c-11.42 7.07-24.81 10.69-38.35 12.8q-17.65 2.75-34.53.4c-16.25-2.26-28.92-4.9-45.85-8.56-10.74-2.32-21.94-3.89-29.66-4.79a.481.48-53.098 0 1-.13-.92c10.54-4.46 22.2-5.51 33.24-5.58a.213.213 26.429 0 0 .1-.4"></path><path fill="#fff" fill-rule="evenodd" d="M592.78 389.23q-13.05-2.71-29.28-6.72c-6.28-1.55-9.79-1.56-11.06-7.47q-.02-.09-.63-2.16-2.36-8.05-9.7-34.16-.56-2 .12-3.46.67-1.42 4.64-5.85 2.68-3 4.86-5.7 9.94-12.31 21.27-25.44 2.08-2.42 5.59-1.91 14.5 2.08 43.76 6.58a1.358 1.283-26.081 0 1 .45.14q3.68 1.84 4.46 4.48 4.16 14.09 10.02 35.37 1.2 4.34-1.78 9.1-8.18 13.13-17.85 21.91-6.79 6.17-15.06 13.04a6.029 6.022-68.7 0 1-3.07 1.35l-6.64.91a.532.482 47.855 0 1-.1-.01"></path><path fill="#d6ab50" fill-rule="evenodd" d="M659.46 441.79c8.48-11.6 13.05-22.29 17.96-36.11 1.33-3.76 2.45-4.61 5.96-5.58 25.12-6.92 47.03-12.5 67.24-23.74 10.27-5.72 18.78-14.93 24.84-25.56 3.52-6.17 8.1-14.39 13.2-19.88 7.04-7.58 13.63-9.05 24.65-9.78q19.16-1.27 38.67-3.5a.293.291-5.533 0 1 .33.27q2.76 37.35.75 72.2c-.55 9.6-6.14 13.92-14.1 19.12q-27.08 17.67-55.25 28.69-9.61 3.75-16.69 6.15-9.96 3.36-12.24 3.96c-5.75 1.52-11.73 3.68-16.46 4.83q-30.99 7.56-40.85 9.56-14.39 2.93-17.43 3.66c-19.13 4.58-38.18 7.73-58.25 12.06q-11.07 2.39-17.94 2.71-8.47.4-18.16.24a.053.05 35.548 0 1-.02-.1q2.88-.92 5.23-2.12c9.13-4.63 18.81-10.45 27.8-17.41q15.9-12.3 27.08-24.18 5.8-6.16 13.26-14.74.61-.7.72-.71a1.78 1.78 2.342 0 1 1.88 2.04l-2.67 17.72a.273.272-22.774 0 0 .49.2"></path><path fill="#fff" fill-rule="evenodd" d="M545.89 378.16c.84 3.23.25 5.31-2.85 7.41q-2.92 1.99-22.23 15.99-2.33 1.69-6.99 2.56a2.875 2.834 51.237 0 1-1.63-.19q-20.94-9.08-36.47-17.69c-6.58-3.64-9.1-9.81-10.54-17.57q-.63-3.35-5.08-25.47c-.63-3.13 1.32-5.25 4.05-7.11q10.99-7.5 18.68-13.02 3-2.15 5.19-3.14a4.45 4.431 42.687 0 1 3.4-.13q20.53 7.55 39.7 16.07 3.53 1.57 4.56 4.96.3 1.01 1.64 5.75 4.38 15.56 8.57 31.58M456.2 390.28a.191.189-23.184 0 1 .13-.32q7.27-.35 13.19 1.02c5.59 1.3 10.29 5.22 15.91 7.7q4.02 1.78 20.55 9.01 6.51 2.85 8.75 5.18 3.31 3.43 6.24 7.46a.315.314-18.553 0 1-.25.5q-13.95.25-30.08-6.69c-13.43-5.78-24.54-13.72-34.44-23.86" data-source="https://football-logos.cc"></path><path fill="#d6ab50" fill-rule="evenodd" d="M719.6 482.8v.27a.09.09 74.815 0 0 .09.09c17.54.83 37.38 2.66 55.56 2.12q34.29-1.04 66.25-3.62a.657.653-86.333 0 1 .69.79q-5.33 24.63-14.61 48.16-3.6 9.11-8.53 21.42-1.82 4.56-6.55 4.19-15.42-1.21-31.51-1.8a.377.377-8.504 0 0-.37.5c1.64 4.87 3.03 11.03 5.66 12.77q1.18.78 4 1.02 68.62 5.69 98.89 8.94 54.48 5.86 85.05 9.94 6.83.92 9.06 6.4.84 2.05.85 11.64.13 102.96-.09 186.12 0 2.84-1.67 4.01-1.24.87-4.32.52-62.46-7.11-124.54-12.86c-3.28-.31-7.22-.28-10.34-.58q-51.31-4.85-100.17-6.39-2.71-.09-4.51.57a2.056 1.936-76.793 0 0-.77.51Q712.3 804.32 693 821.25q-29.6 25.97-60.2 46.52-21.34 14.34-43.47 27.55c-9.52 5.68-17.94 10.15-26.01 14.71q-11.68 6.59-21.18 11.15-4.63 2.22-10.19 5.33-10.05 5.62-10.06 5.62c-3.14 1.6-5.27 1.26-8.4-.41q-41.32-22.07-53.67-29.4-17.92-10.64-29.51-17.75-39.01-23.94-75.62-53.52-31.52-25.46-58.18-54.36a1.466 1.46 66.929 0 0-1.16-.47q-39.75 2.13-69.93 4.43-14.72 1.13-30.73 2.15-19.92 1.28-48.19 4.09-56.83 5.66-90.63 9.17c-2.93.3-6.26 2.21-7.78-1.91a3.324 3.161-56.797 0 1-.19-1.04q-.13-10.96-.13-20.61-.06-131.39-.04-149.5.01-13.13.36-26.31c.15-5.7 3.53-7.81 8.94-8.89q4.69-.93 22.02-2.64 18.41-1.82 22.03-2.23 46.33-5.14 99.93-9.41 18.59-1.48 21.74-1.81.72-.07 30.57-1.89c4.87-.3 6.51-6.78 7.77-11.51q2.59-9.8 5.67-20.36 2.92-10.02 4.26-15.18c3.34-12.86 7.24-22.36 19.65-26.7q4.31-1.51 15.84-1.68 106.13-1.55 205.26-2.38 5.25-.05 9.97-.21c5.4-.18 9.63.13 16.36.1q70.57-.33 141.15.08 23 .13 46.87.66a.14.13 0 0 0 .14-.13l.01-.01a.211.199 4.436 0 0-.19-.21q-49.1-4.51-68.58-6.03-5.15-.4-11.14-1.37-.48-.07-.47-.57.01-.17.11-.32a.851.816 1.193 0 1 .25-.23q1.22-.67 3.76-1.28 22.17-5.32 57.26-13.75 8.92-2.14 30.51-8.27c28.97-8.23 56.14-17.75 82.63-31.1q12.14-6.13 26.12-15.35 2-1.32 4.32-2.19a.84.84-11.411 0 1 1.13.75q.09 2.06-.2 4.7-2.25 20.82-7.52 56.89a1.157 1.146-87.481 0 1-1.06.98q-49.61 3.24-97.7 6.14-16.53 1-25.48 1.09a.42.42-88.273 0 0-.42.42m-199.75 20.28q-1.19-.72-1.85-.71-12.45.33-31.34.24-9.61-.04-31.35.35-27.45.5-46.06.64-2.6.02-9.25.09-43.91.47-95.12 1.04-7.5.08-10.13 1.05c-6.87 2.54-10.91 7.81-12.97 15.33-3.66 13.4-7.49 26.64-13.43 45.73q-.33 1.04-2.37 6.35c-1.8 4.67-7.65 6.74-11.98 7.06q-80.07 5.91-106.06 8.18-28.8 2.52-46.41 4.42-16.08 1.74-39.22 5.26c-2.24.34-4.7 1.18-4.71 3.68q-.12 39.58.2 102.52c.11 21.68-.19 45.48-.07 75.8q.01 3.37 2.6 4.44 1.46.6 5.4.2 48.74-5.02 71.09-7.39 11.66-1.23 79.66-6.33c23.75-1.78 53.44-3.17 79.1-5.18 3.13-.24 4.98.2 7.04 2.34q22.62 23.4 47.39 45.06 7.19 6.28 9.49 8.04c8.72 6.66 13.58 10.98 22.8 17.55q1.84 1.3 13.14 9.7 14.99 11.14 30.22 20.52 17.78 10.94 19.97 12.3 16.61 10.3 57.86 33.02 6.39 3.51 12.37 6.1 2.15.92 4.25-.15 39.32-20.11 75.77-41.84a723 723 0 0 0 46.15-29.97q12.88-9.08 33.11-25.41c6.56-5.29 12.79-11.13 20.28-17.69q9.33-8.18 33.01-32.48c3.29-3.38 5.37-7.85 9.82-7.61 31.81 1.71 63.86 4.23 95.99 6.55q12.94.93 52.28 4.48c27.36 2.47 59.4 6.59 83.54 8.76 3.2.29 4.97-2.81 4.96-5.55q-.3-71.83-.07-178.07c.01-2.8-1.51-4.58-4.57-4.65q-7.77-.18-22.37-1.97-36.81-4.51-75.26-8.59-22.63-2.41-83.25-6.99c-7.1-.54-11.4-1.05-14.07-8.01q-3.84-10.03-14.45-39.94c-3.32-9.34-5.08-21.94-14.93-26.56q-2.96-1.39-14.15-1.38-137.09.11-211.09-.07a1.917 1.853-28.872 0 1-.96-.26"></path><path fill="#d6ab50" fill-rule="evenodd" d="M190.27 481.77q28.16 1.13 56.57 7.07 5.33 1.12 12.62 3.37 11.37 3.51 12.47 3.78a.39.387-67.378 0 1 .24.59q-5.03 8.08-6.12 10.99c-2.07 5.56-3.79 15.5-5.91 22.2q-5.41 17.2-9.09 27.51-.95 2.64-3.58 4.08a1.855 1.777 29.291 0 1-.89.23q-10.61 0-21.07.27-4.68.12-8.33-.39a1.719 1.667 68.812 0 1-.87-.4q-1.04-.88-1.77-2.39-17.57-36.28-24.9-76.19a.615.609-4.106 0 1 .63-.72"></path><path fill="#05258d" fill-rule="evenodd" d="M520.81 503.34q74 .18 211.09.07 11.19-.01 14.15 1.38c9.85 4.62 11.61 17.22 14.93 26.56q10.61 29.91 14.45 39.94c2.67 6.96 6.97 7.47 14.07 8.01q60.62 4.58 83.25 6.99 38.45 4.08 75.26 8.59 14.6 1.79 22.37 1.97c3.06.07 4.58 1.85 4.57 4.65q-.23 106.24.07 178.07c.01 2.74-1.76 5.84-4.96 5.55-24.14-2.17-56.18-6.29-83.54-8.76q-39.34-3.55-52.28-4.48c-32.13-2.32-64.18-4.84-95.99-6.55-4.45-.24-6.53 4.23-9.82 7.61q-23.68 24.3-33.01 32.48c-7.49 6.56-13.72 12.4-20.28 17.69q-20.23 16.33-33.11 25.41a723 723 0 0 1-46.15 29.97q-36.45 21.73-75.77 41.84-2.1 1.07-4.25.15-5.98-2.59-12.37-6.1-41.25-22.72-57.86-33.02-2.19-1.36-19.97-12.3-15.23-9.38-30.22-20.52-11.3-8.4-13.14-9.7c-9.22-6.57-14.08-10.89-22.8-17.55q-2.3-1.76-9.49-8.04-24.77-21.66-47.39-45.06c-2.06-2.14-3.91-2.58-7.04-2.34-25.66 2.01-55.35 3.4-79.1 5.18q-68 5.1-79.66 6.33-22.35 2.37-71.09 7.39-3.94.4-5.4-.2-2.59-1.07-2.6-4.44c-.12-30.32.18-54.12.07-75.8q-.32-62.94-.2-102.52c.01-2.5 2.47-3.34 4.71-3.68q23.14-3.52 39.22-5.26 17.61-1.9 46.41-4.42 25.99-2.27 106.06-8.18c4.33-.32 10.18-2.39 11.98-7.06q2.04-5.31 2.37-6.35c5.94-19.09 9.77-32.33 13.43-45.73 2.06-7.52 6.1-12.79 12.97-15.33q2.63-.97 10.13-1.05 51.21-.57 95.12-1.04 6.65-.07 9.25-.09 18.61-.14 46.06-.64 21.74-.39 31.35-.35 18.89.09 31.34-.24.66-.01 1.85.71a1.917 1.853-28.872 0 0 .96.26m-19.45 76.01q10.13-.02 33.88.12 8.57.04 12.4-1.57c10.69-4.5 18.4-19.81 6.76-28.36a.444.438-38.619 0 1 .09-.76c6.93-2.93 10.59-14 8.56-20.61q-2.34-7.62-10.95-8.3-7.71-.6-33.01-.45c-1.95.01-4.71.9-5.1 2.88q-1.11 5.72-3.44 15.01-4.76 19.05-9.73 41.36a.554.553 6.606 0 0 .54.68m81.25-.09h11.94a1.288 1.278-62.977 0 0 .76-.25q2.54-1.81 2.81-3.69 1.06-7.33 3.26-15.27a.842.827-83.682 0 1 .76-.62q.88-.05 5.95-.24c3.09-.12 5.16 1.09 6.55 3.57q4.67 8.33 7.76 13.01 1.81 2.75 3.98 3.2.9.19 13.34.11a.35.345-15.482 0 0 .3-.52l-12-20.79a.35.341 62.002 0 1 .14-.48c6.11-3 11.64-5.77 14.24-12.39 3.29-8.4 3.84-19.57-5.25-24.17q-3.06-1.55-10.55-1.55-21.01-.01-25.83.09-3.92.08-4.84 3.68-6.37 25.14-13.58 55.97a.277.269-83.198 0 0 .26.34m-124.07-35.61-8.16 35.92a.452.45-83.182 0 0 .43.55q6.27.02 9.21.16 3.67.17 4.44-3.1 8.82-37.61 12.75-55.63a.828.822 9.557 0 0-.71-.99c-7.65-.88-16.59-1.52-21.23 5.68q-.82 1.28-2.4 3.15-8.03 9.57-16.14 19.37-1.31 1.58-2.54 3.02a.532.53-33.115 0 1-.91-.19q-3.78-12.57-7.52-24.09c-1.1-3.38-2.01-6.3-5.71-6.9q-2.75-.45-8.39-.22c-3.14.12-4.33 1.27-5 4.51q-2.07 9.84-3.24 14.3-4.93 18.83-9.68 40.04a.499.494-83.475 0 0 .48.61h13.13a.814.807-83.781 0 0 .79-.64l7.41-32.6a.47.469 39.825 0 1 .89-.08q4.37 10.21 7.63 20.87c1.19 3.91 4.51 3.96 7.95 3.88q3.83-.08 5.73-2.55 9.54-12.38 20.32-25.3a.27.268-18.737 0 1 .47.23m-150.254-5.338a25.58 24.93-156.7 0 0 13.633 33.015 25.58 24.93-156.7 0 0 33.355-12.779 25.58 24.93-156.7 0 0-13.633-33.015 25.58 24.93-156.7 0 0-33.355 12.779m389.353-11.216a25.55 25.21-120.9 0 0-8.511 34.87 25.55 25.21-120.9 0 0 34.753 8.978 25.55 25.21-120.9 0 0 8.511-34.87 25.55 25.21-120.9 0 0-34.753-8.978M451.41 720.53h22.26a.461.46 6.243 0 0 .45-.36q10.24-48.6 11.99-56.85 2.74-12.9 11.83-52.58a.646.646-83.58 0 0-.63-.79h-20.19a1.208 1.137-58.027 0 0-.57.15q-1.87 1-2.29 2.94c-1.48 6.71-2.6 13.91-4.36 21.69q-6.31 27.74-16.09 72.58-2.17 9.95-2.96 12.45a.594.589-81.272 0 0 .56.77m-74.47-108.58h-22.28a.31.292 5.757 0 0-.3.23q-3.98 16.45-8.48 38.85-4.11 20.46-5.23 30.04-1.59 13.52-1.31 17.44.96 13.82 11.94 20.11 5.15 2.95 15.68 3.85c23.93 2.06 49.03 1.58 61.99-21.39q2.46-4.36 4.84-12.04 2.42-7.8 3.49-12.53 3.15-13.93 14.37-65.53a.392.39-83.514 0 0-.38-.48h-20.02a.839.828-62.719 0 0-.49.16q-2.01 1.36-2.27 2.62-5.42 26.51-12.81 60.51-2.03 9.31-2.75 11.29c-2.15 5.88-6.13 12.08-11.63 14.73-6.26 3.01-13.48 3.89-20.78 4.18q-6.53.25-9.81-1.37-6.54-3.24-7.68-11.11-.87-6.05.11-11.07 5.65-28.75 14.25-67.93a.461.457 6.476 0 0-.45-.56m227.22-.75a.342.337-78.834 0 0-.31-.47q-34.15-.4-48.1-.22c-11.35.14-19.36.6-28.71 6.2-9.14 5.46-14.38 18.43-14.74 28.77-.42 12.2 7.37 20.2 18.52 23.48q27.9 8.2 32.58 9.61 8.81 2.65 7.54 11.64c-.77 5.53-4.02 8.46-9.21 9.44q-3.36.64-4.48.63-17.18-.13-45.86-.01c-2.94.01-5.56-.23-6.52 2.47q-3.23 9.04-6.15 16.21a.747.747-78.054 0 0 .67 1.03q21.58.55 51.62.4 15.3-.07 21.27-2.24c15.01-5.45 21.52-17.35 23.72-32.51 1.54-10.56-3.94-18.24-13.37-22.23-10.47-4.41-20.55-6.78-36.36-11.16q-7.85-2.17-8.38-9.22c-.36-4.8.82-9.72 6.08-11.25q4.96-1.44 9.03-1.55c10.54-.29 26.43.25 42.18.03a1.977 1.97-79.454 0 0 1.8-1.24zm109.86.06q-22.41-.08-54.77.85-5.1.15-9.35.63-7.52.86-9.24 1.39-13.4 4.12-18.29 18-1.67 4.72-2.39 13.6c-.86 10.68 3.27 16.58 11.95 21.01q4.71 2.41 6.67 2.98 19.53 5.68 30.67 9.22 10.74 3.41 8.17 14.48c-2.03 8.73-13.33 8.99-20.29 8.83-14.87-.35-29.43-1.34-43.78-1.45a2.033 2.021-65.485 0 0-1.38.52q-2.07 1.88-3.11 4.37-2.14 5.08-5.43 14.33a.461.458-79.042 0 0 .41.61q28.81 1.29 57.89 1.41c23.25.1 38.37-12.11 40.73-35.78 1.16-11.63-4.61-17.65-15.25-22.35-9.67-4.27-19.64-7.04-31.35-10.23-5.44-1.48-10.27-3.5-10.5-9.4-.18-4.74.58-9.98 5.61-11.35q6.45-1.76 16.29-1.54 30.82.68 36.74.75 2.76.03 3.76-2.86 3.3-9.48 6.55-17.56a.337.334-79.224 0 0-.31-.46m-437.66 1.96q-1.82-.26-3.88-.03c-13.83 1.58-26.23 5.99-37.12 15.46-20.07 17.44-26.92 40.84-25.34 67.13.51 8.58 4.84 19.71 11.35 25.34 8.58 7.42 19.82 9.5 31.14 10.35 18.18 1.36 34.73-4.94 48.44-17.61q20.16-18.64 23.13-46.73c.57-5.41.5-12.5.3-17.61-.65-17.22-12.38-30.81-29.38-33.74-6.64-1.14-12.68-1.71-18.64-2.56m514.31 115.15 22.2 1.41a.372.36 9.683 0 0 .38-.26c5.13-17.41 9.99-36.65 15.06-55.18q4.16-15.15 5.8-28.36 2.06-16.53-10.98-24.26c-4.6-2.73-11.22-4.13-16.63-4.76-12.41-1.43-24.92-2.03-36.67 1.93-12.1 4.08-22.19 13.4-29 24.21q-8.34 13.24-13.46 28.24-2.5 7.31-3.77 10.44c-3.6 8.9-5.95 17.1-9.34 26.15q-.35.94-5.58 15.62a.166.165-77.603 0 0 .14.22l20.91 1.32a2.687 2.678-73.365 0 0 2.51-1.36q.73-1.29 1.98-4.75 4.17-11.46 6.75-19.57c.73-2.29 2.12-4.46 4.55-4.31q27.18 1.65 51.69 3.58a.621.617 10.011 0 1 .55.78l-7.66 28.12a.629.625-81.007 0 0 .57.79m66.95 4.75 20 1.75a1.826 1.808 33.185 0 0 .98-.2q2.33-1.24 2.87-2.98 11.32-36.41 26.53-83.52a.61.596 10.659 0 1 .63-.42l35.77 3.13a.648.646 12.455 0 0 .66-.42l6.97-19.41a.512.508-77.538 0 0-.43-.68l-97.37-8.52a2.854 2.848 11.032 0 0-2.96 1.99l-5.6 17.87a.348.347 11.428 0 0 .3.45l37.88 3.32a.452.45-78.989 0 1 .39.58l-27.06 86.4a.515.512-78.855 0 0 .44.66m-664.76-.83-24.8-36.26a.467.465 63.824 0 1 .24-.71c18.93-5.7 28.88-18.33 31.27-37.79 1.87-15.09-2.76-26.58-17.62-31.26-6.63-2.09-12.55-1.57-19.57-1.13q-18.85 1.18-43.91 3.06c-2.22.16-5.03.81-5.42 3.08q-7.25 42.18-19.17 112.38a.252.25-88.182 0 0 .27.29l21.43-2.03a1.24 1.182-64.798 0 0 .62-.24q1.7-1.24 1.99-2.97 4.55-27.27 5.36-32.94.5-3.53 4.26-3.99 11.44-1.41 13.33-1.66a2.017 2.005 65.732 0 1 1.78.68q2.85 3.31 5.3 6.97 6.53 9.72 12.94 19.07c2.82 4.12 6.15 9.12 11.35 8.48q13.1-1.61 20.03-2.34a.444.442-20.282 0 0 .32-.69m295.9 85.44a.284.282 74.792 0 1 .45.26c-.51 4.49-1.99 9.44-5.79 12.1-3.99 2.8-10.84.23-14.77-2.43a.849.843-55.455 0 0-1.17.22l-5.16 7.59a.914.91 36.738 0 0 .18 1.22q6.49 5.28 15.33 5.12 17.7-.3 23.34-17.21c4.96-14.88 4.1-40.4-16.62-43.14-17.42-2.31-29.59 10.78-23.65 28.02 3.71 10.79 15.5 12.88 25.61 9.51q1.01-.33 2.25-1.26m35.68-12.53c-.02-13.3 10.97-15.49 20.79-10.49a.596.593 28.4 0 0 .78-.23l4.62-8.01a.499.498-57.865 0 0-.15-.66c-9.94-6.9-23.83-5.92-32.18 3.07q-6.41 6.91-7.83 15.62-2.01 12.36.81 22.49c3.86 13.86 18.62 18.09 31.37 13.18q6.51-2.51 9.36-9.14c2.67-6.21 2.57-15.23-1.74-20.48-6.09-7.42-17.07-7.21-25.51-5.11a.258.25-7.235 0 1-.32-.24m61.36 26.05v8.6a.59.58 0 0 0 .59.58h11.94a.66.65 0 0 0 .66-.65v-8.44a.79.78 90 0 1 .78-.79h5.72a.57.57 45 0 0 .57-.57v-10.37a.67.66 90 0 0-.66-.67h-5.72a.79.78 0 0 1-.79-.78v-35.83a.68.68.428 0 0-.67-.68q-2.1-.06-10.8-.15c-4.08-.05-5.91.72-7.96 4.22q-7.59 12.97-19.45 30.81-1.74 2.64-1.6 5.69.28 5.69.47 8.14a.434.432 87.057 0 0 .43.39h25.99a.5.5 45 0 1 .5.5m-134.85-47.4q-6.63-.74-8.84-.21-4.41 1.08-11.97 6.24-1.22.84-3.67 4.31a1.169 1.134-28.202 0 0-.21.66v8.53a.52.52-15 0 0 .78.45l10.7-6.18a.61.605 75 0 1 .91.53v41.6a.62.62-78.782 0 0 .62.62h11.95a.34.34-10.365 0 0 .34-.34v-55.52a.695.688-86.759 0 0-.61-.69"></path><path fill="#fff" fill-rule="evenodd" d="M500.82 578.67q4.97-22.31 9.73-41.36 2.33-9.29 3.44-15.01c.39-1.98 3.15-2.87 5.1-2.88q25.3-.15 33.01.45 8.61.68 10.95 8.3c2.03 6.61-1.63 17.68-8.56 20.61a.444.438-38.619 0 0-.09.76c11.64 8.55 3.93 23.86-6.76 28.36q-3.83 1.61-12.4 1.57-23.75-.14-33.88-.12a.554.553 6.606 0 1-.54-.68m23.59-35.49q13.66.14 17.58-.46 4.74-.71 6.26-5.19c.98-2.9-2.08-4.53-4.39-5.37q-1.41-.52-4.27-.51c-4.86.02-12.4-.65-13.66 2.12q-1.11 2.45-2.14 8.67a.637.637 5.053 0 0 .62.74m-6.47 23.5a.499.498 8.521 0 0 .46.62q10.7.43 19.85-.25 6.39-.48 7.08-5.77c.54-4.24-1.09-6.71-5.67-6.69q-11.47.07-14.68.14c-6.21.15-6.01 7.76-7.04 11.95M582.61 579.26a.277.269-83.198 0 1-.26-.34q7.21-30.83 13.58-55.97.92-3.6 4.84-3.68 4.82-.1 25.83-.09 7.49 0 10.55 1.55c9.09 4.6 8.54 15.77 5.25 24.17-2.6 6.62-8.13 9.39-14.24 12.39a.35.341 62.002 0 0-.14.48l12 20.79a.35.345-15.482 0 1-.3.52q-12.44.08-13.34-.11-2.17-.45-3.98-3.2-3.09-4.68-7.76-13.01c-1.39-2.48-3.46-3.69-6.55-3.57q-5.07.19-5.95.24a.842.827-83.682 0 0-.76.62q-2.2 7.94-3.26 15.27-.27 1.88-2.81 3.69a1.288 1.278-62.977 0 1-.76.25zm22.72-32.34q8.59.36 15.44-.01c4.15-.23 7.03-1.39 8.4-5.19q1.65-4.62-.45-8.34a2.311 2.297-88.354 0 0-.76-.81c-3.09-2.06-11.63-1.39-15.58-1.27-2.44.07-4.47 1.34-5.07 3.53q-1.67 6.06-2.59 11.34a.645.645 5.904 0 0 .61.75M458.54 543.65a.27.268-18.737 0 0-.47-.23q-10.78 12.92-20.32 25.3-1.9 2.47-5.73 2.55c-3.44.08-6.76.03-7.95-3.88q-3.26-10.66-7.63-20.87a.47.469 39.825 0 0-.89.08l-7.41 32.6a.814.807-83.781 0 1-.79.64h-13.13a.499.494-83.475 0 1-.48-.61q4.75-21.21 9.68-40.04 1.17-4.46 3.24-14.3c.67-3.24 1.86-4.39 5-4.51q5.64-.23 8.39.22c3.7.6 4.61 3.52 5.71 6.9q3.74 11.52 7.52 24.09a.532.53-33.115 0 0 .91.19q1.23-1.44 2.54-3.02 8.11-9.8 16.14-19.37 1.58-1.87 2.4-3.15c4.64-7.2 13.58-6.56 21.23-5.68a.828.822 9.557 0 1 .71.99q-3.93 18.02-12.75 55.63-.77 3.27-4.44 3.1-2.94-.14-9.21-.16a.452.45-83.182 0 1-.43-.55zM308.286 538.312a25.58 24.93-156.7 0 1 33.355-12.779 25.58 24.93-156.7 0 1 13.633 33.015 25.58 24.93-156.7 0 1-33.355 12.779 25.58 24.93-156.7 0 1-13.633-33.015m13.704-7.052c.28 2.07 2.96 6.42 5.48 6.57q4.03.24 6.8-.15a3.027 2.959 19.597 0 0 1.54-.71q3.55-3.14 4.05-4.39c3.32-8.18-10.3-6.66-14.34-5.61-1.88.48-3.82 2.23-3.53 4.29m-5.19-.07q-8.63 6.81-7.24 17.81.45 3.59 4.27 2.89c5.87-1.07 6.7-5.65 8.2-10.49a3.352 3.325-43.647 0 0 .05-1.81q-1.2-4.75-4.37-8.32a.667.663 49.839 0 0-.91-.08m36.66 18.3 1.37-2.89a1.678 1.675-39.634 0 0 .11-1.16c-1.43-5.27-3.73-11.35-10.57-11.34q-4.98.01-4.84 5.04.1 3.58 3.23 7.85c1.86 2.55 5.23 3.44 8.33 3.81a2.336 2.331-73.878 0 0 2.37-1.31m-31.22-.06q3.19 4.89 8.59 7.05c3.18 1.26 6.11-1.77 8.59-4.31 3.15-3.24.57-7.37-1.84-9.91-2.58-2.74-6.27-3-9.66-2.38-3.36.61-6.18 5.51-6.07 8.34a2.42 2.397-63.15 0 0 .39 1.21m-3.26 2.72q-5.23 1.44-5.46 6.26c-.28 5.57 5.03 9.66 9.96 11.11 7.14 2.11 7.84-3.12 7.38-8.55a3.159 3.15 15.771 0 0-1.28-2.28l-8.38-6.14a2.583 2.57-34.647 0 0-2.22-.4m30.672 2.846a9.79 7.09-38.5 0 0-12.076.545 9.79 7.09-38.5 0 0-3.248 11.643 9.79 7.09-38.5 0 0 12.076-.545 9.79 7.09-38.5 0 0 3.248-11.643M697.639 527.096a25.55 25.21-120.9 0 1 34.753 8.978 25.55 25.21-120.9 0 1-8.511 34.87 25.55 25.21-120.9 0 1-34.753-8.978 25.55 25.21-120.9 0 1 8.511-34.87m3.381 6.644c2.82 4.68 6.02 4.45 10.96 4.13 5.35-.34 11.96-10.38 2.39-11.78q-5.67-.83-10.43 1.79c-1.9 1.05-4.14 3.83-2.92 5.86m-1.45 1.7c-1.9-2.68-5.07-2.54-7.25-.28-2.81 2.92-8.51 18.41.68 16.74 7.21-1.31 10.77-10.55 6.57-16.46m32.48 15.02c1.08-2.12 1.93-3.92 1.31-6.35q-1.26-4.97-4.32-8.64a2.443 2.406-7.152 0 0-.85-.65c-5.32-2.47-11.33.03-9.21 6.5 1.15 3.53 2.02 6.78 4.63 8.09q3.01 1.51 6.8 1.93a1.632 1.622 16.621 0 0 1.64-.88m-19.3 5.92q4.63-2.38 6.28-7.36a3.145 3.038 52.138 0 0 .14-1.3q-.85-7.7-8.92-7.62-8.67.08-8.55 8.64c.05 4.13 7.92 9.25 11.05 7.64m-17.01 10.34c3.28 2.83 12.22 7.28 13.92-.01q.8-3.39-.05-6.05a2.8 2.796 10.259 0 0-.91-1.31q-3.67-2.97-7.13-5.66c-3.16-2.46-7.86-.19-9.22 2.83a3.097 3.003-31.585 0 0-.26 1.02q-.48 5.61 3.65 9.18m20.524-10.538q-2.421 2.146-2.932 2.87-2.222 3.138-.252 8.005c2.202 5.437 9.327 2.667 12.61-.244s6.886-9.652 1.751-12.49q-4.595-2.538-7.977-.708-.78.421-3.2 2.567"></path><path fill="#05258d" fill-rule="evenodd" d="M701.02 533.74c-1.22-2.03 1.02-4.81 2.92-5.86q4.76-2.62 10.43-1.79c9.57 1.4 2.96 11.44-2.39 11.78-4.94.32-8.14.55-10.96-4.13M321.99 531.26c-.29-2.06 1.65-3.81 3.53-4.29 4.04-1.05 17.66-2.57 14.34 5.61q-.5 1.25-4.05 4.39a3.027 2.959 19.597 0 1-1.54.71q-2.77.39-6.8.15c-2.52-.15-5.2-4.5-5.48-6.57M316.8 531.19a.667.663 49.839 0 1 .91.08q3.17 3.57 4.37 8.32a3.352 3.325-43.647 0 1-.05 1.81c-1.5 4.84-2.33 9.42-8.2 10.49q-3.82.7-4.27-2.89-1.39-11 7.24-17.81M604.72 546.17q.92-5.28 2.59-11.34c.6-2.19 2.63-3.46 5.07-3.53 3.95-.12 12.49-.79 15.58 1.27a2.311 2.297-88.354 0 1 .76.81q2.1 3.72.45 8.34c-1.37 3.8-4.25 4.96-8.4 5.19q-6.85.37-15.44.01a.645.645 5.904 0 1-.61-.75M523.79 542.44q1.03-6.22 2.14-8.67c1.26-2.77 8.8-2.1 13.66-2.12q2.86-.01 4.27.51c2.31.84 5.37 2.47 4.39 5.37q-1.52 4.48-6.26 5.19-3.92.6-17.58.46a.637.637 5.053 0 1-.62-.74M692.32 535.16c2.18-2.26 5.35-2.4 7.25.28 4.2 5.91.64 15.15-6.57 16.46-9.19 1.67-3.49-13.82-.68-16.74M732.05 550.46a1.632 1.622 16.621 0 1-1.64.88q-3.79-.42-6.8-1.93c-2.61-1.31-3.48-4.56-4.63-8.09-2.12-6.47 3.89-8.97 9.21-6.5a2.443 2.406-7.152 0 1 .85.65q3.06 3.67 4.32 8.64c.62 2.43-.23 4.23-1.31 6.35M353.46 549.49a2.336 2.331-73.878 0 1-2.37 1.31c-3.1-.37-6.47-1.26-8.33-3.81q-3.13-4.27-3.23-7.85-.14-5.03 4.84-5.04c6.84-.01 9.14 6.07 10.57 11.34a1.678 1.675-39.634 0 1-.11 1.16zM321.85 548.22c-.11-2.83 2.71-7.73 6.07-8.34 3.39-.62 7.08-.36 9.66 2.38 2.41 2.54 4.99 6.67 1.84 9.91-2.48 2.54-5.41 5.57-8.59 4.31q-5.4-2.16-8.59-7.05a2.42 2.397-63.15 0 1-.39-1.21"></path><path fill="#05258d" fill-rule="evenodd" d="M712.75 556.38c-3.13 1.61-11-3.51-11.05-7.64q-.12-8.56 8.55-8.64 8.07-.08 8.92 7.62a3.145 3.038 52.138 0 1-.14 1.3q-1.65 4.98-6.28 7.36M318.98 552.15a2.583 2.57-34.647 0 1 2.22.4l8.38 6.14a3.159 3.15 15.771 0 1 1.28 2.28c.46 5.43-.24 10.66-7.38 8.55-4.93-1.45-10.24-5.54-9.96-11.11q.23-4.82 5.46-6.26M709.66 566.71c-1.7 7.29-10.64 2.84-13.92.01q-4.13-3.57-3.65-9.18a3.097 3.003-31.585 0 1 .26-1.02c1.36-3.02 6.06-5.29 9.22-2.83q3.46 2.69 7.13 5.66a2.8 2.796 10.259 0 1 .91 1.31q.85 2.66.05 6.05M349.652 554.996a9.79 7.09-38.5 0 1-3.248 11.643 9.79 7.09-38.5 0 1-12.076.545 9.79 7.09-38.5 0 1 3.248-11.643 9.79 7.09-38.5 0 1 12.076-.545M725.69 566.813c-3.283 2.911-10.408 5.681-12.61.244q-1.97-4.867.252-8.005.511-.724 2.932-2.87t3.2-2.567q3.382-1.83 7.977.708c5.135 2.838 1.532 9.58-1.751 12.49M517.94 566.68c1.03-4.19.83-11.8 7.04-11.95q3.21-.07 14.68-.14c4.58-.02 6.21 2.45 5.67 6.69q-.69 5.29-7.08 5.77-9.15.68-19.85.25a.499.498 8.521 0 1-.46-.62"></path><path fill="#fff" fill-rule="evenodd" d="M450.85 719.76q.79-2.5 2.96-12.45 9.78-44.84 16.09-72.58c1.76-7.78 2.88-14.98 4.36-21.69q.42-1.94 2.29-2.94a1.208 1.137-58.027 0 1 .57-.15h20.19a.646.646-83.58 0 1 .63.79q-9.09 39.68-11.83 52.58-1.75 8.25-11.99 56.85a.461.46 6.243 0 1-.45.36h-22.26a.594.589-81.272 0 1-.56-.77M376.94 611.95a.461.457 6.476 0 1 .45.56q-8.6 39.18-14.25 67.93-.98 5.02-.11 11.07 1.14 7.87 7.68 11.11 3.28 1.62 9.81 1.37c7.3-.29 14.52-1.17 20.78-4.18 5.5-2.65 9.48-8.85 11.63-14.73q.72-1.98 2.75-11.29 7.39-34 12.81-60.51.26-1.26 2.27-2.62a.839.828-62.719 0 1 .49-.16h20.02a.392.39-83.514 0 1 .38.48q-11.22 51.6-14.37 65.53-1.07 4.73-3.49 12.53-2.38 7.68-4.84 12.04c-12.96 22.97-38.06 23.45-61.99 21.39q-10.53-.9-15.68-3.85-10.98-6.29-11.94-20.11-.28-3.92 1.31-17.44 1.12-9.58 5.23-30.04 4.5-22.4 8.48-38.85a.31.292 5.757 0 1 .3-.23zM604.16 611.2l-7.18 17.81a1.977 1.97-79.454 0 1-1.8 1.24c-15.75.22-31.64-.32-42.18-.03q-4.07.11-9.03 1.55c-5.26 1.53-6.44 6.45-6.08 11.25q.53 7.05 8.38 9.22c15.81 4.38 25.89 6.75 36.36 11.16 9.43 3.99 14.91 11.67 13.37 22.23-2.2 15.16-8.71 27.06-23.72 32.51q-5.97 2.17-21.27 2.24-30.04.15-51.62-.4a.747.747-78.054 0 1-.67-1.03q2.92-7.17 6.15-16.21c.96-2.7 3.58-2.46 6.52-2.47q28.68-.12 45.86.01 1.12.01 4.48-.63c5.19-.98 8.44-3.91 9.21-9.44q1.27-8.99-7.54-11.64-4.68-1.41-32.58-9.61c-11.15-3.28-18.94-11.28-18.52-23.48.36-10.34 5.6-23.31 14.74-28.77 9.35-5.6 17.36-6.06 28.71-6.2q13.95-.18 48.1.22a.342.337-78.834 0 1 .31.47M714.02 611.26a.337.334-79.224 0 1 .31.46q-3.25 8.08-6.55 17.56-1 2.89-3.76 2.86-5.92-.07-36.74-.75-9.84-.22-16.29 1.54c-5.03 1.37-5.79 6.61-5.61 11.35.23 5.9 5.06 7.92 10.5 9.4 11.71 3.19 21.68 5.96 31.35 10.23 10.64 4.7 16.41 10.72 15.25 22.35-2.36 23.67-17.48 35.88-40.73 35.78q-29.08-.12-57.89-1.41a.461.458-79.042 0 1-.41-.61q3.29-9.25 5.43-14.33 1.04-2.49 3.11-4.37a2.033 2.021-65.485 0 1 1.38-.52c14.35.11 28.91 1.1 43.78 1.45 6.96.16 18.26-.1 20.29-8.83q2.57-11.07-8.17-14.48-11.14-3.54-30.67-9.22-1.96-.57-6.67-2.98c-8.68-4.43-12.81-10.33-11.95-21.01q.72-8.88 2.39-13.6 4.89-13.88 18.29-18 1.72-.53 9.24-1.39 4.25-.48 9.35-.63 32.36-.93 54.77-.85M276.36 613.22c5.96.85 12 1.42 18.64 2.56 17 2.93 28.73 16.52 29.38 33.74.2 5.11.27 12.2-.3 17.61q-2.97 28.09-23.13 46.73c-13.71 12.67-30.26 18.97-48.44 17.61-11.32-.85-22.56-2.93-31.14-10.35-6.51-5.63-10.84-16.76-11.35-25.34-1.58-26.29 5.27-49.69 25.34-67.13 10.89-9.47 23.29-13.88 37.12-15.46q2.06-.23 3.88.03m13.74 24.25q-2.8-1.66-4.12-1.99-19.47-4.94-33.6 6.16-13.95 10.96-17.71 27.74-2.67 11.9-.63 23.61c1.93 11.09 9.67 16.86 20.83 17.99 18.32 1.85 34.75-10.31 41.69-26.83q6.57-15.63 3.32-31.44c-1.06-5.11-4.62-12.2-9.78-15.24M790.1 727.58l7.66-28.12a.621.617 10.011 0 0-.55-.78q-24.51-1.93-51.69-3.58c-2.43-.15-3.82 2.02-4.55 4.31q-2.58 8.11-6.75 19.57-1.25 3.46-1.98 4.75a2.687 2.678-73.365 0 1-2.51 1.36l-20.91-1.32a.166.165-77.603 0 1-.14-.22q5.23-14.68 5.58-15.62c3.39-9.05 5.74-17.25 9.34-26.15q1.27-3.13 3.77-10.44 5.12-15 13.46-28.24c6.81-10.81 16.9-20.13 29-24.21 11.75-3.96 24.26-3.36 36.67-1.93 5.41.63 12.03 2.03 16.63 4.76q13.04 7.73 10.98 24.26-1.64 13.21-5.8 28.36c-5.07 18.53-9.93 37.77-15.06 55.18a.372.36 9.683 0 1-.38.26l-22.2-1.41a.629.625-81.007 0 1-.57-.79m-40.36-50.76 54.08 3.43a.69.69 6.708 0 0 .71-.56q2.72-15.09 4.01-26.19c1.01-8.66.15-14.15-8.84-16.34-17.91-4.36-32.89 3.44-41.56 19.21q-5.27 9.6-8.81 19.85a.456.456-79.35 0 0 .41.6M857.18 732.46l27.06-86.4a.452.45-78.989 0 0-.39-.58l-37.88-3.32a.348.347 11.428 0 1-.3-.45l5.6-17.87a2.854 2.848 11.032 0 1 2.96-1.99l97.37 8.52a.512.508-77.538 0 1 .43.68l-6.97 19.41a.648.646 12.455 0 1-.66.42l-35.77-3.13a.61.596 10.659 0 0-.63.42q-15.21 47.11-26.53 83.52-.54 1.74-2.87 2.98a1.826 1.808 33.185 0 1-.98.2l-20-1.75a.515.512-78.855 0 1-.44-.66M192.86 732.29a.444.442-20.282 0 1-.32.69q-6.93.73-20.03 2.34c-5.2.64-8.53-4.36-11.35-8.48q-6.41-9.35-12.94-19.07-2.45-3.66-5.3-6.97a2.017 2.005 65.732 0 0-1.78-.68q-1.89.25-13.33 1.66-3.76.46-4.26 3.99-.81 5.67-5.36 32.94-.29 1.73-1.99 2.97a1.24 1.182-64.798 0 1-.62.24l-21.43 2.03a.252.25-88.182 0 1-.27-.29q11.92-70.2 19.17-112.38c.39-2.27 3.2-2.92 5.42-3.08q25.06-1.88 43.91-3.06c7.02-.44 12.94-.96 19.57 1.13 14.86 4.68 19.49 16.17 17.62 31.26-2.39 19.46-12.34 32.09-31.27 37.79a.467.465 63.824 0 0-.24.71zm-64.87-50.46a.474.472-89.082 0 0 .53.55q8.68-1.2 27.5-2.99 7.81-.75 11.03-2.63c6.8-3.97 8.67-11.92 8.82-19.75.16-8.93-8-11.07-15.36-10.65q-6.15.35-26.31 1.74a.438.43 2.57 0 0-.39.35z"></path><path fill="#05258d" fill-rule="evenodd" d="M290.1 637.47c5.16 3.04 8.72 10.13 9.78 15.24q3.25 15.81-3.32 31.44c-6.94 16.52-23.37 28.68-41.69 26.83-11.16-1.13-18.9-6.9-20.83-17.99q-2.04-11.71.63-23.61 3.76-16.78 17.71-27.74 14.13-11.1 33.6-6.16 1.32.33 4.12 1.99M749.74 676.82a.456.456-79.35 0 1-.41-.6q3.54-10.25 8.81-19.85c8.67-15.77 23.65-23.57 41.56-19.21 8.99 2.19 9.85 7.68 8.84 16.34q-1.29 11.1-4.01 26.19a.69.69 6.708 0 1-.71.56zM127.99 681.83l5.82-33.38a.438.43 2.57 0 1 .39-.35q20.16-1.39 26.31-1.74c7.36-.42 15.52 1.72 15.36 10.65-.15 7.83-2.02 15.78-8.82 19.75q-3.22 1.88-11.03 2.63-18.82 1.79-27.5 2.99a.474.472-89.082 0 1-.53-.55"></path><path fill="#d6ab50" fill-rule="evenodd" d="M488.76 817.73q-1.24.93-2.25 1.26c-10.11 3.37-21.9 1.28-25.61-9.51-5.94-17.24 6.23-30.33 23.65-28.02 20.72 2.74 21.58 28.26 16.62 43.14q-5.64 16.91-23.34 17.21-8.84.16-15.33-5.12a.914.91 36.738 0 1-.18-1.22l5.16-7.59a.849.843-55.455 0 1 1.17-.22c3.93 2.66 10.78 5.23 14.77 2.43 3.8-2.66 5.28-7.61 5.79-12.1a.284.282 74.792 0 0-.45-.26m.49-17.91a7.7 7.7 0 0 0-7.7-7.7h-1.6a7.7 7.7 0 0 0-7.7 7.7v1.54a7.7 7.7 0 0 0 7.7 7.7h1.6a7.7 7.7 0 0 0 7.7-7.7zM524.44 805.2a.258.25-7.235 0 0 .32.24c8.44-2.1 19.42-2.31 25.51 5.11 4.31 5.25 4.41 14.27 1.74 20.48q-2.85 6.63-9.36 9.14c-12.75 4.91-27.51.68-31.37-13.18q-2.82-10.13-.81-22.49 1.42-8.71 7.83-15.62c8.35-8.99 22.24-9.97 32.18-3.07a.499.498-57.865 0 1 .15.66l-4.62 8.01a.596.593 28.4 0 1-.78.23c-9.82-5-20.81-2.81-20.79 10.49m16.263 16.85a7.4 7.4 0 0 0-7.124-7.666l-2.099-.077a7.4 7.4 0 0 0-7.666 7.124l-.077 2.099a7.4 7.4 0 0 0 7.124 7.666l2.099.077a7.4 7.4 0 0 0 7.666-7.124zM585.8 831.25a.5.5-45 0 0-.5-.5h-25.99a.434.432 87.057 0 1-.43-.39q-.19-2.45-.47-8.14-.14-3.05 1.6-5.69 11.86-17.84 19.45-30.81c2.05-3.5 3.88-4.27 7.96-4.22q8.7.09 10.8.15a.68.68.428 0 1 .67.68v35.83a.79.78 0 0 0 .79.78h5.72a.67.66-90 0 1 .66.67v10.37a.57.57 45 0 1-.57.57h-5.72a.79.78-90 0 0-.78.79v8.44a.66.65 0 0 1-.66.65h-11.94a.59.58 0 0 1-.59-.58zm.1-33.445a.5.5-6.808 0 0-.919-.273l-13.288 20.415a.5.5 30.575 0 0 .419.773H585.4a.5.5 5.862 0 0 .5-.5zM451.56 784.54v55.52a.34.34 38.179 0 1-.34.34h-11.95a.62.62-53.158 0 1-.62-.62v-41.6a.61.605 75 0 0-.91-.53l-10.7 6.18a.52.52-15 0 1-.78-.45v-8.53a1.169 1.134-28.202 0 1 .21-.66q2.45-3.47 3.67-4.31 7.56-5.16 11.97-6.24 2.21-.53 8.84.21a.695.688-86.759 0 1 .61.69"></path><path fill="#05258d" fill-rule="evenodd" d="M489.25 801.36a7.7 7.7 0 0 1-7.7 7.7h-1.6a7.7 7.7 0 0 1-7.7-7.7v-1.54a7.7 7.7 0 0 1 7.7-7.7h1.6a7.7 7.7 0 0 1 7.7 7.7zM585.9 797.805v20.415a.5.5 29.815 0 1-.5.5h-13.288a.5.5 57.038 0 1-.419-.773l13.288-20.415a.5.5 10.588 0 1 .919.273M540.626 824.149a7.4 7.4 0 0 1-7.666 7.124l-2.099-.077a7.4 7.4 0 0 1-7.124-7.666l.077-2.099a7.4 7.4 0 0 1 7.666-7.124l2.099.077a7.4 7.4 0 0 1 7.124 7.666z" data-source="https://football-logos.cc"></path><!-- source: https://football-logos.cc --></svg>