<svg xmlns="http://www.w3.org/2000/svg" id="Calque_2" data-name="Calque 2" viewBox="0 0 430.6 659.11"><!-- Source: https://football-logos.cc --><defs data-source="https://football-logos.cc"><style>.cls-1{fill:#dec067}.cls-4{fill:#e5bd64}</style></defs><g id="Logo_MCA_2020" data-name="Logo MCA 2020" data-source="https://football-logos.cc"><path d="M205.2 650.5c-25.72-21.9-90.99-83.13-141.36-178.58-23.46-44.45-40.7-90.72-51.25-137.53C.41 280.34-2.96 225.01 2.6 169.94l1.98-19.63 18.64 6.47c18.49 6.41 37.96 9.67 57.88 9.67 46.14 0 92.32-17.5 123.53-46.81l10.67-10.02 10.67 10.03c31.2 29.31 77.38 46.81 123.53 46.81 19.92 0 39.39-3.25 57.88-9.67l18.64-6.47 1.98 19.63c5.56 55.07 2.19 110.4-9.99 164.45-10.55 46.81-27.8 93.08-51.25 137.53-50.36 95.44-115.62 156.68-141.35 178.58l-10.11 8.6-10.11-8.6ZM215.31 131" class="cls-1"></path><path d="M215.31 131v507.63C134.11 569.5-4.89 399.5 18.11 171.5c74.45 25.83 153 1 197.2-40.51Z" style="fill:#026141"></path><path d="M215.31 131v507.63c81.2-69.12 220.2-239.12 197.2-467.12-74.45 25.83-153 1-197.2-40.51" style="fill:#e01623"></path><path d="m215.31 0 12.24 33.17 35.33 1.4-27.76 21.9 9.59 34.03-29.4-19.64L185.9 90.5l9.59-34.03-27.76-21.9 35.33-1.4zM215.31 165.13l12.24 33.18 35.33 1.39-27.76 21.9 9.59 34.04-29.4-19.64-29.41 19.64 9.59-34.04-27.76-21.9 35.33-1.39zM183.02 405.5h-18.65l-10.18 29.54c-2.73 8.28-4.92 16.27-6.45 22.26-1.74-7.36-3.79-14.95-5.97-22.15l-9.64-29.65h-18.87l-4.94 74h14.15l1.66-29.88c.44-8.09.8-17.11 1.07-24.56 1.7 7.19 3.75 14.85 5.95 22.11l9.85 31.48h11.5l10.71-31.88c2.52-7.13 5-14.93 7.14-22.43.08 7.96.47 16.38.82 23.98l1.47 31.19h14.69l-4.28-74Z" class="cls-1"></path><path d="M248.58 465.23c-3.35 1.57-8.81 2.58-13.92 2.58-15.14 0-24.19-9.36-24.19-25.04s9.31-25.57 24.29-25.57c5.01 0 9.63.91 13.73 2.7l.95.42 3.35-12.17-.65-.34c-2.93-1.52-9.39-3.3-17.92-3.3-23.53 0-39.33 15.64-39.33 38.91s14.77 37.09 37.63 37.09c9.3 0 16.04-1.78 18.99-3.3l.61-.31-2.5-12.15zM298.22 405.5h-18.16l-23.75 74h15.54l6.22-20.46h21.62l6.54 20.46h16.07zm-17.4 41.62 7.84-26.91 8.14 26.91z" class="cls-4"></path><path d="M321.8 250c0 58.82-47.68 106.5-106.5 106.5S108.8 308.82 108.8 250c0-13.29 2.43-26.01 6.89-37.74 4.42 51.13 47.33 91.24 99.61 91.24s95.19-40.11 99.61-91.24c4.46 11.73 6.89 24.45 6.89 37.74" class="cls-1"></path></g><!-- source: https://football-logos.cc --></svg>