<svg xmlns="http://www.w3.org/2000/svg" viewBox="29.22 216.94 733.37 652.14"><!-- Source: https://football-logos.cc --><path d="M347.785 209.356c45.94 10.665 69.73 5.332 101.312 18.048 49.036 19.743 61.115 52.092 61.935 100.492v192.98c0 22.764.81 40.112 21.739 62.963 20.1 21.945 39.17 28.917 39.17 28.917l-47.983 66.43c-57.38-27.707-137.888-44.937-227.03-44.937h-.002c-89.142 0-169.65 17.23-227.03 44.938l-47.984-66.431s19.073-6.972 39.172-28.917c20.928-22.85 21.738-40.2 21.738-62.964v-192.98c.821-48.399 12.9-80.748 61.936-100.49 31.582-12.717 55.372-7.384 101.31-18.049 31.116-7.222 50.86-19.277 50.86-19.277s19.744 12.055 50.857 19.277" style="fill:#1c4289;fill-opacity:1;fill-rule:nonzero;stroke:none" transform="matrix(1.33333 0 0 -1.33333 0 1122.52)" data-source="https://football-logos.cc"></path><path d="M521.525 669.944c5.385-7.453 31.723-43.916 39.266-54.36-7.992-4.378-20.546-12.653-33.465-26.758-22.03-24.053-23.676-42.52-23.676-67.95v-192.98c-.744-43.819-10.592-74.833-57.311-93.644-16.57-6.672-30.678-8.062-48.538-9.821-14.442-1.424-30.808-3.036-51.685-7.883-24.299-5.64-41.821-14.07-49.187-18.007-7.366 3.936-24.891 12.365-49.19 18.007-20.877 4.847-37.244 6.459-51.684 7.883-17.862 1.76-31.97 3.15-48.54 9.821-46.719 18.811-56.566 49.825-57.31 93.769v192.854c0 25.43-1.647 43.898-23.676 67.95-12.92 14.106-25.473 22.38-33.466 26.759l39.266 54.36c60.356-27.784 139.76-43.078 224.597-43.078s164.244 15.294 224.6 43.078" style="fill:#fff;fill-opacity:1;fill-rule:nonzero;stroke:none" transform="matrix(1.33333 0 0 -1.33333 0 1122.52)"></path><path d="m525.174 656.485 28.454-39.388c-7.788-4.782-17.979-12.249-28.415-23.315l-.548-.484v63.833zM420.023 633.251v-139.47l67.727 19.42v137.93l-.318-.09c-20.891-7.175-43.36-13.097-67.005-17.682zM315.387 622.214V463.77l67.721 19.417V627.37l-.36-.055c-21.678-2.782-44.094-4.507-66.977-5.12zM173.83 605.065v28.186l-.485.124c-23.452 4.552-45.75 10.42-66.496 17.52l-.745.236V403.725l67.727 19.457v41.401l.776-.022q4.085-.481 8.296-.483a70.4 70.4 0 0 1 27.051 5.375l.792.36V433.77l67.725 19.404v169.04l-.46-.018c-22.785.613-45.107 2.327-66.694 5.091l-.571.081v-27.43l-.622.188a70.4 70.4 0 0 1-27.22 5.446q-4.17-.001-8.214-.474zM68.985 656.909l-28.757-39.812c7.878-4.836 18.211-12.421 28.775-23.7l.186-.175v63.986zM139.615 368.4q-1.703 1.506-2.136 1.842-1.6 1.152-2.696.839-.94-.271-1.762-2.116-.826-1.85-1.097-4.15a150 150 0 0 1-1.344-6.521q-1.192-6.477-.582-8.602.345-1.207 3.062-1.193 2.716.01 3.286-1.972.61-2.127-1.933-4.045-2.545-1.916-8.415-3.6-7.596-2.18-10.606-1.736c-1.482.24-2.418 1.05-2.812 2.42q-.529 1.846 1.57 3.37 2.872 2.054 3.486 3.303t1.14 3.248q.34 1.17 1.23 5.73l2.13 11.135q1.03 5.826 1.348 9.143.505 5.6-.531 9.222-1.118 3.901.355 6.71 1.709 3.175 6.629 4.589 5.46 1.564 11.692-2.487 1.757-1.111 5.591-4.466 1.582-1.392 10.852-11.33 8.16-8.723 12.78-13.928 2.122-2.388 5.057-2.316t3.507-1.913q.75-2.625-2.414-4.802-3.165-2.175-11.1-4.45-8.016-2.3-10.566-2.799-7.498-1.46-8.533 2.153-.487 1.7 2.348 3.82 1.387 1.01 1.062 2.143-.202.707-5.016 6.422-4.811 5.716-5.582 6.336M203.509 415.67q5.227 1.5 8.302 2.862 2.193 1.187 4.466 2.4 2.966.851 5.939-2.442c1.572-1.749 2.663-3.69 3.272-5.814q.591-2.06.116-3.649-.604-2.018-2.71-2.62-2.423-.696-4.431 1.012c-3.02 2.477-7.527 2.862-13.51 1.146q-5.386-1.545-6.282-2.984-.899-1.444.295-5.6l.911-3.175q.89-3.105 1.753-3.464.862-.364 4.457.667 3.044.872 2.545 4.969c-.332 2.73.412 4.36 2.236 4.882q2.967.85 5.377-3.136 1.433-2.35 2.55-6.245 1.099-3.829 1.09-7.048-.005-4.99-3.05-5.862-2.03-.581-3.87 2.891-1.843 3.47-6.133 2.242-2.11-.606-2.345-2.433-.108-1.102.563-3.438 2.129-7.429 3.92-8.37 1.396-.746 7.877 1.112 9.21 2.64 11.093 8.596t3.913 6.537q1.794.514 3.178-.626a5.6 5.6 0 0 0 1.873-2.842q1.078-3.76-.07-9.332-1.147-5.572-3.411-6.22a186 186 0 0 1-5.26-.963q-2.838-.56-4.946-1.164l-32.084-9.2q-3.358-.963-4.853-.168-.906.506-1.25 1.711-.426 1.483 2.125 3.634 2.55 2.149 1.354 6.324a842 842 0 0 0-4.022 14.47q-1.748 6.542-2.743 10.013-1.543 5.376-6.306 6.08-2.294.337-2.883 2.39-.63 2.193 1.032 3.474c1.106.85 2.649 1.565 4.627 2.132l1.64.468q.699.202 1.171.337zM336.607 453.838q2.34.67 3.403 1.095t2.538 1.168q1.142.725 1.552.925.406.197 1.502.51 2.652.76 6.835-2.032 4.812-3.233 6.297-8.41 1.688-5.892-4.322-7.615-3.749-1.075-7.601 2.35-3.856 3.426-5.497 2.958-1.954-.561-1.93-2.701-.012-.847.457-2.475l6.236-21.75c.896-3.12 3.123-4.804 6.69-5.061q2.586-.18 3.174-2.232.65-2.266-1.502-4.188-3.296-2.938-13.056-5.736-7.105-2.037-10.934-2.524-8.151-1.032-9.169 2.51-.588 2.05 1.765 3.574 2.915 1.908 3.157 3.127c.163.81.121 2.077-.116 3.8q-.361 2.579-.808 4.139l-3.866 15.837q-1.421 4.955-2.629 6.221-.734.788-1.904.452-.624-.182-4.384-7.402-1.803-3.435-4.767-4.286-2.265-.65-3.98.472-1.717 1.12-2.326 3.25-1.302 4.54.712 10.187 2.011 5.648 5.37 6.611.388.111 1.303.174c.609.04 1.102.076 1.489.107q.58.045 2.75.428 2.169.382 4.357 1.01zM228.254 261.559v7.402h14.227v-43.607h-8.501v36.205zM326.687 232.756v-7.402h-29.38l11.103 13.996c3.066 3.817 9.485 11.393 9.485 16.308 0 3.124-2.024 7.057-5.61 7.057-3.816 0-5.552-4.165-5.378-7.461h-9.022c.579 8.387 5.378 14.863 14.343 14.863 7.98 0 14.168-6.072 14.168-14.053 0-6.42-3.585-11.22-7.576-15.846l-6.42-7.462zM350.8 261.559l-1.503-6.653 2.2.117c8.5 0 14.052-6.999 14.052-15.153 0-9.369-6.535-15.673-15.847-15.673-5.146 0-9.542 1.91-12.954 5.783l2.544 7.287c2.256-3.239 5.84-5.666 9.833-5.666 4.74 0 7.807 4.106 7.807 8.617 0 4.742-3.702 8.675-8.502 8.675-2.486 0-5.204-1.157-6.998-2.834h-1.33l4.684 22.902h18.97v-7.402zM210.746 274.694v76.331l67.725 19.42v-79.003l-.414-.032a219.5 219.5 0 0 1-66.957-16.566zM420.023 411.031v-156.35l.211-.105a229 229 0 0 0 21.559-16.391l.324-.294q1.184.445 2.383.927c21.796 8.777 35.085 20.09 43.053 34.422l.197.36v156.87zM315.387 291.46v89.577l67.721 19.4v-125.74l-.34.14a219.5 219.5 0 0 1-66.972 16.573zM173.657 254.6a229 229 0 0 1-21.795-16.59l-.134-.115q-1.18.443-2.375.923c-21.936 8.833-35.257 20.236-43.207 34.703l-.042.079v47.412l67.727 19.444V254.7zM239.207 399.217q-3.217 11.213 3.372 20.942 6.587 9.724 19.468 13.419 9.995 2.864 18.618.19 7.227-2.228 12.676-7.964 4.615-4.901 6.1-10.081 3.177-11.076-4.095-21.073c-4.602-6.34-11.07-10.702-19.394-13.09q-12.493-3.582-22.992 1.359-10.499 4.939-13.753 16.298m22.306 22.686q-3.046-.874-4.134-3.71t-.257-5.732q1.783-6.221 7.288-12.747c4.515-5.336 8.646-7.463 12.393-6.389q3.354.963 4.435 3.679 1.081 2.718.188 5.83-1.904 6.64-7.171 12.935-6.578 7.901-12.742 6.134M372.911 438.26q1.03 5.83 1.349 9.145.505 5.6-.531 9.221-1.12 3.903.355 6.71 1.707 3.177 6.627 4.588 5.464 1.565 11.695-2.484 1.754-1.112 5.59-4.467 1.913-1.68 11.37-11.376 9.455-9.696 13.041-13.659 2.123-2.388 5.059-2.315 2.934.072 3.505-1.913.752-2.627-2.418-4.803-3.17-2.178-11.116-4.455-8.025-2.301-10.576-2.804-7.51-1.46-8.546 2.16-.49 1.705 2.322 3.817 1.374 1.008 1.05 2.146-.674 2.342-3.336 2.194-2.66-.149-12.182-2.879-3.596-1.03-4.863-2.046-1.271-1.02-.58-3.432.346-1.21 3.085-1.193t3.307-1.969q.61-2.132-1.93-4.051-2.545-1.92-8.416-3.604-7.596-2.178-10.605-1.735-2.222.36-2.812 2.422-.53 1.842 1.569 3.369 2.872 2.05 3.488 3.302.614 1.25 1.139 3.248.339 1.17 1.23 5.73zm18.041-.363 1.8.517q1.271.597 1.066 1.31-.268.929-2.73 3.313-1.49 1.349-1.828 1.64-1.708 1.519-2.144 1.86-1.603 1.16-2.7.848-1.178-.34-1.715-2.887-.077-.333-.357-3.196-.259-1.465-.325-2.41-.215-1.92-.05-2.487.287-1.002 2.325-.416l.782.224zM432.776 469.97q-.775 2.703-4.714 2.73-3.937.026-4.546 2.16-.551 1.92.99 3.173 1.543 1.252 3.884 1.923l5.819 1.514q6.4 1.835 11.305 3.587 4.905 1.751 9.857 3.637c5.775 1.656 10.934 1.744 15.467.269q7.728-2.49 9.914-10.116 2.185-7.627-2.769-13.906-4.65-5.885-13.232-8.345a39 39 0 0 0-2.595-.667q-4.062-.858-4.297-.925-1.248-.357-.923-1.492l1.181-4.116q1.483-5.179 5.929-5.67 2.171-.224 2.66-1.926.672-2.342-2.72-4.657t-10.652-4.398q-7.34-2.104-11.42-2.005-4.087.098-4.759 2.45-.489 1.703 2.001 3.769c1.661 1.374 2.196 3.104 1.597 5.192zm19.92 9.475q-2.022-.58-2.342-1.217-.323-.638.05-1.934l3.094-10.793.331-1.153q.288-1.009 1.126-1.312.84-.305 3 .316 3.624 1.038 4.73 3.731t.077 6.292q-1.034 3.597-3.645 5.378-2.616 1.782-6.422.692" style="fill:#1c4289;fill-opacity:1;fill-rule:nonzero;stroke:none" transform="matrix(1.33333 0 0 -1.33333 0 1122.52)"></path><path d="M241.96 561.777a63.8 63.8 0 0 1-18.335 23.23l-.052.033a56.5 56.5 0 0 1-2.91 6.637l.196-.112c11.53-7.737 20.582-18.893 25.695-32.004l.077-.209a35 35 0 0 1-4.61 2.287z" style="fill:#fff;fill-opacity:1;fill-rule:nonzero;stroke:none" transform="matrix(1.33333 0 0 -1.33333 0 1122.52)"></path><path d="M241.248 558.922c-.269-4.055-1.212-11.648-4.505-18.897l-.047-.123c-9.064-.813-20.666-1.193-26.113-1.335l-.196-.002c-1.702 2.743-8.54 13.506-16.921 23.18l.038.107c2.704 8.32 4.437 15.964 5.168 19.449l.124.021c8.925 1.404 19.666 2.305 23.592 2.609l.084-.052a62.17 62.17 0 0 0 18.807-24.506zM227.619 490.274c-10.976-2.14-21.935-.86-24.747-.466l-.21.012c-2.191 7.91-5.78 19.838-7.048 24.03l-.04.134c2.143 2.635 9.824 12.412 14.777 22.953l.25.03c5.4.142 16.867.516 25.954 1.317l.104-.162c1.384-2.653 5.672-11.55 6.772-21.918l-.042-.23a62.2 62.2 0 0 0-15.638-25.559z" style="fill:#fff;fill-opacity:1;fill-rule:nonzero;stroke:none" transform="matrix(1.33333 0 0 -1.33333 0 1122.52)" data-source="https://football-logos.cc"></path><path d="M228.554 484.073c.163 2.323.234 4.082.264 5.172l.114.09A63.8 63.8 0 0 1 244.5 514.22l.052.187c.826.288 2.186.817 4.033 1.718l-.053-.193c-3.56-12.35-10.52-23.273-19.796-31.687zM153.023 482.25c-4.094 6.82-4.962 18.183-5.143 22.086v.199c5.158 5.396 13.687 12.09 17.152 14.745l.114.097c3.707-1.09 18.02-5.144 28.94-6.02l.04-.123c1.34-4.43 5.023-16.671 7.165-24.453l-.144-.198c-2.313-2.875-8.353-9.887-16.54-15.694l-.191.002c-11.427.157-22.105 3.518-31.2 9.235z" style="fill:#fff;fill-opacity:1;fill-rule:nonzero;stroke:none" transform="matrix(1.33333 0 0 -1.33333 0 1122.52)"></path><path d="M145.225 478.124c3.815.83 6.131 1.732 7.375 2.32l.164.08c9.188-5.68 19.923-9.029 31.401-9.229l.164.007a26.7 26.7 0 0 1 3.901-4.56l-.18-.01a69 69 0 0 0-5.147-.193 67.9 67.9 0 0 0-37.919 11.52zM126.36 551.078a62.7 62.7 0 0 1-2.131-16.253c0-6.042.857-11.883 2.452-17.408l.045-.15c2.386-2.448 8.922-8.203 20.141-11.307l.136-.028c5.303 5.481 13.62 11.997 17.06 14.625l.06.065c-1.502 12.82-1.22 26.86-1.132 29.975l-.116.074c-7.244 5.452-15.134 10.592-18.923 13.004l-.159-.093c-3.15-1.578-11.936-6.286-17.35-12.212zM142.27 589.685c4.448-.32 8.007-.91 9.508-1.185l.133.089c7.608 4.875 16.319 8.135 25.66 9.299l.16.037a38.7 38.7 0 0 0 7.05 5.158l-.268.01q-.803.018-1.61.018c-15.126 0-29.119-4.943-40.448-13.3z" style="fill:#fff;fill-opacity:1;fill-rule:nonzero;stroke:none" transform="matrix(1.33333 0 0 -1.33333 0 1122.52)"></path><path d="M118.937 558.735a68 68 0 0 1-4.32-23.91 67.9 67.9 0 0 1 7.921-31.903l.076-.122c.744 6.483 1.943 11.518 2.601 13.973l-.048.12a64.3 64.3 0 0 0-2.538 17.932c0 5.412.67 10.668 1.932 15.687l.038.137c-1.173 1.194-3.65 4.014-5.613 8.284zM151.634 586.331c-1.682-3.854-5.215-12.655-6.555-21.387l-.012-.083c3.917-2.5 11.702-7.588 18.855-12.975l.11-.068c10.581 5.934 23.594 9.088 27.769 10l.052.131c2.832 8.63 4.611 16.587 5.308 19.945l-.089.084c-2.201 2.153-8.84 8.297-18.761 14.374l-.147-.004c-9.683-1.142-18.682-4.594-26.447-9.798z" style="fill:#fff;fill-opacity:1;fill-rule:nonzero;stroke:none" transform="matrix(1.33333 0 0 -1.33333 0 1122.52)"></path><path d="M265.268 255.023c0-3.933 2.602-8.154 6.881-8.154 4.28 0 6.94 4.22 6.94 8.154 0 3.932-2.66 8.155-6.94 8.155s-6.881-4.223-6.881-8.155m7.922-14.285-.115.116c-.983-.406-2.198-.636-3.413-.636-7.98 0-12.954 6.94-12.954 14.459 0 9.021 6.42 15.44 15.384 15.44 8.617 0 15.267-6.072 15.267-14.863 0-5.204-2.486-10.353-5.32-14.574l-10.329-15.326h-9.406z" style="fill:#1c4289;fill-opacity:1;fill-rule:nonzero;stroke:none" transform="matrix(1.33333 0 0 -1.33333 0 1122.52)" data-source="https://football-logos.cc"></path><!-- source: https://football-logos.cc --></svg>