<svg xmlns="http://www.w3.org/2000/svg" viewBox="10.32 10.26 226.44 279.95"><!-- Source: https://football-logos.cc --><path d="M26.238 10.543c1.465-.242 2.961-.273 4.446-.281 62.425.031 124.859-.024 187.285.023 7.812.008 15.238 5.344 17.742 12.719 1.281 3.16 1.016 6.621 1.039 9.945-.016 79.504 0 159-.008 238.504.149 7.82-5.32 15.25-12.707 17.742-3.187 1.266-6.672.977-10.015 1.008H33.832c-2.383-.015-4.777.086-7.152-.144-7.114-.934-13.407-6.266-15.477-13.118-.894-2.515-.879-5.222-.887-7.859.032-80.027-.023-160.059.032-240.078-.086-8.93 7.086-17.11 15.89-18.461m78.383 19.027a81 81 0 0 1-6.348 1.707c-3.96 1.47-8.02 2.684-11.757 4.676-6.293 2.856-12.028 6.75-17.496 10.93-9.805 8.222-18.098 18.36-23.504 29.976-2.47 4.7-3.98 9.813-5.586 14.852-.149.793-.297 1.586-.457 2.375-3.383 13.062-3.375 27.059 0 40.121.16.793.308 1.578.457 2.379 1.62 5.027 3.11 10.152 5.593 14.851 2.84 6.282 6.758 11.993 10.954 17.446a112 112 0 0 0 12.543 12.531c5.468 4.18 11.203 8.07 17.496 10.918 3.73 2 7.796 3.219 11.757 4.684 2.13.496 4.254 1.043 6.348 1.703 11.621 2.566 23.73 2.824 35.438.629 1.312-.317 2.644-.59 3.925-1.02q1.184-.239 2.36-.473a49 49 0 0 1 3.125-.902c3.847-1.394 7.797-2.558 11.41-4.512 18.527-8.574 33.601-24.058 42.023-42.59 1.66-3.523 2.84-7.242 4.098-10.921.25-1.075.527-2.14.855-3.192.176-.785.348-1.57.528-2.347 3.054-12.582 3.054-25.903.008-38.489-.188-.785-.36-1.558-.536-2.336a47 47 0 0 1-.847-3.195c-1.274-3.68-2.43-7.414-4.113-10.933-10.028-22.336-29.973-39.895-53.426-47.098a52 52 0 0 1-3.125-.902l-2.36-.47c-1.28-.429-2.613-.714-3.925-1.019-11.707-2.195-23.809-1.937-35.438.621m56.957 185.735c-2.195.562-3.816 2.933-3.305 5.183.243 1.43 1.598 2.575 3.036 2.637 2.722.39 5.437-2.336 4.957-5.059-.235-2.144-2.73-3.398-4.688-2.761m-13.351 2.625c-2.094 8.78-3.864 17.629-5.887 26.425a438 438 0 0 0 7.16.008c1.984-8.843 3.816-17.707 5.895-26.52-2.395.009-4.786-.132-7.168.087m-27.036 8.37c.18-.726.364-1.456.543-2.179-2.511.008-5.02.016-7.53.008-1.477 6.746-2.942 13.5-4.485 20.234 2.52.016 5.035.016 7.554 0 .977-4.144 1.692-8.347 2.832-12.445 1.383-1.852 4.422-2.164 6.051-.367-.82 4.293-1.808 8.55-2.785 12.812 2.516.008 5.043.008 7.563.016.988-4.613 2.066-9.203 3.043-13.809.34-1.593.3-3.445-.899-4.683-1.523-1.938-4.16-2.348-6.473-2.133-2.085.062-3.753 1.457-5.414 2.547m-81.136 18.062c2.738.016 5.476.008 8.215.016 1.921-3.695 3.699-7.477 5.695-11.133.426 3.695.64 7.406.812 11.117 2.754.016 5.508.008 8.262.008 3.438-6.742 6.898-13.473 10.29-20.234-2.65-.008-5.302-.008-7.946 0-1.738 3.64-3.297 7.367-5.113 10.976a230 230 0 0 1-1.055-10.984c-2.242 0-4.485 0-6.727-.008-2.054 3.649-3.84 7.453-6.12 10.977-.087-3.657-.102-7.313-.153-10.97-2.485 0-4.969.009-7.457-.007.324 6.754.945 13.484 1.297 20.242m41.097-20.226c-1.968 3.695-3.925 7.398-5.996 11.039-.11-2.465-.086-4.918-.191-7.375-2.012 3.812-3.942 7.672-5.899 11.515-.82 1.547-.27 3.368-.332 5.047 2.746.016 5.508.008 8.262 0 1.914-3.664 3.574-7.46 5.711-11 .387 3.657.45 7.336.797 10.992 2.762.024 5.516.032 8.277 0 3.39-6.773 6.86-13.488 10.281-20.226-2.648 0-5.292.008-7.945-.008-1.816 3.57-3.187 7.367-5.215 10.828-.363-3.61-.625-7.226-1.078-10.828-2.226.008-4.445.008-6.672.016m17.711 20.242c2.516-.008 5.035-.008 7.551-.008 1.45-6.758 3.031-13.488 4.438-20.25a791 791 0 0 1-7.457 0c-1.575 6.73-2.961 13.516-4.532 20.258m74.785-19.606c-6.515.88-10.03 8.668-8.23 14.528.785 2.972 3.973 4.754 6.93 4.535 2 .039 3.582-1.363 5.273-2.219-.812 1.559-1.266 3.797-3.164 4.438-2.746.722-5.539-.282-7.75-1.907-1.258 1.555-2.613 3.04-3.809 4.653 5.012 4.394 14.024 4.922 18.594-.383 1.738-1.969 2.492-4.543 3.059-7.047q1.776-8.045 3.582-16.098c-2.29-.023-4.57-.015-6.856-.046-.21.386-.636 1.144-.84 1.523-2.062-1.191-4.312-2.45-6.789-1.977m21.512.547c-4.98 2.13-7.258 8.075-6.676 13.18.262 3.094 2.645 5.957 5.825 6.277 2.046.528 3.918-.636 5.718-1.418.254.25.758.743 1.008.996 2.117.024 4.235.016 6.36.024 1.414-6.363 2.832-12.734 4.214-19.106-2.289-.03-4.578-.023-6.859-.023-.195.371-.59 1.098-.781 1.46-2.516-1.85-5.852-2.683-8.809-1.39m-37.832-.062c-1.383 6.379-2.762 12.765-4.246 19.12 2.398-.007 4.79 0 7.191-.015 1.407-6.363 2.825-12.718 4.207-19.09-2.382-.03-4.765-.023-7.152-.015m-101.976 46.61c1.597-.227 3.562.335 4.793-1.02.605-1.54.226-3.22-.23-4.73.23-1.36.757-2.864.015-4.153-1.172-1.176-3.067-.75-4.563-1.004-.039 3.633-.031 7.266-.015 10.906m9.27-10.496c-1.079.54-1.063 1.969-1.126 3.004 0 2.11-.191 4.262.25 6.34 1.102 1.906 4.645 1.527 4.793-.88.18-2.323.188-4.667-.031-6.991-.301-1.692-2.543-2.477-3.887-1.473m7.836 4.473c.922 1.426 3.555 2.734 2.023 4.617-1.144.129-1.308-1.426-2.023-2.016-1.488.27-.746 2.246-.062 3.055 1.476.902 3.918.367 4.144-1.57.598-2.543-2.004-3.922-3.219-5.735.13-.597.38-1.789.512-2.386l1.55 2.488c.372-.125 1.11-.375 1.481-.512-.613-1.246-1.101-3.207-2.941-2.832-2.457.07-3.031 3.39-1.465 4.89m7.648 6.794c1.95-2.149.692-5.18 1.165-7.735.855 2.125 1.21 4.414 2.02 6.559.378.172 1.136.508 1.51.672.141-3.82.216-7.656-.038-11.477-2.266 1.02-1 4.016-1.614 5.946-.52-1.875-.933-3.774-1.406-5.649-.488.063-1.465.2-1.953.27-.086 3.789-.434 7.664.316 11.414m8.254-.84c1.524-.008 3.051-.008 4.579-.008l-.008-1.492h-2.88l-.046-3.207 2.808-.25q-.874-1.64-2.808-1.57c.023-.84.039-1.68.055-2.512 1.336-.11 3.035.195 3.257-1.613-1.644-.067-3.289-.075-4.933-.09-.031 3.578-.016 7.156-.024 10.742m12.243-11.024c-.086 3.766-.063 7.532-.016 11.297.39-.132 1.195-.406 1.598-.539.023-3.375.101-6.758-.067-10.129-.375-.156-1.14-.472-1.515-.629m9.77.34a176 176 0 0 0-.017 10.356c.387.164 1.149.508 1.536.68.046-1.727.054-3.442.054-5.16.457.007 1.364.03 1.809.046-.008 1.688-.016 3.371.058 5.067l1.5-.57c.145-3.321.13-6.66.008-9.981-.351-.235-1.07-.7-1.43-.934-.124 1.758-.16 3.524-.3 5.29-2.653-.278-1.274-3.165-1.754-4.844-.363.015-1.094.035-1.465.05m8.54-.066c-.032 3.586 0 7.18-.048 10.765 1.7-.015 3.399-.039 5.098-.171-.434-1.782-2.219-1.188-3.453-1.47l-.024-3.073c.715-.078 2.141-.22 2.856-.29-.528-1.218-1.723-1.359-2.848-1.538.016-.637.031-1.915.047-2.56 1.117-.077 2.227-.17 3.344-.28-.797-2.133-3.25-1.137-4.973-1.383m7.567-.055c-.032 3.719-.079 7.438.035 11.156 2.761-.336 1.101-3.625 1.644-5.386 3.028.742.031 5.363 3.453 5.332-.086-1.906-.34-3.79-.582-5.672.078-1.418.504-2.848.149-4.258-1.125-1.437-3.117-.988-4.7-1.172m8.286 1.805c-.18 2.527-.297 5.117.082 7.64.273 1.618 2.422 1.774 3.633 1.157 1.332-.848.976-2.574 1.234-3.875-1.5.078-2.164.933-1.973 2.562-.34.031-1.008.086-1.347.117-.008-2.77-.375-5.601.308-8.312.977 1.02 1.426 2.633 2.996 2.973-.273-1.305.078-3.063-1.312-3.82-1.328-.762-3.438-.071-3.621 1.558m7.933 8.992c1.543 0 3.075 0 4.618.008v-1.5c-.977-.008-1.942-.008-2.918-.008 0-.824-.008-2.46-.016-3.277.582-.008 1.73-.008 2.305-.008.03-.371.078-1.098.101-1.469-.59-.015-1.785-.039-2.383-.055v-2.707c1.29-.187 3.082.223 3.243-1.628a138 138 0 0 0-4.918-.09c-.032 3.578-.016 7.156-.032 10.734m7.457-6.629c.094 2.11-.398 4.48.852 6.348 1.297.64 3.172.633 3.941-.801.496-1.594.235-3.289.313-4.93-.653.012-1.957.012-2.61.012.723 1.73 1.793 4.024-.316 5.254-.305-2.918-1-6.215.277-8.95.895.782.98 3.192 2.676 2.415.39-1.906-1.254-4.32-3.37-3.387-1.88.383-1.677 2.57-1.763 4.04m9.067-3.595c-.168.227-.496.684-.664.91-.36 2.442-.235 4.942-.102 7.407.031 2.496 4.234 2.793 4.809.453.324-2.43.226-4.918.086-7.356-.157-1.875-2.864-2.761-4.13-1.414m8.606 10.184c.567.016 1.707.055 2.274.07.535-3.695 1.14-7.382 1.613-11.086-.375.18-1.133.559-1.512.739-.558 2.265-.484 4.644-1.156 6.894-.574-2.219-.676-4.512-1.094-6.746-.375-.273-1.125-.816-1.5-1.09-.039 3.781.98 7.477 1.375 11.219m6.988-10.703c-.363 3.555-.246 7.148-.132 10.719h1.636c.133-3.547.125-7.102.008-10.637-.379-.016-1.137-.067-1.512-.082m4.958.105c-.008 3.551-.016 7.114-.016 10.668l1.543-.062c-.05-2.27-.113-4.535.055-6.793.886 2.117 1.187 4.406 1.98 6.558l1.691.563c0-3.586.153-7.168-.046-10.746l-1.243-.582c-.254 1.867-.164 3.758-.324 5.633-.66-1.758-1.148-3.57-1.66-5.368zm8.675-.106c-.03 3.578-.015 7.164-.023 10.75 1.535 0 3.07-.008 4.613-.008l.008-1.484-2.977-.024c-.007-.808-.015-2.437-.023-3.254l2.32-.03c.035-.372.082-1.099.106-1.462l-2.41-.062c0-.668.007-2.008.007-2.676a40 40 0 0 0 3.313-.445c-.543-2.278-3.328-.895-4.934-1.305m0 0" style="stroke:none;fill-rule:nonzero;fill:#dd002c;fill-opacity:1" data-source="https://football-logos.cc"></path><path d="M64.39 55.574c15.15-15.476 36.626-24.765 58.36-24.703 11.04-.266 22.102 1.79 32.336 5.914 18.5 7.414 34 21.684 43.125 39.336a100 100 0 0 1 4.625 11.031c5.98 17.336 5.965 36.653 0 53.985-1.305 3.773-2.887 7.441-4.625 11.035-9.125 17.644-24.617 31.937-43.125 39.336-17.875 7.265-38.238 7.785-56.649 2.207-5.082-1.813-10.078-3.867-14.847-6.403-17.238-9.57-31.078-25.238-37.926-43.738-4.41-11.18-5.82-23.332-5.129-35.277 1.195-19.668 9.914-38.774 23.856-52.723m51.812-18.992c-.125 1.633-.277 3.266-.219 4.902l-2.14.024c.972-1.758.574-4.031-1.04-5.254.032 1.48.204 2.957.391 4.43-1.004-1.309-1.593-3.223-3.382-3.696-.126 2.582-.415 5.54 1.644 7.492.008-.851.016-2.57.016-3.433.168-.047.488-.14.656-.188.39.903.793 1.793 1.195 2.696 1.078-.203 2.125-.547 3.2-.758.355-.3 1.062-.895 1.425-1.203.805.558 1.574 1.18 2.375 1.734-.52-2.36-1.383-4.629-2.148-6.918q-.992.08-1.973.172m6.836-.312c0 2.218-.016 4.437.031 6.66 1.23-.11 2.489-.102 3.668-.496.395-.864.575-1.829.348-2.762-.602-.856-1.75-.934-2.621-1.363l-.149-1.012c.559.008 1.676.031 2.235.039l.094-.98c-1.204-.032-2.403-.063-3.606-.086m5.77.093c-.59 2.047-1.504 4.528-.055 6.426 1.492.773 2.996.063 3.617-1.445l.691-.446c.16.57.473 1.73.641 2.313 1.156.965 2.563.187 3.719-.305l-.442-2.054c-.863.78-1.738 1.566-2.609 2.351.016-1.93.274-3.851.879-5.687.488.613 1.473 1.851 1.96 2.472q.177-1.365.282-2.73c-1.07-.078-2.137-.219-3.207-.11a33 33 0 0 0-1.355 3.536c-.282-1.309-.395-2.664-.871-3.93-1.047-.328-2.164-.305-3.25-.39m-21.457.753c-.133 2.227.312 4.438.906 6.574.367.172 1.125.508 1.5.68-.707-2.414-.606-5.324-2.406-7.254m30.953 7.867c.761-1.199.785-3.168 2.46-3.507-.55 1.617-.25 2.933.915 3.945.394-2.547 1.328-5.012 1.343-7.617-1.093.91-1.738 2.191-2.492 3.36-.238-1.384-.449-2.77-.644-4.161-1.512 2.316-2.332 5.266-1.582 7.98m-33.29-7.047c-.03 1.665-.046 3.336-.062 5-.86-1.609-1.734-3.218-2.851-4.66-.485 2.582 1.605 4.598 2.496 6.848l1.87-.156c-.054-1.985.009-3.977-.163-5.953-.325-.27-.97-.801-1.29-1.078m40.66 1.374c-1.155 2.141-3.073 4.024-3.14 6.598.602-.496 1.781-1.484 2.371-1.976.29.554.88 1.671 1.172 2.226l1.258-.25c-.008-2.11.023-4.222.047-6.332-.434-.07-1.281-.203-1.707-.266m-47.86.981c-.976 2.258.149 4.535 1.235 6.512.84-.078 1.691-.11 2.523-.305 1.977-1.79.23-4.324-.508-6.293-1.086.008-2.171.04-3.25.086m-5.359 2.824c-.187 1.992 1.086 3.688 1.84 5.43 1.465.062 2.754-.59 4.039-1.2-.473-1.085-.945-2.167-1.496-3.21l-2.344 1.398c.535.11 1.606.336 2.14.445-.136.504-.41 1.516-.542 2.024-1.2-1.324-2.285-2.832-2.348-4.676.719-.016 2.149-.031 2.867-.039-.617-1.984-3.258-1.734-4.156-.172m57.098 4.973c1.691-.422 2.722-1.82 3.793-3.074-.25.98-.746 2.941-1 3.93.34-.173 1.023-.508 1.363-.676 1.078-1.907 1.91-3.993 1.988-6.204-1.328.871-2.554 1.891-3.793 2.887.442-1.453 1.102-2.879 1.024-4.441-1.848 2.125-2.785 4.863-3.375 7.578M87.539 45.03c1.07 2.008 2.055 4.063 3.36 5.938 1.242-.758 2.48-1.535 3.667-2.39-1.3.194-2.59.374-3.886.554.48-1.262 1.156-2.43 1.722-3.653l-2.613 1.473c-.18-1.516.977-2.535 1.668-3.71a52 52 0 0 0-3.918 1.788m71.2.055a392 392 0 0 0-.079 3.027 97 97 0 0 0-3.11 2.2c1.009.265 2.016.242 2.84-.512a17 17 0 0 0 1.536 3.226c.164-1.398.25-2.8.32-4.207 1.008-1.027 2.59-1.758 2.48-3.484-.605.441-1.808 1.328-2.413 1.766-.016-.586-.047-1.758-.075-2.344-.375.078-1.125.25-1.5.328M83.77 49.457c.765.95 1.457 1.953 2.289 2.855 1.039.133 2.078-.054 3.109-.14.094-.965.18-1.93.246-2.895-1.644.016-1.742 1.489-2.039 2.735a24.3 24.3 0 0 1-2.785-4.438l3.351.094a57 57 0 0 0-2.156-2.078c-1.289.95-2.336 2.164-2.015 3.867m79.796-1.922c-1.02 1.774-2.082 3.512-3.097 5.293.984.442 1.847 1.625 3.035 1.164-.031-.191-.102-.574-.133-.77l-.871-.699a73 73 0 0 1 .047-1.308c.941.164 1.887.336 2.84.508-.59-.895-1.227-1.758-1.707-2.715l3.687.66c-.863-.785-1.746-1.547-2.617-2.32zM78.79 50.406c.984 2.305 2.582 4.282 4.078 6.282.43-1.637-.52-3.083-.969-4.579 1.375.836 2.692 1.813 4.235 2.36-.703-1.38-1.719-2.551-2.86-3.586-.156-.508-.46-1.528-.613-2.04-1.445.04-2.793.606-3.87 1.563m24.98 1.145c-.778.312-1.563.62-2.36.91-3.715 1.348-7.34 2.957-10.73 4.988A66.43 66.43 0 0 0 67.059 81c-2.04 3.39-3.664 7.008-5.004 10.71a68 68 0 0 1-.961 2.392c-.094.418-.274 1.25-.367 1.664-3.567 11.894-3.567 24.87 0 36.761.093.418.273 1.25.367 1.664.332.786.656 1.586.96 2.395 1.34 3.71 2.966 7.328 5.005 10.715 5.703 9.672 13.91 17.879 23.629 23.543 3.382 2.039 7.015 3.656 10.738 4.984.797.305 1.582.625 2.37.973.415.086 1.266.258 1.684.344 12.739 3.796 26.735 3.53 39.301-.833.383-.109 1.164-.328 1.555-.437 3.14-1.273 6.258-2.629 9.254-4.215 5.375-3.097 10.45-6.746 14.777-11.203 12.871-12.738 20.047-31.004 19.063-49.078-.551-22.531-14.121-43.918-33.84-54.746-2.778-1.434-5.602-2.793-8.543-3.86-.774-.289-1.535-.578-2.309-.863-13.16-4.476-27.71-4.437-40.968-.36m62.027.872c-.727 1.012-1.363 2.101-1.535 3.355.902-.445 1.707-1.066 2.492-1.699 1.18.422 2.387.352 3.55-.11.079-.573.227-1.71.305-2.284a694 694 0 0 0-2.468-2.125c-.79.957-1.559 1.914-2.344 2.863m-91.035.941c1.343 1.774 2.722 3.54 3.972 5.39 1.047-.73 2.07-1.483 3.04-2.323l-.622-.77-1.89 1.235c-.282-.31-.856-.926-1.14-1.243.519-.492 1.566-1.472 2.085-1.96-.96.171-2.894.527-3.855.699q1.179-1.776 2.289-3.586a54 54 0 0 0-3.88 2.558m93.188 4.29q1.114 1.107 2.258 2.167.148 1.248.348 2.477c1.488-2.68 3.312-5.129 5.004-7.68-2.54.371-3.508 2.988-5.16 4.582-1.458-2.918 3.09-4.047 2.343-6.879-1.793 1.594-3.328 3.442-4.793 5.332M72.73 54.305a396 396 0 0 1 1.82 3.648c-1.378-.527-2.706-1.183-4.116-1.656A24.3 24.3 0 0 0 74.8 61.5c.363.031 1.086.102 1.449.133-.75-1.051-1.496-2.106-2.25-3.149 1.652-.687 2.676.996 3.957 1.618-.223-.91-.48-1.844-1.18-2.52-1.172-1.277-2.148-3.012-4.047-3.277m103.688 2.273c-1.621 1.453-3.04 3.125-4.676 4.567 1.117.964 2.219 1.984 3.543 2.667-.582-1.207-1.086-2.449-1.363-3.765a84 84 0 0 1 3.398 1.555 420 420 0 0 1-1.715-3.22c1.286.356 2.551.81 3.856 1.098-.969-.98-1.66-2.43-3.043-2.902m-109.61 3.328c1.422 1.774 3.09 3.324 4.704 4.934.425-.078 1.273-.242 1.699-.32-2.004-1.618-3.461-4.81-6.402-4.614m108.906 3.602c0 .484.008 1.457.015 1.945 1.395-1.207 2.715-2.504 4.008-3.82a8.3 8.3 0 0 0 2.98.894c-.874-.933-1.714-1.89-2.683-2.722-1.52 1.144-2.84 2.515-4.32 3.703m5.793.5c-1.426.832-2.457 2.152-3.39 3.469.628.793 1.241 1.632 2.027 2.296 2.03-.046 3.511-1.683 4.59-3.23a23 23 0 0 0-.317-2.621c-.969-.008-1.957-.164-2.91.086m-118.059-.016c-.039.45-.136 1.344-.176 1.79a22.6 22.6 0 0 0 4.133 5.39 84 84 0 0 0-.176-3.281 81 81 0 0 0 3.387-.282c-2.172-1.586-4.715-2.543-7.168-3.617m-2.574 3.281c.031.422.102 1.27.133 1.696a74 74 0 0 1 2.402 1.691c-1.59-.234-3.18-.492-4.785-.547 1.266 2.477 3.996 3.64 6.238 5.075-.496-1.657-1.8-2.77-2.957-3.946 1.715.422 3.602 2.063 5.114.235-2.11-1.309-4.114-2.778-6.145-4.204M181.02 71.25c.8 1.059 1.738 2.008 2.667 2.957 1.368-1.309 2.793-2.574 4.5-3.437-.308-1.2-.535-2.57-1.683-3.286-2.117.746-3.832 2.305-5.484 3.766m3.476 3.238c-.086.45-.258 1.336-.336 1.774q2.085-.329 4.184-.68c-1.14.887-2.336 1.723-3.153 2.934 2.633-.645 5.239-2.008 6.875-4.23a51 51 0 0 0-3.949.124c.738-.957 1.43-1.953 1.98-3.035-1.925.941-3.702 2.125-5.6 3.113m-128.477.88c.714.519 1.464 1.003 2.234 1.452 1.355-.343 2.621-.98 3.973-1.316-.274 1.48-1.793 1.746-2.895 2.383q1.428.245 2.863.472c.309-.574.914-1.71 1.215-2.277-.293-.531-.883-1.61-1.176-2.14-1.578.523-3.136 1.128-4.734 1.624.809-1.093 1.676-2.214 1.156-3.671a54 54 0 0 0-2.636 3.472m-.07 1.774c-1.079.238-1.536 1.484-2.305 2.152.953 1.418 2.304 2.46 3.64 3.496 1.574.094 2.852-.602 3.809-1.789-.242-.531-.746-1.605-.996-2.14-1.371-.598-2.63-1.57-4.149-1.72m130.664 3.54c1.11-.438 2.219-.903 3.32-1.356.04.399.118 1.207.157 1.614-.59.238-1.77.707-2.36.933.458.848.97 1.664 1.387 2.535.645.29 1.297.59 1.942.887-.25 1.02-.504 2.039-.739 3.066 1.903-1.37 3.957-2.613 5.555-4.359-.07-.34-.215-1.012-.293-1.352-1.95-.328-3.902.95-5.781.364-.133-.153-.403-.434-.528-.582 1.934-.692 3.786-1.61 5.547-2.668-1.457-.242-2.933-.149-4.398-.149.906-1.035 1.933-1.992 2.535-3.25-2.195 1.094-5.832 1.453-6.344 4.317M51.645 85.504c1.93.918 3.949 1.664 5.98 2.34.156-1.36 1.715-3.125.27-4.23l-2.086-.563a70 70 0 0 0-2.442-1.156c-.894.972-2.226 2.12-1.722 3.609m-5.766 19.894c.055.364.172 1.07.234 1.43l3.383.5c-1.676.52-3.344 1.047-4.95 1.758 2.692 1.11 5.724 1.32 8.563.793-1.605-.649-3.289-1.027-4.941-1.512 1.402-.23 2.8-.457 4.203-.707-.016-.637-.023-1.281-.031-1.914-2.156-.101-4.313-.226-6.461-.348m149.973 1.157c-.954 1.535-.528 3.449 1.148 4.32q.543-1.707-.992-2.816l1.48-.188c1.14 1.57 2.227-.273 3.328-.738q.331 1.77-.968 3.273c.527-.18 1.566-.55 2.093-.738.063-1.168-.039-2.34-.117-3.508-1.992.07-3.992.203-5.972.395m-150.747 5.554c.114.594.325 1.793.434 2.391 1.527 1.238 3.652 1.453 5.492.902a26 26 0 0 0 1.465-2.242c-.348-.55-1.023-1.64-1.363-2.191-2.082-.117-4.27-.196-6.028 1.14m150.708-1.296q-.228 1.935-.239 3.898c2.32 0 4.645-.008 6.965-.04-.215-1.394.598-3.276-1.195-4.038-.07.715-.223 2.133-.293 2.84-.336-.024-1.024-.078-1.36-.102-.175-.933-.355-1.867-.558-2.8-.387.855-1.156 2.55-1.543 3.398a14.2 14.2 0 0 0-1.778-3.156m.055 5.14a30 30 0 0 0-.472 3.688c2.28.132 4.585.39 6.867.117.097-.59.293-1.766.394-2.356-.668-.507-1-1.78-1.992-1.687-1.601.105-3.23-.125-4.797.238m-149.539.484c-.355.598-1.047 1.774-1.402 2.372l1.11.03-.25 1.759c.722-.024 2.155-.078 2.87-.102-.738.766-1.597 1.402-2.406 2.102-.246.816-.191 1.687-.285 2.53 2.469 1.056 6.152 1.079 7.191-1.929-.676-1.37-1.855-2.164-3.406-2.203-1.25-.156-.852-1.734-.707-2.504a42 42 0 0 1-3.008.817c.79-2.141 3.086-1.954 4.965-1.883-.172.972-.363 1.945-.55 2.918a163 163 0 0 0 2.046-.989c-.14-.878-.285-1.757-.527-2.609-1.793-.723-3.77-.34-5.64-.308m148.94 5.617c-.062.3-.183.91-.246 1.207 2.227 1.195 4.637 2.035 7.067 2.699a100 100 0 0 0-1.942-2.816c.645-.485 1.926-1.457 2.57-1.946-2.507-.21-5.09-.078-7.448.856m-.45 3.695q-.329 1.424-.449 2.895c1.024 1.515 3.102 1.617 4.762 1.742 1.273.125 2.058-1.176 1.926-2.313.199-1.5-1.614-1.781-2.57-2.347.59 1.152 1.195 2.3 1.831 3.43-1.875-.016-3.691-.473-5.43-1.145.938-.676 1.864-1.352 2.794-2.035q-1.432-.155-2.864-.227m-148.894 2.324c.89.07 2.66.219 3.547.29-.965.605-1.926 1.222-2.871 1.85.652.15 1.976.438 2.628.59a58 58 0 0 0-2.273 2.22c.863-.204 2.605-.606 3.477-.801a38 38 0 0 1 3.636-.125 118 118 0 0 1-.238-2.332c-1.117.023-2.234.047-3.352.082.254-.332.743-1.008.985-1.336 1.77.078 1.816-1.325 1.8-2.653-.714.11-2.14.348-2.847.465-1.629.203-3.203.688-4.492 1.75m5.129 5.137c-1 .418-2.012.793-3.028 1.176a25 25 0 0 0 1.66 4.199c.165-1.168.188-2.348.188-3.531.3-.07.906-.203 1.203-.274.45.848.93 1.688 1.434 2.508l.093-3.418c2.102.5 2.07 2.613 2.196 4.375-.535.09-1.614.254-2.156.34-1.188.676-2.438 1.293-3.407 2.297 1.957.07 3.77-.703 5.586-1.293.793.289 1.598.582 2.406.863-.722-1.883-1.87-3.656-1.996-5.719-.355-.707-.71-1.414-1.078-2.113-1.031.2-2.07.395-3.101.59m142.191-1.027c-.715 1.937 1.691 2.636 2.559 3.898-.828-.219-2.48-.652-3.305-.863l-.168 1.304c2.356.563 4.66 1.48 7.121 1.356-.933-1.254-2.117-2.281-3.281-3.309.976.172 2.937.524 3.91.696-1.289-2.422-4.578-2.157-6.836-3.082m-2.164 5.12c.606.95 1.227 1.876 1.883 2.794-.79.066-2.371.175-3.156.23 2.367 1.52 5.082 2.738 7.93 2.848-.88-.778-1.794-1.492-2.716-2.215 1.286-.352 2.653-.61 3.684-1.52-1.535-.195-3.078-.132-4.617-.07-.828-.918-1.645-1.96-3.008-2.066M50.59 144.03c1.387-.023 2.762-.183 4.14-.37-.89 1.097-2.976 1.921-2.14 3.616 2.445-.777 4.918-1.656 6.957-3.261-1.356-.055-2.692.062-4.031.21 1.062-.988 2.086-2.062 1.867-3.648-2.332.996-4.887 1.703-6.793 3.453m138.988-1.375c-.39.848-.644 1.813-.39 2.746 1.187 1.192 2.87 1.641 4.351 2.371.477-.238 1.438-.699 1.918-.933q.094-1.375.164-2.738c-.566-.11-1.7-.332-2.258-.45.504.942 1 1.883 1.489 2.832-1.66-.234-3.32-.754-4.54-1.953.731-.879 1.528-1.695 2.258-2.574a18.3 18.3 0 0 0-2.992.7m-135.7 5.476c-.085.398-.241 1.191-.327 1.586 2.058-.965 4.16-1.883 6.074-3.117-.078-.282-.238-.832-.316-1.106-1.848.793-3.7 1.617-5.43 2.637m134.16-2c-.488 1.152-1.023 2.289-1.434 3.476 1.891.996 3.864 2.016 4.872 4.008l1.039-1.562c-1.543-1.465-3.461-2.493-4.88-4.102 2.282.383 4.196 1.703 6.255 2.652-.528-2.792-3.762-3.234-5.852-4.472m-133.285 6.933c2.793-.46 5.957-.414 8.316-2.195-2.863.164-5.886.574-8.316 2.195m129.57-.754c-.031.333-.078.993-.11 1.32 1.196 1.587 2.684 2.919 3.895 4.497.29-.07.88-.207 1.172-.277-.21-.649-.629-1.97-.844-2.625.844-.137 2.512-.395 3.344-.52-2.226-1.371-4.812-2.402-7.457-2.394m-126.11 5.593c1.235.637 2.259-.187 3.266-.773.56.949 1.25 1.34 2.079 1.16-.047-.965-.348-1.883-.875-2.762.828.555 1.699.996 2.62 1.332.282.008.84.04 1.126.047-.809-1.074-1.63-2.133-2.446-3.207-2.007 1.285-3.953 2.66-5.77 4.203m122.06.395c1.398 1.05 2.8 2.133 4.05 3.37q.791.323 1.63.474c.722-.98 1.296-2.047 1.917-3.083-.793-.636-1.437-1.539-2.43-1.851-1.164.406-2.164 1.168-3.25 1.71.403-1.32.86-2.628 1.188-3.98-1.102 1.059-2.117 2.207-3.106 3.36m-118.902 3.293c.961.754 1.824 2.785 3.352 1.937 1.847-.933 3.422-2.328 4.68-3.96-2.833-.368-4.028 3.288-6.923 2.855 1.157-1.574 2.739-2.738 4.153-4.047l.07-1.098-.668.227c-1.785 1.035-3.191 2.652-4.664 4.086m117.895-2.078c-.653.886-1.309 1.765-1.961 2.652 1.804 1.387 3.047 3.27 4.203 5.187.433.25 1.312.743 1.746.989l-.848-2.239c1.067-1.167 2.375-2.007 4.02-2.085-2.156-1.317-4.422-2.48-6.16-4.348zm-109.887 1.39c-1.629 1.559-3.313 3.059-4.902 4.66.859.72 1.668 1.528 2.62 2.141 2.352-.031 4.337-2.293 4.43-4.574-.722-.746-1.43-1.492-2.148-2.227m106.504 1.41c.234 1.012.707 3.043.941 4.063-.738-.383-2.21-1.152-2.941-1.527.086.398.262 1.199.347 1.601 1.676 1.098 4.461 1.332 4.176 3.977.457-.543.922-1.082 1.387-1.625-1.164-2.243-2.055-4.7-3.91-6.489m-107.399 7c.606.774 1.29 1.489 1.95 2.22.703-.032 1.402-.056 2.109-.079q.463-1.106.937-2.195c.668-.575 1.825-.88 1.793-1.926-.52-1.004-1.32-1.824-1.992-2.711-1.855 1.27-3.453 2.895-4.797 4.691m102.063-1.226c-.18 1.492-.363 2.988-.332 4.504.535.312 1.597.957 2.133 1.27a61 61 0 0 0 3.117-.829c.37-.95.66-1.914 1.023-2.855-.222-.504-.675-1.508-.906-2.012-1.621-.734-3.36-.39-5.035-.078m-98.95 5.125q1.76-.045 3.52-.102.024 1.542.117 3.082c1.653-2.14 3.493-4.691 3.09-7.539-2.578.95-4.68 2.793-6.726 4.559m4.8 3.433c1.352.84 2.739 1.625 4.22 2.215-.544-.66-1.63-1.968-2.173-2.629 1.172-1.609 2.344-3.23 3.258-5.011-2.754.437-3.55 3.664-5.305 5.425m89.594-5.52c.266 2.872 1.266 5.61 2.446 8.227.425-2.894-.918-5.82-2.446-8.226m-83.676 4.691c.329 1.145 1.04 2.133 1.606 3.184-.356.226-1.063.684-1.418.918-.172-1.192-.746-2.11-1.738-2.754-.59 2.379 1.32 3.945 3.523 3.71.262-.487.781-1.452 1.04-1.937-.364-1.27-1.864-2.574-.864-3.93a42 42 0 0 0 2.406 2.677c-.148-.622-.457-1.86-.613-2.481-.86-1.672-3.528-1.184-3.942.613m78.758-1.14c.024 1.097.078 3.312.102 4.418a422 422 0 0 0-1.406-2.368c-.434.086-1.301.266-1.735.352.387.469 1.168 1.402 1.559 1.875.867 1.457 1.746 2.902 2.73 4.29.574-1.661.27-3.38.086-5.067.649.933 1.285 1.875 1.938 2.824l1.273-.543c-1.476-1.945-2.234-4.617-4.547-5.781m-76.43 8.222c.977-.785 1.88-1.648 2.817-2.48.047 1.039.078 2.074.102 3.11.277 0 .82-.009 1.085-.016a46 46 0 0 1 .18-3.125c.82-1.036 2.45-1.575 2.332-3.137-.656.39-1.953 1.184-2.605 1.578l-.157-3.39c-1.535 2.331-3.117 4.699-3.753 7.46m72.21-5.687c.008 1.37.543 2.8-.109 4.133-.387-.625-1.156-1.875-1.543-2.5-1.73.632-3.453 1.27-5.207 1.836.102.46.3 1.386.402 1.843l.715-1.312c.875 1.781 1.63 3.625 2.328 5.484 1.707-.195.93-1.363.852-2.219-.55-1.02-1.164-2.03-1.48-3.164l1.417-1.714c.801 1.812 1.57 3.644 2.61 5.34.254 0 .765.007 1.015.007-.218-.957-.66-2.887-.886-3.844 1.304.903 2.398 2.055 3.664 3.012-.676-2.515-1.621-5.262-3.778-6.902m-64.453 1.074c-.867 2.356-3.14 4.621-2.148 7.29 1.086-2.04 2.219-4.071 3.086-6.224-.238-.265-.703-.8-.938-1.066m3.43 2.793c-.234.754-.328 1.54-.45 2.324.427.469 1.278 1.426 1.7 1.899l-.125.863-.894.102c-.254-.395-.758-1.165-1.008-1.547-.356.047-1.055.148-1.41.195.464 2.535 3.078 2.73 5.027 1.922.324-2.18-2.172-3.395-1.73-5.563.581.614 1.746 1.836 2.328 2.45.093-.504.285-1.508.378-2.008-1.125-.715-2.566-1.719-3.816-.637m52.73-.062c-1.562 1.222-3.421 1.89-5.347 2.277.195 1.254.39 2.508.613 3.766-.402-.278-1.21-.825-1.613-1.11-.27-.719-.528-1.433-.797-2.156-.492.07-1.5.195-2.004.266.496 2.074.809 4.23 1.676 6.199.195.117.582.36.777.476.016-.765.04-2.297.055-3.066l.402.164a10.3 10.3 0 0 0 1.89 2.394q.189-1.624.352-3.242c.512.707 1.528 2.121 2.04 2.825-.141-1.801-.551-3.575-1.25-5.247q.444-.791.949-1.546c.101 2.046.875 3.945 1.882 5.71 1.172-.468 2.352-.91 3.516-1.378a51 51 0 0 1-3.918-1.247c.953-.644 1.926-1.257 2.88-1.91-.911-.086-2.731-.265-3.642-.36.73-.46 2.196-1.386 2.918-1.85-.449-.337-.914-.66-1.379-.965m-50.34 7.039c1.055-.07 2.11-.301 3.173-.215.558.707 1.125 1.406 1.699 2.113a60 60 0 0 0 .215-7.816c-2.77.668-3.368 3.972-5.086 5.918m6.879 2.336c2.398-.149 2.476-3.333 3.53-5.004.134-.008.403-.016.544-.024.23 1.82-.473 3.64-.48 5.477 1.171.21 2.394.687 3.59.383-.009-.165-.016-.504-.024-.668-.457-.164-1.371-.5-1.828-.664-.016-.348-.063-1.032-.079-1.368.657.032 1.97.102 2.63.133-.946-.894-1.88-1.797-2.731-2.785.773-.062 2.305-.18 3.078-.242l-.023-.274c-1.598-1.027-3.645-.847-5.454-1.234-.52 1.313-1.07 2.605-1.628 3.902-.204-1.836-.157-3.703-.645-5.492-1.922 2.281-.781 5.254-.48 7.86m30.132-5.336c-1.156 1.859-.086 4.129.48 6.004a74 74 0 0 0 3.235-.047c1.11-2.032.317-4.207-.3-6.239-1.149-.093-2.446-.62-3.415.282m-20.945.27c-.102.163-.297.5-.398.671l2.004.598c-.77 1.601-2.485 2.847-2.555 4.707l.156.48c1.434.117 2.91.203 4.281-.332l-2.824-.965c1.125-1.586 2.227-3.191 3.215-4.863-1.281-.055-2.617-.816-3.879-.297m11.145 1.176c-.016 1.441-.121 2.894.132 4.332.59.82 1.36 2.055 2.579 1.644 1.355.165 1.835-1.574 1.867-2.609-.024-1.36.218-3.031-.985-3.988-1.109-1.106-2.515.18-3.593.62m5.363-1.26c-.047 2.202.094 4.405.293 6.597.418 0 1.242-.016 1.652-.024-.199-1.671-.433-3.336-.812-4.976.953-.485 1.906-.973 2.867-1.45a68 68 0 0 0-4-.148m-9.629 8.133c.355-1.402.668-2.816.945-4.227 1.84.188.98 2.196 1.367 3.332l1.157.032c-.008-2.555.222-5.145-.258-7.68a45 45 0 0 0-1.356 3.484c-.242-.117-.73-.336-.976-.449-.234-.789-.7-2.375-.934-3.168-.734 2.801-.968 5.914.055 8.676m0 0" style="stroke:none;fill-rule:nonzero;fill:#dd002c;fill-opacity:1"></path><path d="M129.766 37.125c2.332.531.953 3.184 1.093 4.824-.39.016-1.187.04-1.578.047.031-1.633.04-3.289.485-4.871M117.281 38.953h.63l.292.602-.308.613h-.614l-.308-.613ZM124.41 39.973l.567-.317.566.34c0 .375-.008 1.137-.008 1.52l-.55.324-.56-.34c0-.383-.007-1.145-.015-1.527M101.348 46.02c-2.258-.762-2.785-3.286-2.598-5.391 2.156.95 2.45 3.351 2.598 5.39M145.691 43.422c-1.941-.281.621-2.887.852-.879-.215.223-.637.66-.852.879M80.535 50.984c.13-1.527 2.363-.132 1.3.809l-.542.164zM167.676 51.738l.629-.312.629.25.254.676-.262.683-.63.297-.636-.25-.254-.652ZM110.05 55.45c6.555-3.372 14.243-2.91 21.368-2.235 2.008.7 4.133 1.129 6.02 2.148 1.96 1.524 2.808 3.969 3.84 6.137.706 1.777 1.761 3.527 1.683 5.512-1.957.886-4.082 1.32-6.145 1.89-3.949 1.36-8.007 2.465-11.761 4.317-.59.008-1.762.031-2.352.039-3.762-1.844-7.812-2.95-11.766-4.297-1.98-.606-3.98-1.195-6.05-1.461-.07-1.523.02-3.09.758-4.473 1.25-2.62 2.171-5.593 4.406-7.578M179.563 68.938c-.204-2.38 2.03-3.61 3.933-4.239l.309 1.176c-1.14 1.352-2.7 2.246-4.243 3.063M65.21 66.246c.29.047.88.133 1.173.18 0 .281.008.855.008 1.136l-.559.133c-.21-.234-.621-.715-.836-.949ZM186.008 69.195q1.641.657-.024 1.465-1.64-.667.024-1.465M183.54 70.715c2.065-.57.776 2.883-.552 1.406l-.144-.527c.176-.219.52-.656.695-.88M84.645 73.078c1.39.484 2.808.98 4.074 1.766.55 1.199.773 2.527 1.203 3.773 2.488-.133 4.016 2.188 6.437 2.266.293-.91.575-1.82.86-2.73 1.258-1.16 2.43-2.555 4.113-3.098 2.629.855 5.36 1.507 8.137 1.414.078-.598.219-1.79.297-2.387l1.156.031c1.285 2.48 4.504 3.121 7.074 3.13 1.234-.024 2.188.902 3.203 1.46 2.77 1.168 5.727 1.215 8.68.988 1.422 1.106 2.95 2.29 4.836 2.38 1.078-.637 1.992-1.516 3.031-2.208 1.031.266 1.996.848 3.098.817 1.199.25 1.906-1.02 3.015-1.145 1.133.04 2.258.149 3.399.219a371 371 0 0 1 1.441 2.234c.496-.023.996-.047 1.5-.062.93-1.137 1.992-2.156 3.39-.828.2.007.587.007.774.015.567 1.246 1.39 2.328 2.614 3.012-.082.57-.23 1.71-.309 2.273.465.543.937 1.09 1.41 1.633 1.777.063 3.555.305 5.34.29 1.676-.54 3.11-1.938 4.973-1.774 1.242.215 2.433.66 3.652.973-.512 2.02-.707 4.082-.961 6.144-1.8 2.375-3.746 4.652-5.305 7.211.106 1.984-.5 4.281 1.078 5.867 1.27.63 2.692.824 4.047 1.2.172 1.43.645 2.769 1.282 4.054.668-.016 2.015-.039 2.683-.055.078.473.242 1.414.328 1.883 1 .223 2.008.442 3.016.668-.762.988-1.512 2.008-2.445 2.848-1.371.242-2.754-.008-4.118-.164-1.078-.723-2.351-.848-3.609-.739 1.211 1.446 2.973 2.489 3.711 4.286.676 1.527 1.898 2.746 2.59 4.257.156 1.415.055 2.84.008 4.262-1.59 0-3.172-.07-4.746-.148-.32.84-.645 1.683-.95 2.531-2.496-.46-5.312.707-7.422-1.121-.054.762-.156 2.285-.21 3.05.417.075 1.242.216 1.66.286.304 2.086 2.36 2.972 3.754 4.258-1.782.316-3.04 1.586-4.258 2.793-1.125-1.606-1.653-4.723-4.258-3.961-.824.707-1.461 1.593-2.125 2.441-.508.008-1.54.031-2.05.047-.016 1.05-.024 2.102-.04 3.16-.875 1.344-.812 2.926-.805 4.457-1.613.461-3.203 1.028-4.68 1.836-.054 2.492.243 5.02-.527 7.445.707 1.09 1.637 2.032 2.313 3.145-.59 1.336-1.465 2.504-2.211 3.75a85 85 0 0 0-.645 3.21c-3.078-1.257-4.515-4.69-7.39-6.316-1.723-1.75-3.406-3.57-4.57-5.742-1.336-.66-2.196-1.86-3.122-2.968-2.496-.82-5.18-.446-7.757-.516a24 24 0 0 1-.79-1.875 97 97 0 0 0 3.833-.543c-.637-1.613-1.141-3.441-2.668-4.469-3.274-2.457-6.735-5.031-8.52-8.82-.047-1.488-.008-2.98-.187-4.457-.536-.852-1.247-1.582-1.868-2.36q-2.085.036-4.16.024c-2.332-2.078-4.078-4.691-6.367-6.809-.14-.441-.426-1.32-.566-1.75-.77-.66-1.543-1.304-2.305-1.96-2.117-3.024-5.344-4.88-8.457-6.692-1.774-3.91-3.559-8.223-2.899-12.594-1.148-.793-2.257-1.648-3.46-2.367-1.157-.168-2.336-.039-3.5-.086-.426-1.797-.707-3.61-1.055-5.414-.567-1.336-1.559-2.426-2.258-3.68a22.3 22.3 0 0 0 1.55-5.359c1.321-2.008 2.555-4.203 2.493-6.684q.754-.953 1.52-1.906M55.398 78.36c1.93.476 3.66 1.48 5.075 2.878-1.785.492-3.383-.316-4.934-1.066-.039-.457-.11-1.36-.14-1.813m0 0" style="stroke:none;fill-rule:nonzero;fill:#dd002c;fill-opacity:1"></path><path d="M162.664 81.379c2.094-.535 4.29-.227 6.41-.047 2.04.336 4.219.383 6.067 1.41 2.808 2.348 4.445 5.672 6.074 8.867 2.055 5.278 3.55 10.989 2.914 16.696-.106 1.875-1.691 3.074-2.832 4.382-2.645-.894-5.055-2.32-7.672-3.269a41 41 0 0 0-1.434-3.93c-1.312-.082-2.636-.113-3.933-.285-.172-1.293-.317-2.683.078-3.945 1.273-2.582 3.621-4.45 4.957-6.973.527-3.023.785-6.09.875-9.148-3.195-.653-6.422-1.082-9.688-.715l-1.73 1.152c-.102-1.394-.164-2.8-.086-4.195M72.246 82.844c1.863-1.082 4.098-1.114 6.168-1.48-.016 2.093-1.512 3.687-1.945 5.64.668 1.52 1.808 2.77 2.597 4.219.418 2.136.77 4.285 1.504 6.34 1.39.542 2.793 1.09 4.293 1.23-.054 1.523.23 3.273-1.031 4.418-3.805 4.605-7.418 9.383-10.543 14.484-2.437-.3-3.973-2.37-5.719-3.847-1.414-1.45-3.148-2.77-3.965-4.653-.89-6.21.676-12.488 3.09-18.191 1.535-2.902 3.063-5.922 5.551-8.16M53.203 83.645c1.102-.305 1.465.093 1.086 1.218-1.078.313-1.441-.097-1.086-1.218M191.703 84.656c.23-.21.688-.633.914-.84l.535.2-.062 1.113c-.3.008-.899.031-1.195.039ZM55.7 84.61l.652-.258.66.289.293.668-.246.644-.653.234-.676-.28-.292-.653ZM45.746 113.863c1.086-2.273 3.688-1.3 5.61-1.191-.844 2.45-3.723 1.137-5.61 1.191M196.52 117.727c.66-.91 1.265-.895 1.824.054-.235.172-.7.5-.934.664-.222-.18-.664-.539-.89-.718M199.934 117.074c1.062-.441 1.824 1.364.636 1.672-1.07.422-1.84-1.367-.636-1.672M46.887 124.34c.015-2.457 3.168-1.344 4.75-1.774-.04.407-.125 1.223-.164 1.63-1.52.167-3.063.386-4.586.144M80.246 140.922c1.84.558 3.652 1.234 5.461 1.89.816.301 1.629.614 2.43.934.41.102 1.218.293 1.629.395 2.777 1.097 5.73 1.648 8.578 2.515 1.57.371 2.508 1.766 3.304 3.047 2.172 3.52 4.61 6.879 7.125 10.168.954 1.3 2.211 2.406 2.86 3.914-2.723 2.469-6.067 4.156-9.41 5.64-1.59.794-3.344.048-4.926-.355-5.516-1.789-10.434-5.129-14.55-9.16-1.802-1.883-3.571-3.91-4.595-6.332-.218-2.316.118-4.637.34-6.937.621-1.899 1.14-3.82 1.754-5.72M162.602 144.234c1.171-1.547 2.617-2.863 4.484-3.5 1.062 2.164 1.527 4.543 2.242 6.825.219 2.082.297 4.168.281 6.254-4.925 7.812-12.886 13.878-21.957 15.972 1.754-2.816 2.258-6.246 4.391-8.832v-3.281a323 323 0 0 1-1.977-2.078c.536-1.75 1.016-3.594.348-5.375 1.66-.633 3.414-.926 5.176-1.114-.024-1.363-.164-2.714-.34-4.062 2.102-.645 4.18-1.375 6.266-2.09.265.317.816.961 1.086 1.281M187.977 154.473c-.176 2.101-2.63-.52-.774-.918.2.226.574.691.774.918M184.457 158.746c.371.031 1.094.11 1.457.14.031.372.086 1.11.117 1.477a79 79 0 0 1-1.383-.14c-.05-.368-.144-1.106-.191-1.477M136.918 164.633c-1.484-.785-.266-2.473.758-3.055 2.625 1.227 4.308 3.711 6.215 5.793 1.039.805 2.07 1.606 3.058 2.477-3.617-1.114-7.023-2.934-10.031-5.215M178.438 161.195c2.117-.062 3.406 1.79 4.933 2.918-2.328 1.61-3.453-1.781-4.934-2.918M65.879 165.98c1.387-1.316 2.824-2.566 4.383-3.671-.133 1.113-.133 2.425-1.172 3.136-.766 1.032-2.172.45-3.211.535M72.34 166.703l.707-.273.66.218.238.625-.308.637-.692.266-.675-.235-.254-.613ZM70.48 168.773c.637-1.05 2.227.055 1.403.997-.637 1.003-2.29-.055-1.403-.997M173.332 168.914c.914-.437 2.094.996 1.41 1.79-.93.487-2.015-1.013-1.41-1.79M171.336 171.008c.312-1.301 1.941.008 1.926.847-.309 1.235-2.04.04-1.926-.847M75.676 171.332l.668-.047.34.516-.34.582-.668.047-.34-.528ZM101.535 184.746l.543-.023.363.48c-.101.297-.304.883-.41 1.184l-.55.023-.36-.472c.102-.297.313-.895.414-1.192M136.707 190.559c-.402-1.946-.629-3.961-.047-5.891.84 1.57 2.98 5.074.047 5.89M127.11 186.348c2.156.699 1.53 3.011 1.636 4.761-.426-.007-1.277-.007-1.7-.015-.058-1.586-.058-3.172.063-4.746M174 231.48c1.668-.925 3.848-.464 5.219.817a12 12 0 0 1-.696 3.758c-1.226 2.054-4.757 1.882-5.906-.18-.629-1.531-.078-3.54 1.383-4.395M196.402 237.262c-1.527-1.992-.3-5.137 1.965-5.969 1.559-.777 3.172.164 4.606.762-.356 1.73-.621 3.496-1.254 5.168-.63.879-1.832 1.074-2.703 1.632-.875-.52-1.946-.792-2.614-1.593M57.477 265.496c-.907-.578-.922-2.289.007-2.848 1.73-.312 1.668 3.09-.007 2.848M65.242 262.633c.387-.016 1.156-.04 1.543-.047.211 2.644.305 5.344-.144 7.973-.352-.13-1.063-.38-1.414-.512a53 53 0 0 1 .015-7.414M128.39 262.883c1.637-.887 2.008 2.62.497 2.87-1.164-.312-1.133-2.093-.496-2.87M160.074 270.328c-.015-2.8-.258-5.64.34-8.402.305.34.918 1.004 1.227 1.344.257 2.32.086 4.675.062 7.011-.41.016-1.219.031-1.629.047M56.918 266.965c.473.062 1.422.18 1.902.242.16 1.54-.023 3.004-1.644 3.61a58 58 0 0 1-.258-3.852m0 0" style="stroke:none;fill-rule:nonzero;fill:#dd002c;fill-opacity:1"></path><path d="M104.621 29.57c11.629-2.558 23.73-2.816 35.438-.62 1.312.304 2.644.59 3.925 1.019l2.36.468c1.031.34 2.078.63 3.125.903 23.453 7.203 43.398 24.762 53.426 47.098 1.683 3.519 2.84 7.253 4.113 10.933.25 1.067.52 2.137.847 3.195.176.778.348 1.551.536 2.336 3.047 12.586 3.047 25.907-.008 38.489-.18.777-.352 1.562-.528 2.347a45 45 0 0 0-.855 3.192c-1.258 3.68-2.437 7.398-4.098 10.922-8.422 18.53-23.496 34.015-42.023 42.59-3.613 1.953-7.563 3.117-11.41 4.511a49 49 0 0 0-3.125.902q-1.176.234-2.36.473c-1.28.43-2.613.703-3.925 1.02-11.707 2.195-23.817 1.937-35.438-.63-2.094-.66-4.219-1.206-6.348-1.702-3.96-1.465-8.027-2.684-11.757-4.684-6.293-2.848-12.028-6.738-17.496-10.918a112 112 0 0 1-12.543-12.531c-4.196-5.453-8.114-11.164-10.954-17.446-2.484-4.699-3.972-9.824-5.593-14.851-.149-.8-.297-1.586-.457-2.379-3.375-13.062-3.383-27.059 0-40.121.16-.79.308-1.582.457-2.375 1.605-5.04 3.117-10.152 5.586-14.852 5.406-11.617 13.699-21.754 23.504-29.976 5.468-4.18 11.203-8.074 17.496-10.93 3.738-1.992 7.796-3.207 11.757-4.676a81 81 0 0 0 6.348-1.707m-40.23 26.004c-13.942 13.95-22.66 33.055-23.856 52.723-.691 11.945.719 24.098 5.13 35.277 6.847 18.5 20.687 34.168 37.925 43.738 4.77 2.536 9.765 4.59 14.847 6.403 18.41 5.578 38.774 5.058 56.649-2.207 18.508-7.399 34-21.692 43.125-39.336 1.738-3.594 3.32-7.262 4.625-11.035 5.965-17.332 5.98-36.649 0-53.985a100 100 0 0 0-4.625-11.03c-9.125-17.653-24.625-31.923-43.125-39.337-10.234-4.125-21.297-6.18-32.336-5.914-21.734-.062-43.21 9.227-58.36 24.703m0 0" style="stroke:none;fill-rule:nonzero;fill:#fff;fill-opacity:1" data-source="https://football-logos.cc"></path><path d="M116.203 36.582c.652-.062 1.313-.117 1.973-.172.765 2.29 1.629 4.559 2.148 6.918-.8-.555-1.57-1.176-2.375-1.734-.363.308-1.07.902-1.426 1.203-1.074.21-2.12.555-3.199.758-.402-.903-.804-1.793-1.195-2.696-.168.047-.488.141-.656.188 0 .863-.008 2.582-.016 3.433-2.059-1.953-1.77-4.91-1.644-7.492 1.789.473 2.378 2.387 3.382 3.696-.187-1.473-.36-2.95-.39-4.43 1.613 1.223 2.011 3.496 1.039 5.254l2.14-.024c-.058-1.636.094-3.27.22-4.902m1.077 2.371-.308.602.308.613h.614l.308-.613-.293-.602ZM123.04 36.27c1.202.023 2.401.054 3.605.085l-.094.98c-.559-.007-1.676-.03-2.235-.038l.149 1.012c.87.43 2.02.507 2.62 1.363.228.933.048 1.898-.347 2.762-1.18.394-2.437.386-3.668.496-.047-2.223-.03-4.442-.03-6.66m1.37 3.703c.008.382.016 1.144.016 1.527l.558.34.551-.324c0-.383.008-1.145.008-1.52l-.566-.34ZM128.809 36.363c1.086.086 2.203.063 3.25.39.476 1.267.59 2.622.87 3.93a33 33 0 0 1 1.356-3.535c1.07-.109 2.137.032 3.207.11q-.105 1.365-.281 2.73c-.488-.62-1.473-1.86-1.961-2.472-.605 1.836-.863 3.757-.879 5.687.871-.785 1.746-1.57 2.61-2.351l.44 2.054c-1.155.492-2.562 1.27-3.718.305-.168-.582-.48-1.742-.64-2.313l-.692.446c-.621 1.508-2.125 2.218-3.617 1.445-1.45-1.898-.535-4.379.055-6.426m.957.762c-.446 1.582-.453 3.238-.485 4.871.39-.008 1.188-.031 1.578-.047-.14-1.64 1.239-4.293-1.093-4.824M107.352 37.117c1.8 1.93 1.699 4.84 2.406 7.254-.375-.172-1.133-.508-1.5-.68-.594-2.136-1.04-4.347-.906-6.574M138.305 44.984c-.75-2.714.07-5.664 1.582-7.98.195 1.39.406 2.777.644 4.16.754-1.168 1.399-2.45 2.492-3.36-.015 2.606-.949 5.071-1.343 7.618-1.164-1.012-1.465-2.328-.914-3.945-1.676.34-1.7 2.308-2.461 3.507M105.016 37.938c.32.277.964.808 1.289 1.078.172 1.976.11 3.968.164 5.953l-1.871.156c-.891-2.25-2.98-4.266-2.496-6.848 1.117 1.442 1.992 3.051 2.851 4.66.016-1.664.031-3.335.063-5M145.676 39.313c.426.062 1.273.195 1.707.265-.024 2.11-.055 4.223-.047 6.332l-1.258.25c-.293-.555-.883-1.672-1.172-2.226-.59.492-1.77 1.48-2.37 1.976.066-2.574 1.984-4.457 3.14-6.597m.015 4.109c.215-.219.637-.656.852-.879-.23-2.008-2.793.598-.852.879M97.816 40.293a90 90 0 0 1 3.25-.086c.739 1.969 2.485 4.504.508 6.293-.832.195-1.683.227-2.523.305-1.086-1.977-2.211-4.254-1.235-6.512m3.532 5.727c-.149-2.04-.442-4.442-2.598-5.391-.187 2.105.34 4.629 2.598 5.39M92.457 43.117c.898-1.562 3.54-1.812 4.156.172-.718.008-2.148.023-2.867.04.063 1.843 1.149 3.35 2.348 4.675.133-.508.406-1.52.543-2.024-.535-.109-1.606-.335-2.14-.445l2.343-1.398c.55 1.043 1.023 2.125 1.496 3.21-1.285.61-2.574 1.262-4.04 1.2-.753-1.742-2.026-3.438-1.839-5.43M149.555 48.09c.59-2.715 1.527-5.453 3.375-7.578.078 1.562-.582 2.988-1.024 4.441 1.239-.996 2.465-2.016 3.793-2.887-.078 2.211-.91 4.297-1.988 6.204-.34.167-1.024.503-1.363.675.254-.988.75-2.949 1-3.93-1.07 1.255-2.102 2.653-3.793 3.075m0 0" style="stroke:none;fill-rule:nonzero;fill:#fff;fill-opacity:1"></path><path d="M87.54 45.031a52 52 0 0 1 3.917-1.789c-.691 1.176-1.848 2.196-1.668 3.711l2.613-1.473c-.566 1.223-1.242 2.391-1.722 3.653 1.297-.18 2.586-.36 3.886-.555-1.187.856-2.425 1.633-3.668 2.39-1.304-1.874-2.289-3.929-3.359-5.937M158.738 45.086c.375-.078 1.125-.25 1.5-.328.028.586.059 1.758.075 2.344.605-.438 1.808-1.325 2.414-1.766.109 1.727-1.473 2.457-2.48 3.484-.071 1.407-.157 2.809-.321 4.207a17 17 0 0 1-1.535-3.226c-.825.754-1.832.777-2.84.511a97 97 0 0 1 3.11-2.199c.023-1.011.046-2.015.077-3.027M83.77 49.457c-.32-1.703.726-2.918 2.015-3.867.73.672 1.457 1.363 2.156 2.078l-3.351-.094a24.3 24.3 0 0 0 2.785 4.438c.297-1.246.395-2.719 2.04-2.735-.067.965-.153 1.93-.247 2.895-1.031.086-2.07.273-3.11.14-.831-.902-1.523-1.906-2.288-2.855M163.566 47.535l1.184-.187c.871.773 1.754 1.535 2.617 2.32l-3.687-.66c.48.957 1.117 1.82 1.707 2.715-.953-.172-1.899-.344-2.84-.508a73 73 0 0 0-.047 1.308l.871.7c.031.195.102.578.133.77-1.188.46-2.05-.723-3.035-1.165 1.015-1.781 2.078-3.52 3.097-5.293M78.79 50.406c1.077-.957 2.425-1.523 3.87-1.562.153.511.457 1.531.613 2.039 1.141 1.035 2.157 2.207 2.86 3.586-1.543-.547-2.86-1.524-4.235-2.36.45 1.496 1.399 2.942.97 4.578-1.497-2-3.095-3.976-4.079-6.28m1.746.577c.192.246.57.73.758.973l.543-.164c1.062-.941-1.172-2.336-1.3-.809M103.77 51.55c13.257-4.077 27.808-4.116 40.968.36.774.285 1.535.574 2.309.863 2.941 1.067 5.766 2.426 8.543 3.86 19.719 10.828 33.289 32.215 33.84 54.746.984 18.074-6.192 36.34-19.063 49.078-4.328 4.457-9.402 8.106-14.777 11.203-2.996 1.586-6.113 2.942-9.254 4.215-.39.11-1.172.328-1.555.438-12.566 4.363-26.562 4.628-39.3.832-.418-.086-1.27-.258-1.684-.344a51 51 0 0 0-2.371-.973c-3.723-1.328-7.356-2.945-10.739-4.984-9.718-5.664-17.925-13.871-23.628-23.543-2.04-3.387-3.664-7.004-5.004-10.715a65 65 0 0 0-.961-2.395c-.094-.414-.274-1.246-.367-1.664-3.567-11.89-3.567-24.867 0-36.761.093-.414.273-1.246.367-1.664.332-.79.656-1.582.96-2.391 1.34-3.703 2.966-7.32 5.005-10.711a66.43 66.43 0 0 1 23.62-23.55c3.391-2.032 7.016-3.641 10.731-4.99.797-.288 1.582-.597 2.36-.91m6.28 3.9c-2.234 1.984-3.155 4.956-4.405 7.577-.739 1.383-.829 2.95-.758 4.473 2.07.266 4.07.855 6.05 1.46 3.954 1.349 8.004 2.454 11.766 4.298.59-.008 1.762-.031 2.352-.04 3.754-1.85 7.812-2.956 11.761-4.316 2.063-.57 4.188-1.004 6.145-1.89.078-1.985-.977-3.735-1.684-5.512-1.03-2.168-1.879-4.613-3.84-6.137-1.886-1.02-4.011-1.449-6.019-2.148-7.125-.676-14.813-1.137-21.367 2.234M84.645 73.08q-.766.953-1.52 1.905c.063 2.48-1.172 4.676-2.492 6.684a22.3 22.3 0 0 1-1.551 5.36c.7 1.253 1.691 2.343 2.258 3.679.347 1.805.629 3.617 1.055 5.414 1.164.047 2.343-.082 3.5.086 1.203.719 2.312 1.574 3.46 2.367-.66 4.371 1.125 8.684 2.899 12.594 3.113 1.812 6.34 3.668 8.457 6.691.762.657 1.535 1.301 2.305 1.961.14.43.425 1.309.566 1.75 2.29 2.118 4.035 4.73 6.367 6.809q2.075.012 4.16-.024c.621.778 1.332 1.508 1.868 2.36.18 1.476.14 2.969.187 4.457 1.785 3.789 5.246 6.363 8.52 8.82 1.527 1.028 2.03 2.856 2.668 4.469q-1.91.31-3.832.543c.238.637.496 1.254.789 1.875 2.578.07 5.261-.305 7.757.516.926 1.109 1.786 2.308 3.121 2.968 1.165 2.172 2.848 3.992 4.57 5.742 2.876 1.625 4.313 5.06 7.391 6.317.196-1.078.41-2.152.645-3.211.746-1.246 1.621-2.414 2.21-3.75-.675-1.113-1.605-2.055-2.312-3.145.77-2.425.473-4.953.528-7.445 1.476-.809 3.066-1.375 4.68-1.836-.008-1.531-.07-3.113.804-4.457.016-1.058.024-2.11.04-3.16.51-.016 1.542-.04 2.05-.047.664-.848 1.3-1.734 2.125-2.441 2.605-.762 3.133 2.355 4.258 3.96 1.219-1.206 2.476-2.476 4.258-2.792-1.395-1.286-3.45-2.172-3.754-4.258-.418-.07-1.243-.211-1.66-.285.054-.766.156-2.29.21-3.051 2.11 1.828 4.926.66 7.422 1.121.305-.848.63-1.691.95-2.531 1.574.078 3.156.148 4.746.148.047-1.422.148-2.847-.008-4.262-.692-1.511-1.914-2.73-2.59-4.257-.738-1.797-2.5-2.84-3.71-4.285 1.257-.11 2.53.015 3.608.738 1.364.156 2.747.406 4.118.164.933-.84 1.683-1.86 2.445-2.848-1.008-.226-2.016-.445-3.016-.668-.086-.469-.25-1.41-.328-1.883-.668.016-2.015.04-2.683.055-.637-1.285-1.11-2.625-1.282-4.055-1.355-.375-2.777-.57-4.047-1.199-1.578-1.586-.972-3.883-1.078-5.867 1.559-2.559 3.504-4.836 5.305-7.21.254-2.063.45-4.126.961-6.145-1.219-.313-2.41-.758-3.652-.973-1.864-.164-3.297 1.234-4.973 1.773-1.785.016-3.563-.226-5.34-.289q-.711-.817-1.41-1.633c.078-.562.227-1.703.309-2.273-1.223-.684-2.047-1.766-2.614-3.012-.187-.008-.574-.008-.773-.015-1.399-1.328-2.461-.309-3.39.828-.505.015-1.005.039-1.5.062a371 371 0 0 0-1.442-2.234c-1.14-.07-2.266-.18-3.399-.219-1.109.125-1.816 1.395-3.015 1.145-1.102.03-2.067-.551-3.098-.817-1.039.692-1.953 1.57-3.031 2.207-1.887-.09-3.414-1.273-4.836-2.379-2.953.227-5.91.18-8.68-.988-1.015-.558-1.969-1.484-3.203-1.46-2.57-.009-5.789-.65-7.074-3.13l-1.156-.031c-.079.598-.22 1.79-.297 2.387-2.778.094-5.508-.559-8.137-1.414-1.684.543-2.855 1.937-4.113 3.097-.285.91-.567 1.82-.86 2.73-2.421-.077-3.949-2.398-6.437-2.265-.43-1.246-.652-2.574-1.203-3.773-1.266-.785-2.684-1.281-4.074-1.766m78.02 8.3c-.08 1.395-.017 2.802.085 4.196l1.73-1.152c3.266-.367 6.493.062 9.688.715-.09 3.058-.348 6.125-.875 9.148-1.336 2.524-3.684 4.39-4.957 6.973-.395 1.262-.25 2.652-.078 3.945 1.297.172 2.62.203 3.933.285a41 41 0 0 1 1.434 3.93c2.617.95 5.027 2.375 7.672 3.27 1.14-1.31 2.726-2.508 2.832-4.383.637-5.707-.86-11.418-2.914-16.696-1.63-3.195-3.266-6.52-6.074-8.867-1.848-1.027-4.028-1.074-6.067-1.41-2.12-.18-4.316-.488-6.41.047m-90.418 1.465c-2.488 2.238-4.016 5.258-5.55 8.16-2.415 5.703-3.981 11.98-3.09 18.191.816 1.883 2.55 3.203 3.964 4.653 1.746 1.476 3.282 3.547 5.72 3.847 3.124-5.101 6.737-9.879 10.542-14.484 1.262-1.145.977-2.895 1.031-4.418-1.5-.14-2.902-.688-4.293-1.23-.734-2.055-1.086-4.204-1.504-6.34-.789-1.45-1.93-2.7-2.597-4.22.433-1.952 1.93-3.546 1.945-5.64-2.07.367-4.305.399-6.168 1.48m8 58.079c-.613 1.898-1.133 3.82-1.754 5.719-.222 2.3-.558 4.62-.34 6.937 1.024 2.422 2.793 4.45 4.594 6.332 4.117 4.031 9.035 7.371 14.55 9.16 1.583.403 3.337 1.149 4.927.356 3.343-1.485 6.687-3.172 9.41-5.64-.649-1.509-1.906-2.614-2.86-3.915-2.515-3.289-4.953-6.648-7.125-10.168-.796-1.281-1.734-2.676-3.304-3.047-2.848-.867-5.801-1.418-8.578-2.515-.41-.102-1.22-.293-1.63-.395-.8-.32-1.613-.633-2.429-.934-1.809-.656-3.621-1.332-5.46-1.89m82.355 3.312c-.27-.32-.82-.964-1.086-1.28-2.086.714-4.164 1.444-6.266 2.089.176 1.348.316 2.7.34 4.062-1.762.188-3.516.48-5.176 1.114.668 1.781.188 3.625-.348 5.375q.98 1.038 1.977 2.078v3.281c-2.133 2.586-2.637 6.016-4.39 8.832 9.07-2.094 17.03-8.16 21.956-15.972a56 56 0 0 0-.28-6.254c-.716-2.282-1.18-4.66-2.243-6.825-1.867.637-3.313 1.953-4.484 3.5m-25.684 20.399c3.008 2.281 6.414 4.101 10.031 5.215-.988-.871-2.02-1.672-3.058-2.477-1.907-2.082-3.59-4.566-6.215-5.793-1.024.582-2.242 2.27-.758 3.055M165.797 52.422c.785-.95 1.555-1.906 2.344-2.863.824.707 1.652 1.418 2.468 2.125-.078.574-.226 1.71-.304 2.285-1.164.46-2.371.531-3.551.11-.785.632-1.59 1.253-2.492 1.698.172-1.254.808-2.343 1.535-3.355m1.879-.684-.27.692.254.652.637.25.629-.297.262-.683-.254-.676-.63-.25ZM74.762 53.363a54 54 0 0 1 3.879-2.558 116 116 0 0 1-2.29 3.586c.962-.172 2.895-.528 3.856-.7-.52.489-1.566 1.47-2.086 1.961.285.317.86.934 1.14 1.243l1.891-1.235.621.77c-.968.84-1.992 1.593-3.039 2.324-1.25-1.852-2.629-3.617-3.972-5.39M167.95 57.652c1.464-1.89 3-3.738 4.792-5.332.746 2.832-3.8 3.961-2.344 6.88 1.653-1.595 2.622-4.212 5.16-4.583-1.69 2.551-3.515 5-5.003 7.68q-.2-1.23-.348-2.477a91 91 0 0 1-2.258-2.168M72.73 54.305c1.899.265 2.875 2 4.047 3.277.7.676.957 1.61 1.18 2.52-1.281-.622-2.305-2.305-3.957-1.618.754 1.043 1.5 2.098 2.25 3.149-.363-.031-1.086-.102-1.45-.133a24.3 24.3 0 0 1-4.366-5.203c1.41.473 2.738 1.129 4.117 1.656a396 396 0 0 0-1.82-3.648M176.418 56.578c1.383.473 2.074 1.922 3.043 2.902-1.305-.289-2.57-.742-3.856-1.097.567 1.074 1.141 2.152 1.715 3.219a84 84 0 0 0-3.398-1.555c.277 1.316.781 2.558 1.363 3.766-1.324-.684-2.426-1.704-3.543-2.668 1.637-1.442 3.055-3.114 4.676-4.567M66.809 59.906c2.941-.195 4.398 2.996 6.402 4.614-.426.078-1.273.242-1.7.32-1.613-1.61-3.28-3.16-4.702-4.934M175.715 63.508c1.48-1.188 2.8-2.559 4.32-3.703.969.832 1.809 1.789 2.684 2.722a8.3 8.3 0 0 1-2.98-.894c-1.294 1.316-2.614 2.613-4.009 3.82-.007-.488-.015-1.46-.015-1.945M181.508 64.008c.953-.25 1.941-.094 2.91-.086.156.863.262 1.742.316 2.621-1.078 1.547-2.558 3.184-4.59 3.23-.785-.664-1.398-1.503-2.027-2.296.934-1.317 1.965-2.637 3.39-3.47m-1.945 4.93c1.543-.816 3.102-1.71 4.243-3.062l-.309-1.176c-1.902.63-4.137 1.86-3.934 4.239M63.45 63.992c2.452 1.074 4.995 2.031 7.167 3.617q-1.687.176-3.387.282c.082 1.093.137 2.183.176 3.28a22.6 22.6 0 0 1-4.133-5.39c.04-.445.137-1.34.176-1.789m1.762 2.254-.215.5c.215.234.625.715.836.95l.559-.133c0-.282-.008-.856-.008-1.137-.293-.047-.883-.133-1.172-.18M60.875 67.273c2.031 1.426 4.035 2.895 6.145 4.204-1.512 1.828-3.399.187-5.114-.235 1.157 1.176 2.461 2.29 2.957 3.945-2.242-1.433-4.972-2.597-6.238-5.074 1.605.055 3.195.313 4.785.547a74 74 0 0 0-2.402-1.691c-.031-.426-.102-1.274-.133-1.696M181.02 71.25c1.652-1.46 3.367-3.02 5.484-3.766 1.148.715 1.375 2.086 1.684 3.286-1.708.863-3.133 2.128-4.5 3.437-.93-.95-1.868-1.898-2.668-2.957m4.988-2.055q-1.664.798-.024 1.465 1.665-.808.024-1.465m-2.469 1.52c-.176.222-.52.66-.695.879l.144.527c1.328 1.477 2.617-1.976.551-1.406M184.496 74.488c1.899-.988 3.676-2.172 5.602-3.113-.551 1.082-1.243 2.078-1.98 3.035a51 51 0 0 1 3.948-.125c-1.636 2.223-4.242 3.586-6.875 4.23.817-1.21 2.012-2.046 3.153-2.933q-2.098.351-4.184.68c.078-.438.25-1.325.336-1.774M56.02 75.367a54 54 0 0 1 2.636-3.472c.52 1.457-.347 2.578-1.156 3.671 1.598-.496 3.156-1.101 4.734-1.625.293.532.883 1.61 1.176 2.141-.3.566-.906 1.703-1.215 2.277q-1.434-.227-2.863-.472c1.102-.637 2.621-.903 2.895-2.383-1.352.336-2.618.973-3.973 1.316-.77-.449-1.52-.933-2.234-1.453M55.95 77.14c1.519.15 2.777 1.122 4.148 1.72.25.535.754 1.609.996 2.14-.957 1.188-2.235 1.883-3.809 1.79-1.336-1.036-2.687-2.08-3.64-3.497.77-.668 1.226-1.914 2.304-2.152m-.55 1.218c.03.454.101 1.356.14 1.813 1.55.75 3.148 1.558 4.934 1.066-1.414-1.398-3.145-2.402-5.075-2.879M186.613 80.68c.512-2.864 4.149-3.223 6.344-4.317-.602 1.258-1.629 2.215-2.535 3.25 1.465 0 2.941-.093 4.398.149-1.761 1.058-3.613 1.976-5.547 2.668.125.148.395.43.528.582 1.879.586 3.832-.692 5.781-.364.078.34.223 1.012.293 1.352-1.598 1.746-3.652 2.988-5.555 4.36.235-1.028.489-2.047.739-3.067-.645-.297-1.297-.598-1.942-.887-.418-.87-.93-1.687-1.387-2.535.59-.226 1.77-.695 2.36-.933l-.156-1.614c-1.102.453-2.211.918-3.32 1.356m5.09 3.976.19.512c.297-.008.895-.031 1.196-.04l.062-1.112-.535-.2c-.226.207-.683.63-.914.84M51.645 85.504c-.504-1.488.828-2.637 1.722-3.61.82.372 1.637.754 2.442 1.157l2.086.562c1.445 1.106-.114 2.871-.27 4.23-2.031-.675-4.05-1.421-5.98-2.34m1.558-1.858c-.355 1.12.008 1.53 1.086 1.218.379-1.125.016-1.523-1.086-1.218m2.496.964-.261.645.292.652.676.281.653-.234.246-.644-.293-.668-.66-.29ZM45.879 105.398c2.148.122 4.305.247 6.46.348.009.633.016 1.277.032 1.914-1.402.25-2.8.477-4.203.707 1.652.485 3.336.863 4.941 1.512-2.84.527-5.87.316-8.562-.793 1.605-.711 3.273-1.238 4.95-1.758l-3.384-.5c-.062-.36-.18-1.066-.234-1.43M195.852 106.555c1.98-.192 3.98-.325 5.972-.395.078 1.168.18 2.34.117 3.508-.527.187-1.566.559-2.093.738q1.298-1.505.968-3.273c-1.101.465-2.187 2.308-3.328.738l-1.48.188c1.023.738 1.355 1.68.992 2.816-1.676-.871-2.102-2.785-1.148-4.32M45.105 112.11c1.758-1.337 3.946-1.258 6.028-1.141.34.55 1.015 1.64 1.363 2.191-.45.77-.937 1.52-1.465 2.242-1.84.551-3.965.336-5.492-.902-.11-.598-.32-1.797-.434-2.39m.641 1.753c1.887-.054 4.766 1.258 5.61-1.191-1.922-.11-4.524-1.082-5.61 1.191m0 0" style="stroke:none;fill-rule:nonzero;fill:#fff;fill-opacity:1"></path><path d="M195.813 110.813c.722.972 1.32 2.023 1.777 3.156.387-.848 1.156-2.543 1.543-3.399.203.934.383 1.868.558 2.801.336.024 1.024.078 1.36.102.07-.707.222-2.125.293-2.84 1.793.762.98 2.644 1.195 4.039-2.32.031-4.644.039-6.965.039q.011-1.965.238-3.898M195.867 115.953c1.567-.363 3.196-.133 4.797-.238.992-.094 1.324 1.18 1.992 1.687-.101.59-.297 1.766-.394 2.356-2.282.273-4.586.015-6.867-.117.085-1.243.234-2.473.472-3.688m.653 1.774c.226.18.667.539.89.718.235-.164.7-.492.934-.664-.559-.949-1.164-.965-1.824-.054m3.414-.653c-1.204.305-.434 2.094.636 1.672 1.188-.308.426-2.113-.636-1.672M46.328 116.438c1.871-.032 3.848-.415 5.64.308.243.852.387 1.73.528 2.61a163 163 0 0 1-2.047.988c.188-.973.38-1.946.551-2.918-1.879-.07-4.176-.258-4.965 1.883a42 42 0 0 0 3.008-.817c-.145.77-.543 2.348.707 2.504 1.55.04 2.73.832 3.406 2.203-1.039 3.008-4.722 2.985-7.191 1.93.094-.844.039-1.715.285-2.531.809-.7 1.668-1.336 2.406-2.102-.715.024-2.148.078-2.87.102l.25-1.758-1.11-.031c.355-.598 1.047-1.774 1.402-2.371m.559 7.902c1.523.242 3.066.023 4.586-.145.039-.406.125-1.222.164-1.629-1.582.43-4.735-.683-4.75 1.774M195.27 122.055c2.359-.934 4.94-1.067 7.449-.856-.645.489-1.926 1.461-2.57 1.946.66.925 1.312 1.867 1.94 2.816-2.429-.664-4.839-1.504-7.066-2.7.063-.296.184-.906.247-1.206M194.82 125.75q1.431.072 2.864.227c-.93.683-1.856 1.359-2.793 2.035 1.738.672 3.554 1.129 5.43 1.144a96 96 0 0 1-1.833-3.43c.957.567 2.77.848 2.57 2.348.133 1.137-.652 2.438-1.925 2.313-1.66-.125-3.738-.227-4.762-1.742q.118-1.47.45-2.895M45.926 128.074c1.289-1.062 2.863-1.547 4.492-1.75.707-.117 2.133-.355 2.848-.465.015 1.329-.032 2.73-1.801 2.653-.242.328-.73 1.004-.985 1.336 1.118-.036 2.235-.059 3.352-.082q.107 1.165.238 2.332a38 38 0 0 0-3.636.125c-.871.195-2.614.597-3.477.8q1.107-1.141 2.273-2.218c-.652-.153-1.976-.442-2.628-.59.945-.63 1.906-1.246 2.87-1.852-.886-.07-2.656-.218-3.546-.289M51.055 133.21c1.03-.194 2.07-.39 3.101-.589.367.7.723 1.406 1.078 2.113.125 2.063 1.274 3.836 1.996 5.72-.808-.282-1.613-.575-2.406-.864-1.816.59-3.629 1.363-5.586 1.293.969-1.004 2.219-1.621 3.407-2.297.542-.086 1.62-.25 2.156-.34-.125-1.762-.094-3.875-2.196-4.375l-.093 3.418c-.504-.82-.985-1.66-1.434-2.508-.297.07-.902.203-1.203.274 0 1.183-.023 2.363-.187 3.53a25 25 0 0 1-1.66-4.198c1.015-.383 2.027-.758 3.027-1.176M193.246 132.184c2.258.925 5.547.66 6.836 3.082-.973-.172-2.934-.524-3.91-.696 1.164 1.028 2.348 2.055 3.281 3.309-2.46.125-4.766-.793-7.121-1.356l.168-1.304c.824.21 2.477.644 3.305.863-.868-1.262-3.274-1.96-2.559-3.898M191.082 137.305c1.363.105 2.18 1.148 3.008 2.066 1.539-.062 3.082-.125 4.617.07-1.031.91-2.398 1.168-3.684 1.52.922.723 1.836 1.437 2.715 2.215-2.847-.11-5.562-1.328-7.93-2.848.786-.055 2.368-.164 3.157-.23a64 64 0 0 1-1.883-2.793M50.59 144.031c1.906-1.75 4.46-2.457 6.793-3.453.219 1.586-.805 2.66-1.867 3.649 1.34-.149 2.675-.266 4.03-.211-2.038 1.605-4.51 2.484-6.956 3.261-.836-1.695 1.25-2.52 2.14-3.617-1.378.188-2.753.348-4.14.371M189.578 142.656c.977-.32 1.977-.547 2.992-.699-.73.879-1.527 1.695-2.257 2.574 1.218 1.2 2.878 1.719 4.539 1.953-.489-.949-.985-1.89-1.489-2.832.559.118 1.692.34 2.258.45q-.07 1.363-.164 2.738c-.48.234-1.441.695-1.918.933-1.48-.73-3.164-1.18-4.351-2.37-.254-.934 0-1.9.39-2.747M53.879 148.133c1.73-1.02 3.582-1.844 5.43-2.637.078.274.238.824.316 1.106-1.914 1.234-4.016 2.152-6.074 3.117.086-.395.242-1.188.328-1.586M188.04 146.133c2.089 1.238 5.323 1.68 5.85 4.472-2.058-.949-3.972-2.27-6.253-2.652 1.418 1.61 3.336 2.637 4.879 4.102l-1.04 1.562c-1.007-1.992-2.98-3.012-4.87-4.008.41-1.187.945-2.324 1.433-3.476M54.754 153.066c2.43-1.62 5.453-2.03 8.316-2.195-2.36 1.781-5.523 1.734-8.316 2.195M184.324 152.313c2.645-.008 5.23 1.023 7.457 2.394-.832.125-2.5.383-3.344.52.215.656.633 1.976.844 2.625-.293.07-.883.207-1.172.277-1.21-1.578-2.699-2.91-3.894-4.496.031-.328.078-.988.11-1.32m3.652 2.16c-.2-.227-.575-.692-.774-.918-1.855.398.598 3.02.774.918M58.215 157.906c1.816-1.543 3.762-2.918 5.77-4.203.816 1.074 1.636 2.133 2.445 3.207-.285-.008-.844-.039-1.125-.047a12.2 12.2 0 0 1-2.621-1.332c.527.88.828 1.797.875 2.762-.829.18-1.52-.211-2.079-1.16-1.007.586-2.03 1.41-3.265.773M180.273 158.3c.989-1.152 2.004-2.3 3.106-3.359-.328 1.352-.785 2.66-1.188 3.98 1.086-.542 2.086-1.304 3.25-1.71.993.312 1.637 1.215 2.43 1.851-.621 1.036-1.195 2.102-1.918 3.083a8.2 8.2 0 0 1-1.629-.473c-1.25-1.238-2.652-2.32-4.05-3.371m4.183.445c.047.371.14 1.11.191 1.477.344.039 1.036.109 1.383.14-.031-.367-.086-1.105-.117-1.476-.363-.032-1.086-.11-1.457-.14M61.371 161.594c1.473-1.434 2.879-3.051 4.664-4.086l.668-.227-.07 1.098c-1.414 1.309-2.996 2.473-4.153 4.047 2.895.433 4.09-3.223 6.922-2.856-1.257 1.633-2.832 3.028-4.68 3.961-1.527.848-2.39-1.183-3.35-1.937M179.266 159.516l1 .156c1.738 1.867 4.004 3.031 6.16 4.348-1.645.078-2.953.917-4.02 2.085.211.56.637 1.68.848 2.239-.434-.246-1.313-.739-1.746-.989-1.156-1.917-2.399-3.8-4.203-5.187.652-.887 1.308-1.766 1.96-2.652m-.827 1.68c1.48 1.136 2.605 4.527 4.933 2.917-1.527-1.129-2.816-2.98-4.934-2.918M69.379 160.906c.719.735 1.426 1.48 2.148 2.227-.093 2.281-2.078 4.543-4.43 4.574-.952-.613-1.761-1.422-2.62-2.14 1.59-1.602 3.273-3.102 4.902-4.66m-3.5 5.073c1.039-.085 2.445.497 3.21-.535 1.04-.71 1.04-2.023 1.173-3.136-1.559 1.105-2.996 2.355-4.383 3.671M175.883 162.316c1.855 1.79 2.746 4.246 3.91 6.489-.465.543-.93 1.082-1.387 1.625.285-2.645-2.5-2.88-4.176-3.977-.085-.402-.261-1.203-.347-1.601.73.375 2.203 1.144 2.941 1.527-.234-1.02-.707-3.05-.941-4.063M68.484 169.316c1.344-1.796 2.942-3.421 4.797-4.691.672.887 1.473 1.707 1.992 2.71.032 1.048-1.125 1.352-1.793 1.927q-.474 1.089-.937 2.195c-.707.023-1.406.047-2.11.078-.66-.73-1.343-1.445-1.949-2.219m3.856-2.613-.324.625.254.613.675.235.692-.266.308-.637-.238-.625-.66-.218zm-1.86 2.07c-.886.942.766 2 1.403.997.824-.942-.766-2.047-1.403-.997M170.547 168.09c1.676-.313 3.414-.656 5.035.078.23.504.684 1.508.906 2.012-.363.941-.652 1.906-1.023 2.855-1.031.305-2.07.578-3.117.828-.536-.312-1.598-.957-2.133-1.27-.031-1.515.152-3.011.332-4.503m2.785.824c-.605.777.48 2.277 1.41 1.79.684-.794-.496-2.227-1.41-1.79m-1.996 2.094c-.113.887 1.617 2.082 1.926.847.015-.84-1.614-2.148-1.926-.847M71.598 173.215c2.047-1.766 4.148-3.61 6.726-4.559.403 2.848-1.437 5.399-3.09 7.54a68 68 0 0 1-.117-3.083c-1.172.04-2.347.07-3.52.102m4.079-1.883-.34.57.34.528.668-.047.34-.582-.34-.516ZM76.398 176.648c1.754-1.761 2.551-4.988 5.305-5.425-.914 1.78-2.086 3.402-3.258 5.011.543.66 1.63 1.97 2.172 2.63-1.48-.59-2.867-1.376-4.219-2.216M165.992 171.129c1.528 2.406 2.871 5.332 2.446 8.226-1.18-2.617-2.18-5.355-2.446-8.226m0 0" style="stroke:none;fill-rule:nonzero;fill:#fff;fill-opacity:1"></path><path d="M82.316 175.82c.414-1.797 3.082-2.285 3.942-.613.156.621.465 1.86.613 2.48a42 42 0 0 1-2.406-2.675c-1 1.355.5 2.66.863 3.93-.258.484-.777 1.449-1.039 1.937-2.203.234-4.113-1.332-3.523-3.711.992.644 1.566 1.562 1.738 2.754.355-.234 1.062-.692 1.418-.918-.567-1.05-1.277-2.04-1.606-3.184M161.074 174.68c2.313 1.164 3.07 3.836 4.547 5.78l-1.273.544c-.653-.95-1.29-1.89-1.938-2.824.184 1.687.488 3.406-.086 5.066-.984-1.387-1.863-2.832-2.73-4.289-.39-.473-1.172-1.406-1.559-1.875.434-.086 1.3-.266 1.735-.352.351.586 1.054 1.77 1.406 2.368-.024-1.106-.078-3.32-.102-4.418M84.645 182.902c.636-2.761 2.218-5.129 3.753-7.46l.157 3.39c.652-.394 1.949-1.187 2.605-1.578.117 1.562-1.512 2.101-2.332 3.137a46 46 0 0 0-.18 3.125c-.265.007-.808.015-1.085.015a139 139 0 0 0-.102-3.11c-.938.833-1.84 1.696-2.816 2.481M156.855 177.215c2.157 1.64 3.102 4.387 3.778 6.902-1.266-.957-2.36-2.11-3.664-3.012.226.958.668 2.887.886 3.844-.25 0-.761-.008-1.015-.008-1.04-1.695-1.809-3.527-2.61-5.34l-1.417 1.715c.316 1.133.93 2.145 1.48 3.164.078.856.855 2.024-.852 2.22-.699-1.86-1.453-3.704-2.328-5.485l-.715 1.312c-.101-.457-.3-1.382-.402-1.843 1.754-.567 3.477-1.204 5.207-1.836.387.625 1.156 1.875 1.543 2.5.652-1.332.117-2.762.11-4.133M92.402 178.29c.235.265.7.8.938 1.065-.867 2.153-2 4.184-3.086 6.223-.992-2.668 1.281-4.933 2.148-7.289M95.832 181.082c1.25-1.082 2.691-.078 3.816.637-.093.5-.285 1.504-.378 2.008-.582-.614-1.747-1.836-2.329-2.45-.441 2.168 2.055 3.383 1.73 5.563-1.948.808-4.562.613-5.026-1.922.355-.047 1.054-.148 1.41-.195.25.382.754 1.152 1.007 1.547l.895-.102.125-.863c-.422-.473-1.273-1.43-1.7-1.899.122-.785.216-1.57.45-2.324M148.563 181.02c.464.304.93.628 1.378.964-.722.465-2.187 1.391-2.918 1.852.91.094 2.73.273 3.641.36-.953.652-1.926 1.265-2.879 1.91q1.936.701 3.918 1.246c-1.164.468-2.344.91-3.516 1.378-1.007-1.765-1.78-3.664-1.882-5.71q-.504.756-.95 1.546c.7 1.672 1.11 3.446 1.25 5.246-.511-.703-1.527-2.117-2.039-2.824a235 235 0 0 1-.351 3.242 10.3 10.3 0 0 1-1.89-2.394l-.403-.164c-.016.77-.04 2.3-.055 3.066-.195-.117-.582-.36-.777-.476-.867-1.969-1.18-4.125-1.676-6.2.504-.07 1.512-.195 2.004-.265.27.723.527 1.437.797 2.156.402.285 1.21.832 1.613 1.11a184 184 0 0 1-.613-3.766c1.926-.387 3.785-1.055 5.347-2.277M98.223 188.059c1.718-1.946 2.316-5.25 5.086-5.918a60 60 0 0 1-.215 7.816c-.574-.707-1.14-1.406-1.7-2.113-1.062-.086-2.117.144-3.171.215m3.312-3.313c-.101.297-.312.895-.414 1.191l.36.473.55-.023c.106-.301.309-.887.41-1.184l-.363-.48ZM105.102 190.395c-.301-2.606-1.442-5.579.48-7.86.488 1.79.441 3.656.645 5.492.558-1.297 1.109-2.59 1.628-3.902 1.81.387 3.856.207 5.454 1.234l.023.274c-.773.062-2.305.18-3.078.242.851.988 1.785 1.89 2.73 2.785-.66-.031-1.972-.101-2.629-.133.016.336.063 1.02.079 1.368.457.164 1.37.5 1.828.664.008.164.015.504.023.668-1.195.304-2.418-.172-3.59-.383.008-1.836.711-3.656.48-5.477-.14.008-.41.016-.542.024-1.055 1.672-1.133 4.855-3.531 5.004M135.234 185.059c.97-.903 2.266-.375 3.414-.282.618 2.032 1.41 4.207.301 6.239q-1.617.058-3.234.047c-.567-1.875-1.637-4.145-.48-6.004m1.472 5.5c2.934-.817.793-4.32-.047-5.891-.582 1.93-.355 3.945.047 5.89M114.29 185.328c1.26-.52 2.597.242 3.878.297-.988 1.672-2.09 3.277-3.215 4.863l2.824.965c-1.37.535-2.847.45-4.28.332l-.157-.48c.07-1.86 1.785-3.106 2.555-4.707L113.89 186c.101-.172.296-.508.398-.672M125.434 186.504c1.078-.441 2.484-1.727 3.593-.621 1.203.957.961 2.629.985 3.988-.032 1.035-.512 2.774-1.867 2.61-1.22.41-1.989-.825-2.579-1.645-.254-1.438-.148-2.89-.132-4.332m1.675-.156c-.12 1.574-.12 3.16-.062 4.746.422.008 1.273.008 1.7.015-.106-1.75.519-4.062-1.638-4.761M130.797 185.242c1.332.016 2.668.055 4 .149-.961.476-1.914.964-2.867 1.449.379 1.64.613 3.305.812 4.976-.41.008-1.234.024-1.652.024-.2-2.192-.34-4.395-.293-6.598M121.168 193.375c-1.023-2.762-.79-5.875-.055-8.676.235.793.7 2.38.934 3.168.246.113.734.332.976.45.403-1.184.86-2.348 1.356-3.485.48 2.535.25 5.125.258 7.68l-1.157-.032c-.386-1.136.473-3.144-1.367-3.332a80 80 0 0 1-.945 4.227M161.578 215.305c1.957-.637 4.453.617 4.688 2.761.48 2.723-2.235 5.45-4.957 5.059-1.438-.062-2.793-1.207-3.036-2.637-.511-2.25 1.11-4.62 3.305-5.183M148.227 217.93c2.382-.22 4.773-.078 7.168-.086-2.079 8.812-3.91 17.676-5.895 26.52a438 438 0 0 1-7.16-.009c2.023-8.796 3.793-17.644 5.887-26.425M121.191 226.3c1.66-1.09 3.329-2.484 5.414-2.546 2.313-.215 4.95.195 6.473 2.133 1.2 1.238 1.238 3.09.899 4.683-.977 4.606-2.055 9.196-3.043 13.809-2.52-.008-5.047-.008-7.563-.016.977-4.261 1.965-8.52 2.785-12.812-1.629-1.797-4.668-1.485-6.05.367-1.141 4.098-1.856 8.3-2.833 12.445-2.52.016-5.035.016-7.554 0 1.543-6.734 3.008-13.488 4.484-20.234 2.512.008 5.02 0 7.531-.008-.18.723-.363 1.453-.543 2.18M40.055 244.363c-.352-6.758-.973-13.488-1.297-20.242 2.488.016 4.972.008 7.457.008.05 3.656.066 7.312.152 10.969 2.281-3.524 4.067-7.328 6.121-10.977 2.242.008 4.485.008 6.727.008.258 3.672.62 7.328 1.055 10.984 1.816-3.61 3.375-7.336 5.113-10.976 2.644-.008 5.297-.008 7.945 0-3.39 6.761-6.851 13.492-10.289 20.234-2.754 0-5.508.008-8.262-.008-.172-3.71-.386-7.422-.812-11.117-1.996 3.656-3.774 7.438-5.695 11.133-2.739-.008-5.477 0-8.215-.016M81.152 224.137c2.227-.008 4.446-.008 6.672-.016.453 3.602.715 7.219 1.078 10.828 2.028-3.46 3.399-7.258 5.215-10.828 2.653.016 5.297.008 7.945.008-3.421 6.738-6.89 13.453-10.28 20.226-2.762.032-5.516.024-8.278 0-.348-3.656-.41-7.335-.797-10.992-2.137 3.54-3.797 7.336-5.71 11-2.755.008-5.517.016-8.263 0 .063-1.68-.488-3.5.332-5.047 1.957-3.843 3.887-7.703 5.899-11.515.105 2.457.082 4.91.191 7.375 2.07-3.64 4.028-7.344 5.996-11.04M98.863 244.379c1.57-6.742 2.957-13.527 4.532-20.258 2.484.008 4.972.016 7.457 0-1.407 6.762-2.989 13.492-4.438 20.25-2.516 0-5.035 0-7.55.008M173.648 224.773c2.477-.472 4.727.786 6.79 1.977.203-.379.628-1.137.84-1.523 2.285.03 4.566.023 6.855.046a4977 4977 0 0 0-3.582 16.098c-.567 2.504-1.32 5.078-3.059 7.047-4.57 5.305-13.582 4.777-18.594.383 1.196-1.613 2.551-3.098 3.809-4.653 2.211 1.625 5.004 2.63 7.75 1.907 1.898-.64 2.352-2.88 3.164-4.438-1.691.856-3.273 2.258-5.273 2.219-2.957.219-6.145-1.563-6.93-4.535-1.8-5.86 1.715-13.649 8.23-14.528m.352 6.707c-1.46.856-2.012 2.864-1.383 4.395 1.149 2.063 4.68 2.234 5.906.18.426-1.207.672-2.48.696-3.758-1.371-1.281-3.551-1.742-5.219-.817M195.16 225.32c2.957-1.293 6.293-.46 8.809 1.39.191-.362.586-1.089.781-1.46 2.281 0 4.57-.008 6.86.023-1.383 6.372-2.801 12.743-4.215 19.106-2.125-.008-4.243 0-6.36-.024-.25-.253-.754-.746-1.008-.996-1.8.782-3.672 1.946-5.718 1.418-3.18-.32-5.563-3.183-5.825-6.277-.582-5.105 1.696-11.05 6.676-13.18m1.242 11.942c.668.8 1.739 1.074 2.614 1.593.87-.558 2.074-.753 2.703-1.632.633-1.672.898-3.438 1.254-5.168-1.434-.598-3.047-1.54-4.606-.762-2.265.832-3.492 3.977-1.965 5.969M157.328 225.258c2.387-.008 4.77-.016 7.152.015-1.382 6.372-2.8 12.727-4.207 19.09-2.402.016-4.793.008-7.191.016 1.484-6.356 2.863-12.742 4.246-19.121M55.352 271.867c-.016-3.64-.024-7.273.015-10.906 1.496.254 3.39-.172 4.563 1.004.742 1.289.215 2.793-.016 4.152.457 1.512.836 3.192.23 4.73-1.23 1.356-3.195.794-4.792 1.02m2.125-6.37c1.675.241 1.738-3.161.007-2.849-.93.559-.914 2.27-.007 2.848m-.559 1.469c.047 1.285.125 2.574.258 3.851 1.62-.605 1.804-2.07 1.644-3.609-.48-.062-1.43-.18-1.902-.242M64.621 261.371c1.344-1.004 3.586-.219 3.887 1.473.219 2.324.21 4.668.031 6.992-.148 2.406-3.691 2.785-4.793.879-.441-2.078-.25-4.23-.25-6.34.063-1.035.047-2.465 1.125-3.004m.621 1.262a53 53 0 0 0-.015 7.414c.351.133 1.062.383 1.414.512.449-2.63.355-5.329.144-7.973-.387.008-1.156.031-1.543.047M72.457 265.844c-1.566-1.5-.992-4.82 1.465-4.89 1.84-.376 2.328 1.585 2.941 2.831-.37.137-1.11.387-1.48.512l-1.551-2.488c-.133.597-.383 1.789-.512 2.386 1.215 1.813 3.817 3.192 3.22 5.735-.228 1.937-2.669 2.472-4.145 1.57-.684-.809-1.426-2.785.062-3.055.715.59.879 2.145 2.023 2.016 1.532-1.883-1.101-3.191-2.023-4.617M80.105 272.637c-.75-3.75-.402-7.625-.316-11.414.488-.07 1.465-.207 1.953-.27.473 1.875.887 3.774 1.406 5.649.614-1.93-.652-4.926 1.614-5.946.254 3.82.18 7.656.039 11.477-.375-.164-1.133-.5-1.512-.672-.809-2.145-1.164-4.434-2.02-6.559-.472 2.555.786 5.586-1.164 7.735M88.36 271.797c.007-3.586-.008-7.164.023-10.742 1.644.015 3.289.023 4.933.09-.222 1.808-1.921 1.503-3.257 1.613-.016.832-.032 1.672-.055 2.512q1.934-.07 2.808 1.57l-2.808.25.047 3.207h2.879l.007 1.492q-2.291-.002-4.578.008M100.602 260.773l1.515.63c.168 3.37.09 6.753.067 10.128-.403.133-1.207.406-1.598.54-.047-3.766-.07-7.532.016-11.298M110.371 261.113c.371-.015 1.102-.035 1.465-.05.48 1.68-.898 4.566 1.754 4.843.14-1.765.176-3.531.3-5.289.36.235 1.079.7 1.43.934.121 3.32.137 6.66-.007 9.98l-1.5.57c-.075-1.695-.067-3.378-.06-5.066-.444-.015-1.35-.039-1.808-.047 0 1.719-.007 3.434-.054 5.16-.387-.171-1.149-.515-1.536-.68-.101-3.452-.085-6.913.016-10.355M118.91 261.047c1.723.246 4.176-.75 4.973 1.383-1.117.11-2.227.203-3.344.28-.016.645-.031 1.923-.047 2.56 1.125.18 2.32.32 2.848 1.539-.715.07-2.14.21-2.856.289l.024 3.074c1.234.281 3.02-.313 3.453 1.469-1.7.132-3.398.156-5.098.171.047-3.585.016-7.18.047-10.765M126.477 260.992c1.582.184 3.574-.265 4.699 1.172.355 1.41-.07 2.84-.149 4.258.243 1.883.496 3.765.582 5.672-3.422.031-.425-4.59-3.453-5.332-.543 1.761 1.117 5.05-1.644 5.386-.114-3.718-.067-7.437-.035-11.156m1.914 1.89c-.637.778-.668 2.56.496 2.872 1.511-.25 1.14-3.758-.496-2.871M134.762 262.797c.183-1.629 2.293-2.32 3.62-1.559 1.391.758 1.04 2.516 1.313 3.82-1.57-.34-2.02-1.953-2.996-2.972-.683 2.71-.316 5.543-.308 8.312.34-.03 1.007-.086 1.347-.117-.191-1.629.473-2.484 1.973-2.562-.258 1.3.098 3.027-1.234 3.875-1.211.617-3.36.46-3.633-1.156-.38-2.524-.262-5.114-.082-7.641M142.695 271.79c.016-3.58 0-7.157.032-10.735 1.636.007 3.273.023 4.918.09-.16 1.851-1.954 1.44-3.243 1.628v2.707c.598.016 1.793.04 2.383.055-.023.371-.07 1.098-.101 1.469-.575 0-1.723 0-2.305.008.008.816.016 2.453.016 3.277.976 0 1.94 0 2.917.008v1.5c-1.542-.008-3.074-.008-4.617-.008M150.152 265.16c.086-1.469-.117-3.656 1.762-4.039 2.117-.933 3.762 1.48 3.371 3.387-1.695.777-1.781-1.633-2.676-2.414-1.277 2.734-.582 6.031-.277 8.949 2.11-1.23 1.04-3.523.316-5.254.653 0 1.957 0 2.61-.012-.078 1.641.183 3.336-.313 4.93-.77 1.434-2.644 1.441-3.941.8-1.25-1.866-.758-4.237-.852-6.347M159.219 261.566c1.265-1.347 3.972-.46 4.129 1.414.14 2.438.238 4.926-.086 7.356-.575 2.34-4.778 2.043-4.809-.453-.133-2.465-.258-4.965.102-7.406.168-.227.496-.684.664-.91m.855 8.761c.41-.015 1.219-.031 1.63-.047.023-2.336.194-4.691-.063-7.011-.309-.34-.922-1.004-1.227-1.344-.598 2.762-.355 5.601-.34 8.402M167.824 271.75c-.394-3.742-1.414-7.437-1.375-11.219.375.274 1.125.817 1.5 1.09.418 2.234.52 4.527 1.094 6.746.672-2.25.598-4.629 1.156-6.894.38-.18 1.137-.559 1.512-.739-.473 3.704-1.078 7.391-1.613 11.086-.567-.015-1.707-.054-2.274-.07M174.813 261.047c.375.015 1.132.066 1.511.082.117 3.535.125 7.09-.008 10.637h-1.636c-.114-3.57-.23-7.164.132-10.72M179.77 261.152c.496-.03 1.484-.097 1.98-.129.512 1.797 1 3.61 1.66 5.368.16-1.875.07-3.766.324-5.633l1.243.582c.199 3.578.046 7.16.046 10.746-.425-.14-1.265-.422-1.691-.563-.793-2.152-1.094-4.441-1.98-6.558-.168 2.258-.106 4.523-.055 6.793l-1.543.062c0-3.554.008-7.117.016-10.668M188.445 261.047c1.606.41 4.39-.973 4.934 1.305a40 40 0 0 1-3.313.445c0 .668-.007 2.008-.007 2.676l2.41.062c-.024.363-.07 1.09-.106 1.461l-2.32.031c.008.817.016 2.446.023 3.254l2.977.024-.008 1.484c-1.543 0-3.078.008-4.613.008.008-3.586-.008-7.172.023-10.75m0 0" style="stroke:none;fill-rule:nonzero;fill:#fff;fill-opacity:1" data-source="https://football-logos.cc"></path><!-- source: https://football-logos.cc --></svg>