<svg xmlns="http://www.w3.org/2000/svg" viewBox="29.91 207.23 732.43 732.43"><!-- Source: https://football-logos.cc --><path d="M571.758 411.805c0-151.694-122.969-274.66-274.664-274.66-151.69 0-274.66 122.966-274.66 274.66s122.97 274.662 274.66 274.662c151.695 0 274.664-122.968 274.664-274.662" style="fill:#2e3696;fill-opacity:1;fill-rule:nonzero;stroke:none" transform="matrix(1.33333 0 0 -1.33333 0 1122.52)" data-source="https://football-logos.cc"></path><path d="M563.243 411.805c0-146.99-119.157-266.147-266.149-266.147-146.988 0-266.145 119.156-266.145 266.147s119.157 266.148 266.145 266.148c146.992 0 266.15-119.157 266.15-266.148m-266.15-254.07c140.096 0 254.074 113.974 254.074 254.07S437.19 665.878 297.094 665.878C157 665.878 43.024 551.9 43.024 411.805S157 157.735 297.094 157.735" style="fill:#fff;fill-opacity:1;fill-rule:nonzero;stroke:none" transform="matrix(1.33333 0 0 -1.33333 0 1122.52)"></path><path d="M133.018 554.253q3.282-2.28 5.466-5.363 2.186-3.084 3.012-6.586t.096-7.283q-.731-3.783-3.225-7.493l4.699-3.291-5.533-7.971-4.699 3.291q-3.065-3.701-6.398-5.656-3.334-1.955-6.756-2.37-3.419-.418-6.844.647-3.423 1.064-6.706 3.342-3.282 2.278-5.556 5.294-2.276 3.015-3.2 6.49-.926 3.475-.281 7.254t3.149 7.624l-4.11 2.93 5.534 7.97 4.11-2.93q3.058 3.814 6.413 5.857t6.83 2.477q3.474.432 6.983-.684 3.513-1.117 7.016-3.55m-25.868-16.866q-2.15-4.165-.885-7.504t5.512-6.12q1.947-1.351 3.815-2.156 1.87-.808 3.63-.88 1.762-.075 3.48.74 1.72.814 3.4 2.763zm24.486-5.186q1.501 2.518 1.733 4.512.23 1.994-.479 3.645-.708 1.649-2.193 3.013a32 32 0 0 1-3.431 2.713q-1.5 1.04-3.317 1.93-1.814.886-3.793 1.06-1.98.173-3.915-.595-1.934-.77-3.676-3.039zM177.898 562.811l-22.436 6.875-.008-9.258 8.739-9.817-7.785-6.929-31.35 35.218 7.785 6.93 13.422-15.08.191-.011-.818 26.48 9.406 8.373.363-25.254 31.694-9.334zM251.203 632.094q.927-3.05.485-6.019a14.6 14.6 0 0 0-1.974-5.49q-1.532-2.523-4.057-4.459-2.523-1.935-5.761-2.92l-8.807-2.677 4.996-16.435-9.97-3.031-13.713 45.111 18.584 5.65q3.56 1.081 6.781.962 3.219-.12 5.863-1.372t4.596-3.6 2.977-5.72m-10.168-2.879q-.83 2.73-2.854 3.573-2.023.84-5-.063l-8.091-2.46 3.282-10.796 8.35 2.538q2.458.747 3.76 2.742 1.304 1.995.553 4.466M290.967 604.172l-4.37 9.277-15.713-1.415-2.642-9.908-10.924-.983 13.978 48.599 8.16.735 22.436-45.321zm-14.508 32.023-3.123-15.136 9.237.832zM381.981 584.354l7.92 17.56-14.09 6.351-7.915-17.56-9.501 4.284 19.38 42.984 9.5-4.284-7.771-17.233 14.09-6.351 7.768 17.232 9.37-4.224-19.38-42.984zM398.313 576.676l28.958 37.209 8.226-6.4-18.143-23.31 33.755 11.157 6.792-5.285-28.959-37.209-8.224 6.4 17.516 22.508-32.6-10.768zM127.723 242.06l30.868 35.641 23.59-20.431-6.118-7.063-15.71 13.61-5.742-6.631 7.273-6.297q3.072-2.663 4.628-5.577 1.554-2.912 1.833-5.75.276-2.836-.595-5.394a13.7 13.7 0 0 0-2.643-4.606q-4.61-5.322-10.525-5.48-5.918-.158-11.806 4.941zm29.13-5.89q1.284 1.485 1.227 3.59-.057 2.11-2.567 4.284l-7.02 6.078-6.775-7.822 7.02-6.08q2.508-2.174 4.648-1.88 2.138.296 3.468 1.83M162.664 212.475l22.51 41.431 9.158-4.974-14.101-25.955.179-.096 15.726 8.648 15.58 7.955 7.562-4.107-22.51-41.43-9.158 4.975 13.616 25.06-.19.102-11.405-6.523-18.814-9.514zM251.376 175.512l5.208 46.863 33.104-3.68-1.033-9.287-22.744 2.528-1.056-9.5 19.379-2.155-.993-8.93-19.38 2.155-1.094-9.858 22.744-2.529-1.032-9.285zM357.355 179.69l-15.15 44.648 9.87 3.35 9.49-27.971 9.247 34.328 8.146 2.766 15.152-44.65-9.869-3.349-9.164 27.006-8.935-33.148zM430.976 213.299l-10.153 16.37-13.133-8.144 10.153-16.369-8.857-5.494-24.851 40.07 8.856 5.495 9.964-16.067 13.133 8.145-9.964 16.066 8.735 5.416 24.851-40.07zM472.173 248.44l-9.247 4.437-11.293-11.016 4.204-9.353-7.852-7.658-19.833 46.517 5.865 5.72 46.008-20.99zm-31.465 15.68 7.129-13.71 6.642 6.476z" style="fill:#fff;fill-opacity:1;fill-rule:nonzero;stroke:none" transform="matrix(1.33333 0 0 -1.33333 0 1122.52)"></path><path d="M476.003 411.805c0-98.807-80.1-178.907-178.908-178.907s-178.906 80.1-178.906 178.907c0 98.81 80.098 178.908 178.906 178.908 98.807 0 178.908-80.098 178.908-178.908m-178.908-166.83c91.993 0 166.833 74.84 166.833 166.83 0 91.992-74.84 166.833-166.833 166.833-91.991 0-166.83-74.841-166.83-166.833 0-91.99 74.839-166.83 166.83-166.83M324.145 203.176l5.711.553q4.044.39 7.228-.495 3.18-.881 5.425-2.636 2.246-1.757 3.499-4.153a13.75 13.75 0 0 0 1.512-5.09q.674-7.006-3.289-11.4-3.966-4.396-11.717-5.143l-15.8-1.525-3.623 37.56-7.845-.755 1.08-11.19c.835-9.06.954-14.03-1.298-19.88-2.078-5.4-5.787-6.626-11.645-7.256l-.855 9.082c5.357.373 5.227 6.209 4.27 16.525l-2.042 21.166 27.661 2.668zm12.896-13.239q-.189 1.951-1.4 3.399t-3.685 1.207l-6.92-.668.992-10.3 6.923.665q2.474.24 3.381 1.96.904 1.716.709 3.737M320.012 634.926c2.016 9.768 3.048 14.84 3.048 14.84l31.58-5.266-5.294-31.736 3.141-.524-2.652-15.903-8.578 1.431 1.26 7.561-23.485 3.917-1.262-7.56-8.648 1.442 2.864 16.12 3.425-.53s2.581 6.44 4.6 16.208m4.742-18.063 14.456-2.408 3.744 22.448-12.69 2.117s-1.117-4.934-1.905-8.692c-2.3-10.985-3.605-13.465-3.605-13.465" style="fill:#fff;fill-opacity:1;fill-rule:nonzero;stroke:none" transform="matrix(1.33333 0 0 -1.33333 0 1122.52)" data-source="https://football-logos.cc"></path><path d="m490.276 553.218 8.91-11.303-26.215 2.3-10.227-32.234-9.644 12.237 8.2 21.984-10.25 1.841-10.32-8.136-6.453 8.184 37.029 29.191 6.453-8.185-15.877-12.688zM219.747 202.992c-.772-2.77-.566-4.797.84-7.039 1.224-1.951 4.249-3.933 8.686-2.174 1.837.727 3.138 2.408 3.962 4.897l9.424 28.426 9.892-3.28-9.66-29.142c-2.682-7.756-11.368-13.862-22.103-10.303-10.192 3.379-14.064 12.635-10.953 21.902zM66.454 416.91h4.796v-46.79h-8.418v33.062s-5.47-4.287-9.765-7.246l-4.995 6.873c7.35 5.234 18.382 14.101 18.382 14.101M95.549 388.43c-10.27-.008-12.907 2.734-12.907 13.539 0 6.242.898 9.89 2.919 12.066 2.3 2.383 5.106 3.225 11.392 3.225 8.473 0 11.729-1.543 13.58-6.453 1.122-2.946 1.403-5.963 1.403-14.662 0-15.502-.168-17.467-1.795-20.764-2.133-4.28-5.331-5.611-13.638-5.611-4.49 0-6.734.28-8.755 1.193-4.097 1.822-5.331 4.77-5.387 12.906h8.25c.056-2.174.224-3.086.674-3.998.616-1.264 1.458-1.473 5.611-1.473 6.174 0 6.622.561 6.622 8.137v5.147s-1.462-3.248-7.97-3.252m-4.6 14.31c0-5.472.616-6.033 6.677-6.033 4.94 0 5.95.912 5.95 5.33 0 5.754-.786 6.594-6.062 6.594-5.78 0-6.565-.701-6.565-5.89M507.547 387.727h3.704V379.8h-3.704v-9.682h-8.418v9.682h-19.867v11.644l15.264 25.465h13.02zM499.13 408.7h-.281l-12.74-20.974h13.02zM532.406 402.248c5.052-.057 7.745-.982 9.71-3.576 1.907-2.527 2.637-6.106 2.637-12.77 0-12.625-3.366-16.132-15.32-16.132-7.127 0-10.269 1.332-12.29 5.12-1.18 2.174-1.573 4.348-1.573 8.77h8.25c.336-4.562 1.067-5.262 5.725-5.262 3.48 0 4.94.35 5.892 1.403.786.842.955 2.103.955 6.594 0 6.664-.73 7.646-6.061 7.646-4.94 0-5.95-.49-6.4-2.805h-7.575v25.674h26.715v-7.998h-19.083v-9.18s1.956 2.588 8.418 2.516M262.427 523.762c14.1 8.36 30.562 13.16 48.144 13.16 52.215 0 94.542-42.33 94.542-94.544s-42.327-94.542-94.542-94.542c-17.64 0-34.152 4.832-48.285 13.242l-.649.416v-74.99H199.73V536.92h61.908v-13.563z" style="fill:#fff;fill-opacity:1;fill-rule:nonzero;stroke:none" transform="matrix(1.33333 0 0 -1.33333 0 1122.52)"></path><path d="m329.753 474.597 12.473 15.59.594.818-12.6 19.907-1.02.083h-37.567l-.71-.073-12.625-19.948.514-.665 13.33-16.661.833-.122h35.938zM381.597 444.594l-14.206-17.13-.726-.816-21.468 9.142-.91.342-11.18 34.411.745.893 12.693 15.866.577.702 22.937-5.858.37-1.082 11.637-35.92zM336.374 375.541l29.745 21.957.663.508-1.453 22.616-.032.984-20.79 8.851-1.196.488-30.11-21.894-.043-.885v-24.15l.917-.34 21.632-8.596zM254.438 399.258l1.37 21.37.024.976 21.101 8.983.927.333 30.097-21.889.026-1.154v-23.861l-.822-.3-21.745-8.642-1.12.81-29.955 22.11zM239.693 390.44l10.323 3.353.897.299 30.74-22.688 1.422-1.091v-11.981l.018-1c-18.195 5.89-33.853 17.47-44.868 32.633zM234.54 447.958l11.207 34.597.52 1.55-7.877 10.84-.57-.716c-10.46-14.631-16.62-32.535-16.62-51.851l1.104.228 11.728 3.811zM239.46 446.356l11.265 34.77.345 1.018 22.86 5.838.381-.33 13.718-17.148-.269-.772-10.913-33.605-.89-.33-21.578-9.187-.432.612-14.856 17.914zM338.063 357.375v12.938l.47.39 30.769 22.711.917.672 11.702-3.8 1.006-.304c-10.844-14.933-26.192-26.394-44.032-32.37zM398.613 442.678l-10.803 3.511-.706.196-11.897 36.727-.294 1.05 7.863 10.824.524-.727c10.47-14.637 16.638-32.552 16.638-51.881zM329.679 516.17h-38.046l-.654-.056-8.09 11.135.52.28a89 89 0 0 0 27.162 4.218 89 89 0 0 0 26.908-4.14l.807-.307-8.068-11.106z" style="fill:#2e3696;fill-opacity:1;fill-rule:nonzero;stroke:none" transform="matrix(1.33333 0 0 -1.33333 0 1122.52)" data-source="https://football-logos.cc"></path><!-- source: https://football-logos.cc --></svg>