<svg xmlns="http://www.w3.org/2000/svg" viewBox="0 0 508.2 672"><!-- Source: https://football-logos.cc --><defs data-source="https://football-logos.cc"><style>.cls-1{fill:#590027}.cls-2{fill:#fff}</style></defs><g id="Layer_2" data-name="Layer 2" data-source="https://football-logos.cc"><g id="Ñëîé_1" data-name="Ñëîé 1"><path d="M254.1 672c42-43 66-52.36 110.77-77.17 38.85-21.53 78.23-46.1 108.67-93.1C495 468.6 508.2 438.9 508.2 340.2L505 0s-71.4 31.5-142.27 33.07C295.06 34.58 254.1 8.4 254.1 8.4s-41 26.18-108.67 24.67C74.55 31.5 3.15 0 3.15 0L0 340.2c0 98.7 13.19 128.4 34.65 161.52 30.45 47 69.82 71.58 108.67 93.1C188.11 619.64 212.1 629 254.1 672" class="cls-1"></path><path d="m166.09 598.26-19-10.32c-37.3-20.67-76.2-44.68-105.88-90.49-20.12-31.14-33.33-58.9-33.33-157.25l3-328.52c23 8.92 78.36 28 134.33 29.27 57.69 1.28 96.46-16.74 108.85-23.46 12.39 6.73 51.15 24.74 108.85 23.46 56-1.24 111.38-20.35 134.33-29.27.2 21.66 3 328.59 3 328.59 0 98.28-13.22 126-33.38 157.17-29.68 45.82-68.58 69.83-105.88 90.49l-19 10.32c-31.44 17-54.63 29.5-88 62.57-33.26-33.06-56.45-45.6-87.89-62.56M144.81 60.89c-42.69-.95-84.95-11.7-114.2-21.12C30 101.48 27.83 340 27.83 340.29c0 92.79 12 118.18 30.18 146.31 27.2 42 62.26 63.64 98.81 83.89l18.76 10.22C204 596 225.93 607.89 254.1 633.33c28.17-25.44 50.13-37.31 78.53-52.63l18.76-10.22c36.55-20.25 71.61-41.9 98.81-83.89 18.22-28.13 30.17-53.52 30.18-146.31 0-.3-2.21-238.81-2.78-300.52-29.25 9.42-71.51 20.17-114.2 21.12-51.4 1.12-89.59-12.2-109.3-21.2-19.71 9-57.9 22.32-109.29 21.21" class="cls-2"></path><path d="M461.53 369.41c-2.41 69.6-13.8 87.19-26.76 107.19-24.89 38.43-57.86 58.73-92.29 77.81l-18.58 10.12c-24.52 13.23-45.42 24.54-69.81 44.58-24.38-20-45.29-31.35-69.8-44.58l-18.58-10.12c-34.43-19.08-67.4-39.38-92.29-77.81-14.6-22.54-27.21-42-27.22-136.26 0-.46 1.78-191.89 2.56-276.07 27.69 7.51 61.5 14.23 95.64 15q4.6.1 9.06.06l1.24.12v230.83c0 70.7 39.9 157.5 161 157.5 81.7 0 125-52.1 146-101.49ZM366.29 102.32c4.87 13.26 12.61 39.7 10.66 69.71-2.58 39.65-23.2 65.95-23.2 65.95q5.46 3.82 12 7.9c5.69 3.53 11.33 6.61 16.71 9.29 0 0 18.52-24 22.84-60.74 3.55-30.16-3.18-56.28-7.16-68.4l-.29-1A115.1 115.1 0 0 0 366 101.7Z" class="cls-2"></path><path d="M404.73 133.6a166.8 166.8 0 0 1 5.47 59.4c-3.5 41.65-21.54 65.1-21.54 65.1a219 219 0 0 0 22.75 8.94l.3-.51a114.79 114.79 0 0 0-7.34-134.11ZM332.5 146.12c-.21 35-12.25 60.9-12.25 60.9s6.83 11.15 27.82 26.85c0 0 18.37-21.55 23.28-58 3.76-28-4.75-59.66-10.09-75.91l-.19-.56a114 114 0 0 0-36.45-9.18s8.06 27.2 7.88 55.9M378.12 300c-13.92-2.41-40.69-8.93-65.7-25.62-33.05-22.06-45.51-53.07-45.51-53.07-4 1.88-8.31 4-12.84 6.45-5.9 3.17-11.39 6.5-16.4 9.82 0 0 11.53 28 41.18 50.15 24.34 18.15 50.33 25.39 62.82 28l1 .24a115.1 115.1 0 0 0 36.14-15.9Z" class="cls-2"></path><path d="M331.82 317.66a166.8 166.8 0 0 1-54.2-25c-34.32-23.86-45.61-51.2-45.61-51.2a219 219 0 0 0-19.12 15.23l.3.51A114.79 114.79 0 0 0 333 317.92ZM357.08 248.84c-30.21-17.69-46.62-41.06-46.62-41.06s-13.07.34-37.16 10.67c0 0 9.48 26.68 38.59 49.16 22.33 17.24 54 25.72 70.79 29.22l.58.12a114 114 0 0 0 26.17-27s-27.58-6.61-52.35-21.11M201 211.41c9.05-10.85 28.08-30.77 55-44.08 35.63-17.59 68.72-12.88 68.72-12.88.39-4.42.68-9.2.84-14.35.21-6.7.06-13.12-.31-19.11 0 0-30-4-64 10.59-27.89 12-47.15 30.9-55.65 40.4l-.7.74a115.1 115.1 0 0 0-4.3 39.25Z" class="cls-2"></path><path d="M208.87 162.48A166.8 166.8 0 0 1 257.61 128c37.82-17.79 67.15-13.9 67.15-13.9a219 219 0 0 0-3.64-24.1h-.59a114.79 114.79 0 0 0-112.48 73.41ZM255.84 218.77c30.42-17.32 58.87-19.84 58.87-19.84s6.24-11.49 9.34-37.52c0 0-27.85-5.14-61.87 8.84-26.09 10.72-49.29 33.94-60.7 46.69l-.39.44a114 114 0 0 0 10.28 36.16s19.53-20.54 44.47-34.77M259.12 360.34H246l-10.08 13.55 4.84 9 8.64-11.29h.87v30.5h9.13v-41.76ZM278.12 362c-1.61 1.65-2.4 5.4-2.4 11.46 0 5.78.8 9.45 2.43 11.21s5.1 2.64 10.55 2.64a28.5 28.5 0 0 0 7.17-.71 6.9 6.9 0 0 0 3-1.75l-.06.17-.21 1c0 3.79-.44 5-.81 5.43s-1.56.84-5.16.84a32.5 32.5 0 0 1-7-.46c-.95-.27-1.41-1.08-1.41-2.47v-.3h-8.53v.3c0 6 .69 9.52 2.11 10.86 1.78 1.65 6.45 2.45 14.29 2.45 7.1 0 11.27-1 12.74-3s2.3-8.16 2.3-18.48-.85-16.53-2.58-18.57-7-3-15.87-3c-5.47-.01-8.94.78-10.56 2.38m7.28 14.38c-.71-.33-1.07-1.31-1.07-2.92s.36-2.55 1.08-2.92 2.82-.55 6.09-.55 5.35.17 6.11.5 1 1.33 1 3-.36 2.53-1.07 2.86-2.82.61-6.06.61-5.33-.21-6.08-.57ZM351.49 360.27H337l-15.46 17.22V394h21.09v8.06h9.13V394h5v-9.8h-5v-24Zm-8.83 11.27v12.68h-13v-.74l11.33-11.95ZM374.13 362.68c-1.49 2.07-2.22 8.1-2.22 18.44s.86 16.5 2.63 18.5 6.92 3 15.82 3c5.49 0 8.93-.77 10.5-2.35s2.49-5.47 2.49-11.54c0-5.79-.8-9.47-2.44-11.24s-5.1-2.64-10.54-2.64a28.4 28.4 0 0 0-7.12.7 7 7 0 0 0-3.06 1.76l.06-.18.2-.95c0-3.77.44-5 .81-5.41s1.56-.83 5.17-.83a33.2 33.2 0 0 1 7 .45c.95.27 1.41 1.06 1.41 2.44v.3h8.53v-.3c0-5.94-.69-9.48-2.11-10.82-1.78-1.65-6.45-2.45-14.29-2.45-7.13.05-11.32 1.06-12.84 3.12m7.35 29c-.68-.3-1-1.29-1-2.94s.36-2.57 1.08-2.94 2.81-.55 6.06-.55 5.35.19 6.14.56 1 1.32 1 2.93-.36 2.56-1.07 2.89-2.84.61-6.1.61-5.36-.14-6.11-.51Z" class="cls-2"></path><path d="M62.76 147.88V99.84h33.73l-2.97 12.36H72.47v8.38h22.7l-2.98 12.36H72.47v14.94zM102.52 99.84h9.71v16.85h5.07l10.99-16.85h13.37l-15.77 22.87 17.81 25.05h-14.08l-12.32-18.7h-5.07v18.77h-9.71zM80.87 211.88v-27.42l9.45-3.57v21.71c-.17 3.15-.35 7.35 3.85 7.53s6-6.3 10.5-17.33 9.63-13.83 18.73-13.12c9.95.77 12.25 7.7 12.25 17.68v28.15l-9.45 3.57v-22.8c0-4.55.35-7-3.32-6.65-3.09.29-3.5 4.55-7.87 14.52s-7.35 15.05-18.73 15.05c-9.46.01-15.59-4.54-15.41-17.32M112.4 460.17c-15.42-7.29-33.15-26-33.15-26l10.85-15.65s17.9 20.88 30.78 29.28c10.49 6.82 16.6-1.4 41.61-21.43l-18.84-25.46 5.93-7.87 33.16 44.82-29.4 21.76c-8.81 6.6-18.5 11.16-40.94.55M281.62 502A19.4 19.4 0 0 1 301 482.65h17.52A19.4 19.4 0 0 1 337.83 502v16.08a19.4 19.4 0 0 1-19.35 19.35H301a19.4 19.4 0 0 1-19.35-19.35Zm15.92 17.65a9 9 0 0 0 8.93 8.93H313a9 9 0 0 0 8.93-8.93v-19.22a9 9 0 0 0-8.93-8.93h-6.51a9 9 0 0 0-8.93 8.93Z" class="cls-1"></path><path d="M127.89 378.82 114 389.09l-3.47-12.84Zm-32.31 24 5 18.5 47.28-35-8.29-30.71-10.19-1.61 4.78 17.7-48.88-7.15 2.24 8.28 11.32 1.66 5.81 21.5ZM118.3 257.64l-16.08 6.3v-13.3Zm-37.43 14.7v19.16l54.77-21.5v-31.78l-9.45-4.11v18.33l-45.32-19.65v8.58l10.5 4.55v22.27Z" class="cls-1"></path><path d="M101.69 314.52h24.46v3.15c0 11.72-3 16.27-12.07 16.1s-12.42-4.55-12.42-14.7Zm-11.15 13.69c1.13 17.07 6.88 22.55 22.18 22.71 18.9.19 22.92-14.17 22.92-32.08v-43l-9.45 4v15.75h-65.8v18.9H89l-.67.33A52.1 52.1 0 0 0 73 326.59c-9.27 10-12.6 19.6-14.35 38.85l18.9 7.7a130.5 130.5 0 0 1 1.58-27.48 26.2 26.2 0 0 1 11-17.2ZM195.09 510.4l8.05-6.1-23.9-15.02-.4-.25 6.42-10.23.36.24 23.94 15.04 2-9.9-21.1-13.26-.17-.12 7.38-11.74.29-.39 22.49 14.14 3.8 49.74 21.27 6.28 37.73-45.98-19.71-5.81-31.4 38.32-3.74-48.72-42.33-26.6-29.15 46.37z" class="cls-1"></path></g></g><!-- source: https://football-logos.cc --></svg>