<svg xmlns="http://www.w3.org/2000/svg" xml:space="preserve" viewBox="1 1 250 250"><!-- Source: https://football-logos.cc --><path d="M128.504 22.003c58.805 0 106.827 48.021 106.827 106.826s-48.022 106.827-106.827 106.827S21.677 187.634 21.677 128.83 69.699 22.003 128.504 22.003" style="opacity:1;fill:#fff;fill-opacity:1;stroke:none;stroke-width:3;stroke-miterlimit:4;stroke-dasharray:none;stroke-opacity:1;paint-order:markers stroke fill" transform="matrix(1.17012 0 0 1.17012 -24.364 -24.746)" data-source="https://football-logos.cc"></path><path d="M128.916 74.679c18.915 12.197 39.36 12.197 60.396 11.726-.117 60.75-20.917 98.46-57.627 117.139-.942-.413-1.885-.826-2.769-1.238zm0 157.619c28.343-.118 54.033-11.726 72.71-30.346 18.738-18.796 30.346-44.663 30.346-73.123s-11.608-54.326-30.345-73.124c-18.678-18.618-44.368-30.226-72.71-30.345v1.415c27.928.118 53.324 11.549 71.708 29.933 18.502 18.501 29.992 44.016 29.992 72.121h-.058.058c0 28.106-11.49 53.62-29.992 72.122-18.384 18.384-43.78 29.815-71.709 29.932zm0-3.89c54.68-.235 99.168-44.898 99.168-99.579s-44.488-99.344-99.168-99.58v24.336c41.245.235 74.832 33.939 74.832 75.244s-33.587 75.009-74.832 75.245zM68.521 85.817c25.218.117 35-12.845 41.01-29.05 6.246 7.837 12.727 13.611 19.385 17.913v127.627c-37.239-17.383-55.21-57.745-60.395-116.49m60.395-60.456h-.412c-28.46 0-54.327 11.608-73.123 30.345-18.738 18.798-30.346 44.664-30.346 73.124s11.608 54.327 30.346 73.123c18.796 18.738 44.663 30.346 73.123 30.346h.412v-1.415c-.176 0-.294.06-.412.06v-.06.06c-28.106 0-53.62-11.49-72.121-29.993-18.503-18.501-29.934-44.015-29.993-72.12h.06-.06c0-28.106 11.49-53.62 29.993-72.122 18.501-18.503 44.015-29.992 72.121-29.992v.059-.059c.118 0 .236.059.412.059zm0 3.89h-.412c-54.798 0-99.58 44.722-99.58 99.58 0 54.856 44.782 99.579 99.58 99.579h.412v-24.335h-.412c-41.423 0-75.245-33.822-75.245-75.245 0-41.422 33.822-75.244 75.245-75.244h.412z" style="opacity:1;fill:#18488f;fill-opacity:1;stroke:none;stroke-width:3;stroke-miterlimit:4;stroke-dasharray:none;stroke-opacity:1;paint-order:markers stroke fill" transform="matrix(1.17012 0 0 1.17012 -24.364 -24.746)"></path><path d="M130.566 137.727c8.485 0 15.438-6.895 15.438-15.32 0-8.486-6.953-15.438-15.438-15.438-8.426 0-15.379 6.952-15.379 15.438 0 8.425 6.953 15.32 15.38 15.32" style="fill:#fff;fill-opacity:1;fill-rule:evenodd;stroke:none;stroke-width:.13333333" transform="matrix(1.17012 0 0 1.17012 -24.364 -24.746)"></path><g style="stroke:#18488f;stroke-opacity:1"><path d="M979.246 897.05c63.634 0 115.784 51.707 115.784 114.9 0 63.64-52.15 115.78-115.784 115.78-63.195 0-115.339-52.14-115.339-115.78 0-63.193 52.144-114.9 115.339-114.9z" style="fill:none;stroke:#18488f;stroke-width:1.32577002;stroke-linecap:butt;stroke-linejoin:miter;stroke-miterlimit:2.61310005;stroke-dasharray:none;stroke-opacity:1" transform="matrix(.15602 0 0 -.15602 -24.364 276.365)"></path></g><path d="M130.389 137.137c8.13 0 14.79-6.658 14.79-14.73 0-8.131-6.66-14.791-14.79-14.791-8.073 0-14.73 6.66-14.73 14.79 0 8.073 6.657 14.731 14.73 14.731" style="fill:#fff;fill-opacity:1;fill-rule:evenodd;stroke:none;stroke-width:.13333333" transform="matrix(1.17012 0 0 1.17012 -24.364 -24.746)"></path><g style="stroke:#18488f;stroke-opacity:1"><path d="M979.246 901.468c60.984 0 110.924 49.942 110.924 110.482 0 60.98-49.94 110.92-110.924 110.92-60.543 0-110.476-49.94-110.476-110.92 0-60.54 49.933-110.482 110.476-110.482z" style="fill:none;stroke:#18488f;stroke-width:4.58972979;stroke-linecap:butt;stroke-linejoin:miter;stroke-miterlimit:2.61310005;stroke-dasharray:none;stroke-opacity:1" transform="matrix(.15602 0 0 -.15602 -24.364 276.365)"></path></g><g style="stroke:#18488f;stroke-opacity:1"><path d="m906.774 1006.65-.887.44 41.981-1.33v-.88l-41.981.88-.441.45.441-.45h-.441v.45z" style="fill:none;stroke:#18488f;stroke-width:3.4431901;stroke-linecap:butt;stroke-linejoin:miter;stroke-miterlimit:2.61310005;stroke-dasharray:none;stroke-opacity:1" transform="matrix(.15602 0 0 -.15602 -24.364 276.365)"></path></g><g style="stroke:#18488f;stroke-opacity:1"><path d="M1043.32 936.824h.44l-44.185-22.981-.446 1.329 43.751 22.539h.44-.44.44z" style="fill:none;stroke:#18488f;stroke-width:3.4431901;stroke-linecap:butt;stroke-linejoin:miter;stroke-miterlimit:2.61310005;stroke-dasharray:none;stroke-opacity:1" transform="matrix(.15602 0 0 -.15602 -24.364 276.365)"></path></g><g style="stroke:#18488f;stroke-opacity:1"><path d="m924.45 925.777.445-.441-29.613 41.976.882.445 29.168-41.539.446-.441-.446.441.446-.441z" style="fill:none;stroke:#18488f;stroke-width:3.4431901;stroke-linecap:butt;stroke-linejoin:miter;stroke-miterlimit:2.61310005;stroke-dasharray:none;stroke-opacity:1" transform="matrix(.15602 0 0 -.15602 -24.364 276.365)"></path></g><g style="stroke:#18488f;stroke-opacity:1"><path d="m965.547 934.175-.445-.445 11.934 39.774.878-.446-11.925-39.769z" style="fill:none;stroke:#18488f;stroke-width:3.4431901;stroke-linecap:butt;stroke-linejoin:miter;stroke-miterlimit:2.61310005;stroke-dasharray:none;stroke-opacity:1" transform="matrix(.15602 0 0 -.15602 -24.364 276.365)"></path></g><g style="stroke:#18488f;stroke-opacity:1"><path d="M1049.07 970.851h-.89l-33.14 16.789.44.887 33.15-16.352h-.45l.89-1.324-.44-.437-.45.437z" style="fill:none;stroke:#18488f;stroke-width:3.4431901;stroke-linecap:butt;stroke-linejoin:miter;stroke-miterlimit:2.61310005;stroke-dasharray:none;stroke-opacity:1" transform="matrix(.15602 0 0 -.15602 -24.364 276.365)"></path></g><g style="stroke:#18488f;stroke-opacity:1"><path d="M1074.26 989.855v.442l.44 47.723h1.33l-.45-47.723-.44.886-.88-1.328v.442z" style="fill:none;stroke:#18488f;stroke-width:3.4431901;stroke-linecap:butt;stroke-linejoin:miter;stroke-miterlimit:2.61310005;stroke-dasharray:none;stroke-opacity:1" transform="matrix(.15602 0 0 -.15602 -24.364 276.365)"></path></g><g style="stroke:#18488f;stroke-opacity:1"><path d="M1015.48 1032.28h-.88l26.07 22.09.89-1.32-25.63-21.66h-.89.89l-.45-.44-.44.44z" style="fill:none;stroke:#18488f;stroke-width:3.4431901;stroke-linecap:butt;stroke-linejoin:miter;stroke-miterlimit:2.61310005;stroke-dasharray:none;stroke-opacity:1" transform="matrix(.15602 0 0 -.15602 -24.364 276.365)"></path></g><g style="stroke:#18488f;stroke-opacity:1"><path d="M914.727 1078.24h-.442l-21.214-41.99-.883.45 21.652 41.98-.441-.44h1.328-.442z" style="fill:none;stroke:#18488f;stroke-width:3.4431901;stroke-linecap:butt;stroke-linejoin:miter;stroke-miterlimit:2.61310005;stroke-dasharray:none;stroke-opacity:1" transform="matrix(.15602 0 0 -.15602 -24.364 276.365)"></path></g><g style="stroke:#18488f;stroke-opacity:1"><path d="M968.196 1041.12v-.44l-16.348 38 1.766.88 15.468-38.44v-.89.89l.442-.44-.442-.45z" style="fill:none;stroke:#18488f;stroke-width:3.4431901;stroke-linecap:butt;stroke-linejoin:miter;stroke-miterlimit:2.61310005;stroke-dasharray:none;stroke-opacity:1" transform="matrix(.15602 0 0 -.15602 -24.364 276.365)"></path></g><g style="stroke:#18488f;stroke-opacity:1"><path d="m1031.83 1093.71-53.916 9.72v1.32l53.916-9.72z" style="fill:none;stroke:#18488f;stroke-width:3.4431901;stroke-linecap:butt;stroke-linejoin:miter;stroke-miterlimit:2.61310005;stroke-dasharray:none;stroke-opacity:1" transform="matrix(.15602 0 0 -.15602 -24.364 276.365)"></path></g><path d="m143.293 125.294 1.474 1.355-.178.472-.176.471-.177.412-.176.413-.237.412-.235.354-.177.412-.236.412-.235.295-.177.412-.236.354-.235.353-.295.296-.236.353-.234.295-.236.294-2.182-.354.708-4.477 3.476-2.534" style="fill:#2766ad;fill-opacity:1;fill-rule:evenodd;stroke:#18488f;stroke-width:.13333333;stroke-opacity:1" transform="matrix(1.17012 0 0 1.17012 -24.364 -24.746)" data-source="https://football-logos.cc"></path><g style="stroke:#18488f;stroke-opacity:1"><path d="m1074.7 990.297 11.05-10.165-1.33-3.539-1.32-3.535-1.33-3.09-1.32-3.097-1.78-3.09-1.76-2.652-1.33-3.094-1.77-3.09-1.76-2.211-1.33-3.09-1.77-2.656-1.76-2.648-2.21-2.215-1.77-2.649-1.76-2.211-1.77-2.207-16.36 2.653 5.31 33.582z" style="fill:none;stroke:#18488f;stroke-width:2.60979009;stroke-linecap:butt;stroke-linejoin:miter;stroke-miterlimit:2.61310005;stroke-dasharray:none;stroke-opacity:1" transform="matrix(.15602 0 0 -.15602 -24.364 276.365)"></path></g><path d="m126.5 123.29 3.889 4.302 5.126-2.003v-5.774l-6.246-1.239-2.77 4.715" style="fill:#2766ad;fill-opacity:1;fill-rule:evenodd;stroke:#18488f;stroke-width:.13333333;stroke-opacity:1" transform="matrix(1.17012 0 0 1.17012 -24.364 -24.746)"></path><g style="stroke:#18488f;stroke-opacity:1"><path d="m947.867 1005.32 29.168-32.262 38.445 15.028v43.304l-46.843 9.29z" style="fill:none;stroke:#18488f;stroke-width:2.60979009;stroke-linecap:butt;stroke-linejoin:miter;stroke-miterlimit:2.61310005;stroke-dasharray:none;stroke-opacity:1" transform="matrix(.15602 0 0 -.15602 -24.364 276.365)"></path></g><path d="m119.017 119.107 1.768 4.006-1.355 5.186-2.828-.707-.118-.471-.177-.53-.118-.472-.118-.471-.059-.473-.058-.411-.06-.472-.058-.47v-1.357l.059-.353v-.47l.059-.355v-.471l.058-.413 3.005-1.296" style="fill:#2766ad;fill-opacity:1;fill-rule:evenodd;stroke:#18488f;stroke-width:.13333333;stroke-opacity:1" transform="matrix(1.17012 0 0 1.17012 -24.364 -24.746)"></path><g style="stroke:#18488f;stroke-opacity:1"><path d="m892.629 1036.7 13.258-30.05-10.16-38.893-21.211 5.301-.887 3.535-1.328 3.981-.883 3.535-.883 3.531-.445 3.543-.437 3.09-.442 3.535-.441 3.532v10.17l.441 2.65v3.53l.442 2.66v3.53l.437 3.1z" style="fill:none;stroke:#18488f;stroke-width:2.60979009;stroke-linecap:butt;stroke-linejoin:miter;stroke-miterlimit:2.61310005;stroke-dasharray:none;stroke-opacity:1" transform="matrix(.15602 0 0 -.15602 -24.364 276.365)"></path></g><path d="m123.32 133.896-.06 1.473.295.177.294.118.295.177.294.118.295.117.295.118.294.118.236.118.295.06.294.117.295.059.236.058.294.06.236.058.294.118.295.06h.53l.236.058h.235l.295.06h1.295l.237-.06h.294l.236-.058h.53l.236-.06 1.296-1.59-4.419-2.534-5.479 1.06" style="fill:#2766ad;fill-opacity:1;fill-rule:evenodd;stroke:#18488f;stroke-width:.13333333;stroke-opacity:1" transform="matrix(1.17012 0 0 1.17012 -24.364 -24.746)"></path><g style="stroke:#18488f;stroke-opacity:1"><path d="m924.895 925.777-.446-11.047 2.211-1.324 2.207-.887 2.211-1.328 2.207-.883 2.215-.879 2.207-.886 2.211-.883 1.766-.887 2.211-.445 2.207-.883 2.211-.438 1.769-.441 2.207-.441 1.77-.442 2.207-.886 2.211-.446h3.973l1.773-.437h1.766l2.207-.446h9.718l1.774.446h2.207l1.769.437h3.977l1.769.446 9.719 11.933-33.14 19z" style="fill:none;stroke:#18488f;stroke-width:2.60979009;stroke-linecap:butt;stroke-linejoin:miter;stroke-miterlimit:2.61310005;stroke-dasharray:none;stroke-opacity:1" transform="matrix(.15602 0 0 -.15602 -24.364 276.365)"></path></g><path d="m121.964 110.327-.119 3.241 5.186-.117 3.358-3.3-2.77-2.18-.176.058h-.235l-.177.06-.177.06h-.176l-.177.058-.236.058-.176.06-.119.058-.236.06-.176.059-.177.058-.177.059-.118.059-.235.058-.177.119-.177.059-.177.117h-.117l-.236.119-.177.117-.177.06-.118.117-.176.06-.177.116-.177.06-.176.118-.178.117-.176.119-.177.117-.118.059-.176.117" style="fill:#2766ad;fill-opacity:1;fill-rule:evenodd;stroke:#18488f;stroke-width:.13333333;stroke-opacity:1" transform="matrix(1.17012 0 0 1.17012 -24.364 -24.746)"></path><g style="stroke:#18488f;stroke-opacity:1"><path d="m914.727 1102.55-.887-24.31 38.891.88 25.183 24.75-20.765 16.35-1.324-.44h-1.766l-1.328-.45-1.328-.44h-1.321l-1.328-.44-1.769-.44-1.321-.44-.886-.44-1.77-.45-1.324-.44-1.324-.44-1.328-.44-.887-.44-1.766-.44-1.324-.89-1.324-.44-1.332-.88h-.879l-1.766-.89-1.328-.88-1.328-.45-.883-.88-1.32-.44-1.332-.88-1.324-.44-1.325-.89-1.328-.88-1.324-.89-1.328-.88-.883-.44z" style="fill:none;stroke:#18488f;stroke-width:2.60979009;stroke-linecap:butt;stroke-linejoin:miter;stroke-miterlimit:2.61310005;stroke-dasharray:none;stroke-opacity:1" transform="matrix(.15602 0 0 -.15602 -24.364 276.365)"></path></g><path d="m139.287 110.681-1.71.707 1.239 5.48 4.595 2.063 1.061-1.179-.177-.295-.059-.294-.117-.295-.06-.295-.176-.236-.12-.294-.116-.295-.118-.236-.118-.235-.176-.236-.12-.236-.175-.236-.117-.293-.178-.236-.118-.177-.176-.236-.118-.235-.236-.236-.118-.177-.176-.176-.176-.236-.178-.178-.236-.176-.177-.236-.176-.177-.236-.176-.177-.176-.176-.119-.236-.177-.236-.176-.176-.177-.236-.118" style="fill:#2766ad;fill-opacity:1;fill-rule:evenodd;stroke:#18488f;stroke-width:.13333333;stroke-opacity:1" transform="matrix(1.17012 0 0 1.17012 -24.364 -24.746)"></path><g style="stroke:#18488f;stroke-opacity:1"><path d="m1044.65 1099.89-12.82-5.3 9.29-41.1 34.46-15.47 7.96 8.84-1.32 2.21-.45 2.21-.88 2.21-.44 2.21-1.33 1.77-.89 2.21-.88 2.21-.88 1.77-.89 1.76-1.32 1.77-.89 1.77-1.32 1.77-.88 2.2-1.33 1.77-.89 1.33-1.32 1.77-.88 1.76-1.77 1.77-.89 1.33-1.32 1.32-1.32 1.77-1.33 1.33-1.77 1.32-1.33 1.77-1.32 1.33-1.77 1.32-1.33 1.32-1.32.89-1.77 1.33-1.77 1.32-1.32 1.33z" style="fill:none;stroke:#18488f;stroke-width:2.60979009;stroke-linecap:butt;stroke-linejoin:miter;stroke-miterlimit:2.61310005;stroke-dasharray:none;stroke-opacity:1" transform="matrix(.15602 0 0 -.15602 -24.364 276.365)"></path></g><path d="m143.116 129.948.236-.412.119.118-.236.353-.119-.059" style="fill:#2766ad;fill-opacity:1;fill-rule:evenodd;stroke:#18488f;stroke-width:.13333333;stroke-opacity:1" transform="matrix(1.17012 0 0 1.17012 -24.364 -24.746)"></path><g style="stroke:#18488f;stroke-opacity:1"><path d="m1073.37 955.386 1.77 3.094.89-.887-1.77-2.648z" style="fill:none;stroke:#18488f;stroke-width:2.60979009;stroke-linecap:butt;stroke-linejoin:miter;stroke-miterlimit:2.61310005;stroke-dasharray:none;stroke-opacity:1" transform="matrix(.15602 0 0 -.15602 -24.364 276.365)"></path></g><path d="M216.417 110.916v-4.536c.118-.06.235-.06.354-.119.765-.234 1.296-.47 1.472-.824.236-.294.236-.766.06-1.414 0-.118-.06-.178-.119-.235q-.088-.09-.176 0h-.119l-.058.057-1.414.414v-5.656c.118-.12.235-.178.235-.296.06-.118.06-.294.119-.531.057-.648.293-1.001.706-1.119.412-.117.766-.058 1.002.178q.442.44.706 1.413c.06.295.178.707.355 1.296s.295 1.061.412 1.415c.117.589.353 1.354.648 2.18.236.884.412 1.473.53 1.709.53 1.885.649 3.359.295 4.36-.294 1.001-1.12 1.708-2.298 2.063a6.6 6.6 0 0 1-1.414.177c-.472-.06-.825-.237-1.178-.472zm0-18.737v-1.532c.059.294.118.53.118.766 0 .295 0 .59-.118.766m1.591 49.907c.235 0 .353-.058.47-.176.06-.118.178-.295.178-.59.059-.294.117-.706.117-1.295 0-.59.059-1.297.059-2.062q0-.708-.176-.885c-.119-.058-.295-.118-.59-.118h-.471c-.235 0-.354-.058-.412-.118-.119-.117-.176-.235-.176-.47 0-.178.117-.355.353-.59q.354-.266 1.06-.53a7.6 7.6 0 0 1 1.944-.59c.708-.117 1.356-.235 2.004-.235q.619 0 .884.177c.176.117.236.235.236.47 0 .295-.177.472-.472.65-.119.058-.236.117-.295.117-.117.059-.176.235-.176.471-.06.178-.06.648-.06 1.415v.825c0 1.237 0 2.062.06 2.415.06.413.116.648.235.766.236.118.53.236.884.295h.295c.117.058.236.117.294.236.06.117.119.235.119.411 0 .355-.296.649-.767.767-.472.177-1.354.236-2.593.236-1.59 0-2.71-.06-3.299-.236-.589-.118-.885-.412-.885-.767 0-.234.06-.352.179-.47q.175-.178.529-.177h.236c.117.058.177.058.236.058m-1.59-51.44v1.533a1.4 1.4 0 0 1-.414.413c-.353.176-.824.117-1.296-.177-.117-.059-.236-.118-.236-.176-.353-.178-.943-.06-1.767.294-.118.059-.177.059-.236.059-.53.293-1.297.648-2.24 1.12v-3.596c.886-.41 1.415-.765 1.71-.943.353-.234.53-.47.589-.588v-.825c0-.472.117-.765.412-.944.353-.176.825-.057 1.355.355.472.472 1.002 1.178 1.533 2.121.293.53.47.943.59 1.355m0 7.957v5.656l-1.651.472q-.354.087-.354.176-.087.087 0 .353c.178.53.412.943.767 1.06.293.119.707.119 1.237.06v4.536l-.354-.235c-.235-.236-.471-.294-.59-.294-.117.058-.176.234-.176.589v.765c-.058.648-.353 1.179-.825 1.651-.472.47-1.06.824-1.827 1.001-.824.295-1.649.295-2.416.176v-5.833c.236 0 .414-.059.65-.117.648-.176 1.118-.471 1.294-.884.236-.412.236-.942.06-1.591-.06-.295-.177-.412-.236-.472-.117-.059-.236-.059-.47 0-.412.119-.884.236-1.298.355v-5.539c.767-.236 1.592-.413 2.534-.708l1.592-.47c.884-.237 1.473-.413 1.766-.59a.46.46 0 0 0 .296-.117m-6.189 79.78v-11.666c.355.058.65.236 1.002.412q1.858 1.06 2.298 3.005c.236 1.237 0 2.593-.824 3.948zm0-34.764v-3.771q.266-.266.355-.53c.295-.472.412-.885.412-1.18a.67.67 0 0 0-.177-.47.95.95 0 0 0-.531-.177h-.059v-2.593c.59-.177 1.238-.235 1.886-.235q1.504 0 2.476.706c.648.472.942 1.061.942 1.768 0 .413-.118.767-.294 1.12-.178.353-.531.825-1.062 1.355-.117.118-.234.236-.412.413-.413.353-.648.647-.648.824 0 .118.059.236.176.295.059.059.178.118.355.118.117 0 .295 0 .412-.06a.95.95 0 0 0 .412-.235c.119-.059.177-.118.353-.236a.7.7 0 0 1 .531-.295q.265 0 .53.354.177.353.177.885c0 .766-.176 1.355-.53 1.944-.353.53-.708.824-1.12.824-.118 0-.177-.058-.294-.117l-.295-.295q-.176-.265-.353-.353c-.178 0-.414-.06-.766-.06zm0-59.159v-5.42a8.6 8.6 0 0 1 1.002 1.65c.649 1.178.942 2.062 1.002 2.65.118.59-.118 1.003-.589 1.297-.413.178-.884.178-1.415-.177m0-5.42v5.42s-.058 0-.117-.059c-.119-.058-.176-.117-.295-.177-.117-.057-.648.06-1.414.413-.236.059-.53.236-.884.412v-7.718c.472-.236 1.002-.059 1.65.472q.53.529 1.06 1.237m0 11.076v3.596l-.293.117c-.943.471-1.71.826-2.417 1.119v-3.417c.53-.236 1.178-.59 1.945-.943l.53-.353zm0 10.372v5.539l-.236.117c-.412.117-.824.236-1.06.353-.412.118-.706.296-.766.412-.059.119-.059.355.06.65.118.53.47.942.884 1.118.353.119.706.119 1.118.059v5.833a3.7 3.7 0 0 1-1.296-.588c-.588-.354-1.06-.766-1.414-1.356v-11.549c.413-.059.944-.176 1.65-.352.354-.06.707-.177 1.06-.236m0 34.41v2.593c-.176 0-.47.117-.765.353l-.059.06s-.06 0-.118.058c-.235.236-.471.295-.648.295-.294 0-.531-.06-.707-.295a.97.97 0 0 1-.295-.706c0-.178.059-.414.236-.649.118-.177.294-.413.53-.648.472-.413 1.06-.766 1.65-.943.059-.059.118-.059.176-.118m0 4.95v3.77h-1.708c-.294 0-.53 0-.706-.117-.178-.06-.236-.177-.236-.354s.294-.589.884-1.178c.353-.412.648-.707.882-1.002.355-.412.648-.766.884-1.12m0 26.869v11.666l-1.766 3.123c-.355.59-.648.943-.944 1.12v-7.601c.236.118.413.235.589.294.413.177.65.295.825.236.119-.059.295-.236.472-.471.236-.471.295-1.002.118-1.415q-.267-.707-1.238-1.237c-.294-.177-.53-.295-.766-.353v-5.009c.472-.353 1.061-.53 1.709-.53.353 0 .648.058 1.001.177m-2.71-89.386v7.718c-.707.295-1.531.708-2.534 1.296-1.296.65-2.121 1.356-2.416 2.004-.353.648-.293 1.474.236 2.358.236.47.531.882.884 1.177.354.295.707.413 1.12.472.354.059.824 0 1.474-.236.293-.117.706-.295 1.236-.59v3.418c-1.119.472-1.944.708-2.534.767-1.178.118-2.297-.236-3.3-.943-.529-.353-1.001-.825-1.413-1.356V82.869c.059-.058.117-.058.177-.117l4.655-2.475.235-.117c.649-.355 1.002-.59 1.178-.767.178-.177.236-.412.295-.708v-.117c.059-.65.236-1.061.59-1.237zm0 23.745v11.55c-.412-.531-.707-1.178-.943-1.945l-2.356-8.249c-.177-.65-.236-1.12-.119-1.473a.75.75 0 0 1 .65-.648c.176-.059.412-.059.588-.059.177.059.294.117.294.176.06.177.236.353.472.53q.443.178.884.178c.118 0 .295-.06.53-.06m0 65.994v5.009a1.7 1.7 0 0 0-.766 0c-.47.117-.884.53-1.237 1.119-.119.236-.177.354-.119.471 0 .118.119.236.296.354.471.235.943.53 1.355.766.176.059.295.177.47.236v7.6h-.058c-.293.177-.59.177-.943 0a1.4 1.4 0 0 1-.412-.411c-.058-.178-.117-.295-.058-.354.058-.177.058-.354 0-.648a1.36 1.36 0 0 0-.414-.766c-.352-.295-.942-.707-1.826-1.297a54 54 0 0 0-3.182-1.944l-.353-.236V170.9l2.533 1.473a.6.6 0 0 0 .354.118.45.45 0 0 0 .236-.236c.294-.53.353-.942.236-1.355-.12-.354-.531-.707-1.18-1.06-.647-.413-1.236-.59-1.59-.53a1.2 1.2 0 0 0-.59.353v-4.42c.354-.353.708-.648 1.12-.824.942-.472 2.004-.413 3.064.235.472.236.826.59 1.06.943.296.295.473.707.532 1.12.058.117.058.294.117.53 0 .354.059.53.177.648.118.059.354-.059.588-.294q.267-.354.53-.53zm-7.247 25.337c.117-.118.295-.294.412-.471 1.12-1.356 1.885-2.652 2.18-3.83.236-1.238.119-2.416-.412-3.477-.295-.648-1.001-1.473-2.18-2.593zm0-122.147v-4.655c.117.176.295.295.47.531.943 1.06 1.534 1.944 1.827 2.71.295.707.236 1.237-.117 1.59-.355.296-.825.296-1.355.059-.177-.118-.294-.176-.413-.176-.176-.059-.353-.059-.412-.059m0-4.655v4.655h-.059c-.118 0-.294.059-.472.176-.236.177-.589.472-1.12.884-.47.413-1.237 1.003-2.178 1.827l-1.298 1.12c-.648.589-1.118 1.002-1.413 1.296-.296.294-.532.53-.59.648-.118.177-.118.353-.058.649.059.235.293.53.53.824.53.59 1 .943 1.414 1.12q.618.266 1.415 0c.117-.059.293-.119.47-.177.59-.236 1.002-.236 1.238.058.294.296.412.708.353 1.12a1.68 1.68 0 0 1-.707 1.12q-.531.53-1.413.884c-.65.235-1.18.412-1.71.471-.353.059-.589 0-.883-.059-.236-.06-.414-.236-.591-.412 0 0-.057-.06-.116-.177-.355-.707-.825-1.355-1.473-2.121l-1.946-2.239v-5.539c.059-.058.119-.058.119-.118.412-.236 1.237-.883 2.356-1.886l1.475-1.237c1.118-1.001 1.884-1.71 2.237-2.063.355-.353.532-.588.532-.765 0-.117 0-.295-.119-.53-.117-.237-.177-.354-.177-.471 0-.178 0-.355.06-.531.059-.117.176-.295.352-.413.355-.352.943-.295 1.65.118.649.354 1.297.943 2.122 1.768m0 17.264v10.547a14 14 0 0 1-1.355-2.061q-1.503-2.829-1.061-5.127c.236-1.473 1.061-2.592 2.416-3.359m0 82.374v4.42c-.177.177-.295.353-.47.59-.06.117-.06.234-.06.293 0 .06.06.118.118.118 0 .06.059.06.059.06.058 0 .058 0 .117.058l.236.118v6.07l-1.06-.59c-.825-.472-1.356-.766-1.71-.884-.294-.117-.53-.177-.647-.06-.119.06-.295.119-.471.296-.473.412-.944.471-1.297.294-.354-.235-.531-.53-.59-.883 0-.413.176-.885.531-1.533.176-.235.412-.589.707-1.12.353-.53.589-.942.765-1.236.295-.53.65-1.238 1.12-2.004.412-.825.707-1.355.825-1.59.648-1.002 1.238-1.827 1.827-2.417m0 16.793c-.412-.412-.884-.824-1.355-1.237q-1.415-1.238-2.122-1.944l-.176-.177c-.648-.59-.943-1.12-.884-1.532 0-.06 0-.118.058-.236.118-.59 0-1.06-.353-1.296-.353-.295-.767-.295-1.296-.06-.472.237-1.06.708-1.65 1.415-.707.884-1.178 1.59-1.414 2.24-.176.647-.119 1.12.176 1.355.296.235.59.235 1.003.058.412-.176.706-.294.765-.294.176 0 .412.118.767.294l1.766 1.414.472.413c1.296 1.06 2.18 1.885 2.652 2.357.412.472.707.884.766 1.237.117.413.058.825-.059 1.238a3.55 3.55 0 0 1-.707 1.296q-.973 1.15-2.121 1.06c-.708 0-1.65-.53-2.77-1.472-1.355-1.12-2.298-1.945-2.886-2.534-.59-.59-.885-1.002-.885-1.178 0-.119 0-.178.06-.355.117-.647 0-1.178-.414-1.473v-.058 9.015l2.475 2.121c1.296 1.061 2.652 1.414 4.244 1.12 1.355-.295 2.65-1.06 3.888-2.416zm-10.607 19.858v-6.953c.178-.06.414-.06.65-.06.47.118.824.354 1.118.708s.59.884.826 1.472c.234.649.353 1.238.412 1.769 0 .294 0 .589-.119.824-.059.236-.176.413-.412.59 0 0-.059.059-.176.117q-1.062.443-2.121 1.415zm0-143.066v-3.416c.414.235.826.59 1.296.943.943.706 1.532 1.354 1.827 1.826.236.471.236.943-.059 1.296-.236.295-.529.471-.825.471-.352 0-.707-.117-1.119-.412l-.177-.176q-.088-.09-.177-.177a1.8 1.8 0 0 0-.766-.355m0-3.416v3.416h-.058c-.295-.116-.648-.116-1.062-.116-.706.057-1.296.116-1.766.235-.53.117-.826.294-1.003.472-.176.293-.293 1.237-.235 2.886.059 1.591.178 3.536.471 5.775 0 0 .06.059.06.177 0 .471.177 1 .353 1.591.059.059.059.235-.058.412-.06.176-.178.412-.355.59-.293.411-.588.589-.884.589-.295-.06-.765-.295-1.413-.767l-2.77-2.18V49.224c.118 0 .176.059.295.059.707.236 1.59.708 2.65 1.533 1.003.824 1.71 1.472 2.005 2.061q.531.797 0 1.415c-.176.235-.295.353-.471.413-.119.058-.355.116-.65.058-.294-.058-.647.058-.942.236-.293.177-.59.529-1.001 1.061-.176.176-.236.353-.236.47 0 .178.06.295.177.413.117.06.295.118.53.118q.265 0 .883-.177c.53-.117 1.002-.295 1.356-.412q.618-.266.708-.353c0-.059.058-.236.118-.531.058-.295.176-.472.353-.648.295-.413.765-.53 1.473-.295.412.118.883.354 1.472.767m0 16.321v5.539l-2.945-3.359c-.236-.294-.413-.649-.353-1.001 0-.296.176-.648.47-.884.354-.295.767-.353 1.356-.177.235.058.412.118.588.118.236 0 .531-.06.884-.236m0 110.834v9.015l-1.532-1.297-.236-.117c-.53-.472-.941-.766-1.118-.825a1.7 1.7 0 0 0-.767 0h-.117c-.59.236-1.062.176-1.356-.06-.412-.353-.53-1-.235-1.826.293-.824.943-1.826 1.885-3.004.826-1.002 1.532-1.65 2.063-1.886q.795-.442 1.413 0m0 12.374v6.953l-5.656 4.536c-.294.295-.648.354-1.002.354q-.44-.09-.883-.53c-.236-.353-.296-.766-.119-1.355q.178-.354.178-.53 0-.444-.355-1.061c-.116-.295-.41-.707-.883-1.297v-8.838c0 .06.059.118.059.118.176.294.472.648.824 1.178.413.53 1.003 1.238 1.768 2.24l1.12 1.296c.53.707.943 1.178 1.237 1.473.296.353.472.53.59.648.177.118.353.118.648.059.236-.059.53-.236.825-.53.648-.472 1.001-.884 1.179-1.297.176-.412.176-.943.058-1.473a4 4 0 0 1-.177-.471c-.236-.59-.176-1.002.119-1.237.176-.119.294-.178.47-.236m-8.72-2.652v-1.768c.059 0 .118.06.118.119.294.353.294.766.058 1.354-.117.119-.117.236-.176.295m0-89.916v-1.178c.176.177.295.353.295.588 0 .237-.119.413-.295.59m0-4.066c.412.176.707.766.943 1.768.059.118.059.236.117.236v.117c.236.944.531 1.532.944 1.827.176.177.471.353.766.413.294.059.706.117 1.118.117.708 0 1.298-.117 1.768-.294.414-.236.648-.531.648-.884 0-.235-.234-.471-.706-.648-.059 0-.118 0-.118-.059-.118 0-.236-.295-.294-.825-.059-.118-.059-.176-.059-.236-.119-.53-.236-.942-.353-1.296-.178-.295-.414-.53-.708-.767-.118-.057-.354-.176-.648-.235-.236-.118-.412-.177-.412-.294 0-.119.117-.236.353-.295.117-.117.235-.117.293-.177a2.5 2.5 0 0 0 .767-.824c.119-.295.236-.708.236-1.12 0-.826-.353-1.532-1.003-2.003q-.97-.708-2.828-.708c-.176 0-.47.059-.824.059v1.65c.235.059.354.176.531.295.117.236.236.53.236.943 0 .53-.119.942-.236 1.178-.119.176-.296.235-.53.295zm0-49.083v19.268l-.294-.235c-.295-.236-.412-.413-.471-.53-.06-.118-.119-.414-.119-.767 0-.824 0-1.885.059-3.123.06-1.649-.059-2.592-.295-2.769-.118-.119-.234-.119-.353-.059-.177.059-.295.176-.472.412-.235.354-.47.59-.588.884-.119.236-.177.412-.177.59 0 .058.058.236.117.412.119.53.06.942-.176 1.296q-.531.619-1.415.354h-.058v-9.193c.236-.352.53-.707.825-1.059.824-1.061 1.413-1.828 1.708-2.417.355-.53.47-.943.413-1.177 0-.06-.058-.178-.118-.295-.176-.53-.118-.944.118-1.239.235-.353.707-.47 1.296-.353m0 42.955v1.65h-.236c-.236 0-.353.059-.412.176-.058.178-.117.472-.117 1.002v.649c0 .177 0 .353.059.47v.414c.117 0 .176 0 .234.059h.178c.117 0 .176 0 .294-.059v1.767c-.118-.059-.177-.059-.294-.059h-.178c-.058 0-.117.059-.176.059v1.414c0 .412 0 .707.06.884 0 .119.058.235.116.295.06 0 .12.059.236.117.06.059.178.119.236.178v1.178a.45.45 0 0 1-.294.118c-.412.177-1.12.236-2.122.236-.765 0-1.356-.059-1.826-.119v-3.417c.058-.53.058-1.178.058-1.886v-.53c0-1.06 0-1.768-.058-2.12v-2.416c.236 0 .53-.06.825-.06h2.945zm0 98.342v1.827c-.118.236-.118.412-.118.53 0 .059.06.177.118.295v8.838c-.236-.354-.53-.707-.884-1.12l-1.237-1.531q-1.414-1.768-1.944-2.299l-.177-.176v-4.714c1.118-.884 2.062-1.473 2.769-1.767.648-.178 1.179-.178 1.473.117m-4.242 20.741v-5.42c.118-.12.177-.295.236-.472.058-.059.058-.118.117-.236.059-.294.236-.53.413-.59.235-.176.53-.117.824 0 .295.178.591.472.767.885.353.648.47 1.355.353 2.062-.118.766-.353 1.238-.765 1.415-.06.058-.119.058-.119.058s-.058 0-.058.059a9 9 0 0 1-1.532 2.062c-.06.06-.178.119-.236.177m0-155.498v9.193c-.59-.236-1.415-.766-2.534-1.59-1.178-.944-1.945-1.651-2.298-2.24-.354-.588-.412-1.119-.119-1.474.237-.293.65-.47 1.18-.47.176-.059.295-.059.412-.059.295-.119.765-.412 1.296-.943.472-.472 1.12-1.238 2.063-2.417m0 36.475v2.416-.178c-.06-.294-.118-.53-.236-.589a1.3 1.3 0 0 0-.295-.176q-.53-.266-.53-.708c0-.236.177-.47.471-.59.178-.058.354-.117.59-.175m0 6.952v3.417c-.118-.059-.295-.059-.412-.117-.414-.178-.648-.412-.648-.766 0-.294.176-.53.588-.708.06-.058.118-.058.118-.117.118-.06.236-.412.294-1.061.06-.176.06-.412.06-.648m0 92.98v4.714a2.2 2.2 0 0 0-.59-.412c-.118 0-.294.058-.53.118-.235.117-.354.176-.471.176-.177 0-.353 0-.53-.059-.118-.059-.237-.177-.413-.353-.294-.412-.236-1.002.176-1.71.414-.706 1.238-1.531 2.358-2.474m0 13.67v5.421a6.8 6.8 0 0 1-1.944 1.356 7.9 7.9 0 0 1-2.947.942c-1.001.06-2.004 0-3.005-.294-.176-.06-.295-.119-.412-.119v-7.6q.353.618.884 1.06c.47.472.942.826 1.532 1.12.706.294 1.413.472 2.121.472.648 0 1.296-.118 1.885-.414.471-.234.884-.588 1.238-.942.236-.236.47-.589.648-1.002m-8.308-4.242c.177-.177.353-.295.589-.413.53-.294 1.177-.412 1.827-.353.648.059 1.354.295 2.061.707.06 0 .177.059.295.177.766.471 1.473.53 2.062.235.531-.235.884-.648 1.002-1.237.177-.589.06-1.178-.236-1.768-.471-.883-1.06-1.59-1.826-2.062q-1.237-.707-1.945-.354l-.53.354c-.177.176-.294.295-.413.354-.058 0-.529.058-1.413.236a6 6 0 0 0-1.473.353zm0-50.556v-1.71h1.766v1.71zm0-4.007v-1.767h3.476v1.767zm0-4.066v-1.708h5.185v1.708zm0-4.065v-1.768l8.13.06v1.708zm0-38.83V98.13h1.118c-.293-.648-.529-1.179-.706-1.532-.176-.295-.295-.472-.412-.472v-4.183h.117q.62 0 1.061.176c.235.059.53.236.707.413.295.295.59.766.943 1.355.353.648.825 1.71 1.532 3.24.177.413.412 1.003.706 1.71.472 1.06.767 1.709 1.003 1.943q.088.089.353.178c.059 0 .118.058.178.058.117.06.234.119.293.236.06.119.119.236.119.354 0 .353-.295.648-.767.825-.47.176-1.237.295-2.239.295-1.178 0-2.004-.119-2.474-.236-.472-.118-.707-.412-.707-.708 0-.176 0-.294.059-.352a.7.7 0 0 1 .294-.295c.06 0 .118-.06.176-.06.236-.117.412-.236.412-.412s-.176-.353-.529-.47c-.295-.06-.707-.06-1.237-.12m0-55.094v-2.709c.236.176.472.353.648.53.53.471.648 1.002.47 1.473-.176.353-.47.589-.941.648zm0-2.709v2.71c-.354.058-.531.058-.531.118-.236.117-.59.648-1.119 1.71-.472 1-1.297 2.709-2.357 5.066q-.441.972-.53 1.415-.09.44 0 .706c.06.118.118.295.235.472.295.53.354.943.236 1.295-.236.472-.708.708-1.473.65-.708-.06-1.768-.413-3.064-1.002-1.237-.53-2.121-1.061-2.71-1.65-.59-.531-.767-1.06-.531-1.533.177-.353.589-.589 1.178-.706.236 0 .412-.059.531-.059.236-.059.53-.413.884-1.003.353-.589.943-1.768 1.708-3.534.119-.354.295-.708.53-1.179.237-.47.354-.767.413-.943.353-.708.532-1.178.589-1.532.059-.294.059-.589-.057-.766 0-.059-.119-.176-.238-.354-.294-.47-.412-.884-.234-1.237.234-.47.706-.707 1.413-.648.767.059 1.827.353 3.123.943.825.353 1.473.708 2.004 1.061m0 49.672v4.183l-.059-.059c-.119 0-.236.177-.412.472-.119.235-.355.824-.708 1.59h1.179v1.945h-.471c-.59 0-1.003.058-1.239.118-.236.118-.353.295-.353.471 0 .117 0 .236.059.295q.088.087.354.177c.236.059.352.117.412.236.059.059.118.235.118.353 0 .354-.178.588-.53.766a6.4 6.4 0 0 1-1.769.236c-.707 0-1.295-.119-1.648-.236q-.531-.266-.53-.708c0-.176.058-.352.117-.411.058-.119.294-.236.589-.355q.443-.088.53-.353c.118-.117.235-.353.413-.707.177-.353.472-1.002.884-2.004l.176-.47c1.061-2.416 1.65-3.89 1.768-4.362v-.117c.118-.648.472-1.001 1.12-1.06m0 45.193v1.768l-12.022-.06v-1.708zm0 4.125v1.708h-12.022v-1.708Zm0 4.007v1.767h-12.022v-1.767zm0 4.065v1.709h-12.022v-1.71zm0 48.494v3.77c-.354.296-.59.649-.707 1.12-.177.708-.06 1.415.353 2.24.118.235.235.412.354.589v7.6c-.943-.353-1.71-.824-2.475-1.413-.825-.707-1.532-1.532-2.003-2.475a9.2 9.2 0 0 1-.884-3.064 9.4 9.4 0 0 1 .352-3.182c.355-1.06.826-2.004 1.534-2.828a7.5 7.5 0 0 1 2.533-1.944c.295-.177.59-.295.943-.413m-12.022 22.095v-3.476c.178-.294.296-.589.355-1.001 0-.118 0-.295.059-.471 0-.648.177-1.002.589-1.12a1.26 1.26 0 0 1 1.12.177c.353.295.648.648.765 1.12.118.47.178 1 .178 1.65-.06.706-.178 1.295-.295 1.767-.117.295-.236.53-.413.706a1.12 1.12 0 0 1-.647.414h-.177c-.472.058-1.002.117-1.534.234m0-43.19v-1.708c.178.118.355.177.472.177a.62.62 0 0 0 .531-.295c.117-.177.236-.472.236-.825 0-.236-.059-.472-.119-.766-.058-.295-.117-.59-.234-.884-.178-.472-.414-.825-.59-1.002-.118-.117-.177-.176-.296-.236v-1.59h.119c.53 0 1.001.058 1.473.236.471.176.826.412 1.179.766.353.294.59.707.765 1.119.119.471.236.883.236 1.414s-.117 1.002-.294 1.474a3.9 3.9 0 0 1-.824 1.178c-.355.294-.767.53-1.179.707-.472.118-.943.235-1.415.235zm0-74.006v-4.479c.119.177.236.295.355.472q.44.618 1.06.884c.413.235.825.353 1.296.353.355 0 .708-.058 1.003-.177.294-.117.648-.353 1.001-.648.059 0 .059-.059.117-.117.178-.118.295-.236.472-.236.178 0 .354.118.471.294.119.236.179.471.179.766 0 .472-.119.942-.415 1.356-.293.412-.588.588-.883.588h-.118c-.53.354-1.002.649-1.591.766a5.5 5.5 0 0 1-1.708.295c-.412 0-.825-.059-1.239-.117m0-8.072V92.12c.414-.117.767-.117 1.18-.117a5.7 5.7 0 0 1 1.708.236c.59.234.884.294.943.294.06 0 .177 0 .353-.06.119-.058.295-.058.355-.058.412 0 .765.294 1.119.825.296.53.472 1.12.472 1.767 0 .472-.176.826-.414 1.12-.234.353-.589.472-1.001.472s-.824-.236-1.119-.766c-.06-.118-.118-.177-.177-.236-.295-.413-.59-.766-1.001-1.002a2.14 2.14 0 0 0-1.179-.354c-.53 0-.943.119-1.239.414m0-3.772v-1.826h.06c.059 0 .118.058.236.176l.707.883c.117-.117.295-.235.472-.47l.648-.649h1.238c.058.06.117.118.117.176v.119c0 .059-.059.059-.118.117l-1.297 1.532c-.176.236-.295.354-.412.414-.117 0-.353.058-.648.058-.236 0-.412-.058-.53-.058l-.295-.295zm0-52.264v-.355c.06.06.06.236 0 .355m0-.355v.413c-.058.412-.294.648-.588.826-.294.117-.648.117-1.12 0-.117 0-.176 0-.294-.06-.059 0-.176-.059-.176-.059a2.6 2.6 0 0 0-.944 0c-.176.059-.354.119-.59.177V36.44c.236.058.532.117.767.176 1.179.236 2.004.53 2.416.884.353.177.53.47.53.765m0 50.793v1.826l-1.236-1.474c-.06-.058-.06-.117-.118-.117v-.177c0-.058.058-.118.177-.118h.765c.236 0 .354 0 .412.06m0 3.063v2.535c0 .057 0 .057-.058.117-.295.353-.412.825-.412 1.413 0 .531.058.943.176 1.356.118.235.178.472.294.707v4.479a5 5 0 0 1-.882-.236c-.59-.236-1.179-.648-1.71-1.119-.472-.413-.824-.944-1.12-1.473v-4.832c.296-.531.648-1.062 1.062-1.474a4.1 4.1 0 0 1 1.768-1.178c.294-.176.588-.236.882-.295m0 45.017v1.709h-3.712v-1.768zm0 4.125v1.708h-3.712v-1.708Zm0 4.007v1.767h-3.712v-1.767zm0 4.065v1.709h-3.712v-1.71zm0 20.27v1.59a.85.85 0 0 0-.412-.117.62.62 0 0 0-.529.294c-.177.177-.236.472-.236.766 0 .236.059.53.117.826.059.353.178.647.295.942.177.413.353.708.59.943q.089.088.175.177v1.708q-.53 0-1.06-.176c-.353-.118-.706-.236-1.001-.413-.53-.353-.943-.765-1.237-1.296-.236-.47-.354-.943-.414-1.473v-.53c.06-.354.119-.766.296-1.12q.354-.707.883-1.238a4 4 0 0 1 1.179-.706 5 5 0 0 1 1.354-.177m0 46.843v3.476c-.294.06-.646.119-1.001.236l-2.71.766v-4.3c.118.353.235.647.295.766.118.176.294.294.59.294.234.059.589 0 1.001-.118.707-.236 1.237-.471 1.59-.766.12-.118.177-.236.235-.354m-3.712-46.018v-.236zm0-117.905v-5.303c.414.707.826 1.355 1.298 2.062 0 .06 0 .06.058.177.236.412.59.825 1.002 1.237a.54.54 0 0 1 .177.414c0 .234 0 .47-.059.706-.118.471-.294.766-.589.884s-.825.059-1.59-.118zm0-16.085v3.122a3 3 0 0 1-.41.178c-.65.352-1.12.646-1.534 1.001-.353.293-.589.588-.648.824-.058.355.236 1.239.943 2.71.472.885 1.001 1.886 1.65 2.947v5.303l-3.535-.825c-.354-.059-.531-.118-.648-.235-.119-.119-.236-.353-.412-.708a35 35 0 0 1-1.298-2.828c-.648-1.532-1.118-2.299-1.413-2.357-.177-.059-.295 0-.353.118-.119.118-.178.295-.236.53q-.178.619-.178 1.061c0 .236 0 .472.118.59 0 .117.118.175.236.353.354.413.472.825.413 1.237-.177.53-.53.825-1.12.943h-.413V34.376l.884.176c1.297.296 2.181.648 2.71 1.003.472.352.708.765.59 1.296-.059.294-.176.47-.235.589-.119.117-.355.236-.59.295a1.9 1.9 0 0 0-.766.589c-.176.295-.353.765-.47 1.415-.06.234-.06.41 0 .588.058.118.175.236.294.236.176.058.353 0 .53-.059.235-.119.471-.295.766-.53a18 18 0 0 0 1.06-1.002c.296-.295.413-.472.472-.59 0-.058 0-.234-.059-.53-.058-.295-.058-.53-.058-.765q.175-.797 1.237-.884c.588-.06 1.413 0 2.473.236m0 58.628v4.832c-.058-.119-.058-.178-.117-.295a5.1 5.1 0 0 1-.47-2.121c0-.708.177-1.415.47-2.063 0-.117.059-.236.117-.353m0 42.011v1.768h-4.182l-4.656 8.19v-3.535l3.418-5.951.236-.472zm0 4.184h-3.593v1.708h3.593zm0 4.007h-5.302v1.767h5.302zm0 4.065v1.709h-7.01v-1.71zm0 20.859v.236c0 .177-.117.294-.353.294h-.057c-.238.06-.472.413-.767 1.12-.06.177-.119.353-.177.472l-.707 1.649q-.442.974-.707 1.59c-.177.354-.294.65-.413.767-.117.118-.236.236-.353.295-.059.058-.176.117-.354.117q-.62 0-1.414-2.12a4 4 0 0 1-.235-.59l-.65-1.59v-.06q-.53-1.326-.706-1.414c-.059 0-.117-.059-.176-.059-.236-.118-.353-.236-.353-.413 0-.294.176-.47.47-.59.295-.175.707-.234 1.296-.234q.972 0 1.415.177c.235.117.412.294.412.589 0 .177-.059.294-.236.353l-.176.177s.059.177.117.412c0 .06.059.06.059.06l.472 1.237c.059.117.117.235.176.294 0 .06.06.06.119.06s.117 0 .176-.119c.06-.059.118-.177.236-.412q.354-.885.53-1.237c.06-.177.118-.295.118-.413 0-.059-.059-.118-.235-.177h-.06c-.059-.058-.117-.118-.117-.118-.059-.059-.059-.117-.059-.176q0-.354.353-.53c.178-.118.531-.178.943-.178.53 0 .943.06 1.12.119.176.117.293.235.293.412m0 2.651v.531zm0 43.78v4.301l-4.477 1.297c-.412.118-.707.06-1.003-.058-.352-.178-.529-.472-.648-.885-.117-.412 0-.825.414-1.237.177-.236.294-.354.353-.472.117-.295.177-.648.117-1.119-.058-.472-.293-1.414-.706-2.887l-.53-1.886c-.413-1.473-.708-2.416-.884-2.887s-.354-.766-.53-.825c-.06-.059-.236-.118-.472-.118h-.472v-2.24h.06c.706-.53 1.709-.941 3.122-1.354 1.415-.413 2.475-.59 3.3-.531.767.06 1.238.295 1.355.766q.177.708-.53 1.237c-.118.178-.235.237-.294.355-.177.118-.236.294-.296.412v.471c.06.295.177.766.355 1.355.117.649.412 1.533.765 2.77l.472 1.65c.236.825.412 1.414.53 1.826zm-8.838 5.716c.296-.471.472-1.002.649-1.65a10 10 0 0 0 .176-1.709c-.059-.471-.235-.884-.53-1.178-.118-.118-.177-.176-.295-.236zm0-45.665v-2.004l.118-.118c.119-.295.295-.412.472-.412.176 0 .354.058.412.177.118.117.178.235.178.471s-.06.471-.119.707-.177.412-.295.648-.176.354-.294.413a.32.32 0 0 1-.295.176s-.059-.058-.117-.058zm0-4.95v-2.121c.237 0 .472.118.59.412.176.236.235.59.235 1.002a1 1 0 0 1-.176.59c-.059.117-.236.176-.353.176-.119 0-.178 0-.296-.059m0-76.836v-2.71c.296.06.53.118.649.177.353.117.47.353.47.708 0 .176 0 .293-.117.412-.058.117-.177.236-.472.412a.53.53 0 0 0-.353.353c-.059.119-.117.295-.177.648m1.592 6.718c0-.295.236-.531.589-.767.117-.059.236-.116.295-.176.117-.117.176-.412.234-.884.06-.47.119-1.355.119-2.652v-1.531c0-.53 0-.885-.059-1.12-.06-.177-.118-.353-.236-.413a1.3 1.3 0 0 0-.294-.176c-.295-.176-.471-.412-.471-.707 0-.353.235-.589.707-.766.47-.176 1.178-.295 2.18-.295.942 0 1.649.119 2.061.236.472.177.65.472.65.825 0 .235-.118.471-.354.648-.236.176-.413.235-.413.295-.06.117-.176.588-.176 1.355-.06.766-.06 2.004-.06 3.77 0 .472 0 .826.06 1.003 0 .236.058.353.176.412.06.06.117.176.294.236.295.236.472.472.472.707 0 .353-.236.648-.706.825-.472.176-1.239.236-2.18.236-.886 0-1.592-.06-2.122-.295-.472-.177-.766-.413-.766-.766m-1.592-67.231v16.027q-.882 0-2.651-.354-2.122-.53-3.005-1.061c-.59-.412-.824-.824-.707-1.296.059-.353.353-.707.825-.943.176-.058.294-.176.354-.176.294-.236.529-.708.825-1.473.235-.707.588-2.18 1.119-4.36.294-1.297.472-2.24.53-2.888s.059-1.06-.118-1.237l-.235-.235c-.353-.413-.53-.767-.472-1.12.119-.53.59-.825 1.355-.943.59-.118 1.297-.06 2.18.059m0 57.803v3.005c-.059.413-.118 1.12-.118 2.121v1.12c-.058.178-.058.412-.058.766-.06 1.473-.118 2.357-.176 2.592a2 2 0 0 1-.296.708.67.67 0 0 1-.471.177c-.236 0-.53-.119-.884-.413-.353-.235-1.06-.824-2.121-1.827-.412-.353-.883-.824-1.532-1.413-.824-.826-1.296-1.239-1.472-1.239-.178 0-.295.119-.414.296-.058.176-.058.53-.058 1.06 0 .353 0 .707.058 1.001.059.355.119.531.176.591 0 .057.179.176.414.352.236.119.412.355.412.59 0 .354-.176.589-.53.766-.353.176-.884.236-1.592.236-.766 0-1.296-.06-1.649-.236q-.53-.265-.53-.707c0-.236.117-.472.354-.649.236-.176.412-.236.412-.295.117-.176.176-.47.236-.882.059-.414.059-1.12.059-2.123 0-1.177 0-1.943-.059-2.473-.06-.472-.119-.826-.236-1.062-.06-.117-.236-.236-.412-.294-.119-.059-.119-.059-.178-.059-.117-.117-.235-.176-.293-.295-.119-.117-.119-.236-.119-.353 0-.355.177-.648.53-.767.412-.176 1.061-.234 2.063-.234.294 0 .53 0 .706.058.178 0 .355.059.472.118.178.118.354.236.648.47.236.179.648.591 1.238 1.12.058.059.117.178.294.295 1.474 1.415 2.416 2.121 2.652 2.121.118 0 .178-.058.235-.176.059-.118.059-.236.059-.472 0-.234 0-.53.06-.766v-.118c0-.353-.06-.589-.119-.706a1.08 1.08 0 0 0-.47-.412h-.06c-.294-.119-.413-.355-.413-.65 0-.353.178-.648.472-.765.295-.117.884-.236 1.768-.236.354 0 .707.059.942.059m0 51.322v3.535l-5.951 10.489-1.532-.826zm0 26.103v2.12a1.3 1.3 0 0 1-.235-.294l-.117-.117c-.178-.177-.296-.295-.472-.354a2.2 2.2 0 0 0-.707-.118c-.353 0-.59 0-.708.059-.057 0-.176.059-.176.059-.059.06-.059.177-.117.354v.647c0 .295 0 .472.058.53.06.06.178.06.354.06s.236 0 .294-.06a.62.62 0 0 0 .176-.294v-.117c.06-.354.236-.59.412-.59q.356 0 .531.354.178.355.177 1.06c0 .59-.058 1.002-.177 1.296-.117.295-.293.414-.53.414-.235 0-.353-.178-.413-.472v-.059c-.058-.236-.058-.353-.117-.413-.059-.059-.177-.117-.353-.117s-.236.058-.295.117-.117.236-.117.53c0 .414 0 .649.058.767 0 .118.06.236.06.294.058 0 .175.06.294.119h.59c.352 0 .647-.06.882-.119.236-.117.413-.235.53-.412.06-.059.118-.118.118-.177v2.004c-.47-.118-.942-.118-1.472-.118h-3.418c-.294 0-.472-.06-.589-.118-.059-.059-.117-.177-.117-.354s.117-.353.293-.471c.119-.06.177-.118.236-.118.117-.117.177-.412.236-.825.059-.353.059-1.06.059-1.944 0-.648 0-1.12-.059-1.356 0-.294-.059-.471-.119-.53-.057-.059-.117-.118-.353-.177-.176-.118-.235-.235-.235-.412s.06-.295.176-.412c.178-.06.355-.118.648-.118h2.475c.825 0 1.532 0 2.121-.118zm0 38.005v2.239h-.059c-.176-.059-.353-.177-.412-.294a1.3 1.3 0 0 1-.295-.472c-.117-.471.118-1.001.766-1.473m0 9.958c-.235-.118-.53-.236-.824-.176-.354 0-.648.353-.766.942-.06.236-.118.353-.177.472-.177.588-.472.942-.825 1.178-.354.236-.943.412-1.708.471-.414.059-.767 0-1.003-.059s-.412-.176-.47-.412c-.06-.118-.12-.413-.178-.825a30 30 0 0 1-.177-1.945l-.176-1.708c-.118-1.237-.176-2.18-.236-2.828v-1.415c0-.235.06-.353.06-.47q.087-.179.352-.355c.118-.059.236-.118.354-.235.53-.295.824-.707.767-1.12-.06-.53-.472-.883-1.179-1.06-.766-.177-1.886-.237-3.3-.118-1.472.177-2.593.412-3.358.766-.766.353-1.12.766-1.061 1.296 0 .177.059.353.118.53.118.118.235.236.412.353.06 0 .236.06.471.119.236.059.413.117.472.176.118.118.236.413.353.943.06.471.177 1.473.295 2.946l.177 1.945q.176 2.298.176 3.005-.088.707-.353 1.06c-.059.118-.236.236-.412.413-.472.353-.708.766-.648 1.178 0 .413.176.707.412.943.294.177.59.295 1.001.236l7.425-.648c.943-.06 1.826-.06 2.592.058h.236c.236 0 .471-.117.648-.235.236-.177.412-.354.53-.648zm-16.556 6.305v-4.597c.353 1.061.648 1.71.884 2.004.058.118.235.236.47.295.06.059.177.059.177.118.177.117.354.236.413.412.118.177.118.354.118.53-.06.531-.413.884-1.12 1.12-.235.059-.59.118-.942.118m0-48.965v-1.297h.766c-.177-.412-.354-.766-.472-1.002a2.3 2.3 0 0 0-.294-.353v-2.71h.117c.236 0 .472.059.649.118.176.059.353.177.471.294.118.177.353.472.53.884q.354.62 1.06 2.122c.119.294.236.647.472 1.12.295.706.47 1.119.59 1.236.058.06.176.118.235.118.059.06.118.06.118.06q.176.087.176.177c.06.058.118.117.118.234 0 .236-.176.413-.47.531-.354.118-.826.177-1.533.177-.766 0-1.296-.06-1.532-.177-.294-.059-.471-.236-.471-.472 0-.059.059-.176.059-.235l.177-.177h.118c.176-.118.235-.176.235-.295 0-.117-.06-.235-.294-.294-.177-.06-.472-.06-.825-.06m0-72.299V95.42l.412-.59c.059-.175.118-.235.177-.353.059-.058.059-.177.059-.236q0-.087-.177-.177c-.06-.059-.236-.059-.471-.059V92.12h4.006c.471 0 .766.059 1.002.177.176.118.235.295.235.588 0 .296-.412 1.179-1.296 2.535-.353.53-.589.943-.825 1.296l-1.885 3.123c-.06.118-.118.236-.177.294 0 .06-.059.178-.059.236 0 .059.059.119.236.178.059.058.236.058.471.058.354 0 .648 0 .884-.117.177-.06.354-.119.471-.295.059-.06.118-.236.236-.413.236-.53.53-.765.825-.765s.472.117.648.294c.118.235.236.53.236.884a3.6 3.6 0 0 1-.472 1.767c-.294.53-.648.825-.942.825-.059 0-.177-.058-.413-.117-.235-.06-.471-.06-.648-.06zm0-53.207V46.28h.176c.472 0 .825-.119 1.061-.295a.84.84 0 0 0 .412-.707c0-.413-.471-.766-1.59-1.18h-.06V33.256h.472c.648-.059 1.296.059 1.944.177l1.06.176c.177 0 .413 0 .708-.117.294-.059.53-.059.648-.059.235-.058.471 0 .707.118s.472.353.707.648c.353.413.65.884.883 1.356.237.47.354.884.354 1.296 0 .53-.117.884-.412 1.237-.294.295-.649.472-1.12.472-.412 0-1-.296-1.65-.944-.235-.235-.412-.353-.53-.47-.353-.295-.707-.473-1.06-.649a3.1 3.1 0 0 0-1.237-.236c-.354 0-.648.119-.884.295-.236.117-.295.353-.295.648 0 .53.825 1.06 2.357 1.532.295.059.412.059.53.119q2.565.706 3.536 1.766c.707.767 1.06 1.71 1.119 2.947 0 1.71-.648 3.064-1.945 4.184-1.295 1.06-3.063 1.59-5.125 1.65zm.825 116.255v-20.564h2.238v20.564zm4.595-1.71v-17.145h2.357v17.146zm2.181 10.431v-2.652c0-.295 0-.471-.059-.53 0-.059-.118-.177-.296-.236-.234-.118-.412-.295-.412-.472 0-.294.178-.47.472-.59.295-.116.766-.175 1.472-.175.708 0 1.179.059 1.474.118.294.117.412.294.412.53q0 .353-.354.53c-.234.118-.294.413-.353.825v1.414c0 1.002-.059 1.709-.176 2.004-.177.471-.472.883-.884 1.178-.413.236-1.003.412-1.65.412q-1.238 0-1.945-.53a1.68 1.68 0 0 1-.706-1.414c0-.354.117-.648.294-.825.235-.235.471-.354.825-.354.295 0 .53.119.766.295.176.177.295.472.295.766v.236c-.06.118-.06.236-.06.295s0 .117.06.177c.058 0 .118.058.176.058.236 0 .413-.118.472-.294.118-.177.177-.472.177-.766m-7.601-141.121v10.841a5.6 5.6 0 0 1-1.12-.412q-1.503-.53-2.475-1.237v-8.013c1.002-.707 2.18-1.12 3.595-1.179m0 13.023c-.59 0-1.12-.178-1.65-.472-.59-.295-1.12-.826-1.591-1.414-.118-.118-.236-.296-.354-.472v4.772c.236.119.53.178.884.295.884.236 1.767.355 2.71.413zm0 45.841v1.885h-.119c-.412 0-.706.059-.883.119-.176.059-.354.236-.471.412-.06.119-.06.176-.178.353-.176.531-.53.767-.942.767a.72.72 0 0 1-.59-.295c-.176-.177-.235-.413-.235-.706q0-.532.177-1.062c.177-.353.353-.648.53-.942.177-.236.353-.354.53-.472s.295-.176.472-.176c.117 0 .236.058.412.058.119.059.236.059.236.059zm0 3.3-2.475 3.77-.295.354c-.353.53-.648 1.003-.825 1.356v1.532q.354.176 1.061.176h2.534zm0 74.125v2.71h-.06c-.059 0-.117.118-.235.295s-.236.53-.471 1.06h.766v1.297h-.295c-.413 0-.649 0-.825.059-.177.059-.236.177-.236.294 0 .119 0 .119.06.177 0 .06.118.06.235.118.117.059.236.118.295.177 0 .059.058.118.058.235 0 .236-.117.354-.353.472-.295.118-.648.177-1.178.177q-.708 0-1.06-.177c-.12-.059-.237-.118-.296-.236v-.059c.06-.059.06-.177.06-.236s0-.117-.06-.176c.06-.059.177-.177.413-.236.176-.06.294-.117.353-.236.06-.058.118-.235.236-.47.118-.237.294-.65.59-1.298l.117-.294c.708-1.59 1.06-2.534 1.12-2.887 0 0 .058 0 .058-.059q.09-.618.708-.707m0 49.73v4.597q-.973.089-2.475 0c-.413-.059-.766-.118-1.12-.118v-14.2c.177.353.354.707.53 1.119.413.943 1.062 2.593 1.887 5.008.234.648.53 1.474.824 2.593.118.354.235.707.354 1.001m-3.595-63.46v-3.535l2.475 4.42-1.473.825zm0-121.38v8.013a4.7 4.7 0 0 1-1.001-.884c-.766-.824-1.12-1.825-1.18-3.004 0-1.533.532-2.77 1.71-3.772.177-.117.294-.236.47-.353m0 9.486v4.772c-.649-.234-1.06-.47-1.355-.765a4.4 4.4 0 0 1-.766-1.473 8.5 8.5 0 0 1-.294-2.18c0-.471.059-.826.235-1.002.177-.236.413-.353.766-.353.472 0 .943.295 1.355.943zm0 56.979v1.532c-.059 0-.059 0-.059-.059-.235-.118-.353-.294-.353-.59 0-.118.118-.411.412-.883m0 51.38v3.536l-4.183-7.365v-3.536zm0 23.452c-.059.059-.059.176-.059.235 0 .118 0 .177.059.236v-.059a.6.6 0 0 1-.353.295c-.296.177-.708.236-1.179.236-.235 0-.471-.06-.707-.118a1.5 1.5 0 0 1-.53-.236c-.235-.177-.412-.59-.59-1.237v-.059s-.058-.06-.058-.177c-.177-.766-.472-1.12-.766-1.179v-1.06c.176 0 .353-.118.472-.235.117-.178.176-.414.176-.767 0-.294-.06-.471-.176-.589a.54.54 0 0 0-.472-.236v-1.06h.648c.824 0 1.414.118 1.886.412.412.354.648.766.648 1.355q0 .353-.177.707c-.118.178-.295.354-.471.53-.06 0-.118.06-.237.118q-.176.09-.176.177c0 .06.059.118.235.177.236.059.354.118.413.177.236.117.353.294.472.53.117.177.176.472.235.825v.177c.058.295.177.472.236.53 0 0 .059 0 .059.06.235.058.353.117.412.235m0 33.822v14.2q-1.68-.265-2.474-.53c-.707-.295-1.003-.649-.943-1.179q0-.353.177-.53a1.6 1.6 0 0 1 .471-.354c.058 0 .118-.058.236-.058.412-.118.589-.354.589-.531.058-.353-.177-.59-.707-.766a7 7 0 0 0-1.532-.295v-2.946l1.65.177a22 22 0 0 0-.825-2.415c-.295-.531-.472-.767-.649-.825-.058 0-.118.058-.176.117v-6.068c.294-.118.589-.178 1.002-.118.589.058 1.119.176 1.532.352.353.178.707.414 1 .767.178.235.414.59.649 1.002m-4.183-33.115c.236-.059.294-.236.294-.472 0-.176-.058-.294-.294-.47zm0-73.831v-1.768c.294-.059.589-.116.825-.176.354-.176.647-.353.884-.648.059-.117.177-.236.294-.472.236-.412.472-.59.766-.59s.472.06.648.237q.176.266.177.708c0 .353 0 .706-.118 1.06-.118.353-.235.706-.412 1.061a3.8 3.8 0 0 1-.472.648.67.67 0 0 1-.471.176h-.177c-.59-.117-1.296-.236-1.944-.236m0-2.945c.294 0 .589-.236.766-.648.177-.472.236-1.12.236-2.004 0-.707-.06-1.238-.236-1.591-.177-.353-.413-.53-.766-.53zm0-5.716v-1.768c.589 0 1.179-.059 1.709-.118.059-.058.118-.058.118-.058.412 0 .707.236.942.589.236.412.353.884.353 1.532 0 .412-.117.707-.235.883-.177.236-.353.354-.648.354s-.53-.177-.767-.53a1 1 0 0 1-.176-.236 2.3 2.3 0 0 0-.766-.531 1.4 1.4 0 0 0-.53-.117m0-46.55V45.63v.06c.058.471.058 1.06 0 1.708m0-1.768v1.768a10 10 0 0 1-.472 1.71c-.176.294-.295.53-.53.708-.177.117-.353.234-.648.293h-.177c-.766-.059-1.65 0-2.592.177l-3.948.707V35.319c.118 0 .294.058.412.058.766.118 1.237.472 1.296.943.06.472-.117.825-.648 1.179-.117.117-.236.236-.353.294-.118.119-.236.295-.295.355-.059.116-.059.293-.059.47.059.354.059.825.177 1.414.118.648.236 1.592.471 2.828l.295 1.71c.177.825.295 1.473.353 1.885.118.412.177.706.236.825q.09.264.53.353c.236.059.589.059 1.003 0 .765-.176 1.296-.353 1.65-.648.353-.236.588-.648.765-1.237 0-.119.059-.295.059-.47.118-.65.354-.945.707-1.062.413-.059.825.059 1.12.353.353.236.53.59.647 1.06m0 46.55v1.768c-.177 0-.354-.059-.53-.059-.53 0-.884.059-1.002.059q-.266.087-.354.177c-.059.059-.118.236-.118.47-.059.295-.059.649-.059 1.062 0 .412.06.648.118.707.059.117.236.177.59.177.176 0 .353-.06.412-.119.118-.058.176-.236.236-.412 0-.058 0-.117.059-.176.117-.59.294-.944.647-.944v4.774h-.058c-.354 0-.531-.236-.59-.766 0 0 0-.06-.058-.06 0-.354-.118-.53-.177-.648-.118-.058-.236-.117-.471-.117q-.442 0-.531.176c-.059.119-.118.355-.118.767 0 .648 0 1.001.06 1.178 0 .235.058.354.117.412q.089.177.354.176c.176.059.53.059.942.059h.53v1.768h-5.596q-.709 0-.885-.176c-.177-.059-.236-.295-.236-.53 0-.295.177-.53.472-.707.176-.059.294-.178.353-.236.177-.178.296-.531.354-1.179.059-.59.118-1.59.118-3.005 0-1.002-.06-1.708-.06-2.12-.058-.414-.176-.708-.294-.767 0-.059-.177-.176-.471-.295-.236-.177-.413-.353-.413-.648 0-.236.118-.472.354-.589.235-.117.53-.177.942-.177h1.356c.884.06 1.709.06 2.475.06.53 0 1.06-.06 1.531-.06m0 52.736v3.536l-5.48-9.605h-2.887v-1.768h3.888l.236.472zm0 24.807v1.06h-.059c-.118 0-.177.06-.236.118-.059.118-.059.294-.059.648v1.002c.118 0 .118.058.177.058h.177v1.061h-.177c-.059.06-.059.06-.118.06v1.473c.059.117.059.177.118.235.059 0 .059.06.118.06h.059v.942c-.059 0-.059 0-.059.059a7.4 7.4 0 0 1-1.414.118q-.972 0-1.414-.177c-.295-.059-.472-.236-.472-.472 0-.176.177-.353.413-.47.06 0 .06-.06.117-.06q.09-.087.177-.707c0-.412.059-1.001.059-1.65v-.353c0-.767 0-1.238-.059-1.473 0-.236-.059-.354-.118-.413s-.117-.059-.235-.118c-.236-.117-.354-.294-.354-.47 0-.178.118-.296.354-.413.176-.06.47-.118.884-.118h1.944zm0 37.829v6.068c-.118.06-.295.236-.472.472a52 52 0 0 0-1.237 2.356l1.709.118v2.946c-.295-.058-.59-.118-.943-.118-.884-.058-1.532-.058-1.886.06-.353.059-.53.294-.589.648 0 .118 0 .235.118.353.059.06.236.177.471.295.295.177.53.294.59.413.118.176.118.353.118.589-.06.53-.354.825-.943 1.001-.53.177-1.415.236-2.593.118-1.06-.059-1.886-.236-2.416-.53a1.3 1.3 0 0 1-.294-.236v-1.59c.118-.119.412-.237.766-.295.412-.118.707-.236.825-.413q.265-.355.706-1.06c.295-.53.825-1.474 1.533-2.83l.353-.706c1.886-3.418 2.946-5.48 3.123-6.246.059 0 .059-.058.059-.118.177-.647.53-1.06 1.002-1.295m-8.367 3.298c.059-.176.118-.412.176-.588.295-1.061.236-1.886-.176-2.652zm0-35.942v-1.297h1.001c-.177-.412-.294-.766-.471-1.002-.118-.235-.236-.353-.295-.353s-.117.118-.235.295v.058-2.945c.118-.06.235-.118.353-.118.295 0 .53.059.707.118s.354.177.471.294c.177.177.354.472.59.884s.59 1.12 1.001 2.122c.118.294.296.647.472 1.12.294.706.53 1.119.648 1.236.059.06.118.118.236.118a.18.18 0 0 0 .118.06l.177.177c.059.058.117.117.117.234q0 .354-.53.531c-.295.118-.766.177-1.473.177q-1.149 0-1.591-.177c-.295-.059-.472-.236-.472-.472 0-.059 0-.176.06-.235l.176-.177h.118c.177-.118.236-.176.236-.295 0-.117-.118-.235-.295-.294-.235-.06-.59-.06-1.12-.06m0-23.864v-1.71h5.715v1.71zm0-4.007h4.007v-1.767h-4.007zm0-4.066h2.297v-1.708h-2.297zm0-43.071v-7.66c.235.058.412.117.589.117.412.177.589.472.589.825 0 .354-.118.59-.47.824h-.06c-.294.178-.472.59-.53 1.179v2.18a24 24 0 0 1-.118 2.535m0-64.58v15.673l-3.359.59q-.618.088-1.06-.177-.354-.266-.53-.884c-.06-.413.117-.826.588-1.238.178-.176.295-.295.354-.412.177-.235.236-.648.236-1.119 0-.472-.118-1.473-.412-2.947l-.295-1.945c-.295-1.472-.472-2.475-.59-2.945-.176-.472-.294-.766-.412-.884-.06-.059-.236-.118-.472-.118-.294-.058-.412-.058-.53-.118-.059 0-.118-.059-.176-.059v-1.768c.117-.117.294-.235.53-.412.707-.413 1.826-.707 3.24-1.001a19 19 0 0 1 2.888-.236m0 56.92v7.66c-.059.234-.059.412-.118.529-.295.825-.707 1.415-1.415 1.827-.647.413-1.472.589-2.533.589s-1.886-.176-2.592-.59v-4.123h.235c.471 0 .884.176 1.237.472.295.294.472.646.472 1.118 0 .118-.06.236-.06.412-.058.178-.058.295-.058.414 0 .117.059.177.118.234a.45.45 0 0 0 .236.119c.353 0 .589-.119.765-.412.177-.295.236-.708.236-1.179v-4.066c0-.412 0-.707-.059-.824-.059-.119-.235-.236-.47-.355-.413-.176-.59-.412-.59-.707 0-.472.177-.765.648-.942.412-.176 1.178-.295 2.24-.295.706 0 1.295.059 1.708.119m0 44.84v1.767h-6.658v-1.709zm0 4.183v1.708h-6.658v-1.708Zm0 4.007v1.767h-6.658v-1.767zm0 4.065v1.709h-6.658v-1.71zm0 20.329v2.945c-.118.177-.295.531-.471 1.002h.47v1.297c-.412 0-.706 0-.824.059-.177.059-.236.177-.236.294 0 .119 0 .119.06.177 0 .06.116.06.234.118.119.059.236.118.236.177.06.059.118.118.118.235 0 .236-.118.354-.412.472-.236.118-.59.177-1.12.177q-.706 0-1.06-.177c-.236-.118-.354-.236-.354-.472 0-.117 0-.176.059-.235s.176-.177.412-.236c.177-.06.295-.117.354-.236.059-.058.118-.235.236-.47.118-.237.294-.65.589-1.298l.118-.294c.706-1.59 1.06-2.534 1.12-2.887v-.059c.058-.295.234-.53.47-.59m0 37.946v3.24c-.118.236-.295.472-.413.649-.294.354-.589.648-1.002.825-.118 0-.294.118-.47.177-.355.118-.53.235-.59.354 0 .117.118.293.412.47.295.178.472.295.648.413.472.412.767.943.944 1.532.176.648.117 1.356-.118 2.122-.354 1.414-1.179 2.356-2.299 2.945-1.119.531-2.356.649-3.77.295v-4.125a2.5 2.5 0 0 0 .235-.707c.177-.648.177-1.178-.059-1.59-.059-.06-.118-.118-.176-.236v-2.829c.235 0 .412-.059.589-.176.294-.236.59-.707.766-1.414.235-.767.294-1.355.117-1.71-.176-.293-.589-.589-1.178-.765-.118-.06-.236-.06-.294 0v-2.593c.235.059.47.118.766.177.883.236 1.414.412 1.709.471 1.885.53 3.122 1.237 3.83 2.063.116.118.235.294.353.412m0 12.904c-.059 0-.118.059-.177.118-.118.118-.177.354-.236.589 0 .354.118.649.413.884zm-6.658-43.78v-1.414c.117 0 .176-.059.294-.117a.32.32 0 0 0 .176-.295c0-.118-.176-.294-.47-.413v-2.887a2.9 2.9 0 0 0 .942.413.45.45 0 0 0 .236.059c.766.235 1.237.53 1.532.824.295.354.471.766.471 1.296 0 .767-.294 1.356-.884 1.827q-.884.708-2.297.707m0-5.656h.058c.06-.118.236-.118.412-.118.178 0 .354 0 .53.118.178.059.296.177.472.294.06 0 .118.118.177.177.295.295.59.412.766.412a.67.67 0 0 0 .472-.176q.177-.177.176-.53c0-.177 0-.354-.118-.59-.117-.177-.235-.412-.412-.589a.7.7 0 0 0-.294-.294c-.06-.06-.177-.06-.295-.06-.06 0-.118 0-.295.06h-.294s-.177 0-.472-.06c-.294-.058-.59-.117-.883-.117zm0-118.906q.706-.707.353-1.415c-.06-.176-.177-.295-.353-.412zm0-15.203v1.768c-.118-.117-.178-.176-.236-.236q-.177-.177-.177-.53c-.06-.354.059-.707.413-1.002m0 13.376v1.827c-.06.058-.06.058-.118.117-.53.53-1.532 1.12-2.947 1.768-1.59.707-2.71 1.12-3.476 1.179-.707.117-1.178-.119-1.414-.59-.059-.176-.118-.353-.059-.53 0-.176.059-.354.236-.53 0 0 .059-.118.177-.177.294-.295.353-.53.294-.765-.177-.295-.471-.414-1.002-.295-.059 0-.176 0-.235.059V43.98q1.06.885 2.65 2.299c.473.412 1.18 1.06 2.005 1.826 1.237 1.238 2.062 1.886 2.474 2.062.176.06.354.06.648 0h.236q.265 0 .53.177m0 47.787v4.124l-.354-.176c-.707-.59-1.061-1.298-1.061-2.18 0-.531.176-.944.471-1.238.236-.294.59-.472.944-.53m0 39.006v1.709l-8.544.059v-1.768zm0 4.125v1.708H95.92v-1.708Zm0 4.007v1.767H95.92v-1.767zm0 4.065v1.709H95.92v-1.71zm0 20.27v1.473a.45.45 0 0 0-.118.294c0 .06.059.118.118.236v2.887c-.06-.059-.178-.059-.236-.117a2.8 2.8 0 0 1-.53-.178 3.8 3.8 0 0 1-1.532-.942c-.295-.413-.472-.825-.472-1.355 0-.648.236-1.238.766-1.65s1.179-.648 2.004-.648m0 5.715h-.236a1.64 1.64 0 0 1-.767-.176 7 7 0 0 1-.706-.649c-.06-.059-.118-.117-.177-.236-.176-.294-.354-.47-.59-.47-.176 0-.235.058-.353.176a.9.9 0 0 0-.118.471c0 .295.059.649.118.944.118.294.236.471.354.647.177.177.47.354.942.472s1.002.235 1.533.235zm0 29.167v2.593c-.06 0-.118.058-.118.118v.176l-.885 3.123c-.058.177-.058.295-.058.353a.32.32 0 0 0 .294.177c.295.118.53.118.767.118v2.829c-.236-.295-.649-.471-1.18-.649q-.353-.087-.53 0c-.058 0-.117.178-.176.354-.176.53-.354 1.06-.471 1.532-.118.471-.177.884-.236 1.12-.118.471-.118.766-.059.883.118.118.295.236.59.295q.795.266 1.413-.177c.236-.176.471-.47.649-.825v4.125c-.118-.06-.178-.06-.295-.118l-8.25-2.357v-2.534a.9.9 0 0 0 .354-.471c.236-.353.472-1.06.825-2.063.354-1 .707-2.18 1.12-3.534l.47-1.591c.237-.884.355-1.533.413-1.827.06-.354 0-.59-.058-.707-.118-.059-.236-.177-.413-.354-.53-.353-.707-.766-.589-1.178.118-.413.353-.707.707-.766q.53-.178 1.591.177c.236.059.707.176 1.296.353s1.002.353 1.355.413c.413.118.943.294 1.474.412m-8.544 2.475c.412-.177.766-.59 1.06-1.179.295-.471.413-1.06.472-1.708.059-.59 0-1.238-.118-1.886a1.22 1.22 0 0 0-.354-.59c-.117-.234-.294-.353-.53-.47a2.7 2.7 0 0 0-.53-.177zm0-104.353V92.061h.648a10 10 0 0 1 2.239.236c.471.176.707.471.707.824q0 .443-.53.708c-.118.059-.236.059-.295.118-.118.058-.176.177-.236.236-.059.058-.059.117-.118.294v.943c-.058.472-.058 1.06-.058 1.944v1.119c0 .59 0 1.002.058 1.297v.59a.6.6 0 0 0 .354.294c.118.06.354.117.648.117.53 0 .884-.057 1.179-.234.235-.119.47-.354.648-.708 0-.118.059-.176.117-.354.118-.353.295-.588.59-.588q.353 0 .707.352c.177.236.236.472.236.826 0 .353-.06.706-.177 1.12-.177.412-.295.765-.53 1.06-.118.177-.236.353-.413.413-.118.117-.295.117-.471.117h-.118a7.6 7.6 0 0 0-1.71-.177zm0-58.628v8.427c-.53.117-1.238.353-2.122.765-.235.119-.412.177-.589.295v-3.182l1.533-.708c-.59-.589-1.12-1.06-1.533-1.413v-6.245c.354.234.825.529 1.297.884.353.293.824.646 1.414 1.177m0 48.081v10.547h-1.533c-.294 0-.53-.059-.648-.235-.176-.177-.294-.413-.294-.648 0-.294.177-.53.53-.766.177-.119.236-.178.295-.235.176-.119.236-.355.294-.708.06-.295.06-.943.06-2.003v-3.301c-.06-.352-.118-.588-.178-.648-.059-.059-.176-.117-.294-.176-.177-.059-.295-.059-.354-.117-.117-.059-.176-.178-.235-.236-.059-.119-.059-.236-.059-.354 0-.353.235-.648.825-.825.353-.177.943-.236 1.59-.295m0 45.076v1.768h-2.71v-1.768zm0 4.125v1.708h-2.71v-1.708Zm0 4.007v1.767h-2.71v-1.767zm0 4.065v1.709h-2.71v-1.71zm0 51.617v6.01c-.413.176-.885.118-1.356-.118-.294-.118-.53-.413-.707-.707a2.5 2.5 0 0 1-.294-1.179c0-.176 0-.353-.059-.589 0-.589-.118-1.001-.295-1.12v-3.476l1.885 1.002c.06 0 .296.06.59.118.059.059.176.059.236.059m0 14.671v2.534c-.648-.177-1.061-.412-1.297-.648s-.353-.59-.236-.943c.06-.176.177-.353.295-.47.177-.119.236-.178.353-.178.119.059.355 0 .649-.176.059 0 .176-.06.236-.119M93.21 57.473v-2.18c.117 0 .235 0 .294.059.177.06.294.236.412.472.177.47.06.884-.353 1.355-.118.06-.236.177-.354.294m0-15.554v6.245c-.119-.059-.237-.177-.354-.236-.472-.355-.826-.47-.943-.412-.177.057-.236.295-.295.824 0 .472 0 1.355.06 2.593l1.531-.648v3.182c-.53.236-.884.472-1.06.648-.295.236-.354.53-.177.825.058.176.118.295.236.295.117.058.294.058.588.058h.413v2.18c-.471.354-1.06.708-1.886 1.062-1.001.412-1.767.648-2.356.648-.59 0-.943-.178-1.179-.59-.059-.236-.118-.472-.059-.648.059-.236.236-.472.59-.825.353-.295.53-.53.53-.765.059-.295.118-.708.118-1.298v-3.946c-.06-3.89-.177-6.247-.353-7.014v-.117c-.236-1.06.117-1.827 1.06-2.239a5.7 5.7 0 0 1 1.473-.413c.412 0 .883 0 1.237.177.236.119.53.236.825.414m0 95.218v1.768h-7.248v-1.709zm0 4.125v1.708h-4.302v-1.708Zm0 4.007v1.767h-2.593v-1.767zm0 4.065v1.709h-.885v-1.71zm0 50.438v3.476h-.06a.284.284 0 0 0-.412 0c-.177.06-.295.236-.472.531l-.294.648a47 47 0 0 1-1.297 2.357c-.589 1.18-1.12 2.062-1.414 2.77-.353.648-.53 1.178-.589 1.473-.058.353.06.648.236.883.059.118.117.177.235.295.354.472.413.825.177 1.237-.236.53-.766.766-1.59.649-.826-.118-2.005-.53-3.536-1.356-.943-.471-1.709-.943-2.239-1.473v-2.533h1.002c.294-.06.765-.53 1.355-1.414.589-.885 1.296-2.122 2.12-3.771l.413-.826c.472-.884.708-1.473.766-1.767.06-.295-.058-.472-.235-.59-.235-.117-.648 0-1.18.295-.176.059-.293.118-.411.177-.59.295-1.061.471-1.355.53a1.3 1.3 0 0 1-.943-.177 1.4 1.4 0 0 1-.707-.825q-.089-.618.176-1.237c.236-.412.53-.766.943-1.119.413-.413.943-.766 1.532-1.06.413-.237.825-.414 1.179-.472.353-.06.648-.06.883.058.118.06.236.236.472.413.177.236.354.353.471.413zm-11.255.943c.294-.471.471-1.001.649-1.591.293-1.001.412-2.003.293-3.064-.176-1.002-.471-1.944-.942-2.828zm0-98.99v-2.534c0 .058.059.118.117.118q.177.353.177.884c0 .531-.117 1.06-.294 1.532m0-7.425v-2.121c.117.06.235.06.294.118.236.118.295.295.295.588 0 .236-.177.708-.589 1.415m0-29.815v-9.664c.353 0 .649.06 1.001.236.649.236 1.179.648 1.65 1.298.884 1.118 1.238 2.357 1.002 3.593-.236 1.297-.943 2.416-2.24 3.419zm7.07 38.123h-5.184q-.62 0-.885-.176c-.176-.059-.235-.295-.235-.53q0-.442.53-.707c.118-.059.236-.178.295-.236.176-.178.295-.531.353-1.179.118-.59.118-1.59.118-3.005 0-1.002 0-1.708-.059-2.12-.059-.414-.117-.708-.236-.767a2.3 2.3 0 0 0-.47-.295c-.296-.177-.413-.353-.413-.648 0-.236.058-.472.294-.589s.53-.177.944-.177h1.413c.825.06 1.65.06 2.416.06 1.237 0 2.298-.06 3.24-.178.06-.058.12-.058.177-.058.354 0 .649.236.885.589.235.412.353.884.353 1.532 0 .412-.059.707-.236.883-.177.236-.353.354-.589.354-.294 0-.59-.177-.825-.53-.059-.119-.118-.236-.177-.236a2.8 2.8 0 0 0-.707-.531q-.442-.176-1.06-.176c-.53 0-.884.059-1.06.059-.178.058-.237.117-.354.177-.06.059-.06.236-.118.47 0 .295-.059.649-.059 1.062 0 .412.059.648.117.707.118.117.295.177.59.177.236 0 .353-.06.471-.119a.67.67 0 0 0 .177-.412c.059-.058.059-.117.059-.176.118-.59.353-.944.648-.944.353 0 .59.178.766.531s.295.884.295 1.59c0 .885-.118 1.533-.295 2.005-.177.412-.472.648-.825.648-.295 0-.53-.236-.59-.766v-.06c-.058-.354-.117-.53-.235-.648-.059-.058-.235-.117-.471-.117q-.354 0-.53.176c-.06.119-.118.355-.118.767 0 .648 0 1.001.058 1.178 0 .235.06.354.118.412a.53.53 0 0 0 .413.176c.177.059.471.059.943.059.53 0 .942-.059 1.296-.176.354-.176.648-.353.884-.648.059-.117.176-.236.295-.472.235-.412.53-.59.824-.59.236 0 .472.06.59.237s.235.413.235.708q0 .53-.176 1.06c-.06.353-.236.706-.413 1.061-.177.293-.294.53-.472.648a.64.64 0 0 1-.412.176h-.236c-.707-.176-1.531-.236-2.357-.236m-7.07-47.787v9.664l-3.3 2.594v-4.302c.295.354.53.53.649.53.176 0 .353-.059.648-.295.412-.353.647-.765.647-1.237q0-.795-.706-1.591c-.354-.53-.825-.824-1.238-.884v-8.427c.236.178.413.414.59.65q.529.618.707 1.237c.117.412.117.884.059 1.296-.06.117-.118.295-.178.47-.058.355-.117.59 0 .709.06.117.295.058.59-.059.295-.119.53-.236.707-.295.295-.06.53-.06.825-.06m0 37.358V94.3c-.236.295-.472.707-.707 1.12-.354.53-.649.943-.825 1.296l-1.768 2.828V92.12h2.593c.294 0 .53.059.707.059m0 7.012a.96.96 0 0 0-.53-.176c-.354 0-.59.234-.826.765-.117.177-.176.353-.294.413-.06.176-.236.235-.412.295-.236.117-.53.117-.884.117h-.354v2.003h1.12c.236 0 .47 0 .707.06.177.059.353.117.412.117.295 0 .59-.294.884-.825.06-.059.118-.177.177-.235zm0 94.041v7.483c-.236.471-.53.884-.884 1.296a8.4 8.4 0 0 1-2.416 2.18v-14.318c.295.177.59.412.884.648a9.4 9.4 0 0 1 2.298 2.534c0 .059.059.118.118.177m0 15.497v2.533a2.6 2.6 0 0 1-.413-.353c-.589-.648-.707-1.179-.471-1.65.118-.295.412-.53.884-.53m-3.3-117.374v-1.768l.472.529c.118-.117.236-.235.412-.47.413-.354.59-.589.648-.649h1.237q.177.09.177.176v.119l-.118.117-1.296 1.532a1.4 1.4 0 0 1-.471.414c-.06 0-.295.058-.59.058-.235 0-.353-.058-.47-.058m0-40.482V59.3h-.059c-.471-.059-1.002.119-1.531.53-.178.178-.296.295-.354.413 0 .117.058.236.176.413.354.412.707.825 1.002 1.237.294.354.59.648.766.884v4.302l-2.003 1.59c-.53.354-.943.588-1.296.648q-.531.088-.884-.353l-.059-.059v-1.002c.059-.118.118-.294.118-.471.059-.295 0-.59-.118-.825v-9.075l.412.53c.118.12.236.237.295.237q.177 0 .353-.178c.413-.353.648-.706.707-1.118q0-.62-.707-1.415c-.353-.53-.766-.883-1.06-1.001v-3.714c.766-.412 1.473-.646 2.062-.706.824-.059 1.532.177 2.18.706m0 38.714v1.768h-.059c-.117-.06-.236-.178-.353-.295l-1.415-1.65c0-.06-.059-.118-.059-.118v-.177c0-.058 0-.118.118-.118h.826c.176 0 .353 0 .412.06.118 0 .177.058.235.176zm0 2.533v7.424l-.176.295a1.3 1.3 0 0 1-.177.294c-.06.06-.06.178-.06.236q0 .089.178.178c.059 0 .117.058.235.058v2.003h-4.242v-2.945l.059-.119.235-.353 2.947-4.36c.059-.176.117-.236.177-.354 0-.058.058-.177.058-.236q0-.087-.176-.177c-.119-.059-.295-.059-.648-.059s-.649.059-.826.119c-.176.059-.353.236-.47.412-.06.119-.119.176-.178.353-.235.531-.53.767-.943.767-.117 0-.176 0-.235-.059v-2.769c.059-.06.059-.119.118-.177.176-.236.353-.354.53-.472a.67.67 0 0 1 .47-.176c.119 0 .237.058.355.058.177.059.235.059.294.059zm0 97.753v14.319l-.118.058q-1.414.795-3.181.884a2.5 2.5 0 0 1-.943 0v-4.183c.235-.236.53-.472.766-.766a10.5 10.5 0 0 0 1.001-1.591c.295-.589.53-1.179.707-1.827.354-1.179.472-2.062.412-2.71-.058-.707-.353-1.238-.824-1.59-.354-.296-.825-.355-1.355-.237a2 2 0 0 0-.707.354V188.4c.707.06 1.414.177 2.121.413a9 9 0 0 1 2.121 1.06m-4.242-139v3.714c-.06-.06-.177-.06-.236-.118-.354-.06-.825.118-1.297.53q-.176.087-.176.177c-.059.059 0 .176 0 .236.059 0 .059 0 .059.059.059 0 .059 0 .117.057l1.533 2.004v9.016c-.177-.353-.59-1.001-1.179-1.827-.648-.884-1.354-1.885-2.24-3.005l-1-1.296q-.885-1.061-1.238-1.415c-.06-.058-.118-.117-.118-.177v-3.593c.295-.236.59-.414.766-.59a31 31 0 0 1 1.768-1.414c.708-.588 1.179-1.002 1.414-1.179.648-.47 1.237-.883 1.827-1.179m0 17.03v1.002c-.118-.177-.177-.296-.177-.472 0-.236 0-.353.059-.353.059-.059.059-.119.118-.177m0 24.925v2.77c-.177 0-.295-.12-.412-.237q-.178-.266-.178-.706 0-.532.178-1.062c.117-.236.235-.529.412-.765m0 6.835v2.945c-.412-.059-.707-.117-.884-.235-.235-.118-.353-.294-.353-.59q0-.353 1.237-2.12m0 88.737v4.184c-.236.176-.53.47-.766.766-.353.413-.649 1.001-.943 1.65-.294.648-.59 1.295-.824 2.061-.237 1.003-.355 1.828-.237 2.476.06.707.295 1.178.767 1.531.412.354.824.413 1.296.236a2 2 0 0 0 .707-.353v4.183a6.7 6.7 0 0 1-2.121-.353c-1.002-.354-1.945-.884-2.888-1.59-.294-.237-.53-.473-.766-.708V190.52c.472-.412 1.002-.825 1.65-1.119a6.87 6.87 0 0 1 3.182-.943c.295-.059.648-.059.943-.059m-5.775.943c.236-.354.413-.648.648-1.002a8.9 8.9 0 0 0 .884-2.946 8.5 8.5 0 0 0-.412-3.181c-.295-.767-.648-1.533-1.12-2.24zm0-112.248.059-.118q1.326-1.502 1.945-2.829c.353-.884.59-1.767.53-2.65-.058-1.12-.295-2.122-.825-3.065-.413-.824-1.002-1.59-1.709-2.297zm0-21.86v3.593c-.177-.116-.353-.176-.471-.176s-.294.06-.53.117c-.53.178-.884.119-1.179-.117v-1.65c.176-.235.412-.413.707-.707.236-.118.59-.412 1.06-.767.178-.116.296-.176.413-.293m0 10.901v10.959c-.353.412-1.002 1.06-1.885 2.004-.119.117-.177.234-.295.294V75.27c.353-.649.471-1.356.295-2.005-.06-.293-.177-.53-.295-.824v-7.955c.59.295 1.12.708 1.709 1.238.177.118.294.236.471.413m0 113.838v9.37a8.7 8.7 0 0 1-1.473 1.472c-.236.236-.471.413-.707.59v-13.73c.53.413 1.12.943 1.59 1.591.237.235.413.472.59.707m0 10.547c-.353.295-.648.649-.883.943a8 8 0 0 0-1.297 2.416v5.185l.06.177c.235.766.647 1.473 1.118 2.122.295.412.649.766 1.002 1.119zm-2.18-133.518v1.649c-.06 0-.118-.059-.118-.117q-.443-.531-.176-1.062c.058-.117.117-.294.294-.47m0 7.482v7.955c-.354-.648-.943-1.355-1.827-2.121-.824-.707-1.531-1.238-2.239-1.532v-5.363h.06c1.355-.057 2.651.295 4.006 1.061m0 10.784v4.124c-.177.176-.294.295-.354.412-.176.236-.412.472-.707.767-.294.295-.471.53-.53.647l-.825.885-.176.235c-.472.413-.825.706-1.12.766h-.354v-9.252l.59.531c.766.65 1.296 1.061 1.59 1.297.354.295.649.471.884.471.177.059.354-.059.59-.295.118-.176.294-.412.412-.588m0 102.407v13.73a8.7 8.7 0 0 1-2.239 1.06c-.59.177-1.178.294-1.827.294v-5.539c.236-.235.472-.47.649-.765.412-.53.766-1.061 1.119-1.65.53-1.06.884-1.886.943-2.592.059-.649-.059-1.238-.412-1.65-.354-.413-.766-.59-1.297-.53-.353 0-.648.117-1.002.294v-4.36h.177a7.4 7.4 0 0 1 2.887 1.001c.354.236.708.472 1.002.707m0 16.204v5.185c-.413-1.296-.53-2.592-.294-3.888.058-.472.176-.885.294-1.297M62.392 63.424v5.363q-.795-.442-1.413-.53c-1.061-.118-2.004.235-2.77 1.119-.118.117-.177.236-.236.353v.295c.059 0 .176.177.472.412.235.236.942.825 2.003 1.77.707.587 1.356 1.177 1.944 1.647v9.252c-.176 0-.412-.117-.588-.294-.119-.119-.237-.236-.296-.414-.117-.117-.117-.293-.117-.529 0-.177 0-.353.117-.59.06-.235.119-.411.119-.53-.06-.176-.59-.767-1.592-1.708-.942-.885-2.415-2.18-4.36-3.89v-6.953c.53-.588 1.002-1.178 1.473-1.768 1.65-1.826 3.359-2.828 5.244-3.005m0 112.543v4.361c-.235.118-.471.294-.707.47q-.62.532-1.237 1.416c-.472.53-.884 1.178-1.237 1.884-.472.885-.708 1.65-.766 2.358-.059.707.058 1.237.412 1.65q.53.618 1.237.53c.53-.059 1.061-.354 1.65-.825.236-.177.472-.413.648-.59v5.54c-.471.058-.943 0-1.472-.059a7.4 7.4 0 0 1-2.888-1.003c-.884-.47-1.65-1.119-2.357-1.944v-11.431c.177-.177.412-.353.648-.589a9 9 0 0 1 2.888-1.532 8.3 8.3 0 0 1 3.181-.236m-6.717-2.062v-2.769c.648-.236 1.12-.118 1.356.294q.352.708-.177 1.414c-.236.295-.648.648-1.179 1.06m0-5.068c.472-.235.825-.353 1.002-.412.118-.059.294 0 .471.177.118.118.295.413.531.707.412.825.707 1.473.766 1.945.118.53.058 1.06-.118 1.65 0 .117-.06.177-.118.353-.177.648-.236 1.12-.06 1.414.237.354.472.53.826.59.294.058.707-.06 1.12-.295a4.5 4.5 0 0 0 1.767-1.71c.472-.648.53-1.177.295-1.59 0-.059-.118-.177-.295-.412-1.178-1.71-2.416-3.595-3.535-5.598-.354-.59-.707-1.237-1.06-1.886s-.59-1.06-.59-1.119c-.354-.53-.648-.943-1.002-1.12zm0-72.533v-6.247c.177-.412.294-.765.354-1.118 0-.472-.06-.884-.236-1.238 0-.058-.059-.118-.118-.177v-4.007c1.415.884 2.357 1.591 2.77 2.122.766 1.001 1.119 2.062 1.06 3.358 0 1.238-.412 2.592-1.237 4.184-.766 1.355-1.591 2.416-2.593 3.123m0-28.107v6.954l-.648-.531q-.53-.441-.707-.53c-.118 0-.295 0-.648.177-.295.117-.59.176-.766.117-.177 0-.413-.117-.59-.293-.412-.296-.53-.708-.47-1.062.117-.413.53-1.06 1.296-1.944.117-.118.294-.353.589-.649.235-.293.412-.47.59-.648 0-.059.352-.412 1-1.179zm0 15.32v4.007c-.177-.295-.471-.59-.943-.884q-.796-.53-3.004-1.767l-.59-.294c-1.002-.531-1.65-.884-2.003-1.003-.354-.117-.649-.176-.825-.117-.059 0-.295.177-.648.413-.354.295-.707.352-1.002.176-.412-.176-.53-.648-.47-1.296q.175-1.062.882-2.475c.472-.825.943-1.414 1.356-1.768.47-.354.883-.412 1.296-.236.354.236.53.648.59 1.238v.236c.058.413.412.825 1.237 1.356.059 0 .118.057.118.116q.884.53 2.474 1.414c.59.295 1.06.648 1.532.884m0 6.54c-.058.059-.058.178-.118.236-.47.943-1.119 1.415-1.826 1.532-.766.119-1.768-.176-3.064-.884-1.532-.825-2.652-1.413-3.36-1.884-.706-.472-1.06-.826-1.06-1.002v-.295c-.058-.412-.117-.765-.294-1.001v7.66l4.302 2.238c1.473.826 2.887.884 4.36.236.354-.177.706-.353 1.06-.589zm0 71.474v7.306c-.471.178-1.002.472-1.532.767-.118.118-.236.177-.236.294 0 .118.118.354.354.766.177.295.354.472.471.53.177.06.413.06.649 0 .058 0 .176-.058.236-.058h.058v2.769c-.294.177-.589.353-.943.59-1.06.589-1.944.942-2.534 1.001-.647.059-1.119-.117-1.414-.59-.058-.176-.117-.353-.058-.588 0-.236.118-.354.235-.53.118 0 .177-.119.236-.178.825-.647 1.06-1.237.707-1.826-.176-.236-.294-.413-.412-.471-.118 0-.354.058-.648.235l-.118.06c-.884.529-1.532.942-1.886 1.236-.412.354-.589.59-.589.825 0 .118.059.295.118.53s.117.413.117.472c0 .236-.058.413-.117.59a1.4 1.4 0 0 1-.413.412c-.53.294-1.12.235-1.65-.236-.117-.058-.235-.177-.353-.294v-6.953c.118-.06.236-.06.353-.119q.795-.352 3.005-1.59a89 89 0 0 0 3.359-2.062c.825-.53 1.296-.885 1.355-1.061.118-.118.118-.353.06-.59-.06-.294-.06-.412-.06-.53.06-.177.06-.353.177-.471.059-.06.177-.176.295-.236a1.1 1.1 0 0 1 1.12-.059zm0 16.793v11.431l-.177-.176c-.53-.708-1.001-1.414-1.355-2.18-.353-.766-.53-1.532-.648-2.357-.177-1.415 0-2.711.471-4.007.413-1.061.943-1.945 1.71-2.711m-9.722-32.937v-6.07c.118.059.236.118.353.118a.33.33 0 0 0 .295-.176c.059-.118.118-.236.118-.472q0-.706-.354-1.237c-.117-.236-.235-.413-.412-.472v-2.592c1.237 0 2.24.353 2.946 1.001.766.707 1.179 1.591 1.179 2.71 0 1.002-.236 2.063-.708 3.124-.471 1.06-1.178 2.18-2.121 3.24-.294.354-.53.53-.707.648a.67.67 0 0 1-.471.178zm0-32.231v-5.361h.177c1.001.234 1.708.412 2.239.47.53 0 .883-.058 1.001-.176.06-.118.177-.294.295-.53.059-.236.177-.354.236-.414.117-.176.294-.236.47-.294.178-.058.413-.058.59 0 .59.118.943.589 1.06 1.297.06.707-.058 1.825-.47 3.357q-.532 2.388-1.237 3.359c-.413.59-.885.825-1.474.708-.53-.117-.825-.53-.943-1.12-.059-.176-.059-.295-.118-.353-.058-.236-.353-.414-.942-.648-.177-.118-.472-.178-.884-.295m0-6.953v-3.064c.825.294 1.473.53 1.885.884.472.353.707.825.53 1.356 0 .176-.117.353-.294.47-.236.178-.412.236-.59.178h-.294q-.795-.089-1.237.176m-11.549 35.883a.67.67 0 0 0 .471-.176c.06-.118.118-.295.178-.59.058-.294.058-.706.117-1.295v-2.062c0-.472 0-.767-.117-.885-.119-.058-.295-.118-.59-.118h-.53a.85.85 0 0 1-.413-.118c-.059-.117-.118-.235-.118-.47 0-.178.118-.355.354-.59q.265-.266 1.06-.53a8 8 0 0 1 1.886-.59c.766-.117 1.414-.235 2.063-.235.412 0 .648.059.825.177s.294.235.294.47c0 .295-.177.472-.53.65-.119.058-.177.117-.236.117-.118.059-.177.235-.236.471 0 .178-.059.648-.059 1.415v.825c0 1.237.06 2.062.118 2.415 0 .413.118.648.236.766.177.118.47.236.883.295h.296c.117.058.235.117.294.236.058.117.058.235.058.411 0 .355-.235.649-.706.767-.472.177-1.356.236-2.593.236-1.65 0-2.77-.06-3.3-.236-.59-.118-.884-.412-.884-.767 0-.234.06-.352.177-.47q.177-.178.53-.177h.236c.06.058.177.058.236.058m11.55-55.327v7.66l-.355-.236-.235-.059c-.649-.353-1.06-.53-1.297-.59-.235 0-.47 0-.766.178 0 0-.059 0-.059.059-.589.293-1.001.353-1.355.176-.53-.295-.707-.826-.59-1.708q.18-1.326 1.238-3.36.885-1.678 1.592-2.298c.47-.412.942-.472 1.414-.236.176.119.294.236.412.414m0 16.38v3.064a.85.85 0 0 0-.531.648c-.06.294-.06.53 0 .649 0 .059.235.176.53.295v5.361c-.59-.177-1.356-.412-2.357-.65-1.591-.411-2.888-.706-3.83-.882-1.001-.176-1.59-.236-1.709-.176a.78.78 0 0 0-.471.412c-.177.235-.236.353-.294.412-.177.117-.355.177-.472.235-.118 0-.236 0-.413-.058-.412-.118-.706-.354-.824-.708-.118-.412-.06-.942.058-1.649.06-.059.178-.413.354-1.179.176-.706.412-1.413.53-2.062.59-2.298 1.002-4.419 1.355-6.54 0-.236.06-.412.06-.472.117-.471.53-.766 1.355-1.002a5.06 5.06 0 0 1 2.474.06c.472.118.766.294 1.002.588.177.236.235.59.177.943-.118.353-.471.648-1.061 1.003-.118.058-.235.117-.294.176q-.885.441-1.237 1.061c-.296.47-.59 1.12-.766 2.003-.119.353-.177.648-.119.884 0 .236.06.353.177.412.177.118.472.236 1.002.413.47.176 1.002.353 1.65.47q.265.09.353 0c.059-.117.177-.353.295-.823q.087-.443 0-.708c-.059-.176-.236-.295-.471-.471-.06 0-.118-.059-.178-.059-.647-.353-.942-.766-.824-1.237.177-.472.53-.767 1.12-.884.589-.119 1.472 0 2.65.293zm0 31.347v2.592a.45.45 0 0 0-.296-.118c-.117 0-.235.06-.294.236-.119.118-.119.295-.119.472 0 .47.06.884.296 1.237a.9.9 0 0 0 .412.413v6.069c-.177 0-.354-.06-.59-.118a5.4 5.4 0 0 1-.824-.413c-.118-.117-.295-.235-.354-.353a.32.32 0 0 1-.177-.295c0-.059.119-.236.295-.413.236-.176.354-.353.472-.471.294-.294.47-.53.589-.825.177-.294.235-.589.235-.824-.176 0-.354.058-.47.058-.177.06-.296.06-.472.06-.413 0-.766-.06-1.12-.236a2.6 2.6 0 0 1-.884-.708c-.294-.294-.53-.707-.707-1.178-.117-.472-.236-1.002-.236-1.532 0-1.06.413-2.004 1.12-2.652.766-.707 1.827-1.001 3.064-1.001zm0 33.704v6.953c-.472-.472-1.061-1.297-1.71-2.416-.825-1.414-1.296-2.534-1.414-3.241-.118-.766.06-1.296.59-1.591q.618-.354 1.413.176.266.09.354.177c.118.06.412.06.766-.058" style="fill:#fff;fill-opacity:1;fill-rule:evenodd;stroke:none;stroke-width:.13333333" transform="matrix(1.17012 0 0 1.17012 -24.364 -24.746)"></path><path d="m118.015 127.764-1.265-.318-.028-.108c-.015-.059-.074-.255-.13-.436-.228-.724-.351-1.307-.468-2.218-.11-.867-.113-.911-.098-1.656.01-.422.031-.956.05-1.188.018-.232.044-.615.058-.85.014-.237.036-.44.049-.454.049-.048 2.723-1.188 2.744-1.169.03.028 1.66 3.73 1.66 3.77 0 .054-1.268 4.905-1.288 4.925-.01.01-.588-.124-1.284-.298zM128.467 125.333c-1.014-1.122-1.841-2.056-1.839-2.077s.591-1.037 1.31-2.26c1.256-2.14 1.308-2.22 1.386-2.205l2.94.582c1.573.31 2.885.572 2.915.58.052.016.054.167.047 2.766l-.008 2.75-2.433.951c-1.338.523-2.442.951-2.454.951-.011 0-.85-.917-1.864-2.038zM129.042 136.95c-.025-.024-.518-.077-1.012-.108-.303-.019-.45-.043-.578-.095-.16-.064-.5-.151-1.06-.27a2.5 2.5 0 0 1-.36-.105 1.4 1.4 0 0 0-.269-.079 1.2 1.2 0 0 1-.284-.096c-.08-.04-.395-.173-.701-.296a9 9 0 0 1-.7-.305 4 4 0 0 0-.357-.178c-.119-.051-.23-.116-.247-.143-.02-.033-.021-.255-.003-.641l.028-.59 2.61-.51c1.907-.37 2.63-.5 2.687-.48.055.018 4.082 2.312 4.146 2.36a67 67 0 0 1-1.115 1.376c-.018.018-.212.044-.43.058-.219.013-.51.039-.648.057-.28.037-1.678.074-1.707.046zM140.234 132.311c-.67-.11-.893-.158-.9-.192-.009-.044.639-4.187.656-4.2a981 981 0 0 1 3.263-2.37c.035-.02 1.293 1.112 1.293 1.164 0 .044-.295.81-.471 1.225-.091.212-.263.548-.384.746-.12.197-.245.408-.277.469-.032.06-.069.106-.08.104-.033-.008-.455.739-.432.762.01.01-.014.062-.053.115a2 2 0 0 0-.155.29c-.102.241-.538.893-.695 1.041-.063.06-.173.194-.243.297-.232.343-.532.703-.582.7-.028-.002-.45-.07-.94-.15zM141.155 117.726l-2.187-.984-.59-2.61c-.326-1.447-.577-2.622-.562-2.636s.35-.16.745-.323c.667-.275.723-.293.799-.254a.5.5 0 0 1 .126.097c.024.03.227.192.45.36.54.408.846.673.94.814.041.063.161.18.266.261.105.08.229.2.276.265a10 10 0 0 0 .538.634c.08.09.17.211.2.271s.16.256.287.435c.128.18.255.383.283.453s.108.215.178.321c.443.677.484.751.674 1.233.07.178.169.382.219.453.05.07.105.19.122.265s.067.236.11.356.078.243.079.273c0 .03.03.116.068.193l.068.139-.373.411c-.204.226-.398.445-.43.487-.03.041-.066.074-.077.073-.012-.001-1.006-.446-2.209-.987zM122.069 112.275c.02-.609.046-1.277.057-1.486l.02-.378.13-.072c.07-.04.27-.166.442-.28.284-.188.752-.438.82-.438.016 0 .06-.034.1-.075a.4.4 0 0 1 .14-.093c.04-.01.153-.067.253-.128.1-.06.217-.11.258-.11a.35.35 0 0 0 .165-.064 1 1 0 0 1 .192-.098 1 1 0 0 0 .18-.085c.082-.054.302-.135.83-.304.188-.06.406-.135.484-.166.077-.03.246-.08.375-.108l.437-.102c.112-.027.305-.062.429-.077l.225-.027 1.197.94c.658.518 1.221.965 1.252.995.054.051-.016.125-1.517 1.604l-1.573 1.55-1.405.033c-.773.019-1.883.043-2.467.055l-1.063.02z" style="opacity:1;fill:#18488f;fill-opacity:1;stroke:#18488f;stroke-width:.09375;stroke-miterlimit:4;stroke-dasharray:none;stroke-opacity:1;paint-order:markers stroke fill" transform="matrix(1.17012 0 0 1.17012 -24.364 -24.746)" data-source="https://football-logos.cc"></path><!-- source: https://football-logos.cc --></svg>