<svg xmlns="http://www.w3.org/2000/svg" fill="none" viewBox="50 6 200.91 288"><!-- Source: https://football-logos.cc --><g clip-path="url(#a)" data-source="https://football-logos.cc"><path fill="#FDFDFD" fill-rule="evenodd" d="M52.783 26.4s-7.033 58.124 1.263 115.134c4.544 31.224 14.285 61.606 30.823 85.705 0 0 27.429 43.737 65.612 66.761 38.185-23.024 65.681-66.761 65.681-66.761 46.731-68.1 32.802-201.265 32.802-201.265C192.942.389 108.149-1.833 52.783 26.4" clip-rule="evenodd"></path><path fill="#077C35" fill-rule="evenodd" d="M150.466 286.02c-47.649-32.648-71.5-69.129-86.792-124.964-7.848-28.652-4.763-64.274-4.763-64.274s45.185-17.09 92.018-16.895c46.833-.195 91.091 16.895 91.091 16.895s3.085 35.622-4.762 64.274c-15.295 55.835-39.14 92.316-86.79 124.964M58.817 31.136c32.345-10.579 57.675-16.962 92.514-16.763 31.128.178 63.232 6.119 91.32 16.764V69.14c-66.994-19.168-116.803-19.439-183.834 0z" clip-rule="evenodd"></path><path fill="#FDFDFD" fill-rule="evenodd" d="M150.466 273.977c42.086-30.357 63.302-64.295 77.341-115.549.87-3.178 1.581-6.399 2.177-9.639 2.502-13.624 3.419-30.254 2.695-44.871-6.934-2.335-14.239-4.326-21.127-6.042-19.643-4.897-40.367-8.108-60.623-8.108-20.257 0-41.102 3.212-60.809 8.038-7.13 1.747-14.693 3.77-21.87 6.149-.72 14.608.197 31.22 2.696 44.834a115 115 0 0 0 2.177 9.639c14.039 51.254 35.257 85.192 77.343 115.549" clip-rule="evenodd"></path><path fill="#00832E" fill-rule="evenodd" d="m70.508 71.486 4.107-1.277.896 2.883s.611-1.09 1.734-1.574c1.126-.485 2.676-.726 3.277.12.6.85 2.479 7.77 2.479 7.77s.731 2.355-.196 3.51c-.929 1.157-3.19.925-3.19.925l-1.025-.472.785 2.772-3.788 1.179-.907-2.751s-1.257 2.773-4.414 1.815c0 0-.753 0-1.89-3.785-1.136-3.787-1.748-5.348-1.748-5.348s-.524-1.783.961-2.642c1.485-.858 2.633-.672 3.146-.519.514.155.753.33.753.33l-.981-2.938zm3.102 12.397.18-.053c.141-.041.25-.13.318-.258a.52.52 0 0 0 .04-.41l-2.225-7.31a.527.527 0 0 0-.643-.358l-.112.03a.51.51 0 0 0-.325.254.52.52 0 0 0-.046.412l2.159 7.336a.53.53 0 0 0 .654.36zm5.197-1.65.181-.055a.51.51 0 0 0 .318-.257.52.52 0 0 0 .04-.409l-2.227-7.314a.53.53 0 0 0-.641-.357l-.113.03a.52.52 0 0 0-.324.255.52.52 0 0 0-.046.41l2.158 7.336a.53.53 0 0 0 .654.361m6.11-12.816 3.692-.947 3.255 7.836-1.223-8.32 3.735-.837s1.2 11.423 1.004 12.877c-.197 1.45-1.616 2.202-3.057 2.553-1.442.352-2.84.66-2.84.66l-.545-1.982 1.092-.263s.524-.198-.043-1.233-5.068-10.344-5.068-10.344zm13.428-2.973 8.912-1.63.481 2.643-2.317.485 1.725 9.882-3.953.793-1.965-9.927-2.294.507-.59-2.751zm22.334-6.296s-.634.395-1.889.374c0 0-3.114.1-4.434.54-1.322.44-2.392 1.783-2.436 2.982-.043 1.197 1.298 9.43 1.298 9.43s.35 2.376 1.966 2.926c1.617.552 5.242-.196 6.16-1.143.916-.947 1.222-2.094.983-4.271-.24-2.178-.721-6.207-.721-6.207s-.524-1.486-2.38-1.441-2.502.726-2.502.726l-.557.681s-.252-1.188-.011-1.597c.239-.406.763-.504 1.212-.516.447-.01 2.588-.186 2.938-.241s.602-.22.602-.22l-.227-2.024zm-2.609 14.128.187-.026a.52.52 0 0 0 .352-.21.52.52 0 0 0 .1-.399l-1.15-7.56a.53.53 0 0 0-.584-.449l-.115.014a.5.5 0 0 0-.358.204.5.5 0 0 0-.104.4l1.077 7.574c.04.288.308.49.595.452m16.835-11.675c1.332 1.1 1.571 2.135 1.702 4.512.295 5.33.183 8.557-6.268 7.835-3.016-.338-2.908-3.81-3.205-6.114-.438-3.368-.672-6.55 3.982-7.003 1.326-.128 2.909.044 3.789.77m-2.767 10.17.189-.011a.5.5 0 0 0 .365-.184.52.52 0 0 0 .127-.391l-.617-7.624a.527.527 0 0 0-.55-.486l-.117.004a.5.5 0 0 0-.37.179.51.51 0 0 0-.132.392l.544 7.63a.53.53 0 0 0 .561.493zm9.929-11.391 9.917-.174.066 12.787h-4.118l-.109-10.004h-1.462l.131 6.889s.393 3.346-2.621 3.28l-2.665.11-.088-2.113s1.376.177 1.355-.837c-.022-1.01-.404-9.937-.404-9.937zm18.838.078-.438 12.743 3.91.199.328-5.505s1.092.067 1.2.86c.11.792-.174 3.588-.174 3.588s-.022 1.121.699 1.166 3.539.199 3.539.199-.404-.64-.24-2.576c.144-1.7.363-2.76-.956-3.514a5.2 5.2 0 0 0-1.151-.498c-.461-.13-1.126-.263-.799-.297.328-.032 2.589-.32 3.112-1.42.525-1.099.119-3.004.569-3.851l.415-.596-4.084-.244s-.404.013-.503 1.09c-.098 1.08-.175 2.852-.294 3.16-.121.308-.612.583-.661.583h-.589l.261-4.958-4.144-.132zm15.408.797 9.865 1.019-1.451 12.704-4.088-.497 1.078-9.944-1.453-.177-.686 6.856s-.007 3.368-2.991 2.94l-2.66-.212.165-2.108s1.345.34 1.444-.668c.097-1.007.778-9.916.778-9.916zm14.081 1.937 3.765.578-.031 8.494 2.089-8.144 3.764.698s-3.311 10.99-4.053 12.253c-.744 1.26-2.34 1.392-3.803 1.152-1.465-.244-2.871-.507-2.871-.507l.262-2.04 1.109.186s.559.023.436-1.153c-.123-1.174-.667-11.515-.667-11.515zm23.739 1.451s-.727.164-1.906-.28c0 0-2.966-.954-4.358-.984-1.392-.027-2.845.877-3.284 1.993s-1.899 9.33-1.899 9.33-.458 2.358.885 3.418c1.341 1.063 5.008 1.576 6.186.992s1.845-1.56 2.339-3.694c.495-2.135 1.375-6.095 1.375-6.095s-.003-1.576-1.768-2.16c-1.765-.58-2.597-.154-2.597-.154l-.752.455s.157-1.205.518-1.509c.361-.302.888-.219 1.313-.08.426.142 2.502.695 2.851.76.347.067.639-.004.639-.004l.455-1.988zm-7.137 12.441.185.04a.5.5 0 0 0 .4-.08.52.52 0 0 0 .225-.341l1.419-7.516a.533.533 0 0 0-.402-.618l-.112-.026a.5.5 0 0 0-.404.072.5.5 0 0 0-.231.343l-1.492 7.5a.53.53 0 0 0 .411.625zm12.078-7.9 4.043 1.093-1.159 4.08 3.231 1.077s1.485.684 1.485 2.07-1.158 4.49-1.158 4.49-.567 1.914-2.97 1.343-6.641-1.739-6.641-1.739zm2.292 7.594-.939 3.212.897.244a.53.53 0 0 0 .647-.377l.575-2.16a.536.536 0 0 0-.346-.644zm8.713-4.468 4.019 1.322-3.931 12.017-3.757-1.145 3.67-12.193z" clip-rule="evenodd"></path><path fill="#FDFDFD" fill-rule="evenodd" d="m146.609 17.284 9.366.094.122 32.858-8.492.085zm-25.22 2.165 3.036 32.192 14.873-1.076s5.249-.13 5.223-4.98c-.025-4.848-.333-10.63-.333-10.63s.128-3.084-3.114-4.408c0 0-.734-.325-2.767-.361-2.032-.04-6.484 0-6.484 0l-1.004-11.774-9.432 1.037zm10.822 15.842.592 10.242s2.342-.102 2.548-1.348-.334-7.675-.334-7.675-.103-.96-1.004-1.169c-.9-.205-1.801-.05-1.801-.05zm-34.8-11.647s6.689-1.286 12.581-2.332c5.894-1.047 8.441-1.4 8.441-1.4l.697 6.17-5.639.934 3.269 25.461-8.878 1.505-4.066-24.944-5.25.829-1.157-6.224zm-18.845 5.114 13.998-4 11.528 29.923-9.212 1.791-1.622-5.654-2.851.77.922 5.868-8.827 2.127zm9.34 5.206 1.106 12.058 2.88-.778zm97.616-14.1-8.404 31.837 9.313.996 1.346-5.788 3.019.377-.543 5.979 9.118 1.57-.098-32.52-13.75-2.45zm5.961 9.745-3.106 11.53 2.891.406.215-11.937zm-31.277-12.108-.479 32.734 8.966.005.48-12.68s6.32 1.384 9.583-1.614c0 0 1.591-3.676 1.315-13.81 0 0-.727-3.066-6.308-3.819s-13.557-.817-13.557-.817m9.44 7.182-.261 7.425s2.53 1.202 2.828-2.048c.298-3.252.26-4.624-.552-5.147-.812-.522-2.013-.23-2.013-.23zm36.728-.334 8.256 2.005-1.669 18.555 5.787-17.313 8.383 2.336-9.795 23.498s-1.577 3.892-4.208 4.319c-2.633.426-11.682-1.891-11.682-1.891l1.042-4.236 2.771.508s.596-.275.579-.82c-.018-.547.535-26.96.535-26.96zM61.825 33.065s.902 1.231 2.703 1.716c1.801.487 3.554 1.574 3.603 3.243.049 1.67-1.431 3.03-1.431 3.03s-2.284 2.367-2.508 3.533c-.226 1.166.9 2.836 2.412 3.014s3.972-.034 4.068-2.706c0 0-.225-1.232-2.091-.94-1.865.293-.933 2.059-.933 2.059s-1.848.29-1.913-1.33 1.495-2.527 2.477-2.544 1.865.842 1.865.842.347.235.284-.365c-.065-.6.144-1.458 1.078-1.879.933-.42 1.625-.486 1.625-.486s-.579 1.298-.42 1.865c.162.565.693 1.976-.402 3.435-.072.097-2.649 2.495-2.26 2.462.392-.03.918.227 1.988-.275 1.07-.503 1.255-1.053 1.336-1.361.08-.308.144-.503.354-.423.21.083 1.013.455.949 1.055s-.603.922-.603.922-.194.438.225.25c.418-.186.967-.907 1.914-.68.949.227 1.576.68 1.529.876-.05.194-.99.94-1.561.948-.57.008-1.52-.413-1.65-.495-.129-.08-.578-.169-.345.107.232.275.731.519.562.98s-.7 1.295-.892 1.077-.636-1.215-1.657-1.623c-1.02-.404-2.162-.306-2.162-.306s2.292 1.117 2.903 3.274c0 0 .403.956.136 2.706 0 0-.04.697.202 1.246.242.552.113.624-.829.357-.94-.267-1.47-.543-1.728-1.508 0 0-.047-.85-.033-1.133.017-.285-.836.64-.836.64-1.304 1.445-4.39-.525-3.883-2.406.37-1.38 2.14-1.103 2.14-1.103s-.917.68-.257 1.442 3.081 1.1 3.032-1.274c0 0-.2-1.985-3.385-1.823-3.184.16-3.104 2.916-3.104 2.916s.482 1.928 2.78 3.89c2.301 1.96 1.014 4.245 1.014 4.245s-.732 1.167-3.136 1.953-2.557 2.034-2.557 2.034-.684-.34-.507-1.514c.234-1.557 2.523-1.99 2.292-2.042-.23-.055-1.977-.146-2.428-1.38-.45-1.228 1.238-2.397 2.252-2.412s1.448.68 1.448.68-2.396.083-1.834 1.379c.563 1.295 1.849 1.474 3.135.6 1.287-.874-.53-3.015-.53-3.015s-1.046-.468-2.605-3.84c-1.56-3.37-2.349-3.339-2.349-3.339s1.399-.21 1.881.098c.483.308.514 1.556.853 1.006.337-.552 1.11-1.28 2.026-1.687.918-.404 1.27-.47.788-.614-.483-.146-1.181-.342-2.162-1.063-.982-.72-.902-.907-.902-.907s-.2.971-1.093 1.246c-.893.277-1.488.01-1.488.01s1.673-1.394 2.492-3.987 2.862-3.665 2.992-4.814c.128-1.15-.226-1.669-1.384-2.01s-2.799.972-1.993 1.767c.804.793 1.784.746 1.784.746s-1.32 1.717-3.136-.016c-1.817-1.735.87-2.758.87-2.758s1.575-.306.69-.469c-.884-.16-1.961-.437-2.203-1.312-.24-.876.505-1.815.505-1.815zm177.375 0s-.9 1.231-2.702 1.716c-1.801.487-3.554 1.574-3.603 3.243-.049 1.67 1.431 3.03 1.431 3.03s2.283 2.367 2.509 3.533c.224 1.166-.902 2.836-2.413 3.014-1.512.178-3.973-.034-4.069-2.706 0 0 .226-1.232 2.091-.94s.932 2.059.932 2.059 1.85.29 1.914-1.33-1.496-2.527-2.477-2.544-1.865.842-1.865.842-.348.235-.283-.365c.064-.6-.144-1.458-1.077-1.879-.932-.42-1.624-.486-1.624-.486s.578 1.298.417 1.865c-.16.565-.692 1.976.402 3.435.073.097 2.651 2.495 2.259 2.462-.392-.03-.916.227-1.986-.275-1.071-.503-1.254-1.053-1.336-1.361-.081-.308-.144-.503-.354-.423-.209.083-1.013.455-.948 1.055s.602.922.602.922.194.438-.224.25c-.419-.186-.966-.907-1.914-.68s-1.577.68-1.528.876c.049.194.989.94 1.56.948s1.52-.413 1.648-.495c.129-.08.579-.169.346.107-.234.275-.731.519-.563.98s.7 1.295.892 1.077.635-1.215 1.657-1.623c1.021-.404 2.163-.306 2.163-.306s-2.293 1.117-2.904 3.274c0 0-.403.956-.137 2.706 0 0 .041.697-.201 1.246-.24.552-.112.624.828.357.941-.267 1.472-.543 1.729-1.508 0 0 .049-.85.032-1.133-.016-.285.836.64.836.64 1.304 1.445 4.389-.525 3.884-2.406-.371-1.38-2.138-1.103-2.138-1.103s.916.68.256 1.442c-.658.762-3.079 1.1-3.031-1.274 0 0 .202-1.985 3.386-1.823 3.184.16 3.104 2.916 3.104 2.916s-.483 1.928-2.783 3.89c-2.3 1.96-1.012 4.245-1.012 4.245s.732 1.167 3.135 1.953c2.405.786 2.557 2.034 2.557 2.034s.683-.34.506-1.514c-.234-1.557-2.523-1.99-2.292-2.042.231-.055 1.977-.146 2.428-1.38.45-1.228-1.239-2.397-2.251-2.412-1.014-.016-1.448.68-1.448.68s2.396.083 1.834 1.379c-.563 1.295-1.85 1.474-3.137.6s.532-3.015.532-3.015 1.044-.468 2.604-3.84c1.561-3.37 2.349-3.339 2.349-3.339s-1.4-.21-1.883.098c-.482.308-.513 1.556-.853 1.006-.336-.552-1.109-1.28-2.025-1.687-.917-.404-1.271-.47-.788-.614.481-.146 1.181-.342 2.162-1.063s.9-.907.9-.907.201.971 1.093 1.246c.892.277 1.488.01 1.488.01s-1.673-1.394-2.493-3.987c-.821-2.594-2.863-3.665-2.991-4.814-.13-1.15.224-1.669 1.383-2.01 1.158-.341 2.798.972 1.994 1.767-.804.793-1.786.746-1.786.746s1.319 1.717 3.136-.016c1.818-1.735-.867-2.758-.867-2.758s-1.577-.306-.692-.469c.884-.16 1.961-.437 2.201-1.312.242-.876-.505-1.815-.505-1.815z" clip-rule="evenodd"></path><path fill="#00832E" d="M121.64 244.408c7.455 7.603 15.935 14.817 25.638 21.816l2.871 2.072 2.872-2.072c9.703-6.998 18.182-14.213 25.638-21.816s13.894-15.598 19.513-24.157c5.618-8.557 10.419-17.677 14.603-27.532 4.187-9.865 7.757-20.466 10.91-31.974q.296-1.084.58-2.23.285-1.155.531-2.244.254-1.131.481-2.254.228-1.124.438-2.264a153 153 0 0 0 1.447-9.674c.402-3.39.703-6.822.91-10.254a194 194 0 0 0 .115-21.128l-.168-3.39-3.193-1.077a192 192 0 0 0-4.749-1.528 229 229 0 0 0-4.779-1.408 271 271 0 0 0-4.807-1.312 387 387 0 0 0-4.833-1.237 283 283 0 0 0-13.57-3.033c-4.57-.9-9.167-1.681-13.766-2.32a217 217 0 0 0-13.882-1.483c-4.623-.339-9.256-.52-13.88-.52s-9.277.181-13.912.52c-4.652.34-9.295.838-13.916 1.475a251 251 0 0 0-13.802 2.3c-4.588.892-9.13 1.898-13.612 2.996q-2.516.614-4.995 1.256-2.459.636-4.972 1.334-2.457.681-4.964 1.439a189 189 0 0 0-4.895 1.546l-3.215 1.068-.169 3.408a194.412 194.412 0 0 0 .119 21.113c.207 3.428.508 6.856.91 10.243.389 3.293.87 6.531 1.446 9.666q.209 1.14.436 2.264a105 105 0 0 0 1.594 6.728c3.153 11.509 6.723 22.109 10.91 31.975 4.184 9.857 8.986 18.976 14.604 27.532 5.62 8.559 12.059 16.555 19.516 24.157m25.01 22.694c-9.746-7.029-18.271-14.286-25.778-21.939-7.504-7.653-13.986-15.701-19.643-24.318-5.654-8.611-10.486-17.789-14.696-27.703-4.204-9.907-7.79-20.554-10.956-32.11a96 96 0 0 1-1.124-4.524 115 115 0 0 1-.927-4.56 153 153 0 0 1-1.459-9.734 181 181 0 0 1-.913-10.307 197 197 0 0 1-.12-21.228l.206-4.153 3.913-1.297q2.458-.813 4.923-1.556c1.625-.49 3.29-.971 4.986-1.442 1.635-.456 3.304-.901 4.993-1.338a354 354 0 0 1 5.009-1.26 287 287 0 0 1 13.66-3.008 250 250 0 0 1 13.862-2.31c4.658-.64 9.325-1.142 13.982-1.484 4.675-.342 9.342-.525 13.987-.525s9.296.183 13.958.526c4.648.342 9.302.845 13.947 1.49 4.646.645 9.261 1.428 13.829 2.33 4.568.898 9.114 1.922 13.62 3.044a338 338 0 0 1 9.674 2.558q2.358.667 4.8 1.417 2.412.74 4.779 1.537l3.887 1.309.205 4.127c.172 3.461.25 7.015.23 10.612a196 196 0 0 1-.345 10.631 178 178 0 0 1-.915 10.316 154 154 0 0 1-1.459 9.742q-.21 1.139-.442 2.285a117 117 0 0 1-1.022 4.544q-.274 1.106-.588 2.255c-3.166 11.558-6.752 22.203-10.956 32.11-4.208 9.915-9.04 19.091-14.694 27.705-5.657 8.618-12.139 16.666-19.644 24.318s-16.03 14.909-25.777 21.939l-3.496 2.52-3.495-2.52z"></path><path fill="#00832E" fill-rule="evenodd" d="M165.25 217.508v33.3c-4.671 4.072-9.691 8.042-15.101 11.943-5.461-3.939-10.525-7.947-15.235-12.06v-33.462a35.6 35.6 0 0 0 15.027 3.28c5.803 0 11.049-1.234 15.309-3.001" clip-rule="evenodd"></path><path fill="#272C2E" fill-rule="evenodd" d="M150.985 107.539s-10.484 24.632-28.046 48.034c-17.564 23.401-3.408 45.96-3.408 45.96s10.229 16.853 30.429 16.853 30.3-14.779 30.3-14.779 10.23-16.92 5.083-32.672c-5.146-15.751-17.882-27.549-26.566-44.986-8.686-17.439-7.79-18.41-7.79-18.41" clip-rule="evenodd"></path><path fill="#077C35" fill-rule="evenodd" d="M223.342 113.34v14.21c-.306 8.275-1.135 16.558-2.477 23.868a103 103 0 0 1-1.936 8.573c-6.41 23.399-14.502 42.74-25.923 59.675v-116.13c3.858.789 7.684 1.659 11.466 2.603 6.126 1.528 12.622 3.298 18.789 5.374q.044.908.079 1.827M165.25 99.529v35.773c-2.164-3.392-4.254-6.95-6.156-10.77-9.018-18.105-8.088-19.115-8.088-19.115s-5.828 13.685-16.093 30.543V99.602a187 187 0 0 1 15.645-.676c4.875 0 9.782.21 14.692.602M107.289 103.649v116.016c-11.42-16.936-19.513-36.275-25.923-59.674a102 102 0 0 1-1.936-8.573c-1.342-7.311-2.171-15.594-2.477-23.87v-14.205q.034-.904.08-1.797c6.383-2.116 13.108-3.916 19.449-5.469a286 286 0 0 1 10.807-2.43" clip-rule="evenodd"></path><path fill="#FDFDFD" fill-rule="evenodd" d="M150.465 145.228c18.78 0 34.002 15.963 34.002 35.654s-15.222 35.652-34.002 35.652-34.002-15.961-34.002-35.652 15.222-35.654 34.002-35.654" clip-rule="evenodd"></path><path fill="#272C2E" fill-rule="evenodd" d="M128.987 201.741c4.793 4.661 7.63 5.475 9.84 7.058 1.635 1.172.962 2.864-3.197 1.561-2.686-.842-8.852-5.644-10.157-8.157-1.216-2.336-1.027-2.843-.372-3.158 1.262-.605 3.284 1.838 3.887 2.696m-4.969-34.426c-3.06 5.964-3.019 8.934-3.894 11.521-.646 1.913-2.447 1.749-2.4-2.639.031-2.835 2.831-10.163 4.846-12.144 1.873-1.842 2.411-1.805 2.896-1.263.936 1.045-.808 3.697-1.45 4.525zm31.392-16.528c-6.611-.827-9.362.237-12.073.308-2.006.05-2.475-1.709 1.625-3.183 2.651-.952 10.443-.841 12.985.377 2.364 1.135 2.515 1.654 2.177 2.303-.648 1.245-3.72.516-4.714.195m21.787 16.528c3.058 5.964 3.021 8.934 3.894 11.521.646 1.913 2.447 1.749 2.398-2.639-.031-2.835-2.831-10.163-4.846-12.144-1.874-1.842-2.409-1.805-2.896-1.263-.937 1.045.805 3.697 1.45 4.525m-12.226-4.977c1.82.251 4.54.71 6.912 1.828 2.227 1.052 3.176 1.64 3.176 1.64s2.819 2.998 4.45 11.495c0 0-.489 2.125-1.589 4.345-1.169 2.361-3.02 4.423-4.291 5.758-1.235-.17-9.681-2.229-9.883-2.761-.785-2.086-1.622-4.533-2.481-6.946-.806-2.265-1.649-4.497-2.072-6.47 0 0 .318-.89 1.416-3.108 1.171-2.361 3.088-4.447 4.36-5.782zm-27.639-.899c.834-1.649 2.157-4.088 3.986-5.978 1.717-1.775 2.581-2.485 2.581-2.485s3.737-1.696 12.237-.455c0 0 1.831 1.165 3.549 2.94 1.83 1.89 3.153 4.329 3.985 5.978-.566 1.12-5.27 8.48-5.835 8.496-2.212.063-4.781.055-7.326.078-2.39.023-4.759.09-6.745-.154 0 0-.731-.595-2.448-2.371-1.828-1.89-3.153-4.401-3.985-6.049zm-1.249.899c-1.819.251-4.539.71-6.911 1.828-2.228 1.052-3.177 1.64-3.177 1.64s-2.819 2.998-4.45 11.495c0 0 .49 2.125 1.589 4.345 1.17 2.361 3.019 4.423 4.291 5.758 1.235-.17 9.681-2.229 9.883-2.761.786-2.086 1.623-4.533 2.481-6.946.806-2.265 1.649-4.497 2.073-6.47 0 0-.317-.89-1.417-3.108-1.169-2.361-3.087-4.447-4.36-5.782zm-7.819 26.31c-.265 1.831-.581 4.591-.172 7.198.384 2.45.683 3.53.683 3.53s2.078 3.559 9.728 7.494c0 0 2.162.116 4.582-.334 2.576-.48 5.055-1.699 6.679-2.56.18-1.243.56-9.991.108-10.332-1.77-1.339-3.873-2.829-5.935-4.329-1.937-1.408-3.833-2.842-5.595-3.798-3.634.237-6.886 1.437-10.078 3.128zm23.119 15.525c1.603.902 4.049 2.187 6.613 2.732 2.408.513 3.516.617 3.516.617s4.041-.685 10.42-6.481c0 0 .88-1.995 1.326-4.434.475-2.596.229-5.362.012-7.2-1.088-.615-9.063-4.093-9.539-3.789-1.873 1.188-4.004 2.636-6.131 4.041-1.996 1.321-4.003 2.593-5.52 3.91-1.078 3.506-1.125 6.995-.697 10.603zm19.95-.684c-5.158 4.249-8.05 4.824-10.382 6.219-1.725 1.033-1.193 2.775 3.059 1.822 2.746-.618 9.283-4.893 10.79-7.288 1.401-2.23 1.255-2.75.627-3.118-1.208-.706-3.424 1.56-4.092 2.365z" clip-rule="evenodd"></path><path fill="#FDFDFD" fill-rule="evenodd" d="M140.871 231.611v11.39h-2.815v-6.114q-.001-1.327-.062-1.594a.6.6 0 0 0-.346-.406q-.282-.136-1.257-.136h-.28v-1.322q2.044-.441 3.102-1.818h1.658m1.1 8.366h2.815q0 .8.022 1.007a.54.54 0 0 0 .174.35q.15.142.411.142a.5.5 0 0 0 .361-.135.51.51 0 0 0 .159-.342q.018-.214.017-.85v-1.812q-.211.453-.629.678-.423.229-1.043.228-.775 0-1.371-.423-.595-.42-.754-1.012-.16-.59-.162-1.598v-.908q0-1.198.095-1.78.093-.587.485-1.079.391-.497 1.084-.773.688-.274 1.605-.274 1.132 0 1.857.318.728.315 1.125.911.399.594.462 1.248.061.655.062 2.533v1.585q0 2.031-.055 2.718-.057.686-.487 1.298a2.6 2.6 0 0 1-1.162.917q-.736.307-1.699.307-1.193 0-1.949-.387-.758-.389-1.092-1.093-.33-.706-.329-1.775zm2.814-3.546q0 .72.188.888a.56.56 0 0 0 .384.168q.297-.001.432-.214.139-.217.138-.842v-2.062q.001-.754-.131-.985-.129-.234-.434-.233-.184 0-.381.18-.198.179-.199.967v2.131zm10.305.111q.623.252.955.757.335.502.335 2.395 0 1.377-.263 2.033-.267.65-1.034 1.072-.768.417-2.061.417c-.862 0-1.5-.135-1.988-.402q-.737-.4-1.053-1.063-.317-.659-.317-2.2 0-1.032.156-1.793.159-.76.986-1.217a1.64 1.64 0 0 1-.782-.807q-.26-.55-.26-1.402 0-1.468.809-2.206.809-.734 2.421-.734 1.864 0 2.574.781.71.782.711 2.23 0 .923-.234 1.329-.232.407-.957.809zm-1.582-2.44q0-.578-.102-.763-.103-.187-.391-.187c-.192 0-.315.067-.381.202q-.098.199-.099.748v.864q.001.513.114.71.114.197.381.197.282 0 .381-.193.097-.192.097-.797zm.057 4.725q0-.654-.134-.869-.135-.213-.423-.213-.285.001-.404.205-.124.209-.124.876v1.473q0 .739.139.948.136.212.433.211c.197 0 .338-.072.409-.214q.105-.216.106-.967v-1.451zm10.428-3.36v3.796q-.001 1.295-.142 1.885a2.6 2.6 0 0 1-.578 1.106 2.5 2.5 0 0 1-1.06.737 4 4 0 0 1-1.386.226q-1.01 0-1.682-.236a2.34 2.34 0 0 1-1.067-.734 3.2 3.2 0 0 1-.565-1.052q-.168-.554-.168-1.756v-3.972q0-1.568.271-2.349.267-.78 1.066-1.253.798-.47 1.934-.47.93-.001 1.661.327.732.328 1.093.798.365.472.493 1.062.13.59.129 1.885zm-2.815-.952q.001-.906-.088-1.135-.085-.227-.409-.228c-.217 0-.348.082-.415.243q-.103.242-.102 1.121v5.548q-.001.991.095 1.193.092.204.409.204c.213 0 .346-.079.413-.241q.097-.237.097-1.073z" clip-rule="evenodd"></path></g><defs data-source="https://football-logos.cc"><clipPath id="a"><path fill="#fff" d="M50 6h200.907v288H50z"></path></clipPath></defs><!-- source: https://football-logos.cc --></svg>