<svg xmlns="http://www.w3.org/2000/svg" fill="none" viewBox="0.52 0.19 310.55 428.94"><!-- Source: https://football-logos.cc --><path fill="#000" d="m155.8 429.13-2.46-1.13c-6.45-2.9-16.46-6.56-30.58-11.2l-5.94-1.91c-23.44-7.58-49.93-16.13-73.91-38.07-28.5-26.08-41.17-52.75-42.33-89.16-.06-1-.06-2.12-.06-3.24 0-28.61 11.92-55.59 23.45-81.67l.2-.44c2.58-5.84 4.73-10.66 6.81-15.58 6.68-15.88 10.08-30.69 10.08-44a66.8 66.8 0 0 0-5.23-26.67 102.2 102.2 0 0 0-12.3-20.81l-2.94-3.9 26.91-30h216.56l26.94 30-2.93 3.89a100.6 100.6 0 0 0-12.3 20.81 66.7 66.7 0 0 0-5.22 26.63c0 13.36 3.4 28.17 10.09 44.06 2.11 5 4.31 10 6.63 15.23l.16.36c11.63 26.24 23.64 53.31 23.64 82.12 0 1.1 0 2.2-.06 3.28-1.15 36.35-13.82 63-42.35 89.1-24 21.94-50.45 30.49-73.81 38l-6.06 2c-13.61 4.45-23.9 8.2-30.57 11.19z" data-source="https://football-logos.cc"></path><path fill="#FCDC19" d="M305.17 284.46c0 1 0 2-.06 3.05-1.1 34.66-13.19 60.08-40.43 85-23 21.09-48.91 29.43-71.73 36.8l-6 1.93c-13.94 4.56-24.36 8.4-31.16 11.42-6.79-3.06-17.22-6.86-31.16-11.42l-6-1.93c-22.82-7.38-48.67-15.71-71.73-36.8-27.28-24.91-39.33-50.33-40.4-85-.06-1-.06-2-.06-3.05 0-27.52 11.79-54 23.14-79.72 2.4-5.41 4.67-10.53 6.85-15.68q10.46-25 10.5-46.34a72.8 72.8 0 0 0-5.69-29 109.3 109.3 0 0 0-13.06-22l21.91-24.45h211.36l21.93 24.46a107.2 107.2 0 0 0-13 22.06 72.7 72.7 0 0 0-5.7 28.93c0 14.15 3.52 29.62 10.55 46.31 2.18 5.15 4.45 10.27 6.84 15.68 11.39 25.69 23.14 52.23 23.14 79.75"></path><path fill="#000" d="M178.34 142.53v261.73c-9.75 3.28-17.29 6.14-22.54 8.48-5.27-2.37-12.87-5.22-22.7-8.55V142.53zM29.07 224.41v112.5c-9.15-15.27-13.61-31.93-14.24-51.78-.07-1-.07-1.91-.07-2.87 0-19.8 6.47-39.06 14.3-57.84M296.87 282.25v2.87c-.63 20-5.13 36.71-14.39 52.06V224c7.88 18.89 14.44 38.29 14.44 58.25M103.71 142.53v251.88c-15-5.4-30.61-12.43-45.25-24.36V142.53zM253 142.53V370.2c-14.66 11.88-30.27 18.86-45.25 24.28v-252zM104.95 94.39v30.27h38.23v-12.07h-12.07v3.75h-14.1v-6.62h12.64v-8.34h-12.64v-6.62h14.1v3.74h12.07V86.44h-40.37zM175.79 107.89l-14.28-21.45H147.5l2.14 7.98v30.24h12.06v-21.44l14.29 21.44h11.87V86.44h-12.07zM195.35 94.36v30.3h12.05V86.44h-14.2zM253 98.5V86.44h-40.36l2.13 8v9.27c0 1.591.632 3.117 1.757 4.243a6 6 0 0 0 4.243 1.757h18.68a1.45 1.45 0 0 1 1.43 1.44v3.73a1.46 1.46 0 0 1-1.45 1.46h-12.57v-3.75h-12.09v12.07H247a6 6 0 0 0 4.243-1.757A6 6 0 0 0 253 118.66v-11.24a6 6 0 0 0-1.757-4.243A6 6 0 0 0 247 101.42h-18.72a1.453 1.453 0 0 1-1.42-1.45V94.8h14.06v3.74zM96.67 86.44v38.22H58.46v-15.8h11.46v7.48h14.7V95.26h-8.23l-2.38-8.82zM176.76 80.53l-3.94 5.91h-8.52l3.94-5.91z"></path><path fill="#FCDC19" d="M138.79 387.29h-3l.54 2h.49a.5.5 0 0 1 .188.033.5.5 0 0 1 .271.26q.04.09.041.187v7.48h3v-8.5a1.482 1.482 0 0 0-1.48-1.46M150.88 387.29h-9l.53 2v4h7v1.49a.506.506 0 0 1-.5.51h-3.51v-1h-3v3h8.49a1.49 1.49 0 0 0 1.383-.911c.076-.18.116-.373.117-.569v-7a1.493 1.493 0 0 0-1.5-1.46zm-1.48 4.06h-4v-2h3.49a.497.497 0 0 1 .5.49zM164.82 390.28v-3h-10.5l.52 2v8h8.5a1.49 1.49 0 0 0 1.49-1.48v-4.49h-7v-2h4v1zm-3 3v1.5c0 .133-.053.26-.146.354a.5.5 0 0 1-.354.146h-3.49v-2zM172.65 387.29v4.99h-3l1.01-4.99h-3.68l.37 1.37v.04l-.71 3.54-.4 1.99h6.38v2.99h3v-9.93z"></path><path fill="#000" d="M101.63 296.28a19.35 19.35 0 0 1-12 8.74c-3.821.846-7.82.263-11.24-1.64l-.11-.06-.1-.06a7.59 7.59 0 0 1 6.32-13.75h.13l.13.06a3.94 3.94 0 0 0 5-1.39 4 4 0 0 0 .51-3.69c-.82-2.07-3.33-3.28-5.31-3.84a13.45 13.45 0 0 0-12.61 2.09 16.88 16.88 0 0 0-6.06 13.54c.15 6.18 3.48 11.16 8.68 14.34a17.5 17.5 0 0 0 9.57 2.46h.08a17.216 17.216 0 0 0 16.4-14.37v-.21c.18-.82.35-1.57.53-2.3zm47.74-136.88c.11-.32.22-.62.34-.93.82-2.24 1.75-4.49 2.67-6.7l3.69-8.82 3.68 8.79c.93 2.22 1.84 4.47 2.69 6.73.11.3.22.61.33.92l8.6-11.74-3.08 17q-1 5.68-2 11.38l-.14.82a25 25 0 0 1 11.48 7.95l2.56 3.13-1.46 1.21c11 11.63 18.91 26.74 19.68 42.88a12.5 12.5 0 0 0 9-4.64q.148-.186.25-.4a6.44 6.44 0 0 1-6.422-2.421 6.437 6.437 0 0 1-.578-6.839 12.9 12.9 0 0 1 5.57-5.59c4.58-2.35 10.16-1.83 14.71.32a18.77 18.77 0 0 1 10.23 11.78c2.09 7.61 1.16 15.33-3.33 21.89-7.11 10.37-20.87 14.83-33 12.35-5.14 15.66-15.75 27.82-30.07 36 6-.5 11.81-1.93 17.49 1a9.3 9.3 0 0 1 2.3 1.57c6.7 6.3 2.22 21.23-1.76 30.7q1.2.078 2.4 0a17.8 17.8 0 0 0 5.42-1.1 8.2 8.2 0 0 1-.82-7.38c1.39-3.94 4.8-6.18 8.81-6.8 7.12-1.11 12.61 3.14 15.28 9.54 0 6.7-1.11 14.76-8.31 17.17-2.28 4.41-8.7 6.63-16.35 5.68l1 2c-7.84.87-27.06 3.08-32-3.28-2.23-2.87-1.92-6.8-.12-9.79l.08-.13c1.48-2.08 3.13-4 4.6-6.13l.2-.28a36.3 36.3 0 0 1-20.09-2.46c-5.12 8.82-16.81 15.82-26.77 18.12-.215 3.672.5 7.339 2.08 10.66 11.61-9.9 24.1-.1 25.15 9.55l-4.36-2.76c3.87 3.57 4.72 5 5.25 12.55l-3.62-2.37 1.76 4.1c-4.15.82-11.76 3.74-15 3.19a9.62 9.62 0 0 1-6.25-4 26.55 26.55 0 0 1-14.43-6l-2.14 3.53-3.44-5.52a26.4 26.4 0 0 1-3.37-8.27c-4-6.75-4.65-15.28-2.78-22.76 1-3.81 2.75-8.59 6.9-9.84a6.6 6.6 0 0 1 2.69-.25c1.64.07 2.67.89 4.2 1.13a.71.71 0 0 0 .82-.27l.32-.46c1.41-2 2.39-9.15 3-14.21a23 23 0 0 1-2.64 4.43A32.34 32.34 0 0 1 69 324.66a33.43 33.43 0 0 1-12.3-11.22 31.26 31.26 0 0 1-5.18-16.84 32.46 32.46 0 0 1 7-20.9c9.34-11.15 27.31-14.67 39-5.18l.09.07.08.08c5.27 4.77 7.95 11.28 6.81 18.1.36-.58.75-1.16 1.21-1.76 3.66-4.92 9.65-8.28 15.43-10.6l-8.37-4a64.5 64.5 0 0 1-9.84-5.87 12.49 12.49 0 0 1-11.29-3.23 11.2 11.2 0 0 1-3.51-6.72c-.24-1.57-.14-3.28-.5-4.81a10 10 0 0 0-2.93-4.6l-2-2.46c2.8-5.74 9.28-13.31 16.4-10.21a10.652 10.652 0 0 1 8.37 1.26c4.1 2.46 5 6.93 3.48 11.31l-.07.21-.1.19a13 13 0 0 1-1.2 2l2.07-.15c3.15-.25 6.31-.57 9.45-.91a19 19 0 0 1-4.58-5.49l-.54 2.58-4.47-7.23-.43 1.53-4.49-9.44c-1.94-4-3.34-9.84-4.19-14.56a9.76 9.76 0 0 1-3.6-7.5c0-3.73 1.68-6.13 4.53-8.16 1-2.77-6-2.9-7-3.05 1.59-3.15 2.46-6.22 5.74-7.91l-1.64-1c3.28-2.91 10.87-6.39 16.3-2.77a10.5 10.5 0 0 1 1.93 1.68 11 11 0 0 1 9.84 6.56v.11c2.54 6.22-.06 11.92-5.74 14.59a82 82 0 0 1 9.51 8 119 119 0 0 1 10.59 11.24c2.12 2.21 5.06 2.46 7.74.5 4.49-3.24 5.6-12.22 5.27-18.4a13 13 0 0 1-1.5-.52c-3 1.32-6.72 2-9.49.93-3.14-1.18-4.68-4.75-4.71-8a7.2 7.2 0 0 1-3.17-1.21c-3.84-2.55-3.74-7.55-2-11.35l-.07-.34c-.59-2.88-.25-5.79 2-7.92 2.37-2.3 5.92-2.3 9.08-4.21l-.23-1.36q-1-5.51-2-11l-3.06-16.93z"></path><path fill="#fff" d="M144.61 182.17c-3 1-6.77 1.07-5.74 6.21 1.39-2 2.75-2.69 5.81-3.47a4.13 4.13 0 0 1-.07-2.74m49.48 72c17.91 4.79 38.73-8.6 33.16-28.91-2.91-10.53-18.38-14.85-23.1-5.74a2.46 2.46 0 0 0 2.91 3.44 5.75 5.75 0 0 1 2.29-.3c3.54.53 3.05 4.86 1.15 7.19-4.17 5.19-10 6.69-16.76 6.11-4.22-.32-7.79-1.64-12.06-1.94-10.76-.93-24.6 3.87-27.43 15.53 1.38-14 15.72-17.3 26-17h.23c4.95.11 11.92 1.67 13.93 2h.07c0-16.89-8.51-32.71-20.26-44.38-1.32-1.32.12-2.71.38-2.9-4.81-5.88-11.42-8.09-18.86-8.09-1.69 0-7.18.12-8.28 1.76 2.34 1.38 3.08 3.87 3.39 4.34 2.89.56 8.6 5.9 5.49 10.79 2.24-11.53-15.66-12.3-17.93-4.1-2.17 6.14 3.36 7.74 6.73 4.2-.66-3.56 2-3.22 3.58-1.64 4 4.29-1.57 6.86-4.34 6-.26 1.12-.18 4.83 2 5.66 2.4.89 6.39-.58 8.08-1.73a8.23 8.23 0 0 0 5.14 1.49h.18a10 10 0 0 0 9.84-9.95 6.4 6.4 0 0 0 0-1 10.48 10.48 0 0 1-.46 7.54c-2.47 5-8.9 5.73-9.26 5.73.71 7.74-.79 18.71-6.82 23a11.4 11.4 0 0 1-8.72 1.8c-1.49-.24-3.36-1.76-4.38-2.85a115 115 0 0 0-10.38-11 94.6 94.6 0 0 0-13.79-10.83c1.59-2.17 4.19-3 6.43-4.16 3.79-2.5 3.85-6.1 2.69-8.94-.93-2.06-3.42-4.21-5.74-4.21.18.67 1.52 4.31-1.4 6.22 1.21-2.46-1.64-12.17-8.95-8.68a5.74 5.74 0 0 1 2.74 4.65q.002.675-.12 1.34a2 2 0 0 1-.16-.23c-3.13-4.58-8.32-1.49-8.87-.45a5.73 5.73 0 0 1 3.81 2.39c1.38 1.94 1.71 5-.18 6.8-2 1.33-3.21 2.6-3.21 5.17a5.75 5.75 0 0 0 3.21 5.16c.69 4.31 2.25 11.28 4.1 15.19a4.8 4.8 0 0 1 1-1.71 26.7 26.7 0 0 0 2.94 7.77 7.56 7.56 0 0 1 1.35-3.21 33.2 33.2 0 0 0 2.75 7.93 8.36 8.36 0 0 1 1.89-2.93s-3.45 14.64 23.36 12.16c4.1 0 7.38 1.27 8.41 5.74a10.07 10.07 0 0 0-8.1-4.21c-5.45 0-38.4 4.83-40.09 3.13-.61-3.85 2-4.45 3.43-7.48 2.46-7-5.06-8-6.5-7.52a5.47 5.47 0 0 1-.52 6.49c1.82-7.61-6.81-8-8.26-6.11a5.44 5.44 0 0 1 3 5.41c-1.72-1.45-5.66-2-7.38.3 7.38 7.38 1.89 11.27 6.9 16.08a8.45 8.45 0 0 0 4.37 2.262 8.45 8.45 0 0 0 4.89-.552 62.8 62.8 0 0 0 10.83 6.67 16.3 16.3 0 0 1-.5-3.33 40.5 40.5 0 0 0 8.29 6.56s-.61-4-.64-4.36a31 31 0 0 0 10 5.69 22 22 0 0 1-.5-3.32 30.5 30.5 0 0 0 13.83 4.8c0-1.42 0-2.84.13-4.25a23.3 23.3 0 0 0 16.35 1.76c-4.29 2.79-10.05 2.09-14.76.53v3.41c-.21.12-15.76.38-21.38 2.82-6.36 2.25-12.83 5.61-16.35 10.28-2.2 3-2.8 5.21-3.88 10a21.32 21.32 0 0 1-22.208 17.658 21.3 21.3 0 0 1-9.792-3.018c-20.65-12.61-8.32-43.76 13.23-37.22 15.1 4.35 7.27 20.7-2.94 16.44-2.05-.68-4.24 0-4.83 2.55-.32 1.25-.07 2.8 1.9 4 13.36 7.25 29.12-13.12 14.67-26.24-10-8.09-25.47-4.83-33.45 4.64a28.63 28.63 0 0 0-6.07 18.19c.09 15.58 13.94 28.7 30.09 27.94A28.52 28.52 0 0 0 107 312.92c6.94-9.1 2.89-21.39 14.19-24.53-4.41 8.59-3.76 32.81-8 39a4.75 4.75 0 0 1-4.1 2.46c-2 0-3.85-1.2-4.76-1.16-5.1-.82-6.42 12-6.63 14.76a1.16 1.16 0 0 1 .9-.45c0 1 .82 9.5 1.52 10.66q.457-1.198 1.06-2.33v.48a22.65 22.65 0 0 0 3.4 11.94c.441-.792.967-1.533 1.57-2.21a22.57 22.57 0 0 0 17.2 8.46.181.181 0 0 1 .17.1c3.69 6.92 8.79 2.88 14.11 1.86 0-1.09-5.21-4.62-6.44-5 3.13-1.22 4.48-.82 7.56.44-.64-3.58-5.06-7.38-9-7.74a10.2 10.2 0 0 1 6.15-1.85 10.823 10.823 0 0 0-14.494-1.51 10.8 10.8 0 0 0-3.356 4.07.2.2 0 0 1-.057.071.2.2 0 0 1-.083.039.2.2 0 0 1-.105-.008.2.2 0 0 1-.085-.062 25.86 25.86 0 0 1-5.22-20.77c10-1.35 24-9.27 28-18.86a42 42 0 0 1-8.37-7c11.74 9.22 23.33 13 38 7.59-2.5 7.81-4.54 8.95-8.56 14.61-.93 1.54-1.35 3.75-.15 5.27 2.63 3.42 18.47 3 23.54 2.27 0 0-2.3-3.41-2.79-4.32a38.1 38.1 0 0 0 11.45 2.8 9.8 9.8 0 0 1-2.63-3.21 44.8 44.8 0 0 0 10.53.3 29 29 0 0 1-2.23-2.75.1.1 0 0 0 .007-.03.1.1 0 0 0-.007-.03c3.28-.23 6-.65 8.45-3 1.73-2.21 1.21-7.68 2.06-9.6a15.7 15.7 0 0 0-4.8 1.92c.31-1.85 3.57-4.85 4.51-5.45a10.81 10.81 0 0 0-8.9.43 8.15 8.15 0 0 1 3.85-3.52c-1.34-1-9.08-1.73-10.94 3.67-1.35 3.48 2.36 6.13 3.64 7l-.52.39a21.37 21.37 0 0 1-19.53 2.46c5.17-10.6 10.66-28.06 3.28-31.45-8.15-4.34-18.93 3.33-27.47-3.51a64.3 64.3 0 0 0 19.67-11.55c.39-.33.77-.66 1.15-1 7-6.41 13.78-15.85 17-25 .37-1 .68-2.07 1-3.1-.55-.18-1.1-.35-1.63-.51l-1.63-.47-1.25-.31-.64-.16-1.42-.3c-.48-.1-1-.18-1.46-.26l-.67-.11h-.24c-.76-.11-1.52-.21-2.28-.29l-1.2-.11-.93-.07c-3-.2-6.13-.21-9.65-.16 12.44-2.07 15.05-.69 25.35 1.98z"></path><path fill="#FCDC19" d="M164.41 164s-1.2 6.56-2 11.44a30.7 30.7 0 0 0-12.7-.39c-.82-4.81-2-11.06-2-11.06a85 85 0 0 0 8.32 9.58 78 78 0 0 0 8.32-9.58"></path><path fill="#FCDC19" d="M159.23 167.75a10.1 10.1 0 0 1-3.15 4.16 10.2 10.2 0 0 1-3.14-4.15c-1.06-2.15-.65-4.77.52-7.84s2.63-6.56 2.63-6.56 1.47 3.53 2.62 6.56 1.53 5.68.51 7.83" data-source="https://football-logos.cc"></path><path fill="#D0D2D3" d="M103.63 262.19a121 121 0 0 0 17.41.68l7.31 3.59v-3.94l11.88 4.75v-5.63c9.84 6.27 20.4 9.56 28.41 3a23.9 23.9 0 0 1-7.26 7.82 23.24 23.24 0 0 1-16.38-1.8 36 36 0 0 0-.13 4.26 30.5 30.5 0 0 1-13.83-4.8c.072 1.118.236 2.229.49 3.32a31 31 0 0 1-10-5.69c0 .39.65 4.36.65 4.36a40.3 40.3 0 0 1-8.3-6.56 17 17 0 0 0 .49 3.33 63 63 0 0 1-10.82-6.68M78.42 295.87c10.19 6.2 23.73-1.41 19.68-18.66 8.64 12.88-5.56 29.31-17.76 22.68-1.94-1.21-2.21-2.72-1.91-4z"></path><path fill="#D0D2D3" d="M60.14 289c1.73-9.18 14.09-17.76 26-12.15-21.54-6.56-33.87 24.6-13.21 37.22a21.8 21.8 0 0 0 7.19 2.74c-18.37-2.27-22.24-17.26-20-27.81"></path><path fill="#D0D2D3" d="M67.92 319.37c19.88 7.81 36.46-2.77 39-15.11 3.13-15.58 9.64-18 15.47-20.18l-1.17 4.3a20.5 20.5 0 0 0-1.39 3.7l1.39-3.7c-11.29 3.14-7.24 15.43-14.19 24.53a28.33 28.33 0 0 1-39.06 6.47M135.5 292.54l18-9.76 2.12 11.74c-.88.37-1.77.72-2.67 1.06 8.54 6.85 19.31-.82 27.47 3.52 3.12 1.44 3.91 5.46 3.4 10.41l-7.52 8.11c.94-17.14-33.72 5.33-40.81-25.08zM218.13 215.62c6.9 10.33 1.52 21.51-2.87 25.52-11.58 10.58-41.56-3.44-46.6 11 12.53-1.94 15.15-.57 25.42 2.08 17.91 4.79 38.73-8.6 33.16-28.9a15 15 0 0 0-9.11-9.68M103.64 253.32c-9.95-.15-2.08-11-8.89-15.58 2.9 0 6.56 1.87 5.29 7.08a5.48 5.48 0 0 0 .52-6.49c1.44-.43 9 .53 6.5 7.52-1.46 3-4 3.63-3.43 7.49z"></path><path fill="#D0D2D3" d="M163.92 298.54c5.74-.3 11.6-2 16.51.57 7.3 3.39 1.85 20.86-3.28 31.45a21.38 21.38 0 0 0 19.5-2.46l.53-.4c-1.28-.82-5-3.49-3.64-7 1.86-5.4 9.6-4.64 10.93-3.67a8.27 8.27 0 0 0-3.85 3.51 10.86 10.86 0 0 1 8.91-.43c-.94.61-4.2 3.59-4.5 5.45a15.6 15.6 0 0 1 4.82-1.85c-.87 1.91-.34 7.38-2.07 9.6-2.46 2.32-5.18 2.75-8.45 3v.06a34 34 0 0 0 2.24 2.75 44.2 44.2 0 0 1-10.54-.3 9.75 9.75 0 0 0 2.63 3.21 37.8 37.8 0 0 1-11.48-2.87c.48.9 2.78 4.3 2.78 4.31a43 43 0 0 1-15.7-7.15c12.22-19.88 8.14-36.79-5.31-37.77zM111.12 207.8c5-6.91 4.79-13.53.58-19.93 5.18-.09 7.09 7.38 6.05 9.42 2.91-1.9 1.58-5.55 1.4-6.22 2.32 0 4.82 2.15 5.74 4.22 1.16 2.83 1.1 6.43-2.69 8.93-2.24 1.21-4.84 2-6.42 4.16a96 96 0 0 1 13.77 10.83 116 116 0 0 1 10.37 11c1 1.11 2.88 2.62 4.38 2.85 1.999.402 4.068.271 6-.38-5.3 1.89-12 1.48-17.33 0-10.08-3.47-15-11.7-21.85-24.92zM123.6 298.11a29.4 29.4 0 0 0 10.59 17.22c-.69-.51-1.38-1-2.07-1.57a42.3 42.3 0 0 0 8.37 7c-4 9.61-18 17.51-28 18.86a25.77 25.77 0 0 0 5.21 20.77.2.2 0 0 0 .089.068.2.2 0 0 0 .111.002.2.2 0 0 0 .086-.035.2.2 0 0 0 .054-.075 10.82 10.82 0 0 1 8.231-6.089 10.81 10.81 0 0 1 9.619 3.509 10.26 10.26 0 0 0-6.15 1.85c3.91.39 8.33 4.16 9 7.75-3.09-1.3-4.44-1.64-7.56-.45 1.23.37 6.45 3.9 6.45 5-5.32 1-10.43 5.05-14.11-1.86a.19.19 0 0 0-.17-.11l-7.94-6.17c-8.05-6-9.84-16.34-10-27.88 16 1.18 19.85-14.4 18.22-37.8M169.57 195h9c-1.41-1.64-2.9-3.28-4.43-4.79-1.32-1.31.13-2.7.38-2.9-4.81-5.87-11.42-8.09-18.86-8.09a35 35 0 0 0-4.32.26c10.09 1.54 17.22 5.74 18.16 15.51z"></path><path fill="#D0D2D3" d="M174.16 190.23a1.59 1.59 0 0 1-.52-1.51l-4.06 6.23a10.48 10.48 0 0 1-.46 7.54c7.67 11.41 10.16 20 11.13 30h.16c5 .11 12.1 1.71 14 2.07-.01-16.86-8.53-32.68-20.25-44.33m15.9 64.18-1.63-.47-1.25-.31-.64-.16-1.42-.3c-.48-.1-1-.18-1.46-.26l-.67-.11h-.24c-.75-.11-1.52-.21-2.28-.29l-1.2-.11-.93-.07c-4.88 15.21-17.29 27.45-33.83 35.26 2.08 2.73 4.38 5.73 8.48 8a64.3 64.3 0 0 0 19.67-11.55l1.14-1c7-6.41 13.78-15.85 17-25 .37-1 .68-2.07 1-3.1z"></path><path fill="#000" d="M171.11 47.31 155.8 36.22l-15.31 11.09 5.81-18L131 18.19h18.9l5.87-18 5.87 18h18.9L165.3 29.32z"></path><path fill="#FCDC19" d="m146.7 38.77 9.1-6.6 9.1 6.6-3.45-10.7 9.08-6.62-11.24-.02-3.49-10.68-3.49 10.68-11.24.02 9.09 6.62z" data-source="https://football-logos.cc"></path><!-- source: https://football-logos.cc --></svg>