<svg xmlns="http://www.w3.org/2000/svg" viewBox="1.49 1.5 275.02 300"><!-- Source: https://football-logos.cc --><path d="M258.262 183.043q.204-2.479.523-8.007c.207-3.684.333-6.321.36-7.907q-.589.369-1.145.73-.555.361-2.42 1.711c.066-.905.12-1.967.175-3.194.054-1.22.081-2.114.081-2.692a68 68 0 0 0 3.096-1.913q.228-.171.692-.54 1.42.033 3.276.033 1.764 0 3.602-.032l-.316 3.564-.687 11.821-.158 4.35v2.076c-.91-.022-2.01-.033-3.308-.033-1.515 0-2.768.01-3.771.033M276.116 183.043a143 143 0 0 0 2.638-3.27 81 81 0 0 0 2.485-3.363c.834-1.194 1.466-2.17 1.902-2.938.436-.762.79-1.488 1.063-2.169.267-.68.452-1.231.54-1.656a6 6 0 0 0 .136-1.26q0-.848-.295-1.51a2.07 2.07 0 0 0-.904-.996 2.7 2.7 0 0 0-1.341-.333c-.829 0-1.537.267-2.115.801q-.873.803-.872 2.12.002.76.338 1.308.337.546.992.84.652.294 1.33.294c.272 0 .665-.054 1.166-.164a128 128 0 0 0-3.106 4.578q-.54.066-.927.066c-.703 0-1.472-.13-2.294-.398a6.4 6.4 0 0 1-2.191-1.205c-.638-.539-1.117-1.231-1.45-2.076a7.2 7.2 0 0 1-.496-2.67c0-1.26.278-2.437.829-3.543a7.3 7.3 0 0 1 2.327-2.72 9.5 9.5 0 0 1 3.259-1.498q1.766-.442 3.81-.442 1.888-.001 3.63.496 1.739.492 2.85 1.515a6.3 6.3 0 0 1 1.65 2.453c.366.948.546 1.87.546 2.752q-.001.942-.223 2.104c-.148.78-.388 1.597-.71 2.458a27 27 0 0 1-1.35 2.948 34 34 0 0 1-2.034 3.39q-1.168 1.741-2.877 4.088zM304.86 169.112c.55-.087 1.079-.13 1.574-.13q1.832 0 3.287.72 1.455.717 2.207 2.228.745 1.512.747 3.368a8.115 8.115 0 0 1-1.324 4.485 7.5 7.5 0 0 1-1.587 1.728 7.4 7.4 0 0 1-2.027 1.156c-.72.267-1.482.468-2.295.6q-1.208.201-2.458.2-2.884.001-5.02-.964c-1.416-.648-2.451-1.531-3.095-2.654q-.964-1.69-.964-3.717 0-1.17.261-2.562c.175-.926.567-2.032 1.167-3.313q.9-1.928 2.469-4.437a54 54 0 0 1 3.199-4.588h8.175c-1.614 1.858-2.687 3.122-3.216 3.782a37 37 0 0 0-2.125 2.927 28 28 0 0 0-1.657 2.796 23 23 0 0 0-1.123 2.534 8.3 8.3 0 0 0-.392 1.373q-.121.638-.12 1.194.001.751.305 1.438c.202.458.501.818.91 1.085.404.267.883.398 1.45.398q.8 0 1.411-.376a2.3 2.3 0 0 0 .916-1.03q.304-.661.305-1.395.002-1.286-.937-1.875-.932-.59-1.864-.589a8 8 0 0 0-.861.066c.245-.393.708-1.156 1.379-2.279zM104.56 239.84c.458-4.471.77-8.054.95-10.768.267-4.01.513-9.519.758-16.525.235-7.018.357-11.737.357-14.16v-3.626c6.555.045 12.662.067 18.3.067q8.541 0 16.413-.067c-.346 5.046-.525 8.346-.525 9.901l-2.847-.101-2.289-.034-2.289-.034h-6.442c-.737 0-2.914.023-6.51.068l-.256 7.772 4.734.068h5.281c1.53 0 3.852-.034 6.99-.102-.235 4.168-.358 7.435-.358 9.8-3.506-.113-6.096-.169-7.793-.169-2.87 0-5.996.056-9.39.17l-.357 11.872-.045 4.415v1.453l-7.023-.067c-.547 0-3.104.022-7.659.068M184.134 228.892c-.257 1.284-.57 3.086-.938 5.384q-.537 3.467-.737 5.362c-4.667.72-8.82 1.081-12.483 1.081-3.528 0-6.822-.45-9.859-1.34s-5.828-2.355-8.362-4.382c-2.546-2.039-4.355-4.438-5.449-7.187-1.083-2.748-1.63-5.824-1.63-9.236q0-5.982 2.21-10.747a20.9 20.9 0 0 1 6.342-7.952 26.2 26.2 0 0 1 9.066-4.551 38 38 0 0 1 10.205-1.374c3.227 0 7.213.428 11.97 1.284l.066 2.76c.034 1.205.1 2.523.179 3.976l.223 3.74c-2.545-.609-4.611-1.014-6.196-1.228-1.586-.214-3.048-.327-4.4-.327-2.936 0-5.593.597-7.949 1.78-2.344 1.194-4.198 2.917-5.55 5.182-1.35 2.264-2.031 4.776-2.031 7.524 0 2.5.57 4.652 1.697 6.455q1.708 2.685 4.589 4.156c1.931.98 4.31 1.464 7.146 1.464 1.54 0 3.226-.124 5.046-.371 1.82-.248 4.098-.733 6.845-1.453M207.134 239.84c.413-4.122.714-7.524.882-10.239.334-4.798.68-11.365 1.049-19.712.268-5.813.39-9.913.39-12.29v-2.838c3.64.045 6.142.067 7.515.067.904 0 3.26-.022 7.045-.067l-1.54 24.669-.782 20.41-7.09-.067q-1.491 0-7.47.068m16.367-23.756 7.347-10.082 5.929-8.403 1.83-2.838c4.065.045 6.823.067 8.263.067.39 0 3.003-.022 7.826-.067l-13.81 17.65-2.59 3.538 2.422 3.886 13.71 20.005-8.072-.067q-2.612 0-8.876.068c-2.825-5.351-7.48-13.27-13.979-23.757" style="fill:#fff;fill-rule:evenodd" transform="matrix(.48836 0 0 .48836 -6.354 -54.072)" data-source="https://football-logos.cc"></path><path d="m252.564 239.84 2.713-4.753 16.904-32.17 1.797-3.594c.525-1.06 1.25-2.58 2.189-4.562q5.76.067 8.407.067 4.606 0 8.541-.067l4.768 13.776 9.725 26.482 1.898 4.821a884 884 0 0 0-6.867-.067c-1.83 0-4.533.022-8.083.068-.96-3.639-2.345-7.92-4.165-12.842h-16.468a322 322 0 0 0-5.862 12.842q-6.096-.069-7.47-.068c-1.663 0-4.331.022-8.027.068m25.31-22.438h10.161c-2.534-7.761-3.919-12.042-4.164-12.83-1.43 3.233-2.646 5.88-3.651 7.952zM322.435 239.84c.223-1.78.48-4.81.781-9.079.313-4.258.458-7.276.458-9.034l-14.961-26.966c3.294.045 6.018.067 8.15.067 2.055 0 4.5-.022 7.358-.067.871 2.219 2.054 4.866 3.55 7.93 1.497 3.075 2.703 5.824 3.64 8.234 2.49-4.495 4.5-8.009 6.018-10.52q2.261-3.786 3.25-5.644 4.152.067 8.005.067c1.35 0 3.818-.022 7.38-.067l-14.347 21.402c-2.847 4.28-4.276 6.51-4.276 6.714l-.034.326v.327l-.033.338-.246 5.001a392 392 0 0 0-.39 10.971c-3.071-.045-5.438-.067-7.113-.067-1.73 0-4.12.022-7.19.067M355.774 239.165c-.28-4.675-.614-8.415-.983-11.22 2.456 1.093 4.656 1.848 6.576 2.265 1.92.428 3.607.642 5.047.642 1.92 0 3.439-.282 4.567-.845 1.127-.563 1.696-1.386 1.696-2.49 0-.371-.055-.732-.167-1.07-.112-.349-.313-.732-.625-1.16-.313-.428-.748-.89-1.317-1.397l-6.209-5.418c-1.45-1.228-2.467-2.118-3.036-2.67-1.161-1.126-2.077-2.173-2.724-3.142a11 11 0 0 1-1.419-2.951 11 11 0 0 1-.446-3.188c0-1.34.234-2.659.703-3.943a12 12 0 0 1 2.122-3.616c.937-1.115 2.177-2.084 3.74-2.895a16.2 16.2 0 0 1 4.98-1.667 32.4 32.4 0 0 1 5.482-.45c3.695 0 7.715.428 12.07 1.284.055 1.52.133 2.906.222 4.168.09 1.261.302 3.48.626 6.646-2.021-.811-3.864-1.375-5.538-1.69-1.664-.315-3.104-.473-4.31-.473-1.708 0-3.138.315-4.265.957-1.128.642-1.697 1.43-1.697 2.377q0 .66.268 1.284c.167.417.502.913.982 1.476.48.552 1.117 1.171 1.91 1.847a134 134 0 0 0 3.729 2.985l2.367 1.881a32 32 0 0 1 2.277 2.073 25 25 0 0 1 2.1 2.41c.603.8 1.049 1.521 1.373 2.186.312.653.558 1.318.703 1.994q.235 1.013.235 2.162c0 1.983-.47 3.864-1.407 5.655-.938 1.802-2.278 3.278-3.998 4.427a16.6 16.6 0 0 1-5.694 2.422 30 30 0 0 1-6.531.698c-3.54 0-8.017-.518-13.41-1.554M387.326 239.84l2.713-4.753 16.904-32.17 1.797-3.594c.525-1.06 1.25-2.58 2.189-4.562q5.76.067 8.407.067 4.605 0 8.541-.067l4.768 13.776 9.725 26.482 1.898 4.821a884 884 0 0 0-6.867-.067c-1.831 0-4.533.022-8.083.068-.96-3.639-2.345-7.92-4.165-12.842h-16.468a322 322 0 0 0-5.862 12.842q-6.096-.069-7.47-.068c-1.663 0-4.331.022-8.027.068m25.31-22.438h10.161c-2.534-7.761-3.919-12.042-4.164-12.83-1.43 3.233-2.646 5.88-3.651 7.952zM447.684 239.84c.424-3.875.76-7.367 1.005-10.464.246-3.109.458-6.713.636-10.802.19-4.1.324-8.415.413-12.966q.135-6.825.134-10.847 4.087.1 6.599.101c1.742 0 3.874-.056 6.375-.146 2.512-.102 4.947-.158 7.325-.158 2.79 0 5.27.113 7.458.338 1.63.146 3.115.473 4.454.957q2.01.727 3.384 1.758c.915.698 1.685 1.475 2.288 2.331.615.856 1.083 1.859 1.43 3.02.335 1.148.502 2.387.502 3.705 0 1.476-.19 2.861-.558 4.145a11.8 11.8 0 0 1-1.753 3.628c-.793 1.137-1.798 2.117-3.003 2.94-1.218.822-2.915 1.667-5.092 2.523l1.697 4.201c.48 1.16.994 2.354 1.541 3.571l4.377 9.688c.2.416.547 1.239 1.05 2.478a716 716 0 0 0-7.27-.068c-1.573 0-4.141.022-7.725.068-.346-1.15-.983-3.278-1.899-6.387-.368-1.296-.68-2.31-.949-3.008-.513-1.566-1.295-3.762-2.31-6.59l-3.373-9.36c1.184.225 2.334.338 3.473.338 1.585 0 3.026-.237 4.32-.721 1.296-.484 2.278-1.228 2.948-2.242.659-1.002.994-2.061.994-3.187 0-.936-.246-1.769-.748-2.479s-1.295-1.239-2.367-1.588c-1.083-.35-2.747-.53-4.99-.53-.76 0-1.553.012-2.368.046-.815.033-1.764.067-2.858.09-.29 4.506-.536 10.014-.76 16.502a809 809 0 0 0-.435 19.116q-5.46-.069-7.1-.068c-1.262 0-3.551.022-6.845.068M211.156 266.08q.24-1.996.347-3.445.167-2.07.377-5.85.138-2.587.14-3.667v-.95c1.172.015 1.938.022 2.31.022.246 0 .97-.007 2.18-.021l-.439 5.502-.38 6.594-.044 1.815-2.19-.021q-.39 0-2.3.02m5.122-7.352 3.208-2.847 2.928-2.683q.309-.293 1.047-1.03l2.522.022 2.416-.021-6.453 5.527-1.09.99.887.915q.196.192 2.788 2.645l4.104 3.834-2.517-.021q-.665 0-2.754.02l-.907-1.018a28 28 0 0 0-.902-.966l-3.849-3.952zM234.477 266.08q.17-1.131.352-2.955c.115-1.217.187-2.186.207-2.906l-6.348-8.05q1.602.02 2.494.02.848 0 2.267-.02c.425.71 1.037 1.602 1.847 2.69a53 53 0 0 1 2.093 2.986l4.196-4.9q.21-.255.623-.776 1.373.02 2.436.02.548 0 2.276-.02l-7.727 8.259-.178 2.582a60 60 0 0 0-.13 3.07 179 179 0 0 0-2.195-.021q-.709 0-2.213.02M246.5 266.08a31 31 0 0 0 .145-2.312l.666-.528c.029-.021.43-.365 1.201-1.04l6.931-5.971 2.19-1.954-.931-.01h-.357l-1.23-.01h-2.151q-2.657 0-5.19.104.087-.792.087-1.71 0-.173-.015-.48 3.69.02 7.829.02l4.721-.01 2.571-.01a29 29 0 0 0-.145 2.28l-.96.762q-.28.223-.55.469l-5.044 4.446-4.423 3.806 1.133.01q4.782 0 6.15-.02 1.373-.022 3-.095c-.077.956-.12 1.707-.14 2.253q-4.058-.021-7.442-.021l-5.22.01zM269.368 266.08q.172-1.131.352-2.955c.116-1.217.188-2.186.207-2.906l-6.347-8.05c1.066.014 1.9.02 2.494.02.563 0 1.321-.006 2.266-.02.425.71 1.037 1.602 1.848 2.69a53 53 0 0 1 2.093 2.986l4.196-4.9q.21-.255.622-.776 1.374.02 2.436.02.549 0 2.277-.02l-7.727 8.259-.179 2.582a60 60 0 0 0-.13 3.07 179 179 0 0 0-2.195-.021q-.708 0-2.213.02M282.318 266.08q.414-3.067.66-6.834t.29-7.077q1.447.02 2.407.02.651 0 2.084-.02a138 138 0 0 0-.338 4.174l-.28 4.085a85 85 0 0 0-.178 3.483l2.43.02c2.277 0 3.777-.006 4.49-.017a71 71 0 0 0 2.123-.055c-.087.67-.164 1.407-.231 2.22q-3.712-.02-6.353-.02l-4.451.01zM308.937 251.94q2.1 0 4.038.417 1.93.418 3.429 1.359 1.497.942 2.257 2.197.761 1.25.762 2.923a6.6 6.6 0 0 1-.718 2.996c-.483.956-1.225 1.776-2.234 2.464q-1.504 1.038-3.675 1.533a20.2 20.2 0 0 1-4.553.501q-2.257 0-4.341-.459c-1.389-.306-2.58-.782-3.583-1.435q-1.507-.977-2.152-2.246a5.9 5.9 0 0 1-.65-2.746q0-1.617.81-3.093c.54-.988 1.336-1.801 2.387-2.448 1.047-.642 2.277-1.133 3.685-1.463q2.106-.5 4.538-.5m-.226 2.169q-2.133 0-3.71.709c-1.05.472-1.846 1.119-2.377 1.936a4.8 4.8 0 0 0-.796 2.655q0 1.324.767 2.444.773 1.115 2.363 1.7 1.594.587 3.44.587c.93 0 1.823-.115 2.666-.348q1.269-.344 2.195-1.053a4.6 4.6 0 0 0 1.39-1.71q.462-.998.462-2.078-.002-1.007-.414-1.937a4.13 4.13 0 0 0-1.293-1.595c-.584-.445-1.283-.775-2.108-.99q-1.231-.32-2.585-.32M322.1 266.08q.421-3.036.632-6.98t.212-6.931q1.692.02 2.841.02c.82 0 1.62-.01 2.412-.03q1.178-.032 2.493-.032c1.095 0 2.07.045 2.933.132q1.295.134 2.3.612.999.48 1.491 1.161.486.684.487 1.592 0 .568-.183 1.085c-.126.34-.304.663-.545.966a4 4 0 0 1-.859.796 5 5 0 0 1-.984.539 7 7 0 0 1-1.11.34c-.419.098-.973.212-1.673.348l.96 1.345a108 108 0 0 0 1.77 2.305l1.423 1.804q.116.14.68.928-1.736-.021-2.286-.021-.687 0-2.402.02l-1.553-2.704q-.406-.619-.98-1.463l-1.692-2.471q-.255-.344-.7-1.036.942.125 1.717.125 1.21 0 2.21-.285.998-.287 1.533-.886.536-.6.536-1.304c0-.288-.077-.552-.232-.8q-.238-.365-.786-.622a4 4 0 0 0-1.317-.326 16 16 0 0 0-1.524-.073q-.425 0-1.162.01-.731.01-1.809.01l-.25 4.186-.266 7.64-2.185-.021q-.526 0-2.132.02M340.385 266.08l.39-3.546.285-4.435.188-4.411q.015-.288.015-1.52 1.569.022 2.952.022 1.034 0 2.72-.031a162 162 0 0 1 2.918-.032q1.667.001 3.087.143 1.417.145 2.479.535a7.3 7.3 0 0 1 1.837.984q.775.592 1.269 1.31c.328.48.584 1.012.757 1.6q.26.88.26 1.8 0 1.752-.839 3.337c-.564 1.056-1.398 1.929-2.512 2.617-1.11.692-2.345 1.133-3.695 1.331q-2.034.296-4.601.296l-4.81-.021c-.303 0-1.2.007-2.7.02m4.336-2.19c.772.028 1.539.042 2.29.042q1.291 0 2.384-.094c.733-.06 1.36-.157 1.89-.289a5.7 5.7 0 0 0 1.592-.695c.53-.334.97-.716 1.307-1.154a5.139 5.139 0 0 0 1.047-3.094q0-1.526-.724-2.506a4 4 0 0 0-1.9-1.411q-1.18-.433-3.642-.434-1.598 0-3.66.041zM359.654 266.08q1.47-1.875 3.448-4.637l3.719-5.148a101 101 0 0 0 2.884-4.126 161.02 161.02 0 0 0 5.233 0l2.021 4.168 4.4 8.62.607 1.123-2.118-.021c-.492 0-1.312.007-2.47.02q-.339-.905-1.07-2.447a68 68 0 0 0-1.24-2.495h-7.432a133 133 0 0 0-3.217 4.943l-2.31-.021c-.44 0-1.254.007-2.455.02m9.236-7.07h5.412l-2.224-4.703-1.143 1.71z" style="fill:#fff;fill-rule:evenodd" transform="matrix(.48836 0 0 .48836 -6.354 -54.072)"></path><path d="M298.418 136.95c92.437-.427 168.953 23.119 229.381 73.758-4.326 69.974-14.857 140.12-37.501 205.594-28.617 82.747-84.319 179.784-141.752 230.905-9.207 24.414-28.088 36.429-51.094 36.468-22.303.038-41.567-12.918-50.065-36-65.715-62.899-111.536-141.196-141.752-230.439-23.167-68.42-35.184-137.504-38.348-206.257 70.662-59.485 149.46-73.65 231.13-74.028" style="fill:#000;fill-rule:evenodd" transform="matrix(.48836 0 0 .48836 -6.354 -54.072)"></path><path d="M105.635 417.236c3.209 5.99 8.409 10.997 13.874 16.235.774.695 1.52-.167 2.157-1.149 16.68-25.7 36.319-50.299 61.595-72.936.378-19.96.507-39.712 3.751-60.75 1.602-10.389 4.108-19.545 10.213-26.216 1.492-1.703 1.804-2.047 3.85-1.722 4.27.678 8.794 1.769 13.664 5.25 5.735 4.1 11.32 8.5 17.086 12.328 2.61 1.844 5.532 2.922 8.25 4.36 1.755.927 3.165 1.12 5.25.374a164.3 164.3 0 0 1 52.125-9.562c18.383-.349 36.218 4.101 52.313 9.187 2.687.85 3.437 1.172 6 0 6.782-3.469 12.258-7.037 17.814-11.812 6.664-5.727 13.858-9.138 20.25-9.938 2.133-.266 3.214 0 4.406 1.348 4.138 4.679 6.363 9.907 7.782 15.34 5.3 20.279 5.945 48.531 6.188 72.375 21.4 18.85 41.563 44.781 62.533 73.221.47.636 1.81.209 2.344-.375 4.832-5.285 9.937-10.62 13.218-16.492" style="fill:none" transform="matrix(.48836 0 0 .48836 -6.354 -54.072)"></path><path d="M105.635 417.236c3.209 5.99 8.409 10.997 13.874 16.235.774.695 1.52-.167 2.157-1.149 16.68-25.7 36.319-50.299 61.595-72.936.378-19.96.507-39.712 3.751-60.75 1.602-10.389 4.108-19.545 10.213-26.216 1.492-1.703 1.804-2.047 3.85-1.722 4.27.678 8.794 1.769 13.664 5.25 5.735 4.1 11.32 8.5 17.086 12.328 2.61 1.844 5.532 2.922 8.25 4.36 1.755.927 3.165 1.12 5.25.374a164.3 164.3 0 0 1 52.125-9.562c18.383-.349 36.218 4.101 52.313 9.187 2.687.85 3.437 1.172 6 0 6.782-3.469 12.258-7.037 17.814-11.812 6.664-5.727 13.858-9.138 20.25-9.938 2.133-.266 3.214 0 4.406 1.348 4.138 4.679 6.363 9.907 7.782 15.34 5.3 20.279 5.945 48.531 6.188 72.375 21.4 18.85 41.563 44.781 62.533 73.221.47.636 1.81.209 2.344-.375 4.832-5.285 9.937-10.62 13.218-16.492 22.644-65.475 33.175-135.62 37.501-205.594-60.428-50.64-136.944-74.185-229.381-73.757-81.67.378-160.469 14.543-231.13 74.028 3.163 68.753 15.18 137.836 38.347 206.257m190.14-151.156-6.353-.021-4.451.01-2.653.01q.414-3.066.66-6.833.247-3.766.29-7.077l2.407.02 2.084-.02a138 138 0 0 0-.338 4.174l-.28 4.085a85 85 0 0 0-.178 3.483l2.43.02c2.277 0 3.777-.006 4.49-.017a71 71 0 0 0 2.123-.056c-.087.671-.164 1.408-.231 2.222m4.543-1.644q-1.506-.977-2.15-2.246a5.9 5.9 0 0 1-.652-2.746q0-1.617.81-3.093c.54-.988 1.337-1.801 2.388-2.448 1.046-.642 2.276-1.133 3.685-1.463q2.106-.5 4.538-.5 2.1 0 4.038.417 1.93.418 3.429 1.359 1.497.942 2.257 2.197.76 1.25.762 2.923a6.6 6.6 0 0 1-.718 2.996q-.723 1.433-2.234 2.464-1.505 1.038-3.675 1.533a20.2 20.2 0 0 1-4.553.501q-2.257 0-4.341-.459c-1.389-.306-2.58-.782-3.584-1.435m21.782 1.644q.421-3.036.632-6.98t.212-6.931l2.841.02c.82 0 1.62-.01 2.412-.03q1.178-.032 2.493-.032c1.095 0 2.07.045 2.933.132q1.295.134 2.3.612.999.48 1.491 1.161.486.684.487 1.592 0 .568-.183 1.085c-.126.34-.304.663-.545.966a4 4 0 0 1-.859.796 5 5 0 0 1-.984.539 7 7 0 0 1-1.11.34c-.419.098-.973.212-1.673.348l.96 1.345a108 108 0 0 0 1.77 2.305l1.423 1.804q.116.14.68.928l-2.286-.021-2.402.02-1.553-2.704-.98-1.463-1.692-2.471q-.255-.344-.7-1.036.942.125 1.717.125 1.21 0 2.21-.285.998-.287 1.533-.886.536-.6.536-1.304c0-.288-.077-.552-.232-.8q-.238-.365-.786-.622a4 4 0 0 0-1.317-.326 16 16 0 0 0-1.524-.073l-1.162.01-1.809.01-.25 4.186-.266 7.64-2.185-.021zm18.96-7.981.188-4.411q.015-.288.015-1.52l2.952.022q1.034 0 2.72-.032a162 162 0 0 1 2.918-.03q1.667 0 3.087.142 1.417.144 2.479.535a7.3 7.3 0 0 1 1.837.984q.775.592 1.269 1.31c.328.48.584 1.012.757 1.6q.26.88.26 1.8 0 1.752-.839 3.337c-.564 1.056-1.398 1.929-2.512 2.617-1.11.691-2.345 1.133-3.695 1.331q-2.034.297-4.601.296l-4.81-.021-2.7.02.39-3.545zm88.258-18.258c-.96-3.639-2.345-7.92-4.165-12.842h-16.469a322 322 0 0 0-5.861 12.842q-6.096-.069-7.47-.068c-1.663 0-4.332.022-8.027.068l2.713-4.754 16.904-32.17 1.797-3.594c.525-1.06 1.25-2.58 2.189-4.562q5.76.067 8.407.067 4.605 0 8.541-.067l4.768 13.776 9.725 26.482 1.898 4.822a884 884 0 0 0-6.867-.068c-1.831 0-4.533.022-8.083.068m18.366 0c.424-3.876.76-7.368 1.005-10.465.245-3.109.457-6.713.636-10.802.19-4.1.324-8.415.413-12.966q.135-6.825.134-10.847 4.086.1 6.599.101c1.741 0 3.874-.056 6.375-.146 2.512-.102 4.946-.158 7.324-.158 2.791 0 5.27.113 7.459.338 1.63.146 3.115.473 4.454.957q2.01.727 3.383 1.758c.916.698 1.686 1.475 2.29 2.331.614.856 1.082 1.859 1.429 3.02.335 1.148.502 2.387.502 3.705 0 1.476-.19 2.861-.558 4.145a11.8 11.8 0 0 1-1.753 3.628c-.793 1.137-1.798 2.117-3.003 2.94-1.218.822-2.915 1.667-5.092 2.523l1.697 4.201c.48 1.16.994 2.354 1.541 3.571l4.376 9.688c.202.416.548 1.239 1.05 2.478a716 716 0 0 0-7.269-.068c-1.574 0-4.141.022-7.725.068-.346-1.15-.983-3.278-1.899-6.387-.368-1.296-.68-2.31-.949-3.008-.513-1.566-1.295-3.762-2.31-6.59l-3.373-9.36c1.184.225 2.334.338 3.473.338 1.585 0 3.026-.237 4.32-.721 1.296-.484 2.278-1.228 2.948-2.242.659-1.002.994-2.061.994-3.187 0-.936-.246-1.769-.748-2.479s-1.296-1.239-2.367-1.588c-1.083-.35-2.747-.53-4.99-.53-.76 0-1.553.012-2.368.046-.815.033-1.764.067-2.858.09-.29 4.506-.536 10.014-.76 16.502a809 809 0 0 0-.435 19.116q-5.46-.069-7.1-.068c-1.262 0-3.551.022-6.845.068M246.501 266.08a31 31 0 0 0 .144-2.312l.666-.528 1.201-1.04 6.931-5.971 2.19-1.954-.932-.01h-.356l-1.23-.01h-2.151q-2.657 0-5.19.104.087-.792.087-1.71l-.015-.48q3.69.02 7.829.02l4.721-.01 2.571-.01a29 29 0 0 0-.145 2.28l-.96.762q-.28.223-.55.469l-5.044 4.446-4.423 3.806 1.133.01q4.782 0 6.15-.02 1.373-.022 3-.095c-.077.956-.12 1.707-.14 2.253l-7.442-.021-5.22.01zm23.426-5.86-6.347-8.051 2.494.02 2.266-.02c.425.71 1.037 1.602 1.848 2.69a53 53 0 0 1 2.093 2.986l4.196-4.9.622-.776 2.436.02 2.277-.02-7.727 8.259-.179 2.582a60 60 0 0 0-.13 3.07l-2.195-.021-2.213.02q.171-1.13.352-2.954c.116-1.217.188-2.186.207-2.906m66.81-20.38c-3.07-.045-5.437-.067-7.112-.067-1.73 0-4.12.022-7.19.067.223-1.78.48-4.81.781-9.079.313-4.258.458-7.276.458-9.034l-14.961-26.966c3.294.045 6.018.067 8.15.067 2.055 0 4.5-.022 7.358-.067.871 2.219 2.054 4.866 3.55 7.93 1.497 3.075 2.703 5.824 3.64 8.234 2.49-4.495 4.5-8.009 6.018-10.52q2.261-3.786 3.25-5.644 4.152.067 8.005.067c1.35 0 3.818-.022 7.38-.067l-14.347 21.402c-2.847 4.28-4.277 6.51-4.277 6.714l-.033.326v.327l-.033.338-.246 5.001a392 392 0 0 0-.39 10.971m19.037-.675c-.28-4.675-.614-8.415-.983-11.22 2.456 1.093 4.656 1.848 6.576 2.264 1.92.428 3.607.643 5.047.643 1.92 0 3.439-.282 4.567-.845 1.127-.563 1.696-1.386 1.696-2.49 0-.372-.055-.732-.167-1.07-.112-.349-.313-.732-.625-1.16-.313-.428-.748-.89-1.317-1.397l-6.209-5.418c-1.45-1.228-2.467-2.118-3.036-2.67-1.161-1.126-2.077-2.174-2.724-3.142a11 11 0 0 1-1.419-2.952 11 11 0 0 1-.446-3.187c0-1.34.234-2.659.703-3.943a12 12 0 0 1 2.122-3.616c.937-1.115 2.177-2.084 3.74-2.895a16.2 16.2 0 0 1 4.98-1.667 32.4 32.4 0 0 1 5.481-.45c3.696 0 7.716.428 12.07 1.284.056 1.52.134 2.906.223 4.168.09 1.261.302 3.48.626 6.646-2.021-.811-3.864-1.375-5.538-1.69-1.664-.315-3.104-.473-4.31-.473-1.708 0-3.138.315-4.265.957-1.128.642-1.697 1.43-1.697 2.377q0 .66.268 1.284c.167.417.502.913.982 1.476.48.552 1.117 1.171 1.91 1.847a134 134 0 0 0 3.729 2.985l2.367 1.881a32 32 0 0 1 2.277 2.073 25 25 0 0 1 2.1 2.41c.602.8 1.049 1.521 1.373 2.186.312.653.558 1.318.703 1.994q.235 1.013.235 2.162c0 1.983-.47 3.864-1.407 5.655-.938 1.802-2.278 3.278-3.998 4.427a16.6 16.6 0 0 1-5.694 2.422 30 30 0 0 1-6.531.698c-3.54 0-8.017-.518-13.41-1.554m-144.27 23.47q.166-2.07.376-5.85.138-2.587.14-3.667v-.95l2.31.022 2.18-.021-.439 5.502-.38 6.594-.044 1.815-2.19-.021-2.3.02q.238-1.995.346-3.444m7.982-6.754 2.928-2.683 1.047-1.03 2.522.022 2.416-.021-6.453 5.527-1.09.99.887.915 2.788 2.645 4.104 3.834-2.517-.021-2.754.02-.907-1.018a28 28 0 0 0-.902-.966l-3.849-3.952-1.428-1.415zm33.087-16.056-6.217-.052q-2.612 0-8.876.068c-2.825-5.351-7.48-13.27-13.979-23.757l7.347-10.082 5.929-8.403 1.83-2.838c4.065.045 6.823.067 8.263.067l7.826-.067-13.81 17.65-2.59 3.538 2.422 3.886 12.693 18.521 1.866-3.269 16.904-32.17 1.797-3.594c.525-1.06 1.25-2.58 2.189-4.562q5.76.067 8.407.067 4.606 0 8.541-.067l4.768 13.776 9.725 26.482 1.898 4.821a884 884 0 0 0-6.867-.067c-1.83 0-4.533.022-8.083.068-.96-3.639-2.345-7.92-4.165-12.842h-16.468a322 322 0 0 0-5.862 12.842q-6.096-.069-7.47-.068c-1.371 0-3.426.015-6.177.046l.015.022-1.1-.01h-.006l-.76.01zm-45.44.015c.414-4.122.715-7.524.883-10.239.334-4.798.68-11.365 1.049-19.712.268-5.813.39-9.913.39-12.29v-2.838c3.64.045 6.142.067 7.515.067.904 0 3.26-.022 7.045-.067l-1.54 24.669-.782 20.41-7.09-.067q-1.491 0-7.47.068m-24.674-.202c-4.667.72-8.82 1.081-12.483 1.081-3.528 0-6.822-.45-9.859-1.34s-5.828-2.355-8.362-4.382c-2.546-2.039-4.355-4.438-5.449-7.187-1.083-2.748-1.63-5.823-1.63-9.236q0-5.982 2.21-10.747a20.9 20.9 0 0 1 6.342-7.952 26.2 26.2 0 0 1 9.066-4.551 38 38 0 0 1 10.205-1.374c3.227 0 7.213.428 11.97 1.284l.066 2.76c.034 1.205.1 2.523.179 3.976l.223 3.74c-2.545-.609-4.611-1.014-6.196-1.228-1.586-.214-3.048-.327-4.4-.327-2.936 0-5.593.597-7.949 1.78-2.344 1.194-4.198 2.917-5.55 5.182-1.35 2.264-2.031 4.776-2.031 7.524 0 2.5.57 4.652 1.697 6.455q1.708 2.685 4.589 4.156c1.931.98 4.31 1.464 7.146 1.464 1.54 0 3.226-.123 5.046-.371s4.098-.732 6.845-1.453c-.257 1.284-.57 3.086-.938 5.384-.358 2.31-.603 4.1-.737 5.362m-53.425-17.708c-2.87 0-5.996.056-9.39.17l-.357 11.872-.045 4.415v1.454l-7.023-.068-7.659.068c.458-4.472.77-8.055.95-10.77.267-4.01.513-9.517.758-16.524.235-7.018.358-11.737.358-14.16v-3.626c6.554.045 12.66.067 18.3.067q8.54 0 16.412-.067c-.346 5.046-.525 8.347-.525 9.901l-2.847-.101-2.289-.034-2.289-.034h-6.442c-.737 0-2.914.023-6.51.068l-.256 7.772 4.734.068h5.281c1.53 0 3.852-.034 6.99-.102-.235 4.168-.358 7.435-.358 9.8-3.506-.112-6.096-.169-7.793-.169m173.95-38.462q-2.884 0-5.02-.965c-1.416-.648-2.451-1.531-3.094-2.654q-.966-1.69-.965-3.717 0-1.17.262-2.562c.174-.926.566-2.032 1.166-3.313q.9-1.928 2.469-4.437a54 54 0 0 1 3.199-4.588h8.175c-1.613 1.858-2.687 3.122-3.216 3.782a37 37 0 0 0-2.125 2.927 28 28 0 0 0-1.657 2.796 23 23 0 0 0-1.123 2.534 8.3 8.3 0 0 0-.392 1.373q-.121.638-.12 1.194.002.751.305 1.438c.202.458.502.818.91 1.085.404.267.883.398 1.45.398q.8 0 1.412-.376a2.3 2.3 0 0 0 .915-1.03q.304-.661.305-1.395.002-1.286-.937-1.875-.932-.59-1.864-.589a8 8 0 0 0-.861.066c.245-.393.708-1.156 1.379-2.279l1.302-2.169c.55-.087 1.08-.13 1.575-.13q1.832 0 3.287.72 1.455.717 2.207 2.228.745 1.512.747 3.368a8.115 8.115 0 0 1-1.324 4.485 7.5 7.5 0 0 1-1.587 1.728 7.4 7.4 0 0 1-2.027 1.156c-.72.267-1.482.468-2.295.6q-1.208.201-2.458.2m16.667-11.592q-.923-.448-1.363-.758a5.7 5.7 0 0 1-.844-.758 4.4 4.4 0 0 1-.676-.991 4.5 4.5 0 0 1-.387-1.118 6.4 6.4 0 0 1-.11-1.15q0-1.553.704-2.796c.468-.828 1.155-1.515 2.07-2.054a9.3 9.3 0 0 1 2.938-1.107 17.3 17.3 0 0 1 3.281-.305c1.096 0 2.158.125 3.178.376 1.019.251 1.896.644 2.621 1.172q1.095.802 1.602 1.831.514 1.03.513 2.47.001.685-.137 1.323-.132.64-.42 1.172c-.196.36-.424.687-.702.987a6.5 6.5 0 0 1-.878.779c-.31.224-.823.518-1.548.878q1.022.286 1.559.523.548.228 1.047.637t.86.954q.358.555.518 1.177.157.622.159 1.308a6.4 6.4 0 0 1-.78 3.052 6.3 6.3 0 0 1-2.13 2.328c-.9.588-1.941 1.008-3.135 1.27a17 17 0 0 1-3.651.392q-1.782.001-3.434-.349-1.65-.352-2.943-1.177-1.29-.82-1.88-1.94c-.392-.742-.589-1.592-.589-2.54 0-.55.071-1.09.213-1.608a5.7 5.7 0 0 1 .654-1.477 4.8 4.8 0 0 1 1.014-1.166 5.5 5.5 0 0 1 1.122-.736q.556-.262 1.554-.6m-43.535 11.167a143 143 0 0 0 2.638-3.27 81 81 0 0 0 2.485-3.363c.834-1.194 1.466-2.17 1.902-2.938.436-.762.79-1.488 1.063-2.169.267-.68.452-1.231.54-1.656a6 6 0 0 0 .136-1.26q0-.848-.295-1.51a2.07 2.07 0 0 0-.904-.996 2.7 2.7 0 0 0-1.341-.333c-.828 0-1.537.267-2.115.801q-.873.803-.872 2.12.002.76.338 1.308.337.546.992.84.653.294 1.33.294c.272 0 .665-.054 1.166-.164a128 128 0 0 0-3.106 4.578q-.54.066-.927.066c-.703 0-1.472-.13-2.294-.398a6.4 6.4 0 0 1-2.191-1.205c-.638-.539-1.117-1.231-1.45-2.076a7.2 7.2 0 0 1-.496-2.67c0-1.26.278-2.437.829-3.543a7.3 7.3 0 0 1 2.327-2.72 9.5 9.5 0 0 1 3.259-1.498q1.765-.442 3.81-.442 1.888-.001 3.63.496 1.739.492 2.85 1.515a6.3 6.3 0 0 1 1.65 2.453c.366.948.546 1.87.546 2.752q-.001.942-.223 2.104c-.148.78-.388 1.597-.71 2.458a27 27 0 0 1-1.35 2.948 34 34 0 0 1-2.034 3.39q-1.168 1.741-2.877 4.088zm-17.854 0q.204-2.479.523-8.007c.207-3.684.333-6.321.36-7.907l-1.145.73q-.555.361-2.42 1.711c.066-.905.12-1.967.175-3.194.054-1.22.081-2.114.081-2.692a68 68 0 0 0 3.096-1.913l.692-.54q1.42.033 3.276.033 1.764 0 3.602-.032l-.316 3.564-.687 11.821-.158 4.35v2.076c-.91-.022-2.01-.033-3.308-.033-1.515 0-2.768.01-3.771.033m101.392 83.037c.979-1.251 2.132-2.795 3.448-4.637l3.719-5.148a101 101 0 0 0 2.884-4.126l2.605.02 2.629-.02 2.02 4.168 4.4 8.62.607 1.123-2.117-.021-2.47.02q-.34-.905-1.07-2.447a68 68 0 0 0-1.24-2.495h-7.433a133 133 0 0 0-3.217 4.943l-2.31-.021zm-125.177 0q.17-1.131.352-2.955c.115-1.217.188-2.186.207-2.906l-6.348-8.05 2.494.02 2.267-.02c.425.71 1.037 1.602 1.847 2.69a53 53 0 0 1 2.093 2.986l4.197-4.9.622-.776 2.436.02 2.276-.02-7.727 8.259-.178 2.582a60 60 0 0 0-.13 3.07l-2.195-.021z" style="fill:#e60000;fill-rule:evenodd" transform="matrix(.48836 0 0 .48836 -6.354 -54.072)"></path><path d="M244.05 414.871c.285-.112.08-.642-.306-.785-1.03-.381-2.002-.921-3.046-1.265-.682-.225-1.329.128-2.11.703-1.764 1.297-2.841 2.761-3.562 4.453-.363.85-.518 1.69-.657 2.531-.25 1.523-.086 2.988.141 4.453.111.717.507 1.213 1.125 1.64 3.811 2.637 8.287 4.909 12.147 4.805.849-.022 1.607-.093 2.337-.398.684-.286 1.34-.62 1.97-1.172 2.54-2.225 3.929-4.97 3.702-8.672-.023-.381-.196-.627-.515-.844-1.247-.847-2.526-1.65-3.75-2.53a4.7 4.7 0 0 0-1.172-.61c-.517-.188-.587-.045-.516.89.26 3.384-1.312 4.782-4.031 4.688-2.568-.09-4.012-1.487-4.172-4.312-.104-1.836.748-2.918 2.414-3.575M351.175 414.871c-.286-.112-.08-.642.305-.785 1.031-.381 2.003-.921 3.047-1.265.682-.225 1.329.128 2.11.703 1.763 1.297 2.84 2.761 3.562 4.453.362.85.518 1.69.656 2.531.25 1.523.087 2.988-.14 4.453-.111.717-.507 1.213-1.125 1.64-3.812 2.637-8.287 4.909-12.147 4.805-.85-.022-1.607-.093-2.338-.398-.684-.286-1.34-.62-1.969-1.172-2.54-2.225-3.93-4.97-3.703-8.672.024-.381.197-.627.516-.844 1.247-.847 2.525-1.65 3.75-2.53.364-.263.732-.45 1.172-.61.516-.188.587-.045.515.89-.26 3.384 1.313 4.782 4.032 4.688 2.568-.09 4.012-1.487 4.171-4.312.104-1.836-.748-2.918-2.414-3.575M296.729 550.933c4.697.044 9.347.331 13.969.75 4.392 1.521 8.663 2.633 12.844 2.906 1.571.103 1.395.514.68 1.266-5.329 5.596-12.232 12.013-14.907 11.953-7.562.031-15.126.113-22.688.094-4.062-.01-10.355-6.488-15.656-12.329-.471-.518-.334-.968.75-1.031 3.684-.214 7.97-1.09 13.031-2.906 3.897-.401 7.83-.742 11.977-.703M305.502 677.783c-.346.234-1.633 1.137 1.098.658 10.633-1.867 20.064-7.211 27.069-14.81.316-.343.433-1.412-.678-1.289-1.432.159-4.404.317-6.244.031 1.135-4.828 1.82-11.98 2.245-15.27.112-.869.511-1.901 1.368-2.42 2.267-1.374 7.234-6.98 9.303-10.417.491-.816.719-.847 1.127-.557 1.363.97 3.315 3.903 3.918 5.943.24.814.928.31 1.012-.647.226-2.58.642-5.182.642-7.858 0-4.05-1.94-18.67-8.786-27.441-.465-.595-.736-.328-.763.562-.052 1.703.186 6.706-.112 8.429-.104.6-.691.94-1.2.589-4.487-3.097-9.05-4.449-14.6-5.646-1.112-2.532-4.838-12.692-7.778-15.851-.481-.517-.708-1.124.318-1.292 2.255-.368 5.908-.234 8.464-.254.763-.006 1.046-.281.397-.678-7.326-4.485-14.887-6.441-24.116-6.441-.54 0-5.573-.159-7.667.152-.986.146-.481.744-.09.875 1.217.405 5.303 3.165 5.963 3.696.398.32.346.602.003.891-3.249 2.741-8.388 6.721-12.106 11.614-5.175.327-13.379.94-17.472 1.234-.136-1.876-.023-4.413.192-5.979.093-.672-.321-.803-.8-.38-9.274 8.21-15.348 19.936-16.116 33.081-.055.94.03 2.298 1.417.824 1.726-1.835 3.877-3.777 6.004-6.025.56-.591 1.4-.49 1.432-.13.217 2.539 4.2 8.212 6.723 11.803.35.498.474 1.029.34 1.56-.591 2.338-2.52 12.452-2.623 17.318-.02.959-.805.95-1.353.466-1.437-1.273-5.763-3.724-7.213-4.726-.502-.347-1.163-.092-.773.72 4.973 10.374 12.992 20.238 24.257 24.785.509.205 1.58.56 1.167-.73-.419-1.3-.5-4.137-.326-6.227 4.025-.44 9.437-2.076 13.778-4.371 7.232 5.155 12.265 7.328 18.792 7.847 1.128.09.872.415.291 1.08-2.005 2.298-3.224 3.058-6.504 5.281z" style="fill:#fff;fill-rule:evenodd" transform="matrix(.48836 0 0 .48836 -6.354 -54.072)"></path><path d="M291.358 613.959c6.99.171 13.865.563 20.344 2.438.562.162.86.881.985 1.453 1.607 7.367 2.15 13.66 2.391 19.453.01.219-.126.457-.304.586-6.087 4.384-11.785 7.119-16.899 8.882-.413.143-.933.193-1.312-.023-6.157-3.5-10.684-8.133-14.578-13.899-.145-.213-.131-.53-.047-.773 2.119-6.124 4.755-12.136 9.117-17.837.083-.109.166-.283.303-.28" style="fill:#000;fill-rule:evenodd" transform="matrix(.48836 0 0 .48836 -6.354 -54.072)"></path><path d="M200.125 274.735c.48-.761 1.08-.52 1.611.006 7.72 6.364 15.172 13.256 22.108 20.9 1.626 1.793 3.17 3.07 4.851 4.067 3.304 1.957 6.758 2.775 10.711 3.246.897.106 1.893.054 2.807-.463 15.653-5.839 34.07-8.86 56.727-8.536 18.157.26 35.935 1.493 52.313 7.875 1.81.706 3.504 1.268 5.062 1.125 5.856-.539 11.569-3.159 14.075-5.988 6.688-7.554 14.036-15.452 23.239-22.23 1.159-.853 1.737-.298 2.203.668 6.046 12.552 6.654 25.574 4.359 39.458l-9.151 45.209c-.165.64-.176 1.308.715 2.136 24.318 21.77 47.23 45.513 69.048 70.784-3.875 17.235-8.736 33.442-13.303 49.507-.127.447-.623.764-.9.041-12.625-33.016-32.987-55.033-60.094-65.578 12.89 15.474 23.283 32.044 30.187 50.11 8.02 20.986 7.922 44.27 3.985 68.063-.054-1.365-.402-2.589-.335-3.961 1.265-25.932-11.64-46.45-31.154-63.82-11.167 14.502-20.506 23.4-28.547 27.527-.57.347-.976.036-.809-.762 1.242-5.92 3.276-11.245 5.484-16.031.135-.274.007-.508-.703-.047-6.015 3.9-11.273 9.098-14.11 17.67-1.217 3.678-1.015 7.446-1.406 11.157-2.23 21.173-10.028 34.377-21.376 39.188-3.447 1.461-6.054 2.625-9.932 3.615-1.327.339-3.827.041-5.607-.064-.95-.057-1.383-.711-.305-1.489 5.616-4.243 9.837-9.425 12.562-16.687 2.374-6.325 4.794-12.3 5.79-19.455.14-.625.2-1.456-.118-2.156-7.102-15.64-12.116-31.067-12.05-46.222.042-9.805.543-19.687 7.814-25.963 2.681-2.315 5.084-3.906 7.538-4.787 2.125-.763 4.306-1.182 6.515-.867 6.6.941 12.34.948 17.953-.562 5.656-1.522 10.12-5.328 12.821-11.04.54-1.143.62-1.656 2.156-2.297 3.286-1.37 6.805-1.669 12.563-1.476-3.828-2.531-8.009-4.95-11.918-7.506-4.582-2.995-9.277-4.23-14.332-4.19-6.202.05-10.647 2.383-13.626 5.14-2.643 2.444-5.068 4.496-8.405 4.704-2.945.183-4.305-2.125-4.594-5.156-1.378-14.433 2.796-35.175 8.624-59.907-9.207 22.44-17.449 50.907-19.383 67.172-.98 8.248-1.594 18.995-5.678 20.96-1.15.552-1.683.977-1.752 1.774-1.26 14.655-.828 27.953 1.496 39.844 2.536 12.98 6.199 22.445 10.382 30.37.368.696.453 1.28-.727 1.552-2.243.517-5.195.724-7.734-.14-6.371-2.17-12.877-3.13-19.735-3.281-6.427-.142-12.184.625-18.183 2.536-3.125.996-6.243 1.726-9.293 1.049-.764-.194-2.019-.221-1.213-1.898 4.666-9.712 7.533-19.244 9.374-28.313 2.567-12.641 2.735-25.923 2.438-39.938-.035-1.65-.494-2.669-2.25-3.75-1.643-1.01-3.338-3.426-4.43-10.945-.718-4.943-.763-10.937-2.134-17.218-3.845-17.624-11.405-41.53-17.837-58.907 3.297 15.078 5.924 30.094 7.805 45.164.824 6.604.915 11.878-.19 16.22-.363 1.43-1.139 2.296-2.53 2.625-2.13.503-3.919-.203-5.438-1.219-2.19-1.464-4.55-3.734-7.312-5.437-5.432-3.35-11.593-3.762-18.283-1.969-6.64 1.781-12.291 6.894-18.515 10.408.46.417 1.034.433 1.687.34 1.401-.201 3.429-.209 6.428.18 1.78.232 3.57.86 5.29 1.589.575.243.747.53.938 1.266 1.97 7.576 9.99 12.759 22.173 12.938 3.78.055 7.004-.609 10.454-.679 2.369-.048 4.547.451 6.703 1.618 6.743 3.647 10.962 8.884 12.284 16.032 3.369 18.213-1.305 38.336-10.359 59.25-.639 1.477-.923 2.657-.562 4.314 1.065 4.884 2.276 9.792 4.256 14.52 1.378 3.292 2.429 6.422 4.324 9.575 2.822 4.692 5.944 8.28 9.375 10.5 1.642 1.062 1.671 1.292-.093 1.594-3.17.542-6.446.406-10.125-1.125-4.22-1.757-8.438-3.367-11.907-5.907-6.017-4.405-9.924-12.895-12.75-23.062-1.569-5.648-2.063-11.361-2.237-17.028-.096-3.095-.625-6.14-2.075-9.316-2.879-6.312-7.223-11.207-12.937-15-.728-.484-1.18-.298-.75.562a60 60 0 0 1 5.261 15.422c.224 1.135-.01 1.108-1.042.516-9.918-5.692-19.127-15.063-27.844-26.532-.289-.381-.655-.451-1.125 0-17.987 17.267-32.38 34.827-30.327 66.561-9.75-41.908 4.117-83.303 33.867-117.493-23.61 7.969-47.305 30.426-60.539 66.398-5.276-15.042-9.661-31.864-13.687-49.407l.75-2.437c24.783-28.686 47.248-50.912 68.531-69.846.61-.563.43-1.269.281-1.97-4.686-22.015-10.534-46.32-10.5-58.5.027-9.04.976-17.982 6.333-26.488" style="fill:#fff;fill-rule:evenodd" transform="matrix(.48836 0 0 .48836 -6.354 -54.072)"></path><path d="M198.816 289.444c23.877 12.161 40.234 26.73 51.61 42.89-13.617 4.547-27.375 9.813-39.533 17.046 5.224-7.053 13.176-14.024 21.815-20.139.739-.523 1.146-1.256.468-2.062-11.045-13.137-22.777-25.478-34.36-37.735M396.777 289.371c-18.592 8.93-36.253 21.66-51.844 42.844 12.617 4.417 25.405 8.849 39.41 17.052-6.205-7.683-13.81-14.341-22.301-20.52-.43-.312-.53-.677-.047-1.219 11.3-12.661 22.538-25.438 34.782-38.157" style="fill:#000;fill-rule:evenodd" transform="matrix(.48836 0 0 .48836 -6.354 -54.072)"></path><path d="M287.128 122.28c99.018-.732 186.48 21.395 257.486 79.735-11.395 201.647-81.442 378.92-246.844 516.564C144.124 596.405 64.288 422.564 50.642 202.39c62.788-53.773 141.702-79.409 236.486-80.11" style="fill:none" transform="matrix(.48836 0 0 .48836 -6.354 -54.072)"></path><path d="M286.899 113.893c94.125-1.242 191.02 8.104 292.316 81.563-18.253 238.39-119.09 410.253-281.343 532.641C95.72 580.545 29.365 395.224 16.062 195.644c84.743-63.781 176.074-80.5 270.837-81.75" style="fill:none" transform="matrix(.48836 0 0 .48836 -6.354 -54.072)"></path><path d="M105.635 417.236c-23.167-68.42-35.184-137.504-38.348-206.257 70.662-59.484 149.46-73.65 231.13-74.028 92.438-.428 168.954 23.118 229.382 73.757-4.326 69.974-14.857 140.12-37.501 205.594-28.617 82.747-84.319 179.784-141.752 230.905-9.207 24.414-28.088 36.429-51.094 36.468-22.303.038-41.567-12.918-50.065-36-65.715-62.899-111.536-141.196-141.752-230.439M287.128 122.28c-94.784.701-173.698 26.337-236.486 80.11 13.646 220.174 93.482 394.015 247.128 516.189C463.172 580.934 533.22 403.662 544.614 202.015c-71.006-58.34-158.468-80.467-257.486-79.735" style="fill:#fff;fill-rule:evenodd" transform="matrix(.48836 0 0 .48836 -6.354 -54.072)" data-source="https://football-logos.cc"></path><path d="M50.642 202.39c62.788-53.773 141.702-79.409 236.486-80.11 99.018-.732 186.48 21.395 257.486 79.735-11.395 201.647-81.442 378.92-246.844 516.564C144.124 596.405 64.288 422.564 50.642 202.39M286.9 113.893c-94.763 1.251-186.094 17.97-270.838 81.75 13.304 199.58 79.66 384.902 281.81 532.454 162.254-122.388 263.091-294.25 281.344-532.64-101.295-73.46-198.191-82.806-292.316-81.564" style="fill:#000;fill-rule:evenodd" transform="matrix(.48836 0 0 .48836 -6.354 -54.072)"></path><path d="M141.338 194.76h-34.712l-.358 17.787c-.416 12.163-.584 16.32-1.708 27.294l7.66-.068 7.022.068.402-17.742a284 284 0 0 1 9.39-.169c1.697 0 4.287.056 7.793.17 0-2.366.123-5.633.357-9.8l-17.004.033.257-7.772 20.376.101c0-1.554.179-4.855.525-9.901M319.65 171.876q-.922-.448-1.362-.758a5.7 5.7 0 0 1-.844-.758 4.4 4.4 0 0 1-.676-.991 4.5 4.5 0 0 1-.387-1.118 6.4 6.4 0 0 1-.11-1.15q0-1.553.704-2.796c.468-.828 1.155-1.515 2.07-2.054a9.3 9.3 0 0 1 2.938-1.107 17.3 17.3 0 0 1 3.281-.305c1.096 0 2.158.125 3.178.376 1.019.251 1.896.644 2.621 1.172q1.095.802 1.602 1.831.514 1.03.513 2.47.001.685-.137 1.323-.132.64-.42 1.172c-.196.36-.424.687-.702.987a6.5 6.5 0 0 1-.878.779c-.31.224-.823.518-1.548.878q1.022.286 1.559.523.548.228 1.047.637t.86.954q.358.555.518 1.177.157.622.159 1.308a6.4 6.4 0 0 1-.78 3.052 6.3 6.3 0 0 1-2.13 2.328c-.9.588-1.941 1.008-3.135 1.27a17 17 0 0 1-3.651.392q-1.782.001-3.434-.349-1.65-.352-2.943-1.177-1.29-.82-1.88-1.94c-.392-.742-.589-1.592-.589-2.54 0-.55.071-1.09.213-1.608a5.7 5.7 0 0 1 .654-1.477 4.8 4.8 0 0 1 1.014-1.166 5.5 5.5 0 0 1 1.122-.736q.556-.262 1.554-.6m5.227-6.622c-.839 0-1.499.234-1.989.703a2.3 2.3 0 0 0-.73 1.722q-.002.603.316 1.117.32.506.894.758.573.245 1.237.245 1.161.002 1.94-.676.779-.677.78-1.766c0-.637-.219-1.144-.66-1.531q-.661-.572-1.788-.572m-.392 8.763q-1.44-.001-2.24.725c-.54.485-.807 1.107-.807 1.875q0 .662.36 1.243.358.572 1.036.866.677.295 1.476.295.825.001 1.505-.316a2.53 2.53 0 0 0 1.079-.949c.267-.42.398-.904.398-1.444q.001-1.086-.742-1.69-.741-.605-2.065-.605M149.338 203.753a21.3 21.3 0 0 0-3.022 5.418c-1.106 2.893-1.64 6.067-1.64 9.403 0 3.294.466 6.349 1.577 9.1q.028.067.053.136c1.092 2.638 2.782 4.994 5.232 7.01a18 18 0 0 0 .413.332l.06.048c4.45 3.465 9.549 4.978 14.919 5.403 5.041.399 10.322-.161 15.528-.965l1.675-10.746h-.005c-2.354.619-5.013 1.223-7.691 1.56-2.506.316-5.029.398-7.337.037a14.7 14.7 0 0 1-2.597-.639q-.73-.255-1.406-.598c-1.965-1-3.488-2.39-4.543-4.086q-.022-.036-.046-.07c-1.12-1.835-1.697-4.021-1.697-6.455 0-2.117.428-4.155 1.239-5.997q.001-.004.004-.01a13.8 13.8 0 0 1 2.212-3.494 13.5 13.5 0 0 1 4.126-3.206 15.7 15.7 0 0 1 3.024-1.152c1.602-.43 3.25-.615 4.925-.628l.51.005c3.314.049 6.723.746 10.07 1.546q.007.001.016.004l-.469-10.476c-4.756-.856-8.742-1.284-11.969-1.284-3.488 0-6.934.415-10.205 1.374l-.099.028c-3.2.947-6.23 2.416-8.967 4.523a21.3 21.3 0 0 0-3.89 3.878zM208.856 214.488c-.307 6.241-.654 12.277-.84 15.113-.168 2.715-.47 6.117-.883 10.24h14.56l.781-20.411 1.541-24.67h-14.56v2.84c0 1.286-.036 3.002-.098 4.98-.109 3.451-.295 7.7-.499 11.86zM223.501 216.084c6.498 10.487 11.154 18.406 13.979 23.757l15.084-.016h.008l-.009.016h1.865l-.014-.022 13.647.022a322 322 0 0 1 5.861-12.842h16.469c1.82 4.923 3.204 9.203 4.164 12.842h14.95l-1.898-4.822-9.724-26.482-4.768-13.776h-16.949l-3.985 8.155-16.904 32.171-1.866 3.269-12.694-18.521-2.422-3.886 2.59-3.537 13.81-17.651h-16.088l-1.83 2.838-5.93 8.403z" style="fill:#fff;fill-rule:evenodd" transform="matrix(.48836 0 0 .48836 -6.354 -54.072)"></path><path d="M277.875 217.402h10.16c-2.534-7.761-3.919-12.042-4.164-12.83-1.43 3.233-2.646 5.88-3.651 7.952z" style="fill:#e60000;fill-rule:evenodd" transform="matrix(.48836 0 0 .48836 -6.354 -54.072)"></path><path d="m308.713 194.76 14.961 26.967c0 1.758-.145 4.776-.458 9.034-.301 4.27-.558 7.3-.781 9.08h14.302l.704-16.964c.01-.205 2.069-3.375 4.819-7.524 5.16-7.786 12.75-19.02 13.798-20.584l.005-.008h-15.385q-.989 1.858-3.249 5.643c-1.518 2.512-3.528 6.026-6.018 10.521-.938-2.41-2.143-5.159-3.64-8.234-1.496-3.064-2.68-5.711-3.55-7.93zM357.18 209.709a10.8 10.8 0 0 0 1.419 2.95 16 16 0 0 0 1.628 2.025c1.203 1.285 2.628 2.495 4.132 3.788l6.209 5.418c.31.273.612.565.886.87q.232.258.43.527l.019.025q.221.302.386.615a3.4 3.4 0 0 1 .25.61c.328 1.085.138 1.913-.368 2.54-1.109 1.372-3.736 1.775-5.757 1.775-1.616 0-3.32-.233-5.047-.643a4 4 0 0 1-.186-.04c-2.134-.517-4.303-1.295-6.39-2.224.369 2.805.703 6.545.983 11.22h.005c4.219.811 8.907 1.576 13.404 1.554 1.97-.005 3.902-.163 5.743-.534 2.35-.473 4.55-1.292 6.483-2.586a12.4 12.4 0 0 0 4.335-5.121c.895-1.956 1.271-4.124.991-6.238q-.058-.446-.157-.885c-.205-.924-.578-1.82-1.074-2.687-.637-1.114-1.478-2.18-2.433-3.199-.985-1.05-2.092-2.05-3.221-2.996-1.825-1.528-3.71-2.918-5.237-4.163a42 42 0 0 1-.584-.484c-.4-.339-.83-.722-1.239-1.134-.792-.798-1.509-1.706-1.804-2.616-.366-1.132-.08-2.268 1.527-3.203l.053-.03c1.031-.588 2.292-.873 3.661-.945h.018c1.54-.079 3.217.114 4.853.452l.043.008a34 34 0 0 1 5.538 1.69l-.849-10.814q-.033-.007-.066-.013c-3.837-.752-7.817-1.265-11.639-1.27l-.364-.001c-1.88.015-3.72.154-5.482.45a17 17 0 0 0-3.395.935 15 15 0 0 0-1.585.732 6 6 0 0 0-.261.14c-1.458.812-2.735 1.85-3.75 3.088-1.6 1.95-2.554 4.393-2.554 7.226 0 1.169.158 2.221.447 3.188zM406.943 202.916l-16.904 32.171-2.713 4.754h15.497a322 322 0 0 1 5.862-12.842h16.468c1.82 4.923 3.204 9.203 4.165 12.842h14.95l-1.898-4.822-9.725-26.482-4.768-13.776H410.93zM449.738 205.608c-.118 6.02-.295 11.42-.595 16.75a326 326 0 0 1-1.455 17.45l-.003.033h13.945v-.072a860 860 0 0 1 .435-19.044c.196-5.942.453-11.754.76-16.502h.008l.143-.004c.823-.019 1.747-.057 2.707-.086l.053-.002c.76-.024 1.543-.042 2.314-.043q.564.001 1.115.016c1.474.042 2.847.18 3.876.513l.14.048c1.422.498 2.292 1.389 2.704 2.441.401 1.026.368 2.205-.013 3.324a6.3 6.3 0 0 1-.921 1.74c-.501.653-1.14 1.164-1.867 1.555-.889.477-1.91.775-2.977.94-1.923.296-3.992.154-5.686-.169l3.372 9.36c1.016 2.828 1.798 5.025 2.311 6.59l2.848 9.395h14.994c-.502-1.24-.848-2.062-1.05-2.478l-4.376-9.688-3.238-7.772c2.177-.856 3.874-1.7 5.092-2.523a11.65 11.65 0 0 0 3.763-4.15c1.05-1.953 1.55-4.198 1.55-6.562 0-2.132-.42-4.004-1.248-5.599a10 10 0 0 0-.683-1.126q-.18-.255-.376-.498a10 10 0 0 0-1.228-1.273c-1.105-.962-2.463-1.738-4.068-2.318-1.235-.447-2.767-.752-4.454-.958q-.086-.006-.173-.017c-4.323-.5-9.616-.35-13.509-.205l-1.1.042-12.975.045q0 4.022-.134 10.848z" style="fill:#fff;fill-rule:evenodd" transform="matrix(.48836 0 0 .48836 -6.354 -54.072)"></path><path d="m414.982 212.524-2.345 4.878h10.16c-2.534-7.761-3.919-12.042-4.164-12.83-1.43 3.233-2.646 5.88-3.651 7.952" style="fill:#e60000;fill-rule:evenodd" transform="matrix(.48836 0 0 .48836 -6.354 -54.072)"></path><path d="m265.5 176.617.686-11.82.316-3.565a205 205 0 0 1-3.602.032q-1.855 0-3.276-.032l-.692.54-3.096 1.912-.256 5.886 3.565-2.441-.883 15.914h7.08zM273.211 171.712c.45 1.143 1.24 2.016 2.202 2.622.8.504 1.72.824 2.664.964a7.5 7.5 0 0 0 1.996.027 128 128 0 0 1 3.106-4.578c-.501.11-.894.164-1.166.164-.665 0-1.27-.18-1.735-.52-.567-.416-.925-1.07-.925-1.922 0-1.424.903-2.396 1.979-2.77.742-.26 1.567-.234 2.235.122.571.305 1.027.852 1.22 1.67.112.48.133 1.055.033 1.73a7 7 0 0 1-.113.586c-.111.47-.282.972-.503 1.496a4 4 0 0 1-.071.175c-.482 1.114-1.169 2.327-1.957 3.555-1.93 3.004-4.465 6.09-6.06 8.01h8.306c1.001-1.375 1.984-2.736 2.877-4.088q.062-.09.122-.181a38 38 0 0 0 1.911-3.209q.206-.392.402-.79c.982-1.981 1.78-4.06 1.863-6.166a8.25 8.25 0 0 0-.526-3.306 7 7 0 0 0-.328-.732 6 6 0 0 0-1.408-1.796c-.754-.655-1.68-1.132-2.766-1.44a13.4 13.4 0 0 0-2.147-.417 14.6 14.6 0 0 0-4.71.23c-1.409.31-2.737.847-3.841 1.631-1.449 1.03-2.44 2.545-2.89 4.203a7.6 7.6 0 0 0 .044 4.197q.082.27.186.533M297.802 165.82c-1.195 1.905-2.26 3.723-2.974 5.595-.38.996-.66 2.008-.807 3.057a12 12 0 0 0-.116 1.66c0 1.476.35 2.71.965 3.717q.02.04.046.08c1.54 2.447 4.654 3.539 8.069 3.539.58 0 1.17-.033 1.756-.101q.353-.041.701-.1.182-.03.361-.064a12.5 12.5 0 0 0 1.934-.536 7.36 7.36 0 0 0 2.823-1.888c1.35-1.45 2.115-3.418 2.115-5.48 0-1.564-.362-2.843-1.005-3.832a5.16 5.16 0 0 0-1.95-1.766l-.153-.073c-.902-.436-1.963-.653-3.133-.646q-.47 0-.961.05-.303.031-.614.08l-2.681 4.448a8 8 0 0 1 .86-.066c.654 0 1.406.203 1.966.656.492.398.836.99.836 1.808 0 .713-.185 1.284-.485 1.72a2.5 2.5 0 0 1-1.457 1.003 2.8 2.8 0 0 1-1.75-.114 2.4 2.4 0 0 1-.653-.403c-.51-.436-.78-1.016-.887-1.653-.102-.597-.061-1.243.055-1.866.096-.483.235-.952.393-1.374q.19-.51.399-1l.004-.01c.835-1.96 1.885-3.702 3.1-5.387.966-1.338 2.037-2.64 3.188-3.987q.696-.813 1.43-1.655H301a54 54 0 0 0-3.199 4.588zM316.272 167.101c0 1.337.369 2.32 1.035 3.101l.136.159c.565.599 1.312 1.078 2.208 1.515q-.998.336-1.554.6c-.49.232-.928.535-1.306.894-1.093 1.035-1.697 2.527-1.697 4.092 0 2.052.98 3.51 2.47 4.48.677.436 1.46.773 2.302 1.02 1.807.526 3.897.634 5.839.417 1.977-.222 3.802-.78 5.02-1.573 1.131-.737 2.002-1.856 2.488-3.107.445-1.147.566-2.405.264-3.58-.248-.968-.737-1.64-1.378-2.132l-.057-.045c-.712-.53-1.602-.85-2.549-1.115.798-.396 1.525-.818 2.118-1.35a4.43 4.43 0 0 0 1.43-2.466q.027-.123.048-.243c.178-1.002.13-1.917-.113-2.73-.322-1.074-.984-1.97-1.913-2.65-.724-.526-1.609-.924-2.621-1.173a14 14 0 0 0-2.35-.352c-1.327-.088-2.76-.012-4.109.281l-.09.018c-1.958.439-3.733 1.337-4.744 2.857q-.093.14-.174.286c-.447.776-.703 1.702-.703 2.796M215.647 266.08l.863-13.911h-4.49l-.517 10.466a79 79 0 0 1-.347 3.445z" style="fill:#fff;fill-rule:evenodd" transform="matrix(.48836 0 0 .48836 -6.354 -54.072)"></path><path d="M326.55 174.622q-.741-.605-2.065-.605-1.44-.001-2.24.725c-.54.485-.807 1.107-.807 1.875q0 .663.36 1.243.358.572 1.035.866.678.295 1.477.295.825.001 1.505-.316a2.53 2.53 0 0 0 1.079-.949c.267-.42.398-.904.398-1.444q.001-1.086-.742-1.69M324.605 169.8q1.161.001 1.94-.676.779-.68.78-1.766c0-.638-.219-1.145-.66-1.532q-.661-.572-1.788-.572c-.839 0-1.499.234-1.989.703a2.3 2.3 0 0 0-.73 1.722q-.002.604.316 1.117.32.506.894.758.573.245 1.237.245" style="fill:#e60000;fill-rule:evenodd" transform="matrix(.48836 0 0 .48836 -6.354 -54.072)"></path><path d="m216.278 258.728 7.086 7.352h5.271l-7.78-7.394 7.544-6.517h-4.938l-1.047 1.029-2.928 2.683zM235.036 260.22l-.56 5.86h4.409l.308-5.652 7.727-8.26h-4.712l-4.819 5.677-1.776-2.558-2.164-3.118h-4.76zM257.633 254.275l-9.121 7.925-1.867 1.568q-.015.921-.144 2.312h15.487c.02-.546.063-1.297.14-2.253l-10.283.105 4.423-3.807 6.554-5.676c.02-.779.068-1.536.145-2.28h-15.12l-.073 2.19zM263.58 252.169l6.347 8.05-.56 5.86h4.41l.308-5.651 7.727-8.26h-4.713l-4.818 5.677-1.776-2.558-2.165-3.118zM282.979 259.246c-.16 2.384-.381 4.754-.661 6.834h13.457c.067-.814.144-1.55.23-2.221l-9.042.052.795-11.742h-4.49c-.012.889-.035 1.825-.07 2.788a141 141 0 0 1-.206 4.08zM298.048 256.916c-.629 1.436-.72 2.969-.259 4.356.408 1.223 1.247 2.333 2.53 3.164.936.61 2.054 1.055 3.26 1.36q.16.041.323.075c1.122.26 2.313.4 3.5.443q.42.014.841.016c1.62-.008 3.2-.19 4.553-.5 2.376-.547 4.473-1.71 5.643-3.527.624-.968.984-2.122.984-3.467 0-1.125-.263-2.09-.762-2.923-.514-.86-1.277-1.581-2.257-2.197l-.066-.041-.009-.005c-1.506-.921-3.635-1.495-5.92-1.677-2.377-.19-4.923.043-7.11.75-2.198.709-4.034 1.895-4.973 3.608a7 7 0 0 0-.278.566zM327.772 258.405h-.004zm-5.04.695c-.14 2.479-.352 4.96-.632 6.98h4.317l.265-7.64.251-4.185 4.495.052c1.196.11 1.931.572 2.217 1.166.274.567.137 1.254-.402 1.868l-.016.018a2.5 2.5 0 0 1-.412.368c-.603.432-1.416.652-2.267.744-.961.103-1.97.041-2.776-.066l2.388 3.507 2.532 4.168h4.688a29 29 0 0 0-.68-.928l-4.153-5.454 2.783-.688a5 5 0 0 0 .81-.424q.089-.058.174-.115c.657-.478 1.142-1.098 1.404-1.762q.015-.053.034-.104c.3-.858.225-1.785-.338-2.573-.461-.645-1.15-1.072-1.946-1.354-.633-.225-1.334-.358-2.039-.437-.957-.107-1.922-.114-2.739-.114l-1.134.006-6.612.036c0 2.008-.071 4.469-.212 6.93z" style="fill:#fff;fill-rule:evenodd" transform="matrix(.48836 0 0 .48836 -6.354 -54.072)"></path><path d="M311.296 254.428q-1.231-.319-2.585-.32-2.133 0-3.71.71c-1.05.472-1.846 1.119-2.377 1.936a4.8 4.8 0 0 0-.796 2.655q0 1.324.767 2.444.773 1.115 2.363 1.7 1.594.587 3.44.587c.93 0 1.822-.115 2.666-.348q1.268-.344 2.195-1.053a4.6 4.6 0 0 0 1.39-1.71q.462-.998.462-2.078-.001-1.007-.414-1.937a4.13 4.13 0 0 0-1.293-1.595c-.584-.445-1.283-.775-2.108-.99" style="fill:#e60000;fill-rule:evenodd" transform="matrix(.48836 0 0 .48836 -6.354 -54.072)"></path><path d="m341.06 258.099-.284 4.435-.391 3.546h7.51c1.57.003 3.13-.039 4.6-.296h.006c1.318-.23 2.566-.634 3.69-1.331a7.15 7.15 0 0 0 2.738-3.08 6.65 6.65 0 0 0 .376-4.596l-.023-.079-.006-.02c-.535-1.79-1.678-2.884-3.1-3.547-1.224-.571-2.654-.825-4.083-.931a30 30 0 0 0-2.24-.073l-1.085.005-7.505.036zM366.821 256.295l-7.167 9.785h4.765a133 133 0 0 1 3.217-4.943h7.433l2.31 4.943h4.587l-7.027-13.911h-5.234a101 101 0 0 1-2.884 4.126" style="fill:#fff;fill-rule:evenodd" transform="matrix(.48836 0 0 .48836 -6.354 -54.072)"></path><path d="m345.305 254.296-.584 9.594c.772.028 1.539.042 2.29.042q1.291 0 2.384-.094c.733-.06 1.36-.157 1.89-.289a5.7 5.7 0 0 0 1.592-.695c.53-.334.97-.716 1.307-1.154a5.139 5.139 0 0 0 1.047-3.094q0-1.526-.724-2.506a4 4 0 0 0-1.9-1.411q-1.18-.433-3.642-.434-1.598 0-3.66.041M370.935 256.017l-2.045 2.993h5.412l-2.224-4.703z" style="fill:#e60000;fill-rule:evenodd" transform="matrix(.48836 0 0 .48836 -6.354 -54.072)" data-source="https://football-logos.cc"></path><!-- source: https://football-logos.cc --></svg>