<svg xmlns="http://www.w3.org/2000/svg" viewBox="27.21 221.86 732.42 732.42"><!-- Source: https://football-logos.cc --><path d="M570.217 400.338c0-151.688-122.969-274.657-274.656-274.657S20.904 248.65 20.904 400.338c0 151.688 122.97 274.657 274.657 274.657s274.656-122.97 274.656-274.657" style="fill:#ed1f26;fill-opacity:1;fill-rule:nonzero;stroke:none" transform="matrix(1.33333 0 0 -1.33333 -.667 1121.853)" data-source="https://football-logos.cc"></path><path d="M565.261 400.338c0-148.95-120.75-269.702-269.7-269.702-148.951 0-269.701 120.751-269.701 269.702 0 148.95 120.75 269.701 269.701 269.701 148.95 0 269.7-120.75 269.7-269.7" style="fill:#1f5ab1;fill-opacity:1;fill-rule:nonzero;stroke:none" transform="matrix(1.33333 0 0 -1.33333 -.667 1121.853)"></path><path d="M559.787 400.338c0-145.927-118.3-264.227-264.226-264.227-145.928 0-264.226 118.3-264.226 264.227S149.633 664.564 295.56 664.564c145.927 0 264.226-118.3 264.226-264.226" style="fill:#fff;fill-opacity:1;fill-rule:nonzero;stroke:none" transform="matrix(1.33333 0 0 -1.33333 -.667 1121.853)"></path><path d="M556.1 400.338c0-143.89-116.649-260.54-260.539-260.54-143.891 0-260.539 116.65-260.539 260.54S151.67 660.876 295.561 660.876c143.89 0 260.538-116.648 260.538-260.538" style="fill:#1f5ab1;fill-opacity:1;fill-rule:nonzero;stroke:none" transform="matrix(1.33333 0 0 -1.33333 -.667 1121.853)"></path><path d="M497.026 400.338c0-111.265-90.2-201.466-201.465-201.466-111.266 0-201.466 90.2-201.466 201.466s90.2 201.466 201.466 201.466c111.265 0 201.465-90.2 201.465-201.466" style="fill:#ed1f26;fill-opacity:1;fill-rule:nonzero;stroke:none" transform="matrix(1.33333 0 0 -1.33333 -.667 1121.853)"></path><path d="M490.69 400.338c0-107.765-87.363-195.129-195.129-195.129-107.767 0-195.13 87.364-195.13 195.13s87.363 195.128 195.13 195.128 195.128-87.363 195.128-195.129" style="fill:#fff;fill-opacity:1;fill-rule:nonzero;stroke:none" transform="matrix(1.33333 0 0 -1.33333 -.667 1121.853)"></path><path d="M275.287 393.907s7.561 2.136 14.794 8.218c5.365 4.511 10.285 13.868 5.918 23.999-4.11 9.534-14.958 16.11-27.451 11.506-12.493-4.602-20.547-13.643-18.575-31.888 2.589-23.941 25.643-38.794 44.71-40.985 21.452-2.465 53.259 6.3 69.917 22.574 25.835 25.24 30.464 41.642 30.464 87.887v76.71s-33.018 2.32-67.724-30.465c-37.588-35.505-37.04-56.984-37.04-56.984s15.89-2.85 25.26-7.945 19.067-15.945 17.752-30.41c-1.314-14.465-8.998-26.126-22.026-34.354-12.493-7.891-24.163-3.781-28.438-2.63-4.273 1.15-7.56 2.794-7.56 4.767" style="fill:#231f20;fill-opacity:1;fill-rule:nonzero;stroke:none" transform="matrix(1.33333 0 0 -1.33333 -.667 1121.853)" data-source="https://football-logos.cc"></path><path d="M257.864 360.866s-27.726 11.597-43.068 34.684c-16.93 25.479-18.739 46.519-18.739 79.668v76.71s41.916 2.246 72.984-27.67c7.219-6.951 12.43-14.487 16.14-22.12 0 0-27.975-14.372-42.933-38.7-14.62-23.778-15.003-47.82-9.863-66.737 4.11-15.123 25.479-35.835 25.479-35.835" style="fill:#231f20;fill-opacity:1;fill-rule:nonzero;stroke:none" transform="matrix(1.33333 0 0 -1.33333 -.667 1121.853)"></path><path d="M273.808 392.427c1.37-2.685 4.767-3.945 10.8-5.62 5.496-1.527 16.265-3.715 27.626 3.461 13.604 8.592 21.505 20.936 22.847 35.695q.127 1.405.126 2.766c0 14.062-9.882 24.515-18.8 29.365-7.878 4.284-19.921 6.963-24.21 7.826.68 5.232 5.284 24.897 36.362 54.252 29.42 27.79 57.803 29.92 64.73 30v-74.954c0-47.188-5.315-62.569-29.93-86.617-16.943-16.553-48.734-24.35-68.472-22.08-19.09 2.193-40.699 16.752-43.15 39.41-1.674 15.494 3.863 25.037 17.425 30.033 11.706 4.314 21.54-2.037 25.207-10.542 4.339-10.065-1.372-18.525-5.43-21.938-6.83-5.743-14.064-7.849-14.137-7.87l-1.287-.367s-.52-1.226.293-2.82" style="fill:#ed1f26;fill-opacity:1;fill-rule:nonzero;stroke:none" transform="matrix(1.33333 0 0 -1.33333 -.667 1121.853)"></path><path d="M267.81 522.979a76.4 76.4 0 0 0 14.964-20.123c-6.24-3.472-28.878-17.084-42.039-38.489-9.943-16.17-13.162-31.778-13.162-45.21 0-8.699 1.35-16.486 3.098-22.922 2.66-9.785 12.034-21.55 18.762-29.07-9.317 5.32-23.717 15.16-33.158 29.368-17.201 25.885-18.442 46.995-18.442 78.685v74.966c8.048 0 43.32-1.536 69.977-27.205" style="fill:#ed1f26;fill-opacity:1;fill-rule:nonzero;stroke:none" transform="matrix(1.33333 0 0 -1.33333 -.667 1121.853)"></path><path d="m83.056 528.505 10.582 16.178 6.47-4.233-5.643-8.628 4.045-2.645 5.114 7.82 6.202-4.057-5.115-7.82 10.246-6.7-4.938-7.55zM114.194 545.834c-6.292 5.871-8.683 15.655-.644 24.27s17.964 6.906 24.257 1.035 8.683-15.656.645-24.27c-8.038-8.615-17.965-6.908-24.258-1.036m17.27 18.509c-4.543 4.238-9.403 3.55-12.26.487-2.858-3.063-3.21-7.96 1.334-12.198 4.542-4.24 9.403-3.55 12.26-.487 2.858 3.062 3.21 7.959-1.333 12.198M147.298 579.447c-4.985 7.017-5.361 17.081 4.244 23.906 9.604 6.824 18.985 3.158 23.97-3.859 4.986-7.015 5.361-17.08-4.243-23.905-9.605-6.825-18.986-3.157-23.971 3.858m20.636 14.663c-3.6 5.065-8.5 5.366-11.914 2.94s-4.742-7.152-1.143-12.217 8.499-5.367 11.913-2.941 4.742 7.152 1.144 12.218M188.215 615.363l-6.399-3.051-3.327 6.98 20.939 9.983 3.327-6.98-6.398-3.05 10.538-22.102-8.143-3.882zM228.487 639.143c8.392 2.46 10.837-2.771 11.535-5.156.958-3.269-.665-6.238-2.923-7.86l.026-.088c2.173.11 7.196-.337 8.854-5.99 1.268-4.329-.435-9.48-7.59-11.577l-15.812-4.635-9.063 30.917zm.88-12.98c3.4.997 3.456 2.932 3.12 4.08-.48 1.634-1.923 2.794-4.882 1.927l-3.621-1.062 1.76-6.006zm4.03-12.44c1.325.388 4.625 1.403 3.68 4.628-.906 3.091-4.13 2.146-5.544 1.732l-3.975-1.166 1.864-6.36zM263.938 646.372l10.894 1.144 14.764-30.844-9.613-1.01-2.366 5.351-10.895-1.145-1.202-5.726-9.613-1.01zm3.83-19.267 7.324.77-4.903 11.424zM300.649 648.395l9.008-.477-1.293-24.452 9.651-.51-.409-7.722-18.66.988zM334.047 645.476l8.862-1.685-4.573-24.055 9.495-1.805-1.443-7.597-18.359 3.491zM408.3 586.479c-3.489-.389-6.366.67-8.806 1.964-8.456 4.487-11.404 13.66-6.572 22.766 5.049 9.514 14.69 11.483 22.415 7.384 2.521-1.338 5.063-3.52 6.599-6.42l-4.38-8.253c-.558 2.485-1.888 5.378-4.937 6.997-4.39 2.33-9.133.366-11.614-4.31-2.286-4.31-1.353-9.13 3.2-11.546 2.968-1.574 6.127-1.219 8.388-.492zM436.17 604.78l7.256-5.36-14.549-19.694 7.773-5.743-4.594-6.22-15.03 11.104zM449.099 570.535l13.712 13.429 6.312-6.444-13.58-13.3c-1.415-1.386-4.314-4.74-.964-8.16s6.764-.592 8.177.794l13.58 13.3 6.313-6.445-13.712-13.43c-2.466-2.415-10.479-9.231-19.882.37-9.404 9.602-2.422 17.47.044 19.886M502.556 536.952c4.908-7.238.675-11.164-1.382-12.56-2.819-1.91-6.143-1.272-8.377.382l-.076-.052c.769-2.036 1.88-6.955-2.996-10.262-3.733-2.53-9.16-2.484-13.344 3.687l-9.247 13.638 26.666 18.08zm-22.702-12.446c.776-1.143 2.751-3.974 5.532-2.088 2.666 1.808.781 4.588-.046 5.808l-2.324 3.428-5.486-3.719zm10.613 7.64c1.989-2.933 3.848-2.395 4.839-1.723 1.41.956 2.072 2.684.342 5.237l-2.119 3.123-5.18-3.513zM108.277 262.962c8.587 7.737 21.953 9.8 32.545-1.955s7.155-24.835-1.431-32.572-21.953-9.799-32.546 1.955c-10.59 11.754-7.154 24.835 1.432 32.572m22.757-25.253c6.198 5.586 5.84 12.17 2.075 16.347s-10.276 5.217-16.474-.369-5.84-12.167-2.075-16.347c3.765-4.178 10.275-5.216 16.474.369M166.986 234.2l14.958-9.873c12.07-7.969 6.422-17.422 5.332-19.073-4.495-6.809-10.546-6.887-14.733-5.826l.576-21.117-12.225 8.07.231 16.954-7.865-11.914-10.11 6.674zm1.86-24.556c3.61-2.384 6.107-1.07 7.503 1.045 1.328 2.012 1.589 4.875-2.021 7.26l-2.476 1.633-5.482-8.304zM208.454 208.92l14.91-5.291c16.776-5.953 16.98-18.683 13.735-27.828-3.886-10.95-13.584-18.133-28.203-12.945l-14.912 5.292zm1.7-35.494c11.3-4.01 14.435 4.453 15.179 6.55.806 2.272 3.646 10.642-7.654 14.652l-1.282.455-7.523-21.202zM269.587 192.34l14.653-1.29 11.538-44.446-12.929 1.138-1.745 7.66-14.653 1.29-3.057-7.238-12.93 1.137zm.099-26.378 9.85-.866-3.527 16.318zM332.418 194.068c11.6 1.833 13.956-5.553 14.477-8.85.714-4.518-1.959-8.194-5.245-9.965l.02-.122c2.913-.227 9.526-1.685 10.761-9.5.945-5.982-2.209-12.55-12.098-14.113l-21.855-3.454-6.754 42.732zm-1.06-17.438c4.7.743 5.108 3.31 4.857 4.898-.357 2.258-2.08 4.05-6.17 3.404l-5.005-.79 1.312-8.303zm3.228-17.259c1.831.29 6.4 1.074 5.696 5.53-.676 4.274-5.131 3.57-7.085 3.26l-5.494-.868 1.39-8.791zM371.476 204.91l13.513 5.812 31.232-33.663-11.924-5.129-5.169 5.918-13.513-5.812.741-7.823-11.923-5.128zm12.593-23.178 9.085 3.908-10.843 12.695zM434.8 227.72c-2.743.276-6.105.247-8.589-1.592-2.93-2.171-2.337-4.424-1.418-5.667 1.545-2.085 4.37-.915 6.403-.025 5.998 2.598 13.365 4.593 19.435-3.601 5.115-6.903 3.546-15.064-4.6-21.098-4.468-3.312-9.098-4.434-17.131-4.077l-.863 10.822c4.68-.609 9.182-.352 12.063 1.782 1.788 1.324 2.801 3.383 1.256 5.469-2.355 3.179-5.629 1.368-10.15-.212-3.407-1.216-10.354-3.363-15.91 4.137-4.156 5.611-3.69 13.495 4.455 19.529 5.463 4.047 10.99 4.373 13.117 4.409zM470.486 241.933l-29.806 5.92 9.313 10.82 16.321-4.343-6.845 15.353 8.628 10.024 10.291-28.593 12.741-10.967-7.902-9.181zM42.935 402.664c-.63-.186-.809.317-.776.572.963 7.626 5.758 14.057 12.395 17.305.229.111.787.141.945-.229.287-.665.783-1.935 1.324-3.833.075-.262.043-1.069-.269-1.492-1.283-1.738-4.742-6.412-6.576-8.75-.158-.202-.716-.73-1.2-1.008a30 30 0 0 0-3.29-1.625c-1.204-.501-2.022-.783-2.553-.94M46.529 387.833c-.426-.03-.913.322-1.025.498a22.3 22.3 0 0 0-3.513 11.383c-.007.227.138.83.595 1.142.866.593 2.84 1.785 7.016 3.724.314.145 1.167.24 1.476-.144a36.4 36.4 0 0 0 4.139-6.487c.138-.283.442-1.255.442-1.851 0-.905-.076-2.286-.473-3.507-.658-2.027-1.918-3.068-4.274-4-1.568-.62-3.536-.7-4.383-.758M83.732 408.481c-.613-.409-.985-.439-1.862.494-.877.931-3.069 3.287-4.658 4.876-1.588 1.589-1.808 1.588-1.862 3.013-.028.713.082 1.421.2 1.951.116.53.848.514 1.144.318a22.54 22.54 0 0 0 7.626-8.472c.673-1.304-.094-1.85-.588-2.18M85.595 395.112c.362-.23.638.242.683.445.343 1.56.524 3.18.524 4.841 0 2.385-.372 4.68-1.061 6.835-.074.23-.458.649-.744.55-.286-.1-.635-.261-.88-.508-.493-.493-.768-1.26-.878-4.11-.11-2.848-.11-4.93 1.096-6.684.544-.79.964-1.18 1.26-1.369M48.334 386.024c-.479-.247-.455-.78-.286-.961a22.4 22.4 0 0 1 11.185-6.478c.4-.094 1.439-.114 1.815.308.264.297.602.736.987 1.37.932 1.534 1.205 1.918-.384 3.397-1.588 1.48-3.945 3.506-4.876 4.329-.932.821-2.192.712-4.055.054-1.296-.458-3.292-1.455-4.386-2.02M58.093 416.191c.17-.476.685-1.005.905-1.135 2.113-1.233 5.02-2.556 6.861-3.36 1.058-.46 2.679-.348 3.163-.096 1.736.906 3.61 2.174 4.611 2.878.455.32.7 1.039.68 1.291-.129 1.716-.369 3.24-.534 4.156-.103.574-.696 1.138-.958 1.245a22.4 22.4 0 0 1-8.43 1.64c-2.339 0-4.846-.45-7.033-1.111-1.131-.342-.713-1.17-.2-2.753.374-1.152.712-2.127.935-2.755M58.3 414.49c-.45.225-.845.162-1.09-.159-.985-1.3-3.639-4.836-5.325-7.486-.17-.268-.269-1.06.075-1.535.934-1.289 2.849-3.986 4.219-6.248.171-.284.803-.69 1.375-.472a45 45 0 0 0 6.82 1.964c.345.071 1.716.796 1.934 1.188.386.689.444 1.438.549 2.137.126.847.09 3.99.067 5.369-.006.404-.298.815-.768 1.072a471 471 0 0 1-4.395 2.38 147 147 0 0 1-3.461 1.79M67.021 399.878c-1.423.066-4.164-.438-5.917-.985-1.754-.548-3.836-1.315-4.219-2.74s-.658-3.672-.603-4.987c.054-1.315.712-1.808 2.465-3.451 1.754-1.644 3.288-3.233 4.439-4 .969-.647 2.684-.658 4.657.164s4.273 2.138 4.547 4.22c.275 2.081.658 5.095.658 5.808 0 .711-.438 1.697-2.137 3.341-1.698 1.645-2.684 2.575-3.89 2.63M73.323 413.029c-1.43-.87-3.781-2.356-4.33-2.85-.547-.492-.822-1.369-.876-3.835-.055-2.465.054-4.712.164-5.095.11-.384 1.534-1.535 3.124-3.179 1.589-1.643 2.74-2.52 3.068-2.574.329-.056 2.41.602 4.657 1.533s2.41 1.206 2.958 3.562.439 5.534-.164 6.52c-.602.986-2.794 3.124-4.163 4.712-1.37 1.59-3.178 1.973-4.438 1.206M75.815 381.923c.232-.362-.075-.854-.268-.965a22.3 22.3 0 0 0-11.156-2.97q-.72 0-1.428.045c-.294.018-.776.377-.594.802.2.467.5 1.077.871 1.592.713.986 2.083 1.863 4 2.466 1.918.603 3.678 1.205 4.932 1.04 2.186-.286 3.202-1.326 3.643-2.01M78.531 383.645c-.951-.126-2.449-.187-3.62.399-.748.374-1.48 1.26-1.588 2.74-.11 1.479.382 4.602 1.424 6.41s2.384 2.556 4.109 3.013c2.685.713 3.565.586 4.438-.603 1.973-2.684.877-5.752.877-5.752a22.5 22.5 0 0 0-4.057-5.424c-.212-.209-1.02-.71-1.583-.783M505.262 402.664c-.63-.186-.807.317-.776.572.964 7.626 5.759 14.057 12.396 17.305.228.111.786.141.945-.229.286-.665.783-1.935 1.324-3.833.074-.262.042-1.069-.27-1.492-1.282-1.738-4.741-6.412-6.575-8.75-.158-.202-.716-.73-1.2-1.008a30 30 0 0 0-3.29-1.625c-1.205-.501-2.022-.783-2.554-.94M508.856 387.833c-.426-.03-.912.322-1.025.498a22.3 22.3 0 0 0-3.513 11.383c-.006.227.139.83.596 1.142.866.593 2.84 1.785 7.016 3.724.315.145 1.166.24 1.476-.144a36.4 36.4 0 0 0 4.138-6.487c.14-.283.442-1.255.442-1.851.001-.905-.076-2.286-.472-3.507-.658-2.027-1.918-3.068-4.274-4-1.569-.62-3.536-.7-4.384-.758M546.06 408.481c-.613-.409-.986-.439-1.862.494-.877.931-3.07 3.287-4.658 4.876s-1.808 1.588-1.863 3.013c-.028.713.083 1.421.2 1.951s.849.514 1.145.318a22.54 22.54 0 0 0 7.625-8.472c.674-1.304-.094-1.85-.587-2.18M547.923 395.112c.361-.23.638.242.683.445.343 1.56.524 3.18.524 4.841 0 2.385-.372 4.68-1.062 6.835-.073.23-.457.649-.743.55-.287-.1-.635-.261-.881-.508-.493-.493-.767-1.26-.877-4.11-.11-2.848-.11-4.93 1.097-6.684.544-.79.963-1.18 1.259-1.369M510.661 386.024c-.478-.247-.455-.78-.285-.961a22.4 22.4 0 0 1 11.185-6.478c.4-.094 1.438-.114 1.814.308.265.297.603.736.987 1.37.932 1.534 1.206 1.918-.383 3.397-1.59 1.48-3.945 3.506-4.876 4.329-.932.821-2.192.712-4.055.054-1.297-.458-3.293-1.455-4.387-2.02M520.42 416.191c.17-.476.684-1.005.906-1.135 2.112-1.233 5.02-2.556 6.861-3.36 1.058-.46 2.679-.348 3.163-.096 1.735.906 3.609 2.174 4.61 2.878.456.32.7 1.039.681 1.291a42 42 0 0 1-.534 4.156c-.103.574-.696 1.138-.96 1.245a22.3 22.3 0 0 1-8.428 1.64c-2.339 0-4.846-.45-7.033-1.111-1.13-.342-.713-1.17-.2-2.753.374-1.152.712-2.127.935-2.755M520.627 414.49c-.45.225-.845.162-1.088-.159-.987-1.3-3.64-4.836-5.326-7.486-.172-.268-.27-1.06.075-1.535.933-1.289 2.849-3.986 4.219-6.248.171-.284.803-.69 1.374-.472a45 45 0 0 0 6.82 1.964c.346.071 1.716.796 1.935 1.188.385.689.444 1.438.548 2.137.128.847.09 3.99.067 5.369-.007.404-.297.815-.768 1.072-.972.533-2.732 1.494-4.395 2.38-1.515.809-2.741 1.43-3.46 1.79M529.349 399.878c-1.423.066-4.164-.438-5.918-.985-1.753-.548-3.835-1.315-4.22-2.74-.382-1.425-.656-3.672-.602-4.987s.713-1.808 2.466-3.451 3.287-3.233 4.438-4c.97-.647 2.685-.658 4.657.164 1.973.822 4.274 2.138 4.548 4.22.275 2.081.657 5.095.657 5.808 0 .711-.438 1.697-2.136 3.341s-2.685 2.575-3.89 2.63M535.65 413.029c-1.43-.87-3.78-2.356-4.329-2.85-.548-.492-.822-1.369-.877-3.835-.054-2.465.055-4.712.165-5.095.11-.384 1.534-1.535 3.122-3.179 1.59-1.643 2.74-2.52 3.07-2.574.328-.056 2.41.602 4.657 1.533s2.41 1.206 2.959 3.562c.547 2.356.438 5.534-.165 6.52-.602.986-2.794 3.124-4.164 4.712-1.37 1.59-3.178 1.973-4.438 1.206M538.142 381.923c.233-.362-.075-.854-.267-.965a22.3 22.3 0 0 0-11.156-2.97q-.72 0-1.428.045c-.294.018-.777.377-.594.802.2.467.499 1.077.87 1.592.713.986 2.083 1.863 4 2.466 1.918.603 3.679 1.205 4.932 1.04 2.187-.286 3.202-1.326 3.643-2.01M540.859 383.645c-.951-.126-2.45-.187-3.62.399-.749.374-1.48 1.26-1.59 2.74-.109 1.479.384 4.602 1.425 6.41s2.385 2.556 4.11 3.013c2.685.713 3.565.586 4.439-.603 1.972-2.684.876-5.752.876-5.752a22.5 22.5 0 0 0-4.057-5.424c-.212-.209-1.02-.71-1.583-.783M50.832 406.264c-.231-.276-.745-.747-.354-1.03.391-.279.932-.47.837.288s-.302.957-.483.742M513.16 406.264c-.232-.276-.746-.747-.355-1.03.391-.279.933-.47.837.288s-.302.957-.483.742" style="fill:#fff;fill-opacity:1;fill-rule:nonzero;stroke:none" transform="matrix(1.33333 0 0 -1.33333 -.667 1121.853)"></path><path d="M265.03 298.566c-.788.264-3.288-.722-5.063-3.747s-1.888-6.97-1.888-6.97h-3.898s-1.783 2.3-1.643 13.94c.13 10.98 3.09 24.262 7.407 35.188 2.989 7.563 6.643 8.995 8.712 8.767 2.093-.231 3.672-2.927 3.672-8.384s-2.696-22.75-14.268-35.572c0 0-.066-2.63 0-5.062 0 0 1.906 2.104 4.34 3.813 2.755 1.937 4.865 2.433 8.153 1.775 0 0 0-5.39.065-7.89.067-2.499.329-4.405 1.907-4.734s3.682.394 4.142 4.34.526 6.18 1.973 7.495c1.446 1.315 6.18 1.578 6.18 1.578s-1.906-3.09-2.301-5.523c-.394-2.433-.197-6.51-.197-6.51s2.827.067 5.917 4.013c3.09 3.944 5.458 8.81 5.458 8.81s2.827-1.579 3.945-2.236c0 0-1.841-6.313-2.104-9.994s.723-13.413 2.433-18.87c0 0 10.06-.132 14.333.196 4.274.329 15.978 2.565 19.528 3.09 0 0-.855-3.156-2.761-5.653-1.907-2.5-4.208-3.092-7.824-3.026-3.617.066-6.632-.16-14.794 1.315-4.734.855-7.561.79-7.561.79s.92-6.97.59-11.046c-.264-3.288-1.314-3.88-2.76-5.787-1.447-1.906-3.242-2.242-8.746-1.71-6.114.593-10.914 2.829-18.87 7.233-7.956 4.405-11.77 9.008-14.202 12.493s-1.907 4.472-.395 5.194c1.512.723 4.603 1.052 8.088.987s10.914-.92 16.963-1.776c6.05-.854 11.967-1.248 11.967-1.248s-.657 4.405-1.184 9.73c-.526 5.327-.788 9.074-.788 9.074s-4.866-4.077-12.033-4.866c-4.04-.445-8.942-.591-8.942-.591s-2.283.764-3.09 4.8c-.79 3.945-.46 6.574-.46 6.574m1.906 27.221c.789 5.457.525 9.93-.131 11.244-.658 1.315-3.682 1.775-4.669 0-.986-1.776-2.762-7.167-3.814-15.911-1.051-8.746-.46-16.11-.46-16.11 4.735 2.894 8.285 15.32 9.074 20.777m25.314-55.033s-9.27 1.775-15.254 2.696c-5.984.92-11.769 1.052-13.48.789-1.708-.263-2.037-.527-1.577-3.222.46-2.696 5.26-7.561 9.665-10.783 4.406-3.222 9.403-6.115 12.756-6.772 3.354-.658 5.786-.658 7.167.986 1.38 1.643 1.775 4.931 1.38 9.27-.394 4.34-.657 7.036-.657 7.036M245.437 313.821c3.44-5.8 1.906-15.583-3.55-21.5-6.368-6.905-19.135-12.296-36.953-10.52-19.512 1.944-26.103 9.599-28.01 14.267-1.906 4.668-1.25 11.112 4.471 15.977 5.72 4.866 17.292 7.102 25.051 6.707 7.76-.394 13.085-2.3 13.085-2.3s-9.797-.198-15.517-.987c-5.72-.79-13.676-4.143-15.255-9.14-1.578-4.997-.92-7.89 4.471-11.374 5.392-3.486 17.096-5.523 26.958-3.814 9.863 1.71 18.195 5.99 20.91 12.097 2.892 6.51.87 11.42-5.458 15.058-5.26 3.024-12.098 5.392-23.803 7.495-10.991 1.976-17.147 2.895-19.921 5.195-2.302 1.907-3.532 5.847-1.447 10.52 1.907 4.274 6.97 8.35 6.97 8.35s-7.627 4.274-13.085 3.814c-5.457-.46-10.389-2.039-13.019-5.918s-2.432-7.036-.657-8.153 4.142-1.71 4.142-1.71.329-2.302-3.616-3.222-8.285-.328-10.389 1.842-2.235 6.378.658 10.85c2.893 4.47 9.402 8.349 18.673 9.27s18.016-3.025 21.04-4.8c0 0 4.532 1.764 11.704 1.71 8.482-.066 17.375-3.938 23.933-9.403 5.524-4.603 4.364-9.997 3.551-10.98-2.828-3.42-5.786-3.025-10.257-1.71s-7.825 2.696-16.24 8.416c-8.417 5.721-12.362 7.693-12.362 7.693s-3.025-1.775-4.142-5.128c-1.119-3.354.986-6.38 3.221-7.76s8.787-3.25 17.096-5.39c10.717-2.762 23.144-7.694 27.747-15.452m-24.591 24.393c6.904-4.47 13.808-6.048 15.846-5.26 2.038.79 2.958 3.748.329 7.364-2.63 3.617-10.915 7.036-16.964 8.745-6.05 1.71-13.808.592-13.808.592 2.564-3.616 7.693-6.97 14.597-11.441" style="fill:#231f20;fill-opacity:1;fill-rule:nonzero;stroke:none" transform="matrix(1.33333 0 0 -1.33333 -.667 1121.853)"></path><path d="M380.226 318.357c-6.247-.197-10.126-1.446-10.126-1.446 4.537 3.287 11.375 4.011 16.7 3.42 5.327-.593 9.469-1.381 9.469-1.381s1.973 6.904 5.194 12.36c2.543 4.307 4.998 5.918 8.943 5.523 3.945-.394 6.312-2.563 7.824-5.851s-.263-6.181-2.104-7.825c-1.84-1.644-3.88-1.512-7.298-.46-3.42 1.053-4.734 2.236-4.734 2.236s1.775.657 4.734 1.512c2.959.854 3.616 1.972 2.827 3.88-.789 1.906-2.236 2.892-4.011 2.892s-3.485-1.446-5.457-5.523c-1.973-4.077-2.104-9.403-2.104-9.403s4.34-.788 10.586-.985c6.246-.198 11.178.92 13.873 2.76 2.696 1.843 7.036 4.538 7.036 4.538s1.051-2.63-.066-5.326-2.696-4.734-5.917-5.589c-3.223-.854-9.403-.525-15.847.592s-9.928 1.71-9.928 1.71-.592-8.021-.066-13.216 1.907-9.665 4.143-11.244c1.94-1.37 3.156-.723 4.997 1.315a80 80 0 0 1 3.419 4.077c.197-3.091-2.762-6.312-4.735-8.284-1.972-1.973-3.221-1.316-6.443.065-3.222 1.38-4.8 2.038-4.8 2.038s-1.973-2.367-4.207-3.814c-2.236-1.446-4.209-1.512-5.918.067s-2.828 5.786-3.157 8.612c-.328 2.828-.526 3.354-1.117 3.354-.592 0-2.893-2.432-4.011-5.194s-1.907-5.655-1.907-5.655-2.432.198-4.668.263-3.682-.526-5.655-1.315c-1.972-.789-3.287-.789-5.326.33-2.038 1.117-3.616 2.169-3.616 2.169-6.114-2.828-9.665-1.776-12.164-.724-2.498 1.053-5.391 2.893-5.391 2.893s1.577 1.71 3.945 4.077 2.76 3.485 2.235 3.55c-.525.067-2.498-1.249-4.997-4.142s-4.142-6.64-4.142-6.64-3.222-.658-6.641-1.316c-3.419-.657-5.26-.986-6.707-.197-1.447.79-1.906 2.302-1.84 5.194s.591 5.917.591 5.917c-.986 0-3.024-1.511-4.8-4.536s-2.63-5.983-2.63-5.983c-1.709.855-2.17 2.564-2.3 4.997-.132 2.433.525 6.246.525 6.246s-2.039-.197-5.655-4.997c-2.217-2.943-2.827-6.443-2.827-6.443l-3.156.46s0 4.405.394 8.416c.395 4.01 1.381 5.59 3.683 5.655 2.3.065 4.208-2.17 4.208-2.17s1.644 2.235 4.734 4.076c2.318 1.38 4.733 1.118 4.733 1.118s-.13-3.617.132-4.866c0 0 1.973 1.25 3.945 2.17 1.973.92 3.09 1.249 3.683-.197.591-1.446.722-3.55.13-7.035-.591-3.485-.46-4.8.461-5.589.92-.79 3.354.066 4.735 2.301 0 0-.067 8.745 1.116 18.87 1.185 10.126 3.223 20.252 5.853 26.17 2.63 5.917 5.786 6.903 7.825 6.903 2.037 0 3.944-.657 3.55-8.547s-3.288-17.687-7.365-25.117c-4.076-7.43-5.128-8.482-5.128-8.482s-.131-1.84-.066-3.221c0 0 1.316.854 3.748 3.484s6.247 5.72 8.548 6.575 2.827-.854 2.959-2.695c.131-1.842-.263-3.946-2.565-6.642-2.301-2.695-4.01-5.063-4.01-5.063s1.249-.986 3.221-2.301 4.472-1.643 6.246.395c0 0 .526 3.024 1.118 5.72.591 2.697.855 3.946 2.499 5.391 1.643 1.447 3.288 1.973 5.918 1.908s2.696-.526 3.024-1.776c.329-1.25.526-3.221.526-3.221-1.973-2.038-7.364-6.773-7.364-6.773.131-.724.328-1.446 1.84-2.696 1.514-1.249 2.96-1.84 4.67-.722a52 52 0 0 0 3.287 1.972l.592 11.9h4.668v-6.114c.46-.132 1.446.526 2.564 1.775 1.118 1.25 2.564 2.564 4.8 2.96 2.235.394 3.419 0 3.814-1.25s2.3-8.745 2.695-10.257c.394-1.512 1.38-1.513 3.09 0 1.534 1.357 2.105 2.63 2.105 2.63s-.592 6.18-.527 12.361c.066 6.18.593 10.849.593 10.849-4.275 1.052-9.008 1.775-15.255 1.577m-37.017.066c1.924 6.965 2.76 11.901 2.629 14.794s-1.644 4.997-3.419 4.275c-1.775-.724-3.014-5.208-4.076-11.178-1.38-7.76-.723-19.66-.723-19.66 2.301 1.972 4.208 6.772 5.589 11.77m20.251-20.45c1.512 1.38 1.38 2.302.92 3.551-.403 1.094-.92 1.644-1.775 1.513-.854-.132-1.973-1.249-2.039-2.893-.065-1.644 0-3.748 0-3.748s1.382.197 2.894 1.578M269.533 243.269v-20.095h-6.122v13.17q-1.48-1.018-2.861-1.65-1.384-.63-3.467-1.206v4.48q3.077.903 4.779 2.17a9 9 0 0 1 2.663 3.13zM276.357 227.62l6 .69q.236-1.15.801-1.622.563-.475 1.38-.474 1.455 0 2.27 1.334.594.983.891 4.163-1.083-1.015-2.223-1.488-1.14-.475-2.637-.474-2.92 0-4.927 1.886-2.007 1.888-2.007 4.773 0 1.967 1.023 3.585t2.819 2.446q1.795.83 4.508.83 3.263 0 5.236-1.018 1.973-1.017 3.152-3.233 1.178-2.217 1.179-5.853 0-5.35-2.479-7.835-2.477-2.485-6.87-2.485-2.596 0-4.095.546t-2.493 1.598-1.528 2.632m11.12 8.814q0 1.603-.886 2.512-.886.91-2.157.91-1.196 0-1.986-.822-.79-.823-.79-2.467 0-1.656.82-2.533.82-.876 2.045-.876 1.271 0 2.113.849.841.849.842 2.427M306.727 226.872h-11.013v4.513l11.013 11.884h5.26v-12.123h2.713v-4.274h-2.713v-3.698h-5.26zm0 4.274v6.202l-5.804-6.202zM316.88 227.62l6 .69q.236-1.15.8-1.622.565-.475 1.38-.474 1.454 0 2.271 1.334.594.983.89 4.163-1.082-1.015-2.222-1.488-1.14-.475-2.637-.474-2.921 0-4.927 1.886-2.007 1.888-2.008 4.773 0 1.967 1.024 3.585t2.818 2.446q1.795.83 4.509.83 3.263 0 5.236-1.018 1.972-1.017 3.152-3.233 1.178-2.217 1.179-5.853 0-5.35-2.479-7.835t-6.87-2.485q-2.596 0-4.095.546t-2.493 1.598q-.995 1.052-1.529 2.632M328 236.435q0 1.603-.886 2.512-.887.91-2.157.91-1.196 0-1.986-.822-.79-.823-.79-2.467 0-1.656.819-2.533.82-.876 2.046-.876 1.27 0 2.112.849t.842 2.427" style="fill:#231f20;fill-opacity:1;fill-rule:nonzero;stroke:none" transform="matrix(1.33333 0 0 -1.33333 -.667 1121.853)" data-source="https://football-logos.cc"></path><!-- source: https://football-logos.cc --></svg>