<svg xmlns="http://www.w3.org/2000/svg" xml:space="preserve" id="Слой_1" x="0" y="0" version="1.1" viewBox="-0.02 0 390.08 480"><!-- Source: https://football-logos.cc --><style data-source="https://football-logos.cc">.st0{fill:#0065af}.st1{fill:#fff}</style><path d="M56.7 8.5C60.9 3.4 67.3 0 74.4 0c7.2 0 13.7 3.3 17.9 8.6l.1-.1C96.7 3.2 103.2.1 110.1.1c6.7 0 13 2.9 17.3 7.9l.1.1h21.3V2.3h92.5v5.8h21.3l.2-.2c4.3-5 10.5-7.8 17.2-7.8 6.9 0 13.5 3.2 17.8 8.5l.1.1c4.2-5.3 10.7-8.6 17.9-8.6s13.7 3.3 17.9 8.6l.1-.1C338 3.4 344.4.1 351.6.1c12.6 0 22.9 10.3 22.9 22.9l5.3 91h-.5c-.1 0-11.7.4-15.5 9.1-3.5 8.2-8.2 26.8 0 58.6 2.5 9.8 5.1 18.3 7.5 26.6 5.2 17.8 10.2 34.6 15.2 62.5 9 49.6-1.1 79.7-7.8 93.2-8.5 17-20.5 31.5-36.8 44.3-13.7 10.8-30.5 20.4-51.5 29.4-37.1 16-94.7 41.8-95.3 42.1v.2l-.2-.1c-.6-.3-58.1-26.1-95.3-42.1-20.9-9-37.8-18.7-51.5-29.4-16.2-12.8-28.3-27.3-36.8-44.3-15.7-31.6-11.7-71.9-7.8-93.2 5.1-27.8 10-44.6 15.2-62.5 2.4-8.3 4.9-16.9 7.5-26.6 8.2-31.8 3.6-50.4 0-58.6-3.4-8.8-15-9.3-15.1-9.3h-.5l5.3-91C15.8 10.3 26 0 38.7 0c7.2 0 13.7 3.3 17.9 8.6z" class="st0"></path><path d="M56.6 10.3C52.6 4.6 46.1 1 38.7 1c-12.1 0-21.9 9.8-21.9 21.9 0 0-5.3 89-5.3 90 2.4.2 12.3 1.4 15.8 9.6 2.1 4.9 4.6 13.5 4.6 26.3 0 8.9-1.2 19.8-4.6 32.9-2.5 9.8-5.1 18.4-7.5 26.6-5.2 17.8-10.2 34.6-15.2 62.3-2.4 13-3.6 25.6-3.6 37.5 0 21.3 3.8 40.2 11.3 55.2 8.5 16.9 20.4 31.3 36.5 43.9 13.6 10.7 30.4 20.3 51.3 29.3 36 15.5 91.5 40.4 95.1 42 3.6-1.6 59-26.4 95.1-42 20.9-9 37.7-18.6 51.3-29.3 16.2-12.7 28.1-27.1 36.5-43.9 7.5-14.9 11.3-33.8 11.3-55.2 0-11.8-1.1-24.4-3.6-37.5-5.1-27.8-10-44.5-15.2-62.3-2.4-8.3-5-16.9-7.5-26.6-3.4-13.2-4.6-24.1-4.6-32.9 0-12.8 2.5-21.4 4.6-26.3 3.5-8.2 13.5-9.5 15.8-9.6-.1-.9-5.3-90-5.3-90 0-12.1-9.8-21.9-21.9-21.9-7.3 0-13.8 3.6-17.8 9.1l-.1.1c-4-5.6-10.5-9.3-17.9-9.3S302 4.5 298 10.2l-.1-.2c-4.1-5.6-10.7-9-17.7-9-6.6 0-12.6 2.8-16.7 7.8l-.3.2h-22.7V3.2H150V9h-22.8l-.1-.1C123 3.9 116.8 1 110.3 1c-7.1 0-13.8 3.5-17.9 9.3l-.1-.1c-4-5.6-10.5-9.1-17.8-9.1s-13.7 3.6-17.7 9z" class="st1"></path><path d="M227.3 105.8c0 17.7-14.3 32-32 32s-32-14.3-32-32 14.3-32 32-32c17.6 0 32 14.3 32 32" class="st0"></path><path d="M193.2 77c0-1.1.9-2.1 2.1-2.1s2.1.9 2.1 2.1c0 1.1-.9 2.1-2.1 2.1s-2.1-1-2.1-2.1M179 81.9c-.6-1-.2-2.2.7-2.8 1-.6 2.2-.2 2.8.7.6 1 .2 2.2-.8 2.8-.8.6-2.1.2-2.7-.7m-9.7 11.3c-1-.6-1.3-1.8-.7-2.8s1.8-1.3 2.8-.7 1.3 1.8.7 2.8c-.6.9-1.9 1.2-2.8.7m16.9 12.8-12.9 12.9-.1-.1c-2.3-3.8-3.6-8.3-3.6-13 0-4.8 1.3-9.2 3.6-13l.1-.1 13.1 13.1zm10.7-.3 2-2 .1.1 2 1.9.1.1-2.2 2.2-.1-.2zm3.7 3.9 13.5 13.5.1-.1c.6-.7 1.3-1.5 1.9-2.3l-.1-.1-13.2-13.2-.1-.1-2.1 2.1zm-1.5 1.5 13.5 13.5-.1.1c-.7.6-1.5 1.3-2.3 1.9l-.1-.1-13.1-13.1-.1-.1 2.1-2.1zm-3.7 3.7 12.8 12.8.1.1c-3.8 2.3-8.3 3.6-13.1 3.6-4.7 0-9.1-1.3-12.9-3.5l-.2-.1 13.1-13.1zm-5.5-5.5-1.9-1.9-.1-.1-13.4 13.4.1.1c.6.8 1.1 1.5 1.8 2.2l.1.1 13.6-13.6zm3.7 4-13.2 13.2-.1-.1c-.8-.6-1.5-1.1-2.1-1.8l-.1-.1 13.5-13.5.1-.1 2.1 2.1zm1.5-16.5-12.9-12.9.1-.1c3.8-2.3 8.3-3.6 13-3.6 4.8 0 9.2 1.3 13 3.6l.1.1L195.2 97zm9.2 8.8 12.9-12.9.1.1c2.2 3.8 3.6 8.2 3.6 13s-1.4 9.3-3.6 13.1l-.1-.1-13-13zm-1.6-1.4L215.9 91l-.1-.1c-.6-.8-1.1-1.5-1.8-2.2l-.1-.1-13.5 13.5-.1.1 2.1 2.1zm-4-3.8-1.9-1.9-.1-.1L210.2 85l.1.1c.8.6 1.5 1.1 2.2 1.8l.1.1-13.6 13.6zm-3.6 7.1-1.9 1.8-.1.2 2.1 2.1.2-.1 2-2-.1-.2-2.1-2zm-1.9-5.2 1.9 1.8.1.2 2.2-2.2-.2-.1-1.8-1.9-.2-.1-2.1 2.1zm-1.8-1.8L178 87l.1-.1c.7-.6 1.4-1.2 2.2-1.8l.1-.1 13.2 13.2.1.1-2.1 2.1zm-1.5 1.5-13.5-13.5-.1.1c-.6.7-1.3 1.4-1.9 2.2l-.1.1 13.3 13.3.1.1 2.1-2.1zm1.8 1.8 1.9 1.9.1.1-2.1 2.2-.2-.2-1.8-1.9-.2-.1 2.2-2.2zm-25.3 4c-1.1 0-2.1-.9-2.1-2.1 0-1.1.9-2.1 2.1-2.1s2.1.9 2.1 2.1c-.1 1.2-.9 2.1-2.1 2.1m4.9 14.2c-1 .6-2.2.2-2.8-.7-.6-1-.2-2.2.7-2.8 1-.6 2.2-.2 2.8.7.6 1 .3 2.2-.7 2.8m11.3 9.8c-.6 1-1.8 1.3-2.8.7s-1.3-1.8-.7-2.8 1.8-1.3 2.8-.7c.9.6 1.3 1.8.7 2.8m26-49.2c-1-.6-1.3-1.8-.8-2.8.6-1 1.8-1.3 2.8-.7s1.3 1.8.7 2.8c-.4.9-1.7 1.3-2.7.7m9.8 9.9c-.6-1-.2-2.2.7-2.8 1-.6 2.2-.2 2.8.7.6 1 .2 2.2-.7 2.8-1 .5-2.2.2-2.8-.7m3.6 13.3c0-1.1.9-2.1 2.1-2.1s2.1.9 2.1 2.1c0 1.1-.9 2.1-2.1 2.1-1.2-.1-2.1-1-2.1-2.1m-3.6 13.4c.6-1 1.8-1.3 2.8-.7s1.3 1.8.7 2.8-1.8 1.3-2.8.7c-.9-.6-1.2-1.8-.7-2.8m-9.8 9.8c1-.6 2.2-.2 2.8.7.6 1 .2 2.2-.7 2.8-1 .6-2.2.2-2.8-.7-.6-1-.2-2.2.7-2.8m-11.3 5.6c0 1.1-.9 2.1-2.1 2.1-1.1 0-2.1-.9-2.1-2.1 0-1.1.9-2.1 2.1-2.1 1.2.1 2.1 1 2.1 2.1" class="st1"></path><path d="M315.9 231.7v-13.5l-55.3-55.5-.4-.4V55.8h104.9v.2c1.1 19.2 2.4 41 2.8 48.8-5.7 2.3-11.4 6.5-14.5 13.6-2.5 5.8-5.5 15.7-5.5 30.5 0 9.8 1.3 21.5 4.9 35.5 2.6 10 5.1 18.6 7.6 27 5.1 17.5 10 34 14.9 61.3 2.3 12.5 3.3 24.4 3.3 35.7 0 19.6-3.4 36.9-10.2 50.4-14.4 28.8-39.9 49.9-82.6 68.3-30.8 13.2-75.5 33.3-90.4 39.9l-.5.2c-14.3-6.4-59.8-26.7-91-40.2-42.7-18.4-68.2-39.5-82.6-68.3-6.8-13.5-10.2-30.8-10.2-50.4 0-11.2 1.1-23.2 3.3-35.7 4.9-27.2 9.8-43.7 14.9-61.3 2.5-8.4 5-17 7.6-27 3.6-14 4.9-25.8 4.9-35.5 0-14.7-3-24.7-5.5-30.5-3.1-7.1-8.8-11.3-14.5-13.6.4-7.7 1.7-29.6 2.8-48.6v-.4h105.3v106.5l-.3.3-55.4 55.6v13.8h241.2z" class="st0"></path><path d="M133.4 227.1v-31.8h10.4l-2.1-9-.2-.1h-25.2l-.2.1-2.2 9h10.4v31.8h9.1m20.6 0h-8.9v-16.9c0-7.3 1-11.3 6.5-17.2 5.3-5.7 11.6-6.8 15.6-6.8 3.2 0 5.1.9 5.1.9v9.2l-.1-.1q-.9-.45-1.8-.6c-3-.6-7.9-.8-11.8 3.1-3.3 3.3-4.2 6.2-4.4 9.7h8.9v-8.9c6-1.4 9 .8 9 .8v27h-9v-9.7h-9v9.7h-.1zm68.9 0H214v-16.9c0-7.3 1-11.3 6.5-17.2 5.3-5.7 11.6-6.8 15.6-6.8 3.2 0 5.1.9 5.1.9v9.2l-.1-.1q-.9-.45-1.8-.6c-3-.6-7.9-.8-11.8 3.1-3.3 3.3-4.2 6.2-4.4 9.7h8.9v-8.9c6-1.4 9 .8 9 .8v27h.1-8.9v-9.7h-9.1v9.7h-.2z" class="st0" data-source="https://football-logos.cc"></path><path d="m75.8 102.6-3.3-5 11.2-10.1h5.2v28.7h6.5v7.6H74.3v-7.6h6.5V99.4zm34.6-15.2c7.8 0 12.7 4.7 12.7 14 0 16.2-9.2 22.8-18.2 23.2l-1.9-7.1c6.6-.8 10.1-4.2 11.1-8.1-1.4 1.4-2.6 1.9-5 1.9-4.6 0-10.3-3.3-10.3-11.5 0-7.4 4.4-12.4 11.6-12.4m.7 16.4c1.9 0 2.9-.7 3.8-1.5.1-.6.1-1.4.1-1.9 0-2.9-1.4-5.6-4.6-5.6-2.3 0-3.7 1.7-3.7 4.6.1 2.8 2.1 4.4 4.4 4.4m167.3 20.8c-6.8 0-12.3-4.4-12.3-14.3 0-13.3 8.7-21.1 17.9-22.9l1.9 7.1c-5.5 1-9.9 4.8-11.3 8.9 1.6-1.5 2.9-2.5 5.6-2.5 5.6 0 10 4.1 10 11.5-.2 7-5.2 12.2-11.8 12.2m-.4-16c-1.9 0-3.2 1-3.8 2.1-.1.6-.1 1-.1 1.4 0 2.5 1.2 4.8 3.9 4.8 2.2 0 3.8-1.7 3.8-4.2.2-2.9-1.3-4.1-3.8-4.1m27.1-21.2c8.3 0 12.3 5.6 12.3 18.5 0 12.7-4.6 18.7-12.4 18.7-8.3 0-12.3-6.4-12.3-18.7.1-12.7 4.6-18.5 12.4-18.5m0 29.6c2.8 0 3.8-3.1 3.8-11 0-7.6-1.1-10.9-3.8-10.9s-3.7 3.6-3.7 10.9c-.1 7.5.9 11 3.7 11" class="st1"></path><path d="M26.5 36.5c.5-7.9.8-13.2.8-13.2v-.4c0-6.3 5.1-11.4 11.4-11.4s11.4 5.1 11.4 11.4c0 .8-.1 1.6-.2 2.4l-.1.2h13.5c-.2-.9-.3-1.7-.3-2.6 0-6.3 5.1-11.4 11.4-11.4s11.4 5.1 11.4 11.4c0 .9-.1 1.6-.3 2.4v.1h13.6c-.2-.9-.3-1.7-.3-2.6 0-6.3 5.1-11.4 11.4-11.4s11.4 5.1 11.4 11.4c0 .8-.1 1.6-.2 2.4l-.1.2h15.3v-6h23.8v-5.8h69.5v5.8h23.8v6h15.4v-.1c-.1-.8-.3-1.6-.3-2.5 0-6.3 5.1-11.4 11.4-11.4s11.4 5.1 11.4 11.4c0 .8-.1 1.6-.2 2.4l-.1.3h13.5v-.2c-.1-.8-.3-1.6-.3-2.4 0-6.3 5.1-11.4 11.4-11.4s11.4 5.1 11.4 11.4c0 .8-.1 1.6-.2 2.4l-.1.2h13.6l-.1-.2c-.1-.8-.3-1.6-.3-2.4 0-6.3 5.1-11.4 11.4-11.4S363 16.6 363 22.9v.1s.3 5.2.8 13v.2H26.4zm233.7 12.9V43h104.2v.2c.1 1.9.2 3.8.4 5.9v.4H260.7zm-123.5-.3v-6.2h117v6.5H136.8zm-6.4 0v-6.3H26.1v.3c-.1 1.9-.2 3.9-.4 5.9v.3h104.6zm6.4 112.9V55.8h117v106.1h-19.9v-56.1c0-21.2-17.2-38.5-38.5-38.5s-38.5 17.2-38.5 38.5v56.1h-19.7zm63.4 53.1c7.2-4.1 9.1-11.9 6-18.4-4.4-9.1-13.3-10.5-18-10.5s-6.9.9-6.9.9v9s2.8-.8 6.2-.8 6.9.4 9.7 3.8c2.6 3.3.9 7.1-2.4 8.7-2.3 1.1-4.3 1-4.3 1v-9.3c-5.9-1.3-9 .4-9 .4v27.2h9.1v-9.3h.2c.1 0 .5-.1.5-.1 1.1 1.9 3.3 5.5 5.9 9.1l.1.1h11.5l-.1-.1c-3.1-3.5-6.3-8.5-8.3-11.7zm74.1 11.8 2.4-8.7v-.2h-13.7l14-31.6.1-.2h-24.9l-.3.1-2.5 9h12.6l-.1.1-14 31.7h26.3z" class="st0"></path><path d="M315.4 391c-6.4 3.5-20.4 11.1-33.9 17.2l-.4.1v-158h34.8v140.4zm-68.7-101.4c-9.4-8.9-21.1-15.4-34.1-18.5l-.4-.1v-20.7h34.9V290zm-68.9-18.4c-13 3.1-24.7 9.6-34.1 18.5l-.3.3v-39.6h34.8l-.1.5v20.2zm68.4 152.5c-11.7 5.1-23.4 10.3-33.5 14.8l-.4.2v-21.2l.1-.4c13.2-3.1 25.2-9.8 34.8-18.9v25.2zm-102.8-.4v-25.1l.4.4c9.5 9 21.3 15.5 34.4 18.5v21.6l-.6-.3c-10.1-4.5-21.9-9.6-33.5-14.8zm-34.9-15.4c-13.3-6.1-27.1-13.5-33.4-17l-.4-.2V250.3h34.8v158.1zM206 272c-3.6-.5-7.1-.8-10.8-.8-8.3 0-16.2 1.4-23.6 3.9l-.3.1c6.7-.3 14.7-.4 20.3-.2l.2-.1c6.1-1.7 11.5-2.5 14.7-2.8z" class="st1"></path><path d="M247.6 293.7c-3.8-1.9-7.5-3.2-9-3.8l-.1-.1c-1.7-2.2-6.2-7.5-14.5-12.7l.5.2c8.8 3.9 16.8 9.5 23.4 16.5zm18.1 32.7c0 4.8-.3 8.5-.4 9.6l.1.1c.4.6 1.4 1.6 2.4 2.9v-.3q-.45-6.6-2.1-12.9zm-1.7-6.1c.1 2.1.1 4.1.1 5.9 0 5-.3 8.8-.4 9.8-2.9 4.2-8.6 7.1-11.1 8.3l-.2.1c-2.5-2.3-12.5-11.2-20.2-15.8l-.2-.1c-.9-9.8-5.1-21.1-7.3-26.6l-.1-.1c1.7-1.3 7.6-5.9 13.5-9.9l.1-.1c2.2.8 7.6 2.8 12.3 5.5l.3.2c5.6 6.7 10 14.4 13 22.8zm-92.9-11.5c9.1-9 18.2-14.7 21.6-16.7h.1c4.3.2 18.8 1.6 29.8 8.8l.1.3c2 4.8 6.7 17 7.7 27.4l-.1.1c-2.8 2.7-12.3 11.5-22.7 20.1l-.1.1c-4.6-1.9-19.7-7.8-29.9-10.1l-.1-.2c-1.3-4.4-6.1-20.9-6.7-29.5zm-16.8-24.7c-5.8 8.2-12 17.7-13.2 19.4 1.1 4.1 2.4 7.1 2.8 8.3l.1.1c7.8-1.4 20.9-3.1 25.3-3.7l.3-.2c9-9 18.1-14.8 21.9-17.1l-.1-.2c-.6-4.8-1.9-11.5-2.4-13.9l-.1-.2c-6.8-.1-16 .2-22.4.5l-.2.1c-4.1 1.8-8 3.9-11.8 6.4zm-18.4 17.8c4.1-5.7 9-10.8 14.5-15.2l.3-.2c-4.9 7.1-9.5 14.1-10.8 16zm-13 49c4.7-4.8 8.6-7.5 10.5-8.7l.2-.1c1-17.3 7.1-26.7 8.9-29.2l-.1-.3c-.5-1.2-1.6-4.1-2.8-8.4l-4.8-.7c-7.8 11.6-12.4 25.6-12.4 40.6 0 2.4.1 4.7.4 7.1zm27.7 46c-1.4-.1-3.7-.4-5.9-.7h-.1c-11.5-11.3-19.3-26.2-21.4-43l.1-.1c4.6-4.8 8.5-7.8 10.7-9.1l.2-.1c1.9 2 9.3 9.5 19.4 16.5v.2c-.1 5.7.6 17.3 7.3 27.1l-.1.1c-1.6 1.6-5.4 5.2-9.9 9.3z" class="st1"></path><path d="M192.9 396.9c-16.4-1.4-25.6-6.1-29.3-8.5l-.3-.2c-7.7-9.8-8.3-22.6-8.2-28.1v-.2c3.3-3.2 14.2-13.8 21.9-19.4l.1-.1c10 2.3 24.7 8 29.6 10l.1.1c1.1 3.6 5.6 19 7.8 28.8l.1.1c-7.9 10.3-17.8 15.8-21.4 17.5zm-39.7 6.5c-2.4-1.6-4.6-3.4-6.7-5.3h.3c1.3.1 2.5.3 3.3.4h.2c.4.9 1.4 2.7 3.1 5.1z" class="st1"></path><path d="M243.9 397.9c.9-4.8 1.1-9.3 1.1-9.7-.6-3.9-1.4-7.7-1.9-10l-.1.1c-11.8 4.1-23.4 2.8-26.9 2.3h-.2c-7.7 10-17 15.4-21.1 17.5v.2c.3 2.2 1.1 7 3.1 13.2l.1.1c1.8.8 6.1 2 16 2.8l.4.1c11.2-3 21.4-8.6 29.8-16.2zm1.9-1.7c.4-2.9.6-5.6.7-6.9h.1l4.6 1.1-.1.1c-1.7 2.1-3.6 4.1-5.6 6zm6.8-7.4c9.6-12.3 15.4-27.8 15.4-44.7V342c-1.3-1.8-2.5-3.3-3.3-4.3l-.1-.1c-3.3 4.3-8.9 7.1-11.3 8.1l-.2.1c-.2 16.2-6.3 27.6-8.5 31.1l-.1.1c.5 2.1 1.4 6.2 2.1 10.5h.2zm-44.3 26.6c-6.2-.8-9.5-1.7-11.2-2.4l-.2.1c-1.5.7-4.3 2.1-7.4 3.3l-.4.1c2 .1 4.1.3 6.1.3 4.8 0 9.4-.4 13.9-1.4zm4.9-138.5c-.6-.1-2.1-.4-2.8-.4-2.4 0-8.3.1-10.7.1-3.1 0-3.4.6-2.4 1.3 1.1.6 14 .4 14 .4s3.7.4 9.5 3.7c5.8 3.2 8.1 5.3 10 6.7s3.3.6 1.3-1.3c-1.9-1.9-9.2-8-18.9-10.5m-41.6 61c.4-.4.5-1.1.4-1.6-.4-2-1.5-6.9-2.7-12.5-1.6-7.3-1.6-10.9-2.5-10.8s-1.6 1 .6 9.8c2.1 8.8 3 13.4 3 13.4s-1.2 1.5-3.9 4-3.7 3.9-2.9 4.6c.5.4 2.8-1.6 5.2-3.9 1.3-1.4 2.3-2.4 2.8-3m62.7-2.2c-.9-.6-1.9-.6-2.6 0-.9.8-2.4 2-4.1 3.6-3 2.8-4.6 4.2-3.3 4.2 1.2 0 5.9-3.7 9-5.7 0 0 4.8 2.9 9.9 6.9s6.1 5.2 7 5 .5-1.6-2.1-3.9c-3.2-2.7-10.6-8-13.8-10.1m-42.1 65.1c-.3-.6-1-1-1.8-1.1-1.8-.2-5.1-.7-7.6-1.1-3.4-.6-4.2.1-2.7.9s10.1 1.9 10.1 1.9 1.1 2.7 2.1 4.1c1.1 1.4 1.9 1.7 1.5-.2-.2-1.4-1.1-3.4-1.6-4.5" class="st1" data-source="https://football-logos.cc"></path><!-- source: https://football-logos.cc --></svg>