<svg xmlns="http://www.w3.org/2000/svg" viewBox="0 0 580 580"><!-- Source: https://football-logos.cc --><circle cx="290" cy="290" r="290" style="fill:#000;fill-opacity:1;stroke-width:2.27325;paint-order:markers fill stroke" data-source="https://football-logos.cc"></circle><path d="M112.797 79.606a.321.32 6.925 0 0-.286.228 52 52 0 0 0-1.275 5.745q-1.709 10.257-1.295 20.902.315 8.073 1.44 15.053c.816 5.09 2.386 10.928 3.93 15.48q2.58 7.612 6.738 13.49a.607.612 68.182 0 0 .823.169l5.897-3.649a.464.463 31.125 0 0 .179-.586 280 280 0 0 1-8.592-20.688q-1.201-3.243-1.196-6.33a.195.197 23.816 0 1 .314-.16q2.391 1.828 5.52 3.839 8.84 5.69 19.782 5.222 6.999-.293 12.06-1.559a201 201 0 0 0 15.45-4.527q1.569-.526 3.775-.959a.178.175 11.725 0 1 .17.288c-5.14 5.77-9.165 8.634-17.368 15.228q-15.3 12.297-28.695 25.007-7.536 7.155-16.765 17.174-19.192 20.832-32.445 45.18c-2.112 3.873-4.04 8.01-6.35 12.597q-1.734 3.435-5.63 13.946a.388.386 15.863 0 0 .13.441l6.082 4.534a.375.37 20.017 0 1 .139.386q-.263 1.053-2.51 6.932-3.038 7.944-8.462 24.546c-1.35 4.13-2.75 9.696-3.607 13.202-2.276 9.329-3.864 19.785-3.58 29.66a.279.278 0 0 0 .458.204q4.761-3.933 10.817-7.393a14 14 0 0 1 1.898-.914.21.207 75.098 0 1 .284.19 738 738 0 0 0 1.734 34.912.084.085 78.14 0 0 .13.064l9.1-5.625a.328.332 74.537 0 1 .502.224q.105.62 1.783 4.334a85 85 0 0 1 1.793 4.33q4.438 11.453 8.314 22.093c1.967 5.407 4.044 10.09 6.858 14.09a.308.306 10.675 0 0 .553-.109q.468-2.12 1.923-6.702.358-1.133 1.07-2.324a.27.272 53.117 0 1 .444-.035q3.686 4.425 9.484 11.995 8.367 10.923 13.138 17.064.598.775 1.59 1.426a1.252 1.287 67.588 0 0 .582.203q2.59.233 3.197.134 10.893-1.752 20.816.804 10.838 2.79 17.811 11.365c1.713 2.105 3.676 5.67 4.154 7.944q.757 3.584 1.27 5.447c2.322 8.43 7.656 14.954 15.197 19.243 4.816 2.746 9.22 4.662 9.917 10.188q.683 5.402.986 7.264c2.276 13.832 11.844 21.776 24.933 25.197 2.944.77 7.104 1.634 10.391 1.981a.274.272 83.885 0 0 .294-.333q-1.335-6.106-2.027-10.42a10.2 10.2 0 0 1-.045-2.797.133.135 35.474 0 1 .233-.074q11.715 13.19 29.302 16.225 6.9 1.192 14.83 1.678 2.1.13 10.683.124 4.831 0 8.756-.342 7.207-.626 8.73-.89c6.964-1.2 14.032-3.022 20.248-6.637 4.722-2.74 9.036-5.913 12.482-10.213a.1.102 67.405 0 1 .18.05q.268 1.941-.16 4.026-1.375 6.717-1.888 9.34a.244.246 3.436 0 0 .264.292c13.24-1.246 28.166-6.935 33.177-20.26q1.564-4.147 1.804-5.935.836-6.141 1.135-7.904.886-5.217 5.748-7.948 6.052-3.396 8.149-5.03 10.185-7.929 12.282-20.4.528-3.139 1.086-4.385c2.276-5.114 6.57-9.487 10.953-12.258 4.99-3.152 10.793-5.262 17.193-5.734 4.976-.367 9.06 0 14.898.541a7.75 7.75 0 0 0 3.383-.447.964.94 7.407 0 0 .433-.313c1.788-2.308 3.566-4.145 5.21-6.354q1.729-2.315 11.181-14.508c2.102-2.716 4.473-6.196 7.197-9.255a.222.223 66.47 0 1 .36.035c1.718 2.815 2.395 5.769 3.336 9.07a.237.236 31.46 0 0 .43.06q3.032-4.91 4.332-7.774 1.365-3.019 3.049-7.502a3413 3413 0 0 1 6.973-18.296q1.455-3.793 2.286-5.64 1.953-4.31 2.331-5.62a.263.268 22.49 0 1 .353-.174c3.218 1.29 6.122 3.515 9.225 5.6a.235.235 0 0 0 .363-.174q1.031-12.308 1.211-16.344.504-11.077.637-18.405a.182.181 6.349 0 1 .264-.159q6.849 3.36 13.105 8.158a.3.3 6.87 0 0 .483-.219q.2-3.236.06-5.02c-.583-7.585-1.714-15.768-3.642-23.915q-3.192-13.47-7.63-25.911c-2.958-8.282-4.572-13.053-7.461-19.513a.433.43 46.312 0 1 .139-.52l6.082-4.38a.383.382 25.928 0 0 .144-.422 74 74 0 0 0-1.978-5.486q-6.963-17.208-16.98-33.235-3.007-4.815-7.899-11.449-5.772-7.82-8.472-11.061-15.595-18.734-34.472-35.639-9.464-8.486-14.145-12.213-18.779-14.985-19.52-15.55l-4.105-3.456a.177.177 0 0 1 .17-.303q4.463 1.44 13.682 3.843 3.547.929 5.25 1.142c6.211.78 12.069 1.37 18.215.62 7.586-.928 13.164-4.17 19.16-8.573a.177.175 68.284 0 1 .28.148q-.07 1.703-.643 3.614a88 88 0 0 1-3.272 9.042 447 447 0 0 1-6.201 13.96.523.524 54.02 0 0 .214.676l6.51 3.748a.22.219 13.073 0 0 .289-.064c5.927-8.579 8.358-18.717 10.365-28.592 1.16-5.695 1.543-11.57 1.728-17.313a90.7 90.7 0 0 0-1.5-19.572 43 43 0 0 0-1.229-5.02.413.412 24.382 0 0-.563-.252c-2.904 1.31-5.688 3.018-8.522 4.075q-.553.205-6.411 2.826a89 89 0 0 1-6.504 2.581q-10.181 3.615-17.08 5.521a93 93 0 0 1-22.02 3.332c-8.397.263-16.536-1.524-24.51-4.94-4.339-1.857-8.219-3.768-12.373-5.04q-7.496-2.288-13.936-2.854a90 90 0 0 0-23.375.998.161.162 73.03 0 0-.055.297l6.819 3.928a.149.15 68.427 0 1-.07.278c-7.895.233-14.539.303-22.154 1.25-5.116.636-9.48 1.952-13.633 4.97-2.037 1.48-4.094 3.824-5.757 5.696a.169.17 28.458 0 0 .118.283q7.606.168 15.287-.566c4.164-.398 8.034-.442 11.938-.696q2.59-.168 7.965.666 6.306.982 11.058 4.96a.376.374 34.682 0 1-.164.655q-6.969 1.385-14.809 2.373-4.662.585-8.079 1.241c-5.897 1.137-10.43 2.2-14.743 4.459q-4.632 2.422-8.004 6.096a.352.343 42.784 0 0-.005.463c3.686 4.32 6.973 7.879 9.235 12.481a.166.168 89.838 0 1-.225.224c-4.428-2.15-8.806-4.007-13.97-4.688-6.087-.799-13.016 1.52-18.22 4.598a.178.177 0 0 1-.245-.243 84.4 84.4 0 0 1 9.14-12.432.278.282 48.799 0 0-.01-.382c-3.75-3.803-8.662-6.599-13.728-8.153q-4.268-1.31-9.682-2.239-7.546-1.29-14.704-2.358a69 69 0 0 1-7.65-1.594.439.44 60.816 0 1-.15-.775 23.6 23.6 0 0 1 9.27-4.235q6.315-1.365 12.227-.967 12.687.853 18.678 1.136 3.452.165 6.317.05a.123.125 70.245 0 0 .084-.209 207 207 0 0 1-2.814-2.924c-4.632-4.974-10.973-7.313-17.787-7.978a260 260 0 0 0-21.317-1.152.175.174 13.824 0 1-.09-.323l6.231-3.858a.12.118 25.065 0 0-.045-.218c-12.915-1.946-27.086-1.947-39.364 2.795q-4.89 1.887-10.579 4.463-9.08 4.116-19.26 4.474-8.877.312-18.235-1.54-5.454-1.077-8.184-1.866-19.664-5.705-38.262-15.079a.321.32 6.925 0 0-.168-.034zm131.568 52.89c2.113-.067 4.287.085 6.3.512a.155.153 18.192 0 1 .084.253 27 27 0 0 1-2.396 2.358q-.015.01-10.41 8.873c-3.8 3.237-7.233 7.556-8.408 12.476q-.871 3.66-.832 7.637a.262.26 7.985 0 1-.393.229l-19.768-11.375a.242.24 22.393 0 1-.075-.348c7.391-10.069 17.896-16.717 29.964-19.81 1.769-.452 3.82-.738 5.934-.805m90 .028q3.345.166 6.661 1.06 12.233 3.297 21.87 11.325c2.62 2.185 5.156 5.391 7.731 8.336a.162.16 53.226 0 1-.07.259q-1.215.406-2.201.948-1.565.854-13.1 7.814c-1.57.948-3.447 1.753-5.11 2.746a.19.19 27.394 0 1-.29-.159 74 74 0 0 0-.063-2.651q-.409-8.351-5.639-14.314-2.003-2.284-5.439-5.203a516 516 0 0 0-8.482-7.01c-.827-.67-1.654-1.54-2.67-2.438a.182.183 76.642 0 1 .09-.318 31.3 31.3 0 0 1 6.713-.395zm-145.831 22.57a.183.184 86.167 0 1 .174.221l-2.83 13.723a.21.21 67.707 0 0 .304.23 40 40 0 0 1 4.797-2.116c3.273-1.211 7.686-1.276 10.998-.765 5.29.81 9.283 3.01 15.14 6.266q2.93 1.629 21.972 11.821c3.915 2.095 9.04 5.129 12.152 8.272q6.276 6.33 8.822 15.172 1.55 5.393 1.21 11.444a.105.106 52.903 0 1-.2.046c-1.912-3.61-4.039-7.071-7.008-9.817q-9.055-8.365-21.128-8.504-6.091-.07-13.682 2.005a78.7 78.7 0 0 0-15.037 5.815.361.363 81.44 0 1-.473-.124q-4.279-6.411-11.048-9.663c-3.606-1.732-6.595-2.83-10.445-2.72-8.856.248-11.62 10.277-12.063 17.322q-.433 6.857-.2 9.935a682 682 0 0 1 .648 9.29.105.104 0 0 1-.184.074c-2.042-2.363-3.422-3.694-4.423-5.73-3.253-6.608-4.692-13.315-4.682-20.778q.014-10.262 3.452-19.283 3.555-9.315 9.184-18.485c2.755-4.488 6.126-8.737 10.47-11.354q1.425-.858 3.984-2.274a.183.184 86.167 0 1 .096-.023zm201.486.11a.2.2 0 0 1 .072.017q5.34 2.423 9.085 6.35c2.067 2.165 4.572 5.69 6.246 8.58q5.03 8.703 7.565 14.775c3.392 8.132 5.036 16.92 4.27 25.738q-.06.705-.708 4.945c-1.031 6.723-3.716 12.591-8.413 17.497a.126.128 73.214 0 1-.219-.1q.658-5.615 1.022-11.092c.572-8.564-.33-24.988-12.717-25.077-4.742-.035-9.08 1.658-13.179 3.902q-4.422 2.418-8.228 8.222a.247.248 70.611 0 1-.294.094 38 38 0 0 1-3.004-1.266q-9.393-4.363-18.16-5.754c-5.359-.854-11.714-.814-16.854.834-8.672 2.776-15.013 8.793-19.242 16.801a.106.105 37.03 0 1-.199-.044c-.573-12.76 5.454-25.64 16.925-31.915q17.642-9.652 22.813-12.392.353-.185 11.162-6.107 2.077-1.137 5.707-2.09 3.427-.903 6.007-.963 6.65-.169 12.876 3.088a.196.195 3.508 0 0 .284-.214l-2.994-13.613a.178.178 0 0 1 .177-.216m-191.331 21.57q-5.37-.03-7.326 4.205c-1.908 4.13 5.653 9.895 8.92 11.757q10.838 6.161 21.646-.482 1.933-1.186.778-3.043-2.073-3.316-5.46-2.527c-3.377.794-6.006 4.795-10.434 2.556a8.3 8.3 0 0 1-3.243-2.928.883.857 27.081 0 1-.134-.463q0-.878.483-1.434c1.404-1.594 3.283-3.396 3.049-5.124a.67.674 20.14 0 0-.3-.477q-3.087-2.016-7.98-2.04m182.263.01q-4.597-.309-9.015 2.15a.585.584 80.679 0 0-.26.303q-.417 1.102.499 2.14a441 441 0 0 0 3.028 3.395q1.14 1.246-.03 2.69c-3.561 4.42-8.412 1.962-12.502-.168q-2.42-1.255-4.835.11c-1.883 1.067-2.805 3.714-.623 4.99 4.881 2.85 12.208 4.453 17.741 2.279 4.802-1.887 9.21-4.881 11.84-9.3 1.827-3.078.628-6.027-2.311-7.695q-1.31-.745-3.532-.894m-237.349 13.62a.145.146 88.602 0 1 .123.227c-2.61 3.962-5.773 8.366-11.531 16.489q-8.024 11.315-15.799 25.112-3.999 7.1-6.42 12.586-.483 1.102-.862 2.621a.5.507 19.948 0 0 .319.595c1.275.452 2.3.448 3.75.09 5.927-1.444 12.87-3.902 19.46-5.247a.185.182 5.783 0 1 .205.257 1865 1865 0 0 1-5.618 11.42q-3.03 6.096-7.358 17.391c-1.444 3.779-2.3 7.29-3.645 11.053q-.528 1.485-1.245 4.493a212 212 0 0 0-3.333 17.098q-.847 5.537-1.006 11.395a.215.214 23.053 0 0 .354.17l21.113-17.86a.18.179 49.668 0 1 .294.12q.389 3.936.907 9.641.702 7.74 1.703 26.806.374 7.085 2.242 13.648a.197.197 0 0 0 .368.03c1.843-3.942 3.382-7.512 6.426-10.67q4.641-4.826 11.705-4.507c5.09.228 8.413 3.425 10.943 7.59 2.774 4.558 5.698 10.074 7.725 15.168q2.415 6.067 3.506 9.25.363 1.058 1.724 6.613.623 2.542.219 4.761a.19.19 49.72 0 1-.339.085c-1.524-1.972-3.95-3.957-5.579-6.003q-.806-1.018-5.637-6.747-5.674-6.738-14.35-3.764-4.12 1.41-6.341 4.846-1.28 1.986-2.575 7.641a451 451 0 0 0-3.91 18.892 335 335 0 0 0-1.23 7.064.08.083 35.571 0 1-.15.035c-3.446-5.168-6.918-11.409-8.925-17.004-1.345-3.749-3.033-8.356-4.104-12.78q-2.172-8.957-3.413-16.136-.165-.958-1.753-12.04a134 134 0 0 0-2.59-13.181.257.26 77.322 0 0-.338-.184 5.3 5.3 0 0 0-1.913 1.161q-9.28 8.694-13.19 12.512c-1.877 1.837-3.64 3.158-5.15 4.911a.176.175 0 0 1-.309-.1 207 207 0 0 1-.313-35.663q.349-4.418 1.688-13.171.907-5.894 2.68-12.998 2.41-9.647 5.06-17.85a.111.111 76.31 0 0-.154-.133l-26.986 13.197a.15.15 87.691 0 1-.21-.184q4.005-10.918 9.584-21.702c1.38-2.67 3.626-7.283 5.573-10.361 1.863-2.95 3.751-6.305 5.848-9.513q13.14-20.103 30.951-36.92 5.912-5.585 11.715-10.217a.145.146 88.602 0 1 .091-.032m291.89.165a.22.217 1.518 0 1 .139.047c12.81 10.034 24.076 21.87 34.103 34.809q12.138 15.664 21.288 34.01 4.567 9.15 8 19.407a.122.121 0 0 1-.165.15q-3.626-1.53-5.275-2.364-3.57-1.802-21.262-10.566a.198.198 74.57 0 0-.28.234c1.843 6.092 3.422 10.431 4.692 15.878q2.81 12.015 3.706 18.946 1.838 14.289 1.484 28.16-.234 9.075-.916 16.817a.135.135 13.254 0 1-.229.084 1409 1409 0 0 1-15.565-14.83q-2.416-2.34-5.14-3.878a.308.305 12.523 0 0-.454.203c-1.42 6.723-2.227 13.485-3.253 20.257q-.518 3.445-1.743 9.076-1.335 6.171-2.026 9.032-1.948 8.037-5.395 16.949-3.203 8.28-8.238 15.957a.068.069 66.032 0 1-.125-.025q-2.62-14.919-5.36-27.504c-1.115-5.144-3.89-9.37-8.99-11.138q-4.069-1.415-8.228-.545c-2.555.53-4.487 2.517-6.494 4.805-2.64 3.02-6.376 7.955-10.625 12.468a.358.356 48.63 0 1-.617-.239 29 29 0 0 1 1.389-9.408q1.808-5.66 4.97-13.048c1.35-3.158 2.75-5.51 4.345-8.788 1.22-2.507 2.973-5.238 4.726-7.467 1.061-1.356 2.66-2.7 4.368-3.45q7.068-3.123 13.588 1.002c4.916 3.118 7.008 8.496 9.27 13.302a.116.117 49.527 0 0 .219-.026q.986-4.265 1.374-7.79c.468-4.244 1.16-9.12 1.544-13.945q1.863-23.494 2.286-28.762a.176.176 60.55 0 1 .289-.12l21.164 17.74a.234.233 0 0 0 .383-.169q.144-3.113-.25-6.668c-1.065-9.572-2.664-18.534-5.558-27.555-4.129-12.864-9.463-24.795-15.888-36.983a9.6 9.6 0 0 1-.673-1.589.19.19 88.624 0 1 .23-.238c2.027.501 3.805.853 5.518 1.375q7.601 2.313 13.902 3.843.373.09 2.545.412a.293.316 39.187 0 0 .185-.03l1.37-.67a.307.306 48.101 0 0 .158-.368q-.527-1.687-.692-2.015-5.669-11.623-13.872-25.013-3.825-6.237-9.916-14.8-3.382-4.752-10.186-14.632a.22.217 1.518 0 1 .18-.34M197.94 213.282a.584.59 78.796 0 1 .521.337q1.928 4.09 4.643 8.752 5.643 9.706 16.018 25.738.437.67.687.904a.169.17 79.423 0 1-.125.293q-5.2-.255-10.654-1.703c-7.148-1.897-13.473-5.854-17.542-12-1.564-2.359-2.147-5.243-2.44-8.138-.22-2.135.478-3.922 1.24-5.998 1.145-3.108 3.88-7.759 7.57-8.181a.584.59 78.796 0 1 .082-.004zm182.605.29a.575.577 26.625 0 1 .08.002c3.392.303 6.031 4.523 7.416 7.412 2.062 4.32 1.977 9.04-.18 13.35q-2.455 4.912-6.54 7.875c-6.719 4.87-14.269 6.514-22.363 6.822a.181.182 34.4 0 1-.15-.293 33 33 0 0 0 1.565-2.2q6.39-9.72 10.763-16.577c1.47-2.304 2.545-4.523 4.064-6.896q2.904-4.544 4.847-9.146a.575.577 26.625 0 1 .498-.349m-76.248 22.464c6.221-.305 12.875 2.262 15.86 7.923a.271.27 48.445 0 1-.104.362q-1.45.805-2.889 1.355-8.916 3.396-15.525 6.266-8.528 3.699-10.644 4.494-2.85 1.077-6.51-.363-.749-.293-26.583-11.856a.326.323 18.242 0 1-.16-.442c1.928-3.768 6.625-6.38 10.585-7.189 4.911-.998 9.309-.129 14.006 1.117 4.706 1.251 9.144 1.042 14.065-.229q2.068-.53 5.27-1.131c.86-.16 1.74-.263 2.629-.307m96.243 3.775a.85.858 64.794 0 1 .422.126q.821.512 1.743 1.689 3.511 4.487 4.358 10.242c1.026 6.975-2.83 12.064-8.831 15.023q-5.902 2.91-12.886 3.897-9.826 1.386-19.873-.312c-2.62-.447-3.916-.934-6.894-1.798a.124.124 22.031 0 1-.024-.228c5.987-3.093 11.685-7.213 17.094-11.27 3.223-2.417 6.968-4.935 10.066-7.343q1.773-1.376 12.054-8.852a7 7 0 0 1 2.55-1.152.85.858 64.794 0 1 .221-.022m-222.31.023a1.4 1.39 20.181 0 1 .377.054 9.8 9.8 0 0 1 3.134 1.534c8.616 6.315 17.139 12.754 25.766 19.05 3.95 2.884 9.14 6.32 12.242 8.028a.114.113 41.103 0 1-.01.204c-5.34 2.288-11.39 2.933-17.632 2.914-9.095-.035-21.253-1.916-27.723-9.086-5.559-6.156-2.85-14.745 1.36-20.679a8.5 8.5 0 0 1 1.603-1.712 1.4 1.39 20.181 0 1 .884-.307m67.452 6.496a.078.077 45.057 0 1 .081.057 72 72 0 0 0 4.454 12.288 435 435 0 0 0 6.027 12.337.451.453 76.341 0 0 .712.13c3.496-3.223 7.835-4.37 12.477-3.337 1.544.337 2.281.522 3.73 1.003 2.95.983 7.193 3.023 10.769 3.803 4.243.928 8.059.764 12.238-.834q4.125-1.584 7.71-3.078 4.373-1.832 9.12-1.34c3.152.332 5.733 2.209 8.233 3.847a.21.212 38.306 0 0 .304-.08q4.503-8.731 7.87-16.716 1.334-3.158 2.644-7.75a.163.162 20.507 0 1 .275-.07c3.013 3.113 4.283 8.038 4.367 12.303q.145 7.23-2.335 13.848c-2.182 5.818-6.7 10.52-11.625 13.365q-5.758 3.315-7.646 4.28a107 107 0 0 0-6.799 3.777c-5.778 3.49-8.732 8.992-5.952 15.74a.3.304 73.829 0 0 .389.168q.771-.293 4.91-1.564c5.24-1.604 12.08-2.378 17.374-.377q7.725 2.919 14.05 8.038a1.163 1.166 69.801 0 1 .33 1.375 50 50 0 0 0-1.65 4.136 100 100 0 0 1-.816 2.313c-2.042 5.253-.244 9.623 1.927 14.533 3.452 7.795 5.414 16.096 6.151 24.472.27 3.013.18 7.715.354 10.595q.015.252.09.377a.188.19 68.325 0 0 .338-.03q1.08-2.814 2.172-6.434.657-2.18 1.494-6.614.832-4.408 3.063-18.201 2.176-13.45 2.232-13.693.512-2.294 1.589-3.629a1.495 1.501 42.381 0 1 1.465-.531c5.185 1.013 12.172 2.646 16.994 0 3.197-1.758 4.99-5.219 6.251-8.664a.403.4 9.713 0 0-.314-.53c-8.487-1.416-16.078-4.191-19.331-12.701a.864.87 55.516 0 1-.03-.497c.39-1.653 4.389-2.234 6.311-2.582q14.31-2.562 18.33-3.391c7.132-1.465 13.408-2.289 21.9-3.857a.174.172 5.457 0 1 .189.243 44 44 0 0 0-1.354 3.127 60242 60242 0 0 0-25.258 65.08q-4.573 11.791-4.587 22.948-.02 15.48.642 31.532.285 6.846-.269 17.173-.766 14.349-5.429 28.737-2.565 7.92-6.445 14.647-.603 1.038-1.07 1.609a.325.327 60.588 0 1-.484.024q-.663-.65-3.407-3.54-.981-1.037-3.342-2.299a.243.242 0 0 0-.333.11q-2.586 5.416-5.53 8.222-5.399 5.148-12.685 7.824c-7.93 2.91-15.52 4.498-24.54 6.191q-10.297 1.926-19.665 5.705-.707.283-4.782 2.388a.431.437 51.785 0 1-.389.005q-7.326-3.654-11.794-4.855c-3.611-.968-8.054-2.215-11.9-2.91q-10.235-1.852-18.394-4.031-4.806-1.281-9.966-3.576-7.944-3.525-12.93-10.55-1.56-2.194-2.187-4.399a.285.283 58.4 0 0-.383-.183c-2.75 1.162-5.42 4.543-6.909 5.809a.436.434 10.432 0 1-.652-.1c-5.523-8.847-8.975-18.821-10.863-29.114-2.152-11.707-2.217-23.523-1.72-36.362q.504-12.944.554-23.94a75 75 0 0 0-1.629-15.934q-1.05-4.97-4.632-13.995-.777-1.957-8.307-21.071a3626 3626 0 0 1-17.035-44.04.171.17 0 0 1 .184-.227q4.22.656 4.324.675 22.469 4.046 32.694 5.77 5.14.863 7.824 1.702a.958.955 0 0 1 .4.239q1.125 1.087.641 2.279c-3.083 7.591-11.43 10.47-19.26 12.312a.266.27 78.59 0 0-.2.328q.872 3.252 2.377 5.332c5.274 7.313 14.055 4.43 21.272 3.079a1.288 1.295 82.075 0 1 1.445.79q.936 2.351 1.38 4.502.861 4.185 3.392 19.974.293 1.822 1.125 6.126c1.146 5.903 1.927 12.666 4.497 17.75a.126.126 17.8 0 0 .24-.055c.055-9.458.917-19.353 3.591-27.728q1.061-3.322 4.139-12.09 1.767-5.04.31-10.053-.579-1.982-2.088-6.33a1.297 1.303 77.601 0 1 .368-1.396c3.73-3.292 7.855-5.298 12.612-7.239q3.432-1.4 6.18-1.539c5.719-.293 12.015 1.102 16.956 2.874a.313.307 19.62 0 0 .379-.143q.792-1.5.876-4.608c.125-4.474-2.645-7.655-6.181-9.999q-5.005-3.307-12.91-7.854-2.919-1.68-6.546-4.653-5.977-4.9-8.143-12.317c-2.37-8.103-2.804-17.77 3.332-24.239a.078.077 45.057 0 1 .048-.022zm153.492 28.527a.653.656 83.534 0 1 .507.27q1.859 2.558 1.574 5.845c-.423 4.851-4.369 5.695-8.602 5.928-5.315.288-11.55-.164-16.103-2.885-2.207-1.32-3.437-2.11-4.911-3.986a.164.163 56.547 0 1 .1-.264q8.965-1.47 19.689-3.867c2.366-.526 4.945-.765 7.66-1.038a.653.656 83.534 0 1 .086-.003m-218.873.018q1.255-.03 3.671.342c4.234.65 9.295 1.947 13.648 2.766a3793 3793 0 0 1 8.761 1.658.274.276 36.754 0 1 .104.323q-.284.794-.623 1.112-5.07 4.761-11.879 5.546-6.206.714-11.984-.373c-4.97-.933-5.548-6.86-3.282-10.475a1.904 1.907 71.422 0 1 1.584-.9m109.162 44.952q-.647-.026-1.76.238a263 263 0 0 0-14.834 3.962c-8.124 2.418-14.205 4.057-21.253 6.45a.17.17 77.944 0 0-.09.248q4.239 6.881 9.853 15.381.841 1.276 1.743 3.376a.45.457 70.504 0 0 .618.229l1.086-.532a1.157 1.186 84.574 0 0 .617-.75l3.551-13.126a.175.177 38.973 0 1 .31-.065c1.065 1.375 2.365 2.662 3.287 3.992q.777 1.117 3.874 5.496a.33.332 64.574 0 0 .524.025q1.086-1.266 1.539-2.18 2.928-5.864 2.993-5.982a.191.193 54.182 0 1 .329-.016c1.858 2.76 3.635 6.013 7.371 6.222 2.211.119 3.687-.874 5.071-2.77q1.016-1.395 2.62-3.164a.162.16 43.186 0 1 .264.04l3.94 7.999a.158.158 24.81 0 0 .268.024l7.083-9.438a.175.176 73.765 0 1 .31.054l3.69 12.478a1.14 1.176 16.505 0 0 .248.447q.719.813 1.884 1.216a.371.373 36.007 0 0 .463-.193q1.359-2.9 3.501-5.993c2.74-3.967 5.355-8.386 8.114-12.512a.327.327 76.075 0 0-.169-.492q-18.643-6.145-36.664-10.614a2 2 0 0 0-.38-.05m-61.627 102.334a.098.096 9.475 0 0-.093.107 88.7 88.7 0 0 0 3.412 17.183c2.406 7.929 6.35 16.75 14.808 19.586 4.757 1.593 10.231 1.212 14.5 1.301q4.458.094 7.714.094l56.159-.075c7.785-.01 14.16-2.884 18.16-9.874 4.872-8.525 7.297-18.162 8.179-28.117a.168.167 72.907 0 0-.244-.164c-7.506 3.853-14.818 8.123-22.22 12.134-2.395 1.296-5.399 3.218-8.163 4.27q-.862.329-1.206.775c-3.038 3.942-.219 9.756.947 13.957a.45.454 85.109 0 1-.439.57h-1.967a1.635 1.662 74.569 0 1-1.3-.626l-9.857-12.491a.35.351 59.757 0 0-.588.06l-4.706 9.195a.173.175 56.206 0 1-.314-.005 308 308 0 0 0-4.852-10.248q-.259-.53-.418-1.54a.221.22 0 0 0-.299-.168l-1.295.501a.464.453.517 0 0-.244.234l-4.587 10.694a.127.125 38.223 0 1-.234-.005l-3.995-10.203a.772.757 2.801 0 0-.37-.406l-1.572-.8a.248.245 14.38 0 0-.354.164l-.28 1.166a1.016 1.094 64.012 0 1-.094.26l-5.34 10.44a.13.133 51.503 0 1-.238-.005l-4.21-9.592a.192.19 46.496 0 0-.323-.045 432 432 0 0 0-9.488 12.08q-.912 1.201-1.668 1.31-1.067.145-2.387.03a.277.274 6.557 0 1-.244-.338q.384-1.597 1.205-3.738c1.196-3.108 1.824-7.705.016-10.515a.916.93 85.597 0 0-.453-.368q-1.69-.626-2.033-.824a1671 1671 0 0 0-28.973-15.953.098.096 9.475 0 0-.052-.011" style="stroke-width:.497284;fill:#feca00;fill-opacity:1" data-source="https://football-logos.cc"></path><!-- source: https://football-logos.cc --></svg>