<svg xmlns="http://www.w3.org/2000/svg" xml:space="preserve" viewBox="0.13 0.06 171.75 214.88"><!-- Source: https://football-logos.cc --><path fill="#FDEB1B" d="M171.869 128.141c0 3.275-.211 6.111-.482 9.455l-.539 4.314-.76 4.199-.953 4.162-1.154 4.09-1.377 4.004-1.529 3.883-1.742 3.836-1.879 3.711-2.084 3.586-2.211 3.52-2.434 3.354-2.52 3.271-2.701 3.111-2.877 3-2.967 2.863-3.104 2.707-3.242 2.557-3.381 2.391-3.49 2.248-3.576 2.1-3.727 1.9-3.791 1.74-3.887 1.541-3.994 1.365-4.072 1.162-4.16.951-4.209.754-4.293.574-4.373.313-4.4.135-4.412-.135-4.328-.313-4.303-.574-4.234-.754-4.166-.951-4.065-1.162-3.992-1.365-3.894-1.541-3.785-1.74-3.73-1.9-3.583-2.1-3.483-2.248-3.375-2.391-3.246-2.557-3.105-2.707-3-2.863-2.848-3-2.693-3.111-2.552-3.271-2.399-3.354-2.25-3.52-2.053-3.586-1.905-3.711-1.746-3.836-1.53-3.883-1.337-4.004-1.159-4.09-.994-4.162-.754-4.199c-.409-3.385-.913-6.799-.913-10.213V.088L6.926 2.28l2.453.75 2.482.718 2.541.724 2.518.674 2.59.645 2.605.626 2.592.609 2.66.585 2.63.545 2.67.545 2.66.514 2.694.476 2.66.477 2.699.41 2.676.41 2.654.417 2.661.33 2.625.354 2.668.296 2.597.275 2.592.279 2.561.233 2.564.208 2.494.17 2.498.171 2.453.136 2.393.104 2.357.106 2.311.056 2.295.04h3.724l1.641-.04 1.736-.023 1.836-.064 1.955-.074 2.053-.104 2.146-.099 2.215-.14 2.326-.169 2.389-.206 2.459-.196 2.527-.244 2.594-.247 2.631-.296 2.695-.312 2.771-.341 2.766-.38 2.832-.404 2.828-.449 2.91-.472 2.902-.488 2.896-.543 2.938-.545 2.906-.614 2.93-.651 2.943-.684 2.904-.716 2.895-.75L159 4.121l2.867-.813 2.799-.889 7.209-2.356v128.078z" data-source="https://football-logos.cc"></path><path fill="#010202" d="m81.557 211.523-4.17-.34-4.156-.52-4.076-.75-4.012-.928-3.898-1.131-3.878-1.301-3.736-1.473-3.7-1.678-3.56-1.867-3.466-1.988-3.359-2.152-3.258-2.33-3.117-2.471-3.012-2.627-2.887-2.75-2.729-2.881-2.607-3.021-2.465-3.146-2.301-3.254-2.156-3.357-2.029-3.465-1.807-3.584-1.683-3.676-1.479-3.771-1.293-3.867-1.14-3.941-.917-4.025-.716-4.059c-.411-3.221-.894-6.553-.894-9.855V4.461l6.908 2.234 2.36.716 2.388.689 2.413.684 2.458.649 2.459.65 2.491.57 2.531.587 2.508.585 2.566.503 2.527.515 2.581.508 2.562.454 2.566.438 2.59.414 2.557.407 2.551.379 2.564.336 2.526.312 2.522.309 2.521.268 2.498.234 2.453.237 2.456.209 2.426.168 2.342.172 2.365.143 2.311.097 2.254.068 2.252.069 2.176.027h3.555l1.563-.027 1.674-.04 1.768-.029 1.885-.104 1.973-.063 2.039-.143 2.162-.138 2.205-.135 2.301-.208 2.344-.165 2.457-.241 2.488-.241 2.527-.307 2.594-.269 2.617-.34 2.703-.383 2.695-.377 2.725-.398 2.764-.488 2.799-.476 2.799-.503 2.803-.557 2.822-.566 2.795-.622 2.797-.645 2.797-.684 2.803-.721 2.75-.745 2.734-.822 2.684-.824 7.301-2.416v123.518c0 3.121-.168 5.893-.439 9.09l-.514 4.15-.725 4.07-.924 4.018-1.135 3.938-1.303 3.877-1.482 3.771-1.672 3.666-1.822 3.561-2.018 3.494-2.156 3.352-2.295 3.266-2.467 3.15-2.609 3.008-2.736 2.877-2.877 2.754-3.02 2.629-3.125 2.465-3.256 2.326-3.357 2.168-3.463 1.984-3.559 1.855-3.678 1.676-3.76 1.475-3.846 1.309-3.934 1.123-3.98.926-4.078.768-4.148.506-4.189.338-4.23.107zM3.666 131.316c0 3.244.473 6.547.884 9.754l.705 4.035.917 3.986 1.136 3.918 1.283 3.846 1.462 3.74 1.672 3.643 1.801 3.564 2.005 3.439 2.147 3.33 2.279 3.24 2.447 3.123 2.587 2.994 2.718 2.861 2.857 2.717 2.996 2.619 3.094 2.451 3.229 2.314 3.336 2.146 3.439 1.963 3.533 1.848 3.673 1.664 3.71 1.461 3.852 1.301 3.873 1.131 3.984.902 4.041.75 4.125.508 4.145.348 4.26.102 4.205-.102 4.154-.342 4.111-.5 4.051-.764 3.949-.902 3.918-1.131 3.805-1.289 3.734-1.461 3.643-1.676 3.539-1.84 3.439-1.969 3.33-2.135 3.229-2.316 3.098-2.457 3.002-2.609 2.854-2.725 2.723-2.857 2.588-2.994 2.447-3.125 2.281-3.238 2.141-3.328 2.004-3.471 1.813-3.543 1.656-3.631 1.461-3.74 1.299-3.852 1.125-3.908.918-3.98.721-4.043.508-4.121c.271-3.178.439-5.936.439-9.029V5.265l-6.5 2.16-2.697.813-2.736.827-2.771.76-2.805.722-2.803.679-2.799.646-2.803.622-2.842.578-2.803.543-2.811.516-2.803.475-2.77.49-2.738.398-2.693.378-2.695.378-2.631.337-2.602.284-2.523.306-2.498.239-2.473.241-2.346.163-2.295.21-2.217.133-2.156.139-2.059.129-1.973.072-1.891.106-1.768.023-1.684.045-1.572.032h-3.565l-2.186-.032-2.246-.068-2.256-.069-2.328-.109-2.363-.129-2.359-.174-2.424-.165-2.462-.215-2.458-.23-2.492-.25-2.537-.265-2.531-.309-2.526-.306-2.563-.347-2.561-.375-2.566-.41-2.596-.412-2.566-.441-2.562-.449-2.601-.512-2.527-.513-2.576-.512-2.511-.574-2.532-.588-2.513-.587-2.448-.645-2.467-.651-2.428-.677-2.395-.698-2.362-.716-6.114-1.988v126.023z"></path><path fill="#FFCC07" d="M168.354 127.938c0 3.111-.178 5.877-.441 9.055l-.52 4.127-.721 4.061-.918 4-1.131 3.924-1.293 3.861-1.473 3.754-1.672 3.662-1.811 3.549-2.008 3.479-2.152 3.34-2.295 3.248-2.453 3.145-2.6 3-2.727 2.865-2.867 2.738-3.01 2.627-3.104 2.457-3.236 2.314-3.352 2.154-3.461 1.979-3.549 1.844-3.645 1.682-3.756 1.465-3.824 1.299-3.924 1.125-3.963.93-4.072.75-4.129.506-4.166.354-4.23.092-4.268-.092-4.166-.354-4.131-.506-4.07-.75-3.988-.93-3.895-1.125-3.859-1.299-3.727-1.465-3.682-1.682-3.553-1.844-3.445-1.979-3.352-2.154-3.247-2.314-3.104-2.457-3.006-2.627-2.861-2.738-2.732-2.865-2.602-3-2.457-3.145-2.287-3.248-2.146-3.34-2.023-3.455-1.807-3.572-1.678-3.662-1.467-3.754-1.297-3.861-1.12-3.924-.927-4-.716-4.061c-.401-3.209-.884-6.525-.884-9.805V4.88l6.519 2.114 2.354.715 2.393.688 2.428.683 2.448.649 2.468.656 2.491.574 2.526.585 2.522.58 2.567.507 2.525.522 2.59.506 2.572.441 2.551.441 2.602.417 2.556.402 2.562.385 2.551.331 2.535.321 2.522.303 2.527.271 2.498.239 2.458.234 2.453.212 2.428.175 2.354.166 2.363.131 2.32.108 2.252.064 2.248.071 2.188.025h3.553l1.574-.025 1.674-.036 1.777-.035 1.873-.097 1.979-.076 2.049-.131 2.15-.139 2.217-.133 2.293-.209 2.352-.168 2.463-.239 2.496-.239 2.527-.309 2.592-.279 2.633-.333 2.695-.385 2.699-.367 2.725-.407 2.768-.48 2.799-.484 2.811-.514 2.797-.547 2.822-.57 2.803-.624 2.799-.644 2.811-.684 2.803-.716 2.762-.753 2.73-.824 2.693-.812 6.904-2.295v123.093h.006z"></path><path fill="#010202" d="M88.596 129.014V22.177h.289c16.4-.305 48.656-3.145 75.375-12.167l.398-.144V128.98l-75.762.033h-.3zm.599-.616 74.861-.037V10.712c-26.586 8.898-58.406 11.73-74.861 12.062zM6.568 9.882l.406.136c24.778 8.152 55.973 12.211 78.655 12.211v.306-.306h.295l.035 106.764-79.392.041zm.612 118.536 78.162-.037-.029-105.546c-22.592-.039-53.438-4.05-78.132-12.112zM136.695 188.135v-56.786h12.496v44.08l-.055.082a78.6 78.6 0 0 1-11.932 12.863l-.51.426zm.618-.666a78.6 78.6 0 0 0 11.268-12.238v-43.268h-11.268zm-.311-55.506v-.303zM108.123 204.053v-72.70400000000001h12.496v68.17800000000001l-.174.076a74 74 0 0 1-11.922 4.74l-.398.107v-.398zm.615-.42c3.904-1.189 7.666-2.717 11.268-4.49v-67.18h-11.268zm-.304-71.67v-.303zM83.209 207.73c-1.125-.064-2.254-.135-3.379-.197l-.297-.016v-76.168h12.506v76.119l-.283.031c-1.193.096-2.441.164-3.715.23h-4.832zm.02-.607h4.793a196 196 0 0 0 3.41-.215v-74.945H80.15v74.975c1.032.052 2.067.119 3.079.185m-3.375-75.16v-.303zM63.1 204.48a79.3 79.3 0 0 1-11.957-4.672l-.178-.086v-68.374H63.49v73.242zm-.223-.718v-71.799H51.576v67.377a78.5 78.5 0 0 0 11.301 4.422M51.27 131.963v-.303zM34.406 188.854c-4.422-3.781-8.43-8.166-11.928-12.865l-.06-.084V131.35h12.496v.309q-.008 28.478 0 56.959v.664zm-.103-.907v-55.984H23.025v43.74c3.329 4.453 7.114 8.627 11.278 12.244m-11.576-55.984v-.303z"></path><path fill="#302D7F" d="M150.977 131.66v-.311h13.598l-.01.326c-.656 14.742-5.725 29.773-13.033 40.346l-.555.803zm.613 39.192c6.889-10.338 11.652-24.744 12.352-38.891H151.59zm-.317-38.889v-.303zM122.398 198.031v-66.682h12.525v58.984l-.113.082a75.6 75.6 0 0 1-11.969 7.891l-.443.234zm.614-.506a75.7 75.7 0 0 0 11.301-7.479V131.96h-11.301zm-.305-65.562v-.303zM93.811 206.975V131.35h12.531v73.621l-.23.063c-3.867 1.02-7.84 1.811-11.957 2.258l-.346.027v-.344zm.617-.338c3.877-.436 7.635-1.18 11.301-2.139v-72.535H94.428zm-.311-74.674v-.303zM77.432 207.291a75.4 75.4 0 0 1-11.938-2.168l-.229-.059v-73.71499999999999h12.506v75.971zm-.278-.654v-74.674H65.878v72.631a75 75 0 0 0 11.276 2.043m-11.582-74.674v-.303zM48.744 198.578a79.5 79.5 0 0 1-11.934-7.783l-.125-.086V131.35h12.502v67.47700000000002zm-.168-.775v-65.84H37.299v58.445a79 79 0 0 0 11.277 7.395m-11.574-65.84v-.303zM20.082 172.635c-8.646-12.709-12.886-26.877-13.478-40.959l-.011-.326h14.045v42.107zm-.057-1.174v-39.498H7.241c.611 13.562 4.652 27.191 12.784 39.498M6.919 131.963v-.303z"></path><path fill="#009741" d="m88.881 128.705 75.467-.033V10.288c-26.771 9.046-59.047 11.889-75.467 12.191z"></path><g fill="#FDEB1B"><path d="m85.607 22.534.037 106.149-78.773.041V10.304c24.817 8.172 56.025 12.23 78.736 12.23M136.998 131.66v56.475a78.2 78.2 0 0 0 11.885-12.805v-43.67zM108.414 131.66v72.393c4.139-1.227 8.094-2.84 11.883-4.717V131.66zM79.83 131.66v75.566c1.131.064 2.26.127 3.391.201h4.813c1.26-.074 2.492-.137 3.682-.236V131.66zM51.266 131.66v67.873a80.4 80.4 0 0 0 11.907 4.65V131.66zM22.716 131.66v44.146c3.479 4.682 7.466 9.051 11.878 12.813V131.66z"></path></g><g fill="#010202"><path d="M55.732 58.859v13.457L38.523 102.88h-1.437v-5.268L51.265 72.35v-5.813l-14.178 24.74v-8.363L59.344 43.19h4.516v6.251l3.611-6.251h4.506l-8.119 14.101v7.82l12.668-21.955 4.5.034v59.69h-4.533V51.046l-4.516 7.814v44.021h-4.506V66.682l-3.611 6.252v29.947h-4.516V80.893L55.73 88.74v14.141h-4.506v-6.357l-3.621 6.357H42.79l16.553-29.602V51.045zM37.087 77.02 56.58 43.19h-4.531L37.087 69.17zm0-14.362 11.197-19.469h-4.5L37.087 54.8zm0 40.221h-2.976l2.976-5.266zm0-11.604v-8.363l-11.233 19.967h4.571zm0-36.475L9.361 102.879h4.506l23.22-40.221zm0 14.37-19.47 33.709h4.546L37.086 77.02zM9.298 54.22c0 6.081 4.944 11.036 11.03 11.036 6.068 0 11.02-4.955 11.02-11.036 0-6.112-4.951-11.063-11.02-11.063-6.155-.001-11.03 5.114-11.03 11.063M42.615 115.857v-.693h.615l-.615-1.672v-2.559l.107-.24h1.367l2.256 6.355c0 .172.164.34.164.52.168 0 .346.168.346.168v.336h-3.283v-.336h.173c.168-.168.168-.168.168-.348v-.33999999999999997l-.503-1.189h-.795zm7.649-4.986h6.012v.342h-.168a.36.36 0 0 0-.342.338v5.838c0 .18.164.348.342.348h.168v.336H52.86v-.336h.173c.173 0 .173-.168.346-.348v-5.838h-1.534v2.938c0 1.195 0 2.055-.347 2.732-.375.684-.884 1.025-1.575 1.025-.512 0-.849-.174-1.021-.342a1.33 1.33 0 0 1-.338-.855c0-.338 0-.674.172-.861.168-.164.34-.164.677-.164.173 0 .346 0 .512.164.179.188.179.355.179.523v.51c0 .168 0 .168.162.168.351 0 .682-.34.859-1.201v-3.2699999999999996c0-.508 0-.857-.178-1.195 0-.34-.332-.51-.682-.51zm8.784 7.201v-.336c.33 0 .503-.168.503-.168v-6.018c0-.168-.173-.338-.503-.338v-.342h3.409v.342h-.172c-.168 0-.34.17-.34.338v5.838c0 .18.171.348.34.348h.172v.336zm12.694-7.379v2.563H71.4c0-.508-.168-.846-.346-1.195a1.46 1.46 0 0 0-1.195-.678c-.508 0-.848.168-1.188.508-.543.52-.717 1.365-.717 2.598 0 1.025.174 1.887.717 2.393.172.342.68.51 1.188.51.348 0 .682 0 .859-.168.334-.174.68-.342 1.021-.68l.34.338c-.508.51-1.027 1.023-1.707 1.191-.34.174-.846.174-1.195.174-1.4 0-2.25-.342-2.931-1.197-.681-.674-1.026-1.535-1.026-2.391 0-1.234.346-2.084 1.026-2.766.683-.855 1.708-1.197 3.104-1.197.178 0 .508 0 .855.178 0 0 .334 0 .684.164h.51v-.342h.342zm4.145 7.379v-.336h.156c.168 0 .346-.168.52-.168v-6.018h-.174c-.346 0-.684.17-1.025.34q-.513.514-.514 1.027h-.508l.174-2.045h6.512v2.045h-.338c0-.344-.342-.684-.514-1.027-.346-.168-.721-.34-1.234-.34h-.162v5.33c0 .34.162.508.162.688 0 0 .178.168.35.168h.342v.336zm-65.641-7.201h3.113l1.875 4.467 2.049-4.467h2.936v.342h-.177c-.164 0-.341.17-.503.338v6.018c.162 0 .339.168.339.168h.341v.336h-3.795v-.336h.174c.182 0 .346-.168.514-.348v-4.641l-2.395 5.324h-.681l-2.423-5.324v3.627c0 .506.173.846.173 1.014 0 .18.375.348.543.348h.173v.336h-2.255v-.336h.177c.162 0 .33-.168.508-.168v-6.018c-.178-.168-.346-.338-.508-.338h-.177zm32.369.063v2.559l-.069-.238-.503 1.91h.572v.693h-.93l-.162.518c0 .168-.168.336-.168.336v.338c0 .172 0 .34.168.52 0 0 .162.168.34.168v.336h-2.249v-.336c.167 0 .167-.168.346-.168.375-.18.542-.52.714-1.025zm-20.008-.063h5.502l.168 2.045h-.342c-.176-.508-.338-.855-.853-1.195-.347 0-.687-.17-1.026-.17h-.514v2.6c.346 0 .68-.217.854-.379.172-.17.172-.516.172-1.023h.515v3.275h-.515c0-.51 0-.857-.172-1.023a1.27 1.27 0 0 0-.854-.342v2.053c0 .338.173.512.173.68h.507c.346 0 .859-.168 1.196-.342.517-.168.688-.674.856-1.023l.342.164-.342 1.885h-5.668v-.336h.338s.214-.168.382-.348v-5.838c-.168-.168-.382-.338-.382-.338h-.338zm9.802 7.201v-.336h.161c.353 0 .353-.168.519-.168v-6.018h-.167c-.352 0-.682.17-1.023.34-.35.344-.517.684-.517 1.027h-.341v-2.045h6.52v2.045h-.332c0-.344-.178-.684-.52-1.027-.339-.168-.68-.34-1.021-.34h-.178v6.018c.178 0 .178.168.52.168h.168v.336z"></path></g><path fill="#010202" d="M158.637 118.246v-.715c.203-.074.414-.178.52-.311.168-.34.34-.678.34-1.033 0-.33-.172-.674-.172-.85a1.9 1.9 0 0 0-.688-.445v-.848c.145-.068.246-.174.346-.273.174-.35.342-.518.342-.855 0-.508-.168-.855-.508-1.025-.07-.072-.105-.102-.18-.102v-.756h.346c.859 0 1.541.178 2.049.516.342.172.52.684.52 1.197 0 .508-.178.854-.688 1.186-.34.219-.682.381-1.199.555.52 0 1.199.168 1.541.334.514.344.68.861.68 1.365 0 .861-.512 1.381-1.199 1.717-.502.168-1.02.34-1.703.34h-.346v.003zm0-7.211v.754c-.133-.068-.266-.068-.512-.068h-.168v2.43h.34a.6.6 0 0 0 .34-.105v.85c-.195-.025-.408-.072-.68-.072v2.227c0 .174 0 .342.168.52h.172c.107 0 .246 0 .34-.037v.715h-3.617v-.342h.172c.18 0 .342-.168.342-.336v-5.846a.36.36 0 0 0-.342-.338h-.172v-.348h3.617zm-37.108 3.928v-.723a.8.8 0 0 0 .17-.09c.34-.219.689-.729.689-1.234 0-.508-.35-.855-.527-1.025a.8.8 0 0 0-.332-.137v-.721h.51c.895 0 1.574.178 1.91.516.514.172.691.859.691 1.367 0 .684-.342 1.234-.865 1.57-.406.274-1.222.407-2.246.477m9.625-3.928h3.617v.348h-.336s-.178 0-.178.168c-.168.17-.168.51-.168.684v1.916l1.193-1.064c.174-.168.346-.512.346-.512.168-.166.342-.514.342-.684s0-.342-.174-.342c-.168-.168-.34-.168-.514-.168v-.348h2.902v.348c-.168 0-.336 0-.508.168-.342.172-.514.342-.859.684l-1.189 1.189 2.049 3.287c.174.338.342.512.342.68.166.178.34.346.508.516v.34h-3.242v-.34c.172 0 .172-.168.172-.336v-.348l-1.365-2.398v2.747c.168.168.346.336.346.336h.336v.34h-3.617v-.34h.178c.172 0 .334-.168.334-.336v-5.846c0-.172-.162-.34-.334-.34h-.178v-.348h-.003zm13.557 7.211v-.342h.174c.205 0 .369-.168.541-.336v-5.846c-.172-.172-.336-.34-.541-.34h-.174v-.346h3.623v.346h-.168c-.174 0-.348 0-.348.168v6.018c0 .168.174.336.348.336h.168v.342zm-23.182-7.211v.721c-.211-.035-.441-.035-.68-.035h-.178v2.594h.178c.271 0 .502 0 .68-.074v.723c-.279 0-.551.037-.855.037v2.049c0 .172 0 .52.178.688 0 0 .162.168.34.168h.162v.34h-3.578v-.34c.168 0 .342-.168.51-.336v-5.846a.36.36 0 0 0-.34-.34h-.168v-.346h3.752zm-14.172 4.822v-.625l.611-.068-.508-1.91-.104.275v-2.428l.104-.23h1.367l2.215 6.35c.209.168.209.348.209.348.166.168.338.336.338.336v.34h-3.281v-.34c.168 0 .346-.168.346-.168l.174-.168v-.18l-.174-.168-.346-1.361h-.951zM93.695 115l-1.701-2.939q-.268-.508-.514-.51c0-.168-.168-.168-.346-.168v-.348h3.785v.348h-.164c-.176 0-.176.168-.176.338l.176.17.682 1.531.686-.85s.174-.164.174-.34v-.344c0-.168 0-.34-.174-.34 0-.168-.178-.168-.346-.168h-.17v-.348h2.729v.348c-.508 0-.85.338-1.354 1.025l-1.035 1.742 1.711 2.898c0 .172.168.52.336.52.174.168.523.336.523.336v.342H94.92v-.342l.176-.168v-.516l-1.057-1.537-.686 1.027c0 .17-.164.17-.164.338v.172c0 .168 0 .348.164.516.178 0 .34.168.508.168v.342H90.97v-.342c.34 0 .508-.168.844-.336.178-.18.518-.52.68-.857zm13.662-3.898v2.428l-.578 1.809.578-.104v.625h-.918l-.178.684v.338s-.174.168-.174.342c0 .168.174.346.174.346.178.168.34.336.52.336v.342h-2.434v-.342c.176 0 .354-.168.518-.336.164-.178.342-.52.514-.857z"></path><path fill="#FFF" d="M26.434 62.693v-6.872l.448-.306 2.112 1.13-.375 3.931a9.2 9.2 0 0 1-2.185 2.117m0-10.187.576 2.472 2.152 1.125 1.646-1.406v-.477c0-1.26-.285-2.494-.625-3.622l-2.927-1.599-.823 1.021zm0-3.376v-1.426l.448.849zm-1.907-4.493-1.135.027v-.449q.568.156 1.135.422m1.907 3.067v1.426l-.918 1.23-2.123.061v-5.175l1.748-.074zm0 2.317-.444.577.444 1.908zm0 5.8v6.872c-.209.178-.444.295-.683.436l-2.358-1.732v-.681l.676-3.318zm-3.041 2.224.131-.575-.131-.114zm0-13.382-3.1.066v-.984h.061c1.055 0 2.092.159 3.039.469zm0 .583v5.175l-1.68.042-1.42-2.115v-2.859l.128-.175zm0 12.109v.689l-.677 3.142-2.423.439v-6.18zm0 3.36-.133.615.133.065zm-3.1-7.417.986-2.524-.986-1.431zm0-8.568h-.384l-1.57-.78a9.2 9.2 0 0 1 1.955-.204zm0 .757v2.859l-1.001-1.5zm0 3.856-1.441-2.118-2.072.772v7.391l2.921-.691.593-1.398v-3.956zm0 6.103v6.18l-1.752.31-1.762-1.536v-4.438l3.193-.68zm-3.514 8.605c.435.143.879.279 1.322.377l.143-1.977-1.465-1.265zm0-16.054v7.391l-.286.059-2.32-2.391v-1.458l.813-2.938zm0 7.963v4.438l-1.475-1.264 1.264-3.102zm0 5.227-2.088-1.81-.518-.034v3.351c.79.576 1.674 1.021 2.605 1.357v-2.864zm-2.606-11.611.308-1.157-.308-.447zm0-1.603v1.604l-.784 3-2.25 1.367-.07-.063v-4.473a10.4 10.4 0 0 1 2.117-2.803zm0 3.625-.306 1.116.306.342zm0 7.745v3.351a11 11 0 0 1-1.989-1.951l.069.071.321-1.537zm-3.105-.311v-4.335l1.063 4.066-.313 1.498a13 13 0 0 1-.75-1.229m0-9.624v4.473l-1.062-1.234c.204-1.157.551-2.251 1.062-3.239m0 5.288-1.131-1.291c-.033.239-.033.538-.033.813 0 1.74.408 3.381 1.164 4.813z"></path><g fill="#302D7F"><path d="M151.27 131.66v40.184c7.273-10.506 12.322-25.5 12.975-40.184zM122.695 131.66v66.375c4.221-2.256 8.223-4.877 11.912-7.854v-58.523h-11.912zM94.105 131.66v75.316c4.098-.434 8.064-1.219 11.918-2.244V131.66zM65.568 131.66v73.166a73 73 0 0 0 11.883 2.15V131.66zM36.982 131.66v58.902a79.6 79.6 0 0 0 11.879 7.754V131.66zM6.909 131.66c.572 14.037 4.807 28.139 13.419 40.807V131.66z"></path></g><g fill="#FFF"><path d="M39.652 162.492h3v8.977h2.972v-12.773h-2.255c-.247 1.543-2.083 2.295-3.346 2.295h-.371zM71.471 171.809c4.918-.168 5.127-5.67 5.127-7.027 0-6.188-3.76-6.42-5.127-6.459v2.258c2.086 0 2.363 1.943 2.363 2.521 0 1.127-.623 2.43-2.363 2.43v1.949a3.8 3.8 0 0 0 2.363-1.133c-.145 2.387-1.102 3.209-2.363 3.24zm-4.719-3.344c.307 1.33 1.27 3.346 4.51 3.346h.209v-2.221h-.109c-.879 0-1.83-.338-2.01-1.125zm4.719-10.143H71.4c-3.928 0-4.881 2.832-4.881 4.82 0 2.592 1.84 4.359 4.506 4.359.139 0 .303 0 .445-.021v-1.949c-1.328 0-2.33-.924-2.33-2.457 0-1.166.623-2.494 2.289-2.494h.041v-2.258zM105.004 169.428h-6.219c.549-.99 1.4-1.473 2.77-2.26 2.828-1.67 3.449-2.977 3.449-4.645 0-3.965-4.172-3.994-4.752-3.994-4.059 0-5.061 2.527-5.061 4.367v.414h2.77v-.48c0-1.26.863-2.082 2.188-2.082 1.066 0 2.021.547 2.021 1.918 0 1.666-1.336 2.174-3.695 3.814-2.695 1.84-3.244 2.965-3.244 4.646v.516h9.773zM123.51 167.58c.068 1.492.953 4.063 4.881 4.063 3.652 0 5.088-2.355 5.088-4.777 0-2.49-1.645-4.271-4.27-4.271-1.736 0-2.689.615-3.07.918l.381-2.762h6.174v-2.221h-8.127l-.814 6.836h2.799c.473-.719 1.4-.926 1.984-.926 1.016 0 2.109.754 2.109 2.389 0 .654-.143 2.617-2.186 2.617-1.543 0-2.014-1.074-2.115-1.863h-2.834z"></path></g><path fill="#010202" d="m154.279 66.537-.57.934-.213-.213-.232.115-.068.883-.484-.281-.307.9c-.443-.279-.957-.449-1.117-.963-.115.035-.145.063-.209.063 1.158 3.76-3.006 8.23-5.295 8.404-.41 3.213-3.756 5.119-6.283 5.119v-.094c-.857 1.461-2.693 2.66-4.27 2.66-1.365 2.395-4.639 3.066-6.721 2.463-.443.334-1.135.645-1.23.645-.721.553-2.463.658-3.424.236-.139.105-.207.141-.207.141-.533 1-2.721 1-3.678.549-.34.377-.715.613-.715.682-.715.543-2.469 1.086-3.691.543-.178.139-.271.246-.271.246-.691.813-2.422 1.049-3.246.365-.375.41-.93.721-.992.791-.543.307-1.678.375-2.631.176-.307.303-.75.678-.75.678-.543.275-1.357 1.057-2.047.852-.313.68-.814 1.434-1.506 1.709-.074.311-.164.645-.164.645-.311.416-.311.711-.922 1.092.201.176.301.41.34.783v.072c.133-.072.416-.273.672-.344.281-.104.625.07.896.309.141.143.242.303.371.52.313 0 .594 0 .859.133.41.439.582.957.791 1.391.023.611-.139 1.277-.381 1.652v-.074.074c0-.074-.1-.074-.1-.184v.559c-.068.602-.211.885-.543 1.262-.455.303-.961.607-1.504.607-.48.482-.791.619-1.402.756-.912.068-1.535.068-2.117-.375-.996 0-2.02-.137-2.67-.688-.814-.641-.814-1.293-.576-2.158-.613-.438-1.092-.943-1.189-1.563-.42-1.395.193-1.771 1.055-2.451.064.027.064.127.064.127-.305-.68-.41-1.393-.305-2.012.24-1.389.857-2.113 1.504-2.695v.139c0-.688.143-1.479.406-1.977.609-1.133 1.367-1.643 2.293-2.016.139-.209.139-.41.266-.592.656-1.227 2.67-3.176 3.549-3.176-.059 0-.059.109-.059.109.059-.109.107-.17.133-.271.715-1.508 3.455-2.697 4.576-2.834.715-.717 2.658-2.246 4.238-1.881 0-.033 0-.129.029-.129.369-1 3.482-2.57 3.85-1.854.072 0 .139.074.139.15.967-1.006 3.119-2.639 3.902-2.852.135-.27.158-.402.158-.539.527-.781 3.396-2.051 3.869-1.473.34-.4.717-.813.951-.713.449-.711.963-1.467 1.338-1.332.025-1.225.168-1.672.307-2.115.307-.75 1.096-2.189 2.105-1.684v-.23c0-3.318.145-4.227.455-5.017.371-.924 1.025-2.526 2.121-2.219-.107-.17 0-.308 0-.308 0-3.657.402-4.141 1.428-4.404.059 0 .104-.029.172-.029 0-.039.025-.074.025-.144-.301.214-.504.104-.504-.684-.404 0-1.17 1.095-1.17.579l-.672.415c-.172-.481-.104-1.16-.104-1.645-.824 0 .4-1.782.617-1.949-.557 0-1.441.929-1.781 1.271-.133-.342.178-.992.178-1.295-.213 0-.482-.17-.621-.17.139-.349.375-1.779.818-1.779-.035-1.412 2.117-2.354 1.098-2.189-.555-.611 1.941-.753 2.855-.197-.164-1.096.391-2.117 1.824-1.979l.377.166.375-.166c.059-.034.133-.034.168-.034l-.109-.821 1.305.611c.234-.611 1.02-1.131 1.465-1.542l1.396.483-.307.447 1.539-.685-.242.926h.617l-.197.477 1.531.069-.139.715.443-.785 1.096.069-.107.715.484-.646.375.541.848-.311v.55l.859-.31c0 .788 0 1-.383 1.541l.109.165.271-.611.307.38.375-.312.617-.236.711.37-.07.244.553-.139v.304l.613.066-.17.311.371.07-.301.784-.209.072.139.404.307.104.168.14.789-.482.141 1.878 1.459-.136-.063.443.307.066.311.721c-.238.308-.414.602-.928.602v.462c.068-.072.104-.072.104-.072l.443.37.686-.231.953.614-.236.234.068.244.918.133-.307.543.859.318c-.248.612-.375.916-.988 1.155v.244l-.482.13.168.41-.404.068.064.271.373-.064.248.209.986-.072-.213.605c.213 0 .756.38 1.063.548v.556l.537.611-.162.992-.307-.065-.139.233.313.925-.48-.071.168.994c-.137 0-.543.096-.818.096l.275.141.18 1.088h-.32l-.164.311.484.775-.484.076.307.926c-.543.1-.918.234-1.471 0l-.201.234-.412-.234-.244.307-.436-.307.07.164-.998.143c-.207.139-.404.268-.617.41z"></path><path fill="#010202" d="m100.838 103.166-.068-.074a2.8 2.8 0 0 1-.604.061c-.068 0-.146 0-.23-.008-1.248-.027-2.014-.809-2.572-1.75-.156-.283-.244-.443-.252-.664-.008-.326.309-.469.393-.488h.043c-.637-.381-1.109-.854-1.422-1.623a1.8 1.8 0 0 1-.152-.727c0-.838.617-1.498 1.447-1.754-.178-.379-.258-.791-.262-1.338v-.125c.004-1 .346-2.469 1.516-2.863a2 2 0 0 1-.039-.418c0-.146.008-.289.029-.416.123-1.199 1.168-3.01 2.59-3.09h.049l.068.01q.06-.302.184-.6c.439-.977 1.639-2.697 2.971-2.77.119 0 .262.027.381.072l.043.018c.1-.295.193-.543.307-.758.508-.967 2.33-2.531 4.082-2.57.236 0 .459.039.686.109.588-1.492 2.307-2.26 3.303-2.281.227 0 .479.039.656.225.449-1.48 2.037-2.094 3.07-2.098.398.004.787.068.996.398.014.018.033.029.045.049.063-.174.111-.313.166-.426.439-.699 2.514-2.641 3.588-2.738.09-.01.186.021.277.07v-.131c.078-.982 1.322-1.916 2.363-1.979.385-.008.744.207.938.588.197-.465.611-.975 1.203-1.105.133 0 .271.064.365.154v-.063c.01-.258.107-.531.248-.834.168-.27.252-.586.709-.645q.155 0 .281.096c.051-.689.158-1.482.348-2.189.279-.996.676-1.949 1.602-1.992.08 0 .148.012.248.025.139.053.277.145.41.252v-.031c-.045-.221-.059-.553-.059-1.016 0-1.02.088-2.564.389-3.875.316-1.276.775-2.487 1.875-2.542h.1c.023-1.955.178-3.232.705-4.063l.549.257q-.007.014-.006.068c0 .165.104.451.268.661.162.217.375.335.395.313h.01l.42-.081-.051.419c-.008.074-.008.156-.008.228.023.769.33.892.725.918.246.007.504-.105.656-.241l.191-.179.209.173c.246.2.443.263.611.271.213 0 .449-.109.699-.316l.475-.373.029.604.025.626.262-.024.049.271.039.185 1.057.446.055.072.139.199.271-.17.172.256.193.306.262-.035.119.16c.398.577.773.706 1.379.981l.115.066.045.121.234.679.141-.066.156.15.549.508-.371 1.137.924-.076.059.27.119.672c.391-.088.734-.324 1.047-.699l.182-.219.223.15.701.477-.02.174v.08c.02.902.469 1.139.928 1.168.27 0 .539-.113.699-.291l.529-.553v1.244l.242.029.049.207.055.193.301.078.033.203c.129.891.283 1.754.283 2.746v.141c-.012 1.879-1.334 3.18-1.576 3.459-.363.43-.848.719-1.369.719-.484 0-.904-.252-1.186-.752-.016.191-.055.365-.09.523-.445 2.051-1.752 4.375-3.508 4.445-.814 0-1.564-.555-2.207-1.744-.021.291-.035.576-.053.828-.066 2.055-1.635 3.633-3.092 3.666-.605.008-1.193-.322-1.525-.971-.375 1.486-1.203 2.795-2.422 2.877-.559-.018-1.086-.326-1.596-.982.018.191.035.385.035.564 0 1.381-.621 2.305-1.514 2.324-.461 0-.885-.262-1.215-.732-.229.883-1.668 1.682-2.721 1.758-.223 0-.469-.047-.65-.221a.73.73 0 0 1-.232-.41c-.689 1.135-1.824 1.914-2.793 1.941-.352 0-.705-.129-.941-.406a1.6 1.6 0 0 1-.324-.75c-.691 1.246-2.145 2.328-3.613 2.357-.355 0-.711-.07-1.043-.23l-.035-.006c-.576.838-1.371 1.242-2.1 1.242-.662 0-1.275-.367-1.51-.975-.1.189-.205.367-.293.535-.646 1.092-1.574 1.627-2.379 1.627a1.39 1.39 0 0 1-1.264-.77c-.527 1.143-1.451 1.861-2.396 1.885-.381 0-.73-.123-1.037-.369.01.033.01.068.01.111 0 .115-.016.236-.053.402-.264.781-.74 1.279-1.383 1.279-.184 0-.365-.045-.543-.117.107.236.182.52.201.822-.008 1-.715 1.561-1.488 1.525-.064 0-.145-.006-.215-.01.18.293.412.801.543 1.404.012.15.029.279.029.418 0 .424-.123.779-.383 1.021-.016.016-.025.025-.041.033.188.084.375.215.498.43.129.252.209.506.209.748-.004.053-.016.098-.016.148.178-.168.436-.266.707-.266.01 0 .014 0 .023.008-.262-.064-.529-.215-.553-.607 0-.07.016-.137.031-.209a.38.38 0 0 1-.209-.227 1.2 1.2 0 0 1-.082-.424c.027-.674.514-1.178.967-1.381l.045-.016.033-.012c.084-.008.174-.008.242-.008.666-.006.814.457 1.037.639l.014.014c.297.021.611.09.879.264l-.154.256.205-.221c.486.439.67 1.012.75 1.389.025.139.045.283.045.434 0 .443-.125.91-.361 1.287l-.07.121c0 .094.012.189.02.275 0 .047 0 .1-.008.146l-.271-.02v.01l.271.047c-.139.654-.76 1.725-1.842 1.773-.074 0-.143-.006-.217-.02-.549.521-1.102.783-1.668.818-.291.023-.537.051-.779.051h-.025c-.42.007-.83-.096-1.18-.434m1.199-.17c.193 0 .439-.029.736-.043.418-.031.85-.223 1.348-.711.113-.199.314-.813.314-1.342-.02-.531-.152-.887-.566-1.047a.7.7 0 0 0-.178-.027c-.271.008-.455.188-.455.479-.02.186-.043.344-.078.506l.004.008-.004.021c-.213.945-.717 1.66-1.471 2.123.1.021.211.033.35.033m-4.137-1.92c.539.896 1.078 1.424 2.074 1.455l-.02.305.027-.305c.061.008.119.008.184.008 1.406-.008 1.984-1.125 2.254-1.666a.5.5 0 0 0-.104-.102c-.014 0 0 0-.055-.008a.4.4 0 0 1-.088-.016c-.557.158-1.293.441-2.166.441a4.1 4.1 0 0 1-1.955-.512c-.084.051-.174.086-.236.113-.023.008-.049.02-.068.02.026.064.071.142.153.267m7.204-.125c-.012.398-.045.811-.135 1.154.459-.176.9-.828.973-1.199v-.107a1.7 1.7 0 0 0-.107-.607c-.049-.148-.113-.215-.119-.205l-.055-.025-.043-.051c-.1-.133-.805-.594-.83-.561a2 2 0 0 0-.227.039c.059.115.246.369.344.641.177.265.187.575.199.921m1.148-.023h-.016zm-6.066-.494c.592 0 1.182-.129 1.59-.336.418-.219.607-.469.607-.762a.9.9 0 0 0-.139-.443c-.049-.139-.285-.236-.602-.264-.285-.063-.479.02-.76-.096-1.393-.225-2.545-.586-3.381-1.779-.582.219-.922.645-.914 1.139 0 .15.025.314.104.494.377.91.9 1.244 1.951 1.723l-.064.148h.012l.074-.139c.414.207.971.315 1.522.315m2.439-.192v-.025c0 .01-.01.01-.01.025zm2.496-1.596c.352.047.539.273.592.305.016.027.381.213.523.605 0 .016.016.031.045.072.045-.166.068-.346.068-.514 0-.104-.008-.211-.023-.313-.074-.297-.223-.732-.543-1.043a1.4 1.4 0 0 0-.633-.156c-.207-.006-.346.055-.346.072l-.064.078-.113.021c-.068.012-.586.244-.779.629a.6.6 0 0 0-.07.203c.037.021.135.027.252.027.193 0 .391-.035.563-.035h.035c.088-.018.146-.023.227-.023.192.008.249.061.266.072m-3.764-.806c.541-.049.713-.143.75-.736 0-.096-.004-.205-.023-.314a4.2 4.2 0 0 0-.49-1.225c-1.18-.686-2.432-1.713-2.842-3.135-.643.291-.992 1.389-.982 2.246v.096c.049 1.051.162 1.25.982 2.09 1 .618 1.988.986 2.605.978m2.221-.35.035-.037c.178-.18.418-.385.725-.488-.035-.01-.078-.01-.148-.01h-.123a1.25 1.25 0 0 0-.489.535m-1.221-2.806c.529-.033.82-.188.879-.904-.029-.539-.408-1.063-.5-1.244-.432-.473-.754-.723-.906-1.287-.48-.793-.721-1.822-.814-2.709-.781.229-1.723 1.662-1.742 2.498a3 3 0 0 0-.029.357c0 .703.314 1.072.902 1.961.523.798 1.535 1.333 2.21 1.328m1.289-2.442c.211.152.398.215.543.215.275 0 .563-.203.793-.842a1 1 0 0 0 .029-.236c0-.393-.193-.645-.281-.908-.314-.682-.463-1.107-.508-1.664-.035-.369-.035-.883-.035-1.193.01-.119.199-1.76.277-2.471-.742 0-2.053 1.578-2.34 2.379a2.5 2.5 0 0 0-.213 1.033c0 .512.145 1.059.352 1.738l-.203.059.203-.051c.169.64.944 1.644 1.383 1.941m3.004-1.224c.707.012 1.658-.752 2.068-2.08.191-.465.221-1.348.221-2.199v-.461c0-.4 0-.785.037-1.119.023-.035.193-2.188.582-3.246-.068-.014-.143-.014-.223-.014-1.352-.031-3.215 1.514-3.537 2.234-.375.748-.727 2.287-.715 3.654 0 .572.049 1.117.191 1.553l-.297.086.297-.063c.263 1.254.814 1.651 1.376 1.655m3.038-2.5-.02.064c-.09.225-.125.43-.125.582.014.531.281.729.77.748.523.004 1.297-.383 1.846-1.32.238-.396.494-.908.51-1.176l.004-.041.008-.039c.643-1.721.959-3.713.959-5.367 0-.217-.016-.447-.02-.65v-.176c0-.447.068-.807.068-1.037-.01-.162-.035-.213-.068-.248l-.055-.045-.025-.053h-.016a.6.6 0 0 0-.201-.021c-.75-.027-2.486.801-2.791 2.049-.209.73-.846 1.883-.855 5.875 0 .252 0 .523.012.807h-.223.223v.048zm3.794-.743c.004.605.408.926 1.012.943.563 0 1.262-.338 1.756-1.225.236-.412.504-.873.559-1.244a6 6 0 0 0 .295-1.793v-.189c0-.875.105-1.408.105-1.803.014-.111.059-2.592.314-3.125.045-.156.191-.629.184-.963.008-.189-.055-.271-.061-.271l-.078-.053-.041-.088s-.027-.037-.104-.061a1.1 1.1 0 0 0-.375-.051c-.83-.008-2.201.566-2.482 1.67-.168.646.258 4.773-.98 7.699-.07.215-.104.392-.104.554m4.19-.058c1.461.031 3.219-1.629 3.406-2.936.207-.584.438-1.775.438-2.633 0-.059 0-.133-.01-.223.049-1.076.381-4.254.381-5.922a3.5 3.5 0 0 0-.061-.846l-.025-.014v-.02c-.537.031-2.891 2.035-2.984 2.4-.33.701-.963 2.842-.957 4.701 0 .188.016.348.02.516l-.078.004.078-.004c.029.383.049.744.049 1.08 0 2.125-.543 3.277-.779 3.826.157.038.338.071.522.071m4.189-2.184c.039.824.281.949.691.982.848.039 2.441-1.252 2.729-2.826.148-.404.236-.719.236-1.098 0-.215-.025-.467-.113-.779-.209-.865-.313-1.529-.313-2.805 0-.096.016-.539.016-1.006.006-.33-.01-.689-.045-.84a7.5 7.5 0 0 1-.191-1.723c0-.709.09-1.287.09-1.691-.055-.596-.189-.613-.475-.648-.297-.004-.779.213-1.154.516-.371.293-.617.695-.604.842q.007.3.006.627c0 1.764-.227 3.859-.346 5.814-.035 1.275-.178 2.691-.42 3.775a4.7 4.7 0 0 0-.107.86m4.371-1.685-.014.027c-.217.484-.295.824-.295 1.029.033.295.033.256.305.295.342.014.922-.215 1.383-.525.438-.254.709-.629.74-.705l-.016-.031v-.063c-.168-2.129-.617-4.922-.885-7.111-.023-.242-.146-3.246-.598-3.924-.049-.1-.059-.088-.059-.088l-.139-.035-.055-.119a1.1 1.1 0 0 0-.326.285 2.6 2.6 0 0 0-.363.549s-.012.008-.012-.016c.074.852.102 1.615.102 2.336 0 1.424-.102 2.623-.102 3.838-.004.93.441 1.555.441 2.98 0 .367-.025.758-.1 1.23zm1.379-11.78c.127 1.047.65 3.75.682 5.227.068 1.871.617 4.813.805 5.689.297.891.766 1.213 1.066 1.195.363 0 .893-.469.9-1.713 0-.373-.049-.789-.162-1.268-.188-.809-.566-1.525-.912-2.602l-.012-.02c0-.016-.023-.045-.043-.074-.061-.096-.146-.211-.252-.383a15 15 0 0 1-.879-1.605c-.127-.295-.773-2.523-.957-5.113l-.055.102a2.2 2.2 0 0 0-.193.551v.006h-.156zm7.002 8.979c.406-.768.65-1.785.65-2.697v-.076c.012-1.643-2.125-6.066-3.01-7.465-.152-.443-1.406-3.664-1.979-3.693-.029-.006-.068-.006-.094-.006-.32-.053-.77.568-1.018 1.541-.256.953-.359 2.121-.359 2.908 0 .271.01.502.035.674 0 .016.084 2.582.729 3.918.203.465.445 1.045.727 1.424.74.824.996 2.301 1.145 2.779.678 1.486 1.35 1.93 1.797 1.914.455.015.989-.457 1.377-1.221m2.573-.686c1 .02 2.451-1.316 2.486-3.078.035-.662.098-1.451.098-2.145 0-.377-.014-.73-.063-1.004-.127-.896-.646-3.273-1.451-5.551-.01 0-.563-1.695-2.086-4.23-.271-.428-2.479-3.986-2.988-4.408v-.009q-.079-.014-.137-.016c-.475-.064-1 .794-1.279 2.067-.279 1.246-.379 2.76-.379 3.738 0 .439.021.783.049.889 0 0 .471 1.826 1.561 3.637.811 1.369 2.27 4.553 2.732 6.039.49 1.531.193 2.104.387 3.223.251.643.609.833 1.07.848m-1.446-.754.072-.016-.068.008c0 .001 0 .008-.004.008m9.705-5.959c.074-.303.109-.723.109-1.203.043-2.594-1.115-7.168-2.314-7.74l-.229-.131.209-.625-.031-.053h.051l.346-1.018-.113-.102-.395.201-.113-.332-.297-.904c-.482-.216-.973-.433-1.4-.982l-.283.037-.104-.16-.152-.222-.262.168-.162-.247-.258-.37-1.193-.512-.035-.153-.008-.064-.352.022-.006-.313-.021-.432a1.4 1.4 0 0 1-.615.146c-.271 0-.537-.089-.813-.265-.254.158-.549.24-.855.24-.654 0-1.338-.499-1.338-1.522V57.1c-.33-.117-.596-.387-.777-.706-.184.701-.271 1.695-.271 3.032 3.025 3.337 5.512 8.972 6.031 11.493.547 1.639.686 3.441.861 4.834.646 1.432 1.328 1.873 1.883 1.863 1.122.073 2.544-2.046 2.907-3.968m-5.082 2.184.291-.035zm5.963-4.539c.014 1.729.566 2.105.99 2.115.275 0 .633-.188.902-.52.271-.295 1.428-1.477 1.428-3.059v-.141c0-.861-.119-1.635-.242-2.453l-.256-.068-.041-.176-.045-.17-.375-.043v-.463a1.5 1.5 0 0 1-.617.113c-.738 0-1.51-.574-1.533-1.713l-.197-.121c-.385.402-.863.672-1.422.734 1.5 2.625 1.383 4.836 1.408 5.947l-.219.014h.219z"></path><path fill="#FDEB1B" d="M146.018 71.293c0 2.83 1.605 2.795 2.428 1.807.277-.309 1.57-1.596 1.502-3.408 0-.959-.145-1.811-.271-2.697l-.27-.066-.105-.391-.311-.021v-.75c-.646.68-2.221.514-2.152-1.199l-.537-.373c-.414.512-.928.814-1.545.848l-.178-.947-.811.063c2.39 3.142 2.222 5.806 2.25 7.134m-10.205 8.299c.85 2.355 4.086.512 4.16-2.291.068-1.021.178-2.352.039-3.213-.139-.922-.654-3.307-1.465-5.602 0 0-.576-1.738-2.127-4.293-.301-.479-2.73-4.431-3.133-4.55-2.152-.535-2.326 6.083-2.152 7.038 0 0 .482 1.877 1.604 3.723.783 1.33 2.244 4.545 2.697 5.975.476 1.475.169 1.978.377 3.213m-.243-1.299c0-1.811-2.143-6.18-3.035-7.615-.201-.412-1.268-3.613-2.189-3.861-1.6-.334-1.969 4.27-1.807 5.432 0 0 .068 2.592.746 4.031.207.445.453 1.055.783 1.506.656.719.928 2.148 1.102 2.689 2.08 4.545 4.435.72 4.4-2.182m-4.365 2.83c-.209-.844-.584-1.564-.93-2.619 0-.109-.504-.65-1.189-2.125-.104-.199-.822-2.658-.955-5.326-.283-.648-.889.793-.826 1.061.139 1.053.658 3.75.682 5.189.08 1.912.623 4.857.82 5.773.826 2.528 3.211 1.528 2.398-1.953m-5.267 2.637c-1.572 3.443 3.074.893 2.695.1-.168-2.15-.602-4.945-.885-7.135-.029-.242-.127-4.1-.883-4.268-.307-.652-1.26.709-1.26.984.203 2.527 0 4.311 0 6.15.002 1.3.688 1.907.333 4.169m-4.27.844c-.85 3.898 3.352 2.029 3.904-.811.236-.648.363-1.164.129-2.049-.201-.854-.301-1.465-.301-2.736 0-.133.063-1.434-.041-1.914-.342-1.504-.094-2.592-.094-3.346-.045-2.051-2.844-.307-2.844.717.07 1.848-.201 4.203-.334 6.426-.034 1.269-.171 2.662-.419 3.713m-4.094-1.838c.246 3.314-.688 4.516-.82 5.064 1.85.84 4.342-1.236 4.619-2.943.236-.682.475-2.021.439-2.939.068-1.43.646-6.697.24-6.998-.314-.684-3.211 1.838-3.512 2.459-.386.818-1.106 3.308-.966 5.357m-4.271 4.334c-.75 2.051 1.945 2.813 3.209.553.242-.412.518-.896.592-1.295.162-.512.33-1.309.307-2.088 0-.855.094-1.355.094-1.805 0-.041.107-2.668.314-3.049.068-.232.4-1.291 0-1.563-.281-.686-3.041-.246-3.553 1.604-.172.785.238 4.813-.963 7.643m-3.928 1.373c-.744 2.049 1.742 2.488 3.045.268.236-.404.52-.91.553-1.291.746-2.02 1.053-4.34.953-6.152-.045-.779.236-1.363-.113-1.672-.297-.617-3.064.236-3.578 2.082-.202.716-.954 2.122-.86 6.765m-4.396.953c.578 2.969 3.242 2.152 4.031-.373.367-.926.164-2.803.271-3.859 0 0 .307-3 .717-3.486-1.645-.584-3.988 1.334-4.473 2.285-.582 1.167-1.019 3.837-.546 5.433m-3.006.955c.203.752.992 1.746 1.5 2.121.75.516 1.434.27 1.82-.826.131-.646-.211-1.094-.281-1.334-.311-.676-.438-1.051-.484-1.563-.021-.342-.021-.855-.021-1.166 0-.064.26-2.418.305-2.727-1.064-.375-2.566 1.535-2.975 2.52-.411 1.03-.198 1.848.136 2.975m-2.082 3.14c1.066 1.563 3.582 2.219 3.652.238-.035-.652-.475-1.225-.578-1.438-.484-.51-.721-.678-.844-1.189-.523-.822-.766-1.982-.834-2.938-1.121-.035-2.25 1.736-2.32 2.803-.127 1.089.277 1.538.924 2.524m-1.338 3.583c2.127 1.301 4.135 1.604 3.83-.373-.139-.648-.439-1.236-.582-1.395-1.258-.721-2.557-1.813-2.834-3.281-1.135.17-1.535 1.705-1.506 2.729.041 1.089.248 1.466 1.092 2.32m-.033 3.287c1.684.848 4.955.1 4-1.652-.305-.57-1.4-.369-1.563-.502-1.477-.248-2.541-.578-3.322-1.848-1.02.27-1.633 1.127-1.232 2.117.408.99 1.058 1.396 2.117 1.885m1.435 2.447c2.018.143 2.66-1.732 2.838-1.996-.41-.525-.41-.287-.578-.422-.992.27-2.422.947-4.168-.105-.445.375-.928.074-.412.924.553.917 1.205 1.568 2.32 1.599m4.406-.399c.271-.455.865-2.426-.404-2.879-.553-.162-1.027.203-1.027.721-.139 1.369-.785 2.184-1.879 2.66.479.449.953.377 1.742.314.512-.03 1.031-.275 1.568-.816m1.875-1.511c.035-.572-.168-1.131-.404-1.23-.172-.17-.785-.648-1.066-.648-1.051.066-.26.648-.133 1.121.311.354.133 1.926-.127 2.27.918.159 1.633-.931 1.73-1.513m-.271-3.412c-.438-.277-1.199-.277-1.391-.035-.174.035-.717.271-.998.777-.482.969.824.625 1.057.662.311-.074.248-.037.449.029.23.027.342.166.475.277 0 0 .305.17.408.471.07.137.307.35.377.543a2.14 2.14 0 0 0 .275-1.504c-.064-.332-.242-.843-.652-1.22m-1.988-.858c-.398.18-.941.822-.705 1.404.172.443.586-1.023 1.742-.848-.381-.341-.313-.626-1.037-.556m36.38-20.826c1.977 4.447 4.777.891 5.391-2.111.479-2.152-.652-8.334-2.355-9.293l.543-1.635-.402-.379-.281.133-.336-1.021c-.582-.271-1.063-.441-1.512-1.096l-.266.035-.307-.468-.275.165-.307-.447-1.135-.475-.061-.34-.307.03-.037-.953c-.506.404-1.059.583-1.709.032-.582.551-2.043.551-1.875-1.165-.439.109-1.156-.852-1.033-1.437-.473.756-.641 2.062-.641 4.142 3.006 3.244 5.537 8.979 6.045 11.467.544 1.609.683 3.422.86 4.816"></path><path fill="#010202" d="M132.078 52.65a.7.7 0 0 1-.025-.18c.021-.326.203-.745.326-1.015l-.371-.365c.588-.94.732-1.412.732-1.561-.021 0-.047-.01-.086-.015a1.35 1.35 0 0 1-.627-.197c-.049.055-.133.121-.23.212l-.094.079h-.113c-.07 0-.174.008-.316.008-.129 0-.275-.008-.443-.052l-.365-.088.168-.341c.152-.256.434-.771.928-.955.084-.854.785-1.458 1.07-1.69l.049-.099c.199-.477.293-.503.313-.728l.016-.225.232-.045c.111-.024.223-.032.357-.032.813.018 1.861.4 2.229 1.262.418 1.022 1.365 1.875 1.4 2.892 0 .619-.42 1.13-1.313 1.554q.162.302.148.604c0 .553-.4 1.083-1.041 1.083-.436 0-.926-.235-1.396-.743l-.07-.079-.02-.103a.5.5 0 0 0-.043-.179c-.029.016-.092.047-.148.131a.8.8 0 0 0-.148.461v.174l-.146.086-.836.498zm2.942-.505c.27-.008.418-.193.438-.471a.75.75 0 0 0-.227-.514l-.33-.317.424-.17c1.074-.461 1.283-.836 1.283-1.155.043-.57-.84-1.505-1.344-2.655-.166-.501-1.051-.908-1.668-.891h-.045c-.063.202-.16.323-.25.496a.14.14 0 0 1 .01.06c-.09.379-.172.265-.275.417a4 4 0 0 0-.381.36c-.268.286-.498.645-.498 1.037v.051l.029.311c.35.139.023.156.631.205h.855l-.396.321c.045.086.078.19.074.293-.01.296-.129.676-.482 1.3.045.03.084.058.111.1.08.096.09.203.09.269a1 1 0 0 1 .445-.165c.334 0 .563.301.611.645.385.367.701.473.895.473m-3.561-3.138h.006c.158-.142.227-.229.346-.281-.088.013-.231.139-.352.281m1.777-2.381-.285-.117z"></path><path fill="#009741" d="M132.951 46.509c.172-.405.305-.473.336-.813.717-.144 1.947.267 2.26 1.057.75 1.773 2.729 3.031-.109 4.196.859.862-.127 2.39-1.598.862-.094-.93-.951-.319-.951.438l-.51.298c-.137-.407 1.02-1.972-.105-1.285 1.422-2.322.41-1.91.543-2.053-1.061 0-.438-.62-1.229.101-.172 0-.408.042-.688-.037.135-.271.551-.852.953-.852-.062-1.196 1.477-1.94 1.098-1.912"></path><path fill="#010202" d="M140.654 47.632c-.521-.019-.947-.123-1.328-.38l-.037.293-.438-.412c-.256-.262-.398-.296-.453-.637.115-.462.229-.278.32-.777l-.094-.479a.2.2 0 0 1-.074-.037c-.207-.136-.543-.168-.605-.64v-.271l.207-.025-.078-.451.201-.107.104-.055v-.662l.475.3.295.177.037.105c.066.194.104.241.146.255.1-.612.258-.971.85-1.53l.271-.271.039.071.084-.28.324.148.627.281-.191.299-.418.643 1.828-.838-.137.607-.016.052.611-.032-.178.433-.016.06 1.604.138-.146.38c-.066.28-.238.772-.756.854l.043.39-.156.109-.342.212.178.321-.256.149c-.252.15-.494.271-.76.321.09.029.191.054.314.077l.396.047-.168.37-.277.639-.301-.188-.438-.284-.193.017a5 5 0 0 1-.488.03c-.113 0-.221-.012-.314-.022l.059.622zm-1.328-1.195c.346.366.559.489.959.545l-.84-1.307 1.021.535c.365.183.504.227.801.227h.104l-.016-.104a1.3 1.3 0 0 1-.072-.297v-.394l.389.099c.139.035.248.044.367.044.189 0 .357-.033.576-.143l-.168-.284.24-.165.416-.267-.09-.71.361.01c.043.005.078.005.117.005.232-.035.258-.005.275-.074l-1.623-.138.152-.383-.479.026.059-.236-1.992.921-.09.587-.375-.375-.168.079.104-.148c-.068-.04-.346-.062-.563-.35l-.039.017.098.517c.09.045.18.077.252.112.09.111.168-.088.316.365-.025.148-.078.223-.137.268l.059.313-.01.055a1.6 1.6 0 0 1-.158.493z"></path><path fill="#009741" d="M138.922 45.172c.68 0-.676-.249-.676-.607l.27-.034-.102-.543.279-.142v-.308l.197.133c.211.584.449.385.688.622.127-.928.127-1.094.809-1.776l.213.343.178-.617.305.137-.986 1.54 2.213-1.029-.1.452.543-.035-.172.438 1.605.134c-.166.441-.137.686-.824.651l.074.538-.582.386.17.311c-.51.303-.881.409-1.438.271 0 .338.414.57 1.1.682l-.143.311-.857-.545.043.234c-.646.06-.887.035-1.4-.234l.307.479.035.367c-.717-.035-1.092-.176-1.566-.685l-.043.272c-.682-.646-.209-.239-.023-1.188z"></path><path fill="#010202" d="M145.082 50.265c-.938-.41-1.111-1.007-1.182-1.856l-.176-.021c-.588-.028-.859-.545-.963-.942l-.074-.274.268-.102.014-.007-.148-.58.123-.128.137-.129-.1-.809.383.037.406.054.016.02c.01-.382.133-.731.402-1.277l.096-.184.207.029.43.042.469-.79.201.03.639.056-.031.311-.088.885.727-1.027.242.385.031.068.791-.274-.023.459-.01.053.76-.197.088.279a.7.7 0 0 1 .025.178c-.016.333-.193.541-.475.854l.568.521-.164.231-.297.368.309.241-.199.242a2.3 2.3 0 0 1-.729.646 5 5 0 0 0 .418-.047l.396-.077-.033.41-.064.466-.096.082-.271.213.164.285-.287.148c-.334.17-.602.271-.893.304l.307.595-.35.111a3.1 3.1 0 0 1-.895.153c-.191 0-.381-.035-.563-.089l.063.335zm.221-.846c.336.199.572.266.844.273.105 0 .213-.013.34-.04l-1.084-1.101 1.002.214c.217.045.373.074.508.074.158 0 .291-.029.5-.116l-.109-.173.213-.165.148-.117h-.021c-.465.008-.908-.138-1.047-.575l-.104-.345.355-.047c.424-.063.672-.16.957-.451l-.291-.227.191-.232.307-.397-.602-.563.207-.222c.107-.108.191-.21.262-.286l-.682.18.033-.424v-.01l-.375.128-.063-.091-1.521 2.184.258-2.581-.291.484-.193-.027-.402-.044c-.193.402-.242.604-.242.839 0 .202.039.461.117.891l.109.616-.553-.293c-.184-.099-.291-.183-.375-.309l-.09.093-.104.114.191.778-.246.093c.088.163.182.236.291.229v.31l.039-.302.688.098.02.24c.084.667.074.946.252 1.178l-.045-.22zm2.822-4.861"></path><path fill="#009741" d="M143.744 48.084c-.381 0-.578-.341-.689-.722l.279-.096-.168-.69.232-.237-.064-.574.268.02c.379.519.311.556.621.726-.172-.982-.242-1.152.236-2.117l.611.067.484-.788.34.047-.203 2.046 1.121-1.609.172.271.578-.202-.035.484.895-.249c.07.212-.104.463-.576.965l.576.538-.482.614.311.244c-.404.508-.787.713-1.367.79.104.333.58.435 1.338.304l-.045.339-.469.379.139.233c-.621.314-.893.342-1.506.201l.439.451.174.338c-.711.197-1.164.197-1.807-.163l.068.301c-.922-.443-.922-.813-1.027-1.84z"></path><path fill="#010202" d="M149.457 48.648a1.23 1.23 0 0 1-.576-.212l-.094.239-.342-.447c-.162-.231-.301-.43-.301-.704q0-.187.068-.382c-.162-.116-.148-.295-.148-.353 0-.066.006-.116.006-.186a.6.6 0 0 0-.02-.161l-.094-.378h.307l.078-.221.113-.063.043-.01.248-.504.291.208.035.021c.104-.127.227-.244.398-.354l.162-.136.115.084.088-.27.326.153.35.172-.053.24-.057.208.549-.148.061.242.576.061-.148.247.252.04v.266c-.049.304-.197.405-.395.484l.133.348-.246.125-.09.044.074.173-.26.134.023.004-.16.329-.133.267-.139.029-.066.013v.167h-.309c-.107 0-.205 0-.305-.021v.318zm.154-1.008c.109.094.158.128.213.143v-.015h.01a.6.6 0 0 1-.148-.368c0-.037 0-.079.016-.105l.068-.333.326.107a.56.56 0 0 0 .262.056h.012l-.047-.113.252-.131.096-.042-.129-.346-.09-.01.133-.229-.043-.013-.016-.042-.947.265.123-.5.033-.163-.059-.034c-.207.17-.172.183-.316.59l-.191.685-.359-.609-.01-.008-.094.257h-.016c0 .012-.01.029-.01.039l.285.189-.049.145zm-.601.064c.014.017.029.046.043.052l-.191-.585c-.041.082-.055.15-.074.203zm-.588-.787.045-.069-.029.004z"></path><path fill="#009741" d="M148.422 46.917c-.105-.025 0-.272-.068-.543h.139l.094-.307.143-.07.143-.268.096.055c.035.352 0 .32.109.486.137-.486.16-.575.58-.881l.271.163.094-.306.145.073-.168.716.746-.212.031.139.309.035-.145.243.459.063c0 .105-.139.181-.486.304l.137.377-.342.17.068.175a.88.88 0 0 1-.777.035c-.045.17.168.342.508.444l-.068.136-.307.069v.108c-.34 0-.475-.037-.717-.252l.105.313v.165c-.381-.069-.555-.165-.762-.479l-.064.176c-.305-.412-.305-.512-.107-1.018z"></path><path fill="#010202" d="M141.957 59.874c-.295-.064-.783-.3-.783-.848l-.404.027-.1-.167-.203-.378-.301.139-.145-.24a2.7 2.7 0 0 1-.279-.807c-.025.082-.055.166-.07.279l-.078.369-.346-.15-.438-.2-.045-.14-.07-.289-.295.042-.021-.335v-.284a2 2 0 0 1 .061-.568l-.623.05.057-.381c.072-.536.207-.956.518-1.329l-.311-.083.447-.376c.326-.289.633-.459.953-.49a3.6 3.6 0 0 0-1.344-.459l-.32-.042.064-.312.129-.65.301.073c.912.196 1.756.595 2.533 1.159.211-.18.502-.233.721-.229.066 0 .156 0 .234.019l.271.035v.294l.559.111.063.157.055.144.795.249-.236.346-.217.304c.32.146.592.388.928.835l.129.163-.104.175-.191.34.408.849-.078.144-.342.619-.178-.139-.262.175-.285.181-.039.824-.404-.165-.088-.035-.309 1.119zm-.166-1.136c-.006.076-.006.148-.006.208.023.21-.012.21.08.234l.309-1.127.322.123.016.012.014-.272.123-.09.158-.093-.756-1.079.445-.419.922.708-.262-.541.074-.138.178-.303c-.488-.572-.563-.503-1.416-.764l-.602-.154.486-.373a.95.95 0 0 1 .395-.19l-.045-.104-.043-.119-.727-.155v-.22c-.166.019-.236.063-.271.147l-.146.38-.256-.202-.197.351c-.475-.148-.771-.247-.963-.242-.029 0-.061 0-.088.016l.123.023-.475.388c-.375.313-.521.526-.621.908l1.393-.611-.646.907c-.254.38-.307.481-.316.87l.156-.033.074.274.025.109c.172-.391.436-.667.863-.685.039 0 .064.014.078.014l.396.042-.145.361a1.5 1.5 0 0 0-.104.494c0 .146.035.296.104.462l.287-.134.148.249.242.444.713-.048zm-.891-4.821.188-.236z"></path><path fill="#009741" d="M140.91 53.917c.129-.349.514-.378.844-.349v.281l.646.136.113.27.539.181-.158.244c-.553.131-.553.028-.824.234.885.234 1.096.234 1.707 1.019l-.27.477.404.861-.168.31-1.436-1.099.922 1.337-.41.271-.029.54-.414-.163-.307 1.127c-.443-.173-.646-.173-.576-.891l-.553.034-.342-.624-.307.141c-.271-.508-.34-.913-.139-1.458-.375-.046-.645.331-.779 1.021l-.314-.136-.139-.555-.229.037c-.033-.685.035-.92.365-1.399l-.543.242-.34.037c.098-.724.275-1.104.813-1.54l-.262-.069c.717-.617 1.027-.45 1.941-.181-.48-.475-1.227-1.115-2.494-1.295l.07-.341c.962.212 1.855.654 2.669 1.3"></path><path fill="#010202" d="m144.434 63.287-.133-.973-.602.197.049-.471.045-.486-.563-.471.152-.174-.404.23-.135-.304-.234-.538.1-.138.514-.756-.254-.66.154-.142c.486-.464.848-.673 1.268-.787l-.08-.035-.053-.101-.33-.642.408-.072.494-.084.217-.323.148-.015.453-.013.035-.331h.271c.35 0 .793.067 1.08.374a7.8 7.8 0 0 1 3.068-.942l.332-.027v1.038h-.309c-.686 0-1.246.156-1.721.375.389.063.77.286 1.135.727l.385.448-.35.035c.318.463.42.962.414 1.6v.359l-.361-.062-.359-.061c.012.077.016.163.016.247 0 .234-.045.471-.096.771l-.053.311-.316-.079h-.014l-.193.449-.113.049-.734.285-.023-.414a3 3 0 0 0-.1-.544c-.059.375-.213.72-.479 1.079l-.18.264-.262-.191-.059-.057-.449.559-.191-.043-.229-.051c-.105.623-.627.814-.977.84l-.348.086zm.431-1.418.133.984c.191-.025.119.025.217-.549l.004-.369.371.088.385.084.578-.727.242.188.043.033c.158-.286.223-.513.223-.79 0-.116-.02-.244-.039-.387l-.061-.39.387.031c.506.061.777.444.912.979l.178-.451.211.049c.021-.131.031-.231.031-.329 0-.247-.055-.42-.252-.79l.434-.392.498.313c-.045-.515-.176-.799-.611-1.24l-.449-.458.287-.027c-.139-.084-.268-.104-.439-.109-.234 0-.561.063-1.006.126l-.168-.43-.246.156-.104-.388c-.012-.105-.158-.189-.383-.229l-.033.273-.262.009-.566.024-.184.284c.168.047.291.111.475.296l.455.441-.635.076c-1.02.146-1.123.102-1.791.672l.219.566-.1.142-.381.548 1.314-.755.385.474-1.027 1.123.326.282-.01.165-.021.175.416-.138zm2.053-4.876.301-.084z"></path><path fill="#009741" d="M146.918 56.983c-.105-.365-.543-.471-.963-.471l-.021.311-.721.042-.201.299-.623.104.139.268c.652.236.652.146.918.411-1.057.142-1.293.142-2.111.885l.242.622-.623.881.17.379 1.785-1.026-1.238 1.362.449.379-.07.647.504-.178.188 1.34c.508-.135.744-.068.777-.918l.58.129.512-.646.309.238c.402-.578.518-1.024.402-1.675.42.042.646.481.717 1.304l.35-.136.236-.574.271.057c.145-.74.145-1.021-.203-1.633l.59.378.402.059c0-.813-.143-1.26-.721-1.838l.346-.035c-.725-.82-1.09-.679-2.219-.506.65-.459 1.602-1.103 3.037-1.103v-.407a8 8 0 0 0-3.21 1.051"></path><path fill="#010202" d="M153.609 56.506c-.426-.086-.762-.255-1.031-.533l-.115.271-.314-.479c-.156-.261-.262-.491-.291-.729a3.3 3.3 0 0 0-.453.916l-.086.319-.305-.117-.553-.21.094-.272c.258-.758.691-1.417 1.264-1.997a.8.8 0 0 1-.1-.418c0-.148.031-.287.061-.407l.078-.257.242.026.137-.422.16-.04.104-.037.336-.707.311.313.178.177c.174-.233.404-.429.791-.631l.168-.111.16.121.242.184.756-.234.123.089.533.373-.164.17.109.225.107.239.771.163-.262.377-.006.014.863.393-.168.293c-.088.184-.281.588-.738.563h-.061l-.021.314-.182.069-.262.099.094.261-.271.113c-.166.069-.33.121-.486.146l.375.136-.234.333-.246.353-.146.009-.203.019-.043.237-.268-.016c-.246 0-.469-.036-.656-.104l-.064.48zm-.824-1.296c.188.317.311.464.563.569l-.096-.251.51-.331c.285.279.365.339.646.375l.025-.164.162-.015c-.229-.173-.365-.393-.375-.676 0-.032 0-.055.01-.084l.043-.424.387.189c.219.096.375.139.531.139a1 1 0 0 0 .203-.027l-.094-.257.285-.111.355-.128.055-.597.338.065c.127.027.227.035.275.035l-.855-.398.145-.229-.178-.04-.064-.14-.045-.086-.941.476-.359-.494.568-.569-.309.099-.117-.086-.207-.157c-.504.321-.449.377-.768 1.085l-.25.625-.311-.606a1.4 1.4 0 0 1-.1-.324h-.012l-.088.021-.197.604-.188-.027c.006.111.016.111.041.136l-.141.274.141-.274.398.197-.252.231.262.225c-.133.27-.23.469-.285.619z"></path><path fill="#009741" d="M152.236 53.681c-.262-.142-.227-.481-.162-.753l.23.032.178-.501.242-.076.203-.438.168.173c.045.5-.025.475.104.735.307-.735.342-.908 1.063-1.327l.375.284.754-.247.232.173-1.09 1.094 1.227-.624.174.387.479.099-.201.307.883.409c-.203.341-.203.511-.824.375l-.023.439-.553.215.104.271c-.48.207-.826.175-1.264-.028-.029.262.207.543.783.741l-.166.239-.443.034-.037.21c-.541-.037-.754-.104-1.129-.482l.178.482-.045.302c-.576-.125-.889-.339-1.148-.847l-.113.242c-.436-.687-.271-.921.113-1.683-.449.373-1.102.925-1.406 1.948l-.271-.101c.266-.788.739-1.475 1.385-2.084"></path><path fill="#010202" d="m156.891 60.387-.281.146-.146-.121-.271-.214-.197.202-.213-.161a1.5 1.5 0 0 1-.408-.424q.002.054.004.091l.074.414-.414-.052-.4-.054-.074-.104-.107-.146-.207.119-.152-.274a2.4 2.4 0 0 1-.248-.676l-.469.167-.088-.313a2.3 2.3 0 0 1-.123-.695c0-.15.018-.299.063-.438l-.297.046.268-.522c.139-.321.316-.531.51-.671a3 3 0 0 0-.316-.021q-.347-.001-.734.089l-.297.071-.068-.284-.154-.609.326-.049a6.5 6.5 0 0 1 1.008-.081c.443 0 .918.044 1.371.157.158-.261.459-.392.721-.442l.264-.053.063.209.445-.086.104.097.104.096.789-.063-.117.417-.066.24c.303.032.584.15.988.365l.178.105-.029.209-.045.31.604.506-.016.155-.064.679-.207-.064-.15.22-.154.218.203.7h-.429l.139.979h-.355c-.074 0-.143.01-.213.01h-.078c-.235-.001-.491-.143-.639-.4m.464-.513c.033.147.078.227.092.262l-.117-.955h.307l-.055-.2.078-.11.064-.09-.902-.606.246-.559.748.21-.227-.189.021-.173.039-.27c-.32-.152-.469-.185-.656-.185-.156 0-.354.02-.66.086l-.607.099.271-.54a.77.77 0 0 1 .246-.313l-.088-.076-.66.119-.057-.148c-.068.049-.088.091-.088.105v.399l-.297-.075-.053.363c-.375.047-.592.047-.734.072l-.275.515c-.158.284-.215.468-.215.677 0 .036 0 .081.012.134l.951-1.069-.242 1.138q-.064.25-.063.397c0 .108.02.195.063.329l.119-.077.135.188c.043-.331.217-.646.564-.727l.354-.074.023.349c.029.313.078.506.262.695l.197-.185.207.161.32.259.572-.284zm-2.312-3.534.08-.289z"></path><path fill="#009741" d="M155.043 56.34c0-.261.271-.438.58-.508l.068.212.553-.111.191.17.494-.023-.074.236c-.42.274-.443.197-.588.481.789-.144.951-.177 1.717.231l-.072.483.605.506-.023.308-1.506-.411 1.16.789-.236.341.139.442h-.371l.133.979c-.414 0-.592.076-.754-.5l-.416.204-.469-.373-.211.201c-.4-.31-.543-.647-.574-1.097-.309.069-.42.449-.309 1.064l-.271-.037-.275-.366-.17.092c-.27-.519-.27-.753-.168-1.229l-.34.382-.275.093c-.168-.575-.135-.918.139-1.426l-.238.037c.377-.762.648-.716 1.49-.79-.537-.21-1.361-.479-2.383-.242l-.064-.276a6 6 0 0 1 2.518.138"></path><path fill="#010202" d="m154.059 64.398-.16-.141-.211.17-.184-.254a2 2 0 0 1-.346-.553l-.381.334-.182-.33c-.207-.365-.32-.699-.32-1.057v-.037l-.258.131.129-.615c.057-.322.168-.56.326-.731a3.1 3.1 0 0 0-.979.321l-.275.133-.137-.269-.287-.572.301-.117a6.1 6.1 0 0 1 2.295-.443c.1-.32.371-.5.598-.606l.23-.119.145.198.387-.198.141.091.129.074.701-.235v.664c.07-.007.145-.017.211-.017.234 0 .469.046.791.123l.207.055.025.202.039.318.686.39.025.148.078.673-.213-.01-.094.221-.107.236.381.648-.432.076h-.01l.371.9-.342.09c-.156.037-.291.086-.469.086-.211.008-.371-.098-.523-.252l-.227.191-.178-.08-.297-.129-.139.244-.252-.115a2 2 0 0 1-.475-.303c.012.021.018.047.025.068l.162.363-.4.061-.406.063zm2.613-.869c.09.131.129.193.164.221l-.375-.91.314-.063-.1-.168.074-.133.031-.08-.992-.373.117-.594.805.035-.275-.148-.016-.147-.039-.271a2 2 0 0 0-.449-.059c-.211 0-.379.068-.84.259l-.547.242.133-.59a1 1 0 0 1 .139-.351l-.094-.055-.563.292-.123-.183c-.051.05-.078.104-.07.129v.037l-.295.062.016-.312-.016.312.295-.062.09.39-.281-.018.035.318c-.375.148-.592.203-.734.281l-.125.494a2 2 0 0 0-.064.484c0 .123.016.232.045.359l.141-.242.566.143c.014.383.023.494.172.721l.113-.088.143.121v-.111c-.008-.27.096-.549.352-.705l.332-.189.113.377c.088.279.191.438.408.584l.123-.211.252.111.379.164.467-.377z"></path><path fill="#009741" d="M153.672 60.681c-.063-.313.184-.511.455-.646l.133.204.479-.24.23.138.451-.138v.204c-.34.375-.377.312-.451.619.723-.309.865-.38 1.674-.177l.07.483.686.375.035.302-1.545-.07 1.307.486-.166.375.236.41-.375.068.375.92c-.41.105-.553.199-.854-.307l-.342.27-.543-.234-.139.234c-.449-.207-.686-.48-.82-.912-.238.127-.279.537-.037 1.082l-.271.041-.346-.313-.172.139c-.33-.443-.404-.65-.404-1.164l-.242.439-.238.207c-.305-.541-.334-.881-.201-1.457l-.207.09c.174-.779.479-.818 1.27-1.091-.578-.057-1.412-.131-2.363.343l-.135-.271a5.9 5.9 0 0 1 2.45-.409"></path><path fill="#010202" d="M151.496 67.338c-.197-.074-.617-.268-.617-.723h-.266l-.084-.172-.113-.244-.246.105-.119-.277a2.5 2.5 0 0 1-.148-.432l-.133.422-.35-.293-.291-.246-.021-.111-.02-.152h-.281l.025-.322c.008-.234.037-.439.098-.611l-.514-.066.084-.326c.084-.385.229-.678.451-.936l-.264-.084.479-.357c.217-.166.426-.277.646-.32a2.9 2.9 0 0 0-.85-.363l-.316-.076.09-.303.158-.539.287.08c.719.2 1.371.612 1.934 1.088a.9.9 0 0 1 .43-.104c.129 0 .246.012.355.049l.275.061-.029.221.404.109.055.162.029.098.643.275-.242.313-.148.18c.229.141.42.355.629.688l.123.174-.123.176-.178.242.27.684-.094.141-.375.516-.148-.141-.156.078-.248.145-.123.764-.363-.248-.293.836zm-.652-1.664.158.33h.588l-.07.369c-.004.051-.018.098-.018.135l.27-.807.236.154.021-.111.137-.07.109-.063-.498-.857.469-.375.479.449-.074-.199.096-.141.143-.188c-.32-.438-.375-.395-1.016-.633l-.51-.174.41-.35a.65.65 0 0 1 .307-.156l-.018-.066-.602-.178.025-.15c-.074.006-.09.025-.107.053l-.193.332-.209-.201-.189.266c-.309-.137-.516-.223-.658-.25l-.408.279c-.262.195-.385.318-.484.533l1.289-.516-.746.926c-.207.266-.266.348-.305.592h.127l.029.145a.82.82 0 0 1 .623-.346h.084l.404.057-.158.365a1 1 0 0 0-.105.439c0 .074.012.141.025.223l.223-.088zm.273-3.182.213-.219z"></path><path fill="#009741" d="M151.117 62.492c.143-.238.447-.238.715-.17l-.033.203.508.139.068.234.41.176-.129.166c-.488.07-.488-.027-.682.141.682.242.859.271 1.293.922l-.266.375.266.684-.172.238-1.053-.99.646 1.125-.385.203-.07.447-.295-.211-.307.893c-.34-.176-.518-.176-.414-.748h-.408l-.238-.512-.242.104c-.201-.451-.201-.781-.023-1.201-.285-.029-.518.244-.695.783l-.197-.164-.074-.41h-.201c.039-.549.098-.723.404-1.098l-.436.174-.311-.035c.143-.555.311-.813.746-1.129l-.203-.066c.611-.439.85-.311 1.57 0-.371-.402-.914-.992-1.871-1.226l.068-.247c.751.21 1.435.655 2.011 1.2"></path><path fill="#010202" d="M140.422 55.816c0 .035-.006.074-.006.128 0 .193.016.438.016.72 0 .117-.01.256-.01.384l-.592.08c-.096-.305-.281-.682-.391-1.05a3 3 0 0 1-.43.21l-.957.38.588-.837c0-.01.463-.659.729-1.005.094-.107.086-.14.164-.209a8.5 8.5 0 0 1 1.188-1.597l.252-.257.211.291c.012 0 .035.021.268.047a.96.96 0 0 1 .713.543c.123.242.58 1.221.588 1.962 0 .225-.037.471-.242.664l-.258.222-.203-.276c-.172-.256-.408-.628-.605-.936v.055c.01.761.156.947.521 1.729l-.514.318c-.516-.669-.792-1.023-1.03-1.566m-.301 1.212.287-.091zm-.191-1.755a.85.85 0 0 1 .453-.401l.295-.124.105.294c.02.054.039.096.049.141q.01-.272.045-.626c.004-.06.1-.351.334-.346.49.143.439.38.721.703q.075.108.141.218a6.7 6.7 0 0 0-.445-1.209c-.107-.186-.146-.175-.291-.22-.068-.015-.197-.015-.34-.068-.213.239-.598.71-.953 1.335l-.045.086-.043.017a3 3 0 0 0-.1.119l-.01.007a.3.3 0 0 1 .084.074"></path><path fill="#009741" d="M140.121 57.028c-.166-.516-.541-1.229-.449-1.571.035-.037-.092.272-.779.55 0 0 .814-1.165.891-1.196a8 8 0 0 1 1.158-1.57c.203.263.686 0 .957.541.141.279.855 1.878.41 2.264-.41-.587-1.098-1.789-1.127-1.471-.143 1.471.07 1.67.506 2.62-.672-.878-.875-1.149-1.195-2.045-.575.238-.304.927-.372 1.878"></path><path fill="#010202" d="M134.9 55.729c0-.54.434-.957.996-.957v.616c-.279.015-.379.128-.391.342 0 .257.232.553.391.553.141 0 .365-.29.365-.59 0-.18-.123-.291-.365-.305v-.616c.488 0 .977.358.977.92 0 .523-.314 1.152-.977 1.2-.685-.046-.992-.668-.996-1.163"></path><path fill="#009741" d="M135.896 55.079c.365 0 .684.24.684.613 0 .41-.283.896-.684.896-.42 0-.689-.487-.689-.859s.27-.65.689-.65"></path><path fill="#010202" d="M136.332 55.659c0-.588.475-1.049 1.09-1.049v.611c-.336.018-.459.15-.48.438 0 .273.309.656.48.656.188 0 .523-.385.523-.689 0-.245-.188-.396-.523-.403v-.611c.559 0 1.131.375 1.131 1.015-.014.591-.424 1.26-1.131 1.3-.707-.042-1.067-.723-1.09-1.268"></path><path fill="#009741" d="M137.42 54.913c.451 0 .826.27.826.711 0 .453-.375.993-.826.993-.438 0-.773-.541-.773-.959-.001-.436.294-.745.773-.745"></path><path fill="#010202" d="M142.209 55.42c0-.578.498-.984 1.051-.984v.607c-.316.028-.42.141-.439.377a.94.94 0 0 0 .158.457c.107.143.229.202.281.194.178 0 .453-.361.453-.65 0-.223-.162-.36-.453-.377v-.607c.543 0 1.07.383 1.07.984-.021.533-.352 1.216-1.07 1.259-.68-.051-1.033-.707-1.051-1.26"></path><path fill="#009741" d="M143.26 54.74c.41 0 .76.271.76.68 0 .412-.307.955-.76.955-.404 0-.746-.543-.746-.955 0-.407.306-.68.746-.68"></path><path fill="#010202" d="M135.309 51.395c0-.572.523-.922 1.09-.922v.608c-.389.024-.469.133-.477.314 0 .203.25.508.477.508.209 0 .48-.34.48-.508 0-.157-.129-.303-.48-.314v-.608c.543 0 1.088.325 1.088.922-.016.519-.408 1.086-1.088 1.121-.655-.028-1.075-.581-1.09-1.121"></path><path fill="#009741" d="M136.398 50.772c.441 0 .791.244.791.622 0 .341-.35.811-.791.811s-.781-.433-.781-.811.305-.622.781-.622"></path><path fill="#010202" d="M134.6 52.96c0-.596.543-.921 1.084-.921v.611c-.35.014-.479.161-.479.31 0 .214.252.552.514.552.211 0 .508-.373.514-.584-.006-.128-.117-.255-.549-.276v-.612c.533 0 1.146.257 1.156.889-.021.547-.441 1.154-1.121 1.194-.699-.023-1.112-.631-1.119-1.163"></path><path fill="#009741" d="M135.684 52.353c.484 0 .859.192.859.575s-.375.891-.824.891c-.484 0-.818-.48-.818-.857-.001-.37.333-.609.783-.609"></path><path fill="#010202" d="M136.297 52.65c0-.611.557-.95 1.123-.95v.612c-.389.021-.502.13-.512.338 0 .214.256.548.512.548.258 0 .559-.38.559-.58 0-.175-.143-.285-.559-.306V51.7c.539 0 1.16.271 1.16.918-.02.556-.453 1.162-1.16 1.191-.695-.029-1.109-.623-1.123-1.159"></path><path fill="#009741" d="M137.42 52.007c.484 0 .854.198.854.611 0 .379-.369.885-.854.885-.479 0-.813-.473-.813-.853 0-.404.334-.643.813-.643"></path><path fill="#010202" d="M137.564 54.161c0-.569.514-.921 1.053-.921v.603c-.342.029-.432.133-.449.317.01.183.256.509.449.509.217 0 .479-.326.479-.549 0-.145-.104-.248-.479-.277v-.603c.518 0 1.09.279 1.09.882-.02.543-.41 1.135-1.09 1.159-.672-.034-1.041-.635-1.053-1.12"></path><path fill="#009741" d="M138.617 53.539c.443 0 .783.208.783.583 0 .383-.34.855-.783.855-.439 0-.746-.473-.746-.816 0-.381.305-.622.746-.622"></path><path fill="#010202" d="M133.908 54.358c.01-.603.549-.953 1.092-.953v.615c-.348.019-.471.141-.48.339 0 .223.254.555.516.555.24 0 .514-.369.518-.585-.004-.124-.156-.301-.553-.309v-.615c.563 0 1.148.296 1.16.922-.012.538-.414 1.16-1.125 1.199-.7-.022-1.118-.628-1.128-1.168"></path><path fill="#009741" d="M135 53.715c.479 0 .855.246.855.614 0 .378-.35.893-.822.893-.479 0-.818-.481-.818-.863-.002-.398.34-.644.785-.644"></path><path fill="#010202" d="M135.65 54.161c0-.569.521-.921 1.096-.921v.603c-.4.029-.463.133-.482.317 0 .213.26.546.482.546.195 0 .504-.379.514-.585-.01-.076-.164-.278-.514-.278v-.603c.533 0 1.102.279 1.125.882-.023.558-.449 1.159-1.125 1.194-.678-.022-1.076-.62-1.096-1.155"></path><path fill="#009741" d="M136.746 53.539c.443 0 .811.241.811.583 0 .383-.367.891-.811.891-.449 0-.789-.474-.789-.852 0-.381.305-.622.789-.622"></path><path fill="#010202" d="M150.619 52.939c-.33-.121-.59-.231-.785-.441l-.113.267-.307-.55c-.191-.354-.326-.617-.326-.934.012-.289.115-.535.283-.832l-.086-.075c-.123-.092-.168-.258-.156-.321.01-.257.113-.463.113-.71 0-.027 0-.064-.006-.089l-.023-.431.398.113.201-.457.18-.026.129-.018.42-.687.27.338 1.27-.508.143.151.068.058.049-.109.588.101.084 1.328 1.344-.093v.368l.262.076-.035.188.438.166-.104.274c-.166.345-.42.416-.822.485l.102.664-.26.072-.342.091.07.312-.283.073a2.4 2.4 0 0 1-.602.094h-.045a1 1 0 0 1 .123.057l.326.163-.211.284-.264.368h-.412l-.041.264-.305-.054a2.2 2.2 0 0 1-.885-.382l-.107.506zm.32-1.333c.256.307.502.531.822.665l.016-.126h.268c-.213-.185-.352-.398-.369-.688 0-.089.018-.155.039-.228l.117-.377.346.219c.213.142.381.201.602.201.057 0 .109 0 .154-.013l-.055-.287.281-.077.346-.104-.113-.711.297-.051c.045-.009.088-.009.123-.017l-.035-.015.023-.135-.049-.017v-.168l-1.314.101-.066-1.041-.203-.199-.236-.247-1.316.53h-.017l-.107.193-.152.015-.105.013-.279.636-.129-.044c-.021.146-.055.265-.074.341l.385.38-.117.197c-.227.38-.316.57-.316.719l.068-.181.287.608c.217.397.217.421.414.505l-.27-1.479zm-1.466-1.479-.213.218zl.088-.298z"></path><path fill="#009741" d="M149.473 50.127c-.133-.039.113-.435.07-.894l.246.074.23-.547.285-.035.268-.447.133.176 1.305-.512.365.379.246-.515.104 1.634 1.334-.092v.269l.475.132-.646-.03.75.273c-.066.171-.307.24-.895.344l.113.681-.623.173.074.301c-.521.142-.896.106-1.297-.165-.109.307.156.62.715.879l-.172.254h-.51l-.033.192c-.588-.105-.963-.446-1.305-.841l.105.543-.068.298c-.578-.231-.688-.231-.953-.818l-.105.24c-.402-.748-.373-.913.066-1.665z"></path><path fill="#010202" d="M147.232 60.398c0-.622.588-.978 1.189-.978v.613c-.42.016-.582.188-.582.365 0 .254.285.619.582.619.301 0 .578-.365.578-.619 0-.168-.203-.362-.578-.365v-.613c.566 0 1.17.341 1.188.978-.01.578-.447 1.208-1.188 1.239-.733-.03-1.177-.66-1.189-1.239"></path><path fill="#009741" d="M148.422 59.726c.473 0 .889.271.889.686 0 .41-.371.919-.889.919-.508 0-.895-.509-.895-.919 0-.415.387-.686.895-.686"></path><path fill="#010202" d="M147.129 58.971c0-.598.559-.917 1.119-.917v.613c-.396.018-.508.147-.508.304 0 .202.285.548.508.555.262-.007.52-.333.52-.555 0-.138-.158-.293-.52-.304v-.613c.539 0 1.109.305 1.121.917 0 .536-.418 1.14-1.121 1.157-.664-.027-1.103-.604-1.119-1.157"></path><path fill="#009741" d="M148.25 58.357c.443 0 .824.237.824.612 0 .38-.346.851-.824.851-.439 0-.814-.471-.814-.851 0-.374.339-.612.814-.612"></path><path fill="#010202" d="M146.541 62.02c0-.57.533-.858 1.021-.858v.609c-.332.018-.41.117-.41.25 0 .172.223.432.41.432.178 0 .414-.285.414-.477 0-.063-.088-.199-.414-.205v-.609c.488 0 1.006.264 1.021.813-.018.508-.371 1.059-1.021 1.096-.615-.028-1.011-.557-1.021-1.051"></path><path fill="#009741" d="M147.563 61.465c.404 0 .723.207.723.51 0 .348-.316.789-.723.789-.41 0-.715-.404-.715-.744 0-.348.304-.555.715-.555"></path><path fill="#010202" d="M148.93 59.422c0-.648.598-1.026 1.199-1.026v.614c-.42.02-.582.165-.586.414 0 .238.289.612.586.612.32 0 .613-.395.613-.648 0-.175-.193-.371-.613-.377v-.614c.607 0 1.215.343 1.225.99-.01.58-.465 1.234-1.225 1.259-.725-.028-1.178-.649-1.199-1.224"></path><path fill="#009741" d="M150.129 58.704c.514 0 .918.267.918.681 0 .412-.375.95-.918.95-.52 0-.895-.515-.895-.914.002-.45.377-.717.895-.717"></path><path fill="#010202" d="M150.264 60.681c0-.58.537-.884 1.064-.884v.615c-.375.021-.439.102-.459.27 0 .163.246.48.484.48.166 0 .443-.341.443-.518 0-.086-.105-.229-.469-.232v-.615c.502 0 1.064.267 1.08.847-.021.518-.4 1.083-1.057 1.126a1.13 1.13 0 0 1-1.086-1.089"></path><path fill="#009741" d="M151.33 60.101c.434 0 .783.214.783.543 0 .348-.352.821-.76.821-.443 0-.779-.447-.779-.785 0-.366.305-.579.756-.579" data-source="https://football-logos.cc"></path><path fill="#010202" d="M148.895 61.361c0-.575.543-.884 1.059-.884v.614c-.359.028-.436.118-.439.271 0 .165.256.48.439.48.236 0 .482-.3.482-.513 0-.089-.104-.231-.482-.238v-.614c.518 0 1.074.265 1.094.852-.02.54-.434 1.101-1.094 1.122-.64-.029-1.028-.564-1.059-1.09"></path><path fill="#009741" d="M149.953 60.786c.447 0 .789.205.789.544 0 .381-.342.82-.789.82-.41 0-.74-.439-.74-.789-.002-.37.305-.575.74-.575"></path><path fill="#010202" d="M148.174 62.291c.016-.537.514-.789.934-.789v.606c-.275.023-.32.084-.32.184 0 .082.178.303.32.303.105 0 .307-.234.307-.34 0-.035-.043-.123-.307-.146v-.606c.42 0 .908.23.914.752-.023.445-.338.918-.914.957a.986.986 0 0 1-.934-.921"></path><path fill="#009741" d="M149.107 61.805c.336 0 .613.17.613.451 0 .27-.277.643-.613.643-.35 0-.615-.342-.615-.605 0-.319.266-.489.615-.489"></path><path fill="#010202" d="M146.609 63.621c0-.598.564-.92 1.133-.928v.61c-.4.02-.52.158-.52.318 0 .217.252.545.52.545.26 0 .508-.328.508-.545 0-.135-.158-.311-.508-.318v-.61c.521.008 1.109.311 1.119.928-.01.531-.424 1.133-1.119 1.162-.701-.029-1.121-.631-1.133-1.162"></path><path fill="#009741" d="M147.742 63.004c.434 0 .822.236.822.617 0 .373-.346.855-.822.855-.484 0-.824-.482-.824-.855 0-.381.338-.617.824-.617"></path><path fill="#010202" d="M147.914 57.843c0-.62.578-.983 1.193-.983v.611c-.42.004-.576.18-.576.373 0 .298.275.652.576.652.275 0 .613-.406.613-.678 0-.168-.178-.343-.613-.348v-.611c.576 0 1.205.292 1.225.958-.02.607-.494 1.262-1.225 1.297-.734-.028-1.193-.675-1.193-1.271"></path><path fill="#009741" d="M149.107 57.164c.504 0 .914.247.914.653 0 .438-.41.99-.914.99-.521 0-.889-.516-.889-.965.001-.4.366-.678.889-.678"></path><path fill="#010202" d="M152.211 60.459a.75.75 0 0 1-.67-.41.5.5 0 0 1-.096-.286c.016-.299.213-.504.455-.62a.86.86 0 0 1 .414-.129c.207-.007.449.119.533.316.068.124.1.243.1.375 0 .238-.109.532-.391.66a.7.7 0 0 1-.336.093zm-.137-.696c.025.046.094.093.139.088.016 0 .023-.01.078-.037.006 0 .045-.03.045-.108a.14.14 0 0 0-.021-.077.2.2 0 0 0-.104.044l-.168-.252.115.275c-.096.047-.096.058-.096.065h.012z"></path><path fill="#009741" d="M152.043 59.422c.191-.146.439-.146.543.065.104.166.068.51-.178.613-.242.138-.508 0-.609-.206-.106-.168 0-.37.244-.472"></path><path fill="#010202" d="M138.893 49.983c0-1.396 1.242-2.241 2.803-2.241v.605c-1.387.02-2.186.659-2.186 1.637 0 1.041 1.006 2.369 2.219 2.375 1.201-.007 2.252-1.44 2.252-2.43 0-.958-.928-1.57-2.285-1.582v-.605c1.494 0 2.883.737 2.893 2.187-.014 1.33-1.189 2.998-2.857 3.03-1.654-.022-2.83-1.606-2.839-2.976"></path><path fill="#BE1823" d="M141.686 48.044c1.438 0 2.605.681 2.605 1.885 0 1.16-1.125 2.722-2.563 2.722-1.436 0-2.525-1.461-2.525-2.658s1.022-1.949 2.483-1.949"></path><path fill="#010202" d="M135.246 45.39c0-.825.512-1.755 1.523-1.76.213 0 .432.042.646.126q.475-.187.859-.186c1.066.005 1.371 1.024 1.371 1.75-.02 1.054-.928 2.189-2.23 2.206-1.247-.017-2.161-1.105-2.169-2.136m.606 0c0 .668.707 1.527 1.564 1.527.902 0 1.619-.882 1.619-1.598-.023-.656-.201-1.14-.762-1.14-.176 0-.424.049-.734.183l-.123.058-.123-.058a1.3 1.3 0 0 0-.523-.121c-.561 0-.915.533-.918 1.149m1.564-1.303.123-.284z"></path><path fill="#BE1823" d="M137.42 44.087c1.502-.652 1.922.34 1.922 1.232s-.824 1.905-1.922 1.905c-1.055 0-1.873-.985-1.873-1.835 0-.893.68-1.814 1.873-1.302"></path><path fill="#010202" d="M145.316 55.952c-.221-.266-.27-.602-.27-.915 0-.585.193-1.202.232-1.482.014-.035.014-.069.014-.119.012-.314-.197-.827-.201-1.244 0-.119.016-.278.139-.43a1 1 0 0 1 .686-.271c.424-.004.908.305 1.176 1.008.01 0 .01 0 .039.018a.6.6 0 0 0 .191.086c.184.071.439.128.701.217.488.161 1.145.491 1.154 1.276-.01 1.286-1.154 2.28-2.803 2.28h-.025c-.445-.002-.814-.152-1.033-.424m.387-3.761c-.012.212.191.748.201 1.244 0 .067 0 .156-.02.224-.064.356-.236.914-.227 1.377.045.491.055.693.717.729 1.42-.007 2.18-.78 2.189-1.67 0-.358-.268-.525-.746-.693-.453-.197-.986-.149-1.283-.671l.275-.11-.275.11c-.25-.572-.479-.622-.621-.622a.33.33 0 0 0-.211.049z"></path><path fill="#BE1823" d="M146.813 52.618c.207.483 2.059.342 2.059 1.477 0 1.088-.957 1.984-2.496 1.984-1.574 0-.889-1.824-.785-2.469.104-.508-.342-1.363-.145-1.638.214-.2.929-.447 1.367.646"></path><path fill="#010202" d="M139.844 54.94c-.518-.068-.773-.532-.783-.925 0-.015 0-.047.01-.094.016-.454.443-.693.814-.693.033 0 .088 0 .137.012.4.035.82.271.855.762 0 .037 0 .059-.018.093a.99.99 0 0 1-.932.857c-.042 0-.042-.012-.083-.012m.086-.606c.117.019.33-.214.33-.289v-.044s-.059-.129-.307-.158l.033-.304-.033.304h-.068c-.223.029-.197.029-.213.118v.054c-.01.128.133.318.213.318z"></path><path fill="#BE1823" d="M139.988 53.539c.342.029.611.241.576.521-.033.27-.34.619-.68.582-.342-.031-.543-.422-.51-.681.001-.316.263-.458.614-.422"></path><path fill="#010202" d="M141.518 53.715c0-.576.488-.99 1.063-.99v.613c-.316.015-.432.138-.451.378 0 .12.064.305.17.429.098.131.213.19.281.19.174-.005.447-.358.447-.654-.004-.212-.133-.329-.447-.343v-.614c.518 0 1.055.335 1.055.955-.008.53-.33 1.223-1.055 1.26-.679-.041-1.038-.674-1.063-1.224"></path><path fill="#BE1823" d="M142.58 53.03c.42 0 .754.24.754.649 0 .414-.311.961-.754.961-.406 0-.752-.521-.752-.927 0-.403.317-.683.752-.683"></path><path fill="#010202" d="M142.93 52.69c0-.629.576-.99 1.189-.99v.613c-.42.013-.578.186-.578.377 0 .247.275.615.578.615.279 0 .609-.413.609-.654 0-.163-.178-.325-.609-.338V51.7c.576 0 1.209.297 1.227.95-.018.589-.492 1.236-1.227 1.267-.736-.03-1.18-.661-1.189-1.227"></path><path fill="#BE1823" d="M144.119 52.007c.508 0 .918.239.918.644 0 .41-.41.959-.918.959-.52 0-.889-.508-.889-.92 0-.41.37-.683.889-.683"></path><path fill="#010202" d="M144.332 49.93c0-.614.543-.992 1.154-.992v.603c-.416.026-.543.18-.553.39 0 .242.285.615.586.615.238 0 .588-.417.588-.652-.01-.161-.188-.333-.621-.353v-.603c.572 0 1.215.296 1.223.955-.02.584-.482 1.224-1.189 1.253-.733-.022-1.186-.642-1.188-1.216"></path><path fill="#BE1823" d="M145.486 49.233c.502 0 .928.245.928.659 0 .407-.426.95-.895.95-.508 0-.893-.506-.893-.913.001-.412.351-.696.86-.696"></path><path fill="#010202" d="M144.834 48.044c0-.615.553-.992 1.154-.992v.616c-.404.02-.531.165-.543.377 0 .249.281.622.578.622.279 0 .586-.414.586-.653 0-.16-.168-.331-.621-.346v-.616c.588 0 1.215.303 1.232.96-.02.563-.443 1.23-1.197 1.258-.72-.016-1.169-.648-1.189-1.226"></path><path fill="#BE1823" d="M145.99 47.362c.521 0 .928.247.928.649 0 .407-.377.959-.895.959-.504 0-.879-.519-.879-.928.001-.41.342-.68.846-.68"></path><path fill="#010202" d="M135.957 47.973c.01-.589.566-.92 1.129-.92v.616c-.395.02-.518.161-.518.306 0 .195.295.553.518.553.238 0 .508-.357.508-.583 0-.126-.123-.257-.508-.275v-.616c.508 0 1.111.269 1.121.891-.01.527-.416 1.16-1.121 1.194-.674-.036-1.106-.599-1.129-1.166"></path><path fill="#BE1823" d="M137.086 47.362c.449 0 .818.202.818.58 0 .379-.35.894-.818.894-.439 0-.824-.489-.824-.864 0-.363.345-.61.824-.61"></path><path fill="#010202" d="M137.189 50.741c0-.563.502-.958 1.086-.958v.613c-.371.022-.475.17-.475.346 0 .207.242.519.475.519.264 0 .523-.338.523-.55 0-.137-.168-.302-.523-.313v-.613c.543 0 1.119.305 1.137.927-.018.538-.438 1.13-1.137 1.153-.656-.026-1.074-.584-1.086-1.124"></path><path fill="#BE1823" d="M138.275 50.088c.453 0 .828.249.828.622 0 .38-.35.854-.828.854-.439 0-.789-.438-.789-.821 0-.369.315-.655.789-.655"></path><path fill="#010202" d="M137.053 48.937c.004-.659.596-1.022 1.223-1.022v.612c-.459.022-.607.167-.617.412 0 .271.338.673.617.681.32-.008.646-.434.656-.71-.01-.215-.168-.359-.656-.382v-.614c.605 0 1.26.306 1.27.993-.021.598-.49 1.291-1.27 1.325-.735-.034-1.21-.692-1.223-1.295"></path><path fill="#BE1823" d="M138.275 48.22c.549 0 .963.234.963.688 0 .441-.414 1.021-.963 1.021-.51 0-.908-.556-.908-.992 0-.447.365-.717.908-.717"></path><path fill="#010202" d="M137.871 52.118c0-.583.527-.928 1.096-.928v.606c-.395.026-.469.132-.479.322 0 .208.262.533.479.533.236 0 .504-.354.504-.578 0-.146-.094-.251-.504-.277v-.606c.533 0 1.121.274 1.121.883-.01.528-.416 1.155-1.121 1.197-.688-.042-1.082-.624-1.096-1.152"></path><path fill="#BE1823" d="M138.967 51.49c.479 0 .813.21.813.583 0 .386-.336.887-.813.887-.449 0-.791-.479-.791-.842 0-.383.312-.628.791-.628"></path><path fill="#010202" d="M138.279 46.982c0-.712.652-1.153 1.357-1.153v.609c-.502.017-.744.252-.756.545.012.347.402.825.791.825.395 0 .75-.496.76-.846-.01-.286-.256-.508-.795-.524v-.609c.701 0 1.4.382 1.4 1.133-.004.652-.508 1.431-1.365 1.458-.819-.028-1.38-.753-1.392-1.438M134.93 46.775c.01-.578.537-.948 1.096-.948v.61c-.33.008-.479.178-.479.339 0 .223.25.552.502.552.213 0 .529-.372.529-.576 0-.146-.148-.299-.555-.314v-.61c.564 0 1.15.302 1.164.924-.023.552-.443 1.154-1.139 1.191-.691-.029-1.097-.622-1.118-1.168"></path><path fill="#BE1823" d="M139.637 46.135c.623 0 1.1.311 1.1.827 0 .505-.441 1.159-1.064 1.159-.611 0-1.08-.622-1.08-1.139-.001-.501.444-.847 1.044-.847M136.025 46.135c.484 0 .854.239.854.617 0 .373-.369.881-.818.881-.484 0-.826-.479-.826-.856-.001-.37.341-.642.79-.642"></path><path fill="#010202" d="M148.273 57.274c-.43-.175-.621-.59-.621-.96 0-.165.035-.336.109-.476a.81.81 0 0 1 .773-.467q.267 0 .527.11l-.133.281.156-.261c.332.183.633.469.639.891a.8.8 0 0 1-.07.312 1.14 1.14 0 0 1-1.021.642.9.9 0 0 1-.359-.072m.045-1.16a.34.34 0 0 0-.055.2c.01.184.09.331.246.398.035.009.074.026.125.026.172.011.428-.17.463-.273.01-.04.02-.058.02-.072.008-.069-.078-.229-.33-.359a.5.5 0 0 0-.25-.056c-.129.008-.174.041-.219.136"></path><path fill="#BE1823" d="M148.939 55.765c.371.208.578.519.436.825-.139.303-.617.575-.986.394-.42-.16-.514-.668-.352-1.011.137-.314.527-.373.902-.208"></path><path fill="#010202" d="M138.799 54.22c-.553-.093-.762-.599-.771-1.038 0-.074 0-.144.016-.185.02-.433.389-.806.838-.792.031 0 .074 0 .131.01.428.037.813.387.803.863v.107c-.117.447-.369.976-.945 1.034zm-.158-1.118v.08c-.016.239.178.429.203.429h.023s.078-.019.162-.143c.084-.104.154-.27.174-.341v-.05c0-.149-.068-.225-.262-.259l.023-.296-.053.296h-.031c-.151.023-.194.047-.239.284"></path><path fill="#BE1823" d="M138.967 52.521c.34.022.576.259.543.617-.064.363-.375.821-.688.777-.336-.03-.549-.511-.479-.887.036-.338.274-.548.624-.507"></path><path fill="#010202" d="M148.965 57.228c0-1.101 1.016-1.739 2.186-1.739v.614c-1.002.015-1.572.459-1.572 1.125 0 .72.734 1.673 1.607 1.673.824 0 1.578-.977 1.578-1.708 0-.646-.631-1.076-1.613-1.091v-.615c1.141 0 2.217.589 2.227 1.705-.021 1.057-.914 2.294-2.189 2.325-1.312-.03-2.209-1.234-2.224-2.289M152.35 55.026c-.428 0-.904-.128-1.436-.385-.744-.367-1.137-.396-1.457-.476-.369-.046-.65-.468-.598-.964v-.028c.029-.716.666-.982 1.221-1.214.602-.226 1.281-.447 1.752-.869.242-.195.494-.318.754-.318 1.053.106 1.393 1.419 1.428 2.369 0 .164-.006.309-.045.462-.123.797-.717 1.423-1.58 1.423zm-2.739-1.458c.236.076.77.13 1.57.525.479.22.861.323 1.168.323.604-.018.883-.318 1.027-.934q.02-.144.02-.343c.016-.392-.1-.871-.268-1.229-.182-.371-.404-.545-.543-.526-.074 0-.184.034-.352.177-.602.523-1.365.75-1.924.98-.602.222-.854.417-.838.631v.008l-.297.017h.307c-.01.237.029.341.035.341.002.001.011.009.095.03"></path><path fill="#BE1823" d="M151.15 55.8c1.063 0 1.92.516 1.92 1.394 0 .896-.834 2.017-1.885 2.017-1.09 0-1.904-1.096-1.904-1.981 0-.89.774-1.43 1.869-1.43"></path><path fill="#010202" d="M145.895 50.711c0-1.094.963-1.774 2.143-1.774v.603c-.986.026-1.521.48-1.525 1.171 0 .729.691 1.671 1.57 1.671.857 0 1.604-1.015 1.604-1.743 0-.646-.609-1.081-1.646-1.1v-.603c1.174 0 2.25.58 2.26 1.702-.021 1.047-.895 2.32-2.215 2.356-1.316-.025-2.182-1.244-2.191-2.283"></path><path fill="#BE1823" d="M149.178 53.198c-.041-.952 1.762-.918 2.865-1.873 1.098-.951 1.842 1.155 1.629 2.214-.193 1.071-1.086 1.573-2.625.819-1.529-.748-1.869-.163-1.869-1.16M148.037 49.233c1.102 0 1.961.517 1.961 1.406 0 .887-.82 2.051-1.916 2.051-1.098 0-1.887-1.093-1.887-1.98 0-.893.756-1.477 1.842-1.477"></path><path fill="#010202" d="M150.096 56.314a1.17 1.17 0 0 1-.998-.597.8.8 0 0 1-.074-.338c0-.388.262-.716.631-.883.193-.097.396-.163.6-.163.275-.005.602.145.725.431.09.148.113.314.113.481 0 .365-.156.771-.551.956a.86.86 0 0 1-.432.111c-.006.002-.006.002-.014.002m-.184-1.259c-.211.094-.281.239-.281.326.006.021.006.057.016.065.055.119.281.263.449.258a.4.4 0 0 0 .182-.045c.105-.047.215-.225.215-.412a.4.4 0 0 0-.064-.211c-.025-.052-.051-.073-.174-.084a.7.7 0 0 0-.324.09l-.139-.27z"></path><path fill="#BE1823" d="M149.791 54.772c.375-.2.783-.163.916.141.172.309.068.852-.307 1.019-.379.205-.857-.029-1.025-.333-.139-.305.039-.659.416-.827"></path><path fill="#010202" d="m91.816 68.08-.76-.025.572-.508c5.561-4.908 4.6-6.021 8.449-9.788.398-.368 1.145-1.189 1.979-1.225.156 0 .311.035.449.119.389.307.395.774.408 1.034.08.049.174.072.313.072.527.015 1.357-.489 1.561-.622l.195-.124.766.76.1-.194.246.54.326.321.656.656.01.096a4 4 0 0 1 .049.638c.01 1.049-.439 2.205-1.674 3.105l-.1-.152.1.152-.123-.133a4.2 4.2 0 0 1-1.115 1.063l-.113-.172.113.172-.145-.143a4 4 0 0 1-1.316 1.105l-.084-.164.084.164-.113-.135a5 5 0 0 1-1.316.998l-.09-.174.09.174-.109-.156c-.43.4-.934.699-1.426.883l-.061-.141.061.141-.09-.121a4.1 4.1 0 0 1-1.258.668l-.061-.172.061.172-.096-.143c-.402.352-.838.531-1.43.613l-.024-.205.023.207-.572.072a2.7 2.7 0 0 1-1.016.193H95.2l-.25-.006a3 3 0 0 1-1.021.191c-.1 0-.193 0-.293-.018l-.305-.029c-.42.15-.869.24-1.354.24zm8.702-9.885c-3.572 3.459-2.908 4.703-7.807 9.195 1.82-.404 3.174-2.305 4.037-3.424.789-.967 1.779-3.323 2.912-4.17.703-.439 2.254-.918 3.982-1.471q-.204.039-.416.04c-.281.008-.596-.073-.824-.313l.211-.21h.316-.316l-.211.21-.084-.084v-.125c.006-.055-.063-.604-.143-.672h.01a.3.3 0 0 0-.129-.027c-.02-.007-.02-.007-.035-.007-.371.001-1.173.688-1.503 1.058m-4.176 8.647c.248-.121.479-.295.707-.516.1-.092.334-.4.537-.705a1.5 1.5 0 0 1-.395.123c-.302.438-.533.776-.849 1.098m1.777-.635c.039-.055.094-.105.145-.176-.006 0 .152-.244.311-.529-.021 0-.039.004-.061.004a10 10 0 0 1-.395.701m1.154-.342c.307-.236.559-.533.709-.865-.107.012-.211.025-.324.033a8 8 0 0 1-.385.832m1.485-.736c.283-.252.51-.551.643-.883a1.8 1.8 0 0 1-.43.32 3 3 0 0 1-.213.563m-3.776-.147c.361-.088.643-.305.969-.736.023-.09.045-.043.078-.119.035-.076.09-.16.158-.262.016-.037.043-.068.068-.104l-.516.174c-.202.323-.479.696-.757 1.047m1.774-.416a2.3 2.3 0 0 0 .641-.393c.061-.039.332-.506.613-1.018-.193.07-.352.119-.543.189-.238.484-.44.867-.711 1.222m3.5-.349a2.4 2.4 0 0 0 .498-.859 3 3 0 0 1-.371.35 5 5 0 0 1-.127.509m-1.807-.17a1.3 1.3 0 0 0 .301-.285c.311-.373.518-.758.695-1.186a3 3 0 0 1-.293.117 5.4 5.4 0 0 1-.703 1.354m3.078-.586c.287-.334.494-.727.563-1.146v-.01a1.7 1.7 0 0 1-.398.367c-.038.256-.09.529-.165.789m-3.453-2.911c-.189.116-.939 1.265-1.59 2.271 1.717-.621 3.779-1.561 4.652-2.553.021-.007.578-.666 1.189-1.303-1.7.585-3.846 1.273-4.251 1.585m2.145 2.233c.184-.236.283-.529.35-.865-.023.029-.063.047-.092.068-.065.25-.143.52-.258.797m2.672-.4c.242-.359.41-.766.424-1.196a1.8 1.8 0 0 1-.336.33 6 6 0 0 1-.088.866m-1.461-.496c.25-.261.418-.664.518-1.197a3 3 0 0 1-.42.472c-.02.234-.055.479-.098.725m2.738-.605c.262-.479.359-.967.359-1.452q0-.223-.029-.444l-.016-.008c-.039.397-.123.739-.248.992.002.282-.011.597-.066.912m-1.303-1.219c0 .133-.01.271-.029.433.193-.307.248-.645.268-1.186-.09.089-.18.19-.258.276.009.148.019.309.019.477m-.662-1.922c.262-.088.529-.173.791-.261l-.104-.098a4.5 4.5 0 0 1-.687.359"></path><path fill="#FDEB1B" d="M105.293 62.693c1.387-1.025 1.67-2.327 1.498-3.452l-.588-.582c.033.684-.1 1.338-.262 1.642 0 .745-.142 1.709-.648 2.392m-1.248.912c.791-.5 1.545-1.396 1.58-2.45 0-.037.035-.313.035-.614-.203.173-.174 0-.436.271-.178.232-.246.343-.553.548.001.816-.144 1.628-.626 2.245m-1.43.961c.828-.439 1.607-1.223 1.785-2.25 0-.035.035-.381.064-.827l-.316.196c-.221.355-.434.654-.744.797-.07.719-.336 1.569-.789 2.084m-1.427.856c.85-.443 1.709-1.205 1.906-2.221 0-.029.082-.273.107-.582l-.41.176a3 3 0 0 1-.67.744c-.148.719-.42 1.402-.933 1.883m-1.504.719c.889-.344 1.814-1.029 2.082-2.049 0 0 .035-.176.109-.412l-.586.211c-.1.16-.271.303-.58.473a3.65 3.65 0 0 1-1.025 1.777m-1.329.541c.82-.273 1.674-.859 1.979-1.74.041-.131.115-.311.139-.404-.27.141-.621.201-1.027.201-.27.751-.784 1.634-1.091 1.943m-1.47.443c.75-.102 1.125-.309 1.635-.918 0 0 .518-.818.656-1.291-.48.195-.553.299-.855.299-.489.926-.784 1.398-1.436 1.91m-1.672.266c.75.053 1.461-.266 2.047-.854.201-.189.682-.836.893-1.281-.145 0-.35-.041-.443-.041-.248.133-.484.242-.686.242-.588.85-.858 1.256-1.811 1.934m-1.541.181c.682.064 1.471-.129 2.049-.791.068-.068.682-.574 1.09-1.291-.305.066-.33 0-.646 0-.644.754-1.362 1.533-2.493 2.082m4.269-2.564c.576-.029 1.07-.092 1.672-.609.178-.182.691-1.129 1.066-1.85-.691.322-.963.379-1.436.557-.403.843-.69 1.322-1.302 1.902m-1.644.306c.859.107 1.412-.203 1.926-.916 0-.035.365-.549.721-1.197l-1.406.479c-.278.476-.821 1.16-1.241 1.634m1.443-1.912c.721-1.063 1.779-2.827 2.148-3.103.682-.479 4.26-1.537 5.805-2.159-.646.39-2.318 2.324-2.318 2.324-1.131 1.268-3.785 2.331-5.635 2.938m4.875-5.559c0-.106-.025-.788-.268-.923-.582-.375-1.607.616-2.043 1.059-3.799 3.688-2.873 4.842-8.477 9.793 2.492.109 4.174-2.35 5.162-3.615.813-1.029 1.85-3.371 2.826-4.093.865-.545 3.361-1.23 5.74-2.053l-.613-.614c-.27.166-1.671 1.096-2.327.446m-2.957 6.692c.791-.855 1.021-1.432 1.26-2.084a3.8 3.8 0 0 0 1.086-.551c-.238.791-.506 1.441-1.018 2.047-.306.416-.759.619-1.328.588m1.733-.855c.484-.646.682-1.338.824-1.883.268-.171.504-.367.785-.542-.139 1.026-.312 2.048-1.609 2.425m1.539-1.166c.164-.404.271-.987.307-1.495.51-.441.479-.651 1.125-1.303-.069 1.507-.434 2.528-1.432 2.798m1.293-1.057c.41-.847.352-1.436.305-1.979.283-.306.59-.619.896-.884 0 1.499-.035 2.121-1.201 2.863m1.091-.954c.313-.505.381-1.228.313-2.043a.53.53 0 0 0 .207-.176c.201.444.236 1.977-.52 2.219"></path><path fill="#010202" d="M108.049 58.859c-.184 0-.369-.008-.553-.035l-.105-.01-.947-.957-.027-.032-.264-.093.055-.104-.943-.959.154-.202c.139-.178.662-1.021.645-1.542a.5.5 0 0 0-.082-.307c-.252-.007-.717-.02-1.021-.406a.9.9 0 0 1-.127-.464c.033-.819.852-1.566 1.223-1.961 3.736-3.854 4.84-2.896 9.787-8.451l.527-.59.02.792v.099a4.3 4.3 0 0 1-.271 1.434l.025.276c.008.104.02.208.02.316 0 .32-.064.671-.197.996l.008.249v.113c0 .396-.078.763-.236 1.121l-.039.472c-.049.584-.223 1.041-.598 1.453l.141.086a4.1 4.1 0 0 1-.684 1.262l.135.078c-.197.489-.475 1.008-.879 1.438l.148.094c-.229.473-.547.955-.992 1.338l.127.108a4.3 4.3 0 0 1-1.086 1.313l.16.15c-.293.42-.668.83-1.107 1.146l.135.13c-.918 1.224-2.072 1.653-3.135 1.653-.007-.004-.007-.004-.017-.004m0-.61c.498 0 1.002-.096 1.496-.369a4.7 4.7 0 0 1-.771.063h-.117c-.248.124-.598.22-.992.27l.008.018c.13.005.253.018.376.018m1.385-1.201h.012a2.56 2.56 0 0 0 1.229-.453 6 6 0 0 1-.859.084c-.14.18-.273.28-.382.369m-1.836-.246c.525-.027.869-.067 1.176-.257a4.472 4.472 0 0 1-.888.003 4 4 0 0 0-.288.254m-1.424-.079c.088-.256.168-.531.246-.79-.113.269-.25.506-.355.669zm2.658-4.951c-.326.407-.996 2.557-1.574 4.271.643-.624 1.307-1.178 1.307-1.189.969-.886 1.922-2.96 2.539-4.676-.997.657-2.147 1.402-2.272 1.594m1.742 4.028a2.47 2.47 0 0 0 1.146-.57 5 5 0 0 1-.777.165c-.107.161-.234.279-.369.405m-1.578-.158c.512-.097.902-.262 1.17-.511a7 7 0 0 1-.736.125 3 3 0 0 1-.434.386m-2.725-1.622.088.084c.223.23.313.538.313.819 0 .104-.016.2-.029.298.523-1.702.996-3.198 1.465-3.879.838-1.11 3.152-2.109 4.156-2.935 1.094-.827 2.984-2.176 3.424-3.981-4.52 4.889-5.77 4.222-9.197 7.788-.377.345-1.092 1.187-1.049 1.532 0 .063.008.097.031.141.014 0 .029.018.055.03a1 1 0 0 0 .223.06c.172.04.363.044.389.044v.31l-.217.21.217-.21v-.311zm5.401.415a2.4 2.4 0 0 0 .848-.491c-.178.058-.35.102-.533.15-.1.126-.202.24-.315.341m-1.49-.145c.359-.07.676-.176.926-.386-.295.124-.588.21-.848.271a1 1 0 0 1-.078.115m.689-1.15c.42-.18.809-.39 1.199-.703a1 1 0 0 0 .271-.299c-.494.368-.924.553-1.348.716-.032.085-.077.184-.122.286m1.639-.038c.35-.143.656-.362.902-.644a5 5 0 0 1-.572.206 1.6 1.6 0 0 1-.33.438m-1.076-1.391c.508-.292.963-.57 1.008-.641.211-.236.338-.432.418-.628-.369.283-.764.479-1.25.718-.063.193-.106.361-.176.551m1.836-.037c.336-.148.611-.394.85-.691a8 8 0 0 1-.795.36c-.022.113-.03.229-.055.331m.527-1.409c.268-.155.5-.296.49-.289.064-.047.123-.105.172-.148a9 9 0 0 1-.656.383c0 .021-.006.037-.006.054m-1.772-.303c.229-.145.391-.257.449-.296l.037.04.008-.069c.424-.315.668-.592.75-.97-.346.289-.719.578-1.074.774zm1.856-.676c.311-.196.613-.438.717-.532.215-.229.398-.477.523-.729-.326.32-.662.567-1.096.881-.025.125-.08.258-.144.38"></path><path fill="#FDEB1B" d="M110.955 57.021c-1.027 1.362-2.291 1.639-3.424 1.51l-.568-.583c.646.03 1.328-.14 1.627-.313.762.038 1.715-.144 2.365-.614m.953-1.263c-.543.819-1.438 1.532-2.486 1.599 0-.032-.277 0-.617 0 .207-.191.039-.167.301-.437.213-.169.35-.241.553-.545.812-.001 1.603-.142 2.249-.617m.922-1.429c-.443.809-1.184 1.601-2.254 1.773 0 0-.365.025-.82.099l.209-.345c.34-.23.645-.447.783-.75.719-.064 1.604-.34 2.082-.777m.858-1.436c-.41.844-1.168 1.705-2.221 1.907-.033 0-.24.072-.586.104l.174-.406c.311-.168.547-.375.754-.688.711-.129 1.431-.404 1.879-.917m.722-1.507c-.352.886-.998 1.813-2.059 2.083 0 0-.168.035-.41.101l.211-.583c.164-.094.336-.272.471-.575.654-.166 1.303-.484 1.787-1.026m.543-1.333c-.281.827-.859 1.673-1.742 1.98-.141.04-.271.104-.416.142.145-.271.213-.612.248-1.059.746-.236 1.603-.756 1.91-1.063m.434-1.466c-.068.755-.262 1.132-.918 1.636 0 0-.814.518-1.258.656.201-.484.305-.552.305-.858.894-.481 1.363-.788 1.871-1.434m.281-1.67c.035.739-.281 1.46-.854 2.045-.211.202-.857.686-1.297.886 0-.164 0-.343-.035-.475.139-.209.236-.443.277-.648.819-.584 1.227-.893 1.909-1.808m.162-1.535c.074.676-.094 1.426-.773 2.041-.07.071-.586.686-1.268 1.067.023-.281-.029-.351-.029-.622.767-.643 1.558-1.359 2.07-2.486m-2.527 4.228c-.025.613-.092 1.1-.645 1.671-.168.209-1.084.717-1.801 1.097.295-.688.33-.958.508-1.439.854-.411 1.362-.684 1.938-1.329m.283-1.613c.131.86-.213 1.41-.895 1.885a10.5 10.5 0 0 1-1.189.75l.439-1.399c.51-.271 1.166-.814 1.645-1.236m-1.914 1.443c-1.063.724-2.803 1.771-3.082 2.156-.508.674-1.535 4.259-2.146 5.831.381-.678 2.33-2.349 2.33-2.349 1.224-1.135 2.31-3.797 2.898-5.638m-5.533 4.889c-.104 0-.773-.039-.912-.27-.391-.592.605-1.624 1.045-2.063 3.656-3.788 4.813-2.867 9.803-8.461.078 2.5-2.385 4.168-3.623 5.122-1.051.847-3.371 1.87-4.098 2.867-.582.814-1.258 3.347-2.037 5.765l-.656-.645c.2-.27 1.13-1.667.478-2.315m6.656-2.976c-.818.784-1.396 1.024-2.047 1.266-.1.342-.316.719-.537 1.083.744-.233 1.391-.503 2.041-1.023.406-.301.578-.751.543-1.326m-.818 1.743c-.686.474-1.328.68-1.91.821-.172.27-.34.506-.547.779 1.054-.098 2.052-.296 2.457-1.6m-1.166 1.527c-.438.177-.986.28-1.529.354-.412.469-.617.432-1.297 1.084 1.505-.068 2.556-.436 2.826-1.438m-1.055 1.307c-.848.41-1.465.341-1.984.304-.334.278-.605.589-.889.885 1.471.001 2.127-.024 2.873-1.189m-.953 1.091c-.514.304-1.229.375-2.049.304-.039.072-.137.167-.172.239.439.172 1.982.209 2.221-.543"></path><path fill="#010202" d="m151.59 103.555-.922-.08L100.893 54.4a1.13 1.13 0 0 1-.568.173c-.607-.017-.996-.469-1.264-.713l-.42.435-.227.228-1.381-1.395.207-.218c.121-.129.158-.246.158-.518 0-.141-.016-.319-.016-.514 0-.553.133-1.295.889-2.042.73-.757 1.465-.898 2.018-.898.242 0 .443.025.604.025.256-.007.369-.032.488-.15l.217-.218 1.357 1.356-.646.646.025.029c.211.229.662.62.674 1.212 0 .194-.063.395-.182.58l49.02 49.875.01.121.064.818-.295.02.018-.301-.018.301.295-.02.039.359zm-50.047-49.379 49.396 48.717.346.029-.025-.352-48.633-49.487zm-3.127-.094.217-.223zm1.91-.121c.104 0 .207-.039.375-.194l1.504-1.54c.152-.166.191-.281.191-.388.006-.153-.123-.365-.291-.567l-2.398 2.361c.213.184.439.336.619.328m-1.91-.316 3.676-3.694-.529-.525c-.213.124-.459.15-.67.141-.203 0-.406-.018-.604-.018-.475.01-.947.068-1.582.716-.643.656-.703 1.13-.711 1.613 0 .161.014.336.014.514 0 .216-.025.473-.146.703z"></path><path fill="#FDEB1B" d="m98.416 54.082 4.104-4.131-.922-.93c-.641.664-1.707-.398-3.113 1.031-1.396 1.404-.375 2.428-1.021 3.075zm3.705-3.239c.332.34.949.941.301 1.594l-1.504 1.549c-.646.638-1.258.03-1.643-.34zm49.504 52.411-.068-.814-48.943-49.794-1.494 1.541 49.682 48.993z"></path><path fill="#010202" d="M147.342 94.057c-.045-.205-1.367-2.465-1.48-2.52-2.137-1.775-4.457-2.057-6.807-2.068-1.109 0-2.236.066-3.326.066-2.318 0-4.613-.299-6.482-2.211-3.846-3.975-.736-11.096-3.887-13.865-.699-.646-1.678-.91-2.9-.91-3.736-.018-9.336 2.535-13.65 2.543-1.664 0-3.174-.379-4.285-1.508-.537-.559-1.238-1.322-1.287-1.994.012-.258-.02-.537-.033-.537l-.133-.264.25-.139c1.289-.74.992-.799 3.213-4.143.439-.309 1.061-1.098 1.756-1.16.307.055.449.205.824.396.213.121.42.252.582.355h.084l.094.098.1.098-.316.367v.049h-.049l-.033.047c-.021-.018-.041-.027-.064-.047-.174-.01-.34-.033-.484-.025-.068 0-.133 0-.172.008-.711.525-2.004 2.523-2.24 2.916 0 .045-.012.08-.012.109 0 .877.385 1.35.41 1.385.346.576.973.814 1.953.822 3.154.014 8.992-2.74 13.701-2.748 1.846 0 3.566.438 4.846 1.688 3.869 3.869 1.105 11.379 4.18 14.727 1.008 1.145 3.834 1.209 6.881 1.35 3.045.166 6.338.492 8.379 2.615.982 1.021 1.58 2.998 1.594 4.506-.045.307-.221.314-.285.357-.09.023-.188.045-.281.045-.196.004-.538-.047-.641-.408m.592-.207c-.055-1.324-.656-3.09-1.418-3.871l.219-.207-.219.207c-1.805-1.904-4.953-2.271-7.979-2.426-3.031-.176-5.896-.096-7.301-1.547-3.313-3.873-.557-11.328-4.141-14.699-1.139-1.105-2.666-1.512-4.432-1.512-4.512-.016-10.285 2.729-13.699 2.744-1.064.01-1.994-.287-2.463-1.092-.02-.025-.502-.658-.502-1.727 0-.064 0-.148.008-.227v-.068l.045-.066c.016-.018 1.502-2.486 2.502-3.193l.025-.018a5 5 0 0 0-.33-.184c-.217.053-.938.68-1.279.949-1.979 3.01-1.914 3.402-3.146 4.146.033.176.014.354.023.531-.041.16.611 1.102 1.111 1.57.951.961 2.273 1.318 3.848 1.318 4.117.023 9.693-2.539 13.652-2.543 1.301 0 2.461.277 3.32 1.074 3.465 3.377.297 10.412 3.902 13.883 1.713 1.746 3.762 2.027 6.045 2.037 1.078 0 2.188-.074 3.326-.074 2.398 0 4.906.309 7.197 2.209.357.346 1.426 2.223 1.658 2.779.008.003.008.007.028.007"></path><path fill="#010202" d="M102.59 71.016h-.045l-.043-.008c-.16-.051-.74-.154-.771-.771 0-.088.02-.207.061-.309l.094-.256.26.063c.16.035.268.045.336.045.188.008.113-.045.465-.258l.01-.01h.008c.012-.02.035-.039.057-.063.068-.07.166-.184.275-.324.219-.27.52-.646.814-1.012.676-.76 1.074-1.479 1.672-1.598h.023c.021 0 .045 0 .063.004l.842.213-.256.355c-1.092 1.537-1.881 3.635-3.303 3.955l-.059-.295v.305c-.097.001-.433-.036-.503-.036m.49-.578c.729-.123 1.563-1.625 2.467-3.059-.01 0-.01.01-.02.012-.201.209-.455.514-.715.828-.527.637-1.057 1.338-1.338 1.648-.107.076-.07.123-.227.188-.115.043-.283.299-.684.33a.1.1 0 0 0 .064.018z"></path><path fill="#FDEB1B" d="M103.094 70.748c-.059 0-.406-.035-.504-.035-.242-.072-.691-.16-.518-.684.721.172.721-.064 1.021-.234.178 0 2.33-3.047 2.705-2.979l.404.111c-1.085 1.559-1.979 3.626-3.108 3.821"></path><path fill="#010202" d="M106.5 70.553c-.248-.385-.207-.852-.229-1.029.07-.396.393-.752.859-1.398.455-.605 1.012-1.271 1.467-1.676l.088-.076h.119c.137 0 .285-.025.443-.025v.309-.309h.627l-.385.486c-.365.459-1.803 2.086-2.459 3.654l-.207.521z"></path><path fill="#FDEB1B" d="M109.248 66.656c-.104 0-.281.023-.443.023-.865.762-2.223 2.633-2.223 2.842 0 .168 0 .615.174.846.68-1.633 2.152-3.279 2.492-3.711"></path><path fill="#FDEB1B" d="M146.734 89.771c.889.914 1.506 2.863 1.506 4.295 0 .107-.545.172-.617-.1-.104-.338-1.322-2.453-1.564-2.666-5.469-4.543-12.16.344-16.592-4.201-3.73-3.719-.592-10.785-3.893-13.861-4.068-3.787-16.223 4.775-20.832.137-.52-.512-1.199-1.369-1.199-1.783 0-.26 0-.539-.07-.684 1.363-.77 1.125-.943 3.244-4.16.449-.342 1.168-1.092 1.574-1.092.107 0 1.199.65 1.465.859l-.1-.109c-.307 0-.646-.059-.928 0-.883.617-2.412 3.117-2.412 3.117-.08 1.086.438 1.736.438 1.736 2.256 3.852 15.299-5.297 20.551-.174 3.727 3.627.957 11.107 4.17 14.721 2.39 2.596 11.4-.066 15.259 3.965"></path><g fill="#010202"><path d="M106.236 68.256c-.063.17-.611.506-.98.479.334-.578.848-1.23 1.061-1.541 0 0 .475.18.439.277-.002 0-.106.207-.52.785"></path><path d="M105.25 69.039h-.533l.266-.461c.355-.604.879-1.268 1.08-1.555l.129-.207.229.088s.111.051.242.105c.115.104.279.018.393.451v.073l-.036.067c-.008.023-.123.24-.531.824h-.006c-.23.354-.676.566-1.184.615zm.986-.783-.211-.15c-.006.02-.016.025-.025.045l.01.02-.014-.014zm.268-.633"></path></g><path fill="#010202" d="M137.783 98.723c-2.107-2.051-2.414-5.348-2.588-8.396-.143-3.043-.201-5.869-1.365-6.854-3.328-3.105-10.828-.32-14.662-4.209-1.27-1.299-1.709-3.023-1.709-4.889.012-4.707 2.777-10.563 2.758-13.709-.01-.984-.246-1.611-.832-1.961-.012.02-.549-.391-1.486-.391h-.023c-.387.247-2.355 1.516-2.908 2.229v.208c0 .138 0 .276.01.427a1 1 0 0 0 .059.079l-.059.074v.031h-.023l-.326.343-.262-.191v-.15c-.291-.449-.656-1.046-.709-1.363.053-.667.793-1.305 1.113-1.761l.035-.042.043-.032c3.256-2.112 3.322-1.849 4.102-3.15l.162-.264.262.175c.012-.021.029.015.123.015.1.002.232.002.371.002.666.053 1.426.752 1.994 1.283 1.104 1.123 1.494 2.636 1.494 4.296-.014 4.334-2.541 9.943-2.537 13.674 0 1.215.27 2.205.914 2.908 2.77 3.182 9.84.027 13.814 3.875 1.938 1.904 2.234 4.217 2.229 6.572 0 1.07-.049 2.15-.049 3.24 0 2.373.275 4.699 2.043 6.844.053.1 2.211 1.379 2.527 1.5.359.119.395.453.395.641a.7.7 0 0 1-.045.275c-.035.068-.02.242-.35.305-1.487-.017-3.48-.625-4.515-1.634m4.297 1.009c0-.004 0-.02-.01-.021-.43-.197-2.424-1.324-2.773-1.693-1.898-2.287-2.186-4.818-2.186-7.229 0-1.104.064-2.195.064-3.24-.012-2.316-.297-4.396-2.064-6.131-3.463-3.596-10.457-.406-13.826-3.906-.795-.857-1.076-2.014-1.076-3.316.02-3.959 2.547-9.537 2.535-13.675-.01-1.574-.359-2.905-1.316-3.867-.459-.488-1.4-1.14-1.561-1.098-.066-.01-.137-.01-.211-.01-.104.01-.201.01-.297-.009-.77 1.214-1.17 1.198-4.145 3.11-.336.407-.893 1.108-.949 1.309.01.021.035.08.064.129.023.052.064.112.1.177.715-1.002 3.172-2.487 3.188-2.502l.068-.042.084-.016h.129c1.111 0 1.811.486 1.816.494.83.489 1.115 1.407 1.115 2.471-.016 3.409-2.77 9.204-2.76 13.71 0 1.775.414 3.314 1.535 4.453 3.342 3.615 10.783.863 14.627 4.188 1.477 1.369 1.396 4.252 1.568 7.277.164 3.041.51 6.186 2.404 7.988l-.211.225.211-.217c.783.785 2.574 1.391 3.877 1.441"></path><path fill="#FDEB1B" d="M137.996 98.506c.926.922 2.904 1.543 4.303 1.543.102 0 .176-.586-.105-.621-.34-.145-2.457-1.365-2.658-1.607-4.508-5.461.34-12.154-4.201-16.625-3.715-3.717-10.758-.541-13.828-3.895-3.754-4.063 4.748-16.216.139-20.855-.508-.516-1.367-1.198-1.775-1.198-.281 0-.543 0-.65-.074-.814 1.372-.998 1.167-4.207 3.253-.338.434-1.055 1.196-1.055 1.572 0 .096.623 1.188.857 1.46l-.141-.097c0-.276-.025-.619 0-.931.621-.881 3.113-2.42 3.113-2.42 1.086-.032 1.771.449 1.771.449 3.828 2.282-5.324 15.335-.172 20.585 3.592 3.756 11.068.984 14.646 4.195 2.629 2.364-.031 11.41 3.963 15.266"></path><path fill="#010202" d="M114.611 60.977c.012-.228.08-.382.068-.474v-.116l.074-.086c.391-.459 1.037-1 1.635-1.458.65-.447 1.006-.76 1.396-.824.184.012.66-.04 1.051.236l.381.326-.465.192c-1.57.653-3.188 2.089-3.652 2.45l-.488.38zm.614 0h-.307z"></path><path fill="#FDEB1B" d="M114.918 60.977c0-.133.068-.296.068-.474.717-.859 2.588-2.188 2.799-2.188.172 0 .646 0 .85.181-1.639.677-3.268 2.148-3.717 2.481"></path><path fill="#010202" d="m114.895 57.982-.08-.354c-.043-.092-.033-.146-.033-.146.117-.585.76-.921 1.477-1.562.68-.541 1.43-1.121 1.563-1.256.188-.335.229-.241.229-.459 0-.079-.016-.189-.049-.362l-.064-.274.256-.084c.113-.035.213-.049.313-.049.611.024.715.609.77.775l.012.033v.046c-.012.038.063.356.066.51h-.305l.301.065c-.371 1.405-2.467 2.189-3.977 3.297l-.367.25zm3.279-2.825c-.072.082-.176.163-.32.276-.25.208-.596.469-.938.748-.469.362-.977.787-1.273 1.066 1.426-.898 2.928-1.732 3.096-2.466-.012-.063-.061-.296-.061-.448-.01-.021-.02-.04-.02-.056-.035.417-.285.593-.297.661h-.01c-.048.159-.111.121-.177.219m-.348-.511h-.006z"></path><path fill="#FDEB1B" d="M119.043 54.8c0-.072-.068-.399-.068-.51-.063-.23-.174-.68-.682-.515.174.753-.074.753-.213 1.024 0 .177-3.07 2.318-2.996 2.691l.104.413c1.566-1.08 3.613-1.973 3.855-3.103"></path><g fill="#010202" data-source="https://football-logos.cc"><path d="M116.553 57.979c.137-.099.477-.654.443-1.023-.578.369-1.225.889-1.533 1.091 0 0 .17.449.275.414-.002-.002.201-.11.815-.482"></path><path d="M115.283 58.383c-.068-.116-.105-.22-.105-.22l-.094-.239.209-.136c.289-.188.947-.706 1.539-1.104l.482-.311-.014.585v.049c-.025.538-.32.995-.568 1.211l-.182-.241.158.258c-.623.378-.824.487-.84.491l-.059.035h-.09c-.401-.094-.342-.265-.436-.378"></path></g><!-- source: https://football-logos.cc --></svg>