<svg xmlns="http://www.w3.org/2000/svg" viewBox="24.43 44.47 277.73 275.49"><!-- Source: https://football-logos.cc --><path fill="#fff" fill-rule="evenodd" d="M163.254 44.482q49.937-.014 50.419-.012 12.987.04 18.067 1.35 18.23 4.7 28.42 20.67 3.21 5.02 6.76 16.49 1.31 4.26 29.63 91.31c3.03 9.32 6.23 17.86 5.51 27.47q-1.23 16.45-11.4 28.98-4.3 5.3-16.89 14.25-4.48 3.19-98.028 71.209-5.162 3.754-12.412 3.756t-12.414-3.749q-93.585-67.967-98.067-71.154-12.595-8.943-16.898-14.241-10.177-12.524-11.416-28.974c-.726-9.609 2.47-18.151 5.494-27.473q28.272-87.065 29.58-91.326 3.543-11.472 6.75-16.494Q76.54 50.568 94.768 45.858q5.079-1.313 18.066-1.36.482-.002 50.42-.016m.077 227.759q1.846 0 1.869 2.751.19 22.638.01 38.518a.822.818-2.473 0 0 .91.83q5.55-.61 10.2-4 21.35-15.57 34.86-25.35a1.935 1.927 60.905 0 0 .65-2.3l-15.11-36.6a1.287 1.287-63.143 0 1 .7-1.68l.41-.17a1.915 1.915 54.233 0 1 2.5 1.04l14.62 35.4a1.007 1.004 60.714 0 0 1.52.43q26.17-19.04 35-25.41 1.9-1.38 2.19-2.14a.943.938 35.388 0 0-.16-.93q-4.45-5.36-30.07-36.99c-3.27-4.02-6.25-6.42-10.95-3.44q-2.33 1.48-13.05 8.45-6.25 4.06-11.86 3.24c-9.51-1.38-18.79-8.46-20.99-18.27a1.758 1.747-15.138 0 1 1.18-2.04c6.61-2.09 11.58-4.34 15.9-10.36q1.51-2.1 3.68-8.18 1.3-3.65 3.38-8.25a.711.708-69.02 0 1 .87-.39l22.48 7.3a3.044 3.026 5.553 0 1 2.07 2.5q1.09 8.51 2.04 14.23c.46 2.73 1.33 4.65 2.97 6.67q22.68 28 35.41 43.54a1.094 1.09-37.15 0 0 1.47.2q10.74-7.64 21.87-15.96 7.46-5.57 12.06-13.88a.587.583 27.387 0 0-.26-.81l-55.43-27.35a1.659 1.655 26.867 0 1-.74-2.25l.04-.08a1.84 1.84 26.494 0 1 2.45-.82l55.04 27.06a.784.782 24.418 0 0 1.07-.4q5.49-13.23 2.35-27.35-.4-1.82-2.84-9.73a1.526 1.509 9.527 0 0-.57-.79q-1.22-.87-2.78-1.33-8.95-2.67-46.92-14.22c-3.07-.93-4.8-.4-7.09 1.63q-1.99 1.76-15.9 14.25a2.932 2.928-56.891 0 1-2.84.6l-24.26-7.88a1.251 1.238-74.626 0 1-.82-1.46q3.24-14.37 15.79-21.28 4.74-2.61 9.08-5.07a1.612 1.611-48.378 0 0-.17-2.89q-.89-.37-1.66-.37-22.94.02-24.38-.03-1.15-.04-2.66-.43a1.29 1.284-73.736 0 1-.9-1.65c1.18-3.6 5.37-8.29 11.09-15.94 2.29-3.07 3.46-3.34 6.85-2.58q9.85 2.2 16.75 3.71 3.88.86 6.51-1.25Q248.77 106.2 265 93.4a.843.837-27.554 0 0 .28-.88q-1.46-5-3.99-12.71c-3.16-9.6-7.92-16.86-15.44-22.56a.897.893-53.381 0 0-1.27.19l-31.68 44.04a1.368 1.362-54.143 0 1-1.9.31l-.27-.19a1.934 1.929 35.798 0 1-.44-2.69l31.31-43.52a.632.626-57.674 0 0-.2-.91c-12.4-7.07-25.8-5.55-39.72-5.61a1.093 1.082 12.236 0 0-.99.63q-11.65 25.39-17.24 37.4-2.02 4.34-.24 7.13 10.31 16.23 10.79 17.02c1.2 1.97 3.04 3.93 1.44 6.17q-1.56 2.19-13.75 19.05c-1.39 1.92-2.77 2.95-4.983 3.156q-1.042.095-13.383.096-12.341 0-13.383-.095c-2.213-.205-3.593-1.235-4.983-3.155q-12.192-16.859-13.752-19.048c-1.601-2.24.239-4.201 1.439-6.171q.48-.79 10.788-17.021 1.78-2.79-.241-7.13-5.591-12.009-17.244-37.398a1.093 1.082-12.243 0 0-.99-.63c-13.92.062-27.32-1.457-39.719 5.615a.632.626 57.668 0 0-.2.91l31.315 43.516a1.934 1.929-35.804 0 1-.44 2.69l-.27.19a1.368 1.362 54.137 0 1-1.9-.31L82.059 57.449a.897.893 53.374 0 0-1.27-.19C73.27 62.96 68.51 70.22 65.352 79.821q-2.53 7.71-3.989 12.71a.843.837 27.548 0 0 .28.88q16.231 12.798 36.243 28.886 2.63 2.11 6.51 1.249 6.9-1.51 16.75-3.711c3.39-.761 4.56-.491 6.85 2.579 5.721 7.649 9.912 12.339 11.092 15.939a1.29 1.284 73.729 0 1-.9 1.65q-1.51.39-2.66.43-1.44.05-24.38.033-.77 0-1.66.37a1.612 1.611 48.372 0 0-.169 2.89q4.34 2.459 9.08 5.069 12.551 6.909 15.792 21.278a1.251 1.238 74.62 0 1-.819 1.46l-24.26 7.883a2.932 2.928 56.885 0 1-2.84-.6q-13.911-12.488-15.901-14.248c-2.29-2.03-4.02-2.56-7.09-1.629q-37.969 11.554-46.919 14.225-1.56.46-2.78 1.33a1.526 1.509-9.534 0 0-.57.79q-2.439 7.911-2.839 9.731-3.138 14.12 2.353 27.349a.784.782-24.425 0 0 1.071.4l55.037-27.066a1.84 1.84-26.501 0 1 2.45.82l.04.08a1.659 1.655-26.873 0 1-.74 2.25l-55.427 27.356a.587.583-27.393 0 0-.26.81q4.601 8.31 12.061 13.879 11.131 8.319 21.872 15.957a1.094 1.09 37.143 0 0 1.47-.2q12.729-15.541 35.405-43.544c1.64-2.02 2.51-3.94 2.97-6.67q.949-5.72 2.038-14.23a3.044 3.026-5.559 0 1 2.07-2.5l22.479-7.303a.711.708 69.014 0 1 .87.39q2.081 4.6 3.381 8.25 2.171 6.079 3.681 8.179c4.321 6.02 9.291 8.269 15.901 10.358a1.758 1.747 15.131 0 1 1.18 2.04c-2.199 9.811-11.478 16.892-20.988 18.273q-5.61.82-11.86-3.239-10.721-6.969-13.051-8.449c-4.7-2.979-7.68-.579-10.95 3.442Q77.61 247.279 73.16 252.64a.943.938-35.394 0 0-.159.93q.29.76 2.19 2.14 8.83 6.369 35.003 25.406a1.007 1.004-60.72 0 0 1.52-.43l14.616-35.402a1.915 1.915-32.111 0 1 2.5-1.04l.41.17a1.287 1.287-33.85 0 1 .7 1.68l-15.106 36.601a1.935 1.927-60.911 0 0 .65 2.3q13.511 9.779 34.863 25.346 4.65 3.39 10.2 3.999a.822.818 2.467 0 0 .91-.83q-.182-15.88.006-38.518.022-2.75 1.868-2.751m-.044-182.652q6.403-.003 9.962-.051 4.881-.068 6.921-4.358 1.73-3.63 16.08-34.9a.994.992-77.603 0 0-.9-1.41h-29.13a1.01 1-.281 0 0-1.01 1.01q.08 8.49.009 17.878-.017 2.153-1.941 2.153-1.924.001-1.942-2.151-.079-9.388-.006-17.878a1.01 1 .233 0 0-1.011-1.01l-29.13.025a.994.992 77.555 0 0-.899 1.411q14.376 31.258 16.109 34.886 2.044 4.288 6.925 4.352 3.559.046 9.963.043M35.83 173.55q11-3.32 44.3-13.54c3.61-1.1 6.24-1.77 7.39-4.98q6.33-17.78 8.35-23.39 1.76-4.92-2.57-8.4-21.17-16.99-31.94-25.47a1.31 1.307 28.111 0 0-2.05.62l-8.92 27.48a1.23 1.23 34.999 0 0 .79 1.55l20.93 6.78a1.893 1.892 16.79 0 1 1.24 2.31l-.02.11a1.693 1.684 15.908 0 1-2.17 1.2l-21.69-7.12a.588.579-71.103 0 0-.74.37l-13.57 41.79a.545.541-89.358 0 0 .67.69m254.95-.045a.544.54 89.325 0 0 .669-.69l-13.581-41.742a.588.578 71.07 0 0-.74-.37l-21.665 7.126a1.691 1.683-15.942 0 1-2.169-1.197l-.02-.11a1.891 1.89-16.824 0 1 1.238-2.309l20.906-6.785a1.23 1.23 1.552 0 0 .788-1.549l-8.927-27.449a1.308 1.305-28.144 0 0-2.049-.618q-10.754 8.478-31.894 25.464-4.324 3.479-2.563 8.394 2.021 5.603 8.356 23.362c1.151 3.207 3.778 3.875 7.386 4.971q33.274 10.191 44.265 13.502" data-source="https://football-logos.cc"></path><path fill="#0db04b" fill-rule="evenodd" d="M163.324 139.522q12.341-.001 13.383-.096c2.213-.206 3.593-1.236 4.983-3.156q12.19-16.86 13.75-19.05c1.6-2.24-.24-4.2-1.44-6.17q-.48-.79-10.79-17.02-1.78-2.79.24-7.13 5.59-12.01 17.24-37.4a1.093 1.082 12.236 0 1 .99-.63c13.92.06 27.32-1.46 39.72 5.61a.632.626-57.674 0 1 .2.91l-31.31 43.52a1.934 1.929 35.798 0 0 .44 2.69l.27.19a1.368 1.362-54.143 0 0 1.9-.31l31.68-44.04a.897.893-53.381 0 1 1.27-.19c7.52 5.7 12.28 12.96 15.44 22.56q2.53 7.71 3.99 12.71a.843.837-27.554 0 1-.28.88q-16.23 12.8-36.24 28.89-2.63 2.11-6.51 1.25-6.9-1.51-16.75-3.71c-3.39-.76-4.56-.49-6.85 2.58-5.72 7.65-9.91 12.34-11.09 15.94a1.29 1.284-73.736 0 0 .9 1.65q1.51.39 2.66.43 1.44.05 24.38.03.77 0 1.66.37a1.612 1.611-48.378 0 1 .17 2.89q-4.34 2.46-9.08 5.07-12.55 6.91-15.79 21.28a1.251 1.238-74.626 0 0 .82 1.46l24.26 7.88a2.932 2.928-56.891 0 0 2.84-.6q13.91-12.49 15.9-14.25c2.29-2.03 4.02-2.56 7.09-1.63q37.97 11.55 46.92 14.22 1.56.46 2.78 1.33a1.526 1.509 9.527 0 1 .57.79q2.44 7.91 2.84 9.73 3.14 14.12-2.35 27.35a.784.782 24.418 0 1-1.07.4l-55.04-27.06a1.84 1.84 26.494 0 0-2.45.82l-.04.08a1.659 1.655 26.867 0 0 .74 2.25l55.43 27.35a.587.583 27.387 0 1 .26.81q-4.6 8.31-12.06 13.88-11.13 8.32-21.87 15.96a1.094 1.09-37.15 0 1-1.47-.2q-12.73-15.54-35.41-43.54c-1.64-2.02-2.51-3.94-2.97-6.67q-.95-5.72-2.04-14.23a3.044 3.026 5.553 0 0-2.07-2.5l-22.48-7.3a.711.708-69.02 0 0-.87.39q-2.08 4.6-3.38 8.25-2.17 6.08-3.68 8.18c-4.32 6.02-9.29 8.27-15.9 10.36a1.758 1.747-15.138 0 0-1.18 2.04c2.2 9.81 11.48 16.89 20.99 18.27q5.61.82 11.86-3.24 10.72-6.97 13.05-8.45c4.7-2.98 7.68-.58 10.95 3.44q25.62 31.63 30.07 36.99a.943.938 35.388 0 1 .16.93q-.29.76-2.19 2.14-8.83 6.37-35 25.41a1.007 1.004 60.714 0 1-1.52-.43l-14.62-35.4a1.915 1.915 44.182 0 0-2.5-1.04l-.41.17a1.287 1.287-65.212 0 0-.7 1.68l15.11 36.6a1.935 1.927 60.905 0 1-.65 2.3q-13.51 9.78-34.86 25.35-4.65 3.39-10.2 4a.822.818-2.473 0 1-.91-.83q.18-15.88-.01-38.518-.023-2.751-1.869-2.751-1.846.001-1.868 2.751-.188 22.638-.006 38.518a.822.818 2.467 0 1-.91.83q-5.55-.609-10.2-3.999-21.352-15.567-34.863-25.346a1.935 1.927-60.911 0 1-.65-2.3l15.106-36.601a1.287 1.287-33.858 0 0-.7-1.68l-.41-.17a1.915 1.915 0 0 0-2.5 1.04l-14.616 35.402a1.007 1.004-60.72 0 1-1.52.43q-26.173-19.037-35.003-25.406-1.9-1.38-2.19-2.14a.943.938-35.394 0 1 .159-.93q4.45-5.361 30.066-36.993c3.27-4.021 6.25-6.421 10.95-3.442q2.33 1.48 13.051 8.449 6.25 4.059 11.86 3.239c9.51-1.381 18.789-8.462 20.988-18.273a1.758 1.747 15.131 0 0-1.18-2.04c-6.61-2.089-11.58-4.338-15.901-10.358q-1.51-2.1-3.681-8.179-1.3-3.65-3.381-8.25a.711.708 69.014 0 0-.87-.39l-22.479 7.303a3.044 3.026-5.559 0 0-2.07 2.5q-1.089 8.51-2.038 14.23c-.46 2.73-1.33 4.65-2.97 6.67Q82.829 235.109 70.1 250.65a1.094 1.09 37.143 0 1-1.47.2q-10.741-7.638-21.872-15.957-7.46-5.569-12.061-13.879a.587.583-27.393 0 1 .26-.81l55.427-27.356a1.659 1.655-26.873 0 0 .74-2.25l-.04-.08a1.84 1.84-26.501 0 0-2.45-.82l-55.037 27.066a.784.782-24.425 0 1-1.071-.4q-5.491-13.229-2.353-27.349.4-1.82 2.839-9.731a1.526 1.509-9.534 0 1 .57-.79q1.22-.87 2.78-1.33 8.95-2.671 46.919-14.225c3.07-.931 4.8-.401 7.09 1.629q1.99 1.76 15.901 14.248a2.932 2.928 56.885 0 0 2.84.6l24.26-7.883a1.251 1.238 74.62 0 0 .819-1.46q-3.241-14.369-15.792-21.278-4.74-2.61-9.08-5.069a1.612 1.611 48.372 0 1 .169-2.89q.89-.37 1.66-.37 22.94.017 24.38-.033 1.15-.04 2.66-.43a1.29 1.284 73.729 0 0 .9-1.65c-1.18-3.6-5.371-8.29-11.092-15.939-2.29-3.07-3.46-3.34-6.85-2.579q-9.85 2.201-16.75 3.711-3.88.861-6.51-1.249-20.012-16.088-36.243-28.886a.843.837 27.548 0 1-.28-.88q1.459-5 3.989-12.71C68.51 70.22 73.27 62.96 80.789 57.259a.897.893 53.374 0 1 1.27.19l31.685 44.036a1.368 1.362 54.137 0 0 1.9.31l.27-.19a1.934 1.929-35.804 0 0 .44-2.69L85.039 55.399a.632.626 57.668 0 1 .2-.91c12.399-7.072 25.799-5.553 39.719-5.615a1.093 1.082-12.243 0 1 .99.63q11.653 25.389 17.244 37.398 2.021 4.34.241 7.13-10.308 16.231-10.788 17.021c-1.2 1.97-3.04 3.931-1.439 6.171q1.56 2.189 13.752 19.048c1.39 1.92 2.77 2.95 4.983 3.155q1.042.095 13.383.095m.014 48.037q2.58 0 5.257-1.727 7.255-4.682 16.725-10.972 2.53-1.69 1.64-4.5-6.37-20.14-7.16-22.4-1.18-3.33-3.567-3.391-3.996-.097-12.891-.098-8.896-.001-12.891.096-2.387.06-3.568 3.39-.79 2.26-7.164 22.399-.89 2.81 1.639 4.5 9.469 6.292 16.724 10.975 2.676 1.727 5.256 1.728m-.043 65.35 7.657.004a3.348 3.326 13.991 0 0 2.938-1.753l10.35-19.19a1.557 1.553 27.531 0 0-.67-2.12q-.56-.28-1.61-.44c-5.622-.836-11.722-.857-18.66-.858s-13.038.016-18.66.849q-1.05.16-1.61.44a1.557 1.553-27.505 0 0-.671 2.119l10.341 19.195a3.348 3.326-13.965 0 0 2.937 1.754z"></path><path fill="#0db04b" fill-rule="evenodd" d="M163.278 69.911q1.924 0 1.941-2.153.071-9.388-.009-17.878a1.01 1-.281 0 1 1.01-1.01h29.13a.994.992-77.603 0 1 .9 1.41q-14.35 31.27-16.08 34.9-2.04 4.29-6.921 4.358-3.559.048-9.962.051-6.404.003-9.963-.043-4.881-.064-6.925-4.352-1.733-3.628-16.109-34.886a.994.992 77.555 0 1 .899-1.411l29.13-.025a1.01 1 .233 0 1 1.011 1.01q-.073 8.49.006 17.878.018 2.152 1.942 2.151M35.83 173.55a.545.541-89.358 0 1-.67-.69l13.57-41.79a.588.579-71.103 0 1 .74-.37l21.69 7.12a1.693 1.684 15.908 0 0 2.17-1.2l.02-.11a1.893 1.892 16.79 0 0-1.24-2.31l-20.93-6.78a1.23 1.23 55.929 0 1-.79-1.55l8.92-27.48a1.31 1.307 28.111 0 1 2.05-.62q10.77 8.48 31.94 25.47 4.33 3.48 2.57 8.4-2.02 5.61-8.35 23.39c-1.15 3.21-3.78 3.88-7.39 4.98q-33.3 10.22-44.3 13.54M290.78 173.505q-10.991-3.311-44.265-13.502c-3.608-1.096-6.235-1.764-7.386-4.971q-6.335-17.759-8.356-23.362-1.761-4.915 2.563-8.394 21.14-16.986 31.894-25.464a1.308 1.305-28.144 0 1 2.049.618l8.927 27.449a1.23 1.23 20.051 0 1-.788 1.549l-20.906 6.785a1.891 1.89-16.824 0 0-1.238 2.309l.02.11a1.691 1.683-15.942 0 0 2.169 1.197l21.665-7.126a.588.578 71.07 0 1 .74.37l13.581 41.742a.544.54 89.325 0 1-.669.69" data-source="https://football-logos.cc"></path><path fill="#fff" fill-rule="evenodd" d="M163.342 144.471q8.895.001 12.891.098 2.387.061 3.567 3.391.79 2.26 7.16 22.4.89 2.81-1.64 4.5-9.47 6.29-16.725 10.972-2.677 1.727-5.257 1.727-2.58-.001-5.256-1.728-7.255-4.683-16.724-10.975-2.529-1.69-1.639-4.5 6.374-20.139 7.164-22.399 1.181-3.33 3.568-3.39 3.995-.097 12.891-.096M163.3 228.552c6.938.001 13.038.022 18.66.858q1.05.16 1.61.44a1.557 1.553 27.531 0 1 .67 2.12l-10.35 19.19a3.348 3.326 13.991 0 1-2.938 1.753l-7.657-.004h-7.658a3.348 3.326-13.965 0 1-2.937-1.754l-10.341-19.195a1.557 1.553-27.505 0 1 .671-2.119q.56-.28 1.61-.44c5.622-.833 11.722-.851 18.66-.849" data-source="https://football-logos.cc"></path><!-- source: https://football-logos.cc --></svg>