<svg xmlns="http://www.w3.org/2000/svg" xml:space="preserve" viewBox="118.68 19.45 556.35 755.9"><!-- Source: https://football-logos.cc --><path d="M1707.98 4346.84h2481.38c0-162.67.4-329.84 1-499.05 522.56-370.36 862.82-973.39 862.82-1654.36 0-1125.98-930.01-2039.106-2076.8-2039.106S899.582 1067.45 899.582 2193.43c0 656.53 316.278 1240.62 807.278 1613.6z" style="fill:#fff;fill-opacity:1;fill-rule:evenodd;stroke:none" transform="matrix(.13333 0 0 -.13333 0 794.667)" data-source="https://football-logos.cc"></path><path d="M2864.71 4646.25h33.15v-332.07h-33.15zM2729.4 4646.25h33.15v-332.07h-33.15zM2594.1 4646.25h33.15v-332.07h-33.15zM2458.79 4646.25h33.15v-332.07h-33.15zM2323.48 4646.25h33.16v-332.07h-33.16zM2188.18 4646.25h33.15v-332.07h-33.15zM2052.88 4646.25h33.14v-332.07h-33.14zM1917.57 4646.25h33.15v-332.07h-33.15zM3000.02 4646.25h33.15v-332.07h-33.15zM3135.32 4646.25h33.15v-332.07h-33.15zM3270.63 4646.25h33.15v-332.07h-33.15zM3405.93 4646.25h33.16v-332.07h-33.16zM3541.24 4646.25h33.15v-332.07h-33.15zM3676.55 4646.25h33.15v-332.07h-33.15zM3811.85 4646.25H3845v-332.07h-33.15zM3947.16 4646.25h33.15v-332.07h-33.15z" style="fill:#e62231;fill-opacity:1;fill-rule:evenodd;stroke:none" transform="matrix(.13333 0 0 -.13333 0 794.667)"></path><path d="M4199.86 3852.72c538.12-383.26 862.84-995.27 862.84-1659.29 0-478.3-167.92-935.14-475.07-1301.367-400.07-477.012-989.39-747.258-1611.25-747.258S1765.21 415.047 1365.14 892.047C1057.98 1258.27 890.063 1715.13 890.063 2193.43c0 639.63 301.197 1232.1 807.277 1618.33l-1.58 544.6h2503.12v-9.52c0-164.71.41-329.41.98-494.12m-91.74-1825.26c-108.44-259.09-302.21-475.72-547.13-612.97l598.69-760.611c248.93 184.371 451.81 425.581 588.5 703.751zm92.31 1674.44c1.6-398.22 3.9-796.44 3.9-1194.67 0-119.4-17.05-238.1-50.92-352.58l648.13-678.27c93.17 227.87 140.54 470.75 140.54 717.05 0 594.05-276.28 1144.74-741.65 1508.47M1820.32 1977.82l-615.47-620.68c137.86-280.32 342.95-523.046 594.61-707.874l560.81 756.814c-235.67 127.92-425.63 329.16-539.95 571.74m-668.51-502.86 618.94 624.16c-45.78 131.27-69.16 269.04-69.57 408.08l-3.4 1150.39c-433.44-364.44-687.1-894.88-687.1-1464.16 0-246.82 47.57-490.19 141.13-718.47m1319.13-122.14L1898.9 580.867c321.86-207.351 694.58-315.441 1077.48-315.441 385.54 0 760.73 109.547 1083.99 319.597l-609.72 774.637c-157.21-68.75-326.24-104-497.9-104-165.74 0-329.13 32.84-481.81 97.16" style="fill:#231f20;fill-opacity:1;fill-rule:evenodd;stroke:none" transform="matrix(.13333 0 0 -.13333 0 794.667)"></path><path d="M1707.98 4346.84h2481.38c0-162.67.4-329.84 1-499.05 522.56-370.36 862.82-973.39 862.82-1654.36 0-1125.98-930.01-2039.106-2076.8-2039.106S899.582 1067.45 899.582 2193.43c0 656.53 316.278 1240.62 807.278 1613.6zm2396.9-2302.22 654.76-685.22c-138.76-284.9-346.38-531.377-601.74-718.662l-611.31 776.652c251.05 137.75 450.04 359.75 558.29 627.23m699.87-585.39-662.04 692.84c33.87 112.63 52.09 231.87 52.09 355.16 0 390.17-2.35 806.23-3.97 1214.14 462.99-354.62 760.78-907.22 760.78-1527.94 0-259.85-52.22-507.75-146.86-734.2M1823.2 1994.24l-629.88-635.2c139.96-287.16 349.9-535.263 608.15-723.044l573.01 773.254c-241.84 128.52-436.73 334.82-551.28 584.99m-674.71-536.15 633.22 638.56c-45.57 128.66-70.58 266.86-71 410.58l-3.47 1170.62c-431.59-355.44-706.08-888.52-706.08-1484.42 0-260.29 52.38-508.58 147.33-735.34m2305.08-86.74 620.72-788.608c-314-206.383-691.63-326.84-1097.91-326.84-403.39 0-778.5 118.789-1091.17 322.485l582.54 786.133c149.12-63.89 313.06-99.34 485.01-99.34h-.01c177.95 0 347.41 38 500.82 106.17" style="fill:#e62231;fill-opacity:1;fill-rule:evenodd;stroke:none" transform="matrix(.13333 0 0 -.13333 0 794.667)"></path><path d="M2702.29 5427.95c18.04 1 36.1 1.89 54.16 2.64 75.41 3.16-20.75-.25 55.03 1.95 18.07.52 36.13.95 54.2 1.25 71.95 1.23-17.28.23 55.05.63 18.36.1 36.71.1 55.06-.01 71.16-.39-15.41.55 55.03-.6 18.9-.31 37.79-.73 56.68-1.25 70.81-1.94-15 .87 54.99-1.8 19.24-.74 38.48-1.59 57.71-2.54 71.52-3.56-16.7 1.33 54.86-3.04 15.86-.97 31.71-2 47.56-3.13l23.13 76.4-26.75 3.41 14.08 84.58 9.95-1.19.72 8.58-83.92 33.86 2.47 186.4 26.48-1.45c19.06-1.05 38.15-2.01 57.18-3.41l23.88-1.76v.04l25.94-2.49c22.75-2.18 45.47-5.2 68.17-7.86l23.56-2.76.06.45 25.45-3.56c23.87-3.33 47.76-7.1 71.55-10.95l25.09-4.07-.02-.13 23.71-4.4c23.36-4.33 46.83-8.54 70.08-13.38l25.42-5.31-.14-.59 24.6-5.72c22.18-5.16 44.58-9.78 66.63-15.43l25.43-6.51-.06-.19 23.71-6.68c18.1-5.11 36.08-10.74 54.08-16.23l25.24-7.68-58.98-169-87.6-6-1.49-9.28 6.06-1.37-13.56-84.43-22.64 5.65-5.14-150.2 32.98-8.73 17.8 67.88 24.66-6.57c22.84-6.08 45.66-12.27 68.45-18.55l24.83-6.85-19.98-68.21 17.32-4.46 19.86 67.83 24.27-6.92c22.08-6.3 44.13-12.69 66.15-19.18l24.26-7.17-19.82-67.69 17.05-5.35 19.9 67.91 24.58-7.49c21.61-6.59 43.2-13.3 64.75-20.09l24.4-7.7-21.99-67.49 16.98-5.47 22 67.51 24.17-7.9c21.48-7.01 42.91-14.15 64.31-21.4l24.38-8.26-23.85-66.99 28.88-9.88 99.22 113.14a4030 4030 0 0 1-30.98 15.17l-23.32 11.27 38.98 76.37 3.03-1.42 5.85 16.13-72.56 51.24 55.63 169.77 24.53-8.7c17.76-6.3 35.61-12.47 53.24-19.14l23.43-8.86.07.17 23.98-9.73c21.11-8.57 41.88-18.17 62.8-27.2l23.56-10.17.25.55 23.26-10.69c21.58-9.92 42.96-20.49 64.33-30.88l22.01-10.71.06.12 22.27-11.48c21.41-11.03 42.86-22.19 64.03-33.69l22.89-12.43-.23-.4 20.25-11.58c19.82-11.34 39.86-22.41 59.44-34.16l23.21-13.93-106.37-153.5-83.99 18.76-13.23-14.39 8.98-5.05-58.14-66.76c-19.7 10.89-39.42 21.77-59.24 32.48l-151.75-236.19c2.59-3.95 4.54-8.47 5.68-13.53 3.88-17.29-3.57-34.77-17.02-45.81-13.53-11.1-18.75-14.78-35.66-12.18l-125.07-195.09 1.87-.79.5-.22c18.33-8.22 30.36-24.88 30.98-45.14 1.1-35.53-30.02-60.29-62.94-53.84l-35.57-72.81c6.66-7.51 10.92-16.9 11.96-27.49 3.81-38.65-34.77-71.13-72.26-55.34-385.27 160.41-797.14 241.46-1214.65 240.8-411.05-.65-816.8-80.48-1197.09-237.32-31.6-13.01-68.71-.4-76.98 34.63-3.32 14.1-.51 27.36 6.46 38.26l-35.34 77.89c-24.79-6.16-50.18 3.25-61.6 27.7-9.54 20.41-5.14 43.06 9.37 58.27l-133.1 233.67c-17.02-1.75-22.04 2.18-34.95 13.94-12.86 11.7-19.37 29.53-14.57 46.61 1.41 4.99 3.59 9.4 6.39 13.22l-139 243.46c-20.36-9.7-40.63-19.58-60.89-29.48l-54.5 69.59 9.22 4.59-12.44 15.03-84.87-14.53-98.078 158.61 23.922 12.76c20.176 10.75 40.776 20.8 61.176 31.13l20.83 10.56-.21.41 23.53 11.27c21.75 10.42 43.76 20.49 65.74 30.44l22.85 10.34.05-.11 22.55 9.6c21.89 9.3 43.8 18.78 65.89 27.61l23.79 9.51.22-.55 24.07 8.98c21.37 7.98 42.62 16.52 64.16 24.02l24.47 8.53.06-.19 23.87 7.69c17.96 5.77 36.11 11.04 54.18 16.45l24.97 7.46 46.53-172.32-75.19-47.56 4.99-16.4 3.09 1.27 34.88-78.21-23.89-10.1c-10.6-4.47-21.18-9.01-31.75-13.59l108.47-137.46 21.19 7.32-23.86 66.91 24.38 8.34c21.4 7.32 42.83 14.52 64.31 21.6l24.18 7.98 21.99-67.45 16.98 5.53-21.99 67.42 24.4 7.78c21.55 6.86 43.14 13.63 64.76 20.29l24.57 7.57 19.9-67.85 17.05 5.4-19.83 67.64 24.27 7.23c22.02 6.57 44.07 13.02 66.14 19.4l24.28 7 19.87-67.77 17.31 4.51-19.98 68.15 24.82 6.93c22.8 6.35 45.62 12.6 68.47 18.76l24.65 6.65 17.81-67.82 37.11 9.94-4.31 150.14-25.88-5.72-13.96 84.21 7.38 1.86-2.64 9.17-87.56 5.93-56.85 177.45 25.58 7.03c18.42 5.05 36.84 10.21 55.34 14.93l23.22 5.91-.01.04 25.39 5.87c22.28 5.15 44.8 9.5 67.18 14.2l23.22 4.86-.08.45 25.28 4.71c23.7 4.41 47.56 8.43 71.36 12.33l25.09 4.11.03-.13 23.89 3.36c23.53 3.31 47.13 6.77 70.74 9.56l25.8 3.05.05-.6 25.17 2.38c22.68 2.15 45.39 4.88 68.1 6.53l26.2 1.9v-.2l24.61 1.19c18.81.92 37.65 1.29 56.47 1.8l26.38.74-2.3-178.9-78.36-31.83 2-10.62 4.97-.22 14.19-84.56-25.26-1.68 22.9-77.11c18.41 1.61 36.83 3.06 55.26 4.36 68.41 4.84-15.09-.43 55 3.47" style="fill:#231f20;fill-opacity:1;fill-rule:evenodd;stroke:none" transform="matrix(.13333 0 0 -.13333 0 794.667)"></path><path d="M2944.64 4859.54c472.64.74 922.74-94.89 1332.05-268.05 32.33-14.51 11.35-63.88-23.59-48.67-402.15 169.75-844.27 263.48-1308.46 262.75-462.81-.73-903.68-95.28-1304.89-265.35-37.24-13.67-53.82 33.67-23.63 48.59 408.36 173.5 857.26 269.98 1328.52 270.73" style="fill:#f0931d;fill-opacity:1;fill-rule:evenodd;stroke:none" transform="matrix(.13333 0 0 -.13333 0 794.667)"></path><path d="M2944.64 4780.18c456.06.72 890.65-90.44 1286.56-255.72l-32.81-67.19c-385.97 160.52-809.43 249.02-1253.75 248.32-442.25-.7-863.86-89.71-1248.39-250.04l-30.82 67.93c393.93 164.59 825.97 255.98 1279.21 256.7" style="fill:#f0931d;fill-opacity:1;fill-rule:evenodd;stroke:none" transform="matrix(.13333 0 0 -.13333 0 794.667)"></path><path d="M2944.64 4680.2c442.37.69 863.91-87.72 1247.93-248.03 29.99-15.74 6.16-61.18-23.46-48.7-376.9 156.93-790.5 243.44-1224.47 242.76-427.16-.67-834.6-85.76-1206.72-239.23-39.97-16.45-61.58 32.91-23.31 48.71 379.21 156.81 794.54 243.8 1230.03 244.49M1167.12 5236.85c112.42 58.36 199.2 98.23 293.62 133.49l11.19-36.81c-98.84-40.44-184.55-79.02-280.1-126.52zM1008.51 5345.33c17.03 9.08 43.88 22.36 60.71 30.89l39.93-76.2 42.8 21.66-39.09 76.53c17.76 8.5 47.76 22.3 65.24 30.21l36.44-77.99 44.65 20.15-36.17 77.43c18.12 7.7 47.61 20.31 65.37 27.4l30.44-78.42 47.09 18.89-30 77.26c18.16 6.77 45.97 17.68 63.63 23.83l25.6-78.81 47.63 16.48-25.39 78.17c16.66 5.35 37.56 11.48 53.67 16.29l33.45-123.87c-159.59-51.95-310.97-117.33-454.74-195.13zM1198.05 5182.42c83.32 41.38 200.89 95.17 287 130.6l14.29-32.06c-78.66-33.23-201.12-89.56-278.65-127.43zM1297.93 5160.9c47.39 27.88 94.74 45.32 157.28 70.23l410.94-520.77a3422 3422 0 0 1-102.02-35.67c-29.04 46.9-71.29 94.13-109.94 137.03-55.04 61.09-124.49 144.62-223.31 116.33l-12.29 21.54 63.5 32.93-8.43 18.05-64.95-33.68-21.67 37.94 63.29 32.82-8.44 18.06-64.73-33.58-17.1 29.95 65.63 34.04-8.44 18.05-67.07-34.78-16.34 28.63 61.4 31.85-8.43 18.04-62.85-32.59zm397.26-512.39c-113.42 167.72-177.22 204.51-226.47 210.75-40.21-6.48-52.84 39.51-16.86 41.65 68.3 13.37 138.82-55.95 179.28-102.05 36.65-41.75 76.63-88.68 105.23-134.52-13.75-5.18-27.48-10.46-41.18-15.83m-300.37 513.4 40.37 16.5 79.27-131.75-40.37-16.51zM4720.1 5198.68c-109.18 63.9-193.72 108.05-286.15 147.99l-13.13-36.2c96.57-45.33 180.11-88.14 273.01-140.36zM4884.25 5299.09c-16.52 9.92-42.62 24.52-58.98 33.88l-43.93-74.11-41.59 23.77 43.1 74.48c-17.28 9.38-46.51 24.66-63.54 33.43l-40.53-76.06-43.53 22.35 40.24 75.52c-17.69 8.6-46.47 22.67-63.83 30.63l-34.57-76.8-46.01 21.23 34.06 75.65c-17.78 7.68-44.97 19.96-62.28 26.99l-29.76-77.42-46.69 18.83 29.51 76.79c-16.35 6.19-36.9 13.34-52.73 18.95l-39.99-122.03c156.62-59.86 304.32-132.71 443.77-217.6zM4686.31 5145.87c-81.01 45.49-195.56 105.09-279.67 144.77l-15.99-31.3c76.8-37.13 196.1-99.5 271.52-141.19zM4585.42 5129.37c-45.85 30.21-92.2 49.99-153.35 78l-22.25-25.37 53.03-32.28-1.2-1.81 27.07-12.69-86.17-127.62-39.44 18.51 24.53 36.33-53.89 32.81-19.31-22.02 55.38-33.71-11.07-16.6-57.65 35.09-22.81-26 53.8-32.75-11.06-16.6-56.08 34.14-30-34.21 55.72-35.68-11.06-16.62-57.97 37.12-24.5-27.94 54.12-35.36-11.06-16.6-56.34 36.81-28.96-33.02 56.63-37-11.06-16.61-58.85 38.46-22.94-26.16 61.17-39.97-11.07-16.6-63.39 41.42-31.35-35.75 61.05-39.9-11.07-16.59-63.27 41.34-22.89-26.1 58-37.9-11.06-16.6-60.22 39.35-20.07-22.88c34.34-11.08 68.52-22.69 102.53-34.86 30.12 39.3 68.52 77.96 104.05 113.51 58.2 58.26 132.01 138.2 229.19 105.02zm-188.94 37.42-15.57-17.77 46.21-28.12 13.03 19.31zm-28.91-32.98-20.48-23.35 51.72-31.48 17.14 25.38zm-189.84-475.06c111.84 143.58 173.83 174.32 221.1 177.92 39.81-8.49 54.87 36.81 19.05 40.75-67.49 16.76-141.61-48.94-184.46-92.94-33.19-34.1-69.04-71.85-98.11-109.81 14.17-5.22 28.32-10.52 42.42-15.92M2130.36 5550.64c167.32 38.94 288.54 57.96 414.57 68.15l6.06-37.61c-144.47-16.19-272.41-37.68-414.57-68.16zM1997.15 5683.56c16.38 4.49 38.74 10.69 54.89 14.81l23.85-85.74 45.9 13.02-21.7 84.41c18.81 4.35 48.18 10.21 66.66 14.08l17.54-84.2 46.96 9.81-16.64 84.3c19.35 3.6 51.9 9.14 70.82 12.24l13.71-85.01 48.33 7.86-13.6 84.4c19.48 2.74 51.21 7.25 70.17 9.5l7.85-83.88 50.32 6.02-7.73 82.62c19.27 1.83 48.92 5.13 67.55 6.49l3.08-82.99 50.19 3.54-3.07 82.3c17.45.85 39.17 1.32 55.93 1.78l-1.65-128.65c-201.99-10.49-397.82-43.06-588.03-95.72zM2133.91 5487.27c135.04 29.33 287.51 54.23 424.86 69.25l5.61-34.82c-135.96-16.03-288.43-40.93-424.85-69.25zM2169.19 5432.11c123.71 27.26 248.47 48.03 374.49 60.97l182.93-615.33c-34.65-2.24-69.25-4.98-103.79-8.25-17.66 66.93-40.36 132.68-69.42 193.98-26.88 56.71-81.04 161.29-157.08 148.91-43.46-7.07-65.18-46.13-78.18-84.06-11-32.12-17.61-66.33-22.19-100.15l-2.16 13.31-112.54-19.31-1.29 43.86 112.28 19.26-3.17 19.67-109.7-18.81-1.08 36.67 113.76 20.59-3.17 19.68-111.18-20.12-1.31 44.35 110.45 22.59-3.18 19.68-107.87-22.06-1.01 34.53 73.35 15 .57-10.46 42.64 9.14-8.51 153.62-42.63-9.14 1.27-22.93-70.25-14.37-.69 23.58 109.92 22.48-3.18 19.68-107.33-21.96zm4.99-169.84-.86 29.24 72.08 14.74 1.61-29.08zm-1.45 49.44-.91 31.01 70.76 14.48 1.71-30.84zm122.33-290.23c-.38-2.91-.73-5.82-1.08-8.73-1.06-8.92-2.02-17.87-2.84-26.86l-108.27-18.57-1.02 34.74zm-5.6-56.09a1068 1068 0 0 1-2.4-48.14l-102.2-17.53-1.4 47.48zm-2.79-68.43c-.12-11.59-.05-23.19.17-34.8l-100.37-17.22-1.02 34.66zm.73-54.93c.25-6.97.56-13.94.92-20.9-33.61-6.57-67.12-13.64-100.53-21.2l-.72 24.89zm268.01 20.4c-50.93 185.95-122.18 288.45-148.48 284.17-25.74-4.19-60.29-132.49-52.26-313.2-13.71-2.4-27.4-4.88-41.08-7.45-3.07 61.84-1.55 123.99 5.61 183.83 4.35 36.42 11.05 75.58 22.97 110.36 9.57 27.95 25.48 61.86 58.19 67.19 59.62 9.7 109.96-92.28 130.09-134.76 27.56-58.12 49.46-121.35 66.66-185.62-13.91-1.43-27.82-2.93-41.7-4.52m-111.42 573.18 43.33 4.84 40.2-148.46-43.33-4.85zM3354.23 5619.54c170.95-16.17 284.5-36.64 407.18-66.99l-6.2-37.6c-142.06 30.51-262.76 50.75-407.17 66.98zM3267.34 5787.28c16.94-.94 40.11-2.15 56.73-3.37l-4.63-88.93 47.64-2.21 6.23 86.98c19.21-1.85 48.91-5.62 67.65-7.82l-10.1-85.45 47.62-5.6 10.98 85.26c19.49-2.72 52.09-7.8 71.01-10.87l-14-85.01 48.32-7.88 13.89 84.39c19.34-3.59 50.84-9.38 69.53-13.27l-19.2-82.07 49.61-10.27 18.9 80.85c18.84-4.39 48-10.67 66.08-15.3l-23.42-79.71 48.68-12.58 23.23 79.06c16.8-4.73 37.54-11.18 53.57-16.07l-42.41-121.54c-194.77 54.18-390.71 85.46-587.7 95.89zM3334.37 5558.56c137.29-15.05 288.27-40.39 423.21-69.75l-5.74-34.82c-133.94 27.96-284.93 53.3-423.2 69.75zM3350.56 5494.1c125.9-13.42 250.73-33.33 374.28-61.06l-21.62-631.13a3435 3435 0 0 1-100.94 21.02c4.04 66.92 3.2 134.21-4.62 199.44-7.48 62.34-25.59 178.75-101.6 191.15-43.43 7.09-76.43-23.07-100.78-54.93-20.62-26.99-37.76-57.35-52.84-87.97l2.19 13.31-112.79 17.41 12.7 42.02 112.53-17.38 3.24 19.68-109.95 16.97 10.62 35.14 114.36-16.58 3.24 19.67-111.76 16.22 12.84 42.49 111.85-13.63 3.24 19.68-109.24 13.31 10.01 33.09 74.27-9.06-2.77-10.11 43.31-4.86 40.71 148.45-43.31 4.86-6.08-22.16-71.13 8.67 6.83 22.59 111.31-13.56 3.24 19.67-108.7 13.25zm-49.2-162.73 8.48 28.01 72.99-8.89-7.71-28.1zm14.32 47.38 8.98 29.7 71.67-8.74-8.17-29.8zm23.8-314.21c-1.28-2.65-2.54-5.29-3.79-7.93-3.85-8.14-7.59-16.32-11.23-24.58l-108.51 16.75 10.07 33.29zm-23.12-51.44c-6.17-14.79-12.02-29.77-17.56-44.9l-102.43 15.81 13.75 45.49zm-24.36-64.03c-3.79-10.96-7.42-22-10.89-33.08l-100.6 15.54 10.04 33.2zm-16.76-52.35c-2.58-8.75-5.06-17.53-7.45-26.34-34.39 3.17-68.84 5.81-103.36 7.94l10.25 33.93zm260.7-61.7c10.06 190.22-24.61 308.45-50.72 312.71-25.9 4.23-100.22-108.11-150-284.23-13.89 1.56-27.79 3.02-41.71 4.41 16.95 61.45 38.6 121.77 65.13 177.87 15.69 33.17 34.48 68.19 56.81 97.41 17.94 23.48 43.79 50.6 76.48 45.27 59.59-9.72 74.92-122.46 80.52-169.15 7.44-62.09 8.3-127.05 4.57-191.62-13.68 2.52-27.37 4.97-41.08 7.33m76.17 575.14 42.6-9.16-9.03-153.62-42.61 9.16zM1602.85 5085.52l36.8 12.71-23.83 66.83c21.15 7.24 42.51 14.42 64.04 21.52l21.96-67.36 65.29 21.27-21.93 67.26c21.39 6.82 42.92 13.57 64.52 20.22l19.94-68.04 65.51 20.74-19.71 67.23a8128 8128 0 0 0 65.93 19.33l19.68-67.14 66.51 17.3-20.1 68.59c22.81 6.37 45.57 12.61 68.24 18.72l17.79-67.79 56.06 15.01 1.04-37.87-12.08-2.94c-172.25-42.01-346.6-90.82-513.96-153.13zm548.45 102.57.76-27.66c-37.61-9.07-75.2-18.51-112.7-28.36l-6.97 26.04c37.41 9.8 74.81 19.23 112.1 28.33zm1.47-53.6 1.02-36.87c-7.47-1.94-14.92-3.88-22.38-5.84l-7.67 35.61c9.67 2.39 19.35 4.76 29.03 7.1m1.73-62.91 1.89-68.97q-36.18-9.66-72.27-19.68l-14.23 65.99a5762 5762 0 0 0 84.61 22.66m2.61-95.05.84-30.73-6.44 29.23zm-30.15-8.15 15.05-68.24c-41.44-10.71-82.89-21.85-124.22-33.53l-19.49 65.49c42.77 12.51 85.67 24.58 128.66 36.28m32.84-89.87 2.33-84.5c-12.19-2.86-24.35-5.79-36.5-8.78l-17.22 79.88c17.13 4.55 34.26 9 51.39 13.4m-75.96-19.99 17.12-79.46a3417 3417 0 0 1-131.89-36.34l-25.05 75.91c46.43 14.02 93.09 27.26 139.82 39.89m-164.12-47.32 25.02-75.81a3445 3445 0 0 1-52.86-16.61l-52.57 66.69c26.69 8.86 53.51 17.44 80.41 25.73m-97.1-4.55-44.57 56.55c20.5 6.86 41.02 13.61 61.59 20.24l23.93-63.33c-13.68-4.4-27.33-8.9-40.95-13.46m65.19 21.19-23.93 63.34c36.57 11.6 73.26 22.84 110.05 33.74l19.43-65.29c-35.3-10.17-70.51-20.74-105.55-31.79m-126.44 56.54-43.64 55.37a5940 5940 0 0 0 150.06 49.44l19.1-64.17c-42-13.07-83.85-26.6-125.52-40.64m149.79 48.14-19.12 64.26c50.9 15.79 102.02 30.9 153.34 45.31l14.22-66.01c-49.64-13.96-99.14-28.45-148.44-43.56m-210.07 28.34-25.57 32.44c34.02 12.33 68.24 24.14 102.63 35.48l14.05-37.22c-30.45-9.99-60.82-20.23-91.11-30.7m115.3 38.58-14.06 37.22c43.6 14.07 87.45 27.4 131.47 40.07l11.11-37.32a5892 5892 0 0 1-128.52-39.97m152.88 47.19-11.03 37.06c46.79 13.2 93.77 25.68 140.83 37.54l7.76-35.97c-46.01-12.32-91.87-25.2-137.56-38.63m-310.3-32.32-17.91 22.72c19.33 7.14 38.76 14.1 58.26 20.9l8.54-26.19a3688 3688 0 0 1-48.89-17.43m72.91 25.72-8.54 26.17c41.04 13.96 82.39 27.18 123.93 39.78l7.78-26.15c-41.27-12.62-82.34-25.87-123.17-39.8m147.49 47.16-7.78 26.09c45.29 13.46 90.75 26.2 136.24 38.34l6.97-26.06c-45.3-12.14-90.47-24.9-135.43-38.37M4292.83 5087.03l-42.92 15.31 23.82 66.91c-21.15 7.16-42.52 14.28-64.04 21.31l-21.96-67.42-65.29 21.06 21.94 67.33a7274 7274 0 0 1-64.52 20.02l-19.95-68.11-65.51 20.53 19.71 67.3c-21.95 6.47-43.94 12.84-65.93 19.12l-19.68-67.2-66.51 17.1 20.1 68.65c-22.81 6.29-45.57 12.45-68.23 18.5l-17.8-67.85-52.3 13.84-1.3-37.72 8.58-2.06c172.25-41.44 351.37-91.77 518.72-153.55zm-552.19 75.15c36.56-8.72 73.09-17.79 109.55-27.26l6.97 26.07c-37.41 9.68-74.81 18.99-112.1 27.97l-3.48.84zm-2.15-62.77c6.55-1.68 13.1-3.36 19.65-5.07l7.68 35.63c-8.69 2.13-17.38 4.22-26.07 6.3zm-3.25-94.86c23.43-6.2 46.82-12.5 70.19-18.91l14.23 66.04c-27.3 7.45-54.66 14.7-82.06 21.74zm-1.6-47.01 4.4 19.99-3.68.97zm28.95 13.42-15.05-68.29c41.44-10.58 82.89-21.59 124.22-33.14l19.49 65.55c-42.77 12.37-85.67 24.31-128.66 35.88m1.32-183.22 17.23 80.01a6149 6149 0 0 1-50.13 12.91l-2.88-84.42c11.94-2.77 23.87-5.6 35.78-8.5m41.8 73.49-17.14-79.59c11.75-2.94 23.5-5.96 35.23-9.03 16.25-4.23 32.37-8.58 48.33-13.07 16.14-4.49 32.25-9.09 48.33-13.82l25.07 76.06c-46.42 13.88-93.09 26.97-139.82 39.45m164.12-46.8-25.04-75.97c11.07-3.35 22.12-6.76 33.16-10.21l57.46 65.55c-21.78 7.07-43.66 13.94-65.58 20.63m132.35 55.54c-17.39 5.74-34.82 11.39-52.27 16.95l-23.93-63.4c9.23-2.94 18.46-5.92 27.66-8.93zm-100.44-38.8 23.93 63.42c-36.57 11.48-73.26 22.6-110.04 33.39l-19.44-65.35c35.3-10.06 70.51-20.52 105.55-31.46m166.17 113.78c-48.51 16.5-97.23 32.38-146.14 47.63l-19.11-64.23c39.38-12.13 78.62-24.65 117.71-37.64zm-189.52-9.18 19.13 64.32a5832 5832 0 0 1-153.34 44.83l-14.23-66.05c49.64-13.81 99.14-28.14 148.44-43.1m235.48 61.6a3781 3781 0 0 1-102.47 35.08l-14.06-37.26c29.64-9.63 59.2-19.49 88.69-29.58zm-140.71 5.63 14.06 37.26c-43.6 13.93-87.45 27.12-131.47 39.66l-11.11-37.36c42.99-12.7 85.83-25.9 128.52-39.56m-152.88 46.7 11.03 37.1c-46.79 13.05-93.77 25.38-140.83 37.09l-7.76-35.99a5833 5833 0 0 0 137.56-38.2m310.98-32.02 20.63 22.09c-19.33 7.09-42.16 15.35-61.66 22.08l-8.54-26.21c16.34-5.64 33.32-12.09 49.57-17.96m-73.59 26.17 8.54 26.19c-41.03 13.84-82.39 26.92-123.92 39.4l-7.79-26.17c41.27-12.5 82.34-25.62 123.17-39.42m-147.49 46.69 7.77 26.12c-45.27 13.32-90.74 25.91-136.23 37.91l-6.97-26.08c45.3-11.99 90.47-24.61 135.43-37.95M2599.41 5395.25c16.36 1.41 32.92 2.72 49.63 3.9l3.24-70.68 54.61 3.25-3.24 70.87c17.81.99 35.76 1.87 53.82 2.63l1.7-70.84 54.71 2.03-1.7 70.74c17.9.53 35.89.95 53.89 1.25v-70.94l54.77 1.48v70.09c18.26.1 36.52.1 54.77-.01v-70l54.75-2.1v71.5c18.89-.31 37.69-.73 56.41-1.24l-1.59-70.09 54.72-1.63 1.58 69.92c19.31-.73 38.46-1.58 57.42-2.52l-4.09-70.37 54.62-2.27 4.05 69.62c14-.86 27.87-1.78 41.59-2.75l-29.34-96.89c-210.55 12.38-426.68 16.28-637.03-3.58zm36.66-123.44c12.77 1.19 25.56 2.28 38.37 3.3l2.4-27.2a3614 3614 0 0 1-32.9-2.61zm63.7 5.19c31.05 2.18 62.2 3.87 93.41 5.14l1.63-27.5c-30.9-1.25-61.79-2.88-92.63-4.94zm118.79 6.08c39.31 1.31 78.71 1.95 118.11 2.03v-27.36c-38.84-.17-77.68-.87-116.47-2.18zm143.51 2.01c37.41-.15 74.82-.79 112.16-1.82l-.72-27.06c-37.13.97-74.29 1.51-111.44 1.57zm137.55-2.59c35.85-1.17 71.63-2.69 107.28-4.5l-2.38-26.88c-35.16 1.8-70.38 3.27-105.63 4.37zm132.65-5.84c8.64-.46 17.27-.96 25.89-1.46l-8.05-26.6c-6.73.4-13.47.79-20.22 1.16zm-580.95-56.22c19.79 1.63 39.6 3.09 59.42 4.38l4.26-47.57c-16.71-.76-33.41-1.59-50.12-2.48zm84.79 5.92a3640 3640 0 0 0 102.91 4.41l2.32-49.09c-33.65-.82-67.3-1.94-100.94-3.32zm128.31 5.05c51.81 1.15 103.67 1.27 155.5.5l-.71-48.5c-50.82.26-101.66-.12-152.47-1.15zm180.89.06c40.1-.81 80.18-2.13 120.21-3.91l-4.17-46.58a5902 5902 0 0 1-116.74 2.25zm145.59-5.09c17.23-.85 34.45-1.78 51.64-2.78l-13.63-45c-14.04.57-28.09 1.1-42.14 1.58zm-518.59-76.65c35.48 1.87 70.95 3.43 106.44 4.68l3.45-66.39a5053 5053 0 0 1-90.42-3.84zm131.83 5.51c42.81 1.33 85.63 2.18 128.46 2.59v-66.92c-41.68-.24-83.36-.92-125.02-2.11zm153.85 2.77c46.92.25 93.84-.06 140.76-.94l-3.5-67.34c-45.75.9-91.5 1.34-137.26 1.28zm166.15-1.47c32.4-.75 64.8-1.76 97.17-3.06l-20.17-66.62c-26.82.91-53.66 1.69-80.49 2.32zm-424.92-97.41c11.36.57 22.73 1.1 34.09 1.6l4.85-69.42c-6.16-.35-12.31-.72-18.47-1.11zm59.48 2.64c34.01 1.29 68.03 2.24 102.05 2.87l2.45-68.56c-33.26-.68-66.5-1.79-99.66-3.42zm127.45 3.29c40.1.57 80.23.69 120.34.44l-1-69.04c-38.96.54-77.94.6-116.89.06zm145.73.23c35-.36 69.99-1 104.98-1.9l-3.65-70.31c-34.06 1.31-68.18 2.31-102.33 2.96zm130.37-2.59c10.43-.31 20.85-.64 31.28-.99l-21.27-70.26-13.68.6zm-435.14-97.48c24.9 1.52 49.84 2.75 74.81 3.69l6.21-86.39c-18.2-.62-36.4-1.37-54.6-2.23zm100.21 4.56c35.5 1.08 71.07 1.62 106.63 1.7v-86.6c-8.89-.04-17.79-.11-26.68-.22l-1.57-.02c-24.06-.21-48.11-.67-72.17-1.34zm132.03 1.69c39.23-.13 78.46-.81 117.63-1.92l-5.81-86.73c-37.22 1.3-74.5 1.99-111.82 2.09zm143.02-2.7c20.78-.69 41.56-1.51 62.29-2.41l-25.79-86.54c-14.1.77-28.21 1.45-42.32 2.04z" style="fill:#f0931d;fill-opacity:1;fill-rule:evenodd;stroke:none" transform="matrix(.13333 0 0 -.13333 0 794.667)"></path><path d="m3892.1 1406.05 117.86-142.76 148.49 163.43 80.77-85.06-154.02-169.52 140.39-170.07 321.27 358.31 81.5-85.83-404.95-459.046-490.1 589.746 376.97 414.89 80.76-85.06z" style="fill:#231f20;fill-opacity:1;fill-rule:evenodd;stroke:none" transform="matrix(.13333 0 0 -.13333 0 794.667)"></path><path d="m4223.63 830.141-477.7 574.829 364.5 401.17 67.62-71.21-298.55-328.57 130.11-157.61 149 163.98 67.62-71.21-153.63-169.08 152.69-184.971 321.76 358.871 68.4-72.03z" style="fill:#e62231;fill-opacity:1;fill-rule:evenodd;stroke:none" transform="matrix(.13333 0 0 -.13333 0 794.667)"></path><path d="M2593.93 3852.8c-4.09 33.6-1.27 67.45 46.06 79.99 24.89 11.87 45.28 3.97 41.89 39.97-2.12 22.57-4.13 92.72 29.66 141.2 24.54 35.23 67.72 83.16 153.69 80.2 88.84-3.07 119.84-28.09 202.13-128.64 32.28-39.46 63.99-21.6 87.7-14.05 64.12-61.83 59.94-75.56 49-157.64 17.84-24.89 52.22-5.49 93.73-17.13 51.71-14.51 44.15-51.52 211.12-57.79 83.55-3.14 158.75 37.69 239.31 24.14 29.42-4.95 56.29-28.01 82.88-44.24 99.88-60.93 82.49-59.9 49.25-113.79-24.26-39.33-57.21-70.13-98.71-92.98-28.63-15.77-63.81-4.92-96.96-11.33-48.11-9.29-63.04-65.03-104.65-79.01-60.82-20.43-114.41-17.82-146.6-30.11 10.36-24.79 2.3-143.93 56.94-206.78 45.27-52.08 106.29-73.14 143.2-119.35 20.92-26.18 30.78-51.28 35.08-69.45 2.25-9.52 2.98-17.15 2.97-22.04 55.6 6.96 103.13 3.37 138.32-17.06s58.06-57.7 64.33-118.1c16.29-207.81-262.91-227.56-292.24-281.35-15.7-8.35 77.08-77.35 82.36-125.67 6.63-60.74-81.73-100.18-120.4-101.84-162.75-7-133.04 74.03-179.78 76.47-71.16 3.71-93.41-104.87-184.02-116.74-39.39-5.17-142.49 42.78-135.48 136.61-11.99-1.65-31.86-15.02-49.48-18.29-13.7-2.54-30.97-3.95-40.15-5.27-45.55-60.5-80.81-64.81-114.9-68.42-37.18 7.85-62.08 24.78-79.59 47.08-20.52 26.13-26.83 58.32-34.93 93.34-12.64 54.61-60.5 39.47-55.28 153.52-109.27-6.38-180.21 76.84-199.34 128.92-21.81 59.33.9 159.08-25.38 205.16-69.18 60.05-93.35 92.48-103.52 146.46-15.03 79.83 51.52 119.48 53.09 186.81 1.57 67.36-80.16 87.52-102.29 197.19-156.15 39.29-199.78 110.73-184.84 175.24 4.84 20.91 27.06 23.13 63.31 38.4s75.73 43.29 104.32 49.73c41.73 9.38 75.24-29.38 115.88-21.69 50.07 9.47 66.24 43.25 99.98 49.32 33.95 6.11 68.56-7.93 102.34-10.99" style="fill:#fff;fill-opacity:1;fill-rule:evenodd;stroke:none" transform="matrix(.13333 0 0 -.13333 0 794.667)"></path><path d="M2788.58 2610.29c-46.97 32.62-83.82 66.42-61.72 128.54 7.07 19.86 14.16 40.98 11.35 81.03-13.63-17.1-86.37-74.51-165-14.31-75.55 57.84-62.11 184.11-65.85 263.07-40.86 42.57-92.45 90.26-103.85 135.71-15.88 63.28 41.67 112.96 55.71 168.08-13.1 33.05-1.62 81.39-25.7 108.08-57.64 63.92-71.77 120.05-96.78 183.15 8.5 11.91-154.52-15.92-156.55 70.03-.22 9.42 26.22 7.11 40.42 13.95 23.67 11.4 44.81 31.63 82.38 29.61 17.85-4.01 48.51-23.27 97.73-25.1 17.97 20.41 55.94 40.39 87.06 37.48 18.67-1.73 32.11-11.79 57.29-17.65 30.19-7.03 38.41 10.61 74.56 11.41 28.05.62 49.32-11.57 83.36-13.79 30.03-1.96 73.33 5.94 92.89 7.26 26.81 1.82 25.85 22.73 28.08 33.77-25.47 7.68-52.33 12.99-78.09 39.13-13.49 13.69-50.78 42.12-108.19 7.28 3.61 79.13 94.17 55.39 108.11 53.24s27.37-1.74 34.29 3.43c6.29 4.69 5.06 12.25-2.22 27.25-15.51 31.92-27.22 54.49-29.25 78.39-5.76 67.9 42.28 116.63 107.2 115.22 46.96-1.01 77.8-25.62 107.72-58.92 20.47-22.79 36.21-53.67 73.57-84.13 20.17-16.45 74.17-30.15 98.5-1.16 5.88-51.76-44.9-79-61.21-89.9 23.24-24.37 49.43-47.62 76.69-60.59 59.99-28.52 114.38 1.26 157.38-51 96.2-6.64 180.43-10.87 282.15-19.87 28.53-2.52 60.59 13 92.78 9.5 41.4-4.51 66.71-28.07 101.4-30.45 26.96-17.55-27.77-55.41-56.22-62.67-38.98-9.95-85.14 35.74-115.75 12.19-4.58-32.61-35.23-154.37-64.84-137.32-61.76 35.55-124.3 22.67-187.82 24.48-14.02-105.56-.61-217.1 29.32-292.2 22.31-55.98 68.57-104.57 133.32-143.16 56.23-33.51 70.11-54.14 71.95-110.79.29-9.28-1.71-22.84-1.8-34.04 27.6-1.13 76.07.97 121-5.16 37.23-5.09 69.97-24.18 76.27-71.97 15.36-116.52-98.33-211.96-291.86-218.95-44.65-1.61-85.48 3.62-140.92 21.6-.69-10.44-11-27.93-3.06-38.13 161.69-33.31 255.1-150.88 179.99-198.68-37.36-23.78-83.23 16.2-144.58 64.87-41.7 16.15-103.12-41.72-162.99-21.31-50.82-75.25-90.75-112.43-160.62 29.94-33.57-18.14-75.3-28.11-136.07 2.71-78-94.28-136.06-96.98-141.53 40.85" style="fill:#231f20;fill-opacity:1;fill-rule:evenodd;stroke:none" transform="matrix(.13333 0 0 -.13333 0 794.667)"></path><path d="M2533.64 3056.14c.99-9.64.89-19.93.69-30.03-1.01-49.4-5.24-104.11 13.63-146.37 6.38 38.65 53.33 90.06 46.81 125.44-5.87 31.87-33.47 38.24-61.13 50.96" style="fill:#e62231;fill-opacity:1;fill-rule:evenodd;stroke:none" transform="matrix(.13333 0 0 -.13333 0 794.667)"></path><path d="M2534.38 3571.17c-7.97 77.66-35.47 163.55-121.72 167.03 30.52-60.36 38.63-136.75 25.99-219.54 27.26 10.97 57.39 24.84 95.73 52.51" style="fill:#fff;fill-opacity:1;fill-rule:evenodd;stroke:none" transform="matrix(.13333 0 0 -.13333 0 794.667)"></path><path d="M2435.84 3502.03c3.04-3.64 6.18-7.27 9.47-10.91 2.74-3.04 5.17-6.33 7.3-9.84 11.11-18.29 12.91-40.45 14.53-61.29.74-9.43 1.41-21.69 3.5-32.44 32.84 53.22 69.4 108.92 65.09 168.22-27.87-21.58-68.93-40.93-99.89-53.74" style="fill:#e62231;fill-opacity:1;fill-rule:evenodd;stroke:none" transform="matrix(.13333 0 0 -.13333 0 794.667)"></path><path d="M2342.39 3679.96c15.14-19.4 25.08-52.82 31-68 3.31-8.47 6.69-16.62 10.18-24.51 27.42-31.63 31.7 76.64 17.61 100.8-21.29-.77-37.91-2.2-58.79-8.29M2397.66 3736.38c-21.69 1.05-42.2 5.38-62.75 12.48-10.38 3.59-23.63 9.96-34.13 12.58-11.43.43-42.03-11.1-54.33-16.48-2.14-.92 2.01-6.54 12.27-6.91 7.98-.28 21.02-1.12 29.01-3.61 17.16-5.35 25.83-13.27 23.44-14.6-8.31-7.79-20.42 4.11-37.58 7.09-19.44 3.37-40.14 3.65-46.1 6.39-6-2.89-12.68-4.43-19.21-5.59-13.15-2.35-14.15-4.66-4.21-16.69 11.63-14.11 34.72-20.22 51.96-23.14 35.96-6.1 51.27-4.2 83.08 7.63 12.44 4.63 28.06 5.45 60.71 5.02 11.43-.14 13.14 3.17 9.82 12.97-3.2 9.46-7.16 17.4-11.98 22.86" style="fill:#fff;fill-opacity:1;fill-rule:evenodd;stroke:none" transform="matrix(.13333 0 0 -.13333 0 794.667)"></path><path d="M2508.29 3397.97c-12.83-20.26-26.9-41.08-41.11-63.37-15.92-37.04-47.75-85.21-37.41-126.41 12.77-50.91 55.75-77.18 82.73-107.17 18.25-13.61 44.18-22.39 61.93-31.52-50.05 89.25-87.28 176.75-66.14 328.47" style="fill:#e62231;fill-opacity:1;fill-rule:evenodd;stroke:none" transform="matrix(.13333 0 0 -.13333 0 794.667)"></path><path d="M2832.36 3778.76c-7.88-12.33-21.39-16.8-35.41-17.75-31.95-2.16-76.01-10.75-108.58-.47 29.45-63.33-1.74-148.41-12.38-145.95-9.4 2.18 37.09 104.86-32.3 151.09-6.52 1.23-17.08 1.97-23.71 1.82 42.43-56.75 17.64-124.94 12.31-123.77-5.64 1.23.22 49.11-8.24 75.7-7.94 24.97-21.32 33.24-29.41 43.53-14.37-4.85-24.05-10.82-45.68-5.78 40.25-61.9 28.57-143.57 18.94-142.67-3.17.29 2.64 58.1-15.68 98.03-9.62 20.99-42.21 59.94-65.91 61.27-10.03.94-21.57-1.29-32.79-5.49 62.37-48.8 108.59-126.12 110.78-211.17.92-35.51-7.6-67.02-21.64-97.73-48.68-172.71-2-296.01 67.85-421.87l-.32-.89c6.03-10.43 8.68-22.25 6.98-36.45-5.45-45.41-50.87-95.78-51.56-148.16 4.28-4.83 9.09-9.35 14.53-13.52 34.2-23.97 95.53-35.82 110.04-24.26-9.28 10.21-29.73 31.19-23.73 42.6 7.34 13.98 50.17-39.33 73.03-24.63-1.09 31.53-17.52 52.99-39.39 97.99-25.59 52.63-53.53 128.26-54.8 209.22-.44 27.92 12.82 34.83 14.54 9.64 4.26-62.57 21.82-120.02 41.11-164.12 15-34.29 31.04-57.08 42.69-90.09 11.1-31.5 16-71.84 15.85-105.48-.09-19.36-2.48-37.08-10.04-58.47-12.52-22.75-13.13-52.76 27.56-83.25 35.26 30.21 116.48 94.44 121.65 250.88 4.23 128.03-24.13 192.33-56.42 242.72-47.19 73.65-92.3 109.75-95.36 193.98-2.16 59.34 18.51 102.58 42.59 157.55 16.96 38.73 21.31 73.86 33.29 112.08 10.5 33.46 13.41 45.38 65.31 66.7 6.82 2.8-35.94 27.11-44.26 59.99-4.77 18.87-8.36 30.94-11.44 47.18M3664.31 2981.41c-21.72 1.25-45.4 2.44-65.79 2.22-.38-33.7-.56-63.27 8.23-70.86 13.3-11.49 28.36 43.01 57.56 68.64M3150.17 3161.62c14.08-38.57 26.63-79 41.99-116.42 13.67 34.26 15.11 72.84 12.14 92.86-5.26 35.4-27.79 42.43-46.4 28.73-2.23-1.63-4.73-3.41-7.73-5.17M3220.4 3590.86c-24.72 2.23-39.37 2.68-52.22 12.53 5.78-28.28 33.91-63.26 39.61-113.35-175.79-127.51-232.56-184.88-158.89-335.34 11.47 35.14 72.36 70.97 77.02 64.51 2.53-3.51-38.03-29.3-45.88-52.23 17.25 6.37 34.62 11.09 47.23 12.13 14.59 5.01 24.02 11.92 39.37 17.51 1.79.65 3.78 1.07 5.88 1.31-17.12 27.74-26.42 65.72-24 91.26 5.89 62.11 31.32 109.74 53.69 168.79 15.45 40.8 20.92 90.4 18.19 132.88" style="fill:#e62231;fill-opacity:1;fill-rule:evenodd;stroke:none" transform="matrix(.13333 0 0 -.13333 0 794.667)"></path><path d="M3302.49 2881.15c36.52 16.42 53.58 82.96 77.43 139.09 14.02 32.97 37.44 72.48 68.28 93.11-51.9 53.54-79.23 92.45-74.56 94.91 4.67 2.45 27.75-39.72 98.47-88.34 11.28 4.44 22.54 7.14 33.39 8.14-57.94 35.89-109.44 85.33-134.84 149.07-38.04 95.47-62.4 208.91-51.31 310.24-24.96 1.26-53.54.93-80.08 2.22 1.4-36.11-3.77-77.74-15.56-116.02-20.93-67.98-51.41-132.7-53.89-190.48-2.18-51.07 21.12-75.39 37.94-100.32 35.84-46.15 12.18-122.25 1.32-174.72 5.66-11.08 11.76-21.69 18.43-31.66 24.93-37.25 53.05-60.33 74.98-95.24" style="fill:#e62231;fill-opacity:1;fill-rule:evenodd;stroke:none" transform="matrix(.13333 0 0 -.13333 0 794.667)"></path><path d="M3338.21 2762.34c54.88-20.61 115.61-34.63 171.81-32.6 56.24 2.03 126.86 15.87 187.21 59.14 46.81 33.57 80.62 85.91 74.54 128.27-5.37 37.42-26.18 55.23-52.09 60.38-37.65 4.13-52.14-27.63-59.69-43.06-17.67-36.08-46.99-64.54-68.05-41.56-19.13 20.88-13.49 66.45-12.91 119 .2 18.51 2.19 35.57-1.36 50.26-4.84 20.04-15.47 33.93-26.95 41.37-32.44 21.05-78.05-12.35-98.91-35.73-41.66-46.68-47.33-97.32-66.75-141.84-23.87-54.73-55.76-59.07-63.28-85.2 8.3-24.88 11.66-51.07 16.43-78.43" style="fill:#e62231;fill-opacity:1;fill-rule:evenodd;stroke:none" transform="matrix(.13333 0 0 -.13333 0 794.667)"></path><path d="M2899.52 3826.25c-19.17-28-30.1-25.34-59.59-22.2 18.37-15.74 15.96-57.51 43.58-96.27 8.66-12.14 25.95-20.14 43.47-24.51-.73 21.03-1.46 46.44-2.19 64.74-12.38 29.09-20.8 52.25-25.27 78.24" style="fill:#fff;fill-opacity:1;fill-rule:evenodd;stroke:none" transform="matrix(.13333 0 0 -.13333 0 794.667)"></path><path d="M3006.59 3874.65c-8.08 4.64-20.85 18.66-30.29 39.14-5.67 12.29-7.53 33.89-13.78 37.63-5.31 12.31-12.88 16.06-8.7 32.72 3.25 12.95-5.97 26.52-10.39 32.51-13.43-8.82-17.58 21.85-36.96 34.53-11.63 7.61-16.2 16.8-30.61 20.61-26.13 6.91-26.16-3.83-65.52 2.49.89-25.99-28.7-63.04-5.61-83.98 2.48-2.25 25.92 11.31 38.04 5.15 16.22-8.25 22-34.5 33.85-46.32 5.38-5.38 13.99-1.52 15.24-3.46.18-.29-16.62-20.11-21.12-12.68-2.17 3.56-1.85 9.27-4.29 13.8-8.74 16.18-25.29 36.7-27.76 32.99-2.77-4.15 1.24-10.24-6.2-14.66-4.56-2.71-13.19-5.42-14.93-8.53-5.23-9.3 2.57-23.38 8.78-33.13 2.39-3.75 6.25-5.6 9.98-7.54 1.95-1.01 3.88-2.06 5.53-3.41 13.98-13.06 21.48-18.78 29.54-21.9 8.05-3.13 16.67-3.66 32.89-6.33 32.4-5.34 36.31 28.05 37.1 35.04.6 5.27 8.39 4.39 6.66-2.16 1.71-20.24-9.45-38.97-25.33-49.45-10.52-6.94-12.72-24.63-9.57-36.04 5.87-21.2 12.75-41.66 22.52-63.28 35.81 29.52 55.88 65.53 70.93 106.26m-123.7 36.67c4.16 3.27 5.95 7.37 10.64 9.84 1.07.57 2.4.25 3.55 1.32.69.64 1.03 2.59 2.06 3.28 3.52 2.37 9.32 5.69 12.34 8.06-1.59-6.14-1.66-15.74-6.64-19.66-6.32-4.98-14.01-1.48-21.95-2.84m-19.98 91.93c6.28 14.61 17.82 23.07 34.72 30 3.39 1.39-1.17-8.91-4.76-9.54-3.2-.58 5.26 3.41 11.09-4.55 1.99-2.71-4.98-14.39-7.25-16.7-1.74-1.78-7.2-13.5-16.65-7.67-7.35 4.52-10.99 10.16-12.38 7.78-1.29-2.22-5.78-1.69-4.77.68M3021.46 3865.25c-19.08-50.53-38.11-81.83-77.65-117.24 3.56-20.99-.15-46.14 1.59-68.17 6.58-.96 12.57-1.75 17.24-3.08 14.9-.72 32.92-2.03 49.57 5.99 24.38 11.75 50.84 43.37 59.3 62.68 10.49 23.93-21.87 87.12-50.05 119.82" style="fill:#fff;fill-opacity:1;fill-rule:evenodd;stroke:none" transform="matrix(.13333 0 0 -.13333 0 794.667)"></path><path d="M3287.11 3786.81c-8.68 5.46-18.78 6.85-30.38 9.94-16 4.27-33.93 3.3-50.42 4.85-16.8 1.58-42.99.68-59.6 12.43 4.67-38.59-18.09-89.51-28.3-79.86-3.27 3.1 10.86 26.31 12.47 41.15 5.11 46.92-17.1 56.82-25.95 65.09-16.68 15.58-31.93 34.22-46.11 49.08-7.84-7.26-15.8-13.17-23.84-16.41 65.67-74.45 86.13-142.57-8.24-207.1 7.72.24 28.73-19.57 62.36-5.52 26.04 10.88 46.91 30.29 69.62 54.75 10.32 11.12 30.54 28.68 42.28 37.48 29.63 22.21 54.89 32.31 86.11 34.12" style="fill:#e62231;fill-opacity:1;fill-rule:evenodd;stroke:none" transform="matrix(.13333 0 0 -.13333 0 794.667)" data-source="https://football-logos.cc"></path><path d="M2913.38 2574.23c-33.27 16.62-66.86 39.23-97.55 62.31-7.39-10.18-22.86-44.19-11.05-49.61-4.24-8.61-1.89-15.66 4.32-24.47-1.57-12.51 1.19-18.22 5.35-18.46-1.2-9.51 4.7-12.72 7.02-16.05 8.48-4.13 10.6 13.44 14.16 8.83 1.42-1.85-14.13-14.08-4.86-20.26 17.11-11.4 54.44 24.91 82.61 57.71m-6.96 944.87c-15.19-11.54-26.57-29.08-32.63-44.38-7.23-18.22 15.53-18.01 19.93-4.09.85 2.72 3.62 18.11 27.85 40.29 11.73 10.74-5.9 15.21-15.15 8.18m100.33-16.28c-2.23-19.34-2.71-24.56-8.13-38.68-11.93-31.1-29.32-59.95-28.78-81.22.43-17.28 13.75-22.84 18.12-1.36 6.07 29.87 23.67 50.62 32.17 77.48 4.46 14.06 6.27 26.55 7 38.14 1.34 21.25-18.22 24.4-20.38 5.64m-150.86-95.16c-17.17-92.75 22.33-197.37 57.77-234.23 6.27-6.53 14.61-9.57 19.44-8.47 4.84 1.1 6.17 6.35-1.55 16.4-46.58 60.6-59.71 140.48-58.21 228.79.23 14.01-14.64 12.69-17.45-2.49m107.55-835.22c31.89-10.79 62.02-9.67 95.2 8.25l20.79 18.12c19.07 16.48 50.72 16.35 79.97 2.76 28.35-13.18 36.4-39.02 86.04-46.46 12.83.64 25.76 2.55 37.32 5.09-87.79 66.08-137.5 152.35-169.13 284.37-3.9 16.25 8.55 16.67 13.58 1.36 46.56-141.59 108.72-224.15 185.12-277.02 17.8 6.43 35.18 13.75 52.44 15.7 55.18 12.25 115.58 9.61 161.11-40.11 11.94-13.04 2.83-16.94-5.43-10.2-12.4 10.13-33.03 28.46-48.81 33.13-25.7 7.62-50.98 8.24-73.2 4.07 22.21-17.64 48.33-27.61 72.12-42.59 22.1-13.92 54.69-40.79 67.61 4.8 7.95 28.07-16.98 45.43-36.01 61.95-30.03 26.04-67.37 49.64-105.92 64.79-8.1 3.19-30.63 8.55-48.69 15.63-83.45 22.35-125.3 82.29-157.99 215.4-4.04 16.48-9.89 31.93-18.87 49.55-7.59 14.88 1.04 15 12.22 3.41 9.57-9.94 18.49-36.39 23.18-52.49 33.52-115.26 59.59-146.38 113.83-182.77-.97 13.82.92 27.73-.29 41.98-1.77 21.02-9.44 42.76-15 63.11-21.7 79.48-76.03 116.91-113.12 183.57-27.17 48.83-33.26 103.57-57.34 156.71l-1.22-.22c-4.34-1.26-9.32-2.35-15.11-3.19l-.08.29c-29.88-6.11-57.73-14.32-78.8-24.09-153.24 242.11 104.26 326.44 149.6 372.68-9.06 36.27-39.87 77.98-48.94 129.19 40.47-25.63 128.44-27.53 190.77-30.83 28.36 3.28 58.42-.62 86.8.42 46.11 1.7 89.11 2.41 135.01-22.75-13.99 56.38-2.02 121.92 27.06 177.99-90.57 7.8-181.21 12.72-271.89 18.98l-6.82.47-.94 1.14c-33.13-6.04-53.85-13.01-79.72-32.26-45.28-33.69-73.6-90.53-121.65-104.8-31.74-9.43-60.73 6.4-90.53 12.5-14.94 3.06-29.99 4.6-44.53 5.45-9.73-2.38-25.74 2.16-41.68-.98-27.03-5.34-53.27-21-61.88-35.1-16.03-26.27-18.26-73.59-32.67-107.06-39.71-92.2-53.39-117.82-52.77-170.92 1.24-107.16 71.08-126.79 114.99-228.85 21.44-49.84 44.61-126.28 37.88-227.54-6.43-96.84-54.8-170.16-101.54-235.13 28.62-26.81 58.39-38.69 103.97-61.49.84-.43-14.75 24.97-6.32 56.53 10.38 38.91 24.32 50.93 37.76 99.19 21.24 76.24 17.96 134.94 16.17 150.12-1.9 16.18 8.59 18.43 10.87.21 3.63-28.85 5.17-77.73-4.61-128.55-9.18-47.72-37.87-97.08-43.86-135.45-3.03-19.34.98-31.68 8.35-42.4 4.17-6.07 9.43-11.62 15.6-15.66m118.44-.54c5.76-11.36 17.99-26.63 26.75-42.99 4.92-9.17 10.62-15.47 15.28-23.18 4.31-7.14 8.88-13.18 13.66-16.24 7.38-4.73 15.11-1.73 16.82 3.93 1.51 5.01-4.79 17.95-2.46 18.15 3.23.29 2.91-15.05 6.08-15.56 13.28-2.16 11.2 8.94 14.15 10.4 6.88.67 9.3 4.9 11.68 13.67 5.03.39 11.3 3.84 10.32 13.63 1.91 4.17 3.43 7.24 3.87 14.24-23.21 12.73-41.83 35.87-60.63 38.42-15.74 2.13-41.6-5.61-55.52-14.47m549.04 1148.45c32.87 1.55 67.46-26.32 93.72-19.62 9.26 2.37 19.86 7.98 27.87 13.11 2.83 1.81 9.08 6.25 14.45 11 12.48 11.03 4.09 9.44-8.67 14.28-10.74 4.06-27.48 17.29-37.7 7.27-10.92-10.68-19.95-6.4-29.38-9.19-15.9-4.68-14.82-1.88-17.05 1.37-2.98 4.38 4.4 9.9 6.8 9.98 12.89.4 34.14-3.42 35.4 5.96.28 4.2-31.07 10.6-36.09 10.48-27.14-.65-60.87-12.54-85.98-12.11-2.85-9.52-6.95-24.49-7.95-34-1.65-15.86-4.64-24.67 12.04-12.11 9.62 7.23 18.6 12.93 32.54 13.58M2092.97 3834.63l46.24-33.3c14.27-10.27 27.58 10.02 12.93 19.7l-47.18 31.17c-12.93 8.55-24.58-8.5-11.99-17.57M2041.66 3796.53l51.16-25.11c15.78-7.74 27.13 12.04 11.23 19.46l-53.5 24.98c-14.05 6.55-22.82-12.5-8.89-19.33M2023.5 3736.18l56.65-6.13c17.48-1.88 20.45 18.03 3.03 20.18l-57.93 7.15c-15.39 1.9-17.18-19.53-1.75-21.2M2025.64 3689.3l56.73 5.44c17.49 1.68 16.38 21.78-1.11 20.37l-58.19-4.7c-15.44-1.24-12.87-22.6 2.57-21.11M2039.82 3639l54.98 15.02c16.95 4.63 12.43 24.26-4.57 19.88l-56.53-14.54c-15.01-3.85-8.84-24.46 6.12-20.36M2068.6 3593.29l53.53 19.54c16.51 6.03 10.37 25.21-6.2 19.44l-55.13-19.19c-14.64-5.09-6.78-25.11 7.8-19.79M2101.55 3551.89l51.79 23.77c15.98 7.33 8.33 25.96-7.73 18.88l-53.42-23.55c-14.18-6.25-4.74-25.58 9.36-19.1M2220.82 3497.5l52.43 22.3c16.18 6.88 9.05 25.72-7.2 19.09l-54.05-22.03c-14.36-5.86-5.46-25.44 8.82-19.36M2252.16 3456.35l53.53 19.54c16.5 6.03 10.37 25.21-6.21 19.44l-55.12-19.19c-14.65-5.1-6.78-25.11 7.8-19.79M2278.48 3410.4l54.56 16.47c16.82 5.08 11.78 24.58-5.09 19.76l-56.13-16.03c-14.91-4.25-8.19-24.69 6.66-20.2M2305.1 3370.01l56.16 9.63c17.32 2.97 14.72 22.94-2.62 20.23l-57.67-9c-15.32-2.39-11.17-23.49 4.13-20.86M2310.08 3322.66l56.17 9.63c17.32 2.98 14.72 22.94-2.62 20.24l-57.68-9c-15.31-2.39-11.16-23.49 4.13-20.87M2277.69 3260.37l56.16 9.63c17.33 2.97 14.73 22.94-2.62 20.23l-57.67-9c-15.32-2.38-11.17-23.49 4.13-20.86M2270.21 3208.04l56.17 9.63c17.32 2.97 14.72 22.94-2.62 20.24l-57.67-9c-15.32-2.39-11.17-23.5 4.12-20.87M2273.95 3157.03l56.16 9.63c17.32 2.97 14.73 22.94-2.62 20.23l-57.67-9c-15.32-2.39-11.17-23.49 4.13-20.86M2374.39 2998.12l54.46 16.8c16.79 5.18 11.64 24.64-5.21 19.72l-56.03-16.36c-14.88-4.34-8.04-24.73 6.78-20.16M2353.24 3031.72l54.46 16.79c16.79 5.19 11.64 24.65-5.21 19.73l-56.03-16.36c-14.88-4.34-8.04-24.74 6.78-20.16M2317.14 3065.34l54.47 16.73c16.8 5.16 11.68 24.63-5.18 19.73l-56.05-16.29c-14.89-4.32-8.08-24.72 6.76-20.17M2291 3103.92l54.48 16.72c16.8 5.16 11.68 24.63-5.18 19.74l-56.05-16.29c-14.89-4.32-8.08-24.73 6.75-20.17M2390.55 2959.58l54.48 16.72c16.79 5.16 11.67 24.64-5.19 19.74l-56.05-16.29c-14.88-4.32-8.08-24.72 6.76-20.17M2385.57 2906.08l54.48 16.72c16.8 5.16 11.68 24.63-5.18 19.74l-56.05-16.29c-14.89-4.33-8.08-24.73 6.75-20.17M2389.3 2865.02l54.48 16.71c16.8 5.16 11.68 24.64-5.18 19.74l-56.05-16.29c-14.89-4.32-8.08-24.72 6.75-20.16M2612.13 2583.18l36.82 43.5c11.35 13.42-3.48 27.04-15.02 13.81l-38.38-43.98c-10.19-11.68 6.56-25.17 16.58-13.33M2645.72 2542.59l33.04 46.43c10.19 14.32-5.73 26.64-16.12 12.5l-34.56-47.04c-9.18-12.5 8.65-24.54 17.64-11.89M2697.27 2475.6l22.06 52.54c6.8 16.2-11.44 24.75-18.47 8.67l-23.41-53.47c-6.22-14.21 13.81-22.05 19.82-7.74M2718.42 2424.59l22.06 52.54c6.8 16.2-11.43 24.74-18.47 8.66l-23.4-53.47c-6.22-14.2 13.8-22.04 19.81-7.73M2749.52 2379.79l22.07 52.54c6.8 16.21-11.43 24.75-18.47 8.67l-23.41-53.48c-6.22-14.2 13.81-22.04 19.81-7.73M3011.89 2414.68l13.94 55.26c4.3 17.04-15.01 22.76-19.56 5.8l-15.13-56.37c-4.02-14.98 16.95-19.73 20.75-4.69M3302.38 2375.3l24.91 51.26c7.67 15.8-10.06 25.33-17.97 9.66l-26.3-52.11c-6.98-13.84 12.58-22.77 19.36-8.81M3382.89 2413.75l-7.3 41.57c-3.04 17.31-22.98 15.57-20.32-1.77l6.6-43.05c2.35-15.32 23.71-12.03 21.02 3.25M3558.56 2340.85l-35.13 44.87c-10.83 13.84-27.18 2.08-16.57-11.9l35.29-46.5c9.37-12.35 25.98 1.32 16.41 13.53M3610.82 2350.81l-35.13 44.87c-10.83 13.84-27.18 2.07-16.57-11.91l35.29-46.5c9.37-12.35 25.98 1.32 16.41 13.54M3664.32 2362l-35.12 44.88c-10.84 13.83-27.18 2.07-16.57-11.91l35.28-46.5c9.37-12.34 25.98 1.32 16.41 13.53M3705.35 2397.69l-41.94 38.59c-12.93 11.9-27.16-2.35-14.42-14.43l42.35-40.17c11.25-10.67 25.43 5.5 14.01 16.01M3741.55 2460.58l-54.73 15.9c-16.88 4.9-23.27-14.2-6.49-19.35l55.8-17.12c14.82-4.55 20.32 16.24 5.42 20.57M3684.7 2650.86l-56.96-1.96c-17.56-.6-17.69-20.74-.13-20.4l58.35 1.13c15.5.3 14.24 21.77-1.26 21.23M3705.85 2598.6l-56.96-1.96c-17.56-.6-17.68-20.74-.13-20.4l58.36 1.13c15.5.3 14.24 21.77-1.27 21.23M3738.2 2550.07l-56.95-1.96c-17.57-.6-17.69-20.73-.14-20.4l58.36 1.13c15.5.3 14.24 21.77-1.27 21.23M3735.71 2681.97l-56.95-1.96c-17.56-.6-17.69-20.74-.14-20.4l58.36 1.12c15.5.3 14.24 21.77-1.27 21.24M3875.07 2747.91l-56.95-1.95c-17.57-.61-17.69-20.75-.14-20.41l58.36 1.13c15.5.3 14.24 21.77-1.27 21.23M3913.64 2791.46l-53.21-1.95c-17.57-.65-17.69-20.77-.14-20.4l54.62 1.12c15.5.32 14.23 21.81-1.27 21.23M3936.04 2842.48l-49.49-3.2c-17.53-1.14-17.66-21.22-.14-20.4l50.9 2.37c15.48.72 14.21 22.24-1.27 21.23M3943.51 2900.96l-47-1.96c-17.56-.73-17.68-20.8-.14-20.4l48.41 1.13c15.49.36 14.23 21.88-1.27 21.23M3942.26 2943.27l-43.26-.72c-17.57-.29-17.69-20.35-.14-20.4l44.68-.11c15.49-.04 14.23 21.49-1.28 21.23M3932.62 2995.09l-47.23-8.39c-17.3-3.08-14.26-22.95 3.07-20.18l48.75 7.8c15.31 2.45 10.68 23.48-4.59 20.77M3913.88 3051.36l-49.84-27.63c-15.38-8.52-6.34-26.51 9.14-18.23l51.48 27.53c13.66 7.31 2.78 25.86-10.78 18.33M3869.74 3086.97l-44.47-35.64c-13.71-10.99-1.76-27.2 12.1-16.44l46.09 35.82c12.24 9.51-1.62 25.96-13.72 16.26M3836.14 3110.61l-44.46-35.64c-13.71-10.99-1.77-27.2 12.09-16.43l46.09 35.82c12.24 9.5-1.61 25.96-13.72 16.25M3672.84 3486.03l-50.73 25.96c-15.64 8.01-25.54-9.53-10.03-17.76l51.56-27.37c13.69-7.27 23.02 12.11 9.2 19.17M3705.2 3505.94l-50.74 25.96c-15.64 8-25.53-9.53-10.03-17.77l51.56-27.36c13.69-7.27 23.02 12.11 9.21 19.17M3739.08 3540.46l-53.22 20.38c-16.41 6.29-24.36-12.21-8.07-18.73l54.19-21.7c14.39-5.77 21.59 14.5 7.1 20.05M3971.77 3671.11l-53.22 20.38c-16.41 6.28-24.37-12.21-8.08-18.74l54.19-21.69c14.39-5.77 21.59 14.5 7.11 20.05M4003.46 3724.66l-56.51 7.34c-17.43 2.26-20.82-17.59-3.46-20.11l57.77-8.39c15.34-2.23 17.59 19.16 2.2 21.16M3973.23 3797.79l-54.61-16.29c-16.84-5.03-11.87-24.54 5.02-19.78l56.18 15.84c14.93 4.21 8.28 24.66-6.59 20.23M3924.19 3830.37l-49.64-22.34c-15.31-6.89-8.13-24.74 7.26-18.09l51.19 22.12c13.59 5.87 4.7 24.4-8.81 18.31M3881.27 3865.28l-44.54-31.29c-13.74-9.65-3.33-25.83 10.54-16.4l46.1 31.37c12.24 8.33.03 24.84-12.1 16.32M3787.71 3909.9l-35.73-41.07c-11.02-12.67 2.97-25.87 14.17-13.39l37.22 41.52c9.89 11.02-5.94 24.13-15.66 12.94M3602.31 3891.24l-35.73-41.08c-11.02-12.66 2.97-25.86 14.17-13.38l37.22 41.52c9.89 11.02-5.93 24.12-15.66 12.94M3668.25 3909.9l-35.72-41.07c-11.02-12.67 2.97-25.87 14.17-13.39l37.22 41.52c9.89 11.02-5.94 24.13-15.67 12.94M3726.74 3912.39l-35.73-41.07c-11.02-12.67 2.97-25.87 14.17-13.39l37.22 41.52c9.89 11.02-5.94 24.12-15.66 12.94M3839.79 3889.53l-40.73-36.12c-12.56-11.13-.39-26.03 12.33-15.1l42.27 36.37c11.22 9.65-2.78 24.69-13.87 14.85M3946.08 3625.15l-48.28 30.27c-14.89 9.33-26.27-7.28-11.54-16.83l48.99-31.74c13-8.43 23.98 10.06 10.83 18.3M3899.71 3579.13l-42.72 37.71c-13.18 11.62-27.11-2.92-14.12-14.73l43.18-39.28c11.46-10.44 25.3 6.03 13.66 16.3M3776.42 3118.07l-44.47-35.64c-13.71-10.99-1.76-27.2 12.1-16.43l46.09 35.82c12.24 9.51-1.62 25.96-13.72 16.25M3718.92 3121.97l-32.21-36.95c-11.55-13.25 3.13-26.97 14.9-13.94l33.78 37.42c10.38 11.51-6.27 25.17-16.47 13.47M3698 3159.32l-31.1-29.57c-12.74-12.11.58-27.11 13.53-15.27l32.7 29.9c11.44 10.46-3.89 25.64-15.13 14.94M3678.09 3195.4l-32.35-29.56c-12.96-11.86.37-26.87 13.54-15.27l33.95 29.89c11.63 10.24-3.69 25.41-15.14 14.94M3649.47 3225.27l-32.34-29.57c-12.97-11.86.36-26.86 13.53-15.27l33.95 29.89c11.63 10.24-3.69 25.41-15.14 14.95M3614.63 3247.66l-32.34-29.56c-12.97-11.86.35-26.87 13.53-15.27l33.95 29.89c11.63 10.24-3.69 25.41-15.14 14.94" style="fill:#fff;fill-opacity:1;fill-rule:evenodd;stroke:none" transform="matrix(.13333 0 0 -.13333 0 794.667)"></path><path d="m3576.06 3276.29-32.35-29.58c-12.96-11.85.36-26.86 13.54-15.26l33.94 29.89c11.64 10.24-3.69 25.41-15.13 14.95M3546.2 3306.15l-32.35-29.57c-12.97-11.86.36-26.87 13.54-15.27l33.94 29.89c11.63 10.24-3.69 25.41-15.13 14.95M3523.21 3337.8l-35.25-26.04c-14.14-10.44-2.45-26.75 11.86-16.59l36.88 26.18c12.64 8.97-1.01 25.66-13.49 16.45M3512.41 3374.15l-41.8-13.14c-16.77-5.28-11.02-24.51 5.81-19.56l43.4 12.76c14.87 4.37 7.39 24.59-7.41 19.94M3848.23 3559.47l-33.75 27.95c-13.54 11.21-26.56-4.07-13.25-15.51l34.29-29.49c11.76-10.11 24.67 7.16 12.71 17.05M3798.71 3550.66l-38.37 21.15c-15.39 8.48-25.33-8.95-10.13-17.71l39.2-22.57c13.43-7.74 22.89 11.64 9.3 19.13M3509.72 3413.41l-43.81-.75c-17.57-.3-17.52-20.37.03-20.4l45.23-.07c15.5-.02 14.06 21.49-1.45 21.22M3574.72 3454.61l-36.64 24.03c-14.7 9.63-25.95-6.99-11.45-16.89l37.35-25.5c12.81-8.74 23.72 9.85 10.74 18.36M3623.25 3468.29l-36.64 24.03c-14.7 9.64-25.95-6.98-11.45-16.89l37.35-25.5c12.8-8.74 23.71 9.86 10.74 18.36" style="fill:#fff;fill-opacity:1;fill-rule:evenodd;stroke:none" transform="matrix(.13333 0 0 -.13333 0 794.667)"></path><path d="m3623.25 3468.29-36.64 24.03c-14.7 9.64-25.95-6.98-11.45-16.89l37.35-25.5c12.8-8.74 23.71 9.86 10.74 18.36M3512.13 3450.86l-41.56 13.91c-16.66 5.57-23.31-13.36-6.77-19.25l42.62-15.15c14.6-5.19 20.42 15.56 5.71 20.49M3801.66 2711.83l-56.95-1.95c-17.57-.61-17.69-20.75-.14-20.41l58.36 1.13c15.5.29 14.23 21.77-1.27 21.23M2593.6 2637.45l44.47 40.87c13.71 12.61-.08 28.89-13.97 16.51l-46.17-41.17c-12.26-10.94 3.57-27.34 15.67-16.21M2158.55 3522.06l51.23 24.97c15.8 7.7 7.72 26.14-8.17 18.69l-52.86-24.78c-14.03-6.58-4.14-25.68 9.8-18.88M2146.53 3865.42l42.16-38.33c13.01-11.82 30.01 3.45 16.8 15l-45.06 39.43c-11.66 10.21-25.39-5.66-13.9-16.1M2198.26 3883.15l42.17-38.33c13-11.82 29.53 5.74 16.11 17.05l-44.37 37.38c-11.86 9.99-25.39-5.66-13.91-16.1M2282.98 3888.14l42.16-38.34c13-11.82 29.54 5.74 16.12 17.05l-44.37 37.38c-11.86 9.99-25.39-5.66-13.91-16.09M2350.26 3878.17l42.16-38.34c13-11.82 29.54 5.74 16.12 17.05l-44.38 37.38c-11.86 9.99-25.38-5.65-13.9-16.09M2599.02 4030.74l56.96-1.83c17.56-.56 18.76 23.53 1.21 23.43l-58.02-.32c-15.51-.09-15.65-20.78-.15-21.28M2608.99 3978.42l46.99.66c17.57.25 18.72 24.46 1.21 23.43l-48.05-2.82c-15.48-.91-15.66-21.49-.15-21.27M2610.49 4091.77l56.3-8.82c17.36-2.72 21.51 21.04 4.08 23.1l-57.62 6.81c-15.39 1.82-18.09-18.69-2.76-21.09M2694.56 4214.8l41.6-38.95c12.82-12.01 29.62 5.31 16.36 16.81l-43.82 38.03c-11.71 10.16-25.47-5.29-14.14-15.89M2767.27 4258.41l24.45-52.86c7.55-16.3 33.43-7.69 25.19 8.34l-27.21 52.96c-7.27 14.15-29.09 5.95-22.43-8.44M2842.98 4281.61l3.09-56.9c.95-17.55 25.06-16.66 23.45.81l-5.33 57.78c-1.43 15.44-22.05 13.81-21.21-1.69M3248.32 3998.86l37.42 42.98c11.54 13.25-6.38 29.41-17.39 15.74l-36.42-45.17c-9.73-12.06 6.21-25.26 16.39-13.55M3252.93 3914.27l37.29 30.3c13.64 11.08-1.04 30.36-14.16 18.7l-36.72-32.63c-11.58-10.3 1.55-26.15 13.59-16.37M3217.63 4040.65l34.92 45.03c10.77 13.89-8.04 29-18.26 14.73l-33.79-47.16c-9.04-12.6 7.63-24.87 17.13-12.6M3394.7 3853.09l23.89 26.7c11.72 13.1-5.85 30.15-16.77 16.41l-22.97-28.93c-9.65-12.14 5.51-25.74 15.85-14.18M3288.23 3892.55l27.58 22.88c13.52 11.22-1.33 30.69-14.16 18.71l-27-25.22c-11.33-10.58 1.64-26.27 13.58-16.37M3185.18 4066.94l26.95 50.2c8.32 15.49-12.73 27.27-20.45 11.5l-25.49-52.12c-6.82-13.93 11.65-23.25 18.99-9.58M3121.71 4055.74l26.96 50.21c8.31 15.48-12.73 27.26-20.45 11.49l-25.49-52.12c-6.82-13.92 11.65-23.25 18.98-9.58M3081.9 4091.82l26.96 50.21c8.31 15.49-12.74 27.26-20.45 11.5l-25.5-52.12c-6.81-13.93 11.65-23.26 18.99-9.59M3050.79 4130.4l26.96 50.21c8.31 15.48-12.74 27.26-20.45 11.49l-25.5-52.12c-6.81-13.93 11.65-23.25 18.99-9.58M3019.69 4165.24l26.95 50.2c8.31 15.49-12.73 27.27-20.45 11.5l-25.49-52.12c-6.82-13.93 11.65-23.25 18.99-9.58M2981.88 4196.64l22.11 52.53c6.81 16.2-15.25 25.94-21.44 9.52l-20.48-54.29c-5.47-14.51 13.79-22.06 19.81-7.76M2931.57 4218.27l10.89 55.93c3.36 17.25-20.24 22.28-22.94 4.93l-8.93-57.33c-2.39-15.32 18.01-18.76 20.98-3.53M2637.97 4161.7l48.24-30.34c14.88-9.36 28.08 10.83 12.88 19.61l-50.25 29.01c-13.43 7.76-24-10.02-10.87-18.28" style="fill:#fff;fill-opacity:1;fill-rule:evenodd;stroke:none" transform="matrix(.13333 0 0 -.13333 0 794.667)"></path><path d="m2446.7 2818.57 40.91-87.82 96.18-11.77-70.89-66.05 18.53-95.1-84.73 47-84.72-47 18.53 95.1-70.89 66.05 96.17 11.77z" style="fill:#231f20;fill-opacity:1;fill-rule:evenodd;stroke:none" transform="matrix(.13333 0 0 -.13333 0 794.667)"></path><path d="m2446.7 2780.99-30.24-64.93-71.09-8.7 52.4-48.82-13.7-70.31 62.63 34.75 62.64-34.75-13.7 70.3 52.4 48.83-71.09 8.7z" style="fill:#fff;fill-opacity:1;fill-rule:evenodd;stroke:none" transform="matrix(.13333 0 0 -.13333 0 794.667)"></path><path d="m2021.74 3345.31 81.57-52.28 87.53 41.55-24.5-93.74 66.55-70.4-96.72-5.66-46.39-85.06-35.27 90.24-95.23 17.84 74.92 61.43z" style="fill:#231f20;fill-opacity:1;fill-rule:evenodd;stroke:none" transform="matrix(.13333 0 0 -.13333 0 794.667)"></path><path d="m2041.86 3313.56 9.21-71.02-55.38-45.41 70.4-13.19 26.07-66.71 34.29 62.88 71.51 4.18-49.21 52.05 18.12 69.29-64.71-30.71z" style="fill:#fff;fill-opacity:1;fill-rule:evenodd;stroke:none" transform="matrix(.13333 0 0 -.13333 0 794.667)"></path><path d="m2360.07 4115.55 87.96-40.64 81.03 53.13-11.46-96.21 75.56-60.64-95.04-18.83-34.33-90.61-47.28 84.58-96.77 4.64 65.82 71.1z" style="fill:#231f20;fill-opacity:1;fill-rule:evenodd;stroke:none" transform="matrix(.13333 0 0 -.13333 0 794.667)"></path><path d="m2384.35 4086.85 18.84-69.1-48.66-52.56 71.54-3.44 34.95-62.51 25.37 66.98 70.26 13.92-55.85 44.82 8.47 71.13-59.9-39.28z" style="fill:#fff;fill-opacity:1;fill-rule:evenodd;stroke:none" transform="matrix(.13333 0 0 -.13333 0 794.667)"></path><path d="m3403.84 4105.33 77.93-57.57 90.09 35.65-30.67-91.91 61.74-74.66-96.88.77-51.94-81.79-29.2 92.38-93.84 24.11 78.84 56.32z" style="fill:#231f20;fill-opacity:1;fill-rule:evenodd;stroke:none" transform="matrix(.13333 0 0 -.13333 0 794.667)"></path><path d="m3421.81 4072.32 4.49-71.48-58.28-41.64 69.37-17.82 21.59-68.29 38.39 60.46 71.62-.57-45.64 55.2 22.67 67.94-66.6-26.36z" style="fill:#fff;fill-opacity:1;fill-rule:evenodd;stroke:none" transform="matrix(.13333 0 0 -.13333 0 794.667)"></path><path d="m3691.09 3406.38 90.6-34.34 77.08 58.69-4.66-96.77 79.64-55.18-93.48-25.47-27.87-92.79-53.11 81.03-96.86-2.17 60.66 75.55z" style="fill:#231f20;fill-opacity:1;fill-rule:evenodd;stroke:none" transform="matrix(.13333 0 0 -.13333 0 794.667)"></path><path d="m3717.32 3379.46 23.66-67.6-44.84-55.85 71.6 1.61 39.26-59.91 20.6 68.6 69.11 18.83-58.87 40.79 3.44 71.53-56.99-43.39z" style="fill:#fff;fill-opacity:1;fill-rule:evenodd;stroke:none" transform="matrix(.13333 0 0 -.13333 0 794.667)"></path><path d="m3485.29 2121.6 84.74-6.05-29.66-37.64c-34.6-43.91-83.02-117.7-56.69-174.98l19.64-42.73c16.96 3.99 33.59 8.35 49.77 13.09 17.23-22.67 29.02-56.22 46.25-78.89-31.74-19.04-63.48-40.81-95.21-59.85 9.06-16.32 22.21-55.75 31.28-72.07-326.01-42.15-644.23-42.89-969.87-24.38-6.81.39-12.18 32.99-18.96 33.88-53.12 55.77-87.83 120.31-155.18 154.93-54.86 28.2-198.98 50.62-271.64 63.37-26.81 4.7-26.91 17.12-6.84 16l389.86 306.94 28.4 21.3c-9.04 3.95-17.84 6.55-26 7.09-7.41.47-15.11 1.15-22.52.54-24.91-2.03-29.12-30.08-25.52-58.63l-33.58 26.07c-18.46 14.34-30.65 34.47-33.6 57.76-6.07 47.83 26.85 89.2 70.04 105.7l6.77 2.59 87.11-16.85.87 44.95 10.88 5.44.25-52.72 184.76-35.76c9.49 23.05 24.9 44.89 44.11 65.16l7.79 8.21 140.21-3.84.32 66.4 13.6 2.96.68-69.76 82.28-2.26-2.61-27.07c-5.85-61.01-12.85-124.79-8.11-186.02l1.45-18.75 125.87-14.58-24.41-34.88c-31.44-44.93-43.21-93.39-41.75-136.23 1.73-50.63 21.23-96.4 41.25-148.56 20.98.65 42 1.44 62.99 2.36-29.24 27.73-62.8 82.94-73 117.82-7.3 24.97-7.42 51.67-2.36 77.09 9.39 47.23 40.62 102.66 87.9 120.41l5.2 1.96 116.18-8.3.6 31.21c-47.03 9.05-94.14 8.91-143.09-7.44l-20.43-6.82-10.07 19.04c-36.61 69.27-18.61 142.06 40.03 191.73l7.78 6.6 129.52-7.94.18 41.23 10.88 5.44.07-47.35 135.66-8.32-24.93-36.85c-20.39-30.14-53.35-95.69-23.69-129.53zm-941.18-272.52.02 1.54c-60.95 23.4-80.87 37.88-144.8 51.83-70.46 15.37-147.33 14.09-233.04-2.41l231.1-29.51c48.78-6.23 97.23-14 146.72-21.45m.39 20.41 6.32 329.95-10.68-18.98c-46.29-82.3-69.43-188.17-18.05-273.69zm22.05 344.62 1.74-368.62c34.26-5 69.13-9.64 105.08-13.24-25.75 52.7-50.29 124.18-40.28 182.59 12.52 73.1 61.87 129.13 118.25 173.21l16.86-1.96-9.82 17.54c-22.21 39.62-22.77 77.87-9.22 113.35l-57.25-30.81c-52.99-28.51-46.39-83.24-45.1-133.18-28.16 22.25-51.13 41.4-80.26 61.12m778.22-82.48 113.88-8.13-55.49 19.65c-19.61 6.94-39.08 12.94-58.52 17.49zm-22.32-300.04 1.51 78.8c-71.43 13.28-136.15 2.35-120.8-86.16 24.05 1.09 48.09 2.36 72.07 3.79 15.58.93 31.36 2.12 47.22 3.57m23.39 74.07.34-71.71c45.37 4.87 91.12 11.91 135.12 21.31l-31.06 13.89c-26.94 12.04-65.56 27.01-104.4 36.51m-418.08-86.01 2.54 96.46c-58.43 22.76-119.33 35.78-167.07 18.91-39.84-14.07-76.91-54.43-83.09-103.43 11.72-1.12 23.55-2.14 35.52-3.02 68.65-5 139.74-7.9 212.1-8.92m9.12 346.91.36 13.8c-54.31 23.52-106.86 24.74-167.76 5.59zm20.47 4.12v-6.49l14.56-1.69c-4.89 2.91-9.73 5.63-14.56 8.18m0-265.83v-85.51c51.62-.37 103.81.2 156.15 1.62l-38.31 22.2c-31.33 18.16-73.09 41.93-117.84 61.69" style="fill:#231f20;fill-opacity:1;fill-rule:evenodd;stroke:none" transform="matrix(.13333 0 0 -.13333 0 794.667)"></path><path d="m2468.21 2359.2 239.7-46.39-23.52-12.67c-40.96-22.03-50.56-54.5-49.41-98.81l.52-20.32-15.95 12.6c-29.53 23.33-74.7 61.33-113.35 63.83-27.17 1.76-52.16 3.43-57.68-29.37l-2.63-15.72-12.6 9.78c-15.13 11.75-25.16 28.1-27.58 47.21-5.13 40.41 23.72 75.05 59.95 88.89zm28.82-474.44c-103.58 38.18-218.12 51.42-326.46 26.85l-43.53-9.88 35.7 26.78c118.13 88.6 231.43 183.42 349.56 272.02l36.19 27.14-22.18-39.43c-49.19-87.45-72.34-198.9-17.83-289.64l13.95-23.2zm275.19 326.63c-34 60.68-10.43 116.64 34.04 163.54l2.92 3.09 213.03-5.85-.98-10.15c-6-62.43-13-126.04-8.14-188.77l1.51-19.52-16.29 10.87c-65.37 43.61-137.51 66.7-214.92 42.36l-7.39-2.32zm-103.51-318c-55.03 106.13-2.48 207.98 84.19 275.74l3.08 2.41 372-43.09-9.17-13.08c-56.93-81.35-55.88-156.3-21.97-246.9l9.32-24.92-23.01 13.34c-83.7 48.5-226.68 127.92-325.2 93.1-30.7-10.85-54.39-31.34-73.01-57.71l-9.03-12.78zm539.73 457.52 242.19-14.85-9.35-13.82c-25.48-37.67-58.15-108.19-22.48-148.88l24.04-27.42-34.38 12.17c-75.83 26.85-149.62 39.63-227.75 13.53l-7.67-2.55-3.76 7.14c-32.96 62.32-16.69 127.35 36.24 172.2zm5.94-225.87 324.65-23.19-11.12-14.12c-38.81-49.24-88.21-127.11-58.66-191.43l10.57-23-23.1 10.33c-53.83 24.07-123.65 48.49-183.22 44.24-38.61-2.74-75.93-17.86-80.9-61.07l-2.94-25.62-14.41 21.38c-32.23 47.8-50.34 107.08-37.92 164.53 8.83 40.86 34.54 81.98 75.1 97.22zm268.44-384.76c10.98-19.38 23.61-40.03 32.47-59.78 3.88-8.66-7.12-9.52-12.13-10.08-6.96-.77-13.95-1.35-20.93-1.92-25.44-2.07-50.96-3.68-76.45-5.16-82.76-4.83-165.75-8.02-248.64-9.71-117.81-2.38-235.81-8.33-353.63-8.29-48.87.03-97.69.91-146.53 2.43-25.57.79-52.09 2.43-77.62 2.16l-3.61-.04-24.72 40.59-.54.6c-45.15 49.54-80.79 108.26-139.78 143.28l-40.19 23.87 46.32-6.24c99.17-13.35 197.76-31.96 297.67-39.25 186.87-13.63 374.73-11.72 561.67-.57 88.51 5.29 177.8 17.54 263.45 40.83l7.06 1.92 3.68-6.33c4.17-7.2 7.92-14.63 11.74-22.02 3.36-6.52 6.72-13.04 10.29-19.44l4.4-7.88-7.64-4.82c-24.41-15.39-48.44-31.41-73.2-46.27z" style="fill:#fff;fill-opacity:1;fill-rule:evenodd;stroke:none" transform="matrix(.13333 0 0 -.13333 0 794.667)"></path><path d="M2280.28 1603.37c-20.41 13.6-73.58 77.45-53.81 87.9 26.28 13.88 63.27 19.87 92.74 20.19 27.13.31 52.88-2.91 79.1-9.8 19.33-5.07 37.85-12.05 56.96-17.68 13.39-3.94 26.61-6.85 40.59-7.64 21.85-1.24 39.1 3.8 59.25 11.42 34.36 13.01 59.55 22.94 97.56 21.96 34.53-.89 57.48-7.59 88.51-21.3 28.35-12.53 46.18-17.41 77.89-17.16 16.69.13 31.84 4.13 47.38 9.9 17.49 6.5 34.35 14.47 51.99 20.68 22.54 7.94 44.75 12.63 68.72 13 24.6.39 45.4-4.58 68-13.82 37.86-15.5 57.16-27.14 100.43-26.98 32.48.12 51.98 5.76 80.94 18.95 38.55 17.56 65.24 25.64 108.56 26.26 69.99 1.01 136.31-26.34 204.96-29.75 47.37-2.36 91.84 7.74 138.27 14.98 103.68 16.2 66.29-24.9-12.57-72.83-70.65-42.94-178.08-130.85-297.56-179.37-153.6-62.39-321.82-80.99-401.07-80.59-152.99.77-333.34 38.22-471.12 96.05-107.17 44.97-185.37 108.74-225.72 135.63" style="fill:#231f20;fill-opacity:1;fill-rule:evenodd;stroke:none" transform="matrix(.13333 0 0 -.13333 0 794.667)"></path><path d="M2223.01 1606.8c228.33-174.98 501.62-253.74 754.06-253.25 297.81.59 522.26 106.08 758.71 287.74 13.26 10.18 10.97 46.62-43.55 38.1-50.41-7.87-92.69-17.78-143.44-15.25-65.27 3.24-138.81 30.65-203.34 29.72-94.25-1.36-99.11-44.87-189.76-45.22-83.18-.31-103.92 41.81-168.14 40.82-69.76-1.09-106.86-43.11-168.28-43.6-84.5-.66-88.7 36.44-167.26 38.48-66.32 1.71-95.02-36.89-157.58-33.36-58.48 3.31-93.87 36.01-174.93 35.09-19.04-.21-55.76-3.83-81.16-17.25-32.33-17.09-56.09-30.79-15.33-62.02m142.59 29.31c27.16 2.48 50.83-3.15 76.17-12.18 27.01-9.63 50.93-20.41 80.34-20.41 9.2 0 17.62 2.1 26.13 5.48 22.21 8.82 39.28 21.34 63.51 27.49 37.05 9.42 73.28.05 107.31-15.33 26.81-12.12 12.76-40.58-13.07-28.93-27.02 12.22-56.85 21.01-86.42 13.5-21.31-5.41-39.36-18.19-59.61-26.23-12.27-4.88-24.59-7.72-37.85-7.72-34.26 0-59.72 11.1-91.01 22.25-20.85 7.44-40.22 12.52-62.61 10.47-28.04-2.56-30.94 29.05-2.89 31.61m369.17-115.7c42.16 62 112.98 44.18 175.46 35.35 26.04-3.68 86.18-10.1 108.33 6.51 20.82 15.62 42.69-7.68 19.03-25.4-31.65-23.73-94.73-17.79-131.8-12.55-32.34 4.58-84.87 15.76-115.63 3-12.41-5.15-21.65-13.73-29.15-24.76-15.93-23.43-42.8-6.49-26.24 17.85m66.68-105.71c3.09 6.77 7.53 12.71 13.25 17.48 27.91 23.28 72.25 10.89 100.66-4.82 25.27-13.97 61.16-15.89 77.07 12.91 13.72 24.8 42.02 10.4 27.78-15.36-24.72-44.74-79.29-47.95-120.21-25.33-15.1 8.35-58.98 25.39-69.66 1.96-12.2-26.79-40.63-12.64-28.89 13.16m198.2 220c24.38 11.28 47.8 13.39 73.28 4.66 29.25-10.03 53.96-32.21 86.22-32.01 32.54.2 75.03 20.96 105.08 33.33 24.31 9.99 49.77 19.55 75.88 23.34 5.01.72 10.09.95 15.14.73 14.84-.64 29.02-5.01 42.82-10.2 14.57-5.48 36.09-15.75 51.56-15.66 26.79.16 31.41-31.55.19-31.74-35.91-.21-72.95 30.12-105.16 25.46-62.19-9.02-123.72-56.63-185.32-57-20.23-.13-37.77 5.48-55.8 14.16-13.4 6.45-26.87 14.75-40.9 19.56-17.75 6.08-32.69 4.41-49.66-3.44-26.72-12.35-39.06 16.92-13.33 28.81m149.71-158.1c14.17 35.24 48.09 59.31 86.6 52.47 29.46-5.22 53.5-28.33 81.4-31.91 32.95-4.24 62.19 19.82 79.89 45.18 16.23 23.23 42.88 5.96 26.03-18.18-24.8-35.52-64.64-64.31-109.97-58.48-7 .89-13.83 2.64-20.48 4.98-4.15 1.47-8.23 3.15-12.24 4.97-15.04 6.82-34.27 19.37-50.17 22.19-23.58 4.18-43.12-11.94-51.6-33.05-10.95-27.26-40.28-15.12-29.46 11.83m-618.37 37.54c12.72-13.64 56.84-4 85.5-33.8 19.65-20.41-2.48-43.23-22.88-22-21.47 22.32-61.67 8.22-85.84 34.17-19.31 20.73 5.45 40.7 23.22 21.63" style="fill:#fff;fill-opacity:1;fill-rule:evenodd;stroke:none" transform="matrix(.13333 0 0 -.13333 0 794.667)"></path><path d="M2609.86 1186.41h600.48c110 0 176.55-34.91 221.21-138.4l149.27-345.92c25.58-59.277 44.35-135.11 6.14-193.469-43.94-67.117-143.17-80.465-216.54-81.168l-1006.59-.004zm91.34-114.25-170.23-527.758 797.32-1.293c42.96-.074 102.12 8.008 125.64 49.586 18.29 32.356 8.42 73.633-5.39 105.657L3331.21 970.23c-24.84 57.57-56.47 101.93-126.32 101.93z" style="fill:#231f20;fill-opacity:1;fill-rule:evenodd;stroke:none" transform="matrix(.13333 0 0 -.13333 0 794.667)"></path><path d="M2616.79 1176.89h593.55c103.29 0 168.34-30.39 212.46-132.66l149.28-345.917c76.46-177.172-14.7-259.551-201.68-261.336l-993.47-.008zm588.1-95.21h-510.62L2517.9 534.902l810.38-1.316c128.53-.211 172.23 68.355 129 168.539l-117.32 271.879c-22.82 52.866-55.75 107.676-135.07 107.676" style="fill:#e62231;fill-opacity:1;fill-rule:evenodd;stroke:none" transform="matrix(.13333 0 0 -.13333 0 794.667)"></path><path d="m1737.92 1067.04-181.03 223.41-168.69-76.74-83.5 97.03 667.18 303.07 107.21-106.26-331.96-710.913-87.94 102.183zm-71.04 273.45 126.15-155.69 126.7 270.73z" style="fill:#231f20;fill-opacity:1;fill-rule:evenodd;stroke:none" transform="matrix(.13333 0 0 -.13333 0 794.667)"></path><path d="m1651.73 1344.07 143.48-177.08 144.1 307.91zm415.9 161.43-322.9-691.488-74.3 86.347 78.64 168.031-189.42 233.78-168.89-76.84-70.56 81.99 649.64 295.11z" style="fill:#e62231;fill-opacity:1;fill-rule:evenodd;stroke:none" transform="matrix(.13333 0 0 -.13333 0 794.667)" data-source="https://football-logos.cc"></path><!-- source: https://football-logos.cc --></svg>