<svg xmlns="http://www.w3.org/2000/svg" xml:space="preserve" viewBox="52.34 11.12 152.32 234.88"><!-- Source: https://football-logos.cc --><path d="M1476.35 1161.17s-.24-.06-.37-.1c.13.04.25.06.37.1M441.324 1158.99c.125-.04.239-.06.364-.1-.125.04-.239.06-.364.1M1362.79 1218.6H555.367V821.238c-.07-.703-8.562-135.031 36.758-291.633 41.949-144.988 139.813-339.511 367.773-442.812l3.879-1.754 3.875 1.754c227.968 103.301 325.828 297.824 367.778 442.812 45.32 156.614 36.82 290.93 36.73 292.266l.03 396.729z" style="fill:#231f20;fill-opacity:1;fill-rule:evenodd;stroke:none" transform="matrix(.13333 0 0 -.13333 0 257.333)" data-source="https://football-logos.cc"></path><path d="M1071.84 169.203c143.11 104.57 212.18 250.606 245.38 365.035 10.39 35.825 17.89 70.422 23.3 102.481h-268.68z" style="fill:#1e8dd6;fill-opacity:1;fill-rule:evenodd;stroke:none" transform="matrix(.13333 0 0 -.13333 0 257.333)"></path><path d="M1071.49 169.259c143.06 104.604 212.11 250.687 245.3 365.154 10.39 35.836 17.88 70.445 23.29 102.515h-268.59z" style="fill:none;stroke:#231f20;stroke-width:2.19666004;stroke-linecap:butt;stroke-linejoin:miter;stroke-miterlimit:2.61310005;stroke-dasharray:none;stroke-opacity:1" transform="matrix(.13338 0 0 -.13329 0 257.333)"></path><path d="M856.367 1199.83H574.156c0-14.64-.019-259.482-.019-347.771h282.23z" style="fill:#1e8dd6;fill-opacity:1;fill-rule:evenodd;stroke:none" transform="matrix(.13333 0 0 -.13333 0 257.333)"></path><path d="M856.087 1200.22H573.968c0-14.64-.019-259.564-.019-347.882h282.138z" style="fill:none;stroke:#231f20;stroke-width:2.19666004;stroke-linecap:butt;stroke-linejoin:miter;stroke-miterlimit:2.61310005;stroke-dasharray:none;stroke-opacity:1" transform="matrix(.13338 0 0 -.13329 0 257.333)"></path><path d="M1353.4 852.059v347.771h-281.56V852.059z" style="fill:#1e8dd6;fill-opacity:1;fill-rule:evenodd;stroke:none" transform="matrix(.13333 0 0 -.13333 0 257.333)"></path><path d="M1352.96 852.338v347.882h-281.47V852.338Z" style="fill:none;stroke:#231f20;stroke-width:2.19666004;stroke-linecap:butt;stroke-linejoin:miter;stroke-miterlimit:2.61310005;stroke-dasharray:none;stroke-opacity:1" transform="matrix(.13338 0 0 -.13329 0 257.333)"></path><path d="M587.031 636.719c5.418-32.059 12.914-66.653 23.309-102.481 33.242-114.601 102.488-260.906 246.027-365.504v467.985z" style="fill:#1e8dd6;fill-opacity:1;fill-rule:evenodd;stroke:none" transform="matrix(.13333 0 0 -.13333 0 257.333)"></path><path d="M586.839 636.928c5.416-32.07 12.91-66.675 23.301-102.515 33.231-114.639 102.455-260.991 245.947-365.623v468.138z" style="fill:none;stroke:#231f20;stroke-width:2.19666004;stroke-linecap:butt;stroke-linejoin:miter;stroke-miterlimit:2.61310005;stroke-dasharray:none;stroke-opacity:1" transform="matrix(.13338 0 0 -.13329 0 257.333)"></path><path d="M1353.4 821.238v30.821h-281.56v347.771H856.367V852.059h-282.23c-.004-19.547-.004-31.461-.004-31.461-.028-.352-.66-10.418-.66-27.977 0-31.762 2.097-88.094 13.558-155.902h269.336V168.734c31.981-23.304 67.621-44.57 107.41-62.925 40.063 18.472 75.923 39.902 108.063 63.394v467.516h268.68c11.44 67.734 13.55 124.054 13.55 156.008 0 17.742-.64 27.98-.67 28.511" style="fill:#d22027;fill-opacity:1;fill-rule:evenodd;stroke:none" transform="matrix(.13333 0 0 -.13333 0 257.333)"></path><path d="M1352.96 821.508v30.83h-281.47v347.882H856.087V852.338H573.949c-.004-19.553-.004-31.471-.004-31.471-.028-.352-.66-10.422-.66-27.986 0-31.772 2.097-88.123 13.554-155.953h269.248V168.79c31.97-23.313 67.598-44.585 107.374-62.947 40.049 18.479 75.889 39.916 108.029 63.416v467.669h268.59c11.44 67.756 13.54 124.095 13.54 156.058 0 17.748-.63 27.99-.66 28.522z" style="fill:none;stroke:#231f20;stroke-width:2.19666004;stroke-linecap:butt;stroke-linejoin:miter;stroke-miterlimit:2.61310005;stroke-dasharray:none;stroke-opacity:1" transform="matrix(.13338 0 0 -.13329 0 257.333)"></path><path d="M1362.18 1439.48c-399.09-127.75-796.106-1.4-800.063-.12-33.051 10.76-68.051-9.51-78.023-45.19-9.977-35.68 8.754-73.49 41.758-84.29 17.605-5.77 436.187-139.59 871.898-.12 16.04 5.13 29.27 16.7 37.25 32.58 7.97 15.88 9.76 34.16 5 51.49-9.8 35.76-44.71 56.24-77.82 45.65" style="fill:#231f20;fill-opacity:1;fill-rule:evenodd;stroke:none" transform="matrix(.13333 0 0 -.13333 0 257.333)"></path><path d="M1434 1391.91c4.28-15.6 2.68-32.05-4.5-46.34s-19.09-24.71-33.52-29.33c-433.941-138.89-850.781-5.63-868.312.11-29.703 9.72-46.559 43.75-37.582 75.86s40.477 50.36 70.223 40.68c3.98-1.3 402.789-128.21 803.641.1 29.8 9.53 61.22-8.9 70.05-41.08" style="fill:#231f20;fill-opacity:1;fill-rule:evenodd;stroke:none" transform="matrix(.13333 0 0 -.13333 0 257.333)"></path><path d="M1365.74 1426.5c26.48 8.47 54.42-7.9 62.25-36.52 3.81-13.86 2.39-28.48-4-41.18-6.38-12.71-16.97-21.97-29.79-26.07-432.192-138.34-847.259-5.62-864.712.09-26.402 8.64-41.39 38.89-33.41 67.44 7.985 28.53 35.988 44.76 62.426 36.15 3.996-1.3 404.512-128.82 807.236.09" style="fill:#fddd04;fill-opacity:1;fill-rule:evenodd;stroke:none" transform="matrix(.13333 0 0 -.13333 0 257.333)"></path><path d="m1379.89 1441.82-2.21-.71-.05-11.97 2.03-.83c29.04-11.85 45.45-27.21 48.74-45.67l.63-7.18c0-23.96-19.46-45.74-23.21-49.71-34.7-6.76-58.96-21.55-71.94-44.09-6.84-11.9-10.45-25.98-10.45-40.72 0-8.01.99-13.83 1.73-17.29-1.01-2.04-49.74-100.74-49.74-100.74v-1.7c0-31.71 8.55-56.36 25.41-73.26 26.41-26.47 63.26-23.8 64.81-23.68l2.31.19 108.11 116.77c27.26 29.46 41.09 56.44 41.09 80.18 0 4.55-.51 9.04-1.52 13.34-6.13 26.16-28.49 39.73-40.87 45.39 17.64 28.26 26.82 53.68 26.82 75.44 0 14.61-3.9 27.92-11.61 39.59-29.29 44.34-103.1 48.93-110.08 46.65" style="fill:#231f20;fill-opacity:1;fill-rule:evenodd;stroke:none" transform="matrix(.13333 0 0 -.13333 0 257.333)"></path><path d="M1484.88 1391.24c6.93-10.49 10.44-22.49 10.44-35.66 0-21.28-9.33-46.55-27.75-75.11l1.47-5.1c10.17-4.14 34.5-16.57 40.52-42.28.89-3.77 1.33-7.69 1.33-11.68 0-21.88-13.21-47.25-39.26-75.4 0 0-104.84-113.24-106.45-114.99-1.47-.12-35.67-2.59-60.09 21.89-15.53 15.57-23.41 38.54-23.41 68.3.73 1.47 50.09 101.45 50.09 101.45l-.3 1.27c-.67 2.87-1.79 8.88-1.79 17.01 0 13.67 3.2 26.17 9.52 37.14 12.14 21.09 35.27 34.98 68.77 41.29l.94.18.69.71c2.63 2.72 25.69 27.43 25.69 55.2l-.74 8.46c-3.65 20.41-20.83 37.08-50.64 49.71v1.89c12.85.85 75.91-6.37 100.97-44.28M1331.78 1222.68" style="fill:#231f20;fill-opacity:1;fill-rule:evenodd;stroke:none" transform="matrix(.13333 0 0 -.13333 0 257.333)"></path><path d="m1337.31 1219.5 1.2 2.45-.72 2.66c-.02.05-1.77 6.72-1.77 16.25 0 8.64 1.48 21.49 8.54 33.73 11.33 19.62 33.37 32.54 65.49 38.37l1.83.34 1.36 1.36c1.15 1.13 28.32 28.28 28.32 60.68l-.85 9.83c-2.78 15.56-12.87 29.16-29.57 40.71 26.2-5.37 55.52-17.75 69.28-39.58 5.7-9.03 8.6-19.39 8.6-30.78 0-21.01-9.67-46.16-28.74-74.77l-.94-1.42 2.68-8.51 1.53-.5c.34-.11 33.5-11.36 39.95-38.93l1.13-10.03c0-19.99-12.59-43.73-37.43-70.56 0 0-102.93-111.19-104.68-113.09-6.13-.14-33.48.38-53.21 20.2-13.88 13.93-21 34.76-21.26 61.83z" style="fill:#fddd04;fill-opacity:1;fill-rule:evenodd;stroke:none" transform="matrix(.13333 0 0 -.13333 0 257.333)"></path><path d="M1329.18 1222.59c.46-1.04 46.88-104.3 156.28-63.77l-2.02 6.41c-104.03-38.55-146.82 56.2-148.59 60.25z" style="fill:#231f20;fill-opacity:1;fill-rule:evenodd;stroke:none" transform="matrix(.13333 0 0 -.13333 0 257.333)"></path><path d="m1333.52 1228.54-5.67-2.88-1.5-4.51c.47-1.08 48.34-106.94 160.13-65.53l2.97 1.1-3.05 9.6-3.98 2.11c-101.33-37.55-143.02 54.55-144.74 58.49l-1.34 3.05zM1411.2 1269.33c-6.74-6.26-10.16-14.79-10.16-25.35 0-1.96 1.46-3.55 3.28-3.55s3.3 1.59 3.3 3.55c0 8.51 2.58 15.03 7.86 19.95 15.6 14.47 48.9 9.19 49.23 9.14 1.79-.3 3.48 1.03 3.75 2.97s-.96 3.76-2.76 4.05c-1.49.25-36.61 5.83-54.5-10.76" style="fill:#231f20;fill-opacity:1;fill-rule:evenodd;stroke:none" transform="matrix(.13333 0 0 -.13333 0 257.333)"></path><path d="M1409.16 1271.9c-7.47-6.94-11.25-16.33-11.25-27.92 0-3.82 2.88-6.93 6.41-6.93 3.55 0 6.43 3.11 6.43 6.93 0 7.57 2.15 13.09 6.77 17.38 14.3 13.27 46.39 8.41 46.7 8.36 3.52-.57 6.81 2.03 7.33 5.81.53 3.79-1.88 7.33-5.38 7.9-1.53.26-37.99 6.1-57.01-11.53" style="fill:#231f20;fill-opacity:1;fill-rule:evenodd;stroke:none" transform="matrix(.13333 0 0 -.13333 0 257.333)"></path><path d="M1465.23 1276.75c.09-.02.15-.11.13-.21 0-.08-.09-.15-.18-.13-.3.05-34.96 5.66-51.73-9.91-6.03-5.61-8.97-12.96-8.97-22.52 0-.09-.07-.16-.16-.16-.08 0-.15.07-.15.16 0 9.54 3.05 17.19 9.07 22.78 16.86 15.63 51.64 10.05 51.99 9.99M437.59 1395.17c-7.707-11.67-11.613-24.98-11.613-39.59 0-21.76 9.179-47.18 26.82-75.44-12.379-5.66-34.734-19.23-40.867-45.4-1.012-4.29-1.524-8.78-1.524-13.33 0-23.74 13.832-50.72 41.102-80.18l108.094-116.77 2.316-.19c1.555-.12 38.402-2.79 64.812 23.68 16.86 16.9 25.407 41.55 25.407 73.26v1.7s-48.727 98.7-49.739 100.74c.743 3.46 1.739 9.28 1.739 17.29 0 14.75-3.617 28.83-10.457 40.72-12.981 22.54-37.235 37.33-71.946 44.09-3.742 3.97-23.199 25.75-23.199 49.71l.625 7.18c3.301 18.46 19.695 33.82 48.738 45.67l2.036.83-.051 11.97-2.219.71c-6.973 2.28-80.781-2.31-110.074-46.65" style="fill:#231f20;fill-opacity:1;fill-rule:evenodd;stroke:none" transform="matrix(.13333 0 0 -.13333 0 257.333)"></path><path d="M455.934 1146.01c-26.055 28.15-39.262 53.52-39.262 75.4 0 3.99.445 7.91 1.328 11.67 6.027 25.72 30.348 38.15 40.527 42.29l1.461 5.1c-18.414 28.56-27.75 53.83-27.75 75.11 0 13.17 3.516 25.17 10.45 35.66 25.046 37.91 88.113 45.13 100.953 44.28.007-.93.007-1.09.011-1.89-29.808-12.63-46.992-29.3-50.64-49.71l-.739-8.46c0-27.77 23.059-52.48 25.684-55.2l.691-.71.938-.18c33.496-6.31 56.637-20.2 68.773-41.29 6.317-10.97 9.516-23.47 9.516-37.14 0-8.13-1.121-14.14-1.793-17.01l-.293-1.27s49.363-99.98 50.09-101.45c0-29.76-7.875-52.73-23.406-68.3-24.426-24.49-58.641-22.01-60.086-21.89z" style="fill:#231f20;fill-opacity:1;fill-rule:evenodd;stroke:none" transform="matrix(.13333 0 0 -.13333 0 257.333)"></path><path d="M460.359 1150.8c-24.839 26.83-37.429 50.57-37.429 70.56l1.133 10.03c6.437 27.57 39.605 38.82 39.941 38.93l1.531.5 2.688 8.51-.946 1.42c-19.066 28.61-28.73 53.76-28.73 74.77 0 11.39 2.891 21.75 8.59 30.78 13.761 21.83 43.09 34.21 69.281 39.58-16.699-11.55-26.785-25.15-29.566-40.71l-.852-9.83c0-32.4 27.176-59.55 28.328-60.7l1.36-1.34 1.828-.34c32.121-5.83 54.152-18.75 65.484-38.37 7.059-12.24 8.543-25.09 8.543-33.73 0-9.53-1.75-16.2-1.766-16.27l-.73-2.64s49.629-100.53 50.461-102.21c-.266-27.07-7.383-47.9-21.258-61.83-19.73-19.82-47.082-20.34-53.207-20.2-1.754 1.9-104.684 113.09-104.684 113.09" style="fill:#fddd04;fill-opacity:1;fill-rule:evenodd;stroke:none" transform="matrix(.13333 0 0 -.13333 0 257.333)" data-source="https://football-logos.cc"></path><path d="m444.359 1163.05-2.031-6.41c109.406-40.53 155.828 62.73 156.285 63.78l-5.66 2.87c-1.777-4.04-44.57-98.79-148.594-60.24" style="fill:#231f20;fill-opacity:1;fill-rule:evenodd;stroke:none" transform="matrix(.13333 0 0 -.13333 0 257.333)"></path><path d="M590.121 1224.74c-1.726-3.94-43.41-96.04-144.746-58.49l-3.977-2.11-3.039-9.6 2.957-1.09c111.786-41.42 159.661 64.44 160.129 65.52l-1.496 4.51-8.496 4.32zM512.758 1269.33c6.746-6.26 10.168-14.79 10.168-25.35 0-1.96-1.477-3.55-3.297-3.55-1.813 0-3.289 1.59-3.289 3.55 0 8.51-2.574 15.03-7.871 19.95-15.582 14.47-48.887 9.19-49.219 9.14-1.793-.3-3.48 1.03-3.75 2.97-.273 1.94.961 3.76 2.754 4.05 1.484.25 36.605 5.83 54.504-10.76" style="fill:#231f20;fill-opacity:1;fill-rule:evenodd;stroke:none" transform="matrix(.13333 0 0 -.13333 0 257.333)"></path><path d="M457.777 1283.43c-3.492-.57-5.902-4.11-5.375-7.9.532-3.78 3.817-6.38 7.317-5.81.336.05 32.418 4.91 46.715-8.36 4.621-4.29 6.777-9.81 6.777-17.38 0-3.82 2.879-6.93 6.418-6.93 3.543 0 6.426 3.11 6.426 6.93 0 11.59-3.789 20.98-11.258 27.92-19.02 17.63-55.477 11.79-57.02 11.53" style="fill:#231f20;fill-opacity:1;fill-rule:evenodd;stroke:none" transform="matrix(.13333 0 0 -.13333 0 257.333)"></path><path d="M458.594 1276.55c-.012.09.043.18.133.2.351.06 35.132 5.64 51.992-9.99 6.015-5.59 9.074-13.24 9.074-22.78 0-.09-.07-.16-.164-.16a.16.16 0 0 0-.156.16c0 9.56-2.934 16.91-8.965 22.52-16.774 15.57-51.418 9.96-51.762 9.9-.051-.01-.141.06-.152.15M635.289 1332.73l-1.715-7.76q-4.846-2.31-9.433-1.29c-4.895 1.08-8.125 4.43-9.68 10.04-1.559 5.6-1.309 13.06.758 22.37 2.058 9.31 5.011 16.29 8.855 20.95 3.844 4.64 8.258 6.41 13.239 5.32 2.386-.54 4.796-2.11 7.222-4.72l-1.644-7.44c-1.918 2.89-4.098 4.62-6.532 5.15q-4.404.975-7.531-3.78c-2.082-3.17-4.015-8.78-5.797-16.85q-2.655-11.97-1.824-17.67.827-5.7 5.445-6.72c2.106-.46 4.985.33 8.637 2.4M669.09 1362.52c.582-4.18.16-9.89-1.274-17.13-1.406-7.12-3.175-12.54-5.304-16.24s-4.352-5.32-6.68-4.86c-2.437.48-3.937 2.8-4.5 6.94-.559 4.15-.121 9.86 1.32 17.16 1.395 7.04 3.125 12.44 5.211 16.19q3.118 5.64 6.735 4.92c2.41-.47 3.906-2.8 4.492-6.98m-2.184-39.47c3.965 4.63 6.86 11.56 8.688 20.81q2.572 13.02.035 22.08c-1.699 6.04-4.891 9.52-9.582 10.45q-7.254 1.44-12.926-6.03c-3.781-4.97-6.531-11.78-8.246-20.44-1.809-9.16-1.809-16.64 0-22.46 1.816-5.82 4.98-9.17 9.508-10.06 4.383-.86 8.562 1.02 12.523 5.65M683.844 1311.87l-.301 60.32 7.797-1.38-1.41-39.8 12.261 37.89 7.754-1.37-20.968-56.57zM722.32 1351.31l.215-.03.219-24.89-8.328 1.32zm-14.406-42.77 4.301 12.39 10.742-1.7.055-13.07 7.183-1.14-1.613 59.85-7.742 1.22-20.117-56.41zM926.039 1339.17l1.289-.03c4.57-.12 7.684-1.91 9.348-5.36 1.664-3.46 2.383-9.28 2.172-17.46-.211-7.84-1.285-13.43-3.235-16.79-1.933-3.36-5.144-4.98-9.625-4.86l-1.121.03zm.508-51.56c6.039-.16 10.789 2.18 14.254 7.01q5.202 7.26 5.582 21.84c.515 19.47-5.942 29.38-19.36 29.73l-8.328.22-1.547-58.55zM963.652 1331.46h.215l3.965-24.57-8.43.06zm-7.797-44.44 2.387 12.89 10.871-.06 2.024-12.92 7.277-.04-10.613 58.92-7.84.04-11.379-58.79zM1137.83 1347.78c6.91.99 10.72-1.5 11.42-7.47.78-6.63-1.86-10.31-7.91-11.02l-1.32-.16zm6.03-51.17-3.01 25.53 1.56.19q7.59.885 11.43 5.82c2.57 3.29 3.54 7.49 2.95 12.62-.6 5.02-2.65 8.77-6.13 11.26-3.49 2.49-7.9 3.42-13.25 2.79l-7.89-.93 6.85-58.17zM1169.65 1299.82l-7.94 58.02 7.46 1.02 7.94-58.02zM1188.38 1302.41l-9.02 57.88 20.64 3.21 1.08-6.96-13.2-2.06 2.7-17.29 12.1 1.88 1.08-6.95-12.1-1.89 3.07-19.7 13.93 2.17 1.09-6.96zM1219.16 1359.65l1.27.24c4.5.82 7.91-.29 10.25-3.33 2.34-3.03 4.25-8.58 5.71-16.63 1.42-7.72 1.52-13.42.31-17.1-1.21-3.69-4.02-5.93-8.43-6.74l-1.09-.2zm11.12-50.35c5.94 1.09 10.11 4.35 12.51 9.79q3.585 8.175.96 22.53c-3.51 19.15-11.87 27.52-25.07 25.1l-8.2-1.5 10.55-57.61zM1258 1360.01l.21.04 9.05-23.18-8.26-1.73zm1.73-45.09-.39 13.11 10.66 2.22 4.69-12.2 7.12 1.49-22.79 55.37-7.67-1.61 1.25-59.87zM1284.04 1372.95l1.26.3c4.44 1.05 7.91.13 10.41-2.79 2.49-2.91 4.69-8.34 6.58-16.3 1.82-7.63 2.21-13.32 1.2-17.06-1.01-3.75-3.7-6.14-8.06-7.17l-1.09-.26zm13.74-49.7c5.88 1.4 9.87 4.88 11.98 10.44s2.03 13.07-.22 22.54c-4.5 18.94-13.29 26.86-26.35 23.75l-8.11-1.92 13.56-56.98zM1326.12 1330.19l-15.15 56.58 20.18 5.39 1.83-6.8-12.91-3.45 4.53-16.91 11.83 3.17 1.82-6.81-11.82-3.16 5.15-19.27 13.61 3.64 1.82-6.8z" style="fill:#231f20;fill-opacity:1;fill-rule:evenodd;stroke:none" transform="matrix(.13333 0 0 -.13333 0 257.333)"></path><path d="M1151.2 1558.16c-10.8 0-21.28 1.37-31.29 3.91 1.27-8.06 1.95-16.32 1.95-24.74 0-2.67-.07-5.33-.2-7.96 9.57-1.82 19.44-2.8 29.54-2.8 28.25 0 54.74 7.43 77.69 20.4-4.44 9.73-7.91 19.98-10.31 30.65-19.51-12.31-42.61-19.46-67.38-19.46" style="fill:#fddd04;fill-opacity:1;fill-rule:evenodd;stroke:none" transform="matrix(.13333 0 0 -.13333 0 257.333)"></path><path d="M1150.82 1558.67c-10.79 0-21.27 1.37-31.28 3.91 1.28-8.06 1.95-16.32 1.95-24.74 0-2.67-.07-5.33-.2-7.97 9.57-1.81 19.43-2.8 29.53-2.8 28.24 0 54.72 7.44 77.66 20.41a157.4 157.4 0 0 0-10.3 30.65c-19.5-12.3-42.59-19.46-67.36-19.46z" style="fill:none;stroke:#231f20;stroke-width:1.09833002;stroke-linecap:butt;stroke-linejoin:miter;stroke-miterlimit:2.61310005;stroke-dasharray:none;stroke-opacity:1" transform="matrix(.13338 0 0 -.13329 0 257.333)"></path><path d="M1372.77 1764.09c-28.24 0-54.73-7.44-77.67-20.41 4.43-9.72 7.9-19.97 10.29-30.64 19.52 12.31 42.61 19.45 67.38 19.45 69.85 0 126.47-56.58 126.47-126.37 0-69.8-56.62-126.39-126.47-126.39-53.33 0-98.91 33.02-117.51 79.69a125.5 125.5 0 0 0-8.47 36.17c-.3 3.47-.49 6.97-.49 10.53 0 31.63 11.67 60.53 30.89 82.7a125.5 125.5 0 0 1-8.48 36.16c-33.09-28.96-54.02-71.46-54.02-118.86 0-11.95 1.38-23.57 3.89-34.76 2.4-10.66 5.87-20.91 10.31-30.64 24.88-54.61 79.93-92.58 143.88-92.58 87.31 0 158.08 70.73 158.08 157.98 0 87.24-70.77 157.97-158.08 157.97" style="fill:#1879c8;fill-opacity:1;fill-rule:evenodd;stroke:none" transform="matrix(.13333 0 0 -.13333 0 257.333)"></path><path d="M1372.32 1764.67c-28.23 0-54.72-7.44-77.65-20.41 4.43-9.73 7.9-19.99 10.29-30.66 19.51 12.31 42.6 19.46 67.36 19.46 69.83 0 126.43-56.6 126.43-126.42s-56.6-126.42-126.43-126.42c-53.31 0-98.88 33.02-117.47 79.71a125.5 125.5 0 0 0-8.47 36.18c-.3 3.47-.48 6.98-.48 10.53 0 31.65 11.66 60.55 30.87 82.73a125.6 125.6 0 0 1-8.47 36.18c-33.08-28.97-54.01-71.48-54.01-118.91 0-11.95 1.38-23.57 3.89-34.77a157.4 157.4 0 0 1 10.3-30.65c24.88-54.62 79.91-92.61 143.84-92.61 87.28 0 158.03 70.76 158.03 158.03 0 87.28-70.75 158.03-158.03 158.03z" style="fill:none;stroke:#231f20;stroke-width:1.09833002;stroke-linecap:butt;stroke-linejoin:miter;stroke-miterlimit:2.61310005;stroke-dasharray:none;stroke-opacity:1" transform="matrix(.13338 0 0 -.13329 0 257.333)"></path><path d="M807.648 1562.07a127 127 0 0 0-31.289-3.91c-24.781 0-47.871 7.15-67.386 19.46a156 156 0 0 0-10.305-30.65c22.949-12.97 49.441-20.4 77.691-20.4 10.098 0 19.969.98 29.543 2.79a158.473 158.473 0 0 0 1.746 32.71" style="fill:#38933f;fill-opacity:1;fill-rule:evenodd;stroke:none" transform="matrix(.13333 0 0 -.13333 0 257.333)"></path><path d="M807.384 1562.58a127 127 0 0 0-31.279-3.91c-24.773 0-47.855 7.16-67.365 19.46a156.2 156.2 0 0 0-10.301-30.65c22.942-12.97 49.425-20.41 77.666-20.41 10.094 0 19.962.99 29.533 2.79q-.2 3.975-.199 7.98c0 8.42.672 16.68 1.945 24.74z" style="fill:none;stroke:#231f20;stroke-width:1.09833002;stroke-linecap:butt;stroke-linejoin:miter;stroke-miterlimit:2.61310005;stroke-dasharray:none;stroke-opacity:1" transform="matrix(.13338 0 0 -.13329 0 257.333)"></path><path d="M658.852 1724.98a125.4 125.4 0 0 1-8.485-36.17c19.223-22.17 30.875-51.06 30.875-82.69 0-3.55-.183-7.06-.465-10.53a125.9 125.9 0 0 0-8.48-36.17c-18.59-46.67-64.176-79.69-117.516-79.69-69.843 0-126.465 56.59-126.465 126.39 0 69.79 56.622 126.37 126.465 126.37 24.782 0 47.871-7.14 67.379-19.45a156.8 156.8 0 0 0 10.305 30.64c-22.945 12.97-49.434 20.41-77.684 20.41-87.308 0-158.078-70.73-158.078-157.97 0-87.25 70.77-157.98 158.078-157.98 63.961 0 119.004 37.97 143.887 92.58 4.441 9.73 7.91 19.98 10.305 30.64 2.519 11.19 3.89 22.81 3.89 34.76 0 47.4-20.925 89.9-54.011 118.86" style="fill:#e91d24;fill-opacity:1;fill-rule:evenodd;stroke:none" transform="matrix(.13333 0 0 -.13333 0 257.333)"></path><path d="M658.636 1725.54a125.5 125.5 0 0 1-8.482-36.17c19.216-22.18 30.865-51.09 30.865-82.73 0-3.55-.184-7.05-.465-10.53a126 126 0 0 0-8.477-36.18c-18.584-46.68-64.155-79.71-117.478-79.71-69.82 0-126.423 56.6-126.423 126.42s56.603 126.42 126.423 126.42c24.774 0 47.856-7.15 67.357-19.46a157 157 0 0 0 10.302 30.66c-22.938 12.97-49.418 20.41-77.659 20.41-87.28 0-158.026-70.75-158.026-158.03 0-87.27 70.746-158.03 158.026-158.03 63.94 0 118.965 37.99 143.84 92.61 4.44 9.73 7.908 19.99 10.301 30.65 2.519 11.2 3.89 22.82 3.89 34.77 0 47.42-20.919 89.94-53.994 118.9z" style="fill:none;stroke:#231f20;stroke-width:1.09833002;stroke-linecap:butt;stroke-linejoin:miter;stroke-miterlimit:2.61310005;stroke-dasharray:none;stroke-opacity:1" transform="matrix(.13338 0 0 -.13329 0 257.333)"></path><path d="M896.168 1644.11a126.1 126.1 0 0 1 6.609 39c-49.695-20.8-86.511-66.23-95.129-121.04 13.036 3.32 25.254 8.68 36.321 15.69 9.34 27.65 27.972 51 52.199 66.35M932.492 1659.81a127 127 0 0 0 31.285 3.9c10.797 0 21.278-1.36 31.289-3.9a159 159 0 0 0-1.945 24.73c0 2.68.074 5.33.199 7.97-9.574 1.81-19.433 2.8-29.543 2.8-10.101 0-19.972-.99-29.55-2.8.136-2.64.207-5.29.207-7.97 0-8.41-.676-16.67-1.942-24.73M1024.78 1683.11c.15-13.63 2.47-26.73 6.61-39 24.23-15.36 42.86-38.7 52.2-66.34 11.07-7.02 23.28-12.38 36.32-15.7-8.62 54.8-45.43 100.23-95.13 121.04M1090.24 1537.33c0-69.79-56.62-126.38-126.463-126.38-69.839 0-126.461 56.59-126.461 126.38 0 .49.024.96.036 1.44-10-4.18-20.532-7.34-31.45-9.41 4.157-83.54 73.246-150 157.875-150 84.633 0 153.723 66.46 157.883 150.01a157 157 0 0 0-31.46 9.4c0-.48.04-.95.04-1.44" style="fill:#231f20;fill-opacity:1;fill-rule:evenodd;stroke:none" transform="matrix(.13333 0 0 -.13333 0 257.333)"></path><path d="M1119.91 1562.07c-13.04 3.32-25.25 8.68-36.32 15.7 4.14-12.27 6.46-25.37 6.61-39 10-4.18 20.53-7.34 31.46-9.4.13 2.63.2 5.29.2 7.96 0 8.42-.68 16.68-1.95 24.74" style="fill:#231f20;fill-opacity:1;fill-rule:evenodd;stroke:none" transform="matrix(.13333 0 0 -.13333 0 257.333)"></path><path d="M1305.39 1719.3a156.6 156.6 0 0 1-10.29 30.64c-24.9 54.6-79.94 92.58-143.9 92.58-84.63 0-153.723-66.46-157.88-150.01-.125-2.64-.199-5.29-.199-7.97 0-8.41.676-16.67 1.945-24.73 8.624-54.81 45.434-100.24 95.134-121.04-.15 13.63-2.47 26.73-6.61 39-24.23 15.35-42.86 38.7-52.2 66.34a126.1 126.1 0 0 0-6.61 39c-.01.48-.04.95-.04 1.43 0 69.8 56.62 126.38 126.46 126.38 53.34 0 98.93-33.01 117.51-79.68 4.52-11.34 7.43-23.48 8.48-36.17.29-3.47.47-6.98.47-10.53 0-31.63-11.65-60.53-30.87-82.7 1.04-12.68 3.96-24.82 8.47-36.16 33.1 28.95 54.02 71.45 54.02 118.86 0 11.95-1.37 23.57-3.89 34.76" style="fill:#fddd04;fill-opacity:1;fill-rule:evenodd;stroke:none" transform="matrix(.13333 0 0 -.13333 0 257.333)"></path><path d="M1304.96 1719.86a156.8 156.8 0 0 1-10.29 30.66c-24.88 54.61-79.91 92.6-143.85 92.6-84.6 0-153.67-66.48-157.825-150.05-.125-2.65-.199-5.3-.199-7.97 0-8.43.675-16.69 1.944-24.75 8.62-54.82 45.42-100.27 95.1-121.07-.15 13.63-2.47 26.73-6.61 39.01-24.22 15.35-42.84 38.71-52.17 66.36a125.8 125.8 0 0 0-6.62 39.01c-.01.48-.03.95-.03 1.44 0 69.82 56.59 126.42 126.41 126.42 53.32 0 98.9-33.02 117.48-79.71 4.51-11.34 7.43-23.49 8.47-36.18.3-3.48.48-6.98.48-10.53 0-31.65-11.66-60.56-30.87-82.73 1.04-12.69 3.96-24.83 8.47-36.18 33.09 28.97 54 71.48 54 118.91 0 11.95-1.37 23.57-3.89 34.76z" style="fill:none;stroke:#231f20;stroke-width:1.09833002;stroke-linecap:butt;stroke-linejoin:miter;stroke-miterlimit:2.61310005;stroke-dasharray:none;stroke-opacity:1" transform="matrix(.13338 0 0 -.13329 0 257.333)"></path><path d="M843.969 1577.76c-11.067-7.01-23.285-12.37-36.321-15.69a158.5 158.5 0 0 1-1.746-32.71c10.918 2.07 21.45 5.23 31.45 9.41a125.8 125.8 0 0 0 6.617 38.99" style="fill:#231f20;fill-opacity:1;fill-rule:evenodd;stroke:none" transform="matrix(.13333 0 0 -.13333 0 257.333)"></path><path d="M934.227 1692.51c-4.153 83.55-73.231 150.01-157.868 150.01-63.957 0-119.004-37.98-143.894-92.58a157.2 157.2 0 0 1-10.305-30.64c-2.515-11.19-3.883-22.81-3.883-34.76 0-47.4 20.926-89.9 54.02-118.86a125.8 125.8 0 0 1 8.48 36.17c-19.226 22.16-30.882 51.06-30.882 82.69 0 3.55.187 7.05.472 10.53a125.3 125.3 0 0 0 8.485 36.16c18.582 46.68 64.171 79.69 117.507 79.69 69.844 0 126.457-56.58 126.457-126.38 0-.48-.031-.95-.039-1.43a126.1 126.1 0 0 0-6.609-39c-9.336-27.64-27.969-50.99-52.199-66.35a125.8 125.8 0 0 1-6.617-38.99c49.711 20.8 86.511 66.23 95.14 121.04a159 159 0 0 1 1.942 24.73c0 2.68-.071 5.33-.207 7.97" style="fill:#38933f;fill-opacity:1;fill-rule:evenodd;stroke:none" transform="matrix(.13333 0 0 -.13333 0 257.333)"></path><path d="M933.92 1693.07c-4.151 83.57-73.206 150.05-157.815 150.05-63.936 0-118.965-37.99-143.847-92.6a157.4 157.4 0 0 1-10.302-30.66 158.3 158.3 0 0 1-3.881-34.76c0-47.43 20.919-89.94 54.002-118.9a125.9 125.9 0 0 1 8.477 36.17c-19.22 22.17-30.872 51.08-30.872 82.73 0 3.54.187 7.05.472 10.53a125.4 125.4 0 0 0 8.482 36.17c18.576 46.7 64.15 79.72 117.469 79.72 69.821 0 126.416-56.6 126.416-126.42 0-.49-.032-.96-.04-1.44a126.2 126.2 0 0 0-6.607-39.01c-9.333-27.65-27.959-51.01-52.182-66.37a126 126 0 0 1-6.615-39.01c49.695 20.81 86.484 66.26 95.11 121.08 1.265 8.06 1.94 16.32 1.94 24.75 0 2.67-.07 5.32-.207 7.97z" style="fill:none;stroke:#231f20;stroke-width:1.09833002;stroke-linecap:butt;stroke-linejoin:miter;stroke-miterlimit:2.61310005;stroke-dasharray:none;stroke-opacity:1" transform="matrix(.13338 0 0 -.13329 0 257.333)"></path><path d="M983 934.047c100.86-11.34 173.43-102.238 162.09-203.035-11.35-100.793-102.3-173.321-203.18-161.981-100.855 11.344-173.43 102.242-162.082 203.039C791.18 872.867 882.133 945.387 983 934.047" style="fill:#231f20;fill-opacity:1;fill-rule:evenodd;stroke:none" transform="matrix(.13333 0 0 -.13333 0 257.333)"></path><path d="M864.516 896.277c-10.071-6.894-19.477-14.82-28.094-23.625-29.879-31.011-48.453-73.172-49-119.25 11.754 20.094 24.672 40.34 38.258 59.184 18.625 25.629 38.465 48.719 58.672 65.621-6.45 6.453-13.02 12.523-19.836 18.07M936.426 924.348c-21.895-3.254-42.41-10.614-60.805-21.149 18.242-15.652 35.121-34.176 50.754-55.301 18.816-25.453 35.898-54.675 51.355-87.418 22.65-3.058 45.91-3.91 69.52-2.945-12.26 34.086-28.36 66.047-48.406 95.34-17.664 25.863-38.516 49.859-62.418 71.473M1024.92 914.789c-20.42 7.871-42.58 11.973-65.818 11.535-2.059-.039-4.25-.082-6.317-.25 21.309-20.375 40.055-42.469 56.255-66.164 21.38-31.211 38.28-65.207 51.11-101.617 1.42.16 2.84.316 4.25.473 13.92 1.164 27.71 2.972 41.61 5.422-11.13 35.535-25.85 69.964-45.3 101.73-10.4 17.09-22.33 33.516-35.79 48.871M1136.35 770.699c-6.22 56.012-39.02 104.039-85.24 131.426 7.16-9.676 13.92-19.602 20.19-29.812 20.25-33.036 35.51-69.012 46.93-105.829a457 457 0 0 1 18.12 4.215M1130.77 703.758a174.9 174.9 0 0 1 6.66 51.09c-.02 1.027-.17 2.191-.19 3.347-23.91-5.859-47.86-9.672-71.83-11.808-30.16-2.496-60.38-1.903-89.898 1.922-15.492-13.836-28.614-30.086-40.422-47.731 30.445-5.484 69.12-8.625 107.71-7.769 31.1.707 61.9 4 87.97 10.949M1100.39 644.348c10.72 13.742 19.47 29.004 25.75 45.511-25.33-5.898-54.2-8.761-83.12-9.433-41.41-1.039-83.188 2.683-115.2 9.051-8.14-13.063-15.632-26.747-22.867-40.563 27.106-6.066 68.918-11.73 111.917-12.207 28.92-.367 58.2 1.734 83.52 7.641M878.672 598.098a174.7 174.7 0 0 1 87.043-21.328c47.495.89 90.375 20.8 121.415 52.359-22.4-3.777-46.52-5.012-70.42-4.816-45.448.429-89.983 6.683-117.737 13.261-2.739-5.34-5.614-10.812-8.352-16.293-3.976-7.808-7.969-15.496-11.949-23.183M820.367 649.773c12.867-17.957 29.168-33.39 47.719-45.296 3.996 7.558 7.73 14.988 11.594 22.418 24.152 47.418 48.304 94.71 86.261 129.492-10.765 22.765-22.394 43.832-34.898 63.082-24.016-27.035-45.309-55.43-64.117-84.824-17.563-27.297-32.91-55.715-46.559-84.872M788.621 730.719c3.055-24.977 11.379-48.301 23.77-68.973 13.043 27.344 27.648 53.817 44.078 79.543 19.82 30.824 42.113 60.41 67.531 88.758-2.523 3.562-5.035 7-7.555 10.441-7.558 10.309-15.347 19.84-23.527 28.715-19.582-16.238-39.035-38.801-57.156-63.918-17.117-23.551-33.02-49.402-47.141-74.566" style="fill:#fff;fill-opacity:1;fill-rule:evenodd;stroke:none" transform="matrix(.13333 0 0 -.13333 0 257.333)"></path><path d="m985.613 1053.48 15.457-7.82c-2.394-14.09-6.371-24.55-11.91-31.39s-12.586-10.26-21.133-10.26c-10.55 0-19.226 5.83-26.027 17.47-6.801 11.65-10.199 27.58-10.199 47.78 0 21.37 3.414 37.97 10.238 49.79 6.824 11.83 15.809 17.74 26.941 17.74 9.723 0 17.637-4.64 23.727-13.91 3.633-5.49 6.359-13.37 8.173-23.63l-15.857-6.07c-.937 6.64-2.906 11.89-5.902 15.74-3.004 3.85-6.648 5.77-10.937 5.77-5.887 0-10.672-3.42-14.379-10.26s-5.567-17.92-5.567-33.24c0-16.26 1.828-27.83 5.477-34.73 3.656-6.9 8.394-10.35 14.226-10.35q6.366 0 11.008 6.6c3.086 4.4 5.305 11.33 6.664 20.77M1272.91 733.32l15.45-7.82c-2.4-14.094-6.37-24.559-11.9-31.395-5.55-6.843-12.59-10.257-21.15-10.257-10.54 0-19.22 5.82-26.02 17.468q-10.2 17.474-10.2 47.778c0 21.379 3.42 37.972 10.24 49.793 6.82 11.832 15.8 17.742 26.94 17.742 9.73 0 17.63-4.641 23.73-13.918 3.64-5.484 6.35-13.363 8.17-23.633l-15.85-6.058c-.94 6.64-2.91 11.886-5.92 15.73-3 3.855-6.64 5.777-10.93 5.777-5.89 0-10.67-3.422-14.38-10.261-3.7-6.84-5.56-17.922-5.56-33.243 0-16.253 1.83-27.828 5.48-34.734 3.65-6.894 8.39-10.348 14.22-10.348 4.25 0 7.91 2.2 11 6.606 3.09 4.398 5.32 11.324 6.68 20.773M674.434 792.77q9.801 0 13.117-1.231 4.551-1.577 7.437-6.043c1.922-2.976 3.426-7.125 4.508-12.433q1.617-7.982 1.617-22.872c0-9.929-.539-17.765-1.617-23.523q-1.624-8.626-4.156-12.395c-1.692-2.515-3.848-4.293-6.473-5.343q-2.976-1.226-9.621-1.227h-11.984v85.067Zm-23.219-106.774h30.019q8.93 0 14.172 2.719 7.095 3.674 11.207 10.25c3.676 5.785 6.5 13.351 8.489 22.703q2.448 11.472 2.449 27.34c0 12.031-.863 22.16-2.582 30.363q-2.584 12.318-7.571 20.817c-3.328 5.664-7.293 9.613-11.902 11.832q-5.25 2.454-15.051 2.453h-29.23zM959.859 452.422c5.774 0 9.625-.293 11.543-.875 2.571-.766 4.696-2.668 6.391-5.715 1.695-3.055 2.539-6.914 2.539-11.609q0-5.71-1.797-10.024c-1.191-2.871-2.859-4.976-4.984-6.328-2.133-1.344-6.352-2.016-12.649-2.016h-8.75v36.567zm-7.707-106.77v48.493h10.411q10.845 0 16.535 1.839c2.855.993 5.636 3.024 8.351 6.09 2.715 3.067 4.942 7.293 6.688 12.656 1.75 5.383 2.629 12.004 2.629 19.891 0 10.219-1.528 18.559-4.598 25.016-3.059 6.449-6.836 10.64-11.336 12.558-2.973 1.285-9.332 1.934-19.078 1.934h-25.649V345.652z" style="fill:#231f20;fill-opacity:1;fill-rule:evenodd;stroke:none" transform="matrix(.13333 0 0 -.13333 0 257.333)" data-source="https://football-logos.cc"></path><!-- source: https://football-logos.cc --></svg>