<svg xmlns="http://www.w3.org/2000/svg" viewBox="152.78 49.99 718.62 938.68"><!-- Source: https://football-logos.cc --><path fill="#fefefe" fill-rule="evenodd" d="M512.32 81.66c2.9-3.43 6.06-7.59 9.11-10.49 27.23-25.96 67.4-25.56 100.44-11.78 5.92 2.47 13.18 5.76 20.21 9.25q47.29 23.53 66.44 32.07 6.51 2.91 18.14 7.11c22.2 8.04 44.45 8.9 67.37 7.82 9.11-.43 13.07 3.38 18.08 11.29q1.2 1.91 23.29 34.69c9.7 14.4 20.08 28.07 30.08 41.15 4.61 6.02 6.93 12.21 2.74 19.51-2.86 4.96-6.97 8.86-10.74 13.47q-13.26 16.19-22.52 29.45-1.67 2.38-9.69 14.33-5.28 7.88-9.31 14.56-25.33 42.01-43.51 86.11-3.75 9.1-6.7 17.51a.967.947 32.083 0 0 .24 1q6.82 6.67 16.48 17.33 27.44 30.27 47.34 65.88c7.57 13.53 15.13 29.27 20.44 43.51q21.01 56.34 21.15 114.08.14 60.81-21.15 119.02-19.95 54.52-57.23 100.14-36.3 44.42-87.05 75.68-56.87 35.03-123.68 47.69c-56.68 10.75-116.66 8.53-172.45-7.36-66.88-19.05-128.39-56.97-173.75-109.92q-7.44-8.67-18.04-23.16-8.28-11.32-16.05-24.51-15.05-25.56-25.11-50.66c-8.62-21.52-15.46-44.62-19.04-68.06-.81-5.3-1.93-11.92-2.72-18.48q-7.12-59.28 7.36-117.46 6.29-25.25 14.84-45.64c5.69-13.58 13.45-29.66 21.95-43.74q25.03-41.46 59.21-74.58a.922.917-32.504 0 0 .22-.98q-11.11-30.31-25.12-57.81-18.73-36.77-35.86-62.68-17.55-26.54-39.04-50.63-6.39-7.16-4.47-15.01.94-3.83 7.66-12.58 15.5-20.22 19.69-26.19 9.67-13.8 26.24-39.4 2.51-3.89 3.33-4.99c2.65-3.58 4.6-7.57 7.92-9.89 4.22-2.96 9.09-3.05 14.43-2.75 11.78.65 24.01.18 34.24-1.07 18.03-2.2 34.96-7.94 52.31-15.94q24.49-11.29 62.84-30.41 13.33-6.64 23.57-10.42 7.84-2.89 19.38-5.42 24.62-5.4 48.05 1.83 19.29 5.95 32.07 21.17 3.74 4.46 5.44 6.37a.622.621-45.581 0 0 .93-.01m-205.85 798.8q34.65 16.18 71.84 26.71c17.08 4.83 34.21 8.18 51.19 10.3a.591.586 88.516 0 0 .65-.69q-1.18-6.76 1.46-13.18a.822.809-59.185 0 0-.23-.94q-3.4-2.77-3.61-2.92-19.7-13.93-26.72-19.77-10.74-8.92-18.8-16.22-16.92-15.34-32.93-34.55-14.78-17.74-29.25-42.53-2.08-3.56 1.05-6.02 4.48-3.51 8.28-5.76 5.8-3.44 9.03 2.17 38.37 66.46 102.39 109.6 2.55 1.72 3.05 2.03a.811.796 44.488 0 0 .87 0q11.86-7.53 25.28-11.15a.823.82 74.291 0 0 .57-1.02q-.68-2.29-1.32-3.8-7.22-17.09-30.06-71.56c-1.66-3.96-2.2-6.13 1.78-8.16q4.71-2.41 5.93-2.6 4.53-.7 5.98 2.77 14.27 34.14 32.92 79.06a1.818 1.812-14.837 0 0 1.9 1.1q24.66-3.18 50.01 0a.724.72 14.776 0 0 .76-.44q14.5-35.39 30.59-72.5c1.43-3.3 2.18-9.26 7.29-8q2.29.56 6.54 2.15c2.66 1 4.55 2.87 3.35 5.73q-12.98 30.91-30.73 73.05-.26.62-1.06 3.3a.566.556-73.351 0 0 .37.7c10.44 3.19 20.4 7.36 29.35 13.85a.995.99-39.029 0 0 .98.1q46.06-20.37 81.51-55.3c16.39-16.15 29.59-34.23 39.61-54.88q1.88-3.89 6.2-2.76c4.72 1.23 13.51 3.83 11.06 10.21q-2.42 6.28-6.09 13.35c-2.53 4.86-5.54 8.65-8.24 13.27q-2.23 3.83-6.6 9.66-9.3 12.4-21.04 24.27c-5.27 5.34-8.1 7.58-14.04 12.88q-5.89 5.26-11.01 9.1-28.29 21.26-60.81 36.08a.849.847-15.955 0 0-.49.88q.58 4.38-.22 8.44a.855.855-88.549 0 0 .96 1.01q47.85-6.59 93.37-24.63 15.18-6.02 29.01-12.38a.209.208-77.363 0 1 .22.35c-20.91 17.92-46.01 31.37-72.25 39.95q-30.29 9.91-60.81 12.47a1.731 1.722 23.696 0 0-.93.36c-16.86 13.14-40.27 18.94-61.52 20.03a.518.516-8.84 0 0-.47.64l5.3 20.71a.617.612 81.927 0 0 .62.47c20.86-.56 42.23-3.87 62.06-8.13 68.25-14.66 130.59-49.73 178.43-100.6 5.16-5.49 9.48-10.96 13.92-15.9 7.63-8.47 15.81-20.56 21.25-28.89 27.97-42.82 46.44-92.33 52.18-143.3q3.76-33.33.95-66.37c-5.3-62.18-29.49-120.1-67.63-168.95q-17.69-22.67-37.22-40.72a.881.874 32.052 0 1-.22-.94q6.15-16.34 11.67-29.77c4.57-11.11 10.92-24.32 14.9-32.58q16.18-33.51 37.73-66.54 14.71-22.55 29.76-40.46 3.02-3.6 5.62-6.41c4.28-4.62 9.57-9.28 5.59-15.18-4.58-6.77-10.98-13.85-16.43-21.45q-17.64-24.61-37.97-56.06-2.45-3.79-4.83-6.24a3.482 3.475 81.308 0 0-.91-.67q-1.69-.86-4.6-.68-16.64 1.04-17 1.05-30.29 1.41-57.27-9.46-11-4.43-15.63-6.55-19.73-9.07-72.94-34.54c-4.34-2.08-8.64-3.73-13.12-5.67-12.26-5.31-25.66-8.11-39-8.24-17.93-.18-37.27 5.57-49.56 18.55q-7.12 7.5-10.56 13.17-3.21 5.31-5.52 8.77a.526.519-42.653 0 1-.89-.03c-6.86-12.1-14.79-23.08-26.88-30.72q-10.05-6.34-23.48-8.64c-21.36-3.66-42.43 1.53-61.54 10.58q-26.02 12.33-52.2 24.75-20.23 9.59-31.78 14.52-11.17 4.76-21.01 7.71-25.75 7.7-53.75 5.25-6.81-.59-9.63-.82-4.08-.33-6.24 2.96-18.32 27.99-33.81 50.46-7.4 10.73-19.21 25.53-3.01 3.78-5.14 6.93-2.79 4.13.5 8.49c2.6 3.46 5.4 5.9 8.5 9.59q10.6 12.67 13.36 16.28 18.4 24.14 35.46 53.81 29 50.41 46.3 97.92.39 1.08 1.43 4.53a1.011 1.001-30.462 0 1-.27 1.02q-5.99 5.75-10.24 9.79c-3.63 3.44-6.62 7.39-10.19 10.94q-3.35 3.35-7.45 8.35-15.68 19.15-22.5 29.35-10.66 15.96-18.71 30.81-10.62 19.6-18.8 42.16c-21.73 59.94-23.64 125.63-8.47 187.53q3.37 13.72 8.98 29.02c6.76 18.42 14.03 34.88 23.36 51.1q6.99 12.16 8.69 14.84 43.06 67.9 111.84 109.16 47.98 28.79 101.93 41.02 32.77 7.43 65.02 8.72a1.179 1.176 7.908 0 0 1.18-.89l5.07-20.03a.834.834 9.224 0 0-.75-1.04q-10.62-.73-21.43-3.07-17.6-3.79-32.33-12.59c-1.88-1.12-3.87-2.65-5.58-4.23a2.071 2.047 68.537 0 0-1.22-.54q-26.2-2.12-52.05-9.43-45.25-12.8-82.1-42.79a.319.315-12.645 0 1 .34-.53m271.38 32.116a65.37 30.7-.1 0 0-65.424-30.586 65.37 30.7-.1 0 0-65.316 30.814 65.37 30.7-.1 0 0 65.424 30.586 65.37 30.7-.1 0 0 65.316-30.814" data-source="https://football-logos.cc"></path><path fill="#1a2d77" fill-rule="evenodd" d="M306.47 880.46a.319.315-12.645 0 0-.34.53q36.85 29.99 82.1 42.79 25.85 7.31 52.05 9.43a2.071 2.047 68.537 0 1 1.22.54c1.71 1.58 3.7 3.11 5.58 4.23q14.73 8.8 32.33 12.59 10.81 2.34 21.43 3.07a.834.834 9.224 0 1 .75 1.04l-5.07 20.03a1.179 1.176 7.908 0 1-1.18.89q-32.25-1.29-65.02-8.72-53.95-12.23-101.93-41.02-68.78-41.26-111.84-109.16-1.7-2.68-8.69-14.84c-9.33-16.22-16.6-32.68-23.36-51.1q-5.61-15.3-8.98-29.02c-15.17-61.9-13.26-127.59 8.47-187.53q8.18-22.56 18.8-42.16 8.05-14.85 18.71-30.81 6.82-10.2 22.5-29.35 4.1-5 7.45-8.35c3.57-3.55 6.56-7.5 10.19-10.94q4.25-4.04 10.24-9.79a1.011 1.001-30.462 0 0 .27-1.02q-1.04-3.45-1.43-4.53-17.3-47.51-46.3-97.92-17.06-29.67-35.46-53.81-2.76-3.61-13.36-16.28c-3.1-3.69-5.9-6.13-8.5-9.59q-3.29-4.36-.5-8.49 2.13-3.15 5.14-6.93 11.81-14.8 19.21-25.53 15.49-22.47 33.81-50.46 2.16-3.29 6.24-2.96 2.82.23 9.63.82 28 2.45 53.75-5.25 9.84-2.95 21.01-7.71 11.55-4.93 31.78-14.52 26.18-12.42 52.2-24.75c19.11-9.05 40.18-14.24 61.54-10.58q13.43 2.3 23.48 8.64c12.09 7.64 20.02 18.62 26.88 30.72a.526.519-42.653 0 0 .89.03q2.31-3.46 5.52-8.77 3.44-5.67 10.56-13.17c12.29-12.98 31.63-18.73 49.56-18.55 13.34.13 26.74 2.93 39 8.24 4.48 1.94 8.78 3.59 13.12 5.67q53.21 25.47 72.94 34.54 4.63 2.12 15.63 6.55 26.98 10.87 57.27 9.46.36-.01 17-1.05 2.91-.18 4.6.68a3.482 3.475 81.308 0 1 .91.67q2.38 2.45 4.83 6.24 20.33 31.45 37.97 56.06c5.45 7.6 11.85 14.68 16.43 21.45 3.98 5.9-1.31 10.56-5.59 15.18q-2.6 2.81-5.62 6.41-15.05 17.91-29.76 40.46-21.55 33.03-37.73 66.54c-3.98 8.26-10.33 21.47-14.9 32.58q-5.52 13.43-11.67 29.77a.881.874 32.052 0 0 .22.94q19.53 18.05 37.22 40.72c38.14 48.85 62.33 106.77 67.63 168.95q2.81 33.04-.95 66.37c-5.74 50.97-24.21 100.48-52.18 143.3-5.44 8.33-13.62 20.42-21.25 28.89-4.44 4.94-8.76 10.41-13.92 15.9-47.84 50.87-110.18 85.94-178.43 100.6-19.83 4.26-41.2 7.57-62.06 8.13a.617.612 81.927 0 1-.62-.47l-5.3-20.71a.518.516-8.84 0 1 .47-.64c21.25-1.09 44.66-6.89 61.52-20.03a1.731 1.722 23.696 0 1 .93-.36q30.52-2.56 60.81-12.47c26.24-8.58 51.34-22.03 72.25-39.95a.209.208-77.363 0 0-.22-.35q-13.83 6.36-29.01 12.38-45.52 18.04-93.37 24.63a.855.855-88.549 0 1-.96-1.01q.8-4.06.22-8.44a.849.847-15.955 0 1 .49-.88q32.52-14.82 60.81-36.08 5.12-3.84 11.01-9.1c5.94-5.3 8.77-7.54 14.04-12.88q11.74-11.87 21.04-24.27 4.37-5.83 6.6-9.66c2.7-4.62 5.71-8.41 8.24-13.27q3.67-7.07 6.09-13.35c2.45-6.38-6.34-8.98-11.06-10.21q-4.32-1.13-6.2 2.76c-10.02 20.65-23.22 38.73-39.61 54.88q-35.45 34.93-81.51 55.3a.995.99-39.029 0 1-.98-.1c-8.95-6.49-18.91-10.66-29.35-13.85a.566.556-73.351 0 1-.37-.7q.8-2.68 1.06-3.3 17.75-42.14 30.73-73.05c1.2-2.86-.69-4.73-3.35-5.73q-4.25-1.59-6.54-2.15c-5.11-1.26-5.86 4.7-7.29 8q-16.09 37.11-30.59 72.5a.724.72 14.776 0 1-.76.44q-25.35-3.18-50.01 0a1.818 1.812-14.837 0 1-1.9-1.1q-18.65-44.92-32.92-79.06-1.45-3.47-5.98-2.77-1.22.19-5.93 2.6c-3.98 2.03-3.44 4.2-1.78 8.16q22.84 54.47 30.06 71.56.64 1.51 1.32 3.8a.823.82 74.291 0 1-.57 1.02q-13.42 3.62-25.28 11.15a.811.796 44.488 0 1-.87 0q-.5-.31-3.05-2.03-64.02-43.14-102.39-109.6-3.23-5.61-9.03-2.17-3.8 2.25-8.28 5.76-3.13 2.46-1.05 6.02 14.47 24.79 29.25 42.53 16.01 19.21 32.93 34.55 8.06 7.3 18.8 16.22 7.02 5.84 26.72 19.77.21.15 3.61 2.92a.822.809-59.185 0 1 .23.94q-2.64 6.42-1.46 13.18a.591.586 88.516 0 1-.65.69c-16.98-2.12-34.11-5.47-51.19-10.3q-37.19-10.53-71.84-26.71m205.67-753.14a.671.668 46.342 0 1-1.19-.03q-3.09-6.32-5.94-11.29-6.64-11.56-17.86-19.25c-15.02-10.29-35.48-9.53-52.72-4.52-10.09 2.93-19.94 7.03-29.77 11.41q-5.4 2.41-10.29 4.85-34.01 16.98-36.08 18.05c-25.22 13-52.69 23.67-80.95 21.86-8.6-.56-14-2.24-19.33 6.16q-13.9 21.9-40.81 65.66c-3.33 5.42-5.56 10.17-1.81 15.41q17.14 23.97 28.41 42.27.64 1.04 12.57 21.13 6.63 11.18 11.7 21.45c3.33 6.75 11.55 22.41 16.35 34.07 4.32 10.47 8.05 18.16 11.62 28.25q5.05 14.27 5.53 15.94 6.17 21.65 7.28 25.9 16.29 62.55 13.7 128.63-.2 5.15.45 6.87 1.29 3.35 4.84 4.61 8.37 2.95 13.86 5.33 20.36 8.81 36.46 17.27c31.45 16.53 63.19 36.09 92.44 57.7q23.09 17.06 28.69 21.69 3.34 2.76 10.21 8.67c1.6 1.37 2.98 1.94 4.63.47q11.01-9.78 26.26-21.24 10.92-8.21 31.16-22.32 19.37-13.5 44.77-28.47 26.65-15.71 55.57-28.94 12.42-5.67 22.27-9.11c4.93-1.72 8.52-4.3 8.24-9.29q-.5-8.69-.42-17 .5-49.33 10.18-97.07 4.55-22.46 14.99-54.09 2.19-6.65 5.04-13.56 1.59-3.86 5.49-13.4 12.41-30.32 30.85-62.63 1.16-2.02 8.3-14.21 13.36-22.8 31.53-47.49 5.16-7.02.5-14.44-29.8-47.45-42.95-69.22c-2.53-4.17-6.14-6-11.47-5.39-25.94 3-49.85-3.4-73.98-14.48q-9.69-4.45-48.38-23.95c-8.07-4.06-17.7-8.42-25.57-11.58-21.14-8.5-47.02-14.78-68.27-2.55-12.27 7.07-19.49 19.67-26.1 31.87M274.33 438.78l-.16-.06a4.287 4.279 20.072 0 0-5.37 2.49q-5.49 14.03-9.94 26.87c-8.96 25.89-14.34 53.83-17.41 80.73-3.27 28.66-2.97 60.08 2.78 89.24 3.19 16.15 6.25 29.29 11.52 42.72q3.7 9.43 6.26 12.84 2.03 2.71 4.78 2.1c2.22-.5 12.59-5.29 13.68-9.51q.53-2.06-.9-5.36-9.94-22.91-14.1-46-3.21-17.8-4.23-30.09-2.83-34.17-.19-68.5 3.68-47.72 16.02-92.27a4.286 4.286 17.223 0 0-2.74-5.2M752.1 718.21q2.69-2.52 5.76-9.09c9.58-20.51 16.19-40.55 20.47-63.31 7.93-42.13 8.04-85.39.6-128.11q-2.69-15.45-4.95-24.45-6.14-24.49-17.36-52a4.283 4.279 70.34 0 0-5.23-2.48l-.18.05a4.034 4.021 73.665 0 0-2.69 4.94q18.3 65.23 16.54 132.25c-1.03 39.3-8.18 78.53-22.38 115.22q-5.15 13.31-7.02 16.99c-1.78 3.5 1.51 6.8 4.53 7.85 3.43 1.19 8.3 3.37 11.08 2.6a2.032 2.026-73.903 0 0 .83-.46m-313.98-25.7c1.81.59 2.73.73 4.71.02q9.7-3.49 10.1-3.61 3.17-.95 3.76-1.96 1.2-2.07.44-4.07-5.95-15.67-19.35-25.41-13.01-9.45-29.87-8.11c-12.71 1.02-25.78 8.11-32.24 19.32q-7.93 13.77-8.26 30.59-.52 26.58 9.78 50.12 5.99 13.69 16.31 23.37 19.75 18.53 46.9 12.09c11.81-2.8 21.74-10.33 26.18-21.58q4.63-11.76 3.93-25.42a2.715 2.708-87.979 0 0-2.37-2.55q-9.63-1.22-17.13-1.68c-2.71-.17-4.18 1.82-4.11 4.68q.12 5.1-.5 9.38c-1.59 10.87-9.29 16.09-20 16.06q-13.64-.04-21.72-12.45c-9.99-15.35-13.95-35.64-13.18-53.54.5-11.41 4.36-21.45 16.28-24.92 10.32-2.99 19.43 1.67 24.85 10.54q1.27 2.07 4.09 7.9a2.398 2.395-3.653 0 0 1.4 1.23m116.345 14.63c-8.091 31.683-4.55 72.439 33.492 82.153 38.043 9.714 60.689-24.356 68.779-56.039 8.091-31.683 4.55-72.439-33.492-82.153-38.043-9.714-60.689 24.356-68.779 56.039M752 745.86a3.33 3.328 42.269 0 1-2.95.14q-11.31-4.94-29.19-12.59-3.69-1.58-4.42-5-.52-2.46 1.21-6.74 7.45-18.38 13.65-31.38a2.959 2.906-31.485 0 0 .3-1.2q.17-4.16-2.88-6.11-3.62-2.3-14-5.11-2.26-.61-4.74 1.05a1.178 1.156-6.309 0 0-.4.49l-46.3 109.49a2.24 2.198-32.374 0 0-.18.77q-.29 4.32 3.69 6.31 5.94 2.96 11.61 4.8 3.16 1.02 5.61-1.27a2.144 2.089 80.096 0 0 .54-.79q7.79-19.01 17.99-41.95c1.29-2.9 3.83-4.9 6.8-3.62q9.25 3.98 29.62 12.4c2.24.92 4.17 2.03 4.21 4.67q.04 2.97-.39 4.05-2.65 6.61-17.45 41.71a2.35 2.173 59.856 0 0-.17.76q-.16 3.63 2.83 5.33 3.08 1.75 11.76 5.27c2.75 1.12 5.25.82 7.15-1.21a1.514 1.511 76.948 0 0 .28-.45q10.19-24.6 27.14-64.81 16.13-38.28 17.71-41.11c1.84-3.3 2.56-7.04-.69-9.23q-2.89-1.94-10.13-4.98c-2.72-1.14-8.59-2.04-9.76 1.44-1.59 4.74-3.73 8.87-6.1 14.53q-6.39 15.24-8.72 20.77a3.878 3.531 78.348 0 1-.51.86q-1.38 1.75-3.12 2.71m-430.54 69.47q-.83-2.26-1.14-2.86-12.22-23.53-16.94-32.49-1.81-3.45.9-6.87a2.306 2.267 4.877 0 1 .7-.58q16.02-8.68 21.11-10.87c3.42-1.47 5.75-4.11 4.07-7.52q-2.41-4.92-5.17-9.79-2.94-5.18-8.05-2.64-22.62 11.27-22.99 11.49a1.725 1.692 28.023 0 1-.78.23q-2.78.11-3.92-1.98-6.02-11.09-9.28-17.12a2.377 2.318 25.855 0 1-.26-.72q-.68-3.55 2.49-5.13 23.54-11.76 32.03-15.99 1.9-.94 2.32-3.81.21-1.44-1.52-4.41-1.37-2.34-5.06-9.42a2.126 2.088-84.715 0 0-.53-.65q-3.12-2.61-5.92-1.2-46.56 23.38-55.04 27.59a1.516 1.494 8.551 0 0-.44.32q-3.6 3.6-1.01 8.48 3.49 6.58 13.25 25.19 4.03 7.69 5.65 11.09c4.58 9.6 9.32 17.51 14.36 27.59q2.79 5.59 17.25 33.45a1.446 1.377-84.188 0 0 .31.4c1.76 1.59 3.5 1.85 5.92.69q11.39-5.45 14.79-7.22 2.54-1.32 3-4.23a2.1 2.056 40.001 0 0-.1-1.02m100.788-118.256a2.3 2.3 0 0 0-2.842-1.582l-12.214 3.479a2.3 2.3 0 0 0-1.582 2.842l12.082 42.413a2.3 2.3 0 0 0 2.842 1.582l12.214-3.479a2.3 2.3 0 0 0 1.582-2.842z"></path><path fill="#fefefe" fill-rule="evenodd" d="M512.14 127.32c6.61-12.2 13.83-24.8 26.1-31.87 21.25-12.23 47.13-5.95 68.27 2.55 7.87 3.16 17.5 7.52 25.57 11.58q38.69 19.5 48.38 23.95c24.13 11.08 48.04 17.48 73.98 14.48 5.33-.61 8.94 1.22 11.47 5.39q13.15 21.77 42.95 69.22 4.66 7.42-.5 14.44-18.17 24.69-31.53 47.49-7.14 12.19-8.3 14.21-18.44 32.31-30.85 62.63-3.9 9.54-5.49 13.4-2.85 6.91-5.04 13.56-10.44 31.63-14.99 54.09-9.68 47.74-10.18 97.07-.08 8.31.42 17c.28 4.99-3.31 7.57-8.24 9.29q-9.85 3.44-22.27 9.11-28.92 13.23-55.57 28.94-25.4 14.97-44.77 28.47-20.24 14.11-31.16 22.32-15.25 11.46-26.26 21.24c-1.65 1.47-3.03.9-4.63-.47q-6.87-5.91-10.21-8.67-5.6-4.63-28.69-21.69c-29.25-21.61-60.99-41.17-92.44-57.7q-16.1-8.46-36.46-17.27-5.49-2.38-13.86-5.33-3.55-1.26-4.84-4.61-.65-1.72-.45-6.87 2.59-66.08-13.7-128.63-1.11-4.25-7.28-25.9-.48-1.67-5.53-15.94c-3.57-10.09-7.3-17.78-11.62-28.25-4.8-11.66-13.02-27.32-16.35-34.07q-5.07-10.27-11.7-21.45-11.93-20.09-12.57-21.13-11.27-18.3-28.41-42.27c-3.75-5.24-1.52-9.99 1.81-15.41q26.91-43.76 40.81-65.66c5.33-8.4 10.73-6.72 19.33-6.16 28.26 1.81 55.73-8.86 80.95-21.86q2.07-1.07 36.08-18.05 4.89-2.44 10.29-4.85c9.83-4.38 19.68-8.48 29.77-11.41 17.24-5.01 37.7-5.77 52.72 4.52q11.22 7.69 17.86 19.25 2.85 4.97 5.94 11.29a.671.668 46.342 0 0 1.19.03m-42.31 29.12c-2.51-1.22-4.11-3.17-2.91-5.96 1.86-4.32 5.63-7.88 8.56-10.69 5.36-5.15 7.46-11.77 3.72-18.56-7.71-13.98-33.01-9.71-44.75-5.74q-14.31 4.84-22.2 9.54-20.46 12.19-37.26 20.71-14.74 7.46-28.11 11.38-22.93 6.73-48.38 8.21-5.33.3-16.99.69-10.73.35-15.8 9.89-1.76 3.32-3.38 5.93-13.75 22.09-25.66 41.03c-4.19 6.66-2.52 11.92 1.42 18.04q9.32 14.51 16.82 26.67 17.8 28.85 34.05 61.03 6.89 13.65 11.74 25.01 6.84 16.04 10.3 25.6 21.3 58.97 26.52 123.27 1.6 19.72 1.21 37.51-.19 8.05 4.57 13.15 2.28 2.46 11.08 6.26 15.14 6.55 35.38 17.36 30.5 16.27 48.71 27.28 25.48 15.4 46.39 30.11 7.12 5 18.24 13.61 4.67 3.61 6.95 4.05 4.43.86 7.66-1.63 21.16-16.32 40.96-29.24 17.64-11.52 41-25.34 8.54-5.05 14.86-8.42c12.88-6.89 19.8-11 31.46-16.51q2.01-.95 16.6-8.1 4.16-2.04 6.81-3.11c6.78-2.74 12.38-5.01 15.15-11.38q1.17-2.7 1.19-11.85.06-51.1 11.71-100.81c1.63-6.93 4.47-19.18 7.12-28.05q12.42-41.57 32-80.33 14.65-29 31.23-56.29 15.11-24.88 18.16-29.6c4.2-6.52 6.25-11.88 2.2-18.14q-16.87-26.05-30.81-49.36c-2.82-4.7-9.04-7.57-14.99-7.66-11.4-.18-22.81-.84-34.56-2.38q-31.89-4.18-58.74-17.97-22.12-11.36-29.34-15.89c-17.15-10.78-36.66-18.98-56.96-18.05-8.8.4-20.04 5.44-20.54 15.52-.44 8.72 5.89 12.72 9.52 16.81 3.27 3.68 8.04 9.16 2.06 12.32q-5.35 2.83-11.9 2.72c-8.52-.13-12.7-9.51-20.03-12.98q-13.1-6.21-24.28 2.56-2.37 1.86-7.31 6.6c-5.98 5.73-13.63 4.5-20.45 1.18"></path><path fill="#1a2d77" fill-rule="evenodd" d="M466.92 150.48c-1.2 2.79.4 4.74 2.91 5.96 6.82 3.32 14.47 4.55 20.45-1.18q4.94-4.74 7.31-6.6 11.18-8.77 24.28-2.56c7.33 3.47 11.51 12.85 20.03 12.98q6.55.11 11.9-2.72c5.98-3.16 1.21-8.64-2.06-12.32-3.63-4.09-9.96-8.09-9.52-16.81.5-10.08 11.74-15.12 20.54-15.52 20.3-.93 39.81 7.27 56.96 18.05q7.22 4.53 29.34 15.89 26.85 13.79 58.74 17.97c11.75 1.54 23.16 2.2 34.56 2.38 5.95.09 12.17 2.96 14.99 7.66q13.94 23.31 30.81 49.36c4.05 6.26 2 11.62-2.2 18.14q-3.05 4.72-18.16 29.6-16.58 27.29-31.23 56.29-19.58 38.76-32 80.33c-2.65 8.87-5.49 21.12-7.12 28.05q-11.65 49.71-11.71 100.81-.02 9.15-1.19 11.85c-2.77 6.37-8.37 8.64-15.15 11.38q-2.65 1.07-6.81 3.11-14.59 7.15-16.6 8.1c-11.66 5.51-18.58 9.62-31.46 16.51q-6.32 3.37-14.86 8.42-23.36 13.82-41 25.34-19.8 12.92-40.96 29.24-3.23 2.49-7.66 1.63-2.28-.44-6.95-4.05-11.12-8.61-18.24-13.61-20.91-14.71-46.39-30.11-18.21-11.01-48.71-27.28-20.24-10.81-35.38-17.36-8.8-3.8-11.08-6.26-4.76-5.1-4.57-13.15.39-17.79-1.21-37.51-5.22-64.3-26.52-123.27-3.46-9.56-10.3-25.6-4.85-11.36-11.74-25.01-16.25-32.18-34.05-61.03-7.5-12.16-16.82-26.67c-3.94-6.12-5.61-11.38-1.42-18.04q11.91-18.94 25.66-41.03 1.62-2.61 3.38-5.93 5.07-9.54 15.8-9.89 11.66-.39 16.99-.69 25.45-1.48 48.38-8.21 13.37-3.92 28.11-11.38 16.8-8.52 37.26-20.71 7.89-4.7 22.2-9.54c11.74-3.97 37.04-8.24 44.75 5.74 3.74 6.79 1.64 13.41-3.72 18.56-2.93 2.81-6.7 6.37-8.56 10.69m45.75 490.2q1.95-1.45 3.97-3 34.56-26.54 78.6-51.67c9.22-5.25 13.81-8.09 21.25-12.03q.03-.02 24.15-12.57 7.61-3.95 25.3-11.77 4.76-2.1 5.69-2.7a5.387 5.196 7.375 0 0 .66-.49q2.67-2.32 2.65-5.95-.26-62.57 16.29-124.48 5.93-22.23 12.38-39.93 8.65-23.78 19.38-45.65 5.18-10.56 7.13-14.57c3.58-7.37 9.08-16.4 13-23.97q6.38-12.29 13.57-23.66c6.89-10.89 13.92-23.28 21-34.04 2.05-3.11.68-6.25-1.26-9.33q-13.89-22.07-27.71-44.56-2.25-3.66-5.81-3.71-19.3-.27-31.65-1.66-14.04-1.57-30.42-5.71-14.44-3.64-29.16-10.39-17.37-7.96-31.93-16.63-11.53-6.87-15.46-8.81-11.82-5.84-16.2-7.24c-9.44-3.01-22.01-5.63-31.09-2.5-4.15 1.43-4.32 5.64-1.68 8.39q4.23 4.39 7.23 8.28c5.14 6.67 7.46 16.58.37 22.65-3.84 3.29-9.28 4.97-14.11 6.05-6.67 1.5-12.6.45-18.64-2.74-3.95-2.09-7.21-6.04-10.81-9.11-3.48-2.96-9.16-3.63-13.48-1.09q-3.54 2.08-4.94 3.61c-5.04 5.49-12.67 10.82-20.18 10.33q-4.18-.27-8.2-1.42c-7.54-2.14-15.25-4.7-16.5-13.6q-.71-5.04 1.93-9.78 2.63-4.72 4.02-6.23 6.22-6.74 6.77-7.47 2.18-2.94.76-5.27c-2.59-4.24-11.24-4.02-15.79-3.72-11.97.81-23.27 4.97-34.75 11.43q-13.22 7.45-22.51 12.81c-8.52 4.91-19.01 9.81-25.46 12.72q-9.76 4.4-21.03 8-3.84 1.23-17.03 4.15-8.52 1.9-17.3 2.76-16.36 1.62-29.77 1.94c-4.98.12-8.58.89-10.92 4.89q-8.25 14.08-10.18 17.06-7.32 11.29-17.16 27.26c-2.72 4.43-2.9 5.89.2 10.61q10.04 15.33 13.7 21.55 5.66 9.63 10.56 17.59c6.79 11.02 9.82 17.17 16.4 29.46 2.12 3.96 5.29 8.79 7.42 13.44 4.5 9.83 11.27 22.64 15.3 32.36 10.29 24.8 18.39 48.1 24.47 73.86 3.48 14.75 6.42 27.8 8.43 41.9q.48 3.37 3.36 29.36c1.39 12.59 2.01 25.89 1.88 36.38-.07 5.4-.8 12.95 3.31 14.79 41.71 18.74 80.53 40.71 118.9 65.09q9.55 6.06 29 20.15c4.37 3.17 7.15 5.84 10.88 8.59a1.024 1.016-45.235 0 0 1.22-.01"></path><path fill="#d93521" fill-rule="evenodd" d="M512.67 640.68a1.024 1.016-45.235 0 1-1.22.01c-3.73-2.75-6.51-5.42-10.88-8.59q-19.45-14.09-29-20.15c-38.37-24.38-77.19-46.35-118.9-65.09-4.11-1.84-3.38-9.39-3.31-14.79.13-10.49-.49-23.79-1.88-36.38q-2.88-25.99-3.36-29.36c-2.01-14.1-4.95-27.15-8.43-41.9-6.08-25.76-14.18-49.06-24.47-73.86-4.03-9.72-10.8-22.53-15.3-32.36-2.13-4.65-5.3-9.48-7.42-13.44-6.58-12.29-9.61-18.44-16.4-29.46q-4.9-7.96-10.56-17.59-3.66-6.22-13.7-21.55c-3.1-4.72-2.92-6.18-.2-10.61q9.84-15.97 17.16-27.26 1.93-2.98 10.18-17.06c2.34-4 5.94-4.77 10.92-4.89q13.41-.32 29.77-1.94 8.78-.86 17.3-2.76 13.19-2.92 17.03-4.15 11.27-3.6 21.03-8c6.45-2.91 16.94-7.81 25.46-12.72q9.29-5.36 22.51-12.81c11.48-6.46 22.78-10.62 34.75-11.43 4.55-.3 13.2-.52 15.79 3.72q1.42 2.33-.76 5.27-.55.73-6.77 7.47-1.39 1.51-4.02 6.23-2.64 4.74-1.93 9.78c1.25 8.9 8.96 11.46 16.5 13.6q4.02 1.15 8.2 1.42c7.51.49 15.14-4.84 20.18-10.33q1.4-1.53 4.94-3.61c4.32-2.54 10-1.87 13.48 1.09 3.6 3.07 6.86 7.02 10.81 9.11 6.04 3.19 11.97 4.24 18.64 2.74 4.83-1.08 10.27-2.76 14.11-6.05 7.09-6.07 4.77-15.98-.37-22.65q-3-3.89-7.23-8.28c-2.64-2.75-2.47-6.96 1.68-8.39 9.08-3.13 21.65-.51 31.09 2.5q4.38 1.4 16.2 7.24 3.93 1.94 15.46 8.81 14.56 8.67 31.93 16.63 14.72 6.75 29.16 10.39 16.38 4.14 30.42 5.71 12.35 1.39 31.65 1.66 3.56.05 5.81 3.71 13.82 22.49 27.71 44.56c1.94 3.08 3.31 6.22 1.26 9.33-7.08 10.76-14.11 23.15-21 34.04q-7.19 11.37-13.57 23.66c-3.92 7.57-9.42 16.6-13 23.97q-1.95 4.01-7.13 14.57-10.73 21.87-19.38 45.65-6.45 17.7-12.38 39.93-16.55 61.91-16.29 124.48.02 3.63-2.65 5.95a5.387 5.196 7.375 0 1-.66.49q-.93.6-5.69 2.7-17.69 7.82-25.3 11.77-24.12 12.55-24.15 12.57c-7.44 3.94-12.03 6.78-21.25 12.03q-44.04 25.13-78.6 51.67-2.02 1.55-3.97 3m179.45-443.71c-9.29-7.26-17.54-1.61-17.67 9.3q-.16 14.53 7.84 26.75 4.08 6.23 8.2 11.59a1.469 1.463-44.482 0 1-.02 1.81c-6.77 8.53-7.89 19.88.49 27.35 5.91 5.27 15.86 6.22 22.53 1.75q6.61-4.43 7.87-11.05 1.42-7.41-1.99-13.9-1.66-3.16-2.52-4.26a1.376 1.353-59.386 0 1-.27-1.09q.3-1.65 1.43-3.22c3.78-5.27 7.77-9.98 10-15.41 3.15-7.68 8.27-27.26-2.1-32.45-4.09-2.04-8.71.3-12.01 2.88a.785.778-35.278 0 1-1.14-.19c-3.28-5.1-8.29-7.55-14.06-5.08-2.2.93-3.76 2.87-5.12 4.97a1.01 1.002-54.502 0 1-1.46.25M293.3 221.32q.42.82 2.62 4.55c4.82 8.21.62 15.32-4.33 22.37q-2.55 3.62.65 6.7a1.977 1.903-15.836 0 0 .9.48c6.77 1.46 13.93-1.53 19.89 3.07 4.13 3.18 5.94 6.84 8.56 12.12q1.18 2.37 4.69 1.92a1.84 1.806 20.622 0 0 .95-.42q1.72-1.44 2.32-2.82c3.06-6.97 7.2-13.22 15.6-13.35q6.51-.1 10.31-.13 3.67-.03 3.76-3.58c.1-3.67-2.29-6.6-4.56-10.35-3.29-5.46-3.09-12.18.43-17.65 1.88-2.91 7.25-9.92 1.65-12.21a2.235 2.077 53.44 0 0-.86-.16c-9.04.24-17.48 1.21-22.36-7.37-1.28-2.24-2.8-6.84-5.92-9.76a2.161 2.132 73.827 0 0-.93-.52q-3.56-.96-5.63 2.38c-2.99 4.82-4.76 11.47-11.9 14.56-3.49 1.51-9.41.45-13.74.48-6.22.03-5.41 5.32-2.57 8.95a4.897 4.673 13.917 0 1 .47.74m191 150.43c-5.79-1.42-13.72-2.67-20.64-4.66q-19.79-5.69-35.53-14.55-14.1-7.93-18.91-11.27-26-18.05-46.24-42.1c-1.61-1.92-3.02-2.73-5.28-1.52-1.51.81-1.72 3.32-1.29 4.66 3.05 9.52 4.72 18.79 7.26 33.26q12.82 72.96-4.2 144.47-1.01 4.24-2.86 11.86c-.62 2.55-.75 4.52 1.68 5.77 2.8 1.43 5.43-3.84 6.73-5.15 6.82-6.85 13.57-14.42 20.95-20.62 7.26-6.1 9.78-8.84 16.27-13.42q8.42-5.93 18.48-12.12 6.93-4.25 13.34-7.22 11.99-5.54 13.86-6.24 17.81-6.66 37.34-9.74a.704.703-88.314 0 1 .8.85c-1.24 5.58-1.74 11.1-3.33 17.31q-7.97 31.32-25.39 57.32c-11.9 17.77-27.18 34.26-43.87 48.37q-1.73 1.47-2.25 2.64c-1 2.27.92 4.39 3.14 4.7q.65.09 3.08-.45c5.05-1.13 9.21-2.62 14.71-3.79 16.96-3.62 35.42-7.19 53.51-8.21q20.7-1.17 22.84-1.16 15.86.06 32.25 1.22c22.14 1.56 44.88 6.33 65.85 11.48 1.44.36 4.23.72 5.2-.86q1.54-2.49-.67-4.48-18.32-16.49-32.92-34.55-25.29-31.27-36.36-69.7c-2.04-7.08-2.75-12.68-3.56-19.7a.943.935-.219 0 1 1.04-1.04c11.31 1.26 23.99 5.01 33.87 8.68q1.82.67 16.08 6.97 8.17 3.61 15.46 8.25 15 9.54 19.17 12.86c7.74 6.17 13.77 10.56 20.49 16.85q11.2 10.51 19.6 20.29c1.48 1.73 4.24.65 5.03-1.19.81-1.86-1.79-10.16-3.54-17.03q-1.66-6.53-4.35-20.72-1.82-9.6-3.03-20.95c-3.5-32.83-2.84-67.28 3.37-100.05q3.88-20.53 7.74-34.56c.37-1.34-.01-3.68-1.8-4-2.34-.42-3.12-.04-4.79 1.79q-14.84 16.2-24.17 24.16-7.48 6.39-16.72 13.01-28.03 20.08-60.42 29.83-11.32 3.41-21.85 4.33a.817.81.565 0 1-.88-.89q.77-7.35 2.45-13.5c2.05-7.54 4.77-16.07 7.79-22.78 8.44-18.78 16.22-33.46 27.02-47.63q10.29-13.5 13.72-17.51 10.24-11.95 20.64-21.28c1.83-1.64 3.59-4.16 1.33-6.02q-1.38-1.15-2.85-.71-24.81 7.44-51.43 11.67-38.05 6.04-79.69 1.83-15.54-1.57-33.65-5.91-21.09-5.07-26.22-6.71c-3.01-.97-6.26-1.22-6.42 2.78a3.013 3.008-68.093 0 0 1 2.35c1.72 1.53 4.83 4.16 6.87 6.34q6.6 7.07 8.96 9.44c5.78 5.82 9.75 11.44 14.94 17.51q2.64 3.09 6.32 8.39 9.71 13.99 16.14 26c9.15 17.08 16.78 36.48 19.95 55.68a.946.943-87.578 0 1-1.16 1.07"></path><path fill="#1a2d77" fill-rule="evenodd" d="M692.12 196.97a1.01 1.002-54.502 0 0 1.46-.25c1.36-2.1 2.92-4.04 5.12-4.97 5.77-2.47 10.78-.02 14.06 5.08a.785.778-35.278 0 0 1.14.19c3.3-2.58 7.92-4.92 12.01-2.88 10.37 5.19 5.25 24.77 2.1 32.45-2.23 5.43-6.22 10.14-10 15.41q-1.13 1.57-1.43 3.22a1.376 1.353-59.386 0 0 .27 1.09q.86 1.1 2.52 4.26 3.41 6.49 1.99 13.9-1.26 6.62-7.87 11.05c-6.67 4.47-16.62 3.52-22.53-1.75-8.38-7.47-7.26-18.82-.49-27.35a1.469 1.463-44.482 0 0 .02-1.81q-4.12-5.36-8.2-11.59-8-12.22-7.84-26.75c.13-10.91 8.38-16.56 17.67-9.3m11.158 43.222q.498-.004.661-.728 2.511-11.154 4.831-25.704.61-3.84.177-9.205c-.237-2.907-2.456-8.731-6.069-8.698s-5.726 5.895-5.911 8.806q-.337 5.372.343 9.2 2.581 14.506 5.294 25.613.176.721.674.716m-6.158.418c-1.13-13.38-1.24-24.75-6.6-35.33-1.29-2.55-4.54-7.28-7.91-5.86-1.77.75-2.48 2.77-2.67 4.58-1.48 14.26 6.24 27.37 16.19 37.07a.585.581 19.871 0 0 .99-.46m12.408-.088a.58.576-20.599 0 0 .988.443c9.744-9.743 17.233-22.84 15.586-36.961-.211-1.792-.94-3.786-2.705-4.508-3.359-1.365-6.522 3.366-7.769 5.911-5.182 10.558-5.148 21.833-6.1 35.115m6.645 18.303a13.01 12.67-5.8 0 0-14.223-11.29 13.01 12.67-5.8 0 0-11.663 13.92 13.01 12.67-5.8 0 0 14.223 11.29 13.01 12.67-5.8 0 0 11.663-13.92M292.83 220.58c-2.84-3.63-3.65-8.92 2.57-8.95 4.33-.03 10.25 1.03 13.74-.48 7.14-3.09 8.91-9.74 11.9-14.56q2.07-3.34 5.63-2.38a2.161 2.132 73.827 0 1 .93.52c3.12 2.92 4.64 7.52 5.92 9.76 4.88 8.58 13.32 7.61 22.36 7.37a2.235 2.077 53.44 0 1 .86.16c5.6 2.29.23 9.3-1.65 12.21-3.52 5.47-3.72 12.19-.43 17.65 2.27 3.75 4.66 6.68 4.56 10.35q-.09 3.55-3.76 3.58-3.8.03-10.31.13c-8.4.13-12.54 6.38-15.6 13.35q-.6 1.38-2.32 2.82a1.84 1.806 20.622 0 1-.95.42q-3.51.45-4.69-1.92c-2.62-5.28-4.43-8.94-8.56-12.12-5.96-4.6-13.12-1.61-19.89-3.07a1.977 1.903-15.836 0 1-.9-.48q-3.2-3.08-.65-6.7c4.95-7.05 9.15-14.16 4.33-22.37q-2.2-3.73-2.62-4.55a4.897 4.673 13.917 0 0-.47-.74m2.79-3.67q.66 1.28 3.49 5.14 7.35 10.03 1.59 20.89-1.98 3.74-4.77 6.76a.58.578-70.976 0 0 .47.97c8.62-.7 17.01-.53 22.92 6.78q3.47 4.28 5.5 8.92a.448.444 46.195 0 0 .81.02q1.27-2.61 1.96-4.06c5.14-10.77 14.67-12.4 25.68-11.75a.625.621 72.41 0 0 .52-1.01q-3.29-4.18-5.54-9.16c-3.67-8.14.05-16.21 5.45-22.67a.649.641-71.891 0 0-.53-1.06q-2.23.13-7.15.12c-9.72-.01-16.85-6.59-19.71-15.62q-.16-.53-.94-1.41a.55.542-57.281 0 0-.93.21c-3 10.02-9.74 17.25-20.97 16.8q-5.74-.23-7.53-.34a.33.324-11.268 0 0-.32.47"></path><path fill="#fefefe" fill-rule="evenodd" d="M702.878 195.857c3.613-.033 5.832 5.791 6.069 8.698q.433 5.365-.177 9.205-2.32 14.55-4.831 25.704-.163.724-.661.728t-.674-.716q-2.713-11.107-5.294-25.613-.68-3.828-.343-9.2c.185-2.911 2.298-8.774 5.911-8.806M697.12 240.61a.585.581 19.871 0 1-.99.46c-9.95-9.7-17.67-22.81-16.19-37.07.19-1.81.9-3.83 2.67-4.58 3.37-1.42 6.62 3.31 7.91 5.86 5.36 10.58 5.47 21.95 6.6 35.33M709.528 240.522c.952-13.282.918-24.557 6.1-35.115 1.247-2.545 4.41-7.276 7.769-5.911 1.765.722 2.494 2.716 2.705 4.508 1.647 14.121-5.842 27.218-15.586 36.961a.58.576-20.599 0 1-.988-.443M295.62 216.91a.33.324-11.268 0 1 .32-.47q1.79.11 7.53.34c11.23.45 17.97-6.78 20.97-16.8a.55.542-57.281 0 1 .93-.21q.78.88.94 1.41c2.86 9.03 9.99 15.61 19.71 15.62q4.92.01 7.15-.12a.649.641-71.891 0 1 .53 1.06c-5.4 6.46-9.12 14.53-5.45 22.67q2.25 4.98 5.54 9.16a.625.621 72.41 0 1-.52 1.01c-11.01-.65-20.54.98-25.68 11.75q-.69 1.45-1.96 4.06a.448.444 46.195 0 1-.81-.02q-2.03-4.64-5.5-8.92c-5.91-7.31-14.3-7.48-22.92-6.78a.58.578-70.976 0 1-.47-.97q2.79-3.02 4.77-6.76 5.76-10.86-1.59-20.89-2.83-3.86-3.49-5.14" data-source="https://football-logos.cc"></path><path fill="#1a2d77" fill-rule="evenodd" d="M484.3 371.75a.946.943-87.578 0 0 1.16-1.07c-3.17-19.2-10.8-38.6-19.95-55.68q-6.43-12.01-16.14-26-3.68-5.3-6.32-8.39c-5.19-6.07-9.16-11.69-14.94-17.51q-2.36-2.37-8.96-9.44c-2.04-2.18-5.15-4.81-6.87-6.34a3.013 3.008-68.093 0 1-1-2.35c.16-4 3.41-3.75 6.42-2.78q5.13 1.64 26.22 6.71 18.11 4.34 33.65 5.91 41.64 4.21 79.69-1.83 26.62-4.23 51.43-11.67 1.47-.44 2.85.71c2.26 1.86.5 4.38-1.33 6.02q-10.4 9.33-20.64 21.28-3.43 4.01-13.72 17.51c-10.8 14.17-18.58 28.85-27.02 47.63-3.02 6.71-5.74 15.24-7.79 22.78q-1.68 6.15-2.45 13.5a.817.81.565 0 0 .88.89q10.53-.92 21.85-4.33 32.39-9.75 60.42-29.83 9.24-6.62 16.72-13.01 9.33-7.96 24.17-24.16c1.67-1.83 2.45-2.21 4.79-1.79 1.79.32 2.17 2.66 1.8 4q-3.86 14.03-7.74 34.56c-6.21 32.77-6.87 67.22-3.37 100.05q1.21 11.35 3.03 20.95 2.69 14.19 4.35 20.72c1.75 6.87 4.35 15.17 3.54 17.03-.79 1.84-3.55 2.92-5.03 1.19q-8.4-9.78-19.6-20.29c-6.72-6.29-12.75-10.68-20.49-16.85q-4.17-3.32-19.17-12.86-7.29-4.64-15.46-8.25-14.26-6.3-16.08-6.97c-9.88-3.67-22.56-7.42-33.87-8.68a.943.935-.219 0 0-1.04 1.04c.81 7.02 1.52 12.62 3.56 19.7q11.07 38.43 36.36 69.7 14.6 18.06 32.92 34.55 2.21 1.99.67 4.48c-.97 1.58-3.76 1.22-5.2.86-20.97-5.15-43.71-9.92-65.85-11.48q-16.39-1.16-32.25-1.22-2.14-.01-22.84 1.16c-18.09 1.02-36.55 4.59-53.51 8.21-5.5 1.17-9.66 2.66-14.71 3.79q-2.43.54-3.08.45c-2.22-.31-4.14-2.43-3.14-4.7q.52-1.17 2.25-2.64c16.69-14.11 31.97-30.6 43.87-48.37q17.42-26 25.39-57.32c1.59-6.21 2.09-11.73 3.33-17.31a.704.703-88.314 0 0-.8-.85q-19.53 3.08-37.34 9.74-1.87.7-13.86 6.24-6.41 2.97-13.34 7.22-10.06 6.19-18.48 12.12c-6.49 4.58-9.01 7.32-16.27 13.42-7.38 6.2-14.13 13.77-20.95 20.62-1.3 1.31-3.93 6.58-6.73 5.15-2.43-1.25-2.3-3.22-1.68-5.77q1.85-7.62 2.86-11.86 17.02-71.51 4.2-144.47c-2.54-14.47-4.21-23.74-7.26-33.26-.43-1.34-.22-3.85 1.29-4.66 2.26-1.21 3.67-.4 5.28 1.52q20.24 24.05 46.24 42.1 4.81 3.34 18.91 11.27 15.74 8.86 35.53 14.55c6.92 1.99 14.85 3.24 20.64 4.66M656.39 476.2q.05-.82-.04-1.27-1.63-8.92-3.75-21.22c-5.27-30.53-5.68-62.61-2.47-92.68q1.29-12.14 4.52-31.64c.52-3.09 1.71-6.53 2.04-9.89a.426.426-19.047 0 0-.72-.35q-13.33 12.86-28.44 24.08-20.79 15.43-48.13 26.35-23.84 9.52-49.26 11.09a1.097 1.092 1.104 0 1-1.16-1.2q.93-9.21 2.23-14.99 5.54-24.56 14.3-43.08 8.05-16.98 20.1-34.73 11.2-16.5 25.33-31.06a.594.59 25.381 0 0-.36-1q-1.21-.15-2.89.27-47.85 11.89-96.04 8.99-19.45-1.17-34.27-4.07-14.65-2.86-24.42-5.12a.602.601-15.361 0 0-.57 1q15.5 16.39 28.14 35.03 26.06 38.46 33.75 84.03.41 2.44.6 4.92a.908.906 89.147 0 1-.94.97c-8.65-.39-15.42-1.83-25.52-4.06q-9.33-2.06-15.83-4.42-18.61-6.77-33.27-15c-12.44-6.98-26.1-16.63-37.71-27.16q-7.75-7.04-12.26-11.54a.411.409 37.847 0 0-.65.08c-.35.59 1.86 11.39 3.67 21.77q2.81 16.06 3.85 32.95c1.66 27.1.73 54.3-3.89 80.97q-1.55 8.97-4.13 21.68a.683.681 73.213 0 0 1.15.62q27.18-27.33 61.11-44.7c8.74-4.47 17.57-7.53 26.69-10.65q17.66-6.05 37-7.04a.786.785-89.67 0 1 .82.83q-.87 16.21-5.24 31.79-11.43 40.77-38.12 73.12-8.86 10.75-18.79 20.7-.37.38-.43.81a.443.442 87.684 0 0 .53.49q25.26-5.31 51.67-7.96c33.47-3.36 69.54-.3 103.42 7.34q1.29.29 2.89.35a.605.604 77.545 0 0 .56-.88l-.16-.32a1.27 1.201-83.206 0 0-.26-.35q-8.18-7.77-12.6-13.18c-5.49-6.7-9.92-11.81-14.48-18.42q-10.03-14.56-17.98-30.81c-2.21-4.51-3.7-8.95-5.64-13.61-4.67-11.22-7.45-23.89-9.8-36.04q-1.3-6.75-1.45-13.04a.824.818 86.554 0 1 .73-.83q.72-.08 2.18.04c47.06 3.88 90.44 29.78 123.57 62.35a.482.481-65.65 0 0 .82-.31"></path><path fill="#fefefe" fill-rule="evenodd" d="M716.173 258.825a13.01 12.67-5.8 0 1-11.663 13.92 13.01 12.67-5.8 0 1-14.223-11.29 13.01 12.67-5.8 0 1 11.663-13.92 13.01 12.67-5.8 0 1 14.223 11.29M656.39 476.2a.482.481-65.65 0 1-.82.31c-33.13-32.57-76.51-58.47-123.57-62.35q-1.46-.12-2.18-.04a.824.818 86.554 0 0-.73.83q.15 6.29 1.45 13.04c2.35 12.15 5.13 24.82 9.8 36.04 1.94 4.66 3.43 9.1 5.64 13.61q7.95 16.25 17.98 30.81c4.56 6.61 8.99 11.72 14.48 18.42q4.42 5.41 12.6 13.18a1.27 1.201-83.206 0 1 .26.35l.16.32a.605.604 77.545 0 1-.56.88q-1.6-.06-2.89-.35c-33.88-7.64-69.95-10.7-103.42-7.34q-26.41 2.65-51.67 7.96a.443.442 87.684 0 1-.53-.49q.06-.43.43-.81 9.93-9.95 18.79-20.7 26.69-32.35 38.12-73.12 4.37-15.58 5.24-31.79a.786.785-89.67 0 0-.82-.83q-19.34.99-37 7.04c-9.12 3.12-17.95 6.18-26.69 10.65q-33.93 17.37-61.11 44.7a.683.681 73.213 0 1-1.15-.62q2.58-12.71 4.13-21.68c4.62-26.67 5.55-53.87 3.89-80.97q-1.04-16.89-3.85-32.95c-1.81-10.38-4.02-21.18-3.67-21.77a.411.409 37.847 0 1 .65-.08q4.51 4.5 12.26 11.54c11.61 10.53 25.27 20.18 37.71 27.16q14.66 8.23 33.27 15 6.5 2.36 15.83 4.42c10.1 2.23 16.87 3.67 25.52 4.06a.908.906 89.147 0 0 .94-.97q-.19-2.48-.6-4.92-7.69-45.57-33.75-84.03-12.64-18.64-28.14-35.03a.602.601-15.361 0 1 .57-1q9.77 2.26 24.42 5.12 14.82 2.9 34.27 4.07 48.19 2.9 96.04-8.99 1.68-.42 2.89-.27a.594.59 25.381 0 1 .36 1q-14.13 14.56-25.33 31.06-12.05 17.75-20.1 34.73-8.76 18.52-14.3 43.08-1.3 5.78-2.23 14.99a1.097 1.092 1.104 0 0 1.16 1.2q25.42-1.57 49.26-11.09 27.34-10.92 48.13-26.35 15.11-11.22 28.44-24.08a.426.426-19.047 0 1 .72.35c-.33 3.36-1.52 6.8-2.04 9.89q-3.23 19.5-4.52 31.64c-3.21 30.07-2.8 62.15 2.47 92.68q2.12 12.3 3.75 21.22.09.45.04 1.27M274.33 438.78a4.286 4.286 17.223 0 1 2.74 5.2q-12.34 44.55-16.02 92.27-2.64 34.33.19 68.5 1.02 12.29 4.23 30.09 4.16 23.09 14.1 46 1.43 3.3.9 5.36c-1.09 4.22-11.46 9.01-13.68 9.51q-2.75.61-4.78-2.1-2.56-3.41-6.26-12.84c-5.27-13.43-8.33-26.57-11.52-42.72-5.75-29.16-6.05-60.58-2.78-89.24 3.07-26.9 8.45-54.84 17.41-80.73q4.45-12.84 9.94-26.87a4.287 4.279 20.072 0 1 5.37-2.49zM751.27 718.67c-2.78.77-7.65-1.41-11.08-2.6-3.02-1.05-6.31-4.35-4.53-7.85q1.87-3.68 7.02-16.99c14.2-36.69 21.35-75.92 22.38-115.22q1.76-67.02-16.54-132.25a4.034 4.021 73.665 0 1 2.69-4.94l.18-.05a4.283 4.279 70.34 0 1 5.23 2.48q11.22 27.51 17.36 52 2.26 9 4.95 24.45c7.44 42.72 7.33 85.98-.6 128.11-4.28 22.76-10.89 42.8-20.47 63.31q-3.07 6.57-5.76 9.09a2.032 2.026-73.903 0 1-.83.46M438.12 692.51a2.398 2.395-3.653 0 1-1.4-1.23q-2.82-5.83-4.09-7.9c-5.42-8.87-14.53-13.53-24.85-10.54-11.92 3.47-15.78 13.51-16.28 24.92-.77 17.9 3.19 38.19 13.18 53.54q8.08 12.41 21.72 12.45c10.71.03 18.41-5.19 20-16.06q.62-4.28.5-9.38c-.07-2.86 1.4-4.85 4.11-4.68q7.5.46 17.13 1.68a2.715 2.708-87.979 0 1 2.37 2.55q.7 13.66-3.93 25.42c-4.44 11.25-14.37 18.78-26.18 21.58q-27.15 6.44-46.9-12.09-10.32-9.68-16.31-23.37-10.3-23.54-9.78-50.12.33-16.82 8.26-30.59c6.46-11.21 19.53-18.3 32.24-19.32q16.86-1.34 29.87 8.11 13.4 9.74 19.35 25.41.76 2-.44 4.07-.59 1.01-3.76 1.96-.4.12-10.1 3.61c-1.98.71-2.9.57-4.71-.02M623.244 651.101c38.042 9.714 41.583 50.47 33.492 82.153-8.09 31.683-30.736 65.753-68.779 56.039s-41.583-50.47-33.492-82.153c8.09-31.683 30.736-65.753 68.779-56.039m-44.871 62.238c-2.532 9.993-3.65 19.283-2.863 29.159.84 10.512 6.83 20.842 17.157 23.816 25.218 7.257 35.806-20.781 40.449-39.104 4.643-18.324 8.684-48.02-16.948-53.647-10.497-2.303-20.683 3.928-26.427 12.772-5.395 8.31-8.836 17.011-11.368 27.004"></path><path fill="#1a2d77" fill-rule="evenodd" d="M633.116 727.21c-4.643 18.323-15.231 46.361-40.449 39.104-10.327-2.974-16.317-13.304-17.157-23.816-.787-9.876.331-19.166 2.863-29.159s5.973-18.694 11.368-27.004c5.744-8.844 15.93-15.075 26.427-12.772 25.632 5.627 21.591 35.323 16.948 53.647m-12.52-25.432a3.07 3.07 0 0 0-2.184-3.752l-10.925-2.887a3.07 3.07 0 0 0-3.753 2.184l-11.25 42.579a3.07 3.07 0 0 0 2.184 3.752l10.925 2.887a3.07 3.07 0 0 0 3.753-2.184z"></path><path fill="#fefefe" fill-rule="evenodd" d="M752 745.86q1.74-.96 3.12-2.71a3.878 3.531 78.348 0 0 .51-.86q2.33-5.53 8.72-20.77c2.37-5.66 4.51-9.79 6.1-14.53 1.17-3.48 7.04-2.58 9.76-1.44q7.24 3.04 10.13 4.98c3.25 2.19 2.53 5.93.69 9.23q-1.58 2.83-17.71 41.11-16.95 40.21-27.14 64.81a1.514 1.511 76.948 0 1-.28.45c-1.9 2.03-4.4 2.33-7.15 1.21q-8.68-3.52-11.76-5.27-2.99-1.7-2.83-5.33a2.35 2.173 59.856 0 1 .17-.76q14.8-35.1 17.45-41.71.43-1.08.39-4.05c-.04-2.64-1.97-3.75-4.21-4.67q-20.37-8.42-29.62-12.4c-2.97-1.28-5.51.72-6.8 3.62q-10.2 22.94-17.99 41.95a2.144 2.089 80.096 0 1-.54.79q-2.45 2.29-5.61 1.27-5.67-1.84-11.61-4.8-3.98-1.99-3.69-6.31a2.24 2.198-32.374 0 1 .18-.77l46.3-109.49a1.178 1.156-6.309 0 1 .4-.49q2.48-1.66 4.74-1.05 10.38 2.81 14 5.11 3.05 1.95 2.88 6.11a2.959 2.906-31.485 0 1-.3 1.2q-6.2 13-13.65 31.38-1.73 4.28-1.21 6.74.73 3.42 4.42 5 17.88 7.65 29.19 12.59a3.33 3.328 42.269 0 0 2.95-.14M321.56 816.35q-.46 2.91-3 4.23-3.4 1.77-14.79 7.22c-2.42 1.16-4.16.9-5.92-.69a1.446 1.377-84.188 0 1-.31-.4q-14.46-27.86-17.25-33.45c-5.04-10.08-9.78-17.99-14.36-27.59q-1.62-3.4-5.65-11.09-9.76-18.61-13.25-25.19-2.59-4.88 1.01-8.48a1.516 1.494 8.551 0 1 .44-.32q8.48-4.21 55.04-27.59 2.8-1.41 5.92 1.2a2.126 2.088-84.715 0 1 .53.65q3.69 7.08 5.06 9.42 1.73 2.97 1.52 4.41-.42 2.87-2.32 3.81-8.49 4.23-32.03 15.99-3.17 1.58-2.49 5.13a2.377 2.318 25.855 0 0 .26.72q3.26 6.03 9.28 17.12 1.14 2.09 3.92 1.98a1.725 1.692 28.023 0 0 .78-.23q.37-.22 22.99-11.49 5.11-2.54 8.05 2.64 2.76 4.87 5.17 9.79c1.68 3.41-.65 6.05-4.07 7.52q-5.09 2.19-21.11 10.87a2.306 2.267 4.877 0 0-.7.58q-2.71 3.42-.9 6.87 4.72 8.96 16.94 32.49.31.6 1.14 2.86a2.1 2.056 40.001 0 1 .1 1.02M609.346 744.357a3.07 3.07 0 0 1-3.753 2.184l-10.925-2.887a3.07 3.07 0 0 1-2.184-3.752l11.25-42.579a3.07 3.07 0 0 1 3.753-2.184l10.925 2.887a3.07 3.07 0 0 1 2.184 3.752zM434.33 739.487a2.3 2.3 0 0 1-1.582 2.842l-12.214 3.479a2.3 2.3 0 0 1-2.842-1.582l-12.082-42.413a2.3 2.3 0 0 1 1.582-2.842l12.214-3.479a2.3 2.3 0 0 1 2.842 1.582z"></path><path fill="#1a2d77" fill-rule="evenodd" d="M577.85 912.576a65.37 30.7-.1 0 1-65.316 30.814 65.37 30.7-.1 0 1-65.424-30.586 65.37 30.7-.1 0 1 65.316-30.814 65.37 30.7-.1 0 1 65.424 30.586" data-source="https://football-logos.cc"></path><!-- source: https://football-logos.cc --></svg>