<svg xmlns="http://www.w3.org/2000/svg" width="49.281" height="73.587" viewBox="-1.72 0 49.281 73.587"><!-- Source: https://football-logos.cc --><path d="m12.195 45.897 7.765 19.036 6.547-.982 9.541-25.07-5.753-.608z" data-source="https://football-logos.cc" style="fill:#f9e55e;fill-opacity:1;stroke:#fff;stroke-width:.02;stroke-linecap:round;stroke-miterlimit:4;stroke-dasharray:none;stroke-opacity:1;paint-order:markers fill stroke"></path><path d="M19.598 62.176c2.2-1.341 3.29-1.811 4.311-3.307 1.628-2.385 3.408-3.121 5.162-4.122l-6.149 16.276z" style="fill:#fff;fill-opacity:1;stroke:#fff;stroke-width:.1;stroke-linecap:butt;stroke-linejoin:miter;stroke-miterlimit:4;stroke-dasharray:none;stroke-opacity:1"></path><path d="M-.79 14.172h47.424l-8.574 20.78-30.964-3.45z" style="fill:#5e94c0;fill-opacity:1;stroke:none;stroke-width:1.4;stroke-linecap:square;stroke-miterlimit:4;stroke-dasharray:none;stroke-opacity:1;paint-order:markers fill stroke"></path><path d="M13.078 46.998c9.2-.832 7.228-2.564 9.363-3.598.616-.298 2.367-.335 3.32-.987.76-.522.85-1.903 1.692-2.188 1.627-.76 8.904-.352 8.117-.352l3.38-8.372H6.605Z" style="fill:#7eb7e2;fill-opacity:1;stroke:none;stroke-width:0;stroke-linecap:butt;stroke-linejoin:miter;stroke-miterlimit:4;stroke-dasharray:none;stroke-opacity:1"></path><path d="M11.29 31.501a11.632 10.369 0 0 1 11.632-10.369 11.632 10.369 0 0 1 11.632 10.37H22.922z" style="fill:#fcbe58;fill-opacity:1;stroke:#fcbe58;stroke-width:.131015;stroke-linecap:square;stroke-linejoin:bevel;stroke-miterlimit:4;stroke-dasharray:none;stroke-opacity:1"></path><path d="m8.647 36.088 3.34 8.42c9.854-1.466 19.06-6.86 16.028-19.039-.156.608-.053.929-.332 0-.003 8.833-14.712 10.121-19.036 10.62z" style="fill:#000;fill-opacity:1;stroke:#000;stroke-width:.7;stroke-linecap:butt;stroke-linejoin:bevel;stroke-miterlimit:4;stroke-dasharray:none;stroke-opacity:1"></path><path d="M11.046 41.612c9.666-.415 19.773-2.57 17.097-13.52-.565 2.266-2.287 4.124-3.82 5.523l-.036.38c-3.893 3.266-9.756 4.243-14.472 4.85z" style="fill:#fff;fill-opacity:1;stroke:none;stroke-width:.01;stroke-linecap:butt;stroke-linejoin:miter;stroke-miterlimit:4;stroke-dasharray:none;stroke-opacity:1"></path><path d="M9.338 37.936c9.622-.693 16.086-4.711 16.962-7.687-4.136 3.962-10.522 5.338-17.333 6.19z" style="fill:#fff;fill-opacity:1;stroke:none;stroke-width:.265;stroke-linecap:butt;stroke-linejoin:miter;stroke-miterlimit:4;stroke-dasharray:none;stroke-opacity:1"></path><path d="M11.046 41.612c2.05-.352 7.88-1.269 12.098-4.263.89.203 1.863.366 2.88.507l-2.576 2.48-3.236 1.914c-2.596 1.065-5.317 1.86-8.225 2.257z" style="fill:#ec6852;fill-opacity:1;stroke:#000;stroke-width:.25;stroke-linecap:butt;stroke-linejoin:miter;stroke-miterlimit:4;stroke-dasharray:none;stroke-opacity:1"></path><path d="M22.922 14.904v5.848" style="fill:none;stroke:#fcbe58;stroke-width:1.04833;stroke-linecap:square;stroke-miterlimit:4;stroke-dasharray:none;stroke-opacity:1;paint-order:markers fill stroke"></path><path d="m18.494 14.992 1.466 6.314" style="fill:none;stroke:#fcbe58;stroke-width:1.048;stroke-linecap:square;stroke-miterlimit:4;stroke-dasharray:none;stroke-opacity:1;paint-order:markers fill stroke"></path><path d="m13.615 14.952 3.813 7.312m-8.887-7.42 6.29 8.748M3.051 14.67l10.67 11.44M2.977 22.264l8.892 5.885m-5.372 1.738h5.263" data-source="https://football-logos.cc" style="fill:none;stroke:#fcbe58;stroke-width:1.04833;stroke-linecap:square;stroke-miterlimit:4;stroke-dasharray:none;stroke-opacity:1;paint-order:markers fill stroke"></path><path d="m26.934 25.306 1.613-.176" style="fill:#f0f;fill-opacity:1;stroke:#000;stroke-width:.6;stroke-linecap:round;stroke-miterlimit:4;stroke-dasharray:none;stroke-opacity:1;paint-order:markers fill stroke"></path><path d="M27.928 24.99c-.186-1.045-.466-1.95-1.234-2.964.1.654.134 1.3.017 1.923.64.062.716.57.76 1.164z" style="fill:#000;fill-opacity:1;stroke:#000;stroke-width:.02;stroke-linecap:round;stroke-miterlimit:4;stroke-dasharray:none;stroke-opacity:1;paint-order:markers fill stroke"></path><path d="M22.922 14.904v5.848" style="fill:none;stroke:#fcbe58;stroke-width:1.04833;stroke-linecap:square;stroke-miterlimit:4;stroke-dasharray:none;stroke-opacity:1;paint-order:markers fill stroke"></path><path d="m27.35 14.992-1.466 6.314" style="fill:none;stroke:#fcbe58;stroke-width:1.048;stroke-linecap:square;stroke-miterlimit:4;stroke-dasharray:none;stroke-opacity:1;paint-order:markers fill stroke"></path><path d="m32.23 14.952-3.814 7.312m8.887-7.42-6.289 8.748m11.778-8.922-10.67 11.44m7.225 3.777h-5.263" style="fill:none;stroke:#fcbe58;stroke-width:1.04833;stroke-linecap:square;stroke-miterlimit:4;stroke-dasharray:none;stroke-opacity:1;paint-order:markers fill stroke"></path><path d="m8.647 36.088 3.34 8.42c9.854-1.466 19.06-6.86 16.028-19.039-.156.608-.053.929-.332 0-.003 8.833-14.712 10.121-19.036 10.62z" style="fill:none;fill-opacity:1;stroke:#000;stroke-width:.7;stroke-linecap:butt;stroke-linejoin:bevel;stroke-miterlimit:4;stroke-dasharray:none;stroke-opacity:1"></path><path d="m42.867 22.264-8.893 5.885" style="fill:none;stroke:#fcbe58;stroke-width:1.04833;stroke-linecap:square;stroke-miterlimit:4;stroke-dasharray:none;stroke-opacity:1;paint-order:markers fill stroke"></path><path d="M22.92 9.757c-5.637 0-13.173.738-23.711 4.414L22.92 71.748l23.711-57.577C36.094 10.495 28.558 9.757 22.92 9.757Z" style="fill:none;fill-opacity:1;stroke:#caba5b;stroke-width:1.39998;stroke-linecap:square;stroke-miterlimit:4;stroke-dasharray:none;stroke-opacity:1;paint-order:markers fill stroke"></path><path d="M.07 14.172h22.852" style="fill:none;fill-opacity:1;stroke:#caba5b;stroke-width:1.4;stroke-linecap:square;stroke-miterlimit:4;stroke-dasharray:none;stroke-opacity:1;paint-order:markers fill stroke"></path><g style="font-weight:700;font-size:9.87778px;font-family:&quot;Georgia Pro&quot;;-inkscape-font-specification:&quot;Georgia Pro, Bold&quot;;fill:#52a172;fill-opacity:1;stroke:none;stroke-width:1.4;stroke-linecap:square;stroke-miterlimit:4;stroke-dasharray:none;stroke-opacity:1;paint-order:markers fill stroke"><path d="M138.369 119.523q-1.003.376-1.907.19t-1.602-.836q-.695-.657-1.08-1.682-.292-.78-.308-1.522-.01-.743.246-1.39.261-.65.782-1.144.523-.5 1.3-.792.87-.327 1.6-.276.735.049 1.304.412.568.36.942.971l-1.572.59q-.176-.223-.436-.367-.256-.146-.583-.168-.33-.025-.722.122-.457.171-.734.476-.274.299-.383.695t-.066.854q.048.456.23.94.243.65.658 1.081.417.426.938.565.521.14 1.081-.07.488-.183.764-.504.28-.326.356-.7.074-.378-.051-.712l-.01-.027-1.391.522-.441-1.174 2.876-1.08 1.382 3.68-1.089.409-.486-.9-.028.011q-.06.456-.273.809-.213.352-.545.606t-.753.411zm6.358-1.767-1.208-7.25 3.021-.503q.766-.128 1.424.031.656.155 1.175.568.523.411.869 1.048.345.637.484 1.47.135.808.021 1.507-.114.693-.473 1.237-.36.544-.959.908-.595.358-1.428.497zm1.431-1.68 1.133-.19q.628-.104 1-.425.375-.326.5-.846.122-.524.007-1.214-.114-.685-.408-1.159-.29-.475-.745-.688-.457-.217-1.066-.115l-1.16.193zm8.334.473v-7.35h3.27q.651 0 1.138.173.492.174.825.511.338.333.52.777.184.439.184.979 0 .695-.304 1.23-.299.53-.853.834-.55.3-1.312.3h-1.76v2.546zm1.707-3.883h1.433q.535 0 .815-.28.284-.28.284-.747 0-.482-.284-.743-.285-.265-.806-.265H156.2Zm10.777 4.834q-.79-.132-1.4-.522-.605-.39-.992-.972-.386-.588-.528-1.316t-.008-1.532q.135-.809.496-1.452.367-.643.918-1.075.552-.436 1.25-.608.705-.176 1.518-.04.6.1 1.08.327.485.228.815.566.43.444.624 1.01.2.56.16 1.185l-1.656-.277q.01-.35-.137-.648-.145-.303-.433-.508-.283-.208-.693-.277-.618-.103-1.084.142-.462.246-.757.754-.294.503-.408 1.184-.114.685.02 1.26.14.57.506.95.368.379.938.474.443.074.796-.048t.593-.39.34-.633l1.67.279q-.128.53-.443.982-.314.446-.75.75-.472.332-1.073.447-.6.115-1.362-.012m9.405 1.937q-.775-.202-1.347-.646-.568-.442-.9-1.057-.333-.62-.41-1.357-.076-.738.13-1.527.206-.793.624-1.402.423-.608 1.01-.988.589-.385 1.3-.493.717-.112 1.515.096.588.153 1.047.422.463.27.76.637.389.48.532 1.06.148.577.052 1.195l-1.624-.423q.04-.348-.078-.658-.117-.315-.386-.545-.263-.233-.665-.337-.607-.159-1.093.044-.482.203-.821.683-.338.475-.512 1.142-.175.672-.093 1.257.087.581.419.991t.892.557q.434.113.796.023t.626-.335.395-.6l1.639.427q-.175.518-.53.939-.352.416-.814.68-.5.288-1.108.349-.61.06-1.356-.134" aria-label="GDPCC" style="font-style:normal;font-variant:normal;font-weight:700;font-stretch:normal;font-size:9.87778px;font-family:&quot;Neue Haas Grotesk Text Pro&quot;;-inkscape-font-specification:&quot;Neue Haas Grotesk Text Pro, Bold&quot;;font-variant-ligatures:normal;font-variant-caps:normal;font-variant-numeric:normal;font-variant-east-asian:normal;fill:#52a172;fill-opacity:1;stroke:none;stroke-width:1.4;stroke-opacity:1" transform="translate(-134.202 -109.199)"></path></g><path d="M22.922 14.172h22.852" data-source="https://football-logos.cc" style="fill:none;fill-opacity:1;stroke:#caba5b;stroke-width:1.4;stroke-linecap:square;stroke-miterlimit:4;stroke-dasharray:none;stroke-opacity:1;paint-order:markers fill stroke"></path><!-- source: https://football-logos.cc --></svg>