<svg xmlns="http://www.w3.org/2000/svg" viewBox="-1.67 -3.12 82.39 117.41"><!-- Source: https://football-logos.cc --><defs data-source="https://football-logos.cc"><path id="b" d="M69.644 91.907h59.962v24.275H69.644z"></path><path id="a" d="M66.08 213.982h66.477v11.84H66.08z"></path><path id="c" d="M69.644 91.907h59.962v24.275H69.644z"></path><path id="d" d="M69.644 91.907h59.962v24.275H69.644z"></path><path id="e" d="M69.644 91.907h59.962v24.275H69.644z"></path></defs><g transform="translate(-60.471 -94.585)" data-source="https://football-logos.cc"><path d="M100 111.07c-15.693 11.95-33.917 8.22-38.929 6.075 0 13.784 5.317 48.025 38.93 72.503 33.612-24.478 38.928-58.719 38.928-72.503-5.011 2.146-23.236 5.876-38.929-6.075z" style="fill:#fff;stroke:#000;stroke-width:1.2;stroke-linecap:butt;stroke-linejoin:miter;stroke-miterlimit:4;stroke-dasharray:none;stroke-opacity:1;fill-opacity:1"></path><path d="M100 111.07v78.578l5.767-4.572 10.584-10.319 10.517-14.287 6.284-13.097 4.63-17.198 1.147-13.03-11.664 2.513-12.436-1.323-6.35-2.183z" style="fill:#03a65d;fill-opacity:1;stroke:none;stroke-width:.264583px;stroke-linecap:butt;stroke-linejoin:miter;stroke-opacity:1"></path><path d="M377.953 439.975c-42.516 30.51-102.543 30.97-128.193 25.246 1.438 43.829 28.591 154.43 128.193 230.115C477.555 619.65 504.706 509.05 506.145 465.22c-25.651 5.724-85.676 5.263-128.192-25.246z" style="fill:#dc2b19;fill-opacity:1;stroke:#000;stroke-width:3.77953;stroke-linecap:butt;stroke-linejoin:miter;stroke-miterlimit:4;stroke-dasharray:none;stroke-opacity:1" transform="scale(.26458)"></path><path d="M377.953 419.793c-59.31 45.168-128.192 31.07-147.133 22.959 0 52.098 20.093 181.512 147.133 274.027 127.04-92.515 147.133-221.93 147.133-274.027-18.94 8.11-87.822 22.209-147.133-22.959z" style="fill:none;stroke:#0f0;stroke-width:4.53543;stroke-linecap:butt;stroke-linejoin:miter;stroke-miterlimit:4;stroke-dasharray:none;stroke-opacity:1" transform="scale(.26458)"></path><path d="M310.37 507.096c5.997 24.17 18.537 62.068 67.583 120.715 49.047-58.647 61.586-96.545 67.584-120.715h-67.584z" style="fill:#fff;fill-opacity:1;stroke:#000;stroke-width:3.02362;stroke-linecap:butt;stroke-linejoin:miter;stroke-miterlimit:4;stroke-dasharray:none;stroke-opacity:1" transform="scale(.26458)"></path><path d="M86.638 178.392c6.987 17.462-3.038 20.901.475 27.715 1.247 2.417 5.336 3.44 7.689 1.895L98 205.9v-6.607h-2.428c-2.285 1.713-.6 3.722.563 3.677-1.77 2.488-3.45 2.036-4.473 1.201-2.107-1.72.374-5.815 1.06-8.989.638-2.982 1.433-7.205-.384-11.126z" style="fill:#000;fill-opacity:1;stroke:#000;stroke-width:.264583px;stroke-linecap:butt;stroke-linejoin:miter;stroke-opacity:1"></path><path d="M100 105.505c-.127.57-.19 1.114-.712 1.857-.33.847-.745 1.201-1.15 1.624.64-.668 7.98 3.261 12.152 5.944 0 0 .695-.274 1.126-1.08s.274-1.536.274-1.536c-4.548-1.981-11.89-5.907-11.69-6.81z" style="fill:#000;fill-opacity:1;stroke:#000;stroke-width:.1019;stroke-linecap:butt;stroke-linejoin:miter;stroke-miterlimit:4;stroke-dasharray:none;stroke-opacity:1"></path><ellipse cx="-47.838" cy="128.992" rx="8.028" ry="9.186" style="fill:#fff;fill-opacity:1;stroke:#bfbfbf;stroke-width:.221082;stroke-linecap:square;stroke-opacity:1" transform="rotate(-61.857)"></ellipse><path d="M100.124 105.516c.205.902-7.123 4.857-11.662 6.856 0 0-.154.731.28 1.536.434.804 1.13 1.075 1.13 1.075 4.161-2.7 11.487-6.659 12.128-5.993-.406-.421-.823-.774-1.156-1.619-.524-.741-.59-1.284-.72-1.855z" style="fill:#000;fill-opacity:1;stroke:#000;stroke-width:.1019;stroke-linecap:butt;stroke-linejoin:miter;stroke-miterlimit:4;stroke-dasharray:none;stroke-opacity:1"></path><ellipse cx="-142.395" cy="-46.901" rx="8.028" ry="9.186" style="fill:#fff;fill-opacity:1;stroke:#bfbfbf;stroke-width:.221082;stroke-linecap:square;stroke-opacity:1" transform="scale(-1 1)rotate(-61.626)"></ellipse><path d="M97.567 147.59v.003c0 .725.277 1.385.724 1.863.447.48 1.063.779 1.737.779.677 0 1.29-.297 1.736-.774a2.73 2.73 0 0 0 .721-1.865v-3.528l-4.91-.004zm0 0" style="fill:#023692;fill-opacity:1;fill-rule:evenodd;stroke:none;stroke-width:.288857"></path><path d="M101.415 144.922a.486.486 0 1 0 0 .972.486.486 0 0 0 0-.972M100.05 146.23a.49.49 0 0 0-.486.486.488.488 0 0 0 .974 0 .49.49 0 0 0-.488-.486M101.412 147.595a.49.49 0 0 0-.486.486.488.488 0 0 0 .974 0 .49.49 0 0 0-.488-.486M98.755 147.598a.49.49 0 0 0-.486.487.488.488 0 0 0 .973 0 .49.49 0 0 0-.487-.487M98.75 144.92a.487.487 0 1 0 0 .973.487.487 0 0 0 0-.973m0 0" style="fill:#fff;fill-opacity:1;fill-rule:evenodd;stroke:none;stroke-width:.288857"></path><path d="M97.542 156.035v.003c0 .724.279 1.384.725 1.863.447.48 1.063.778 1.737.778.677 0 1.29-.297 1.736-.774s.721-1.138.721-1.865v-3.527l-4.91-.004zm0 0" style="fill:#023692;fill-opacity:1;fill-rule:evenodd;stroke:none;stroke-width:.288857"></path><path d="M101.392 153.366a.486.486 0 1 0 0 .973.486.486 0 0 0 0-.973M100.026 154.674a.49.49 0 0 0-.486.486.488.488 0 0 0 .974 0 .49.49 0 0 0-.488-.486M101.388 156.04a.49.49 0 0 0-.486.486.488.488 0 0 0 .974 0 .49.49 0 0 0-.488-.487M98.731 156.043a.49.49 0 0 0-.486.486.488.488 0 0 0 .974 0 .49.49 0 0 0-.488-.486M98.726 153.364a.487.487 0 1 0 0 .974.487.487 0 0 0 0-.974m0 0" style="fill:#fff;fill-opacity:1;fill-rule:evenodd;stroke:none;stroke-width:.288857"></path><path d="M89.991 147.607v.003c0 .725.279 1.384.724 1.863.448.48 1.063.779 1.737.779a2.37 2.37 0 0 0 1.737-.775 2.73 2.73 0 0 0 .721-1.864v-3.528l-4.91-.004Zm0 0" style="fill:#023692;fill-opacity:1;fill-rule:evenodd;stroke:none;stroke-width:.288857"></path><path d="M93.84 144.938a.49.49 0 0 0-.487.486.488.488 0 0 0 .974 0 .49.49 0 0 0-.486-.486M92.476 146.247a.487.487 0 1 0 .001.974.487.487 0 0 0-.001-.974M93.837 147.612a.49.49 0 0 0-.486.486.487.487 0 1 0 .486-.486M91.18 147.615a.49.49 0 0 0-.486.487.487.487 0 1 0 .486-.486M91.175 144.935a.49.49 0 0 0-.487.487.487.487 0 1 0 .486-.486m0 0" style="fill:#fff;fill-opacity:1;fill-rule:evenodd;stroke:none;stroke-width:.288857"></path><path d="M105.082 147.604v.001c0 .726.277 1.385.724 1.864s1.063.779 1.736.779c.677 0 1.292-.297 1.737-.775a2.73 2.73 0 0 0 .721-1.864v-3.528l-4.91-.004zm0 0" style="fill:#023692;fill-opacity:1;fill-rule:evenodd;stroke:none;stroke-width:.288857"></path><path d="M108.93 144.935a.49.49 0 0 0-.486.486.488.488 0 0 0 .974 0 .49.49 0 0 0-.488-.486M107.566 146.244a.486.486 0 1 0 0 .973.486.486 0 0 0 0-.973M108.928 147.609a.487.487 0 1 0 0 .975.487.487 0 0 0 0-.975M106.27 147.612a.49.49 0 0 0-.487.487.488.488 0 0 0 .974 0 .49.49 0 0 0-.486-.487M106.265 144.933a.49.49 0 0 0-.487.486.488.488 0 0 0 .974 0 .49.49 0 0 0-.487-.486m0 0" style="fill:#fff;fill-opacity:1;fill-rule:evenodd;stroke:none;stroke-width:.288857"></path><path d="M97.564 139.07v.002c0 .725.278 1.385.725 1.863.447.48 1.063.779 1.736.779.677 0 1.292-.296 1.737-.774a2.73 2.73 0 0 0 .72-1.865v-3.526l-4.909-.005zm0 0" style="fill:#023692;fill-opacity:1;fill-rule:evenodd;stroke:none;stroke-width:.288857"></path><path d="M101.413 136.4a.487.487 0 1 0 .002.975.487.487 0 0 0-.002-.974M100.049 137.709a.487.487 0 0 0 0 .972.49.49 0 0 0 .486-.486.49.49 0 0 0-.486-.486M101.41 139.075a.487.487 0 1 0 0 .974.487.487 0 0 0 0-.974M98.754 139.078a.487.487 0 0 0-.488.485.487.487 0 0 0 .974 0 .487.487 0 0 0-.486-.485M98.748 136.399a.487.487 0 0 0-.487.486.487.487 0 0 0 .973 0 .487.487 0 0 0-.486-.486m0 0" style="fill:#fff;fill-opacity:1;fill-rule:evenodd;stroke:none;stroke-width:.288857"></path><path d="M89.991 184.018c.359 3.683 1.319 8.081-.417 11.778-5.124 10.913 1.805 15.18 7.263 9.025 0 0-3.972 1.972-5.423 1.124-6.303-3.68 5.411-12.653-1.423-21.927" style="fill:#fff;fill-opacity:1;stroke:none;stroke-width:.264583px;stroke-linecap:butt;stroke-linejoin:miter;stroke-opacity:1"></path><path d="M113.362 178.392c-6.987 17.462 3.038 20.901-.475 27.715-1.247 2.417-5.336 3.44-7.689 1.895L102 205.9v-6.607h2.428c2.285 1.713.6 3.722-.563 3.677 1.77 2.488 3.45 2.036 4.473 1.201 2.107-1.72-.374-5.815-1.06-8.989-.638-2.982-1.433-7.205.384-11.126z" style="fill:#000;fill-opacity:1;stroke:#000;stroke-width:.264583px;stroke-linecap:butt;stroke-linejoin:miter;stroke-opacity:1"></path><path d="M110.01 184.018c-.36 3.683-1.32 8.081.416 11.778 5.124 10.913-1.804 15.18-7.263 9.025 0 0 3.972 1.972 5.424 1.124 6.303-3.68-5.412-12.653 1.422-21.927" style="fill:#fff;fill-opacity:1;stroke:none;stroke-width:.264583px;stroke-linecap:butt;stroke-linejoin:miter;stroke-opacity:1"></path><circle cx="100" cy="96.912" r="1.8" style="fill:#000;fill-opacity:1;stroke:#000;stroke-width:.25;stroke-linecap:square;stroke-miterlimit:4;stroke-dasharray:none;stroke-opacity:1"></circle><g aria-label="M." style="font-style:normal;font-variant:normal;font-weight:700;font-stretch:normal;font-size:12.7px;line-height:1.25;font-family:Arial;-inkscape-font-specification:&quot;Arial, Bold&quot;;font-variant-ligatures:normal;font-variant-caps:normal;font-variant-numeric:normal;font-variant-east-asian:normal;white-space:pre;shape-inside:url(#b);fill:#03a65d;fill-opacity:1;stroke:none;stroke-opacity:1" transform="rotate(34.563 86.542 185.92)"><path d="M70.544 103.348v-9.091h2.747l1.65 6.201 1.63-6.201h2.754v9.09h-1.706v-7.155l-1.804 7.156h-1.768l-1.798-7.156v7.156zM81.135 103.348v-1.743h1.743v1.743z" style="font-style:normal;font-variant:normal;font-weight:700;font-stretch:normal;font-size:12.7px;line-height:1.25;font-family:Arial;-inkscape-font-specification:&quot;Arial, Bold&quot;;font-variant-ligatures:normal;font-variant-caps:normal;font-variant-numeric:normal;font-variant-east-asian:normal;white-space:pre;shape-inside:url(#b);fill:#03a65d;fill-opacity:1;stroke:none;stroke-opacity:1"></path></g><g aria-label="C." style="font-style:normal;font-variant:normal;font-weight:700;font-stretch:normal;font-size:12.7px;line-height:1.25;font-family:Arial;-inkscape-font-specification:&quot;Arial, Bold&quot;;font-variant-ligatures:normal;font-variant-caps:normal;font-variant-numeric:normal;font-variant-east-asian:normal;white-space:pre;shape-inside:url(#c);fill:#03a65d;fill-opacity:1;stroke:none;stroke-opacity:1" transform="translate(33.314 3.559)"><path d="m76.385 100.005 1.78.565q-.41 1.488-1.364 2.213-.95.72-2.413.72-1.81 0-2.976-1.234-1.166-1.24-1.166-3.386 0-2.27 1.172-3.522Q72.59 94.1 74.5 94.1q1.668 0 2.71.987.62.583.93 1.674l-1.817.434q-.161-.707-.676-1.116-.508-.41-1.24-.41-1.01 0-1.643.726-.627.726-.627 2.35 0 1.724.62 2.456t1.613.732q.732 0 1.259-.465t.756-1.464M79.728 103.348v-1.743h1.742v1.743z" style="shape-inside:url(#c);fill:#03a65d;fill-opacity:1;stroke:none;stroke-opacity:1"></path></g><g aria-label="G." style="font-style:normal;font-variant:normal;font-weight:700;font-stretch:normal;font-size:12.7px;line-height:1.25;font-family:Arial;-inkscape-font-specification:&quot;Arial, Bold&quot;;font-variant-ligatures:normal;font-variant-caps:normal;font-variant-numeric:normal;font-variant-east-asian:normal;white-space:pre;shape-inside:url(#d);fill:#03a65d;fill-opacity:1;stroke:none;stroke-opacity:1" transform="translate(14.66 3.559)"><path d="M74.798 100.005v-1.531h3.956v3.621q-.577.558-1.674.986-1.092.422-2.214.422-1.426 0-2.487-.596-1.06-.601-1.593-1.711-.534-1.116-.534-2.425 0-1.42.596-2.524.595-1.103 1.742-1.692.874-.453 2.177-.453 1.693 0 2.641.713.955.707 1.228 1.96l-1.823.34q-.192-.67-.725-1.054-.528-.39-1.321-.39-1.203 0-1.916.762-.707.763-.707 2.264 0 1.618.719 2.43.72.807 1.885.807.577 0 1.154-.223.582-.23.998-.552v-1.154zM80.435 103.348v-1.743h1.742v1.743z" style="shape-inside:url(#d);fill:#03a65d;fill-opacity:1;stroke:none;stroke-opacity:1"></path></g><g aria-label="L." style="font-style:normal;font-variant:normal;font-weight:700;font-stretch:normal;font-size:12.7px;line-height:1.25;font-family:Arial;-inkscape-font-specification:&quot;Arial, Bold&quot;;font-variant-ligatures:normal;font-variant-caps:normal;font-variant-numeric:normal;font-variant-east-asian:normal;white-space:pre;shape-inside:url(#e);fill:#03a65d;fill-opacity:1;stroke:none;stroke-opacity:1" transform="rotate(-25.026 96.939 104.92)"><path d="M70.618 103.348V94.33h1.836v7.485h4.564v1.532zM78.314 103.348v-1.743h1.742v1.743z" style="shape-inside:url(#e);fill:#03a65d;fill-opacity:1;stroke:none;stroke-opacity:1"></path></g><path d="M100 111.07c-15.693 11.95-33.917 8.22-38.929 6.075 0 13.784 5.317 48.025 38.93 72.503 33.612-24.478 38.928-58.719 38.928-72.503-5.011 2.146-23.236 5.876-38.929-6.075z" style="fill:none;stroke:#000;stroke-width:1.2;stroke-linecap:butt;stroke-linejoin:miter;stroke-miterlimit:4;stroke-dasharray:none;stroke-opacity:1"></path><path d="M459.969 484.158v7.975h25.7v-7.975h-5.29v2.951h-4.914v-2.95h-5.291v2.95h-4.914v-2.95zM270.236 484.158v7.975h25.701v-7.975h-5.29v2.951h-4.915v-2.95h-5.291v2.95h-4.914v-2.95zM365.102 463.777v7.977h25.701v-7.977h-5.291v2.953h-4.914v-2.953h-5.291v2.953h-4.912v-2.953zM339.139 598.947l-4.414 2.916 1.627 2.463-4.1 2.71-1.627-2.464-2.207 1.46-2.209 1.456 1.629 2.463-4.1 2.71-1.629-2.464-4.414 2.916 4.397 6.657 10.722-7.084 10.721-7.084zM307.885 541.486l-4.803 2.225 1.24 2.678-4.457 2.064-1.242-2.678-2.4 1.112-2.4 1.111 1.24 2.68-4.46 2.064-1.24-2.68-4.8 2.225 3.351 7.238 11.66-5.4 11.662-5.4zM448.021 541.486l-3.351 7.239 11.66 5.4 11.662 5.4 3.352-7.238-4.803-2.225-1.24 2.68-4.46-2.064 1.243-2.68-2.402-1.111-2.4-1.112-1.241 2.678-4.459-2.064 1.24-2.678zM416.818 598.867l-4.396 6.654 10.72 7.084 10.723 7.082 4.397-6.654-4.414-2.916-1.63 2.463-4.099-2.709 1.629-2.463-2.209-1.459-2.207-1.457-1.627 2.463-4.1-2.709 1.627-2.463z" style="fill:#f9db28;fill-opacity:1;stroke:#000;stroke-width:.566929;stroke-linecap:butt;stroke-linejoin:miter;stroke-miterlimit:4;stroke-dasharray:none;stroke-opacity:1" transform="scale(.26458)"></path><path d="m122.3 130.21-.6 3.291h6.8l-.6-3.29h-5.6" style="fill:#f9db28;fill-opacity:1;stroke:#000;stroke-width:.15;stroke-linecap:butt;stroke-linejoin:miter;stroke-miterlimit:4;stroke-dasharray:none;stroke-opacity:1"></path><path d="M121.7 133.501v2.573h6.8V133.5h-6.8M97.2 124.818l-.6 3.291h6.8l-.6-3.29zM96.6 128.109v2.572h6.8v-2.572h-6.8M72.1 130.21l-.6 3.291h6.8l-.6-3.29h-5.6" style="fill:#f9db28;fill-opacity:1;stroke:#000;stroke-width:.15;stroke-linecap:butt;stroke-linejoin:miter;stroke-miterlimit:4;stroke-dasharray:none;stroke-opacity:1"></path><path d="M71.5 133.501v2.573h6.8V133.5zM76.722 147.789l.838 3.238 6.17-2.857-1.927-2.734-5.081 2.353M77.56 151.027l1.081 2.334 6.17-2.857-1.08-2.334zM85.72 163.65l1.314 3.076 5.674-3.748-2.315-2.415zM87.034 166.726l1.418 2.147 5.674-3.749-1.418-2.146-5.674 3.748M109.62 160.542l-2.314 2.415 5.674 3.748 1.313-3.077zM107.306 162.957l-1.418 2.146 5.674 3.748 1.418-2.146zM118.197 145.436l-1.928 2.734 6.171 2.857.838-3.238z" style="fill:#f9db28;fill-opacity:1;stroke:#000;stroke-width:.15;stroke-linecap:butt;stroke-linejoin:miter;stroke-miterlimit:4;stroke-dasharray:none;stroke-opacity:1"></path><path d="m116.27 148.17-1.082 2.334 6.171 2.857 1.081-2.334-6.17-2.857" style="fill:#f9db28;fill-opacity:1;stroke:#000;stroke-width:.15;stroke-linecap:butt;stroke-linejoin:miter;stroke-miterlimit:4;stroke-dasharray:none;stroke-opacity:1"></path><path d="M472.818 501.205c-3.97-.002-4.7 1.645-5.29 3.365v9.723h10.581v-9.723c-.59-1.72-1.32-3.367-5.29-3.365zM283.086 501.205c-3.971-.002-4.701 1.645-5.291 3.365v9.723h10.584v-9.723c-.59-1.72-1.322-3.367-5.293-3.365zM377.953 480.791c-3.97-.002-4.701 1.647-5.29 3.367v9.723h10.581v-9.723c-.59-1.72-1.32-3.37-5.29-3.367zM341.633 618.934c-.974-.108-2.182.197-3.838 1.293-3.315 2.186-3.015 3.964-2.559 5.724l5.36 8.113 4.414-2.918 4.416-2.916-5.36-8.113c-.72-.555-1.46-1.075-2.433-1.183zM306.59 561.508c-.832-.034-1.866.192-3.217.818-3.604 1.667-3.574 3.469-3.387 5.278l4.084 8.822 4.803-2.223 4.8-2.224-4.085-8.823c-.786-.82-1.611-1.592-2.998-1.648zM449.314 561.508c-1.387.056-2.211.828-2.998 1.648l-4.084 8.823 4.801 2.224 4.801 2.223 4.086-8.822c.187-1.81.218-3.611-3.387-5.278-1.35-.626-2.386-.852-3.219-.818zM414.324 618.854c-.973.108-1.713.628-2.433 1.183l-5.36 8.111 4.416 2.918 4.414 2.916 5.36-8.11c.456-1.761.756-3.539-2.559-5.726v-.002c-1.656-1.095-2.864-1.399-3.838-1.29z" style="fill:#000;fill-opacity:1;stroke:#000;stroke-width:.566929;stroke-linecap:butt;stroke-linejoin:miter;stroke-miterlimit:4;stroke-dasharray:none;stroke-opacity:1" transform="scale(.26458)"></path><path d="m364.725 717.732 7.937 8.694v13.228h-13.607l-6.198-5.67v22.678l6.198-6.426h13.607v27.97l-7.937 8.692h26.457l-7.938-8.693v-27.969h13.606l6.199 6.426v-22.678l-6.2 5.67h-13.605v-13.228l7.938-8.694h-13.229z" style="fill:#dc2b19;fill-opacity:1;stroke:#000;stroke-width:.944882;stroke-linecap:butt;stroke-linejoin:miter;stroke-miterlimit:4;stroke-dasharray:none;stroke-opacity:1" transform="scale(.26458)"></path></g><!-- source: https://football-logos.cc --></svg>