<svg xmlns="http://www.w3.org/2000/svg" viewBox="212.54 41.37 828.41 1122.12"><!-- Source: https://football-logos.cc --><path fill="#fff" fill-rule="evenodd" d="M935.7 941.14q-45.55 65.45-105.46 116.06-34.45 29.1-73.86 51.43-16.96 9.6-25.4 13.83-46.63 23.35-95.22 39.57-9.17 3.06-18.94-.31-73.43-25.33-131.43-60.37c-26.49-16.01-53.34-35.87-77.5-57.97q-44.8-40.99-80.16-89.11-9.85-13.41-20.58-29.67-71.94-108.98-88.74-237.51c-2.69-20.53-4.31-37.88-5.8-57.54q-.63-8.31 4.3-17.11 31.88-56.92 45.83-115.42 3.8-15.92 6.08-35.69 2.13-18.54 1.13-36.17-2.2-38.55-13.1-75.36c-6.23-21.07-15.49-40.35-26.65-60.09q-6.13-10.85-7.48-16.17-3.95-15.58 4.79-30.52 22.58-38.61 47.06-79.24 42.46-70.47 64.74-106.49 2.29-3.71 6.94-7.52 11.72-9.61 26.75-8.23 4.94.45 13.66 4.05c54.41 22.4 111.55 38.22 169.9 43.8q75.03 7.19 150.19-1.11 35.37-3.9 70.22-12.6 45.58-11.38 88.79-29.25 3.27-1.35 7.12-2.71c14.72-5.16 28.52-1.63 39.09 9.57q2.59 2.74 6.29 9.04 1.59 2.71 38.95 63.71 38.03 62.08 70.04 117.45 10.74 18.58.92 38.96-1.3 2.69-6.64 12.02c-17.62 30.81-28.79 64.43-34.04 101.54q-4.05 28.62-2.85 51.46 1.72 33.03 10.95 65.44 13.76 48.33 38.29 93.22c4.1 7.5 7.33 13.76 7.05 22.11q-.38 11.69-2.77 36.75-3.22 33.74-11.22 70.49-20.36 93.41-71.22 175.03-11.09 17.8-20.02 30.63m90.18-317.69q-3.81-7.3-7.06-13.46-17.27-32.75-30.23-69.31-12.39-34.97-16.81-70.19c-4.54-36.25-1.38-72.26 6.84-107.61q8.29-35.61 25.3-67.69 3.94-7.44 9.32-16.58 4.08-6.94 4.64-10.86 1.21-8.46-2.98-15.67-31.84-54.72-54.51-92.08-38.08-62.75-52.27-85.52-2.15-3.45-3-5.12c-4.02-7.85-11.53-12.77-19.92-12.56q-3.84.09-12.81 3.81-24.5 10.16-52.31 19.2-36.34 11.8-74.14 18.83-36.01 6.7-75.97 8.78-49.54 2.58-98.04-.71-27.27-1.85-49.73-5.51c-49.32-8.04-96.7-22.52-143.45-42.09q-13.36-5.59-23.49 2.6-3.36 2.73-6.58 8.32-2.49 4.32-6 10.33-4.8 8.2-8.86 14.84-45.35 74.19-91.82 153.24-4.87 8.3-5.5 12.42-1.06 6.92 2.48 13.22 11.33 20.11 17.22 32.21c15.9 32.69 24.93 69.86 27.84 106.83 2.83 36.03-1.11 71.26-11.29 105.39q-6.08 20.39-10.91 33.06-12.69 33.31-30.25 65.79c-1.46 2.7-4.26 5.45-3.97 9.15 2.45 31.27 4.28 51.94 8.02 75.85q2.58 16.52 9.51 45.1 5.79 23.92 12.92 44.22 16.95 48.29 40.84 90.17 15.2 26.65 34.15 53.85c3.19 4.57 6.98 9.14 10.29 13.93q2.6 3.76 7.73 10.08 5.12 6.29 10.11 12.36 23.82 28.93 52.74 55.75 31.63 29.33 65.75 51.49c41.49 26.94 87.11 48.04 134.14 64.69 3.19 1.13 7.59 2.92 11.43 3.78a8.398 8.338 41.976 0 0 4.47-.22c71.14-23.59 140.42-58.1 197.27-107.73q37.44-32.69 68.64-70.96 34.92-42.82 63.22-94.01c20.48-37.03 35.73-75.6 46.91-116.1 11.83-42.85 18.07-88.05 20.58-133.21a4.07 4.023 32.978 0 0-.46-2.1" data-source="https://football-logos.cc"></path><path fill="#03a8ea" fill-rule="evenodd" d="M1025.88 623.45a4.07 4.023 32.978 0 1 .46 2.1c-2.51 45.16-8.75 90.36-20.58 133.21-11.18 40.5-26.43 79.07-46.91 116.1q-28.3 51.19-63.22 94.01-31.2 38.27-68.64 70.96c-56.85 49.63-126.13 84.14-197.27 107.73a8.398 8.338 41.976 0 1-4.47.22c-3.84-.86-8.24-2.65-11.43-3.78-47.03-16.65-92.65-37.75-134.14-64.69q-34.12-22.16-65.75-51.49-28.92-26.82-52.74-55.75-4.99-6.07-10.11-12.36-5.13-6.32-7.73-10.08c-3.31-4.79-7.1-9.36-10.29-13.93q-18.95-27.2-34.15-53.85-23.89-41.88-40.84-90.17-7.13-20.3-12.92-44.22-6.93-28.58-9.51-45.1c-3.74-23.91-5.57-44.58-8.02-75.85-.29-3.7 2.51-6.45 3.97-9.15q17.56-32.48 30.25-65.79 4.83-12.67 10.91-33.06c10.18-34.13 14.12-69.36 11.29-105.39-2.91-36.97-11.94-74.14-27.84-106.83q-5.89-12.1-17.22-32.21-3.54-6.3-2.48-13.22.63-4.12 5.5-12.42 46.47-79.05 91.82-153.24 4.06-6.64 8.86-14.84 3.51-6.01 6-10.33 3.22-5.59 6.58-8.32 10.13-8.19 23.49-2.6c46.75 19.57 94.13 34.05 143.45 42.09q22.46 3.66 49.73 5.51 48.5 3.29 98.04.71 39.96-2.08 75.97-8.78 37.8-7.03 74.14-18.83 27.81-9.04 52.31-19.2 8.97-3.72 12.81-3.81c8.39-.21 15.9 4.71 19.92 12.56q.85 1.67 3 5.12 14.19 22.77 52.27 85.52 22.67 37.36 54.51 92.08 4.19 7.21 2.98 15.67-.56 3.92-4.64 10.86-5.38 9.14-9.32 16.58-17.01 32.08-25.3 67.69c-8.22 35.35-11.38 71.36-6.84 107.61q4.42 35.22 16.81 70.19 12.96 36.56 30.23 69.31 3.25 6.16 7.06 13.46M627.557 354.327q311.888.015 316.471-.002a.684.671 5.496 0 0 .662-.535q5.59-25.46 15.74-50.21 6.84-16.67 19.82-40.35a.987.971-46.657 0 0-.02-.96L881.88 97.31a.593.585-27.739 0 0-.76-.23q-4.18 1.93-9.14 3.87c-42.49 16.6-86.53 29.12-130.738 35.429-38.055 5.432-75.526 7.552-113.675 7.55s-75.619-2.125-113.674-7.561c-44.207-6.314-88.246-18.838-130.734-35.442q-4.96-1.94-9.14-3.871a.593.585 27.745 0 0-.76.23l-98.366 164.95a.987.971 46.663 0 0-.02.96q12.978 23.682 19.816 40.352 10.148 24.751 15.735 50.212a.684.671-5.49 0 0 .662.535q4.583.017 316.471.033m-.308 138.232q155.25.004 311.405.018a.562.56 85.737 0 0 .556-.647q-8.54-57.57 1.25-115.6a.461.459-85.412 0 0-.455-.537q-7.059.003-312.753-.005t-312.753-.011a.461.459 85.415 0 0-.455.536q9.787 58.031 1.244 115.6a.562.56-85.734 0 0 .556.648q156.156-.006 311.405-.002M302.17 805.84q.35-.11.37-.63 5.61-122.79 14.19-291.19a.58.571 1.409 0 0-.58-.6h-4.1a.786.778-83.475 0 0-.76.61q-13.97 61.23-45.21 115.96a1.833 1.801-32.862 0 0-.24 1.07q3.14 36.81 9.63 74.99 8.7 51.13 26.26 99.57a.361.355 71.014 0 0 .44.22m112.24 171.42 16.57-463.34a.33.33-89.157 0 0-.33-.34h-31.43a.601.6-89.012 0 0-.6.58l-17.97 426.26a2.926 2.92-64.414 0 0 .72 2.05q15.25 17.33 32.68 34.93a.211.209-66.052 0 0 .36-.14m100.858-463.7a.45.45-8.695 0 0-.45.437l-14.891 534.402a.45.45-71.765 0 0 .217.397l51.432 31.229a.45.45 8.281 0 0 .684-.385V514.01a.45.45 89.981 0 0-.45-.45zm187.192 0a.33.33-2.463 0 0-.33.33v565.833a.33.33 82.689 0 0 .501.282l51.226-31.146a.33.33 52.602 0 0 .158-.29l-13.667-534.687a.33.33 80.833 0 0-.33-.322zm121.972.01a.63.63 5.491 0 0-.63.651l15.646 462.958a.63.63 37.572 0 0 1.094.405l32.313-35.243a.63.63 70.955 0 0 .165-.45l-17.026-427.716a.63.63 2.739 0 0-.629-.605zm127.015 292.255a.361.354-70.863 0 0 .44-.219q17.68-48.372 26.511-99.456 6.587-38.145 9.823-74.93a1.832 1.8 33.013 0 0-.237-1.07q-31.082-54.788-44.884-116.027a.786.778 83.626 0 0-.758-.612l-4.098-.01a.58.571-1.258 0 0-.582.598q8.133 168.346 13.417 291.095.018.52.368.631M605.53 582.53a.474.471-10.333 0 0 .64.44c8.17-3.12 14.8-7.99 21.96-13.53a.325.323 71.348 0 1 .52.26v74.97a.75.74 0 0 0 .75.74h11.28a.37.37 87.539 0 0 .37-.37v-98.27a.67.67-2.435 0 0-.67-.67h-6.27a1.364 1.333-73.645 0 0-1.14.64q-9.78 15.88-26.94 23.7a.875.858 77.877 0 0-.5.79zm42.26 148.17c-.35 14.12-4.47 38.09-24.28 35.41-8.13-1.11-11.11-6.88-12.38-14.27a.9.889-5.833 0 0-.92-.74l-10.88.44a.438.434 85.316 0 0-.42.5c.94 6.98 3.83 15.02 9.55 19.31 8.12 6.11 18.65 7.05 28.12 3.75 11.21-3.91 18.44-15.45 20.71-26.58q3.54-17.24 2.14-35.11c-.84-10.69-3.56-20.01-10.47-27.31q-11.18-11.81-28.2-8.39c-11.54 2.31-19.51 11.14-22.55 22.18q-2.34 8.49-.15 18.85 1.67 7.96 7.42 14.53 6.68 7.64 17.02 8.41 9.74.72 17.05-3.87c2.51-1.57 5.79-5.37 7.53-7.38a.404.402-24.013 0 1 .71.27m-52.823 131.609c-.07 12.638 1.018 25.584 7.159 36.557 4.778 8.537 14.01 13.574 23.772 13.628s19.05-4.879 23.923-13.362c6.263-10.903 7.496-23.836 7.567-36.474s-1.018-25.584-7.159-36.557c-4.778-8.537-14.01-13.574-23.772-13.628s-19.05 4.878-23.923 13.362c-6.263 10.903-7.496 23.836-7.567 36.474M610.3 1049.55h11.98a.271.26 1.101 0 0 .27-.25q.87-19.96 7.59-39.5 8.56-24.88 22.64-44.56 2.66-3.73 5.4-6.75a3.406 3.394-24.129 0 0 .87-2.27v-8.76a.65.65-45 0 0-.65-.65h-61.59a.52.51 0 0 0-.52.51v11.48a1.04 1.04 87.52 0 0 1.04 1.04h44.4a.537.529 19.699 0 1 .42.87q-4.58 5.49-7.76 10.67c-14.58 23.81-24.1 50.24-24.6 77.64a.52.51-89.449 0 0 .51.53"></path><path fill="#fff" fill-rule="evenodd" d="M627.567 143.929c38.149.002 75.62-2.118 113.675-7.55 44.208-6.309 88.248-18.829 130.738-35.429q4.96-1.94 9.14-3.87a.593.585-27.739 0 1 .76.23l98.35 164.96a.987.971-46.657 0 1 .02.96q-12.98 23.68-19.82 40.35-10.15 24.75-15.74 50.21a.684.671 5.496 0 1-.662.535q-4.583.017-316.471.002t-316.471-.033a.684.671-5.49 0 1-.662-.535q-5.587-25.461-15.735-50.212-6.838-16.67-19.816-40.352a.987.971 46.663 0 1 .02-.96l98.366-164.95a.593.585 27.745 0 1 .76-.23q4.18 1.931 9.14 3.871c42.488 16.604 86.527 29.128 130.734 35.442 38.055 5.436 75.525 7.559 113.674 7.561M456.93 180.03q-14.39-16.37-34.88-19.15c-23.67-3.2-48.93 3.19-65.82 20.51-24.35 24.96-28.97 69.25-14.11 100.19 10.81 22.49 30.37 36.4 54.86 40.48 18.65 3.11 39.14 2.05 56.64-4.98 15.58-6.25 29.22-19.35 33.52-35.92q2.05-7.9 2.42-14.23a.771.763 1.748 0 0-.77-.81h-32.01a.408.404-85.894 0 0-.4.35c-2.76 21.37-18.4 34.79-39.74 33.71q-8.88-.45-15.04-2.55c-14.63-4.98-24.47-18.18-28.24-33.27-4.3-17.26-3.08-35.39 2.97-52.12 7.56-20.86 22.89-29.83 44.52-28.81 13.07.63 23.3 5.67 31.26 16.82 4.12 5.78 5.86 13.1 5.45 20.07a.58.58-88.591 0 0 .58.61h29.9a.91.91-45 0 0 .91-.91v-55.83a.48.47 90 0 0-.47-.48h-30.49a.38.38 0 0 0-.38.38v15.69a.388.385 24.612 0 1-.68.25m195.44-1.93c-6.61-9.98-15.58-14.86-27.6-15.94q-12.02-1.07-22.96 3.15-11.44 4.42-18.23 13.91-7.24 10.12-8.2 22.46c-.93 11.78-.7 23.75 6.92 33.77 5.74 7.56 15.28 12.72 24.62 15.65q10.06 3.17 23.62 7.36 5.94 1.83 11.94 5.52 6.16 3.79 7.9 10.6c2.71 10.64.53 23.36-10.16 28.34q-14.29 6.66-27.02-.44c-9.41-5.24-12.61-15.41-13.14-25.48q-.31-5.78-.32-5.87a.615.607-3.131 0 0-.61-.54l-24.04-.01a.28.28 17.624 0 0-.28.28v52.98a.61.6 90 0 0 .6.61h22.21a.75.74 90 0 0 .74-.75v-12.31a.335.335 27.664 0 1 .61-.19c4.6 6.66 11.49 12.18 19.66 14.36 14.99 3.99 32.6 2.68 45.21-7.18 15.7-12.28 19.42-31.68 16.53-50.74-3.13-20.57-18.74-29.26-36.57-35.7q-6.81-2.46-18.57-6.07c-5.07-1.56-17.02-5.97-19.12-10.93q-2.93-6.94-1.72-15.41c1.31-9.16 9.05-15.05 18.18-15.38 9.09-.32 16.84.85 23.06 7.94 5.61 6.41 5.68 13.46 6.09 22.02a1.384 1.382 88.468 0 0 1.38 1.31h24.78a.58.58-70.149 0 0 .58-.58v-48.75a.68.68-.044 0 0-.68-.68h-24.25a.64.64 24.116 0 0-.64.64v11.9a.283.281 28.68 0 1-.52.15m242.3-13.18a.57.57 84.052 0 0-.57-.57H770.56a.57.57 89.962 0 0-.57.57v54.37a.57.57-89.962 0 0 .57.57h23.69a.57.57 89.962 0 0 .57-.57v-31.15a.57.57-52.002 0 1 .57-.57h21.75a.57.57 29.078 0 1 .57.57v112.93a.57.57 45 0 1-.57.57h-19.38a.57.57-4.86 0 0-.57.57v22.74a.57.57 44.95 0 0 .57.57h68.09a.57.57-4.86 0 0 .57-.57v-22.81a.57.57 79.659 0 0-.57-.57h-17.69a.57.57-51.82 0 1-.57-.57V188.09a.57.57-49.168 0 1 .57-.57h21.38a.57.57-44.993 0 1 .57.57v31.29a.57.57-17.273 0 0 .57.57h23.42a.57.57-82.505 0 0 .57-.57z"></path><path fill="#03a8ea" fill-rule="evenodd" d="M456.93 180.03a.388.385 24.612 0 0 .68-.25v-15.69a.38.38-45 0 1 .38-.38h30.49a.48.47-90 0 1 .47.48v55.83a.91.91 45 0 1-.91.91h-29.9a.58.58-88.591 0 1-.58-.61c.41-6.97-1.33-14.29-5.45-20.07-7.96-11.15-18.19-16.19-31.26-16.82-21.63-1.02-36.96 7.95-44.52 28.81-6.05 16.73-7.27 34.86-2.97 52.12 3.77 15.09 13.61 28.29 28.24 33.27q6.16 2.1 15.04 2.55c21.34 1.08 36.98-12.34 39.74-33.71a.408.404-85.894 0 1 .4-.35h32.01a.771.763 1.748 0 1 .77.81q-.37 6.33-2.42 14.23c-4.3 16.57-17.94 29.67-33.52 35.92-17.5 7.03-37.99 8.09-56.64 4.98-24.49-4.08-44.05-17.99-54.86-40.48-14.86-30.94-10.24-75.23 14.11-100.19 16.89-17.32 42.15-23.71 65.82-20.51q20.49 2.78 34.88 19.15M652.37 178.1a.283.281 28.68 0 0 .52-.15v-11.9a.64.64 39.939 0 1 .64-.64h24.25a.68.68.133 0 1 .68.68v48.75a.58.58-49.163 0 1-.58.58H653.1a1.384 1.382 88.468 0 1-1.38-1.31c-.41-8.56-.48-15.61-6.09-22.02-6.22-7.09-13.97-8.26-23.06-7.94-9.13.33-16.87 6.22-18.18 15.38q-1.21 8.47 1.72 15.41c2.1 4.96 14.05 9.37 19.12 10.93q11.76 3.61 18.57 6.07c17.83 6.44 33.44 15.13 36.57 35.7 2.89 19.06-.83 38.46-16.53 50.74-12.61 9.86-30.22 11.17-45.21 7.18-8.17-2.18-15.06-7.7-19.66-14.36a.335.335 27.664 0 0-.61.19v12.31a.75.74 90 0 1-.74.75h-22.21a.61.6-90 0 1-.6-.61v-52.98a.28.28 32.821 0 1 .28-.28l24.04.01a.615.607-3.131 0 1 .61.54q.01.09.32 5.87c.53 10.07 3.73 20.24 13.14 25.48q12.73 7.1 27.02.44c10.69-4.98 12.87-17.7 10.16-28.34q-1.74-6.81-7.9-10.6-6-3.69-11.94-5.52-13.56-4.19-23.62-7.36c-9.34-2.93-18.88-8.09-24.62-15.65-7.62-10.02-7.85-21.99-6.92-33.77q.96-12.34 8.2-22.46 6.79-9.49 18.23-13.91 10.94-4.22 22.96-3.15c12.02 1.08 20.99 5.96 27.6 15.94M894.67 164.92v54.46a.57.57-51.994 0 1-.57.57h-23.42a.57.57 28.669 0 1-.57-.57v-31.29a.57.57 44.758 0 0-.57-.57h-21.38a.57.57-70.174 0 0-.57.57V301a.57.57 79.659 0 0 .57.57h17.69a.57.57-51.82 0 1 .57.57v22.81a.57.57 40.131 0 1-.57.57h-68.09a.57.57 44.994 0 1-.57-.57v-22.74a.57.57 40.131 0 1 .57-.57h19.38a.57.57-44.965 0 0 .57-.57V188.14a.57.57-10.658 0 0-.57-.57h-21.75a.57.57-82.492 0 0-.57.57v31.15a.57.57 89.962 0 1-.57.57h-23.69a.57.57-89.962 0 1-.57-.57v-54.37a.57.57 89.962 0 1 .57-.57H894.1a.57.57 60.214 0 1 .57.57"></path><path fill="#fff" fill-rule="evenodd" d="M627.252 375.788q305.694.008 312.753.005a.461.459-85.412 0 1 .455.537q-9.79 58.03-1.25 115.6a.562.56 85.737 0 1-.556.647q-156.155-.014-311.405-.018t-311.405.002a.562.56-85.734 0 1-.556-.648q8.543-57.569-1.244-115.6a.461.459 85.415 0 1 .455-.536q7.06.003 312.753.011m88.918 70.172a.69.69 29.813 0 1 .69.69v9.61a1.6 1.595-18.708 0 1-.63 1.27c-7.25 5.48-17.84 9.96-26.47 4.33-10.5-6.84-12.05-18.86-11.59-31.36.29-7.86 1.59-15.46 7-20.4 5.19-4.75 11.18-7.16 18.17-5.55 6.55 1.51 11.03 6.57 12.66 13.02a.99.987 76.105 0 0 1.19.72l13.49-3.23a1.09 1.09-2.064 0 0 .81-.87c.25-1.49-.72-3.21-1.05-4.23-6-18.77-24.9-25.23-42.8-19.6q-8.6 2.71-14.5 9.74c-9.64 11.51-11.77 24.67-10.9 39.93.71 12.57 7.05 28.44 18.67 34.85q18.8 10.38 38.49.51 6.87-3.45 12.19-8.73a2.731 2.716 67.961 0 0 .82-1.95l-.01-33.37a.79.79-45 0 0-.79-.79h-31.42a.6.59 0 0 0-.6.59v14.11a.71.71 70.784 0 0 .71.71zm118.931-11.817c-.055 11.866 1.959 22.706 8.979 32.485 6.394 8.905 16.07 13.309 27.295 13.361 11.224.052 20.941-4.262 27.417-13.107 7.111-9.714 9.225-20.534 9.28-32.4.055-11.867-1.959-22.706-8.979-32.485-6.394-8.906-16.07-13.31-27.295-13.362-11.224-.052-20.941 4.262-27.417 13.108-7.111 9.713-9.225 20.534-9.28 32.4m-233.314 44.275a.46.46 25.456 0 0 .429-.326l26.46-87.543a.46.46 37.082 0 0-.452-.593l-15.953.405a.46.46 51.707 0 0-.432.338l-17.316 62.625a.46.46 76.308 0 1-.885.005l-18.192-62.817a.46.46-50.994 0 0-.442-.332h-16.006a.46.46-10.593 0 0-.44.592l26.351 87.732a.46.46 64.917 0 0 .452.327zm-219.623.124q6.895.008 7.133.006a.711.708-.336 0 0 .703-.708l.07-71.9a.63.63-89.538 0 1 .63-.62h20.89a.71.71-8.132 0 0 .71-.71V390.6a.429.426 89.299 0 0-.437-.429q-1.002.014-29.589-.021-28.588-.036-29.59-.052a.429.426-89.157 0 0-.438.428l-.035 14.01a.71.71 13.284 0 0 .709.712l20.89.051a.63.63 89.679 0 1 .628.622l-.107 71.9a.711.708.477 0 0 .7.71q.239.002 7.133.011m81.516-39.272q17.02-3.58 18.87-21.31c1.53-14.67-5.38-26.02-20.81-27.24-14.32-1.13-32.12-.21-40.45-.56a.571.57.971 0 0-.59.57v87.07a.79.79-8.172 0 0 .79.79h13.85a1.07 1.06 0 0 0 1.07-1.06v-35.51a.692.683 88.236 0 1 .64-.69q3.5-.19 7.09.24c4.97.6 7.22 4.47 10.04 8.72q2.22 3.36 3.59 5.94 6.37 11.92 12.05 21.45a1.787 1.78 74.506 0 0 1.53.87h16.44a.754.746-13.96 0 0 .67-1.1q-4.79-8.95-11.54-21.87-3.43-6.56-8.41-11.63c-1.56-1.59-3.1-2.51-5.01-3.75a.513.51-34.183 0 1 .18-.93m49.26-14.78a.63.63 33.746 0 1-.63-.63v-17.88a.63.63 36.836 0 1 .63-.63h38.98a.63.63 11.261 0 0 .63-.63v-13.95a.63.63-15.158 0 0-.63-.63H497.1a.63.63 45 0 0-.63.63v87.18a.63.63-45 0 0 .63.63h56.01a.63.63.414 0 0 .63-.63v-14.3a.63.63-15.158 0 0-.63-.63h-40.12a.63.63-56.241 0 1-.63-.63v-22.26a.63.63-53.175 0 1 .63-.63h36.2a.63.63 82.93 0 0 .63-.63v-13.75a.63.63 74.848 0 0-.63-.63zm137.8-33.55a.82.82 0 0 0-.82-.82h-14.26a.82.82 0 0 0-.82.82v86.78a.82.82 0 0 0 .82.82h14.26a.82.82 0 0 0 .82-.82zm174.04-.04a.77.77 0 0 0-.77-.77h-14.28a.77.77 0 0 0-.77.77v86.94a.77.77 0 0 0 .77.77h14.28a.77.77 0 0 0 .77-.77zm-26.34 87.66a.69.69-8.124 0 0 .69-.69v-14.13a.69.69 5.896 0 0-.69-.69h-36.26a.69.69 29.813 0 1-.69-.69V391a.69.69-10.302 0 0-.69-.69h-14.52a.69.69-72.364 0 0-.69.69v86.87a.69.69-45 0 0 .69.69z"></path><path fill="#03a8ea" fill-rule="evenodd" d="M716.17 445.96H700.3a.71.71-72.406 0 1-.71-.71v-14.11a.6.59 0 0 1 .6-.59h31.42a.79.79-45 0 1 .79.79l.01 33.37a2.731 2.716 67.961 0 1-.82 1.95q-5.32 5.28-12.19 8.73-19.69 9.87-38.49-.51c-11.62-6.41-17.96-22.28-18.67-34.85-.87-15.26 1.26-28.42 10.9-39.93q5.9-7.03 14.5-9.74c17.9-5.63 36.8.83 42.8 19.6.33 1.02 1.3 2.74 1.05 4.23a1.09 1.09-2.064 0 1-.81.87l-13.49 3.23a.99.987 76.105 0 1-1.19-.72c-1.63-6.45-6.11-11.51-12.66-13.02-6.99-1.61-12.98.8-18.17 5.55-5.41 4.94-6.71 12.54-7 20.4-.46 12.5 1.09 24.52 11.59 31.36 8.63 5.63 19.22 1.15 26.47-4.33a1.6 1.595-18.708 0 0 .63-1.27v-9.61a.69.69 5.896 0 0-.69-.69M871.798 388.635c11.225.052 20.901 4.456 27.295 13.362 7.02 9.779 9.034 20.618 8.979 32.485-.055 11.866-2.169 22.686-9.28 32.4-6.476 8.845-16.193 13.159-27.417 13.107s-20.901-4.456-27.295-13.361c-7.02-9.779-9.034-20.619-8.979-32.485s2.169-22.687 9.28-32.4c6.476-8.846 16.193-13.16 27.417-13.108m-20.69 45.538c-.006 9.314 1.382 20.153 9.459 26.234q5.115 3.851 11.092 3.855 5.976.004 11.097-3.84c8.084-6.07 9.487-16.908 9.494-26.222s-1.383-20.153-9.46-26.234q-5.115-3.851-11.091-3.855-5.977-.004-11.097 3.84c-8.085 6.07-9.488 16.908-9.494 26.222M601.787 478.418l-16.426.413a.46.46-68.625 0 1-.452-.327l-26.351-87.732a.46.46 16.728 0 1 .44-.592h16.006a.46.46 36.535 0 1 .442.332l18.192 62.817a.46.46 23.103 0 0 .885-.005l17.316-62.625a.46.46 51.988 0 1 .432-.338l15.953-.405a.46.46 48.125 0 1 .452.593l-26.46 87.543a.46.46 49.573 0 1-.429.326M382.274 390.15q28.587.035 29.589.021a.429.426 89.299 0 1 .437.429v14.01a.71.71 25.158 0 1-.71.71H390.7a.63.63-89.538 0 0-.63.62l-.07 71.9a.711.708-.336 0 1-.703.708q-.238.002-7.133-.006t-7.133-.011a.711.708.477 0 1-.7-.71l.107-71.9a.63.63 89.679 0 0-.628-.622l-20.89-.051a.71.71 13.47 0 1-.709-.712l.035-14.01a.429.426-89.157 0 1 .438-.428q1.002.016 29.59.052M463.68 439.27a.513.51-34.183 0 0-.18.93c1.91 1.24 3.45 2.16 5.01 3.75q4.98 5.07 8.41 11.63 6.75 12.92 11.54 21.87a.754.746-13.96 0 1-.67 1.1h-16.44a1.787 1.78 74.506 0 1-1.53-.87q-5.68-9.53-12.05-21.45-1.37-2.58-3.59-5.94c-2.82-4.25-5.07-8.12-10.04-8.72q-3.59-.43-7.09-.24a.692.683 88.236 0 0-.64.69v35.51a1.07 1.06 0 0 1-1.07 1.06h-13.85a.79.79 25.193 0 1-.79-.79v-87.07a.571.57.971 0 1 .59-.57c8.33.35 26.13-.57 40.45.56 15.43 1.22 22.34 12.57 20.81 27.24q-1.85 17.73-18.87 21.31m-27.323-32.919.207 19.779a1.05 1.05 89.57 0 0 1.061 1.039l18.759-.197a10.77 10.34-.6 0 0 10.661-10.452l-.012-1.2a10.77 10.34-.6 0 0-10.878-10.227l-18.759.197a1.05 1.05 89.807 0 0-1.039 1.061M512.94 424.49h36.25a.63.63-56.25 0 1 .63.63v13.75a.63.63-55.014 0 1-.63.63h-36.2a.63.63-78.757 0 0-.63.63v22.26a.63.63 74.863 0 0 .63.63h40.12a.63.63 33.746 0 1 .63.63v14.3a.63.63 35.822 0 1-.63.63H497.1a.63.63-45 0 1-.63-.63v-87.18a.63.63 45 0 1 .63-.63h54.82a.63.63 33.746 0 1 .63.63v13.95a.63.63 36.836 0 1-.63.63h-38.98a.63.63 11.261 0 0-.63.63v17.88a.63.63-15.158 0 0 .63.63M650.74 477.72a.82.82 0 0 1-.82.82h-14.26a.82.82 0 0 1-.82-.82v-86.78a.82.82 0 0 1 .82-.82h14.26a.82.82 0 0 1 .82.82zM824.78 477.84a.77.77 0 0 1-.77.77h-14.28a.77.77 0 0 1-.77-.77V390.9a.77.77 0 0 1 .77-.77h14.28a.77.77 0 0 1 .77.77zM798.44 478.56h-52.16a.69.69 45 0 1-.69-.69V391a.69.69-57.189 0 1 .69-.69h14.52a.69.69 38.172 0 1 .69.69v71.36a.69.69 5.896 0 0 .69.69h36.26a.69.69 29.813 0 1 .69.69v14.13a.69.69 25.235 0 1-.69.69" data-source="https://football-logos.cc"></path><path fill="#fff" fill-rule="evenodd" d="M871.699 404.111q5.976.004 11.091 3.855c8.077 6.081 9.466 16.921 9.46 26.234-.007 9.314-1.41 20.152-9.494 26.222q-5.121 3.844-11.097 3.84-5.977-.004-11.092-3.855c-8.077-6.081-9.465-16.92-9.459-26.234s1.409-20.152 9.494-26.222q5.12-3.844 11.097-3.84M436.357 406.351a1.05 1.05 89.855 0 1 1.039-1.061l18.759-.197a10.77 10.34-.6 0 1 10.878 10.227l.012 1.2a10.77 10.34-.6 0 1-10.661 10.452l-18.759.197a1.05 1.05-87.911 0 1-1.061-1.039zM302.17 805.84a.361.355 71.014 0 1-.44-.22q-17.56-48.44-26.26-99.57-6.49-38.18-9.63-74.99a1.833 1.801-32.862 0 1 .24-1.07q31.24-54.73 45.21-115.96a.786.778-83.475 0 1 .76-.61h4.1a.58.571 1.409 0 1 .58.6q-8.58 168.4-14.19 291.19-.02.52-.37.63M414.41 977.26a.211.209-66.052 0 1-.36.14q-17.43-17.6-32.68-34.93a2.926 2.92-64.414 0 1-.72-2.05l17.97-426.26a.601.6-89.012 0 1 .6-.58h31.43a.33.33-89.157 0 1 .33.34zM515.268 513.56h36.542a.45.45-89.981 0 1 .45.45v565.63a.45.45 43.356 0 1-.684.385l-51.432-31.229a.45.45-87.418 0 1-.217-.397l14.891-534.402a.45.45 27.525 0 1 .45-.437M702.46 513.56h37.558a.33.33-55.48 0 1 .33.322l13.667 534.687a.33.33-65.436 0 1-.158.29l-51.226 31.146a.33.33-68.37 0 1-.501-.282V513.89a.33.33 35.532 0 1 .33-.33M824.432 513.57h30.933a.63.63 19.243 0 1 .629.605l17.026 427.716a.63.63-80.257 0 1-.165.45l-32.313 35.243a.63.63-86.689 0 1-1.094-.405l-15.646-462.958a.63.63 37.662 0 1 .63-.651M951.447 805.825q-.35-.111-.368-.631-5.284-122.749-13.417-291.095a.58.571-1.258 0 1 .582-.598l4.098.01a.786.778 83.626 0 1 .758.612q13.802 61.239 44.884 116.027a1.832 1.8 33.013 0 1 .237 1.07q-3.236 36.785-9.823 74.93-8.831 51.084-26.511 99.456a.361.354-70.863 0 1-.44.219M605.53 582.53v-11.3a.875.858 77.877 0 1 .5-.79q17.16-7.82 26.94-23.7a1.364 1.333-73.645 0 1 1.14-.64h6.27a.67.67 35.524 0 1 .67.67v98.27a.37.37-54.472 0 1-.37.37H629.4a.75.74 0 0 1-.75-.74V569.7a.325.323 71.348 0 0-.52-.26c-7.16 5.54-13.79 10.41-21.96 13.53a.474.471-10.333 0 1-.64-.44M647.79 730.7a.404.402-24.013 0 0-.71-.27c-1.74 2.01-5.02 5.81-7.53 7.38q-7.31 4.59-17.05 3.87-10.34-.77-17.02-8.41-5.75-6.57-7.42-14.53-2.19-10.36.15-18.85c3.04-11.04 11.01-19.87 22.55-22.18q17.02-3.42 28.2 8.39c6.91 7.3 9.63 16.62 10.47 27.31q1.4 17.87-2.14 35.11c-2.27 11.13-9.5 22.67-20.71 26.58-9.47 3.3-20 2.36-28.12-3.75-5.72-4.29-8.61-12.33-9.55-19.31a.438.434 85.316 0 1 .42-.5l10.88-.44a.9.889-5.833 0 1 .92.74c1.27 7.39 4.25 13.16 12.38 14.27 19.81 2.68 23.93-21.29 24.28-35.41m-20.287.205c14.473.593 20.331-12.893 18.817-25.389-1.077-8.886-7.752-17.605-17.041-17.986-9.288-.38-16.654 7.764-18.454 16.532-2.531 12.33 2.205 26.251 16.678 26.843"></path><path fill="#03a8ea" fill-rule="evenodd" d="M629.279 687.53c9.289.381 15.964 9.1 17.041 17.986 1.514 12.496-4.344 25.982-18.817 25.389-14.473-.592-19.209-14.513-16.678-26.843 1.8-8.768 9.166-16.912 18.454-16.532"></path><path fill="#fff" fill-rule="evenodd" d="M626.457 812.473c9.762.054 18.994 5.091 23.772 13.628 6.141 10.973 7.229 23.919 7.159 36.557s-1.304 25.571-7.567 36.474c-4.873 8.483-14.161 13.417-23.923 13.362s-18.994-5.091-23.772-13.628c-6.141-10.973-7.229-23.919-7.159-36.557s1.304-25.571 7.567-36.474c4.873-8.484 14.161-13.417 23.923-13.362m-18.911 50.09q-.019 9.45.949 16.969c1.337 10.374 5.809 22.215 17.655 22.239s16.366-11.799 17.744-22.168q.998-7.515 1.017-16.965.019-9.451-.949-16.97c-1.337-10.374-5.809-22.215-17.655-22.238-11.846-.024-16.366 11.799-17.744 22.167q-.998 7.515-1.017 16.966"></path><path fill="#03a8ea" fill-rule="evenodd" d="M626.307 823.43c11.846.023 16.318 11.864 17.655 22.238q.968 7.519.949 16.97t-1.017 16.965c-1.378 10.369-5.898 22.192-17.744 22.168s-16.318-11.865-17.655-22.239q-.968-7.519-.949-16.969t1.017-16.966c1.378-10.368 5.898-22.191 17.744-22.167"></path><path fill="#fff" fill-rule="evenodd" d="M610.3 1049.55a.52.51-89.449 0 1-.51-.53c.5-27.4 10.02-53.83 24.6-77.64q3.18-5.18 7.76-10.67a.537.529 19.699 0 0-.42-.87h-44.4a1.04 1.04-54.487 0 1-1.04-1.04v-11.48a.52.51 0 0 1 .52-.51h61.59a.65.65 45 0 1 .65.65v8.76a3.406 3.394-24.129 0 1-.87 2.27q-2.74 3.02-5.4 6.75-14.08 19.68-22.64 44.56-6.72 19.54-7.59 39.5a.271.26 1.101 0 1-.27.25z" data-source="https://football-logos.cc"></path><!-- source: https://football-logos.cc --></svg>