<svg xmlns="http://www.w3.org/2000/svg" xml:space="preserve" viewBox="0 0 411.17 643.89"><!-- Source: https://football-logos.cc --><defs data-source="https://football-logos.cc"><linearGradient id="b" x1="0" x2="1" y1="0" y2="0" gradientTransform="matrix(293.63293 0 0 -293.63293 7.372 297.358)" gradientUnits="userSpaceOnUse" spreadMethod="pad"><stop offset="0" style="stop-opacity:1;stop-color:#0086cd"></stop><stop offset=".5" style="stop-opacity:1;stop-color:#009de1"></stop><stop offset="1" style="stop-opacity:1;stop-color:#0086cd"></stop></linearGradient><linearGradient id="c" x1="0" x2="1" y1="0" y2="0" gradientTransform="matrix(214.28363 0 0 -214.28363 47.046 411.404)" gradientUnits="userSpaceOnUse" spreadMethod="pad"><stop offset="0" style="stop-opacity:1;stop-color:#0086cd"></stop><stop offset=".5" style="stop-opacity:1;stop-color:#009de1"></stop><stop offset="1" style="stop-opacity:1;stop-color:#0086cd"></stop></linearGradient><linearGradient id="e" x1="0" x2="1" y1="0" y2="0" gradientTransform="matrix(301.03259 0 0 -301.03259 3.672 358.164)" gradientUnits="userSpaceOnUse" spreadMethod="pad"><stop offset="0" style="stop-opacity:1;stop-color:#0086cd"></stop><stop offset=".5" style="stop-opacity:1;stop-color:#009de1"></stop><stop offset="1" style="stop-opacity:1;stop-color:#0086cd"></stop></linearGradient><clipPath id="a" clipPathUnits="userSpaceOnUse"><path d="M0 482.915h308.376V0H0Z"></path></clipPath><clipPath id="d" clipPathUnits="userSpaceOnUse"><path d="M0 482.915h308.376V0H0Z"></path></clipPath><clipPath id="f" clipPathUnits="userSpaceOnUse"><path d="M0 482.915h308.376V0H0Z"></path></clipPath></defs><g clip-path="url(#a)" transform="matrix(1.33333 0 0 -1.33333 0 643.887)"><path d="M0 0c-7.229-1.446-19.174-6.702-56.532-12.848C-63.15 46-109.873 70.936-143.355 70.936S-223.559 46-230.177-12.848C-267.536-6.702-279.481-1.446-286.709 0c-18.809-72.341-8.256-144.681-4.256-167.788 3.424-19.781 24-147.872 147.61-244.191C-19.745-315.66.831-187.569 4.255-167.788 8.255-144.681 18.808-72.341 0 0" style="fill:#fff;fill-opacity:1;fill-rule:nonzero;stroke:none" transform="translate(297.543 411.979)"></path><path d="M0 0v-149.321c14.587 20.445 27.245 42.327 37.892 65.571 14.013 30.595 23.91 62.329 29.415 94.321l.043.246A751 751 0 0 0 0 0" style="fill:#0085cc;fill-opacity:1;fill-rule:nonzero;stroke:none" transform="translate(233.923 232.831)"></path><path d="M0 0a752 752 0 0 0-67.35 10.817l.043-.246c5.505-31.992 15.402-63.726 29.415-94.321C-27.245-106.994-14.587-128.875 0-149.32z" style="fill:#0085cc;fill-opacity:1;fill-rule:nonzero;stroke:none" transform="translate(74.453 232.83)"></path><path d="M0 0c-5.125 0-7.946.102-7.942.103C-7.97.102-10.793 0-15.916 0c-6.033 0-15.177.141-26.834.725v-198.117a410 410 0 0 1 34.792-30.449 410 410 0 0 1 34.792 30.449V.725C15.177.141 6.033 0 0 0" style="fill:#0085cc;fill-opacity:1;fill-rule:nonzero;stroke:none" transform="translate(162.146 228.38)"></path></g><path d="M261.968 337.341s-38.82-28.128-73.021-35.49c-7.867-1.694-17.71-2.892-34.759-2.638-17.048-.254-26.892.944-34.759 2.638-34.2 7.362-73.02 35.49-73.02 35.49-23.49 16.276-37.272 22.732-37.272 22.732-5.524-65.813 3.682-110.224 3.682-110.224 75.015-16.339 141.368-15.188 141.369-15.188s66.354-1.151 141.37 15.188c0 0 9.204 44.411 3.682 110.224 0 0-13.783-6.456-37.272-22.732" style="fill:url(#b);stroke:none" transform="matrix(1.33333 0 0 -1.33333 0 643.887)"></path><path d="M154.188 475.384c-.003 0-69.099.295-79.695-77.533 0 0 .426-9.107-11.489-5.872l-15.957 2.936c6.169-4.298 46.467-47.489 46.467-47.489-31.616 50.511.128 120.128 60.674 120.797 60.547-.669 92.291-70.286 60.674-120.797 0 0 40.298 43.191 46.468 47.489l-15.958-2.936c-11.915-3.235-11.489 5.872-11.489 5.872-10.516 77.239-78.65 77.533-79.683 77.533z" style="fill:url(#c);stroke:none" transform="matrix(1.33333 0 0 -1.33333 0 643.887)" data-source="https://football-logos.cc"></path><g clip-path="url(#d)" transform="matrix(1.33333 0 0 -1.33333 0 643.887)"><path d="M0 0h.001l-.013.066z" style="fill:#0085cc;fill-opacity:1;fill-rule:nonzero;stroke:none" transform="translate(302.309 390.474)"></path><path d="M0 0v.003z" style="fill:#0085cc;fill-opacity:1;fill-rule:nonzero;stroke:none" transform="translate(305.511 369.6)"></path></g><path d="M290.423 409.198c-1.173-.342-2.463-.719-3.883-1.123l-.002-.001s-15.634-9.457-56.485-54.137c0 0-28.9-31.661-51.914-37.362 0 0-14.724-4.001-23.951-4.001s-23.95 4.001-23.95 4.001c-23.014 5.701-51.916 37.362-51.916 37.362-40.851 44.68-56.271 54.077-56.271 54.077l-.002.001a602 602 0 0 0-4.095 1.183c-2.697.786-4.746 1.383-6.502 1.78-.326-1.271-.633-2.556-.945-3.838l2.029-1.034s13.447-8.766 23.489-18.468 13.009-12.423 23.064-23.233c8.757-9.417 23.574-24.512 23.574-24.512s-8.51 6.298-20.425 17.192-18.085 15.617-26.596 22.426c-6.69 5.351-18.968 13.817-27.393 17.614a323 323 0 0 1-1.388-7.076c4.933-2.666 15.87-8.939 26.398-17.474 6.152-4.989 10.188-7.842 27.192-22.979 15.702-13.979 26.043-21.319 26.043-21.319s-21.447 10.468-49.277 30.893c0 0-22.035 13.622-32.54 17.591a354 354 0 0 1-1.005-7.507c12.66-3.486 61.069-36.851 61.069-36.851 42.834-25.764 62.688-27.053 89.447-27.053s46.614 1.289 89.447 27.053c0 0 48.409 33.365 61.07 36.851-.308 2.521-.648 5.02-1.005 7.507-10.505-3.969-32.54-17.591-32.54-17.591-27.83-20.425-49.277-30.893-49.277-30.893s10.34 7.34 26.043 21.319c17.003 15.137 21.04 17.99 27.191 22.979 10.528 8.535 21.465 14.808 26.399 17.474a329 329 0 0 1-1.389 7.076c-8.425-3.797-20.702-12.263-27.393-17.614-8.51-6.809-14.681-11.533-26.595-22.426-11.915-10.894-20.426-17.192-20.426-17.192s14.816 15.095 23.574 24.512c10.056 10.81 13.022 13.531 23.064 23.233s23.49 18.468 23.49 18.468l2.028 1.034c-.311 1.282-.619 2.567-.945 3.838-1.756-.397-3.804-.994-6.501-1.78" style="fill:url(#e);stroke:none" transform="matrix(1.33333 0 0 -1.33333 0 643.887)"></path><g clip-path="url(#f)" transform="matrix(1.33333 0 0 -1.33333 0 643.887)" data-source="https://football-logos.cc"><path d="m0 0-.001-.008z" style="fill:#0085cc;fill-opacity:1;fill-rule:nonzero;stroke:none" transform="translate(2.866 369.607)"></path><path d="m0 0-.013-.067v-.001z" style="fill:#0085cc;fill-opacity:1;fill-rule:nonzero;stroke:none" transform="translate(6.08 390.542)"></path><path d="M0 0c0-3.638-.383-13.149 5.094-22.149 5.475-8.996 11.623-8.518 11.629-8.517 1.123.44 2.267.833 3.383 1.134 4.736 1.277 9.346 1.833 11.084 2.011-4.276.782-10.019 2.706-15.999 7.351-7.723 6-8.979 14.482-9.809 21.886s1.958 16.348 6.746 23.178c4.387 6.258 14.02 8.537 15.602 8.875-2.349-.046-4.748-.13-6.624-.279-2.516-.201-5.585-.476-8.629-.875C9.199 29.938 5.46 25.753 3.639 21 .702 13.341 0 3.639 0 0" style="fill:#009ee2;fill-opacity:1;fill-rule:nonzero;stroke:none" transform="translate(152.087 407.32)"></path><path d="M0 0c-4.149-7.149-5.745-17.617-5.617-24s1.085-15 4.085-19.915c2.836-4.646 4.766-8.489 11.276-9.651-.768 1.069-1.486 2.043-2.156 3.032C2.699-43.313-.711-35.39-1.085-26.596-1.595-14.595 1.418-5.33 8.873 3.91c.429.532 2.776 3.478 2.776 3.478-1.059.004-2.336 0-3.686-.013C5.631 6.273 2.386 4.11 0 0" style="fill:#009ee2;fill-opacity:1;fill-rule:nonzero;stroke:none" transform="translate(174.044 433.746)"></path><path d="M0 0c-4.3-7.7-5.829-16.716-4.766-25.489C-3.277-37.787 10.958-52.83 10.958-52.83l13.749-.647s1.842 1.619 3.829 3.337c-12.293 1.356-16.765 4.51-20.791 7.885C3.404-38.617-2.277-33.69-2.66-17.617-2.88-8.37.3-.494 3.042 4.533 1.888 3.034.832 1.491 0 0" style="fill:#009ee2;fill-opacity:1;fill-rule:nonzero;stroke:none" transform="translate(127.363 419.065)"></path><path d="M0 0c-3.766-10.276-3.702-12.766-4.021-22.276s2.936-17.873 10.723-24.256c4.906-4.021 9.177-5.507 12.976-6.09.225.19.443.373.641.537 0 0 3.989 2.502 8.549 4.402-4.785.385-14.512 1.95-19.358 8.3-6.574 8.617-7.723 17.234-7.723 21S1.384-4.979 6.766 3.575c3.647 5.796 8.478 9.274 12.189 11.258a38 38 0 0 1-1.721-.429c-2.816-.785-5.852-1.589-8.837-2.601C5.065 8.596 1.644 4.487 0 0" style="fill:#009ee2;fill-opacity:1;fill-rule:nonzero;stroke:none" transform="translate(139.066 423.98)"></path><path d="M0 0s-8.213-1.763-11.702-2.912c-7.312-1.822-12.687-1.483-20.256-1.915-2.326-.133-11.063.213-11.063.213s-3.287-4.508-4.511-6.086c-1.595-2.057-3.885-2.789-5.744-.978-1.433 1.395-9.022 7.744-9.022 7.744s-5.311-.021-11.447.851c-1.353.193-12.021 1.905-12.021 1.905s9.176-11.323 14.26-16.08c4.295-4.018 8.823-5.092 14.655-4.346 3.353.429 7.59.685 10.979.692 7.17.015 15.255-1.296 22.383-1.83 4.621-.346 7.498.656 11.106 3.957 1.779 1.628 2.7 3.264 3.915 5.32C-5.872-8.274 0 0 0 0m-13.884 17.551c-.857 1.202-1.643 2.256-2.379 3.343-4.889 7.221-8.299 15.145-8.673 23.939-.51 12 2.503 21.266 9.957 30.505.43.532 2.777 3.478 2.777 3.478-3.392.013-8.908-.038-12.5-.324-4.956-.395-12.051-1.075-16.894-2.426-7.132-1.988-15.691-4.073-21.191-9.468-2.818-2.764-5.847-6.452-7.745-9.851-4.3-7.7-5.828-16.716-4.766-25.489C-73.809 18.96-59.574 3.917-59.574 3.917l13.749-.646s4.864 4.274 7.314 6.306c0 0 6.809 4.277 12.809 5.894s11.818 2.08 11.818 2.08m9.31 68.941c2.363-.062 4.235.205 5.138-2.521.561-1.695.149-3.114-1.085-4.341-1.022-1.015-2.238-1.851-3.288-2.84-6.475-6.1-11.372-13.302-13.244-22.149-2.014-9.52.395-18.534 5.216-26.839 2.046-3.525 4.567-6.695 7.456-9.562 1.235-1.227 1.56-2.289 1.019-4.067-.528-1.738-1.274-2.355-2.904-2.713-5.514-1.21-12.055-1.813-17.489-3.415-3.849-1.134-10.756-5.043-10.756-5.043 8.732-.708 15.929.676 24.511 2.713C-4.077 7.122.356 8.16 6.277 9.577c2.007.481 5.385 1.044 6.42-.412 1.133-1.596 1.56-3.506.505-4.886-1.348-1.764-2.824-3.782-4.276-5.457A82.3 82.3 0 0 1-1.511-16.306c-1.896-3.538-4.251-7.022-7.5-9.51-4.596-3.522-9.652-4.825-15.288-4.698-5.557.126-11.022 1.139-16.545 1.592-3.356.275-6.657-.036-9.963-.342-5.322-.49-10.617-.727-15.884.455-1.599.359-2.811.73-4.139 1.684-7.067 5.078-12.652 11.308-18.223 17.872-2.983 3.516-5.865 7.317-9.894 9.766-1.496.91-2.823 3.169-2.042 4.947.69 1.572 1.855 2.809 3.766 2.649 9.049-.756 18.414-3.223 27.414-3.862-4.999 7.191-11.179 15.948-12.446 24.798-2.214 15.467 2.659 30.148 13.021 42.096 5.391 6.216 15.56 9.658 23.298 11.808 5.7 1.584 21.734 3.32 21.734 3.32s-.063 5.44 0 7.436c.076 2.425 1.428 3.404 3.638 3.415 2.23.01 3.692-.754 3.734-3.16.031-1.721-.064-7.276-.064-7.276" style="fill:#312782;fill-opacity:1;fill-rule:nonzero;stroke:none" transform="translate(197.895 362.318)"></path><path d="M0 0h-.051l-2.852-1.388-.643 3.11L.411 3.674h3.521v-16.702H0Z" style="fill:#fff;fill-opacity:1;fill-rule:nonzero;stroke:none" transform="translate(135.172 254.389)"></path><path d="M0 0c.025-1.259.36-2.646 1.259-2.646.488 0 .874.385.95.59.129.36.155.771.155 2.108 0 1.618-.463 2.749-1.182 2.749C.385 2.801-.051 1.67 0 0m-2.493-8.223c.745 0 1.054.026 1.671.129a4 4 0 0 1 1.824.874c.617.539 1.182 1.593 1.465 2.775H2.39c-.515-.514-1.234-.874-2.236-.874-2.21 0-4.06 1.927-4.06 5.011 0 2.775 1.799 5.935 5.293 5.935 3.213 0 4.986-2.749 4.986-6.937 0-3.983-1.388-6.655-2.981-8.197-1.054-1.028-2.544-1.696-4.24-1.928-.54-.077-1.079-.051-1.645-.051z" style="fill:#fff;fill-opacity:1;fill-rule:nonzero;stroke:none" transform="translate(145.709 252.641)"></path><path d="M0 0v2.698l1.773 2.21c2.236 2.749 3.751 4.676 3.751 6.732 0 1.131-.719 1.979-2.029 1.979-.977 0-1.85-.386-2.544-.797l-.642 3.084c.847.513 2.389 1.002 3.905 1.002 4.035 0 5.217-2.621 5.217-4.959 0-3.136-1.928-5.397-3.778-7.375l-.951-1.028v-.051H9.61V0Z" style="fill:#fff;fill-opacity:1;fill-rule:nonzero;stroke:none" transform="translate(152.339 241.36)"></path><path d="M0 0h-.051l-2.852-1.388-.643 3.11L.411 3.674h3.521v-16.702H0Z" style="fill:#fff;fill-opacity:1;fill-rule:nonzero;stroke:none" transform="translate(166.858 254.389)"></path><path d="M0 0a531 531 0 0 0-5.623 2.833c1.197 10.16 2.013 14.723 3.735 24.21a442 442 0 0 0 11.763-5.189 774 774 0 0 1-.708-4.167 862 862 0 0 1-5.572 2.542l-.5.226-.094-.54c-.376-2.17-.56-3.253-.916-5.435l-.052-.317 5.749-2.68a373 373 0 0 1-.61-3.98c-1.925.911-3.071 1.455-5.241 2.49l-.517.246-.086-.567A278 278 0 0 1 0 0" style="fill:#fff;fill-opacity:1;fill-rule:nonzero;stroke:none" transform="translate(19.857 300.205)"></path><path d="M0 0c-1.792-9.871-2.633-14.518-3.868-25.054a535 535 0 0 1 6.429-3.236c.506 4.206.79 6.238 1.398 10.257a1639 1639 0 0 1 5.761-2.735c.288 1.955.437 2.925.743 4.859-2.243 1.046-3.389 1.582-5.747 2.679.355 2.18.539 3.262.915 5.43a917 917 0 0 0 6.075-2.773c.336 2.014.508 3.019.856 5.036C7.856-3.396 5.379-2.286 0 0m.646-1.199a431 431 0 0 0 10.966-4.84c-.215-1.252-.365-2.13-.561-3.297-1.753.805-2.947 1.35-5.069 2.31l-1.001.453-.187-1.082a447 447 0 0 1-.917-5.438l-.104-.636.584-.271c1.943-.904 3.063-1.427 4.651-2.168l.516-.241a327 327 0 0 1-.477-3.101c-1.629.771-2.754 1.307-4.722 2.244l-1.034.493-.172-1.133c-.544-3.596-.831-5.613-1.257-9.088-1.69.842-2.882 1.443-4.816 2.429C-1.8-14.809-.992-10.232.646-1.199" style="fill:#fff;fill-opacity:1;fill-rule:nonzero;stroke:none" transform="translate(17.646 327.847)"></path><path d="M0 0c-.663.062-1.769.33-3.177.937-6.795 2.922-8.911 10.611-7.994 16.935.858 5.922 3.701 9.318 7.797 9.318 1.182 0 2.44-.295 3.64-.854 1.452-.676 2.364-1.424 2.77-1.859a965 965 0 0 0-1.127-3.69 6 6 0 0 1-1.521.985c-.621.284-1.228.428-1.805.428-1.375 0-3.799-.871-4.57-6.708-.684-5.182.803-8.973 4.081-10.4.592-.258 1.326-.46 1.906-.575C-.01 2.777-.011 1.74 0 0" style="fill:#fff;fill-opacity:1;fill-rule:nonzero;stroke:none" transform="translate(44.396 289.046)"></path><path d="M0 0c-3.674 0-7.196-2.634-8.218-9.683-.97-6.691 1.333-14.413 8.246-17.386 1.592-.685 2.907-.985 3.623-.985q.081 0 .15.005a348 348 0 0 0 0 5.307c-.581.087-1.486.313-2.164.609-2.786 1.212-4.544 4.54-3.829 9.954C-1.594-7.657.034-5.84 1.957-5.84c.525 0 1.073-.136 1.627-.389.884-.404 1.428-.893 1.9-1.388.564 1.834.845 2.749 1.4 4.578-.39.501-1.425 1.381-3.065 2.145C2.595-.323 1.288 0 0 0m0-.85c1.12 0 2.316-.281 3.46-.815 1.223-.569 2.035-1.179 2.47-1.592-.334-1.1-.573-1.879-.87-2.849a6.6 6.6 0 0 1-1.122.649c-.677.31-1.344.467-1.981.467-1.516 0-4.178-.92-4.992-7.078-.711-5.384.868-9.337 4.332-10.845a10 10 0 0 1 1.65-.528 283 283 0 0 1-.001-3.683c-.627.119-1.514.376-2.582.835-6.588 2.834-8.635 10.321-7.741 16.484C-6.54-4.03-3.92-.85 0-.85" style="fill:#fff;fill-opacity:1;fill-rule:nonzero;stroke:none" transform="translate(41.022 316.662)"></path><path d="M0 0c-4.142 1.301-6.359 2.051-10.494 3.55.382 8.502.773 13.592 1.311 20.605l.327 4.272a183 183 0 0 1 4.148-1.705l-.272-4.972c-.277-5.028-.497-8.999-.737-15.35l-.012-.313.296-.104c2.221-.78 3.358-1.165 5.494-1.858A377 377 0 0 1 0 0" style="fill:#fff;fill-opacity:1;fill-rule:nonzero;stroke:none" transform="translate(67.907 280.252)"></path><path d="M0 0c-.765-10.156-1.229-15.282-1.697-25.792 4.517-1.64 6.764-2.398 11.352-3.834.018 2.005.033 3.007.072 5.008a210 210 0 0 0-5.784 1.953c.316 8.349.59 12.478 1.025 20.62A191 191 0 0 0 0 0m.758-1.244c1.141-.481 2.023-.843 3.328-1.365-.091-1.709-.176-3.243-.255-4.682-.278-5.025-.498-8.994-.737-15.342l-.024-.626.592-.208a202 202 0 0 1 5.203-1.764 406 406 0 0 1-.049-3.241A210 210 0 0 0-.82-25.206c.377 8.304.765 13.35 1.296 20.269z" style="fill:#fff;fill-opacity:1;fill-rule:nonzero;stroke:none" transform="translate(58.672 309.302)"></path><path d="M0 0c-4.502 1.128-6.837 1.761-11.096 3.008-.024 6.94.071 11.62.18 17.026.046 2.283.096 4.715.141 7.524 3.646-1.202 5.807-1.848 10.133-2.95.018-1.594.026-2.561.035-4.115a144 144 0 0 0-5.108 1.391l-.541.157-.025-5.621.31-.088c2.046-.584 3.113-.874 5.127-1.391l.02-3.96c-1.873.481-2.941.77-4.933 1.332l-.539.152-.001-.56c-.004-2.302-.005-3.456.008-5.76l.001-.321.31-.086c2.352-.653 3.571-.976 5.903-1.565C-.053 2.542-.036 1.562 0 0" style="fill:#fff;fill-opacity:1;fill-rule:nonzero;stroke:none" transform="translate(84.614 275.541)"></path><path d="M0 0c-.155-10.017-.368-15.206-.328-25.454 4.659-1.366 7.027-2.005 11.957-3.236a421 421 0 0 0-.092 5.052c-2.532.638-3.77.966-6.21 1.642a650 650 0 0 0-.008 5.757c2.151-.607 3.243-.901 5.476-1.471-.012 1.938-.015 2.907-.024 4.839a167 167 0 0 0-5.434 1.468c.009 1.9.014 2.848.021 4.736 2.209-.637 3.336-.943 5.655-1.531-.012 2.009-.019 3.01-.042 4.994C6.351-2.031 4.192-1.388 0 0m.832-1.169c3.248-1.063 5.382-1.695 9.296-2.697.014-1.218.02-2.085.028-3.236-1.622.417-2.7.715-4.562 1.251l-1.081.312-.004-1.125-.014-3.065-.008-1.67-.003-.644.62-.177c1.952-.557 3.015-.847 4.82-1.311l.015-3.082c-1.558.403-2.6.687-4.389 1.192l-1.078.304-.003-1.12c-.004-2.304-.004-3.458.008-5.763l.003-.643.62-.171a216 216 0 0 1 5.596-1.488c.017-1.251.033-2.132.058-3.293A240 240 0 0 0 .52-24.816c-.02 6.763.073 11.379.181 16.7.043 2.126.088 4.379.131 6.947" style="fill:#fff;fill-opacity:1;fill-rule:nonzero;stroke:none" transform="translate(73.423 303.685)"></path><path d="M0 0c-1.257 0-3.173.119-4.779.453-3.358.697-5.795 1.996-7.671 4.088-2.349 2.565-3.67 6.545-3.628 10.921.083 8.617 5.115 10.426 9.323 10.426.834 0 1.725-.072 2.647-.213 2.175-.334 3.918-.901 4.937-1.368l-.987-4.079c-.871.409-1.931.715-3.159.913-.565.091-1.1.137-1.592.137-1.536 0-2.766-.453-3.654-1.347-1.25-1.258-1.849-3.358-1.829-6.42.038-5.819 2.696-8.414 4.961-8.869a3.5 3.5 0 0 1 .667-.089q.11 0 .213.015l.362.056-.002.367a765 765 0 0 0-.014 5.255v.352s-1.488.282-2.116.404l-.012 3.973c2.852-.531 4.51-.813 7.634-1.303l-.044-2.984c-.054-3.705-.095-6.411-.106-10.65A15 15 0 0 0 0 0" style="fill:#fff;fill-opacity:1;fill-rule:nonzero;stroke:none" transform="translate(105.817 271.121)"></path><path d="M0 0c-5.585 0-9.673-3.072-9.748-10.847-.041-4.266 1.183-8.418 3.737-11.209 1.815-2.023 4.279-3.467 7.901-4.22 1.541-.32 3.424-.461 4.865-.461.633 0 1.18.027 1.576.078.012 5.661.075 8.595.155 14.381-3.535.553-5.217.84-8.489 1.452.005-1.932.006-2.901.014-4.834.838-.164 1.261-.245 2.114-.406.001-2.11.002-3.163.014-5.258a1 1 0 0 0-.148-.011c-.181 0-.382.041-.583.081-2.229.448-4.584 3.031-4.619 8.455-.035 5.344 1.877 7.34 5.058 7.34q.72-.002 1.524-.132c1.391-.224 2.587-.596 3.513-1.119.477 1.983.717 2.973 1.194 4.937-.998.512-2.894 1.176-5.367 1.555Q1.308-.002 0 0m0-.85c.813 0 1.683-.07 2.583-.208 1.919-.294 3.488-.771 4.504-1.194l-.785-3.242c-.807.324-1.743.573-2.797.743a10.6 10.6 0 0 1-1.658.142c-1.654 0-2.985-.495-3.956-1.473-1.334-1.342-1.973-3.542-1.952-6.722.039-6.073 2.88-8.797 5.302-9.283a3.8 3.8 0 0 1 .75-.098q.144 0 .278.021l.724.112-.004.733a833 833 0 0 0-.014 5.253v.704l-.692.131c-.587.11-.97.183-1.425.272L.85-12.143l-.001.294a227 227 0 0 1 6.777-1.154l-.038-2.61c-.053-3.59-.093-6.243-.105-10.26a18 18 0 0 0-.728-.014c-1.235 0-3.117.116-4.692.444-3.265.678-5.629 1.935-7.447 3.962-2.274 2.483-3.555 6.356-3.514 10.626C-8.834-4.31-5.758-.85 0-.85" style="fill:#fff;fill-opacity:1;fill-rule:nonzero;stroke:none" transform="translate(99.062 297.433)"></path><path d="M0 0c-1.861.15-2.928.249-4.796.442-1.355 3.513-2.057 5.434-3.361 9.02-.798 2.177-1.938 5.838-2.364 7.82l-.063.295-.795.099-.06-.488c.07-1.981.232-6.623.172-11.948a628 628 0 0 1-.035-4.026c-1.704.229-2.712.376-4.408.647.018 5.003.085 8.97.15 12.808.065 3.812.132 7.749.151 12.703 0 0 2.968-.386 4.786-.617 1.371-3.659 2.102-5.709 3.406-9.367l.11-.309c.611-1.704 1.815-5.229 2.46-7.392l.081-.27.778-.085.05.492-.037.659c-.145 2.522-.414 7.218-.362 11.717.017 1.534.026 2.373.034 3.749 1.69-.201 2.718-.319 4.432-.505-.032-4.965-.1-8.923-.165-12.755C.099 8.875.032 4.934 0 0" style="fill:#fff;fill-opacity:1;fill-rule:nonzero;stroke:none" transform="translate(129.47 267.537)"></path><path d="M0 0c-.033-10.357-.272-16-.305-26.356 2.1-.337 3.152-.491 5.258-.77.008 1.787.017 2.69.037 4.505.059 5.165-.091 9.661-.172 11.969l.078-.011c.437-2.037 1.59-5.721 2.379-7.876 1.368-3.76 2.054-5.634 3.458-9.27 2.206-.23 3.31-.331 5.521-.506.061 10.294.273 15.99.334 26.285-2.112.228-3.169.35-5.281.602a552 552 0 0 0-.037-4.222c-.057-4.958.278-10.218.4-12.405l-.078.008c-.633 2.125-1.828 5.634-2.467 7.413C7.699-6.633 6.986-4.628 5.517-.711 3.311-.431 2.207-.287 0 0m.846-.967c1.468-.191 2.49-.324 4.055-.523 1.308-3.496 2.032-5.526 3.302-9.087l.123-.345c.608-1.694 1.808-5.207 2.451-7.368l.182-.543.562-.061.06-.007.994-.104-.056.997-.037.646c-.145 2.519-.414 7.209-.362 11.702.016 1.35.024 2.162.031 3.276a339 339 0 0 1 3.582-.408c-.032-4.782-.098-8.633-.162-12.363-.063-3.698-.128-7.515-.161-12.24a177 177 0 0 0-4.071.377c-1.289 3.348-1.989 5.264-3.266 8.771-.792 2.163-1.924 5.798-2.346 7.763l-.205.597-.595.077-.994.129.035-1.001c.07-1.975.233-6.6.172-11.929a617 617 0 0 1-.032-3.544c-1.31.177-2.233.313-3.56.523.02 4.831.086 8.698.15 12.443C.76-9.502.825-5.697.846-.967" style="fill:#fff;fill-opacity:1;fill-rule:nonzero;stroke:none" transform="translate(113.637 295.392)"></path><path d="M0 0c-.149-.818-.334-1.973-.514-3.092C-.685-4.155-.85-5.186-.973-5.86l-.935-5.411.481-.021a204 204 0 0 1 3.224-.129l.496-.017-.663 5.472-.188 1.607c-.169 1.45-.371 3.193-.525 4.335L.87.327.145.361Zm8.449-20.251c-1.917.001-3.07.011-5.03.045a451 451 0 0 0-.768 4.688l-.055.349-.353.009a226 226 0 0 0-4.277.149l-.367.015-.947-5.021c-1.953.076-3.103.131-5.017.246 1.289 5.638 2.27 9.88 3.301 14.34.737 3.186 1.499 6.484 2.418 10.479 2.531-.187 3.984-.277 6.66-.389A872 872 0 0 0 6.096-7.095c.712-4.141 1.386-8.061 2.353-13.156" style="fill:#fff;fill-opacity:1;fill-rule:nonzero;stroke:none" transform="translate(143.336 286.924)"></path><path d="M0 0a216 216 0 0 0-3.219.128l.852 4.932c.254 1.385.683 4.266.973 5.86l.079-.004c.218-1.621.535-4.457.712-5.937C-.362 2.986-.243 1.986 0 0m-4.791 16.496C-7.082 6.525-8.397.922-10.702-9.169c2.355-.143 3.534-.2 5.892-.29.373 1.985.563 2.993.946 5.02A227 227 0 0 1 .42-4.588c.326-2.04.491-3.053.828-5.04 2.36-.042 3.542-.052 5.903-.052C5.249.298 4.437 5.958 2.558 16.066c-2.939.121-4.409.21-7.349.43M.964-.883l-.12.986-.455 3.749-.148 1.229c-.052.429-.115.974-.184 1.57-.167 1.435-.374 3.222-.53 4.378l-.094.7-.705.036-.077.004-.747.039-.134-.735c-.15-.824-.335-1.982-.515-3.101-.17-1.059-.335-2.087-.459-2.767l-.479-2.769-.373-2.163-.164-.949.962-.045C-1.966-.78-1.32-.806-.029-.85zm-5.089 16.477c2.213-.162 3.628-.249 5.971-.349.81-4.383 1.424-7.952 2.019-11.41.689-4.007 1.343-7.806 2.26-12.664-1.545.002-2.603.013-4.157.038a446 446 0 0 0-.709 4.337l-.111.697-.705.019c-1.709.046-2.563.075-4.271.148l-.734.031-.137-.723c-.334-1.766-.521-2.759-.81-4.3-1.597.064-2.653.115-4.141.202 1.243 5.435 2.202 9.581 3.211 13.945.708 3.062 1.44 6.232 2.314 10.029" style="fill:#fff;fill-opacity:1;fill-rule:nonzero;stroke:none" transform="translate(145.147 275.927)"></path><path d="M0 0c-2.753 0-4.873.715-6.479 2.186-2.231 1.988-3.439 5.659-3.319 10.075.211 7.728 4.48 12.638 11.42 13.135q.634.044 1.197.043c1.381 0 2.302-.18 2.812-.321l-.821-4.284c-.561.159-1.211.24-1.941.24q-.372 0-.771-.028c-4.227-.288-6.392-3.379-6.435-9.185-.03-3.897 1.049-5.808 1.959-6.725.719-.724 1.595-1.107 2.534-1.107l.143.003c.257.011.549.023.819.14l.255.11.03 5.99s-1.42-.07-1.923-.093l.026 4.019c2.552.125 4 .217 6.59.42l-.012-2.999C6.068 7.95 6.057 5.23 6.057 1.053 4.811.594 2.428.081.647.013Q.317 0 0 0" style="fill:#fff;fill-opacity:1;fill-rule:nonzero;stroke:none" transform="translate(165.61 266.7)"></path><path d="M0 0q-.578 0-1.229-.045c-6.012-.43-11.564-4.396-11.813-13.547-.119-4.345 1.026-8.235 3.456-10.4 1.608-1.473 3.77-2.298 6.766-2.298q.325 0 .663.013c2.046.079 4.679.696 5.819 1.175 0 5.565.019 8.53.041 14.315a201 201 0 0 0-7.439-.475l-.031-4.867c.769.033 1.153.051 1.922.089-.012-2.118-.017-3.175-.026-5.263-.196-.085-.432-.095-.668-.105q-.062-.002-.125-.002c-2.006 0-4.108 2.041-4.068 7.403.045 6.206 2.482 8.522 6.039 8.765q.384.026.741.026c.889 0 1.651-.123 2.267-.376.397 2.075.594 3.108.985 5.136C2.646-.217 1.519 0 0 0m0-.85c1.041 0 1.804-.105 2.317-.213-.244-1.271-.419-2.181-.661-3.451a8 8 0 0 1-1.608.148q-.385 0-.799-.028C-5.239-4.701-7.538-7.933-7.583-14c-.03-4.044 1.117-6.054 2.084-7.028.8-.806 1.78-1.232 2.835-1.232q.08 0 .161.003c.28.012.628.027.969.174l.512.22.001.557c.008 2.087.014 3.144.026 5.262l.005.898-.898-.044-1.024-.051.013 1.888.007 1.281c2.159.108 3.551.197 5.742.366l-.011-2.424c-.015-3.637-.026-6.328-.027-10.379-1.173-.386-3.26-.851-5.001-.919a17 17 0 0 0-.63-.012c-2.643 0-4.669.679-6.202 2.083-2.132 1.9-3.289 5.451-3.172 9.742.204 7.487 4.325 12.243 11.025 12.722.397.028.79.043 1.168.043" style="fill:#fff;fill-opacity:1;fill-rule:nonzero;stroke:none" transform="translate(168.43 292.565)"></path><path d="M0 0q-.121 0-.247-.018c-1.947-.266-2.98-3.41-2.986-9.091-.006-4.258.504-6.841 1.558-7.896.378-.379.826-.571 1.331-.571q.117 0 .237.014c1.881.217 2.797 3.283 2.799 9.371.001 2.433-.172 4.339-.514 5.666C1.747-.85 1.014 0 0 0m-1.297-21.954c-1.712 0-3.159.581-4.301 1.726-2.698 2.706-3.088 7.759-3.081 10.531.016 5.894 2.315 13.106 8.74 14.03.414.06.818.09 1.201.09 6.185 0 6.855-7.958 6.856-11.379.003-9.174-2.94-14.342-8.51-14.947a8 8 0 0 0-.905-.051" style="fill:#fff;fill-opacity:1;fill-rule:nonzero;stroke:none" transform="translate(185.85 289.918)"></path><path d="M0 0c-1.429 0-2.472 1.993-2.465 8.042.007 5.873 1.138 8.467 2.62 8.67q.096.015.189.014c1.687 0 2.268-3.294 2.267-7.766C2.609 3.447 1.83.201.187.011A2 2 0 0 0 0 0m1.606 22q-.599 0-1.262-.095c-6.353-.914-9.086-7.886-9.104-14.45-.017-6.24 1.903-12.683 7.807-12.683q.459 0 .951.053c5.319.578 8.892 5.125 8.889 15.37C8.885 15.019 7.647 22 1.606 22M0-.85q.141 0 .285.017c2.165.25 3.173 3.361 3.176 9.792 0 2.469-.177 4.412-.527 5.773-.487 1.887-1.358 2.844-2.59 2.844q-.149 0-.305-.021c-2.218-.305-3.347-3.505-3.354-9.513C-3.32 3.605-2.786 1-1.631-.155A2.27 2.27 0 0 1 0-.85m1.607 21.999c5.8 0 6.429-7.661 6.43-10.955C8.039 3.971 6.629-3.6-.094-4.33a8 8 0 0 0-.859-.048c-1.617 0-2.926.524-4 1.601-1.92 1.925-2.969 5.558-2.957 10.23.015 5.725 2.218 12.725 8.375 13.611a8 8 0 0 0 1.142.085" style="fill:#fff;fill-opacity:1;fill-rule:nonzero;stroke:none" transform="translate(185.507 272.767)"></path><path d="M0 0c-.601 0-1.145.046-1.554.129.224 1.712.355 2.756.562 4.48.647-.154 1.341-.192 1.856-.192.782 0 1.572.083 2.286.24 2.186.48 3.441 1.779 3.357 3.474-.098 1.961-1.503 2.546-3.629 3.432-2.986 1.251-4.462 3.274-4.512 6.183-.08 4.726 2.675 8.187 7.37 9.258.674.154 1.39.235 2.071.235a6.2 6.2 0 0 0 1.305-.122 681 681 0 0 1-.407-4.428 5.3 5.3 0 0 1-1.404.181c-.476 0-.974-.058-1.481-.173-1.857-.421-3.015-1.715-2.951-3.297.059-1.463.914-2.22 3.659-3.244 2.923-1.089 4.504-3.13 4.699-6.067.316-4.756-2.868-8.579-8.112-9.738A14.6 14.6 0 0 0 0 0" style="fill:#fff;fill-opacity:1;fill-rule:nonzero;stroke:none" transform="translate(208.76 272.2)"></path><path d="M0 0c-.66 0-1.409-.073-2.166-.246-5.423-1.237-7.774-5.284-7.7-9.679.034-1.98.692-4.857 4.774-6.569 2.21-.92 3.286-1.422 3.368-3.06.066-1.327-.852-2.561-3.023-3.038a10.5 10.5 0 0 0-2.196-.229c-.837 0-1.633.101-2.217.318a384 384 0 0 0-.671-5.349c.446-.147 1.159-.237 2.024-.237.938 0 2.057.106 3.207.36 5.414 1.197 8.773 5.246 8.444 10.183-.178 2.681-1.531 5.153-4.974 6.437-2.821 1.051-3.337 1.725-3.383 2.862-.049 1.217.784 2.45 2.62 2.866.507.114.969.162 1.388.162.72 0 1.312-.141 1.778-.328.192 2.144.288 3.21.49 5.312C1.36-.09.735 0 0 0m0-.85c.302 0 .591-.018.845-.049a646 646 0 0 1-.327-3.557 6 6 0 0 1-1.023.087 7 7 0 0 1-1.576-.184c-2.066-.468-3.355-1.931-3.282-3.728.075-1.852 1.384-2.674 3.936-3.625 2.752-1.025 4.24-2.942 4.423-5.697.302-4.535-2.751-8.184-7.779-9.296a14.2 14.2 0 0 0-3.024-.34c-.392 0-.762.021-1.078.059a341 341 0 0 1 .454 3.619 9.6 9.6 0 0 1 1.488-.11c.812 0 1.634.086 2.378.249 2.406.528 3.785 1.989 3.69 3.91-.111 2.229-1.779 2.924-3.888 3.802-2.816 1.18-4.207 3.077-4.253 5.799-.076 4.51 2.556 7.814 7.039 8.837A9 9 0 0 0 0-.85" style="fill:#fff;fill-opacity:1;fill-rule:nonzero;stroke:none" transform="translate(216.567 299.864)"></path><path d="m0 0-.021-.295c-.07-.955-.136-2.323-.198-3.601C-.268-4.9-.314-5.849-.357-6.495l-.333-5.793.578.167c1.201.348 1.802.524 3.005.887l.378.114s-.773 3.459-1.152 5.172c-.143.653-.341 1.583-.545 2.549C1.331-2.255 1.078-1.061.89-.213l-.1.449zm-5.929-22.689c.78 5.611 1.249 9.891 1.744 14.412.401 3.652.814 7.428 1.418 12.125 2.4.688 3.721 1.085 6.085 1.83C4.694.212 5.842-3.817 7.055-8.077a604 604 0 0 0 2.774-9.97 217 217 0 0 0-4.702-1.49c-.401 1.62-.646 2.578-1.103 4.364l-.109.43-.425-.129a237 237 0 0 0-4.004-1.181l-.283-.081-.024-.293c-.165-2.032-.257-3.09-.441-4.99-1.83-.516-2.913-.811-4.667-1.272" style="fill:#fff;fill-opacity:1;fill-rule:nonzero;stroke:none" transform="translate(230.075 298.435)"></path><path d="M0 0c.122 2.07.18 3.11.298 5.19.097 1.466.211 4.493.335 6.196l.072.022c.347-1.565.917-4.31 1.23-5.735.424-1.92.639-2.88 1.066-4.788A231 231 0 0 0 0 0m3.851 17.932a214 214 0 0 0-6.773-2.04C-4.325 5.029-4.708-.893-6.208-11.549c2.237.585 3.351.887 5.572 1.515.203 2.089.295 3.149.469 5.285 1.606.46 2.407.697 4.01 1.183.496-1.939.741-2.9 1.209-4.796 2.212.675 3.315 1.024 5.522 1.748C8.032 2.922 6.3 8.153 3.851 17.932M-.919-1.15l1.155.333c1.204.348 1.806.525 3.01.888l.757.228-.172.772-.158.705c-.329 1.47-.54 2.413-.908 4.079a375 375 0 0 0-.547 2.557c-.243 1.142-.495 2.333-.683 3.179l-.197.889-.873-.257-.074-.022-.564-.167-.042-.587c-.07-.963-.135-2.311-.199-3.616-.048-.999-.094-1.943-.137-2.593l-.075-1.327C-.7 2.61-.755 1.63-.849.05zm4.166 18c1.328-5.251 2.448-9.181 3.629-13.329C7.709.597 8.569-2.42 9.545-6.056c-1.45-.473-2.439-.787-3.883-1.231-.341 1.371-.58 2.31-.995 3.931l-.22.86-.85-.257C1.999-3.237 1.2-3.473-.401-3.932l-.565-.162-.048-.586a284 284 0 0 0-.412-4.694 225 225 0 0 0-3.764-1.029c.729 5.309 1.182 9.438 1.658 13.791.393 3.579.798 7.275 1.382 11.841 2.087.6 3.369.984 5.397 1.621" style="fill:#fff;fill-opacity:1;fill-rule:nonzero;stroke:none" transform="translate(229.844 286.722)"></path><path d="M0 0c-.325 4.442-.691 8.015-1.045 11.475-.434 4.227-.843 8.224-1.184 13.666 1.896.673 3.008 1.079 4.847 1.772.316-5.199.691-8.784 1.123-12.911.238-2.273.49-4.686.755-7.591l.05-.554.521.194c2.273.848 3.469 1.308 5.58 2.149.141-1.542.221-2.505.331-4.097C6.621 2.368 4.312 1.504 0 0" style="fill:#fff;fill-opacity:1;fill-rule:nonzero;stroke:none" transform="translate(245.438 282.259)"></path><path d="M0 0a245 245 0 0 0-5.682-2.08c.643-10.446 1.566-15.868 2.29-26.019 4.708 1.638 7.061 2.515 11.807 4.407-.135 1.983-.22 2.98-.405 4.983a237 237 0 0 0-6.099-2.356C1.155-12.759.496-8.47 0 0m-.778-1.202C-.47-6.104-.106-9.578.31-13.556c.241-2.303.49-4.684.754-7.586l.101-1.108 1.043.389c2.078.775 3.257 1.226 5.059 1.941.105-1.171.173-2.016.257-3.212-3.994-1.588-6.269-2.441-10.149-3.799-.315 4.193-.666 7.615-1.006 10.932-.424 4.14-.826 8.06-1.162 13.332 1.543.549 2.567.923 4.015 1.465" style="fill:#fff;fill-opacity:1;fill-rule:nonzero;stroke:none" transform="translate(248.446 309.773)"></path><path d="M0 0c-2.746 0-4.229 2.42-4.811 7.846l-.342 3.144c-.459 4.178-.793 7.22-1.071 12.2 1.916.807 3.032 1.288 4.867 2.101.286-4.965.644-8.033 1.133-12.217.142-1.221.295-2.53.459-4.001.112-1 .452-4.046 2.244-4.046.245 0 .505.061.771.181 1.569.706 2.099 2.467 1.719 5.71-.172 1.465-.332 2.769-.481 3.986-.522 4.249-.902 7.341-1.199 12.485 1.911.881 3.022 1.404 4.841 2.284.319-4.87.722-7.858 1.269-11.929.13-.965.268-1.994.416-3.126C10.679 8.013 8.393 3.132 3.378.875 2.088.294.952 0 0 0" style="fill:#fff;fill-opacity:1;fill-rule:nonzero;stroke:none" transform="translate(265.298 290.372)"></path><path d="M0 0a260 260 0 0 0-5.666-2.678c.386-6.85.925-10.178 1.699-16.784.425-3.632-.381-4.783-1.471-5.273a1.45 1.45 0 0 0-.597-.143c-.813 0-1.514.912-1.821 3.668-.739 6.625-1.251 9.97-1.625 16.807a258 258 0 0 0-5.697-2.462c.345-6.335.768-9.471 1.431-15.666.536-5.006 1.912-8.225 5.233-8.225.998 0 2.173.291 3.553.912 5.402 2.432 7.544 7.602 6.684 14.186C.919-9.508.398-6.416 0 0m-.766-1.314c.314-4.517.705-7.424 1.23-11.325.13-.965.268-1.995.416-3.129.592-4.53-.001-10.515-6.191-13.301-1.234-.555-2.312-.837-3.203-.837-1.671 0-3.679.848-4.387 7.466-.122 1.135-.236 2.168-.342 3.136-.449 4.091-.779 7.091-1.053 11.888 1.567.661 2.597 1.104 4.037 1.739.28-4.621.63-7.611 1.098-11.626.143-1.221.296-2.53.46-4.002.122-1.094.493-4.424 2.666-4.424q.461 0 .946.219c1.765.794 2.371 2.69 1.966 6.147a673 673 0 0 1-.482 3.993c-.511 4.159-.885 7.207-1.179 12.163 1.568.724 2.594 1.206 4.018 1.893" style="fill:#fff;fill-opacity:1;fill-rule:nonzero;stroke:none" transform="translate(273.811 320.703)"></path><path d="M0 0c.088 1.709.121 2.772.153 4.557 1.228.082 2.961.623 4.437 1.397 2.235 1.171 3.407 2.818 3.135 4.409-.33 1.933-1.925 2.021-4.339 2.156-3.302.192-5.082 1.618-5.441 4.358-.599 4.577 2.208 9.278 7.151 11.977 1.34.731 2.616 1.107 3.418 1.188a124 124 0 0 1-.033-4.693c-.978-.033-2.029-.35-3.125-.944-1.876-1.017-2.942-2.654-2.717-4.171.22-1.488 1.23-1.959 4.324-2.016 3.251-.06 5.181-1.452 5.736-4.137.905-4.386-2.35-9.482-7.916-12.394C2.897.701 1.063.126 0 0" style="fill:#fff;fill-opacity:1;fill-rule:nonzero;stroke:none" transform="translate(282.125 298.524)"></path><path d="M0 0c-.84 0-2.368-.407-3.926-1.257-5.572-3.042-7.927-8.133-7.368-12.405.252-1.923 1.292-4.463 5.838-4.728 2.46-.136 3.679-.247 3.944-1.803.216-1.259-.656-2.779-2.913-3.961-1.472-.771-3.348-1.358-4.55-1.358l-.108.001a123 123 0 0 0-.184-5.424l.049-.001c1.001 0 3.122.581 5.38 1.762 5.619 2.94 9.092 8.223 8.135 12.857-.52 2.517-2.318 4.405-6.144 4.476-3.129.058-3.748.545-3.912 1.653-.176 1.186.601 2.706 2.5 3.735 1.274.691 2.306.895 3.088.895q.137 0 .263-.007C.073-3.366.073-2.258.132-.004A2 2 0 0 1 0 0m-.741-.94c-.03-1.435-.033-2.427-.023-3.8-.924-.097-1.897-.422-2.901-.966-2.034-1.103-3.186-2.911-2.935-4.606.288-1.942 1.822-2.325 4.738-2.379 3.025-.056 4.817-1.334 5.326-3.799.868-4.2-2.297-9.106-7.696-11.931-1.687-.882-3.161-1.359-4.135-1.555.064 1.309.093 2.278.12 3.664 1.245.16 2.842.685 4.217 1.405 2.406 1.261 3.66 3.076 3.356 4.857-.387 2.268-2.305 2.374-4.732 2.509-4.086.238-4.836 2.391-5.045 3.989-.576 4.402 2.145 8.935 6.932 11.549 1.037.566 2.041.911 2.778 1.063" style="fill:#fff;fill-opacity:1;fill-rule:nonzero;stroke:none" transform="translate(290.943 329.008)"></path><path d="M0 0a531 531 0 0 0-5.623 2.833c1.197 10.16 2.013 14.723 3.735 24.21a442 442 0 0 0 11.763-5.189 774 774 0 0 1-.708-4.167 862 862 0 0 1-5.572 2.542l-.5.226-.094-.54c-.376-2.17-.56-3.253-.916-5.435l-.052-.317 5.749-2.68a373 373 0 0 1-.61-3.98c-1.925.911-3.071 1.455-5.241 2.49l-.517.246-.086-.567A278 278 0 0 1 0 0" style="fill:#fff;fill-opacity:1;fill-rule:nonzero;stroke:none" transform="translate(18.857 301.205)"></path><path d="M0 0c-1.792-9.871-2.633-14.518-3.868-25.054a535 535 0 0 1 6.429-3.236c.506 4.206.79 6.238 1.398 10.257a1639 1639 0 0 1 5.761-2.735c.288 1.955.437 2.925.743 4.859-2.243 1.046-3.389 1.582-5.747 2.679.355 2.18.539 3.262.915 5.43a917 917 0 0 0 6.075-2.773c.336 2.014.508 3.019.856 5.036C7.856-3.396 5.379-2.286 0 0m.646-1.199a431 431 0 0 0 10.966-4.84c-.215-1.252-.365-2.13-.561-3.297-1.753.805-2.947 1.35-5.069 2.31l-1.001.453-.187-1.082a447 447 0 0 1-.917-5.438l-.104-.636.584-.271c1.943-.904 3.063-1.427 4.651-2.168l.516-.241a327 327 0 0 1-.477-3.101c-1.629.771-2.754 1.307-4.722 2.244l-1.034.493-.172-1.133c-.544-3.596-.831-5.613-1.257-9.088-1.69.842-2.882 1.443-4.816 2.429C-1.8-14.809-.992-10.232.646-1.199" style="fill:#312782;fill-opacity:1;fill-rule:nonzero;stroke:none" transform="translate(16.646 328.847)"></path><path d="M0 0c-.663.062-1.769.33-3.177.937-6.795 2.922-8.911 10.611-7.994 16.935.858 5.922 3.701 9.318 7.797 9.318 1.182 0 2.44-.295 3.64-.854 1.452-.676 2.364-1.424 2.77-1.859a965 965 0 0 0-1.127-3.69 6 6 0 0 1-1.521.985c-.621.284-1.228.428-1.805.428-1.375 0-3.799-.871-4.57-6.708-.684-5.182.803-8.973 4.081-10.4.592-.258 1.326-.46 1.906-.575C-.01 2.777-.011 1.74 0 0" style="fill:#fff;fill-opacity:1;fill-rule:nonzero;stroke:none" transform="translate(43.396 290.046)"></path><path d="M0 0c-3.674 0-7.196-2.634-8.218-9.683-.97-6.691 1.333-14.413 8.246-17.386 1.592-.685 2.907-.985 3.623-.985q.081 0 .15.005a348 348 0 0 0 0 5.307c-.581.087-1.486.313-2.164.609-2.786 1.212-4.544 4.54-3.829 9.954C-1.594-7.657.034-5.84 1.957-5.84c.525 0 1.073-.136 1.627-.389.884-.404 1.428-.893 1.9-1.388.564 1.834.845 2.749 1.4 4.578-.39.501-1.425 1.381-3.065 2.145C2.595-.323 1.288 0 0 0m0-.85c1.12 0 2.316-.281 3.46-.815 1.223-.569 2.035-1.179 2.47-1.592-.334-1.1-.573-1.879-.87-2.849a6.6 6.6 0 0 1-1.122.649c-.677.31-1.344.467-1.981.467-1.516 0-4.178-.92-4.992-7.078-.711-5.384.868-9.337 4.332-10.845a10 10 0 0 1 1.65-.528 283 283 0 0 1-.001-3.683c-.627.119-1.514.376-2.582.835-6.588 2.834-8.635 10.321-7.741 16.484C-6.54-4.03-3.92-.85 0-.85" style="fill:#312782;fill-opacity:1;fill-rule:nonzero;stroke:none" transform="translate(40.022 317.662)"></path><path d="M0 0c-4.142 1.301-6.359 2.051-10.494 3.55.382 8.502.773 13.592 1.311 20.605l.327 4.272a183 183 0 0 1 4.148-1.705l-.272-4.972c-.277-5.028-.497-8.999-.737-15.35l-.012-.313.296-.104c2.221-.78 3.358-1.165 5.494-1.858A377 377 0 0 1 0 0" style="fill:#fff;fill-opacity:1;fill-rule:nonzero;stroke:none" transform="translate(66.907 281.252)"></path><path d="M0 0c-.765-10.156-1.229-15.282-1.697-25.792 4.517-1.64 6.764-2.398 11.352-3.834.018 2.005.033 3.007.072 5.008a210 210 0 0 0-5.784 1.953c.316 8.349.59 12.478 1.025 20.62A191 191 0 0 0 0 0m.758-1.244c1.141-.481 2.023-.843 3.328-1.365-.091-1.709-.176-3.243-.255-4.682-.278-5.025-.498-8.994-.737-15.342l-.024-.626.592-.208a202 202 0 0 1 5.203-1.764 406 406 0 0 1-.049-3.241A210 210 0 0 0-.82-25.206c.377 8.304.765 13.35 1.296 20.269z" style="fill:#312782;fill-opacity:1;fill-rule:nonzero;stroke:none" transform="translate(57.672 310.302)"></path><path d="M0 0c-4.502 1.128-6.837 1.761-11.096 3.008-.024 6.94.071 11.62.18 17.026.046 2.283.096 4.715.141 7.524 3.646-1.202 5.807-1.848 10.133-2.95.018-1.594.026-2.561.035-4.115a144 144 0 0 0-5.108 1.391l-.541.157-.025-5.621.31-.088c2.046-.584 3.113-.874 5.127-1.391l.02-3.96c-1.873.481-2.941.77-4.933 1.332l-.539.152-.001-.56c-.004-2.302-.005-3.456.008-5.76l.001-.321.31-.086c2.352-.653 3.571-.976 5.903-1.565C-.053 2.542-.036 1.562 0 0" style="fill:#fff;fill-opacity:1;fill-rule:nonzero;stroke:none" transform="translate(83.614 276.541)"></path><path d="M0 0c-.155-10.017-.368-15.206-.328-25.454 4.659-1.366 7.027-2.005 11.957-3.236a421 421 0 0 0-.092 5.052c-2.532.638-3.77.966-6.21 1.642a650 650 0 0 0-.008 5.757c2.151-.607 3.243-.901 5.476-1.471-.012 1.938-.015 2.907-.024 4.839a167 167 0 0 0-5.434 1.468c.009 1.9.014 2.848.021 4.736 2.209-.637 3.336-.943 5.655-1.531-.012 2.009-.019 3.01-.042 4.994C6.351-2.031 4.192-1.388 0 0m.832-1.169c3.248-1.063 5.382-1.695 9.296-2.697.014-1.218.02-2.085.028-3.236-1.622.417-2.7.715-4.562 1.251l-1.081.312-.004-1.125-.014-3.065-.008-1.67-.003-.644.62-.177c1.952-.557 3.015-.847 4.82-1.311l.015-3.082c-1.558.403-2.6.687-4.389 1.192l-1.078.304-.003-1.12c-.004-2.304-.004-3.458.008-5.763l.003-.643.62-.171a216 216 0 0 1 5.596-1.488c.017-1.251.033-2.132.058-3.293A240 240 0 0 0 .52-24.816c-.02 6.763.073 11.379.181 16.7.043 2.126.088 4.379.131 6.947" style="fill:#312782;fill-opacity:1;fill-rule:nonzero;stroke:none" transform="translate(72.423 304.685)"></path><path d="M0 0c-1.257 0-3.173.119-4.779.453-3.358.697-5.795 1.996-7.671 4.088-2.349 2.565-3.67 6.545-3.628 10.921.083 8.617 5.115 10.426 9.323 10.426.834 0 1.725-.072 2.647-.213 2.175-.334 3.918-.901 4.937-1.368l-.987-4.079c-.871.409-1.931.715-3.159.913-.565.091-1.1.137-1.592.137-1.536 0-2.766-.453-3.654-1.347-1.25-1.258-1.849-3.358-1.829-6.42.038-5.819 2.696-8.414 4.961-8.869a3.5 3.5 0 0 1 .667-.089q.11 0 .213.015l.362.056-.002.367a765 765 0 0 0-.014 5.255v.352s-1.488.282-2.116.404l-.012 3.973c2.852-.531 4.51-.813 7.634-1.303l-.044-2.984c-.054-3.705-.095-6.411-.106-10.65A15 15 0 0 0 0 0" style="fill:#fff;fill-opacity:1;fill-rule:nonzero;stroke:none" transform="translate(104.817 272.121)"></path><path d="M0 0c-5.585 0-9.673-3.072-9.748-10.847-.041-4.266 1.183-8.418 3.737-11.209 1.815-2.023 4.279-3.467 7.901-4.22 1.541-.32 3.424-.461 4.865-.461.633 0 1.18.027 1.576.078.012 5.661.075 8.595.155 14.381-3.535.553-5.217.84-8.489 1.452.005-1.932.006-2.901.014-4.834.838-.164 1.261-.245 2.114-.406.001-2.11.002-3.163.014-5.258a1 1 0 0 0-.148-.011c-.181 0-.382.041-.583.081-2.229.448-4.584 3.031-4.619 8.455-.035 5.344 1.877 7.34 5.058 7.34q.72-.002 1.524-.132c1.391-.224 2.587-.596 3.513-1.119.477 1.983.717 2.973 1.194 4.937-.998.512-2.894 1.176-5.367 1.555Q1.308-.002 0 0m0-.85c.813 0 1.683-.07 2.583-.208 1.919-.294 3.488-.771 4.504-1.194l-.785-3.242c-.807.324-1.743.573-2.797.743a10.6 10.6 0 0 1-1.658.142c-1.654 0-2.985-.495-3.956-1.473-1.334-1.342-1.973-3.542-1.952-6.722.039-6.073 2.88-8.797 5.302-9.283a3.8 3.8 0 0 1 .75-.098q.144 0 .278.021l.724.112-.004.733a833 833 0 0 0-.014 5.253v.704l-.692.131c-.587.11-.97.183-1.425.272L.85-12.143l-.001.294a227 227 0 0 1 6.777-1.154l-.038-2.61c-.053-3.59-.093-6.243-.105-10.26a18 18 0 0 0-.728-.014c-1.235 0-3.117.116-4.692.444-3.265.678-5.629 1.935-7.447 3.962-2.274 2.483-3.555 6.356-3.514 10.626C-8.834-4.31-5.758-.85 0-.85" style="fill:#312782;fill-opacity:1;fill-rule:nonzero;stroke:none" transform="translate(98.062 298.433)"></path><path d="M0 0c-1.861.15-2.928.249-4.796.442-1.355 3.513-2.057 5.434-3.361 9.02-.798 2.177-1.938 5.838-2.364 7.82l-.063.295-.795.099-.06-.488c.07-1.981.232-6.623.172-11.948a628 628 0 0 1-.035-4.026c-1.704.229-2.712.376-4.408.647.018 5.003.085 8.97.15 12.808.065 3.812.132 7.749.151 12.703 0 0 2.968-.386 4.786-.617 1.371-3.659 2.102-5.709 3.406-9.367l.11-.309c.611-1.704 1.815-5.229 2.46-7.392l.081-.27.778-.085.05.492-.037.659c-.145 2.522-.414 7.218-.362 11.717.017 1.534.026 2.373.034 3.749 1.69-.201 2.718-.319 4.432-.505-.032-4.965-.1-8.923-.165-12.755C.099 8.875.032 4.934 0 0" style="fill:#fff;fill-opacity:1;fill-rule:nonzero;stroke:none" transform="translate(128.47 268.537)"></path><path d="M0 0c-.033-10.357-.272-16-.305-26.356 2.1-.337 3.152-.491 5.258-.77.008 1.787.017 2.69.037 4.505.059 5.165-.091 9.661-.172 11.969l.078-.011c.437-2.037 1.59-5.721 2.379-7.876 1.368-3.76 2.054-5.634 3.458-9.27 2.206-.23 3.31-.331 5.521-.506.061 10.294.273 15.99.334 26.285-2.112.228-3.169.35-5.281.602a552 552 0 0 0-.037-4.222c-.057-4.958.278-10.218.4-12.405l-.078.008c-.633 2.125-1.828 5.634-2.467 7.413C7.699-6.633 6.986-4.628 5.517-.711 3.311-.431 2.207-.287 0 0m.846-.967c1.468-.191 2.49-.324 4.055-.523 1.308-3.496 2.032-5.526 3.302-9.087l.123-.345c.608-1.694 1.808-5.207 2.451-7.368l.182-.543.562-.061.06-.007.994-.104-.056.997-.037.646c-.145 2.519-.414 7.209-.362 11.702.016 1.35.024 2.162.031 3.276a339 339 0 0 1 3.582-.408c-.032-4.782-.098-8.633-.162-12.363-.063-3.698-.128-7.515-.161-12.24a177 177 0 0 0-4.071.377c-1.289 3.348-1.989 5.264-3.266 8.771-.792 2.163-1.924 5.798-2.346 7.763l-.205.597-.595.077-.994.129.035-1.001c.07-1.975.233-6.6.172-11.929a617 617 0 0 1-.032-3.544c-1.31.177-2.233.313-3.56.523.02 4.831.086 8.698.15 12.443C.76-9.502.825-5.697.846-.967" style="fill:#312782;fill-opacity:1;fill-rule:nonzero;stroke:none" transform="translate(112.637 296.392)"></path><path d="M0 0c-.149-.818-.334-1.973-.514-3.092C-.685-4.155-.85-5.186-.973-5.86l-.935-5.411.481-.021a204 204 0 0 1 3.224-.129l.496-.017-.663 5.472-.188 1.607c-.169 1.45-.371 3.193-.525 4.335L.87.327.145.361Zm8.449-20.251c-1.917.001-3.07.011-5.03.045a451 451 0 0 0-.768 4.688l-.055.349-.353.009a226 226 0 0 0-4.277.149l-.367.015-.947-5.021c-1.953.076-3.103.131-5.017.246 1.289 5.638 2.27 9.88 3.301 14.34.737 3.186 1.499 6.484 2.418 10.479 2.531-.187 3.984-.277 6.66-.389A872 872 0 0 0 6.096-7.095c.712-4.141 1.386-8.061 2.353-13.156" style="fill:#fff;fill-opacity:1;fill-rule:nonzero;stroke:none" transform="translate(142.336 287.924)"></path><path d="M0 0a216 216 0 0 0-3.219.128l.852 4.932c.254 1.385.683 4.266.973 5.86l.079-.004c.218-1.621.535-4.457.712-5.937C-.362 2.986-.243 1.986 0 0m-4.791 16.496C-7.082 6.525-8.397.922-10.702-9.169c2.355-.143 3.534-.2 5.892-.29.373 1.985.563 2.993.946 5.02A227 227 0 0 1 .42-4.588c.326-2.04.491-3.053.828-5.04 2.36-.042 3.542-.052 5.903-.052C5.249.298 4.437 5.958 2.558 16.066c-2.939.121-4.409.21-7.349.43M.964-.883l-.12.986-.455 3.749-.148 1.229c-.052.429-.115.974-.184 1.57-.167 1.435-.374 3.222-.53 4.378l-.094.7-.705.036-.077.004-.747.039-.134-.735c-.15-.824-.335-1.982-.515-3.101-.17-1.059-.335-2.087-.459-2.767l-.479-2.769-.373-2.163-.164-.949.962-.045C-1.966-.78-1.32-.806-.029-.85zm-5.089 16.477c2.213-.162 3.628-.249 5.971-.349.81-4.383 1.424-7.952 2.019-11.41.689-4.007 1.343-7.806 2.26-12.664-1.545.002-2.603.013-4.157.038a446 446 0 0 0-.709 4.337l-.111.697-.705.019c-1.709.046-2.563.075-4.271.148l-.734.031-.137-.723c-.334-1.766-.521-2.759-.81-4.3-1.597.064-2.653.115-4.141.202 1.243 5.435 2.202 9.581 3.211 13.945.708 3.062 1.44 6.232 2.314 10.029" style="fill:#312782;fill-opacity:1;fill-rule:nonzero;stroke:none" transform="translate(144.147 276.927)"></path><path d="M0 0c-2.753 0-4.873.715-6.479 2.186-2.231 1.988-3.439 5.659-3.319 10.075.211 7.728 4.48 12.638 11.42 13.135q.634.044 1.197.043c1.381 0 2.302-.18 2.812-.321l-.821-4.284c-.561.159-1.211.24-1.941.24q-.372 0-.771-.028c-4.227-.288-6.392-3.379-6.435-9.185-.03-3.897 1.049-5.808 1.959-6.725.719-.724 1.595-1.107 2.534-1.107l.143.003c.257.011.549.023.819.14l.255.11.03 5.99s-1.42-.07-1.923-.093l.026 4.019c2.552.125 4 .217 6.59.42l-.012-2.999C6.068 7.95 6.057 5.23 6.057 1.053 4.811.594 2.428.081.647.013Q.317 0 0 0" style="fill:#fff;fill-opacity:1;fill-rule:nonzero;stroke:none" transform="translate(164.61 267.7)"></path><path d="M0 0q-.578 0-1.229-.045c-6.012-.43-11.564-4.396-11.813-13.547-.119-4.345 1.026-8.235 3.456-10.4 1.608-1.473 3.77-2.298 6.766-2.298q.325 0 .663.013c2.046.079 4.679.696 5.819 1.175 0 5.565.019 8.53.041 14.315a201 201 0 0 0-7.439-.475l-.031-4.867c.769.033 1.153.051 1.922.089-.012-2.118-.017-3.175-.026-5.263-.196-.085-.432-.095-.668-.105q-.062-.002-.125-.002c-2.006 0-4.108 2.041-4.068 7.403.045 6.206 2.482 8.522 6.039 8.765q.384.026.741.026c.889 0 1.651-.123 2.267-.376.397 2.075.594 3.108.985 5.136C2.646-.217 1.519 0 0 0m0-.85c1.041 0 1.804-.105 2.317-.213-.244-1.271-.419-2.181-.661-3.451a8 8 0 0 1-1.608.148q-.385 0-.799-.028C-5.239-4.701-7.538-7.933-7.583-14c-.03-4.044 1.117-6.054 2.084-7.028.8-.806 1.78-1.232 2.835-1.232q.08 0 .161.003c.28.012.628.027.969.174l.512.22.001.557c.008 2.087.014 3.144.026 5.262l.005.898-.898-.044-1.024-.051.013 1.888.007 1.281c2.159.108 3.551.197 5.742.366l-.011-2.424c-.015-3.637-.026-6.328-.027-10.379-1.173-.386-3.26-.851-5.001-.919a17 17 0 0 0-.63-.012c-2.643 0-4.669.679-6.202 2.083-2.132 1.9-3.289 5.451-3.172 9.742.204 7.487 4.325 12.243 11.025 12.722.397.028.79.043 1.168.043" style="fill:#312782;fill-opacity:1;fill-rule:nonzero;stroke:none" transform="translate(167.43 293.565)"></path><path d="M0 0q-.121 0-.247-.018c-1.947-.266-2.98-3.41-2.986-9.091-.006-4.258.504-6.841 1.558-7.896.378-.379.826-.571 1.331-.571q.117 0 .237.014c1.881.217 2.797 3.283 2.799 9.371.001 2.433-.172 4.339-.514 5.666C1.747-.85 1.014 0 0 0m-1.297-21.954c-1.712 0-3.159.581-4.301 1.726-2.698 2.706-3.088 7.759-3.081 10.531.016 5.894 2.315 13.106 8.74 14.03.414.06.818.09 1.201.09 6.185 0 6.855-7.958 6.856-11.379.003-9.174-2.94-14.342-8.51-14.947a8 8 0 0 0-.905-.051" style="fill:#fff;fill-opacity:1;fill-rule:nonzero;stroke:none" transform="translate(184.85 290.918)"></path><path d="M0 0c-1.429 0-2.472 1.993-2.465 8.042.007 5.873 1.138 8.467 2.62 8.67q.096.015.189.014c1.687 0 2.268-3.294 2.267-7.766C2.609 3.447 1.83.201.187.011A2 2 0 0 0 0 0m1.606 22q-.599 0-1.262-.095c-6.353-.914-9.086-7.886-9.104-14.45-.017-6.24 1.903-12.683 7.807-12.683q.459 0 .951.053c5.319.578 8.892 5.125 8.889 15.37C8.885 15.019 7.647 22 1.606 22M0-.85q.141 0 .285.017c2.165.25 3.173 3.361 3.176 9.792 0 2.469-.177 4.412-.527 5.773-.487 1.887-1.358 2.844-2.59 2.844q-.149 0-.305-.021c-2.218-.305-3.347-3.505-3.354-9.513C-3.32 3.605-2.786 1-1.631-.155A2.27 2.27 0 0 1 0-.85m1.607 21.999c5.8 0 6.429-7.661 6.43-10.955C8.039 3.971 6.629-3.6-.094-4.33a8 8 0 0 0-.859-.048c-1.617 0-2.926.524-4 1.601-1.92 1.925-2.969 5.558-2.957 10.23.015 5.725 2.218 12.725 8.375 13.611a8 8 0 0 0 1.142.085" style="fill:#312782;fill-opacity:1;fill-rule:nonzero;stroke:none" transform="translate(184.507 273.767)"></path><path d="M0 0c-.601 0-1.145.046-1.554.129.224 1.712.355 2.756.562 4.48.647-.154 1.341-.192 1.856-.192.782 0 1.572.083 2.286.24 2.186.48 3.441 1.779 3.357 3.474-.098 1.961-1.503 2.546-3.629 3.432-2.986 1.251-4.462 3.274-4.512 6.183-.08 4.726 2.675 8.187 7.37 9.258.674.154 1.39.235 2.071.235a6.2 6.2 0 0 0 1.305-.122 681 681 0 0 1-.407-4.428 5.3 5.3 0 0 1-1.404.181c-.476 0-.974-.058-1.481-.173-1.857-.421-3.015-1.715-2.951-3.297.059-1.463.914-2.22 3.659-3.244 2.923-1.089 4.504-3.13 4.699-6.067.316-4.756-2.868-8.579-8.112-9.738A14.6 14.6 0 0 0 0 0" style="fill:#fff;fill-opacity:1;fill-rule:nonzero;stroke:none" transform="translate(207.76 273.2)"></path><path d="M0 0c-.66 0-1.409-.073-2.166-.246-5.423-1.237-7.774-5.284-7.7-9.679.034-1.98.692-4.857 4.774-6.569 2.21-.92 3.286-1.422 3.368-3.06.066-1.327-.852-2.561-3.023-3.038a10.5 10.5 0 0 0-2.196-.229c-.837 0-1.633.101-2.217.318a384 384 0 0 0-.671-5.349c.446-.147 1.159-.237 2.024-.237.938 0 2.057.106 3.207.36 5.414 1.197 8.773 5.246 8.444 10.183-.178 2.681-1.531 5.153-4.974 6.437-2.821 1.051-3.337 1.725-3.383 2.862-.049 1.217.784 2.45 2.62 2.866.507.114.969.162 1.388.162.72 0 1.312-.141 1.778-.328.192 2.144.288 3.21.49 5.312C1.36-.09.735 0 0 0m0-.85c.302 0 .591-.018.845-.049a646 646 0 0 1-.327-3.557 6 6 0 0 1-1.023.087 7 7 0 0 1-1.576-.184c-2.066-.468-3.355-1.931-3.282-3.728.075-1.852 1.384-2.674 3.936-3.625 2.752-1.025 4.24-2.942 4.423-5.697.302-4.535-2.751-8.184-7.779-9.296a14.2 14.2 0 0 0-3.024-.34c-.392 0-.762.021-1.078.059a341 341 0 0 1 .454 3.619 9.6 9.6 0 0 1 1.488-.11c.812 0 1.634.086 2.378.249 2.406.528 3.785 1.989 3.69 3.91-.111 2.229-1.779 2.924-3.888 3.802-2.816 1.18-4.207 3.077-4.253 5.799-.076 4.51 2.556 7.814 7.039 8.837A9 9 0 0 0 0-.85" style="fill:#312782;fill-opacity:1;fill-rule:nonzero;stroke:none" transform="translate(215.567 300.864)"></path><path d="m0 0-.021-.295c-.07-.955-.136-2.323-.198-3.601C-.268-4.9-.314-5.849-.357-6.495l-.333-5.793.578.167c1.201.348 1.802.524 3.005.887l.378.114s-.773 3.459-1.152 5.172c-.143.653-.341 1.583-.545 2.549C1.331-2.255 1.078-1.061.89-.213l-.1.449zm-5.929-22.689c.78 5.611 1.249 9.891 1.744 14.412.401 3.652.814 7.428 1.418 12.125 2.4.688 3.721 1.085 6.085 1.83C4.694.212 5.842-3.817 7.055-8.077a604 604 0 0 0 2.774-9.97 217 217 0 0 0-4.702-1.49c-.401 1.62-.646 2.578-1.103 4.364l-.109.43-.425-.129a237 237 0 0 0-4.004-1.181l-.283-.081-.024-.293c-.165-2.032-.257-3.09-.441-4.99-1.83-.516-2.913-.811-4.667-1.272" style="fill:#fff;fill-opacity:1;fill-rule:nonzero;stroke:none" transform="translate(229.075 299.435)"></path><path d="M0 0c.122 2.07.18 3.11.298 5.19.097 1.466.211 4.493.335 6.196l.072.022c.347-1.565.917-4.31 1.23-5.735.424-1.92.639-2.88 1.066-4.788A231 231 0 0 0 0 0m3.851 17.932a214 214 0 0 0-6.773-2.04C-4.325 5.029-4.708-.893-6.208-11.549c2.237.585 3.351.887 5.572 1.515.203 2.089.295 3.149.469 5.285 1.606.46 2.407.697 4.01 1.183.496-1.939.741-2.9 1.209-4.796 2.212.675 3.315 1.024 5.522 1.748C8.032 2.922 6.3 8.153 3.851 17.932M-.919-1.15l1.155.333c1.204.348 1.806.525 3.01.888l.757.228-.172.772-.158.705c-.329 1.47-.54 2.413-.908 4.079a375 375 0 0 0-.547 2.557c-.243 1.142-.495 2.333-.683 3.179l-.197.889-.873-.257-.074-.022-.564-.167-.042-.587c-.07-.963-.135-2.311-.199-3.616-.048-.999-.094-1.943-.137-2.593l-.075-1.327C-.7 2.61-.755 1.63-.849.05zm4.166 18c1.328-5.251 2.448-9.181 3.629-13.329C7.709.597 8.569-2.42 9.545-6.056c-1.45-.473-2.439-.787-3.883-1.231-.341 1.371-.58 2.31-.995 3.931l-.22.86-.85-.257C1.999-3.237 1.2-3.473-.401-3.932l-.565-.162-.048-.586a284 284 0 0 0-.412-4.694 225 225 0 0 0-3.764-1.029c.729 5.309 1.182 9.438 1.658 13.791.393 3.579.798 7.275 1.382 11.841 2.087.6 3.369.984 5.397 1.621" style="fill:#312782;fill-opacity:1;fill-rule:nonzero;stroke:none" transform="translate(228.844 287.722)"></path><path d="M0 0c-.325 4.442-.691 8.015-1.045 11.475-.434 4.227-.843 8.224-1.184 13.666 1.896.673 3.008 1.079 4.847 1.772.316-5.199.691-8.784 1.123-12.911.238-2.273.49-4.686.755-7.591l.05-.554.521.194c2.273.848 3.469 1.308 5.58 2.149.141-1.542.221-2.505.331-4.097C6.621 2.368 4.312 1.504 0 0" style="fill:#fff;fill-opacity:1;fill-rule:nonzero;stroke:none" transform="translate(244.438 283.259)"></path><path d="M0 0a245 245 0 0 0-5.682-2.08c.643-10.446 1.566-15.868 2.29-26.019 4.708 1.638 7.061 2.515 11.807 4.407-.135 1.983-.22 2.98-.405 4.983a237 237 0 0 0-6.099-2.356C1.155-12.759.496-8.47 0 0m-.778-1.202C-.47-6.104-.106-9.578.31-13.556c.241-2.303.49-4.684.754-7.586l.101-1.108 1.043.389c2.078.775 3.257 1.226 5.059 1.941.105-1.171.173-2.016.257-3.212-3.994-1.588-6.269-2.441-10.149-3.799-.315 4.193-.666 7.615-1.006 10.932-.424 4.14-.826 8.06-1.162 13.332 1.543.549 2.567.923 4.015 1.465" style="fill:#312782;fill-opacity:1;fill-rule:nonzero;stroke:none" transform="translate(247.446 310.773)"></path><path d="M0 0c-2.746 0-4.229 2.42-4.811 7.846l-.342 3.144c-.459 4.178-.793 7.22-1.071 12.2 1.916.807 3.032 1.288 4.867 2.101.286-4.965.644-8.033 1.133-12.217.142-1.221.295-2.53.459-4.001.112-1 .452-4.046 2.244-4.046.245 0 .505.061.771.181 1.569.706 2.099 2.467 1.719 5.71-.172 1.465-.332 2.769-.481 3.986-.522 4.249-.902 7.341-1.199 12.485 1.911.881 3.022 1.404 4.841 2.284.319-4.87.722-7.858 1.269-11.929.13-.965.268-1.994.416-3.126C10.679 8.013 8.393 3.132 3.378.875 2.088.294.952 0 0 0" style="fill:#fff;fill-opacity:1;fill-rule:nonzero;stroke:none" transform="translate(264.298 291.372)"></path><path d="M0 0a260 260 0 0 0-5.666-2.678c.386-6.85.925-10.178 1.699-16.784.425-3.632-.381-4.783-1.471-5.273a1.45 1.45 0 0 0-.597-.143c-.813 0-1.514.912-1.821 3.668-.739 6.625-1.251 9.97-1.625 16.807a258 258 0 0 0-5.697-2.462c.345-6.335.768-9.471 1.431-15.666.536-5.006 1.912-8.225 5.233-8.225.998 0 2.173.291 3.553.912 5.402 2.432 7.544 7.602 6.684 14.186C.919-9.508.398-6.416 0 0m-.766-1.314c.314-4.517.705-7.424 1.23-11.325.13-.965.268-1.995.416-3.129.592-4.53-.001-10.515-6.191-13.301-1.234-.555-2.312-.837-3.203-.837-1.671 0-3.679.848-4.387 7.466-.122 1.135-.236 2.168-.342 3.136-.449 4.091-.779 7.091-1.053 11.888 1.567.661 2.597 1.104 4.037 1.739.28-4.621.63-7.611 1.098-11.626.143-1.221.296-2.53.46-4.002.122-1.094.493-4.424 2.666-4.424q.461 0 .946.219c1.765.794 2.371 2.69 1.966 6.147a673 673 0 0 1-.482 3.993c-.511 4.159-.885 7.207-1.179 12.163 1.568.724 2.594 1.206 4.018 1.893" style="fill:#312782;fill-opacity:1;fill-rule:nonzero;stroke:none" transform="translate(272.811 321.703)"></path><path d="M0 0c.088 1.709.121 2.772.153 4.557 1.228.082 2.961.623 4.437 1.397 2.235 1.171 3.407 2.818 3.135 4.409-.33 1.933-1.925 2.021-4.339 2.156-3.302.192-5.082 1.618-5.441 4.358-.599 4.577 2.208 9.278 7.151 11.977 1.34.731 2.616 1.107 3.418 1.188a124 124 0 0 1-.033-4.693c-.978-.033-2.029-.35-3.125-.944-1.876-1.017-2.942-2.654-2.717-4.171.22-1.488 1.23-1.959 4.324-2.016 3.251-.06 5.181-1.452 5.736-4.137.905-4.386-2.35-9.482-7.916-12.394C2.897.701 1.063.126 0 0" style="fill:#fff;fill-opacity:1;fill-rule:nonzero;stroke:none" transform="translate(281.125 299.524)"></path><path d="M0 0c-.84 0-2.368-.407-3.926-1.257-5.572-3.042-7.927-8.133-7.368-12.405.252-1.923 1.292-4.463 5.838-4.728 2.46-.136 3.679-.247 3.944-1.803.216-1.259-.656-2.779-2.913-3.961-1.472-.771-3.348-1.358-4.55-1.358l-.108.001a123 123 0 0 0-.184-5.424l.049-.001c1.001 0 3.122.581 5.38 1.762 5.619 2.94 9.092 8.223 8.135 12.857-.52 2.517-2.318 4.405-6.144 4.476-3.129.058-3.748.545-3.912 1.653-.176 1.186.601 2.706 2.5 3.735 1.274.691 2.306.895 3.088.895q.137 0 .263-.007C.073-3.366.073-2.258.132-.004A2 2 0 0 1 0 0m-.741-.94c-.03-1.435-.033-2.427-.023-3.8-.924-.097-1.897-.422-2.901-.966-2.034-1.103-3.186-2.911-2.935-4.606.288-1.942 1.822-2.325 4.738-2.379 3.025-.056 4.817-1.334 5.326-3.799.868-4.2-2.297-9.106-7.696-11.931-1.687-.882-3.161-1.359-4.135-1.555.064 1.309.093 2.278.12 3.664 1.245.16 2.842.685 4.217 1.405 2.406 1.261 3.66 3.076 3.356 4.857-.387 2.268-2.305 2.374-4.732 2.509-4.086.238-4.836 2.391-5.045 3.989-.576 4.402 2.145 8.935 6.932 11.549 1.037.566 2.041.911 2.778 1.063" style="fill:#312782;fill-opacity:1;fill-rule:nonzero;stroke:none" transform="translate(289.943 330.008)"></path><path d="M0 0a751 751 0 0 0-67.746-10.833l-.4-.045q-4.782-.539-9.334-.994l-.484-.048a717 717 0 0 0-17.457-1.521l-.509-.038a688 688 0 0 0-7.596-.521l-.542-.034a637 637 0 0 0-6.899-.393l-.682-.035c-11.857-.601-21.1-.741-27.109-.741-5.177 0-7.958.102-7.958.102s-2.785-.102-7.958-.102c-6.003 0-15.233.14-27.073.739l-.756.039c-1.06.054-2.133.112-3.233.174l-.061.003c-1.152.066-2.331.137-3.527.211l-.619.039q-3.63.229-7.516.515l-.591.045q-3.931.293-8.105.653l-.596.052a719 719 0 0 0-8.679.809l-.548.055a747 747 0 0 0-9.739 1.039A751 751 0 0 0-293.432 0l-.056.328c-3.625 20.935-5.843 43.518-6.414 65.308-.958 36.542 2.557 70.63 10.45 101.333 1.755-.397 3.804-.994 6.502-1.781 8.236-2.401 22.022-6.421 49.273-10.904l.883-.145.1.888c3.735 33.214 20.023 52.808 33.029 63.396 15.327 12.477 34.625 19.633 52.949 19.633s37.622-7.156 52.948-19.633c13.006-10.588 29.294-30.182 33.03-63.396l.1-.888.882.145c27.252 4.483 41.037 8.503 49.274 10.904 2.698.787 4.746 1.384 6.502 1.781C3.912 136.266 7.428 102.178 6.47 65.636 5.898 43.846 3.68 21.263.056.328Zm-.678-3.772c-.176-.975-.346-1.951-.531-2.925-.193-1.016-.402-2.03-.603-3.045-.194-.976-.381-1.952-.584-2.927-.211-1.021-.438-2.04-.659-3.06-.208-.966-.41-1.932-.627-2.897-.23-1.027-.477-2.053-.716-3.079-.224-.958-.44-1.917-.672-2.874-.249-1.03-.514-2.059-.773-3.088-.239-.95-.469-1.9-.716-2.849-.27-1.045-.558-2.088-.838-3.131-.25-.932-.493-1.865-.751-2.796-.286-1.034-.588-2.065-.883-3.097-.269-.94-.531-1.881-.807-2.82-.304-1.032-.624-2.061-.936-3.091-.285-.936-.561-1.872-.852-2.806-.326-1.042-.667-2.082-1.002-3.123-.296-.92-.584-1.842-.887-2.76-.343-1.041-.703-2.078-1.055-3.117-.311-.916-.614-1.834-.932-2.748-.371-1.067-.758-2.13-1.139-3.195-.316-.883-.623-1.767-.945-2.649-.402-1.096-.819-2.189-1.231-3.284-.318-.847-.628-1.696-.953-2.542-.442-1.151-.901-2.298-1.354-3.446-.31-.785-.611-1.572-.926-2.357-.503-1.249-1.022-2.493-1.538-3.739-.282-.68-.555-1.363-.841-2.042a376 376 0 0 0-1.803-4.196c-.226-.521-.444-1.043-.672-1.563a400 400 0 0 0-2.572-5.733c-10.448-22.811-22.831-44.311-37.08-64.424v147.62A751 751 0 0 1-.159-.904c-.166-.956-.345-1.912-.519-2.868m-66.728-7.882V-160.28a397 397 0 0 0-44.093-51.691v196.662c12.187.619 27.097 1.722 44.093 3.655m-60.719-215.852a410 410 0 0 0-13.841-11.655 429 429 0 0 0-4.75-3.77 415 415 0 0 0-18.592 15.425 411 411 0 0 0-6.772 6.113 413 413 0 0 0-9.004 8.574V-15.35c11.452-.565 20.45-.703 26.41-.703 4.84 0 7.634.091 7.958.102.323-.011 3.114-.102 7.958-.102 5.96 0 14.958.138 26.409.703v-197.469a408 408 0 0 0-15.776-14.687m-53.809 15.535a397 397 0 0 0-44.092 51.691v148.626c16.996-1.933 31.905-3.036 44.092-3.655zm-44.942 52.812a394 394 0 0 0-6.131 8.905 395.879 395.879 0 0 0-19.017 31.588 403 403 0 0 0-10.575 21.008c-.453.969-.911 1.933-1.357 2.907a390 390 0 0 0-2.572 5.733c-.229.52-.446 1.042-.672 1.563-.607 1.397-1.215 2.794-1.804 4.196-.286.679-.558 1.362-.84 2.042-.516 1.246-1.036 2.49-1.538 3.739-.315.785-.617 1.572-.927 2.357-.453 1.148-.912 2.295-1.353 3.446-.325.846-.635 1.695-.954 2.542-.411 1.095-.829 2.188-1.23 3.284-.322.882-.63 1.766-.946 2.649-.38 1.065-.768 2.128-1.139 3.195-.318.914-.62 1.832-.931 2.748-.353 1.039-.712 2.076-1.055 3.117-.298.901-.58 1.805-.87 2.707-.341 1.059-.689 2.118-1.02 3.18-.28.897-.545 1.796-.818 2.695-.325 1.067-.656 2.133-.97 3.202-.272.92-.527 1.842-.791 2.764-.301 1.05-.608 2.098-.899 3.149-.257.931-.5 1.864-.751 2.796-.28 1.043-.567 2.086-.838 3.131-.243.937-.471 1.875-.706 2.813-.262 1.042-.53 2.084-.783 3.127-.228.943-.441 1.888-.662 2.832-.243 1.039-.493 2.078-.726 3.119-.214.954-.414 1.91-.62 2.865-.223 1.031-.453 2.062-.667 3.094-.199.963-.383 1.927-.575 2.89-.204 1.026-.415 2.052-.61 3.079-.183.966-.352 1.932-.527 2.898-.175.965-.356 1.929-.523 2.895a751 751 0 0 1 66.397-10.651zM-3.361 167.97c-7.229-1.446-19.174-6.702-56.533-12.847-6.618 58.848-53.34 83.783-86.822 83.783s-80.204-24.935-86.823-83.783c-37.358 6.145-49.303 11.401-56.532 12.847-18.808-72.341-8.255-144.681-4.255-167.787 2.597-14.998 15.067-92.259 74.814-170.726l.095-.125c19.04-24.985 42.86-50.088 72.701-73.341 29.84 23.253 53.661 48.356 72.7 73.341q.049.062.096.125a395 395 0 0 1 7.364 9.991C-13.132-85.623-1.592-14.178.894.183c4 23.106 14.553 95.446-4.255 167.787" style="fill:#312782;fill-opacity:1;fill-rule:nonzero;stroke:none" transform="translate(300.904 244.009)"></path></g><!-- source: https://football-logos.cc --></svg>