<svg xmlns="http://www.w3.org/2000/svg" viewBox="56.63 84.96 482.02 671.97"><!-- Source: https://football-logos.cc --><path d="m492.308 232.002-.638-115.493c14.512 4.609 28.953 9.64 43.265 15.45l.019 17.395c-8.332-3.969-17.638-7.113-26.458-10.669l.525 52.801 22.3 9.357-.037 17.15c-7.302-3.443-14.83-6.587-22.244-9.881l-.019 14.52c8.53 3.249 17.19 7.22 25.919 11.569l.15 17.132c-14.261-7.179-28.522-13.651-42.782-19.331M429.194 191.877v-9.794l17.398 4.426v9.228c0 4.981 5.401 9.052 10.307 9.041 2.733-.006 4.56-1.936 4.586-5.57.032-4.45-3.82-10.78-10.222-18.08-2.827-3.223-6.177-5.949-9.221-8.967-7.92-7.853-13.554-19.825-13.566-32.584l-.015-16.253c-.01-11.172 2.458-20.81 15.636-20.773 11.117.031 23.112 5.772 27.814 12.615 3.932 5.722 5.96 12.566 5.96 19.731v27.776l-17.096-5.42.094-22.614c.015-3.532.21-6.98-1.03-9.502-1.525-3.101-5.088-5.603-9.059-5.655-5.13-.068-4.894 3.81-4.887 9.341l.019 14.013c.014 10.458 3.805 14.476 7.128 18.95 5.49 7.392 8.963 8.884 14.414 15.344 5.6 6.636 10.64 15.079 10.64 27.858 0 15.877-7.48 17.258-13.206 17.376-7.826.16-20.45-4.073-28.08-11.868-4.77-4.874-7.614-12.457-7.614-18.619M372.015 200.025 371.602 90.7c15.779 1.895 30.887 4.255 45.365 7.05l-.018 15.839c-8.922-1.843-18.262-3.42-27.733-4.912l.496 49.64c7.968 1.168 15.936 2.624 23.904 4.443v15.82a357 357 0 0 0-23.782-4.594l-.168 13.2c9.34 1.737 18.678 3.625 28.018 5.812l.188 15.84c-14.911-3.726-30.122-6.026-45.857-8.814M337.891 196.916l-.393-108.79c5.952.113 11.904.555 17.857 1.219l.319 109.062c-5.697-.785-11.536-1.356-17.783-1.491M322.301 177.564c-.003 5.62-2.425 12.006-8.829 15.854-3.893 2.34-9.397 3.693-16.397 3.594-21.158-.3-26.077-8.133-25.992-26.236l.3-63.8c.066-13.97 8.435-22.014 25.881-22.014 18.855 0 25.081 10.561 25.075 23.102zm-33.319-12.017c-.045 10.358-.812 15.938 7.89 15.938 8.604 0 7.973-6.117 7.973-15.938v-53.128c0-5.77.107-11.93-7.671-11.967-9.32-.045-7.942 7.274-7.967 13.178zM226.832 200.318l.403-93.865c-5.318.43-10.927 1.246-16.345 2.053l.094-15.731c17.262-2.61 34.207-4.003 50.769-4.913l-.056 15.582c-5.647.182-11.191.567-16.688 1.05l-.337 93.555a272 272 0 0 0-17.84 2.27M150.747 196.287v-9.794l17.136-4.275-.056 6.67c-.05 5.917 1.964 7.26 5.16 7.372 4.275.15 10.126-3.284 10.126-9.133 0-6.997-7.01-10.782-10.109-12.66-3.164-1.92-5.283-2.405-9.409-4.618-9.212-4.94-12.449-13.9-12.46-25.459l-.014-16.42c-.008-8.678 2.109-16.156 6.604-21.36 6.577-7.617 17.282-10.664 25.944-10.59 18.411.158 17.044 14.713 17.067 19.015l.15 27.738-17.452 3.038.057-20.534c.014-5.253 2.446-12.562-4.941-12.598-7.532-.036-9.974 4.102-9.979 11.17l-.015 18.285c-.004 5.041 2.983 9.376 6.881 12.278 3.736 2.782 6.5 3.759 10.007 5.369 10.154 4.661 14.76 12.754 15.083 22.757.213 6.57-1.557 12.708-4.996 17.273-6.554 8.7-19.25 13.219-30.034 13.228-6.552.006-14.75-2.407-14.75-16.752M118.765 227.068l.862-114.574 17.426-5.034-1.162 113.684zM77.18 196.276l5.338-2.315c3.447-1.495 7.31-4.73 7.314-10.079l.032-39.318c.003-3.018-2.34-5.106-6.985-3.294l-5.623 2.194zm-16.637 56.255.225-119.149 22.87-9.3c8.589-3.493 15.458-2.938 19.403 1.701 2.734 3.216 3.933 8.482 3.87 15.36l-.319 34.717c-.189 20.626-13.016 29.126-22.287 34.08-2.418 1.292-4.987 2.276-7.48 3.413l-.019 30.928z" style="fill:#ff5b1a;fill-rule:evenodd" data-source="https://football-logos.cc"></path><path d="m268.32 507.772.073-9.393c.012-1.589.543-2.24 2.076-3.712 1.35-1.295 2.633-2.262 4.025-3.43 1.282-1.077 1.69-1.532 1.719-4.092l.03-2.713c.02-1.81-.842-2.692-2.267-2.673-1.418.018-1.495 1.589-1.475 3.108l.038 2.863-4.086-.019-.029-4.43c-.024-3.902 1.978-5.678 5.804-5.678 5.186 0 6.111 2.726 6.112 5.678l.003 6.21c.001 2.299-1.956 4.521-4.374 6.432-1.918 1.516-3.425 2.813-3.425 4.037v3.715l7.797-.024v4.12zM259.05 491.8c1.478-.019 1.976-1.238 1.973-2.22l-.018-4.854c-.005-1.41-.026-2.924-2.005-2.95-1.42-.018-2.064 1.055-2.061 2.462l.009 4.739c.003 1.462.026 2.849 2.101 2.822zm6.054 9.211c.01 4.346-1.12 7.142-6.141 7.101-5.652-.045-6.133-3.268-6.133-7.573v-2.416l4.116-.019.019 2.467c.014 1.762.16 3.475 2.122 3.479 1.892.003 1.953-2.105 1.946-3.616l-.028-5.636c-.608.422-1.952 1.108-3.138 1.117-4.705.038-5.074-3.094-5.106-6.949l-.038-4.455c-.03-3.536 1.325-6.965 6.26-6.887 4.397.07 6.072 1.906 6.083 6.841zM244.963 507.809l.075-25.336a60 60 0 0 1-4.1.762l.019-4.025c2.692-.52 3.767-.66 6.013-1.187l1.826.054-.019 29.732zM287.482 507.809l.075-25.336a60 60 0 0 1-4.1.762l.02-4.025c2.691-.52 3.767-.66 6.013-1.187l1.826.054-.02 29.732z" style="fill:#fff;fill-rule:evenodd"></path><path d="m291.521 263.514.375 48.525c-59.09 1.468-109.483 14.38-153.374 35.85l-.056 26.85c45.478-24.51 96.66-37.203 153.338-38.513l.02 48.563c-52.046 1.064-101.34 15.098-147.786 42.562 20.342 102.458 72.364 179.404 147.807 233.363v58.275c-80.602-48.46-129.586-111.66-161.764-177.828-36.483-75.02-46.959-153.703-37.81-224.51 58.587-32.977 120.99-51.875 199.25-53.137" style="fill:#fff;fill-rule:evenodd"></path><path d="m255.048 469.501 36.797.01-.037-72.752c-45.937-.106-91.462 12.157-134.624 36.45 21.553 101.45 72.59 166.448 134.662 212.775l-.076-127.425-36.695-.038-.02 19.331c-16.524-23.704-30.425-49.158-39.75-77.663 13.342-4.755 26.644-8.78 39.786-10.932zM352.037 316.211c36.921 5.799 71.705 16.938 104.626 32.737.892 51.869-6.687 94.24-18.995 131.307H351.98zm-48.684-52.809c73.777.873 139.886 20.69 200.062 55.163 7.79 78.62-5.62 147.38-32.231 210l-119.195-.01-.002 157.312c-15.682 12.888-31.977 24.056-48.659 34.144z" style="fill:#fff;fill-rule:evenodd"></path><path d="M366.184 565.342h29.741a502 502 0 0 0 15.261-24.526h-28.389c-5.304 8.58-10.713 16.885-16.613 24.526M438.59 540.816a496 496 0 0 1-13.982 24.526h28.379c4.282-7.907 8.39-16.067 12.384-24.526zM424.608 565.342h-28.683c-5.698 8.578-11.59 16.813-17.614 24.525h30.256a447 447 0 0 0 16.041-24.525M378.31 589.867h-14.414v17.113c4.867-5.322 9.682-11.056 14.415-17.113M408.567 589.867c-6.272 8.924-12.434 16.954-18.371 24.15h31.672a363 363 0 0 0 16.74-24.15zM390.196 614.017h-26.3v48.6l13.889.005c8.581-8 16.517-16.049 23.911-24.23h-33.694c6.827-6.745 14.313-14.824 22.193-24.375z" style="fill:#fff;fill-rule:evenodd" data-source="https://football-logos.cc"></path><path d="M60.658 290.277c68.209-39.442 143.988-64.93 234.6-64.8 79.901.116 159.801 19.066 239.701 66.75 11.735 95.384-4.593 186.35-47.85 271.05-47.412 92.835-115.867 149.968-189.451 193.65-97.88-54.058-168.235-133.964-210.3-240.75-25.753-65.372-37.562-139-26.7-225.9" style="fill:none"></path><path d="m352.037 316.211-.057 164.044h85.688c12.308-37.067 19.887-79.438 18.995-131.307-32.921-15.799-67.705-26.938-104.626-32.737" style="fill:#ff5b1a;fill-rule:evenodd"></path><path d="M130.081 541.161c-36.483-75.02-46.959-153.703-37.81-224.51 58.587-32.977 120.99-51.875 199.25-53.137l.375 48.525c-59.09 1.468-109.483 14.38-153.374 35.85l-.056 26.85c45.478-24.51 96.66-37.203 153.338-38.513l.02 48.563c-52.046 1.064-101.34 15.098-147.786 42.562 20.342 102.458 72.364 179.404 147.807 233.363v58.275c-80.602-48.46-129.586-111.66-161.764-177.828m27.103-107.951c43.162-24.294 88.687-36.556 134.624-36.45l.037 72.75-36.797-.008.043-20.244c-13.142 2.15-26.444 6.177-39.786 10.932 9.324 28.505 23.226 53.959 39.75 77.663l.02-19.331 36.695.037.075 127.426c-62.07-46.328-113.108-111.326-134.661-212.775M303.328 720.01l.025-456.609c73.777.873 139.886 20.69 200.062 55.163 7.79 78.62-5.62 147.38-32.231 210l-119.195-.01-.002 157.312c-15.682 12.888-31.977 24.056-48.659 34.144m-8.07-494.534c-90.612-.13-166.391 25.358-234.6 64.8-10.862 86.9.947 160.528 26.7 225.9 42.065 106.786 112.42 186.692 210.3 240.75 73.584-43.683 142.039-100.815 189.45-193.65 43.258-84.7 59.586-175.666 47.851-271.05-79.9-47.684-159.8-66.634-239.7-66.75M244.964 507.81l.075-25.336a60 60 0 0 1-4.1.762l.019-4.025c2.692-.52 3.767-.66 6.013-1.187l1.826.054-.019 29.732zm7.798-18.843-.038-4.455c-.03-3.536 1.325-6.965 6.26-6.887 4.397.07 6.072 1.906 6.083 6.841l.038 16.546c.01 4.346-1.12 7.142-6.141 7.101-5.652-.045-6.133-3.268-6.133-7.573v-2.416l4.116-.019.019 2.467c.014 1.762.16 3.475 2.122 3.479 1.892.003 1.953-2.105 1.946-3.616l-.028-5.636c-.608.422-1.952 1.108-3.138 1.117-4.705.038-5.074-3.094-5.106-6.949m17.708 5.701c1.35-1.295 2.633-2.262 4.025-3.43 1.282-1.077 1.69-1.532 1.719-4.092l.03-2.713c.02-1.81-.842-2.692-2.267-2.673-1.418.018-1.495 1.589-1.475 3.108l.038 2.863-4.086-.019-.028-4.43c-.025-3.902 1.978-5.678 5.803-5.678 5.186 0 6.111 2.726 6.112 5.678l.004 6.21c0 2.299-1.957 4.521-4.375 6.432-1.918 1.516-3.424 2.813-3.424 4.037v3.715l7.796-.024v4.12h-12.02l.072-9.392c.013-1.589.544-2.24 2.076-3.712zm17.013 13.142.075-25.336a60 60 0 0 1-4.1.762l.02-4.025c2.691-.52 3.767-.66 6.013-1.187l1.826.054-.02 29.732zm102.714 106.208c-7.881 9.55-15.367 17.63-22.194 24.375h33.695c-7.395 8.181-15.33 16.23-23.912 24.23l-13.89-.006v-48.6zm34.412-48.675a496 496 0 0 0 13.981-24.526h26.782c-3.994 8.46-8.102 16.618-12.384 24.526zm-28.683 0h-29.74c5.9-7.641 11.308-15.945 16.612-24.526h28.389a502 502 0 0 1-15.26 24.526m12.642 24.525h30.04a363 363 0 0 1-16.74 24.15h-31.672c5.938-7.196 12.1-15.226 18.372-24.15m-30.256 0c6.025-7.712 11.916-15.947 17.614-24.525h28.683a447 447 0 0 1-16.04 24.525zm-14.415 0h14.415c-4.733 6.057-9.548 11.791-14.415 17.113z" style="fill:#ff5b1a;fill-rule:evenodd"></path><path d="m256.938 484.238.01 4.739c.003 1.462.026 2.849 2.101 2.822 1.479-.018 1.977-1.237 1.974-2.22l-.019-4.853c-.005-1.41-.026-2.924-2.004-2.95-1.42-.018-2.065 1.055-2.062 2.462z" style="fill:#ff5b1a;fill-rule:evenodd" data-source="https://football-logos.cc"></path><!-- source: https://football-logos.cc --></svg>