<svg xmlns="http://www.w3.org/2000/svg" viewBox="17.53 141.04 560.23 560.03"><!-- Source: https://football-logos.cc --><path d="M286.34 141.043c-148.303 5.882-266.96 127.06-268.806 276.369v7.066c1.892 153.081 126.574 276.593 280.104 276.593 154.709 0 280.125-125.417 280.125-280.126 0-150.925-119.357-273.973-268.828-279.902z" style="fill:#fff;fill-rule:evenodd;fill-opacity:1" data-source="https://football-logos.cc"></path><path d="M382.9 476.452c1.248-.376 1.825-.816 2.715-1.333 1.247-1.933 3.54-3.385 4.722-5.308 1.704-2.77.225-6.094 3.328-7.168 7.24-2.503 4.912-7.422 1.127-12.025-1.37.657-1.724.808-2.612 1.974-.543.713-1.559 2.01-1.994 2.863-1.966 3.852 1.28 1.504-2.747 6.597-2.917 3.69-3.86 8.76-4.538 14.4m-11.968-26.443c.622 1.72.844 2.748 1.352 4.558.52 1.852 1.216 3.068 1.839 4.831.492 1.05 1.134 1.42 1.515 3.033.28 1.185.55 2.737.756 4.042.253 1.613 1.518 7.86 1.478 8.61 1.485-4.314 2.488-9.303 3.915-13.852.728-2.321 1.557-4.36 2.307-6.608 1.616-4.852 2.968-1.081 4.707-5.193-1.187-.392-.902.891-.907-1.493l-.491.432c-.063.037-.179.138-.257.177-1.709.846-1.816-.127-2.901-.04-.93.076-.07.43-4.791.4l-1.019 1.919c-.66.531-.354-.275-.849.845l1.245.378c.155.063.28-.111.623.52l-2.771-.13c.038-.181.152-.283.161-.323l-2.174-1.267v-2.016c-1.282-.004-1.914.319-2.465-.522-.132.126-.323.09-.4.373-.07.258-.26.242-.344.36zm-103.99 183.555c.906.515 1.489 2.932 1.82 4.09.68 2.383-.055 3.043-.456 5.132-.409 2.127.245 3.648-.605 5.809-.6 1.53-1.655 2.997-2.063 4.132-.79-.684-.79.962-1.02-4.216l-.573-14.052c-.61-2.794-1.061-10.91-.89-14.365.617.401 1.768 1.614 2.217 2.291.662 1.002.768 2.446 1.11 3.74.634 2.4 2.113 5.038.46 7.439m70.92-78.808c-.248-6.163 1.356-19.784 1.964-27.646.167-2.156.109-2.057 1.376-3.354.945-.968 1.357-1.669 2.567-2.195.615 5.566 1.09 32.672 1.567 34.637.508 2.09 1.447 1.606 1.778 3.407 1.87.356 1.921 1.94 3.803 3.147 1.198-1.055 2.297-2.882 3.277-4.346 1.635-2.444 1.219-2.055 3.685-3.592l-.92.356c.427-4.816-.218-12.493-.541-17.465-.32-4.9-1.029-13.086-.65-17.736 7.894-2.804 9.651-3.493 9.056-7.952-.496-3.724-2.007-12.723-1.264-15.92-.68-1.052-.361-.368-.32-1.845 4.074-4.692 5.098 1.745 2.733-15.424-1.881-13.662-4.892-32.535-7.612-46.213-.596-2.996-2.396-6.473-2.615-8.211 3.626-2.651 1.007-2.493 2.64-4.741.776.665 9.898 16.05 11.165 20.862.87 3.299-.056 5.446 1.38 9.484l.53-.965c.084-.12.274-.103.344-.361.077-.283.268-.247.4-.373.55.841 1.183.518 2.465.522v2.016l2.174 1.267c-.009.04-.123.142-.161.323l2.77.13c-.342-.631-.467-.456-.622-.52l-1.245-.378c.495-1.12.19-.314.85-.845l1.018-1.918c4.721.029 3.86-.325 4.791-.4 1.085-.088 1.192.885 2.901.04.079-.04.194-.14.257-.178l.49-.432c.006 2.384-.279 1.101.908 1.493.12-.185-.72-13.416-.629-15.566l-.056 7.21-4.925-4.018c-1.491-1.554-1.457-4.537-1.62-6.665-.377-4.906-1.127-9.712-2.01-14.435-1.197-6.394-2.252-15.004-3.751-20.924-.628-2.48-1.297-3.982-1.637-6.546-1.418-1.026-5.683-10.244-7.2-12.442-.963-1.44-3.112-4.98-3.74-6.943-.908-2.834 2.36-3.239 4.053-5.206-.193-3.343-2.058-3.051-2.686-6.35 1.048-1.964 2.552-1.578 2.185-5.236-.326-3.247-3.216-7.706-3.945-17.718-.69-7.995-6.562-19.256-13.46-23.318-2.086-1.228-6.276-2.649-7.78-4.148l-2.008-.579c-.79-.946-4.046-3.013-5.177-3.46-7.829-3.092-4.528-2.327-10.72-6.461-5.031-3.36-7.332-2.874-7.667-9.664-.12-2.426-.575-5.986-.338-8.247.366-3.486 1.45-3.674 2.804-5.886 1.798-2.937 1.095-3.83 2.113-6.42 1.956-14.275.595-11.159 3.578-12.698-.161-5.836-4.31.86.01-11.418 2.18-6.195.517-6.946-2.233-11.174a45 45 0 0 0-3.343-4.494c-3.357-3.944-4.923-4.205-8.552-6.397-1.65-.997-2.678-2.262-4.886-2.872-.1-.075-.702-.346-1-.558-1.157-.825-.47-.125-1.036-1.06-2.172-2.583 2.91-4.522 3.982-6.194.827-1.29 3.148-5.723 3.694-7.168 1.782-4.719-.288-5.357-2.963-7.2-3.309-2.281-2.532-2.804-8.11-2.69-13.95.282-8.244-.152-12.978 3.809-1.57 1.314-1.133 1.025-2.404 2.82-4.51 6.373-1.419 1.417-4.033 7.15-1.567 3.436-3.562 2.166-3.193 7.209.966.583 1.228.569 1.655 1.766-.743 1.382-2.095 1.695-2.663 3.671-.59 2.047 1.03 1.82 1.538 3.799-1.106 2.206-2.784 2.17-3.282 4.109.828 1.424 1.186.926 2.236 2.24-.836 1.712-1.073 1.045-1.272 3.72-.199 2.679.437 2.59.64 4.498-.823 1.376-.993.942-1.91 1.983-3.298 3.74-.989 7.96-2.511 7.681 2.602 4.228-.168 5.911 5.396 5.627 1.382 4.86.715 4.662 3.55 8.423 1.822 2.417 1.639 6.962.875 8.744-.403.94.166.095-.54.82-.013 1.25-1.051 4.188-1.632 4.822l-.742 2.239c1.787 2.357 5.166 4.704 7.475 7.096-.081 1.7-.646 3.338-1.125 4.88-1.21 3.892-3.29 2.706-8.515 3.484-2.202.328-2.467 1.041-4.413 1.469-4.008.178-8.59.693-12.512-.209-10.956-.784-7.573 2.057-11.682 3.903-.637-1.606-1.224-1.622-1.908-2.695.522-1.507 2.53-2.758 1.684-4.77-.948-1.847-2.215-.912-3.448-2.326 2.033-3.734 6.594-3.652 2.11-7.657-.994-.887-1.638-1.388-2.83-1.956-.13-4.726-1.644-36.308-2.294-38.784 1.143-.541 3.016-.987 4.392-1.638-.99-.528.128.542-.421-.563-.116-.234-.302-.82-.4-1.052-.376-.895-.585-1.012-.95-1.678-.704-1.28-.84-2.908-1.09-4.455-.316-1.945-.458-2.89-1.038-4.676-.873-2.687.652-1.615.926-3.68.414-.34.517.072.858-1.148.275-.98.087-1.57-.014-2.558-1.948-2.689-.143-1.879-3.48-3.822l-1.426-13.845c2.489.764 3.726 2.75 5.962 2.933l-5.904-23.675c-1.575-8.209-3.378-16.813-4.983-24.852-1.426 1.075-.987 2.832-1.7 6.463-.392 1.998-.692 4.56-1.166 6.375-.375 3.775-2.763 21.197-4.14 23.191.305 2.05-.94 4.172.092 5.948 1.501.635 2.757-.55 4.768-.658.646 2.648 1.174 16.819.84 19.697-1.24.203-2.208 2.18-2.253 4.12-.058 2.539 1.037 2.988 2.164 4.473-.443 1.784-1.466 1.957-1.836 4.49-.45 3.082-.56 2.636-1.43 5.065-.83.429-1.161.694-1.452 2.086-.21 1.004-.2 2.23-.318 3.295l6.343-2.028.167 4.34c.639 3.387 3.005 35.441 2.815 38.509-4.804 1.422-7.127 4.115-9.262 8.29-1.894 3.705-3.503 8.397-5.17 12.401-4.733 11.381-4.74 17.007-5.578 29.63-1.223 18.397-1.228 12.99 3.912 29.858 5.902 19.371 15.659 9.096 19.548 9.178l.9 10.641c.066 1.256.165 2.5.239 3.754.093 1.576.316 2.302-.43 3.301 1.091-.051.806 3.44 1.038 5.925l1.597 20.387c.606 5.781 2.37 22.943 1.779 27.865 1.025 1.717.249 5.153 1.154 6.695-.858 4.362 3.672 43.588 2.885 48.274-.506 3.009-.83 6.166-1.286 9.065-1.51 9.584-.572 6.452 1.253 8.147 1.47 1.365-.254 7.05-.167 9.265 1.3 2.043 2.041.988 2.258 4.424.112 1.77.187 3.586.29 5.342l1.934 35.445c.216 5.57 3.097 43.897 2.406 45.827.595 1.959 1.714 21.694 1.245 23.632.63 1.205 2.305 20.832.91 22.66-.36.47-1.603 1.479-2.14 1.98l-2.394 1.804c-.516 1.34-2.418 3.655-3.296 4.5-.228 1.909-.988 1.694-1.545 3.504 2.862.355 6.828 1.209 9.743 1.87 3.003.68 6.949.97 10.181 1.381 12.933 1.65 11.858-5.236 16.797-5.536.126-1.539 1.845-3.525 3.518-3.355-.82-1.35.848-1.886 1.756-3.04 1.235-1.572.494-2.587-.04-4.44-4.62-16.031 2.302-10.37.248-19.681-.95-4.307-1.555-5.412-1.593-10.256-.148-6.76-.821-3.784-1.847-6.334 2.487-2.521 9.375-1.558 7.634-11.924-.412-2.45-1.466-2.36-2.765-3.763-.165-2.703.492-10.036.962-12.735.589-3.38 2.51-6.555 3.398-10.36 2.423-10.372-1.47-15.29-2.312-24.712-2.556-14.57.158-10.493 3.433-19.748 4.228-11.948 1.187-12.2 6.073-12.87 4.12-.563 7.218-.883 6.507 3.776 1.49 2.114 1.668 10.076 1.736 12.406.062 2.132-.185 4.29-.877 6-2.286 5.642-.838 4.972-5.678 15.256-8.887 18.879.203 28.53-.761 34.75-.883 5.695-.602 6.017-3.126 10.643-3.534 6.481 1.95 6.877 2.791 8.425.432 2.115-.096 5.233-.347 7.449l.066 1.83.192 3.42c-.46 1.04.102.471-.896.782 1.664 1.843-2.312 8.956-2.919 11.78-.616 2.868-2.293 11.78-.457 13.847 1.641 1.8 4.556.795 6.902 1.295 1.96-.297 4.49-.284 5.994.366 4.873-.76 20.57 8.236 35.15 6.617 3.39-.377 9.212-1.55 10.115-4.058-2.79-3.636-8.15-4.915-10.253-7.648-.555-.722-.352-.075-.255-.596-1.046-.74-2.806-1.165-4.247-1.617-2.696-.845-1.798-.93-3.71-1.923-1.602-.832-2.947-.339-4.215-1.387-1.03-.852-1.465-2.174-2.258-3.262-1.783-2.228-3.468-5.148-5.148-7.221-2.053-2.535-4.422-3.694-4.153-8.553-.332-3.584 2.174-9.342 3.36-12.111 2.51-.185 3.536-.127 5.535-1.3.531-2.79 2.65-3.797 1.712-6.909-2.566-8.511-6.777.647-1.511-14.495 2.445-7.03 4.18-23.463 5.413-31.159zM250.382 412.45c-.144-3.2-.005-11.744-1.124-13.899 1.08-3.506-.853-10.326-.38-14.652l-.766-2.492c.686-2.521-.725-6.155.322-8.322 1.728-1.002 4.985-.17 7.802-1.152 4.241-1.477 4.11-2.048 5.787-2.823 1.162 1.13 2.807 5.357 3.458 7.112-.27.355-.181.537-.614.777 3.48-.134 3.6 11.56 3.49 13.803-.292 5.94-1.511 10.144-2.258 15.185-1.175 7.93 2.52 2.94-1.907 14.254-3.573 9.13-1.307 9.369-2.95 14.51.29 6.077-5.118 23.968-5.427 33.345-.118 3.574 1.079 9.482-1.283 11.562-.424-6.263-2.661-37.336-2.332-41.013l-.189-.422zm11.267 176.078c1.101 2.616 4.223 14.313 4.398 17.028-.353.47-2.776 2.926-3.229 3.294-.573-1.865-1.684-19.352-1.169-20.322m7.043-50.322c1.524 4.634-2.608 11.654-3.99 16.307-.976 3.283-3.483 14.546-4.547 16.184l-.812-16.554c-1.175-7.248-1.148-19.037-1.301-27.024l11.86 1.061c.3 2.036-.77 7.623-1.21 10.026M232.047 317.86c2.118-1.258 3.813-3.355 5.47-3.867-.103 2.939-1.023 3.032-2.097 4.995-.833 1.52-1.24 3.38-2.159 4.648-.885-1.418-1.314-3.988-1.214-5.776" style="fill:#c2a146;fill-rule:evenodd"></path><path d="m560.243 413.657-.03 16.515-7.926-.055-42.068-9.439.042 9.704-7.195-.1-.017-16.552 8.087-.06 41.88 9.59.089-9.583zm-16.716-81.907 2.518 6.887-47.58 16.087 2.543 7.173-7.067 2.145-4.554-13.873zm-16.477-35.223 3.617 6.34-46.706 34.024-3.624-6.42 5.143-3.922-2.607-4.634-5.968 2.458-3.602-6.558zm-23.826 17.148-13.638 5.473 1.892 3.19 11.844-8.485zm-46.082-88.471c.579-.733.114-2.101-.814-2.843-.97-.775-2.11-.964-2.738-.172l-26.2 33.038c-.81 1.021-.638 2.604.216 3.286.94.751 2.43.983 3.007.253zm5.435 4.729-24.544 31.353c-2.91 3.72-7.66 7.409-14.249 2.455-5.925-4.455-4.228-10.486-.845-14.79l23.419-29.797c3.216-4.093 8.919-6.063 14.172-1.737 5.275 4.344 3.88 10.245 2.047 12.516m-46.392-39.834 9.274 5.134c6.318 3.497 5.156 6.366 2.586 11.144-2.945 5.476-5.817 11.873-9.435 16.91-1.033 1.436-2.838 3.005-4.8 3.466.76 4.32-1.227 6.987-2.9 10.036l-6.69 12.196-6.3-3.444 7.343-13.356c.716-1.302.394-2.69-.973-3.446l-.961-.532-8.446 15.724-6.488-3.632zm2.812 9.892L407.73 219.85l1.324.877c1.086.72 2.795.422 3.368-.616l8.637-15.644c.944-1.708.548-2.884-.107-3.284zm-41.805-25.939 10.63 4.049c7.18 2.734 4.902 7.322 3.854 10.152l-9.158 24.722c-1.497 4.042-4.385 3.948-8.046 2.65l-3.93-1.393-5.954 16.64-6.926-2.562zm4.335 9.497-8.748 23.86 1.371.49c1.85.66 2.826-.27 3.45-1.962l6.873-18.662c.475-1.29 0-2.478-.751-2.796zm119.828 74.467 6.718 9.18c4.536 6.198.13 8.81-2.29 10.614l-21.132 15.764c-3.454 2.577-5.827.926-8.193-2.154l-2.54-3.306-14.048 10.723-4.417-5.917zm-1.529 10.327-20.32 15.263.885 1.156c1.194 1.56 2.517 1.31 3.961.23l15.92-11.92c1.1-.824 1.348-2.08.89-2.756zm55.8 107.13 1.316 7.18-55.333 16.655-1.296-7.257 6.152-2-.927-5.236-6.445.345-1.23-7.38zm-28.157 8.299-14.68.654.73 3.636 13.983-4.09zm31.18 69.959-2.51 16.323-7.828-1.244-40.172-15.65-1.416 9.6-7.1-1.18 2.51-16.492 7.964 1.28 39.965 15.771 1.527-9.46zm-18.094 49.156c.886.292 2.012-.614 2.39-1.74.395-1.178.182-2.312-.778-2.63l-40.022-13.273c-1.237-.41-2.665.295-3.013 1.331-.383 1.141-.09 2.62.794 2.911zm-2.577 6.728-37.872-12.294c-4.492-1.459-9.588-4.654-7.196-12.541 2.152-7.095 8.399-7.57 13.602-5.87l36.025 11.771c4.948 1.618 8.755 6.297 6.494 12.717-2.27 6.444-8.291 7.158-11.053 6.217m-1.744 23.571-3.09 6.65-45.019-22.27-3.274 6.872-6.514-3.481 6.59-13.03zm-31.377 39.016c.758.545 2.105.02 2.804-.94.732-1.003.87-2.15.051-2.742l-34.163-24.715c-1.056-.764-2.63-.522-3.273.361-.71.973-.875 2.471-.12 3.015zm-4.484 5.638-32.407-23.134c-3.844-2.745-7.74-7.327-3.082-14.127 4.189-6.116 10.289-4.687 14.737-1.498l30.804 22.08c4.23 3.032 6.45 8.642 2.36 14.082-4.105 5.46-10.062 4.328-12.412 2.597M195.693 624.76l-2.015 3.747c-.549 1.02-.824 2.252-2.94 2.764.52 1.678.324 2.702-.406 4.14l-2.476 4.879c-.468.922-2.855 3.984-6.47 2.268-3.097-1.47-2.675-4.967-1.832-6.554l2.434-4.587 3.031 1.592-2.483 4.562c-.23.423-.248 1.503.305 1.797.51.272 1.496-.03 1.7-.429l3.177-6.23c.218-.428.282-.734-.21-1.008l-1.135-.634 1.687-3.194 1.145.419c.521.19.827-.252 1.054-.68l2.964-5.6c.297-.559.654-1.607-.186-2.09-1.148-.662-1.763.496-1.912.779l-2.918 5.556-3.03-1.573 2.626-5.148c1.342-2.63 4.052-3.83 6.763-2.438 2.824 1.45 2.615 4.873 1.127 7.662m-39.691-4.98c-.504-.372-1.157-.849-1.79-1.299-1.291-.917-2.003-3.753-.738-5.575l7.385-10.632c.903-1.3 3.46-3.478 6.52-1.368 2.846 1.964 2.74 4.336.476 7.597l-9.53 13.719c-2.262 3.257-4.091 4.178-7.035 2.33-2.374-1.489-2.976-4.31-1.911-5.897l.954-1.421 2.764 1.902-.871 1.356c-.261.406-.081 1.1.564 1.557.471.333 1.325.392 1.567.05zm.163-4.839c-.28.395-.121 1.339.368 1.678.468.325 1.334.211 1.858-.539l7.678-10.99c.257-.367.212-1.101-.481-1.577-.492-.336-1.221-.145-1.501.25zm-3.506-24.786 3.778 3.12-17.534 21.662-2.938-2.387 15.219-18.635-.955-.809zm-27.53-8.844 4.421 4.478-1.218 1.225-4.42-4.533zm-8.001-29.086 4.381 5.711-2.863 2.4-2.413-2.936-6.747 5.164 2.207 2.7-2.704 2.157-2.3-2.7-6.917 5.247 2.319 2.814-2.834 2.138-4.344-5.655zm-7.98-5.214-5.72 3.944-2.098-2.671 5.675-4.134c.576-.42.538-1.15.176-1.576-.386-.454-1.057-.733-1.65-.337l-16.504 11.015c-.804.536-.944 1.337-.452 1.943.541.665 1.099.48 1.476.241l5.69-3.622 1.891 2.747-4.338 3.027c-3.158 2.203-5.71 1.68-7.357-.63-1.515-2.124-1.541-4.876 1.911-7.122l14.88-9.676c2.982-1.939 5.73-1.017 7.027.774.94 1.297 1.688 4.496-.606 6.077m-11.14-25.062 1.626 2.922-9.374 7.399.275.444 10.382-5.82 1.63 3.02-24.276 13.25-1.794-3.204 9.137-7.124-.257-.407-9.975 5.47-1.78-3.095zm-4.914-11.269 1.487 3.223-25.464 11.52-1.486-3.213zm-7.544-6.746-5.875 2.33-1.246-3.212 6.38-2.572c.793-.319.91-.891.655-1.477-.243-.56-.967-.813-1.514-.619l-5.75 2.036c-.959.34-1.336.532-1.22 1.676.21 2.053.58 4.803-1.814 5.72l-7.301 2.797c-2.194.84-5.1.583-6.348-2.868-1.34-3.707 1.385-5.344 2.605-5.802l6.19-2.326 1.15 3.381-6.26 2.333c-.441.164-.878.99-.607 1.526.326.641 1.033.787 1.446.635l6.65-2.443c.441-.162.597-.682.614-1.685.005-.357-.124-1.113-.12-1.895.007-1.984 1.046-3.274 2.592-3.836l6.63-2.407c3.545-1.288 5.273.968 5.886 2.296 1.051 2.274.174 5.217-2.743 6.412m92.892 104.495 4.193 2.537-14.19 23.986-3.254-1.934 12.34-20.654-1.062-.66z" style="fill:#fff;fill-rule:evenodd"></path><path d="M414.65 334.668c3.244 5.735 6.152 11.291 8.626 15.825 2.312 4.237 2.334 13.206 1.5 19.65-1.427 11.021-9.938 28.67-14.25 42-1.825 2.42-3.5 4.707-5.325 7.126 4.725-12.45 9.653-25.098 14.1-37.65a48.1 48.1 0 0 0 2.775-16.8c-.083-5.447-1.501-12.398-4.163-15.75.259-.935.254-1.964-.187-3.15z" style="fill:#00487b;fill-rule:evenodd"></path><path d="M401.862 362.253c-.975.975-2.25 1.894-3.225 2.869-.397 5.867-.703 11.424.225 16.95.596 3.552 1.785 6.992 2.625 10.5 1.011 4.217.938 8.536.713 12.862.45-2.943 1.259-5.763 1.8-8.662.471-2.527.675-5.188.675-7.725-1.664-5.164-2.836-10.308-3.15-15.375-.244-3.921.124-7.694.337-11.419" style="fill:#024673;fill-rule:evenodd"></path><path d="M388.208 400.372c1.6 1.526 2.789 3.136 3.9 4.576 1.924 2.49 3.67 4.118 3.563 7.125-.096 2.658-.938 8.088-1.688 7.762-.037-2.5.259-5.002-.187-7.462-.354-1.953-1.101-3.757-2.175-5.55-1.25-2.087-2.275-4.3-3.413-6.45" style="fill:#054572;fill-rule:evenodd"></path><path d="M428.576 397.279c2.016-1.683 4.214-3.387 7.35-4.013 3.693-.737 8.114-.233 12.469.075-1.357.779-2.481 1.697-3.338 2.775-4.631-.056-7.378-1.018-9.6-.994-1.984.021-4.707 1.2-6.881 2.157" style="fill:#024673;fill-rule:evenodd"></path><path d="M412.017 429.64c1.8-1.412 3.445-2.357 5.363-2.887 2.46-.679 5.098-1.21 7.613-.787 1.587.266 3.18.086 4.687.45 1.446.348 2.547.813 3.75 1.687 2.642 1.918 4.648 4.58 7.65 6.394.86.52 1.06 1.078.863 1.95-.442 1.946-.898 3.891-1.275 5.85-.41 2.13-1.004 4.287-1.088 6.413-.02.537-.081 1.315-.487 1.538-.23.125-.591-.02-.75-.226-.394-.508-.817-1.158-.975-1.78-.183-.719-.126-1.459-.038-2.195.29-2.424 1.19-3.661 1.35-7.2.026-.58-.09-1.313-.563-1.65-3.228-2.296-6.282-5.052-8.887-7.425-1.385-1.26-3.527-1.251-5.4-1.275-3.99-.051-6.937-.031-11.813 1.144" style="fill:#004773;fill-rule:evenodd"></path><path d="M443.18 397.11c-4.23 2.815-7.625 5.423-9.975 8.25-2.657 3.195-3.977 4.96-7.67 9.974 2.997-3.167 3.664-3.811 5.57-5.812 1.126-1.257 2.341-2.62 3.319-4.013 2.034-2.9 4.518-4.085 8.756-8.4" style="fill:#00487b;fill-rule:evenodd"></path><path d="M385.972 474.527c-1.603 11.865-3.74 23.955-5.326 35.775-.27 2.015-.944 4.412-5.325 7.2 1.298-1.376 2.164-2.88 2.325-4.65.412-4.506.95-9 1.425-13.5l1.5-9.825c.788-4.538 1.67-9.075 2.456-13.613" style="fill:none"></path><path d="M380.646 510.302c1.581-11.785 3.71-23.84 5.312-35.671q-.182.24-.343.488c-.882.512-1.456.948-2.68 1.322-.763 4.362-1.607 8.724-2.364 13.086l-1.5 9.825c-.475 4.5-1.013 8.993-1.425 13.5-.161 1.77-1.027 3.274-2.325 4.65 4.38-2.788 5.055-5.185 5.325-7.2" style="fill:#03466e;fill-rule:evenodd"></path><path d="M341.25 307.012c9.15 3.962 17.213 8.075 25.313 12.9l-3.975 14.587" style="fill:none" data-source="https://football-logos.cc"></path><path d="M366.563 319.912c-7.975-4.75-15.914-8.81-24.89-12.717 1.56 1.473 5.654 2.869 7.707 4.078 6.69 3.94 12.414 14.648 13.383 22.583zM280.84 270.78l-20.328-11.9-.6.525 12.57 34.99c1.445-.43 1.87-1.028 3.831-1.32 4.699-.7 6.854.19 8.12-2.456l-.433-7.75c-1.992-1.76-4.195-3.505-5.522-5.254l.742-2.24c.548-.598 1.503-3.248 1.62-4.595" style="fill:#03466e;fill-rule:evenodd"></path><path d="M297.602 231.512c-106.95 0-193.65 86.7-193.65 193.65s86.7 193.652 193.65 193.652 193.651-86.7 193.651-193.651c0-106.95-86.7-193.651-193.65-193.651" style="fill:none"></path><path d="m342.664 235.82.074 49.875-1.05.975 1.05.9.075 18.975c23.194 13.113 46.088 25.682 69.206 38.926 2.963 1.697 3.028 4.908 3 7.763.225 6.15-2.081 11.887-3.6 17.475-1.834 6.744-4.677 13.724-6.827 20.137" style="fill:none"></path><path d="M398.752 365.083c-1.79 1.462-2.272 2.783-2.935 4.2-1.233 2.641-2.35 5.4-3.45 8.063-.59 1.433-.3 3.107-.15 4.65.7 7.123.967 14.29 2.72 21.3.683 2.738.882 5.522.693 8.289-.129 1.877-1.1 3.6-1.65 5.4-.424-2.175-.99-4.307-2.606-6.413-1.085-1.413-2.456-2.897-3.525-4.284-.774-1.005-1.22-2.153-1.782-3.291h-.675c-.09 1.504.33 2.577.9 3.525a346 346 0 0 0 2.4 3.937c.738 1.194.85 2.676 1.275 4.013.038 1.725.3 3.487.113 5.175 0 0-1.369 8.916-1.5 10.256-.132 1.341-.424 3.075-.424 6.882M374.33 390.735l.037-11.438-1.538-.075-7.538-4.575M394.671 450.769c1.844-1.269 4.514-1.687 6.882-1.781 3.466-.14 6.882.734 10.35.788 3.932.06 6.83-.478 9.6-2.776 3.113-2.582 5.631-6.169 9.037-8.1l-.3 27.676-1.2.862 1.163.9.075 54.637-93.038 40.875" style="fill:none"></path><path d="m268.72 538.049-9.33 4.126.062 14.202.702 14.32c1.064-1.64 3.57-12.903 4.546-16.184 1.383-4.654 5.515-11.673 3.99-16.308zM297.54 539.868c-3.276 9.254-5.99 5.179-3.434 19.747.841 9.423 4.735 14.341 2.312 24.713-.889 3.805-2.81 6.98-3.398 10.36-.47 2.699-1.127 10.032-.962 12.735 1.299 1.403 2.353 1.312 2.765 3.763.642 3.826.11 6.108-.944 7.592a196 196 0 0 0 10.4-.078 7 7 0 0 0-.075-.446c-.842-1.548-6.326-1.944-2.79-8.425 2.523-4.626 2.242-4.948 3.125-10.642.964-6.22-8.126-15.873.76-34.752 4.841-10.283 3.393-9.613 5.679-15.256.692-1.709.938-3.867.877-6-.068-2.329-.246-10.291-1.737-12.405.712-4.66-2.386-4.339-6.506-3.775-4.886.668-1.845.921-6.073 12.87M339.826 527.11c-.608 7.862-2.212 21.483-1.963 27.646l.41 8.64 8.824-3.877c-.345-1.7-1.26-1.265-1.76-3.321-.478-1.965-.953-29.071-1.568-34.637-1.21.526-1.622 1.227-2.567 2.195-1.267 1.298-1.21 1.198-1.376 3.354M375.549 517.355l-9.172 9.614 7.426-34.95-10.333 4.565c-.514 3.543.88 11.884 1.354 15.433.595 4.46-1.162 5.148-9.056 7.952-.379 4.65.33 12.837.65 17.736.323 4.972.968 12.65.54 17.465l.323-.125 72.997-32.07-.075-54.637-1.162-.9 1.2-.862.3-27.676c-3.407 1.931-5.925 5.518-9.038 8.1-2.77 2.298-5.668 2.836-9.6 2.776-3.469-.054-6.884-.928-10.35-.788-2.301.092-4.888.489-6.724 1.675 3.763 4.59 6.053 9.485-1.164 11.98-3.103 1.074-1.624 4.399-3.328 7.168-1.081 1.758-3.09 3.122-4.379 4.82-1.602 11.832-3.731 23.886-5.312 35.67-.266 1.98-.92 4.329-5.097 7.054" style="fill:#0062a9;fill-rule:evenodd"></path><path d="M429.438 396.784c-3.539 2.237-6.206 4.433-8.887 6.712-3.502 2.977-7.345 6-10.398 9.057M425.678 415.156c-1.363 1.307-2.49 2.756-3.88 3.922-1.756 1.472-3.787 2.583-5.662 3.9-1.862 1.307-3.7 2.65-5.55 3.975-1.413 1.012-2.946 1.875-4.238 3.037-1.846 1.662-3.737 3.189-5.137 5.4-.266.42-.872.76-1.144 1.969-.085.378.364.256.469.169 1.033-.86 1.895-1.912 2.924-2.775 2.71-2.27 4.576-3.651 9.15-5.288" style="fill:none"></path><path d="M420.55 403.497c2.534-2.154 5.055-4.233 8.31-6.343l-.284.125c.534-.446 1.08-.893 1.654-1.322l-.042-40.348-6.124-3.242c1.515 4.65 1.438 12.169.712 17.776-1.427 11.021-9.938 28.67-14.25 42l-.117.156c3.01-2.97 6.737-5.908 10.142-8.803M430.245 410.42c-1.33 1.385-2.208 2.27-4.71 4.914l.105-.141c-1.347 1.297-2.464 2.73-3.842 3.885-1.756 1.472-3.787 2.583-5.662 3.9-1.862 1.307-3.7 2.65-5.55 3.975-1.413 1.012-2.946 1.875-4.238 3.037-1.846 1.662-3.737 3.189-5.137 5.4-.266.42-.872.76-1.144 1.969-.085.377.364.256.469.169 1.033-.86 1.895-1.912 2.924-2.775 2.654-2.223 4.498-3.594 8.87-5.187l-.313.075c1.8-1.413 3.445-2.358 5.363-2.888 2.46-.679 5.098-1.21 7.613-.787 1.587.266 3.18.086 4.687.45q.3.072.582.152zM388.167 434.544v-.005c-.003-.282-.001-.511.005-.675zm4.2-57.198c1.1-2.664 2.217-5.422 3.45-8.062.648-1.386 1.123-2.68 2.816-4.103l.004-.06c.975-.974 2.25-1.893 3.225-2.868-.213 3.725-.581 7.498-.338 11.419.315 5.067 1.487 10.211 3.15 15.375q.001.812-.028 1.638c2.144-6.369 4.954-13.288 6.773-19.976 1.519-5.588 3.825-11.325 3.6-17.475.028-2.855-.037-6.066-3-7.763-15.543-8.904-30.984-17.503-46.483-26.167l.004.002q.51.3 1.023.605l-3.8 13.945q.045.37.077.734c.73 10.012 3.62 14.472 3.945 17.719.367 3.658-1.137 3.272-2.185 5.236.628 3.299 2.493 3.006 2.686 6.35-1.693 1.967-4.961 2.372-4.054 5.205.552 1.722 2.271 4.654 3.336 6.321l6.261 3.8 1.538.076-.034 10.205c.366 1.986.937 3.396 1.477 5.53 1.5 5.92 2.554 14.53 3.75 20.923.884 4.723 1.635 9.53 2.01 14.435.164 2.129.13 5.111 1.62 6.665l4.926 4.018.051-6.529q.003.246.01.541c.07-2.66.293-4.059.403-5.182.132-1.34 1.5-10.256 1.5-10.256.187-1.688-.075-3.45-.112-5.175-.425-1.338-.537-2.82-1.275-4.013a346 346 0 0 1-2.4-3.937c-.57-.949-.99-2.021-.9-3.525h.675c.562 1.137 1.007 2.286 1.78 3.29 1.07 1.388 2.441 2.871 3.526 4.285 1.616 2.106 2.183 4.237 2.606 6.412l.05-.159c.034-1.493.033-2.98-.234-4.453-.354-1.952-1.101-3.756-2.175-5.55-1.25-2.086-2.275-4.3-3.413-6.45 1.6 1.525 2.789 3.135 3.9 4.575 1.738 2.251 3.331 3.796 3.543 6.291.151-2.652-.059-5.319-.715-7.941-1.752-7.012-2.02-14.179-2.718-21.301-.152-1.543-.441-3.217.15-4.65zM342.813 306.545l-.075-18.975-1.05-.9 1.05-.975-.073-49.006c-6.31-1.504-12.759-2.633-19.291-3.502 1.776 2.614 2.586 4.088.82 9.105-4.32 12.277-.17 5.583-.01 11.418-2.982 1.54-1.621-1.577-3.577 12.698-1.018 2.59-.315 3.483-2.113 6.42-1.354 2.212-2.438 2.4-2.804 5.886-.237 2.261.219 5.822.338 8.247.335 6.79 2.636 6.304 7.668 9.664 6.19 4.134 2.89 3.369 10.718 6.46 1.132.448 4.387 2.515 5.178 3.461l1.743.503.265.076.073.07c5.553 2.417 10.71 4.892 15.722 7.554a4334 4334 0 0 1-14.582-8.204M271.887 246.914c.848-.424-.817-4.24 2.195-7.655.917-1.041 1.087-.606 1.91-1.983-.203-1.909-.836-1.83-.637-4.51-7.566.864-15.107 2.13-22.382 3.842zM272.483 294.394l-12.567-34.985-.374.469.018 34.496c3.884.848 8.391.345 12.34.17a8 8 0 0 0 .583-.15M265.073 377.004l-16.223 7.163c-.368 4.335 1.464 10.95.407 14.383 1.119 2.155.98 10.699 1.124 13.9l1.63 25.771.188.423-.01.13 9.075-4.1c1.598-5.068-.629-5.348 2.927-14.434 4.426-11.314.731-6.323 1.907-14.254.746-5.041 1.966-9.246 2.258-15.185.107-2.197-.006-13.468-3.283-13.797M243.14 414.072l-1.597-20.387c-.22-2.354.025-5.613-.878-5.904l-68.647 30.31.075 54.075 2.1 1.125-2.1 1.275.037 54 55.95 31.425.15-112.539 1.838 1.313 14.905-6.732-.054-.096c.59-4.922-1.173-22.084-1.78-27.865M373.998 459.053l.142 31.467 3.769-15.544-.037.108c.04-.751-1.225-6.998-1.478-8.611-.206-1.305-.476-2.857-.756-4.042-.38-1.612-1.023-1.982-1.515-3.033z" style="fill:#0062a9;fill-rule:evenodd"></path><path d="M196.4 681.575c11.742-17.546 26.062-31.274 43.055-39.82l7.125.421c-2.45 8.665-1.836 16.18-.281 23.344-9.484 7.87-16.845 16.163-23.203 24.657-9.364-2.64-17.937-5.316-26.697-8.602M256.753 633.41c-2.96.48-6.113 1.909-8.883 3.609-.515.316-.719.915-.656 1.453.583.21 1.323.127 2.156.023 2.098-1.829 6.152-3.983 7.383-5.085M304.077 625.721c-.806-.256-1.668-.159-2.601.329-.357.185-.368.29-.211.515.626.9 1.736 1.205 2.883 1.477M323.237 628.92c20.778 5.388 39.332 15.502 56.11 29.39-2.585.922-4.978 1.922-6.938 3.094-12.023-8.565-25.275-14.53-40.548-16.22M397.392 679.591a134 134 0 0 0-11.719 4.594c-2.51-6.7-6.177-13.403-10.687-19.852 1.28-.625 2.422-1.25 3.773-1.805 1.696.149 3.32.227 5.016.375 5.012 5.247 9.357 10.939 13.617 16.688M343.226 651.956c7.828 2.672 16.533 6.48 24.328 10.688 2.168 1.17 3.838 3.199 5.203 5.25 3.293 4.948 6.084 11.063 8.906 17.109-22.455 7.664-45.92 12.008-70.125 13.922-2.93-8.316-6.757-17.058-11.063-26.25 3.917-4.945 8.082-9.867 13.124-14.062M227.531 691.33c5.529-6.875 11.414-13.843 18.657-20.625 1.263-1.183 3.074-1.697 4.922-2.158l32.766 1.313c4.57.867 7.956 2.082 11.39 3.515.928.388 1.441 1.008 1.828 1.828 3.647 7.724 7.121 15.567 10.219 23.813-28.697 1.224-54.836-2.159-79.782-7.686" style="fill:none"></path><path d="M297.638 140.82c-154.71 0-280.126 125.416-280.126 280.125S142.93 701.07 297.638 701.07s280.125-125.417 280.125-280.126c0-154.71-125.416-280.126-280.125-280.126" style="fill:none"></path><path d="M286.34 141.043c-148.303 5.882-266.96 127.06-268.806 276.369v7.066c1.892 153.081 126.574 276.593 280.104 276.593 154.709 0 280.125-125.417 280.125-280.126 0-150.925-119.357-273.973-268.828-279.902zm-182.388 284.12c0-84.506 54.128-156.369 129.606-182.81l-.027-.154-.167-4.34-6.344 2.027c.12-1.065.11-2.291.32-3.295.29-1.392.622-1.657 1.45-2.086.871-2.429.981-1.983 1.431-5.065.37-2.533 1.393-2.706 1.836-4.49-1.127-1.485-2.222-1.934-2.164-4.473.045-1.94 1.014-3.917 2.253-4.12.334-2.878-.194-17.05-.84-19.697-2.01.108-3.267 1.293-4.768.658-1.032-1.776.213-3.898-.092-5.948 1.377-1.994 3.765-19.416 4.14-23.191.474-1.816.774-4.377 1.166-6.375.713-3.63.274-5.388 1.7-6.463 1.605 8.039 3.408 16.644 4.983 24.852l5.903 23.675c-2.235-.183-3.473-2.17-5.96-2.933l1.426 13.845c3.336 1.943 1.53 1.133 3.479 3.823.1.987.288 1.576.014 2.557-.34 1.22-.444.808-.858 1.148-.274 2.065-1.8.993-.926 3.68.58 1.786.722 2.731 1.037 4.676.251 1.547.387 3.175 1.09 4.455.366.666.575.783.951 1.678.098.232.284.818.4 1.052.113.228.155.364.16.44q.093.034.26.123c-.74.35-1.623.64-2.46.919a192 192 0 0 1 32.401-6.553c.199-2.675.436-2.008 1.272-3.72-1.05-1.314-1.408-.816-2.237-2.24.5-1.938 2.177-1.902 3.283-4.109-.507-1.98-2.127-1.751-1.538-3.799.568-1.976 1.92-2.289 2.663-3.671-.427-1.197-.689-1.183-1.655-1.766-.369-5.043 1.626-3.773 3.193-7.21 2.614-5.732-.477-.776 4.033-7.148 1.27-1.796.833-1.507 2.404-2.821 4.734-3.961-.971-3.527 12.978-3.81 5.578-.112 4.801.41 8.11 2.69 2.675 1.844 4.745 2.482 2.963 7.201-.546 1.445-2.867 5.879-3.694 7.169-1.072 1.67-6.154 3.61-3.982 6.193.566.935-.12.235 1.037 1.06.297.212.9.483.999.558 2.208.61 3.237 1.875 4.886 2.872 3.63 2.192 5.195 2.453 8.552 6.397a45 45 0 0 1 3.343 4.494c.523.804 1.007 1.483 1.432 2.097a193 193 0 0 1 19.271 3.568c85.217 20.31 148.588 96.944 148.588 188.38 0 94.955-68.342 173.947-158.521 190.472q-.04.16-.072.33c-1.999 1.172-3.026 1.114-5.536 1.299-1.15 2.688-3.544 8.19-3.381 11.788 20.573 5.42 38.962 15.483 55.604 29.258-2.585.922-4.978 1.922-6.938 3.094-11.669-8.313-24.497-14.176-39.205-16.059.709 1.047 1.151 2.265 2.12 3.066 1.268 1.048 2.613.555 4.214 1.387 1.913.993 1.015 1.078 3.71 1.923 1.442.452 3.202.877 4.248 1.617a1 1 0 0 1-.038.14 169 169 0 0 1 20.096 9.166c2.168 1.17 3.838 3.199 5.203 5.25 3.293 4.948 6.084 11.063 8.906 17.109-22.455 7.664-45.92 12.008-70.125 13.922-2.93-8.316-6.757-17.058-11.063-26.25 3.803-4.8 7.838-9.58 12.684-13.693q-.222.01-.42.041c-1.37-.592-3.593-.656-5.46-.438a56 56 0 0 0-9.931 11.55c-2.774-1.33-5.768-2.415-8.873-3.285-1.576-.009-3.137 1.804-3.318 3.268 3.938.844 7.003 1.96 10.109 3.257.928.388 1.441 1.008 1.828 1.828 3.647 7.724 7.121 15.567 10.219 23.813-28.697 1.224-54.836-2.159-79.782-7.686 5.529-6.875 11.414-13.843 18.657-20.625 1.05-.984 2.479-1.505 3.992-1.917.912-.94 2.506-2.92 3.04-4.173-.995.137-1.937.29-2.818.458-1.002-7.248-1.539-14.672.305-22.407.139-.584.612-1.095 1.125-1.406a120 120 0 0 1 5.145-2.955q-.045-.174-.086-.252c.469-1.938-.65-21.673-1.245-23.632a1 1 0 0 0 .037-.157c-86.798-19.154-151.731-96.545-151.731-189.101M247.87 637.019c2.77-1.7 5.923-3.13 8.883-3.61-1.231 1.103-5.285 3.257-7.383 5.086-.833.104-1.573.187-2.156-.023-.063-.538.14-1.137.656-1.453m-53.304-19.92c2.824 1.45 2.615 4.872 1.127 7.66l-2.015 3.748c-.549 1.02-.824 2.252-2.94 2.764.52 1.678.324 2.702-.406 4.14l-2.476 4.879c-.468.922-2.855 3.984-6.47 2.268-3.097-1.47-2.675-4.966-1.832-6.554l2.434-4.587 3.031 1.592-2.483 4.562c-.23.423-.248 1.503.305 1.797.51.272 1.496-.03 1.7-.429l3.177-6.23c.218-.428.282-.733-.21-1.008l-1.135-.634 1.687-3.194 1.145.419c.521.19.827-.252 1.054-.68l2.964-5.6c.297-.559.654-1.607-.186-2.09-1.148-.662-1.763.496-1.912.779l-2.918 5.556-3.03-1.573 2.626-5.148c1.342-2.63 4.052-3.83 6.763-2.438m1.833 64.476c11.743-17.546 26.063-31.274 43.056-39.82l7.125.422c-2.45 8.664-1.836 16.18-.281 23.343-9.484 7.87-16.845 16.163-23.203 24.657-9.364-2.64-17.937-5.316-26.697-8.602m-60.434-69.025 15.219-18.634-.955-.81 2.43-2.95 3.778 3.12-17.534 21.662zm17.509.356 7.385-10.632c.903-1.3 3.46-3.478 6.52-1.368 2.846 1.964 2.74 4.336.476 7.597l-9.53 13.719c-2.262 3.257-4.091 4.178-7.035 2.33-2.374-1.489-2.976-4.31-1.911-5.897l.954-1.421 2.764 1.902-.871 1.356c-.261.406-.081 1.1.564 1.557.471.333 1.325.392 1.567.05l1.645-2.319c-.504-.372-1.157-.849-1.79-1.299-1.291-.917-2.003-3.753-.738-5.575m-28.345-31.595 4.421 4.478-1.218 1.225-4.42-4.533zm-8.001-29.085 4.381 5.71-2.864 2.4-2.412-2.936-6.747 5.164 2.207 2.7-2.704 2.158-2.3-2.701-6.917 5.247 2.319 2.814-2.834 2.138-4.344-5.655zm-14.4-12.066c2.982-1.939 5.73-1.017 7.027.774.94 1.297 1.688 4.496-.606 6.078l-5.721 3.943-2.098-2.671 5.675-4.134c.576-.42.538-1.15.175-1.576-.385-.454-1.056-.733-1.65-.337l-16.503 11.015c-.804.536-.944 1.337-.452 1.943.541.665 1.099.48 1.476.241l5.69-3.622 1.891 2.747-4.338 3.027c-3.158 2.203-5.71 1.68-7.357-.63-1.515-2.124-1.541-4.876 1.911-7.122zm-4.72-18.211 1.626 2.922-9.374 7.399.275.444 10.381-5.82 1.631 3.02-24.276 13.25-1.794-3.204 9.137-7.124-.257-.407-9.975 5.47-1.78-3.095zm-4.914-11.269 1.486 3.223-25.463 11.52-1.486-3.213zm-10.687-15.454c3.545-1.288 5.273.968 5.886 2.296 1.051 2.275.174 5.217-2.743 6.412l-5.875 2.33-1.246-3.212 6.38-2.572c.793-.319.91-.891.655-1.477-.243-.56-.967-.813-1.514-.619l-5.75 2.036c-.959.34-1.336.532-1.22 1.676.21 2.053.58 4.803-1.814 5.72l-7.301 2.797c-2.194.84-5.1.583-6.348-2.868-1.34-3.707 1.385-5.344 2.605-5.802l6.19-2.326 1.15 3.381-6.26 2.333c-.441.164-.878.99-.607 1.526.326.641 1.033.787 1.446.635l6.65-2.443c.441-.162.597-.682.614-1.685.005-.357-.124-1.113-.12-1.895.007-1.984 1.046-3.274 2.592-3.836zm96.035 113.203 4.192 2.537-14.188 23.986-3.255-1.934 12.34-20.654-1.062-.66zm196.544 55.904c1.28-.625 2.422-1.25 3.773-1.805 1.695.149 3.32.227 5.016.375 5.012 5.247 9.357 10.939 13.617 16.688a134 134 0 0 0-11.719 4.594c-2.51-6.7-6.177-13.403-10.687-19.852m178.03-241.073.089-9.583 7.138-.02-.03 16.515-7.926-.055-42.068-9.439.042 9.704-7.195-.1-.017-16.552 8.087-.06zM483.96 336.89l-3.624-6.42 5.143-3.922-2.607-4.634-5.968 2.458-3.602-6.558 53.747-21.288 3.617 6.34zm5.426 13.278 54.14-18.419 2.518 6.887-47.58 16.087 2.543 7.173-7.067 2.145zM397.92 245.54l7.343-13.356c.716-1.302.394-2.69-.973-3.446l-.961-.532-8.446 15.724-6.488-3.632 27.79-50.2 9.274 5.133c6.318 3.498 5.156 6.367 2.586 11.145-2.945 5.476-5.817 11.873-9.435 16.91-1.033 1.436-2.838 3.005-4.8 3.466.76 4.32-1.227 6.987-2.9 10.036l-6.69 12.196zm25.02 3.41 23.418-29.797c3.216-4.093 8.919-6.063 14.172-1.737 5.275 4.344 3.88 10.245 2.047 12.516l-24.544 31.353c-2.91 3.72-7.66 7.409-14.249 2.455-5.925-4.455-4.228-10.486-.845-14.79m-65.278-20.641 19.53-54.258 10.63 4.049c7.18 2.734 4.902 7.322 3.854 10.152l-9.158 24.722c-1.497 4.042-4.385 3.948-8.046 2.65l-3.93-1.393-5.954 16.64zm97.79 64.61 45.903-34.904 6.718 9.18c4.536 6.198.13 8.81-2.29 10.614l-21.132 15.764c-3.454 2.577-5.827.926-8.193-2.154l-2.54-3.306-14.048 10.723zm42.411 84.86 57.763-2.307 1.316 7.18-55.333 16.655-1.296-7.257 6.152-2-.927-5.236-6.445.345zm1.76 83.8 2.51-16.492 7.964 1.28 39.965 15.771 1.527-9.46 7.06 1.052-2.51 16.323-7.828-1.244-40.172-15.65-1.416 9.6zm.482 35.74c-4.491-1.458-9.587-4.653-7.195-12.54 2.152-7.095 8.399-7.57 13.602-5.87l36.025 11.771c4.948 1.618 8.755 6.297 6.494 12.717-2.27 6.444-8.291 7.158-11.053 6.217zm-21.768 23.637 6.59-13.03 51.307 25.26-3.09 6.65-45.019-22.27-3.274 6.87zm-10.371 33.749c-3.844-2.745-7.74-7.327-3.082-14.127 4.189-6.116 10.289-4.687 14.737-1.498l30.804 22.08c4.23 3.032 6.45 8.642 2.36 14.082-4.105 5.46-10.062 4.328-12.412 2.597z" style="fill:#0062a9;fill-rule:evenodd"></path><path d="m164.087 603.764-7.922 11.178c-.28.394-.121 1.338.368 1.677.468.325 1.334.212 1.858-.538l7.678-10.99c.257-.368.212-1.102-.481-1.578-.492-.336-1.221-.144-1.501.25M372.779 207.41l1.371.489c1.85.66 2.826-.27 3.45-1.962l6.873-18.662c.475-1.29 0-2.478-.751-2.796l-2.195-.93zM418.998 199.991l-11.27 19.858 1.325.877c1.086.72 2.795.422 3.368-.616l8.637-15.644c.944-1.708.548-2.884-.107-3.284zM453.59 222.19l-26.2 33.037c-.81 1.021-.638 2.604.216 3.286.94.751 2.43.983 3.007.253l26.53-33.563c.578-.732.113-2.1-.815-2.842-.97-.775-2.11-.964-2.738-.172M499.826 268.343l-20.32 15.263.885 1.156c1.194 1.56 2.517 1.31 3.961.23l15.92-11.92c1.1-.824 1.348-2.08.89-2.756zM503.224 313.675l-13.638 5.473 1.892 3.19 11.844-8.485zM527.469 383.772l-14.68.654.73 3.636 13.983-4.09zM542.167 498.516l-40.022-13.272c-1.237-.41-2.665.295-3.013 1.331-.383 1.141-.09 2.62.794 2.911l40.629 13.401c.886.292 2.012-.614 2.39-1.74.395-1.178.182-2.312-.778-2.63M507.712 568.52l-34.163-24.715c-1.056-.764-2.63-.522-3.273.361-.71.973-.875 2.471-.12 3.015l34.702 25.02c.757.546 2.104.021 2.803-.938.732-1.004.87-2.15.051-2.743M303.862 625.662c.235-2.062.69-4.92.406-6.997-2.216.076-4.926.149-6.666.149-1.739 0-2.458-.044-3.696-.068-1.8 2.537-5.148 2.773-6.717 4.364 1.026 2.55 1.699-.426 1.847 6.334l.001.113c4.65.128 9.431.906 14.376 2.463a1.3 1.3 0 0 0-.194-.285c.998-.31.436.257.896-.783l-.166-2.958c-1.075-.261-2.094-.58-2.684-1.429-.156-.224-.146-.33.21-.515.852-.445 1.643-.565 2.387-.388M266.943 633.564c1.652-2.401.173-5.04-.461-7.438-.342-1.295-.448-2.74-1.11-3.74-.449-.678-1.6-1.89-2.216-2.292-.172 3.455.28 11.571.89 14.365l.015.383a77 77 0 0 1 2.973-1.22 1 1 0 0 0-.091-.058" style="fill:#0062a9;fill-rule:evenodd" data-source="https://football-logos.cc"></path><!-- source: https://football-logos.cc --></svg>