<svg xmlns="http://www.w3.org/2000/svg" viewBox="144.09 31.13 735.44 957.4"><!-- Source: https://football-logos.cc --><path fill="#c4a968" fill-rule="evenodd" d="M878.98 163.86a.714.708 6.711 0 1 .55.69q-.11 40.12-.91 73.2-.56 23.11-1.91 42-2.12 29.49-3.37 44.56c-2.58 31.11-6.29 60.44-11.5 88.62-3.15 16.99-6.55 35.76-10.79 54.1q-8.23 35.61-17.9 67.19-8.84 28.91-15.6 47.87-6.17 17.35-17.18 44.31-8 19.63-21.45 47.31-2.24 4.61-4.61 8.92-1.71 3.11-4.62 8.89-16.77 33.35-44.13 75.53-11.03 17.01-22.97 33.29-28 38.2-54.88 67.38-6.64 7.21-12.87 13.87-21.17 22.63-51.15 49.6-5.34 4.81-16.39 14.33-5.93 5.11-10.14 8.36c-4.65 3.59-8.14 6.83-13.55 11.14q-17.08 13.55-30.34 23.16a1.846 1.835 45.87 0 1-2.2-.04q-.08-.07-1.48-1.08-5.04-3.66-28.41-22.21-35.83-28.44-69.19-61.03Q332 825.67 275.61 728.45c-6.39-11.01-9.23-15.44-14.27-25q-19.49-37.03-30.57-62.41-27.5-63-45.94-129.85-21.27-77.15-30.39-153.97-7.4-62.32-9.21-121.22-1.21-39.61-1.14-70.73a1.27 1.27 84.68 0 1 1.02-1.23q21.32-4.21 48.63-10.63 52.73-12.38 103.34-29.37 12.19-4.1 23.77-8.35 13.05-4.81 23.63-8.74 42.48-15.8 88.36-37.14 22.12-10.29 29.67-14.08c7.77-3.89 20.13-10.19 28.66-14.25q9.12-4.34 19.52-10.16a1.527 1.524 45.713 0 1 1.51.02q4.11 2.45 7.56 4.15 17.29 8.53 34.16 16.8c20.35 9.98 43.64 20.63 66.54 29.95q37.53 15.28 46.79 18.72 17.91 6.65 44.33 16.16 15.48 5.57 53 17.3 5.81 1.81 35.99 10.28c25.42 7.13 50.24 12.95 78.41 19.16M510.92 58.68c-15.75 8.33-28.25 14.02-43.77 21.58q-7.56 3.69-16.4 7.75-29.65 13.64-57.3 25.43-25.72 10.96-77.21 30.02-13.12 4.85-64.74 20.79c-7.04 2.17-13.37 3.3-20.25 5.34-7.01 2.07-16.95 4.43-25.44 6.56q-5.51 1.39-10.31 2.3c-8.44 1.62-16.21 3.84-25.17 5.39a.801.8 85.345 0 0-.67.79q-.15 28.37.81 53.72c.32 8.68.34 17.12.91 26.63q1.58 25.88 3.99 54.97c2.51 30.19 7.1 61.99 11.93 88.79q6.31 35.07 9.96 50.31 8.01 33.43 11.51 46.23 12.95 47.3 30.18 91.44 3.02 7.73 4.68 11.57c4.44 10.31 7.7 18.88 12.22 28.74q25.27 55.19 56.58 105.07 11.43 18.21 28.19 41.9c5.17 7.31 9.31 12.44 16.63 22.08q17.26 22.74 43.42 51.45 21.15 23.21 47.63 47.23 25.28 22.92 58.09 49.1 2.9 2.31 5.36 3.84a.957.949 42.037 0 0 1.06-.05q43.08-32.19 81.38-69.47 21.44-20.89 35.31-36.43 25.11-28.16 49.13-59.87c5.33-7.04 10.97-15.02 16.42-23.19q13.53-20.27 15.72-23.65 10.4-16 24.89-41.87 2.42-4.32 16.8-31.28c5.57-10.46 8.49-17.51 14.56-30.61q9.86-21.27 19.71-46.42c6.75-17.22 14.34-39.27 18.89-53.69q3.81-12.06 13.96-48.78c2.96-10.7 4.34-18.16 7.17-30.33q2.86-12.26 7.45-35.92 3.1-15.97 5.51-31.88 4.22-27.92 4.7-32.03 6.4-54.94 8.43-111.97 1.12-31.47 1.33-65.53a1.364 1.36-83.64 0 0-1.06-1.33q-31.8-7.29-64.38-16.13c-7.36-2-14.1-4.51-20.98-6.24-7.56-1.89-17.43-5.67-26.55-8.42q-15.4-4.65-37.98-12.66c-5.28-1.87-15.33-5.2-22.66-8.03q-47.4-18.28-51.65-20.1c-19.14-8.21-37.53-15.57-57.05-24.45q-28.55-13-59.71-28.7a1.354 1.344 44.312 0 0-1.23.01" data-source="https://football-logos.cc"></path><path fill-rule="evenodd" d="M512.15 58.67q31.16 15.7 59.71 28.7c19.52 8.88 37.91 16.24 57.05 24.45q4.25 1.82 51.65 20.1c7.33 2.83 17.38 6.16 22.66 8.03q22.58 8.01 37.98 12.66c9.12 2.75 18.99 6.53 26.55 8.42 6.88 1.73 13.62 4.24 20.98 6.24q32.58 8.84 64.38 16.13a1.364 1.36-83.64 0 1 1.06 1.33q-.21 34.06-1.33 65.53-2.03 57.03-8.43 111.97-.48 4.11-4.7 32.03-2.41 15.91-5.51 31.88-4.59 23.66-7.45 35.92c-2.83 12.17-4.21 19.63-7.17 30.33q-10.15 36.72-13.96 48.78c-4.55 14.42-12.14 36.47-18.89 53.69q-9.85 25.15-19.71 46.42c-6.07 13.1-8.99 20.15-14.56 30.61q-14.38 26.96-16.8 31.28-14.49 25.87-24.89 41.87-2.19 3.38-15.72 23.65c-5.45 8.17-11.09 16.15-16.42 23.19q-24.02 31.71-49.13 59.87-13.87 15.54-35.31 36.43-38.3 37.28-81.38 69.47a.957.949 42.037 0 1-1.06.05q-2.46-1.53-5.36-3.84-32.81-26.18-58.09-49.1-26.48-24.02-47.63-47.23-26.16-28.71-43.42-51.45c-7.32-9.64-11.46-14.77-16.63-22.08q-16.76-23.69-28.19-41.9-31.31-49.88-56.58-105.07c-4.52-9.86-7.78-18.43-12.22-28.74q-1.66-3.84-4.68-11.57-17.23-44.14-30.18-91.44-3.5-12.8-11.51-46.23-3.65-15.24-9.96-50.31c-4.83-26.8-9.42-58.6-11.93-88.79q-2.41-29.09-3.99-54.97c-.57-9.51-.59-17.95-.91-26.63q-.96-25.35-.81-53.72a.801.8 85.345 0 1 .67-.79c8.96-1.55 16.73-3.77 25.17-5.39q4.8-.91 10.31-2.3c8.49-2.13 18.43-4.49 25.44-6.56 6.88-2.04 13.21-3.17 20.25-5.34q51.62-15.94 64.74-20.79 51.49-19.06 77.21-30.02 27.65-11.79 57.3-25.43 8.84-4.06 16.4-7.75c15.52-7.56 28.02-13.25 43.77-21.58a1.354 1.344 44.312 0 1 1.23-.01m276.74 470.64.34-.02q.53-.24.41-.79-.08-.36-.39-.3 1.07-2.72 1.38-3.88 4.24-15.57 5.34-18.97 2.41-7.41 4.45-16.52.65-2.89 4.31-16.59 2.15-8.06 9.78-43.54c1.86-8.64 3.15-18.92 4.99-28.4q2.3-11.83 3.54-21.31 6.28-47.7 7.93-68.5 4.09-51.5 4.28-109.7a.794.792-83 0 0-.6-.77l-52.5-13.13a.419.414 7.099 0 0-.52.4v16.47a.76.75-90 0 1-.75.76h-57.23a.75.75 45 0 1-.75-.75v-34.93a1.905 1.901 9.438 0 0-1.29-1.8l-56.53-19.63a.57.56-80.266 0 0-.75.54v55.74a.88.88-53.173 0 1-.88.88H602.9a.81.81 89.947 0 1-.81-.81v-80.33a1.742 1.724-77.876 0 0-1.01-1.58l-57.5-25.91a.601.6-75.72 0 0-.84.5q-.49 5.73-.54 11.56-.3 37.79-.21 88.76.01 5.72-.44 7.36a.659.65-82.466 0 1-.63.49h-56.66a.89.89-89.682 0 1-.89-.9c.1-31.38-.54-62.89-.34-95.45q0-1.25-1.16-12a.414.411-11.879 0 0-.54-.35q-4.1 1.35-6.81 2.62-15.88 7.48-31.89 14.36-.5.21-15.22 7.16a1.449 1.444 77.459 0 0-.83 1.31v82.12a1.16 1.16 45 0 1-1.16 1.16h-60.87a.75.74 0 0 1-.75-.74v-55.94a.633.63-10.074 0 0-.85-.59l-57.44 21.01a1.663 1.661-10.086 0 0-1.09 1.56v34.53a.74.74 45 0 1-.74.74h-57.5a.72.72 45 0 1-.72-.72v-15.85a.618.617-6.671 0 0-.76-.6l-52.77 12.28a.818.812 84.5 0 0-.63.77q-.25 8-.19 16.66.54 76.87 10.75 154.14c1.46 11.08 3.11 19.97 4.61 30.08q1.43 9.65 3.87 22.49 12.08 63.64 33.14 124.9a.468.467 35.546 0 0 .91-.15V301.38a.91.9-90 0 1 .9-.91H305a.58.58 35.526 0 1 .58.58q.11 128.34-.02 385.45 0 3.98.62 5.59 2.02 5.23 8.35 16.23 2.92 5.07 13.99 22.77c10.94 17.48 22.03 32.86 34.08 48.97a.395.392 26.808 0 0 .71-.23V300.9a.47.46 0 0 1 .47-.46h60.19a.86.86 44.985 0 1 .86.86v275.41a.41.409-10.755 0 0 .56.38l55.48-21.96a1.108 1.093 79.596 0 0 .7-1.03V301.36a.86.86-45 0 1 .86-.86h59.97a.81.8 0 0 1 .81.8v251.72a1.332 1.329 10.631 0 0 .85 1.24c4.54 1.79 9.1 3.9 13.8 5.7q32.93 12.62 37.12 14 5.53 1.83 6.11 2.02a.465.464 9.105 0 0 .61-.44V301.23a.73.73 44.994 0 1 .73-.73h60.69a.44.44 44.987 0 1 .44.44v479.68a.388.387 63.112 0 0 .7.23q11.79-16.27 17.09-23.74 19.23-27.11 34.85-53.43.84-1.42 4.2-8.81a1.58 1.578-32.875 0 0 .14-.65l.46-393.09a.69.69 25.235 0 1 .69-.69h60.6a.58.58 17.641 0 1 .58.58q-.04 123.35-.05 246.73 0 .66.39.36a.232.186 83.736 0 0 .07-.11zM515.25 853.08q41.21-28.67 68.44-71.09c2.07-3.23 4.94-7.4 7.22-11.47q6.38-11.41 13.36-26.42 2.12-4.58 4.17-10.32l3.75-10.51q11.93-33.92 14.93-71.02 1.03-12.79 1.53-22.5.81-15.73-.2-32.18a.664.651-82.737 0 0-.44-.58c-9.93-3.51-18.97-6.14-29.02-9.79q-42.97-15.61-84.46-34.56a1.542 1.515 44.488 0 0-1.25 0q-20.78 9.32-28.77 12.81-14.2 6.21-16.37 6.94c-6.27 2.08-13.12 5.3-20.73 8.22q-2.89 1.11-19.49 7.04c-10.05 3.6-17.16 5.63-28.28 9.51a.49.477-8.884 0 0-.33.44q-.88 31.94 2.26 61.04c1.75 16.09 4.98 31.44 8.61 45.93 3.1 12.41 7.49 24.35 12.53 37.14 7.92 20.06 19.09 38.72 32.54 56.04 15.42 19.84 33.01 37.47 52.89 51.7q3.46 2.48 5.83 3.71a1.24 1.226-48.256 0 0 1.28-.08m-89.65-75.5q-.97 29.1-.72 60.25c.04 5.11.63 11.71.7 17.64a1.465 1.416 24.595 0 0 .36.92q1.24 1.41 4.78 5.14 23.59 24.87 50.19 46.67a.27.269-70.417 0 0 .44-.21q.08-29.66-.04-55.49-.02-5.38-.44-11.49a1.254 1.244-73.069 0 0-.47-.89q-1.78-1.44-12.2-11.33-24.31-23.07-42.19-51.32a.223.222-59.881 0 0-.41.11m174.76 2.78a.306.305 61.779 0 0-.56-.17q-9.8 14.92-19.99 26.63-15.17 17.44-21.52 23.22-12.82 11.69-13.95 12.8a2.255 2.244-22.604 0 0-.66 1.59v65.08a.424.423-20.353 0 0 .7.32q9.4-8 23.77-20.71 5.2-4.59 11.58-10.88c6.36-6.26 13.5-13.09 19.71-20.44a3.914 3.899 65.169 0 0 .92-2.52z"></path><path fill="#fefefe" fill-rule="evenodd" d="M789.25 528.2q-.43.51-.36 1.11L783.28 548a.232.186 83.736 0 1-.07.11q-.39.3-.39-.36.01-123.38.05-246.73a.58.58-19.197 0 0-.58-.58h-60.6a.69.69-8.124 0 0-.69.69l-.46 393.09a1.58 1.578-32.875 0 1-.14.65q-3.36 7.39-4.2 8.81-15.62 26.32-34.85 53.43-5.3 7.47-17.09 23.74a.388.387 63.112 0 1-.7-.23V300.94a.44.44-44.976 0 0-.44-.44h-60.69a.73.73 44.947 0 0-.73.73v274.31a.465.464 9.105 0 1-.61.44q-.58-.19-6.11-2.02-4.19-1.38-37.12-14c-4.7-1.8-9.26-3.91-13.8-5.7a1.332 1.329 10.631 0 1-.85-1.24V301.3a.81.8 0 0 0-.81-.8h-59.97a.86.86 45 0 0-.86.86V554.1a1.108 1.093 79.596 0 1-.7 1.03l-55.48 21.96a.41.409-10.755 0 1-.56-.38V301.3a.86.86-44.94 0 0-.86-.86h-60.19a.47.46 0 0 0-.47.46v478.93a.395.392 26.808 0 1-.71.23c-12.05-16.11-23.14-31.49-34.08-48.97q-11.07-17.7-13.99-22.77-6.33-11-8.35-16.23-.62-1.61-.62-5.59.13-257.11.02-385.45a.58.58-2.432 0 0-.58-.58h-59.71a.91.9-90 0 0-.9.91v247.83a.468.467 35.546 0 1-.91.15q-21.06-61.26-33.14-124.9-2.44-12.84-3.87-22.49c-1.5-10.11-3.15-19-4.61-30.08q-10.21-77.27-10.75-154.14-.06-8.66.19-16.66a.818.812 84.5 0 1 .63-.77l52.77-12.28a.618.617-6.671 0 1 .76.6v15.85a.72.72 45 0 0 .72.72h57.5a.74.74 45 0 0 .74-.74v-34.53a1.663 1.661-10.086 0 1 1.09-1.56l57.44-21.01a.633.63-10.074 0 1 .85.59v55.94a.75.74 0 0 0 .75.74h60.87a1.16 1.16-45 0 0 1.16-1.16v-82.12a1.449 1.444 77.459 0 1 .83-1.31q14.72-6.95 15.22-7.16 16.01-6.88 31.89-14.36 2.71-1.27 6.81-2.62a.414.411-11.879 0 1 .54.35q1.16 10.75 1.16 12c-.2 32.56.44 64.07.34 95.45a.89.89-89.682 0 0 .89.9h56.66a.659.65-82.466 0 0 .63-.49q.45-1.64.44-7.36-.09-50.97.21-88.76.05-5.83.54-11.56a.601.6-75.72 0 1 .84-.5l57.5 25.91a1.742 1.724-77.876 0 1 1.01 1.58v80.33a.81.81 89.947 0 0 .81.81h60.55a.88.88-78.747 0 0 .88-.88v-55.74a.57.56-80.266 0 1 .75-.54l56.53 19.63a1.905 1.901 9.438 0 1 1.29 1.8v34.93a.75.75-45 0 0 .75.75h57.23a.76.75 90 0 0 .75-.76v-16.47a.419.414 7.099 0 1 .52-.4l52.5 13.13a.794.792-83 0 1 .6.77q-.19 58.2-4.28 109.7-1.65 20.8-7.93 68.5-1.24 9.48-3.54 21.31c-1.84 9.48-3.13 19.76-4.99 28.4q-7.63 35.48-9.78 43.54-3.66 13.7-4.31 16.59-2.04 9.11-4.45 16.52-1.1 3.4-5.34 18.97-.31 1.16-1.38 3.88M544.16 225.08a.434.43 33.925 0 0-.11-.55c-21.45-17.26-52.29-6.59-59.51 19.8-3.9 14.24 1.59 29.32 13.28 38.18 12.81 9.72 31.65 9.52 45.03.44a3.734 3.71-17.147 0 0 1.64-3.08v-25.69a1.25 1.25-45 0 0-1.25-1.25h-12.23a.76.76 0 0 0-.76.76v18.68a.9.9-13.518 0 1-.49.8c-8.69 4.5-20.55 2.2-26.56-5.37q-9.73-12.25-2.2-26.22c3.1-5.75 9.72-10.13 16.64-10.74q10.75-.95 18.73 6.6a.459.453-53.468 0 0 .71-.11zm-228.495 47.67q10.461.031 13.645.338a.659.655 3.009 0 1 .59.652v14.25a.7.7 5.873 0 0 .7.7h13.34a.58.58 87.568 0 0 .58-.58l.15-42.86c-.06-13.08-9.52-24.27-21.908-27.524q-2.467-.647-6.933-.66t-6.935.619c-12.408 3.181-21.934 14.315-22.071 27.394l-.103 42.86a.58.58-83.954 0 0 .577.584l13.34.079a.7.7 17.737 0 0 .704-.696l.084-14.25a.659.655-2.671 0 1 .593-.648q3.187-.289 13.647-.258m254.415-29.68a.559.554 30.202 0 1 1.04-.27l26.13 45.25a1.065 1.043-14.466 0 0 .92.53h14.65a.88.88 11.246 0 0 .88-.88v-69.61a.91.91 2.925 0 0-.91-.91h-13.32a.66.66-4.131 0 0-.66.66v44.04a.383.377 58.638 0 1-.04.17q-.14.24-.22.28a.256.256-89.886 0 1-.35-.09l-26.65-44.32a1.402 1.391 74.145 0 0-1.19-.67h-14.83a.47.46-90 0 0-.46.47v70.14a.72.72-10.334 0 0 .72.72h13.33a.97.96-90 0 0 .96-.97zm94.42 16.81a.63.63-78.757 0 0 .63-.63v-13.08a.63.63 74.863 0 0-.63-.63h-23.13a.63.63-.028 0 1-.63-.63v-12.89a.63.63 36.836 0 1 .63-.63h33.26a.63.63-.028 0 0 .63-.63v-12.91a.63.63-15.158 0 0-.63-.63h-48.18a.63.63-78.757 0 0-.63.63v70.14a.63.63 74.863 0 0 .63.63h48.93a.63.63 11.246 0 0 .63-.63v-13.01a.63.63-15.158 0 0-.63-.63H641.3a.63.63-56.241 0 1-.63-.63v-13.21a.63.63-53.175 0 1 .63-.63zm-434.65-42.63a.64.64-45 0 0-.64.64v70.04a.64.64 45 0 0 .64.64h49.17a.64.64-67.542 0 0 .64-.64V274.9a.64.64-84.111 0 0-.64-.64H244.8a.64.64-45 0 1-.64-.64v-55.73a.64.64 67.379 0 0-.64-.64zm151.166 71.321q5.228.01 6.873-.092a.703.699-82.493 0 0 .621-.479l23.14-70.1a.456.454-80.745 0 0-.43-.6h-14.94a1.01 1.01 8.02 0 0-.97.73q-2.47 9.02-4.81 16.04c-3.37 10.08-5.6 19.08-9.311 29.25q-.025.067-.124.067t-.123-.067c-3.671-10.185-5.866-19.194-9.196-29.287q-2.312-7.029-4.747-16.059a1.01 1.01-7.795 0 0-.967-.733l-14.94-.059a.456.454 80.97 0 0-.432.598l22.864 70.191a.703.699 82.719 0 0 .619.481q1.645.109 6.873.119m65.126-15.735q8.784.005 12.803.168a1.127 1.124-88.773 0 1 1.075 1.126v13.81a.7.69 0 0 0 .7.69h13.16a.74.74-89.608 0 0 .74-.73q.11-22.5 0-43.9c-.05-10.89-7.61-20.42-17.354-24.789q-4.577-2.055-11.09-2.059t-11.093 2.045c-9.749 4.358-17.32 13.879-17.384 24.769q-.135 21.399-.053 43.9a.74.74 89.677 0 0 .74.73l13.16.016a.7.69.069 0 0 .7-.689l.017-13.81a1.127 1.124 88.842 0 1 1.077-1.125q4.019-.157 12.802-.152M734.94 217.28q-2.51.02-21.97-.1-14.01-.09-16.73.71c-20.44 5.98-21.08 34.35-.86 41.23q3.52 1.2 9.62 1.12l9.73-.14c5.55-.1 10.73 3.99 8.47 9.91-1.01 2.63-4.28 4.34-6.95 4.34q-22.88-.02-31.36.1a.65.64 89.552 0 0-.63.65v12.79a.7.7 5.873 0 0 .7.7q13.49.01 29.23.09 7.16.03 10.79-1.54 7.59-3.3 10.76-9.52c3.08-6.05 3.29-14.62.08-20.45-4.79-8.69-12.49-11.83-22.29-11.59q-4.01.1-11.01-.07-3.8-.1-5.71-2.35c-2.78-3.27-2.08-8.28 1.73-10.66q1.73-1.08 5.65-1.1 18.51-.06 30.63.07a.72.72.392 0 0 .73-.72v-12.87a.61.6 0 0 0-.61-.6m12.837 35.608q.015 34.106.079 34.926a.796.794-2.096 0 0 .794.736l47.91.02a.67.67-8.168 0 0 .67-.67v-12.97a.58.57 0 0 0-.58-.57h-33.22a.7.69 90 0 1-.69-.7v-13.12a.41.41-56.701 0 1 .41-.41h23.1a.517.514-88.053 0 0 .513-.482q.144-2.209.142-6.777t-.148-6.776a.517.514 88.002 0 0-.513-.482l-23.1.02a.41.41 77.19 0 1-.411-.409l-.011-13.12a.7.69 89.949 0 1 .689-.701l33.22-.029a.58.57-.051 0 0 .58-.571l-.012-12.97a.67.67-11.186 0 0-.67-.669l-47.91.062a.796.794 2.046 0 0-.794.737q-.063.82-.048 34.925"></path><path fill-rule="evenodd" d="m544.16 225.08-7.08 12.25a.459.453-53.468 0 1-.71.11q-7.98-7.55-18.73-6.6c-6.92.61-13.54 4.99-16.64 10.74q-7.53 13.97 2.2 26.22c6.01 7.57 17.87 9.87 26.56 5.37a.9.9-13.518 0 0 .49-.8v-18.68a.76.76-45 0 1 .76-.76h12.23a1.25 1.25-45 0 1 1.25 1.25v25.69a3.734 3.71-17.147 0 1-1.64 3.08c-13.38 9.08-32.22 9.28-45.03-.44-11.69-8.86-17.18-23.94-13.28-38.18 7.22-26.39 38.06-37.06 59.51-19.8a.434.43 33.925 0 1 .11.55M315.829 217.066q4.466.013 6.933.66c12.388 3.254 21.848 14.444 21.908 27.524l-.15 42.86a.58.58-54.474 0 1-.58.58H330.6a.7.7 29.849 0 1-.7-.7v-14.25a.659.655 3.009 0 0-.59-.652q-3.184-.307-13.645-.338t-13.647.258a.659.655-2.671 0 0-.593.648l-.084 14.25a.7.7 33.18 0 1-.704.696l-13.34-.079a.58.58-59.819 0 1-.577-.584l.103-42.86c.137-13.079 9.663-24.213 22.071-27.394q2.47-.632 6.935-.619m-13.046 41.478 26.04.091a1.23 1.23-2.397 0 0 1.234-1.225l.041-11.81a14.04 13.87-89.8 0 0-13.821-14.089l-.76-.002a14.04 13.87-89.8 0 0-13.919 13.991l-.041 11.81a1.23 1.23 83.01 0 0 1.226 1.234M570.08 243.07v44.54a.97.96 90 0 1-.96.97h-13.33a.72.72 38.179 0 1-.72-.72v-70.14a.47.46-90 0 1 .46-.47h14.83a1.402 1.391 74.145 0 1 1.19.67l26.65 44.32a.256.256 81.334 0 0 .35.09q.08-.04.22-.28a.383.377 58.638 0 0 .04-.17v-44.04a.66.66 15.532 0 1 .66-.66h13.32a.91.91 20.29 0 1 .91.91v69.61a.88.88 36.831 0 1-.88.88h-14.65a1.065 1.043-14.466 0 1-.92-.53l-26.13-45.25a.559.554 30.202 0 0-1.04.27M664.5 259.88h-23.2a.63.63-78.757 0 0-.63.63v13.21a.63.63 74.863 0 0 .63.63h34.08a.63.63 33.746 0 1 .63.63v13.01a.63.63 36.847 0 1-.63.63h-48.93a.63.63-56.241 0 1-.63-.63v-70.14a.63.63-53.175 0 1 .63-.63h48.18a.63.63 33.746 0 1 .63.63v12.91a.63.63.028 0 1-.63.63h-33.26a.63.63 11.261 0 0-.63.63v12.89a.63.63.028 0 0 .63.63h23.13a.63.63-56.241 0 1 .63.63v13.08a.63.63-53.175 0 1-.63.63M229.85 217.25h13.67a.64.64 67.35 0 1 .64.64v55.73a.64.64 45 0 0 .64.64h34.22a.64.64-60.146 0 1 .64.64v13.03a.64.64-67.718 0 1-.64.64h-49.17a.64.64 45 0 1-.64-.64v-70.04a.64.64 45 0 1 .64-.64M381.065 263.387q.099 0 .124-.067c3.711-10.17 5.941-19.17 9.311-29.25q2.34-7.02 4.81-16.04a1.01 1.01 8.02 0 1 .97-.73h14.94a.456.454-80.745 0 1 .43.6L388.51 288a.703.699-82.493 0 1-.621.479q-1.645.102-6.873.092t-6.873-.119a.703.699 82.719 0 1-.619-.481L350.66 217.78a.456.454 80.97 0 1 .432-.598l14.94.059a1.01 1.01-7.795 0 1 .967.733q2.435 9.03 4.747 16.059c3.33 10.093 5.525 19.102 9.196 29.287q.024.067.123.067M446.176 217.152q6.513.004 11.09 2.059C467.01 223.58 474.57 233.11 474.62 244q.11 21.4 0 43.9a.74.74-89.608 0 1-.74.73h-13.16a.7.69 0 0 1-.7-.69v-13.81a1.127 1.124-88.773 0 0-1.075-1.126q-4.019-.163-12.803-.168-8.783-.005-12.802.152a1.127 1.124 88.842 0 0-1.077 1.125l-.017 13.81a.7.69.069 0 1-.7.689l-13.16-.016a.74.74 89.677 0 1-.74-.73q-.082-22.501.053-43.9c.064-10.89 7.635-20.411 17.384-24.769q4.58-2.049 11.093-2.045M433.31 258.53h25.88a.96.96 45 0 0 .96-.96v-12.25a13.87 13.59 90 0 0-13.59-13.87h-.62a13.87 13.59-90 0 0-13.59 13.87v12.25a.96.96-45 0 0 .96.96"></path><path fill-rule="evenodd" d="M734.94 217.28a.61.6 0 0 1 .61.6v12.87a.72.72.392 0 1-.73.72q-12.12-.13-30.63-.07-3.92.02-5.65 1.1c-3.81 2.38-4.51 7.39-1.73 10.66q1.91 2.25 5.71 2.35 7 .17 11.01.07c9.8-.24 17.5 2.9 22.29 11.59 3.21 5.83 3 14.4-.08 20.45q-3.17 6.22-10.76 9.52-3.63 1.57-10.79 1.54-15.74-.08-29.23-.09a.7.7 29.849 0 1-.7-.7V275.1a.65.64 89.552 0 1 .63-.65q8.48-.12 31.36-.1c2.67 0 5.94-1.71 6.95-4.34 2.26-5.92-2.92-10.01-8.47-9.91l-9.73.14q-6.1.08-9.62-1.12c-20.22-6.88-19.58-35.25.86-41.23q2.72-.8 16.73-.71 19.46.12 21.97.1M786.905 252.871q.002 4.568-.142 6.777a.517.514-88.053 0 1-.513.482h-23.1a.41.41-88.251 0 0-.41.41v13.12a.7.69-90 0 0 .69.7h33.22a.58.57 0 0 1 .58.57v12.97a.67.67 25.154 0 1-.67.67l-47.91-.02a.796.794-2.096 0 1-.794-.736q-.064-.82-.079-34.926-.015-34.105.048-34.925a.796.794 2.046 0 1 .794-.737l47.91-.062a.67.67-36.837 0 1 .67.669l.012 12.97a.58.57-.051 0 1-.58.571l-33.22.029a.7.69 89.949 0 0-.689.701l.011 13.12a.41.41-76.061 0 0 .411.409l23.1-.02a.517.514 88.002 0 1 .513.482q.146 2.209.148 6.776"></path><path fill="#fefefe" fill-rule="evenodd" d="M302.783 258.544a1.23 1.23-54.835 0 1-1.226-1.234l.041-11.81a14.04 13.87-89.8 0 1 13.919-13.991l.76.002a14.04 13.87-89.8 0 1 13.821 14.089l-.041 11.81a1.23 1.23 35.67 0 1-1.234 1.225zM433.31 258.53a.96.96 45 0 1-.96-.96v-12.25a13.87 13.59-90 0 1 13.59-13.87h.62a13.87 13.59-90 0 1 13.59 13.87v12.25a.96.96 45 0 1-.96.96z"></path><path fill="#c4a968" fill-rule="evenodd" d="m789.25 528.2-.02 1.09-.34.02q-.07-.6.36-1.11"></path><path fill="#62573c" fill-rule="evenodd" d="m789.23 529.29.02-1.09q.31-.06.39.3.12.55-.41.79"></path><path fill="#fefefe" fill-rule="evenodd" d="M513.97 853.16q-2.37-1.23-5.83-3.71c-19.88-14.23-37.47-31.86-52.89-51.7-13.45-17.32-24.62-35.98-32.54-56.04-5.04-12.79-9.43-24.73-12.53-37.14-3.63-14.49-6.86-29.84-8.61-45.93q-3.14-29.1-2.26-61.04a.49.477-8.884 0 1 .33-.44c11.12-3.88 18.23-5.91 28.28-9.51q16.6-5.93 19.49-7.04c7.61-2.92 14.46-6.14 20.73-8.22q2.17-.73 16.37-6.94 7.99-3.49 28.77-12.81a1.542 1.515 44.488 0 1 1.25 0q41.49 18.95 84.46 34.56c10.05 3.65 19.09 6.28 29.02 9.79a.664.651-82.737 0 1 .44.58q1.01 16.45.2 32.18-.5 9.71-1.53 22.5-3 37.1-14.93 71.02l-3.75 10.51q-2.05 5.74-4.17 10.32-6.98 15.01-13.36 26.42c-2.28 4.07-5.15 8.24-7.22 11.47q-27.23 42.42-68.44 71.09a1.24 1.226-48.256 0 1-1.28.08m-20.58-204.5c-3.49 7.2-9.48 13.13-16.15 17.33a.369.366-60.875 0 0 .19.68h16.38a1.461 1.45-66.269 0 0 .99-.39q16.98-15.76 16.6-40.11-.23-14.41-11.56-21.73c-10.84-7-24.81-4.5-32.83 5.42-6.6 8.17-7.33 21.11-1.68 29.95 5.66 8.85 17.58 13.03 27.7 8.48a.275.274.82 0 1 .36.37m87.37-.65q-6.1 10.95-17.07 18.08a.339.335-61.47 0 0 .18.62h16.54a1.597 1.574 22.521 0 0 1.11-.45q2.81-2.68 5.98-6.44c4.93-5.85 7.94-13.71 9.83-21 2.77-10.71 1.8-22.73-6.38-30.85q-7.89-7.83-18.2-7.56-11.14.29-17.94 7.75c-8.67 9.52-9.02 26.24.06 35.39 6.58 6.64 16.89 8.89 25.4 3.98a.356.356-.542 0 1 .49.48m-141.49 17.83a.78.78 45 0 0 .78.78h12.08a.78.78-45 0 0 .78-.78v-62.9a.78.78 45 0 0-.78-.78h-19.8a.78.78-45 0 0-.78.78v10.62a.78.78 3.49 0 0 .78.78h6.16a.78.78 36.357 0 1 .78.78zm99.961-.086.064-62.539a1.04 1.04-89.778 0 0-1.039-1.047l-19.934.058a.42.42-45 0 0-.419.42l.05 10.85a.779.769-89.297 0 0 .749.778l6.029.164a.92.92.586 0 1 .9.918l.065 50.679a.48.48 45.06 0 0 .479.479l12.248.049a.81.81 85.12 0 0 .808-.809m3.119 131.596a47.089 37.486-30.805 0 0 5.8-3.27 61.456 61.399-89.958 0 0 18.8-18.79 61.594 61.208-17.295 0 0 4.63-8.75 61.453 61.42-41.362 0 0 2.63-41.19 61.495 61.393-73.676 0 0-12.91-23.65 61.469 61.416-15.506 0 0-35.27-19.93 61.468 61.453 25.755 0 0-57.08 19.92 61.312 61.251 79.463 0 0-8.33 12.15 61.47 61.468 61.007 0 0-6.77 23.6 61.5 61.43 35.952 0 0 4.55 28.47 61.448 61.413.63 0 0 31.86 32.55 61.464 61.447 48.82 0 0 42 2.81 60.922 60.901 23.759 0 0 10.09-3.92"></path><path fill-rule="evenodd" d="M493.39 648.66a.275.274.82 0 0-.36-.37c-10.12 4.55-22.04.37-27.7-8.48-5.65-8.84-4.92-21.78 1.68-29.95 8.02-9.92 21.99-12.42 32.83-5.42q11.33 7.32 11.56 21.73.38 24.35-16.6 40.11a1.461 1.45-66.269 0 1-.99.39h-16.38a.369.366-60.875 0 1-.19-.68c6.67-4.2 12.66-10.13 16.15-17.33m-7.509-35.764a12.76 11.84-91.7 0 0-11.456 13.105 12.76 11.84-91.7 0 0 12.214 12.403 12.76 11.84-91.7 0 0 11.456-13.105 12.76 11.84-91.7 0 0-12.214-12.403M580.76 648.01a.356.356-.542 0 0-.49-.48c-8.51 4.91-18.82 2.66-25.4-3.98-9.08-9.15-8.73-25.87-.06-35.39q6.8-7.46 17.94-7.75 10.31-.27 18.2 7.56c8.18 8.12 9.15 20.14 6.38 30.85-1.89 7.29-4.9 15.15-9.83 21q-3.17 3.76-5.98 6.44a1.597 1.574 22.521 0 1-1.11.45h-16.54a.339.335-61.47 0 1-.18-.62q10.97-7.13 17.07-18.08m-8.543-35.131a12.81 11.94-93.1 0 0-11.23 13.437 12.81 11.94-93.1 0 0 12.616 12.145 12.81 11.94-93.1 0 0 11.23-13.437 12.81 11.94-93.1 0 0-12.616-12.145M439.27 665.84v-50.72a.78.78 6.03 0 0-.78-.78h-6.16a.78.78 38.891 0 1-.78-.78v-10.62a.78.78 45 0 1 .78-.78h19.8a.78.78 45 0 1 .78.78v62.9a.78.78-45 0 1-.78.78h-12.08a.78.78 45 0 1-.78-.78M539.231 665.754a.81.81-49.923 0 1-.808.809l-12.248-.049a.48.48 44.96 0 1-.479-.479l-.065-50.679a.92.92.586 0 0-.9-.918l-6.029-.164a.779.769-89.297 0 1-.749-.778l-.05-10.85a.42.42 44.938 0 1 .419-.42l19.934-.058a1.04 1.04-89.778 0 1 1.039 1.047z"></path><path fill="#fefefe" fill-rule="evenodd" d="M485.881 612.896a12.76 11.84-91.7 0 1 12.214 12.403 12.76 11.84-91.7 0 1-11.456 13.105 12.76 11.84-91.7 0 1-12.214-12.403 12.76 11.84-91.7 0 1 11.456-13.105M572.217 612.879a12.81 11.94-93.1 0 1 12.616 12.145 12.81 11.94-93.1 0 1-11.23 13.437 12.81 11.94-93.1 0 1-12.616-12.145 12.81 11.94-93.1 0 1 11.23-13.437" data-source="https://football-logos.cc"></path><path fill="#62573c" fill-rule="evenodd" d="m561.3 701.7-15.08-11.74a1.266 1.253-44.333 0 0-1.54-.01q-2.99 2.26-2.67 5.99.16 1.83 3.9 5.61 1.58 1.6 6.51 7.32a1.22 1.204-24.52 0 0 1.12.41q5.91-.91 10.22 2.8c2.64 2.28 4.95 7.03 5.71 10.11q.98 3.96 2.19 13.6a1.063 1.036-44.246 0 1-.01.38l-1.52 9.11a3.681 3.302-46.295 0 0-.03.95c.93 9.16 1.12 17.24-3.19 25.91q-4.45 8.97-14.09 9.57a1.075 1.053-79.959 0 0-.91.65q-1.11 2.62-3.66 4.87-3 2.64-5.76 5.51-2.83 2.92-.14 4.61a60.922 60.901 23.759 0 1-10.09 3.92 61.464 61.447 48.82 0 1-42-2.81 61.448 61.413.63 0 1-31.86-32.55 61.5 61.43 35.952 0 1-4.55-28.47 61.47 61.468 61.007 0 1 6.77-23.6 61.312 61.251 79.463 0 1 8.33-12.15 61.468 61.453 25.755 0 1 57.08-19.92 61.469 61.416-15.506 0 1 35.27 19.93m-47.32-20.28q-11.61.84-21.99 4.53-1.55.55-3.1 2.13a.76.758-38.111 0 0-.11.9q1.32 2.3 1.49 3.04c.93 4.17-2.29 7.08-5.42 10.57q-2.32 2.59-5.09 7.88a1.475 1.455-42.57 0 0-.06 1.22l3.1 7.84a2.76 2.76 72.474 0 0 3.21 1.67c9.88-2.4 19.57-4.61 28.78-4.96a.281.27 88.939 0 0 .26-.28v-33.54a1.004 1.002-1.875 0 0-1.07-1m29.5 7.68q-1.55-1.49-3.72-2.42-10.91-4.64-22.76-5.18a.741.732-88.53 0 0-.77.74v33.35a.732.722-88.338 0 0 .68.73c9.02.64 18.68 3.7 26.6 4.7 5.61.71 7.93-5.17 8.48-10.04a1.603 1.526-60.697 0 0-.27-1.06q-3.3-4.62-7.88-9.18-5.81-5.8-.37-10.75a.61.61-44.377 0 0 .01-.89m-64.25 20.44q1.99-4.36 6.37-9.24c3.31-3.68 5.57-7.02 1.92-11.03a1.307 1.297-35.964 0 0-1.61-.25q-21.85 12.53-29.13 36.53c-.82 2.71-.96 5.45-1.58 8.11q-.65 2.73-.77 6.13-.33 9.7 2.48 19.23 3.51 11.91 11.24 21.62 7.76 9.75 19.56 15.93.76.4 1.24.25a1.431 1.219 79.453 0 0 .85-1.48q-.3-2.63-2.5-4.49-4.87-4.12-7.99-9.15a.905.89-15.323 0 0-.77-.43c-7.21.05-11.8-3.88-14.7-10.29-3-6.64-4.24-13.76-3.16-20.81q.58-3.78.42-4.65-2.58-13.95 2.61-26.78c1.77-4.38 5.16-9.19 10.61-9.26 1.04-.02 2.67.79 4.12.63a.984.976 8.967 0 0 .79-.57m90.6 23.89q.04-.04.09-.15a1.285 1.273 60.684 0 0 .16-.58q.36-11.08-6.52-19.22-3.73-4.41-9.29-3.19a1.843 1.841-2.868 0 0-1.44 1.59c-.59 5.15-2.91 9.4-8.36 10.14a3.409 3.37-45.333 0 1-.86.01c-11.48-1.24-21.8-5.37-32.86-4.32q-7.83.74-20.9 3.7-3.81.86-8.72 3.04c-7.08 3.15-12.27 4.72-17.4 8.75q-2.35 1.86-2.53 4.54-.22 3.2.68 7.58a.81.81-3.31 0 0 .73.65q34.45 2.9 68.89 2.34 17.98-.29 36.8-2.32a.418.413 71.932 0 0 .31-.62q-.04-.06-.05-.09a1.774 1.769 48.206 0 1 .09-1.65q2.62-4.3 1.05-9.5a.773.755-35.134 0 1 .13-.7m-108.28.02a.27.269 68.884 0 0 .45.2q5.13-4.65 12.12-7.28 4.98-1.88 9.04-4.24a.642.631-28.089 0 0 .26-.83l-4.75-9.61a1.059 1.022-4.26 0 0-.65-.54c-7.33-2.05-10.23 1.29-13.07 7.29q-3.36 7.12-3.4 15.01m.54 14.03c-2.29 8.88.55 19.95 5.26 27.34q3.34 5.25 11.08 5.54a.82.812-82.383 0 0 .83-.64c1.69-7.13 5.65-7.93 12.27-6.5q13.9 2.99 18.41 3.78 6.39 1.12 10.55.66 6.81-.77 10.49-1.74 10.06-2.67 12.24-3 4.29-.64 6.98 2.67c.95 1.17 1.39 3.56 1.8 4.74a.821.82 78.952 0 0 .83.56q3.46-.19 5.13-.98c11.23-5.31 12.89-21.47 11.09-32.08a1.243 1.239-8.636 0 0-1.39-1.02q-20.71 2.81-41.16 3.06-31.65.38-63.71-2.88a.655.65-79.77 0 0-.7.49m28.46 49a1.477 1.471 18.047 0 0 .92 1.8q5.31 1.87 13.09 3.68c3.04.71 5.72.61 8.98.91a.816.812 3.293 0 0 .89-.79l.63-22.52a.727.716 6.016 0 0-.6-.73q-12.75-2.33-24.02-4.74-3.17-.68-5.94-.06-2.35.53-3.44 3.31-1.75 4.41 1.34 7.5 5.94 5.95 6.99 7.2 1.82 2.18 1.16 4.44m49.68-1.35q.33-2.29 1.71-3.45c2.25-1.91 6.74-5.32 9.04-8.82a2.37 2.339-35.042 0 0 .33-1.81c-.96-4.17-2.04-6.48-6.22-7.35a2.425 2.371 41.961 0 0-1.2.05q-13.92 4.26-26.96 5.27a.705.696 88.647 0 0-.64.68l-.63 22.35a.83.83-45 0 0 .85.85q13.32-.35 23.6-5.41a.794.656-29.883 0 0 .39-1.04q-.38-.55-.27-1.32"></path><path fill="#c4a968" fill-rule="evenodd" d="M513.98 681.42a1.004 1.002-1.875 0 1 1.07 1v33.54a.281.27 88.939 0 1-.26.28c-9.21.35-18.9 2.56-28.78 4.96a2.76 2.76 72.474 0 1-3.21-1.67l-3.1-7.84a1.475 1.455-42.57 0 1 .06-1.22q2.77-5.29 5.09-7.88c3.13-3.49 6.35-6.4 5.42-10.57q-.17-.74-1.49-3.04a.76.758-38.111 0 1 .11-.9q1.55-1.58 3.1-2.13 10.38-3.69 21.99-4.53M543.47 689.99q-5.44 4.95.37 10.75 4.58 4.56 7.88 9.18a1.603 1.526-60.697 0 1 .27 1.06c-.55 4.87-2.87 10.75-8.48 10.04-7.92-1-17.58-4.06-26.6-4.7a.732.722-88.338 0 1-.68-.73v-33.35a.741.732-88.53 0 1 .77-.74q11.85.54 22.76 5.18 2.17.93 3.72 2.42a.61.61-44.377 0 1-.01.89"></path><path fill="#c4a968" fill-rule="evenodd" d="M478.44 710.11c-1.45.16-3.08-.65-4.12-.63-5.45.07-8.84 4.88-10.61 9.26q-5.19 12.83-2.61 26.78.16.87-.42 4.65c-1.08 7.05.16 14.17 3.16 20.81 2.9 6.41 7.49 10.34 14.7 10.29a.905.89-15.323 0 1 .77.43q3.12 5.03 7.99 9.15 2.2 1.86 2.5 4.49a1.431 1.219 79.453 0 1-.85 1.48q-.48.15-1.24-.25-11.8-6.18-19.56-15.93-7.73-9.71-11.24-21.62-2.81-9.53-2.48-19.23.12-3.4.77-6.13c.62-2.66.76-5.4 1.58-8.11q7.28-24 29.13-36.53a1.307 1.297-35.964 0 1 1.61.25c3.65 4.01 1.39 7.35-1.92 11.03q-4.38 4.88-6.37 9.24a.984.976 8.967 0 1-.79.57M561.3 701.7a61.495 61.393-73.676 0 1 12.91 23.65 61.453 61.42-41.362 0 1-2.63 41.19 61.594 61.208-17.295 0 1-4.63 8.75 61.456 61.399-89.958 0 1-18.8 18.79 47.089 37.486-30.805 0 1-5.8 3.27q-2.69-1.69.14-4.61 2.76-2.87 5.76-5.51 2.55-2.25 3.66-4.87a1.075 1.053-79.959 0 1 .91-.65q9.64-.6 14.09-9.57c4.31-8.67 4.12-16.75 3.19-25.91a3.681 3.302-46.295 0 1 .03-.95l1.52-9.11a1.063 1.036-44.246 0 0 .01-.38q-1.21-9.64-2.19-13.6c-.76-3.08-3.07-7.83-5.71-10.11q-4.31-3.71-10.22-2.8a1.22 1.204-24.52 0 1-1.12-.41q-4.93-5.72-6.51-7.32-3.74-3.78-3.9-5.61-.32-3.73 2.67-5.99a1.266 1.253-44.333 0 1 1.54.01z"></path><path fill="#c4a968" fill-rule="evenodd" d="M569.7 734.13q1.57 5.2-1.05 9.5a1.774 1.769 48.206 0 0-.09 1.65q.01.03.05.09a.418.413 71.932 0 1-.31.62q-18.82 2.03-36.8 2.32-34.44.56-68.89-2.34a.81.81-3.31 0 1-.73-.65q-.9-4.38-.68-7.58.18-2.68 2.53-4.54c5.13-4.03 10.32-5.6 17.4-8.75q4.91-2.18 8.72-3.04 13.07-2.96 20.9-3.7c11.06-1.05 21.38 3.08 32.86 4.32a3.409 3.37-45.333 0 0 .86-.01c5.45-.74 7.77-4.99 8.36-10.14a1.843 1.841-2.868 0 1 1.44-1.59q5.56-1.22 9.29 3.19 6.88 8.14 6.52 19.22a1.285 1.273 60.684 0 1-.16.58q-.05.11-.09.15a.773.755-35.134 0 0-.13.7m-.3-.29a.34.331 29.948 0 0-.13-.46q-3.24-1.78-6.41-3.46-6.73-3.59-14-5.16a.122.119 62.535 0 0-.07.23l12.47 5.39a.448.119 14.872 0 1 .07.04l7.18 3.98a.506.501-60.324 0 0 .68-.19z"></path><path fill="#c4a968" fill-rule="evenodd" d="M461.55 733.45q.04-7.89 3.4-15.01c2.84-6 5.74-9.34 13.07-7.29a1.059 1.022-4.26 0 1 .65.54l4.75 9.61a.642.631-28.089 0 1-.26.83q-4.06 2.36-9.04 4.24-6.99 2.63-12.12 7.28a.27.269 68.884 0 1-.45-.2"></path><path fill="#62573c" fill-rule="evenodd" d="m568.51 734.4-7.18-3.98a.448.119 14.872 0 0-.07-.04l-12.47-5.39a.122.119 62.535 0 1 .07-.23q7.27 1.57 14 5.16 3.17 1.68 6.41 3.46a.34.331 29.948 0 1 .13.46l-.21.37a.506.501-60.324 0 1-.68.19"></path><path fill="#c4a968" fill-rule="evenodd" d="M462.09 747.48a.655.65-79.77 0 1 .7-.49q32.06 3.26 63.71 2.88 20.45-.25 41.16-3.06a1.243 1.239-8.636 0 1 1.39 1.02c1.8 10.61.14 26.77-11.09 32.08q-1.67.79-5.13.98a.821.82 78.952 0 1-.83-.56c-.41-1.18-.85-3.57-1.8-4.74q-2.69-3.31-6.98-2.67-2.18.33-12.24 3-3.68.97-10.49 1.74-4.16.46-10.55-.66-4.51-.79-18.41-3.78c-6.62-1.43-10.58-.63-12.27 6.5a.82.812-82.383 0 1-.83.64q-7.74-.29-11.08-5.54c-4.71-7.39-7.55-18.46-5.26-27.34"></path><path fill="#c4a968" fill-rule="evenodd" d="M490.55 796.48q.66-2.26-1.16-4.44-1.05-1.25-6.99-7.2-3.09-3.09-1.34-7.5 1.09-2.78 3.44-3.31 2.77-.62 5.94.06 11.27 2.41 24.02 4.74a.727.716 6.016 0 1 .6.73l-.63 22.52a.816.812 3.293 0 1-.89.79c-3.26-.3-5.94-.2-8.98-.91q-7.78-1.81-13.09-3.68a1.477 1.471 18.047 0 1-.92-1.8M540.23 795.13q-.11.77.27 1.32a.794.656-29.883 0 1-.39 1.04q-10.28 5.06-23.6 5.41a.83.83-45 0 1-.85-.85l.63-22.35a.705.696 88.647 0 1 .64-.68q13.04-1.01 26.96-5.27a2.425 2.371 41.961 0 1 1.2-.05c4.18.87 5.26 3.18 6.22 7.35a2.37 2.339-35.042 0 1-.33 1.81c-2.3 3.5-6.79 6.91-9.04 8.82q-1.38 1.16-1.71 3.45"></path><path fill="#fefefe" fill-rule="evenodd" d="M426.01 777.47q17.88 28.25 42.19 51.32 10.42 9.89 12.2 11.33a1.254 1.244-73.069 0 1 .47.89q.42 6.11.44 11.49.12 25.83.04 55.49a.27.269-70.417 0 1-.44.21q-26.6-21.8-50.19-46.67-3.54-3.73-4.78-5.14a1.465 1.416 24.595 0 1-.36-.92c-.07-5.93-.66-12.53-.7-17.64q-.25-31.15.72-60.25a.223.222-59.881 0 1 .41-.11M600.36 780.36v74.92a3.914 3.899 65.169 0 1-.92 2.52c-6.21 7.35-13.35 14.18-19.71 20.44q-6.38 6.29-11.58 10.88-14.37 12.71-23.77 20.71a.424.423-20.353 0 1-.7-.32v-65.08a2.255 2.244-22.604 0 1 .66-1.59q1.13-1.11 13.95-12.8 6.35-5.78 21.52-23.22 10.19-11.71 19.99-26.63a.306.305 61.779 0 1 .56.17" data-source="https://football-logos.cc"></path><!-- source: https://football-logos.cc --></svg>