<svg viewBox="33.03 123.5 529.22 594.9" version="1.1" id="svg14" sodipodi:docname="lentigione.e0f9ddcf.svg" inkscape:version="1.4.2 (ebf0e940, 2025-05-08)" xmlns:inkscape="http://www.inkscape.org/namespaces/inkscape" xmlns:sodipodi="http://sodipodi.sourceforge.net/DTD/sodipodi-0.dtd" xmlns="http://www.w3.org/2000/svg" xmlns:svg="http://www.w3.org/2000/svg">
  <defs id="defs14" data-source="https://football-logos.cc"></defs>
  <sodipodi:namedview id="namedview14" pagecolor="#ffffff" bordercolor="#000000" borderopacity="0.25" inkscape:showpageshadow="2" inkscape:pageopacity="0.0" inkscape:pagecheckerboard="0" inkscape:deskcolor="#d1d1d1" showgrid="false" inkscape:zoom="2.0456621" inkscape:cx="285.72656" inkscape:cy="52.305803" inkscape:window-width="1440" inkscape:window-height="773" inkscape:window-x="0" inkscape:window-y="25" inkscape:window-maximized="1" inkscape:current-layer="svg14"></sodipodi:namedview>
  <!-- Source: https://football-logos.cc -->
  <path d="M162.26 201.062c8.26 9.806 16.688 19 25.434 25.666 8.11 6.18 16.435 10.106 25.058 10.067 13.5-.06 27.416-5.017 41.993-10.209q2.197-.783 4.414-1.567c10.77-3.803 21.095-7.216 31.784-8.871 10.994-1.702 22.073-1.48 33.828 2.171 6.095 1.893 12.357 4.086 18.666 6.296 18.54 6.491 37.511 13.135 51.644 11.83 9.75-.9 15.718-2.369 21.68-6.681 6.49-4.694 13.608-12.953 25.36-27.177l4.256-5.152 4.937 4.505 67.125 61.25 4.025 3.673-3.004 4.548c-4.338 6.567-8.604 13.188-12.691 19.89-4.084 6.699-8.026 13.533-11.736 20.562-7.046 13.35-3.195 26.597.36 38.823.475 1.636.946 3.254 1.264 4.393 5.876 21.036 15.762 39.617 25.58 58.07l-.02.01c6.068 11.403 12.11 22.76 17.167 34.474 11.384 26.37 18.679 51.35 21.52 75.003 2.869 23.898 1.187 46.427-5.42 67.656-6.218 19.977-15.012 35.596-26.024 47.933-11.062 12.392-24.253 21.355-39.24 28.004-11.793 5.232-24.658 9.529-38.215 12.98-14.363 3.657-29.553 6.377-45.103 8.268-5.956.724-11.905 1.206-17.831 1.687-18.226 1.478-36.235 2.939-51.278 11.515-3.745 2.135-7.61 4.592-11.416 7.143-3.925 2.632-7.725 5.317-11.261 7.857-1.914 1.378-3.75 2.24-5.615 2.562-2.636.454-4.998-.098-7.21-1.712-2.236-1.632-4.108-3.038-6.017-4.472-8.172-6.136-17.034-12.792-25.337-16.305-23.12-9.782-41.33-11.956-61.057-14.31-4.14-.493-8.349-.996-13.822-1.742-15.047-2.05-28.492-4.645-42.223-8.753-13.713-4.104-27.754-9.736-44.02-17.87-12.765-6.381-25.21-13.917-36.001-23.408-11.03-9.701-20.366-21.426-26.64-36.006-6.994-16.258-11.602-34.515-13.357-52.79-1.702-17.733-.7-35.515 3.434-51.546 3.952-15.329 9.77-29.274 17.236-42.829 7.404-13.443 16.428-26.522 26.86-40.214 9.239-12.124 18.256-28.063 24.415-43.623 5.338-13.487 8.466-26.449 7.565-35.919C111.4 306.47 97.4 284.325 84.1 263.287l-.2-.317-3.03-4.79 4.45-3.556 68.12-54.434 4.833-3.861z" style="fill:#fff;fill-rule:evenodd;fill-opacity:1" data-source="https://football-logos.cc" id="path1"></path>
  <path d="m 217.749,241.022 c -3.611,-1.173 -6.967,-2.771 -9.226,-4.918 -4.887,-4.644 -8.932,-9.299 -12.646,-14.264 -3.727,-4.981 -7.016,-10.105 -10.437,-15.762 -2.088,-3.453 -3.625,-7.524 -4.337,-11.691 -0.678,-3.966 -0.608,-8.077 0.439,-11.916 1.352,-4.959 3.408,-10.182 6.352,-14.704 2.581,-3.964 5.855,-7.417 9.953,-9.78 7.189,-4.143 13.85,-4.004 21.532,-3.843 1.61,0.033 3.27,0.068 4.91,0.06 3.286,-0.018 6.5,0.06 9.721,0.138 9.939,0.24 19.948,0.482 29.029,-2.195 7.091,-2.09 14.13,-4.987 20.61,-9.123 6.399,-4.085 12.312,-9.421 17.267,-16.447 1.703,-2.414 3.67,-3.281 5.937,-3.043 2.088,0.219 3.52,1.34 4.718,3.004 4.518,6.278 9.217,11.058 14.273,15.035 5.11,4.02 10.613,7.24 16.671,10.36 5.168,2.662 11.575,4.507 17.924,5.698 8.285,1.553 16.353,1.971 21.498,1.635 l 0.742,-0.044 c 14.352,-0.833 24.8,1.731 31.906,6.505 7.654,5.141 11.404,12.636 11.966,21.21 v 0.02 l 0.013,0.21 v 0.019 c 0.388,6.683 -1.265,12.746 -4.165,18.667 -2.76,5.634 -6.523,10.933 -10.679,16.506 -1.42522,1.90728 -2.80823,3.84575 -4.148,5.814 -1.32753,1.96958 -2.6303,3.95574 -3.908,5.958 -2.346,3.654 -5.43,6.26 -8.808,8.038 -25.57106,13.44594 -172.5,0.349 -177.107,-1.147 z" style="fill:#ffffff;fill-rule:evenodd;fill-opacity:1" id="path15" inkscape:label="path1_1" sodipodi:nodetypes="cccccccccccccccccccccccccccccccc"></path>
  <path d="M432.037 297.118v-36.445h28.917v6.159H439.95v8.093h19.532v6.16H439.95v9.874h21.77v6.159zm-38.592 0v-36.445h7.535l15.82 24.424v-24.424h7.193v36.445h-7.775L400.64 273.16v23.957zm-35.327-18.248c0 4.131 1.012 7.262 3.028 9.4 2.016 2.129 4.578 3.198 7.678 3.198 3.109 0 5.653-1.06 7.651-3.173q2.983-3.179 2.983-9.527c0-4.182-.967-7.304-2.911-9.357q-2.9-3.09-7.723-3.088c-3.207 0-5.796 1.044-7.758 3.122-1.962 2.087-2.948 5.226-2.948 9.425m-8.01.246c0-3.716.592-6.837 1.766-9.366a17 17 0 0 1 3.583-5.005c1.515-1.476 3.172-2.57 4.972-3.291q3.602-1.442 8.306-1.443c5.68 0 10.213 1.672 13.626 5.006q5.107 5.011 5.107 13.93c0 5.896-1.694 10.51-5.07 13.836-3.379 3.334-7.903 4.997-13.556 4.997-5.725 0-10.285-1.655-13.663-4.972-3.377-3.308-5.07-7.872-5.07-13.692m-13.581 18.002v-36.445h7.854v36.445zm-23.448-13.387v-6.159h16.826v14.54c-1.632 1.502-4.004 2.817-7.115 3.962q-4.652 1.705-9.44 1.705c-4.05 0-7.575-.797-10.586-2.4-3.003-1.604-5.266-3.903-6.781-6.88-1.515-2.978-2.272-6.227-2.272-9.73q.002-5.7 2.534-10.138c1.694-2.953 4.165-5.226 7.42-6.804 2.489-1.213 5.573-1.816 9.27-1.816 4.806 0 8.566.95 11.271 2.85 2.696 1.91 4.436 4.53 5.212 7.89l-7.79 1.375c-.542-1.79-1.57-3.207-3.076-4.25q-2.245-1.553-5.626-1.553c-3.409 0-6.123 1.018-8.134 3.062-2.01 2.045-3.02 5.074-3.02 9.086q0 6.502 3.056 9.748c2.048 2.163 4.716 3.249 8.026 3.249 1.632 0 3.273-.305 4.914-.908 1.65-.602 3.057-1.34 4.238-2.205v-4.624zm-33.21 13.387v-36.445h7.886v36.445zm-23.788 0v-30.286H244.68v-6.159h30.55v6.159H263.88v30.286zm-47.338 0v-36.445h7.61l15.983 24.424v-24.424h7.267v36.445h-7.855L216.01 273.16v23.957zm-35.719 0v-36.445H201.5v6.159h-20.685v8.093h19.234v6.16h-19.234v9.874h21.437v6.159zm-32.585 0v-36.14h7.75v29.981h19.188v6.159zM382.41 320.964c0 3.905 1.182 6.864 3.533 8.884 2.352 2.013 5.341 3.024 8.958 3.024 3.626 0 6.595-1.003 8.925-3 2.32-2.004 3.481-5.003 3.481-9.005 0-3.953-1.129-6.904-3.397-8.844-2.257-1.949-5.257-2.92-9.01-2.92-3.742 0-6.762.987-9.05 2.952-2.29 1.972-3.44 4.94-3.44 8.909m-9.344.232c0-3.512.69-6.463 2.06-8.852 1.013-1.756 2.414-3.336 4.18-4.731a18.5 18.5 0 0 1 5.801-3.112c2.801-.906 6.03-1.363 9.69-1.363 6.626 0 11.915 1.58 15.896 4.731 3.972 3.16 5.958 7.546 5.958 13.167 0 5.573-1.976 9.935-5.916 13.079-3.94 3.15-9.219 4.722-15.814 4.722-6.678 0-11.999-1.563-15.939-4.698-3.94-3.128-5.916-7.442-5.916-12.943m-15.51 17.016v-34.448h9.094v34.448zM341.65 325.51l8.78 2.07c-1.349 3.792-3.596 6.607-6.732 8.451-3.135 1.836-7.107 2.759-11.925 2.759-5.968 0-10.87-1.564-14.717-4.692-3.836-3.127-5.759-7.4-5.759-12.83 0-5.733 1.934-10.191 5.79-13.367 3.857-3.175 8.937-4.763 15.23-4.763q8.246.002 13.388 3.745c2.049 1.475 3.575 3.592 4.599 6.359l-8.968 1.635q-.799-2.672-3.324-4.225c-1.692-1.035-3.741-1.548-6.145-1.548-3.334 0-6.042.914-8.11 2.75q-3.118 2.743-3.116 8.901c0 4.347 1.025 7.45 3.063 9.294 2.048 1.852 4.703 2.774 7.975 2.774 2.414 0 4.494-.585 6.229-1.764s2.99-3.023 3.742-5.549m-66.432 12.702v-34.16h9.093v28.339h22.514v5.821zm-21.363-13.664-6.24-12.75-6.062 12.75zm16.619 13.664h-9.794l-3.878-7.842h-18.008l-3.732 7.842h-9.615l17.434-34.448h9.605zm-56.67-12.702 8.78 2.07c-1.348 3.792-3.595 6.607-6.731 8.451-3.136 1.836-7.108 2.759-11.926 2.759-5.968 0-10.87-1.564-14.716-4.692-3.836-3.127-5.76-7.4-5.76-12.83 0-5.733 1.934-10.191 5.791-13.367 3.857-3.175 8.937-4.763 15.229-4.763q8.246.002 13.389 3.745c2.048 1.475 3.574 3.592 4.598 6.359l-8.968 1.635q-.798-2.672-3.323-4.225c-1.693-1.035-3.742-1.548-6.146-1.548-3.334 0-6.041.914-8.11 2.75-2.08 1.829-3.115 4.796-3.115 8.901 0 4.347 1.024 7.45 3.062 9.294 2.049 1.852 4.703 2.774 7.975 2.774 2.414 0 4.494-.585 6.23-1.764 1.734-1.179 2.989-3.023 3.741-5.549M457.477 585.979c0 2.606.66 4.632 1.98 6.09 1.32 1.457 2.96 2.185 4.93 2.185 1.934 0 3.528-.706 4.791-2.106s1.89-3.426 1.89-6.067c0-2.31-.637-4.166-1.924-5.566s-2.914-2.106-4.883-2.106c-2.288 0-3.984.797-5.11 2.39-1.116 1.594-1.674 3.313-1.674 5.18m.888-20.968c0 1.867.523 3.336 1.57 4.383q1.59 1.57 4.2 1.57c1.777 0 3.188-.534 4.247-1.593s1.593-2.527 1.593-4.394q0-2.647-1.57-4.234c-1.06-1.059-2.448-1.594-4.167-1.594-1.798 0-3.221.535-4.28 1.605-1.058 1.07-1.593 2.493-1.593 4.257m-1.958 9.425c-2.413-1.024-4.178-2.424-5.27-4.223-1.104-1.787-1.65-3.756-1.65-5.884 0-3.655 1.274-6.67 3.812-9.05 2.539-2.379 6.159-3.574 10.837-3.574 4.644 0 8.241 1.195 10.802 3.574 2.562 2.38 3.848 5.395 3.848 9.05 0 2.265-.592 4.28-1.776 6.055-1.172 1.765-2.834 3.119-4.974 4.052 2.72 1.093 4.78 2.687 6.203 4.781 1.412 2.106 2.118 4.52 2.118 7.262 0 4.531-1.435 8.208-4.314 11.042-2.87 2.834-6.694 4.246-11.475 4.246-4.439 0-8.127-1.173-11.086-3.518-3.484-2.754-5.225-6.556-5.225-11.371 0-2.652.66-5.088 1.969-7.308s3.37-3.927 6.18-5.134m-29.112 8.412V566.15l-11.178 16.698zm0 18.03v-9.834h-19.943v-8.161l21.15-31.11h7.877v31.075h6.078v8.196h-6.078v9.835zm-35.761-31.871c0-3.017-.695-5.361-2.083-7.023-1.378-1.662-2.983-2.493-4.804-2.493q-2.595 0-4.303 2.049c-1.15 1.366-1.719 3.597-1.719 6.693 0 3.153.626 5.464 1.867 6.943 1.24 1.469 2.789 2.209 4.656 2.209 1.798 0 3.312-.706 4.541-2.13q1.845-2.133 1.845-6.248m-21.104 20.512 9.083-1.002c.217 1.855.797 3.233 1.72 4.12.921.9 2.15 1.344 3.664 1.344 1.924 0 3.552-.9 4.895-2.686 1.343-1.788 2.197-5.499 2.573-11.11-2.357 2.732-5.294 4.098-8.834 4.098-3.836 0-7.16-1.48-9.948-4.451s-4.178-6.83-4.178-11.588c0-4.963 1.469-8.958 4.417-11.986 2.948-3.04 6.705-4.553 11.258-4.553 4.951 0 9.026 1.924 12.202 5.76 3.176 3.847 4.77 10.165 4.77 18.975 0 8.947-1.651 15.412-4.952 19.374-3.301 3.972-7.604 5.953-12.908 5.953-3.813 0-6.887-1.025-9.243-3.074-2.345-2.037-3.859-5.1-4.52-9.174m-10.952 11.36h-9.357v-35.4c-3.415 3.209-7.444 5.588-12.089 7.125v-8.537c2.448-.797 5.1-2.311 7.957-4.554 2.869-2.23 4.826-4.837 5.896-7.808h7.593zM409.822 425.381c-16.356 0-30.989 6.36-41.516 16.807-10.485 10.406-16.905 24.876-16.905 41.164 0 16.327 6.563 31.07 17.206 41.727 10.635 10.647 25.348 17.219 41.665 17.219 16.302 0 30.996-6.599 41.62-17.269 10.649-10.695 17.213-25.486 17.213-41.827 0-16.212-6.574-30.587-17.188-40.945-10.755-10.496-25.664-16.876-42.095-16.876m-43.21 15.103c10.97-10.886 26.2-17.512 43.21-17.512 17.074 0 32.577 6.64 43.77 17.563 11.068 10.8 17.922 25.78 17.922 42.667 0 16.997-6.833 32.387-17.918 43.521-11.064 11.113-26.36 17.984-43.324 17.984-16.976 0-32.292-6.844-43.368-17.934-11.08-11.094-17.912-26.436-17.912-43.421 0-16.951 6.691-32.021 17.62-42.868m-7.792 59.37-4.618 1.584a58.76 58.76 0 0 0 18.233 27.15l6.185-8.934zm94.124 7.575 2.26 13.985a59 59 0 0 0 12.866-27.09z" style="fill:#000;fill-rule:evenodd" id="path2"></path>
  <path d="m353.57 501.654 5.232-1.794.018-.006 1.605 1.605 16.494 16.495 1.604 1.603.097.097-6.75 9.75zm78.81-64.365 15.358 6.132-.058-.16 5.07-1.844.723 1.994-3.426 1.245 2.897 15.546 16.887 33.273-1.894.955-16.966-33.429-13.344 1.177-13.198 25.42 8.716 19.044-.29.25 22.02.251-.016 2.118-24.434-.28-12.575 10.81 5.327 22.197-2.06.49-5.287-22.033-16.738-10.103-20.569 9.215-1.506.675-.864-1.935.766-.343 21.305-9.545 4.133-17.48-16.093-20.558-14.18 3.528-11.66 27.56-.25.594-1.952-.822.58-1.371 11.486-27.147-6.316-12.75-7.46-1.823.497-2.06 6.586 1.608 17.988-14.346.13.137 5.738-15.93 1.994.715-6.1 16.931 8.152 8.573 32.81-7.397 5.996-8.616-3.111-10.437 2.034-.606zm2.778 25.042-11.23-13.702-30.73 6.927.01.01-5.421 13.314 16.552 21.146 17.78-2.58z" style="fill:#000;fill-rule:evenodd" id="path3"></path>
  <path d="m455.344 522.279-2.4-14.85 16.275-14.1" style="fill:none" id="path4"></path>
  <path d="m363.595 457.688 17.988-14.346.13.137 4.857-13.484a57.4 57.4 0 0 0-18.264 12.193 56.8 56.8 0 0 0-10.387 14.115zM370.288 472.713l-6.316-12.75-7.018-1.715c-3.567 7.548-5.553 16.045-5.553 25.104 0 6.314.982 12.39 2.8 18.086l4.601-1.578zM372.085 473.899l-11.66 27.56 16.494 16.495 21.305-9.545 4.133-17.48-16.093-20.558zM399.092 510.342l-20.569 9.215.097.097-6.185 8.933c10.213 8.564 23.397 13.71 37.837 13.71a59.3 59.3 0 0 0 10.576-.945l-5.018-20.907ZM417.85 519.792l5.075 21.145c11.197-2.449 21.176-8.083 28.967-15.908a59 59 0 0 0 3.313-3.615l-1.968-12.172-22.812-.261zM424.43 487.599l8.715 19.043-.29.25 20.44.233 14.668-12.708-.026.013-16.966-33.429-13.344 1.177zM452.944 460.202l15.65 30.838c.337-2.565.51-5.18.51-7.838 0-15.563-6.057-29.434-15.932-39.682l-3.126 1.136zM432.38 437.29l15.358 6.13-.058-.16 3.834-1.393c-6.091-5.83-13.479-10.356-21.698-13.178zM424.307 446.37l5.996-8.615-2.936-9.85a61.7 61.7 0 0 0-17.545-2.524c-7.29 0-14.238 1.264-20.632 3.589l-5.844 16.225 8.151 8.572zM435.158 462.331l-11.23-13.702-30.73 6.927.01.01-5.421 13.314 16.552 21.146 17.78-2.58z" style="fill:#fff;fill-rule:evenodd" id="path5"></path>
  <path d="m157.08 342.684 298.751.499 3.844.006 1.574 3.481c3.608 7.983 7.188 15.882 10.752 23.748 13.787 30.424 27.35 60.353 41.834 93.508 8.499 19.455 15.334 41.375 17.781 63.285 2.086 18.672 1 37.357-4.908 54.58-7.14 20.812-17.144 35.98-30.698 47.328-13.453 11.262-30.208 18.568-50.987 23.758-24.986 6.24-45.101 9.469-66.23 12.86-9.883 1.586-19.99 3.208-30.666 5.147-6.575 1.194-12.791 3.035-18.836 5.785-8.252 3.755-14.19 8.335-21.029 14.021-9.728-6.82-19.306-13.129-29.917-18.578-7.591-3.898-15.386-7.204-22.846-9.281-16.479-4.59-33.418-7.283-50.35-9.973-18.392-2.923-36.778-5.845-54.867-11.175-24.254-7.147-40.324-16.674-52.68-29.484-12.24-12.689-20.531-28.299-29.439-47.898-5.638-12.403-8.1-26.73-7.541-40.933.563-14.317 4.192-28.548 10.727-40.595 8.96-16.516 18.519-30.353 28.07-44.177 5.393-7.807 10.786-15.612 15.912-23.672 6.805-10.697 13.166-21.4 19.184-32.663a426 426 0 0 0 17.1-35.95l1.529-3.633zm107.152 12.038v298.4c6.493 2.216 13.083 5.135 19.508 8.434 5.792 2.974 11.45 6.258 16.776 9.612V354.783ZM250.06 649.159V354.7l-42.077-.07v286.664c14.062 2.236 28.127 4.497 42.077 7.866m-56.25-10.153V354.604l-32.81-.054a436 436 0 0 1-16.02 33.292c-6.161 11.53-12.676 22.493-19.649 33.454-5.416 8.514-10.78 16.277-16.145 24.043-9.278 13.43-18.566 26.873-27.372 43.108-5.683 10.476-8.84 22.882-9.332 35.386-.487 12.396 1.64 24.854 6.518 35.586 8.402 18.486 16.127 33.111 27.16 44.549 10.915 11.316 25.377 19.81 47.47 26.32 13.165 3.88 26.634 6.458 40.18 8.718m120.88-284.2v316.228a84 84 0 0 1 9.673-5.2c6.868-3.125 14.028-5.234 21.673-6.622 11.11-2.018 21.115-3.624 30.897-5.194 20.73-3.327 40.464-6.495 65.207-12.674 19.075-4.764 34.297-11.338 46.244-21.34 11.844-9.915 20.663-23.395 27.07-42.074 5.3-15.446 6.253-32.384 4.35-49.417-2.305-20.636-8.785-41.38-16.85-59.843-14.037-32.13-27.798-62.498-41.787-93.368-3.046-6.721-6.102-13.466-9.178-20.267z" style="fill:#000;fill-rule:evenodd" id="path6" data-source="https://football-logos.cc"></path>
  <path d="M250.06 649.16V354.697l-42.078-.07v286.665c14.062 2.236 28.127 4.497 42.077 7.866M314.689 354.806v316.228a84 84 0 0 1 9.673-5.2c6.868-3.125 14.028-5.234 21.673-6.622 11.11-2.018 21.115-3.624 30.897-5.194 20.73-3.327 40.464-6.495 65.207-12.674 19.075-4.764 34.297-11.338 46.244-21.34 11.844-9.915 20.663-23.395 27.07-42.074 5.3-15.446 6.253-32.384 4.35-49.417-2.305-20.636-8.785-41.38-16.85-59.843-14.037-32.13-27.798-62.498-41.787-93.368l-9.178-20.267zm34.303 128.546c0-16.951 6.691-32.021 17.62-42.868 10.97-10.886 26.2-17.512 43.21-17.512 17.074 0 32.577 6.64 43.77 17.563 11.068 10.8 17.922 25.78 17.922 42.667 0 16.997-6.833 32.387-17.918 43.521-11.064 11.113-26.36 17.984-43.324 17.984-16.976 0-32.292-6.844-43.368-17.934-11.08-11.094-17.912-26.436-17.912-43.421m58.36 99.53 21.15-31.109h7.877v31.075h6.078v8.196h-6.078v9.835h-9.084v-9.835h-19.943zm42.874-3.312c1.309-2.22 3.37-3.927 6.18-5.134-2.412-1.024-4.177-2.424-5.27-4.223-1.103-1.787-1.65-3.756-1.65-5.884 0-3.654 1.275-6.67 3.814-9.05 2.538-2.379 6.158-3.574 10.836-3.574 4.644 0 8.241 1.195 10.802 3.574 2.562 2.38 3.848 5.396 3.848 9.05 0 2.265-.592 4.28-1.776 6.055-1.172 1.765-2.834 3.119-4.974 4.052 2.72 1.093 4.78 2.687 6.203 4.781 1.412 2.106 2.118 4.52 2.118 7.262 0 4.531-1.435 8.208-4.314 11.042-2.87 2.834-6.694 4.246-11.475 4.246-4.439 0-8.127-1.173-11.086-3.518-3.484-2.754-5.225-6.556-5.225-11.371 0-2.652.66-5.088 1.969-7.308m-65.146-27.865c4.951 0 9.026 1.924 12.202 5.76 3.176 3.847 4.77 10.165 4.77 18.975 0 8.947-1.651 15.412-4.952 19.374-3.301 3.972-7.604 5.953-12.908 5.953-3.813 0-6.887-1.025-9.243-3.074-2.345-2.037-3.859-5.1-4.52-9.174l9.084-1.002c.217 1.855.797 3.233 1.72 4.12.921.9 2.15 1.344 3.665 1.344 1.923 0 3.55-.9 4.894-2.686 1.343-1.788 2.197-5.499 2.573-11.11-2.357 2.732-5.294 4.098-8.833 4.098-3.837 0-7.16-1.48-9.95-4.451-2.788-2.971-4.177-6.83-4.177-11.588 0-4.963 1.469-8.958 4.417-11.986 2.948-3.04 6.705-4.553 11.258-4.553m-33.195 0h7.593v49.174h-9.357v-35.4c-3.415 3.209-7.444 5.588-12.089 7.125v-8.537c2.448-.797 5.1-2.311 7.957-4.554 2.869-2.23 4.826-4.837 5.896-7.808" style="fill:#ff0;fill-rule:evenodd" id="path7"></path>
  <path d="M380.344 561.54c-1.15 1.366-1.719 3.597-1.719 6.693 0 3.153.626 5.464 1.867 6.943 1.24 1.469 2.789 2.209 4.656 2.209 1.798 0 3.312-.706 4.541-2.13q1.845-2.133 1.845-6.248c0-3.017-.695-5.361-2.083-7.023-1.378-1.662-2.983-2.493-4.804-2.493q-2.595 0-4.303 2.049M427.295 566.15l-11.178 16.699h11.178zM458.365 565.012c0 1.866.523 3.335 1.57 4.382q1.59 1.57 4.2 1.57c1.777 0 3.188-.534 4.247-1.593s1.593-2.527 1.593-4.394q0-2.647-1.57-4.234c-1.06-1.059-2.448-1.594-4.167-1.594-1.798 0-3.221.535-4.28 1.605-1.058 1.07-1.593 2.493-1.593 4.257M464.261 578.41c-2.288 0-3.984.796-5.11 2.39-1.116 1.593-1.674 3.312-1.674 5.179 0 2.606.66 4.633 1.98 6.09s2.96 2.185 4.93 2.185c1.934 0 3.528-.706 4.791-2.106s1.89-3.426 1.89-6.067c0-2.31-.637-4.166-1.924-5.566s-2.914-2.106-4.883-2.106" style="fill:#ff0;fill-rule:evenodd" data-source="https://football-logos.cc" id="path8"></path>
  <path d="M300.516 671.168V354.783l-36.284-.061v298.4c6.493 2.216 13.083 5.135 19.508 8.434 5.792 2.974 11.45 6.258 16.776 9.612M193.809 639.006V354.604l-32.81-.054a436 436 0 0 1-16.02 33.292c-6.161 11.53-12.676 22.493-19.649 33.454-5.416 8.514-10.78 16.277-16.145 24.043-9.278 13.43-18.566 26.873-27.372 43.108-5.683 10.476-8.84 22.882-9.332 35.386-.487 12.396 1.64 24.854 6.518 35.586 8.402 18.486 16.127 33.111 27.16 44.549 10.915 11.316 25.377 19.81 47.47 26.32 13.165 3.88 26.634 6.458 40.18 8.718" style="fill:#00097c;fill-rule:evenodd" id="path9"></path>
  <path d="M162.26 201.062c8.26 9.806 16.688 19 25.434 25.666 8.11 6.18 16.435 10.106 25.058 10.067 13.5-.06 27.416-5.017 41.993-10.209q2.197-.783 4.414-1.567c10.77-3.803 21.095-7.216 31.784-8.871 10.994-1.702 22.073-1.48 33.828 2.171 6.095 1.893 12.357 4.086 18.666 6.296 18.54 6.491 37.511 13.135 51.644 11.83 9.75-.9 15.718-2.369 21.68-6.681 6.49-4.694 13.608-12.953 25.36-27.177l4.256-5.152 4.937 4.505 67.125 61.25 4.025 3.673-3.004 4.548c-4.338 6.567-8.604 13.188-12.691 19.89-4.084 6.699-8.026 13.533-11.736 20.562-7.046 13.35-3.195 26.597.36 38.823.475 1.636.946 3.254 1.264 4.393 5.876 21.036 15.762 39.617 25.58 58.07l-.02.01c6.068 11.403 12.11 22.76 17.167 34.474 11.384 26.37 18.679 51.35 21.52 75.003 2.869 23.898 1.187 46.427-5.42 67.656-6.218 19.977-15.012 35.596-26.024 47.933-11.062 12.392-24.253 21.355-39.24 28.004-11.793 5.232-24.658 9.529-38.215 12.98-14.363 3.657-29.553 6.377-45.103 8.268-5.956.724-11.905 1.206-17.831 1.687-18.226 1.478-36.235 2.939-51.278 11.515-3.745 2.135-7.61 4.592-11.416 7.143-3.925 2.632-7.725 5.317-11.261 7.857-1.914 1.378-3.75 2.24-5.615 2.562-2.636.454-4.998-.098-7.21-1.712-2.236-1.632-4.108-3.038-6.017-4.472-8.172-6.136-17.034-12.792-25.337-16.305-23.12-9.782-41.33-11.956-61.057-14.31-4.14-.493-8.349-.996-13.822-1.742-15.047-2.05-28.492-4.645-42.223-8.753-13.713-4.104-27.754-9.736-44.02-17.87-12.765-6.381-25.21-13.917-36.001-23.408-11.03-9.701-20.366-21.426-26.64-36.006-6.994-16.258-11.602-34.515-13.357-52.79-1.702-17.733-.7-35.515 3.434-51.546 3.952-15.329 9.77-29.274 17.236-42.829 7.404-13.443 16.428-26.522 26.86-40.214 9.239-12.124 18.256-28.063 24.415-43.623 5.338-13.487 8.466-26.449 7.565-35.919C111.4 306.47 97.4 284.325 84.1 263.287l-.2-.317-3.03-4.79 4.45-3.556 68.12-54.434 4.833-3.861zm17.71 35.781c-8.115-6.184-15.858-14.216-23.405-22.903l-58.877 47.047c13.178 20.927 26.226 42.8 28.295 64.56 1.108 11.648-2.364 26.644-8.363 41.798-6.558 16.568-16.22 33.62-26.157 46.663-10.06 13.201-18.74 25.774-25.815 38.62-7.013 12.734-12.45 25.718-16.09 39.838-3.756 14.568-4.654 30.862-3.085 47.21 1.623 16.901 5.904 33.83 12.411 48.955 5.454 12.676 13.644 22.934 23.35 31.471 9.946 8.748 21.45 15.71 33.26 21.615 15.451 7.726 28.844 13.092 41.979 17.022 13.118 3.925 25.941 6.401 40.279 8.355 3.928.535 8.817 1.119 13.623 1.692 20.596 2.458 39.609 4.727 64.495 15.257 9.755 4.127 19.262 11.266 28.027 17.849 1.476 1.108 2.932 2.201 4.226 3.163 3.587-2.573 7.383-5.251 11.179-7.796 4.068-2.728 8.204-5.356 12.213-7.642 17.528-9.994 36.927-11.567 56.56-13.16 5.794-.47 11.61-.941 17.332-1.636 14.97-1.82 29.606-4.443 43.46-7.97 12.92-3.289 25.118-7.356 36.221-12.282 13.42-5.954 25.164-13.903 34.904-24.814 9.79-10.967 17.669-25.048 23.333-43.25 6.055-19.453 7.582-40.227 4.922-62.374-2.689-22.39-9.663-46.194-20.572-71.466-5.035-11.663-10.843-22.578-16.674-33.537h-.025c-10.104-18.99-20.279-38.114-26.577-60.66a381 381 0 0 0-1.214-4.244c-4.245-14.602-8.844-30.422.587-48.29 3.834-7.263 7.91-14.33 12.134-21.259a616 616 0 0 1 9.948-15.73L447.67 215.85c-9.973 11.946-16.679 19.343-23.433 24.227-8.202 5.932-15.839 7.9-28.01 9.024-16.888 1.558-37.162-5.541-56.975-12.479-6.185-2.165-12.323-4.315-18.218-6.146-9.727-3.021-18.954-3.196-28.147-1.773-9.498 1.47-19.247 4.707-29.492 8.323q-2.217.784-4.413 1.568c-15.564 5.544-30.422 10.836-46.18 10.906-11.806.053-22.63-4.884-32.83-12.658" style="fill:#000;fill-rule:evenodd" id="path10"></path>
  <path d="M230.978 243.817c-3.465-.417-8.622-1.299-13.229-2.795-3.611-1.173-6.967-2.771-9.226-4.918-4.887-4.644-8.932-9.299-12.646-14.264-3.727-4.981-7.016-10.105-10.437-15.762-2.088-3.453-3.625-7.524-4.337-11.691-.678-3.966-.608-8.077.439-11.916 1.352-4.959 3.408-10.182 6.352-14.704 2.581-3.964 5.855-7.417 9.953-9.78 7.189-4.143 13.85-4.004 21.532-3.843 1.61.033 3.27.068 4.91.06 3.286-.018 6.5.06 9.721.138 9.939.24 19.948.482 29.029-2.195 7.091-2.09 14.13-4.987 20.61-9.123 6.399-4.085 12.312-9.421 17.267-16.447 1.703-2.414 3.67-3.281 5.937-3.043 2.088.219 3.52 1.34 4.718 3.004 4.518 6.278 9.217 11.058 14.273 15.035 5.11 4.02 10.613 7.24 16.671 10.36 5.168 2.662 11.575 4.507 17.924 5.698 8.285 1.553 16.353 1.971 21.498 1.635l.742-.044c14.352-.833 24.8 1.731 31.906 6.505 7.654 5.141 11.404 12.636 11.966 21.21v.02l.013.21v.019c.388 6.683-1.265 12.746-4.165 18.667-2.76 5.634-6.523 10.933-10.679 16.506a162 162 0 0 0-4.148 5.814 284 284 0 0 0-3.908 5.958c-2.346 3.654-5.43 6.26-8.808 8.038-3.872 2.036-8.124 2.954-12.06 3.104l-.348-9.882c2.576-.099 5.332-.685 7.796-1.98 1.96-1.032 3.743-2.534 5.088-4.628a278 278 0 0 1 4.063-6.151c1.55-2.282 3.027-4.387 4.38-6.202 3.914-5.249 7.422-10.166 9.75-14.917 2.183-4.458 3.433-8.947 3.157-13.765l-.013-.19c-.364-5.546-2.743-10.361-7.587-13.615-5.39-3.621-13.81-5.538-25.86-4.838l-.664.043c-5.795.38-14.797-.076-23.94-1.79-7.189-1.347-14.538-3.486-20.637-6.627-6.59-3.394-12.604-6.919-18.26-11.369-4.71-3.705-9.155-8.039-13.45-13.447-5.133 6.375-11.016 11.421-17.313 15.44-7.372 4.707-15.254 7.966-23.129 10.287-10.526 3.103-21.327 2.842-32.051 2.582-3.197-.077-6.387-.154-9.45-.138-1.826.01-3.51-.026-5.142-.06-6.22-.13-11.613-.242-16.416 2.526-2.61 1.504-4.789 3.848-6.582 6.602-2.342 3.598-4.002 7.843-5.113 11.914-.64 2.347-.66 4.999-.206 7.652a24 24 0 0 0 3.059 8.242c3.352 5.543 6.496 10.46 9.855 14.948 3.37 4.504 7.064 8.75 11.561 13.025 1.051.999 3.098 1.9 5.467 2.67 3.848 1.25 8.304 2.004 11.33 2.368z" style="fill:#000;fill-rule:evenodd" id="path11"></path>
  <path d="m259.531 156.664 22 63.625-13.877 4.78-22-63.626zM352.372 161.506l-21.687 63.187-13.934-4.78 21.687-63.186z" style="fill:none" id="path12"></path>
  <path d="m280.816 218.22-19.195-55.511c-4.953 1.06-9.955 1.483-14.971 1.613l20.084 58.083c4.72-1.577 9.39-3.012 14.082-4.185" style="fill:#fffe00;fill-rule:evenodd" id="path13"></path>
  <path d="m337.202 160.328-19.297 56.223a72 72 0 0 1 6.866 1.768c2.406.748 4.838 1.542 7.29 2.365l18.901-55.07c-4.595-1.249-9.048-2.857-12.981-4.883z" style="fill:#000679;fill-rule:evenodd" data-source="https://football-logos.cc" id="path14"></path>
  <!-- source: https://football-logos.cc -->
</svg>