<svg xmlns="http://www.w3.org/2000/svg" viewBox="0.26 0.26 71.63 78.85"><!-- Source: https://football-logos.cc --><path d="m0 0-.782-.352c-24.681-11.11-29.629-13.163-30.381-13.398l-.575-.18v-.602c0-15.082 2.484-26.153 7.815-34.84 4.794-7.81 11.927-14.053 23.853-20.875l.365-.208h.083l.365.208c11.925 6.822 19.058 13.065 23.852 20.875 5.332 8.687 7.815 19.758 7.815 34.84v.602l-.574.18c-.753.235-5.701 2.288-30.383 13.398L.336.151Z" style="fill:#1d1d1b;fill-opacity:1;fill-rule:nonzero;stroke:none" transform="matrix(1.1167 0 0 -1.1167 35.706 .433)" data-source="https://football-logos.cc"></path><path d="m0 0 .446.201L.891 0c17.218-7.75 27.283-12.199 29.985-13.255-.062-14.472-2.467-25.106-7.567-33.414C18.724-54.14 11.867-60.159.446-66.742c-11.421 6.583-18.278 12.602-22.863 20.073-5.099 8.308-7.505 18.942-7.567 33.414C-27.282-12.199-17.218-7.75 0 0" style="fill:#e20613;fill-opacity:1;fill-rule:nonzero;stroke:none" transform="matrix(1.1167 0 0 -1.1167 35.584 2.494)"></path><path d="m0 0 .446.201L.891 0c17.218-7.75 27.283-12.199 29.985-13.255-.062-14.472-2.467-25.106-7.567-33.414C18.724-54.14 11.867-60.159.446-66.742c-11.421 6.583-18.278 12.602-22.863 20.073-5.099 8.308-7.505 18.942-7.567 33.414C-27.282-12.199-17.218-7.75 0 0Z" style="fill:none;stroke:#1d1d1b;stroke-width:.13699999;stroke-linecap:butt;stroke-linejoin:miter;stroke-miterlimit:2.61299992;stroke-dasharray:none;stroke-opacity:1" transform="matrix(1.1167 0 0 -1.1167 35.584 2.494)"></path><path d="M0 0c.335.309.833.7 1.578 1.184.753.489 1.392.699 1.945.637.516-.041 1.032-.344 1.375-.873.349-.537.472-1.095.344-1.599-.167-.656-.673-1.246-1.393-1.714a2.5 2.5 0 0 0-.438-.239L4.67-4.542l-1.21-.787Zm2.802-1.666c.12.043.253.119.429.233.65.422.837 1.011.483 1.555-.322.497-.851.575-1.468.174q-.372-.243-.479-.368Z" style="fill:#1d1d1b;fill-opacity:1;fill-rule:nonzero;stroke:none" transform="matrix(1.1167 0 0 -1.1167 15.04 19.242)"></path><path d="M0 0c.335.309.833.7 1.578 1.184.753.489 1.392.699 1.945.637.516-.041 1.032-.344 1.375-.873.349-.537.472-1.095.344-1.599-.167-.656-.673-1.246-1.393-1.714a2.5 2.5 0 0 0-.438-.239L4.67-4.542l-1.21-.787Zm2.802-1.666c.12.043.253.119.429.233.65.422.837 1.011.483 1.555-.322.497-.851.575-1.468.174q-.372-.243-.479-.368Z" style="fill:none;stroke:#1d1d1b;stroke-width:.546;stroke-linecap:butt;stroke-linejoin:miter;stroke-miterlimit:2.61299992;stroke-dasharray:none;stroke-opacity:1" transform="matrix(1.1167 0 0 -1.1167 15.04 19.242)"></path><path d="m0 0-2.191-.902.583-1.414L.838-1.308l.455-1.104-3.79-1.561-2.452 5.954 3.666 1.51.455-1.104-2.323-.957.509-1.237 2.191.902z" style="fill:#1d1d1b;fill-opacity:1;fill-rule:nonzero;stroke:none" transform="matrix(1.1167 0 0 -1.1167 26.28 17.873)"></path><path d="m0 0-2.191-.902.583-1.414L.838-1.308l.455-1.104-3.79-1.561-2.452 5.954 3.666 1.51.455-1.104-2.323-.957.509-1.237 2.191.902z" style="fill:none;stroke:#1d1d1b;stroke-width:.546;stroke-linecap:butt;stroke-linejoin:miter;stroke-miterlimit:2.61299992;stroke-dasharray:none;stroke-opacity:1" transform="matrix(1.1167 0 0 -1.1167 26.28 17.873)"></path><path d="M0 0c.441.178 1.103.373 1.871.531.936.192 1.62.186 2.144-.087.445-.22.741-.618.86-1.198.164-.795-.293-1.465-.796-1.773l.006-.028c.476-.088.804-.449 1.082-.997.345-.68.701-1.465.873-1.683l-1.46-.3c-.13.158-.395.64-.732 1.38-.342.759-.655.909-1.246.798l-.422-.087.509-2.48-1.413-.29Zm1.968-2.415.562.116c.711.146 1.059.588.946 1.14-.117.572-.572.79-1.227.656-.347-.072-.539-.131-.636-.18Z" style="fill:#1d1d1b;fill-opacity:1;fill-rule:nonzero;stroke:none" transform="matrix(1.1167 0 0 -1.1167 26.605 13.532)"></path><path d="M0 0c.441.178 1.103.373 1.871.531.936.192 1.62.186 2.144-.087.445-.22.741-.618.86-1.198.164-.795-.293-1.465-.796-1.773l.006-.028c.476-.088.804-.449 1.082-.997.345-.68.701-1.465.873-1.683l-1.46-.3c-.13.158-.395.64-.732 1.38-.342.759-.655.909-1.246.798l-.422-.087.509-2.48-1.413-.29Zm1.968-2.415.562.116c.711.146 1.059.588.946 1.14-.117.572-.572.79-1.227.656-.347-.072-.539-.131-.636-.18Z" style="fill:none;stroke:#1d1d1b;stroke-width:.546;stroke-linecap:butt;stroke-linejoin:miter;stroke-miterlimit:2.61299992;stroke-dasharray:none;stroke-opacity:1" transform="matrix(1.1167 0 0 -1.1167 26.605 13.532)"></path><path d="m0 0-.06-3.697c-.018-1.117.403-1.688 1.139-1.7.764-.013 1.192.516 1.211 1.662l.06 3.697 1.452-.024-.058-3.611C3.711-5.66 2.693-6.589 1.012-6.562c-1.624.027-2.555.949-2.522 2.994l.058 3.591z" style="fill:#1d1d1b;fill-opacity:1;fill-rule:nonzero;stroke:none" transform="matrix(1.1167 0 0 -1.1167 35.157 12.196)"></path><path d="m0 0-.06-3.697c-.018-1.117.403-1.688 1.139-1.7.764-.013 1.192.516 1.211 1.662l.06 3.697 1.452-.024-.058-3.611C3.711-5.66 2.693-6.589 1.012-6.562c-1.624.027-2.555.949-2.522 2.994l.058 3.591z" style="fill:none;stroke:#1d1d1b;stroke-width:.546;stroke-linecap:butt;stroke-linejoin:miter;stroke-miterlimit:2.61299992;stroke-dasharray:none;stroke-opacity:1" transform="matrix(1.1167 0 0 -1.1167 35.157 12.196)"></path><path d="M0 0a7.2 7.2 0 0 0-2.174.161c-1.141.28-1.896.771-2.337 1.46-.431.687-.546 1.581-.32 2.499.52 2.076 2.324 2.891 4.374 2.387.808-.198 1.391-.509 1.663-.723L.628 4.716c-.304.242-.695.456-1.381.625-1.179.289-2.243-.157-2.576-1.512-.319-1.299.313-2.251 1.472-2.536.316-.078.585-.105.707-.085l.324 1.317-.965.237.272 1.104L.81 3.294z" style="fill:#1d1d1b;fill-opacity:1;fill-rule:nonzero;stroke:none" transform="matrix(1.1167 0 0 -1.1167 45.828 20.624)"></path><path d="M0 0a7.2 7.2 0 0 0-2.174.161c-1.141.28-1.896.771-2.337 1.46-.431.687-.546 1.581-.32 2.499.52 2.076 2.324 2.891 4.374 2.387.808-.198 1.391-.509 1.663-.723L.628 4.716c-.304.242-.695.456-1.381.625-1.179.289-2.243-.157-2.576-1.512-.319-1.299.313-2.251 1.472-2.536.316-.078.585-.105.707-.085l.324 1.317-.965.237.272 1.104L.81 3.294z" style="fill:none;stroke:#1d1d1b;stroke-width:.546;stroke-linecap:butt;stroke-linejoin:miter;stroke-miterlimit:2.61299992;stroke-dasharray:none;stroke-opacity:1" transform="matrix(1.1167 0 0 -1.1167 45.828 20.624)"></path><path d="m0 0-2.498-5.935-1.338.563L-1.338.563z" style="fill:#1d1d1b;fill-opacity:1;fill-rule:nonzero;stroke:none" transform="matrix(1.1167 0 0 -1.1167 50.436 15.268)"></path><path d="m0 0-2.498-5.935-1.338.563L-1.338.563z" style="fill:none;stroke:#1d1d1b;stroke-width:.546;stroke-linecap:butt;stroke-linejoin:miter;stroke-miterlimit:2.61299992;stroke-dasharray:none;stroke-opacity:1" transform="matrix(1.1167 0 0 -1.1167 50.436 15.268)"></path><path d="m0 0-1.247-1.174-1.287.79 5.045 4.459 1.62-.994-1.656-6.538-1.336.819.441 1.669zm1.962.074.372 1.375c.111.381.268.856.381 1.223l-.025.016c-.273-.282-.617-.642-.893-.91L.749.819Z" style="fill:#1d1d1b;fill-opacity:1;fill-rule:nonzero;stroke:none" transform="matrix(1.1167 0 0 -1.1167 50.647 21.34)"></path><path d="m0 0-1.247-1.174-1.287.79 5.045 4.459 1.62-.994-1.656-6.538-1.336.819.441 1.669zm1.962.074.372 1.375c.111.381.268.856.381 1.223l-.025.016c-.273-.282-.617-.642-.893-.91L.749.819Z" style="fill:none;stroke:#1d1d1b;stroke-width:.546;stroke-linecap:butt;stroke-linejoin:miter;stroke-miterlimit:2.61299992;stroke-dasharray:none;stroke-opacity:1" transform="matrix(1.1167 0 0 -1.1167 50.647 21.34)"></path><path d="M0 0c.335.309.833.7 1.578 1.184.753.489 1.392.699 1.945.637.516-.041 1.032-.344 1.375-.873.349-.537.472-1.095.344-1.599-.167-.656-.673-1.246-1.393-1.714a2.5 2.5 0 0 0-.438-.239L4.67-4.542l-1.21-.787Zm2.802-1.666c.12.043.253.119.429.233.65.422.837 1.011.483 1.555-.322.497-.851.575-1.468.174q-.372-.243-.479-.368Z" style="fill:#fff;fill-opacity:1;fill-rule:nonzero;stroke:none" transform="matrix(1.1167 0 0 -1.1167 15.04 19.242)"></path><path d="m0 0-2.191-.902.583-1.414L.838-1.308l.455-1.104-3.79-1.561-2.452 5.954 3.666 1.51.455-1.104-2.323-.957.509-1.237 2.191.902z" style="fill:#fff;fill-opacity:1;fill-rule:nonzero;stroke:none" transform="matrix(1.1167 0 0 -1.1167 26.28 17.873)"></path><path d="M0 0c.441.178 1.103.373 1.871.531.936.192 1.62.186 2.144-.087.445-.22.741-.618.86-1.198.164-.795-.293-1.465-.796-1.773l.006-.028c.476-.088.804-.449 1.082-.997.345-.68.701-1.465.873-1.683l-1.46-.3c-.13.158-.395.64-.732 1.38-.342.759-.655.909-1.246.798l-.422-.087.509-2.48-1.413-.29Zm1.968-2.415.562.116c.711.146 1.059.588.946 1.14-.117.572-.572.79-1.227.656-.347-.072-.539-.131-.636-.18Z" style="fill:#fff;fill-opacity:1;fill-rule:nonzero;stroke:none" transform="matrix(1.1167 0 0 -1.1167 26.605 13.532)"></path><path d="m0 0-.06-3.697c-.018-1.117.403-1.688 1.139-1.7.764-.013 1.192.516 1.211 1.662l.06 3.697 1.452-.024-.058-3.611C3.711-5.66 2.693-6.589 1.012-6.562c-1.624.027-2.555.949-2.522 2.994l.058 3.591z" style="fill:#fff;fill-opacity:1;fill-rule:nonzero;stroke:none" transform="matrix(1.1167 0 0 -1.1167 35.157 12.196)"></path><path d="M0 0a7.2 7.2 0 0 0-2.174.161c-1.141.28-1.896.771-2.337 1.46-.431.687-.546 1.581-.32 2.499.52 2.076 2.324 2.891 4.374 2.387.808-.198 1.391-.509 1.663-.723L.628 4.716c-.304.242-.695.456-1.381.625-1.179.289-2.243-.157-2.576-1.512-.319-1.299.313-2.251 1.472-2.536.316-.078.585-.105.707-.085l.324 1.317-.965.237.272 1.104L.81 3.294z" style="fill:#fff;fill-opacity:1;fill-rule:nonzero;stroke:none" transform="matrix(1.1167 0 0 -1.1167 45.828 20.624)"></path><path d="m0 0-2.498-5.935-1.338.563L-1.338.563z" style="fill:#fff;fill-opacity:1;fill-rule:nonzero;stroke:none" transform="matrix(1.1167 0 0 -1.1167 50.436 15.268)"></path><path d="m0 0-1.247-1.174-1.287.79 5.045 4.459 1.62-.994-1.656-6.538-1.336.819.441 1.669zm1.962.074.372 1.375c.111.381.268.856.381 1.223l-.025.016c-.273-.282-.617-.642-.893-.91L.749.819Z" style="fill:#fff;fill-opacity:1;fill-rule:nonzero;stroke:none" transform="matrix(1.1167 0 0 -1.1167 50.647 21.34)"></path><path d="M0 0h-.844v3.192a2.9 2.9 0 0 0-1.092-.642v.768q.33.11.719.411.388.304.531.707H0Z" style="fill:#1d1d1b;fill-opacity:1;fill-rule:nonzero;stroke:none" transform="matrix(1.1167 0 0 -1.1167 30.801 65.311)"></path><path d="M0 0h-.844v3.192a2.9 2.9 0 0 0-1.092-.642v.768q.33.11.719.411.388.304.531.707H0Z" style="fill:none;stroke:#1d1d1b;stroke-width:.273;stroke-linecap:butt;stroke-linejoin:miter;stroke-miterlimit:2.61299992;stroke-dasharray:none;stroke-opacity:1" transform="matrix(1.1167 0 0 -1.1167 30.801 65.311)"></path><path d="M0 0q.646 0 1.009-.459.433-.544.433-1.803 0-1.257-.436-1.806Q.646-4.521 0-4.521q-.648 0-1.044.497-.397.496-.397 1.771 0 1.25.436 1.799Q-.645 0 0 0m0-.7a.4.4 0 0 1-.272-.098q-.122-.098-.186-.353-.088-.33-.087-1.111 0-.781.077-1.074.078-.292.197-.389A.4.4 0 0 1 0-3.822q.153 0 .273.099.12.098.186.352.087.328.087 1.109T.468-1.188q-.077.291-.197.39A.4.4 0 0 1 0-.7" style="fill:#1d1d1b;fill-opacity:1;fill-rule:nonzero;stroke:none" transform="matrix(1.1167 0 0 -1.1167 36.968 60.358)"></path><path d="M0 0q.646 0 1.009-.459.433-.544.433-1.803 0-1.257-.436-1.806Q.646-4.521 0-4.521q-.648 0-1.044.497-.397.496-.397 1.771 0 1.25.436 1.799Q-.645 0 0 0Zm0-.7a.4.4 0 0 1-.272-.098q-.122-.098-.186-.353-.088-.33-.087-1.111 0-.781.077-1.074.078-.292.197-.389A.4.4 0 0 1 0-3.822q.153 0 .273.099.12.098.186.352.087.328.087 1.109T.468-1.188q-.077.291-.197.39A.4.4 0 0 1 0-.7Z" style="fill:none;stroke:#1d1d1b;stroke-width:.273;stroke-linecap:butt;stroke-linejoin:miter;stroke-miterlimit:2.61299992;stroke-dasharray:none;stroke-opacity:1" transform="matrix(1.1167 0 0 -1.1167 36.968 60.358)"></path><path d="m0 0 .844.087a.72.72 0 0 1 .215-.454.583.583 0 0 1 .863.05q.184.218.184.656 0 .412-.183.618a.6.6 0 0 1-.476.205q-.366 0-.656-.324l-.689.1.435 2.297H2.78v-.793h-1.6l-.133-.747q.284.141.58.141.565 0 .957-.413.393-.413.393-1.071 0-.549-.317-.981-.432-.588-1.199-.588-.614 0-.999.329Q.075-.558 0 0" style="fill:#1d1d1b;fill-opacity:1;fill-rule:nonzero;stroke:none" transform="matrix(1.1167 0 0 -1.1167 38.88 64.047)"></path><path d="m0 0 .844.087a.72.72 0 0 1 .215-.454.583.583 0 0 1 .863.05q.184.218.184.656 0 .412-.183.618a.6.6 0 0 1-.476.205q-.366 0-.656-.324l-.689.1.435 2.297H2.78v-.793h-1.6l-.133-.747q.284.141.58.141.565 0 .957-.413.393-.413.393-1.071 0-.549-.317-.981-.432-.588-1.199-.588-.614 0-.999.329Q.075-.558 0 0Z" style="fill:none;stroke:#1d1d1b;stroke-width:.273;stroke-linecap:butt;stroke-linejoin:miter;stroke-miterlimit:2.61299992;stroke-dasharray:none;stroke-opacity:1" transform="matrix(1.1167 0 0 -1.1167 38.88 64.047)"></path><path d="M0 0h-.844v3.192a2.9 2.9 0 0 0-1.092-.642v.768q.33.11.719.411.388.304.531.707H0Z" style="fill:#fff;fill-opacity:1;fill-rule:nonzero;stroke:none" transform="matrix(1.1167 0 0 -1.1167 30.801 65.311)"></path><path d="M0 0q.646 0 1.009-.459.433-.544.433-1.803 0-1.257-.436-1.806Q.646-4.521 0-4.521q-.648 0-1.044.497-.397.496-.397 1.771 0 1.25.436 1.799Q-.645 0 0 0m0-.7a.4.4 0 0 1-.272-.098q-.122-.098-.186-.353-.088-.33-.087-1.111 0-.781.077-1.074.078-.292.197-.389A.4.4 0 0 1 0-3.822q.153 0 .273.099.12.098.186.352.087.328.087 1.109T.468-1.188q-.077.291-.197.39A.4.4 0 0 1 0-.7" style="fill:#fff;fill-opacity:1;fill-rule:nonzero;stroke:none" transform="matrix(1.1167 0 0 -1.1167 36.968 60.358)"></path><path d="m0 0 .844.087a.72.72 0 0 1 .215-.454.583.583 0 0 1 .863.05q.184.218.184.656 0 .412-.183.618a.6.6 0 0 1-.476.205q-.366 0-.656-.324l-.689.1.435 2.297H2.78v-.793h-1.6l-.133-.747q.284.141.58.141.565 0 .957-.413.393-.413.393-1.071 0-.549-.317-.981-.432-.588-1.199-.588-.614 0-.999.329Q.075-.558 0 0" style="fill:#fff;fill-opacity:1;fill-rule:nonzero;stroke:none" transform="matrix(1.1167 0 0 -1.1167 38.88 64.047)"></path><path d="M0 0h-.94l-.367.973h-1.709L-3.367 0h-.924l1.648 4.283h.935zm-1.59 1.698-.59 1.587-.573-1.587Z" style="fill:#1d1d1b;fill-opacity:1;fill-rule:nonzero;stroke:none" transform="matrix(1.1167 0 0 -1.1167 22.99 49.814)"></path><path d="M0 0h-.94l-.367.973h-1.709L-3.367 0h-.924l1.648 4.283h.935zm-1.59 1.698-.59 1.587-.573-1.587Z" style="fill:none;stroke:#1d1d1b;stroke-width:.273;stroke-linecap:butt;stroke-linejoin:miter;stroke-miterlimit:2.61299992;stroke-dasharray:none;stroke-opacity:1" transform="matrix(1.1167 0 0 -1.1167 22.99 49.814)"></path><path d="M44.288 767.286h.819v-.819h-.819z" style="fill:#1d1d1b;fill-opacity:1;fill-rule:nonzero;stroke:#1d1d1b;stroke-width:.273;stroke-linecap:butt;stroke-linejoin:miter;stroke-miterlimit:2.61299992;stroke-dasharray:none;stroke-opacity:1" transform="matrix(1.1167 0 0 -1.1167 -26.294 905.728)"></path><path d="m0 0 .836-.256Q.643-.966.194-1.311q-.449-.344-1.14-.344-.853 0-1.404.584-.55.583-.55 1.596 0 1.07.553 1.663t1.456.593q.788 0 1.279-.465.293-.274.44-.79l-.853-.204a.9.9 0 0 1-.32.524.92.92 0 0 1-.59.192.99.99 0 0 1-.779-.341q-.299-.342-.299-1.108 0-.812.294-1.157a.96.96 0 0 1 .764-.345q.346 0 .597.22.25.22.358.693" style="fill:#1d1d1b;fill-opacity:1;fill-rule:nonzero;stroke:none" transform="matrix(1.1167 0 0 -1.1167 50.355 48.051)"></path><path d="m0 0 .836-.256Q.643-.966.194-1.311q-.449-.344-1.14-.344-.853 0-1.404.584-.55.583-.55 1.596 0 1.07.553 1.663t1.456.593q.788 0 1.279-.465.293-.274.44-.79l-.853-.204a.9.9 0 0 1-.32.524.92.92 0 0 1-.59.192.99.99 0 0 1-.779-.341q-.299-.342-.299-1.108 0-.812.294-1.157a.96.96 0 0 1 .764-.345q.346 0 .597.22.25.22.358.693Z" style="fill:none;stroke:#1d1d1b;stroke-width:.273;stroke-linecap:butt;stroke-linejoin:miter;stroke-miterlimit:2.61299992;stroke-dasharray:none;stroke-opacity:1" transform="matrix(1.1167 0 0 -1.1167 50.355 48.051)"></path><path d="M69.901 767.286h.819v-.819h-.819z" style="fill:#1d1d1b;fill-opacity:1;fill-rule:nonzero;stroke:#1d1d1b;stroke-width:.273;stroke-linecap:butt;stroke-linejoin:miter;stroke-miterlimit:2.61299992;stroke-dasharray:none;stroke-opacity:1" transform="matrix(1.1167 0 0 -1.1167 -26.294 905.728)"></path><path d="M0 0h-.94l-.367.973h-1.709L-3.367 0h-.924l1.648 4.283h.935zm-1.59 1.698-.59 1.587-.573-1.587Z" style="fill:#fff;fill-opacity:1;fill-rule:nonzero;stroke:none" transform="matrix(1.1167 0 0 -1.1167 22.99 49.814)"></path><path d="M44.288 767.286h.819v-.819h-.819z" style="fill:#fff;fill-opacity:1;fill-rule:nonzero;stroke:none" transform="matrix(1.1167 0 0 -1.1167 -26.294 905.728)"></path><path d="m0 0 .836-.256Q.643-.966.194-1.311q-.449-.344-1.14-.344-.853 0-1.404.584-.55.583-.55 1.596 0 1.07.553 1.663t1.456.593q.788 0 1.279-.465.293-.274.44-.79l-.853-.204a.9.9 0 0 1-.32.524.92.92 0 0 1-.59.192.99.99 0 0 1-.779-.341q-.299-.342-.299-1.108 0-.812.294-1.157a.96.96 0 0 1 .764-.345q.346 0 .597.22.25.22.358.693" style="fill:#fff;fill-opacity:1;fill-rule:nonzero;stroke:none" transform="matrix(1.1167 0 0 -1.1167 50.355 48.051)"></path><path d="M69.901 767.286h.819v-.819h-.819z" style="fill:#fff;fill-opacity:1;fill-rule:nonzero;stroke:none" transform="matrix(1.1167 0 0 -1.1167 -26.294 905.728)"></path><path d="M0 0c.162.268.375 1.725.071 1.725-.462 0-2.004-2.579-3.201-3.317 0 .134.03.474-.082.362-.112-.113-1.452-.956-1.709-.956.257.514 1.347 2.191.64 2.346.155.458.415 2.43-.006 2.43-.42 0-.818-2.711-1.612-3.598-.76-.85-2.205-2.491-2.327-2.835-.143.262-.247.675-.401.948.175.175.401.894.401 1.122 0 .227-.033.788.124 1.173-.534-.21-1.361-.962-1.361-.962s.018.165-.047.23c.114 0 .12.131.12.172v.491s.526.928 1.21 1.436c-.377.07-1.586-.806-1.586-.806s.21-.583-.193-.583-.105.706-.105.706l-.508 1.139-.491-1.139s.324-.706-.066-.706-.188.601-.188.601-1.507 1.393-1.867 1.314a49 49 0 0 0 1.437-1.962v-.334s-.317-.184-.215-.438c0 0-.324.269-.766.193-1.694-.29-.863-1.967-.311-1.923 0 .271-.016.41.224.41.379 0 .762-.984.981-1.203s-1.028.14-.911-.263c-.304-.123-1.305-.368-1.595-.158-.053-.386.422-.49.618-.411.074-.176.744.144.744.144s-.004-.25.259-.25c.044-.386.307-.342.394-.342s.351-.455.447-.359.035.57.342.57c.447 0 .236-.701-.07-.824-.307-.122.291.043.206-.162-.377-.745-.636-1.003-1.538-.223 0-.404.223-.855.578-1.052-.751-.457-1.275-.039-1.375.491-.316.166-.312.355-.312.495s-1.003-.32-1.003-.627c0-.306-.342.628-.342 1.043-1.016-.759.304-1.875.561-1.992-.025-.026-.707.134-.958.549 0-.684.941-.824.538-.945-.157-.059-.369-.07-.658.03-.262.334-.452.882-.639 1.026.158.044.004.311-.176.491.106.18-.044.63-.227.736.061.158.083.758 0 .841.013.179.076.614.076.614s.02.166.318.166.408-.18.6-.136c.141.032.471.209.523.539.599.178.613.741.364.99-.215-.291-.315-.374-.519-.416-.435.797-.538.156-1.003.214-.096.395.754.71.027 1.289a2 2 0 0 1-.144.104l.012.042c.173.691-.395.905-.606.803.295-.411.146-.473.046-.785-.035-.025-.064-.049-.097-.059-.484-.151.096-.807-.522-1.101-.269-.128-.267.067-.372.277s.01.594-.21.815c-.188.188-.305.231-.417.211-.199.437-.629.43-.833.207.212-.175.3-.274.346-.414-.303-.129-.555-.309-.341-.626.237-.35.999-.683 1.104-1.27-.044-.246-.254-.36-.372-.575s-.005-.363-.083-.442c-.079-.079-.964-.43-.964-.763 0-.268.21-.422.485-.527-.065-.224-.202-.379-.444-.489.304-.105.637-.017.818.164a.6.6 0 0 1 .131.204c.229-.01.411.062.517.237.149.245.058.809.377.928.218.083.306-.034.306-.797 0-.762.351-1.13.167-1.813a2 2 0 0 1-.056-.256c-.295-.114-.383-.289-.426-.332.064 0 .07-.07.07-.07s-.245-.152-.245-.35c.555.198.8.041.894-.053.093-.093.105-.526.105-.526s-.59.351-.824.281c-.191.023-.315.227-.684.227-.449 0-1.027-.747-1.027-.747s.589.432.887.432 1.186-1.069 1.56-1.156c.374-.088.842 0 .842 0s-.072-.567-.296-.532-.26.112-.437.112c-.068.133-.352.128-.482.171-.042.097-.265.094-.415.156-.094.093-.356.149-.541.232-.056.101-.348.16-.514.24-.086.086-.308.149-.441.216-.047.093-.34.174-.438.228-.392.216-.829.473-.993 1.391-.095.531.411.526.411.816 0 .264-.207.437-.484.464a3 3 0 0 1-.138.204c-.368.516-.74.336-.937.139.139 0 .492-.241.607-.469-.131-.082-.218-.173-.218-.173s-.166 0-.513-.187c-.464.248-.682.225-.98-.029.344-.122.516-.198.616-.259-.16-.243-.057-.536.012-.588q.161-.121.311-.208c-.334.11-.705.152-.845-.124q-.043.003-.094.004c-.596 0-.609-.508-.609-.797 0 0 .198.308.538.308q.048 0 .092.006c.084-.786 1.26-.403 1.521-.544.097-.152-.055-.201.079-.305.133-.103.363.04.435-.031s.178-.159.178-.661c0-.446-.628-1.661.137-1.387.168-.111.266-.187.144-.558.321.208.492.561.401.861.66.535-.471.778-.255 1.192.234.45 1.297-.303 1.297-.303s-.322-.064-.361-.368c-.04-.303.121-.514.261-.655.141-.14.28-.421.45-.496s.651-.033.71.091c0-.129.195-.418.342-.418 0-.146.286-.976.385-1.017.096.246.231.179.304.106.073-.304.498-.343.607-.362.11-.02.164-.316.164-.597.573.112.532.754.479.877.123-.053.473.192.567.227.032-.102.237-.23.134-.333.169-.169.14-.584.14-.584s.205.1.324.126c.12-.073.102-.347.004-.569.373.122.329.312.496.484.079-.079.146-.116.307-.277.518-.56 1.731-1.238 1.539-1.705-.484.403-1.27.827-1.741 1.346.26-.43.75-1.203 1.28-1.665a.7.7 0 0 0-.421-.006c-.267.089-.587.294-.739.375a.92.92 0 0 1-.611.209c-.56 0-.745-.596-.745-.841 0-.728-.546-.517-.546-1.309 0-.38.348-.555.441-.847s-.096-.823.237-1.431c.34-.62 1.107-1.402 1.428-1.846-.152.047-.495-.101-.925.036-.696.218-.731.885-1.099 1.074.175.45-.464.844-1.051.689-.678.386-.938-.344-.9-.513.321-.007.216.029.467-.012.082-.021.099-.143.003-.353-.175.052-.447-.229-.575-.384-.187.047-.651-.189-.485-.738.152.117.625.193.877.088-.187-.141-.325-.263-.264-.435-.499-.121-.502-.748-.257-.819.141.081.631.187.631.187s.222-.327.503-.397c.168-.042.478.187.478.187h.386c.327 0 .877.234 1.017.164s-.351-.573-.351-.573c.14-.035.398.327.526.327s.058-.35-.07-.573c.198-.046.093.725.572.655.082-.082.059-.327-.07-.549.105.023.386.304.643.339.157.021.619.011.806.011s.234.164.234.164.49.041.665.304c.176.262-.315 1.192-.333 1.49-.009.157.088.694.088 1.068 0 .299-.14.666-.122.842l-.002.098c.232-.261.423-.412.615-.659.198-.257.946-1.11 1.098-1.286s.409-.35.561-.724c.151-.374.198-.713.21-1.542s-.017-.984-.017-1.16-.254-.244-.228-.429c-.309.155-.73.067-.982-.269-.764.112-.979-.357-.876-.584-.523-.331-.347-1.015-.152-1.145.156.16.351.445.514.445.082-.207.174-.381.268-.392-.009-.509.28-.682.489-.733-.029.125.097.42.236.458.164-.035.362-.011.491-.011.084-.115.109-.066.191-.125-.058-.244.205-.538.489-.518-.049.156.091.561.196.561.713-.004.81.563.748.666.668.737.306 1.401.011 1.636.012.069.093.231.129.332.587-.068.934-.026.988.106-.753-.076-.939.1-.886.227.387.038.981.149.929.263-.288-.078-.893-.156-.911.018.252.207.662.266.604.447-.108-.064-.604-.088-.709-.018-.054.14-.132.491-.149.552.31 1.024-.071 1.112-.289 1.236-.193.109.169 1.166.14 1.63-.038.602-.433.823-.459 1.129.222.182.369.375.435.726.283-.206.647-.392 1.031-.392.298 0 .246.088.41.099.624-.275.66-.047.589.391.544.079.377.044.287.158 1.186.946.344.193-.129.199.456 1.997-1.122 4.72.269 4.825.982.074-.047-2.278 1.927-2.816.167-.499.433-.946-.151-1.74 1.027.245 1.273 1.296 1.121 1.635.619.152.701.666 1.063.666.293 0 .526-.269.783-.549-.058.222-.14 1.367-1.051 1.367-.327 0-.55-.059-.702-.128.363.151.48.607.48.922 0 .793-.986 1.819-.242 1.819.259 0 .372-.105.569-.627-.029 1.272-.872.992-1.109.622-.081-.027.001.573.536.511-.34.336-.93-.352-1.059-.933a.5.5 0 0 1-.015-.119c0-.618.315-.794.315-1.05 0-.258-.21-.643-.584-.643-.841 0-.666 1.706-1.87 1.706-.817 0-1.331-.748-1.331-1.683 0-.829.689-3.645-.152-3.645-.458 0-.792.41-1.035.873-.063.259-.167.527-.338 1.014-.268.76-.739 2.075-1.004 2.754h-.001l-.016.041c-.022.057-.06.163-.076.242l.025.093c.811-.281.95-.038 1.078.24 1.086-.268 1.402-.14 1.285.374.69.023.877.397.701.584.783.123.865.337.893.489.151-.031.7.33.64.621.506-.037 1.663.327 1.539 1.098.211.053.548.338.548.907.587.132 1.661 1.013.977 1.319.692.692.806 1.008.567 1.322.958.798.549 1.242.245 1.313.757.598.986 1.129.681 1.434.595.686.642 1.25.432 1.343C-.285-1.651.561-.167 0 0m-17.74-11.859c-.144.145.114.491.114.491v.035l.64-.255c-.092-.092-.609-.415-.754-.271" style="fill:#1d1d1b;fill-opacity:1;fill-rule:nonzero;stroke:none" transform="matrix(1.1167 0 0 -1.1167 47.462 25.683)"></path><path d="M0 0c-.149.149-2.261-2.576-3.225-3.207-.963-.63-2.348-1.665-2.803-2.12s-.065-.876.333-.613c2.026 1.34 3.113 1.974 4.468 3.329S.102-.101 0 0" style="fill:#fff;fill-opacity:1;fill-rule:nonzero;stroke:none" transform="matrix(1.1167 0 0 -1.1167 47.515 24.16)"></path><path d="M0 0c-.222 0-.345.093-.345.216S-.421.47-.421.47s-.38-.517-1.238-.517c-.526 0-.964.412-.964.649.088-.088.579-.456.876-.456s.561.315.631.315.053-.14.14-.14c.404.088.193 1.017.281 1.052.087-.045.137-.173.228-.263.199.308-.018.599-.206.887-.189.288-.363.988-.224 1.097-.057 0-.126-.079-.14-.094.011-.191.205-1.181.165-1.221-.171.514-.27 1.11-.384.917-.254-.938.403-1.086.35-1.499-.052-.07-.087.018-.122-.052.052-.237-.386-.701-.719-.701-1.042 0-.806 1.84-1.945 1.84-.631 0-1.192-.695-1.192-1.7 0-.613.701-3.768-.28-3.768-.741 0-1.07.558-1.271.884a.4.4 0 0 1-.008.063c-.053.21-1.017.508-1.034.754 1.27-.264-.684.946-.684 1.156 1.131-.333-.14.613-.157.788.858-.131-.333.64-.351.877 1.161-.463.053.274.027.496l.004-.003-.005.006c.745.202-.365.698-.446.827-.094-.047.303-.538.233-.561-.946 1.005-.748.233-.397-.42-.07-.024-.619.537-.678.724-.011-.316.094-.678.14-.982-.069.059-.14.035-.245.035-.117-.198-.035-.409-.035-.572-.094 0-.163.49-.187.607s-.187.304-.187.585c0 .139.098.376.208.597-.613-.259-1.324-.726-1.324-.831 0-.929 2.039-1.481 2.039-2.722 0-.95-.993-.31-.993-1.227 0-.993 1.087-2.372 1.379-2.78.292-.409.841-1.029 1.052-1.262.21-.234.945-.824.945-1.659 0-.234-.116-.102-.116-.479 0-.164.056-.982.082-1.297.021-.256-.256-.381-.243-.616.048-.05.574-.199.605.778.079-.604-.063-.736-.257-.828a1.43 1.43 0 0 1-.543-.695c-.339 0-.643-.169-.567-.357.286-.163.461 0 .479.047 0-.222-.374-.356-.55-.187-.531.117-.917-.49-.361-.643.736.451.415-.286.818-.069.052.426.566.689.566.899-.1.258.061.607.259.789l.02.017q.049.041.097.067c.102.078.23.201.267.278.046.1.128.134.128.286.111-.082-.093-.42-.204-.538-.345-.315-.824-.823.128-.899.1-.205.514.024.538.304.099.064.151.023.245-.035-.029.45-.275.566-.345.753-.065.174-.065.482-.036.647-.427.29-.572.287-.691.449-.122.166-.009.543-.122 1.008.21-.176.124-.678.227-.885.125-.249.509-.406.604-.527.312.214-.076.236-.104.57.292.246.184.619.041.619-.17 0-.24-.215-.263-.449-.129.637-.409 1.022-.485 1.191.093-.052.397-.479.514-.66.666.742.234 1.063-.035 1.034-.152.841.182 1.082-.035 2.156-.175.867-.692 1.323-.859 1.822.131-.052.263-.4.508-.42.191-.016.311.435.365.841.314-.39.764-.882 1.323-.882.795 0 1.005.724 1.005 1.519S-4.459.142-4.484.561c-.049.829.255 1.402.792 1.402.727 0 .748-1.215.818-1.636s.312-.829.532-.829c-.106.148-.068.318-.027.412.079-.096.211-.626.754-.763 1.469-.37.438.14.213.339.07.163.751-.111 1.028.07-.049.152.511.31 1.051.024C.733-.134.216 0 0 0" style="fill:#fff;fill-opacity:1;fill-rule:nonzero;stroke:none" transform="matrix(1.1167 0 0 -1.1167 44.397 42.778)"></path><path d="M0 0c.187 0 .701-.316.701-.444 0-.129-.117-.187-.117-.187s.643-.234.643-.911c0-.678-.304-.514-.304-.514S2.15-3.832 2.15-4.288s-.141-.958-.141-1.227c0-.268.117-.584.117-.981.234.012.265-.385.257-.514-.023-.397-.572-.304-.572-.304-.012-.14.012-.257-.292-.257S.9-7.489.62-7.489c-.129.047-.036.105-.082.152-.047.046-.596.035-.631.058-.035.024-.011.258-.14.258-.292 0-.246-.129-.304-.129-.059 0-.351-.129-.467-.129s-.164-.07-.351-.07-.421.024-.444.164c-.027-.161-.07-.293-.315-.293-.193 0-.526.045-.474.518-.043.105-.534.035-.333.359.202.324.561.298.719.167 0 0 .193.289-.368.385-.276.048-.333.027-.333.027s0 .306-.114.35c.017.114.228.315.377.315.315 0 .677-.321.642-.648.281.129.503.338.958-.035-.327.561-.607.327-.724.35-.163.187-.608.538-.771.596.058.082.012.198.012.198s.28.152.28.246c-.011-.199.175-.269.28-.175.106.093 0 .327 0 .327s.199.117.433-.106c.233-.221 0-.525 0-.525s.2.212.467-.222c.094-.152.304-.514.327-.572.024-.059-.047.128.024.069.07-.058.303-.245.455-.326s.97-.082 1.168-.106c.199-.023.222-.082.246-.21 0 0 .058-.035.07.059.012.093-.725.981-1.192 1.472-.467.49-.537 1.063-.537 1.495s.035.596-.023.689c-.059.094-.55.596-.55.853 0 .421.456.655.608.97S-.561 0 0 0" style="fill:#fff;fill-opacity:1;fill-rule:nonzero;stroke:none" transform="matrix(1.1167 0 0 -1.1167 30.933 43.443)"></path><path d="M0 0c0 .117.352.453.491.175C.643-.128.187 0 0 0" style="fill:#fff;fill-opacity:1;fill-rule:nonzero;stroke:none" transform="matrix(1.1167 0 0 -1.1167 27.67 48.636)"></path><path d="M0 0c-.116.151.328.385.421.21C.568-.066.164.046 0 0" style="fill:#fff;fill-opacity:1;fill-rule:nonzero;stroke:none" transform="matrix(1.1167 0 0 -1.1167 26.98 50.188)"></path><path d="M0 0c-.105.175.22.665.432.315C.596.047.141.128 0 0" style="fill:#fff;fill-opacity:1;fill-rule:nonzero;stroke:none" transform="matrix(1.1167 0 0 -1.1167 27.215 51.584)"></path><path d="M0 0c.122-.147.882-1.062 1.063-.923C1.303-.738.199-.115 0 0" style="fill:#fff;fill-opacity:1;fill-rule:nonzero;stroke:none" transform="matrix(1.1167 0 0 -1.1167 32.394 43.052)"></path><path d="M0 0c-.009-.093.191-.278.07-.298C-.106-.326-.096.009 0 0" style="fill:#fff;fill-opacity:1;fill-rule:nonzero;stroke:none" transform="matrix(1.1167 0 0 -1.1167 36.889 54.787)"></path><path d="M0 0c-.168.007.174.792.393.546C.677.226.175.276 0 0" style="fill:#fff;fill-opacity:1;fill-rule:nonzero;stroke:none" transform="matrix(1.1167 0 0 -1.1167 33.614 55.87)"></path><path d="M0 0c-.175.102.435.477.619.371.118-.07.252-.32.422-.437 0-.071.012-.184-.076-.213C.877-.309.502-.423.444-.394a.18.18 0 0 0-.102.16.4.4 0 0 0-.247.088C.065-.11 0 0 0 0" style="fill:#fff;fill-opacity:1;fill-rule:nonzero;stroke:none" transform="matrix(1.1167 0 0 -1.1167 34.02 54.958)"></path><path d="M0 0c.154.09.441-.348.279-.443C.087-.441-.108-.093 0 0" style="fill:#fff;fill-opacity:1;fill-rule:nonzero;stroke:none" transform="matrix(1.1167 0 0 -1.1167 35 54.366)"></path><path d="M0 0c.116-.145.337-.589.553-.509C.726-.446.565.354 0 0" style="fill:#fff;fill-opacity:1;fill-rule:nonzero;stroke:none" transform="matrix(1.1167 0 0 -1.1167 35.207 54.26)"></path><path d="M0 0c.016.22.321.346.109.488C-.103.629-.211.022 0 0" style="fill:#fff;fill-opacity:1;fill-rule:nonzero;stroke:none" transform="matrix(1.1167 0 0 -1.1167 34.939 56.87)"></path><path d="M0 0c-.044.149.231.391 0 .488S-.226 0 0 0" style="fill:#fff;fill-opacity:1;fill-rule:nonzero;stroke:none" transform="matrix(1.1167 0 0 -1.1167 36.469 57.061)"></path><path d="M0 0c-.087-.13-.372.219-.102.364.041.092.146.367.313.321.74.716 1.445-.773.255-.678C.438.209.829.249.59.313.409.362.316.328.27.378.233.335.272.197.313.131.24.109.079.179.029.27-.051.233-.004.061 0 0" style="fill:#fff;fill-opacity:1;fill-rule:nonzero;stroke:none" transform="matrix(1.1167 0 0 -1.1167 36.198 56.48)"></path><path d="M0 0c.181-.251.415-.566.158-1.192C.497-1.373.871-.018 0 0" style="fill:#fff;fill-opacity:1;fill-rule:nonzero;stroke:none" transform="matrix(1.1167 0 0 -1.1167 42.564 44.024)"></path><path d="M0 0s.35-.572.502-.725c.152-.151.596-.326.666-.256s-.327.304-.444.42L.082.082C0 .164 0 0 0 0" style="fill:#fff;fill-opacity:1;fill-rule:nonzero;stroke:none" transform="matrix(1.1167 0 0 -1.1167 35.356 39.203)"></path><path d="M0 0c.397-.292 1.373-.929 1.688-.929.316 0 .475-.227.152-.28-.713-.117-1.758.718-2.027.987S-.397.292 0 0" style="fill:#fff;fill-opacity:1;fill-rule:nonzero;stroke:none" transform="matrix(1.1167 0 0 -1.1167 35.975 38.714)"></path><path d="M0 0c.354-.335.841-.783 1.647-.876.807-.094.69.163.328.257C1.613-.526.807-.362.421.023.035.409-.222.21 0 0" style="fill:#fff;fill-opacity:1;fill-rule:nonzero;stroke:none" transform="matrix(1.1167 0 0 -1.1167 36.425 38.499)"></path><path d="M0 0c.465-.465 1.437-.713 2.243-.818s.608.49.07.49c-.537 0-1.437.199-1.869.503S-.379.38 0 0" style="fill:#fff;fill-opacity:1;fill-rule:nonzero;stroke:none" transform="matrix(1.1167 0 0 -1.1167 36.647 38.055)"></path><path d="M0 0a8.7 8.7 0 0 1 2.103-.479c.806-.083 1.285.327.339.491S1.122.444.491.584C-.14.725-.487.175 0 0" style="fill:#fff;fill-opacity:1;fill-rule:nonzero;stroke:none" transform="matrix(1.1167 0 0 -1.1167 37.495 37.794)"></path><path d="M0 0c.885-.364 1.975-.747 2.641-.654s1.366.69.747.69S1.239.024.631.374-.532.22 0 0" style="fill:#fff;fill-opacity:1;fill-rule:nonzero;stroke:none" transform="matrix(1.1167 0 0 -1.1167 38.434 36.855)"></path><path d="M0 0c1.025-.249 2.348-.491 3.131-.199s.438.754-.011.596C2.67.239.841.304.433.432.023.561-.675.164 0 0" style="fill:#fff;fill-opacity:1;fill-rule:nonzero;stroke:none" transform="matrix(1.1167 0 0 -1.1167 39.152 36.267)"></path><path d="M0 0c1.952-.199 2.793-.313 4.124.701.736.561-.315.245-.549.175C3.342.806 1.063.572.397.643S-.514 0-.047 0Z" style="fill:#fff;fill-opacity:1;fill-rule:nonzero;stroke:none" transform="matrix(1.1167 0 0 -1.1167 39.674 35.563)"></path><path d="M0 0c1.694-.014 2.909-.264 4.054.876.522.52.503 1.099-.514.713C2.337 1.133 1.449.806.42.806-.607.806-.526.004 0 0" style="fill:#fff;fill-opacity:1;fill-rule:nonzero;stroke:none" transform="matrix(1.1167 0 0 -1.1167 40.092 34.572)"></path><path d="M0 0c1.203 0 3.265.825 3.864 1.002.797.236.704 1.136.143.832S.993.456.28.456-.246 0 0 0" style="fill:#fff;fill-opacity:1;fill-rule:nonzero;stroke:none" transform="matrix(1.1167 0 0 -1.1167 40.535 33.541)"></path><path d="M0 0c1.198 0 4.357 1.682 4.58 2.033.221.35.502.981-.152.537C3.773 2.126 1.682.619.572.561-.538.502-.128 0 0 0" style="fill:#fff;fill-opacity:1;fill-rule:nonzero;stroke:none" transform="matrix(1.1167 0 0 -1.1167 40.744 32.862)"></path><path d="M0 0c.768 0 3.313 1.455 3.833 1.975.519.52 1.078 1.31 1.004 1.448-.111.211-.769-.431-1.285-.806C2.956 2.185.433.619.117.561S-.292 0 0 0" style="fill:#fff;fill-opacity:1;fill-rule:nonzero;stroke:none" transform="matrix(1.1167 0 0 -1.1167 41.252 32.132)"></path><path d="M0 0c1.405.729 3.578 2.015 4.662 2.979.601.535 1.207 1.646 1.087 1.788-.18.209-.929-.824-1.437-1.332C3.531 2.655.648.718.246.491-.158.263-.374-.194 0 0" style="fill:#fff;fill-opacity:1;fill-rule:nonzero;stroke:none" transform="matrix(1.1167 0 0 -1.1167 41.096 31.46)"></path><path d="M0 0a.066.066 0 0 0-.066-.066h-1.542A.067.067 0 0 0-1.674 0c0 .036.03.066.066.066h1.542C-.029.066 0 .036 0 0" style="fill:#fff;fill-opacity:1;fill-rule:nonzero;stroke:none" transform="matrix(1.1167 0 0 -1.1167 36.536 26.69)"></path><path d="M0 0c.06.018.251.166.269.233 0 0 .091-.222.021-.269C.187-.103 0 0 0 0" style="fill:#fff;fill-opacity:1;fill-rule:nonzero;stroke:none" transform="matrix(1.1167 0 0 -1.1167 39.342 46.911)"></path><path d="M0 0s.532-.21.637-.374A.9.9 0 0 1 .42.152C.631.005.815-.038.888.035.725.292.374.549.374.63.607.531.748.59.748.678c-.12.119-.374.426-.491.49.24-.047.228-.029.339.082-.21.111-.281.333-.479.432.204.041.187.123.289.167-.114.044-.289.149-.289.248.169.058.239.093.239.198s-.146.258-.146.369.094.216.094.292-.053.373.228.467c.238.079.367.163.601.093s.514-.035.514.211c0 .245-.082.204-.082.35 0 .147.1.293-.082.362-.365.141-.771-.344-1.109-.245-.112.033.023.619.315.713s.32.428.012.689c-.686.581-.452-.353-.639-.54s-.416-.643-.62-.532-.499.517-.575.593c-.167.166.654.993-.514.561s-.214-.545.245-.853c.958-.642-.229.071.111-.38.075-.099.285-.284.239-.539s-.3-.235-.339-.354c-.059-.186.008-.406-.146-.591-.315-.379-1.396-.853-.461-1.01.184.184.532.117.456-.21.362-.181.514.391.327.677-.091.139.029.713.479.713s.391-.269.462-.444c.07-.175.011-1.011.134-1.133C-.018 1.431 0 0 0 0" style="fill:#fff;fill-opacity:1;fill-rule:nonzero;stroke:none" transform="matrix(1.1167 0 0 -1.1167 27.971 34.31)"></path><path d="M0 0c.083.084.221.183.564.034.256-.112.085-.327-.096-.22C.286-.078.187-.028 0 0" style="fill:#fff;fill-opacity:1;fill-rule:nonzero;stroke:none" transform="matrix(1.1167 0 0 -1.1167 21.535 33.647)"></path><path d="M0 0c.425.296.746-.276.774-.356C.764-.398.553-.489.521-.433.49-.324.173 0 0 0" style="fill:#fff;fill-opacity:1;fill-rule:nonzero;stroke:none" transform="matrix(1.1167 0 0 -1.1167 22.763 32.64)"></path><path d="M0 0c.153.153.35.485.221.669C.039.929-.286.615-.144.473-.004.333.085.271 0 0" style="fill:#fff;fill-opacity:1;fill-rule:nonzero;stroke:none" transform="matrix(1.1167 0 0 -1.1167 24.242 39.285)"></path><path d="m0 0-1.122-.368-1.621-1.743c-.166-.377-.666-.377-1.016-.377s-.215-.031-.088.096-.166.14-.385.14c-.435 0 .307.224-.443.224-.664 0 .13.171-.494.25-.625.078.011.131-.482.218-.495.088.166.094-.43.211s-.211.201-.342.245-1.165.351-1.165 1.735c0 .271.385.369.35.666s-.315.307-.525.228-.342-.29-.342-.29-.237.036-.526-.14c.094-.093-.161-.388-.383-.245-.478-.408.807-1.013 1.096-1.158.112-.086-1.475.623-1.598.246.185-.185.181-.358-.061-.402-.11-.276.464-.447 1.104-.447s.528-.146.598-.215c.07-.07.46-.036.479-.609.033-.929-.548-1.898.009-1.551.033.371.328.432.462.297.669.161-.551.797-.221 1.197s1.039-.092 1.459-.363c.421-.272 2.603-1.131 3.006-1.236q.058-.014.094.01v-.001l1.965-2.006.747.286.769 2.351z" style="fill:#fff;fill-opacity:1;fill-rule:nonzero;stroke:none" transform="matrix(1.1167 0 0 -1.1167 32.23 34.963)"></path><path d="M0 0c0 .467.374.678.549.678S.455.947.725.947s.332.063.411.142.313.348.453.348.281.146.281.254.256.108.256.108.305.234.305.351.292.035.373.117c.082.081.409.245.328.327-.082.082.31.479.45.435.139-.043.18.429.344.429s.158.409.366.409c.207 0 .265.292.148.292s.095.383.211.385c.117.002.346.128.231.243s-.138.704-.022.704.398.576.259.715c-.139.138.068.267.139.336.245.246.583.912.257.912-.327 0-.158.207-.03.335s.754 1.371.754 1.371 1.01.94 1.192 1.121c.257.257.32 1.186.21 1.297s-1.145-.9-1.145-.9c-.141 0-1.612-.514-1.892-.794-.281-.28-.468-.28-.468-.28s.228 1.539.01 1.288c-.093-.107-.952-1.119-.952-1.119-.117-.145-.624-.894-.624-.894s-.373-.023-.724-.724C1.496 7.454.374 6.239.234 6.099S-.794 4.112-.794 3.973c0-.141.07-2.688.07-2.688z" style="fill:#1d1d1b;fill-opacity:1;fill-rule:nonzero;stroke:none" transform="matrix(1.1167 0 0 -1.1167 35.395 39.934)"></path><path d="M0 0c.362.164 1.017.712 1.017.712S1.051.164.865-.07C.678-.304-.21-.946-.28-1.04s-.187-.397-.328-.456c-.14-.058-.104 1.145-.104 1.145z" style="fill:#fff;fill-opacity:1;fill-rule:nonzero;stroke:none" transform="matrix(1.1167 0 0 -1.1167 42.61 28.087)"></path><path d="M0 0c.572.28.923.409 1.063.514s.175-.642-.046-.923C.794-.689.549-.993.245-1.133a7 7 0 0 0-.899-.339c-.176-.047-.421-.035-.421-.035l.35.958z" style="fill:#fff;fill-opacity:1;fill-rule:nonzero;stroke:none" transform="matrix(1.1167 0 0 -1.1167 41.383 28.675)"></path><path d="M0 0c.572.28.923.409 1.063.514s.175-.642-.046-.923C.794-.689.549-.993.245-1.133a7 7 0 0 0-.899-.339c-.176-.047-.421-.035-.421-.035l.35.958z" style="fill:none;stroke:#1d1d1b;stroke-width:.14;stroke-linecap:butt;stroke-linejoin:miter;stroke-miterlimit:2.61299992;stroke-dasharray:none;stroke-opacity:1" transform="matrix(1.1167 0 0 -1.1167 41.383 28.675)"></path><path d="M0 0c.198.14.385-.023.385-.327S-.304-1.262-.619-1.46c-.316-.199-1.051.081-1.051.081l.805 1.215z" style="fill:#1d1d1b;fill-opacity:1;fill-rule:nonzero;stroke:none" transform="matrix(1.1167 0 0 -1.1167 41.37 28.622)"></path><path d="M0 0c.42.115 1.091.29 1.32.412s.023-.48-.29-.717S.816-.748.61-.954c-.206-.205-.938-.373-.984-.388C-.419-1.357-.396-.29-.396-.29Z" style="fill:#fff;fill-opacity:1;fill-rule:nonzero;stroke:none" transform="matrix(1.1167 0 0 -1.1167 40.223 30.52)"></path><path d="M0 0c.42.115 1.091.29 1.32.412s.023-.48-.29-.717S.816-.748.61-.954c-.206-.205-.938-.373-.984-.388C-.419-1.357-.396-.29-.396-.29Z" style="fill:none;stroke:#1d1d1b;stroke-width:.14;stroke-linecap:butt;stroke-linejoin:miter;stroke-miterlimit:2.61299992;stroke-dasharray:none;stroke-opacity:1" transform="matrix(1.1167 0 0 -1.1167 40.223 30.52)"></path><path d="M0 0c-.14-.14-.385-.018-.324.044.061.061.061.307.061.429 0 .123-.079.272.053.403.131.132.228.491.228.702s.501.41.665.56c.403.368.265.506.193.684-.353-.115-1.227-.632-1.367-.929S-1.271.78-1.332.42c-.061-.358-.438-1.384-.596-1.857s-.753-1.7-1.226-2.173-1.297-.964-1.297-.964l-.114.114.061.219-.245.298v.316s.035.157.035.28c0 .122-.114.158-.114.236 0 .079.061.202-.026.202-.088 0-.193-.158-.193-.28s-.059-.445-.059-.529-.114-.19-.22-.084c-.106.105-.341.782-.176.946.163.163.21.584.467.841s1.107.882 1.121 1.495c.006.257-.046.666.175.561.222-.105.048-.315.048-.455 0-.138.534.289.366.52.293-.163.118-.264-.133-.661-.075-.118-.029-.31-.164-.444-.134-.134-.806-1.051-.982-1.402-.174-.35.094-.514.165-.806.069-.292.294-.552.461-.386.166.167-.237.412-.237.535 0 .122.246.14.246.28s.009 1.07.236 1.07c.132-.237-.043-.754-.043-1.043 0-.351.376-.333.455.42.114-.561.596-.289.285.452-.151.358-.162 1.003.258 1.423-.709-1.621.236-.683.37-.55.133.133.112.717.069.848-.044.132.166.395.293.031s.035.201.035.412-.206.688-.385.727-.609.39-.443.556c.167.167-.083.416-.017.482.065.066.35 0 .35 0s-.352.489-.394.649c.272 0 .815-1.022.869-1.022s.088.087.088.087-.511.589-.511.9c0 .134.395 1.358.395 1.358s-.395-1.358-.684-1.061c-.37.382.439.924.307 1.332 0 0-.697-.236-.697-1.151-.058.141-.242.71-.479.994-.159.191-.445.131-1.093.131-1.012 0-.982-.368-.982-.543 0-.421.868-1.051.868-1.419-.097 0-.931 1.103-1.008 1.253s-.088.455-.088.455-.137.219-.508.14c-1.382-.294-.841-1.279-.578-1.419 0 0 .167.276.495.276.758 0 .793-1.602 2.119-1.795-.193-.193-1.349-.024-1.414-.225S-6.187.888-6.32.637c.023-.094.292-.176.467-.286.175 0 .59.799.987.303.24-.3.025-.925.025-.925s.219.01.363.154c-.148-.233-.284-.707-.284-.707s.541.322.541.769c.068 0 .038-.266-.092-.591-.131-.325-.478-.752-1.12-1.486-.087.055-.234.257-.234.257s-.35-.28-.583-.28c-.234 0-.9-.035-1.005-.14s-.468-.211-.468-.305c0-.093-.256-.467-.256-.467s-.538-.07-.281-.701c.257-.63.304-1.051.468-1.542.163-.491.601-1.292.601-1.292.044-.208.068-.446.082-.647.017-.251.017-.444.017-.444s.411.612.411.906.286.328.407.328c.237 0 .199-.405.07-.534-.129-.128.117-.373.117-.373s.164.21.164.397.14.561.14.561.366.16.396.287.012-.418-.018-.575c-.031-.158.293-.463.387-.556.21-.211.361-.377.418-.319s-.193.351-.193.5-.21.07-.21.245c0 .176-.053.719-.053.771s.105 0 .184 0 .289-.123.351-.184c.061-.061.095-.111.127.005.032.115-.01.365.128.365.139 0 .24-.12.306-.186.065-.066.175-.044.175.044s.178.195.299.316c.121.12.192.315.279.315s.271.079.271.167c0 .087.102.118.141.157s.241.005.272.035c.03.031.052.193.052.193s.245-.088.307-.026c.061.061 0 .341.122.464.123.123.351.079.438.166s.21.18.255.225-.009.257.052.319c.062.061.276.004.342.07s.066.346.066.346.192.044.241.092-.202.14-.202.21-.018.157.037.193.482.16.568.315c.126.233-.19.141-.158.465.031.325.091.197.184.289.092.093.465.22.465.368 0 .149-.193.184-.193.324s.425.384.57.529.427.419.252.595C.699.291.14.14 0 0" style="fill:#fff;fill-opacity:1;fill-rule:nonzero;stroke:none" transform="matrix(1.1167 0 0 -1.1167 40.47 31.89)"></path><path d="M0 0c.401-.14.44-.366.44-.509.238.058.224.272.203.293.059 0 .194.022.284.069C.837.045.638.106.483.106.197.106 0 0 0 0" style="fill:#1d1d1b;fill-opacity:1;fill-rule:nonzero;stroke:none" transform="matrix(1.1167 0 0 -1.1167 34.633 27.985)" data-source="https://football-logos.cc"></path><path d="M0 0s-.375.064-.527.064-.105-.046-.076-.076-.117-.093.041-.093S-.302.023 0 0" style="fill:#fff;fill-opacity:1;fill-rule:nonzero;stroke:none" transform="matrix(1.1167 0 0 -1.1167 32.97 30.88)"></path><path d="M0 0s-.613.131-.861.131-.155-.085-.124-.155C-.937-.134-.494.047 0 0" style="fill:#fff;fill-opacity:1;fill-rule:nonzero;stroke:none" transform="matrix(1.1167 0 0 -1.1167 34.458 30.383)"></path><path d="M0 0s-.332-.214-.476-.236c-.145-.022-.106.089-.101.177C-.57.08-.278-.102 0 0" style="fill:#fff;fill-opacity:1;fill-rule:nonzero;stroke:none" transform="matrix(1.1167 0 0 -1.1167 33.612 30.726)"></path><path d="M0 0c.112.241-.028.918.311.58S.217.241.217.241.058.019.058-.058 0 0 0 0" style="fill:#fff;fill-opacity:1;fill-rule:nonzero;stroke:none" transform="matrix(1.1167 0 0 -1.1167 37.435 30.536)"></path><path d="m0 0-.25.25c.18.381.082.717.232.933.384.383.381.39.982 1.183 0 0 .03-.705-.255-.991C.424 1.091.14.902.14.648S.123.123 0 0" style="fill:#fff;fill-opacity:1;fill-rule:nonzero;stroke:none" transform="matrix(1.1167 0 0 -1.1167 38.807 30.96)"></path><path d="m0 0 .067.806s.946 1.223 1.411 2.103c.585 1.11.714 2.011.714 2.274s.364.179.311-.372c-.053-.553-.175-1.297-.841-2.646A7.1 7.1 0 0 0 0 0" style="fill:#fff;fill-opacity:1;fill-rule:nonzero;stroke:none" transform="matrix(1.1167 0 0 -1.1167 40.013 29.21)"></path><path d="m0 0-.134.134s.216.357.216.217C.082.21 0 0 0 0" style="fill:#fff;fill-opacity:1;fill-rule:nonzero;stroke:none" transform="matrix(1.1167 0 0 -1.1167 38.317 30.475)"></path><path d="M0 0c.285.4 1.067 1.499 1.359 2.305.162.448.433.303.234-.222C1.394 1.557.61.337.491.217.32.15 0 0 0 0" style="fill:#fff;fill-opacity:1;fill-rule:nonzero;stroke:none" transform="matrix(1.1167 0 0 -1.1167 40.948 28.64)"></path><path d="M0 0c.327-.155.906-1.053.745-.491-.098.34-.491.474-.605.543S-.128.061 0 0" style="fill:#fff;fill-opacity:1;fill-rule:nonzero;stroke:none" transform="matrix(1.1167 0 0 -1.1167 37.867 30.599)"></path><path d="M0 0c.286.164.531.075.674-.251.071-.156-.28-.257-.32-.136C.27-.115 0 0 0 0" style="fill:#fff;fill-opacity:1;fill-rule:nonzero;stroke:none" transform="matrix(1.1167 0 0 -1.1167 25.543 27.219)"></path><path d="M0 0c.099-.161.095-.538-.403-.71-.245-.084-.372.308-.099.362.302.06.499.36.499.36z" style="fill:#fff;fill-opacity:1;fill-rule:nonzero;stroke:none" transform="matrix(1.1167 0 0 -1.1167 30.652 29.193)"></path><path d="M0 0c.296.026.608-.205.454-.771-.042-.158-.406-.07-.371.029C.186-.517.264-.318 0 0" style="fill:#fff;fill-opacity:1;fill-rule:nonzero;stroke:none" transform="matrix(1.1167 0 0 -1.1167 28.2 26.778)"></path><path d="M0 0c.152.091.292.321.356.462.15.331.451.136.333-.106C.593.16.397 0 0 0" style="fill:#fff;fill-opacity:1;fill-rule:nonzero;stroke:none" transform="matrix(1.1167 0 0 -1.1167 25.356 32.889)"></path><path d="M0 0c0 .408.363.508.542.508.191 0 .281-.3.041-.3C.35.208.125.167 0 0" style="fill:#fff;fill-opacity:1;fill-rule:nonzero;stroke:none" transform="matrix(1.1167 0 0 -1.1167 20.765 35.623)"></path><path d="M0 0c-.006-.019-.041-.044-.022-.044.151 0 .448-.752.474-.898.026-.145.109-.164.109-.145C.561-.909.307-.029.066.045.047.051.006.019 0 0" style="fill:#1d1d1b;fill-opacity:1;fill-rule:nonzero;stroke:none" transform="matrix(1.1167 0 0 -1.1167 23.048 33.491)"></path><path d="M0 0c.248-.704.919-.996 1.188-.727s.42.701.42.888-.14.07-.14.07-.241-.577-.502-.633C.706-.458.586-.586 0 0" style="fill:#fff;fill-opacity:1;fill-rule:nonzero;stroke:none" transform="matrix(1.1167 0 0 -1.1167 33.103 32.73)"></path><path d="M0 0c.022-.048-.474-.195-.73-.195-.257 0-.465.049-.465.184 0 .136.208.245.465.245C-.474.234-.063.135 0 0" style="fill:#fff;fill-opacity:1;fill-rule:nonzero;stroke:none" transform="matrix(1.1167 0 0 -1.1167 32.245 33.61)"></path><path d="M0 0c-.407-.268-.404-1.027.256-1.412.685-.4 1.712.049 1.712.049s-.128.145-.164.274C.823-1.591 0-1.407 0 0" style="fill:#fff;fill-opacity:1;fill-rule:nonzero;stroke:none" transform="matrix(1.1167 0 0 -1.1167 30.23 32.394)"></path><path d="M0 0a8 8 0 0 1-.607-.315C-.8-.427.231-.4.164-.38.047-.344 0 0 0 0" style="fill:#fff;fill-opacity:1;fill-rule:nonzero;stroke:none" transform="matrix(1.1167 0 0 -1.1167 31.71 32.771)"></path><path d="M0 0c.239-.24.602-.339 1.209-.362.607-.024.548.29.181.227C.368-.309 0 0 0 0" style="fill:#fff;fill-opacity:1;fill-rule:nonzero;stroke:none" transform="matrix(1.1167 0 0 -1.1167 30.392 33.984)"></path><path d="M0 0c.035-.307.03-.508 1.291-.841.175 0-.151.323-.237.343C.254-.313 0 0 0 0" style="fill:#fff;fill-opacity:1;fill-rule:nonzero;stroke:none" transform="matrix(1.1167 0 0 -1.1167 29.922 34.083)"></path><path d="M0 0c.281-.128.515-.736.515-.736l-.41.187z" style="fill:#fff;fill-opacity:1;fill-rule:nonzero;stroke:none" transform="matrix(1.1167 0 0 -1.1167 28.206 35.328)"></path><path d="M0 0c-.409.128-.689.192-.473.192S.561.339.152.339s-1.017.198-1.355.56c-.139.148.036-.375.257-.595-.064.067-.353.259-.445.35-.659.66-1.259.047-1.109.094.911.28 1.075-.597 1.203-.597s.444-.157.444-.157q.001 0 .005.002c.218-.172.496-.23.801-.23.398 0 .456.105.047.234" style="fill:#fff;fill-opacity:1;fill-rule:nonzero;stroke:none" transform="matrix(1.1167 0 0 -1.1167 30.163 35.55)"></path><path d="M0 0c-.334.167 1.099-.374 1.356-.432S.912-.467.584-.35C.257-.233.234-.117 0 0" style="fill:#fff;fill-opacity:1;fill-rule:nonzero;stroke:none" transform="matrix(1.1167 0 0 -1.1167 27.266 35.72)"></path><path d="M0 0c.06.305.064.613.374.759.309.146.432.164.268 0C.479.596.102.263 0 0" style="fill:#fff;fill-opacity:1;fill-rule:nonzero;stroke:none" transform="matrix(1.1167 0 0 -1.1167 28.963 37.337)"></path><path d="M0 0c.371.334.502.28.573.28s1.004-.561 1.284-.677c.281-.117.959-.094 1.309 0 .351.093-.415-.403-.526-.515-.11-.11-.49-.221-.981.176S.689.163.526.163 0 0 0 0" style="fill:#fff;fill-opacity:1;fill-rule:nonzero;stroke:none" transform="matrix(1.1167 0 0 -1.1167 25.792 35.759)"></path><path d="M0 0c-.187.187-.267.334-.245.572.021.239.339.304.339.304l.408-.21S.386.631.117.537C-.151.444-.099.099 0 0" style="fill:#fff;fill-opacity:1;fill-rule:nonzero;stroke:none" transform="matrix(1.1167 0 0 -1.1167 25.766 38.485)"></path><path d="M0 0c-.269-.128-.549-.082-.631-.304-.12-.328.094-.549.199-.654s.496-.228.747.023c.252.251.071.456-.303.386.292-.292-.345-.128-.251.017.093.147.578.333.578.333z" style="fill:#fff;fill-opacity:1;fill-rule:nonzero;stroke:none" transform="matrix(1.1167 0 0 -1.1167 26.51 37.794)"></path><path d="M0 0c.079-.202.087-.446.035-.736s.245-.447.342-.447c.096 0 .464.053.517.263C.67-.986.5-.973.429-.903c-.07.07-.056.522.119.697z" style="fill:#fff;fill-opacity:1;fill-rule:nonzero;stroke:none" transform="matrix(1.1167 0 0 -1.1167 27.045 38.074)"></path><path d="M0 0c-.158-.158-.403-.21-.517-.648s0-.929.342-1.096c.342-.166.403-.017.403-.017s-.438.254-.438.701.789.937.789.937z" style="fill:#fff;fill-opacity:1;fill-rule:nonzero;stroke:none" transform="matrix(1.1167 0 0 -1.1167 28.6 38.73)"></path><path d="M0 0c0-.088.14-.701.263-.824.052.284-.025.755.122.903C.193.017 0 0 0 0" style="fill:#fff;fill-opacity:1;fill-rule:nonzero;stroke:none" transform="matrix(1.1167 0 0 -1.1167 27.495 39.513)"></path><path d="M0 0c-.202-.202-1.027-.508-.889-1.15.139-.642.597-.127.436-1.272 1.136.52-.707 1.804.805 2.053C.692-.188.201.202 0 0" style="fill:#fff;fill-opacity:1;fill-rule:nonzero;stroke:none" transform="matrix(1.1167 0 0 -1.1167 29.538 38.801)"></path><path d="M0 0c.207.057.372.127.372.127S.114.872.07.96.254.158 0 0" style="fill:#fff;fill-opacity:1;fill-rule:nonzero;stroke:none" transform="matrix(1.1167 0 0 -1.1167 30.509 41.28)"></path><path d="M0 0a.8.8 0 0 1 .167.333c0 .035.116-.628-.022-.736C.145-.354.123-.044 0 0" style="fill:#fff;fill-opacity:1;fill-rule:nonzero;stroke:none" transform="matrix(1.1167 0 0 -1.1167 30.32 40.716)"></path><path d="M0 0c.169.156.06.564.06.564l-.488.488s.189-.693.277-.78C-.064.184 0 .062 0 0" style="fill:#fff;fill-opacity:1;fill-rule:nonzero;stroke:none" transform="matrix(1.1167 0 0 -1.1167 30.33 40.555)"></path><path d="M0 0c.005.033-.315-.152-.315-.333s.056-.552.074-.612.512.152.512.152S-.046-.282 0 0" style="fill:#fff;fill-opacity:1;fill-rule:nonzero;stroke:none" transform="matrix(1.1167 0 0 -1.1167 29.772 39.403)"></path><path d="M0 0c.006-1.232.83-1.466.882-2.185C.386-1.227-.21-1.215 0 0" style="fill:#1d1d1b;fill-opacity:1;fill-rule:nonzero;stroke:none" transform="matrix(1.1167 0 0 -1.1167 33.594 45.492)"></path><path d="M0 0c.128-.315.222-.491.432-.712.211-.223.503-.479.537-.666.036-.187.057.303-.315.642C0-.14 0 0 0 0" style="fill:#1d1d1b;fill-opacity:1;fill-rule:nonzero;stroke:none" transform="matrix(1.1167 0 0 -1.1167 35.2 48.74)"></path><path d="M0 0c.195-.102.11-.874-.086-.941C.101-.395-.228.118 0 0" style="fill:#1d1d1b;fill-opacity:1;fill-rule:nonzero;stroke:none" transform="matrix(1.1167 0 0 -1.1167 34.252 43.358)"></path><path d="M0 0c.082-.561.566-.619.853-1.191C.712-.525.158-.485 0 0" style="fill:#1d1d1b;fill-opacity:1;fill-rule:nonzero;stroke:none" transform="matrix(1.1167 0 0 -1.1167 34.977 45.322)"></path><path d="M0 0c.336-.677.394-1.092.359-1.893C.482-1.548.488-.403 0 0" style="fill:#1d1d1b;fill-opacity:1;fill-rule:nonzero;stroke:none" transform="matrix(1.1167 0 0 -1.1167 36.566 47.644)"></path><path d="M0 0c.155-.266.202-.522.359-.806C.175-.63-.043-.359 0 0" style="fill:#1d1d1b;fill-opacity:1;fill-rule:nonzero;stroke:none" transform="matrix(1.1167 0 0 -1.1167 36.527 49.944)"></path><path d="M0 0s.246-.385.377-.823c.131-.439.087-1.122.087-1.122s.167.71.036 1.131C.368-.394 0 0 0 0" style="fill:#1d1d1b;fill-opacity:1;fill-rule:nonzero;stroke:none" transform="matrix(1.1167 0 0 -1.1167 32.368 46.832)"></path><path d="M0 0s.287-.377.342-.596C.355-.649.254-.894.333-1.472s.745-1.227.833-1.306-.719 1-.719 1.543c0 .788.206.784.342.884C.556-.486.501-.503.438-.517.315-.445 0 0 0 0" style="fill:#1d1d1b;fill-opacity:1;fill-rule:nonzero;stroke:none" transform="matrix(1.1167 0 0 -1.1167 30.303 45.99)"></path><path d="M0 0s.395-.324.605-.324.456.157.456.455S.894.377.894.824s.158.438.21.472c.053.036-.315-.087-.315-.534S.938.456.938.158.736-.184.631-.184C.29-.184 0 0 0 0" style="fill:#1d1d1b;fill-opacity:1;fill-rule:nonzero;stroke:none" transform="matrix(1.1167 0 0 -1.1167 31.82 51.118)"></path><path d="M0 0s-.199.094-.362.094c-.164 0-.094-.187-.164-.141s-.327.351-.327.351.105-.409.164-.432c.058-.024.163.035.163.035s.047-.071.129-.059.117.129.187.129S0 0 0 0" style="fill:#1d1d1b;fill-opacity:1;fill-rule:nonzero;stroke:none" transform="matrix(1.1167 0 0 -1.1167 30.842 50.671)"></path><path d="M0 0c.152.129.385.187.385-.012C.385-.21.233-.012 0 0" style="fill:#1d1d1b;fill-opacity:1;fill-rule:nonzero;stroke:none" transform="matrix(1.1167 0 0 -1.1167 29.08 50.45)"></path><path d="M0 0c-.012.105-.234.377-.315.222C-.432 0-.222.14 0 0" style="fill:#1d1d1b;fill-opacity:1;fill-rule:nonzero;stroke:none" transform="matrix(1.1167 0 0 -1.1167 29.341 51.363)"></path><path d="M0 0a.55.55 0 0 0 .443-.088C.415.117.128.228 0 0" style="fill:#1d1d1b;fill-opacity:1;fill-rule:nonzero;stroke:none" transform="matrix(1.1167 0 0 -1.1167 27.848 49.803)"></path><path d="M0 0c-.092-.007-.146-.343.036-.319C.145-.305.008-.121 0 0" style="fill:#1d1d1b;fill-opacity:1;fill-rule:nonzero;stroke:none" transform="matrix(1.1167 0 0 -1.1167 36.904 54.747)"></path><path d="M0 0c.193-.017.351.018.456.175.105.158.402.071.473.246s.473.175.508.35c.035.176.438.176.456.316.017.14.438.175.455.368.018.192.421.228.403.385-.017.158.281.298.298.456s.351.228.333.438.298.228.245.456c-.052.227.176.315.105.49-.069.176.299.333.176.508-.123.176.088.229 0 .474s.246.59.298.723c.075.191.075.396.075.557 0 .16.205.63.232.718" style="fill:none;stroke:#1d1d1b;stroke-width:.20999999;stroke-linecap:round;stroke-linejoin:miter;stroke-miterlimit:2.61299992;stroke-dasharray:none;stroke-opacity:1" transform="matrix(1.1167 0 0 -1.1167 35.5 37.86)"></path><path d="M0 0c-.071-.109-.063-.01-.148.053-.083.064-.174.054-.104.124.051.051.095.106.179.042C.011.156.04.061 0 0" style="fill:#1d1d1b;fill-opacity:1;fill-rule:nonzero;stroke:none" transform="matrix(1.1167 0 0 -1.1167 33.475 27.645)"></path><path d="M0 0c.206.059.425-.208.362-.456C.3-.19.156-.086 0 0" style="fill:#1d1d1b;fill-opacity:1;fill-rule:nonzero;stroke:none" transform="matrix(1.1167 0 0 -1.1167 35.46 30.11)"></path><path d="M0 0c-.14.053-.219-.131-.052-.297.166-.167.21-.535.21-.597s0-.227-.114-.227-.28.386-.368.474c-.087.086-.271.367-.429.525s-.091-.204.044-.447c.15-.272.49-.683.561-.754.069-.07.227-.254.069-.411-.157-.158 0-.088.15.061.149.149.065.241.21.385.144.145.21.441.079.702s-.185.411-.317.542z" style="fill:#1d1d1b;fill-opacity:1;fill-rule:nonzero;stroke:none" transform="matrix(1.1167 0 0 -1.1167 37.084 30.482)"></path><path d="M0 0c-.475-.767-1.943-2.189-3.054-2.804a.035.035 0 0 1-.014-.048c.009-.017-.114-.168-.097-.158C-2.045-2.39-.419-.811.06-.037a.04.04 0 0 1-.012.048A.035.035 0 0 1 0 0" style="fill:#1d1d1b;fill-opacity:1;fill-rule:nonzero;stroke:none" transform="matrix(1.1167 0 0 -1.1167 46.601 25.588)"></path><path d="M0 0c-.987-1.101-2.415-2.065-4.549-3.358a.04.04 0 0 1-.012-.049c.011-.016.032-.074.048-.065C-2.373-2.175-.94-1.154.052-.047a.04.04 0 0 1-.003.05A.035.035 0 0 1 0 0" style="fill:#1d1d1b;fill-opacity:1;fill-rule:nonzero;stroke:none" transform="matrix(1.1167 0 0 -1.1167 46.586 27.207)"></path><path d="M0 0c-.781-.781-2.412-1.687-3.596-2.198a.036.036 0 0 1-.019-.046c.008-.017.029-.039.047-.031C-2.378-1.762-.738-.837.05-.049A.036.036 0 0 1 .05 0 .035.035 0 0 1 0 0" style="fill:#1d1d1b;fill-opacity:1;fill-rule:nonzero;stroke:none" transform="matrix(1.1167 0 0 -1.1167 45.628 29.26)"></path><path d="M0 0c-.465-.347-2.453-1.466-3.677-1.693a.036.036 0 0 1-.028-.041.035.035 0 0 1 .041-.028C-2.43-1.533-.427-.405.042-.057a.034.034 0 0 1 .007.049A.035.035 0 0 1 0 0" style="fill:#1d1d1b;fill-opacity:1;fill-rule:nonzero;stroke:none" transform="matrix(1.1167 0 0 -1.1167 45.326 30.56)"></path><path d="M0 0c-.952-.464-2.542-.904-3.321-1.072a.035.035 0 0 1-.027-.042.034.034 0 0 1 .041-.027c.783.169 2.381.63 3.338 1.096.017.008.025.011.016.029C.039.001.018.008 0 0" style="fill:#1d1d1b;fill-opacity:1;fill-rule:nonzero;stroke:none" transform="matrix(1.1167 0 0 -1.1167 44.745 32.044)"></path><path d="M0 0c-.796-.506-1.702-.646-3.199-.739a.035.035 0 0 1-.033-.037c.002-.02.047-.064.067-.063 1.509.094 2.394.266 3.203.78.016.01.021.032.01.048A.035.035 0 0 1 0 0" style="fill:#1d1d1b;fill-opacity:1;fill-rule:nonzero;stroke:none" transform="matrix(1.1167 0 0 -1.1167 44.118 33.208)"></path><path d="M0 0c-1.071-.221-2.265-.245-2.729-.245a.026.026 0 0 1-.026-.026c0-.015.012-.026.026-.026.465 0 1.664.024 2.739.246.014.003.024.016.021.03A.026.026 0 0 1 0 0" style="fill:#1d1d1b;fill-opacity:1;fill-rule:nonzero;stroke:none" transform="matrix(1.1167 0 0 -1.1167 43.263 34.924)"></path><path d="M0 0c-.002-.014-.033-.028-.019-.031.823-.153 2.134-.252 2.54-.148.014.003.022.018.019.032-.004.014-.018.022-.033.019C2.109-.23.848-.132.031.021.017.023.002.014 0 0" style="fill:#1d1d1b;fill-opacity:1;fill-rule:nonzero;stroke:none" transform="matrix(1.1167 0 0 -1.1167 39.58 36.034)"></path><path d="M0 0c-.004-.014-.05-.029-.036-.033.64-.211 1.436-.43 2.148-.369.015.001.026.013.025.027-.002.015-.014.026-.029.025C1.406-.41.669-.192.033.017.02.021.004.014 0 0" style="fill:#1d1d1b;fill-opacity:1;fill-rule:nonzero;stroke:none" transform="matrix(1.1167 0 0 -1.1167 38.994 36.676)"></path><path d="M0 0c-.004-.009-.037-.02-.029-.024C.333-.207 1.358-.5 1.61-.5q.016.002.017.018a.02.02 0 0 1-.017.017c-.249 0-1.228.292-1.587.473C.015.012.004.008 0 0" style="fill:#1d1d1b;fill-opacity:1;fill-rule:nonzero;stroke:none" transform="matrix(1.1167 0 0 -1.1167 38.105 37.487)"></path><path d="M0 0a.02.02 0 0 1 .008-.023c.48-.236 1.414-.476 1.664-.476q.016.002.017.018-.001.017-.017.018c-.241 0-1.163.261-1.63.49C.034.031.004.009 0 0" style="fill:#1d1d1b;fill-opacity:1;fill-rule:nonzero;stroke:none" transform="matrix(1.1167 0 0 -1.1167 37.174 38.164)"></path><path d="M0 0c-.005-.008-.026-.042-.018-.047l.262-.155C.605-.45.946-.667 1.556-.71a.016.016 0 0 1 .018.016.017.017 0 0 1-.016.019c-.6.043-.937.274-1.294.52l-.24.16C.016.011.005.008 0 0" style="fill:#1d1d1b;fill-opacity:1;fill-rule:nonzero;stroke:none" transform="matrix(1.1167 0 0 -1.1167 36.647 38.465)"></path><path d="M0 0c-.006-.007-.046-.012-.039-.019C0-.051.976-.827 1.423-.871a.017.017 0 0 1 .019.016.017.017 0 0 1-.016.019C.989-.793.035-.005.025.002Q.011.012 0 0" style="fill:#1d1d1b;fill-opacity:1;fill-rule:nonzero;stroke:none" transform="matrix(1.1167 0 0 -1.1167 35.993 38.863)"></path><path d="M0 0c-.007-.006-.021-.018-.016-.024C.006-.05.528-.651.68-.713c.008-.004.019.001.023.009.003.009-.001.02-.01.023-.144.059-.663.673-.668.679A.02.02 0 0 1 0 0" style="fill:#1d1d1b;fill-opacity:1;fill-rule:nonzero;stroke:none" transform="matrix(1.1167 0 0 -1.1167 35.535 39.302)"></path><path d="M0 0s-.28.082-.28.28c0 .199.204.117.204-.006C-.076.152 0 0 0 0" style="fill:#1d1d1b;fill-opacity:1;fill-rule:nonzero;stroke:none" transform="matrix(1.1167 0 0 -1.1167 28.154 30.749)"></path><path d="M0 0q.348-.351.347-.564c0-.14.076.333-.046.456a1 1 0 0 0-.176.222L.056.044Z" style="fill:#1d1d1b;fill-opacity:1;fill-rule:nonzero;stroke:none" transform="matrix(1.1167 0 0 -1.1167 27.31 29.22)"></path><path d="M0 0c-.082-.313-.204-.553-.082-.675.123.268.176.467.176.607S0 0 0 0" style="fill:#1d1d1b;fill-opacity:1;fill-rule:nonzero;stroke:none" transform="matrix(1.1167 0 0 -1.1167 28.388 29.277)"></path><path d="M0 0c0 .222.199-.713.199-.83s-.018-.671-.351-1.004-1.11-.795-1.203-.888c-.094-.094.046-.316.046-.386s-.058-.379-.309-.379-.14.233-.333.426-.234.432-.339.678c-.105.245.094.444.094.444s.07-.269.193-.497c.122-.228.284-.477.373-.477.088 0 .193.191.193.319 0 .129.753.801.899.947s.503.443.503.782-.17.357-.292.479c-.123.123.245.071.268-.034C-.035-.526 0-.117 0 0" style="fill:#1d1d1b;fill-opacity:1;fill-rule:nonzero;stroke:none" transform="matrix(1.1167 0 0 -1.1167 33.868 35.237)"></path><path d="M0 0c.064-.324.239-.164.239-.427 0-.262-.204-.438-.262-.624-.059-.187-.024-.363.151-.187.175.175.363.385.363.116 0-.268.248-.334.21.047S.397-.538.397-.28c0 .257-.041.473-.175.607-.135.134-.234.14-.31-.04C-.164.105-.023.117 0 0" style="fill:#1d1d1b;fill-opacity:1;fill-rule:nonzero;stroke:none" transform="matrix(1.1167 0 0 -1.1167 31.964 35.641)"></path><path d="M0 0c.126-.183.111-.31.035-.385s-.28-.211-.385-.596c-.105-.386.117-.503.175-.328.058.176.315.561.315.561s.199-.023.071-.315c-.129-.292-.024-.386.099-.064.123.321.087.8.087.975s-.501.417-.562.356C-.225.144-.643.035-.397.035S0 0 0 0" style="fill:#1d1d1b;fill-opacity:1;fill-rule:nonzero;stroke:none" transform="matrix(1.1167 0 0 -1.1167 30.58 35.446)"></path><path d="M0 0c-.01-.21-.059-.456-.059-.549s-.28-.292-.093-.292h.374s.088-.181.134-.134-.204.356-.262.356-.007.31.104.421C.31-.087.257 0 .128.129 0 .257.005.118 0 0" style="fill:#1d1d1b;fill-opacity:1;fill-rule:nonzero;stroke:none" transform="matrix(1.1167 0 0 -1.1167 31.246 36.098)"></path><path d="M0 0c0-.269-.041-.613-.163-.736-.123-.123-.433-.362-.433-.654s.124-.38-.152-.246c-.275.135-.21-.139.035-.28.246-.141.375.012.375.292s.417.488.49.561c.073.072-.071.408.064.408S.62-.678.515-.993c-.106-.316.291-.491.291-.012s-.192.538-.192.672.011.035-.149-.015C.304-.397.416-.221.304.012S.004.236 0 .047Z" style="fill:#1d1d1b;fill-opacity:1;fill-rule:nonzero;stroke:none" transform="matrix(1.1167 0 0 -1.1167 34.312 36.542)"></path><path d="M0 0c0-.233.123-.485.199-.561.075-.076-.304.164-.304.234s-.152-.117-.152-.211-.152.48 0 .924.374.853.689.853c.316 0 .701-.082.362-.234S.356.753.169.567C-.018.38 0 0 0 0" style="fill:#1d1d1b;fill-opacity:1;fill-rule:nonzero;stroke:none" transform="matrix(1.1167 0 0 -1.1167 33.138 36.033)"></path><path d="M0 0c.083-.083.105-.307.254-.254S0 0 0 0" style="fill:#1d1d1b;fill-opacity:1;fill-rule:nonzero;stroke:none" transform="matrix(1.1167 0 0 -1.1167 32.133 34.503)"></path><path d="M0 0c.123.123.327.339.549.433s.409.116.222.011S.164.023.035-.035C-.093-.093 0 0 0 0" style="fill:#1d1d1b;fill-opacity:1;fill-rule:nonzero;stroke:none" transform="matrix(1.1167 0 0 -1.1167 32.603 34.976)"></path><path d="M0 0c-.177-.326-.479-.853-.479-.981 0-.129.415-.345.666-.596.251-.252.596-.549.596-.362s-.421.525-.572.584c-.152.058-.526.269-.526.432 0 .164.397.666.397.783S.126.231 0 0" style="fill:#1d1d1b;fill-opacity:1;fill-rule:nonzero;stroke:none" transform="matrix(1.1167 0 0 -1.1167 30.893 37.611)"></path><path d="M0 0c.129.11.44.616.44.72s-.621.804-.621.804-.285.266-.178.011C-.251 1.279.146.497 0 0" style="fill:#fff;fill-opacity:1;fill-rule:nonzero;stroke:none" transform="matrix(1.1167 0 0 -1.1167 30.978 41.715)"></path><path d="M0 0c-.167.382.035.654.175.911s.432.572.567.707c.134.134.239-.017.006-.251C.514 1.133.152.748.152.444s.047-.655.047-.871S.082-.187 0 0" style="fill:#1d1d1b;fill-opacity:1;fill-rule:nonzero;stroke:none" transform="matrix(1.1167 0 0 -1.1167 29.446 38.264)"></path><path d="M0 0c-.196.196.058-.351-.082-.736s.047-.572.152-.678c.105-.105 0 .456 0 .666S.105-.105 0 0" style="fill:#1d1d1b;fill-opacity:1;fill-rule:nonzero;stroke:none" transform="matrix(1.1167 0 0 -1.1167 30.163 37.56)"></path><path d="M0 0c.214-.214-.187.526-.081.73.107.205.144.4-.041.216-.183-.184.05-.33-.239-.619S-.775.117-.55.038s.327-.034.327-.284v.491S-.1.101 0 0" style="fill:#1d1d1b;fill-opacity:1;fill-rule:nonzero;stroke:none" transform="matrix(1.1167 0 0 -1.1167 32.438 40.456)"></path><path d="M0 0c-.329-.329-.04-.554-.04-.794s.268-.223.364-.319.28-.123.096.289c-.183.412-.429.377-.429.377s.193.219.193.35C.184.035.229.229 0 0" style="fill:#1d1d1b;fill-opacity:1;fill-rule:nonzero;stroke:none" transform="matrix(1.1167 0 0 -1.1167 30.636 39.542)"></path><path d="m0 0 .821.09q.03-.25.156-.37a.47.47 0 0 1 .334-.119q.261 0 .445.242.184.244.235 1.01a1.01 1.01 0 0 0-.803-.374q-.523 0-.903.408t-.38 1.062q0 .682.401 1.099t1.021.417q.675 0 1.107-.526t.433-1.73q0-1.226-.45-1.769a1.45 1.45 0 0 0-1.169-.542q-.519 0-.838.276T0 0m1.915 1.882q0 .418-.19.649-.189.231-.438.231a.49.49 0 0 1-.393-.189q-.156-.19-.156-.62 0-.438.169-.642a.53.53 0 0 1 .426-.205q.245 0 .414.197t.168.579" style="fill:#1d1d1b;fill-opacity:1;fill-rule:nonzero;stroke:none" transform="matrix(1.1167 0 0 -1.1167 31.647 64.195)"></path><path d="m0 0 .821.09q.03-.25.156-.37a.47.47 0 0 1 .334-.119q.261 0 .445.242.184.244.235 1.01a1.01 1.01 0 0 0-.803-.374q-.523 0-.903.408t-.38 1.062q0 .682.401 1.099t1.021.417q.675 0 1.107-.526t.433-1.73q0-1.226-.45-1.769a1.45 1.45 0 0 0-1.169-.542q-.519 0-.838.276T0 0Zm1.915 1.882q0 .418-.19.649-.189.231-.438.231a.49.49 0 0 1-.393-.189q-.156-.19-.156-.62 0-.438.169-.642a.53.53 0 0 1 .426-.205q.245 0 .414.197t.168.579z" style="fill:none;stroke:#1d1d1b;stroke-width:.273;stroke-linecap:butt;stroke-linejoin:miter;stroke-miterlimit:2.61299992;stroke-dasharray:none;stroke-opacity:1" transform="matrix(1.1167 0 0 -1.1167 31.647 64.195)"></path><path d="m0 0 .821.09q.03-.25.156-.37a.47.47 0 0 1 .334-.119q.261 0 .445.242.184.244.235 1.01a1.01 1.01 0 0 0-.803-.374q-.523 0-.903.408t-.38 1.062q0 .682.401 1.099t1.021.417q.675 0 1.107-.526t.433-1.73q0-1.226-.45-1.769a1.45 1.45 0 0 0-1.169-.542q-.519 0-.838.276T0 0m1.915 1.882q0 .418-.19.649-.189.231-.438.231a.49.49 0 0 1-.393-.189q-.156-.19-.156-.62 0-.438.169-.642a.53.53 0 0 1 .426-.205q.245 0 .414.197t.168.579" style="fill:#fff;fill-opacity:1;fill-rule:nonzero;stroke:none" transform="matrix(1.1167 0 0 -1.1167 31.647 64.195)" data-source="https://football-logos.cc"></path><!-- source: https://football-logos.cc --></svg>