<svg xmlns="http://www.w3.org/2000/svg" viewBox="103.97 137.48 387.34 566.93"><!-- Source: https://football-logos.cc --><path d="M297.524 137.48c18.078 0 35.852 3.115 52.828 9.339 31.172 11.427 57.322 32.392 77.91 58.172 23.272 29.139 39.298 64.07 49.24 99.867 9.935 35.773 13.806 73.246 13.806 110.303 0 45.178-7.18 90.941-22.214 133.594-13.019 36.936-32.562 73.138-59.412 101.89-29.534 31.625-68.082 53.764-112.159 53.764-49.877 0-92.033-28.519-122.565-66.2-23.329-28.791-40.355-63.17-51.769-98.308-12.988-39.987-19.221-82.387-19.221-124.397 0-32.337 2.886-65.176 10.29-96.699 8.819-37.542 23.755-74.656 46.429-106.038 19.887-27.526 45.696-50.435 77.284-63.534 18.968-7.867 39.025-11.753 59.552-11.753" style="fill:#065091;fill-rule:evenodd" data-source="https://football-logos.cc"></path><path d="M297.524 140c83.523 0 150.21 67.093 177.55 165.533 9.299 33.48 13.714 70.262 13.714 109.628 0 94.884-31.872 181.212-80.948 233.764-31.147 33.352-69.36 52.965-110.316 52.965-45.733 0-87.717-24.675-120.608-65.267-42.976-53.04-70.428-133.257-70.428-221.119 0-33.928 3.247-66.422 10.223-96.123 24.918-106.078 92.046-179.38 180.813-179.38" style="fill:#dcbd2c;fill-rule:evenodd"></path><path d="M122.814 369.905c-1.664 17.115-1.894 30.229-1.894 45.6 0 73.166 19.87 154.96 66.625 212.664 27.296 33.688 65.235 60.433 109.979 60.433 39.413 0 74.33-20.43 100.675-48.642 53.94-57.76 77.187-147.46 77.187-224.8 0-14.933-.553-30.638-2.099-45.675-53.818-22.838-113.098-36.812-171.44-37.155-62.748-.37-122.015 13.08-179.033 37.575m174.71-215.129c-24.148 0-45.696 6.356-65.002 17.08-13.908 7.725-26.654 17.784-38.37 28.93 32.916 15.726 68.428 26.101 105.185 25.887 15.804-.093 32.127-3.104 47.347-7.224 11.793-3.193 23.432-7.205 34.72-11.877 6.249-2.586 12.479-5.401 18.552-8.482-11.032-10.422-22.991-19.74-36.16-27.03-19.53-10.813-41.608-17.284-66.272-17.284" style="fill:#065091;fill-rule:evenodd"></path><path d="M183.131 622.545a233 233 0 0 0 4.414 5.624c19.25 23.76 43.797 44.063 72.29 53.969V334.166c-26.119 2.446-51.655 7.29-76.704 14.32zm153.142 59.375c23.575-8.226 44.603-23.41 61.926-41.96a223 223 0 0 0 14.777-17.598V348.39c-25.138-6.972-50.89-11.88-76.703-14.314Zm-76.439-458.957v-62.705c-9.574 2.871-18.668 6.796-27.312 11.598-13.908 7.725-26.654 17.784-38.37 28.93 20.957 10.013 42.968 17.855 65.682 22.177m76.439-62.55v61.625a254 254 0 0 0 10.411-2.59c11.793-3.191 23.432-7.204 34.72-11.876 6.249-2.586 12.479-5.401 18.552-8.482-11.032-10.422-22.991-19.74-36.16-27.03-8.671-4.8-17.844-8.744-27.523-11.647" style="fill:#d72229;fill-rule:evenodd"></path><path d="M187.92 206.936c-22.525 23.42-36.032 54.384-45.77 83.786-8.484 25.613-14.626 52.253-17.633 69.507 56.542-23.61 115.307-36.512 177.378-36.146 58.05.341 116.972 13.891 170.764 36.196-4.697-34.748-17.644-74.504-34.365-107.26-9.682-18.967-21.033-36.48-32.426-47.695-6.949 3.618-14.114 6.89-21.31 9.869-11.613 4.806-23.586 8.932-35.72 12.216-15.92 4.31-32.924 7.414-49.453 7.51-39.03.228-76.658-10.989-111.464-27.983" style="fill:#fff;fill-rule:evenodd"></path><path d="M300.645 376.39c-2.266 1.874-3.883 3.88-5.31 5.577l-.011 1.614 2.298 3.51-4.62 3.313.75 1.104 2.287.962.379.884-4.463-.132-3.426 5.425c1.763 1.366 3.411 3.208 8.352 4.442l9.19.454 1.186-2.403 1.011.127-1.011 3.553c2.49 2.577 5.34 5.21 9.243 7.61l-.783.977.76 1.908 5.07-5.576c-1.499-2.878-5.408-6.596-10.967-10.887l-2.39.036-.807-1.794-4.655-2.837.428-.74 2.788-.584.982-1.006-3.123-4.779.335-.629 1.336.688.771-1.368c.204-4.303-1.919-7.264-5.6-9.448" style="fill:#dcbd2c;fill-rule:evenodd"></path><path d="m269.312 390.945-.729-7.812 2.781.463v1.06l-1.589.728.066 1.06 6.091 4.634c.953.724 8.687 1.17 12.748.86l3.142-4.532-9.371-8.03h-2.282l.265-1.226c1.766-.375 4.792-1.254 5.562-.645 2.228 1.766 3 3.465 6.686 5.297l6.886-7.746 5.495 1.125c2.165.444 3.31 6.533 4.966 9.799l3.906-2.582.066 3.111c3.04-.04 4.598-.399 7.155.69 2.721 1.158 5.625 3.254 8.963 6.43-.934 4.289-2.188 7.395-5.044 12.146 3.303-4.29 5.118-6.957 6.47-13.307-2.086-2.51-5.405-5.069-9.488-7.101-1.789-.89-3.725-1.404-5.77-2.234-.683-4.237-1.787-6.135-4.104-7.283l-.304 2.934-.791 1.767h-.897c-.694-2.119-.792-4.9-1.884-7.35-2.833.14-4.861.079-6.591-.554l-5.362-1.961.35 2.027-5.147 6.05c-.64-1.28-1.004-2.524-.5-3.725l2.023-4.815-1.126-1.39-5.429 5.296v1.258l-1.854-.464-.186-1.197c-1.38.128-3.469 1.392-5.588 2.268-2.725 1.127-5.504 1.99-6.905 2.94-2.564 1.737-4.698 3.676-6.454 5.788z" style="fill:#dcbd2c;fill-rule:evenodd"></path><path d="M306.868 393.112c3.423 3.948 8.436 7.26 13.868 10.81 4.127-1.612 6.135-4 6.025-8.083-2.054-2.142-4.056-4.029-5.994-5.175-5.15-3.046-9.853-2.25-13.899 2.448M270.305 392.203l-5.495 6.44c3.659 3.657 7.742 7.36 11.682 10.473l4.406-1.553.848.132.873 7.747 1.06.662 5.495-7.747-.892-.415-3.28 1.92-.132-2.167-1.788-.86-1.866-.133-4.82 1.59c-3.157-2.627-6.004-5.253-8.806-7.88 1.981-2.818 3.03-5.566 2.715-8.209M289.24 407.497l2.81 3.417c.25.45.198 1.322.492 1.775.176.272.731.097.84.42l.546 3.392.794.914 5.243-4.675-.723-.115-4.11 2.618-.066-4.767c3.591-.518 6.587-1.159 8.39-2.78-4.255-1.81-8.642-2.693-12.368-4.238l-.608 1.047 1.324.993-.313.807c-.883.168-1.501.45-2.251 1.192" style="fill:#dcbd2c;fill-rule:evenodd"></path><path d="M301.692 409.801c2.157 1.903 4.303 4.906 5.225 8.752l4.423-5.923a21 21 0 0 1 3.323 1.421c-.883-.927-1.854-1.765-3.31-2.516l-3.31 1.92c-1.965-1.368-4.387-2.815-6.351-3.654M274.674 395.513h11.785c.618 5.23-.041 7.648-2.516 8.656l-7.565 3.08-7.38-6.409zM300.874 458.404c-2.796 1.94-4.112 3.88-5.54 5.576l-.01 1.615 2.527 3.51c-3.078 1.517-4.795 2.945-4.695 4.284q2.535.282 3.48 1.094l-.218 1.348c-1.289-.839-3.505-1.015-4.463-.596l-3.426 5.426c1.763 1.366 3.411 3.208 8.352 4.442l9.19.454 1.186-2.403 1.011.126-1.011 3.553c2.49 2.578 5.225 4.981 9.128 7.382l-.403 1.669 1.024 1.18 4.54-5.311c-1.498-2.879-5.01-6.265-10.568-10.556l-2.193-.295-6.057-4.975.313-.282 4.282-1.374-3.176-4.651.335-.63 1.336.23.77-1.367c.205-4.304-2.033-7.265-5.714-9.449" style="fill:#dcbd2c;fill-rule:evenodd" data-source="https://football-logos.cc"></path><path d="M269.709 472.892c-.243-2.604-2.05-5.605-.438-7.746l2.093.464v1.059l-1.589.728.066 1.06 6.091 4.634c.953.725 8.687 1.17 12.748.86l3.142-4.532-9.371-8.029h-2.282l.265-1.227c1.766-.375 4.792-1.254 5.562-.644 2.228 1.765 3 3.465 6.686 5.296l6.886-7.746 5.495 1.125c1.32.27 2.49 2.638 3.397 5.184.582 1.632 1.037 3.34 1.683 4.615l3.906-2.582.066 3.112c3.04-.04 4.484-.4 7.04.689 2.722 1.158 5.626 3.254 8.964 6.43-.198 2.063-1.256 5.311-2.599 8.888 1.663-1.693 3.307-6.675 4.026-10.049-2.087-2.509-5.864-5.184-9.947-7.216-1.788-.89-3.038-1.288-5.082-2.119-.684-4.237-1.788-6.25-4.105-7.397l-.637 4.815-1.125.344c-.695-2.119-1.407-5.177-1.77-7.693-2.833.14-5.486.2-7.164-.554l-5.133-2.305.12 3.033-4.484 5.785c-1.236-1.28-1.728-2.95-1.161-4.123l1.89-3.906-.464-3.112-5.959 7.367-1.854-.463-.186-1.197c-1.176.556-2.726 1.146-4.354 1.748-1.214.45-2.473.564-3.653 1.02-1.84.711-3.49 1.764-4.486 2.439-2.564 1.738-4.698 4.02-6.454 6.132z" style="fill:#dcbd2c;fill-rule:evenodd"></path><path d="M307.212 475.24c2.96 3.882 8.436 7.26 13.868 10.81 4.126-1.612 6.134-4 6.024-8.083-2.053-2.142-4.055-4.03-5.993-5.175-5.15-3.046-9.853-2.251-13.899 2.448M270.648 474.217l-5.38 6.783c3.66 3.657 7.482 7.348 11.423 10.46l4.207-1.884 1.191.133.874 7.746.715.957 5.678-7.972c3.174 2.203 4.904 7.224 5.48 8.989l5.244-4.676-.723-.114-4.11 2.617-.181-4.767c3.591-.518 6.93-1.158 8.734-2.78l-12.712-4.238-.079.782.795 1.258-.313 1.151c-2.872.805-4.48 2.259-6.488 3.557l-.133-2.51-1.787-.86-1.867-.133-4.622 1.92c-3.157-2.627-5.744-5.24-8.546-7.866 1.981-2.82 2.915-5.911 2.6-8.554M302.15 492.158c2.158 1.903 3.845 4.563 4.767 8.409l4.82-5.725a16.3 16.3 0 0 1 2.926 1.223c-.883-.927-1.523-2.097-2.98-2.847l-3.376 2.317c-1.964-1.368-4.193-2.538-6.157-3.377" style="fill:#dcbd2c;fill-rule:evenodd"></path><path d="M275.018 477.527h11.785c.617 5.23-.042 7.647-2.516 8.655l-7.566 3.081-7.379-6.41zM300.874 539.845c-2.266 1.3-4.455 3.192-5.884 4.888l-.01 1.959 2.871 3.854c-3.26.233-3.705 2.098-4.848 3.655 1.307.89 2.785 1.136 3.415 2.607l-4.577-.361-3.54 5.425c1.762 1.366 4.327 3.323 9.267 4.557l8.16.34 1.872-2.976.783.355-1.24 4.011 8.695 7.107-.108 1.937c-.38-.23-.817-.137-1.266-.385-1.348-.746-2.817-1.83-3.244-2.05l-3.178 2.141c-2.568-1.577-4.303-2.425-4.618-2.797l-1.269-.134-7.023 4.26-.066-4.423c2.532-.518 6.587-1.158 8.39-2.78l-12.368-4.237-.608 1.046 1.21 1.222-.2.578c-.882.169-4.413 1.51-5.163 2.251l-1.65 1 .26-2.232-1.457-.71-3.456-.15-3.43 1.72c-3.157-2.626-6.202-5.03-9.004-7.656 1.981-2.82 3.03-4.995 2.715-7.637l-5.61 6.898c3.66 3.657 7.857 6.902 11.797 10.015l4.406-1.553.848.132.237 4.138.636 3.608 1.06.662 5.345-7.535.245-.062c2.127 1.767 3.845 3.763 4.659 8.814l1.854.07c2.146-3.092 4.05-4.472 6.78-6.418l1.86 1.324c.809 1.415 1.625 3.123 2.164 5.373l.633.498 4.465-5.537c1.156.365 3.935 1.708 4.942 2.23 2.836-1.875 7.54-8.032 8.44-9.136 2.906-3.556 5.656-7.952 6.365-13.027-2.086-2.51-5.291-5.184-9.374-7.216-1.788-.89-3.725-1.518-5.77-2.348-.683-4.238-2.016-6.02-4.333-7.169l-.075 2.82-.791 1.767-.897.801c-.694-1.92-.792-5.472-1.884-7.921-2.833.139-5.476.062-7.164-.67l-4.789-2.075.35 2.027-5.147 6.05c-.64-1.28-1.033-2.537-.5-3.726l2.366-5.273-2.5-.13-3.825 4.494-.573 1.258-1.854-.463-.3-1.197c-4.614 2.28-9.89 3.52-12.379 5.207-2.564 1.738-4.927 3.287-6.683 6.59l4.804 5.651q-2.089-4.25-1.53-8.5l2.323.235.013 1.283-1.144.733.066 1.06 6.091 4.29c.978.689 8.422 1.08 12.483.772l3.407-4.472-9.371-7.771-2.282-.458.265-.655c1.5-1.17 4.792-1.253 5.562-.644 2.228 1.765 2.886 3.236 6.572 5.067l6.85-7.986c2.008.966 4.13 1.016 6.139 1.294 1.867 1.883 2.72 5.165 4.11 9.292l.987-.12 3.395-1.998-.277 3.111c3.04-.04 4.827-.284 7.384.804 2.721 1.159 5.51 3.598 8.849 6.774-1.276 5.566-4.287 10.634-8.762 15.67-1.247-2.81-4.577-6.532-10.777-10.447l-2.391.036-.824-2.57-4.17-2.253-.353-.839 4.541-1.299-3.695-4.893 2.671-1.08c.204-4.304-1.69-7.608-5.37-9.792" style="fill:#dcbd2c;fill-rule:evenodd"></path><path d="M308.128 555.993c3.423 3.948 8.55 6.916 13.983 10.466 4.126-1.61 6.134-4 6.024-8.082-2.053-2.142-4.055-4.03-5.993-5.175-5.15-3.046-9.968-1.908-14.014 2.791M275.476 557.593h11.785c.618 5.23-.041 7.647-2.516 8.655l-7.565 3.081-7.38-6.41z" style="fill:#dcbd2c;fill-rule:evenodd"></path><path d="M277.813 212.748c-2.817 1.06-6.833-.13-9.393-1.45-1.213-.626-2.448-1.418-3.699-2.362q-1.255-.946-3.725-3.084a68 68 0 0 0 3.805-3.986c.774 1.397 1.858 2.613 3.25 3.62 1.395 1.01 2.841 1.68 4.33 1.87 2.582.328 4.073-.56 4.89-2.082.635-1.184.867-2.297.886-3.975.026-2.254-1.162-6.004-3.154-8.333-1.07-1.25-2.32-2.443-3.574-3.505-1.231-1.043-2.478-1.944-3.525-3.069-1.531-1.644-2.64-3.642-2.664-6.195-.02-2.218.652-4.063 2-5.61 1.217-1.399 2.798-2.4 4.765-2.947 2.519-.699 5.092-.321 7.092.46l-3.096 5.609c-.887-.686-2.262-1.26-3.467-1.137-1.366.138-2.413 1.227-2.266 2.76.13 1.354 1.371 2.743 2.79 3.993 1.882 1.657 3.774 3.137 5.239 4.743 1.213 1.33 2.179 2.715 3.136 4.684.897 1.847 1.488 3.839 1.861 5.777.472 2.448.515 5.057-.05 7.335-.722 2.903-2.228 5.679-5.431 6.884M308.65 215.632c-1.918-.413-3.994-1.03-5.759-1.86s-3.242-1.757-4.869-3.01a29.3 29.3 0 0 1-4.75-4.596c-1.396-1.697-2.596-3.567-3.622-5.581a31.7 31.7 0 0 1-2.594-7.02c-.586-2.447-1.025-5.144-1.06-7.864-.062-4.63.624-8.663 2.772-12.108 2.007-3.22 5.05-5.403 8.903-5.626 2.446-.142 4.331-.111 6.749.622.005 2.746.01 5.482.012 8.223-1.664-1.54-4.168-2.501-6.436-2.378-2.142.117-3.87 1.263-5.168 3.358-1.231 1.99-1.599 4.319-1.63 6.703-.032 2.538.33 5.139.96 7.459.56 2.072 1.286 4.059 2.376 5.97.95 1.664 2.012 3.169 3.204 4.506a24 24 0 0 0 3.938 3.537c1.316.94 2.327 1.511 3.484 1.955 1.162.445 2.478.656 3.495.622q-.003 3.55-.004 7.088zM334.776 196.846c.045 3.246-.557 6.547-2.32 9.274-1.735 2.685-4.6 4.853-7.671 5.875-2.075.691-4.158 1.325-6.25 1.837-2.075.508-4.166.881-6.249 1.25.438-.872.716-1.838.852-2.881.08-.616.126-1.364.126-2.473.002-5.812.005-11.635.01-17.452.006-5.812.004-11.634.009-17.456q.001-1.585-.12-2.527-.21-1.651-.828-3.002c5.5 1.347 11.505 6.735 15.764 12.026 4.13 5.129 6.601 10.103 6.677 15.53zm-5.793-4.713c-1.911-5.489-5.967-9.887-10.643-13.265l.061 29.522c3.935-.663 6.903-1.66 8.985-3.692 3.233-3.157 3.24-7.85 1.597-12.565" style="fill:#fff;fill-rule:evenodd"></path><path d="M206.52 240.948c-1.855 4.368-4.879 8.663-7.696 12.82-10.396 15.481-20.118 29.696-31.374 47.069l7.15-18.298c5.862-8.442 17.625-23.812 24.273-36.952.83-1.64.373-2.794-1.242-3.372-2.072-.743-4.12-1.438-6.185-2.198-4.272 7.375-7.625 15.217-11.15 23.506-4.39 10.325-8.581 21.168-13.138 32.041-5.923 14.135-13.378 30.12-19.143 42.842a82 82 0 0 0-8.766 2.394c1.741-2.207 3.791-5.266 5.405-7.975 4.399-7.538 8.55-15.452 12.22-23.524 6.116-13.455 11.307-27.351 17.075-40.684a1020 1020 0 0 1 10.67-23.773c3.204-6.917 7.193-14.003 10.104-21.375l6.208 3.118c2.068 1.038 4.252 2.073 6.323 3.106.993.495 1.666 1.623 1.581 3.386-.085 1.95-.91 4.557-2.316 7.869M205.899 322.68c-3.551.691-6.508 1.694-10.024 2.548 4.169-6.135 5.597-13.164 6.807-20.37 1.348-8.031 2.082-16.385 3.116-23.976-1.28 1.984-3.137 4.224-4.987 6.39-2.704 3.165-5.636 7.578-6.524 10.643-4.738 16.356-8.648 20.715-10.852 30.59-3.11.743-5.289 1.199-8.402 1.928 1.575-1.929 2.822-4.053 4.176-6.353 7.2-13.14 11.808-28.42 16.526-42.59 2.578-7.742 5.47-15.817 8.684-23.42 3.641-8.615 7.604-16.762 10.215-25.524 2.217.783 4.208 1.54 6.429 2.32 2.213.776 4.661 1.578 6.869 2.378 1.11.403 1.143 1.207 1.26 2.627.602 6.029-2.937 11.09-6.154 15.8-3.433 5.17-8.277 11.047-11.652 16.818-.64 8.132-1.496 15.493-2.494 23.194a925 925 0 0 1-1.623 11.347c-.776 5.185-1.5 10.387-1.37 15.65m15.002-74.486c-.25-.773-4.568-1.682-7.468-1.895-1.989 4.691-4.02 9.088-5.875 13.675-2.24 5.537-4.167 11.356-6.263 18.312 5.466-6.763 12.3-15.965 16.514-22.599 1.49-2.345 3.59-6.18 3.092-7.493M254.629 281.855c-2.015 9.486-5.488 18.566-11.682 26.159-2.773 3.399-5.312 5.502-8.051 7.29-3.733 2.434-9.648 4.251-13.162 1.125-4.472-3.98-3.618-12.608-3.08-18.28.446-4.718 1.606-10.507 3.295-16.544 1.95-6.968 3.612-11.342 5.823-16.577 3.486-8.25 12.894-23.676 21.146-21.745 4.614 1.079 6.052 6.343 6.92 10.686 1.791 8.969.683 18.979-1.21 27.886m-4.046-.322c.745-3.365 2.126-13.055 1.188-20.402-.601-4.71-2.78-8.113-5.267-8.96-2.357-.802-4.749.354-6.758 1.842-1.773 1.312-3.259 3.248-4.192 4.742-1.658 2.657-3.448 5.709-4.98 9.26-.995 2.304-4.404 10.8-5.91 19.668-1.763 10.372-1.213 21.09 6.389 20.483 5.032-.403 9.081-4.507 11.744-8.3 4.431-6.314 6.324-11.723 7.786-18.333M282.567 312.838c-3.546-1.472-5.856-3.407-8.785-6.052-2.928-2.644-5.246-5.623-7.505-9.687-2.422-4.358-4.018-9.066-4.85-14.083-.836-5.046-1.19-10.42-.209-15.953 1.177-6.639 3.584-11.61 6.645-15.225 2.292-2.706 4.65-4.807 8.528-4.683 3.337.106 4.12 1.484 7.173.37-.434 3.92-.602 7.61-.98 11.531-1.138-1.346-2.263-2.245-3.39-2.94-1.121-.692-2.26-1.083-3.424-1.145-2.09-.111-4.387.918-6.215 3.132-2.006 2.43-3.424 5.921-4.071 10.222-.464 3.085-.479 6.282-.033 9.529.443 3.233 1.345 6.551 2.686 9.884 1.255 3.118 3.004 5.267 4.498 7.348 1.49 2.075 3.312 3.662 4.99 4.77 1.009-8.994 1.443-17.79 2.186-26.776.128-1.56.193-2.784.186-3.64-.012-1.541-.19-2.868-.526-4.005 1.168.014 2.337.005 3.497.007 1.166.002 1.762 0 2.924 0a20 20 0 0 0-1.113 4.095c-.941 5.673-1.2 11.621-1.654 17.471a1238 1238 0 0 0-1.25 17.353c-.122 1.936-.04 3.54.233 5.757.086.703.239 1.618.459 2.72M318.14 311.762c-1.647-.051-2.95-.097-4.594-.128-1.64-.031-3.282-.045-4.924-.058q.301-.887.436-1.907c.09-.68.117-1.377.087-2.068-.121-2.809-.58-5.404-1.224-8.377-1.417-6.542-4.004-11.84-5.465-19.54l-5.334 9.281c-.033 2.165-.095 4.9-.156 7.635-.103 4.63-.445 8.332.82 14.945-2.745.086-5.49.177-8.235.25 2.749-8.702 2.362-14.037 2.634-20.17.17-3.848.282-7.68.438-11.372l.028-.67c.131-3.358.192-6.784.314-10.224.203-5.725.416-11.493.154-17.062-.07-1.49-.272-2.914-.612-4.006 3.89.197 6.968-.165 10.843-.366 4.728-.247 7.905.71 8.244 5.61.088 1.275.023 3.054-.227 4.394-.2 1.08-.58 2.894-1.127 4.492-1.235 3.605-2.381 5.876-4.4 9.292.04 1.822.882 5.518 1.548 8.08 1.454 5.589 2.485 9.056 3.018 10.896 1.1 3.796 2.291 7.49 3.593 11.537 1.008 3.133 2.49 6.677 4.142 9.536m-14.685-55.984c-.967.022-1.939.03-2.902.039-.964.008-2.507.025-3.472.038l.019 22.726a805 805 0 0 1 3.805-6.91c2.139-3.829 4.093-7.609 4.727-11.707.376-2.432.652-4.249-2.177-4.186M349.596 314.291c-7.226-1.118-18.548-2.02-27.35-2.26.52-1.128.822-2.422.921-3.886.058-.853.069-1.95-.03-3.538-.513-8.212-1.019-16.57-1.825-24.812-.394-4.027-.847-8.438-1.286-12.622-.564-5.378-1.18-10.532-2.41-15.592-.363-1.5-.84-2.793-1.403-3.88 2.941-.206 5.896-.42 8.834-.722 2.94-.302 5.75-.715 8.668-1.155.965 3.917 1.87 7.617 2.845 11.224-.982-.846-1.729-1.068-2.251-1.32-.672-.325-1.489-.56-2.426-.473-2.983.279-6.055.595-9.048.789.184 1.162.375 3.12.556 4.275 4.077-.224 8.257-.238 12.326-.59.613 2.917.973 4.701 1.546 7.624-4.172.193-8.572.223-12.747.346 1.38 12.537 2.388 23.476 3.648 35.53 2.298.123 5.296.262 7.595.412 2.302.15 4.273.322 6.583.509 1.319.106 2.405-.096 3.223-.626.197-.128.727-.598 1.601-1.396.56 3.79 1.5 8.38 2.43 12.163M375.196 297.736c1.778 7.178 1.08 13.08-1.008 16.737-1.974 3.457-5.874 3.853-8.85 2.868-5.685-1.883-10.16-5.873-14.224-9.91l1.713-8.813c3.256 4.079 6.552 7.766 11.156 8.793 2.279.508 3.963-.214 4.916-2.019 2.518-4.766.41-13.024-1.802-17.595-2.493-5.153-5.77-9.195-9.514-13.234-3.102-3.347-6.673-7.04-9.092-11.02-1.424-2.342-2.508-4.441-3.26-7.003-1.239-4.211-1.47-7.296-.919-9.79.498-2.252 1.38-3.97 3.147-4.438 3.032-.803 5.425 1.106 7.69 3l.622 9.038c-.903-1.298-3.15-3.287-4.615-3.032-1.55.27-2.165 2.692-1.402 5.215 1.157 3.826 4.172 6.842 6.768 9.776 1.628 1.841 3.516 3.701 5.152 5.602 1.631 1.896 3.401 4.066 4.718 6.073 1.95 2.972 3.646 5.747 5.082 8.801 1.652 3.515 2.79 7.19 3.722 10.95M406.906 312.618c.294 3.892.049 7.69-1.353 9.547-1.77 2.346-4.89 2.169-7.258 1.252-3.156-1.222-6.916-3.792-9.127-5.616-2.608-2.15-5.184-3.86-7.392-6.49l.739-10.56c2.877 4.759 5.845 8.1 10.372 10.071 2.37 1.033 5.87.804 6.638-1.87.966-3.357-.238-10.124-2.31-15.5-2.01-5.213-4.841-9.045-7.304-12.378-1.906-2.58-4.068-5.02-6.222-7.428-1.785-1.997-3.812-4.084-5.64-6.232-1.823-2.14-3.81-4.383-5.283-6.685-1.723-2.694-3.091-5.106-4.18-8.027-1.791-4.805-2.437-8.328-2.236-11.157.191-2.704.943-5.195 4.098-5.146 2.314.036 4.341 1.445 6.37 3.273l2.226 10.799c-1.076-1.524-3.804-3.314-5.211-3.056-1.491.274-1.652 2.45-.554 5.341.737 1.94 1.599 3.241 4.228 6.377 3.187 3.801 6.18 6.967 9.22 10.6 4.635 5.531 9.025 11.596 12.326 18.002 3.923 7.613 7.205 16.273 7.853 24.883M434.038 281.264c1.812 4.468 7.53 19.34 10.484 32.007 2.226 9.541 3.737 17.494-.244 19.142-2.133.883-5.37.43-8.99-1.623-4.654-2.64-10.176-7.701-14.58-13.59-8.61-11.518-15.147-24.972-19.902-38.507-2.925-8.325-4.767-14.477-6.453-20.735-1.7-6.309-2.904-11.627-3.4-15.96-.38-3.31-1.376-13.534 4.305-13.655 2.128-.045 4.258 1.287 7.1 3.501 4.378 3.413 8.266 8.023 11.841 12.947 3.359 4.626 6.455 9.53 9.017 13.98 3.755 6.52 7.379 14.002 10.822 22.493m-12.171-17.015c-1.388-2.557-3.646-6.69-6.513-10.719-4.19-5.888-9.555-11.553-14.336-11.745-4.194-.168-3.267 8.778-2.841 11.267 1.694 9.895 3.421 17.345 6.82 26.776 1.857 5.153 4.223 9.805 6.2 14.188 1.707 3.785 5.452 10.07 9.71 15.277 3.529 4.315 7.34 7.891 11.282 8.694 6.911 1.407 6.11-9.472 3.276-20.029-2.97-11.064-8.115-23.608-13.598-33.71" style="fill:#d72229;fill-rule:evenodd"></path><path d="M271.216 664.986c-2.145-.85-4.398-1.832-6.536-2.958.466-.435.76-1.084.896-1.922.082-.495.128-1.232.128-2.22 0-3.893.343-7.79.343-11.683v-11.46c0-1.419-.547-2.571-2.053-2.571a39.5 39.5 0 0 0 6.134-8.558v17.958c0 5.942.114 11.896.114 17.838 0 1.036.047 1.854.134 2.48.145 1.03.43 2.06.84 3.096m25.352-24.02c0 2.475-.127 4.86-.367 7.164-.24 2.3-.612 4.515-1.101 6.633-1.063 4.605-2.339 8.191-4.343 10.685-2.208 2.747-5.117 3.822-8.175 3.255-1.585-.293-3.108-.988-4.615-1.986-1.499-.993-2.794-2.103-3.867-3.303a97 97 0 0 0 3.747-4.29c1.176 1.618 2.334 2.926 3.895 3.362 2.008.561 4.46-.241 6.104-2.88 1.211-1.945 2.144-4.631 2.83-8.024.604-2.99.788-5.348.788-8.195-.84 1.137-1.62 2.012-2.567 2.566-.957.56-2.068.829-3.337.85-2.936.046-5.194-1.121-6.866-3.394-1.538-2.092-2.336-5.352-2.336-8.751 0-3.445.406-7.277 2.393-10.163 1.45-2.106 3.387-3.713 6.137-4.297 3.732-.793 7.206.96 9.16 5.442.852 1.953 1.469 4.217 1.885 6.777.416 2.565.635 5.416.635 8.55m-5.652-6.165c-.311-2.475-.835-4.517-1.574-6.112-1.002-2.164-2.767-2.766-4.34-2.498-1.22.208-2.034.752-2.917 2.227-.88 1.47-1.327 3.043-1.327 4.716 0 2.044.438 4.375 1.299 5.626.865 1.258 2.255 1.856 3.715 1.763 1.24-.08 2.34-.582 3.246-1.508.926-.947 1.552-2.812 1.898-4.214m16.636 34.667c-2.145.17-4.627.271-6.765.314.466-1.01.758-2.162.897-3.452.08-.75.126-1.822.126-3.213 0-5.486.23-10.982.23-16.468v-15.671c0-.93-.162-1.729-.487-2.38-.321-.642-1.076-1.453-1.796-1.735 2.483-2.602 4.508-5.604 6.592-8.472 0 7.525.115 14.482.115 22.002s.114 15.05.114 22.57c0 1.306.044 2.321.134 3.07.149 1.226.43 2.378.84 3.435m25.008-27.216c0 1.678-.13 3.319-.367 4.912-.773 5.193-2.425 10.479-5.444 14.822-2.25 3.238-4.987 4.78-8.06 5.643a8.66 8.66 0 0 1-4.615.043 9.7 9.7 0 0 1-3.874-2.013l3.869-6.08c1.298 1.514 2.595 1.998 3.97 1.956 2.294-.071 4.492-1.813 5.914-4.192 1.19-1.99 2.137-3.97 2.83-6.839.595-2.465 1.017-4.348 1.017-6.589-2.241 2.381-6.058 3.145-8.986 2.201-5.067-1.633-6.234-8.149-6.234-12.749 0-3.871.61-6.47 2.101-8.607 4.727-6.776 13.221.571 15.474 5.374.815 1.737 1.35 4.292 1.77 6.175a27 27 0 0 1 .635 5.943m-5.767-4.664c-.31-2.065-.621-4.457-1.344-6.01-1.017-2.188-2.303-3.097-3.88-3.504-1.217-.314-2.273.091-3.148 1.195-.888 1.12-1.327 2.086-1.327 3.769 0 1.796.588 3.69 1.493 5.144.824 1.325 1.874 2.288 3.75 2.483 1.548.16 3.732-.863 4.456-3.077" style="fill:#fff;fill-rule:evenodd" data-source="https://football-logos.cc"></path><!-- source: https://football-logos.cc --></svg>