<svg xmlns="http://www.w3.org/2000/svg" xml:space="preserve" id="Livello_1" x="0" y="0" version="1.1" viewBox="-248.64 155.9 229.47 283.3"><!-- Source: https://football-logos.cc --><style data-source="https://football-logos.cc">.st0{fill:#e31a13}.st1{fill:#fff}.st2{fill:#a05132}</style><path d="M-133.7 439.2h-.2c-.6 0-2.2-.1-3.8-.8-1.8-.8-45.3-19.9-71.3-53.2-25.5-32.7-32.2-51.6-37-79.2-5.3-30.5-2.6-63.8 8-99 .1-.4 1.4-4.5 6.5-6.7l1-.5c17.5-7.9 35.1-13.3 52.4-16 3.1-6.5 15.4-27.9 44.2-27.9 28.7 0 41.1 21.4 44.2 27.9 17.3 2.8 34.9 8.1 52.4 16l1 .5c5.1 2.3 6.4 6.3 6.5 6.8 10.6 35.1 13.3 68.4 8 98.9-4.8 27.6-11.5 46.5-37 79.2-26 33.4-69.5 52.5-71.3 53.3-1.4.6-3 .7-3.6.7" class="st0"></path><path d="M-133.7 439.2h-.2c-.6 0-2.2-.1-3.8-.8-1.8-.8-45.3-19.9-71.3-53.2-25.5-32.7-32.2-51.6-37-79.2-5.3-30.5-2.6-63.8 8-99 .1-.4 1.4-4.5 6.5-6.7l1-.5c17.5-7.9 35.1-13.3 52.4-16 3.1-6.5 15.4-27.9 44.2-27.9 28.7 0 41.1 21.4 44.2 27.9 17.3 2.8 34.9 8.1 52.4 16l1 .5c5.1 2.3 6.4 6.3 6.5 6.8 10.6 35.1 13.3 68.4 8 98.9-4.8 27.6-11.5 46.5-37 79.2-26 33.4-69.5 52.5-71.3 53.3-1.4.6-3 .7-3.6.7m-.1-6.5h.1c.2 0 .7-.1 1-.2.5-.2 43.9-19.3 68.9-51.4 24.8-31.8 31-49.2 35.7-76.3 5.1-29.5 2.5-61.8-7.9-96 0 0-.6-1.6-2.9-2.7l-1.1-.5c-17.5-7.9-35.1-13.2-52.4-15.8l-1.9-.3-.7-1.8c-.4-1-9.8-25.5-38.9-25.5-29.2 0-38.8 25.2-38.9 25.5l-.7 1.8-1.9.3c-17.3 2.6-34.9 7.9-52.4 15.8l-1.1.5c-2.3 1-2.9 2.6-2.9 2.7-10.3 34.2-12.9 66.5-7.9 96 4.7 27.1 10.9 44.5 35.7 76.3 25 32.1 68.4 51.1 68.8 51.3.6.2 1.2.3 1.4.3" class="st1"></path><path d="M-228 212.2c-6.5 22.3-9.7 43.7-9.5 64 6.5-1.4 16.8-3.4 30.1-5.2zM-100.6 266.9l23.8-69.4c-5.4-1.3-10.8-2.4-16.2-3.2l-4.6-.7-1.6-4.3c-.3-.9-8.7-22.5-34.6-22.5-25.7 0-34.3 21.6-34.7 22.5l-1.6 4.3-4.6.7c-5.7.8-11.4 2-17.1 3.5l24.2 69.3c19.6-1.2 42.2-1.6 67-.2M-40 211.2l-21 59.3c10 1.3 20.3 2.8 30.9 4.7.1-20.3-3.2-41.7-9.9-64M-122.5 330.9c-7.4-.2-15.1-.4-22.9-.3-11.6 0-40.4 2-40.4 2-13.3 1.3-26.6 3.2-39.5 6 5.1 11.6 12.7 23.8 25.1 39.7s29.5 28.5 43.4 37.1l-27.3-78c12.1-.7 27.5-1.4 40.5-1.7l9.8 28.2 9.6-28.2c15.2.4 30.5 1.6 39.3 2.3l-27.8 78.6c14.2-8.6 32.5-21.8 45.4-38.3 12.3-15.8 20-28 25.1-39.6-7.1-1.2-21.7-3.4-41-5.3-15.5-1.6-39.3-2.5-39.3-2.5M-220.7 323.1l-1.2-34.3 6.5-.8-.1 23.1 3.6-23.6 5.8-.7-6.1 35.2zM-204.5 321.3l.8-35.5 6.4-.7-.8 35.5zM-192.9 305.6l6.1-.5-.1 8.1c0 1.2.3 1.8 1 1.8.4 0 .7-.2.9-.5s.3-.8.3-1.4l.1-6.9c0-1 0-1.7-.1-1.9s-.5-.5-1.1-.8l-3.8-2c-.9-.5-1.5-.9-2-1.3q-.6-.6-.9-1.5c-.2-.6-.2-1.4-.2-2.4l.1-6.2c0-1.7.2-2.9.4-3.6.3-.7.8-1.3 1.6-1.9.5-.4 1.1-.6 1.7-.8s1.7-.3 3.3-.5c2.1-.2 3.5-.2 4.4 0q1.2.3 2.1 1.2c.4.5.6 1 .8 1.6.1.6.2 1.5.2 2.5l-.1 6.9-6.2.5.1-6c0-1.3-.3-1.9-1.1-1.8-.7.1-1 .7-1.1 1.9l-.1 5.3c0 .6 0 1 .1 1.2s.3.4.7.6l5 2.7c.9.5 1.5 1 1.8 1.6s.5 1.5.4 2.7l-.2 9.6c0 1.8-.5 3.2-1.6 4.3-.6.6-1.2.9-1.9 1.1s-2 .4-3.8.5c-1.4.1-2.4.2-3.1.2s-1.2-.1-1.7-.3c-.4-.2-.8-.4-1.2-.9-.5-.5-.8-1-1-1.6-.2-.5-.2-1.3-.2-2.3zM-163.4 318.2l1.7-36.4 8.4-.3c1.5-.1 2.5 0 3.1.1s1.1.5 1.6 1 .9 1.1 1 1.8c.2.7.2 1.8.1 3.4l-.5 10.8c-.1 1.5-.2 2.6-.4 3.3s-.6 1.3-1.2 1.9-1.1.9-1.7 1.1-1.6.3-3.1.3l-2.1.1-.6 12.7zm7-17.9h.8c.5 0 .9-.2 1.1-.4q.3-.3.3-1.5l.5-10.2c0-.7 0-1.2-.2-1.5s-.5-.4-1-.4h-.9zM-141.5 317.3l.3-35.9 10.2-.1v4.9h-4l-.1 9h4v4.8h-4l-.1 12.4h4v4.8zM-124.9 302.7l6.1.1-.2 8.1c0 1.2.3 1.9 1 1.9.4 0 .7-.1.9-.4s.3-.7.3-1.4l.2-6.9c0-1 0-1.7-.1-1.9s-.5-.5-1.1-.9l-3.8-2.4c-.9-.6-1.5-1.1-2-1.5-.4-.5-.7-1-.9-1.6s-.2-1.4-.2-2.4l.1-6.2c0-1.7.2-2.9.4-3.5.3-.7.8-1.3 1.6-1.7.5-.3 1.1-.5 1.7-.6s1.7-.1 3.3-.1c2.1 0 3.5.2 4.4.4.8.2 1.5.7 2.1 1.4.4.5.6 1.1.8 1.7.1.6.2 1.5.2 2.5l-.2 6.9-6.2-.1.1-6c0-1.3-.3-1.9-1-1.9s-1.1.6-1.1 1.8l-.1 5.3c0 .6 0 1 .1 1.2s.3.5.7.7l5 3.3q1.35.9 1.8 1.8c.3.6.4 1.6.4 2.8l-.2 9.6c0 1.8-.6 3.1-1.6 4.1-.6.5-1.2.8-1.9.9s-2 .2-3.9.1c-1.4 0-2.4-.1-3.1-.2s-1.2-.2-1.7-.4-.8-.5-1.2-1c-.5-.6-.8-1.1-1-1.7s-.2-1.3-.2-2.3zM-104.6 318.1l5.2-36.1 8.4.5 1.8 36.5-6.2-.4V311l-2.8-.2-.9 7.5zm7-12 2.2.1-.3-17.1zM-82.4 319.7l-.2-36.6 8.3.8q2.1.15 3 .6c.7.2 1.2.6 1.7 1.1q.9.9 1.2 2.1c.2.8.3 2.2.3 4v6.5c0 1.5-.1 2.5-.5 3.1-.3.6-1 1.1-2.1 1.6 1 .4 1.6 1 2 1.7q.6 1.05.6 3l.1 13.5-6.2-.6-.1-13.7q0-1.05-.3-1.5c-.2-.3-.6-.5-1.2-.5l-.5-.1.1 15.5zm6-31 .1 11.1c.1 0 .3.1.5.1.7.1 1.1 0 1.3-.3s.3-.9.3-2V291c0-.8-.1-1.4-.3-1.7s-.5-.5-1-.5zM-59.8 315.5l-.6-23.8c0-1 0-1.8.1-2.5s.2-1.2.5-1.6c.2-.4.6-.7 1-1.1.6-.4 1.3-.6 2-.6q1.2 0 3.9.3c1.7.2 2.9.5 3.6.8.8.3 1.4.8 1.9 1.5.5.5.8 1.1 1 1.8s.3 1.6.3 2.9l.6 24.2c0 1.7 0 2.9-.2 3.6s-.5 1.3-1.1 1.7c-.5.5-1.2.7-1.9.8s-1.8 0-3.3-.2c-1.9-.3-3.3-.5-4.1-.8-.8-.2-1.5-.6-2-1.2-.6-.6-1.1-1.4-1.3-2.2-.2-.6-.3-1.8-.4-3.6m8.3 1.2-.6-23.3c0-1.4-.4-2.1-1.2-2.2-.7-.1-1 .5-1 1.8l.6 23.4c0 1.2.4 1.8 1.1 1.9.8.2 1.2-.4 1.1-1.6" class="st1"></path><path d="M-148 216.6c10.6-.6 13.1-7 13.6-9.3-5.4-1.7-8.4-5.4-8.4-10.5 0-5.8 2.8-8.7 4.3-9.8-1.4-1.7-4-5.7-3.4-10.5.3-3 1.9-5.7 4.5-8.2-6.9.7-13.1 3.5-18.1 7.8-.1.5-1.2 5.4-.9 12.7 1-.2 2.1-.4 3.3-.5l.1 1.9c-1.2.1-2.3.3-3.3.5.1 1.7.3 3.5.7 5.4 1.4-.3 3-.4 4.7-.3l-.1 1.9c-1.5-.1-3 .1-4.3.3.3 1.6.7 3.3 1.3 5 1.3-.3 2.8-.6 4.4-.7l.1 1.9q-2.1.15-3.9.6c1.3 4 3 7.9 5.4 11.8" class="st2" data-source="https://football-logos.cc"></path><path d="M-104.2 216.7c2-3.8 3.2-8.1 3.6-12.6-4.6-5.4-16.3-16.2-36.1-16-.8.4-4.1 2.6-4.1 8.6 0 5.4 4.1 7.8 7.6 8.8 9.9-2.8 15.9 4.5 17.3 6.7 6.2-.7 9.9 2.4 11.7 4.5M-156.1 226.2c3.3 3 7.2 5.3 11.6 6.8 5.9-2.2 21-8.6 27-19.6-1.2-1.8-6.2-8.2-14.9-6-.5 2.4-3.3 10.5-15.4 11.2-.8 1.6-3.4 6.4-8.3 7.6" class="st2"></path><path d="M-115.8 214.2c-5.6 10.4-18.4 16.8-25.6 19.6q3.6.9 7.5.9c12.1 0 22.7-6.5 28.6-16.2-1.1-1.6-4.3-5.1-10.5-4.3M-134 168.1c-3.6 2.5-5.6 5.4-6 8.6-.5 4.5 2.5 8.5 3.4 9.6h.4c18.5 0 30.1 9.3 35.6 15.2 0-18.4-14.9-33.3-33.3-33.3 0-.1 0-.1-.1-.1M-149.6 217.6c-2.5-4.1-4.3-8.2-5.5-12.1-2.4.8-3.9 1.8-4 1.8l-1-1.6c.1-.1 1.8-1.1 4.4-2.1-.5-1.8-1-3.5-1.3-5.2-2.3.6-3.7 1.3-3.8 1.3l-.9-1.7c.1-.1 1.8-.9 4.3-1.5-.3-1.9-.5-3.6-.7-5.3-2.3.7-3.7 1.6-3.7 1.6l-1-1.7c.1-.1 1.8-1.1 4.6-1.9-.2-4.7.1-8.6.4-11-5.8 6-9.3 14.1-9.3 23.1s3.6 17.1 9.3 23.1c4.9-.3 7.5-5.3 8.2-6.8" class="st2"></path><path d="M-157.9 257.3v-11.1c-4.2 1.5-4.2-1-4.2-1.3 0-.4.1-.7.4-.9s.7-.4 1.4-.7c1-.4 4-1.5 4.3-1.5.4 0 .8.2 1 .5.3.3.4.8.4 1.3v13.3c0 1.6-.6 2.3-1.7 2.3-.5 0-.9-.2-1.2-.5-.3-.4-.4-.8-.4-1.4M-150.4 246.1c0-.8.2-1.5.7-2.2.4-.7 1.1-1.2 1.9-1.6s1.9-.6 3-.6c1 0 1.8.1 2.5.4s1.3.6 1.8 1 .8.9 1.1 1.4.4 1.1.4 1.7c0 .8-.2 1.4-.6 2q-.6.9-1.8 1.5c.7.3 1.3.6 1.7 1 .5.4.8.9 1 1.4s.3 1.2.3 1.8c0 1-.2 1.9-.7 2.7s-1.2 1.4-2.2 1.9c-1 .4-2.1.7-3.4.7s-2.5-.2-3.5-.7c-1-.4-1.7-1.1-2.2-1.9s-.7-1.7-.7-2.6c0-2.1 1-3.5 3.1-4.3-1.5-.8-2.4-2-2.4-3.6m8.8 7.7c0-.6-.1-1.1-.4-1.6-.3-.4-.6-.8-1.1-1s-1-.4-1.6-.4c-.8 0-1.5.3-2.1.8s-.8 1.3-.8 2.2c0 .6.1 1.1.4 1.6s.6.8 1.1 1.1 1 .4 1.5.4c.6 0 1.1-.1 1.5-.4.5-.3.8-.6 1.1-1.1.2-.4.4-1 .4-1.6m-3.1-9.9c-.8 0-1.4.2-1.8.7-.5.5-.7 1-.7 1.7s.2 1.2.7 1.6 1.1.7 1.9.7c.4 0 .7-.1 1-.2s.6-.3.8-.5.4-.4.5-.7.2-.6.2-.9q0-.75-.3-1.2-.3-.6-.9-.9c-.4-.2-.9-.3-1.4-.3M-125.1 251.2c-.5.6-1.1 1.1-1.8 1.4s-1.4.5-2.2.5-1.5-.1-2.1-.4c-.7-.3-1.2-.7-1.7-1.2s-.9-1.1-1.1-1.8c-.3-.7-.4-1.4-.4-2.1 0-.8.1-1.6.4-2.3s.7-1.3 1.3-1.9c.5-.5 1.2-.9 1.9-1.2.8-.3 1.6-.4 2.5-.4 1 0 2 .2 2.8.5.8.4 1.5.9 2.1 1.6s1 1.6 1.3 2.6c.3 1.1.5 2.2.5 3.6 0 1.5-.2 2.8-.5 3.9s-.8 2.1-1.4 2.9-1.3 1.3-2.2 1.7c-.8.4-1.8.6-2.9.6s-2-.2-2.8-.6-1.4-.9-1.8-1.4c-.4-.6-.6-1.1-.6-1.6 0-.3.1-.6.4-.9s.6-.4 1-.4.7.1 1 .3q.45.3.6.9c.2.5.5.8.9 1.1s.9.4 1.4.4.9-.1 1.3-.3.8-.5 1.1-1c.5-.9.9-2.4 1-4.5m-.3-3.5c0-.5-.1-1-.2-1.5l-.6-1.2c-.3-.3-.6-.6-1-.8q-.6-.3-1.2-.3c-.8 0-1.4.3-2 .9-.5.6-.8 1.5-.8 2.5s.3 1.9.8 2.5 1.2.9 2 .9c.5 0 1-.1 1.4-.4.5-.3.8-.6 1.1-1.1.4-.3.5-.9.5-1.5M-118.5 246.1c0-.8.2-1.5.7-2.2.4-.7 1.1-1.2 1.9-1.6q1.35-.6 3-.6c1 0 1.8.1 2.5.4.7.2 1.3.6 1.8 1s.8.9 1.1 1.4c.2.5.4 1.1.4 1.7 0 .8-.2 1.4-.6 2q-.6.9-1.8 1.5c.7.3 1.3.6 1.7 1 .5.4.8.9 1 1.4s.3 1.2.3 1.8c0 1-.2 1.9-.7 2.7s-1.2 1.4-2.2 1.9-2.1.7-3.4.7-2.5-.2-3.5-.7c-1-.4-1.7-1.1-2.2-1.9s-.7-1.7-.7-2.6c0-2.1 1-3.5 3.1-4.3q-2.4-1.2-2.4-3.6m8.7 7.7c0-.6-.1-1.1-.4-1.6-.3-.4-.6-.8-1.1-1s-1-.4-1.6-.4c-.8 0-1.5.3-2.1.8s-.8 1.3-.8 2.2c0 .6.1 1.1.4 1.6s.6.8 1.1 1.1 1 .4 1.5.4c.6 0 1.1-.1 1.5-.4.5-.3.8-.6 1.1-1.1.3-.4.4-1 .4-1.6m-3-9.9c-.8 0-1.4.2-1.8.7-.5.5-.7 1-.7 1.7s.2 1.2.7 1.6 1.1.7 1.9.7c.4 0 .7-.1 1-.2s.6-.3.8-.5.4-.4.5-.7.2-.6.2-.9q0-.75-.3-1.2-.3-.6-.9-.9c-.5-.2-.9-.3-1.4-.3" class="st0" data-source="https://football-logos.cc"></path><!-- source: https://football-logos.cc --></svg>