<svg xmlns="http://www.w3.org/2000/svg" xmlns:xlink="http://www.w3.org/1999/xlink" xml:space="preserve" viewBox="0 0 646.27 700"><!-- Source: https://football-logos.cc --><defs data-source="https://football-logos.cc"><linearGradient id="e"><stop offset="0" style="stop-color:#55afd6;stop-opacity:1"></stop><stop offset=".195" style="stop-color:#73badb;stop-opacity:1"></stop><stop offset=".459" style="stop-color:#99cbe3;stop-opacity:1"></stop><stop offset=".773" style="stop-color:#b2d8e8;stop-opacity:1"></stop><stop offset="1" style="stop-color:#65b4d8;stop-opacity:1"></stop></linearGradient><linearGradient id="d"><stop offset="0" style="stop-color:#00a6d7;stop-opacity:1"></stop><stop offset=".147" style="stop-color:#00a6d7;stop-opacity:1"></stop><stop offset=".343" style="stop-color:#00a6d7;stop-opacity:1"></stop><stop offset=".612" style="stop-color:#00a6d7;stop-opacity:1"></stop><stop offset=".791" style="stop-color:#00a6d7;stop-opacity:1"></stop><stop offset="1" style="stop-color:#00a6d7;stop-opacity:0"></stop><stop offset="1" style="stop-color:#00a6d7;stop-opacity:1"></stop></linearGradient><linearGradient id="c"><stop offset="0" style="stop-color:#1a76ac;stop-opacity:1"></stop><stop offset=".18" style="stop-color:#0c6aa2;stop-opacity:1"></stop><stop offset=".301" style="stop-color:#106ca5;stop-opacity:1"></stop><stop offset=".467" style="stop-color:#3b93c2;stop-opacity:1"></stop><stop offset=".746" style="stop-color:#5db8dc;stop-opacity:1"></stop><stop offset="1" style="stop-color:#4198c6;stop-opacity:1"></stop></linearGradient><linearGradient id="b"><stop offset="0" style="stop-color:#4498c5;stop-opacity:1"></stop><stop offset=".563" style="stop-color:#3178ad;stop-opacity:1"></stop><stop offset="1" style="stop-color:#205794;stop-opacity:1"></stop></linearGradient><linearGradient id="a"><stop offset="0" style="stop-color:#18b7ef;stop-opacity:.1254902"></stop><stop offset=".054" style="stop-color:#19b5f0;stop-opacity:.20392157"></stop><stop offset=".112" style="stop-color:#1ab5f1;stop-opacity:1"></stop><stop offset=".515" style="stop-color:#1ab5f1;stop-opacity:1"></stop><stop offset=".874" style="stop-color:#1ab5f1;stop-opacity:.98823529"></stop><stop offset=".938" style="stop-color:#17b2f0;stop-opacity:.12941177"></stop><stop offset="1" style="stop-color:#18b7ef;stop-opacity:.1254902"></stop></linearGradient><linearGradient xlink:href="#a" id="j" x1="120.084" x2="527.649" y1="311.704" y2="311.704" gradientUnits="userSpaceOnUse"></linearGradient><linearGradient xlink:href="#c" id="h" x1="133.668" x2="491.807" y1="326.592" y2="110.606" gradientUnits="userSpaceOnUse"></linearGradient><linearGradient xlink:href="#d" id="f" x1="163.163" x2="511.458" y1="578.682" y2="578.682" gradientUnits="userSpaceOnUse"></linearGradient><linearGradient xlink:href="#e" id="g" x1="185.9" x2="483.553" y1="632.425" y2="570.414" gradientUnits="userSpaceOnUse"></linearGradient><radialGradient xlink:href="#b" id="i" cx="366.965" cy="647.467" r="130.939" fx="366.965" fy="647.467" gradientTransform="matrix(1.49753 -.41706 .38544 1.38395 -438.534 -96.12)" gradientUnits="userSpaceOnUse"></radialGradient></defs><path d="M315.544 744.67c-2.774-.02-6.218-.505-11.122-1.723-15.21-3.781-82.405-21.86-132.007-50.698 0 0-7.149-30.438-7.219-84.568v-1.747c.032-22.76 1.32-49.62 4.885-80.097 1.27-10.542 8.029-14.86 19.7-20.611 12.53-6.205 105.388-39.469 108.947-40.578 4.77-1.486 14.712-4.72 26.535-.797 13.896 4.61 86.487 31.305 126.918 46.317 0 0 20.834 69.766 6.084 169.333-2.372 12.327-4.63 14.33-21.44 20.694-11.575 4.38-72.387 28.359-109.387 41.872-4.413 1.34-7.156 2.57-11.575 2.602z" style="fill:url(#f);stroke:none;stroke-width:6.37716;fill-opacity:1" transform="matrix(1.33333 0 0 -1.33333 -108.687 1011.352)"></path><path d="M320.844 756.792c-15.19-3.775-68.625-14.986-128.991-44.755 0 0-17.359-67.783-5.153-172.037 1.263-10.528 4.84-15.235 16.491-20.987 12.525-6.186 107.162-39.36 110.67-40.622 6.045-2.181 15.388-4.7 27.798-.287 13.768 4.904 86.36 31.26 126.733 46.253 0 0 19.03 71.526 5.217 170.443-3.183 12.544-6.85 14.336-18.469 18.506-11.632 4.177-74.364 29.112-111.313 42.606-4.458 1.352-7.206 2.602-11.709 2.602-2.8 0-6.281-.485-11.274-1.722" style="fill:url(#g);stroke:none;stroke-width:6.37716;fill-opacity:1" transform="matrix(1.33333 0 0 -1.33333 -108.687 1011.352)"></path><path d="M312.04 18.459c-3.7.025-8.292.673-14.831 2.297-18.008 4.477-90.664 23.998-153.025 55.236-5.649 30.297-16.472 108.303-3.938 215.36 1.684 14.038 6.454 20.312 21.988 27.982 16.7 8.248 142.884 52.48 147.56 54.164 8.062 2.908 20.517 6.267 37.063.383 16.414-5.847 95.327-34.49 150.375-54.793 6.597-29.013 20.638-108.867 5.102-213.736-3.163-16.437-6.174-19.106-28.588-27.592-15.433-5.842-96.516-37.813-145.85-55.83-5.884-1.786-9.539-3.428-15.431-3.471z" style="fill:url(#h);stroke:none;stroke-width:8.50288;fill-opacity:1"></path><path d="M315.589 730.25c-13.399-3.329-72.604-19.259-116.3-44.665 0 0-12.825-54.62-2.054-146.605 1.11-9.285 7.066-13.08 17.346-18.162 11.058-5.465 92.966-34.481 95.995-35.75 3.017-1.263 12.009-4.796 23.373-.696 12.135 4.369 76.194 27.582 111.817 40.802 0 0 16.79 63.114 4.604 150.386-2.806 11.064-6.033 12.646-16.294 16.325-10.26 3.68-65.608 25.694-98.214 37.594-3.922 1.199-6.352 2.295-10.318 2.295-2.475 0-5.542-.427-9.955-1.524" style="fill:url(#i);stroke:none;stroke-width:6.37716;fill-opacity:1" transform="matrix(1.33333 0 0 -1.33333 -108.687 1011.352)"></path><path d="M262.572 538.128h29.96v73.93l-29.96 39.277zM355.206 676.092v-84.676l-55.692 72.228c-4.12 5.382-10.497 12.448-24.316 12.448h-21.07l101.25-132.753c3.208-3.903 5.612-5.21 12.161-5.21h17.627v137.963z" style="fill:#fff;fill-opacity:1;fill-rule:nonzero;stroke:none;stroke-width:6.37716" transform="matrix(1.33333 0 0 -1.33333 -108.687 1011.352)" data-source="https://football-logos.cc"></path><path d="M0 0c-2.984.305-6.906.296-9.641.01a.2.2 0 0 1-.065-.019.25.25 0 0 1-.156-.232v-2.557h-.508a.25.25 0 0 1-.249-.249v-1.095c0-.138.114-.251.249-.251h.508v-2.049c0-.14.113-.25.25-.25h1.094a.25.25 0 0 1 .249.25v2.049h6.141c.138 0 .251.113.251.251v1.095a.25.25 0 0 1-.251.249h-6.141v1.154l.001.001c0 .136.107.22.225.229 3.257.214 4.655.141 7.982-.192.198-.019.287.064.287.217v1.144A.25.25 0 0 1 0 0" style="fill:#444141;fill-opacity:1;fill-rule:nonzero;stroke:none" transform="matrix(8.50288 0 0 -8.50288 252.21 643.101)"></path><path d="M0 0c-2.985.305-6.907.296-9.644.01a.2.2 0 0 1-.064-.019.25.25 0 0 1-.153-.232v-2.557h-.51a.25.25 0 0 1-.251-.249v-1.095c0-.138.114-.251.251-.251h.51v-2.049c0-.14.109-.25.246-.25h1.097c.136 0 .248.11.248.25v2.049h6.144a.25.25 0 0 1 .247.251v1.095a.247.247 0 0 1-.247.249H-8.27v1.154l.003.001c0 .136.104.22.224.229 3.254.214 4.655.141 7.982-.192.194-.019.287.064.287.217v1.144A.253.253 0 0 1 0 0" style="fill:#444141;fill-opacity:1;fill-rule:nonzero;stroke:none" transform="matrix(8.50288 0 0 -8.50288 367.312 643.101)"></path><path d="M0 0c-2.989.305-6.91.296-9.645.01a.254.254 0 0 1-.221-.251v-2.557h-.508a.247.247 0 0 1-.248-.249v-1.095a.25.25 0 0 1 .248-.251h.508v-2.049c0-.14.114-.25.248-.25h1.096c.136 0 .25.11.25.25v2.049h6.144a.25.25 0 0 1 .248.251v1.095a.25.25 0 0 1-.248.249h-6.144v1.155c0 .136.11.22.226.229 3.256.214 4.656.141 7.981-.192.199-.019.292.064.292.217v1.144A.256.256 0 0 1 0 0" style="fill:#444141;fill-opacity:1;fill-rule:nonzero;stroke:none" transform="matrix(8.50288 0 0 -8.50288 482.42 643.101)"></path><path d="M120.084 311.704H527.65v-5.446H120.084Z" style="fill:url(#j);fill-opacity:1;fill-rule:nonzero;stroke:none;stroke-width:6.37716" transform="matrix(1.33333 0 0 -1.33333 -108.687 1011.352)"></path><path d="M340.698 349.778q-15.975.002-15.975 21.344c0 14.228 5.37 21.338 16.083 21.338 5.389 0 9.368-1.779 11.925-5.331 2.558-3.559 3.846-8.896 3.846-16.007 0-14.227-5.3-21.344-15.88-21.344m24.272 44.315c-2.595 2.876-5.905 5.108-9.936 6.715-4.024 1.6-8.8 2.41-14.335 2.41-5.53 0-10.306-.81-14.336-2.41-4.024-1.607-7.334-3.84-9.93-6.715-2.595-2.87-4.52-6.269-5.784-10.19-1.269-3.936-1.894-8.196-1.894-12.78 0-4.592.625-8.82 1.894-12.691q1.893-5.807 5.784-10.063c2.596-2.845 5.906-5.064 9.93-6.677 4.03-1.607 8.807-2.405 14.336-2.405 5.535 0 10.311.798 14.335 2.405 4.03 1.613 7.34 3.832 9.936 6.677 2.596 2.837 4.521 6.192 5.784 10.063q1.894 5.804 1.894 12.69 0 6.877-1.894 12.78c-1.263 3.922-3.188 7.321-5.784 10.19M212.229 391.036h18.328V340.32h15.05v50.717h18.334v10.95H212.23ZM125.573 362.56l-26.42 36.58s-1.684 2.85-5.976 2.85H81.513l3.208-4.56v-57.113h13.213v39.105L124.4 343.34s1.95-3.023 5.548-3.023h8.838v61.673h-13.213zM275.645 401.989l3.208-4.534v-57.133h15.05v57.815s.428 3.852-3.469 3.852zM171.711 362.903l8.915 25.987 8.495-25.987zm15.477 39.085H167.98l3.106-4.413-21.587-57.254h14.54l4.197 12.168h24.367l4.1-12.168h15.764L190.25 399.77s-.988 2.22-3.06 2.22M540.725 351.157h-.013v47.344s.472 3.489-3.386 3.489h-14.559l3.208-4.56v-52.082c0-2.538 2.531-5.026 5.025-5.026h35.215v10.835zM474.292 362.903l8.915 25.987 8.495-25.987zm15.478 39.085h-19.208l3.112-4.413-21.593-57.254h14.54l4.202 12.168h24.36l4.101-12.168h15.771l-22.224 59.448s-.983 2.22-3.061 2.22M426.845 362.56l-26.42 36.58s-1.684 2.85-5.976 2.85h-11.664l3.208-4.56v-57.113H399.2v39.105l26.471-36.082s1.945-3.023 5.549-3.023h8.838v61.673h-13.213z" style="fill:#444141;fill-opacity:1;fill-rule:nonzero;stroke:none;stroke-width:6.37716" transform="matrix(1.33333 0 0 -1.33333 -108.687 1011.352)" data-source="https://football-logos.cc"></path><!-- source: https://football-logos.cc --></svg>