<svg xmlns="http://www.w3.org/2000/svg" xmlns:xlink="http://www.w3.org/1999/xlink" width="282" height="353" viewBox="0 0 500.004 625.341"><!-- Source: https://football-logos.cc --><defs data-source="https://football-logos.cc"><linearGradient id="d"><stop offset="0" style="stop-color:#f5ee31;stop-opacity:1"></stop><stop offset=".381" style="stop-color:#f0dd2e;stop-opacity:1"></stop><stop offset=".638" style="stop-color:#eedb2e;stop-opacity:1"></stop><stop offset="1" style="stop-color:#ecd42d;stop-opacity:1"></stop></linearGradient><linearGradient id="c"><stop offset="0" style="stop-color:#f5ee31;stop-opacity:1"></stop><stop offset=".297" style="stop-color:#f5ee31;stop-opacity:1"></stop><stop offset=".579" style="stop-color:#f5ee31;stop-opacity:1"></stop><stop offset=".733" style="stop-color:#f5ee31;stop-opacity:1"></stop><stop offset=".816" style="stop-color:#f4ea31;stop-opacity:1"></stop><stop offset=".898" style="stop-color:#ecd22c;stop-opacity:1"></stop><stop offset="1" style="stop-color:#ebd02c;stop-opacity:1"></stop></linearGradient><linearGradient id="b"><stop offset="0" style="stop-color:#ed2e24;stop-opacity:1"></stop><stop offset=".529" style="stop-color:#e52c24;stop-opacity:1"></stop><stop offset="1" style="stop-color:#c12226;stop-opacity:1"></stop></linearGradient><linearGradient id="a"><stop offset="0" style="stop-color:#d72404;stop-opacity:1"></stop><stop offset=".514" style="stop-color:#bd1f04;stop-opacity:1"></stop><stop offset="1" style="stop-color:#a71a04;stop-opacity:1"></stop></linearGradient><linearGradient xlink:href="#a" id="j" x1="56.042" x2="66.606" y1="554.876" y2="538.645" gradientUnits="userSpaceOnUse"></linearGradient><linearGradient xlink:href="#b" id="g" x1="254.373" x2="282.195" y1="22.523" y2="323.266" gradientUnits="userSpaceOnUse"></linearGradient><linearGradient xlink:href="#c" id="e" x1="55.692" x2="55.272" y1="556.136" y2="523.883" gradientUnits="userSpaceOnUse"></linearGradient><linearGradient xlink:href="#d" id="h" x1="87.441" x2="246.424" y1="464.363" y2="612.748" gradientUnits="userSpaceOnUse"></linearGradient><clipPath id="i" clipPathUnits="userSpaceOnUse"><path d="M50.905 554.026a11.8 11.8 0 0 1-3.779-2.559 11.9 11.9 0 0 1-2.55-3.803 12 12 0 0 1-.935-4.667c0-2.055 2.604-3.646 6.418-4.417.112.592.658 1.043 1.313 1.043.689 0 1.552-.498 2.625-1.517a32 32 0 0 1 1.534-.037c6.572 0 11.89 1.991 11.89 4.928 0 1.621-.314 3.19-.935 4.667a11.9 11.9 0 0 1-2.55 3.803 11.8 11.8 0 0 1-3.779 2.559c-1.464.622-3.02.937-4.626.937s-3.162-.315-4.626-.937" style="stroke-width:1"></path></clipPath><clipPath id="f" clipPathUnits="userSpaceOnUse"><path d="M50.516 554.943a12.944 12.944 0 0 1-6.858-6.893 13 13 0 0 1-1.012-5.053c0-2.036.479-4.379 1.386-6.78.852-2.255 2.071-4.546 3.524-6.623 1.259-1.799 2.62-3.295 3.935-4.325 1.438-1.128 2.798-1.699 4.04-1.699 1.243 0 2.602.571 4.041 1.699 1.315 1.03 2.676 2.526 3.935 4.325 1.452 2.077 2.672 4.368 3.524 6.623.906 2.401 1.385 4.744 1.385 6.78 0 1.754-.34 3.453-1.012 5.053a12.9 12.9 0 0 1-2.762 4.119 12.8 12.8 0 0 1-4.095 2.774 12.8 12.8 0 0 1-5.016 1.016c-1.74 0-3.427-.342-5.015-1.016" style="stroke-width:1"></path></clipPath></defs><g style="stroke-width:1.00001" data-source="https://football-logos.cc"><path d="M250.002 0C388.069 0 500.004 112.276 500.004 251.46c0 82.752-39.654 179.48-94.059 257.215-46.413 66.334-103.545 116.668-155.943 116.668s-109.53-50.334-155.944-116.668C39.653 430.939 0 334.21 0 251.459 0 112.275 111.935 0 250.002 0" style="fill:#ed1c24;fill-opacity:1;fill-rule:nonzero;stroke:none;stroke-width:18.9367"></path><path d="M0 0h596v596H0Z" clip-path="url(#f)" style="fill:url(#e);fill-opacity:1;stroke:none;stroke-width:1.00001" transform="matrix(18.93667 0 0 -18.93652 -801.574 10533.926)"></path><path d="M90.826 91.068c-20.688 20.783-36.917 45.022-48.468 72.499S24.84 220.755 24.84 251.45c0 38.915 49.311 69.043 121.536 83.643 2.12-11.21 12.46-19.75 24.864-19.75 13.047 0 29.39 9.43 49.708 28.726 9.507.454 19.221.7 29.05.7 124.45 0 225.156-37.702 225.156-93.319 0-30.696-5.946-60.407-17.497-87.884s-27.8-51.716-48.488-72.499-44.756-37.087-72.025-48.666c-27.27-11.58-56.735-17.545-87.147-17.545s-59.878 5.965-87.6 17.743c-26.815 11.381-50.884 27.686-71.572 48.468" style="fill:url(#g);fill-opacity:1;stroke-width:1.00001"></path><path d="M182.387 35.238a223 223 0 0 0-19.99 7.362c-26.815 11.38-50.883 27.686-71.57 48.468-20.69 20.783-36.918 45.022-48.47 72.498-11.55 27.477-17.515 57.19-17.515 87.885 0 23.562 18.162 43.87 48.457 59.492C61.696 153.712 118.145 90.652 182.387 35.238" style="fill:#de4627;fill-opacity:1;stroke:none;stroke-width:.200002;stroke-dasharray:none"></path><path d="M102.643 458.913c10.12 33.518 31.238 58.089 50.823 84.15 21.97 29.234 61.224 53.74 95.935 67.698-50.625.334-115.098-53.162-168.94-143.503z" style="fill:url(#h);fill-opacity:1;stroke:none;stroke-width:.200002;stroke-dasharray:none"></path><path d="M57.257 554.876c7.674-3.533 8.124-9.511 7.264-14.98-.7-4.462-2.783-11.802-8.987-15.873 3.05-.02 7.052 3.659 10.086 9.706 1.594 3.178 2.627 6.82 2.238 10.371-.195 1.781-.675 3.482-1.794 5.267-1.455 2.32-3.997 4.762-8.807 5.509" clip-path="url(#i)" style="fill:url(#j);fill-opacity:1;stroke:none;stroke-width:1.00002" transform="matrix(18.93667 0 0 -18.93652 -801.574 10533.926)"></path><path d="m282.688 27.21.052.026c.094.014.188.022.281.035-.114-.017-.219-.042-.334-.06m14.222 2.585c13.897 2.956 27.496 7.2 40.69 12.805 26.814 11.38 50.881 27.685 71.56 48.459 20.698 20.792 36.946 45.03 48.29 72.015 11.759 27.97 17.704 57.681 17.704 88.377 0 25.379-21.014 47.009-55.64 63.047-13.916 84.819-53.89 220.433-169.451 296.262 57.752.381 133.528-69.292 190.984-183.805 30.193-60.176 49.751-129.153 42.385-196.394-3.695-33.725-12.78-65.935-33.977-99.73-26.074-41.574-70.64-84.551-152.545-101.036" style="opacity:1;fill:#e0be05;fill-opacity:1;stroke:none;stroke-width:1.00001;stroke-dasharray:none"></path><path d="M35.602 237.647c-.868 16.83 4.596 42.675 29.147 34.115 31.7-11.053 62.551-32.01 87.689-53.776 29.362-25.424 55.013-49.445 75.178-75.499 19.12-24.702 34.97-45.104 43.976-74.588 9.675-31.668-15.245-35.966-42.892-33.453-58.634 5.33-100.182 26.303-142.005 72.643-25.937 28.739-48.395 78.209-51.093 130.558" style="fill:#ef4b26;fill-opacity:1;stroke:none;stroke-width:.200002;stroke-dasharray:none"></path><path d="M168.05 47.959c-29.743 11.556-55.502 30.484-81.355 59.129-25.937 28.739-48.395 78.21-51.093 130.558-.868 16.831 4.595 42.675 29.146 34.116 2.35-.82 4.694-1.709 7.033-2.633.523-116.603 44.151-173.762 96.27-221.17" style="fill:#ec6228;fill-opacity:1;stroke:none;stroke-width:.200002;stroke-dasharray:none"></path></g><g style="stroke-width:1.00001" data-source="https://football-logos.cc"><g style="fill:#ed1c24;fill-opacity:1;stroke-width:1.00001"><path d="M304.333 374.113c.076 1.704-.095 3.238-.53 4.601-.436 1.364-1.08 2.538-1.97 3.522-.87.966-1.969 1.724-3.276 2.273-1.325.53-2.821.852-4.506.928-1.553.075-2.974-.076-4.28-.455-1.288-.397-2.424-1.003-3.37-1.837q-1.45-1.25-2.273-3.181c-.568-1.288-.89-2.803-.966-4.526l-.852-17.46c-.02-.113.019-.208.075-.302a.5.5 0 0 1 .285-.209c.151-.075.321-.113.568-.17.227-.038.53-.076.909-.095.34-.019.643-.019.89 0 .246.038.435.076.587.114a.7.7 0 0 1 .303.19c.056.094.094.189.094.302l.834 16.986c.056 1.307.284 2.443.643 3.39s.871 1.742 1.496 2.348a5.7 5.7 0 0 0 2.254 1.364c.852.284 1.818.397 2.878.34 1.08-.056 2.045-.265 2.879-.625a5.5 5.5 0 0 0 2.083-1.533c.549-.663.965-1.477 1.23-2.443.266-.947.36-2.064.304-3.314l-.853-17.194c0-.114.02-.209.076-.303a.56.56 0 0 1 .303-.228c.133-.056.322-.113.568-.151.227-.057.53-.076.89-.095s.644-.019.89 0c.227.019.436.057.568.114.133.038.246.094.303.19a.4.4 0 0 1 .114.302zM327.417 374.522q.2 1.96-.398 3.579a7.34 7.34 0 0 1-1.76 2.802c-.796.796-1.743 1.42-2.88 1.894-1.116.473-2.366.776-3.71.909a12.2 12.2 0 0 1-2.633 0 14 14 0 0 1-2.197-.379q-.965-.255-1.647-.568c-.455-.19-.758-.379-.947-.53a1.85 1.85 0 0 1-.436-.625 4.4 4.4 0 0 1-.208-1.06c-.038-.322-.038-.588-.038-.796.02-.208.038-.398.076-.53.057-.133.114-.227.19-.284a.8.8 0 0 1 .302-.114c.209-.019.493.076.89.284.398.228.89.436 1.496.682.606.227 1.326.436 2.16.606.851.17 1.798.208 2.878.114a7 7 0 0 0 2.177-.55 5 5 0 0 0 1.648-1.079c.435-.435.776-.966.984-1.572.19-.587.266-1.268.19-2.007-.076-.795-.322-1.44-.739-1.97a5.5 5.5 0 0 0-1.571-1.363 14 14 0 0 0-2.121-.966c-.796-.284-1.61-.568-2.443-.87a23 23 0 0 1-2.424-1.004 9.7 9.7 0 0 1-2.178-1.383 7.3 7.3 0 0 1-1.628-1.988c-.455-.795-.739-1.742-.834-2.897q-.17-1.733.341-3.182a6.3 6.3 0 0 1 1.553-2.48 8 8 0 0 1 2.575-1.667c1.004-.435 2.121-.7 3.333-.814.625-.057 1.25-.057 1.894-.019.644.057 1.25.133 1.818.265.568.133 1.08.284 1.534.474q.681.255.909.454c.151.114.246.227.303.303s.094.17.132.284c.038.133.076.265.114.436s.057.397.095.681c.018.247.018.493.018.682 0 .208-.018.379-.037.53a1 1 0 0 1-.152.322c-.076.057-.17.114-.265.114-.17.019-.417-.057-.776-.227q-.54-.255-1.307-.568a11.7 11.7 0 0 0-1.818-.53 8.2 8.2 0 0 0-2.291-.095c-.777.075-1.458.246-2.008.51-.568.266-1.003.588-1.344.967-.341.378-.587.833-.739 1.325-.132.493-.189 1.004-.132 1.534.076.777.322 1.44.738 1.97.417.53.947.984 1.572 1.363.644.36 1.364.7 2.159.985.814.284 1.628.587 2.462.87.814.285 1.628.626 2.442.985.815.38 1.534.834 2.197 1.364a7 7 0 0 1 1.648 1.988c.454.777.72 1.723.833 2.84M351.72 364.849a22 22 0 0 0-1.06-4.337c-.493-1.325-1.136-2.423-1.932-3.332a6.86 6.86 0 0 0-2.954-1.95c-1.174-.399-2.556-.474-4.166-.228-1.61.227-2.897.72-3.9 1.496a7.7 7.7 0 0 0-2.311 2.802c-.53 1.099-.833 2.349-.928 3.731a20.7 20.7 0 0 0 .17 4.299c.247 1.628.606 3.124 1.08 4.45.473 1.344 1.117 2.461 1.912 3.37.777.89 1.761 1.534 2.936 1.932 1.155.398 2.556.473 4.185.227s2.935-.738 3.957-1.496c1.004-.776 1.78-1.723 2.292-2.84.53-1.137.833-2.386.928-3.788.075-1.382.018-2.84-.209-4.336m3.882-.833c.322 2.253.36 4.317.095 6.21-.265 1.876-.833 3.542-1.685 4.962a10.45 10.45 0 0 1-3.542 3.503c-1.496.928-3.295 1.534-5.434 1.856-2.083.303-3.94.265-5.568-.132-1.61-.398-3.01-1.118-4.185-2.16-1.174-1.04-2.14-2.423-2.878-4.108-.758-1.705-1.288-3.693-1.629-5.984-.322-2.197-.36-4.223-.094-6.098.265-1.875.833-3.522 1.704-4.923.89-1.42 2.064-2.576 3.56-3.504 1.496-.909 3.295-1.533 5.416-1.836 2.064-.303 3.9-.266 5.51.132s3.011 1.098 4.185 2.14c1.193 1.023 2.16 2.386 2.917 4.052.757 1.667 1.287 3.636 1.628 5.89" style="fill:#ed1c24;fill-opacity:1;fill-rule:nonzero;stroke:none;stroke-width:18.9367"></path></g><g style="stroke-width:1.00001"><path d="M161.393 348.117c0-6.268 4.129-11.343 9.204-11.343 24.2 0 87.714 65.387 96.974 75.045a28.1 28.1 0 0 0-6.533 3.636c-9.222-6.988-47.512-34.37-85.991-38.195-5.473-6.382-13.654-17.857-13.654-29.143m159.712 70.462c9.298 0 15.282 26.284 15.282 26.284-12.706-1.97-22.989-11.418-22.989-17.857 0-4.64 3.447-8.427 7.707-8.427m-200.634-26.984s18.88-6.42 42.21-6.42c54.462 0 91.426 25.962 97.77 30.734-2.613 2.064-4.582 4.337-6.211 6.306-1.988 2.405-3.484 4.696-4.677 6.93-4.053 1.535-11.325 3.561-21.361 3.561-28.538 0-53.136-14.581-53.136-14.581s20.016 21.89 47.91 21.89c10.093 0 19.03-3.616 24.541-6.476-3.446 8.503-4.07 15.869-14.259 23.122 12.915-2.424 24.656-15.642 29.37-21.853 5.871-7.688 7.197-13.028 10.908-16.19 3.087-2.614 7.65-3.864 17.536-3.864 7.726 0 14.43 1.117 17.687 1.78a7.9 7.9 0 0 0-.777 3.485c0 15.944 17.668 26.586 33.405 29.162 0 0-5.473-19.713-6.799-25.83-1.723-7.915-4.298-12.479-14.05-12.479-5.17 0-9.602 1.818-11.533 5.17-4.242-2.026-15.187-6.533-28.026-6.533-4.848 0-8.825.72-12.158 1.856-12.176-16.513-66.865-88.301-97.58-88.301-9.696 0-17.555 7.271-17.555 16.266 0 13.16 12.12 29.484 19.05 37.74a81 81 0 0 0-6.419-.246c-28.064 0-45.846 14.77-45.846 14.77" style="fill:#000;fill-opacity:1;fill-rule:nonzero;stroke:none;stroke-width:18.9367"></path><path d="M235.148 469.996c.625.132 1.23.265 1.837.379h-.057s-8.275 14.978-9.847 14.978c-.644 0 1.401-4.071.246-7.802 4.318-4.147 7.12-8.956 7.537-15.054l-1.496.454c-7.783 14.809-17.535 14.885-32.798 21.039-16.665 6.703-38.877 20.376-42.191 41.925-1.629-5.302-2.765-11.21-2.765-17.364 0-30.488 29.409-51.413 55.049-51.413 13.142 0 23.387 4.469 23.387 4.469l.378-.398s-9.638-16.493-31.472-16.493c-29.845 0-53.989 28.745-53.989 64.27 0 21.55 10.927 35.771 20.85 39.918 0 0-4.81-6.306-8.844-15.868 1.117-21.929 23.16-31.227 41.112-40.146 1.969-.966 3.92-1.931 5.832-2.897-3.181 7.006-9.09 22.042-13.18 44.406 8.957-26 16.702-41.736 20.073-48.042 1.894-1.08 3.73-2.159 5.454-3.295.416 6.23 1.666 10.642 4.885 10.642 7.954 0 16.002-18.804 17.479-22.402 1.269.152 2.5.284 3.73.38-4.298 16.55-2.594 24.162.209 24.162 5.283 0 16.72-14.714 16.72-11.002 0 2.424-6.57 22.705-6.57 47.417 0 20.527 4.564 33.272 12.99 37.116 0 0-9.998-16.286-9.998-36.396 0-25.148 12.138-36.718 12.138-49.557 0-3.238-2.045-5.852-4.563-5.852-7.575 0-12.858 6.704-16.57 6.704-2.386 0-1.326-7.461 1.326-12.422 19.826-.266 32.893-9.677 35.941-18.842l-.568-.568c-4.545 6.306-21.133 17.554-52.265 17.554M319.363 464.213c-7.177 0-15.111 3.863-18.52 3.863-3.655 0-4.715-2.576.095-16.494 0 0-10.813 16.588-10.813 22.383 0 1.42 1.098 2.556 2.462 2.556 5.15 0 10.547-7.499 23.557-7.499 7.29 0 13.18 3.542 13.18 3.542.53-6.855-4.45-8.351-9.96-8.351" style="fill:#000;fill-opacity:1;fill-rule:nonzero;stroke:none;stroke-width:18.9367"></path><path d="M319.534 553.485c-21.285 0-39.142-17.27-39.881-38.555-.739-21.303 15.907-38.554 37.192-38.554 21.284 0 39.142 17.25 39.88 38.554.739 21.285-15.907 38.555-37.191 38.555m2.31-79.704c-23.027 0-43.327 18.425-45.353 41.15-2.008 22.723 15.016 41.148 38.043 41.148s43.327-18.425 45.354-41.149c2.007-22.724-15.017-41.149-38.044-41.149" style="fill:#000;fill-opacity:1;fill-rule:nonzero;stroke:none;stroke-width:18.9367"></path><path d="M329.017 515.21c-1.041 3.485-1.685 6.893-3.541 10.094-1.761 3.048-5.927 1.95-8.957 1.931-1.685-.019-3.39.076-5.037-.36-.777-.208-1.61-.549-2.064-1.23-.322-.398-2.027-5.435-2.273-6.136-.397-1.136-.984-2.84-1.117-4.014-.417-3.901.682-6.325 3.37-9.166 1.8-1.912 4.697-4.772 7.443-4.866 3.181-.114 7.82 3.124 10.13 5.112 3.22 2.822 3.22 4.678 2.046 8.636m19.675-8.465c-.833-1.629-1.287-3.447-1.458-5.245-.095-1.08-.7-7.253-.606-8.73 0 .019 0 .019-.019.038-.416 2.31-.852 9.847-2.461 11.343-1.288 1.212-3.958 1.893-5.625 2.177-2.518.436-5.075 1.364-7.612.417-2.386-.909-4.185-3.314-5.984-4.98-3.087-2.84-5.454-5.378-5.795-9.81-.17-2.158-.379-4.563.72-6.514 1.022-1.818 6.533-2.802 8.237-4.336-2.84.473-6.893 2.424-9.847 2.083-2.973-.322-8.976-2.5-12.006-2.31 3.504 1.079 7.84 2.007 9.28 4.128 1.25 1.818.965 5.454 1.04 7.593.171 5.36-4.317 8.295-8.293 11.21-1.686 1.232-3.39 2.917-5.34 3.996-2.727 1.534-4.962-.51-7.462-1.136-1.439-.379-2.594-.909-3.768-1.856-1.648-1.325-1.458-2.064-1.837-3.957-.17-.871-.095-6.268-.928-6.76-.852 2.329-.435 6.93-.947 9.354-.568 2.708-3.408 7.859-4.734 10.283.72.265 3.825-4.47 4.204-4.848 2.178-2.121 4.015-1.458 6.571-.53 2.67.965 4.45 2.253 6.78 3.825 1.344 1.95 1.78 4.43 2.537 6.59.89 2.575 2.159 5.112 2.253 7.877.095 2.69-1.799 3.901-2.48 6.211-.436 1.515-2.216 3.295-3.655 3.882-2.822 1.193-5.814-.378-8.71.114 2.896 1.818 7.081 1.534 9.335 4.299 1.515 1.855 3.522 5.624 6.154 6.684-.094-2.064-2.158-3.882-2.84-5.719-1.004-2.802-1.307-4.204.72-6.665 1.306-1.572 2.48-3.447 4.203-4.545 2.33-1.477 5.549-1.382 8.219-1.401 2.802-.02 5.813-.133 8.521.757 2.5.833 3.636 2.822 5.34 4.62 1.288 1.364 2.992 3.75 2.33 5.53-.758 1.988-3.504 5.681-3.996 8.01 1.458 0 5.15-6.23 5.908-6.987 2.595-2.651 5.473-2.31 8.616-4.356-.72-.378-2.878.455-3.711.55-1.326.113-2.746.208-4.034-.19-1.988-.606-2.745-2.973-3.768-4.64-.966-1.59-2.746-4.81-2.235-6.798.739-2.897 1.572-5.756 2.557-8.578.757-2.178 1.628-5.738 3.674-7.025 2.215-1.383 4.81-2.898 7.385-3.466 2.405-.53 3.9.91 5.226 2.727.474.644.663.985 1.231 1.59.568.588 1.78 2.368 2.5 2.614.871-1.628-2.822-5.87-3.39-7.12" style="fill:#000;fill-opacity:1;fill-rule:nonzero;stroke:none;stroke-width:18.9367"></path></g><g style="stroke-width:1.00001"><g style="fill:#f5ee31;fill-opacity:1;stroke-width:1.00001"><path d="M145.555 238.798c0 .36-.02.663-.057.89a2.5 2.5 0 0 1-.17.625.87.87 0 0 1-.303.379.7.7 0 0 1-.417.113h-15.3c-.417 0-.796-.132-1.175-.416-.36-.266-.549-.758-.549-1.459v-32.078c0-.133.038-.265.114-.379a.73.73 0 0 1 .378-.246c.17-.057.417-.114.72-.151.303-.057.663-.076 1.098-.076s.815.019 1.117.076c.285.037.53.094.701.151s.303.152.379.246a.9.9 0 0 1 .095.379v29.958h12.422c.17 0 .303.056.417.132.132.076.227.19.303.341s.132.36.17.606q.057.37.057.909M192.506 223.403c0-1.97-.17-3.788-.53-5.473-.34-1.686-.909-3.163-1.723-4.393a8.3 8.3 0 0 0-3.257-2.898c-1.345-.7-3.03-1.06-5.018-1.06-2.008 0-3.674.379-5.038 1.136-1.344.739-2.461 1.742-3.294 2.992q-1.28 1.875-1.818 4.374c-.38 1.667-.55 3.428-.55 5.265q0 3.068.512 5.624c.322 1.723.909 3.2 1.704 4.431.795 1.25 1.875 2.216 3.22 2.897 1.344.682 3.03 1.023 5.074 1.023 2.008 0 3.693-.379 5.075-1.117 1.364-.758 2.481-1.762 3.314-3.05.833-1.268 1.44-2.745 1.8-4.43.359-1.667.53-3.447.53-5.321m4.866-.322c0 2.802-.322 5.32-.985 7.574-.662 2.254-1.647 4.166-2.954 5.757q-1.96 2.358-4.942 3.636c-1.988.852-4.299 1.268-6.931 1.268-2.613 0-4.867-.397-6.76-1.174-1.913-.776-3.485-1.893-4.716-3.37-1.25-1.496-2.158-3.333-2.764-5.53-.625-2.196-.928-4.715-.928-7.574 0-2.727.34-5.208 1.003-7.442s1.648-4.129 2.973-5.681c1.307-1.572 2.974-2.765 4.943-3.617 1.988-.852 4.299-1.269 6.93-1.269 2.557 0 4.792.379 6.666 1.136 1.913.777 3.485 1.894 4.735 3.37 1.25 1.478 2.196 3.296 2.821 5.455.606 2.177.91 4.658.91 7.46M228.185 240.11a.64.64 0 0 1-.114.379c-.056.095-.189.19-.36.246-.189.057-.416.114-.719.17a9 9 0 0 1-1.117.057q-.625 0-1.08-.056a6 6 0 0 1-.738-.17.8.8 0 0 1-.379-.247.8.8 0 0 1-.095-.379v-33.252a.64.64 0 0 1 .114-.38c.076-.113.208-.188.398-.245.189-.076.435-.114.72-.17a9 9 0 0 1 1.06-.057c.454 0 .833.018 1.117.056.303.057.53.095.72.17.17.058.303.133.36.247a.64.64 0 0 1 .113.379zM272.485 215.771c0-1.363-.303-2.5-.909-3.446-.605-.928-1.628-1.61-3.048-2.008a7 7 0 0 0-1.515-.265 23 23 0 0 0-2.216-.094h-3.882v11.683h4.507c1.212 0 2.254-.151 3.144-.454.89-.284 1.61-.7 2.215-1.231a4.5 4.5 0 0 0 1.288-1.856c.284-.72.416-1.496.416-2.329m6.931 24.333a.8.8 0 0 1-.075.38c-.057.113-.17.189-.341.264-.19.076-.436.133-.758.17-.322.039-.738.058-1.287.058q-.682 0-1.137-.057c-.303-.038-.53-.095-.7-.19a.9.9 0 0 1-.417-.322 2 2 0 0 1-.265-.53l-3.181-8.18a33 33 0 0 0-1.156-2.557 9 9 0 0 0-1.439-2.007 5.7 5.7 0 0 0-1.95-1.307c-.758-.303-1.667-.473-2.708-.473h-3.087v14.751a.64.64 0 0 1-.113.38c-.076.113-.209.189-.38.245a2.5 2.5 0 0 1-.7.17 8 8 0 0 1-1.098.077c-.455 0-.833-.038-1.117-.076a2.9 2.9 0 0 1-.72-.17c-.17-.057-.303-.133-.36-.247a.64.64 0 0 1-.113-.379v-32.078c0-.682.189-1.174.549-1.458.36-.265.757-.417 1.155-.417h7.366c.89 0 1.61.038 2.197.076.568.038 1.098.095 1.553.151 1.344.228 2.518.588 3.56 1.099a8.5 8.5 0 0 1 2.575 1.893 7.9 7.9 0 0 1 1.572 2.633c.34 1.003.511 2.083.511 3.295 0 1.155-.151 2.196-.454 3.105a7.7 7.7 0 0 1-1.364 2.443 9.4 9.4 0 0 1-2.102 1.837c-.833.511-1.742.947-2.764 1.306.568.247 1.079.569 1.552.947.455.398.89.852 1.288 1.383.417.53.795 1.155 1.155 1.855.341.682.7 1.477 1.06 2.349l3.106 7.631c.246.644.417 1.098.493 1.344.056.266.094.474.094.606M324.283 238.906q0 .483-.057.852c-.038.227-.095.436-.19.587a1 1 0 0 1-.302.36.67.67 0 0 1-.379.094h-16.626c-.417 0-.815-.132-1.174-.416-.36-.265-.55-.758-.55-1.458v-30.886c0-.7.19-1.193.55-1.458.36-.284.757-.416 1.174-.416h16.437c.132 0 .265.037.378.094.114.076.209.19.284.36.076.152.133.36.17.606.039.227.077.53.077.89 0 .322-.038.606-.076.852a2.2 2.2 0 0 1-.17.587c-.076.152-.171.265-.285.322a.7.7 0 0 1-.378.114h-13.559v10.87h11.627c.133 0 .265.037.379.113.113.095.227.19.303.34.076.152.132.342.17.588s.057.549.057.89c0 .322-.019.587-.057.833a1.7 1.7 0 0 1-.17.55.83.83 0 0 1-.303.321.9.9 0 0 1-.379.095h-11.627v12.384h13.748c.133 0 .265.038.379.114s.208.17.303.34c.094.133.151.342.19.588.037.227.056.53.056.89M372.412 208.142c0 .34-.019.643-.056.89a2 2 0 0 1-.17.587.68.68 0 0 1-.304.34.7.7 0 0 1-.379.114h-9.752v30.033a.8.8 0 0 1-.095.38c-.075.113-.208.188-.378.245-.19.076-.417.133-.72.17a9 9 0 0 1-1.098.058c-.436 0-.796-.02-1.099-.057a3 3 0 0 1-.738-.17c-.17-.057-.303-.133-.36-.247a.64.64 0 0 1-.114-.379v-30.033h-9.752a.7.7 0 0 1-.379-.114.74.74 0 0 1-.284-.34 2 2 0 0 1-.17-.587 6 6 0 0 1-.076-.89c0-.341.038-.644.076-.89.038-.266.094-.474.17-.644a.86.86 0 0 1 .284-.341.7.7 0 0 1 .379-.114h24.106c.133 0 .265.038.38.114.132.076.226.19.302.34.076.171.133.38.17.645.038.246.057.549.057.89M146.227 260.509c0 .322-.019.606-.057.833a1.5 1.5 0 0 1-.17.587c-.095.132-.19.246-.303.322a.8.8 0 0 1-.341.094h-12.1v11.23h11.437c.114 0 .227.019.341.095a.85.85 0 0 1 .303.284c.076.132.133.322.17.549s.057.53.057.89c0 .322-.019.587-.056.833a1.7 1.7 0 0 1-.17.55c-.096.15-.19.264-.304.34a.6.6 0 0 1-.34.114h-11.438v13.748a.6.6 0 0 1-.095.34.67.67 0 0 1-.36.265c-.17.057-.379.095-.663.152a8 8 0 0 1-1.06.057c-.417 0-.758-.02-1.06-.057-.285-.057-.512-.095-.682-.152a.67.67 0 0 1-.36-.265.6.6 0 0 1-.095-.34v-30.564c0-.663.17-1.136.511-1.401.36-.265.72-.398 1.118-.398h14.846q.17 0 .34.114c.114.056.21.17.304.322.076.151.151.36.17.606q.057.369.057.852M179.47 275.056c0-1.875-.17-3.617-.492-5.227-.34-1.59-.89-2.992-1.666-4.185a8.06 8.06 0 0 0-3.087-2.765c-1.288-.662-2.897-.984-4.791-.984-1.913 0-3.503.36-4.791 1.06-1.288.72-2.348 1.667-3.162 2.86-.796 1.193-1.383 2.575-1.724 4.166-.36 1.61-.53 3.276-.53 5.018 0 1.95.17 3.73.492 5.359.322 1.647.872 3.049 1.629 4.223.757 1.193 1.78 2.102 3.068 2.764 1.287.644 2.897.985 4.829.985s3.54-.36 4.847-1.08c1.307-.719 2.367-1.685 3.163-2.897s1.363-2.613 1.704-4.222c.341-1.591.511-3.295.511-5.075m4.64-.303c0 2.67-.303 5.075-.947 7.214-.625 2.14-1.553 3.977-2.821 5.473-1.231 1.515-2.803 2.67-4.697 3.484-1.893.796-4.09 1.212-6.609 1.212-2.48 0-4.64-.378-6.438-1.117-1.818-.738-3.314-1.818-4.507-3.238-1.174-1.401-2.064-3.162-2.632-5.245-.587-2.102-.871-4.507-.871-7.215 0-2.613.322-4.98.946-7.101.625-2.121 1.572-3.94 2.822-5.435 1.269-1.477 2.84-2.632 4.734-3.447 1.894-.795 4.09-1.193 6.61-1.193 2.423 0 4.544.36 6.343 1.08 1.818.738 3.314 1.799 4.507 3.219 1.212 1.401 2.102 3.124 2.689 5.207.587 2.065.87 4.432.87 7.102M218.1 275.056c0-1.875-.171-3.617-.493-5.227-.34-1.59-.89-2.992-1.666-4.185a8.06 8.06 0 0 0-3.087-2.765c-1.288-.662-2.897-.984-4.791-.984-1.913 0-3.503.36-4.791 1.06a9 9 0 0 0-3.162 2.86c-.796 1.193-1.383 2.575-1.724 4.166-.34 1.61-.53 3.276-.53 5.018 0 1.95.17 3.73.492 5.359.322 1.647.871 3.049 1.629 4.223.757 1.193 1.78 2.102 3.068 2.764 1.287.644 2.897.985 4.829.985s3.54-.36 4.847-1.08c1.307-.719 2.367-1.685 3.163-2.897s1.363-2.613 1.704-4.222c.34-1.591.511-3.295.511-5.075m4.64-.303c0 2.67-.303 5.075-.947 7.214-.625 2.14-1.553 3.977-2.803 5.473-1.25 1.515-2.821 2.67-4.715 3.484-1.894.796-4.09 1.212-6.609 1.212-2.48 0-4.64-.378-6.438-1.117-1.818-.738-3.314-1.818-4.507-3.238-1.174-1.401-2.064-3.162-2.632-5.245-.587-2.102-.871-4.507-.871-7.215 0-2.613.321-4.98.946-7.101s1.572-3.94 2.822-5.435c1.269-1.477 2.84-2.632 4.734-3.447 1.894-.795 4.09-1.193 6.609-1.193 2.424 0 4.545.36 6.344 1.08 1.818.738 3.314 1.799 4.507 3.219 1.212 1.401 2.102 3.124 2.689 5.207.587 2.065.87 4.432.87 7.102M253.003 260.509c0 .322-.018.606-.056.833a1.6 1.6 0 0 1-.152.587c-.095.132-.17.246-.284.322a.9.9 0 0 1-.379.094h-9.279v28.632a.6.6 0 0 1-.113.36c-.057.095-.19.19-.36.246-.17.057-.398.095-.663.152a8 8 0 0 1-1.06.057c-.417 0-.758-.02-1.06-.057-.285-.057-.512-.095-.682-.152a.76.76 0 0 1-.36-.246.7.7 0 0 1-.095-.36v-28.632h-9.298a.8.8 0 0 1-.36-.094.74.74 0 0 1-.265-.322 2 2 0 0 1-.17-.587 5 5 0 0 1-.057-.833q0-.483.057-.853a2.1 2.1 0 0 1 .17-.605.57.57 0 0 1 .265-.322.62.62 0 0 1 .36-.114h22.97c.133 0 .265.038.379.114.114.056.19.17.284.322.076.151.133.36.152.605q.056.37.056.853M278.949 282.43c0-.985-.152-1.856-.474-2.614a5 5 0 0 0-1.363-1.874c-.606-.512-1.364-.91-2.273-1.174-.909-.247-2.045-.38-3.427-.38h-5.246v11.628h6.363c1.004 0 1.875-.114 2.632-.36a5.7 5.7 0 0 0 1.97-1.06c.568-.455 1.003-1.042 1.325-1.743.322-.7.493-1.496.493-2.423m-1.989-15.036q0-1.193-.34-2.159a3.84 3.84 0 0 0-1.042-1.647c-.474-.455-1.08-.796-1.856-1.042-.757-.227-1.78-.36-3.03-.36h-4.526v10.7h4.98c1.137 0 2.065-.152 2.765-.455a4.9 4.9 0 0 0 1.724-1.193 4.5 4.5 0 0 0 1.003-1.761 7 7 0 0 0 .322-2.083m6.61 14.77c0 1.042-.133 2.008-.399 2.879-.265.87-.625 1.666-1.117 2.367a8 8 0 0 1-1.723 1.837c-.663.53-1.42.965-2.272 1.325-.834.36-1.743.625-2.69.796-.965.189-2.064.265-3.313.265h-8.617c-.397 0-.776-.133-1.117-.379-.34-.265-.53-.739-.53-1.401v-29.447c0-.662.19-1.136.53-1.382.341-.265.72-.398 1.117-.398h7.5c1.969 0 3.578.19 4.847.55 1.25.378 2.31.927 3.144 1.647.852.7 1.477 1.59 1.912 2.613q.625 1.563.625 3.522c0 .796-.095 1.534-.265 2.254a7.3 7.3 0 0 1-.833 1.97 7.1 7.1 0 0 1-1.383 1.628 7.4 7.4 0 0 1-1.893 1.174 7.9 7.9 0 0 1 2.518.928 7.5 7.5 0 0 1 2.045 1.723c.606.7 1.06 1.515 1.402 2.443.34.947.511 1.97.511 3.086M304.257 263.008h-.019l-5.7 16.456h11.476zm14.222 27.08c.132.378.208.681.208.908 0 .228-.057.398-.19.512q-.198.198-.681.227c-.303.038-.738.057-1.25.057-.53 0-.947-.02-1.269-.038-.321-.02-.549-.057-.72-.133-.15-.056-.283-.132-.359-.227a2 2 0 0 1-.208-.398l-2.84-8.029h-13.73l-2.708 7.935a1 1 0 0 1-.208.397.8.8 0 0 1-.36.284c-.17.076-.398.133-.682.152a10 10 0 0 1-1.174.057c-.492 0-.89-.02-1.212-.057-.303-.038-.53-.133-.662-.246-.114-.114-.19-.284-.17-.53 0-.228.075-.53.207-.89l11.078-30.678c.076-.189.152-.34.266-.473a1.1 1.1 0 0 1 .492-.265c.208-.076.492-.114.814-.152a22 22 0 0 1 2.613 0c.36.038.644.076.872.152q.34.085.51.284c.114.132.21.284.285.473zM345.132 289.73q0 .51-.057.852a1.34 1.34 0 0 1-.17.587c-.076.17-.152.284-.265.36a.7.7 0 0 1-.398.113h-14.6c-.398 0-.757-.132-1.117-.398-.341-.265-.512-.72-.512-1.382V259.28c0-.133.02-.247.095-.36a.74.74 0 0 1 .36-.227c.17-.076.398-.114.682-.17a9 9 0 0 1 1.06-.058c.417 0 .777.02 1.06.057.266.057.493.095.663.17.17.057.303.133.36.228a.6.6 0 0 1 .095.36v28.556h11.854a.7.7 0 0 1 .398.114c.113.075.19.189.265.34.095.133.151.341.17.568.038.247.057.53.057.872M371.128 289.73q0 .51-.056.852a1.34 1.34 0 0 1-.17.587c-.076.17-.152.284-.266.36a.7.7 0 0 1-.398.113h-14.6c-.397 0-.757-.132-1.117-.398-.34-.265-.511-.72-.511-1.382V259.28c0-.133.019-.247.094-.36a.74.74 0 0 1 .36-.227c.17-.076.398-.114.682-.17a9 9 0 0 1 1.06-.058c.417 0 .777.02 1.06.057.266.057.493.095.664.17.17.057.303.133.36.228a.6.6 0 0 1 .094.36v28.556h11.854a.7.7 0 0 1 .398.114c.114.075.19.189.265.34.095.133.152.341.17.568.039.247.057.53.057.872" style="fill:#f5ee31;fill-opacity:1;fill-rule:nonzero;stroke:none;stroke-width:18.9367"></path></g><g style="stroke-width:1.00001"><path d="M126.043 153.527c0-2.86-.228-5.454-.682-7.802-.436-2.33-1.212-4.337-2.292-6.003a10.86 10.86 0 0 0-4.298-3.863c-1.8-.909-4.034-1.382-6.723-1.382-2.727 0-4.999.51-6.817 1.552-1.818 1.023-3.295 2.386-4.412 4.09-1.117 1.705-1.913 3.712-2.367 5.985-.474 2.29-.7 4.715-.7 7.252q0 4.46.68 8.01.654 3.552 2.273 6.08c1.06 1.684 2.48 2.953 4.28 3.843 1.799.871 4.052 1.326 6.76 1.326 2.727 0 5-.512 6.818-1.515a12.15 12.15 0 0 0 4.412-4.128c1.117-1.742 1.912-3.75 2.367-6.079.473-2.31.7-4.753.7-7.366m11.609-.587c0 4.507-.568 8.54-1.686 12.1s-2.783 6.59-4.999 9.07-4.961 4.356-8.218 5.663c-3.277 1.306-7.045 1.97-11.325 1.97-4.241 0-7.934-.569-11.078-1.667-3.162-1.118-5.794-2.803-7.877-5.075-2.121-2.273-3.693-5.151-4.734-8.654q-1.59-5.255-1.591-12.442c0-4.393.568-8.35 1.685-11.873 1.118-3.522 2.803-6.514 5-8.976 2.215-2.461 4.961-4.355 8.218-5.68 3.276-1.307 7.063-1.97 11.381-1.97q6.164 0 10.908 1.647c3.143 1.08 5.775 2.765 7.896 5.038 2.121 2.272 3.712 5.131 4.791 8.597s1.629 7.537 1.629 12.252M173.038 142.43c0-1.799-.398-3.295-1.212-4.545-.815-1.23-2.16-2.102-3.996-2.594a12.4 12.4 0 0 0-1.913-.341c-.72-.095-1.704-.133-2.973-.133h-4.961v15.434h5.643c1.572 0 2.935-.19 4.11-.568 1.192-.38 2.158-.91 2.953-1.591a6.85 6.85 0 0 0 1.762-2.462c.397-.966.587-2.026.587-3.2m14.24 36.907c0 .303-.057.568-.151.777-.114.208-.38.378-.815.53-.416.132-1.022.227-1.837.284a50 50 0 0 1-3.332.095 36 36 0 0 1-2.803-.095c-.7-.057-1.269-.152-1.667-.303-.397-.17-.7-.36-.87-.587a4.1 4.1 0 0 1-.417-.871l-4.867-12.139a58 58 0 0 0-1.723-3.673q-.852-1.59-1.875-2.67a6.9 6.9 0 0 0-2.367-1.61c-.909-.36-1.932-.549-3.125-.549h-3.446v20.735c0 .266-.076.53-.265.758-.19.208-.492.398-.91.53-.416.152-.984.265-1.684.341-.701.095-1.591.133-2.69.133-1.06 0-1.95-.038-2.67-.133q-1.05-.115-1.704-.34c-.416-.133-.7-.323-.87-.531a1.25 1.25 0 0 1-.247-.758v-49.405c0-1.23.303-2.12.928-2.67.644-.53 1.42-.814 2.348-.814h14.07c1.44 0 2.613.038 3.541.094.928.057 1.761.114 2.519.209q3.266.454 5.908 1.59c1.742.758 3.238 1.743 4.45 2.973a12.3 12.3 0 0 1 2.803 4.318q.965 2.5.965 5.738c0 1.818-.227 3.484-.7 4.98a12.7 12.7 0 0 1-2.026 4.015 13.6 13.6 0 0 1-3.333 3.067q-1.989 1.307-4.488 2.102c.795.398 1.571.871 2.291 1.44.7.549 1.382 1.23 2.007 2.026s1.231 1.704 1.8 2.745a38 38 0 0 1 1.628 3.466l4.583 10.718c.416 1.06.7 1.837.833 2.33.151.491.208.87.208 1.154M225.286 176.143c0 .833-.038 1.552-.114 2.12a6.4 6.4 0 0 1-.303 1.44c-.151.378-.322.644-.53.814s-.455.246-.739.246h-24.92c-.928 0-1.705-.265-2.33-.814-.643-.55-.946-1.44-.946-2.67v-49.387c0-.284.094-.53.265-.757.19-.227.492-.417.909-.55q.625-.198 1.704-.34c.72-.076 1.59-.133 2.67-.133 1.099 0 1.989.057 2.69.133.7.095 1.249.208 1.685.34.416.133.72.323.89.55.189.227.284.473.284.757v43.763h17.1c.283 0 .53.056.738.227.208.151.379.398.53.757.133.341.246.815.303 1.383.076.568.114 1.287.114 2.12M264.04 176.436q0 1.221-.114 2.045c-.057.55-.17.985-.303 1.326-.151.322-.322.568-.53.72-.208.17-.436.246-.7.246h-27.307c-.928 0-1.705-.284-2.349-.834-.625-.53-.946-1.439-.946-2.67v-47.398c0-1.25.321-2.12.946-2.67.644-.549 1.42-.833 2.349-.833h27.155c.246 0 .473.076.662.208q.284.228.512.739c.132.36.246.795.303 1.344.076.55.113 1.25.113 2.083 0 .796-.038 1.458-.113 2.008-.057.53-.17.984-.303 1.325-.152.322-.322.568-.512.72a.96.96 0 0 1-.662.246h-19.43v13.274h16.438c.246 0 .473.076.7.228.209.151.38.397.512.72.151.321.246.757.322 1.306q.113.824.113 1.988c0 .814-.038 1.496-.113 2.026s-.17.947-.322 1.27c-.133.34-.303.567-.512.7a1.37 1.37 0 0 1-.7.208h-16.437V172.1h19.58c.265 0 .493.075.7.246.21.151.38.398.531.72.133.34.246.776.303 1.325q.114.824.114 2.045M292.331 136.757h-.038l-7.688 23.121h15.414zm24.959 39.899c.34 1.003.549 1.799.643 2.386.076.587-.037 1.022-.34 1.325s-.853.474-1.648.55c-.776.075-1.856.094-3.22.094q-2.158 0-3.35-.057c-.796-.037-1.402-.132-1.838-.246-.416-.132-.7-.303-.87-.53s-.304-.511-.417-.89l-3.655-10.926h-20.433l-3.446 10.642c-.114.379-.266.72-.455.985-.17.265-.473.473-.871.625-.417.151-.985.265-1.723.321-.739.057-1.723.076-2.916.076-1.288 0-2.31-.038-3.03-.113-.739-.095-1.231-.285-1.515-.606-.284-.322-.379-.796-.303-1.383.094-.587.303-1.363.644-2.348l16.759-48.25c.17-.474.36-.871.587-1.155q.34-.454 1.079-.682t2.045-.284a77 77 0 0 1 3.447-.076c1.647 0 2.954.038 3.938.076.985.038 1.743.132 2.292.284s.947.398 1.174.7q.369.456.625 1.25zM369.756 176.898c0 .644-.114 1.212-.341 1.723a3.7 3.7 0 0 1-.91 1.27 3.5 3.5 0 0 1-1.344.719 5 5 0 0 1-1.572.246h-4.696c-.985 0-1.837-.114-2.556-.303-.7-.19-1.364-.55-1.97-1.06-.606-.53-1.174-1.231-1.742-2.102-.568-.89-1.193-2.027-1.894-3.428l-13.54-25.432a135 135 0 0 1-2.385-4.904 82 82 0 0 1-2.197-5.113h-.076c.114 2.026.19 4.033.247 6.04.056 2.008.094 4.072.094 6.193v28.461c0 .284-.075.53-.246.758q-.227.341-.795.568c-.379.151-.89.265-1.534.36a22 22 0 0 1-2.48.132c-.986 0-1.78-.056-2.425-.132-.662-.095-1.155-.209-1.515-.36-.378-.151-.625-.34-.757-.568-.152-.227-.208-.474-.208-.758v-48.875c0-1.325.378-2.31 1.155-2.973.757-.663 1.704-.984 2.821-.984h5.927c1.08 0 1.97.094 2.708.265a6 6 0 0 1 1.95.909c.569.416 1.1 1.003 1.61 1.742.512.738 1.023 1.666 1.553 2.764l10.605 19.884a305 305 0 0 0 1.818 3.541c.606 1.174 1.193 2.33 1.742 3.484.568 1.174 1.117 2.31 1.647 3.428s1.042 2.253 1.553 3.37h.038c-.076-1.969-.151-4.014-.19-6.135-.037-2.14-.056-4.166-.056-6.097v-25.527c0-.265.076-.53.246-.738.17-.228.455-.436.852-.606.379-.152.91-.284 1.553-.341.644-.076 1.458-.114 2.48-.114q1.421 0 2.387.114c.644.057 1.136.19 1.496.34.34.171.606.38.738.607.133.208.209.473.209.738zM413.85 164.455c0 2.86-.53 5.359-1.591 7.518-1.08 2.159-2.519 3.958-4.337 5.416-1.818 1.439-3.957 2.518-6.381 3.257-2.443.72-5.056 1.08-7.821 1.08-1.875 0-3.636-.152-5.246-.455s-3.03-.682-4.26-1.118c-1.231-.435-2.254-.89-3.087-1.363s-1.42-.89-1.78-1.269c-.379-.36-.625-.89-.776-1.572-.17-.681-.247-1.666-.247-2.954 0-.87.038-1.61.095-2.196s.152-1.06.265-1.42c.133-.36.303-.625.511-.777.209-.151.455-.246.739-.246.379 0 .947.246 1.648.7.72.474 1.647.985 2.764 1.534 1.118.569 2.462 1.08 4.015 1.534 1.553.474 3.352.7 5.397.7 1.344 0 2.556-.17 3.617-.491 1.06-.322 1.97-.777 2.708-1.364a5.8 5.8 0 0 0 1.704-2.178c.398-.87.587-1.836.587-2.897 0-1.25-.34-2.291-1.004-3.181-.681-.89-1.552-1.667-2.632-2.348-1.08-.7-2.31-1.345-3.674-1.932a193 193 0 0 1-4.241-1.931 36 36 0 0 1-4.261-2.292 17.3 17.3 0 0 1-3.674-3.067c-1.08-1.174-1.95-2.595-2.632-4.223-.663-1.61-1.004-3.56-1.004-5.833 0-2.613.493-4.904 1.458-6.874.966-1.969 2.273-3.617 3.901-4.923 1.648-1.307 3.58-2.273 5.814-2.916 2.216-.644 4.583-.966 7.082-.966q1.932 0 3.863.284c1.288.208 2.481.473 3.617.814 1.118.322 2.102.7 2.973 1.136.871.417 1.458.758 1.724 1.042.284.284.473.511.568.72.094.189.189.454.246.776.076.322.132.72.151 1.212a29.009 29.009 0 0 1-.019 3.882 7.6 7.6 0 0 1-.208 1.401c-.095.36-.246.625-.417.795-.189.17-.435.247-.738.247s-.795-.19-1.477-.587c-.663-.398-1.496-.815-2.48-1.27-.967-.473-2.103-.89-3.39-1.268-1.288-.379-2.709-.568-4.242-.568-1.212 0-2.273.151-3.163.436-.89.303-1.647.7-2.253 1.23a4.8 4.8 0 0 0-1.345 1.856 6.4 6.4 0 0 0-.435 2.33c0 1.192.322 2.234.984 3.124.663.871 1.534 1.666 2.652 2.348a27 27 0 0 0 3.768 1.932c1.382.606 2.821 1.25 4.28 1.912a44 44 0 0 1 4.28 2.291 17.3 17.3 0 0 1 3.749 3.068c1.098 1.193 1.97 2.594 2.65 4.204.664 1.61 1.005 3.522 1.005 5.7" style="fill:#f5ee31;fill-opacity:1;fill-rule:nonzero;stroke:none;stroke-width:18.9367"></path><path d="M398.572 125.432a195 195 0 0 1 5.17 9.761q.845.315 1.567.668c.984.455 1.817.87 2.48 1.268.682.398 1.176.588 1.479.588s.549-.076.738-.246c.17-.17.321-.435.416-.795s.171-.834.209-1.403c.038-.549.076-1.23.076-2.044 0-.739-.02-1.344-.059-1.836a6.4 6.4 0 0 0-.15-1.213 2.9 2.9 0 0 0-.246-.776c-.095-.208-.284-.436-.568-.72-.266-.284-.852-.625-1.723-1.041a17.4 17.4 0 0 0-2.975-1.137 28 28 0 0 0-3.615-.815 27 27 0 0 0-2.799-.26" style="fill:#e0be05;fill-opacity:1;fill-rule:nonzero;stroke:none;stroke-width:18.9367"></path></g></g></g><!-- source: https://football-logos.cc --></svg>