<svg xmlns="http://www.w3.org/2000/svg" viewBox="29.07 183.77 729.74 729.74"><!-- Source: https://football-logos.cc --><path d="M569.61 429.906c0-151.133-122.52-273.653-273.654-273.653S22.3 278.773 22.3 429.906c0 151.135 122.52 273.655 273.655 273.655 151.133 0 273.653-122.52 273.653-273.655" style="fill:#016d3a;fill-opacity:1;fill-rule:nonzero;stroke:none" transform="matrix(1.33333 0 0 -1.33333 -.667 1121.853)" data-source="https://football-logos.cc"></path><path d="M107.927 241.88c-50.224 50.224-77.884 116.999-77.884 188.026s27.66 137.804 77.884 188.029 117 77.884 188.029 77.884c71.027 0 137.803-27.66 188.027-77.884 50.225-50.225 77.885-117 77.885-188.029 0-71.027-27.66-137.802-77.885-188.026-50.224-50.225-117-77.884-188.027-77.884-71.028 0-137.804 27.659-188.029 77.884" style="fill:#fff;fill-opacity:1;fill-rule:nonzero;stroke:none" transform="matrix(1.33333 0 0 -1.33333 -.667 1121.853)"></path><path d="M197.95 274.248c26.705 23.087 60.826 36.936 98.006 36.936 37.19 0 71.32-13.858 98.03-36.957l.265-.09a185 185 0 0 1 19.463 14.164l-.012.319c-13.697 32.526-16.32 69.25-4.834 104.6 11.501 35.4 35.256 63.593 65.513 81.855l.146.067a183 183 0 0 1-7.489 23.076l-.232.02c-35.198-2.998-70.97 5.851-101.068 27.718-30.107 21.875-49.58 53.172-57.6 87.585l-.036.14q-6.024.392-12.146.394-6.158-.001-12.216-.399l.014-.206c-8.03-34.386-27.497-65.656-57.583-87.514-30.087-21.86-65.843-30.71-101.028-27.721l-.266-.003a183 183 0 0 1-7.511-23.162l.236-.04c30.222-18.263 53.948-46.44 65.44-81.81 11.495-35.377 8.86-72.126-4.862-104.67l-.061-.183a185 185 0 0 1 19.648-14.297z" style="fill:#fff;fill-opacity:1;fill-rule:nonzero;stroke:none" transform="matrix(1.33333 0 0 -1.33333 -.667 1121.853)"></path><path d="M402.653 429.906c0-58.926-47.77-106.695-106.697-106.695S189.258 370.98 189.258 429.906c0 58.928 47.77 106.698 106.698 106.698s106.697-47.77 106.697-106.698" style="fill:#016d3a;fill-opacity:1;fill-rule:nonzero;stroke:none" transform="matrix(1.33333 0 0 -1.33333 -.667 1121.853)"></path><path d="M204.742 429.906c0 50.297 40.918 91.215 91.214 91.215s91.213-40.918 91.213-91.215c0-50.294-40.918-91.211-91.213-91.211-50.296 0-91.214 40.917-91.214 91.211m91.214-98.953c54.564 0 98.955 44.39 98.955 98.953 0 54.565-44.391 98.956-98.955 98.956S197 484.471 197 429.906c0-54.563 44.391-98.953 98.956-98.953" style="fill:#fff;fill-opacity:1;fill-rule:nonzero;stroke:none" transform="matrix(1.33333 0 0 -1.33333 -.667 1121.853)"></path><path d="M291.42 386.575h-18.903v-27.787h6.44v11.385h11.214v5.53h-11.213v5.343h12.978v5.53zM298.702 383.171c-2.386-2.55-3.596-6.16-3.596-10.727 0-4.327 1.204-7.796 3.577-10.31 2.38-2.522 5.459-3.801 9.148-3.801 2.979 0 5.48.752 7.432 2.236 1.953 1.485 3.366 3.77 4.197 6.796l.131.48-6.244 1.967-.125-.544c-.426-1.848-1.122-3.21-2.07-4.05-.947-.835-2.049-1.242-3.37-1.242-1.807 0-3.234.645-4.359 1.972-1.132 1.334-1.706 3.655-1.706 6.898 0 3.046.583 5.26 1.731 6.582 1.146 1.318 2.602 1.96 4.45 1.96 1.33 0 2.426-.36 3.348-1.095s1.51-1.717 1.804-3.002l.116-.505 6.384 1.493-.149.52c-.632 2.23-1.604 3.972-2.885 5.18-2.138 2.025-4.947 3.052-8.347 3.052-3.886 0-7.072-1.3-9.467-3.86" style="fill:#fff;fill-opacity:1;fill-rule:nonzero;stroke:none" transform="matrix(1.33333 0 0 -1.33333 -.667 1121.853)" data-source="https://football-logos.cc"></path><path d="m129.486 292.1-5.375 6.259 5.42 4.654.83-.966c5.019-5.844 9.579-4.326 12.196-2.72l4.664-5.429-36.2-31.09-6.64 7.732zM133.172 256.284c-.862-.947-1.635-1.975-1.912-3s-.012-1.994.84-2.77c2.511-2.288 5.18-.709 12.262 7.063l-.09.082c-2.938-1.244-5.774-.393-8.464 2.059-4.843 4.411-4.854 9.984 2.363 17.905 6.4 7.025 13.729 11.016 22.114 3.376 9.372-8.538 4.456-16.186-5.167-26.748-10.712-11.758-17.875-18.088-28.143-8.733-5.695 5.188-6.742 10.975-1.067 17.384zm18.864 10.257c3.768 4.135 5.545 7.257 3.348 9.26-2.152 1.96-4.868.24-8.364-3.596-3.903-4.285-5.225-6.637-2.848-8.802 2.242-2.042 4.96-.05 7.864 3.138M450.81 276.801l-1.168 1.02q-10.81 9.447-1.709 19.86c6.866 7.857 13.157 6.145 18.79 1.222 5.38-4.701 6.452-7.571 7.202-15.316.595-6.08.752-10.406 2.104-12.956l10.02 11.464 6.597-5.766-18.043-20.645c-8.476 7.407-9.468 16.411-9.803 21.457-.65 10.317-2.042 11.693-4.732 14.045-2.841 2.483-5.159 3.622-7.075 1.43-2.555-2.924 1.302-6.295 4.043-8.69zM131.693 513.274c26.3 51.717 76.305 89.353 135.706 98.6l-.346-1.128c-8.218-29.017-25.514-54.487-49.983-72.264-24.44-17.757-53.925-26.336-83.99-25.222zM165.888 299.523c-33.421 33.34-54.1 79.447-54.1 130.383 0 9.837.77 19.492 2.255 28.911l1.017-.531c25.044-16.782 43.914-41.096 53.256-69.851 9.308-28.644 8.39-59.237-1.87-87.414zM212.127 265.88c25.145-12.875 53.64-20.14 83.829-20.14 30.2 0 58.703 7.27 83.853 20.155l-.538.415c-23.768 18.841-52.874 29.39-83.315 29.39-30.269 0-59.255-10.454-82.97-29.127zM425.64 300.575c-10.415 28.31-11.395 59.09-2.046 87.86 9.312 28.66 28.051 52.881 52.934 69.647l1.317.873a185.6 185.6 0 0 0 2.278-29.049c0-50.956-20.696-97.08-54.14-130.423z" style="fill:#016d3a;fill-opacity:1;fill-rule:nonzero;stroke:none" transform="matrix(1.33333 0 0 -1.33333 -.667 1121.853)"></path><path d="M125.143 498.235c35.185-2.99 70.94 5.861 101.028 27.72 30.086 21.86 49.553 53.13 57.583 87.515l-.014.206q-4.05-.266-8.052-.704l-.233-.815c-8.249-32.122-26.949-60.405-53.834-79.938-26.896-19.54-59.535-28.583-92.606-26.51l-.94.031a183 183 0 0 1-3.198-7.509zM178.119 288.367a185 185 0 0 0-6.17 5.377l.275.686c12.238 30.847 13.743 64.735 3.456 96.397-10.275 31.622-31.411 58.157-59.432 75.929l-.673.488q.812 3.944 1.79 7.826l.237-.04c30.222-18.263 53.948-46.441 65.44-81.81 11.495-35.377 8.86-72.126-4.862-104.67zM393.985 274.227c-26.708 23.1-60.839 36.957-98.03 36.957-37.179 0-71.3-13.849-98.004-36.936l-.184-.178a184 184 0 0 1 6.928-4.165l.647.449c25.568 21.176 57.349 33.088 90.614 33.088 33.274 0 65.021-11.89 90.57-33.042l.606-.543a185 185 0 0 1 7.119 4.28zM413.702 288.62c-13.697 32.526-16.32 69.25-4.834 104.6 11.501 35.4 35.256 63.593 65.513 81.855l.146.067a184 184 0 0 0 1.83-8.003l-.616-.322c-28.06-17.762-49.216-44.306-59.51-75.989-10.284-31.651-8.77-65.575 3.485-96.445l.25-.636a186 186 0 0 0-6.252-5.446zM308.138 613.542c8.02-34.414 27.493-65.711 57.6-87.585 30.098-21.868 65.87-30.717 101.068-27.718l.232-.02a183 183 0 0 1-3.204 7.524l-.787-.015c-33.132-2.104-65.846 6.94-92.758 26.492-26.833 19.495-45.495 47.657-53.771 79.657l-.216 1.086a185 185 0 0 1-8.2.717z" style="fill:#016d3a;fill-opacity:1;fill-rule:nonzero;stroke:none" transform="matrix(1.33333 0 0 -1.33333 -.667 1121.853)"></path><path d="M324.91 610.522c8.236-28.918 25.501-54.291 49.93-72.039 24.462-17.773 54.024-26.354 84.153-25.207h1.224c-26.3 51.716-76.305 89.351-135.705 98.598zM314.841 658.936a6.636 6.636 0 1 0-11.664-6.333 6.636 6.636 0 0 0 11.664 6.333M280.494 630.837l-12.47-1.94-9.418 17.46 2.875-18.478-11.024-1.716-7.266 46.686 11.025 1.716 2.512-16.142 2.184 12.138q.964 5.114 6.686 6.006 3.55.55 5.405.44l.973-6.246q-3.012-.47-3.665-3.84l-2.183-11.742zM373.057 616.094l-11.643 3.82.017 26.488-7.847-23.92-9.411 3.087 14.728 44.894 12.886-4.227-.131-22.635 6.717 20.475 9.41-3.088zM400.75 601.748l-20.503 10.911 22.197 41.71 20.37-10.84-2.835-5.327-9.816 5.224-6.045-11.357 8.853-4.712-2.675-5.025-8.852 4.712-7.81-14.674 9.95-5.295zM449.683 617.304l-8.31 6.187-7.683-10.32 7.43-5.53-3.4-4.566-7.43 5.531-13.53-18.172-9.588 7.139 28.216 37.897 17.898-13.326zM477.569 590.5l-4.669 4.755-29.41-28.873-8.374 8.53 29.41 28.874-4.67 4.755 4.307 4.227 17.712-18.041zM213.957 613.979l-15.94 44.478 9.324 3.342 7.27-20.285-.125 22.845 12.039 4.315 15.94-44.478-9.324-3.342-8.493 23.698.812-26.45zM206.684 611.125l-8.96-5.643-14.134 22.445 8.858-25.767-6.98-4.395-20.182 18.634 14.134-22.444-7.9-4.975-25.178 39.98 13.015 8.197 17.695-17.826-9.041 23.275 13.495 8.5zM144.102 562.288l-33.189 33.628 7.049 6.958 15.137-15.336-9.734 20.668 9.102 8.983 33.189-33.628-7.05-6.958-17.683 17.917 11.875-23.648zM459.611 560.372l25.03 17.46q7.565 5.278 15.371-5.911 7.698-11.034.187-16.274l-25.03-17.461q-3.391-2.364-7.367-.566-3.975 1.8-7.424 6.744-7.762 11.128-.767 16.008m8.357-13.05 26.604 18.558q1.17.818.085 2.374-1.13 1.62-2.3.801l-26.603-18.558q-1.173-.817-.044-2.434 1.086-1.559 2.258-.74M511.417 516.079l-4.582 9.797 8.446 3.95q1.04.486.334 1.999-.74 1.582-1.79 1.09l-29.868-13.97q-1.053-.49-.311-2.073.706-1.511 1.756-1.02l10.605 4.959 4.581-9.797-10.835-5.067q-3.037-1.42-6.474 1.162-3.439 2.58-5.464 6.912-5.852 12.513 1.874 16.126l27.643 12.93q8.356 3.907 14.209-8.604 5.24-11.207-2.351-14.759zM139.393 556.991l-7.179-10.579-15.626 4.022 9.7-12.755-6.393-9.421-16.96 22.828-20.793 5.68 6.448 9.504 13.726-4.183-8.681 11.616 6.023 8.876 13.527-19.027zM493.41 469.544l-3.134 11.537 21.864 5.939-.866 3.186-21.863-5.94-3.134 11.537 45.596 12.385 3.133-11.536-18.238-4.954.865-3.186 18.239 4.954 3.133-11.536zM97.792 498.513l-28.028 12.074q-8.472 3.65-3.074 16.18 5.323 12.356 13.734 8.732l28.028-12.075q3.796-1.636 4.362-5.962.564-4.328-1.82-9.864-5.37-12.46-13.203-9.085m6.689 13.978-29.79 12.834q-1.311.564-2.063-1.179-.78-1.812.532-2.376l29.79-12.834q1.311-.567 2.092 1.247.75 1.741-.561 2.308M495.966 449.769l-1.522 11.856 46.862 6.02 1.524-11.857zM495.785 400.467l.446 10.578 26.5-1.118-26.237 7.348.348 8.242 26.802 6.022-26.5 1.119.393 9.327 47.206-1.992-.649-15.368-24.722-4.434 24.291-5.783-.672-15.934zM491.035 381.364l2.526 11.684 46.18-9.982-2.525-11.684zM62.568 496.435l-1.555-6.48 40.075-9.62-2.79-11.624-40.075 9.62-1.556-6.48-5.867 1.408 5.901 24.584zM509.21 338.417l3.698 10.164 8.764-3.187q1.08-.393 1.65 1.175.596 1.642-.492 2.038l-30.988 11.272q-1.09.398-1.687-1.245-.57-1.568.518-1.964l11.001-4.002-3.697-10.164-11.241 4.089q-3.15 1.147-3.75 5.404-.604 4.256 1.032 8.75 4.722 12.983 12.738 10.065l28.679-10.432q8.668-3.153 3.947-16.135-4.23-11.625-12.106-8.762zM87.81 441.92l7.511-.219-.346-11.95-7.511.22q-.445-15.365-16.494-14.9-15.816.46-15.371 15.823l-7.853.227.347 11.95 7.853-.229q.24 8.27 5.018 11.795 4.779 3.526 11.316 3.336 7.2-.21 11.471-4.452 4.272-4.243 4.06-11.602m-7.061-11.754-18.436.534-.003-.077q-.087-2.997 2.474-4.721 2.56-1.728 6.512-1.84 9.27-.27 9.453 6.104m-18.09 12.483 18.436-.535.004.154q.184 6.331-9.084 6.602-3.653.105-6.46-1.551-2.809-1.655-2.897-4.67M95.403 408.722l3.993-22.88-46.544-8.123-3.967 22.73 5.944 1.037 1.912-10.953 12.673 2.212-1.724 9.878 5.608.979 1.724-9.879 16.374 2.858-1.938 11.104zM482.865 314.675a6.636 6.636 0 1 1 13.273 0 6.636 6.636 0 0 1-13.273 0M101.921 375.913l3.977-11.273-21.366-7.537 1.098-3.113 21.367 7.536 3.976-11.273-44.557-15.717-3.977 11.273 17.823 6.287-1.098 3.113-17.823-6.287-3.976 11.274zM109.046 314.675a6.637 6.637 0 1 0-13.274 0 6.637 6.637 0 0 0 13.274 0M201.835 198.737l15.376 44.677 20.86-7.18-1.963-5.706-9.88 3.4-3.706-10.765q8.413-2.895 11.097-5.388 2.685-2.493.928-7.604l-4.259-12.373q-1.321-3.833-4.652-4.97-3.333-1.136-11.563 1.697zm17.753 3.657 3.708 10.773q.807 2.347-2.56 3.508l-.4.137-5.335-15.502q3.757-1.33 4.587 1.084M437.32 269.682c-.876 1.025-1.8 1.92-2.782 2.322-.982.401-1.978.26-2.854-.489-2.582-2.207-1.347-5.053 5.484-13.045l.092.078c-.868 3.07.328 5.778 3.095 8.142 4.98 4.257 10.51 3.575 17.473-4.57 6.175-7.226 9.223-14.994.6-22.363-9.638-8.237-16.615-2.408-25.898 8.454-10.335 12.092-15.725 19.985-5.165 29.011 5.857 5.005 11.728 5.324 17.426-1.155zm14.03-15.67c-3.765 4.406-5.934 6.01-8.377 3.922-2.306-1.971-.668-4.915 2.134-8.194 3.635-4.253 6.512-6.404 8.77-4.473 2.215 1.892.846 4.8-2.526 8.745M186.68 239.454a6.637 6.637 0 1 0-11.666-6.333 6.637 6.637 0 0 0 11.666 6.333M270.36 229.045l-16.309-36.544q-1.964-4.383-4.596-5.701-2.632-1.319-6.957-.445l-7.097 1.435 1.195 5.915q4.065-.823 5.176-.656 1.112.164 1.46 1.895.06.295 0 1.325l-2.334 38.729 10.905-2.203.289-23.142 7.89 21.49zM326.837 230.01l.574-6.007-10.313-.984 3.915-41.027-11.9-1.137-4.489 47.035zM405.23 239.454a6.637 6.637 0 1 1 11.666-6.333 6.637 6.637 0 0 1-11.666 6.333M383.104 229.138l-10.161-3.706-3.195 8.76q-.394 1.08-1.962.509-1.64-.6-1.244-1.688l11.3-30.978q.396-1.09 2.037-.492 1.568.573 1.172 1.66l-4.012 10.998 10.16 3.707 4.1-11.238q1.148-3.148-1.726-6.348-2.872-3.198-7.365-4.837-12.975-4.733-15.9 3.281l-10.456 28.67q-3.161 8.666 9.816 13.4 11.623 4.239 14.495-3.636zM364.556 189.749l-11.67-2.502-4.567 11.945-5.109-1.095.732-12.767-11.67-2.502-1.313 48.04 15.102 3.237zm-18.572 15.696-4.579 13.442 1.409-14.121zM283.228 198.503l-.817-17.4-11.6.544 2.215 47.196 12.514-.587q7.448-.35 10.979-2.164 3.533-1.815 3.296-6.877l-.614-13.09q-.22-4.637-3.259-6.423t-12.714-1.2m4.414 9.033.532 11.358q.117 2.51-3.862 2.696l-.769-16.377q3.98-.186 4.099 2.323" style="fill:#016d3a;fill-opacity:1;fill-rule:nonzero;stroke:none" transform="matrix(1.33333 0 0 -1.33333 -.667 1121.853)"></path><path d="M334.811 402.368v27.413l4.73 5.443-8.584 9.879v-42.747h-18.253l-33.144 36.936v-36.936h-23.666l-28.516 32.868 29.644 32.864v-27.394s-4-4.624-4.73-5.47l8.585-9.889v42.757h18.255l33.142-37.059v37.059l23.665-.001 28.517-32.867z" style="fill:#fff;fill-opacity:1;fill-rule:nonzero;stroke:none" transform="matrix(1.33333 0 0 -1.33333 -.667 1121.853)" data-source="https://football-logos.cc"></path><!-- source: https://football-logos.cc --></svg>