<svg xmlns="http://www.w3.org/2000/svg" xmlns:xlink="http://www.w3.org/1999/xlink" viewBox="0 0 75 107"><!-- Source: https://football-logos.cc --><defs data-source="https://football-logos.cc"><path id="a" d="M0 0h75v107H0z"></path></defs><g fill="none" fill-rule="evenodd" data-source="https://football-logos.cc"><g><mask id="b" fill="#fff"><use xlink:href="#a"></use></mask><path fill="#1D1D1B" d="M62.802 84.25c9.987-14.845 12.473-30.078 12.175-43.667a818 818 0 0 0-.856-23.553s-10.178.704-19.658-3.856C43.24 7.776 37.501 0 37.501 0s-5.74 7.776-16.965 13.174C11.056 17.734.88 17.03.88 17.03S.31 27.57.023 40.583c-.298 13.589 2.188 28.822 12.175 43.668C23.046 100.376 37.498 107 37.498 107s14.455-6.624 25.304-22.75" mask="url(#b)"></path></g><path fill="#FEFEFE" d="M37.499 104.494c-3.15-1.657-14.719-8.363-23.646-21.643C5.887 71 2.002 57.74 2.002 42.372c0-.675.602-19.937.777-23.575 3.936-.16 11.866-.784 19.248-4.337 8.24-3.967 12.984-8.904 15.474-11.657h-.002c2.49 2.753 7.234 7.69 15.473 11.657 7.383 3.553 15.313 4.177 19.249 4.337.175 3.638.777 22.9.777 23.575 0 15.37-3.885 28.63-11.851 40.479-8.928 13.28-20.497 19.986-23.646 21.643z"></path><path fill="#1D1D1B" d="M70.551 40.061c-.133-4.458-.439-14.172-.621-18.99-6.833-.497-12.878-1.979-17.981-4.435-6.783-3.265-11.355-7.185-14.45-10.338-3.093 3.153-7.665 7.073-14.448 10.338-5.103 2.456-11.148 3.938-17.98 4.434-.183 4.82-.49 14.536-.622 18.99l-.002.057h66.104z"></path><path fill="#FEFEFE" d="M41.804 36.968H34.72V23.521h3.05v10.362h4.034zM46.077 33.853v-2.066h5.226v-3.085h-5.227l.001-.03v-2.067h5.226v-3.084h-8.276v13.447h8.276v-3.084H46.08zM64.742 23.569l-2.629 13.326-.016.073h-5.975l-.017-.078-2.634-13.352-.003-.017h3.11l.007.04 2.031 10.293.005.03h.977l.009-.049 2.028-10.28.006-.034h3.11zM32.498 36.912l-2.632-13.34-.01-.051h-6.06l-.006.028-2.631 13.334-.016.085h3.11l.013-.072.594-3.01.008-.043h3.911l.007.02.603 3.058.01.047h3.11zm-4.322-6.153h-2.7l.01-.041.797-4.044.015-.068h1.056l.01.044.805 4.086zM20.334 36.927l-2.975-7.076 2.777-6.3.014-.03h-3.342l-.022.054-2.162 4.904-.013.03h-1.2389999999999999v-4.988h-3.05v13.447h3.05v-5.374h1.405l.011.026 2.232 5.308.018.04h3.315z"></path><path fill="#006DB5" d="M33.618 42.613v56.603l-.003.115a67 67 0 0 1-7.709-6.122l-.049-.048V42.626l.002-.099h7.756zM10.336 71.544V42.527h-5.95l-.002.032c.023 10.682 1.98 20.291 5.95 29.1zM56.903 84.576v-41.98l.002-.069h-7.763V93.16l.044-.035a66.6 66.6 0 0 0 7.717-8.459z"></path><path fill="#1D1D1B" d="M33.618 42.613v56.603l-.003.115a57 57 0 0 0 3.885 2.424 57 57 0 0 0 3.841-2.394l.041-.03V42.526h-7.767zM10.336 71.544V42.527h7.761v42.137l-.03-.04a66.832 66.832 0 0 1-7.732-12.966zM56.903 84.576v-41.98l.002-.069h7.759v29.136l-.018.04a67 67 0 0 1-7.743 12.962z"></path></g><!-- source: https://football-logos.cc --></svg>