<svg xmlns="http://www.w3.org/2000/svg" viewBox="28.71 143.07 537.85 555.75"><!-- Source: https://football-logos.cc --><path d="m179.05 257.798 10.947 1.402-2.053 61.402-10.8-1.122.825-26.722-3.347-3.288-9.344 2.95-.861 25.773-10.8-1.123 1.924-62.281 10.948 1.401-.829 24.797 8.662-2.842 3.996 3.34zM228.028 277.69l-10 8.902 9.318 9.413zm-1.091 29.312-8.968-8.946-.758 25.583-9.638-1.001 1.782-41.387 19.177-17.118 9.168 1.174-1.78 60.316-9.639-1.001zM291.696 272.219l-.374 10.51-9.9 6.828.154-8.922-5.288-.569-7.469 7.584-.05 2.443 21.787 15.444-.966 25.866-34.107-3.747.398-11.028 9.73-6.823-.084 9.085 15.39 1.842.143-8.32-24.401-17.308.458-12.674 12.43-13.046zM334.574 277.708l10.212 1.298-1.635 57.761-10.606-1.102.664-24.894-3.647-3.95-9.457 2.845-.966 24.606-10.798-1.123 2.004-58.542 10.932 1.4-.527 22.139 8.624-2.518 4.464 3.828zM367.815 292.596l-1.69 43.34 9.524 9.225 2.135-51.3 10.353 1.312.124-10.592-30.608-3.918-.266 10.61zM416.515 301.152l-10.524 9.06 10.518 10.613zm.07 30.444-10.466-9.694.437 21.454-9.354-.972-.278-37.137 19.162-17.104 9.223 1.18.141 55.996-8.762-.91zM439.8 291.18l32.442 4.152.076 12.8-10.52 4.84.01-8.903-12.47-1.335.13 25.196 9.637 8.848.178-18.904 13.699 13.687-.003 9-3.862-3.488-.045 12.78-10.455-1.087-18.338-16.418zM171.732 482.146l-1.952 73.11 34.463.326 1.877-71.869-12.007-.547-1.347 60.29H181.78l1.332-60.791zM264.02 486.351l10.45.476-1.202 69.41-10.652-.1.534-26.524-12.79-15.224-1.203 41.62-11.477-.11 1.739-70.669 11.768.536-.287 9.932 12.65 14.09zM304.621 488.201l10.424.475-.645 67.951-10.25-.097zM338.514 489.746l32.554 1.483-.229 11.417-10.016-.371c-.053 6.568-.596 58.873-.596 58.873l-11.1-9.45.852-49.825-11.54-.427zM392.702 492.215l32.618 1.486-9.594 11.121-12-.225-.167 15.265 15.541.486-8.55 11.55-7.12-.19-.154 14.14 12.075.375 9.376 11.451-32.848-.312zM455.212 508.573l11.85 10.388.3 16.275-10.857 9.243zm-9.6-13.947 10.121.461 20.33 18.473 1.05 28.2-19.049 16.23-10.839-.102zM482.025 603.107l-3.5-28.396 77.903.281-.034 8.47-68.509-.223 2.578 19.037z" style="fill:#fec01a;fill-rule:evenodd" data-source="https://football-logos.cc"></path><path d="m86.655 311.773 34.564-32.184-49.904-52.127-2.608-.356-28.682 33.87zm-1.835-82.469 45.493 47.52 2.981 3.115-3.148 2.93-40.837 38.027-.008-.008-.009.008-5.765 5.341 94.788 8.77 2.467 90.344-79.124 34.332.707 112.54 82.442.499 1.47 52.525 101.106 30.601-3.176-51.905h-.004l-2.03-26.047-.358-4.579 4.61.029 108.75.663 3.928.023.29 3.913 4.294 58.032 84.863 28.613-6.525-61.45-.495-4.66 4.697-.024 37.94-.19 29.211-17.344-44.938-50.286-2.21-2.473 1.844-2.726 28.94-42.803-65.669-3.33-3.64-.185-.38-3.619-8.903-80.145 53.058-27.406-10.261-81.846-52.69-7.188-3.293-.449-.362-3.304-3.673-33.583-73.292-35.278 4.307 56.31.395 5.159-5.128-.626-45.282-5.523.002.063-4.358-.594-.531-.065v-.008l-.066-.01-52.26-7.127-3.002-56.751-88.233-40.829 2.014 85.38-4.807-.656-38.496-5.221-4.602-.628zm-17.284-10.916 58.753 8.013-.327-37.1.065-1.526.981-1.115 36.272-41.213 2.092-2.377 2.874 1.33 99.76 46.163 2.466 1.141-.008 2.713 3.015 52.063 40.458 5.4-1.13-19.66-.062-2.022 1.54-1.316 41.177-35.175 2.106-1.799 2.495 1.201 86.943 41.848 2.118 1.02.257 2.352 3.57 32.631 52.645 7.181 3.247.443.407 3.245 11.028 87.966.36 2.874-2.586 1.377-50.147 26.138 7.478 70.834 69.562 3.527 7.533.382-4.211 6.228-31.307 46.305 46.167 51.66 3.436 3.845-4.433 2.633-34.613 20.552-.97.575-1.173.006-34.416.172 7.092 66.799.318 2.995-2.743 1.29-42.799 20.124-1.506.709-1.583-.51L346.31 665.03l-2.749-.885-.191-2.885-3.557-53.603-46.866.189 3.28 53.59.21 3.434.152 2.494.01.156-.173-.052-1.95 1.238-35.531 22.575-1.62 1.03-1.851-.548-118.426-35.007-2.963-.875-.077-3.094-1.095-44.09-74.452.372-4.254.022.002-4.257.074-114.768.002-1.95 1.493-1.272 38.887-33.113.491-.418.506-.23 34.643-15.733-2.084-56.837-88.667-7.953-8.35-.749 5.543-6.277 36.3-41.1.108-.121.19-.177 7.1-6.578-49.199-53.593-2.533-2.76 2.417-2.854 32.603-38.5 1.504-1.775zm8.329 115.652-27.23 30.83 88.724 7.875 1.113 61.335 33.113-14.128-2.563-77.336zm17.362 132.026-30.475 25.95-.07 108.56 74.346-.372 4.148-.02.104 4.156 1.121 45.153 113.612 33.583 29.681-18.857-104.765-31.709-2.89-.875-.116-3.045-1.8-47.446-77.984-.475-4.192-.026-.026-4.193zm199.14 133.31 51.4-.206 3.987-.017.264 3.986 3.63 54.702 99.098 31.888 35.844-16.854-88.275-29.762-2.682-.905-.208-2.816-4.213-56.937-100.212-.61zm66.698-397.332-.195-.093-37.394 31.711 1.066 19.081 40.81 5.338zm-193.783-46.012-30.915 35.127.357 36.393 32.558 4.413zm112.99 217.925 40.39-17.565-41.06-3.78zm-2.346 10.267-3.596 1.564-2.317-41.636 80.293 7.725zm110.768 48.122 3.548 42.512-63.395-3.207-14.821-.744zm-7.285 10.846-37.343 20.732 39.365 1.976z" style="fill:#fec01a;fill-rule:evenodd"></path><path d="m454.675 361.919 39.421 3.746-36.95 18.31zM131.427 460.898l49.718-22.265.682 24.977zM272.974 397.358l3.985 71.578 8.125.306 100.531-49.822-5.396-64.665-10.196-1.013z" style="fill:#fec01a;fill-rule:evenodd" data-source="https://football-logos.cc"></path><path d="m455.212 508.573 1.293 35.906 10.856-9.243-.3-16.275zM405.991 310.212l10.518 10.613.006-19.673zM227.346 296.005l.682-18.314-10 8.9zM167.282 231.965l-2-75.933-30.915 35.127.357 36.392zM121.219 279.589l-49.904-52.127-2.608-.356-28.682 33.87 46.63 50.797ZM277.602 352.612l.67 21.345 40.39-17.566zM379.41 443.192l-37.344 20.732 39.365 1.975zM171.585 419.952l-2.563-77.336-93.157-8.576-27.23 30.83 88.724 7.875 1.113 61.335zM93.92 576.45l-.693-110.384-30.475 25.95-.07 108.56 74.346-.372 4.148-.02.104 4.156 1.121 45.153 113.612 33.583 29.681-18.857-104.765-31.709-2.89-.875-.116-3.045-1.8-47.446-77.984-.475-4.192-.026zM348.019 603.139l3.63 54.702 99.097 31.888 35.844-16.854-88.275-29.762-2.681-.905-.209-2.816-4.213-56.937-100.212-.61 1.367 17.532 51.4-.207 3.987-.017zM487.885 583.24l2.058 15.198 34.224-.172 24.972-14.827zM322.542 252.743l40.81 5.338-4.287-56.037-.195-.093-37.394 31.711z" style="fill:#104d8c;fill-rule:evenodd"></path><path d="m272.33 385.788-2.317-41.636 80.293 7.725-74.38 32.346zm17.26-54.385-34.107-3.747.398-11.028 9.73-6.823-.084 9.085 15.39 1.842.143-8.32-24.401-17.307.458-12.675 12.43-13.046 22.148 2.835-.373 10.51-9.9 6.828.154-8.922-5.288-.569-7.469 7.584-.05 2.443 21.787 15.444zm18.75 1.746 2.005-58.542 10.932 1.399-.527 22.14 8.624-2.518 4.464 3.828.736-21.748 10.212 1.298-1.635 57.761-10.606-1.102.664-24.894-3.647-3.95-9.457 2.845-.966 24.606zm59.143-66.005-45.282-5.523.002.063-4.358-.594-.531-.065v-.008l-.066-.01-52.26-7.127-3.002-56.751-88.233-40.829 2.014 85.38-4.807-.656-38.496-5.221-4.601-.628-43.043-5.871 45.493 47.52 2.982 3.115-3.148 2.93-40.838 38.027-.008-.008-.009.008-5.764 5.34 94.788 8.772 2.467 90.342-79.125 34.332.707 112.541 82.442.498 1.471 52.526 101.105 30.6-3.176-51.904h-.004l-2.03-26.047-.357-4.579 4.608.028 108.75.663 3.93.024.289 3.913 4.294 58.032 84.863 28.613-6.525-61.45v-.033L482 602.9v-.006l-3.476-28.184 69.529.25-39.613-44.326-2.21-2.472 1.844-2.726 28.94-42.804-65.668-3.33-3.64-.184-.38-3.619-8.904-80.145 53.058-27.406-10.261-81.847-52.69-7.187-3.293-.449-.362-3.305-3.673-33.583-73.292-35.277 4.308 56.309.394 5.16zm-90.525 201.792-3.984-71.578 97.048-43.616 10.197 1.013 5.396 64.665-100.531 49.822zm35.068 1.97 74.668-38.56 3.548 42.512-63.395-3.208zm-85.09-163.904-8.967-8.946-.758 25.583-9.638-1.001 1.782-41.387 19.177-17.118 9.168 1.174-1.78 60.316-9.639-1.001zm-45.79 131.63.681 24.978-50.4-2.712zm276-54.658-2.471-22.055 39.421 3.746zm-81.497-38.813-9.525-9.225 1.691-43.34-10.428-1.323.266-10.61 30.608 3.918-.124 10.592-10.353-1.313zm21.553-2.777-.279-37.137 19.163-17.104 9.222 1.18.142 55.996-8.762-.91-.103-12.813-10.466-9.694.437 21.454zm-5.323 214.978.823-65.147 32.618 1.486-9.594 11.121-12-.225-.167 15.265 15.541.486-8.55 11.55-7.12-.19-.154 14.14 12.075.375 9.376 11.451zm55.346.525-1.613-63.261 10.121.461 20.33 18.473 1.05 28.2-19.049 16.23zm-108.71-68.141 32.553 1.483-.229 11.417-10.016-.371c-.053 6.568-.597 58.873-.597 58.873l-11.1-9.45.853-49.825-11.54-.427zM304.62 488.2l10.424.475-.645 67.951-10.25-.097zm-40.6-1.85 10.45.476-1.203 69.41-10.652-.1.534-26.524-12.79-15.224-1.203 41.62-11.477-.11 1.739-70.669 11.768.536-.287 9.932 12.65 14.09zm-80.91-3.687-1.332 60.793h10.987l1.347-60.291 12.007.547-1.878 71.87-34.462-.328 1.952-73.109zm257.168-150.316-.48-41.169 32.443 4.153.076 12.8-10.52 4.84.01-8.903-12.47-1.335.13 25.196 9.637 8.848.178-18.904 13.699 13.687-.003 9-3.862-3.488-.045 12.78-10.455-1.087zM189.997 259.2l-2.053 61.402-10.8-1.122.825-26.722-3.347-3.288-9.344 2.95-.862 25.773-10.8-1.123 1.925-62.281 10.948 1.401-.829 24.797 8.662-2.842 3.996 3.34.732-23.687z" style="fill:#104d8c;fill-rule:evenodd" data-source="https://football-logos.cc"></path><!-- source: https://football-logos.cc --></svg>