<svg xmlns="http://www.w3.org/2000/svg" fill-rule="evenodd" viewBox="13.04 128.58 566.93 586.62"><!-- Source: https://football-logos.cc --><path d="M563.444 515.981a293 293 0 0 0 7.538-19.043c.034-.029.245-.733.245-.733l-.403-.079c-42.224-5.444-77.352-31.912-95.438-68.021a125.2 125.2 0 0 1-4.411-32.96c0-56.616 37.593-104.453 89.18-119.907l-20.501-18.222a122 122 0 0 1 11.428-4.078l.741-.222L412.671 129.03l-.507-.449-.192.65c-15.751 52.902-63.452 88.697-118.692 89.069h-1.148v-.001h-1.149c-55.239-.372-102.939-36.166-118.69-89.069l-.194-.65-.506.45L32.44 252.716l.74.221a122.5 122.5 0 0 1 23.423 9.765L42.5 275.238c31.58 9.461 57.897 31.072 73.574 59.389 3.88 12.036 5.982 24.759 5.982 37.805 0 62.531-46.696 115.709-108.616 123.694l-.404.079s.211.704.244.733a294 294 0 0 0 11.487 27.73c41.926 111.329 149.421 190.531 275.412 190.531h2.297c127.971 0 236.858-81.711 277.339-195.802l.149-.132a125 125 0 0 1-16.52-3.284" style="stroke:none;fill:#1f211d" data-source="https://football-logos.cc"></path><path d="M293.28 692.056h-2.297c-124.031 0-235.221-78.427-276.806-195.186 62.032-8.322 108.741-61.687 108.741-124.438 0-54.806-36.475-104.054-88.777-120.074l137.541-122.253c16.054 52.917 63.898 88.682 119.298 89.056h1.152v.001h1.151c55.4-.374 103.243-36.139 119.298-89.056.96.851 136.454 121.286 137.542 122.252-52.303 16.021-88.777 65.269-88.777 120.075 0 62.75 46.708 116.115 108.74 124.437-41.584 116.759-152.774 195.186-276.806 195.186" style="stroke:none;fill:#fff"></path><path d="M101.609 251.155h-.072L96.71 235.95h-3.549l5.793 18.102h5.238l5.84-18.102h-3.595zM126.854 235.806c-5.744 0-7.651.99-7.651 6.613v4.875c0 5.938 2.052 6.903 7.651 6.903 5.479 0 7.723-1.11 7.723-6.903v-4.875c0-5.817-2.51-6.613-7.723-6.613m4.248 11.488c0 3.5-1.085 3.934-4.248 3.934-3.476 0-4.174-.337-4.174-3.934v-4.875c.072-2.872.433-3.644 4.174-3.644 3.09 0 4.321.241 4.248 3.644zM148.842 246.28h8.472v-2.848h-8.472v-4.513h8.929v-2.969h-12.406v18.102h12.479v-2.969h-9.002zM167.498 238.919h5.31v15.133h3.474v-15.133h5.311v-2.969h-14.095zM203.412 244.76v-.096c2.195-.531 2.582-1.931 2.582-4.007 0-3.983-1.786-4.707-5.335-4.707h-9.002v18.102h9.317c3.813 0 5.455-1.037 5.455-5.044 0-2.293-.484-3.959-3.017-4.248m-8.278-5.841h4.899c1.714 0 2.485.146 2.485 2.076s-.435 2.534-2.389 2.534h-4.995zm4.754 12.164h-4.754v-4.924h5.333c2.051 0 2.485.579 2.485 2.559 0 2.221-.988 2.365-3.064 2.365M221.827 235.95l-6.011 18.102h3.596l1.135-3.427h7.82l1.182 3.427h3.524l-6.13-18.102zm-.483 12.044 3.089-9.388h.048l3.114 9.388zM246.565 235.95h-3.475v18.102h11.924v-2.969h-8.449zM271.81 251.155h-.072l-4.827-15.205h-3.547l5.791 18.102h5.238l5.84-18.102h-3.596zM293.29 246.28h8.472v-2.848h-8.472v-4.513h8.933v-2.969h-12.407v18.102h12.478v-2.969h-9.004zM328.097 241.381c0-4.104-1.523-5.334-5.483-5.431h-9.242v18.102h3.475v-5.985h5.333c1.667.024 2.294 1.086 2.294 2.606v3.379h3.477v-3.379c0-2.558-.605-3.886-3.067-4.103v-.096c3.067-.459 3.213-2.413 3.213-5.093m-6.664 3.717h-4.586v-6.179h4.828c2.485 0 2.943.458 2.943 3.018 0 2.654-.627 3.161-3.185 3.161M342.649 246.28h8.472v-2.848h-8.472v-4.513h8.93v-2.969h-12.408v18.102h12.478v-2.969h-9zM376.439 251.083h-.098l-7.748-15.133h-5.744v18.102h3.474l-.289-15.133h.121l7.7 15.133h5.769V235.95h-3.476zM391.305 254.052h3.474V235.95h-3.474zM413.413 247.077h4.563v.652c0 3.426-1.014 3.499-4.324 3.499-3.859 0-4.438-.385-4.488-4.175v-4.152c.05-3.5.434-4.126 4.488-4.126 3.017 0 4.324-.025 4.324 2.63h3.451c.118-5.817-3.358-5.599-7.775-5.599-5.596 0-7.963 1.062-7.963 7.095v4.152c0 6.131 2.171 7.144 7.963 7.144 6.445 0 7.798-1.11 7.798-6.468v-3.283h-8.037zM432.505 254.052h3.474V235.95h-3.474zM461.247 251.083h-.095l-7.748-15.133h-5.744v18.102h3.475l-.289-15.133h.121l7.697 15.133h5.771V235.95h-3.478zM483.065 244.446v2.631h4.563v.652c0 3.426-1.013 3.499-4.319 3.499-3.863 0-4.442-.385-4.489-4.175v-4.152c.047-3.5.434-4.126 4.489-4.126 3.016 0 4.319-.025 4.319 2.63h3.452c.121-5.817-3.354-5.599-7.771-5.599-5.6 0-7.967 1.062-7.967 7.095v4.152c0 6.131 2.175 7.144 7.967 7.144 6.444 0 7.794-1.11 7.794-6.468v-3.283zM168.965 525.138l-9.007-12.316-34.012-1.823-3.409-4.66 21.29-15.573-7.328-10.018-52.18 38.165 7.326 10.019 22.334-16.334 3.41 4.66-8.29 35.539 9.263 12.662 9.668-42.847zM125.023 571.806l10.309 7.66 10.553-7.407 22.415 16.659-3.911 12.344 10.101 7.506 20.99-64.949-14.668-10.9zm57.744-25.821L171.69 579.53l-17.917-13.317 28.856-20.331zM201.271 561.32l17.656 6.923-19.735 50.316 11.556 4.532 19.733-50.315 17.656 6.924 3.87-9.871-46.863-18.381zM328.89 625.165l-.258.017-17.956-53.433-14.279.919-11.293 55.318-.342.025-16.926-53.501-12.386.798 20.934 63.433 17.719-1.141 10.163-50.063.342-.023 16.076 48.372 17.892-1.153 13.217-65.636-12.473.804zM356.392 560.483l25.977 59.201 11.368-4.989-25.977-59.2zM404.963 532.622l-10.344 6.86 24.719 37.288c4.382 6.609 4.495 8.807-1.684 12.906-8.118 5.38-9.213 3.728-13.88-3.314l-2.668-4.022-9.915 6.573 5.146 7.759c8.239 12.429 16.184 9.127 27.176 1.839 12.357-8.193 15.552-14.446 6.172-28.601zM491.155 531.606l9.635-12.381-43.856 2.461-8.806-40.056-9.369 12.041 7.582 33.205-3.548 4.558-20.815-16.2-7.624 9.797 51.019 39.704 7.623-9.795-21.836-16.994 3.548-4.557z" style="stroke:none;fill:#1f211d" data-source="https://football-logos.cc"></path><path d="M292.134 273.137c-69.121 0-125.155 56.035-125.155 125.155 0 26.348 8.146 50.79 22.051 70.956l186.442-164.306c-22.13-19.773-51.327-31.805-83.338-31.805" style="stroke:none;fill:#f7a339"></path><path d="M382.918 312.167 195.27 477.534c22.953 28.024 57.817 45.913 96.864 45.913 69.12 0 125.153-56.036 125.153-125.155 0-33.376-13.075-63.687-34.369-86.125" style="stroke:none;fill:#1f211d" data-source="https://football-logos.cc"></path><!-- source: https://football-logos.cc --></svg>