<svg xmlns="http://www.w3.org/2000/svg" viewBox="0 0 1603 1962"><!-- Source: https://football-logos.cc --><path fill-rule="evenodd" d="M797.74 0c45.42 1.68 92.9 3.34 136.01 6.69q49.45 3.84 64.12 5.25 79.54 7.62 154.37 18.12c21.34 2.99 66.47 9.36 99.81 14.74q35.78 5.77 39.44 6.43 102.39 18.19 140.4 26.21 70.17 14.81 79.29 16.92 24.07 5.56 53.09 12.41 6.88 1.62 19.38 5.25 9.65 2.79 19.35 5.4v1108.52q-3.62 30.65-10.43 57.89c-15.14 60.63-41.66 118.66-75.51 171.24q-35.14 54.58-79.98 102.76-12.64 13.58-36.59 36.44c-17.11 16.33-39.08 33.81-56.98 49.74q-20.13 17.9-42.09 35.6-11.24 9.06-26.98 20.5-22.64 16.46-27.47 19.84-23.55 16.49-63.41 42.63c-13.99 9.17-26.07 16.41-42.14 26.59q-14.94 9.46-31.87 19.55c-20.5 12.22-37.52 22.9-59.38 35.63q-81.33 47.35-165.66 94.4c-11.49 6.41-26.32 14.05-40.47 18.84q-8.85 3-23.54 4.41h-10.42c-21.98-1.58-41.56-8.96-60.32-20.26q-33.88-20.41-95.6-57.17-.09-.06-11-6.69-34.42-20.94-116.66-70.09-14.14-8.45-27.41-16.56-64.95-39.68-108.34-65.66-8.22-4.92-10.02-6.05-11.49-7.24-22.77-13.88c-24.8-14.61-48.61-31.48-70.95-49.09q-26.22-20.67-45.71-37.78-45.75-40.14-87.54-87.44c-6.95-7.86-13.34-16.2-20.87-25.21q-7.38-8.82-15.12-19.31-19.22-26.01-32.74-47.33-20.22-31.87-37.87-69.4c-10.78-22.91-19.73-47.69-26.7-70.77q-8.09-26.78-11.49-48.54-3.04-19.45-4.47-44.25c-.87-15.23-.48-29.58-.94-45.1q-.24-8.24-.46-33.83Q1.66 954.47 0 781.35v-.56q.31-1.15 0-2.18v-655.9q3.27-2.14 8.57-4.13c17.46-6.55 32.54-11.95 49.65-16.5q37.31-9.93 60.55-15.03 42.56-9.34 47.96-10.57 26.67-6.06 48.07-10.01 20.9-3.86 55.27-11.12c19.99-4.22 44.58-8.46 63.11-12.3 28.59-5.91 60.14-10.54 84.84-14.94q21.65-3.86 48.6-7.38 59.3-7.76 77.4-9.37Q626.96 3.99 666 2.55 702.73 1.19 739.47 0zm782.66 356.32v-222.5a.66.652-83.329 0 0-.5-.64c-23.78-5.99-46.59-12.36-71.41-17.93-18.18-4.08-41.31-10.13-62.96-14.75q-54.49-11.64-70.73-14.77-58.6-11.28-108.76-19.66-11.84-1.99-28.53-4.65-67.63-10.81-112.27-16.59c-32.67-4.22-58.81-7.82-87.03-10.68q-60.7-6.17-93.45-8.51-62.74-4.47-113.27-5.75-100.33-2.54-201.74 4.93-69.1 5.09-132.75 13.21-21.53 2.75-59.85 7.99c-39.86 5.44-77.14 12.13-117.34 18.78-14.55 2.4-39.47 7.47-59.35 10.83q-22.46 3.8-44.69 8.68-20.68 4.54-26.62 5.66c-29.7 5.6-61.23 13.73-86.87 20.57q-41.14 10.96-79.31 28.67a.862.858-13.442 0 0-.5.81q.13 3.01.06 5.98c-1.64 67.98-.91 152.17-.71 200.83a.82.814-6.737 0 0 1.01.79q27.12-6.32 63.9-13.95 39.84-8.26 40.35-8.38c35.04-7.81 71.05-13.61 104.03-20.2 22.96-4.59 45.46-8.14 65.85-12.67q12.37-2.74 33.22-6.1 29.62-4.77 59.1-11.01c5.43-1.15 13.15-1.93 16.97-2.54q24.15-3.87 47.79-7.58 20.67-3.24 47.78-6.45 29.75-3.53 47.93-5.25 49.63-4.69 104.5-7.59 55.66-2.95 141.66-3.25 3.25-.01 27.68.52 7.7.17 27.67.48 55.59.86 110.99 5.05 53.21 4.02 56.97 4.3 18.24 1.36 35.54 3.34c20.52 2.36 44.36 4.27 65.24 7.15q16.78 2.31 46.68 6.27c26.59 3.52 52.27 8.35 82.1 13.6 23.07 4.06 51.87 10.21 72.91 14.23q11.44 2.18 29.79 6.5 13.59 3.2 29.73 6.71 19.99 4.35 63.41 14.29 46.54 10.65 135.52 31.44a.215.212-83.581 0 0 .26-.21M627.34 1788.4q-.27.14-.22.36a.162.158 13.283 0 0 .07.11q8.39 4.82 18.87 11.23 2.64 1.61 5.24 3.09 7.38 4.21 11.43 6.65 25.16 15.18 53.85 33.41 13.34 8.48 30.06 19.58 20.08 13.33 30.01 19.41 8.32 5.1 12.3 6.78c20.58 8.7 42.43 6.05 61.62-4.96q21.66-12.43 38.44-21.03c15.8-8.1 28.66-15.1 45.4-23.54q54.01-27.25 76.56-39.28 8.42-4.5 44.42-24.37c18.34-10.12 40.33-23.32 54.96-32.25q28.09-17.16 70.39-46.18c14.02-9.62 26.61-19.2 39.97-28.96q17.5-12.79 53.77-42.22c11.99-9.73 22.18-19.14 34.88-30.24q11.17-9.75 25.31-23.47 18.97-18.38 24.65-24.2 13.42-13.74 32.88-35.7c18.33-20.69 35.67-42.83 49.6-62.55q21.76-30.82 41.22-65.27 24.23-42.87 39.93-86.81 8.25-23.1 13.61-45.2 4.63-19.12 7.74-44.52c1.62-13.14 1.5-27.06 1.26-38.27-1.62-75.61-1.68-149.99-2.63-219.67-.67-48.41-.96-105.91-1.7-157.77-.88-61.53-1.24-119.62-2.19-183.08q-1.62-107.27-2.19-184.13a2.678 2.67 16.972 0 0-1.17-2.19q-4.26-2.91-9.81-5-10.92-4.13-19.1-6.65-26.32-8.11-57.75-15.58-35.46-8.43-66.2-15.78-16.04-3.84-71.27-15.7c-21.35-4.58-43.09-10.06-64.02-14.47q-.81-.17-1.06-.11-.72.16-1.04-.26a.443.398 74.592 0 0-.25-.16q-11.57-2.81-44.98-9.84-15.62-3.29-62.53-12.2-30.99-5.89-104.54-16.36-3.19-.46-13.06-1.35-6.69-.6-13.07-1.37-74.03-8.95-152.51-11.9-15.25-.57-30.3-1.07-20.36-.67-30.34-.65c-13.3.03-30.28-.31-45.31.18q-18.69.61-59.43 1.76c-30.59.87-62.94 2.68-90.35 4.97-19.33 1.62-31.57 2.33-46.14 4.04q-17.32 2.04-65.48 7.73-14.52 1.72-27.8 3.71-33.84 5.07-77.65 12.3-6.09 1-18.49 3.78c-15.29 3.43-28.45 5.77-44.47 8.79q-7.03 1.32-46.93 10.54-20 4.61-42.81 10.68-34.22 9.1-42.61 11.47-43.85 12.38-115.26 37.98c-4.8 1.72-6.86 3.71-8.23 8.28-3.53 11.81-5.98 24.13-5.37 37.16q.02.38.88 33.94c.69 27.1.64 53.58 1.31 78.65 1.08 40.87 1.34 83.23 1.79 121.83.09 7.45.54 16.09.63 23.34q1.9 156.02 2.38 198.74.21 19.55 1.24 76.83c.66 36.79.64 74.83 1.65 112.35q.28 10.46.29 35.49 0 2.65.25 6.91 1.1 18.68 4.23 42.6 4.34 33.29 15.2 70.17 11.75 39.88 29.55 79.12 6.3 13.88 17.28 34.08 12.13 22.3 19.11 33.23 14.06 21.99 27.61 41.21 14.49 20.57 29.94 39.4 41.9 51.07 89.6 93.36c8.94 7.92 14.9 13.37 21.9 18.76q23.92 18.42 46.18 32.87 28.59 18.56 66.78 42.16 18.74 11.58 25.45 15.8 11.59 7.3 25.47 15.69 33.77 20.41 49.27 29.39 3.78 2.18 4 2.31 30.1 18.45 46.3 27.67 3.22 1.83 7.98 5.05 1.05.71 2.41 1.14a2.206 2.118-19.604 0 1 .4.18l30.74 18.01a.024.024-9.36 0 1 0 .04" data-source="https://football-logos.cc"></path><path fill="#fff" fill-rule="evenodd" d="M1580.4 356.32a.215.212-83.581 0 1-.26.21q-88.98-20.79-135.52-31.44-43.42-9.94-63.41-14.29-16.14-3.51-29.73-6.71-18.35-4.32-29.79-6.5c-21.04-4.02-49.84-10.17-72.91-14.23-29.83-5.25-55.51-10.08-82.1-13.6q-29.9-3.96-46.68-6.27c-20.88-2.88-44.72-4.79-65.24-7.15q-17.3-1.98-35.54-3.34-3.76-.28-56.97-4.3-55.4-4.19-110.99-5.05-19.97-.31-27.67-.48-24.43-.53-27.68-.52-86 .3-141.66 3.25-54.87 2.9-104.5 7.59-18.18 1.72-47.93 5.25-27.11 3.21-47.78 6.45-23.64 3.71-47.79 7.58c-3.82.61-11.54 1.39-16.97 2.54q-29.48 6.24-59.1 11.01-20.85 3.36-33.22 6.1c-20.39 4.53-42.89 8.08-65.85 12.67-32.98 6.59-68.99 12.39-104.03 20.2q-.51.12-40.35 8.38-36.78 7.63-63.9 13.95a.82.814-6.737 0 1-1.01-.79c-.2-48.66-.93-132.85.71-200.83q.07-2.97-.06-5.98a.862.858-13.442 0 1 .5-.81q38.17-17.71 79.31-28.67c25.64-6.84 57.17-14.97 86.87-20.57q5.94-1.12 26.62-5.66 22.23-4.88 44.69-8.68c19.88-3.36 44.8-8.43 59.35-10.83 40.2-6.65 77.48-13.34 117.34-18.78q38.32-5.24 59.85-7.99 63.65-8.12 132.75-13.21 101.41-7.47 201.74-4.93 50.53 1.28 113.27 5.75 32.75 2.34 93.45 8.51c28.22 2.86 54.36 6.46 87.03 10.68q44.64 5.78 112.27 16.59 16.69 2.66 28.53 4.65 50.16 8.38 108.76 19.66 16.24 3.13 70.73 14.77c21.65 4.62 44.78 10.67 62.96 14.75 24.82 5.57 47.63 11.94 71.41 17.93a.66.652-83.329 0 1 .5.64zM665.47 161.04q3.58-6.17 8.96-11.61 2.31-2.33 6.1-6.78c1.99-2.32 3.23-3.01 1.7-5.81-2.49-4.56-5.6-7.14-9.7-10.36q-1.58-1.24-3.87-4.13-11.13-14.02-15.52-19.74-1.52-1.98-3.46-3.84a.985.985-44.562 0 0-1.35-.01q-2.5 2.35-4.52 6.04-7.48 13.63-12.46 20.79c-2.59 3.73-8.25 9.12-13.28 15.24a.996.99-36 0 0-.16.99q.98 2.5 2.47 3.61 5.87 4.39 11.15 10.45c1.51 1.74 3.83 4.02 5.12 6.38a.604.6 74.514 0 1-.5.89l-24.5 1.22a.676.673-8.931 0 1-.69-.5q-2.56-9.68-6.43-18.24c-2.59-5.72-4.46-10.31-7.53-14.34-2.93-3.87-5.33.43-6.25 2.98q-4.11 11.42-10.55 26.45-1.44 3.35-1.32 6.83a.93.93 89.674 0 0 .91.9q4.6.13 7.7 2.69a3.375 3.34 8.797 0 1 .91 1.23q1.39 3.36 2.32 8.15c1.27 6.55 2.34 14.22 1.29 20.33q-1.35 7.9-5.59 15.06c-3.01 5.08-6.41 7.53-12.2 7.52q-4.53-.02-9.49-1.12a.577.572 87.81 0 0-.67.73c3.07 9.95 11.71 17.38 22.51 16.29 14.47-1.47 23.02-17.52 25.37-30.4q.99-5.44 1.28-11.84a.743.743 50.858 0 1 .71-.71l27.34-1.17a3.046 3.023 13.586 0 0 2.51-1.52l8.03-13.9a.547.545 44.335 0 1 .94-.01l7.98 13.13a1.722 1.713 73.488 0 0 1.52.83l59.16-1.45a.47.47 4.6 0 0 .46-.46q.07-2.43-.07-5.33-3.22-71.16-5.07-143.28c-.03-1.23.2-2.74.21-3.71a1.018 1.015 81.086 0 0-1.34-.98q-1.49.51-3.41 1.9-14.48 10.5-22.64 15.88c-4.91 3.25 2.14 6.85 5.23 8.45a.63.63 46.035 0 1 .35.55l4 93.58a.911.901 87.762 0 1-.86.94l-32.55 1.62a.275.273 13.832 0 1-.25-.41m208.82 55.28c6.12 18.21 24.1 27.35 37.95 8.89 7.12-9.49 8.63-19.86 9.9-31.68a1.124 1.119 5.094 0 1 1.19-.99l33.83 1.99a.714.713 1.104 0 0 .76-.73l-2.45-148.77a.709.706-14.497 0 0-1.04-.61l-26.31 13.9a.977.976 75.615 0 0-.52.88q.04 6.84 6.41 9.04a.709.699 8.95 0 1 .48.65l1.52 92.14a.53.53-68.161 0 1-.54.54l-13.29-.16a1.064 1.06-5.366 0 1-1.03-.85c-2.92-14.72-10.4-28.64-21.38-38.85a1.102 1.094 45.194 0 0-1.48-.01q-2.77 2.5-5.15 5.62-12.38 16.26-16.21 36.1-2.59 13.44-2.51 27.54a.82.82.354 0 0 .81.82l26.16.31a.594.59 4.29 0 1 .58.67q-1.62 10.99-7.47 19.44c-4.96 7.16-12.17 5.55-19.63 3.51a.481.473-1.878 0 0-.58.61m-135.53-24.75 19.86-.65a.51.5-1.742 0 0 .49-.51l-3.57-144.82a.471.469-6.576 0 0-.57-.45q-1.52.33-2.35.97-11.59 9.04-24.42 17.07a1.359 1.331-9.528 0 0-.59.81q-.31 1.19-.22 3.54c.07 2 3.92 3.87 6.29 5.37a2.365 2.358 15.284 0 1 1.1 1.92l3.82 116.6a.16.15 86.312 0 0 .16.15m448.51-8.5-12.3-1.37a1.083 1.079-5.398 0 1-.91-.75c-4.04-12.53-12.32-26.82-23.67-33.82q-2.09-1.29-3.63-.29-15.41 10-20.44 27.8a.973.968-79.154 0 1-1.04.71l-4.95-.55a.886.881-86.729 0 1-.78-.88v-70.77a.516.514-8.729 0 0-.67-.49c-11.94 3.72-28.39 10.16-35.17 19.79-5.62 7.99-8.69 18.71-5.49 28.02 2.63 7.66 8.75 12.17 16.78 13.55q1.88.32 5.12.76a.391.386 3.608 0 1 .33.37l.2 8.1a.194.192 3.919 0 1-.22.19q-21.85-3.19-44.57-4.08a.922.921 1.303 0 1-.88-.92L1054.15 65a.461.46-1.194 0 0-.48-.46q-1.99.06-4.06 1.08-6.34 3.12-22.82 10.95a1.028 1.016 79.968 0 0-.58.84q-.22 2.66.97 5.29a1.18 1.147 3.261 0 0 .45.49l4.26 2.46a1.353 1.336-75.595 0 1 .67 1.15l1.45 110.91a.601.591-89.506 0 0 .57.59q46.32 2.09 92.33 6.3a1.168 1.16-7.851 0 1 .97.73c3.29 8.38 7.65 13.93 16.45 18.39 11.74 5.95 23.91-2.71 27.46-13.93a1.017 1.015-78.018 0 1 1.09-.71l35.85 3.99a.67.667 2.27 0 0 .74-.68l-3.12-127.06a.594.593-12.364 0 0-.83-.53q-12.43 5.4-24.66 9.12a.904.894-8.237 0 0-.65.86c0 4.51 1.55 6.27 4.67 8.16a2.124 2.112 14.832 0 1 1.03 1.76l1.91 77.86a.498.496 2.019 0 1-.55.51M1079.342 65.404a16 10.11-96.2 0 0-8.323 16.998 16 10.11-96.2 0 0 11.779 14.814 16 10.11-96.2 0 0 8.323-16.998 16 10.11-96.2 0 0-11.779-14.814m26.807 4.431a14.96 10.37-96.8 0 0-8.526 16.083 14.96 10.37-96.8 0 0 12.068 13.627 14.96 10.37-96.8 0 0 8.526-16.083 14.96 10.37-96.8 0 0-12.068-13.627M424.23 211.07a.547.543-5.335 0 0 .62.51l17.94-2.25a1.717 1.717 85.311 0 0 1.51-1.78l-5.54-129.7a.703.7-20.385 0 0-1.14-.52L412.13 98a1.141 1.134 69.091 0 0-.43.97q.13 2.49 1.85 4.65a1.198 1.194 75.749 0 0 .72.43l4.15.76a.69.673-86.9 0 1 .56.64zm-78.53-32.06q-3.93 8.75-5.37 13.5a1.004.996-79.214 0 0 .87 1.29q3.7.33 6.81 1.97c2.02 1.07 2.69 2.37 3.21 4.52 1.21 5.02 2.49 11.72 2 16.99q-1.1 11.84-7.29 20.43c-4.7 6.51-11.7 5.68-18.93 5.03a.733.731 1.017 0 0-.8.77c.11 2.02.99 3.23 2.27 5.35q3.39 5.62 9.94 7.48c10.18 2.9 20.57-2.56 26.23-10.99 5.49-8.19 7.69-18.17 8.91-27.96a.866.861-88.74 0 1 .78-.75l32.41-2.91a.915.912-3.947 0 0 .83-.95q-.76-18.95-1.69-35.27c-1.41-24.37-2.49-53.38-3.51-73.76q-.59-11.84-.49-24.92a1.113 1.111 74.15 0 0-1.7-.95c-4.09 2.55-7.69 6.24-11.7 9.34q-1.74 1.34-11.3 8.95c-5.71 4.54-1.05 7.74 3.66 8.47a.543.536-86.744 0 1 .45.51l4.07 81.77a.854.841-4.274 0 1-.77.88l-13.28 1.19a1.057 1.049 78.331 0 1-1.1-.73q-4.53-14.15-12.56-26.89-.77-1.22-1.57-1.87a.811.806-52.662 0 0-1.16.16q-2.01 2.77-3.35 5.92-3.05 7.13-5.76 13.49a.028.017 58.283 0 1-.04-.02l-.02-.06a.035.022-53.519 0 0-.05.02m481.848-89.289a17.34 10.34-90.7 0 0-10.127 17.465 17.34 10.34-90.7 0 0 10.551 17.213 17.34 10.34-90.7 0 0 10.127-17.465 17.34 10.34-90.7 0 0-10.551-17.213M1244.99 216.97l-1.88-113.95a.332.327 80.293 0 0-.43-.31q-11.98 3.97-24.86 6.2a.491.484-5.468 0 0-.41.49l.08 5.23a2.709 2.694-75.677 0 0 1.35 2.29l3.5 2.02a1.205 1.181-76.132 0 1 .59 1q.65 28.3 1.96 67.5c.28 8.4.27 20.17.2 27.33a.616.612 3.583 0 0 .55.62l18.78 2.1a.517.514 2.477 0 0 .57-.52M858.94 115.21q-.84.06-1.54.45c-5.12 2.89-8.86 5.53-14.17 10.25q-6.04 5.35-9.58 7.71a.961.949-22.224 0 0-.41.96l.57 3.14a1.759 1.75-80.109 0 0 .86 1.23l3.48 2.01a2.035 1.999 13.721 0 1 1.01 1.63q1.44 25.34 1.69 44.91.05 3.87-1.23 6.39-3.88 7.63-10.27 14.19a1.324 1.317-48.761 0 1-1.76.12c-9.05-7.18-13.87-20.09-13.94-30.88q-.07-11.17 1.16-19.41a1.946 1.932 16.24 0 0-1.14-2.06c-5.2-2.3-5.79.34-8.32 4.75q-7.24 12.6-11.55 21.47-1.2 2.49-1.48 4.96a2.331 2.313-58.81 0 0 .36 1.49l2.21 3.37a2.953 2.778-72.307 0 1 .33.69q3.19 10.28 4.27 12.67 7.24 16.14 21.56 27.65 4.26 3.43 5.65 3.9 3.43 1.15 6.57-.86 13.39-8.61 22.21-23.81c6.11-10.53 5.61-24.33 5.43-36.31q-.41-26.64-1.4-60.1a.524.522-3.07 0 0-.57-.51m-606.56 8.41a.659.656-19.832 0 0-1.07-.5q-9.8 7.92-22.74 19.17-3.22 2.79-1.29 6.48a1.3 1.289-4.94 0 0 .78.65l4.04 1.29a.899.897-82.267 0 1 .63.83q.6 23.9.74 51.87c.06 11.31 1.18 22.08 1.13 33.3a.417.408 84.347 0 0 .49.41q40.34-7.84 81.77-12.93a1.677 1.673 84.308 0 0 1.47-1.8c-.73-9.42-.77-16.45-1.56-27.18q-1.18-15.96-1.4-33.38a.49.486-17.894 0 0-.77-.39l-26.27 18.38a.98.98-47.431 0 0 .07 1.65l7.14 4.12a.963.94 13.962 0 1 .47.76l.67 13.52a1.024 1.02-6.454 0 1-.84 1.05l-41.2 7.39a.743.74-5.292 0 1-.87-.72zm304.57 75.56-3.14-73.68a.752.75 71.718 0 0-1.17-.59l-28.77 19.59a.591.589 42.781 0 0 .04 1l8.24 4.76a1.614 1.61-77.611 0 1 .81 1.27l1.62 17.94a.323.322-6.443 0 1-.28.35l-34.79 4.37a2.746 2.743 65.735 0 1-2.4-.91l-8.7-9.84a.733.73-61.108 0 0-1.27.37q-.44 2.65-.79 3.77-5.98 18.87-8.81 38.02a.525.522-88.697 0 0 .57.6q38.96-3.92 78.09-6.19a.801.791 87.449 0 0 .75-.83m441.61-2.36c-1.34 9.15-5.63 23.64-17.58 22.99q-4.84-.25-9.7-2.27a.528.528-88.736 0 0-.7.67c4.08 11.25 12.79 22.63 26.55 18.69q4.78-1.36 8.97-6.03c7.39-8.22 10.84-17.94 12.36-28.91q2.36-16.9-.44-32.96c-2.87-16.49-9.52-29.45-20.63-40.99a1.635 1.628-44.883 0 0-2.35 0q-19.65 20.43-22.26 48.49-.73 7.8-1.67 17.76a.573.572-85.155 0 0 .53.63l26.62 1.57a.321.314 5.767 0 1 .3.36m429.13-38.25c.18 3.51.02 7.36 1.03 8.79 1.14 1.64 2.92 2.36 4.56 3.58a1.176 1.156 15.296 0 1 .46.79l9.56 76.22a.481.474 2.594 0 0 .38.41q34.8 6.77 46.26 8.99c15.25 2.94 28.52 6.34 45.24 10.3a.631.629.309 0 0 .76-.75q-2.15-9.39-6.35-24.27-2.18-7.73-4.17-11.82-1.2-2.48-5.27-3.63a4.159 4.064 50.632 0 0-1.36-.15q-7.95.47-16.6-1.45a.849.848 85.453 0 0-.97 1.14q1 2.53 2.83 5.48 3.24 5.23 6.99 11.17a.57.57-8.035 0 1-.64.85c-17.66-4.97-30.2-8.31-46.45-11.79a1.673 1.669 1.763 0 1-1.31-1.39l-9.81-67.92a.936.915 1.395 0 0-.76-.78l-23.75-4.32a.535.535 3.872 0 0-.63.55m-1249.71 25.8c2.03 1.73 4.04 2.54 6.5.84 4.3-2.98 9.11-8.55 9.18-13.94.06-4.64-2.57-9.63-8.1-9.17-5.26.44-9.63 8.83-11.05 13.15-1.41 4.3.52 6.6 3.47 9.12m1137.57 28.74a.928.928-10.555 0 1-.81 1.18c-3.6.29-12.14.68-14.83-2.21q-4.8-5.13-9.3-13.79c-2.06-3.97-7.8-4.51-11.41-4.7a.718.712-1.371 0 0-.75.78q.23 2.48 1.01 4.67 6.63 18.75 14.97 32.12 1.74 2.78 3.05 4.02a6.647 6.62 70.317 0 0 3.68 1.75q11.32 1.51 29.35 4.81c6.38 1.17 13.41-4.41 10.88-11.2q-4.97-13.34-8.25-23.42-2.97-9.15-3.93-14.61a2.092 2.076 71.891 0 1 1.12-2.23q3.68-1.83 8.42-2.15a.532.531 86.149 0 1 .56.49l1.37 21.42a8.91 8.881 31.37 0 0 .74 3.03q4.66 10.54 7.71 15.28c2.05 3.17 3.3 4.76 6.93 4.3a.613.606 84.954 0 0 .53-.64q-.61-11.29-1.59-25.6c-.63-9.2-.52-17.94-1.11-26.93q-.25-3.76-1.85-6.01-2.54-3.57-6.04-6.45c-3.25-2.67-6.48-2.94-10.64-.6q-1.44.81-6.82 1.87c-4.92.97-19.74 7.23-20.35 14.1-.32 3.6.42 9.13 1.79 13.14q3.38 9.84 5.57 17.58m109.61 31.16q-.98-15.52-4.64-31.1c-2.73-11.61-9.55-19.58-17.67-27.83a.976.971-52.378 0 1-.15-1.18l1.65-2.85a1.027 1.025-48.196 0 0-.06-1.1l-4.36-6.02a.938.93-35.573 0 0-1.3-.21c-6.88 4.97-11.63 12.32-15.84 20.05a.48.48 74.51 0 0 .12.6c5.9 4.82 16.02 13.6 17.45 21.4a.561.558.72 0 1-.67.65q-4.63-1-9.41-1.98c-5.31-1.09-9.74-6.09-13.25-9.85a.56.559 36.809 0 0-.91.13q-6.61 13.31-11.19 27.93a.991.986 13.904 0 0 .77 1.27l58.78 10.69a.578.578 3.554 0 0 .68-.6M174.12 209.65l.33-13.43a.849.847 71.167 0 0-1.38-.68l-21.7 17.59a1.048 1.047 40.386 0 0 .14 1.72l4.13 2.38a.574.567-74.153 0 1 .28.51l-.29 11.81a.678.676-5.347 0 1-.54.65l-9.78 2.01a.485.485-7.189 0 1-.58-.45c-.56-9.13-.42-19.25-1.7-29.13a.694.682-.477 0 0-.61-.59q-2.66-.28-7.39 2.73-13.02 8.32-23.22 18.15c-4.65 4.49-7.66 7.23-6.21 13.59q1.44 6.28 5.17 13.07a1.225 1.219 66.189 0 1-.67 1.74q-4.96 1.71-8.18 2.94-4.97 1.9-8.96-1.91-3.17-3.02-3.53-4.37a1.73 1.719 77.897 0 0-1.95-1.27l-6.63 1.1a1.449 1.445-17.181 0 0-1.08 2.04c2.69 5.81 6.74 11.6 10.24 16.63 1.52 2.18 3.54 3.82 5.97 4.08 3.85.4 8.03.02 12.22-1.08 7.75-2.03 18.17-2.17 22.71-9.82q1.71-2.9.18-5.75-4.99-9.29-8.65-21.67a2.573 2.55-27.842 0 1 .85-2.71l5.72-4.64a1.039 1.037 69.717 0 1 1.69.78q.24 9.03.27 9.61.29 5.05 1.46 7.33 3.04 5.99 7.44 11.17a1.957 1.947 63.742 0 0 1.87.64l75.05-15.39a.744.741-4.983 0 0 .59-.7q.38-18.71.37-33.58c-.01-9.57-1.4-15.76-9.79-20.53-6.22-3.53-12.42 1.94-16.42 6.07q-8.31 8.57-16.3 19.74a.62.616 63.541 0 1-1.12-.38m1347.32 9.65a1.293 1.287 50.472 0 0 .11-1.18q-.96-2.43-2.96-4.21c-2.75-2.46-6.76-6.99-11.36-9.35q-4.49-2.31-7.55 1.06c-3.39 3.72 5.5 13.72 8.08 16.14q3.71 3.46 7.73 2.1 3.93-1.34 5.95-4.56m-996.176-8.1a15.97 10.68-90.2 0 0-10.624 16.007 15.97 10.68-90.2 0 0 10.736 15.933A15.97 10.68-90.2 0 0 536 227.133a15.97 10.68-90.2 0 0-10.736-15.933m-218.329 22.05a13.97 9.59-86.9 0 0-10.331 13.431 13.97 9.59-86.9 0 0 8.821 14.469 13.97 9.59-86.9 0 0 10.331-13.431 13.97 9.59-86.9 0 0-8.821-14.469m-26.59 3.96a13.66 9.87-86.2 0 0-10.753 12.976 13.66 9.87-86.2 0 0 8.943 14.284 13.66 9.87-86.2 0 0 10.753-12.976 13.66 9.87-86.2 0 0-8.943-14.284m1030.642 7.807a14.21 11.27-110.7 0 0-5.519 17.277 14.21 11.27-110.7 0 0 15.565 9.309 14.21 11.27-110.7 0 0 5.519-17.277 14.21 11.27-110.7 0 0-15.565-9.309m30.634 3.844a13.75 11.26-113.3 0 0-4.903 17.083 13.75 11.26-113.3 0 0 15.781 8.175 13.75 11.26-113.3 0 0 4.903-17.083 13.75 11.26-113.3 0 0-15.781-8.175M140.627 269.2a11.15 9.21-52.7 0 0-14.083 3.289 11.15 9.21-52.7 0 0 .569 14.451 11.15 9.21-52.7 0 0 14.083-3.289 11.15 9.21-52.7 0 0-.569-14.451m-26.577 4.336a11.01 9.16-57.1 0 0-13.671 4.269 11.01 9.16-57.1 0 0 1.711 14.219 11.01 9.16-57.1 0 0 13.671-4.269 11.01 9.16-57.1 0 0-1.711-14.219"></path><path fill-rule="evenodd" d="M665.47 161.04a.275.273 13.832 0 0 .25.41l32.55-1.62a.911.901 87.762 0 0 .86-.94l-4-93.58a.63.63.524 0 0-.35-.55c-3.09-1.6-10.14-5.2-5.23-8.45q8.16-5.38 22.64-15.88 1.92-1.39 3.41-1.9a1.018 1.015 81.086 0 1 1.34.98c-.01.97-.24 2.48-.21 3.71q1.85 72.12 5.07 143.28.14 2.9.07 5.33a.47.47 33.193 0 1-.46.46l-59.16 1.45a1.722 1.713 73.488 0 1-1.52-.83l-7.98-13.13a.547.545 44.335 0 0-.94.01l-8.03 13.9a3.046 3.023 13.586 0 1-2.51 1.52l-27.34 1.17a.743.743 59.515 0 0-.71.71q-.29 6.4-1.28 11.84c-2.35 12.88-10.9 28.93-25.37 30.4-10.8 1.09-19.44-6.34-22.51-16.29a.577.572 87.81 0 1 .67-.73q4.96 1.1 9.49 1.12c5.79.01 9.19-2.44 12.2-7.52q4.24-7.16 5.59-15.06c1.05-6.11-.02-13.78-1.29-20.33q-.93-4.79-2.32-8.15a3.375 3.34 8.797 0 0-.91-1.23q-3.1-2.56-7.7-2.69a.93.93 89.674 0 1-.91-.9q-.12-3.48 1.32-6.83 6.44-15.03 10.55-26.45c.92-2.55 3.32-6.85 6.25-2.98 3.07 4.03 4.94 8.62 7.53 14.34q3.87 8.56 6.43 18.24a.676.673-8.931 0 0 .69.5l24.5-1.22a.604.6 74.514 0 0 .5-.89c-1.29-2.36-3.61-4.64-5.12-6.38q-5.28-6.06-11.15-10.45-1.49-1.11-2.47-3.61a.996.99-36 0 1 .16-.99c5.03-6.12 10.69-11.51 13.28-15.24q4.98-7.16 12.46-20.79 2.02-3.69 4.52-6.04a.985.985-44.562 0 1 1.35.01q1.94 1.86 3.46 3.84 4.39 5.72 15.52 19.74 2.29 2.89 3.87 4.13c4.1 3.22 7.21 5.8 9.7 10.36 1.53 2.8.29 3.49-1.7 5.81q-3.79 4.45-6.1 6.78-5.38 5.44-8.96 11.61m-11.06-20a2.938 2.93 39.671 0 0-.28-2.96l-3.23-4.46a1.215 1.211 44.895 0 0-1.97 0l-4.39 6.16a.662.659 42.987 0 0 .03.8l5.41 6.68a.975.974 38.042 0 0 1.64-.2zM874.29 216.32a.481.473-1.878 0 1 .58-.61c7.46 2.04 14.67 3.65 19.63-3.51q5.85-8.45 7.47-19.44a.594.59 4.29 0 0-.58-.67l-26.16-.31a.82.82.354 0 1-.81-.82q-.08-14.1 2.51-27.54 3.83-19.84 16.21-36.1 2.38-3.12 5.15-5.62a1.102 1.094 45.194 0 1 1.48.01c10.98 10.21 18.46 24.13 21.38 38.85a1.064 1.06-5.366 0 0 1.03.85l13.29.16a.53.53-70.694 0 0 .54-.54l-1.52-92.14a.709.699 8.95 0 0-.48-.65q-6.37-2.2-6.41-9.04a.977.976 75.615 0 1 .52-.88l26.31-13.9a.709.706-14.497 0 1 1.04.61l2.45 148.77a.714.713 1.104 0 1-.76.73l-33.83-1.99a1.124 1.119 5.094 0 0-1.19.99c-1.27 11.82-2.78 22.19-9.9 31.68-13.85 18.46-31.83 9.32-37.95-8.89m16.49-53.781 8.059-.099a.26.26-59.23 0 0 .257-.263l-.001-.1a11.06 4.19 89.3 0 0-4.325-11.008l-.2.003a11.06 4.19 89.3 0 0-4.054 11.11l.001.1a.26.26 44.257 0 0 .263.257M738.76 191.57a.16.15 86.312 0 1-.16-.15l-3.82-116.6a2.365 2.358 15.284 0 0-1.1-1.92c-2.37-1.5-6.22-3.37-6.29-5.37q-.09-2.35.22-3.54a1.359 1.331-9.528 0 1 .59-.81q12.83-8.03 24.42-17.07.83-.64 2.35-.97a.471.469-6.576 0 1 .57.45l3.57 144.82a.51.5-1.742 0 1-.49.51zM1187.82 182.56l-1.91-77.86a2.124 2.112 14.832 0 0-1.03-1.76c-3.12-1.89-4.67-3.65-4.67-8.16a.904.894-8.237 0 1 .65-.86q12.23-3.72 24.66-9.12a.594.593-12.364 0 1 .83.53l3.12 127.06a.67.667 2.27 0 1-.74.68l-35.85-3.99a1.017 1.015-78.018 0 0-1.09.71c-3.55 11.22-15.72 19.88-27.46 13.93-8.8-4.46-13.16-10.01-16.45-18.39a1.168 1.16-7.851 0 0-.97-.73q-46.01-4.21-92.33-6.3a.601.591-89.506 0 1-.57-.59l-1.45-110.91a1.353 1.336-75.595 0 0-.67-1.15l-4.26-2.46a1.18 1.147 3.261 0 1-.45-.49q-1.19-2.63-.97-5.29a1.028 1.016 79.968 0 1 .58-.84q16.48-7.83 22.82-10.95 2.07-1.02 4.06-1.08a.461.46-1.194 0 1 .48.46l.83 103.44a.922.921 1.303 0 0 .88.92q22.72.89 44.57 4.08a.194.192 3.919 0 0 .22-.19l-.2-8.1a.391.386 3.608 0 0-.33-.37q-3.24-.44-5.12-.76c-8.03-1.38-14.15-5.89-16.78-13.55-3.2-9.31-.13-20.03 5.49-28.02 6.78-9.63 23.23-16.07 35.17-19.79a.516.514-8.729 0 1 .67.49v70.77a.886.881-86.729 0 0 .78.88l4.95.55a.973.968-79.154 0 0 1.04-.71q5.03-17.8 20.44-27.8 1.54-1 3.63.29c11.35 7 19.63 21.29 23.67 33.82a1.083 1.079-5.398 0 0 .91.75l12.3 1.37a.498.496 2.019 0 0 .55-.51m-87.621-38.503.102-14.66a.12.12-45.332 0 0-.119-.121h-.01a7.55 7.4.4 0 0-7.602 7.347v.1a7.55 7.4.4 0 0 7.498 7.453h.01a.12.12 8.838 0 0 .121-.119m54.101 51.693a1.948 1.94 81.361 0 0 1.29-1.76q.11-3.22-.01-10.05c-.09-5.07-3.09-7.87-7.89-7.99a2.098 2.093-82.576 0 0-2.1 1.62q-1.69 7.18-.59 14.18c.65 4.16 6.12 5.13 9.3 4"></path><path fill-rule="evenodd" d="M1079.342 65.404a16 10.11-96.2 0 1 11.779 14.814 16 10.11-96.2 0 1-8.323 16.998 16 10.11-96.2 0 1-11.779-14.814 16 10.11-96.2 0 1 8.323-16.998"></path><path fill-rule="evenodd" d="M1106.149 69.835a14.96 10.37-96.8 0 1 12.068 13.627 14.96 10.37-96.8 0 1-8.526 16.083 14.96 10.37-96.8 0 1-12.068-13.627 14.96 10.37-96.8 0 1 8.526-16.083M424.23 211.07l-5.25-105.62a.69.673-86.9 0 0-.56-.64l-4.15-.76a1.198 1.194 75.749 0 1-.72-.43q-1.72-2.16-1.85-4.65a1.141 1.134 69.091 0 1 .43-.97l25.49-20.67a.703.7-20.385 0 1 1.14.52l5.54 129.7a1.717 1.717 85.311 0 1-1.51 1.78l-17.94 2.25a.547.543-5.335 0 1-.62-.51M345.75 178.99l.02.06a.028.017 58.283 0 0 .04.02q2.71-6.36 5.76-13.49 1.34-3.15 3.35-5.92a.811.806-52.662 0 1 1.16-.16q.8.65 1.57 1.87 8.03 12.74 12.56 26.89a1.057 1.049 78.331 0 0 1.1.73l13.28-1.19a.854.841-4.274 0 0 .77-.88l-4.07-81.77a.543.536-86.744 0 0-.45-.51c-4.71-.73-9.37-3.93-3.66-8.47q9.56-7.61 11.3-8.95c4.01-3.1 7.61-6.79 11.7-9.34a1.113 1.111 74.15 0 1 1.7.95q-.1 13.08.49 24.92c1.02 20.38 2.1 49.39 3.51 73.76q.93 16.32 1.69 35.27a.915.912-3.947 0 1-.83.95l-32.41 2.91a.866.861-88.74 0 0-.78.75c-1.22 9.79-3.42 19.77-8.91 27.96-5.66 8.43-16.05 13.89-26.23 10.99q-6.55-1.86-9.94-7.48c-1.28-2.12-2.16-3.33-2.27-5.35a.733.731 1.017 0 1 .8-.77c7.23.65 14.23 1.48 18.93-5.03q6.19-8.59 7.29-20.43c.49-5.27-.79-11.97-2-16.99-.52-2.15-1.19-3.45-3.21-4.52q-3.11-1.64-6.81-1.97a1.004.996-79.214 0 1-.87-1.29q1.44-4.75 5.37-13.5a.035.022-53.519 0 1 .05-.02M827.548 89.721a17.34 10.34-90.7 0 1 10.551 17.213 17.34 10.34-90.7 0 1-10.127 17.465 17.34 10.34-90.7 0 1-10.551-17.213 17.34 10.34-90.7 0 1 10.127-17.465M1244.99 216.97a.517.514 2.477 0 1-.57.52l-18.78-2.1a.616.612 3.583 0 1-.55-.62c.07-7.16.08-18.93-.2-27.33q-1.31-39.2-1.96-67.5a1.205 1.181-76.132 0 0-.59-1l-3.5-2.02a2.709 2.694-75.677 0 1-1.35-2.29l-.08-5.23a.491.484-5.468 0 1 .41-.49q12.88-2.23 24.86-6.2a.332.327 80.293 0 1 .43.31zM858.94 115.21a.524.522-3.07 0 1 .57.51q.99 33.46 1.4 60.1c.18 11.98.68 25.78-5.43 36.31q-8.82 15.2-22.21 23.81-3.14 2.01-6.57.86-1.39-.47-5.65-3.9-14.32-11.51-21.56-27.65-1.08-2.39-4.27-12.67a2.953 2.778-72.307 0 0-.33-.69l-2.21-3.37a2.331 2.313-58.81 0 1-.36-1.49q.28-2.47 1.48-4.96 4.31-8.87 11.55-21.47c2.53-4.41 3.12-7.05 8.32-4.75a1.946 1.932 16.24 0 1 1.14 2.06q-1.23 8.24-1.16 19.41c.07 10.79 4.89 23.7 13.94 30.88a1.324 1.317-48.761 0 0 1.76-.12q6.39-6.56 10.27-14.19 1.28-2.52 1.23-6.39-.25-19.57-1.69-44.91a2.035 1.999 13.721 0 0-1.01-1.63l-3.48-2.01a1.759 1.75-80.109 0 1-.86-1.23l-.57-3.14a.961.949-22.224 0 1 .41-.96q3.54-2.36 9.58-7.71c5.31-4.72 9.05-7.36 14.17-10.25q.7-.39 1.54-.45M252.38 123.62l1.39 83.97a.743.74-5.292 0 0 .87.72l41.2-7.39a1.024 1.02-6.454 0 0 .84-1.05l-.67-13.52a.963.94 13.962 0 0-.47-.76l-7.14-4.12a.98.98-47.431 0 1-.07-1.65l26.27-18.38a.49.486-17.894 0 1 .77.39q.22 17.42 1.4 33.38c.79 10.73.83 17.76 1.56 27.18a1.677 1.673 84.308 0 1-1.47 1.8q-41.43 5.09-81.77 12.93a.417.408 84.347 0 1-.49-.41c.05-11.22-1.07-21.99-1.13-33.3q-.14-27.97-.74-51.87a.899.897-82.267 0 0-.63-.83l-4.04-1.29a1.3 1.289-4.94 0 1-.78-.65q-1.93-3.69 1.29-6.48 12.94-11.25 22.74-19.17a.659.656-19.832 0 1 1.07.5M556.2 200.01q-39.13 2.27-78.09 6.19a.525.522-88.697 0 1-.57-.6q2.83-19.15 8.81-38.02.35-1.12.79-3.77a.733.73-61.108 0 1 1.27-.37l8.7 9.84a2.746 2.743 65.735 0 0 2.4.91l34.79-4.37a.323.322-6.443 0 0 .28-.35l-1.62-17.94a1.614 1.61-77.611 0 0-.81-1.27l-8.24-4.76a.591.589 42.781 0 1-.04-1l28.77-19.59a.752.75 71.718 0 1 1.17.59l3.14 73.68a.801.791 87.449 0 1-.75.83M998.56 196.82a.321.314 5.767 0 0-.3-.36l-26.62-1.57a.573.572-85.155 0 1-.53-.63q.94-9.96 1.67-17.76 2.61-28.06 22.26-48.49a1.635 1.628-44.883 0 1 2.35 0c11.11 11.54 17.76 24.5 20.63 40.99q2.8 16.06.44 32.96c-1.52 10.97-4.97 20.69-12.36 28.91q-4.19 4.67-8.97 6.03c-13.76 3.94-22.47-7.44-26.55-18.69a.528.528-88.736 0 1 .7-.67q4.86 2.02 9.7 2.27c11.95.65 16.24-13.84 17.58-22.99m-10.95-29.557 8.08.014a.28.28 0 0 0 .281-.279v-.2a10.68 4.24-89.9 0 0-4.221-10.688h-.16a10.68 4.24-89.9 0 0-4.259 10.672v.2a.28.28.129 0 0 .279.281"></path><path fill="#fff" fill-rule="evenodd" d="M1100.199 144.057a.12.12 41.492 0 1-.121.119h-.01a7.55 7.4.4 0 1-7.498-7.453v-.1a7.55 7.4.4 0 1 7.602-7.347h.01a.12.12 45.509 0 1 .119.121zM654.41 141.04l-2.79 6.02a.975.974 38.042 0 1-1.64.2l-5.41-6.68a.662.659 42.987 0 1-.03-.8l4.39-6.16a1.215 1.211 44.895 0 1 1.97 0l3.23 4.46a2.938 2.93 39.671 0 1 .28 2.96M890.78 162.539a.26.26-45.696 0 1-.263-.257l-.001-.1a11.06 4.19 89.3 0 1 4.054-11.11l.2-.003a11.06 4.19 89.3 0 1 4.325 11.008l.001.1a.26.26-49.217 0 1-.257.263zM987.61 167.263a.28.28.119 0 1-.279-.281v-.2a10.68 4.24-89.9 0 1 4.259-10.672h.16a10.68 4.24-89.9 0 1 4.221 10.688v.2a.28.28.031 0 1-.281.279z"></path><path fill-rule="evenodd" d="M1427.69 158.57a.535.535 3.872 0 1 .63-.55l23.75 4.32a.936.915 1.395 0 1 .76.78l9.81 67.92a1.673 1.669 1.763 0 0 1.31 1.39c16.25 3.48 28.79 6.82 46.45 11.79a.57.57-8.035 0 0 .64-.85q-3.75-5.94-6.99-11.17-1.83-2.95-2.83-5.48a.849.848 85.453 0 1 .97-1.14q8.65 1.92 16.6 1.45a4.159 4.064 50.632 0 1 1.36.15q4.07 1.15 5.27 3.63 1.99 4.09 4.17 11.82 4.2 14.88 6.35 24.27a.631.629.309 0 1-.76.75c-16.72-3.96-29.99-7.36-45.24-10.3q-11.46-2.22-46.26-8.99a.481.474 2.594 0 1-.38-.41l-9.56-76.22a1.176 1.156 15.296 0 0-.46-.79c-1.64-1.22-3.42-1.94-4.56-3.58-1.01-1.43-.85-5.28-1.03-8.79M184.48 185.21c-2.46 1.7-4.47.89-6.5-.84-2.95-2.52-4.88-4.82-3.47-9.12 1.42-4.32 5.79-12.71 11.05-13.15 5.53-.46 8.16 4.53 8.1 9.17-.07 5.39-4.88 10.96-9.18 13.94M1315.55 213.11q-2.19-7.74-5.57-17.58c-1.37-4.01-2.11-9.54-1.79-13.14.61-6.87 15.43-13.13 20.35-14.1q5.38-1.06 6.82-1.87c4.16-2.34 7.39-2.07 10.64.6q3.5 2.88 6.04 6.45 1.6 2.25 1.85 6.01c.59 8.99.48 17.73 1.11 26.93q.98 14.31 1.59 25.6a.613.606 84.954 0 1-.53.64c-3.63.46-4.88-1.13-6.93-4.3q-3.05-4.74-7.71-15.28a8.91 8.881 31.37 0 1-.74-3.03l-1.37-21.42a.532.531 86.149 0 0-.56-.49q-4.74.32-8.42 2.15a2.092 2.076 71.891 0 0-1.12 2.23q.96 5.46 3.93 14.61 3.28 10.08 8.25 23.42c2.53 6.79-4.5 12.37-10.88 11.2q-18.03-3.3-29.35-4.81a6.647 6.62 70.317 0 1-3.68-1.75q-1.31-1.24-3.05-4.02-8.34-13.37-14.97-32.12-.78-2.19-1.01-4.67a.718.712-1.371 0 1 .75-.78c3.61.19 9.35.73 11.41 4.7q4.5 8.66 9.3 13.79c2.69 2.89 11.23 2.5 14.83 2.21a.928.928-10.555 0 0 .81-1.18M1424.48 244.87l-58.78-10.69a.991.986 13.904 0 1-.77-1.27q4.58-14.62 11.19-27.93a.56.559 36.809 0 1 .91-.13c3.51 3.76 7.94 8.76 13.25 9.85q4.78.98 9.41 1.98a.561.558.72 0 0 .67-.65c-1.43-7.8-11.55-16.58-17.45-21.4a.48.48-5.678 0 1-.12-.6c4.21-7.73 8.96-15.08 15.84-20.05a.938.93-35.573 0 1 1.3.21l4.36 6.02a1.027 1.025-48.196 0 1 .06 1.1l-1.65 2.85a.976.971-52.378 0 0 .15 1.18c8.12 8.25 14.94 16.22 17.67 27.83q3.66 15.58 4.64 31.1a.578.578 3.554 0 1-.68.6"></path><path fill="#fff" fill-rule="evenodd" d="M1154.3 195.75c-3.18 1.13-8.65.16-9.3-4q-1.1-7 .59-14.18a2.098 2.093-82.576 0 1 2.1-1.62c4.8.12 7.8 2.92 7.89 7.99q.12 6.83.01 10.05a1.948 1.94 81.361 0 1-1.29 1.76"></path><path fill-rule="evenodd" d="M174.12 209.65a.62.616 63.541 0 0 1.12.38q7.99-11.17 16.3-19.74c4-4.13 10.2-9.6 16.42-6.07 8.39 4.77 9.78 10.96 9.79 20.53q.01 14.87-.37 33.58a.744.741-4.983 0 1-.59.7l-75.05 15.39a1.957 1.947 63.742 0 1-1.87-.64q-4.4-5.18-7.44-11.17-1.17-2.28-1.46-7.33-.03-.58-.27-9.61a1.039 1.037 69.717 0 0-1.69-.78l-5.72 4.64a2.573 2.55-27.842 0 0-.85 2.71q3.66 12.38 8.65 21.67 1.53 2.85-.18 5.75c-4.54 7.65-14.96 7.79-22.71 9.82-4.19 1.1-8.37 1.48-12.22 1.08-2.43-.26-4.45-1.9-5.97-4.08-3.5-5.03-7.55-10.82-10.24-16.63a1.449 1.445-17.181 0 1 1.08-2.04l6.63-1.1a1.73 1.719 77.897 0 1 1.95 1.27q.36 1.35 3.53 4.37 3.99 3.81 8.96 1.91 3.22-1.23 8.18-2.94a1.225 1.219 66.189 0 0 .67-1.74q-3.73-6.79-5.17-13.07c-1.45-6.36 1.56-9.1 6.21-13.59q10.2-9.83 23.22-18.15 4.73-3.01 7.39-2.73a.694.682-.477 0 1 .61.59c1.28 9.88 1.14 20 1.7 29.13a.485.485-7.189 0 0 .58.45l9.78-2.01a.678.676-5.347 0 0 .54-.65l.29-11.81a.574.567-74.153 0 0-.28-.51l-4.13-2.38a1.048 1.047 40.386 0 1-.14-1.72l21.7-17.59a.849.847 71.167 0 1 1.38.68zm24.98 9.57-1.64-9.18a2.649 2.636.68 0 0-2.07-2.11c-4.78-.97-8.86 1.89-11.83 5.69q-3.61 4.63-8.39 11.06a.413.411-78.015 0 0 .42.65l22.98-5.3a.703.699 78.358 0 0 .53-.81M1521.44 219.3q-2.02 3.22-5.95 4.56-4.02 1.36-7.73-2.1c-2.58-2.42-11.47-12.42-8.08-16.14q3.06-3.37 7.55-1.06c4.6 2.36 8.61 6.89 11.36 9.35q2 1.78 2.96 4.21a1.293 1.287 50.472 0 1-.11 1.18"></path><path fill="#fff" fill-rule="evenodd" d="m198.57 220.03-22.98 5.3a.413.411-78.015 0 1-.42-.65q4.78-6.43 8.39-11.06c2.97-3.8 7.05-6.66 11.83-5.69a2.649 2.636.68 0 1 2.07 2.11l1.64 9.18a.703.699 78.358 0 1-.53.81"></path><path fill-rule="evenodd" d="M525.264 211.2A15.97 10.68-90.2 0 1 536 227.133a15.97 10.68-90.2 0 1-10.624 16.007 15.97 10.68-90.2 0 1-10.736-15.933 15.97 10.68-90.2 0 1 10.624-16.007M306.935 233.25a13.97 9.59-86.9 0 1 8.821 14.469 13.97 9.59-86.9 0 1-10.331 13.431 13.97 9.59-86.9 0 1-8.821-14.469 13.97 9.59-86.9 0 1 10.331-13.431M280.345 237.21a13.66 9.87-86.2 0 1 8.943 14.284 13.66 9.87-86.2 0 1-10.753 12.976 13.66 9.87-86.2 0 1-8.943-14.284 13.66 9.87-86.2 0 1 10.753-12.976M1310.987 245.017a14.21 11.27-110.7 0 1 15.565 9.309 14.21 11.27-110.7 0 1-5.519 17.277 14.21 11.27-110.7 0 1-15.565-9.309 14.21 11.27-110.7 0 1 5.519-17.277"></path><path fill-rule="evenodd" d="M1341.621 248.861a13.75 11.26-113.3 0 1 15.781 8.175 13.75 11.26-113.3 0 1-4.903 17.083 13.75 11.26-113.3 0 1-15.781-8.175 13.75 11.26-113.3 0 1 4.903-17.083M140.627 269.2a11.15 9.21-52.7 0 1 .569 14.451 11.15 9.21-52.7 0 1-14.083 3.289 11.15 9.21-52.7 0 1-.569-14.451 11.15 9.21-52.7 0 1 14.083-3.289M114.05 273.536a11.01 9.16-57.1 0 1 1.711 14.219 11.01 9.16-57.1 0 1-13.671 4.269 11.01 9.16-57.1 0 1-1.711-14.219 11.01 9.16-57.1 0 1 13.671-4.269"></path><path fill="#f8de13" fill-rule="evenodd" d="m627.34 1788.36-30.74-18.01a2.206 2.118-19.604 0 0-.4-.18q-1.36-.43-2.41-1.14-4.76-3.22-7.98-5.05-16.2-9.22-46.3-27.67-.22-.13-4-2.31-15.5-8.98-49.27-29.39-13.88-8.39-25.47-15.69-6.71-4.22-25.45-15.8-38.19-23.6-66.78-42.16-22.26-14.45-46.18-32.87c-7-5.39-12.96-10.84-21.9-18.76q-47.7-42.29-89.6-93.36-15.45-18.83-29.94-39.4-13.55-19.22-27.61-41.21-6.98-10.93-19.11-33.23-10.98-20.2-17.28-34.08-17.8-39.24-29.55-79.12-10.86-36.88-15.2-70.17-3.13-23.92-4.23-42.6-.25-4.26-.25-6.91-.01-25.03-.29-35.49c-1.01-37.52-.99-75.56-1.65-112.35q-1.03-57.28-1.24-76.83-.48-42.72-2.38-198.74c-.09-7.25-.54-15.89-.63-23.34-.45-38.6-.71-80.96-1.79-121.83-.67-25.07-.62-51.55-1.31-78.65q-.86-33.56-.88-33.94c-.61-13.03 1.84-25.35 5.37-37.16 1.37-4.57 3.43-6.56 8.23-8.28q71.41-25.6 115.26-37.98 8.39-2.37 42.61-11.47 22.81-6.07 42.81-10.68 39.9-9.22 46.93-10.54c16.02-3.02 29.18-5.36 44.47-8.79q12.4-2.78 18.49-3.78 43.81-7.23 77.65-12.3 13.28-1.99 27.8-3.71 48.16-5.69 65.48-7.73c14.57-1.71 26.81-2.42 46.14-4.04 27.41-2.29 59.76-4.1 90.35-4.97q40.74-1.15 59.43-1.76c15.03-.49 32.01-.15 45.31-.18q9.98-.02 30.34.65 15.05.5 30.3 1.07 78.48 2.95 152.51 11.9 6.38.77 13.07 1.37 9.87.89 13.06 1.35 73.55 10.47 104.54 16.36 46.91 8.91 62.53 12.2 33.41 7.03 44.98 9.84a.443.398 74.592 0 1 .25.16q.32.42 1.04.26.25-.06 1.06.11c20.93 4.41 42.67 9.89 64.02 14.47q55.23 11.86 71.27 15.7 30.74 7.35 66.2 15.78 31.43 7.47 57.75 15.58 8.18 2.52 19.1 6.65 5.55 2.09 9.81 5a2.678 2.67 16.972 0 1 1.17 2.19q.57 76.86 2.19 184.13c.95 63.46 1.31 121.55 2.19 183.08.74 51.86 1.03 109.36 1.7 157.77.95 69.68 1.01 144.06 2.63 219.67.24 11.21.36 25.13-1.26 38.27q-3.11 25.4-7.74 44.52-5.36 22.1-13.61 45.2-15.7 43.94-39.93 86.81-19.46 34.45-41.22 65.27c-13.93 19.72-31.27 41.86-49.6 62.55q-19.46 21.96-32.88 35.7-5.68 5.82-24.65 24.2-14.14 13.72-25.31 23.47c-12.7 11.1-22.89 20.51-34.88 30.24q-36.27 29.43-53.77 42.22c-13.36 9.76-25.95 19.34-39.97 28.96q-42.3 29.02-70.39 46.18c-14.63 8.93-36.62 22.13-54.96 32.25q-36 19.87-44.42 24.37-22.55 12.03-76.56 39.28c-16.74 8.44-29.6 15.44-45.4 23.54q-16.78 8.6-38.44 21.03c-19.19 11.01-41.04 13.66-61.62 4.96q-3.98-1.68-12.3-6.78-9.93-6.08-30.01-19.41-16.72-11.1-30.06-19.58-28.69-18.23-53.85-33.41-4.05-2.44-11.43-6.65-2.6-1.48-5.24-3.09-10.48-6.41-18.87-11.23a.162.158 13.283 0 1-.07-.11q-.05-.22.22-.36a.024.024-53.407 0 0 0-.04m-35.73-969.3q6.93-5.22 9.89-9.59c12.54-18.47 7.32-37.51-9.94-50.52l-.01-445.96a.943.938 87.494 0 0-1.02-.94l-58.27 5.24a.824.817 87.322 0 0-.74.82l-.07 295.46q-6 3.37-12.13 6.27-3.19 1.51-6.44 2.02a1.056 1.053 85.89 0 1-1.22-1.06q.54-38.67.46-73.54-.02-7.24-4.1-11.51-7.32-7.63-19.41-8.81c-3.11-.3-7.09.49-10.57.17a1.452 1.45-72.336 0 1-1.12-2.17l.54-.94a1.972 1.947-4.389 0 1 .53-.61c8.82-7 17.01-15.88 17.7-27.68q.78-13.4-6.68-24.19c-2.68-3.86-4.74-6.43-8.36-8.88-14.92-10.07-34.53-10.67-50.05-2.44q-7.34 3.89-12.85 11.86-11.46 16.57-3.05 35.25 2.7 5.98 8.63 11.69c3.01 2.89 7.81 5.42 11.06 7.32a1.23 1.23-57.073 0 1 .38 1.78c-1.98 2.78-9.41 1.59-12.36 1.1-1.97-.33-3.14.41-4.05 1.96q-5.24 8.92-9.54 15.97l-.08.12-3.21 3.93-.66-214.84a.578.578-5.502 0 0-.68-.56l-57.78 10.35a.868.867-7.353 0 0-.71.92q.24 3.41.24 8.45.28 169.92.07 366-.01 9.06-.24 13.34-3.66 6.19-7.31 12.84-3.43 6.24-7.34 12.84-5.35 9.05-10.66 20.94-.56 1.25-.92 3.26a1.487 1.474-81.965 0 0 1.29 1.73l5.02.56a1.873 1.865 5.008 0 1 1.66 1.97q-.98 15.31-1.05 23.27c-.05 5.55-1.55 7.88-5.86 10.88q-2.89 2.02-5.83.28c-6.94-4.1-13.41-7.97-20.33-9.55-7.4-1.69-10.15 9.63-14.42 8.38-4.61-1.36-6.47-11.34-10.24-14.78-4.34-3.97-10.99-5.27-15.99-2.13q-5.69 3.58-11.72 9.74-6.78 6.94-14.08 13.23-.57-.71-.5-1.17.04-.22.04-.26.23-156.37-.05-313.62-.11-66.13.26-138.33a.6.6-4.687 0 0-.7-.6q-2.45.43-3.72.75-21.72 5.49-52.29 15.19-.27.09-2.98 1.27a1.485 1.465 78.594 0 0-.89 1.36v634.73a.61.6 0 0 1-.61.6H81.66a.42.42-89.301 0 0-.42.41l-1.03 50.72q-.25 12.89.72 26.15c1.19 16.24 2.02 29.21 3.66 42.93q8.5 70.97 31.91 140.71c9.17 27.31 21.31 54.58 33.1 79q1.72 3.57 5.04 9.51 19.07 34.15 37.93 62.43 2.34 3.03 5.26 8.58 3.41 6.49 9 10.8 14.41 18.52 22.21 26.76 7.69 8.12 15.32 16.3 8.75 9.37 17.94 18.42 10.56 10.41 37.44 33.54 30.9 26.6 71.55 55.44 42.89 30.42 96.82 66.39 13.63 9.09 30.34 19.76 27.66 17.66 30.49 19.5 13.43 8.71 30.62 19.23 2.72 1.67 30.68 19.1c2.43 1.51 5.25 2.94 7.84 4.54q28.59 17.6 55.82 33.97 3.53 2.13 4.97 2.96 23.42 13.42 46.56 27.19.17.1 42.83 24.76 20.26 11.71 40.5 23.58 4.07 2.39 7.24 2.84 3.14.45 12.36.4l12.69.7a.563.563 1.411 0 0 .6-.57q-.34-202.95-.18-410.38.01-12.49.31-17.28.53-8.63.08-17.3-.47-8.95-.43-25.61c.25-108.72-.16-270.94.15-351.97a.46.46-60.171 0 1 .46-.46h58.45a.55.55-53.167 0 1 .55.55l6.25 786.36a.392.39 72.522 0 0 .61.32l55.08-37.5a1.343 1.324 72.991 0 0 .59-1.13q-2-215.83-3.4-427.37 0-1.03.46-1.41 1.07 1.02 2.51 2.03 1.65 1.16 2.49 2.07c5.29 5.66 10.76 9.6 18.24 11.96 14.41 4.54 30.82 3.85 43.54-4.27q6.45-4.11 12.59-11.28c5.22-6.09 7.74-12.6 9.09-20.25q2.6-14.8-6.39-27.28a1.037 1.034-19.093 0 1 .8-1.64q5.17-.21 7.76-.11 7.54.29 14.69-2.56l1.01 272.14-6.33 20.15a2.175 2.117-22.422 0 1-.19.44c-2.52 4.55-8.75 6.11-13.93 7.49q-2.42.65-4.35-.12-7.27-2.88-9.3-3.43c-5.35-1.44-8.8 3.86-8.91 8.53-.21 9.4 5.83 15.86 14.39 18.96q3.57 1.29 15.9 4.56 4.61 1.22 12.51 6.39l.59 87.52a.257.255-17.114 0 0 .4.21l57.3-40.11a2.018 2.008-18.029 0 0 .85-1.66l-1.43-197.51q3.42-7.97 7.56-14.31 10.81-16.56 27.89-34.61 3.51-3.71 7.74-6.51c6.5-4.29 18.2-1.44 24.9-.2q4.23.78 5.55 3.74 2.94 6.61 3.76 17.72 1.97 26.59 3.11 42.84c.43 5.96 1.47 9.38 4.74 14.06q3.52 5.05 6.8 9.18 2.68 3.37 9.47 7.74a2.317 2.303 57.272 0 0 1.54.34c4.3-.57 8.68-4.82 11.73-8.09q.6-.64 2.25-1.6 1.24-.72 2.1-1.85l1.27 98.53a.655.654-21.819 0 0 1.1.47q17.68-16.45 37.6-32.69 6.46-5.26 12.81-9.62a2.295 2.288-17.454 0 0 1-1.91l-.31-60.74q7.72-7.69 4.39-18-3.84-11.93-4.92-16.81l-.12-17.85-.34-20.93q-.36-47.2-.49-93.91-.04-11.75-.3-30.62c-.32-22.46.12-45.06-.37-64.77q-.47-18.54-.58-34.18-1.32-175.88-1.47-176.93a.463.459-3.795 0 1 .46-.52l120.82-.03a.191.18 88.317 0 1 .18.18l5.43 416.13a.335.334 63.337 0 0 .6.2q7.63-10.26 14.82-20.09 6.9-9.44 43.65-63.6 1.21-1.78 1.19-4.06-1.5-158.61-4.27-328.15a.49.49 89.427 0 1 .49-.5h68.62a.71.71 45 0 0 .71-.71l-.29-78-.6-541.58a.83.83-77.787 0 0-.47-.73q-1.95-.93-4.08-1.48c-12.63-3.32-23.3-6.65-35.24-9.61q-8.17-2.03-23.71-6.4c-37.77-10.63-92.57-22.96-114.87-28.31-15.05-3.61-30.83-6.79-45.85-10.21q-15.46-3.53-34.48-7.37-66.9-13.5-74.05-14.85-45.6-8.58-57.93-10.63c-30.76-5.11-52.55-9.05-78.42-12.92q-69.61-10.42-141.9-16.65-30.05-2.59-65.93-4.6-6-.33-11.55-.1l-27.19-.95a.731.73.764 0 0-.75.73v720.58a.63.62-90 0 1-.62.63h-61.98a.78.77 90 0 1-.77-.78V299.46a.69.68-.415 0 0-.7-.68q-25.75.35-55.32 1.17c-.69.01-1.62-.26-2.51-.31a.59.581-88.613 0 0-.61.59v727.57a.47.47-56.256 0 1-.47.47h-92.8a1.1 1.09-90 0 1-1.09-1.1z"></path><path fill-rule="evenodd" d="M836.2 307.22q-8.77 1.04-17.23.56a1.123 1.123 1.457 0 0-1.18 1.12v719.04a.74.74-.382 0 0 .75.74q8.12-.09 45.96-.09 339.13-.05 657.25.11 2.61 0 2.56-2.7-.45-23.56.97-53.34l.29 78a.71.71-45 0 1-.71.71h-68.62a.49.49 89.427 0 0-.49.5q2.77 169.54 4.27 328.15.02 2.28-1.19 4.06-36.75 54.16-43.65 63.6-7.19 9.83-14.82 20.09a.335.334 63.337 0 1-.6-.2l-5.43-416.13a.191.18 88.317 0 0-.18-.18l-120.82.03a.463.459-3.795 0 0-.46.52q.15 1.05 1.47 176.93.11 15.64.58 34.18c.49 19.71.05 42.31.37 64.77q.26 18.87.3 30.62.13 46.71.49 93.91-2.75-8.01-9.13-10.25a3.023 2.954-40.894 0 0-1.66-.1q-1.75.39-4.61 1.48-5.25 2-10.3 1.95a1.048 1.045 9.713 0 1-.98-1.38q2.69-7.94 6.15-19.14c1.31-4.23 3.11-7.6 5.02-11.46 1.82-3.68 3.26-10.08 3.68-15.22 1.2-14.94 4.87-32.26 6-46.5q1.79-22.74.67-44.34-.62-12.09-1.62-16.54c-3.81-16.93-5.64-29.55-8.73-47.73-.86-5.05-2.41-9.2-4.85-12.96q-6-9.26-9.58-15.72c-1.71-3.1-3.96-6.14-5.74-9.14-5.21-8.75-12.59-15.88-21.18-21.37q-1.11-.71-1.14-1.45l-1.18-130.33a.8.79 89.633 0 0-.79-.79h-114.02a.52.51 90 0 0-.51.52l.41 62.36q-2.1 6.47-1.96 10.26.35 9.55.24 19.11-.02 1.93 2.33 5.55l.21 32.81q-9.91 8.13-21.94 15.06-15.21 8.76-16.54 9.67c-5.76 3.91-6.61 6.61-7.95 13.56q-4.37 22.79-5.3 27.48-2.1 10.58-5.37 21.22l-.61-216.93a.69.69 81.839 0 0-.69-.69H937.83a.24.23-90 0 0-.23.24l2.22 270.02c-1.78 3.4-4.07 7.21-5.07 10.57q-3.74 12.56-.34 25.18.61 2.27 2.96 6.99 1.68 3.36 3.26 6.88-.46.38-.46 1.41 1.4 211.54 3.4 427.37a1.343 1.324 72.991 0 1-.59 1.13l-55.08 37.5a.392.39 72.522 0 1-.61-.32l-6.25-786.36a.55.55-78.769 0 0-.55-.55h-58.45a.46.46-84.145 0 0-.46.46c-.31 81.03.1 243.25-.15 351.97q-.04 16.66.43 25.61.45 8.67-.08 17.3-.3 4.79-.31 17.28-.16 207.43.18 410.38a.563.563 1.411 0 1-.6.57l-12.69-.7q2-.31 1.77-4.28-.23-4.15-.23-4.24.18-194.06-.02-388.12-.02-10.72-1.44-18.24 5.84-1.89 11.04-6.21a3.131 3.118 69.695 0 0 1.13-2.47l-1.22-49.33a.561.558 80.306 0 0-.73-.52l-9.52 3.09q-.76-.2.48-1.76a1.014 1.003-25.527 0 0 .23-.64v-351.2a.68.67-90 0 0-.67-.68H83.17a1.853 1.842 88.95 0 0-1.84 1.92q.58 14.26-1.12 27.89l1.03-50.72a.42.42-89.301 0 1 .42-.41h84.89a.61.6 0 0 0 .61-.6V392.89a1.485 1.465 78.594 0 1 .89-1.36q2.71-1.18 2.98-1.27 30.57-9.7 52.29-15.19 1.27-.32 3.72-.75a.6.6 32.358 0 1 .7.6q-.37 72.2-.26 138.33.28 157.25.05 313.62 0 .04-.04.26-.07.46.5 1.17-3.29 3.35-6.76 6.67-3.36 3.21-4.54 5.96c-1.91 4.45-6.66 20.28-3.03 25.86q3.45 5.31 9.54 4.8.99-.09 3.96-1.48.44 1.26.44 2.14.03 79.26-.17 154.84a1.13 1.12.251 0 0 1.13 1.13h116.17a1.19 1.18-90 0 0 1.18-1.19V859.32l30.75-48.6a1.373 1.369 28.49 0 1 1.73-.51q5.01 2.3 11.56 5.6 1.67.84 3.76 1.16a.851.843-68.743 0 0 .83-.37q1.68-2.59 2.59-4.47 4.34-9.09 7.79-18.45.17.02.29.05a.273.272-81.271 0 1 .19.26l.06 97.33q-.61 4.01-3.7 13.5c-3.82 11.75-7.23 21.01-14.18 30.88q-4.23 6.03-8.48 12.41c-2.93 4.4-7.46 10.39-6.17 14.79 1.02 3.49 3.5 2.86 6.38 2.89q13.34.17 25.95-1.08v62.88a.69.69-45 0 0 .69.69h125.03a.46.45 90 0 0 .45-.46l.13-217.95q4.67 5.61 10.63 9.46c14.92 9.63 34.39 8.8 49.42-.27l-.22 208.11a1.1 1.09 90 0 0 1.09 1.1h92.8a.47.47 74.821 0 0 .47-.47V300.23a.59.581-88.613 0 1 .61-.59c.89.05 1.82.32 2.51.31q29.57-.82 55.32-1.17a.69.68-.415 0 1 .7.68v727.97a.78.77 90 0 0 .77.78h61.98a.63.62-90 0 0 .62-.63V307a.731.73.764 0 1 .75-.73z"></path><path fill="#1f379d" fill-rule="evenodd" d="M1525.28 972.66q-1.42 29.78-.97 53.34.05 2.7-2.56 2.7-318.12-.16-657.25-.11-37.84 0-45.96.09a.74.74-.382 0 1-.75-.74V308.9a1.123 1.123 1.457 0 1 1.18-1.12q8.46.48 17.23-.56 5.55-.23 11.55.1 35.88 2.01 65.93 4.6 72.29 6.23 141.9 16.65c25.87 3.87 47.66 7.81 78.42 12.92q12.33 2.05 57.93 10.63 7.15 1.35 74.05 14.85 19.02 3.84 34.48 7.37c15.02 3.42 30.8 6.6 45.85 10.21 22.3 5.35 77.1 17.68 114.87 28.31q15.54 4.37 23.71 6.4c11.94 2.96 22.61 6.29 35.24 9.61q2.13.55 4.08 1.48a.83.83-77.787 0 1 .47.73zm-360.661-427.259a55.15 49.14-.3 0 0-55.406-48.85 55.15 49.14-.3 0 0-54.892 49.428 55.15 49.14-.3 0 0 55.406 48.85 55.15 49.14-.3 0 0 54.892-49.428M908.04 742.85q21.77 14.11 88.66 57.13c2.78 1.79 5.57 3.89 8.26 5.56q16.09 9.97 32.47 20.55 6.97 4.5 12.18 8.54a1.714 1.699 17.807 0 1 .67 1.29l.56 13.21a1.052 1.051 88.423 0 1-1.04 1.1l-197.52 2.58a.624.62-4.105 0 0-.61.7l4.2 33.46a.558.554 86.483 0 0 .55.49l294.27 1.63a.934.918 70.764 0 1 .73.36q8.55 10.9 17.23 22.41 1.93 2.57 3.72 3.78a3.776 3.752 60.564 0 0 2.34.66l37.61-1.87a.845.842-17.833 0 0 .67-1.3q-9.39-14.36-15.51-24.6-1.22-2.04-1.97-4.18a.701.699-9.346 0 1 .67-.93l316.35 3.8a.58.58 44.609 0 0 .59-.59l-.48-36.99a.42.42-6.429 0 0-.41-.41l-79.65-1.95a.635.631-78.408 0 1-.57-.87c2.53-6.19 6.44-9.92 11.83-15.34 4.66-4.67 10.31-8.09 14.83-11.88q9.55-8 15.53-18.31c8.28-14.28 7.34-29.3-1.07-43.28-3.09-5.14-10.1-10.88-14.05-14.19q-28.7-24.04-46.11-39.17a.6.591-44.591 0 0-.79 0q-16.84 14.88-20.76 18.18c-8.46 7.13-17.75 13.64-27.74 17.58q-5.01 1.97-7.04 2.14-12.24 1.04-21.98-5.31c-12.77-8.32-27.87-17.02-39.21-24.27q-10.16-6.5-34.74-20.5-20.19-11.49-39.07-16.67c-10.55-2.89-18.77-3.62-29.43-1.74-7.4 1.31-11.41 5.85-15.89 11.41q-19.8 24.54-20.4 25.24-7.72 9.1-20.64 25.07-11.56 14.31-32.68 39.48-5.72 6.81-28.14 34.37-1.87 2.31-3.71 4a1.136 1.132-46.43 0 1-1.49.04l-94.82-77.98a.48.476 53.667 0 1 .12-.81c10.39-4.29 21.53-8.07 30.83-11.78q67.64-26.91 141.5-55.53.09-.03 5.09-2.04 31.89-12.76 68.01-26.74 2.09-.81 4.16.69.36.26 17.8 12.92 9.77 7.09 14.32 9.05c12.53 5.39 29.01 6.54 41.77 3.03 9.86-2.72 15.13-11.31 15.59-20.95.37-7.61-1.97-22.3-8.71-27.4q-25.71-19.43-51.92-40.21-18.99-15.06-30.59-23.72a.899.894 47.662 0 0-1.01-.05l-313.35 190.5a.359.357-44.241 0 0-.01.61"></path><path fill-rule="evenodd" d="M591.56 758.95q-12.66-7.84-27.81-7.09c-13.38.65-23.42 6.71-32.46 16.48l.2-84.83c1.19-3.12 4.72-5.03 2.85-9.13q-1.67-3.68-3.21-6.69l.4-22.17q10.09-3.02 13.29-13.22c1.83-5.85 1.9-16.53-5.8-18.35q-3.03-.71-7.57-.38l.07-295.46a.824.817 87.322 0 1 .74-.82l58.27-5.24a.943.938 87.494 0 1 1.02.94zM405.53 551.18q-11.11 17.87-20.69 37.86-5.14 10.73-8.49 21.88c-4.22 14-4.91 26.39-3.32 40.31q2.23 19.62 13.78 35.48a1.653 1.643-37.799 0 1-.29 2.24c-8.14 6.7-15.54 12.42-22.21 20.22q-10.15 11.86-18.54 25.67.23-4.28.24-13.34.21-196.08-.07-366 0-5.04-.24-8.45a.868.867-7.353 0 1 .71-.92l57.78-10.35a.578.578-5.502 0 1 .68.56z"></path><path fill="#fff" fill-rule="evenodd" d="M531.45 613.57q4.54-.33 7.57.38c7.7 1.82 7.63 12.5 5.8 18.35q-3.2 10.2-13.29 13.22l-11.42-1.05a.545.54 86.163 0 0-.58.67q1.16 4.68 3 8.6 3.42 7.25 8.6 13.95 1.54 3.01 3.21 6.69c1.87 4.1-1.66 6.01-2.85 9.13l-.37.76a.812.807 28.059 0 1-1.13.34q-1.56-.88-3.04-.97a2.021 2.018-5.961 0 1-1.84-1.49q-1.15-4.25-3.22-9.02-3.08-7.08-9.01-11.52a2.082 2.082-58.685 0 0-3.12.76q-.53 1.09-1.03 3.34-4.26 19.12-4.35 19.47c-1.25 4.8-4.27 7.46-8.05 10.63-6.56 5.5-4.6 15.03-.87 21.51q2.04 3.55 7.91 10.01c1.2 1.31 2.17 2.87 2.05 4.5-.71 9.58-1.01 15.56-2.02 23.57q-1.46 11.59-2.26 20.59-.77 8.77-2.91 16.76c-1.1 4.11-4.74 4.37-9.11 5.52a2.556 2.547 5.367 0 0-1.66 1.37q-11.31 23.55-21.97 44.87-1.87 3.74-2.36 6.24a6.651 6.595-44.755 0 0-.02 2.34q.92 5.22 1 6.04.39 4.11-1.02 10.5-5.35 24.12-20.69 44.06-5.18 6.74-8.4 10.18c-2.62 2.79-3.38 4.75-1.84 8.01q2.09 4.44 6.89 12.08c1.05 1.68 2.4 4.73 1.47 6.83-2.83 6.4-12.98 9.26-19.53 10.42q-8.01 1.42-15.73 3.5-12.61 1.25-25.95 1.08c-2.88-.03-5.36.6-6.38-2.89-1.29-4.4 3.24-10.39 6.17-14.79q4.25-6.38 8.48-12.41c6.95-9.87 10.36-19.13 14.18-30.88q3.09-9.49 3.7-13.5 3.59-4.58 4.57-10.53.34-2.04 5.34-11.97 5.04-9.99 12.68-14.99c2.07-1.36 4.69-4.1 5.31-5.76 4.51-12.1 2.49-26.63-4.72-36.99-5.79-8.3-13.13-13.81-20.53-19.67a1.377 1.375-55.071 0 0-2.02.36l-1.17 1.91q-3.45 9.36-7.79 18.45-.91 1.88-2.59 4.47a.851.843-68.743 0 1-.83.37q-2.09-.32-3.76-1.16-6.55-3.3-11.56-5.6a1.373 1.369 28.49 0 0-1.73.51l-30.75 48.6q-.94 1.52-2.4 2.29a2.622 2.592 6.671 0 0-.64.5c-8.97 9.61-20.45 13.73-33.38 9.6-10.11-3.23-19.84-10.37-28.17-17.07q-7.27-5.86-17.68-8.47-7.92-1.99-13.53 3.46-5.2 5.05-12.41 12.82-2.29 2.48-10.54 7.66-2.97 1.39-3.96 1.48-6.09.51-9.54-4.8c-3.63-5.58 1.12-21.41 3.03-25.86q1.18-2.75 4.54-5.96 3.47-3.32 6.76-6.67 7.3-6.29 14.08-13.23 6.03-6.16 11.72-9.74c5-3.14 11.65-1.84 15.99 2.13 3.77 3.44 5.63 13.42 10.24 14.78 4.27 1.25 7.02-10.07 14.42-8.38 6.92 1.58 13.39 5.45 20.33 9.55q2.94 1.74 5.83-.28c4.31-3 5.81-5.33 5.86-10.88q.07-7.96 1.05-23.27a1.873 1.865 5.008 0 0-1.66-1.97l-5.02-.56a1.487 1.474-81.965 0 1-1.29-1.73q.36-2.01.92-3.26 5.31-11.89 10.66-20.94 3.91-6.6 7.34-12.84 3.65-6.65 7.31-12.84 8.39-13.81 18.54-25.67c6.67-7.8 14.07-13.52 22.21-20.22a1.653 1.643-37.799 0 0 .29-2.24q-11.55-15.86-13.78-35.48c-1.59-13.92-.9-26.31 3.32-40.31q3.35-11.15 8.49-21.88 9.58-19.99 20.69-37.86l3.21-3.93.08-.12q4.3-7.05 9.54-15.97c.91-1.55 2.08-2.29 4.05-1.96 2.95.49 10.38 1.68 12.36-1.1a1.23 1.23-57.073 0 0-.38-1.78c-3.25-1.9-8.05-4.43-11.06-7.32q-5.93-5.71-8.63-11.69-8.41-18.68 3.05-35.25 5.51-7.97 12.85-11.86c15.52-8.23 35.13-7.63 50.05 2.44 3.62 2.45 5.68 5.02 8.36 8.88q7.46 10.79 6.68 24.19c-.69 11.8-8.88 20.68-17.7 27.68a1.972 1.947-4.389 0 0-.53.61l-.54.94a1.452 1.45-72.336 0 0 1.12 2.17c3.48.32 7.46-.47 10.57-.17q12.09 1.18 19.41 8.81 4.08 4.27 4.1 11.51.08 34.87-.46 73.54a1.056 1.053 85.89 0 0 1.22 1.06q3.25-.51 6.44-2.02 6.13-2.9 12.13-6.27M1164.619 545.401a55.15 49.14-.3 0 1-54.892 49.428 55.15 49.14-.3 0 1-55.406-48.85 55.15 49.14-.3 0 1 54.892-49.428 55.15 49.14-.3 0 1 55.406 48.85M908.04 742.85a.359.357-44.241 0 1 .01-.61l313.35-190.5a.899.894 47.662 0 1 1.01.05q11.6 8.66 30.59 23.72 26.21 20.78 51.92 40.21c6.74 5.1 9.08 19.79 8.71 27.4-.46 9.64-5.73 18.23-15.59 20.95-12.76 3.51-29.24 2.36-41.77-3.03q-4.55-1.96-14.32-9.05-17.44-12.66-17.8-12.92-2.07-1.5-4.16-.69-36.12 13.98-68.01 26.74-5 2.01-5.09 2.04-73.86 28.62-141.5 55.53c-9.3 3.71-20.44 7.49-30.83 11.78a.48.476 53.667 0 0-.12.81l94.82 77.98a1.136 1.132-46.43 0 0 1.49-.04q1.84-1.69 3.71-4 22.42-27.56 28.14-34.37 21.12-25.17 32.68-39.48 12.92-15.97 20.64-25.07.6-.7 20.4-25.24c4.48-5.56 8.49-10.1 15.89-11.41 10.66-1.88 18.88-1.15 29.43 1.74q18.88 5.18 39.07 16.67 24.58 14 34.74 20.5c11.34 7.25 26.44 15.95 39.21 24.27q9.74 6.35 21.98 5.31 2.03-.17 7.04-2.14c9.99-3.94 19.28-10.45 27.74-17.58q3.92-3.3 20.76-18.18a.6.591-44.591 0 1 .79 0q17.41 15.13 46.11 39.17c3.95 3.31 10.96 9.05 14.05 14.19 8.41 13.98 9.35 29 1.07 43.28q-5.98 10.31-15.53 18.31c-4.52 3.79-10.17 7.21-14.83 11.88-5.39 5.42-9.3 9.15-11.83 15.34a.635.631-78.408 0 0 .57.87l79.65 1.95a.42.42 30.039 0 1 .41.41l.48 36.99a.58.58-44.679 0 1-.59.59l-316.35-3.8a.701.699-9.346 0 0-.67.93q.75 2.14 1.97 4.18 6.12 10.24 15.51 24.6a.845.842-17.833 0 1-.67 1.3l-37.61 1.87a3.776 3.752 60.564 0 1-2.34-.66q-1.79-1.21-3.72-3.78-8.68-11.51-17.23-22.41a.934.918 70.764 0 0-.73-.36l-294.27-1.63a.558.554 86.483 0 1-.55-.49l-4.2-33.46a.624.62-4.105 0 1 .61-.7l197.52-2.58a1.052 1.051 88.423 0 0 1.04-1.1l-.56-13.21a1.714 1.699 17.807 0 0-.67-1.29q-5.21-4.04-12.18-8.54-16.38-10.58-32.47-20.55c-2.69-1.67-5.48-3.77-8.26-5.56q-66.89-43.02-88.66-57.13m424.05 111.49a1.657 1.65-17.151 0 0 1.37-2.58q-1.42-2.1-3.43-3.54-14.1-10.16-35.92-26.62-14.63-11.03-30.12-22.54-13.17-9.79-21.66-16.3c-12.68-9.74-19.64-15.35-23.57-18.28q-2.59-1.93-3.53-1.84-11.14 1.09-17.78 5.83c-4.83 3.46-11.45 8.2-16.78 12.57q-28.03 22.96-58.76 46.33c-7.97 6.06-7.04 15.71-.27 22.01q2.01 1.87 4.24 1.98 6.7.33 13.37.44 50.3.79 59.51.87c43.53.36 96.1 1.71 133.33 1.67" data-source="https://football-logos.cc"></path><path fill="#f8de13" fill-rule="evenodd" d="m531.53 645.52-.4 22.17q-5.18-6.7-8.6-13.95-1.84-3.92-3-8.6a.545.54 86.163 0 1 .58-.67zM531.49 683.51l-.2 84.83q-11.37 17.61-2.73 36.75.73 1.6 3 4.78l-.13 217.95a.46.45 90 0 1-.45.46H405.95a.69.69 45 0 1-.69-.69v-62.88q7.72-2.08 15.73-3.5c6.55-1.16 16.7-4.02 19.53-10.42.93-2.1-.42-5.15-1.47-6.83q-4.8-7.64-6.89-12.08c-1.54-3.26-.78-5.22 1.84-8.01q3.22-3.44 8.4-10.18 15.34-19.94 20.69-44.06 1.41-6.39 1.02-10.5-.08-.82-1-6.04a6.651 6.595-44.755 0 1 .02-2.34q.49-2.5 2.36-6.24 10.66-21.32 21.97-44.87a2.556 2.547 5.367 0 1 1.66-1.37c4.37-1.15 8.01-1.41 9.11-5.52q2.14-7.99 2.91-16.76.8-9 2.26-20.59c1.01-8.01 1.31-13.99 2.02-23.57.12-1.63-.85-3.19-2.05-4.5q-5.87-6.46-7.91-10.01c-3.73-6.48-5.69-16.01.87-21.51 3.78-3.17 6.8-5.83 8.05-10.63q.09-.35 4.35-19.47.5-2.25 1.03-3.34a2.082 2.082-58.685 0 1 3.12-.76q5.93 4.44 9.01 11.52 2.07 4.77 3.22 9.02a2.021 2.018-5.961 0 0 1.84 1.49q1.48.09 3.04.97a.812.807 28.059 0 0 1.13-.34z"></path><path fill="#fff" fill-rule="evenodd" d="M591.56 758.95c17.26 13.01 22.48 32.05 9.94 50.52q-2.96 4.37-9.89 9.59c-15.03 9.07-34.5 9.9-49.42.27q-5.96-3.85-10.63-9.46-2.27-3.18-3-4.78-8.64-19.14 2.73-36.75c9.04-9.77 19.08-15.83 32.46-16.48q15.15-.75 27.81 7.09"></path><path fill="#1f379d" fill-rule="evenodd" d="M1332.09 854.34c-37.23.04-89.8-1.31-133.33-1.67q-9.21-.08-59.51-.87-6.67-.11-13.37-.44-2.23-.11-4.24-1.98c-6.77-6.3-7.7-15.95.27-22.01q30.73-23.37 58.76-46.33c5.33-4.37 11.95-9.11 16.78-12.57q6.64-4.74 17.78-5.83.94-.09 3.53 1.84c3.93 2.93 10.89 8.54 23.57 18.28q8.49 6.51 21.66 16.3 15.49 11.51 30.12 22.54 21.82 16.46 35.92 26.62 2.01 1.44 3.43 3.54a1.657 1.65-17.151 0 1-1.37 2.58"></path><path fill="#fff" fill-rule="evenodd" d="M0 780.79v-2.18q.31 1.03 0 2.18"></path><path fill="#f8de13" fill-rule="evenodd" d="m405.46 891.32-.06-97.33a.273.272-81.271 0 0-.19-.26q-.12-.03-.29-.05l1.17-1.91a1.377 1.375-55.071 0 1 2.02-.36c7.4 5.86 14.74 11.37 20.53 19.67 7.21 10.36 9.23 24.89 4.72 36.99-.62 1.66-3.24 4.4-5.31 5.76q-7.64 5-12.68 14.99-5 9.93-5.34 11.97-.98 5.95-4.57 10.53M345.91 859.32v167.71a1.19 1.18-90 0 1-1.18 1.19H228.56a1.13 1.12.251 0 1-1.13-1.13q.2-75.58.17-154.84 0-.88-.44-2.14 8.25-5.18 10.54-7.66 7.21-7.77 12.41-12.82 5.61-5.45 13.53-3.46 10.41 2.61 17.68 8.47c8.33 6.7 18.06 13.84 28.17 17.07 12.93 4.13 24.41.01 33.38-9.6a2.622 2.592 6.671 0 1 .64-.5q1.46-.77 2.4-2.29"></path><path fill="#1f379d" fill-rule="evenodd" d="M809.14 1403.82c-14.92 3.28-33.68 2.15-46.02-7.76q-6.17-4.96-7.96-6.33-8.11-6.25-19.1-8.04-25.66-4.18-48.98 2.93c-8.49 2.59-15.04 7.76-22.88 13.3q-6.11 4.32-13.43 3.74-16.23-1.29-33.85-1.63a1.96 1.96 73.006 0 1-1.56-.83c-16.23-22.87-30.81-44.5-49.71-71.74q-30.57-44.05-40.25-58.13-4.02-5.85-31.25-45.43-16.12-23.41-32.51-46.76-7.87-11.21-14.18-21.18a.635.632 60.372 0 0-.83-.23q-3.49 1.77-16.83 7.81-.77.35-31.14 12.92c-8.36 3.46-16.82 6.84-25.94 10.84-16.68 7.31-29.97 12.15-49.11 20.3q-13.16 5.62-51.45 20.86c-1.7.68-2.95 1.61-3.98 2.97q-4.92 6.48-10.79 15.23c-2.49 3.71-.9 6.92.52 11.67a.73.73-89.853 0 0 .91.49l159.44-49.15a1.14 1.14-70.372 0 1 1.26.42l44.72 61.82a1.267 1.265-30.509 0 1-.49 1.89l-265.26 124.35a1.582 1.578-42.251 0 1-1.5-.07q-17.61-10.42-37.85-16.62a.249.245 85.035 0 0-.29.35q3.96 7.74 14.85 25.26 6.68 10.75 18.87 33.01-18.86-28.28-37.93-62.43-3.32-5.94-5.04-9.51c-11.79-24.42-23.93-51.69-33.1-79q-23.41-69.74-31.91-140.71c-1.64-13.72-2.47-26.69-3.66-42.93q-.97-13.26-.72-26.15 1.7-13.63 1.12-27.89a1.853 1.842 88.95 0 1 1.84-1.92h726.01a.68.67-90 0 1 .67.68v351.2a1.014 1.003-25.527 0 1-.23.64q-1.24 1.56-.48 1.76m-156.321-164.978a58.52 50.78-90.5 0 0-50.267 58.961 58.52 50.78-90.5 0 0 51.289 58.075 58.52 50.78-90.5 0 0 50.267-58.961 58.52 50.78-90.5 0 0-51.289-58.075"></path><path fill="#f8de13" fill-rule="evenodd" d="M1218.08 1182.35q-2.07.22-3.6-.55-20.13-10.1-41.4-18.27c-2.24-.86-14.53-7.47-12.24-11.93 3.02-5.91 6-10.76 5.57-16.52-.22-2.94-1.93-6.04-3.01-8.86a9.271 9.195-59.834 0 1-.56-2.15c-1.05-7.48.11-14.71-5-20.65-2.01-2.34-4.65-5.27-7.44-6.12-10.8-3.25-20.92-1.39-31.34 1.77q-10.87 3.3-17.07 15.04l-.41-62.36a.52.51 90 0 1 .51-.52h114.02a.8.79 89.633 0 1 .79.79zM1045.71 1268.83q-2.24 12.46-3.35 15.76-1.31 3.87-4.81 5.72-15.96 8.47-31.25 15.56a1.814 1.796-42.633 0 1-1.66-.06q-2.98-1.66-5.99-2.65-24.33-7.99-44.6 5.26c-5.23 3.42-9.26 8.4-14.07 12.54a.308.293-22.606 0 0-.11.25q.01.13-.05.26l-2.22-270.02a.24.23 90 0 1 .23-.24h106.58a.69.69-64.821 0 1 .69.69z"></path><path fill="#fff" fill-rule="evenodd" d="M1218.08 1182.35q.03.74 1.14 1.45c8.59 5.49 15.97 12.62 21.18 21.37 1.78 3 4.03 6.04 5.74 9.14q3.58 6.46 9.58 15.72c2.44 3.76 3.99 7.91 4.85 12.96 3.09 18.18 4.92 30.8 8.73 47.73q1 4.45 1.62 16.54 1.12 21.6-.67 44.34c-1.13 14.24-4.8 31.56-6 46.5-.42 5.14-1.86 11.54-3.68 15.22-1.91 3.86-3.71 7.23-5.02 11.46q-3.46 11.2-6.15 19.14a1.048 1.045 9.713 0 0 .98 1.38q5.05.05 10.3-1.95 2.86-1.09 4.61-1.48a3.023 2.954-40.894 0 1 1.66.1q6.38 2.24 9.13 10.25l.34 20.93q-1.44 9.05.12 17.85 1.08 4.88 4.92 16.81 3.33 10.31-4.39 18-3.79 1.6-8.17 4.61-1.41.97-3.72 1.02a1.927 1.882-29.74 0 1-1-.26q-6.49-3.65-8.87-6.18-9.4-9.97-14.21-14.59-2.08-1.99-4.18-3.13a1.127 1.126-70.681 0 0-1.64.79q-.94 5.1-1.1 9.94-.15 4.34-1.38 6.02-2.6 3.51-9.2 7.74-.86 1.13-2.1 1.85-1.65.96-2.25 1.6c-3.05 3.27-7.43 7.52-11.73 8.09a2.317 2.303 57.272 0 1-1.54-.34q-6.79-4.37-9.47-7.74-3.28-4.13-6.8-9.18c-3.27-4.68-4.31-8.1-4.74-14.06q-1.14-16.25-3.11-42.84-.82-11.11-3.76-17.72-1.32-2.96-5.55-3.74c-6.7-1.24-18.4-4.09-24.9.2q-4.23 2.8-7.74 6.51-17.08 18.05-27.89 34.61-4.14 6.34-7.56 14.31-6.05 21.82-12.58 43.1-15.02 48.91-24.8 79.72-1.71 5.38-2.87 19.51-.28 3.51-1.06 5.39c-1.83 4.39-6.2 8.79-11.36 6.19q-3.78-1.9-5.04-2.36-7.9-5.17-12.51-6.39-12.33-3.27-15.9-4.56c-8.56-3.1-14.6-9.56-14.39-18.96.11-4.67 3.56-9.97 8.91-8.53q2.03.55 9.3 3.43 1.93.77 4.35.12c5.18-1.38 11.41-2.94 13.93-7.49a2.175 2.117-22.422 0 0 .19-.44l6.33-20.15q4.37-8.93 4.39-13.39c.16-30.59-.57-46.57 2.43-69.19.44-3.33.4-6.42 3.12-8.7q4.59-3.86 6.85-5.57c3.57-2.69 6.07-6.02 8.03-10.02q5.84-11.88 6.59-13.4 2.3-4.66 3.72-9.76 1.08-3.86 1.09-10.34c.04-16.24-.54-29.63-.43-40.71.16-15.91 3.97-29.86 8.9-44.14q1.05-3.04 5.99-14.31 3.26-7.41 5.77-14.41 6.84-7.39 11.38-15.18 1.37-2.34.79-4.85-3.81-16.6-9.46-34.82-.48-1.54-2.65-4l-.04-5.35a.292.291 65.329 0 0-.51-.19q-8.08 8.97-12.56 14.54-4.59 5.72-9.75 10.26-8.95 7.86-10.84 9.16-7.8 5.31-23.82 12.23-7.15 2.85-14.69 2.56-2.59-.1-7.76.11a1.037 1.034-19.093 0 0-.8 1.64q8.99 12.48 6.39 27.28c-1.35 7.65-3.87 14.16-9.09 20.25q-6.14 7.17-12.59 11.28c-12.72 8.12-29.13 8.81-43.54 4.27-7.48-2.36-12.95-6.3-18.24-11.96q-.84-.91-2.49-2.07-1.44-1.01-2.51-2.03-1.58-3.52-3.26-6.88-2.35-4.72-2.96-6.99-3.4-12.62.34-25.18c1-3.36 3.29-7.17 5.07-10.57q.06-.13.05-.26a.308.293-22.606 0 1 .11-.25c4.81-4.14 8.84-9.12 14.07-12.54q20.27-13.25 44.6-5.26 3.01.99 5.99 2.65a1.814 1.796-42.633 0 0 1.66.06q15.29-7.09 31.25-15.56 3.5-1.85 4.81-5.72 1.11-3.3 3.35-15.76 3.27-10.64 5.37-21.22.93-4.69 5.3-27.48c1.34-6.95 2.19-9.65 7.95-13.56q1.33-.91 16.54-9.67 12.03-6.93 21.94-15.06 5.39-1.48 7.92-5.18a1.972 1.923 55.426 0 0 .27-1.58q-1.27-4.94-2.47-10.33-1.21-5.41-5.93-15.72-2.35-3.62-2.33-5.55.11-9.56-.24-19.11-.14-3.79 1.96-10.26 6.2-11.74 17.07-15.04c10.42-3.16 20.54-5.02 31.34-1.77 2.79.85 5.43 3.78 7.44 6.12 5.11 5.94 3.95 13.17 5 20.65a9.271 9.195-59.834 0 0 .56 2.15c1.08 2.82 2.79 5.92 3.01 8.86.43 5.76-2.55 10.61-5.57 16.52-2.29 4.46 10 11.07 12.24 11.93q21.27 8.17 41.4 18.27 1.53.77 3.6.55"></path><path fill="#f8de13" fill-rule="evenodd" d="m1102.81 1181.84-.21-32.81q4.72 10.31 5.93 15.72 1.2 5.39 2.47 10.33a1.972 1.923 55.426 0 1-.27 1.58q-2.53 3.7-7.92 5.18"></path><path fill="#fff" fill-rule="evenodd" d="m809.14 1403.82 9.52-3.09a.561.558 80.306 0 1 .73.52l1.22 49.33a3.131 3.118 69.695 0 1-1.13 2.47q-5.2 4.32-11.04 6.21-14.89 1.85-29.32.55a4.985 4.966 72.798 0 1-3.38-1.79q-4.22-5.09-8.81-9.85c-12.76-13.26-33.4-14.6-50.43-14.19-10.11.24-19.3 1.99-27.23 8.47q-1.63 1.33-4.5 4.18-7.89 7.85-18.72 8.73c-6.8.55-15.21.45-22.1-.88-10.82-2.1-19.88-3.78-27.42-8.03q-5.08-2.86-10.16-4.8c-11.26-4.3-22.25-7.96-34.15-6.49-8.26 1.02-13.56 6.81-20.34 10.81q-7.1 4.19-10.61 6c-7.52 3.9-19.37 8.23-29.27 8.41q-8.96.16-17.21-.22c-1.93-.08-3.45-.54-4.82-1.63q-14.13-11.23-18.2-13.53-11.44-6.48-18.1-8.7-17.46-5.81-37.3-3.43c-7 .84-13.87 2.6-19.52 7.1q-1.72 1.36-5.72 6.51c-4.52 5.82-11.39 13.35-18.86 13.32q-16.21-.08-24.02-.3-5.94-.16-9.49-.85a5.002 4.933 69.916 0 1-2.22-1.05q-6.18-5.05-11.09-9.04-15.18-12.34-35.93-13.55-19.48-1.14-38.01 3.73c-6.14 1.61-11.27 7.86-14.61 10.66q-6.8 5.68-16.11 7.51-6.51 1.29-13.96 2.55-5.59-4.31-9-10.8-2.92-5.55-5.26-8.58-12.19-22.26-18.87-33.01-10.89-17.52-14.85-25.26a.249.245 85.035 0 1 .29-.35q20.24 6.2 37.85 16.62a1.582 1.578-42.251 0 0 1.5.07l265.26-124.35a1.267 1.265-30.509 0 0 .49-1.89l-44.72-61.82a1.14 1.14-59.035 0 0-1.26-.42l-159.44 49.15a.73.73-70.302 0 1-.91-.49c-1.42-4.75-3.01-7.96-.52-11.67q5.87-8.75 10.79-15.23c1.03-1.36 2.28-2.29 3.98-2.97q38.29-15.24 51.45-20.86c19.14-8.15 32.43-12.99 49.11-20.3 9.12-4 17.58-7.38 25.94-10.84q30.37-12.57 31.14-12.92 13.34-6.04 16.83-7.81a.635.632 60.372 0 1 .83.23q6.31 9.97 14.18 21.18 16.39 23.35 32.51 46.76 27.23 39.58 31.25 45.43 9.68 14.08 40.25 58.13c18.9 27.24 33.48 48.87 49.71 71.74a1.96 1.96 73.006 0 0 1.56.83q17.62.34 33.85 1.63 7.32.58 13.43-3.74c7.84-5.54 14.39-10.71 22.88-13.3q23.32-7.11 48.98-2.93 10.99 1.79 19.1 8.04 1.79 1.37 7.96 6.33c12.34 9.91 31.1 11.04 46.02 7.76"></path><path fill="#fff" fill-rule="evenodd" d="M652.819 1238.842a58.52 50.78-90.5 0 1 51.289 58.075 58.52 50.78-90.5 0 1-50.267 58.961 58.52 50.78-90.5 0 1-51.289-58.075 58.52 50.78-90.5 0 1 50.267-58.961"></path><path fill-rule="evenodd" d="m1103.47 1279.11-.06 58.85q-2.51 7-5.77 14.41-4.94 11.27-5.99 14.31c-4.93 14.28-8.74 28.23-8.9 44.14-.11 11.08.47 24.47.43 40.71q-.01 6.48-1.09 10.34-1.42 5.1-3.72 9.76-.75 1.52-6.59 13.4c-1.96 4-4.46 7.33-8.03 10.02q-2.26 1.71-6.85 5.57c-2.72 2.28-2.68 5.37-3.12 8.7-3 22.62-2.27 38.6-2.43 69.19q-.02 4.46-4.39 13.39l-1.01-272.14q16.02-6.92 23.82-12.23 1.89-1.3 10.84-9.16 5.16-4.54 9.75-10.26 4.48-5.57 12.56-14.54a.292.291 65.329 0 1 .51.19z"></path><path fill="#f8de13" fill-rule="evenodd" d="m1103.41 1337.96.06-58.85q2.17 2.46 2.65 4 5.65 18.22 9.46 34.82.58 2.51-.79 4.85-4.54 7.79-11.38 15.18"></path><path fill="#1f379d" fill-rule="evenodd" d="M808.44 1459.26q1.42 7.52 1.44 18.24.2 194.06.02 388.12 0 .09.23 4.24.23 3.97-1.77 4.28-9.22.05-12.36-.4-3.17-.45-7.24-2.84-20.24-11.87-40.5-23.58-42.66-24.66-42.83-24.76-23.14-13.77-46.56-27.19-1.44-.83-4.97-2.96-27.23-16.37-55.82-33.97c-2.59-1.6-5.41-3.03-7.84-4.54q-27.96-17.43-30.68-19.1-17.19-10.52-30.62-19.23-2.83-1.84-30.49-19.5-16.71-10.67-30.34-19.76-53.93-35.97-96.82-66.39-40.65-28.84-71.55-55.44-26.88-23.13-37.44-33.54-9.19-9.05-17.94-18.42-7.63-8.18-15.32-16.3-7.8-8.24-22.21-26.76 7.45-1.26 13.96-2.55 9.31-1.83 16.11-7.51c3.34-2.8 8.47-9.05 14.61-10.66q18.53-4.87 38.01-3.73 20.75 1.21 35.93 13.55 4.91 3.99 11.09 9.04a5.002 4.933 69.916 0 0 2.22 1.05q3.55.69 9.49.85 7.81.22 24.02.3c7.47.03 14.34-7.5 18.86-13.32q4-5.15 5.72-6.51c5.65-4.5 12.52-6.26 19.52-7.1q19.84-2.38 37.3 3.43 6.66 2.22 18.1 8.7 4.07 2.3 18.2 13.53c1.37 1.09 2.89 1.55 4.82 1.63q8.25.38 17.21.22c9.9-.18 21.75-4.51 29.27-8.41q3.51-1.81 10.61-6c6.78-4 12.08-9.79 20.34-10.81 11.9-1.47 22.89 2.19 34.15 6.49q5.08 1.94 10.16 4.8c7.54 4.25 16.6 5.93 27.42 8.03 6.89 1.33 15.3 1.43 22.1.88q10.83-.88 18.72-8.73 2.87-2.85 4.5-4.18c7.93-6.48 17.12-8.23 27.23-8.47 17.03-.41 37.67.93 50.43 14.19q4.59 4.76 8.81 9.85a4.985 4.966 72.798 0 0 3.38 1.79q14.43 1.3 29.32-.55"></path><path fill-rule="evenodd" d="m1276.42 1473.15.12 17.85q-1.56-8.8-.12-17.85M1046.75 1654.87q1.26.46 5.04 2.36c5.16 2.6 9.53-1.8 11.36-6.19q.78-1.88 1.06-5.39 1.16-14.13 2.87-19.51 9.78-30.81 24.8-79.72 6.53-21.28 12.58-43.1l1.43 197.51a2.018 2.008-18.029 0 1-.85 1.66l-57.3 40.11a.257.255-17.114 0 1-.4-.21zM1277.07 1525.81l.31 60.74a2.295 2.288-17.454 0 1-1 1.91q-6.35 4.36-12.81 9.62-19.92 16.24-37.6 32.69a.655.654-21.819 0 1-1.1-.47l-1.27-98.53q6.6-4.23 9.2-7.74 1.23-1.68 1.38-6.02.16-4.84 1.1-9.94a1.127 1.126-70.681 0 1 1.64-.79q2.1 1.14 4.18 3.13 4.81 4.62 14.21 14.59 2.38 2.53 8.87 6.18a1.927 1.882-29.74 0 0 1 .26q2.31-.05 3.72-1.02 4.38-3.01 8.17-4.61" data-source="https://football-logos.cc"></path><!-- source: https://football-logos.cc --></svg>