<svg xmlns="http://www.w3.org/2000/svg" viewBox="0.1 -0.04 525.68 524.57"><!-- Source: https://football-logos.cc --><defs data-source="https://football-logos.cc"><clipPath id="a"><path d="M0 0h525.7v524.602H0Zm0 0"></path></clipPath></defs><g clip-path="url(#a)"><path d="M65.809 262.8c0-108.87 88.257-197.128 197.129-197.128 108.875 0 197.132 88.258 197.132 197.129 0 108.875-88.257 197.133-197.132 197.133-108.872 0-197.13-88.258-197.13-197.133M262.938-.04C117.773-.04.098 117.638.098 262.8c0 136.958 104.746 249.45 238.496 261.731h48.687c133.75-12.281 238.5-124.773 238.5-261.73 0-145.164-117.68-262.84-262.843-262.84m0 0" style="stroke:none;fill-rule:evenodd;fill:#000;fill-opacity:1"></path></g><path d="m350.516 45.422-18.704-5.813-3.171 9.93 6.671 1.965-2.41 8.34c-1.039.172-2.043.191-4.691-.586-9.469-2.79-11.332-12.305-8.89-19.528 2.55-7.53 9.64-11.324 17.89-8.914 5.605 1.641 8.812 3.63 11.27 5.622l5.68-8.711c-2.157-1.903-6.872-4.637-13.458-6.579-16.746-4.933-30.234-1.023-35.152 15.278-2.172 7.199-1.465 14.34 1.937 19.98 3.453 5.73 8.219 9.903 17.535 12.649 6.747 1.984 13.961 2.367 17.864 2.25ZM200.602 482.598c6.3-.313 10.007-3.54 11.3-7.657 1.258-3.996.243-7.894-2.543-10.93-3.164-3.491-7.664-5.585-13.922-7.55-5.511-1.734-11.226-3.059-14.527-3.488l-14.648 46.582c2.535 1.203 6.386 2.754 11.488 4.355 10.137 3.188 16.645 3.41 21.16 1.656 3.922-1.535 6.813-4.543 7.988-8.293 1.743-5.53-.628-11.07-6.355-14.492Zm-13.547-7.567 3.48-11.062c.875.07 2.07.312 3.906.886 4.012 1.266 6.418 3.844 5.22 7.653-1.083 3.441-4.782 4.98-9.813 3.398Zm-2.453 7.805 3.062.96c4.352 1.372 8.32 4.442 6.816 9.235-1.453 4.61-6.085 5.313-10.64 3.88-1.43-.45-2.45-.77-3.278-1.231ZM249.441 467.34l-15.832-1.504-19.195 48.2 12.637 1.198 4.078-11.257 12.637 1.199 2.097 11.847 12.922 1.23Zm-16.007 28.246 3.43-9.703c.906-2.762 2.261-7.227 3.257-10.176l.145.016c.422 3.082.922 7.593 1.351 10.613l1.469 10.168ZM76.465 176.57l-44.133-24.53 6.91-11.856 33.953 18.867 9.18-16.793 10.176 5.664ZM96.46 142.16l-38.288-32.45 21.394-25.253 8.329 7.063-12.75 15.187 6.113 5.176 11.66-13.86 8.32 7.051-11.664 13.864 7.211 6.113 12.754-15.188 8.398 7.117ZM120.465 113.566 102.37 64.75l13.965-10.629 41.977 31.328-11.38 8.469-9.554-7.363-10.3 8.129 4.726 10.722Zm0 0" style="stroke:none;fill-rule:evenodd;fill:#fff;fill-opacity:1"></path><path d="m122.34 85.57 7.941-5.808-15.117-11.723Zm0 0" style="stroke:none;fill-rule:evenodd;fill:#000;fill-opacity:1"></path><path d="m216.77 62.05-12.243 4.583-14.109-35.117 3.258 38.304-9.684 3.645-20.656-30.953 11.434 34.93-11.415 4.699-14.632-47.871 16.632-6.489 14.485 21.832c.105.16.297.407.555.766 1.421 1.96 2.5 3.703 3.25 5.21-.247-.886-.555-1.859-.645-2.984l-2.547-30.953 16.41-5.953ZM225.055 60.605l-7.2-48.886 13.473-1.887 7.219 48.973ZM422.953 136.156l42.824-26.863 8.57 13.625-18.554 29.754 26.582-17.117 6.637 10.672-42.824 26.863-7.586-12.203 19.367-32.074-28.344 18.253ZM247.871 58.719l1.258-50.672 16.398.637 14.414 31.472.747-31.511 12.07.316-1.14 51.297-14.802-.66-15.691-35.012-.457 34.394ZM358.02 82.805l19.195-33.403-10.61-6.449 5.614-9.77 33.828 19.602-5.613 9.77-11.348-6.504-19.195 33.398ZM436.566 111.668c-2.496 2.691-5.265 4.809-8.296 6.352-3.043 1.55-6.16 2.726-9.532 3.03-3.375.305-7.781-.34-10.707-1.695-3.066-1.418-5.441-2.984-7.742-5.117-2.344-2.172-5.16-4.879-6.367-7.851-1.215-2.98-1.754-6.133-1.7-9.48.055-3.419.712-6.712 2.032-9.891q1.975-4.753 5.676-8.739c2.476-2.675 6.265-4.656 9.324-6.203 3.05-1.543 6.144-2.203 9.562-2.18 3.38.02 6.043.387 9.102 1.368 3.059.98 5.734 2.968 8.078 5.136 2.32 2.149 4.121 4.946 5.547 7.711 1.469 2.84 2.227 4.79 2.164 8.149-.062 3.36-.453 7.387-1.773 10.57-1.317 3.164-2.887 6.168-5.368 8.84m0 0" style="stroke:none;fill-rule:evenodd;fill:#fff;fill-opacity:1"></path><path d="M407.504 106.332c2.473 2.293 5.582 3.2 8.957 2.176 3.441-1.043 6.008-2.766 8.937-5.93 2.895-3.125 5.09-5.816 5.653-9.406.562-3.578-.274-6.89-2.696-9.14-2.468-2.29-5.066-2.528-8.613-1.95-3.543.582-6.972 3.04-9.887 6.184-2.96 3.195-4.8 6.539-5.117 10.066-.312 3.543.25 5.668 2.766 8m0 0" style="stroke:none;fill-rule:evenodd;fill:#000;fill-opacity:1"></path><path d="m26.36 358.3 18.328-7.609 6.289 15.149 8.566-3.555-6.29-15.148 10.352-4.301 6.73 16.203 8.747-3.629-11.539-27.797-45.996 19.094ZM93.84 377.965c-8.332-12.27-22.785-12.805-34.406-4.918-11.301 7.668-16.946 20.465-8.414 33.031 7.808 11.508 20.468 14.207 34.804 4.477 10.024-6.801 17.028-19.313 8.016-32.59m0 0" style="stroke:none;fill-rule:evenodd;fill:#fff;fill-opacity:1"></path><path d="M85.91 382.918c3.602 5.309-.617 12.055-7.812 16.937-8.051 5.461-15.543 6.582-19.106 1.332-3.566-5.253.082-12.035 8.012-17.332 7.09-4.812 15.14-6.484 18.906-.937m0 0" style="stroke:none;fill-rule:evenodd;fill:#000;fill-opacity:1"></path><path d="M127.023 415.652c-11.074-9.863-25.222-6.851-34.566 3.633-9.082 10.2-11.43 23.985-.086 34.09 10.383 9.25 23.317 8.777 34.84-4.164 8.059-9.043 11.793-22.883-.188-33.559m0 0" style="stroke:none;fill-rule:evenodd;fill:#fff;fill-opacity:1"></path><path d="M120.543 422.39c4.793 4.27 2.348 11.84-3.438 18.337-6.472 7.261-13.46 10.18-18.203 5.957-4.738-4.223-2.859-11.692 3.535-18.766 5.7-6.398 13.102-9.984 18.106-5.527m0 0" style="stroke:none;fill-rule:evenodd;fill:#000;fill-opacity:1"></path><path d="m178.438 450.676-32.82-18.457-4.864 8.648 10.879 6.117-19.547 34.758 10.941 6.153 19.547-34.758 11 6.187ZM476.496 340.969c.203-6.309-2.703-10.266-6.703-11.895-3.879-1.578-7.848-.887-11.098 1.637-3.746 2.863-6.199 7.18-8.675 13.254-2.18 5.351-3.97 10.933-4.668 14.191l45.218 18.43c1.41-2.43 3.27-6.137 5.285-11.09 4.012-9.844 4.77-16.308 3.391-20.953-1.207-4.035-3.969-7.16-7.605-8.645-5.371-2.187-11.086-.28-14.97 5.145Zm-8.656 12.875-10.742-4.375c.148-.867.484-2.04 1.21-3.82 1.59-3.895 4.356-6.079 8.055-4.575 3.34 1.363 4.57 5.176 2.578 10.063Zm7.574 3.09 1.211-2.973c1.723-4.227 5.11-7.93 9.766-6.031 4.472 1.82 4.793 6.496 2.992 10.922-.567 1.386-.969 2.375-1.5 3.164ZM441.234 431.023l-13.308 12.5-27.516-29.308-9.152 8.59 34.086 36.304 22.46-21.086ZM346.16 493.664l-17.515 5.145-11.329-38.57-12.043 3.534 14.032 47.782 29.562-8.68ZM304.004 504.855l-18.156 1.961-4.317-39.964-12.48 1.347 5.351 49.512 30.633-3.313ZM405.89 461.465c-1.292 1.566-3.742 3.7-6.163 5.21-7.567 4.716-15.27 3.145-20.758-5.66-5.93-9.511-2.895-17.175 3.824-21.363 2.965-1.847 5.582-2.64 7.562-2.968l-2.937-9.024c-1.738.172-5.555 1.336-10.273 4.277-12.043 7.512-18.473 21.465-9.032 36.606 7.297 11.7 20.145 16.672 34.969 7.426 4.602-2.867 7.754-5.895 8.98-7.57ZM441.02 364.254l-7.227 10.262 24.644 17.351c6.489 4.57 7.415 8.621 4.665 12.528-2.668 3.793-7.051 4.195-13.329-.223l-24.64-17.352-7.227 10.262 23.535 16.574c11.758 8.278 21.457 7.254 29.176-3.707 7.598-10.785 5.695-20.847-5.953-29.05Zm0 0" style="stroke:none;fill-rule:evenodd;fill:#fff;fill-opacity:1"></path><path d="m235.379 211.121 6.75-8.121-3.324-5.305-6.774 7.836ZM232.523 214.555l-3.363-5.7-7.004 8.098 3.43 5.953ZM222.633 226.457l-3.395-6.129-7.066 8.18 3.46 6.375ZM224.11 229.125l-6.977 8.52 2.808 5.167 7.008-8.558ZM227.078 225.496l2.91 5.043 3.067-3.746 3.89-4.75-2.949-4.996-3.797 4.637ZM236.844 213.566l2.972 4.97 6.825-8.34-3.055-4.868ZM248.098 212.52l-6.864 8.382 3.223 5.38 6.95-8.489ZM241.547 229.836l-3.195-5.414-3.836 4.683-3.141 3.84 3.148 5.465 3.477-4.242ZM231.375 242.258l-3.074-5.559-7.024 8.578 3.043 5.598ZM232.766 244.766l-7.07 8.636 3.449 6.348 7.109-8.687ZM235.945 240.879l3.575 6.195 3.226-3.941 3.863-4.723-3.62-6.133-3.618 4.422ZM245.91 228.71l3.653 6.095 7.082-8.653-3.747-5.976ZM258.156 228.563l-7.125 8.699 3.992 6.664 7.23-8.828ZM252.027 247.586l-3.957-6.703-3.742 4.57-3.371 4.117 3.902 6.774 3.477-4.246ZM241.469 260.488l-3.813-6.886-7.125 8.703 3.77 6.937ZM243.184 263.59 236 272.367l3.457 6.371 7.262-8.765ZM246.621 259.395l3.633 6.308 3.672-4.43 3.59-4.39-3.704-6.274-3.894 4.758ZM256.824 246.93l3.735 6.238 7.378-9.008-3.835-6.117ZM269.719 247.004l-7.422 9.066 4.101 6.848 7.532-9.2ZM263.309 266.691l-4.067-6.886-3.191 3.894-4.098 4.946 4.012 6.96 4.094-4.94ZM252.29 280.04l-3.915-7.075-7.281 8.785 3.875 7.129ZM254.059 283.234l-7.344 8.864 3.547 6.52 7.379-8.907ZM257.773 278.746l3.676 6.371 3.672-4.433 3.738-4.59-3.714-6.293-3.293 4.027ZM268.25 266.012l3.738 6.238 7.66-9.406-3.82-6.094ZM281.43 265.68l-7.707 9.465 4.101 6.855 7.82-9.598ZM274.648 285.898l-4.07-6.894-4.082 5.012-3.351 4.046 4.015 6.97 2.922-3.528ZM263.219 299.79l-3.918-7.087-7.403 8.934 3.88 7.136ZM264.887 302.793l-7.465 9.008 4.41 8.12 7.516-9.066ZM268.867 297.988l4.57 7.93 3.29-3.973 4.289-5.265-4.633-7.844-3.98 4.883ZM279.574 284.918l4.672 7.797 7.988-9.805-4.796-7.648ZM294.262 286.148l-8.04 9.872 4.102 6.851 8.153-10.004ZM287.047 306.895l-4.07-6.891-4.247 5.21-3.359 4.06 4.016 6.964 2.93-3.535ZM275.156 321.348l-3.922-7.082-7.53 9.093 3.874 7.137ZM292.441 306.398l4.45 7.434 8.136-10.516-4.566-7.285ZM293.629 318.047l-4.414-7.477-4.262 5.508-3.336 4.027 4.367 7.579 2.93-3.54ZM281.594 332.98l-4.262-7.703-7.602 9.18 4.215 7.758ZM283.93 337.203l-7.676 9.262 4.726 8.703 7.73-9.332ZM288.375 331.836l4.898 8.492 2.18-2.629 5.606-7.074-4.95-8.387-4.77 6.024ZM299.422 318.055l4.988 8.336 8.422-10.63-5.121-8.167ZM315.387 319.84l-8.48 10.71 5.073 8.473 8.504-11.058ZM308.605 343.41l-5.074-8.601-5.547 7.003-2.273 2.747 5.144 8.925ZM296.254 359.469l-5.164-9.332-7.758 9.36 5.344 9.831Zm0 0" style="stroke:none;fill-rule:evenodd;fill:#000;fill-opacity:1"></path><path d="m151.914 149.438 2.89-3.852-2.183-4.027-2.793 3.78ZM150.816 150.898l-2.086-4.07-4.187 5.668 2.05 4.035ZM145.727 157.684l-2.036-4.04-3.437 4.657 1.95 4.086Zm0 0" style="stroke:none;fill-rule:evenodd;fill:#efaa20;fill-opacity:1"></path><path d="m197.766 259.273-80.399 117.422c-5.625-7.18-11.687-16.402-16.867-26.086 31.031-44.207 62.195-88.062 93.23-132.27l-3.308-6.609-16.453 21.586-35.965-75.128 17.723-24.473 41.726 77.59c.52.96 1.121.476 2.043-.84l8.293-11.887c.555-.789.512-1.27.074-1.898l-4.36-6.188 77.2-110.972c6.32.664 12.14 1.496 18.074 2.71L186.535 241.187c-.547.774-.7 1.403-.25 2.032Zm0 0" style="stroke:none;fill-rule:evenodd;fill:#000;fill-opacity:1"></path><path d="m146.254 158.73-3.543 4.723 1.894 3.98 3.61-4.812ZM147.121 157.574l1.969 3.88 4.242-5.653-1.98-3.863ZM152.445 150.477l1.973 3.878 2.98-3.976-2.046-3.781ZM155.953 160.902l-1.918-3.738-4.246 5.664 1.902 3.754ZM150.805 167.766 148.91 164l-3.633 4.84 1.832 3.847ZM151.45 169.04l-3.704 4.98 1.777 3.73 3.762-5.062ZM152.336 167.844l1.848 3.64 4.261-5.73-1.86-3.621ZM157.648 160.703l1.848 3.633 3.16-4.25-1.918-3.543ZM163.383 161.422l-3.188 4.285 2.07 4.066 3.262-4.39ZM161.223 171.172l-2.078-4.05-4.266 5.733 2.066 4.07ZM156.035 178.148l-2.055-4.082-3.785 5.094 1.985 4.172ZM157.762 178.54l1.8 3.542 4.297-5.777-1.812-3.528ZM163.082 171.383l1.805 3.543 3.363-4.52-1.871-3.453ZM164.59 177.727l-4.3 5.785 1.73 3.414 4.316-5.801ZM165.61 176.352l1.738 3.41 3.453-4.645-1.801-3.324ZM163.691 193.34l-1.851-3.668-4.047 5.445 1.793 3.746ZM162.777 188.414l1.856 3.66 4.332-5.824-1.871-3.645ZM168.105 181.25l1.86 3.656 3.55-4.777-1.93-3.563ZM171.71 191.602l-2.003-3.903-4.336 5.828 1.992 3.922ZM167.188 200.277l-4.227 5.68 1.676 3.52 4.293-5.739ZM168.145 198.988l1.753 3.453 4.375-5.851-1.773-3.453ZM173.48 191.813l1.77 3.472 3.754-5.023-1.84-3.399ZM179.77 191.668l-3.786 5.062 1.84 3.622 3.856-5.157ZM176.863 201.637l-1.851-3.606-4.38 5.856 1.84 3.625ZM171.488 208.824l-1.828-3.637-4.316 5.774 1.77 3.715ZM172.34 210.504l-4.406 5.89 1.578 3.313 4.457-5.965ZM173.324 209.188l1.637 3.23 4.41-5.898-1.652-3.211ZM178.68 202.027l1.64 3.223 3.946-5.277-1.703-3.145ZM185.195 201.688l-3.98 5.324 1.492 2.93 4.035-5.399ZM181.77 211.195l-1.5-2.922-4.415 5.903 1.493 2.937ZM176.344 218.453l-1.485-2.945-4.488 6.004 1.434 3.008ZM177.34 220.43l-4.57 6.113 1.699 3.535 4.617-6.176ZM178.348 219.086l1.754 3.457 4.445-5.941-1.77-3.446ZM183.71 211.91l1.759 3.457 4.14-5.535-1.824-3.371ZM157.02 159.473l3.082-4.106-1.977-3.652-3.012 4.012ZM156.852 179.766l-3.883 5.218 1.726 3.63 3.946-5.298ZM159.367 184.754l-3.965 5.336 1.668 3.496 4.02-5.406ZM170.707 186.363l1.992 3.918 3.653-4.918-2.063-3.808ZM166.41 198.742l-1.984-3.941-4.133 5.558 1.922 4.032Zm0 0" style="stroke:none;fill-rule:evenodd;fill:#efaa20;fill-opacity:1" data-source="https://football-logos.cc"></path><path d="M286.293 237.285c-7.297-12.191-1.965-29.05-1.398-41.043-.004-.433.23-.781.433-1.074 3.934-4.238 5.36-6.324 9.543-10.66.895-.926 1.258-1.848 1.102-2.82-.82-5.028-4.22-10.676-5.059-15.7-.117-.707.25-1.254.586-1.86 7.059-12.776 27.684-27.886 41.11-29.366.41-.14.777-.075 1.12.031l15.891 8.973c1.121.629 2.145.629 3.024.175 4.527-2.336 9.007-4.773 13.523-7.129.64-.328 1.312-.289 1.953-.015 13.07 5.574 23.793 12.883 30.383 22.918.258.351.273.77.277 1.125-1.23 6.07-1.726 12.426-2.941 18.496-.25 1.266.07 2.238.77 2.93 3.613 3.582 10.199 7.996 13.827 11.562.508.5.22 1.063.286 1.746 1.562 15.559-9.887 41.305-20.203 49.274-6.153.703-15.106-.758-21.25-.043-1.278.148-2.11.754-2.551 1.636-2.29 4.547-6.067 9.23-8.336 13.786-.32.644-.883 1.058-1.567 1.16-2.761.422-5.925.945-9.222 1.129-2.371.132-.953 2.296-.914 3.957 34.172.808 63.07-19.817 68.605-57.953 5.535-38.133-21.512-75.391-59.648-80.926s-73.54 20.894-79.074 59.027c-2.81 19.324 1.019 37.645 10.433 51.742Zm-1.402-40.898c14.441 1.668 29.355 6.144 39.691 13.058a47 47 0 0 1 3.504 2.586l-2.89-8.898-4.895-15.059 12.812-9.304 12.805-9.305 12.809 9.305 12.812 9.304-4.894 15.059-4.891 15.058h-27.29c6.579 7.532 10.99 16.938 10.438 25.57-.05.817.09 1.266.778 1.825.68.559 1.265 1.219 1.898 1.828.738.793.809 1.723.844 2.566.305 4.125.371 8.25.488 12.372a76 76 0 0 0 5.082-.536q.018-.001.035-.003c.965-.141 1.899-.29 2.79-.426a2.09 2.09 0 0 0 1.566-1.16c2.27-4.555 6.047-9.239 8.336-13.786.441-.882 1.273-1.488 2.55-1.636 6.145-.715 15.098.746 21.25.043 10.317-7.97 21.766-33.715 20.204-49.274-.067-.683.222-1.246-.286-1.746-3.628-3.566-10.214-7.98-13.828-11.562-.699-.692-1.02-1.664-.77-2.93 1.216-6.07 1.712-12.426 2.942-18.496-.004-.356-.02-.774-.277-1.125-6.59-10.035-17.313-17.344-30.383-22.918-.64-.274-1.312-.313-1.953.016-4.516 2.355-8.996 4.792-13.523 7.128-.88.454-1.903.454-3.024-.175l-15.89-8.973c-.344-.106-.711-.172-1.122-.031-13.425 1.484-34.05 16.59-41.109 29.367-.336.605-.703 1.152-.586 1.86.84 5.023 4.238 10.671 5.059 15.698.156.973-.207 1.895-1.102 2.82-4.183 4.34-5.61 6.423-9.543 10.661-.203.293-.437.64-.433 1.078Zm0 0" style="stroke:none;fill-rule:evenodd;fill:#000;fill-opacity:1"></path><path d="m345.918 169.465 12.812 9.305 12.81 9.304-4.895 15.059-4.891 15.058h-31.668l-4.89-15.058-4.895-15.059Zm0 0" style="stroke:none;fill-rule:evenodd;fill:#000;fill-opacity:1"></path><path d="m186.79 258.055 5.081 6.836 4.055-5.887-5.082-6.762ZM185.75 256.656l4.07-5.777-5.097-6.793-4.051 5.742ZM184.754 258.066l-5.074-6.828-3.825 5.426 5.079 6.828ZM185.8 259.473l-3.8 5.453 5.11 6.875 3.78-5.485ZM179.902 264.953l-5.078-6.828-3.726 5.29 5.078 6.827ZM180.977 266.395l-3.711 5.32 5.144 6.914 3.684-5.348ZM175.094 271.773l-5.078-6.828-4.051 5.75 5.078 6.828ZM176.191 273.254l-4.027 5.777 5.172 6.957 4.004-5.808ZM170.02 278.977l-5.079-6.829-3.746 5.317 5.075 6.828ZM171.145 280.492l-3.727 5.344 5.203 7 3.703-5.379ZM165.012 286.078l-5.074-6.832-3.903 5.535 5.078 6.828ZM166.168 287.633l-3.879 5.562 5.234 7.04 3.856-5.594ZM159.957 293.242l-5.074-6.824-3.961 5.617 5.074 6.828ZM161.145 294.84l-3.942 5.648 5.266 7.086 3.918-5.687ZM154.816 300.54l-5.074-6.83-3.57 5.063 5.078 6.829ZM156.031 302.172l-3.547 5.09 5.293 7.12 3.528-5.116ZM150.152 307.16l-5.078-6.828-3.543 5.027 5.074 6.829ZM151.39 308.828l-3.527 5.055 5.328 7.16 3.504-5.082ZM145.55 313.684l-5.073-6.829-4.067 5.766 5.078 6.828ZM146.816 315.387l-4.043 5.793 5.36 7.207 4.015-5.828ZM140.313 321.117l-5.075-6.828-3.527 5 5.074 6.828ZM141.605 322.855l-3.503 5.032 5.386 7.242 3.485-5.055ZM135.707 327.648l-5.078-6.828-3.746 5.317 5.078 6.828ZM137.027 329.426l-3.726 5.344 5.418 7.285 3.699-5.375ZM130.793 334.621l-5.078-6.824-3.797 5.387 5.074 6.828ZM132.14 336.434l-3.777 5.418 5.45 7.328 3.75-5.45ZM125.816 341.684l-5.078-6.829-3.652 5.18 5.078 6.828ZM127.191 343.531l-3.632 5.207 5.48 7.371 3.61-5.242ZM120.98 348.54l-5.074-6.83-4.039 5.731 5.078 6.829ZM122.383 350.426l-4.016 5.758 5.512 7.414 3.988-5.793ZM115.816 355.867l-5.074-6.828-3.824 5.422 5.078 6.828ZM117.25 357.793l-3.8 5.45 5.538 7.452 3.778-5.48ZM110.898 362.844l-5.078-6.828-1.254 1.812c1.5 2.563 3.04 5.04 4.637 7.434ZM112.36 364.809l-1.79 2.515c1.785 2.61 3.59 5.238 5.477 7.656l1.86-2.71ZM157.398 150.379l-2.046-3.781-2.907 3.879 1.973 3.878ZM210.59 184.047l-4.809 6.93 3.813 5.464 4.832-6.902ZM211.645 182.531l3.84 5.496 4.777-6.82-3.86-5.531ZM217.648 173.879l3.868 5.539 4.539-6.48-3.887-5.57ZM223.363 165.645l3.895 5.574 4.707-6.723-3.914-5.605ZM229.383 156.973l3.918 5.617 4.238-6.05-3.937-5.645ZM235.035 148.828l3.945 5.652 4.606-6.578-3.965-5.68ZM240.73 140.625l3.97 5.688 3.898-5.563-3.993-5.71ZM245.867 133.223l3.996 5.718 4.774-6.816-4.016-5.754ZM252.098 124.25l4.02 5.762 4.37-6.242-4.043-5.79ZM257.934 115.844l4.046 5.797 4.426-6.32-4.066-5.829ZM263.742 107.469l4.074 5.836 3.957-5.649-4.09-5.863ZM269.121 99.723l4.098 5.87 4.515-6.448-4.117-5.899ZM274.977 91.285l4.125 5.906 4.601-6.566-4.148-5.937Zm0 0" style="stroke:none;fill-rule:evenodd;fill:#efaa20;fill-opacity:1"></path><path d="m274.977 91.285 4.125 5.906 4.601-6.566-4.148-5.937ZM280.957 82.668l4.152 5.95 4.54-6.481-1.157-1.672c-1.84-.266-3.66-.477-5.523-.7Zm0 0" style="stroke:none;fill-rule:evenodd;fill:#efaa20;fill-opacity:1"></path><path d="M327.934 274.93c-6.547-1.785-13.739-1.438-20.602-2.18-.988-.105-1.266.281-1.266 1.055.008 5.953.055 11.91.141 17.86.008.55.094 1.292.984 1.265 6.985-.196 14.743.398 20.954 2.18.511.218 1.105-.305 1.054-.77l-.07-18.145c.023-.543-.375-1.043-1.195-1.265m0 0" style="stroke:none;fill-rule:evenodd;fill:#000;fill-opacity:1"></path><path d="M365.082 416.766c-3.52 2.25-5.059 3.246-6.742 4.207-8.32-50.508-16.223-101.746-24.543-152.258-.121-.555-.61-.961-1.203-1.113-15.977-4.079-33.227-5.582-49.528-6.024l-3.375-4.43c26.899-.109 48.516 2.618 64.543 10.008.48.242.996.008.989-.765-.055-4.848-.153-10.153-.602-15.012-.062-.902-.426-1.54-1.406-2.18-19.426-9.043-43.195-9.836-66.871-11.515-1.07-.075-1.262.82-1.266 1.379-.012 3.304 0 6.609 0 9.914-11.625-18.426-22.902-37.13-34.527-55.551 12.308.539 24.262 1.777 36.566 2.332 16.664.754 35.254 5.523 47.465 13.687 11.52 7.703 21.113 21.82 20.32 34.317-.05.816.09 1.265.778 1.824.68.559 1.265 1.219 1.898 1.828.738.793.809 1.723.844 2.566.496 6.73.36 13.446.836 20.168.187 1.84-3.723 3.29-5.258 1.512-.883-1.02-3.469-1.437-3.094-.34 7.989 48.047 16.188 97.399 24.176 145.446m0 0" style="stroke:none;fill-rule:evenodd;fill:#000;fill-opacity:1"></path><path d="m302.031 204.758-.125 30.312c12.883 1.153 25.88 3.125 37.258 7.188 1.066.383 1.957-.047 1.828-.914-2.422-19.727-20.976-30.887-38.96-36.586M284.676 200.734l-.137 33.16c1.469.079 2.945.157 4.434.247l.129-32.645c-1.516-.293-3-.547-4.426-.762M293.387 202.398l-.13 32.008c1.376.09 2.763.188 4.15.293l.124-31.262a115 115 0 0 0-4.144-1.039m0 0" style="stroke:none;fill-rule:evenodd;fill:#efaa20;fill-opacity:1"></path><path d="M238.785 193.45c-2.906-.212-5.355-.387-8.262-.598-.945-.059-1.5.375-1.863.949-7.129 9.21-14.262 18.418-21.375 27.637-.36.46-.281.824-.07 1.125.984 1.382 1.933 2.296 2.918 3.68.523.687 1.293.82 1.949-.009 8.86-10.804 17.844-21.98 26.703-32.785m0 0" style="stroke:none;fill-rule:evenodd;fill:#000;fill-opacity:1"></path><path d="m279.965 233.656.137-33.508a83 83 0 0 0-4.637-.363l-.137 33.637zm0 0" style="stroke:none;fill-rule:evenodd;fill:#efaa20;fill-opacity:1"></path><path d="m321.273 339.45 4.008 5.132q-17.729 25.191-35.465 50.383c7.829 14.86 15.97 30.117 23.801 44.976-8.8 2.375-17.719 4.168-26.937 5.235-1.383-9.211-2.7-18.598-4.043-27.89-.094-.653-.313-1.306-.66-1.84-4.852-7.505-17.715-9.259-24.364-.66-1.011 1.304-1.078 2.644-1.195 4.077-.805 9.219-1.125 18.407-1.273 27.532-10.856-.399-21.317-1.422-31.344-3.7-3.656-49.453-7.324-99.187-10.98-148.64l-9-26.582c-2.95 55.66-5.895 111.14-8.844 166.804-7.204-2.89-14.067-5.714-20.891-9.597 8.766-65.602 17.598-131.692 26.363-197.297 28.242 53.789 56.488 107.574 84.73 161.36q18.048-24.644 36.094-49.294m0 0" style="stroke:none;fill-rule:evenodd;fill:#000;fill-opacity:1"></path><path d="M332.61 134.762c-13.426 1.48-34.051 16.59-41.11 29.367-.336.605-.703 1.152-.586 1.86.84 5.023 4.238 10.671 5.059 15.698.156.973-.207 1.895-1.102 2.82-4.183 4.337-5.61 6.423-9.543 10.661-.203.293-.437.64-.433 1.074 0 .051-.004.098-.004.145 14.441 1.668 29.355 6.144 39.691 13.058a47 47 0 0 1 3.504 2.586l-2.89-8.898-4.895-15.059 12.812-9.304 12.805-9.305 12.809 9.305 12.812 9.304-4.894 15.059-4.891 15.058h-27.29c6.579 7.532 10.99 16.938 10.442 25.57-.054.817.086 1.266.774 1.825.68.559 1.265 1.219 1.898 1.828.738.793.809 1.723.844 2.566.305 4.125.371 8.25.488 12.372 2.363-.164 4.969-.477 7.906-.965a2.09 2.09 0 0 0 1.567-1.16c2.27-4.555 6.047-9.239 8.336-13.786.441-.882 1.273-1.488 2.55-1.636 6.145-.715 15.098.746 21.25.043 10.317-7.97 21.766-33.715 20.204-49.274-.067-.683.222-1.246-.286-1.746-3.628-3.566-10.214-7.98-13.828-11.562-.699-.692-1.02-1.664-.77-2.93 1.216-6.07 1.712-12.426 2.942-18.496-.004-.356-.02-.774-.277-1.125-6.59-10.035-17.313-17.344-30.383-22.918-.64-.274-1.312-.313-1.953.016-4.516 2.355-8.996 4.792-13.523 7.128-.88.454-1.899.454-3.024-.175l-15.89-8.973c-.344-.106-.711-.172-1.122-.031m0 0" style="stroke:none;fill-rule:evenodd;fill:#fff;fill-opacity:1"></path><path d="M313.379 240.965c-7.633-1.121-15.531-1.785-23.512-2.352m24.625 20.508c10.63 1.465 19.969 3.813 27.98 7.254m.536.023c.918.051 1.3.055 2.215.067v-.074c-.016-1.278-.032-2.582-.059-3.907M284.68 199.559l-.149 36.504M155.727 133.715l41.726 77.59c.52.96 1.121.476 2.043-.84l8.297-11.887c.55-.789.508-1.27.07-1.898l-4.36-6.188 77.2-110.972a180 180 0 0 0-17.765-.875c-101.84.003-183.989 85.25-183.989 183.992 0 35.242 9.332 67.687 25.594 95.195l.016-.023a189 189 0 0 1-4.059-7.2c31.031-44.207 62.195-88.062 93.23-132.27l-3.308-6.609-16.453 21.586-35.965-75.128Zm0 0" style="stroke:none;fill-rule:evenodd;fill:#efaa20;fill-opacity:1"></path><path d="M298.777 82.23 186.535 241.187c-.547.774-.7 1.403-.25 2.032l10.153 14.195 4.011-30.031 84.73 161.36 36.094-49.294 4.008 5.133-35.465 50.383c7.829 14.86 15.97 30.117 23.801 44.976a181 181 0 0 0 44.723-18.968c-8.32-50.508-16.223-101.746-24.543-152.258-.121-.555-.61-.961-1.203-1.113-15.977-4.079-33.227-5.582-49.528-6.024l-3.375-4.43c12.809-.05 24.422.54 34.801 1.973 10.63 1.465 19.969 3.813 27.98 7.254q.89.382 1.762.781c.465.235.965.024.989-.691v-.074c-.016-1.278-.032-2.582-.059-3.907-.074-3.703-.21-7.523-.543-11.105-.062-.902-.426-1.54-1.406-2.18-9.137-4.254-19.235-6.683-29.836-8.234-7.633-1.121-15.531-1.785-23.512-2.352-4.492-.32-9.008-.61-13.523-.93-1.07-.074-1.262.82-1.266 1.38-.012 3.304 0 6.609 0 9.914-11.625-18.426-22.902-37.13-34.527-55.551 11.84.515 23.36 1.687 35.172 2.27a87 87 0 0 1 .836-9.075c5.539-38.133 40.941-64.562 79.078-59.027s65.183 42.793 59.648 80.926c-5.406 37.25-33.105 57.796-66.234 57.976.054 1.215.12 2.434.207 3.652.187 1.84-3.723 3.29-5.258 1.512-.883-1.02-3.469-1.437-3.094-.34l24.176 145.442c49.356-32.36 81.82-88.38 81.848-154.125.03-86.848-63.543-163.258-148.153-180.407M281.43 265.68l4.21 6.722-7.816 9.598-4.105-6.855Zm-1.856 19.238 7.863-9.656 4.793 7.648-7.988 9.805Zm6.649 11.102 8.039-9.872 4.21 6.72-8.148 10.003Zm2.992 14.55 4.414 7.477-4.715 6.101-2.93 3.536-4.367-7.579 3.336-4.027Zm2.125 17.692 4.765-6.024 4.95 8.387-5.602 7.074-2.18 2.63-4.898-8.493Zm15.988-55.512c6.867.742 14.055.395 20.606 2.18.82.222 1.218.722 1.195 1.265l.07 18.145c.051.465-.543.988-1.054.773-6.211-1.785-13.97-2.375-20.957-2.183-.887.027-.977-.715-.985-1.266-.082-5.95-.129-11.906-.14-17.86 0-.773.28-1.16 1.265-1.054m-7.906 45.309 8.289-10.465 5.121 8.168-8.422 10.629Zm-6.98-11.657 8.019-10.37 4.566 7.284-8.136 10.516Zm14.46 24.149 8.485-10.711 5.097 8.125-8.507 11.058Zm-76.379-137.7 8.262.598c-8.86 10.805-17.844 21.98-26.703 32.785-.656.828-1.426.696-1.95.008-.984-1.383-1.933-2.297-2.917-3.68-.211-.3-.29-.664.066-1.125 7.117-9.218 14.25-18.425 21.38-27.636.362-.574.917-1.008 1.862-.95m27.633 35.712 4.098 6.535-7.23 8.828-3.993-6.664Zm-1.332 18.367 7.278-8.887 3.836 6.117-7.38 9.012Zm-3.926-26.754 3.747 5.976-7.082 8.657-3.653-6.102Zm-4.828 20.707 3.957 6.703-3.695 4.512-3.473 4.246-3.902-6.774 3.367-4.117Zm.028-28.363 3.308 5.273-6.949 8.488-3.223-5.379Zm-8.73 24.18 3.62-4.423 3.621 6.133-3.863 4.723-3.226 3.941-3.575-6.195Zm4.218-31.372 3.055 4.867-6.825 8.34-2.972-4.969Zm-9.07 23.777 3.836-4.683 3.195 5.414-3.547 4.332-3.477 4.242-3.148-5.465ZM228.3 236.7l3.074 5.559-7.055 8.617-3.043-5.598Zm5.695-19.652 2.95 4.996-3.891 4.75-3.067 3.746-2.91-5.043 3.121-3.812Zm4.805-19.352 3.328 5.305-6.75 8.121-3.352-5.59Zm-21.668 39.95 6.976-8.52 2.84 5.129-7.008 8.559Zm12.027-28.79 3.363 5.7-6.937 8.351-3.43-5.953Zm-9.922 11.473 3.395 6.129-7 8.426-3.461-6.375Zm63.739 79.676 4.07 6.89-4.73 5.81-2.93 3.538-4.016-6.969 3.36-4.058Zm8.113 50.133 5.164 9.332-7.578 9.86-5.344-9.833Zm-21.371-103.133 4.21 6.715-7.53 9.199-4.102-6.848Zm-1.469 19.008 7.578-9.262 3.82 6.094-7.66 9.406Zm8.133 22.824 4.633 7.844-4.29 5.265-3.288 3.973-4.57-7.93 3.534-4.27Zm.949 36.445 4.262 7.7-7.649 9.234-4.215-7.758Zm-1.078 21.188 7.676-9.266 4.78 8.633-7.73 9.332Zm-5.676-67.465 4.07 6.894-4.566 5.606-2.922 3.527-4.015-6.969 3.351-4.046Zm.656 35.262 3.918 7.082-7.574 9.148-3.875-7.137Zm-11.996-54.461 4.07 6.886-3.253 3.973-4.09 4.941-4.012-6.96 4.094-4.942Zm2.614 14.023 3.293-4.027 3.714 6.293-3.738 4.59-3.676 4.433-3.672-6.37Zm-2.551 18.875 3.918 7.086-7.442 8.984-3.879-7.136Zm-1.88 19.098 7.466-9.008 4.46 8.062-7.515 9.067Zm-3.608-61.192 3.703 6.278-3.594 4.39-3.668 4.426-3.633-6.308 3.293-4.028Zm-5.438 22.356 3.914 7.074-7.32 8.84-3.875-7.129Zm-1.66 19.133 7.344-8.864 3.582 6.477-7.38 8.91ZM236 272.368l7.184-8.778 3.535 6.383-7.262 8.765Zm1.656-18.766 3.813 6.886-7.168 8.754-3.77-6.937Zm-11.96-.2 7.07-8.636 3.484 6.297-7.105 8.687Zm77.835 81.41 5.074 8.598-7.75 10.074-5.144-8.925 2.273-2.747ZM174.086 424.68l21.719-162.543-78.438 114.558a179.8 179.8 0 0 0 56.719 47.985m0 0" style="stroke:none;fill-rule:evenodd;fill:#efaa20;fill-opacity:1"></path><path d="m203.82 267.473-8.843 166.804a182.4 182.4 0 0 0 28.824 8.418l-10.98-148.64ZM281.977 415.445c-4.852-7.504-17.715-9.257-24.364-.66-1.011 1.305-1.078 2.645-1.195 4.074-.805 9.223-1.125 18.41-1.273 27.536 8.28.308 16.59.125 24.835-.547q3.365-.28 6.7-.672c-1.383-9.211-2.7-18.602-4.043-27.89-.094-.653-.313-1.306-.66-1.84m0 0" style="stroke:none;fill-rule:evenodd;fill:#efaa20;fill-opacity:1" data-source="https://football-logos.cc"></path><!-- source: https://football-logos.cc --></svg>