<svg xmlns="http://www.w3.org/2000/svg" viewBox="14.17 137.48 566.93 566.93"><!-- Source: https://football-logos.cc --><path d="M297.638 137.48a283.465 283.465 0 0 1 283.464 283.465A283.465 283.465 0 1 1 297.638 137.48" style="fill:#000200;fill-rule:evenodd" data-source="https://football-logos.cc"></path><path d="M297.638 143.395a277.55 277.55 0 0 1 277.55 277.55 277.55 277.55 0 1 1-277.55-277.55" style="fill:#0070b5;fill-rule:evenodd"></path><path d="M297.638 214.376a206.57 206.57 0 0 1 206.569 206.569 206.569 206.569 0 1 1-206.57-206.57" style="fill:#000200;fill-rule:evenodd"></path><path d="M297.638 220.291c58.525 0 111.2 25.076 147.883 65.06 2.299 4.665 3.002 8.336 2.238 13.094-6.268-2.75-13.28-4.77-19.523-6.423-9.371-2.478-19.101-3.873-28.769-4.49-5.384-.345-10.584-.37-15.953-.335-1.954-1.168-4.353-1.895-6.658-2.088a9 9 0 0 0-1.751-1.784c-19.103-14.71-47.3-32.202-74.456-41.013-1.094-.355-3.07-.5-4.21-2.07.007-5.285.267-10.619.603-15.867q.13-2.04.284-4.082zm85.7 67.752c5.413-.037 10.65-.015 16.075.332 9.613.614 19.289 2 28.606 4.464 6.45 1.706 13.754 3.814 20.171 6.723 6.272 4.454 15.963 20.073 21.699 29.81 6.76 11.476 17.123 32.454 20.342 47.867l3.026-1.125a201.2 201.2 0 0 1 5.035 44.83c0 85.785-53.868 159-129.61 187.694a169 169 0 0 0 4.18-2.598c4.669-2.993 9.584-6.39 13.696-10.116 1.916-1.736 2.956-4.016 2.642-6.498 1.75.61 3.902.693 6.368-.577 21.233-10.93 45.93-28.61 60.949-47.11 2.022-2.491 4.376-5.684 6.17-9.051 4.13-7.753 6.772-16.934 8.99-27.672 1.955-9.475 3.41-20.025 3.613-29.736.023-1.11.077-2.658-.084-3.924-.456-3.598-1.49-7.09-.924-9.73 3.338-3.945 5.164-8.964 6.967-13.933 2.367-6.522 4.27-13.3 5.887-20.045 1.66-6.926 3.052-13.987 4.03-21.043.412-2.968.754-5.96.953-8.95.154-2.3.241-4.68.084-6.981l-.029-.422-.843.058.029.421c.155 2.263.067 4.607-.084 6.868-.198 2.97-.538 5.942-.947 8.89-.975 7.029-2.361 14.063-4.015 20.962-1.609 6.714-3.503 13.462-5.859 19.953-1.809 4.984-3.653 10.101-7.118 14.02-19.797 4.26-39.447 4.117-58.576 4.527-5.715.123-11.439 2.175-14.217 7.842-6.858 13.987-13.432 26.62-20.839 38.626-8.938 14.49-18.341 27.7-27.671 38.648a4.5 4.5 0 0 0-.611.935c-1.941 1.176-3.867 2.389-5.863 3.451-6.821 1.128-13.784 1.883-20.666 2.454-9.764.81-19.587 1.21-29.384 1.183a368 368 0 0 1-11.777-.223c-12.666-.44-25.645-1.443-38.164-3.486-1.8-.998-3.96-2.532-6.045-3.387a4.4 4.4 0 0 0-.527-.772c-9.93-11.652-18.858-24.59-26.823-37.572-7.966-12.981-15.284-26.163-21.998-39.857-2.778-5.667-8.504-7.72-14.217-7.842-19.468-.416-36.54-.101-56.693-4.596l-.075.03c-3.793-6.527-6.609-13.965-8.744-21.006-2.242-7.387-3.932-15.018-5.143-22.641-.916-5.768-1.655-11.87-1.75-17.714l-.008-.423-.844.014.007.422c.096 5.885.839 12.026 1.76 17.833 1.218 7.662 2.917 15.33 5.17 22.754 2.15 7.09 4.982 14.566 8.794 21.138-1.843 1.167.688 2.36.59 3.678-1.953 3.86-1.232 7.265-.961 10.307.824 9.244 2.126 19.797 4.08 29.269 2.116 10.255 5.476 20.797 9.371 28.477-21.791-32.098-34.529-70.837-34.529-112.548 0-20.096 2.969-39.498 8.47-57.804l2.63-.05c4.152-11.06 9.227-22.242 15.989-33.72 5.911-10.032 16.019-27.086 21.637-29.25l-.017-.094c6.281-2.89 13.087-4.988 19.634-6.72 9.049-2.392 18.38-3.848 27.714-4.503 5.17-.363 10.151-.405 15.315-.37 1.465 1.083 3.363 2.994 4.515 4.795.097.8.252 1.647.474 2.538 3.02 12.172 7.84 27.519 12.103 40.336 3.286 9.88 6.488 17.974 9.907 28.509.897 2.763 1.622 6.703.16 11.815-3.916 6.254-7.702 12.576-11.584 18.85-2.862 4.624-5.837 9.324-9.285 13.537l-.267.327.654.535.268-.327c3.472-4.243 6.467-8.971 9.349-13.628 3.954-6.39 7.808-12.83 11.802-19.197 5.288-4.263 10.889-4.286 14.237-4.394 33.7-1.096 58.657-2.062 92.176.026 2.554.159 8.153 1.634 11.555 5.223 3.735 5.986 7.36 12.031 11.073 18.03 2.882 4.658 5.877 9.386 9.35 13.63l.267.327.654-.536-.268-.327c-3.447-4.213-6.423-8.913-9.284-13.538-3.93-6.35-7.763-12.752-11.73-19.082-1.144-4.058-.901-7.727.08-10.51 9.386-26.63 17.124-47.254 23.593-71.005q.254-.934.376-1.873c.478-.418.92-.872 1.353-1.365.592-.674 1.154-1.408 1.81-2.017a5.4 5.4 0 0 1 1.644-1.07zm-4.706 3.195c.055-1.853-.316-3.65-1.19-5.217 1.714.221 3.455.745 4.97 1.53-.465.254-.889.568-1.292.942-.683.633-1.257 1.38-1.87 2.079q-.305.346-.618.666m-14.497 319.06c-20.812 7.312-43.188 11.3-66.497 11.3-24.35 0-47.684-4.342-69.279-12.29a159 159 0 0 1-8.013-4.825c-4.628-2.967-9.508-6.336-13.584-10.03-1.739-1.575-2.683-3.625-2.355-5.881a8.3 8.3 0 0 0 1.55-.83c8.963-6.136 17.478-14.112 25.414-21.772 1.868-1.803 4.31-3.46 6.072-5.263q.486-.498.888-1.043c2.377-1.577 4.775-2.487 7.739-3.179l.426-.1c12.225 1.935 24.864 2.898 37.207 3.327q5.9.206 11.804.223c9.822.027 19.669-.375 29.457-1.186 6.815-.565 13.709-1.31 20.468-2.418.922.673 2.769 1.324 3.8 1.778 1.484.652 2.931 1.386 4.246 2.327l.11.116c2.411 2.467 4.823 4.371 7.008 6.502 9.155 8.932 16.973 14.784 26.42 21.251.386.264.808.516 1.264.737.495 2.404-.455 4.594-2.29 6.256-4.075 3.694-8.956 7.063-13.583 10.03a158 158 0 0 1-8.272 4.97m-140.63-2.847c-33.214-13.217-62.068-35.05-83.799-62.737 15.12 17.121 37.599 33.231 57.388 43.416 2.385 1.228 4.616 1.257 6.427.746-.2 2.368.834 4.537 2.674 6.204 4.111 3.726 9.027 7.122 13.695 10.115q1.79 1.148 3.615 2.256m15.774-49.355c.808-1.674 1.065-3.466.679-4.981 1.61.771 3.284 1.882 4.701 2.715l-.024.144c-1.954.53-3.685 1.192-5.356 2.122m-31.338-270.51c-5.036-.03-9.909.02-14.96.375-9.387.659-18.77 2.123-27.87 4.53-6.524 1.725-13.29 3.81-19.555 6.67-.59-4.43.693-7.784 2.872-12.348 36.435-40.502 89.112-66.099 147.768-66.512q-.15 2-.278 4.002c-.332 5.177-.589 10.435-.605 15.649-.837 1.547-2.415 1.83-3.37 2.14-22.61 7.316-55.611 24.437-76.733 42.791q-.414.36-.767.8c-2.25.13-4.404.637-6.37 1.824zm5.905-1.01c-.731 1.302-1.13 2.988-1.09 5.035-1.103-1.42-2.49-2.779-3.686-3.697 1.5-.787 3.107-1.182 4.776-1.338m137.163 266.666c-.327 1.646.066 3.577 1.072 5.321a30 30 0 0 0-2.51-1.228c-.694-.305-1.925-.759-2.846-1.22l.14-.024-.06-.354c1.421-.791 2.812-1.646 4.204-2.495" style="fill:#fff;fill-rule:evenodd"></path><path d="M121.247 466.172c-5.277-7.496-8.96-16.814-11.61-25.548-2.252-7.424-3.95-15.092-5.168-22.754-.922-5.807-1.665-11.948-1.76-17.833l-.008-.422.845-.014.007.423c.095 5.844.834 11.946 1.75 17.713 1.211 7.624 2.902 15.255 5.143 22.642 2.623 8.644 6.269 17.888 11.491 25.306l.244.346-.691.486zM469.708 464.613c5.977-4.001 8.392-10.718 10.747-17.209s4.25-13.24 5.86-19.953c1.653-6.9 3.04-13.933 4.014-20.962.41-2.948.749-5.92.947-8.89.15-2.261.239-4.605.084-6.868l-.029-.421.843-.058.03.422c.156 2.3.069 4.681-.085 6.981-.2 2.99-.54 5.982-.953 8.95-.978 7.056-2.37 14.117-4.03 21.043-1.616 6.745-3.52 13.523-5.887 20.045-2.432 6.701-4.906 13.494-11.072 17.622l-.35.235-.47-.702zM204.624 587.6c-.797 2.637.153 5.055 2.138 6.854 4.076 3.693 8.956 7.062 13.584 10.03 3.514 2.253 7.132 4.4 10.821 6.356a288 288 0 0 0 11.239 5.671l.382.181-.363.764-.382-.182a289 289 0 0 1-11.271-5.688c-3.71-1.965-7.348-4.125-10.882-6.391-4.668-2.993-9.584-6.39-13.695-10.115-2.228-2.019-3.272-4.772-2.38-7.724l.122-.404.81.244zM388.937 588.201c.893 2.952-.152 5.705-2.38 7.723-4.11 3.727-9.026 7.123-13.694 10.116-3.534 2.266-7.172 4.426-10.882 6.391a289 289 0 0 1-11.272 5.688l-.381.182-.363-.764.382-.181c3.79-1.8 7.53-3.707 11.238-5.671 3.69-1.955 7.307-4.103 10.822-6.357 4.627-2.967 9.508-6.336 13.583-10.03 1.986-1.798 2.936-4.216 2.138-6.852l-.122-.405.81-.244zM237.083 375.52c-4.22 6.693-8.272 13.475-12.434 20.2-2.882 4.658-5.877 9.386-9.349 13.63l-.267.326-.655-.535.268-.327c3.448-4.213 6.423-8.913 9.285-13.538 4.163-6.728 8.216-13.512 12.437-20.207l.226-.357.715.45zM353.774 374.758c4.22 6.695 8.274 13.48 12.437 20.207 2.862 4.625 5.837 9.325 9.285 13.538l.267.327-.654.535-.267-.327c-3.472-4.243-6.467-8.971-9.35-13.628-4.162-6.726-8.213-13.508-12.433-20.201l-.226-.358.715-.45zM245.172 555.316c12.641 2.087 25.761 3.107 38.56 3.551q5.888.206 11.777.223c9.798.027 19.62-.374 29.385-1.183 7.133-.592 14.354-1.381 21.413-2.579l.417-.07.141.833-.416.07c-7.084 1.202-14.328 1.995-21.485 2.588a345 345 0 0 1-29.457 1.186q-5.903-.016-11.804-.223c-12.836-.446-25.991-1.47-38.669-3.563l-.416-.068.137-.834z" style="fill:#000200;fill-rule:evenodd"></path><path d="M244.822 555.925c-2.4-1.392-5.594-3.676-7.959-3.719l-.422-.008.015-.845.422.008c2.997.054 6.632 3 9.286 4.335l1.041.524-1.135.265c-3.717.868-6.545 2.078-9.556 4.518l-.328.266-.532-.657.328-.265c2.82-2.285 5.501-3.54 8.84-4.422M346.415 555.952c.935.516 2.38 1.042 3.157 1.383 1.956.86 3.838 1.856 5.47 3.253l.32.274-.549.642-.32-.274c-1.567-1.34-3.384-2.296-5.261-3.121-1.074-.472-3.032-1.159-3.91-1.862l-.504-.403.571-.3c2.941-1.55 5.726-3.437 8.626-5.064l.369-.207.413.737-.368.206c-2.699 1.515-5.296 3.252-8.014 4.736" style="fill:#000200;fill-rule:evenodd"></path><path d="m227.888 505.512 2.542 2.13.071.545c.152 1.164.53 2.8-.01 3.881l-.364.73-1.818.106h-.028c-3.002.057-6.021-.485-8.949-1.258 1.24 1.03 2.412 2.152 3.512 3.28l.506.518-.772 4.294-1.044.117c-3.745.419-7.328-.334-10.907-1.306l-8.25 10.27-.313 1.317-3.12 3.461.016 3.813c.015 3.582-3.526 4.924-5.775 2.067l-4.592-5.84-6.24-1.884c-2.765-.834-4.482-3.09-4.732-5.944l-.473-5.397c-1.364 1.734-3.188 3.41-5.154 3.415-6.23.017-12.098-1.275-18.048-3.004-4.012-1.165-8.073-2.51-11.814-4.385-2.206-1.105-3.712-2.691-4.42-5.087-1.294-4.384-.1-10.671 2.36-14.48a12.2 12.2 0 0 1 3.672-3.626 167 167 0 0 1-5.062-1.767c-3.65-1.342-6.338-2.62-7.333-6.675-1.204-4.907.466-11.88 3.125-16.086 1.683-2.66 4.103-4.76 7.315-5.147 2.222-.267 4.632.151 6.788.688 3.575.89 7.146 1.843 10.634 3.035 1.365.126 2.948.425 4.184 1.04l7.438-.163-6.71-21.359a497 497 0 0 1-17.732-11.34c-14.918-5.867-29.887-11.607-44.749-17.617-11.018-4.454-22.147-8.785-32.69-14.3-8.248-4.314-20.112-13.273-25.246-21.048-5.507-8.34-3.004-16.034 6.022-20.07 5.34-2.386 11.718-3.23 17.523-3.826 7.433-4.64 22.334-4.681 30.845-4.216 4.445.244 8.884.699 13.281 1.396 17.76 2.816 34.678 9.254 51.2 16.143 18.573 7.745 36.845 16.193 54.988 24.893 8.645 4.146 17.331 8.216 26.232 11.788l11.238-1.674c.272-7.62 4.518-16.073 12.57-17.578 3.928-.734 8.188.426 11.873 1.757 5.083 1.835 9.935 4.282 14.588 7.017l9.582 1.82 56-8.49c-.27-3.2.337-6.497 1.594-9.443 2.292-5.37 6.828-9.777 12.756-10.645 3.948-.579 7.725.263 11.359 1.8 5.037 2.128 9.586 4.906 14.11 7.95q.87.585 1.728 1.185c1.502.439 2.995.913 4.48 1.408.82.273 1.638.551 2.451.845l118.314-16.678c9.502-1.34 17.271-1.134 26.254 2.426l7.807-.577c1.098-.082 2.175.312 2.9 1.154 1.378 1.6.827 3.73-.498 5.155l-.94 1.01 2.249 6.258c.075.207.157.41.228.62.432 1.286.234 2.52-1.01 3.282-1.19.73-2.521.363-3.407-.636-.209-.236-.401-.484-.594-.734l-4.072-5.262-104.35 27.42c1.997 2.31 3.993 5.403 4.654 7.872l.783 2.922-3.014.26c-5.935.511-14.136-3.507-19.436-6.49l-13.862 3.968c2.047 2.22 4.333 4.98 5.306 7.33l1.393 3.366-3.639.138c-6.53.247-13.454-2.85-19.034-6.123l-6.003 1.958q.117.053.234.11l14.36 7.001-13.806 47.272c10.628-1.519 21.195-3.43 31.8-5.09q4.05-.636 8.106-1.227c7.135-1.036 14.296-1.937 21.499-2.325 4.112-.221 8.233-.124 12.213 1.041 4.073 1.193 7.972 2.867 11.924 4.396l7.115 2.752-80.158 22.404.935 4.445c.223 1.062-.015 2.147-.784 2.937-.898.923-1.84.974-3.027 1.03-5.452.26-10.915.239-16.37.144q-.952-.016-1.903-.037l-33.597 16.8-7.366-4.224c-2.533-1.453-4.717-3.542-4.993-6.6-.256-2.84 1.254-5.702 2.924-8.151q-6.536-.476-13.065-1.035c-7.755-.664-14.593-2.103-21.667-5.385-16.292-.945-32.758-2.929-48.661-6.631-4.715-1.098-9.4-2.36-14.005-3.863l-2.05 6.487-7.376-.872-.592 5.12-2.367-.113a27 27 0 0 1-1.848-.155l2.337 1.686c1.377.994 1.397 1.75.812 3.202l-.558 1.392c-.228.567-.47 1.058-1.065 1.331-.576.264-.998.126-1.565.047-2.601-.367-5.165-.923-7.704-1.582zm161.192-79.347-.066.021.024.021zm-8.161 8.161a58 58 0 0 1-7.02-2.984l-15.431 5.493c1.296 1.832 2.161 3.918 2.186 6.227l.034 3.212-3.131-.713c-4.32-.983-8.589-2.212-12.695-3.883l-4.228 1.505-9.951 4.748a906 906 0 0 1 24.448 12.183z" style="fill:#fff;fill-rule:evenodd"></path><path d="m552.473 371.743 8.133-.602c.65-.048 1.296.167 1.728.669.893 1.036.355 2.398-.462 3.277l-1.524 1.638 2.54 7.065c.257.718.744 1.652-.192 2.225-.618.379-1.207.095-1.618-.369-.187-.21-.363-.44-.535-.662l-4.642-6-107.569 28.267c2.455 2.251 5.246 6.29 5.969 8.99l.348 1.298-1.34.115c-5.643.487-13.886-3.61-19.134-6.603l-16.664 4.77c2.862 2.94 5.672 6.279 6.627 8.585l.619 1.495-1.618.061c-6.002.228-12.679-2.586-18.811-6.251l-18.183 5.93a36 36 0 0 1 2.93 2.52l2.742-2.742c1.772-1.77 3.758-1.909 5.955-.838l13.293 6.48-14.084 48.224c11.341-1.559 22.67-3.625 33.98-5.395q4.043-.635 8.09-1.225c7.095-1.03 14.21-1.927 21.373-2.313 3.948-.212 7.92-.132 11.741.987 4.021 1.177 7.908 2.847 11.812 4.357l3.162 1.223-77.346 21.62 1.206 5.734c.127.603.027 1.212-.415 1.666-.588.604-1.327.57-2.085.605-5.408.257-10.867.237-16.279.143q-1.122-.02-2.244-.044l-33.234 16.618-6.711-3.849c-7.326-4.201-3.895-9.758-.15-14.753q-7.793-.549-15.564-1.214c-7.77-.665-14.397-2.066-21.437-5.373-16.199-.928-32.898-2.935-48.692-6.612-6.204-1.445-12.394-3.185-18.382-5.387l2.676 2.595-1.66 5.252-8.136-.96.447.647-.535 4.628-1.052-.05c-2.496-.12-5.353-.717-7.992-1.4l7.59 5.48c.815.588.665.7.329 1.534l-.559 1.392c-.31.77-.306.623-1.127.508-4.483-.632-8.863-1.842-13.188-3.162l-.106.293 6.612 5.538c.09.702.444 2.436.127 3.07l-.977.058c-3.922.074-7.967-.952-11.723-2.132l-.903 1.317c2.235 1.398 4.374 3.348 6.207 5.228l-.458 2.546c-3.859.432-7.578-.477-11.269-1.51l-9.028 11.24-.303 1.275-3.244 3.599.018 4.356c.01 2.257-1.846 2.987-3.26 1.19l-4.866-6.187-6.666-2.014c-2.205-.665-3.535-2.43-3.735-4.718l-.845-9.636q-.36.854-.838 1.624c-.985 1.585-3.248 4.74-5.351 4.745-6.121.016-11.8-1.248-17.652-2.948-3.89-1.13-7.952-2.475-11.576-4.292-1.847-.925-3.1-2.2-3.7-4.227-1.176-3.985-.045-9.852 2.193-13.318 1.374-2.128 3.877-4.1 6.448-4.404q.244-.03.488-.048a174 174 0 0 1-9.024-3.026c-3.621-1.331-5.641-2.39-6.45-5.689-.952-3.876.075-10.455 2.947-14.998 1.557-2.462 3.658-4.183 6.293-4.5 1.83-.22 3.97.08 6.28.655 3.27.814 7.057 1.81 10.68 3.057 1.7.14 3.134.515 4.027 1.004q.054.03.106.063l9.688-.21-7.43-23.654a495 495 0 0 1-18.26-11.668c-14.963-5.886-29.969-11.639-44.878-17.667-10.909-4.41-22.14-8.789-32.566-14.243-7.959-4.163-19.751-13.046-24.723-20.576-5.051-7.648-2.84-14.314 5.422-18.008 5.228-2.337 11.74-3.169 17.425-3.745 7.032-4.636 22.238-4.617 30.29-4.176 4.391.24 8.795.691 13.138 1.38 17.634 2.796 34.473 9.211 50.878 16.052 18.549 7.735 36.804 16.174 54.922 24.863 8.808 4.225 17.596 8.341 26.671 11.967l12.807-1.907c-.161-7.35 3.739-15.972 11.429-17.41 3.643-.68 7.721.464 11.136 1.698 5.07 1.83 9.924 4.291 14.563 7.03l10.06 1.91 57.57-8.728q-.076-.59-.131-1.209c-.738-8.087 4.635-17.43 13.14-18.676 3.686-.54 7.212.269 10.607 1.704 5.005 2.115 9.373 4.795 13.872 7.822q.939.63 1.897 1.303c1.566.453 3.127.948 4.651 1.457.893.298 1.821.612 2.746.953l118.662-16.728c9.37-1.32 16.899-1.146 25.836 2.46m-382.568 125.48c1.875-.602 4.091-2.028 5.772-4.466l.59 4.369zM383.538 433.7a56.4 56.4 0 0 1-9.539-3.888l-17.872 6.362c1.806 1.987 3.09 4.306 3.119 6.904l.015 1.427-1.392-.317c-4.668-1.061-8.954-2.34-12.97-4.017l-4.806 1.71-12.35 5.892q.345.305.665.63c9.07 4.341 18.08 8.803 26.99 13.437z" style="fill:#000200;fill-rule:evenodd"></path><path d="M142.093 466.087c-2.427.292-4.216 1.992-5.475 3.985-2.286 3.615-3.843 9.901-2.806 14.127.759 3.094 2.971 3.88 5.745 4.9a172 172 0 0 0 10.369 3.43c3.164.94 6.365 1.799 9.587 2.518 2.677.597 5.458 1.132 8.192 1.378 1.105.1 2.5-.446 3.443-.975 1.624-.913 2.973-2.277 3.946-3.86 2.473-4.025 2.168-10.016-1.44-13.282-2.526-2.288-5.798-4.45-8.874-5.958-5.067-2.483-11.35-4.273-16.815-5.632-1.829-.455-3.985-.859-5.872-.631M147.835 494.349c-2.254.266-4.464 2.085-5.633 3.896-2.122 3.286-3.111 8.82-2.058 12.388.54 1.826 1.678 2.814 3.124 3.54 3.45 1.728 7.704 3.146 11.386 4.216 5.984 1.738 11.388 2.918 17.334 2.903 1.038-.003 3.025-1.778 4.58-4.396 2.662-4.48 1.132-10.911.945-11.071-2.185-1.865-6.298-4.411-9.155-5.782-3.675-1.763-7.882-3.277-12.022-4.414-2.723-.747-5.626-1.619-8.5-1.28" style="fill:#fff;fill-rule:evenodd"></path><path d="M231.257 496.03c2.691.624 4.852.958 6.342 1.03l.366-3.162-1.62-2.35 9.683 1.144 1.17-3.7-3-2.908.095-.941-.133-.051a408 408 0 0 1-38.317-17.085c-13.367-6.803-26.45-13.985-39.228-21.725l7.648 24.349-10.21.223.249.394q.416.193.825.394c3.176 1.557 6.434 3.706 9.057 6.081 2.373 2.149 3.432 5.369 3.294 8.54l9.879 3.517 15.54-3.657 7.976 2.934 2.268-.246c-2.444-1.582-4.742-3.316-6.789-5.185l-.898-.821 6.808.774c-5.164-2.643-9.652-6.778-13.862-10.648l-.29-.267.533-.58.29.266c4.729 4.346 9.855 9.084 15.878 11.533l2.659 1.082-9.658-1.098c4.473 3.858 10.021 7.095 15.602 9.552a43.2 43.2 0 0 0 7.843 2.61m-53.704 2.203-7.929.121c-1.102-.367-2.381-.394-3.738-.285q1.428.6 2.813 1.263c2.97 1.426 6.83 3.762 9.326 5.893.633.54.846 3.719.872 4.49.023.688.011 1.39-.044 2.092l8.857 2.924 11.92-3.21a60 60 0 0 0 7.48 3.322c1.979.728 3.887 1.218 5.952 1.721 2.444.597 4.856.994 7.355.867l.254-1.194c-1.958-2.008-3.962-3.682-6.65-5.203l1.623-2.368c-6.393-2.432-12.22-5.815-17.622-9.997l.482-.624c5.663 4.384 11.792 7.864 18.536 10.297 3.65 1.137 7.625 2.142 11.285 2.074-.006-.428-.104-.995-.202-1.423l-6.958-5.804.476-1.315c-7.1-2.73-13.792-6.072-19.42-11.299l.537-.578c4.725 4.389 10.215 7.425 16.06 9.891 2.202.929 4.378 1.671 6.672 2.335 3.419.988 6.916 1.862 10.454 2.36l.56-1.39-9.223-6.658-.128-.742c-4.349-1.63-8.825-3.755-12.942-6.304l-3.437.372-7.926-2.916-15.537 3.656-9.896-3.523q-.017.165-.04.329c1.072.614 2.454 1.46 3.793 2.635.356.312.625 1.126-.412 1.19-1.465.09-2.737.072-4.144.027zm1.83 18.646.764 8.709c.175 1.996 1.33 3.253 2.939 3.738l6.931 2.094 6.389 1.263v-.055l3.342-3.708.296-1.242 9.079-11.303c-3.26-1.06-6.704-2.487-9.59-4.01l-11.846 3.19-8.553-2.825c1.174.718 2.886 1.874 4.06 2.904.356.312.625 1.126-.412 1.19-1.09.068-2.253.075-3.398.055" style="fill:#fff;fill-rule:evenodd"></path><path d="m190.833 532.385 4.346 5.524c.68.865 1.252.793 1.247-.489l-.017-3.933z" style="fill:#00448c;fill-rule:evenodd"></path><path d="M148.245 494.857c2.516.744 3.435 4.775 2.074 9.968-1.297 4.951-4.836 9.215-7.315 8.451-.547-.168-1.038-.639-1.441-1.332l.565-.43c.284.523.644.954 1.083 1.09.596.183 1.263-.082 1.866-.493-.59-1.967-.676-4.445-.08-7.018.815-3.52 2.712-6.204 4.838-7.613-.277-.792-.724-1.435-1.407-1.793a2 2 0 0 0-.383-.155c-1.22-.362-2.511.45-3.355 1.26a8.4 8.4 0 0 0-.86.97l-.583-.395c1.547-2.047 3.444-2.971 4.998-2.51m-.971 14.968q.414-.591.774-1.235l-2.848 1.12q.049.583.155 1.154zm1.158-1.963q.206-.416.389-.842l-3.64.677q-.036.583-.026 1.167zm.63-1.434a17 17 0 0 0 .224-.618l-3.84-.128q-.11.55-.18 1.116zm.384-1.107q.097-.316.18-.63l-3.656-.949q-.194.562-.34 1.131zm.3-1.119q.077-.331.15-.72l-3.115-1.63q-.286.55-.522 1.124zm.247-1.279q.065-.4.115-.83l-2.28-1.909q-.344.46-.644.953zm.186-1.586c.03-.413.047-.833.043-1.25l-1.1-1.334a10 10 0 0 0-.762.776zM138.778 485.532c-1.166-2.147-1.557-5.415-.776-8.85.942-4.139 3.329-7.144 5.845-8.32a2.9 2.9 0 0 0-.898-.79 2.5 2.5 0 0 0-.574-.228c-1.234-.325-2.758.846-3.56 1.653q-.327.33-.627.693l-.584-.397c1.645-2.013 3.551-2.999 4.95-2.63 3 .79 4.013 5.582 2.325 11.096-1.688 5.513-5.598 9.659-8.443 8.878-.441-.121-.855-.537-1.206-1.176l.611-.34c.222.427.485.756.782.837.707.194 1.463-.032 2.155-.426m6.19-13.553-1.472-2.793a8 8 0 0 0-.93.654l2.413 3.409q.027-.64-.01-1.27m-.035 1.969-2.976-3.564q-.369.36-.702.76l3.59 3.565q.053-.38.088-.761m-.32 2.046c-.862.102-1.526.36-1.651.78-.17.567.097 1.307.792 2.083a19 19 0 0 0 .86-2.863m-1.448 4.224-4.692 2.881a10 10 0 0 0 .287.993l3.961-3.01q.234-.426.444-.864m-1.21 2.126-2.86 2.565q.076.162.16.32c.515-.36.975-.785 1.326-1.155.497-.525.956-1.108 1.374-1.73m2.714-7.236-3.933-3.293a12 12 0 0 0-.625.97l3.867 2.459q.315-.075.691-.136m-1.28.32-3.667-1.921q-.276.555-.502 1.13l3.476 1.222c.188-.18.417-.32.693-.432m-1.02.864-3.426-.889q-.186.561-.326 1.128l3.526.413q.022-.173.081-.333.064-.172.145-.319m-.222 1.166-3.706-.123q-.105.545-.173 1.107l4.034-.393a2.7 2.7 0 0 1-.155-.591m.384 1.068-4.344.808q-.031.513-.028 1.028l4.683-1.37a4 4 0 0 1-.311-.466m.599.803-4.938 1.874q.036.533.118 1.055l5.117-2.64a5 5 0 0 1-.297-.29" style="fill:#000200;fill-rule:evenodd"></path><path d="m243.493 411.222-50.26 7.485-.096-.333c-2.464.522-3.109 2.034-2.307 4.512.41 1.265 1.083 2.473 1.757 3.614l.2.34-.678.4-.2-.34c-.706-1.193-1.401-2.447-1.83-3.771-1.003-3.102.073-5.13 3.439-5.624l.39-.057.003.019 47.517-7.077c-8.639-3.516-16.286-7.119-24.959-11.278-17.77-8.523-36.249-17.075-54.867-24.84-16.604-6.922-33.257-13.225-50.621-15.978-15.249-2.418-35.412-2.394-42.856 2.775-7.559.76-13.054 1.756-17.362 3.682-7.618 3.406-9.655 9.22-4.941 16.359 5.421 8.21 18.204 17.006 24.305 20.197 9.617 5.031 21.277 9.673 32.466 14.197 16.894 6.831 34.213 13.471 44.983 17.708 21.122 14.177 40.936 25.09 58.625 34.092 13.757 7.002 25.925 12.297 38.243 17.052 23.102 8.917 53.366 11.734 68.72 12.604 4.925 2.336 10.759 4.464 21.249 5.362 17.133 1.468 54.335 4.033 74.033 3.097.658-.032 1.657.067 1.45-.914l-1.268-6.031-4.914 1.28-10.354-6.041.398-.681 10.072 5.876 10.2-2.724 69.54-19.437c-2.687-1.04-7.785-3.174-11.721-4.327-3.69-1.08-7.537-1.149-11.365-.943-7.144.385-14.194 1.275-21.27 2.303-12.747 1.85-26.088 4.22-36.997 5.877-4.702.715-9.406 1.405-14.106 2.14-3.782.59-6.877.783-10.443-.485 1.731 3.46 4.605 6.188 7.612 8.568l.309.245-.49.618-.309-.245c-3.367-2.665-6.535-5.739-8.253-9.75l-.382-.894.896.375c3.82 1.592 6.986 1.405 10.939.788l7.66-1.197 14.067-48.162-12.438-6.064c-1.792-.873-3.256-.787-4.665.622l-2.744 2.744c1.556 1.632 2.796 3.375 3.36 5.11l.554 1.703-1.774-.237a54 54 0 0 1-7.237-1.48L355.61 463.22c-8.296-4.326-16.856-8.582-25.589-12.782a8.8 8.8 0 0 1 1.194 3.244l.22 1.396-1.41-.096c-4.022-.275-8.035-1.025-11.992-2.155-4.044 2.118-8.088 4.238-12.066 6.48-3.96 2.232-7.858 4.585-11.598 7.172l-.107-.039-.005.015-14.983-5.14.256-.745 14.307 4.907c3.719-2.565 7.609-4.915 11.577-7.151 3.788-2.135 7.647-4.166 11.497-6.183-14-4.284-27.221-13.274-37.497-22.808l.655-.468c8.948 8.276 21.43 17.27 35.195 21.92a64 64 0 0 0 7.624 2.077c2.383.488 4.792.828 7.214.994-.432-2.736-2.105-4.622-4.471-6.324l.424-.204 13.606-6.491 4.185-1.49c-5.756-2.553-10.966-5.986-15.978-10.865a94 94 0 0 1-3.81-3.953l-6.023.808-8.127-4.16.36-.702 7.907 4.047 14.93-2.003 9.757 3.038c2.141.666 4.554.41 6.532-.611l.362.7c-2.16 1.117-4.792 1.39-7.128.664l-9.59-2.986-8.02 1.076c4.86 5.285 9.931 9.85 17.559 13.492 3.451 1.648 7.07 2.937 10.75 3.977a95 95 0 0 0 4.792 1.218c-.03-2.737-1.7-5.232-4.048-7.38l19.01-6.766c-6.623-3.589-12.553-8.383-17.993-13.828l.661-.45c4.595 4.59 9.645 8.807 15.271 12.19a61 61 0 0 0 5.01 2.707c4.935 2.369 10.289 4.075 16.13 4.857-1.014-3.115-4.656-6.519-8.445-9.17l19.768-6.448c-2.662-1.647-5.207-3.435-7.527-5.176l-.175-.038c-4.759-1.058-9.545-3.015-14.037-4.9-5.484-2.298-11.506-5.107-16.296-8.651-2.341-1.733-3.29-3.809-3.75-6.317l-56.909 8.628 6.724 4.59-.487.622-7.347-5.008-8.14-1.49c4.377 2.697 8.911 5.882 12.232 9.675 1.16 1.324 1.287 3.902 1.207 5.57a21.4 21.4 0 0 1-.829 4.874c1.269.928 2.273 2.022 2.976 3.112.421.652.201 1.057-.469 1.163-1.037.163-2.614.158-4.16-.127-1.387 2.625-3.389 4.783-6.511 5.242-4.33.637-7.626-.329-11.767-1.452-4.285-1.162-8.555-2.44-12.74-3.925-4.555-1.615-9.605-3.637-13.646-6.305-3.11-2.054-4.356-4.934-4.877-8.517a18 18 0 0 1-.127-1.135zM76.096 362.411v-3.017c-2.043 0-3.721.548-5.208 1.554 1.523.974 2.742 1.067 5.208 1.463m1.28.092v-3.018c1.647.214 4.022 1.433 6.033 3.291zM433.304 410.129l-17.933 5.133c3.506 3.46 6.841 7.438 7.726 9.575-4.223.16-8.843-1.277-13.392-3.486-2.289-1.111-4.497-2.384-6.643-3.748a101 101 0 0 1-5.346-3.659c2.878.417 6.008.335 8.53-1.049a11.7 11.7 0 0 0 3.85-3.416c1.59.311 3.32.32 4.387.153.67-.106.89-.51.47-1.163a11.4 11.4 0 0 0-1.638-1.983l.53-.061 5.007 2.285 9.852-1.447a120 120 0 0 0 4.6 2.866" style="fill:#fff;fill-rule:evenodd"></path><path d="m552.776 372.85 7.913-.585c.944-.07 1.45.881.358 2.055l-1.99 2.14 2.77 7.711c.327.91.572 1.371-.393.124z" style="fill:#00448c;fill-rule:evenodd"></path><path d="M526.794 370.398c8.256-1.164 15.705-1.364 24.83 2.22l3.915 5.297-108.746 28.576-4.31-2.305-.371.696 4.479 2.396c2.859 2.032 5.993 6.905 6.622 9.254-3.741.323-8.959-1.511-14.365-4.251a95 95 0 0 1-6.748-3.799 122 122 0 0 1-3.213-2.043l-9.92 1.457-4.994-2.28-1.446.168a13 13 0 0 0-.386-.304c.322-.932.57-1.898.753-2.877.588-3.154.358-6.724-1.757-9.3-2.385-2.903-5.537-5.595-8.735-7.97a98 98 0 0 1 5.424 1.836zM268.071 391.854c-7.771 1.452-11.391 11.154-10.336 18.403.49 3.363 1.62 6.05 4.532 7.973 6.653 4.392 18.17 7.96 26.157 10.127 4.48 1.215 7.377 2.031 11.446 1.433 2.791-.41 4.85-2.363 6.426-5.848 2.379-5.259 2.38-10.976.881-12.687-3.496-3.993-8.628-7.49-13.59-10.456-4.96-2.966-9.946-5.482-14.97-7.296-3.587-1.295-7.325-2.251-10.546-1.65m2.47.9c2.172.595 3.189 3.049 3.588 5.054.525 2.631.291 5.619-.466 8.182q-.148.502-.326.993c-.977 2.685-2.631 5.368-4.767 7.287-1.54 1.384-3.858 2.782-6.008 2.119-1.7-.524-2.668-1.821-3.196-3.351l.752-.23c.493 1.403 1.352 2.419 2.677 2.827.772.238 1.652.148 2.57-.215-2.852-2.23-3.373-7.696-1.992-12.785 1.007-3.715 4.743-7.943 8.725-7.812-.482-.659-1.073-1.119-1.766-1.308-2.219-.608-4.944.716-6.955 3.188l-.63-.459c1.893-2.312 4.84-4.3 7.793-3.49m2.27 11.455.468.044c-.165.833-.393 1.66-.683 2.46a19 19 0 0 1-.722 1.716 10 10 0 0 1-.398-.262l-.014-.01-.01-.007-.005-.003-.014-.01-.014-.01c-1.582-1.125-2.347-2.307-2.102-3.126.201-.676 1.884-.932 3.492-.793zm-6.87 10.952a9.3 9.3 0 0 0 1.595-1.046l2.733-4.628-.295-.253-4.256 5.77zm7.282-17.784a8.6 8.6 0 0 0-.658-1.79l-.01 6.885.263-.002zm-3.49 11.58-4.508 5.64c-.216-.214-.386-.404-.51-.64l4.857-5.317zm-.346-.655-5.106 4.955a4.5 4.5 0 0 1-.37-1.005l5.359-4.312zm-.24-.795-5.483 3.89a13 13 0 0 1-.197-.982l5.596-3.22.026.102zm-.145-.642-5.647 2.69a17 17 0 0 1-.075-1.038l5.691-1.936q.011.144.03.284m-.043-.619-5.696 1.432q.002-.557.031-1.073l5.681-.753a5 5 0 0 0-.016.394m.061-.76-5.655.228a16 16 0 0 1 .145-1.063l5.585.476q-.045.176-.075.358m.174-.683-5.533-.952q.112-.539.256-1.07l.038-.135 5.41 1.77q-.098.182-.171.387m.35-.67-5.325-2.256q.192-.487.449-.981l5.097 2.97c-.075.083-.159.174-.22.267m.449-.496-4.933-3.442q.298-.493.648-.97l4.572 4.17zm.538-.424-4.323-4.624q.306-.366.637-.704l3.916 5.184zm.493-.288-3.586-5.604q.462-.41.959-.75l2.938 6.212zm.588-.247-2.506-6.543q.37-.202.751-.355l1.976 6.829zm.694-.145-.192.018-1.483-7.023a5 5 0 0 1 1.114-.153z" style="fill:#fff;fill-rule:evenodd"></path><path d="M374.366 373.886c-8.058 1.18-12.848 10.164-12.183 17.46.309 3.382.93 5.98 3.734 8.056 4.206 3.112 10.043 6.006 16.132 8.558 4.269 1.79 9.364 3.848 13.903 4.858 3.134.696 6.998.986 9.914-.614 3.678-2.019 5.518-5.809 6.252-9.746.534-2.861.39-6.243-1.591-8.654-3.208-3.906-8.13-7.648-12.475-10.572-4.795-3.227-8.763-5.641-13.682-7.72-3.511-1.484-6.762-2.101-10.004-1.626m4.831 4.502q.57 0 1.106.102c-.634-1.281-1.607-2.407-2.965-2.931a4.4 4.4 0 0 0-1.451-.295c-1.72-.06-3.786.83-5.482 1.98l-.394-.56c1.951-1.32 4.199-2.155 5.9-2.095 4.393.153 7.328 5.699 5.598 12.859-1.61 6.668-7.027 11.942-11.877 11.697-2.494-.126-4.41-1.484-5.484-3.686l.653-.183c.446.88 1.072 1.653 1.927 2.24.877.6 1.881.9 2.938.954q.423.02.84-.017c-1.487-2.194-2.208-5.338-1.722-8.748.913-6.4 5.737-11.317 10.413-11.317m-2.435 16.557.624-1.803a4 4 0 0 1-.533-.31l-1.412 3.36a14 14 0 0 0 1.322-1.247m.973-1.653-.202.764q.26-.324.505-.66a5 5 0 0 1-.303-.104m2.853-14.162a5 5 0 0 0-.377-.085l-.968 7.494q.165.01.33.034l1.388-6.296a10 10 0 0 0-.373-1.147m.668 2.766-1.413 4.728q.216.05.427.128l1.035-2.39c.053-.822.042-1.651-.049-2.466m-.151 4.163-.452.864q.128.067.25.146.115-.499.202-1.01m-.536 2.257c-1.739-.265-3.715-.035-3.941.724-.253.848.471 2.087 2.147 3.248a17.6 17.6 0 0 0 1.794-3.972m-6.28 8.724 2.252-4.467c-.12-.106-.128-.16-.23-.278l-3.415 5.508c.48-.215.947-.474 1.392-.763m-2.641 1.21 4.492-6.168a4 4 0 0 1-.19-.28l-5.162 6.086q.152.248.32.483.271-.051.54-.122m7.332-11.717q-.186.003-.37.024l.03-7.58a6 6 0 0 1 .777-.02zm-.636.063-.129.026-1.336-7.25q.47-.17.958-.274zm-.388.092q-.09.026-.18.057l-2.624-6.517q.47-.298.967-.537zm-.433.154a4 4 0 0 0-.188.085l-3.662-5.567q.384-.349.803-.664zm-.435.216a4 4 0 0 0-.331.217l-4.31-4.626q.262-.317.543-.617l.095-.1zm-.565.404q-.133.116-.253.245l-5.01-3.37q.312-.524.668-1.017zm-.445.471a3 3 0 0 0-.185.269l-5.525-2.106q.228-.536.496-1.051zm-.328.533a3 3 0 0 0-.135.335l-5.919-.75q.163-.607.377-1.2zm-.219.625a4 4 0 0 0-.058.29l-6.148.528.017-.125q.066-.466.163-.93zm-.093.606a4 4 0 0 0-.007.313l-6.217 1.82q-.006-.529.026-1.04zm.01.6q.009.094.024.188l-6.125 3.134a14 14 0 0 1-.1-.95zm.08.472q.028.122.066.242l-5.856 4.45q-.143-.491-.246-.995zm.142.46q.05.13.11.257l-5.413 5.63q-.188-.392-.345-.803zM351.223 504.752a96 96 0 0 0-.817 1.088c-3.384 4.588-6.018 9.037.186 12.595l6.186 3.548 30.796-15.4c-4.82-.128-9.64-.321-14.454-.552-7.294-.349-14.599-.775-21.897-1.279" style="fill:#fff;fill-rule:evenodd"></path><path d="m396.445 425.25-5.195 5.301c.898 1.152 1.596 2.338 1.98 3.52l.554 1.702-1.774-.237a54 54 0 0 1-4.798-.864l-28.55 29.131 3.02 1.282c1.643 2.522-3.917 8.042-8.142 12.438-2.471 2.572-4.705 4.873-7.438 7.097-4.263 3.47-9.22 6.624-14.17 9.327-3.58 1.954-7.442 3.838-11.735 5.792 3.67 1.14 8.17 2.065 14.216 2.583 7.695.66 19.44 1.54 31.829 2.225 8.156-3.037 14.402-7.469 19.13-14.032l-.052-.05-.22.278-.31-.244c-3.367-2.666-6.535-5.74-8.253-9.751l-.383-.893.897.374c3.82 1.592 6.986 1.405 10.939.788l.959-.15 9.934-12.116 10.834-37.093-12.438-6.064a7 7 0 0 0-.834-.343" style="fill:#00448c;fill-rule:evenodd"></path><path d="M229.805 409.424c-.518-.228-1.01-.336-1.458-.315-.448.02-.828.168-1.131.433-.372.325-.56.792-.56 1.389 0 .513.138 1.05.409 1.599l1.176-.176q-.15-.387-.15-.79c0-.49.164-.82.482-.985.323-.167.725-.14 1.237.086.506.223.91.552 1.232 1.006q.085.12.156.243l1.148-.171a6 6 0 0 0-1.086-1.348 5.3 5.3 0 0 0-1.455-.97m-13.237-5.83c-1.022-.452-1.947-.607-2.748-.46l-.087.014.623 1.253.096-.007c.625-.043 1.29.089 1.973.39q.675.3 1.05.621c.223.192.33.352.33.49q-.001.47-1.113-.02l-1.268-.56v1.225l1.068.471c.574.254.985.473 1.224.654.308.23.344.404.344.517 0 .406-.503.392-1.492-.044-.99-.438-1.796-1.081-2.396-1.911l-.077-.105-.942.44.08.107c.92 1.21 2.033 2.108 3.305 2.67.95.42 1.696.595 2.214.518.534-.078.803-.404.803-.966 0-.548-.288-1.09-.859-1.616q.585-.162.585-.843c0-.493-.246-1.001-.734-1.515-.487-.513-1.154-.96-1.979-1.323zm6.64 2.931c-.886-.39-1.581-.552-2.072-.48-.505.074-.762.38-.762.906q0 .582.58 1.277c-.638.034-.962.327-.962.872 0 .543.29 1.107.862 1.679.556.555 1.342 1.059 2.338 1.499.7.309 1.301.497 1.794.561l1.092-.162q.337-.232.337-.741c0-.544-.321-1.122-.96-1.72q.58-.178.58-.765c0-.527-.254-1.058-.757-1.577-.487-.504-1.185-.958-2.07-1.349m-14.107-6.139-3.056 4.232 1.814.801.457-.697 2.086.922-.646-1.508-.827-.365.775-1.184 1.956 4.51 1.82.804-3.178-6.984zm13.922 7.298.161.072c.913.403 1.378.788 1.378 1.148 0 .316-.38.308-1.126-.021l-.442-.195c-.762-.336-1.147-.667-1.147-.982 0-.338.395-.345 1.176-.022m.2 2.172c.596.264 1.041.513 1.316.739.25.205.367.398.367.608q0 .249-.388.237c-.303-.011-.74-.142-1.303-.39-.57-.252-1.011-.509-1.309-.76-.271-.231-.403-.423-.403-.59 0-.4.58-.347 1.72.156" style="fill:#114289;fill-rule:evenodd"></path><path d="m163.144 388.945 2.423 1.043v-8.75l-2.423-1.043zM175.644 388.569c0-1.595-1.216-3.44-3.719-4.58l-5.055-2.298v8.751l2.344 1.067v-6.904l2.873 1.307c.85.386 1.203 1.02 1.203 1.582s-.371.845-1.22.458l-2.011-.914 3.041 6.238 2.405 1.093s-2.08-4.119-2.07-4.116c1.503.265 2.21-.438 2.21-1.684zM154.98 376.601l-5.128 6.513 3.045 1.328.766-1.072 3.498 1.527-1.087-2.392-1.382-.603 1.3-1.826 3.277 7.147 3.054 1.333-5.327-11.076zM201.387 400.215c-1.82-1.058-2.433-1.454-2.4-1.99.03-.472.712-.458 1.767-.063.995.374 2.173 1.212 2.855 1.864l.826-1.433c-1.045-.807-2.307-1.68-4.009-2.318-2.23-.836-3.698-.166-3.79 1.292-.09 1.46 1.017 2.533 3.264 3.826 1.744 1.004 2.208 1.387 2.177 1.89-.031.5-.751.42-1.707.062-1.237-.464-2.404-1.288-3.498-2.15l-.783 1.405c1.306 1.073 2.671 2.051 4.33 2.673 2.766 1.038 3.97.251 4.057-1.158.079-1.253-.81-2.577-3.089-3.9M192.96 393.158v4.853c0 1.483-.966 1.69-2.154 1.18-1.19-.512-2.15-1.544-2.15-3.028v-4.854l-2.398-1.03v4.866c0 3.103 2.034 4.881 4.549 5.962 2.514 1.08 4.552 1.052 4.552-2.05l-.001-4.868zM184.24 393.57c.632-.126.871-.676.871-1.394 0-1.35-1.283-2.973-2.86-3.642l-5.706-2.419v8.614l5.932 2.514-.001.004c1.664.705 3.051.156 3.051-1.234 0-.908-.616-1.84-1.286-2.442zm-1.931 1.932-3.42-1.473v-1.724l3.42 1.473c.563.25 1.018.824 1.018 1.296s-.457.67-1.018.428m-3.42-6.528 3.36 1.446c.46.203.85.69.85 1.106s-.409.573-.87.37l-3.34-1.437z" style="fill:#67aad4;fill-rule:evenodd"></path><path d="m100.767 364.288 8.258 2.327c.955.268 1.243.72 1.23 1.646-.049 3.22-.511 7.788-1.091 10.674-.095.47-.678.856-1.506.594l-7.804-2.465c-.726-.23-.86-.661-.73-1.411.553-3.162.74-6.85.502-10.224-.036-.515.164-1.417 1.141-1.141m-.152.542c-.41-.115-.45.218-.427.56.239 3.386.075 7.019-.509 10.36-.077.443-.104.635.344.777l7.805 2.465c.19.06.725.12.783-.168.657-3.269 1.03-7.231 1.08-10.57.01-.698-.142-.906-.819-1.097z" style="fill:#ebecee;fill-rule:evenodd"></path><path d="M98.546 376.398c.232.59.498.972 1.117 1.164l7.864 2.445c.465.144 1.059-.045 1.432-.333l.223-.172.344.446-.223.172c-.521.402-1.3.624-1.943.424l-7.864-2.444c-.79-.245-1.178-.743-1.474-1.496l-.103-.263.524-.206zM174.629 391.682l5.372 2.375c.906.4 1.242.72 1.23 1.646-.047 3.31-1.15 8.974-1.73 11.222-.12.462-.726.974-1.506.594l-5.797-2.83c-.682-.334-.891-.67-.729-1.412.55-2.522 1.287-7.398 1.506-10.68.085-1.282.686-1.343 1.654-.915m-.228.515c-.688-.304-.812-.345-.864.438-.229 3.43-.785 7.407-1.518 10.762-.105.48-.01.571.426.785l5.797 2.83c.25.123.63.093.713-.228.517-2.006.907-4.151 1.22-6.198.245-1.59.47-3.283.492-4.891.01-.72-.259-.842-.894-1.123z" style="fill:#ebecee;fill-rule:evenodd"></path><path d="M171.043 404.081c.206.927.549.926 1.28 1.276l5.765 2.767c.416.199 1.04-.035 1.282-.414l.152-.237.475.303-.152.237c-.395.62-1.326.942-2 .619l-5.766-2.767c-.894-.429-1.331-.516-1.586-1.66l-.062-.276.55-.122zM206.606 394.417c.93 2.465 1.687 4.957 2.04 6.718.181.908-.174 1.855-1.386 1.264l-4.914-2.396c-.889-.432-1.095-.565-1.247-1.572-.425-2.825-1.488-5.497-2.7-7.86l.819.38c1.15 2.33 2.043 4.771 2.438 7.396.12.801.218.8.937 1.15l4.914 2.396c.634.31.707-.042.586-.648-.395-1.977-1.213-4.627-2.2-7.165z" style="fill:#ebecee;fill-rule:evenodd"></path><path d="m364.807 458.186-2.532 7.993 2.316.92.407-1.334 2.663 1.058-1.065-2.457-1.055-.42.416-2.084 3.395 7.53 2.323.923-5.153-11.52zM382.921 465.68c-1.032-.635-1.852-.86-2.445-.673-.61.193-.939.791-.977 1.774-.028.723.172 1.5.602 2.321-.766.132-1.175.715-1.214 1.73-.027.698.196 1.312.547 1.954a10.2 10.2 0 0 0 3.329 3.631c1.01.674 1.83.994 2.514.816.687-.183 1.056-.79 1.095-1.802.04-1.015-.304-2.06-1.025-3.107q.706-.394.75-1.49c.037-.983-.229-1.948-.794-2.861-.547-.887-1.35-1.66-2.382-2.294m-.304 2.182q.09.054.188.116c1.064.654 1.593 1.323 1.567 1.995-.023.59-.478.616-1.347.082l-.514-.316c-.889-.546-1.325-1.12-1.303-1.71q.04-.945 1.409-.167m.083 4.032c.695.427 1.21.845 1.522 1.236.285.356.411.705.397 1.095q-.019.468-.482.486c-.362.014-.785-.278-1.44-.68-.664-.408-1.129-.793-1.467-1.232-.308-.4-.451-.744-.44-1.056.03-.746.581-.665 1.91.151M374.947 461.912c-1.25-.73-2.975-.72-3.902-.41l-.1.031 1 2.445.111-.018c1.031-.163 1.794-.286 2.811.233.777.397 1.452 1.042 1.5 1.836q.046.83-1.313.037l-1.686-.996.081 2.159 1.488.854c.702.41 1.208.77 1.508 1.073.386.385.446.691.458.89.042.716-.55.724-1.759.019-1.21-.707-2.225-1.79-3.017-3.215l-.101-.18-1.062.839.104.183c1.209 2.074 2.61 3.586 4.166 4.494 1.161.679 2.056.938 2.657.77.62-.174.903-.766.845-1.758-.057-.966-.498-2.225-1.224-3.114.62-.204.705-1.163.551-1.946-.337-1.711-1.476-3.268-3.116-4.226M390.174 469.62c-.56-.382-1.098-.541-1.596-.464-.5.078-.931.384-1.285.906-.434.638-.673 1.526-.713 2.638-.04 1.124.127 2.292.498 3.47.632 2.022 1.545 3.452 2.716 4.251q.212.146.42.248l2.238-.35c.07-.081.156-.217.222-.314.434-.638.674-1.533.714-2.656.04-1.112-.128-2.281-.503-3.481-.3-.96-.693-1.826-1.16-2.563-.47-.738-.991-1.303-1.55-1.685m-.077 2.313c.547.374.973.952 1.3 1.771.325.813.473 1.683.441 2.587-.032.886-.233 1.507-.6 1.842-.368.34-.813.323-1.366-.055-.548-.374-.973-.951-1.3-1.762a6.2 6.2 0 0 1-.442-2.557c.032-.914.236-1.545.6-1.88.37-.338.814-.324 1.367.054" style="fill:#fff;fill-rule:evenodd"></path><path d="M117.887 374.209c.608.109.86.74.834 1.326-.025.586-.347.926-.925.818-.577-.109-.882-.695-.857-1.28s.34-.973.948-.864M122.676 375.899c.607.109.859.74.834 1.326s-.348.926-.925.818-.883-.695-.858-1.28.34-.973.949-.864M127.464 377.87c.607.11.86.741.834 1.327-.025.585-.347.926-.925.817-.577-.108-.883-.694-.857-1.28.025-.586.34-.973.948-.864M131.97 379.56c.608.11.86.741.835 1.327-.025.585-.348.926-.925.817-.578-.108-.883-.694-.858-1.28s.341-.973.949-.864M136.759 381.25c.608.11.86.741.834 1.327-.025.585-.347.926-.925.817-.577-.108-.882-.694-.857-1.28s.34-.973.948-.864M141.266 382.94c.607.11.859.741.834 1.327-.025.585-.348.926-.925.817-.578-.108-.883-.694-.858-1.28s.341-.973.949-.864M145.772 384.63c.608.11.86.741.835 1.327-.025.585-.348.926-.925.817-.578-.108-.883-.694-.858-1.28s.34-.973.948-.864M150.279 386.594c.608.11.86.741.834 1.327-.025.585-.347.926-.925.817-.577-.108-.882-.695-.857-1.28s.34-.973.948-.864M154.504 388.292c.608.11.86.74.834 1.327-.025.585-.347.926-.925.817-.577-.108-.882-.695-.857-1.28s.34-.973.948-.864M158.447 389.982c.608.11.86.74.835 1.326s-.348.927-.925.818c-.578-.108-.883-.695-.858-1.28s.34-.973.948-.864M162.954 391.954c.608.109.86.74.834 1.326-.025.586-.347.927-.925.818-.577-.109-.882-.695-.857-1.28s.34-.973.948-.864M166.898 393.644c.607.109.859.74.834 1.326s-.348.927-.925.818-.883-.695-.858-1.28.34-.973.949-.864M153.958 372.839c.53.146.783.626.794 1.042.01.416-.25.623-.754.48a1.11 1.11 0 0 1-.812-1.012c-.011-.416.24-.657.772-.51M158.19 374.588c.53.147.783.627.794 1.042.01.416-.25.623-.754.48a1.11 1.11 0 0 1-.812-1.012c-.011-.416.24-.657.772-.51M162.438 376.447c.53.147.783.627.794 1.042.01.416-.25.623-.754.48a1.11 1.11 0 0 1-.813-1.012c-.01-.416.241-.657.773-.51M166.282 378.119c.53.146.783.626.794 1.042.01.416-.25.623-.754.48a1.11 1.11 0 0 1-.812-1.012c-.011-.416.24-.657.772-.51M170.33 379.96c.532.147.785.627.795 1.042s-.249.623-.754.48a1.11 1.11 0 0 1-.812-1.012c-.01-.416.24-.657.772-.51M174.366 381.723c.53.147.783.627.794 1.043.01.415-.25.622-.754.48a1.11 1.11 0 0 1-.813-1.013c-.01-.415.241-.656.773-.51M178.217 383.487c.531.147.784.627.794 1.042s-.249.623-.754.48a1.11 1.11 0 0 1-.812-1.012c-.01-.416.24-.657.772-.51M182.358 385.354c.531.147.784.627.795 1.043.01.415-.25.622-.755.48a1.11 1.11 0 0 1-.812-1.013c-.01-.415.241-.656.772-.51M186.104 387.046c.531.146.784.626.794 1.042s-.249.623-.754.48a1.11 1.11 0 0 1-.812-1.012c-.01-.416.24-.657.772-.51M189.887 388.7c.532.146.784.626.795 1.042.01.415-.25.623-.755.48a1.11 1.11 0 0 1-.812-1.012c-.01-.416.241-.657.772-.51M193.892 390.429c.53.146.783.626.794 1.042.01.416-.25.623-.754.48a1.11 1.11 0 0 1-.812-1.012c-.011-.416.24-.657.772-.51M212.306 398.628c.484.137.714.612.724 1.028.01.415-.227.627-.687.494-.46-.134-.73-.582-.74-.997s.22-.661.703-.525M216.16 400.298c.483.137.713.612.723 1.028.01.415-.227.627-.687.494-.46-.134-.73-.582-.74-.997s.22-.661.703-.525M220.027 402.077c.483.137.713.612.723 1.028.01.415-.227.627-.687.494-.46-.134-.73-.582-.74-.997s.22-.661.703-.525M223.526 403.677c.484.136.714.612.723 1.027.01.416-.226.628-.686.494-.46-.133-.73-.581-.74-.997-.01-.415.22-.66.703-.524M227.213 405.442c.483.137.713.612.723 1.027.01.416-.227.628-.687.494-.46-.133-.73-.581-.74-.997-.01-.415.22-.66.704-.524M230.886 407.13c.483.136.713.612.723 1.027.01.416-.227.628-.687.494-.46-.133-.73-.581-.74-.997-.01-.415.22-.66.704-.524M234.392 408.821c.484.137.714.612.723 1.027.01.416-.227.628-.687.494-.46-.133-.73-.581-.739-.997-.01-.415.22-.66.703-.524M187.066 402.222c.608.11.86.741.834 1.327-.025.585-.347.926-.925.817-.577-.108-.882-.694-.857-1.28s.34-.973.948-.864M179.797 397.889c.399.08.564.54.547.968s-.228.676-.607.597-.58-.507-.563-.935c.017-.427.224-.71.623-.63M108.503 369.737c.4.08.564.54.548.968s-.228.676-.607.597c-.38-.08-.58-.507-.563-.934.016-.428.224-.71.622-.63M191.291 404.194c.608.109.86.74.835 1.326s-.348.927-.925.818-.883-.695-.858-1.28.34-.973.948-.864M194.953 405.602c.607.11.86.741.834 1.327-.025.585-.347.926-.925.817-.577-.108-.883-.694-.857-1.28.025-.586.34-.973.948-.864M198.615 407.292c.607.11.859.741.834 1.327-.025.585-.348.926-.925.817-.578-.108-.883-.694-.858-1.28s.341-.973.949-.864M202.558 408.982c.607.11.86.741.834 1.327-.025.585-.347.926-.925.817-.577-.108-.883-.694-.858-1.28s.341-.973.949-.864M206.31 410.672c.608.11.86.741.835 1.327-.025.585-.347.926-.925.817-.577-.108-.883-.694-.857-1.28.025-.586.34-.973.948-.864M209.881 412.08c.608.11.86.742.835 1.327-.025.586-.348.927-.925.818s-.883-.695-.858-1.28.34-.973.948-.864" style="fill:#cfd7d9;fill-rule:evenodd"></path><path d="M345.633 458.111c.64 1.744 1.171 3.563 1.505 5.363.168.91-.026 1.374-.883.943l-3.044-1.53c-.881-.442-1.324-.574-1.521-1.571a29.2 29.2 0 0 0-1.928-6.131l.77.38a28.6 28.6 0 0 1 1.71 5.642c.156.783.552.84 1.222 1.177l3.044 1.53c.027.014.073.035.122.056a3 3 0 0 0-.046-.393c-.352-1.902-.938-3.886-1.682-5.833zM324.751 457.184l3.913 1.901c.662.322.978.62.986 1.528.029 3.183-.031 8.523-.093 10.73-.014.468-.205 1.232-1.177.69l-4.244-2.364c-.5-.278-.633-.588-.621-1.333.037-2.378.087-6.836.075-10.181-.005-1.263.455-1.314 1.161-.97m-.54.39c-.05.155-.058.471-.058.579.012 3.395-.022 6.796-.075 10.192-.006.401-.028.631.332.832l4.244 2.365c.052.029.196.101.28.113.04-.082.057-.26.06-.327.1-3.553.125-7.156.093-10.71-.006-.618-.132-.765-.67-1.026l-3.912-1.901a2 2 0 0 0-.295-.116M360.318 473.727l3.032 1.67c.56.308.828.594.835 1.466.022 2.767-.094 7.34-.154 9.529-.026.973-.656 1.555-1.642.933l-2.965-1.871c-.423-.267-.443-.466-.434-1.18.031-2.282.076-6.56.063-9.77-.005-1.133.666-1.106 1.265-.777m-.641.364c-.05.088-.06.331-.06.41.013 3.259-.02 6.522-.064 9.78-.004.298-.09.531.172.696l2.965 1.872c.542.342.761.142.778-.473.087-3.16.18-6.348.154-9.508-.005-.553-.073-.72-.544-.978l-3.031-1.67c-.07-.037-.273-.134-.37-.129" style="fill:#ebecee;fill-rule:evenodd" data-source="https://football-logos.cc"></path><path d="M323.233 468.973c.213.72.456.76 1.027 1.082l4.172 2.35c.363.205.961.073 1.161-.322l.127-.251.503.253-.127.252c-.344.681-1.296.922-1.94.56l-4.173-2.351c-.709-.399-1.03-.529-1.29-1.413l-.08-.27.54-.16zM358.957 485.127c.262.524.673.786 1.149 1.09l1.884 1.203c.28.178.676.281 1.006.25l.281-.027.053.561-.28.027a2.26 2.26 0 0 1-1.363-.337l-1.884-1.203c-.573-.365-1.035-.681-1.35-1.313l-.126-.252.504-.252z" style="fill:#ebecee;fill-rule:evenodd"></path><path d="M333.276 465.577c.444.03.629.63.61 1.218-.018.589-.254.971-.677.937-.422-.034-.646-.581-.628-1.17s.25-1.016.695-.986M336.014 466.72c.444.03.629.63.61 1.219-.018.588-.254.971-.677.937-.422-.035-.646-.581-.627-1.17.018-.59.249-1.017.694-.986M338.677 467.844c.445.031.63.63.612 1.22-.02.588-.255.97-.678.936-.422-.034-.646-.581-.628-1.17s.25-1.016.694-.986M341.416 468.988c.444.03.629.63.61 1.219-.018.589-.254.971-.677.937-.422-.035-.646-.581-.628-1.17.019-.59.25-1.017.695-.986M343.873 470.149c.445.03.63.63.61 1.219-.018.588-.254.97-.676.936s-.646-.58-.628-1.17c.018-.588.25-1.016.694-.985M346.611 471.566c.445.03.63.63.61 1.219-.017.589-.253.971-.676.937-.423-.035-.646-.581-.628-1.17s.25-1.017.694-.986M349.424 472.737c.444.03.628.63.61 1.218-.018.589-.254.971-.677.937-.422-.034-.646-.581-.628-1.17s.25-1.016.695-.986M352.03 473.935c.445.031.629.63.61 1.219-.018.589-.254.971-.677.937s-.646-.58-.628-1.17c.019-.589.25-1.016.695-.986M355.048 475.343c.445.031.63.63.61 1.22-.017.588-.254.97-.676.936s-.646-.581-.628-1.17.25-1.016.694-.986M357.374 476.56c.444.03.63.63.61 1.218-.018.589-.254.971-.677.937-.422-.034-.645-.58-.627-1.17.018-.589.25-1.016.694-.986M311.538 456.254c.143.235.203.574.192.91-.02.588-.276.97-.734.936s-.7-.581-.68-1.17v-.019zM314.083 457.235c.481.03.681.63.661 1.218-.02.59-.276.972-.733.937-.459-.034-.7-.58-.68-1.17.02-.588.27-1.016.751-.986M317.163 458.551c.482.031.681.63.661 1.22-.02.588-.275.97-.733.936s-.7-.581-.68-1.17.27-1.016.752-.986M319.965 459.767c.48.031.681.63.661 1.22-.02.588-.275.97-.733.936s-.7-.58-.68-1.17c.02-.588.27-1.016.752-.986M348.76 460.601c.292.103.492.494.559.84s-.035.528-.313.427-.496-.468-.563-.814c-.067-.347.026-.556.318-.453M336.134 454.487c.292.103.492.493.558.84.067.345-.034.527-.312.426-.278-.1-.496-.468-.563-.814s.025-.556.317-.452M328.825 462.7c.259.103.333.494.29.84-.045.346-.205.528-.45.427s-.346-.468-.303-.814c.044-.347.204-.556.463-.453M333.305 453.209c.292.103.492.494.558.84s-.034.528-.312.427-.496-.469-.563-.814c-.067-.347.025-.556.317-.453M351.31 461.833c.293.103.492.494.56.84.066.346-.035.528-.313.427-.279-.101-.497-.469-.563-.815-.067-.345.025-.555.317-.452M353.721 462.904c.292.103.492.494.558.84.068.346-.034.528-.312.427-.278-.1-.496-.468-.563-.814s.025-.556.317-.453M355.93 464.124c.292.103.492.493.559.84.067.345-.035.527-.313.426-.278-.1-.496-.468-.563-.814s.026-.555.318-.452M358.4 465.23c.29.104.49.495.557.84.067.347-.034.528-.313.427-.278-.1-.495-.468-.562-.814s.025-.555.317-.452" style="fill:#cfd7d9;fill-rule:evenodd"></path><path d="M369.625 452.617c3.18 3.029 5.818 5.221 8.1 6.818 5.54 3.876 14.307 7.786 20.482 2.836 1.666-1.336 3.343-3.755 4.64-7.089l1.506-5.158c1.155-5.538 1.305-12.574-.49-20.708 1.105 8.055.471 18.017-3.269 23.916-2.098 3.308-5.03 5.334-8.796 5.333-6.58-.002-11.269-3.006-18.695-9.497z" style="fill:#008cc6;fill-rule:evenodd"></path><path d="M404.355 450.018c1.153-5.536 1.302-12.571-.492-20.702 1.002 7.3.575 16.166-2.298 22.155l1.993 1.275z" style="fill:#005aa3;fill-rule:evenodd"></path><path d="M401.188 458.64a24 24 0 0 0 1.657-3.452l.731-2.504-1.722-1.843a18 18 0 0 1-1.26 2.39c-.786 1.241-1.69 2.302-2.712 3.143z" style="fill:#006fb3;fill-rule:evenodd"></path><path d="M375.876 446.239c2.44 1.927 4.974 3.675 7.587 5.14 3.746 2.098 9.85 3.68 14.288.123 3.758-3.013 6.387-10.652 4.719-23.377l-.902-.44c.61 9.223-.423 19.656-9.678 19.655-4.674-.001-7.973-1.728-12.127-5.067z" style="fill:#008cc6;fill-rule:evenodd"></path><path d="M382.912 439.06c3.738 2.296 9.673 4.948 13.744 2.13 2.851-1.974 4.885-6.34 4.424-13.743l-1.573-.767c-.228 5.174-1.836 8.999-5.12 10-2.515.769-5.344.215-8.158-1.005z" style="fill:#008cc6;fill-rule:evenodd"></path><path d="M377.102 444.988c5.471 7.422 10.792 13.007 15.549 16.696 2.59 2.008 4.7 3.096 7.208 3.725l.896-3.067c-2.69-.777-4.162-1.882-6.413-3.693-5.07-4.08-9.8-10.129-14.481-16.476z" style="fill:#008dc7;fill-rule:evenodd"></path><path d="M395.716 463.756c.865-.362 1.7-.85 2.491-1.485q.339-.271.676-.602c-1.629-.72-2.87-1.676-4.541-3.02q-.195-.158-.39-.32a9.7 9.7 0 0 1-2.154.236c-1.066 0-2.083-.08-3.07-.24a56 56 0 0 0 3.923 3.359c1.084.84 2.085 1.52 3.065 2.072" style="fill:#74b4d8;fill-rule:evenodd"></path><path d="M380.827 449.791q1.305.84 2.636 1.587c1.488.834 3.349 1.586 5.33 1.967-2.935-3.212-5.785-6.915-8.614-10.74l-.416-.332-2.661 2.715a121 121 0 0 0 3.725 4.803" style="fill:#d9e4ea;fill-rule:evenodd"></path><path d="M382.232 439.753c5.007 7.62 9.677 13.704 14.203 17.585 1.724 1.478 3.26 2.438 4.873 3.112l.936-3.205c-1.392-.691-2.527-1.572-3.97-2.855-4.85-4.312-8.953-10.88-13.258-17.477z" style="fill:#008fc8;fill-rule:evenodd"></path><path d="M382.232 439.753c2.403 3.656 4.728 6.96 6.997 9.835l3.909-.813c-2.785-3.573-5.414-7.712-8.122-11.862z" style="fill:#71b2d7;fill-rule:evenodd"></path><path d="M400.31 459.99a19.6 19.6 0 0 0 1.692-2.869c-.996-.521-1.873-1.15-2.85-1.97-.808.9-1.706 1.644-2.695 2.205 1.357 1.161 2.598 2.001 3.852 2.634" style="fill:#74b4d8;fill-rule:evenodd"></path><path d="M392.577 453.553c1.273-.122 2.531-.461 3.713-1.089-1.466-1.54-2.87-3.272-4.244-5.128-.053 0-.104.004-.156.004-1.816 0-3.424-.261-4.956-.776 1.92 2.622 3.797 4.967 5.643 6.99" style="fill:#d9e4ea;fill-rule:evenodd"></path><path d="M382.912 439.06c1.459.896 3.253 1.847 5.14 2.505-1.009-1.53-2.017-3.09-3.036-4.652z" style="fill:#00448c;fill-rule:evenodd"></path><path d="M388.02 434.849c3.758 7.22 6.618 12.116 10.426 15.973 1.493 1.512 2.994 2.749 4.58 3.743l.935-3.199c-1.038-.802-1.928-1.671-3.073-2.874-3.017-3.166-5.503-8.004-7.63-12.79l-1.248-.166a54 54 0 0 1-3.99-.687" style="fill:#006cb0;fill-rule:evenodd"></path><path d="M388.02 434.849c2.093 4.022 3.908 7.323 5.764 10.124 1.475 2.228 2.975 4.14 4.662 5.849q.615.623 1.234 1.184.812.736 1.64 1.372l1.776-2.723c-.703-.616-1.391-1.305-2.209-2.163-3.015-3.166-5.503-8.004-7.628-12.79l-1.25-.166a54 54 0 0 1-3.99-.687" style="fill:#c8dee8;fill-rule:evenodd"></path><path d="M390.772 439.98c1.025 1.832 2.013 3.485 3.012 4.993a44 44 0 0 0 2.542 3.48l2.813-2.048c-1.6-2.143-3.038-4.715-4.347-7.399z" style="fill:#008cc6;fill-rule:evenodd"></path><path d="M397.063 449.33a32 32 0 0 0 2.617 2.676 25 25 0 0 0 2.196 1.785l1.22-3.136c-.703-.616-1.391-1.305-2.209-2.163a23 23 0 0 1-1.642-1.946z" style="fill:#006cb0;fill-rule:evenodd"></path><path d="M403.961 451.366c-.593-.459-1.14-.94-1.712-1.492a19 19 0 0 1-1.478 3.071c.738.6 1.486 1.138 2.255 1.62z" style="fill:#008fc8;fill-rule:evenodd"></path><path d="M398.474 450.85c.733-.739 1.411-1.67 2.006-2.8a27 27 0 0 1-2.382-3.133 7.6 7.6 0 0 1-3.015 1.924 35 35 0 0 0 3.363 3.98z" style="fill:#72b3d8;fill-rule:evenodd"></path><path d="M392.17 442.402c1.381.044 2.718-.2 3.92-.863a78 78 0 0 1-2.319-4.698c-1.528.333-3.156.216-4.818-.214 1.126 2.126 2.18 4.039 3.218 5.775" style="fill:#d8e3ea;fill-rule:evenodd"></path><path d="m106.25 597.081 19.786-18.777-6.28-6.619 4.683-4.444 17.813 18.77-4.684 4.445-6.38-6.724L111.4 602.51zM143.976 587.418l5.775 4.76-8.247 10.003 9.873 8.138 8.245-10.003 5.775 4.76-21.459 26.03-5.774-4.76 8.946-10.852-9.872-8.138-8.946 10.853-5.774-4.76zM179.534 629.683l-3.306 5.311-10.616-6.608-4.18 6.715 11.846 7.373-3.332 5.354-18.199-11.327 17.827-28.64 17.624 10.97-3.332 5.353-11.271-7.016-3.677 5.907zM197.605 661.159l-7.697-2.986 4.772-34.333 7.472 2.899q-3.347 17.974-5.027 25.644l.09.035q2.34-4.3 13.94-22.188l7.606 2.951q-3.824 20.474-5.135 25.388l.09.035q1.744-3.43 13.642-22.088l7.112 2.758-20.301 28.31-7.562-2.934c1.99-11.092 3.145-17.409 3.455-18.944.311-1.534.816-3.593 1.526-6.18l-.09-.036q-2.855 4.959-5.484 8.932zM237.447 639.276l7.251 1.848-8.332 32.69-7.252-1.848zM251.471 676.86l-6.826-1.032 5.045-33.356 8.783 1.328 5.695 14.808q1.617 4.32 3.124 10.824l.095.014q.22-5.333 1.508-13.844l1.512-9.997 6.826 1.032-5.045 33.356-7.828-1.184c-3.973-10.64-6.332-17.055-7.076-19.235-.745-2.18-1.478-4.703-2.198-7.58l-.192-.029q-.62 6.361-1.858 14.552zM309.936 661.875l-.248 17.767q-5.941 1.868-11.372 1.793c-6.115-.085-10.687-1.718-13.717-4.888s-4.51-7.23-4.44-12.185c.074-5.355 1.896-9.61 5.457-12.755s8.208-4.674 13.953-4.594q5.89.082 9.438 1.834l-1.678 6.083q-3.286-1.548-7.993-1.613c-3.395-.047-6.112.874-8.158 2.773-2.047 1.899-3.098 4.545-3.145 7.932-.047 3.353.906 6.044 2.849 8.082s4.527 3.083 7.762 3.129q2.751.037 3.869-.447l.098-7.007-5.262-.073.084-6.006zM357.96 674.083q-4.622-19.547-6-26.57l-.142.028q-.125 5.508-2.633 27.703l-5.733 1.124q-6.784-13.639-8.207-16.752-1.421-3.113-3.467-8.144l-.095.02q1.64 9.98 2.283 14.394l1.822 12.547-6.822 1.339-4.457-33.504 9.949-1.952c4.105 7.967 6.606 12.9 7.497 14.808q1.334 2.865 2.905 6.869l.19-.037q.245-8.03.725-12.104l1.427-12.036 9.759-1.915 8.2 32.77zM387.091 655.745l-9.17 3.32.729 9.104-7.309 2.646-1.813-35.22 9.26-3.353 21.425 28.122-7.627 2.76zm-10.068-2.424 7.036-2.547q-6.133-8.292-8.203-11.456l-.09.033.727 6.55zM406.889 657.377 391.416 627.4l6.564-3.388 6.818 13.21q.285-2.71.554-4.82l1.637-13.04 8.237-4.252-3.344 17.836 19.375 11.854-7.766 4.008-14.168-9.135-.92 4.531 5.05 9.785zM440.782 613.385l3.526 5.168-10.33 7.046 4.456 6.534 11.527-7.863 3.553 5.21-17.708 12.08-19.01-27.87 17.15-11.698 3.553 5.21-10.967 7.482 3.92 5.747zM459.524 624.949l-21.836-25.12q2.604-3.26 7.122-7.187 5.575-4.846 9.674-5.06 4.1-.216 7.186 3.336c1.227 1.41 1.925 3.035 2.096 4.887.17 1.853-.191 3.582-1.086 5.178l.131.151q3.067-1.108 7.388 1.802 7.82 5.206 8.345 5.479l-5.757 5.004q-1.96-.782-6.904-4.41-2.481-1.823-4.143-1.97-1.663-.145-3.594 1.533l-1.749 1.52 8.702 10.01zm-12.847-26.038 6.075 6.988 2.332-2.027c1.41-1.225 2.23-2.524 2.47-3.893.238-1.368-.126-2.61-1.1-3.73s-2.094-1.673-3.36-1.645-2.573.634-3.921 1.806q-1.986 1.726-2.496 2.5M481.304 603.252l-3.7-5.395q4.428-1.638 7.314-4.854 1.662-1.852 1.864-3.538.198-1.684-1.07-2.819-1.136-1.02-2.738-.77-1.6.249-4.466 1.83-8.607 4.796-13.711.216-3.299-2.958-3.143-7.425.158-4.464 3.963-8.703 3.322-3.701 7.108-5.298l3.454 5.37q-3.502 1.429-5.97 4.178-1.515 1.689-1.699 3.243-.183 1.554.897 2.523c.658.591 1.459.823 2.403.708.944-.116 2.697-.845 5.259-2.2 2.829-1.506 5.313-2.239 7.454-2.188s4.111.889 5.912 2.505q3.465 3.109 3.271 7.67-.193 4.562-4.416 9.27-3.612 4.024-7.986 5.677M91.224 309.505l-4.443 8.681 6.743 6.162-3.541 6.92-25.347-24.522 4.486-8.768 34.848 5.956-3.694 7.22zm-9.017 5.093 3.41-6.66q-10.143-1.882-13.813-2.785l-.044.086 5 4.294zM78.165 282.547l4.076-6.276 28.292 18.373-4.075 6.276zM113.769 289.727 87.504 269.28q1.928-3.7 5.606-8.423 4.537-5.829 8.519-6.829 3.981-1 7.694 1.891c1.474 1.148 2.473 2.608 2.997 4.393s.502 3.552-.069 5.29l.158.123q2.797-1.679 7.596.346 8.677 3.603 9.244 3.77l-4.686 6.019q-2.074-.391-7.624-2.999-2.784-1.312-4.444-1.135-1.66.176-3.232 2.196l-1.424 1.828 10.467 8.148zm-17.62-23.077 7.307 5.687 1.897-2.438q1.719-2.211 1.674-4.295-.042-2.082-1.798-3.45c-1.171-.911-2.376-1.237-3.612-.966-1.237.27-2.403 1.117-3.5 2.526q-1.617 2.077-1.968 2.935M131.86 267.194 108.594 243.6q2.275-3.297 6.417-7.382 5.328-5.254 9.266-5.8 3.939-.543 6.61 2.165c1.112 1.129 1.781 2.46 2.007 4.007s-.052 3.18-.832 4.886l.07.072q2.797-1.566 5.587-1.21c1.862.237 3.505 1.078 4.922 2.515q3.11 3.153 2.611 7.736-.496 4.586-7.231 11.231-3.37 3.322-6.161 5.373m-14.422-25.144 5.448 5.523 1.787-1.762q2.116-2.086 2.487-4 .368-1.908-1.004-3.297-2.706-2.745-6.556 1.052-1.598 1.577-2.162 2.484m9.314 9.444 6.607 6.7q.534-.317 2.236-1.995 2.185-2.154 2.537-4.258.348-2.101-1.305-3.775-1.616-1.64-3.732-1.24-2.115.398-4.453 2.704zM132.64 220.218l5.992-4.483 11.453 15.31q2.64 3.528 5.309 4.436 2.67.91 5.066-.883 5.065-3.789-.362-11.043l-11.454-15.31 5.993-4.483 11.213 14.99q4.571 6.11 4.066 11.439-.503 5.333-5.991 9.44-10.746 8.041-20.131-4.504zM177.91 227.465l-1.741-6.307q4.719-.106 8.496-2.207 2.173-1.21 2.914-2.74c.492-1.018.458-2.021-.093-3.012q-.743-1.335-2.339-1.62-1.595-.286-4.819.276-9.7 1.732-13.034-4.26-2.155-3.871-.555-8.044 1.603-4.168 6.582-6.938 4.344-2.417 8.445-2.696l1.517 6.202q-3.777.211-7.004 2.008-1.983 1.103-2.663 2.513-.678 1.41.026 2.678c.43.772 1.112 1.252 2.042 1.45.93.199 2.825.08 5.689-.368 3.165-.501 5.752-.386 7.76.359 2.007.744 3.597 2.179 4.774 4.292q2.265 4.068.596 8.318-1.667 4.25-7.193 7.327-4.725 2.63-9.4 2.769M200.448 179.889l7.08-2.424 6.193 18.089q1.425 4.167 3.688 5.853t5.093.716q5.983-2.048 3.049-10.62l-6.193-18.088 7.08-2.424 6.063 17.71c1.649 4.814 1.765 8.856.353 12.135q-2.117 4.92-8.602 7.143-12.699 4.347-17.773-10.475zM243 201.608l-6.438-33.115 7.251-1.41 2.837 14.593q1.034-2.52 1.884-4.471l5.231-12.056 9.1-1.769-8.217 16.18 15.27 16.816-8.578 1.667-11.035-12.744-2.156 4.09 2.101 10.81zM281.796 195.091l-.694-33.128q3.918-.833 9.735-.954 7.481-.157 10.717 2.153t3.315 6.114q.051 2.375-1.295 4.29c-.898 1.28-2.222 2.275-3.961 2.979l.002.1c2.071.524 3.701 1.508 4.89 2.96q1.785 2.179 1.848 5.21c.062 2.952-1.077 5.42-3.418 7.414-2.34 1.993-6.664 3.06-12.97 3.191q-4.732.1-8.169-.329zm6.798-28.178.163 7.757 2.51-.053c1.978-.042 3.5-.44 4.554-1.197 1.055-.756 1.564-1.785 1.537-3.086q-.081-3.853-5.487-3.74-2.244.048-3.277.319m.278 13.261.197 9.408q.606.137 2.996.087c2.043-.043 3.635-.493 4.768-1.351s1.679-2.071 1.646-3.64q-.048-2.301-1.859-3.465-1.812-1.162-5.093-1.095zM311.012 195.318l3.537-33.097q4.16-.31 10.113.326 7.344.786 10.292 3.642 2.947 2.858 2.448 7.536c-.199 1.857-.914 3.476-2.154 4.862s-2.755 2.298-4.532 2.729l-.022.198q2.9 1.494 3.71 6.639 1.508 9.272 1.667 9.842l-7.585-.81q-.76-1.968-1.47-8.06-.353-3.058-1.377-4.375t-3.569-1.59l-2.304-.246-1.41 13.189zm10.329-27.136-.985 9.208 3.073.328c1.856.198 3.367-.085 4.532-.841 1.166-.757 1.827-1.869 1.984-3.346.158-1.476-.2-2.672-1.082-3.58q-1.325-1.36-3.991-1.643-2.618-.28-3.531-.126M373.318 189.01c-1.24 5.21-3.706 9.03-7.405 11.468q-5.552 3.657-12.763 1.941c-4.665-1.11-8.049-3.572-10.154-7.375s-2.576-8.143-1.412-13.029q1.786-7.497 7.402-11.28 5.616-3.78 12.66-2.103 7.092 1.69 10.252 7.382t1.42 12.996m-24.033-5.366q-1.148 4.82.352 8.42 1.5 3.598 5.116 4.46 3.71.884 6.643-1.634 2.931-2.516 4.115-7.483 1.139-4.772-.342-8.391c-.988-2.414-2.7-3.91-5.126-4.489-2.442-.581-4.652-.019-6.632 1.696s-3.356 4.192-4.126 7.421M385.614 176.339l6.899 2.9-7.41 17.626q-1.706 4.06-1.14 6.823t3.327 3.923q5.83 2.45 9.34-5.9l7.41-17.627 6.898 2.9-7.253 17.257q-2.958 7.034-7.81 9.295-4.854 2.267-11.174-.39-12.374-5.2-6.302-19.643zM436.837 218.554l-9.178 15.215q-6.073-1.385-10.723-4.19-7.853-4.739-9.377-11.14-1.525-6.398 2.313-12.761c2.767-4.586 6.486-7.34 11.147-8.26s9.446.106 14.366 3.074q5.043 3.042 7.223 6.345l-4.518 4.406q-2.056-2.995-6.087-5.425c-2.907-1.755-5.718-2.33-8.442-1.723s-4.968 2.362-6.717 5.262c-1.733 2.872-2.268 5.676-1.619 8.416.65 2.74 2.354 4.946 5.124 6.617q2.356 1.422 3.565 1.566l3.62-6-4.506-2.718 3.102-5.143zM452.17 211.82l5.787 4.744-8.217 10.026 9.896 8.11 8.217-10.026 5.788 4.743-21.384 26.092-5.788-4.743 8.915-10.879-9.895-8.109-8.915 10.878-5.788-4.743zM460.58 264.651l19.878-18.68-6.249-6.65 4.706-4.421 17.72 18.858-4.705 4.422-6.348-6.755-19.878 18.68zM505.19 292.961c-4.306 3.186-8.652 4.52-13.052 4.002s-8.074-2.764-11.013-6.735q-4.278-5.784-3.016-12.183c.84-4.264 3.274-7.888 7.311-10.875q6.196-4.586 12.928-3.86 6.73.725 11.039 6.545 4.336 5.86 3.087 12.25-1.248 6.39-7.285 10.856m-14.928-19.584q-3.983 2.947-5.154 6.666t1.04 6.707q2.27 3.067 6.133 3.03 3.865-.038 7.969-3.074 3.945-2.916 5.143-6.638 1.197-3.726-1.03-6.736-2.238-3.028-6.165-2.975-3.931.056-7.936 3.02M496.046 312.612l-3.134-6.152 30.058-15.315 4.032 7.915-8.724 13.25q-2.571 3.83-6.983 8.842l.044.086q4.464-2.925 12.135-6.833l9.008-4.59 3.135 6.15-30.059 15.316-3.594-7.054q9.51-14.139 11.52-16.951c1.34-1.874 2.964-3.94 4.884-6.2l-.088-.172q-5.532 3.198-12.914 6.959z" style="fill:#fff;fill-rule:evenodd" data-source="https://football-logos.cc"></path><!-- source: https://football-logos.cc --></svg>