<svg xmlns="http://www.w3.org/2000/svg" viewBox="0 0 1398.2 1398.21"><!-- Source: https://football-logos.cc --><path d="M699.102 0C313.615 0 0 313.615 0 699.102s313.615 699.104 699.102 699.104 699.1-313.619 699.1-699.104S1084.587 0 699.102 0" class="b" style="display:inline;fill:#2d499a;fill-opacity:1" data-source="https://football-logos.cc"></path><path d="M699.102 251.605c-246.751 0-447.498 200.746-447.498 447.497 0 246.752 200.747 447.496 447.498 447.496 246.752 0 447.498-200.745 447.498-447.496S945.853 251.605 699.102 251.605m436.341 447.497q-1703.164-1048.653 0 0m-872.682 0c802.652 112 0 0 0 0" class="b" style="display:inline;fill:#ea1f28;fill-opacity:1;stroke:none;stroke-opacity:1;stroke-width:17.3;stroke-dasharray:none;stroke-miterlimit:.5;stroke-linecap:round;paint-order:stroke fill markers"></path><path d="M865.662 1102.394 295.806 532.538a435 435 0 0 1 29.38-58.132c4.763 1.486 9.64 2.843 14.475 4.182 7.765 2.148 15.794 4.37 23.408 7.157 12.222 4.472 27.9 11.29 40.693 24.34 12.828 13.086 19.487 28.923 24.31 42.688 2.39 6.82 4.373 13.945 6.292 20.836 4.708 16.91 9.576 34.395 20.018 45.38 10.387 10.93 28.178 15.913 45.382 20.734 4.884 1.369 9.934 2.784 14.764 4.328 16.533 5.289 29.113 11.316 39.59 18.968 13.513 9.87 23.853 22.838 30.733 38.543 5 11.412 8.257 22.693 11.408 33.602 3.808 13.189 7.405 25.646 13.635 36.768 7.885 14.074 21.873 20.447 46.582 27.927 2.63.796 5.366 1.583 8.261 2.415 10.773 3.098 22.983 6.61 34.74 12.152 15.182 7.157 26.763 16.334 35.405 28.058 13.371 18.14 19.07 38.35 24.097 56.179 2.301 8.163 4.475 15.873 7.197 22.958 2.433 6.335 6.34 15.444 12.158 21.388l.235.237c6.621 6.621 16.674 10.744 26.566 14.212 5.65 1.98 11.888 3.72 18.492 5.561 20.307 5.662 43.322 12.08 62.317 29.317 9.837 8.925 17.614 20.202 23.772 34.47 4.85 11.236 7.975 22.498 10.996 33.39 1.216 4.382 2.387 8.58 3.598 12.512a435.4 435.4 0 0 1-58.648 29.686zm69.195-36.274a648 648 0 0 1-2.581-9.131c-3.129-11.28-6.364-22.941-11.543-34.94-6.85-15.873-15.593-28.5-26.725-38.6-21.099-19.146-46.636-26.267-67.156-31.988-6.414-1.789-12.468-3.477-17.747-5.328-8.132-2.85-17.11-6.43-22.051-11.373l-.124-.125c-4.774-4.876-8.371-14.24-9.553-17.317-2.522-6.568-4.623-14.02-6.848-21.91-5.307-18.818-11.32-40.145-25.987-60.044-9.853-13.367-22.92-23.766-39.948-31.793-12.635-5.956-25.335-9.607-36.541-12.83l-.103-.03c-2.8-.805-5.447-1.565-7.995-2.337-24.7-7.477-34.32-12.897-39.592-22.307-5.553-9.913-8.964-21.723-12.574-34.226-3.26-11.292-6.629-22.958-11.946-35.094-7.744-17.673-19.4-32.281-34.647-43.418-11.549-8.435-25.216-15.015-43.012-20.707-5.046-1.614-10.199-3.058-15.183-4.454-15.646-4.385-31.814-8.915-39.921-17.446-8.381-8.817-12.841-24.836-17.155-40.327-1.976-7.095-4.011-14.406-6.528-21.59-5.26-15.013-12.588-32.352-27.064-47.12-14.488-14.777-31.734-22.303-45.14-27.21-8.082-2.957-16.343-5.242-24.332-7.452-3.712-1.028-7.45-2.066-11.116-3.16a439.85 439.85 0 0 1 132.119-132.118c1.093 3.666 2.132 7.404 3.16 11.116 2.21 7.988 4.496 16.248 7.453 24.329 4.905 13.406 12.43 30.65 27.209 45.14 14.768 14.476 32.107 21.805 47.12 27.066 7.195 2.52 14.512 4.557 21.587 6.527 15.493 4.313 31.513 8.773 40.329 17.154 8.532 8.109 13.063 24.276 17.444 39.911 1.402 5.003 2.847 10.158 4.457 15.193 5.693 17.8 12.273 31.467 20.708 43.013 11.137 15.248 25.744 26.905 43.418 34.647 12.128 5.315 23.788 8.682 35.065 11.94 12.535 3.618 24.342 7.029 34.255 12.581 9.409 5.271 14.829 14.891 22.305 39.59.766 2.528 1.52 5.15 2.318 7.925l.051.176c3.221 11.202 6.873 23.903 12.83 36.54 8.028 17.029 18.427 30.096 31.792 39.948 19.903 14.669 41.229 20.682 60.043 25.986 7.891 2.225 15.342 4.326 21.91 6.85 3.078 1.18 12.443 4.779 17.298 9.53l.146.146c4.941 4.94 8.522 13.919 11.373 22.051 1.848 5.272 3.534 11.316 5.319 17.716 5.73 20.549 12.85 46.086 31.996 67.187 10.102 11.132 22.73 19.874 38.601 26.725 12 5.18 23.662 8.415 34.94 11.542 3.16.877 6.224 1.73 9.132 2.583a439.85 439.85 0 0 1-131.266 131.263zm125.34-145.409c-10.892-3.021-22.154-6.146-33.39-10.997-14.268-6.158-25.544-13.935-34.47-23.771-17.237-18.996-23.655-42.01-29.317-62.317-1.841-6.604-3.58-12.843-5.561-18.493-3.469-9.892-7.59-19.944-14.212-26.565l-.237-.236c-5.943-5.817-15.053-9.724-21.388-12.158-7.084-2.721-14.795-4.895-22.958-7.197-17.83-5.027-38.038-10.725-56.179-24.097-11.723-8.641-20.9-20.222-28.057-35.403-5.543-11.759-9.054-23.969-12.152-34.742-.833-2.895-1.62-5.63-2.416-8.26-7.48-24.71-13.852-38.698-27.926-46.582-11.123-6.23-23.58-9.827-36.768-13.636-10.91-3.15-22.191-6.408-33.603-11.407-15.704-6.88-28.672-17.22-38.542-30.734-7.653-10.477-13.68-23.056-18.969-39.59-1.544-4.83-2.96-9.88-4.328-14.763-4.82-17.204-9.805-34.996-20.734-45.383-10.984-10.442-28.47-15.31-45.379-20.018-6.891-1.919-14.017-3.902-20.836-6.292-13.765-4.822-29.602-11.481-42.689-24.309-13.05-12.794-19.867-28.47-24.34-40.694-2.786-7.614-5.008-15.643-7.157-23.407-1.338-4.836-2.696-9.712-4.181-14.475a435.4 435.4 0 0 1 58.133-29.38l569.856 569.857a435.4 435.4 0 0 1-29.687 58.648c-3.933-1.212-8.13-2.383-12.513-3.599" class="b" style="display:inline;fill:#e4b621;fill-opacity:1"></path><path d="M699.102 22.465c-373.1 0-676.637 303.537-676.637 676.637s303.537 676.64 676.637 676.64 676.636-303.542 676.636-676.64S1072.2 22.465 699.102 22.465m0 1342.117c-367.535 0-665.482-297.946-665.482-665.48 0-367.536 297.947-665.482 665.481-665.482 367.535 0 665.482 297.946 665.482 665.481s-297.946 665.481-665.482 665.481" style="display:inline;fill:none;fill-opacity:1"></path><path d="M699.102 229.275c-259.063 0-469.827 210.764-469.827 469.827s210.764 469.825 469.827 469.825 469.827-210.761 469.827-469.825-210.763-469.827-469.827-469.827m0 928.494c-252.912 0-458.671-205.757-458.671-458.667s205.76-458.671 458.671-458.671 458.671 205.76 458.671 458.671-205.759 458.667-458.67 458.667" class="b" style="stroke:none;stroke-opacity:1;fill:#fff;fill-opacity:1"></path><circle cx="294.263" cy="1094.583" r="22.313" class="b" style="fill:#fff;fill-opacity:1"></circle><circle cx="1103.94" cy="1094.583" r="22.313" class="b" style="fill:#fff;fill-opacity:1"></circle><path d="M577.27 373.35c-.732-3.148-2.118-10.931-14.034-14.034s-12.649 3.742-22.224-5.455-13.16-12.073-17.803-9.89-4.613 8.902.97 16.875c0 0 15.753 26.148 33.73 29.005 17.975 2.858 20.094-13.351 19.362-16.5M702.818 515.668c-9.576-9.197-13.16-12.073-17.803-9.891s-4.613 8.903.97 16.875c0 0 15.753 26.148 33.73 29.006 17.975 2.857 20.094-13.352 19.362-16.5-.733-3.15-2.119-10.933-14.035-14.036s-12.649 3.742-22.224-5.454M864.624 677.474c-9.576-9.197-13.16-12.073-17.802-9.89-4.643 2.181-4.614 8.902.97 16.875 0 0 15.753 26.147 33.729 29.005 17.976 2.857 20.095-13.352 19.362-16.5-.733-3.15-2.119-10.933-14.035-14.036s-12.648 3.742-22.224-5.454M1026.43 839.28c-9.575-9.196-13.16-12.073-17.802-9.89-4.643 2.182-4.613 8.902.97 16.875 0 0 15.753 26.148 33.729 29.005 17.976 2.858 20.095-13.351 19.362-16.5-.732-3.15-2.118-10.932-14.035-14.035-11.916-3.104-12.648 3.742-22.224-5.455M356.863 538.01c-9.575-9.197-13.16-12.073-17.802-9.891-4.643 2.182-4.613 8.903.97 16.876 0 0 15.753 26.147 33.729 29.005 17.976 2.857 20.095-13.352 19.362-16.5-.733-3.15-2.119-10.933-14.035-14.036s-12.648 3.742-22.224-5.454ZM518.67 699.816c-9.576-9.197-13.16-12.073-17.803-9.89-4.643 2.181-4.613 8.902.97 16.875 0 0 15.753 26.147 33.729 29.005s20.095-13.352 19.362-16.5c-.732-3.15-2.118-10.933-14.035-14.036s-12.648 3.743-22.224-5.454M680.476 861.622c-9.576-9.196-13.16-12.073-17.803-9.89s-4.613 8.902.97 16.875c0 0 15.753 26.148 33.73 29.005 17.975 2.858 20.094-13.351 19.362-16.5-.733-3.15-2.12-10.932-14.035-14.035-11.917-3.103-12.649 3.742-22.224-5.455M842.282 1023.429c-9.576-9.197-13.16-12.074-17.803-9.891s-4.613 8.903.97 16.875c0 0 15.753 26.148 33.73 29.005 17.975 2.858 20.095-13.351 19.362-16.5-.733-3.15-2.119-10.932-14.035-14.035s-12.648 3.742-22.224-5.455Z" class="b" data-source="https://football-logos.cc"></path><path d="m491.415 835.31 19.23 59.042h62.08l-50.606 36.772 19.569 58.702-50.608-35.761-49.599 35.76 18.898-58.363-50.947-37.11h63.094zM926.76 399.965l19.23 59.042h62.08l-50.606 36.772 19.569 58.701-50.608-35.76-49.598 35.76 18.898-58.363-50.948-37.11h63.094z" class="b" style="fill:#fff;fill-opacity:1"></path><path d="M934.857 1066.12a648 648 0 0 1-2.581-9.131c-3.129-11.28-6.364-22.941-11.543-34.94-6.85-15.873-15.593-28.5-26.725-38.6-21.099-19.146-46.636-26.267-67.156-31.988-6.414-1.789-12.468-3.477-17.747-5.328-8.132-2.85-17.11-6.43-22.051-11.373l-.124-.125c-4.773-4.876-8.371-14.24-9.553-17.317-2.522-6.568-4.623-14.02-6.848-21.91-5.307-18.818-11.32-40.145-25.987-60.044-9.853-13.367-22.92-23.766-39.948-31.793-12.635-5.956-25.335-9.607-36.541-12.83l-.103-.03c-2.8-.805-5.447-1.565-7.995-2.337-24.7-7.477-34.32-12.897-39.592-22.307-5.553-9.913-8.964-21.723-12.574-34.226-3.26-11.292-6.629-22.958-11.946-35.094-7.744-17.673-19.4-32.281-34.647-43.418-11.549-8.435-25.216-15.015-43.012-20.707-5.046-1.614-10.199-3.058-15.183-4.454-15.646-4.385-31.814-8.915-39.921-17.446-8.381-8.817-12.841-24.836-17.155-40.327-1.976-7.095-4.011-14.406-6.528-21.59-5.26-15.013-12.588-32.352-27.064-47.12-14.488-14.777-31.734-22.303-45.14-27.21-8.082-2.957-16.343-5.242-24.332-7.452-3.712-1.028-7.45-2.066-11.116-3.16a439.85 439.85 0 0 1 132.119-132.118c1.093 3.666 2.132 7.404 3.16 11.116 2.21 7.988 4.496 16.248 7.453 24.329 4.905 13.406 12.43 30.65 27.209 45.14 14.768 14.476 32.107 21.805 47.12 27.066 7.195 2.52 14.512 4.557 21.587 6.527 15.493 4.313 31.513 8.773 40.329 17.154 8.532 8.109 13.063 24.276 17.444 39.911 1.402 5.003 2.847 10.158 4.457 15.193 5.693 17.8 12.273 31.467 20.708 43.013 11.137 15.248 25.744 26.905 43.418 34.647 12.128 5.315 23.788 8.682 35.065 11.94 12.535 3.618 24.342 7.029 34.255 12.581 9.409 5.271 14.829 14.891 22.305 39.59.766 2.528 1.52 5.15 2.318 7.925l.051.176c3.221 11.202 6.873 23.903 12.83 36.54 8.028 17.029 18.427 30.096 31.792 39.948 19.903 14.669 41.229 20.682 60.043 25.986 7.891 2.225 15.342 4.326 21.91 6.85 3.078 1.18 12.443 4.779 17.298 9.53l.146.146c4.941 4.94 8.522 13.919 11.373 22.051 1.848 5.272 3.534 11.316 5.319 17.716 5.73 20.549 12.85 46.086 31.996 67.187 10.102 11.132 22.73 19.874 38.601 26.725 12 5.18 23.662 8.415 34.94 11.542 3.16.877 6.224 1.73 9.132 2.583a439.85 439.85 0 0 1-131.266 131.263z" class="b" style="display:inline;fill:#2d499a;fill-opacity:1"></path><path d="M946.898 935.73c-1.627-1.628-4.542-1.477-7.21.138l.447-.447-6.767-6.768c2.93-4.946 2.378-11.312-1.747-15.437l-7.509-7.508c4.19-8.096 4.525-16.12.1-20.546l-11.326-11.325c1.898-2.83 2.722-4.763 2.125-5.36-.432-.43-2.052-.614-3.96.064-1.966.698-3.989 1.197-6.074 1.226-6.885.095-21.118-1.027-32.38-10.616l-.005.006c1.672-3.203 2.065-5.936.751-7.249-1.628-1.629-5.439-.633-9.622 2.176l2.152-2.152-93.324-93.323 1.948-1.948c3.386-3.386 3.386-8.928 0-12.314l-1.15-1.15c.829-1.113.75-2.7-.26-3.709l-.65-.651c-1.01-1.01-2.596-1.088-3.71-.26l-1.15-1.15c-3.386-3.386-8.928-3.386-12.314 0l-1.947 1.948-84.846-84.846 1.947-1.947c3.386-3.386 3.386-8.928 0-12.315l-1.15-1.15c.829-1.112.75-2.7-.259-3.708l-.651-.652c-1.009-1.009-2.596-1.088-3.709-.26l-1.15-1.149c-3.386-3.386-8.928-3.386-12.315 0l-1.947 1.948-5.887-5.887c-.649-10.419-2.503-32.333-11.002-38.465-2.646-1.91-5.653-2.889-8.748-2.391-5.902.95-9.395 5.614-11.37 9.735l-4.36-4.36c9.64-13.601 10.879-29.497-3.686-44.063l-18.913-18.912c1.11-1.505.998-3.644-.362-5.003l-1.114-1.115c-1.36-1.36-3.499-1.471-5.004-.362l-.69-.69s-8.688-26.907-14.401-37.456c-3.54-6.537-14.313-26.427-30.593-23.802-13.875 2.238-19.193 11.841-23.466 19.556-2.171 3.921-4.222 7.625-7.39 10.794l7.332 7.513c11.056-11.056 10.825-25.106 25.106-27.41 11.718-1.89 22.558 25.313 26.07 35.136.612 1.71-.21 3.633-1.906 4.285-7.234 2.779-17.478 11.584-23.254 16.98l1.487-1.488-27.503-27.503-8.066-8.066c2.238-5.776 1.036-12.578-3.625-17.24-6.298-6.298-16.51-6.298-22.809 0-6.299 6.299-6.299 16.51 0 22.809 4.661 4.662 11.464 5.863 17.24 3.625l8.065 8.066 27.504 27.503 1.569-1.57c-5.484 5.875-14.588 16.484-17.207 23.745-.63 1.749-2.536 2.664-4.278 2.014-9.892-3.696-36.88-14.906-34.997-26.586 2.303-14.28 16.354-14.05 27.41-25.106l-7.513-7.333c-3.17 3.17-6.873 5.22-10.794 7.391-7.715 4.273-17.318 9.59-19.556 23.466-2.625 16.28 17.265 27.053 23.802 30.593 10.549 5.713 37.455 14.4 37.455 14.4l.69.691c-1.109 1.505-.997 3.643.363 5.004l1.114 1.114c1.36 1.36 3.499 1.472 5.004.363l18.912 18.912c14.565 14.565 30.461 13.327 44.062 3.685l4.357 4.357c-4.117 1.977-8.774 5.469-9.723 11.365-.497 3.095.482 6.102 2.391 8.748 6.13 8.494 28.02 10.351 38.446 11.001l5.898 5.897-1.948 1.947c-3.386 3.387-3.386 8.929 0 12.315l1.15 1.15c-.829 1.113-.75 2.7.26 3.709l.65.651c1.009 1.009 2.596 1.088 3.709.26l1.15 1.15c3.387 3.386 8.928 3.386 12.315 0l1.947-1.948 84.846 84.846-1.948 1.947c-3.386 3.387-3.386 8.928 0 12.315l1.15 1.15c-.828 1.112-.75 2.7.26 3.708l.651.652c1.008 1.008 2.596 1.087 3.709.259l1.15 1.15c3.386 3.386 8.928 3.386 12.314 0l1.948-1.948 93.323 93.324 2.152-2.152c-2.809 4.183-3.805 7.994-2.176 9.622 1.313 1.314 4.046.922 7.248-.751l-.005.006c9.589 11.26 10.711 25.494 10.616 32.38-.029 2.085-.529 4.107-1.226 6.073-.678 1.909-.495 3.528-.064 3.96.597.597 2.53-.227 5.36-2.125l8.39 8.391 2.935 2.935c4.426 4.426 12.45 4.09 20.546-.1l5.256 5.257 2.252 2.252c4.125 4.125 10.491 4.677 15.437 1.747l6.767 6.768.448-.449c-1.615 2.67-1.766 5.584-.139 7.21 2.08 2.08 6.266 1.267 9.35-1.817 3.085-3.085 3.899-7.27 1.819-9.35ZM624.712 595.46c7.329-1.18 10.033 18.095 10.841 26.151l-17.96-17.96c1.04-2.941 3.267-7.57 7.119-8.19m-29.285 29.285c.623-3.874 5.303-6.104 8.242-7.136l17.985 17.985c-8.01-.798-27.41-3.496-26.227-10.85Z" class="b" style="fill:#fff;fill-opacity:1"></path><path d="m463.072 472.405 5.999 11.745 2.104-12.976 13.128-2.257-11.897-5.948 2.103-13.282-9.437 9.436-11.898-6.051 6.104 11.846-9.591 9.59zM192.733 798.974q6.79 8.299 10.031 20.601 2.952 11.212 1.763 21.683-1.19 10.475-6.118 19.227-4.933 8.755-13.32 15.204t-19.735 9.437q-11.62 3.06-22.115 1.512-10.493-1.548-18.997-6.911-8.5-5.362-14.577-13.995-6.075-8.634-8.99-19.707-2.7-10.251-1.689-21.119 1.014-10.864 6.364-18.852l20.035 11.68q-3.647 4.47-4.431 10.378-.781 5.907.693 11.512 1.62 6.15 5.227 10.685 3.606 4.53 8.54 7.178 4.94 2.646 10.878 3.275 5.942.629 12.365-1.063 6.563-1.729 11.49-5.22 4.929-3.489 7.87-8.139 2.943-4.647 3.797-10.282.857-5.633-.73-11.65-1.833-6.971-5.937-11.448-4.1-4.472-9.304-6.465l11.025-20.3q9.075 4.48 15.865 12.779ZM115.206 702.242q8.741-.653 14.973 2.14 6.236 2.794 10.312 8.018 4.077 5.22 6.307 12.285c2.23 7.065 2.423 9.65 2.81 14.816l.898 11.984 37.64-2.82 1.804 24.107-99.807 7.473-2.745-36.652q-.611-8.174.476-15.417c.726-4.825 2.154-9.093 4.287-12.795q3.2-5.554 8.822-9.025 5.625-3.468 14.223-4.114m1.945 24.096q-3.522.265-5.674 1.843a9.9 9.9 0 0 0-3.239 4.07q-1.088 2.493-1.285 5.554a45.6 45.6 0 0 0 .048 6.305l.79 10.574 23.543-1.764-.76-10.15a36 36 0 0 0-1.05-6.444q-.794-3.055-2.39-5.42c-1.06-1.572-2.405-2.772-4.026-3.596q-2.43-1.235-5.957-.972M143.665 591.451q13.078 1.359 22.064 7.195 8.989 5.837 14.28 14.417 5.292 8.58 7.136 18.863a73 73 0 0 1 .78 20.547l-3.856 37.12-99.552-10.34 3.74-35.997a89.6 89.6 0 0 1 4.62-20.555q3.528-10.006 10.055-17.431 6.528-7.422 16.6-11.352 10.074-3.926 24.133-2.467m-2.6 25.028q-8.433-.876-14.275 1.289-5.837 2.166-9.617 6.391-3.778 4.229-5.791 9.916a51.4 51.4 0 0 0-2.655 11.876l-1.242 11.952 58.213 6.046 1.183-11.388q.672-6.466-.184-12.598-.857-6.127-3.756-11.05-2.9-4.919-8.24-8.247-5.337-3.325-13.636-4.187M193.668 444.827q12.21 4.872 19.266 12.938t9.808 17.763q2.752 9.7 1.725 20.093a73 73 0 0 1-4.852 19.983l-13.83 34.664-92.962-37.088 13.41-33.614a89.5 89.5 0 0 1 10.051-18.516q6.122-8.667 14.426-14.031c8.304-5.364 11.89-5.705 19.064-6.397q10.763-1.031 23.894 4.205Zm-9.325 23.372q-7.877-3.142-14.086-2.651-6.207.493-10.996 3.527-4.786 3.038-8.275 7.961a51.6 51.6 0 0 0-5.792 10.703l-4.453 11.16 54.36 21.688 4.244-10.636q2.408-6.038 3.255-12.17.85-6.128-.6-11.655-1.449-5.523-5.68-10.18-4.227-4.655-11.977-7.747ZM248.044 453.784 161.32 403.82l12.139-21.07 86.723 49.966zM307.103 367.335l-76.342-8.889-.264.334 51.748 40.082-14.53 18.427-78.594-61.97 17.067-21.647 76.145 8.912.262-.333-51.635-39.995 14.53-18.428 78.595 61.971zM390.843 287.852l-18.564-10.099-29.73 24.827 6.953 19.795-20.183 16.854-31.927-103.735 18.012-15.042 96.054 50.183zm-67.645-39.099 12.254 34.523 19.315-16.13zM431.849 175.545c-3.096-1.29-6.486-1.802-10.165-1.528q-5.519.41-9.59 2.684a29 29 0 0 0-4.052 2.748q-1.954 1.578-3.096 3.59a11 11 0 0 0-1.383 4.336q-.244 2.322 1.205 4.912 1.24 2.223 2.993 3.187t4.164 1.076q2.408.111 5.394-.342 2.985-.452 6.623-1.188a331 331 0 0 1 11.083-1.899q5.813-.897 11.417-.142 5.603.757 10.643 3.691 5.04 2.935 8.691 9.476 4.206 7.53 4.494 14.572.29 7.044-2.4 13.241-2.693 6.2-7.775 11.305a51.8 51.8 0 0 1-11.5 8.69 59 59 0 0 1-19.971 6.86q-10.59 1.625-19.768-1.186l5.967-21.79q5.413 2.16 12.142 1.882 6.728-.275 11.91-3.17a24 24 0 0 0 4.292-3.045q1.947-1.732 2.992-3.775 1.046-2.04.999-4.444-.047-2.401-1.493-4.995-1.38-2.465-3.578-3.507-2.2-1.035-5.276-1.183-3.076-.142-7.125.579-4.048.725-9.127 1.777a84 84 0 0 1-10 1.375q-5.044.39-9.812-.755-4.765-1.14-8.989-4.21-4.223-3.065-7.53-8.99-4.067-7.281-3.999-14.12c.068-6.839 1.051-8.845 3.02-12.858s4.681-7.66 8.138-10.94a56.5 56.5 0 0 1 11.358-8.368q7.406-4.133 16.635-5.727 9.23-1.59 17.996.475zM593.097 165.473q2.2 7.9.566 14.15-1.634 6.255-5.898 10.961-4.265 4.71-10.47 7.98a66.3 66.3 0 0 1-13.152 5.205l-38.403 10.699-26.86-96.416 38.404-10.7q5.581-1.551 11.762-2.029 6.176-.47 11.721.992 5.544 1.465 9.869 5.394 4.322 3.934 6.372 11.286 2.239 8.037-.66 14.491-2.897 6.459-9.334 10.746l.077.272q4.274-.457 8.396.376 4.12.834 7.572 2.953 3.454 2.12 6.082 5.497 2.626 3.378 3.956 8.143m-37.686-33.086q-1.367-4.902-5.737-6.107-4.371-1.202-11.725.845l-11.438 3.188 5.539 19.882 12.527-3.49q6.536-1.822 9.406-5.482 2.868-3.66 1.428-8.836Zm13.792 37.394q-1.668-5.99-6.808-7.054c-3.425-.71-7.637-.369-12.628 1.022l-12.938 3.605 6.147 22.06 13.072-3.641a36.3 36.3 0 0 0 5.52-2.051q2.794-1.291 4.835-3.182a10.6 10.6 0 0 0 2.914-4.554q.872-2.662-.114-6.205M682.76 185.406l-9.373-18.94-38.602 3.202-5.701 20.19-26.204 2.173 33.568-103.214 23.387-1.94 49.693 96.309zm-32.833-70.898-9.84 35.286 25.078-2.08zM781.028 191.99l-31.916-69.918-.422-.052-7.504 65.023-23.287-2.892 12.332-99.324 27.358 3.398 31.793 69.76.422.052 7.486-64.883 23.287 2.892-12.332 99.324zM891.165 222.284q-10.078-.9-21.047-4.642-11.373-3.882-19.705-10.758-8.335-6.877-12.986-15.784-4.655-8.905-5.407-19.396-.755-10.487 3.084-21.726 3.878-11.371 10.977-19.258 7.095-7.884 16.268-12 9.171-4.112 19.724-4.397c7.033-.188 14.166.95 21.389 3.415q11.24 3.836 19.709 10.535 8.467 6.699 12.525 14.506l-20.064 11.526q-2.023-5.022-6.662-9.368-4.643-4.349-11.598-6.722-6.02-2.055-11.86-1.582-5.838.473-10.93 3.142-5.094 2.668-9.015 7.379-3.923 4.71-6.113 11.132-2.238 6.557-2.236 12.681 0 6.127 2.334 11.327 2.331 5.203 6.996 9.259 4.665 4.057 11.623 6.43 4.013 1.37 7.832 2.002 3.817.63 7.351.342l5.89-17.26-18.063-6.162 6.3-18.464 39.069 13.332-17.121 50.172q-8.192 1.238-18.264.34M1035.528 243.394q-6.112 10.184-14.68 16.5-8.57 6.315-18.412 8.571c-9.842 2.256-13.367 1.626-20.414.366q-10.573-1.89-20.633-7.926-10.062-6.036-16.644-14.435c-6.582-8.4-7.463-11.65-9.225-18.147q-2.646-9.745-1.105-20.279c1.023-7.023 3.574-13.929 7.644-20.718q6.182-10.303 14.68-16.499 8.494-6.194 18.23-8.268 9.734-2.074 20.172-.1 10.436 1.975 20.499 8.01 10.059 6.036 16.779 14.351 6.712 8.316 9.469 17.88 2.75 9.563 1.285 19.977-1.467 10.413-7.645 20.717Zm-22.185-13.308q3.346-5.575 4.435-11.516t-.049-11.322q-1.141-5.383-4.486-10.11c-3.345-4.726-5.166-5.818-8.803-8s-7.351-3.503-11.14-3.962q-5.685-.692-11.031.802-5.346 1.49-10.012 5.286-4.668 3.796-8.012 9.37-3.492 5.82-4.617 11.82-1.127 6-.024 11.443 1.102 5.444 4.39 10.133 3.285 4.691 8.741 7.964 5.455 3.272 11.14 3.963t11.067-.862q5.382-1.55 10.147-5.371 4.764-3.82 8.254-9.638ZM1056.835 330.569l10.627-44.014-6.098-5.541-26.71 29.403-17.475-15.875 67.3-74.081 28.252 25.665a66.3 66.3 0 0 1 9.412 10.558q4.076 5.707 5.729 11.984 1.65 6.275.162 12.752-1.493 6.477-7.289 12.858-6.844 7.534-15.582 8.955c-5.828.947-11.81-.035-17.955-2.943l-9.445 49.29zm45.941-52.042q2.374-2.614 2.744-5.24.369-2.625-.556-5.09-.928-2.466-2.8-4.739a39 39 0 0 0-3.866-4.086l-9.567-8.692-15.685 17.265 8.515 7.737a39 39 0 0 0 4.856 3.741q2.646 1.735 5.394 2.513 2.748.779 5.573.096 2.825-.679 5.392-3.504M1147.075 442.54q-9.096-5.675-16.12-16.284-6.398-9.667-8.64-19.966-2.238-10.301-.382-20.175 1.854-9.874 7.726-18.676c3.914-5.87 9.131-10.96 15.654-15.279q10.02-6.631 20.457-8.539 10.434-1.907 20.211.439 9.772 2.345 18.301 8.568 8.526 6.223 14.848 15.772 5.849 8.84 8.385 19.455 2.531 10.614.033 19.898l-22.727-4.623q2.017-5.403.862-11.25-1.16-5.845-4.358-10.679-3.511-5.304-8.38-8.437-4.874-3.133-10.4-4.054-5.524-.918-11.35.395-5.829 1.315-11.368 4.981-5.658 3.746-9.201 8.635-3.547 4.888-4.838 10.237-1.295 5.347-.291 10.958.999 5.608 4.434 10.796c2.654 4.008 5.752 6.985 9.302 8.93q5.32 2.92 10.89 3.135l-3.92 22.766q-10.033-1.327-19.128-7.003M1157.657 467.777l90.373-43.016 10.45 21.954-90.372 43.018zM1264.438 519.918l-75.232 25.534-7.77-22.89 75.233-25.534-9.086-26.775 19.545-6.633 25.943 76.438-19.545 6.634zM1249.688 622.135l-41.877 6.705-3.822-23.869 41.877-6.705 51.008-46.25 4.625 28.895-33.195 26.934 39.947 15.224 4.469 27.917zM1290.759 736.827l-20.582-1.52-2.852 38.63-19.879-1.467 2.852-38.629-38.77-2.86 1.758-23.828 99.814 7.367-4.847 65.699-20.584-1.52zM1192.247 852.014q-2.042-10.525.935-22.895 2.716-11.27 8.727-19.926 6.012-8.66 14.504-14.029c5.658-3.58 11.973-5.938 18.934-7.072q10.44-1.702 21.85 1.046 11.68 2.814 20.189 9.154 8.504 6.335 13.449 15.09c3.297 5.833 5.361 12.245 6.201 19.233q1.254 10.482-1.426 21.615-2.486 10.305-8.525 19.393-6.043 9.087-14.541 13.583l-12.104-19.783q5.331-2.206 8.82-7.036 3.491-4.83 4.848-10.465 1.491-6.184.465-11.885t-4.119-10.37q-3.093-4.673-8.023-8.04-4.935-3.37-11.393-4.925c-4.396-1.06-8.596-1.344-12.59-.852q-5.994.736-10.789 3.436c-3.195 1.797-5.937 4.215-8.217 7.253q-3.423 4.554-4.88 10.603c-1.126 4.674-1.194 8.969-.198 12.894q1.488 5.882 5.127 10.106l-19.332 12.646q-5.865-8.248-7.912-18.774ZM547.376 1295.346l17.39-71.423-21.54 9.595-7.97-19.254 37.712-15.697 21.025 5.119-23.68 97.246zM681.08 1286.531q-.74 7.885-4.378 13.435c-3.638 5.55-5.47 6.68-9.129 8.94s-7.82 3.81-12.48 4.652q-6.994 1.26-14.297.576-7.447-.698-14.012-3.23-6.565-2.534-11.336-6.813-4.77-4.282-7.314-10.411c-1.697-4.087-2.295-8.759-1.803-14.014q.422-4.503 2.191-8.242 1.77-3.737 4.518-6.534a26.3 26.3 0 0 1 6.188-4.673 26 26 0 0 1 7.207-2.661l.027-.282q-6.252-3-10.106-8.827-3.855-5.826-3.077-14.133.645-6.894 3.964-11.98 3.315-5.085 8.439-8.225 5.12-3.141 11.627-4.376 6.504-1.236 13.4-.59 6.895.646 12.996 2.993 6.096 2.348 10.554 6.314 4.454 3.968 6.845 9.516c1.594 3.698 2.176 7.849 1.744 12.444q-.779 8.307-5.529 13.54-4.75 5.235-11.717 6.851l-.039.423q3.66 1.48 6.67 3.963c3.01 2.483 3.704 3.565 5.098 5.731s2.433 4.582 3.125 7.248q1.031 4.005.625 8.365m-23.426-3.046q.54-5.77-2.966-10.004-3.51-4.235-9.56-4.801-6.195-.582-10.418 2.856-4.229 3.437-4.783 9.348-.567 6.053 2.966 10.004 3.534 3.953 9.727 4.532 6.195.582 10.33-2.651 4.138-3.233 4.704-9.284Zm2.236-43.522q.46-4.926-2.754-8.494-3.216-3.565-8.143-4.03-5.347-.5-8.889 2.433-3.54 2.936-4.002 7.86-.447 4.788 2.389 8.6 2.836 3.818 8.326 4.332 5.207.489 8.915-2.714 3.709-3.2 4.157-7.987ZM733.188 1313.285l-27.52 1.605 35.864-81.956-47.277 2.756-1.186-20.323 72.54-4.227 1.101 18.91zM855.227 1260.722q1.712 8.306.04 15.579-1.673 7.274-5.981 12.924-4.31 5.652-10.861 9.527-6.55 3.874-14.425 5.498-8.017 1.651-15.495.667-7.48-.982-13.674-4.47-6.191-3.487-10.574-9.369-4.38-5.88-6.035-13.91-1.798-8.723-.223-16.481 1.574-7.757 4.904-16.095l16.381-40.18 28.082-5.787-17.203 38.474-.273.778q1.268-.836 3.145-1.515 1.877-.675 3.536-1.016a34.1 34.1 0 0 1 12.703-.236c4.23.715 8.083 2.183 11.567 4.4q5.225 3.326 9.064 8.669 3.838 5.344 5.322 12.543Zm-23.007 5.317q-1.37-6.645-6.442-10.146-5.072-3.503-12.025-2.07-6.955 1.434-10.38 6.614-3.428 5.183-2.001 12.103 1.312 6.369 6.424 10.08 5.115 3.707 12.209 2.247 6.952-1.432 10.31-6.6 3.36-5.164 1.904-12.228" class="b" style="fill:#fff;fill-opacity:1"></path><path d="M699.102 22.465c-373.1 0-676.637 303.537-676.637 676.637s303.537 676.64 676.637 676.64 676.636-303.542 676.636-676.64S1072.2 22.465 699.102 22.465m0 1342.117c-367.535 0-665.482-297.946-665.482-665.48S331.567 33.62 699.101 33.62s665.482 297.946 665.482 665.481-297.946 665.481-665.482 665.481" class="b" style="fill:#fff;fill-opacity:1"></path><path d="M699.102 0C313.615 0 0 313.615 0 699.102s313.615 699.104 699.102 699.104 699.1-313.619 699.1-699.104S1084.587 0 699.102 0m0 1386.973C319.2 1386.973 11.23 1079.002 11.23 699.1S319.2 11.23 699.1 11.23 1386.973 319.2 1386.973 699.1s-307.97 687.872-687.872 687.872" class="b" style="fill:none;fill-opacity:1"></path><path d="M699.102 251.605c-246.751 0-447.498 200.746-447.498 447.497 0 246.752 200.747 447.496 447.498 447.496 246.752 0 447.498-200.745 447.498-447.496S945.853 251.605 699.102 251.605m436.341 447.497c0 54.34-9.992 106.386-28.225 154.41L544.695 290.989c48.023-18.232 100.069-28.227 154.408-28.227 240.6 0 436.341 195.742 436.341 436.341m-872.682 0c0-54.34 9.995-106.386 28.227-154.41l562.524 562.524c-48.023 18.232-100.07 28.224-154.41 28.224-240.6 0-436.342-195.74-436.342-436.338m602.9 403.292L295.807 532.538a435 435 0 0 1 29.38-58.132c4.763 1.486 9.64 2.843 14.475 4.182 7.765 2.148 15.794 4.37 23.408 7.157 12.222 4.472 27.9 11.29 40.693 24.34 12.828 13.086 19.487 28.923 24.31 42.688 2.39 6.82 4.373 13.945 6.292 20.836 4.708 16.91 9.576 34.395 20.018 45.38 10.387 10.93 28.178 15.913 45.382 20.734 4.884 1.369 9.934 2.784 14.764 4.328 16.533 5.289 29.113 11.316 39.59 18.968 13.513 9.87 23.853 22.838 30.733 38.543 5 11.412 8.257 22.693 11.408 33.602 3.808 13.189 7.405 25.646 13.635 36.768 7.885 14.074 21.873 20.447 46.582 27.927 2.63.796 5.366 1.583 8.261 2.415 10.773 3.098 22.983 6.61 34.74 12.152 15.182 7.157 26.763 16.334 35.405 28.058 13.371 18.14 19.07 38.35 24.097 56.179 2.301 8.163 4.475 15.873 7.197 22.958 2.433 6.335 6.34 15.444 12.158 21.388l.235.237c6.621 6.621 16.674 10.744 26.566 14.212 5.65 1.98 11.888 3.72 18.492 5.561 20.307 5.662 43.322 12.08 62.317 29.317 9.837 8.925 17.614 20.202 23.772 34.47 4.85 11.236 7.975 22.498 10.996 33.39 1.216 4.382 2.387 8.58 3.598 12.512a435.4 435.4 0 0 1-58.648 29.686zm69.196-36.274a648 648 0 0 1-2.581-9.131c-3.129-11.28-6.364-22.941-11.543-34.94-6.85-15.873-15.593-28.5-26.725-38.6-21.099-19.146-46.636-26.267-67.156-31.988-6.414-1.789-12.468-3.477-17.747-5.328-8.132-2.85-17.11-6.43-22.051-11.373l-.124-.125c-4.774-4.876-8.371-14.24-9.553-17.317-2.522-6.568-4.623-14.02-6.848-21.91-5.307-18.818-11.32-40.145-25.987-60.044-9.853-13.367-22.92-23.766-39.948-31.793-12.635-5.956-25.335-9.607-36.541-12.83l-.103-.03c-2.8-.805-5.447-1.565-7.995-2.337-24.7-7.477-34.32-12.897-39.592-22.307-5.553-9.913-8.964-21.723-12.574-34.226-3.26-11.292-6.629-22.958-11.946-35.094-7.744-17.673-19.4-32.281-34.647-43.418-11.549-8.435-25.216-15.015-43.012-20.707-5.046-1.614-10.199-3.058-15.183-4.454-15.646-4.385-31.814-8.915-39.921-17.446-8.381-8.817-12.841-24.836-17.155-40.327-1.976-7.095-4.011-14.406-6.528-21.59-5.26-15.013-12.588-32.352-27.064-47.12-14.488-14.777-31.734-22.303-45.14-27.21-8.082-2.957-16.343-5.242-24.332-7.452-3.712-1.028-7.45-2.066-11.116-3.16a439.85 439.85 0 0 1 132.119-132.118c1.093 3.666 2.132 7.404 3.16 11.116 2.21 7.988 4.496 16.248 7.453 24.329 4.905 13.406 12.43 30.65 27.209 45.14 14.768 14.476 32.107 21.805 47.12 27.066 7.195 2.52 14.512 4.557 21.587 6.527 15.493 4.313 31.513 8.773 40.329 17.154 8.532 8.109 13.063 24.276 17.444 39.911 1.402 5.003 2.847 10.158 4.457 15.193 5.693 17.8 12.273 31.467 20.708 43.013 11.137 15.248 25.744 26.905 43.418 34.647 12.128 5.315 23.788 8.682 35.065 11.94 12.535 3.618 24.342 7.029 34.255 12.581 9.409 5.271 14.829 14.891 22.305 39.59.766 2.528 1.52 5.15 2.318 7.925l.051.176c3.221 11.202 6.873 23.903 12.83 36.54 8.028 17.029 18.427 30.096 31.792 39.948 19.903 14.669 41.229 20.682 60.043 25.986 7.891 2.225 15.342 4.326 21.91 6.85 3.078 1.18 12.443 4.779 17.298 9.53l.146.146c4.941 4.94 8.522 13.919 11.373 22.051 1.848 5.272 3.534 11.316 5.319 17.716 5.73 20.549 12.85 46.086 31.996 67.187 10.102 11.132 22.73 19.874 38.601 26.725 12 5.18 23.662 8.415 34.94 11.542 3.16.877 6.224 1.73 9.132 2.583a439.85 439.85 0 0 1-131.266 131.263zm125.34-145.409c-10.892-3.021-22.154-6.146-33.39-10.997-14.268-6.158-25.544-13.935-34.47-23.771-17.237-18.996-23.655-42.01-29.317-62.317-1.841-6.604-3.58-12.843-5.561-18.493-3.469-9.892-7.59-19.944-14.212-26.565l-.237-.236c-5.943-5.817-15.053-9.724-21.388-12.158-7.084-2.721-14.795-4.895-22.958-7.197-17.83-5.027-38.038-10.725-56.179-24.097-11.723-8.641-20.9-20.222-28.057-35.403-5.543-11.759-9.054-23.969-12.152-34.742-.833-2.895-1.62-5.63-2.416-8.26-7.48-24.71-13.852-38.698-27.926-46.582-11.123-6.23-23.58-9.827-36.768-13.636-10.91-3.15-22.191-6.408-33.603-11.407-15.704-6.88-28.672-17.22-38.542-30.734-7.653-10.477-13.68-23.056-18.969-39.59-1.544-4.83-2.96-9.88-4.328-14.763-4.82-17.204-9.805-34.996-20.734-45.383-10.984-10.442-28.47-15.31-45.379-20.018-6.891-1.919-14.017-3.902-20.836-6.292-13.765-4.822-29.602-11.481-42.689-24.309-13.05-12.794-19.867-28.47-24.34-40.694-2.786-7.614-5.008-15.643-7.157-23.407-1.338-4.836-2.696-9.712-4.181-14.475a435.4 435.4 0 0 1 58.133-29.38l569.856 569.857a435.4 435.4 0 0 1-29.687 58.648c-3.933-1.212-8.13-2.383-12.513-3.599" class="b" style="display:inline;fill:#000;fill-opacity:1" data-source="https://football-logos.cc"></path><!-- source: https://football-logos.cc --></svg>