<svg xmlns="http://www.w3.org/2000/svg" viewBox="28.83 176.43 729.08 762.25"><!-- Source: https://football-logos.cc --><path d="M295.024 134.986c72.639 0 133.707 16.268 193.103 55.745 28.037 18.636 58.3 46.704 80.303 72.904 0 0-13.774 5.55-22.718 15.983-7.524 8.775-14.605 22.698-19.048 42.506-.296 1.32-1.209 5.528-1.7 13.601-.153 2.498-.849 5.215-1.925 7.348-1.706 3.379-4.464 5.959-8.986 6.723-16.07 2.717-34.204-12.756-44.4-29.629s-9.889-32.113-3.629-38.463c4.364-4.425 10.957-10.632 14.149-13.657l-.219-.217a247 247 0 0 0-8.305-7.716c-47.839-42.45-104.746-64.71-176.625-64.71h.001c-71.878 0-128.785 22.26-176.625 64.71a247 247 0 0 0-8.304 7.716l-.219.217c3.191 3.025 9.785 9.232 14.148 13.657 6.26 6.35 6.567 21.59-3.629 38.463s-28.33 32.346-44.4 29.629c-4.521-.764-7.28-3.344-8.985-6.723-1.077-2.133-1.772-4.85-1.924-7.348-.492-8.073-1.405-12.281-1.701-13.601-4.444-19.808-11.525-33.73-19.049-42.506-8.943-10.432-22.717-15.983-22.717-15.983 22.002-26.2 52.266-54.268 80.303-72.904 59.396-39.477 120.464-55.745 193.102-55.745z" style="fill:#231f20;fill-opacity:1;fill-rule:nonzero;stroke:none" transform="matrix(1.33333 0 0 -1.33333 0 1118.667)" data-source="https://football-logos.cc"></path><path d="M69.776 327.243a56.4 56.4 0 0 1 2.683-8.553c1.6-3.943 3.752-8.163 6.385-12.562l.16.215c4.344 7.306 13.588 13.145 13.588 13.145s-5.254-11.151-4.218-18.915c1.36-10.205 10.477-14.969 17.28-17.282 4.454-1.513 8.714-2.05 12.264-.599 3.045 1.246 4.406 3.083 5.244 5.11.796 1.927 1.212 4.342 1.212 7.116 0 6.27-2.195 14.405-7.472 23.138-9.402 15.562-26.24 30.079-40.225 27.715-2.822-.478-4.675-1.878-6.021-4.538-1.469-2.9-2.059-8.888-.88-13.99" style="fill:#c2ab26;fill-opacity:1;fill-rule:nonzero;stroke:none" transform="matrix(1.33333 0 0 -1.33333 0 1118.667)"></path><path d="M84.63 297.273a153 153 0 0 0-3.127 4.606s-.047.383.452 1.358c.66 1.321 1.55 2.608 2.552 3.83-.215-1.444-.35-2.906-.35-4.337 0-.916.052-1.819.17-2.697.142-1.063.37-2.187.715-3.347zM95.504 283.352a230 230 0 0 1 11.127-12.084l.342-.352 1.218 1.156c1.54 1.46 3.554 3.365 5.654 5.377l.317.313c-2.918-.123-6.195.431-9.821 1.665-3.737 1.27-6.801 2.781-9.31 4.436zM520.273 327.243a56 56 0 0 0-2.682-8.553c-1.6-3.943-3.752-8.163-6.386-12.562l-.16.215c-4.343 7.306-13.587 13.145-13.587 13.145s5.253-11.151 4.218-18.915c-1.36-10.205-10.477-14.969-17.281-17.282-4.454-1.513-8.713-2.05-12.263-.599-3.045 1.246-4.406 3.083-5.244 5.11-.796 1.927-1.212 4.342-1.212 7.116 0 6.27 2.195 14.405 7.471 23.138 9.404 15.562 26.24 30.079 40.226 27.715 2.821-.478 4.675-1.878 6.022-4.538 1.468-2.9 2.058-8.888.878-13.99" style="fill:#c2ab26;fill-opacity:1;fill-rule:nonzero;stroke:none" transform="matrix(1.33333 0 0 -1.33333 0 1118.667)"></path><path d="M505.42 297.273a151 151 0 0 1 3.127 4.606s.047.383-.452 1.358c-.66 1.321-1.551 2.608-2.553 3.83.216-1.444.351-2.906.351-4.337 0-.916-.053-1.819-.17-2.697a22 22 0 0 0-.716-3.347zM494.545 283.352a230 230 0 0 0-11.126-12.084l-.341-.352-1.219 1.156c-1.541 1.46-3.554 3.365-5.653 5.377l-.318.313c2.918-.123 6.195.431 9.821 1.665 3.737 1.27 6.801 2.781 9.31 4.436z" style="fill:#c2ab26;fill-opacity:1;fill-rule:nonzero;stroke:none" transform="matrix(1.33333 0 0 -1.33333 0 1118.667)"></path><path d="M295.024 706.676c72.639 0 133.707-16.27 193.103-55.747 28.037-18.635 58.3-46.702 80.303-72.903 0 0-13.774-5.55-22.718-15.982-7.524-8.776-14.605-22.7-19.048-42.506-.296-1.32-1.209-5.529-1.7-13.602-.153-2.498-.849-5.214-1.925-7.348-1.706-3.379-4.464-5.958-8.986-6.723-16.07-2.717-34.204 12.756-44.4 29.63-10.195 16.872-9.889 32.112-3.629 38.463 4.364 4.425 10.957 10.63 14.149 13.656l-.219.218a248 248 0 0 1-8.305 7.716c-47.839 42.45-104.746 64.71-176.625 64.71h.001c-71.878 0-128.785-22.26-176.625-64.71a247 247 0 0 1-8.304-7.716l-.219-.218c3.191-3.025 9.785-9.231 14.148-13.656 6.26-6.351 6.567-21.591-3.629-38.464s-28.33-32.346-44.4-29.629c-4.521.765-7.28 3.344-8.985 6.723-1.077 2.134-1.772 4.85-1.924 7.348-.492 8.073-1.405 12.281-1.701 13.602-4.444 19.807-11.525 33.73-19.049 42.506-8.943 10.432-22.717 15.982-22.717 15.982 22.002 26.201 52.266 54.268 80.303 72.903 59.396 39.478 120.464 55.747 193.102 55.747z" style="fill:#231f20;fill-opacity:1;fill-rule:nonzero;stroke:none" transform="matrix(1.33333 0 0 -1.33333 0 1118.667)"></path><path d="M69.776 514.418a56.4 56.4 0 0 0 2.683 8.553c1.6 3.944 3.752 8.164 6.385 12.562l.16-.215c4.344-7.306 13.588-13.145 13.588-13.145s-5.254 11.152-4.218 18.915c1.36 10.206 10.477 14.968 17.28 17.282 4.454 1.514 8.714 2.05 12.264.599 3.045-1.246 4.406-3.083 5.244-5.11.796-1.927 1.212-4.341 1.212-7.116 0-6.269-2.195-14.405-7.472-23.138-9.402-15.562-26.24-30.079-40.225-27.714-2.822.477-4.675 1.878-6.021 4.537-1.469 2.9-2.059 8.888-.88 13.99" style="fill:#c2ab26;fill-opacity:1;fill-rule:nonzero;stroke:none" transform="matrix(1.33333 0 0 -1.33333 0 1118.667)"></path><path d="M84.63 544.389a153 153 0 0 1-3.127-4.607s-.047-.383.452-1.358c.66-1.32 1.55-2.608 2.552-3.83-.215 1.445-.35 2.906-.35 4.337 0 .916.052 1.82.17 2.697.142 1.063.37 2.187.715 3.347zM95.504 558.31a230 230 0 0 0 11.127 12.084l.342.352 1.218-1.157c1.54-1.459 3.554-3.364 5.654-5.377l.317-.312c-2.918.122-6.195-.432-9.821-1.666-3.737-1.27-6.801-2.78-9.31-4.436zM520.273 514.418a56 56 0 0 1-2.682 8.553c-1.6 3.944-3.752 8.164-6.386 12.562l-.16-.215c-4.343-7.306-13.587-13.145-13.587-13.145s5.253 11.152 4.218 18.915c-1.36 10.206-10.477 14.968-17.281 17.282-4.454 1.514-8.713 2.05-12.263.599-3.045-1.246-4.406-3.083-5.244-5.11-.796-1.927-1.212-4.341-1.212-7.116 0-6.269 2.195-14.405 7.471-23.138 9.404-15.562 26.24-30.079 40.226-27.714 2.821.477 4.675 1.878 6.022 4.537 1.468 2.9 2.058 8.888.878 13.99" style="fill:#c2ab26;fill-opacity:1;fill-rule:nonzero;stroke:none" transform="matrix(1.33333 0 0 -1.33333 0 1118.667)"></path><path d="M505.42 544.389a151 151 0 0 0 3.127-4.607s.047-.383-.452-1.358c-.66-1.32-1.551-2.608-2.553-3.83.216 1.445.351 2.906.351 4.337 0 .916-.053 1.82-.17 2.697a22 22 0 0 1-.716 3.347zM494.545 558.31a230 230 0 0 1-11.126 12.084l-.341.352-1.219-1.157a1215 1215 0 0 1-5.653-5.377l-.318-.312c2.918.122 6.195-.432 9.821-1.666 3.737-1.27 6.801-2.78 9.31-4.436z" style="fill:#c2ab26;fill-opacity:1;fill-rule:nonzero;stroke:none" transform="matrix(1.33333 0 0 -1.33333 0 1118.667)" data-source="https://football-logos.cc"></path><path d="M244.45 576.729s-4.354.271-7.756-2.858c-3.487-3.21-2.993-6.123-2.993-6.123-3.13 4.353-2.042 10.068 2.858 16.6 5.21 6.947 8.572 8.573 8.572 8.573s-.952.816-4.082-.272-3.13-4.49-3.13-4.49c-2.586 3.537.059 10.973 2.994 13.47 6.395 5.444 13.199 2.994 13.199 2.994-1.225-3.13-.952-7.756 1.36-10.477 2.314-2.722 1.498-7.893 1.498-7.893s2.721 1.089 2.585 3.13-1.497 3.946-2.585 5.715c-1.089 1.77-2.041 6.124.135 9.253 2.178 3.13 4.763 4.355 6.532 2.177 1.77-2.177 3.946-6.123 1.633-14.56-2.2-8.022-6.395-9.933-6.395-9.933s.136-10.205-.68-14.287c0 0-4.405-1.709-8.438-5.035-5.442-4.49-12.246-12.52-12.246-20.276 0 0-4.899 4.899-2.858 17.01 1.833 10.875 9.798 17.282 9.798 17.282" style="fill:#231f20;fill-opacity:1;fill-rule:nonzero;stroke:none" transform="matrix(1.33333 0 0 -1.33333 0 1118.667)"></path><path d="M242.274 528.014s1.632 5.85 6.122 12.11 10.342 12.927 11.431 14.56 2.041 2.586.273 4.49c-1.77 1.906-5.171 4.49-5.171 4.49s-4.355-1.087-8.165-7.211c-3.81-6.123-7.484-19.867-4.49-28.44M264.726 555.637s1.36-5.716.816-12.383c-.544-6.668-1.769-17.146-5.17-22.452-3.402-5.308-13.608-12.656-13.608-12.656s.073 4.356-.136 12.111c-.273 10.07 1.905 14.288 8.708 23.54 6.865 9.335 9.39 11.84 9.39 11.84M270.169 504.473s3.181 7.11 6.123 12.79c3.946 7.621 3.13 14.424 2.313 20.956s-2.993 12.927-3.401 13.88c-.41.952-2.94 1.188-2.94 1.188s-4.136-4.726-5.769-18.062c-2.281-18.63 3.674-30.752 3.674-30.752M277.245 552.915s4.898-.544 8.028.272c0 0 2.45-5.307 6.26-7.892 0 0-.545-6.123 2.177-11.975 2.721-5.85 5.035-8.98 5.035-8.98s-4.491-1.497-9.254 1.768c-4.762 3.266-6.667 5.579-9.117 13.608s-3.13 13.199-3.13 13.199M240.233 508.963s-4.355-7.076-6.804-9.39c-2.45-2.313-6.242.261-11.975 8.573-5.443 7.893-6.667 18.507-8.028 27.76s-.408 12.79-1.497 14.832c-1.089 2.04-5.034 4.763-8.437 8.165s-2.449 4.762-1.633 6.53c.817 1.77.545 2.995-1.36 3.13-1.906.136-2.722 1.09-2.722 3.13s2.858 1.633 2.858 1.633 0 4.355.544 6.396c.965 3.616 0 4.898-.817 5.85-.816.953.817 1.634 3.81-.135 2.994-1.77 5.852-7.484 8.846-11.294s4.762-7.757 8.844-14.152c4.083-6.395 5.852-18.914 6.668-24.63.817-5.715 4.627-4.49 5.851-3.674s3.402 2.722 3.402 2.722-.544-7.484 2.994-10.205c0 0-.817-2.178-1.089-6.532-.272-4.355.545-8.709.545-8.709M324.491 312.527a2.32 2.32 0 0 1 .167-3.268l.767-.693a2.32 2.32 0 0 1 3.27.166l18.42 20.398a2.32 2.32 0 0 1-.166 3.269l-.767.693a2.323 2.323 0 0 1-3.27-.166zM409.318 291.174a29.2 29.2 0 0 0 6.472-4.278c11.628-10.162 12.052-27.069.924-37.76-11.127-10.688-29.577-11.103-41.207-.94a27.7 27.7 0 0 0-3.429 3.578c-.579.727-1.975 2.665-1.975 2.665-11.145-7.102-26.544-6.307-36.719 2.584-11.633 10.166-12.052 27.071-.925 37.762a29.2 29.2 0 0 0 7.956 5.423l.478.255-5.015 4.53a4.64 4.64 0 0 0-.332 6.536l9.482 10.5a4.64 4.64 0 0 0 6.538.332l5.517-4.982.343-.274a27.2 27.2 0 0 0 4.294 5.292c11.127 10.69 29.575 11.107 41.208.942 9.646-8.43 11.582-21.499 5.611-31.813zm-30.614-17.803a13.9 13.9 0 0 1-1.31-6.21c.094-4.054 1.969-7.877 5.277-10.769 7.347-6.421 19.483-6.147 26.502.594 3.145 3.024 4.826 6.91 4.73 10.946-.096 4.053-1.97 7.878-5.277 10.767-5.827 5.093-14.666 5.975-21.575 2.759l-.969 7.001c3.805.615 7.425 2.276 10.229 4.97 3.145 3.023 4.825 6.91 4.73 10.946-.095 4.053-1.97 7.878-5.276 10.767-7.348 6.42-19.485 6.148-26.503-.595-3.146-3.023-4.827-6.91-4.731-10.944.09-3.839 1.777-7.471 4.764-10.302l-4.2-4.664c-7.413 5.254-18.507 4.626-25.094-1.702-3.147-3.023-4.827-6.91-4.732-10.946.096-4.053 1.97-7.877 5.278-10.768 7.348-6.42 19.484-6.148 26.502.595 2.507 2.409 4.083 5.366 4.572 8.51zM265.559 312.527a2.32 2.32 0 0 0-.167-3.268l-.767-.693a2.32 2.32 0 0 0-3.27.166l-18.42 20.398a2.32 2.32 0 0 0 .166 3.269l.767.693a2.32 2.32 0 0 0 3.27-.166zM181.51 291.526c-5.97 10.314-4.034 23.383 5.612 31.813 11.632 10.165 30.08 9.748 41.207-.942a27.2 27.2 0 0 0 4.295-5.292l.343.274 5.517 4.982a4.64 4.64 0 0 0 6.537-.332l9.483-10.5a4.64 4.64 0 0 0-.333-6.537l-5.014-4.53.478-.254a29.2 29.2 0 0 0 7.956-5.423c11.126-10.69 10.707-27.596-.926-37.762-10.174-8.89-25.573-9.686-36.718-2.584 0 0-1.397-1.938-1.975-2.665a27.7 27.7 0 0 0-3.43-3.579c-11.629-10.162-30.08-9.747-41.207.942s-10.703 27.597.925 37.76a29.2 29.2 0 0 0 6.472 4.277zm36.918-17.2c.489-3.144 2.065-6.101 4.571-8.51 7.019-6.743 19.155-7.015 26.502-.595 3.308 2.891 5.183 6.715 5.279 10.768.094 4.036-1.586 7.923-4.733 10.946-6.586 6.328-17.68 6.956-25.093 1.702l-4.2 4.664c2.987 2.83 4.674 6.463 4.764 10.302.096 4.034-1.586 7.921-4.731 10.944-7.019 6.743-19.155 7.016-26.503.595-3.307-2.89-5.181-6.714-5.276-10.767-.095-4.037 1.585-7.923 4.73-10.947 2.804-2.693 6.424-4.354 10.229-4.969l-.969-7.001c-6.91 3.216-15.748 2.334-21.576-2.758-3.306-2.89-5.18-6.715-5.277-10.768-.095-4.036 1.585-7.922 4.73-10.946 7.02-6.741 19.156-7.015 26.503-.594 3.308 2.892 5.183 6.715 5.278 10.768a13.9 13.9 0 0 1-1.31 6.21z" style="fill:#231f20;fill-opacity:1;fill-rule:nonzero;stroke:none" transform="matrix(1.33333 0 0 -1.33333 0 1118.667)"></path><path d="M295.025 139.068c-36.89 0-69.733 4.224-100.403 12.914-31.695 8.98-61.278 22.768-90.44 42.15-25.03 16.636-53.75 42.426-75.994 68.11 5.131 2.687 13.156 7.612 19.249 14.718 8.795 10.259 15.651 25.416 19.84 43.855l.157-.347c6.25-18.197 24.477-42.307 48.257-63.408 49.852-44.236 108.514-65.74 179.334-65.74s129.481 21.504 179.334 65.74c23.78 21.1 42.007 45.211 48.257 63.408l.158.347c4.187-18.439 11.044-33.596 19.84-43.855 6.092-7.106 14.117-12.031 19.249-14.718-22.244-25.684-50.966-51.474-75.996-68.11-29.16-19.382-58.744-33.17-90.439-42.15-30.671-8.69-63.512-12.914-100.404-12.914zM295.025 702.593c-36.89 0-69.733-4.224-100.403-12.914-31.695-8.98-61.278-22.767-90.44-42.15-25.03-16.635-53.75-42.425-75.994-68.11 5.131-2.686 13.156-7.612 19.249-14.718 8.795-10.258 15.651-25.416 19.84-43.855l.157.347c6.25 18.197 24.477 42.307 48.257 63.409 49.852 44.235 108.514 65.738 179.334 65.738s129.481-21.503 179.334-65.738c23.78-21.102 42.007-45.212 48.257-63.41l.158-.346c4.187 18.439 11.044 33.597 19.84 43.855 6.092 7.106 14.117 12.032 19.249 14.719-22.244 25.684-50.966 51.474-75.996 68.11-29.16 19.382-58.744 33.169-90.439 42.149-30.671 8.69-63.512 12.914-100.404 12.914z" style="fill:#c2ab26;fill-opacity:1;fill-rule:nonzero;stroke:none" transform="matrix(1.33333 0 0 -1.33333 0 1118.667)"></path><path d="M430.285 408.404v25.31h15.376v-4.287h-11.226v-5.578h10.545v-4.287h-10.545v-6.872h11.634v-4.286zM449.428 416.705l4.083.476q.693-4.832 4.546-4.83 1.909 0 3.002.987t1.093 2.448q-.001.856-.386 1.458-.386.6-1.174.987-.79.387-3.779 1.294-2.678.804-3.923 1.75-1.245.945-1.979 2.485a7.6 7.6 0 0 0-.735 3.31q0 2.063.945 3.716a6.15 6.15 0 0 0 2.608 2.493q1.665.843 4.108.844 3.674 0 5.737-1.992 2.061-1.992 2.183-5.697l-4.218-.204q-.275 2.044-1.184 2.86-.91.813-2.593.813t-2.594-.696q-.91-.696-.91-1.732 0-1.021.807-1.716.804-.698 3.789-1.553 3.157-.927 4.561-1.937a6.56 6.56 0 0 0 2.146-2.608q.74-1.598.74-3.875 0-3.3-2.029-5.545t-6.346-2.245q-7.634 0-8.498 8.709M475.376 408.404v21.023h-6.191v4.287h16.465v-4.287h-6.124v-21.023zM486.009 408.404v4.83h4.014v-4.83zM513.37 408.404h-4.014v18.37q-2.24-2.502-5.17-3.674v4.355q1.668.664 3.46 2.379 1.793 1.713 2.488 3.948h3.236zM520.252 414.255l3.878.544q.27-2.79 2.193-2.789 1.3 0 2.126 1.4.827 1.4 1.063 5.692-.74-1.055-1.672-1.59a4.07 4.07 0 0 0-2.068-.535q-2.36 0-4.178 2.252-1.818 2.254-1.818 5.986 0 3.99 1.919 6.28 1.918 2.286 4.736 2.287 3.144 0 5.184-2.952 2.04-2.954 2.04-9.786 0-6.955-2.113-10.001-2.115-3.047-5.482-3.047-2.339 0-3.858 1.534-1.521 1.536-1.95 4.725m8.913 10.594q0 2.373-.898 3.646-.9 1.273-2.04 1.273-1.105 0-1.84-1.05-.733-1.05-.733-3.49c0-1.63.267-2.82.803-3.578q.802-1.135 1.978-1.135 1.122 0 1.926 1.083t.804 3.25M544.892 408.404v5.102h-8.437v4.27l8.94 16.006h3.375v-15.989h2.585v-4.287h-2.585v-5.102zm0 9.389v8.613l-4.734-8.613zM557.589 422.04q-1.472.757-2.215 2.068t-.744 3.156q0 2.983 1.7 4.75 1.698 1.767 4.577 1.768 3.052 0 4.647-1.888 1.595-1.889 1.596-4.595 0-1.845-.749-3.2-.75-1.354-2.043-2.06 1.744-.859 2.608-2.415t.865-3.824q0-2.338-.875-4.126-.873-1.787-2.411-2.734-1.538-.943-3.458-.944-3.008 0-4.97 2.07-1.962 2.072-1.962 5.579 0 2.268.887 3.901a5.95 5.95 0 0 0 2.547 2.493m.444-5.936q0-2.028.883-3.129.884-1.1 2.121-1.1 1.236 0 2.076 1.048.838 1.049.84 3.145 0 1.806-.858 2.854-.858 1.05-2.111 1.05-1.238 0-2.094-1.058-.858-1.058-.857-2.81m.34 10.798q0-1.474.708-2.264.709-.788 1.792-.788 1.101 0 1.818.788.716.79.717 2.264 0 1.423-.708 2.213a2.29 2.29 0 0 1-1.774.79q-1.121 0-1.837-.799-.716-.796-.716-2.204M22.333 416.705l4.083.476q.693-4.832 4.545-4.83 1.909 0 3.002.987t1.093 2.448q0 .856-.385 1.458-.388.6-1.174.987-.79.387-3.778 1.294-2.68.804-3.924 1.75-1.245.945-1.978 2.485a7.6 7.6 0 0 0-.735 3.31q0 2.063.944 3.716a6.15 6.15 0 0 0 2.609 2.493q1.663.843 4.107.844 3.674 0 5.737-1.992t2.183-5.697l-4.218-.204q-.276 2.044-1.184 2.86-.911.813-2.593.813-1.684 0-2.593-.696-.91-.696-.91-1.732 0-1.021.806-1.716.804-.698 3.789-1.553 3.157-.927 4.562-1.937a6.56 6.56 0 0 0 2.145-2.608q.74-1.598.74-3.875 0-3.3-2.029-5.545t-6.346-2.245q-7.635 0-8.498 8.709M43.655 408.404v25.31H59.03v-4.287H47.805v-5.578H58.35v-4.287H47.805v-6.872h11.634v-4.286zM63.887 408.404v25.31h14.22v-4.287h-10.07v-5.987h8.71v-4.286h-8.71v-10.75zM79.146 408.404v4.83h4.015v-4.83zM106.508 408.404h-4.015v18.37q-2.24-2.502-5.17-3.674v4.355q1.669.664 3.461 2.379 1.792 1.713 2.488 3.948h3.236zM113.39 414.255l3.878.544q.27-2.79 2.192-2.789 1.299 0 2.127 1.4.826 1.4 1.063 5.692-.742-1.055-1.672-1.59a4.07 4.07 0 0 0-2.068-.535q-2.362 0-4.179 2.252-1.818 2.254-1.818 5.986 0 3.99 1.919 6.28 1.919 2.286 4.736 2.287 3.145 0 5.185-2.952 2.04-2.954 2.04-9.786 0-6.955-2.114-10.001-2.114-3.047-5.482-3.047-2.336 0-3.858 1.534-1.52 1.536-1.95 4.725m8.914 10.594q0 2.373-.899 3.646-.9 1.273-2.039 1.273-1.107 0-1.84-1.05-.735-1.05-.734-3.49c0-1.63.267-2.82.803-3.578q.803-1.135 1.979-1.135 1.122 0 1.926 1.083t.804 3.25M138.03 408.404v5.102h-8.438v4.27l8.941 16.006h3.374v-15.989h2.586v-4.287h-2.586v-5.102zm0 9.389v8.613l-4.733-8.613zM150.726 422.04q-1.471.757-2.215 2.068-.742 1.31-.742 3.156 0 2.983 1.698 4.75 1.7 1.767 4.578 1.768 3.052 0 4.647-1.888 1.595-1.889 1.595-4.595 0-1.845-.748-3.2-.75-1.354-2.043-2.06 1.743-.859 2.608-2.415.863-1.557.863-3.824 0-2.338-.873-4.126-.874-1.787-2.41-2.734-1.54-.943-3.459-.944-3.008 0-4.97 2.07-1.963 2.072-1.963 5.579 0 2.268.888 3.901a5.96 5.96 0 0 0 2.546 2.493m.444-5.936q0-2.028.884-3.129t2.12-1.1q1.237 0 2.076 1.048.84 1.049.84 3.145 0 1.806-.858 2.854-.857 1.05-2.11 1.05-1.239 0-2.095-1.058t-.857-2.81m.34 10.798q0-1.474.709-2.264.708-.788 1.792-.788 1.1 0 1.818.788.716.79.716 2.264 0 1.423-.708 2.213a2.28 2.28 0 0 1-1.774.79q-1.119 0-1.836-.799-.716-.796-.716-2.204M103.755 222.385l2.632-4.447q-4.035-3.254-7.54-3.447-3.503-.191-6.495 2.195-3.762 3-3.794 7.752-.028 5.48 4.492 11.149 4.773 5.986 10.177 7.216 4.694 1.062 8.662-2.102 3.231-2.577 3.648-6.52.3-2.805-1.44-6.466l-4.668 1.895q1.147 2.2.852 4.097a4.76 4.76 0 0 1-1.795 3.093q-2.145 1.71-4.976.94t-6.229-5.031q-3.525-4.421-3.702-7.334t1.918-4.583q1.537-1.226 3.61-.92 2.075.304 4.648 2.513M123.74 195.116l-4.48 2.956 1.953 6.782-8.249 5.443-5.37-4.526-4.467 2.948 24.398 19.847 4.498-2.968zm-1.049 14.876 3.235 11.228-8.892-7.494zM127.103 193.168l14.54 26.248 9.157-5.073q3.512-1.947 4.626-3.487 1.112-1.543 1.113-3.825t-1.35-4.719q-1.706-3.081-4.255-4.127-2.55-1.048-5.594.008.858-1.784 1.124-3.48.266-1.702.14-5.654l-.217-6.572-5.274 2.921.016 7.425q.016 4.023-.138 5.14t-.65 1.783-1.956 1.475l-.87.482-6.067-10.952zm12.719 12.712 3.229-1.79q2.96-1.639 3.91-1.826.953-.19 1.892.322.938.51 1.663 1.819.696 1.254.614 2.294a2.93 2.93 0 0 1-.782 1.804q-.502.535-3.426 2.154l-3.408 1.889zM150.093 180.655l12.051 27.477 6.807-2.985-4.182-20.588 12.237 17.055 6.883-3.019-12.05-27.478-4.237 1.859 9.513 21.691-13.971-19.737-4.379 1.92 5.078 23.638-9.513-21.692zM199.06 161.967l-5.1 1.67.096 7.057-9.392 3.077-3.988-5.782-5.086 1.667 18.306 25.575 5.12-1.677zm-4.933 14.072.161 11.685-6.603-9.574zM203.047 160.972l6.802 29.223 10.196-2.373q3.911-.91 5.404-2.089t2.116-3.373q.627-2.196-.006-4.91-.798-3.43-2.964-5.133-2.165-1.704-5.382-1.523 1.313-1.48 2.034-3.04.72-1.562 1.68-5.399l1.59-6.38-5.871 1.366-2.017 7.146q-1.085 3.873-1.54 4.906-.454 1.032-1.113 1.537-.658.505-2.284.883l-.97.227-2.838-12.194zm8.755 15.706 3.595-.837q3.295-.766 4.261-.688.968.081 1.731.828t1.103 2.205q.324 1.396-.037 2.374a2.93 2.93 0 0 1-1.247 1.52q-.629.377-3.884 1.136l-3.795.883zM233.779 154.576l3.79 24.611-7.194 1.11.776 5.042 19.3-2.972-.778-5.044-7.194 1.109-3.79-24.611zM250.84 152.04l2.543 29.897 4.949-.42-.998-11.728 9.694-.825.997 11.728 4.95-.421-2.543-29.896-4.949.42 1.113 13.085-9.694.824-1.113-13.084zM275.672 150.282l.7 29.997 18.23-.426-.12-5.102-13.263.31-.156-6.665 12.312-.288-.118-5.033-12.312.287-.189-8.094 13.74-.32-.119-5.103zM299.28 149.863l-.95 29.989 4.828.153 10.699-19.707-.635 20.026 4.624.147.95-29.99-4.992-.158-10.52 19.242.62-19.556zM339.971 152.35l-2.956 24.725-7.227-.864-.607 5.067 19.389 2.317.606-5.066-7.229-.864 2.957-24.726zM352.021 168.682q-1.025 5.25-.129 8.952.895 3.7 3.083 5.855 2.19 2.153 5.767 2.851 5.187 1.012 9.223-2.298 4.037-3.312 5.46-10.607 1.44-7.377-1.21-12.2-2.32-4.26-7.526-5.274-5.247-1.025-8.99 2.012-4.267 3.473-5.678 10.71m4.97 1.176q.988-5.068 3.42-7.224t5.298-1.597q2.886.563 4.293 3.446 1.407 2.885.392 8.094-.997 5.107-3.32 7.192-2.325 2.085-5.312 1.501-2.988-.583-4.383-3.413-1.397-2.83-.388-7.999M386.576 160.806l-14.382 26.983 4.876 1.486 9.594-18.736-1.762 21.124 5.62 1.713 10.343-18.792-2.532 21.172 4.774 1.456 3.149-30.407-5.07-1.546-11.337 20.032 1.89-22.91zM416.329 170.469l-11.672 27.641 4.45 1.88 17.07-14.542-7.794 18.459 4.262 1.8 11.672-27.642-4.602-1.943-16.736 14.172 7.612-18.025zM467.146 195.61l-4.676-2.636-5.14 4.834-8.61-4.852 1.574-6.846-4.663-2.628-6.516 30.77 4.694 2.646zm-13.713 5.86-8.513 8.004 2.607-11.334zM470.256 197.712l-16.549 25.027 14.074 9.308 2.815-4.257-9.931-6.567 3.902-5.902 8.627 5.703 2.814-4.256-8.626-5.704 7.017-10.612zM494.15 228.62l4.929 1.55q2.253-4.668 1.642-8.124-.61-3.458-3.614-5.828-3.776-2.982-8.411-1.932-5.345 1.218-9.836 6.908-4.746 6.009-4.714 11.552.033 4.812 4.016 7.957 3.245 2.56 7.178 2.07 2.801-.345 5.97-2.872l-2.906-4.115q-1.882 1.617-3.796 1.76a4.76 4.76 0 0 1-3.42-1.043q-2.154-1.7-2.047-4.633t3.484-7.21q3.502-4.437 6.3-5.272 2.796-.836 4.899.826 1.543 1.216 1.717 3.307.176 2.09-1.392 5.098M82.15 583.024l4.594 2.368q3.012-4.22 2.999-7.729-.015-3.51-2.572-6.357-3.214-3.58-7.96-3.332-5.473.291-10.867 5.135-5.696 5.117-6.608 10.582-.786 4.75 2.605 8.525 2.763 3.074 6.723 3.26 2.818.135 6.37-1.816l-2.164-4.549q-2.13 1.274-4.04 1.09a4.76 4.76 0 0 1-3.194-1.61q-1.832-2.043-1.23-4.913.604-2.872 4.66-6.513 4.207-3.778 7.104-4.125 2.896-.348 4.687 1.647 1.314 1.462 1.13 3.55-.181 2.089-2.238 4.787M97.747 583l-4.003 4.173 3.387 3.25 4.004-4.174zM105.8 590.709 86.46 613.646l6.1 5.145q3.41 2.875 4.736 3.43 2.122.879 4.676.057t4.866-3.563q2.1-2.492 2.583-4.967t-.349-4.342-4.27-4.766l-2.485-2.096 7.282-8.634zm-12.257 22.238 5.483-6.501 2.1 1.771q2.117 1.784 2.627 2.722.51.94.344 2.123-.167 1.182-1.116 2.308-.961 1.14-2.122 1.498t-2.123.003q-.96-.355-3.343-2.364zM121.285 603.502l-3.519 4.59 3.726 2.856 3.519-4.59zM113.423 635.255l7.546 5.014q2.86 1.9 4.743 2.23 1.881.327 4.116-.374 2.233-.702 4.541-2.658 2.307-1.957 4.697-5.553 2.153-3.24 3.012-6.121.859-2.883.664-5.027a8.64 8.64 0 0 0-1.32-3.91q-1.12-1.766-3.626-3.43l-7.767-5.16zm6.961-1.502 10.958-16.49 3.104 2.063q1.995 1.325 2.642 2.294a4.2 4.2 0 0 1 .717 2.104q.068 1.133-.64 3.015-.708 1.88-2.48 4.546-1.839 2.767-3.284 4.109-1.444 1.341-2.863 1.72a4.57 4.57 0 0 1-2.772-.103q-1.017-.357-3.506-2.012zM152.154 624.381l-2.854 5.03 4.083 2.317 2.854-5.03zM176.956 637.02l-9.869 22.862-6.684-2.884-2.022 4.685 17.928 7.738 2.023-4.685-6.684-2.885 9.868-22.863zM192.502 643.494l-9.268 28.537 9.957 3.233q3.818 1.241 5.705 1.003t3.556-1.796q1.67-1.557 2.53-4.206 1.087-3.35.113-5.927-.974-2.578-3.822-4.084 1.89-.589 3.312-1.554 1.423-.966 4.227-3.755l4.656-4.641-5.733-1.863-5.417 5.078q-2.93 2.755-3.852 3.405t-1.747.742-2.413-.424l-.947-.308 3.868-11.906zm-.614 17.97 3.51 1.14q3.218 1.045 4.005 1.613t1.054 1.602-.194 2.457q-.443 1.365-1.26 2.015a2.92 2.92 0 0 1-1.851.658q-.733-.002-3.912-1.034l-3.706-1.204zM217.411 651.21l-6.57 29.276 17.792 3.993 1.117-4.98-12.945-2.904 1.46-6.506 12.016 2.696 1.102-4.912-12.016-2.696 1.773-7.9 13.41 3.009 1.117-4.98zM241.176 656.22l-4.18 29.71 16.708 2.352.711-5.053-11.79-1.66.985-7.006 10.241 1.44.711-5.052-10.24-1.441 1.772-12.599zM289.962 671.536l4.883-1.693q-.975-5.092-3.527-7.503-2.55-2.41-6.375-2.523-4.809-.143-7.905 3.465-3.563 4.164-3.776 11.41-.226 7.653 3.103 12.084 2.896 3.844 7.968 3.993 4.131.121 6.998-2.618 2.041-1.947 3.079-5.865l-4.786-1.57q-.547 2.418-1.998 3.677a4.76 4.76 0 0 1-3.368 1.201q-2.742-.081-4.406-2.499t-1.501-7.865q.166-5.651 1.914-7.99 1.747-2.336 4.425-2.258 1.964.058 3.35 1.632 1.386 1.572 1.922 4.922M322.977 659.547l-5.362.237-1.805 6.822-9.873.438-2.286-6.64-5.347.236 10.751 29.558 5.383-.24zm-8.536 12.228-2.989 11.297-3.784-10.997zM327.057 659.09l3.668 29.778 18.097-2.23-.624-5.064-13.168 1.623-.815-6.618 12.223-1.506-.616-4.996-12.222 1.505-.99-8.036 13.64-1.68-.624-5.065zM351.117 655.898l6.219 29.353 10.242-2.17q3.928-.832 5.444-1.98 1.515-1.15 2.184-3.332.668-2.183.091-4.907-.73-3.447-2.861-5.192-2.131-1.748-5.351-1.63 1.342-1.453 2.093-3 .751-1.548 1.788-5.363l1.716-6.348-5.897 1.25-2.159 7.105q-1.162 3.85-1.636 4.873t-1.144 1.515-2.302.838l-.973.206-2.595-12.247zm8.442 15.876 3.61-.765q3.31-.701 4.275-.603.965.1 1.714.862.749.763 1.058 2.227.298 1.402-.083 2.373a2.93 2.93 0 0 1-1.276 1.495q-.637.365-3.907 1.058l-3.811.808zM376.59 650.13l8.807 28.683 16.13-4.953-1.498-4.878-11.382 3.495-2.077-6.764 9.886-3.036-1.498-4.878-9.886 3.036-3.734-12.163zM403.709 640.959l4.777 11.71-1.759 19.463 5.31-2.166.911-13.16 9.701 8.83 5.308-2.165-14.887-12.715-4.763-11.673zM420.129 633.968l13.99 26.544 9.262-4.882q3.551-1.872 4.697-3.39 1.144-1.52 1.193-3.801.046-2.283-1.251-4.746-1.643-3.117-4.17-4.215-2.527-1.1-5.592-.108.894-1.764 1.196-3.457.3-1.694.256-5.648l-.08-6.575-5.333 2.811-.138 7.424q-.068 4.02-.245 5.135-.18 1.114-.686 1.77-.51.654-1.988 1.434l-.88.464-5.837-11.075zm12.452 12.972 3.265-1.72q2.993-1.578 3.948-1.746t1.884.362q.927.528 1.625 1.852.669 1.269.567 2.307a2.93 2.93 0 0 1-.82 1.787q-.512.525-3.47 2.083l-3.446 1.817zM459.442 646.645l7.557-4.997q2.865-1.893 3.902-3.499 1.035-1.605 1.259-3.936t-.679-5.218q-.904-2.887-3.285-6.49-2.145-3.244-4.463-5.158-2.32-1.913-4.372-2.57a8.64 8.64 0 0 0-4.115-.308q-2.063.345-4.57 2.003l-7.78 5.143zm1.329-6.996-10.918-16.516 3.109-2.055q1.997-1.321 3.142-1.54a4.2 4.2 0 0 1 2.217.16q1.071.378 2.528 1.763 1.455 1.385 3.22 4.055 1.833 2.772 2.506 4.626.672 1.852.468 3.307a4.57 4.57 0 0 1-1.174 2.513q-.726.796-3.219 2.445zM483.293 630.356l7.057-5.68q2.676-2.155 3.558-3.849.88-1.695.886-4.037.004-2.343-1.164-5.132-1.17-2.79-3.877-6.154-2.438-3.03-4.926-4.719-2.49-1.69-4.592-2.15a8.65 8.65 0 0 0-4.126.077q-2.023.537-4.364 2.422l-7.266 5.848zm.67-7.09-12.415-15.423 2.904-2.337q1.865-1.502 2.985-1.826a4.2 4.2 0 0 1 2.221-.049q1.104.276 2.682 1.52 1.579 1.242 3.586 3.736 2.083 2.589 2.926 4.371.842 1.782.776 3.25a4.57 4.57 0 0 1-.935 2.611q-.648.861-2.976 2.735zM484.631 590.198l20.292 22.102 3.659-3.36-20.292-22.101zM492.936 582.636l21.837 20.576 3.313-3.516-7.678-21.07 14.583 13.742 3.173-3.367-21.837-20.577-3.426 3.636 7.448 20.627-14.24-13.418zM300.921 550.33c-1.769-2.313-4.762-2.994-7.347-.953s-6.26 6.667-6.26 6.667-10.57-2.2-21.092 2.45c-5.85 2.586-4.898 6.94-3.81 11.839 1.089 4.898 2.314 8.844 3.81 11.702 1.896 3.618 3.947 6.804 4.083 9.253.136 2.45-1.361 4.218-1.361 4.218s1.089.953 3.266 2.04c2.177 1.09 2.041 1.634 0 2.042-2.041.41-4.082-.816-4.082-.816s.68 3.266.272 8.845c0 0 6.123.544 9.525-2.858 3.402-3.401 2.449-7.62 2.449-7.62s1.497.545 4.626 0c3.13-.544 3.76-3.06 4.22-4.898.544-2.178 1.088-3.13 7.484-5.988 6.395-2.857 13.063-5.443 13.063-5.443s1.496-3.266.544-8.3c0 0 2.177-2.177 1.905-4.762-.273-2.586-.544-5.171-4.627-5.171-4.082 0-5.579 1.632-8.573 2.857-2.993 1.224-6.26-.137-6.26-1.77 0-1.632 2.179-2.449 5.172-2.449s5.443.545 5.443.545 2.177-.952 3.266-3.13-.952-4.082-2.721-3.946c0 0-1.226-2.041-2.995-4.354m-16.328 34.698s-5.851.409-7.348-.816-2.722-1.497-2.722-1.497 0-2.72 2.586-2.993c1.84-.194 5.443-.68 5.307 3.81 0 0 1.36 0 2.177 1.496" style="fill:#231f20;fill-opacity:1;fill-rule:nonzero;stroke:none" transform="matrix(1.33333 0 0 -1.33333 0 1118.667)"></path><path d="m298.072 369.58 19.397 17.52-.887-.49c-6.397-3.262-13.744-5.118-21.557-5.118-7.719 0-14.982 1.812-21.324 5l-1 .499 63.096-56.989-9.12-10.098-75.262 67.976-.073-.069-7.085-6.853.1-.091 19.824-17.904.115-.106-34.298-33.169-.099.09-6.577 5.942.082.085 9.214 8.91-.101.091-13.258 11.973-.086-.08-9.215-8.911-.096.09-6.381 5.762.115.111 17.42 16.846.067-.06 16.655-15.043.074-.077 7.454 7.208-.095.09-16.699 15.082.088.096 13.015 12.586-.092.091-8.812 7.96-.127-.127-12.984-12.556-.106.096-16.699 15.082-.086-.09-7.359-7.117.074-.071 16.726-15.107-.095-.09-17.435-16.861-.17.145-6.319 5.705.11.096 9.2 8.897-.124.101-13.15 11.879-.093.093-9.22-8.912-.085-.084-6.625 5.983-.056.051L202.35 418.8l.106-.087 19.815-17.896.127-.11 7.16 6.924-.085.068-39.953 36.085-.546 6.536 2.231 2.47 8.53.103 6.573-5.936.32-.298c2.592 5.987 7.987 5.477 14.554 11.412 5.25 4.745 13.063 13.744 16.6 20.275 3.539 6.532 4.22 14.56 4.492 19.186.271 4.627 3.13 5.308 10.205 10.07s10.205 6.94 10.205 6.94.465-6.316 2.586-9.253c1.768-2.45 5.443-4.898 5.443-4.898s4.354 2.72 9.253 11.565c3.902 7.043 3.538 12.111 3.538 12.111s9.525-5.035 19.73 0c0 0-2.177 6.532-1.768 11.567 0 0 2.548.185 7.347 2.448 7.212 3.403 22.997 4.628 38.238-2.176 0 0 6.531.816 10.477 2.993s4.9 5.307 1.77 7.892-9.561 1.993-20.14 4.763c-11.43 2.994-23.133 11.159-22.452 22.725s15.513 14.698 24.358 15.104c14.832.68 23.949-2.177 23.949-2.177s-2.586 3.13-3.674 4.898c-1.09 1.769-1.361 4.355 1.088 5.988 2.45 1.633 7.484 1.633 15.24-4.355 7.756-5.987 17.554-13.198 21.092-15.376s4.627-4.899 1.497-5.58c-3.13-.68-5.988-1.088-10.75-2.449-6.094-1.741-11.838-4.898-18.642-7.755s-11.158-2.178-13.88-.681c-2.721 1.497-2.858 4.082-1.224 6.123 1.632 2.041 5.714 4.9 5.714 4.9s-5.17 2.312-12.654 3.4c-7.484 1.09-15.65-.407-17.01-4.081-1.483-4.006 4.083-10.886 18.914-12.52 15.76-1.735 21.909-4.762 25.174-10.205s1.497-15.24-3.402-19.458c-4.898-4.22-12.79-5.988-12.79-5.988 2.45-3.402 2.857-9.798 1.905-16.193s-1.09-12.11.544-19.867c1.633-7.756 5.715-11.294 9.525-14.968s4.083-6.531 3.402-9.797c-.68-3.266-3.81-6.395-5.443-10.75s-2.313-10.75-2.586-15.648c-.103-1.87-.167-3.423-.207-4.627l-.027-.545 23.495 21.221 8.53-.104 2.232-2.469-.547-6.536-39.952-36.085-.086-.068 7.16-6.924.128.11 19.815 17.896.106.087 34.301-33.157-.056-.05-6.625-5.984-.084.084-9.22 8.912-.093-.093-13.15-11.879-.124-.1 9.2-8.898.11-.096-6.319-5.705-.17-.145-17.436 16.862-.095.089 16.726 15.107.074.071-7.358 7.117-.087.09-16.699-15.082-.106-.096-12.983 12.556-.127.126-8.813-7.959-.091-.09 13.014-12.587.088-.096-16.699-15.082-.095-.09 7.455-7.208.074.077 16.655 15.043.067.06 17.42-16.846.114-.111-6.38-5.763-.096-.09-9.215 8.912-.087.08-13.257-11.973-.102-.092 9.214-8.91.083-.084-6.578-5.941-.099-.091-34.298 33.169.116.106 19.822 17.904.101.09-7.085 6.854-.073.07-30.418-27.475zm8.156 143.601c.94-6.419 5.58-11.974 5.58-11.974 1.904 1.905 3.673 5.17 3.673 5.17-4.899 5.988-7.892 15.241-7.892 15.241s-2.178-2.858-1.36-8.437m-90.247-74.962 40.8-36.851-.44.69c-3.917 6.185-6.163 13.393-6.163 21.088 0 12.843 6.258 24.329 16.096 31.97l.31.279c-2.29 1.717-2.38 3.924.182 8.663 2.721 5.035 6.804 6.94 18.641 11.703 11.84 4.762 16.466 6.668 16.466 6.668-1.497 1.904-2.858 5.306-2.858 5.306-3.265-2.04-7.484-2.177-14.424-1.089-6.939 1.09-12.382 3.675-12.382 3.675s-1.77-2.45-4.355-5.716-5.579-9.933-5.579-9.933-1.496 3.13-2.857 4.763c0 0 .272-5.851-.545-9.117-.816-3.266-7.892-7.62-7.892-7.62s-.272 4.218-2.177 6.395c0 0-.817-5.58-4.762-11.43-3.947-5.851-8.03-10.07-8.03-10.07s-.68 2.586-2.857 1.225-2.858-2.177-2.858-2.177 0-4.082-1.632-6.804c-1.633-2.721-3.13-3.538-5.715-2.586-2.586.954-3.402 1.226-2.178 4.628 1.225 3.401 2.858 4.626 1.633 4.49-1.224-.137-2.857-2.585-4.082-5.035-.559-1.118-1.128-2.123-1.965-2.84zm140.272-15.745c-1.788-.521-3.612-.988-4.85-1.143-3.265-.408-4.353.68-4.49 4.763-.135 4.081.953 8.709 3.13 11.157 2.177 2.45 6.532 5.852 6.532 5.852s.68 4.49 1.088 11.43 0 8.437-1.633 9.661-5.85 1.633-12.519 5.851c-6.667 4.22-8.572 9.525-9.661 12.656-1.088 3.13-1.224 4.354-3.538 5.715s-4.762 3.674-4.762 3.674c-.681-5.035.816-6.124 2.177-7.892 1.361-1.77.953-6.532-1.36-8.845s-12.792-5.17-23.678-7.62c-5.227-1.176-7.977-2.354-9.175-2.968l1.51.034c24.768 0 44.845-18.65 44.845-41.653 0-7.65-2.22-14.82-6.096-20.982l-.482-.774 23.463 21.193z" style="fill:#231f20;fill-opacity:1;fill-rule:nonzero;stroke:none" transform="matrix(1.33333 0 0 -1.33333 0 1118.667)"></path><path d="m291.977 345.74-28.603-25.836-9.122 10.098 27.577 24.907z" style="fill:#231f20;fill-opacity:1;fill-rule:nonzero;stroke:none" transform="matrix(1.33333 0 0 -1.33333 0 1118.667)"></path><path d="M334.292 423.146c0 20.143-17.58 36.472-39.267 36.472v-72.945c-21.687 0-39.267 16.33-39.267 36.473z" style="fill:#c2ab26;fill-opacity:1;fill-rule:nonzero;stroke:none" transform="matrix(1.33333 0 0 -1.33333 0 1118.667)" data-source="https://football-logos.cc"></path><!-- source: https://football-logos.cc --></svg>