<svg xmlns="http://www.w3.org/2000/svg" viewBox="109.85 111.84 547.81 908.38"><!-- Source: https://football-logos.cc --><path d="M329.584 619.582c.652 1.835 2.095 3.353 2.872 3.664 1 .4 1.501 1.701-.2 1.701-1.702 0-2.302.1-4.204-2.302a20.3 20.3 0 0 1-2.097-3.207l-.407-.764h3.805zM308.231 745.468c3.003-1.502 4.505-.901 5.606.1 1.101 1 2.702.7 1.701-.401s-2.002-3.803-2.5-6.105c-.34-1.56-.22-4.131-.107-5.627.053-.712-.405-1.74-.721-2.056-4.315-4.31-15.905-12.83-20.195-15.44-4.604-2.803-10.51-6.106-12.312-7.308-1.802-1.2-2.403-3.703-3.103-7.007s-1.802-4.905-3.104-6.206c-1.3-1.302-1.3-.4-.6 1.201s2.002 4.004 1.502 6.306c-.501 2.303-.601 2.703.9 4.805 1.502 2.103 1.802 4.205 2.303 7.507.5 3.304.5 4.906 2.002 6.207s4.905 4.604 10.41 10.11c5.506 5.506 8.209 10.61 10.51 15.515 2.303 4.905 4.504 9.71 5.005 9.91s.346-.394-.1-4.404c-.4-3.603-.2-5.606 2.803-7.107m3.905-6.106c.523 2.038-.902 2.402-2.604.6-1.7-1.802-9.409-9.21-13.913-12.713-4.505-3.503-8.508-6.406-7.007-6.806s4.004 1.301 8.008 4.304 14.614 11.111 15.516 14.615M243.867 733.656c-1.701 0-1.902-1-.901-1.402 1-.4 3.504 1.402.901 1.402M249.874 741.664s1.6-.5 3.803 1.001c2.202 1.502 3.504 3.104 3.504 3.104s-.1.7-1.101 2.401c-1.002 1.703-1.402 2.102-1.803.901-.4-1.2-.6-2.201-2.302-3.803s-3.704-3.403-2.101-3.604" style="fill:#ee2523;fill-opacity:1;fill-rule:nonzero;stroke:none" transform="matrix(1.33333 0 0 -1.33333 -.667 1121.186)" data-source="https://football-logos.cc"></path><path d="M370.394 618.674h-37.939s1.452 1.618 2.002 2.47c1.269 1.96 2.203 1.3 3.505 2.002 1.3.7 1.6 1.901.7 3.002-.901 1.102-2.703 1.703-4.306 1.502 0 0-.5 1.101.902 1.702 1.402.6 3.704-.2 5.706-1.402s3.203-2.102 4.806-2.002c1.6.1 3.602 1.602 4.703 2.904 1.101 1.3 1.803 1.3 2.004.4.199-.9 1.9-1.001 2.802.3.9 1.301 1.4 2.002 1.9 8.308.502 6.307-1.5 9.01-4.403 11.912s-6.907 4.805-10.91 5.606c-4.005.8-9.21 1.802-10.812 3.603-1.6 1.803-3.103 3.504-5.106 6.206-2 2.704-3.402 2.603-4.302 2.103 0 0 .3-1.902 2.801-5.005 2.503-3.104 2.102-4.405.602-5.406-1.502-1-2.103-3.103-5.506 4.105-2.78 5.884-2.908 7.51-7.407 10.21-3.504 2.102-6.808 2.102-7.808 1.3-1.002-.8.1-2.501.1-2.501 4.603.4 7.106-1.602 8.808-3.504s.902-3.203.1-3.203c-.8 0-1.6 2.302-2.3 3.203-.702.901-2.604.6-2.604-.7 0-1.302 0-2.904-1.102-3.304-1.1-.4-1.1 0-1.2 1.702s.1 2.302-1.002 3.002c-1.102.702-2.402.901-2.502-.5-.1-1.4.5-3.904 0-4.704-.5-.801-1.803-.5-2.804 1.5-1 2.003-2.401 3.905-3.102 3.604s-.6-1.2-.3-4.004c.3-2.802 0-3.303-.8-3.303-.802 0-1.303.9-2.804 2.903-1.502 2.002-1.901 3.104.1 3.804s3.704 2.402 4.605 3.904c.9 1.501-3.003.7-6.807-1.102-3.804-1.801-9.21-4.804-15.515-6.206-6.307-1.4-10.712-1.1-13.314.3-2.603 1.402-2.802 2.504-2.302 2.803.5.3 1.802 2.203 1.701 3.805-.1 1.601-1.4 1.7-3.002-.5-1.602-2.203-1.903-3.604-2.202-6.207-.301-2.603.1-4.105 1.1-5.506 1.002-1.402.501-2.102-.4-1.501-.901.6-1.201.3-1.502-.2-.3-.501-2.503-1.802-5.105-3.904q-3.904-3.154-3.603-5.706c.2-1.702 1.301-3.603 1.601-4.805s-.8-1-2.502-.2-3.204.4-3.204.4-.1-.9 0-3.503-.7-2.002-1.6-1.201c-.902.8-2.503-.1-4.105-2.102-1.602-2.003-2.302-4.605-2.302-7.608s1.602-3.304 4.104-3.503 3.804 0 4.704-1.903c.528-1.114 1.228-2.229 1.717-2.96l.286-.41h-14.815l-.034.417c-.037 1.623-.759 2.888-2.169 3.054-1.701.2-3.923-.17-5.806-1.402-1.3-.85-1.751-2.07-1.751-2.07h-7.357s0 .619-.1 1.57c-.17 1.605-1.841 1.817-2.904.4-.45-.6-1.351-1.97-1.351-1.97h-2.452s1.15 1.42 2.402 2.87c1.716 1.99 3.104 3.604 4.004 3.604s2.203-.1 4.205-.3 2.703.8 3.703 2.002-.7 1.502-3.003 1.101c-2.302-.4-5.205.401-6.507 1.301-1.301.901-3.103 1.802-4.604 2.003-1.502.2-3.203 0-6.006-2.402s-3.403-1.602-3.403-1.602.5 1.602 2.702 3.503 3.704 2.402 5.706 2.402 4.905-1.3 7.407-2.602c2.503-1.302 6.107-1.101 7.608-.4 1.501.7 2.903-.401 3.604-1.702.7-1.302 2.101.3 3.704 1.801 1.601 1.502 5.304 4.806 7.707 9.21s6.807 14.114 11.111 21.922c2.265 4.109 3.504 5.105 3.204 5.705-.301.6-2.603 0-4.305-1.8-1.702-1.803-3.594-1.514-3.403-2.704.4-2.503-.25-2.903-.864-2.865-.613.037-1.389.212-2.04.762-1.3 1.102-.6 2.003.902 3.004 1.501 1 1.802 2.502 1.401 5.005-.4 2.502-2.203 2.002-3.704 1.301s-3.904-2.402-3.904-2.402c-1.701 2.503-.4 4.704 1.801 5.305 2.204.6 3.705.6 5.707-.2 2.001-.801 3.204-.4 3.204-.4-.1 5.204.5 9.309 2.502 12.912s4.704 9.51 7.808 15.316c3.103 5.805 3.003 12.512 2.702 16.817-.3 4.304-2.503 5.004-3.003 4.504s-.2-2.002 0-6.707-.4-9.61-2.202-12.212-2.002-2.002-3.103-1.401-2.503.7-2.703 1.701 1.2 1.702 3.403 1.302c2.202-.4.801 2.502-.6 3.904-1.402 1.4.2 2.202.9 2.102.701-.1 2.504.5 2.404 1.301s-1.603 1.602-2.704 2.002c-1.1.4-.6 2.002.5 2.903 1.102.9.301 4.004 1.002 5.105.7 1.101 1.702 2.402 1.902 3.804s-.8 2.002-2.102 1.2c-1.302-.8-1.501-2.902-4.305-6.205-2.802-3.303-5.104-2.803-6.506-2.503s-3.603.8-5.005.701-3.803-2.202-5.605-5.005-2.503-3.103-3.304-2.503-.5 2.903-1.101 3.804c-.6.902.5 3.104 2.703 4.705 2.202 1.602 5.405 2.502 8.108 2.502s3.503 1.702 3.303 2.904c-.2 1.2-2.802 2.802-4.605 3.303-1.801.5-3.503.7-6.506-.3-3.003-1.002-4.604-.701-5.806-.301s.2 1.301.3 2.803c.1 1.501-.1 2.503-1.301 3.103s-.3 1.701.901 2.402c1.201.7 2.102 2.003 5.105.902 3.003-1.102 3.904-1.502 6.006-1.703 2.202-.21 3.204.4 3.804 1.602s1.701 1.702 4.405 1.702c2.703 0 5.605.1 7.507.6 1.355.357 2.602-.2 4.505.3 1.902.5 4.303 3.004 6.405 5.106s2.203 3.703 3.104 3.503c.9-.2-.2-3.303-.2-4.404s1.902-1.801 2.502-3.104c.6-1.3-.5-2.602-1.902-3.703s-2.002-2.902-2.002-2.902 1.302-1.001 3.203-3.805c1.903-2.802 2.103-4.104 2.103-4.104s1.4-.6 2.302-1.801c.9-1.202-.5-1.802-1.101-2.603-.601-.8.1-2.103.8-2.603s1.202-1.802.502-1.9c-.702-.101-1.703-.902-1.703-.902s0-.3.1-6.607c.1-6.306.4-7.407.4-7.407 1.603-.901 1.703-1.702 1.503-2.403-.2-.7-1.502-1.101-1.502-1.101s.8-2.002 1.202-3.303c.4-1.302-1.402-1.401-1.402-1.401s-.4-2.303-2.202-4.405-4.705-3.303-7.308-4.104-2.803-.5-2.803-1.602c0-1.1 1.402-1.902 5.806-.9 4.405 1 8.409 4.104 11.612 7.006 3.203 2.904 5.205 8.208 6.406 11.612s1.201 4.204 3.704 5.706c2.502 1.502 8.408 4.404 15.916 9.61 7.508 5.204 15.015 11.511 19.62 17.617 2.74 3.635 10.524 21.275 11.411 21.021.7-.2 1.001-1.2 1.001-3.404 0-2.201 1.501-6.006 3.603-7.808s4.506-2.702 4.404-3.503c-.1-.801-2.101-3.403-4.905-5.905-2.802-2.503-6.806-5.306-9.109-6.808-2.301-1.501-2.801-2.902-1.2-2.902 1.6 0 1.5 0 5.405 2.502 3.904 2.502 5.304 3.503 6.106 3.104.8-.401.201-1.703.602-2.904s2.101-3.403 3.801-4.705c1.702-1.3.702-2.402-2-2.902-2.703-.501-9.61-2.103-13.414-2.904-3.803-.8-7.307-1-6.707-2.002.6-1 .701-1.8 6.206-.9 5.507.9 9.71 1.302 10.911 1.302 1.203 0 1.502-1.302.903-2.803-.602-1.502-.4-5.306.7-6.707s2.53-3.404 1.1-3.904c-2.002-.7-4.609-.721-12.212.901-7.508 1.602-11.913 1.902-13.314 1.602-1.4-.301-1.5-1.602-.499-2.303s4.904-1.101 9.91-2.002c5.004-.9 9.809-1.501 11.11-2.302 1.3-.801 1-.5-1.4-2.903-2.403-2.402-4.706-5.707-4.906-8.209-.201-2.502.401-3.903-.901-3.903s-6.306 1.8-12.613 5.105c-6.306 3.303-9.709 5.305-11.812 7.307s-4.104 2.603-3.703.8c.4-1.8 3.003-3.002 7.507-6.506 4.504-3.503 7.408-4.704 7.508-5.305.1-.6-1.4-.6-3.404-1.401-2.002-.801-5.604-3.203-6.806-4.305-1.202-1.1-1.802-3.603-1.602-4.404s.701-.3 3.102 2.102c2.404 2.402 5.306 4.004 10.112 4.504 4.804.5 9.508-.3 13.113-1.3 3.602-1.002 5.104-2.003 3.903.8-.688 1.606-.917 2.949-.986 3.803-.05.637.43 1.073 1.186 1.1 1.783.068 5.476.198 8.81-2 9.11-6.006 11.91-8.309 20.92-8.508 9.009-.2 12.29 1.714 14.014 4.904 2.002 3.704 2.802 8.709-2.602 11.512-5.406 2.803-8.509 1.1-9.11-2.002-.6-3.103 1.302-4.304 4.004-4.805 2.703-.5 5.407 2.002 5.407 2.002s2.1-5.005-2.803-5.605c-4.906-.601-7.608.2-9.712 4.104-2.1 3.903-1.2 8.208 2.504 11.31 3.703 3.104 9.009 2.904 12.111.501 3.105-2.402 6.908-7.707 5.106-14.914-1.701-6.808-7.507-9.91-14.014-11.012-6.507-1.1-11.811-.2-16.116 1.602s-6.771 4.787-7.208 2.903c-.3-1.301 1.902-6.106 3.805-9.91 1.901-3.803 5.304-9.209 9.008-12.012 3.705-2.802 6.808-3.504 9.01-3.904s1.6-2.402.2-4.104-3.002-4.805-4.205-9.109c-1.202-4.304-2.101-7.908-1.1-9.21 1-1.3 2.202-3.203 3.303-2.101 1.101 1.1 2.302 1.501 3.103.7.8-.8 1.3-1.5 2.803-.7 1.5.8 2.803.4 2.602-.2-.2-.6-1.3-2.003-2.103-2.003-.621 0-.399-2.293.67-3.74zm-41.141 124.592c-.557 2.408-2.102 1.801-3.705-2.002-1.6-3.804-6.806-13.814-15.314-21.723-8.508-7.907-15.015-12.11-19.921-14.814-4.904-2.703-7.307-3.704-8.508-8.508-1.201-4.805-2.202-6.107-4.905-9.01-2.702-2.902-3.504-4.804-3.504-5.805s.4-1.202 1.803-2.603c1.4-1.402 2.702-3.403 3.103-1.902.4 1.502-.1 1.802-.601 3.103-.5 1.302-.4 2.303 1.702 4.205 2.101 1.901 4.904 4.504 5.906 7.407 1 2.903 2.302 6.206 4.904 7.808 2.603 1.601 11.713 7.307 16.217 11.611 4.505 4.304 11.311 10.911 16.016 17.718s7.407 11.912 6.807 14.515m-37.538-54.855c-1.84 1.763-2.903 1.902-2.903.7 0-1.2.5-2.202 4.204-5.405s5.206-4.304 6.306-4.404c1.102-.1 1.903.1 1.802 1.1-.1 1.002-1.1 1.402-3.003 2.804-1.901 1.4-4.004 2.902-6.406 5.205m-33.234 52.051c-3.46-2.883-4.504-4.003-4.604-5.105-.1-1.1.2-1.801 1.702-2.802 1.501-1 1.401.3 1.602 1.602.2 1.301.4 2.502 2.101 3.703s1.502 2.402 1.502 3.103-.5 1.002-2.303-.5m-13.913-4.505c-3.609 0-6.007-1-5.305-2.202.7-1.201 2.102-3.903 3.703-4.404 1.602-.5 3.003 0 4.705 2.002s2.403 3.604 2.102 3.903c-.3.3-2.603.701-5.205.701m-15.616-1.201c-1.944.3-4.004.9-3.703-1 .3-1.903.3-2.604 2.201-2.403 1.903.2 3.404 1 3.404 1.802 0 .8-.601 1.4-1.902 1.6" style="fill:#ee2523;fill-opacity:1;fill-rule:nonzero;stroke:none" transform="matrix(1.33333 0 0 -1.33333 -.667 1121.186)"></path><path d="M234.157 725.548s-2.702.6-4.705-.2c-2.002-.8-4.904-2.103-8.508-1.502-3.604.6-6.707 3.804-9.71 9.81 0 0 0 .801 1.001 1.802s1.402 1.401-.9 2.002-4.305 1-7.308 1.902c-3.003.9-3.903 1.2-2.102-1.301 1.802-2.503 2.703-3.704 3.904-5.606s1.002-3.103 1.902-2.203c.901.901 2.202 1.102 2.202 1.102s.5-.4 3.604-4.505 5.005-5.705 9.209-5.405 5.505 1.902 7.708 2.502c2.202.601 3.703 1.602 3.703 1.602M247.97 698.72c-2.18.936-2.902.802-3.402-.2-.501-1-.801-1.4 1.201-2.702 2.002-1.301 2.002-1.702 3.203-.2s1.102 2.202-1.001 3.103M244.768 693.215c-2.057 1.09-2.703.901-3.503-.4-.801-1.3-.3-1.802 1.401-2.803s2.302-1.701 3.603 0 .2 2.303-1.5 3.203M241.565 687.31c-1.783.938-2.703 1-3.904-.601-1.202-1.602-1.301-2.103.7-2.703 2.003-.6 3.504-1.8 4.605-.4 1.1 1.401.5 2.703-1.401 3.704M238.762 680.803c-2.35.511-4.104-.7-4.605-1.601-.5-.9-.9-3.604-.1-3.404.801.2 2.402.4 4.204.5s3.004-.4 3.304 1.302-.5 2.703-2.803 3.203M231.554 682.105c-1.5 0-2.001-.801-.9-1.202s2.803 1.202.9 1.202M228.552 679.001c-1.038.367-1.902-.4-1.402-1.501s.601-2.102 1.902-.801c1.302 1.301 1.2 1.702-.5 2.302M223.847 675.798c-1.583.317-1.902-.9-1.802-1.801.1-.902.4-1.302 1.902-.6 1.502.7 1.402 2.101-.1 2.4M220.443 678.801c-.952.505-1.901.4-2.002-1.1-.1-1.502.702-2.203 1.502-1.602.801.6 2.203 1.801.5 2.702M216.44 682.004c-1.463.688-2.503-.1-1.802-1.1.7-1.002 1.201-2.103 2.002-1.602.8.5 1.501 1.901-.2 2.702M213.537 685.708c-1.287.198-1.702-.7-1.101-1.602.6-.9 2.102-1.5 2.202-.7s.2 2.102-1.101 2.302" style="fill:#ee2523;fill-opacity:1;fill-rule:nonzero;stroke:none" transform="matrix(1.33333 0 0 -1.33333 -.667 1121.186)"></path><path d="M229.953 673.095c-1.48.247-2.302-1.3-4.304-2.202-2.002-.9-3.704-1.602-6.306 1.001-2.603 2.603-7.708 8.409-10.511 12.313s-3.804 6.707-3.804 8.108c0 1.4 1.101 1.901 2.403.1 1.3-1.802 2.502-3.704 3.303-5.005.801-1.302.801-.9.6 1.3-.2 2.204-2.502 8.009-3.303 9.91-.8 1.903-1.601 2.403-1.501 6.308s1.602 6.205.2 8.608c-1.401 2.402-3.403 4.304-5.005 3.003 0 0 .6-1.202 1.602-2.002 1.001-.8.8-3.304-.2-3.805-1.001-.5-1.703-2.501-.501-4.003 1.201-1.501 2.903-4.004 2.903-4.805 0-.8-1.2-.8-2.603.6-1.402 1.403-4.004 3.405-4.303 5.907-.301 2.502-.602 5.806-2.704 8.008s-8.108 3.904-7.908-.1c0 0 1.602.3 2.403-1.202.8-1.5 1.801-1.5 3.904-3.303 2.101-1.802 3.003-3.603 2.302-4.104s-2.502-.2-3.804 1.501c-1.301 1.702-2.903 1.603-5.105 1.603s-3.604-1.302-3.904-2.803c0 0 2.002.6 3.103.4s2.302-1.602 2.603-2.703c.3-1.101 1.901-1.502 3.903-3.303 2.002-1.802 3.469-4.42 3.905-7.908.4-3.203-.801-4.905-2.202-5.406-1.402-.5-2.203-.3-3.003.5-.801.802-2.003 1.002-2.003 1.002s-.3-1.402 1.702-3.603c2.002-2.203 4.104-2.603 6.006-2.003s4.004 1.302 5.305 1.101c1.301-.2 3.404-1.701 3.404-4.003s-.4-3.804-1.402-4.304c-1-.502-.5-1.302 1.402-.902s3.503 1.101 3.303-.6-1.102-3.304-2.002-3.904-.6-1.302 1.802-1.101c2.403.2 3.704.5 5.005-1.902s3.503-5.105 3.503-5.105.6.5 4.104 2.002 5.607 1.501 7.007 2.802c1.402 1.302 1.902 3.804.7 4.004M239.163 667.09c-1.403-.296-3.003-1.201-3.504-2.503-.5-1.301-.4-1.301 1.502 0 1.901 1.302 3.903 2.903 2.002 2.502M392.114 731.954c-.904-.056-5.003-.9-9.908-3.303s-9.01-6.607-10.21-7.608-1.201-2.602.4-2.202 3.203.4 5.504 2.603c2.303 2.202 2.704 2.302 3.804 2.302 0 0-.8-2.402-3.002-6.006s-2.403-7.607-2.103-12.112c.3-4.504.8-6.506 2.103-8.609 1.3-2.102 2.603-3.503 2.603-1.701s-1.602 7.007-1.902 11.611-.4 8.408.7 9.11c1.101.7 2.603.6 3.904-.602 1.3-1.2 2.303-2.101 2.603 1.603s1.902 7.808 3.002 10.01c1.103 2.201 4.105 5.004 2.502 4.904M208.632 628.15c-1.36 1.2-4.004.3-6.406-1.801s-3.204-3.704-3.204-3.704.501-.5 1.902 0c1.402.501 3.404.701 4.605.701s4.805 3.303 3.103 4.804M238.662 657.58c-1.7.142-2.502-.6-1.702-2.202s1.402-2.503 2.703-.801 1.401 2.803-1 3.004M236.36 651.374c-2.096.262-1.802-.3-1.402-1.401s.8-1.502 1.902-.701c1.101.8.3 2.001-.5 2.102M233.957 645.968c-1.401 0-.9-.9-.7-1.801s.9-1.502 1.3-.1c.401 1.4.401 1.901-.6 1.901M231.855 640.663c-1.113.464-1.475-1.625-.9-1.802 1.3-.4 2.101 1.302.9 1.802M229.353 636.96c-1.355.369-1.903-.901-1.202-1.302 1.047-.598 2.303 1.001 1.202 1.301M225.649 632.855c-.92-.07-1.501-.4-.7-1.1.8-.702 3.302 1.3.7 1.1M281.004 628.751c-2.035-.163-5.205-.5-6.006-4.705 0 0 1.502-1 4.504.901a249 249 0 0 0 4.505 2.803s2.002 1.402-3.003 1.001M264.188 659.282c-1.548.14-2.103-1.602-3.404-4.205-1.302-2.602-1.201-4.004.2-4.304s2.102-.6 3.003 2.303c.9 2.902 1.301 6.105.2 6.206M304.026 634.356c-1.199.055-1-1.5-.4-1.6.602-.1 2.603 1.5.4 1.6M307.73 638.56c-1.303-.059-1.7-1.5-.9-1.6s3.104 1.701.9 1.6M311.336 642.765c-1.216-.097-1.604-1.401-1.002-1.902.6-.5 3.503 2.102 1.002 1.902M314.037 647.67c-.59-.318-1.601-.8-1.401-1.502.2-.7.9-1.1 1.702-.5.8.6 1 2.703-.3 2.002M312.836 651.574c-.606-.067-1.8-1.201-1.8-1.802 0-.6.343-.983 1.3-.6 1.5.6 1.401 2.502.5 2.402M306.53 659.481c-.96-.28-1.601-1.7-1.301-2.201.3-.5 1.2-1.102 2.4 0 1.203 1.1.602 2.702-1.1 2.201M309.132 654.978c-1.443-.32-1.802-1.502-1-2.003.8-.5 1-.3 2.102.601s.7 1.802-1.102 1.402M330.053 656.178c-1.297 1.222-2.202.402-2.502-.6-.3-1.001-2.603-1.601-2.003-2.603.6-1 1.303-1.201 2.704-.8 1.401.4 3.503 2.402 1.8 4.003M269.592 658.681c-1.594-.265-1.801-1-1.801-4.104s.4-4.004 1.602-4.104c1.2-.1 1.701 0 2.102 3.103s-.7 5.306-1.903 5.105M275.7 660.082c-.948-.072-2.003-.7-1.002-3.904s1.902-4.404 2.503-4.204c.6.2 1.4 1.502.9 4.104s-1.101 4.105-2.402 4.004M281.705 661.685c-1.591-.29-1.402-2.103-.6-4.205.8-2.102 1.801-3.704 2.502-3.704s1.401.6 1.401 3.004c0 2.401-1.1 5.304-3.303 4.905M287.21 663.886c-1.564-.406-1-1.802.1-3.503 1.102-1.702 1.402-4.104 2.002-4.205.601-.1 1.802-.1 1.501 2.503-.3 2.603-.9 5.906-3.603 5.205M335.759 653.776c-2.004.063-2.703-.6-2.103-1.601.6-1.002 1.803-.801 2.704-.701.9.1 2.602 2.202-.601 2.302M342.064 652.575c-1.4.2-2.202-.5-1.1-1.001 1.1-.5 1.601-1 2.002-.3s.5 1.101-.902 1.301M346.67 650.773c-1.197.171-2.001-.3-1-1.101s1.4-.7 1.8-.1.6 1.001-.8 1.201M350.975 647.57c-1.257.739-2.403-.1-1.702-.801.7-.7 1.5-2.002 2.2-1.501.702.5 1.203 1.3-.498 2.301M353.777 642.465c-1.043.408-1.5-.3-1.703-.901-.199-.6 0-1.702 1.303-1.3 1.3.4 2.702 1.3.4 2.2M353.777 636.66c-.73.566-1.602 0-1.602-1.302 0-1.301.101-2.703 1.303-2.003 1.2.702 2.101 1.903.3 3.304" style="fill:#ee2523;fill-opacity:1;fill-rule:nonzero;stroke:none" transform="matrix(1.33333 0 0 -1.33333 -.667 1121.186)"></path><path d="M314.037 618.674h5.056l-.239.28c-.483.527-1.197 1.358-1.514 1.989-.501 1-.2 2.603-1.4 3.805-1.202 1.2-2.903 1.9-4.604 2.101-1.704.2-2.204 1.602-.401 3.904 1.801 2.302 5.904 6.206 9.209 9.61 3.302 3.403 5.705 3.003 5.705 3.003s-1.101 2.302-3.403 5.706c-2.302 3.403-3.803 6.506-5.007 9.109-1.199 2.603-2.5 2.702-3.802 2.603-1.301-.101-3.503.1-3.503.1s.7-.902 3.903-4.706c3.204-3.803 4.304-5.605 4.304-7.907 0-2.303-1.502-5.005-3.903-8.309-2.402-3.303-8.609-10.01-10.01-11.01-1.402-1.002-3.104-2.703-3.104-.501s-.701 2.102-2.002 1.601-2.602-.7-5.405 0-7.607 3.704-9.209 2.403c0 0 .7-.7 2.903-1.802 2.201-1.101 2.902-2.302 2.201-3.103-.7-.801-2.802-1.402-4.403-2.102-1.416-.62-3.927-2.881-4.56-6.094l-.095-.68h4.504s-.25 1.72.15 2.47c.613 1.147 1.001 2.102 2.403 1.802 1.401-.301 2.126-.915 1.401-2.203-.45-.8-.6-2.07-.6-2.07h9.76l-.028.323c-.14.667-.207 1.544.177 2.148.702 1.1 2.002.8 2.704 0 .346-.396.592-1.232.757-1.977l.093-.493h8.61s-.301 1.569.25 2.37c.55.8 1.3 1.1 2.2.7.902-.4 1.053-2.286.902-3.07" style="fill:#ee2523;fill-opacity:1;fill-rule:nonzero;stroke:none" transform="matrix(1.33333 0 0 -1.33333 -.667 1121.186)"></path><path d="M299.79 150.201c51.994 2.92 103.018 24.573 123.506 34.262 5.725 2.706 11.371 5.639 16.814 8.651l-.035 2.337v50.518c0 12.212 4.131 16.664 13.014 20.02 9.008 3.403 21.821-2.002 29.028-8.61 7.208-6.606 7.208-8.808 7.073-20.688v-97.699c-45.377-36.835-124.123-62.994-200.872-63.262-76.75.268-155.495 26.427-200.874 63.262v97.7c-.133 11.88-.133 14.081 7.074 20.688s20.02 12.012 29.03 8.608c8.88-3.355 13.012-7.807 13.012-20.02v-50.517l-.036-2.337c5.445-3.012 11.09-5.945 16.814-8.651 20.532-9.708 71.723-31.432 123.83-34.28l.886-.058c-81.994 32.014-142.895 123.526-163.916 165.313-21.036 41.813-31.765 88.622-31.232 154.288.363 44.579 2.67 148.948 2.67 148.948H491.06s2.306-104.37 2.668-148.948c.536-65.666-10.195-112.475-31.23-154.288-21.02-41.784-81.917-133.29-163.906-165.308z" style="fill:#a80d38;fill-opacity:1;fill-rule:nonzero;stroke:none" transform="matrix(1.33333 0 0 -1.33333 -.667 1121.186)"></path><path d="M288.318 161.294c-34.307 12.084-68.311 36.672-101.143 73.219-35.091 39.063-55.194 76.637-60.518 87.221-20.523 40.796-29.756 85.155-29.756 143.313 0 1.513.137 16.389.233 23.369h382.368c.096-6.98.232-21.856.232-23.369 0-58.158-9.232-102.517-29.756-143.313-5.325-10.584-25.427-48.158-60.519-87.221-32.83-36.547-66.835-61.135-101.141-73.22" style="fill:#9ed6f4;fill-opacity:1;fill-rule:nonzero;stroke:none" transform="matrix(1.33333 0 0 -1.33333 -.667 1121.186)"></path><path d="M288.288 84.54c36.263.125 74.144 6.177 109.547 17.5 32.743 10.47 63.46 26.132 84.882 42.71v56.975c-.067 8.142-2.603 6.005-5.296 4.119-12.881-9.015-31.16-20.268-50.36-29.345-32.105-15.18-87.086-35.436-138.743-35.436S181.679 161.318 149.573 176.5c-19.198 9.077-37.477 20.33-50.358 29.345-2.695 1.886-5.231 4.023-5.298-4.12V144.75c21.423-16.578 52.14-32.24 84.883-42.71 35.404-11.323 73.284-17.375 109.548-17.5zM99.99 227.751c2.41-1.498 3.604-.936 4.005 3.603s3.736 8.675 8.275 11.078c4.536 2.402 9.876 3.47 12.678 6.539 2.803 3.07 2.003 7.474-2.135 9.343-4.138 1.87-10.01 1.203-15.215-.934-5.205-2.135-10.01-7.207-10.967-10.969-.401-1.577-.43-4.942-.38-9.621.002-3.033-.13-6.637 3.74-9.039" style="fill:#9ed6f4;fill-opacity:1;fill-rule:nonzero;stroke:none" transform="matrix(1.33333 0 0 -1.33333 -.667 1121.186)"></path><path d="M115.74 214.403c-4.005 5.473-4.539 10.812-2.136 14.816s6.807 6.674 9.742 6.674c2.937 0 3.337-.936 3.337-5.206v-18.018c0-4.138-1.467-6.406-3.069-5.606-1.602.801-4.115 2.202-7.875 7.34M476.646 227.751c-2.413-1.498-3.605-.936-4.005 3.603s-3.738 8.675-8.274 11.078c-4.538 2.402-9.877 3.47-12.681 6.539-2.802 3.07-2.001 7.474 2.136 9.343 4.138 1.87 10.01 1.203 15.216-.934 5.204-2.135 10.009-7.207 10.966-10.969.402-1.577.43-4.942.378-9.621 0-3.033.135-6.637-3.736-9.039M460.896 214.403c4.003 5.473 4.538 10.812 2.135 14.816-2.402 4.004-6.807 6.674-9.743 6.674s-3.336-.936-3.336-5.206v-18.018c0-4.138 1.469-6.406 3.069-5.606 1.602.801 4.115 2.202 7.875 7.34" style="fill:#9ed6f4;fill-opacity:1;fill-rule:nonzero;stroke:none" transform="matrix(1.33333 0 0 -1.33333 -.667 1121.186)"></path><path d="M279.403 109.969v9.354l-11.412.435v7.715l13.814-.612v9.985l-22.422 1V92.735l22.422-1.577v10.392l-13.814.777v8.05zM235.475 104.726l-1.648-8.59-7.222 1.044 9.578 43.575 9.486-1.4 9.164-46.253-9.015 1.302-1.533 9.411zm7.296 8.472-2.107 12.943h-1l-2.403-12.52zM223.747 115.368c.732-2.951 1.702-9.991-1.702-13.827-2.461-2.774-6.62-1.984-9.71-1.312-5.105 1.11-12.412 2.826-12.412 2.826v44.816s8.108-1.816 13.614-3.03c6.143-1.35 9.31-4.137 9.91-11.809.712-9.101-4.605-11-4.605-11s3.804-2.222 4.905-6.664m-8.108-1.917c0 3.13-1.902 5.35-8.108 6.257v-8.88c6.206-2.323 8.108-.505 8.108 2.623m-.2 18.775c0 2.826-2.703 3.634-7.908 4.542v-7.873c7.407-2.422 7.908.503 7.908 3.33M171.795 155.705c3.638-1.884 9.21-8.208 10.11-19.151.933-11.323.107-19.24-5.205-22.9-4.705-3.243-8.609-.912-19.62 3.445v44.685c7.208-2.635 10.41-3.85 14.715-6.079m-.1-32.223c1.802 2.23 1.802 5.878 1.802 12.97 0 7.094-3.003 11.147-7.808 12.668v-25.434s4.204-2.433 6.006-.204M138.161 141.731v-16.383l-8.308 3.944v45.205s5.706-2.73 11.511-5.764c5.806-3.035 10.411-6.574 11.512-16.08 1.077-9.296-2.165-13.061-3.704-13.551-3.804-1.214-7.006.708-11.01 2.63m7.006 11.73c-.2 3.338-2.402 4.652-7.007 7.18v-9.608c6.307-4.145 7.195-.701 7.007 2.429M117.941 163.509l7.207-3.665s-.097 7.3-2.302 13.373c-2.302 6.34-5.876 8.89-9.81 11.095-3.002 1.684-7.307-.098-9.21-6.141-1.9-6.044-2.153-17.057 1.002-26.55 2.502-7.53 4.605-10.203 9.61-13.374 3.703-2.345 6.306-1.486 8.208.693 2.422 2.776 2.502 9.908 2.502 9.908l-7.006 4.457s.057-4.347-1.602-5.349c-1.802-1.09-5.013 2.232-5.906 8.123-.6 3.963-.4 12.283.5 15.256.901 2.972 2.603 3.468 4.105 1.882 1.501-1.585 2.602-3.764 2.702-9.708M356.88 121.382c0-10.087-3.402-19.001-7.809-22.427-4.402-3.43-10.305-5.01-15.814.686-5.306 5.484-5.706 20.272-2.804 29.283 3.133 9.718 9.614 11.915 13.214 12.339 9.11 1.079 13.213-9.793 13.213-19.881m-13.714 10.382c-2.503 0-5.104-3.33-5.204-9.01s-.633-11.675.8-14.623c1.702-3.504 4.504-3.003 6.106-1.341 1.617 1.677 2.302 4.897 2.302 12.145s.111 12.829-4.004 12.829M324.547 109.442l-7.907.2s-.301-4.852-1.902-6.337c-1.602-1.486-4.104-2.278-5.707.692-1.6 2.97-1.3 9.208-1.1 14.357s1.401 9.307 4.004 9.504c2.602.199 4.305-2.177 4.504-7.524l8.208.594s0 4.456-1.5 8.812-4.705 7.92-10.41 7.92c-5.707 0-9.81-3.366-12.514-10.792-2.702-7.425-2.502-21.286 1.101-27.821 3.605-6.535 7.108-7.028 10.911-6.831 3.804.198 11.912 3.465 12.312 17.226M382.605 104.686v10.652l-11.81-2.902v34.134l-8.81-1.902V99.622zM382.906 149.672l7.707-42.642 7.308 2.003 4.004 25.425.8.1 3.204-22.622 7.408 2.4 7.407 47.95-6.707-2.505-3.403-25.724-.802-.302-4.224 23.076-6.385-2.254-3.804-24.925-.895-.223-3.71 22.446zM457.88 162.593V135.76l-6.306-3.706V177.2l7.71 4.403 8.056-17.369v22.475l6.757 4.403V146.47l-6.706-4.605zM440.364 146.37v-20.121l-8.31-4.005v20.121l-8.908 21.122 9.11 3.803 4.504-12.413 4.825 17.275 7.186 3.546z" style="fill:#a80d38;fill-opacity:1;fill-rule:nonzero;stroke:none" transform="matrix(1.33333 0 0 -1.33333 -.667 1121.186)"></path><path d="M285.108 468.524c-1.795-1.556-3.604-1.2-6.406.534-2.803 1.735-5.072 3.47-7.474 4.671s-5.873.535-7.742-.4c-1.868-.934-2.748-2.977-3.87-4.404-1.468-1.868-2.936-1.735-4.938-2.135-2.002-.401-2.536-.668-3.87 0-1.335.667-4.004.934-7.074-1.069-3.07-2.001-3.604-3.203-3.871-4.537s-.935-1.468-3.47-1.202c-2.536.268-3.603-.667-5.472-2.269-1.869-1.6-1.469-3.203-2.136-4.404-.667-1.2-3.07-2.936-4.804-4.67-1.736-1.736-3.07-2.27-4.004-1.07-.935 1.202-3.203 3.204-4.671 4.005-1.47.801-4.138.134-6.674-2.135-2.536-2.27-2.937-3.47-3.07-5.606-.134-2.136.401-3.604 1.869-5.205 1.468-1.602 1.868-2.402.934-3.203s-1.868-1.068-3.337.133c-1.467 1.201-2.935 1.735-6.139-.8-3.203-2.536-4.938-4.539-4.805-6.54.134-2.003.935-2.804 2.002-4.005 1.068-1.2.934-2.402.934-3.87 0-1.469.534-3.203 1.068-4.004.535-.802 1.068-1.87-.534-2.937-1.6-1.067-3.203-3.602-3.203-5.338 0-1.735.533-3.203 1.602-4.539 1.067-1.334 1.627-2.977.4-3.47-1.335-.534-1.335-1.868-1.2-4.27.132-2.402.933-3.737-.802-5.473-1.735-1.734-2.002-1.067-4.67-.934-2.67.135-4.673-1.2-6.14-3.47-1.469-2.268-1.334-6.138-.668-7.472.668-1.336 3.204-3.606 3.337-5.475s.534-4.002 2.67-5.737c2.134-1.737 3.07-2.671 2.001-4.273-1.068-1.6-2.67-.4-4.671 1.07-2.003 1.466-5.205 2.4-8.676.8-3.47-1.602-4.004-4.805-4.004-7.208 0-2.401 1.068-5.071 2.536-5.872 1.468-.8 3.204-.935 2.403-2.67s-1.201-5.338.8-6.138c2.002-.802 2.67-2.136 3.07-4.406.4-2.268 1.869-3.203 2.136-4.804s-.668-3.471-2.537-4.805c-1.867-1.334-4.404-4.272-4.67-6.808-.268-2.533.399-4.802 3.07-6.137 2.668-1.335 3.746-1.739 4.938-.935 1.334.9 2.835.4.934-1.803-1.902-2.202-2.903-3.503-2.303-5.704.6-2.203 1.702-3.303 1.402-5.707-.301-2.402-.902-4.704.7-7.007 1.602-2.301 3.304-2.503 6.206-2.301 2.904.199 4.405 1.601 5.705 2.301 1.302.702 2.504 1.002 2.804 0 .3-1-1.001-2.503-1.401-3.302-.401-.802-.5-2.203.5-3.203s1.401-2.904.4-4.206c-1-1.3-2.001-3.803-.6-6.306 1.4-2.502 3.303-3.503 5.505-3.804s5.305-.3 6.507 1.503c1.201 1.8 1.601 2.702 3.102 2.702 1.502 0 3.604-.502 5.306 1.903 1.702 2.402 2.502 3.001 3.404 2.501.9-.5.3-1.8 1.1-3.403.802-1.601 2.203-3.204 4.705-4.505s3.804-1.7 5.306-3.402 3.604-2.003 6.006-1.602c2.402.4 4.805 1.301 5.405 3.904s0 6.305 1.502 8.508c1.501 2.203 3.603 2.702 6.206 2.801 2.602.102 4.405-.1 6.907-1.5s3.604-2.902 3.604-2.902.2-6.707-.1-10.31c-.3-3.605-1.902-13.314-4.105-18.82-2.202-5.505-4.504-9.61-6.206-11.812s-2.102-2.902.2-6.206c2.302-3.303 5.906-5.005 9.51-6.306s4.905-1.402 6.407.8c1.5 2.203 3.302 5.306 3.903 6.307.601 1 1 .5 1.802-.201.8-.7.8-2.502-.4-5.605-1.202-3.103-.2-4.705 1.2-5.606 1.402-.9 4.405-1.7 9.01-1.5s6.406.5 7.407 2.901c1 2.403 1.101 4.606 2.903 5.807s3.802 1.701 5.805 0 1.903-2.903 6.307-2.603 7.007.5 10.11 4.304 3.003 5.407 3.003 7.808c0 2.403-.8 4.805-3.604 10.11-2.803 5.305-5.696 12.341-7.006 17.117-1.702 6.207-2.202 14.615-2.202 14.615s.9.702 2.903-1.2c2.002-1.903 2.302-3.205 3.903-3.406 1.601-.199 1.501.501 2.703.903 1.2.399 2.603-.203 3.604-.702 1.001-.5 2.002-1.7 4.504-.6 2.503 1.1 3.203 2.303 4.205 2.203 1.001-.102 2.901-1.303 4.402-2.303 1.504-1 2.004-3.003 3.105-3.404s2.401-.2 3.703-.1c1.3.1 2.503-.6 3.505-1.801 1-1.2.9-2.403 5.305-2.403 4.403 0 4.804 1.402 6.005 2.702 1.2 1.302 1.702 4.306 1.001 5.607-.7 1.303-1.7 3.503-.5 4.705 1.2 1.2 2.501 1.5 4.205 2.202 1.7.7 2.602 2.602 2.902 4.004.3 1.4.5 2.502 1.701 2.502s3.704-1.6 5.906-1.3 5.405 1.2 6.908 3.201c1.5 2.003 2.903 4.205 2.002 6.007-.902 1.8-2.302 4.104-1.802 6.107.5 2.002 1 3.603 3.503 3.502 2.503-.1 4.604.4 5.806 1.402 1.202 1 3.603 1.302 5.105 1.302 1.5 0 3.503-.202 4.805 2.302 1.301 2.502.9 4.803-.1 6.405s-1.401 3.204-1.401 4.806c0 1.6-1.101 2.903-1.904 3.803-.8.9-.8 3.403 1.703 5.105 2.502 1.702 4.203 2.903 5.305 5.006 1.102 2.1.6 2.802-.1 3.703s-.301 3.403.801 5.207c1.1 1.8 1.602 7.205-.101 9.508-1.702 2.302-4.203 3.303-6.205 3.103s-2.703-1.001-3.605-1.402c-.9-.4-2.1.101-2.601 1.902-.5 1.803-1.202 2.703-1.902 3.404-.701.701-.6 1.902.2 3.703.801 1.802.7 4.606-1.202 6.908-1.901 2.301-2.503 3.903-1.302 5.205 1.203 1.301 3.205 2.402 3.205 6.206s-1.001 5.005-3.504 7.107c-2.502 2.102-4.304 2.603-4.704 3.303-.4.701-.902 2.203-.801 3.803.1 1.602-.801 2.404-1.501 3.404-.702 1 .4 1.702 1 2.504.601.8 1.101 1.801-.1 3.402-1.202 1.603-1.202 3.703-2.702 4.504-1.502.802-3.805 1.002-5.006 1.202-1.2.2-3.504.5-2.203 2.302s1.302 3.604.803 4.805c-.503 1.201-.702 2.804-.503 3.704.202.9.302 2.502-.9 3.403-1.2.901-2.002 2.103-.101 3.404 1.904 1.302 2.705 4.604 2.003 6.507-.7 1.9-3.203 4.404-5.505 4.704s-4.005 0-5.806-.2-2.002.7-3.603 1.2c-1.602.501-2.702.501-3.705 1.903-1.001 1.401-3.002 3.704-4.104 4.604-1.1.9-1.5 2.603-1.4 4.705s-.701 4.705-3.704 6.407-5.606.7-7.308-1.002-2.303-2.902-3.104-2.502c-.8.4-1.9 2.203-3.402 2.903s-1.201 1.502-.901 3.804-.903 4.904-3.104 6.707c-2.2 1.8-5.404 1.5-8.008.6-2.602-.901-4.905-3.504-5.905-3.603-1.002-.101-3.304-.4-4.104-1.001s-1.501-1.001-2.502-.901-1.102 1.1-1.102 2.802c0 1.703-.6 4.004-3.203 5.506-2.603 1.5-5.606 1.402-8.309-.1s-4.203-4.939-6.206-6.674" style="fill:#231f20;fill-opacity:1;fill-rule:nonzero;stroke:none" transform="matrix(1.33333 0 0 -1.33333 -.667 1121.186)"></path><path d="M312.87 531.52s-.201-1.534 1.534-1.8c1.735-.268 3.804-.134 6.006.8s5.005 1.268 5.473 1.801c.466.534 2.068 3.871 3.47 5.139 1.4 1.269 3.336 1.401 4.938.267 1.603-1.134 2.401-1.134 10.01-1.202 7.607-.066 11.345-.333 15.749-1.267s8.142-1.135 11.21-1.469c3.07-.333 7.008-.867 11.345-1.2 4.338-.334 6.072-1.469 6.74-2.47.668-1 .268-3.069-2.67-3.003-2.935.068-6.071.4-6.071.4s.267-1.4-1.001-2.268-1.736-1.134-1.736-1.134 1.335-1.402 1.802-2.202c.468-.801-.2-2.003-1.2-2.804-1.002-.8-2.069-.533-3.404.2-1.336.734-2.536 1.935-3.603 1.268 0 0 1.267-.8 2.135-1.534s.267-2.87-1.269-3.204c-1.533-.334-2.602-.534-4.538.8-1.935 1.335-3.735 2.07-4.136.402 0 0 2.002-.333 2.736-1.134.734-.802 1.468-3.07-.934-3.204s-4.071-.734-5.94.934-3.47 2.202-4.337.935c0 0 1.801-.602 2.602-1.135.8-.534 1.001-2.002-.601-2.603-1.6-.6-2.905-1.202-4.27-.133-3.071 2.403-4.005 1.868-4.005 1.868.866-2.603-.734-3.069-3.87-2.669-3.11.397-3.737.801-8.61 3.27-4.87 2.468-6.94 4.071-6.94 4.071-3.67-2.136-7.673-3.203-9.409-3.337-1.735-.133-3.402-.267-5.271-1.068-1.868-.8-4.139-1.935-6.14-1.868-2.003.066-4.27-.4-8.476-1.468-4.203-1.068-5.939-2.603-13.012-3.404s-21.755-.8-32.633.934c-10.877 1.735-16.215 4.538-16.215 4.538-9.276.2-17.485 1.402-21.756 2.537-4.271 1.134-6.34 1.268-7.741.6-1.401-.667-3.537-1.068-4.872-.534-1.334.533-1.134 1.601-1.134 1.601s1.001.936 3.736 1.535c2.737.601 5.54.534 5.54.534.467 1.735-3.27 1.469-6.34.534s-6.806-3.002-11.278-5.138c-4.47-2.136-8.609-1.869-8.609-1.869-.734 1.668-.934 2.737 2.403 5.34s7.474 3.47 10.477 4.737c3.003 1.268 6.073 4.605 8.076 7.808 2.001 3.203 3.803 4.938 8.007 6.673s11.345 2.536 16.416 2.136c5.073-.401 7.274-.201 7.274-.201s.334.6-.733 1.468c-1.069.868-5.873 2.803-11.813 6.207-5.939 3.403-11.01 7.607-15.816 11.611-3.579 2.983-6.072 4.404-8.608 7.208-2.027 2.24-2.869 1.801-2.869 1.801.334-1.067 1.134-1.735 3.336-3.87 2.203-2.136 1.468-2.603.934-3.203-.533-.601-2.135-.334-5.539 2.002s-4.404 4.404-6.006 6.874c-1.6 2.469-2.535 2.067-2.535 2.067.134-1.668 2.07-3.603 3.604-5.605s1.868-2.736 1.134-3.27-1.868-.667-3.136-.467-2.336 1.669-3.737 3.804-2.537 1.802-2.537 1.802c.334-1.201.8-2.67-.066-3.336-.868-.668-1.268-.601-2.936.933-1.669 1.535-3.538 3.537-4.938 4.272-1.402.734-1.802.133-1.802.133 3.07-2.603 4.07-4.07 4.003-4.672-.066-.6-1.2-1.468-3.57-.333-1.66.795-3.303 2.602-5.605 4.705-2.303 2.102-2.803 1.1-2.803 1.1 1-.9 1.2-2.102.9-2.802s-1-1.001-2.902.2-4.905 3.303-6.607 4.704c-1.701 1.402-.7 2.77 3.503 1.769 4.205-1 9.844-1.769 14.348-2.27 4.505-.5 5.273 1.202 5.273 1.202-5.607 0-10.667.762-18.119 1.902-8.509 1.301-18.418 3.805-25.726 5.005-7.307 1.201-9.709 1.601-10.81 3.003q-1.652 2.102 0 3.604c1.101 1 3.103.2 6.106-.801 3.003-1 14.414-3.303 28.028-5.405s21.722-1.702 31.131-1.202c9.409.501 18.919.601 24.725-.2s9.646-2.337 16.516-6.206c10.31-5.806 16.016-9.11 26.227-12.212 10.209-3.103 11.911-3.504 12.812-3.704s1.337-2.39-.4-3.903c-2.336-2.036-4.27-3.704-10.31-7.208-3.449-2-6.807-2.803-9.91-3.504-3.104-.7-3.705-2.102-3.705-2.102s2.504.3 8.51 2.236c6.005 1.936 11.41 5.406 16.683 9.877 5.272 4.47 15.191 11.809 23.89 18.952 8.208 6.74 10.676 9.476 17.618 10.81 6.94 1.335 10.276 2.737 16.483 3.404s14.016-.334 28.696-1.6c14.68-1.27 27.762-2.07 38.638-1.803 10.878.267 12.745 2.268 19.219 1.868 6.472-.4 8.475.735 16.15 2.536s10.277 2.937 12.814 3.737c2.534.8 3.936.734 4.47-.667.532-1.402.6-4.472-5.606-4.605 0 0 .934-3.203-3.003-4.538-3.937-1.334-9.21-1.067-9.21-1.067s.535-.4 1.336-.868c.8-.466 1.868-2.602-3.604-2.536-5.472.067-7.74 1.669-7.74 1.669s-.535-1.135 1.066-1.735c1.602-.6 1.536-1.468 1.468-2.27-.066-.8-.2-1.267-5.539-1.134-5.338.134-9.009 1.268-9.009 1.268s-.399-.801.936-1.334c1.334-.534 1.867-2.27.4-3.203-1.47-.935-4.338-.801-9.01-.201a88 88 0 0 0-8.742 1.601s-.466-.667 1.735-1.468c2.203-.8 3.136-1.6 2.536-2.936s-2.536-1.868-7.475-1.601c-4.937.266-7.874.6-10.476.934-2.603.333-3.002-1.001-3.002-1.001s1.467 0 3.87-.734c2.401-.735 2.401-2.27 1-3.137s-3.736-.934-7.007-.333c-3.269.6-5.806 1.4-5.806 1.4s-1.068-.8-.733-2.134c.333-1.335-1.001-2.27-2.937-2.136-1.934.134-5.404.868-7.608 2.068 0 0-.267-1.534.267-2.335.535-.8-.131-1.468-2.47-1.268-2.335.2-3.361.481-5.27 1.468-1.936 1.001-2.536 1.401-2.536 1.401s-.734-.733 1.001-1.868c1.736-1.134 1.402-2.268.133-3.07-1.268-.8-3.618-.203-6.674.267-5.205.8-7.34 2.203-7.34 2.203s-.935-.934.067-1.602c1-.667 2.203-.934 5.205-1.334 3.004-.4 4.138-1.202 3.737-2.27s-1.201-2.069-5.938-2.001c-4.74.066-9.743.867-11.813 1.934 0 0-.934-.934.201-1.4 1.133-.468 3.334-.534 5.671-1.135 2.335-.601 2.136-1.668 1.335-2.47-.8-.8-3.202-.667-6.072-.4s-5.34.534-6.741 1.736c0 0-.734-.802.802-1.67 1.533-.867 3.87-.933 7.54-1.2s3.67-1.068 3.336-1.935c-.333-.868-2.4-1.335-6.206-1.268-3.803.066-7.874-.134-10.41 1.601 0 0-.534-1.335 1.6-1.935 2.138-.6 4.406-1 6.141-1s2.336-1.402 1.268-2.604c-1.068-1.2-2.87-1.068-6.206-.934s-6.205 1.201-6.205 1.201-.535-1.068.933-1.402 4.939-1.267 4.939-2.335-.268-1.468-2.47-1.535-3.537.4-3.537.4" style="fill:#fff;fill-opacity:1;fill-rule:nonzero;stroke:none" transform="matrix(1.33333 0 0 -1.33333 -.667 1121.186)"></path><path d="M208.432 566.489s1.335.334 2.67-.467c1.334-.8 2.669-1.869 2.669-1.869s-.468-.801-2.07.067c-1.6.868-3.27 2.269-3.27 2.269M216.106 561.284s.6.667 3.404-1.068 5.405-3.337 10.143-5.405c4.738-2.07 5.539-2.07 5.539-2.07s-.133-1.534-3.67-.2-12.479 6.14-15.416 8.743M240.998 548.604c-.732.38-1.468-.267-.467-.733 1-.468 2.135-.134.467.733M244.067 547.136s1.068.6 2.47-.334c1.401-.934 2.268-2.269 2.268-2.269s-.133-.8-2.001.334c-1.87 1.134-2.737 2.27-2.737 2.27M208.632 523.846c-.844.76-1.669-.133-1.268-.667s1.668-.934 2.335-.934c.668 0 .268.4-1.067 1.6M213.77 526.983s.667 1.535 2.402 2.536c1.736 1 3.138 1.335 4.672 0 0 0 2.136-.334 3.804.133 1.668.468 2.802 1.268 4.738 1.334 1.935.068 2.536-1.2 2.536-1.2s-1.735.133-3.604-.134-3.403-1.335-5.339-1.668c-1.935-.334-2.936-1.734-5.405-1.869-2.469-.134-3.003-.067-3.803.868M359.116 567.757c-2.049.216-2.136-.068-1.136-.934 1.001-.868 2.804-1.402 3.671-.801.868.6 0 1.468-2.535 1.735M335.56 577.567s.131.934-3.137.934c-3.27 0-6.875-.6-9.345-1.669-2.469-1.067-4.403-2.535-3.27-2.469 1.136.067 2.604.868 5.407 1.736a24.3 24.3 0 0 0 7.14 1.067c1.802 0 3.205.4 3.205.4M354.178 565.354s-.468 1.334-1.87.868c-1.4-.467-2.536-1.068-4.87.134-2.336 1.2-3.138 1.734-4.406 1.067s-.667-1.735-1.469-2.736c-.798-1-1.267-1.602-2.869-1.602 0 0-.533-.934.868-1 1.402-.067 3.07.8 3.671 2.202.6 1.401 1.535 1.735 2.802 1.268 1.269-.467 2.27-1.135 3.872-1.268 1.6-.134 4.27 1.067 4.27 1.067M336.425 559.349s.068 1.601-1.867 1.601-3.738-.133-5.073.134c-1.333.266-2.87.466-2.87.466s.202-1.134 2.537-1.868 7.273-.333 7.273-.333M315.405 572.028s-.934.467-2.736-1.268-4.738-4.072-7.541-5.739c-2.803-1.668-3.67-3.47-5.871-6.207-2.203-2.735-3.738-4.805-7.142-7.34-3.403-2.536-4.471-3.471-4.471-3.471s1.134-1.133 4.205-2.268c3.069-1.134 6.139-1.202 9.075-.934 2.936.266 3.337 1.4 3.337 1.4s-.734.202-1.87-.065c-1.132-.268-3.535-.601-6.406-.067-2.869.534-3.536 1.934-2.468 3.202 1.067 1.269 1.534.668 2.269.268.734-.4 3.47-.601 4.671-.4s2.536 1.534 3.47 2.802 1.534 2.136-.534 3.604-3.204 1.468-3.204 2.335c0 .868 1.335 2.07 3.204 4.205s3.069 2.401 7.007 5.338c3.938 2.936 5.005 4.605 5.005 4.605M335.492 527.784s-.468-1.402 1.802-1.602 3.805 1.269 5.139 2.536 2.337 1.001 5.206 1.001c2.868 0 10.676-.267 13.812-.267 3.137 0 6.606-.2 8.075-.133 1.468.066 2.001.867 2.001.867s-3.002.6-10.01.734c-7.006.134-11.41.2-14.48.2s-3.738-.066-5.938-1.735c-2.203-1.668-3.472-2.07-5.607-1.601M348.839 522.111s1.135.467 2.335.067c1.202-.4 2.67-1.067 4.072-.534 1.4.534 3.202 1.068 3.47-.667 0 0-1.469.066-2.604-.601-1.133-.667-2.869-.935-4.004-.2-1.133.734-2 1.736-3.27 1.935M344.769 519.575s.065-.934 2.535-1.935c2.468-1.001 3.67-.933 5.138-.6 0 0-.6.733-2.869 1.134s-4.804 1.401-4.804 1.401M283.24 545.268s-.134-1.535 2.268-2.803c2.404-1.268 4.672-2.269 8.943-2.536 4.272-.267 5.671.2 5.94 1.468 0 0-5.273-.467-9.41.6-4.138 1.069-6.407 3.003-7.741 3.271M279.169 541.397s-.535-1.468 1.401-2.135c1.935-.668 3.07 0 3.07 0s-.467.334-1.535 1c-1.067.669-2.936 1.135-2.936 1.135M378.402 574.897s.8.935 2.603.601c1.8-.333 4.138-.267 13.013-.267s10.01.267 11.745.868c1.735.6 4.204 1.2 5.938 1.267 1.736.068.935 1.07 2.87 1.001 1.936-.066 2.67-.667 1.335-.8s-2.335-1.401-4.605-1.535c-2.269-.134-3.003-.4-4.939-1-1.933-.601-4.803-1.136-6.606-1.202s-3.07 0-7.74-.4c-4.673-.401-6.674.066-9.21.132-2.535.068-4.404 1.335-4.404 1.335" style="fill:#a80d38;fill-opacity:1;fill-rule:nonzero;stroke:none" transform="matrix(1.33333 0 0 -1.33333 -.667 1121.186)"></path><path d="M268.852 261.624c1.602 7.447.88 12.333 1.042 15.055.16 2.723.32 4.244-.321 6.567-.64 2.322-.4 4.243.4 5.686.801 1.441.16 3.923 1.362 5.205 1.2 1.281 1.041 4.965 1.041 6.086 0 1.12-.88 3.044-2.323 5.445-1.441 2.402-.96 4.886 0 6.006.961 1.12 1.602 1.842 1.201 4.326-.4 2.481.241 3.202 1.442 3.282s1.442-.48 2.242-3.044c.801-2.561 1.602-3.683 2.483-4.483s.881-3.844 1.521-5.846 2.563-4.405 3.364-4.565 2.002.88 1.52 2.002c-.479 1.12-.4 2.402.642 2.642 1.04.241 2.082-.24 2.643-1.76.56-1.522 1.12-3.445 2.242-4.005s2.082.401 3.523-.24c1.441-.64.721-3.684.721-7.608s-.48-5.365-.08-5.847c.4-.48.64-2.08-.08-2.16-.72-.082-1.602.4-2.483 1.68-.88 1.282-2.162 2.003-3.042.722s.08-2.164 1.12-2.484c1.042-.32 3.444-.96 5.286-2.401 1.679-1.315 2.082-1.843.961-3.525-1.121-1.68-1.121-2.08-1.922-1.92s-1.602 2.162-2.723 3.122c-1.121.961-2.242.08-2.242-1.602 0-1.68 1.12-1.6 2.562-2.001s1.121-1.762-1.04-2.963-1.202-1.923-.32-2.482c.88-.56 1.441-1.042 2.562.72s2.482 2.963 3.363 2.082c.88-.88 1.521-1.122 1.521-1.682s-1.36-2.403-3.363-4.644c-2.002-2.241-2.883-4.005-2.883-4.005s.721 0 2.883-1.04 2.403-1.522 1.602-2.643-.881-1.922-.881-1.922.721-.32 2.883-1.843c2.16-1.52 1.522-1.2.64-2.802-.88-1.601-2.001-3.924-3.363-5.205-1.361-1.28-3.924-2.962-6.807-6.646s-3.684-7.848-3.604-10.65c.08-2.804-1.12-2.323-2.241-1.843s-2.163 1.04-2.083 3.044c.08 2.002 1.04 3.122 1.04 6.166 0 3.043-.56 7.847-1.36 10.09s-2.002 2.882-3.684 1.761c-1.681-1.122-3.604-5.765-5.445-10.169s-2.883-5.447-3.844-5.846c-.96-.4-2.643.72-4.485 1.841-1.841 1.122-1.247 1.786.481 5.446 2.723 5.765 4.725 13.453 6.326 20.9m10.09 24.264c-1.749.214-5.045-.96-5.125-5.764-.08-4.807-.4-9.611-.961-12.254s-1.041-3.763.721-5.525 4.324-2.483 6.326-1.762c2.003.722 3.604 2.242 5.285 7.848s1.442 9.77-.16 12.572c-1.601 2.804-2.802 4.484-6.086 4.885" style="fill:#833f1c;fill-opacity:1;fill-rule:nonzero;stroke:none" transform="matrix(1.33333 0 0 -1.33333 -.667 1121.186)"></path><path d="M297.28 264.827c-1.4.875-2 .881-1.761-.16.24-1.042.88-1.682 2.162-1.92 1.281-.241 1.522.878-.4 2.08M299.522 269.472c-.77.77-1.84.962-1.68-.24.159-1.2.721-1.602 1.6-2.003.881-.4 1.042 1.282.08 2.243M297.12 276.2c-.81.568-2.242-.641-1.36-1.362.88-.72 1.68-1.361 2.081-1.28.401.078.08 2.08-.72 2.641M301.045 261.544c-.632.688-1.361-.32-.722-.882.642-.56 2.483-1.038.722.882M299.042 258.981c-1.12.444-1.361-.72-.479-.96.88-.24 3.923-.402.479.96M303.848 256.74c-.496.793-.962-.32-.482-1.203.482-.88 1.683-.72.482 1.203M302.405 253.216c-.48.24-1.04-.642-.32-.962s.962-1.6 1.682-1.36.561 1.04 0 1.12c-.56.082-.4.721-1.362 1.202M300.884 249.372c-1.22.75-1.841-.639-2.161-1.28-.32-.64-1.763-2.323-1.042-2.644.721-.32 1.042-1.282 1.841-1.202.801.081.482.8 1.602 1.763 1.122.96 2.242 1.842-.24 3.363M304.968 245.128c.767.708-.24 1.121-.881.24-.64-.88-1.682-2.642-1.04-4.644.64-2.003.48-5.126 1.121-5.687.64-.558 2.481-.722 3.522-.24 1.042.481 2.164.962 3.446.882 1.281-.081 1.119 1.12.159 1.44-.961.32-2.083 1.041-2.563 2.883s-.721 3.204-1.202 3.204c-.48 0-.96-1.281-1.281-2.002-.32-.722-1.281-1.28-1.92.08-.642 1.362-1.443 1.924.639 3.844" style="fill:#833f1c;fill-opacity:1;fill-rule:nonzero;stroke:none" transform="matrix(1.33333 0 0 -1.33333 -.667 1121.186)"></path><path d="M293.037 347.95c-1.651.331-3.764-.72-5.125-2.803-1.362-2.08-1.042-4.725-1.762-5.685-.72-.961-2.323-3.043-3.123-4.725s-3.204-1.04-3.845-3.682c-.64-2.643-.24-3.685.641-4.727.881-1.04.4-2.883-.88-2.802s-2.003.721-3.204 1.922c-1.2 1.2-2.482 1.12-3.203.72s-2.002-.48-3.604.48c-1.601.962-4.164 1.202-5.605-.72s-2.002-3.684-3.604-4.404c-1.6-.721-4.725-.801-5.765-1.441-1.042-.642-2.403-2.083-1.522-2.964.88-.88 1.761-2.002-.4-2.242s-4.165-1.36-4.806-3.922c-.64-2.563.48-3.285 1.362-3.765.881-.481.72-1.203-.16-2.084-.881-.878-2.002-2.64-1.362-3.762s1.122-2.001 1.122-2.723c0-.72-1.361-.962-2.003-.16-.64.8-2.082 2.081-1.681 4.404s.56 5.927-.32 7.528-1.922 1.682-2.963.64c-1.041-1.04-2.082-1.04-2.323.562-.24 1.6-1.361 3.123-3.123 4.243-1.762 1.123-3.683 1.123-3.764-.8s.32-3.684 2.162-4.966c1.843-1.28 2.163-2.481 1.042-2.802-1.121-.32-2.242-.961-2.242-2.242s1.28-1.603 3.763-2.722c2.483-1.122 2.963-2.323 2.643-3.204s-1.201-1.842-.881-3.445c.32-1.6 1.201-1.92 2.723-2s2.162-.4 2.882-2.082c.722-1.682 1.203-3.123 4.005-3.043 2.803.08 2.963.48 3.363 2.002.4 1.52-.72 2.56-.881 4.323-.16 1.763-.08 3.444-.48 4.084-.4.642.4.882 1.281 2.403s1.121 2.322 1.121 3.762c0 1.444.481 2.084 1.602 3.525s1.841 3.203 2.242 4.244c.4 1.041 1.601 1.523 2.723 2.483s2.802 2.963 4.564 4.405c1.762 1.441 3.443 2.642 5.525 2.883 2.082.239 3.845 1.12 5.766.079 1.922-1.04 3.684-2.403 3.684-3.844 0-1.442-.4-3.603.641-4.324s2.241-.8 3.203 1.28c.96 2.084 2.002 4.006 3.043 6.568 1.04 2.562 1.281 3.763.64 4.885s-.72 2.001.481 2.402c1.201.4 2.082 2.162 2.082 3.364s.64 2.643 1.041 3.364c.4.719 1.682.4 1.282-2.564-.401-2.962-2.083-6.887-3.684-11.53-1.602-4.645-1.762-5.686-.4-5.686 1.361 0 2.161-.402.32-1.602-1.842-1.201-4.164-3.204-4.325-4.005-.16-.8.321-2.241 1.762-2.402 1.442-.16 4.324.56 5.926 2.723s2.002 3.765 2.002 5.846.16 2.563 2.322 3.043 4.325 1.121 4.726 3.604c.399 2.481-.32 3.924-1.442 4.724s-2.723 1.201-.721 3.603 2.963 4.246 2.322 5.127c-.64.88-2.082.88-3.363 1.28s-1.36.802-.961 3.684-.08 5.205-2.482 5.685M310.814 340.982c-1.454.156-2.001-.56-1.28-1.28s1.12-1.201 2.001-.24c.882.96.8 1.361-.72 1.52" style="fill:#66c430;fill-opacity:1;fill-rule:nonzero;stroke:none" transform="matrix(1.33333 0 0 -1.33333 -.667 1121.186)"></path><path d="M259.323 331.134c-1.432-.18-3.124-.881-2.163-2.081.962-1.202 1.282-2.084 2.323-1.603 1.04.48 2.163 1.362 2.163 2.242s-1.042 1.602-2.323 1.442M257.641 326.328c-1.357-.096-2.803-.639-2.082-1.52.72-.881 1.601-1.203 2.402-1.203.8 0 1.282.641 1.442 1.523.16.88.48 1.361-1.762 1.2M289.513 365.408c-1.577.707-3.444.24-5.446-2.082-2.002-2.324-2.642-2.803-4.644-2.964-2.002-.16-3.844-1.12-3.844-3.682 0-2.563 1.041-4.805-1.361-4.805s-4.324-.48-4.405-3.604c-.08-3.124.16-4.405-1.12-5.205-1.282-.801-2.564-1.522-2.002-4.885.56-3.364 1.6-5.446 2.481-5.687.881-.24 1.282-.72 2.163 2.804s2.482 6.086 2.723 8.168-.64 3.604.24 4.245c.88.64 1.842.48 2.962.879 1.122.402 1.843 1.764 3.684 4.245 1.842 2.482 2.964 3.845 3.284 3.284s0-1.601-.801-2.964-.56-2.802-.881-3.363-1.922-.4-3.283-1.521c-1.362-1.122-1.843-2.803-3.604-6.167s-2.722-5.364-2.722-6.887c0-1.52.24-2.241 1.04-2.241s2.002.72 2.403 2.082c.4 1.362.72 1.601 2.242 1.841s2.242-.399 3.844 1.522 1.762 3.363 1.762 4.725.8 2.242 2.162 2.802 2.562 1.603 2.562 3.203c0 1.602.24 1.922 1.602 3.604s1.442 3.124.16 4.643c-1.28 1.523-.8 2.084.16 3.525.961 1.442.962 3.443-1.361 4.485M324.908 348.91c-.613 1.024-1.04 1.043-2.323-.879-1.28-1.922-2.722-3.844-2.803-5.125s.161-2.885.882-3.125c.72-.238 1.12.64 2.162 2.725 1.041 2.08 2.802 5.205 2.082 6.404" style="fill:#66c430;fill-opacity:1;fill-rule:nonzero;stroke:none" transform="matrix(1.33333 0 0 -1.33333 -.667 1121.186)"></path><path d="M329.473 366.929c-1.444.555-2.803.08-3.203-1.761-.4-1.842-.48-3.524-1.922-4.566-1.442-1.04-2.722-2.562-1.763-4.643.962-2.082 1.763-4.644 2.563-4.725s1.041.559 1.923 3.121c.88 2.564.8 3.766.72 5.288-.08 1.52.72 2 1.522.481.8-1.523 1.921-2.083 1.841-3.044-.079-.96-2.563-2.242-2.563-4.565s-.961-4.244-2.081-7.047-2.963-6.085-3.364-6.807 0-.641 2.324-.48c2.321.159 3.202-.161 3.842 1.6.642 1.763-.4 2.565-.4 3.446 0 .88.881.718 2.803 2.481 1.923 1.763 2.723 4.004 2.402 5.366-.32 1.36-1.762 1.68-2.082 2.322-.32.641-.08 1.202 1.201 2.483 1.283 1.281 2.243 2.322 2.403 4.003s-.32 2.401-1.602 2.722c-1.28.32-2.402.721-2.804 1.602-.399.882-.718 2.322-1.76 2.723M318.343 359.401c-2.278-.611-5.606-.88-8.09-3.122-2.48-2.242-4.404-4.086-3.763-5.126.64-1.04 1.841-1.76 2.883-2.721 1.041-.961.72-1.443.16-1.683-.561-.24-1.601 0-3.603 1.603-2.001 1.601-2.804 1.76-1.522 3.841 1.281 2.084 2.883 2.965 4.084 5.448s.8 4.724-.24 5.604c-1.042.881-2.563 1.202-1.281 2.484 1.282 1.28 2.402 3.123 2 5.445-.399 2.323-1.28 3.043-2.962 2.803-1.68-.242-2.482-1.123-3.204-.8-.72.32-1.12 2.08-1.12 3.283 0 1.2-1.04 2.562-2.562 3.443-1.522.88-2.483.559-3.604-1.682s-1.04-3.364-.16-4.244.32-1.603-.88-2.082c-1.203-.482-3.364-2.164-1.843-4.003 1.522-1.842 2.002-2.884 2.002-3.926 0-1.041-2.002-2.403-1.281-4.644s1.922-2.642 1.922-3.843-1.602-2.083-1.442-3.686c.16-1.6 1.201-2.723 1.762-3.203.561-.479 1.682-.08 2.323 1.923.641 2.002.88 4.005.72 6.406-.16 2.403-.72 3.605-1.442 4.324-.72.72.48.562 1.282 1.682.801 1.122 1.202 1.763.881 4.565s-1.121 3.444-.08 3.844 1.6-1.201 1.762-2.563c.16-1.362.8-2.322 1.121-2.882s-.64-2.723-.8-5.207c-.162-2.482-.242-7.686-1.043-10.008s-1.52-4.166-.72-4.486 1.921-1.04 2.482.561c.561 1.603 1.201 1.52 2.323.4s2.964-2.4 5.926-3.523c2.964-1.12 4.324-2.002 4.404-3.123.08-1.12-.72-2.402-2-2.642-1.283-.24-1.764-1.04-1.443-1.682s1.04-1.041 3.203.401c2.161 1.44 3.443 2.401 3.523 3.763.08 1.36-.08 1.442-1.28 2.723-1.202 1.28-.8 1.682.399 1.922 1.203.24 2.563 2.082 3.604 4.484s.962 4.085.401 5.205c-.561 1.122-.881 1.682-.641 3.283.24 1.603-.08 2-2.161 1.441M259.963 360.604c-2.012.717-2.882-.402-3.683-1.522-.801-1.122-.962-2.082.48-3.203 1.442-1.123 1.522-2.082.801-3.283-.72-1.201-.721-2.883.8-4.164 1.523-1.283 2.804-2.083 3.364-2.724.561-.64-.96-2.082-.24-3.044.72-.96 1.041-2 2.963-.478 1.922 1.52 2.643 3.202 2.562 4.163s-1.281 2.563-2.482 4.085c-1.2 1.52-2.322 1.76-2.242 2.962s.72 2.002 1.842.641c1.121-1.362 1.441-2.243 2.482-2.243 1.04 0 1.121 1.281 1.762 1.682s2.563.32 3.203.801c.64.479.72.8.72 2.082s.24 2.402 2.483 3.444c2.243 1.04 4.805 3.043 5.766 4.244.96 1.2 1.682 2.642.24 3.443-1.44.801-2.002.482-3.443-.8s-2.803-1.36-3.364-1.042c-.56.32-1.841 2.724-4.564 7.85-2.722 5.123-4.405 10.168-5.846 12.49s-1.842 2.325-4.164.882-4.084-2.962-4.084-4.006c0-1.04.16-1.52 1.601-2.56 1.442-1.042 1.602-.563 1.762.72s.48 2.08 1.202 2.16c.72.083 2.162-1.68 3.122-4.643.961-2.963 3.044-9.128 4.085-13.453s1.2-6.406 1.2-7.447-.88-1.762-2.001-.48c-1.122 1.281-4.085 2.643-6.327 3.443" style="fill:#66c430;fill-opacity:1;fill-rule:nonzero;stroke:none" transform="matrix(1.33333 0 0 -1.33333 -.667 1121.186)" data-source="https://football-logos.cc"></path><path d="M246.27 379.502c-.966 2.621-2.883 2.483-4.485 1.201-1.601-1.281-2.883-3.125-.641-4.485s3.925-2.562 3.845-3.282c-.081-.721-.961-1.44-1.362-2.402-.4-.962-.08-2.642 1.683-3.044 1.76-.4 3.843-1.122 4.483-3.364.641-2.242 1.2-4.164 1.842-4.804.64-.641 1.521-.801 2.803.64 1.28 1.442 2.082 3.202.72 5.446-1.36 2.243-2.962 3.845-4.083 5.126-1.122 1.281-1.282 1.76-.481 2.563.801.8 1.281 1.12 3.043-1.763a346 346 0 0 1 3.844-6.166c.721-1.121 1.842-1.281 2.962.96 1.122 2.242 1.602 4.486.722 5.926-.881 1.443-1.842 1.282-3.043 1.202s-2.163.32-2.483 2.161c-.32 1.843-.88 3.364-2.002 4.085-1.12.72-2.482.32-3.043-1.121s-1.362-2.563-1.842-2.321c-.48.239-1.921 1.92-2.482 3.442M232.336 369.731c-1.128.544-2.642.803-3.683-.8-1.042-1.602-.562-2.962.8-4.163 1.361-1.203 2.483-2.562 1.602-3.285-.88-.72-2.082-1.841-2.002-3.683.079-1.841.64-3.202 2.081-3.363 1.442-.16 3.684.08 3.684.08s-.32-2.961.08-4.083 2.322-1.762 3.844-2.723c1.522-.962 3.604-2.242 4.565-3.685.96-1.442 1.761-3.043.64-4.404s-2.002-4.084-.8-5.364c1.201-1.282 2.402-2.402 2.402-3.444s-.8-1.603-2.643 1.04c-1.841 2.643-3.043 3.524-4.004 3.204s-1.761-2.002-.24-3.285c1.522-1.28 3.043-1.36 3.123-3.36.08-2.003-.16-4.006.64-4.647.802-.64 2.082-.64 2.723 1.282.64 1.92 1.762 2.322 2.644 1.28.88-1.04 1.52-1.441 2.962-1.28s2.562.96 3.204 3.443c.64 2.482 1.12 3.282 2.322 5.205 1.201 1.922 1.362 3.043.801 3.203s-1.202-1.12-3.603-3.603c-2.403-2.482-3.124-2.482-3.285-1.842-.16.64 1.282 2.162 3.204 4.324s3.123 3.444 2.642 4.965c-.48 1.522-2.161 2.722-4.724 2.803s-4.485-.32-6.486 1.842c-2.003 2.163-2.162 2.723-1.522 3.443s1.041.08 2.322-1.28c1.281-1.362 2.403-1.043 2.563-.562.16.482-.24 2.161-4.645 6.007-4.404 3.844-5.286 4.565-6.407 4.565-1.12 0-2.802.32-1.681 1.36s1.682 1.76.721 2.884c-.96 1.12-1.121 1.68-.32 2.16.801.482 1.601-.317 3.603-3.121s3.123-4.645 4.244-4.885c1.122-.241 1.282.4 1.682 1.44.4 1.043 1.442 1.202 1.602-1.6s-.08-3.364 2.242-6.327 3.523-4.082 4.404-3.202 1.041 2-.08 3.522-1.441 2.482-.641 3.524c.801 1.04.562 2.164-.64 2.722-1.201.56-2.162 1.524-2.964 3.605-.8 2.082-1.44 3.922-4.164 3.922-2.722 0-4.644.48-4.483 2.643.16 2.162-1.042 3.282-2.724 3.764-1.681.481-3.443-1.282-5.605-.24M271.735 398.4c-2.025 1.55-3.123 1.28-3.363-.8-.24-2.082-.24-3.763.4-4.885.641-1.12.882-1.921-.56-2.563-1.442-.64-2.643-1.841-1.602-3.123 1.04-1.28 2.403-2.242 2.482-3.523s-.801-2.883-.24-4.484c.561-1.602 2.243-2.324 3.684-2.243s2.883.562 2.402-1.04-.48-3.204 1.282-3.765c1.761-.56 2.321-.239 3.603.881 1.282 1.122.4 2.003-1.04 4.486-1.442 2.481-3.044 5.605-4.405 7.126s-1.762 1.442-2.643 1.601-1.522 1.202-.48 1.522c1.04.32 1.44.641 1.521 2.242.08 1.602 1.602 3.044 1.842.72.24-2.32.16-2.881 2.242-6.245s3.364-4.806 4.165-6.086c.8-1.282.88-1.923.8-3.605-.08-1.68-.48-2.963.561-3.442 1.04-.482 2.081.4 4.004-.24 1.922-.641 2.882-.08 2.802.96-.08 1.042-1.68 1.683-2.882 2.243s-1.521 1.12-1.602 2.723c-.08 1.6-.4 2.242-1.121 3.043-.72.8-.8 1.28.24 2.403 1.041 1.119.962 2.24.08 2.642-.88.4-1.681-.08-2.723-.641-1.04-.562-1.36.16-2.402 1.521-1.041 1.361-.64 2.403-.32 3.763.32 1.362.4 2.964-1.121 3.525-1.522.562-2.563 1.12-3.203 1.841-.641.722-1.041 2.403-2.403 3.443M285.188 402.645c-1.35.226-2.242-.479-2.882-2.322s-1.762-4.726-1.762-5.687c0-.958.4-1.84 2.963-3.122 2.562-1.282 4.405-.48 5.445-.24s2.563.8 1.682-1.042c-.88-1.842-1.04-2.163.48-4.004 1.522-1.841 2.484-2.001 3.124-1.28s.88 2.001.56 4.804-.8 3.283-1.601 4.084-1.04 1.842-.961 3.204c.08 1.36-.4 2.564-1.682 3.283-1.281.72-2.963 1.921-5.366 2.322M285.589 387.831c-1.602 0-1.762-.401-.962-1.282.802-.88 1.442-.8 1.763-.24.32.561.08 1.522-.801 1.522M290.154 385.188c-1.054.364-1.842-.24-2.242-.641s-.16-1.041 1.521-1.041c1.682 0 3.043.88.72 1.682M251.875 401.363c-1.26.287-2.402-.96-2.482-2.561-.08-1.603.72-2.884 1.761-3.284 1.042-.4 1.522 0 2.324 1.762.8 1.762.16 3.683-1.603 4.083" style="fill:#66c430;fill-opacity:1;fill-rule:nonzero;stroke:none" transform="matrix(1.33333 0 0 -1.33333 -.667 1121.186)"></path><path d="M254.679 394.557c-.972-1.213-1.283-2.803-1.843-3.763-.56-.962-.4-2.403.161-3.123.56-.722 1.2-1.604 2.241.56 1.042 2.162 2.003 3.283 3.444 3.364 1.442.08 2.163.239 2.964 2.883.8 2.642 2.161 4.084 3.763 5.205 1.601 1.12 1.922 1.521 1.601 2.642s-1.36 2.081-1.521 2.804c-.16.72.401 1.28 1.602 2.24 1.2.962 2.562 3.526.88 5.527s-1.52 1.841-1.04 4.083.08 3.444-1.202 4.485c-1.281 1.04-1.12 1.682.08 2.803s1.682 1.922-.08 3.443-3.042 1.361-3.523.72c-.481-.64-.24-2.082.64-3.203.881-1.121 1.602-2.001.481-2.722-1.121-.72-1.362-2.002-1.602-2.963-.24-.96-1.04-1.121-2.242-1.442s-2.082-.4-2.082-3.363-.801-4.723-1.762-3.843c-.96.88-2.482 1.04-2.963.481-.48-.562-.88-3.686.16-6.007 1.042-2.324 2.082-3.683 3.364-3.202 1.281.479.72 1.92.881 3.041.16 1.122.96 1.604 1.841 2.082.881.482 1.042 2.003 1.282 3.444.24 1.442.72 1.922 1.601 2.243.882.32 2.082-.721 1.281-2.563s-1.921-3.602-1.921-5.926c0-2.321-.96-2.402-2.243-3.524-1.28-1.121-1.521-1.522-1.441-2.963s.32-1.52-.72-1.92c-1.042-.401-1.442-.722-2.082-1.523M296.24 420.583c-1.76.186-2.163-.88-2.163-3.764 0-2.882-.88-4.404-3.123-4.564-2.242-.16-3.843-1.28-3.443-2.963.401-1.682 1.04-4.805 2.162-5.926a144 144 0 0 1 3.764-3.604c.961-.881 1.361-.882 1.361.4 0 1.281-1.442 2.484-2.002 4.085-.56 1.602-2.002 2.482-.48 2.963s2.082.96 2.482 2.483c.4 1.52 1.442 1.841 2.002.559.56-1.281.48-4.482.56-6.405.08-1.922.802-2.724 1.602-3.124s1.441-1.44.401-2.482-1.522-3.684-.88-6.326c.64-2.644.24-3.525 2.882-6.327s3.603-4.003 4.244-3.524 1.04.721-.24 2.483c-1.282 1.762-2.243 4.006-2.243 5.525 0 1.523.401 1.922 1.282 3.123s1.28 2.403 0 3.525c-1.282 1.12-1.522 2.242 0 3.442s1.28 2.645-.4 3.924c-1.682 1.282-2.643 2.083-1.603 3.603 1.041 1.522 1.603 3.045.08 4.166-1.52 1.12-3.682 1.842-3.682 1.842s-.322 1.6-.4 3.763c-.081 2.162-.642 2.963-2.163 3.123" style="fill:#66c430;fill-opacity:1;fill-rule:nonzero;stroke:none" transform="matrix(1.33333 0 0 -1.33333 -.667 1121.186)"></path><path d="M309.773 389.913c.967-1.33 2.163-1.281 3.364 1.6 1.2 2.883 2.562 3.525 3.444 4.646.88 1.121 1.2 3.924 2.482 5.125 1.28 1.202 2.001 2.723 5.045 6.967s3.523 5.285 3.444 7.527c-.081 2.243-1.122 2.643-3.364 3.604-2.242.96-2.804.08-2.962-1.44-.162-1.523.159-1.764 1.28-2.484s1.923-1.2 1.12-3.123c-.8-1.922-2.4-3.765-4.483-4.966-2.082-1.2-4.405-.8-5.766-.24s-3.604 2.082-4.965 4.886c-1.362 2.801-4.564 8.248-7.367 12.571-2.803 4.325-3.524 5.126-4.645 4.325-1.12-.8-.72-2.563.56-4.084 1.282-1.52 3.443-4.244 3.604-5.846.16-1.602.16-3.284 2.082-4.485 1.922-1.2 3.203-2.002 3.363-4.644s.4-3.523 2.322-5.526c1.923-2 2.883-4.163 2.163-5.846-.72-1.681-.962-3.921-1.282-5.043s-.08-2.643.561-3.524M284.308 436.839c-2.428.569-3.924-1.922-4.645-3.683-.72-1.762-.16-3.925-1.121-4.165-.96-.24-2.963-.24-3.443-.72-.48-.481-.721-1.682-.4-3.284s1.04-2.642-.401-3.764c-1.442-1.12-1.762-2.322-.961-4.083.8-1.762 0-2.002-.801-2.803-.801-.8-.8-2.562-.64-4.244s-.161-4.085.16-4.805c.32-.72 1.12-1.12 2.802 2.001 1.682 3.124 4.005 6.727 4.164 9.209.16 2.483-.4 3.605-.64 4.886s.32 1.52 1.521 1.52c1.202 0 1.682.402 1.602 1.843-.08 1.442.96 1.682 1.44.88.482-.8.802-3.122-.719-7.366-1.522-4.245-4.164-10.491-6.326-13.614s-2.403-4.245-1.682-4.645c.72-.4 1.6.4 3.844 3.443 2.242 3.044 3.523 4.005 4.724 4.486 1.2.48 2.082 1.68 2.162 3.123.08 1.441 1.362 4.084 3.043 5.285s2.403 1.682 1.201 3.363c-1.2 1.682-1.842 2.802-.8 3.924 1.041 1.121.64 2.964-.96 3.924-1.602.96-2.964 2.242-1.763 3.203s2.402 5.205-1.361 6.086M243.067 391.514c-.813-.081-2.003-.72-1.442-1.681.56-.96 1.361-2.082 2.002-.96.64 1.12.24 2.722-.56 2.64M241.144 386.549c-.856.256-1.921-.64-1.761-1.522.16-.881.8-1.842 1.842-1.282 1.041.562 1.521 2.322-.081 2.804M232.496 386.708c-2.061.437-2.563-.88-2.002-1.76.56-.882 1.201-1.602 2.563-2.084 1.361-.48 2.562-.159 3.443.642.88.8.32 1.682-.4 2.082s-2.083.8-3.604 1.12M230.094 402.085c-2.057.456-2.644-.56-3.364-2.564-.721-2-1.44-3.282-.721-5.684.721-2.402 1.602-3.444 2.803-3.924s2.403-.321 4.004.96c1.602 1.281 3.924 3.125 5.286 4.565 1.36 1.442.881 2.083-.641 4.004s-4.484 2.001-7.367 2.643M224.808 413.296c-2.008 0-2.723-1.6-3.204-2.402-.48-.801-.32-1.522.562-2.002.88-.48.48-1.843-.32-2.484-.801-.64-.962-1.12.08-1.84 1.04-.721 1.922-1.202 2.722.56.801 1.76 1.442 2.082 2.002 2.082s1.763-.722 2.803-1.441c1.041-.721 2.803-1.363 4.164-1.522 1.362-.161 3.283-.722 4.485-1.522 1.2-.8 2.081-1.922 2.242-1.12.16.8-1.522 2.562-3.924 3.763-2.403 1.2-3.844 1.921-3.044 2.723.801.8 2.884.64 4.565-.961 1.683-1.6 3.284-2.483 4.405-1.68 1.12.8 2.562.958 2.323-1.044-.24-2.002-.401-4.245.64-4.803 1.041-.561 1.12 0 1.841 1.601.722 1.602 1.202 2.241 1.923 2.963.72.72 1.2 1.84.16 2.882s-1.842 2.724-2.803 3.845-2.483.16-3.684-.642c-1.202-.8-2.001-1.041-2.883.561-.88 1.602-.88 2.483-2.963 2.402-2.082-.08-2.802-1.522-4.004-2.24-1.201-.723-2.322-.802-3.363.4-1.04 1.2-4.004 1.92-4.725 1.92M363.347 419.943c-1.769 1.625-4.324 1.682-5.686.16-1.361-1.522-2.482-1.602-3.603-1.922s-2.404-1.602-3.444-2.803c-1.04-1.202-1.2-1.522-2.641-.64-1.444.881-3.445.96-4.727-.721-1.281-1.682-1.76-2.804-3.363-2.483-1.6.321-2.883.08-4.323-1.84-1.442-1.923-2.163-3.365-3.844-3.365s-3.125-.16-3.845-1.441c-.72-1.283-.96-2.163-.48-3.604s.56-2.964-1.522-3.284c-2.08-.32-3.362-.96-4.243-3.923 0 0-1.523-.32-3.043-.32-1.522 0-2.563-1.042-2.725-2.404-.158-1.36-1.2-1.84-3.362-4.003-2.162-2.162-2.561-4.325-1.441-5.286s1.2-3.042.08-4.165c-1.121-1.12-.881-2.882 0-3.762.882-.881 1.12-3.603 1.202-5.045.08-1.44.88-2.322 1.682-2.643.8-.321 1.44.32 1.76 2.964.32 2.64.721 5.204 1.442 7.687.72 2.482 1.04 3.523-.24 5.445s-1.202 3.925-.4 4.085c.8.158.88-.322 1.44-1.442.562-1.122 1.761-1.122 2.643.56s1.122 2.565 1.843 2.884c.72.32 1.601-.883.158-3.044-1.44-2.161-2.882-4.084-3.362-6.727-.48-2.642-.081-4.084 1.361-3.924s2.883 0 1.442-1.28c-1.442-1.284-2.963-2.322-3.523-3.043-.561-.721-.401-2.242-.401-3.604s.481-2.484 1.361-1.922c.88.56 1.683 2.162 3.442 2.963 1.763.8 1.923 1.92 1.844 3.444-.08 1.52.32 1.602 1.6 2.161 1.283.562 3.845 1.842 3.525 4.243-.32 2.405-2.242 3.124-.08 5.046s2.482 3.283 2.241 4.405-1.04 2.162-2.642 2.642c-1.602.482-1.682 1.36-1.12 3.524.56 2.163.8 3.123 2.082 4.084 1.28.962 1.521 3.362 2.802 4.804s1.2 2.644 2.643 2.163c1.44-.481 2.722-1.04 4.323.882 1.603 1.92 2.083 2.642 4.005 2.882 1.92.24 3.362.161 5.205 1.2 1.842 1.042 2.722 1.682 3.844 1.202 1.12-.481 1.923-1.601 2.08-3.764.162-2.161.482-2.644 1.523-2.563s1.203.961 2.402 2.404c1.202 1.441.722 5.045.722 5.045s1.522.801 3.284 2.001c1.76 1.202 3.042 3.364.079 6.087" style="fill:#66c430;fill-opacity:1;fill-rule:nonzero;stroke:none" transform="matrix(1.33333 0 0 -1.33333 -.667 1121.186)"></path><path d="M335.4 396.799c-.69.828-1.602 0-1.282-1.201s2.482-.24 1.281 1.2M336.6 393.035c-1.579.275-1.762-1.281-.96-1.521.798-.24 2.803 1.202.96 1.521M339.323 390.953c-1.028.458-1.923-.64-1.281-1.44.64-.802 4.164.158 1.281 1.44M339.001 398.962c-1.508 1.033-2.24.08-.479-1.922s3.123-3.683 4.165-5.526c1.04-1.842 1.601-2.324 2.642-2.001 1.041.32 1.361.56 1.602 2.082.24 1.521-.32 2.24-2.324 3.362-2 1.122-4.083 2.964-5.606 4.005M341.646 404.326c-1.588-1.367-2.083-2.481-.16-4.805 1.921-2.322 3.761-4.083 5.204-4.644s2.883-.241 4.165 1.122c1.28 1.361 2.323 4.003 2.48 7.206.162 3.203-.479 4.405-1.36 4.646-.88.24-2.162-.4-4.002-1.122-1.844-.721-4.005-.4-6.327-2.403M215.76 445.808c-1.32 1.978-2.563 2.082-4.084.881-1.522-1.201-1.522-2.563-.882-3.924.641-1.362 2.082-2.002 3.043-3.363s.642-2.082-.64-3.043c-1.281-.961-1.36-2.402-.72-4.005.64-1.601 1.521-2.962 3.443-3.443 1.921-.48 2.562-1.762 2.562-3.603s.8-3.924 1.762-4.245c.96-.32 3.283-.08 4.404-.32 1.122-.24.881-1.681.881-2.322 0-.642.56-1.602 2.003-2.482 1.44-.881 2.001-.961 3.122.159 1.122 1.122.4 1.522-1.441 3.684s-3.923 3.844-5.045 4.084-2.163.481-2.163 1.201c0 .722 1.122 1.041 1.522 1.122.4.08.321 1.441-1.36 3.683-1.683 2.243-3.444 3.924-3.604 5.125s.4 1.602 1.921 1.602 2.723-.641 2.723-2.483c0-1.841 1.922-4.324 3.684-7.527s2.562-4.804 4.564-5.846c2.002-1.04 3.123-1.441 3.203-.32s-1.36 3.122-1.842 5.205c-.48 2.082-.64 3.843-2.082 5.285-1.44 1.441-2.081 2.162-3.763 2.803-1.681.64-1.923 1.601-2.323 4.885s-.8 5.206-2.082 5.365c-1.28.16-2.002-.96-2.802-1.841-.801-.882-1.362-.16-1.923.32s-1.12 1.922-2.081 3.363M203.828 431.394c-1.601 1.18-2.643 1.28-4.085 0-1.441-1.282-1.441-2.723.16-4.484 1.602-1.762 2.644-2.883 2.644-2.883s-.961-1.361-1.281-2.322-.321-2.083 1.44-2.964c1.762-.88 2.884-1.762 2.963-3.122.08-1.361.881-2.003 2.483-2.003s3.603.322 5.445-.88 2.243-3.043 2.963-3.284 1.682-.08 1.843 2.002c.16 2.082 0 2.243-2.563 4.244s-5.125 1.362-6.086 1.362c0 0 .96 1.28-.962 2.802s-2.161 3.204-3.604 4.405c-1.44 1.2-1.92 1.842-1.12 2.242s1.522-.32 2.482-1.681c.961-1.362 2.002-2.243 2.404-1.362.4.881 2.001.96 2.32-.08.322-1.04.721-3.043 2.964-4.485 2.242-1.441 3.844-2.723 5.205-3.443s2.002-.238 2.483.24c.48.48.48 2.723-1.362 3.123-1.841.402-3.843 1.682-4.564 2.963-.72 1.282-.24 3.604-2.002 5.365-1.762 1.763-3.043 1.602-4.485 1.442-1.441-.16-2.643-.801-3.203-.64-.56.16-.96 2.32-2.482 3.443M210.715 410.975c-1.265.379-3.043-1.204-3.844-2.004-.802-.8-1.202-1.36-3.043-.4s-2.963.881-3.684-.48c-.721-1.362-.4-3.043 1.122-4.566 1.52-1.52 2.24-2.563 2.161-3.523s-1.441-1.6-2.161-2.161c-.722-.56-1.683-2.483-.242-4.404 1.442-1.923 3.204-1.923 4.566-2.244 1.361-.32 2.562-1.04 1.52-2.003-1.04-.958-1.6-2.482 0-4.002 1.602-1.521 4.165-1.362 6.247-1.362s3.123.161 3.924-1.361.08-2.161 1.682-2.802c1.601-.64 2.723-.16 4.004.961s2.081 2.401-.56 5.124c-2.643 2.724-4.325 4.484-5.606 5.445-1.282.961-2.162.72-3.924.801s-2.083.16-3.764 1.282c-1.682 1.12-1.362 2.002.48 1.36 1.842-.639 2.963 0 2.884.882-.08.88-.881 2.003-3.285 3.924-2.401 1.921-3.202 2.563-3.282 3.524s.88.561 1.922.079c1.04-.48 1.522-.32 1.522.72 0 1.043 1.52.962 2.242-1.04.72-2.002 1.04-5.045 3.603-7.529 2.563-2.481 3.363-2.72 4.405-2.72 1.04 0 1.121.478.48 1.92-.641 1.443-1.282 2.324.56 2.484s2.803-.32 2.964 1.2c.16 1.523-.481 1.763-2.003 3.204-1.521 1.44-3.123 1.522-3.924 1.281-.8-.24-2.562-.72-2.803.24-.24.96-.16 2.562-.4 4.005-.24 1.441-2.162 3.683-3.763 4.165" style="fill:#66c430;fill-opacity:1;fill-rule:nonzero;stroke:none" transform="matrix(1.33333 0 0 -1.33333 -.667 1121.186)"></path><path d="M224.489 391.114c-1.403 1.567-2.723 2.323-2.803.4s.4-2.082 2.482-5.126c2.082-3.042 4.004-6.886 4.805-8.889.8-2.001 2.002-2.803 2.562-1.52.56 1.28.641 2.243-.96 4.724-1.602 2.482-2.563 4.324-2.964 5.767-.4 1.44-1.76 3.12-3.122 4.644M200.705 387.831c-1.52.107-2.643-1.282-2.643-3.044s-.88-2.642-1.842-2.642c-.96 0-1.842 1.28-2.803 2.242s-4.004 1.842-5.605-.96-1.041-4.245.88-5.366c1.923-1.122 3.444-.641 3.524-2.001.08-1.363-1.362-2.163-1.201-3.525.16-1.361 2.162-2.563 3.924-2.642 1.762-.08 3.123.721 4.404 1.36 1.282.642 2.563.161 3.044-1.84.48-2.003 2.241-3.124 3.123-3.124.88 0 2.721 1.76 3.603 2.482.88.72 2.963.16 3.043-1.681.08-1.843 1.04-2.644 2.242-2.724 1.202-.079 2.643.241 2.643 2.083s-1.121 3.684-3.444 5.284c-2.322 1.603-5.285 3.604-7.447 3.525s-2.802-.4-4.084-.4-.881 1.522-2.082 2.002-2.483 1.04-2.083 1.681c.4.64 2.162 1.441 3.765.802 1.602-.642 3.363-1.444 6.085-1.282 2.723.16 4.325-1.2 4.726-2.803s1.12-1.602 2.082-1.44c.96.159 1.361 1.28 1.2 3.523-.16 2.241-2.08 3.842-4.804 3.842s-4.164-.08-5.526 1.602c-1.361 1.682-2.482 4.886-4.724 5.046" style="fill:#66c430;fill-opacity:1;fill-rule:nonzero;stroke:none" transform="matrix(1.33333 0 0 -1.33333 -.667 1121.186)"></path><path d="M220.484 372.774c-1.626.435-2.081-1.92-2.081-3.442 0-1.521 1.36-3.123 2.482-5.685 1.12-2.564 1.842-6.807 2.803-8.57.96-1.76 1.36-3.283.08-3.202-1.282.08-3.764.4-4.805 1.2-1.041.802-2.643.72-3.684.482-1.041-.24-1.922-1.122-1.922-2.083s.802-1.2 3.123-1.762c2.323-.56 7.448-2.161 9.61-3.042s4.244-2.645 6.807-4.726c2.562-2.08 4.004-3.443 5.125-3.443s1.441 1.042 2.162 2.002 1.281 2.243.32 3.363c-.96 1.122-2.162 1.281-3.843 1.442-1.682.16-3.764 2.082-4.805 3.602-1.042 1.524-2.403 3.765-3.203 4.647-.8.88-1.763 3.042-1.922 4.964s.72 3.364 0 4.486c-.722 1.119-1.762 1.84-2.643 2.641s-1.441 2.562-1.762 3.684c-.32 1.121-.64 3.122-1.842 3.442" style="fill:#66c430;fill-opacity:1;fill-rule:nonzero;stroke:none" transform="matrix(1.33333 0 0 -1.33333 -.667 1121.186)"></path><path d="M202.226 364.207c-1.26 1.145-3.524 1.843-5.045.08s-1.681-2.643-.72-4.163c.96-1.523 2.322-2.563 2.882-3.364s.32-1.763-.64-2.643c-.961-.88-1.282-2.722.08-3.523 1.361-.802 2.803-1.042 3.924-.64 1.12.399 2.562-.241 2.803-1.522.24-1.283 1.441-1.923 2.242-2.162.8-.242 2.082.16 2.242 2.162s-.16 3.28-2.002 4.723-2.883 1.2-3.844 1.922-1.521 2.004-1.761 3.124c-.241 1.121.881 1.842 2.161.48 1.282-1.362 3.524-3.202 4.644-3.764 1.122-.562 3.124-.398 3.765.32.64.722 2.963.962 4.404.161 1.442-.8 2.403-.961 3.203-.32.801.64.881 1.201-.48 3.123s-2.001 1.44-3.123.56c-1.121-.88-1.361-.48-3.283 1.521-1.923 2.002-3.204 2.563-4.486 2.243-1.28-.319-1.68-1.521-2.722-1.843-1.041-.32-1.441.24-2.242 1.202s-1.122 1.522-2.002 2.323" style="fill:#66c430;fill-opacity:1;fill-rule:nonzero;stroke:none" transform="matrix(1.33333 0 0 -1.33333 -.667 1121.186)"></path><path d="M195.179 332.575c-1.175 1.316-2.722.56-4.405-.08-1.681-.64-2.802-1.682-1.921-3.122.88-1.442-.32-2.483-.32-2.483s-2.323-.642-4.565-2.563c-2.242-1.924-1.922-3.763-1.041-4.645s3.203-.4 5.205 1.12c2.002 1.524 2.803 1.122 3.603.32.802-.8 1.202-1.519 2.003-1.84.8-.32 1.922.081 4.004 2.242s3.363 1.2 4.004.16 1.36-2.32 2.402-2.32c1.041 0 4.083 2.16 5.685 3.682 1.602 1.52 1.683 2.002.802 2.322-.882.321-1.923.64-2.724-.16-.8-.8-1.28-1.201-2.081-1.122-.801.081-.642 1.282-1.682 1.602s-2.963.32-5.045-.64c-2.082-.962-3.043-.801-3.924-.4-.881.4 0 1.2 2.964 2 2.962.802 6.245 1.444 8.007 1.444s4.485-.562 5.846-.722 1.44 1.121 0 1.683c-1.441.558-1.522 1.28-1.601 2.24-.081.96-.401 2.563-.401 2.563s-1.922 0-6.166 2.243c-4.245 2.24-5.526 3.923-10.49 7.767-4.966 3.845-5.046 4.566-5.206 5.846s.4 2.884.88 2.322c.481-.56 1.363-2.322 2.484-3.682 1.12-1.363 4.884-4.726 6.726-5.688 1.841-.96 1.841-.478 1.682.962-.161 1.442.32 2.002 1.52 1.121 1.202-.882 1.443-3.444 2.404-5.765.96-2.322 3.363-2.803 4.724-2.803s1.121 3.443 1.121 4.723c0 1.283-2.482 2.164-4.163 3.926-1.682 1.76-3.123 2.723-4.405 2.963-1.281.24-3.204-.32-5.366 1.602-2.16 1.922-1.441 2.881-.56 4.884.881 2.002-.56 4.003-2.241 4.485-1.255.357-2.483-.08-3.444-1.762-.961-1.683-1.843-1.602-2.643-.562-.8 1.042-1.601 2.882-3.123 3.924-1.522 1.043-3.604.161-4.645-1.441s-1.602-2.884.56-4.244c2.164-1.36 4.325-2.323 4.325-3.203 0 0-1.682-2.243-1.281-3.763.4-1.522 2.161-2.323 4.324-2.804s4.244-1.361 2.883-2.803c-1.361-1.44-2.002-3.443-1.361-4.644s2.723-1.281 4.804-1.281 4.164.64 4.164.64-.16-3.202 1.602-4.403c1.761-1.202 3.363-.482 4.884-.081 1.523.4 1.923-1.041 1.923-1.041s-1.122-.241-3.604-.56c-2.482-.321-4.484-1.122-7.127 1.841M215.84 346.908c-1.45.074-1.362-.719-1.201-1.44.16-.72.8-2.081 1.76-.88.962 1.201 1.042 2.24-.56 2.32M221.846 344.828c-1.842.32-2.723-.962-4.725-2.803s-3.284-3.762-2.002-5.045c1.28-1.282 2.723-2.404 3.043-3.284s-.32-1.681-1.361-2.482c-1.041-.8-.961-1.923.4-2.564 1.361-.64 3.524-2.32 3.603-3.282.08-.96-1.12-3.202-.4-4.565.721-1.362 2.242-1.682 3.444-1.922 1.2-.24 1.36-1.121.88-2.081-.48-.962-.96-2.162.48-3.363 1.442-1.202 2.403-1.123 3.524.32 1.122 1.44 2.323 3.202 2.163 3.924-.16.72-2.082 3.763-3.924 6.326-1.842 2.561-4.004 4.165-4.485 5.366-.48 1.2-1.041 2.64-1.761 3.763-.721 1.122.24 2.482 1.2.962.961-1.523 1.683-2.003 2.403-2.083s1.28 1.12 1.922 1.361c.64.241 2.002-.72.88-1.763-1.12-1.04-1.68-2.642.242-5.124s3.362-5.604 4.244-6.326c.88-.722 2.242-1.282 3.763-2.242 1.522-.96 3.284-2.243 4.084-2.243.801 0 1.282.721 1.362 2.403s-.16 1.682-1.923 2.483c-1.761.8-3.122 1.44-2.402 3.763.72 2.321 1.28 4.084.24 4.964-1.04.882-2.562 1.042-3.843-.962-1.281-2-1.762-1.36-1.921-1.039-.162.32.48 1.84 1.12 4.244s1.442 5.688.08 7.048-2.482 1.281-3.763.32c-1.282-.963-2.243-.641-2.804.16s-1.922 5.446-3.763 5.766M221.285 310.955c-1.52 1.33-2.082 0-2.082-1.283 0-1.28-.56-2.643-1.682-4.004s-1.28-2.401-.64-5.044c.64-2.645 1.922-3.523 2.803-3.604.88-.08 1.361-1.363.88-2.324-.48-.959-.4-2.08.48-2.641.882-.56 2.323-.803 2.403.64s.881 2.483.641 3.525c-.24 1.04-.4.638-1.12.88-.722.24-.561 1.12 1.84 2.483 2.403 1.361 4.405 2.24 5.046 3.122.64.882.24 2.243-1.201 4.324s-2.644 2.645-3.524 2.722c-.881.081-2.563.082-3.844 1.204M214.96 297.18c-1.11.967-2.003 1.28-3.205 1.28-1.2 0-2.322-1.44-1.84-2.4.48-.963 1.6-1.283 1.6-2.244 0-.96-.8-1.122-2.723-1.122-1.921 0-4.083-.64-4.244-1.92-.16-1.283-.16-2.162 1.602-2.963 1.761-.801 1.601-1.522.24-2.963s-2.803-2.963-2.803-4.084c0-1.122 1.122-2.162 2.163-2.404 1.041-.238 2.402.32 3.523 2.724 1.122 2.401 1.601 3.284 2.963 2.643 1.361-.642 3.844-1.442 5.366.159 1.52 1.601 2.643 2.403.88 4.485-1.761 2.081-3.523 2.882-3.203 4.085.32 1.2 2.804 2.003-.32 4.724" style="fill:#66c430;fill-opacity:1;fill-rule:nonzero;stroke:none" transform="matrix(1.33333 0 0 -1.33333 -.667 1121.186)"></path><path d="M229.213 299.822c-1.495-.043-2.963-.962-3.043-1.521-.08-.56-.32-1.761 2.243-.56s3.523 2.16.8 2.081M226.81 292.295c-1.14.41-.88-1.202-.4-1.441s2.403.72.4 1.44M231.215 293.016c-1.44-.075-2.162-.961-1.762-1.841.4-.881.721-1.043 1.281-.321.561.721 2.003 2.24.48 2.162M236.58 289.813c-.792.14-3.204-2.083-5.125-3.524s-2.802-3.284-2.242-4.805c.56-1.522.962-2.162 2.563-2.482 1.6-.321 1.922-.08 3.203 2.723 1.28 2.801 2.963 7.847 1.602 8.087M241.065 289.491c-1.279.467-2.883-2.803-3.764-5.205-.88-2.401-1.281-5.444-1.201-7.287.08-1.84.881-3.441 2.242-3.603 1.361-.16 2.883.162 3.123 1.362s.24 2.482-.72 3.443c-.961.961-1.202 1.281.56 2.482s2.802 2.563 2.162 4.325-1.522 4.162-2.402 4.483M269.493 319.604c-1.218.923-2.323.96-3.123.159s-.4-3.203-1.281-3.763c-.881-.562-.961-.162-1.682.32-.72.48-2.803-1.203-4.164-3.045-1.361-1.84-2.723-3.123-3.043-4.325-.32-1.2.16-2.641.4-3.844.24-1.2-1.04-2-1.601-2.48-.561-.481-.721-1.603 0-3.364.72-1.762.16-3.844-.24-4.566-.401-.72-.08-2.401 1.28-2.641 1.362-.24 2.643.64 4.004.8 1.362.16 2.404-1.2 3.925-2.082 1.52-.88 4.004-1.84 4.724-1.2s1.121.32 1.121 1.602c0 1.281-1.761 2.481-3.042 3.282-1.282.8-2.403 3.203-4.565 3.924-2.163.72-3.603-.08-3.443 1.121s1.28 1.36 2.883 1.04c1.6-.32 2.322-1.6 4.324-3.603 2.002-2.001 3.123-3.123 3.684-3.123s1.681.323 2.001 2.564c.321 2.241.16 3.042-.64 3.683-.801.64-1.843 2.561-2.483 4.644-.64 2.081-2.162 2.962-3.443 1.842s-2.242-2.162-3.604-2.563c-1.361-.4-1.361.08.08 3.284s2.082 3.923 3.284 3.923c1.2 0 2.242.881 3.923 2.564 1.683 1.68 2.723 4.324.72 5.847M372.717 410.813c-1.738 1.626-5.286 1.921-7.529-.8-2.242-2.724-4.164-6.007-6.965-7.847-2.804-1.843-4.005-4.726-5.527-6.648-1.521-1.922-2.323-3.442-1.681-4.165.64-.72 1.922-.48 3.444.641 1.52 1.122 1.92 2.963 2.322 4.165.4 1.201 1.762 1.763 2.161.72.402-1.04 1.922-.32 3.364 1.843s3.202 5.125 3.683 6.086c.48.96 2.643.72 2.002-.802-.64-1.52-1.681-3.123-1.681-4.004s.16-.802 1.761-.56c1.602.24 2.243-.72.72-1.761-1.52-1.042-3.362-.961-4.643-1.042-1.28-.08-1.522-1.762-2.723-2.882-1.201-1.123-3.603-1.763-4.484-2.162-.881-.402-2.482-2.403-4.565-2.483-2.082-.08-3.043-.64-3.765-1.202-.72-.56-.638-1.361.642-1.601 1.282-.24 2.482-.721 4.805 1.04 2.32 1.763 3.283 2.803 5.606 2.242s3.763-1.12 4.964 1.203c1.201 2.322 1.041 2.884 4.324 2.884s5.126.317 5.526 2.96c.4 2.644-.08 3.364-1.442 4.566-1.36 1.2-1.361 2.321.081 3.925 1.442 1.6 2.081 3.362-.4 5.684" style="fill:#66c430;fill-opacity:1;fill-rule:nonzero;stroke:none" transform="matrix(1.33333 0 0 -1.33333 -.667 1121.186)"></path><path d="M382.967 389.913c-1.61 1.608-4.886 1.921-6.246.72-1.362-1.201-2.884-2.162-4.085-.801s-3.845.963-5.045.642c-1.201-.322-2.963-1.763-3.764-2.643-.8-.882-2.803-1.361-3.523-.723-.722.642-2.804.961-3.925-.72s-.638-3.283-1.442-4.082c-.8-.802-3.122-2.403-3.682-4.006-.56-1.6-1.842-2.24-2.483-1.6-.64.64-1.12 3.363-1.841 3.763-.722.4-2.002.88-1.28 2.322.72 1.442-.242 2.803-1.363 4.003-1.122 1.202-2.724.32-3.844-1.04s-1.28-3.203-1.28-4.244-1.844-1.52-2.964-1.442c-1.12.08-2.804-.64-3.124-2.883s.562-2.64.642-3.923-1.121-2.963-1.042-4.404c.08-1.442.16-3.123 1.602-4.164s3.122-1.443 3.684-.562c.56.882.64 2.964 1.201 4.726.56 1.762.48 3.123-.481 4.404s-1.602 2.883-.4 2.08c1.2-.799 1.6-1.038 2.322.082.721 1.122 1.202 1.763 1.36 2.643.162.88 1.203-.641.562-3.124s-.8-4.244.08-4.723c.881-.483.4-1.524-.721-2.644s-2.241-3.043-2.322-4.964c-.08-1.924-1.28-2.643-1.2-4.164.08-1.523.48-2.483 1.6-1.442 1.122 1.041 2.323 2.242 3.603 3.362 1.283 1.121.642 1.763.482 3.364-.16 1.602.641 2.482 1.602 3.203.96.722 1.682 2.324 1.602 3.685-.081 1.36.16 2.402 1.6 2.563 1.442.159 2.563 1.2 3.844 2.802 1.282 1.601 2.483 2.402 4.164 3.523 1.683 1.122 2.644 1.762 4.245 2.083 1.601.318 3.745 1.628 5.044 3.202 1.523 1.843 2.324 2.083 2.404.882.079-1.202.96-1.523 2.8-.882 1.844.64 3.205.722 4.086.722s.641-1.122-1.842-1.523-6.646-1.28-7.928-1.922c-1.28-.64-1.76-1.601-.88-2.4.88-.803.56-2.004-.8-2.004-1.363 0-2.003.801-3.925.64-1.921-.16-3.685-1.12-4.965-2.24-1.282-1.123-1.922-2.563-1.121-2.804s1.92-.4 3.123.561c1.2.96 1.841.721 2.883-.16 1.04-.883 1.52-1.762 2.802-1.521 1.282.237 1.603 1.92 2.563 2.481s1.842.48 3.204-.48c1.361-.96 1.281-3.603-1.122-3.684s-4.805-1.12-5.846-2.802-1.361-3.525-2.402-4.165c-1.04-.64-2.484-1.36-3.042-2.482-.562-1.122-2.643-2.724-3.686-3.443-1.04-.721-2.24-2.324-1.52-3.284s.72 0 2.562 1.202c1.84 1.2 2.882 1.84 4.483 1.84 1.602 0 3.366.641 5.288 3.043 1.92 2.403 3.442 4.885 6.004 5.527 2.563.64 4.246.158 3.605-.56-.642-.722-2.482-2.084-4.086-2.642-1.6-.562-1.68-1.364-.8-2.164.881-.8 1.362-1.681 3.043-.561 1.683 1.121 3.445 1.843 4.325 1.361.881-.48 1.601-1.042 2.802-.96 1.201.081 1.201.882.962 2.243-.241 1.36 1.441 2.242 2.482 3.042 1.042.801 2.083 2.804 2.001 4.566-.08 1.76-2.001 2.802-3.362 3.042-1.362.241-3.203-1.2-4.164-1.842-.962-.641-2.723-.08-3.444 1.121-.72 1.2-.4 2.801.4 3.844.8 1.041 2.003 1.201 3.044.481s2.323-.962 3.684.08c1.361 1.04 1.361 2.242 1.04 3.684-.32 1.44.481 2.482 1.843 2.722 1.36.24 2.561 1.04 2.801 1.843.241.8-.879 3.122-2.481 4.724" style="fill:#66c430;fill-opacity:1;fill-rule:nonzero;stroke:none" transform="matrix(1.33333 0 0 -1.33333 -.667 1121.186)"></path><path d="M356.541 367.97c-1.037.968-4.406-1.36-7.93-5.124-3.522-3.764-7.526-8.808-9.209-10.652-1.681-1.841-2.964-3.521-2.721-6.005.239-2.483 1.2-3.364 2.32-2.244 1.123 1.123 1.683 1.762 3.686 1.202 2.001-.56 3.763-1.76 5.044-1.76 1.282 0 2.403.959 1.12 2.321-1.28 1.362-2.561 2.403-3.122 3.604-.56 1.2 1.682 5.445 4.325 8.968 2.642 3.525 7.688 8.569 6.487 9.69M327.871 335.857c-1.043.88-2.562 1.202-3.603.242-1.041-.962-1.522-.882-2.483 0-.96.88-2.964.64-4.484-.962-1.522-1.6-2.403-3.204-3.603-3.364-1.202-.16-1.681.08-2.643.801s-2.563.16-3.924-2.002c-1.363-2.16-.962-4.963-.962-4.963s-2.803-1.042-3.923-2.404c-1.122-1.36-2.883-3.202-4.405-4.324-1.521-1.121-2.722-3.843-3.603-6.406s-.72-3.525.32-3.203c1.041.32 2.642 1.682 4.245 4.003 1.6 2.324 4.323 3.684 7.046 6.488 2.723 2.801 4.005 3.923 4.086 5.524.078 1.603 1.279 2.724 1.12 1.202-.161-1.522.319-1.602 1.362-1.361 1.04.24 1.44.962 2.401 1.762s2.001.24.161-2.003c-1.842-2.241-4.325-4.002-6.807-5.685s-2.163-2.243-2.163-3.524c0-1.28-.72-1.762-2.322-2.162s-3.443-1.202-5.045-3.123-2.323-2.882-1.842-3.925c.48-1.04 1.361-1.36 2.403-.88 1.041.48 2.082 2.641 2.963 3.362.88.722 1.52.722 3.123.722 1.602 0 2.322.241 3.283 1.122.961.88 1.12 1.12 3.043 1.281 1.922.16 3.282-.08 4.805 1.762 1.521 1.84.56 3.04.08 3.923-.48.882-.48 1.522 1.602 1.601 2.082.08 4.003.08 5.445 2.163 1.441 2.081 1.68 3.284.241 5.044-1.442 1.761-1.842 3.043-1.123 3.445.72.4 2.323.24 4.005 1.6 1.683 1.363 2.723 2.965 1.201 4.244M323.065 318.722c-2.055-1.052-2.08-2.082-.8-2.243 1.282-.16 4.005.64 6.407 1.28 2.403.642 3.523 1.602 4.645.322 1.12-1.281 2.001-1.363 3.121-.321 1.124 1.042 1.364 2.562.323 3.764-1.042 1.2-3.444 1.2-4.887 1.04-1.44-.159-5.204-2-8.809-3.842M294.558 442.525c-.995.249-1.923-.72-3.283-2.162-1.361-1.442-1.121-3.124 0-4.244 1.12-1.122.4-2.243.24-3.604s-.64-5.125-.08-7.207 1.441-2.483 2.642-2.483c1.202 0 1.281 1.201.721 2.964-.56 1.76-.64 3.443 1.282 4.964 1.921 1.522 2.082.641 3.283.8 1.201.161 1.841.641 1.44 2.083-.4 1.442-1.362 1.361-2.4 1.361-1.042 0-1.603 1.362-1.843 3.284s-1.041 4.003-2.002 4.244M318.343 435.638c-1.042.424-1.443-.8-1.524-1.842-.079-1.041-.079-1.442 1.524-1.362 1.6.081 2.16 2.323 0 3.204M314.818 433.396c-1.172.652-1.681-.721-.96-1.281.72-.561 2.402.48.96 1.281M311.214 432.755c-1.1.454-1.68 1.202-1.36 2.002.32.801-.08 1.201-.48.801-.402-.4-.32-1.601.16-2.402.479-.802.32-2.082 1.36-2.082 1.042 0 1.681 1.12.32 1.68M320.744 425.388c-1.582.474-2.002-.56-1.522-1.682s1.042-1.762 2.083-1.36c1.04.4 1.04 2.561-.56 3.042M270.374 434.517c-1.314.985-2.243.08-2.002-1.201.24-1.282-.24-2.162-1.842-1.842s-2.643.32-1.682-1.121 2.403-1.441 3.364-2.082 1.841-.561 2.242 1.36c.4 1.923 1.2 3.925-.08 4.886M259.803 445.648c-2.087.707-3.443-.08-3.363-1.281s.881-2.563-.16-4.244c-1.042-1.683-1.842-4.885-.24-6.407 1.601-1.521 1.681-2.642.8-3.844-.88-1.201-.96-2.162.48-3.043 1.442-.88 3.044-.4 3.123 1.842.081 2.242.321 2.562 1.522 3.123 1.202.56 1.602 1.282 1.522 2.563s1.121 1.44 2.723 2.163c1.6.72 2.002 1.681 1.521 3.362s-2.722 4.005-7.928 5.766" style="fill:#66c430;fill-opacity:1;fill-rule:nonzero;stroke:none" transform="matrix(1.33333 0 0 -1.33333 -.667 1121.186)"></path><path d="M248.352 446.689c-1.364.818-1.682.4-1.922-1.601-.24-2.003-1.12-4.805-.481-5.286s3.044-.48 3.925-1.762c.88-1.28.8-3.764.32-4.805s-.8-2.321 1.28-3.683c2.083-1.361 2.164-2.482 1.923-4.404-.24-1.922-.8-4.325-1.122-4.725-.32-.402-1.04-.32-4.003 3.924s-5.766 8.329-6.567 10.41c-.8 2.082 0 2.403.32 4.004.32 1.602.241 2.163-.96 2.002-1.202-.16-1.922.881-2.723 1.762s-2.322.48-1.442-1.682 2.883-6.807 4.485-8.969 0-3.283-1.041-3.203-1.362-.881-1.201-1.6c.16-.722 1.121-.963 2.642-.642 1.522.32 2.723.24 4.645-2.242s2.243-4.405 1.762-5.125c-.481-.721-1.922-1.603-2.723-1.041-.8.56-.72 2.082-1.522 3.123-.8 1.041-1.521 1.28-3.043 1.28-1.521 0-3.363 1.122-4.324 2.162-.96 1.042-.961 1.523-.24 3.285.721 1.76.56 2.802-.8 2.882-1.363.08-3.845.881-4.165 3.043s.24 3.043.96 3.924c.722.881.561 2.322-1.04 3.123-1.602.801-3.364 1.122-3.204 3.364s1.202 2.882 2.964 3.283c1.76.4 2.722 1.442 2.722 1.442s-.72 4.643 1.04 6.406c1.763 1.762 2.724 1.521 3.925.24 1.201-1.282.801-5.605.801-5.605s1.601-.32 3.363-.401c1.763-.08 3.444-.56 3.524.48.08 1.042 1.28 2.563 1.361 3.764.08 1.202-.32 1.921-2.082 3.844s-1.201 3.444.08 4.565c1.281 1.12 3.364.8 4.485-.48 1.121-1.283 1.762-2.003 3.443-.482s3.204 2.323 4.565 1.122c1.36-1.201 1.522-3.283 1.602-4.485.08-1.2.56-2.562 2.002-2.882s2.562-1.282 2.962-2.963 1.042-3.284 2.803-4.165a3.324 3.324 0 0 0 1.682-4.084c-.481-1.281-.486-1.054-2.403.8-2.482 2.403-5.526 3.284-7.367 3.605 0 0-.801 4.083-2.322 6.245-1.522 2.163-3.283 3.364-4.885 4.085-1.602.72-3.204-.24-1.441-1.361 1.761-1.122 2.963-2.323 2.963-3.284s-.241-1.121-.722-1.841c-.48-.722.321-.8 1.602-.48 1.281.319 1.602-.883 1.602-2.243 0-1.361-1.362-2.644-1.922-3.284s-.08-1.841 0-3.123c.08-1.281-.32-2.883-1.522-3.203-1.2-.32-2.402 0-2.242 1.842s.881 3.203-2.322 5.125M321.946 468.63c-1.46 1.261-4.165 1.123-5.526-1.44s-1.762-4.405-3.043-3.444-2.563 1.841-3.523 1.522c-.962-.32-2.403-2.402-2.563-3.684-.16-1.281-.8-3.123-2.402-4.404-1.603-1.282-2.804-2.403-1.842-4.485.96-2.082.32-2.964-1.042-4.244-1.36-1.281-1.682-2.403-1.04-3.444.64-1.04.56-2.563.24-3.363s-1.042-2.242.32-2.963c1.36-.72 2.404-.8 2.723 1.922.32 2.723.72 6.486 2.401 9.93 1.682 3.444 2.083 6.647 2.884 7.448.801.8 1.522.96 2.321 1.04.802.08 1.843 1.441 2.964 2.002 1.122.561 2.403-.48.562-2.242-1.843-1.762-2.963-2.562-4.085-5.365s-2.483-5.445-3.123-6.647c-.642-1.2-1.201-2.882-.321-2.882s2.162 1.281 3.524 2.882 2.482 2.323 4.404 2.643 2.643 1.121 2.643 2.563c0 1.441.64 2.481 2.082 2.962s2.481 1.522 2.322 2.643c-.161 1.12-.96 1.762-1.762 2.402-.8.641-1.282 1.442.24 2.643s2.403 4.485.642 6.006M296.56 470.713c-1.746.61-3.764-.881-5.045-3.044a49 49 0 0 1-2.162-4.083s-.96-.641-2.322-.641-2.163-.64-3.044-5.125c-.88-4.484-1.521-6.646-.72-7.527s1.761-1.2 2.322-.08c.56 1.12 1.201.88 2.082.88s1.602.962 2.803 4.405 1.2 4.404 1.922 4.964c.72.561 1.602 1.042 1.681-.96.08-2.002 1.202-3.203.801-3.844-.4-.64-1.602-1.441-2.562-2.562-.961-1.121-2.402-4.885-3.284-6.567-.88-1.682-.88-2.964 0-3.203.882-.24 2.162-.8 2.963 1.441.8 2.242 1.042 4.004 1.042 4.004s1.04.4 2.962.96c1.923.562 3.043 1.282 2.564 3.124-.482 1.842-.882 4.004.88 5.126 1.761 1.12 1.922 3.363-.08 4.724s-2.562 2.002-1.842 3.763c.721 1.763.64 3.685-.96 4.245M267.971 469.112c-1.033.206-3.043-.962-3.363-2.403s.32-2.723 1.682-4.164c1.36-1.441 1.761-2.723.56-3.284s-2.082-1.761-1.201-3.123c.881-1.361 1.682-3.043 2.162-4.004s2.483-1.76 3.363-2.642c.881-.88.802-3.123.881-5.605.08-2.484.402-4.085 1.362-5.046.96-.96 2.803-1.44 2.803.721s-.561 6.647-.88 9.69c-.321 3.043.479 4.965-1.363 5.766-1.841.8-3.123.961-3.443 1.761-.32.801.32 1.12 1.521 1.281 1.202.16 1.202.32-.56 1.922s-1.762 2.803-.961 2.803 2.322-.8 4.725-3.924 2.322-4.805 2.322-8.008 1.041-5.846 1.041-7.848 1.04-2.081 2.162-1.521 2.082 2.563 1.762 4.885-1.922 3.203-1.762 5.045c.16 1.841 1.362 3.523.24 5.125-1.12 1.602-2.803 2.402-2.962 5.205s-.721 4.566-2.323 4.645c-1.601.08-2.001-1.281-2.642-1.281s-1.522-.16-2.563 1.44c-1.041 1.602-1.362 2.324-2.563 2.564M308.253 424.427s-.161 3.444-1.442 5.205c-1.282 1.762-3.124 1.281-3.525-.56-.4-1.842.962-5.766 3.605-10.651s3.844-6.967 5.446-8.17c1.6-1.2 2.642-1.519 4.244 0 1.6 1.523 1.28 2.884.238 4.086-1.04 1.2-2.8 2.242-2.562 3.203.241.961 1.442 2.723 1.123 4.645-.321 1.921-1.523 2.882-2.484 2.882-.96 0-1.76-1.28-4.643-.64M333.557 437.72c-.098.876.16 2.723 1.682 4.645 1.522 1.923 1.522 3.123 3.605 4.164 2.08 1.04.88 1.682.157 3.444-.719 1.761-2.563.24-2.64-.962-.08-1.2-.882-2.482-1.603-3.923-.72-1.442-2.643-2.323-3.443-2.243s-1.601.08-1.442-1.762c.161-1.841-.4-2.001-1.36-2.882s-.402-2.162.48-3.364c.88-1.201 1.2-.961 2.963-.72 1.762.24 3.123-.401 3.764-2.563s1.842-2.002 3.523-3.043 1.762-2.643.96-3.844c-.8-1.2-.72-2.883.241-4.805.962-1.92 1.307-3.037-.401-4.564-1.52-1.36-2.88-1.122-3.683-.24-.8.881-1.12 4.644-1.04 7.927.08 3.284.24 4.405-.801 4.085-1.042-.321-1.922.32-3.044 1.44-1.121 1.122-1.922.562-1.922-.64 0-1.2 1.441-1.762 2.482-3.043s.482-2.963-.32-2.803c-.8.16-1.522.161-1.76-.48-.241-.64.639-1.361 1.839-2.643 1.203-1.28 1.924-2.082 1.924-3.204 0-1.119-.161-1.92-1.201-1.842-1.042.081-1.843 1.443-2.563 2.964-.722 1.522-1.763 2.403-2.883 3.284-1.122.88-1.361 1.761-1.282 3.203.08 1.441-.24 2.322-1.521 3.443-1.283 1.122-.882 2.643.561 3.204 1.442.56 1.36 1.6.56 2.401-.8.802-1.6 1.923-1.522 3.364.08 1.441.881 2.803.881 4.885s.962 3.684 2.242 4.085 2.563 1.681 2.563 3.523c0 1.84.481 2.883 2.24 3.043 1.764.16 2.885.8 3.927 3.764 1.04 2.963 2.473 4.564 3.924 4.564 2.002 0 2.802-2.562 2.882-4.805s.4-3.283 1.682-4.804c1.28-1.522 1.281-3.284-.16-4.885-1.442-1.602-3.123-2.483-2.963-4.965.16-2.483-.882-3.924-2.563-4.405-1.681-.48-4.804.56-4.965 2.002M320.264 448.531c-1 .801-1.52-1.041-3.124-1.041-1.6 0-2.883-.802-4.564-2.643-1.682-1.842-2.402-2.722-1.762-3.523s2.164-.56 3.205-1.121 2.32-2.483 2.721-3.204c.4-.72 1.923-.72 3.604.64 1.681 1.362 2.641 3.205 2.563 5.046-.08 1.842-1.843 5.205-2.643 5.846" style="fill:#66c430;fill-opacity:1;fill-rule:nonzero;stroke:none" transform="matrix(1.33333 0 0 -1.33333 -.667 1121.186)"></path><path d="M354.218 440.523c-1.706.775-2.564.08-4.003-2.322-1.443-2.403-2.242-2.483-3.845-2.323-1.6.16-2.963-.16-3.444-3.524s-.16-4.083.72-4.964c.882-.881 1.363.16 2.004 1.922.64 1.762 2.56 2.562 4.083 3.363 1.522.801 4.004 2.082 5.446 2.322 1.441.24 2.401-.8 1.602-1.44-.802-.642-2.883-.962-3.925-1.362s-2.002-1.842-1.441-2.242 1.92-.32 2.723-.4c.8-.081 1.522-2.163-.482-2.163-2 0-5.445-.16-6.725-.881-1.28-.72-3.123-3.203-3.524-5.846-.4-2.642.72-3.123 2.322-3.203 1.603-.081 2.962.08 5.845 1.922 2.885 1.841 4.005 2.402 3.925 4.084s.56 2.162 1.762 2.002c1.2-.16 2.963.24 4.085 1.121 1.12.881 1.28 3.203 1.76 4.324.482 1.121 2.402 2.643 2.723 4.485.32 1.841-.24 3.363-1.84 4.324-1.602.961-3.366 1.041-4.806.16s-3.204-.16-4.965.64M332.437 412.335c-1.09.272-1.202-.96-.721-1.842.48-.882 2.321 1.44.72 1.842M212.156 318.802c1.939.76 3.524 2.08 1.602 2.32-1.922.242-3.204.082-5.926-1.92s-4.164-1.842-6.086-1.601c-1.922.24-3.603.32-4.485-.722-.88-1.041-.56-1.683 0-2.562.56-.88.64-1.762-1.601-1.842-2.243-.08-3.684-1.282-3.925-2.483-.24-1.2.08-2.481 1.682-2.481s2.242-.962 1.682-1.843c-.56-.88-1.682-.961-2.803-1.762-1.121-.802-2.482-2.162-2.482-4.005 0-1.84.96-2.962 2.323-3.202 1.36-.24 2.482 1.44 3.763 3.605 1.281 2.16 1.682 2.883 2.883 3.442 1.2.56 1.842.32 1.681-1.521-.16-1.841.241-2.803 1.202-2.563.96.24 2.321 1.282 3.043 4.484.72 3.204 1.601 4.406 2.722 3.284s2.643-1.52 3.764-.48.4 2.962.4 4.564.881 2.163 1.842 1.761c.961-.4 2.163-1.04 3.764.961 1.602 2.002 1.922 3.046.72 3.365-1.2.32-6.405.079-7.767-1.282s-2.882-3.204-4.804-4.084-3.444-2.642-5.046-4.004-2.883-1.28-.48 1.52c2.402 2.805 5.364 5.205 6.886 6.167 1.521.96 3.604 2.163 5.446 2.884M358.063 354.756c-1.369.21-2.244.162-5.126-2.962-2.883-3.122-3.043-4.243-2.243-4.403.801-.162 3.123.56 5.847 1.36 2.72.8 4.323 1.282 6.165 3.283 1.843 2.003 3.363 3.445 2.963 1.362s.08-2.562 2.483-2.322 3.283.56 5.845 2.242c2.564 1.682 2.884.8 1.602-.962-1.283-1.76-2.722-3.283-5.285-3.682-2.562-.401-6.246-.8-9.128-.8-2.884 0-5.126-.802-5.207-1.602-.08-.802.562-1.523 2.403-1.523 1.842 0 4.005-.88 5.927-1.92 1.921-1.042 3.283-1.765 4.643-.08 1.362 1.68 1.522 3.281 2.563 3.281s2.082-.8 3.524-.96c1.44-.16 3.122-1.282 4.245.64 1.12 1.923.4 2.802.078 3.844-.32 1.042-.16 1.602 1.362 2.083 1.521.48 3.605 1.681 4.245 3.363s.32 3.523-1.042 4.244c-1.36.72-2.642.16-3.683-.882-1.042-1.04-2.323-.879-3.603-.159-1.282.72-2.804 1.041-4.245-.32s-2.001-1.444-3.605-.162c-1.6 1.282-2.642 1.202-4.643-.158-2.003-1.362-2.722-3.044-3.684-3.605-.96-.56-1.36.642-2.402.8" style="fill:#66c430;fill-opacity:1;fill-rule:nonzero;stroke:none" transform="matrix(1.33333 0 0 -1.33333 -.667 1121.186)"></path><path d="M396.5 354.437c-1.12.775-2.563-.162-3.362-1.682-.802-1.52-.562-3.122-2.243-3.283-1.682-.16-1.442 1.36-2.482 1.442-1.043.08-2.562.08-2.243-1.922.32-2.002.24-3.764-1.361-4.164-1.602-.4-4.085-.481-4.966-1.202-.88-.72-2.402-2.401-2.962-2.963-.56-.561-1.923-.64-2.884.161s-2.402 1.52-3.924.078c-1.52-1.44-3.364-2.8-3.442-3.682-.08-.881.4-1.282 2.321-1.282 1.923 0 6.567.32 8.088.961 1.522.641 1.282 1.922 2.162 2.964.882 1.04 1.842.56 2.403-.08s1.2-1.844 3.843.319c2.645 2.163 5.927 3.444 7.048 4.966 1.121 1.52 1.041 1.28 2.643 1.28s2.802-.32 2.722 2.803-.319 4.566-1.361 5.286" style="fill:#66c430;fill-opacity:1;fill-rule:nonzero;stroke:none" transform="matrix(1.33333 0 0 -1.33333 -.667 1121.186)"></path><path d="M373.678 333.696c-4.206-.258-4.887-.801-4.406-1.601.48-.801 1.123-1.282 3.605-1.44 2.482-.162 4.402-.242 5.044.88.642 1.12 2.003 1.2 3.044.16s1.521-2.803 3.442-2.642c1.923.158 3.445-.082 4.085 2.08s.64 3.845 1.522 4.724c.88.882 2.402 1.043 3.603 1.523 1.201.481 2.082.96 2.723 2.722.64 1.763.161 2.644-.56 3.204s-1.683.96-2.323-.56-1.441-2.883-2.882-3.044c-1.442-.159-3.124-1.282-5.526-2.803-2.403-1.521-6.167-2.882-11.371-3.203M329.473 316c-3.233-.77-3.603-2.004-2.643-2.403.961-.402 1.923-1.443.722-1.283-1.203.16-3.043.322-4.406.561-1.36.24-3.683-.24-5.205-1.361-1.521-1.121-2.962-1.362-4.724-1.362s-3.604-.72-4.404-1.28c-.802-.56-.801-1.763-.32-2.643.479-.88 1.442-2.001 3.042-2.001 1.602 0 2.241.64 3.444 1.36 1.2.72 2.242 1.281 3.203-.08.96-1.362 2.002-2.083 3.203-1.842 1.2.24 2.082.8 2.403 2.402.32 1.602 1.12 2.323 2.482 2.002 1.36-.32 4.245-.801 6.086-.159 1.842.64 3.284 2.001 3.284 3.363s-.882 2.242-1.762 3.203-1.042 2.323-4.405 1.523M329.393 305.028c-1.275.478-1.763-.721-.721-1.202 1.042-.48 2.643.48.72 1.202M328.912 301.104c-1.191.596-2.002.72-2.563 0-.56-.72-.721-1.362 1.043-2.643 1.76-1.281 3.923-3.042 4.643-3.684.722-.638 1.683-1.681 2.402 0 .721 1.682 1.283 3.925.721 4.406-.56.48-2.002.64-2.883.64-.88 0-1.92.56-3.363 1.28M330.354 293.656c-1.02.613-1.521.882-2.322-.241-.802-1.12-.721-2.48-.401-3.683.32-1.2 1.361-1.68 2.562-2.002 1.202-.32 2.163-.961 2.963-1.44.802-.482 2.563-.32 3.525.64.96.96 1.92 1.602 1.2 3.283-.719 1.682-1.842 2.083-2.321 2.322-.48.24-1.203-.079-1.282-1.201-.08-1.121-.801-1.522-1.602-.882-.802.64-1.121 2.483-2.322 3.204M339.482 307.75c-2.163-.044-3.522-.72-3.842-1.441-.32-.72.16-1.523 1.28-1.842 1.122-.32 4.726-1.522 6.326-2.402 1.603-.881 4.325-1.523 7.448-4.004 3.123-2.483 3.284-3.765 2.723-3.844s-1.762 1.04-5.045 3.043c-3.283 2.002-6.166 3.522-8.248 4.244-2.082.72-3.124-.56-2.643-1.281.48-.721 1.921-2.082 1.443-3.443-.48-1.361-.562-2.884.4-3.284.96-.401 1.2.643 2.24 1.121 1.042.48 1.923.08 1.923-2.002 0-2.08.882-3.923 1.761-4.644.88-.721 2.804-1.36 3.765-.721.96.64 2.082 1.92 2.883 2.002.8.08 1.521-.56 2.563-1.12 1.04-.56 3.041-1.043 4.163-.321 1.121.721 1.441 2.322 1.201 4.404-.241 2.08-1.76 3.604-2.963 4.565-1.2.961-2.162 2.403-2.401 4.243-.241 1.842-1.362 3.123-2.083 3.525-.72.4-1.603.24-2.803-.402-1.2-.641-2.482-.079-3.603 1.443-1.121 1.52-2.563 2.243-6.488 2.161M306.249 303.587c-1.627.746-3.123.08-3.123-1.041 0-1.122.64-1.361 2.483-2.402s4.326-2.564 5.527-2.564c1.2 0 4.164 1.441 3.843-1.281s1.761-1.84 3.203-3.924c1.441-2.081.561-3.284-.32-3.284-.882 0-1.523 1.042-2.482 2.322-.962 1.281-2.003 1.364-4.325 3.125s-3.524 1.92-3.764.96c-.241-.96-.241-3.203-.241-5.285 0-2.081 1.042-2.562 1.922-3.282.882-.723 1.682.238 2.083 1.28.4 1.04 1.841 1.44 2.162-.32.32-1.762 1.201-3.605 2.083-4.325.88-.721 2.08-.48 2.802.56.72 1.042 2.162 1.042 2.962-.48.801-1.521 2.322-2.803 3.204-2.643.88.16 1.921 2.243 1.442 4.405-.481 2.163-2.003 4.243-2.003 5.446 0 1.2 1.201 2.962 1.281 3.923.08.962-.08 1.763-1.602 2.403-1.52.64-2.962 1.282-4.564 3.204s-2.562 2.002-3.763 1.2c-1.202-.8-2.723-.88-4.085-.48-1.36.4-2.802 1.602-4.725 2.483M344.128 286.37c-1.361.033-2.563-.241-3.203-1.202-.642-.962-2.001-.882-3.363-1.041-1.362-.16-2.483-1.522-2.483-2.402 0-.882 1.04-1.921 2.402-1.921s2.562-.962 3.284-2.004c.72-1.04 1.76-2.161 3.443-2.002 1.68.161 2.563-.48 2.963-1.6.4-1.122 1.28-1.522 2.402-1.683 1.121-.16 1.68-.16 2.723 1.682 1.04 1.842.8 3.123-.4 3.763-1.202.642-2.404 1.842-1.443 2.723.962.881 1.121 1.842-.079 2.723-1.202.88-3.122 2.883-6.246 2.964" style="fill:#66c430;fill-opacity:1;fill-rule:nonzero;stroke:none" transform="matrix(1.33333 0 0 -1.33333 -.667 1121.186)"></path><path d="M363.106 336.259c-.88-.961-2-1.602-2.483-2.642-.48-1.042.962-2.403 1.363-3.685.4-1.283 2.162-.721 4.083-.24 1.922.48 2.402-1.042 5.126-1.441 2.721-.4 4.565-.321 6.326-.16 1.762.16 3.283-.48 4.645-1.68 1.361-1.202 2.643-1.202 4.004-.723 1.362.48 2.562.64 4.005-.32 1.44-.96 0-3.683 0-3.683s.879-1.12 2.482-2.003c1.6-.881 1.44-3.042.64-4.164s-1.602-2.243-2.883-2.243-2.563.641-3.602 1.122c-1.043.48-1.364-.4-2.804-1.922-1.442-1.52-2.723-.961-4.486.72-1.761 1.682-1.681 2.805-2.801 3.445-1.122.64-1.763-.402-2.643-1.763s-2.002-.4-4.084 1.843c-2.083 2.242-4.245 4.402-5.366 5.126-1.121.72-1.922-.642-2.082-2.325-.16-1.682.4-1.92 1.442-2.721 1.04-.8 2.322-.64 3.524-2.002 1.2-1.361 1.52-4.485 1.52-4.485s1.363-.562 2.963-1.921c1.602-1.363 2.402-2.644 1.602-3.524-.8-.882-1.842-2.163-1.682-2.722.161-.561 1.922-1.923 2.401-3.525.482-1.601-.158-4.004-2.24-5.526-2.082-1.52-3.444-.4-4.244.962-.802 1.362-2.403 2.003-3.924 1.762-1.521-.24-2.643.48-2.722 1.681s-1.363 2.162-2.804 2.964c-1.44.8-1.6 2.082-1.522 4.885.081 2.802-1.119 3.523-3.204 2.802-2.082-.72-3.522-.08-4.323.641-.8.72-.56 2.803.08 3.283s.961 1.762.24 2.322c-.72.561-1.28.72-2.722-.72-1.442-1.442-2.002-.161-3.043 1.281s-.08 1.682 1.762 3.603c1.841 1.922 3.122 1.442 4.565.402 1.44-1.042 2-.082 2.962 1.2.96 1.281 3.522 1.683 5.605 2.562 2.082.88 4.324 1.442 6.326 1.36 2.002-.08 2.404-.559 4.886-3.041 2.483-2.483 2.963-1.44 3.603 0s2.964.88 4.725.078c1.761-.8 3.202-1.2 5.686-1.2 2.482 0 .32 1.522-2.484 2.803-2.801 1.28-4.803 1.122-6.566 1.122-1.76 0-4.083.16-5.444.8-1.362.64-2.724 1.681-4.165 1.681s-3.284-.08-4.084.082c-.801.158-1.921 1.762-2.323 2.321-.399.559-3.044.16-4.564-.48-1.522-.64-1.441-.64-.56-1.84.88-1.202.56-2.244-.162-2.885-.72-.641-2.321-1.28-3.282-.96s-2.643 1.681-3.363 1.681-1.041-.32-2.563-2.723-2.884-1.601-3.683-.64c-.802.962-1.764 2.482-1.683 3.683s1.362 2.323 3.925 4.164c2.561 1.841 4.164 1.442 5.604 1.442 1.443 0 2.324-.241 2.324.481 0 .72.72 1.762 2.242 2.402 1.52.64 2.483 1.28 2.483 2.242 0 .96-1.362.8-2.804.08-1.44-.72-4.084-1.12-6.166-2.402-2.083-1.28-3.364-1.122-4.164-.56-.8.56-1.2-.562-2.563-2.724-1.361-2.162-2.963-3.282-4.323-4.083-1.36-.8-3.605-.16-4.165.639-.56.8-.16 3.925.881 6.728s2.402 2.481 4.485 2.24c2.083-.238 2.561.241 3.283 2.085.72 1.842 1.44 2.721 2.802 3.843 1.362 1.12 2.724 1.12 3.764-.242 1.041-1.36 2.323-1.12 3.364-.159 1.04.96 2.322 2.644 3.443 2.883 1.12.24 2.082-.642 2.722-2.162.641-1.522 1.361-1.442 2.163-.961.8.48 2.24.905 4.244 0 2.482-1.121 1.362-3.283.48-4.244m-4.939-19.536c-1.742.29-2.417-.582-2.167-1.416s2.501-1.834 3.917-2.834 2.75-3.916 3.083-5.416.167-4.334 1.667-5.584 3.916-3 4.333-2.5.25 2.25-.5 4.084-2.083 4-2.75 6.333-1.75 3.584-3.25 4.917-2.833 2.166-4.333 2.416" style="fill:#66c430;fill-opacity:1;fill-rule:nonzero;stroke:none" transform="matrix(1.33333 0 0 -1.33333 -.667 1121.186)" data-source="https://football-logos.cc"></path><!-- source: https://football-logos.cc --></svg>