<svg xmlns="http://www.w3.org/2000/svg" viewBox="0.01 0 715.8 776.6"><!-- Source: https://football-logos.cc --><defs data-source="https://football-logos.cc"><style>.cls-1{fill:#c99f69}.cls-2{fill:#fff}.cls-4{fill:#80132a}.cls-5{fill:#010101}.cls-6{fill:#c72030}</style></defs><path d="M353.18 674.71c-3.88-.64-39.07-6.58-84.06-19.66-60.5-17.6-110.33-39.54-148.11-65.22-22.48-15.28-35.9-40.67-35.9-67.92V5.05h545.53v516.86c0 27.26-13.42 52.66-35.9 67.92-37.77 25.67-87.6 47.61-148.1 65.21-45 13.09-80.23 19.03-84.1 19.67l-4.66.75-4.7-.76Z" class="cls-2"></path><path d="M625.61 10.1v511.81c0 25.59-12.6 49.42-33.69 63.74-37.34 25.38-86.68 47.09-146.68 64.54-44.68 13-79.61 18.9-83.51 19.53l-.96.15-2.88.46-2.88-.46-1.03-.16c-3.83-.63-38.76-6.53-83.44-19.52-59.99-17.45-109.34-39.17-146.68-64.54-21.1-14.34-33.69-38.17-33.69-63.74V10.1zM635.7 0H80.07v521.91c0 28.92 14.25 55.87 38.11 72.1 38.21 25.97 88.52 48.14 149.54 65.89 45.27 13.17 80.73 19.15 84.63 19.79l1.07.17 2.88.46 1.6.26 1.6-.26 2.88-.46.96-.15c3.94-.65 39.45-6.64 84.73-19.81 61.01-17.75 111.32-39.92 149.53-65.89 23.86-16.21 38.11-43.16 38.11-72.1V0Z" class="cls-5"></path><path d="M715.79 593.9a181.6 181.6 0 0 1-64.83 78.5c-46.45 31.59-105.81 58-176.39 78.52-49.6 14.44-88.64 21.16-95.95 22.36l-.12.02-.12.02-.97.16-2.87.44-2.57.42-2.24.36-11.85 1.9-11.84-1.92-2.24-.34-2.54-.42-2.91-.46-1.13-.18-.12-.02-.1-.02c-7.31-1.19-46.21-7.9-95.79-22.32-70.57-20.52-129.92-46.94-176.39-78.52A181.7 181.7 0 0 1 .01 593.88l63.11-45.84c6.34 25.24 21.71 47.6 43.72 62.57 39.97 27.16 92.2 50.25 155.25 68.59 46.41 13.49 82.99 19.67 87.01 20.32l1.11.18 2.89.46 2.57.42 2.24.34 2.24-.34 2.54-.42 2.89-.46.95-.14c4.08-.67 40.76-6.87 87.19-20.36 63.05-18.34 115.28-41.42 155.25-68.59 22.02-14.95 37.38-37.3 43.71-62.57l63.13 45.86Z" class="cls-5"></path><path d="M60.47 634.53c-3.65-.3-6.95-1.99-9.7-5.09-6.24-7.03-5.54-16.64.69-22.17 6.08-5.4 15.53-5.28 21.65 1.61 3.95 4.45 4.19 9.16 3.96 10.64l-4.29.32c.14-2.85-1.02-5.77-3.01-8.01-4.33-4.88-10.64-4.41-14.77-.74-4.53 4.03-5.15 10.68-.79 15.58 2.42 2.73 5.5 3.94 7.13 4.04l-.88 3.81ZM65.84 643.13l17.42-23.23 5.07 3.8c5.49 4.12 8.37 9.11 4.16 14.73-3.5 4.66-8.79 5.64-15.05.94l-1.69-1.27-5.98 7.98zm14.18-7.39c3.41 2.55 6.48 2.03 8.35-.45 1.77-2.36 1.29-4.98-1.66-7.19l-2.21-1.66-6.08 8.1zM89.75 659.95l14.86-24.96 7.22 4.3c7.45 4.44 10.95 12.37 6.08 20.55-4.71 7.91-13.06 9.11-21.57 4.04l-6.6-3.92Zm9.43.44c4.98 2.96 10.57 2.95 14.3-3.32 3.08-5.18 1.51-10.71-3.5-13.7l-3.43-2.04-10.3 17.31zM153.61 681.42l1.75-3.8 11.43 5.28c-4.85 10.23-13.1 11.54-19.62 8.53-7.98-3.68-11.45-12.64-7.93-20.28 3.55-7.7 12.55-11.07 20.6-7.36 6.38 2.94 8.4 7.9 8.52 8.2l-3.81 2.3c-.06-.33-1.66-4.19-6.51-6.43-5.75-2.66-11.51-.07-14.08 5.51-2.16 4.67-.78 11.31 5.11 14.03 4.5 2.08 9.21.83 11.3-2.86zM184.82 706.53l-5.22-13.62-.71-.28-3.95 9.99-4.57-1.81 10.68-27.01 5.71 2.26c5 1.97 10.95 5.81 8.15 12.88-1.47 3.71-5.76 6.1-10.23 5.2l6.45 14.89-6.32-2.5Zm-2.58-17.16c4.03 1.59 6.85.32 7.79-2.08 1.14-2.89-.07-5.14-3.96-6.68l-2.11-.83-3.52 8.89 1.79.71ZM198.19 711.5l9.56-27.34 15.86 5.55-1.47 4.2-11.22-3.93-2.28 6.52 9.05 3.16-1.47 4.2-9.05-3.17-2.88 8.22 12.38 4.33-1.47 4.2-17.02-5.95ZM227.6 714.18c.95 1.74 2.94 4.25 6.17 5.25 2.93.91 5.06 0 5.77-2.27.99-3.19-1.29-4.9-3.63-7.19-2.99-2.93-5.91-5.93-4.57-10.26 1.5-4.84 6.78-6.05 11.29-4.65 4.14 1.29 6.16 4.6 6.54 5.45l-3.35 2.78c-.96-1.82-2.44-3.41-4.45-4.03s-4.39-.36-5.05 1.77c-1.62 5.24 11.27 7.83 8.23 17.62-1.3 4.18-6.12 6.9-12.42 4.94-3.99-1.24-7.11-4.78-8.05-6.8l3.54-2.6ZM252.68 729.05l7.73-27.96 15.94 4.41-1.19 4.29-11.2-3.1-1.88 6.8 9.06 2.51-1.2 4.33-9.06-2.51-3.47 12.54zM291.67 739.87c-8.58-2.04-13.82-10.34-11.91-18.41 1.92-8.1 10.34-13.16 18.93-11.11 8.51 2.02 13.78 10.02 11.76 18.53-1.91 8.02-10.49 12.96-18.78 10.99m5.99-25.19c-5.67-1.35-11.4 2.02-12.79 7.84-1.31 5.52 2.03 11.68 7.56 12.99 5.9 1.4 11.58-2.1 12.95-7.88 1.44-6.04-2.16-11.63-7.72-12.96ZM332.78 747.93l-7.66-12.41-.76-.14-2.03 10.55-4.82-.93 5.48-28.53 6.03 1.16c5.28 1.01 11.84 3.68 10.4 11.14-.75 3.92-4.52 7.07-9.08 7.01l9.1 13.43-6.67-1.28Zm-5.72-16.38c4.26.82 6.79-.96 7.28-3.49.59-3.05-1.02-5.04-5.13-5.83l-2.22-.43-1.8 9.39 1.88.36ZM350.16 750.03l1.24-29.02 8.4.36c8.66.37 15.5 5.7 15.09 15.21-.39 9.2-7.18 14.21-17.07 13.78l-7.67-.33Zm8.51-4.1c5.79.25 10.71-2.42 11.02-9.71.26-6.02-3.75-10.15-9.58-10.4l-3.99-.17-.86 20.13zM420.92 739.99l-3.82-4.96-13.14 2.93-1.31 6.11-5.35 1.19 7.95-32.75 21.03 26.28-5.35 1.19Zm-12.81-16.75c-.27-.33-.67-.91-.79-1.24 0 .35-.17 1.02-.26 1.47l-2.08 9.7 9.17-2.04zM438.2 735.73l-6.11-23.79-8.29 2.13-1.11-4.31 21.3-5.47 1.11 4.31-8.25 2.12 6.11 23.79zM478.5 724.51l-3.57-12.07-13.17 3.89 3.57 12.07-4.71 1.39-8.24-27.85 4.71-1.39 3.41 11.52 13.17-3.9-3.41-11.52 4.71-1.39 8.24 27.85-4.71 1.39ZM494.88 719.3l-9.27-27.49 4.66-1.57 7.85 23.27 11.53-3.89 1.42 4.22-16.18 5.46ZM520.12 710.57l-10.26-27.08 15.71-5.95 1.58 4.16-11.12 4.22 2.45 6.46 8.97-3.4 1.58 4.16-8.97 3.4 3.09 8.14 12.27-4.65 1.58 4.16-16.86 6.39ZM552.6 697.75l-9.7-22.56-7.86 3.38-1.76-4.09 20.2-8.69 1.76 4.09-7.83 3.36 9.7 22.56-4.51 1.94ZM574.47 687.94l-12.55-26.2 4.43-2.12 12.55 26.2zM610.79 665.46c-1.11 3.49-3.51 6.32-7.15 8.3-8.26 4.49-17.46 1.63-21.44-5.68-3.89-7.15-1.63-16.33 6.46-20.73 5.23-2.84 9.88-2.01 11.27-1.45l-.66 4.25c-2.74-.78-5.85-.31-8.48 1.12-5.73 3.12-6.7 9.37-4.06 14.22 2.9 5.33 9.24 7.43 15 4.29 3.2-1.74 5.08-4.47 5.54-6.03l3.51 1.72ZM635 654.11l-16.94-23.55 13.43-9.66 2.6 3.61-9.44 6.79 4.12 5.73 7.63-5.49 2.62 3.65-7.63 5.49 7.59 10.56-3.99 2.87ZM670.36 618.08c.03 3.67-1.36 7.1-4.2 10.12-6.45 6.85-16.09 7-22.15 1.29-5.92-5.58-6.65-15.01-.33-21.72 4.08-4.33 8.76-4.99 10.25-4.9l.7 4.24c-2.85.11-5.66 1.53-7.71 3.71-4.47 4.75-3.44 10.99.58 14.78 4.42 4.16 11.1 4.17 15.6-.6 2.5-2.66 3.44-5.83 3.39-7.46l3.87.53Z" class="cls-2"></path><path d="M102.29 521.91c0 21.55 10.61 41.64 28.39 53.72 86.6 58.86 219.65 81.21 225.3 82.14l1.92.31 1.95-.31c5.62-.92 138.67-23.27 225.27-82.13 17.77-12.07 28.39-32.15 28.39-53.72V22.22H102.29v499.7Zm12.11-52.07 53.47-27.25c-1.6-2.96-3.13-5.95-4.6-8.99l-48.88 24.91v-33.98l39.75-12.92c-1.11-3.17-2.16-6.37-3.13-9.6l-36.62 11.9v-30.12l31.06-4.92c-.6-3.3-1.13-6.62-1.57-9.97l-29.49 4.67v-28.4h27.63c-.04-1.68-.07-3.36-.07-5.05s.03-3.37.07-5.05h-27.63v-28.4l29.49 4.67c.45-3.35.97-6.67 1.57-9.97l-31.06-4.92v-30.13l36.62 11.9c.97-3.23 2.01-6.43 3.13-9.6l-39.75-12.92v-33.97l48.88 24.9c1.46-3.04 3-6.04 4.6-8.99l-53.47-27.25v-40.93l65.96 47.92c1.92-2.77 3.9-5.49 5.95-8.16l-71.9-52.24v-53.2l87.35 87.35c2.33-2.43 4.71-4.82 7.14-7.14L114.41 89.5V34.35h15.08l97.5 134.19c2.67-2.04 5.39-4.03 8.16-5.95L141.97 34.33h54.45l58.99 115.77c2.96-1.6 5.95-3.13 8.99-4.6L207.76 34.33h45.47l33.16 102.04c3.17-1.11 6.37-2.16 9.6-3.13l-32.14-98.92h40.5l14.78 93.35c3.3-.6 6.62-1.12 9.97-1.57l-14.54-91.78h38.27v89.92a212 212 0 0 1 10.1 0V34.33h38.27l-14.54 91.78c3.35.45 6.67.97 9.97 1.57l14.79-93.35h40.5l-32.14 98.92c3.23.97 6.44 2.01 9.6 3.13l33.16-102.04h45.47l-56.64 111.17c3.04 1.46 6.03 3 8.99 4.6l58.99-115.77h54.45l-93.18 128.25c2.77 1.92 5.49 3.9 8.16 5.95l97.5-134.2h15.08v55.15l-94.5 94.49c2.44 2.33 4.82 4.7 7.14 7.14l87.35-87.35v53.2l-71.9 52.24c2.04 2.67 4.03 5.39 5.95 8.16l65.96-47.92v40.93l-53.48 27.25c1.6 2.96 3.13 5.95 4.6 8.99l48.88-24.9v33.98l-39.75 12.92c1.11 3.17 2.16 6.37 3.13 9.6l36.62-11.9v30.13l-31.06 4.92c.6 3.3 1.12 6.62 1.57 9.97l29.49-4.67v28.4h-27.63a212 212 0 0 1 0 10.1h27.63v28.4l-29.49-4.67c-.45 3.35-.97 6.67-1.57 9.97l31.06 4.92v30.13l-36.63-11.9c-.97 3.23-2.01 6.43-3.13 9.6l39.75 12.92v33.97l-48.88-24.91c-1.46 3.04-3 6.03-4.6 8.99l53.48 27.25v40.93l-65.96-47.92c-1.92 2.77-3.9 5.49-5.95 8.16l71.86 52.21c-.34 14.11-6.26 27.34-16.28 36.91l-71.03-71.03c-2.33 2.43-4.71 4.82-7.14 7.14l70.19 70.19c-10.73 7.21-22.17 13.85-34 19.96l-54.28-74.71c-2.67 2.04-5.39 4.03-8.16 5.95l53.29 73.34c-11.42 5.56-23.11 10.64-34.76 15.26l-38.78-76.12c-2.96 1.6-5.95 3.13-8.99 4.6l38.31 75.19c-11.87 4.48-23.61 8.48-34.92 12.05l-25.38-78.11c-3.17 1.11-6.37 2.16-9.6 3.13l25.33 77.96a796 796 0 0 1-35.46 9.77l-13.01-82.16c-3.3.6-6.62 1.12-9.97 1.57l13.15 83c-23.87 5.68-40.07 8.4-41.92 8.7-1.96-.32-18.13-3.04-41.93-8.71l13.15-83c-3.35-.45-6.68-.97-9.97-1.57l-13.01 82.16a796 796 0 0 1-35.46-9.77L296 546.96c-3.23-.97-6.44-2.01-9.6-3.13l-25.38 78.11c-11.3-3.57-23.05-7.58-34.92-12.05l38.31-75.19c-3.04-1.47-6.04-3-8.99-4.6l-38.79 76.12c-11.65-4.62-23.33-9.7-34.76-15.26l53.29-73.34c-2.77-1.92-5.49-3.9-8.16-5.95l-54.27 74.7c-11.83-6.11-23.28-12.75-34.01-19.97l70.19-70.19c-2.43-2.32-4.81-4.71-7.14-7.14l-71.03 71.03c-10.02-9.57-15.94-22.8-16.28-36.9l71.86-52.21c-2.05-2.67-4.03-5.39-5.95-8.16l-65.96 47.92v-40.93Z" class="cls-1"></path><path d="M180.18 462.6c.06.08.12.16.18.25 1.92 2.77 3.9 5.49 5.95 8.16.06.08.12.17.18.25 4.71 6.14 9.73 12.03 15.05 17.62.07.07.15.14.22.22 2.33 2.43 4.71 4.82 7.14 7.14.08.07.14.15.22.22 5.6 5.33 11.48 10.35 17.62 15.06.08.06.17.12.25.18 2.67 2.04 5.39 4.03 8.16 5.95.08.06.16.12.25.18a216 216 0 0 0 19.74 12.16c.09.05.18.09.27.14 2.96 1.6 5.95 3.13 8.99 4.6.09.04.18.09.27.14 6.94 3.34 14.09 6.3 21.42 8.89.1.03.2.07.29.1 3.17 1.11 6.37 2.16 9.6 3.13.1.03.2.06.29.09 7.36 2.2 14.88 4.01 22.55 5.42.1.02.2.03.3.05 3.3.6 6.62 1.12 9.97 1.57.1.01.2.03.3.04 9.32 1.23 18.83 1.88 28.48 1.88s19.16-.65 28.48-1.88c.1-.01.2-.03.3-.04 3.35-.45 6.67-.97 9.97-1.57.1-.02.2-.03.3-.05 7.66-1.41 15.19-3.22 22.55-5.42.1-.03.2-.06.29-.09 3.23-.97 6.44-2.01 9.6-3.13.09-.03.19-.06.29-.1 7.33-2.59 14.48-5.56 21.42-8.89.09-.04.18-.09.28-.14 3.04-1.47 6.03-3 8.99-4.6.09-.05.18-.09.27-.14a215 215 0 0 0 19.74-12.16c.09-.06.16-.12.25-.18 2.77-1.92 5.49-3.9 8.16-5.95.08-.06.17-.12.25-.18 6.14-4.71 12.03-9.73 17.62-15.05.08-.07.14-.15.22-.22 2.43-2.32 4.81-4.71 7.14-7.14.07-.07.15-.14.22-.22 5.33-5.59 10.35-11.48 15.06-17.62.06-.08.12-.17.18-.25 2.04-2.67 4.03-5.39 5.95-8.16.06-.08.12-.16.18-.25a216 216 0 0 0 12.16-19.74c.05-.09.09-.18.14-.27 1.6-2.96 3.13-5.95 4.6-8.99.04-.09.09-.18.14-.28 3.34-6.94 6.3-14.09 8.89-21.42.03-.1.07-.19.1-.29 1.11-3.17 2.16-6.37 3.13-9.6.03-.1.06-.2.09-.29 2.2-7.36 4.01-14.89 5.42-22.55.02-.1.03-.2.05-.3.6-3.3 1.12-6.62 1.57-9.97.01-.1.03-.2.04-.3 1-7.59 1.62-15.31 1.81-23.12v-.31a212 212 0 0 0 0-10.1v-.31c-.19-7.82-.81-15.53-1.81-23.12-.01-.1-.03-.2-.04-.3-.45-3.35-.97-6.67-1.57-9.97-.02-.1-.03-.2-.05-.3-1.41-7.67-3.22-15.19-5.42-22.55-.03-.1-.06-.2-.09-.29a211 211 0 0 0-3.23-9.89c-2.59-7.33-5.56-14.48-8.89-21.42-.04-.09-.09-.18-.14-.27-1.47-3.04-3-6.04-4.6-8.99-.05-.09-.09-.18-.14-.27a216 216 0 0 0-12.16-19.74c-.06-.08-.12-.16-.18-.25-1.92-2.77-3.9-5.49-5.95-8.16-.06-.08-.12-.17-.18-.25-4.71-6.14-9.73-12.03-15.06-17.62-.07-.07-.15-.14-.22-.22-2.33-2.43-4.71-4.82-7.14-7.14-.07-.07-.14-.15-.22-.22a214 214 0 0 0-17.62-15.05c-.08-.06-.17-.12-.25-.18-2.67-2.04-5.39-4.03-8.16-5.95-.08-.06-.16-.12-.25-.18a216 216 0 0 0-19.74-12.16c-.09-.05-.18-.09-.27-.14-2.96-1.6-5.95-3.13-8.99-4.6-.09-.04-.18-.09-.28-.14a213 213 0 0 0-21.42-8.89c-.1-.03-.2-.07-.29-.1-3.17-1.11-6.37-2.16-9.6-3.13l-.29-.09c-7.36-2.2-14.89-4.02-22.55-5.42-.1-.02-.2-.03-.3-.05-3.3-.6-6.62-1.12-9.97-1.57-.1-.01-.2-.03-.3-.04-7.59-1.01-15.31-1.62-23.12-1.81h-.31a212 212 0 0 0-10.1 0h-.31c-7.82.19-15.53.81-23.12 1.81-.1.01-.2.03-.3.04-3.35.45-6.67.97-9.97 1.57-.1.02-.2.03-.3.05-7.67 1.41-15.19 3.23-22.55 5.42l-.29.09c-3.23.97-6.44 2.01-9.6 3.13-.1.03-.2.07-.29.1a213 213 0 0 0-21.42 8.89c-.09.04-.18.09-.28.14-3.04 1.46-6.04 3-8.99 4.6-.09.05-.18.09-.27.14a215 215 0 0 0-19.74 12.16c-.08.06-.16.12-.25.18-2.77 1.92-5.49 3.9-8.16 5.95-.08.06-.17.12-.25.18-6.14 4.71-12.03 9.73-17.62 15.05-.07.07-.14.15-.22.22q-3.645 3.48-7.14 7.14c-.07.07-.15.14-.22.22-5.33 5.6-10.35 11.48-15.06 17.62-.06.08-.12.17-.18.25-2.04 2.67-4.03 5.39-5.95 8.16-.06.08-.12.16-.18.25-4.39 6.35-8.45 12.93-12.16 19.74-.05.09-.09.18-.14.27-1.6 2.96-3.13 5.95-4.6 8.99-.05.09-.09.18-.14.27-3.33 6.94-6.3 14.09-8.89 21.42-.03.1-.06.19-.1.29-1.11 3.17-2.16 6.37-3.13 9.6-.03.1-.06.2-.09.29-2.2 7.36-4.02 14.89-5.42 22.55-.02.1-.03.2-.05.3-.6 3.3-1.13 6.62-1.57 9.97-.01.1-.03.2-.04.3-1.01 7.59-1.62 15.31-1.81 23.12v.31c-.04 1.68-.07 3.36-.07 5.05s.03 3.37.07 5.05v.31c.19 7.82.81 15.53 1.81 23.12.01.1.03.2.04.3.45 3.35.97 6.67 1.57 9.97.02.1.03.2.05.3 1.4 7.67 3.23 15.19 5.42 22.55.03.1.06.2.09.29.97 3.23 2.01 6.43 3.13 9.6.03.1.07.19.1.29 2.59 7.33 5.56 14.48 8.89 21.42.05.09.09.18.14.28 1.46 3.04 3 6.03 4.6 8.99.05.09.1.18.14.27a215 215 0 0 0 12.16 19.74Zm-27.5-122.49c0-113.15 92.06-205.21 205.21-205.21S563.1 226.96 563.1 340.11s-92.06 205.21-205.21 205.21-205.21-92.06-205.21-205.21" style="fill:#076d3a" data-source="https://football-logos.cc"></path><path d="M351.11 585.22v-2.04c1.56-.67 4.45-2.81 6.08-4.61 2.07-2.28 2.93-4.09 2.93-6.15 0-1.51-1.03-2.84-2.62-2.84-1.71 0-3.05 1.13-3.78 1.97l-1.59-2.14c.91-.89 2.91-2.55 5.67-2.55 3.41 0 5.77 2.48 5.77 5.55 0 3.27-2.72 6.15-4.06 7.55-.89.94-1.99 1.88-2.81 2.55l7.52-.03v2.74H351.1ZM361.18 592.07c-.67.77-3.05 3.22-4.38 5.31.72-.22 1.44-.31 2.09-.31 3.36 0 5.58 2.69 5.58 6.03 0 3.15-2.81 5.96-6.51 5.96s-6.61-2.84-6.61-6.3c0-4.83 6.56-11.59 7.59-12.64l2.23 1.95Zm-.12 11.03c0-1.83-1.2-3.41-3.15-3.41s-3.2 1.49-3.2 3.41c0 1.78 1.44 3.22 3.24 3.22s3.1-1.51 3.1-3.22ZM361.18 615.52c-.67.77-3.05 3.22-4.38 5.31.72-.22 1.44-.31 2.09-.31 3.36 0 5.58 2.69 5.58 6.03 0 3.15-2.81 5.96-6.51 5.96s-6.61-2.84-6.61-6.3c0-4.83 6.56-11.59 7.59-12.64l2.23 1.95Zm-.12 11.03c0-1.83-1.2-3.41-3.15-3.41s-3.2 1.49-3.2 3.41c0 1.78 1.44 3.22 3.24 3.22s3.1-1.51 3.1-3.22ZM237.11 204.54c-.29-4-4.23-6.4-8.08-6.4s-7.79 2.4-8.08 6.4c-.73 10.08-3.84 7.92-3.39 14.41 0 0 7.6.57 11.47.57s11.47-.57 11.47-.57c.45-6.49-2.66-4.34-3.39-14.41M494.83 204.54c-.29-4-4.23-6.4-8.08-6.4s-7.79 2.4-8.08 6.4c-.73 10.08-3.84 7.92-3.39 14.41 0 0 7.6.57 11.47.57s11.47-.57 11.47-.57c.45-6.49-2.66-4.34-3.39-14.41M237.11 463.9c-.29-4-4.23-6.4-8.08-6.4s-7.79 2.4-8.08 6.4c-.73 10.08-3.84 7.92-3.39 14.41 0 0 7.6.57 11.47.57s11.47-.57 11.47-.57c.45-6.49-2.66-4.34-3.39-14.41M494.83 463.9c-.29-4-4.23-6.4-8.08-6.4s-7.79 2.4-8.08 6.4c-.73 10.08-3.84 7.92-3.39 14.41 0 0 7.6.57 11.47.57s11.47-.57 11.47-.57c.45-6.49-2.66-4.34-3.39-14.41M183.16 334.22c-.29-4-4.23-6.4-8.08-6.4s-7.79 2.4-8.08 6.4c-.73 10.08-3.84 7.92-3.39 14.41 0 0 7.6.57 11.47.57s11.47-.57 11.47-.57c.45-6.49-2.66-4.34-3.39-14.41M365.97 151.41c-.29-4-4.23-6.4-8.08-6.4s-7.79 2.4-8.08 6.4c-.73 10.08-3.84 7.92-3.39 14.41 0 0 7.6.57 11.47.57s11.47-.57 11.47-.57c.45-6.49-2.66-4.34-3.39-14.41M365.97 517.03c-.29-4-4.23-6.4-8.08-6.4s-7.79 2.4-8.08 6.4c-.73 10.08-3.84 7.92-3.39 14.41 0 0 7.6.57 11.47.57s11.47-.57 11.47-.57c.45-6.49-2.66-4.34-3.39-14.41M548.78 334.22c-.29-4-4.23-6.4-8.08-6.4s-7.79 2.4-8.08 6.4c-.73 10.08-3.84 7.92-3.39 14.41 0 0 7.6.57 11.47.57s11.47-.57 11.47-.57c.45-6.49-2.66-4.34-3.39-14.41" class="cls-1"></path><path d="M279.22 227.53s3.45 6.72 12.78 11.52l-1.25-5.79s9.64 3.11 23.75-2.22c11.93-4.51 18.02-9.25 23.63-6.62 0 0-2.42-6.86-21.76 1.58-18 7.86-25.08 2.12-25.08 2.12l5.18-4.32-17.26 3.73Z" class="cls-6"></path><path d="m496.88 265.47-23.57 44.59 15.67-4.28c-.08 9.9-7.07 21.77-7.07 21.77-12.32-11.17-27.93-9.27-37.46 2.69-9.55 11.94-1.27 30.48 15.01 29.97 13.94-.44 21.59-14.89 21.59-14.89 3.66 21.27-16.68 31.32-45.97 18.36-14.84-6.56-29.33-17.33-42.35-28.92-1.52-1.33-3.01-2.69-4.48-4.04 8.42-4.5 16.76-3.98 22.66-2.54 4.97 1.21 8.18 3.05 8.18 3.05 7.01-29.79 41.24-25.08 41.24-25.08-12.8-42.57 23.31-65.56 23.31-65.56-50.65-3.86-54.31-50.75-54.31-50.75s-47.58 15.37-45.32 76.64c.48 13.07-4.77 17.29-15.59 20.66-4.16 1.29-9.13 2.46-14.95 3.96-.69-2.5-.91-5.03-.73-7.55 0-.08.02-.14.02-.22 4.08-1.66 15.49-5.8 21.77-3.17-.24-.61-4.48-10.14-17.87-10.16 1.15-2.44 2.51-4.89 3.9-7.27 3.55-1.37 11.71-4.14 16.32-2.2-.32-.4-4.89-5.8-10.3-7.41 1.9-3.01 3.7-5.94 5.17-8.77 3.64-.95 7.82-1.54 10.64-.36-.28-.34-3.67-4.34-8.04-6.5.79-3.39.89-6.75.51-9.94 3.33-.79 6.95-1.15 9.47-.1-.34-.42-5.47-6.44-11.29-7.67-1.23-3.47-2.89-6.58-4.59-9.19 13.9-6.36 8.85-25.14 8.85-25.14-.48 2.18-5.27 4.56-11.19 6.73-5.66 2.08-10.8 6.08-10.8 6.08-3.7 1.21-21.55.08-29.63.12-8.08.02-11.53 9.51-11.53 9.51-31.57-.87-33.87 12.93-33.87 12.93 4.52-3.96 18.82-2.14 18.82-2.14.16 6.68 9.17 5.67 9.17 5.67 13.91-2.5 19.01-9.51 27.43-6.79 8.42 2.71 6.85 9.33 6.85 9.33-10.06-2.38-18.98 6.91-24.62 8.36-5.66 1.47-8.97-1.49-8.97-1.49-.48 5.94 5.94 15.67 5.94 15.67 9.98-11.63 19.67-12.3 26.28-10.6a23.5 23.5 0 0 1 5.67 2.26c-.73 1.37-1.68 2.44-2.65 3.29-2.08 1.82-4.22 2.48-4.22 2.48-30.34 12.1-19.55 21.51-19.55 21.51-20.68 3.25-24.64 10.46-24.52 15.67.06 1.64.51 3.09.97 4.18-1.96-.42-3.9-.91-5.78-1.39-24.72-6.54-39.52-17.45-39.52-17.45-.16-7.82 8.46-10.77 9.69-16.99 3.61-18.3-11.21-17.25-11.21-17.25 5.13 6.12 3.45 9.88 3.45 9.88-6.42-1.64-5.09 14.52-5.09 14.52s-1.05-8.68-4.58-15.77c-5.84-11.79-19.39-4-19.39-4 8.26.08 10.8 6.1 10.8 6.1s-6.1 4-1.19 8.26c6 5.19 7.53 15.71 7.53 15.71-7.05-3.76-5.47-11.75-16.6-12.08-11.11-.34-15.59 15.81-13.61 13.51 4.87-5.7 11.37-4.4 11.37-4.4.93 8.87 8.99 4.06 8.99 4.06l4.51 3.29a5.12 5.12 0 0 1 1.7 6.04l-2.3 5.59c-4.73.4-8.97 4.12-7.71 7.9.87 2.58-9.41 5.39-9.41 5.39 21.57 7.96 28.52-15.89 28.52-15.89s12.78 10.38 26.19 21.04c1.66 1.31 3.31 2.62 4.99 3.94-.71 2.04-.87 4-.65 5.8.57 5.41 4.28 9.71 6.95 12.16-20.84 18.18-43.99 27.61-43.99 27.61-9.82-5.37-5.88-14.46-11.47-18.84-16.46-12.89-23.49 2.99-23.49 2.99 8.68-2 11.61 1.55 11.61 1.55-4.5 5.17 9.41 11.35 11.63 12.3-1.7-.57-9.88-3.19-17.77-3.25-14.78-.12-13.83 17.39-13.83 17.39 4.24-8.24 11.55-7.73 11.55-7.73s.93 8.1 7.65 5.37c8.24-3.37 19.53.42 19.53.42-7.31 5.15-14.5-.47-20.46 10.48-5.98 10.93 7.9 23.61 6.6 20.46-3.21-7.78 1.37-13.59 1.37-13.59 9.33 3.55 8.6-6.93 8.6-6.93l9.55-4.87 10.93 2.1c-1.98 4.93 1.21 7.55 5.64 8.24 2.91.42.83 11.27.67 12.1 19.93-25.61-6.73-26.64-6.73-26.64s19.37-8.62 38.11-17.27c1.11-.53 2.26-1.05 3.37-1.58 1.19-.57 2.36-1.07 3.49-1.52l2.24 3.82c.26.48.54.95.83 1.37 10.12 15.83 28.52 10.14 28.52 10.14.73.85 1.46 1.59 2.2 2.26 1.6 1.45 3.23 2.44 4.81 3.11-1.33 1.09-2.75 2.24-4.24 3.39-9.9 7.78-22.5 16.68-31.83 19.83 0 0 21.04 22.42-12.44 50.51-5.09 4.71-14.04 6.64-16.3-2.22-2.28-8.85-3.11-15.27-8.02-18.76-8.79-6.24-15.55 4.77-15.55 4.77s9.17-2.3 11.31 2.26c0 0-3.94 4.4-.12 7.67 5.7 4.93 10.73 13.01 11.01 13.51-.36-.22-4.3-2.73-9.73-9.84-4.5-5.86-9.9-10.32-13.55-8.85-3.33 1.31-3.35 2.71-3.35 2.71s-6.56-.38-8.46 7.57c0 0 7.86-4.18 11.82.34 0 0 1.45 7.11 8.83 9.37 4.48 1.37 19.29 6.32 26.86 14.18 3.96 4.12 6.66 13.61 19.31 16.1 0 0 4.52 5.61-.02 11.21 0 0 9.84-2.12 8.99-10.7 0 0 3.39-7.39-2.04-11.25s-10.8.69-11.88-8.46c0 0 2.6-30.4 47.26-31.79 0 0 1.76-11.88-9.61-24.54 0 0 11.73-9.57 33.48-12.48 1.61-.22 3.31-.4 5.05-.53.95 2.93 1.86 6.1 2.59 9.31 1.74 7.57 2.69 15.43 1.9 21.71-2 15.71 9.05 29.47 9.05 29.47s4.12-22.44 21.91-19.11c16.38 3.05 23.02-5.45 23.97-6.81-3.03 5.53-3.25 14.6-2.93 20.9v.1l.06 1.19c.22 5.8-1.07 14.6-9.51 13.73-9.11-.95-15.43-2.36-20.4 1.01-8.89 6.1-.91 16.26-.91 16.26s1.03-9.41 6.06-9.84c0 0 2.75 5.23 7.15 2.77 6.79-3.76 16.52-5.66 16.52-5.66s-3.66 2.95-12.64 5.74c-7.03 2.2-13.09 5.72-13.01 9.65.1 3.55 1.39 4.1 1.39 4.1s-2.62 6.02 4.2 10.54c0 0-1.19-8.83 4.38-10.97 0 0 7.19 1.11 11.88-5.05 2.83-3.72 12.6-15.89 22.6-20.28 5.21-2.3 15.04-1.55 21.77-12.56 0 0 6.83-2.3 10.5 3.9 0 0 1.41-9.96-6.93-12.14 0 0-5.76-5.74-11.25-1.96-5.51 3.76-4.83 10.68-13.9 7.55-4.66-17.39 10.77-47.66 10.77-47.66-17.49 15.01-44.96 14.22-44.96 14.22 4.65-11.77 2.24-33.26 2.24-33.26 15.87 13.17 46.23 16.5 65.6.18 20.22-17.03 7.86-41.34 7.86-41.34 5.23-8.12 9.39-22.11 9.39-22.11l11.55 18.16c5.8-25.04-12.48-65.98-12.48-65.98Zm-36.55 84c-7.7 1.23-14.78-10.34-2.83-16.62 9.84-5.19 17.91 3.39 17.91 3.39-1.92 4.4-5.86 11.73-15.09 13.23Z" class="cls-6"></path><path d="M372.46 389.69c-1.73.13-3.43.32-5.05.54-1.57-4.51-4.01-9.53-7.66-12.58-5.68-4.73-20.51-7.44-28.3-8.58 1.49-1.16 2.91-2.29 4.25-3.39 8.16 3.47 15.62-1.62 15.62-1.62 1.55 8.78 13.53 9.43 13.53 9.43 2.28 2.59 5.18 8.76 7.61 16.2M297.91 290.11c-12.4 6.39-17.91 12.62-19.7 18.12-1.66-1.3-3.32-2.63-4.98-3.93 3.35-7.27 11.26-13.38 17.88-17.49 1.86.5 3.8.97 5.78 1.4v.02c.5 1.16 1.03 1.88 1.03 1.88ZM353.46 291.1c-.17.04-.35.09-.52.13-10.51 2.7-20.8 9.99-28.52 16.67 0 0 7.44-15.84 28.34-24.57-.17 2.52.01 5.27.7 7.77M392.72 334.78c-11.59 5.39-18.92 19.16-18.92 19.16-17.45-25.35-45.35-11.74-47.24-10.79 31.54-22 46.7 2.5 46.7 2.5 4.64-7.51 9.82-12.17 14.99-14.91 1.47 1.34 2.97 2.7 4.47 4.04M353.5 251.54c-3.08-3.84-6.45-5.98-9.3-7.18.97-.84 1.92-1.92 2.65-3.28 1.83.99 2.87 1.86 2.87 1.86.22-10.2 7.34-13.16 8.24-13.48.04-.02.06-.02.08-.02-6.71 8.61-4.53 22.09-4.53 22.09Z" class="cls-4"></path><path d="M341.96 206.79s-11.86 5-15.06 5.67c-3.77.76-2.65-2.12-3.56-3.49-.41-.63-4.75-.52-4.75-.52 4.75-3.37 14.89.32 23.38-1.66Z" class="cls-2"></path><path d="M384.8 296.51c-1.14.63-2.37 1.25-3.69 1.83l31.28 24.33-15.01-8.05-14.15-7.59-10.64-5.72c-1.43.41-2.93.76-4.51 1.12l.9 7.68.21 1.77.02.02 2.93 25.24-9.04-25.74-2.66-7.59c-.86.13-1.75.26-2.65.37l-8.93 10.29-13.48 15.55 7.74-14.32 5.44-10.05c-12.19 3.77-26.55 17.43-27.44 18.29 10.1-16.98 23.8-22.41 35.98-25.33 7.75-1.86 14.89-2.72 20.04-4.96 8.95-3.88 13.89-9.56 15.79-18.6s-1.06-25.61 6.32-45.6c5.41-14.67 24.05-30.01 25.2-30.96-13.66 12.92-25.2 36.71-24.94 65.24.04 4.49-.15 8.63-.78 12.42l71.56-30.85-74.73 40.62c-.86 1.62-1.9 3.15-3.17 4.57l55.27 10.09-62.84-4.05ZM316.24 341.43c-4.38.6-11.39 5.28-16.07 8.74-.28-.43-.56-.9-.82-1.36l-2.26-3.82c8.56-3.43 14.9-3.95 19.15-3.56M302.65 308.94c-3.15 4.21-18.12 17.24-18.12 17.24-1.34-1.23-2.93-2.89-4.23-4.92zM481.04 345.33s-.58 1.1-1.72 2.7c-.9-2.46-2.61-6-5.54-8.5.65-1.17 1.19-2.29 1.62-3.28 0 0 5.22 4.19 5.63 9.08ZM490.4 331.98c-.63 1.21-1.3 2.37-1.98 3.43-2.09-3.75-6.52-7.79-6.52-7.79s-.02-.04-.04-.11l.06.06s.65-1.12 1.57-2.95c3.13 2.2 5.54 5.29 6.92 7.36ZM398.12 364.81s9.97 28.57 4.35 47.69c0 0 9.86-20 3.48-42.08l-7.82-5.62Z" class="cls-4" data-source="https://football-logos.cc"></path><!-- source: https://football-logos.cc --></svg>