<svg xmlns="http://www.w3.org/2000/svg" viewBox="10.92 185.36 573.44 471.16"><!-- Source: https://football-logos.cc --><path d="M110.974 272.08a171.4 171.4 0 0 1 17.864 29.983c1.247 2.683 2.59 4.113 4.214 4.46 1.976.423 4.73-.332 8.441-2.075 26.691-12.535 52.569-22.775 77.397-30.047 24.917-7.298 48.789-11.607 71.378-12.249 21.715-.616 44.785 1.2 71.519 7.804 26.667 6.588 56.958 17.928 93.164 36.359l-.003.005c.313.158-.008.004.2.106 2.066 1.015 4.136 1.486 5.956.968 1.84-.523 3.647-2.137 5.274-5.334l.005.003c.17-.334.05-.084.141-.27 5.06-10.292 11.29-20.898 18.905-31.045 6.492-8.65 13.983-16.966 22.603-24.47-.508-.33-1.177-.73-1.932-1.176-37.639-16.318-72.397-29.808-106.343-39.076-33.904-9.256-67.02-14.304-101.433-13.752-35.704.573-67.507 4.658-100.3 12.961-32.82 8.31-66.658 20.862-106.409 38.36-3.213 1.415-5.51 2.455-5.987 3.102-.414.564.972-.592 1.89.042l.153.106.156.136c8.814 7.69 16.52 16.196 23.146 25.098z" style="fill:#a89754;fill-opacity:1;fill-rule:evenodd" data-source="https://football-logos.cc"></path><path d="M145.023 402.308c15.57 86.018 58.88 150.716 151.647 177.411 97.752-29.02 137.812-94.849 151.647-177.41z" style="fill:#d9d032;fill-rule:evenodd"></path><path d="M143.18 595.576c24.441 15.159 49.061 28.376 74.065 37.96 24.872 9.533 50.088 15.452 75.832 16.073 25.05.604 50.475-4.863 76.227-14.413 25.937-9.619 52.149-23.35 78.617-39.19 1.234-.739 2.2-1.47 2.495-2.114.074-.16-.072-.49-.57-1.078-5.963-7.044-11.587-15.371-16.801-24.847-5.178-9.408-9.97-19.998-14.308-31.634-.834-2.236-1.89-3.047-3.05-3.029-1.858.03-4.332 1.298-6.904 2.915-19.57 12.312-38.833 22.515-57.76 30.147-16.905 6.817-33.546 11.588-49.906 13.985q-2.15.58-4.336 1.125-.74-.184-1.475-.373l-.312.035-.455.05-.475-.077c-19.49-3.173-38.614-8.92-57.462-16.76-18.788-7.816-37.324-17.724-55.696-29.247-2.223-1.394-3.931-2.062-5.06-1.774-.966.246-1.865 1.49-2.737 3.964-3.587 10.18-7.846 20.15-12.9 29.59-5.075 9.474-10.928 18.365-17.677 26.335-.236.279-.45.483-.636.638l-.726.699c.106.129.699.207 2.01 1.02" style="fill:#a89754;fill-opacity:1;fill-rule:evenodd"></path><path d="M144.393 293.8h303.295q12.585 58.595 0 108.508c-26.269-2.592-58.29 28.038-138.949 49.225-9.4 2.468-12.337 2.791-21.76.46-73.586-18.215-116.716-52.796-142.586-49.685-5.69-36.17-6.056-72.338 0-108.508" style="fill:#94d1eb;fill-rule:evenodd"></path><path d="M142.43 291.298h308.708l-.003.006c3.73 18.983 5.257 34.281 5.274 54.777.067 77.774-29.397 202.907-159.627 235.395-130.23-32.488-159.694-157.62-159.627-235.395.017-20.496 1.543-35.793 5.274-54.777l-.003-.006zm13.405 110.63a58.4 58.4 0 0 1 8.646 2.196c4.652 1.553 9.122 3.45 13.592 5.356 5.46 2.329 10.877 4.738 16.295 7.135 6.265 2.773 12.534 5.548 18.837 8.256 6.873 2.952 13.78 5.841 20.76 8.604 7.281 2.883 14.618 5.628 22.063 8.184 6 2.06 12.036 3.986 18.17 5.728q4.885 1.386 9.808 2.594c11.305 2.773 15.616 2.492 26.947-.349a279 279 0 0 0 8.404-2.245c6.132-1.741 12.17-3.668 18.169-5.728 7.445-2.556 14.781-5.301 22.063-8.184 6.98-2.763 13.887-5.652 20.76-8.604 6.302-2.708 12.572-5.483 18.837-8.256 5.418-2.397 10.835-4.806 16.295-7.135 4.47-1.906 8.94-3.803 13.592-5.356a58.4 58.4 0 0 1 8.646-2.196c2.741-.472 5.514-.774 8.293-1.047l.09-.508c2.642-15.458 4.064-31.075 4.523-46.963a284 284 0 0 0-.853-31.637c-.705-8.557-1.928-17.088-3.482-25.56H147.273c-1.554 8.471-2.777 17.004-3.483 25.56a284 284 0 0 0-.852 31.637c.46 15.888 1.877 31.508 4.52 46.965l.088.507c2.776.273 5.55.574 8.289 1.046m289.821.971c-2.509.25-5.006.529-7.486.955a56 56 0 0 0-8.281 2.106c-4.586 1.53-8.992 3.403-13.398 5.282-5.449 2.324-10.854 4.73-16.263 7.122-6.273 2.776-12.55 5.555-18.863 8.266-6.894 2.963-13.824 5.861-20.825 8.632-7.317 2.896-14.692 5.655-22.173 8.223-6.04 2.073-12.12 4.013-18.295 5.768q-3.904 1.107-7.833 2.098c-11.339 3.069-17.68 3.568-30.321.153a277 277 0 0 1-8.437-2.251c-6.175-1.754-12.254-3.695-18.295-5.768-7.48-2.568-14.855-5.327-22.172-8.223-7.002-2.771-13.931-5.67-20.826-8.632-6.311-2.711-12.589-5.49-18.862-8.266-5.409-2.393-10.815-4.798-16.263-7.122-4.406-1.879-8.812-3.752-13.398-5.282a56 56 0 0 0-8.282-2.106c-2.475-.425-4.977-.704-7.481-.954l.088.498c2.521 13.892 6.05 27.662 10.772 41.382 11.312 32.859 27.516 61.79 54.645 87.066 23.53 21.923 50.362 35.29 83.374 44.466 33.01-9.18 59.845-22.543 83.375-44.466 27.13-25.277 43.333-54.206 54.645-87.066 4.724-13.721 8.245-27.49 10.767-41.384z" style="fill:#1b1918;fill-rule:evenodd"></path><path d="m359.292 307.958 13.927 11.867-6.759 5.902-4.44-3.779-2.67 2.328 4.44 3.792-6.66 5.873-6.85-5.813-82.463 72.012c1.398 1.26.498 2.174-.133 2.74l-1.446 1.294c-1.969 1.763-2.078 2-1.002 3.751.206.336.654.693.263 1.028l-.199.173c2.664 3.667 4.482 7.706 4.535 11.688.046 3.364-1.169 7.342-4.591 10.113-10.14 8.212-25.008 2.077-33.968-5.31-8.62-7.109-15.849-20.336-6.675-29.141 3.052-2.928 7.942-4.335 12.126-4.36 4.61-.026 9.266 1.516 13.735 4.049l.008-.007c.382-.341.802.04 1.194.213 2.046.905 2.375.859 4.337-.911l1.482-1.338c.635-.57 1.71-1.274 3.203-.054zm-99.82 106.199c-.161.04-.371-.044-.79-.4l-1.373-1.166c-1.58-1.342-3.58-.371-6.984-3.269-4.272-3.637-2.308-4.628-3.888-5.97l-1.684-1.43.009-.005c-.343-.306-.258-.53-.068-.714a25 25 0 0 0-2.522-1.073c-1.451-.524-2.848-.866-4.42-.959-2.276-.133-5.522.408-7.118 1.994-1.183 1.174-1.899 2.14-2.178 3.677-.32 1.755-.07 3.27.497 4.976.702 2.113 1.73 3.946 3.095 5.802a27.5 27.5 0 0 0 4.762 5.037c2.454 2.019 5.018 3.669 8.013 5.039 3.048 1.394 5.956 2.362 9.434 2.242 2.31-.08 3.824-.688 5.52-2.044 1.45-1.161 1.9-2.608 2.046-4.285.122-1.38-.13-2.618-.606-3.937-.448-1.246-1.036-2.394-1.745-3.515z" style="fill:#1b1918;fill-rule:evenodd"></path><path d="m359.312 310.739 3.887 3.31-97.003 84.71-3.888-3.31z" style="fill:#ffec00;fill-rule:evenodd;stroke:#ffec00;stroke-width:.0015;stroke-linecap:butt;stroke-linejoin:miter;stroke-dasharray:none"></path><path d="m259.107 395.502.03.022 6.913 5.873.1.1-.011.01-2.87 2.52c-.873.768-1.074 1.47-1.02 2.547.033.66.35 1.216.7 1.808l-3.622 3.163c-.78-.662-1.47-1.122-2.49-1.465-.763-.258-1.6-.349-2.355-.625-1.021-.372-1.77-.869-2.56-1.54-.896-.76-1.668-1.48-2.174-2.472-.267-.525-.24-1.12-.445-1.665-.368-.978-.926-1.537-1.773-2.256l3.634-3.172c.69.292 1.337.557 2.101.578 1.254.034 2.06-.147 2.943-.912z" style="fill:#ffec00;fill-rule:evenodd"></path><path d="M263.647 410.57c1.244 1.832 2.307 3.632 3.023 5.661.828 2.346 1.14 4.462.692 6.887-.476 2.586-1.438 4.587-3.68 6.371-2.778 2.212-5.354 3.173-9.128 3.367-2.953.153-5.468-.339-8.244-1.21-2.965-.927-5.545-2.17-8.145-3.709a40 40 0 0 1-5.307-3.738c-2.182-1.824-4.003-3.733-5.627-5.947-1.668-2.274-2.918-4.512-3.77-7.103-.8-2.439-1.113-4.585-.644-7.09.48-2.555 1.496-4.332 3.487-6.268 1.735-1.687 3.685-2.537 6.184-3.164 2.286-.575 4.353-.68 6.708-.393 1.774.216 3.38.65 5.03 1.25 1.614.586 3.11 1.306 4.591 2.115l-2.475 2.162c-1.812-.941-3.718-1.718-5.765-2.175-2.073-.462-3.968-.54-6.081-.195-2.24.367-3.95.976-5.524 2.423-1.793 1.65-2.61 3.228-2.883 5.493-.15 1.254-.028 2.423.267 3.656a18.5 18.5 0 0 0 1.42 3.893c.93 1.887 2.098 3.604 3.48 5.272a29.3 29.3 0 0 0 3.978 3.95c1.93 1.586 3.946 2.977 6.204 4.201 2.317 1.255 4.665 2.305 7.284 2.991 2.22.58 4.324.805 6.634.567 2.336-.242 4.289-1.114 5.996-2.52 1.68-1.382 2.367-2.87 2.66-4.84.32-2.158-.057-4.03-.883-6.076-.517-1.282-1.196-2.474-1.969-3.657zM364.746 315.482l5.168 4.399-3.475 3.035-3.728-3.173-5.908 5.153 3.727 3.185-3.483 3.03-5.16-4.405 3.413-2.97-.011-.01 5.117-4.462.005.004z" style="fill:#ffec00;fill-rule:evenodd;stroke:#ffec00;stroke-width:.0015;stroke-linecap:butt;stroke-linejoin:miter;stroke-dasharray:none"></path><path d="m234.271 307.958-13.927 11.867 6.759 5.902 4.44-3.779 2.67 2.328-4.44 3.792 6.66 5.873 6.85-5.813 82.463 72.012c-1.398 1.26-.499 2.174.133 2.74l1.446 1.294c1.969 1.763 2.077 2 1.001 3.751-.205.336-.653.693-.262 1.028l.199.173c-2.664 3.667-4.482 7.706-4.535 11.688-.046 3.364 1.169 7.342 4.591 10.113 10.14 8.212 25.008 2.077 33.968-5.31 8.62-7.109 15.849-20.336 6.675-29.141-3.052-2.928-7.942-4.335-12.126-4.36-4.61-.026-9.266 1.516-13.735 4.049l-.008-.007c-.383-.341-.802.04-1.194.213-2.046.905-2.375.859-4.337-.911l-1.483-1.338c-.634-.57-1.709-1.274-3.202-.054zm99.82 106.199c.161.04.371-.044.79-.4l1.372-1.166c1.58-1.342 3.581-.371 6.985-3.269 4.273-3.637 2.308-4.628 3.888-5.97l1.684-1.43-.009-.005c.343-.306.258-.53.068-.714a25 25 0 0 1 2.522-1.073c1.451-.524 2.848-.866 4.42-.959 2.276-.133 5.522.408 7.118 1.994 1.183 1.174 1.899 2.14 2.178 3.677.32 1.755.07 3.27-.497 4.976-.702 2.113-1.73 3.947-3.095 5.802a27.5 27.5 0 0 1-4.762 5.037c-2.454 2.019-5.018 3.669-8.013 5.039-3.048 1.395-5.956 2.362-9.434 2.242-2.31-.08-3.824-.688-5.52-2.044-1.45-1.161-1.9-2.608-2.046-4.285-.122-1.38.13-2.618.606-3.937.448-1.246 1.036-2.394 1.745-3.515z" style="fill:#1b1918;fill-rule:evenodd"></path><path d="m234.251 310.739-3.888 3.31 97.004 84.71 3.888-3.31z" style="fill:#ffec00;fill-rule:evenodd;stroke:#ffec00;stroke-width:.0015;stroke-linecap:butt;stroke-linejoin:miter;stroke-dasharray:none"></path><path d="m334.456 395.502-.03.022-6.913 5.873-.099.1.01.01 2.869 2.52c.874.768 1.075 1.47 1.02 2.547-.032.66-.35 1.216-.698 1.808l3.62 3.163c.78-.662 1.47-1.122 2.49-1.465.765-.258 1.6-.349 2.356-.625 1.021-.372 1.77-.869 2.56-1.54.895-.76 1.667-1.48 2.174-2.472.267-.525.24-1.12.445-1.665.368-.978.926-1.537 1.773-2.256l-3.634-3.172c-.69.292-1.337.557-2.101.578-1.254.034-2.06-.147-2.943-.912z" style="fill:#ffec00;fill-rule:evenodd"></path><path d="M329.916 410.57c-1.244 1.832-2.307 3.632-3.023 5.661-.828 2.346-1.14 4.462-.692 6.887.475 2.586 1.438 4.587 3.68 6.371 2.778 2.212 5.354 3.173 9.128 3.367 2.953.153 5.468-.339 8.244-1.21 2.965-.927 5.545-2.17 8.145-3.709a40 40 0 0 0 5.307-3.738c2.182-1.824 4.003-3.733 5.627-5.947 1.669-2.274 2.918-4.512 3.77-7.103.8-2.439 1.113-4.585.644-7.09-.48-2.555-1.496-4.332-3.487-6.268-1.735-1.687-3.685-2.537-6.185-3.164-2.285-.575-4.352-.68-6.707-.393-1.774.216-3.38.65-5.03 1.25-1.613.586-3.111 1.306-4.591 2.115l2.475 2.162c1.812-.941 3.718-1.718 5.764-2.175 2.074-.462 3.97-.54 6.082-.195 2.24.367 3.95.976 5.524 2.423 1.793 1.65 2.61 3.228 2.883 5.493.15 1.254.028 2.423-.267 3.656a18.5 18.5 0 0 1-1.42 3.893c-.93 1.887-2.098 3.604-3.48 5.272a29.3 29.3 0 0 1-3.978 3.95c-1.93 1.586-3.946 2.977-6.204 4.201-2.317 1.255-4.665 2.305-7.284 2.991-2.22.58-4.324.805-6.634.567-2.336-.242-4.289-1.114-5.996-2.52-1.68-1.382-2.367-2.87-2.66-4.84-.319-2.158.057-4.03.883-6.076.517-1.282 1.196-2.474 1.968-3.657zM228.817 315.482l-5.168 4.399 3.476 3.035 3.727-3.173 5.908 5.153-3.727 3.185 3.483 3.03 5.16-4.405-3.413-2.97.011-.01-5.117-4.462-.005.004z" style="fill:#ffec00;fill-rule:evenodd;stroke:#ffec00;stroke-width:.0015;stroke-linecap:butt;stroke-linejoin:miter;stroke-dasharray:none"></path><path d="m359.292 307.958 13.927 11.867-6.759 5.902-4.44-3.779-2.67 2.328 4.44 3.792-6.66 5.873-6.85-5.813-82.463 72.012c1.398 1.26.498 2.174-.133 2.74l-1.446 1.294c-1.969 1.763-2.078 2-1.002 3.751.206.336.654.693.263 1.028l-.199.173c2.664 3.667 4.482 7.706 4.535 11.688.046 3.364-1.169 7.342-4.591 10.113-10.14 8.212-25.008 2.077-33.968-5.31-8.62-7.109-15.849-20.336-6.675-29.141 3.052-2.928 7.942-4.335 12.126-4.36 4.61-.026 9.266 1.516 13.735 4.049l.008-.007c.382-.341.802.04 1.194.213 2.046.905 2.375.859 4.337-.911l1.482-1.338c.635-.57 1.71-1.274 3.203-.054zm-99.82 106.199c-.161.04-.371-.044-.79-.4l-1.373-1.166c-1.58-1.342-3.58-.371-6.984-3.269-4.272-3.637-2.308-4.628-3.888-5.97l-1.684-1.43.009-.005c-.343-.306-.258-.53-.068-.714a25 25 0 0 0-2.522-1.073c-1.451-.524-2.848-.866-4.42-.959-2.276-.133-5.522.408-7.118 1.994-1.183 1.174-1.899 2.14-2.178 3.677-.32 1.755-.07 3.27.497 4.976.702 2.113 1.73 3.946 3.095 5.802a27.5 27.5 0 0 0 4.762 5.037c2.454 2.019 5.018 3.669 8.013 5.039 3.048 1.394 5.956 2.362 9.434 2.242 2.31-.08 3.824-.688 5.52-2.044 1.45-1.161 1.9-2.608 2.046-4.285.122-1.38-.13-2.618-.606-3.937-.448-1.246-1.036-2.394-1.745-3.515z" style="fill:#1b1918;fill-rule:evenodd"></path><path d="m359.312 310.739 3.887 3.31-97.003 84.71-3.888-3.31z" style="fill:#ffec00;fill-rule:evenodd;stroke:#ffec00;stroke-width:.0015;stroke-linecap:butt;stroke-linejoin:miter;stroke-dasharray:none"></path><path d="m259.107 395.502.03.022 6.913 5.873.1.1-.011.01-2.87 2.52c-.873.768-1.074 1.47-1.02 2.547.033.66.35 1.216.7 1.808l-3.622 3.163c-.78-.662-1.47-1.122-2.49-1.465-.763-.258-1.6-.349-2.355-.625-1.021-.372-1.77-.869-2.56-1.54-.896-.76-1.668-1.48-2.174-2.472-.267-.525-.24-1.12-.445-1.665-.368-.978-.926-1.537-1.773-2.256l3.634-3.172c.69.292 1.337.557 2.101.578 1.254.034 2.06-.147 2.943-.912z" style="fill:#ffec00;fill-rule:evenodd"></path><path d="M263.647 410.57c1.244 1.832 2.307 3.632 3.023 5.661.828 2.346 1.14 4.462.692 6.887-.476 2.586-1.438 4.587-3.68 6.371-2.778 2.212-5.354 3.173-9.128 3.367-2.953.153-5.468-.339-8.244-1.21-2.965-.927-5.545-2.17-8.145-3.709a40 40 0 0 1-5.307-3.738c-2.182-1.824-4.003-3.733-5.627-5.947-1.668-2.274-2.918-4.512-3.77-7.103-.8-2.439-1.113-4.585-.644-7.09.48-2.555 1.496-4.332 3.487-6.268 1.735-1.687 3.685-2.537 6.184-3.164 2.286-.575 4.353-.68 6.708-.393 1.774.216 3.38.65 5.03 1.25 1.614.586 3.11 1.306 4.591 2.115l-2.475 2.162c-1.812-.941-3.718-1.718-5.765-2.175-2.073-.462-3.968-.54-6.081-.195-2.24.367-3.95.976-5.524 2.423-1.793 1.65-2.61 3.228-2.883 5.493-.15 1.254-.028 2.423.267 3.656a18.5 18.5 0 0 0 1.42 3.893c.93 1.887 2.098 3.604 3.48 5.272a29.3 29.3 0 0 0 3.978 3.95c1.93 1.586 3.946 2.977 6.204 4.201 2.317 1.255 4.665 2.305 7.284 2.991 2.22.58 4.324.805 6.634.567 2.336-.242 4.289-1.114 5.996-2.52 1.68-1.382 2.367-2.87 2.66-4.84.32-2.158-.057-4.03-.883-6.076-.517-1.282-1.196-2.474-1.969-3.657zM364.746 315.482l5.168 4.399-3.475 3.035-3.728-3.173-5.908 5.153 3.727 3.185-3.483 3.03-5.16-4.405 3.413-2.97-.011-.01 5.117-4.462.005.004z" style="fill:#ffec00;fill-rule:evenodd;stroke:#ffec00;stroke-width:.0015;stroke-linecap:butt;stroke-linejoin:miter;stroke-dasharray:none"></path><path d="M206.824 491.986v11.453l7.611 4.03-.491-16.967z" style="fill:#1b1918;fill-rule:evenodd"></path><path d="M209.104 493.533v8.806l2.948 1.561-.317-10.916z" style="fill:#a57425;fill-rule:evenodd"></path><path d="M186.086 483.256c-.29 3 1.62 4.91 4.651 6.092.919 2.75 3.899 4.262 7.31 3.548 2.749 2.282 5.4 1.904 7.457 1.187 2.878 1.185 7.078 1.003 8.833-2.185 2.708.365 6.006-1.425 6.714-3.719 4.252.34 5.661-2.603 5.675-3.399 5.293-1.503 6.518-6.023 4.093-9.346l-.052-.035c.818-1.914.604-3.857-.585-5.606 1.31-3.261.094-5.702-2.08-7.649 3.852-4.291 1.84-11.469-4.487-12.863.94-6.345-2.896-11.557-10.706-10.884l-.057.012c-2.478-5.816-13.011-4.053-13.95 1.141-4.515.502-6.85 2.877-6.434 6.854-3.69 1.333-5.659 4.836-4.533 7.941-1.71 1.216-2.63 2.664-2.504 4.616l-.07.029c-3.448 2.525-3.777 5.667-1.305 8.81-1.75 2.172-.52 5.429.586 6.586-1.99 3.054-1.564 6.224 1.444 8.87" style="fill:#1b1918;fill-rule:evenodd"></path><path d="M211.449 440.82c-1.48-6.91-11.487-4.087-10.33.8-4.475-.866-8.086 1.972-5.769 6.308-3.685-.406-7.437 4.072-4.26 7.548-2.684.006-4.094 2.455-3.096 4.583-3.937 1.098-4.396 5.57-.806 7.631-2.267 1.268-2.495 4.572.56 6.587-3.837 2.949-1.415 7.472.896 8.062-1.007 2.015.297 5.083 4.266 5.41-.572 2.807 3.598 4.419 5.906 2.652 1.457 2.9 5.333 2.736 6.707 1.18 2.721 2.59 7.778.754 7.033-2.26 2.826 1.812 7.361-.299 6.495-3.835 3.41 1.82 6.082.195 5.445-2.685 5.197.86 7.07-5.4 3.42-6.8 1.564-2.097 1.42-4.502-.404-5.943 2.16-2.95.376-6.76-3.052-7.35 6.11-4.589 3.23-11.497-3.476-11.89 2.497-9.276-4.99-11.834-9.535-9.999" style="fill:#23602d;fill-rule:evenodd" data-source="https://football-logos.cc"></path><path d="M295.26 536.042v11.453l7.611 4.03-.491-16.967z" style="fill:#1b1918;fill-rule:evenodd"></path><path d="M297.54 537.589v8.806l2.947 1.561-.316-10.916z" style="fill:#a57425;fill-rule:evenodd"></path><path d="M274.522 527.312c-.29 3 1.62 4.91 4.65 6.092.92 2.75 3.9 4.262 7.311 3.548 2.749 2.282 5.4 1.904 7.457 1.187 2.878 1.185 7.077 1.003 8.833-2.185 2.707.365 6.006-1.425 6.714-3.719 4.252.34 5.661-2.604 5.675-3.399 5.293-1.502 6.518-6.023 4.093-9.346l-.052-.035c.817-1.914.604-3.857-.585-5.606 1.31-3.261.093-5.702-2.08-7.649 3.852-4.291 1.84-11.469-4.487-12.863.94-6.345-2.897-11.557-10.706-10.884l-.058.012c-2.478-5.816-13.01-4.053-13.949 1.141-4.515.502-6.85 2.877-6.435 6.853-3.688 1.334-5.658 4.837-4.532 7.942-1.711 1.216-2.63 2.664-2.504 4.615l-.07.03c-3.448 2.525-3.778 5.667-1.305 8.81-1.751 2.173-.521 5.429.586 6.586-1.99 3.054-1.564 6.224 1.444 8.87" style="fill:#1b1918;fill-rule:evenodd"></path><path d="M299.885 484.875c-1.48-6.91-11.488-4.086-10.33.802-4.475-.867-8.086 1.971-5.769 6.307-3.686-.406-7.437 4.072-4.26 7.548-2.684.006-4.094 2.456-3.096 4.583-3.937 1.098-4.397 5.57-.806 7.631-2.267 1.268-2.495 4.572.56 6.587-3.837 2.949-1.415 7.472.895 8.062-1.006 2.014.298 5.083 4.267 5.41-.572 2.807 3.598 4.419 5.906 2.652 1.457 2.9 5.332 2.736 6.707 1.18 2.721 2.59 7.778.753 7.033-2.26 2.825 1.812 7.361-.299 6.495-3.836 3.41 1.82 6.081.196 5.444-2.684 5.198.86 7.071-5.4 3.42-6.8 1.565-2.098 1.42-4.503-.403-5.943 2.16-2.95.376-6.761-3.052-7.35 6.11-4.589 3.23-11.497-3.476-11.89 2.497-9.276-4.99-11.835-9.535-9.999" style="fill:#23602d;fill-rule:evenodd"></path><path d="M383.695 491.139v11.453l7.612 4.03-.492-16.968z" style="fill:#1b1918;fill-rule:evenodd"></path><path d="M385.976 492.686v8.806l2.947 1.56-.317-10.915z" style="fill:#a57425;fill-rule:evenodd"></path><path d="M362.958 482.409c-.29 3 1.62 4.91 4.65 6.092.92 2.75 3.9 4.262 7.311 3.548 2.749 2.282 5.399 1.904 7.456 1.187 2.879 1.185 7.078 1.003 8.834-2.185 2.707.365 6.006-1.425 6.714-3.719 4.252.34 5.66-2.604 5.674-3.399 5.293-1.503 6.519-6.023 4.094-9.346l-.052-.035c.817-1.914.604-3.857-.585-5.606 1.31-3.262.093-5.702-2.08-7.65 3.851-4.29 1.84-11.468-4.487-12.862.94-6.345-2.897-11.557-10.707-10.884l-.057.012c-2.478-5.816-13.01-4.054-13.949 1.14-4.515.503-6.85 2.878-6.435 6.854-3.689 1.334-5.659 4.837-4.532 7.942-1.711 1.216-2.63 2.663-2.505 4.615l-.069.03c-3.449 2.525-3.778 5.667-1.306 8.81-1.75 2.172-.52 5.429.586 6.585-1.989 3.055-1.564 6.225 1.445 8.87" style="fill:#1b1918;fill-rule:evenodd"></path><path d="M388.32 439.972c-1.479-6.91-11.487-4.086-10.329.802-4.475-.867-8.087 1.971-5.769 6.307-3.686-.406-7.437 4.072-4.26 7.548-2.684.006-4.094 2.455-3.096 4.583-3.937 1.098-4.397 5.57-.806 7.63-2.267 1.268-2.495 4.573.56 6.588-3.837 2.948-1.415 7.472.895 8.062-1.006 2.014.298 5.083 4.267 5.41-.573 2.807 3.598 4.419 5.906 2.652 1.457 2.9 5.332 2.736 6.707 1.18 2.721 2.589 7.777.753 7.033-2.261 2.826 1.813 7.361-.298 6.495-3.835 3.409 1.82 6.081.196 5.444-2.685 5.197.86 7.071-5.399 3.42-6.799 1.565-2.098 1.42-4.503-.403-5.943 2.16-2.95.375-6.761-3.052-7.35 6.11-4.589 3.23-11.497-3.477-11.89 2.498-9.276-4.99-11.835-9.534-9.999" style="fill:#23602d;fill-rule:evenodd"></path><path d="M91.508 592.01c.896-1.172.814-1.056 1.045-1.357q.258-.369.563-.753c5-6.26 9.814-13.869 14.465-22.348 4.71-8.588 9.226-18.005 13.58-27.793a11.3 11.3 0 0 1 2.947-3.97c1.834-1.585 4.127-2.557 6.528-2.871a13.3 13.3 0 0 1 7.106 1.025 12.8 12.8 0 0 1 4.492 3.333c3.502 4.052 7.076 7.398 10.566 10.16a72 72 0 0 0 6.924 4.854c2.531-5.623 4.82-11.408 6.892-17.287 1.718-4.875 4.225-7.51 7.533-8.355 3.145-.802 6.58.228 10.421 2.637 18.03 11.308 36.226 21.034 54.672 28.707 18.233 7.585 36.691 13.154 55.452 16.251 17.55-1.988 35.482-6.888 53.768-14.262 18.534-7.474 37.43-17.486 56.657-29.581 3.482-2.19 7.058-3.911 10.46-3.966 4.104-.067 7.523 1.939 9.597 7.501 2.414 6.476 4.98 12.628 7.685 18.432a72 72 0 0 0 7.05-4.93c3.49-2.763 7.064-6.109 10.566-10.161a12.8 12.8 0 0 1 4.492-3.333 13.3 13.3 0 0 1 7.106-1.025c2.4.314 4.694 1.286 6.528 2.87a11.3 11.3 0 0 1 2.947 3.971c4.354 9.788 8.87 19.206 13.58 27.793 4.65 8.48 9.465 16.088 14.465 22.348q.305.384.563.754c.23.3.15.185 1.045 1.356 4.273 5.59 7.258 9.494 7.416 12.895.125 2.681-.19 5.146-1.179 7.445-1.01 2.351-2.67 4.432-5.203 6.264-8.515 6.16-16.137 8.605-21.88 10.447-.837.269-1.633.524-2.368.771l-3.585 1.206-.86-3.684c-.818-3.503-1.62-6.886-2.703-9.893-.636-1.765-1.387-3.466-2.323-5.087-2.634 2.624-5.07 5.503-7.426 8.4a233 233 0 0 0-3.598 4.582c-3.838 4.97-7.687 9.955-12.718 13.965-3.877 3.089-7.332 3.922-10.504 3.353-3.097-.555-5.587-2.413-7.806-4.78-1.552-1.657-2.636-3.357-3.176-5.237-1.1-3.373-2.23-5.779-3.415-7.686-.888-1.428-1.83-2.613-2.824-3.732-15.207 7.917-30.325 14.851-45.35 20.423-26.49 9.824-52.75 15.445-78.786 14.818-26.629-.642-52.593-6.72-78.122-16.505-13.322-5.106-26.536-11.228-39.672-18.116a26 26 0 0 0-2.285 3.112c-1.186 1.907-2.315 4.313-3.416 7.686-.54 1.88-1.623 3.58-3.176 5.237-2.218 2.367-4.708 4.225-7.805 4.78-3.173.57-6.628-.264-10.504-3.353-5.031-4.01-8.88-8.995-12.718-13.965a233 233 0 0 0-3.598-4.582c-2.356-2.897-4.792-5.776-7.426-8.4-.937 1.621-1.687 3.322-2.323 5.087-1.084 3.007-1.885 6.39-2.703 9.893l-.86 3.684-3.585-1.206c-.735-.247-1.531-.502-2.369-.77-5.742-1.843-13.364-4.288-21.88-10.448-2.532-1.832-4.192-3.913-5.202-6.264-.988-2.299-1.305-4.764-1.18-7.445.16-3.4 3.143-7.305 7.417-12.895m3.089 7.307c-2.19 2.917-3.592 4.964-3.635 5.885-.078 1.675.092 3.151.64 4.427.526 1.223 1.452 2.351 2.913 3.408 7.12 5.15 13.682 7.455 18.814 9.115.588-2.357 1.236-4.681 2.075-7.008.923-2.563 2.052-5.029 3.538-7.374-4.385-3.304-9.45-5.748-15.654-6.54l-.576-.074c-2.952-.373-5.95-.753-8.115-1.839m62.179-40.777a79 79 0 0 1-8.233-5.715 84.6 84.6 0 0 1-11.51-11.05 5.96 5.96 0 0 0-2.093-1.554 6.4 6.4 0 0 0-3.415-.486c-1.098.143-2.124.568-2.918 1.254a4.5 4.5 0 0 0-1.169 1.572c-4.453 10.013-9.054 19.614-13.821 28.305-4.692 8.553-9.572 16.287-14.67 22.762 1.18.275 2.914.495 4.627.712l.576.073c7.747.99 13.98 4.053 19.331 8.17a55 55 0 0 1 4.088 3.49c-2.362-5.819 1.011-9.03 7.411-15.12.769-.73 1.59-1.512 2.391-2.29 6.41-7.587 11.964-16.03 16.775-25.012a177 177 0 0 0 2.63-5.111m-17.17 61.248 1.054 1.364c3.574 4.63 7.16 9.274 11.559 12.78 2.13 1.697 3.736 2.207 5.007 1.98 1.347-.242 2.685-1.323 4.007-2.733.704-.751 1.203-1.456 1.468-2.146l.124-.385a3 3 0 0 0 .086-.512c.085-1.104-.385-2.482-1.513-4.288-.577-.925-1.308-1.532-2.13-1.885-1.053-.452-2.328-.559-3.696-.415-2.905.304-5.392.224-7.807-.294-2.437-.523-4.714-1.463-7.18-2.875q-.485-.276-.98-.59m22.357-2.156c1.887.81 3.551 2.094 4.87 3.958l.157-.256a31 31 0 0 1 1.943-2.778c-9.824-5.337-19.608-11.083-29.363-17.134-1.29-.8-2.318-1.543-3.111-2.28-2.16 2.299-2.917 3.866-1.807 5.762a27.8 27.8 0 0 0 4.202 5.456c1.708 1.731 3.506 3.096 5.152 4.038 1.863 1.066 3.513 1.76 5.187 2.12 1.697.364 3.508.413 5.679.186 2.472-.259 4.898-.013 7.09.928m-20.067-23.775-.725.699c.104.129.698.206 2.01 1.02 24.44 15.159 49.06 28.376 74.064 37.96 24.872 9.534 50.088 15.453 75.832 16.073 25.05.604 50.475-4.863 76.227-14.413 25.937-9.619 52.149-23.35 78.617-39.19 1.234-.739 2.2-1.47 2.495-2.114.074-.16-.072-.49-.57-1.078-5.963-7.044-11.587-15.371-16.801-24.847-5.177-9.408-9.97-19.998-14.308-31.634-.834-2.236-1.89-3.047-3.05-3.029-1.858.03-4.332 1.298-6.903 2.915-19.572 12.312-38.834 22.514-57.762 30.147-19.018 7.67-37.701 12.748-56.028 14.772l-.455.05-.475-.077c-19.49-3.173-38.614-8.92-57.462-16.76-18.788-7.816-37.324-17.724-55.696-29.246-2.223-1.395-3.931-2.063-5.06-1.775-.966.247-1.865 1.49-2.737 3.964-3.587 10.18-7.846 20.15-12.9 29.59-5.075 9.474-10.927 18.365-17.677 26.335a5 5 0 0 1-.636.638m293.98-35.281a197 197 0 0 0 3.204 6.077c4.997 9.08 10.36 17.03 16.02 23.716q.13.153.253.307c.797.774 1.614 1.55 2.378 2.278 6.4 6.09 9.773 9.3 7.41 15.119a55 55 0 0 1 4.089-3.49c5.35-4.117 11.584-7.18 19.331-8.17l.576-.073c1.713-.217 3.447-.437 4.628-.712-5.1-6.475-9.98-14.209-14.67-22.762-4.768-8.692-9.369-18.292-13.822-28.305a4.5 4.5 0 0 0-1.17-1.572c-.793-.686-1.82-1.111-2.917-1.255a6.4 6.4 0 0 0-3.415.487 5.96 5.96 0 0 0-2.094 1.554 84.6 84.6 0 0 1-11.509 11.05 79 79 0 0 1-8.293 5.751m19.725 39.892c-1.054 1.33-2.51 2.456-4.15 3.438-9.422 5.638-18.81 11.013-28.166 16.036a32 32 0 0 1 2.436 3.392l.158.256c1.317-1.864 2.982-3.149 4.869-3.958 2.192-.94 4.619-1.187 7.09-.928 2.172.228 3.983.178 5.68-.186 1.674-.36 3.324-1.054 5.186-2.12 1.647-.942 3.445-2.307 5.153-4.038a27.8 27.8 0 0 0 4.202-5.456c1.215-2.076.194-3.757-2.458-6.436m46.148 6.734c-.043-.92-1.445-2.968-3.635-5.885-2.165 1.086-5.163 1.466-8.115 1.84l-.576.072c-6.205.794-11.27 3.237-15.654 6.541 1.486 2.346 2.615 4.811 3.538 7.374.839 2.327 1.487 4.651 2.075 7.008 5.132-1.66 11.693-3.964 18.814-9.115 1.46-1.057 2.387-2.185 2.913-3.408.548-1.275.718-2.752.64-4.427m-49.698 15.95 1.055-1.364q-.495.315-.98.591c-2.467 1.412-4.743 2.352-7.18 2.875-2.415.518-4.903.598-7.808.294-1.367-.144-2.642-.037-3.696.415-.822.353-1.552.96-2.13 1.885-1.127 1.806-1.598 3.183-1.512 4.288q.02.255.085.51l.125.39c.265.688.765 1.393 1.468 2.143 1.322 1.41 2.66 2.491 4.007 2.732 1.271.228 2.877-.282 5.007-1.979 4.399-3.506 7.985-8.15 11.56-12.78M120.785 203.617c4.262 5.2 7.51 10.606 10.724 15.96 22.8-8.798 44.008-15.747 64.845-21.023 33.266-8.423 65.564-12.568 101.862-13.15 35.105-.563 68.84 4.573 103.347 13.994 20.227 5.523 40.712 12.517 61.891 20.697l.287-.474c3.222-5.368 6.476-10.79 10.75-16.004 3.066-3.887 6.773-5.589 10.69-5.891 3.655-.282 7.376.717 10.835 2.274 6.554 2.952 12.424 8.62 18.642 14.623 3.901 3.768 7.949 7.676 12.27 10.976a69 69 0 0 0 5.038 3.502c2.128-2.958 3.785-5.65 4.998-8.072 1.502-3 2.304-5.537 2.462-7.602l.305-3.994 3.898.896c7.368 1.692 13.682 3.516 18.994 5.444 5.597 2.032 10.105 4.193 13.584 6.452 2.908 1.888 5.01 3.829 6.356 5.967 1.52 2.414 2.06 4.961 1.675 7.798-.5 3.676-2.098 6.21-4.389 7.914-9.475 8.982-17.164 17.14-24.06 25.635-6.927 8.534-13.03 17.384-19.322 27.734q-.694 1.142-1.333 2.034c-3.085 4.315-6.72 6.997-10.88 7.9s-8.64-.018-13.397-2.91h-.014a33 33 0 0 1-2.017-1.337c-5.65-4.038-10.972-7.391-15.832-10.064-3.972-2.185-7.616-3.9-10.856-5.153a198 198 0 0 0-9.443 17.069c-.198.403-.103.221-.174.36v.014c-2.6 5.108-5.914 7.808-9.53 8.836-3.635 1.034-7.357.296-10.86-1.426-.379-.186-.128-.056-.292-.139h-.013c-35.737-18.191-65.535-29.36-91.682-35.82-26.08-6.442-48.554-8.215-69.688-7.614-21.974.624-45.273 4.838-69.653 11.979-24.469 7.166-50.017 17.28-76.4 29.67-5.087 2.39-9.208 3.352-12.78 2.587-3.923-.84-6.8-3.504-9.036-8.313a165 165 0 0 0-9.311-17.256c-3.275 1.257-6.965 2.99-10.994 5.206-4.86 2.673-10.183 6.026-15.832 10.064a33 33 0 0 1-2.018 1.337h-.013c-4.757 2.892-9.237 3.813-13.397 2.91s-7.796-3.585-10.88-7.9a33 33 0 0 1-1.333-2.034c-6.292-10.35-12.395-19.2-19.323-27.734-6.896-8.495-14.585-16.653-24.06-25.635-2.29-1.704-3.889-4.238-4.388-7.914-.385-2.837.155-5.384 1.675-7.798 1.346-2.138 3.447-4.079 6.356-5.967 3.479-2.259 7.987-4.42 13.583-6.451 5.313-1.929 11.626-3.753 18.995-5.445l3.898-.896.305 3.994c.158 2.065.96 4.602 2.462 7.602 1.213 2.422 2.87 5.114 4.998 8.072a69 69 0 0 0 5.038-3.502c4.321-3.3 8.368-7.208 12.27-10.975C86.836 208.62 92.705 202.952 99.26 200c3.458-1.558 7.18-2.557 10.834-2.275 3.918.302 7.625 2.004 10.691 5.89m4.228 18.499a255 255 0 0 0-3.264-5.318 13.8 13.8 0 0 1-3.52 4.38c-4.237 3.509-10.118 3.224-15.855 2.945-1.663-.08-3.312-.16-4.738-.136-3.402.059-6.592.994-9.583 2.542-3.105 1.607-6.006 3.88-8.717 6.537-1.205 1.181-2.178 2.31-2.799 3.326-.346.565-.553 1.025-.585 1.342q.111.108.318.234a67 67 0 0 1 4.492 3.013l.52.383c1.694-1.436 4.278-2.629 7.558-4.073 12.59-5.541 24.596-10.592 36.173-15.175m-97.007 24.478c6.288 6.334 11.768 12.39 16.815 18.608 7.107 8.755 13.382 17.855 19.862 28.514a26 26 0 0 0 1.063 1.604c2.055 2.875 4.308 4.625 6.731 5.15 2.421.527 5.217-.123 8.376-2.04l-.004-.007a26 26 0 0 0 1.613-1.067c5.903-4.22 11.451-7.716 16.506-10.496 3.77-2.074 7.284-3.761 10.481-5.066a162 162 0 0 0-3.999-5.62c-6.308-8.475-13.634-16.57-22.002-23.891-1.63-1.144-2.81-2.228-3.574-3.282a59 59 0 0 0-3.153-2.47 60 60 0 0 0-4.034-2.69 8.6 8.6 0 0 1-1.658-1.303c-1.445-1.474-2.043-3.19-1.951-5.082.075-1.543.64-3.101 1.586-4.648q.208-.34.442-.683a76.2 76.2 0 0 1-21.75 11c-6.973 2.211-14.188 3.38-21.35 3.468zm56.05-25.728q.42-.233.845-.453c3.875-2.006 8.07-3.218 12.627-3.296 1.744-.03 3.45.053 5.17.136 4.417.215 8.946.434 11.14-1.382 1.38-1.143 2.16-2.619 2.399-4.082.24-1.477-.056-2.908-.832-3.899-1.713-2.182-3.725-3.132-5.823-3.294-2.374-.183-4.98.55-7.493 1.682-5.482 2.469-10.93 7.73-16.702 13.303zM47.282 236.55a69 69 0 0 0 10.004-4.056c-2.127-3.014-3.826-5.815-5.117-8.394-1.117-2.23-1.936-4.31-2.47-6.233-5.623 1.39-10.513 2.852-14.703 4.373-5.102 1.852-9.142 3.777-12.182 5.75-2.068 1.343-3.487 2.605-4.281 3.866-.62.985-.839 2.036-.679 3.218.231 1.697.884 2.768 1.794 3.398 1.094.759 2.667 1.093 4.44 1.177 7.7.367 15.584-.685 23.194-3.099m44.334 7.046c-3.214 1.414-5.51 2.454-5.987 3.101-.415.564.972-.592 1.889.042l.154.106.156.136c8.813 7.69 16.519 16.196 23.146 25.098a171.4 171.4 0 0 1 17.864 29.984c1.247 2.683 2.59 4.113 4.214 4.46 1.976.423 4.73-.332 8.441-2.075 26.691-12.535 52.569-22.775 77.397-30.047 24.917-7.298 48.789-11.607 71.378-12.249 21.715-.616 44.785 1.2 71.519 7.804 26.667 6.588 56.958 17.928 93.164 36.358l-.003.005c.313.16-.008.004.2.107 2.066 1.015 4.136 1.486 5.956.968 1.84-.523 3.647-2.137 5.274-5.334l.005.003c.17-.334.05-.084.141-.27 5.06-10.293 11.29-20.899 18.905-31.045 6.492-8.65 13.983-16.966 22.603-24.47-.508-.33-1.177-.73-1.932-1.176-37.639-16.318-72.397-29.808-106.343-39.076-33.904-9.256-67.02-14.304-101.433-13.752-35.704.573-67.507 4.658-100.3 12.961-32.82 8.31-66.658 20.862-106.409 38.36zm399.31 31.275a173 173 0 0 0-4.969 6.977c3.163 1.297 6.631 2.967 10.351 5.013 5.055 2.78 10.603 6.275 16.505 10.495q.808.578 1.614 1.067l-.004.006c3.158 1.918 5.954 2.568 8.375 2.042 2.424-.526 4.676-2.276 6.732-5.15a26 26 0 0 0 1.063-1.605c6.48-10.658 12.754-19.758 19.861-28.514 5.047-6.217 10.527-12.274 16.815-18.608-7.161-.09-14.376-1.258-21.35-3.47a76.2 76.2 0 0 1-21.75-10.999q.234.344.443.684c.945 1.546 1.51 3.104 1.585 4.647.093 1.892-.506 3.608-1.95 5.082a8.6 8.6 0 0 1-1.659 1.304 60 60 0 0 0-4.033 2.69 60 60 0 0 0-3.792 3.012l-.134-.155c-.417.544-.95 1.098-1.607 1.665-8.45 7.29-15.772 15.389-22.097 23.817zm18.556-35.768c1.567.926 2.914 1.746 3.957 2.677q.533-.405 1.075-.799a67 67 0 0 1 4.491-3.013q.209-.126.319-.234c-.032-.317-.24-.777-.585-1.342-.621-1.017-1.594-2.145-2.799-3.326-2.71-2.657-5.612-4.93-8.717-6.537-2.992-1.548-6.182-2.483-9.583-2.542-1.426-.024-3.075.056-4.738.136-5.737.279-11.618.564-15.856-2.945a13.8 13.8 0 0 1-3.519-4.38 275 275 0 0 0-3.575 5.835c12.751 5.034 25.766 10.48 39.14 16.281l.269.117zm.893-18.69q.425.22.845.453l-1.331-1.285c-5.772-5.573-11.22-10.834-16.702-13.303-2.513-1.131-5.12-1.865-7.494-1.682-2.097.162-4.11 1.112-5.822 3.294-.776.99-1.072 2.422-.832 3.899.239 1.463 1.019 2.94 2.399 4.082 2.194 1.816 6.723 1.596 11.14 1.382 1.72-.083 3.426-.166 5.17-.136 4.556.078 8.752 1.29 12.627 3.296m27.614 12.081a69 69 0 0 0 10.005 4.056c7.61 2.414 15.495 3.466 23.194 3.1 1.772-.085 3.346-.42 4.44-1.178.91-.63 1.563-1.7 1.793-3.398.16-1.182-.058-2.233-.678-3.218-.794-1.261-2.214-2.523-4.281-3.865-3.04-1.974-7.08-3.9-12.183-5.751-4.19-1.52-9.08-2.983-14.702-4.373-.534 1.922-1.353 4.002-2.47 6.233-1.292 2.58-2.99 5.38-5.118 8.394" style="fill:#1b1918;fill-rule:evenodd"></path><path d="M110.974 272.08a171.4 171.4 0 0 1 17.864 29.983c1.247 2.683 2.59 4.113 4.214 4.46 1.976.423 4.73-.332 8.441-2.075 26.691-12.535 52.569-22.775 77.397-30.047 24.917-7.298 48.789-11.607 71.378-12.249 21.715-.616 44.785 1.2 71.519 7.804 26.667 6.588 56.958 17.928 93.164 36.359l-.003.005c.313.158-.008.004.2.106 2.066 1.015 4.136 1.486 5.956.968 1.84-.523 3.647-2.137 5.274-5.334l.005.003c.17-.334.05-.084.141-.27 5.06-10.292 11.29-20.898 18.905-31.045 6.492-8.65 13.983-16.966 22.603-24.47-.508-.33-1.177-.73-1.932-1.176-37.639-16.318-72.397-29.808-106.343-39.076-33.904-9.256-67.02-14.304-101.433-13.752-35.704.573-67.507 4.658-100.3 12.961-32.82 8.31-66.658 20.862-106.409 38.36-3.213 1.415-5.51 2.455-5.987 3.102-.414.564.972-.592 1.89.042l.153.106.156.136c8.814 7.69 16.52 16.196 23.146 25.098zm30.343-7.496c-1.485-1.852-2.66-4.074-3.535-6.677-.86-2.558-1.27-5.02-1.24-7.399.039-2.374.532-4.543 1.492-6.52.955-1.965 2.343-3.693 4.172-5.177 1.819-1.49 4.05-2.675 6.698-3.566q3.264-1.095 6.07-1.052c1.876.025 3.488.31 4.827.856 1.348.544 2.45 1.23 3.321 2.054.864.826 1.426 1.625 1.689 2.407q.419 1.252-.2 2.445c-.408.802-1.04 1.338-1.898 1.627a3 3 0 0 1-1.468.118 3.24 3.24 0 0 1-1.405-.567c-1.245-1.013-2.25-1.758-3.028-2.23-.783-.46-1.723-.766-2.813-.894-1.1-.133-2.386.053-3.853.546-1.513.509-2.777 1.232-3.788 2.16a8.8 8.8 0 0 0-2.27 3.337c-.505 1.287-.735 2.745-.695 4.36q.075 2.43.968 5.094c1.298 3.86 3.168 6.53 5.606 8.027 2.436 1.49 5.217 1.715 8.324.67 1.513-.509 2.868-1.186 4.063-2.04a22.5 22.5 0 0 0 3.459-3.09l-1.795-5.336-5.064 1.703c-1.219.41-2.206.537-2.957.372s-1.273-.697-1.577-1.6c-.244-.728-.187-1.429.173-2.078.356-.657.984-1.132 1.887-1.436l7.426-2.498c.91-.306 1.714-.482 2.4-.534q1.035-.067 1.898.589c.582.435 1.066 1.227 1.447 2.36l2.12 6.302c.283.842.424 1.536.433 2.087a3.3 3.3 0 0 1-.44 1.656q-.45.829-1.276 1.733c-1.588 1.728-3.206 3.141-4.845 4.247-1.64 1.097-3.53 2.005-5.659 2.721-2.483.835-4.879 1.206-7.178 1.119-2.31-.093-4.426-.634-6.363-1.636q-2.912-1.488-5.126-4.26m35.86-8.787q-1.447-2.114-2.179-4.926-.736-2.84-.495-5.422c.169-1.72.635-3.277 1.413-4.672q1.17-2.083 3.206-3.577c1.357-.994 2.954-1.734 4.79-2.21 1.86-.482 3.63-.615 5.301-.398q2.509.329 4.575 1.61 2.064 1.268 3.513 3.396c.964 1.41 1.695 3.057 2.181 4.934.485 1.869.645 3.655.483 5.374-.168 1.721-.64 3.287-1.432 4.694-.781 1.413-1.857 2.61-3.2 3.6-1.342.991-2.953 1.734-4.828 2.22q-2.802.726-5.263.388a11.5 11.5 0 0 1-4.546-1.625 11.75 11.75 0 0 1-3.519-3.386m36.166.008.297-1.532-11.523-18.146c-.698-1.04-1.094-1.819-1.193-2.326a3 3 0 0 1 .115-1.595c.183-.514.483-.96.912-1.332.42-.37.891-.611 1.405-.712.904-.178 1.64-.017 2.204.473.574.488 1.135 1.242 1.698 2.26l8.339 14.572 2.143-15.494q.248-1.888.532-2.978c.188-.729.434-1.246.747-1.547q.47-.452 1.451-.646a2.7 2.7 0 0 1 1.43.114c.48.177.882.452 1.209.84q.477.577.62 1.303c-.005.306-.016.745-.05 1.311a21 21 0 0 1-.175 1.747l-3.874 23.244c-.326 2.048-.719 3.673-1.168 4.889a6.9 6.9 0 0 1-2.173 3.02c-.985.794-2.415 1.38-4.285 1.747-1.822.358-3.232.429-4.223.203s-1.595-.872-1.804-1.934q-.215-1.096.325-1.81c.35-.48.958-.805 1.807-.971a3.8 3.8 0 0 1 1.008-.058q.624.026 1.056-.06c.717-.14 1.256-.362 1.619-.655.37-.295.662-.748.885-1.343.221-.603.449-1.463.666-2.584m16.796-29.927-.557-3.846q-.227-1.546-.272-2.434-.045-.9.229-1.576.27-.714.906-1.225a2.97 2.97 0 0 1 1.48-.63c.794-.115 1.553.085 2.285.6.491.345.83.802 1.034 1.376q.301.85.533 2.47l.631 4.357 2.302-.333c.888-.129 1.603-.012 2.128.345q.8.546.945 1.545c.125.863-.126 1.511-.744 1.952-.618.44-1.544.746-2.793.927l-1.171.17 1.701 11.752c.145 1 .289 1.77.437 2.296s.393.939.74 1.231c.355.292.866.389 1.542.291.361-.052.855-.189 1.464-.416.61-.219 1.094-.362 1.44-.412q.763-.11 1.465.424c.469.357.74.84.827 1.448q.224 1.544-1.308 2.597c-1.028.712-2.576 1.214-4.65 1.514q-2.946.426-4.6-.363c-1.111-.524-1.905-1.356-2.392-2.502q-.728-1.707-1.159-4.68l-1.776-12.273-.825.12q-1.367.198-2.17-.356c-.541-.363-.858-.888-.955-1.56a2.12 2.12 0 0 1 .508-1.755c.441-.496 1.133-.817 2.083-.954zm18.6 19.409-1.707-17.91c-.276-2.886.614-4.432 2.66-4.627 1.044-.1 1.835.166 2.357.798.53.63.88 1.612 1.053 2.927.625-1.391 1.303-2.47 2.037-3.221.734-.752 1.76-1.19 3.088-1.317q1.992-.19 3.961.645c1.313.556 2.023 1.398 2.13 2.515.075.789-.125 1.457-.613 2.023-.48.565-1.034.869-1.65.928q-.345.033-1.717-.275c-.92-.204-1.716-.274-2.396-.21-.925.088-1.651.41-2.197.956-.538.555-.926 1.33-1.158 2.334q-.344 1.506-.34 3.538.012 2.03.285 4.923l.512 5.372q.187 1.953-.622 3.013c-.538.709-1.265 1.11-2.19 1.199q-1.364.13-2.339-.775-.97-.907-1.155-2.836m22.067-1.601c-2.402-2.226-3.72-5.36-3.966-9.407-.115-1.903.055-3.694.51-5.356.457-1.663 1.188-3.107 2.18-4.34q1.499-1.842 3.783-2.917c1.524-.715 3.24-1.135 5.142-1.25q3.72-.225 6.467 1.21c1.84.958 3.246 2.248 4.236 3.888.982 1.632 1.53 3.323 1.635 5.072q.146 2.434-1.18 3.244-1.321.798-3.807.951l-12.4.751c.104 1.467.476 2.74 1.106 3.826.63 1.087 1.434 1.88 2.404 2.388.97.516 2.024.735 3.15.667q1.138-.067 2.059-.4a6.4 6.4 0 0 0 1.77-.957 13 13 0 0 0 1.55-1.34 75 75 0 0 0 1.825-1.916c.308-.301.758-.475 1.36-.511.65-.04 1.192.114 1.618.452.418.331.655.835.695 1.496.036.58-.153 1.272-.55 2.08-.404.802-1.032 1.593-1.9 2.358-.86.772-1.957 1.437-3.3 1.988-1.342.559-2.905.888-4.68.996-4.072.247-7.306-.747-9.707-2.973m39.548-9.689 1.024-16.65c.087-1.42.47-2.456 1.139-3.127q1.004-1.007 2.538-.912c1.061.065 1.887.472 2.47 1.22.582.748.834 1.832.747 3.243l-1.048 17.037q-.18 2.906.343 4.894c.34 1.324 1.039 2.379 2.072 3.162 1.042.785 2.533 1.233 4.482 1.352 2.694.166 4.64-.442 5.847-1.833q1.809-2.086 2.08-6.526l1.056-17.174c.088-1.427.463-2.48 1.124-3.144q.993-.993 2.552-.895c1.03.063 1.849.461 2.448 1.203.598.74.857 1.833.77 3.26l-1.025 16.65c-.166 2.71-.567 4.96-1.193 6.734-.635 1.782-1.707 3.31-3.233 4.592a11.5 11.5 0 0 1-4.475 2.283q-2.51.647-5.802.444c-2.614-.16-4.847-.59-6.705-1.278-1.85-.689-3.333-1.678-4.448-2.953-1.122-1.275-1.898-2.876-2.346-4.79-.439-1.912-.578-4.18-.417-6.792m35.18 13.752 3.217-18.398c.211-1.21.628-2.072 1.249-2.578.628-.506 1.384-.685 2.284-.528a2.9 2.9 0 0 1 1.416.658c.4.34.682.8.856 1.371q.26.87.06 2.004l-.134.772q2.042-1.93 4.181-2.623t4.685-.247c1.65.288 3.056.911 4.235 1.872a6.97 6.97 0 0 1 2.367 3.604c.278.852.398 1.734.365 2.663-.04.92-.178 2.077-.423 3.477l-2.072 11.85c-.222 1.272-.68 2.185-1.365 2.737-.685.553-1.493.748-2.407.588q-1.395-.244-2.1-1.4-.693-1.155-.368-3.017l1.856-10.615c.366-2.093.358-3.751-.018-4.965-.378-1.206-1.422-1.963-3.134-2.262-1.11-.194-2.186-.038-3.227.478q-1.551.774-2.498 2.441c-.47.894-.935 2.633-1.39 5.235l-1.394 7.974c-.226 1.289-.692 2.2-1.39 2.742q-1.052.815-2.438.574-1.351-.236-2.046-1.39-.692-1.155-.367-3.017m28.618 5.567 4.13-18.015c.288-1.252.789-2.124 1.498-2.624q1.065-.75 2.422-.44 1.356.312 2.02 1.458c.443.765.535 1.714.278 2.832l-4.174 18.205q-.433 1.89-1.537 2.656c-.736.511-1.553.664-2.459.456q-1.357-.311-1.977-1.498c-.413-.79-.483-1.801-.201-3.03m8.783-23.993q-1.287-.295-2.02-1.31c-.49-.675-.616-1.508-.39-2.492.202-.882.68-1.543 1.438-1.974.759-.431 1.553-.556 2.38-.366a3.3 3.3 0 0 1 1.95 1.267c.498.67.634 1.497.407 2.489q-.334 1.452-1.426 2.06a3.18 3.18 0 0 1-2.339.326m6.199 7.566a2.12 2.12 0 0 1 1.155-1.415c.601-.284 1.363-.308 2.291-.062l.676.18.995-3.757q.4-1.511.704-2.345.31-.846.829-1.36.528-.552 1.313-.772a2.97 2.97 0 0 1 1.61 0c.775.206 1.394.688 1.866 1.448.317.51.45 1.064.411 1.672q-.055.9-.477 2.481l-1.128 4.256 2.248.596c.867.23 1.479.617 1.822 1.151.349.544.436 1.144.264 1.792-.223.843-.709 1.341-1.45 1.504s-1.713.08-2.933-.243l-1.143-.303-3.044 11.48c-.258.975-.428 1.74-.498 2.282s-.007 1.018.198 1.423q.316.611 1.304.873c.353.093.86.16 1.51.191.647.038 1.149.096 1.486.185.5.132.89.453 1.182.965s.35 1.063.193 1.656q-.4 1.509-2.222 1.876c-1.225.252-2.845.107-4.87-.43q-2.879-.763-4.09-2.137c-.817-.919-1.221-1.995-1.22-3.24q0-1.856.77-4.76l3.177-11.987-.805-.213c-.89-.236-1.51-.626-1.856-1.178-.357-.546-.442-1.153-.268-1.809m16.008 24.552c-1.446-2.937-1.557-6.335-.338-10.203.573-1.818 1.372-3.43 2.393-4.819 1.02-1.39 2.22-2.476 3.587-3.274q2.058-1.182 4.576-1.37c1.679-.123 3.432.1 5.249.672q3.555 1.12 5.606 3.444c1.376 1.552 2.227 3.26 2.565 5.145q.502 2.813-.287 5.322c-.488 1.549-1.245 2.42-2.262 2.608q-1.522.272-3.895-.474l-11.85-3.735q-.637 2.109-.335 3.969c.2 1.24.667 2.268 1.39 3.089.722.828 1.628 1.41 2.703 1.75.727.228 1.413.352 2.067.363.659.021 1.32-.067 1.996-.26a13 13 0 0 0 1.926-.698q.913-.408 2.389-1.136c.395-.172.878-.172 1.454.01.62.195 1.072.532 1.349 1 .271.459.313 1.014.114 1.646-.175.554-.599 1.132-1.258 1.746-.665.604-1.534 1.117-2.619 1.52-1.079.415-2.341.644-3.792.678q-2.18.06-4.726-.745c-3.892-1.226-6.556-3.31-8.002-6.248zm26.246 8.479c-.48-1.46-.67-3.047-.578-4.757.098-1.707.467-3.463 1.112-5.257q2.048-5.705 5.926-7.906c2.585-1.467 5.373-1.667 8.346-.6 1.726.62 3.066 1.445 4.031 2.47.965 1.024 1.79 2.368 2.46 4.024l3.224-8.979q.674-1.869 1.748-2.565c.723-.462 1.532-.531 2.436-.207s1.492.87 1.775 1.633c.276.76.211 1.716-.199 2.856l-9.627 26.808c-.415 1.156-.99 1.936-1.72 2.326q-1.108.581-2.351.135c-.815-.293-1.386-.841-1.7-1.632-.315-.792-.275-1.747.123-2.857l.216-.6q-1.702.97-3.195 1.427c-.987.306-2 .449-3.02.426q-1.53-.034-3.153-.617c-1.427-.513-2.638-1.3-3.634-2.352a9.84 9.84 0 0 1-2.22-3.776" style="display:inline;fill:#fff;fill-rule:evenodd"></path><path d="M98.968 286.86c3.77-2.074 7.284-3.761 10.481-5.066a162 162 0 0 0-3.999-5.62c-6.308-8.475-13.634-16.57-22.002-23.891-1.63-1.144-2.81-2.228-3.574-3.282a59 59 0 0 0-3.154-2.47 60 60 0 0 0-4.033-2.69 8.6 8.6 0 0 1-1.658-1.303c-1.445-1.474-2.044-3.19-1.951-5.082.075-1.543.64-3.1 1.586-4.647q.208-.341.442-.684a76.2 76.2 0 0 1-21.75 11c-6.973 2.211-14.188 3.38-21.35 3.469 6.288 6.334 11.768 12.39 16.815 18.608 7.107 8.755 13.381 17.855 19.862 28.514a26 26 0 0 0 1.063 1.604c2.055 2.875 4.308 4.625 6.731 5.15 2.421.527 5.217-.123 8.376-2.04l-.004-.007a26 26 0 0 0 1.613-1.067c5.903-4.22 11.451-7.716 16.506-10.496zM47.282 236.55a69 69 0 0 0 10.004-4.056c-2.127-3.014-3.826-5.815-5.117-8.394-1.117-2.23-1.936-4.31-2.47-6.233-5.623 1.39-10.513 2.852-14.703 4.373-5.102 1.852-9.142 3.777-12.182 5.75-2.068 1.343-3.487 2.605-4.281 3.866-.62.985-.839 2.036-.679 3.218.231 1.697.884 2.768 1.794 3.398 1.094.759 2.667 1.093 4.44 1.177 7.7.367 15.584-.685 23.194-3.099M84.9 220.413c3.876-2.006 8.071-3.218 12.628-3.296 1.744-.03 3.45.053 5.17.136 4.417.215 8.946.434 11.14-1.382 1.38-1.143 2.16-2.619 2.399-4.082.24-1.477-.056-2.908-.832-3.899-1.713-2.182-3.725-3.132-5.823-3.294-2.374-.183-4.98.55-7.493 1.682-5.482 2.469-10.93 7.73-16.702 13.303l-1.331 1.285q.42-.233.844-.453M97.636 223.987c-3.402.059-6.592.994-9.583 2.542-3.105 1.607-6.006 3.88-8.717 6.537-1.205 1.181-2.178 2.31-2.799 3.326-.346.565-.553 1.025-.585 1.342q.111.108.318.234a67 67 0 0 1 4.492 3.013l.52.383c1.694-1.436 4.278-2.629 7.559-4.073 12.589-5.541 24.595-10.592 36.172-15.175a255 255 0 0 0-3.264-5.318 13.8 13.8 0 0 1-3.52 4.38c-4.237 3.509-10.118 3.224-15.855 2.945-1.663-.08-3.312-.16-4.738-.136M513.022 251.054c-8.45 7.29-15.771 15.389-22.096 23.817a173 173 0 0 0-4.969 6.977c3.163 1.297 6.631 2.967 10.351 5.013 5.055 2.78 10.603 6.275 16.506 10.495q.807.578 1.613 1.067l-.004.006c3.158 1.918 5.954 2.568 8.375 2.042 2.424-.526 4.676-2.276 6.732-5.15a26 26 0 0 0 1.063-1.605c6.48-10.658 12.754-19.758 19.861-28.514 5.047-6.217 10.527-12.274 16.815-18.608-7.161-.09-14.376-1.258-21.35-3.47a76.2 76.2 0 0 1-21.75-10.999q.234.344.443.684c.945 1.546 1.51 3.104 1.585 4.647.093 1.892-.506 3.608-1.95 5.082a8.6 8.6 0 0 1-1.659 1.304 60 60 0 0 0-4.033 2.69 60 60 0 0 0-3.792 3.012l-.134-.155c-.417.544-.95 1.098-1.607 1.665zM537.99 232.494a69 69 0 0 0 10.004 4.057c7.61 2.413 15.495 3.465 23.194 3.099 1.773-.085 3.346-.42 4.44-1.178.91-.63 1.563-1.7 1.793-3.398.16-1.182-.058-2.233-.678-3.218-.794-1.261-2.214-2.523-4.281-3.865-3.04-1.974-7.08-3.9-12.183-5.751-4.19-1.52-9.08-2.983-14.702-4.373-.534 1.922-1.353 4.002-2.47 6.233-1.292 2.58-2.99 5.38-5.118 8.394M515.94 233.066c-2.71-2.657-5.612-4.93-8.717-6.537-2.992-1.548-6.182-2.483-9.583-2.542-1.426-.024-3.075.056-4.738.136-5.737.279-11.618.564-15.856-2.945a13.8 13.8 0 0 1-3.519-4.38 275 275 0 0 0-3.575 5.835c12.751 5.034 25.766 10.48 39.14 16.281l.269.117.12.072c1.568.926 2.915 1.746 3.958 2.677q.533-.405 1.075-.799a67 67 0 0 1 4.491-3.013q.209-.126.319-.233c-.032-.318-.24-.778-.585-1.343-.621-1.017-1.594-2.145-2.799-3.326M492.578 217.253c1.72-.083 3.426-.166 5.17-.136 4.556.078 8.752 1.29 12.627 3.296q.425.22.845.453l-1.331-1.285c-5.772-5.573-11.22-10.834-16.702-13.303-2.513-1.131-5.12-1.865-7.494-1.682-2.097.162-4.11 1.112-5.822 3.294-.776.99-1.072 2.422-.832 3.899.239 1.463 1.019 2.94 2.399 4.082 2.194 1.816 6.723 1.596 11.14 1.382M193.187 252.481c.73-1.708.77-3.83.117-6.348-.66-2.549-1.727-4.384-3.195-5.522-1.473-1.129-3.133-1.458-4.993-.976-1.206.313-2.178.899-2.928 1.77-.75.87-1.214 1.991-1.385 3.354-.18 1.365-.05 2.876.375 4.518q.638 2.452 1.841 4.096c.808 1.092 1.743 1.851 2.818 2.265s2.234.456 3.464.137c1.86-.482 3.15-1.576 3.886-3.294M274.732 226.825c-.948 1.174-1.467 2.848-1.549 5.03l11.49-.695c-.284-2.193-.97-3.802-2.051-4.837-1.08-1.027-2.445-1.495-4.1-1.395-1.585.096-2.843.73-3.79 1.897M414.84 247.1c-1.305.758-2.389 2.136-3.246 4.144l10.978 3.46c.52-2.149.454-3.897-.185-5.25-.641-1.346-1.748-2.27-3.33-2.77-1.514-.477-2.916-.334-4.218.416M437.855 262.268c-.593 1.65-.84 3.14-.758 4.484.085 1.335.461 2.449 1.133 3.35.664.9 1.514 1.54 2.545 1.91 1.053.378 2.11.44 3.176.197 1.066-.244 2.067-.846 2.995-1.81.93-.97 1.705-2.305 2.325-4.03.579-1.613.817-3.098.719-4.446-.095-1.356-.478-2.498-1.138-3.43a5.25 5.25 0 0 0-2.569-1.962c-1.09-.391-2.181-.431-3.267-.108q-1.627.484-2.977 1.995-1.347 1.525-2.184 3.85" style="fill:#fff;fill-rule:evenodd"></path><path d="M448.6 310.826c-10.989-5.519-21.411-10.367-31.336-14.614H177.44c-10.65 4.297-21.462 9.037-32.418 14.17a232 232 0 0 0-1.232 11.391 284 284 0 0 0-.852 31.637c.46 15.888 1.877 31.508 4.52 46.965l.088.507c2.776.274 5.55.574 8.289 1.046q1.005.173 1.991.38a60 60 0 0 1 6.655 1.816c4.652 1.552 9.122 3.45 13.592 5.356 5.46 2.329 10.877 4.738 16.295 7.135 6.265 2.772 12.535 5.548 18.837 8.256 6.873 2.953 13.78 5.841 20.76 8.604 7.281 2.883 14.618 5.628 22.063 8.184 6 2.06 12.036 3.986 18.17 5.728q4.885 1.386 9.808 2.594c11.305 2.773 15.616 2.492 26.947-.349a279 279 0 0 0 8.404-2.245c6.132-1.741 12.17-3.668 18.169-5.728 7.445-2.556 14.781-5.301 22.063-8.184 6.98-2.763 13.887-5.651 20.76-8.604 6.302-2.708 12.572-5.483 18.837-8.256 5.418-2.398 10.835-4.806 16.295-7.135 4.47-1.906 8.94-3.804 13.592-5.356a60 60 0 0 1 6.653-1.816 55 55 0 0 1 1.993-.38c2.742-.472 5.514-.774 8.293-1.047l.09-.508c2.643-15.458 4.064-31.075 4.523-46.963a284 284 0 0 0-.852-31.637 231 231 0 0 0-1.173-10.947m-75.381 9-6.759 5.901-4.44-3.779-2.67 2.327 4.44 3.793-6.66 5.873-6.85-5.813-46.456 40.569 29.053 25.37c1.493-1.22 2.568-.516 3.202.055l1.483 1.338c1.962 1.77 2.29 1.816 4.337.911.392-.173.812-.554 1.194-.213l.008.007c4.469-2.533 9.125-4.075 13.735-4.049 4.184.025 9.074 1.432 12.126 4.36 1.866 1.79 3.053 3.764 3.688 5.832 2.488 8.1-3.496 17.646-10.364 23.31-8.96 7.386-23.828 13.521-33.967 5.31-3.422-2.773-4.637-6.75-4.592-10.114.054-3.982 1.872-8.021 4.535-11.688l-.198-.173c-.391-.335.057-.693.262-1.028 1.076-1.751.968-1.988-1.002-3.75l-1.446-1.295a4 4 0 0 1-.548-.572c-.41-.546-.582-1.27.415-2.168l-28.964-25.293-28.964 25.293c.998.899.825 1.622.415 2.168a4 4 0 0 1-.548.572l-1.446 1.294c-1.969 1.763-2.078 2-1.002 3.751.206.335.654.693.263 1.028l-.199.173c2.664 3.667 4.481 7.706 4.535 11.688.046 3.364-1.17 7.341-4.591 10.113-10.14 8.212-25.008 2.077-33.968-5.31-6.868-5.663-12.851-15.209-10.364-23.309.636-2.068 1.823-4.042 3.689-5.832 3.052-2.928 7.941-4.335 12.126-4.36 4.61-.026 9.266 1.516 13.734 4.049l.008-.007c.383-.341.803.04 1.195.213 2.046.905 2.375.859 4.337-.911l1.482-1.338c.635-.57 1.71-1.274 3.202-.054l29.054-25.371-46.457-40.57-6.848 5.814-6.662-5.873 4.44-3.793-2.67-2.327-4.44 3.78-6.758-5.903 13.927-11.867 62.51 54.588 62.51-54.588z" style="fill:#7ae6f8;fill-rule:evenodd"></path><path d="M362.93 401.165c-1.597-1.585-4.843-2.127-7.119-1.994-1.573.093-2.969.435-4.42.96a25 25 0 0 0-2.522 1.072c.19.184.275.408-.068.715l.01.005-.456.386-1.229 1.043c-1.58 1.342.384 2.333-3.888 5.97-3.404 2.898-5.405 1.927-6.985 3.27l-1.371 1.165c-.42.356-.63.44-.79.4-.71 1.122-1.298 2.27-1.746 3.515-.476 1.32-.728 2.557-.606 3.938.147 1.677.596 3.123 2.047 4.284 1.695 1.356 3.208 1.965 5.52 2.045 3.476.12 6.385-.848 9.433-2.243 2.995-1.37 5.56-3.02 8.012-5.039a27.5 27.5 0 0 0 4.763-5.036c1.365-1.856 2.393-3.69 3.095-5.802.568-1.707.816-3.221.497-4.977-.186-1.02-.563-1.788-1.142-2.533a12 12 0 0 0-1.036-1.144zM261.823 421.61c.121-1.38-.13-2.619-.606-3.938-.448-1.245-1.037-2.394-1.745-3.515-.161.04-.371-.044-.79-.4l-1.373-1.166c-1.58-1.342-3.58-.371-6.984-3.269-4.272-3.637-2.308-4.628-3.888-5.97l-1.23-1.044-.454-.386.009-.005c-.343-.306-.258-.53-.068-.714a25 25 0 0 0-2.522-1.073c-1.451-.524-2.848-.866-4.42-.959-2.276-.133-5.522.408-7.118 1.994-.398.395-.743.766-1.036 1.143-.579.745-.957 1.514-1.142 2.534-.32 1.755-.07 3.27.496 4.976.703 2.113 1.73 3.947 3.096 5.802a27.5 27.5 0 0 0 4.762 5.037c2.454 2.02 5.018 3.669 8.013 5.039 3.048 1.395 5.956 2.362 9.434 2.242 2.31-.079 3.823-.688 5.519-2.044 1.451-1.161 1.9-2.608 2.047-4.285z" style="fill:#7ae6f8;fill-rule:evenodd"></path><path d="M312.239 451.351c-11.339 3.068-17.68 3.568-30.321.153a277 277 0 0 1-8.437-2.251c-6.175-1.754-12.254-3.695-18.294-5.768-7.482-2.568-14.856-5.327-22.173-8.223-7.002-2.77-13.931-5.67-20.826-8.632-6.311-2.711-12.589-5.49-18.862-8.265-5.409-2.394-10.815-4.799-16.263-7.123-4.406-1.879-8.812-3.752-13.398-5.282a56 56 0 0 0-8.282-2.106c-2.474-.425-4.976-.704-7.481-.954l.088.498c2.521 13.892 6.05 27.662 10.772 41.382 11.312 32.859 27.516 61.79 54.645 87.066 19.9 18.54 42.163 30.962 68.529 39.905a224 224 0 0 0 12.758 2.492c6.367-.721 12.785-1.826 19.252-3.293 25.355-8.88 46.895-21.11 66.21-39.104 27.13-25.276 43.333-54.206 54.645-87.066 4.724-13.721 8.245-27.49 10.768-41.384l.087-.497c-2.509.25-5.006.529-7.486.955-2.853.49-5.57 1.2-8.281 2.106-4.586 1.53-8.992 3.403-13.398 5.282-5.449 2.324-10.854 4.73-16.263 7.123-6.273 2.775-12.55 5.554-18.863 8.265-6.894 2.963-13.824 5.861-20.825 8.632-7.317 2.896-14.691 5.655-22.173 8.223-6.04 2.073-12.12 4.013-18.295 5.768a276 276 0 0 1-7.833 2.098m-24.9 32.255c.938-5.195 11.47-6.957 13.949-1.141l.057-.012c7.81-.673 11.646 4.539 10.706 10.884 6.328 1.394 8.339 8.572 4.487 12.863 2.174 1.947 3.39 4.387 2.08 7.649 1.189 1.75 1.402 3.692.585 5.606l.052.035c2.425 3.323 1.2 7.843-4.093 9.346-.014.795-1.423 3.739-5.675 3.399-.708 2.294-4.007 4.084-6.714 3.719q-.156.283-.338.536l.436 15.035-7.611-4.03v-8.933a9 9 0 0 1-1.32-.423c-2.058.717-4.708 1.095-7.457-1.187-3.411.714-6.391-.797-7.31-3.548-3.031-1.183-4.94-3.092-4.651-6.092-3.008-2.646-3.434-5.815-1.444-8.87-1.107-1.158-2.337-4.413-.586-6.587-2.473-3.142-2.143-6.284 1.305-8.809l.07-.03c-.126-1.952.793-3.4 2.504-4.615-1.126-3.105.844-6.608 4.532-7.942-.416-3.976 1.92-6.35 6.435-6.853m-66.288 4.573c-.708 2.294-4.007 4.084-6.714 3.72a5 5 0 0 1-.337.535l.435 15.035-7.611-4.03v-8.932a9 9 0 0 1-1.32-.424c-2.058.717-4.708 1.095-7.456-1.187-3.412.715-6.392-.797-7.31-3.548-3.032-1.183-4.941-3.092-4.652-6.092-3.008-2.646-3.433-5.816-1.444-8.87-1.107-1.157-2.337-4.414-.586-6.587-2.473-3.142-2.143-6.284 1.305-8.81l.07-.028c-.126-1.953.793-3.4 2.504-4.616-1.126-3.105.844-6.608 4.532-7.941-.416-3.977 1.92-6.352 6.436-6.854.938-5.194 11.47-6.957 13.949-1.141l.057-.012c7.81-.673 11.646 4.54 10.706 10.884 6.328 1.394 8.339 8.572 4.487 12.863 2.174 1.947 3.39 4.388 2.08 7.648 1.19 1.75 1.402 3.693.585 5.607l.052.035c2.425 3.323 1.2 7.843-4.093 9.347-.014.794-1.423 3.738-5.675 3.398m139.877-21.227c-2.473-3.142-2.144-6.284 1.305-8.81l.07-.029c-.126-1.952.793-3.4 2.504-4.615-1.127-3.105.843-6.608 4.532-7.942-.416-3.976 1.92-6.35 6.435-6.853.938-5.195 11.471-6.957 13.95-1.141l.056-.012c7.81-.673 11.647 4.539 10.707 10.884 6.327 1.394 8.338 8.572 4.487 12.863 2.173 1.947 3.39 4.387 2.08 7.649 1.189 1.749 1.402 3.692.585 5.606l.052.035c2.425 3.323 1.2 7.843-4.094 9.346-.013.795-1.422 3.74-5.674 3.399-.708 2.294-4.007 4.084-6.714 3.72a5 5 0 0 1-.338.535l.436 15.035-7.612-4.03v-8.933a9 9 0 0 1-1.32-.423c-2.057.717-4.707 1.095-7.456-1.187-3.412.714-6.391-.798-7.31-3.549-3.031-1.182-4.94-3.09-4.651-6.091-3.008-2.646-3.434-5.816-1.445-8.87-1.106-1.157-2.336-4.414-.585-6.587" style="fill:#e9e842;fill-rule:evenodd"></path><path d="M299.885 484.875c-1.48-6.91-11.488-4.086-10.33.802-4.475-.867-8.086 1.971-5.769 6.307-3.686-.406-7.437 4.072-4.26 7.548-2.684.006-4.094 2.455-3.096 4.583-3.937 1.098-4.397 5.57-.806 7.631-2.267 1.268-2.495 4.572.56 6.587-3.837 2.948-1.415 7.472.895 8.062-1.006 2.014.298 5.083 4.267 5.41-.572 2.807 3.598 4.419 5.906 2.652 1.457 2.9 5.332 2.736 6.707 1.18.393.374.835.656 1.3.855 2.18.931 4.889.057 5.618-1.621.195-.448.249-.952.115-1.495 2.826 1.813 7.361-.298 6.495-3.835 3.409 1.82 6.081.196 5.444-2.684 5.198.86 7.071-5.4 3.42-6.8 1.565-2.098 1.42-4.503-.403-5.943 2.16-2.95.376-6.76-3.052-7.35 6.11-4.589 3.23-11.497-3.476-11.89 2.497-9.276-4.99-11.835-9.535-9.999M224.496 482.8c5.197.861 7.07-5.399 3.42-6.799 1.564-2.097 1.42-4.502-.404-5.943 2.16-2.95.376-6.76-3.052-7.35 6.11-4.59 3.23-11.497-3.476-11.89 2.497-9.276-4.99-11.834-9.535-9.999-1.48-6.909-11.487-4.086-10.33.802-4.475-.867-8.086 1.971-5.769 6.307-3.685-.406-7.437 4.072-4.26 7.548-2.684.007-4.094 2.455-3.096 4.583-3.937 1.098-4.396 5.57-.806 7.631-2.266 1.268-2.495 4.571.56 6.587-3.837 2.949-1.415 7.472.896 8.062-1.007 2.014.297 5.083 4.266 5.41-.572 2.807 3.598 4.419 5.906 2.652 1.457 2.9 5.333 2.735 6.707 1.18.393.374.835.656 1.3.855 2.18.931 4.889.057 5.619-1.621.194-.448.248-.952.114-1.495 2.826 1.813 7.361-.298 6.495-3.835 3.41 1.82 6.081.196 5.445-2.684M364.62 473.43c-3.837 2.948-1.415 7.472.895 8.062-1.006 2.014.298 5.083 4.267 5.41-.573 2.807 3.598 4.418 5.906 2.652 1.457 2.9 5.332 2.735 6.707 1.18.393.374.835.655 1.3.855 2.18.931 4.888.057 5.618-1.622.195-.447.249-.951.114-1.494 2.827 1.813 7.362-.298 6.496-3.835 3.409 1.82 6.081.196 5.444-2.684 5.197.86 7.071-5.4 3.42-6.8 1.565-2.098 1.42-4.503-.403-5.943 2.16-2.95.375-6.761-3.052-7.35 6.11-4.589 3.23-11.497-3.477-11.89 2.498-9.276-4.99-11.835-9.534-9.999-1.48-6.91-11.488-4.086-10.33.801-4.475-.866-8.086 1.972-5.77 6.308-3.685-.406-7.436 4.072-4.259 7.548-2.684.006-4.094 2.455-3.096 4.583-3.937 1.098-4.397 5.57-.806 7.63-2.267 1.269-2.495 4.572.56 6.588" style="fill:#00743d;fill-rule:evenodd"></path><path d="m300.488 547.956-.282-9.695c-.829.357-1.744.528-2.666.548v7.586zM212.052 503.9l-.282-9.694c-.829.356-1.744.527-2.666.547v7.586zM385.975 493.906v7.586l2.948 1.56-.281-9.694c-.829.357-1.744.528-2.667.548" style="fill:#bc9120;fill-rule:evenodd"></path><path d="M375.512 458.594a.938.963 0 0 1-.938-.964.938.963 0 1 1 .938.964M370.038 461.812a.938.963 0 0 1-.938-.963.938.963 0 1 1 .938.963M375.31 464.296a.938.963 0 0 1-.938-.963.938.963 0 1 1 .938.963M369.43 467.743a.938.963 0 0 1-.938-.963.938.963 0 1 1 .938.963M370.773 450.66a.938.963 0 0 1-.938-.963.938.963 0 1 1 .938.963M378.073 453.702a.938.963 0 0 1-.938-.964.938.963 0 1 1 .938.964M376.932 448.784a.938.963 0 0 1-.938-.963.938.963 0 1 1 .938.963M380.253 444.172a.938.963 0 0 1-.938-.964.938.963 0 1 1 .938.963M383.902 440.116a.938.963 0 0 1-.937-.963.938.963 0 1 1 .937.963M383.953 449.849a.938.963 0 0 1-.938-.963.938.963 0 1 1 .938.963M363.955 464.246a.938.963 0 0 1-.938-.963.938.963 0 1 1 .938.963M369.632 456.844a.938.963 0 0 1-.938-.963.938.963 0 1 1 .938.963M364.968 470.633a.938.963 0 0 1-.937-.964.938.963 0 1 1 .937.964M364.968 479.048a.938.963 0 0 1-.937-.964.938.963 0 1 1 .937.964M368.213 474.485a.938.963 0 0 1-.938-.963.938.963 0 1 1 .938.963M372.572 471.342a.938.963 0 0 1-.937-.963.938.963 0 1 1 .937.963M371.964 479.048a.938.963 0 0 1-.938-.964.938.963 0 1 1 .938.964M368.416 484.928a.938.963 0 0 1-.938-.963.938.963 0 1 1 .938.963M372.877 489.592a.938.963 0 0 1-.938-.964.938.963 0 1 1 .938.964M373.89 484.928a.938.963 0 0 1-.937-.963.938.963 0 1 1 .937.963M379.264 490.808a.938.963 0 0 1-.938-.963.938.963 0 1 1 .938.963M385.854 490.504a.938.963 0 0 1-.938-.963.938.963 0 1 1 .938.963M391.912 487.767a.938.963 0 0 1-.938-.963.938.963 0 1 1 .938.963M398.502 483.711a.938.963 0 0 1-.938-.963.938.963 0 1 1 .938.963M403.47 479.757a.938.963 0 0 1-.938-.963.938.963 0 1 1 .937.963M402.861 473.167a.938.963 0 0 1-.938-.963.938.963 0 1 1 .938.963M401.746 467.388a.938.963 0 0 1-.938-.963.938.963 0 1 1 .938.963M401.138 456.54a.938.963 0 0 1-.938-.963.938.963 0 1 1 .938.963M393.94 444.678a.938.963 0 0 1-.938-.963.938.963 0 1 1 .937.963M387.45 445.388a.938.963 0 0 1-.937-.963.938.963 0 1 1 .938.963M392.216 449.342a.938.963 0 0 1-.938-.963.938.963 0 1 1 .938.963M388.059 453.6a.938.963 0 0 1-.938-.963.938.963 0 1 1 .938.963M395.055 454.411a.938.963 0 0 1-.938-.963.938.963 0 1 1 .938.963M391.709 458.264a.938.963 0 0 1-.938-.964.938.963 0 1 1 .938.964M397.893 461.913a.938.963 0 0 1-.937-.963.938.963 0 1 1 .937.963M395.359 467.084a.938.963 0 0 1-.938-.963.938.963 0 1 1 .938.963M398.324 471.241a.938.963 0 0 1-.938-.963.938.963 0 1 1 .938.963M395.587 474.384a.938.963 0 0 1-.938-.963.938.963 0 1 1 .938.963M399.54 478.44a.938.963 0 0 1-.937-.964.938.963 0 1 1 .938.963M394.674 480.062a.938.963 0 0 1-.938-.964.938.963 0 1 1 .938.964M392.241 484.117a.938.963 0 0 1-.938-.963.938.963 0 1 1 .938.963M387.07 481.38a.938.963 0 0 1-.937-.964.938.963 0 1 1 .937.964M386.868 486.145a.938.963 0 0 1-.938-.964.938.963 0 1 1 .938.964M379.872 487.158a.938.963 0 0 1-.938-.963.938.963 0 1 1 .938.963M379.365 482.799a.938.963 0 0 1-.938-.963.938.963 0 1 1 .938.963M375.817 476.31a.938.963 0 0 1-.938-.963.938.963 0 1 1 .938.963M380.987 478.44a.938.963 0 0 1-.938-.964.938.963 0 1 1 .938.963M377.439 470.024a.938.963 0 0 1-.938-.963.938.963 0 1 1 .938.963M382.508 473.978a.938.963 0 0 1-.938-.963.938.963 0 1 1 .938.963M311.844 501.555a.938.963 0 0 1-.938-.963.938.963 0 1 1 .938.963M313.06 511.947a.938.963 0 0 1-.937-.963.938.963 0 1 1 .937.963M314.125 518.385a.938.963 0 0 1-.938-.964.938.963 0 1 1 .938.963M314.835 524.67a.938.963 0 0 1-.938-.963.938.963 0 1 1 .938.963M310.07 528.574a.938.963 0 0 1-.938-.963.938.963 0 1 1 .938.963M303.835 531.97a.938.963 0 0 1-.938-.963.938.963 0 1 1 .938.964M297.346 534.252a.938.963 0 0 1-.937-.964.938.963 0 1 1 .937.963M290.858 534.252a.938.963 0 0 1-.938-.964.938.963 0 1 1 .938.963M284.47 533.745a.938.963 0 0 1-.937-.964.938.963 0 1 1 .938.964M279.503 529.385a.938.963 0 0 1-.938-.963.938.963 0 1 1 .938.963M277.17 523.91a.938.963 0 0 1-.937-.963.938.963 0 1 1 .938.963M277.07 515.597a.938.963 0 0 1-.938-.963.938.963 0 1 1 .937.963M276.157 508.703a.938.963 0 0 1-.938-.964.938.963 0 1 1 .938.964M279.097 503.532a.938.963 0 0 1-.938-.963.938.963 0 1 1 .938.963M281.733 497.652a.938.963 0 0 1-.938-.964.938.963 0 1 1 .938.964M286.397 490.352a.938.963 0 0 1-.938-.963.938.963 0 1 1 .938.963M294.102 484.066a.938.963 0 0 1-.938-.963.938.963 0 1 1 .938.963M305.052 489.54a.938.963 0 0 1-.938-.963.938.963 0 1 1 .938.964M298.664 488.628a.938.963 0 0 1-.937-.963.938.963 0 1 1 .937.963M291.973 489.44a.938.963 0 0 1-.938-.964.938.963 0 1 1 .938.963M286.397 495.725a.938.963 0 0 1-.938-.963.938.963 0 1 1 .938.963M284.876 502.214a.938.963 0 0 1-.938-.963.938.963 0 1 1 .938.963M282.139 508.398a.938.963 0 0 1-.938-.963.938.963 0 1 1 .938.963M292.581 495.522a.938.963 0 0 1-.938-.963.938.963 0 1 1 .938.963M298.664 495.218a.938.963 0 0 1-.937-.963.938.963 0 1 1 .937.963M305.559 498.463a.938.963 0 0 1-.938-.964.938.963 0 1 1 .938.964M296.434 499.882a.938.963 0 0 1-.938-.963.938.963 0 1 1 .938.963M290.452 500.896a.938.963 0 0 1-.938-.963.938.963 0 1 1 .938.963M288.526 507.993a.938.963 0 0 1-.938-.963.938.963 0 1 1 .938.963M293.494 504.951a.938.963 0 0 1-.938-.963.938.963 0 1 1 .938.963M283.76 513.772a.938.963 0 0 1-.937-.963.938.963 0 1 1 .938.963M280.086 519.753a.938.963 0 0 1-.938-.963.938.963 0 1 1 .938.963M283.837 525.026a.938.963 0 0 1-.938-.964.938.963 0 1 1 .938.963M287.385 519.145a.938.963 0 0 1-.937-.963.938.963 0 1 1 .937.963M286.676 530.196a.938.963 0 0 1-.938-.963.938.963 0 1 1 .938.963M290.731 524.417a.938.963 0 0 1-.938-.963.938.963 0 1 1 .938.963M293.773 530.602a.938.963 0 0 1-.938-.963.938.963 0 1 1 .938.963M308.17 506.574a.938.963 0 0 1-.938-.964.938.963 0 1 1 .937.964M301.985 503.633a.938.963 0 0 1-.938-.963.938.963 0 1 1 .938.963M295.09 511.034a.938.963 0 0 1-.937-.963.938.963 0 1 1 .938.963M289.438 513.265a.938.963 0 0 1-.937-.963.938.963 0 1 1 .937.963M301.402 510.73a.938.963 0 0 1-.938-.963.938.963 0 1 1 .938.963M307.688 513.366a.938.963 0 0 1-.938-.963.938.963 0 1 1 .938.963M308.702 520.26a.938.963 0 0 1-.938-.963.938.963 0 1 1 .938.963M305.66 526.344a.938.963 0 0 1-.938-.964.938.963 0 1 1 .938.963M299.678 528.574a.938.963 0 0 1-.937-.963.938.963 0 1 1 .937.963M293.57 519.247a.938.963 0 0 1-.938-.964.938.963 0 1 1 .938.964M300.388 516.002a.938.963 0 0 1-.938-.963.938.963 0 1 1 .938.963M301.909 521.68a.938.963 0 0 1-.938-.963.938.963 0 1 1 .938.963M297.169 524.721a.938.963 0 0 1-.938-.963.938.963 0 1 1 .938.963M304.443 493.698a.938.963 0 0 1-.937-.964.938.963 0 1 1 .937.964M225.136 480.517a.938.963 0 0 1-.938-.963.938.963 0 1 1 .938.963M225.972 474.434a.938.963 0 0 1-.938-.963.938.963 0 1 1 .938.963M224.857 467.844a.938.963 0 0 1-.938-.963.938.963 0 1 1 .938.963M224.35 457.097a.938.963 0 0 1-.938-.963.938.963 0 1 1 .938.963M217.152 445.438a.938.963 0 0 1-.938-.963.938.963 0 1 1 .938.963M206.81 440.571a.938.963 0 0 1-.937-.963.938.963 0 1 1 .938.963M198.598 445.742a.938.963 0 0 1-.938-.963.938.963 0 1 1 .938.963M193.098 452.535a.938.963 0 0 1-.938-.964.938.963 0 1 1 .938.964M190.97 459.226a.938.963 0 0 1-.939-.963.938.963 0 1 1 .938.963M187.928 465.917a.938.963 0 0 1-.938-.963.938.963 0 1 1 .938.963M188.333 472a.938.963 0 0 1-.938-.963.938.963 0 1 1 .938.964M188.536 479.909a.938.963 0 0 1-.938-.964.938.963 0 1 1 .938.964M191.476 485.485a.938.963 0 0 1-.938-.963.938.963 0 1 1 .938.963M195.86 489.337a.938.963 0 0 1-.937-.963.938.963 0 1 1 .938.963M202.248 490.858a.938.963 0 0 1-.938-.963.938.963 0 1 1 .938.963M208.838 491.162a.938.963 0 0 1-.938-.963.938.963 0 1 1 .938.963M215.732 488.222a.938.963 0 0 1-.937-.963.938.963 0 1 1 .937.963M221.714 484.37a.938.963 0 0 1-.938-.964.938.963 0 1 1 .938.964M218.795 453.25a.938.963 0 0 1-.937-.964.938.963 0 1 1 .937.963M204.377 448.783a.938.963 0 0 1-.938-.963.938.963 0 1 1 .938.963M211.245 447.004a.938.963 0 0 1-.938-.963.938.963 0 1 1 .938.963M205.06 444.672a.938.963 0 0 1-.937-.963.938.963 0 1 1 .937.963M198.801 451.318a.938.963 0 0 1-.938-.963.938.963 0 1 1 .938.963M210.663 453.244a.938.963 0 0 1-.938-.963.938.963 0 1 1 .938.963M196.47 457.401a.938.963 0 0 1-.939-.963.938.963 0 1 1 .938.963M204.377 456.387a.938.963 0 0 1-.938-.963.938.963 0 1 1 .938.963M220.599 463.484a.938.963 0 0 1-.938-.963.938.963 0 1 1 .938.963M215.023 458.922a.938.963 0 0 1-.938-.963.938.963 0 1 1 .938.963M194.34 463.991a.938.963 0 0 1-.938-.963.938.963 0 1 1 .938.963M200.626 461.457a.938.963 0 0 1-.938-.964.938.963 0 1 1 .938.964M207.52 464.295a.938.963 0 0 1-.938-.963.938.963 0 1 1 .938.963M209.852 459.023a.938.963 0 0 1-.938-.963.938.963 0 1 1 .938.963M214.212 467.844a.938.963 0 0 1-.938-.963.938.963 0 1 1 .937.963M220.903 471.19a.938.963 0 0 1-.938-.964.938.963 0 1 1 .938.964M221.207 477.982a.938.963 0 0 1-.938-.963.938.963 0 1 1 .938.963M216.746 482.646a.938.963 0 0 1-.938-.963.938.963 0 1 1 .938.963M210.258 485.992a.938.963 0 0 1-.938-.964.938.963 0 1 1 .937.964M200.727 486.296a.938.963 0 0 1-.937-.963.938.963 0 1 1 .937.963M205.594 483.66a.938.963 0 0 1-.938-.963.938.963 0 1 1 .938.963M193.225 481.125a.938.963 0 0 1-.938-.963.938.963 0 1 1 .938.963M192.617 475.144a.938.963 0 0 1-.938-.964.938.963 0 1 1 .937.964M194.137 469.162a.938.963 0 0 1-.937-.963.938.963 0 1 1 .937.963M200.22 467.134a.938.963 0 0 1-.937-.963.938.963 0 1 1 .937.963M206.608 469.77a.938.963 0 0 1-.938-.963.938.963 0 1 1 .938.963M216.544 474.028a.938.963 0 0 1-.938-.963.938.963 0 1 1 .937.963M211.88 479.909a.938.963 0 0 1-.938-.964.938.963 0 1 1 .938.964M209.244 474.637a.938.963 0 0 1-.938-.964.938.963 0 1 1 .938.964M198.801 480.72a.938.963 0 0 1-.938-.964.938.963 0 1 1 .938.964M198.928 473.42a.938.963 0 0 1-.938-.963.938.963 0 1 1 .938.963M204.276 477.627a.938.963 0 0 1-.938-.963.938.963 0 1 1 .938.963M390.517 478.44a.938.963 0 0 1-.937-.964.938.963 0 1 1 .937.963M386.969 476.107a.938.963 0 0 1-.938-.963.938.963 0 1 1 .938.963M391.126 472.863a.938.963 0 0 1-.938-.963.938.963 0 1 1 .938.963M387.172 468.909a.938.963 0 0 1-.938-.963.938.963 0 1 1 .938.963M381.089 466.172a.938.963 0 0 1-.938-.964.938.963 0 1 1 .938.964M382.103 461.508a.938.963 0 0 1-.938-.963.938.963 0 1 1 .938.963M382.71 455.83a.938.963 0 0 1-.937-.963.938.963 0 1 1 .938.963M386.766 460.595a.938.963 0 0 1-.938-.963.938.963 0 1 1 .938.963M389.808 464.043a.938.963 0 0 1-.938-.964.938.963 0 1 1 .938.964" style="fill:#00873d;fill-rule:evenodd"></path><path d="M137.371 588.663c6.41-7.587 11.964-16.03 16.775-25.012a178 178 0 0 0 2.63-5.111 79 79 0 0 1-8.233-5.715 84.6 84.6 0 0 1-11.509-11.05 5.96 5.96 0 0 0-2.094-1.554 6.4 6.4 0 0 0-3.415-.486c-1.098.143-2.124.568-2.917 1.253a4.5 4.5 0 0 0-1.17 1.573c-4.453 10.013-9.054 19.614-13.821 28.305-4.692 8.553-9.572 16.287-14.67 22.762 1.18.275 2.914.495 4.627.712l.576.073c7.747.99 13.98 4.053 19.331 8.17a55 55 0 0 1 4.088 3.49c-2.363-5.819 1.011-9.03 7.411-15.12.768-.73 1.59-1.512 2.391-2.29M118.942 607.77c-4.384-3.303-9.449-5.748-15.655-6.54l-.575-.073c-2.952-.374-5.95-.754-8.115-1.84-2.19 2.917-3.592 4.965-3.635 5.884-.078 1.676.092 3.152.64 4.428.526 1.223 1.452 2.351 2.913 3.408 7.12 5.15 13.682 7.455 18.814 9.115.588-2.356 1.236-4.681 2.075-7.008.923-2.563 2.052-5.028 3.538-7.374M134.652 604.904a27.8 27.8 0 0 0 4.202 5.456c1.708 1.731 3.506 3.096 5.152 4.038 1.863 1.065 3.513 1.76 5.187 2.12 1.697.364 3.508.414 5.679.186 2.472-.258 4.899-.013 7.091.928 1.887.81 3.551 2.094 4.87 3.958l.157-.256a31 31 0 0 1 1.944-2.778c-9.825-5.337-19.61-11.083-29.364-17.133-1.29-.801-2.318-1.544-3.111-2.281-2.16 2.298-2.917 3.865-1.807 5.762M147.765 623.254c-2.437-.524-4.713-1.463-7.18-2.874q-.485-.277-.98-.591l1.055 1.363c3.574 4.63 7.16 9.274 11.56 12.78 2.128 1.697 3.735 2.207 5.007 1.98 1.346-.242 2.684-1.323 4.006-2.733.703-.751 1.204-1.456 1.468-2.146l.124-.386q.066-.255.086-.51c.086-1.105-.385-2.483-1.512-4.29-.578-.924-1.308-1.531-2.13-1.884-1.054-.452-2.329-.559-3.697-.415-2.905.304-5.392.223-7.807-.294M143.18 595.576c24.441 15.159 49.061 28.376 74.065 37.96 24.872 9.533 50.088 15.452 75.832 16.073 25.05.604 50.475-4.863 76.227-14.413 25.937-9.619 52.149-23.35 78.617-39.19 1.234-.739 2.2-1.47 2.495-2.114.074-.16-.072-.49-.57-1.078-5.963-7.044-11.587-15.371-16.801-24.847-5.178-9.408-9.97-19.998-14.308-31.634-.834-2.236-1.89-3.047-3.05-3.029-1.858.03-4.332 1.298-6.904 2.915-19.57 12.312-38.833 22.515-57.76 30.147-16.905 6.817-33.546 11.588-49.906 13.985q-2.15.58-4.336 1.125-.74-.184-1.475-.373l-.312.035-.455.05-.475-.077c-19.49-3.173-38.614-8.92-57.462-16.76-18.788-7.816-37.324-17.724-55.696-29.247-2.223-1.394-3.931-2.062-5.06-1.774-.966.246-1.865 1.49-2.737 3.964-3.587 10.18-7.846 20.15-12.9 29.59-5.075 9.474-10.928 18.365-17.677 26.335-.236.279-.45.483-.636.638l-.726.699c.106.129.699.207 2.01 1.02m25.291-11 8.003-15.35q.456-.871 1.012-1.28.555-.412 1.26-.366.702.048 1.594.513l9.907 5.165q1.007.526 1.27 1.205c.173.456.142.919-.098 1.378q-.372.711-1.084.888-.707.174-1.715-.35l-8.28-4.317-2.658 5.1 6.922 3.609c.638.332 1.048.723 1.219 1.161.169.443.134.898-.105 1.357q-.363.697-1.055.856c-.467.106-1.015-.009-1.643-.336l-6.922-3.61-3.424 6.569c-.435.836-.956 1.35-1.558 1.55q-.903.298-1.817-.18-.935-.486-1.202-1.406t.374-2.155m26.549-5.926q1.967-.762 4.218-.603 2.246.15 4.679 1.279 3.307 1.53 5.073 3.914 1.77 2.381 1.887 5.32.117 2.938-1.367 6.139-1.097 2.368-2.66 3.992c-1.044 1.086-2.223 1.896-3.552 2.43-1.328.533-2.75.752-4.278.656-1.526-.101-3.121-.534-4.792-1.309-1.66-.769-3.03-1.715-4.099-2.84-1.077-1.122-1.833-2.355-2.278-3.7q-.668-2.013-.425-4.307c.16-1.524.599-3.053 1.308-4.584.727-1.568 1.624-2.895 2.701-3.99 1.076-1.089 2.268-1.887 3.585-2.397m26.456 9.426q2.252.015 4.748.994 3.393 1.329 5.3 3.602c1.273 1.512 2.01 3.247 2.205 5.196q.293 2.925-.995 6.21-.952 2.431-2.414 4.145c-.976 1.148-2.105 2.028-3.399 2.64-1.293.613-2.7.917-4.231.913-1.53-.01-3.147-.345-4.862-1.017q-2.558-1.001-4.263-2.588c-1.143-1.055-1.972-2.24-2.497-3.555-.527-1.315-.753-2.737-.683-4.274q.104-2.298 1.028-4.654.945-2.413 2.456-4.146 1.51-1.727 3.433-2.61 1.917-.878 4.174-.856m13.923 8.266c-.274-.445-.333-.94-.167-1.481.17-.556.504-.936.994-1.141q.735-.308 1.852.036l14.416 4.424c.786.24 1.313.583 1.596 1.037q.417.68.172 1.483c-.166.54-.498.916-.984 1.128q-.728.312-1.89-.043l-4.943-1.517-4.79 15.614q-.414 1.352-1.246 1.81-.826.46-1.819.154c-.672-.206-1.156-.596-1.443-1.166-.286-.57-.297-1.297-.024-2.188l4.791-15.614-4.942-1.516q-1.162-.359-1.573-1.02m16.22 24.423c-.342-.525-.416-1.268-.22-2.217l3.437-16.566q.303-1.454 1.101-1.955.795-.501 2.283-.194l7.425 1.54q1.641.342 2.802.784c.778.3 1.447.696 2.004 1.202.48.421.873.915 1.195 1.479q.475.844.624 1.771a5.2 5.2 0 0 1-.049 1.895q-.687 3.309-4.444 4.128c2.822 1.548 3.955 3.65 3.401 6.317-.255 1.231-.817 2.275-1.677 3.124a5.9 5.9 0 0 1-3.11 1.634q-1.134.207-2.529.096c-.93-.07-2.004-.234-3.21-.484l-7.003-1.453q-1.52-.314-2.03-1.1m20.614.572 7.31-13.987.753-1.445q.44-.849.9-1.389.461-.54 1.15-.84.694-.297 1.662-.208.991.093 1.615.514.624.42.978 1.022.353.602.57 1.279c.144.45.328 1.05.543 1.797l4.74 15.02q.563 1.715.493 2.465c-.048.516-.315.975-.806 1.366-.49.391-1.058.554-1.693.495q-.555-.051-.937-.282a2 2 0 0 1-.619-.579c-.158-.235-.317-.592-.481-1.06-.17-.473-.306-.891-.425-1.25l-.85-2.914-9.47-.882-1.38 2.765q-.806 1.621-1.323 2.165c-.34.363-.864.514-1.563.449a2.28 2.28 0 0 1-1.515-.773q-.624-.69-.551-1.482.045-.462.245-.934c.14-.319.355-.751.654-1.313m23.923 2.842-.618-17.317q-.048-1.376.574-2.09.621-.715 1.674-.753 1.063-.039 1.75.62.687.662.739 2.054l.584 16.369 9.603-.343q1.145-.04 1.778.471c.426.346.644.79.663 1.329.02.55-.166 1.007-.556 1.361-.391.355-.978.549-1.751.576l-11.438.409q-1.544.055-2.245-.58-.703-.637-.757-2.106m19.388-1.2-2.65-17.124q-.21-1.36.324-2.143.531-.783 1.573-.944 1.051-.163 1.81.41c.507.382.834 1.036.976 1.953l2.505 16.186 9.497-1.47q1.131-.174 1.82.26c.465.293.733.707.816 1.24.084.544-.047 1.02-.393 1.418s-.907.66-1.671.778l-11.31 1.75q-1.527.238-2.298-.311c-.514-.366-.85-1.035-1-2.003m23.307-17.687c.108-1.53.51-2.932 1.193-4.2a10.4 10.4 0 0 1 2.767-3.261 12.1 12.1 0 0 1 3.975-2.028c1.815-.547 3.531-.686 5.16-.416 1.622.266 2.967.802 4.031 1.598 1.06.796 1.73 1.645 2.005 2.558.151.501.095.994-.155 1.49a1.85 1.85 0 0 1-1.157.973c-.58.174-1.058.17-1.423-.003q-.56-.267-1.383-1.078-1.372-1.332-2.809-1.769c-.961-.284-2.022-.255-3.195.098-1.868.563-3.144 1.691-3.84 3.383q-1.044 2.546.09 6.308.756 2.513 1.994 3.961c.821.968 1.764 1.586 2.827 1.868q1.592.417 3.398-.126 1.956-.589 3.027-1.929c.715-.894 1.118-2.01 1.214-3.358q.033-.936.3-1.606c.175-.44.58-.76 1.21-.95a2.04 2.04 0 0 1 1.558.128q.743.369.985 1.175c.207.687.26 1.48.144 2.385q-.165 1.355-.951 2.847c-.519.998-1.297 1.91-2.32 2.744q-1.545 1.247-3.884 1.952-1.77.534-3.32.65a9.7 9.7 0 0 1-2.938-.215 9.2 9.2 0 0 1-2.721-1.14c-.794-.499-1.526-1.099-2.196-1.81a12 12 0 0 1-1.747-2.401 14.7 14.7 0 0 1-1.225-2.935c-.52-1.73-.728-3.364-.614-4.892zm27.83 7.097c-.584-.24-1.063-.815-1.428-1.724l-6.465-16.076q-.513-1.277-.171-2.161.34-.883 1.319-1.276.986-.398 1.856-.012c.58.258 1.047.82 1.393 1.68l6.112 15.197 8.915-3.585q1.062-.428 1.832-.161c.519.18.874.523 1.075 1.024.206.51.187 1.003-.06 1.47-.248.466-.734.848-1.451 1.136l-10.62 4.271q-1.432.577-2.308.217m8.322-24.148c-.39-.836-.481-1.55-.286-2.15q.294-.899 1.25-1.344.993-.463 1.871-.108c.585.236 1.075.77 1.461 1.601l4.672 10.035q.796 1.711 1.73 2.672a3.66 3.66 0 0 0 2.237 1.125c.874.108 1.914-.122 3.129-.688 1.68-.782 2.666-1.76 2.962-2.944q.443-1.775-.776-4.389l-4.709-10.115c-.391-.84-.492-1.561-.3-2.154.193-.592.617-1.038 1.264-1.34.642-.298 1.26-.338 1.853-.11.592.226 1.089.764 1.48 1.604l4.565 9.806c.743 1.596 1.201 3.006 1.376 4.219.17 1.22 0 2.439-.524 3.664a8 8 0 0 1-1.993 2.754q-1.314 1.184-3.367 2.14-2.444 1.136-4.448 1.452-2 .313-3.607-.233c-1.075-.36-2.042-1.02-2.908-1.963q-1.29-1.42-2.367-3.728zm29.336 5.325-7.722-15.053q-.677-1.322-.37-2.213.304-.89 1.654-1.584l6.748-3.461c.993-.51 1.887-.892 2.674-1.148.794-.255 1.563-.367 2.314-.323a5.7 5.7 0 0 1 1.859.401q.898.359 1.597.988c.468.425.852.923 1.151 1.505q1.543 3.007-.869 6.004c3.169-.567 5.37.359 6.614 2.782.573 1.119.791 2.284.654 3.485a5.9 5.9 0 0 1-1.395 3.223q-.753.874-1.909 1.663c-.769.53-1.707 1.076-2.802 1.638l-6.365 3.265q-1.379.709-2.27.417-.897-.294-1.563-1.589" style="fill:#fff;fill-rule:evenodd"></path><path d="M192.297 593.35a5.9 5.9 0 0 0 1.267 2.268c.579.643 1.294 1.16 2.154 1.557a6.6 6.6 0 0 0 3.403.613q1.744-.153 3.336-1.433c1.054-.85 1.958-2.089 2.707-3.705q1.036-2.24 1.05-4.235.003-1.989-.998-3.483c-.67-.99-1.612-1.768-2.818-2.327a6.65 6.65 0 0 0-2.594-.636 5.76 5.76 0 0 0-2.513.487q-1.2.528-2.3 1.7-1.097 1.178-1.898 2.901c-.54 1.165-.87 2.281-1.005 3.362q-.191 1.62.21 2.931M215.887 597.44c-.469 1.195-.732 2.33-.801 3.417q-.093 1.628.385 2.913a5.9 5.9 0 0 0 1.401 2.187c.617.607 1.362 1.08 2.245 1.425a6.6 6.6 0 0 0 3.433.406q1.733-.257 3.243-1.632c1.002-.912 1.83-2.202 2.479-3.86q.9-2.3.793-4.292-.117-1.985-1.207-3.416c-.728-.949-1.716-1.668-2.953-2.153a6.6 6.6 0 0 0-2.627-.478 5.76 5.76 0 0 0-2.479.637q-1.165.601-2.194 1.835-1.024 1.244-1.718 3.012M259.348 603.565l-1.18 5.693 4.256.883q1.735.358 2.743.238a2.6 2.6 0 0 0 1.7-.9q.522-.55.682-1.329.348-1.67-.778-2.472c-.746-.535-1.966-.98-3.652-1.33zM262.336 613.461l-4.833-1.002-1.334 6.431 4.987 1.035q4.712.978 5.387-2.285c.23-1.113-.007-2.003-.72-2.674q-1.062-1-3.487-1.505M283.535 608.254l-4.31 8.91 6.96.648zM401.123 576.913l2.654 5.174 3.868-1.985q1.575-.81 2.284-1.537c.48-.487.729-1.074.76-1.767a2.67 2.67 0 0 0-.304-1.463q-.778-1.517-2.158-1.436c-.916.052-2.146.47-3.678 1.257zM409.66 582.742l-4.392 2.253 2.999 5.844 4.532-2.325q4.28-2.196 2.759-5.16-.777-1.515-2.239-1.63-1.454-.111-3.66 1.018M439.08 564.653c4.997 9.08 10.36 17.03 16.02 23.716l.253.307c.797.774 1.613 1.55 2.378 2.278 6.4 6.09 9.773 9.3 7.41 15.119a55 55 0 0 1 4.089-3.49c5.35-4.117 11.583-7.18 19.33-8.17l.577-.073c1.713-.217 3.447-.437 4.628-.712-5.1-6.475-9.98-14.209-14.67-22.762-4.768-8.691-9.369-18.292-13.822-28.305a4.5 4.5 0 0 0-1.17-1.573c-.793-.685-1.82-1.11-2.917-1.253a6.4 6.4 0 0 0-3.415.486 5.96 5.96 0 0 0-2.094 1.554 84.6 84.6 0 0 1-11.509 11.05 79 79 0 0 1-8.293 5.751 197 197 0 0 0 3.205 6.077M451.45 601.906c-9.42 5.639-18.81 11.013-28.165 16.036a32 32 0 0 1 2.436 3.392l.158.256c1.317-1.864 2.982-3.149 4.869-3.958 2.193-.94 4.619-1.186 7.09-.928 2.172.228 3.983.178 5.68-.186 1.674-.36 3.324-1.055 5.187-2.12 1.646-.942 3.444-2.307 5.152-4.038a27.8 27.8 0 0 0 4.202-5.456c1.214-2.076.193-3.757-2.458-6.437-1.053 1.331-2.51 2.457-4.151 3.439M444.946 623.254c-2.415.517-4.903.598-7.807.294-1.369-.144-2.643-.037-3.697.415-.822.353-1.552.96-2.13 1.885-1.127 1.806-1.598 3.184-1.512 4.288q.02.255.085.51l.125.39c.265.688.765 1.393 1.468 2.143 1.322 1.41 2.66 2.49 4.007 2.732 1.27.228 2.877-.282 5.007-1.98 4.399-3.505 7.984-8.148 11.56-12.779l1.054-1.364q-.495.315-.98.591c-2.466 1.412-4.743 2.351-7.18 2.874M473.769 607.77c1.486 2.346 2.615 4.81 3.538 7.374.839 2.327 1.487 4.652 2.075 7.008 5.132-1.66 11.693-3.965 18.814-9.115 1.461-1.057 2.387-2.185 2.913-3.408.548-1.276.718-2.752.64-4.428-.043-.92-1.445-2.967-3.635-5.884-2.165 1.086-5.164 1.466-8.115 1.84l-.576.072c-6.205.793-11.27 3.237-15.654 6.541" style="fill:#fff;fill-rule:evenodd" data-source="https://football-logos.cc"></path><!-- source: https://football-logos.cc --></svg>