<svg xmlns="http://www.w3.org/2000/svg" viewBox="0 0 83.58 83.58"><!-- Source: https://football-logos.cc --><path d="M178.681 161.566c0 22.897-18.562 41.457-41.457 41.457-22.897 0-41.457-18.56-41.457-41.457s18.56-41.458 41.457-41.458c22.895 0 41.457 18.56 41.457 41.458" style="fill:#fff;fill-opacity:1;fill-rule:nonzero;stroke:#3fa535;stroke-width:.667125;stroke-linecap:butt;stroke-linejoin:miter;stroke-miterlimit:4;stroke-dasharray:none;stroke-opacity:1" transform="translate(-95.433 -119.775)" data-source="https://football-logos.cc"></path><path d="M137.215 134.12v14.32" style="fill:none;stroke:#878787;stroke-width:.334648;stroke-linecap:butt;stroke-linejoin:miter;stroke-miterlimit:10;stroke-dasharray:none;stroke-opacity:1" transform="translate(-95.433 -119.775)"></path><path d="m137.076 154.055 2.283 2.482 2.93-.05c.36-.788 3.357-7.14 3.822-9.828-1.756-1.614-5.858-4.965-8.935-6.108-3.873 1.54-7.23 4.594-8.988 6.206.467 2.69 3.512 8.942 3.872 9.73h2.782zM137.314 134.99s3.138-1.093 9.244-.198c-1.588-2.334-5.984-2.581-9.244-2.581s-7.984.645-9.572 2.381c6.006-.445 9.572.398 9.572.398M112.35 156.836c2.682-6.902 6.548-10.062 6.548-10.062s-.589-.465-1.037-2.2c-.447-1.74-.148-3.18-.148-3.18-3.326.05-8.292 9.78-8.342 15.59zM156.637 141.296s.062 1.701-.148 2.879c-.209 1.18-.993 2.581-.993 2.581s5.461 4.816 6.504 10.129l3.077.2c-.806-5.98-5.56-15.79-8.44-15.79" style="fill:#878787;fill-opacity:1;fill-rule:nonzero;stroke:none;stroke-width:2.17304" transform="translate(-95.433 -119.775)"></path><path d="M116.57 165.921s-3.424-4.17-4.12-7.547c-.695-3.376 1.291-8.29 3.027-9.73 1.739-1.441 2.484-2.134 6.307-2.134 3.822 0 8.59.445 8.59.445l14.087-.16s5.418-.399 7.856-.285c2.588.117 5.115.395 5.115.395s4.25 4.216 4.698 6.647c.446 2.434-.33 6.063-1.768 8.695-1.441 2.631-2.782 3.724-2.782 3.724" style="fill:none;stroke:#878787;stroke-width:.334648;stroke-linecap:butt;stroke-linejoin:miter;stroke-miterlimit:10;stroke-dasharray:none;stroke-opacity:1" transform="translate(-95.433 -119.775)"></path><path d="M164.535 166.45c.42-1.94.641-3.957.641-6.026 0-15.583-12.569-28.215-28.076-28.215s-28.075 12.632-28.075 28.215c0 2.069.22 4.086.64 6.026" style="fill:none;stroke:#878787;stroke-width:.649742;stroke-linecap:butt;stroke-linejoin:miter;stroke-miterlimit:10;stroke-dasharray:none;stroke-opacity:1" transform="translate(-95.433 -119.775)"></path><path d="m108.974 159.219 2.234-5.263 5.71-11.567s2.73-3.899 5.312-5.387c2.581-1.491 5.363-3.006 9.583-3.103 4.22-.1 11.072.147 11.072.147s5.193.435 8.67 2.619c3.475 2.186 4.655 3.624 5.995 6.108 1.339 2.482 7.595 16.068 7.595 16.068m-36.064 2.464s.69-1.571 1.889-3.227c.454-.63 4.535-6.22 4.535-6.22l4.5.013 1.01 2.892s1.622 2.171 2.615 3.86c.993 1.688 1.438 2.779 1.438 2.779" style="fill:none;stroke:#878787;stroke-width:.334648;stroke-linecap:butt;stroke-linejoin:miter;stroke-miterlimit:10;stroke-dasharray:none;stroke-opacity:1" transform="translate(-95.433 -119.775)"></path><path d="M142.971 163.44c-1.882-3.132-3.468-5.457-5.882-7.896-2.417 2.439-5.596 7.726-5.735 8.006 4.952 5.028 5.846 11.432 5.846 11.432s.634-3.51 2.346-6.925c.89-1.776 3.477-4.531 3.425-4.618M137.144 184.887s-.255.813-1.396 1.77c-.478.426-1.025.912-1.807 1.433.688.483 1.638.93 3.133.93 1.497 0 2.119-.204 3.346-.912-.782-.502-1.384-1.063-1.862-1.489-1.14-.956-1.414-1.732-1.414-1.732" style="fill:#3fa535;fill-opacity:1;fill-rule:nonzero;stroke:none;stroke-width:2.17304" transform="translate(-95.433 -119.775)" data-source="https://football-logos.cc"></path><path d="m143.384 188.176-.013-.002q.003.002.013.002" style="fill:#3fa535;fill-opacity:1;fill-rule:nonzero;stroke:#fff;stroke-width:1.26905;stroke-linecap:butt;stroke-linejoin:miter;stroke-miterlimit:10;stroke-dasharray:none;stroke-opacity:1" transform="translate(-95.433 -119.775)"></path><path d="M147.514 168.243c2.264-.98 3.82-1.56 6.628-2.01-.967-3.688-1.862-5.809-3.016-7.895-2.903 1.584-4.633 2.93-6.815 5.324.878 1.78 1.543 2.992 1.9 5.326.436-.25.895-.57 1.303-.745M138.093 176.472s3.349-4.72 7.15-6.889c-.357-2.334-.872-3.286-1.75-5.063-5.065 5.25-5.4 11.952-5.4 11.952M155.427 167.181c.204 1.565.647 4.674.354 6.61-1.21 7.97-4.73 11.655-4.73 11.655s5.04-2.176 8.361-6.758c2.586-3.575 4.535-8.975 4.766-11.34-3.699-.419-5.494-.501-8.751-.167" style="fill:#3fa535;fill-opacity:1;fill-rule:nonzero;stroke:none;stroke-width:2.17304" transform="translate(-95.433 -119.775)"></path><path d="M154.813 172.878c.198-1.931-.168-4.002-.448-5.567-2.805.452-3.638.678-5.902 1.658-.408.176-1.554.793-1.99 1.043.28 1.839.417 3.236.352 4.913-.13 3.353-.656 9.292-3.966 12.476.478.178 2.42-.019 3.073-.111.321-.05 2.377-.495 2.644-.728 1.843-1.6 5.455-6.032 6.237-13.684" style="fill:#3fa535;fill-opacity:1;fill-rule:nonzero;stroke:none;stroke-width:2.17304" transform="translate(-95.433 -119.775)"></path><path d="M137.814 179.562c0 .4.037.807.093 1.415.122 1.345.435 3.177 1.398 4.561.595 1.117 1.404 1.3 2.364 1.658 3.31-3.183 4.133-8.911 4.133-11.934 0-1.682.037-2.797-.243-4.637-1.806 1.23-2.717 1.899-4.15 3.333-1.69 1.689-3.595 4.377-3.595 5.604M128.077 168.838c.632-2.086 1.058-3.433 1.936-5.213-2.308-2.197-3.875-3.666-6.778-5.25-1.265 1.9-2.494 5.176-3.053 7.895 3.314.445 7.458 2.319 7.895 2.568M136.418 176.51s-.746-7.076-5.548-12.065c-.878 1.777-1.34 2.942-1.825 5.102 3.803 2.166 7.373 6.962 7.373 6.962M118.544 172.934c-.122-1.953.087-4.148.26-5.734-3.196-.513-5.015-.233-8.713.186 1.023 4.766 3.005 9.303 6.664 13.497 2.493 2.856 6.443 4.637 6.443 4.637s-4.19-5.102-4.654-12.586" style="fill:#3fa535;fill-opacity:1;fill-rule:nonzero;stroke:none;stroke-width:2.17304" transform="translate(-95.433 -119.775)"></path><path d="M127.63 177.365c-.205-1.668-.076-5.552.204-7.39-.437-.25-1.732-.924-2.14-1.1-2.265-.98-2.964-1.13-5.772-1.582-.174 1.587-.632 3.525-.448 5.474.802 8.377 5.363 13.312 6.33 13.814.315.164 1.789.633 3.184.783.522.055 1.98.215 2.458.037-3.034-3.501-3.388-6.535-3.816-10.036" style="fill:#3fa535;fill-opacity:1;fill-rule:nonzero;stroke:none;stroke-width:2.17304" transform="translate(-95.433 -119.775)"></path><path d="M136.418 180.828c-.004-.445.213-1.212.055-1.638-1.434-3.892-4.563-6.441-7.708-8.62-.282 1.84-.395 3.707-.243 5.38.354 3.892.843 8.101 4.153 11.285.958-.361 1.378-.411 2.066-1.25.913-.93 1.693-3.499 1.676-5.157M108.844 178.355l-1.263 1.717 2.104-.392zm.195-.279.982 1.548.592-.116c.197-.037.347-.093.45-.158q.205-.13.206-.34.001-.124-.185-.484l.132-.085.924 1.458-.133.085a.75.75 0 0 0-.462-.25q-.273-.038-.974.091l-4.88.895-.037-.061 2.992-4.116q.425-.585.478-.824.044-.18-.067-.393l.132-.085 1.348 2.12-.135.086-.056-.087q-.162-.256-.306-.309-.105-.035-.21.031a1 1 0 0 0-.122.104 6 6 0 0 0-.207.268zM102.483 174.528l1.74-.82.063.144q-.615.394-.84.972-.226.575-.025 1.038.159.356.462.47a.75.75 0 0 0 .86-.217q.138-.183.216-.486.055-.221.117-.96c.061-.692.178-1.194.36-1.507q.28-.466.798-.697.662-.295 1.343-.043.684.251 1 .964.1.225.139.446.039.222.03.584a.8.8 0 0 0 .044.313c.024.062.082.113.163.157a.6.6 0 0 0 .31.061l.056.128-1.99.885-.056-.128q.773-.53 1.017-1.163.246-.635.025-1.143-.177-.391-.515-.52a.84.84 0 0 0-.978.263q-.136.167-.21.417-.076.253-.127.828-.065.805-.19 1.198-.12.394-.36.682t-.61.454q-.63.279-1.257.061a1.52 1.52 0 0 1-.91-.854 1.8 1.8 0 0 1-.137-.476 2.3 2.3 0 0 1-.004-.478q.02-.291-.025-.387a.18.18 0 0 0-.126-.115c-.055-.012-.172-.004-.343.037zM101.023 170.03l1.83-.592.043.15q-.661.315-.959.857-.297.541-.152 1.028.111.371.398.526.29.15.578.065a.7.7 0 0 0 .302-.176q.16-.162.278-.454.083-.212.24-.939.214-1.014.547-1.447.336-.426.88-.59.694-.207 1.339.13t.867 1.086q.072.233.08.458.01.225-.043.584a.75.75 0 0 0 .006.316.35.35 0 0 0 .14.176q.115.084.3.098l.044.137-2.088.623-.037-.135q.831-.427 1.156-1.023.324-.6.167-1.132-.123-.411-.445-.58a.84.84 0 0 0-1.002.137 1.2 1.2 0 0 0-.265.39q-.107.237-.228.801-.165.791-.339 1.165a2 2 0 0 1-.445.632q-.276.254-.663.372-.66.195-1.256-.1-.593-.3-.793-.963a1.8 1.8 0 0 1-.076-.489 2.6 2.6 0 0 1 .055-.474c.037-.19.05-.321.03-.387a.2.2 0 0 0-.107-.13c-.056-.025-.17-.03-.346-.006zM100.561 165.82q.098.705.948.963.7.211 1.93.043 1.463-.201 2.099-.76.443-.39.365-.97a1.03 1.03 0 0 0-.3-.623q-.315-.298-.934-.403-.617-.106-1.57.031-1.133.154-1.67.422-.537.267-.728.593a1.07 1.07 0 0 0-.14.708m-.263.083c-.148-.815.031-1.517.522-2.108q.743-.884 2.014-1.058 1.088-.15 1.993.31 1.2.608 1.39 1.993.19 1.389-.751 2.29-.743.715-1.877.868-1.272.177-2.23-.487-.956-.662-1.06-1.808M100.003 157.059l1.999.07-.006.149q-.788.14-1.221.584-.432.446-.452 1.028-.018.486.278.902.297.415.793.622a4 4 0 0 0 1.42.29q.775.029 1.416-.127.642-.152.98-.518.34-.364.359-.96a1.73 1.73 0 0 0-.207-.906q-.225-.416-.79-.887l.497.019q.489.452.702.934a2.5 2.5 0 0 1 .189 1.11 2.9 2.9 0 0 1-.421 1.463q-.392.631-1.098.958t-1.488.3a3.3 3.3 0 0 1-1.552-.443 2.9 2.9 0 0 1-1.11-1.089 2.63 2.63 0 0 1-.359-1.417q.019-.547.302-1.147.166-.346.17-.441a.3.3 0 0 0-.094-.218q-.096-.092-.311-.126zM106.264 154.36l.156.024-.437 2.68-.154-.025.031-.17a.66.66 0 0 0-.03-.373.4.4 0 0 0-.179-.185q-.093-.056-.521-.127l-3.747-.608q-.437-.074-.552-.043a.4.4 0 0 0-.219.137.64.64 0 0 0-.137.328l-.03.17-.155-.025.435-2.682.156.025-.03.17a.66.66 0 0 0 .03.373.4.4 0 0 0 .176.187q.094.057.522.128l3.746.608q.438.074.555.043a.44.44 0 0 0 .217-.139.6.6 0 0 0 .137-.33zM105.5 150.359l-2.128.132 1.651 1.363zm.338-.031-.556 1.747.47.378q.234.19.408.244.23.075.393-.062c.065-.05.148-.205.252-.454l.15.05-.524 1.644-.15-.05a.74.74 0 0 0-.106-.514q-.146-.236-.693-.689l-3.823-3.166.025-.07 5.076-.347q.724-.054.941-.163a.56.56 0 0 0 .256-.305l.15.05-.763 2.394-.15-.049.031-.1c.062-.19.074-.337.037-.432q-.038-.1-.16-.14a.6.6 0 0 0-.157-.024q-.038-.006-.339.012zM109.3 146.242l.116-.224.193.3a.55.55 0 0 1 .346-.217.66.66 0 0 1 .42.08q.195.103.306.292.108.189.086.384-.037.31-.31.83l-.178-.09q.16-.35.115-.525a.43.43 0 0 0-.235-.273.3.3 0 0 0-.23-.018.38.38 0 0 0-.196.19zm-4.213-4.603 1.78.913-.07.132q-.772-.206-1.353.013-.581.217-.846.736-.22.433-.132.937.093.502.452.897.462.508 1.163.87.688.353 1.334.486.648.134 1.108-.05.46-.185.735-.716a1.76 1.76 0 0 0 .197-.906q-.026-.473-.338-1.141l.443.228q.251.618.237 1.143-.01.526-.302 1.086-.378.741-1.001 1.145-.626.405-1.402.4a3.2 3.2 0 0 1-1.473-.363 3.3 3.3 0 0 1-1.215-1.06 2.9 2.9 0 0 1-.543-1.458q-.065-.773.276-1.434.25-.487.762-.909.3-.243.342-.328a.26.26 0 0 0 .006-.235q-.048-.127-.228-.25zM110.522 140.75l-2.058-.559 1.126 1.821zm.33.083-1.088 1.475.321.508q.161.254.309.363.194.144.393.07.114-.046.385-.348l.126.094-1.026 1.388-.126-.093a.76.76 0 0 0 .065-.524c-.043-.178-.186-.472-.436-.873l-2.6-4.23.044-.06 4.917 1.303q.7.186.943.15a.58.58 0 0 0 .342-.205l.126.094-1.49 2.02-.129-.093.063-.085q.18-.24.176-.398-.002-.107-.107-.182a.7.7 0 0 0-.14-.076q-.037-.017-.325-.098zm-4.33-3.918.119-.164c.05.031.087.062.12.083q.377.277.464.639a.7.7 0 0 1-.112.63q-.147.203-.532.384-.384.186-.461.287c-.043.062-.062.131-.043.205q.02.113.182.27l-.132.177q-.454-.315-.563-.7-.107-.382.102-.669a.6.6 0 0 1 .135-.137q.092-.066.356-.196.395-.198.494-.334c.037-.043.043-.102.037-.174q-.019-.107-.163-.302M111.545 134.153q-.512.494-.22 1.335.245.688 1.107 1.581 1.024 1.063 1.851 1.248.577.13.998-.279.283-.273.326-.61.057-.43-.227-.989-.28-.562-.947-1.254-.793-.824-1.325-1.1-.532-.275-.909-.238-.376.037-.654.306m-.222-.165q.858-.898 2.008-.82 1.154.076 2.045 1.002.761.792.924 1.793.219 1.328-.79 2.297-1.009.974-2.292.745-1.015-.18-1.808-1.004-.892-.925-.921-2.088-.028-1.163.834-1.925M117.957 129.357l2.273 3.885q.18.308.248.363a.23.23 0 0 0 .152.055q.121.003.289-.095.553-.323.597-.913.066-.797-.63-1.986-.561-.959-1.167-1.373-.476-.323-.908-.287-.303.026-.854.352m1.039 5.695-.079-.134.148-.087a.65.65 0 0 0 .26-.244q.064-.129.044-.276c-.006-.062-.09-.221-.242-.48l-1.916-3.275q-.223-.381-.316-.456a.4.4 0 0 0-.243-.08.65.65 0 0 0-.341.102l-.15.087-.078-.135 2.006-1.174q.801-.469 1.434-.515a2.3 2.3 0 0 1 1.432.37q.661.422 1.106 1.182.308.525.415 1.056t.037.96a2.3 2.3 0 0 1-.287.79q-.212.359-.613.721-.176.162-.61.415zM123.464 126.598l.845 2.19.098-.037c.306-.12.49-.313.543-.58.056-.267.025-.617-.102-1.05l.135-.049 1.091 2.817-.137.049a2.5 2.5 0 0 0-.47-.685q-.253-.239-.472-.269-.221-.035-.57.102l.588 1.517q.172.443.243.53c.05.056.11.096.19.113q.116.028.325-.05l.289-.11q.678-.263.952-.77t.178-1.29l.13-.05.444 1.796-4.186 1.616-.055-.145.16-.063a.66.66 0 0 0 .307-.215.37.37 0 0 0 .07-.246q.002-.11-.154-.514l-1.367-3.54a3.5 3.5 0 0 0-.191-.441.43.43 0 0 0-.215-.164.62.62 0 0 0-.415.031l-.161.062-.056-.146 4.055-1.566.615 1.59-.137.056q-.328-.545-.614-.726a1.13 1.13 0 0 0-.674-.168q-.227.004-.778.218zM131.053 124.469l.376 2.34.148-.025q.34-.055.536-.204a.93.93 0 0 0 .305-.44c.072-.195.095-.449.078-.758l.132-.024.459 2.86-.13.024q-.204-.798-.566-1.006a1.14 1.14 0 0 0-.765-.141l-.148.025.28 1.742q.073.438.133.54a.4.4 0 0 0 .2.162c.094.043.214.05.357.03l.17-.03.024.156-2.68.431-.024-.156.172-.025a.67.67 0 0 0 .343-.145q.091-.076.12-.227.026-.108-.044-.536l-.601-3.746q-.074-.438-.131-.54a.4.4 0 0 0-.198-.164.6.6 0 0 0-.356-.025l-.17.025-.024-.154 4.324-.696.263 1.634-.154.025q-.143-.567-.407-.808-.263-.246-.693-.29-.237-.028-.85.072zM134.205 123.675l2.68-.043.004.156-.135.002q-.304.006-.416.078a.4.4 0 0 0-.156.196q-.046.124-.037.617l.043 2.825c.006.517.05.858.122 1.023a.93.93 0 0 0 .354.411q.245.163.61.157.423-.007.716-.222.294-.215.434-.59.142-.37.126-1.29l-.037-2.351q-.005-.39-.082-.552a.47.47 0 0 0-.187-.228q-.173-.095-.489-.09l-.002-.156 1.797-.03.002.158h-.108a.63.63 0 0 0-.361.104.55.55 0 0 0-.207.297q-.044.138-.043.49l.037 2.19c.012.678-.024 1.169-.095 1.471q-.114.452-.576.839-.46.384-1.27.398c-.447.006-.795-.05-1.042-.183q-.506-.263-.72-.686-.214-.42-.226-1.141l-.043-2.823q-.007-.498-.061-.62a.4.4 0 0 0-.174-.19q-.125-.066-.454-.062zM145.108 124.405l-.234 1.543-.137-.018q-.038-.555-.152-.809a1.1 1.1 0 0 0-.348-.435q-.133-.097-.49-.152l-.383-.061-.672 4.4q-.065.437-.036.552.027.117.14.217.114.103.335.135l.17.025-.025.156-2.686-.408.025-.156.171.024a.66.66 0 0 0 .372-.03.4.4 0 0 0 .187-.179q.056-.095.121-.523l.67-4.4-.37-.056q-.519-.075-.79.13-.383.29-.566.909l-.143-.025.234-1.543zM147.921 125.553l-.713 2.239.098.03q.47.15.787-.11.316-.26.578-.883l.139.043-.917 2.88-.14-.043q.106-.483.062-.828t-.198-.509q-.153-.162-.506-.276l-.495 1.55q-.145.452-.141.567a.33.33 0 0 0 .076.207q.075.094.284.163l.298.093q.691.222 1.223-.002.531-.222.948-.893l.134.043-.78 1.678-4.276-1.365.05-.15.164.05a.67.67 0 0 0 .374.024.38.38 0 0 0 .209-.15q.073-.082.202-.497l1.154-3.614q.119-.374.128-.465a.38.38 0 0 0-.065-.26q-.102-.16-.343-.235l-.164-.05.05-.149 4.14 1.321-.52 1.623-.14-.043q.086-.63-.024-.95a1.16 1.16 0 0 0-.42-.554q-.182-.136-.742-.317zM152.243 129.672q.485.245.778.239a.92.92 0 0 0 .526-.163q.234-.16.407-.5.173-.342.16-.621a.9.9 0 0 0-.178-.509q-.17-.228-.669-.475zm-.15.296-.832 1.653-.1.187q-.102.205-.061.358c.024.1.102.183.226.244q.272.139.571.12a1 1 0 0 0 .552-.214 1.45 1.45 0 0 0 .411-.508q.183-.362.176-.724a.94.94 0 0 0-.21-.608q-.209-.248-.733-.508m1.343.434q.575.503.717.88.21.54-.07 1.09a1.39 1.39 0 0 1-.903.75c-.498.133-1.076.031-1.732-.297l-2.356-1.189.07-.139q.322.163.47.152a.4.4 0 0 0 .247-.09q.1-.084.311-.5l1.686-3.345q.21-.416.218-.55a.4.4 0 0 0-.074-.254q-.084-.124-.402-.283l.07-.141 2.222 1.12q.798.402 1.05.727.252.323.284.735.036.41-.143.762a1.13 1.13 0 0 1-.578.541q-.388.167-1.086.03M159.164 131.074q-.573-.423-1.351.004-.639.355-1.378 1.351-.878 1.187-.924 2.034c-.024.394.127.706.44.939q.316.233.656.22.434-.02.939-.388.506-.368 1.08-1.14.68-.92.865-1.491.183-.571.085-.935a1.1 1.1 0 0 0-.411-.595m.126-.246q1.028.698 1.14 1.845.115 1.15-.649 2.182-.653.88-1.614 1.208-1.274.433-2.397-.398-1.126-.835-1.113-2.138.007-1.03.689-1.95.766-1.033 1.908-1.254t2.036.505M162.829 139.257l-1.593 1.267-3.2-3.316.112-.11.12.123q.156.164.317.2a.4.4 0 0 0 .252-.031c.07-.03.206-.141.415-.343l2.729-2.636q.32-.306.37-.415a.4.4 0 0 0 .024-.256.6.6 0 0 0-.182-.307l-.12-.123.114-.111 1.923 1.992-.113.109-.156-.163a.66.66 0 0 0-.318-.198c-.074-.025-.159-.012-.256.03-.067.025-.206.142-.415.342l-2.642 2.553q-.32.31-.374.426a.33.33 0 0 0-.006.254q.037.094.295.361l.3.31q.287.298.596.383.307.091.698-.012.39-.098 1.006-.441zM168.257 141.018l-3.844 2.34q-.307.187-.359.255a.2.2 0 0 0-.05.152q-.001.12.1.289.334.544.924.58c.53.037 1.191-.187 1.975-.663q.949-.58 1.352-1.19.314-.484.272-.916c-.025-.202-.144-.484-.367-.847m-5.679 1.139.135-.083.09.148q.12.192.247.254.131.064.276.044.095-.02.476-.25l3.242-1.974q.379-.228.45-.324a.4.4 0 0 0 .078-.245.65.65 0 0 0-.11-.34l-.09-.147.135-.083 1.208 1.987q.485.794.54 1.425.065.77-.344 1.439a3.4 3.4 0 0 1-1.162 1.127q-.519.316-1.05.433a2.6 2.6 0 0 1-.96.05 2.3 2.3 0 0 1-.794-.272 3.3 3.3 0 0 1-.732-.602 4 4 0 0 1-.426-.602zM171.108 146.469l-2.176.884.037.095q.185.459.59.535.402.077 1.049-.122l.055.135-2.799 1.139-.055-.135q.44-.227.676-.485.236-.254.263-.476t-.113-.565l-1.506.61q-.44.18-.526.255a.35.35 0 0 0-.11.19q-.03.12.061.325l.118.287q.272.675.786.939.512.266 1.293.154l.05.132-1.787.474-1.69-4.157.145-.062.065.158q.085.21.22.305a.4.4 0 0 0 .247.065q.11 0 .513-.163l3.514-1.43q.363-.149.439-.2a.4.4 0 0 0 .159-.217.63.63 0 0 0-.037-.415l-.066-.16.146-.06 1.638 4.024-1.58.643-.055-.135q.539-.339.715-.628.176-.287.157-.676-.01-.227-.233-.776zM170.209 156.217l3.961.876.29 2.095-.157.025-.025-.168a.7.7 0 0 0-.139-.352.38.38 0 0 0-.22-.124q-.104-.026-.531.031l-3.768.52c-.292.037-.472.08-.541.117a.4.4 0 0 0-.168.198.65.65 0 0 0-.037.357l.025.167-.155.019-.371-2.684.156-.025.025.168c.024.15.067.267.139.352a.42.42 0 0 0 .224.122q.108.026.536-.031l4.235-.585-5.484-1.254-.013-.089 4.9-2.718-4.026.556c-.28.037-.452.07-.515.09a.6.6 0 0 0-.313.262q-.11.182-.063.537l-.154.024-.243-1.76.156-.024.006.049q.02.172.107.31a.5.5 0 0 0 .204.2.9.9 0 0 0 .324.074q.048.005.431-.049l3.618-.5c.289-.036.467-.078.535-.117a.4.4 0 0 0 .165-.195.65.65 0 0 0 .037-.356l-.025-.164.157-.024.289 2.101zM170.418 163.289l2.034-.641-1.932-.926zm-.322.108.12-1.83-.548-.254a1.3 1.3 0 0 0-.454-.137q-.241-.02-.37.153-.073.097-.134.502l-.157-.013.113-1.723.156.012a.76.76 0 0 0 .226.477q.2.192.841.5l4.472 2.153-.006.071-4.841 1.56q-.69.222-.874.383a.57.57 0 0 0-.178.358l-.156-.012.165-2.508.156.013-.006.104c-.012.2.006.343.066.43q.063.092.189.096.076.006.158-.012c.025-.002.135-.037.326-.094zM172.904 171.712l-1.947-.458.037-.145q.802.017 1.312-.337.513-.352.646-.917a1.43 1.43 0 0 0-.098-.939 1.77 1.77 0 0 0-.654-.765 4 4 0 0 0-1.337-.563 5.2 5.2 0 0 0-1.412-.154q-.659.026-1.063.317-.4.289-.541.871a1.8 1.8 0 0 0 .025.928q.14.45.601 1.026l-.484-.115q-.393-.542-.505-1.054-.113-.512.03-1.128.19-.81.698-1.35.51-.543 1.265-.725a3.2 3.2 0 0 1 1.517-.002 3.33 3.33 0 0 1 1.434.738q.632.548.878 1.287.246.734.074 1.458-.126.534-.522 1.065-.23.307-.252.402a.28.28 0 0 0 .05.229q.075.11.282.186zM167.727 174.135l2.132.07-1.515-1.513zm-.341-.004.721-1.686-.432-.422a1.4 1.4 0 0 0-.383-.28q-.225-.095-.4.025c-.067.043-.165.189-.293.428l-.143-.062.678-1.588.143.061a.77.77 0 0 0 .056.524q.123.247.625.75l3.506 3.515-.031.067-5.085-.136q-.724-.02-.952.074a.55.55 0 0 0-.285.278l-.145-.063.987-2.31.145.063-.043.094q-.119.279-.08.428.026.106.147.154a.6.6 0 0 0 .152.043q.039.007.339.018zM169.895 178.575l-1.447 2.255-.133-.085.074-.112q.164-.254.164-.387a.38.38 0 0 0-.076-.24c-.05-.07-.215-.197-.494-.373l-2.377-1.526q-.651-.415-.92-.465a.97.97 0 0 0-.538.067q-.27.114-.47.424-.225.354-.208.717.016.365.25.687.231.325 1.004.821l1.981 1.27q.326.208.505.237.18.026.293-.031.174-.092.343-.357l.133.085-.97 1.513-.132-.085.062-.092a.65.65 0 0 0 .115-.358.57.57 0 0 0-.135-.337c-.062-.076-.187-.178-.384-.304l-1.845-1.185q-.856-.547-1.172-.893-.314-.344-.38-.943-.065-.596.37-1.278.364-.567.73-.769.5-.274.97-.22.468.056 1.075.446l2.377 1.523q.42.268.55.294c.085.012.17.002.254-.043q.129-.065.302-.344zM114.845 186.823l-.182-.061.245.222.433-.477-.348-.278c-.024.21-.086.448-.147.591m1.69.956-.576.157.316.287-.385.424-.767-.693c.12.32.317.919.37 1.108l-.644.18c-.024-.209-.1-.617-.171-.965l-.444.491-.515-.467.478-.528c-.391.067-.802.082-1.152.002.031-.187.031-.5.006-.695.383.145.852.184 1.25.134l-.587-.532.384-.424.272.244c.055-.15.1-.343.121-.498l.396.145-.263-.226c.074-.12.163-.321.204-.47.641.52 1.458 1.12 1.982 1.394l-.03.63a12 12 0 0 1-.885-.554l-.478.53.284.257-.089-.187c.194-.071.482-.195.637-.291zm1.054-2.281q-.359.164-.691.3l1.732 1.569-2.845 3.144-.708-.641 2.29-2.534-2.499-2.262-2.32 2.566-.676-.612 2.873-3.177 1.347 1.219c.256-.144.526-.31.721-.461zm-3.34 3.46-.341.3 1.836 1.662-.582.643-1.59-1.439c-.038.728.3 1.48 1.036 2.31-.293.002-.756.124-1.026.255-.756-.965-1.019-1.813-.893-2.719-.752.224-1.621.056-2.884-.687a3 3 0 0 0 .191-.973c1.102.713 1.793.893 2.376.73l-1.522-1.375.582-.646 1.741 1.573.341-.3zm-.198-6.776c.222.493.465 1.169.5 1.599l-1.024.198c-.012-.411-.21-1.115-.415-1.628zm-2.796 3.726.234.985c-.875.474-1.853.947-2.727 1.317l-.31-1.054a27 27 0 0 0 2.803-1.248m.915-2.266c.239.474.486 1.145.539 1.567l-1.024.21c-.024-.4-.239-1.095-.46-1.588zM123.84 191.946l-.213.44 1.143.553.213-.441zm1.634-.46-1.143-.555-.189.39 1.143.553zm1.222-.29-2.68 5.541c-.246.507-.478.713-.854.702-.389-.006-.878-.223-1.575-.56.087-.267.145-.756.128-1.054.448.252.982.502 1.14.578.144.07.22.043.288-.098l1.286-2.66-1.962-.95 1.388-2.872 2.43 1.175zm-6.07-.804-.202.42 1.093.528.202-.42zm1.584-.486-1.093-.528-.189.388 1.093.53zm1.15-.324-1.382 2.86-1.9-.918-1.814 3.755-.856-.415 3.199-6.612zM130.33 194.125l3.678.623.187-1.108-3.68-.624zm.132 1.586a9 9 0 0 1-.366.943c.157.676.487 1.147.94 1.489l.486-2.869-2.308-.391.502-2.957 5.65.958-.502 2.957-2.353-.4-.17.996 2.61.44-.152.898-2.61-.44-.22 1.299c.38.13.792.226 1.23.3.342.067 1.533.26 1.98.328-.171.195-.402.622-.493.88l-1.7-.287c-1.612-.273-2.807-.776-3.426-2.162-.372.587-.817 1.084-1.37 1.397a5.5 5.5 0 0 0-.568-.77c.98-.54 1.555-1.805 1.864-2.9zM141.401 194.813c.378.394.809.94 1 1.326l-.765.484c-.174-.38-.582-.954-.956-1.373zm2.569-3.01c.41.19.94.49 1.214.72l-.436.56.647-.085.118.895-2.097.275.03.245c.16.515.335.97.537 1.37.255-.426.528-1.03.678-1.485l.922.333c-.296.556-.635 1.169-.917 1.564l-.583-.226c.48.865 1.122 1.478 2.095 1.97-.2.201-.43.55-.51.836-.804-.465-1.398-.982-1.867-1.632l.176 1.35c.063.484-.002.76-.269.953-.265.202-.672.298-1.289.378-.075-.258-.295-.665-.46-.91.404-.037.79-.087.914-.102.131-.025.174-.074.16-.198l-.564-4.324-1.949.254-.095-.75-.807.104.181 1.391.797-.104.117.904-.797.104.182 1.406.854-.37.178.596 1.26-.99.41.764a37 37 0 0 1-1.735 1.53l-.565-.745c-.708.343-1.408.667-1.993.936l-.375-.897 1.047-.428-.217-1.678-.863.113-.12-.904.865-.113-.18-1.39-.921.12-.12-.912 2.773-.361.098.765 1.858-.242-.18-1.39.947-.122.18 1.388 1.306-.17c-.263-.231-.728-.523-1.112-.716zM154.796 193.208c.592.346 1.208.88 1.534 1.304l-.558.645c-.307-.421-.93-.99-1.502-1.354zm-2.766-2.045.44.056c.026-.137.05-.274.05-.413l-.475.204zm.05-.971.005.287.498-.213.09-.066.43-.012a3.1 3.1 0 0 1-.043 1.132c.223.037.42.094.584.14l-.217.6a9 9 0 0 0-.544-.148 3.1 3.1 0 0 1-.43.754l1.51-.644-.967-2.27-1.21.517zm-.992.902.357.012c.05-.248.065-.49.05-.71l-1.005.427.967 2.27.622-.264a1.5 1.5 0 0 0-.378-.185c.234-.234.434-.53.577-.854l-.4-.065c-.067.202-.15.391-.254.591a1.4 1.4 0 0 0-.569-.184c.09-.157.165-.316.226-.467l-.426-.025zm1.912 2.935a6 6 0 0 0-.812-.143l.2-.402-1.365.582-1.536-3.603 1.45-.617a6 6 0 0 0-.122-.82l1.078-.295-.037.721 1.619-.689 1.534 3.603-2.054.876c.435.062.894.16 1.178.296l-.363.743c-.173-.09-.435-.17-.717-.24l.507 1.19c.078.184.11.197.271.128l.437-.187c.14-.062.14-.14-.043-.641.193.055.578.043.823.002.252.826.124 1.117-.375 1.328-.137.061-.522.223-.659.282-.69.294-.934.127-1.234-.58l-.52-1.217zm-.73.6c.191.707.329 1.428.094 2.008l-.813-.078c.2-.51.124-1.158-.061-1.797zm-1.68-.197c.374.365.77.867.987 1.227l-.556.483c-.202-.367-.596-.89-.954-1.26zm-2.411-.322.12-.586c-.36-.255-.907-.537-1.37-.728l.19-.79.26.099c.03-.52.03-1.126-.02-1.576l.9-.061c-.049.654-.104 1.395-.189 1.938.137.067.268.14.376.202.07-.536.113-1.071.13-1.523l.86.012a32 32 0 0 1-.486 2.625l.62-.31a5 5 0 0 0-.459-.437l.494-.502c.513.417 1.067.995 1.338 1.421l-.532.554a3 3 0 0 0-.278-.397l-.379.197 1.356 3.182-.773.33-1.33-3.12-.987.512-.432-.759zm.982 1.113c.237.769.398 1.588.385 2.173-.187-.031-.574-.043-.776-.031.03-.546-.15-1.284-.365-1.962zM160.99 186.129c.08.358.17.702.218.96l.528-.45-.665-.782-.672.57zm-.514 1.582.582-.496-.463.211a7 7 0 0 0-.333-.882l-.452.384zm-2.619-1.133 1.347-1.145c-.408.062-.8.08-1.132.066-.03.325-.108.688-.215 1.08m.88 1.262c.279.115.615.298.8.452l-.31.478.647-.55-.665-.782zm2.2 3.155 2.17-1.847-.221-.258-2.171 1.844zm1.538-2.592-.21-.248-2.174 1.847.21.248zm-3.77-.537-.702.596.665.782.428-.362c-.19-.161-.491-.353-.765-.474zm3.918-.85 1.788 2.106-.771.655-.12-.144-2.173 1.845.141.167-.732.624-1.808-2.13zm-2.745-1.696.185.217-2.2 1.867-.2-.235c-.136.404-.312.813-.508 1.213l3.98-3.38a13 13 0 0 1-1.257.318m-3.112 3.787c-.223-.089-.623-.219-.886-.252.767-1.173 1.278-2.622 1.323-3.613l.702-.596c1.278.062 2.688-.307 3.857-.882-.012.3.043.69.094.978l-.454.171 1.375 1.622-4.343 3.69-1.389-1.633z" style="fill:#3fa535;fill-opacity:1;fill-rule:nonzero;stroke:none;stroke-width:2.17304" transform="translate(-95.433 -119.775)" data-source="https://football-logos.cc"></path><!-- source: https://football-logos.cc --></svg>