<svg xmlns="http://www.w3.org/2000/svg" viewBox="0 0 485.32 576.23"><!-- Source: https://football-logos.cc --><path d="M242.656 0h242.66v439.902s-1.82 119.059-135.421 136.328H135.422C1.82 558.96 0 439.902 0 439.902V0" style="stroke:none;fill-rule:nonzero;fill:#c6181b;fill-opacity:1" data-source="https://football-logos.cc"></path><path d="M457.414 21.54v429.269c0 1.816-.437 44.847-38.437 74.402-35.356 27.496-73.407 33.601-75.008 33.851l-1.121.172h-200.38l-1.12-.172c-1.602-.25-39.657-6.355-75.004-33.851-38.004-29.555-38.438-72.586-38.438-74.402V21.539" style="stroke:none;fill-rule:nonzero;fill:#2c3d6f;fill-opacity:1"></path><path d="M467.559 289.945c0-37.16-9.024-72.21-24.98-103.093V36.355H42.698v150.532C26.75 217.762 17.74 252.8 17.74 289.945c0 37.149 9.011 72.188 24.96 103.063v57.8s-.004 37.262 32.715 62.712c32.723 25.445 68.168 30.902 68.168 30.902h198.113s35.446-5.457 68.164-30.902c32.72-25.45 32.72-62.711 32.72-62.711v-57.762c15.956-30.887 24.98-65.942 24.98-103.102" style="stroke:none;fill-rule:nonzero;fill:#fff;fill-opacity:1"></path><path d="M173.133 460.027a9.51 9.51 0 1 1-19.02 0 9.51 9.51 0 1 1 19.02 0M252.18 460.027a9.51 9.51 0 0 1-9.512 9.512c-5.25 0-9.512-4.258-9.512-9.512s4.262-9.511 9.512-9.511a9.51 9.51 0 0 1 9.512 9.511M331.227 460.027c0 5.254-4.262 9.512-9.512 9.512a9.51 9.51 0 0 1-9.512-9.512 9.51 9.51 0 0 1 9.512-9.511c5.25 0 9.512 4.257 9.512 9.511M206.309 391.82h32.359v-13.91h-32.36ZM246.672 391.82h32.36v-13.91h-32.36ZM197.957 410.383h40.711v-13.914h-40.711ZM246.672 410.383h40.71v-13.914h-40.71ZM184.04 428.941h54.628v-13.914h-54.629ZM246.672 428.941H301.3v-13.914h-54.63ZM170.234 447.504h68.434v-13.918h-68.434ZM246.672 447.504h68.433v-13.918h-68.433ZM220.805 373.734h43.726v-8.343h-43.726ZM226.465 359.574h32.406V153.945h-32.406ZM220.242 148.418h44.852v-9.008h-44.852ZM234.68 106.84c-2.828 1.844-3.075 5.32.218 6.926-2.8 1.257-4.257 3.687-2.636 6.578.965 1.73 3.023 1.976 2.851 3.898-.078.895-1.672 2.035-2.078 2.813-3.62 6.933 3.875 9.218 9.582 9.261 5.707-.043 13.203-2.328 9.582-9.261-.406-.778-2-1.918-2.082-2.813-.172-1.922 1.89-2.168 2.856-3.898 1.617-2.89.164-5.32-2.641-6.578 3.297-1.606 3.055-5.082.223-6.926-2.008-1.313-13.868-1.313-15.875 0M242.629 77.887c-4.941-.117-8.957 8.023-9.332 11.773-.606 6.012 2.125 13.055 9.332 12.809 7.203.246 9.934-6.797 9.332-12.809-.379-3.75-4.395-11.89-9.332-11.773M218.16 511.395q2.12-2.145 5.406-2.145 3.36 0 5.559 2.172 2.202 2.168 2.2 5.484 0 3.266-2.134 5.383c-1.425 1.414-3.246 2.117-5.472 2.117a8.2 8.2 0 0 1-3.985-1.008c-1.242-.671-2.164-1.617-2.777-2.843a8.4 8.4 0 0 1-.918-3.805q0-3.21 2.121-5.355m-4.972-.766q-1.852 2.462-1.852 6.113c0 3.266 1.133 5.988 3.398 8.176q3.4 3.276 8.946 3.277 5.55-.001 8.949-3.265t3.398-8.063q0-3.467-1.789-5.969-1.787-2.501-5.215-3.625 2.777-1.05 4.137-2.984 1.364-1.939 1.363-4.55.001-4.108-2.992-6.966-2.999-2.859-7.914-2.859-4.887.001-7.836 2.797-2.94 2.794-2.941 6.894c0 1.817.457 3.372 1.379 4.672q1.381 1.947 4.25 2.996-3.429.896-5.281 3.356m6.082-15.23q1.733-1.693 4.41-1.692 2.654 0 4.398 1.734 1.741 1.735 1.742 4.278.001 2.444-1.691 4.125c-1.125 1.12-2.594 1.683-4.395 1.683-1.855 0-3.351-.562-4.488-1.695q-1.706-1.694-1.707-4.371.001-2.362 1.73-4.063M245.906 526c1.86 1.621 4.254 2.434 7.192 2.434q4.137 0 7.226-2.227c2.055-1.48 3.602-3.644 4.64-6.48q1.566-4.255 1.567-11.446 0-6.902-1.57-10.547c-1.043-2.425-2.574-4.3-4.586-5.613q-3.023-1.969-6.66-1.969c-3.367 0-6.164 1.16-8.399 3.48s-3.347 5.384-3.347 9.188c0 3.684 1.066 6.657 3.21 8.91q3.211 3.375 7.852 3.375 2.78.001 5.16-1.363 2.391-1.365 3.762-3.562.028.613.027.922 0 2.854-.69 5.609-.692 2.756-1.7 4.375a7.85 7.85 0 0 1-2.625 2.59q-1.618.968-3.746.969c-1.656 0-3.016-.461-4.07-1.38q-1.59-1.377-2.153-4.437l-4.441.328c.375 2.942 1.492 5.219 3.351 6.844m13.473-17.187q-2.05 2.245-5.238 2.246c-2.13 0-3.91-.75-5.332-2.247q-2.138-2.246-2.137-5.84 0-4.001 2.25-6.515c1.504-1.68 3.281-2.516 5.344-2.516q2.993 0 5.078 2.332 2.09 2.339 2.09 6.313c0 2.652-.688 4.73-2.055 6.226M293.527 523.102v4.441H271.23a8.2 8.2 0 0 1 .54-3.203c.632-1.692 1.652-3.352 3.046-4.988 1.399-1.633 10.696-11.68 12.145-13.63q2.175-2.918 2.176-5.538c0-1.817-.66-3.356-1.973-4.606q-1.97-1.875-5.137-1.875c-1.117 0-1.87.664-3.21 1.996q-2.011 1.992-2.036 5.52l-4.703-.461q.484-5.296 3.664-8.067c2.121-1.851 2.813-2.777 6.387-2.777 3.601 0 6.457 1 8.558 2.988 2.102 1.993 3.153 4.465 3.153 7.407 0 1.5-.309 2.968-.922 4.418q-.92 2.173-3.055 4.57c-1.422 1.601-9.492 10.484-10.285 11.312q-1.199 1.238-1.984 2.493M194.824 491.121v3.785h6.778v32.32h4.097v-36.105" style="stroke:none;fill-rule:nonzero;fill:#b6a258;fill-opacity:1"></path><path d="M285.55 298.254c-9.003 0-18.566-7.875-18.566-18.379 0-10.5 7.692-21.008 17.82-21.008 10.126 0 16.95 6.688 16.95 6.688l27.89-28.793S313.946 218.773 278.446 219l-60.289-.191c0-13.496 11.7-12.485 11.7-12.485h19.796v-34.062c-72.105-9.926-75.242 47.035-75.242 47.035s-7.344.832-12.226 2.375c-4.887 1.547-10.61 5.351-10.61 5.351v-7.199h-36.89v114.848l37.43-.266v-52.77c0-18.105 24.32-19.14 24.32-19.14v71.395h37.246v-73.465h15.523c-9.312 36.73 13.25 57.945 13.25 57.945 45.215 43.461 85.113 3.52 85.113 3.52l-27.199-28.887s-5.812 5.25-14.816 5.25" style="stroke:none;fill-rule:nonzero;fill:#2c3d6f;fill-opacity:1"></path><path d="M158.262 231.793c-7.668 4.203-12.602 9.453-12.602 9.453l-.012-15.496H120.61v102.957c6.856-.05 18.801-.137 25.582-.18v-46.89c0-18.086 12.543-32.028 28.743-32.028v-21.27s-9.07-.718-16.672 3.454M234.066 276.953c0 31.567 25.344 54.61 47.926 54.61 24.422 0 36.973-10.165 36.973-10.165-5.184-5.5-15.246-16.187-19.512-20.722-3.265 1.738-7.988 3.504-13.902 3.504-11.582 0-24.492-9.98-24.492-24.305 0-13.008 9.539-26.93 23.746-26.93 6.953 0 12.558 2.516 16.265 4.797l20.004-20.652c-6.277-4.7-15.402-11.98-39.082-11.98-23.676 0-47.926 27.878-47.926 51.843" style="stroke:none;fill-rule:nonzero;fill:#c6181b;fill-opacity:1"></path><path d="M330.207 336.883h32.04V174.875h-32.04Zm0 0" style="stroke:none;fill-rule:nonzero;fill:#2c3d6f;fill-opacity:1" data-source="https://football-logos.cc"></path><path d="M446.102 246.016c-3.164 3.66-6.243 7.691-8.317 12.015-2.293 4.793-3.195 10.098-3.746 15.336-.684 6.563.356 13.047-.008 19.57 4.832-4.82 8.5-10.402 12-16.25 1.707-2.855 3.465-5.69 4.375-8.933 1.012-3.606 1.192-6.906 1-10.621-.082-1.563-.34-3.403-.136-4.965.261-2.027 1.69-3.832 2.007-5.969.344-2.344.098-4.828 1.102-7.039-2.899.918-5.121 3.285-7.094 5.504q-.591.667-1.183 1.352M453.02 307.98c-.618 3.997-2.141 7.875-4.461 11.204-1.32 1.89-2.625 3.738-4.133 5.464-1.715 1.965-4.086 3.297-6.172 4.805-1.547 1.117-3.125 1.758-4.871 2.426-1.32.508-2.57 1.574-3.88 1.902.45-1.402.384-2.816.536-4.258.207-1.957.832-3.77 1.102-5.691.488-3.465 1.312-6.586 2.703-9.789 1.367-3.156 2.586-6.285 4.445-9.148 1.875-2.887 4.23-5.344 6.57-7.813 1.762-1.86 3.805-3.59 6.012-4.898 2.016-1.196 3.438-2.184 4.867-4.106-1.761 2.371-1.308 7.145-1.457 9.914-.176 3.258-.761 6.727-1.261 9.988M372.922 428.441c.926-6.527 3.566-12.832 3.004-19.617-.617-7.512-5.524-13.898-6.703-21.203-.328-2.031-.438-4.324.359-6.254-1.078.543-2.723 2.367-3.508 3.38-1.086 1.39-1.988 3.003-2.738 4.628-1.281 2.777-1.824 6.125-2.328 9.172-1.047 6.351-1.012 14.242 1.219 20.305 1.601 4.351 5.507 10.039 10.773 9.843.012-1.343.516-2.593.605-3.949M340.188 448.004c1.273 3.445 3.14 6.414 5.617 9.14.617.68 1.234 1.348 1.5 2.208.351-.829.222-1.895.578-2.825.656-1.71 2.195-3.464 3.289-4.925 2.121-2.817 3.18-6.45 3.535-9.872.406-3.976.207-7.816-.59-11.75-.765-3.765-2.394-6.933-3.969-10.425-1.207-2.684-1.82-5.61-2.593-8.328-.864 2.742-2.61 5.234-3.84 7.902-1.375 2.98-2.371 5.992-3.352 9.078-2.058 6.484-2.574 13.324-.175 19.797" style="stroke:none;fill-rule:nonzero;fill:#b6a258;fill-opacity:1"></path><path d="M420.742 315.387c0-14.672-.89-28.528-2.433-41.543-4.957 2.414-12.493-.211-16.075-3.739-2.632-2.585-4.03-5.972-5.113-9.488-.992-3.238-1.734-6.562-2.387-9.851-.46-2.336-2.14-6.715-.832-8.961 1.778 1.343 3.297 3.105 5.024 4.582 2.285 1.949 4.605 3.77 6.84 5.75 2.214 1.965 4.554 3.699 6.652 5.797 1.184 1.183 2.906 2.414 4.23 3.777a328 328 0 0 0-4.808-24.715 13 13 0 0 1-1.496-.164c-7.828-1.457-14.778-6.773-19.574-12.883-2.48-3.152-4.97-6.676-6.387-10.414-.574-1.52-1-3.187-1.461-4.789-.352-1.238-1.3-3.48-1.11-4.648 2.317.988 4.739 2.652 7.004 3.898 3.313 1.824 6.645 3.633 9.688 5.848 2.32 1.687 4.473 3.238 6.605 5.172.528.476 1.536 1.152 2.508 1.879-13.137-45.215-32.445-73.977-40.012-84.098-.363-.102-5.433-4.348-6.199-4.922-3.43-2.59-7.5-4.195-11.36-6.234-3.038-1.602-5.831-3.121-8.222-5.653-2.183-2.312-3.746-5.078-5.746-7.504-3.996-4.843-6.43-10.398-8.617-16.148 3.91 2.777 8.41 5.047 12.96 6.941 4.259 1.77 8.583 3.399 12.49 5.746 3.866 2.329 7.073 5.075 10.151 8.368 2.465 2.636 4.31 5.66 5.61 9.03.598 1.556 2.18 5.571 2.371 6.079 8.21 11.285 56.059 81.355 56.059 181.066 0 31.348-7.899 59.473-19.68 84.008 3.637-4.355 9.574-6.98 14.808-8.61 2.88-.894 5.754-1.405 8.63-2.187 3.109-.851 6.25-1.8 9.425-2.425-1.316.257-2.473 1.914-3.215 2.867-1.343 1.73-2.742 3.406-4.03 5.176-3.743 5.144-6.032 11.195-10.267 16.03-2.414 2.755-5.699 5.141-9.136 6.571-2.403 1-6.535 1.645-8.938.41-2.965-1.523-3.11-4.824-2.203-8.191-5.316 9.828-11.21 19.023-17.402 27.555 2.46-1.403 5.332-2.282 8.105-2.793 4.68-.868 9.45-.942 14.188-1.243 4.61-.293 9.066-1.296 13.629-1.968-3.97 3.402-7.688 7.757-11.114 11.71-2.164 2.493-4.996 4.235-7.664 6.18-2.617 1.91-5.578 3.555-8.652 4.563-3.184 1.039-8.258 2.027-11.348.34-2.675-1.465-3.988-5.141-3.566-8.02.02-.133.055-.262.082-.394-34.332 43.62-74.352 67.648-74.352 67.648V495.34s116.34-71.797 116.34-179.953" style="stroke:none;fill-rule:nonzero;fill:#b6a258;fill-opacity:1"></path><path d="M394.559 165.438c-1.797.64-2.36-4.211-2.899-5.18-1.523-2.735-4.031-4.766-5.55-7.403-2.762-4.78-4.97-11.27-5.52-16.816-.29-2.89-.57-5.723-.41-8.55.148-2.606-.262-6.325 2.058-8.15 1.934-1.515 3.43 2.981 4.106 4.485 1.215 2.707 2.234 5.614 3.8 8.223 1.61 2.683 3.532 5.031 4.872 7.902a42.5 42.5 0 0 1 3.097 9.488c.614 3.055.739 5.997-.093 9.04-.461 1.671-1.528 6.273-3.461 6.96M343.934 138.3c2.32-.21 6.16 1.4 8.468 2.13 4.051 1.289 7.942 2.507 11.754 4.351 3.192 1.551 6.156 3.578 8.563 6.2 2.144 2.335 4.965 6.03 5.797 9.117-2.29.527-4.649-.102-6.934-.094-2.488.004-4.867-.613-7.187-1.555-3.125-1.273-5.73-3.582-8.184-5.87-4.617-4.298-8.543-9.317-12.277-14.278M382.777 177.098c6.2 4.222 10.348 10.187 12.97 17.101-2.087 1.024-4.31 1.7-6.669 1.668-6.8-.086-12.433-5.012-16.262-10.137-2.218-2.968-3.71-6.398-5.336-9.695-1.355-2.754-2.808-5.879-3.718-8.738 3.078 1.242 5.98 2.918 9.015 4.289 3.371 1.527 6.942 3.43 10 5.512M420.824 200.078c-1.12 1.824-2.37 4.57-4.445 5.54-2.996 1.402-5.348-3.067-6.375-5.227-1.707-3.586-2.332-7.282-2.844-11.133-.418-3.137-.129-6.778.168-9.922.348-3.617.512-7.176 1.356-10.703.84-3.547 2.02-7.082 3.168-10.54.484-1.445.996-2.855 1.449-4.312.367-1.176.258-2.437 1.015-3.472 1.614 2.453 2.395 5.851 3.696 8.586 1.465 3.082 3.12 6.101 4.05 9.335 2.067 7.18 3.372 14.31 1.946 21.747-.695 3.617-1.207 6.898-3.184 10.101M439.184 225.473c-1.227 5.23-3.22 9.746-5.649 14.523-1.633 3.219-4.379 5.707-6.488 8.566.035-2.3-1.457-5.113-1.906-7.433-.282-1.441-.48-2.86-.551-4.309a170 170 0 0 1-.215-5.715c-.117-6.257.324-12.265 2.688-18.425 1.32-3.434 3.136-6.426 4.93-9.614 1.054-1.875 1.976-3.804 3.25-5.558.542-.75 2.89-3.863 3.741-4.008 1.094-.176 1.27 3.32 1.403 4.273.52 3.883.48 7.817.476 11.727-.008 5.363-.457 10.742-1.68 15.973M399.633 299.422c-.688-3.219-.656-6.711-.688-9.992-.027-2.758-.265-6.364.856-8.871.472 1.015.601 2.027 1.191 2.996 2.028 3.336 5.36 6.144 8.203 8.78 2.64 2.446 4.696 5.423 6.164 8.731 1.418 3.188 2.079 6.54 2.63 9.957.53 3.297.902 6.442.538 9.747-2.953.097-6.164-3.606-8.418-5.18-5.457-3.817-9.093-9.723-10.476-16.168M408.64 358.848c-2.69-1.727-5.788-3.188-7.988-5.606-5.062-5.55-6.93-11.832-7.867-19.133-.441-3.457.215-6.984.54-10.414.269-2.824-.184-6.441.546-9.172 1.813 2.942 4.004 5.551 6.574 7.903 3.11 2.851 6.164 5.77 8.196 9.566 1.535 2.871 2.746 5.98 3.183 9.2.434 3.175.645 6.492-.039 9.667-.613 2.86-1.37 5.602-3.144 7.989M430.293 371.02c-3.16 2.113-6.852 3.085-10.031 5.054.37-4.863 1.957-9.25 4.078-13.414 1.64-3.226 3.61-6.324 5.59-9.41 2.113-3.293 4.554-6.648 7.5-9.277 2.785-2.489 5.734-4.414 8.601-6.59 1.961-1.485 4.45-2.813 6.727-3.703-.442 1.894-1.653 3.93-2.18 5.875-.574 2.117-1.488 4.242-2.355 6.289-2.657 6.27-4.61 12.46-9.282 17.613-2.578 2.84-5.453 5.434-8.648 7.563M395.012 390.773c-1.102 3.641-3.48 3.153-6.203 1.2-2.266-1.63-3.317-3.422-3.872-6.133-.582-2.848-.66-5.578-.785-8.516-.136-3.195-.39-6.656-.105-9.832.289-3.219.723-6.488.898-9.695.157-2.832-.265-6.445.578-9.156.493 1.511 1.735 2.84 2.707 4.097 1.567 2.024 2.66 4.235 3.93 6.465 3.38 5.926 5.281 11.82 5.281 18.692 0 3.152-.144 6.171-1.058 9.222-.39 1.285-.988 2.39-1.371 3.656M373.41 468.281c8.594-.441 17.149.172 25.656-.86-1.718 1.114-2.48 3.235-4.238 4.317-2.082 1.285-4.015 2.91-6.121 4.235-3.805 2.386-7.656 4.75-11.918 6.199-3.644 1.238-7.738 1.715-11.535 1.765-3.024.043-7.473-1.18-9.324-3.789-1.414-1.988-.996-4.503.37-6.375 3.708-5.074 11.364-5.195 17.11-5.492M39.195 246.016c3.164 3.66 6.243 7.691 8.313 12.015 2.297 4.793 3.203 10.098 3.75 15.336.683 6.563-.356 13.047.008 19.57-4.832-4.82-8.5-10.402-11.996-16.25-1.711-2.855-3.473-5.69-4.383-8.933-1.008-3.606-1.188-6.906-.996-10.621.082-1.563.34-3.403.136-4.965-.261-2.027-1.691-3.832-2.004-5.969-.347-2.344-.101-4.828-1.109-7.039 2.898.918 5.125 3.285 7.098 5.504q.591.667 1.183 1.352M32.277 307.98c.614 3.997 2.141 7.875 4.461 11.204 1.317 1.89 2.625 3.738 4.13 5.464 1.718 1.965 4.085 3.297 6.175 4.805 1.547 1.117 3.125 1.758 4.871 2.426 1.32.508 2.57 1.574 3.879 1.902-.453-1.402-.383-2.816-.535-4.258-.207-1.957-.832-3.77-1.102-5.691-.488-3.465-1.316-6.586-2.703-9.789-1.367-3.156-2.586-6.285-4.45-9.148-1.874-2.887-4.226-5.344-6.57-7.813-1.761-1.86-3.8-3.59-6.011-4.898-2.012-1.196-3.434-2.184-4.86-4.106 1.758 2.371 1.301 7.145 1.454 9.914.175 3.258.761 6.727 1.261 9.988M112.375 428.441c-.93-6.527-3.57-12.832-3.008-19.617.621-7.512 5.528-13.898 6.707-21.203.328-2.031.434-4.324-.363-6.254 1.082.543 2.727 2.367 3.512 3.38 1.086 1.39 1.988 3.003 2.738 4.628 1.281 2.777 1.824 6.125 2.328 9.172 1.047 6.351 1.012 14.242-1.219 20.305-1.601 4.351-5.507 10.039-10.773 9.843-.016-1.343-.516-2.593-.61-3.949M145.11 448.004c-1.274 3.445-3.141 6.414-5.618 9.14-.617.68-1.234 1.348-1.5 2.208-.355-.829-.222-1.895-.578-2.825-.656-1.71-2.195-3.464-3.289-4.925-2.121-2.817-3.18-6.45-3.531-9.872-.414-3.976-.215-7.816.586-11.75.765-3.765 2.394-6.933 3.965-10.425 1.21-2.684 1.82-5.61 2.601-8.328.863 2.742 2.61 5.234 3.836 7.902 1.371 2.98 2.371 5.992 3.352 9.078 2.058 6.484 2.574 13.324.175 19.797" style="stroke:none;fill-rule:nonzero;fill:#b6a258;fill-opacity:1"></path><path d="M64.555 315.387c0-14.672.89-28.528 2.43-41.543 4.96 2.414 12.492-.211 16.078-3.739 2.632-2.585 4.035-5.972 5.113-9.488.988-3.238 1.734-6.562 2.383-9.851.464-2.336 2.14-6.715.836-8.961-1.778 1.343-3.297 3.105-5.024 4.582-2.285 1.949-4.605 3.77-6.84 5.75-2.215 1.965-4.554 3.699-6.652 5.797-1.184 1.183-2.91 2.414-4.23 3.777a330 330 0 0 1 4.804-24.715c.59-.027 1.168-.105 1.496-.164 7.828-1.457 14.781-6.773 19.578-12.883 2.477-3.152 4.965-6.676 6.387-10.414.574-1.52 1-3.187 1.457-4.789.36-1.238 1.3-3.48 1.11-4.648-2.313.988-4.735 2.652-7.004 3.898-3.309 1.824-6.641 3.633-9.684 5.848-2.32 1.687-4.473 3.238-6.606 5.172-.527.476-1.535 1.152-2.507 1.879 13.132-45.215 32.441-73.977 40.011-84.098.36-.102 5.434-4.348 6.2-4.922 3.43-2.59 7.5-4.195 11.363-6.234 3.035-1.602 5.828-3.121 8.215-5.653 2.183-2.312 3.75-5.078 5.75-7.504 3.996-4.843 6.426-10.398 8.617-16.148-3.91 2.777-8.41 5.047-12.961 6.941-4.258 1.77-8.586 3.399-12.488 5.746-3.867 2.329-7.078 5.075-10.153 8.368-2.464 2.636-4.308 5.66-5.613 9.03-.594 1.556-2.176 5.571-2.367 6.079-8.207 11.285-56.059 81.355-56.059 181.066 0 31.348 7.899 59.473 19.68 84.008-3.64-4.355-9.578-6.98-14.809-8.61-2.882-.894-5.754-1.405-8.629-2.187-3.113-.851-6.25-1.8-9.425-2.425 1.316.257 2.468 1.914 3.21 2.867 1.348 1.73 2.743 3.406 4.036 5.176 3.742 5.144 6.031 11.195 10.265 16.03 2.41 2.755 5.7 5.141 9.137 6.571 2.403 1 6.535 1.645 8.938.41 2.96-1.523 3.105-4.824 2.203-8.191 5.316 9.828 11.21 19.023 17.402 27.555-2.46-1.403-5.336-2.282-8.105-2.793-4.68-.868-9.45-.942-14.188-1.243-4.61-.293-9.066-1.296-13.629-1.968 3.969 3.402 7.684 7.757 11.114 11.71 2.164 2.493 4.996 4.235 7.66 6.18 2.62 1.91 5.582 3.555 8.66 4.563 3.18 1.039 8.254 2.027 11.344.34 2.671-1.465 3.988-5.141 3.566-8.02-.02-.133-.055-.262-.078-.394 34.324 43.62 74.348 67.648 74.348 67.648V495.34s-116.34-71.797-116.34-179.953" style="stroke:none;fill-rule:nonzero;fill:#b6a258;fill-opacity:1"></path><path d="M90.734 165.438c1.801.64 2.364-4.211 2.903-5.18 1.523-2.735 4.031-4.766 5.55-7.403 2.762-4.78 4.97-11.27 5.52-16.816.29-2.89.57-5.723.41-8.55-.148-2.606.262-6.325-2.058-8.15-1.934-1.515-3.434 2.981-4.11 4.485-1.21 2.707-2.234 5.614-3.8 8.223-1.606 2.683-3.532 5.031-4.868 7.902a42.5 42.5 0 0 0-3.097 9.488c-.61 3.055-.739 5.997.097 9.04.457 1.671 1.52 6.273 3.453 6.96M141.363 138.3c-2.32-.21-6.164 1.4-8.468 2.13-4.051 1.289-7.946 2.507-11.754 4.351-3.196 1.551-6.16 3.578-8.567 6.2-2.14 2.335-4.965 6.03-5.793 9.117 2.29.527 4.645-.102 6.934-.094 2.488.004 4.867-.613 7.183-1.555 3.13-1.273 5.73-3.582 8.188-5.87 4.613-4.298 8.543-9.317 12.277-14.278M102.52 177.098c-6.2 4.222-10.348 10.187-12.97 17.101 2.087 1.024 4.305 1.7 6.669 1.668 6.8-.086 12.433-5.012 16.261-10.137 2.22-2.968 3.711-6.398 5.336-9.695 1.356-2.754 2.809-5.879 3.72-8.738-3.079 1.242-5.981 2.918-9.016 4.289-3.372 1.527-6.946 3.43-10 5.512M64.473 200.078c1.12 1.824 2.37 4.57 4.445 5.54 2.992 1.402 5.348-3.067 6.371-5.227 1.707-3.586 2.332-7.282 2.848-11.133.418-3.137.129-6.778-.172-9.922-.348-3.617-.508-7.176-1.352-10.703-.843-3.547-2.023-7.082-3.172-10.54-.476-1.445-.992-2.855-1.445-4.312-.367-1.176-.258-2.437-1.016-3.472-1.613 2.453-2.394 5.851-3.695 8.586-1.465 3.082-3.125 6.101-4.05 9.335-2.067 7.18-3.372 14.31-1.946 21.747.695 3.617 1.207 6.898 3.184 10.101M46.113 225.473c1.227 5.23 3.219 9.746 5.645 14.523 1.637 3.219 4.383 5.707 6.488 8.566-.031-2.3 1.461-5.113 1.91-7.433.278-1.441.48-2.86.551-4.309.098-1.933.184-3.836.215-5.715.113-6.257-.324-12.265-2.688-18.425-1.32-3.434-3.136-6.426-4.93-9.614-1.054-1.875-1.976-3.804-3.25-5.558-.542-.75-2.89-3.863-3.745-4.008-1.094-.176-1.266 3.32-1.399 4.273-.52 3.883-.484 7.817-.48 11.727.008 5.363.46 10.742 1.683 15.973M85.66 299.422c.692-3.219.66-6.711.692-9.992.023-2.758.261-6.364-.856-8.871-.473 1.015-.605 2.027-1.191 2.996-2.028 3.336-5.36 6.144-8.203 8.78-2.641 2.446-4.696 5.423-6.165 8.731-1.417 3.188-2.078 6.54-2.628 9.957-.532 3.297-.899 6.442-.536 9.747 2.946.097 6.16-3.606 8.415-5.18 5.457-3.817 9.093-9.723 10.472-16.168M76.656 358.848c2.692-1.727 5.79-3.188 7.992-5.606 5.059-5.55 6.926-11.832 7.864-19.133.441-3.457-.215-6.984-.543-10.414-.266-2.824.191-6.441-.543-9.172-1.813 2.942-4.008 5.551-6.574 7.903-3.11 2.851-6.168 5.77-8.196 9.566-1.535 2.871-2.746 5.98-3.183 9.2-.434 3.175-.649 6.492.039 9.667.613 2.86 1.367 5.602 3.144 7.989M55 371.02c3.164 2.113 6.855 3.085 10.035 5.054-.375-4.863-1.957-9.25-4.078-13.414-1.645-3.226-3.61-6.324-5.594-9.41-2.113-3.293-4.55-6.648-7.5-9.277-2.781-2.489-5.73-4.414-8.597-6.59-1.965-1.485-4.453-2.813-6.727-3.703.438 1.894 1.652 3.93 2.18 5.875.574 2.117 1.488 4.242 2.355 6.289 2.656 6.27 4.61 12.46 9.281 17.613 2.575 2.84 5.45 5.434 8.645 7.563M90.285 390.773c1.102 3.641 3.477 3.153 6.2 1.2 2.269-1.63 3.32-3.422 3.874-6.133.582-2.848.657-5.578.786-8.516.136-3.195.39-6.656.105-9.832-.29-3.219-.723-6.488-.898-9.695-.157-2.832.265-6.445-.579-9.156-.492 1.511-1.738 2.84-2.707 4.097-1.566 2.024-2.66 4.235-3.933 6.465-3.38 5.926-5.278 11.82-5.278 18.692 0 3.152.145 6.171 1.06 9.222.386 1.285.983 2.39 1.37 3.656M111.883 468.281c-8.59-.441-17.145.172-25.653-.86 1.72 1.114 2.48 3.235 4.235 4.317 2.086 1.285 4.015 2.91 6.125 4.235 3.8 2.386 7.656 4.75 11.918 6.199 3.64 1.238 7.738 1.715 11.531 1.765 3.027.043 7.477-1.18 9.328-3.789 1.41-1.988.992-4.503-.37-6.375-3.712-5.074-11.364-5.195-17.114-5.492M251.645 61.695h-5.563v-5.558h-6.828v5.558h-5.563v6.828h5.563v5.563h6.828v-5.563h5.563" style="stroke:none;fill-rule:nonzero;fill:#b6a258;fill-opacity:1" data-source="https://football-logos.cc"></path><!-- source: https://football-logos.cc --></svg>