<svg xmlns="http://www.w3.org/2000/svg" viewBox="0 0 278.88 400"><!-- Source: https://football-logos.cc --><path d="M380.176 247.855c0-71.891-58.261-130.168-130.136-130.168-71.891 0-130.152 58.277-130.152 130.168 0 71.859 58.261 130.136 130.152 130.136 71.876.002 130.136-58.277 130.136-130.136" style="clip-rule:evenodd;fill:#fff;fill-rule:evenodd" transform="matrix(.55776 0 0 .55776 0 0)" data-source="https://football-logos.cc"></path><path d="M383.549 247.856c0-73.755-59.771-133.542-133.509-133.542-73.754 0-133.525 59.787-133.525 133.542 0 73.722 59.771 133.509 133.525 133.509 73.739 0 133.509-59.787 133.509-133.509m-98.808 118.62-15.569-10.893 12.688-35.445 46.256-15.165 21.818 15.651c-15.878 21.751-38.683 38.114-65.193 45.852m64.642-153.773 9.388.938 12.283 46.225-18.87 44.346-1.441 3.625-19.049-13.466-9.226-51.161zm-40.235-73.464 10.666 19.502-38.18-11.831-16.3-21.704a123.4 123.4 0 0 1 43.814 14.033m-26.382 19.244 42.355 13.077.05-.146 13.595 37.161-22.546 25.54-42.323-10.763-17.432-38.569zm-36.27 30.201 16.59 36.74-23.419 43.505-40.301.599-16.395-48.441 29.829-34.911zm-114.54 22.481 41.886-57.91h20.765l6.264 30.427-26.737 31.27-31.399 6.571-10.812-10.245c.016-.032.016-.065.033-.113m-5.536 36.691c0-8.481.858-16.735 2.477-24.715l9.468 9-7.381 48.959a123.3 123.3 0 0 1-4.564-33.244m69.061 110.915c-27.433-13.515-49.104-36.902-60.402-65.533l35.606 14.258 34.992 47.519zm-11.669-51.5 14.55-27.029 47.18-.713 26.252 37.032-13.515 37.678h-39.896zm285.372 169.423c-9.259-10.536-34.911-2.687-49.072 1.893-32.71-15.1-61.405-34.23-86.8-56.613 36.837-19.325 59.544-47.357 77.38-83.062 12.041-24.083 21.072-50.125 22.627-81.135 5.324-105.897-81.572-203.46-198.136-194.397-107.678 8.4-177.71 102.014-169.844 203.833 6.15 80.164 52.277 131.486 107.549 162.302-23.825 14.551-47.39 29.991-66.034 47.18-6.976 6.426-12.43 13.854-20.765 18.872-30.768-9.242-44.137 14.89-49.057 37.742-14.485 7.429-25.038 10.974-28.307 26.415-3.739 17.479 10.407 27.966 13.207 45.301 3.9 24.277-2.8 44.831 3.755 62.279 7.332 19.406 30.815 30.783 52.86 37.743 17.463 5.519 40.673 9.97 58.492 11.313 66.812 5.065 98.938-14.663 139.66-39.621 53.978-33.082 108.019-69.109 149.079-115.123 21.572-24.163 51.596-56.986 43.406-84.922M138.931 344.593c-13.983-15.603-32.499-48.118-35.865-73.609-1.813-13.919-2.719-26.543 0-47.18 2.541-19.227 14.712-46.547 24.536-60.401 20.231-28.486 55.288-54.09 100.039-60.37 41.79-5.891 79.192 5.551 105.671 24.521 21.121 15.149 42.501 38.293 52.844 64.156 17.739 44.444 9.564 106.044-15.102 139.676-12.511 17.043-29.261 31.27-52.843 43.392-19.746 10.148-42.098 19.601-62.263 20.75-43.133 2.492-88.904-19.568-117.017-50.935m128.33 101.899c11.507-3.171 36.076 16.947 43.408 22.644 9.209 7.187 22.108 17.043 33.955 24.553 3.286 2.071 7.43 4.629 10.439 7.3-56.955 15.602-136.357 16.864-197.277 4.014 26.673-28.859 71.57-48.055 109.475-58.511m111.336 128.331c-25.88 25.896-54.608 52.196-86.8 71.716-45.204 27.401-112.242 52.471-179.296 30.2-21.736-7.218-43.942-21.494-33.956-43.407 1.375-3.044 2.509-8.093 3.771-9.436 11.151-11.962 37.29-8.465 45.285-24.537-2.784-16.718-35.51-3.479-39.637-18.871 3.027-15.474 22.093-14.519 35.866-18.872 13.887-4.402 28.89-8.869 33.956-20.765-16.913-15.765-65.679 8.108-81.135-11.33 3.981-12.624 18.289-10.665 28.307-11.313 44.945-2.914 84.356 7.444 128.33 9.436 40.3 1.828 85.813 3.464 120.788-3.772 24.698-5.113 62.329-22.593 67.928-11.328 4.71 9.84-24.6 43.473-43.407 62.279" style="clip-rule:evenodd;fill-rule:evenodd" transform="matrix(.55776 0 0 .55776 0 0)"></path><path d="M204.561 417.021a1120 1120 0 0 1 12.802-4.742l1.651-7.655a158 158 0 0 1-11.151-2.865zm-20.992.243a155 155 0 0 0 10.584 3.771c.097-.032.211-.08.324-.113l6.62-21.331c-3.642-1.263-7.234-2.59-10.763-4.128zm2.865-312.742L176.27 85.294a160 160 0 0 0-10.293 5.131l10.002 18.953c3.398-1.732 6.861-3.367 10.455-4.856m43.602-34.102 1.068 22.756c3.755-.438 7.575-.793 11.459-.987l-1.052-22.707c-3.852.194-7.672.502-11.475.938m-21.882 3.853 4.095 22.092a188 188 0 0 1 11.314-2.185l-4.128-22.254c-3.82.663-7.559 1.457-11.281 2.347m-22.287 6.975 7.316 20.636c3.561-1.295 7.234-2.412 10.974-3.464l-7.429-20.975a180 180 0 0 0-10.861 3.803m-70.906 87.917-19.697-9.792a170 170 0 0 0-5.374 10.164l20.037 9.954a149 149 0 0 1 5.034-10.326m10.828-17.123-18.337-11.249c-2.315 3.075-4.5 6.231-6.604 9.436l18.483 11.346a147 147 0 0 1 6.458-9.533m26.527-27.564-13.774-15.861a176 176 0 0 0-8.74 7.494l13.79 15.861a138 138 0 0 1 8.724-7.494m-14.89 13.58-15.425-14.324c-2.67 2.751-5.244 5.6-7.736 8.513l15.603 14.485c2.411-2.977 4.903-5.891 7.558-8.674m31.22-24.666-12.349-17.367a178 178 0 0 0-9.581 6.377l12.203 17.156a139 139 0 0 1 9.727-6.166m219.225 63.202 21.074-10.472a160 160 0 0 0-5.601-10.051l-21.008 10.439a165 165 0 0 1 5.535 10.084m7.737 18.014 22.173-8.336c-1.311-3.609-2.767-7.153-4.305-10.649l-22.142 8.303a161 161 0 0 1 4.274 10.682m-288.254-9-21.186-7.915a190 190 0 0 0-4.16 10.699l21.494 8.06a166 166 0 0 1 3.852-10.844m296.993 47.956 23.419-3.253c-.355-3.82-.856-7.639-1.472-11.394l-23.518 3.253c.648 3.755 1.199 7.542 1.571 11.394m-26.09-73.543 19.357-12.916a194 194 0 0 0-6.798-9.306l-19.292 12.884a165 165 0 0 1 6.733 9.338m22.902 53.814 23.372-4.321a183 183 0 0 0-2.817-11.184l-23.436 4.353a169 169 0 0 1 2.881 11.152M328.667 87.383a170 170 0 0 0-10.487-4.726l-8.805 20.441a143 143 0 0 1 10.472 4.774zm-20.491-8.498a166 166 0 0 0-10.989-3.366l-6.409 21.299c3.723.97 7.397 2.136 10.989 3.398zm-37.403 14.146c3.853.469 7.655 1.036 11.41 1.78l4.889-21.752a177 177 0 0 0-11.346-1.975zm81.557 37.08 14.729-17.302a174 174 0 0 0-8.935-7.235l-14.631 17.156c3.058 2.347 5.97 4.807 8.837 7.381m13.302 13.385 17.141-15.262a175 175 0 0 0-7.979-8.287l-17.074 15.214c2.734 2.687 5.388 5.454 7.912 8.335m-28.905-25.653 12.009-18.937a177 177 0 0 0-9.76-6.053l-12.009 18.888a155 155 0 0 1 9.76 6.102m-85.376-25.928c3.884-.033 7.704.129 11.508.372l1.44-22.464c-3.804-.308-7.623-.47-11.491-.518zm76.377 291.635 12.187 18.548c3.271-2.007 6.49-4.11 9.615-6.313l-12.446-18.952a157 157 0 0 1-9.356 6.717m14.47-10.795 15.133 17.253a182 182 0 0 0 8.853-7.349l-15.392-17.543a176 176 0 0 1-8.594 7.639m15.084-14.097 17.738 15.7c2.703-2.719 5.342-5.503 7.865-8.384l-17.9-15.862a184 184 0 0 1-7.703 8.546m-62.166 41.465 9.694 18.727a189 189 0 0 0 10.795-4.192l-9.775-18.888a147 147 0 0 1-10.714 4.353m17.058-7.444 9.856 19.082a185 185 0 0 0 10.262-5.229l-10.1-19.471a145 145 0 0 1-10.018 5.618m57.004-47.73 19.632 14a193 193 0 0 0 6.895-9.209l-19.729-14.032a188 188 0 0 1-6.798 9.241m59.349-102.304h-23.564c.129 2.379.193 4.791.193 7.202 0 1.44-.032 2.865-.097 4.305h23.403c.098-2.169.162-4.37.162-6.555.001-1.651-.032-3.318-.097-4.952m-47.649 85.585 21.673 11.07c1.991-3.269 3.9-6.619 5.68-10.002l-21.606-11.038a198 198 0 0 1-5.747 9.97m21.915-54.624 23.322 3.156a164 164 0 0 0 1.57-11.394l-23.193-3.156a133 133 0 0 1-1.699 11.394m-5.146 19.357 23.387 5.211c1.102-3.658 2.121-7.364 2.994-11.119l-23.079-5.13c-.972 3.69-2.056 7.38-3.302 11.038m-7.024 17.35 22.61 8.659a184 184 0 0 0 4.369-10.65l-22.432-8.578a167 167 0 0 1-4.547 10.569m-245.736 55.061-15.958 16.897a167 167 0 0 0 8.594 7.655l15.991-16.929a160 160 0 0 1-8.627-7.623m-46.288-84.08-22.4 6.474a213 213 0 0 0 2.768 11.184l22.303-6.474a151 151 0 0 1-2.671-11.184m-2.477-17.804-23.371 1.813c.356 3.82.841 7.639 1.408 11.411l23.306-1.797c-.582-3.771-1.003-7.575-1.343-11.427m-.599-13.514c0-2.25.049-4.467.146-6.684l-23.694.097c-.016 1.408-.048 2.8-.048 4.208 0 2.46.064 4.872.146 7.3l23.564-.097c-.049-1.619-.114-3.221-.114-4.824m1.732-25.458-23.388-3.27c-.55 3.788-.987 7.591-1.311 11.443l23.5 3.27a190 190 0 0 1 1.199-11.443m6.264 75.437-21.38 9.144a182 182 0 0 0 4.079 10.763l21.267-9.096c-1.458-3.528-2.753-7.153-3.966-10.811m8.545 20.895L91.38 331.257a190 190 0 0 0 5.422 10.148l20.733-10.407a161 161 0 0 1-5.471-10.148m46.256 55.951-12.187 19.811a172 172 0 0 0 9.517 6.474l12.139-19.696c-3.237-2.09-6.393-4.258-9.469-6.589m15.392 10.228-9.776 20.959a175 175 0 0 0 10.261 5.245l9.663-20.732c-3.463-1.684-6.83-3.529-10.148-5.472m-72.638-181.983-22.351-6.376a170 170 0 0 0-2.767 11.167l22.643 6.441a178 178 0 0 1 2.475-11.232m29.878 145.277-17.415 15.391a177 177 0 0 0 7.575 8.676l17.431-15.44c-2.638-2.785-5.196-5.65-7.591-8.627m-10.553-14.697-18.694 13.806c2.088 3.221 4.257 6.393 6.539 9.468l18.677-13.789c-2.297-3.059-4.45-6.247-6.522-9.485" style="fill:#fcaf17" transform="matrix(.55776 0 0 .55776 0 0)"></path><path d="m222.817 429.046.712.097-.647-.615zm12.075-22.757c-1.359 0-5.179-.42-8.756-.841l-.696 4.953 12.122-3.513.065-.501a43 43 0 0 0-2.735-.098" style="clip-rule:evenodd;fill:#fcaf17;fill-rule:evenodd" transform="matrix(.55776 0 0 .55776 0 0)"></path><path d="M365.52 488.363c6.134 3.853 9.581 5.924 9.889 6.135l9.096-21.073a1266 1266 0 0 1-10.342-5.05zm-6.717-28.776-11.216 17.221c.695.454 1.392.891 2.071 1.343 2.735 1.796 5.244 3.415 7.574 4.921l11.378-17.496c-3.01-1.587-6.327-3.642-9.807-5.989m32.71 17.188-6.215 14.389c2.993-1.118 6.49-2.51 10.293-4.192 2.088-.922 3.723-1.7 5.033-2.299l1.408-3.252c-2.152-.811-5.972-2.526-10.519-4.646m-76.085-47.568a1131 1131 0 0 1-11.314 3.982l-4.854 11.814a79 79 0 0 1 6.992 4.839c.792.6 1.699 1.263 2.653 1.959l8.691-21.153a98 98 0 0 1-2.168-1.441m10.973 7.235-11.071 19.729c2.93 1.942 6.2 4.03 9.68 6.248l10.844-19.358c-3.384-2.459-6.572-4.725-9.453-6.619m-33.342 5.163 1.717-5.179c-2.59.89-5.147 1.748-7.623 2.604 2.071.844 4.014 1.668 5.906 2.575m50.417 7.041-12.722 17.43c3.188 1.991 6.441 4.063 9.728 6.168l12.3-16.833a483 483 0 0 1-9.306-6.765" style="fill:#fcaf17" transform="matrix(.55776 0 0 .55776 0 0)" data-source="https://football-logos.cc"></path><path d="M378.597 574.823c-25.88 25.896-54.608 52.196-86.8 71.716-45.204 27.401-112.242 52.471-179.296 30.2-21.736-7.218-43.942-21.494-33.956-43.407 1.375-3.044 2.509-8.093 3.771-9.436 11.151-11.962 37.29-8.465 45.285-24.537-2.784-16.718-35.51-3.479-39.637-18.871 3.027-15.474 22.093-14.519 35.866-18.872 13.887-4.402 28.89-8.869 33.956-20.765-16.913-15.765-65.679 8.108-81.135-11.33 3.981-12.624 18.289-10.665 28.307-11.313 44.945-2.914 84.356 7.444 128.33 9.436 40.3 1.828 85.813 3.464 120.788-3.772 24.698-5.113 62.329-22.593 67.928-11.328 4.71 9.84-24.6 43.473-43.407 62.279" style="clip-rule:evenodd;fill:#fcaf17;fill-rule:evenodd" transform="matrix(.55776 0 0 .55776 0 0)"></path><path d="m141.667 465.3 13.499 18.937a365 365 0 0 1 7.056-4.759l2.428-1.715-13.094-18.402a309 309 0 0 0-9.889 5.939m20.57-11.912 11.944 18.549c3.318-1.975 6.685-3.901 10.035-5.682l-11.783-18.289c-3.058 1.603-6.554 3.431-10.196 5.422m-30.864 19.114c-2.331 1.926-4.791 3.82-7.251 5.713l15.052 17.352a881 881 0 0 1 9.387-6.733l-15.392-17.739c-.63.485-1.246.954-1.796 1.407m49.849-29.003 9.387 19.438a419 419 0 0 1 10.375-5.001l-9.274-19.228c-4.144 1.829-7.752 3.464-10.488 4.791m-74.936 47.583 17.674 13.888c2.282-1.214 4.806-2.542 6.555-3.416l2.945-3.755-17.382-13.659c-3.512 2.524-6.862 4.871-9.792 6.942m151.167-78.432 9.129 20.231c1.506-.453 2.994-.874 4.45-1.263a135 135 0 0 0 6.685-2.072l-9.323-20.603c-3.608 1.215-7.299 2.446-10.941 3.707m-17.544 6.15 8.254 20.022a372 372 0 0 1 10.941-3.658l-8.335-20.215c-3.9 1.36-7.607 2.655-10.86 3.851m48.086-16.362c-3.011 1.004-6.814 2.251-11.022 3.643l9.711 20.23c3.496-1.343 7.073-2.801 10.698-4.305zm-87.578 32.466 8.627 19.391a472 472 0 0 1 10.568-4.549l-8.61-19.324a1773 1773 0 0 0-10.585 4.482m19.957-8.367 8.093 19.615a500 500 0 0 1 10.73-4.11L231.04 422.2a1242 1242 0 0 0-10.666 4.337" style="fill:#fcaf17" transform="matrix(.55776 0 0 .55776 0 0)"></path><path d="m54.84 210.975 2.302 2.908-21.782 17.278-11.356-14.308 2.446-1.942 9.045 11.411 6.924-5.497-7.926-10.002 2.437-1.942 7.926 10.011zM20.573 210.886l-1.878-3.187 23.914-14.181 1.877 3.177zM27.75 178.189c3.466-1.48 7.763-1.146 10.21 4.586 2.022 4.775.523 8.575-4.288 10.633l-1.57.668-1.454-3.403 1.074-.452c2.978-1.273 4.757-2.96 3.33-6.3-1.317-3.115-3.529-3.313-6.364-2.104l-18.695 7.962-1.453-3.403zM5.543 176.645l-.966-3.575 26.829-7.285.975 3.575zM28.156 145.573l.09 3.693-27.794.686L0 131.699l3.114-.09.361 14.57 8.838-.217-.316-12.774 3.114-.082.317 12.774zM2.094 111.712c1.688-8.684 9.416-11.744 16.836-10.308 7.412 1.435 13.45 7.167 11.772 15.842-1.689 8.684-9.425 11.754-16.836 10.31-7.42-1.436-13.451-7.169-11.772-15.844m25.547 4.947c1.282-6.662-3.908-10.562-9.415-11.627-5.507-1.057-11.781.614-13.072 7.267-1.29 6.662 3.9 10.562 9.416 11.618 5.506 1.074 11.78-.605 13.071-7.258M13.288 77.878c3.827-7.972 12.097-8.973 18.894-5.705 6.816 3.276 11.203 10.344 7.375 18.316-3.828 7.962-12.096 8.972-18.894 5.696-6.815-3.267-11.193-10.336-7.375-18.307m23.453 11.258c2.934-6.103-1.092-11.195-6.156-13.622-5.055-2.438-11.555-2.402-14.48 3.71-2.934 6.102 1.102 11.193 6.157 13.63 5.055 2.429 11.554 2.392 14.48-3.718M31.478 55.482l-5.75 7.276-2.447-1.932 13.794-17.45 2.446 1.932-5.75 7.267 19.372 15.319-2.302 2.898zM43.015 37.454l7.79-6.418c1.896-1.553 4.388-3.602 6.32-3.891 2.113-.325 4.486.298 6.22 2.401 1.877 2.283 2.084 4.992.766 7.438l.046.063c3.105-1.634 6.183-.84 8.35 1.806 2.6 3.16 2.825 8.016-1.453 11.527L60.69 58.93zm10.453 6.879 5.714-4.694c3.25-2.673 3.602-4.938 1.752-7.195-2.446-2.979-4.91-1.66-7.366.361l-5.715 4.704zm8.089 9.83 7.158-5.885c2.474-2.032 2.799-4.811.867-7.168-2.302-2.799-5.2-1.724-7.61.262l-6.527 5.362zM74.845 15.058l3.656-1.841 22.234 19.923-3.647 1.832-6.491-6.093-10.499 5.29.994 8.883-3.404 1.724zm4.892 15.815 8.414-4.251-9.984-9.488-.063.037zM105.528 28.95l14.209-3.836.813 3.006-17.784 4.794-7.24-26.848 3.566-.956zM126.219 24.618l14.678-1.157.235 3.106-18.352 1.436L120.595.28l3.701-.28zM168.078 2.212l3.99.912 4.469 29.51-3.99-.894-1.11-8.838-11.483-2.6-4.875 7.493-3.728-.84zm-6.292 15.31 9.19 2.085-1.652-13.676-.09-.018zM201.479 22.866c1.317-3.773-.335-6.454-3.783-8.097-2.807-1.336-6.11-1.652-7.673 1.616-1.471 3.087 2.32 5.452 5.931 8.305 3.575 2.816 6.915 6.139 4.568 11.05-2.545 5.344-8.802 4.992-13.378 2.826-5.624-2.682-9.063-7.683-6.147-13.803l3.159 1.507c-2.004 4.216.641 7.719 4.442 9.533 3.014 1.436 6.806 2.076 8.54-1.544 1.634-3.44-2.095-5.958-5.679-8.738-3.584-2.79-7.077-5.877-4.893-10.481 2.438-5.1 8.044-5.19 12.612-3.015 5.127 2.446 7.89 6.725 5.46 12.349zM224.995 39.079c2.112-3.404 1.083-6.373-1.932-8.73-2.455-1.905-5.606-2.942-7.836-.09-2.112 2.708 1.083 5.832 3.99 9.397 2.88 3.53 5.416 7.484 2.058 11.78-3.638 4.668-9.678 2.97-13.667-.144-4.91-3.836-7.186-9.46-3.015-14.804l2.761 2.157c-2.87 3.684-1.046 7.673 2.267 10.264 2.636 2.058 6.201 3.512 8.676.352 2.347-3.015-.75-6.274-3.657-9.767-2.889-3.503-5.633-7.276-2.491-11.294 3.475-4.45 8.963-3.322 12.954-.207 4.486 3.493 6.247 8.277 2.654 13.242zM248.42 50.968c5.525 6.897 2.862 14.778-3.033 19.508-5.894 4.721-14.163 5.606-19.696-1.29-5.525-6.897-2.853-14.77 3.033-19.5 5.894-4.73 14.172-5.615 19.696 1.282M228.12 67.235c4.242 5.29 10.58 3.854 14.958.352 4.368-3.512 7.158-9.38 2.916-14.67s-10.581-3.855-14.95-.342c-4.387 3.502-7.158 9.379-2.924 14.66M261.836 91.844c3.25-2.347 3.754-6.04 2.148-9.551-2.754-6.013-8.874-6.301-14.146-3.9-5.777 2.645-9.433 7.393-6.67 13.45 2.03 4.432 6.31 5.56 10.633 3.963l1.544 3.367c-6.599 2.248-12.223.054-15.13-6.32-3.601-7.862.46-14.334 7.836-17.701 7.33-3.359 15.229-1.905 18.786 5.886 2.41 5.28 1.57 10.922-3.458 14.172zM273.183 100.347l.965 3.566-26.856 7.24-.966-3.576zM277.407 121.218l.443 4.07-26.468 13.813-.433-4.071 7.989-3.928-1.273-11.69-8.667-2.193-.415-3.792zm-16.52-.984 1.02 9.37 12.386-6.003v-.081zM275.132 145.97l.641-9.243 3.105.207-1.525 22.19-3.115-.217.642-9.254-24.627-1.687.243-3.702zM275.7 166.02l-.776 3.611-27.189-5.867.785-3.63zM268.723 191.314c-3.358 8.188-11.537 9.669-18.533 6.807-6.996-2.853-11.78-9.659-8.431-17.838 3.34-8.188 11.536-9.668 18.523-6.815 6.997 2.861 11.781 9.668 8.44 17.846m-24.084-9.848c-2.572 6.265 1.76 11.112 6.951 13.234 5.191 2.13 11.672 1.715 14.245-4.567 2.564-6.265-1.76-11.113-6.95-13.234-5.192-2.131-11.673-1.707-14.246 4.567M251.409 211.526l.045-.063-17.974-13.233 2.085-2.817 22.398 16.483-2.339 3.169-26.838-1.58-.045.063 18.154 13.37-2.077 2.825-22.396-16.492 2.41-3.26z" data-source="https://football-logos.cc"></path><!-- source: https://football-logos.cc --></svg>