<svg xmlns="http://www.w3.org/2000/svg" viewBox="0.48 0.48 82.58 82.58"><!-- Source: https://football-logos.cc --><defs data-source="https://football-logos.cc"><clipPath id="a" clipPathUnits="userSpaceOnUse"><path d="M-32.364-16.334H.305v32.669h-32.67Z"></path></clipPath><clipPath id="b" clipPathUnits="userSpaceOnUse"><path d="m-15.762 28.51 32.65 1.101 1.102-32.65-32.65-1.101Z"></path></clipPath><clipPath id="c" clipPathUnits="userSpaceOnUse"><path d="m-12.722 31.154 32.36-4.48-4.48-32.36-32.36 4.48Z"></path></clipPath><clipPath id="d" clipPathUnits="userSpaceOnUse"><path d="M12.581 32.887 21.532 1.47-9.887-7.482l-8.95 31.418Z"></path></clipPath><clipPath id="e" clipPathUnits="userSpaceOnUse"><path d="m16.571 30.05 2.145-32.598-32.598-2.145-2.145 32.598Z"></path></clipPath><clipPath id="f" clipPathUnits="userSpaceOnUse"><path d="m19.982-.527-32.16-5.74-5.74 32.16 32.16 5.741Z"></path></clipPath><clipPath id="g" clipPathUnits="userSpaceOnUse"><path d="m16.737-4.377-32.633 1.525 1.524 32.633 32.634-1.525Z"></path></clipPath><clipPath id="h" clipPathUnits="userSpaceOnUse"><path d="M13.312-7.054-18.443.62l7.673 31.755 31.755-7.672Z"></path></clipPath><clipPath id="i" clipPathUnits="userSpaceOnUse"><path d="m-9.673-7.57-9.432 31.278 31.277 9.432 9.432-31.278Z"></path></clipPath><clipPath id="j" clipPathUnits="userSpaceOnUse"><path d="M-13.383-4.985-16.32 27.55l32.537 2.939 2.938-32.537Z"></path></clipPath><clipPath id="k" clipPathUnits="userSpaceOnUse"><path d="m-16.656-1.936 3.168 32.515 32.515-3.168-3.168-32.515Z"></path></clipPath><clipPath id="l" clipPathUnits="userSpaceOnUse"><path d="m-19.105 1.164 8.387 31.574 31.574-8.387-8.387-31.574Z"></path></clipPath><clipPath id="m" clipPathUnits="userSpaceOnUse"><path d="M-15.987-28.554h32.669v32.67h-32.67Z"></path></clipPath><clipPath id="n" clipPathUnits="userSpaceOnUse"><path d="M-7.436-24.691h32.67V7.978h-32.67Z"></path></clipPath><clipPath id="o" clipPathUnits="userSpaceOnUse"><path d="M-16.725-28.559h32.669v32.67h-32.67Z"></path></clipPath><clipPath id="p" clipPathUnits="userSpaceOnUse"><path d="M-25.06-24.886H7.61v32.67h-32.67Z"></path></clipPath><clipPath id="q" clipPathUnits="userSpaceOnUse"><path d="M-16.39-24.867h32.67v32.67h-32.67Z"></path></clipPath><clipPath id="r" clipPathUnits="userSpaceOnUse"><path d="M-24.409-22.463h32.67v32.669h-32.67Z"></path></clipPath><clipPath id="s" clipPathUnits="userSpaceOnUse"><path d="M-28.185-17.919H4.484v32.67h-32.67Z"></path></clipPath><clipPath id="t" clipPathUnits="userSpaceOnUse"><path d="M-24.97-13.455H7.697v32.67H-24.97Z"></path></clipPath><clipPath id="u" clipPathUnits="userSpaceOnUse"><path d="M-26.21-9.217H6.459v32.67h-32.67Z"></path></clipPath><clipPath id="v" clipPathUnits="userSpaceOnUse"><path d="M-16.895-17.919h32.669v32.67h-32.67Z"></path></clipPath><clipPath id="w" clipPathUnits="userSpaceOnUse"><path d="M-11.618-13.335h32.67v32.67h-32.67Z"></path></clipPath><clipPath id="x" clipPathUnits="userSpaceOnUse"><path d="M-7.737-9.33h32.669v32.669h-32.67Z"></path></clipPath><clipPath id="y" clipPathUnits="userSpaceOnUse"><path d="M-28.526-16.363h32.67v32.67h-32.67Z"></path></clipPath><clipPath id="z" clipPathUnits="userSpaceOnUse"><path d="M-10.936-5.42h32.669v32.669h-32.67Z"></path></clipPath><clipPath id="A" clipPathUnits="userSpaceOnUse"><path d="M-12.205-28.966h32.67v32.67h-32.67Z"></path></clipPath><clipPath id="B" clipPathUnits="userSpaceOnUse"><path d="M-10.592-28.269h32.67v32.67h-32.67Z"></path></clipPath><clipPath id="C" clipPathUnits="userSpaceOnUse"><path d="M-11.493-28.269h32.67v32.67h-32.67Z"></path></clipPath><clipPath id="D" clipPathUnits="userSpaceOnUse"><path d="M-12.3-24.47h32.669V8.2h-32.67Z"></path></clipPath><clipPath id="E" clipPathUnits="userSpaceOnUse"><path d="M-12.3-23.43h32.669V9.24h-32.67Z"></path></clipPath><clipPath id="F" clipPathUnits="userSpaceOnUse"><path d="M-11.717-21.414h32.67v32.67h-32.67Z"></path></clipPath><clipPath id="G" clipPathUnits="userSpaceOnUse"><path d="M-12.513-16.554h32.67v32.67h-32.67Z"></path></clipPath><clipPath id="H" clipPathUnits="userSpaceOnUse"><path d="M-12.916-17.052h32.67v32.669h-32.67Z"></path></clipPath><clipPath id="I" clipPathUnits="userSpaceOnUse"><path d="M-12.396-13.858h32.67V18.81h-32.67Z"></path></clipPath><clipPath id="J" clipPathUnits="userSpaceOnUse"><path d="M-13.84-14.824h32.67v32.67h-32.67Z"></path></clipPath><clipPath id="K" clipPathUnits="userSpaceOnUse"><path d="M-15.176-13.084h32.669v32.67h-32.67Z"></path></clipPath><clipPath id="L" clipPathUnits="userSpaceOnUse"><path d="M-15.77-15.885h32.669v32.669h-32.67Z"></path></clipPath><clipPath id="M" clipPathUnits="userSpaceOnUse"><path d="M-16.417-16.212h32.67v32.67h-32.67Z"></path></clipPath><clipPath id="N" clipPathUnits="userSpaceOnUse"><path d="M-17.415-15.418h32.669V17.25h-32.67Z"></path></clipPath><clipPath id="O" clipPathUnits="userSpaceOnUse"><path d="M-16.03-17.622h32.668v32.67H-16.03Z"></path></clipPath><clipPath id="P" clipPathUnits="userSpaceOnUse"><path d="M-15.91-18.741h32.668v32.669H-15.91Z"></path></clipPath><clipPath id="Q" clipPathUnits="userSpaceOnUse"><path d="M-16.62-19.419h32.67v32.67h-32.67Z"></path></clipPath><clipPath id="R" clipPathUnits="userSpaceOnUse"><path d="M-17.925-19.408h32.67V13.26h-32.67Z"></path></clipPath><clipPath id="S" clipPathUnits="userSpaceOnUse"><path d="M-17.344-18.707h32.67v32.67h-32.67Z"></path></clipPath><clipPath id="T" clipPathUnits="userSpaceOnUse"><path d="M-17.15-18.092h32.67v32.669h-32.67Z"></path></clipPath><clipPath id="U" clipPathUnits="userSpaceOnUse"><path d="M-15.939-19.558H16.73V13.11h-32.669Z"></path></clipPath><clipPath id="V" clipPathUnits="userSpaceOnUse"><path d="M-19.05-19.153h32.67v32.669h-32.67Z"></path></clipPath><clipPath id="W" clipPathUnits="userSpaceOnUse"><path d="M-18.927-18.048h32.669V14.62h-32.67Z"></path></clipPath><clipPath id="X" clipPathUnits="userSpaceOnUse"><path d="M-18.737-16.105h32.669v32.669h-32.669Z"></path></clipPath><clipPath id="Y" clipPathUnits="userSpaceOnUse"><path d="M-19.527-15.09h32.67v32.67h-32.67Z"></path></clipPath><clipPath id="Z" clipPathUnits="userSpaceOnUse"><path d="M-20.493-14.59h32.67v32.669h-32.67Z"></path></clipPath><clipPath id="aa" clipPathUnits="userSpaceOnUse"><path d="M-21.13-14.368h32.67v32.67h-32.67Z"></path></clipPath><clipPath id="ab" clipPathUnits="userSpaceOnUse"><path d="M-20.758-13.625h32.669v32.67h-32.669Z"></path></clipPath><clipPath id="ac" clipPathUnits="userSpaceOnUse"><path d="M-19.574-12.213h32.669v32.669h-32.669Z"></path></clipPath><clipPath id="ad" clipPathUnits="userSpaceOnUse"><path d="M-20.8-12.596h32.669v32.67h-32.67Z"></path></clipPath><clipPath id="ae" clipPathUnits="userSpaceOnUse"><path d="M-18.465-12.712h32.67v32.669h-32.67Z"></path></clipPath><clipPath id="af" clipPathUnits="userSpaceOnUse"><path d="M-20.247-10.93h32.669v32.67h-32.67Z"></path></clipPath><clipPath id="ag" clipPathUnits="userSpaceOnUse"><path d="M-20.59-9.217h32.669v32.67h-32.67Z"></path></clipPath><clipPath id="ah" clipPathUnits="userSpaceOnUse"><path d="M-20.355-9.051h32.67v32.669h-32.67Z"></path></clipPath><clipPath id="ai" clipPathUnits="userSpaceOnUse"><path d="M-17.648-9.815H15.02v32.669h-32.67Z"></path></clipPath><clipPath id="aj" clipPathUnits="userSpaceOnUse"><path d="M-18.126-9.454h32.669v32.669h-32.67Z"></path></clipPath><clipPath id="ak" clipPathUnits="userSpaceOnUse"><path d="M847.13 487.625h32.669v32.669H847.13Z"></path></clipPath><clipPath id="al" clipPathUnits="userSpaceOnUse"><path d="M-23.145-12.361H9.524v32.669h-32.67Z"></path></clipPath><clipPath id="am" clipPathUnits="userSpaceOnUse"><path d="M-22.041-11.29h32.669v32.669h-32.67Z"></path></clipPath><clipPath id="an" clipPathUnits="userSpaceOnUse"><path d="M-22.382-10.526h32.67v32.669h-32.67Z"></path></clipPath><clipPath id="ao" clipPathUnits="userSpaceOnUse"><path d="M-23.496-11.912h32.67v32.669h-32.67Z"></path></clipPath><clipPath id="ap" clipPathUnits="userSpaceOnUse"><path d="M-23.328-11.524H9.34v32.67h-32.67Z"></path></clipPath></defs><path d="M0 0c0-8.853-7.176-16.029-16.029-16.029S-32.058-8.853-32.058 0s7.176 16.029 16.029 16.029S0 8.853 0 0" clip-path="url(#a)" style="fill:#fff;fill-opacity:1;fill-rule:nonzero;stroke:#ae8f00;stroke-width:.611;stroke-linecap:butt;stroke-linejoin:miter;stroke-miterlimit:10;stroke-dasharray:none;stroke-opacity:1" transform="matrix(2.55683 0 0 -2.55683 82.748 41.764)"></path><path d="m.81.003-.002-2.04-.738-.001.002-.422 1.958-.005-.002.422h-.727l.002 2.04zm0 0" aria-label="T" clip-path="url(#b)" style="fill:#000;fill-opacity:1;fill-rule:nonzero;stroke:none" transform="matrix(2.55538 -.08617 .08617 2.55538 37.819 9.316)"></path><path d="m2.46.004-.545-.008-.197-.564-.992.007L.53 0-.001 0l.96-2.463.52-.001ZM1.544-.97l-.327-.913L.87-.97Zm0 0" aria-label="A" clip-path="url(#c)" style="fill:#000;fill-opacity:1;fill-rule:nonzero;stroke:none" transform="scale(2.55683)rotate(7.882 -17.354 124.236)"></path><path d="m172.736 105.386 1.199.42-1.259 3.775c-.18.501-.352.853-.51 1.078q-.394.45-.958.63c-.36.119-.794.09-1.288-.09-.585-.18-.982-.495-1.199-.93-.202-.434-.195-.988.03-1.647l1.168.27c-.105.359-.142.613-.12.748a.78.78 0 0 0 .51.54q.381.124.629-.03c.18-.119.344-.42.51-.898zm0 0" aria-label="J" style="fill:#000;fill-opacity:1;fill-rule:nonzero;stroke:none;stroke-width:2.55683" transform="translate(-117.986 -100.259)"></path><path d="m173.717 112.584 2.787-5.633 1.139.57-2.787 5.633zm0 0" aria-label="I" style="fill:#000;fill-opacity:1;fill-rule:nonzero;stroke:none;stroke-width:2.55683" transform="translate(-117.986 -100.259)"></path><path d="m176.512 113.985 3.625-5.124 1.019.72-1.588 2.276 3.685-.779 1.408.99-3.355.628-.18 4.555-1.349-.96.33-3.385-1.498.27-1.079 1.528zm0 0" aria-label="K" style="fill:#000;fill-opacity:1;fill-rule:nonzero;stroke:none;stroke-width:2.55683" transform="translate(-117.986 -100.259)"></path><path d="m181.957 118.202 4.375-4.494.899.869-4.375 4.494zm0 0" aria-label="I" style="fill:#000;fill-opacity:1;fill-rule:nonzero;stroke:none;stroke-width:2.55683" transform="translate(-117.986 -100.259)"></path><path d="m185.643 118.929.809.869q-.394.504-.45.929-.03.447.33.928c.24.315.487.51.75.57a.91.91 0 0 0 .718-.12.7.7 0 0 0 .21-.36q.052-.215-.058-.51c-.044-.141-.18-.471-.42-.988q-.393-.955-.36-1.528.054-.777.66-1.229c.254-.195.547-.299.868-.299q.505-.022.99.27c.336.18.658.464.958.839q.685.932.629 1.708c-.044.516-.285.958-.719 1.318l-.78-.959q.328-.361.33-.69c0-.24-.112-.493-.33-.778-.224-.3-.464-.487-.718-.57a.6.6 0 0 0-.39.09.54.54 0 0 0-.24.39q-.002.301.39 1.168c.278.577.435 1.034.48 1.378.036.337 0 .644-.12.929-.105.3-.299.57-.6.809-.298.217-.643.337-1.018.36q-.54.054-1.078-.24-.517-.306-.99-.96c-.479-.644-.711-1.243-.688-1.797q.053-.81.838-1.528zm0 0" aria-label="S" style="fill:#000;fill-opacity:1;fill-rule:nonzero;stroke:none;stroke-width:2.55683" transform="translate(-117.986 -100.259)"></path><path d="m188.572 126.914 4.674-2.307-.84-1.708.96-.48 2.187 4.495-.959.48-.809-1.649-4.674 2.308zm0 0" aria-label="T" style="fill:#000;fill-opacity:1;fill-rule:nonzero;stroke:none;stroke-width:2.55683" transform="translate(-117.986 -100.259)"></path><path d="m2.464-.005-.538.006-.218-.562-.975.002-.209.562L.001 0l.956-2.457.515-.011Zm-.919-.968-.325-.91-.343.902Zm0 0" aria-label="A" clip-path="url(#d)" style="fill:#000;fill-opacity:1;fill-rule:nonzero;stroke:none" transform="rotate(74.098 16.454 62.5)scale(2.55683)"></path><path d="M.258.006.256-2.46l.482-.004 1.008 1.64.002-1.644.458.007.002 2.466-.493-.008-.998-1.605v1.61Zm0 0" aria-label="N" clip-path="url(#e)" style="fill:#000;fill-opacity:1;fill-rule:nonzero;stroke:none" transform="scale(2.55683)rotate(86.236 6.887 22.51)"></path><path d="m190.834 151.76 5.903 2.158-1.469 4.015-1.018-.36 1.048-2.846-1.378-.51-.899 2.487-.989-.36.9-2.486-2.518-.929zm0 0" aria-label="F" style="fill:#000;fill-opacity:1;fill-rule:nonzero;stroke:none;stroke-width:2.55683" transform="translate(-117.986 -100.259)"></path><path d="M191.448 158.727c.54.36.936.727 1.199 1.109.194.276.337.584.42.928.074.36.09.697.028 1.02q-.123.628-.54 1.258c-.501.779-1.138 1.243-1.917 1.408-.779.157-1.595-.03-2.457-.57-.854-.56-1.378-1.228-1.558-2.007s-.014-1.55.48-2.307c.502-.801 1.138-1.28 1.917-1.438q1.168-.213 2.427.6zm-.659 1.109c-.6-.405-1.138-.562-1.618-.48-.479.097-.854.367-1.138.809-.277.42-.345.854-.21 1.318.12.457.494.884 1.109 1.289.6.397 1.123.554 1.588.479.479-.058.854-.315 1.138-.75.277-.464.36-.928.24-1.408-.12-.464-.494-.884-1.108-1.258zM186.916 165.364c.434.48.727.929.869 1.348.12.315.18.659.18 1.019s-.075.696-.21 1.019q-.27.539-.809 1.078-1.024.956-2.217.9-1.191-.036-2.247-1.14c-.697-.741-1.049-1.513-1.049-2.307 0-.801.344-1.52 1.019-2.157q1.024-.966 2.217-.899c.794.036 1.543.42 2.247 1.139zm-.959.929q-.719-.784-1.438-.84a1.56 1.56 0 0 0-1.288.48c-.36.337-.524.749-.51 1.228 0 .48.254.989.75 1.528.5.517.988.794 1.467.84.457.036.877-.12 1.259-.48q.561-.54.539-1.259c-.022-.479-.285-.981-.779-1.498zm0 0" aria-label="O" style="fill:#000;fill-opacity:1;fill-rule:nonzero;stroke:none;stroke-width:2.55683" transform="translate(-117.986 -100.259)"></path><path d="m177.792 168.952 2.757 4.434 1.618-1.018.569.898-4.255 2.667-.569-.899 1.588-.989-2.756-4.434zm0 0" aria-label="T" style="fill:#000;fill-opacity:1;fill-rule:nonzero;stroke:none;stroke-width:2.55683" transform="translate(-117.986 -100.259)"></path><path d="m176.197 177.072-2.337.929c-.457.18-.81.299-1.049.359q-.36.087-.719 0a1.5 1.5 0 0 1-.629-.33 1.37 1.37 0 0 1-.45-.6 1.37 1.37 0 0 1-.09-.838c.059-.285.203-.54.42-.78-.42.059-.764-.014-1.048-.209a1.7 1.7 0 0 1-.63-.749 2.3 2.3 0 0 1-.119-.869c.022-.284.112-.539.27-.779q.212-.362.659-.599c.202-.105.674-.3 1.408-.6l2.007-.778zm-1.588-.51-.54-1.378-.778.33c-.434.18-.697.299-.78.36q-.327.143-.419.388a.74.74 0 0 0-.029.54c.083.195.195.33.33.389q.212.111.57 0 .157-.033.988-.36zm-.929-2.337-.6-1.558-1.078.45c-.42.157-.674.269-.779.33a.76.76 0 0 0-.33.388c-.058.18-.043.375.03.6a.7.7 0 0 0 .299.36c.12.096.27.15.449.15.18 0 .54-.113 1.079-.33zm0 0" aria-label="B" style="fill:#000;fill-opacity:1;fill-rule:nonzero;stroke:none;stroke-width:2.55683" transform="translate(-117.986 -100.259)"></path><path d="m2.463 0-.547-.003-.198-.56L.73-.56l-.207.558L-.001 0l.963-2.459.512-.004Zm-.921-.975-.327-.903-.34.903Zm0 0" aria-label="A" clip-path="url(#f)" style="fill:#000;fill-opacity:1;fill-rule:nonzero;stroke:none" transform="rotate(169.88 21.787 38.829)scale(2.55683)"></path><path d="m.258-.001.004-2.44h.504L.767-.413H2L1.995 0zm0 0" aria-label="L" clip-path="url(#g)" style="fill:#000;fill-opacity:1;fill-rule:nonzero;stroke:none" transform="scale(-2.55683)rotate(2.675 614.183 -376.903)"></path><path d="m.253 0 .002-2.436.506-.001L.757-.411l1.23.004.003.41zm0 0" aria-label="L" clip-path="url(#h)" style="fill:#000;fill-opacity:1;fill-rule:nonzero;stroke:none" transform="matrix(-2.4853 -.60051 .60051 -2.4853 37.32 73.992)"></path><path d="m140.624 168.21-3.896 4.944-3.355-2.637.66-.869 2.366 1.858.9-1.138-2.068-1.619.689-.838 2.067 1.618 1.648-2.098zm0 0" aria-label="F" style="fill:#000;fill-opacity:1;fill-rule:nonzero;stroke:none;stroke-width:2.55683" transform="translate(-117.986 -100.259)"></path><path d="m136.212 164.577-4.735 4.135-3.056-3.506.81-.719 2.217 2.547 1.048-.899-2.067-2.367.809-.689 2.067 2.367 1.289-1.138-2.308-2.637.78-.69zm0 0" aria-label="E" style="fill:#000;fill-opacity:1;fill-rule:nonzero;stroke:none;stroke-width:2.55683" transform="translate(-117.986 -100.259)"></path><path d="m126.743 162.892-1.138-2.068c-.255-.442-.405-.794-.45-1.078a2.2 2.2 0 0 1 .058-1.109c.106-.36.3-.696.6-1.019q.427-.471 1.168-.899.697-.382 1.259-.51.721-.113 1.318.059.45.157.899.54.303.334.63.928l1.168 2.097zm.33-1.678 3.626-2.008-.45-.809c-.18-.314-.314-.539-.42-.66a1.35 1.35 0 0 0-.478-.329c-.158-.058-.375-.043-.66.03-.299.057-.666.209-1.108.448-.42.24-.719.465-.899.66q-.27.27-.36.599a.98.98 0 0 0 .03.689c.058.164.21.45.45.869zm0 0" aria-label="D" style="fill:#000;fill-opacity:1;fill-rule:nonzero;stroke:none;stroke-width:2.55683" transform="translate(-117.986 -100.259)"></path><path d="M.245 0 .241-2.462h1.824l.008.418-1.323.005-.003.538 1.238-.006-.006.426-1.238.006.008.664L2.12-.414l-.003.416zm0 0" aria-label="E" clip-path="url(#i)" style="fill:#000;fill-opacity:1;fill-rule:nonzero;stroke:none" transform="rotate(-106.781 25.85 22.9)scale(2.55683)"></path><path d="M.247 0 .245-2.46l1.06.002q.375 0 .557.074.18.064.285.238.112.165.106.386a.6.6 0 0 1-.159.456.9.9 0 0 1-.478.216c.095.055.18.128.252.21.07.077.163.21.282.39L2.459 0l-.6.004-.35-.55a4 4 0 0 0-.263-.352.4.4 0 0 0-.143-.107.7.7 0 0 0-.257-.023l-.094-.009L.753 0zm.505-1.425.365-.003q.352.01.437-.019a.23.23 0 0 0 .138-.093.5.5 0 0 0 .052-.184.32.32 0 0 0-.064-.206.4.4 0 0 0-.19-.111q-.049.009-.353.003H.749zm0 0" aria-label="R" clip-path="url(#j)" style="fill:#000;fill-opacity:1;fill-rule:nonzero;stroke:none" transform="scale(-2.55683)rotate(84.84 8.457 -11.504)"></path><path d="m2.46-.003-.54.005-.209-.568-.977.001-.204.562L0 0l.961-2.46.506-.002Zm-.918-.97-.313-.912-.347.905Zm0 0" aria-label="A" clip-path="url(#k)" style="fill:#000;fill-opacity:1;fill-rule:nonzero;stroke:none" transform="scale(2.55683)rotate(-84.436 10.741 6.188)"></path><path d="m.812.003.005-2.038-.74.002-.003-.423 1.95-.009.003.424-.727-.001-.005 2.038zm0 0" aria-label="T" clip-path="url(#l)" style="fill:#000;fill-opacity:1;fill-rule:nonzero;stroke:none" transform="rotate(-75.124 27.945 11.494)scale(2.55683)"></path><path d="m129.507 129.678-5.812-2.397.479-1.169 5.812 2.397zm0 0" aria-label="I" style="fill:#000;fill-opacity:1;fill-rule:nonzero;stroke:none;stroke-width:2.55683" transform="translate(-117.986 -100.259)"></path><path d="M127.77 125.573c-.54-.337-.944-.696-1.229-1.079a3.6 3.6 0 0 1-.42-.928 2.25 2.25 0 0 1-.058-1.02q.126-.628.51-1.258c.479-.794 1.108-1.288 1.888-1.468.778-.18 1.602 0 2.456.54q1.315.808 1.618 1.977c.195.764.058 1.528-.42 2.307q-.718 1.201-1.887 1.468c-.779.165-1.595-.014-2.457-.539zm.629-1.139c.621.382 1.183.532 1.677.45.48-.097.847-.367 1.11-.81a1.58 1.58 0 0 0 .179-1.317c-.142-.48-.524-.907-1.139-1.289q-.92-.564-1.618-.42-.684.126-1.108.78c-.277.464-.345.92-.21 1.378.142.442.51.854 1.109 1.228zm0 0" aria-label="O" style="fill:#000;fill-opacity:1;fill-rule:nonzero;stroke:none;stroke-width:2.55683" transform="translate(-117.986 -100.259)"></path><path d="m134.466 120.974-4.524-4.375.869-.869 4.824 1.049-3.026-2.906.809-.84 4.524 4.375-.869.9-4.734-1.02 2.936 2.847zm0 0" aria-label="N" style="fill:#000;fill-opacity:1;fill-rule:nonzero;stroke:none;stroke-width:2.55683" transform="translate(-117.986 -100.259)"></path><path d="M0 0v-3.362l-3.676-2.151h-4.075l-.2 2.264 1.431 1.181 2.037 1.115 2.791.827z" clip-path="url(#m)" style="fill:#e30613;fill-opacity:1;fill-rule:nonzero;stroke:none" transform="matrix(2.55683 0 0 -2.55683 40.875 10.52)"></path><path d="m0 0 .192-2.004s-.836-1.122-1.344-2.023c-.509-.902-1.047-2.179-1.047-2.179h-.92L-2.5-3.84l1.263 2.367z" clip-path="url(#n)" style="fill:#e30613;fill-opacity:1;fill-rule:nonzero;stroke:none" transform="matrix(2.55683 0 0 -2.55683 19.01 20.397)"></path><path d="M0 0v-3.254l3.452-2.264h4.302L7.8-3.123 5.624-1.542l-1.803.793-1.89.565Z" clip-path="url(#o)" style="fill:#e30613;fill-opacity:1;fill-rule:nonzero;stroke:none" transform="matrix(2.55683 0 0 -2.55683 42.762 10.508)"></path><path d="m0 0-.042-2.27S.777-3.3 1.373-4.335c.595-1.035.962-2.066.962-2.066h.948L2.84-4.533l-.714 1.574L1.09-1.212Z" clip-path="url(#p)" style="fill:#e30613;fill-opacity:1;fill-rule:nonzero;stroke:none" transform="matrix(2.55683 0 0 -2.55683 64.07 19.899)"></path><path d="m0 0-3.626-2.29 1.585-4.092h4l1.416 4.108z" clip-path="url(#q)" style="fill:#e30613;fill-opacity:1;fill-rule:nonzero;stroke:none" transform="matrix(2.55683 0 0 -2.55683 41.904 19.948)"></path><path d="m0 0-3.956-.042-1.492-4.417 2.462-3.934L.497-8.44s.454.946.988 2.064c.534 1.117.945 2.228.945 2.228s-.461 1.102-1.04 2.101C.81-1.048 0 0 0 0Zm-16.173-.073s-.808-1.119-1.337-2.027-1.064-2.122-1.064-2.122.362-1.293.693-2.186c.33-.894.987-2.126.987-2.126l4.234-.014 2.006 4.237-1.698 4.238z" clip-path="url(#r)" style="fill:none;stroke:#e30613;stroke-width:.272;stroke-linecap:butt;stroke-linejoin:miter;stroke-miterlimit:10;stroke-dasharray:none;stroke-opacity:1" transform="matrix(2.55683 0 0 -2.55683 62.407 26.094)"></path><path d="M0 0h-.736l-1.839-4.273-.581-3.831h1.289s.522.761.806 1.341c.284.579.594 1.443.594 1.443s.211.629.354 1.33c.142.701.184 1.316.184 1.316s.032.759.032 1.346C.103-.621 0 0 0 0Z" clip-path="url(#s)" style="fill:none;stroke:#009641;stroke-width:.272;stroke-linecap:butt;stroke-linejoin:miter;stroke-miterlimit:10;stroke-dasharray:none;stroke-opacity:1" transform="matrix(2.55683 0 0 -2.55683 72.063 37.712)"></path><path d="M0 0h-4.894l-.748-5.836 1.832-.361 3.143 2.225z" clip-path="url(#t)" style="fill:#009641;fill-opacity:1;fill-rule:nonzero;stroke:none" transform="matrix(2.55683 0 0 -2.55683 63.844 49.126)"></path><path d="M0 0h-1.519l-3.919-2.787-.077-1.459 1.188.504.902.509 1.305.913L-.603-.835z" clip-path="url(#u)" style="fill:#009641;fill-opacity:1;fill-rule:nonzero;stroke:none" transform="matrix(2.55683 0 0 -2.55683 67.013 59.962)"></path><path d="M0 0h-2.32l-2.179-4.669L-3-7.075l2.489 5.514zm-12.439 0h.615s.479-1.564.764-2.292.963-2.122.963-2.122.066-.925.198-1.826c.131-.901.325-1.768.325-1.768h-1.104s-1 1.649-1.326 2.886c-.264 1.001-.527 2.081-.541 3.155A15.5 15.5 0 0 0-12.439 0z" clip-path="url(#v)" style="fill:none;stroke:#009641;stroke-width:.272;stroke-linecap:butt;stroke-linejoin:miter;stroke-miterlimit:10;stroke-dasharray:none;stroke-opacity:1" transform="matrix(2.55683 0 0 -2.55683 43.196 37.712)"></path><path d="M0 0h-4.135s.087-.994.191-1.811c.095-.754.403-1.868.403-1.868L.241-6.197l1.895 2.858z" clip-path="url(#w)" style="fill:#009641;fill-opacity:1;fill-rule:nonzero;stroke:none" transform="matrix(2.55683 0 0 -2.55683 29.703 49.433)"></path><path d="M0 0h-1.401L.138-1.839 2.08-3.336l1.71-.847.515.858-.311.651Z" clip-path="url(#x)" style="fill:#009641;fill-opacity:1;fill-rule:nonzero;stroke:none" transform="matrix(2.55683 0 0 -2.55683 19.78 59.672)"></path><path d="M0 0c0-6.736-5.461-12.196-12.196-12.196-6.736 0-12.197 5.46-12.197 12.196s5.461 12.196 12.197 12.196S0 6.736 0 0Z" clip-path="url(#y)" style="fill:none;stroke:#ae8f00;stroke-width:.272;stroke-linecap:butt;stroke-linejoin:miter;stroke-miterlimit:10;stroke-dasharray:none;stroke-opacity:1" transform="matrix(2.55683 0 0 -2.55683 72.933 41.692)"></path><path d="M0 0s1.226 2.113 1.247 2.177c.021.063.679 1.21.679 1.21l.701.997s.127.382 0 .658c-.128.276-.191 1.295-.255 1.592s-.424 1.103-.573 1.209-.573.255-.807.595C.759 8.777.271 9.732.271 9.945s-.34.704-.467.861-.658 1.07-.7 1.452c-.043.382.042 2.992.106 3.672.063.679.148 1.485.276 1.804.127.318.085.933.276 1.188s.424.573.403.955a47 47 0 0 0-.064 1.571c0 .297-.106.658-.233.721-.128.064-.396.428-.488.213-.093-.215-.107-.219-.288-.321s-.54.023-.54.13c0 .106-.106.092-.149.258a.9.9 0 0 0 0 .357s-.23.219-.285.332.222.368.222.368.275.17.212.276-.297.255-.17.446.361-.149.467 0 .148.149.106.403c-.042.255-.127.451.064.502s.318-.014.488-.099c0 0 .021-.1.17.099.148.199.36.284.53.22s.234-.446.319-.319c.084.128.339.34.339.34s.276.021.319-.127c.042-.149.063-.276.127-.319s.339-.021.424-.063c.085-.043.17-.213.106-.319-.063-.106-.169-.339-.169-.339l.254-.064.234.021s.191-.127.191-.191c0-.063.212-.226.085-.325-.128-.099-.457-.079-.425-.248s.043-.262.043-.262.063-.247-.043-.29-.29-.15-.336-.287-.302-.286-.375-.127c-.074.16-.074.33-.159.287-.085-.042-.361-.106-.318-.042.042.063-.364.316-.288.062.075-.253.095-.198.203-.338.107-.141.106-.637.106-.807v-1.167s.34.127.382-.085.042-.339-.127-.403c-.17-.064-.425-.276-.213-.34.213-.063.382-.042.51-.106.127-.064 0-.212.148-.339.149-.128.106-.107.191-.234s.106-.382.106-.382-.106-.212-.127-.318c0 0 .106-.425 0-.552s-.446-.382-.446-.467-.127-.127.022-.318c.148-.191.297-.425.148-.51-.148-.085-.318-.276-.318-.403s0-.488.106-.658.403-1.125.403-1.443-.127-1.252-.042-1.358.636-.425.764-.595c.127-.169.382-.339.488-.467.106-.127.446-.318.573-.339s.722.17.934 0 .446-.306.446-.306.297-.119.36.136c.064.255 0 .297 0 .297l-.467.064s-.403.361-.382.509.17.425.17.425l.043.318s-.255-.011-.255.132v.377s.127.128.148.191c.022.064.064.382.064.382l.234.149.021.785-.17.977s-.042.53.212.339c.255-.191.411-.403.411-.403l.266.064.172.191v.36l.149.064.106.212.255.022.127.382h.488v-.298s.446 0 .446-.084v-.276s.382.063.382 0v-.446s.233 0 .297-.064l.064-.063s.191.212.233.275.318.149.361 0c.042-.148 0-.53 0-.53l-.191-.7s-.106-.298 0-.446.361-.467.424-.552c.064-.085.17-.552.128-.658s-.382-.25-.382-.25v-.556s-.361-.213-.34-.319 0-.866.064-1.006c.063-.14.17-.373.297-.543s.21-.34.37-.34.649.128.712.064a9 9 0 0 0 .276-.318s.403-.064.467-.128c.064-.063-.042-.382.106-.488.149-.106.616-.212.892-.53.275-.319.551-.955.551-.955s.276-.17.319-.234a5 5 0 0 0 .17-.424s.233-.043.254-.128.17-.403.17-.403-.021-.424.106-.573.212-.382.212-.382.276-1.04.361-1.189c.085-.148.255-.764.34-.955s-.064-.615-.17-.764c-.106-.148-.616-.551-.849-.573s-.806.022-1.04.276c-.233.255-.573.913-.658.998s-.382.233-.446.297c-.063.064-.318.424-.318.488s-.212.531-.212.531l-.191.339.085-1.231s-.064-1.125-.021-1.252.297-.594.36-.806c.064-.213.234-.786.234-.934s.1-.688.1-.688S9.461-.605 8.76-.783s-2.037-.474-2.589-.471c-.552.002-1.981.042-2.418.109s-1.362.245-1.8.383C1.516-.625 0 0 0 0" clip-path="url(#z)" style="fill:#fff;fill-opacity:1;fill-rule:nonzero;stroke:#ae8f00;stroke-width:.272;stroke-linecap:butt;stroke-linejoin:miter;stroke-miterlimit:10;stroke-dasharray:none;stroke-opacity:1" transform="matrix(2.55683 0 0 -2.55683 27.96 69.669)" data-source="https://football-logos.cc"></path><path d="M0 0s-.127.701-.976.7C-1.571.7-2.144.233-2.144 0c0 0 .743.227 1.072.227S0 0 0 0" clip-path="url(#A)" style="fill:#ae8f00;fill-opacity:1;fill-rule:nonzero;stroke:none" transform="matrix(2.55683 0 0 -2.55683 31.204 9.468)"></path><path d="M0 0c.064.17.191.467.541.424" clip-path="url(#B)" style="fill:#ae8f00;fill-opacity:1;fill-rule:nonzero;stroke:none" transform="matrix(2.55683 0 0 -2.55683 27.08 11.25)"></path><path d="m0 0 .095-.34-.201-.148s-.35-.011-.35 0 .371.242.371.242z" clip-path="url(#C)" style="fill:#ae8f00;fill-opacity:1;fill-rule:nonzero;stroke:none" transform="matrix(2.55683 0 0 -2.55683 29.383 11.25)"></path><path d="M0 0v.106S-.308.032-.52-.138s-.329-.509-.329-.509.276.265.425.376C-.276-.159 0 0 0 0" clip-path="url(#D)" style="fill:#ae8f00;fill-opacity:1;fill-rule:nonzero;stroke:none" transform="matrix(2.55683 0 0 -2.55683 31.448 20.963)"></path><path d="M0 0s-.308-.255-.52-.478-.488-.615-.467-.721.117-.106.244-.053c.128.053.158.063.249.212s-.015.371.07.456C-.34-.499 0 0 0 0" clip-path="url(#E)" style="fill:#ae8f00;fill-opacity:1;fill-rule:nonzero;stroke:none" transform="matrix(2.55683 0 0 -2.55683 31.448 23.622)"></path><path d="M0 0s.062-1.634.09-1.931.047-1.419 0-1.564C.042-3.64.011-3.82.159-3.788c.149.031.382.042.361.212s.066.562.001.859c-.065.298-.164 1.03-.226 1.412S.116-.159.09-.064 0 0 0 0" clip-path="url(#F)" style="fill:#ae8f00;fill-opacity:1;fill-rule:nonzero;stroke:none" transform="matrix(2.55683 0 0 -2.55683 29.956 28.777)"></path><path d="M0 0s.053.488-.117.637c-.169.148-.184.411-.384.29C-.7.806-.87.576-1.114.479s-.616-.086-.51-.171c.107-.085.542-.202.648-.117s.127.332.339.288.276-.065.425-.277.185-.361.22-.34C.042-.117 0 0 0 0" clip-path="url(#G)" style="fill:#ae8f00;fill-opacity:1;fill-rule:nonzero;stroke:none" transform="matrix(2.55683 0 0 -2.55683 31.99 41.204)"></path><path d="M0 0s.127-.785.064-1.008C0-1.231-.138-1.486-.255-1.549s-.371-.202-.52-.138c-.148.063-.382.223-.509.286-.127.064-.255.032-.18-.01.074-.043.52-.414.605-.435s.35-.096.541 0c.191.095.311.18.4.318.088.138.226.361.183.499-.042.138-.063.774-.116.891S0 0 0 0" clip-path="url(#H)" style="fill:#ae8f00;fill-opacity:1;fill-rule:nonzero;stroke:none" transform="matrix(2.55683 0 0 -2.55683 33.022 39.928)"></path><path d="M0 0s.562.18.743.658c.18.477.382 1.178.392 1.369s.011.598.266.463c.254-.134.509-.283.636-.76.128-.478.138-1.306.107-1.783-.032-.478 0-.669-.181-.934-.18-.265-.339-.53-.509-.509s-.388.01-.375.212.279.456.343.615c.064.16.35.835.318 1.192-.032.358.032.984-.074 1.164-.106.181-.286.361-.308.032C1.337 1.39 1.135.75.966.523.796.297.435-.159.255-.159.074-.159 0 0 0 0" clip-path="url(#I)" style="fill:#ae8f00;fill-opacity:1;fill-rule:nonzero;stroke:none" transform="matrix(2.55683 0 0 -2.55683 31.692 48.095)"></path><path d="M0 0s-.208-.789-.364-.909-.326-.428-.421-.449c-.096-.022-.064-.191 0-.244.063-.053.212-.319.244-.319s.223.149.318.329c.096.181.181.679.223.945S0 0 0 0" clip-path="url(#J)" style="fill:#ae8f00;fill-opacity:1;fill-rule:nonzero;stroke:none" transform="matrix(2.55683 0 0 -2.55683 35.382 45.626)"></path><path d="M0 0s.414-.541.955-.573.966-.032 1.114.053.266.053.266.053-.266-.35-.467-.393C1.666-.902 1.04-1.008.817-.966c-.223.043-.456.138-.605.425C.064-.255 0 0 0 0" clip-path="url(#K)" style="fill:#ae8f00;fill-opacity:1;fill-rule:nonzero;stroke:none" transform="matrix(2.55683 0 0 -2.55683 38.801 50.076)"></path><path d="M0 0c0-.053.626-1.092.955-1.517s.987-.987.987-.987-.499.732-.817 1.188C.806-.86.562-.371.424-.18S0 0 0 0" clip-path="url(#L)" style="fill:#ae8f00;fill-opacity:1;fill-rule:nonzero;stroke:none" transform="matrix(2.55683 0 0 -2.55683 40.32 42.913)"></path><path d="M0 0c-.028.027-.229.02-.25-.056-.022-.076.153-.299.236-.341s.406-.149.406-.149-.101.096-.197.212A3 3 0 0 0 0-.056Z" clip-path="url(#M)" style="fill:#ae8f00;fill-opacity:1;fill-rule:nonzero;stroke:none" transform="matrix(2.55683 0 0 -2.55683 41.972 42.077)"></path><path d="M0 0c.021-.053.287-.753.371-.838s.351-.51.393-.557.064.132.064.175-.435.594-.478.711A5 5 0 0 1 .096 0C.064.042 0 0 0 0" clip-path="url(#N)" style="fill:#ae8f00;fill-opacity:1;fill-rule:nonzero;stroke:none" transform="matrix(2.55683 0 0 -2.55683 44.526 44.107)"></path><path d="M0 0c-.036-.057-.312-.195-.252-.344s.284-.297.31-.315.086.143.074.189-.074.404-.074.404z" clip-path="url(#O)" style="fill:#ae8f00;fill-opacity:1;fill-rule:nonzero;stroke:none" transform="matrix(2.55683 0 0 -2.55683 40.986 38.473)"></path><path d="M0 0s-.223-.127-.265-.191-.021-.255 0-.318C-.244-.573-.021-.7 0-.711s0 .149 0 .149-.202.148-.202.206c0 .059.211.239.211.239z" clip-path="url(#P)" style="fill:#ae8f00;fill-opacity:1;fill-rule:nonzero;stroke:none" transform="matrix(2.55683 0 0 -2.55683 40.679 35.61)"></path><path d="M0 0s.403-.042.477-.064C.552-.085.711 0 .711 0S.764.318.658.318.106.191.106.191z" clip-path="url(#Q)" style="fill:#ae8f00;fill-opacity:1;fill-rule:nonzero;stroke:none" transform="matrix(2.55683 0 0 -2.55683 42.49 33.878)"></path><path d="m0 0 .775-.057s.085.206 0 .269S.318.329.318.329s-.244.064-.244 0A3 3 0 0 0 0 0" clip-path="url(#R)" style="fill:#ae8f00;fill-opacity:1;fill-rule:nonzero;stroke:none" transform="matrix(2.55683 0 0 -2.55683 45.828 33.905)"></path><path d="M0 0s.761-.041.708.033S.439.256.439.256Z" clip-path="url(#S)" style="fill:#ae8f00;fill-opacity:1;fill-rule:nonzero;stroke:none" transform="matrix(2.55683 0 0 -2.55683 44.343 35.699)"></path><path d="M0 0h.149S.35.142.403.151c.053.008.319 0 .319 0S.813.039.905.06s.188 0 .188 0-.015.195-.188.248-.666.053-.711 0S0 .152 0 .152Z" clip-path="url(#T)" style="fill:#ae8f00;fill-opacity:1;fill-rule:nonzero;stroke:none" transform="matrix(2.55683 0 0 -2.55683 43.848 37.27)"></path><path d="M0 0s.479.486.68.571.573.234.892.244c.318.011.774-.042 1.029-.169.255-.128.509-.467.509-.467v.229s-.18.407-.806.535c-.626.127-1.08.053-1.262 0S.428.688.225.444 0 0 0 0" clip-path="url(#U)" style="fill:#ae8f00;fill-opacity:1;fill-rule:nonzero;stroke:none" transform="matrix(2.55683 0 0 -2.55683 40.752 33.52)"></path><path d="m0 0 .074-.909s.223.028.276.124c.053.095.011.467 0 .509C.34-.233.188.085.188.085z" clip-path="url(#V)" style="fill:#ae8f00;fill-opacity:1;fill-rule:nonzero;stroke:none" transform="matrix(2.55683 0 0 -2.55683 48.704 34.556)"></path><path d="M0 0s-.065-.391-.16-.476-.502-.212-.622-.191c-.062.011-.257.131-.494.13-.224-.001-.489-.123-.592-.132-.213-.019-.446.061-.489.132s-.269.156-.269.156.057-.26.227-.401c.17-.14.382-.363.647-.363.266 0 .881-.021 1.019 0s.298.107.494.255.302.311.312.463S0 0 0 0" clip-path="url(#W)" style="fill:#ae8f00;fill-opacity:1;fill-rule:nonzero;stroke:none" transform="matrix(2.55683 0 0 -2.55683 48.392 37.382)"></path><path d="M0 0s-.292-.308-.271-.439c.021-.132.005-.28.135-.333s.342.006.4.104c.059.097.069.204 0 .342-.068.137-.121.18-.143.222A.4.4 0 0 1 0 0" clip-path="url(#X)" style="fill:#ae8f00;fill-opacity:1;fill-rule:nonzero;stroke:none" transform="matrix(2.55683 0 0 -2.55683 47.905 42.35)"></path><path d="M0 0s-.099.042-.198 0-.173-.435-.28-.573c-.106-.138-.371-.722-.371-.722h.17s.355.538.39.587c.034.05.183.252.289.379S0 0 0 0" clip-path="url(#Y)" style="fill:#ae8f00;fill-opacity:1;fill-rule:nonzero;stroke:none" transform="matrix(2.55683 0 0 -2.55683 49.925 44.948)"></path><path d="m0 0-1.532-.987s-.346-.124-.357-.269.064-.325.202-.251.339.255.477.372S0 0 0 0" clip-path="url(#Z)" style="fill:#ae8f00;fill-opacity:1;fill-rule:nonzero;stroke:none" transform="matrix(2.55683 0 0 -2.55683 52.394 46.223)"></path><path d="M0 0s-.127.135-.255.083C-.382.031-.679-.213-.764-.266s-.244-.286-.308-.307c-.063-.022.382-.025.536.072s.462.267.483.32S0 0 0 0" clip-path="url(#aa)" style="fill:#ae8f00;fill-opacity:1;fill-rule:nonzero;stroke:none" transform="matrix(2.55683 0 0 -2.55683 54.022 46.792)"></path><path d="M0 0s-.059-.446-.168-.807c-.108-.36-.363-1.103-.341-1.146s-.022-.594.116-.668.489-.223.711-.372c.223-.148.351-.413.457-.689s.191-.743.254-.807c.064-.063.181-.039.202.081.021.121.106.365 0 .598-.106.234-.297.51-.403.637s-.149.308-.085.393.201.488.138.636c-.064.149-.255.266-.403.457s-.245.689-.255.965S0 0 0 0" clip-path="url(#ab)" style="fill:#ae8f00;fill-opacity:1;fill-rule:nonzero;stroke:none" transform="matrix(2.55683 0 0 -2.55683 53.073 48.692)"></path><path d="M0 0s-.291.157-.365.147C-.44.138-.365 0-.365 0S.08-.34.123-.382s.254-.265.254-.265.17-.181.16-.064-.06.371-.06.371l.06.308S.503.074.477.074.155.021.155.021z" clip-path="url(#ac)" style="fill:#ae8f00;fill-opacity:1;fill-rule:nonzero;stroke:none" transform="matrix(2.55683 0 0 -2.55683 50.046 52.3)"></path><path d="M0 0s-.261-.467-.21-.584-.161-.446-.098-.488c.064-.043.212-.234.255-.265.042-.032.159-.202.233-.234s.351-.053.372 0 .085.327.063.339c-.021.011-.095.213-.169.287-.075.075-.21.202-.296.297A.9.9 0 0 0 0-.297Z" clip-path="url(#ad)" style="fill:#fff;fill-opacity:1;fill-rule:nonzero;stroke:none" transform="matrix(2.55683 0 0 -2.55683 53.181 51.323)"></path><path d="M0 0s-.19-.183-.179-.351c.01-.169-.085-.85-.096-.998l-.063-1.007v-.424l.116-.17s.075-.021.117 0 .053.265.053.265S.02-1.135 0-1.093s.076.541.076.584.01.276 0 .307z" clip-path="url(#ae)" style="fill:#ae8f00;fill-opacity:1;fill-rule:nonzero;stroke:none" transform="matrix(2.55683 0 0 -2.55683 47.209 51.026)"></path><path d="m0 0-.444-.976-.229-.42s.144-.017.176 0C-.466-1.38.009-.393 0-.361S0 0 0 0" clip-path="url(#af)" style="fill:#ae8f00;fill-opacity:1;fill-rule:nonzero;stroke:none" transform="matrix(2.55683 0 0 -2.55683 51.767 55.584)"></path><path d="m0 0-.539.205-.302.111h-1.263L-1.833 0l-.079-.442-.214-.318-.129-.212L0-1.05Z" clip-path="url(#ag)" style="fill:#ae8f00;fill-opacity:1;fill-rule:nonzero;stroke:none" transform="matrix(2.55683 0 0 -2.55683 52.644 59.962)"></path><path d="m0 0-.444.166h-.95v-.474l-.23-.286H0Z" clip-path="url(#ah)" style="fill:#fff;fill-opacity:1;fill-rule:nonzero;stroke:none" transform="matrix(2.55683 0 0 -2.55683 52.042 60.386)"></path><path d="m0 0-.533-.36-2.629-.011v.792s-.17.086-.17-.008c0-.095-.053-2.917-.053-2.917v-.52l-.944-2.155.942-.287.161 2.325.064 1.493H.319l-.17.237-.584-.022h-2.659v.835h2.686l.589.672z" clip-path="url(#ai)" style="fill:#ae8f00;fill-opacity:1;fill-rule:nonzero;stroke:none" transform="matrix(2.55683 0 0 -2.55683 45.122 58.432)"></path><path d="M0 0c-.199-.032-.488-.18-.478-.403s.16-.52.372-.52.446.223.424.461C.297-.223.115.018 0 0" clip-path="url(#aj)" style="fill:#ae8f00;fill-opacity:1;fill-rule:nonzero;stroke:none" transform="matrix(2.55683 0 0 -2.55683 46.344 59.355)"></path><path d="M861.935 495.381h5.624v-.149h-5.624z" clip-path="url(#ak)" style="fill:#ae8f00;fill-opacity:1;fill-rule:nonzero;stroke:none" transform="matrix(2.55683 0 0 -2.55683 -2165.967 1330.301)"></path><path d="m0 0-.244-.18-.149-.445.075-.149.122.207.111.314z" clip-path="url(#al)" style="fill:#ae8f00;fill-opacity:1;fill-rule:nonzero;stroke:none" transform="matrix(2.55683 0 0 -2.55683 59.177 51.923)"></path><path d="m0 0-.027-.039-.174-.259-.085-.286.143-.127.186.265h.202v.223S-.022-.276 0-.233 0 0 0 0" clip-path="url(#am)" style="fill:#ae8f00;fill-opacity:1;fill-rule:nonzero;stroke:none" transform="matrix(2.55683 0 0 -2.55683 56.354 54.661)"></path><path d="m0 0-.095-1.071-.054-.618.308-.518.499-.563s.456-.116.541-.148.403.074.541.148c.138.075.382.213.276.361-.106.149-.223.474-.445.72a7 7 0 0 1-.624.575v.18s.273.382.326.488.128.329.128.393-.011.456-.011.456L1.189.318s.084-.413.042-.488C1.189-.244.96-.626.947-.669S.87-.977.764-.993c-.106-.015-.276-.066-.393-.078S.159-1.098.117-1s-.064.83-.064.83Z" clip-path="url(#an)" style="fill:#ae8f00;fill-opacity:1;fill-rule:nonzero;stroke:none" transform="matrix(2.55683 0 0 -2.55683 57.224 56.615)"></path><path d="M0 0s-.112-.049-.167-.118-.215-.285-.183-.331-.074-.1-.074-.1.01.108 0 .224C-.435-.208-.212 0-.212 0Z" clip-path="url(#ao)" style="fill:#ae8f00;fill-opacity:1;fill-rule:nonzero;stroke:none" transform="matrix(2.55683 0 0 -2.55683 60.073 53.071)"></path><path d="m0 0 .04-.233h.127l.107.073v.224Z" clip-path="url(#ap)" style="fill:#ae8f00;fill-opacity:1;fill-rule:nonzero;stroke:none" transform="matrix(2.55683 0 0 -2.55683 59.645 54.064)" data-source="https://football-logos.cc"></path><!-- source: https://football-logos.cc --></svg>