<svg xmlns="http://www.w3.org/2000/svg" viewBox="35.18 11.66 186.65 234.33"><!-- Source: https://football-logos.cc --><path fill="#f25037" d="m35.589 11.664 186.238.225-.072 100.6c-2.828 39.153-18.632 64.02-22.04 69.656-26.739 44.223-72.61 63.85-72.61 63.85s-39.62-18.784-63.75-53.991C60.433 187.74 36.2 159.473 35.18 111.6z" style="fill:#c6151b" data-source="https://football-logos.cc"></path><path fill="#fff" d="m40.049 16.032 177.263.417-.017 97.18c-2.059 39.055-21.714 67.752-23.822 70.812-27.982 40.627-66.08 56.517-66.08 56.517s-36.57-16.32-62.43-53.506c-1.987-2.857-23.064-29.888-25.48-70.532z"></path><path fill="#fff" d="M86.627 176.733s2.47-2.28 3.42-3.99 1.33-2.754.19-6.079c-.856-2.497-11.92-13.345-13.68-15.199-3.61-3.8-3.42-8.36-3.42-8.36s-1.424 2.471-2.28 7.41c-.942 5.446-.717 5.41-.949 7.41 0 0-.76.095-4.56-.95-4.054-1.116-4.75-1.9-4.75-1.9s-.782 3.381 1.9 8.17c4.846 8.644 6.08 9.499 6.08 9.499s10.76-10.007 11.97-9.69c3.989 1.045.76 4.559 6.113 8.716 1.866 1.45 3.386.974 3.386.974z"></path><path fill="#231f20" d="M90.512 173.075c-1.017 1.784-3.49 4.068-3.497 4.075l-.82-.786 2.596-3.029c-.68-.101-1.55-.393-2.479-1.115-2.94-2.284-3.43-4.38-3.815-6.024-.292-1.247-.51-2.177-2.092-2.591-.912-.24-11.41 9.527-11.44 9.555l-.345.321-.38-.28c-.005-.004-1.334-.928-6.237-9.679-2.79-4.977-1.963-8.554-1.96-8.565l.227-1.072.745.802c.002.002.589.669 4.483 1.74 2.226.613 3.354.824 3.9.896.03-.304.048-.564.067-.828.075-1.05.154-2.159.831-6.075.872-5.036 2.34-7.583 2.345-7.59l1.151-2.072-.086 2.368c0 .012-.18 4.322 3.263 7.947.312.33.896.919 1.656 1.688 3.667 3.71 11.391 11.524 12.147 13.715l.001.004h.002c.598 1.741.795 2.905.718 3.874a4.8 4.8 0 0 1-.358 1.474zm-.837-.837c.371-.685.626-1.268.683-1.973.064-.811-.118-1.834-.66-3.416v-.007c-.678-1.947-8.275-9.633-11.883-13.284-.774-.783-1.369-1.384-1.67-1.7-2.15-2.264-3.01-4.79-3.353-6.548-.44 1.2-.969 2.964-1.373 5.3-.669 3.867-.746 4.944-.818 5.965-.03.42-.06.832-.127 1.414l-.055.47-.47.034c-.003 0-.85.102-4.75-.97-2.154-.593-3.416-1.118-4.136-1.49-.05 1.234.142 3.738 1.932 6.933 3.453 6.16 5.003 8.282 5.6 8.987 1.998-1.835 10.59-9.798 11.925-9.448 2.25.589 2.705 1.803 3.086 3.434.343 1.469.783 3.344 3.405 5.381 1.235.96 2.244.97 2.664.918"></path><path fill="#fff" d="M169.215 177.018s-2.47-2.28-3.42-3.99-1.33-2.754-.19-6.08c.856-2.496 11.919-13.344 13.679-15.197 3.61-3.8 3.42-8.36 3.42-8.36s1.424 2.47 2.28 7.409c.943 5.446.719 5.41.95 7.41 0 0 .76.095 4.56-.95 4.054-1.116 4.749-1.9 4.749-1.9s.784 3.381-1.9 8.17c-4.846 8.644-6.079 9.499-6.079 9.499s-10.761-10.007-11.97-9.69c-3.989 1.045-.76 4.558-6.114 8.716-1.865 1.45-3.385.974-3.385.974z"></path><path fill="#231f20" d="M168.827 177.435c-.007-.007-2.482-2.292-3.499-4.076l-.623-1.246a4.9 4.9 0 0 1-.357-1.474c-.076-.968.121-2.13.719-3.873h.001l.001-.005c.756-2.19 8.483-10.007 12.15-13.717.758-.768 1.341-1.357 1.653-1.686 3.444-3.625 3.264-7.935 3.264-7.947l-.087-2.368 1.151 2.072c.004.007 1.473 2.555 2.345 7.59.678 3.917.758 5.024.831 6.075.019.264.037.524.065.828.547-.072 1.676-.283 3.903-.896 3.895-1.071 4.481-1.737 4.483-1.74l.744-.802.229 1.072c.001.01.83 3.588-1.961 8.565-4.903 8.75-6.234 9.675-6.236 9.678l-.382.282-.345-.322c-.03-.028-10.528-9.794-11.439-9.555-1.582.414-1.801 1.343-2.092 2.591-.385 1.644-.876 3.74-3.816 6.024-.929.722-1.798 1.014-2.478 1.115l2.596 3.029zm-3.343-6.886c.056.706.31 1.288.681 1.974.42.052 1.431.042 2.666-.918 2.621-2.036 3.061-3.912 3.405-5.382.381-1.63.665-2.844 2.916-3.433 1.333-.35 10.096 7.612 12.093 9.447.598-.705 2.15-2.827 5.602-8.986 1.789-3.195 1.981-5.699 1.93-6.932-.72.371-1.981.896-4.134 1.488-3.9 1.073-4.748.97-4.75.97l-.472-.033-.053-.47a28 28 0 0 1-.127-1.414c-.072-1.021-.15-2.1-.818-5.964-.404-2.338-.935-4.101-1.374-5.301-.342 1.758-1.204 4.284-3.353 6.547-.3.316-.893.917-1.668 1.7-3.607 3.65-11.207 11.337-11.884 13.286v.003c-.543 1.583-.725 2.606-.66 3.418" data-source="https://football-logos.cc"></path><path fill="#231f20" d="M74.76 38.805h107.43l.005 1.135.337 72.341.001.022a37 37 0 0 1-.06 4.097 59 59 0 0 1-.522 4.777c-1.292 8.675-4.66 20.098-10.418 32.246-12.921 27.268-41.984 44.567-42.067 44.617l-.557.335-.574-.312c-.077-.042-26.693-14.364-41.436-41.262l-.13-.235c-1.878-3.411-11.682-21.209-12.797-42.845v-.054l-.348-73.718-.006-1.144zm2.417 82.215.428.14.006.855.714.137.296 1.71 3.063.05.205-1.497 1.14-.008.132-1.426 1.425-.009.295 1.423 1.14-.007.159 2.564 1.353.062.064-1.211 1.924-.014.126-2.422 1.212-.008.058-1.996.855.066.011 1.71.86.636.998.064-.025-3.776 1.425-.008.191-3.351s.427-.145 1.068-.15l1.14-.007.1-6.484s.067-.57.708-.646.645.495.645.495l.111 6.127s2.495.197 2.992-.02c.498-.218 4.189-2.236 4.756-2.81.283-.288.488-1.57.488-1.57s1.333.025 2.063-.512c.78-.576.77-2.143.77-2.143l2.492-.23 2.69-2.654.242-6.485 1.282-.151.364-9.621 1.276-1.006.074-10.473.567-.503.275-12.398 1.42-.794.61-4.848 2.411-1.584.63-1.928.777-.86.277-1.141-.293-1.352.56-1.428.636-.859.735-7.414s2.422-.159 2.636-.018c.215.142.746 4.982.746 4.982l.549.542.538 2.3.254 2.636.012 1.71.87 2.178 2.677 2.928.597 4.08 1.432 1.131.555 12.061.67.946.354 10.542.768 1.135.437 8.832 1.524.465.139 6.744.665.186 1.822 2.362 2.66.172.39 1.423.858.47.1.663 1.425.182.583 1.896 4.48 2.345 3.418-.021-.134-6.27 1.138-.008.331 6.743 2.09-.013.303 3.132 1.427.086.215 3.798.856.09-.004-.57.474-.003.275-1.521.857.184.311 4.082 1.521-.009.364-2.188.667.09.588 2.752 1.708-.106.179-1.807 1.137-.386.087-1.427 1.044-.007s.009 1.426.293 1.424c.285-.002.953.374.953.374l.199 1.328 3.135-.02-.106-1.52 1.14-.198.234-.305q.084-.508.158-1.004c.246-1.648.412-3.183.506-4.59.092-1.417.112-2.706.06-3.857l-.002-.021v-.044l-.332-71.252H75.9l.343 72.521c.128 2.48.374 4.907.71 7.268z"></path><path fill="#fff" d="M79.54 163.53s-15.463 11.434-16.148 13.488c-.95 2.85 18.242 42.39 65.165 41.798 45.218-.57 64.558-37.276 64.026-40.467-.38-2.28-15.959-14.44-15.959-14.44s-9.785 32.856-48.732 33.154c-37.332.284-48.351-33.533-48.351-33.533"></path><path fill="#231f20" d="M79.264 164.443c-2.86 2.132-14.78 11.094-15.333 12.753v.002a.5.5 0 0 0-.005.094c.022 1.736 3.095 8.65 9.664 16.372 6.606 7.766 16.728 16.258 30.808 20.953 7.04 2.347 15.072 3.746 24.153 3.63a78.7 78.7 0 0 0 11.962-1.05c17.926-2.988 30.83-11.845 39.248-20.398 8.374-8.506 12.287-16.6 12.264-18.314v-.001l-.004-.042c-.301-1.814-12.216-11.303-15.114-13.589-1.776 4.996-13.168 32.503-49.012 32.777-34.525.263-46.767-28.243-48.631-33.187m-16.41 12.396c.75-2.23 16.304-13.733 16.348-13.766l.628-.463.25.737c.031.096 10.892 33.429 47.81 33.148 38.525-.294 48.162-32.66 48.191-32.753l.182-.6.71.444c.046.035 15.755 12.173 16.171 14.67q.015.092.017.216v.003c.02 1.858-3.994 10.39-12.589 19.122-8.552 8.688-21.663 17.687-39.872 20.723a80 80 0 0 1-12.136 1.063c-9.215.117-17.37-1.304-24.522-3.689-14.315-4.773-24.603-13.403-31.317-21.295-6.75-7.936-9.911-15.218-9.934-17.094q-.004-.27.062-.467z"></path><path fill="#fff" d="M96.8 144.053h-6.59v-9.806h2.032v8.204H96.8zm5.066.158q-2.134 0-3.322-1.464-1.188-1.466-1.188-3.622 0-2.14 1.262-3.58c1.262-1.44 1.953-1.44 3.335-1.44q2.086 0 3.298 1.44c1.212 1.44 1.212 2.161 1.212 3.602q0 2.27-1.259 3.668-1.26 1.396-3.338 1.396m.016-1.422q1.043.001 1.765-.79.72-.79.721-2.866 0-1.688-.596-2.647-.596-.96-1.851-.96-2.478 0-2.479 3.657 0 1.775.631 2.69.632.916 1.809.916m14.465 1.264h-1.874l-4.064-6.264-.306-.468q-.095-.144-.29-.452v7.184h-1.553v-9.806h2.134l3.75 5.776.681 1.056v-6.832h1.522zm10.48-5.007v5.015h-.855l-.588-1.322q-.933 1.472-2.895 1.472-2.19 0-3.267-1.522-1.078-1.523-1.078-3.527 0-2.12 1.203-3.589c1.203-1.469 1.926-1.469 3.37-1.469q1.616 0 2.66.86 1.043.857 1.317 2.136l-1.678.273q-.471-1.796-2.252-1.796-1.138 0-1.855.848-.718.847-.718 2.607 0 3.714 2.542 3.714.988 0 1.635-.625c.647-.625.648-.967.648-1.652h-2.213v-1.423zm4.163 5.007h-1.984v-9.806h6.77v1.516h-4.785v2.679h3.765v1.473h-3.765zm9.805.158q-2.134 0-3.322-1.464-1.188-1.466-1.188-3.622 0-2.14 1.263-3.58t3.333-1.44q2.087 0 3.299 1.44c1.212 1.44 1.212 2.161 1.212 3.602q0 2.27-1.259 3.668-1.26 1.396-3.338 1.396m.017-1.422q1.042.001 1.764-.79.721-.79.721-2.866 0-1.688-.596-2.647-.596-.96-1.85-.96-2.48 0-2.479 3.657 0 1.775.63 2.69.633.916 1.81.916m14.724 1.264h-2.04l-1.664-4.03h-2.713v4.03h-1.931v-9.806h4.644q1.938 0 2.848.8.91.802.91 2.073 0 1.89-1.93 2.601zm-6.417-5.446h2.4q1.043 0 1.553-.402.51-.403.51-1.107 0-.647-.502-1.044-.502-.4-1.404-.4h-2.557zm8.334 5.446v-9.806h3.946q2.19 0 3.514 1.419 1.326 1.419 1.327 3.502c.001 2.083-.456 2.55-1.365 3.484q-1.367 1.4-3.907 1.4zm1.986-1.444h1.608q1.293 0 2.196-.891.902-.892.902-2.65 0-1.439-.789-2.433c-.789-.994-1.22-.994-2.083-.994h-1.834zm-47.703 19.004h-2.07v-8.29h-2.849v-1.516h7.767v1.515h-2.848zm7.732.158q-2.133 0-3.322-1.465c-1.189-1.465-1.188-2.184-1.188-3.62q0-2.142 1.263-3.581t3.334-1.441q2.085 0 3.298 1.44c1.213 1.44 1.212 2.162 1.212 3.603q0 2.27-1.259 3.668-1.26 1.396-3.338 1.396m.016-1.422q1.044 0 1.765-.79t.722-2.866q0-1.688-.596-2.647-.597-.96-1.852-.96-2.478 0-2.479 3.657 0 1.774.632 2.69.63.916 1.808.916m18.989-8.542-2.864 9.806h-2.024l-2.133-7.213-1.938 7.213h-1.984l-2.926-9.806h2.047l2.07 7.148 1.931-7.148h1.953l2.134 7.148 2.032-7.148zm9.417 9.806h-1.874l-4.064-6.265-.305-.467q-.095-.144-.291-.452v7.184h-1.553v-9.806h2.134l3.75 5.775.682 1.056v-6.831h1.522zm-28.806 17.559H117.1v-9.805h6.77v1.515h-4.785v2.68h3.766v1.472h-3.766zm6.741-1.879v1.882h-1.937v-1.882zm8.123-1.518 1.788.18q-.173 1.473-1.243 2.425t-2.813.951q-1.468 0-2.38-.675-.915-.675-1.409-1.831-.495-1.156-.494-2.55 0-2.242 1.16-3.646 1.162-1.405 3.194-1.405 1.591 0 2.652.898 1.057.899 1.333 2.571l-1.788.173q-.495-2.22-2.181-2.22-1.084 0-1.683.924-.6.923-.6 2.675 0 1.782.643 2.691c.643.909.996.909 1.702.909q.847 0 1.443-.611c.596-.611.623-.893.676-1.459m5.042 1.518v1.882h-1.938v-1.882z"></path><path fill="#f25037" d="M91.169 190.938a56 56 0 0 0 3.489 2.576l-.631.775a58 58 0 0 1-2.872-2.084q-1.11 1.188-2.208 2.378a62 62 0 0 0 3.06 2.207l-.623.777a63 63 0 0 1-3.118-2.244 496 496 0 0 0-3.411 3.752 80 80 0 0 1-.821-.633 506 506 0 0 1 7.135-7.504m5.795 6.912c.875.501 1.379 1.243 1.549 2.265.152.931-.011 1.848-.527 2.745a4.03 4.03 0 0 1-2.302 1.88c-1.03.34-2.065.232-3.067-.335-1.006-.57-1.602-1.386-1.756-2.403-.155-1.018.106-1.943.744-2.78.632-.83 1.455-1.37 2.438-1.654 1.083-.314 2.042-.221 2.92.283zm-.534.788c-.614-.35-1.304-.419-2.094-.207a3.46 3.46 0 0 0-1.941 1.324 2.95 2.95 0 0 0-.575 1.424q-.088.773.258 1.423a2.6 2.6 0 0 0 1.033 1.04 2.8 2.8 0 0 0 1.46.374 2.85 2.85 0 0 0 1.465-.44q.689-.425 1.1-1.12c.428-.715.558-1.447.415-2.19-.145-.743-.511-1.28-1.121-1.628m4.741 1.607q.385.18.772.357a498 498 0 0 0-1.612 3.075q-.585 1.126-.682 1.605-.132.688.212 1.27c.232.387.592.685 1.078.885s.953.248 1.394.147a2.03 2.03 0 0 0 1.097-.657q.296-.346.84-1.62.68-1.587 1.371-3.17.394.148.79.292a586 586 0 0 0-1.386 3.348c-.386.942-.78 1.613-1.194 2.01a2.75 2.75 0 0 1-1.458.744c-.558.098-1.178.012-1.847-.265-.67-.275-1.163-.649-1.473-1.106a2.4 2.4 0 0 1-.417-1.53q.048-.846.802-2.238.85-1.576 1.713-3.147m7.012 2.788q.399.131.798.256l-.446 1.244q.738-.564 1.432-.744a2.6 2.6 0 0 1 1.369.001 2.06 2.06 0 0 1 1.109.72q.425.539.505 1.283.08.747-.293 2.196a835 835 0 0 0-.938 3.655q-.46-.105-.918-.217.455-1.688.918-3.374.337-1.221.365-1.652.06-.734-.236-1.188c-.2-.303-.508-.511-.932-.628-.485-.132-.976-.077-1.485.166a2.95 2.95 0 0 0-1.232 1.094q-.302.48-.785 1.85-.447 1.27-.889 2.543-.454-.141-.906-.29 1.26-3.46 2.564-6.915m13.695.007q-.562 5.04-1.096 10.082-.465-.045-.93-.097l.15-1.248q-.653.653-1.422.915a3.4 3.4 0 0 1-1.624.135c-1.012-.155-1.81-.677-2.356-1.545-.547-.868-.68-1.831-.437-2.88a4.15 4.15 0 0 1 1.579-2.444c.803-.61 1.63-.843 2.523-.707.515.078.96.268 1.344.574q.576.46.968 1.275.257-2.07.52-4.14.39.043.78.08zm-3.695 3.118a2.4 2.4 0 0 0-1.33.177 2.93 2.93 0 0 0-1.145.895c-.327.412-.55.869-.66 1.377a3 3 0 0 0 .061 1.512q.226.76.79 1.255c.564.495.811.532 1.3.606q.742.11 1.459-.188.715-.3 1.147-.92c.29-.411.464-.893.53-1.443.102-.837-.066-1.564-.48-2.185-.416-.622-.966-.98-1.672-1.086m10.667 4.858q.379.201.76.398-.344.772-.83 1.249a3.3 3.3 0 0 1-1.112.722q-.625.244-1.42.23c-1.17-.021-2.073-.456-2.67-1.273a3.9 3.9 0 0 1-.762-2.702 4.36 4.36 0 0 1 .954-2.42c.702-.881 1.553-1.3 2.597-1.28 1.076.021 1.932.484 2.616 1.415.485.658.764 1.48.809 2.48a67 67 0 0 1-6.077-.077c-.039.843.17 1.55.642 2.113.473.563 1.091.856 1.837.871q.54.011 1.05-.179t.862-.51q.353-.321.744-1.037m-.027-1.976q-.188-.746-.515-1.188a2.46 2.46 0 0 0-.85-.718 2.4 2.4 0 0 0-1.091-.285c-.631-.013-1.178.197-1.66.635q-.526.477-.853 1.461 2.483.141 4.97.095m8.136-6.472q.925 4.995 1.804 9.991-.465.075-.927.142l-.201-1.242q-.452.794-1.12 1.242c-.668.448-.956.48-1.528.54-1.015.106-1.922-.198-2.685-.897s-1.158-1.595-1.22-2.666c-.062-1.05.225-1.963.818-2.753.594-.789 1.32-1.222 2.216-1.318a2.87 2.87 0 0 1 1.459.215c.459.2.888.526 1.297.984a1507 1507 0 0 0-.69-4.118zm-2.661 3.935a2.32 2.32 0 0 0-1.228.505 2.8 2.8 0 0 0-.84 1.15 3.2 3.2 0 0 0-.244 1.494c.038.512.194.994.48 1.443q.428.675 1.106 1.01c.45.224.926.31 1.415.256q.746-.078 1.355-.548.605-.47.85-1.177.245-.705.108-1.525c-.138-.833-.506-1.49-1.084-1.984-.577-.495-1.21-.7-1.918-.624m8.756-4.989a64 64 0 0 0 1.557-.445 644 644 0 0 1 3.207 9.42q-.468.14-.935.272a676 676 0 0 0-2.752-8.542q-.635.18-1.275.348.104-.526.198-1.053m10.335 7.324q-.489-.094-.973-.197a59 59 0 0 0 .726-4.69 2.7 2.7 0 0 1-.8.524c-.683.277-1.386.24-2.083-.11-.697-.351-1.196-.92-1.517-1.695a3.46 3.46 0 0 1-.279-1.55q.049-.755.45-1.353c.27-.4.614-.686 1.045-.862.422-.175.87-.22 1.353-.138q.722.122 1.376.617c.436.332.788.735 1.048 1.217q.297.547.412 1.241c.115.694.085 1.056.012 1.785a59 59 0 0 1-.77 5.211m-1.22-5.246a1.61 1.61 0 0 0 .974-1.08c.153-.514.09-1.029-.179-1.546-.268-.518-.661-.885-1.169-1.112s-.984-.247-1.439-.06c-.452.186-.749.524-.906 1.025s-.127 1.014.104 1.547c.232.532.596.923 1.108 1.165.51.24 1.016.263 1.506.061m3.741-3.697q-.385.195-.773.385c-.469-.873-.614-1.705-.46-2.498s.564-1.368 1.25-1.75c.68-.376 1.394-.444 2.168-.204a3.6 3.6 0 0 1 1.894 1.35q.511.7.63 1.512c.076.543.046 1.355-.13 2.443a53 53 0 0 1-.696 3.473 69 69 0 0 0 4.039-2.283l.56.791a71 71 0 0 1-6.065 3.3q.744-2.657 1.201-5.294c.187-1.064.233-1.817.188-2.262a2.54 2.54 0 0 0-.463-1.224 2.35 2.35 0 0 0-1.328-.932c-.553-.156-1.052-.108-1.51.146a1.65 1.65 0 0 0-.872 1.2q-.156.806.366 1.847m6.876-8.34.139-.106a500 500 0 0 1 4.87 5.316q.48-.362.954-.735l.676.72a60 60 0 0 1-.972.747 407 407 0 0 1 1.596 1.782 81 81 0 0 1-.83.615 374 374 0 0 0-1.562-1.805 67 67 0 0 1-3.921 2.662 51.5 51.5 0 0 0-.95-9.196m4.227 5.793a515 515 0 0 0-2.855-3.243q.361 2.414.496 4.894a66 66 0 0 0 2.359-1.651" style="fill:#c6151b" data-source="https://football-logos.cc"></path><!-- source: https://football-logos.cc --></svg>