<svg xmlns="http://www.w3.org/2000/svg" viewBox="78.05 37.78 1195.34 1167.69"><!-- Source: https://football-logos.cc --><path fill="#d41c0c" fill-rule="evenodd" d="m1152.06 920.94-31.29 1.24q10.98-15.57 18.4-27.28 63.4-100.15 79.07-216.65c13.16-97.84-.63-196.85-40.08-287.15-42.75-97.87-114.05-181.2-203.42-239.33Q864.43 80.03 732.51 66.04q-40.93-4.34-76.25-2.69-26.53 1.24-41.78 3.01-129.45 14.99-236.62 84.26c-90.64 58.58-162.47 142.33-205.55 241.22-39.84 91.47-53.59 193.57-39.03 292.17q17.78 120.31 85.54 221.69 5.56 8.33 11.75 17.31l-31.19-1.23q-3.95-5.37-9-13.35-53.13-83.98-74.34-179.17c-19.6-87.97-17.92-180.62 5.4-267.91 45.93-171.92 171.51-313.04 336.33-380.66 86.3-35.4 181.74-49.54 274.61-40.01q115.54 11.86 215.97 66.24c130.21 70.51 230.04 189.49 274.36 331.34 29.26 93.62 33.43 193.78 12.31 289.78q-20.66 93.92-72.57 177.14-5.81 9.33-10.39 15.76" data-source="https://football-logos.cc"></path><path fill="#f7df0e" fill-rule="evenodd" d="M1120.77 922.18q-.81-.15-2.15.19a.922.437 19.645 0 1-.2.02L963.1 929.4a.576.575-66.686 0 1-.4-1.01q35.12-30.57 63.13-68.81 57.09-77.95 75.15-172.62c1.42-7.44 2.06-13.51 3.18-20.15q1.02-6.04 1.9-15.16 3.56-36.68.85-74.78-1.02-14.31-3.22-28.54-2.46-15.95-5.09-28.25-10.28-48.02-32.13-93.34-14.52-30.12-32.13-55.85C965.08 269.68 854.9 201.74 733.02 186.48c-87.34-10.94-175.04 4.36-253.16 44.94-94.4 49.02-168.48 132.17-205.22 232.15Q240 557.84 251.63 659.26q4.52 39.43 16.8 77.82c22.4 70.03 61.93 131.62 115.26 181.98q5.93 5.6 10.38 9.42a.287.28 58.272 0 1-.11.49q-2.02.52-3.97.4-22.7-1.36-32.49-1.6c-17.49-.44-31.94-1.27-48.34-1.71q-21.86-.59-43.67-1.56-17.71-.79-34.92-1.49-6.19-8.98-11.75-17.31-67.76-101.38-85.54-221.69c-14.56-98.6-.81-200.7 39.03-292.17 43.08-98.89 114.91-182.64 205.55-241.22q107.17-69.27 236.62-84.26 15.25-1.77 41.78-3.01 35.32-1.65 76.25 2.69 131.92 13.99 242.23 85.73c89.37 58.13 160.67 141.46 203.42 239.33 39.45 90.3 53.24 189.31 40.08 287.15q-15.67 116.5-79.07 216.65-7.42 11.71-18.4 27.28M604.69 124.67l5.71-.69a.836.836-27.553 0 1 .93.73l4.33 35.61a.645.645 77.358 0 0 .72.56l10.93-1.33a.855.846-6.999 0 0 .75-.95l-4.29-35.34a.777.775 83.056 0 1 .68-.87l7.22-.88a1.14 1.14-88.975 0 0 .99-1.27l-.95-7.84a.887.887 69.417 0 0-.99-.77l-7.1.86a1.382 1.379-8.007 0 1-1.53-1.15c-1.41-8.92 2.38-8.83 9.47-9a.81.81 7.321 0 0 .79-.79l.16-7.13a.595.586 5.747 0 0-.49-.59c-8.05-1.45-21.9-.37-22.6 10.36q-.26 4.02.45 8.67a1.513 1.513-3.676 0 1-1.53 1.74l-3.45-.08a1.538 1.536 87.24 0 0-1.56 1.72l.99 8.14a.33.33-7.8 0 0 .37.29m171.39-5.64 2.52-13.94a1.019 1.017 84.441 0 0-1.37-1.13l-10.68 4.18a2.96 2.939-7.547 0 0-1.86 2.41l-.66 5.74a1.076 1.07-87.834 0 1-1.03.96q-1.88.08-4.14-.5a.788.785 12.312 0 0-.97.62l-1.45 8.06a1.136 1.134-85.438 0 0 1.14 1.34q2.3-.05 3.1.47a2.003 2.001 21.36 0 1 .89 2.03q-2.49 13.77-4.08 23.73c-.49 3.13-.69 7.95 1.92 10.42q2.38 2.24 4.34 2.88 5.09 1.66 11.89 1.34a1.842 1.831.165 0 0 1.75-1.73l.37-6.46a1.592 1.582 3.25 0 0-1.5-1.67l-4.41-.25a1.396 1.392-7.68 0 1-1.25-.95q-.77-2.29-.36-4.59 2.31-12.96 3.79-21.38a1.044 1.036-79.867 0 1 1.21-.85l5.85 1.06a1.503 1.503-73.02 0 0 1.74-1.22l1.21-6.7a1.575 1.575-2.778 0 0-1.27-1.83l-6.02-1.08a.832.822 10.428 0 1-.67-.96m32.341 13.139a.459.458-7.42 0 1-.671-.515l5.337-20.597a.934.934 12.698 0 0-.672-1.136l-10.652-2.769a.7.7-67.555 0 0-.85.508l-15.942 61.472a.863.863-3.762 0 0 .626 1.048l9.023 2.345a1.195 1.195-61.652 0 0 1.458-.855l1.011-3.91a.526.525-54.702 0 1 .944-.163c.859 1.298 2.055 3.888 3.483 5.211q9.919 9.203 21.671 3.226 3.712-1.895 6.319-5.443c7.795-10.63 11.825-30.917-2.798-38.728q-9.127-4.881-18.287.306m-118.798-1.521a21.88 21.88 0 0 0-22.108-21.649l-4.3.045a21.88 21.88 0 0 0-21.649 22.108l.051 4.88a21.88 21.88 0 0 0 22.108 21.649l4.3-.045a21.88 21.88 0 0 0 21.649-22.108zm35.368-19.664a24.91 24.59-85.9 0 0-26.308 23.088 24.91 24.59-85.9 0 0 22.746 26.604 24.91 24.59-85.9 0 0 26.308-23.088 24.91 24.59-85.9 0 0-22.746-26.604M535.6 135.39l-1.2-4.44a1.089 1.08-14.999 0 0-1.33-.76l-9.58 2.59a.694.694-14.852 0 0-.49.85l11.89 44.03a.689.684-13.928 0 0 .82.49l10.3-2.3a.707.703-5.361 0 0 .55-.66q.06-2.26-.74-4.98-3.1-10.63-5.65-21.67-2.08-8.97 4.95-12.57c3.52-1.8 8.07-1.12 9.89 2.28q1.78 3.34 3.54 9.92 2.07 7.72 4.52 17.28.74 2.91 1.47 4.46a.899.895 69.876 0 0 1.05.49l9.37-2.53a1.768 1.761-15.17 0 0 1.25-2.17q-6.95-25.42-7.9-29c-3.16-12-12.26-15.15-23-10.47q-5.99 2.61-8.88 9.22a.443.439-40.631 0 1-.83-.06m-46.927 9.449a24.92 24.55-103.5 0 0-18.055 29.962 24.92 24.55-103.5 0 0 29.689 18.5 24.92 24.55-103.5 0 0 18.055-29.962 24.92 24.55-103.5 0 0-29.689-18.5M874.68 202.41c.39-5.11 1.3-8.54 3.44-13.32q6.77-15.08 7.3-16.17c7.05-14.38-4.56-20.76-15.71-24.66q-11.58-4.05-19.35 4.97a.733.729 37.28 0 0 .15 1.08l7.38 4.95a2.32 2.32-43.103 0 0 2.43.08l3.34-1.93a1.295 1.225 30.954 0 1 .77-.17q5.5.46 9.48 4.06a2.559 2.543-75.576 0 1 .78 1.33q.6 2.75-.19 5.01a1.69 1.673 11.492 0 1-1.71 1.12q-4.98-.35-10.73-1.8c-4.31-1.09-11.33-2.32-15.28-.54-7.32 3.3-10.55 12.26-6.72 18.88 4.5 7.75 14.78 10.7 23.25 7.83a.84.839-82.631 0 1 .97 1.26c-1.63 2.44-.49 3.94 2.06 4.89q.81.3 7.57 3.58a.542.534-74.889 0 0 .77-.45m48.034-46.882a1.06 1.06 0 0 0-.488-1.417l-9.294-4.533a1.06 1.06 0 0 0-1.417.488l-27.609 56.606a1.06 1.06 0 0 0 .488 1.417l9.294 4.533a1.06 1.06 0 0 0 1.417-.488zM472.53 194.9a.985.984 50.879 0 0-1.54-.16c-2.61 2.67-5.53 4.73-7.92.18q-2.73-5.22-9.94-19.94a1.215 1.211 60.848 0 1 .44-1.56l6.21-3.95a.366.359-30.095 0 0 .13-.47l-4.08-7.74a.211.206 64.708 0 0-.27-.1l-6.19 2.85a1.606 1.602 65.363 0 1-2.12-.79l-5.6-12.21a.953.946 49.662 0 0-1.65-.14l-6.76 10.08a1.539 1.527-40.59 0 0-.12 1.48l3.12 6.81a1.159 1.15 65.33 0 1-.56 1.53l-2.57 1.18a1.409 1.405 65.606 0 0-.7 1.87l3.17 6.91a1.056 1.056 48.774 0 0 1.4.52l3.53-1.62a.895.89 64.884 0 1 1.18.43q2.94 6.25 10.54 21.46c2.61 5.23 6.16 9.45 12.52 8.02q6.78-1.53 11.29-6.62a1.862 1.856-40.48 0 0 .18-2.23zm477.602-22.529a1.13 1.13 0 0 0-.36-1.557l-8.667-5.416a1.13 1.13 0 0 0-1.557.36l-33.3 53.291a1.13 1.13 0 0 0 .36 1.557l8.667 5.416a1.13 1.13 0 0 0 1.557-.36zM410.68 217.98a.2.2 1.999 0 1 .06-.28l25.45-16.18a.958.95-31.713 0 0 .31-1.29c-4.93-8.45-14.05-16.88-24.73-14.64-13.69 2.87-21.99 14.79-17.34 28.51q3.18 9.4 10.24 15.33c8.76 7.37 19.24 5.72 27.69-.61q10.26-7.69 8.11-20.34a.825.82-16.079 0 0-1.13-.62l-10.02 4.17a1.016 1.013 71.264 0 0-.59 1.2q1.65 6.32-4.21 9.31c-5.29 2.69-10.7.21-13.84-4.56m-45.911-21.107a1.26 1.26 0 0 0-1.765-.248l-7.954 5.995a1.26 1.26 0 0 0-.248 1.764l37.709 50.043a1.26 1.26 0 0 0 1.765.248l7.954-5.995a1.26 1.26 0 0 0 .248-1.764zM344.59 240.6q-10.53-.28-16.3 8.32c-9.25 13.77 3.84 29.8 15.72 35.53q3.97 1.91 8.14 1.84 13.19-.24 17.63-13.03c.64-1.84.48-4.69.63-6.24a.526.525 26.702 0 1 .91-.3l2.73 2.98a1.196 1.196 31.32 0 0 1.69.07l6.87-6.31a.864.864-32.108 0 0 .06-1.22l-42.96-46.82a.7.7 35.003 0 0-.99-.05l-8.11 7.45a.934.934-.024 0 0-.06 1.32l14.39 15.69a.459.459-20.58 0 1-.35.77m645.24-.09a.693.684 25.947 0 0 .3.85l8.7 5.03a1.527 1.524 25.482 0 0 2.18-.77c2.73-7.06 1.22-14.28-4.19-20.05-8.67-9.25-20.92-11.97-31.35-3.62-9.36 7.49-15.97 21.17-8.96 32.29 7.05 11.2 22.21 17.08 33.12 7.05a.785.771 47.602 0 0 .04-1.1l-6.03-6.57a2.627 2.625-37.896 0 0-3.38-.42c-3.7 2.45-7.72 3.01-11.22-.18-7.6-6.91-.97-15.68 4.73-21.57 3.34-3.44 8.16-4.73 12.1-2.3q6.79 4.19 3.96 11.36m49.772 2.433a1.31 1.31 0 0 0-.065-1.852l-7.27-6.779a1.31 1.31 0 0 0-1.851.065l-42.598 45.68a1.31 1.31 0 0 0 .065 1.852l7.27 6.779a1.31 1.31 0 0 0 1.851-.065zm-737.583 24.468a1.37 1.37 0 0 0-.108-1.934l-6.59-5.892a1.37 1.37 0 0 0-1.935.108l-6.505 7.276a1.37 1.37 0 0 0 .108 1.934l6.59 5.892a1.37 1.37 0 0 0 1.935-.108zm727.211 50.639-3.17 2.92a1.218 1.21 47.855 0 0-.08 1.71l6.24 6.79a1.507 1.507 47.757 0 0 2.13.09l33.04-30.31a.856.856 8.908 0 0 .05-1.21l-7.03-7.66a.903.895 49.915 0 0-1.21-.11q-2.3 1.73-3.81 3.12-8.59 7.94-13.91 12.58c-2.84 2.48-7.07 5.91-10.94 5.36-4.61-.65-10.62-5.83-7.74-11.02q1.42-2.57 3.25-4.27 11.42-10.59 21.04-19.11a.914.906-42.167 0 0 .07-1.3l-7.44-8.12a.63.63-42.367 0 0-.88-.04q-10.73 9.56-20.84 18.78c-6.33 5.78-11.16 11.89-6.62 20.66 3.37 6.52 9.84 10.44 17.49 10.25a.514.511 23.109 0 1 .36.89m-686.641-15.789a1.12 1.12 0 0 0-.11-1.58l-33.977-29.536a1.12 1.12 0 0 0-1.58.111l-6.731 7.743a1.12 1.12 0 0 0 .11 1.58l33.977 29.536a1.12 1.12 0 0 0 1.58-.111zM258.41 341.3a.404.403 16.299 0 1-.64.35l-3.36-2.45a.866.858 35.731 0 0-1.2.19l-5.38 7.39a1.596 1.588-54.106 0 0 .35 2.22l35.64 25.92a1.51 1.51 90 0 0 2.11-.33l5.9-8.12a1.022 1.019-54.174 0 0-.23-1.44q-12.57-8.92-19.3-14.05c-5.53-4.22-10.33-9.13-5.35-15.95 3.17-4.34 7.61-1.92 11.16.58q5.23 3.68 22.63 16.33a1.424 1.418-53.779 0 0 1.98-.31l5.65-7.77a1.579 1.576 35.537 0 0-.37-2.21q-8.94-6.33-17.38-12.51c-5.35-3.91-11.26-8.82-7.83-15.92q1.52-3.16 5.66-3.5a2.903 2.714-35.155 0 1 1.15.16q3.48 1.3 9.2 5.57 6.49 4.84 18.67 13.53a1.391 1.379-54.217 0 0 1.92-.32l6.03-8.28a.874.874 51.416 0 0-.2-1.22q-9.12-6.53-20.6-14.99c-7.68-5.66-15.93-11.22-24.26-3.39q-7.69 7.23-5.23 18.34a.566.566 81.356 0 1-.5.68c-4.86.53-7.69.54-11.11 4-5.51 5.59-5.56 10.33-5.11 17.5m825.415-13.46a.459.459 34.64 0 1-.153-.832l17.777-11.728a.935.935-61.733 0 0 .263-1.296l-6.06-9.2a.7.7 50.832 0 0-.972-.192l-53.067 34.993a.864.864-89.94 0 0-.238 1.199l5.133 7.792a1.196 1.196-38.599 0 0 1.657.343l3.373-2.228a.526.525-12.642 0 1 .81.512c-.231 1.541-1.079 4.267-.905 6.209q1.201 13.49 13.942 16.928 4.029 1.082 8.346.193c12.921-2.673 29.519-15.047 23.889-30.658q-3.509-9.747-13.795-12.035"></path><path fill="#2f2c19" fill-rule="evenodd" d="M604.69 124.67a.33.33 19.445 0 1-.37-.29l-.99-8.14a1.538 1.536 87.24 0 1 1.56-1.72l3.45.08a1.513 1.513-3.676 0 0 1.53-1.74q-.71-4.65-.45-8.67c.7-10.73 14.55-11.81 22.6-10.36a.595.586 5.747 0 1 .49.59l-.16 7.13a.81.81 30.32 0 1-.79.79c-7.09.17-10.88.08-9.47 9a1.382 1.379-8.007 0 0 1.53 1.15l7.1-.86a.887.887-64.522 0 1 .99.77l.95 7.84a1.14 1.14-65.414 0 1-.99 1.27l-7.22.88a.777.775 83.056 0 0-.68.87l4.29 35.34a.855.846-6.999 0 1-.75.95l-10.93 1.33a.645.645-72.896 0 1-.72-.56l-4.33-35.61a.836.836 4.984 0 0-.93-.73zM776.08 119.03a.832.822 10.428 0 0 .67.96l6.02 1.08a1.575 1.575 39.561 0 1 1.27 1.83l-1.21 6.7a1.503 1.503-43.297 0 1-1.74 1.22l-5.85-1.06a1.044 1.036-79.867 0 0-1.21.85q-1.48 8.42-3.79 21.38-.41 2.3.36 4.59a1.396 1.392-7.68 0 0 1.25.95l4.41.25a1.592 1.582 3.25 0 1 1.5 1.67l-.37 6.46a1.842 1.831.165 0 1-1.75 1.73q-6.8.32-11.89-1.34-1.96-.64-4.34-2.88c-2.61-2.47-2.41-7.29-1.92-10.42q1.59-9.96 4.08-23.73a2.003 2.001 21.36 0 0-.89-2.03q-.8-.52-3.1-.47a1.136 1.134-85.438 0 1-1.14-1.34l1.45-8.06a.788.785 12.312 0 1 .97-.62q2.26.58 4.14.5a1.076 1.07-87.834 0 0 1.03-.96l.66-5.74a2.96 2.939-7.547 0 1 1.86-2.41l10.68-4.18a1.019 1.017 84.441 0 1 1.37 1.13zM808.421 132.169q9.16-5.187 18.287-.306c14.623 7.811 10.593 28.098 2.798 38.728q-2.607 3.548-6.319 5.443-11.752 5.977-21.671-3.226c-1.428-1.323-2.624-3.913-3.483-5.211a.526.525-54.702 0 0-.944.163l-1.011 3.91a1.195 1.195-35.528 0 1-1.458.855l-9.023-2.345a.863.863 45.842 0 1-.626-1.048l15.942-61.472a.7.7-38.136 0 1 .85-.508l10.652 2.769a.934.934 19.741 0 1 .672 1.136l-5.337 20.597a.459.458-7.42 0 0 .671.515m7.921 5.955a15.16 10.69-76.1 0 0-14.019 12.148 15.16 10.69-76.1 0 0 6.735 17.284 15.16 10.69-76.1 0 0 14.019-12.148 15.16 10.69-76.1 0 0-6.735-17.284M689.674 135.528a21.88 21.88 0 0 1-21.649 22.108l-4.3.045a21.88 21.88 0 0 1-22.108-21.649l-.051-4.88a21.88 21.88 0 0 1 21.649-22.108l4.3-.045a21.88 21.88 0 0 1 22.108 21.649zm-24.382-16.772a14.61 11.75-91.6 0 0-11.337 14.932 14.61 11.75-91.6 0 0 12.153 14.276 14.61 11.75-91.6 0 0 11.337-14.932 14.61 11.75-91.6 0 0-12.153-14.276M724.991 110.984a24.91 24.59-85.9 0 1 22.746 26.604 24.91 24.59-85.9 0 1-26.308 23.088 24.91 24.59-85.9 0 1-22.746-26.604 24.91 24.59-85.9 0 1 26.308-23.088m-.788 10.276a14.62 11.7-86.3 0 0-12.619 13.835 14.62 11.7-86.3 0 0 10.733 15.345 14.62 11.7-86.3 0 0 12.619-13.835 14.62 11.7-86.3 0 0-10.733-15.345"></path><path fill="#f7df0e" fill-rule="evenodd" d="M665.292 118.756a14.61 11.75-91.6 0 1 12.153 14.276 14.61 11.75-91.6 0 1-11.337 14.932 14.61 11.75-91.6 0 1-12.153-14.276 14.61 11.75-91.6 0 1 11.337-14.932M724.203 121.26a14.62 11.7-86.3 0 1 10.733 15.345 14.62 11.7-86.3 0 1-12.619 13.835 14.62 11.7-86.3 0 1-10.733-15.345 14.62 11.7-86.3 0 1 12.619-13.835"></path><path fill="#2f2c19" fill-rule="evenodd" d="M535.6 135.39a.443.439-40.631 0 0 .83.06q2.89-6.61 8.88-9.22c10.74-4.68 19.84-1.53 23 10.47q.95 3.58 7.9 29a1.768 1.761-15.17 0 1-1.25 2.17l-9.37 2.53a.899.895 69.876 0 1-1.05-.49q-.73-1.55-1.47-4.46-2.45-9.56-4.52-17.28-1.76-6.58-3.54-9.92c-1.82-3.4-6.37-4.08-9.89-2.28q-7.03 3.6-4.95 12.57 2.55 11.04 5.65 21.67.8 2.72.74 4.98a.707.703-5.361 0 1-.55.66l-10.3 2.3a.689.684-13.928 0 1-.82-.49L523 133.63a.694.694 22.126 0 1 .49-.85l9.58-2.59a1.089 1.08-14.999 0 1 1.33.76z"></path><path fill="#f7df0e" fill-rule="evenodd" d="M816.342 138.124a15.16 10.69-76.1 0 1 6.735 17.284 15.16 10.69-76.1 0 1-14.019 12.148 15.16 10.69-76.1 0 1-6.735-17.284 15.16 10.69-76.1 0 1 14.019-12.148"></path><path fill="#2f2c19" fill-rule="evenodd" d="M488.673 144.839a24.92 24.55-103.5 0 1 29.689 18.5 24.92 24.55-103.5 0 1-18.055 29.962 24.92 24.55-103.5 0 1-29.689-18.5 24.92 24.55-103.5 0 1 18.055-29.962m.73 10.545a14.6 11.71-110.6 0 0-5.824 17.786 14.6 11.71-110.6 0 0 16.098 9.546 14.6 11.71-110.6 0 0 5.824-17.786 14.6 11.71-110.6 0 0-16.098-9.546M874.68 202.41a.542.534-74.889 0 1-.77.45q-6.76-3.28-7.57-3.58c-2.55-.95-3.69-2.45-2.06-4.89a.84.839-82.631 0 0-.97-1.26c-8.47 2.87-18.75-.08-23.25-7.83-3.83-6.62-.6-15.58 6.72-18.88 3.95-1.78 10.97-.55 15.28.54q5.75 1.45 10.73 1.8a1.69 1.673 11.492 0 0 1.71-1.12q.79-2.26.19-5.01a2.559 2.543-75.576 0 0-.78-1.33q-3.98-3.6-9.48-4.06a1.295 1.225 30.954 0 0-.77.17l-3.34 1.93a2.32 2.32-43.103 0 1-2.43-.08l-7.38-4.95a.733.729 37.28 0 1-.15-1.08q7.77-9.02 19.35-4.97c11.15 3.9 22.76 10.28 15.71 24.66q-.53 1.09-7.3 16.17c-2.14 4.78-3.05 8.21-3.44 13.32m-4.65-25.55a.463.452-76.761 0 0-.35-.58q-4.86-.91-9.65-1.83c-2.07-.4-6.26-.6-7.62 1.48-4.33 6.56 2.54 11.7 8.65 10.88 5.05-.68 7.7-5.37 8.97-9.95M895.105 212.134a1.06 1.06 0 0 1-1.417.488l-9.294-4.533a1.06 1.06 0 0 1-.488-1.417l27.609-56.606a1.06 1.06 0 0 1 1.417-.488l9.294 4.533a1.06 1.06 0 0 1 .488 1.417zM472.53 194.9l3.69 5.79a1.862 1.856-40.48 0 1-.18 2.23q-4.51 5.09-11.29 6.62c-6.36 1.43-9.91-2.79-12.52-8.02q-7.6-15.21-10.54-21.46a.895.89 64.884 0 0-1.18-.43l-3.53 1.62a1.056 1.056-76.78 0 1-1.4-.52l-3.17-6.91a1.409 1.405 65.606 0 1 .7-1.87l2.57-1.18a1.159 1.15 65.33 0 0 .56-1.53l-3.12-6.81a1.539 1.527-40.59 0 1 .12-1.48l6.76-10.08a.953.946 49.662 0 1 1.65.14l5.6 12.21a1.606 1.602 65.363 0 0 2.12.79l6.19-2.85a.211.206 64.708 0 1 .27.1l4.08 7.74a.366.359-30.095 0 1-.13.47l-6.21 3.95a1.215 1.211 60.848 0 0-.44 1.56q7.21 14.72 9.94 19.94c2.39 4.55 5.31 2.49 7.92-.18a.985.984 50.879 0 1 1.54.16"></path><path fill="#f7df0e" fill-rule="evenodd" d="M489.403 155.384a14.6 11.71-110.6 0 1 16.098 9.546 14.6 11.71-110.6 0 1-5.824 17.786 14.6 11.71-110.6 0 1-16.098-9.546 14.6 11.71-110.6 0 1 5.824-17.786"></path><path fill="#2f2c19" fill-rule="evenodd" d="M916.832 225.662a1.13 1.13 0 0 1-1.557.36l-8.667-5.416a1.13 1.13 0 0 1-.36-1.557l33.3-53.291a1.13 1.13 0 0 1 1.557-.36l8.667 5.416a1.13 1.13 0 0 1 .36 1.557z"></path><path fill="#f7df0e" fill-rule="evenodd" d="M870.03 176.86c-1.27 4.58-3.92 9.27-8.97 9.95-6.11.82-12.98-4.32-8.65-10.88 1.36-2.08 5.55-1.88 7.62-1.48q4.79.92 9.65 1.83a.463.452-76.761 0 1 .35.58"></path><path fill="#052e62" fill-rule="evenodd" d="m1120.77 922.18 31.29-1.24 117.25-5.09a.415.412-67.122 0 1 .29.72l-117.02 107.36a.654.649-49.179 0 0 .07 1.02l120.49 80.83a.581.576-32.355 0 1-.24 1.05l-210.02 32.65a.534.528-3.933 0 0-.45.51l-1.38 63.06a1.01 1.01-89.708 0 1-1 .99l-768.9 1.43a.781.78 89.246 0 1-.78-.76l-1.39-65.69a1.116 1.116 3.672 0 0-.95-1.08L78.5 1106.76a.523.516 32.897 0 1-.21-.95l125.06-79.53a.462.458-40.565 0 0 .06-.73L83.4 918.12a.551.55-22.934 0 1 .39-.96l115.59 4.62 31.19 1.23q17.21.7 34.92 1.49 21.81.97 43.67 1.56c16.4.44 30.85 1.27 48.34 1.71q9.79.24 32.49 1.6 1.95.12 3.97-.4a.287.28 58.272 0 0 .11-.49q-4.45-3.82-10.38-9.42c-53.33-50.36-92.86-111.95-115.26-181.98q-12.28-38.39-16.8-77.82Q240 557.84 274.64 463.57c36.74-99.98 110.82-183.13 205.22-232.15 78.12-40.58 165.82-55.88 253.16-44.94 121.88 15.26 232.06 83.2 301.32 184.41q17.61 25.73 32.13 55.85 21.85 45.32 32.13 93.34 2.63 12.3 5.09 28.25 2.2 14.23 3.22 28.54 2.71 38.1-.85 74.78-.88 9.12-1.9 15.16c-1.12 6.64-1.76 12.71-3.18 20.15q-18.06 94.67-75.15 172.62-28.01 38.24-63.13 68.81a.576.575-66.686 0 0 .4 1.01l155.32-7.01a.922.437 19.645 0 0 .2-.02q1.34-.34 2.15-.19m-659.58 72.48q-2.47 1.86-6.19 1.76-7.36-.19-14.75-.09c-3.61.06-5.03-3.8-5.14-6.71q-.21-5.27.24-21.89c.1-3.5-.26-8.65-2.97-10.44-7.34-4.87-14.23-6.16-23.94-6.59q-30.3-1.32-56.07-1.05c-16.51.18-31.6-1.11-48.44-1.23q-3.76-.03-18.35-.62-14.88-.6-18.34-.46-14.56.55-27.41-.77c-5.31-.55-8.96-.36-13.33-.8q-4.14-.4-9.99-.4-16.31.01-32.85-.76c-6.27-.3-16.02.04-20.66-.1q-3.92-.12-8.24 1.43c-2.82 1.01-.86 3.91.6 5.04 8.02 6.28 15.5 13.64 26.39 24.08q5.64 5.41 11.77 10.13 12.42 9.58 25 22.61c3.17 3.29 7.47 6.12 10.82 9.22q4.08 3.76 8.92 9.48a2.649 2.644 44.546 0 1 .03 3.4c-2.38 2.89-5.98 5.13-8.63 7.26q-2.62 2.11-6.11 4.36-11.89 7.63-17.69 10.85c-11.79 6.54-24.6 14.65-36.16 22.96q-8.36 6-15.9 10.7c-2.07 1.29-3 3.71-.4 5.26q2.13 1.28 4.58 1.73c6.83 1.24 13.87 1.78 27.95 3.51q7.65.95 13.79 2.31 7.33 1.62 13.71 2.48a3.884 3.615-28.621 0 1 .94.24q1.57.59 3.38.84 9.61 1.3 29.04 4.29c3 .46 6.6 1.58 8.77 1.72q5.53.38 19.86 3.38 5.6 1.17 11.65 1.52 5.96.34 11.6 1.42 4.58.89 12.3 1.99a1.913 1.911-1.059 0 1 1.6 1.54q.53 2.85.55 6.53.19 43.82.13 46.7-.17 7.34 6.79 7.36 34.34.09 127.68-.09 19.02-.03 39 .42c21.42.48 45.02-.39 66.04-.06 24.39.38 39.78-.08 67.48.2q22.68.22 41.64-.45c13.53-.47 29 .37 39.3.66q4.59.12 7.41.03 29.63-.93 59.57-.32c17.87.36 33.22-.43 48.35-.09q15.09.34 37.5-.05 21.98-.38 37.49-.28 58.82.39 70.25.21c22.8-.35 47.76.51 71.22-.02q4.31-.09 4.58-4.21 1.27-19.13-.14-40.04-.28-4.25.34-10.5.35-3.43 1.36-5.71a3.442 3.434-79.11 0 1 2.99-2.03c3.13-.13 6.17-1.09 9.31-1.4q10.6-1.06 20.13-3.03c6.99-1.44 15.08-2.19 21.28-3.3q5.43-.97 15.97-2.43 4.57-.64 16.68-2.78 7.02-1.24 13.7-2.54 7.75-1.5 13.73-2.28 17.8-2.31 27.95-3.82c5.61-.84 11.75-2.47 18.48-2.92a1.514 1.514-17.347 0 0 1.2-2.29q-2.39-4-6.19-6.44c-3.57-2.31-7.07-5.29-11.18-7.69q-9.04-5.29-16.65-10.77c-2.01-1.44-4.56-2.43-6.39-3.82q-2.11-1.6-4.69-2.98c-4.69-2.49-9.27-6.38-13.72-8.81q-1.2-.66-9.19-5.41c-5.78-3.43-11.32-7.8-16.85-11.72-5.87-4.17 2.72-11.77 5.92-14.22q4.2-3.2 6.77-5.9a6.688 6.482-84.053 0 1 1.17-.98c3.26-2.14 5.42-5.12 7.83-6.97 3.87-2.97 7.43-6.88 11.04-9.48 2.16-1.55 4.11-4.06 5.96-5.62q2.86-2.41 4.55-4.11 9.76-9.77 17.38-15.71c6.43-5.01 10.47-9.97 17.07-16.23 1.66-1.57 3.05-3.75 3.74-5.94a2.376 2.287-70.814 0 0-1.34-2.91q-.8-.3-1.76-.26-26.42 1.33-40.98 1.3c-14.08-.03-27.12 1.68-41.26 1.5-4.05-.05-10.67.72-14.01.78-10.69.2-28.34-.26-41.63.51q-7 .41-18.75.53-9.99.1-40.48 1.41c-10.19.44-20.51.38-30.56.59-5.88.12-13.62.9-20.33.75q-10.46-.22-14.94.43a6.789 5.623 27.168 0 0-.95.21q-3.1.91-7.14 2.43c-5.57 2.1-7.2 10.12-7.11 15.44q.11 6.7-.26 15.28a6.562 6.356-49.28 0 0 .07 1.19q.62 3.7.01 7.1-.5 2.78-3.35 2.89-9.81.39-17.99.37-1.27-.01-1.87-1.01-1.13-1.9-3.7-2.46.18-13.55.13-27c-.03-8.14.11-15.74 2.65-21.61a6.233 6.184 84.73 0 1 2.16-2.62q17.89-12.28 33.61-24.45 5.09-3.94 10.61-9.13 4.17-3.91 7.47-6.53 5.1-4.07 7.38-6.64 3.12-3.55 5.1-4.81a2.427 2.063-80.6 0 0 .39-.33q9.44-9.94 16.67-17.16.92-.91 2.17-2.97a4.335 4.265-8.997 0 1 .51-.69q19.98-22.01 32.95-41.97 7.71-11.86 8.8-13.39c2.49-3.49 4.03-6.78 6.54-10.64q.99-1.52 4.44-8.24 2.69-5.24 5.06-9.85 5.97-11.62 14.29-31.44 8.15-19.39 16.2-48.55 1.89-6.85 6.7-31.71.89-4.63 1-6.6c.32-5.6 1.48-10.44 2.1-16.57q3.38-33.31 1.93-62.35-1.27-25.3-6.52-55.81c-.28-1.59-.17-3.32-.69-4.73q-.49-1.32-.82-2.92-1.83-8.71-4.96-19.93-.44-1.6-1.19-3.72-.86-2.41-1.96-7.27-1.41-6.21-4.38-14.09-.17-.45-.59-1.64-4.12-11.56-10.3-26.7-1.72-4.23-3.46-8.62-1.28-3.24-3.25-6.92-1.55-2.92-3.56-6.76-1.27-2.42-8.02-14.85c-5.22-9.6-10.71-17.42-15.81-25.88q-2.51-4.17-7.49-11.15-13.6-19.04-29.35-36.52-4.22-4.69-19.11-19.91-4.33-4.42-23.13-20.54c-8.29-7.1-15.19-11.78-24.97-19.08q-3.22-2.4-5.55-3.79c-4.82-2.89-9.31-6.48-14.07-9.36q-29.46-17.82-60.34-30.65-18.47-7.67-35.42-12.54-16.97-4.87-34.72-8.91c-8.83-2.01-18.75-3.21-28.12-4.68q-6.11-.96-9.75-1.23c-8.42-.61-17.54-1.81-24.46-2.05q-48.91-1.65-88.24 5.25c-45.81 8.05-89.82 23.2-129.5 45.69q-26.35 14.93-51.39 34.33-35.22 27.28-66.9 66.27-7.47 9.21-16.93 23.08-9.88 14.5-15.47 24.06-19.69 33.64-33.38 72.63c-4.29 12.23-7.58 25.8-10.49 37.71q-6.07 24.81-8.31 49.99-2.06 23.13-2.14 30.2-.47 39.74 5.48 75.72 4 24.26 13.04 53.74c2.1 6.85 4.4 12.1 6.49 18.56q1.84 5.71 5.37 13.7c2.69 6.1 5.87 13.72 8.57 19.21q20.16 41.08 48.36 76.8c6.2 7.87 14.36 17 20.4 23.48q33.39 35.87 76.52 63.74c3.41 2.21 3.99 10.25 4.03 14.13q.16 15.35-.27 29.46-.07 2.33.31 9.41"></path><path fill="#2f2c19" fill-rule="evenodd" d="M410.68 217.98c3.14 4.77 8.55 7.25 13.84 4.56q5.86-2.99 4.21-9.31a1.016 1.013 71.264 0 1 .59-1.2l10.02-4.17a.825.82-16.079 0 1 1.13.62q2.15 12.65-8.11 20.34c-8.45 6.33-18.93 7.98-27.69.61q-7.06-5.93-10.24-15.33c-4.65-13.72 3.65-25.64 17.34-28.51 10.68-2.24 19.8 6.19 24.73 14.64a.958.95-31.713 0 1-.31 1.29l-25.45 16.18a.2.2-24.033 0 0-.06.28m-3.33-7.273 14.502-9.061a.77.77-69.799 0 0 .245-1.061l-.106-.17a10.13 9.12 58 0 0-13.102-3.758l-.34.212a10.13 9.12 58 0 0-2.366 13.424l.106.17a.77.77-37.937 0 0 1.061.244"></path><path fill="#f7df0e" fill-rule="evenodd" d="M407.35 210.707a.77.77-.14 0 1-1.061-.244l-.106-.17a10.13 9.12 58 0 1 2.366-13.424l.34-.212a10.13 9.12 58 0 1 13.102 3.758l.106.17a.77.77-76.118 0 1-.245 1.061z"></path><path fill="#2f2c19" fill-rule="evenodd" d="M402.478 246.916a1.26 1.26 0 0 1-.248 1.764l-7.954 5.995a1.26 1.26 0 0 1-1.765-.248l-37.709-50.043a1.26 1.26 0 0 1 .248-1.764l7.954-5.995a1.26 1.26 0 0 1 1.765.248z"></path><path fill="#d41c0c" fill-rule="evenodd" d="m888.77 993-.78 3.17a.733.714 6.474 0 1-.71.55H462.29a.911.88-15.656 0 1-.76-.41q-.54-.82-.34-1.65-.38-7.08-.31-9.41.43-14.11.27-29.46c-.04-3.88-.62-11.92-4.03-14.13q-43.13-27.87-76.52-63.74c-6.04-6.48-14.2-15.61-20.4-23.48q-28.2-35.72-48.36-76.8c-2.7-5.49-5.88-13.11-8.57-19.21q-3.53-7.99-5.37-13.7c-2.09-6.46-4.39-11.71-6.49-18.56q-9.04-29.48-13.04-53.74-5.95-35.98-5.48-75.72.08-7.07 2.14-30.2 2.24-25.18 8.31-49.99c2.91-11.91 6.2-25.48 10.49-37.71q13.69-38.99 33.38-72.63 5.59-9.56 15.47-24.06 9.46-13.87 16.93-23.08 31.68-38.99 66.9-66.27 25.04-19.4 51.39-34.33c39.68-22.49 83.69-37.64 129.5-45.69q39.33-6.9 88.24-5.25c6.92.24 16.04 1.44 24.46 2.05q3.64.27 9.75 1.23c9.37 1.47 19.29 2.67 28.12 4.68q17.75 4.04 34.72 8.91 16.95 4.87 35.42 12.54 30.88 12.83 60.34 30.65c4.76 2.88 9.25 6.47 14.07 9.36q2.33 1.39 5.55 3.79c9.78 7.3 16.68 11.98 24.97 19.08q18.8 16.12 23.13 20.54 14.89 15.22 19.11 19.91 15.75 17.48 29.35 36.52 4.98 6.98 7.49 11.15c5.1 8.46 10.59 16.28 15.81 25.88q6.75 12.43 8.02 14.85 2.01 3.84 3.56 6.76 1.97 3.68 3.25 6.92 1.74 4.39 3.46 8.62 6.18 15.14 10.3 26.7.42 1.19.59 1.64 2.97 7.88 4.38 14.09 1.1 4.86 1.96 7.27.75 2.12 1.19 3.72 3.13 11.22 4.96 19.93.33 1.6.82 2.92c.52 1.41.41 3.14.69 4.73q5.25 30.51 6.52 55.81 1.45 29.04-1.93 62.35c-.62 6.13-1.78 10.97-2.1 16.57q-.11 1.97-1 6.6-4.81 24.86-6.7 31.71-8.05 29.16-16.2 48.55-8.32 19.82-14.29 31.44-2.37 4.61-5.06 9.85-3.45 6.72-4.44 8.24c-2.51 3.86-4.05 7.15-6.54 10.64q-1.09 1.53-8.8 13.39-12.97 19.96-32.95 41.97a4.335 4.265-8.997 0 0-.51.69q-1.25 2.06-2.17 2.97-7.23 7.22-16.67 17.16a2.427 2.063-80.6 0 1-.39.33q-1.98 1.26-5.1 4.81-2.28 2.57-7.38 6.64-3.3 2.62-7.47 6.53-5.52 5.19-10.61 9.13-15.72 12.17-33.61 24.45a6.233 6.184 84.73 0 0-2.16 2.62c-2.54 5.87-2.68 13.47-2.65 21.61q.05 13.45-.13 27M575.79 296.16q3.7 5.25 7.04 10.35c3.77 5.78 7.74 10.41 11.41 15.48q18.22 25.15 20.74 28.51c2.18 2.92 4.66 2.39 7.6 2.59q2.26.15 4.34.15 80.09-.1 106.83.02c6.57.03 6.24-3.55 9.37-7.64q6.75-8.79 17.92-27.33 1.48-2.46 10.35-15.71c.98-1.47 2.05-3.71 3.1-5.56a.565.563 3.94 0 0-.7-.8q-17.71 6.87-36.42 15.14-1.87.82-8.21 2.94c-1.84.62-3.1 0-4.3-1.07-7.43-6.64-15.1-14.69-22.72-21.91q-20.27-19.18-28.35-26.83-.46-.43-2.06-2.21a1.855 1.853 45.604 0 0-2.73-.03q-13.54 14.4-28.67 31.55c-6.22 7.05-11.61 12.22-16.46 17.71-1.87 2.13-3.24 2.76-5.94 1.6q-22.56-9.65-41.82-17.35a.268.267-6.443 0 0-.32.4m53.2 89.47q-.67-.06-1 .11c-4.6 2.35-9.22 3.71-14.16 5.86q-16.22 7.07-29.45 12.5c-2.39.98-4.08.65-5.83-1.05q-17.22-16.67-51.24-49.11-1.35-1.29-1.79-1.61a2.008 1.993 41.233 0 0-2.57.16q-2.32 2.21-6.33 6.63-28.69 31.6-32.7 35.81-5.06 5.29-6.53 6.97-2.12 2.43-5.34 1.07-24.92-10.62-40.27-16.67a.865.862.672 0 0-1.13 1.1q.35.93 1.21 1.74c1.58 1.48 2.2 3.55 3.44 5.28 9.03 12.67 21.89 29.41 33.19 45.68 1.23 1.76 2.34 2.7 4.38 2.8q5.48.28 7.13.28 54.63.12 108.75 0c2.23-.01 4-.47 5.17-2.27 6.92-10.69 16.54-24.73 24.4-37.82 2.27-3.77 5.18-7.23 6.93-9.94a9.003 8.255-18.556 0 0 .63-1.14q1.67-3.61 3.42-5.63a.455.454 22.64 0 0-.31-.75m111.49 1.4 1.21 1.17a3.244 3.144-82.765 0 1 .54.72c4.35 8.02 11.61 16.19 16.2 22.92q3.19 4.68 21.27 29.43a3.986 3.958-16.426 0 0 3 1.62q7.81.38 13.05.37 55.06-.08 80-.03 17.36.03 25.76-.51 2.15-.14 3.18-2.03c2.94-5.36 6.72-10.35 9.87-15.45q9.8-15.84 11.79-18.64 6.26-8.78 12.28-19.86a.535.532-86.964 0 0-.67-.75l-44.45 18.49a2.77 2.77-40.282 0 1-2.55-.21q-2.49-1.56-3.6-2.6-4.77-4.43-47.24-45.45-1.83-1.76-4.23-3.54-1.83-1.35-3.41.3c-8.69 9.13-14.55 15.98-24.18 26.49q-11.61 12.65-19.08 21.01-.93 1.04-2.65 2.7a1.834 1.811-65.68 0 1-1.3.5q-1.88-.05-3.61-.81-17.76-7.87-30.51-12.7c-3.46-1.32-6.97-3.45-9.99-4.32a.704.7 75.113 0 0-.68 1.18m-132 117.19q-3.87-8.45-6.75-19.68a.895.894-20.951 0 0-1.28-.57q-.67.35-1.12 1.12-4.8 8.3-11.72 21.84a1.461 1.46-52.637 0 1-2.38.32l-11.46-12.48a1.15 1.15-55.608 0 0-1.92.36q-2.71 6.99-8.82 24.64-.62 1.78-1.65 3.02a.943.94 43.692 0 1-1.42.03l-14.54-15.85a1.118 1.117 25.38 0 0-1.94.69l-1.47 26.18a.655.653-67.356 0 1-1.09.45l-6.68-5.99a1.781 1.778 25.011 0 0-2.95 1.07q-.83 5.79-2.02 10.99c-2.92 12.79-3.4 26.61-3.53 39.92-.21 19.58.61 35.62 4.65 53.59q1.11 4.89 2.18 10.01c2.39 11.4 6.35 21.53 12.46 32.8q6.52 12.05 15.61 19.68c10.11 8.48 21 15.02 32.31 22.03 6.41 3.97 13.49 7.29 20.03 11.37q2.2 1.37 8.96 4.59a1.159 1.158-41.297 0 1-.14 2.15c-2.87.93-5.09 2.14-8.42 3.22q-14.31 4.62-29.65 7.67-17.35 3.44-36.48 3.15c-26.16-.41-51.67 4.38-74.47 16.97-6.17 3.41-12.03 11.16-8.14 18.33q2.13 3.95 4.5 5.32 7.86 4.54 14.98 8.33c13.38 7.11 26.03 10.98 40.41 13.08q28.37 4.15 53.01-.5 12.78-2.41 22.62-8.18 6.46-3.79 15.22-9.24c6.34-3.95 11.01-2.41 16.39 1.84q10.73 8.47 19.17 21.19c1.19 1.79 1.98 3.95.36 5.49q-1.84 1.74-5.11 4.17a5.194 5.121-87.04 0 0-.82.75q-3.69 4.22-6.1 5.08-8.9 3.16-16.35 7.76-1.98 1.23-3.68 2.84-.96.9-4 2.8a.491.433 3.563 0 0-.09.07l-10.33 9.17a1.216 1.208 80.841 0 0-.33.46l-.43 1.07a2.505 2.435-10.499 0 1-.68.96q-4.97 4.4-8.21 9.67c-2.03 3.31-5.25 9.04-6.46 13.22-1.32 4.56-3.56 9.39-4.34 14.1q-1.27 7.75-.75 14.93.35 4.7.26 6.14a3.381 3.158 43.05 0 0 .06.88q2.47 12.07 5.46 18.94 4.06 9.31 12.24 19.52 2.4 2.99 9.98 10.19 2.73 2.6 4.39 3.64c2.93 1.84 5.17 3.76 8.63 5.64q1.95 1.06 4.02 2.55a10.243 10.173 71.764 0 0 2.87 1.46c4.94 1.59 11.1 4.53 16.9 5.91q18.82 4.5 38.91 2.41c4.01-.42 8.32-1.69 11.92-2.24q4.98-.78 8.77-2.28 12.79-5.04 22.76-11.69c4.4-2.94 9.62-8.18 12.85-11.39q11.32-11.23 16.94-26.04 4.15-10.91 4.66-15.64 1-9.22-.13-20.43-.39-3.87-.9-5.68c-1.38-4.89-2.14-9.39-4.36-13.69q-5.92-11.51-10.67-17.35-13.29-16.35-34.42-25.8-6.84-3.07-13.62-5.19a1.342 1.341-77.176 0 1-.93-1.48q.17-1.1-.09-2.31-2.28-10.59-7.89-20.96-4.2-7.78-4.83-9.6-1.82-5.22-2.42-10.5c-.86-7.62 3.24-13.08 9.51-16.72q16.13-9.36 35.87-22.2 2.45-1.6 4.64-3.33 2.25-1.78 4.71-3.27 2.87-1.74 5.2-3.28 2.48-1.64 4.86-3.72 2.97-2.6 7.85-6.08.72-.52 3.5-3.83a5.082 4.472-85.52 0 1 .7-.68c1.94-1.55 4.34-2.98 6.19-4.88q3.68-3.79 7.77-8.15 3.14-3.35 4.62-4.77c4.2-4.05 7.5-7.99 11.58-11.89q7.89-7.54 8.45-8.03 10.45-9.29 24.56-11.17 18.79-2.49 38.96-3.29a.916.913 75.494 0 0 .78-1.33q-.52-1.03-1.76-2.28c-6.34-6.35-15.63-13.88-23.62-15.21q-10.9-1.8-17.66-3.57c-6.33-1.65-10.72-4.23-15.61-8.07-5.73-4.5-14.13-5.64-21.07-5.33q-13.06.58-18.46.97a.559.557 23.585 0 1-.39-.99c1.24-1.02 3.05-1.55 4.49-2.5q15.26-10.11 26.58-17.64 4.52-3 10-7.05c8.65-6.38 13.81-9.94 19.61-15.26q8.14-7.47 9.15-8.71 14.14-17.33 20.69-39.53.37-1.25.2-1.82a1.06 1.054-25.115 0 0-1.59-.57l-13.66 8.93a1.612 1.604-28.12 0 1-2.36-.71q-.54-1.26-.63-2.18-3.07-29.03-4.11-40.55a.588.588-38.758 0 0-.98-.38q-.68.61-.85 1.03c-2.14 5.38-4.98 9.98-7.14 15.1q-4.29 10.12-5.43 13.45a.536.534 44.901 0 1-1.01 0q-1.15-3.24-2.34-8.9c-.64-3.08-.68-6.66-1.36-9.71q-.65-2.91-1.1-7.29-.85-8.2-2.92-18.26-.12-.58-.52-.89a.875.866-59.966 0 0-1.32.36q-.24.55-.66 2.06a2.985 2.804 69.777 0 1-.28.66l-16.2 28.91a.221.219 50.395 0 1-.4-.04q-1.05-3.13-2.24-8.41-1.22-5.41-4.38-20.91-.09-.46-.5-.66a.612.608 19.901 0 0-.86.4l-10.37 40.96a.592.59 39.788 0 1-1.11.1l-10.41-22.68a.097.076 37.982 0 1-.01-.04q-.53-2.07-1.21-3.33a.9.899-47.427 0 0-1.62.07l-1.79 4.23a.155.147-16.845 0 1-.04.07l-8.74 12.02a3.896 3.754-1.427 0 1-.78.79q-7.14 5.24-20.64 18.57-33.35 32.93-54.66 57.47-2.46 2.83-3.87 4.83-1.5 2.14-4.12 4.61a.462.459 54.921 0 1-.73-.13q-4.01-8.29-8.12-15.84-4-7.37-5.95-12.91-3.75-10.66-4.43-13.45-2.96-12.17-2.3-24.84 1.54-29.43 1.76-37.31.09-3.28-.06-5.52a1.257 1.257-22.86 0 0-2.09-.85c-1.39 1.23-2.6 3.09-4.16 4.37q-2.73 2.24-6.08 4.46a.956.948-25.281 0 1-1.44-.51q-.91-2.98-1.16-7.95a.781.652-58.283 0 0-.03-.21l-4.44-16.87a.717.715-34.223 0 0-1.27-.24l-15.49 21.31a.118.116-38.79 0 1-.2-.02M394.64 723.85l2.37 2.58a1.373 1.371-40.007 0 0 1.85.16q10.84-8.34 16.03-20.45 8.23-19.22 13.05-37.68c5.65-21.63 9.44-43.79 9.21-65.72-.14-12.95-3.43-29.03-14.42-37q-3.8-2.75-9.96-2.12c-15.53 1.6-24.32 13.36-26.21 28.14-2.58 20.18.14 50.22 19.85 62.15a2.169 2.159-57.611 0 0 2.92-.66q3.72-5.6 1.41-11.62-.42-1.11-4.77-6.15c-7.6-8.82-10.08-23.2-9.91-34.49q.08-6 1.29-9.92c1.85-6.02 6.6-12.05 13.49-10.51 9.13 2.04 10.77 12.21 11.84 20.1q.74 5.53.81 9.24.39 20.25-2.3 39.6c-2.92 20.93-5 42.55-16.55 60.83q-4.45 7.05-9.91 11.87a1.155 1.154-41.915 0 0-.09 1.65M969.09 565.8c-11.52-1.53-22.18-1.17-34.38-1.26q-7.51-.05-12 1.97-7.79 3.5-10.6 11.37a4.18 4.019-36.45 0 0-.23 1.35l.02 7.81a.83.828-14.05 0 0 1.22.73q14.08-7.54 29.43-8.39c1.35-.07 3.96.16 5.05.4a1.141 1.136 18.422 0 1 .79 1.57c-4.79 10.9-7.36 16.04-10.26 25.72q-3.74 12.46-6.7 21.42c-3.69 11.21-6.26 21.49-8.49 32.98q-1.29 6.63-1.51 14.55c-.21 7.59 3.06 13.71 6.51 21.37 1.53 3.37 2.06 5.78 2.16 9.36q.18 6.3-.37 11.3a.704.7 3.271 0 0 .7.78l7.04-.02a.664.662-87.649 0 0 .66-.61l1.26-16.06a2.678 2.584 43.977 0 0-.02-.56q-.86-5.31-1.61-7.3-3.73-9.96-4.21-12.3-1.88-9.09.61-19.37 4.28-17.64 5.05-21.28c2.75-13.12 5.9-23.9 10.65-34.98q8.81-20.56 19.76-39.47a.722.722-71.14 0 0-.53-1.08m-593.25.34a1.05 1.05 0 0 0-1.05-1.05h-12.04a1.05 1.05 0 0 0-1.05 1.05v94a1.05 1.05 0 0 0 1.05 1.05h12.04a1.05 1.05 0 0 0 1.05-1.05zm622.44 15.1c-.74 6.33-3.96 13.55-6.68 18.91-2.68 5.26-5.65 8.33-10.31 12.13q-3.57 2.92-3.48 7.92a2.206 2.117 30.828 0 0 .28 1.02q1.08 1.88 2.2 2.52c7.36 4.2 13.85 7.04 17.27 13.4q4.39 8.14 4.77 18.86.8 22.23-7.38 41.94c-1.88 4.52-8.61 16.38-14.66 9.76-2.79-3.06-3.3-8.3-4.17-13.31a.85.85 85.203 0 0-.84-.71h-4.8a.79.785-86.719 0 0-.78.7c-1.19 9.9 1.03 22.65 13.27 23.93 5.6.58 9.71-1.67 12.97-5.87 12.17-15.64 15.39-36.24 14.79-55.94q-.16-5.55-1.33-9.85-3.07-11.37-8.84-20.48c-1.98-3.13-4.19-7.07-4.09-9.66q.14-3.55 1.12-4.92 10.92-15.32 11.84-34.19c.21-4.41.66-8.85.47-11.58a.733.724-2.108 0 0-.73-.67h-31.02a.72.72 0 0 0-.72.72v13.71a1 1-45 0 0 1 1h19.26a.594.589 3.429 0 1 .59.66" data-source="https://football-logos.cc"></path><path fill="#2f2c19" fill-rule="evenodd" d="M344.59 240.6a.459.459-20.58 0 0 .35-.77l-14.39-15.69a.934.934.501 0 1 .06-1.32l8.11-7.45a.7.7 84.967 0 1 .99.05l42.96 46.82a.864.864-5.451 0 1-.06 1.22l-6.87 6.31a1.196 1.196 80.964 0 1-1.69-.07l-2.73-2.98a.526.525 26.702 0 0-.91.3c-.15 1.55.01 4.4-.63 6.24q-4.44 12.79-17.63 13.03-4.17.07-8.14-1.84c-11.88-5.73-24.97-21.76-15.72-35.53q5.77-8.6 16.3-8.32m-4.312 9.413c-6.074 5.687-1.963 13.095 2.61 17.979 4.572 4.884 11.694 9.473 17.768 3.787 6.076-5.689 1.965-13.097-2.608-17.981-4.572-4.884-11.694-9.473-17.77-3.785M989.83 240.51q2.83-7.17-3.96-11.36c-3.94-2.43-8.76-1.14-12.1 2.3-5.7 5.89-12.33 14.66-4.73 21.57 3.5 3.19 7.52 2.63 11.22.18a2.627 2.625-37.896 0 1 3.38.42l6.03 6.57a.785.771 47.602 0 1-.04 1.1c-10.91 10.03-26.07 4.15-33.12-7.05-7.01-11.12-.4-24.8 8.96-32.29 10.43-8.35 22.68-5.63 31.35 3.62 5.41 5.77 6.92 12.99 4.19 20.05a1.527 1.524 25.482 0 1-2.18.77l-8.7-5.03a.693.684 25.947 0 1-.3-.85M997.004 288.623a1.31 1.31 0 0 1-1.851.065l-7.27-6.779a1.31 1.31 0 0 1-.065-1.852l42.598-45.68a1.31 1.31 0 0 1 1.851-.065l7.27 6.779a1.31 1.31 0 0 1 .065 1.852z"></path><path fill="#f7df0e" fill-rule="evenodd" d="M358.048 253.798c4.573 4.884 8.684 12.292 2.608 17.981-6.074 5.686-13.196 1.097-17.768-3.787s-8.684-12.292-2.61-17.979c6.076-5.688 13.198-1.099 17.77 3.785"></path><path fill="#2f2c19" fill-rule="evenodd" d="M295.514 274.687a1.37 1.37 0 0 1-1.935.108l-6.59-5.892a1.37 1.37 0 0 1-.108-1.934l6.505-7.276a1.37 1.37 0 0 1 1.935-.108l6.59 5.892a1.37 1.37 0 0 1 .108 1.934z"></path><path fill="#052e62" fill-rule="evenodd" d="M575.79 296.16a.268.267-6.443 0 1 .32-.4q19.26 7.7 41.82 17.35c2.7 1.16 4.07.53 5.94-1.6 4.85-5.49 10.24-10.66 16.46-17.71q15.13-17.15 28.67-31.55a1.855 1.853 45.604 0 1 2.73.03q1.6 1.78 2.06 2.21 8.08 7.65 28.35 26.83c7.62 7.22 15.29 15.27 22.72 21.91 1.2 1.07 2.46 1.69 4.3 1.07q6.34-2.12 8.21-2.94 18.71-8.27 36.42-15.14a.565.563 3.94 0 1 .7.8c-1.05 1.85-2.12 4.09-3.1 5.56q-8.87 13.25-10.35 15.71-11.17 18.54-17.92 27.33c-3.13 4.09-2.8 7.67-9.37 7.64q-26.74-.12-106.83-.02-2.08 0-4.34-.15c-2.94-.2-5.42.33-7.6-2.59q-2.52-3.36-20.74-28.51c-3.67-5.07-7.64-9.7-11.41-15.48q-3.34-5.1-7.04-10.35"></path><path fill="#2f2c19" fill-rule="evenodd" d="M1028.87 317.16c-7.65.19-14.12-3.73-17.49-10.25-4.54-8.77.29-14.88 6.62-20.66q10.11-9.22 20.84-18.78a.63.63-42.367 0 1 .88.04l7.44 8.12a.914.906-42.167 0 1-.07 1.3q-9.62 8.52-21.04 19.11-1.83 1.7-3.25 4.27c-2.88 5.19 3.13 10.37 7.74 11.02 3.87.55 8.1-2.88 10.94-5.36q5.32-4.64 13.91-12.58 1.51-1.39 3.81-3.12a.903.895 49.915 0 1 1.21.11l7.03 7.66a.856.856 11.932 0 1-.05 1.21l-33.04 30.31a1.507 1.507 82.138 0 1-2.13-.09l-6.24-6.79a1.218 1.21 47.855 0 1 .08-1.71l3.17-2.92a.514.511 23.109 0 0-.36-.89M335.858 310.004a1.12 1.12 0 0 1-1.58.111l-33.977-29.536a1.12 1.12 0 0 1-.11-1.58l6.731-7.743a1.12 1.12 0 0 1 1.58-.111l33.977 29.536a1.12 1.12 0 0 1 .11 1.58zM258.41 341.3c-.45-7.17-.4-11.91 5.11-17.5 3.42-3.46 6.25-3.47 11.11-4a.566.566 81.356 0 0 .5-.68q-2.46-11.11 5.23-18.34c8.33-7.83 16.58-2.27 24.26 3.39q11.48 8.46 20.6 14.99a.874.874 72.948 0 1 .2 1.22l-6.03 8.28a1.391 1.379-54.217 0 1-1.92.32q-12.18-8.69-18.67-13.53-5.72-4.27-9.2-5.57a2.903 2.714-35.155 0 0-1.15-.16q-4.14.34-5.66 3.5c-3.43 7.1 2.48 12.01 7.83 15.92q8.44 6.18 17.38 12.51a1.579 1.576 35.537 0 1 .37 2.21l-5.65 7.77a1.424 1.418-53.779 0 1-1.98.31q-17.4-12.65-22.63-16.33c-3.55-2.5-7.99-4.92-11.16-.58-4.98 6.82-.18 11.73 5.35 15.95q6.73 5.13 19.3 14.05a1.022 1.019-54.174 0 1 .23 1.44l-5.9 8.12a1.51 1.51-12.638 0 1-2.11.33L248.18 349a1.596 1.588-54.106 0 1-.35-2.22l5.38-7.39a.866.858 35.731 0 1 1.2-.19l3.36 2.45a.404.403 16.299 0 0 .64-.35M1083.825 327.84q10.286 2.288 13.795 12.035c5.63 15.611-10.968 27.985-23.889 30.658q-4.317.889-8.346-.193-12.741-3.438-13.942-16.928c-.174-1.942.674-4.668.905-6.209a.526.525-12.642 0 0-.81-.512l-3.373 2.228a1.196 1.196 3.297 0 1-1.657-.343l-5.133-7.792a.864.864-83.977 0 1 .238-1.199l53.067-34.993a.7.7 87.306 0 1 .972.192l6.06 9.2a.935.935-61.69 0 1-.263 1.296l-17.777 11.728a.459.459 34.64 0 0 .153.832m-23.042 26.602c4.651 6.918 12.638 4.039 18.201.299 5.563-3.741 11.243-10.05 6.592-16.968-4.653-6.921-12.64-4.042-18.203-.301s-11.243 10.049-6.59 16.97"></path><path fill="#f7df0e" fill-rule="evenodd" d="M1060.783 354.442c-4.653-6.921 1.027-13.23 6.59-16.97 5.563-3.741 13.55-6.62 18.203.301 4.651 6.918-1.029 13.227-6.592 16.968s-13.55 6.619-18.201-.299"></path><path fill="#052e62" fill-rule="evenodd" d="M628.99 385.63a.455.454 22.64 0 1 .31.75q-1.75 2.02-3.42 5.63a9.003 8.255-18.556 0 1-.63 1.14c-1.75 2.71-4.66 6.17-6.93 9.94-7.86 13.09-17.48 27.13-24.4 37.82-1.17 1.8-2.94 2.26-5.17 2.27q-54.12.12-108.75 0-1.65 0-7.13-.28c-2.04-.1-3.15-1.04-4.38-2.8-11.3-16.27-24.16-33.01-33.19-45.68-1.24-1.73-1.86-3.8-3.44-5.28q-.86-.81-1.21-1.74a.865.862.672 0 1 1.13-1.1q15.35 6.05 40.27 16.67 3.22 1.36 5.34-1.07 1.47-1.68 6.53-6.97 4.01-4.21 32.7-35.81 4.01-4.42 6.33-6.63a2.008 1.993 41.233 0 1 2.57-.16q.44.32 1.79 1.61 34.02 32.44 51.24 49.11c1.75 1.7 3.44 2.03 5.83 1.05q13.23-5.43 29.45-12.5c4.94-2.15 9.56-3.51 14.16-5.86q.33-.17 1-.11M740.48 387.03a.704.7 75.113 0 1 .68-1.18c3.02.87 6.53 3 9.99 4.32q12.75 4.83 30.51 12.7 1.73.76 3.61.81a1.834 1.811-65.68 0 0 1.3-.5q1.72-1.66 2.65-2.7 7.47-8.36 19.08-21.01c9.63-10.51 15.49-17.36 24.18-26.49q1.58-1.65 3.41-.3 2.4 1.78 4.23 3.54 42.47 41.02 47.24 45.45 1.11 1.04 3.6 2.6a2.77 2.77-40.282 0 0 2.55.21l44.45-18.49a.535.532-86.964 0 1 .67.75q-6.02 11.08-12.28 19.86-1.99 2.8-11.79 18.64c-3.15 5.1-6.93 10.09-9.87 15.45q-1.03 1.89-3.18 2.03-8.4.54-25.76.51-24.94-.05-80 .03-5.24.01-13.05-.37a3.986 3.958-16.426 0 1-3-1.62q-18.08-24.75-21.27-29.43c-4.59-6.73-11.85-14.9-16.2-22.92a3.244 3.144-82.765 0 0-.54-.72z"></path><path fill="#292927" fill-rule="evenodd" d="M608.48 504.22a.118.116-38.79 0 0 .2.02l15.49-21.31a.717.715-34.223 0 1 1.27.24l4.44 16.87a.781.652-58.283 0 1 .03.21q.25 4.97 1.16 7.95a.956.948-25.281 0 0 1.44.51q3.35-2.22 6.08-4.46c1.56-1.28 2.77-3.14 4.16-4.37a1.257 1.257-22.86 0 1 2.09.85q.15 2.24.06 5.52-.22 7.88-1.76 37.31-.66 12.67 2.3 24.84.68 2.79 4.43 13.45 1.95 5.54 5.95 12.91 4.11 7.55 8.12 15.84a.462.459 54.921 0 0 .73.13q2.62-2.47 4.12-4.61 1.41-2 3.87-4.83 21.31-24.54 54.66-57.47 13.5-13.33 20.64-18.57a3.896 3.754-1.427 0 0 .78-.79l8.74-12.02a.155.147-16.845 0 0 .04-.07l1.79-4.23a.9.899-47.427 0 1 1.62-.07q.68 1.26 1.21 3.33a.097.076 37.982 0 0 .01.04l10.41 22.68a.592.59 39.788 0 0 1.11-.1l10.37-40.96a.612.608 19.901 0 1 .86-.4q.41.2.5.66 3.16 15.5 4.38 20.91 1.19 5.28 2.24 8.41a.221.219 50.395 0 0 .4.04l16.2-28.91a2.985 2.804 69.777 0 0 .28-.66q.42-1.51.66-2.06a.875.866-59.966 0 1 1.32-.36q.4.31.52.89 2.07 10.06 2.92 18.26.45 4.38 1.1 7.29c.68 3.05.72 6.63 1.36 9.71q1.19 5.66 2.34 8.9a.536.534 44.901 0 0 1.01 0q1.14-3.33 5.43-13.45c2.16-5.12 5-9.72 7.14-15.1q.17-.42.85-1.03a.588.588 9.9 0 1 .98.38q1.04 11.52 4.11 40.55.09.92.63 2.18a1.612 1.604-28.12 0 0 2.36.71l13.66-8.93a1.06 1.054-25.115 0 1 1.59.57q.17.57-.2 1.82-6.55 22.2-20.69 39.53-1.01 1.24-9.15 8.71c-5.8 5.32-10.96 8.88-19.61 15.26q-5.48 4.05-10 7.05-11.32 7.53-26.58 17.64c-1.44.95-3.25 1.48-4.49 2.5a.559.557 23.585 0 0 .39.99q5.4-.39 18.46-.97c6.94-.31 15.34.83 21.07 5.33 4.89 3.84 9.28 6.42 15.61 8.07q6.76 1.77 17.66 3.57c7.99 1.33 17.28 8.86 23.62 15.21q1.24 1.25 1.76 2.28a.916.913 75.494 0 1-.78 1.33q-20.17.8-38.96 3.29-14.11 1.88-24.56 11.17-.56.49-8.45 8.03c-4.08 3.9-7.38 7.84-11.58 11.89q-1.48 1.42-4.62 4.77-4.09 4.36-7.77 8.15c-1.85 1.9-4.25 3.33-6.19 4.88a5.082 4.472-85.52 0 0-.7.68q-2.78 3.31-3.5 3.83-4.88 3.48-7.85 6.08-2.38 2.08-4.86 3.72-2.33 1.54-5.2 3.28-2.46 1.49-4.71 3.27-2.19 1.73-4.64 3.33-19.74 12.84-35.87 22.2c-6.27 3.64-10.37 9.1-9.51 16.72q.6 5.28 2.42 10.5.63 1.82 4.83 9.6 5.61 10.37 7.89 20.96.26 1.21.09 2.31a1.342 1.341-77.176 0 0 .93 1.48q6.78 2.12 13.62 5.19 21.13 9.45 34.42 25.8 4.75 5.84 10.67 17.35c2.22 4.3 2.98 8.8 4.36 13.69q.51 1.81.9 5.68 1.13 11.21.13 20.43-.51 4.73-4.66 15.64-5.62 14.81-16.94 26.04c-3.23 3.21-8.45 8.45-12.85 11.39q-9.97 6.65-22.76 11.69-3.79 1.5-8.77 2.28c-3.6.55-7.91 1.82-11.92 2.24q-20.09 2.09-38.91-2.41c-5.8-1.38-11.96-4.32-16.9-5.91a10.243 10.173 71.764 0 1-2.87-1.46q-2.07-1.49-4.02-2.55c-3.46-1.88-5.7-3.8-8.63-5.64q-1.66-1.04-4.39-3.64-7.58-7.2-9.98-10.19-8.18-10.21-12.24-19.52-2.99-6.87-5.46-18.94a3.381 3.158 43.05 0 1-.06-.88q.09-1.44-.26-6.14-.52-7.18.75-14.93c.78-4.71 3.02-9.54 4.34-14.1 1.21-4.18 4.43-9.91 6.46-13.22q3.24-5.27 8.21-9.67a2.505 2.435-10.499 0 0 .68-.96l.43-1.07a1.216 1.208 80.841 0 1 .33-.46l10.33-9.17a.491.433 3.563 0 1 .09-.07q3.04-1.9 4-2.8 1.7-1.61 3.68-2.84 7.45-4.6 16.35-7.76 2.41-.86 6.1-5.08a5.194 5.121-87.04 0 1 .82-.75q3.27-2.43 5.11-4.17c1.62-1.54.83-3.7-.36-5.49q-8.44-12.72-19.17-21.19c-5.38-4.25-10.05-5.79-16.39-1.84q-8.76 5.45-15.22 9.24-9.84 5.77-22.62 8.18-24.64 4.65-53.01.5c-14.38-2.1-27.03-5.97-40.41-13.08q-7.12-3.79-14.98-8.33-2.37-1.37-4.5-5.32c-3.89-7.17 1.97-14.92 8.14-18.33 22.8-12.59 48.31-17.38 74.47-16.97q19.13.29 36.48-3.15 15.34-3.05 29.65-7.67c3.33-1.08 5.55-2.29 8.42-3.22a1.159 1.158-41.297 0 0 .14-2.15q-6.76-3.22-8.96-4.59c-6.54-4.08-13.62-7.4-20.03-11.37-11.31-7.01-22.2-13.55-32.31-22.03q-9.09-7.63-15.61-19.68c-6.11-11.27-10.07-21.4-12.46-32.8q-1.07-5.12-2.18-10.01c-4.04-17.97-4.86-34.01-4.65-53.59.13-13.31.61-27.13 3.53-39.92q1.19-5.2 2.02-10.99a1.781 1.778 25.011 0 1 2.95-1.07l6.68 5.99a.655.653-67.356 0 0 1.09-.45l1.47-26.18a1.118 1.117 25.38 0 1 1.94-.69l14.54 15.85a.943.94 43.692 0 0 1.42-.03q1.03-1.24 1.65-3.02 6.11-17.65 8.82-24.64a1.15 1.15-55.608 0 1 1.92-.36l11.46 12.48a1.461 1.46-52.637 0 0 2.38-.32q6.92-13.54 11.72-21.84.45-.77 1.12-1.12a.895.894-20.951 0 1 1.28.57q2.88 11.23 6.75 19.68m20.1 62.13a3 3-63.161 0 0-2.53.83q-3.22 3.13-5.9 7.99c-14.74 26.8-8.26 57.38 3.68 83.53 4.09 8.95 10.29 17.96 18.7 23.09 4.86 2.97 11.07 4.93 14.41-1.14 1.77-3.21 3.05-7.77 3.72-11.93q2.18-13.45 1.73-29.71c-.1-3.47.24-8.54-1.01-12.64q-5.19-17.11-14.62-36.15c-4.51-9.1-9.65-17.77-17.46-23.5q-.45-.33-.72-.37m57.46 126.7c25.32.73 57.33-12.91 62.97-40.51q.68-3.33.53-6.12a.611.607 2.216 0 0-.54-.58c-12.43-1.53-29.65 8.63-38.54 16.43q-14.71 12.91-24.87 29.96a.544.543 16.287 0 0 .45.82m-113.02 61.76q25.34 9.33 51.74 11.55 20.3 1.7 45.15.01c11.94-.8 21.06-3.45 30.97-8.97 17.06-9.5 34.44-21.42 49.18-32.58q15.65-11.85 34.49-33.24c3.23-3.68-2.31-13.69-4.68-16.86-4.2-5.6-10.33-7.31-17.21-8.46-2.37-.4-4.55.54-6.21 1.93-13.42 11.23-26.38 20.7-42.37 27.9q-44.59 20.07-93.53 45.96-6.25 3.31-13.99 5.53-16.32 4.67-33.46 6.59a.332.33-38.058 0 0-.08.64m64.81 23.9q8.03 14.57 20.31 34.25 3.54 5.69 4.68 11.4a.435.427 84.233 0 0 .42.35l21.55-.04a.794.79 80.912 0 0 .75-1.04c-3.82-11.74-8.87-22.59-15.74-32.64q-5.21-7.63-6.31-9.21c-3.32-4.76-6.39-6.55-12.26-6.2q-6.87.42-13.11 2.41a.507.502-23.358 0 0-.29.72m121.35 141.45c4.41-21.53-2.89-43.55-17.41-59.93a.459.459 27.637 0 0-.8.25l-1.28 11.19a.554.552-85.05 0 1-.58.49l-29.6-1.66a.794.787 75.179 0 1-.63-.37l-12.55-19.74a2.95 2.95 39.731 0 1-.25-2.71l4.43-10.96a.971.97 19.188 0 0-.63-1.3c-6.31-1.8-15.46-3.84-22.35-4.09q-12.49-.46-25.61 2.69a1.054 1.046 70.829 0 0-.7 1.46l4.61 10.04a3.091 3.063 48.825 0 1-.18 2.89l-11.98 19.24a3.001 2.986 14.448 0 1-2.42 1.42l-28.56 1.29a.484.481 85.548 0 1-.5-.43l-1.47-12.11a.508.508-7.107 0 0-.87-.29c-13.29 13.76-21.75 32.57-20.86 51.74q.26 5.63.72 10.09a.565.564-31.978 0 0 1.04.24l4.09-6.58a1.592 1.591-59.524 0 1 2.12-.55L621.38 926a1.785 1.752 89.056 0 1 .69.68q.67 1.2.85 2.88 1.2 11.06 2.34 21.76a2.027 2.024-22.634 0 1-.73 1.77l-9.17 7.49a.816.808 43.043 0 0 .05 1.29q11.07 7.83 23.29 14.19 4.15 2.17 8.96 3.75a.626.625 88.61 0 0 .78-.82l-4.31-11.01a1.45 1.45 7.791 0 1 .82-1.88l26.42-10.34a2.653 2.63 51.092 0 1 2.43.27l19.13 12.83a2.33 2.325-73.248 0 1 1.04 1.94l.02 10.27a.603.601 83.841 0 0 .73.59q13.61-2.87 25.05-10.37 7.65-5.01 13.44-9.76a.661.659-43.933 0 0 .02-1l-8.71-7.8a3.771 3.736 24.363 0 1-1.23-3.22l2.55-22.29a1.461 1.449-12.029 0 1 .72-1.1l25.06-14.47a1.233 1.233 58.952 0 1 1.65.41l5.23 8.23a.376.372-55.504 0 0 .68-.13"></path><path fill="#f7df0e" fill-rule="evenodd" d="M394.64 723.85a1.155 1.154-41.915 0 1 .09-1.65q5.46-4.82 9.91-11.87c11.55-18.28 13.63-39.9 16.55-60.83q2.69-19.35 2.3-39.6-.07-3.71-.81-9.24c-1.07-7.89-2.71-18.06-11.84-20.1-6.89-1.54-11.64 4.49-13.49 10.51q-1.21 3.92-1.29 9.92c-.17 11.29 2.31 25.67 9.91 34.49q4.35 5.04 4.77 6.15 2.31 6.02-1.41 11.62a2.169 2.159-57.611 0 1-2.92.66c-19.71-11.93-22.43-41.97-19.85-62.15 1.89-14.78 10.68-26.54 26.21-28.14q6.16-.63 9.96 2.12c10.99 7.97 14.28 24.05 14.42 37 .23 21.93-3.56 44.09-9.21 65.72q-4.82 18.46-13.05 37.68-5.19 12.11-16.03 20.45a1.373 1.371-40.007 0 1-1.85-.16zM969.09 565.8a.722.722-71.14 0 1 .53 1.08q-10.95 18.91-19.76 39.47c-4.75 11.08-7.9 21.86-10.65 34.98q-.77 3.64-5.05 21.28-2.49 10.28-.61 19.37.48 2.34 4.21 12.3.75 1.99 1.61 7.3a2.678 2.584 43.977 0 1 .02.56l-1.26 16.06a.664.662-87.649 0 1-.66.61l-7.04.02a.704.7 3.271 0 1-.7-.78q.55-5 .37-11.3c-.1-3.58-.63-5.99-2.16-9.36-3.45-7.66-6.72-13.78-6.51-21.37q.22-7.92 1.51-14.55c2.23-11.49 4.8-21.77 8.49-32.98q2.96-8.96 6.7-21.42c2.9-9.68 5.47-14.82 10.26-25.72a1.141 1.136 18.422 0 0-.79-1.57c-1.09-.24-3.7-.47-5.05-.4q-15.35.85-29.43 8.39a.83.828-14.05 0 1-1.22-.73l-.02-7.81a4.18 4.019-36.45 0 1 .23-1.35q2.81-7.87 10.6-11.37 4.49-2.02 12-1.97c12.2.09 22.86-.27 34.38 1.26M375.84 660.14a1.05 1.05 0 0 1-1.05 1.05h-12.04a1.05 1.05 0 0 1-1.05-1.05v-94a1.05 1.05 0 0 1 1.05-1.05h12.04a1.05 1.05 0 0 1 1.05 1.05zM998.28 581.24a.594.589 3.429 0 0-.59-.66h-19.26a1 1 45 0 1-1-1v-13.71a.72.72 0 0 1 .72-.72h31.02a.733.724-2.108 0 1 .73.67c.19 2.73-.26 7.17-.47 11.58q-.92 18.87-11.84 34.19-.98 1.37-1.12 4.92c-.1 2.59 2.11 6.53 4.09 9.66q5.77 9.11 8.84 20.48 1.17 4.3 1.33 9.85c.6 19.7-2.62 40.3-14.79 55.94-3.26 4.2-7.37 6.45-12.97 5.87-12.24-1.28-14.46-14.03-13.27-23.93a.79.785-86.719 0 1 .78-.7h4.8a.85.85 85.203 0 1 .84.71c.87 5.01 1.38 10.25 4.17 13.31 6.05 6.62 12.78-5.24 14.66-9.76q8.18-19.71 7.38-41.94-.38-10.72-4.77-18.86c-3.42-6.36-9.91-9.2-17.27-13.4q-1.12-.64-2.2-2.52a2.206 2.117 30.828 0 1-.28-1.02q-.09-5 3.48-7.92c4.66-3.8 7.63-6.87 10.31-12.13 2.72-5.36 5.94-12.58 6.68-18.91"></path><path fill="#fff" fill-rule="evenodd" d="M628.58 566.35q.27.04.72.37c7.81 5.73 12.95 14.4 17.46 23.5q9.43 19.04 14.62 36.15c1.25 4.1.91 9.17 1.01 12.64q.45 16.26-1.73 29.71c-.67 4.16-1.95 8.72-3.72 11.93-3.34 6.07-9.55 4.11-14.41 1.14-8.41-5.13-14.61-14.14-18.7-23.09-11.94-26.15-18.42-56.73-3.68-83.53q2.68-4.86 5.9-7.99a3 3-63.161 0 1 2.53-.83M686.04 693.05a.544.543 16.287 0 1-.45-.82q10.16-17.05 24.87-29.96c8.89-7.8 26.11-17.96 38.54-16.43a.611.607 2.216 0 1 .54.58q.15 2.79-.53 6.12c-5.64 27.6-37.65 41.24-62.97 40.51"></path><path fill="#fff" fill-rule="evenodd" d="M573.02 754.81a.332.33-38.058 0 1 .08-.64q17.14-1.92 33.46-6.59 7.74-2.22 13.99-5.53 48.94-25.89 93.53-45.96c15.99-7.2 28.95-16.67 42.37-27.9 1.66-1.39 3.84-2.33 6.21-1.93 6.88 1.15 13.01 2.86 17.21 8.46 2.37 3.17 7.91 13.18 4.68 16.86q-18.84 21.39-34.49 33.24c-14.74 11.16-32.12 23.08-49.18 32.58-9.91 5.52-19.03 8.17-30.97 8.97q-24.85 1.69-45.15-.01-26.4-2.22-51.74-11.55M637.83 778.71a.507.502-23.358 0 1 .29-.72q6.24-1.99 13.11-2.41c5.87-.35 8.94 1.44 12.26 6.2q1.1 1.58 6.31 9.21c6.87 10.05 11.92 20.9 15.74 32.64a.794.79 80.912 0 1-.75 1.04l-21.55.04a.435.427 84.233 0 1-.42-.35q-1.14-5.71-4.68-11.4-12.28-19.68-20.31-34.25M759.18 920.16a.376.372-55.504 0 1-.68.13l-5.23-8.23a1.233 1.233 58.952 0 0-1.65-.41l-25.06 14.47a1.461 1.449-12.029 0 0-.72 1.1l-2.55 22.29a3.771 3.736 24.363 0 0 1.23 3.22l8.71 7.8a.661.659-43.933 0 1-.02 1q-5.79 4.75-13.44 9.76-11.44 7.5-25.05 10.37a.603.601 83.841 0 1-.73-.59l-.02-10.27a2.33 2.325-73.248 0 0-1.04-1.94l-19.13-12.83a2.653 2.63 51.092 0 0-2.43-.27l-26.42 10.34a1.45 1.45-48.307 0 0-.82 1.88l4.31 11.01a.626.625 88.61 0 1-.78.82q-4.81-1.58-8.96-3.75-12.22-6.36-23.29-14.19a.816.808 43.043 0 1-.05-1.29l9.17-7.49a2.027 2.024-22.634 0 0 .73-1.77q-1.14-10.7-2.34-21.76-.18-1.68-.85-2.88a1.785 1.752 89.056 0 0-.69-.68l-24.42-13.53a1.592 1.591-59.524 0 0-2.12.55l-4.09 6.58a.565.564-31.978 0 1-1.04-.24q-.46-4.46-.72-10.09c-.89-19.17 7.57-37.98 20.86-51.74a.508.508 12.575 0 1 .87.29l1.47 12.11a.484.481 85.548 0 0 .5.43l28.56-1.29a3.001 2.986 14.448 0 0 2.42-1.42l11.98-19.24a3.091 3.063 48.825 0 0 .18-2.89l-4.61-10.04a1.054 1.046 70.829 0 1 .7-1.46q13.12-3.15 25.61-2.69c6.89.25 16.04 2.29 22.35 4.09a.971.97 19.188 0 1 .63 1.3l-4.43 10.96a2.95 2.95 39.731 0 0 .25 2.71l12.55 19.74a.794.787 75.179 0 0 .63.37l29.6 1.66a.554.552-85.05 0 0 .58-.49l1.28-11.19a.459.459 27.637 0 1 .8-.25c14.52 16.38 21.82 38.4 17.41 59.93m-54.6-3.32-6.52-29.18a.56.558 83.941 0 0-.53-.43l-43.13-.94a1.074 1.068-78.119 0 0-1.02.67l-12.05 29.79a.561.555-67.909 0 0 .3.72q16.35 7.1 29.98 13.18 1.82.81 3.69-.07 2.69-1.25 28.96-13.1a.57.57-83.341 0 0 .32-.64"></path><path fill="#292927" fill-rule="evenodd" d="M704.58 916.84a.57.57-66.422 0 1-.32.64q-26.27 11.85-28.96 13.1-1.87.88-3.69.07-13.63-6.08-29.98-13.18a.561.555-67.909 0 1-.3-.72l12.05-29.79a1.074 1.068-78.119 0 1 1.02-.67l43.13.94a.56.558 83.941 0 1 .53.43zM461.19 994.66q-.2.83.34 1.65a.911.88-15.656 0 0 .76.41h424.99a.733.714 6.474 0 0 .71-.55l.78-3.17q2.57.56 3.7 2.46.6 1 1.87 1.01 8.18.02 17.99-.37 2.85-.11 3.35-2.89.61-3.4-.01-7.1a6.562 6.356-49.28 0 1-.07-1.19q.37-8.58.26-15.28c-.09-5.32 1.54-13.34 7.11-15.44q4.04-1.52 7.14-2.43a6.789 5.623 27.168 0 1 .95-.21q4.48-.65 14.94-.43c6.71.15 14.45-.63 20.33-.75 10.05-.21 20.37-.15 30.56-.59q30.49-1.31 40.48-1.41 11.75-.12 18.75-.53c13.29-.77 30.94-.31 41.63-.51 3.34-.06 9.96-.83 14.01-.78 14.14.18 27.18-1.53 41.26-1.5q14.56.03 40.98-1.3.96-.04 1.76.26a2.376 2.287-70.814 0 1 1.34 2.91c-.69 2.19-2.08 4.37-3.74 5.94-6.6 6.26-10.64 11.22-17.07 16.23q-7.62 5.94-17.38 15.71-1.69 1.7-4.55 4.11c-1.85 1.56-3.8 4.07-5.96 5.62-3.61 2.6-7.17 6.51-11.04 9.48-2.41 1.85-4.57 4.83-7.83 6.97a6.688 6.482-84.053 0 0-1.17.98q-2.57 2.7-6.77 5.9c-3.2 2.45-11.79 10.05-5.92 14.22 5.53 3.92 11.07 8.29 16.85 11.72q7.99 4.75 9.19 5.41c4.45 2.43 9.03 6.32 13.72 8.81q2.58 1.38 4.69 2.98c1.83 1.39 4.38 2.38 6.39 3.82q7.61 5.48 16.65 10.77c4.11 2.4 7.61 5.38 11.18 7.69q3.8 2.44 6.19 6.44a1.514 1.514-17.347 0 1-1.2 2.29c-6.73.45-12.87 2.08-18.48 2.92q-10.15 1.51-27.95 3.82-5.98.78-13.73 2.28-6.68 1.3-13.7 2.54-12.11 2.14-16.68 2.78-10.54 1.46-15.97 2.43c-6.2 1.11-14.29 1.86-21.28 3.3q-9.53 1.97-20.13 3.03c-3.14.31-6.18 1.27-9.31 1.4a3.442 3.434-79.11 0 0-2.99 2.03q-1.01 2.28-1.36 5.71-.62 6.25-.34 10.5 1.41 20.91.14 40.04-.27 4.12-4.58 4.21c-23.46.53-48.42-.33-71.22.02q-11.43.18-70.25-.21-15.51-.1-37.49.28-22.41.39-37.5.05c-15.13-.34-30.48.45-48.35.09q-29.94-.61-59.57.32-2.82.09-7.41-.03c-10.3-.29-25.77-1.13-39.3-.66q-18.96.67-41.64.45c-27.7-.28-43.09.18-67.48-.2-21.02-.33-44.62.54-66.04.06q-19.98-.45-39-.42-93.34.18-127.68.09-6.96-.02-6.79-7.36.06-2.88-.13-46.7-.02-3.68-.55-6.53a1.913 1.911-1.059 0 0-1.6-1.54q-7.72-1.1-12.3-1.99-5.64-1.08-11.6-1.42-6.05-.35-11.65-1.52-14.33-3-19.86-3.38c-2.17-.14-5.77-1.26-8.77-1.72q-19.43-2.99-29.04-4.29-1.81-.25-3.38-.84a3.884 3.615-28.621 0 0-.94-.24q-6.38-.86-13.71-2.48-6.14-1.36-13.79-2.31c-14.08-1.73-21.12-2.27-27.95-3.51q-2.45-.45-4.58-1.73c-2.6-1.55-1.67-3.97.4-5.26q7.54-4.7 15.9-10.7c11.56-8.31 24.37-16.42 36.16-22.96q5.8-3.22 17.69-10.85 3.49-2.25 6.11-4.36c2.65-2.13 6.25-4.37 8.63-7.26a2.649 2.644 44.546 0 0-.03-3.4q-4.84-5.72-8.92-9.48c-3.35-3.1-7.65-5.93-10.82-9.22q-12.58-13.03-25-22.61-6.13-4.72-11.77-10.13c-10.89-10.44-18.37-17.8-26.39-24.08-1.46-1.13-3.42-4.03-.6-5.04q4.32-1.55 8.24-1.43c4.64.14 14.39-.2 20.66.1q16.54.77 32.85.76 5.85 0 9.99.4c4.37.44 8.02.25 13.33.8q12.85 1.32 27.41.77 3.46-.14 18.34.46 14.59.59 18.35.62c16.84.12 31.93 1.41 48.44 1.23q25.77-.27 56.07 1.05c9.71.43 16.6 1.72 23.94 6.59 2.71 1.79 3.07 6.94 2.97 10.44q-.45 16.62-.24 21.89c.11 2.91 1.53 6.77 5.14 6.71q7.39-.1 14.75.09 3.72.1 6.19-1.76m287.58 42.05 3.93-21.79a.977.97-81.27 0 0-.83-1.14q-9.12-1.2-19.73-1.95c-14.91-1.04-35.47-.95-41.61 16.55-2.58 7.38-2.88 15.56-3.19 23.85a.561.56-88.939 0 1-.56.54h-13.12a.63.62-90 0 0-.62.63v27.23a.77.76 90 0 0 .76.77h12.84a.88.88-45.004 0 1 .88.88v71.63a.9.89 0 0 0 .9.89h37.26a.62.62-45 0 0 .62-.62v-71.65a1.11 1.1 0 0 1 1.11-1.1h16.48a.67.67 45 0 0 .67-.67v-27.36a.67.67-45 0 0-.67-.67h-16.87a.642.641 88.591 0 1-.64-.61c-.32-5.96-.03-13.59 6.37-15.14 5.12-1.23 11.29.12 15.31.3a.699.698 6.234 0 0 .71-.57m-223.47 29.17v-12.09a1.01 1 0 0 0-1.01-1h-34.45a.68.67 90 0 0-.67.68v100.08a1.28 1.28 11.279 0 0 1.28 1.28h36.62a.99.98-90 0 0 .98-.99q-.25-35.93-.02-52.33c.11-7.52 1.59-15.53 8.78-19.12 9.55-4.76 18.31 1.9 18.36 12.05q.1 20.76.1 59.56a.82.82-44.989 0 0 .82.82h37.29a.408.404-85.894 0 0 .4-.35q.24-1.56.23-3.72-.08-36.89-.04-49c.02-6.95 1.29-15.22 8.29-18.94q5.47-2.91 10.13-1.14 8.95 3.41 8.97 13.59l.03 50.49q0 4.61.29 8.62a.504.491 87.451 0 0 .49.46h36.97a1.11 1.1-90 0 0 1.1-1.11q-.19-32.19-.05-61.44c.1-18.68-4.62-36.01-24.78-40.9-5.51-1.33-12.39-1.23-17.93-.45q-9.23 1.31-16.57 7.02-5.74 4.47-9.79 9.06a.485.485-38.469 0 1-.79-.09c-7.65-13.96-19.95-17.43-34.81-16.38q-13.32.94-22.48 9.21-3.86 3.49-6.69 6.54a.606.605-23.601 0 1-1.05-.41m344.1 53.02-34.66-3.97a.824.818-76.913 0 0-.86.54c-2.46 7-6.94 13.01-14.64 14.72q-11.9 2.65-19.68-4.71c-7.74-7.33-7.98-21.32-5.85-30.72q3.07-13.57 14.46-16.71 7.59-2.1 14.64.71 6.53 2.6 9.3 10.57a1.139 1.131-13.022 0 0 1.21.75l34.61-4.2a.624.622 78.45 0 0 .52-.79q-5.05-17.75-20.02-27.02c-6.93-4.29-16.26-6.45-24-7.16-15.99-1.48-36.68-.93-50.17 9.86q-7.22 5.77-10.76 10.73c-8.93 12.5-10.52 27.8-8.77 42.75 1.72 14.63 9.89 27.13 22.28 34.77q8.28 5.1 20.65 6.88 14.79 2.13 28.99.62 11.81-1.26 20.7-6.18 17.07-9.44 23.02-29.99a1.144 1.141-78.851 0 0-.97-1.45"></path><path fill="#f7df0e" fill-rule="evenodd" d="M748.06 1037.28c-4.02-.18-10.19-1.53-15.31-.3-6.4 1.55-6.69 9.18-6.37 15.14a.642.641 88.591 0 0 .64.61h16.87a.67.67 45 0 1 .67.67v27.36a.67.67 45 0 1-.67.67h-16.48a1.11 1.1 0 0 0-1.11 1.1v71.65a.62.62-45 0 1-.62.62h-37.26a.9.89 0 0 1-.9-.89v-71.63a.88.88-45.013 0 0-.88-.88H673.8a.77.76 90 0 1-.76-.77v-27.23a.63.62-90 0 1 .62-.63h13.12a.561.56-88.939 0 0 .56-.54c.31-8.29.61-16.47 3.19-23.85 6.14-17.5 26.7-17.59 41.61-16.55q10.61.75 19.73 1.95a.977.97-81.27 0 1 .83 1.14l-3.93 21.79a.699.698 6.234 0 1-.71.57M525.3 1065.88a.606.605-23.601 0 0 1.05.41q2.83-3.05 6.69-6.54 9.16-8.27 22.48-9.21c14.86-1.05 27.16 2.42 34.81 16.38a.485.485-38.469 0 0 .79.09q4.05-4.59 9.79-9.06 7.34-5.71 16.57-7.02c5.54-.78 12.42-.88 17.93.45 20.16 4.89 24.88 22.22 24.78 40.9q-.14 29.25.05 61.44a1.11 1.1 90 0 1-1.1 1.11h-36.97a.504.491 87.451 0 1-.49-.46q-.29-4.01-.29-8.62l-.03-50.49q-.02-10.18-8.97-13.59-4.66-1.77-10.13 1.14c-7 3.72-8.27 11.99-8.29 18.94q-.04 12.11.04 49 .01 2.16-.23 3.72a.408.404-85.894 0 1-.4.35h-37.29a.82.82-44.997 0 1-.82-.82q0-38.8-.1-59.56c-.05-10.15-8.81-16.81-18.36-12.05-7.19 3.59-8.67 11.6-8.78 19.12q-.23 16.4.02 52.33a.99.98 90 0 1-.98.99h-36.62a1.28 1.28 36.83 0 1-1.28-1.28v-100.08a.68.67-90 0 1 .67-.68h34.45a1.01 1 0 0 1 1.01 1zM869.4 1118.9a1.144 1.141-78.851 0 1 .97 1.45q-5.95 20.55-23.02 29.99-8.89 4.92-20.7 6.18-14.2 1.51-28.99-.62-12.37-1.78-20.65-6.88c-12.39-7.64-20.56-20.14-22.28-34.77-1.75-14.95-.16-30.25 8.77-42.75q3.54-4.96 10.76-10.73c13.49-10.79 34.18-11.34 50.17-9.86 7.74.71 17.07 2.87 24 7.16q14.97 9.27 20.02 27.02a.624.622 78.45 0 1-.52.79l-34.61 4.2a1.139 1.131-13.022 0 1-1.21-.75q-2.77-7.97-9.3-10.57-7.05-2.81-14.64-.71-11.39 3.14-14.46 16.71c-2.13 9.4-1.89 23.39 5.85 30.72q7.78 7.36 19.68 4.71c7.7-1.71 12.18-7.72 14.64-14.72a.824.818-76.913 0 1 .86-.54z" data-source="https://football-logos.cc"></path><!-- source: https://football-logos.cc --></svg>