<svg xmlns="http://www.w3.org/2000/svg" xmlns:xlink="http://www.w3.org/1999/xlink" viewBox="0 -0.04 769.92 516.53"><!-- Source: https://football-logos.cc --><defs data-source="https://football-logos.cc"><radialGradient id="a" cx="244.66" cy="234.25" r="230.84" gradientTransform="matrix(.99 0 0 .99 3.03 1.29)" gradientUnits="userSpaceOnUse"><stop offset="0" stop-color="#fff"></stop><stop offset="1" stop-color="#fff" stop-opacity="0"></stop></radialGradient><radialGradient xlink:href="#a" id="b" cx="404.11" cy="348.48" r="324.99"></radialGradient></defs><path d="M717.64 374.53c-20.7-46.53-45.87-11.21-59.83 2.42s-22.51 14.67-43.28 15.71-34.45-3.1-34.45-3.1a75.7 75.7 0 0 1-12.08-5.07c-5.25-2.71-9.74-6.44-14.57-9.73-1.58-1.08-3.14-2.22-4.67-3.39-7-4.7-15.1-10.43-24-17.33q-4.11-3.19-8.44-6.71c-38.25-31.15-49.29-25.24-67.43 7.49s-62.3 89.63-131.17 86.48-139.81-49.94-165.84-103.57c-24.2-49.88-6.67-120.12 8.59-151a8 8 0 0 0-2.82-10.28l-24.14-15.74L100 138.88C36.41 156 19.66 243.62 51.08 327.1c27.32 72.61 60.44 98.43 93.44 127.9s88.1 51.06 120.86 55.2 66-.39 104.88-13.8S427 464 454.05 437.23s45.94-33.91 80.73 8.67 36.57 57.17 77.38 57.17 28.24-4.67 70-9.46 68-3 68-3-11.82-69.55-32.52-116.08" style="fill:#01adf1"></path><path d="M231.68 513a1.8 1.8 0 0 1-1.11 3.42C183.91 503.83 91.89 468 40.31 373.46c-71.12-130.36-28-211-20.65-230.59l11 25.6a38.86 38.86 0 0 1 2.49 22.66c-3.85 20.26-11.33 65.4 2.48 116 18.67 68.34 63.13 134.58 129 173.09C196 498.57 216.7 507.29 231.68 513" style="fill:#01adf1"></path><path d="M270.81 65.13a29.23 29.23 0 0 0-10.34-11.66c-8-5.49-16-11-24.13-16.35-8.87-5.85-18.22-9.3-29.28-7.5-12 1.95-24 4-35.62 7.58a129 129 0 0 0-32.26 15.08 67.64 67.64 0 0 0-28.9 39.25c-2.58 8.93-3.61 18.09-4.76 27.28-.85 6.86 1.87 11.28 7.33 14.68 3.11 1.94 6.38 3.65 9.42 5.67 3.3 2.19 6.5 4.52 9.7 6.85s16.5 15.07 36.74 20.86 34.7-17.27 52.83-20.86 34.57.7 39.3-7.13 2.87-20.57 7-38.56c1.1-4.74 2.37-9.45 3.94-14.1a26.9 26.9 0 0 0 1.4-9.93 21.4 21.4 0 0 0-2.37-11.16M411.14 128.35c-4.32-18.11-14.43-32.33-29.5-43.09-11.78-8.4-25-13.22-39.26-15.38-13.69-2.08-27.42-1.44-41.14-.31-9.24.75-15.24 5.53-17.84 14.56-1.25 4.32-2.22 8.69-3.09 13.1-2.18 11.13-4.3 22.29-5.84 33.53-1 7.11.7 13.08 7.31 17.22 4.87 3 9.86 5.81 14.85 8.61a112.4 112.4 0 0 1 32.62 27.7c4.25 5.25 9.25 8.74 16.4 7.7 3.89-.56 7.6-1.89 11.42-2.79 12.74-3 25.48-6 38.25-8.94 7.71-1.77 12.51-6.49 14.74-14a73.6 73.6 0 0 0 2.92-22 59.7 59.7 0 0 0-1.84-15.91M109.11 65.47c.33-2.79-.55-4.06-3.17-5a13.7 13.7 0 0 0-3.71-.56c-2.74-.18-5.47 0-8.22-.46-11.34-1.84-20.8 1.49-28.51 10.2Q52.32 84.53 39.8 100c-6.28 7.71-9.28 16.62-9.25 27.85.13 8.87 2.71 18.57 5.86 28.12a7 7 0 0 0 2.86 4.18c2.47 1.42 5 .87 8.07-1.81a166 166 0 0 1 15.26-12.15 225 225 0 0 1 27-16.22 6.84 6.84 0 0 0 4.08-5.6c.41-3.34 1.25-6.62 2-9.91 2.9-12.86 6.92-25.46 10.54-38.08 1.03-3.62 2.44-7.15 2.89-10.91M240.14 28c6.29 4 12.5 8.06 18.5 12.48 6.95 5.12 13.51 10.71 20.24 16.11a9.51 9.51 0 0 0 7.9 2.11 204 204 0 0 1 25.76-2.49c10-.35 20.11-.61 30.16-.94 4.91-.16 7.13-2.52 7.05-7.78a20.7 20.7 0 0 0-.54-4.76c-.84-5.72-3.28-10.36-8.55-13.35-6.41-3.64-12.9-7.13-19.63-10.16-15-6.73-30.63-11.19-46.66-14.51-5.92-1.23-11.7-1.91-17.51.62-7.32 3.18-13.39 8.15-19.39 13.19-2.7 2.27-2.58 4.84-.14 7.36a15.5 15.5 0 0 0 2.81 2.12M98.88 49.43c5 .31 9.71 1.86 14.85 2a41.7 41.7 0 0 0 8.86-1.42c5.19-1.53 9.66-4.41 14.26-7.11a165.5 165.5 0 0 1 29.42-13.66 159.7 159.7 0 0 1 40.34-8.82 50.66 50.66 0 0 0 24.71-8.87 9.6 9.6 0 0 0 3.08-3.2c2.38-4.1 0-8.52-4.7-8.39-3.59.1-7.17.42-10.78.42-6.6 0-13.14 1-19.67 1.9a233 233 0 0 0-45.4 11.08 257.6 257.6 0 0 0-42.09 19.27c-4.56 2.59-9.06 5.31-13.52 8.07a4.7 4.7 0 0 0-2.41 5.2c.35 1.77 1.24 3.42 3.05 3.53" style="fill:#f4811f"></path><path d="M36.41 156c-3.15-9.55-5.73-19.24-5.86-28.13 0-11.22 3-20.13 9.24-27.84q12.57-15.46 25.71-30.4c7.71-8.72 17.16-12 28.51-10.2 2.75.44 5.48.28 8.22.46a13.4 13.4 0 0 1 3.71.56c2.62.95 3.5 2.24 3.17 5-.46 3.76-1.86 7.28-2.89 10.9-3.62 12.67-7.64 25.22-10.56 38.08-.74 3.29-1.57 6.57-2 9.91a6.84 6.84 0 0 1-4.08 5.6 225 225 0 0 0-27 16.22 168 168 0 0 0-15.26 12.13c-3.06 2.69-5.61 3.25-8.07 1.82a7 7 0 0 1-2.84-4.11M273.16 76.29a26.5 26.5 0 0 1-1.39 9.93c-1.57 4.65-2.84 9.36-3.94 14.1-4.12 18-2.27 30.75-7 38.56s-21.16 3.54-39.3 7.13-32.53 26.64-52.82 20.86S132 146 132 146c-3.2-2.32-6.4-4.64-9.7-6.84-3-2-6.31-3.73-9.42-5.66-5.46-3.41-8.18-7.83-7.33-14.68 1.14-9.2 2.18-18.36 4.76-27.3a67.64 67.64 0 0 1 28.9-39.24 129 129 0 0 1 32.23-15.08c11.64-3.62 23.61-5.63 35.62-7.58 11.06-1.8 20.41 1.65 29.28 7.5 8.11 5.35 16.11 10.86 24.13 16.35a29.16 29.16 0 0 1 10.34 11.66c1.65 3.55 2.76 7.31 2.35 11.16M237.34 25.92c-2.46-2.52-2.56-5.1.13-7.35 6-5.05 12.07-10 19.39-13.2 5.81-2.53 11.59-1.85 17.51-.62 16 3.31 31.7 7.78 46.66 14.51 6.73 3 13.22 6.51 19.64 10.16 5.25 3 7.7 7.64 8.54 13.34a22 22 0 0 1 .55 4.77c.07 5.25-2.15 7.62-7.07 7.78-10 .33-20.1.58-30.15.95a200 200 0 0 0-25.76 2.48 9.51 9.51 0 0 1-7.9-2.11c-6.72-5.39-13.29-11-20.24-16.11-6-4.42-12.21-8.5-18.5-12.49a14.6 14.6 0 0 1-2.8-2.11M342.38 69.88c14.23 2.16 27.49 7 39.26 15.39 15.07 10.76 25.18 25 29.51 43.09a60.8 60.8 0 0 1 1.84 15.9 73.7 73.7 0 0 1-2.94 22.05c-2.22 7.46-7 12.19-14.73 13.94-12.77 2.93-25.51 5.94-38.26 8.95-3.81.9-7.52 2.22-11.41 2.79-7.15 1-12.15-2.45-16.4-7.7a112.6 112.6 0 0 0-32.62-27.71c-5-2.79-10-5.56-14.85-8.61-6.61-4.12-8.28-10.1-7.31-17.2 1.54-11.25 3.66-22.41 5.85-33.54.86-4.4 1.83-8.78 3.09-13.1 2.6-9 8.62-13.81 17.83-14.57 13.76-1.12 27.46-1.76 41.14.32" style="fill:url(#a)"></path><path d="M750.17 490.65s-26.27-1.83-68 3-29.18 9.46-70 9.46-42.59-14.57-77.38-57.17-53.72-35.49-80.73-8.67-44.96 45.73-83.8 59.1-72.12 17.94-104.88 13.8-87.85-25.76-120.86-55.17-66.12-55.29-93.44-127.9C19.66 243.62 36.41 156 100 138.88l33.54 21.88 24.15 15.74a8 8 0 0 1 2.81 10.28c-15.27 30.83-32.79 101.07-8.59 151 26 53.63 97 100.42 165.87 103.57s113-53.76 131.17-86.48 29.18-38.64 67.43-7.49q4.33 3.53 8.44 6.71c8.86 6.9 16.91 12.63 24 17.33 1.53 1.17 3.09 2.31 4.67 3.39 4.83 3.29 9.32 7 14.57 9.73a75.7 75.7 0 0 0 12.09 5.07s13.67 4.15 34.45 3.1 29.33-2.06 43.28-15.71 39.13-48.95 59.83-2.42 32.46 116.07 32.46 116.07" style="fill:url(#a)"></path><path d="M230.57 516.37C183.91 503.83 91.89 468 40.31 373.47c-71.12-130.37-28-211-20.65-230.61l11 25.62a38.9 38.9 0 0 1 2.49 22.65c-3.85 20.26-11.33 65.4 2.49 116 18.66 68.34 63.12 134.58 129 173.09 31.36 18.34 52.05 27.07 67.04 32.78a1.8 1.8 0 0 1-1.11 3.37M95.83 45.94a4.7 4.7 0 0 1 2.41-5.2c4.47-2.76 9-5.48 13.52-8.08a258 258 0 0 1 42.1-19.26 233 233 0 0 1 45.38-11.08c6.54-.9 13.08-1.9 19.68-1.9 3.61 0 7.19-.32 10.78-.42 4.67-.13 7.08 4.29 4.7 8.39a9.8 9.8 0 0 1-3.07 3.2 50.83 50.83 0 0 1-24.73 8.87 159.7 159.7 0 0 0-40.33 8.82A165 165 0 0 0 136.85 43c-4.59 2.69-9.07 5.56-14.26 7.1a43 43 0 0 1-8.86 1.42c-5.14-.18-9.91-1.73-14.86-2-1.79-.2-2.69-1.85-3.04-3.58" style="fill:url(#a)"></path><path d="M717.64 374.53c-20.7-46.53-45.87-11.21-59.83 2.42s-22.51 14.67-43.28 15.71-34.45-3.1-34.45-3.1a75.7 75.7 0 0 1-12.08-5.07c-5.25-2.71-9.74-6.44-14.57-9.73-1.58-1.08-3.14-2.22-4.67-3.39-7-4.7-15.1-10.43-24-17.33q-4.11-3.19-8.44-6.71c-38.25-31.15-49.29-25.24-67.43 7.49s-62.3 89.63-131.17 86.48-139.81-49.94-165.84-103.57c-24.2-49.88-6.68-120.12 8.59-151a8 8 0 0 0-1.69-9.4H51.7c-21.1 37.24-21.44 94.39-.62 149.72 27.32 72.66 60.44 98.48 93.44 127.95s88.1 51.06 120.86 55.2 66-.39 104.88-13.8S427 464 454.05 437.23s45.94-33.91 80.73 8.67 36.57 57.17 77.38 57.17 28.24-4.67 70-9.46 68-3 68-3-11.82-69.55-32.52-116.08" style="fill:url(#b)"></path><path d="M231.68 513c-15-5.66-35.64-14.39-67.05-32.75-65.84-38.51-110.3-104.75-129-173.09-13.82-50.58-6.34-95.72-2.49-116a39 39 0 0 0 .12-13.75h-26C-3.35 216.13-9.18 282.74 40.31 373.47c51.58 94.53 143.6 130.36 190.26 142.9a1.8 1.8 0 0 0 1.11-3.37" style="fill:url(#b)"></path><path d="M763 204.72v46.56a6.21 6.21 0 0 1-6.21 6.21h-1.9a6.21 6.21 0 0 1-6.21-6.21v-18.53h-6.58v18.53a6.21 6.21 0 0 1-6.21 6.21h-1.7a6.21 6.21 0 0 1-6.21-6.21V244a12.81 12.81 0 0 0-12.79-12.78h-26.14v-5.26a6.22 6.22 0 0 1 6.21-6.21h23.92v-6.57h-23.92a12.8 12.8 0 0 0-12.78 12.78v11.83h32.72a6.22 6.22 0 0 1 6.21 6.21v7.33a6.21 6.21 0 0 1-6.21 6.21h-50.73a6.22 6.22 0 0 1-6.21-6.21v-12a6.22 6.22 0 0 1 6.21-6.21h6v-6.57h-6a12.79 12.79 0 0 0-12.78 12.78v12a12.79 12.79 0 0 0 12.78 12.78h50.73a12.76 12.76 0 0 0 9.5-4.25 12.76 12.76 0 0 0 9.5 4.25h1.7a12.74 12.74 0 0 0 9.5-4.23 12.74 12.74 0 0 0 9.5 4.23h1.9a12.79 12.79 0 0 0 12.78-12.78v-46.61Z" style="fill:#183867"></path><path d="M695.33 203.67h23.66v6.57h-23.66zM735.94 271.29h5.91v6.57h-5.91zM748.95 271.29h5.91v6.57h-5.91zM450.73 271.29h5.91v6.57h-5.91zM418.13 271.29h5.91v6.57h-5.91zM463.74 271.29h5.91v6.57h-5.91zM626.32 271.29h5.91v6.57h-5.91zM574.47 213.53h5.91v6.57h-5.91zM516.64 219.84h5.91v6.57h-5.91zM347.55 216.09h5.91v6.57h-5.91zM587.48 213.53h5.91v6.57h-5.91zM632.17 251.28v-18.53h-6.57v18.53a6.21 6.21 0 0 1-12.42 0v-18.53h-6.57v32.3a5.92 5.92 0 0 1-5.92 5.91v6.57a12.5 12.5 0 0 0 12.49-12.48v-2.6a12.78 12.78 0 0 0 19-11.17ZM259.62 251.28a6.21 6.21 0 0 1-12.42 0v-18.53h-6.57v18.53a6.21 6.21 0 0 1-12.42 0v-18.53h-6.57v18.53a6.22 6.22 0 0 1-6.21 6.21h-26.12v6.57h26.12a12.78 12.78 0 0 0 9.5-4.25 12.73 12.73 0 0 0 19 0 12.77 12.77 0 0 0 22.28-8.53v-18.53h-6.58ZM580.65 251.28a6.21 6.21 0 1 1-12.42 0v-18.53h-6.57v32.3a5.92 5.92 0 0 1-5.92 5.91v6.57a12.5 12.5 0 0 0 12.49-12.48v-2.6a12.78 12.78 0 0 0 19-11.17v-18.53h-6.57ZM285.81 265.05a5.92 5.92 0 0 1-5.91 5.95v6.57a12.5 12.5 0 0 0 12.48-12.48v-32.3h-6.57Z" style="fill:#183867"></path><path d="M529.29 232.65h-32.1v6.57h32.1a6.22 6.22 0 0 1 6.21 6.21v5.85a6.21 6.21 0 0 1-6.21 6.21h-38.18a6.22 6.22 0 0 1-6.21-6.21v-51h-6.57v51a6.22 6.22 0 0 1-6.21 6.21h-2.3a6.21 6.21 0 0 1-6.21-6.21v-18.53H457v18.53a6.22 6.22 0 0 1-6.21 6.21h-1.91a6.22 6.22 0 0 1-6.21-6.21V245a12.79 12.79 0 0 0-12.78-12.78H398v6.57h31.91a6.22 6.22 0 0 1 6.21 6.21v6.24a6.22 6.22 0 0 1-6.21 6.21H404a12.8 12.8 0 0 0-12.78 12.78v7.26h6.57v-7.26a6.22 6.22 0 0 1 6.21-6.21h26a12.74 12.74 0 0 0 9.49-4.23 12.77 12.77 0 0 0 9.5 4.23h1.91a12.74 12.74 0 0 0 9.49-4.23 12.74 12.74 0 0 0 9.5 4.23h2.3a12.74 12.74 0 0 0 9.49-4.23 12.77 12.77 0 0 0 9.5 4.23h38.18a12.79 12.79 0 0 0 12.78-12.78v-5.85a12.79 12.79 0 0 0-12.85-12.74M364.08 228.64h-22.49a12.86 12.86 0 0 0-12.78 12.49l-.22 9.86a12.57 12.57 0 0 0 1.6 6.5h-11.78a6.21 6.21 0 0 1-6.21-6.21v-51h-6.57v51a12.79 12.79 0 0 0 12.78 12.78h45.67a12.79 12.79 0 0 0 12.78-12.78v-9.86a12.8 12.8 0 0 0-12.78-12.78m6.21 22.64a6.21 6.21 0 0 1-6.21 6.21h-22.72a6.2 6.2 0 0 1-6.2-6.35l.22-9.86a6.25 6.25 0 0 1 6.21-6.07h22.49a6.22 6.22 0 0 1 6.21 6.21Z" style="fill:#183867"></path><path d="M564.88 303.46a20 20 0 0 0 .06 3.12 1.51 1.51 0 0 0 1.1 1q6.12.12 12.26 0c.35 0 .82-.62 1-1.05a4.2 4.2 0 0 0 0-1.52h2c.67 3.39-.53 4.85-4 4.86s-6.93 0-10.39 0c-3.27 0-4.29-1-4.29-4.19v-6.76c0-2.08.92-3.06 3-3.08q6.87-.06 13.75 0c1.86 0 2.65.88 2.69 2.74v3.19c0 1.06-.46 1.66-1.67 1.65h-14c-.39-.03-.9.01-1.51.04m15-2.29V298h-14.2a1 1 0 0 0-.74.69 20 20 0 0 0 0 2.48ZM654.56 303.39a20.7 20.7 0 0 0 .05 3.18 1.51 1.51 0 0 0 1.08 1c4.09.08 8.18.06 12.27.06.71 0 1.08-.34 1-1.07v-1.55h2c.71 3.28-.51 4.84-3.85 4.85h-10.66c-3.15 0-4.16-1.05-4.16-4.17v-6.63c0-2.25.9-3.22 3.13-3.24h13.49c2 0 2.81.85 2.84 2.87v2.79c0 1.75-.16 1.91-1.91 1.91zm15-5.43H657.3c-2.91 0-2.91 0-2.71 2.89 0 .08.08.15.14.26h14.83ZM752.73 303.45a20 20 0 0 0 .06 3.13 1.5 1.5 0 0 0 1.09 1c4.09.08 8.18.06 12.27.06a.92.92 0 0 0 1-1.08v-1.54h2c.68 3.32-.52 4.84-3.87 4.85h-10.52c-3.28 0-4.3-1-4.3-4.18v-6.77c0-2.08.92-3.06 3-3.08q6.88-.06 13.76 0c1.86 0 2.65.88 2.7 2.74v3.05c0 1.57-.2 1.77-1.79 1.77h-13.82c-.48-.01-.96.03-1.58.05m.15-2.33h14.83V298h-12.33c-2.97 0-3.01 0-2.5 3.12" style="fill:#f4811f"></path><path d="M215.5 303.39c-.26 4.86-.4 4.21 3.55 4.26h9.86c2 0 2 0 2.05-2 0-.21 0-.42.08-.69h1.9c.84 3.07-.45 4.84-3.64 4.87h-12c-3.05 0-4.08-1.09-4.08-4.12v-6.9c0-2 .94-3 2.94-3h15c1.79 0 2.58.89 2.62 2.68v3.18c.08 1.26-.47 1.73-1.74 1.72h-15Zm.07-2.27h15.91V298h-13.41c-2.87 0-2.87 0-2.64 2.84a1.2 1.2 0 0 0 .14.28" style="fill:#01adf1"></path><path d="M505.8 303.39a20.7 20.7 0 0 0 .05 3.18 1.51 1.51 0 0 0 1.08 1c4.09.08 8.18.06 12.27.06.71 0 1.08-.34 1-1.07v-1.55h2c.71 3.29-.51 4.84-3.85 4.85h-10.66c-3.15 0-4.16-1.05-4.16-4.17v-6.64c0-2.24.9-3.21 3.13-3.23h13.49c2 0 2.81.85 2.84 2.87v2.79c0 1.75-.16 1.91-1.91 1.91zm.09-2.29h14.86V298h-12.22c-2.97 0-2.97 0-2.64 3.1" style="fill:#f4811f"></path><path d="M294.56 299.09h-1.92c-.57-2.75.64-3.24 3.36-3.26h15.68c1.18 0 1.61.51 1.61 1.6v10.87c0 1.19-.56 1.65-1.74 1.64h-17.07c-1.29 0-1.79-.54-1.76-1.75v-6.7c0-1.24.49-1.74 1.77-1.73 4.27.05 10.65 0 14.92 0H311V298h-15.17c-1.56 0-.98.21-1.27 1.09m.5 2.87v5.69h15.87V302Z" style="fill:#01adf1" data-source="https://football-logos.cc"></path><path d="M682.11 300.19h-1.91c-.57-2.75.64-4.34 3.36-4.36h12.39c1.18 0 1.62.51 1.61 1.6v10.87c0 1.19-.56 1.65-1.74 1.64h-15c-1.29 0-1.78-.54-1.76-1.75v-4.51c0-1.24.5-1.74 1.78-1.73 4.26.05 8.53 0 12.8 0h1.55v-4h-11.88c-1.48.05-.91 1.36-1.2 2.24m13.14 4h-13.8v3.48h13.8ZM703.73 313.61h2c-.28 1.95 1.13 1.67 2.33 1.67h11.14v-4.66h-12.830000000000002c-2.6 0-3.58-1-3.6-3.52v-8.3a2.83 2.83 0 0 1 3.06-3h14.15c1.11 0 1.53.49 1.52 1.53v18.68c0 1.09-.53 1.5-1.57 1.5h-12.81c-2.64-.08-3.7-1.33-3.39-3.9M719.22 298h-13.09c-.8 0-1.17.33-1.17 1.09v7.77c-.19 1.3.4 1.69 1.68 1.67 3.81-.06 7.64 0 11.46 0 .38 0 .76-.06 1.14-.09ZM540 296.68a44 44 0 0 1 4.53-.8 40 40 0 0 1 5 0c2.78.15 4.17 1.6 4.2 4.33v9.86h-2.15c0-.46-.07-.93-.07-1.39v-8.36c0-1.68-.45-2.21-2.09-2.28q-3-.14-5.93 0c-1.83.09-2.32.71-2.32 2.54v9.48h-2.27v-9.8c0-1.3-.6-2.09-1.86-2.14-2.19-.1-4.4-.11-6.6 0-1.32.06-1.93.88-1.91 2.24v9.72h-2.21v-9.75c0-2.56 1-4 3.51-4.24a49 49 0 0 1 7.65 0 8.7 8.7 0 0 1 2.5.88Z" style="fill:#f4811f"></path><path d="M262.27 304.82h1.88a1 1 0 0 1 .11.2c.33 2.5.33 2.5 3 2.5h9.84c1.07 0 1.72-.42 1.41-1.49a1.79 1.79 0 0 0-1.21-.92c-3.64-.74-7.31-1.4-11-2.09-.48-.09-1-.16-1.45-.28a3.35 3.35 0 0 1-2.72-3.85 3.14 3.14 0 0 1 3.39-3.05h11.2c3.37 0 4.39 1.14 4.06 4.67l-1.84.09c-.13-.17-.22-.23-.23-.31-.29-2.31-.29-2.31-2.73-2.31h-9.84c-.83 0-1.66 0-1.78 1.11s.47 1.46 1.46 1.64q6 1.1 12 2.27c2.35.46 3.1 1.57 2.86 4-.18 1.73-1.37 2.67-3.53 2.69h-10.92c-3.37-.03-4.55-1.44-3.96-4.87M378.48 299.42c-.92-.12-2 .56-2.34-.9-.07-.27-.83-.5-1.27-.51h-12.14c-1 0-1.59.39-1.57 1.49v6.64c0 1 .45 1.45 1.46 1.45h11.87c2.14 0 2.45-.61 2.16-3.66h-8.49v-2.11c.29 0 .55-.08.81-.08h9.93c0 1.77.1 3.45 0 5.1a3.47 3.47 0 0 1-3.46 2.84q-6.81.17-13.62 0a2.86 2.86 0 0 1-2.8-3c-.05-2.52-.05-5.05 0-7.57a3 3 0 0 1 3.13-3.16c4.45-.08 8.9-.09 13.35 0 1.93-.01 2.93 1.25 2.98 3.47M191 310h-2.12v-14.1c.43 0 .83-.06 1.22-.06h14.42c2.78 0 3.75 1 3.76 3.64v-.2c0 2.66-1 3.66-3.77 3.66H191Zm.06-12v2.73c.51 0 1 .06 1.39.06h10.08c4.21 0 3.57.12 3.57-1.59 0-.85-.35-1.21-1.2-1.21Z" style="fill:#01adf1"></path><path d="M456.74 310h-2.12v-14.1c.43 0 .82-.06 1.21-.06h14.42c2.79 0 3.75 1 3.76 3.64v-.2c0 2.66-1 3.66-3.77 3.66h-13.5Zm.06-12v2.73c.51 0 .94.06 1.38.06h10.09c4.2 0 3.56.12 3.56-1.59 0-.85-.35-1.21-1.19-1.21Z" style="fill:#f4811f"></path><path d="M437.63 295.85V298h-15.91c-2.27 0-2.27 0-2.26 2.19v1.43h14.17v2.19h-14.16v6h-2.13a6 6 0 0 1-.12-.86v-9.54c0-2.48 1.12-3.58 3.61-3.59 5.56.01 11.17.03 16.8.03M382.8 295.6h2.14v10.64c0 .81.36 1.26 1.19 1.26h13.21c1.1 0 1.29-.72 1.29-1.62v-10.3h2.2v10.709999999999999c0 2-1.12 3.27-3.09 3.31-4.67.09-9.35.07-14 0a2.66 2.66 0 0 1-2.86-2.48c-.16-3.79-.08-7.62-.08-11.52" style="fill:#01adf1"></path><path d="M726.18 295.59h2.06c0 .48.07 1 .07 1.41v8.88c0 1.19.41 1.7 1.63 1.69h12.4c1.19 0 1.7-.45 1.69-1.66v-10.28h2.2v10.72c-.05 2-1.13 3.27-3.1 3.3-4.63.09-9.26.07-13.88 0-1.7 0-2.94-1-3-2.5-.15-3.83-.07-7.66-.07-11.56" style="fill:#f4811f"></path><path d="M318.5 310.11h-2.09a8 8 0 0 1-.12-1v-8.62c0-2.87 1.6-4.55 4.58-4.59q6.33-.08 12.68 0c3 0 4.53 1.66 4.55 4.59v9.61H336c0-.43-.06-.89-.06-1.35v-8.23c0-1.75-.57-2.42-2.28-2.45q-6.42-.09-12.82 0c-1.72 0-2.28.67-2.3 2.43v8.1Z" style="fill:#01adf1"></path><path d="M630.94 295.87h2.13v2.35c0 2.65.07 5.3 0 7.95 0 1.33.45 1.64 1.71 1.63 5.16-.06 10.32 0 15.59 0v2.05a2 2 0 0 1-.46.1H634c-1.78 0-3-.76-3-2.22-.14-3.95-.06-7.88-.06-11.86" style="fill:#f4811f"></path><path d="M288.27 310h-2v-13.68h2Z" style="fill:#01adf1"></path><path d="M559.15 310h-2v-13.68h2Z" style="fill:#f4811f"></path><path d="M286.18 294.88v-2.49h2.07v2.49Z" style="fill:#01adf1"></path><path d="M557.08 294.85v-2.48h2.08v2.48Z" style="fill:#f4811f"></path><path d="M253.25 295.88c-2.65-.05-6.41-.05-9.06 0h-8.32V309c0 .37.05.75.08 1.16h2.13V298h14.06c2.75 0 3 .18 3.88 2.73l1.89-.08c.09-3-1.59-4.65-4.66-4.77" style="fill:#01adf1"></path><path d="M497.14 295.88c-2.65-.05-6.41-.05-9.06 0h-8.32V309c0 .37.05.75.08 1.16H482V298h14.030000000000001c2.75 0 3 .18 3.87 2.73l1.9-.08c.06-3-1.59-4.65-4.66-4.77M604.82 295.88c-2.65-.05-6.4-.05-9.05 0h-8.32V309c0 .37.06.75.09 1.16h2.13V298h14.040000000000001c2.74 0 3 .18 3.87 2.73l1.9-.08c.06-3-1.58-4.65-4.66-4.77" style="fill:#f4811f"></path><path d="M406.89 288.72h2.02v20.98h-2.02zM413.94 301.62h9.41v2.18h-9.41z" style="fill:#01adf1" data-source="https://football-logos.cc"></path><!-- source: https://football-logos.cc --></svg>