<svg xmlns="http://www.w3.org/2000/svg" fill="none" viewBox="0 0 150.09 150"><!-- Source: https://football-logos.cc --><g clip-path="url(#a)" data-source="https://football-logos.cc"><path fill="#0095D6" fill-rule="evenodd" d="M13.317 75.125a61.84 61.84 0 0 0 38.171 57.127 61.83 61.83 0 0 0 67.386-13.404A61.835 61.835 0 1 0 13.317 75.125m61.834 58.986a58.99 58.99 0 0 1-57.855-47.479 58.987 58.987 0 1 1 99.564 30.202 58.8 58.8 0 0 1-41.707 17.277z" clip-rule="evenodd"></path><path fill="#003E83" d="M118.019 32.26a60.616 60.616 0 0 0-76.542-7.538 60.62 60.62 0 1 0 94.297 50.403 60.44 60.44 0 0 0-17.755-42.864M75.153 12.073a63.05 63.05 0 0 1 61.844 50.752 63.058 63.058 0 0 1-80.145 72.641A63.052 63.052 0 0 1 30.568 30.541a62.85 62.85 0 0 1 44.585-18.469"></path><path fill="#003E83" d="M115.142 35.136a56.556 56.556 0 0 0-94.11 23.571 56.554 56.554 0 1 0 110.673 16.418 56.36 56.36 0 0 0-16.563-39.989m-39.99-18.997a58.988 58.988 0 0 1 52.025 86.79 58.986 58.986 0 1 1-93.733-69.513A58.8 58.8 0 0 1 75.153 16.14"></path><path fill="#fff" fill-rule="evenodd" d="M115.142 35.136a56.555 56.555 0 0 0-94.11 23.57 56.554 56.554 0 1 0 110.673 16.419 56.36 56.36 0 0 0-16.563-39.99m-41.94 78.719a38.78 38.78 0 0 1-33.148-22.25A38.78 38.78 0 0 1 44.11 51.89c.324-2.236.592-3.556.595-3.572l.08-.407.367-.269a26.4 26.4 0 0 1 6.422-3.299 38.784 38.784 0 0 1 47.162.003 27 27 0 0 1 6.412 3.292l.371.267.081.412c0 .016.272 1.336.595 3.571a38.78 38.78 0 0 1 4.057 39.717 38.78 38.78 0 0 1-33.149 22.248c-.642.347-1.097.583-1.32.696l-.63.322-.631-.322c-.222-.115-.678-.35-1.32-.697z" clip-rule="evenodd"></path><path fill="#0095D6" fill-rule="evenodd" d="M49.456 100.823a36.342 36.342 0 1 0-10.644-25.698 36.23 36.23 0 0 0 10.644 25.698" clip-rule="evenodd"></path><path fill="#003E83" d="M100.851 49.427a36.345 36.345 0 0 0-45.888-4.52 36.341 36.341 0 1 0 56.532 30.218 36.23 36.23 0 0 0-10.644-25.698M75.153 36.35a38.777 38.777 0 1 1-27.417 11.355A38.65 38.65 0 0 1 75.154 36.35"></path><path fill="#fff" d="M104.351 48.509c-12.434-8.982-46.479-8.728-58.396 0 0 0-4.743 23.368 1.582 40.326 4.793 12.849 25.626 23.717 27.616 24.731 1.99-1.014 22.824-11.884 27.617-24.731 6.324-16.958 1.581-40.327 1.581-40.327"></path><path fill="#003E83" d="M75.207 40.737c11.729 0 23.533 2.267 29.943 6.898l.37.267.081.411c.014.069 4.798 23.637-1.63 40.874-2.487 6.67-9.056 12.767-15.257 17.321a101 101 0 0 1-12.93 8.039l-.63.321-.631-.321a101 101 0 0 1-12.93-8.038c-6.201-4.556-12.767-10.649-15.257-17.321-6.43-17.238-1.647-40.806-1.631-40.873l.08-.408.366-.268c6.237-4.568 18.16-6.903 30.056-6.903m27.974 8.387c-6.021-4.112-16.985-6.126-27.974-6.126-11.144 0-22.212 2.07-28.081 6.122-.593 3.182-4.127 23.976 1.612 39.359 2.305 6.177 8.55 11.943 14.462 16.287a100 100 0 0 0 11.953 7.49 100 100 0 0 0 11.954-7.49c5.912-4.344 12.157-10.108 14.462-16.287 5.734-15.374 2.207-36.156 1.612-39.355"></path><path fill="#B0B3B4" d="m103.202 49.067.345.254.077.394c.013.064 4.486 22.513-1.525 38.931-2.327 6.357-8.466 12.162-14.26 16.498a94 94 0 0 1-12.097 7.656l-.588.306-.588-.306a94 94 0 0 1-12.096-7.656c-5.794-4.336-11.934-10.14-14.261-16.498-6.013-16.417-1.54-38.865-1.527-38.932l.076-.388.341-.255c6.909-5.155 19.628-6.558 28.053-6.571 8.492 0 21.03 1.4 28.05 6.566zm-1.841 1.417c-7.006-4.874-18.318-5.835-26.21-5.835-10.403.006-20.727 1.978-26.205 5.831-.553 3.03-3.86 22.838 1.507 37.493 2.154 5.884 7.996 11.374 13.527 15.514a93 93 0 0 0 11.173 7.134 93 93 0 0 0 11.173-7.133c5.53-4.14 11.374-9.633 13.527-15.514 5.363-14.647 2.064-34.443 1.508-37.489z"></path><path fill="#003E83" d="M122.099 59.426a4.73 4.73 0 0 0 .588-5.974 4.736 4.736 0 0 0-5.745-1.742 4.732 4.732 0 1 0 5.157 7.716m-4.805-7.286 1.277 1.059v1.385l-1.204.985-1.386-.582-.549-1.461a4.2 4.2 0 0 1 1.862-1.386m4.231 2.81-1.388.587-1.204-.95V53.2l1.278-1.06a4.4 4.4 0 0 1 1.861 1.387zm1.423 1.312a4.2 4.2 0 0 1-.765 2.227l-1.53-.073-.877-.912.476-1.605 1.275-.549zm-3.465 1.462.875.875-.401 1.496a4.2 4.2 0 0 1-1.204.181 4.4 4.4 0 0 1-1.205-.181l-.401-1.533.839-.838zm-3.539-2.374 1.277.55.474 1.567-.912.95-1.46.072a4.2 4.2 0 0 1-.765-2.227zM31.303 51.35a4.73 4.73 0 1 0 .003 9.46 4.73 4.73 0 0 0-.003-9.46m-1.458.79 1.276 1.059v1.385l-1.203.953-1.384-.588-.548-1.424a4.4 4.4 0 0 1 1.859-1.385m-1.311 3.21 1.276.55.475 1.604-.876.912-1.53.073a4.17 4.17 0 0 1-.765-2.227zm2.041 2.374h1.497l.84.838-.401 1.533a4.4 4.4 0 0 1-1.205.181 4.2 4.2 0 0 1-1.204-.181l-.404-1.498zm.913-3.14V53.2l1.277-1.06a4.2 4.2 0 0 1 1.862 1.387l-.549 1.46-1.386.583zm.877 2.883.47-1.567 1.277-.55 1.387.913a4.17 4.17 0 0 1-.765 2.227l-1.46-.073zM27.44 72.67a2.14 2.14 0 0 0-2.309-2.187c-1.358 0-2.163.817-2.236 2.416h1.539c.024-.566.289-.877.721-.877a.66.66 0 0 1 .66.732c0 1.407-3.004 2.609-3.004 5.277v1.01h4.664v-1.515H24.53c0-1.274 2.91-2.704 2.91-4.856M30.732 70.508c-1.514 0-2.416.95-2.416 2.56v3.558c0 1.598.902 2.536 2.416 2.536 1.53 0 2.429-.938 2.429-2.536V73.07c0-1.613-.902-2.562-2.429-2.562m.866 6.118c0 .673-.3 1.022-.866 1.022-.565 0-.853-.349-.853-1.022V73.07c0-.685.288-1.045.853-1.045s.866.36.866 1.045zM125.729 76.122c.341.003.674-.102.95-.301v1.059c0 .492-.252.709-.661.709s-.601-.276-.648-.721h-1.634a2.3 2.3 0 0 0 1.422 2.116 2.296 2.296 0 0 0 3.167-2.128v-4.06a2.32 2.32 0 1 0-4.64 0v1.19a2.02 2.02 0 0 0 .554 1.516 2 2 0 0 0 1.49.62m-.396-3.318a.663.663 0 0 1 .171-.522.677.677 0 0 1 1.175.522v1.059c0 .48-.252.769-.685.769-.421 0-.661-.288-.661-.769zM120.357 79.152c1.526 0 2.428-.937 2.428-2.536v-3.558c0-1.611-.902-2.56-2.428-2.56-1.515 0-2.417.949-2.417 2.56v3.558c0 1.599.903 2.536 2.417 2.536m-.854-6.094c0-.686.288-1.046.854-1.046.565 0 .865.36.865 1.046v3.558c0 .673-.3 1.022-.865 1.022-.566 0-.854-.35-.854-1.022z"></path><path fill="#003E83" fill-rule="evenodd" d="M99.292 75.125a24.138 24.138 0 1 0-48.277-.001 24.138 24.138 0 0 0 48.277.001m-24.139 21.71a21.71 21.71 0 1 1 0-43.42 21.71 21.71 0 0 1 0 43.42" clip-rule="evenodd"></path><path fill="#003E83" fill-rule="evenodd" d="m65.58 93.263 10.378-38.728-14.873 8.11 2.822 1.63-5.798 21.638zM72.242 71.33l-2.032 7.588h7.855l2.033-7.588zM84.753 56.887 74.35 95.712l10.162-2.745 5.797-21.638h3.259z" clip-rule="evenodd"></path><path fill="#003E83" d="m40.41 34.66 7.464 7.679-1.568 1.524-3.039-3.125-1.58 1.535 3.04 3.125-1.57 1.525-7.463-7.678 1.569-1.524 2.985 3.07 1.58-1.535-2.986-3.07zM53.08 36.256l1.14 1.721-4.73 3.135-5.915-8.925 4.603-3.05 1.14 1.72-2.792 1.853 1.226 1.85 2.537-1.683 1.098 1.657-2.537 1.681 1.31 1.977zM55.928 36.312a3.49 3.49 0 0 1-1.824-2.006l-1.637-3.824a3.49 3.49 0 0 1-.192-2.707 3.38 3.38 0 0 1 1.955-1.81 3.1 3.1 0 0 1 2.535-.117 3.83 3.83 0 0 1 1.833 2.01l-1.996.852a1.8 1.8 0 0 0-.672-.852.99.99 0 0 0-.876.033 1.06 1.06 0 0 0-.651.636c-.078.36-.026.735.146 1.06l1.637 3.83c.115.352.353.651.67.845a1.1 1.1 0 0 0 .92-.045 1.14 1.14 0 0 0 .69-.647 1.53 1.53 0 0 0-.142-1.071l-.302-.706-1.18.506-.759-1.766 3.15-1.353 1.06 2.475c.404.852.467 1.825.176 2.721a3.25 3.25 0 0 1-1.894 1.775 3.35 3.35 0 0 1-2.647.161M68.137 30.979l.46 2.012-5.53 1.267L60.68 23.82l5.383-1.232.46 2.013-3.265.747.495 2.162 2.967-.68.444 1.942-2.968.68.53 2.31zM75.48 30.43l.126 2.059-5.344.327-.655-10.688 2.17-.13.529 8.626zM87.412 23.11l-1.54 10.596-2.105-.305.38-2.604.726-3.836-.07-.041-1.359 2.647-.739 1.361-2.117-.308-.321-1.515-.548-2.926-.08.02-.412 3.882-.379 2.604-2.088-.304 1.54-10.596 2.164.315 1.079 4.256q.356 1.474.428 1.948l.059.009q.203-.434.965-1.745l2.248-3.77zM92.06 34.152l-2.115-.81-.963 1.53-2.1-.805 6.232-9.079 2.171.832-1.432 10.918-2.1-.805zm.339-2.081.21-1.23q.22-1.177.65-2.896l-.059-.022q-.981 1.834-1.45 2.589l-.667 1.054zM100.539 28.203l1.814 1.139-.748 5.02a51 51 0 0 1-.221 1.072l-.222 1.07.063-.014q.405-.902.976-1.97t.986-1.73l1.317-2.098 1.814 1.139-5.693 9.068-1.814-1.139.675-4.471.576-2.727-.064.014q-.417.894-1.052 2.049t-1.13 1.945l-1.156 1.839-1.813-1.138zM109.625 34.416l1.542 1.486-1.761 4.76q-.176.426-.435 1l-.436 1.005h.065q.58-.801 1.358-1.73t1.319-1.49l1.719-1.785 1.542 1.485-7.428 7.717-1.542-1.486 1.575-4.236 1.121-2.553h-.064a33 33 0 0 1-1.45 1.79 43 43 0 0 1-1.504 1.674l-1.507 1.564-1.542-1.486zM38.105 99.6l-1.844 1.231 1.563 2.341-1.654 1.104-1.563-2.34-3.689 2.464-1.207-1.806 8.904-5.947 2.942 4.4-1.719 1.145zM35.541 109.297a3.75 3.75 0 0 1 1.311-2.516l2.726-2.595A3.75 3.75 0 0 1 42.155 103a3.844 3.844 0 0 1 3.523 3.701 3.75 3.75 0 0 1-1.312 2.515l-2.725 2.595a3.76 3.76 0 0 1-2.578 1.186 3.843 3.843 0 0 1-3.522-3.7m3.502 1.46a1.86 1.86 0 0 0 1.048-.575l2.725-2.595a1.84 1.84 0 0 0 .625-1.018 1.27 1.27 0 0 0-.767-1.224 1.3 1.3 0 0 0-.498-.105c-.404.07-.772.273-1.048.575l-2.725 2.594c-.316.261-.536.62-.626 1.02a1.27 1.27 0 0 0 1.266 1.329zM42.713 116.169a3.75 3.75 0 0 1 .815-2.717l2.189-3.06a3.76 3.76 0 0 1 2.308-1.65 3.847 3.847 0 0 1 4.156 2.972 3.76 3.76 0 0 1-.815 2.718l-2.19 3.059a3.76 3.76 0 0 1-2.307 1.648 3.846 3.846 0 0 1-4.156-2.973zm3.714.776c.383-.144.707-.412.92-.761l2.19-3.059c.26-.316.41-.709.423-1.118a1.28 1.28 0 0 0-.52-.851 1.27 1.27 0 0 0-.973-.216 1.84 1.84 0 0 0-.92.761l-2.19 3.059a1.84 1.84 0 0 0-.422 1.118 1.28 1.28 0 0 0 .983 1.059q.254.056.51.009zM58.992 116.614l-1.892-.9-3.717 7.803-2.016-.961 3.716-7.803-1.891-.9.887-1.865 5.8 2.762zM65.07 122.692c.105.453.093.926-.036 1.372a3.4 3.4 0 0 1-.843 1.504 2.85 2.85 0 0 1-1.378.78 3.3 3.3 0 0 1-1.677-.059l-3.254-.913 2.893-10.31 3.21.901c.499.131.952.395 1.311.765.343.362.577.813.675 1.301a3.4 3.4 0 0 1-.084 1.629c-.113.4-.304.772-.562 1.098-.24.317-.546.578-.897.765.32.32.543.725.642 1.167m-2.182.754a1.14 1.14 0 0 0-.071-.933 1.32 1.32 0 0 0-.819-.539l-.839-.235-.633 2.253.796.223q1.251.352 1.565-.769m-.575-5.817-.604 2.15.824.232a.85.85 0 0 0 .748-.093c.236-.193.398-.461.46-.76a1.18 1.18 0 0 0-.015-.854.99.99 0 0 0-.664-.464zM71.015 126.235l-2.252-.229-.53 1.729-2.236-.228 3.643-10.392 2.313.236 1.47 10.913-2.235-.229zm-.217-2.099-.118-1.242a52 52 0 0 1-.128-2.965l-.059-.007q-.47 2.028-.723 2.879l-.368 1.192zM81.334 125.821l.123 2.059-5.344.319-.637-10.689 2.168-.129.514 8.627zM88.89 124.325l.432 2.019-5.236 1.118-2.236-10.473 2.124-.454 1.806 8.452zM96.07 123.162a3.54 3.54 0 0 1-1.906-1.919l-1.833-3.735a3.57 3.57 0 0 1-.357-2.706 3.25 3.25 0 0 1 1.8-1.889 3.3 3.3 0 0 1 1.279-.417c.45-.049.906-.005 1.34.129a3.78 3.78 0 0 1 1.98 1.916l-1.95.957a1.72 1.72 0 0 0-.765-.799 1.17 1.17 0 0 0-.966.118q-.935.457-.327 1.693l1.834 3.735q.593 1.209 1.526.75a1.24 1.24 0 0 0 .697-.699 1.6 1.6 0 0 0-.137-1.075l1.951-.957a3.55 3.55 0 0 1 .301 2.714 3.44 3.44 0 0 1-1.883 1.912 3.23 3.23 0 0 1-2.585.272M107.323 114.786l1.203 1.679-4.354 3.118-6.236-8.707 1.765-1.265 5.033 7.026zM110.242 113.923a3.72 3.72 0 0 1-2.49-1.252l-5.118-5.199 1.58-1.556 5.119 5.198c.255.299.601.506.985.589a1.17 1.17 0 0 0 1.138-.732c.059-.149.087-.309.082-.47a1.8 1.8 0 0 0-.57-.994l-5.119-5.2 1.58-1.555 5.119 5.198a3.7 3.7 0 0 1 1.214 2.508 3.67 3.67 0 0 1-3.52 3.467zM116.981 99.913c.463.045.907.209 1.289.475.488.321.885.762 1.151 1.282a2.86 2.86 0 0 1 .295 1.556 3.3 3.3 0 0 1-.595 1.569l-1.912 2.788-8.829-6.06 1.886-2.75c.284-.43.68-.774 1.146-.995a2.64 2.64 0 0 1 1.45-.22 3.4 3.4 0 0 1 1.516.603c.341.236.632.537.857.886.224.33.373.703.435 1.096.406-.2.861-.28 1.311-.23m-5.681.98 1.842 1.264.484-.706a.85.85 0 0 0 .154-.738 1.32 1.32 0 0 0-.573-.68 1.18 1.18 0 0 0-.812-.262.98.98 0 0 0-.654.48zm5.693 1.328a1.14 1.14 0 0 0-.907-.233 1.32 1.32 0 0 0-.773.6l-.493.72 1.929 1.324.467-.681q.736-1.072-.223-1.73"></path><path fill="#B0B3B4" d="M145.631 81.755a10.6 10.6 0 0 1 1.042 4.439v1.877l1.097-1.523c1.788-2.484 2.561-4.848 2.259-7.256-.3-2.385-1.656-4.771-4.127-7.318l-.137-.14a70 70 0 0 0-.636-6.767l.176.236a10.6 10.6 0 0 1 2.115 4.036l.471 1.82.682-1.752c1.112-2.85 1.27-5.332.373-7.589-.882-2.225-2.777-4.189-5.778-6.03a70 70 0 0 0-2.258-6.66q.142.117.283.23a10.6 10.6 0 0 1 3.041 3.398l.903 1.651.236-1.868c.379-3.032-.077-5.478-1.499-7.45-1.383-1.918-3.67-3.346-6.969-4.392a70 70 0 0 0-3.677-5.884l.18.096a10.6 10.6 0 0 1 3.636 2.75l1.201 1.445-.129-1.874c-.211-3.052-1.127-5.365-2.899-7.027-1.754-1.647-4.321-2.614-7.848-2.995l-.273-.03a68.29 68.29 0 0 0-4.742-4.676l.206.053c1.508.295 2.936.913 4.183 1.812l1.509 1.122-.568-1.793c-.924-2.913-2.362-4.945-4.48-6.142-2.092-1.183-4.814-1.52-8.329-1.059l-.177.023a70 70 0 0 0-5.769-3.51h.235c1.536-.073 3.07.188 4.495.765l1.731.73-.978-1.605c-1.591-2.611-3.471-4.243-5.809-4.902-2.313-.651-5.037-.33-8.342.955l-.09.035a71 71 0 0 0-6.533-2.113l.285-.068a10.6 10.6 0 0 1 4.548-.35l1.857.286-1.341-1.32c-2.18-2.144-4.4-3.27-6.829-3.338-2.394-.067-4.947.9-7.825 2.936a71 71 0 0 0-6.815-.549l.166-.077a10.6 10.6 0 0 1 4.384-1.253l1.877-.09-1.578-1.02C79.8.363 77.4-.295 75.007.121c-2.364.412-4.682 1.883-7.108 4.472l-.217.23A70 70 0 0 0 61.05 5.84l.217-.182a10.6 10.6 0 0 1 3.908-2.346l1.79-.575-1.788-.58c-2.91-.942-5.397-.959-7.6.065-2.172 1.01-4.025 3.021-5.692 6.133a70 70 0 0 0-6.492 2.633l.204-.28a10.6 10.6 0 0 1 3.22-3.227l1.597-.995-1.876-.131c-3.05-.207-5.467.386-7.354 1.917-1.837 1.49-3.133 3.853-3.99 7.207a71 71 0 0 0-5.812 4.132q.075-.18.147-.361a10.6 10.6 0 0 1 2.36-3.901l1.314-1.344-1.85.322c-3.013.524-5.22 1.676-6.69 3.613-1.421 1.87-2.118 4.453-2.161 7.878a71 71 0 0 0-4.77 5.424l.063-.435a10.6 10.6 0 0 1 1.372-4.347l.959-1.617-1.724.751c-2.804 1.221-4.677 2.86-5.648 5.088-.934 2.143-1.003 4.8-.251 8.113a70 70 0 0 0-3.328 6.236l-.011-.248c-.159-1.53.016-3.075.512-4.53l.632-1.77-1.55 1.065c-2.517 1.738-4.04 3.707-4.565 6.078-.52 2.347-.045 5.049 1.425 8.276l.05.11a70 70 0 0 0-1.718 6.622l-.082-.271a10.6 10.6 0 0 1-.614-4.52l.177-1.869-1.236 1.412c-2.015 2.301-3.01 4.58-2.937 7.009.07 2.394 1.186 4.888 3.387 7.648a73 73 0 0 0-.183 5.084q0 .99.029 1.973l-.208-.342a10.6 10.6 0 0 1-1.722-4.221l-.294-1.857-.848 1.677C.04 75.087-.353 77.542.324 79.878c.651 2.252 2.304 4.348 5.019 6.425a70 70 0 0 0 1.451 6.891l-.168-.18a10.6 10.6 0 0 1-2.53-3.793l-.657-1.76-.495 1.812c-.805 2.95-.702 5.436.425 7.59 1.118 2.13 3.22 3.891 6.423 5.412l.088.041a71 71 0 0 0 2.941 6.192l-.24-.157a10.6 10.6 0 0 1-3.371-3.068l-1.064-1.548-.041 1.883c-.067 3.059.635 5.445 2.25 7.26 1.588 1.789 4.05 2.985 7.514 3.684a71 71 0 0 0 4.366 5.441l-.304-.108a10.6 10.6 0 0 1-4.004-2.18l-1.4-1.251.405 1.833c.66 2.988 1.908 5.14 3.907 6.521 1.955 1.353 4.603 1.929 8.088 1.801a71 71 0 0 0 5.574 4.354l-.362-.037a10.6 10.6 0 0 1-4.405-1.173l-1.656-.882.827 1.684c1.348 2.747 3.07 4.544 5.339 5.413 2.207.844 4.898.785 8.227-.148a70 70 0 0 0 6.517 2.993l-.421.059a10.6 10.6 0 0 1-4.56-.077l-1.822-.459 1.21 1.439c1.971 2.342 4.076 3.67 6.486 3.966 2.323.285 4.897-.412 7.873-2.087a70 70 0 0 0 6.905 1.383l-.225.081a10.7 10.7 0 0 1-4.483.829l-1.879-.09 1.471 1.17c2.394 1.904 4.72 2.789 7.142 2.602 2.397-.185 4.845-1.425 7.505-3.771l.064-.059c.298.004.595.012.893.012 2.03 0 4.039-.091 6.025-.259l-.286.193a10.6 10.6 0 0 1-4.135 1.923l-1.84.382 1.717.765c2.794 1.246 5.267 1.522 7.564.736 2.24-.765 4.273-2.541 6.236-5.402a70 70 0 0 0 6.7-1.829l-.15.154a10.6 10.6 0 0 1-3.671 2.702l-1.73.74 1.837.412c2.985.667 5.463.448 7.559-.78 2.075-1.213 3.737-3.397 5.106-6.668l.094-.228a70 70 0 0 0 5.875-3.228l-.118.2a10.6 10.6 0 0 1-2.911 3.508l-1.5 1.135 1.88-.044c3.06-.072 5.413-.883 7.15-2.577 1.722-1.679 2.809-4.199 3.349-7.707l.017-.112a71 71 0 0 0 5.06-4.567l-.076.247a10.6 10.6 0 0 1-2 4.099l-1.189 1.456 1.816-.487c2.952-.793 5.047-2.137 6.338-4.199 1.276-2.038 1.736-4.742 1.432-8.272l-.003-.035a71 71 0 0 0 3.928-5.68l-.017.294a10.6 10.6 0 0 1-.972 4.455l-.811 1.699 1.652-.905c2.68-1.471 4.396-3.272 5.161-5.581.753-2.271.562-4.993-.557-8.33a70 70 0 0 0 2.549-6.54l.066.345c.375 1.492.422 3.048.137 4.559l-.373 1.838 1.384-1.275c2.247-2.079 3.475-4.242 3.658-6.664.177-2.361-.652-4.93-2.509-7.863q.648-3.383.962-6.872zm2.101 2.599a14 14 0 0 0-.979-3.06 13.5 13.5 0 0 1-.977-3.142c.043-1.004.069-2.012.069-3.027 0-.326-.007-.65-.012-.976l.065-.388c1.73 1.99 2.695 3.852 2.925 5.679a7.97 7.97 0 0 1-1.093 4.914zm-6.619-18.334-.223.43c-.788-3.497.193-4.732 1.112-5.888.171-.215.34-.428.5-.647.058 3.344-.677 4.747-1.389 6.105m6.707-3.757a7.97 7.97 0 0 1 .169 5.03 14 14 0 0 0-1.712-2.72 13.7 13.7 0 0 1-1.666-2.651 73 73 0 0 0-.968-4.376c2.129 1.48 3.507 3.025 4.175 4.717zm-10.512-11.179-.112.471c-1.619-3.197-.97-4.635-.363-5.981.113-.25.224-.496.324-.748.875 3.227.507 4.765.149 6.256zm5.581-5.286a7.97 7.97 0 0 1 1.394 4.833 14 14 0 0 0-2.323-2.214 13.8 13.8 0 0 1-2.257-2.153 68 68 0 0 0-1.941-3.985c2.384.904 4.074 2.057 5.126 3.516zm-14.49-13.767c.059-.267.125-.53.177-.799 1.479 3 1.412 4.584 1.347 6.119l-.019.481c-2.205-2.831-1.845-4.366-1.506-5.804zm8.282 3.535a14 14 0 0 0-2.707-1.73 13.3 13.3 0 0 1-2.811-1.841 72 72 0 0 0-2.376-2.921c-.093-.16-.183-.32-.283-.487 2.605.426 4.538 1.243 5.883 2.502a7.95 7.95 0 0 1 2.292 4.474zm-14.073-16.958a7.96 7.96 0 0 1 3.286 3.806 14 14 0 0 0-3.037-1.04 13.5 13.5 0 0 1-3.088-1.083 71 71 0 0 0-3.246-2.492c-.076-.078-.144-.153-.223-.235 2.631-.2 4.704.137 6.308 1.044m-15.42-1.828.206.437c-3.254-1.494-3.641-3.021-4.001-4.452-.068-.268-.134-.53-.214-.793 2.692 1.982 3.361 3.417 4.009 4.808m1.083-7.61a7.96 7.96 0 0 1 4.1 2.916 14 14 0 0 0-3.199-.287 13.7 13.7 0 0 1-3.171-.297 69 69 0 0 0-4.042-1.806l-.063-.039c2.509-.822 4.602-.986 6.375-.487m-15.344 1.773.307.374c-3.523-.656-4.271-2.044-4.971-3.344-.13-.242-.26-.481-.4-.715 3.099 1.269 4.097 2.497 5.064 3.685m3.882-5.816a14 14 0 0 0-3.172.502c-1.011.279-2.052.441-3.1.484a72 72 0 0 0-4.403-.833c2.202-1.376 4.168-2.033 5.99-1.982a7.97 7.97 0 0 1 4.684 1.83zM75.219 1.318a7.97 7.97 0 0 1 4.957.858 14 14 0 0 0-3.009 1.125c-1.013.519-2.09.905-3.203 1.147q-1.805.03-3.589.15c-.227-.03-.455-.06-.696-.083 1.907-1.826 3.722-2.879 5.54-3.195zM62.226 9.802l.437.197c-3.443.986-4.73.08-5.938-.77a18 18 0 0 0-.675-.46c3.337-.252 4.779.401 6.176 1.033m-4.14-6.477a7.97 7.97 0 0 1 5.01-.46c-.94.52-1.818 1.146-2.615 1.866a13.7 13.7 0 0 1-2.552 1.817 70 70 0 0 0-4.318 1.23c1.356-2.217 2.821-3.685 4.475-4.453m-16.138 5.89a7.96 7.96 0 0 1 4.746-1.665 14 14 0 0 0-2.079 2.447 14 14 0 0 1-2.007 2.358 70 70 0 0 0-3.883 2.176c.77-2.431 1.823-4.183 3.223-5.316M34.31 22.467l.484-.031c-2.585 2.483-4.148 2.283-5.613 2.096-.272-.034-.541-.07-.813-.091 2.833-1.783 4.412-1.88 5.942-1.974m-6.686-3.794a7.97 7.97 0 0 1 4.216-2.745c-.588.899-1.071 1.862-1.44 2.872-.356.97-.82 1.898-1.383 2.765a69 69 0 0 0-3.255 2.99c.176-2.522.782-4.459 1.862-5.882m-4.367 14.601.463-.144c-1.924 3.023-3.49 3.198-4.958 3.361-.273.032-.544.06-.813.104 2.33-2.401 3.843-2.867 5.308-3.32m-7.392-2.106a7.97 7.97 0 0 1 3.446-3.665 14 14 0 0 0-.72 3.13 13.8 13.8 0 0 1-.7 3.036 72 72 0 0 0-2.452 3.607c-.416-2.47-.283-4.481.426-6.108M7.375 45.89a7.97 7.97 0 0 1 2.68-4.257 14 14 0 0 0-.106 3.21 13.5 13.5 0 0 1-.128 3.243 71 71 0 0 0-1.513 3.982c-.028.052-.058.1-.085.154-.962-2.456-1.245-4.536-.848-6.331M4.022 57.578c.107 1.07.337 2.122.685 3.138.337.994.56 2.023.663 3.067a75 75 0 0 0-.576 4.45c-1.5-2.122-2.272-4.045-2.327-5.87a7.98 7.98 0 0 1 1.556-4.788zM1.488 79.542a7.97 7.97 0 0 1 .312-5.021c.37 1.008.855 1.97 1.445 2.868a14 14 0 0 1 1.395 2.769q.156 2.208.445 4.379c-1.908-1.641-3.1-3.282-3.597-4.995m9.231 12.319.177-.451c1.148 3.394.303 4.724-.489 5.972-.147.23-.294.458-.427.693-.408-3.323.174-4.792.74-6.216zM4.444 96.3a7.97 7.97 0 0 1-.695-4.987 14 14 0 0 0 1.988 2.525 13.6 13.6 0 0 1 1.973 2.53q.658 2.091 1.443 4.127l.02.101c-2.318-1.26-3.875-2.667-4.729-4.297m11.835 9.935.062-.478c1.941 3.016 1.44 4.511.974 5.913-.087.261-.173.518-.247.779-1.202-3.124-.992-4.693-.79-6.214m-5.012 5.829a7.97 7.97 0 0 1-1.883-4.666 14 14 0 0 0 2.54 1.967c.898.545 1.73 1.191 2.48 1.926a70 70 0 0 0 2.42 3.779c-2.515-.66-4.344-1.641-5.557-3.006m16.046 11.934c-.022.272-.044.542-.054.813-1.907-2.749-2.075-4.323-2.236-5.848l-.052-.481c2.593 2.469 2.464 4.04 2.342 5.516m-8.715-2.274c.924.549 1.909.989 2.934 1.311.994.315 1.95.741 2.849 1.272q.389.405.784.803a70 70 0 0 0 2.413 2.301c-2.569-.051-4.558-.571-6.045-1.598a7.96 7.96 0 0 1-2.935-4.089m17.853 7.631-.166-.455c3.109 1.785 3.354 3.341 3.585 4.799.043.272.085.541.14.808-2.506-2.221-3.041-3.709-3.56-5.152m-1.77 7.478a7.97 7.97 0 0 1-3.818-3.276c1.028.314 2.09.508 3.162.578 1.032.071 2.052.257 3.042.555a68 68 0 0 0 3.822 2.276c-2.488.547-4.53.51-6.208-.133m15.352 7.704a7.97 7.97 0 0 1-4.495-2.258 14 14 0 0 0 3.205-.201 13.8 13.8 0 0 1 3.118-.194q2.06.719 4.173 1.314c-2.257 1.108-4.23 1.556-6.001 1.339m14.957-3.633-.344-.34c3.572.282 4.462 1.583 5.295 2.802.155.227.308.451.47.668-3.212-.932-4.334-2.049-5.42-3.13m1.61 7.516a7.96 7.96 0 0 1-4.854-1.324 14 14 0 0 0 3.101-.83 13.6 13.6 0 0 1 3.079-.815 71 71 0 0 0 4.428.305l.058.012c-2.072 1.634-3.978 2.51-5.813 2.652m17.207-.012a7.98 7.98 0 0 1-5.032-.071c.99-.417 1.928-.947 2.796-1.579.84-.608 1.745-1.12 2.698-1.526a70 70 0 0 0 4.4-.713c-1.562 2.021-3.157 3.305-4.862 3.889m11.831-9.964-.455-.155c3.334-1.304 4.702-.522 5.984.211.235.135.47.27.714.394-3.296.562-4.793.049-6.243-.45m4.727 6.06a7.97 7.97 0 0 1-4.942.928c.887-.606 1.701-1.311 2.427-2.103a13.4 13.4 0 0 1 2.551-2.162 70 70 0 0 0 3.548-1.467l.491-.118c-1.151 2.375-2.482 3.996-4.075 4.923zm9.292-12.469-.478-.04c2.922-2.07 4.438-1.641 5.859-1.238.263.074.524.148.788.21-3.063 1.342-4.641 1.204-6.169 1.07zm6.05 4.744a7.96 7.96 0 0 1-4.575 2.092 14 14 0 0 0 1.849-2.625 13.5 13.5 0 0 1 1.866-2.622 69 69 0 0 0 3.494-2.538l.13-.068c-.543 2.585-1.445 4.479-2.764 5.763zm2.418-7.063a4.38 4.38 0 0 1-2.759-.129c-1.924-.544-3.994-1.13-8.321 2.535l-1.446 1.224 1.885-.155c.69-.042 1.382-.023 2.068.056 1.322.171 2.664.104 3.962-.197a69.4 69.4 0 0 1-9.314 5.198 4.54 4.54 0 0 1-2.43-.806c-1.736-.992-3.604-2.059-8.688.455l-1.696.837 1.867.305a12 12 0 0 1 1.99.554c1.233.48 2.541.739 3.864.765a69 69 0 0 1-9.525 2.736l-.197.004a4.18 4.18 0 0 1-2.804-1.334c-1.505-1.317-3.126-2.734-8.605-1.278l-1.83.486 1.771.669c.64.257 1.257.57 1.843.935a11.2 11.2 0 0 0 3.691 1.529 70 70 0 0 1-8.299.496q-1.068-.001-2.128-.036a4.36 4.36 0 0 1-2.08-1.882c-1.128-1.651-2.343-3.428-8.013-3.386l-1.893.015 1.546 1.088q.836.614 1.55 1.365a11.2 11.2 0 0 0 3.178 2.392 69 69 0 0 1-9.42-1.719c-.195-.093-.383-.177-.57-.261a4.2 4.2 0 0 1-1.894-2.402c-.78-1.843-1.618-3.824-7.186-4.908l-1.857-.362 1.303 1.377q.697.768 1.249 1.647a11.2 11.2 0 0 0 2.627 2.963 69 69 0 0 1-8.988-3.99l-.195-.155a4.18 4.18 0 0 1-1.315-2.831c-.313-1.977-.648-4.104-5.792-6.497l-1.713-.797.931 1.648c.327.607.6 1.243.815 1.898a11.2 11.2 0 0 0 1.853 3.53 70 70 0 0 1-8.008-6.114l-.05-.065a4.2 4.2 0 0 1-.577-3.024c.164-1.992.34-4.136-4.092-7.678l-1.476-1.18.514 1.817q.261 1.004.343 2.038c.088 1.344.418 2.661.974 3.888a70 70 0 0 1-6.506-7.942 4.24 4.24 0 0 1 .183-2.987c.632-1.897 1.311-3.942-2.153-8.428l-1.155-1.496.069 1.888c.01.69-.04 1.379-.15 2.059a11.2 11.2 0 0 0 .022 3.997 69 69 0 0 1-4.575-9.406c.008-.954.328-1.88.91-2.636 1.073-1.687 2.227-3.503-.047-8.699l-.758-1.734-.392 1.853a11.7 11.7 0 0 1-.643 1.961 11.2 11.2 0 0 0-.947 3.856 69 69 0 0 1-2.134-9.35c.009-.204.012-.399.016-.593a4.2 4.2 0 0 1 1.465-2.695c1.386-1.44 2.88-2.992 1.686-8.534l-.399-1.85-.75 1.737q-.432.942-1.022 1.796a11.2 11.2 0 0 0-1.696 3.597 70 70 0 0 1-.133-4.25c0-2.013.09-4.004.258-5.974a4.24 4.24 0 0 1 2.059-2.176c1.703-1.049 3.535-2.177 3.765-7.844l.077-1.89-1.167 1.492a11.7 11.7 0 0 1-1.436 1.482 11.2 11.2 0 0 0-2.552 3.083 69 69 0 0 1 2.56-10.196 4.4 4.4 0 0 1 2.36-1.388c1.908-.6 3.962-1.246 5.571-6.686l.537-1.812-1.492 1.163a11.7 11.7 0 0 1-1.758 1.085 11.2 11.2 0 0 0-3.202 2.333c1.242-2.9 2.68-5.71 4.306-8.413l.036-.041c.156-.172.298-.338.442-.505a4.2 4.2 0 0 1 2.85-1.142c1.988-.221 4.127-.46 6.75-5.49l.875-1.677-1.685.854q-.935.45-1.934.729a11.2 11.2 0 0 0-3.592 1.677 70 70 0 0 1 6.257-7.319q.216-.15.421-.297a4.2 4.2 0 0 1 3.043-.438c1.983.253 4.118.525 7.854-3.74l1.247-1.424-1.84.432a11.7 11.7 0 0 1-2.051.252c-1.338.028-2.66.294-3.904.788a69.6 69.6 0 0 1 8.001-5.84l.228-.09a4.2 4.2 0 0 1 3.069.294c1.865.718 3.874 1.49 8.516-1.765l1.548-1.085-1.89-.018q-1.036-.03-2.052-.243a11.2 11.2 0 0 0-4-.16 69 69 0 0 1 9.472-3.951 4.24 4.24 0 0 1 2.804 1.038c1.636 1.15 3.396 2.39 8.694.364l1.767-.676-1.832-.479a12 12 0 0 1-1.93-.737 11.2 11.2 0 0 0-3.832-1.129 69 69 0 0 1 10.62-1.689 4.6 4.6 0 0 1 1.925 1.568c1.28 1.537 2.66 3.19 8.3 2.607l1.883-.194-1.644-.937a12 12 0 0 1-1.672-1.21 11.2 11.2 0 0 0-3.342-2.06h.19c3.342.001 6.678.24 9.985.718a4.24 4.24 0 0 1 2.06 2.184c.947 1.761 1.968 3.656 7.614 4.212l1.882.185-1.422-1.245a12 12 0 0 1-1.408-1.527 11.2 11.2 0 0 0-2.933-2.73 69 69 0 0 1 9.987 3.141 4.36 4.36 0 0 1 1.29 2.471c.491 1.942 1.019 4.026 6.359 5.943l1.78.638-1.076-1.553a12 12 0 0 1-.984-1.818 11.2 11.2 0 0 0-2.162-3.341 69.4 69.4 0 0 1 9.085 5.426c.453.784.657 1.687.583 2.59.015 2 .034 4.153 4.762 7.28l1.581 1.045-.678-1.768c-.233-.65-.409-1.32-.524-2a11.2 11.2 0 0 0-1.298-3.745 71 71 0 0 1 4.639 4.236 68 68 0 0 1 3.021 3.224c.21.835.18 1.712-.086 2.53-.458 1.946-.949 4.04 2.91 8.2l1.285 1.385-.24-1.875a12 12 0 0 1-.037-2.068 11.2 11.2 0 0 0-.368-3.919 69.4 69.4 0 0 1 5.343 8.29l.064.195a4.2 4.2 0 0 1-.447 3.113c-.824 1.823-1.706 3.784 1.281 8.605l1 1.608.124-1.89c.059-.686.179-1.367.359-2.034a11.2 11.2 0 0 0 .388-3.954 69 69 0 0 1 3.373 9.635 4.23 4.23 0 0 1-1.195 2.766c-1.243 1.565-2.582 3.25-.866 8.657l.572 1.802.583-1.8q.341-.977.846-1.882a11.2 11.2 0 0 0 1.353-3.78 70 70 0 0 1 1.068 10.574 4.47 4.47 0 0 1-1.723 2c-1.595 1.206-3.312 2.504-3 8.167l.104 1.892 1.015-1.6c.38-.575.812-1.115 1.288-1.614a11.2 11.2 0 0 0 2.23-3.27 69 69 0 0 1-1.243 9.855l-.092.227a4.2 4.2 0 0 1-2.31 2.004c-1.804.865-3.747 1.796-4.567 7.406l-.275 1.873 1.313-1.364q.735-.732 1.585-1.324a11.2 11.2 0 0 0 2.853-2.785 69 69 0 0 1-3.613 9.557 4.22 4.22 0 0 1-2.693 1.353c-1.959.402-4.069.834-6.224 6.08l-.718 1.746 1.6-1.003a12 12 0 0 1 1.859-.9 11.2 11.2 0 0 0 3.46-2.026 69.6 69.6 0 0 1-5.818 8.584 4.3 4.3 0 0 1-2.829.604c-1.997-.074-4.147-.154-7.485 4.431l-1.112 1.527 1.792-.595a12 12 0 0 1 2.02-.432 11.2 11.2 0 0 0 3.82-1.137 71 71 0 0 1-1.565 1.622 70 70 0 0 1-6.157 5.466zm-31.72 13.49c-3.347-.101-4.711-.901-6.032-1.676l-.418-.243c3.53-.62 4.716.417 5.827 1.389.206.183.409.361.623.531zm-31.76-2.209c-2.967-1.552-3.847-2.869-4.699-4.145l-.268-.4c3.447.983 4.06 2.434 4.635 3.794.108.254.214.505.331.751M6.558 82.386c.26-3.337 1.125-4.663 1.964-5.948l.261-.404c.45 3.556-.643 4.69-1.666 5.754-.191.198-.38.393-.56.598m.109-16.003c1.084-3.165 2.252-4.236 3.385-5.268l.356-.327c-.451 3.555-1.793 4.38-3.05 5.155-.235.143-.467.286-.691.44m3.796-15.57c1.824-2.802 3.221-3.551 4.572-4.276l.424-.23c-1.308 3.335-2.81 3.807-4.219 4.25-.262.081-.522.163-.777.256m30.829-35.818c3.177-1.059 4.735-.778 6.244-.505l.476.084c-3.102 1.8-4.573 1.236-5.953.703-.254-.098-.507-.197-.765-.283zm30.54-8.943c3.29.622 4.513 1.625 5.698 2.598l.375.306c-3.584.059-4.593-1.149-5.539-2.283a14 14 0 0 0-.532-.624zm45.155 14.067c2.146 2.567 2.455 4.119 2.754 5.625l.096.475c-2.807-2.227-2.82-3.801-2.831-5.278 0-.28-.002-.552-.017-.825zm27.271 55.722c-.778 3.255-1.838 4.428-2.866 5.565l-.323.36c.111-3.582 1.368-4.53 2.546-5.423.218-.165.435-.33.643-.502m-2.125 15.921c-1.412 3.035-2.685 3.975-3.919 4.883l-.388.289c.823-3.488 2.241-4.169 3.573-4.806.248-.12.494-.237.734-.366m-5.611 15.003c-2.104 2.603-3.569 3.206-4.987 3.789l-.447.186c1.642-3.186 3.185-3.502 4.632-3.799.27-.058.537-.113.802-.179zm-8.94 13.303c-2.659 2.029-4.224 2.268-5.74 2.498l-.479.074c2.353-2.706 3.926-2.647 5.403-2.588.273.006.545.016.816.013zm1.262 5.675a7.97 7.97 0 0 1-3.952 3.113c.506-.948.901-1.95 1.177-2.989a13.7 13.7 0 0 1 1.166-2.941 70 70 0 0 0 2.934-3.408c.074 2.626-.355 4.672-1.325 6.225m10.247-13.763a7.96 7.96 0 0 1-3.1 3.959 14 14 0 0 0 .433-3.18c.023-1.048.166-2.091.426-3.107a72 72 0 0 0 2.068-3.97c.679 2.502.743 4.571.17 6.298zm6.797-15.776a7.96 7.96 0 0 1-2.047 4.597 14 14 0 0 0-.35-3.195 14 14 0 0 1-.338-3.085 68 68 0 0 0 1.077-4.321c1.239 2.234 1.793 4.207 1.655 6.004z"></path></g><defs data-source="https://football-logos.cc"><clipPath id="a"><path fill="#fff" d="M0 0h150.094v150H0z"></path></clipPath></defs><!-- source: https://football-logos.cc --></svg>