<svg xmlns="http://www.w3.org/2000/svg" viewBox="244.2 120.58 692.73 939.92"><!-- Source: https://football-logos.cc --><path fill="#c99a2c" fill-rule="evenodd" d="M590.37 1060.39a.475.472 43.831 0 1-.57.01c-65.87-48.98-129.73-101.64-184.46-162.48q-25.08-27.87-46.83-58.18-59.34-82.68-86.28-180.96C257.65 605.56 249.78 550.8 246.51 496q-1.92-32.2-2.16-55.76c-.18-18.13-.28-41.25.21-60.32q1.79-70.17 8.18-142.39a1.107 1.104-15.03 0 1 .48-.83q52.71-36.18 108.9-62.81c54.93-26.04 113.85-44.33 173.15-50.64q83.62-8.91 167.17 11.86c78.9 19.61 152.47 56.31 220.58 100.23a1.009.998-76.39 0 1 .44.73c10.26 94.15 17.51 189.26 10.98 283.42-4.46 64.39-16.58 127.33-39.8 187.36-32.18 83.22-85.7 155.66-148.15 218.65-48.34 48.78-101.17 93.04-156.12 134.89m-.004-20.098c52.817-40.218 103.596-82.752 150.061-129.631 60.027-60.534 111.472-130.152 142.408-210.133 22.322-57.694 33.977-118.185 38.269-180.07 6.285-90.498-.675-181.91-10.527-272.4a.97.96-76.385 0 0-.423-.701c-65.458-42.218-136.163-77.498-211.993-96.352q-80.299-19.97-160.668-11.414c-56.994 6.059-113.625 23.633-166.421 48.655q-54.007 25.589-104.671 60.358a1.064 1.061-15.025 0 0-.461.797q-6.148 69.411-7.875 136.852c-.472 18.329-.378 40.549-.207 57.974q.229 22.644 2.071 53.592c3.138 52.669 10.697 105.301 24.705 156.452q25.884 94.461 82.909 173.931 20.901 29.133 45.003 55.921c52.596 58.479 113.968 109.097 177.272 156.178a.456.454 43.837 0 0 .548-.009" data-source="https://football-logos.cc"></path><path fill="#fff" fill-rule="evenodd" d="M590.366 1040.292a.456.454 43.837 0 1-.548.009c-63.304-47.081-124.676-97.699-177.272-156.178q-24.102-26.788-45.003-55.921-57.025-79.47-82.909-173.931c-14.008-51.151-21.567-103.783-24.705-156.452q-1.842-30.948-2.071-53.592c-.171-17.425-.265-39.645.207-57.974q1.727-67.441 7.875-136.852a1.064 1.061-15.025 0 1 .461-.797q50.664-34.769 104.671-60.358c52.796-25.022 109.427-42.596 166.421-48.655q80.369-8.556 160.668 11.414c75.83 18.854 146.535 54.134 211.993 96.352a.97.96-76.385 0 1 .423.701c9.852 90.49 16.812 181.902 10.527 272.4-4.292 61.885-15.947 122.376-38.269 180.07-30.936 79.981-82.381 149.599-142.408 210.133-46.465 46.879-97.244 89.413-150.061 129.631m-.996-15.492q47.49-35.28 91.01-74.16c41.25-36.84 79.23-76.86 112.49-121.75q68.86-92.91 95.73-203.78c10.59-43.71 16.42-88.35 18.83-133.61q2.45-46.08.75-94.25-2.52-71.62-11.15-144.44a1.756 1.731-77.616 0 0-.8-1.27c-76.05-47.15-160.66-84.2-249.81-96.83q-46.89-6.64-92.54-3.92c-99.14 5.89-191 44.49-272.09 100.93a1.177 1.165 75.246 0 0-.49.85q-4.11 47.04-6.69 107.45-2.91 67.8.03 129.09c2.67 55.78 9.99 110.94 24.78 163.98q27.13 97.26 87.47 178.55c30.93 41.67 66.28 79.2 105.07 114.15q46.16 41.6 97.03 79.01a.32.32-42.682 0 0 .38 0"></path><path fill="#283c98" fill-rule="evenodd" d="M589.37 1024.8a.32.32-11.926 0 1-.38 0q-50.87-37.41-97.03-79.01c-38.79-34.95-74.14-72.48-105.07-114.15q-60.34-81.29-87.47-178.55c-14.79-53.04-22.11-108.2-24.78-163.98q-2.94-61.29-.03-129.09 2.58-60.41 6.69-107.45a1.177 1.165 75.246 0 1 .49-.85c81.09-56.44 172.95-95.04 272.09-100.93q45.65-2.72 92.54 3.92c89.15 12.63 173.76 49.68 249.81 96.83a1.756 1.731-77.616 0 1 .8 1.27q8.63 72.82 11.15 144.44 1.7 48.17-.75 94.25c-2.41 45.26-8.24 89.9-18.83 133.61q-26.87 110.87-95.73 203.78c-33.26 44.89-71.24 84.91-112.49 121.75q-43.52 38.88-91.01 74.16m13.511-765.57a.44.44.447 0 0 .434-.512l-10.894-65.36a.44.44-64.113 0 0-.434-.368h-23.994a.44.44-78.63 0 0-.438.39l-7.499 65.75a.44.44 65.713 0 0 .437.49h16.746a.44.44-.886 0 0 .44-.421l.502-11.378a.44.44 37.71 0 1 .44-.421h5.767a.44.44-58.777 0 1 .437.389l1.28 11.052a.44.44-19.273 0 0 .437.389zm29.657-63.557a.4.4 0 0 0-.371-.427l-16.161-1.13a.4.4 0 0 0-.427.371l-4.577 65.46a.4.4 0 0 0 .371.427l16.161 1.13a.4.4 0 0 0 .427-.371zM538.67 227.42q.48-.25 2.47-1c3.85-1.46 5.03-3.68 5.11-7.86q.08-4.98-1.35-10.69-3.07-12.21-15.88-10.83-11.38 1.23-23.38 3.04a.293.293 1.177 0 0-.25.33l9.12 64.89a.564.554 81.798 0 0 .63.48l15.74-2.21a.546.545-8.055 0 0 .46-.61l-3.92-27.9a1.696 1.69 1.943 0 1 2.03-1.89l.68.14a4.109 4.101 2.037 0 1 3.21 3.44l3.57 25.41a.564.554 81.798 0 0 .63.48l14.38-2.02a.666.666 1.579 0 0 .57-.75q-.15-1.12-2.85-20.26-.9-6.33-2.68-8.27-3.13-3.41-8.18-3.49a.23.229 30.766 0 1-.11-.43m119.88 8.45a.244.241 47.071 0 1 .48.02l3.54 30.68a.508.502 2.374 0 0 .41.44l13.75 2.42a.51.5 10.304 0 0 .59-.4l11.34-64.29a.61.61 5.409 0 0-.49-.71l-12.72-2.24a.608.598-79.526 0 0-.7.49l-5.01 28.41a.249.248 46.048 0 1-.49-.01l-4.24-30.2a.778.773 1.07 0 0-.63-.65l-12.74-2.25a.65.65 87.518 0 0-.75.53l-11.35 64.33a.43.43-33.541 0 0 .34.5l12.92 2.28a.579.571 9.709 0 0 .66-.46zm-165.594-6.355-9.137 2.297a.845.842 75.983 0 1-1.027-.619l-2.826-11.431a.585.583-13.864 0 1 .432-.711l10.06-2.461a.611.602 76.194 0 0 .439-.739l-2.851-11.415a.56.551-13.36 0 0-.674-.408l-26.78 6.666a.393.386 76.614 0 0-.289.479l15.904 63.691a.33.33-74.28 0 0 .405.24l27.939-6.977a.59.59 88.07 0 0 .427-.72l-2.854-11.461a.53.53 61.549 0 0-.646-.378l-11.34 2.843a.517.51-13.993 0 1-.632-.375l-3.397-13.56a.621.611 75.935 0 1 .443-.753l9.598-2.379a.313.311-14.672 0 0 .228-.385l-2.766-11.049a.54.54 69.773 0 0-.656-.395m229.439 23.991a.38.38 14.135 0 0 .47-.261l3.16-11.04a.38.38 84.167 0 0-.26-.47l-9.64-2.76a.38.38-16.564 0 1-.26-.47l3.42-11.93a.38.38 49.064 0 1 .47-.26l10.38 2.97a.38.38 42.863 0 0 .47-.26l3.35-11.69a.38.38-70.953 0 0-.26-.47l-26.72-7.65a.38.38-64.441 0 0-.47.26l-18.06 63.06a.38.38 77.52 0 0 .26.47l27.84 7.97a.38.38 68.356 0 0 .47-.26l3.35-11.69a.38.38 24.892 0 0-.26-.47l-11.53-3.3a.38.38-63.653 0 1-.26-.47l3.95-13.78a.38.38-40.469 0 1 .47-.261zM436.31 218.898a.4.4 4.33 0 0-.508-.248l-15.274 5.26a.4.4 1.434 0 0-.248.508l21.35 61.994a.4.4 70.203 0 0 .508.248l25.184-8.68a.4.4-85.08 0 0 .248-.508l-3.94-11.444a.4.4 61.83 0 0-.508-.248l-9.154 3.15a.4.4-74.358 0 1-.508-.248zm307.808 71.83a.48.48 11.475 0 0 .254.63l14.716 6.245a.48.48 67.988 0 0 .63-.255l10.575-24.917a.48.48 68.178 0 1 .629-.254l8.917 3.776a.48.48 35.622 0 0 .629-.254l4.404-10.357a.48.48 12.822 0 0-.254-.63l-8.916-3.785a.48.48-38.92 0 1-.255-.629l4.776-11.266a.48.48-27.29 0 1 .629-.254l10.156 4.314a.48.48 18.053 0 0 .63-.254l4.665-10.996a.48.48 85.483 0 0-.255-.629l-25.756-10.926a.48.48-63.966 0 0-.629.255zm-334.325-45.75a17.3 17.3 0 0 0-23.049-8.207l-4.462 2.119a17.3 17.3 0 0 0-8.207 23.048l14.712 30.984a17.3 17.3 0 0 0 23.049 8.207l4.462-2.119a17.3 17.3 0 0 0 8.207-23.048zM358.53 298.42l6.59 11.92a2.91 2.902 65.409 0 1-1.53 4.13l-.04.01a3.634 3.627 64.338 0 1-4.46-1.57l-20.19-34.94a3.316 3.316 57.936 0 1 1.01-4.4l.22-.15a2.887 2.887 56.09 0 1 4.23.83l7.97 13.5a.569.561-29.997 0 0 .77.2l13.58-7.84a.6.592 61.641 0 0 .23-.79q-2.76-5.39-7.42-12.06-5.72-8.18-15.36-6.72c-12.6 1.9-25.9 13.9-18.56 27.88q3.6 6.85 15.01 26.26c4.73 8.06 10.2 14.99 20.86 12.28 8.3-2.11 16.26-7.63 18.49-16.25 1.74-6.69-3.19-14.91-6.93-20.78a.328.325-31.902 0 0-.44-.1l-13.86 8a.448.438-29.591 0 0-.17.59m467.571 3.622-6.833 11.787a2.911 2.903-55.554 0 1-4.33.813l-.029-.029a3.635 3.628-56.625 0 1-.948-4.634l19.578-35.298a3.317 3.316-63.027 0 1 4.294-1.398l.241.112a2.888 2.886-64.874 0 1 1.465 4.055l-7.477 13.783a.57.561 29.04 0 0 .224.764l13.713 7.613a.601.592-59.323 0 0 .796-.209q3.203-5.142 6.526-12.571 4.072-9.116-2.141-16.633c-8.114-9.829-25.25-15.061-33.464-1.571q-4.023 6.613-14.799 26.388c-4.479 8.205-7.608 16.463.202 24.211 6.081 6.033 14.912 10.02 23.453 7.497 6.634-1.951 11.147-10.409 14.257-16.638a.328.325 27.135 0 0-.141-.429l-13.994-7.771a.449.438 29.445 0 0-.593.158m-36.127-4.1a.38.38 0 0 0-.174-.509l-10.219-5.006a.38.38 0 0 0-.509.174l-5.446 11.117a.38.38 0 0 0 .174.509l10.219 5.006a.38.38 0 0 0 .509-.174zM398.07 775.32q.19.28.72 1.17 15.88 26.47 35.17 50.57.27.34.92.81.31.77 1.16 1.82c43.15 53.29 96.03 97.35 151.96 136.54a.429.424 42.467 0 0 .52-.02q42.63-36.18 81.62-72.32 37.21-34.5 70.02-71.73.23-.26.43-.95.46-.16.92-.7 20.17-23.27 37.48-48.76.28-.41.35-.5 37.72-55.07 56.56-117.12 16.26-53.6 20.74-113.81a.484.478-79.604 0 0-.34-.5q-18.75-5.5-35.75-11.22-16.19-5.44-33.43-6.5-6.17-.37-12.93.8c-19.23 3.34-34.39 8.78-54.93 16.35q-18.95 6.98-38.55 8.01c-2.93.15-4.87-.39-7.69-.98a.381.379-63.818 0 1-.21-.62q6.91-7.88 11.95-16.52a.916.91 11.5 0 1 .7-.46c14.49-1.36 28.2-7.72 41.5-13.2q21.57-8.9 45.53-12.36 6.14-.89 12.54-.3c11 1.02 19.68 2.04 30.1 4.73 8.75 2.26 17.02 6.1 26.57 9.48q8.19 2.9 15.96 4.53a.374.367 7.336 0 0 .45-.34l.89-20.35a.688.686-81.586 0 0-.51-.69q-16.25-4.31-36.37-11.26-17.56-6.07-38.11-6.93-2.16-.09-3.89.15-19.67 2.75-38.19 9.81-22.95 8.73-25.42 9.56-10.98 3.65-20.91 4.94a.462.456-84.612 0 1-.49-.6q2.95-9.52 4.18-19.27a.551.548-4.722 0 1 .4-.47c11.23-3.18 24.48-9.41 33.2-12.7q19.06-7.19 39.13-10.12 6.86-1.01 13.48-.46c12.74 1.04 25.83 2.69 36.92 6.8 9.73 3.6 23.69 9.44 36.18 12.03a.49.485-83.848 0 0 .59-.48v-21.51a.682.677-82.901 0 0-.51-.66c-13.58-3.21-28.86-8.73-39.54-12.14q-14.39-4.58-30.88-5.8-6.89-.52-13.42.74-17.98 3.46-29.71 7.84c-16.8 6.27-28.79 11.87-44.4 14.91a.827.823 82.657 0 1-.98-.76q-.55-8.57-2.73-17.46a.577.575-13.792 0 1 .42-.69q6.41-1.63 13.1-4.37 18.45-7.56 27.23-10.74 14.37-5.22 34.75-8.43 6.22-.98 13.47-.32 14.15 1.28 21.03 2.67c11.8 2.39 18.39 5.16 32.12 10.39q8.77 3.33 18.79 5.6a.225.222-83.814 0 0 .27-.22v-20.55a.887.872-83.394 0 0-.67-.86c-15.2-3.74-27.73-8.37-42.01-12.81q-14.57-4.54-30.13-5.53-6.86-.43-14.01.89-17.49 3.23-32.53 9.02c-20.08 7.72-30.97 12.46-48.39 14.67a1.208 1.205-15.977 0 1-1.23-.68q-3.96-8.31-9.91-16.77a.243.239-18.923 0 1 .19-.38c16.23-.59 27.85-6.27 46.2-13.75q20.06-8.18 41.72-11.59 8.07-1.27 16.18-.67 17.62 1.32 31.49 5.23 5 1.4 23.42 8.63 4.73 1.86 17.38 4.94a.447.444 4.841 0 0 .55-.46l-1.01-15.18a1.502 1.494 15.093 0 0-.66-1.14c-67.7-45.37-144.3-76.77-224.84-85.36q-66.88-7.14-133.41 7.41c-61.89 13.54-121.81 41.34-174.2 77.91a.996.987 74.147 0 0-.43.78l-.65 14.87a.408.405 86.555 0 0 .47.42q11.3-1.8 22.37-5.2c11.52-3.54 24.67-10.05 38.1-12.66q10.52-2.05 22.67-3.07 7.36-.62 14.3.45 22.86 3.54 40.26 10.55c21.5 8.67 35.25 15.9 54.48 14.8a.349.346-72.627 0 1 .29.56q-6.35 8.15-11.1 17.46a.82.82 15.868 0 1-.79.44q-15.69-1.19-30.55-6.62-4.06-1.48-21.51-8.2-14.24-5.49-30.72-8.81-8.69-1.75-16.12-1.34c-17.47.95-31.06 5.43-50.45 12.07q-13.74 4.7-31.62 8.3a.654.641 84.665 0 0-.52.64v20.26a.558.557 85.203 0 0 .65.55q12.16-2.22 21.9-5.35c8.97-2.89 21.77-8.82 32.33-11.25q11.98-2.77 26.66-3.92 7.94-.62 16.36.75 20 3.27 37.91 10.22c10.09 3.91 24.86 10.98 37.9 13.76a.355.35-75.954 0 1 .26.44q-2.27 8.42-3.15 17.59a.548.544 7.501 0 1-.63.48q-12.72-2.1-20.4-5.02-20.81-7.93-28.3-10.69-11.04-4.06-28.88-7.55-6.18-1.21-13.4-.68c-20.18 1.47-35.87 7.41-56.77 14.29q-6.99 2.3-21.56 5.46a.584.583-6.142 0 0-.46.57v21.14a.751.746 84.88 0 0 .88.74q12.25-2.24 22.07-5.52c7.8-2.61 18.57-7.46 25.98-9.51q14.07-3.89 31.91-5.39 8.08-.68 17.3.88 21.06 3.57 38.62 10.64c16.12 6.5 24.31 9.86 33.12 12.42a.913.912 4.847 0 1 .65.77q.98 9.26 3.61 18.61a.428.428-4.605 0 1-.46.54c-15.26-1.76-27.56-6.57-43.73-13.03q-21.67-8.66-44.04-11.76a4.791 4.755-45.214 0 0-1.34.01c-2.77.41-5.45.16-8.24.43q-17.11 1.64-31.68 6.62-22.59 7.73-32.1 10.11-9.61 2.39-10.73 2.51a.654.652-5.442 0 0-.58.7l1.34 20.16a.546.545-7.413 0 0 .65.5q14.35-3.02 22.8-6.1c6.68-2.43 18.21-7.36 26.81-9.56q12.04-3.07 27.96-4.39 8.6-.71 16.9.63 18.82 3.04 35.25 9.14 5.23 1.95 26.45 10.51 11.35 4.58 23.37 5.57a1.23 1.23 77.708 0 1 .98.63q4.78 8.63 10.87 16.04a.502.499 64.199 0 1-.28.81l-4.74.98a4.48 4.185 38.2 0 1-1.06.09c-21.79-.67-37.79-6.92-61.59-15.61Q433.44 523.48 414 520q-6.34-1.14-12.61-.75-18.65 1.16-36.69 7.48-20.46 7.16-38.8 11.66a.406.402 80.421 0 0-.31.44c5.16 53.63 16 106.98 34.63 157.44q15.13 40.98 37.85 79.05m454.906-441.939a.28.28 0 0 0-.09-.386l-9.82-6.136a.28.28 0 0 0-.386.089l-6.656 10.651a.28.28 0 0 0 .09.386l9.82 6.136a.28.28 0 0 0 .386-.089z"></path><path fill="#fff" fill-rule="evenodd" d="M602.881 259.23h-16.339a.44.44 28.581 0 1-.437-.389l-1.28-11.052a.44.44 72.401 0 0-.437-.389h-5.767a.44.44 1.119 0 0-.44.421l-.502 11.378a.44.44 4.435 0 1-.44.421h-16.746a.44.44-53.557 0 1-.437-.49l7.499-65.75a.44.44-49.827 0 1 .438-.39h23.994a.44.44-51.518 0 1 .434.368l10.894 65.36a.44.44-1.052 0 1-.434.512m-21.88-23.24q1.29-.006 2.575-.117a.498.495 84.951 0 0 .449-.541q-2.68-27.516-3.151-27.514-.472.002-2.904 27.541a.498.495-85.468 0 0 .455.537q1.285.1 2.576.094M627.961 261.133a.4.4 0 0 1-.427.371l-16.161-1.13a.4.4 0 0 1-.371-.427l4.577-65.46a.4.4 0 0 1 .427-.371l16.161 1.13a.4.4 0 0 1 .371.427zM538.67 227.42a.23.229 30.766 0 0 .11.43q5.05.08 8.18 3.49 1.78 1.94 2.68 8.27 2.7 19.14 2.85 20.26a.666.666 22.192 0 1-.57.75l-14.38 2.02a.564.554 81.798 0 1-.63-.48l-3.57-25.41a4.109 4.101 2.037 0 0-3.21-3.44l-.68-.14a1.696 1.69 1.943 0 0-2.03 1.89l3.92 27.9a.546.545-8.055 0 1-.46.61l-15.74 2.21a.564.554 81.798 0 1-.63-.48l-9.12-64.89a.293.293 30.633 0 1 .25-.33q12-1.81 23.38-3.04 12.81-1.38 15.88 10.83 1.43 5.71 1.35 10.69c-.08 4.18-1.26 6.4-5.11 7.86q-1.99.75-2.47 1m-14.92-18.44 2.057 14.455a.36.36-5.818 0 0 .407.305l1.247-.177a4.07 4.02 81.9 0 0 3.407-4.596l-1.012-7.109a4.07 4.02 81.9 0 0-4.553-3.462l-1.248.177a.36.36 74.166 0 0-.305.407M658.55 235.87l-5.09 28.89a.579.571 9.709 0 1-.66.46l-12.92-2.28a.43.43 52.907 0 1-.34-.5l11.35-64.33a.65.65-59.345 0 1 .75-.53l12.74 2.25a.778.773 1.07 0 1 .63.65l4.24 30.2a.249.248 46.048 0 0 .49.01l5.01-28.41a.608.598-79.526 0 1 .7-.49l12.72 2.24a.61.61 46.376 0 1 .49.71l-11.34 64.29a.51.5 10.304 0 1-.59.4l-13.75-2.42a.508.502 2.374 0 1-.41-.44l-3.54-30.68a.244.241 47.071 0 0-.48-.02M492.956 229.515a.54.54 69.83 0 1 .656.395l2.766 11.049a.313.311-14.672 0 1-.228.385l-9.598 2.379a.621.611 75.935 0 0-.443.753l3.397 13.56a.517.51-13.993 0 0 .632.375l11.34-2.843a.53.53 34.6 0 1 .646.378l2.854 11.461a.59.59-73.899 0 1-.427.72l-27.939 6.977a.33.33-75.439 0 1-.405-.24l-15.904-63.691a.393.386 76.614 0 1 .289-.479l26.78-6.666a.56.551-13.36 0 1 .674.408l2.851 11.415a.611.602 76.194 0 1-.439.739l-10.06 2.461a.585.583-13.864 0 0-.432.711l2.826 11.431a.845.842 75.983 0 0 1.027.619z"></path><path fill="#283c98" fill-rule="evenodd" d="M580.874 207.818q.471-.002 3.151 27.514a.498.495 84.951 0 1-.449.541q-1.285.111-2.575.117t-2.576-.094a.498.495-85.468 0 1-.455-.537q2.432-27.539 2.904-27.541M523.75 208.98a.36.36-67.563 0 1 .305-.407l1.248-.177a4.07 4.02 81.9 0 1 4.553 3.462l1.012 7.109a4.07 4.02 81.9 0 1-3.407 4.596l-1.247.177a.36.36 33.659 0 1-.407-.305z"></path><path fill="#fff" fill-rule="evenodd" d="m722.395 253.506-9.66-2.762a.38.38-58.648 0 0-.47.261l-3.95 13.78a.38.38-79.987 0 0 .26.47l11.53 3.3a.38.38 49.504 0 1 .26.47l-3.35 11.69a.38.38 63.808 0 1-.47.26l-27.84-7.97a.38.38-33.932 0 1-.26-.47l18.06-63.06a.38.38-52.445 0 1 .47-.26l26.72 7.65a.38.38-67.636 0 1 .26.47l-3.35 11.69a.38.38 57.443 0 1-.47.26l-10.38-2.97a.38.38 24.85 0 0-.47.26l-3.42 11.93a.38.38 25.069 0 0 .26.47l9.64 2.76a.38.38-44.162 0 1 .26.47l-3.16 11.04a.38.38 28.402 0 1-.47.261M436.31 218.898l17.15 49.784a.4.4 82.686 0 0 .508.248l9.154-3.15a.4.4 78.33 0 1 .508.248l3.94 11.444a.4.4-73.413 0 1-.248.508l-25.184 8.68a.4.4-82.249 0 1-.508-.248l-21.35-61.994a.4.4 22.73 0 1 .248-.508l15.274-5.26a.4.4-1.772 0 1 .508.248M744.118 290.728l25.545-60.186a.48.48-29.192 0 1 .629-.255l25.756 10.926a.48.48-57.267 0 1 .255.629l-4.665 10.996a.48.48 63.281 0 1-.63.254l-10.156-4.314a.48.48-73.616 0 0-.629.254l-4.776 11.266a.48.48-85.952 0 0 .255.629l8.916 3.785a.48.48 55.316 0 1 .254.63l-4.404 10.357a.48.48 56.254 0 1-.629.254l-8.917-3.776a.48.48 68.746 0 0-.629.254l-10.575 24.917a.48.48-21.972 0 1-.63.255l-14.716-6.245a.48.48 48.619 0 1-.254-.63M424.505 275.962a17.3 17.3 0 0 1-8.207 23.048l-4.462 2.119a17.3 17.3 0 0 1-23.049-8.207l-14.712-30.984a17.3 17.3 0 0 1 8.207-23.048l4.462-2.119a17.3 17.3 0 0 1 23.049 8.207zm-31.351-26.882a2.82 2.82 0 0 0-3.748-1.364l-.054.025a2.82 2.82 0 0 0-1.364 3.748l17.538 37.611a2.82 2.82 0 0 0 3.748 1.364l.054-.025a2.82 2.82 0 0 0 1.364-3.748z"></path><path fill="#283c98" fill-rule="evenodd" d="M410.692 286.691a2.82 2.82 0 0 1-1.364 3.748l-.054.025a2.82 2.82 0 0 1-3.748-1.364l-17.538-37.611a2.82 2.82 0 0 1 1.364-3.748l.054-.025a2.82 2.82 0 0 1 3.748 1.364z"></path><path fill="#fff" fill-rule="evenodd" d="M358.53 298.42a.448.438-29.591 0 1 .17-.59l13.86-8a.328.325-31.902 0 1 .44.1c3.74 5.87 8.67 14.09 6.93 20.78-2.23 8.62-10.19 14.14-18.49 16.25-10.66 2.71-16.13-4.22-20.86-12.28q-11.41-19.41-15.01-26.26c-7.34-13.98 5.96-25.98 18.56-27.88q9.64-1.46 15.36 6.72 4.66 6.67 7.42 12.06a.6.592 61.641 0 1-.23.79l-13.58 7.84a.569.561-29.997 0 1-.77-.2l-7.97-13.5a2.887 2.887 56.09 0 0-4.23-.83l-.22.15a3.316 3.316 57.936 0 0-1.01 4.4l20.19 34.94a3.634 3.627 64.338 0 0 4.46 1.57l.04-.01a2.91 2.902 65.409 0 0 1.53-4.13zM826.101 302.042a.449.438 29.445 0 1 .593-.158l13.994 7.771a.328.325 27.135 0 1 .141.429c-3.11 6.229-7.623 14.687-14.257 16.638-8.541 2.523-17.372-1.464-23.453-7.497-7.81-7.748-4.681-16.006-.202-24.211q10.776-19.775 14.799-26.388c8.214-13.49 25.35-8.258 33.464 1.571q6.213 7.517 2.141 16.633-3.323 7.429-6.526 12.571a.601.592-59.323 0 1-.796.209l-13.713-7.613a.57.561 29.04 0 1-.224-.764l7.477-13.783a2.888 2.886-64.874 0 0-1.465-4.055l-.241-.112a3.317 3.316-63.027 0 0-4.294 1.398l-19.578 35.298a3.635 3.628-56.625 0 0 .948 4.634l.029.029a2.911 2.903-55.554 0 0 4.33-.813zM784.528 309.059a.38.38 0 0 1-.509.174l-10.219-5.006a.38.38 0 0 1-.174-.509l5.446-11.117a.38.38 0 0 1 .509-.174l10.219 5.006a.38.38 0 0 1 .174.509zM779.34 771.25 590.91 581.71a.354.354 90 0 0-.5 0L398.07 775.32q-22.72-38.07-37.85-79.05c-18.63-50.46-29.47-103.81-34.63-157.44a.406.402 80.421 0 1 .31-.44q18.34-4.5 38.8-11.66 18.04-6.32 36.69-7.48 6.27-.39 12.61.75 19.44 3.48 34.18 8.86c23.8 8.69 39.8 14.94 61.59 15.61a4.48 4.185 38.2 0 0 1.06-.09l4.74-.98a.502.499 64.199 0 0 .28-.81q-6.09-7.41-10.87-16.04a1.23 1.23 77.708 0 0-.98-.63q-12.02-.99-23.37-5.57-21.22-8.56-26.45-10.51-16.43-6.1-35.25-9.14-8.3-1.34-16.9-.63-15.92 1.32-27.96 4.39c-8.6 2.2-20.13 7.13-26.81 9.56q-8.45 3.08-22.8 6.1a.546.545-7.413 0 1-.65-.5l-1.34-20.16a.654.652-5.442 0 1 .58-.7q1.12-.12 10.73-2.51 9.51-2.38 32.1-10.11 14.57-4.98 31.68-6.62c2.79-.27 5.47-.02 8.24-.43a4.791 4.755-45.214 0 1 1.34-.01q22.37 3.1 44.04 11.76c16.17 6.46 28.47 11.27 43.73 13.03a.428.428-4.605 0 0 .46-.54q-2.63-9.35-3.61-18.61a.913.912 4.847 0 0-.65-.77c-8.81-2.56-17-5.92-33.12-12.42q-17.56-7.07-38.62-10.64-9.22-1.56-17.3-.88-17.84 1.5-31.91 5.39c-7.41 2.05-18.18 6.9-25.98 9.51q-9.82 3.28-22.07 5.52a.751.746 84.88 0 1-.88-.74v-21.14a.584.583-6.142 0 1 .46-.57q14.57-3.16 21.56-5.46c20.9-6.88 36.59-12.82 56.77-14.29q7.22-.53 13.4.68 17.84 3.49 28.88 7.55 7.49 2.76 28.3 10.69 7.68 2.92 20.4 5.02a.548.544 7.501 0 0 .63-.48q.88-9.17 3.15-17.59a.355.35-75.954 0 0-.26-.44c-13.04-2.78-27.81-9.85-37.9-13.76q-17.91-6.95-37.91-10.22-8.42-1.37-16.36-.75-14.68 1.15-26.66 3.92c-10.56 2.43-23.36 8.36-32.33 11.25q-9.74 3.13-21.9 5.35a.558.557 85.203 0 1-.65-.55v-20.26a.654.641 84.665 0 1 .52-.64q17.88-3.6 31.62-8.3c19.39-6.64 32.98-11.12 50.45-12.07q7.43-.41 16.12 1.34 16.48 3.32 30.72 8.81 17.45 6.72 21.51 8.2 14.86 5.43 30.55 6.62a.82.82 15.868 0 0 .79-.44q4.75-9.31 11.1-17.46a.349.346-72.627 0 0-.29-.56c-19.23 1.1-32.98-6.13-54.48-14.8q-17.4-7.01-40.26-10.55-6.94-1.07-14.3-.45-12.15 1.02-22.67 3.07c-13.43 2.61-26.58 9.12-38.1 12.66q-11.07 3.4-22.37 5.2a.408.405 86.555 0 1-.47-.42l.65-14.87a.996.987 74.147 0 1 .43-.78c52.39-36.57 112.31-64.37 174.2-77.91q66.53-14.55 133.41-7.41c80.54 8.59 157.14 39.99 224.84 85.36a1.502 1.494 15.093 0 1 .66 1.14l1.01 15.18a.447.444 4.841 0 1-.55.46q-12.65-3.08-17.38-4.94-18.42-7.23-23.42-8.63-13.87-3.91-31.49-5.23-8.11-.6-16.18.67-21.66 3.41-41.72 11.59c-18.35 7.48-29.97 13.16-46.2 13.75a.243.239-18.923 0 0-.19.38q5.95 8.46 9.91 16.77a1.208 1.205-15.977 0 0 1.23.68c17.42-2.21 28.31-6.95 48.39-14.67q15.04-5.79 32.53-9.02 7.15-1.32 14.01-.89 15.56.99 30.13 5.53c14.28 4.44 26.81 9.07 42.01 12.81a.887.872-83.394 0 1 .67.86v20.55a.225.222-83.814 0 1-.27.22q-10.02-2.27-18.79-5.6c-13.73-5.23-20.32-8-32.12-10.39q-6.88-1.39-21.03-2.67-7.25-.66-13.47.32-20.38 3.21-34.75 8.43-8.78 3.18-27.23 10.74-6.69 2.74-13.1 4.37a.577.575-13.792 0 0-.42.69q2.18 8.89 2.73 17.46a.827.823 82.657 0 0 .98.76c15.61-3.04 27.6-8.64 44.4-14.91q11.73-4.38 29.71-7.84 6.53-1.26 13.42-.74 16.49 1.22 30.88 5.8c10.68 3.41 25.96 8.93 39.54 12.14a.682.677-82.901 0 1 .51.66v21.51a.49.485-83.848 0 1-.59.48c-12.49-2.59-26.45-8.43-36.18-12.03-11.09-4.11-24.18-5.76-36.92-6.8q-6.62-.55-13.48.46-20.07 2.93-39.13 10.12c-8.72 3.29-21.97 9.52-33.2 12.7a.551.548-4.722 0 0-.4.47q-1.23 9.75-4.18 19.27a.462.456-84.612 0 0 .49.6q9.93-1.29 20.91-4.94 2.47-.83 25.42-9.56 18.52-7.06 38.19-9.81 1.73-.24 3.89-.15 20.55.86 38.11 6.93 20.12 6.95 36.37 11.26a.688.686-81.586 0 1 .51.69l-.89 20.35a.374.367 7.336 0 1-.45.34q-7.77-1.63-15.96-4.53c-9.55-3.38-17.82-7.22-26.57-9.48-10.42-2.69-19.1-3.71-30.1-4.73q-6.4-.59-12.54.3-23.96 3.46-45.53 12.36c-13.3 5.48-27.01 11.84-41.5 13.2a.916.91 11.5 0 0-.7.46q-5.04 8.64-11.95 16.52a.381.379-63.818 0 0 .21.62c2.82.59 4.76 1.13 7.69.98q19.6-1.03 38.55-8.01c20.54-7.57 35.7-13.01 54.93-16.35q6.76-1.17 12.93-.8 17.24 1.06 33.43 6.5 17 5.72 35.75 11.22a.484.478-79.604 0 1 .34.5q-4.48 60.21-20.74 113.81-18.84 62.05-56.56 117.12M562.06 396.18l33.28 14.13a1.117 1.101 43.944 0 0 .89-.01l33.52-15.37a.323.32-31.197 0 0 .12-.48l-9.68-13.47a3.791 3.771-6.783 0 0-1.66-1.3q-23.03-9.29-44.97 1.08a3.641 3.582 5.659 0 0-1.29 1.04l-10.47 13.36a.665.656-59.669 0 0 .26 1.02m96.466 21.885-4.616 34.294a.576.564 31.089 0 0 .11.426l20.524 26.301a.794.792 56.9 0 0 1.007.213l10.688-5.682a.773.765-13.632 0 0 .41-.665q.639-28.338-13.26-52.957a1.142 1.13 79.024 0 0-.826-.563l-13.456-1.809a.523.519 7.484 0 0-.581.442M518.783 483.51l20.112-28.065a.574.563 59.049 0 0 .102-.427l-5.784-32.781a.793.79 84.861 0 0-.787-.659l-12.078.007a.771.764 14.328 0 0-.673.395q-13.82 24.676-13.088 52.875a1.139 1.127-73.015 0 0 .464.883l11.013 7.89a.522.517 35.444 0 0 .719-.118m62.553-30.599q-14.997 10.894-15.058 11.082-.061.187 5.665 17.817t5.886 17.746 18.696.117 18.696-.114 5.89-17.744 5.668-17.817-15.056-11.084-15.192-10.897-15.195 10.894m83.147 62.733-33.668 7.967a.575.564-79.891 0 0-.358.255l-17.206 28.576a.794.792-54.079 0 0 .161 1.016l9.13 7.943a.773.765 55.388 0 0 .768.145q26.684-9.548 44.691-31.336a1.142 1.129-31.955 0 0 .231-.972l-3.128-13.209a.523.518 76.504 0 0-.621-.385M582.25 557.37l-16.46-30.46a.576.565-4.963 0 0-.34-.28l-32.09-9.19a.795.793 20.848 0 0-.94.42l-5.3 10.89a.773.766-49.684 0 0 .06.78q16.17 23.3 41.91 35.03a1.143 1.13 42.972 0 0 1-.03l11.95-6.46a.524.519-28.568 0 0 .21-.7m-215.58 24.42c-5.19 8.11 6.01 5.7 5.33 12.46-.22 2.22-.57 3.39-2.57 5.34q-2.63 2.58-2.16 6.89a.248.244-22.789 0 0 .4.16q1.37-1.09 2.66-1.06a1.266 1.261-17.207 0 1 1.01.53c1.73 2.45 2.68 4.12 5.45 4.38 8.75.81 7.95 11.81 5.54 17.6q-3.04 7.29-3.88 8.87c-7.84 14.56-13.98 24.71-13.83 39.99a2.621 2.533-59.657 0 0 .27 1.11q1.6 3.2 5.36 3.75 5.9.88 12 .68 9.37-.31 20.25-.6c9.39-.25 20.2 2.28 27 2.13q9.52-.2 12.98-.31 4.44-.15 7.2-3.37a.251.25 29.725 0 0-.11-.4q-9.57-3.08-19.6-8.87-8.99-5.19-21.38-5.33-3.04-.04-9.1 1.28c-6.38 1.39-11.92 2.41-18.66 2.15a.625.622-86.152 0 1-.6-.69c.58-5.42 3.54-9 7.13-14.58q2.82-4.37 2.39-10.89c-.42-6.29-3.81-12.92 3.16-17.18q1.93-1.18 7.58-1.51 22.17-1.31 37.46-.94a.948.945 75.685 0 0 .84-1.42l-2.93-5.08a.868.844-15.247 0 0-.76-.42q-7.09.12-21.85-.49-.95-.04-8.74.09-4.15.06-4.67-3.14c-.64-3.87 3.17-7.76.57-11.49a1.677 1.667-35.58 0 1 .39-2.31q3.97-2.89 4.81-3.81c4.7-5.13-8.6-9.23-8.99-14.06-.5-6.26 9.57-7.17 14.24-7.33q6.42-.22 13.8-.08a.471.466-85.74 0 1 .46.54q-.59 4-2.04 6.48-4.48 7.64-5.85 10.32a.88.877-75.79 0 0 .76 1.28q1.85.03 3.99 1.09a.459.455-55.376 0 1 .13.73c-4.5 4.61-13.04 4.9-15.4 11.24a.656.652 21.39 0 0 .37.84c5.31 2.09 10.7 1.53 17.97 1.46a7.637 7.594-39.966 0 1 1.29.11q.51.09 9.07 1.94 4.2.91 5.46-2.59a.804.794-77.686 0 1 .8-.52c4.68.31 7.61 1.86 11.68-1.94a.513.512 38.783 0 0-.09-.82c-1.5-.85-2.74-1.79-3.2-3.68q-.83-3.36-3.45-5.79a1.627 1.621-46.089 0 1-.04-2.33c2.21-2.22 9.42-8.05 3.42-9.97q-5.44-1.74-7.29-2.48a2.168 2.162-72.55 0 1-1.3-2.5c1.04-4.45 6.73-7.47 10.46-9.31a.57.57 53.699 0 0 .14-.92c-4.72-4.52-9.37-2.21-15.22-1.45a.535.531 6.83 0 1-.57-.72c1.71-4.41 1.13-7.23-.76-12.57q-1.07-3.05-1.48-6.2a.456.452-26.95 0 0-.78-.25c-4.45 4.76-10.37 5.42-16.2 8.17a2.942 2.877-53.582 0 1-1.54.25c-4.5-.54-5.3-6.86-5.19-10.59a.271.267 69.611 0 0-.45-.21l-12.9 12.18a1.036 1.015-69.808 0 1-.59.28q-1.63.22-2.93-1.3-3.04-3.57-5.61-5.92a.701.7-66.403 0 0-1.17.46q-.29 3.38-.57 7.84-.36 5.64-5.97 6.96a2.53 2.473 45.661 0 1-1.3-.03l-5.9-1.69a.721.717 85.812 0 0-.85.99l2.63 5.73a2.601 2.598-35.091 0 1-.51 2.91q-1.91 1.94-4.23 2.83c-2.61 1-5.36 1.2-7.33 3.91a.964.951-32.626 0 0-.17.75q.54 2.92 3.91 1.96a.318.316-81.303 0 1 .35.48m368.769 3.492c-5.189 8.107 6.008 5.699 5.328 12.457-.22 2.22-.57 3.389-2.57 5.338q-2.63 2.579-2.16 6.888a.248.244-22.783 0 0 .4.16q1.369-1.089 2.659-1.059a1.265 1.261-17.201 0 1 1.01.53c1.729 2.449 2.678 4.119 5.448 4.379 8.747.811 7.946 11.808 5.536 17.596q-3.04 7.288-3.879 8.867c-7.84 14.555-13.979 24.702-13.831 39.978a2.621 2.532-59.651 0 0 .27 1.109q1.599 3.2 5.358 3.75 5.898.88 11.997.681 9.367-.309 20.244-.598c9.388-.249 20.194 2.282 26.992 2.132q9.518-.199 12.977-.308 4.439-.15 7.198-3.369a.251.25 29.731 0 0-.11-.399q-9.567-3.081-19.593-8.87-8.987-5.19-21.374-5.331-3.039-.04-9.097 1.279c-6.379 1.389-11.917 2.408-18.656 2.147a.625.622-86.146 0 1-.599-.689c.58-5.419 3.54-8.998 7.129-14.576q2.82-4.368 2.391-10.886c-.419-6.289-3.808-12.917 3.161-17.175q1.929-1.18 7.578-1.509 22.164-1.307 37.449-.936a.948.945 75.69 0 0 .84-1.42l-2.928-5.078a.868.843-15.241 0 0-.76-.42q-7.088.119-21.844-.493-.95-.04-8.738.09-4.148.059-4.668-3.14c-.639-3.869 3.17-7.758.571-11.487a1.676 1.667-35.574 0 1 .39-2.309q3.969-2.889 4.809-3.809c4.7-5.128-8.596-9.228-8.986-14.057-.499-6.258 9.568-7.167 14.237-7.326q6.418-.219 13.796-.079a.471.466-85.735 0 1 .46.54q-.59 3.999-2.04 6.478-4.48 7.638-5.85 10.317a.879.877-75.784 0 0 .76 1.279q1.85.031 3.989 1.091a.459.455-55.37 0 1 .13.729c-4.499 4.609-13.037 4.898-15.397 11.236a.655.652 21.396 0 0 .37.839c5.308 2.09 10.697 1.531 17.965 1.462a7.635 7.592-39.96 0 1 1.289.11q.51.09 9.068 1.94 4.198.911 5.458-2.588a.803.794-77.68 0 1 .8-.52c4.679.31 7.608 1.86 11.677-1.938a.513.512 38.789 0 0-.09-.82c-1.499-.85-2.739-1.79-3.199-3.679q-.829-3.36-3.448-5.789a1.626 1.62-46.083 0 1-.04-2.329c2.21-2.22 9.418-8.047 3.42-9.967q-5.438-1.74-7.287-2.48a2.167 2.161-72.544 0 1-1.3-2.5c1.04-4.449 6.729-7.467 10.458-9.306a.57.569 53.705 0 0 .14-.92c-4.718-4.519-9.367-2.21-15.215-1.451a.534.531 6.836 0 1-.57-.72c1.71-4.409 1.13-7.228-.759-12.567q-1.069-3.049-1.478-6.198a.456.451-26.944 0 0-.78-.25c-4.45 4.758-10.368 5.417-16.197 8.166a2.941 2.876-53.576 0 1-1.539.25c-4.499-.541-5.298-6.859-5.188-10.588a.271.267 69.617 0 0-.45-.21l-12.897 12.176a1.036 1.015-69.802 0 1-.59.279q-1.63.22-2.929-1.3-3.039-3.569-5.608-5.919a.701.7-66.397 0 0-1.17.46q-.29 3.379-.57 7.838-.361 5.638-5.969 6.957a2.53 2.472 45.667 0 1-1.3-.03l-5.898-1.69a.721.717 85.818 0 0-.85.99l2.629 5.728a2.6 2.597-35.085 0 1-.511 2.91q-1.909 1.939-4.229 2.828c-2.609 1-5.358 1.2-7.328 3.909a.964.95-32.62 0 0-.17.749q.539 2.92 3.909 1.96a.318.316-81.297 0 1 .349.48M846.32 344.032a.28.28 0 0 1-.386.089l-9.82-6.136a.28.28 0 0 1-.09-.386l6.656-10.651a.28.28 0 0 1 .386-.089l9.82 6.136a.28.28 0 0 1 .09.386z"></path><path fill-rule="evenodd" d="m561.8 395.16 10.47-13.36a3.641 3.582 5.659 0 1 1.29-1.04q21.94-10.37 44.97-1.08a3.791 3.771-6.783 0 1 1.66 1.3l9.68 13.47a.323.32-31.197 0 1-.12.48l-33.52 15.37a1.117 1.101 43.944 0 1-.89.01l-33.28-14.13a.665.656-59.669 0 1-.26-1.02M658.526 418.065a.523.519 7.484 0 1 .581-.442l13.456 1.809a1.142 1.13 79.024 0 1 .826.563q13.899 24.619 13.26 52.957a.773.765-13.632 0 1-.41.665l-10.688 5.682a.794.792 56.9 0 1-1.007-.213l-20.524-26.301a.576.564 31.089 0 1-.11-.426zM518.783 483.51a.522.517 35.444 0 1-.719.118l-11.013-7.89a1.139 1.127-73.015 0 1-.464-.883q-.732-28.199 13.088-52.875a.771.764 14.328 0 1 .673-.395l12.078-.007a.793.79 84.861 0 1 .787.659l5.784 32.781a.574.563 59.049 0 1-.102.427zM596.531 442.017q.197 0 15.192 10.897t15.056 11.084-5.668 17.817q-5.73 17.628-5.89 17.744t-18.696.114q-18.536-.001-18.696-.117t-5.886-17.746-5.665-17.817 15.058-11.082 15.195-10.894M664.483 515.644a.523.518 76.504 0 1 .621.385l3.128 13.209a1.142 1.129-31.955 0 1-.231.972q-18.007 21.788-44.691 31.336a.773.765 55.388 0 1-.768-.145l-9.13-7.943a.794.792-54.079 0 1-.161-1.016l17.206-28.576a.575.564-79.891 0 1 .358-.255zM582.04 558.07l-11.95 6.46a1.143 1.13 42.972 0 1-1 .03q-25.74-11.73-41.91-35.03a.773.766-49.684 0 1-.06-.78l5.3-10.89a.795.793 20.848 0 1 .94-.42l32.09 9.19a.576.565-4.963 0 1 .34.28l16.46 30.46a.524.519-28.568 0 1-.21.7"></path><path fill="#283c98" fill-rule="evenodd" d="M366.67 581.79a.318.316-81.303 0 0-.35-.48q-3.37.96-3.91-1.96a.964.951-32.626 0 1 .17-.75c1.97-2.71 4.72-2.91 7.33-3.91q2.32-.89 4.23-2.83a2.601 2.598-35.091 0 0 .51-2.91l-2.63-5.73a.721.717 85.812 0 1 .85-.99l5.9 1.69a2.53 2.473 45.661 0 0 1.3.03q5.61-1.32 5.97-6.96.28-4.46.57-7.84a.701.7-66.403 0 1 1.17-.46q2.57 2.35 5.61 5.92 1.3 1.52 2.93 1.3a1.036 1.015-69.808 0 0 .59-.28l12.9-12.18a.271.267 69.611 0 1 .45.21c-.11 3.73.69 10.05 5.19 10.59a2.942 2.877-53.582 0 0 1.54-.25c5.83-2.75 11.75-3.41 16.2-8.17a.456.452-26.95 0 1 .78.25q.41 3.15 1.48 6.2c1.89 5.34 2.47 8.16.76 12.57a.535.531 6.83 0 0 .57.72c5.85-.76 10.5-3.07 15.22 1.45a.57.57 53.699 0 1-.14.92c-3.73 1.84-9.42 4.86-10.46 9.31a2.168 2.162-72.55 0 0 1.3 2.5q1.85.74 7.29 2.48c6 1.92-1.21 7.75-3.42 9.97a1.627 1.621-46.089 0 0 .04 2.33q2.62 2.43 3.45 5.79c.46 1.89 1.7 2.83 3.2 3.68a.513.512 38.783 0 1 .09.82c-4.07 3.8-7 2.25-11.68 1.94a.804.794-77.686 0 0-.8.52q-1.26 3.5-5.46 2.59-8.56-1.85-9.07-1.94a7.637 7.594-39.966 0 0-1.29-.11c-7.27.07-12.66.63-17.97-1.46a.656.652 21.39 0 1-.37-.84c2.36-6.34 10.9-6.63 15.4-11.24a.459.455-55.376 0 0-.13-.73q-2.14-1.06-3.99-1.09a.88.877-75.79 0 1-.76-1.28q1.37-2.68 5.85-10.32 1.45-2.48 2.04-6.48a.471.466-85.74 0 0-.46-.54q-7.38-.14-13.8.08c-4.67.16-14.74 1.07-14.24 7.33.39 4.83 13.69 8.93 8.99 14.06q-.84.92-4.81 3.81a1.677 1.667-35.58 0 0-.39 2.31c2.6 3.73-1.21 7.62-.57 11.49q.52 3.2 4.67 3.14 7.79-.13 8.74-.09 14.76.61 21.85.49a.868.844-15.247 0 1 .76.42l2.93 5.08a.948.945 75.685 0 1-.84 1.42q-15.29-.37-37.46.94-5.65.33-7.58 1.51c-6.97 4.26-3.58 10.89-3.16 17.18q.43 6.52-2.39 10.89c-3.59 5.58-6.55 9.16-7.13 14.58a.625.622-86.152 0 0 .6.69c6.74.26 12.28-.76 18.66-2.15q6.06-1.32 9.1-1.28 12.39.14 21.38 5.33 10.03 5.79 19.6 8.87a.251.25 29.725 0 1 .11.4q-2.76 3.22-7.2 3.37-3.46.11-12.98.31c-6.8.15-17.61-2.38-27-2.13q-10.88.29-20.25.6-6.1.2-12-.68-3.76-.55-5.36-3.75a2.621 2.533-59.657 0 1-.27-1.11c-.15-15.28 5.99-25.43 13.83-39.99q.84-1.58 3.88-8.87c2.41-5.79 3.21-16.79-5.54-17.6-2.77-.26-3.72-1.93-5.45-4.38a1.266 1.261-17.207 0 0-1.01-.53q-1.29-.03-2.66 1.06a.248.244-22.789 0 1-.4-.16q-.47-4.31 2.16-6.89c2-1.95 2.35-3.12 2.57-5.34.68-6.76-10.52-4.35-5.33-12.46M735.439 585.282a.318.316-81.297 0 0-.349-.48q-3.37.96-3.909-1.96a.964.95-32.62 0 1 .17-.749c1.97-2.709 4.719-2.909 7.328-3.909q2.32-.889 4.229-2.828a2.6 2.597-35.085 0 0 .511-2.91l-2.629-5.728a.721.717 85.818 0 1 .85-.99l5.898 1.69a2.53 2.472 45.667 0 0 1.3.03q5.608-1.319 5.969-6.957.28-4.459.57-7.838a.701.7-66.397 0 1 1.17-.46q2.569 2.35 5.608 5.919 1.299 1.52 2.929 1.3a1.036 1.015-69.802 0 0 .59-.279l12.897-12.176a.271.267 69.617 0 1 .45.21c-.11 3.729.689 10.047 5.188 10.588a2.941 2.876-53.576 0 0 1.539-.25c5.829-2.749 11.747-3.408 16.197-8.166a.456.451-26.944 0 1 .78.25q.409 3.149 1.478 6.198c1.889 5.339 2.469 8.158.759 12.567a.534.531 6.836 0 0 .57.72c5.848-.759 10.497-3.068 15.215 1.451a.57.569 53.705 0 1-.14.92c-3.729 1.839-9.418 4.857-10.458 9.306a2.167 2.161-72.544 0 0 1.3 2.5q1.849.74 7.287 2.48c5.998 1.92-1.21 7.747-3.42 9.967a1.626 1.62-46.083 0 0 .04 2.329q2.619 2.429 3.448 5.789c.46 1.889 1.7 2.829 3.199 3.679a.513.512 38.789 0 1 .09.82c-4.069 3.798-6.998 2.248-11.677 1.938a.803.794-77.68 0 0-.8.52q-1.26 3.499-5.458 2.588-8.558-1.85-9.068-1.94a7.635 7.592-39.96 0 0-1.289-.11c-7.268.069-12.657.628-17.965-1.462a.655.652 21.396 0 1-.37-.839c2.36-6.338 10.898-6.627 15.397-11.236a.459.455-55.37 0 0-.13-.729q-2.139-1.06-3.989-1.091a.879.877-75.784 0 1-.76-1.279q1.37-2.679 5.85-10.317 1.45-2.479 2.04-6.478a.471.466-85.735 0 0-.46-.54q-7.378-.14-13.796.079c-4.669.159-14.736 1.068-14.237 7.326.39 4.829 13.686 8.929 8.986 14.057q-.84.92-4.809 3.809a1.676 1.667-35.574 0 0-.39 2.309c2.599 3.729-1.21 7.618-.571 11.487q.52 3.199 4.668 3.14 7.788-.13 8.738-.09 14.756.612 21.844.493a.868.843-15.241 0 1 .76.42l2.928 5.078a.948.945 75.69 0 1-.84 1.42q-15.285-.371-37.449.936-5.649.329-7.578 1.509c-6.969 4.258-3.58 10.886-3.161 17.175q.429 6.518-2.391 10.886c-3.589 5.578-6.549 9.157-7.129 14.576a.625.622-86.146 0 0 .599.689c6.739.261 12.277-.758 18.656-2.147q6.058-1.319 9.097-1.279 12.387.141 21.374 5.331 10.026 5.789 19.593 8.87a.251.25 29.731 0 1 .11.399q-2.759 3.219-7.198 3.369-3.459.109-12.977.308c-6.798.15-17.604-2.381-26.992-2.132q-10.877.289-20.244.598-6.099.199-11.997-.681-3.759-.55-5.358-3.75a2.621 2.532-59.651 0 1-.27-1.109c-.148-15.276 5.991-25.423 13.831-39.978q.839-1.579 3.879-8.867c2.41-5.788 3.211-16.785-5.536-17.596-2.77-.26-3.719-1.93-5.448-4.379a1.265 1.261-17.201 0 0-1.01-.53q-1.29-.03-2.659 1.059a.248.244-22.783 0 1-.4-.16q-.47-4.309 2.16-6.888c2-1.949 2.35-3.118 2.57-5.338.68-6.758-10.517-4.35-5.328-12.457" data-source="https://football-logos.cc"></path><path fill="#e22726" fill-rule="evenodd" d="M779.34 771.25q-.07.09-.35.5-17.31 25.49-37.48 48.76-.46.54-.92.7l-148.01-146a.9.9 90 0 0-1.26 0L434.88 827.87q-.65-.47-.92-.81-19.29-24.1-35.17-50.57-.53-.89-.72-1.17l192.34-193.61a.354.354 0 0 1 .5 0z"></path><path fill="#fff" fill-rule="evenodd" d="M740.59 821.21q-.2.69-.43.95-32.81 37.23-70.02 71.73-38.99 36.14-81.62 72.32a.429.424 42.467 0 1-.52.02c-55.93-39.19-108.81-83.25-151.96-136.54q-.85-1.05-1.16-1.82l156.44-152.66a.9.9-90 0 1 1.26 0zm-169.33-94.04a.237.237 78.613 0 0-.39-.26l-31.31 34.48a.321.319 9.998 0 0 .36.51q21.43-8.74 44.45-13.5a.344.342-44.296 0 0 .01-.67c-8.85-1.95-17.52-11.03-13.12-20.56m57.24 19.56c20.88 5.82 32.19 23.12 31.74 44.35q-.13 6.34-1.84 10.29c-2.98 6.89-9.25 12.39-15.29 16.01-9.82 5.89-20.3 12.29-25.94 21.54a.531.531 8.258 0 0 .59.79q3.49-.94 7.74-1.22 7.2-.46 11.17-.49c7.24-.07 12.68-1.84 19.02-3.01q16.15-3 28.29 6.06c7.28 5.43 10.78 13.38 20.11 15.98a.468.466 81.688 0 0 .52-.7q-14.23-22.63-19.69-48.5-1.32-6.24-3.22-17.17c-3.07-17.71-10.1-32.18-26.95-39.76q-2.1-.94-8.08-3.1c-6.38-2.31-11.98-3.86-18.19-1.68a.32.319-46.972 0 0 .02.61m-157.46 92.94q-2.72 1.32-5.12 3.23c-11.3 8.98 17.29 10.57 20.36 10.67 11.43.36 18.66-11.02 19.24-21.35q.13-2.19-1.05-6.88a.331.33 3.323 0 1 .44-.39c3.18 1.26 3.69 5.24 3.22 8.33q-.74 4.91-2.95 15.88a.661.661 77.394 0 0 1.04.66c5.66-4.16 14.24-5.76 22.32-6.76q6.59-.82 10.49-1.93c13.66-3.87 27.06-8.27 39.43-15.23q11.34-6.4 13.53-7.89 11.67-7.96 25.11-16.89 18.44-12.26 40.03-14.22a.773.766-6.098 0 0 .7-.86c-3.04-24.93-24.92-40.59-49.45-38.65q-21.23 1.68-44.58 9.67-7.04 2.4-21.29 6.96-22.65 7.23-40.99 21.28-7.78 5.96-21.85 17.24-9.32 7.46-13.29 11.53c-3.26 3.33-21.31 21.93-10.6 24.16 3.72.77 6.94.03 11.57-.67a1.732 1.723-35.679 0 1 .99.16l2.7 1.31a.356.356 79.116 0 1 0 .64m140.65-30.19q5.2-1.43 8.32-.52c5.96 1.73 11.2 3.69 15.45 2.52 4.43-1.23 6.73-6.32 4.62-10.56a1.51 1.51-28.714 0 0-.91-.77c-10.85-3.43-19.11 1.75-27.73 8.83a.287.284-71.907 0 0 .25.5m-73.57 52.59c2.12-2.02-.81-6.73-2.27-8.39-3.62-4.12-11.39-8.94-17.1-6.9-2.75.99-4.43 3.87-3.06 6.71 2.76 5.74 11.78 9.05 17.79 9.82q2.95.37 4.64-1.24"></path><path fill="#283c98" fill-rule="evenodd" d="M571.26 727.17c-4.4 9.53 4.27 18.61 13.12 20.56a.344.342-44.296 0 1-.01.67q-23.02 4.76-44.45 13.5a.321.319 9.998 0 1-.36-.51l31.31-34.48a.237.237 78.613 0 1 .39.26M628.5 746.73a.32.319-46.972 0 1-.02-.61c6.21-2.18 11.81-.63 18.19 1.68q5.98 2.16 8.08 3.1c16.85 7.58 23.88 22.05 26.95 39.76q1.9 10.93 3.22 17.17 5.46 25.87 19.69 48.5a.468.466 81.688 0 1-.52.7c-9.33-2.6-12.83-10.55-20.11-15.98q-12.14-9.06-28.29-6.06c-6.34 1.17-11.78 2.94-19.02 3.01q-3.97.03-11.17.49-4.25.28-7.74 1.22a.531.531 8.258 0 1-.59-.79c5.64-9.25 16.12-15.65 25.94-21.54 6.04-3.62 12.31-9.12 15.29-16.01q1.71-3.95 1.84-10.29c.45-21.23-10.86-38.53-31.74-44.35"></path><path fill="#283c98" fill-rule="evenodd" d="m471.04 839.03-2.7-1.31a1.732 1.723-35.679 0 0-.99-.16c-4.63.7-7.85 1.44-11.57.67-10.71-2.23 7.34-20.83 10.6-24.16q3.97-4.07 13.29-11.53 14.07-11.28 21.85-17.24 18.34-14.05 40.99-21.28 14.25-4.56 21.29-6.96 23.35-7.99 44.58-9.67c24.53-1.94 46.41 13.72 49.45 38.65a.773.766-6.098 0 1-.7.86q-21.59 1.96-40.03 14.22-13.44 8.93-25.11 16.89-2.19 1.49-13.53 7.89c-12.37 6.96-25.77 11.36-39.43 15.23q-3.9 1.11-10.49 1.93c-8.08 1-16.66 2.6-22.32 6.76a.661.661 77.394 0 1-1.04-.66q2.21-10.97 2.95-15.88c.47-3.09-.04-7.07-3.22-8.33a.331.33 3.323 0 0-.44.39q1.18 4.69 1.05 6.88c-.58 10.33-7.81 21.71-19.24 21.35-3.07-.1-31.66-1.69-20.36-10.67q2.4-1.91 5.12-3.23a.356.356 36.907 0 0 0-.64m148.03-82.41a.117.116 37.906 0 0-.03-.23q-28.17.23-54.69 9.96-30.95 11.35-52.34 21.93-3.69 1.82-8.02 5.44c-2.92 2.44-6.28 3.92-8.08 7.08a1.04 1.04-51.944 0 0 0 1.04q1.46 2.55 3.83 3.49 6.09 2.42 8.85 5.12a.761.752-39.221 0 0 .94.09c4.93-3.17 8.79-8.19 14.04-11.99 12.93-9.33 20.43-15.2 31.51-19.96 20.16-8.64 42-16.91 63.99-21.97m-132.659 61.811a3.32 3.32 0 0 0-3.533-3.093l-1.197.08a3.32 3.32 0 0 0-3.093 3.533l.041.618a3.32 3.32 0 0 0 3.533 3.093l1.197-.08a3.32 3.32 0 0 0 3.093-3.533zm-6.851 16.259-4.24 1.46a.395.35-85.298 0 0-.23.22l-.44 1.04a.218.217 87.978 0 0 .3.28l4.79-2.59a.225.225 21.322 0 0-.18-.41"></path><path fill="#fff" fill-rule="evenodd" d="M619.07 756.62c-21.99 5.06-43.83 13.33-63.99 21.97-11.08 4.76-18.58 10.63-31.51 19.96-5.25 3.8-9.11 8.82-14.04 11.99a.761.752-39.221 0 1-.94-.09q-2.76-2.7-8.85-5.12-2.37-.94-3.83-3.49a1.04 1.04-18.063 0 1 0-1.04c1.8-3.16 5.16-4.64 8.08-7.08q4.33-3.62 8.02-5.44 21.39-10.58 52.34-21.93 26.52-9.73 54.69-9.96a.117.116 37.906 0 1 .03.23"></path><path fill="#283c98" fill-rule="evenodd" d="M611.44 808.98c8.62-7.08 16.88-12.26 27.73-8.83a1.51 1.51-13.965 0 1 .91.77c2.11 4.24-.19 9.33-4.62 10.56-4.25 1.17-9.49-.79-15.45-2.52q-3.12-.91-8.32.52a.287.284-71.907 0 1-.25-.5"></path><path fill="#fff" fill-rule="evenodd" d="M486.452 819.049a3.32 3.32 0 0 1-3.093 3.533l-1.197.08a3.32 3.32 0 0 1-3.533-3.093l-.041-.618a3.32 3.32 0 0 1 3.093-3.533l1.197-.08a3.32 3.32 0 0 1 3.533 3.093zM479.74 835.1l-4.79 2.59a.218.217 87.978 0 1-.3-.28l.44-1.04a.395.35-85.298 0 1 .23-.22l4.24-1.46a.225.225 21.322 0 1 .18.41"></path><path fill="#283c98" fill-rule="evenodd" d="M538.12 862.07q-1.69 1.61-4.64 1.24c-6.01-.77-15.03-4.08-17.79-9.82-1.37-2.84.31-5.72 3.06-6.71 5.71-2.04 13.48 2.78 17.1 6.9 1.46 1.66 4.39 6.37 2.27 8.39" data-source="https://football-logos.cc"></path><!-- source: https://football-logos.cc --></svg>