<svg xmlns="http://www.w3.org/2000/svg" viewBox="14.17 137.48 566.93 566.93"><!-- Source: https://football-logos.cc --><path d="M297.638 137.48a283.465 283.465 0 0 1 283.464 283.465A283.465 283.465 0 1 1 297.638 137.48" style="fill:#f8d641;fill-rule:evenodd" data-source="https://football-logos.cc"></path><path d="M297.638 147.666a273.28 273.28 0 0 1 273.278 273.279 273.279 273.279 0 1 1-273.278-273.279" style="fill:#d40720;fill-rule:evenodd"></path><path d="M297.602 208.515A212.685 212.575 0 0 1 510.287 421.09a212.685 212.575 0 1 1-212.685-212.575" style="fill:#f8d641;fill-rule:evenodd"></path><path d="M297.602 217.724c95.374 0 175.432 65.624 197.458 154.145l-111.023 29.214c-8.523-38-42.466-66.404-83.034-66.404-46.99 0-85.1 38.108-85.1 85.1 0 15.487 4.14 30.009 11.375 42.52l-106.866 58.8c-16.73-29.532-26.285-63.656-26.285-100.009 0-112.297 91.118-203.366 203.475-203.366M410.765 359.76c-3.64 3.544-7.951 5.6-13.519 5.555-13.012-.105-21.479-15.059-24.023-26.26-1.81-7.974-1.771-16.65 1.63-24.21 2.81-6.246 7.89-11.403 14.66-13.121 4.277-1.086 8.196-.474 11.508 1.389-1.634-4.282-4.176-7.325-9.936-9.96-3.224-1.474-1.462-6.747 2.225-5.292 6.353 2.508 10.848 6.976 13.535 14.92 5.46-3.423 11.778-5.94 17.512-5.83 7.906.151 15.347 4.304 20.555 10.094 6.23 6.926 9.246 15.943 9.091 25.206-.13 7.828-2.48 15.6-7.006 22.015-3.744 5.305-9.288 9.987-15.762 11.387-6.443 1.394-14.128-.532-19.16-4.786zm-160.01-104.35c-1.754-2.808-3.605-6.115-2.897-9.322.66-2.99 2.684-5.497 4.945-7.471 2.023-1.766 5.55-4.132 8.17-4.86 6.496-1.805 11.637.773 17.983.503 2.435-.104 4.73-.506 7.089-1.092 1.976-.492 4.22-1.256 6.257-.837 7.557 1.555 13.395 10.741 11.912 18.248-.438 2.221-1.351 4.62-2.492 6.925 5.463-2.617 11.721-4.932 16.75-3.29 2.454.802 5.387 3.158 7.169 4.973 3.026 3.084 5.276 6.95 5.71 11.31.796 7.992-2.527 14.863-6.383 21.506 1.169 9.436-3.406 25.525-13.013 27.595-1.63.351-3.294.45-4.954.296-5.112-.477-9.545-3.183-13.234-6.942.53 3.18-1.237 4.722-3.91 4.696l-23.169-.225c-3.364-.016-4.232-3.464-3.64-5.729-2.273 1.667-4.902 3-7.927 3.968-5.686 1.817-13.977 1.96-18.867-1.834-4.662-3.617-7.19-8.42-7.339-14.315-.082-3.253 1.045-5.668 1.35-8.717.368-3.653-1.236-11.087-2.061-14.851-.998-4.55-2.716-8.978.007-13.32 3.836-6.12 15.754-8.678 22.459-7.233zm-104.058 82.965c1.76-2.221 3.444-3.463 6.2-5.038 4.103-2.346 11.25-3.895 15.959-3.705 3.04.122 7.322 4.309 9.346 6.404.863.893 1.685 1.85 2.71 2.567 2.278 1.596 5.221 2.554 7.09 4.593 1.954 2.13 3.07 6.758 3.955 9.538.509 1.602 1.084 3.321 1.885 4.802 1.635 3.023 5.12 6.17 5.127 9.72.007 4.037-4.162 8.966-7.4 11.766-.09 1.682-.313 3.359-.86 4.96-1.243 3.634-4.164 6.447-7.767 7.724-1.958.693-3.997 1.197-5.975 1.842-1.592.518-3.177 1.07-4.773 1.584 6.795 1.54 10.559 6.84 12.248 12.237a92 92 0 0 0-11.063 4.498c-5.043 2.44-9.589 5.735-12.944 10.407l-2.283 3.18 1.572 5.085c.962-3.44 2.831-6.31 5.894-8.728 3.466-2.738 7.846-3.686 12.13-3.255 3.6.36 6.313 1.656 9.512 3.165-1.042 1.888-1.683 3.636-2.864 5.442-.832 1.273-1.711 2.585-2.117 3.923-1.429 4.71-1.122 9.56-4.597 13.603-1.754 2.041-3.613 2.707-5.714 4.13l-.288.194a132 132 0 0 0 7.658 8.842l-3.911 3.22c-7.047-7.136-13.743-16.322-19.186-25.817l-.301.652c-1.09 2.353-2.106 4.742-3.158 7.112-1.639 3.691-4.451 10.251-7.456 12.893-2.905 2.555-6.66 3.147-10.403 3.013-3.026-.108-6.036-.41-8.504-.951.27-2.975.49-5.787 1.242-8.54 2.217-8.124 6.622-16.629 14.946-19.215 3.649-1.134 7.45-.87 11.04.347l.595.201-1.668-5.013-3.347-.963c-5.81-1.672-12.9-5.495-16.68-10.305-2.65-3.37-4.423-7.76-5.48-12.171-.81-3.376-1.36-6.526-1.34-10.055 3.591-.612 7.689-.615 11.938 1.562 3.71 1.901 7.05 4.766 9.457 7.83 1.722 2.19 3.133 4.432 4.23 6.777.208-3.847 1.25-7.534 2.89-11.22-.692-.39-1.479-.695-2.257-1.28a25.7 25.7 0 0 1-3.223-2.894c-1.465-1.588-2.788-3.287-4.352-4.786-1.386-1.327-3.061-2.432-4.593-3.588-1.513-1.142-2.95-2.354-4.137-3.84-1.74-2.177-3.135-4.512-3.893-7.207-.228-.811-.383-1.618-.538-2.445-.395-2.106-1.067-4.243-1.864-6.211-.948-2.338-1.538-4.51-1.406-7.066.138-2.675 1-4.918 2.437-7.149.889-1.378 2.136-2.81 2.85-4.252 1.236-2.497 2.545-4.702 4.979-6.206 2.653-1.64 5.461-2.065 8.452-1.913m354.342 79.64c.015 1.024.038 2.047.038 3.075 0 12.827-1.192 25.376-3.466 37.545l-113.486-20.543a85 85 0 0 0 1.932-15.5zm-17.892 86.63a203 203 0 0 1-20.982 36.036l-94.817-67.622a85.3 85.3 0 0 0 8.82-13.361zm-53.129 70.828a204 204 0 0 1-32.807 22.965L339.178 495.84a85 85 0 0 0 12.309-7.565zm-77.017 41.338a202.6 202.6 0 0 1-39.801 7.056l-8.767-119.064a85 85 0 0 0 14.141-1.753zm-88.926 4.894a202 202 0 0 1-39.638-10.804l44.527-112.267a84.4 84.4 0 0 0 13.448 4.204zm-84.277-34.81a204.7 204.7 0 0 1-31.53-27.704l90.765-81.102a85.6 85.6 0 0 0 10.626 9.548z" style="fill:#fff;fill-rule:evenodd"></path><path d="m236.24 474.971-90.784 81.12a204 204 0 0 1-23.876-32.952l106.887-58.852a85.4 85.4 0 0 0 7.773 10.684M253.055 490.084l-69.826 99.209a203 203 0 0 0 37.32 20.053l44.577-112.388a85 85 0 0 1-12.07-6.874M300.24 504.868l8.782 119.263c-3.78.21-7.587.325-11.42.325-9.981 0-19.791-.732-29.388-2.12l18.31-118.691a85.6 85.6 0 0 0 13.716 1.223M322.658 502.093l34.36 113.541a202.3 202.3 0 0 0 36.525-15.179l-58.158-102.818a84.4 84.4 0 0 1-12.727 4.456M354.805 485.705l78.364 87.011a204.7 204.7 0 0 0 26.497-28.676l-95.029-67.773a85.6 85.6 0 0 1-9.832 9.438M378.047 455.947l106.787 44.867a202 202 0 0 0 11.963-38.073L383.12 442.164a84.6 84.6 0 0 1-5.073 13.783M386.085 418.4l114.85-4.57a203.3 203.3 0 0 0-5.273-39.498l-111.112 29.22a85.5 85.5 0 0 1 1.535 14.849" style="fill:#d40720;fill-rule:evenodd"></path><path d="M301.003 342.772c6.724 0 13.245.864 19.462 2.484-14.035 3.465-27.532 9.616-39.002 18.32-13.117 9.953-23.812 23.511-27.952 39.659a59 59 0 0 0-.745 3.295c-3.945 1.062-8.187 1.667-12.152.951-6.278-1.133-10.293-5.372-13.082-10.822 9.82-31.23 39.004-53.887 73.471-53.887m32.345 7.11a77.1 77.1 0 0 1 17.768 11.434c-24.744 6.149-52.521 21.637-61.832 45.625a46.2 46.2 0 0 0-3.1 14.586c-5.588-.039-11.159-1.127-16.124-3.789-4.348-2.331-7.966-5.75-10.415-10.033q.275-1.376.624-2.738c3.743-14.596 13.57-26.847 25.411-35.833 13.531-10.269 30.132-16.727 46.897-19.14zm23.81 17.216a77.1 77.1 0 0 1 14.13 21.178c-12.082.616-22.637 6.805-26.868 18.67-13.617 3.671-22.836 11.264-28.575 23.947-8.616 1.394-15.94-1.555-22.736-7.09a39.1 39.1 0 0 1 2.68-14.338c6.223-16.036 22.122-27.586 37.26-34.5a112.4 112.4 0 0 1 24.11-7.867m16.846 28.11a76.9 76.9 0 0 1 4.006 24.57c0 12.39-2.933 24.096-8.134 34.467-.552-16.78-7.065-33.396-18.624-45.645 3.726-9.437 12.781-13.605 22.752-13.392m-11.879 71.403c-8.664 11.29-20.386 20.11-33.925 25.225 3.919-8.05 6.202-16.796 6.246-26.01.057-12.222-3.919-24.18-11.386-33.853 4.915-9.724 12.327-15.408 23.352-18.338 13.005 13.948 18.8 34.202 15.713 52.976m-43.521 28.15a77 77 0 0 1-17.6 2.024c-29.805 0-55.658-16.943-68.458-41.718 7.493 5.511 15.519 10.34 24.031 13.926 10.654 4.487 21.875 6.915 33.463 6.39 14.83-.67 26.485-6.708 36.983-16.389.306 2.245.457 4.518.446 6.8-.05 10.485-3.414 20.274-8.865 28.967m-91.373-52.854a77 77 0 0 1-3.234-22.129c0-4.732.43-9.365 1.247-13.862 7.37 9.007 17.752 10.491 29.602 7.274 3.023 4.485 7.117 8.123 11.917 10.697 6.486 3.477 13.773 4.785 21.07 4.601 8.972 7.588 19.072 11.403 30.647 9.013a47.6 47.6 0 0 1 6.758 13.517l-.127.128c-10.041 10.123-20.898 16.614-35.385 17.268-10.547.477-20.748-1.769-30.44-5.851-11.69-4.924-22.44-12.393-32.055-20.656" style="fill:#fff;fill-rule:evenodd"></path><path d="M146.8 340.758c-3.214-.195-5.405.37-7.308 1.547-1.989 1.23-3.064 3.15-4.1 5.242-1.483 2.993-4.787 5.475-5.044 10.47-.222 4.302 2.094 7.153 2.66 10.015 1.413-.288 2.613-.54 3.991-1.157 1.785-.8 3.346-1.855 5.271-2.361 1.886-.497 3.8-.814 5.712-1.18-.127-2.872.269-4.909 1.125-6.92.685-1.612 1.622-3.073 2.807-4.257-1.806-3.753-3.552-7.54-5.113-11.4m-13.293 29.593c.403 2.032.667 4.788 4.026 8.992 2.347 2.938 5.91 4.698 8.518 7.196 3.604 3.453 5.988 7.791 8.842 7.51.531-2.357.726-4.997.966-7.332.36-3.518.773-7.029 1.688-10.453-3.245-1.104-6.022-4.381-7.724-7.365-.662-1.16-1.174-2.299-1.477-3.22-1.83.348-3.669.654-5.473 1.129-1.686.443-3.312 1.519-4.904 2.232-1.544.691-2.88.986-4.462 1.311m23.42 25.363c1.728.518 4.55-.576 5.882-.862 2.366-.507 4.483-.675 6.67-1.25s4.449-1.56 6.753-2.31c2.06-.67 4.279-1.241 5.918-1.822 2.91-1.031 5.303-3.299 6.314-6.256.524-1.53 1.106-4.179-.184-5.014-1.878-1.214-3.804-1.516-5.83-2.512-2.778-1.364-5.123-2.92-7.512-4.827l-.129.171c-1.863 2.43-4.887 4.148-8.033 4.99-2.57.686-4.733.966-6.902.723l-.024.091c-.89 3.31-1.284 6.722-1.632 10.123-.278 2.719-.59 6.089-1.292 8.755m33.535-18.896c2.395-2.204 6.14-6.375 6.135-9.557-.005-2.588-3.003-5.198-4.841-8.597-2.365-4.37-3.338-11.505-5.503-13.865-1.426-1.556-3.53-2.186-6.046-3.811a32 32 0 0 1-3.57 3.791c-1.284 1.172-2.641 2.257-3.938 3.413a27 27 0 0 0-2.144 2.108c1.054.723 1.931 1.611 2.688 2.612 2.66 3.522 3.921 7.892 3.841 11.748a10.6 10.6 0 0 1-.938 4.129c2.35 1.9 4.621 3.43 7.35 4.77.507.249 1.033.456 1.563.652 2.034.747 3.632 1.284 5.403 2.607m-36.644-26.175c2.67-1.647 6.701-2.466 9.978-2.354 1.788.06 3.302.37 4.602.875.837-.983 1.753-1.879 2.722-2.743 2.633-2.347 5.022-4.146 7.202-6.876-.745-.686-1.377-1.396-1.827-1.861-2.849-2.95-6.101-5.616-7.734-5.682-3.991-.161-10.795 1.168-14.687 3.394-2.799 1.6-4.096 2.692-5.232 4.08l.006.014c1.514 3.777 3.21 7.483 4.97 11.153zm.957 2.207c-1.595 1.09-2.737 2.732-3.486 4.492-.969 2.277-1.076 4.395-.877 6.847.072.886 1.031 2.763 1.472 3.535 1.406 2.466 4.047 5.782 6.947 6.442 2.526.575 4.853.227 7.332-.436 2.498-.668 5.165-2.056 6.764-4.141 1.094-1.427 1.749-3.176 1.786-4.978.074-3.606-1.192-7.396-3.363-10.269-1.954-2.586-4.417-3.573-7.635-3.683-2.775-.094-6.627.61-8.94 2.19" style="fill:#e35b62;fill-rule:evenodd" data-source="https://football-logos.cc"></path><path d="M129.883 395.452c.608 4.67 2.063 11.95 5.736 16.623 3.396 4.322 10.053 7.63 14.689 8.965-.174-7.108-2.619-12.341-6.258-16.972-3.378-4.299-8.924-8.152-14.168-8.616M157.261 419.996c-.673-5.788-.108-11.474 1.304-16.798 4.196-3.946 7.191-4.833 10.554-4.671 3.81.184 7.167 1.732 10.22 6.76-11.012 3.64-17.733 8.66-22.078 14.708M152.394 434.27c-2.926 6.323-6.7 16.119-9.648 18.711-3.144 2.765-8.43 2.147-12.255 1.567 3.035-15.993 11.22-23.898 21.903-20.279M182.033 423.564c-1.117 2.023-2.713 3.817-3.493 6.388-1.3 4.284-1.204 9.145-3.82 12.19-1.315 1.53-2.93 2.078-4.943 3.441-2.404-3.481-4.461-6.44-6.866-10.705.468-5.356 2.694-8.08 5.128-10.001 4.057-3.204 9.678-2.998 13.994-1.313M239.162 310.08c-4.266-3.31-5.416-7.196-5.504-10.687-.069-2.715 1.018-5.03 1.328-8.122.376-3.738-1.004-11.122-2.148-16.342-1.075-4.903-2.109-7.391-.608-9.785 2.265-3.613 11.626-6.367 17.44-5.114 3.045.656 4.392 2.876 5.154 4.854.843 2.186 6.182 3.504 5.37-2.09-.212-1.47-2.467-5.177-4.428-8.326-1.962-3.148-3.633-5.738-3.276-7.356.963-4.359 7.951-8.283 9.754-8.784 5.409-1.503 9.877.972 16.914.672 6.61-.282 10.745-2.319 12.188-2.022 4.742.976 9.242 7.477 8.214 12.683-.544 2.758-2.555 7.455-5.804 11.791-1.179 1.574-.124 5.436 3.73 3.505 3.807-1.907 14.198-7.969 19.512-6.233 1.855.606 8.952 5.41 9.632 12.243.779 7.819-3.649 15.094-6.636 20.138 1.79 7.25-2.296 22.403-9.038 23.855-10.026 2.16-19.424-9.442-23.762-22.63-.805-2.449-6.47-2.604-4.924 3.21 1.683 6.326 3.507 10.455 5.147 15.659.2.633.141 1.58-.522 1.566l-16.98-.363c-.757-.016-1.426.195-.683-.962 3.317-5.162 5.237-11.118 5.282-17.321.024-3.3-4.523-3.633-5.52-.074-2.592 9.269-7.595 14.63-15.317 17.098-4.718 1.508-11.26 1.462-14.515-1.064" style="fill:#00833f;fill-rule:evenodd"></path><path d="M402.836 313.652c-2.687-4.917-6.812-7.247-11.813-5.977-8.715 2.211-15.537 13.62-11.813 30.02 2.07 9.113 8.88 21.406 18.086 21.48 3.432.028 7.24-.877 11.515-6.47 2.027-2.652 7.739-2.466 7.228 3.473 3.566 3.015 9.308 4.467 13.897 3.475 8.458-1.83 17.684-12.808 17.929-27.504.29-17.463-12.463-28.846-23.625-29.06-8.326-.16-17.885 7.134-21.404 10.563" style="fill:#d40720;fill-rule:evenodd"></path><path d="M421.958 320.447c.277 3.11.347 6.08.904 9.539-1.145 3.1-.523 7.2 1.5 8.1 1.572.701 4.758.159 7.261-1.903 1.63 1.858 2.778 3.015 4.203 3.158 3.454-.94 4.247-6.4 2.194-9.285-.697-2.845-1.022-7.11-1.655-10.33-.462-2.351-1.404-4.147-2.587-4.431-1.876.02-3.843 1.63-4.797 1.662-1.397.047-4.334-1.758-6.884-1.454-1.026.488-.93 3.273-.14 4.944M391.919 335.766c-.346-2.824-2.322-6.904-5.05-7.478-1.282-.27-2.52.952-2.744 2.66-.223 1.709.082 3.765.354 4.679.32 1.077-.188 2.51-.041 3.923.28 2.699 1.231 4.502 3.309 5.128 1.936.583 2.357-1.983 2.942-4.414.4-1.663.912-2.846 1.23-4.498" style="fill:#f2961f;fill-rule:evenodd"></path><path d="m285.853 164.726.131 8.245c5.893-.16 11.234-.218 16.199 0l-.168 3.489c-.11 2.33-2.686 3.91-4.627 3.87-3.908-.08-7.47-.074-11.204.02l.363 18.31c-2.632.029-5.178.231-7.898.434l-1.822-36.806c-.185-3.744 2.53-4.85 4.859-4.94 8.032-.316 17.098-.55 26.906 0l-.433 7.29c-7.132-.282-14.248-.18-22.306.088M330.005 157.826c14.415 1.677 18.976 11.59 16.376 24.88s-11.152 19.995-22.445 18.53c-11.122-1.443-16.798-10.17-16.047-24.05.655-12.104 9.08-20.876 22.116-19.36m-.933 7.578c8.142 1.029 10.632 7.307 9.017 15.946s-6.535 13.075-12.922 12.246c-6.288-.815-9.412-6.41-8.838-15.41.5-7.85 5.208-13.734 12.743-12.782M372.544 166.392c13.826 4.407 16.227 15.69 11.283 27.729-5.144 12.526-14.743 17.598-25.483 13.81-10.11-3.565-14.118-13.057-10.721-26.535 2.962-11.754 12.416-18.99 24.92-15.004m-2.379 7.345c7.793 2.57 9.024 9.295 5.783 17.464-3.24 8.17-8.548 11.81-14.597 9.6-5.574-2.036-8.033-7.923-5.745-16.646 1.996-7.608 7.346-12.796 14.56-10.418M134.864 211.298c10.317-9.192 22.65-6.729 30.843 4.053s8.163 21.984-.444 29.441c-8.476 7.344-19.79 5.394-29.275-4.496-8.39-8.748-10.923-20.267-1.124-28.998m5.755 6.035c6.183-5.394 13.053-3.532 18.428 3.42 5.375 6.954 5.774 13.728.907 17.945-4.793 4.152-10.917 2.65-17.255-3.767-5.527-5.596-7.804-12.606-2.08-17.598M37.606 373.282c3.69-13.165 14.869-17.096 27.592-12.46 13.53 4.93 18.694 15.104 15.394 26.003-3.25 10.733-13.303 15.364-26.721 12.587-12.646-2.617-19.807-13.493-16.265-26.13m7.527 2.978c2.256-8.236 9.261-9.71 17.183-7.201 8.858 2.805 12.566 8.678 10.7 14.841-1.838 6.07-8.118 8.784-16.9 6.738-7.66-1.785-12.99-7.054-10.983-14.378M76.348 433.228c-12.518-.079-24.868-.144-37.381-.228-3.352-.023-4.603-1.661-4.686-4.918-.142-5.57-.22-10.599.015-15.913.202-4.578 1.889-8.688 4.695-10.79 2.806-2.103 6.746-2.46 11.556-1.534 3.109.598 5.453 1.666 7.17 3.197 2.863 2.552 3.887 6.23 3.835 9.817-.069 4.734-.222 7.796-.275 11.438l14.987.497a109 109 0 0 0 .084 8.434m-34.537-9.576 11.876.394c.03-3.655.23-7.171.162-10.54-.06-3.07-2.18-4.613-5.668-4.993-3.295-.36-5.5 1.11-5.943 3.696-.562 3.28-.45 7.848-.427 11.443M84.105 364.607c-11.951-3.726-24.144-7.164-36.088-10.893-3.199-1-4.023-3.154-3.152-6.294 1.489-5.368 3.028-10.611 4.802-15.625 1.529-4.32 3.948-7.44 7.244-8.633 2.627-.95 5.879-.592 9.05.836 3.579 1.611 6.898 5.247 6.606 9.364 4.517-4.881 12.522.368 18.056 2.164 1.844.598 2.816.256 3.504.076-1.107 2.428-2.145 4.88-3.033 7.387-4.043 1.772-8.451-2.668-13.616-2.926-2.347-.118-3.51 1.717-3.92 2.772-1.213 3.118-2.007 5.902-2.911 8.72l15.764 5.416c-.665 2.22-1.535 4.531-2.306 7.636m-30.84-18.966 10.195 3.46c1.095-3.487 2.405-7.056 3.324-10.297.838-2.954-.428-5.07-3.411-6.32-2.662-1.117-5.09-.27-6.268 2.073-1.494 2.975-2.814 7.639-3.84 11.084M62.478 320.089a210 210 0 0 1 4.945-11.09l31.318 15.666c1.094-2.513 2.256-4.811 3.449-7.011l-30.705-16.682a252 252 0 0 1 5.865-10.42l-6.767-4.107c-4.724 8.116-9.61 17.518-13.26 25.876-1.251 2.86-.128 5.332 1.84 6.24zM107.79 307.472c1.404-2.34 2.73-4.229 4.384-6.733a608 608 0 0 1-6.137-6.986 172 172 0 0 1 8.149-11.452 422 422 0 0 1 8.455 3.406c1.788-2.369 3.242-4.225 5.079-6.372-13.684-5.676-27.732-10.637-42.577-15.088-1.558 1.802-2.948 4.054-4.372 5.956-1.546 2.065-.47 4.044.54 5.375 9.107 12.002 17.907 22.327 26.479 31.894m-6.7-19.527a400 400 0 0 1-11.612-14.489c5.406 1.724 11.445 3.839 17.412 6.06-1.94 2.767-3.963 5.605-5.8 8.429M390.408 181.506a181 181 0 0 1 11.132 4.465L387.772 217.2c2.434 1.03 4.663 2.134 6.873 3.114l14.962-30.605a292 292 0 0 1 10.248 5.256l3.638-6.817c-8.03-4.22-17.786-8.956-26.003-12.131-2.813-1.086-5.12.312-5.862 2.27zM430.6 242.23c2.222 1.582 4.005 3.048 6.374 4.89a487 487 0 0 1 7.466-5.52 176 176 0 0 1 10.541 9.453 191 191 0 0 1-3.926 7.787c2.226 1.962 3.995 3.796 6 5.786a477 477 0 0 0 17.549-40.63c-1.471-1.477-3.291-2.857-4.922-4.226-2.058-1.728-3.716-1.993-6.036-.52-12.462 7.907-23.029 15.387-33.047 22.98m19.87-4.923c4.85-3.39 9.726-6.65 14.744-9.851a439 439 0 0 1-6.988 16.573c-2.542-2.242-5.147-4.576-7.755-6.722M128.545 278.131l-29.465-24.33c-2.048-1.69-2.58-3.912-.951-5.953 2.925-3.665 6.504-7.195 9.267-10.16 2.758-2.96 6.688-5.515 10.992-5.842 3.536-.268 7.141 1.157 10.1 2.976 2.473 1.52 4.667 3.546 7.072 6.158 3.89 4.222 7.2 9.487 7.217 15.212.01 3.67-1.344 7.706-4.659 11.243a329 329 0 0 0-9.573 10.696m-21.316-28.677 20.286 17.736c1.348-1.443 2.655-2.926 4.367-4.74 5.352-5.67 2.161-11.184-2.271-15.631-2.115-2.122-5.212-4.858-8-5.744-3.745-1.188-6.483.211-8.847 2.57-1.671 1.667-3.879 4.02-5.535 5.81M155.8 197.877c11.239 9.662 22.274 19.67 33.207 29.751 2.132-1.294 4.383-2.356 6.477-3.534-3.593-9.865-7.046-20.683-10.081-30.542 6.105 7.297 14.154 17.606 20.226 25.409 1.955-.878 4.993-2.313 6.834-3.034-2.425-14.047-4.756-28.73-6.357-43.203-2.24.83-4.3 1.551-6.529 2.487-1.519.638-2.19 2.4-1.89 4.098 1.687 9.55 3.62 17.502 5.482 25.786-6.178-7.62-12.26-15.585-18.491-23.179-3 1.253-5.608 2.696-8.951 4.42 2.74 9.23 6.102 18.531 9.468 28.026-6.591-6.893-13.8-14.293-21.303-21.435-2.852 1.794-5.63 3.16-8.092 4.95M224.7 211.02c2.547-.955 5.119-1.843 7.748-2.581l-10.072-26.905c7.978 6.31 16.397 13.773 25.202 22.25 2.71-.847 5.615-1.676 8.226-2.3l-10.655-40.615a123 123 0 0 0-9.546 2.246l8.276 27.311c-7.875-7.338-17.327-15.317-25.953-21.78-1.663.51-2.498.773-3.984 1.24-2.361.744-4.757 3.164-3.1 7.22zM443.952 200.351c2.478 1.724 4.48 4.44 4.906 7.469.307 2.185-.19 4.679-1.555 6.876-2.555 4.112-6.358 4.879-9.036 4.85 1.756 3.419 2.039 7.608-2.135 12.56-3.807 4.518-9.248 6.183-15.46 2.805-3.23-1.756-6.15-3.562-9.761-5.922l-5.846-3.326 17.608-32.932c1.188-2.222 3.746-2.796 6.157-1.585 4.06 2.038 10.202 5.782 15.122 9.205m-15.412-.84-4.203 7.34c2.668 1.461 6.296 3.81 8.862 5.412 2.305 1.438 4.285.875 5.654-.965 2.166-2.911.662-4.86-1.313-6.13-3.52-2.264-6.217-3.991-9-5.656m-7.983 13.942-5.16 9.013c2.51 1.607 5.699 3.482 8.279 5.112 2.613 1.65 5.259 1.083 6.939-1.398 1.575-2.328 1.69-5.223-.918-7.002-3.293-2.248-6.238-4.09-9.14-5.725M557.301 432.527c-1.702 1.296-4.07 2.096-6.618 2.06-4.773-.07-7.398-2.481-8.647-4.906-1.988 3.57-5.77 5.574-12.067 4.612-5.744-.878-9.967-4.714-9.798-11.32.077-3.008.141-6.301.138-10.663l-.103-6.28 37.137-1.752c2.483-.117 4.14 1.316 4.32 3.828.25 3.504.16 9.068-.106 13.927-.222 4.034-.63 7.732-4.256 10.494m-2.777-20.291-8.692.1c.096 2.838-.075 6.96-.15 9.785-.066 2.537 1.404 3.852 3.653 4.065 3.557.335 4.806-1.83 4.895-4.023.159-3.907.274-6.898.294-9.927m-16.187.332-10.24.199c-.106 2.784-.101 6.238-.192 9.088-.093 2.887 1.714 4.733 4.664 4.886 2.765.143 5.281-1.157 5.486-4.1.26-3.719.347-6.962.282-10.073M513.573 267.039l-26.745 20.167c3.782 5.334 7.303 10.472 10.608 15.603l-6.768 4.371c-4.601-7.487-9.227-13.927-14.997-21.448l28.477-23.23c2.318-1.89 4.828-1.588 6.607.72 1.002 1.299 1.781 2.437 2.818 3.817M493.512 242.581l-24.061 23.366c4.578 5.042 8.2 9.245 11.805 13.93l-6.291 5.033c-5.335-6.983-10.261-12.402-16.763-19.3l25.699-26.323c2.09-2.14 4.643-2.069 6.646.047 1.128 1.19 1.794 1.98 2.965 3.247M554.118 351.829l-32.42 8.24c1.578 6.625 2.723 10.57 3.621 16.413l-7.94 1.374c-1.799-9.41-3.583-17.032-5.367-22.831l35.159-10.049c2.876-.822 5.32.325 6.055 3.145.414 1.586.478 2.033.892 3.708M547.01 326.268c3.969 10.193-.378 17.07-9.03 20.16l-1.277-3.895c-.65-1.951-.948-3.32 1.386-5.348 2.022-1.757 2.55-4.413 1.402-7.773-2.733-7.997-11.097-8.044-18.378-4.347-8.655 4.396-10.29 8.618-8.306 13.26 1.624 3.802 5.353 5.306 10.38 4.773.88 2.368 1.636 4.885 2.436 7.288-4.354.855-8.827.576-12.37-.95-3.624-1.561-6.484-4.58-7.951-8.355-1.333-3.429-1.795-6.653-1.035-9.736 1.185-4.809 5.232-9.23 12.714-13.184 5.52-2.918 11.59-4.332 16.946-3.39 6.535 1.149 10.767 5.552 13.082 11.497M559.891 379.742l-27.259 3.73c-2.136.292-4.626 1.139-5.99 3.046-.818 1.143-1.224 2.726-.928 4.646.27 1.758 1.128 3.478 2.495 4.474 1.55 1.13 3.718 1.412 5.727 1.233l27.352-2.428.42 8.177-27.01 1.483c-5.431.298-9.076-.253-12.758-3.698-2.372-2.22-3.502-5.889-3.659-9.485-.094-2.157.108-4.282.757-6.07 1.937-5.343 7.004-7.904 12.052-8.788l22.757-3.99c2.298-.403 4.374.582 5.234 3.049.366 1.05.59 3.015.81 4.621M193.586 620.339c11.902 4.01 16.393 14.671 12.26 26.138-3.609 10.015-12.075 13.426-21.429 9.146-8.89-4.068-14.166-11.15-11.49-21.751 2.587-10.254 10.6-16.922 20.66-13.533m-.447 6.915c6.962 2.502 8.06 9.594 5.604 16.053-2.454 6.453-7.888 8.25-12.401 6.182-5.188-2.376-7.963-7.503-5.8-14.233 1.628-5.063 6.156-10.318 12.597-8.002M262.477 679.68l3.81-30.577c.267-2.142 1.586-3.338 3.844-3.124 4.063.385 7.583.78 11.07 1.147 3.494.368 7.338 2.187 9.461 4.907 3.096 3.967 3.531 8.924 3.3 14.496-.197 4.73-2.032 9.985-6.094 12.64-3.915 2.56-8.298 2.54-12.49 2.149-3.812-.355-8.311-.948-12.9-1.637m10.184-26.97-1.966 21.497c1.699.235 3.06.333 5.203.553 2.737.28 4.837-.021 6.393-.708 2.92-1.29 3.88-4.85 4.157-7.595.301-2.984.232-6.876-1.23-9.462-1.035-1.833-2.717-3.126-5.574-3.616-2.02-.346-4.796-.475-6.983-.669M322.922 681.167l-2.464-30.803c-.172-2.151.877-3.59 3.13-3.838 4.058-.447 8.023-1.204 11.512-1.551 3.496-.348 7.516.507 10.087 2.8 3.747 3.343 4.987 7.576 5.824 13.088.762 5.02-.494 10.795-3.933 14.218-3.315 3.3-7.044 3.986-11.188 4.727-3.371.603-8.334 1.104-12.968 1.359m4.512-28.91 2.341 21.71c1.711-.114 3.064-.293 5.207-.513 6.47-.664 9.382-4.519 8.74-10.703-.31-2.982-1.254-6.868-3.208-9.104-1.384-1.585-3.238-2.767-6.106-2.324-2.135.33-4.358.598-6.974.934M231.322 673.128c1.716.575 5.28 1.433 7.541 1.84l4.49-22.594c3.02 8.557 7.137 19.453 10.22 25.974 3.073.576 5.62.808 7.636 1.045l4.369-34.274c-2.215-.285-4.39-.606-6.911-1.011l-3.286 22.711c-4.124-9.393-6.834-18.27-9.444-25.576-1.306-.24-2.56-.514-3.729-.719-1.86-.326-3.57.007-4.148 2.583zM219.477 632.754l-6.787 21.65c-1.094 3.49.294 7.36 5.175 8.621 1.676.433 3.083.442 4.245.078 1.698-.534 2.709-1.922 3.659-4.793l5.651-21.33 6.577 2.055-4.686 20.402c-1.025 4.463-2.15 8.458-7.662 10.347-2.881.988-7.025.287-10.483-.86-2.073-.687-3.956-1.838-5.437-2.95-4.422-3.323-5.77-8.508-4.417-13.975l6.282-18.132c.608-1.758 1.931-3.327 4.63-2.323zM142.709 628.277c2.234 1.804 4.583 3.44 6.95 5.054l7.501-12.984c2.87 2.17 6.66 4.793 8.896 6.122 1.435.852 3.486.826 4.635-1.332l1.03-1.934c-3.864-2.512-7.943-5.1-11.634-7.922l3.428-5.933c4.916 3.616 10.01 6.892 15.394 10.091l2.783-5.36c-7.995-4.77-11.919-7.52-17.852-12.042-1.857-1.416-4.019-1.29-5.393.921zM294.904 682.47c8.1-.058 19.172-.28 26.912-1.169l-.537-6.439c-6.28.45-12.708.848-18.777.822l-.046-8.492c3.763-.1 7.712-.089 10.238-.376 1.764-.201 3.248-1.492 3.116-3.978l-.118-2.23c-3.906.216-8.493.55-13.269.622l-.04-7.504c5.272-.07 11.32-.216 17.304-.593l-.474-6.127c-7.62.54-12.164.716-19.771.865-2.58.05-4.121 1.237-4.158 4.191zM373.608 670.876c2.313-.533 4.899-1.342 7.349-2.014l-8.032-29.772c-.578-2.139-2.285-2.871-4.175-2.515a8.5 8.5 0 0 0-2.071.722c-.187 5.33-3.078 7.074-5.96 8.353l1.018 4.878c2.161-.474 4.299-1.017 6.385-1.712z" style="fill:#f8d641;fill-rule:evenodd"></path><path d="M380.754 649.108c-3.04.146-5.898-2.625-6.333-5.935-.608-4.629 1.318-8.888 7.208-11.737 4.705-2.275 12.794-3.326 15.142 3.491.88 2.552.992 5.976-1.238 8.236 4.473.194 7.199 2.813 8.075 7.274 1.265 6.44-3 11.506-9.778 14.173-6.254 2.46-13.457 2.278-15.786-5.387-1.008-3.316-.512-6.813 2.71-10.115m3.56-12.514c-2.51 1.32-3.533 3.377-2.633 5.67.938 2.387 3.418 2.58 5.426 1.754 2.377-.98 4.006-3 3.227-5.553-.674-2.21-2.85-3.538-6.02-1.87m4.167 12.828c-3.248 1.524-4.226 4.306-3.086 7.207 1.102 2.806 3.745 3.478 6.596 2.412 3.097-1.158 5.02-3.888 4.005-7.216-.853-2.797-3.536-4.27-7.515-2.403" style="fill:#f8d641;fill-rule:evenodd"></path><path d="M405.314 638.493c-2.865.361-6.086-2-6.875-5.136-1.084-4.307.291-8.635 5.75-12.384 4.725-3.245 12.874-5.055 15.973 1.389 1.16 2.411 1.439 5.664-.737 8.594 4.462-.332 7.597 1.794 8.973 6.086 2.054 6.405-2.597 12.184-8.502 15.252-6.866 3.567-13.796 3.334-16.543-3.374-1.302-3.18-.757-7.016 1.961-10.427m2.477-13.055c-2.698 1.633-3.316 3.99-2.164 6.144 1.2 2.244 3.301 2.365 5.584 1.094 2.245-1.251 3.94-3.62 2.878-6.046-.919-2.098-3.24-3.044-6.298-1.192m5.23 12.46c-3.053 1.881-3.846 4.877-2.388 7.602 1.41 2.637 4.22 2.768 6.93 1.384 2.943-1.503 4.573-4.337 3.19-7.499-1.163-2.656-3.993-3.793-7.732-1.488M417.718 613.646l2.92 5.349c4.788-3 10.07-6.589 14.78-9.99-1.732 11.338-1.868 22.642 2.572 31.852 2.222-1.5 4.949-3.331 7.086-5.077-4.842-10.734-5.287-19.807-3.632-31.598.152-1.082.14-2.482-.445-3.433-.753-1.224-2.297-1.763-3.963-.523-6.477 4.818-11.752 8.862-19.318 13.42" style="fill:#f8d641;fill-rule:evenodd" data-source="https://football-logos.cc"></path><!-- source: https://football-logos.cc --></svg>