<svg xmlns="http://www.w3.org/2000/svg" viewBox="113.12 111.12 1149.74 1433.23"><!-- Source: https://football-logos.cc --><path fill="#ba9550" fill-rule="evenodd" d="M687.993 111.14c16.89.001 34.835-.165 50.67.434 22.347.846 44.427 1.216 69.777 2.546q93.76 4.92 185.75 17.97c28.4 4.03 58.87 9.71 88.23 14.82q15.68 2.74 35.12 6.96 39.15 8.52 76.65 17.83c22.94 5.69 43.21 11.61 67.82 18.67a1.184 1.176 8.252 0 1 .85 1.13q-.28 92.49-.22 191.75.17 240.27-.02 476.75-.05 53.71-13.15 106.75-5.39 21.83-10.68 37.36-3.16 9.3-12.47 32.99-6.55 16.67-14.18 32.29c-16.43 33.68-36.07 66.71-57.83 97.2q-7.79 10.92-20.34 27.26-12.03 15.68-21.27 26.56-34.2 40.29-68.55 73.48-18.42 17.8-48.42 44.58-13.9 12.41-43.09 36.13-20.91 16.98-44.52 34.34-65.92 48.45-134.81 89.57-36.63 21.86-66.53 37.28-4.67 2.41-16.302 7.881-1.442.679-2.566.679-1.125 0-2.567-.679-11.631-5.473-16.301-7.883-29.898-15.423-66.525-37.288-68.886-41.127-134.8-89.585-23.608-17.363-44.516-34.345-29.188-23.723-43.086-36.135-29.997-26.783-48.415-44.585-34.347-33.194-68.542-73.488-9.239-10.881-21.267-26.562-12.548-16.342-20.337-27.263c-21.757-30.492-41.393-63.524-57.819-97.206q-7.628-15.621-14.176-32.292-9.308-23.691-12.467-32.991-5.288-15.531-10.675-37.361-13.094-53.042-13.138-106.752-.164-236.48.033-476.75.072-99.26-.198-191.75a1.184 1.176-8.246 0 1 .85-1.13c24.611-7.057 44.882-12.975 67.822-18.662q37.501-9.306 76.652-17.821 19.441-4.218 35.121-6.957c29.361-5.106 59.831-10.783 88.232-14.81q91.991-13.039 185.752-17.949c25.35-1.327 47.43-1.694 69.777-2.538 15.835-.597 33.78-.429 50.671-.428m.257 1339.27q.06-.02 4.14-2.05 40.63-20.24 78.47-42.78 21.06-12.55 32.21-19.55c41.6-26.1 85.16-55.99 124.06-86.72q28.67-22.65 55.88-46.07 6.1-5.26 16.44-15.07c8.28-7.85 19.1-17.09 27.29-25.64q6.97-7.29 10.66-10.79 5.21-4.94 15.67-16.48l22.55-24.64q7.07-7.73 27.78-33.8 9.29-11.69 18.19-24.5 16.1-23.15 17.37-25.11 10.1-15.53 24.72-41.7c7.65-13.71 14.64-29.07 20.6-42.73q26.63-60.99 34.29-126.61c1.19-10.16 1.45-21.24 2.15-29.68q.71-8.63.72-22.27c.1-171.8-.19-333.37-.03-518.47q.02-15.47-.42-41.89c-.23-14 .24-27.7.65-40.41a1.684 1.667-81.439 0 0-1.22-1.67q-31.55-8.78-61-16.39-39.85-10.3-90.43-20.27-10.27-2.03-20.51-4.09c-17.49-3.51-33.65-5.74-50.65-8.5-20.47-3.31-39.55-5.46-61.91-8.52q-14.37-1.97-31.82-3.77-95.25-9.82-193.06-11.06-33.51-.43-70.07.55-46.93 1.27-70.03 2.71-54.32 3.4-80.85 6-73.41 7.18-148.04 20.19-17.61 3.07-33.78 6.35-12.54 2.54-31.12 6.29c-30.92 6.24-62.62 14.35-92.76 22.71q-17.73 4.92-28.98 7.77a1.521 1.505 81.937 0 0-1.13 1.52c.44 10.84.86 24.42.67 37.64q-.36 24.29-.26 96.34.19 130.9.05 479.52c0 5.08.88 11.76 1.14 17.66q.61 14 1.48 19.66 1.86 12.14 2.69 18.43 1.52 11.58 2.9 18.38 4.24 20.95 10.02 40.39c3.32 11.17 5.98 17.75 10.74 31.01 6.25 17.44 14.49 35.46 22.19 50.85q16.42 32.82 41.36 68.87c15.48 22.38 29.71 41.88 46.26 60.99 11.66 13.46 29.09 33.02 45.32 49.32q15.47 15.53 22.77 22.2 17.54 16.04 21.37 19.63c15.24 14.27 38.36 32.89 48.46 41.33 12.41 10.37 26.15 20.51 39.04 30.42q9.14 7.03 13.25 9.91c11.57 8.09 21.67 15.72 33.81 23.97q35.87 24.37 75.08 48.6c27.4 16.94 58.01 33.27 84.04 46.7q9.81 5.07 10.6 5.33a1.498 1.471 43.892 0 0 .99-.01" data-source="https://football-logos.cc"></path><path fill="#fff" fill-rule="evenodd" d="M687.26 1450.42q-.79-.26-10.6-5.33c-26.03-13.43-56.64-29.76-84.04-46.7q-39.21-24.23-75.08-48.6c-12.14-8.25-22.24-15.88-33.81-23.97q-4.11-2.88-13.25-9.91c-12.89-9.91-26.63-20.05-39.04-30.42-10.1-8.44-33.22-27.06-48.46-41.33q-3.83-3.59-21.37-19.63-7.3-6.67-22.77-22.2c-16.23-16.3-33.66-35.86-45.32-49.32-16.55-19.11-30.78-38.61-46.26-60.99q-24.94-36.05-41.36-68.87c-7.7-15.39-15.94-33.41-22.19-50.85-4.76-13.26-7.42-19.84-10.74-31.01q-5.78-19.44-10.02-40.39-1.38-6.8-2.9-18.38-.83-6.29-2.69-18.43-.87-5.66-1.48-19.66c-.26-5.9-1.14-12.58-1.14-17.66q.14-348.62-.05-479.52-.1-72.05.26-96.34c.19-13.22-.23-26.8-.67-37.64a1.521 1.505 81.937 0 1 1.13-1.52q11.25-2.85 28.98-7.77c30.14-8.36 61.84-16.47 92.76-22.71q18.58-3.75 31.12-6.29 16.17-3.28 33.78-6.35 74.63-13.01 148.04-20.19 26.53-2.6 80.85-6 23.1-1.44 70.03-2.71 36.56-.98 70.07-.55 97.81 1.24 193.06 11.06 17.45 1.8 31.82 3.77c22.36 3.06 41.44 5.21 61.91 8.52 17 2.76 33.16 4.99 50.65 8.5q10.24 2.06 20.51 4.09 50.58 9.97 90.43 20.27 29.45 7.61 61 16.39a1.684 1.667-81.439 0 1 1.22 1.67c-.41 12.71-.88 26.41-.65 40.41q.44 26.42.42 41.89c-.16 185.1.13 346.67.03 518.47q-.01 13.64-.72 22.27c-.7 8.44-.96 19.52-2.15 29.68q-7.66 65.62-34.29 126.61c-5.96 13.66-12.95 29.02-20.6 42.73q-14.62 26.17-24.72 41.7-1.27 1.96-17.37 25.11-8.9 12.81-18.19 24.5-20.71 26.07-27.78 33.8l-22.55 24.64q-10.46 11.54-15.67 16.48-3.69 3.5-10.66 10.79c-8.19 8.55-19.01 17.79-27.29 25.64q-10.34 9.81-16.44 15.07-27.21 23.42-55.88 46.07c-38.9 30.73-82.46 60.62-124.06 86.72q-11.15 7-32.21 19.55-37.84 22.54-78.47 42.78-4.08 2.03-4.14 2.05a1.498 1.471 43.892 0 1-.99.01m308.82-249.12q1.52-.23 2.7-1.4c4.76-4.7 9.89-9.26 14.18-13.67q23.51-24.16 33.64-35.13 12.17-13.19 29.87-35.13 20.12-24.96 33.43-45.26 12.46-19 25.19-41.24c18.81-32.86 34.56-69.13 44.61-106.14q6.91-25.43 10.8-50.32 4.3-27.46 4.32-42.25.22-204.31.09-515.39c0-13.77.46-30.45.14-44.82q-.45-20.57-.39-33.45a2.149 2.147 8.653 0 0-1.51-2.05q-45.81-14.04-93.67-24.48c-14.13-3.08-26.26-6.03-37.02-8.19-77.18-15.5-154.18-26.25-233.94-31.6-30.92-2.08-65.2-4.51-98.77-4.81-42.66-.37-80.74-.71-121.61 1.18-60.68 2.8-121.49 7.99-183.07 16.28q-28.01 3.78-54.54 8.46-39.82 7.02-54.28 10.07c-47.04 9.91-85.34 18.49-126.49 30.9q-3.69 1.11-7.05 2.47a1.726 1.709 79.795 0 0-1.08 1.57c-.79 36.93-.14 73.51-.24 108.8q-.3 118.56-.26 220.55.06 129.97.24 261c.03 22.34 3.08 43.36 7.52 65.9q4.49 22.72 15.63 56.3 1.43 4.31 3.98 10.22c3.59 8.34 6.54 17.54 10.08 25.53q11.2 25.28 25.44 49.54 5.81 9.91 10.75 18 21.13 34.58 46.7 65.32 7.75 9.33 9.55 11.85c3.54 4.95 8.5 9.99 11.22 13.25q4.5 5.4 8.7 9.59c4.82 4.81 8.74 9.73 13.3 14.29q22.68 22.68 28.77 28.92.45.46 5.56 4.96a.242.227-46.788 0 0 .32-.02v-.01a.255.247 45.842 0 0 0-.35q-3.85-4.02-7.8-8.13-18.4-19.17-31.39-35.53-13.87-17.46-18.9-23.52-15.29-18.44-25.41-33.65c-15.79-23.72-29.69-46.42-42.6-71.44-4.5-8.73-8.71-19.32-13.42-29.41q-1.01-2.16-6.11-15.67-.03-.07-4.38-11.73-9.25-24.77-13.99-48.48-4.8-23.94-6.28-33.24c-3.39-21.24-3.38-38.52-3.38-61.74q-.09-363.31-.04-564.55a1.73 1.73-8.038 0 1 1.25-1.66q26.12-7.45 55.08-15.33 8.06-2.19 49.95-11.84c26.62-6.14 55.03-11.47 78.54-15.53q55.58-9.59 119.99-16.08.27-.03 5.02-.53 31.89-3.4 85.08-6.44 11.34-.65 21.31-.76c16.09-.19 25.38-.99 40.84-.94q7.83.02 19.49-.7 3.78-.23 23.15.54c7.92.32 16.77.09 24.86.3q26.53.69 45.74 1.44 21.68.84 71.52 5.07c5.87.5 10.15.74 14.97 1.28l36.26 4.11q59.71 6.78 113.72 17.28c17.56 3.42 38.15 7.34 56.28 11.65 15.08 3.57 29.34 6.71 44.93 10.88q29.16 7.8 56.99 15.84a1.354 1.338 8.622 0 1 .97 1.3c-.46 34.1.07 70.93.04 102.57q-.25 326.37 0 470.1.03 18.48-1.08 31.49-1.72 20.22-7.38 49.01-2.84 14.39-7.18 29c-6.57 22.12-14.03 43.56-23.68 64.42q-7.79 16.82-10.04 21.17c-17 32.83-36.85 64.55-59.99 94.23q-17.72 22.73-36.04 44.45-5.13 6.08-21.64 23.16c-2.87 2.96-5.07 6.05-8.17 8.09a.154.154-66.469 0 0 .11.28M870.79 478.02a.33.33-89.951 0 1-.33.33h-69.28a.62.62-56.269 0 1-.62-.62q.07-45.43-.08-66.98-.02-2.19-1.74-3.99-4.27-4.48-17.5-17.69-17.3-17.27-50.73-50.52-1.12-1.11-1.34-1.16a.642.638-86.19 0 0-.76.67q.34 5.4.34 12.19.03 94.96-.04 116.75-.03 8.58.19 10.73a.597.594 86.956 0 1-.59.66H659.7a.52.51-90 0 1-.51-.52V338.36a.452.448 72.291 0 0-.71-.37q-3 2.18-4.4 3.59-36.33 36.95-37.05 37.7-1 1.05-8.82 8.68c-6.67 6.51-12.31 12.76-19.59 19.25a2.888 2.862-21.105 0 0-.96 2.14v68.2a.82.82 44.987 0 1-.82.82h-69.22a.57.57 1.735 0 0-.57.57v69.27a.83.83 45 0 0 .83.83h423.66a.4.39 90 0 0 .39-.4V337.85a.522.521 67.531 0 0-.89-.37l-69.69 69.69a1.913 1.906-22.571 0 0-.56 1.35zm106-140.31V548.8a.28.28-2.464 0 0 .28.28h140.1a.541.54 70.537 0 0 .42-.88q-3.05-3.82-6.83-7.31c-2.18-2.01-4.83-5.21-6.41-6.75q-7.2-7.03-53.82-52.98-1.4-1.38-2.21-2.31a1.187 1.134 25.854 0 1-.28-.75v-69.19a1.902 1.882 22.212 0 0-.58-1.36c-10.83-10.55-23.37-22.69-33.6-33.15q-16.01-16.38-26.13-26.24-4.84-4.71-10.32-10.69a.357.356 23.829 0 0-.62.24M257.94 549.05h211.5a.47.47-8.15 0 0 .47-.47v-69.69a.57.56-90 0 0-.56-.57h-69.57a.48.48-64.867 0 1-.48-.48v-68.55a.7.69-90 0 1 .69-.7h69.57a.416.414 67.383 0 0 .29-.71l-70.06-70.06a.632.623 49.542 0 0-.81-.07q-2.2 1.62-3.9 3.33-24.85 25.02-25.34 25.51c-13.56 13.49-26.12 26.86-40.92 40.85a2.108 2.085 68.817 0 0-.67 1.54v68.69a2.116 2.071 69.635 0 1-.7 1.57q-4.32 3.83-6.86 6.35-20.46 20.28-52.02 51.73-1.22 1.21-10.85 11.23a.299.296 21.466 0 0 .22.5m486.317 102.968a.35.35 0 0 0 0-.495l-49.95-49.95a.35.35 0 0 0-.495 0l-49.809 49.809a.35.35 0 0 0 0 .495l49.95 49.95a.35.35 0 0 0 .495 0zM587.94 617.09a.76.76 0 0 0-.76-.76H258.709a.76.76 41.974 0 0-.535 1.3l69.954 69.22a.76.76-13.983 0 0 .534.22H587.18a.76.76 0 0 0 .76-.76zm213.91 69.5a.52.52 0 0 0 .52.52h244.627a.52.52-72.518 0 0 .365-.15l70.706-69.75a.52.52 13.028 0 0-.366-.89H802.37a.52.52 90 0 0-.52.52zM380.98 793.54a6.19 6.19 0 0 0-6.19-6.19 6.19 6.19 0 0 0-6.19 6.19 6.19 6.19 0 0 0 6.19 6.19 6.19 6.19 0 0 0 6.19-6.19m734.254-6.171a6.29 6-79.8 0 0-7.019 5.128 6.29 6-79.8 0 0 4.791 7.254 6.29 6-79.8 0 0 7.019-5.129 6.29 6-79.8 0 0-4.791-7.253M512.82 804.87h-11.13a.6.6 74.786 0 0-.6.6v25.16a2.059 2.055 86.169 0 1-1.78 2.04q-3.57.49-8.31.47-47.38-.22-66.01.14-4.25.08-4.22-4.43.05-7.38.07-39.33a.6.59-90 0 0-.59-.6H409.1a.58.58 89.514 0 0-.58.59q.18 20.83-.27 38-.25 9.33 6.19 14.99c1.95 1.71 4.19 2.43 6.75 2.42q17.81-.07 79.12-.06c4.71 0 10.06-5.56 11.83-9.15q1.39-2.81 1.35-9.85-.09-18.86-.11-20.44a.56.56 89.479 0 0-.56-.55m29.08.26h-10.96a.26.26-45.019 0 0-.26.26q.04 23.54-.08 39.09c-.06 7.46-4.02 7.68-9.52 9.91a1.127 1.123-29.412 0 0-.48 1.71l6.9 9.37a.869.857 62.162 0 0 .98.31q7.51-2.52 11.68-8.6c2.43-3.55 2.37-7.23 2.24-11.51a.791.782-.333 0 1 .81-.81q6.98.24 11.73.02 2.66-.12 5.34-1.82 6.79-4.29 6.94-12.29.42-23.27.21-41.06a.74.73-.392 0 0-.74-.72h-10.84a.55.55 5.855 0 0-.55.55v41.11a1.845 1.833-22.638 0 1-.54 1.3c-1.84 1.84-8.24 1.19-11.6 1.09a.611.6.988 0 1-.59-.6v-26.63a.68.67-90 0 0-.67-.68m47.93-16.15h-11.59a.56.56 5.841 0 0-.56.56v60.36a.887.886 76.462 0 0 1.29.79l9.39-4.82a2.729 2.717 82.385 0 0 1.4-1.84q.39-1.76.43-5 .15-11.01 0-49.69a.36.36-45 0 0-.36-.36m85.46 27.79c4.95-.59 13.6.71 14.81 6.64q.76 3.77.36 8.78a.866.863-87.458 0 1-.86.79h-21.29a.75.74 0 0 0-.75.74v10.67a.48.47 0 0 0 .48.47q74.24-.12 150.71.08.65 0 12.24-.12c5.35-.05 10.13-4.42 12.4-8.82q1.35-2.61 1.33-9.66-.04-28.02.22-36.85a.581.58-89.045 0 0-.58-.6h-10.83a.77.76 89.628 0 0-.76.78q.13 23.24.15 39.37 0 4.26-4.39 4.17-7.04-.15-7.78-.2a.752.751 1.615 0 1-.71-.75v-26.52a.75.75-45 0 0-.75-.75H808.6a.74.74 45 0 0-.74.74v26.56a.82.81 90 0 1-.81.82H703.23a.86.85 89.659 0 1-.85-.85q-.02-2.06.03-9.01c.04-6.43-3.82-11.62-9.12-15.31-5.15-3.59-11.54-2.69-18.02-2.95a.541.54 1.023 0 0-.56.54v10.73a.518.514-3.466 0 0 .58.51m180.75-27.78a.56.56 0 0 0-.56.56v60.383a.56.56 78.514 0 0 .816.498l10.67-5.475a.56.56-76.944 0 0 .304-.498V789.55a.56.56 38.07 0 0-.56-.56zm263.35 15.94h-10.61a.53.52.551 0 0-.53.51q-.08 4.03.01 22.4c.01 3.31-.37 5.12-3.97 5.14q-65.03.37-85.5.11-3.26-.04-3.3-3.72-.21-18.89-.14-39.91a.61.61 45 0 0-.61-.61h-10.8a.631.63 89.118 0 0-.63.65q.27 10.85.01 38.56-.09 9.45 5.5 14.42c1.58 1.41 3.67 2.36 5.68 2.35q52.69-.08 91.76.21 5.49.04 9.32-4.2c4.82-5.35 4.4-8.85 4.43-16.81q.07-16.78-.13-18.65a.494.492 87.45 0 0-.49-.45M271 819.36l-10.65 6.15a1.994 1.987 74.753 0 0-.99 1.74q.09 8.42-.21 14c-.78 14.54 7.76 21.39 20.84 24.3 2.62.59 6.61.15 10.99.07 11.31-.23 22.26-8 22.65-20.04a.801.79-88.869 0 1 .79-.77h35.04a1.24 1.23 90 0 1 1.23 1.24v7.25a.601.6-.924 0 0 .62.6q.35-.02.48-.09 2.6-1.61 6.31-3.11c2.77-1.12 3.83-2.31 4.56-4.99a1.076 1.069 6.152 0 1 1-.8q6.44-.22 20.2-.04 5.76.08 9.9-4.62 4.15-4.71 4.14-10.37-.03-11.31-.13-13.01c-.63-10.64-11.84-14.36-20.74-11.38q-7.83 2.62-13.47 5.14a.8.8 77.857 0 1-1.13-.73v-3.7a1.09 1.08 90 0 0-1.08-1.09h-10a.68.68 79.622 0 0-.68.68v26.61a.66.66 17.506 0 1-.66.66h-55.86a1.29 1.29-44.949 0 0-1.29 1.29V844a.94.93-90 0 0 .93.94h7.22a.601.597 9.374 0 1 .57.79c-.63 1.89-2.39 3.82-4.01 4.83q-8.31 5.18-18.13 2.26-7.7-2.28-8.02-9.96-.5-12.24-.02-23.26a.268.265-13.803 0 0-.4-.24m384.98 34.46q-7.95.17-17.89 0c-5.27-.09-8.4.24-10.35-4.57a1.105 1.102-36.44 0 1 .17-1.12q2.69-3.25 5.4-3.3 6.19-.11 23.53.04a.62.62 87.569 0 0 .62-.62v-10.44a.59.58 90 0 0-.58-.59h-23.43a2.53 2.516 77.053 0 1-2.27-1.43c-1.41-2.89-.78-11.2-.33-12.86a2.85 2.843-82.326 0 1 2.76-2.11l17.52.01a.57.57-2.449 0 0 .57-.57v-10.81a.59.59-2.463 0 0-.59-.59q-8.85-.01-15.89-.08-10.51-.11-15.01 8.2c-2.93 5.41-2.07 11.72-1.77 19.28q.07 1.53 2.04 4.73a.667.661-41.581 0 1-.05.77q-4.7 5.61-4.7 11.03 0 7.16 5.2 12.02c5.62 5.26 10.28 4.99 18.25 4.96q4.89-.02 8.42-.13a2.195 2.185 20.695 0 0 1.56-.7q4.18-4.46 7.28-10.38a.509.506 13.315 0 0-.46-.74m290.32-48.83q-12.37-.5-18.56-.08-9.53.66-12.69 9.19c-1.64 4.42-1.24 11.39-1.09 16.19q.27 8.42 7.83 12.86c3.31 1.94 7.36 1.73 11.63 1.9a1.053 1.053-76.417 0 1 .91 1.49c-4.67 10.19-28.93 10.2-29.15-3.05q-.18-10.51.16-23.72a.847.846 72.398 0 0-1.35-.7l-10.11 7.45a2.37 2.37-17.964 0 0-.98 1.92q-.01 8.39-.04 17.05c-.02 11.9 12.2 19.91 23.2 20.28 8.76.29 15.35-.03 22.84-5.19 9.34-6.45 8.58-16.53 8.31-26.78a.651.65 89.09 0 0-.65-.63q-9.6.09-16.03.02-1.91-.02-2.55-.45c-3.49-2.36-2.38-10.55-1.46-14.32a2.088 2.081 6.657 0 1 2.03-1.6h17.89a.78.78-45 0 0 .78-.78v-10.1a.951.95.934 0 0-.92-.95m11.37 29.1v10.06a.6.6.486 0 0 .59.6q17.45.15 19.5.17 5.94.07 9.96-4.18 4.43-4.67 4.84-10.1 1.12-14.74-8.73-22.5-2.79-2.19-4.93-2.55-4.55-.78-13.92-.62a.68.67 89.572 0 0-.66.68v10.8a.534.53 86.232 0 0 .6.53c5.72-.69 12.44.86 14.85 6.54q.69 1.61.49 4.77-.27 4.46-4.64 4.56-7.26.17-16.99.27a.97.97-.298 0 0-.96.97m-456.65 25.68q.12 0 .32.1a.603.601 6.243 0 1 .29.36c.59 2.11 2.65 7.34 5.78 6.2q3.54-1.28 5.71-4.45a2.249 2.236-25.041 0 0 .37-1.01c.4-4.07-3.12-6.55-6.71-8.1a.825.818-55.845 0 0-.92.18l-4.79 4.84a.696.694 49.288 0 1-1.05-.08q-2.04-2.79-4.85-4.56a1.447 1.43-34.303 0 0-1.04-.19c-4.66.91-9.62 6.13-4.56 10.58 4.97 4.38 8.63 1.38 10.79-3.54q.15-.34.66-.33m318.99-.13a6.17 6.17 0 0 0-6.17-6.17 6.17 6.17 0 0 0-6.17 6.17 6.17 6.17 0 0 0 6.17 6.17 6.17 6.17 0 0 0 6.17-6.17m-533.07 19.35 4.53 4.47a1.887 1.878-34.657 0 0 2.11.38q3.79-1.72 5.35-3.96c2.27-3.26-2.59-8.08-5.16-9.48a.593.574 40.492 0 0-.64.04l-6.91 5.09a.329.324 49.914 0 1-.43-.04l-3.89-4.22a2.149 2.13-34.407 0 0-2.52-.46c-2.3 1.14-7.28 4.53-6.03 7.54 1.13 2.74 4.43 6.25 7.85 4.74q3.55-1.55 5.08-4.03a.427.421 38.538 0 1 .66-.07m633.67-1.33a.307.304 50.751 0 1 .57.06q.8 3.18 3.01 5.22c2.8 2.59 7.33-1.57 8.67-3.7 1.84-2.91-2.92-6.84-5.19-8.28a1.88 1.864 41.83 0 0-2.15.11q-2.35 1.83-4.69 5.44a.532.529 42.867 0 1-.87.03l-3.74-5.09a1.935 1.923 67.717 0 0-1.8-.76q-4.36.61-6.94 5.23a2.13 2.13-32.118 0 0-.27 1.18c.15 2.6 3.54 7.91 7.16 6.43q4.28-1.74 6.24-5.87m-260.62 32.19q-10.77-4.52-22.03-2.28c-5.76 1.15-11.05 5.24-12.08 10.77q-2.41 13.03 9.13 18.65 4.59 2.23 10.17 4.84c3.32 1.56 6.42 4.3 4.68 7.94-2.92 6.1-17.28 2.22-21.82.42a1.047 1.045 14.354 0 0-1.42.84l-1.02 7.94a2.81 2.81-76.34 0 0 1.82 2.99c12.03 4.4 31.58 5.03 35.61-10.34 2.53-9.64-3.5-17.37-11.97-20.97-2.63-1.12-13.6-5.26-12.61-9.15 1.72-6.78 14.83-2.61 19.08-1.21a1.382 1.382-77.341 0 0 1.8-1.14l1.09-8.56a.71.7 15.265 0 0-.43-.74m110.693 20.662a24.03 24.03 0 0 0-24.446-23.607l-4.459.078a24.03 24.03 0 0 0-23.607 24.446l.166 9.519a24.03 24.03 0 0 0 24.446 23.607l4.459-.078a24.03 24.03 0 0 0 23.607-24.446zM873.11 950.89l-1.18 9.29a1.885 1.88-77.988 0 0 1.32 2.04c8.54 2.61 22.43 4.11 29.88-1.46q7.42-5.57 6.07-16.38c-.83-6.64-5.29-11.08-11.47-13.55-2.86-1.14-16.96-6.03-12.48-10.91 4.17-4.54 13.69-.88 18.16.47a1.582 1.581 12.01 0 0 2.02-1.31l.99-7.77a2.02 2.02 12.735 0 0-1.37-2.17q-11.71-3.85-22.41-1.31c-10.51 2.5-13.52 13.65-9.16 22.49q1.99 4.04 6.35 6.12 7.55 3.61 11.53 5.44c3.4 1.56 7.03 4.9 3.99 8.78-4.03 5.13-16.17 1.3-21.74-.1a.406.398 10.967 0 0-.5.33m100.78.09c-6.81 2.11-17.95 3.87-23.91-.58-6.47-4.84-7.38-12.7-5.85-20.31q1.48-7.4 7.93-10.61c5.87-2.92 13.48-1.02 19.64.97a1.679 1.678 12.454 0 0 2.18-1.39l1.05-8.26a1.671 1.669-78.731 0 0-1.22-1.83c-8.59-2.32-18.09-3.37-26.7-.42-12.4 4.25-16.57 16.39-16.79 28.45q-.14 7.87 2.86 13.66c7.38 14.26 23.04 15.59 37.13 12.55q2.41-.53 3.75-1.47a1.417 1.403 72.439 0 0 .59-1.15v-9.12a.512.512 81.575 0 0-.66-.49m-644.23 1.64a.91.91 0 0 1-.91-.91V908.5a.91.91-89.963 0 0-.91-.91h-11.28a.91.91 74.849 0 0-.91.91v53.95a.91.91-78.778 0 0 .91.91h30.278a.91.91-5.601 0 0 .889-.715l1.96-8.92a.91.91 26.641 0 0-.889-1.105zm115.49-44.23v54.2a.76.76 0 0 0 .76.76h24.46a24 23.9 90 0 0 23.9-24v-7.72a24 23.9 90 0 0-23.9-24h-24.46a.76.76 0 0 0-.76.76m377.63 53.98-10.25-17.76a.98.972-34.455 0 1 .24-1.26q9.19-7.26 8.22-18.46c-.87-10.09-7.94-16.56-18.02-17.01q-6.11-.27-21.99-.23a.49.49 0 0 0-.49.49v54.51a.87.87 45 0 0 .87.87h10.98a1.42 1.42 88.838 0 0 1.42-1.48l-.64-15.31a.82.82-71.898 0 1 .79-.85l3.45-.15a3.01 2.99 75.106 0 1 2.79 1.63l7.63 14.87a2.044 2.03 76.317 0 0 1.81 1.11h12.63a.647.647 75 0 0 .56-.97m42.41-54.72H826.4a1.08 1.08 81.814 0 0-1.08 1.08v8.62a.83.83-45 0 0 .83.83h11.4a1.63 1.62 90 0 1 1.62 1.63v42.43a1.14 1.14-45 0 0 1.14 1.14h11.34a.85.84 90 0 0 .84-.85v-43.61a.72.72 25.179 0 1 .72-.72q5.63.03 9.04-.03c1.96-.04 3.09-.46 3.54-2.41q.84-3.66.24-7.38a.858.848 85.667 0 0-.84-.73m247.13 25.93c4.66-1.18 5.61-6.87 5.75-11.34.26-9.01-6.05-14.4-15.07-14.53q-9.02-.13-23.58-.11a.79.78-.372 0 0-.78.78v54.16a.81.81-.69 0 0 .83.81q14.81-.29 21.28-.07 7.07.24 10.27-1.12 9.3-3.95 9.18-15.11c-.05-5.55-3.81-9.64-8.02-12.75a.406.405 56.084 0 1 .14-.72m-828.055 19.774q5.559-.008 6.806.042a1.55 1.539-7.712 0 1 1.409 1.064l2.75 8.32a.736.728-8.617 0 0 .7.51h12.46a.575.569 81.04 0 0 .54-.75l-17.85-54.13a.926.907-8.37 0 0-.864-.629q-2.121-.017-6.023-.01-3.901.006-6.022.029a.926.907 8.191 0 0-.862.632l-17.681 54.185a.575.569-81.219 0 0 .542.748l12.46-.039a.736.728 8.438 0 0 .698-.512l2.724-8.328a1.55 1.539 7.533 0 1 1.406-1.069q1.247-.054 6.807-.063M405.77 933.84c7.2-1.28 6.76-13.93 4.2-18.71-3.24-6.05-9.27-7.41-16.41-7.44q-8.53-.04-21.45.05a.57.56 90 0 0-.56.57v54.02a1.16 1.151 89.278 0 0 1.18 1.16q13.11-.29 18.95-.13 9.73.26 13.42-1.38 8.58-3.82 8.42-14.98c-.08-5.92-3.8-9.34-7.89-12.6a.318.317-31.074 0 1 .14-.56m28.96-25.12a.91.91 0 0 0-.91-.91H422.6a.91.91 0 0 0-.91.91v53.74a.91.91 0 0 0 .91.91h11.22a.91.91 0 0 0 .91-.91zm68.917-.092-.094 53.799a.95.95 61.11 0 0 .948.952l24.11.042a24.32 23.6-89.9 0 0 23.643-24.279l.012-7.06a24.32 23.6-89.9 0 0-23.557-24.361l-24.11-.042a.95.95 74.892 0 0-.952.949m77.829 44.735q5.557.022 6.803.079a1.55 1.538-7.399 0 1 1.402 1.071l2.703 8.331a.735.727-8.304 0 0 .697.514l12.454.068a.575.569 81.353 0 0 .544-.747l-17.546-54.2a.925.906-8.057 0 0-.86-.633q-2.12-.029-6.019-.044t-6.02-.003a.925.906 8.504 0 0-.865.626l-17.968 54.062a.575.569-80.906 0 0 .538.751l12.454.029a.735.727 8.751 0 0 .701-.508l2.768-8.31a1.55 1.538 7.846 0 1 1.41-1.06q1.247-.047 6.804-.026m102.074-7.143a.38.38 35.533 0 1 .38-.38c7.13.04 14.24.68 20.51-3.89q5.29-3.85 6.29-10.94c.87-6.15-.21-14.11-5.26-18.4-4.33-3.69-9.15-4.67-14.73-4.82q-8.85-.23-19.16.09a.961.951 89.076 0 0-.92.96v53.84a.72.71 90 0 0 .71.72h11.35a.84.83-90 0 0 .83-.84zm299.16-37.87v53.85a1.2 1.19-90 0 0 1.19 1.2h30.76a1.333 1.331-88.646 0 0 1.33-1.27l.4-8.72a.917.907-.298 0 0-.97-.95q-6.37.4-17.39.19-1.84-.03-1.81-2.37.38-26.48.12-41.78a.83.83 89.651 0 0-.83-.82h-12.13a.67.67 45 0 0-.67.67m62.3 56.18c9.983-.004 18.376-3.155 22.067-12.713a5.463 5.342 60.736 0 0 .293-1.087q.56-3.39.53-10.48-.13-26.51-.04-31.95a.54.54-89.479 0 0-.54-.55h-12.06a.44.44 89.363 0 0-.44.45q.29 18.17-.067 36.26c-.114 5.709-4.371 8.802-9.748 8.805-5.377.002-9.637-3.087-9.755-8.796q-.374-18.09-.101-36.26a.44.44-89.416 0 0-.44-.45l-12.06.011a.54.54 89.427 0 0-.54.551q.095 5.44-.01 31.95-.024 7.09.539 10.479a5.463 5.342-60.788 0 0 .294 1.087c3.7 9.555 12.096 12.698 22.078 12.693m-139.7 98.81a.49.49 0 0 0-.49-.49h-430a.49.49 0 0 0-.49.49v5.04a.49.49 0 0 0 .49.49h430a.49.49 0 0 0 .49-.49zm-292.64 162.88a.377.372-67.472 0 1-.26-.64c9.85-9.95 28.57-25.46 25.95-40.74-1.36-7.88-7.63-13.23-15.84-13.69-7.97-.44-14.55-.19-21.54 3.69a1.191 1.176 76.836 0 0-.6.98l-.36 7.69a.748.745 78.677 0 0 1.06.71q2.05-.94 5.68-2.66c6.98-3.3 22.53-4.7 21.31 7.81-.52 5.35-4.21 10.6-7.49 14.71-6.71 8.42-16.05 17.09-21.64 22.78a3.088 3.066 71.773 0 0-.85 1.7q-.39 2.69.13 5.5a.937.928-5.17 0 0 .92.76h37.92a1.152 1.142 1.303 0 0 1.15-1.09l.31-6.84a.64.64-88.717 0 0-.64-.67zm35.171-22.91q.022 6.381 1.005 11.415c2.094 10.705 9.344 19.715 20.651 20.593q2.479.193 4.152.188 1.672-.006 4.15-.215c11.301-.954 18.491-10.012 20.513-20.731q.95-5.041.929-11.422-.021-6.38-1.005-11.414c-2.094-10.706-9.344-19.716-20.651-20.594q-2.479-.193-4.151-.188-1.673.006-4.151.216c-11.301.953-18.49 10.011-20.513 20.73q-.95 5.041-.929 11.422m76.749 31.44a.54.54-45 0 0 .54-.54q-.02-13.26.24-25.72c.27-13.2-.25-22.87-.56-35.95a.7.7-79.413 0 0-.69-.69c-4.11-.05-7.4-.35-11.56 1.8q-2.9 1.5-6.1 3.16a2.121 2.109 76.392 0 0-1.14 1.88v6.01a.764.759 77.999 0 0 1.07.7l7.3-3.27a.7.626 29.735 0 1 .28-.06h.5a.41.4-90 0 1 .4.41v51.49a.78.78 11.285 0 0 .78.78zm25.22-41.32.57-12.27a1.122 1.121-88.661 0 1 1.12-1.07h23a1.031 1.022 1.158 0 0 1.03-.98l.3-6.35a.79.79-88.952 0 0-.79-.82H743a1.632 1.623 1.286 0 0-1.63 1.55l-1.44 31.17a.887.883-6.625 0 0 1.13.89c9.18-2.68 27.7-7.64 28.52 8.16.9 17.46-20.32 15.15-29.39 7.81a.968.963-69.208 0 0-1.57.71l-.33 7.14a2.652 2.642 15.464 0 0 1.4 2.46q9.85 5.27 22.17 3.27c6.49-1.05 11.9-3.9 14.78-9.87q2.19-4.52 2.73-8.54c1.77-13.18-8.28-23.24-21.17-22.93q-5.31.13-7.59.41a.716.712-2.06 0 1-.8-.74"></path><path fill="#ba9550" fill-rule="evenodd" d="M995.97 1201.02c3.1-2.04 5.3-5.13 8.17-8.09q16.51-17.08 21.64-23.16 18.32-21.72 36.04-44.45c23.14-29.68 42.99-61.4 59.99-94.23q2.25-4.35 10.04-21.17c9.65-20.86 17.11-42.3 23.68-64.42q4.34-14.61 7.18-29 5.66-28.79 7.38-49.01 1.11-13.01 1.08-31.49-.25-143.73 0-470.1c.03-31.64-.5-68.47-.04-102.57a1.354 1.338 8.622 0 0-.97-1.3q-27.83-8.04-56.99-15.84c-15.59-4.17-29.85-7.31-44.93-10.88-18.13-4.31-38.72-8.23-56.28-11.65q-54.01-10.5-113.72-17.28l-36.26-4.11c-4.82-.54-9.1-.78-14.97-1.28q-49.84-4.23-71.52-5.07-19.21-.75-45.74-1.44c-8.09-.21-16.94.02-24.86-.3q-19.37-.77-23.15-.54-11.66.72-19.49.7c-15.46-.05-24.75.75-40.84.94q-9.97.11-21.31.76-53.19 3.04-85.08 6.44-4.75.5-5.02.53-64.41 6.49-119.99 16.08c-23.51 4.06-51.92 9.39-78.54 15.53q-41.89 9.65-49.95 11.84-28.96 7.88-55.08 15.33a1.73 1.73-8.038 0 0-1.25 1.66q-.05 201.24.04 564.55c0 23.22-.01 40.5 3.38 61.74q1.48 9.3 6.28 33.24 4.74 23.71 13.99 48.48 4.35 11.66 4.38 11.73 5.1 13.51 6.11 15.67c4.71 10.09 8.92 20.68 13.42 29.41 12.91 25.02 26.81 47.72 42.6 71.44q10.12 15.21 25.41 33.65 5.03 6.06 18.9 23.52 12.99 16.36 31.39 35.53 3.95 4.11 7.8 8.13a.255.247 45.842 0 1 0 .35v.01a.242.227-46.788 0 1-.32.02q-5.11-4.5-5.56-4.96-6.09-6.24-28.77-28.92c-4.56-4.56-8.48-9.48-13.3-14.29q-4.2-4.19-8.7-9.59c-2.72-3.26-7.68-8.3-11.22-13.25q-1.8-2.52-9.55-11.85-25.57-30.74-46.7-65.32-4.94-8.09-10.75-18-14.24-24.26-25.44-49.54c-3.54-7.99-6.49-17.19-10.08-25.53q-2.55-5.91-3.98-10.22-11.14-33.58-15.63-56.3c-4.44-22.54-7.49-43.56-7.52-65.9q-.18-131.03-.24-261-.04-101.99.26-220.55c.1-35.29-.55-71.87.24-108.8a1.726 1.709 79.795 0 1 1.08-1.57q3.36-1.36 7.05-2.47c41.15-12.41 79.45-20.99 126.49-30.9q14.46-3.05 54.28-10.07 26.53-4.68 54.54-8.46c61.58-8.29 122.39-13.48 183.07-16.28 40.87-1.89 78.95-1.55 121.61-1.18 33.57.3 67.85 2.73 98.77 4.81 79.76 5.35 156.76 16.1 233.94 31.6 10.76 2.16 22.89 5.11 37.02 8.19q47.86 10.44 93.67 24.48a2.149 2.147 8.653 0 1 1.51 2.05q-.06 12.88.39 33.45c.32 14.37-.14 31.05-.14 44.82q.13 311.08-.09 515.39-.02 14.79-4.32 42.25-3.89 24.89-10.8 50.32c-10.05 37.01-25.8 73.28-44.61 106.14q-12.73 22.24-25.19 41.24-13.31 20.3-33.43 45.26-17.7 21.94-29.87 35.13-10.13 10.97-33.64 35.13c-4.29 4.41-9.42 8.97-14.18 13.67q-1.18 1.17-2.7 1.4a.154.154-66.469 0 1-.11-.28"></path><path fill-rule="evenodd" d="M870.79 478.02v-69.5a1.913 1.906-22.571 0 1 .56-1.35l69.69-69.69a.522.521 67.531 0 1 .89.37v210.79a.4.39 90 0 1-.39.4H517.88a.83.83-45 0 1-.83-.83v-69.27a.57.57 33.308 0 1 .57-.57h69.22a.82.82-44.947 0 0 .82-.82v-68.2a2.888 2.862-21.105 0 1 .96-2.14c7.28-6.49 12.92-12.74 19.59-19.25q7.82-7.63 8.82-8.68.72-.75 37.05-37.7 1.4-1.41 4.4-3.59a.452.448 72.291 0 1 .71.37v139.51a.52.51 90 0 0 .51.52h68.61a.597.594 86.956 0 0 .59-.66q-.22-2.15-.19-10.73.07-21.79.04-116.75 0-6.79-.34-12.19a.642.638-86.19 0 1 .76-.67q.22.05 1.34 1.16 33.43 33.25 50.73 50.52 13.23 13.21 17.5 17.69 1.72 1.8 1.74 3.99.15 21.55.08 66.98a.62.62 74.836 0 0 .62.62h69.28a.33.33 90 0 0 .33-.33M976.79 337.71a.357.356 23.829 0 1 .62-.24q5.48 5.98 10.32 10.69 10.12 9.86 26.13 26.24c10.23 10.46 22.77 22.6 33.6 33.15a1.902 1.882 22.212 0 1 .58 1.36v69.19a1.187 1.134 25.854 0 0 .28.75q.81.93 2.21 2.31 46.62 45.95 53.82 52.98c1.58 1.54 4.23 4.74 6.41 6.75q3.78 3.49 6.83 7.31a.541.54 70.537 0 1-.42.88h-140.1a.28.28 35.532 0 1-.28-.28zM257.94 549.05a.299.296 21.466 0 1-.22-.5q9.63-10.02 10.85-11.23 31.56-31.45 52.02-51.73 2.54-2.52 6.86-6.35a2.116 2.071 69.635 0 0 .7-1.57v-68.69a2.108 2.085 68.817 0 1 .67-1.54c14.8-13.99 27.36-27.36 40.92-40.85q.49-.49 25.34-25.51 1.7-1.71 3.9-3.33a.632.623 49.542 0 1 .81.07l70.06 70.06a.416.414 67.383 0 1-.29.71h-69.57a.7.69-90 0 0-.69.7v68.55a.48.48 81.878 0 0 .48.48h69.57a.57.56-90 0 1 .56.57v69.69a.47.47 25.193 0 1-.47.47zM694.448 701.827a.35.35 0 0 1-.495 0l-49.95-49.95a.35.35 0 0 1 0-.495l49.809-49.809a.35.35 0 0 1 .495 0l49.95 49.95a.35.35 0 0 1 0 .495zM587.94 617.09v69.22a.76.76-45 0 1-.76.76H328.662a.76.76 16.673 0 1-.534-.22l-69.954-69.22a.76.76-79.667 0 1 .535-1.3H587.18a.76.76 45 0 1 .76.76M801.85 686.59v-69.75a.52.52 89.925 0 1 .52-.52h315.332a.52.52 58.07 0 1 .366.89l-70.706 69.75a.52.52-28.415 0 1-.365.15H802.37a.52.52 0 0 1-.52-.52M380.98 793.54a6.19 6.19 0 0 1-6.19 6.19 6.19 6.19 0 0 1-6.19-6.19 6.19 6.19 0 0 1 6.19-6.19 6.19 6.19 0 0 1 6.19 6.19M1115.234 787.369a6.29 6-79.8 0 1 4.791 7.253 6.29 6-79.8 0 1-7.019 5.129 6.29 6-79.8 0 1-4.791-7.254 6.29 6-79.8 0 1 7.019-5.128M512.82 804.87a.56.56 89.479 0 1 .56.55q.02 1.58.11 20.44.04 7.04-1.35 9.85c-1.77 3.59-7.12 9.15-11.83 9.15q-61.31-.01-79.12.06c-2.56.01-4.8-.71-6.75-2.42q-6.44-5.66-6.19-14.99.45-17.17.27-38a.58.58 89.514 0 1 .58-.59h11.15a.6.59-90 0 1 .59.6q-.02 31.95-.07 39.33-.03 4.51 4.22 4.43 18.63-.36 66.01-.14 4.74.02 8.31-.47a2.059 2.055 86.169 0 0 1.78-2.04v-25.16a.6.6-56.252 0 1 .6-.6zM541.9 805.13a.68.67-90 0 1 .67.68v26.63a.611.6.988 0 0 .59.6c3.36.1 9.76.75 11.6-1.09a1.845 1.833-22.638 0 0 .54-1.3v-41.11a.55.55 29.845 0 1 .55-.55h10.84a.74.73-.392 0 1 .74.72q.21 17.79-.21 41.06-.15 8-6.94 12.29-2.68 1.7-5.34 1.82-4.75.22-11.73-.02a.791.782-.333 0 0-.81.81c.13 4.28.19 7.96-2.24 11.51q-4.17 6.08-11.68 8.6a.869.857 62.162 0 1-.98-.31l-6.9-9.37a1.127 1.123-29.412 0 1 .48-1.71c5.5-2.23 9.46-2.45 9.52-9.91q.12-15.55.08-39.09a.26.26-45.002 0 1 .26-.26zM589.83 788.98a.36.36-45 0 1 .36.36q.15 38.68 0 49.69-.04 3.24-.43 5a2.729 2.717 82.385 0 1-1.4 1.84l-9.39 4.82a.887.886 76.462 0 1-1.29-.79v-60.36a.56.56 29.812 0 1 .56-.56zM675.29 816.77a.518.514-3.466 0 1-.58-.51v-10.73a.541.54 1.023 0 1 .56-.54c6.48.26 12.87-.64 18.02 2.95 5.3 3.69 9.16 8.88 9.12 15.31q-.05 6.95-.03 9.01a.86.85 89.659 0 0 .85.85h103.82a.82.81-90 0 0 .81-.82v-26.56a.74.74 45 0 1 .74-.74h10.69a.75.75 45 0 1 .75.75v26.52a.752.751 1.615 0 0 .71.75q.74.05 7.78.2 4.39.09 4.39-4.17-.02-16.13-.15-39.37a.77.76 89.628 0 1 .76-.78h10.83a.581.58-89.045 0 1 .58.6q-.26 8.83-.22 36.85.02 7.05-1.33 9.66c-2.27 4.4-7.05 8.77-12.4 8.82q-11.59.12-12.24.12-76.47-.2-150.71-.08a.48.47 0 0 1-.48-.47v-10.67a.75.74 0 0 1 .75-.74h21.29a.866.863-87.458 0 0 .86-.79q.4-5.01-.36-8.78c-1.21-5.93-9.86-7.23-14.81-6.64M856.04 788.99h10.67a.56.56-41.484 0 1 .56.56v54.908a.56.56-60.867 0 1-.304.498l-10.67 5.475a.56.56-65.514 0 1-.816-.498V789.55a.56.56 45 0 1 .56-.56M1119.88 805.38q.2 1.87.13 18.65c-.03 7.96.39 11.46-4.43 16.81q-3.83 4.24-9.32 4.2-39.07-.29-91.76-.21c-2.01.01-4.1-.94-5.68-2.35q-5.59-4.97-5.5-14.42.26-27.71-.01-38.56a.631.63 89.118 0 1 .63-.65h10.8a.61.61 45 0 1 .61.61q-.07 21.02.14 39.91.04 3.68 3.3 3.72 20.47.26 85.5-.11c3.6-.02 3.98-1.83 3.97-5.14q-.09-18.37-.01-22.4a.53.52.551 0 1 .53-.51h10.61a.494.492 87.45 0 1 .49.45M271 819.36a.268.265-13.803 0 1 .4.24q-.48 11.02.02 23.26.32 7.68 8.02 9.96 9.82 2.92 18.13-2.26c1.62-1.01 3.38-2.94 4.01-4.83a.601.597 9.374 0 0-.57-.79h-7.22a.94.93 90 0 1-.93-.94v-9.65a1.29 1.29 45 0 1 1.29-1.29h55.86a.66.66-19.194 0 0 .66-.66v-26.61a.68.68-51.82 0 1 .68-.68h10a1.09 1.08 90 0 1 1.08 1.09v3.7a.8.8 77.857 0 0 1.13.73q5.64-2.52 13.47-5.14c8.9-2.98 20.11.74 20.74 11.38q.1 1.7.13 13.01.01 5.66-4.14 10.37-4.14 4.7-9.9 4.62-13.76-.18-20.2.04a1.076 1.069 6.152 0 0-1 .8c-.73 2.68-1.79 3.87-4.56 4.99q-3.71 1.5-6.31 3.11-.13.07-.48.09a.601.6-.924 0 1-.62-.6v-7.25a1.24 1.23 90 0 0-1.23-1.24h-35.04a.801.79-88.869 0 0-.79.77c-.39 12.04-11.34 19.81-22.65 20.04-4.38.08-8.37.52-10.99-.07-13.08-2.91-21.62-9.76-20.84-24.3q.3-5.58.21-14a1.994 1.987 74.753 0 1 .99-1.74zm91.63 5.61v7.5a.76.75 0 0 0 .76.75c9.9-.05 15.37-.17 18.44-.06q3.85.14 3.83-3.83-.01-5.35-.01-10.4a2.072 2.064-82.528 0 0-1.53-2q-1.96-.52-3.74.21-7.8 3.18-17.03 6.78a1.129 1.125-10.662 0 0-.72 1.05M655.98 853.82a.509.506 13.315 0 1 .46.74q-3.1 5.92-7.28 10.38a2.195 2.185 20.695 0 1-1.56.7q-3.53.11-8.42.13c-7.97.03-12.63.3-18.25-4.96q-5.2-4.86-5.2-12.02 0-5.42 4.7-11.03a.667.661-41.581 0 0 .05-.77q-1.97-3.2-2.04-4.73c-.3-7.56-1.16-13.87 1.77-19.28q4.5-8.31 15.01-8.2 7.04.07 15.89.08a.59.59 35.532 0 1 .59.59v10.81a.57.57 35.523 0 1-.57.57l-17.52-.01a2.85 2.843-82.326 0 0-2.76 2.11c-.45 1.66-1.08 9.97.33 12.86a2.53 2.516 77.053 0 0 2.27 1.43h23.43a.59.58-90 0 1 .58.59v10.44a.62.62-54.473 0 1-.62.62q-17.34-.15-23.53-.04-2.71.05-5.4 3.3a1.105 1.102-36.44 0 0-.17 1.12c1.95 4.81 5.08 4.48 10.35 4.57q9.94.17 17.89 0M947.22 805.94v10.1a.78.78 45 0 1-.78.78h-17.89a2.088 2.081 6.657 0 0-2.03 1.6c-.92 3.77-2.03 11.96 1.46 14.32q.64.43 2.55.45 6.43.07 16.03-.02a.651.65 89.09 0 1 .65.63c.27 10.25 1.03 20.33-8.31 26.78-7.49 5.16-14.08 5.48-22.84 5.19-11-.37-23.22-8.38-23.2-20.28q.03-8.66.04-17.05a2.37 2.37-17.964 0 1 .98-1.92l10.11-7.45a.847.846 72.398 0 1 1.35.7q-.34 13.21-.16 23.72c.22 13.25 24.48 13.24 29.15 3.05a1.053 1.053-76.417 0 0-.91-1.49c-4.27-.17-8.32.04-11.63-1.9q-7.56-4.44-7.83-12.86c-.15-4.8-.55-11.77 1.09-16.19q3.16-8.53 12.69-9.19 6.19-.42 18.56.08a.951.95.934 0 1 .92.95M957.67 834.09a.97.97-.298 0 1 .96-.97q9.73-.1 16.99-.27 4.37-.1 4.64-4.56.2-3.16-.49-4.77c-2.41-5.68-9.13-7.23-14.85-6.54a.534.53 86.232 0 1-.6-.53v-10.8a.68.67 89.572 0 1 .66-.68q9.37-.16 13.92.62 2.14.36 4.93 2.55 9.85 7.76 8.73 22.5-.41 5.43-4.84 10.1-4.02 4.25-9.96 4.18-2.05-.02-19.5-.17a.6.6.486 0 1-.59-.6z"></path><path fill="#fff" fill-rule="evenodd" d="M363.35 823.92q9.23-3.6 17.03-6.78 1.78-.73 3.74-.21a2.072 2.064-82.528 0 1 1.53 2q0 5.05.01 10.4.02 3.97-3.83 3.83c-3.07-.11-8.54.01-18.44.06a.76.75 0 0 1-.76-.75v-7.5a1.129 1.125-10.662 0 1 .72-1.05" data-source="https://football-logos.cc"></path><path fill-rule="evenodd" d="M501.02 859.77q-.51-.01-.66.33c-2.16 4.92-5.82 7.92-10.79 3.54-5.06-4.45-.1-9.67 4.56-10.58a1.447 1.43-34.303 0 1 1.04.19q2.81 1.77 4.85 4.56a.696.694 49.288 0 0 1.05.08l4.79-4.84a.825.818-55.845 0 1 .92-.18c3.59 1.55 7.11 4.03 6.71 8.1a2.249 2.236-25.041 0 1-.37 1.01q-2.17 3.17-5.71 4.45c-3.13 1.14-5.19-4.09-5.78-6.2a.603.601 6.243 0 0-.29-.36q-.2-.1-.32-.1M820.01 859.64a6.17 6.17 0 0 1-6.17 6.17 6.17 6.17 0 0 1-6.17-6.17 6.17 6.17 0 0 1 6.17-6.17 6.17 6.17 0 0 1 6.17 6.17M286.28 879.06q-1.53 2.48-5.08 4.03c-3.42 1.51-6.72-2-7.85-4.74-1.25-3.01 3.73-6.4 6.03-7.54a2.149 2.13-34.407 0 1 2.52.46l3.89 4.22a.329.324 49.914 0 0 .43.04l6.91-5.09a.593.574 40.492 0 1 .64-.04c2.57 1.4 7.43 6.22 5.16 9.48q-1.56 2.24-5.35 3.96a1.887 1.878-34.657 0 1-2.11-.38l-4.53-4.47a.427.421 38.538 0 0-.66.07M920.61 877.66q-1.96 4.13-6.24 5.87c-3.62 1.48-7.01-3.83-7.16-6.43a2.13 2.13-32.118 0 1 .27-1.18q2.58-4.62 6.94-5.23a1.935 1.923 67.717 0 1 1.8.76l3.74 5.09a.532.529 42.867 0 0 .87-.03q2.34-3.61 4.69-5.44a1.88 1.864 41.83 0 1 2.15-.11c2.27 1.44 7.03 5.37 5.19 8.28-1.34 2.13-5.87 6.29-8.67 3.7q-2.21-2.04-3.01-5.22a.307.304 50.751 0 0-.57-.06M659.99 909.85a.71.7 15.265 0 1 .43.74l-1.09 8.56a1.382 1.382-77.341 0 1-1.8 1.14c-4.25-1.4-17.36-5.57-19.08 1.21-.99 3.89 9.98 8.03 12.61 9.15 8.47 3.6 14.5 11.33 11.97 20.97-4.03 15.37-23.58 14.74-35.61 10.34a2.81 2.81-76.34 0 1-1.82-2.99l1.02-7.94a1.047 1.045 14.354 0 1 1.42-.84c4.54 1.8 18.9 5.68 21.82-.42 1.74-3.64-1.36-6.38-4.68-7.94q-5.58-2.61-10.17-4.84-11.54-5.62-9.13-18.65c1.03-5.53 6.32-9.62 12.08-10.77q11.26-2.24 22.03 2.28M770.849 940.031a24.03 24.03 0 0 1-23.607 24.446l-4.459.078a24.03 24.03 0 0 1-24.446-23.607l-.166-9.519a24.03 24.03 0 0 1 23.607-24.446l4.459-.078a24.03 24.03 0 0 1 24.446 23.607zM731.32 935.8c.128 8.736 2.561 18.155 13.463 17.995s13.057-9.647 12.928-18.383-2.561-18.155-13.463-17.995-13.057 9.647-12.928 18.383M873.11 950.89a.406.398 10.967 0 1 .5-.33c5.57 1.4 17.71 5.23 21.74.1 3.04-3.88-.59-7.22-3.99-8.78q-3.98-1.83-11.53-5.44-4.36-2.08-6.35-6.12c-4.36-8.84-1.35-19.99 9.16-22.49q10.7-2.54 22.41 1.31a2.02 2.02 12.735 0 1 1.37 2.17l-.99 7.77a1.582 1.581 12.01 0 1-2.02 1.31c-4.47-1.35-13.99-5.01-18.16-.47-4.48 4.88 9.62 9.77 12.48 10.91 6.18 2.47 10.64 6.91 11.47 13.55q1.35 10.81-6.07 16.38c-7.45 5.57-21.34 4.07-29.88 1.46a1.885 1.88-77.988 0 1-1.32-2.04zM973.89 950.98a.512.512 81.575 0 1 .66.49v9.12a1.417 1.403 72.439 0 1-.59 1.15q-1.34.94-3.75 1.47c-14.09 3.04-29.75 1.71-37.13-12.55q-3-5.79-2.86-13.66c.22-12.06 4.39-24.2 16.79-28.45 8.61-2.95 18.11-1.9 26.7.42a1.671 1.669-78.731 0 1 1.22 1.83l-1.05 8.26a1.679 1.678 12.454 0 1-2.18 1.39c-6.16-1.99-13.77-3.89-19.64-.97q-6.45 3.21-7.93 10.61c-1.53 7.61-.62 15.47 5.85 20.31 5.96 4.45 17.1 2.69 23.91.58M329.66 952.62h19.138a.91.91 47.298 0 1 .889 1.105l-1.96 8.92a.91.91 42.592 0 1-.889.715H316.56a.91.91-53.171 0 1-.91-.91V908.5a.91.91-56.231 0 1 .91-.91h11.28a.91.91-89.889 0 1 .91.91v43.21a.91.91 0 0 0 .91.91M445.15 908.39a.76.76-45 0 1 .76-.76h24.46a24 23.9-90 0 1 23.9 24v7.72a24 23.9-90 0 1-23.9 24h-24.46a.76.76 45 0 1-.76-.76zm13.095 11.25.17 32.599a1.56 1.56 45.253 0 0 1.569 1.552l6.05-.032a15.17 15.13 89.7 0 0 15.05-15.249l-.028-5.38a15.17 15.13 89.7 0 0-15.209-15.09l-6.05.032a1.56 1.56 77.767 0 0-1.552 1.568M822.78 962.37a.647.647 75 0 1-.56.97h-12.63a2.044 2.03 76.317 0 1-1.81-1.11l-7.63-14.87a3.01 2.99 75.106 0 0-2.79-1.63l-3.45.15a.82.82 69.837 0 0-.79.85l.64 15.31a1.42 1.42 88.838 0 1-1.42 1.48h-10.98a.87.87 45 0 1-.87-.87v-54.51a.49.49-45 0 1 .49-.49q15.88-.04 21.99.23c10.08.45 17.15 6.92 18.02 17.01q.97 11.2-8.22 18.46a.98.972-34.455 0 0-.24 1.26zm-29.584-43.513.189 15.499a.54.54 89.665 0 0 .547.534l6.109-.075a7.55 7.29-.7 0 0 7.461-7.382l-.025-2a7.55 7.29-.7 0 0-7.638-7.197l-6.11.075a.54.54 89.73 0 0-.533.546M865.19 907.65a.858.848 85.667 0 1 .84.73q.6 3.72-.24 7.38c-.45 1.95-1.58 2.37-3.54 2.41q-3.41.06-9.04.03a.72.72-8.153 0 0-.72.72v43.61a.85.84 90 0 1-.84.85h-11.34a1.14 1.14-45 0 1-1.14-1.14v-42.43a1.63 1.62-90 0 0-1.62-1.63h-11.4a.83.83-45 0 1-.83-.83v-8.62a1.08 1.08-64.8 0 1 1.08-1.08zM1112.32 933.58a.406.405 56.084 0 0-.14.72c4.21 3.11 7.97 7.2 8.02 12.75q.12 11.16-9.18 15.11-3.2 1.36-10.27 1.12-6.47-.22-21.28.07a.81.81-.69 0 1-.83-.81v-54.16a.79.78-.372 0 1 .78-.78q14.56-.02 23.58.11c9.02.13 15.33 5.52 15.07 14.53-.14 4.47-1.09 10.16-5.75 11.34m-20.89-14.17v8.9a1.28 1.28 74.818 0 0 1.28 1.28h6.56a5.48 5.19 0 0 0 5.48-5.19v-1.08a5.48 5.19 0 0 0-5.48-5.19h-6.56a1.28 1.28-78.721 0 0-1.28 1.28m.231 21.559-.258 11.337a1.29 1.29 82.564 0 0 1.261 1.319l7.048.16a6.88 6.12 1.3 0 0 7.017-5.963l.038-1.679a6.88 6.12 1.3 0 0-6.739-6.275l-7.049-.16a1.29 1.29 88.993 0 0-1.318 1.261M284.193 907.771q3.902-.007 6.023.01a.926.907-8.37 0 1 .864.629l17.85 54.13a.575.569 81.04 0 1-.54.75h-12.46a.736.728-8.617 0 1-.7-.51l-2.75-8.32a1.55 1.539-7.712 0 0-1.409-1.064q-1.247-.05-6.806-.042t-6.807.063a1.55 1.539 7.533 0 0-1.406 1.069l-2.724 8.328a.736.728 8.438 0 1-.698.512l-12.46.039a.575.569-81.219 0 1-.542-.748l17.681-54.185a.926.907 8.191 0 1 .862-.632q2.121-.023 6.022-.029m-5.019 34.374a.57.57-64.445 0 0 .558.717l8.664-.105a.57.57 51.363 0 0 .539-.731l-4.52-15.333a.57.57-55.614 0 0-1.097.013zM405.77 933.84a.318.317-31.074 0 0-.14.56c4.09 3.26 7.81 6.68 7.89 12.6q.16 11.16-8.42 14.98-3.69 1.64-13.42 1.38-5.84-.16-18.95.13a1.16 1.151 89.278 0 1-1.18-1.16v-54.02a.57.56 90 0 1 .56-.57q12.92-.09 21.45-.05c7.14.03 13.17 1.39 16.41 7.44 2.56 4.78 3 17.43-4.2 18.71m-21.451-14.413.063 9.06a1.3 1.3 87.705 0 0 1.309 1.291l6.5-.046a5.66 5.05-.4 0 0 5.624-5.089l-.011-1.56a5.66 5.05-.4 0 0-5.695-5.01l-6.5.045a1.3 1.3 80.812 0 0-1.29 1.309m.189 22.272-.174 9.958a2.01 2.01 86.303 0 0 1.975 2.045l5.719.1a7.39 5.94 1 0 0 7.493-5.81l.036-2.1a7.39 5.94 1 0 0-7.285-6.068l-5.719-.1a2.01 2.01 44.202 0 0-2.045 1.975M434.73 962.46a.91.91 0 0 1-.91.91H422.6a.91.91 0 0 1-.91-.91v-53.74a.91.91 0 0 1 .91-.91h11.22a.91.91 0 0 1 .91.91zM503.647 908.628a.95.95-56.168 0 1 .952-.949l24.11.042a24.32 23.6-89.9 0 1 23.557 24.361l-.012 7.06a24.32 23.6-89.9 0 1-23.643 24.279l-24.11-.042a.95.95-62.661 0 1-.948-.952zm12.66 10.82.227 32.579a1.57 1.57-45.027 0 0 1.581 1.559l6.1-.042a14.66 14.63 89.6 0 0 14.527-14.762l-.045-6.4a14.66 14.63 89.6 0 0-14.732-14.557l-6.099.042a1.57 1.57-67.549 0 0-1.559 1.581M581.476 953.363q-5.557-.021-6.804.026a1.55 1.538 7.846 0 0-1.41 1.06l-2.768 8.31a.735.727 8.751 0 1-.701.508l-12.454-.029a.575.569-80.906 0 1-.538-.751l17.968-54.062a.925.906 8.504 0 1 .865-.626q2.12-.012 6.02.003t6.019.044a.925.906-8.057 0 1 .86.633l17.546 54.2a.575.569 81.353 0 1-.544.747l-12.454-.068a.735.727-8.304 0 1-.697-.514l-2.703-8.331a1.55 1.538-7.399 0 0-1.402-1.071q-1.246-.057-6.803-.079m-5.177-11.668a.9.9-2.017 0 0 .866 1.145h8.31a.9.9-8.078 0 0 .866-1.145l-4.155-14.668a.9.9 23.843 0 0-1.732 0zM683.55 946.22v16.34a.84.83 90 0 1-.83.84h-11.35a.72.71-90 0 1-.71-.72v-53.84a.961.951 89.076 0 1 .92-.96q10.31-.32 19.16-.09c5.58.15 10.4 1.13 14.73 4.82 5.05 4.29 6.13 12.25 5.26 18.4q-1 7.09-6.29 10.94c-6.27 4.57-13.38 3.93-20.51 3.89a.38.38-2.472 0 0-.38.38m-.087-26.982-.026 14.8a.78.78-45 0 0 .779.781l5.31.009a7.89 6.81.1 0 0 7.902-6.796l.004-2.74a7.89 6.81.1 0 0-7.878-6.824l-5.31-.009a.78.78-4.813 0 0-.781.779M982.71 908.35a.67.67 45 0 1 .67-.67h12.13a.83.83 89.651 0 1 .83.82q.26 15.3-.12 41.78-.03 2.34 1.81 2.37 11.02.21 17.39-.19a.917.907-.298 0 1 .97.95l-.4 8.72a1.333 1.331-88.646 0 1-1.33 1.27H983.9a1.2 1.19-90 0 1-1.19-1.2zM1045.005 953.265c5.377-.003 9.634-3.096 9.748-8.805q.357-18.09.067-36.26a.44.44 89.363 0 1 .44-.45h12.06a.54.54-89.479 0 1 .54.55q-.09 5.44.04 31.95.03 7.09-.53 10.48a5.463 5.342 60.736 0 1-.293 1.087c-3.691 9.558-12.084 12.709-22.067 12.713-9.982.005-18.378-3.138-22.078-12.693a5.463 5.342-60.788 0 1-.294-1.087q-.563-3.389-.539-10.479.105-26.51.01-31.95a.54.54 89.427 0 1 .54-.551l12.06-.011a.44.44-89.416 0 1 .44.45q-.273 18.17.101 36.26c.118 5.709 4.378 8.798 9.755 8.796"></path><path fill="#fff" fill-rule="evenodd" d="M744.248 917.417c10.902-.16 13.335 9.259 13.463 17.995.129 8.736-2.026 18.223-12.928 18.383s-13.335-9.259-13.463-17.995c-.129-8.736 2.026-18.223 12.928-18.383M384.319 919.427a1.3 1.3-57.685 0 1 1.29-1.309l6.5-.045a5.66 5.05-.4 0 1 5.695 5.01l.011 1.56a5.66 5.05-.4 0 1-5.624 5.089l-6.5.046a1.3 1.3-57.008 0 1-1.309-1.291zM458.245 919.64a1.56 1.56-53.173 0 1 1.552-1.568l6.05-.032a15.17 15.13 89.7 0 1 15.209 15.09l.028 5.38a15.17 15.13 89.7 0 1-15.05 15.249l-6.05.032a1.56 1.56 44.793 0 1-1.569-1.552zM516.307 919.448a1.57 1.57-68.12 0 1 1.559-1.581l6.099-.042a14.66 14.63 89.6 0 1 14.732 14.557l.045 6.4a14.66 14.63 89.6 0 1-14.527 14.762l-6.1.042a1.57 1.57-44.972 0 1-1.581-1.559zM1091.43 919.41a1.28 1.28-53.17 0 1 1.28-1.28h6.56a5.48 5.19 0 0 1 5.48 5.19v1.08a5.48 5.19 0 0 1-5.48 5.19h-6.56a1.28 1.28-56.248 0 1-1.28-1.28zM683.463 919.238a.78.78 40.235 0 1 .781-.779l5.31.009a7.89 6.81.1 0 1 7.878 6.824l-.004 2.74a7.89 6.81.1 0 1-7.902 6.796l-5.31-.009a.78.78-45 0 1-.779-.781zM793.196 918.857a.54.54 87.709 0 1 .533-.546l6.11-.075a7.55 7.29-.7 0 1 7.638 7.197l.025 2a7.55 7.29-.7 0 1-7.461 7.382l-6.109.075a.54.54 89.667 0 1-.547-.534zM576.299 941.695l4.155-14.668a.9.9 81.291 0 1 1.732 0l4.155 14.668a.9.9 28.393 0 1-.866 1.145h-8.31a.9.9 43.179 0 1-.866-1.145M279.174 942.145l4.144-15.439a.57.57-9.69 0 1 1.097-.013l4.52 15.333a.57.57-57.652 0 1-.539.731l-8.664.105a.57.57-54.634 0 1-.558-.717M384.508 941.699a2.01 2.01-43.603 0 1 2.045-1.975l5.719.1a7.39 5.94 1 0 1 7.285 6.068l-.036 2.1a7.39 5.94 1 0 1-7.493 5.81l-5.719-.1a2.01 2.01-48.889 0 1-1.975-2.045zM1091.661 940.969a1.29 1.29-55.514 0 1 1.318-1.261l7.049.16a6.88 6.12 1.3 0 1 6.739 6.275l-.038 1.679a6.88 6.12 1.3 0 1-7.017 5.963l-7.048-.16a1.29 1.29-64.6 0 1-1.261-1.319z"></path><path fill-rule="evenodd" d="M905.31 1068.38a.49.49 0 0 1-.49.49h-430a.49.49 0 0 1-.49-.49v-5.04a.49.49 0 0 1 .49-.49h430a.49.49 0 0 1 .49.49zM612.67 1226.22h25.21a.64.64-88.717 0 1 .64.67l-.31 6.84a1.152 1.142 1.303 0 1-1.15 1.09h-37.92a.937.928-5.17 0 1-.92-.76q-.52-2.81-.13-5.5a3.088 3.066 71.773 0 1 .85-1.7c5.59-5.69 14.93-14.36 21.64-22.78 3.28-4.11 6.97-9.36 7.49-14.71 1.22-12.51-14.33-11.11-21.31-7.81q-3.63 1.72-5.68 2.66a.748.745 78.677 0 1-1.06-.71l.36-7.69a1.191 1.176 76.836 0 1 .6-.98c6.99-3.88 13.57-4.13 21.54-3.69 8.21.46 14.48 5.81 15.84 13.69 2.62 15.28-16.1 30.79-25.95 40.74a.377.372-67.472 0 0 .26.64M673.434 1170.942q1.672-.005 4.151.188c11.307.878 18.557 9.888 20.651 20.594q.984 5.034 1.005 11.414.021 6.381-.929 11.422c-2.022 10.719-9.212 19.777-20.513 20.731q-2.478.209-4.15.215-1.673.005-4.152-.188c-11.307-.878-18.557-9.888-20.651-20.593q-.983-5.034-1.005-11.415t.929-11.422c2.023-10.719 9.212-19.777 20.513-20.73q2.478-.21 4.151-.216m-15.627 32.061c-.131 10.474 2.05 23.644 15.583 23.814s16.046-12.94 16.178-23.414-2.05-23.644-15.583-23.814-16.046 12.94-16.178 23.414M724.59 1234.75h-8.94a.78.78 36.835 0 1-.78-.78v-51.49a.41.4-90 0 0-.4-.41h-.5a.7.626 29.735 0 0-.28.06l-7.3 3.27a.764.759 77.999 0 1-1.07-.7v-6.01a2.121 2.109 76.392 0 1 1.14-1.88q3.2-1.66 6.1-3.16c4.16-2.15 7.45-1.85 11.56-1.8a.7.7-81.665 0 1 .69.69c.31 13.08.83 22.75.56 35.95q-.26 12.46-.24 25.72a.54.54-45 0 1-.54.54M749.81 1193.43a.716.712-2.06 0 0 .8.74q2.28-.28 7.59-.41c12.89-.31 22.94 9.75 21.17 22.93q-.54 4.02-2.73 8.54c-2.88 5.97-8.29 8.82-14.78 9.87q-12.32 2-22.17-3.27a2.652 2.642 15.464 0 1-1.4-2.46l.33-7.14a.968.963-69.208 0 1 1.57-.71c9.07 7.34 30.29 9.65 29.39-7.81-.82-15.8-19.34-10.84-28.52-8.16a.887.883-6.625 0 1-1.13-.89l1.44-31.17a1.632 1.623 1.286 0 1 1.63-1.55h32.04a.79.79-88.952 0 1 .79.82l-.3 6.35a1.031 1.022 1.158 0 1-1.03.98h-23a1.122 1.121-88.661 0 0-1.12 1.07z"></path><path fill="#fff" fill-rule="evenodd" d="M673.985 1179.589c13.533.17 15.715 13.34 15.583 23.814s-2.645 23.585-16.178 23.414-15.714-13.34-15.583-23.814 2.645-23.585 16.178-23.414" data-source="https://football-logos.cc"></path><!-- source: https://football-logos.cc --></svg>