<svg xmlns="http://www.w3.org/2000/svg" viewBox="24.22 89.74 1203.95 1031.01"><!-- Source: https://football-logos.cc --><path fill="#fff" fill-rule="evenodd" d="M67.49 443.15a.372.371-72.378 0 0-.31-.6q-5.47.24-10.2-2.24c-6.29-3.3-9.96-10.63-9.94-17.32.06-19.8 15.54-32.97 34.77-34.33a.525.525 69.393 0 0 .38-.84q-8.63-11.4-1.41-23.2a.294.289 14 0 0-.27-.44q-7.76.54-13.59 3.87c-7.54 4.3-12.39 13.38-21.99 14.4-12.22 1.3-18.69-7.92-20.24-18.67-1.87-12.99 1.78-26.8 12.91-34.31a.617.611 43.625 0 0-.03-1.03c-10.03-6.15-16.13-19.02-9.15-29.66 5.78-8.82 15.02-9.91 24.98-7.32a.488.486-4.724 0 0 .57-.67c-4.17-9.16-2.31-20.03 7.98-23.72a.621.62-28.949 0 0 .28-.97c-6.66-8.49-13.37-17.32-13.71-27.83-.33-10.49 9.02-18.85 19.71-15.72 7.84 2.29 15.1 7.69 21.07 13.5a.661.659-57.926 0 0 1.08-.25c3.17-8.8 12.36-13.69 21.3-9.95q2.96 1.24 5.45 3a.476.467-72.258 0 0 .74-.39c.14-15.99 10.97-26.43 26.63-27.63 9.13-.7 20.31 3.94 23.13 13.51q.64 2.17 1.18 4.85a.622.618 79.436 0 0 .71.49q.31-.06.7-.26.62-.32.76-.35 12.27-2.51 18.48 8.49 3.46 6.12 6.31 13.56a.477.474-40.829 0 0 .86.06q3.99-7.1 10.86-9.12c7-2.06 12.58 1.53 16.99 6.93 7.6 9.29 13.32 19.85 18.02 29.74q9.14 19.22 16.89 39.18a.36.359-47.414 0 0 .68-.03c1.96-6.58 5.74-12.82 12.5-15.34 4.88-1.81 8.78-1.03 13.25 1.3a.577.575-76.661 0 0 .84-.52q-.13-8.56-.07-25.21c.03-9.27 6.51-17.4 14.6-20.54q3.78-1.47 15.81-1.47 151.83.03 302.51.03a.878.874-80.745 0 0 .83-.6c2.64-7.58 5.04-15.47 7.79-21.95 28.34-66.82 86.96-114.71 157.94-129.51 49.84-10.4 102.62-1.9 147.04 23.62q51.44 29.55 81.27 81.25c21.05 36.48 31.11 79.4 29.16 121.51q-2.83 61.41-35.92 112.67-19.53 30.24-45.35 51.12-3.58 2.9-6.05 5.23a5.123 4.728-9.01 0 0-.9 1.14q-1.89 3.34-3.22 7.26-.82 2.4-.78 7.83.11 16.17 0 27.85-.1 10.34 7.27 13.97 3.12 1.54 14.18 1.85 55.16 1.56 109.47 7.12c39.75 4.06 78.23 11.06 115.49 23.28q7.72 2.53 15.88 6.39c7.32 3.47 13.89 9.27 14.5 17.75.9 12.57-8.06 22.2-19.91 24.41a.553.545-19.121 0 0-.39.79c4.62 8.84 4.59 17.53-2.39 24.68q-5.37 5.51-13.02 6.49a.678.676 77.576 0 0-.56.88q3.06 9.71-2.45 17.78c-4.69 6.85-12.44 9.12-20.35 8.33a.563.563 70.618 0 0-.6.72c3.78 12.78-3.72 23.38-16.2 26.09a.84.839-21.84 0 0-.54 1.26c4.18 6.82 4.88 14.88 0 21.61-5.13 7.06-13.51 9.38-21.99 9.56a.425.424-19.208 0 0-.33.68c4.88 6.54 6.02 15.12 2.08 22.28-9.65 17.53-35 12.36-50.78 7.59-20.98-6.33-40.8-14.89-60.54-24.22q-34.42-16.27-68.11-34.42a.451.449-76.091 0 0-.66.4q-.08 88.99.01 368.96 0 8.22-1.33 12.28c-3.11 9.45-11.03 17.74-21.08 19.97q-3.05.68-11.01.68-259.01.06-532.46.03c-6.25 0-13.01-.15-18.98-1.44q-30.2-6.48-50.34-26.25c-16.93-16.61-29.39-40.78-29.39-64.8q.07-237 .04-395.59a.554.554-18.692 0 0-.89-.44c-9.11 7.03-21.26 6.83-26.15-5.24a.748.748 59.377 0 0-1.17-.3c-4.23 3.42-10.89 6.15-16.33 4.27q-9.38-3.24-12.66-13.09c-6.68-20.06 3.73-45.28 15.86-60.96a.401.4-86.46 0 0-.52-.59c-2.91 1.73-6.81 3.95-9.73 6.18-7.24 5.56-15.87 13.03-25.09 12.07-12.95-1.35-18.59-15.65-14.21-26.71a.448.444 80.835 0 0-.7-.51c-2.82 2.4-7.09 6.79-9 10.7q-2.12 4.35-6.5 11.16c-4.93 7.68-13.73 12.42-22.96 9.26-10.95-3.76-13.07-16.63-12.17-26.94q1.48-16.96 12.22-30.52a.571.566-81.006 0 0-.64-.89c-5.65 2.14-12.12 3.68-18.13.57q-7.33-3.79-8.49-12.07c-.09-.65.06-2.07-.13-2.99a.619.612-9.695 0 0-.7-.49q-.51.09-3.1.71c-14.11 3.41-23.23-9.95-21.51-22.81q.81-6.08 3.4-11.22a.535.534 4.58 0 0-.64-.75q-6.48 2.11-11.71 3.59c-12.14 3.45-27.48 4.09-31.97-11.07-2.12-7.18-.26-14.5 4.28-20.43m236.3 442.18h630.57a.58.58 87.541 0 0 .58-.58V485.99a1.243 1.232-17.348 0 1 .54-1.02c23.16-15.8 44.08-36.97 59.34-60.71q25.59-39.8 31.67-87.5 4.11-32.24-1.66-65.06c-2.91-16.6-8.78-34.37-15.72-49.09-8.67-18.38-20.37-36.46-33.86-51.33-36.11-39.79-88.07-64.63-141.78-65.5q-73.2-1.18-131.22 44.49c-28.28 22.26-50.63 54.3-63.02 87.57q-4.64 12.45-7.9 25.49a.653.633 6.801 0 1-.63.48q-123.37-.02-313.46.01-9.37.01-12.48 6.33-1.58 3.22-1.55 13.92.14 42.35.07 245.68c-.05 138.92.11 266.26 0 355.08a.51.5 0 0 0 .51.5m-53.93-518.55q-3.88-2.5-7.17-5.99c-9.41-9.98-14.94-19.99-22.18-33.5q-4.97-9.29-10.32-20.7c-9.64-20.59-17.85-39.3-29.72-57.57q-4.47-6.89-10.41-12.91a.258.256 23.635 0 0-.44.17c-.26 7.39 1.51 13.46 4.58 20.77 12.55 29.86 20.14 46.63 26.48 69.79a.259.257-79.792 0 1-.4.28c-10.96-8.09-19.81-18.07-27.55-30.43q-12.96-20.68-22.64-44.5-4.44-10.96-10.83-28.13a.814.808-37.534 0 0-1.42-.18l-.65.92a3.027 3.019-36.269 0 0-.42 2.71c10.12 30.83 23.46 60.12 42.21 86.37 3.95 5.53 9.02 11.17 12.43 15.58 5.32 6.86 12.73 13.89 18.77 19.6q26.16 24.72 60.49 35.44a.772.763 8.836 0 1 .54.73c.1 12.14 8.08 21.05 17.01 28.52a.428.427-70.202 0 0 .7-.33v-10.3a4.396 4.275-59.358 0 0-.48-1.99l-2.19-4.24a.53.528 76.516 0 1 .47-.77h1.32a.741.731.796 0 0 .74-.71q.45-16.32-.22-19.96-1.66-9.11-7.43-27.03c-2.44-7.6-7.03-16.06-13.9-21.15a.521.521 18.158 0 0-.83.42q-.01 4.73 1.71 9.72c3.23 9.38 7.24 16.83 12.82 28.22q2.13 4.36 2.31 7.13.19 2.89.43 5.6a.403.403 6.601 0 1-.53.42q-7.56-2.57-13.01-8.94c-8.31-9.7-12.65-19.24-18.37-31.55-6.75-14.52-12.83-32.65-18.59-46.75-6.12-15.01-11.02-25.76-18.66-37.6a.496.496 31.394 0 0-.91.22q-1.25 12.45 2.43 25.12c3.7 12.71 9.27 25.38 16.02 37.82q.12.22 10.13 18.83c4.76 8.83 8.22 20.46 8.17 30.58a.32.317-73.578 0 1-.49.27m-130.77-30.44q-5.17-2.15-18.02-8.17c-9.24-4.34-17.8-7.53-27.72-11.76q-7.01-2.99-23.71-8.45a3.661 3.659-57.408 0 0-3.63.8l-.42.39a1.444 1.44-57.208 0 0 .52 2.42q22.35 7.57 34.07 12.27 18.83 7.56 41.02 20.45 1.03.6 1.61 1.46a.175.174 77.394 0 1-.17.27q-.31-.05-27.18-4.92-14.72-2.66-29.71-1.37c-11.75 1.01-23.44 7.61-23 21.05a.398.394-24.82 0 0 .69.25q9.34-10.2 23.19-13.12 11.03-2.32 20.87-1.95 18.53.71 38.44 7.61 7.92 2.74 14.56 7.19a.488.487-30.551 0 1-.23.89c-9.68.9-20.13 2.52-29.58 6.27q-5.4 2.15-9.41 5.95a.38.375-58.554 0 0 .15.64q6.74 1.92 13.84.58 6.72-1.26 15.96-3.76 11.18-3.03 18.43 5.17a2.064 2.062 43.965 0 1 .05 2.68q-3.87 4.73-9.98 5-8.51.39-15.82 1.1a.783.781 67.748 0 0-.53 1.27q2.93 3.63 7.82 7.44 4.64 3.61 11.1 2.88a.575.573-34.63 0 0 .2-1.08q-4.66-2.41-7.89-5.64a.593.59-24.042 0 1 .39-1.01c8.62-.39 17.49-2.29 25.71-3.2q8.47-.93 10.31-1.41 1.95-.52 7.26-3.02a.238.235 32.769 0 0-.1-.45q-3.13-.04-12.4-.17-4.24-.05-5.85-3.58t-3.02-7.56a.866.865-3.227 0 1 1.01-1.13c14.9 3.37 29.84 9.14 41.78 18.46 7.21 5.63 11.46 11.79 16.29 18.94a.293.292-11.37 0 1-.3.45q-49.26-9.74-99.14-.91-.69.13-1.05.43a.326.323 27.731 0 0 .18.57q17.8 1.71 35.21 8.32 24.08 9.15 41.01 28.24a.302.295 61.65 0 1-.14.49q-8.46 2.25-17.01 1.7-14.84-.96-33.5-2.02-18.95-1.07-36.22 1.98-12.51 2.21-21.45 10.41a.554.553-67.149 0 0 .39.96q2.93-.08 4.3-.41 9.4-2.25 17.48-3.53 10.55-1.68 21.51.41c4.36.83 7.33 2.41 11 4.75a.488.487-52.731 0 1 .1.74c-6.82 7.37-12.82 14.15-14.13 24.2a.492.491-24.789 0 0 .9.33c13.82-21.15 37.44-28.71 61.87-28.29q24.48.42 47.83 7.74a.346.346 80.009 0 1 0 .66q-23.31 7.21-37.81 11.54-8.71 2.6-20.75 7.46-10.46 4.23-17.7 9.73c-3.05 2.33-5.55 5.34-7.99 8.39a.511.505 7.751 0 0 .6.78q13.9-5.81 26.13-10.54 37.13-14.37 71.07-21.93 9.5-2.12 17.62-2.57a.267.266 21.598 0 1 .2.46c-8.02 7.4-16.13 15.68-23.61 25.18q-6.93 8.81-10.88 14.03a2.948 2.945 11.978 0 1-1.71 1.11q-14.33 3.25-27.7 7.41c-17.87 5.55-44.3 20.24-39.26 43.34a.6.595 52.967 0 0 1.11.16q.18-.34 3.72-7.18c4.3-8.3 11.67-15.69 20.48-21.07 12.53-7.65 28.73-12.87 43.39-15.82q19.37-3.88 39.53-7.17c6.11-.99 11.53-2.5 16.96-3.59a.765.764-5.49 0 0 .62-.75V489.9a.526.522 76.517 0 0-.76-.47c-12.81 6.54-27.31 11.22-41.58 13.14a.376.374-72.134 0 1-.32-.63q4.81-5.05 11.99-13.25 4.78-5.45 17.09-15.41 5.25-4.25 12.76-8.15a1.544 1.537-13.611 0 0 .84-1.37v-13.09a.634.631-5.308 0 0-.75-.62l-5.16.99a3.865 3.846 62.951 0 1-3.52-1.15l-10.91-11.68a.578.576-14.114 0 1 .57-.95l19.3 4.98a.428.423 6.965 0 0 .53-.41v-11.67a2.168 2.154 18.501 0 0-.87-1.73c-2.95-2.2-4.89-3.65-7.87-6.57q-15.1-14.82-23.01-21.47-13.58-11.41-30.68-19.12c-16.18-7.3-32.25-11.85-49.87-16.59q-9.17-2.47-15.57-3.27a.807.795 83.218 0 1-.65-.52c-3.69-10.38-11.24-17.48-19.09-26.19q-5.31-5.88-14.32-19.75-6.23-9.6-19.74-30.44-9.51-14.69-15.34-21.19c-7.02-7.82-12.23-13.31-20.05-18.02a.395.395 2.671 0 0-.56.51q1.68 3.43 3.78 6.86 5.47 8.89 18.33 27.91 2.99 4.44 12.23 19.63c1.73 2.84 3.15 6.02 4.92 9.52q.13.28.06.78a.303.302-70.419 0 1-.46.22c-4.04-2.5-8.3-4.76-12.27-8.36-6.95-6.31-14.74-13.21-23.74-17.09a.704.698 83.027 0 0-.83 1.07q5.61 7.49 14.37 16.2c9.94 9.87 16.74 17.29 25.16 25.91q2.13 2.18 6.6 7.36a.329.327 80.621 0 1-.37.52m73.06 19.98q.05-.28-.21-.49t-.3-.26q-17.41-20.73-29.92-40.49-19.41-30.65-30.44-46.09-9.07-12.69-19.23-21.97a.591.588-75.319 0 0-.97.57q2.45 10.77 6.97 20.89c9.98 22.31 21.09 41.85 36.74 59.74q5.7 6.52 9.72 9.96c8.52 7.27 17.08 13.99 27.3 18.33a.248.248-74.183 0 0 .34-.19m88.69-44.42c.22 9.04 3.82 18.65 7.53 27.32a.363.358-56.918 0 0 .69-.15v-18.06a3.398 3.383 23.499 0 0-.92-2.32l-6.6-7.07a.407.401 22.767 0 0-.7.28m-194.3 94.37q-4.97-.2-10.21 1.6-8.74 3.01-9.72 12.63a.568.564 78.807 0 0 .83.56c2.08-1.14 4.86-2.68 6.58-4.33 4.01-3.84 7.98-7.37 12.68-9.72a.392.391-57.258 0 0-.16-.74M215.7 551.85q4.26-3.26 7.73-5.92 14.4-11.06 33.33-15.2 15.24-3.32 31.29.2a.695.694-83.959 0 0 .84-.68v-13.54a.835.832 2.235 0 0-.77-.83c-20.13-1.66-41.28 3.1-57.66 15.06q-10.57 7.71-15.44 20.4a.441.441 81.851 0 0 .68.51m73.42-11.75a.739.733 68.866 0 0-1.23-.55c-13.77 12.63-26.27 26.57-34.99 43.06q-6.37 12.05-5.84 25.3a.511.508-34.961 0 0 .98.17c.79-1.88 1.51-4.06 2.35-5.73q12.79-25.53 32.58-47.41 1.6-1.77 4.94-4.92a3.894 3.864-21.924 0 0 1.21-2.81zm918.75 66.02c-6.3-3.12-14.74-6.47-22.14-8.61-45.36-13.08-92.77-20.71-139.48-26.3q-30.7-3.67-46.01-5.1-28.99-2.69-49.49-4.75a.421.413-87.506 0 0-.45.42v8.84a.45.45-45 0 0 .45.45q31.95-.4 65.54 5.11c49.38 8.09 84.25 16.27 146.48 30.01 12.84 2.83 26.02 5.67 38.1 3.87q4.29-.64 7.11-3.09a.517.514-52.499 0 0-.11-.85m-939.28 8.95a.42.416 74.323 0 0 .67.38q1.49-1.15 2.12-2.07 3.28-4.75 6.79-9.69c2.95-4.16 6.1-7.14 10.03-10.1a1.834 1.818-18.834 0 0 .72-1.45v-10.87a.404.403 82.342 0 0-.51-.39q-.31.08-.63.4-6.27 6.44-12.08 14.87-5.98 8.66-7.11 18.92m681.79-23.17a.31.31 1.977 0 0 .29.31q22.66 1.37 45.82 5.58 27.3 4.96 45.43 8.87 35.38 7.63 75.67 17.44c19.7 4.79 43.01 11.57 58.99 16.2 5.18 1.5 9.46 2.08 13.95.02a2.059 2.05 69.874 0 0 1.12-2.43c-1.25-4.38-11.32-7.93-15.81-9.47-29.73-10.22-57.58-17.09-88.78-24.06q-35.02-7.82-75.02-13.63-14.66-2.13-61.47-8.63a.171.164-85.69 0 0-.19.17zm-.21 12.57v9.65a.745.738-87.002 0 0 .66.74q8.51 1 13.03 1.81c59.04 10.47 114.61 26.42 178.97 45q8.31 2.4 17.37 4.65c3.78.94 11.8 2.57 13.96-1.04a1.153 1.126-39.005 0 0 .11-.94c-1.33-4.23-6.32-7.48-10-9.11-12.72-5.64-27.91-9.35-41.72-12.75q-62.53-15.39-137.12-30.91-19.99-4.16-34.59-7.63a.545.544-83.296 0 0-.67.53m.18 25.21v9.41a.51.507-84.51 0 0 .41.5c27.47 5.75 52.36 12.48 81.28 20.66q28.35 8.02 62.49 20.23 8.2 2.93 31.21 12.03c7.93 3.14 13.92 4.65 21.21 2.93q1.8-.42 3.21-1.64a.843.841-30.893 0 0 .24-.95c-1.99-5.09-6.62-6.61-11.77-8.69q-9.63-3.9-17.02-6.43-32.93-11.28-67.08-21.45-41.07-12.24-93.53-24.73-9.44-2.25-10.12-2.34a.473.469-86.276 0 0-.53.47m184.26 94.63q-3.08-3.68-7.27-6.15c-16.6-9.76-35.38-17.4-53.47-24.84q-7.22-2.97-12.11-4.64c-11.34-3.86-20.29-7.33-30.69-10.47-31.41-9.46-49.03-14.36-80.7-22.94a.142.137 8.058 0 0-.18.13v9.47a.362.36-82.761 0 0 .27.35q9.58 2.46 19.01 5.5c19.39 6.27 38.46 11.98 58.74 18.57 18.73 6.09 34.04 13.38 53.99 22.49q18.29 8.34 25.83 10.91c8.53 2.9 17.47 5.59 26.01 3.41a1.112 1.104 62.868 0 0 .57-1.79m-183.77-41.14a.5.496-79.842 0 0-.67.47v11.53a1.56 1.554 12.551 0 0 .9 1.41c29.58 13.52 64.87 31.23 89.7 42.62 19.78 9.07 32.78 15.07 49.66 20.13 6.99 2.09 15.52 3.64 22.64 1.1a.72.718-32.749 0 0 .26-1.19c-2.1-2.06-4.35-4.01-6.7-5.54q-13.51-8.78-32.26-18.06c-40.24-19.91-81.49-36.74-123.53-52.47m-572.93 222.4h-74.22a.39.38 90 0 0-.38.39q.11 86.76-.04 104.69-.13 16.41 1.39 23.62c6.81 32.38 29.57 57.26 61.46 65.59q6.49 1.69 11.56 2.05a.591.584-87.76 0 0 .63-.59V1059a1.239 1.227-77.655 0 0-.71-1.12c-26.94-12.22-26.19-46.22.12-58.64a1.047 1.045-12.351 0 0 .61-.95v-92.31a.42.41 0 0 0-.42-.41m30.3.77v91.42a.718.704-80.064 0 0 .46.67q16.17 5.98 21.23 21.41c5.03 15.34-4.41 32.35-19.05 37.76q-1.94.72-2.1.74a.685.677-4.463 0 0-.58.67v42.12a.9.9-70.206 0 0 .9.9q306.98-.09 501.66.01 11.52.01 14.32-1.29 6.65-3.06 9.13-10.88c.65-2.07.57-5.34.56-7.62q-.05-44.2-.02-175.81a.88.88-45 0 0-.88-.88H408.99a.78.78 70.764 0 0-.78.78" data-source="https://football-logos.cc"></path><path fill="#e21119" fill-rule="evenodd" d="M303.79 885.33a.51.5 0 0 1-.51-.5c.11-88.82-.05-216.16 0-355.08q.07-203.33-.07-245.68-.03-10.7 1.55-13.92 3.11-6.32 12.48-6.33 190.09-.03 313.46-.01a.653.633 6.801 0 0 .63-.48q3.26-13.04 7.9-25.49c12.39-33.27 34.74-65.31 63.02-87.57q58.02-45.67 131.22-44.49c53.71.87 105.67 25.71 141.78 65.5 13.49 14.87 25.19 32.95 33.86 51.33 6.94 14.72 12.81 32.49 15.72 49.09q5.77 32.82 1.66 65.06-6.08 47.7-31.67 87.5c-15.26 23.74-36.18 44.91-59.34 60.71a1.243 1.232-17.348 0 0-.54 1.02v398.76a.58.58-54.463 0 1-.58.58zM949.11 159.4a.628.625 66.866 0 0 .43-1.08q-3.23-3.1-7.05-6.05-24.64-19-54.48-28.99-18.3-6.13-37.35-7.59a.4.399-16.358 0 0-.35.64c3.11 4.09 8.97 12.72 11.86 13.55q35.01 10.15 65.92 28.79a5.019 4.987 60.502 0 0 2.6.73zm-147.87 17.11 11.03 57.95a.894.874-85.884 0 0 .55.65l75.17 29.44a1.735 1.723 39.253 0 0 1.54-.15c13.97-8.97 27.23-18.81 40.98-28.39q1.93-1.34 2.76-2.54a1.688 1.588-28.709 0 0 .29-.89q.65-21.77-2.96-43.16-2.07-12.26-6.02-23.34a3.689 3.647 6.332 0 0-1.53-1.89q-22.48-13.94-47.84-22.62-8.47-2.9-16.89-4.67a4.257 4.168-45.603 0 0-1.9.04q-3.99 1.02-8.77 3.47-26.23 13.49-46.18 35.29a.942.928-29.565 0 0-.23.81m-152.43 64.1q1.9.17 4.25-.57 4.16-1.31 12.51-4.73a1.733 1.67-84.481 0 0 .83-.71c5.59-9.21 11.64-18.96 18.26-28.49 7.4-10.67 14.72-21.74 22.59-32.27a.988.978-48.868 0 0-.08-1.28q-3.89-4-9.87-5.38a1.19 1.19-59.286 0 0-1.06.27c-19.45 17.5-34.16 39.11-45.21 64.35q-1.93 4.39-2.77 8.05a.624.619-81.116 0 0 .55.76m144.18-63.02q-21.54-6.33-44-6.14-17.04.15-28.75 3.03c-3.74.92-4.3.54-6.53 3.5-14.68 19.51-28.54 39.51-41.01 60.38a2.519 2.47-25.002 0 0-.33.88q-.27 1.6.02 3.3 5.37 30.96 20.33 58.54 1.95 3.6 2.4 3.88a2.045 2.019 60.43 0 0 .99.28l58.39.04a2.447 2.437 17.866 0 0 1.98-1.01l48.15-67.36a1.827 1.795 57.614 0 0 .3-1.4l-10.78-56.65a1.647 1.644 2.641 0 0-1.16-1.27m143.34 63.37-43.42 30.21a.919.911 74.704 0 0-.39.69l-6.13 83.96a2.261 2.255-64.716 0 0 .61 1.71q3.96 4.15 8.14 8.08 16 15.05 32.24 29.6a1.708 1.694 52.98 0 0 1.87.27c20.64-9.8 39.61-23.23 56.79-38.57a5.284 5.262-17.372 0 0 1.71-3.25c.94-7.16 2.72-14.41 3.4-21.31q1.81-18.36 2.02-31.84.09-5.51-.5-12.1a3.417 3.36 24.714 0 0-.66-1.74q-3.75-4.97-8.32-9.84-14.88-15.84-32.94-28.23-8.06-5.53-13.21-7.76a1.273 1.265 39.141 0 0-1.21.12m76.42 23.4q-6.6 10.07-11.87 22.93a3.088 2.91 57.918 0 0-.23 1.16q.28 33.41-5.48 66.98-.26 1.52.44 3.45 4.38 12.27 8.14 19.63.81 1.59 1.78 2.69a.698.696 35.731 0 0 1.17-.19c5.49-13.38 7.99-24.34 11.24-41.03q1.29-6.62 2.14-28.48c.52-13.34-1.54-27.41-4.07-41.26q-.6-3.33-2.38-5.89a.534.532 44.23 0 0-.88.01M796.98 380.38a1.39 1.38 38.208 0 0-.14-1.14l-40.93-66.11a1.326 1.321 73.854 0 0-1.12-.62h-57.61a3.415 3.411 14.751 0 0-2.97 1.73q-6.38 11.29-11.75 24.17-7.34 17.59-9.96 34.33-.72 4.6.84 7.69 15.44 30.58 38.95 55.16a5.613 5.571-14.016 0 0 2.57 1.53q31.66 8.63 63.42 1.34a1.78 1.763-87.891 0 0 1.29-1.21zm85.32-16.7a1.682 1.665-30.039 0 0-1.49-.39q-38.24 8.6-76.51 19.34a.682.675-89.101 0 0-.46.45l-17.28 56.45a1.619 1.601 37.92 0 0 .17 1.31q2.94 4.75 6.42 9.02 15.85 19.4 35.24 30.96 3.7 2.2 7.45 3.71a7.027 6.916 53.701 0 0 3.04.49q35.69-2.26 66.21-20.88 2.3-1.4 3.34-3.68 12.61-27.5 15.18-57.88a1.94 1.927-66.489 0 0-.62-1.59zm-174.2 95.3q.48-1.32.51-2.73.14-6.31-1.44-14.93a2.876 2.81 18.931 0 0-.7-1.39c-15.48-16.77-27.76-34.94-38.96-54.96a2.201 2.178-4.382 0 0-1.19-1.01q-4.14-1.45-8.73-1.35a2.887 2.796 30.845 0 0-1.19.28l-2.53 1.19a.851.847-24.214 0 0-.42 1.1q9.29 21.94 23.66 41.64c5.13 7.03 12.16 14.86 16.12 19.21q5.53 6.06 14.26 13.12a.39.385-60.19 0 0 .61-.17m226.45 14.73q-3.85-1.72-7.85-2.35-3.47-.54-14.43-1.96a2.209 2.191-56.311 0 0-1.37.28q-25.6 14.89-54.26 20.47-2.77.54-15.53 2.56a3.66 3.654 20.343 0 0-1.79.82q-6.45 5.54-11.34 11.89a.534.528 38.406 0 0 .09.74q1.74 1.39 3.93 1.4c34.87.1 68.7-9.72 97.55-29.25q2.6-1.77 5.09-3.98a.375.368-53.813 0 0-.09-.62M882 522.85q-88.2.1-102.97.18-8.91.04-13.51.78c-16.25 2.59-27.84 14.26-31.07 30.26q-.78 3.86-.77 14.4.06 47.48.02 270.9a.42.42-45 0 0 .42.42h54.84a.77.77 0 0 0 .77-.77V704.97a.57.56 0 0 1 .57-.56h56.94a.69.68-90 0 0 .68-.69v-55.01a.76.76 0 0 0-.76-.76h-56.89a.54.53 0 0 1-.54-.53v-69.21a.56.55-90 0 1 .55-.56h91.87a.47.47-45 0 0 .47-.47v-53.7a.63.62-90 0 0-.62-.63M617.82 652.42v54.99a.58.57 90 0 0 .57.58h30.31a.54.54 45 0 1 .54.54q-.04 23.16.01 35.18c.04 9.07-1.01 16.44-5.61 23.89-5.99 9.7-18.02 14.69-28.92 12.21q-16.83-3.83-21.91-20.36-1.83-5.98-1.84-10.7-.04-74.75 0-134.25c.01-18.65 13.04-34.49 32.82-32.77q8.11.71 14.8 6.11 11.97 9.68 11.43 27.25a.701.7-89.204 0 0 .7.72h53.96a.38.38-88.408 0 0 .38-.36c1.55-25.84-6.04-49.67-25.12-67.61-31.92-30.01-82.41-30.79-115.81-1.93q-22.33 19.29-27.82 49.34-1.48 8.1-1.47 24.59.1 107.84.04 129.11c-.05 16.79 1.11 30.2 6.62 43.36 11.64 27.79 35.94 46.38 66.23 49.11 14.24 1.28 29.18-.35 41.75-6.8a.436.434 76.606 0 1 .63.39v4.66a.43.43-44.985 0 0 .43.43h53.92a.62.62 45 0 0 .62-.62q-.04-124.55-.01-146.48.02-8.05-.84-12.72c-2.4-13.02-10.8-23.21-23.52-26.97q-3.94-1.17-6.72-1.19-21-.16-55.78-.1a.4.39 90 0 0-.39.4M512.67 779.73h-94.54a.55.55-57.194 0 1-.55-.55V534.99a.47.46 90 0 0-.46-.47h-55.61a.74.74 45 0 0-.74.74q.06 214.97 0 267.64-.01 7.9.77 11.62c2.47 11.68 9.69 21.37 21.1 25.05q4.66 1.5 15.95 1.44 40.89-.19 114.33-.43a.45.45 45 0 0 .45-.45v-59.69a.71.7 90 0 0-.7-.71"></path><path fill="#fff" fill-rule="evenodd" d="M949.11 159.4h-18.42a5.019 4.987 60.502 0 1-2.6-.73q-30.91-18.64-65.92-28.79c-2.89-.83-8.75-9.46-11.86-13.55a.4.399-16.358 0 1 .35-.64q19.05 1.46 37.35 7.59 29.84 9.99 54.48 28.99 3.82 2.95 7.05 6.05a.628.625 66.866 0 1-.43 1.08M801.24 176.51a.942.928-29.565 0 1 .23-.81q19.95-21.8 46.18-35.29 4.78-2.45 8.77-3.47a4.257 4.168-45.603 0 1 1.9-.04q8.42 1.77 16.89 4.67 25.36 8.68 47.84 22.62a3.689 3.647 6.332 0 1 1.53 1.89q3.95 11.08 6.02 23.34 3.61 21.39 2.96 43.16a1.688 1.588-28.709 0 1-.29.89q-.83 1.2-2.76 2.54c-13.75 9.58-27.01 19.42-40.98 28.39a1.735 1.723 39.253 0 1-1.54.15l-75.17-29.44a.894.874-85.884 0 1-.55-.65zM648.81 240.61a.624.619-81.116 0 1-.55-.76q.84-3.66 2.77-8.05c11.05-25.24 25.76-46.85 45.21-64.35a1.19 1.19-59.286 0 1 1.06-.27q5.98 1.38 9.87 5.38a.988.978-48.868 0 1 .08 1.28c-7.87 10.53-15.19 21.6-22.59 32.27-6.62 9.53-12.67 19.28-18.26 28.49a1.733 1.67-84.481 0 1-.83.71q-8.35 3.42-12.51 4.73-2.35.74-4.25.57M792.99 177.59a1.647 1.644 2.641 0 1 1.16 1.27l10.78 56.65a1.827 1.795 57.614 0 1-.3 1.4l-48.15 67.36a2.447 2.437 17.866 0 1-1.98 1.01l-58.39-.04a2.045 2.019 60.43 0 1-.99-.28q-.45-.28-2.4-3.88-14.96-27.58-20.33-58.54-.29-1.7-.02-3.3a2.519 2.47-25.002 0 1 .33-.88c12.47-20.87 26.33-40.87 41.01-60.38 2.23-2.96 2.79-2.58 6.53-3.5q11.71-2.88 28.75-3.03 22.46-.19 44 6.14"></path><path fill="#267e2a" fill-rule="evenodd" d="M249.86 366.78a.32.317-73.578 0 0 .49-.27c.05-10.12-3.41-21.75-8.17-30.58q-10.01-18.61-10.13-18.83c-6.75-12.44-12.32-25.11-16.02-37.82q-3.68-12.67-2.43-25.12a.496.496 31.394 0 1 .91-.22c7.64 11.84 12.54 22.59 18.66 37.6 5.76 14.1 11.84 32.23 18.59 46.75 5.72 12.31 10.06 21.85 18.37 31.55q5.45 6.37 13.01 8.94a.403.403 6.601 0 0 .53-.42q-.24-2.71-.43-5.6-.18-2.77-2.31-7.13c-5.58-11.39-9.59-18.84-12.82-28.22q-1.72-4.99-1.71-9.72a.521.521 18.158 0 1 .83-.42c6.87 5.09 11.46 13.55 13.9 21.15q5.77 17.92 7.43 27.03.67 3.64.22 19.96a.741.731.796 0 1-.74.71h-1.32a.53.528 76.516 0 0-.47.77l2.19 4.24a4.396 4.275-59.358 0 1 .48 1.99v10.3a.428.427-70.202 0 1-.7.33c-8.93-7.47-16.91-16.38-17.01-28.52a.772.763 8.836 0 0-.54-.73q-34.33-10.72-60.49-35.44c-6.04-5.71-13.45-12.74-18.77-19.6-3.41-4.41-8.48-10.05-12.43-15.58-18.75-26.25-32.09-55.54-42.21-86.37a3.027 3.019-36.269 0 1 .42-2.71l.65-.92a.814.808-37.534 0 1 1.42.18q6.39 17.17 10.83 28.13 9.68 23.82 22.64 44.5c7.74 12.36 16.59 22.34 27.55 30.43a.259.257-79.792 0 0 .4-.28c-6.34-23.16-13.93-39.93-26.48-69.79-3.07-7.31-4.84-13.38-4.58-20.77a.258.256 23.635 0 1 .44-.17q5.94 6.02 10.41 12.91c11.87 18.27 20.08 36.98 29.72 57.57q5.35 11.41 10.32 20.7c7.24 13.51 12.77 23.52 22.18 33.5q3.29 3.49 7.17 5.99"></path><path fill="#fff" fill-rule="evenodd" d="M937.54 240.84q5.15 2.23 13.21 7.76 18.06 12.39 32.94 28.23 4.57 4.87 8.32 9.84a3.417 3.36 24.714 0 1 .66 1.74q.59 6.59.5 12.1-.21 13.48-2.02 31.84c-.68 6.9-2.46 14.15-3.4 21.31a5.284 5.262-17.372 0 1-1.71 3.25c-17.18 15.34-36.15 28.77-56.79 38.57a1.708 1.694 52.98 0 1-1.87-.27q-16.24-14.55-32.24-29.6-4.18-3.93-8.14-8.08a2.261 2.255-64.716 0 1-.61-1.71l6.13-83.96a.919.911 74.704 0 1 .39-.69l43.42-30.21a1.273 1.265 39.141 0 1 1.21-.12"></path><path fill="#267e2a" fill-rule="evenodd" d="M119.09 336.34a.329.327 80.621 0 0 .37-.52q-4.47-5.18-6.6-7.36c-8.42-8.62-15.22-16.04-25.16-25.91q-8.76-8.71-14.37-16.2a.704.698 83.027 0 1 .83-1.07c9 3.88 16.79 10.78 23.74 17.09 3.97 3.6 8.23 5.86 12.27 8.36a.303.302-70.419 0 0 .46-.22q.07-.5-.06-.78c-1.77-3.5-3.19-6.68-4.92-9.52q-9.24-15.19-12.23-19.63-12.86-19.02-18.33-27.91-2.1-3.43-3.78-6.86a.395.395 2.671 0 1 .56-.51c7.82 4.71 13.03 10.2 20.05 18.02q5.83 6.5 15.34 21.19 13.51 20.84 19.74 30.44 9.01 13.87 14.32 19.75c7.85 8.71 15.4 15.81 19.09 26.19a.807.795 83.218 0 0 .65.52q6.4.8 15.57 3.27c17.62 4.74 33.69 9.29 49.87 16.59q17.1 7.71 30.68 19.12 7.91 6.65 23.01 21.47c2.98 2.92 4.92 4.37 7.87 6.57a2.168 2.154 18.501 0 1 .87 1.73v11.67a.428.423 6.965 0 1-.53.41l-19.3-4.98a.578.576-14.114 0 0-.57.95l10.91 11.68a3.865 3.846 62.951 0 0 3.52 1.15l5.16-.99a.634.631-5.308 0 1 .75.62v13.09a1.544 1.537-13.611 0 1-.84 1.37q-7.51 3.9-12.76 8.15-12.31 9.96-17.09 15.41-7.18 8.2-11.99 13.25a.376.374-72.134 0 0 .32.63c14.27-1.92 28.77-6.6 41.58-13.14a.526.522 76.517 0 1 .76.47v12.31a.765.764-5.49 0 1-.62.75c-5.43 1.09-10.85 2.6-16.96 3.59q-20.16 3.29-39.53 7.17c-14.66 2.95-30.86 8.17-43.39 15.82-8.81 5.38-16.18 12.77-20.48 21.07q-3.54 6.84-3.72 7.18a.6.595 52.967 0 1-1.11-.16c-5.04-23.1 21.39-37.79 39.26-43.34q13.37-4.16 27.7-7.41a2.948 2.945 11.978 0 0 1.71-1.11q3.95-5.22 10.88-14.03c7.48-9.5 15.59-17.78 23.61-25.18a.267.266 21.598 0 0-.2-.46q-8.12.45-17.62 2.57-33.94 7.56-71.07 21.93-12.23 4.73-26.13 10.54a.511.505 7.751 0 1-.6-.78c2.44-3.05 4.94-6.06 7.99-8.39q7.24-5.5 17.7-9.73 12.04-4.86 20.75-7.46 14.5-4.33 37.81-11.54a.346.346 28.095 0 0 0-.66q-23.35-7.32-47.83-7.74c-24.43-.42-48.05 7.14-61.87 28.29a.492.491-24.789 0 1-.9-.33c1.31-10.05 7.31-16.83 14.13-24.2a.488.487-52.731 0 0-.1-.74c-3.67-2.34-6.64-3.92-11-4.75q-10.96-2.09-21.51-.41-8.08 1.28-17.48 3.53-1.37.33-4.3.41a.554.553-67.149 0 1-.39-.96q8.94-8.2 21.45-10.41 17.27-3.05 36.22-1.98 18.66 1.06 33.5 2.02 8.55.55 17.01-1.7a.302.295 61.65 0 0 .14-.49q-16.93-19.09-41.01-28.24-17.41-6.61-35.21-8.32a.326.323 27.731 0 1-.18-.57q.36-.3 1.05-.43 49.88-8.83 99.14.91a.293.292-11.37 0 0 .3-.45c-4.83-7.15-9.08-13.31-16.29-18.94-11.94-9.32-26.88-15.09-41.78-18.46a.866.865-3.227 0 0-1.01 1.13q1.41 4.03 3.02 7.56t5.85 3.58q9.27.13 12.4.17a.238.235 32.769 0 1 .1.45q-5.31 2.5-7.26 3.02-1.84.48-10.31 1.41c-8.22.91-17.09 2.81-25.71 3.2a.593.59-24.042 0 0-.39 1.01q3.23 3.23 7.89 5.64a.575.573-34.63 0 1-.2 1.08q-6.46.73-11.1-2.88-4.89-3.81-7.82-7.44a.783.781 67.748 0 1 .53-1.27q7.31-.71 15.82-1.1 6.11-.27 9.98-5a2.064 2.062 43.965 0 0-.05-2.68q-7.25-8.2-18.43-5.17-9.24 2.5-15.96 3.76-7.1 1.34-13.84-.58a.38.375-58.554 0 1-.15-.64q4.01-3.8 9.41-5.95c9.45-3.75 19.9-5.37 29.58-6.27a.488.487-30.551 0 0 .23-.89q-6.64-4.45-14.56-7.19-19.91-6.9-38.44-7.61-9.84-.37-20.87 1.95-13.85 2.92-23.19 13.12a.398.394-24.82 0 1-.69-.25c-.44-13.44 11.25-20.04 23-21.05q14.99-1.29 29.71 1.37 26.87 4.87 27.18 4.92a.175.174 77.394 0 0 .17-.27q-.58-.86-1.61-1.46-22.19-12.89-41.02-20.45-11.72-4.7-34.07-12.27a1.444 1.44-57.208 0 1-.52-2.42l.42-.39a3.661 3.659-57.408 0 1 3.63-.8q16.7 5.46 23.71 8.45c9.92 4.23 18.48 7.42 27.72 11.76q12.85 6.02 18.02 8.17m104.13 60.75c4.73 5.82 9.85 10.76 10.86 17.97a.657.65 86.793 0 0 .62.56q6.56.19 12.46-1.17a.367.365 71.759 0 0 .25-.5c-4.43-10.25-12.09-17.66-23.98-17.33a.29.286 69.445 0 0-.21.47m-47.05 21.82q5.05 4.59 11.14 9.81c4.78 4.11 8.48 8.21 13.74 2.89q4.76-4.82 7.64-8.07a.47.468 28.297 0 0-.23-.76q-7.32-2.04-16.37-3.82c-5.23-1.03-10.94-.87-15.76-.5a.26.259-25.592 0 0-.16.45m38.68 24.76q12.61 2.93 26.63 3.73 8.15.47 15.49-2.68a.375.373-30.334 0 0 .15-.57c-5.94-7.93-14.25-13.67-23.04-16.33q-6.19-1.88-13.43-.4a.485.48 67.103 0 0-.3.75l5.22 7.5a.744.74-27.347 0 1-.36 1.12q-6.03 2.25-10.55 6.06a.474.468-58.417 0 0 .19.82"></path><path fill="#267e2a" fill-rule="evenodd" d="M192.15 356.32a.248.248-74.183 0 1-.34.19c-10.22-4.34-18.78-11.06-27.3-18.33q-4.02-3.44-9.72-9.96c-15.65-17.89-26.76-37.43-36.74-59.74q-4.52-10.12-6.97-20.89a.591.588-75.319 0 1 .97-.57q10.16 9.28 19.23 21.97 11.03 15.44 30.44 46.09 12.51 19.76 29.92 40.49.04.05.3.26t.21.49"></path><path fill="#fff" fill-rule="evenodd" d="M1012.75 264.36a.534.532 44.23 0 1 .88-.01q1.78 2.56 2.38 5.89c2.53 13.85 4.59 27.92 4.07 41.26q-.85 21.86-2.14 28.48c-3.25 16.69-5.75 27.65-11.24 41.03a.698.696 35.731 0 1-1.17.19q-.97-1.1-1.78-2.69-3.76-7.36-8.14-19.63-.7-1.93-.44-3.45 5.76-33.57 5.48-66.98a3.088 2.91 57.918 0 1 .23-1.16q5.27-12.86 11.87-22.93"></path><path fill="#267e2a" fill-rule="evenodd" d="M280.84 311.9a.407.401 22.767 0 1 .7-.28l6.6 7.07a3.398 3.383 23.499 0 1 .92 2.32v18.06a.363.358-56.918 0 1-.69.15c-3.71-8.67-7.31-18.28-7.53-27.32"></path><path fill="#fff" fill-rule="evenodd" d="m796.98 380.38-17.41 56.87a1.78 1.763-87.891 0 1-1.29 1.21q-31.76 7.29-63.42-1.34a5.613 5.571-14.016 0 1-2.57-1.53q-23.51-24.58-38.95-55.16-1.56-3.09-.84-7.69 2.62-16.74 9.96-34.33 5.37-12.88 11.75-24.17a3.415 3.411 14.751 0 1 2.97-1.73h57.61a1.326 1.321 73.854 0 1 1.12.62l40.93 66.11a1.39 1.38 38.208 0 1 .14 1.14M882.3 363.68l40.69 37.31a1.94 1.927-66.489 0 1 .62 1.59q-2.57 30.38-15.18 57.88-1.04 2.28-3.34 3.68-30.52 18.62-66.21 20.88a7.027 6.916 53.701 0 1-3.04-.49q-3.75-1.51-7.45-3.71-19.39-11.56-35.24-30.96-3.48-4.27-6.42-9.02a1.619 1.601 37.92 0 1-.17-1.31l17.28-56.45a.682.675-89.101 0 1 .46-.45q38.27-10.74 76.51-19.34a1.682 1.665-30.039 0 1 1.49.39M708.1 458.98a.39.385-60.19 0 1-.61.17q-8.73-7.06-14.26-13.12c-3.96-4.35-10.99-12.18-16.12-19.21q-14.37-19.7-23.66-41.64a.851.847-24.214 0 1 .42-1.1l2.53-1.19a2.887 2.796 30.845 0 1 1.19-.28q4.59-.1 8.73 1.35a2.201 2.178-4.382 0 1 1.19 1.01c11.2 20.02 23.48 38.19 38.96 54.96a2.876 2.81 18.931 0 1 .7 1.39q1.58 8.62 1.44 14.93-.03 1.41-.51 2.73M223.22 397.09a.29.286 69.445 0 1 .21-.47c11.89-.33 19.55 7.08 23.98 17.33a.367.365 71.759 0 1-.25.5q-5.9 1.36-12.46 1.17a.657.65 86.793 0 1-.62-.56c-1.01-7.21-6.13-12.15-10.86-17.97" data-source="https://football-logos.cc"></path><path fill="#267e2a" fill-rule="evenodd" d="M86.54 406.27a.392.391-57.258 0 1 .16.74c-4.7 2.35-8.67 5.88-12.68 9.72-1.72 1.65-4.5 3.19-6.58 4.33a.568.564 78.807 0 1-.83-.56q.98-9.62 9.72-12.63 5.24-1.8 10.21-1.6"></path><path fill="#fff" fill-rule="evenodd" d="M176.17 418.91a.26.259-25.592 0 1 .16-.45c4.82-.37 10.53-.53 15.76.5q9.05 1.78 16.37 3.82a.47.468 28.297 0 1 .23.76q-2.88 3.25-7.64 8.07c-5.26 5.32-8.96 1.22-13.74-2.89q-6.09-5.22-11.14-9.81M214.85 443.67a.474.468-58.417 0 1-.19-.82q4.52-3.81 10.55-6.06a.744.74-27.347 0 0 .36-1.12l-5.22-7.5a.485.48 67.103 0 1 .3-.75q7.24-1.48 13.43.4c8.79 2.66 17.1 8.4 23.04 16.33a.375.373-30.334 0 1-.15.57q-7.34 3.15-15.49 2.68-14.02-.8-26.63-3.73M934.55 473.71a.375.368-53.813 0 1 .09.62q-2.49 2.21-5.09 3.98c-28.85 19.53-62.68 29.35-97.55 29.25q-2.19-.01-3.93-1.4a.534.528 38.406 0 1-.09-.74q4.89-6.35 11.34-11.89a3.66 3.654 20.343 0 1 1.79-.82q12.76-2.02 15.53-2.56 28.66-5.58 54.26-20.47a2.209 2.191-56.311 0 1 1.37-.28q10.96 1.42 14.43 1.96 4 .63 7.85 2.35"></path><path fill="#267e2a" fill-rule="evenodd" d="M215.7 551.85a.441.441 81.851 0 1-.68-.51q4.87-12.69 15.44-20.4c16.38-11.96 37.53-16.72 57.66-15.06a.835.832 2.235 0 1 .77.83v13.54a.695.694-83.959 0 1-.84.68q-16.05-3.52-31.29-.2-18.93 4.14-33.33 15.2-3.47 2.66-7.73 5.92"></path><path fill="#feda04" fill-rule="evenodd" d="M882.62 523.48v53.7a.47.47 45 0 1-.47.47h-91.87a.56.55 90 0 0-.55.56v69.21a.54.53 0 0 0 .54.53h56.89a.76.76 45 0 1 .76.76v55.01a.69.68 90 0 1-.68.69H790.3a.57.56 0 0 0-.57.56v134.05a.77.77-45 0 1-.77.77h-54.84a.42.42-45 0 1-.42-.42q.04-223.42-.02-270.9-.01-10.54.77-14.4c3.23-16 14.82-27.67 31.07-30.26q4.6-.74 13.51-.78 14.77-.08 102.97-.18a.63.62 90 0 1 .62.63M617.82 652.42a.4.39 90 0 1 .39-.4q34.78-.06 55.78.1 2.78.02 6.72 1.19c12.72 3.76 21.12 13.95 23.52 26.97q.86 4.67.84 12.72-.03 21.93.01 146.48a.62.62 45 0 1-.62.62h-53.92a.43.43 44.996 0 1-.43-.43v-4.66a.436.434 76.606 0 0-.63-.39c-12.57 6.45-27.51 8.08-41.75 6.8-30.29-2.73-54.59-21.32-66.23-49.11-5.51-13.16-6.67-26.57-6.62-43.36q.06-21.27-.04-129.11-.01-16.49 1.47-24.59 5.49-30.05 27.82-49.34c33.4-28.86 83.89-28.08 115.81 1.93 19.08 17.94 26.67 41.77 25.12 67.61a.38.38-88.408 0 1-.38.36h-53.96a.701.7-89.204 0 1-.7-.72q.54-17.57-11.43-27.25-6.69-5.4-14.8-6.11c-19.78-1.72-32.81 14.12-32.82 32.77q-.04 59.5 0 134.25.01 4.72 1.84 10.7 5.08 16.53 21.91 20.36c10.9 2.48 22.93-2.51 28.92-12.21 4.6-7.45 5.65-14.82 5.61-23.89q-.05-12.02-.01-35.18a.54.54 45 0 0-.54-.54h-30.31a.58.57 90 0 1-.57-.58zM513.37 780.44v59.69a.45.45-45 0 1-.45.45q-73.44.24-114.33.43-11.29.06-15.95-1.44c-11.41-3.68-18.63-13.37-21.1-25.05q-.78-3.72-.77-11.62.06-52.67 0-267.64a.74.74 45 0 1 .74-.74h55.61a.47.46-90 0 1 .46.47v244.19a.55.55-72.357 0 0 .55.55h94.54a.71.7-90 0 1 .7.71"></path><path fill="#267e2a" fill-rule="evenodd" d="M289.12 540.1v7.11a3.894 3.864-21.924 0 1-1.21 2.81q-3.34 3.15-4.94 4.92-19.79 21.88-32.58 47.41c-.84 1.67-1.56 3.85-2.35 5.73a.511.508-34.961 0 1-.98-.17q-.53-13.25 5.84-25.3c8.72-16.49 21.22-30.43 34.99-43.06a.739.733 68.866 0 1 1.23.55M1207.87 606.12a.517.514-52.499 0 1 .11.85q-2.82 2.45-7.11 3.09c-12.08 1.8-25.26-1.04-38.1-3.87-62.23-13.74-97.1-21.92-146.48-30.01q-33.59-5.51-65.54-5.11a.45.45 45 0 1-.45-.45v-8.84a.421.413-87.506 0 1 .45-.42q20.5 2.06 49.49 4.75 15.31 1.43 46.01 5.1c46.71 5.59 94.12 13.22 139.48 26.3 7.4 2.14 15.84 5.49 22.14 8.61M268.59 615.07q1.13-10.26 7.11-18.92 5.81-8.43 12.08-14.87.32-.32.63-.4a.404.403 82.342 0 1 .51.39v10.87a1.834 1.818-18.834 0 1-.72 1.45c-3.93 2.96-7.08 5.94-10.03 10.1q-3.51 4.94-6.79 9.69-.63.92-2.12 2.07a.42.416 74.323 0 1-.67-.38M950.38 591.9v-9.63a.171.164-85.69 0 1 .19-.17q46.81 6.5 61.47 8.63 40 5.81 75.02 13.63c31.2 6.97 59.05 13.84 88.78 24.06 4.49 1.54 14.56 5.09 15.81 9.47a2.059 2.05 69.874 0 1-1.12 2.43c-4.49 2.06-8.77 1.48-13.95-.02-15.98-4.63-39.29-11.41-58.99-16.2q-40.29-9.81-75.67-17.44-18.13-3.91-45.43-8.87-23.16-4.21-45.82-5.58a.31.31 1.977 0 1-.29-.31M950.17 604.47a.545.544-83.296 0 1 .67-.53q14.6 3.47 34.59 7.63 74.59 15.52 137.12 30.91c13.81 3.4 29 7.11 41.72 12.75 3.68 1.63 8.67 4.88 10 9.11a1.153 1.126-39.005 0 1-.11.94c-2.16 3.61-10.18 1.98-13.96 1.04q-9.06-2.25-17.37-4.65c-64.36-18.58-119.93-34.53-178.97-45q-4.52-.81-13.03-1.81a.745.738-87.002 0 1-.66-.74zM950.88 629.21q.68.09 10.12 2.34 52.46 12.49 93.53 24.73 34.15 10.17 67.08 21.45 7.39 2.53 17.02 6.43c5.15 2.08 9.78 3.6 11.77 8.69a.843.841-30.893 0 1-.24.95q-1.41 1.22-3.21 1.64c-7.29 1.72-13.28.21-21.21-2.93q-23.01-9.1-31.21-12.03-34.14-12.21-62.49-20.23c-28.92-8.18-53.81-14.91-81.28-20.66a.51.507-84.51 0 1-.41-.5v-9.41a.473.469-86.276 0 1 .53-.47M1134.61 724.31a1.112 1.104 62.868 0 1-.57 1.79c-8.54 2.18-17.48-.51-26.01-3.41q-7.54-2.57-25.83-10.91c-19.95-9.11-35.26-16.4-53.99-22.49-20.28-6.59-39.35-12.3-58.74-18.57q-9.43-3.04-19.01-5.5a.362.36-82.761 0 1-.27-.35v-9.47a.142.137 8.058 0 1 .18-.13c31.67 8.58 49.29 13.48 80.7 22.94 10.4 3.14 19.35 6.61 30.69 10.47q4.89 1.67 12.11 4.64c18.09 7.44 36.87 15.08 53.47 24.84q4.19 2.47 7.27 6.15M950.84 683.17c42.04 15.73 83.29 32.56 123.53 52.47q18.75 9.28 32.26 18.06c2.35 1.53 4.6 3.48 6.7 5.54a.72.718-32.749 0 1-.26 1.19c-7.12 2.54-15.65.99-22.64-1.1-16.88-5.06-29.88-11.06-49.66-20.13-24.83-11.39-60.12-29.1-89.7-42.62a1.56 1.554 12.551 0 1-.9-1.41v-11.53a.5.496-79.842 0 1 .67-.47M377.91 905.57a.42.41 0 0 1 .42.41v92.31a1.047 1.045-12.351 0 1-.61.95c-26.31 12.42-27.06 46.42-.12 58.64a1.239 1.227-77.655 0 1 .71 1.12v42.32a.591.584-87.76 0 1-.63.59q-5.07-.36-11.56-2.05c-31.89-8.33-54.65-33.21-61.46-65.59q-1.52-7.21-1.39-23.62.15-17.93.04-104.69a.39.38-90 0 1 .38-.39zM408.21 906.34a.78.78-72.485 0 1 .78-.78h524.85a.88.88 45 0 1 .88.88q-.03 131.61.02 175.81c.01 2.28.09 5.55-.56 7.62q-2.48 7.82-9.13 10.88-2.8 1.3-14.32 1.29-194.68-.1-501.66-.01a.9.9-49.168 0 1-.9-.9v-42.12a.685.677-4.463 0 1 .58-.67q.16-.02 2.1-.74c14.64-5.41 24.08-22.42 19.05-37.76q-5.06-15.43-21.23-21.41a.718.704-80.064 0 1-.46-.67zm387.6 36.22a3.564 3.562-60.336 0 0 2.33-.64l6.49-4.51a1.207 1.202 29.068 0 0-.63-2.19l-2.65-.15a3.767 3.756-69.734 0 0-3.2 1.48q-.8 1.17-5.35 4.23a.87.869-59.822 0 0 .42 1.59zm-320.17 30.29a.66.66 11.248 0 0-.66-.66h-10.81a.65.64 0 0 1-.65-.64v-31.9a.73.73-45.074 0 0-.73-.73h-6.29a.74.74 45 0 0-.74.74q.01 12.8-.08 35.51-.01 2.68 3.41 4.46a1.964 1.912-30.504 0 0 .9.22h14.97a.68.68 45 0 0 .68-.68zm120.58-8.61c-.16 3.75.4 6.26-2.3 7.82-2.02 1.18-3.97-.62-4.72-2.37a2.078 2.023-57.476 0 1-.17-.82q-.14-6.93-.03-18.6.01-1.51 1.86-2.9c2.33-1.75 5.38.79 5.44 3.36a.74.74 89.608 0 0 .74.73h5.86a.65.65 45 0 0 .65-.65c.03-12.37-14.69-16.63-20.92-5.61q-1.37 2.43-1.2 8.8.24 8.59.03 15.13a5.612 5.574 37.455 0 0 .25 1.84q3.15 10.31 14.15 8.43h.1l7.29.36a.49.49 2.247 0 0 .52-.48q.1-8.78.03-18.76-.03-2.79-1.91-4.14a1.2 1.2-37.52 0 0-.72-.24h-7.59a1.19 1.19 45 0 0-1.19 1.19v5.31a1.193 1.19-8.22 0 0 1.53 1.14q1.02-.31 1.69-.24a.674.671 4.024 0 1 .61.7m-110.2-19.756a.71.71 0 0 0-.711-.709l-5.4.01a.71.71 0 0 0-.709.711l.06 34.56a.71.71 0 0 0 .711.709l5.4-.01a.71.71 0 0 0 .709-.711zm37.342 35.185c5.2.01 9.986-4.548 10.035-9.694q.093-9.575.033-25.385a.79.78 89.628 0 0-.78-.78h-5.11a.84.84 81.818 0 0-.84.84q-.04 11.46-.022 23.353.006 4.673-3.292 4.667-3.319-.007-3.294-4.68.063-11.893.068-23.353a.84.84-89.887 0 0-.837-.843l-5.11-.02a.79.78-89.407 0 0-.783.777q-.121 15.81-.065 25.385c.029 5.146 4.798 9.723 9.997 9.733m13.565-17.898q-.036 12.066-.006 12.988c.136 4.049 2.668 5.178 6.524 5.077q1.769-.035 9.907.013a.825.825-45 0 0 .827-.823l.012-5.267a.805.805 84.548 0 0-.803-.806l-8.507-.02a1.163 1.163-89.751 0 1-1.16-1.165l.012-5.217a1.2 1.2 35.659 0 1 1.205-1.2l4.591.011a.671.667-88.957 0 0 .668-.648q.01-.349.018-2.904t0-2.903a.671.667 89.298 0 0-.665-.652l-4.591-.017a1.2 1.2 45.024 0 1-1.197-1.206l.019-5.217a1.163 1.163 45 0 1 1.167-1.159l8.506.032a.805.805 89.973 0 0 .808-.802l.019-5.267a.825.825 11.487 0 0-.821-.828q-8.139 0-9.908-.046c-3.855-.124-6.393.989-6.554 5.038q-.035.921-.071 12.988m80.287 17.888c5.193-.004 9.961-4.568 9.997-9.707q.068-9.563-.033-25.352a.789.779 89.478 0 0-.781-.776l-5.104.013a.84.84-88.361 0 0-.836.841q-.01 11.445.038 23.322.019 4.667-3.274 4.669-3.315.003-3.303-4.665.033-11.877.007-23.322a.84.84-89.966 0 0-.838-.84l-5.103-.006a.789.779-89.557 0 0-.78.778q-.08 15.789.001 25.352c.043 5.139 4.817 9.697 10.009 9.693m24.853-7.431q1.073.002 3.216-.068a1.144 1.138 83.585 0 1 1.153.925l1.095 5.845a.955.95 84.702 0 0 .931.778l5.693.017a.584.579-7.064 0 0 .569-.723q-5.398-22.033-8.354-32.171-.922-3.161-4.24-3.168-3.32-.008-4.256 3.149-3 10.125-8.493 32.135a.584.579 7.312 0 0 .566.726l5.693.007a.955.95-84.454 0 0 .934-.774l1.121-5.84a1.144 1.138-83.337 0 1 1.157-.92q2.142.08 3.215.082m15.243-27.705-.06 34.56a.72.72-70.184 0 0 .719.721l9.2.016a10.3 10.1-89.9 0 0 10.118-10.283l.026-15.399a10.3 10.1-89.9 0 0-10.082-10.318l-9.2-.016a.72.72-2.412 0 0-.721.719m23.447 17.186q-.069 12.028-.041 12.947c.125 4.036 2.645 5.168 6.489 5.079q1.763-.031 9.876.039a.82.82 27.486 0 0 .826-.818l.026-5.25a.8.8 76.828 0 0-.798-.806l-8.479-.043a1.16 1.16 45.707 0 1-1.153-1.164l.026-5.201a1.2 1.2 1.139 0 1 1.204-1.192l4.576.023a.669.665-88.8 0 0 .668-.644q.011-.347.025-2.895.015-2.546.008-2.893a.669.665 89.455 0 0-.66-.652l-4.576-.029a1.2 1.2-54.141 0 1-1.191-1.206l.033-5.201a1.16 1.16 34.18 0 1 1.167-1.151l8.479.054a.8.8-72.235 0 0 .807-.797l.034-5.25a.82.82 74.948 0 0-.817-.827q-8.113-.023-9.876-.074c-3.842-.133-6.375.97-6.546 5.004q-.038.919-.107 12.947m37.556 11.684a.58.58 23.456 0 0-.585-.575l-9.497.082a.571.562-.492 0 1-.576-.558l-.24-28.025a.64.64-86.357 0 0-.647-.636l-5.526.048a.65.65 10.908 0 0-.645.655q.106 11.245.198 31.198.011 2.354 3.029 3.892a1.725 1.68-30.996 0 0 .793.187l13.151-.113a.597.597-15.512 0 0 .593-.603zm22.002-20.155a9.34 9.34 0 0 0-9.388-9.29l-1.04.005a9.34 9.34 0 0 0-9.291 9.389l.089 16.98a9.34 9.34 0 0 0 9.388 9.29l1.04-.005a9.34 9.34 0 0 0 9.291-9.389zm13.255 26.397c5.201.004 9.981-4.561 10.024-9.708q.08-9.576-.002-25.387a.79.78 89.551 0 0-.781-.779l-5.11.007a.84.84 45 0 0-.839.841q-.025 11.461.009 23.355.012 4.674-3.286 4.672-3.319-.002-3.301-4.676.048-11.894.037-23.355a.84.84-10.257 0 0-.838-.842l-5.111-.013a.79.78-89.484 0 0-.782.778q-.1 15.812-.031 25.388c.037 5.146 4.811 9.716 10.011 9.719m19.54.005a.72.71 90 0 0 .71-.72v-12.78a.842.839 83.532 0 1 .65-.82c5.44-1.24 10.96-3.75 12.49-9.29 1.38-5.03-1.84-9.76-6.3-11.57-2.16-.87-10.84-1.39-12.66.47q-.64.66-.68 2.72-.27 13.47-.06 31.25a.74.74-45 0 0 .74.74zm16.355-17.837q.021 12.018.055 12.936c.155 4.032 2.681 5.144 6.521 5.026q1.761-.044 9.867-.034a.82.82-8.259 0 0 .819-.824l-.012-5.245a.8.8-78.904 0 0-.804-.8l-8.472.021a1.16 1.16-65.724 0 1-1.16-1.155l-.013-5.196a1.2 1.2-50 0 1 1.195-1.201l4.572-.011a.668.664-89.226 0 0 .662-.648q.008-.347.004-2.892t-.014-2.891a.668.664 89.029 0 0-.664-.646l-4.573.004a1.2 1.2 45 0 1-1.198-1.196l-.006-5.196a1.16 1.16 40.071 0 1 1.157-1.159l8.472-.008a.8.8-67.476 0 0 .801-.803l-.006-5.245a.82.82-67.481 0 0-.822-.821q-8.105.038-9.867 0c-3.84-.105-6.363 1.016-6.504 5.048q-.031.919-.01 12.936m19.423-.051q-.043 12.055-.013 12.977c.134 4.045 2.663 5.174 6.515 5.076q1.768-.035 9.899.017a.824.824 84.559 0 0 .826-.822l.015-5.262a.804.804-84.051 0 0-.802-.806l-8.499-.024a1.16 1.16 40.297 0 1-1.158-1.165l.014-5.212a1.2 1.2-48.389 0 1 1.205-1.198l4.587.013a.67.666-88.927 0 0 .668-.647q.01-.348.019-2.901t.001-2.901a.67.666 89.328 0 0-.663-.651l-4.587-.02a1.2 1.2 37.089 0 1-1.196-1.206l.021-5.212a1.16 1.16-44.755 0 1 1.167-1.157l8.499.036a.804.804 79.476 0 0 .807-.801l.022-5.262a.824.824.176 0 0-.82-.828q-8.132-.004-9.899-.051c-3.852-.126-6.388.985-6.55 5.03q-.036.921-.078 12.977m33.722-1.202a.26.26-56.266 0 1-.5.1q-.35-.86-4.95-12.06c-1.01-2.45-1.54-4.73-4.13-4.85-2.74-.11-4.3 1.77-4.3 4.51q.01 28.34.03 30.64a.83.82-.349 0 0 .83.81h4.98a.83.83-45 0 0 .83-.83v-15.88a.26.26-56.266 0 1 .5-.1l6.14 14.9a2.487 2.344-78.3 0 0 .4.65c2.32 2.67 6.81 1.06 6.82-2.45q.04-27.33-.02-31.27a.91.9-.318 0 0-.91-.89h-4.82a.9.9-45 0 0-.9.9zm23.774-.057a.26.26-56.156 0 1-.5.099q-.349-.861-4.93-12.075c-1.005-2.453-1.531-4.735-4.122-4.86-2.741-.115-4.305 1.762-4.311 4.504q-.044 28.352-.028 30.653a.831.82-.239 0 0 .828.812l4.983.01a.83.83 67.552 0 0 .832-.829l.03-15.887a.26.26-56.156 0 1 .5-.099l6.115 14.918a2.488 2.345-78.19 0 0 .399.651c2.315 2.676 6.811 1.074 6.827-2.438q.093-27.342.04-31.284a.911.901-.208 0 0-.908-.892l-4.823-.009a.9.9-82.225 0 0-.902.899zm10.224 1.221q.018 12.005.052 12.923c.153 4.027 2.677 5.139 6.513 5.022q1.76-.044 9.857-.032a.82.82-.076 0 0 .819-.822l-.012-5.24a.8.8-24.792 0 0-.802-.799l-8.463.018a1.157 1.157 45.044 0 1-1.16-1.154l-.011-5.19a1.196 1.196 35.413 0 1 1.193-1.199l4.568-.01a.667.663-89.213 0 0 .662-.648q.008-.347.004-2.888-.004-2.543-.013-2.889a.667.663 89.042 0 0-.663-.646l-4.568.004a1.196 1.196-64.888 0 1-1.197-1.195l-.004-5.191a1.157 1.157 49.135 0 1 1.155-1.158l8.464-.006a.8.8 11.228 0 0 .8-.802l-.004-5.24a.82.82 45.075 0 0-.822-.82q-8.097.036-9.857-.002c-3.836-.106-6.356 1.013-6.498 5.042q-.031.917-.013 12.922M509.93 953.54q-.63-5.24-4.38-7.84c-4.68-3.26-11.87-1.92-14.65 3.28q-1.2 2.23-1.09 6.65.1 4.41-.11 13.34c-.16 6.48 5.83 12.34 12.35 10.25a1.769 1.732 43.859 0 1 1.05-.01q2.75.85 6.39.35a.417.413-3.992 0 0 .36-.41V959.8a1.05 1.05 44.945 0 0-1.05-1.05h-8.06a1.11 1.1 90 0 0-1.1 1.11v4.45a.95.95-45 0 0 .95.95h1.43a.81.81 38.901 0 1 .81.81v3.98a2.716 2.713-88.03 0 1-2.9 2.71l-.37-.03a2.99 2.99 1.934 0 1-2.72-2.91q-.3-12.4-.08-16.29c.14-2.37 2.98-4.24 5.04-2.4q1.01.9 1.58 2.73a.746.74 81.544 0 0 .71.53h5.09a.756.753-3.674 0 0 .75-.85m123.14 52.35h-6.09a.79.79-45 0 1-.79-.79v-7.28a.9.89-90 0 1 .89-.9h10.57a.74.73 0 0 0 .74-.73v-6.28a.7.7-.404 0 0-.71-.7q-6.04.05-13.13.21-5.72.13-5.96 5.38-.4 8.91-.08 35.36a.68.68 89.572 0 0 .68.67h6.26a.73.73-84.151 0 0 .73-.73v-15.65a.67.66 0 0 1 .67-.66h6.26a.73.73 0 0 0 .73-.73v-6.4a.77.77 0 0 0-.77-.77m-84.18-10.73v35a.63.63 81.851 0 0 .63.63h9.99a10.13 9.88 90 0 0 9.88-10.13v-16a10.13 9.88 90 0 0-9.88-10.13h-9.99a.63.63 87.559 0 0-.63.63m23.89 17.515q-.009 12.143.024 13.071c.146 4.074 2.696 5.204 6.576 5.094q1.78-.04 9.97-.01a.83.83 45 0 0 .83-.83v-5.3a.81.81-82.27 0 0-.81-.81h-8.56a1.17 1.17 45 0 1-1.17-1.17v-5.25a1.21 1.21 0 0 1 1.21-1.21h4.62a.675.671-89.087 0 0 .671-.654q.009-.35.011-2.921.001-2.571-.007-2.922a.675.671 89.168 0 0-.67-.654l-4.62-.007a1.21 1.21-44.975 0 1-1.208-1.211l.007-5.25a1.17 1.17-60.111 0 1 1.172-1.169l8.56.012a.81.81-44.975 0 0 .811-.808l.008-5.3a.83.83-45 0 0-.829-.832q-8.19.019-9.97-.024c-3.88-.115-6.432 1.011-6.584 5.085q-.033.928-.042 13.07m88.3-8.58a9.38 9.38 0 0 0-9.347-9.413l-1.02-.004a9.38 9.38 0 0 0-9.413 9.348l-.06 17.199a9.38 9.38 0 0 0 9.347 9.413l1.02.004a9.38 9.38 0 0 0 9.413-9.348zm23.38.05a9.45 9.45 0 0 0-9.351-9.548l-1.06-.012a9.45 9.45 0 0 0-9.548 9.351l-.181 17.259a9.45 9.45 0 0 0 9.351 9.548l1.06.012a9.45 9.45 0 0 0 9.548-9.351zm12.812 26.709q2.677 0 2.957-.063a.472.471 83.839 0 0 .371-.461l.09-28.14a.67.67 45 0 1 .67-.67h5.18a.75.75 45 0 0 .75-.75v-5.46a.733.73.002 0 0-.733-.73q-4.31.017-9.273-.047-4.962.06-9.272.041a.733.73.037 0 0-.734.729l-.003 5.46a.75.75 45 0 0 .749.751l5.18.003a.67.67-89.837 0 1 .67.671l.071 28.14a.472.471-83.801 0 0 .37.461q.281.064 2.957.065m30.658-19.794q3.09-3.91 1.93-9.27c-1.83-8.46-10.53-7.22-16.99-7.13a1.913 1.887 31.362 0 0-.85.2q-1.94.93-1.99 3.65-.18 8.86-.15 23.68c0 2.47-.28 5.18.47 7.52a1.66 1.66 80.458 0 0 1.6 1.14l11.41-.17a2.533 2.464 34.481 0 0 .7-.12q8.83-2.8 7.81-12.36c-.39-3.55-1.76-4.12-3.89-6.26a.662.658 41.925 0 1-.05-.88m18.901 12.221q1.08-.001 3.236-.078a1.151 1.145 83.41 0 1 1.163.927l1.12 5.88a.962.956 84.527 0 0 .94.78h5.73a.588.583-7.239 0 0 .57-.73q-5.5-22.16-8.507-32.355-.937-3.178-4.28-3.175-3.339.002-4.271 3.183-2.989 10.2-8.449 32.37a.588.583 7.137 0 0 .571.729l5.73-.011a.962.956-84.629 0 0 .939-.781l1.109-5.882a1.151 1.145-83.512 0 1 1.162-.929q2.156.073 3.237.072m32.94 1.299a.583.583-84.286 0 0-.586-.581l-9.555.041a.575.566-.247 0 1-.576-.563l-.122-28.196a.645.645 88.866 0 0-.648-.642l-5.559.024a.654.654-45 0 0-.652.657q.058 11.313.065 31.386.001 2.369 3.031 3.929a1.736 1.69-30.751 0 0 .796.191l13.232-.056a.6.6 45.186 0 0 .598-.604zm20.708-.084a.584.584-.135 0 0-.586-.58l-9.558.05a.575.566-.298 0 1-.577-.563l-.147-28.204a.645.645-63.561 0 0-.649-.642l-5.561.029a.654.654 5.649 0 0-.651.657q.068 11.317.093 31.396.003 2.37 3.035 3.928a1.736 1.691-30.803 0 0 .797.19l13.236-.069a.6.6-29.104 0 0 .598-.604z"></path><path fill="#fff" fill-rule="evenodd" d="m795.81 942.56-2.59-.19a.87.869-59.822 0 1-.42-1.59q4.55-3.06 5.35-4.23a3.767 3.756-69.734 0 1 3.2-1.48l2.65.15a1.207 1.202 29.068 0 1 .63 2.19l-6.49 4.51a3.564 3.562-60.336 0 1-2.33.64M474.96 979.85h-14.97a1.964 1.912-30.504 0 1-.9-.22q-3.42-1.78-3.41-4.46.09-22.71.08-35.51a.74.74 45 0 1 .74-.74h6.29a.73.73 45.009 0 1 .73.73v31.9a.65.64 0 0 0 .65.64h10.81a.66.66 36.835 0 1 .66.66v6.32a.68.68 45 0 1-.68.68M595.61 963.54q-.67-.07-1.69.24a1.193 1.19-8.22 0 1-1.53-1.14v-5.31a1.19 1.19 45 0 1 1.19-1.19h7.59a1.2 1.2-20.06 0 1 .72.24q1.88 1.35 1.91 4.14.07 9.98-.03 18.76a.49.49 2.247 0 1-.52.48l-7.29-.36h-.1q-11 1.88-14.15-8.43a5.612 5.574 37.455 0 1-.25-1.84q.21-6.54-.03-15.13-.17-6.37 1.2-8.8c6.23-11.02 20.95-6.76 20.92 5.61a.65.65 45 0 1-.65.65h-5.86a.74.74 89.608 0 1-.74-.73c-.06-2.57-3.11-5.11-5.44-3.36q-1.85 1.39-1.86 2.9-.11 11.67.03 18.6a2.078 2.023-57.476 0 0 .17.82c.75 1.75 2.7 3.55 4.72 2.37 2.7-1.56 2.14-4.07 2.3-7.82a.674.671 4.024 0 0-.61-.7M486.08 979.044a.71.71 0 0 1-.709.711l-5.4.01a.71.71 0 0 1-.711-.709l-.06-34.56a.71.71 0 0 1 .709-.711l5.4-.01a.71.71 0 0 1 .711.709zM523.386 972.67q3.298.006 3.292-4.667-.018-11.893.022-23.353a.84.84-64.83 0 1 .84-.84h5.11a.79.78 89.628 0 1 .78.78q.06 15.81-.033 25.385c-.049 5.146-4.835 9.704-10.035 9.694-5.199-.01-9.968-4.587-9.997-9.733q-.056-9.575.065-25.385a.79.78-89.407 0 1 .783-.777l5.11.02a.84.84-89.882 0 1 .837.843q-.005 11.46-.068 23.353-.025 4.673 3.294 4.68M536.927 961.771q.036-12.067.071-12.988c.161-4.049 2.699-5.162 6.554-5.038q1.769.046 9.908.046a.825.825 37.008 0 1 .821.828l-.019 5.267a.805.805-89.006 0 1-.808.802l-8.506-.032a1.163 1.163 45 0 0-1.167 1.159l-.019 5.217a1.2 1.2 45 0 0 1.197 1.206l4.591.017a.671.667 89.298 0 1 .665.652q.007.349 0 2.903-.008 2.555-.018 2.904a.671.667-88.957 0 1-.668.648l-4.591-.011a1.2 1.2-2.311 0 0-1.205 1.2l-.012 5.217a1.163 1.163-89.939 0 0 1.16 1.165l8.507.02a.805.805-70.511 0 1 .803.806l-.012 5.267a.825.825 35.688 0 1-.827.823q-8.138-.048-9.907-.013c-3.856.101-6.388-1.028-6.524-5.077q-.03-.922.006-12.988M617.214 979.659c-5.192.004-9.966-4.554-10.009-9.693q-.081-9.563-.001-25.352a.789.779-89.557 0 1 .78-.778l5.103.006a.84.84-89.988 0 1 .838.84q.026 11.445-.007 23.322-.012 4.668 3.303 4.665 3.293-.002 3.274-4.669-.048-11.877-.038-23.322a.84.84-56.843 0 1 .836-.841l5.104-.013a.789.779 89.478 0 1 .781.776q.101 15.789.033 25.352c-.036 5.139-4.804 9.703-9.997 9.707M642.067 972.228q-1.073-.002-3.215-.082a1.144 1.138-83.337 0 0-1.157.92l-1.121 5.84a.955.95-84.454 0 1-.934.774l-5.693-.007a.584.579 7.312 0 1-.566-.726q5.493-22.01 8.493-32.135.936-3.157 4.256-3.149 3.318.007 4.24 3.168 2.956 10.138 8.354 32.171a.584.579-7.064 0 1-.569.723l-5.693-.017a.955.95 84.702 0 1-.931-.778l-1.095-5.845a1.144 1.138 83.585 0 0-1.153-.925q-2.143.07-3.216.068m-1.952-7.066a.36.36 5.133 0 0 .368.424l3.19-.123a.36.36-11.464 0 0 .335-.451l-1.872-7.139a.36.36 20.035 0 0-.703.027zM657.31 944.523a.72.72 35.612 0 1 .721-.719l9.2.016a10.3 10.1-89.9 0 1 10.082 10.318l-.026 15.399a10.3 10.1-89.9 0 1-10.118 10.283l-9.2-.016a.72.72-50.261 0 1-.719-.721zm6.555 6.694.11 20.9a.58.58-45 0 0 .583.577l3.02-.016a3.16 2.98 89.7 0 0 2.963-3.175l-.082-15.74a3.16 2.98 89.7 0 0-2.997-3.144l-3.02.015a.58.58-45.011 0 0-.577.583M680.757 961.709q.069-12.028.107-12.947c.171-4.034 2.704-5.137 6.546-5.004q1.763.051 9.876.074a.82.82-56.011 0 1 .817.827l-.034 5.25a.8.8-56.793 0 1-.807.797l-8.479-.054a1.16 1.16-14.916 0 0-1.167 1.151l-.033 5.201a1.2 1.2 87.883 0 0 1.191 1.206l4.576.029a.669.665 89.455 0 1 .66.652q.007.347-.008 2.893-.014 2.548-.025 2.895a.669.665-88.8 0 1-.668.644l-4.576-.023a1.2 1.2.129 0 0-1.204 1.192l-.026 5.201a1.16 1.16-45.069 0 0 1.153 1.164l8.479.043a.8.8 76.447 0 1 .798.806l-.026 5.25a.82.82 38.856 0 1-.826.818q-8.113-.07-9.876-.039c-3.844.089-6.364-1.043-6.489-5.079q-.028-.919.041-12.947M718.313 973.393l.048 5.552a.597.597 33.159 0 1-.593.603l-13.151.113a1.725 1.68-30.996 0 1-.793-.187q-3.018-1.538-3.029-3.892-.092-19.953-.198-31.198a.65.65 36.392 0 1 .645-.655l5.526-.048a.64.64-66.129 0 1 .647.636l.24 28.025a.571.562-.492 0 0 .576.558l9.497-.082a.58.58 36.543 0 1 .585.575M740.404 970.218a9.34 9.34 0 0 1-9.291 9.389l-1.04.005a9.34 9.34 0 0 1-9.388-9.29l-.089-16.98a9.34 9.34 0 0 1 9.291-9.389l1.04-.005a9.34 9.34 0 0 1 9.388 9.29zm-6.756-16.577a3 3 0 0 0-2.989-3.011h-.2a3 3 0 0 0-3.011 2.989l-.056 16.18a3 3 0 0 0 2.989 3.011h.2a3 3 0 0 0 3.011-2.989zM753.57 979.635c-5.2-.003-9.974-4.573-10.011-9.719q-.069-9.576.031-25.388a.79.78-89.484 0 1 .782-.778l5.111.013a.84.84 38.338 0 1 .838.842q.011 11.461-.037 23.355-.018 4.674 3.301 4.676 3.298.002 3.286-4.672-.034-11.894-.009-23.355a.84.84-59.677 0 1 .839-.841l5.11-.007a.79.78 89.551 0 1 .781.779q.082 15.811.002 25.387c-.043 5.147-4.823 9.712-10.024 9.708M767.26 978.9q-.21-17.78.06-31.25.04-2.06.68-2.72c1.82-1.86 10.5-1.34 12.66-.47 4.46 1.81 7.68 6.54 6.3 11.57-1.53 5.54-7.05 8.05-12.49 9.29a.842.839 83.532 0 0-.65.82v12.78a.72.71 90 0 1-.71.72H768a.74.74-45 0 1-.74-.74m6.33-28.407.39 7.21a.26.26 41.927 0 0 .274.245l.559-.03a6.14 3.76-3.1 0 0 5.928-4.086l-.012-.22a6.14 3.76-3.1 0 0-6.334-3.422l-.56.03a.26.26-16.789 0 0-.245.273M789.465 961.803q-.021-12.017.01-12.936c.141-4.032 2.664-5.153 6.504-5.048q1.762.038 9.867 0a.82.82-67.613 0 1 .822.821l.006 5.245a.8.8-67.531 0 1-.801.803l-8.472.008a1.16 1.16-4.928 0 0-1.157 1.159l.006 5.196a1.2 1.2-45 0 0 1.198 1.196l4.573-.004a.668.664 89.029 0 1 .664.646q.01.347.014 2.891t-.004 2.892a.668.664-89.226 0 1-.662.648l-4.572.011a1.2 1.2 84.943 0 0-1.195 1.201l.013 5.196a1.16 1.16-86.187 0 0 1.16 1.155l8.472-.021a.8.8-53.267 0 1 .804.8l.012 5.245a.82.82 25.08 0 1-.819.824q-8.106-.01-9.867.034c-3.84.118-6.366-.994-6.521-5.026q-.034-.918-.055-12.936M808.888 961.752q.042-12.056.078-12.977c.162-4.045 2.698-5.156 6.55-5.03q1.767.047 9.899.051a.824.824.175 0 1 .82.828l-.022 5.262a.804.804-60.735 0 1-.807.801l-8.499-.036a1.16 1.16-44.738 0 0-1.167 1.157l-.021 5.212a1.2 1.2 11.462 0 0 1.196 1.206l4.587.02a.67.666 89.328 0 1 .663.651q.007.348-.001 2.901t-.019 2.901a.67.666-88.927 0 1-.668.647l-4.587-.013a1.2 1.2-78.041 0 0-1.205 1.198l-.014 5.212a1.16 1.16-4.68 0 0 1.158 1.165l8.499.024a.804.804-60.047 0 1 .802.806l-.015 5.262a.824.824-70.54 0 1-.826.822q-8.131-.052-9.899-.017c-3.852.098-6.381-1.031-6.515-5.076q-.03-.922.013-12.977M842.61 960.55v-15.82a.9.9-45 0 1 .9-.9h4.82a.91.9-.318 0 1 .91.89q.06 3.94.02 31.27c-.01 3.51-4.5 5.12-6.82 2.45a2.487 2.344-78.3 0 1-.4-.65l-6.14-14.9a.26.26-56.266 0 0-.5.1v15.88a.83.83 45 0 1-.83.83h-4.98a.83.82-.349 0 1-.83-.81q-.02-2.3-.03-30.64c0-2.74 1.56-4.62 4.3-4.51 2.59.12 3.12 2.4 4.13 4.85q4.6 11.2 4.95 12.06a.26.26-56.266 0 0 .5-.1M866.384 960.493l.03-15.827a.9.9-56.748 0 1 .902-.899l4.823.009a.911.901-.208 0 1 .908.892q.053 3.942-.04 31.284c-.016 3.512-4.512 5.114-6.827 2.438a2.488 2.345-78.19 0 1-.399-.651l-6.115-14.918a.26.26-56.156 0 0-.5.099l-.03 15.887a.83.83 67.436 0 1-.832.829l-4.983-.01a.831.82-.239 0 1-.828-.812q-.016-2.301.028-30.653c.006-2.742 1.57-4.619 4.311-4.504 2.591.125 3.117 2.407 4.122 4.86q4.581 11.214 4.93 12.075a.26.26-56.156 0 0 .5-.099M876.608 961.714q-.018-12.005.013-12.922c.142-4.029 2.662-5.148 6.498-5.042q1.76.038 9.857.002a.82.82 44.968 0 1 .822.82l.004 5.24a.8.8 36.795 0 1-.8.802l-8.464.006a1.157 1.157 70.19 0 0-1.155 1.158l.004 5.191a1.196 1.196 81.88 0 0 1.197 1.195l4.568-.004a.667.663 89.042 0 1 .663.646q.009.346.013 2.889.004 2.541-.004 2.888a.667.663-89.213 0 1-.662.648l-4.568.01a1.196 1.196-2.547 0 0-1.193 1.199l.011 5.19a1.157 1.157 45.065 0 0 1.16 1.154l8.463-.018a.8.8 39.019 0 1 .802.799l.012 5.24a.82.82-.069 0 1-.819.822q-8.097-.012-9.857.032c-3.836.117-6.36-.995-6.513-5.022q-.034-.918-.052-12.923M509.18 954.39h-5.09a.746.74 81.544 0 1-.71-.53q-.57-1.83-1.58-2.73c-2.06-1.84-4.9.03-5.04 2.4q-.22 3.89.08 16.29a2.99 2.99 1.934 0 0 2.72 2.91l.37.03a2.716 2.713-88.03 0 0 2.9-2.71v-3.98a.81.81 3.409 0 0-.81-.81h-1.43a.95.95 45 0 1-.95-.95v-4.45a1.11 1.1-90 0 1 1.1-1.11h8.06a1.05 1.05-44.973 0 1 1.05 1.05v19.35a.417.413-3.992 0 1-.36.41q-3.64.5-6.39-.35a1.769 1.732 43.859 0 0-1.05.01c-6.52 2.09-12.51-3.77-12.35-10.25q.21-8.93.11-13.34-.11-4.42 1.09-6.65c2.78-5.2 9.97-6.54 14.65-3.28q3.75 2.6 4.38 7.84a.756.753-3.674 0 1-.75.85"></path><path fill="#267e2a" fill-rule="evenodd" d="M733.592 969.821a3 3 0 0 1-3.011 2.989h-.2a3 3 0 0 1-2.989-3.011l.056-16.18a3 3 0 0 1 3.011-2.989h.2a3 3 0 0 1 2.989 3.011zM773.59 950.493a.26.26 31.494 0 1 .245-.273l.56-.03a6.14 3.76-3.1 0 1 6.334 3.422l.012.22a6.14 3.76-3.1 0 1-5.928 4.086l-.559.03a.26.26-48.105 0 1-.274-.245zM663.865 951.217a.58.58-44.989 0 1 .577-.583l3.02-.015a3.16 2.98 89.7 0 1 2.997 3.144l.082 15.74a3.16 2.98 89.7 0 1-2.963 3.175l-3.02.016a.58.58-45 0 1-.583-.577zM640.115 965.162l1.318-7.262a.36.36 17.681 0 1 .703-.027l1.872 7.139a.36.36 18.756 0 1-.335.451l-3.19.123a.36.36 20.129 0 1-.368-.424"></path><path fill="#fff" fill-rule="evenodd" d="M633.07 1005.89a.77.77 45 0 1 .77.77v6.4a.73.73 0 0 1-.73.73h-6.26a.67.66 0 0 0-.67.66v15.65a.73.73-60.21 0 1-.73.73h-6.26a.68.68 89.572 0 1-.68-.67q-.32-26.45.08-35.36.24-5.25 5.96-5.38 7.09-.16 13.13-.21a.7.7-.404 0 1 .71.7v6.28a.74.73 0 0 1-.74.73h-10.57a.9.89-90 0 0-.89.9v7.28a.79.79-45 0 0 .79.79zM548.89 995.16a.63.63-54.479 0 1 .63-.63h9.99a10.13 9.88-90 0 1 9.88 10.13v16a10.13 9.88-90 0 1-9.88 10.13h-9.99a.63.63-64.82 0 1-.63-.63zm6.777 6.908-.074 21.12a.8.8-84.038 0 0 .797.803l2.61.009a3.37 3.35.2 0 0 3.382-3.338l.056-16.02a3.37 3.35.2 0 0-3.358-3.362l-2.61-.009a.8.8-45 0 0-.803.797M586.152 1012.685q-.002 2.571-.011 2.921a.675.671-89.087 0 1-.671.654h-4.62a1.21 1.21 0 0 0-1.21 1.21v5.25a1.17 1.17 45 0 0 1.17 1.17h8.56a.81.81-56.851 0 1 .81.81v5.3a.83.83 45 0 1-.83.83q-8.19-.03-9.97.01c-3.88.11-6.43-1.02-6.576-5.094q-.033-.928-.024-13.071t.042-13.07c.152-4.074 2.704-5.2 6.584-5.085q1.78.043 9.97.024a.83.83 45 0 1 .829.832l-.008 5.3a.81.81 45.092 0 1-.811.808l-8.56-.012a1.17 1.17-84.126 0 0-1.172 1.169l-.007 5.25a1.21 1.21-44.975 0 0 1.208 1.211l4.62.007a.675.671 89.168 0 1 .67.654q.008.351.007 2.922M661.02 1021.294a9.38 9.38 0 0 1-9.413 9.348l-1.02-.004a9.38 9.38 0 0 1-9.347-9.413l.06-17.199a9.38 9.38 0 0 1 9.413-9.348l1.02.004a9.38 9.38 0 0 1 9.347 9.413zm-6.617-16.837a3.15 3.15 0 0 0-3.134-3.166l-.22-.001a3.15 3.15 0 0 0-3.166 3.133l-.086 16.3a3.15 3.15 0 0 0 3.134 3.166l.22.001a3.15 3.15 0 0 0 3.166-3.133zM684.279 1021.404a9.45 9.45 0 0 1-9.548 9.351l-1.06-.012a9.45 9.45 0 0 1-9.351-9.548l.181-17.259a9.45 9.45 0 0 1 9.548-9.351l1.06.012a9.45 9.45 0 0 1 9.351 9.548zm-6.783-17.07a3.11 3.11 0 0 0-3.116-3.104h-.22a3.11 3.11 0 0 0-3.104 3.116l.028 16.58a3.11 3.11 0 0 0 3.116 3.104h.22a3.11 3.11 0 0 0 3.104-3.116zM697.284 994.533q4.963.064 9.273.047a.733.73.002 0 1 .733.73v5.46a.75.75-45 0 1-.75.75h-5.18a.67.67 45 0 0-.67.67l-.09 28.14a.472.471 83.839 0 1-.371.461q-.28.063-2.957.063-2.676-.001-2.957-.065a.472.471-83.801 0 1-.37-.461l-.071-28.14a.67.67-89.966 0 0-.67-.671l-5.18-.003a.75.75 45 0 1-.749-.751l.003-5.46a.733.73.037 0 1 .734-.729q4.31.019 9.272-.041M727.98 1011.94c2.13 2.14 3.5 2.71 3.89 6.26q1.02 9.56-7.81 12.36a2.533 2.464 34.481 0 1-.7.12l-11.41.17a1.66 1.66 80.458 0 1-1.6-1.14c-.75-2.34-.47-5.05-.47-7.52q-.03-14.82.15-23.68.05-2.72 1.99-3.65a1.913 1.887 31.362 0 1 .85-.2c6.46-.09 15.16-1.33 16.99 7.13q1.16 5.36-1.93 9.27a.662.658 41.925 0 0 .05.88m-11.306-10.184.072 6.859a.66.66 89.62 0 0 .667.653l.63-.006a5.47 3.99-.6 0 0 5.428-4.047l-.002-.2a5.47 3.99-.6 0 0-5.512-3.933l-.63.007a.66.66-2.881 0 0-.653.667m.09 15.151.012 6.36a.72.72-31.704 0 0 .721.719l3.36-.006a4.3 3.79-.1 0 0 4.293-3.797v-.22a4.3 3.79-.1 0 0-4.307-3.783l-3.36.006a.72.72 45.021 0 0-.719.721M746.803 994.53q3.343-.003 4.28 3.175 3.007 10.195 8.507 32.355a.588.583-7.239 0 1-.57.73h-5.73a.962.956 84.527 0 1-.94-.78l-1.12-5.88a1.151 1.145 83.41 0 0-1.163-.927q-2.156.077-3.236.078t-3.237-.072a1.151 1.145-83.512 0 0-1.162.929l-1.109 5.882a.962.956-84.629 0 1-.939.781l-5.73.011a.588.583 7.137 0 1-.571-.729q5.46-22.17 8.449-32.37.932-3.181 4.271-3.183m-1.97 21.42a.49.49 60.106 0 0 .479.596l3.027-.005a.49.49 83.012 0 0 .477-.598l-1.525-6.778a.49.49-72.894 0 0-.957.002zM779.771 1024.58l.024 5.586a.6.6-45.353 0 1-.598.604l-13.232.056a1.736 1.69-30.751 0 1-.796-.191q-3.03-1.56-3.031-3.929-.007-20.073-.065-31.386a.654.654 45 0 1 .652-.657l5.559-.024a.645.645-65.523 0 1 .648.642l.122 28.196a.575.566-.247 0 0 .576.563l9.555-.041a.583.583-60.426 0 1 .586.581M800.479 1024.496l.03 5.588a.6.6 26.899 0 1-.598.604l-13.236.069a1.736 1.691-30.803 0 1-.797-.19q-3.032-1.558-3.035-3.928-.025-20.079-.093-31.396a.654.654 29.528 0 1 .651-.657l5.561-.029a.645.645-90 0 1 .649.642l.147 28.204a.575.566-.298 0 0 .577.563l9.558-.05a.584.584-.194 0 1 .586.58"></path><path fill="#267e2a" fill-rule="evenodd" d="M555.667 1002.068a.8.8 45 0 1 .803-.797l2.61.009a3.37 3.35.2 0 1 3.358 3.362l-.056 16.02A3.37 3.35.2 0 1 559 1024l-2.61-.009a.8.8-60.001 0 1-.797-.803zM654.317 1020.757a3.15 3.15 0 0 1-3.166 3.133l-.22-.001a3.15 3.15 0 0 1-3.134-3.166l.086-16.3a3.15 3.15 0 0 1 3.166-3.133l.22.001a3.15 3.15 0 0 1 3.134 3.166zM677.524 1020.914a3.11 3.11 0 0 1-3.104 3.116h-.22a3.11 3.11 0 0 1-3.116-3.104l-.028-16.58a3.11 3.11 0 0 1 3.104-3.116h.22a3.11 3.11 0 0 1 3.116 3.104zM716.674 1001.756a.66.66 34.892 0 1 .653-.667l.63-.007a5.47 3.99-.6 0 1 5.512 3.933l.002.2a5.47 3.99-.6 0 1-5.428 4.047l-.63.006a.66.66-88.655 0 1-.667-.653zM744.833 1015.95l1.501-6.783a.49.49-7.565 0 1 .957-.002l1.525 6.778a.49.49-59.945 0 1-.477.598l-3.027.005a.49.49 57.78 0 1-.479-.596M716.764 1016.907a.72.72 45.021 0 1 .719-.721l3.36-.006a4.3 3.79-.1 0 1 4.307 3.783v.22a4.3 3.79-.1 0 1-4.293 3.797l-3.36.006a.72.72-31.553 0 1-.721-.719z" data-source="https://football-logos.cc"></path><!-- source: https://football-logos.cc --></svg>