<svg xmlns="http://www.w3.org/2000/svg" viewBox="379.83 190.73 307.01 418.55"><!-- Source: https://football-logos.cc --><defs data-source="https://football-logos.cc"><clipPath id="a" clipPathUnits="userSpaceOnUse"><path d="M-400.006 456.955h800v-600h-800Z"></path></clipPath><clipPath id="b" clipPathUnits="userSpaceOnUse"><path d="M-491.62 345.408h800v-600h-800Z"></path></clipPath><clipPath id="c" clipPathUnits="userSpaceOnUse"><path d="M-338.372 397.394h800v-600h-800Z"></path></clipPath><clipPath id="d" clipPathUnits="userSpaceOnUse"><path d="M-287.701 353.023h800v-600h-800Z"></path></clipPath><clipPath id="e" clipPathUnits="userSpaceOnUse"><path d="M-290.89 354.1h800v-600h-800Z"></path></clipPath><clipPath id="f" clipPathUnits="userSpaceOnUse"><path d="M-328.445 350.432h800v-600h-800Z"></path></clipPath><clipPath id="g" clipPathUnits="userSpaceOnUse"><path d="M-352.286 350.113h800v-600h-800Z"></path></clipPath><clipPath id="h" clipPathUnits="userSpaceOnUse"><path d="M-364.206 350.55h800v-600h-800Z"></path></clipPath><clipPath id="i" clipPathUnits="userSpaceOnUse"><path d="M-392.352 353.023h800v-600h-800Z"></path></clipPath><clipPath id="j" clipPathUnits="userSpaceOnUse"><path d="M-422.292 357.448h800v-600h-800Z"></path></clipPath><clipPath id="k" clipPathUnits="userSpaceOnUse"><path d="M-434.89 359.123h800v-600h-800Z"></path></clipPath><clipPath id="l" clipPathUnits="userSpaceOnUse"><path d="M-465.428 359.083h800v-600h-800Z"></path></clipPath><clipPath id="m" clipPathUnits="userSpaceOnUse"><path d="M-461.401 364.266h800v-600h-800Z"></path></clipPath><clipPath id="n" clipPathUnits="userSpaceOnUse"><path d="M-472.086 366.618h800v-600h-800Z"></path></clipPath><clipPath id="o" clipPathUnits="userSpaceOnUse"><path d="M-318.997 357.967h800v-600h-800Z"></path></clipPath><clipPath id="p" clipPathUnits="userSpaceOnUse"><path d="M-481.733 356.014h800v-600h-800Z"></path></clipPath><clipPath id="q" clipPathUnits="userSpaceOnUse"><path d="M-400.006 451.414h800v-600h-800Z"></path></clipPath><clipPath id="r" clipPathUnits="userSpaceOnUse"><path d="M-402.957 414.617h800v-600h-800Z"></path></clipPath><clipPath id="s" clipPathUnits="userSpaceOnUse"><path d="M-384.458 403.733h800v-600h-800Z"></path></clipPath><clipPath id="t" clipPathUnits="userSpaceOnUse"><path d="M-412.963 403.853h800v-600h-800Z"></path></clipPath><clipPath id="u" clipPathUnits="userSpaceOnUse"><path d="M-392.75 411.11h800v-600h-800Z"></path></clipPath><clipPath id="v" clipPathUnits="userSpaceOnUse"><path d="M-443.501 239.841h800v-600h-800Z"></path></clipPath><clipPath id="w" clipPathUnits="userSpaceOnUse"><path d="M-443.063 235.575h800v-600h-800Z"></path></clipPath></defs><path d="M0 0c-22.963 15.865-43.016 35.002-59.92 57.248-13.993-3.35-30.298-5.98-44.132-.918-3.469 1.236-4.984 1.755-6.179 5.463-1.915 5.9-2.433 11.76-2.672 18.02-.319 8.372-1.116 16.744-2.232 25.037 4.783 4.943 10.086 7.853 16.624 9.886a67 67 0 0 0 5.023 1.395 222 222 0 0 0-4.704 12.719c-7.056 20.929-11.442 42.816-13.754 65.061-2.631 25.555-2.552 51.15-.718 76.784l71.641 14.791L0 313.911l41.023-28.425 71.641-14.791c1.833-25.634 1.913-51.229-.718-76.784-2.312-22.245-6.697-44.132-13.754-65.061a227 227 0 0 0-5.541-14.792c3.587-.32 9.409-1.396 14.073-3.07 2.232-.797 4.265-1.754 5.701-2.871 3.588-2.631 2.989-5.82 1.675-9.248-2.791-7.176-5.263-14.272-7.137-21.409-2.233-8.531-3.19-16.823-3.19-25.634-9.687-1.874-18.138-1.316-27.747.758a1840 1840 0 0 1-16.983 3.548C42.339 34.364 22.565 15.586 0 0" clip-path="url(#a)" style="fill:#0f298f;fill-opacity:1;fill-rule:nonzero;stroke:none" transform="matrix(1.33333 0 0 -1.33333 533.341 609.273)"></path><path d="M0 0c-1.675-3.867-3.429-7.734-5.302-11.521 2.87-.519 5.581-.838 8.172-.877 4.147-.081 8.253.438 12.359 2.072 7.176 2.871 5.701 4.864-.997 7.296C9.169-1.236 2.87-.12 0 0" clip-path="url(#b)" style="fill:#ffba00;fill-opacity:1;fill-rule:nonzero;stroke:none" transform="matrix(1.33333 0 0 -1.33333 655.493 460.544)"></path><path d="M0 0a272 272 0 0 0-7.375 10.445c-5.343-.24-10.725-.598-15.868-1.554C-29.98 7.613-36.438 5.382-42.1 1.275c-1.076-.796-1.794-1.316 0-2.073C-30.259-5.82-12.558-2.91 0 0" clip-path="url(#c)" style="fill:#ffba00;fill-opacity:1;fill-rule:nonzero;stroke:none" transform="matrix(1.33333 0 0 -1.33333 451.163 529.86)"></path><path d="M0 0c7.654 7.934 20.93 10.326 31.375 11.641 13.475 1.675 27.468 1.994 41.661 1.356 14.152-.599 28.545-2.112 42.818-4.067 23.879-3.308 47.879-7.454 71.321-13.035 14.552-3.509 25.275-5.862 37.435 1.394-6.06-15.548-11.203-30.299-11.123-47.242-8.452-1.594-16.265-.598-24.558 1.196-16.504 3.509-33.05 6.937-49.714 9.568-14.193 2.273-28.824 4.505-43.654 6.1-14.751 1.555-29.622 2.472-44.252 2.073-15.987-.439-33.409-.718-46.326-11.562-2.073 5.502-2.631 10.246-2.791 16.106C1.953-17.621 1.156-8.77 0 0" clip-path="url(#d)" style="fill:#ffba00;fill-opacity:1;fill-rule:nonzero;stroke:none" transform="matrix(1.33333 0 0 -1.33333 383.602 470.698)"></path><path d="M0 0c1.076-8.372 1.794-16.824 1.993-25.315.12-3.788.239-7.496 1.236-11.123 12.279 8.811 30.339 9.129 44.811 9.489 14.75.437 29.74-.479 44.65-2.074 14.831-1.555 29.541-3.827 43.814-6.1 16.704-2.67 33.289-6.06 49.873-9.607 6.737-1.475 13.954-2.672 20.891-1.595.159 13.475 3.827 26.352 8.77 38.79-10.206-3.827-22.325-.957-32.73 1.555-23.362 5.542-47.283 9.728-71.043 12.997-14.113 1.954-28.385 3.428-42.498 4.067-14.073.598-27.947.278-41.223-1.396C19.654 8.571 6.817 6.459 0 0" clip-path="url(#e)" style="fill:#0f298f;fill-opacity:1;fill-rule:nonzero;stroke:none" transform="matrix(1.33333 0 0 -1.33333 387.854 472.133)"></path><path d="m0 0 9.528.08c3.15.039 5.582-.479 7.177-1.596q2.451-1.673 2.511-5.142c.04-1.714-.399-3.11-1.276-4.266-.877-1.116-2.192-1.873-3.827-2.272l6.339-10.685-6.139-.079-5.781 9.807-2.751.04.159-9.927-5.502-.119zm5.621-4.385.08-5.263 3.429-.04c1.595 0 2.711.28 3.349.717.637.44.957 1.158.957 2.114-.04.917-.359 1.554-1.077 1.914-.678.398-1.834.517-3.429.558z" clip-path="url(#f)" style="fill:#ffba00;fill-opacity:1;fill-rule:nonzero;stroke:none" transform="matrix(1.33333 0 0 -1.33333 437.926 467.242)"></path><path d="m0 0 5.74-.08-.438-24.158-5.701.119z" clip-path="url(#g)" style="fill:#ffba00;fill-opacity:1;fill-rule:nonzero;stroke:none" transform="matrix(1.33333 0 0 -1.33333 469.714 466.818)"></path><path d="m0 0 5.582-.398 9.847-15.39.996 14.552 5.262-.36-1.634-24.079-5.262.359L4.665-9.289l-1.037-15.15-5.263.359z" clip-path="url(#h)" style="fill:#ffba00;fill-opacity:1;fill-rule:nonzero;stroke:none" transform="matrix(1.33333 0 0 -1.33333 485.607 467.401)"></path><path d="m0 0 10.246-1.275c3.31-.399 5.78-1.795 7.375-4.147 1.595-2.351 2.153-5.422 1.715-9.17-.279-2.311-.877-4.304-1.755-5.978-.917-1.635-2.072-2.911-3.548-3.788a6.9 6.9 0 0 0-2.591-.997c-.877-.159-2.193-.12-3.867.08l-.24.04-10.206 1.275zm4.943-5.74L3.269-19.613l4.066-.48c1.755-.239 3.19.159 4.227 1.197 1.036 1.037 1.674 2.71 1.954 4.982.278 2.154.04 3.908-.679 5.263-.757 1.356-1.833 2.153-3.309 2.313z" clip-path="url(#i)" style="fill:#ffba00;fill-opacity:1;fill-rule:nonzero;stroke:none" transform="matrix(1.33333 0 0 -1.33333 523.135 470.698)"></path><path d="m0 0 6.578-.679 5.382-25.155-5.661.798-.917 4.824-9.09 1.035-2.112-4.385-5.542.797zm2.83-6.419-4.465-8.133 6.06-.597z" clip-path="url(#j)" style="fill:#ffba00;fill-opacity:1;fill-rule:nonzero;stroke:none" transform="matrix(1.33333 0 0 -1.33333 563.056 476.598)"></path><path d="m0 0 5.661-1.076 3.668-17.901L18.02-3.349l5.582-.997-12.917-22.166-5.382.998z" clip-path="url(#k)" style="fill:#ffba00;fill-opacity:1;fill-rule:nonzero;stroke:none" transform="matrix(1.33333 0 0 -1.33333 579.853 478.83)"></path><path d="m0 0-3.668-4.106 4.744-.877 6.618 3.269z" clip-path="url(#l)" style="fill:#ffba00;fill-opacity:1;fill-rule:nonzero;stroke:none" transform="matrix(1.33333 0 0 -1.33333 620.57 478.777)" data-source="https://football-logos.cc"></path><path d="m0 0 5.661-1.116-3.748-23.681-5.661 1.116z" clip-path="url(#m)" style="fill:#ffba00;fill-opacity:1;fill-rule:nonzero;stroke:none" transform="matrix(1.33333 0 0 -1.33333 615.202 485.687)"></path><path d="m0 0 5.501-1.075-1.834-10.008L14.472-2.83l6.458-1.276-12.678-9.409 9.927-14.351-6.498.877L3.148-14.87l-1.314-9.887-5.502 1.076z" clip-path="url(#n)" style="fill:#ffba00;fill-opacity:1;fill-rule:nonzero;stroke:none" transform="matrix(1.33333 0 0 -1.33333 629.448 488.824)"></path><path d="M0 0c-1.555 1.236-3.349 1.953-5.422 1.635-4.824-.678-6.937-5.143-6.18-9.01 1.436-7.375 9.011-6.26 12.12-4.227L0-8.014l-4.505-.437-.598 4.385 9.927 1.117L6.02-13.993c-6.14-6.379-18.419-6.577-22.405 2.431-3.07 6.937-.08 16.666 10.166 18.14 3.428.479 6.498-.279 9.09-2.432z" clip-path="url(#o)" style="fill:#ffba00;fill-opacity:1;fill-rule:nonzero;stroke:none" transform="matrix(1.33333 0 0 -1.33333 425.329 477.29)"></path><path d="M0 0c4.744 9.529 8.811 19.376 12.199 29.343 6.937 20.571 11.242 42.178 13.515 64.066 2.512 24.159 2.552 48.677.917 72.597l-69.129 14.312-39.23 27.11-39.229-27.11-69.128-14.312c-1.635-23.92-1.595-48.438.917-72.597 2.272-21.888 6.578-43.495 13.514-64.066a261 261 0 0 1 4.904-13.156c1.276.239 2.552.438 3.827.637a220 220 0 0 0-5.143 13.715c-6.897 20.491-11.122 41.78-13.355 63.268-2.352 22.923-2.512 46.086-1.077 69.089l67.057 13.874 37.713 26.113 37.714-26.113 67.057-13.874c1.435-23.003 1.315-46.166-1.077-69.089-2.232-21.488-6.458-42.777-13.355-63.268C5.222 20.452 1.036 10.525-3.787.838-2.512.559-1.236.239 0 0" clip-path="url(#p)" style="fill:#ffba00;fill-opacity:1;fill-rule:nonzero;stroke:none" transform="matrix(1.33333 0 0 -1.33333 642.311 474.685)"></path><path d="M0 0c20.213 14.152 38.591 31.733 54.1 51.588-.957.199-1.873.357-2.83.557-.439.08-.878.16-1.356.279C35.562 34.285 18.777 18.1 0 4.625-20.292 19.176-38.312 36.956-53.382 56.89a206 206 0 0 0-5.741 7.853c-.637 0-1.235 0-1.834-.04a56 56 0 0 1-2.67-.08 256 256 0 0 1 7.215-10.006C-40.425 33.527-21.249 14.871 0 0" clip-path="url(#q)" style="fill:#ffba00;fill-opacity:1;fill-rule:nonzero;stroke:none" transform="matrix(1.33333 0 0 -1.33333 533.341 601.885)"></path><path d="M0 0a2 2 0 0 1 .558-1.037c.438-.358.996-.558 1.633-.558.917 0 2.035.519 2.154 1.515.279 2.152-1.993 2.232-3.349 1.994v2.71c1.195-.198 3.389-.319 3.389 1.635 0 1.116-1.237 1.754-2.194 1.754a2.57 2.57 0 0 1-1.633-.597 2 2 0 0 1-.519-.878h-2.99c.04 1.235.638 2.313 1.515 3.15a5.7 5.7 0 0 0 3.627 1.315A5.5 5.5 0 0 0 5.78 9.688c.997-.877 1.595-2.114 1.595-3.469 0-1.116-.559-2.194-1.316-2.99.757-.836 1.316-1.954 1.316-3.07 0-1.355-.598-2.592-1.595-3.469a5.5 5.5 0 0 0-3.589-1.315c-1.394 0-2.67.519-3.627 1.315-.917.877-1.515 2.034-1.555 3.31z" clip-path="url(#r)" style="fill:#ffba00;fill-opacity:1;fill-rule:nonzero;stroke:none" transform="matrix(1.33333 0 0 -1.33333 535.276 552.823)"></path><path d="M0 0v-14.95h-3.03v10.644l-2.312-2.232-2.273 1.674L-3.03 0Z" clip-path="url(#s)" style="fill:#ffba00;fill-opacity:1;fill-rule:nonzero;stroke:none" transform="matrix(1.33333 0 0 -1.33333 510.61 538.311)"></path><path d="M0 0h8.811v-3.029H3.189v-2.632c3.27.518 7.057-1.116 7.017-4.943 0-2.791-2.552-4.785-5.223-4.785-2.591 0-5.023 1.914-5.103 4.625h2.951c.119-1.037 1.235-1.594 2.152-1.594 1.994 0 3.07 2.311 1.197 3.428-.878.559-2.154.638-2.991.2H0Z" clip-path="url(#t)" style="fill:#ffba00;fill-opacity:1;fill-rule:nonzero;stroke:none" transform="matrix(1.33333 0 0 -1.33333 548.617 538.471)"></path><path d="M0 0c2.791 0 3.109 4.227 0 4.227C-2.791 4.227-3.11 0 0 0m1.036-7.574h-3.389L.398-2.87c-4.704-.638-7.973 5.063-4.186 8.93A5.7 5.7 0 0 0 0 7.495c1.435 0 2.75-.558 3.748-1.435 1.395-1.316 1.913-3.109 1.554-4.785-.677-2.989-2.91-6.138-4.266-8.849" clip-path="url(#u)" style="fill:#ffba00;fill-opacity:1;fill-rule:nonzero;stroke:none" transform="matrix(1.33333 0 0 -1.33333 521.667 548.146)"></path><path d="M0 0c-16.505 13.475-38.95 19.734-59.322 10.685-16.944-7.535-26.432-24.16-27.15-42.259-.916-22.206 11.961-39.19 33.369-45.448 13.436-3.907 28.745-3.19 41.662 1.155v22.964h-44.373l.678 1.993 12.638 36.239H30.14v-86.67c-5.981-3.191-12.08-6.259-18.3-8.97-1.794.358-3.548.717-5.302 1.076 6.937 2.75 13.754 6.1 20.571 9.688v81.846h-67.455l-11.242-32.173h43.176v-28.145c-14.551-5.144-30.657-6.26-45.528-1.874-22.724 6.618-36.518 24.877-35.561 48.438.797 19.256 10.963 36.877 28.983 44.891 19.894 8.85 43.335 3.866 60.08-9.17l21.886 26.91C-5.661 52.664-43.335 59.481-75.508 44.691c-29.741-13.634-47.761-43.016-48.797-75.388-.837-26.552 10.046-50.471 29.98-66.538h-4.665c-18.896 16.584-29.182 40.425-28.345 66.657 1.076 33.488 19.814 63.907 50.551 78.02C-43.056 62.95-3.588 55.495 24.519 32.571l1.195-.956-.957-1.157z" clip-path="url(#v)" style="fill:#fff;fill-opacity:1;fill-rule:nonzero;stroke:none" transform="matrix(1.33333 0 0 -1.33333 591.335 319.788)"></path><path d="m0 0 21.887 26.91C-5.223 48.398-42.897 55.215-75.07 40.425c-29.741-13.634-47.76-43.016-48.797-75.388-.837-26.552 10.047-50.472 29.98-66.538 11.044-.04 22.126-.758 33.17-1.834 19.176-1.914 38.431-4.824 57.447-8.252 3.429-.639 6.818-1.276 10.247-1.914 6.936 2.75 13.753 6.1 20.571 9.688v81.846h-67.455L-51.149-54.14h43.175v-28.145c-14.55-5.144-30.657-6.26-45.527-1.874-22.725 6.618-36.519 24.877-35.562 48.438.797 19.256 10.963 36.877 28.983 44.89C-40.186 18.02-16.744 13.036 0 0" clip-path="url(#w)" style="fill:#ffba00;fill-opacity:1;fill-rule:nonzero;stroke:none" transform="matrix(1.33333 0 0 -1.33333 590.75 314.1)" data-source="https://football-logos.cc"></path><!-- source: https://football-logos.cc --></svg>