<svg xmlns="http://www.w3.org/2000/svg" viewBox="0 0 530 530"><!-- Source: https://football-logos.cc --><path fill="#eb212c" fill-rule="evenodd" d="M265 530c145.9 0 265-119.1 265-265S410.9 0 265 0 0 119.1 0 265s119.1 265 265 265" data-source="https://football-logos.cc"></path><path fill="#fff" fill-rule="evenodd" d="M265 517.3c138.9 0 252.3-113.4 252.3-252.3S403.9 12.7 265 12.7 12.7 126.1 12.7 265 126.1 517.3 265 517.3"></path><path fill="#eb212c" fill-rule="evenodd" d="M265 504.5c131.9 0 239.5-107.6 239.5-239.5S396.9 25.5 265 25.5 25.5 133.1 25.5 265 133.1 504.5 265 504.5" data-source="https://football-logos.cc"></path><path fill="#fff" fill-rule="evenodd" d="M281.7 283.9v88.9h-41.1v-88.9H140.5v88.9H99.4V160.4h41.1V249h100.1v-88.6h41.1V249H302l79.9-88.7h49l-95.6 106.2L431 372.8h-49l-80.1-88.9z" data-source="https://football-logos.cc"></path><!-- source: https://football-logos.cc --></svg>