<svg xmlns="http://www.w3.org/2000/svg" viewBox="85.33 50.67 495.68 566.93"><!-- Source: https://football-logos.cc --><defs data-source="https://football-logos.cc"><clipPath id="a" clipPathUnits="userSpaceOnUse"><path d="M-78.293 74.805h500v-500h-500Z"></path></clipPath><clipPath id="b" clipPathUnits="userSpaceOnUse"><path d="M-305.934 52.606h500v-500h-500Z"></path></clipPath><clipPath id="c" clipPathUnits="userSpaceOnUse"><path d="M-248.773 450.59h500v-500h-500Z"></path></clipPath><clipPath id="d" clipPathUnits="userSpaceOnUse"><path d="M-251.254 433.707h500v-500h-500Z"></path></clipPath><clipPath id="e" clipPathUnits="userSpaceOnUse"><path d="M-251.29 88.203h500v-500h-500Z"></path></clipPath><clipPath id="f" clipPathUnits="userSpaceOnUse"><path d="M-184.871 228.488h500v-500h-500Z"></path></clipPath><clipPath id="g" clipPathUnits="userSpaceOnUse"><path d="M-370.277 154.356h500v-500h-500Z"></path></clipPath><clipPath id="h" clipPathUnits="userSpaceOnUse"><path d="M-368.852 136.84h500v-500h-500Z"></path></clipPath><clipPath id="i" clipPathUnits="userSpaceOnUse"><path d="M-129.5 154.356h500v-500h-500Z"></path></clipPath><clipPath id="j" clipPathUnits="userSpaceOnUse"><path d="M-122.988 156.645h500v-500h-500Z"></path></clipPath><clipPath id="k" clipPathUnits="userSpaceOnUse"><path d="M-288.644 188.473h500v-500h-500Z"></path></clipPath><clipPath id="l" clipPathUnits="userSpaceOnUse"><path d="M-318.844 117.81h500v-500h-500Z"></path></clipPath><clipPath id="m" clipPathUnits="userSpaceOnUse"><path d="M-211.707 173.258h500v-500h-500Z"></path></clipPath><clipPath id="n" clipPathUnits="userSpaceOnUse"><path d="M-377.59 327.313h500v-500h-500Z"></path></clipPath><clipPath id="o" clipPathUnits="userSpaceOnUse"><path d="M-381.746 326.703h500v-500h-500Z"></path></clipPath><clipPath id="p" clipPathUnits="userSpaceOnUse"><path d="M-354.375 329.363h500v-500h-500Z"></path></clipPath><clipPath id="q" clipPathUnits="userSpaceOnUse"><path d="M-325.496 329.363h500v-500h-500Z"></path></clipPath><clipPath id="r" clipPathUnits="userSpaceOnUse"><path d="M-300.312 327.504h500v-500h-500Z"></path></clipPath><clipPath id="s" clipPathUnits="userSpaceOnUse"><path d="M-266.863 325.766h500v-500h-500Z"></path></clipPath><clipPath id="t" clipPathUnits="userSpaceOnUse"><path d="M-239.121 314.438h500v-500h-500Z"></path></clipPath><clipPath id="u" clipPathUnits="userSpaceOnUse"><path d="M-224.891 350.516h500v-500h-500Z"></path></clipPath><clipPath id="v" clipPathUnits="userSpaceOnUse"><path d="M-200.934 350.516h500v-500h-500Z"></path></clipPath><clipPath id="w" clipPathUnits="userSpaceOnUse"><path d="M-161.223 314.438h500v-500h-500Z"></path></clipPath><clipPath id="x" clipPathUnits="userSpaceOnUse"><path d="M-138.762 341.613h500v-500h-500Z"></path></clipPath><clipPath id="y" clipPathUnits="userSpaceOnUse"><path d="M-113.457 302.356h500v-500h-500Z"></path></clipPath><clipPath id="z" clipPathUnits="userSpaceOnUse"><path d="M-142 402.742h500v-500h-500Z"></path></clipPath><clipPath id="A" clipPathUnits="userSpaceOnUse"><path d="M-164.832 394.586h500v-500h-500Z"></path></clipPath><clipPath id="B" clipPathUnits="userSpaceOnUse"><path d="M-163.914 415.766h500v-500h-500Z"></path></clipPath><clipPath id="C" clipPathUnits="userSpaceOnUse"><path d="M-180.719 402.707h500v-500h-500Z"></path></clipPath><clipPath id="D" clipPathUnits="userSpaceOnUse"><path d="M-190.46 416.235h500v-500h-500Z"></path></clipPath><clipPath id="E" clipPathUnits="userSpaceOnUse"><path d="M-199.344 414.266h500v-500h-500Z"></path></clipPath><clipPath id="F" clipPathUnits="userSpaceOnUse"><path d="M-208.957 420.629h500v-500h-500Z"></path></clipPath><clipPath id="G" clipPathUnits="userSpaceOnUse"><path d="M-311.48 425.59h500v-500h-500Z"></path></clipPath><clipPath id="H" clipPathUnits="userSpaceOnUse"><path d="M-315.21 409.746h500v-500h-500Z"></path></clipPath><clipPath id="I" clipPathUnits="userSpaceOnUse"><path d="M-320.766 403.45h500v-500h-500Z"></path></clipPath><clipPath id="J" clipPathUnits="userSpaceOnUse"><path d="M-333.793 401.758h500v-500h-500Z"></path></clipPath></defs><path d="m0 0 18.152 20.207c41.864-7.262 73.364-10.07 96.407 15.633 17.738-19.332 38.703-22.387 57.582-22.328 18.875.058 36.347 2.473 55.683 23.293 15.289-18.863 43.418-28.477 95.098-15.969L342.914.684c-36.113-56.465-32.144-124.723 14.555-207.078l-18.664-17.941c7.453-102.547-64.797-142.825-138.368-148.302l-28.773-15.753-27.398 15.753C55.414-365.792-3.332-317.964 4.293-223.648l-18.586 16.566C31.535-123.797 35.273-54.769 0 0" clip-path="url(#a)" style="fill:#000200;fill-opacity:1;fill-rule:evenodd;stroke:none" transform="matrix(1.33333 0 0 -1.33333 104.39 99.74)"></path><path d="M0 0c-16.086-14.195-32.555-18.929-55.469-19-22.211-.07-41.27 4.528-57.597 18.336-26.059-21.746-60.024-17.949-92.556-12.457l-9.218-10.258c4.669-8.082 8.633-16.546 11.804-25.343 21.633-60 2.622-123.992-25.957-178.278l16.34-14.566-.413-5.113c-2.746-33.946 3.089-68.25 26.313-94.414 25.952-29.235 66.467-40.555 104.171-43.457l2.329-.18 24.401-14.035 25.653 14.051 2.23.164c31.145 2.316 63.824 11.32 88.59 31.043 33.277 26.5 43.246 65.097 40.257 106.226l-.351 4.828 16.43 15.793c-28.059 51.633-46.953 111.547-29.34 169.801 3.574 11.832 8.528 23.117 14.66 33.801L92.004-12.703C61.113-19.461 24.633-21.371 0 0" clip-path="url(#b)" style="fill:#2d3b80;fill-opacity:1;fill-rule:evenodd;stroke:none" transform="matrix(1.33333 0 0 -1.33333 407.911 70.141)"></path><path d="m0 0-1.671 50.887-18.418-10.715 22.437 102.48-17.082-16.074 5.695 66.984 16.075-1.339-3.348-25.789 30.477 30.14L1.344 71.988l17.078 12.055L2.293-.23l-.976-.536Z" clip-path="url(#c)" style="fill:#fbe430;fill-opacity:1;fill-rule:evenodd;stroke:none" transform="matrix(1.33333 0 0 -1.33333 331.697 600.786)"></path><path d="m0 0 11.551 60.347-17.743-12.523 32.114 121.902-28.86-28.543 4.075 31.395-9.891.824-4.766-56.062 18.45 17.359-23.063-105.32 16.848 9.804Z" clip-path="url(#d)" style="fill:#e30822;fill-opacity:1;fill-rule:evenodd;stroke:none" transform="matrix(1.33333 0 0 -1.33333 335.005 578.276)"></path><path d="M0 0a92.73 92.73 0 0 0 65.574-27.164 92.73 92.73 0 0 0 27.16-65.571c0-37.507-22.593-71.324-57.246-85.675-34.652-14.356-74.539-6.422-101.062 20.101-26.52 26.524-34.453 66.41-20.102 101.063C-71.32-22.594-37.508 0 0 0" clip-path="url(#e)" style="fill:#000200;fill-opacity:1;fill-rule:evenodd;stroke:none" transform="matrix(1.33333 0 0 -1.33333 335.052 117.604)"></path><path d="M0 0c12.602-14.516 22-22.848 40.629-29.336l7.594 6.929C41.664-15.004 36.391-6.844 31.266 1.597 22.246 4.043 13.375 6.761 4.5 9.687Zm127.664 9.332C118.879 5.89 109.656 3.421 100.715.41c-5.063-8.321-10.402-15.657-16.879-22.918l7.102-7.555c18.835 6.449 28.304 14.691 40.843 29.078zM48.25 21.566C44.313 14.46 39.094 7.929 33.16 2.402L33 2.25c5.059-8.321 10.277-16.375 16.777-23.668 10.5-1.887 21.711-1.942 32.274-.356l.101.112c6.621 7.384 12.038 14.818 17.18 23.298l.172.285.312.106c9.247 3.129 18.817 5.66 27.879 9.273 4.723 8.813 8.082 18.348 9.262 28.301l-.176.352c-4.254 8.484-9.734 16.453-16.254 23.355-7.152-1.723-14.847-3.765-21.582-6.672l-.531-.226-.43.379c-9.129 8.019-20.566 16.855-31.222 22.746a131 131 0 0 1-6.723-3.992c-8.371-5.297-17.871-12.411-24.609-19.711l-.453-.493-.606.289c-6.519 3.114-13.293 5.559-19.828 8.637-7.68-6.508-13.305-13.808-18.887-22.18l-.16-.242c.778-10.965 4.113-20.711 9.274-30.332 8.886-2.929 17.765-5.66 26.797-8.109l.355.332c5.949 5.543 11.168 12.125 15.047 19.281l.316.582.649-.125c13.961-2.609 29.98-2.222 44.05-.683l.903.101.199-1.812-.906-.098c-14.035-1.535-29.946-1.93-43.93.586M38.895 114.5c9.132-2.793 18.949-5.227 27.886-8.559 9.364 2.973 18.629 5.445 28.215 7.613L92 124.304c-15.156 5.375-34.555 5.922-49.648.285zm56.957-2.622c-9.512-2.14-18.758-4.589-28.055-7.527l-.043-23.289c10.578-5.863 21.875-14.551 31-22.527 6.582 2.777 14.004 4.765 20.965 6.453.594 9.922.719 19.707.019 29.629-6.711 6.64-15.773 12.426-23.886 17.261m25.753-17.89c.645-9.738.512-19.352-.066-29.098 6.656-6.984 12.266-15.051 16.633-23.652l9.457 5.953c.223 19.535-5.395 33.043-16.246 49.41zM3.828 110.941a89.3 89.3 0 0 0 24.059 16.957c4.222-.801 8.5-2.105 12.547-3.297l-3.442-10.039-.097-.062c-7.121-4.567-14.211-9.356-20.348-15.215l-.656-.629 1.258-1.317.656.629c6.031 5.758 13.012 10.473 20.008 14.957 9.222-2.836 19.121-5.273 28.164-8.625l-.039-23.144a131 131 0 0 1-6.875-4.074c-8.321-5.27-17.7-12.278-24.512-19.524-6.512 3.063-13.258 5.5-19.754 8.602l-.527.254-.45-.375C5.867 59.394.067 51.953-5.656 43.398l-8.969 4.867c.16 19.313 5.031 31.723 15.555 47.742l13.324-.925.125 1.812-12.719.887c.321 4.238 1.094 8.84 2.168 13.16m-26.039-72.543a90 90 0 0 0-.465 9.152c0 23.539 9.141 44.95 24.059 60.879-.766-3.613-1.309-7.316-1.555-10.785-11.109-16.777-16.199-29.672-16.273-49.918l-.004-.098c-2.203-3.113-4.094-6.097-5.762-9.23m8.09-28.977a88.5 88.5 0 0 0-7.691 25.739c1.886 3.914 4.082 7.496 6.75 11.273l8.746-4.746c.793-11.129 4.152-21.043 9.359-30.809l-4.57-9.847c-4.645 2.367-8.821 4.922-12.594 8.39m62.184-49.066C22.051-34.196.207-17.399-12.051 5.328-8.824 2.886-5.34.898-1.547-.997c13.012-15.015 22.723-23.578 42.082-30.23zm31.699-.902a89 89 0 0 0-13.344-.996 89.5 89.5 0 0 0-15.41 1.332l-8.805 9.847 7.746 7.067c10.559-1.836 21.789-1.865 32.387-.274l7.102-7.554zm64.121 44.07c-12.727-22.34-34.836-38.637-60.961-43.535l8.363 8.139.039.017c19.559 6.66 29.301 15.227 42.366 30.293 3.626 1.234 7.068 2.926 10.193 5.086m10.246 28.32A88.4 88.4 0 0 0 146 7.464c-3.715-3.234-8.063-5.636-12.738-7.25l-4.032 10.102c4.883 9.07 8.344 18.894 9.543 29.148l9.528 5.996c2.215-4.085 4.472-9.007 5.828-13.617m-23.52 77.477c15.418-16.016 24.903-37.789 24.903-61.77 0-3.992-.266-7.922-.778-11.773-1.453 3.945-3.367 7.906-5.23 11.269l-.059.106c.231 19.875-5.461 33.715-16.476 50.348-.649 3.929-1.418 7.902-2.36 11.82m-24.015 17.762a89.3 89.3 0 0 0 21.504-15.25c1.179-4.43 2.113-8.965 2.879-13.457l-9.805-2.618c-6.797 6.778-15.957 12.657-24.232 17.59l-3.03 10.879c3.656 1.199 8.336 2.199 12.684 2.856m-40.176 9.562c13.328 0 25.973-2.934 37.328-8.184-3.773-.671-7.598-1.566-10.687-2.601-15.711 5.699-35.918 6.285-51.602.336-3.488 1.027-7.133 2.14-10.785 2.976 10.941 4.801 23.031 7.473 35.746 7.473" clip-path="url(#f)" style="fill:#fff;fill-opacity:1;fill-rule:evenodd;stroke:none" transform="matrix(1.33333 0 0 -1.33333 246.495 304.65)"></path><path d="m0 0 10.832 1.274-36.84-115.707 13.965 5.929-35.102-82.746 14.286 56.688-10.235-2.953L-10.215-23.57l-6.555-.996L4.535 49.016z" clip-path="url(#g)" style="fill:#fbe430;fill-opacity:1;fill-rule:evenodd;stroke:none" transform="matrix(1.33333 0 0 -1.33333 493.703 205.808)"></path><path d="m0 0-11.109-38.371 6.547.996-32.668-113.219 10.027 2.891-5.985-23.758 16.848 39.715-13.137-5.578L7.941-19.805l-9.882-1.16z" clip-path="url(#h)" style="fill:#e30822;fill-opacity:1;fill-rule:evenodd;stroke:none" transform="matrix(1.33333 0 0 -1.33333 491.802 182.453)"></path><path d="m0 0-10.832 1.274 36.84-115.707-13.965 5.929 30.191-71.171-6.464 33.562-2.911 11.551 10.235-2.953L10.219-23.57l6.551-.996-21.305 73.582z" clip-path="url(#i)" style="fill:#fbe430;fill-opacity:1;fill-rule:evenodd;stroke:none" transform="matrix(1.33333 0 0 -1.33333 172.667 205.808)"></path><path d="m0 0 37.418-117.519-13.14 5.578 16.847-39.715-5.984 23.758 10.027-2.891L12.5-17.57l6.547-.996L7.938 19.805 9.879-1.16Z" clip-path="url(#j)" style="fill:#e30822;fill-opacity:1;fill-rule:evenodd;stroke:none" transform="matrix(1.33333 0 0 -1.33333 163.984 208.86)"></path><path d="M0 0v-45.301c0-2.441.77-4.484 2.801-5.89 1.484-.961 2.609-2.309 2.609-4.156v-3.833c0-1.933-1.262-2.859-3.109-2.859h-26.449c-1.711 0-2.758.984-2.758 2.711v3.981c0 1.812 1.164 3.164 2.578 4.14 2.016 1.445 2.832 3.457 2.832 5.906v100.75c0 2.493-.91 4.454-2.969 5.856-1.515.949-2.703 2.293-2.703 4.164v3.836c0 1.742 1.004 2.797 2.762 2.797H19.52c2.015 0 4.105.172 6.097.312.863.102 1.949.27 2.813.27.929 0 2.461-.051 3.132-.793l.032-.031.023-.036c.528-.703.586-1.937.586-2.781V43.688c0-2.09-1.359-3.118-3.367-3.118h-3.301c-.957 0-2.086.192-2.726 1.008-.637.875-1.039 3.539-1.207 4.61-.559 3.425-1.719 8.617-4.426 11.05-2.457 2.18-6.004 2.735-9.176 2.735H0V11.836h4.672c1.258 0 3.058.188 3.949 1.203 1.094 1.246 2.004 4.078 2.477 5.653.273.878 1.015 3.414 1.574 4.105.578.723 1.828.805 2.68.805h3.73c1.898 0 3.141-1.024 3.141-2.973V-8.707c0-1.738-.852-3.058-2.703-3.058h-4.168c-.887 0-1.977.152-2.579.878-.601.711-1.136 2.477-1.421 3.379-.45 1.582-1.637 5.45-3.106 6.411A6.2 6.2 0 0 1 4.672 0Zm-75.118 23.192 15.723 32.668c.551 1.082.945 2.253.945 3.484 0 .746-1.23 1.695-1.754 2.07-1.362.961-2.586 2.293-2.586 4.055v3.43c0 1.964 1.114 3.203 3.11 3.203h25.032c2.065 0 3.511-1.035 3.511-3.203v-3.43c0-.992-.148-2.152-.902-2.879-.719-.758-2.328-1.547-3.262-2.008-5.606-2.66-9.812-6.687-12.538-12.273l-13.056-26.465 21.09-61.742c1.481-4.465 4.09-8.114 7.895-10.883 1.617-1.207 3.234-2.91 3.234-5.059v-2.82c0-2.219-1.34-3.379-3.515-3.379h-28.157c-2.241 0-3.629 1.172-3.629 3.469v2.64c0 1.79.767 3.231 2.148 4.379.869.661 2.86 2.289 2.86 3.524 0 .793-.198 1.59-.469 2.34L-75.118-.121v-45.18c0-2.449.813-4.461 2.822-5.902 1.424-.98 2.589-2.332 2.589-4.144v-3.833c0-1.933-1.262-2.859-3.109-2.859h-26.45c-1.711 0-2.761.984-2.761 2.711v3.981c0 1.847 1.125 3.195 2.597 4.148 2.048 1.414 2.817 3.457 2.817 5.898v100.75c0 2.414-.813 4.395-2.821 5.786-1.461 1.007-2.593 2.386-2.593 4.234v3.746c0 1.93 1.257 2.887 3.11 2.887h26.448c1.716 0 2.762-.981 2.762-2.711v-3.922c0-1.848-1.132-3.227-2.594-4.234-2.008-1.391-2.817-3.372-2.817-5.786z" clip-path="url(#k)" style="fill:#000200;fill-opacity:1;fill-rule:evenodd;stroke:none" transform="matrix(1.33333 0 0 -1.33333 384.86 251.297)"></path><path d="M0 0c-.363.168-1.437.199-1.77.199-.785 0-1.839-.168-2.644-.261-2.059-.145-4.207-.321-6.266-.321h-43.925c-.743 0-.942-.242-.942-.976v-3.836c0-1.199.914-2.035 1.879-2.641 2.57-1.754 3.793-4.285 3.793-7.379v-100.75c0-3.039-1.102-5.597-3.602-7.394-.894-.617-1.808-1.488-1.808-2.652v-3.981c0-.707.238-.891.937-.891h26.45c.832 0 1.289.153 1.289 1.039v3.833c0 1.191-.852 2.027-1.801 2.644-2.543 1.758-3.61 4.356-3.61 7.402v47.118h6.493a8 8 0 0 0 4.582-1.399c2.004-1.308 3.23-5.242 3.843-7.402.168-.535.719-2.321 1.07-2.735.177-.187.954-.226 1.184-.226h4.168c.789 0 .883.531.883 1.238v29.336c0 .918-.437 1.152-1.32 1.152h-3.731c-.254 0-1.015-.027-1.281-.16-.379-.601-1.031-2.816-1.234-3.465-.567-1.894-1.528-4.816-2.848-6.32-1.293-1.465-3.461-1.82-5.316-1.82h-6.493v51.777h9.821c3.652 0 7.57-.695 10.39-3.195 3.09-2.781 4.372-8.192 5.008-12.125.102-.641.524-3.305.864-3.797.191-.25 1-.285 1.273-.285h3.301c.996 0 1.547.242 1.547 1.297v25.355C.184-1.32.156-.359 0 0" clip-path="url(#l)" style="fill:#e30822;fill-opacity:1;fill-rule:evenodd;stroke:none" transform="matrix(1.33333 0 0 -1.33333 425.125 157.079)"></path><path d="M0 0v40.234c0 3.016 1.098 5.551 3.605 7.286.938.644 1.805 1.527 1.805 2.734v3.922c0 .707-.242.89-.941.89H-21.98c-.84 0-1.289-.179-1.289-1.066v-3.746c0-1.207.871-2.09 1.808-2.734 2.504-1.735 3.606-4.27 3.606-7.286v-100.75c0-3.046-1.071-5.644-3.622-7.41-.941-.609-1.792-1.445-1.792-2.636v-3.981c0-.707.242-.891.941-.891H4.121c.832 0 1.289.153 1.289 1.039v3.833c0 1.164-.918 2.035-1.816 2.656C1.102-66.113 0-63.555 0-60.516v56.067l19.215-55.844c.344-.949.574-1.941.574-2.949 0-2.016-2.101-3.852-3.547-4.945-.949-.793-1.461-1.711-1.461-2.958v-2.64c0-1.274.578-1.649 1.809-1.649h28.156c1.168 0 1.695.36 1.695 1.559v2.82c0 1.481-1.406 2.782-2.492 3.59-4.109 2.996-6.941 6.949-8.543 11.77L14.074 6.754l13.391 27.144c2.906 5.954 7.41 10.274 13.383 13.11.652.32 2.25 1.101 2.742 1.629l.019.023.024.024c.308.289.347 1.187.347 1.57v3.43c0 1.125-.636 1.382-1.691 1.382H17.258c-.981 0-1.289-.429-1.289-1.382v-3.43c0-1.098.988-1.988 1.816-2.57 1.137-.813 2.524-2.036 2.524-3.555 0-1.524-.454-2.957-1.133-4.293z" clip-path="url(#m)" style="fill:#e30822;fill-opacity:1;fill-rule:evenodd;stroke:none" transform="matrix(1.33333 0 0 -1.33333 282.276 231.01)"></path><path d="M0 0v-19.301c1.668.035 3.41.403 4.695 1.524 1.598 1.406 2.278 4.89 2.578 6.882.637 4.097.844 8.304.844 12.45 0 3.949-.082 8.125-.637 12.039-.304 2.133-.742 4.672-1.57 6.664-.484 1.137-1.203 2.371-2.258 3.066-1.011.68-2.425.953-3.652 1.067V4.977h4.766V0Zm-8.359 0h-2.071v4.977h2.071v17.535c0 .863-.223 1.715-.973 2.226-.566.41-1.098.981-1.098 1.727v1.754c0 .621.543.808 1.071.808h8.722c5.176 0 9.367-2.203 12.68-6.14 4.297-5.133 5.133-13.336 5.133-19.762 0-4.52-.477-9.02-1.531-13.414-.868-3.609-2.356-7.273-4.981-9.969-2.867-2.945-7.668-3.554-11.574-3.554h-8.621c-.555 0-.899.316-.899.878v1.707c0 .688.426 1.204.957 1.586.785.598 1.114 1.407 1.114 2.383zm-14.856-1.445h8.461c.363 0 .957-.008 1.242-.25.297-.228.332-.68.332-1.028 0-.379-.062-.82-.105-1.195a48 48 0 0 1-.156-3.598v-9.41c0-.429.078-.883.398-1.179.348-.29.504-.689.504-1.137v-1.203c0-.672-.453-1.185-.973-1.543-.894-.633-2.492-1.199-3.519-1.563-1.906-.687-3.922-.972-5.942-.972-13.515 0-15.5 14.539-15.5 25.136 0 4.582.465 9.153 1.485 13.617.914 4.004 2.523 7.797 5.144 10.985 2.004 2.441 4.629 4.512 7.93 4.512 1.59 0 3.168-.497 4.598-1.165.254-.125.679-.317.968-.317.125 0 .536.196.653.25.265.118.566.224.859.224h1.305c.781 0 1.242-.418 1.242-1.211V16.422c0-.742-.352-1.277-1.141-1.277h-1.406c-.309 0-.82.007-1.023.268-.207.239-.543 1.931-.614 2.263-.601 2.789-1.976 7.582-5.578 7.582-1.328 0-2.316-.645-3.074-1.72-1.199-1.694-1.633-6.362-1.801-8.39a158 158 0 0 1-.558-13.332c0-3.789.089-7.696.535-11.461.258-2.179.59-4.671 1.258-6.765.316-.985.851-2.32 1.668-3 .644-.524 1.382-.766 2.214-.766 2.25 0 2.649 2.063 2.649 3.926v7.258c0 .73-.055 1.89-.442 2.543-.351.629-1.183 1.069-1.816 1.336-.527.207-.937.59-.937 1.187v1.41c0 .711.453 1.071 1.14 1.071m-28.879 0h8.465c.359 0 .953-.008 1.238-.25.297-.228.336-.68.336-1.028 0-.379-.062-.82-.105-1.195a46 46 0 0 1-.16-3.598v-9.41c0-.429.078-.883.398-1.179.348-.29.508-.689.508-1.137v-1.203c0-.672-.453-1.185-.977-1.543-.89-.633-2.492-1.199-3.519-1.563-1.906-.687-3.922-.972-5.942-.972-13.515 0-15.5 14.539-15.5 25.136 0 4.582.465 9.153 1.489 13.617.91 4.004 2.523 7.797 5.144 10.985 2 2.441 4.625 4.512 7.926 4.512 1.594 0 3.168-.497 4.598-1.165.257-.125.679-.317.968-.317.125 0 .536.196.657.25.261.118.562.224.855.224h1.305c.781 0 1.242-.418 1.242-1.211V16.422c0-.742-.352-1.277-1.137-1.277h-1.41c-.305 0-.82.007-1.019.268-.211.239-.547 1.931-.618 2.263-.597 2.789-1.976 7.582-5.578 7.582-1.328 0-2.316-.645-3.07-1.72-1.203-1.694-1.637-6.362-1.801-8.39a158 158 0 0 1-.562-13.332c0-3.789.093-7.696.539-11.461.254-2.179.586-4.671 1.258-6.765.316-.985.847-2.32 1.668-3 .64-.524 1.378-.766 2.21-.766 2.25 0 2.649 2.063 2.649 3.926v7.258c0 .73-.051 1.894-.438 2.543-.355.629-1.187 1.069-1.82 1.336-.527.207-.933.59-.933 1.187v1.41c0 .711.449 1.071 1.136 1.071M-76.672-.277v-16.981c0-.997.336-1.812 1.172-2.375.559-.379.972-.894.972-1.594v-1.511c0-.735-.476-1.074-1.175-1.074h-10.465c-.645 0-1.035.363-1.035 1.014v1.571c0 .696.453 1.215.996 1.59.812.582 1.144 1.391 1.144 2.379V-.277l-6.695 22.699c-.316.996-.851 2.004-1.84 2.461-.609.269-.957.746-.957 1.422v1.675c0 .606.305 1.047.946 1.047h10.828c.761 0 1.246-.394 1.246-1.175v-1.614c0-.668-.582-1.036-1.141-1.226-.566-.207-1.277-.567-1.277-1.262 0-.216.055-.441.125-.645l4.605-15.351 4.098 13.969c.145.496.23 1.007.23 1.519 0 .852-.605 1.352-1.332 1.671-.535.235-1.051.614-1.051 1.255v1.777c0 .68.383 1.082 1.071 1.082h8.394c.684 0 1.278-.289 1.278-1.047v-1.742c0-.722-.543-1.176-1.149-1.457-1.152-.554-1.957-1.402-2.324-2.633zM-110.426.934v-20.157c1.356.075 2.844.309 4.028.957 1.175.633 1.914 1.743 2.394 2.953.699 1.754.848 3.946.848 5.817 0 2.527-.297 5.715-1.766 7.863-1.281 1.871-3.34 2.5-5.504 2.567m0 23.343V5.413c5.328.168 6.539 4.743 6.539 9.439 0 1.929-.199 4.05-.949 5.843-.453 1.075-1.164 2.343-2.242 2.899-.988.508-2.227.664-3.348.683m6.246-21.058c6.016-2.138 9.59-6.239 9.59-12.922 0-2.727-.621-5.317-2.047-7.645-1.375-2.277-3.301-3.902-5.754-4.925-2.347-.982-4.816-1.539-7.367-1.539h-10.305c-.585 0-.898.375-.898.945v1.64c0 .684.473 1.207 1 1.59.824.575 1.176 1.379 1.176 2.379v39.77c0 .983-.32 1.812-1.16 2.355-.59.36-1.016.887-1.016 1.598v1.547c0 .703.481 1.015 1.141 1.015h10.707c3.703 0 7.129-1.011 9.816-3.629 2.613-2.539 3.734-5.757 3.734-9.375 0-2.718-.718-5.261-2.105-7.597-1.484-2.481-3.898-4.11-6.512-5.207m-34.297 6.551-3.105-15.375h6.129zm-2.582 12.347-.324 2.227c-.055.351-.176.937-.176 1.285 0 .418.328.68.676.848l5.664 2.643a1 1 0 0 0 .445.103c.512 0 .782-.368.891-.84l9.125-45.551c.098-.496.262-1.238.543-1.669.277-.421.836-.796 1.262-1.05.492-.297.918-.734.918-1.34v-1.476c0-.613-.266-1.109-.934-1.109h-11.211c-.722 0-1.207.35-1.207 1.109v1.476c0 .77.606 1.265 1.238 1.575.661.359 1.141.867 1.141 1.647 0 .247-.027.489-.062.724l-1.36 6.769h-8.25l-1.363-6.519c-.035-.16-.094-.399-.094-.56 0-.768.856-1.55 1.402-1.991.461-.387 1.083-.992 1.083-1.645v-1.476c0-.781-.551-1.109-1.274-1.109h-7.019c-.739 0-1.473.25-1.473 1.109v1.754c0 .629.351 1.086.879 1.394.961.586 1.441 1.582 1.668 2.653zm-23.308-41.32h2.547c1.41 0 2.718.379 3.675 1.457 1.145 1.289 1.696 3.523 1.993 5.176.066.354.246 1.453.421 1.75.164.308.528.375.848.375h1.582c.676 0 1.207-.293 1.207-1.035v-12.332h-21.668c-.855 0-1.414.425-1.414 1.312v1.273c0 .735.527 1.25 1.117 1.602.891.543 1.297 1.327 1.297 2.367v39.77c0 .972-.328 1.769-1.133 2.324-.582.375-1.007.914-1.007 1.629v1.48c0 .731.472 1.082 1.171 1.082h10.469c.645 0 1.035-.364 1.035-1.015v-1.547c0-.711-.441-1.238-1-1.625-.801-.563-1.14-1.363-1.14-2.328zm-23.957 0h2.55c1.411 0 2.719.379 3.676 1.457 1.145 1.289 1.696 3.523 1.992 5.176.067.354.246 1.457.418 1.75.168.312.528.375.852.375h1.578c.68 0 1.211-.293 1.211-1.035v-12.332h-21.672c-.851 0-1.414.425-1.414 1.312v1.273c0 .735.527 1.25 1.121 1.602.891.543 1.297 1.327 1.297 2.367v39.77c0 .972-.328 1.769-1.137 2.324-.578.375-1.004.914-1.004 1.629v1.48c0 .731.469 1.082 1.172 1.082h10.465c.649 0 1.039-.364 1.039-1.015v-1.547c0-.711-.441-1.238-1-1.625-.801-.563-1.144-1.363-1.144-2.328zM-216.375 9.77l-3.106-15.375h6.129zm-2.582 12.347-.324 2.227c-.055.351-.176.937-.176 1.285 0 .418.332.68.679.848l5.661 2.643a1 1 0 0 0 .445.103c.512 0 .785-.368.894-.84l9.126-45.551c.097-.496.261-1.238.539-1.669.277-.421.835-.796 1.265-1.05.492-.297.914-.734.914-1.34v-1.476c0-.613-.261-1.109-.933-1.109h-11.211c-.719 0-1.207.35-1.207 1.109v1.476c0 .77.605 1.265 1.238 1.575.656.354 1.145.863 1.145 1.647 0 .247-.028.489-.063.724l-1.359 6.769h-8.254l-1.36-6.519a2.8 2.8 0 0 1-.093-.56c0-.768.855-1.55 1.402-1.991.461-.387 1.082-.992 1.082-1.645v-1.476c0-.781-.555-1.109-1.277-1.109h-7.02c-.738 0-1.473.25-1.473 1.109v1.754c0 .629.352 1.086.883 1.394.961.589 1.438 1.582 1.668 2.653zm-20.481-36.418v36.813c0 .983-.351 1.772-1.183 2.328-.555.383-.969.926-.969 1.625v1.48c0 .707.449 1.082 1.141 1.082h10.5c.636 0 1.011-.375 1.011-1.015v-1.547c0-.699-.414-1.231-.964-1.625-.813-.556-1.188-1.352-1.188-2.328v-32.754c0-3.681-.785-7.363-3.207-10.238-2.086-2.493-4.734-3.836-7.996-3.836-2.086 0-4.137.479-5.731 1.89-1.343 1.196-2.152 2.676-2.152 4.489 0 1.144.387 2.143 1.195 2.953.84.867 1.914 1.214 3.106 1.214.945 0 1.84-.242 2.555-.878.703-.61 1.031-1.387 1.031-2.314 0-.491-.106-1.034-.211-1.511a3.2 3.2 0 0 1-.086-.703c0-.747.387-1 1.105-1 2.036 0 2.043 4.621 2.043 5.875m-24.09 38.653V5.238h1.907c.515 0 1.238.078 1.605.496.438.496.801 1.618.992 2.25.106.336.399 1.336.614 1.602.215.269.699.297 1.015.297h1.477c.719 0 1.183-.379 1.183-1.117V-2.813c0-.656-.312-1.153-1.011-1.153h-1.649c-.332 0-.754.056-.976.325-.231.274-.446.968-.555 1.317-.18.644-.652 2.168-1.25 2.558a2.5 2.5 0 0 1-1.445.442h-1.907v-17.934c0-.984.317-1.808 1.133-2.375.571-.367 1.008-.883 1.008-1.594v-1.511c0-.735-.476-1.074-1.172-1.074h-10.469c-.644 0-1.035.363-1.035 1.014v1.571c0 .7.453 1.215 1 1.59.809.582 1.141 1.391 1.141 2.379v39.77c0 1-.367 1.793-1.199 2.355-.582.363-1.043.878-1.043 1.598v1.515c0 .657.371 1.047 1.035 1.047h17.383c.797 0 1.629.067 2.418.125.34.039.769.106 1.105.106.348 0 .953-.024 1.215-.313.195-.265.223-.75.223-1.07V17.867c0-.793-.512-1.176-1.274-1.176h-1.304c-.364 0-.797.071-1.036.375-.246.336-.402 1.39-.468 1.797-.223 1.371-.688 3.425-1.77 4.395-.98.871-2.398 1.094-3.668 1.094z" clip-path="url(#n)" style="fill:#000200;fill-opacity:1;fill-rule:evenodd;stroke:none" transform="matrix(1.33333 0 0 -1.33333 503.453 436.417)"></path><path d="M0 0v3.758h-4.762v20.683l.325-.023c1.414-.109 3.07-.395 4.269-1.2 1.16-.765 1.945-2.077 2.481-3.332.851-2.05 1.3-4.628 1.613-6.816.558-3.941.644-8.148.644-12.125 0-4.175-.211-8.414-.851-12.543-.328-2.175-1.039-5.714-2.782-7.246-1.48-1.289-3.48-1.679-5.398-1.679h-.301V0Zm-13.98 3.758V0h2.074v-17.867c0-1.168-.422-2.153-1.364-2.872-.363-.261-.71-.62-.71-1.097v-1.707c0-.219.074-.269.292-.269h8.622c3.718 0 8.402.558 11.14 3.371 2.547 2.609 3.985 6.187 4.824 9.683 1.043 4.348 1.516 8.805 1.516 13.274 0 6.261-.801 14.367-4.992 19.375-3.195 3.796-7.219 5.921-12.215 5.921h-8.723c-.144 0-.464.008-.464-.203v-1.754c0-.523.453-.949.843-1.23.918-.629 1.231-1.648 1.231-2.723V3.758Z" clip-path="url(#o)" style="fill:#fff;fill-opacity:1;fill-rule:evenodd;stroke:none" transform="matrix(1.33333 0 0 -1.33333 508.995 435.604)"></path><path d="M0 0c-.352 0-.531-.098-.531-.465v-1.41c0-.332.269-.512.554-.625.782-.329 1.688-.836 2.118-1.594.453-.765.519-1.98.519-2.847v-7.258c0-2.231-.621-4.535-3.254-4.535-.972 0-1.847.293-2.601.905-.922.77-1.5 2.173-1.856 3.286-.683 2.132-1.023 4.656-1.285 6.875-.449 3.793-.539 7.719-.539 11.535 0 4.468.184 8.934.563 13.383.179 2.184.613 6.863 1.906 8.691.871 1.235 2.043 1.973 3.57 1.973 3.981 0 5.496-4.926 6.172-8.059.082-.382.324-1.699.476-1.996.094-.058.454-.058.567-.058h1.406c.442 0 .531.269.531.672v11.086c0 .453-.187.601-.632.601H6.379c-.199 0-.434-.09-.606-.164-.238-.114-.64-.305-.906-.305-.402 0-.875.2-1.23.375-1.344.629-2.836 1.105-4.336 1.105-3.106 0-5.582-2-7.461-4.293-2.559-3.112-4.129-6.823-5.02-10.73-1.011-4.425-1.472-8.949-1.472-13.484 0-10.211 1.793-24.527 14.894-24.527 1.949 0 3.895.269 5.735.933.964.344 2.543.894 3.375 1.489.347.237.718.593.718 1.046v1.204c0 .265-.086.504-.3.679-.457.43-.606 1.028-.606 1.637v9.41c0 1.215.07 2.442.164 3.656.039.352.102.782.102 1.137 0 .098-.016.488-.106.559-.121.101-.711.113-.863.113Z" clip-path="url(#p)" style="fill:#fff;fill-opacity:1;fill-rule:evenodd;stroke:none" transform="matrix(1.33333 0 0 -1.33333 472.5 439.151)"></path><path d="M0 0c-.352 0-.531-.098-.531-.465v-1.41c0-.332.273-.512.558-.625.782-.329 1.688-.836 2.114-1.594.453-.765.523-1.98.523-2.847v-7.258c0-2.231-.625-4.535-3.258-4.535-.972 0-1.844.293-2.597.905-.926.77-1.504 2.173-1.86 3.286-.683 2.132-1.023 4.656-1.285 6.875-.445 3.793-.539 7.719-.539 11.535 0 4.468.188 8.934.563 13.383.179 2.184.613 6.863 1.91 8.691.867 1.235 2.039 1.973 3.566 1.973 3.981 0 5.5-4.926 6.172-8.059.082-.378.324-1.699.476-1.996.098-.058.458-.058.567-.058h1.41c.438 0 .531.269.531.672v11.086c0 .453-.191.601-.636.601H6.379c-.195 0-.43-.09-.606-.164-.238-.114-.64-.305-.906-.305-.402 0-.875.2-1.23.375-1.344.629-2.836 1.105-4.336 1.105-3.106 0-5.578-2-7.457-4.293-2.563-3.112-4.133-6.823-5.024-10.73-1.011-4.425-1.468-8.949-1.468-13.484 0-10.211 1.789-24.527 14.89-24.527 1.949 0 3.895.269 5.738.933.961.344 2.54.894 3.375 1.489.344.237.715.593.715 1.046v1.204c0 .265-.086.504-.3.679-.457.43-.602 1.028-.602 1.637v9.41c0 1.215.066 2.442.16 3.656.043.352.102.782.102 1.137 0 .098-.016.488-.106.559-.121.101-.711.113-.859.113Z" clip-path="url(#q)" style="fill:#fff;fill-opacity:1;fill-rule:evenodd;stroke:none" transform="matrix(1.33333 0 0 -1.33333 433.995 439.151)"></path><path d="m0 0 6.688 22.512c.418 1.398 1.34 2.379 2.649 3.01.371.173.797.447.797.908v1.742c0 .39-.34.441-.668.441H1.071c-.347 0-.465-.134-.465-.476v-1.778c0-.359.407-.574.692-.699.957-.422 1.691-1.121 1.691-2.226 0-.571-.093-1.141-.254-1.688l-4.672-15.93-5.191 17.293a2.6 2.6 0 0 0-.152.832c0 .989.843 1.532 1.679 1.831.282.099.735.298.735.658v1.613c0 .436-.215.57-.637.57h-10.828c-.293 0-.34-.176-.34-.441v-1.676c0-.434.211-.695.602-.871 1.156-.535 1.797-1.66 2.168-2.836L-7.179 0v-17.066c0-1.188-.425-2.18-1.402-2.875-.367-.254-.738-.614-.738-1.094v-1.571c0-.312.121-.406.429-.406H1.575c.36 0 .567.078.567.465v1.512c0 .488-.317.832-.7 1.09C.435-19.271 0-18.266 0-17.066Z" clip-path="url(#r)" style="fill:#fff;fill-opacity:1;fill-rule:evenodd;stroke:none" transform="matrix(1.33333 0 0 -1.33333 400.415 436.672)" data-source="https://football-logos.cc"></path><path d="M0 0c2.484-.02 4.844-.707 6.305-2.836 1.547-2.266 1.871-5.539 1.871-8.207 0-1.957-.16-4.207-.891-6.043-.535-1.348-1.363-2.559-2.668-3.259-1.367-.75-3.07-.991-4.609-1.046l-.317-.011V.004Zm-.004 23.344c1.301 0 2.754-.157 3.93-.758 1.222-.625 2.008-1.981 2.522-3.203.782-1.871.997-4.067.997-6.078 0-5.141-1.492-10.047-7.449-10.047h-.305v20.086ZM5.559 1.93c2.769 1.047 5.425 2.66 6.976 5.261 1.332 2.243 2.02 4.675 2.02 7.286 0 3.453-1.055 6.514-3.547 8.941-2.574 2.504-5.852 3.457-9.395 3.457H-9.094c-.316 0-.535-.063-.535-.41v-1.547c0-.492.324-.836.731-1.086 1.023-.656 1.445-1.673 1.445-2.867v-39.77c0-1.199-.445-2.183-1.43-2.872-.347-.253-.746-.632-.746-1.096v-1.641c0-.234.051-.336.293-.336H.969c2.472 0 4.859.539 7.133 1.487 2.332.978 4.16 2.517 5.468 4.685 1.368 2.233 1.957 4.715 1.957 7.328 0 6.703-3.718 10.637-9.953 12.605l-.836.266Z" clip-path="url(#s)" style="fill:#fff;fill-opacity:1;fill-rule:evenodd;stroke:none" transform="matrix(1.33333 0 0 -1.33333 355.818 434.354)"></path><path d="m0 0 3.754-19.091h-7.609zm-1.976 9.227-7.833-39.125c-.261-1.243-.839-2.372-1.949-3.055-.343-.199-.586-.465-.586-.871v-1.754c0-.47.496-.5.868-.5h7.019c.375 0 .668.073.668.5v1.476c0 .411-.582.938-.863 1.176-.719.582-1.621 1.46-1.621 2.46 0 .22.058.486.109.693l1.457 6.992h9.246l1.457-7.27c.043-.273.074-.551.074-.829 0-1.011-.605-1.718-1.472-2.186-.403-.2-.91-.528-.91-1.036v-1.476c0-.41.218-.5.601-.5H15.5c.305 0 .324.234.324.5v1.476c0 .372-.328.645-.617.817-.519.308-1.125.73-1.465 1.241-.328.513-.512 1.294-.625 1.884L3.992 15.383c-.039.172-.093.359-.297.359a.4.4 0 0 1-.179-.04l-5.668-2.647c-.098-.047-.332-.168-.332-.301.008-.328.117-.859.168-1.195z" clip-path="url(#t)" style="fill:#fff;fill-opacity:1;fill-rule:evenodd;stroke:none" transform="matrix(1.33333 0 0 -1.33333 318.828 419.25)"></path><path d="M0 0v11.723c0 .382-.27.429-.602.429h-1.582c-.043 0-.293-.011-.32-.062-.125-.246-.297-1.277-.356-1.567-.316-1.782-.898-4.082-2.129-5.468-1.078-1.211-2.543-1.66-4.132-1.66h-3.157v42.32c0 1.164.442 2.147 1.403 2.828.386.266.742.629.742 1.125v1.547c0 .315-.121.41-.43.41h-10.469c-.363 0-.566-.095-.566-.477v-1.48c0-.5.332-.863.738-1.125.977-.672 1.403-1.656 1.403-2.828V5.945c0-1.25-.516-2.234-1.59-2.886-.391-.231-.824-.582-.824-1.082V.703c0-.543.289-.703.808-.703Z" clip-path="url(#u)" style="fill:#fff;fill-opacity:1;fill-rule:evenodd;stroke:none" transform="matrix(1.33333 0 0 -1.33333 299.855 467.354)"></path><path d="M0 0v11.723c0 .382-.266.429-.602.429H-2.18c-.043 0-.293-.011-.32-.066-.125-.238-.301-1.277-.356-1.563-.316-1.782-.898-4.082-2.133-5.468-1.074-1.211-2.543-1.66-4.129-1.66h-3.156v42.32c0 1.164.438 2.147 1.402 2.828.387.266.739.629.739 1.125v1.547c0 .315-.121.41-.43.41h-10.465c-.363 0-.566-.095-.566-.477v-1.48c0-.5.332-.863.738-1.125.973-.672 1.402-1.656 1.402-2.828V5.945c0-1.25-.515-2.234-1.589-2.886-.391-.231-.825-.582-.825-1.082V.703c0-.543.289-.703.805-.703Z" clip-path="url(#v)" style="fill:#fff;fill-opacity:1;fill-rule:evenodd;stroke:none" transform="matrix(1.33333 0 0 -1.33333 267.912 467.354)"></path><path d="m0 0 3.754-19.091h-7.61zm-1.973 9.227-7.832-39.125c-.266-1.243-.844-2.372-1.953-3.055-.34-.199-.582-.465-.582-.871v-1.754c0-.47.496-.5.863-.5h7.02c.379 0 .672.073.672.5v1.476c0 .411-.583.938-.864 1.176-.719.582-1.625 1.46-1.625 2.46 0 .22.063.486.11.693l1.461 6.992h9.242L6-30.051a6 6 0 0 0 .07-.829c0-1.015-.609-1.718-1.473-2.186-.402-.2-.906-.528-.906-1.036v-1.476c0-.41.215-.5.598-.5H15.5c.304 0 .328.234.328.5v1.476c0 .372-.328.645-.621.817-.52.308-1.125.73-1.461 1.241-.328.513-.512 1.294-.625 1.884L3.996 15.383c-.039.172-.098.359-.301.359a.4.4 0 0 1-.18-.04l-5.664-2.647c-.097-.047-.332-.168-.332-.301.004-.328.113-.859.168-1.195z" clip-path="url(#w)" style="fill:#fff;fill-opacity:1;fill-rule:evenodd;stroke:none" transform="matrix(1.33333 0 0 -1.33333 214.964 419.25)"></path><path d="M0 0c0-1.707-.047-6.484-2.653-6.484-1.054 0-1.711.523-1.711 1.609 0 .281.04.563.098.835.098.431.199.938.199 1.379 0 .75-.257 1.364-.824 1.86-.605.535-1.363.727-2.156.727-1.024 0-1.945-.285-2.672-1.035-.699-.696-1.023-1.543-1.023-2.528 0-1.636.738-2.957 1.949-4.035 1.476-1.308 3.398-1.734 5.328-1.734 3.082 0 5.558 1.261 7.531 3.616C6.39-3.027 7.133.527 7.133 4.059v32.754c0 1.179.468 2.156 1.445 2.824.383.273.707.636.707 1.129v1.547c0 .3-.106.41-.406.41h-10.5c-.356 0-.532-.11-.532-.477v-1.48c0-.493.317-.86.7-1.121 1-.668 1.453-1.642 1.453-2.832Z" clip-path="url(#x)" style="fill:#fff;fill-opacity:1;fill-rule:evenodd;stroke:none" transform="matrix(1.33333 0 0 -1.33333 185.016 455.484)"></path><path d="M0 0h3.828c1.43 0 2.969-.269 4.074-1.245C9.113-2.331 9.613-4.461 9.863-6c.043-.25.215-1.331.356-1.522.09-.118.418-.133.551-.133h1.304c.422 0 .668.117.668.566V2.919c0 .141-.004.577-.082.684-.113.085-.609.089-.75.089-.312 0-.73-.067-1.051-.101-.812-.059-1.66-.125-2.472-.125H-8.996c-.324 0-.43-.121-.43-.442V1.509c0-.496.371-.84.77-1.09 1-.68 1.476-1.66 1.476-2.863v-39.77c0-1.183-.429-2.18-1.402-2.875-.371-.254-.738-.613-.738-1.094v-1.571c0-.311.117-.405.425-.405H1.574c.36 0 .567.078.567.465v1.511c0 .493-.348.836-.739 1.09C.414-44.409 0-43.401 0-42.214v18.542h2.512c.648 0 1.246-.182 1.781-.542.777-.508 1.258-2.055 1.496-2.894.07-.223.289-.922.438-1.098.074-.094.406-.109.511-.109h1.649c.347 0 .406.234.406.546v11.579c0 .393-.199.507-.578.507H6.738c-.109 0-.465-.011-.543-.066-.144-.195-.429-1.152-.507-1.402-.223-.739-.602-1.887-1.118-2.474-.496-.565-1.343-.698-2.058-.698H0Z" clip-path="url(#y)" style="fill:#fff;fill-opacity:1;fill-rule:evenodd;stroke:none" transform="matrix(1.33333 0 0 -1.33333 151.276 403.142)"></path><path d="m0 0-.57.391c-.192.129-.215.293-.078.5l2.91 4.304q.292.434.601.223l.492-.332q.193-.13.168-.305-.024-.177-.441-1.027c-1.031-2.204-.996-3.68.117-4.43.578-.394 1.199-.449 1.871-.172Q6.078-.432 6.805.641q.744 1.107.855 2.414c.074.87-.035 2.187-.32 3.941q-.346 2.028-.379 3.043a7.2 7.2 0 0 0 .238 2.078q.282 1.061.973 2.086c.855 1.261 1.871 2.086 3.058 2.472q1.777.577 3.149-.347c.418-.285.789-.703 1.105-1.265q.217-.376.328-.454a.6.6 0 0 1 .317-.078.86.86 0 0 0 .394-.152l.422-.286c.223-.152.262-.323.121-.53l-2.554-3.782c-.129-.192-.274-.226-.442-.113l-.527.355c-.137.09-.199.188-.195.29q.007.15.336.976 1.142 2.841-.071 3.66-.65.439-1.414.156c-.511-.183-.926-.523-1.25-1q-.562-.831-.691-2.019c-.086-.789.012-1.969.293-3.531q.545-3.02.293-4.848c-.164-1.223-.614-2.371-1.34-3.446Q8.039-1.905 5.984-2.5c-1.371-.391-2.574-.234-3.617.468-.461.313-.926.805-1.383 1.473C.84-.344.73-.207.645-.148Q.532-.073.27-.062A.6.6 0 0 0 0 0" clip-path="url(#z)" style="fill:#fff;fill-opacity:1;fill-rule:evenodd;stroke:none" transform="matrix(1.33333 0 0 -1.33333 189.333 536.99)"></path><path d="m0 0-8.562-14.992c-.239-.418-.262-.813-.075-1.196.125-.254.141-.472.035-.656l-.308-.539c-.102-.184-.262-.211-.465-.098l-3.738 2.133q-.258.154-.117.406l.32.559q.15.262.582.301.646.063.992.672l8.563 14.996-.528.301c-.394.222-.765.242-1.125.05q-.533-.282-1.617-1.66-.142-.187-.371-.058l-.465.265c-.269.153-.344.348-.211.578l1.988 3.485q.236.404.618.187a8 8 0 0 0 .793-.582q.89-.713 1.394-1L1.938.734c.234-.093.527-.203.867-.32q.777-.303.851-.344.322-.186.153-.484L1.766-3.992q-.198-.348-.508-.168l-.457.258q-.274.16-.242.343c.027.129.117.418.277.879q.368 1.148.32 1.598c-.031.297-.234.555-.617.773z" clip-path="url(#A)" style="fill:#fff;fill-opacity:1;fill-rule:evenodd;stroke:none" transform="matrix(1.33333 0 0 -1.33333 219.776 526.115)"></path><path d="M0 0c.371-.184.832-.109 1.371.215.543.328 1.41 1.531 2.586 3.608a112 112 0 0 1 3.09 5.814c.789 1.617 1.336 3 1.648 4.14q.474 1.706.344 2.328-.125.625-.672.886-.455.224-.992.06-.533-.175-1.172-.969-.649-.796-2.078-3.332A100 100 0 0 1 1.32 7.402C.18 5.066-.484 3.328-.668 2.176-.848 1.027-.625.305 0 0m-.516-1.41c-1.73.844-2.589 2.344-2.586 4.488 0 2.149.75 4.75 2.247 7.813 1.496 3.057 3.109 5.281 4.843 6.66q2.598 2.062 5.032.871 2.295-1.119 2.421-4.254.131-3.141-2.246-8.009-2.426-4.958-4.976-6.8C2.524-1.863.941-2.121-.516-1.41" clip-path="url(#B)" style="fill:#fff;fill-opacity:1;fill-rule:evenodd;stroke:none" transform="matrix(1.33333 0 0 -1.33333 218.552 554.354)"></path><path d="m0 0-2.84-7.574.851-.321c.336-.125.602-.136.79-.035q.288.154.746.758c.23.293.375.461.433.496.051.028.16.02.324-.043l.571-.215q.335-.125.218-.437l-1.664-4.45c-.082-.214-.214-.292-.394-.222l-.633.238c-.148.055-.234.121-.258.188q-.04.115-.015.535c.05.633.007 1.051-.137 1.246a1.16 1.16 0 0 1-.551.422l-.848.316-2.624-7.004q-.251-.673.113-1.195.252-.341.14-.637l-.218-.582c-.075-.199-.219-.254-.446-.171l-4.023 1.507c-.192.07-.25.2-.18.379l.227.605c.07.188.242.317.527.387q.616.168.863.829L-3.305.297q.246.655-.141 1.199c-.179.23-.226.445-.152.644l.215.582q.104.284.391.18L3.695.398c.195-.074.516-.172.957-.304a6 6 0 0 0 .43-.114q.305-.119.347-.215.031-.105-.066-.363L3.926-4.446q-.125-.329-.5-.191l-.504.188q-.23.087-.266.211c-.023.082 0 .316.078.699.184.918.168 1.593-.058 2.023q-.341.639-1.321 1.008z" clip-path="url(#C)" style="fill:#fff;fill-opacity:1;fill-rule:evenodd;stroke:none" transform="matrix(1.33333 0 0 -1.33333 240.958 536.943)"></path><path d="m0 0 2.488 8.681q.194.667-.211 1.16c-.187.215-.246.433-.187.64l.168.582q.085.305.429.211l2.997-.859c.191-.055.261-.18.207-.363l-.176-.61c-.059-.203-.219-.356-.485-.449-.41-.137-.683-.43-.808-.868L-.684-9.694q-.122-.424-.507-.313l-.582.164c-.266.078-.411.278-.434.586L-3.551 6.754-7.082-5.55c-.129-.461-.059-.855.219-1.183.187-.215.257-.426.199-.629l-.172-.598c-.059-.204-.203-.269-.434-.204l-2.98.856q-.291.082-.207.364l.176.621q.08.288.496.429.603.21.797.891l4.496 15.684q.193.667-.211 1.16c-.188.215-.246.433-.188.64l.168.582q.087.312.43.211l2.809-.804q.304-.09.39-.192.083-.102.113-.414z" clip-path="url(#D)" style="fill:#fff;fill-opacity:1;fill-rule:evenodd;stroke:none" transform="matrix(1.33333 0 0 -1.33333 253.948 554.98)"></path><path d="m0 0-3.039-6.543 2.742-.656zm.121 4.52.086.941c.023.305.043.476.051.512q.03.133.253.179l2.52.516a.3.3 0 0 0 .129-.004q.187-.04.18-.293l-.711-19.048q-.024-.516.062-.764.088-.252.434-.586c.176-.172.242-.344.203-.504l-.14-.59q-.077-.322-.329-.258l-4.476 1.07q-.363.088-.286.411l.141.589q.075.306.555.418.59.155.707.637c.019.094.035.195.047.32L-.344-9l-3.496.836-1.207-2.559a1.3 1.3 0 0 1-.102-.243c-.066-.268.067-.608.391-1.03.203-.277.293-.496.254-.656l-.145-.59q-.077-.321-.465-.228l-2.8.673q-.468.111-.391.434l.168.699q.064.279.402.383.628.203.993.965z" clip-path="url(#E)" style="fill:#fff;fill-opacity:1;fill-rule:evenodd;stroke:none" transform="matrix(1.33333 0 0 -1.33333 265.792 552.354)"></path><path d="m0 0-1.094-8.098c.91-.121 1.649 0 2.207.367.559.372 1.055 1.278 1.477 2.723Q3.235-2.844 3.621.027c.281 2.067.414 3.711.402 4.946-.007 1.238-.101 2.179-.277 2.832-.176.644-.441 1.125-.789 1.429-.348.309-.887.535-1.613.692L.242 1.772l1.938-.26-.239-1.774Zm-3.152.426-.844.113.238 1.777.844-.117.98 7.254q.096.694-.312 1.066-.358.34-.313.657l.094.711q.03.204.34.164l3.551-.481q3.002-.405 4.738-3.136c1.149-1.821 1.481-4.567.984-8.235a23.4 23.4 0 0 0-1.355-5.34c-.645-1.668-1.492-2.91-2.531-3.722q-1.565-1.225-4.817-.786l-3.507.477q-.247.03-.211.266l.093.691q.04.303.414.5.555.316.649 1z" clip-path="url(#F)" style="fill:#fff;fill-opacity:1;fill-rule:evenodd;stroke:none" transform="matrix(1.33333 0 0 -1.33333 278.61 560.839)"></path><path d="m0 0-8.797-2.129c-.328-.082-.539.039-.617.358q-.375 1.571.023 2.97l1.645 5.741q.705 2.47.988 4.38.283 1.917-.121 3.586-.327 1.354-1.07 2.073c-.492.482-1.039.65-1.629.509-.449-.113-.809-.341-1.059-.673q-.386-.504-.32-.756.025-.107.336-.244.901-.362 1.094-1.168a1.58 1.58 0 0 0-.161-1.178c-.203-.375-.542-.621-1.007-.736-.535-.129-.996-.049-1.379.232q-.576.416-.781 1.262-.371 1.528.531 2.898.902 1.376 2.789 1.832 2.091.504 3.633-.445 1.539-.955 2.07-3.154.457-1.883-.035-3.881c-.336-1.325-1.082-3.29-2.25-5.883-.992-2.227-1.535-3.856-1.637-4.895l4.527 1.098q.563.137.774.414c.137.184.207.479.199.887.008.379.129.597.371.656l.586.141q.335.082.41-.227z" clip-path="url(#G)" style="fill:#fff;fill-opacity:1;fill-rule:evenodd;stroke:none" transform="matrix(1.33333 0 0 -1.33333 415.307 567.453)"></path><path d="M0 0c-.836 3.246-1.77 4.742-2.805 4.472q-.918-.234-.836-1.816c.055-1.054.27-2.332.661-3.84l2.023-7.839q1.16-4.496 2.695-4.098c.539.141.836.632.875 1.484.043.852-.238 2.434-.836 4.758zm-3.25 5.824q2.24.58 4.082-1.707C2.063 2.593 3.101.168 3.961-3.16c.871-3.379 1.129-6.012.766-7.903-.364-1.89-1.227-3.019-2.606-3.375q-2.003-.514-3.93 1.649C-3.09-11.34-4.145-9.016-4.973-5.805Q-6.356-.456-5.77 2.438c.391 1.925 1.227 3.054 2.52 3.386" clip-path="url(#H)" style="fill:#fff;fill-opacity:1;fill-rule:evenodd;stroke:none" transform="matrix(1.33333 0 0 -1.33333 420.281 546.328)"></path><path d="m0 0-1.727-.687c-.152-.059-.261-.02-.32.128l-.277.704a.38.38 0 0 0 .07.414l2.129 2.179c.207.219.398.367.57.433l.934.372c.18.074.308.016.379-.161L8.16-12.727q.316-.796.672-1.035c.242-.16.586-.172 1.023-.039q.366.101.485-.192l.289-.73q.1-.259-.156-.359l-5.121-2.036q-.31-.121-.415.149l-.257.649c-.094.234.004.437.285.62q.534.33.676.739.14.414-.164 1.18z" clip-path="url(#I)" style="fill:#fff;fill-opacity:1;fill-rule:evenodd;stroke:none" transform="matrix(1.33333 0 0 -1.33333 427.687 537.932)"></path><path d="M0 0c-1.437 3.031-2.641 4.315-3.602 3.858-.574-.272-.73-.92-.476-1.944.25-1.023.707-2.234 1.375-3.642L.773-9.043q1.995-4.19 3.426-3.512c.504.242.699.782.574 1.625q-.176 1.266-1.722 4.512zm-4.297 5.102c1.391.664 2.836.359 4.332-.903C1.531 2.938 3.012.754 4.488-2.353c1.496-3.151 2.25-5.686 2.254-7.612q.008-2.89-1.918-3.808-1.867-.884-4.168.875c-1.535 1.175-3.011 3.256-4.437 6.252q-2.372 4.99-2.348 7.939c.02 1.969.625 3.234 1.832 3.809" clip-path="url(#J)" style="fill:#fff;fill-opacity:1;fill-rule:evenodd;stroke:none" transform="matrix(1.33333 0 0 -1.33333 445.057 535.677)" data-source="https://football-logos.cc"></path><!-- source: https://football-logos.cc --></svg>