<svg xmlns="http://www.w3.org/2000/svg" xmlns:xlink="http://www.w3.org/1999/xlink" viewBox="0 0 557.24 654.47"><!-- Source: https://football-logos.cc --><g transform="translate(-19.016 -93.712)" data-source="https://football-logos.cc"><path d="M34.762 260.602c-.452-34.094 2.49-65.103 9.43-92.395l.282-1.108.991-.609c31.017-19.016 66.76-31.525 105.802-40.039 38.899-8.483 81.162-12.98 123.574-15.05l-.037 5.06c-42.287 2.195-83.94 6.45-122.553 14.87-38.052 8.299-73.488 20.995-103.69 39.312-6.621 26.573-9.387 56.852-8.949 89.963.447 33.69 4.316 70.346 10.414 109.29l.011.066c8.749 66.93 31.52 124.267 63.871 174.844 32.39 50.64 74.397 95.321 121.066 134.517l-3.698 4.274c-44.079-38.9-88.792-85.061-121.525-136.237-32.775-51.24-55.884-108.9-64.748-176.714-6.13-39.166-9.791-76.087-10.241-110.044m302.707-36.954c29.849 1.005 58.088 5.05 84.66 12.242l.145.04c-26.503-7.187-55.037-11.253-84.805-12.282m-79.696 3.718.041-.003v-11.24c0-1.055.859-1.914 1.913-1.914h75.687c1.054 0 1.913.859 1.913 1.913v7.522l-.233-.008.109 3.297.02.606.104.009.02.001c11.746.997 23.53 2.291 35.192 3.958 43.602 6.225 85.444 17.652 117.225 38.163l1.456 4.498c8.04 29.807 10.002 68.21 7.028 108.04-3.172 42.492-11.96 86.491-24.977 123.357-10.23 26.371-22.484 49.614-36.626 70.537-30.253 48.382-82.857 100.286-137.559 136.28l-.013-461.378h-3.262l.47 461.439c-69.774-47.894-115.437-97.193-142.649-145.086-7.24-11.127-13.784-22.332-19.572-33.483-17.442-33.607-29.74-84.27-35.371-133.662-5.683-49.842-4.577-98.133 4.888-125.978l1.572-4.912c43.001-25.796 94.741-38.483 152.624-41.956M88.213 241.81l-12.542-49.786 10.884-4.707 27.686 43.237-7.504 3.245-4.934-7.883-9.126 3.947 2.364 8.994zm25.012-23.925-12.038-36.658 7.697-2.528 12.198 37.14q1.536 4.677 5.524 3.367t2.453-5.987l-12.197-37.14 7.277-2.39 12.04 36.659q3.975 12.104-7.502 15.874-11.475 3.768-15.452-8.337m31.908 2.474-12.423-49.127 12.424-3.143q11.711-2.961 14.781 9.18l6.283 24.846q3.07 12.14-8.64 15.103zm33.14 395.463-2.114 1.871c-29.293-34.052-49.57-63.3-67.247-98.879-17.004-35.657-28.768-75.586-36.227-127.088-3.06-21.134-5.26-41.342-6.3-61.228-1.026-19.652-.845-39.72.4-58.685-1.277-.425-2.17-1.269-2.269-2.312-.157-1.663 1.765-3.204 4.291-3.442s4.702.917 4.859 2.58c.112 1.19-.84 2.318-2.319 2.95-1.227 18.782-1.154 38.826-.139 58.246 1.028 19.666 3.175 40.234 6.218 61.244 7.37 50.887 18.975 90.782 35.739 125.937 8.32 17.446 18.033 33.642 29.133 49.406 10.506 16.736 22.564 33.344 35.976 49.4m339.282-225.735c3.042-21.01 4.927-41.372 5.955-61.037 1.018-19.488 1.193-38.51-.046-57.33-1.358-.407-2.32-1.275-2.423-2.36-.156-1.664 1.765-3.205 4.292-3.443 2.526-.238 4.701.917 4.858 2.58.106 1.119-.73 2.183-2.058 2.831 1.272 19.044 2.057 38.25 1.024 58.01-1.04 19.886-3.726 40.168-6.787 61.302-7.458 51.502-19.11 92.144-36.114 127.801-17.001 35.653-38.78 66.364-67.172 98.467l-1.886-1.669c11.047-13.358 21.355-27.577 31.01-42.89 13.195-17.887 24.59-36.187 34.096-56.119 16.763-35.155 27.881-75.256 35.25-126.143M172.1 213.577l-1.27-51.326 11.653-2.195 17.485 48.273-8.035 1.513-3.077-8.776-9.771 1.84.326 9.294zm25.946-44.004q-1.722-12.624 10.247-14.256 11.968-1.633 13.69 10.991l.665 4.877-7.59 1.036-.733-5.38q-.675-4.949-4.835-4.381t-3.485 5.517l3.699 27.112q.666 4.878 4.825 4.31 4.16-.567 3.495-5.445l-.979-7.172 7.59-1.036.91 6.671q1.722 12.624-10.247 14.257t-13.69-10.992zm244.546-38.162c-38.42-8.41-79.947-12.937-122.233-15.132l.05-4.755c42.6 2.211 84.674 6.58 123.379 15.053 38.849 8.505 74.75 20.77 105.765 39.785l.991.608.282 1.108c6.94 27.292 10.28 58.512 9.829 92.606-.45 33.957-4.298 70.925-10.429 110.09-8.864 67.816-32.254 125.955-65.029 177.195-32.733 51.176-75.173 95.264-121.924 135.57l-3.698-4.275c47.513-39.617 88.705-83.548 121.096-134.189 32.35-50.576 55.637-107.913 64.386-174.844l.01-.066c6.1-38.943 10.056-75.716 10.503-109.407.439-33.11-2.656-63.975-9.277-90.548-30.198-18.318-65.842-30.511-103.701-38.8m-145.62-37.684c-92.89.511-181.605 10.823-266.173 60.9-25.05 75.54-7.237 241.965 26.025 323.926 43.724 107.736 132.707 202.692 240.9 269.625 123.083-76.84 197.842-168.203 241.802-272.55 34.95-96.917 48.652-238.36 24.751-320.777-80.216-48.902-171.879-61.649-267.304-61.124M57.622 272.541c.509-.434 1.722-.625 2.419-.58.05.637-.068 1.366-.479 1.855-2.147 2.555-4.84 5.172-6.506 7.97 1.063.487 2.135-.267 3.047-.32 1.906-.11 2.563.576 2.625 2.475.057 1.755-2.062 2.323-4.087 2.175-.608-.044-.851.644-.975 1.2l1.95.3c-2.404 1.666-4.573 4.003-3.956 6.676.994.084 1.378-.801 2.456-1.05 1.503-.348 2.672.808 2.606 2.362-.077 1.828-2.23 2.24-3.731 3.188-1.266.799-1.806 2.117-1.575 4.274 1.2-.032 1.976-.642 2.625-1.425.589 1.41.094 1.53-.619 2.138-.51.434-1.002.957-1.106 1.538 1.43 3.813 4.26 5.844 6.675 7.8.512.414-.61 1.11-1.5.525-5.75-3.782-7.894-8.339-8.625-13.426-.605-4.212-.15-8.65.825-13.5.842-2.863 1.776-5.056 1.725-7.2-.045-1.884-.835-3.539-2.776-5.287-.385-.348-.64-.95-.477-1.444.33-1 1.404-.712 2.09-.187 2.254 1.726 2.364 4.5 2.194 7.303 1.437-2.763 2.867-5.391 5.175-7.36m174.203-68.644-3.54-50.55 22.042-1.544.506 7.221-13.96.978.986 14.082 11.094-.777.506 7.222-11.095.777 1.036 14.804 13.961-.978.505 7.222zm38.44-14.712v-26.35q0-12.742 12.08-12.741 12.079 0 12.079 12.74v4.923h-7.66v-5.429q0-4.995-4.198-4.995-4.2 0-4.199 4.995v27.364q0 4.923 4.199 4.923 4.197 0 4.198-4.923v-7.24h7.66v6.733q0 12.741-12.08 12.741t-12.079-12.74M59.304 226.77c-.157-1.662 1.764-3.203 4.29-3.441 2.527-.238 4.703.916 4.86 2.58.156 1.662-1.765 3.203-4.292 3.441s-4.702-.917-4.859-2.58m241-25.634.947-50.665 22.092.413-.136 7.238-13.992-.262-.264 14.114 11.12.208-.135 7.238-11.12-.208-.277 14.838 13.992.261-.136 7.238zm27.843.799 2.036-50.634 12.216.49q11.996.483 11.528 12.129l-.16 3.978q-.314 7.811-5.711 10.059 5.281 2.457 4.939 10.993l-.314 7.812q-.166 4.123.636 6.184l-8.243-.331q-.648-2.2-.486-6.25l.32-7.957q.26-6.438-5.04-6.65l-2.797-.113-.828 20.615zm37.75 2.337-8.067-.738 4.619-50.464 8.068.739zm7.508-11.472 3.292-26.144q1.59-12.641 13.576-11.132 11.985 1.51 10.393 14.15l-.615 4.884-7.6-.957.679-5.387q.623-4.956-3.542-5.48-4.166-.525-4.79 4.431l-3.419 27.15q-.615 4.884 3.551 5.409 4.165.525 4.78-4.36l1.167-9.265-3.653-.46.904-7.183 11.254 1.417-2.008 15.946q-1.592 12.641-13.576 11.131t-10.394-14.15m27.154 15.896 9.465-49.783 9.986 1.898 2.51 31.353 5.666-29.798 7.091 1.348-9.464 49.783-8.177-1.555-3.058-37.941-6.855 36.056zm41.694 9.742q-5.762-1.543-7.96-5.58-2.197-4.035-.624-9.91l6.819-25.452q1.574-5.874 5.494-8.271t9.684-.853q5.763 1.544 7.96 5.58t.624 9.91l-6.818 25.452q-1.574 5.874-5.495 8.271-3.92 2.398-9.684.853m17.213 3.715 16.723-47.836 7.648 2.674-14.334 41.002 12.584 4.4-2.388 6.833zm21.245 7.79 27.762-43.188 10.875 4.727-12.63 49.763-7.498-3.258 2.38-8.99-9.119-3.963-4.948 7.875zm46.03-3.342c-.156-1.663 1.765-3.203 4.292-3.442 2.526-.238 4.701.917 4.858 2.58s-1.764 3.204-4.291 3.442-4.702-.917-4.859-2.58m8.456 45.338c.697-.044 1.91.146 2.419.58 2.308 1.97 3.737 4.598 5.175 7.36-.17-2.802-.061-5.577 2.193-7.303.686-.525 1.761-.813 2.091.188.163.493-.092 1.096-.478 1.443-1.94 1.749-2.73 3.403-2.775 5.288-.051 2.143.883 4.337 1.725 7.2.975 4.85 1.43 9.287.825 13.5-.731 5.086-2.876 9.644-8.625 13.425-.891.586-2.012-.11-1.5-.525 2.414-1.956 5.245-3.986 6.675-7.8-.105-.58-.597-1.104-1.107-1.538-.713-.608-1.207-.728-.618-2.137.649.783 1.425 1.393 2.625 1.425.23-2.157-.31-3.476-1.575-4.275-1.502-.948-3.654-1.36-3.732-3.188-.066-1.554 1.103-2.71 2.607-2.362 1.077.25 1.461 1.135 2.456 1.05.616-2.672-1.552-5.01-3.956-6.675l1.95-.3c-.124-.557-.368-1.244-.975-1.2-2.026.147-4.145-.42-4.088-2.175.062-1.9.72-2.585 2.626-2.475.911.052 1.984.806 3.046.32-1.666-2.798-4.359-5.416-6.506-7.97-.41-.49-.528-1.219-.478-1.856M285.01 118.42c-.783-1.356-1.761-2.77-2.745-4.118-.531.447-1.154.656-1.763.532-1.325-.269-2.088-2.015-1.705-3.9s1.768-3.194 3.093-2.925c1.216.248 1.96 1.74 1.776 3.441 1.303 1.74 2.7 3.673 3.791 5.564 1.2 2.079 2.028 4.123 1.995 5.868l-2.824-.045c.023-1.167-.648-2.737-1.618-4.417m5.568-3.049c-.715-2.632-1.663-5.487-2.743-8.074-.765.048-1.524-.183-2.112-.71-1.239-1.11-1.255-3.113-.037-4.473 1.22-1.36 3.212-1.563 4.45-.453 1.182 1.059 1.252 2.928.2 4.279 1.18 2.784 2.21 5.867 2.977 8.69.915 3.367 1.466 6.424 1.464 8.23h-2.824c.002-1.542-.515-4.325-1.375-7.489m5.726-1.73a177 177 0 0 0-.44-8.218 3.208 3.208 0 0 1 1.326-6.151 3.207 3.207 0 0 1 1.504 6.008c.21 2.73.345 5.492.433 8.273.098 3.09.134 6.194.15 9.301l-2.824.011c-.015-3.054-.051-6.12-.15-9.224m5.003.692c.643-2.785 1.508-5.694 2.498-8.226-1.195-1.36-1.172-3.343.06-4.446 1.239-1.11 3.231-.908 4.45.453s1.202 3.363-.037 4.473a2.84 2.84 0 0 1-1.902.716c-.913 2.364-1.713 5.066-2.312 7.661-.7 3.035-1.123 5.894-1.131 7.864l-2.823-.012c.008-2.19.457-5.272 1.197-8.483m8.67-6.699c1.06-1.317 3.203-1.353 4.787-.08 1.584 1.274 2.01 3.375.95 4.693-.79.984-2.186 1.253-3.501.795a31.5 31.5 0 0 0-2.927 4.988c-.877 1.875-1.458 3.629-1.46 4.755h-2.823c.001-1.56.69-3.735 1.724-5.95a34.5 34.5 0 0 1 3.265-5.546c-.767-1.2-.82-2.653-.015-3.655m-16.988 26.663c-.09-1.651 1.986-3.108 4.637-3.253s4.873 1.077 4.963 2.728-1.985 3.109-4.636 3.254-4.873-1.077-4.964-2.729m-8.474-6.98v-1.94c0-.537.702-.938 1.013-.927 8.072.277 15.815.307 24.187-.015v2.658c0 .798-1.156 1.546-2.254 1.541l-22.089-.094c-.31 0-.857-.198-.857-1.222m13.445 594.52a6.108 6.108 0 1 1-.844 12.186 6.108 6.108 0 0 1 .844-12.186" style="fill:#004986;fill-rule:evenodd"></path><path d="m496.168 219.138 7.16 3.111 6.633-25.06zm10.55 22.107-7.498-3.258 2.38-8.99-9.119-3.963-4.948 7.874-6.822-2.964 27.762-43.189 10.875 4.727zM476.189 174.317l7.648 2.674-14.334 41.002 12.584 4.4-2.388 6.833-20.233-7.073zM440.488 177.496q1.573-5.874 5.494-8.272 3.921-2.396 9.684-.853 5.763 1.545 7.96 5.58t.625 9.91l-6.82 25.454q-1.572 5.873-5.494 8.27-3.92 2.397-9.684.854-5.762-1.545-7.96-5.58-2.197-4.036-.624-9.91zm.876 28.039q-1.292 4.825 2.763 5.911t5.348-3.739l7.08-26.432q1.293-4.824-2.762-5.911-4.056-1.086-5.348 3.739zM414.578 174l-6.855 36.058-7.164-1.362 9.465-49.783 9.985 1.898 2.512 31.353 5.665-29.798 7.091 1.348-9.465 49.783-8.176-1.555zM388.128 178.456l11.254 1.417-2.008 15.945q-1.592 12.641-13.576 11.132-11.985-1.508-10.393-14.15l3.292-26.144q1.591-12.642 13.576-11.132 11.985 1.508 10.393 14.15l-.615 4.884-7.6-.957.678-5.387q.624-4.955-3.541-5.48-4.166-.525-4.79 4.431l-3.418 27.15q-.615 4.884 3.55 5.408 4.165.525 4.78-4.359l1.167-9.265-3.654-.46zM362.449 153.07l8.067.739-4.619 50.463-8.067-.738zM337.987 158.86l-.625 15.551 3.165.128q4.857.195 5.072-5.158l.2-4.99q.21-5.209-3.911-5.375zm7.087 43.755q-.648-2.2-.486-6.25l.32-7.957q.26-6.438-5.04-6.65l-2.796-.113-.83 20.615-8.095-.326 2.036-50.633 12.216.491q11.996.482 11.528 12.128l-.16 3.978q-.314 7.811-5.711 10.059 5.282 2.458 4.939 10.993l-.314 7.812q-.166 4.123.636 6.184zM308.952 171.974l11.12.208-.136 7.238-11.12-.208-.277 14.838 13.992.261-.136 7.238-22.092-.413.948-50.665 22.092.413-.136 7.238-13.992-.262zM294.423 182.453v6.732q0 12.741-12.08 12.741t-12.079-12.74v-26.352q0-12.74 12.08-12.74t12.079 12.74v4.923h-7.66v-5.429q0-4.995-4.198-4.995-4.2 0-4.199 4.995v27.364q0 4.923 4.199 4.923 4.197 0 4.198-4.923v-7.24zM237.858 174.084l11.094-.777.506 7.222-11.095.777 1.037 14.804 13.96-.978.506 7.222-22.043 1.543-3.539-50.55 22.043-1.544.505 7.222-13.96.977zM224.635 185.746l.91 6.671q1.721 12.624-10.246 14.257-11.97 1.632-13.691-10.992l-3.562-26.109q-1.722-12.624 10.247-14.256 11.968-1.633 13.69 10.991l.665 4.878-7.59 1.035-.733-5.38q-.675-4.95-4.835-4.382t-3.485 5.517l3.699 27.113q.665 4.878 4.825 4.31 4.16-.567 3.495-5.445l-.979-7.172zM178.825 195.957l7.673-1.445-8.58-24.462zm21.143 12.372-8.035 1.513-3.077-8.776-9.771 1.84.326 9.294-7.31 1.377-1.272-51.326 11.654-2.195zM142.339 176.265l8.874 35.091 4.427-1.12q4-1.011 2.792-5.783l-6.46-25.547q-1.207-4.772-5.206-3.761zm-9.63-5.032 12.425-3.142q11.711-2.962 14.781 9.18l6.283 24.845q3.07 12.141-8.64 15.102l-12.425 3.143zM108.884 178.7l12.197 37.14q1.536 4.677 5.525 3.367t2.453-5.987l-12.197-37.14 7.277-2.39 12.04 36.659q3.975 12.104-7.502 15.873t-15.451-8.336l-12.04-36.658zM90.893 223.143l7.166-3.1-13.755-21.971zm23.348 7.412-7.504 3.245-4.934-7.883-9.126 3.947 2.364 8.994-6.827 2.953-12.543-49.786 10.884-4.707zM271.531 241.625v-2.786h2.697v-11.646h-2.8v-2.986h6.165v14.632h2.492v2.786zm22.116-5.499v.1-2.613q-.564.846-1.785 1.344-1.22.497-2.376.497-1.438 0-2.697-.31a8.7 8.7 0 0 1-2.35-.959 4.7 4.7 0 0 1-1.734-1.804q-.642-1.157-.642-2.724 0-2.713 2.235-4.243t5.214-1.53q1.926 0 3.583.622a6.6 6.6 0 0 1 2.787 1.978q1.13 1.356 1.13 3.222v6.495q0 2.737-2.183 4.218-2.184 1.48-5.215 1.48-2.055 0-3.685-.51-1.632-.51-2.71-1.705-1.08-1.194-1.08-2.936h3.391q0 1.095 1.22 1.705t2.813.61q1.62.024 2.851-.785 1.233-.808 1.233-2.152m-4.135-9.306q-1.721 0-2.903.734-1.18.734-1.181 2.103 0 1.393 1.143 2.164t2.915.772q1.798 0 2.993-.772 1.194-.771 1.168-2.164-.025-1.37-1.194-2.103t-2.941-.734m9.375 14.805v-2.786h2.697v-11.646h-2.8v-2.986h6.165v14.632h2.492v2.786zm13.896-12.366h-3.365q.026-2.564 2.094-3.92t4.841-1.356q1.44 0 2.71.299 1.272.299 2.376.92a4.7 4.7 0 0 1 1.76 1.73q.655 1.107.655 2.6 0 1.593-.578 2.675a3.8 3.8 0 0 1-1.644 1.63q-1.066.548-2.247.759-1.182.21-2.749.211-.9 0-1.695.15-.796.15-1.503.696-.706.547-.706 1.419v1.493h11.173v3.06h-14.564v-4.578q0-1.443.63-2.489a4.3 4.3 0 0 1 1.708-1.617q1.08-.573 2.312-.833a12.7 12.7 0 0 1 2.645-.262q3.853 0 3.853-2.24 0-1.368-1.13-2.077-1.13-.71-2.954-.71-1.438 0-2.517.66-1.08.66-1.105 1.78M247.67 478.043v14.049q0 26.587-24.775 26.587t-24.775-26.587v-54.99q0-26.586 24.775-26.587 24.775 0 24.774 26.588v10.273h-15.71v-11.331q0-10.423-8.61-10.424-8.611.001-8.612 10.424v57.105q0 10.272 8.611 10.272 8.61 0 8.611-10.272v-15.108z" style="fill:#fff;fill-rule:evenodd"></path><path d="M174.997 392.49h16.076l-8.038-53.694zm35.757 15.55c-7.525 2.91-12.12 7.91-14.983 15.04l-2.422-16.182h-20.477l-2.88 19.264H154.67l16.988-106.175h24.42z" style="fill:#fff;fill-rule:evenodd"></path><path d="M314.378 372.925c-.06-.25-.07-.523.005-.773.152-.507.574-1.079 1.095-1.64.48-.516 1.041-1.03 1.536-1.466a194 194 0 0 1 5.417-4.592h.003q2.761-2.256 5.57-4.4c3.718-2.844 8.767-6.479 13.517-9.898 6.624-4.769 12.663-9.116 13.677-10.29l.315-.365.452.16c1.284.45 2.426 1.202 3.306 2.243.82.97 1.41 2.188 1.675 3.643l.088.484-.423.249c-7.108 4.195-13.984 8.418-20.736 12.652-6.597 4.136-13.404 8.493-20.21 12.853-.687.44-1.338.8-2.02 1.135a34 34 0 0 1-2.113.935l-.512.21-.327-.445a2 2 0 0 1-.315-.695m1.583-.783a25 25 0 0 0 1.065-.49c.615-.302 1.219-.638 1.874-1.057 6.599-4.228 13.22-8.466 20.227-12.859 6.71-4.206 13.47-8.362 20.327-12.415a6.2 6.2 0 0 0-1.263-2.504 6.1 6.1 0 0 0-2.28-1.663c-1.732 1.628-7.398 5.708-13.565 10.147-4.713 3.393-9.722 6.999-13.485 9.876a217 217 0 0 0-5.534 4.372v.001a192 192 0 0 0-5.377 4.56 21 21 0 0 0-1.437 1.365c-.22.237-.412.464-.552.666z" style="fill:#1b1918;fill-rule:evenodd"></path><path d="M339.804 423.276c-.002.14-.014.26-.027.38-.014.144-.202.175-.116.236v.003c.847.608 1.607.89 2.462.957.795.062 1.704-.056 2.843-.271.2-1.365.364-2.896.433-4.475.062-1.44.043-2.919-.103-4.34-.579-5.606-1.286-10.496-2.268-15.195-.983-4.699-2.24-9.206-3.921-14.048-.886-2.551-2.126-5.002-3.364-7.45-1.482-2.93-2.962-5.858-3.885-9.046-.613-2.122-.96-4.3-1.137-6.491-.175-2.166-.185-4.366-.128-6.547.047-1.765.393-3.542.737-5.315.301-1.551.603-3.1.689-4.57v-.002c.079-1.354.082-2.633-.05-3.884a15.6 15.6 0 0 0-.847-3.708c-.239-.662-.523-1.279-.9-1.702h-.004c-.319-.358-.727-.583-1.267-.57-1.233.027-2.029.477-2.93 1.174-.94.727-1.644 1.763-2.278 2.683-.919 1.334-1.595 2.851-1.856 4.333-.27 1.531-.451 2.989-.457 4.531-.02 4.916 1.485 7.826 3.224 11.188.221.426.446.861.676 1.316.348.687.688 1.415.999 2.123.357.813.683 1.609.944 2.293a432 432 0 0 1 1.706 4.564c.878 2.378 1.759 4.76 2.676 7.05.586 1.462 1.246 2.951 1.907 4.44 1.376 3.105 2.754 6.21 3.633 9.519a89 89 0 0 1 1.868 8.926c.48 3.02.826 6.04 1.08 9.046.23 2.727.056 5.45-.117 8.174-.1 1.577-.201 3.154-.222 4.679zm-1.433.236c.01-.099.021-.196.022-.252.022-1.616.122-3.184.221-4.75.17-2.666.34-5.332.117-7.97a123 123 0 0 0-1.063-8.941 88 88 0 0 0-1.84-8.788c-.847-3.188-2.205-6.249-3.562-9.308-.653-1.474-1.307-2.948-1.923-4.484-.95-2.371-1.823-4.733-2.693-7.09a422 422 0 0 0-1.7-4.546 50 50 0 0 0-.917-2.228 43 43 0 0 0-.965-2.056c-.222-.439-.448-.876-.67-1.305-1.823-3.524-3.401-6.573-3.38-11.841.007-1.62-.1-3.353.183-4.966.293-1.66.652-3.41 1.705-4.939.701-1.018 1.686-1.996 2.764-2.83 1.118-.865 2.543-1.142 4.14-1.13 1.017-.023 1.762.27 2.297.961.225.291.848 1.113 1.278 2.147.494 1.365.763 2.676.905 4.027.14 1.337.224 2.539.14 3.962-.092 1.574-.402 3.163-.71 4.755-.335 1.725-.672 3.455-.715 5.082-.056 2.118-.046 4.265.127 6.403.171 2.113.502 4.199 1.083 6.209.883 3.053 2.337 5.926 3.79 8.802 1.256 2.481 2.512 4.965 3.436 7.627 1.704 4.907 2.978 9.471 3.97 14.22.993 4.748 1.708 9.684 2.29 15.338.154 1.493.174 3.04.11 4.546-.08 1.823-.087 3.618-.327 5.15l-.077.49-.483.097c-1.484.297-2.837.442-3.907.36-1.118-.088-2.101-.448-3.18-1.222v.002c-.581-.417-.521-.993-.465-1.532z" style="fill:#1b1918;fill-rule:evenodd"></path><path d="M325.062 345.336c-.509-.006-.796.232-1.083.506-.805.767-.938 2.328-.755 3.544.059.385.447 1.146.75.9.55-.446.263-1.425.638-2.025.314-.504 1.284-.572 1.35-1.162.138-1.233-.24-1.756-.9-1.763M328.66 346.799c-.089.65.459.866.6 1.5.134.593-.056 1.636.226 2.175.158.301.566.556.9.487.316-.064.498-.471.562-.787.156-.76.195-1.56.075-2.325-.097-.626-.133-1.505-.712-1.763-.548-.243-1.569.12-1.65.713" style="fill:#000;fill-rule:evenodd"></path><path d="M355.91 341.154c-1.73 1.628-7.397 5.708-13.564 10.147-3.766 2.711-7.72 5.558-11.078 8.06a224.196 224.196 0 0 0-5.991 4.613q-.982.784-1.95 1.576a192 192 0 0 0-5.377 4.56 21 21 0 0 0-1.437 1.366c-.22.236-.412.464-.552.666a25 25 0 0 0 1.065-.49c.615-.302 1.219-.638 1.874-1.057 2.406-1.542 4.815-3.085 7.245-4.636q2.59-1.653 5.221-3.325c2.546-1.616 5.126-3.246 7.761-4.898 6.71-4.206 13.47-8.362 20.327-12.415a6.2 6.2 0 0 0-1.263-2.504 6.1 6.1 0 0 0-2.28-1.663" style="fill:#f79d34;fill-rule:evenodd"></path><path d="M352.279 351.27c-4.785 3.446-11.62 8.66-15.854 12.225-4.12 3.468-8.048 6.994-11.857 10.522 1.514-.715 2.99-1.46 4.454-2.23 1.72-.905 3.401-1.83 5.092-2.771a163 163 0 0 0 7.682-4.558c2.524-1.59 4.999-3.24 7.444-4.948 2.92-2.04 5.698-4.323 8.473-6.603a293 293 0 0 1 3.952-3.21c.066-.78.02-1.408-.148-1.93-.177-.554-.506-1.016-.995-1.447l.264-1.485c.84.58 1.815 1.683 2.077 2.5.252.786.306 1.692.18 2.806l-.034.292-.232.184a279 279 0 0 0-4.167 3.38c-2.793 2.296-5.59 4.595-8.561 6.67a190 190 0 0 1-7.5 4.986 165 165 0 0 1-7.748 4.597c-1.724.96-3.427 1.897-5.12 2.788-1.721.905-3.457 1.777-5.24 2.6-.439.202-.854.223-1.179.108a1.07 1.07 0 0 1-.573-.466 1.13 1.13 0 0 1-.145-.706c.04-.391.277-.866.782-1.334 3.882-3.6 7.91-7.221 12.19-10.825 4.267-3.591 8.759-7.143 13.567-10.605z" style="fill:#1b1918;fill-rule:evenodd"></path><path d="M339.107 386.52299999999997c-.886-2.552-2.125-5.002-3.364-7.45-1.482-2.93-2.962-5.858-3.885-9.046-.509-1.761-.834-3.561-1.032-5.375q-1.766 1.124-3.54 2.257a436 436 0 0 1 1.693 4.533c.878 2.379 1.759 4.76 2.676 7.05.586 1.463 1.247 2.952 1.907 4.44 1.377 3.105 2.754 6.211 3.634 9.519a89 89 0 0 1 1.867 8.926c.48 3.02.826 6.041 1.08 9.046.23 2.727.056 5.451-.117 8.175-.1 1.576-.201 3.153-.222 4.678-.002.14-.014.26-.027.38-.014.144-.202.175-.116.24.847.607 1.607.89 2.462.956.795.061 1.704-.056 2.843-.271.2-1.365.364-2.896.433-4.475.062-1.44.043-2.919-.103-4.34-.579-5.606-1.286-10.496-2.268-15.195-.983-4.699-2.24-9.206-3.921-14.048M328.003 360.054c.8-.612 1.66-1.26 2.567-1.934a87 87 0 0 1 .023-1.131c.047-1.765.393-3.542.737-5.315.301-1.551.603-3.1.689-4.572.079-1.354.082-2.633-.05-3.885a15.6 15.6 0 0 0-.847-3.708c-.239-.661-.523-1.278-.904-1.701-.319-.358-.726-.583-1.267-.571-1.233.027-2.029.478-2.93 1.174-.94.727-1.644 1.763-2.278 2.684-.919 1.333-1.595 2.85-1.856 4.333-.27 1.53-.45 2.988-.457 4.53-.02 4.917 1.485 7.826 3.224 11.188l.555 1.079q1.392-1.099 2.794-2.171m1.258-11.755c-.142-.634-.69-.85-.6-1.5.081-.593 1.102-.956 1.65-.713.579.258.615 1.137.712 1.763.12.766.08 1.565-.075 2.325-.064.316-.246.723-.562.787-.334.069-.742-.186-.9-.487-.282-.539-.092-1.582-.225-2.175m-3.3-1.2c-.065.59-1.035.658-1.35 1.162-.374.6-.087 1.58-.637 2.025-.303.246-.691-.515-.75-.9-.183-1.216-.05-2.777.755-3.544.287-.273.574-.512 1.083-.506.66.007 1.038.53.9 1.763" style="fill:#00a656;fill-rule:evenodd"></path><path d="M331.91 368.27c5.483-3.9 11.265-8.11 16.363-12.152 5.07-4.02 9.444-7.86 12.133-11.028l1.08.913c-2.758 3.25-7.2 7.153-12.332 11.222-5.105 4.048-10.913 8.277-16.425 12.196z" style="fill:#1b1918;fill-rule:evenodd"></path><path d="M349.154 357.225c-4.995 3.96-10.663 8.095-16.07 11.942l.101.364.93-.515a163 163 0 0 0 7.681-4.558c2.524-1.59 4.999-3.24 7.444-4.948 2.92-2.04 5.698-4.323 8.473-6.603a293 293 0 0 1 3.952-3.21c.066-.78.02-1.408-.148-1.93a3 3 0 0 0-.626-1.081c-2.78 3.107-6.96 6.75-11.738 10.539" style="fill:#f79d34;fill-rule:evenodd"></path><path d="M332.731 367.684c5.237-3.733 10.698-7.726 15.542-11.566 3.57-2.831 6.797-5.573 9.332-8.054a790 790 0 0 0-5.326 3.206c-4.785 3.446-11.62 8.66-15.854 12.225a275 275 0 0 0-3.863 3.314q.078.44.17.875" style="fill:#a3681c;fill-rule:evenodd"></path><path d="m327.65 371.93-.205-.555q-1.45 1.32-2.877 2.642c1.103-.52 2.186-1.058 3.259-1.609zM337.146 448.019a5 5 0 0 0-.027.456c.456-.281.931-.524 1.433-.71a6.2 6.2 0 0 1 2.869-.369c.887.096 1.654.517 2.338 1.148.63.58 1.114 1.237 1.712 2.184.243.385-.553 1.25-.93.997-.7-.471-1.255-.527-1.92-.633a8.1 8.1 0 0 0-2.103-.04c-.95.097-1.809.327-2.507.656-.654.308-1.155.695-1.436 1.126a2.355 2.355 0 0 0-.311 1.932c.09.328.242.626.44.87.207-.305.446-.572.717-.812.465-.413 1.02-.743 1.665-1.059 1.384-.678 2.793-.75 4.15-.38 1.468.4 2.86 1.32 4.083 2.538.263.29-.272 1.312-.703 1.18-.552-.167-1.159-.259-1.845-.303-.73-.047-1.537-.044-2.452-.021-1.17.028-2.145.166-2.905.535-.703.341-1.242.907-1.612 1.814-.24.59-.342 1.456-.153 2.357.083.4.225.805.438 1.193.535-1.056 1.14-1.907 1.874-2.558 1.01-.893 2.235-1.385 3.82-1.476 1.172-.068 2.248.023 3.062.573.736.495 1.21 1.306 1.282 2.608l2.551.119.323.015.2.25c6.26 7.846 13.697 14.53 20.953 21.052 2.408 2.165 4.797 4.312 7.26 6.615.285.266.607.526.925.666.205.09.402.12.558.03a2.8 2.8 0 0 0 .928-.834l.003-.003c.221-.321.359-.69.405-1.084.689-5.93.95-11.723 1.213-17.589.096-2.141.193-4.293.307-6.407l-.257-.37-.154.46-.656 1.969-.68-1.957c-.165-.473-.296-1.039-.426-1.603a17 17 0 0 0-.351-1.365c-.377-.527-.782-.97-1.186-1.41l-.06-.066.207 23.968c.004.44-.945.817-1.229.482-1.435-1.697-3.147-3.525-4.724-5.327-1.532-1.751-3.064-3.502-4.707-5.305a852 852 0 0 0-8.01-8.541c-1.769-1.87-3.54-3.742-4.902-5.195-.57-.608-1.135-1.196-1.7-1.784-1.106-1.151-2.215-2.305-3.35-3.596-.992-1.127-1.675-2.484-2.329-3.786a63 63 0 0 0-.493-.965c-.544-1.034-1.432-1.99-2.497-2.783a11.8 11.8 0 0 0-3.791-1.88 4.2 4.2 0 0 0-1.577-.115 4.9 4.9 0 0 0-1.622.47c-.507.25-1.05.674-1.472 1.118-.364.382-.619.739-.639.944zm-1.416 1.012c-.04-.38-.026-.787.01-1.15.052-.534.457-1.19 1.02-1.781.527-.554 1.216-1.087 1.871-1.411.65-.321 1.372-.53 2.098-.61a5.6 5.6 0 0 1 2.109.16 13.3 13.3 0 0 1 4.256 2.107c1.224.913 2.255 2.03 2.9 3.26q.254.485.505.987v.003c.61 1.214 1.246 2.48 2.13 3.484 1.148 1.305 2.228 2.43 3.306 3.55.568.592 1.136 1.184 1.711 1.797 1.878 2.004 3.385 3.596 4.897 5.194 2.747 2.902 5.5 5.81 8.028 8.555l.003.002c1.57 1.722 3.147 3.525 4.724 5.327 1.14 1.301 2.278 2.603 3.463 3.926l-.208-24.089-.02-2.278 1.304 1.868c.393.564.82 1.03 1.245 1.494.458.5.917 1.002 1.361 1.637l.058.083.03.09c.085.24.16.507.23.784l.286-.857.805 1.157 1.2 1.725.138.198-.013.245c-.125 2.27-.223 4.457-.321 6.635-.266 5.907-.528 11.742-1.22 17.688a3.8 3.8 0 0 1-.645 1.724 4.2 4.2 0 0 1-1.393 1.266c-.612.351-1.238.297-1.831.036-.48-.211-.93-.57-1.318-.932-2.261-2.115-4.742-4.344-7.243-6.593-7.22-6.49-14.62-13.14-20.913-20.972l-2.902-.135-.71-.033.034-.706c.054-1.146-.208-1.77-.663-2.076-.5-.338-1.294-.387-2.192-.335-1.248.071-2.198.446-2.963 1.122-.797.705-1.43 1.758-2.01 3.15l-.415.991-.745-.77a5.6 5.6 0 0 1-1.462-2.775c-.25-1.194-.105-2.365.225-3.177a5.6 5.6 0 0 1 .533-1.014l-.437-.235a3 3 0 0 1-.21-.126c-.699-.454-1.242-1.211-1.479-2.084a3.75 3.75 0 0 1 .494-3.073c.428-.658 1.13-1.218 2.018-1.635h.002c.839-.395 1.856-.67 2.963-.783a9.6 9.6 0 0 1 2.469.051l.093.015-.134-.128c-.472-.434-.978-.723-1.531-.782a4.8 4.8 0 0 0-2.227.286c-.709.263-1.37.672-1.997 1.148l-.67.508-.385-.746a2.7 2.7 0 0 1-.262-.968zm2.633 6.85c-.299.265-.54.574-.723.96a4.5 4.5 0 0 1 1.16-.8c.962-.467 2.124-.64 3.485-.674a36 36 0 0 1 2.034-.004 6.3 6.3 0 0 0-1.454-.616c-1.036-.282-2.108-.229-3.16.286-.53.26-.98.526-1.342.848z" style="fill:#1b1918;fill-rule:evenodd"></path><path d="M340.345 434.574c-.337 1.77-.556 3.66-.698 5.565a100 100 0 0 0-.242 5.675c-.036 2.094-.134 4.152-.23 6.21-.213 4.5-.426 9.003.004 13.44.275 2.827 1.379 5.585 2.458 8.281l.155.39v.003c.624 1.56 1.324 2.901 1.992 4.18 1.559 2.987 2.954 5.661 3.007 10.171v.008c-.008 2.791-.368 5.012-1.137 6.55-.807 1.614-2.038 2.505-3.75 2.556h-.004l-.13.003h-.01c-2.024.015-3.909-.948-5.294-2.324s-2.283-3.188-2.334-4.865v-.005l-.002-.1v-.011c-.013-1.835.508-3.264 1.465-4.265.99-1.034 2.417-1.58 4.177-1.619 1.627-.035 2.881.342 3.976 1.008.54.33 1.035.726 1.513 1.176-.362-3.095-1.49-5.258-2.729-7.629-.683-1.31-1.398-2.68-2.05-4.31h-.001l-.156-.39c-1.115-2.787-2.257-5.639-2.551-8.675-.44-4.54-.226-9.092-.011-13.638.098-2.071.196-4.143.23-6.166.033-1.885.1-3.843.243-5.758.145-1.944.436-3.774.784-5.611zm4.047 59.843c.644-1.29.958-3.207.986-5.654-.778-.876-1.522-1.617-2.367-2.131-.873-.532-1.885-.832-3.211-.804-1.377.03-2.466.429-3.187 1.182-.699.73-1.08 1.826-1.071 3.273l.002.095c.04 1.314.779 2.768 1.919 3.901 1.138 1.131 2.664 1.923 4.28 1.915l.123-.002c1.134-.034 1.964-.652 2.526-1.775z" style="fill:#1b1918;fill-rule:evenodd"></path><path d="M343.68 480.23c-.668.062-1.427.077-2.202.057a32 32 0 0 1-2.59-.174c-1.732-.187-3.246.089-4.579.732-1.347.65-2.526 1.684-3.568 2.999-.695.876-1.186 1.9-1.52 3.01-.343 1.14-.523 2.367-.59 3.62a8.5 8.5 0 0 0 .705 3.92c.522 1.198 1.306 2.285 2.258 3.27 1.207 1.25 2.456 2.383 3.911 3.243 1.437.85 3.088 1.44 5.121 1.625 1.934.176 3.836-.306 5.495-1.237a10.9 10.9 0 0 0 4.2-4.223c.55-1.004.973-2.08 1.28-3.185.33-1.194.53-2.428.612-3.646.092-1.358-.047-2.724-.328-4.07-.286-1.365-.72-2.717-1.212-4.025-.525-1.394-1.313-2.73-2.1-4.063-1.079-1.83-2.157-3.658-2.65-5.74-.557-2.347-.727-4.214-.674-5.956.053-1.732.327-3.308.661-5.108.588-3.167.346-6.457.104-9.749-.14-1.904-.28-3.811-.262-5.752.023-2.433.191-4.96.356-7.444v-.003c.074-1.117.148-2.225.205-3.242l1.38.218c-.062 1.113-.102 2.043-.173 3.118-.166 2.49-.335 5.022-.356 7.365-.017 1.841.122 3.742.262 5.64.248 3.377.496 6.75-.126 10.104-.324 1.744-.59 3.268-.64 4.891-.049 1.616.113 3.365.641 5.591.446 1.88 1.468 3.613 2.49 5.347.818 1.385 1.636 2.772 2.205 4.285.515 1.366.97 2.786 1.273 4.234.306 1.467.457 2.96.356 4.453a19.7 19.7 0 0 1-.663 3.928 16.3 16.3 0 0 1-1.401 3.49 12.35 12.35 0 0 1-4.748 4.777c-1.894 1.063-4.078 1.611-6.314 1.408-2.268-.206-4.11-.866-5.714-1.814-1.585-.936-2.924-2.15-4.21-3.48-1.06-1.098-1.94-2.321-2.535-3.685a9.9 9.9 0 0 1-.821-4.558c.073-1.366.27-2.705.645-3.95.384-1.275.955-2.46 1.77-3.488 1.169-1.475 2.508-2.642 4.06-3.391 1.567-.756 3.335-1.082 5.344-.865.784.085 1.646.148 2.473.169.726.018 1.431.005 2.041-.052z" style="fill:#1b1918;fill-rule:evenodd"></path><path d="M353.405 491.396c.485.98 1.46 2.342 2.618 3.727 1.185 1.417 2.55 2.843 3.776 3.901.785.678 1.647 1.238 2.585 1.596a6.35 6.35 0 0 0 2.99.391c1.297-.14 2.514-.442 3.542-1.163 1.027-.719 1.901-1.882 2.538-3.76l.707-2.085.639 2.107c.352 1.161.514 2.401.39 3.625a7.3 7.3 0 0 1-1.108 3.222c-.96 1.503-2.174 2.633-3.586 3.375-1.429.75-3.054 1.101-4.816 1.039-2.609-.093-5.135-.932-7.456-2.763-2.077-1.638-3.98-4.069-5.619-7.469l1.274-.614c1.542 3.2 3.309 5.468 5.22 6.976 2.065 1.63 4.312 2.375 6.631 2.458 1.512.054 2.897-.243 4.107-.878 1.198-.63 2.232-1.595 3.055-2.883.52-.817.8-1.703.891-2.601q.045-.444.032-.89c-.6 1.007-1.306 1.749-2.09 2.298-1.263.885-2.694 1.248-4.201 1.412a7.74 7.74 0 0 1-3.644-.474c-1.098-.419-2.1-1.067-3.006-1.85-1.288-1.113-2.71-2.596-3.936-4.062-1.222-1.461-2.264-2.923-2.8-4.01z" style="fill:#1b1918;fill-rule:evenodd"></path><path d="M346.616 457.103c-.552-.167-1.159-.259-1.845-.303-.73-.047-1.537-.044-2.452-.021-1.17.028-2.145.166-2.905.535-.703.341-1.242.907-1.612 1.814-.24.59-.342 1.456-.153 2.357.083.4.225.805.438 1.193.535-1.056 1.14-1.907 1.874-2.558 1.01-.893 2.235-1.385 3.82-1.476 1.172-.068 2.248.023 3.062.573.736.495 1.21 1.306 1.282 2.608l2.551.119.323.015.2.25c6.26 7.846 13.697 14.53 20.953 21.052 2.408 2.165 4.797 4.312 7.26 6.615.285.266.607.526.925.666.205.09.402.12.558.03.393-.225.705-.51.93-.836.222-.322.36-.69.405-1.085.69-5.929.95-11.723 1.214-17.589.096-2.141.193-4.293.307-6.407l-.257-.37-.154.46-.656 1.97-.68-1.958c-.165-.473-.296-1.038-.426-1.603a17 17 0 0 0-.351-1.365c-.377-.527-.782-.97-1.186-1.41l-.06-.066.207 23.968c.004.44-.945.817-1.229.482-1.435-1.697-3.147-3.525-4.724-5.327-1.532-1.75-3.064-3.502-4.707-5.305a852 852 0 0 0-8.01-8.541c-1.769-1.87-3.54-3.741-4.902-5.194-.57-.609-1.135-1.197-1.7-1.785-1.106-1.15-2.215-2.305-3.35-3.596-.992-1.127-1.675-2.484-2.33-3.785l-.493-.966c-.543-1.034-1.431-1.989-2.496-2.783a11.8 11.8 0 0 0-3.792-1.88 4.2 4.2 0 0 0-1.577-.115 4.9 4.9 0 0 0-1.621.47c-.507.251-1.05.674-1.473 1.118-.363.382-.618.74-.638.945l-.027.456c.456-.281.931-.524 1.433-.71a6.2 6.2 0 0 1 2.869-.369c.887.096 1.654.517 2.338 1.148.63.58 1.114 1.237 1.712 2.184.243.385-.553 1.25-.93.997-.7-.471-1.255-.527-1.92-.633a8.1 8.1 0 0 0-2.103-.04c-.95.097-1.809.327-2.507.656-.654.308-1.155.695-1.436 1.126l-.106.18a2.36 2.36 0 0 0-.205 1.752c.09.328.242.626.44.87.207-.305.446-.572.717-.812.465-.413 1.02-.743 1.665-1.059 1.384-.678 2.793-.75 4.15-.38 1.468.4 2.86 1.32 4.083 2.538.263.29-.272 1.312-.703 1.18" style="fill:#f79d34;fill-rule:evenodd"></path><path d="M343.375 434.834h-.003l-.014-.003c-.68-.07-1.317-.09-1.855-.07.521.131 1.15.24 1.833.311h.007c.678.07 1.313.09 1.85.069a13 13 0 0 0-1.819-.309zm.113-1.41v-.002h.003l.013.003c1.056.109 2.011.308 2.7.54.974.328 1.546.832 1.484 1.434s-.725.98-1.744 1.103c-.717.087-1.691.086-2.75-.023h-.008c-1.054-.11-2.007-.308-2.694-.54-.974-.328-1.547-.833-1.485-1.434.063-.603.725-.98 1.744-1.103.714-.086 1.683-.086 2.736.022zm-2.975 1.235c-.06-.047-.093-.073-.1-.01-.005.061.032.043.1.01m5.67.585c.06.047.093.073.1.01.006-.061-.031-.043-.1-.01" style="fill:#1b1918;fill-rule:evenodd"></path><path d="m343.375 434.834-1.872-.072 1.84.311c.679.07 1.314.09 1.85.068a13 13 0 0 0-1.818-.307" style="fill:#82c99f;fill-rule:evenodd"></path><path d="M343.186 436.478c-1.384-.143-2.378-.394-3.05-.693a54 54 0 0 0-.489 4.354 92 92 0 0 0-.209 4.22 6.4 6.4 0 0 1 1.29-.28 5.6 5.6 0 0 1 2.11.16c.993.28 1.988.7 2.918 1.232.033-2.338.194-4.757.352-7.14.042-.632.084-1.262.123-1.873a4 4 0 0 1-.287.044zM342.865 454.747c-1.036-.282-2.108-.229-3.16.286-.243.12-.47.24-.68.368l-.02.546c.922-.397 2.015-.549 3.28-.58a36 36 0 0 1 2.034-.004 6.3 6.3 0 0 0-1.454-.616zM340.374 449.647a9.6 9.6 0 0 1 2.469.05l.093.016-.134-.129c-.472-.434-.978-.722-1.531-.782a4.8 4.8 0 0 0-1.961.195q-.015.41-.034.82.53-.112 1.098-.17M343.86 460.055c-1.249.072-2.198.446-2.963 1.123-.72.636-1.306 1.558-1.841 2.756q.05.765.124 1.53c.274 2.827 1.378 5.585 2.457 8.281l.156.392c.623 1.562 1.323 2.902 1.99 4.181 1.56 2.987 2.955 5.66 3.008 10.171v.008c-.008 2.79-.368 5.012-1.137 6.55-.807 1.614-2.038 2.504-3.749 2.556h-.005l-.13.003h-.01c-2.024.014-3.909-.948-5.294-2.324-1.384-1.377-2.283-3.188-2.334-4.865v-.005l-.002-.1v-.011c-.013-1.835.508-3.265 1.465-4.265.99-1.035 2.417-1.581 4.177-1.619 1.627-.035 2.881.342 3.976 1.008.54.33 1.035.726 1.513 1.175-.296-2.525-1.101-4.43-2.06-6.333-.542.03-1.128.036-1.723.02a32 32 0 0 1-2.59-.173c-1.731-.188-3.246.089-4.579.732-1.347.65-2.525 1.683-3.568 2.999-.694.876-1.186 1.9-1.52 3.01-.343 1.14-.523 2.366-.59 3.62a8.5 8.5 0 0 0 .705 3.92c.522 1.198 1.307 2.284 2.258 3.269 1.207 1.25 2.456 2.383 3.912 3.243 1.436.85 3.087 1.44 5.12 1.625 1.934.176 3.836-.305 5.495-1.236a10.9 10.9 0 0 0 4.2-4.223c.55-1.004.973-2.08 1.28-3.186.331-1.194.53-2.428.612-3.646.092-1.358-.047-2.724-.328-4.07-.285-1.365-.72-2.717-1.212-4.024-.524-1.395-1.312-2.73-2.099-4.064-1.08-1.83-2.158-3.657-2.651-5.74-.557-2.347-.727-4.213-.674-5.955.054-1.733.328-3.309.661-5.108q.083-.443.142-.89c-.501-.337-1.294-.386-2.192-.334zM354.938 496.031a32 32 0 0 1-1.818-2.377q-.074.306-.158.61c-.244.878-.554 1.74-.935 2.564 1.506 3.041 3.222 5.213 5.072 6.673 2.065 1.63 4.312 2.376 6.631 2.458 1.512.054 2.897-.243 4.107-.878 1.198-.63 2.232-1.595 3.055-2.883.52-.817.8-1.703.891-2.601q.045-.444.032-.89c-.6 1.007-1.306 1.749-2.09 2.299-1.263.884-2.694 1.247-4.201 1.411a7.74 7.74 0 0 1-3.644-.473c-1.098-.42-2.1-1.068-3.006-1.851-1.288-1.113-2.71-2.596-3.936-4.062" style="fill:#00a656;fill-rule:evenodd"></path><path d="M392.394 464.46c1.303 4.24 2.75 8.478 4.3 12.714a393 393 0 0 0 4.905 12.652l.141.35-.21.312c-3.291 4.882-6.667 12.027-10.186 19.478-2.859 6.05-5.812 12.304-8.912 17.75l-.202.354-.41.003c-6.384.04-12.616.179-17.802.991-4.543.712-8.268 1.935-10.549 4.057q.275.105.528.225c.351.168.674.362.955.594 2.802-1.346 5.721-2.402 8.716-3.037 2.885-.612 5.844-.835 8.838-.554l-.128 1.406c-2.84-.267-5.66-.053-8.417.532-3.035.644-5.996 1.74-8.83 3.14l-.494.242-.357-.417c-.212-.247-.522-.45-.892-.627-.42-.2-.897-.36-1.392-.504l-1.035-.304.686-.826c2.413-2.908 6.762-4.477 12.155-5.322 5.163-.809 11.302-.961 17.602-1.004 2.995-5.309 5.873-11.402 8.66-17.302 3.472-7.349 6.804-14.4 10.082-19.352a392 392 0 0 1-4.78-12.35 256 256 0 0 1-4.323-12.786z" style="fill:#1b1918;fill-rule:evenodd"></path><path d="M355.066 535.454a4.6 4.6 0 0 0-1.195.657l-.002.002-.016.012 5.702.57-.138 1.406-7.125-.713-1.2-.12.69-.987a5.8 5.8 0 0 1 1.228-1.292 6 6 0 0 1 1.559-.859z" style="fill:#1b1918;fill-rule:evenodd"></path><path d="M377.129 533.455c-2.957.24-5.882.692-8.774 1.432a44 44 0 0 0-8.56 3.146c-1.108.544-2.02 1.176-2.733 1.91q-.495.51-.86 1.09c6.132-1.92 15.918-4.608 26.51-6.118 6.512-.927 13.332-1.412 19.806-1.005a58 58 0 0 0-6.015-2.56 65.6 65.6 0 0 0-9.963-2.707l-.934-.179.438-.842c2.18-4.194 4.34-8.623 6.5-13.051 4.333-8.882 8.666-17.765 13.183-24.805l.01-.014c.005-.009-.107-.123-.254-.269-.292-.292-.63-.629-.858-1.153l-.006-.011a395 395 0 0 0-1.626-3.832c-2.905-6.776-5.81-13.553-6.749-21.147-.815.033-1.561.145-2.201.372-.732.26-1.326.68-1.721 1.323l-1.207-.736c.582-.948 1.428-1.556 2.457-1.922.962-.341 2.085-.464 3.3-.46l.635.002.068.629c.828 7.643 3.774 14.515 6.719 21.385a411 411 0 0 1 1.632 3.843c.122.274.353.505.554.705.616.615 1.089 1.088.43 2.063-4.463 6.956-8.778 15.802-13.092 24.647-2.022 4.145-4.044 8.29-6.083 12.247a66.5 66.5 0 0 1 9.245 2.583 58 58 0 0 1 9.282 4.29l2.98 1.716-3.412-.4c-7.34-.863-15.336-.391-22.918.69-11.44 1.63-21.928 4.643-27.823 6.554l-1.334.432.448-1.329a7.9 7.9 0 0 1 1.846-3.016c.825-.85 1.868-1.575 3.127-2.193a45.5 45.5 0 0 1 8.83-3.251c2.97-.76 5.974-1.225 9.012-1.471z" style="fill:#1b1918;fill-rule:evenodd"></path><path d="M401.53 490.488c-3.291 4.882-6.667 12.027-10.186 19.478-2.859 6.05-5.812 12.304-8.912 17.75l-.202.354-.41.003c-6.384.04-12.616.179-17.802.991-4.543.712-8.268 1.935-10.549 4.057q.275.105.528.225c.351.168.674.362.955.594 2.802-1.346 5.721-2.401 8.716-3.037 2.885-.612 5.844-.835 8.838-.554l-.128 1.406c-2.84-.267-5.66-.053-8.417.532-3.035.644-5.996 1.74-8.83 3.14l-.065.027-.429.215-.019-.021a4.4 4.4 0 0 0-.75.466l-.015.011 5.505.551a45.6 45.6 0 0 1 8.648-3.162c2.97-.76 5.974-1.224 9.012-1.47l.11 1.41c-2.956.24-5.881.694-8.773 1.433a44 44 0 0 0-8.56 3.146c-1.108.545-2.02 1.176-2.733 1.91q-.495.51-.86 1.09c6.132-1.92 15.918-4.607 26.51-6.117 6.512-.928 13.332-1.413 19.806-1.006a58 58 0 0 0-6.015-2.56 65.6 65.6 0 0 0-9.963-2.707l-.934-.179.438-.842c2.18-4.194 4.34-8.623 6.5-13.05 4.333-8.883 8.666-17.766 13.183-24.806l.01-.014c.005-.009-.107-.122-.254-.269-.292-.292-.63-.628-.858-1.153l-.006-.01a395 395 0 0 0-1.626-3.833c-2.905-6.775-5.81-13.552-6.749-21.147-.815.034-1.561.145-2.201.372-.633.225-1.161.569-1.549 1.073a256 256 0 0 0 4.201 12.389 393 393 0 0 0 4.904 12.653l.141.349z" style="fill:#f79d34;fill-rule:evenodd"></path><path d="M366.37 343.698a3.139 3.256 51.546 0 1-4.501-.433 3.139 3.256 51.546 1 1 4.501.433" style="fill:#000;fill-rule:evenodd"></path><path d="M428.854 433.121a.9.9 0 0 0-.197.51c-.01.18.035.355.147.515.897 1.29 2.177 2.026 3.683 2.403.74.185 1.532.282 2.359.315a8 8 0 0 1-.904.326c-1.13.33-2.434.453-3.868.423a.706.706 0 0 0-.541 1.175l.088.102c2.999 3.367 5.74 6.79 7.347 10.21 1.676 3.075 2.89 6.217 3.552 9.44l-1.758-.836a.707.707 0 0 0-.845 1.093l5.992 7.76-2.133-1.453a.708.708 0 0 0-1.01.93h-.001c.74 1.34 1.654 2.956 2.564 4.568 1.761 3.127 3.417 6.043 5.003 9.138a1.3 1.3 0 0 1 .144.432c-.796.667-2.712.175-4.237-.217-.262-.067-.518-.134-.682-.173-3.237-.785-6.16-1.85-8.627-3.311-2.433-1.44-4.426-3.267-5.841-5.591-1.82-1.017-3.583-2.53-4.861-3.903-1.295-1.392-2.386-2.916-3.403-4.449a.707.707 0 0 0-1.18.78c1.053 1.588 2.187 3.17 3.548 4.632 1.335 1.436 2.886 2.75 4.786 3.834 1.536 2.46 3.658 4.393 6.23 5.914 2.593 1.534 5.645 2.65 9.016 3.467.263.063.46.114.665.167 1.9.489 4.295 1.104 5.625-.185l.009-.009.01-.009c.282-.28.374-.634.356-.998v-.024c-.023-.356-.161-.727-.3-1-1.59-3.103-3.311-6.146-5.031-9.188l-1.14-2.022 3.127 2.07a.707.707 0 0 0 .95-1.02l-6.684-8.695.347.165a.706.706 0 0 0 .999-.746c-.604-3.862-1.967-7.6-3.95-11.237-1.754-3.219-3.991-6.357-6.616-9.428.98-.06 1.9-.204 2.743-.45 1.294-.378 2.413-.993 3.312-1.904a.707.707 0 0 0-.511-1.243c-1.558.114-3.042.093-4.305-.223-.848-.212-1.6-.562-2.208-1.1 1.447.08 2.83.194 4.203.305.668.055 5.259.19 5.746.209.225.009.539.048.654-.016.114-.063.045-.027.067-.043a.9.9 0 0 0 .34-.459.8.8 0 0 0-.109-.699l-.023-.033c-.134-.185-.389-.37-.83-.523-1.94-.68-3.506-1.37-4.555-2.15-.49-.363-.86-.744-1.091-1.152a14.8 14.8 0 0 0 3.802.84c1.693.147 3.396.009 5.103-.347a.706.706 0 0 0-.036-1.39c-1.93-.302-3.634-.828-5.102-1.614a11 11 0 0 1-2.866-2.183c1.688.468 3.301.531 5.119.602.488.019.995.04 1.577.071 1.47.082 2.85.097 4.106-.03 1.275-.128 2.423-.402 3.408-.896a.706.706 0 0 0-.128-1.344 30.7 30.7 0 0 1-6.529-2.193 36.6 36.6 0 0 1-5.534-3.196c3.937-.297 7.837-.428 11.736-.56 2.048-.068 4.097-.137 6.105-.227a.708.708 0 0 0 .335-1.33l-4.994-2.69a22 22 0 0 0 3.45.067c1.646-.1 3.287-.402 4.92-.947a.707.707 0 0 0 .05-1.35c-1.088-.382-2.15-.734-3.21-1.086-3.528-1.168-7.032-2.329-9.452-3.906 2.467.109 4.76.15 6.921.06 2.244-.092 4.34-.323 6.33-.759a.707.707 0 0 0-.078-1.394c-2.277-.233-4.37-.635-6.138-1.33-1.136-.445-2.138-1.014-2.967-1.738 2.828.152 5.635.245 8.392.185 3.322-.072 6.552-.367 9.622-1.047a.705.705 0 0 0 .232-1.3l-.537-.322c2.86-.062 5.702-.166 8.174-1.018a.706.706 0 0 0 .091-1.323l-1.378-.626c2.067-.433 4.113-.878 5.068-2.01a.708.708 0 0 0-.395-1.164 52 52 0 0 0-2.351-.386c-1.191-.177-2.383-.354-3.525-.658a26.5 26.5 0 0 0 5.71-1.49c2.429-.937 4.278-2.09 5.088-2.969.623-.675.59-1.153.183-1.528-.315-.29-.742-.277-1.192-.262a6 6 0 0 1-.322.005c-.521-.01-1.518-.015-2.787-.019-3.36.16-13.554.445-15.343-.138-.968-.315-.585-.58-.22-.64 4.515-1.074 8.723-2.163 12.452-3.458 3.95-1.371 7.341-2.97 9.956-5.02q.062-.049.114-.104l.027-.029c.212-.241.3-.573.285-.891a1.5 1.5 0 0 0-.287-.813 1 1 0 0 0-.118-.125l-.004-.004-.003-.003-.02-.02c-.251-.22-.569-.35-.897-.4a2.2 2.2 0 0 0-.98.069c-2.614.821-5.757 1.571-9.245 2.145a86 86 0 0 1-10.187 1.05 1.4 1.4 0 0 1-.42-.057c4.035-1.817 7.957-3.852 11.71-6.19 3.974-2.475 7.763-5.295 11.304-8.563l.04-.034.073-.074.044-.043c.235-.256.457-.625.565-.989v-.003c.137-.461.114-.94-.196-1.315a1 1 0 0 0-.066-.075l-.026-.026v.001l-.02-.018c-.394-.364-.89-.501-1.41-.5-.571 0-1.165.175-1.64.372-2.22.92-4.095 1.835-5.96 2.745-3.032 1.48-6.04 2.95-10.361 4.356-2.339.761-4.632 1.451-6.875 1.998-2.238.545-4.438.954-6.602 1.157l-.024.002-.011-.025.057-.039.074-.056v-.002c2.17-1.647 4.547-3.239 6.913-4.823 3.95-2.644 7.874-5.27 10.93-8.227.205-.2.389-.488.478-.787a1.33 1.33 0 0 0-.05-.959h-.001l-.017-.033a1 1 0 0 0-.041-.075c-.183-.287-.495-.45-.82-.498a1.45 1.45 0 0 0-.802.11v.002q-.076.035-.129.07h.001c-3.81 2.43-7.394 4.356-10.94 5.965-3.552 1.613-7.054 2.903-10.698 4.062-1.213.386-2.537.41-3.886.435-.296.005-.597.011-.87.02-.295.009-.614-.01-.877-.092-.17-.053-.31-.135-.367-.257l-.002-.007-.004-.015a.24.24 0 0 1 .018-.17.52.52 0 0 1 .261-.234 1 1 0 0 1 .117-.046l.029-.008c3.793-1.148 10.266-3.909 16.441-7.985 4.387-2.896 8.63-6.461 11.675-10.595.222-.3.301-.658.291-1.018-.01-.37-.194-.883-.332-1.182l-.03-.048a1.5 1.5 0 0 0-.59-.48c-.293-.132-.63-.164-.934-.024v.001l-.003.001a1 1 0 0 0-.147.084c-3.804 2.674-7.888 5.03-12.168 7.139-4.284 2.11-8.772 3.979-13.375 5.676a.6.6 0 0 1-.106.028q-.009-.036-.006-.065c.004-.047.035-.108.104-.186l.032-.032a365 365 0 0 1 3.952-4.049c5.144-5.19 10.005-10.063 13.182-15.898.42-.765.754-1.534.968-2.322.22-.808.313-1.636.242-2.499-.035-.436-.167-.82-.36-1.089l-.023-.032a1.17 1.17 0 0 0-.582-.424v.001h-.003a1.03 1.03 0 0 0-.801.077v.002c-.237.124-.465.349-.66.692-3.733 5.629-9.457 9.91-15.074 14.11-1.246.93-2.486 1.858-3.81 2.884-3.932 3.046-8.237 5.65-12.701 7.991-4.473 2.345-9.126 4.434-13.734 6.437a21.3 21.3 0 0 0-4.74 2.863 26 26 0 0 0-4.147 4.174c-1.974 2.48-3.925 5.418-5.834 8.29-.71 1.068-1.408 2.12-1.987 2.972-2.068 3.046-4.114 5.653-6.348 8.096-2.23 2.439-4.66 4.725-7.495 7.13-1.371 1.164-2.783 2.009-4.138 2.583-1.327.563-2.597.87-3.718.963a48.7 48.7 0 0 1-2.028-9.338c-.363-3.169-.395-6.377-.022-9.494.577-4.818 2.484-9.409 4.385-13.984.794-1.912 1.588-3.822 2.295-5.776a36 36 0 0 0 1.48-5.37 37.6 37.6 0 0 0 .656-5.615c.124-2.98-.218-5.667-1.056-8.08-.844-2.43-2.188-4.575-4.06-6.457-1.55-1.557-3.205-2.803-4.989-3.682a14.2 14.2 0 0 0-5.8-1.477c-2.945-.112-5.548.75-7.873 2.313-2.287 1.536-4.296 3.745-6.091 6.362a5.2 5.2 0 0 0-.738 1.565 5.7 5.7 0 0 0-.185 1.823c.02.39.407.77.797.75s.634-.432.614-.822c-.026-.508.021-.962.136-1.375.113-.405.297-.783.544-1.144 1.7-2.479 3.586-4.56 5.71-5.986 2.084-1.4 4.412-2.174 7.036-2.074 1.865.071 3.6.533 5.224 1.333 1.64.808 3.171 1.963 4.612 3.41 1.72 1.73 2.954 3.699 3.728 5.925.78 2.243 1.096 4.757.98 7.56a37 37 0 0 1-.641 5.444 34 34 0 0 1-1.413 5.116c-.686 1.896-1.48 3.804-2.273 5.715-1.939 4.666-3.889 9.393-4.49 14.404-.386 3.227-.347 6.5.028 9.776.405 3.473 1.55 6.861 2.262 10.137.1.313.368.528.715.48 1.4-.04 3.03-.382 4.723-1.1a17.6 17.6 0 0 0 4.503-2.805c2.869-2.434 5.338-4.76 7.623-7.258 2.281-2.495 4.37-5.154 6.476-8.256a336 336 0 0 0 1.997-2.983c1.89-2.845 3.823-5.754 5.762-8.19a24.5 24.5 0 0 1 3.92-3.948 20 20 0 0 1 4.425-2.674c4.62-2.01 9.294-4.108 13.822-6.482 4.537-2.379 8.913-5.027 12.912-8.124 1.167-.904 2.478-1.884 3.793-2.868 5.637-4.215 11.381-8.51 15.253-14.234.038.647-.05 1.145-.207 1.891-.183.677-.502 1.345-.841 2.012-3.039 5.54-7.892 10.46-12.978 15.618a365 365 0 0 0-3.94 4.035c-.047.048-.144.179-.154.193-.305.335-.333.532-.364.878-.031.36-.011.534.146.836l.072.153c.182.352.497.533.85.595.313.055.667-.013.938-.113 4.64-1.71 9.172-3.582 13.514-5.721 4.248-2.093 8.307-4.426 12.096-7.067.04.115.08.237.071.347-.006.082-.01.126-.024.148-2.933 4.03-7.031 7.426-11.31 10.246-6.042 3.988-12.368 6.687-16.072 7.808l-.04.014a3 3 0 0 0-.319.128 1.86 1.86 0 0 0-.917.899c-.183.388-.256.841-.113 1.203.03.075.072.115.102.196.254.535.704.841 1.225 1.004.43.135.907.166 1.337.153.302-.01.646-.028.921-.033 1.454-.026 2.866-.04 4.222-.488 3.711-1.18 7.266-2.49 10.854-4.118a87 87 0 0 0 9.894-5.296c-2.833 2.554-6.34 4.902-9.87 7.265l-7.023 4.907-.07.049c-.526.395-1.2.93-.97 1.785.256.948 1.22.854 1.872.79l.104-.01c2.242-.21 4.505-.63 6.797-1.189 2.303-.561 4.625-1.26 6.98-2.025 4.427-1.442 7.474-2.929 10.545-4.428 1.855-.906 3.725-1.819 5.885-2.714.341-.141.723-.273 1.073-.273.175 0 .352.039.455.12l.013.013c0 .012-.022.03-.04.067l-.02.031a3 3 0 0 1-.275.332l-.035.037-.038.035c-3.459 3.193-7.18 5.96-11.094 8.398-3.927 2.447-8.05 4.559-12.298 6.437a1.7 1.7 0 0 0-.425.288c-.094.089-.18.194-.239.31-.13.256-.144.534.026.8.055.088.13.16.214.219.298.212.635.416.996.565.392.162.792.26 1.222.242l.021-.001a87 87 0 0 0 10.354-1.066c3.565-.587 6.772-1.352 9.44-2.19a.8.8 0 0 1 .417-.008c-2.459 1.88-5.652 3.372-9.372 4.663-3.836 1.332-7.562 2.274-12.323 3.398-.22.052-.62.165-.824.226-.327.099-.48.395-.536.702-.034.186-.023.393.014.552q.009.038.022.073l.007.023.004.011c.452 3.14 9.287 2.778 17.058 2.386.653-.097 2.006-.382 2.567-.375-.855.642-2.21 1.38-3.896 2.03a25 25 0 0 1-6.283 1.518c-.345.036-.63.3-.792.586-.078.154-.13.333-.154.509-.027.205-.015.423.042.61.093.298.285.536.596.643 1.537.529 3.124.765 4.71 1l.431.064c-.837.292-1.894.514-2.95.735l-1.985.447a.706.706 0 0 0-.117 1.329l1.495.678c.341.182-3.015.311-6.364.348-.659.014-1.357.152-1.987.173a.706.706 0 0 0-.684.728c.008.25.123.471.322.59l1.07.623c-2.44.416-4.98.612-7.58.668-3.252.07-6.619-.077-10.015-.283a.707.707 0 0 0-.614 1.12c1.142 1.577 2.762 2.679 4.717 3.446q.966.378 2.034.654-.83.066-1.689.1c-2.174.09-4.498.045-7.009-.07-.315-.014-.814.134-1.156.352-.165.106-.303.22-.409.368l-.013.018a.93.93 0 0 0-.159.817l.008.03c.057.202.17.358.372.51 2.609 1.945 7.544 3.597 11.485 4.902-.745.134.562-.048-2.382.283-1.545.173-3.106.02-4.668-.222a.7.7 0 0 0-.515.121l-.747.523a.706.706 0 0 0-.175.983.6.6 0 0 0 .22.21l.013.005 4.565 2.449c-1.05-.005-2.352.136-3.544.13l-12.28.596c-.282.022-.652.196-.908.404a1.5 1.5 0 0 0-.326.357c-.15.239-.203.503-.11.777a.842.842 0 0 0 .309.416l.015.01c2.091 1.53 4.279 2.84 6.55 3.892a33 33 0 0 0 4.36 1.66q-.32.049-.657.083c-1.17.117-2.488.102-3.896.024-.52-.029-1.064-.05-1.599-.071-2.014-.078-3.762-.147-5.578-.802a1.47 1.47 0 0 0-.966-.032c-.2.066-.368.181-.49.316a1.044 1.044 0 0 0-.255.599.94.94 0 0 0 .226.669 12.4 12.4 0 0 0 4.096 3.488q.772.413 1.62.74a13.546 13.546 0 0 1-5.411-1.288.706.706 0 0 0-1.005.607c-.067 1.396.635 2.522 1.943 3.494m38.93-89.057zm-17.524 26.306c-.067.04-.062.034 0 0m-21.406 62.75c.667.496 1.498.951 2.468 1.385q-1.42-.1-2.816-.216l-5.03-.346m-.777.247c.22-.153.537-.26.787-.248zm0 0-.058.044zm-.265.25q.09-.115.207-.206" style="fill:#1b1918;fill-rule:evenodd"></path><path d="M425.562 468.38c.394.168.626.49.537.84a.706.706 0 0 1-.841.538c-2.705-.6-5.06-1.76-7.098-3.44-2.025-1.673-3.73-3.857-5.148-6.517a.706.706 0 0 1 1.246-.665c1.33 2.498 2.92 4.54 4.799 6.09 1.866 1.54 4.025 2.603 6.505 3.153" style="fill:#1b1918;fill-rule:evenodd"></path><path d="M417.628 464.45a.706.706 0 0 1-.354 1.367c-1.8-.467-3.466-1.368-4.912-2.634-1.43-1.251-2.646-2.86-3.564-4.757a.707.707 0 0 1 1.274-.615c.834 1.726 1.933 3.182 3.22 4.31 1.282 1.12 2.752 1.918 4.336 2.329" style="fill:#1b1918;fill-rule:evenodd"></path><path d="M415.132 463.573a.707.707 0 0 1 .15 1.406c-2.257.246-4.03-1.088-5.645-2.613l-.007.007a.7.7 0 0 1-.535.201c-.79-.028-1.544-.104-2.256-.287-.75-.193-1.444-.504-2.069-.999-.294-.233-.684-.53-1.068-.824-2.056-1.568-3.96-3.02-5.566-6.16-.285 2.037-.38 4.114-.475 6.193-.033.72-.066 1.444-.103 2.102a.707.707 0 0 1-1.412-.078c.041-.737.072-1.41.103-2.085.133-2.904.266-5.806.906-8.66a.706.706 0 0 1 1.357-.12c1.638 4.32 3.74 5.924 6.048 7.685.324.247.654.499 1.085.84.458.362.976.593 1.543.739l.02.005-2.165-2.19a.708.708 0 0 1 .655-1.211c1.42.38 2.66 1.606 3.963 2.894 1.651 1.632 3.42 3.379 5.47 3.155zm-6.037-1a.7.7 0 0 1-.464-.209M392.294 464.26a.705.705 0 0 1-1.151.814c-3.495-4.934-8.263-12.238-13.166-20.296-4.225-6.944-8.56-14.46-12.284-21.525a.708.708 0 0 1 1.251-.659c3.71 7.038 8.03 14.528 12.24 21.448 4.905 8.061 9.651 15.334 13.11 20.218" style="fill:#1b1918;fill-rule:evenodd"></path><path d="M380.112 458.366a.708.708 0 0 1-1.356.404c-.331-1.098-.973-2.89-1.426-4.13l-.965 1.593a.708.708 0 0 1-1.311-.425l.059-5.513-.81.593a.707.707 0 0 1-1.121-.653l.45-3.814-.322.295a.708.708 0 0 1-1.182-.573c.065-.907.196-1.787.328-2.666.113-.76.227-1.522.293-2.272a120 120 0 0 1-5.332-6.686 102 102 0 0 1-4.71-6.931c-2.032-3.286-3.936-6.873-5.292-10.84-1.361-3.985-2.172-8.352-2.013-13.179.135-4.08.682-8.17 1.584-12.182a72 72 0 0 1 3.871-12.07c.87-2.068 2.124-4.433 3.497-7.022 2.803-5.288 6.11-11.524 7.49-17.755.084-.382.14-.631.19-.85.423-1.866.844-3.724.806-5.647-1.532 1.265-3.054 2.246-4.563 2.858-1.927.781-3.832.967-5.708.391a.707.707 0 0 1 .415-1.35c1.54.472 3.13.308 4.761-.353 1.697-.688 3.439-1.911 5.212-3.52a.707.707 0 0 1 1.176.426c.378 2.662-.17 5.078-.72 7.505l-.19.844c-1.423 6.427-4.776 12.75-7.618 18.11-1.364 2.573-2.61 4.923-3.446 6.912a70.6 70.6 0 0 0-3.794 11.832c-.884 3.928-1.419 7.93-1.55 11.915-.154 4.637.627 8.84 1.94 12.68 1.318 3.856 3.172 7.35 5.154 10.552a100 100 0 0 0 4.643 6.833 119 119 0 0 0 5.464 6.826h-.001a.7.7 0 0 1 .17.512c-.065.906-.197 1.786-.328 2.666l-.106.715.319-.291a.708.708 0 0 1 1.192.595l-.484 4.087.638-.466v.001a.706.706 0 0 1 1.123.575l-.047 4.39.386-.636a.708.708 0 0 1 1.27.122c.004.01 1.403 3.73 1.964 5.591z" style="fill:#1b1918;fill-rule:evenodd"></path><path d="M430.434 438.708c-1.158.224-9.532.51-15.675-.3 10.887 13.232 20.788 17.432 21.395 19.567-7.23-3.418-15.888-9.452-22.05-17.626-6.496.847-20.898-7.41-25.988-16.686 4.107 2.469 8.208 4.886 12.113 4.424-3.01-1.55-5.91-3.944-5.888-6.112.003-.267.688-.25.878-.062 2.392 2.362 4.99 4.285 8.197 5.48 1.1.411.4-.659.263-.805-1.981-2.107-3.425-3.192-4.81-5.794-.45-.462.689-1.022.98-.772 2.87 2.453 5.955 5.265 8.855 5.253-1.961-1.74-5.24-3.168-6.6-6.975-.085-.235.25-.75.45-.6 3.407 2.563 8.519 5.565 10.93 6.298.356.108 1.359-.516 1.07-.748-1.147-.922-2.158-1.446-2.4-2.55 3 .47 5.374 1.606 8.625.375.266-.101-.241-.694-.525-.675-3.81.252-6.947-1.136-8.888-4.65-.243-.442-.117-1.896 1.612-.826 2.375 1.413 3.383 1.955 6.9 2.55.64.108.996-.134.788-.337-1.918-1.868-5.365-2.622-6.206-5.1-.2-.59.03-.423.675-.3 2.519-.225 6.275 1.95 9.019 1.462-1.475-1.45-2.52-1.962-3.994-3.412-.67-.488-.531-2.025.787-1.35 2.363 1.125 4.988 1.95 7.857 1.95.075-1.35-3.365-1.833-5.175-3.563-.198-.189-.902-.923.337-.75 3.154.44 6.5 1.025 9.863.938-2.794-1.513-7.276-2.52-7.988-4.838 3.582-.681 7.376 1.47 11.138.938.222-.032.662-.976.103-.985-3.452-.052-6.51-1.86-8.128-4.903 2.375.038 4.753.242 7.125.113 2.44-.133 4.523-1.226 7.275-.9.186.022.182-.472.019-.563-1.89-1.058-5.338-.9-5.898-2.728 2.61-.588 5.215-.077 7.772-.525.618-.109.63-.765-.131-.975-3.95-1.094-7.937-2.003-10.032-4.913 2.888-1.644 6.975-.925 10.463-1.725-.645-1.046-4.681-.241-6.263-2.512 2.788-.288 6.25-.951 9.038-1.238.038-2.1-8.55-.413-9.413-3.338 3.107.25 6.176-.475 9.263-.712-.23-1.094-7.175-.5-8.4-1.2 1.281-1.294 4.644-.412 6.038-2.362-3.6-.025-7.438-.72-10.8-.075-6.958 1.334-8.402 3.233-12 5.85-13.5 9.818-24.624 19.331-38.85 23.418-1.343.386-1.361-.669.205-1.2 4.958-1.68 9.063-3.343 13.556-6.168 7.517-4.728 14.323-10.194 21.188-15.825 2.742-2.25 4.724-4.869 10.725-7.05 2.476-.9 7.24-1.398 13.519-1.07-1.235-1.064-2.892-2.461-4.219-3.13-2.336-1.18-4.887-.022-7.275.975 1.875-2.475 5.945-4.128 8.963-5.438.892-.387 1.275-1.775.544-2.925-.596-.937-1.674-1.633-2.757-1.876-2.525-.567-4.992 1.66-8.345 4.356-.247.199-1.405.43-1.832.266 1.6-1.862 5.427-4.147 8.002-6.047.786-.61 1.639-1.173 1.2-2.7-.445-1.548-2.28-1.286-3.6-1.35" style="fill:none"></path><path d="M445.163 405.123c.342-.47 1.106-.76 1.578-.738l8.698-.03c-2.677-.696-5.156-1.897-6.75-4.1a.708.708 0 0 1 .613-1.12c5.84.347 11.925.582 17.594-.385l-1.069-.622c-.545-.322-.377-1.295.361-1.319.63-.021 1.329-.16 1.988-.173 3.349-.037 6.705-.166 6.364-.348l-1.495-.678c-.61-.276-.519-1.176.116-1.329l4.936-1.182-5.141-1.064c-1.057-.364-.743-2.239.308-2.348 3.451-.36 7.755-1.728 10.179-3.548-.561-.007-1.915.278-2.567.375-7.772.392-16.607.755-17.059-2.386l-.046-.66c.127-.692.586-.744 1.36-.927 7.228-1.71 16.308-3.94 21.696-8.061l-.418.009c-5.896 1.844-13.113 2.977-19.793 3.255-.826.034-1.592-.344-2.24-.806-.651-.465-.291-1.3.424-1.617 8.42-3.726 16.607-8.518 23.393-14.835l.347-.404c.253-.34-.754-.26-1.481.042-6.15 2.548-9.232 4.799-16.43 7.142-4.53 1.474-9.113 2.766-13.777 3.214-.677.066-1.71.208-1.976-.78-.23-.855.445-1.39.97-1.785l7.092-4.956c3.53-2.363 7.038-4.71 9.87-7.265-7.077 4.373-13.073 6.925-20.746 9.414-1.357.449-2.769.462-4.223.488-1.206.023-2.962.266-3.585-1.32-.305-.776.242-1.865 1.349-2.23 4.067-1.34 9.7-3.593 16.111-7.822 4.28-2.82 8.378-6.217 11.311-10.246l-.047-.495c-7.822 5.453-16.596 9.47-25.61 12.788-.27.1-.625.168-.937.113-.354-.062-.67-.243-.85-.595-.355-.744-.354-1.39.3-2.06 5.712-5.857 13.566-13.316 16.917-19.653.664-1.256 1.128-2.535 1.048-3.903-4.761 7.038-12.353 11.918-19.046 17.102-3.06 2.37-6.342 4.478-9.745 6.401 1.105.024 2.242.157 2.58 1.331.438 1.526-.415 2.09-1.201 2.7-2.575 1.9-6.402 4.185-8.002 6.047.427.164 1.585-.067 1.832-.266 3.353-2.695 5.82-4.923 8.345-4.356 1.083.243 2.16.94 2.757 1.876.731 1.15.348 2.538-.544 2.925-3.018 1.31-7.088 2.963-8.963 5.437 2.388-.996 4.939-2.153 7.275-.975 1.327.67 2.984 2.067 4.219 3.132-6.279-.329-11.043.168-13.519 1.068-6 2.182-7.983 4.801-10.725 7.05-6.865 5.632-13.67 11.098-21.188 15.825-4.493 2.826-8.598 4.488-13.556 6.17-1.566.53-1.548 1.585-.206 1.2 14.227-4.088 25.35-13.6 38.85-23.42 3.599-2.617 5.043-4.515 12-5.85 3.363-.645 7.2.05 10.8.076-1.393 1.95-4.756 1.068-6.037 2.362 1.225.7 8.17.106 8.4 1.2-3.087.237-6.156.962-9.263.712.863 2.925 9.45 1.238 9.413 3.338-2.787.287-6.25.95-9.038 1.237 1.582 2.272 5.618 1.466 6.263 2.513-3.488.8-7.576.081-10.463 1.725 2.095 2.91 6.082 3.82 10.032 4.913.76.21.75.866.131.974-2.557.45-5.163-.062-7.772.525.56 1.829 4.008 1.671 5.898 2.729.163.091.167.585-.02.563-2.75-.326-4.834.767-7.274.9-2.372.13-4.75-.075-7.125-.113 1.617 3.043 4.676 4.85 8.128 4.903.56.008.119.953-.103.985-3.762.531-7.556-1.62-11.138-.938.712 2.319 5.194 3.325 7.988 4.838-3.363.087-6.709-.497-9.863-.938-1.239-.173-.535.561-.337.75 1.81 1.73 5.25 2.213 5.175 3.563-2.869 0-5.494-.825-7.857-1.95-1.318-.676-1.456.862-.787 1.35 1.475 1.45 2.519 1.962 3.994 3.412-2.744.487-6.5-1.688-9.02-1.462-.645-.123-.875-.29-.674.3.84 2.478 4.288 3.232 6.206 5.1.208.203-.149.445-.788.337-3.517-.595-4.525-1.137-6.9-2.55-1.729-1.07-1.855.384-1.612.825 1.94 3.515 5.077 4.902 8.887 4.65.284-.018.792.575.525.676-3.25 1.231-5.623.095-8.625-.375.243 1.103 1.254 1.628 2.4 2.55.29.232-.713.856-1.068.748-2.412-.734-7.524-3.735-10.932-6.298-.2-.15-.534.365-.45.6 1.36 3.807 4.64 5.235 6.6 6.975-2.9.012-5.984-2.8-8.853-5.253-.292-.25-1.431.31-.981.772 1.385 2.602 2.829 3.687 4.81 5.793.138.147.838 1.217-.263.807-3.207-1.197-5.805-3.119-8.197-5.48-.19-.188-.875-.206-.878.06-.022 2.17 2.879 4.564 5.888 6.113-3.905.462-8.006-1.955-12.113-4.425 5.09 9.277 19.492 17.534 25.987 16.687 6.163 8.174 14.822 14.208 22.05 17.626-.606-2.135-10.507-6.335-21.394-19.567 5.304.7 12.272.582 14.821.392l-.226-.496c.028-1.39 2.305-.046 5.492-1.44-2.346-.094-4.644-.709-6.042-2.718a.8.8 0 0 1-.147-.516.9.9 0 0 1 .197-.509c.058-.075.13-.145.207-.205l.057-.044c.218-.151.53-.257.778-.247h.01l7.836.562c-.97-.434-1.801-.889-2.468-1.384-1.308-.971-2.01-2.098-1.943-3.494a.7.7 0 0 1 .065-.266c.578-1.237 1.83.812 6.35.947-2.454-.95-4.05-2.173-5.715-4.228-.666-.822.225-2.006 1.485-1.552 1.816.655 3.564.724 5.578.802 2.106.082 4.186.264 6.152-.036-4.032-1.212-7.448-3.068-10.91-5.551-.951-.683.093-1.906 1.02-1.965l12.28-.596c1.192.005 2.493-.135 3.544-.13l-4.565-2.449c-.394-.2-.531-.867-.058-1.198.445-.311.852-.707 1.262-.644 1.562.242 3.122.395 4.668.222 2.944-.33 1.637-.149 2.382-.283-3.94-1.305-8.876-2.957-11.485-4.902-.46-.345-.544-.907-.221-1.357z" style="fill:#000;fill-rule:evenodd"></path><path d="M375.66 388.479c-.375-3.277-.413-6.55-.027-9.777.851-7.108 4.366-13.497 6.762-20.12 1.958-5.41 2.944-12.74 1.074-18.118-1.93-5.555-7.519-10.438-13.564-10.669-5.59-.213-9.662 3.563-12.745 8.06a3.8 3.8 0 0 0-.545 1.145c-.078.28-.1.582-.115.869a7.5 7.5 0 0 1 2.77 2.035 7.5 7.5 0 0 1 1.516 2.93c.84.582 1.815 1.684 2.077 2.501.239.744.3 1.595.198 2.63 1.515.443 3.08.274 4.684-.376 1.697-.688 3.439-1.911 5.212-3.52a.707.707 0 0 1 1.176.426c.378 2.662-.17 5.078-.72 7.505l-.19.844c-1.423 6.427-4.776 12.75-7.618 18.11-1.364 2.573-2.61 4.923-3.446 6.912a70.6 70.6 0 0 0-3.794 11.832c-.884 3.928-1.419 7.93-1.55 11.915-.154 4.637.627 8.84 1.94 12.68 1.318 3.856 3.172 7.35 5.154 10.552a100 100 0 0 0 4.643 6.833 119 119 0 0 0 5.463 6.826.7.7 0 0 1 .17.512c-.065.906-.197 1.786-.328 2.666l-.106.715.319-.291a.708.708 0 0 1 1.192.595l-.484 4.087.639-.465a.706.706 0 0 1 1.123.575l-.047 4.39.385-.635a.708.708 0 0 1 1.27.122c.004.01 1.356 3.603 1.935 5.493.322.42.66.789.998 1.158.459.5.918 1.002 1.362 1.638l.057.082.031.09c.084.241.16.507.23.785l.286-.858.805 1.157 1.2 1.725.137.198-.013.245-.035.648c.247.43.467.822.668 1.157-.09-2.408-.35-4.16-.375-4.8.667.566 1.25 1.05 1.875 1.575l-.2-3.893a437 437 0 0 1-9.132-14.397c-4.225-6.944-8.56-14.46-12.284-21.525a.708.708 0 0 1 1.251-.659c3.71 7.038 8.03 14.528 12.24 21.448 4.654 7.648 9.164 14.586 12.568 19.448.505-.503 1.12-.864 1.82-1.113.775-.275 1.655-.408 2.604-.448l.074-1.493c.132-2.904.265-5.806.906-8.66a.706.706 0 0 1 1.357-.12c1.638 4.32 3.74 5.924 6.048 7.684l1.084.84c.458.363.977.593 1.544.74l.019.004-2.164-2.189a.708.708 0 0 1 .655-1.211c1.419.38 2.659 1.605 3.962 2.893.317.313.637.63.963.936a15.7 15.7 0 0 1-1.826-2.927.707.707 0 0 1 1.274-.615c.834 1.726 1.933 3.182 3.22 4.31a11 11 0 0 0 2.242 1.53 24 24 0 0 1-2.522-3.85.706.706 0 0 1 1.246-.665c1.33 2.498 2.92 4.54 4.799 6.09a15 15 0 0 0 3.734 2.272c-1.185-1.337-2.198-2.76-3.145-4.189-.514-.775.664-1.557 1.179-.78 1.017 1.532 2.108 3.056 3.403 4.448 1.278 1.374 3.04 2.886 4.86 3.903 1.416 2.324 3.409 4.151 5.842 5.59 2.468 1.461 5.39 2.527 8.627 3.312 1.522.367 3.991 1.167 4.92.39-.067-.764-6.523-11.983-7.712-14.138-.354-.648.406-1.336 1.01-.93l2.134 1.452-5.992-7.76c-.485-.604.18-1.407.845-1.092l1.758.835c-.661-3.221-1.876-6.364-3.552-9.439-1.608-3.419-4.348-6.843-7.347-10.21l-.04-.09c-2.55.19-9.518.308-14.822-.392 10.887 13.232 20.788 17.432 21.395 19.567-7.23-3.418-15.888-9.452-22.05-17.626-6.496.847-20.898-7.41-25.988-16.686 4.107 2.469 8.208 4.886 12.113 4.424-3.01-1.55-5.91-3.944-5.888-6.112.003-.267.688-.25.878-.062 2.392 2.362 4.99 4.285 8.197 5.48 1.1.411.4-.659.263-.805-1.981-2.107-3.425-3.192-4.81-5.794-.45-.462.689-1.022.98-.772 2.87 2.453 5.955 5.265 8.855 5.253-1.961-1.74-5.24-3.168-6.6-6.975-.085-.235.25-.75.45-.6 3.407 2.563 8.519 5.565 10.93 6.298.356.108 1.359-.516 1.07-.748-1.147-.922-2.158-1.446-2.4-2.55 3 .47 5.374 1.606 8.625.375.266-.101-.241-.694-.525-.675-3.81.252-6.947-1.136-8.888-4.65-.243-.442-.117-1.896 1.612-.826 2.375 1.413 3.383 1.955 6.9 2.55.64.108.996-.134.788-.337-1.918-1.868-5.365-2.622-6.206-5.1-.2-.59.03-.423.675-.3 2.519-.226 6.275 1.95 9.019 1.462-1.475-1.45-2.52-1.962-3.994-3.412-.67-.488-.531-2.025.787-1.35 2.363 1.125 4.988 1.95 7.857 1.95.075-1.35-3.365-1.833-5.175-3.563-.198-.189-.902-.923.337-.75 3.154.44 6.5 1.025 9.863.938-2.794-1.513-7.276-2.52-7.988-4.838 3.582-.681 7.376 1.47 11.138.938.222-.032.662-.976.103-.985-3.452-.052-6.51-1.86-8.128-4.903 2.375.038 4.753.242 7.125.113 2.44-.133 4.523-1.226 7.275-.9.186.022.182-.472.019-.563-1.89-1.058-5.338-.9-5.898-2.728 2.61-.588 5.215-.077 7.772-.525.618-.109.63-.765-.131-.975-3.95-1.094-7.937-2.003-10.032-4.913 2.888-1.644 6.975-.925 10.463-1.725-.645-1.046-4.681-.241-6.263-2.512 2.788-.288 6.25-.951 9.038-1.238.038-2.1-8.55-.413-9.413-3.338 3.107.25 6.176-.475 9.263-.712-.23-1.094-7.175-.5-8.4-1.2 1.281-1.294 4.644-.412 6.038-2.362-3.6-.025-7.438-.72-10.8-.075-6.958 1.334-8.402 3.233-12 5.85-13.5 9.818-24.624 19.331-38.85 23.418-1.343.386-1.361-.669.205-1.2 4.958-1.68 9.063-3.343 13.556-6.168 7.517-4.728 14.323-10.194 21.188-15.825 2.742-2.25 4.724-4.869 10.725-7.05 2.476-.9 7.24-1.398 13.519-1.07-1.235-1.064-2.892-2.461-4.219-3.13-2.336-1.18-4.887-.022-7.275.975 1.875-2.475 5.945-4.128 8.963-5.438.892-.387 1.275-1.775.544-2.925-.596-.937-1.674-1.633-2.757-1.876-2.525-.567-4.992 1.66-8.345 4.356-.247.199-1.405.43-1.832.266 1.6-1.862 5.427-4.147 8.002-6.047.786-.61 1.639-1.173 1.2-2.7-.337-1.174-1.474-1.307-2.579-1.33-5.49 3.103-11.293 5.727-16.989 8.204a20 20 0 0 0-4.424 2.674c-3.81 3.02-6.87 7.903-9.683 12.138-5.28 7.948-8.69 12.214-16.096 18.497a17.6 17.6 0 0 1-4.503 2.805c-1.694.718-3.322 1.06-4.722 1.101-.348.047-.615-.168-.716-.48-.71-3.276-1.857-6.665-2.262-10.137m-13.791-45.214c-1.078-1.357-.81-3.364.597-4.483 1.409-1.118 3.424-.924 4.502.434 1.078 1.357.81 3.364-.598 4.482s-3.423.925-4.501-.433" style="fill:#fff;fill-rule:evenodd"></path><path d="M386.332 457.815a.707.707 0 1 1 1.412-.072l.27 5.289a.707.707 0 0 1-1.159.578l-.556-.465c.08.829.17 1.886.216 3.123a.706.706 0 0 1-1.313.386c-.15-.249-.304-.52-.471-.812-.219-.384-.46-.807-.74-1.265a.707.707 0 0 1 .93-.995q-.054-.568-.1-1.007c-.046-.447-.081-.79-.092-1.032a.705.705 0 0 1 1.162-.59q.302.257.63.531z" style="fill:#1b1918;fill-rule:evenodd"></path><path d="M285.53 124.45c8.071.278 15.814.308 24.186-.014v2.658c0 .798-1.156 1.546-2.254 1.541l-22.089-.094c-.31 0-.857-.198-.857-1.222v-1.942c0-.536.702-.937 1.013-.926M297.954 137.027a2.995 4.807 86.87 0 1-4.964-2.729 2.995 4.807 86.87 1 1 4.964 2.729M314.765 107.556c-1.584-1.274-3.727-1.238-4.787.08-.805 1-.752 2.455.015 3.654a34.5 34.5 0 0 0-3.265 5.546c-1.035 2.215-1.722 4.39-1.724 5.95h2.824c0-1.126.582-2.88 1.458-4.754a31.5 31.5 0 0 1 2.927-4.989c1.316.458 2.712.189 3.503-.795 1.06-1.318.633-3.419-.951-4.692m-31.098 3.896c1.303 1.74 2.7 3.672 3.791 5.563 1.2 2.079 2.028 4.123 1.995 5.868l-2.824-.044c.023-1.168-.648-2.738-1.618-4.418-.783-1.356-1.761-2.77-2.745-4.118-.531.447-1.154.656-1.763.533-1.325-.27-2.088-2.016-1.705-3.9.383-1.886 1.768-3.195 3.093-2.926 1.216.248 1.96 1.74 1.776 3.441m6.67-5.511c1.052-1.35.982-3.22-.2-4.279-1.238-1.11-3.23-.908-4.45.453-1.218 1.36-1.202 3.363.037 4.473.589.527 1.347.758 2.112.71 1.08 2.587 2.028 5.442 2.743 8.074.86 3.163 1.377 5.947 1.375 7.489h2.824c.002-1.806-.549-4.864-1.464-8.23-.767-2.823-1.798-5.906-2.978-8.69m6.854-6.668a3.207 3.207 0 0 0-1.326 6.151c.219 2.795.354 5.527.44 8.218.098 3.103.133 6.17.15 9.224l2.823-.011a352 352 0 0 0-.15-9.301 184 184 0 0 0-.433-8.273 3.206 3.206 0 0 0-1.504-6.008m6.615 6.835c-1.195-1.36-1.172-3.343.06-4.446 1.239-1.11 3.231-.908 4.45.453s1.202 3.363-.037 4.473a2.84 2.84 0 0 1-1.902.716c-.913 2.364-1.713 5.066-2.312 7.661-.7 3.035-1.123 5.894-1.131 7.864l-2.823-.011c.008-2.191.457-5.273 1.197-8.484.643-2.785 1.508-5.694 2.498-8.226M48.64 274.229c-.386-.348-.641-.95-.478-1.444.33-1 1.404-.712 2.09-.187 2.254 1.726 2.364 4.5 2.194 7.303 1.437-2.763 2.867-5.391 5.175-7.36.509-.434 1.722-.625 2.419-.58.05.637-.068 1.366-.479 1.855-2.147 2.555-4.84 5.172-6.506 7.97 1.063.487 2.135-.267 3.047-.32 1.906-.11 2.563.576 2.625 2.475.057 1.755-2.062 2.323-4.087 2.175-.608-.044-.851.644-.975 1.2l1.95.3c-2.404 1.666-4.573 4.003-3.956 6.676.994.084 1.378-.801 2.456-1.05 1.503-.348 2.672.808 2.606 2.362-.077 1.828-2.23 2.24-3.731 3.188-1.266.799-1.806 2.117-1.575 4.274 1.2-.032 1.976-.642 2.625-1.425.589 1.41.094 1.53-.619 2.138-.51.434-1.002.957-1.106 1.538 1.43 3.813 4.26 5.844 6.675 7.8.512.414-.61 1.11-1.5.525-5.75-3.781-7.894-8.339-8.625-13.425-.605-4.213-.15-8.65.825-13.5.842-2.864 1.776-5.057 1.725-7.2-.045-1.885-.835-3.54-2.776-5.288M546.597 274.208c.386-.348.64-.951.478-1.444-.33-1-1.405-.713-2.09-.188-2.255 1.726-2.364 4.501-2.194 7.303-1.438-2.762-2.868-5.39-5.175-7.36-.51-.434-1.722-.624-2.42-.58-.05.637.068 1.367.48 1.856 2.146 2.554 4.84 5.172 6.505 7.97-1.062.486-2.135-.268-3.046-.32-1.907-.11-2.564.575-2.626 2.475-.057 1.754 2.062 2.322 4.088 2.175.607-.044.85.643.975 1.2l-1.95.3c2.404 1.665 4.572 4.003 3.956 6.675-.995.085-1.379-.8-2.456-1.05-1.504-.347-2.673.808-2.607 2.362.078 1.829 2.23 2.24 3.732 3.188 1.265.8 1.806 2.118 1.575 4.275-1.2-.032-1.976-.642-2.625-1.425-.59 1.409-.095 1.529.618 2.137.51.435 1.002.958 1.107 1.538-1.43 3.814-4.261 5.845-6.675 7.8-.512.414.609 1.111 1.5.525 5.749-3.781 7.894-8.339 8.625-13.425.605-4.213.15-8.65-.825-13.5-.842-2.863-1.776-5.057-1.725-7.2.044-1.885.835-3.54 2.775-5.288" style="fill:#29acde;fill-rule:evenodd"></path><path d="M259.728 214.21h75.686c.527 0 1.005.214 1.352.56.346.347.561.826.561 1.353v32.968c0 .526-.215 1.005-.561 1.351h-.004a1.9 1.9 0 0 1-1.348.562h-75.687a1.9 1.9 0 0 1-1.348-.562h-.004a1.9 1.9 0 0 1-.561-1.352v-32.967c0-.527.215-1.006.561-1.353a1.9 1.9 0 0 1 1.352-.56zm72.639 2.125c.188.686.553 1.3 1.041 1.789l.004.004a4.04 4.04 0 0 0 1.79 1.041v-2.834zm2.834 29.71c-.685.188-1.299.554-1.789 1.043a4.06 4.06 0 0 0-1.044 1.79h2.833zm-72.428 2.833a4.06 4.06 0 0 0-1.044-1.79 4.06 4.06 0 0 0-1.789-1.044v2.834zm-2.833-29.709a4.04 4.04 0 0 0 1.79-1.041l.003-.004a4.04 4.04 0 0 0 1.041-1.789h-2.834zm5.01-2.834a6.18 6.18 0 0 1-1.718 3.288l-.002.002-.002.002a6.17 6.17 0 0 1-3.288 1.718v22.523a6.16 6.16 0 0 1 3.292 1.718 6.16 6.16 0 0 1 1.718 3.292h65.241a6.17 6.17 0 0 1 1.718-3.292 6.16 6.16 0 0 1 3.292-1.718v-22.523a6.18 6.18 0 0 1-3.288-1.718l-.002-.002-.002-.002a6.18 6.18 0 0 1-1.717-3.288z" style="fill:#fff;fill-rule:evenodd"></path><path d="M274.228 238.839v-11.646h-2.8v-2.986h6.165v14.632h2.492v2.786h-8.554v-2.786zm55.964-22.504H264.95a6.21 6.21 0 0 1-5.01 5.01v22.523a6.195 6.195 0 0 1 5.01 5.01h65.241a6.195 6.195 0 0 1 5.01-5.01v-22.524a6.21 6.21 0 0 1-5.01-5.009m-36.545 19.89v-.099zm-6.858-1.082a8.7 8.7 0 0 1-2.35-.958 4.7 4.7 0 0 1-1.734-1.804q-.642-1.157-.642-2.724 0-2.713 2.235-4.243t5.214-1.53q1.926 0 3.583.622a6.6 6.6 0 0 1 2.787 1.978q1.13 1.356 1.13 3.222v6.495q0 2.737-2.183 4.218-2.184 1.48-5.215 1.48-2.055 0-3.685-.51-1.632-.51-2.71-1.705-1.08-1.194-1.08-2.936h3.391q0 1.095 1.22 1.705t2.813.61q1.62.024 2.851-.785 1.187-.778 1.233-2.052v-2.613q-.565.846-1.785 1.344-1.22.497-2.376.497-1.439 0-2.697-.31m12.098 6.482v-2.786h2.697v-11.646h-2.8v-2.986h6.165v14.632h2.492v2.786zm13.896-12.366h-3.365q.026-2.564 2.094-3.92t4.841-1.356q1.44 0 2.71.299 1.272.299 2.376.92a4.7 4.7 0 0 1 1.76 1.73q.655 1.107.655 2.6 0 1.593-.578 2.675a3.8 3.8 0 0 1-1.644 1.63q-1.066.548-2.247.759-1.182.21-2.749.211-.9 0-1.695.15-.796.15-1.503.696-.706.547-.706 1.419v1.493h11.173v3.06h-14.564v-4.578q0-1.443.63-2.489a4.3 4.3 0 0 1 1.708-1.617q1.08-.573 2.312-.833a12.7 12.7 0 0 1 2.645-.262q3.853 0 3.853-2.24 0-1.368-1.13-2.077-1.13-.71-2.954-.71-1.438 0-2.517.66-1.08.66-1.105 1.78" style="fill:#004987;fill-rule:evenodd"></path><path d="M285.428 229.657q0 1.393 1.142 2.164 1.144.772 2.916.772 1.798 0 2.992-.772 1.195-.771 1.17-2.164-.027-1.37-1.195-2.103-1.17-.734-2.941-.734-1.722 0-2.903.734-1.18.734-1.181 2.103M259.94 219.17a4.06 4.06 0 0 0 2.834-2.835h-2.834zM332.367 216.335a4.06 4.06 0 0 0 2.834 2.834v-2.834zM262.773 248.878a4.07 4.07 0 0 0-2.833-2.834v2.834zM335.201 246.044a4.07 4.07 0 0 0-2.833 2.834h2.833z" style="fill:#004987;fill-rule:evenodd"></path><path d="M63.595 223.329c-2.527.238-4.448 1.779-4.292 3.441.157 1.663 2.332 2.818 4.859 2.58s4.448-1.779 4.291-3.442-2.332-2.817-4.858-2.58M531.033 223.16c-2.527.238-4.449 1.779-4.292 3.441.157 1.663 2.332 2.818 4.859 2.58s4.448-1.78 4.291-3.442-2.332-2.818-4.858-2.58M297.117 734.025a6.11 6.11 0 0 1-5.672-6.516 6.108 6.108 0 1 1 5.672 6.516" style="fill:#fff;fill-rule:evenodd"></path><path d="M300.521 724.783a.707.707 0 0 1-.841 1.135c-.298-.22-.557-.37-.823-.459h-.003c-.269-.089-.569-.127-.946-.125-.87.004-1.632.267-2.164.716-.485.41-.78.984-.78 1.659-.001.73.3 1.41.808 1.904.497.482 1.194.79 2.006.8.763.008 1.379-.158 1.822-.487a1.9 1.9 0 0 0 .518-.585h-2.066a.706.706 0 0 1 0-1.413l3.02.001a.707.707 0 0 1 .733.836c-.185.996-.654 1.77-1.364 2.296-.693.515-1.6.776-2.68.763-1.195-.015-2.23-.475-2.974-1.198a4.05 4.05 0 0 1-1.235-2.917 3.52 3.52 0 0 1 1.279-2.738c.779-.658 1.86-1.043 3.071-1.049.536-.003.978.057 1.4.198.424.142.806.357 1.219.663z" style="fill:#004986;fill-rule:evenodd"></path><path d="m302.02 251.004-.15 454.22c37.737-24.792 69.821-52.466 97.381-83.054 30.689-31.886 55.627-69.19 74.02-116.605 13.018-36.866 21.805-80.865 24.977-123.357 2.974-39.83 1.012-78.233-7.028-108.04-22.172-12.813-45.963-22.61-71.32-29.486-26.013-6.01-53.603-10.701-82.715-11.998l.284-9.036c29.903 1.006 58.191 5.064 84.805 12.282 26.662 7.23 51.718 17.65 75.11 31.368l1.58.928.492 1.747c8.739 31.102 10.932 71.327 7.828 112.908-3.234 43.32-12.22 88.23-25.54 125.884l-.124.32c-21.061 47.645-45.785 86.013-75.636 119.144-29.821 33.097-64.715 60.914-106.157 87.496l-2.332 1.495-2.399-1.407c-35.88-21.042-68.513-47.767-96.525-77.223-30.02-31.567-54.77-66.303-72.554-100.57-17.963-34.61-30.587-86.428-36.328-136.78-5.926-51.974-4.518-102.652 5.912-131.567l.547-1.517 1.349-.821c21.629-13.18 46.024-23.086 71.978-30.156 28.08-7.65 57.96-11.974 88.109-13.532l.46 9.036c-29.566 1.528-58.804 5.751-86.195 13.213-24.588 6.698-47.712 16.013-68.272 28.337-9.465 27.846-10.57 76.137-4.889 125.979 5.632 49.391 17.93 100.055 35.372 133.662 17.4 33.526 41.642 67.539 71.067 98.48 25.69 27.014 55.306 51.663 87.74 71.58l.186-452.93z" style="fill:none"></path><path d="m103.577 274.234 1.572-4.912c43.187-25.908 95.188-38.593 153.375-42M491.22 274.168l-1.456-4.498c-40.413-26.082-97.075-38.09-152.958-42.77M295.811 251.004l.47 461.439c-69.774-47.894-115.437-97.193-142.649-145.086M299.073 250.814l.013 461.568c59.23-38.972 115.997-96.597 144.599-148.208" style="fill:none"></path><path d="M337.327 232.69c29.06 1.306 56.603 5.991 82.573 11.992 25.357 6.876 49.148 16.673 71.32 29.486l-1.456-4.498c-40.279-25.994-96.717-37.4-152.418-42.113l-.019.609z" style="fill:#105897;fill-rule:evenodd"></path><path d="M171.849 245.896c27.32-7.443 56.477-11.664 85.965-13.201v-4.53l-.04-.8c-57.884 3.473-109.624 16.16-152.625 41.957l-1.572 4.912c20.56-12.325 43.684-21.64 68.272-28.338M292.867 703.934c-32.434-19.917-62.05-44.566-87.74-71.58-19.638-20.65-36.967-42.668-51.495-64.997 27.212 47.893 72.875 97.193 142.65 145.086l-.47-461.44h-2.76z" style="fill:#fecb37;fill-rule:evenodd"></path><path d="m299.073 251.004.013 461.378c54.702-35.994 107.305-87.898 137.56-136.28-11.286 16.697-23.774 31.916-37.395 46.068-27.56 30.588-59.644 58.262-97.38 83.054l.15-454.22z" style="fill:#1367a7;fill-rule:evenodd"></path><defs><linearGradient id="a"><stop offset="0%" stop-color="#004580"></stop><stop offset="100%" stop-color="#fed039"></stop></linearGradient><linearGradient xlink:href="#a" id="b" x1="114.54" x2="114.54" y1="155.444" y2="359.817" gradientTransform="scale(.57377 1.74285)" gradientUnits="userSpaceOnUse"></linearGradient></defs><path d="M71.392 270.915c-1.274 18.976-1.211 39.268-.184 58.921 1.028 19.666 3.175 40.233 6.218 61.244 7.37 50.887 18.975 90.782 35.739 125.937 16.766 35.16 39.192 65.24 67.224 96.935l2.595 13.155c-28.393-32.103-57.071-72.639-74.072-108.292-17.004-35.657-28.768-75.586-36.227-127.088-3.06-21.134-5.26-41.342-6.3-61.228-1.039-19.898-.84-40.223.447-59.398z" style="fill:url(#b)"></path><defs><linearGradient id="c"><stop offset="0%" stop-color="#004986"></stop><stop offset="9%" stop-color="#004885"></stop><stop offset="100%" stop-color="#29acde"></stop></linearGradient><linearGradient xlink:href="#c" id="d" x1="53.823" x2="53.823" y1="71.856" y2="444.129" gradientTransform="scale(.64502 1.55033)" gradientUnits="userSpaceOnUse"></linearGradient></defs><path d="M274.804 116.462c-42.287 2.194-83.94 6.45-122.553 14.87-38.052 8.297-73.488 20.994-103.69 39.311-6.621 26.573-9.387 56.852-8.949 89.963.447 33.69 4.316 70.346 10.414 109.29l.011.066c8.749 66.93 31.52 124.267 63.871 174.844 32.39 50.64 78.147 95.771 124.816 134.967l-9.098 8.774c-44.079-38.9-87.142-90.011-119.875-141.187-32.775-51.24-55.884-108.9-64.748-176.714-6.13-39.166-9.791-76.087-10.241-110.044-.452-34.094 2.49-65.103 9.43-92.395l.282-1.108.991-.609c31.017-19.016 66.76-31.525 105.802-40.039 38.899-8.483 81.162-12.98 123.574-15.05z" style="fill:url(#d)"></path><defs><linearGradient id="e"><stop offset="0%" stop-color="#004986"></stop><stop offset="9%" stop-color="#004885"></stop><stop offset="100%" stop-color="#29acde"></stop></linearGradient><linearGradient xlink:href="#e" id="f" x1="494.912" x2="494.912" y1="72.19" y2="443.477" gradientTransform="scale(.6473 1.54487)" gradientUnits="userSpaceOnUse"></linearGradient></defs><path d="M320.409 111.524c42.6 2.211 84.674 6.58 123.379 15.053 38.849 8.505 74.75 20.77 105.765 39.785l.991.608.282 1.108c6.94 27.292 10.28 58.512 9.829 92.606-.45 33.957-4.298 70.925-10.43 110.09h.001c-8.864 67.816-32.254 125.955-65.029 177.195-32.733 51.176-75.623 96.839-122.373 137.144l-4.261-6.58c47.513-39.618 89.717-82.817 122.108-133.458 32.35-50.576 55.637-107.913 64.386-174.844l.01-.066c6.1-38.943 10.056-75.716 10.503-109.407.439-33.11-2.656-63.975-9.277-90.548-30.198-18.318-65.842-30.511-103.701-38.8-38.42-8.41-79.947-12.936-122.233-15.13z" style="fill:url(#f)"></path><defs><linearGradient id="g"><stop offset="0%" stop-color="#004580"></stop><stop offset="100%" stop-color="#fed039"></stop></linearGradient><linearGradient xlink:href="#g" id="h" x1="696.567" x2="696.567" y1="158.277" y2="368.307" gradientTransform="scale(.5842 1.71174)" gradientUnits="userSpaceOnUse"></linearGradient></defs><path d="M528.106 270.929c1.288 19.174 2.09 38.512 1.051 58.41-1.04 19.886-3.726 40.168-6.787 61.302-7.458 51.502-19.11 92.144-36.114 127.801-16.926 38.166-50.217 81.74-79.322 112.005l7.92-17.28c28.032-31.696 50.683-61.776 67.45-96.936 16.763-35.155 27.881-75.256 35.25-126.143 3.043-21.01 4.928-41.372 5.956-61.037 1.027-19.654 1.196-38.835-.078-57.81z" style="fill:url(#h)"></path><path d="M296.973 93.727c-92.89.511-181.606 10.823-266.174 60.9-25.05 75.54-7.237 241.965 26.025 323.926 43.724 107.736 132.707 202.692 240.9 269.625 123.083-76.84 197.842-168.203 241.802-272.55 34.95-96.917 48.652-238.36 24.751-320.777-80.216-48.902-171.879-61.649-267.304-61.124" style="fill:none"></path><path d="M296.281 712.443c-69.774-47.894-115.437-97.193-142.649-145.086-7.24-11.127-13.784-22.332-19.572-33.483-17.442-33.607-29.74-84.27-35.371-133.662-5.683-49.842-4.577-98.133 4.888-125.978l1.572-4.912c43.001-25.796 94.741-38.483 152.624-41.956l-.19-3.719c-30.148 1.558-60.028 5.883-88.108 13.532-25.954 7.07-50.35 16.976-71.978 30.156l-1.349.821-.547 1.517c-10.43 28.915-11.838 79.593-5.912 131.567 5.74 50.353 18.365 102.17 36.328 136.78 17.785 34.268 42.535 69.003 72.555 100.57 28.011 29.456 60.644 56.18 96.524 77.223l2.4 1.407 2.33-1.495c41.443-26.582 76.337-54.399 106.158-87.496 29.851-33.13 54.575-71.5 75.636-119.145l.124-.319c13.32-37.653 22.306-82.564 25.54-125.883 3.104-41.582.91-81.807-7.828-112.909l-.491-1.747-1.582-.928c-23.391-13.718-48.447-24.138-75.109-31.368-26.614-7.217-55.277-11.287-85.18-12.294l.13 3.903c55.7 4.713 112.261 16.137 152.54 42.131l1.456 4.498c8.04 29.807 10.002 68.21 7.028 108.04-3.172 42.492-11.96 86.491-24.977 123.357-10.23 26.371-22.484 49.614-36.626 70.537-30.253 48.382-82.857 100.286-137.559 136.28l-.013-461.378h-3.262zM68.807 266.06c-2.527.238-4.448 1.779-4.291 3.442.157 1.662 2.332 2.817 4.859 2.58 2.526-.239 4.448-1.78 4.29-3.443-.156-1.662-2.331-2.817-4.858-2.58M525.333 265.918c-2.527.239-4.448 1.78-4.292 3.442s2.332 2.818 4.859 2.58 4.448-1.78 4.291-3.442c-.156-1.663-2.332-2.818-4.858-2.58" style="fill:#fff;fill-rule:evenodd"></path><path d="M337.327 232.69v16.4c0 .527-.215 1.006-.561 1.352-.019 0-.493.562-1.352.562H302.02l-.15 454.22c37.736-24.792 69.82-52.466 97.38-83.054 13.62-14.152 26.109-29.371 37.394-46.068 14.142-20.923 26.396-44.166 36.625-70.537 13.019-36.866 21.806-80.865 24.978-123.357 2.973-39.83 1.012-78.233-7.028-108.04-22.172-12.813-45.963-22.61-71.32-29.486-25.97-6-53.513-10.686-82.573-11.992m65.453 143.222c4.067-6.122 7.824-12.326 14.722-15.326 9.134-3.973 18.535-8.311 26.434-14.43 1.324-1.025 2.565-1.952 3.81-2.884 5.617-4.2 11.341-8.48 15.074-14.109l.66-.694.804-.078c.623.194.912.892.965 1.545.141 1.739-.379 3.299-1.21 4.82-3.177 5.836-8.038 10.709-13.182 15.899a365 365 0 0 0-3.952 4.049l-.13.283.106-.028c9.027-3.32 17.733-7.35 25.542-12.815l.151-.087c1.36-.627 2.434 1.614 1.596 2.752-3.045 4.134-7.29 7.7-11.675 10.595-6.175 4.076-12.649 6.837-16.442 7.985-.672.195-.679.873.826.828 1.59-.046 3.283.015 4.756-.454 7.83-2.49 14.436-5.434 21.637-10.028l.129-.071c.553-.262 1.371-.132 1.68.496.283.596.012 1.32-.428 1.745-3.055 2.957-6.978 5.583-10.929 8.227l-6.913 4.825-.13.095.01.025c3.991-.275 9.548-1.87 13.5-3.157 7.04-2.29 10.199-4.564 16.321-7.1.933-.387 2.236-.65 3.072.144.38.376.451.924.287 1.42l-.609 1.03c-2.856 2.837-8.058 6.58-11.416 8.672-3.754 2.337-7.676 4.372-11.712 6.19q.216.062.42.056c6.527-.27 13.672-1.386 19.434-3.194 1.986-.623 2.97 1.47 1.883 2.32-2.615 2.05-6.007 3.649-9.957 5.02-3.73 1.295-7.937 2.384-12.452 3.458-.364.06-.748.325.22.64 1.789.583 11.983.298 15.343.138 1.27.004 2.266.008 2.787.019s1.112-.115 1.514.256c.407.375.44.853-.182 1.528-2.001 2.169-7.25 3.952-10.799 4.46l5.876 1.043a.71.71 0 0 1 .56.83c-.245 1.256-3.566 1.995-5.232 2.344l1.377.626a.708.708 0 0 1-.09 1.323c-2.473.853-5.315.956-8.175 1.018l.537.322a.707.707 0 0 1-.231 1.3c-6.17 1.267-11.67 1.202-18.015.863 2.303 2.011 5.883 2.737 9.106 3.067.796.081.855 1.226.077 1.395-4.175.913-8.767.897-13.25.698 3.169 2.066 8.51 3.53 12.661 4.993a.708.708 0 0 1-.05 1.35c-2.979.901-5.302 1.171-8.37.88l4.995 2.69c.626.336.422 1.312-.336 1.33-2.007.089-4.057.158-6.105.227-3.9.131-7.799.263-11.736.559 3.672 2.556 7.714 4.467 12.063 5.39a.708.708 0 0 1 .128 1.343c-2.32 1.071-4.814 1.077-7.513.927-2.321-.13-4.521-.07-6.697-.674 2.072 2.204 4.861 3.314 7.969 3.798.773.12.798 1.23.036 1.39-3.018.628-5.992.564-8.906-.494.846 1.485 3.563 2.572 5.647 3.302 1.41.494 1.07 1.471.554 1.757l-6.4-.192c-1.373-.112-2.756-.225-4.203-.306 1.629 1.443 4.288 1.483 6.513 1.323a.708.708 0 0 1 .51 1.243c-1.743 1.63-3.622 2.207-6.054 2.355 5.162 6.04 9.371 12.973 10.567 20.663.087.565-.502.983-1 .748l-.347-.165 6.684 8.694c.488.634-.302 1.45-.95 1.02l-3.127-2.07 6.17 11.21c.312.609.509 1.461-.055 2.023-1.38 1.3-3.692.703-5.643.202-3.803-.976-6.58-1.799-9.68-3.634-2.573-1.521-4.695-3.455-6.231-5.914a19.3 19.3 0 0 1-2.945-2.067c-2.611-.614-4.893-1.755-6.874-3.39a17 17 0 0 1-.57-.49.7.7 0 0 1-.316-.01 11.6 11.6 0 0 1-2.205-.82c-2.156.143-3.868-1.155-5.432-2.632l-.007.007a.7.7 0 0 1-.535.202c-.79-.028-1.544-.104-2.256-.287-.75-.194-1.444-.504-2.069-1l-1.068-.823c-2.056-1.569-3.96-3.021-5.566-6.16-.285 2.036-.38 4.114-.475 6.192l-.096 1.963.01.089c.827 7.643 3.773 14.515 6.718 21.385a385 385 0 0 1 1.632 3.844c.122.273.354.504.554.704.616.615 1.09 1.088.43 2.063-4.462 6.956-8.777 15.802-13.091 24.647-2.022 4.145-4.044 8.29-6.084 12.247a66.5 66.5 0 0 1 9.246 2.583 58 58 0 0 1 9.282 4.29l2.98 1.716-3.412-.4c-7.34-.863-15.336-.391-22.918.69-11.44 1.63-21.928 4.643-27.823 6.554l-1.334.432.448-1.329a7.9 7.9 0 0 1 1.846-3.016q.555-.571 1.24-1.07l-4.998-.499-1.2-.12.691-.987a5.8 5.8 0 0 1 1.693-1.615l-.087-.042c-.42-.2-.897-.36-1.393-.505l-1.035-.303.686-.826c2.414-2.908 6.763-4.478 12.156-5.322 5.162-.809 11.302-.961 17.602-1.005 2.995-5.308 5.873-11.4 8.66-17.301 3.471-7.349 6.804-14.401 10.082-19.352a392 392 0 0 1-4.78-12.35 257 257 0 0 1-4.292-12.683c-.976-1.38-2.05-2.944-3.198-4.655l.139 2.709a.707.707 0 0 1-1.16.578l-.556-.465c.08.829.17 1.886.216 3.123a.706.706 0 0 1-1.313.386l-.128-.22c-.079 1.586-.15 3.14-.219 4.689-.265 5.907-.528 11.743-1.219 17.688a3.8 3.8 0 0 1-.645 1.724 4.2 4.2 0 0 1-1.394 1.267c-.612.35-1.238.296-1.83.035-.48-.211-.931-.57-1.318-.932-2.262-2.115-4.743-4.344-7.244-6.592-7.22-6.49-14.62-13.14-20.912-20.973l-2.903-.135-.384-.018c-.18 1.1-.312 2.146-.345 3.239-.05 1.615.112 3.364.64 5.59.446 1.88 1.468 3.613 2.49 5.347.817 1.385 1.636 2.772 2.205 4.285.514 1.367.97 2.786 1.272 4.234.307 1.467.458 2.96.356 4.453q-.041.621-.123 1.25c.512.962 1.436 2.24 2.522 3.538 1.185 1.417 2.55 2.843 3.776 3.901.785.678 1.647 1.238 2.585 1.596a6.35 6.35 0 0 0 2.99.391c1.297-.14 2.514-.442 3.542-1.163 1.026-.719 1.901-1.882 2.538-3.76l.706-2.085.64 2.107c.351 1.161.514 2.401.39 3.625a7.3 7.3 0 0 1-1.108 3.222c-.96 1.503-2.174 2.633-3.586 3.375-1.429.75-3.054 1.101-4.816 1.039-2.609-.093-5.135-.932-7.456-2.763-1.824-1.439-3.514-3.488-5.008-6.268a12.4 12.4 0 0 1-4.403 4.19c-1.894 1.063-4.078 1.611-6.314 1.408-2.268-.206-4.11-.866-5.714-1.813-1.585-.937-2.924-2.15-4.21-3.481-1.06-1.098-1.94-2.321-2.535-3.685a9.9 9.9 0 0 1-.821-4.557c.073-1.367.27-2.706.645-3.952.384-1.274.955-2.459 1.77-3.487 1.169-1.475 2.508-2.642 4.06-3.391 1.567-.756 3.335-1.082 5.344-.865.784.085 1.646.148 2.473.169q.498.012.974.004c-.67-1.282-1.367-2.627-2.005-4.22l-.155-.389c-1.116-2.787-2.257-5.639-2.552-8.675a49 49 0 0 1-.093-1.097 5.6 5.6 0 0 1-1.415-2.726c-.25-1.194-.106-2.365.225-3.177a5.6 5.6 0 0 1 .532-1.014l-.437-.235-.21-.126c-.698-.454-1.242-1.211-1.478-2.084a3.75 3.75 0 0 1 .326-2.793l.167-.28c.428-.657 1.131-1.218 2.02-1.635q.21-.098.432-.186.014-.286.026-.572-.42.26-.821.565l-.67.508-.385-.746a2.7 2.7 0 0 1-.262-.968c-.04-.38-.026-.786.01-1.15.052-.533.457-1.19 1.02-1.78.361-.38.798-.75 1.248-1.05.037-1.653.104-3.35.228-5.016.14-1.872.414-3.638.746-5.406-.025-.581.688-1.097 1.77-1.227.714-.086 1.682-.085 2.736.02 3.224.27 4.43 1.306 4.193 2.111-.055 1.015-.094 1.891-.162 2.893-.164 2.49-.333 5.022-.355 7.364q-.003.305 0 .609c1.193.903 2.197 2 2.83 3.207l.505.99c.61 1.214 1.246 2.48 2.13 3.485 1.148 1.305 2.228 2.43 3.306 3.55.568.592 1.136 1.183 1.711 1.796 1.878 2.005 3.385 3.597 4.897 5.195 2.747 2.901 5.5 5.81 8.031 8.557 1.57 1.722 3.147 3.526 4.724 5.327 1.139 1.301 2.278 2.603 3.462 3.926l-.208-24.089-.002-.224c-.35-1.072-.848-2.46-1.22-3.479l-.965 1.594a.708.708 0 0 1-1.311-.425l.06-5.513-.812.593a.707.707 0 0 1-1.12-.654l.45-3.813-.322.295a.708.708 0 0 1-1.182-.574c.065-.906.197-1.786.328-2.665.113-.76.227-1.522.294-2.272a120 120 0 0 1-5.333-6.686 102 102 0 0 1-4.709-6.932c-2.033-3.285-3.937-6.872-5.293-10.84-1.361-3.984-2.172-8.351-2.012-13.178.135-4.08.68-8.171 1.583-12.182a72 72 0 0 1 3.872-12.07c.87-2.068 2.123-4.433 3.496-7.022 2.804-5.288 6.11-11.524 7.49-17.756l.19-.85c.423-1.865.845-3.723.806-5.647-1.531 1.266-3.054 2.247-4.563 2.859-1.927.781-3.832.967-5.708.391a.7.7 0 0 1-.345-.236c-1.197.955-2.406 1.948-3.614 2.941-2.793 2.296-5.59 4.595-8.561 6.67a190 190 0 0 1-7.5 4.986 165 165 0 0 1-7.748 4.597l-1.183.656c.887 2.586 2.137 5.057 3.388 7.53 1.255 2.48 2.512 4.965 3.435 7.627 1.704 4.907 2.978 9.47 3.97 14.22.994 4.747 1.708 9.683 2.29 15.338.154 1.493.174 3.04.11 4.546-.079 1.822-.087 3.618-.327 5.15l-.077.49-.483.097c-1.484.297-2.837.442-3.907.359-1.118-.087-2.1-.447-3.18-1.22-.581-.416-.521-.993-.465-1.531l.02-.252c.023-1.616.123-3.184.222-4.751.17-2.666.34-5.331.117-7.97a123 123 0 0 0-1.063-8.94 88 88 0 0 0-1.84-8.788c-.847-3.188-2.205-6.25-3.561-9.308-.654-1.474-1.308-2.949-1.923-4.484-.707-1.764-1.37-3.521-2.022-5.275a106 106 0 0 1-3.88 1.893c-.44.203-.855.224-1.18.108a1.07 1.07 0 0 1-.573-.466 1.13 1.13 0 0 1-.145-.705c.04-.391.278-.866.782-1.334a431 431 0 0 1 3.59-3.293q-.417-1.124-.85-2.26l-6.402 4.098c-.685.44-1.337.8-2.018 1.134a34 34 0 0 1-2.114.936l-.511.21-.328-.446a2 2 0 0 1-.315-.694c-.06-.25-.07-.524.005-.773.152-.507.575-1.079 1.095-1.64.48-.516 1.041-1.03 1.536-1.466a190 190 0 0 1 5.42-4.592q.82-.67 1.646-1.332l-.012-.023-.67-1.305c-1.823-3.524-3.401-6.573-3.38-11.841.007-1.62-.1-3.353.183-4.966.293-1.66.652-3.41 1.705-4.939.701-1.019 1.686-1.997 2.764-2.83 1.118-.865 2.543-1.142 4.14-1.13 1.017-.023 1.762.27 2.297.961.225.29.848 1.113 1.278 2.147.494 1.365.763 2.676.905 4.027.141 1.337.224 2.539.14 3.961-.092 1.575-.402 3.164-.71 4.756-.335 1.725-.672 3.455-.715 5.082v.035a1086 1086 0 0 1 9.516-6.902c6.343-4.566 12.15-8.747 13.522-10.124-.004-.921.404-2.18.948-2.973 3.363-4.904 7.84-8.909 13.964-8.675 4.255.163 7.784 2.14 10.788 5.159 5.423 5.45 5.888 12.824 4.462 20.152-1.688 8.68-7.093 16.211-8.16 25.13-.749 6.25.132 12.874 2.05 18.832 2.738-.23 5.564-1.602 7.855-3.546 7.316-6.207 10.594-10.317 15.83-18.198z" style="fill:#fecd38;fill-rule:evenodd"></path><defs><linearGradient id="i"><stop offset="0%" stop-color="#1973b6"></stop><stop offset="100%" stop-color="#014a87"></stop></linearGradient><linearGradient xlink:href="#i" id="j" x1="146.976" x2="146.976" y1="150.767" y2="456.09" gradientTransform="scale(.64792 1.5434)" gradientUnits="userSpaceOnUse"></linearGradient></defs><path d="m154.67 426.162 16.99-106.175h24.419l14.675 88.053c-7.525 2.91-12.12 7.91-14.983 15.04l-2.422-16.182h-20.477l-2.88 19.264zm28.365-87.366-8.038 53.694h16.076zm109.832 365.138.186-452.93h-33.326c-.859 0-1.333-.562-1.352-.562a1.9 1.9 0 0 1-.56-1.352v-16.395c-29.49 1.537-58.646 5.758-85.966 13.2-24.588 6.7-47.712 16.014-68.273 28.338-9.464 27.846-10.57 76.137-4.888 125.979 5.632 49.391 17.93 100.055 35.372 133.662 5.788 11.151 12.332 22.356 19.572 33.483 14.528 22.329 31.857 44.347 51.495 64.997 25.69 27.014 55.306 51.663 87.74 71.58M198.12 492.092v-54.99q0-26.586 24.775-26.587 24.775 0 24.774 26.588v10.273h-15.71v-11.331q0-10.423-8.61-10.424-8.611.001-8.612 10.424v57.105q0 10.272 8.611 10.272 8.61 0 8.611-10.272v-15.107h15.71v14.049q0 26.587-24.774 26.587t-24.775-26.587" style="fill:url(#j)"></path><path d="m90.893 223.143 7.166-3.1-13.755-21.972zM142.339 176.265l8.874 35.091 4.427-1.12q4-1.011 2.792-5.783l-6.46-25.547q-1.207-4.773-5.206-3.76zM177.919 170.05l.906 25.907 7.673-1.445zM337.988 158.86l-.626 15.551 3.165.128q4.857.195 5.072-5.158l.2-4.99q.21-5.209-3.911-5.375zM448.445 179.103l-7.081 26.432q-1.293 4.825 2.762 5.911 4.056 1.086 5.349-3.738l7.08-26.433q1.293-4.824-2.762-5.911t-5.348 3.739M509.962 197.19l-13.794 21.947 7.16 3.112z" style="fill:#004986;fill-rule:evenodd"></path><path d="M345.378 488.763c-.778-.876-1.522-1.617-2.367-2.131-.873-.532-1.885-.832-3.212-.804-1.376.03-2.465.429-3.186 1.182-.699.73-1.08 1.826-1.072 3.273l.002.095c.04 1.314.78 2.768 1.92 3.901 1.138 1.131 2.664 1.923 4.28 1.915l.123-.002c1.134-.034 1.964-.652 2.526-1.775.644-1.29.958-3.207.986-5.654z" style="fill:#fecd38;fill-rule:evenodd"></path></g><!-- source: https://football-logos.cc --></svg>