<svg xmlns="http://www.w3.org/2000/svg" viewBox="60.26 48.12 474.76 745.66"><!-- Source: https://football-logos.cc --><path d="m147.424 177.09 4.037 11.186a414 414 0 0 1 20.608-9.323l-17.055-14.062a304 304 0 0 1 6.378-9.383l15.02 12.384.228-32.03a238 238 0 0 1 15.736-16.748l31.16 33.068 13.396-53.834 3.257-13.09c.144-.068.287-.144.432-.212l6.72 11.885 25.684 45.433 19.411-54.897 5.357-15.148 5.318 15.17 19.245 54.9 25.155-45.062 6.657-11.925c.147.07.292.147.438.217l3.336 13.06 14.062 55.053 30.104-34.42a241 241 0 0 1 15.895 16.854l.45 31.585 14.688-12.213a305 305 0 0 1 6.401 9.361l-16.616 13.818c7.381 2.941 14.336 5.99 20.73 9.075l3.582-10.228.3.104a347 347 0 0 1 7.19 12.706l-2.516 7.185-2.146 6.126-5.76-2.96c-9.137-4.693-19.744-9.367-31.318-13.745l-5.587-2.063a402 402 0 0 0-37.614-11.486l-4.746-1.168c-13.959-3.342-28.242-5.944-42.245-7.477l-4.733-.477c-7.521-.694-14.94-1.066-22.163-1.063-6.158.003-12.33.242-18.5.7l-4.905.41c-14.1 1.31-28.186 3.747-42.104 7.125l-3.412.848q-1.05.267-2.1.54c-12.625 3.298-25.094 7.357-37.294 12.037l-5.62 2.207a403 403 0 0 0-31.119 14.085l-5.691 2.87-2.17-6.014-2.878-7.975a347 347 0 0 1 7.317-12.989m29.351-60.117.001-.196.101-14.11 6.96 7.385a237 237 0 0 0-7.062 6.92zm233.984-7.552 6.753-7.72.206 14.48a236 236 0 0 0-6.959-6.76m-223.088 63.371a366 366 0 0 1 30.488-9.823l-30.189-32.037Zm45.785-13.63c10.911-2.443 21.923-4.317 32.97-5.542l-21.936-38.802zm48.04-6.801a261 261 0 0 1 14.404-.41 246 246 0 0 1 18.069.681l-16.214-46.253zm47.264 1.743c11.038 1.376 22.168 3.361 33.126 5.809l-11.417-44.698zm49.362 9.797a413 413 0 0 1 29.107 8.96l-.592-41.563zM402.413 500.456h-5.734v-49.244h-9.768v-6.563h25.27v6.563h-9.768zM340.283 471.423c4.96 0 6.813-6.066 6.813-9.914 0-3.846-.369-10.297-5.963-10.297h-3.693v20.21zm16.21 28.891h-6.763l-8.52-22.47h-3.77v22.47h-5.45v-55.666h9.71c8.716 0 10.932 8.662 10.857 16.61-.052 5.494-1.952 11.499-6.163 14.515zM323.469 500.314H303.12v-55.666h20.064v6.564h-14.614v17.09h10.684v6.705H308.57v18.46h14.898zM283.317 501.197c-4.543-.018-6.777-2.373-9.195-7.644-2.418-5.27-2.84-12.182-2.84-20.884 0-8.757.609-15.833 3.027-21.076s4.723-8.252 9.42-7.902c8.197.61 9.837 9.054 9.728 14.729l-5.42-.022c-.111-3.468-.892-8.239-4.307-8.201-4.383.049-6.875 8.266-6.875 22.322 0 14.057 2.286 22.19 6.67 22.19 2.72 0 5.133-3.444 4.915-9.754l5.618-.003c-.54 11.493-4.796 16.27-10.74 16.246zM256.798 477.854l-3.368-15.945-3.369 15.926zm10.282 22.527-6.062.018-2.943-15.846-9.22-.005-2.976 15.795-6.211.037 12.762-59.379 2.01-.014zM236.15 500.38h-5.61l.039-35.371-6.406 23.447-6.237-22.735-.019 34.679h-5.74l.074-55.826h5.268l6.57 24.158 6.75-24.177h5.255zM139.84 499.188q-1.477 2.007-3.499 2.007-2.02 0-3.537-2.007t-1.516-4.753q0-2.746 1.516-4.752 1.516-2.007 3.537-2.007t3.499 2.007q1.477 2.006 1.477 4.752t-1.477 4.753M106.953 501.122c-5.039 0-8.181-2.91-11.679-9.742l4.34-5.06c1.84 5.055 4.473 8.334 7.748 8.334 3.923 0 5.63-5.438 5.63-8.902 0-4.111-.73-5.865-6.83-11.367-6.038-5.446-9.378-7.836-9.378-16.672 0-7.867 3.77-14.172 10.711-14.098 4.08.044 8.02 3.71 10.54 7.605l-3.213 5.906c-1.357-2.607-4.856-6.94-7.663-6.929-3.102.013-4.69 4.074-4.69 7.247 0 3.753 2.02 6.897 5.012 9.354 1.59 1.305 3.29 3.397 4.93 4.876 5.353 4.829 6.154 8.742 6.154 13.97 0 8.089-3.524 15.478-11.612 15.478M198.375 499.188q-1.476 2.007-3.498 2.007t-3.538-2.007-1.516-4.753q0-2.746 1.516-4.752 1.516-2.007 3.538-2.007t3.498 2.007q1.478 2.006 1.478 4.752t-1.478 4.753M165.488 501.122c-5.038 0-8.18-2.91-11.678-9.742l4.339-5.06c1.84 5.055 4.473 8.334 7.748 8.334 3.924 0 5.63-5.438 5.63-8.902 0-4.111-.729-5.865-6.83-11.367-6.038-5.446-9.377-7.836-9.377-16.672 0-7.867 3.77-14.172 10.71-14.098 4.081.044 8.02 3.71 10.54 7.605l-3.212 5.906c-1.358-2.607-4.857-6.94-7.663-6.929-3.103.013-4.69 4.074-4.69 7.247 0 3.753 2.02 6.897 5.012 9.354 1.589 1.305 3.29 3.397 4.929 4.876 5.353 4.829 6.155 8.742 6.155 13.97 0 8.089-3.524 15.478-11.613 15.478M373.869 477.854 370.5 461.91l-3.368 15.926zm10.281 22.527-6.061.018-2.943-15.846-9.22-.005-2.976 15.795-6.211.037 12.762-59.379 2.01-.014zM440.398 500.314H420.05v-55.666h20.064v6.564H425.5v17.09h10.684v6.705H425.5v18.46h14.898zM458.165 501.122c-5.038 0-8.18-2.91-11.678-9.742l4.339-5.06c1.84 5.055 4.474 8.334 7.748 8.334 3.924 0 5.63-5.438 5.63-8.902 0-4.111-.729-5.865-6.83-11.367-6.038-5.446-9.377-7.836-9.377-16.672 0-7.867 3.77-14.172 10.71-14.098 4.081.044 8.02 3.71 10.54 7.605l-3.212 5.906c-1.358-2.607-4.857-6.94-7.663-6.929-3.103.013-4.69 4.074-4.69 7.247 0 3.753 2.02 6.897 5.012 9.354 1.589 1.305 3.29 3.397 4.929 4.876 5.354 4.829 6.155 8.742 6.155 13.97 0 8.089-3.524 15.478-11.613 15.478" style="fill:#ee1c25;fill-rule:evenodd" data-source="https://football-logos.cc"></path><path d="M165.488 501.122c-5.038 0-8.18-2.91-11.678-9.742l4.339-5.06c1.84 5.055 4.473 8.334 7.748 8.334 3.924 0 5.63-5.438 5.63-8.902 0-4.111-.729-5.865-6.83-11.367-6.038-5.446-9.377-7.836-9.377-16.672 0-7.867 3.77-14.172 10.71-14.098 4.081.044 8.02 3.71 10.54 7.605l-3.212 5.906c-1.358-2.607-4.857-6.94-7.663-6.929-3.103.013-4.69 4.074-4.69 7.247 0 3.753 2.02 6.897 5.012 9.354 1.589 1.305 3.29 3.397 4.929 4.876 5.353 4.829 6.155 8.742 6.155 13.97 0 8.089-3.524 15.478-11.613 15.478" style="fill:#ee1c25;fill-rule:evenodd"></path><path d="M165.488 501.122c-5.038 0-8.18-2.91-11.678-9.742l4.339-5.06c1.84 5.055 4.473 8.334 7.748 8.334 3.924 0 5.63-5.438 5.63-8.902 0-4.111-.729-5.865-6.83-11.367-6.038-5.446-9.377-7.836-9.377-16.672 0-7.867 3.77-14.172 10.71-14.098 4.081.044 8.02 3.71 10.54 7.605l-3.212 5.906c-1.358-2.607-4.857-6.94-7.663-6.929-3.103.013-4.69 4.074-4.69 7.247 0 3.753 2.02 6.897 5.012 9.354 1.589 1.305 3.29 3.397 4.929 4.876 5.353 4.829 6.155 8.742 6.155 13.97 0 8.089-3.524 15.478-11.613 15.478M498.933 500.314h-20.348v-55.666h20.065v6.564h-14.614v17.09h10.683v6.705h-10.683v18.46h14.897z" style="fill:#ee1c25;fill-rule:evenodd"></path><path d="M402.232 306.406a19.52 19.52 0 0 0-13.846 5.735 20 20 0 0 0-1.213 1.33h30.119a20 20 0 0 0-1.213-1.33 19.52 19.52 0 0 0-13.847-5.735m4.73-39.61-.154 32.34a27.1 27.1 0 0 1 11.091 4.572l23.114-22.957c-9.321-7.836-21.093-12.894-34.05-13.955m-9.472 32.368.154-32.437c-13.347.892-25.466 6-35 14.024l23.463 23.287a27.1 27.1 0 0 1 11.383-4.874m9.062 53.717-.164 34.557c13.538-1.012 25.813-6.513 35.39-15.01l-24.154-23.97a27.1 27.1 0 0 1-11.072 4.423m-9.482 34.537.165-34.654a27.1 27.1 0 0 1-10.84-4.619l-24.41 24.245c9.502 8.46 21.662 13.965 35.085 15.028m50.595-100.128-23.167 23.01a27.1 27.1 0 0 1 4.592 11.15l33.023.154c-1.085-13.134-6.342-24.998-14.448-34.313m-92.154 78.383 24.336-24.17a27.1 27.1 0 0 1-4.475-10.988l-33.802-.158a61.25 61.25 0 0 0 13.941 35.316m106.667-34.75-33.13-.156a27.1 27.1 0 0 1-4.744 11.178l23.96 23.778a60.96 60.96 0 0 0 13.914-34.8m-120.481-9.884 33.72.158a27.1 27.1 0 0 1 4.228-10.431l-23.647-23.469c-7.96 9.174-13.147 20.824-14.301 33.742m11.341-42.986c12.466-12.379 29.712-19.97 48.812-19.97 19.097 0 36.357 7.625 48.84 20.035 12.452 12.381 20.137 29.51 20.137 48.567 0 19.1-7.725 36.48-20.233 49.074-12.471 12.558-29.69 20.353-48.744 20.353-19.042 0-36.23-7.82-48.676-20.397-12.507-12.638-20.226-30.068-20.226-49.18 0-19.054 7.662-36.14 20.09-48.482m30.376 42.504a19.6 19.6 0 0 0-.763 5.43c0 2.028.308 3.984.88 5.823h37.402c.572-1.84.88-3.795.88-5.823 0-1.884-.266-3.706-.762-5.43zm4.095 18.34q.423.483.877.936a19.52 19.52 0 0 0 13.846 5.735 19.52 19.52 0 0 0 14.723-6.671zM176.637 263.283l33.3.224-4.687 53.476 53.4-4.313.058 32.813-53.475-4.725 4.763 53.476-32.877.057 4.341-53.495-53.483 4.763-.001-33.243 53.475 4.705z" style="fill:#fefefe;fill-rule:evenodd"></path><path d="M522.26 421.245c0-100.37-25.251-191.092-66.464-256.525-40.424-64.179-96.147-103.847-158.158-103.847S179.903 100.54 139.48 164.72c-41.213 65.433-66.465 156.154-66.465 256.525 0 100.028 25.454 190.326 66.61 255.562 40.642 64.418 96.527 104.21 158.013 104.21s117.371-39.792 158.012-104.21c41.156-65.236 66.61-155.534 66.61-255.562m-55.702-263.301c42.45 67.395 68.458 160.53 68.458 263.301 0 102.44-26.215 195.15-68.604 262.339-42.972 68.114-102.63 110.19-168.774 110.19s-125.802-42.076-168.775-110.19C86.475 616.395 60.26 523.685 60.26 421.245c0-102.771 26.008-195.906 68.457-263.301C171.47 90.069 230.95 48.117 297.637 48.117c66.69 0 126.17 41.952 168.921 109.827" style="fill:#ee1c25;fill-rule:evenodd"></path><path d="M101.622 548.816c24.54-9.384 53.675-16.492 86.52-21.198 32.733-4.69 69.199-6.993 108.512-6.783 39.508.211 76.223 2.617 109.486 7.26 32.812 4.581 62.313 11.341 87.876 20.321l-2.046 5.87c-25.163-8.838-54.265-15.502-86.683-20.027-33.041-4.613-69.479-7.003-108.657-7.212-38.953-.208-75.116 2.078-107.612 6.734-32.37 4.638-61.054 11.632-85.18 20.857zM177.47 211.76c14.16 7.993 30.96 14.134 48.74 18.533 23.535 5.822 48.707 8.592 71.753 8.579 22.825-.013 46.614-2.575 69.41-8.253 17.626-4.39 34.62-10.636 50.061-19-16.12-8.601-34.159-15.492-52.905-20.426-22.059-5.806-45.05-8.9-67.017-8.888-21.69.012-44.632 3.234-66.595 9.016-19.09 5.026-37.394 11.98-53.446 20.438m46.377 28.144c-21.922-5.423-42.505-13.418-58.947-24.194l-6.7-4.39 6.932-4.04c18.469-10.757 40.345-19.497 63.266-25.532 22.719-5.98 46.526-9.313 69.114-9.326 22.852-.012 46.707 3.19 69.535 9.198 22.578 5.943 44.202 14.634 62.922 25.68l7.103 4.192-7.065 4.295c-18.273 11.11-38.863 19.112-60.27 24.444-23.546 5.864-48.148 8.51-71.774 8.524-23.833.013-49.837-2.844-74.116-8.851" style="fill:#ee1c25;fill-rule:evenodd"></path><path d="M194.246 693.067v-160.01q-2.629.351-5.228.724c-23.33 3.343-44.747 7.91-63.922 13.654v71.149c13.362 31.877 29.854 59.806 48.776 82.556a296 296 0 0 1 20.374-8.073M262.86 527.512v149.912a331 331 0 0 1 35.006-2.007c11.49-.056 22.878.487 34.144 1.634v-149.19c-11.52-.479-23.32-.75-35.38-.814a866 866 0 0 0-33.77.465M401.19 533.7v158.637a301 301 0 0 1 19.79 7.688c19.123-22.805 35.838-50.756 49.36-82.697V547.49c-19.782-5.544-41.545-9.95-65.053-13.231q-2.04-.285-4.096-.558" style="fill:#ee1c25;fill-rule:evenodd"></path><path d="m304.124 251.932-.375 174h-12.706l.375-174z" style="fill:#fff;fill-rule:evenodd" data-source="https://football-logos.cc"></path><path d="m181.451 317.021-4.814-53.738 33.3.224-4.687 53.476 53.4-4.313.058 32.813-53.475-4.725 4.763 53.476-32.877.057 4.341-53.495-53.483 4.763-.001-33.243zm109.601 104.804.36-167.448c-72.728-1.658-122.103-22.66-158.072-51.053-25.169 51.923-41.57 115.88-45.16 185.579 56.813 23.139 125.265 32.182 202.872 32.922M304.119 254.46l-.36 167.41c75.56-.227 141.797-9.829 203.234-32.606-3.75-70.191-20.264-133.798-45.31-185.314-43.495 33.454-96.618 49.86-157.564 50.51m28.83 72.075c0-19.054 7.66-36.14 20.09-48.482 12.465-12.379 29.71-19.97 48.811-19.97 19.097 0 36.357 7.625 48.84 20.035 12.452 12.381 20.137 29.51 20.137 48.567 0 19.1-7.725 36.48-20.233 49.075-12.471 12.557-29.69 20.352-48.744 20.352-19.042 0-36.23-7.82-48.676-20.397-12.507-12.638-20.226-30.068-20.226-49.18" style="fill:#ee1c25;fill-rule:evenodd"></path><path d="M387.173 313.47h30.119a20 20 0 0 0-1.213-1.33 19.52 19.52 0 0 0-13.847-5.734 19.52 19.52 0 0 0-13.846 5.735 20 20 0 0 0-1.213 1.33M421.05 320.557h-37.636a19.6 19.6 0 0 0-.763 5.43c0 2.028.308 3.984.88 5.823h37.402c.572-1.84.88-3.795.88-5.823 0-1.884-.266-3.706-.762-5.43M416.955 338.897H387.51q.423.483.877.937a19.52 19.52 0 0 0 13.846 5.735 19.52 19.52 0 0 0 14.723-6.672M341.697 321.04l33.72.157a27.1 27.1 0 0 1 4.228-10.431l-23.647-23.469c-7.96 9.174-13.147 20.824-14.301 33.742M375.372 330.515l-33.802-.158a61.25 61.25 0 0 0 13.941 35.316l24.336-24.17a27.1 27.1 0 0 1-4.475-10.988M386.395 348.146l-24.41 24.244c9.502 8.46 21.662 13.965 35.085 15.028l.165-34.654a27.1 27.1 0 0 1-10.84-4.618M406.553 352.88l-.165 34.558c13.538-1.012 25.814-6.513 35.39-15.01l-24.154-23.97a27.1 27.1 0 0 1-11.071 4.423M424.304 341.945l23.96 23.778a60.96 60.96 0 0 0 13.914-34.8l-33.13-.156a27.1 27.1 0 0 1-4.744 11.178M429.09 321.45l33.023.154c-1.085-13.134-6.342-24.998-14.448-34.313l-23.167 23.01a27.1 27.1 0 0 1 4.592 11.148M417.9 303.708l23.113-22.957c-9.321-7.836-21.093-12.894-34.05-13.955l-.155 32.34a27.1 27.1 0 0 1 11.091 4.572M397.49 299.164l.154-32.437c-13.347.892-25.466 6-35 14.024l23.463 23.287a27.1 27.1 0 0 1 11.383-4.874M360.457 689.93c-20.394-4.145-41.294-6.147-62.558-6.043-21.522.105-42.478 2.301-62.714 6.524-19.197 4.005-37.745 9.847-55.513 17.469 33.104 37.005 73.077 58.574 116.451 58.573 43.957 0 84.993-21.921 119.015-59.695a292 292 0 0 0-54.68-16.829" style="fill:#ee1c25;fill-rule:evenodd"></path><path d="M165.897 494.654c3.924 0 5.63-5.438 5.63-8.902 0-4.111-.729-5.865-6.83-11.367-6.038-5.446-9.377-7.836-9.377-16.672 0-7.867 3.77-14.172 10.71-14.098 4.081.044 8.02 3.71 10.54 7.605l-3.212 5.906c-1.358-2.607-4.857-6.94-7.663-6.929-3.103.013-4.69 4.074-4.69 7.247 0 3.753 2.02 6.897 5.012 9.354 1.589 1.305 3.29 3.397 4.929 4.876 5.353 4.828 6.155 8.742 6.155 13.97 0 8.089-3.524 15.478-11.613 15.478-5.038 0-8.18-2.91-11.678-9.742l4.339-5.06c1.84 5.055 4.474 8.334 7.748 8.334m22.244 32.964c32.734-4.69 69.2-6.993 108.514-6.783 39.507.211 76.223 2.617 109.485 7.26 32.812 4.581 62.313 11.341 87.876 20.321l-2.046 5.87a352 352 0 0 0-21.63-6.796v69.838c-13.522 31.941-30.237 59.892-49.36 82.697a301 301 0 0 0-19.79-7.688V533.7c-21.692-2.884-44.812-4.827-69.18-5.84v149.19a321 321 0 0 0-34.144-1.634c-11.853.058-23.53.73-35.006 2.007V527.512c-24.246.818-47.197 2.677-68.614 5.545v160.01a296 296 0 0 0-20.374 8.073c-18.922-22.75-35.414-50.68-48.776-82.556v-71.15c-7.429 2.226-14.52 4.628-21.258 7.204l-2.216-5.822c24.54-9.384 53.675-16.492 86.52-21.198M297.9 683.888c21.264-.105 42.164 1.897 62.558 6.041a292 292 0 0 1 54.68 16.83c-34.021 37.773-75.057 59.694-119.014 59.694-43.374 0-83.347-21.568-116.45-58.573 17.767-7.622 36.315-13.464 55.512-17.47 20.236-4.222 41.192-6.418 62.714-6.523m-6.847-262.063c-77.607-.74-146.06-9.783-202.872-32.922 3.59-69.699 19.991-133.656 45.16-185.58 35.969 28.394 85.344 49.396 158.073 51.054l.005-2.445h12.706l-.005 2.528c60.946-.65 114.07-17.056 157.564-50.51 25.046 51.516 41.56 115.123 45.31 185.314-61.437 22.777-127.675 32.38-203.235 32.606l-.009 4.062h-12.706zm6.91-173.07c-23.832.013-49.835-2.844-74.115-8.851-21.922-5.424-42.504-13.418-58.947-24.194l-6.7-4.39 6.932-4.04c18.469-10.757 40.345-19.497 63.266-25.532 22.719-5.98 46.526-9.313 69.114-9.326 22.852-.012 46.707 3.19 69.536 9.198 22.577 5.943 44.202 14.634 62.921 25.68l7.103 4.192-7.064 4.295c-18.274 11.11-38.863 19.112-60.272 24.444-23.545 5.864-48.147 8.51-71.773 8.524m67.079-76.492c-13.959-3.342-28.242-5.944-42.245-7.477l-4.733-.477c-7.521-.694-14.94-1.066-22.163-1.063-6.158.003-12.33.242-18.5.7l-4.905.41c-14.1 1.31-28.186 3.747-42.104 7.125l-3.412.848-2.1.54c-12.625 3.298-25.094 7.357-37.294 12.037l-5.62 2.207a403 403 0 0 0-31.119 14.085l-5.691 2.87-2.17-6.014-2.878-7.975a347 347 0 0 1 7.317-12.989l4.037 11.186a414 414 0 0 1 20.609-9.323l-17.056-14.062a304 304 0 0 1 6.379-9.383l15.018 12.384.23-32.03a238 238 0 0 1 15.735-16.748l31.16 33.068 13.396-53.834 3.257-13.09.432-.212 6.72 11.885 25.684 45.433 19.412-54.897 5.356-15.148 5.318 15.17 19.246 54.9 25.154-45.062 6.657-11.925.438.217 3.336 13.06 14.062 55.053 30.104-34.42a241 241 0 0 1 15.895 16.854l.45 31.585 14.688-12.213a305 305 0 0 1 6.401 9.361l-16.616 13.818c7.381 2.941 14.336 5.99 20.73 9.075l3.582-10.228.3.104a347 347 0 0 1 7.19 12.706l-2.516 7.185-2.146 6.126-5.76-2.96c-9.137-4.693-19.744-9.367-31.318-13.745l-5.587-2.063a402 402 0 0 0-37.614-11.486zM189.823 494.435q0-2.746 1.516-4.752 1.516-2.007 3.538-2.007t3.498 2.007q1.478 2.006 1.478 4.752t-1.478 4.753-3.498 2.007-3.538-2.007-1.516-4.753m-57.019-4.752q1.516-2.007 3.537-2.007t3.499 2.007q1.477 2.006 1.477 4.753 0 2.745-1.477 4.752t-3.499 2.007q-2.02 0-3.537-2.007-1.515-2.007-1.516-4.752 0-2.747 1.516-4.753m79.373 10.717.075-55.826h5.267l6.57 24.158 6.75-24.177h5.255l.056 55.826h-5.61l.039-35.372-6.406 23.447-6.237-22.735-.019 34.679zm27.49-.02 12.763-59.378 2.01-.015 12.64 59.394-6.062.018-2.943-15.846-9.22-.005-2.976 15.795zm43.65.817c-4.543-.018-6.777-2.373-9.195-7.644-2.418-5.27-2.84-12.182-2.84-20.884 0-8.757.609-15.833 3.027-21.076s4.723-8.252 9.42-7.902c8.197.61 9.837 9.054 9.728 14.729l-5.42-.022c-.111-3.468-.892-8.239-4.307-8.201-4.383.049-6.875 8.266-6.875 22.322 0 14.057 2.286 22.19 6.67 22.19 2.72 0 5.133-3.444 4.915-9.754l5.618-.003c-.54 11.493-4.796 16.27-10.74 16.246zm19.804-.883v-55.666h20.064v6.564h-14.614v17.09h10.684v6.705H308.57v18.46h14.898v6.847zm28.868 0v-55.666h9.711c8.716 0 10.932 8.662 10.857 16.61-.052 5.494-1.952 11.499-6.163 14.515l10.1 24.541h-6.764l-8.52-22.47h-3.77v22.47zm-219.579-28.64c5.354 4.829 6.155 8.742 6.155 13.97 0 8.089-3.523 15.478-11.612 15.478-5.039 0-8.181-2.91-11.679-9.742l4.34-5.06c1.84 5.055 4.473 8.334 7.748 8.334 3.923 0 5.63-5.438 5.63-8.902 0-4.111-.73-5.865-6.83-11.367-6.038-5.446-9.378-7.836-9.378-16.672 0-7.867 3.77-14.172 10.711-14.098 4.08.044 8.02 3.71 10.54 7.605l-3.213 5.906c-1.357-2.607-4.856-6.94-7.663-6.929-3.102.013-4.69 4.074-4.69 7.247 0 3.753 2.02 6.897 5.012 9.354 1.59 1.305 3.29 3.397 4.93 4.876m-39.395-50.429c0 100.028 25.454 190.326 66.61 255.562 40.642 64.418 96.527 104.21 158.013 104.21s117.371-39.792 158.012-104.21c41.157-65.236 66.61-155.534 66.61-255.562 0-100.37-25.251-191.092-66.464-256.525-11.52-18.289-24.282-34.588-38.078-48.545v.006a245 245 0 0 0-6.956-6.763c-33.116-30.86-71.718-48.545-113.124-48.545-41.688 0-80.535 17.928-113.801 49.18a241 241 0 0 0-7.063 6.919c-13.496 13.78-25.993 29.806-37.294 47.749-41.213 65.432-66.465 156.153-66.465 256.524zm283.724 79.136L369.5 441l2.01-.014 12.64 59.394-6.062.018-2.943-15.846-9.22-.005-2.976 15.795zm39.94.075v-49.244h-9.768v-6.563h25.27v6.563h-9.768v49.244zm23.37-.142v-55.666h20.065v6.564H425.5v17.09h10.684v6.705H425.5v18.46h14.898v6.847zm26.438-8.934 4.339-5.06c1.84 5.055 4.474 8.334 7.748 8.334 3.924 0 5.63-5.438 5.63-8.902 0-4.111-.729-5.865-6.83-11.367-6.038-5.446-9.377-7.836-9.377-16.672 0-7.867 3.77-14.172 10.71-14.098 4.081.044 8.02 3.71 10.54 7.605l-3.212 5.906c-1.358-2.607-4.857-6.94-7.663-6.929-3.103.013-4.69 4.074-4.69 7.247 0 3.753 2.02 6.897 5.012 9.354 1.589 1.305 3.29 3.397 4.929 4.876 5.354 4.829 6.155 8.742 6.155 13.97 0 8.089-3.524 15.478-11.613 15.478-5.038 0-8.18-2.91-11.678-9.742m32.098 8.934v-55.666h20.065v6.564h-14.614v17.09h10.683v6.705h-10.683v18.46h14.897v6.847z" style="fill:#fff;fill-rule:evenodd"></path><path d="m253.43 461.909-3.369 15.926 6.737.02zM337.44 451.212v20.21h2.843c4.96 0 6.813-6.065 6.813-9.913 0-3.846-.369-10.297-5.963-10.297zM370.5 461.909l-3.368 15.926 6.737.02zM187.671 172.792a366 366 0 0 1 30.488-9.823l-30.189-32.037ZM244.49 114.819l-11.034 44.342c10.911-2.442 21.923-4.316 32.97-5.541zM297.755 106.38l-16.26 45.98a261 261 0 0 1 14.405-.408 246 246 0 0 1 18.069.68zM350.47 115.215l-21.71 38.889c11.038 1.376 22.168 3.361 33.126 5.809zM406.637 131.298 378.122 163.9a413 413 0 0 1 29.107 8.96zM364.529 191.193c-22.059-5.806-45.05-8.9-67.017-8.888-21.69.012-44.632 3.234-66.595 9.016-19.09 5.026-37.394 11.98-53.446 20.438 14.159 7.994 30.96 14.135 48.74 18.534 23.534 5.822 48.706 8.592 71.752 8.579 22.825-.013 46.614-2.575 69.41-8.253 17.626-4.39 34.62-10.636 50.061-19-16.12-8.601-34.159-15.492-52.905-20.426M303.276 741l.094-13.24c.028-3.87 5.01-8.366 8.854-8.486l4.264.094c1.803.04 4.302-2.45 4.302-4.042l-.002-6.429c-.001-4.27-2.857-5.928-5.913-5.98-4.484-.077-6.825 1.39-6.825 6.9l-4.917.14c.093-10.275 6.322-12.043 11.986-12.093 6.605-.057 10.587 5.73 10.542 9.232l-.12 9.19c.13 3.366-4.803 7.967-9.013 7.958l-2.449-.005c-2.878-.006-6.118 1.884-6.082 4.705l.094 7.247h16.714V741zM284.931 741.753c-3.493-.026-6.96-1.132-10.099-4.267l3.886-3.786c1.053.99 2.168 3.1 6.801 3.142 4.425.04 5.92-2.4 5.892-4.15l-.141-8.546c-1.591 1.314-2.592 2.313-6.649 2.348-7.627.065-11.036-4.95-11.008-8.345l.094-11.367c.03-3.542 3.22-8.813 11.037-8.939 6.709-.07 11.342 2.987 11.395 9.83l.188 24.282c.061 7.889-7.035 10.037-11.396 9.797m-.312-20.029c2.634-.005 6.633-1.933 6.65-5.073l.047-8.403c.021-3.765-2.77-5.562-6.453-5.495-4.202.078-6.325 3.236-6.333 4.838l-.047 9.998c-.008 1.726 2.05 4.143 6.136 4.135" style="fill:#fff;fill-rule:evenodd"></path><path d="m262.666 741.038.023-38.297-5.636.082.023-4.887 8.473-.01c1.428-.003 1.862 1.08 1.881 2.155.552 30.975.032 38.52.032 40.921z" style="fill:#fff8f8;fill-rule:evenodd"></path><path d="m332.19 741 .093-13.24c.028-3.87 5.01-8.366 8.855-8.486l4.263.094c1.803.04 4.302-2.45 4.302-4.042l-.002-6.429c-.001-4.27-2.857-5.928-5.913-5.98-4.483-.077-6.824 1.39-6.824 6.9l-4.917.14c.092-10.275 6.321-12.043 11.985-12.093 6.605-.057 10.588 5.73 10.542 9.232l-.12 9.19c.131 3.366-4.803 7.967-9.012 7.958l-2.45-.005c-2.878-.006-6.118 1.884-6.081 4.705l.094 7.247h16.713V741z" style="fill:#fff;fill-rule:evenodd" data-source="https://football-logos.cc"></path><!-- source: https://football-logos.cc --></svg>