<svg xmlns="http://www.w3.org/2000/svg" style="max-height:500px" viewBox="69.82 137.48 455.63 566.93"><!-- Source: https://football-logos.cc --><path d="M152.863 573.133c-57.406-80.169-82.65-176.435-83.035-274.289-.109-27.472 1.612-54.825 5.517-82.025 3.686-25.67 9.276-50.941 16.475-75.85.87-3.007 1.835-3.489 4.852-3.489H499.18c3.07 0 4.143.63 4.973 3.671 6.126 22.463 11.051 45.19 14.547 68.212 3.665 24.135 5.728 48.415 6.439 72.813a765 765 0 0 1 .313 23.482c-.148 97.91-28.547 195.526-87.207 274.568-13.507 18.2-27.989 35.45-44.05 51.457-27.642 27.55-58.802 50.14-91.517 71.24-2.734 1.764-4.962 2.065-7.79.326-55.545-34.164-103.986-76.991-142.025-130.116" style="fill:#c2c2c2;fill-rule:evenodd" data-source="https://football-logos.cc"></path><path d="M154.437 572.006c-57.2-79.882-82.288-175.755-82.672-273.17-.217-54.884 6.753-104.863 21.916-157.33.606-2.096.811-2.089 2.99-2.089H499.18c2.213 0 2.521.108 3.104 2.244 12.839 47.076 19.491 91.6 20.919 140.572.227 7.801.324 15.614.312 23.422-.148 97.517-28.416 194.712-86.825 273.417-37.57 50.622-74.125 82.92-135.062 122.224-2.277 1.469-3.691 1.554-5.725.303-55.67-34.24-103.694-76.843-141.466-129.593" style="fill:#fff;fill-rule:evenodd"></path><path d="M103.27 147.004h389.405c15.963 57.741 20.587 107.37 20.51 158.635-.146 96.052-26.135 185.687-82.854 262.11-33.28 44.843-75.932 85.353-132.439 119.338-59.49-37.203-103.13-78.129-135.862-123.84-57.806-80.727-79.566-173.004-79.935-264.452-.208-51.805 6.088-101.421 21.176-151.791" style="fill:#1d1d1d;fill-rule:evenodd" data-source="https://football-logos.cc"></path><path d="M492.738 386.938c4.602-26.504 6.845-53.674 6.887-81.32.077-50.099-4.983-96.82-17.367-145.055H233.653v43.332h-27.584v-43.332H179.12v43.332h-27.584v-43.332h-38.063c-12.554 45.341-18.008 90.959-17.818 138.177.372 92.427 23.108 180.794 77.4 256.613a394 394 0 0 0 24.77 31.12zm-341.202 100.55c7.975 16.374 17.286 32.202 27.584 47.302V341.532h-27.584zm54.533 73.835 27.584-17.321v-202.47h-27.584zm55.439-141.276h79.535c31.228 0 69.015-15.738 97.336-49.66 19.48-23.334 35.173-56.125 38.423-95.409 2.548-30.803-3.812-72.048-28.216-106.915 28.026 33.801 36.213 77.429 35.696 108.583-.31 18.74-5.406 36.875-10.625 52.134-15.03 43.937-45.279 72.38-76.205 87.854-20.348 10.18-41.737 12.196-54.755 12.196h-53.605v80.358l-27.584 17.321z" style="fill:#fff;fill-rule:evenodd"></path><path d="M411.435 278.373h34.41v10.286h-22.08v8.053h19.068v8.927h-19.068v9.053h22.404v10.214l-34.734-.021zM323.462 278.373h34.41v10.286h-22.08v8.053h19.068v8.927H335.79v9.053h22.566v10.197l-34.895-.004zM197.232 278.373h12.975v46.512h-12.975zM151.583 218.317h12.975v25.7c0 7.834 5.146 10.476 10.006 10.476s9.302-3.538 9.302-10.387v-25.789h12.976v24.252c0 16.34-12.004 21.904-22.685 21.904s-22.574-5.192-22.574-23.156zM268.902 278.373h9.232l22.567 26.305v-26.305h12.33v46.512h-9.763l-22.036-25.512v25.512h-12.33zM234.037 278.373h11.198l17.597 46.512h-12.976L247 315.117h-14.96l-2.784 9.768H216.44zm10.981 29.972-4.316-14.757-2.52-.01-4.211 14.767zM152.357 278.373h20.819c5.611 0 16.693 4.152 16.693 16.13 0 11.976-10.134 15.17-14.731 15.17l-10.45.001v15.211h-12.33zm19.855 10.286h-7.525v12.088h7.525c4.049 0 5.584-3.022 5.582-6.044s-1.543-6.044-5.582-6.044M402.525 283.38l-5.652 9.623c-4.396-2.91-7.75-4.193-12.38-4.455-2.155-.122-5.684.116-5.848 3.063-.13 2.326 2.767 3.28 6.056 4.273 4.229 1.277 9.69 2.724 13.009 4.62 1.757 1.004 3.421 2.294 4.468 4.166.924 1.651 1.496 3.832 1.577 5.652.232 5.206-2.139 9.052-5.668 11.33-3.723 2.402-8.115 3.106-13.467 3.267-7.083.213-15.191-2.139-21.072-5.347l5.312-9.64c4.753 2.495 10.82 4.845 16.557 5.185 2.01.12 5.337-.671 5.424-3.13.072-2.077-2.796-3.206-6.14-4.106-4.302-1.158-9.865-2.28-12.962-4.264-4.104-2.63-6.22-6.099-6.214-10.002.02-11.276 10.267-15.27 17.932-15.292 6.548-.019 12.771 1.552 19.068 5.057M259.73 222.823l-5.652 9.623c-4.395-2.91-7.749-4.193-12.38-4.455-2.154-.122-5.683.116-5.847 3.063-.13 2.326 2.767 3.281 6.056 4.274 4.229 1.276 9.69 2.723 13.009 4.62 1.757 1.004 3.421 2.293 4.468 4.165.924 1.651 1.496 3.832 1.577 5.653.232 5.205-2.139 9.05-5.668 11.329-3.723 2.403-8.115 3.106-13.467 3.267-7.083.213-15.191-2.139-21.072-5.346l5.313-9.64c4.752 2.495 10.82 4.845 16.556 5.184 2.01.12 5.337-.671 5.424-3.13.073-2.077-2.796-3.206-6.14-4.106-4.302-1.158-9.864-2.28-12.961-4.264-4.105-2.63-6.222-6.099-6.215-10.002.02-11.276 10.267-15.27 17.932-15.292 6.548-.019 12.771 1.552 19.068 5.057M268.174 252.873h9.266v11.422h-9.266zM204.897 252.873h9.267v11.422h-9.267zM319.756 336.29c6.155 0 11.146 5.986 11.146 13.366s-4.991 13.365-11.146 13.365-11.146-5.985-11.146-13.365 4.991-13.366 11.146-13.366m0 2.906c4.55 0 8.24 4.684 8.24 10.46s-3.69 10.46-8.24 10.46-8.24-4.684-8.24-10.46 3.69-10.46 8.24-10.46M253.643 337.36h-2.905v.024c-1.27 1.636-3.54 3.8-6.767 4.409v2.905c3.051-.708 5.62-2.438 6.767-3.778v18.905h-5.715v2.906h14.223v-2.906h-5.603zM295.736 350.652c2.847-.385 5.471-1.957 5.74-5.129.32-3.777-2.582-5.688-6.038-5.692-3.386-.003-5.488 1.874-7.419 4.797l-2.182-1.918c1.687-3.034 5.404-5.628 9.765-5.623 2.027.002 4.203.555 5.86 1.753 2.293 1.658 3.144 4.167 2.91 6.928-.244 2.867-1.755 4.95-3.875 6.254 2.811 1.397 4.732 3.966 4.737 7.823.007 5.124-4.53 8.734-9.394 8.938-4.827.203-8.033-2.042-10.548-5.895l2.433-1.588c1.941 2.974 4.196 4.74 7.993 4.58 3.296-.139 6.616-2.493 6.61-6.031-.004-3.984-2.874-5.744-6.294-6.119-1.052-.115-1.647-.077-2.705-.078l-.022-2.88c.965-.016 1.47.01 2.429-.12M282.845 353.253c-.18 4.624-.922 9.108-3.529 12.153-1.564 1.826-3.86 3.344-7.236 3.484-4.856.2-7.818-2.13-10.046-6.616l2.49-1.496c1.718 3.575 3.947 5.363 7.184 5.209 1.961-.094 3.53-.645 4.904-2.102 1.753-1.86 2.833-4.907 3.156-8.033-2.59 2.467-4.952 3.371-7.918 3.371-5.933 0-10.745-4.911-10.745-10.968 0-6.056 4.812-10.967 10.745-10.967 3.095 0 5.884 1.335 7.845 3.473 3.176 3.461 3.322 8.085 3.15 12.492m-3.169-5.484c-.244-4.225-3.654-7.576-7.825-7.576-4.33 0-7.84 3.61-7.84 8.062s3.51 8.062 7.84 8.062c4.83 0 7.833-4.058 7.825-8.548" style="fill:#1d1d1d;fill-rule:evenodd" data-source="https://football-logos.cc"></path><!-- source: https://football-logos.cc --></svg>