<svg xmlns="http://www.w3.org/2000/svg" xml:space="preserve" viewBox="0 0 1496 2099.52"><!-- Source: https://football-logos.cc --><defs data-source="https://football-logos.cc"><linearGradient id="b" x1="0" x2="1" y1="0" y2="0" gradientTransform="matrix(32.35613 0 0 -32.35613 907.77 827.874)" gradientUnits="userSpaceOnUse" spreadMethod="pad"><stop offset="0" style="stop-opacity:1;stop-color:#c2e5f8"></stop><stop offset="0" style="stop-opacity:1;stop-color:#c2e5f8"></stop><stop offset="1" style="stop-opacity:1;stop-color:#c2e5f8"></stop></linearGradient><linearGradient id="c" x1="0" x2="1" y1="0" y2="0" gradientTransform="matrix(13.50568 0 0 -13.50568 942.974 856.86)" gradientUnits="userSpaceOnUse" spreadMethod="pad"><stop offset="0" style="stop-opacity:1;stop-color:#c2e5f8"></stop><stop offset="0" style="stop-opacity:1;stop-color:#c2e5f8"></stop><stop offset="1" style="stop-opacity:1;stop-color:#c2e5f8"></stop></linearGradient><linearGradient id="d" x1="0" x2="1" y1="0" y2="0" gradientTransform="matrix(25.42505 0 0 -25.42505 961.674 870.098)" gradientUnits="userSpaceOnUse" spreadMethod="pad"><stop offset="0" style="stop-opacity:1;stop-color:#c2e5f8"></stop><stop offset="0" style="stop-opacity:1;stop-color:#c2e5f8"></stop><stop offset="1" style="stop-opacity:1;stop-color:#c2e5f8"></stop></linearGradient><linearGradient id="e" x1="0" x2="1" y1="0" y2="0" gradientTransform="matrix(40.62542 0 0 -40.62542 1027.038 863.267)" gradientUnits="userSpaceOnUse" spreadMethod="pad"><stop offset="0" style="stop-opacity:1;stop-color:#c2e5f8"></stop><stop offset="0" style="stop-opacity:1;stop-color:#c2e5f8"></stop><stop offset="1" style="stop-opacity:1;stop-color:#c2e5f8"></stop></linearGradient><linearGradient id="f" x1="0" x2="1" y1="0" y2="0" gradientTransform="matrix(30.22901 0 0 -30.22901 1064.54 854.243)" gradientUnits="userSpaceOnUse" spreadMethod="pad"><stop offset="0" style="stop-opacity:1;stop-color:#c2e5f8"></stop><stop offset="0" style="stop-opacity:1;stop-color:#c2e5f8"></stop><stop offset="1" style="stop-opacity:1;stop-color:#c2e5f8"></stop></linearGradient><linearGradient id="h" x1="0" x2="1" y1="0" y2="0" gradientTransform="scale(1440.5862 -1440.5862)rotate(90 .944 -.25)" gradientUnits="userSpaceOnUse" spreadMethod="pad"><stop offset="0" style="stop-opacity:1;stop-color:#009fe3"></stop><stop offset=".75" style="stop-opacity:1;stop-color:#f0f9fe"></stop><stop offset="1" style="stop-opacity:1;stop-color:#cbbb9f"></stop><stop offset="1" style="stop-opacity:1;stop-color:#cbbb9f"></stop></linearGradient><linearGradient id="j" x1="0" x2="1" y1="0" y2="0" gradientTransform="matrix(25.3595 0 0 -25.3595 931.72 827.651)" gradientUnits="userSpaceOnUse" spreadMethod="pad"><stop offset="0" style="stop-opacity:1;stop-color:#c2e5f8"></stop><stop offset="0" style="stop-opacity:1;stop-color:#c2e5f8"></stop><stop offset="1" style="stop-opacity:1;stop-color:#c2e5f8"></stop></linearGradient><linearGradient id="l" x1="0" x2="1" y1="0" y2="0" gradientTransform="scale(201.23936 -201.23936)rotate(90 4.703 .368)" gradientUnits="userSpaceOnUse" spreadMethod="pad"><stop offset="0" style="stop-opacity:1;stop-color:#c0e4f8"></stop><stop offset="1" style="stop-opacity:1;stop-color:#e7f5fd"></stop><stop offset="1" style="stop-opacity:1;stop-color:#e7f5fd"></stop></linearGradient><linearGradient id="n" x1="0" x2="1" y1="0" y2="0" gradientTransform="scale(127.46892 -127.46892)rotate(90 8.488 -3.775)" gradientUnits="userSpaceOnUse" spreadMethod="pad"><stop offset="0" style="stop-opacity:1;stop-color:#4aabe7"></stop><stop offset="0" style="stop-opacity:1;stop-color:#4aabe7"></stop><stop offset="1" style="stop-opacity:1;stop-color:#74c3ee"></stop></linearGradient><linearGradient id="p" x1="0" x2="1" y1="0" y2="0" gradientTransform="scale(276.39359 -276.39359)rotate(90 5.365 -.308)" gradientUnits="userSpaceOnUse" spreadMethod="pad"><stop offset="0" style="stop-opacity:1;stop-color:#4aabe7"></stop><stop offset="0" style="stop-opacity:1;stop-color:#4aabe7"></stop><stop offset="1" style="stop-opacity:1;stop-color:#74c3ee"></stop></linearGradient><linearGradient id="r" x1="0" x2="1" y1="0" y2="0" gradientTransform="scale(95.05135 -95.05135)rotate(90 13.939 1.239)" gradientUnits="userSpaceOnUse" spreadMethod="pad"><stop offset="0" style="stop-opacity:1;stop-color:#7ec7f0"></stop><stop offset="0" style="stop-opacity:1;stop-color:#7ec7f0"></stop><stop offset="1" style="stop-opacity:1;stop-color:#93d1f2"></stop><stop offset="1" style="stop-opacity:1;stop-color:#93d1f2"></stop></linearGradient><clipPath id="a" clipPathUnits="userSpaceOnUse"><path d="M0 2000h2000V0H0Z"></path></clipPath><clipPath id="g" clipPathUnits="userSpaceOnUse"><path d="M0 2000h2000V0H0Z"></path></clipPath><clipPath id="i" clipPathUnits="userSpaceOnUse"><path d="M0 2000h2000V0H0Z"></path></clipPath><clipPath id="k" clipPathUnits="userSpaceOnUse"><path d="M0 2000h2000V0H0Z"></path></clipPath><clipPath id="m" clipPathUnits="userSpaceOnUse"><path d="M0 2000h2000V0H0Z"></path></clipPath><clipPath id="o" clipPathUnits="userSpaceOnUse"><path d="M0 2000h2000V0H0Z"></path></clipPath><clipPath id="q" clipPathUnits="userSpaceOnUse"><path d="M0 2000h2000V0H0Z"></path></clipPath><clipPath id="s" clipPathUnits="userSpaceOnUse"><path d="M0 2000h2000V0H0Z"></path></clipPath></defs><g clip-path="url(#a)" transform="matrix(1.33333 0 0 -1.33333 -585.333 2383.095)"><path d="M0 0c-3.809-2.402-7.617-4.804-11.357-7.377-27.175-18.529-164.149-108.598-396.989-205.803-.035 0-.035 0-.069-.034-.069-.035-.137-.035-.206-.069l-.206.103c-.103.034-.171.068-.274.103l-.206.103C-641.908-115.837-778.744-25.906-805.885-7.377c-3.739 2.573-7.548 4.975-11.357 7.377-123.42 77.614-131.346 216.543-131.071 254.594.103 19.044.308 38.087.308 57.095v921.413a944 944 0 0 1 41.175-6.485 868 868 0 0 1 20.107-2.436 682 682 0 0 1 19.832-1.956c56.374-4.906 108.769-4.048 156.462.481 25.22 2.402 49.101 5.799 71.575 9.916 4.975.926 9.882 1.853 14.72 2.848a785 785 0 0 1 48.38 11.254 811 811 0 0 1 43.885 13.004q3.448 1.132 6.793 2.265c4.461 1.51 8.819 3.053 13.073 4.563h.035a1116 1116 0 0 1 12.317 4.564h.035c1.681.651 3.362 1.269 5.009 1.922 3.191 1.235 6.279 2.47 9.299 3.671s5.97 2.402 8.784 3.636h.034c.721.309 1.407.584 2.127.893.687.274 1.407.583 2.094.892 2.333.995 4.632 1.99 6.828 2.951l.034.034c.206.069.377.137.549.24h.034c.172.103.343.206.549.275h.069c.343.171.686.309 1.029.48.618.24 1.201.515 1.784.79.343.137.652.308.961.445h.069c.309.138.617.275.892.412.309.137.583.274.858.412q1.389.618 2.676 1.235c2.505 1.167 4.907 2.299 7.24 3.397.755.377 1.51.721 2.264 1.098 1.064.515 2.128 1.029 3.157 1.544 1.029.514 2.059.995 3.054 1.51 4.941 2.436 9.333 4.7 13.141 6.759.789.412 1.51.789 2.23 1.201 5.01 2.711 8.922 4.907 11.598 6.519.618.378 1.201.686 1.681.995 1.03.618 1.784 1.064 2.265 1.372.377.241.583.378.583.378s.034 0 .103-.068c.069.034.103.068.103.068s.137-.068.378-.24c3.774-2.333 35.375-21.788 89.691-42.512a259 259 0 0 1 6.176-2.299 653 653 0 0 1 12.798-4.632 619 619 0 0 1 13.553-4.598h.035a786 786 0 0 1 15.749-5.01q4.067-1.235 8.235-2.47h.069c3.362-1.03 6.828-1.991 10.327-2.986h.069c3.466-.96 7.034-1.921 10.637-2.916 14.514-3.843 29.851-7.445 45.978-10.74.034-.034.034-.034.068 0a671 671 0 0 1 22.749-4.323h.069q11.631-2.007 23.778-3.808c2.711-.412 5.421-.789 8.166-1.133a1022 1022 0 0 1 25.048-3.019h.034a890 890 0 0 1 17.225-1.613c45.223-3.774 94.529-4.255 147.335.343a683 683 0 0 1 19.833 1.956 870 870 0 0 1 20.107 2.436 944 944 0 0 1 41.174 6.485V311.689c0-19.008.205-38.051.308-57.095C131.346 216.543 123.42 77.614 0 0m126.165 1253.449c-2.882-.48-5.764-.892-8.612-1.338a701 701 0 0 0-11.323-1.647 813 813 0 0 0-14.926-1.99 952 952 0 0 0-34.998-3.774c-62.757-5.696-119.509-4.975-170.084-.206-56.889 5.352-105.887 15.783-146.787 27.793a696 696 0 0 0-11.94 3.637c0 .034-.035.034-.069 0a640 640 0 0 0-29.199 9.916c-4.015 1.475-7.926 2.916-11.701 4.392a427 427 0 0 0-5.25 2.058 504 504 0 0 0-10.053 4.118c-.034-.034-.034-.034-.034 0a557 557 0 0 0-4.392 1.852c-2.848 1.236-5.627 2.437-8.338 3.672-.034-.035-.034-.035-.034 0-1.236.549-2.436 1.098-3.638 1.647-1.166.515-2.298 1.064-3.431 1.578-1.098.515-2.161.995-3.259 1.51a343 343 0 0 0-6.039 2.882c-1.819.892-3.603 1.784-5.353 2.642-1.612.823-3.225 1.612-4.735 2.402-1.441.755-2.848 1.476-4.22 2.196a329 329 0 0 0-7.309 3.946c-.995.549-1.99 1.098-2.951 1.647-2.71 1.51-5.181 2.951-7.48 4.289-9.95 5.833-16.092 10.019-18.356 11.597-.138.103-.275.172-.378.24-.103-.068-.24-.137-.377-.24-2.265-1.578-8.407-5.764-18.357-11.597-2.299-1.338-4.769-2.779-7.48-4.289a230 230 0 0 0-2.951-1.647 329 329 0 0 0-7.309-3.946c-1.372-.72-2.779-1.441-4.22-2.196-1.51-.79-3.122-1.579-4.735-2.402-1.75-.858-3.534-1.75-5.352-2.642a347 347 0 0 0-6.039-2.882c-1.098-.515-2.162-.995-3.26-1.51-1.132-.514-2.265-1.063-3.431-1.578-1.201-.549-2.402-1.098-3.637-1.647 0-.035 0-.035-.034 0-2.711-1.235-5.491-2.436-8.339-3.672a573 573 0 0 0-4.391-1.852c0-.034 0-.034-.035 0a501 501 0 0 0-10.053-4.118 427 427 0 0 0-5.25-2.058c-3.774-1.476-7.686-2.917-11.7-4.392a640 640 0 0 0-29.2-9.916h-.068a699 699 0 0 0-11.941-3.637c-40.865-12.044-89.931-22.441-146.786-27.793-50.576-4.769-107.328-5.49-170.084.206-11.461 1.029-23.127 2.298-34.999 3.774a812 812 0 0 0-14.925 1.99c-3.74.515-7.549 1.064-11.323 1.647-2.848.446-5.73.858-8.612 1.338a991 991 0 0 0-26.112 4.426v-987.84c0-.275.034-139.65 67.698-221.346 0 0 92.024-118.171 492.925-284.652.137-.069.24-.103.377-.172.138.069.24.103.378.172C-7.446-69.482 84.579 48.689 84.579 48.689c67.663 81.696 67.697 221.071 67.697 221.346v987.84a992 992 0 0 0-26.111-4.426" style="fill:#b9974c;fill-opacity:1;fill-rule:nonzero;stroke:none" transform="translate(1408.724 448.813)"></path><path d="M0 0s-189.573-130.42-400.42-209.715c-.069-.034-.138-.034-.206-.068v.068c-.103-.034-.172-.068-.275-.102-.171.068-.309.137-.48.171C-612.125-130.317-801.596 0-801.596 0c-130.076 77.991-127.468 241.35-127.468 241.35v968.763c2.916-.48 5.833-.961 8.749-1.406 2.539-.412 5.078-.755 7.583-1.133 2.539-.377 5.044-.72 7.549-1.064 5.009-.686 9.985-1.338 14.96-1.955q4.889-.618 9.676-1.133c1.715-.206 3.431-.377 5.112-.549 4.873-.514 9.745-.994 14.583-1.441 59.154-5.352 113.572-4.598 162.741 0a819 819 0 0 1 40.694 4.804c5.25.755 10.397 1.544 15.509 2.368 2.574.411 5.147.857 7.652 1.269a853 853 0 0 1 22.097 4.117h.068a813 813 0 0 1 50.713 11.873c3.5.96 6.966 1.921 10.363 2.881 3.431.961 6.793 1.956 10.122 2.917a1254 1254 0 0 1 14.479 4.495h.034c75.384 24.259 119.303 51.537 124.793 55.036.377.24.583.378.583.378s.035-.035.103-.069a.4.4 0 0 1 .103.069s.137-.069.378-.24c1.269-.824 5.73-3.637 13.244-7.824 1.064-.583 2.196-1.235 3.397-1.886 1.098-.584 2.264-1.202 3.465-1.853 1.201-.652 2.471-1.304 3.775-1.991 1.75-.926 3.602-1.887 5.558-2.848 1.441-.72 2.951-1.475 4.495-2.264 1.544-.755 3.122-1.544 4.804-2.333a341 341 0 0 1 6.896-3.26 543 543 0 0 1 11.289-5.146h.034a225 225 0 0 1 4.015-1.75c1.372-.584 2.779-1.167 4.186-1.785.618-.274 1.201-.549 1.818-.789 2.334-.995 4.701-1.956 7.137-2.951 2.437-.961 4.941-1.99 7.48-2.985.515-.206.995-.412 1.51-.584 1.578-.617 3.191-1.234 4.804-1.852.48-.206.995-.378 1.51-.584a408 408 0 0 1 8.474-3.156c2.677-.961 5.387-1.922 8.132-2.917 4.324-1.509 8.784-3.053 13.348-4.529 1.887-.618 3.774-1.235 5.696-1.852.823-.275 1.681-.55 2.539-.858a6 6 0 0 0 1.029-.309c.961-.309 1.921-.583 2.916-.892a38 38 0 0 1 1.853-.584c1.579-.48 3.191-.995 4.838-1.475 1.235-.377 2.471-.755 3.74-1.132 2.025-.584 4.083-1.167 6.142-1.785a36 36 0 0 1 2.539-.72c.446-.103.858-.24 1.27-.343.068-.035.103-.035.171-.035.344-.137.721-.24 1.098-.343h.035a270 270 0 0 1 8.406-2.264c.652-.206 1.304-.377 1.956-.549h.034c1.51-.378 3.019-.789 4.529-1.167.24-.069.481-.137.687-.206h.068c1.166-.308 2.402-.618 3.603-.926a213 213 0 0 1 4.529-1.098c1.475-.378 2.951-.755 4.426-1.098 1.27-.309 2.539-.583 3.843-.892.824-.206 1.648-.412 2.471-.583 1.063-.241 2.093-.481 3.156-.721.927-.24 1.888-.446 2.849-.618.926-.24 1.886-.446 2.847-.652l5.765-1.235h.034c2.368-.515 4.769-.995 7.205-1.476 2.437-.514 4.873-.994 7.343-1.44 2.437-.481 4.907-.961 7.377-1.407h.035c2.161-.378 4.323-.789 6.553-1.167.309-.068.652-.103.995-.171 5.044-.858 10.157-1.682 15.372-2.505a484 484 0 0 1 7.892-1.167 955 955 0 0 1 16.023-2.161c2.779-.344 5.593-.686 8.441-.996 1.921-.24 3.877-.445 5.833-.651 3.5-.378 7.068-.721 10.637-1.064 49.272-4.632 103.93-5.456 163.29-.069a961 961 0 0 1 59.498 7.275c2.916.445 5.832.926 8.749 1.406v-.034c.069 0 .137.034.206.034V241.35S130.076 77.991 0 0m138.483 302.151v921.378c-13.931-2.505-27.655-4.666-41.174-6.45a864 864 0 0 0-20.107-2.436 679 679 0 0 0-19.833-1.956c-52.806-4.598-102.112-4.118-147.335-.343a890 890 0 0 0-17.225 1.612h-.034a768 768 0 0 0-25.048 3.02c-2.745.343-5.455.72-8.166 1.132a753 753 0 0 0-23.778 3.808h-.069a673 673 0 0 0-22.748 4.324c-.035-.035-.035-.035-.069 0-16.127 3.294-31.464 6.896-45.978 10.74a676 676 0 0 0-10.637 2.916h-.068c-3.5.995-6.966 1.956-10.328 2.985h-.069q-4.169 1.236-8.235 2.471c-5.387 1.647-10.637 3.293-15.749 5.009h-.034a627 627 0 0 0-13.554 4.598 662 662 0 0 0-12.798 4.632c-2.093.755-4.151 1.51-6.176 2.299-54.419 20.656-86.123 40.145-89.897 42.512a1.5 1.5 0 0 1-.275.172c-.103-.069-.274-.172-.48-.309-.137-.068-.275-.171-.481-.308-.137-.069-.274-.172-.446-.275h-.034c-.069-.034-.103-.069-.172-.137a.9.9 0 0 1-.343-.206c-.411-.24-.857-.515-1.372-.824-3.054-1.818-8.063-4.7-14.96-8.372a75 75 0 0 0-2.368-1.235c-7.274-3.843-16.435-8.407-27.38-13.416-.652-.274-1.304-.583-1.956-.858-.275-.137-.549-.274-.858-.411a21 21 0 0 0-.892-.412c-.343-.172-.687-.309-1.03-.446-.583-.275-1.166-.55-1.784-.79-.343-.171-.686-.308-1.029-.48-.206-.069-.412-.172-.618-.274h-.034a2.6 2.6 0 0 0-.549-.24l-.034-.035a797 797 0 0 0-6.828-2.951 55 55 0 0 0-2.094-.892c-.72-.308-1.406-.583-2.127-.892h-.034c-2.814-1.235-5.765-2.436-8.784-3.637s-6.107-2.436-9.298-3.671c-1.648-.652-3.329-1.27-5.01-1.922h-.034c-3.981-1.544-8.098-3.053-12.318-4.563h-.035a522 522 0 0 0-13.072-4.564 795 795 0 0 0-6.794-2.265 811 811 0 0 0-43.885-13.004 785 785 0 0 0-48.38-11.254 589 589 0 0 0-14.72-2.848c-22.474-4.117-46.355-7.514-71.575-9.916-47.693-4.529-100.087-5.387-156.462-.48a679 679 0 0 0-19.832 1.956 863 863 0 0 0-20.107 2.436c-13.519 1.784-27.244 3.945-41.174 6.45V302.151c0-19.009-.206-38.052-.309-57.095-.275-38.052 7.651-176.981 131.071-254.595 3.809-2.401 7.618-4.803 11.358-7.377 27.14-18.528 163.976-108.46 396.577-205.597l.206-.103c.103-.034.171-.068.274-.103l.206-.103c.069.035.137.035.206.069.034.034.034.034.069.034C-167.786-125.513-30.812-35.444-3.637-16.916.103-14.342 3.911-11.94 7.72-9.539c123.42 77.614 131.346 216.543 131.072 254.595-.104 19.043-.309 38.086-.309 57.095" style="fill:#00a3e5;fill-opacity:1;fill-rule:nonzero;stroke:none" transform="translate(1401.004 458.352)"></path><path d="M0 0s-3.5-132.719-102.936-198.014c0 0-168.334-121.602-398.224-211.396-.103-.034-.172-.069-.275-.103-.034 0-.069-.034-.103-.034s-.068.034-.103.034c-.171.069-.309.137-.48.206-229.787 89.76-398.019 211.293-398.019 211.293C-999.575-132.719-1003.075 0-1003.075 0v949.514c.068 0 .137-.035.205-.035v.035c1.236-.206 2.471-.377 3.706-.549 3.637-.549 7.274-1.064 10.877-1.578a408 408 0 0 1 10.843-1.407c3.603-.446 7.171-.858 10.739-1.235s7.137-.755 10.671-1.064a834 834 0 0 1 28.616-2.162c3.054-.171 6.108-.343 9.162-.48 9.47-.446 18.837-.686 28.067-.789 2.985-.069 5.902-.069 8.852-.069 26.764 0 52.601 1.338 77.305 3.637 3.088.275 6.176.583 9.23.927a596 596 0 0 1 18.151 2.127c2.985.378 5.936.755 8.887 1.167 5.902.823 11.735 1.681 17.465 2.573a1111 1111 0 0 1 25.356 4.426c6.828 1.269 13.519 2.643 20.107 4.049a816 816 0 0 1 19.352 4.358c.24.103.48.137.721.206a243 243 0 0 1 7.239 1.75c2.505.583 5.01 1.234 7.446 1.887 2.367.583 4.735 1.2 7.068 1.818q5.559 1.442 10.911 2.985h.035c3.397.927 6.725 1.888 10.019 2.883q.514.206 1.029.308c1.613.447 3.226.892 4.804 1.407 1.715.515 3.431 1.03 5.112 1.579 1.647.48 3.26.994 4.873 1.509 3.191 1.03 6.347 2.025 9.435 3.02 2.951.926 5.868 1.921 8.75 2.882a160 160 0 0 1 4.838 1.681 665 665 0 0 1 17.465 6.211c4.632 1.715 9.092 3.397 13.347 5.078 1.304.515 2.574 1.029 3.843 1.509 1.235.481 2.436.961 3.637 1.442a159 159 0 0 1 4.289 1.784c.892.343 1.75.686 2.608 1.063 1.132.447 2.264.892 3.362 1.373h.035c.995.446 1.99.892 2.985 1.304 7.514 3.225 14.274 6.21 20.175 8.955q2.523 1.184 4.838 2.265c.309.137.652.309.961.446a688 688 0 0 0 5.524 2.676c.686.309 1.304.652 1.956.961 1.166.549 2.264 1.098 3.294 1.613 6.965 3.499 11.289 5.901 12.764 6.725.377.24.583.343.583.343s.034 0 .069-.069h.034a.4.4 0 0 1 .103.069s.137-.069.378-.24c2.642-1.51 19.18-10.637 47.041-22.646 1.853-.824 3.775-1.613 5.73-2.436 1.03-.412 2.059-.823 3.088-1.27 1.236-.514 2.471-1.03 3.74-1.544 2.539-1.064 5.147-2.093 7.823-3.156 1.339-.515 2.677-1.064 4.049-1.579 1.373-.549 2.78-1.098 4.186-1.613 1.167-.446 2.333-.892 3.534-1.338 1.201-.48 2.402-.926 3.637-1.372a850 850 0 0 1 18.529-6.623c2.024-.72 4.049-1.406 6.142-2.092 2.059-.687 4.186-1.408 6.313-2.094a233 233 0 0 1 7.377-2.367c5.01-1.578 10.122-3.157 15.372-4.735a370 370 0 0 1 7.995-2.333 395 395 0 0 1 7.514-2.128c2.676-.755 5.387-1.475 8.132-2.23 1.681-.446 3.397-.892 5.112-1.338 5.113-1.304 10.328-2.642 15.647-3.912a986 986 0 0 1 22.303-5.078c1.887-.411 3.808-.823 5.729-1.2a860 860 0 0 1 19.181-3.741c3.465-.617 6.965-1.269 10.533-1.853 2.54-.445 5.113-.857 7.721-1.269 2.47-.412 4.975-.789 7.48-1.167 2.607-.411 5.215-.789 7.823-1.167 21.719-3.087 44.468-5.489 68.109-6.896 2.814-.172 5.627-.343 8.475-.48 4.118-.206 8.269-.378 12.421-.515 1.682-.068 3.363-.137 5.044-.171 1.956-.069 3.911-.103 5.902-.138 2.47-.069 4.975-.103 7.479-.137a950 950 0 0 1 9.986-.069h.068c3.019 0 6.005 0 9.058.069 12.627.137 25.494.583 38.533 1.338a848 848 0 0 1 27.312 2.093c3.088.309 6.21.617 9.332.926 1.682.172 3.363.344 5.079.584q6.022.669 12.146 1.441c2.299.308 4.598.618 6.931.926 3.191.446 6.417.892 9.642 1.407 1.235.172 2.47.343 3.706.549zm26.934 11.803v968.763c-.068 0-.137-.034-.205-.034-2.917-.48-5.833-.927-8.75-1.372a961 961 0 0 0-59.497-7.275c-59.36-5.386-114.018-4.563-163.29.069-3.569.343-7.137.686-10.637 1.064-1.956.206-3.912.412-5.833.652-2.848.309-5.662.651-8.441.995-5.386.686-10.739 1.372-16.023 2.161a484 484 0 0 0-7.892 1.167 621 621 0 0 0-15.372 2.505c-.343.068-.686.103-.995.171-2.23.378-4.392.789-6.553 1.167h-.035c-3.74.686-7.445 1.372-11.083 2.093-3.671.72-7.274 1.441-10.842 2.23h-.034l-5.765 1.235c-.961.206-1.921.413-2.848.652-.96.172-1.921.378-2.848.618-1.064.24-2.093.48-3.156.721-.824.171-1.647.377-2.471.583-1.304.309-2.573.583-3.843.892-1.475.343-2.951.72-4.426 1.098-1.51.343-3.019.721-4.529 1.098-1.201.309-2.437.618-3.603.926h-.068c-.275.069-.515.137-.755.172-1.51.412-2.986.789-4.461 1.201h-.034c-.652.172-1.304.343-1.956.549-2.848.72-5.661 1.475-8.406 2.264h-.035c-.377.103-.754.206-1.098.343-.068 0-.103 0-.171.035-.412.103-.824.24-1.27.343-.858.206-1.681.446-2.539.721-2.059.617-4.117 1.2-6.142 1.784-1.269.377-2.505.755-3.74 1.132-.652.171-1.304.343-1.921.549-1.887.549-3.74 1.132-5.559 1.716-.72.205-1.406.445-2.127.686a6 6 0 0 1-1.029.309c-2.539.789-5.01 1.612-7.48 2.402-2.437.823-4.873 1.612-7.275 2.436a334 334 0 0 0-7.034 2.436 698 698 0 0 0-18.048 6.588c-1.544.583-3.088 1.166-4.563 1.75a769 769 0 0 0-9.47 3.774c-2.333.961-4.632 1.922-6.862 2.848-7 2.95-13.451 5.798-19.387 8.544-1.715.789-3.362 1.544-4.975 2.298-1.201.584-2.368 1.167-3.534 1.716-.892.412-1.784.858-2.642 1.27a522 522 0 0 0-9.916 4.975c-.927.446-1.819.926-2.677 1.372-6.347 3.294-11.46 6.142-15.337 8.407a.26.26 0 0 1-.137.068c-.652.378-1.235.721-1.785 1.029-.514.31-.96.584-1.406.824-.344.24-.687.412-.995.618-.309.171-.584.343-.858.515-.275.137-.515.308-.755.445a.8.8 0 0 0-.172.103q-.462.31-.823.515c-.789.48-1.373.824-1.681 1.064-.138.068-.206.137-.275.171-.103-.069-.274-.171-.48-.309-5.49-3.533-49.478-30.846-124.999-55.036h-.034a1260 1260 0 0 0-14.479-4.495c-3.329-.961-6.691-1.956-10.122-2.916a410 410 0 0 0-10.363-2.882 812 812 0 0 0-50.713-11.872h-.068a849 849 0 0 0-22.097-4.118c-2.505-.411-5.078-.858-7.652-1.269-5.078-.858-10.259-1.613-15.509-2.368a820 820 0 0 0-40.694-4.804c-49.169-4.597-103.587-5.352-162.741 0-4.838.447-9.676.927-14.583 1.442-1.681.171-3.397.343-5.112.549q-4.787.514-9.676 1.132a577 577 0 0 0-14.96 1.955c-2.505.344-5.01.687-7.549 1.064-2.505.378-5.044.721-7.583 1.133a753 753 0 0 0-8.749 1.372V11.803s-2.608-163.359 127.468-241.35c0 0 189.471-130.317 400.215-209.646.171-.034.309-.103.48-.171.103.034.172.068.275.103v-.069c.068.034.137.034.206.069 210.846 79.294 400.42 209.714 400.42 209.714C29.542-151.556 26.934 11.803 26.934 11.803" style="fill:#fff;fill-opacity:1;fill-rule:nonzero;stroke:none" transform="translate(1501.538 687.899)"></path><path d="m0 0-9.504-17.362c-42.067 23.778-91.407-.274-91.407-.274-62.345-26.832-108.632 0-108.632 0-46.561 25.15-91.029 0-91.029 0L-309.219 0c65.296 27.724 109.043-.137 109.043-.137C-157.56-23.504-109.078 0-109.078 0-45.429 27.141 0 0 0 0" style="fill:#0068b3;fill-opacity:1;fill-rule:nonzero;stroke:none" transform="translate(904.819 700.594)"></path><path d="m0 0-9.504-17.362c-42.067 23.813-91.407-.274-91.407-.274-62.345-26.798-108.632 0-108.632 0-46.561 25.15-91.029 0-91.029 0L-309.219 0c65.296 27.758 109.043-.137 109.043-.137C-157.56-23.504-109.078 0-109.078 0-45.429 27.175 0 0 0 0" style="fill:#0068b3;fill-opacity:1;fill-rule:nonzero;stroke:none" transform="translate(904.819 658.734)"></path><path d="m0 0-9.504-17.396c-42.067 23.812-91.407-.24-91.407-.24-62.345-26.832-108.632 0-108.632 0-46.561 25.15-91.029 0-91.029 0L-309.219 0c65.296 27.724 109.043-.137 109.043-.137C-157.56-23.504-109.078 0-109.078 0-45.429 27.141 0 0 0 0" style="fill:#0068b3;fill-opacity:1;fill-rule:nonzero;stroke:none" transform="translate(904.819 619)"></path><path d="m0 0-9.47-17.362c-42.067 23.778-91.408-.274-91.408-.274-62.344-26.832-108.631 0-108.631 0-46.561 25.15-91.03 0-91.03 0L-309.185 0c65.295 27.724 109.009-.137 109.009-.137 42.65-23.367 91.133.137 91.133.137C-45.395 27.141 0 0 0 0" style="fill:#0068b3;fill-opacity:1;fill-rule:nonzero;stroke:none" transform="translate(1405.362 700.594)"></path><path d="m0 0-9.47-17.362c-42.067 23.813-91.408-.274-91.408-.274-62.344-26.798-108.631 0-108.631 0-46.561 25.15-91.03 0-91.03 0L-309.185 0c65.295 27.758 109.009-.137 109.009-.137 42.65-23.367 91.133.137 91.133.137C-45.395 27.175 0 0 0 0" style="fill:#0068b3;fill-opacity:1;fill-rule:nonzero;stroke:none" transform="translate(1405.362 658.734)"></path><path d="m0 0-9.47-17.396c-42.067 23.812-91.408-.24-91.408-.24-62.344-26.832-108.631 0-108.631 0-46.561 25.15-91.03 0-91.03 0L-309.185 0c65.295 27.724 109.009-.137 109.009-.137 42.65-23.367 91.133.137 91.133.137C-45.395 27.141 0 0 0 0" style="fill:#0068b3;fill-opacity:1;fill-rule:nonzero;stroke:none" transform="translate(1405.362 619)"></path><path d="M0 0c-4.701-4.323-10.054-6.965-15.063-8.578-7.892-2.539-16.333-2.093-24.293.172-15.063 4.323-20.347-2.231-20.347-2.231-23.298-15.063-40.076.378-46.801 8.647-2.128 2.608-4.907 4.666-8.167 5.627-12.523 3.637-16.538 11.803-17.807 17.156-1.716 7.102-7.274 12.73-14.446 13.931-.995.171-1.578.206-1.578.206-50.164 6.896-50.713 16.538-50.713 16.538-20.004-17.671-34.415-19.146-43.851-16.195l-.309.103c-.034 0-.034 0-.068.034-.035 0-.035 0-.069.034a3 3 0 0 0-.514.172c-8.853 3.156-12.971 10.156-12.971 10.156-31.223-10.191-49.752-2.642-49.752-2.642 3.088-17.293-12.043-27.381-12.043-27.381 5.387-22.44-37.229-13.244-37.229-13.244 9.093-26.592-14.788-24.533-14.788-24.533-4.358-22.543-24.945-12.799-24.945-12.799-.789 19.249-15.028-.892-15.028-.892-11.049-9.71-24.328-11.529-32.288-11.597a6.3 6.3 0 0 1-1.613 1.166c-7.892 3.878-1.063 11.907-1.063 11.907 12.249 11.425-2.677 20.106-2.677 20.106-12.523-4.666-18.425-2.985-20.553-1.921a3.6 3.6 0 0 1-.892.583c-.068.035-.103.069-.103.069-9.332 4.014-8.097 16.847-8.097 16.847-3.088 14.377-13.142 6.931-13.142 6.931-3.74-4.289-13.793-5.97-13.793-5.97-6.519-.378-6.828 5.044-6.828 5.044-.034.034-.103.068-.138.137l.687 8.097-7.823 2.059a9.5 9.5 0 0 1-3.294 3.088c-24.808 13.828-1.956 26.626-1.956 26.626 0 28.685 24.739 23.573 24.739 23.573 10.877 10.499 20.965 4.083 20.965 4.083 3.842 19.558 19.557 11.735 20.484 11.254-.24.549-.481 1.098-.686 1.647 2.024 1.064 9.298 3.706 19.283-4.083 0 0 7.068.206-.446 8.097 0 0-8.784 7.378-19.867 11.118.172.446.275.652.275.652-20.793 12.386 1.647 19.832 1.647 19.832.857 9.093 6.382 13.416 10.568 15.371 2.264 1.098 4.735 1.51 7.24 1.648 14.548.789 19.077 9.71 19.077 9.71 3.191 12.798 23.984 9.298 23.984 9.298 13.279-3.74 20.107.618 23.401 4.735 1.784 2.196 2.745 4.941 3.259 7.721 3.809 21.067 20.21 18.322 20.21 18.322 26.18 26.146 57.404 17.328 57.404 17.328 21.376 11.082 38.704 7.342 47.865 3.637.309-.138.618-.24.927-.378.171-.103.377-.171.548-.24l.035-.034c0-.034.034-.034.034-.034.103-.069.24-.103.343-.172 2.917-1.475 5.524-3.569 7.892-5.867 7.309-6.966 14.274-4.427 14.274-4.427 24.842 3.191 26.008-22.337 26.008-22.337 7.446 7.206 19.043-1.818 19.043-1.818 14.48 15.234 34.381 0 34.381 0 2.333-2.642 5.524-4.426 8.441-5.593 3.328-1.373 6.896-2.025 10.499-2.299 28.513-2.093 44.983-10.843 44.983-10.843 52.772-26.18 33.523-39.527 33.523-39.527 23.332-6.691 14.239-15.234 14.239-15.234 26.695-2.196 24.705-18.529 22.475-25.7-.481-1.681.24-3.466 1.818-4.22 1.51-.755 3.02-1.888 4.22-2.951 1.819-1.579 3.843-2.848 6.005-3.912 14.136-6.794 5.73-17.705 5.73-17.705C36.748 23.435 0 0 0 0" style="fill:#3aaa35;fill-opacity:1;fill-rule:nonzero;stroke:none" transform="translate(1243.443 855.444)"></path><path d="M0 0c-9.985 7.789-17.259 5.147-19.283 4.083-3.191 7.892-1.716 13.347-1.03 15.132C-9.23 15.475-.446 8.098-.446 8.098 7.068.206 0 0 0 0" style="fill:#076633;fill-opacity:1;fill-rule:nonzero;stroke:none" transform="translate(803.873 939.37)"></path><path d="m0 0-.686-8.098C-3.809-5.627-5.696-2.23-6.759.24a8.2 8.2 0 0 1-1.064 1.819z" style="fill:#076633;fill-opacity:1;fill-rule:nonzero;stroke:none" transform="translate(732.161 871.124)"></path><path d="M0 0a5.6 5.6 0 0 1-3.74.275c-18.288-4.77-23.984 4.563-25.768 10.533-.893 2.985-2.814 5.525-5.525 7 0 0 10.054 1.681 13.794 5.97 0 0 10.053 7.446 13.141-6.931 0 0-1.235-12.832 8.098-16.847" style="fill:#076633;fill-opacity:1;fill-rule:nonzero;stroke:none" transform="translate(773.473 840.038)"></path><path d="M0 0c-15.234 1.647-20.21 11.803-21.651 16.024a4.74 4.74 0 0 1-1.578 2.161c2.127-1.063 8.029-2.745 20.553 1.922 0 0 14.925-8.681 2.676-20.107" style="fill:#076633;fill-opacity:1;fill-rule:nonzero;stroke:none" transform="translate(797.697 821.2)"></path></g><path d="M911.51 836.915c-.721-3.5-2.265-6.519-3.74-8.749l8.063 1.921 23.366-13.862.927 5.49-11.22 17.808c-8.544-3.465-17.396-2.608-17.396-2.608" style="fill:url(#b);stroke:none" transform="matrix(1.33333 0 0 -1.33333 -585.333 2383.095)"></path><path d="M943.934 858.395c-.24-1.407-.549-2.745-.96-3.981l11.117-7.376s4.288-1.03 1.372 6.141c0 0-3.122 3.912-4.598 13.553-3.122-6.622-6.931-8.337-6.931-8.337" style="fill:url(#c);stroke:none" transform="matrix(1.33333 0 0 -1.33333 -585.333 2383.095)"></path><path d="M961.673 873.389c.447-4.323 2.094-10.945 8.682-9.264 0 0 9.538 6.759 16.743 9.641-2.367 1.442-3.637 2.574-3.637 2.574-7.307-1.922-15.679-2.677-21.788-2.951" style="fill:url(#d);stroke:none" transform="matrix(1.33333 0 0 -1.33333 -585.333 2383.095)"></path><path d="M1027.038 871.914c8.372-3.878 28.205-13.76 40.626-24.808l-7.103 24.842h-.034c-12.97 3.362-21.446 7.48-21.446 7.48-4.151-3.26-8.166-5.73-12.043-7.514" style="fill:url(#e);stroke:none" transform="matrix(1.33333 0 0 -1.33333 -585.333 2383.095)"></path><path d="m1080.462 837.533 14.308 12.25c-10.329 9.229-9.231 18.013-9.231 18.013-7.616.515-14.719 1.716-20.998 3.157 3.808-8.132 15.921-33.42 15.921-33.42" style="fill:url(#f);stroke:none" transform="matrix(1.33333 0 0 -1.33333 -585.333 2383.095)"></path><g clip-path="url(#g)" transform="matrix(1.33333 0 0 -1.33333 -585.333 2383.095)"><path d="M0 0v-79.501h-22.68v69.585C-11.529-10.191-12.627 0-12.627 0Z" style="fill:#fff;fill-opacity:1;fill-rule:nonzero;stroke:none" transform="translate(900.701 427.54)"></path><path d="M0 0v-7.034c-.172-4.186-3.637-7.549-7.892-7.549-4.254 0-7.686 3.363-7.857 7.549V0c0 4.358 3.5 7.892 7.857 7.892 2.162 0 4.152-.892 5.593-2.299C-.892 4.152 0 2.162 0 0" style="fill:#ddd2c0;fill-opacity:1;fill-rule:nonzero;stroke:none" transform="translate(957.179 404.276)"></path><path d="M0 0c4.255 0 7.72-3.363 7.892-7.583v-6.565c0-3.762-2.434-7.278-6.1-8.121-2.832-.652-5.552.304-7.385 2.094-1.407 1.441-2.299 3.396-2.299 5.592v7C-7.72-3.363-4.255 0 0 0m29.68 17.602v4.22c0 2.574-.446 5.044-1.304 7.343-2.985 8.406-11.014 14.411-20.45 14.411H-4.392c-7.514 0-14.24-3.363-18.769-8.646-.103-.104-.206-.206-.274-.309-.069-.069-.103-.103-.103-.138-.069-.034-.069-.068-.103-.103-.171-.205-.343-.411-.48-.652a24.48 24.48 0 0 1-5.01-14.891v-34.552c0-5.456 1.853-10.499 5.01-14.48.137-.206.309-.411.48-.617.034-.034.034-.069.103-.103q0-.051.103-.103c.034-.103.137-.206.274-.309 4.255-4.838 10.534-7.892 17.534-7.892H5.867c13.151 0 23.813 10.662 23.813 23.813v9.539c0 10.195-8.265 18.459-18.46 18.459H-7.617v8.784a4.577 4.577 0 0 0 4.563 4.564h6.622c2.539 0 4.598-2.059 4.598-4.564v-3.774z" style="fill:#fff;fill-opacity:1;fill-rule:nonzero;stroke:none" transform="translate(1023.538 385.336)"></path><path d="M0 0v-7a7.893 7.893 0 0 0-7.892-7.891c-2.161 0-4.152.892-5.593 2.299-1.406 1.441-2.299 3.396-2.299 5.592v7c.172 4.22 3.637 7.583 7.892 7.583S-.172 4.22 0 0" style="fill:#ddd2c0;fill-opacity:1;fill-rule:nonzero;stroke:none" transform="translate(1031.43 377.753)"></path></g><path d="M1000.069 1718.938c-.103-.069-.24-.137-.446-.275-3.432-1.921-21.926-12.077-52.703-24.944h-.035a97 97 0 0 0-3.362-1.373 60 60 0 0 0-2.608-1.063c-1.407-.619-2.848-1.202-4.289-1.785-1.201-.481-2.402-.96-3.637-1.441-1.269-.48-2.539-.994-3.843-1.509a664 664 0 0 0-13.347-5.079 665 665 0 0 0-17.465-6.211 166 166 0 0 0-4.838-1.681c-2.882-.96-5.799-1.955-8.749-2.882-3.089-1.028-6.245-2.058-9.437-3.019a198 198 0 0 0-4.871-1.51c-1.683-.549-3.398-1.063-5.113-1.578-1.579-.515-3.192-.961-4.804-1.407a6 6 0 0 1-1.029-.309 386 386 0 0 0-10.019-2.882h-.035a418 418 0 0 0-10.911-2.986 437 437 0 0 0-7.068-1.818 235 235 0 0 0-7.446-1.887 251 251 0 0 0-7.24-1.75c-.24-.068-.48-.103-.72-.206a815 815 0 0 0-19.352-4.357c-6.587-1.407-13.279-2.78-20.107-4.049a1105 1105 0 0 0-25.356-4.427 668 668 0 0 0-17.465-2.573c-2.951-.411-5.902-.823-8.887-1.167a600 600 0 0 0-18.151-2.127 404 404 0 0 0-9.23-.926c-24.705-2.299-50.541-3.637-77.304-3.637-2.951 0-5.868 0-8.853.069-9.23.102-18.597.342-28.067.789-3.054.137-6.108.274-9.161.48a694 694 0 0 0-28.617 2.161c-3.534.31-7.102.687-10.671 1.064-3.568.378-7.137.789-10.74 1.236-3.602.411-7.205.891-10.842 1.407-4.22.549-8.475 1.166-12.73 1.818-.617.103-1.235.172-1.853.274-.068 0-.136.034-.206.034V687.899s3.5-132.719 102.936-198.015c0 0 168.232-121.532 398.019-211.293.172-.068.308-.136.48-.206.035 0 .069-.034.103-.034s.069.034.103.034c.103.035.171.07.275.104 229.89 89.794 398.224 211.395 398.224 211.395 99.436 65.296 102.935 198.015 102.935 198.015v949.479a94 94 0 0 0-3.053-.445c-.24-.035-.446-.069-.652-.069-3.225-.515-6.451-.961-9.642-1.407-2.333-.309-4.632-.618-6.931-.926a826 826 0 0 0-12.146-1.441c-1.716-.241-3.397-.413-5.079-.584-3.122-.309-6.244-.617-9.333-.927a851 851 0 0 0-27.312-2.092 820 820 0 0 0-38.532-1.338c-3.053-.069-6.039-.069-9.058-.069h-.068c-3.329 0-6.657.034-9.986.069-2.505.034-5.009.068-7.48.136-1.99.035-3.945.07-5.901.138-1.681.034-3.363.104-5.044.172a688.645 688.645 0 0 0-20.896.994c-23.64 1.407-46.39 3.809-68.109 6.897-2.607.378-5.216.755-7.823 1.167-2.505.342-5.009.755-7.481 1.167-2.607.411-5.18.823-7.72 1.269-3.568.583-7.068 1.236-10.533 1.853a866 866 0 0 0-19.18 3.74c-1.922.377-3.844.79-5.731 1.201a982 982 0 0 0-22.302 5.078 740 740 0 0 0-15.646 3.912c-1.717.446-3.432.892-5.113 1.337-2.745.756-5.456 1.477-8.133 2.231a399 399 0 0 0-7.514 2.127 370 370 0 0 0-7.994 2.334 547 547 0 0 0-15.372 4.735c-2.505.754-4.94 1.543-7.377 2.367-2.127.686-4.254 1.407-6.313 2.093a258 258 0 0 0-6.142 2.093 850 850 0 0 0-18.529 6.622c-1.235.446-2.436.893-3.637 1.372-1.201.447-2.367.893-3.533 1.339a150 150 0 0 0-4.187 1.613c-1.372.514-2.71 1.063-4.048 1.578-2.677 1.064-5.284 2.093-7.824 3.156-.824.309-1.647.652-2.471.996-.445.171-.857.343-1.303.515l-.034.034c-1.03.412-2.025.823-3.02 1.27-1.955.823-3.877 1.612-5.73 2.435a573 573 0 0 0-18.151 8.064c-1.132.515-2.264 1.029-3.328 1.544-1.064.514-2.094.995-3.122 1.475-1.751.823-3.432 1.647-4.975 2.402a810 810 0 0 0-7.755 3.877q-1.596.824-2.985 1.544c-2.779 1.476-4.804 2.574-6.005 3.225a9 9 0 0 0-.926.515 1.5 1.5 0 0 1-.275.172zm325.311-398.328v215.514c0 36.405 29.509 65.913 65.913 65.913h12.695c36.44 0 65.949-29.508 65.949-65.913V1320.61c0-36.405-29.509-65.913-65.949-65.913h-12.695c-36.404 0-65.913 29.508-65.913 65.913m-167.58 276.178h137.111v-31.98h-46.424v-305.307h-44.263v305.307H1157.8Zm-148.604 0h118.719v-31.98h-74.491v-114.772h54.316v-31.945h-54.316V1291.48h74.491v-31.979h-118.719zm-93.295 0h44.229v-337.287h-35.375l-8.854 24.224-67.457 184.324v-208.548h-44.227v337.287h44.227l67.457-184.324zm-205.013 0h44.263v-337.287h-44.263zm-179.143 0h80.599c31.944 0 57.816-25.871 57.816-57.816v-77.545c0-31.91-25.872-57.816-57.816-57.816h-36.337v-144.11h-44.262zm886.14-475.907v78.849c0 13.278 10.774 24.086 24.087 24.086h1.304c13.313 0 24.087-10.808 24.087-24.086v-78.849c0-13.313-10.774-24.087-24.087-24.087h-1.304c-13.313 0-24.087 10.774-24.087 24.087m-99.607 0v78.849c0 13.278 10.774 24.086 24.086 24.086h1.339c13.278 0 24.086-10.808 24.086-24.086v-13.382h-15.234v12.49c0 4.597-3.739 8.337-8.337 8.337h-2.403c-4.598 0-8.303-3.74-8.303-8.337v-78.403a8.287 8.287 0 0 1 8.303-8.303h2.403c4.598 0 8.337 3.705 8.337 8.303v13.347h15.234v-12.901c0-13.313-10.808-24.087-24.086-24.087h-1.339c-13.312 0-24.086 10.774-24.086 24.087m-184.187 0v78.849c0 13.278 10.774 24.086 24.087 24.086h1.304c13.313 0 24.121-10.808 24.121-24.086v-13.382h-15.235v12.49c0 4.597-3.739 8.337-8.336 8.337h-2.402c-4.599 0-8.305-3.74-8.305-8.337v-78.403a8.29 8.29 0 0 1 8.305-8.303h2.402c4.597 0 8.336 3.705 8.336 8.303v13.347h15.235v-12.901c0-13.313-10.808-24.087-24.121-24.087h-1.304c-13.313 0-24.087 10.774-24.087 24.087m249.619 100.739h16.196v-122.871h-16.196zm-121.121 0h16.23v-107.739h25.185v-15.131h-41.415zm-48.379 0h16.641l18.151-122.87h-16.024l-3.157 24.327h-16.881l-3.431-24.327h-15.029Zm-215.719-154.781c.308-.136.617-.239.926-.377.172-.102.377-.172.549-.24l.034-.034c0-.035.034-.035.034-.035.104-.068.24-.103.344-.171 2.916-1.476 5.524-3.569 7.891-5.867 7.309-6.966 14.274-4.427 14.274-4.427 24.842 3.191 26.008-22.337 26.008-22.337 7.446 7.206 19.043-1.819 19.043-1.819 14.48 15.235 34.381 0 34.381 0 2.334-2.641 5.525-4.426 8.44-5.592 3.33-1.373 6.897-2.024 10.5-2.299 28.514-2.093 44.984-10.842 44.984-10.842 52.771-26.18 33.522-39.528 33.522-39.528 23.332-6.691 14.24-15.235 14.24-15.235 26.694-2.195 24.704-18.528 22.474-25.699-.481-1.681.24-3.466 1.819-4.22 1.509-.755 3.019-1.887 4.22-2.951 1.819-1.579 3.843-2.848 6.004-3.912 14.137-6.794 5.73-17.705 5.73-17.705 26.284-24.67-10.464-48.105-10.464-48.105-17.877-22.886-38.19-27.827-49.239-28.651-3.945-.309-7.856.515-11.563 1.853-.445.172-.892.309-1.372.446-4.152 1.167-8.544.206-12.181-2.093-31.395-19.832-56.752 12.661-56.752 12.661-3.637.79-9.675 4.461-9.675 4.461-11.941-10.328-20.142-20.313-25.769-29.062-4.323-6.692-7.103-12.661-8.886-17.5-1.717-4.597-2.539-8.2-2.952-10.499a5.94 5.94 0 0 1 1.133-4.701l1.544-1.955a6.335 6.335 0 0 0 0-7.755l-21.583-27.655c-21.033-21.48-22.782-66.462-22.782-66.462-2.334-35.273-.961-47.454.102-51.64.583-2.368.859-4.77.893-7.205l.617-95.388c.858-51.468 17.088-72.639 17.088-72.639h-76.516c16.538 9.333 18.529 44.606 18.768 52.841a60 60 0 0 1 .035 1.716l-.789 58.81-1.579 68.522c-.171 8.063-1.612 16.058-4.22 23.709l-5.456 15.99a58 58 0 0 0-3.053 16.229c-.583 13.485-2.333 20.21-2.333 20.21-5.147 19.248-5.147 37.983-5.147 37.983-.034 1.235-.034 2.47-.104 3.637v.035c-.926 28.067-7.891 37.056-7.891 37.056-3.191 5.662-7.446 10.842-12.009 15.406-.652.721-1.373 1.407-2.093 2.094-7.275 6.965-14.857 12.283-19.592 15.337a18.03 18.03 0 0 1-9.814 2.882h-5.661c-2.504-3.74-10.843-6.245-10.843-6.245-11.803-22.439-39.527-11.94-39.527-11.94-38.292-23.333-49.958-5.73-52.737.549a5.5 5.5 0 0 1-1.132 1.647 6.3 6.3 0 0 1-1.613 1.166c-7.892 3.878-1.064 11.907-1.064 11.907-15.234 1.646-20.21 11.803-21.65 16.023a4.74 4.74 0 0 1-1.579 2.162c-.481.274-.755.481-.892.583-.069.034-.103.068-.103.068a5.6 5.6 0 0 1-3.74.275c-18.289-4.769-23.984 4.564-25.769 10.534-.892 2.985-2.813 5.524-5.524 7-6.52-.378-6.828 5.043-6.828 5.043-.034.035-.103.069-.137.138-3.122 2.471-5.009 5.867-6.073 8.338a8.2 8.2 0 0 1-1.064 1.818 9.5 9.5 0 0 1-3.294 3.088c-24.808 13.828-1.956 26.626-1.956 26.626 0 28.685 24.74 23.572 24.74 23.572 10.876 10.499 20.964 4.083 20.964 4.083 3.843 19.558 19.558 11.735 20.484 11.255-.24.549-.481 1.098-.686 1.647-3.191 7.892-1.716 13.347-1.029 15.132.171.445.274.651.274.651-20.793 12.387 1.647 19.833 1.647 19.833.858 9.092 6.382 13.416 10.568 15.371 2.264 1.098 4.735 1.51 7.24 1.648 14.548.789 19.078 9.71 19.078 9.71 3.19 12.798 23.983 9.298 23.983 9.298 13.279-3.74 20.107.618 23.401 4.735 1.785 2.196 2.745 4.941 3.26 7.72 3.808 21.068 20.209 18.323 20.209 18.323 26.18 26.146 57.404 17.327 57.404 17.327 21.377 11.083 38.704 7.343 47.866 3.637m97.686-366.245c65.295 27.724 109.008-.138 109.008-.138 42.651-23.365 91.133.138 91.133.138 63.649 27.141 109.044 0 109.044 0l-9.471-17.362c-42.066 23.778-91.407-.274-91.407-.274-62.344-26.832-108.632 0-108.632 0-46.561 25.15-91.029 0-91.029 0zm-500.578 0c65.296 27.724 109.044-.138 109.044-.138 42.615-23.365 91.098.138 91.098.138 63.649 27.141 109.078 0 109.078 0l-9.504-17.362c-42.067 23.778-91.407-.274-91.407-.274-62.346-26.832-108.632 0-108.632 0-46.561 25.15-91.03 0-91.03 0zm500.578-41.861c65.295 27.759 109.008-.136 109.008-.136 42.651-23.367 91.133.136 91.133.136 63.649 27.176 109.044 0 109.044 0l-9.471-17.362c-42.066 23.814-91.407-.274-91.407-.274-62.344-26.798-108.632 0-108.632 0-46.561 25.15-91.029 0-91.029 0zm-500.578 0c65.296 27.759 109.044-.136 109.044-.136 42.615-23.367 91.098.136 91.098.136 63.649 27.176 109.078 0 109.078 0l-9.504-17.362c-42.067 23.814-91.407-.274-91.407-.274-62.346-26.798-108.632 0-108.632 0-46.561 25.15-91.03 0-91.03 0zM1096.177 619c65.295 27.725 109.008-.137 109.008-.137 42.651-23.366 91.133.137 91.133.137 63.649 27.141 109.044 0 109.044 0l-9.471-17.396c-42.066 23.812-91.407-.24-91.407-.24-62.344-26.832-108.632 0-108.632 0-46.561 25.15-91.029 0-91.029 0zm-500.578 0c65.296 27.725 109.044-.137 109.044-.137 42.615-23.366 91.098.137 91.098.137 63.649 27.141 109.078 0 109.078 0l-9.504-17.396c-42.067 23.812-91.407-.24-91.407-.24-62.346-26.832-108.632 0-108.632 0-46.561 25.15-91.03 0-91.03 0zm471.412-214.518c0 14.033 11.391 25.426 25.425 25.426h7.309c4.735 0 9.127-1.441 12.764-3.878a24 24 0 0 0 3.362-2.814 22.7 22.7 0 0 0 6.657-16.092 27.13 27.13 0 0 0-6.897-18.083c-.068-.033-.103-.102-.137-.137-.687-.755-1.407-1.544-2.196-2.298a53 53 0 0 0-2.436-2.368c-.034-.034-.069-.034-.069-.069a42 42 0 0 0-2.642-2.264 47 47 0 0 0-2.916-2.265s-10.397-6.828-13.897-13.279h31.19v-18.15s-56.368.167-57.324.005c.061.147.09 2.191.058 4.386-.035 7.206 1.749 14.412 5.729 20.451 1.579 2.401 3.569 4.769 6.108 6.827l19.627 16.127s.857.721 1.853 1.922c.994 1.166 2.058 2.779 2.607 4.666.515 1.922.206 3.74-.687 5.25a6.8 6.8 0 0 1-1.303 1.647c-.172.171-.378.309-.549.48a9 9 0 0 1-.583.412c-1.647 1.098-3.741 1.544-5.765.994a4 4 0 0 1-.686-.239 5.8 5.8 0 0 1-1.133-.549c-1.509-.927-2.779-2.608-3.328-5.594v-7.067h-20.141zm-66.633-50.472c-.138.102-.24.205-.275.308q-.103.052-.103.103c-.068.034-.068.068-.103.102a8 8 0 0 0-.48.619c-3.157 3.98-5.01 9.023-5.01 14.479v34.552c0 5.593 1.853 10.74 5.01 14.891.137.241.308.447.48.653.035.034.035.068.103.102 0 .035.034.069.103.138.069.103.171.205.275.309 4.529 5.284 11.253 8.646 18.768 8.646h12.318c9.436 0 17.465-6.005 20.45-14.411a21 21 0 0 0 1.304-7.343v-4.22h-21.514v3.775c0 2.504-2.058 4.563-4.598 4.563h-6.621c-2.506 0-4.564-2.059-4.564-4.563v-8.784h18.837c10.191 0 18.46-8.27 18.46-18.46v-9.539c0-13.141-10.671-23.813-23.812-23.813h-11.495c-7 0-13.279 3.054-17.533 7.893m-80.771 41.551v9.539c0 13.141 10.671 23.812 23.847 23.812h11.495c12.97 0 23.469-10.533 23.469-23.503v-34.552c0-13.657-11.083-24.74-24.739-24.74h-12.318c-9.435 0-17.465 6.005-20.45 14.411a20.9 20.9 0 0 0-1.304 7.343v4.186h21.548v-3.74a4.56 4.56 0 0 1 4.563-4.563h6.623a4.56 4.56 0 0 1 4.563 4.563v8.784h-18.837c-10.19 0-18.46 8.269-18.46 18.46m-31.532 31.979h12.626v-79.501h-22.68v69.584q.223-.005.438-.005c10.687-.001 9.616 9.922 9.616 9.922" style="fill:url(#h);stroke:none" transform="matrix(1.33333 0 0 -1.33333 -585.333 2383.095)"></path><g clip-path="url(#i)" transform="matrix(1.33333 0 0 -1.33333 -585.333 2383.095)"><path d="M0 0c-2.539-6.039-3.26-12.73-2.608-19.284l.584-5.901 2.676-27.69-17.877 19.661v.034c-.377 3.054-.995 6.245-1.99 9.23v.034c-1.063 3.089-2.505 6.005-4.495 8.338L-33.077-5.49c.927 1.51 1.681 3.191 2.265 5.112l11.117-7.377s4.289-1.029 1.372 6.142c0 0-3.122 3.912-4.598 13.553.824 1.785 1.613 3.912 2.265 6.451 0 0 3.5-.069 8.544.206.446-4.323 2.093-10.946 8.681-9.264 0 0 9.538 6.759 16.744 9.641a24 24 0 0 1 2.367-1.338C11.975 15.646 4.426 10.465 0 0" style="fill:#7e4f25;fill-opacity:1;fill-rule:nonzero;stroke:none" transform="translate(973.786 854.792)"></path></g><path d="m931.72 840.827 12.661-19.763v-7.756s1.749-.891 3.98-2.092c1.989-1.064 4.357-2.368 6.107-3.5 1.03-.652 1.853-1.27 2.3-1.716 0 0 .823 7.308-.207 15.578v.034c-.377 3.054-.995 6.245-1.99 9.23v.034c-1.063 3.088-2.504 6.005-4.495 8.338l-9.367 10.088c-2.299-3.911-5.524-6.588-8.989-8.475" style="fill:url(#j);stroke:none" transform="matrix(1.33333 0 0 -1.33333 -585.333 2383.095)" data-source="https://football-logos.cc"></path><g clip-path="url(#k)" transform="matrix(1.33333 0 0 -1.33333 -585.333 2383.095)"><path d="m0 0-12.695-3.912c-.652.721-1.373 1.407-2.093 2.094-7.275 6.965-14.858 12.283-19.593 15.337a18.02 18.02 0 0 1-9.813 2.882h-5.661s1.509 1.51 3.156 4.049l8.064 1.921 23.366-13.862.926 5.49-11.219 17.808c.96.378 1.887.824 2.813 1.304l12.661-19.764V5.593s1.75-.892 3.98-2.093C-4.117 2.436-1.75 1.132 0 0" style="fill:#7e4f25;fill-opacity:1;fill-rule:nonzero;stroke:none" transform="translate(954.468 807.716)"></path></g><path d="M973.786 854.792c-2.539-6.039-3.26-12.73-2.608-19.283l.583-5.902 2.677-27.69v-.034l.514-5.216 5.764-53.869c.756-6.966 2.334-13.793 4.771-20.381 3.773-10.225 9.367-26.661 10.808-37.812 0 0 1.2-5.524 3.122-10.878.172-.445.343-.926.515-1.372.034-.069.034-.137.068-.205.034-.069.034-.104.069-.172.103-.275.205-.515.309-.79V696.1c3.877 10.602 9.881 26.145 14.856 35.684 0 0 12.867 22.92 28.514 40.385q.515.567.926 1.132l.034.034c2.334 2.985 4.049 6.383 4.873 10.088.994 4.289 2.505 10.327 4.769 16.744a112 112 0 0 0 4.46 11.186c2.266 4.838 4.907 9.47 8.03 13.382 1.922 2.436 3.02 5.421 3.02 8.544a6.63 6.63 0 0 1-1.888 4.631c-5.936 5.936-24.945 23.881-45.532 32.151-8.441-2.952-15.955-2.882-22.062-1.613l-.309.103H1000c-.034 0-.034 0-.068.035l-.515.102a40.6 40.6 0 0 0-9.951 3.74c-3.705-1.989-11.254-7.171-15.68-17.636" style="fill:url(#l);stroke:none" transform="matrix(1.33333 0 0 -1.33333 -585.333 2383.095)"></path><g clip-path="url(#m)" transform="matrix(1.33333 0 0 -1.33333 -585.333 2383.095)"><path d="M0 0c-11.941-10.328-20.141-20.313-25.768-29.062-4.324-6.691-7.103-12.661-8.887-17.499l-13.656 2.607a111 111 0 0 0 4.46 11.186c2.265 4.838 4.907 9.47 8.029 13.382 1.922 2.436 3.02 5.421 3.02 8.544A6.63 6.63 0 0 1-34.69-6.21c-5.936 5.936-24.944 23.881-45.531 32.15a46 46 0 0 1 4.597 1.853c8.372-3.877 28.205-13.759 40.626-24.808l-7.103 24.842c1.27-.343 2.608-.652 3.98-.995C-34.312 18.7-22.2-6.588-22.2-6.588l14.308 12.25C-5.799 3.774-3.192 1.853 0 0" style="fill:#7e4f25;fill-opacity:1;fill-rule:nonzero;stroke:none" transform="translate(1102.662 844.12)"></path><path d="M0 0c-26.729-50.816-24.018-78.609-24.018-78.609-1.956.789-3.706 3.843-5.181 7.377v24.911c3.877 10.602 9.881 26.146 14.857 35.684 0 0 12.867 22.921 28.513 40.385q.515.566.926 1.133C9.573 17.293 0 0 0 0" style="fill:#7e4f25;fill-opacity:1;fill-rule:nonzero;stroke:none" transform="translate(1029.577 742.42)"></path><path d="M0 0v-45.155c-1.853-7.034-4.495-10.876-7.137-12.935h-26.729c16.538 9.333 18.529 44.605 18.769 52.84.034 1.098.034 1.716.034 1.716l-.789 58.81-1.579 68.521c-.171 8.064-1.612 16.058-4.22 23.71l-5.456 15.989a58 58 0 0 0-3.053 16.23c-.584 13.484-2.333 20.21-2.333 20.21-5.147 19.248-5.147 37.983-5.147 37.983-.034 1.235-.034 2.47-.103 3.637l14.96-51.159 18.7-55.037z" style="fill:#7e4f25;fill-opacity:1;fill-rule:nonzero;stroke:none" transform="translate(999.417 509.751)"></path><path d="m0 0-21.582-27.655c-21.033-21.48-22.783-66.463-22.783-66.463-2.333-35.272-.961-47.453.103-51.639.583-2.368.858-4.769.892-7.206l.617-95.387c.858-51.468 17.088-72.638 17.088-72.638h-49.787c2.642 2.059 5.284 5.901 7.137 12.935v45.155l-4.083 135.36-18.7 55.037-14.96 51.159v.034c-.927 28.067-7.892 37.057-7.892 37.057-3.191 5.662-7.445 10.843-12.009 15.406l12.696 3.912c1.029-.652 1.852-1.27 2.298-1.716 0 0 .824 7.309-.206 15.578l17.877-19.661v-.034l.515-5.216 5.764-53.869c.755-6.966 2.333-13.794 4.769-20.382 3.775-10.225 9.368-26.66 10.809-37.812 0 0 1.201-5.524 3.122-10.876.172-.446.343-.927.515-1.373.034-.068.034-.137.068-.206.035-.068.035-.103.069-.171.103-.275.206-.515.309-.789 1.475-3.535 3.225-6.588 5.181-7.378 0 0-2.711 27.793 24.018 78.609 0 0 9.573 17.293 15.098 30.881l.034.034c2.333 2.985 4.049 6.382 4.872 10.088.995 4.289 2.505 10.328 4.77 16.744L.275 24.91c-1.716-4.597-2.54-8.2-2.951-10.499A5.93 5.93 0 0 1-1.544 9.71L0 7.754A6.334 6.334 0 0 0 0 0" style="fill:#b07e4a;fill-opacity:1;fill-rule:nonzero;stroke:none" transform="translate(1067.732 772.65)"></path><path d="M0 0c-17.877-22.886-38.189-27.827-49.238-28.651-3.946-.308-7.857.515-11.563 1.853-.446.172-.892.309-1.372.446-4.152 1.167-8.544.206-12.181-2.093-31.395-19.832-56.752 12.661-56.752 12.661-3.637.789-9.676 4.461-9.676 4.461-3.191 1.853-5.799 3.774-7.891 5.661-10.328 9.23-9.231 18.014-9.231 18.014-7.617.515-14.719 1.716-20.998 3.157-1.373.343-2.711.652-3.981.995h-.034c-12.97 3.363-21.445 7.48-21.445 7.48-4.152-3.26-8.166-5.73-12.043-7.514a46 46 0 0 0-4.598-1.853c-8.441-2.951-15.955-2.882-22.063-1.613l-.309.103h-.068c-.035 0-.035 0-.069.034l-.514.103a40.7 40.7 0 0 0-9.951 3.74q-1.338.669-2.368 1.338c-2.367 1.441-3.637 2.574-3.637 2.574-7.308-1.922-15.68-2.676-21.788-2.951-5.043-.274-8.543-.206-8.543-.206-.652-2.539-1.441-4.666-2.265-6.45-3.122-6.623-6.931-8.338-6.931-8.338-.24-1.407-.549-2.745-.961-3.981-.583-1.921-1.338-3.602-2.264-5.112-2.299-3.912-5.524-6.588-8.99-8.475a30 30 0 0 0-2.813-1.304c-8.544-3.465-17.397-2.608-17.397-2.608-.72-3.499-2.264-6.519-3.74-8.749-1.647-2.539-3.156-4.049-3.156-4.049-2.505-3.74-10.843-6.245-10.843-6.245-11.803-22.44-39.527-11.94-39.527-11.94-38.292-23.332-49.958-5.73-52.738.549a5.4 5.4 0 0 1-1.132 1.647c7.96.068 21.239 1.887 32.288 11.597 0 0 14.239 20.141 15.028.892 0 0 20.587-9.744 24.945 12.799 0 0 23.881-2.059 14.788 24.533 0 0 42.616-9.196 37.229 13.244 0 0 15.131 10.088 12.043 27.381 0 0 18.529-7.549 49.752 2.642 0 0 4.118-7 12.971-10.156.171-.069.343-.138.514-.172.034-.034.034-.034.069-.034.034-.034.034-.034.068-.034l.309-.103c9.436-2.951 23.847-1.476 43.851 16.195 0 0 .549-9.642 50.713-16.538 0 0 .583-.035 1.578-.206 7.172-1.201 12.73-6.829 14.446-13.931 1.269-5.353 5.284-13.519 17.807-17.156 3.26-.961 6.039-3.019 8.167-5.627 6.725-8.269 23.503-23.71 46.801-8.647 0 0 5.284 6.554 20.347 2.231 7.96-2.265 16.401-2.711 24.293-.172C-10.054-6.965-4.701-4.323 0 0" style="fill:#076633;fill-opacity:1;fill-rule:nonzero;stroke:none" transform="translate(1243.443 855.444)"></path><path d="M0 0h31.189v-18.151s-57.506.172-57.335 0c.069-.103.103 2.059.069 4.392-.034 7.206 1.75 14.411 5.73 20.45 1.578 2.402 3.568 4.769 6.107 6.828L5.387 29.646s.858.72 1.853 1.921c.995 1.167 2.058 2.779 2.607 4.666.55 1.922.206 3.74-.686 5.25a6.7 6.7 0 0 1-1.303 1.647 3.7 3.7 0 0 1-.55.481 8 8 0 0 1-.583.411c-1.681 1.098-3.74 1.544-5.764.995a5 5 0 0 1-.687-.24 5.7 5.7 0 0 1-1.132-.549c-1.51-.926-2.779-2.608-3.328-5.593v-7.068h-20.141v6.554c0 14.033 11.391 25.425 25.425 25.425h7.308c4.735 0 9.127-1.441 12.764-3.877a24 24 0 0 0 3.363-2.814 22.7 22.7 0 0 0 6.656-16.092c0-6.691-2.47-13.142-6.896-18.083-.069-.034-.103-.103-.137-.137-.687-.755-1.408-1.544-2.197-2.299a53 53 0 0 0-2.436-2.367c-.034-.035-.068-.035-.068-.069-.858-.755-1.716-1.51-2.643-2.265a38 38 0 0 0-2.916-2.264S3.5 6.451 0 0" style="fill:#fff;fill-opacity:1;fill-rule:nonzero;stroke:none" transform="translate(1091.339 366.361)"></path><path d="M755.15 1259.501h-44.263v337.286h44.263z" style="fill:#fff;fill-opacity:1;fill-rule:nonzero;stroke:none"></path><path d="M0 0v-31.979h-46.424v-305.307h-44.263v305.307h-46.424V0Z" style="fill:#fff;fill-opacity:1;fill-rule:nonzero;stroke:none" transform="translate(1294.911 1596.788)"></path><path d="M0 0v-114.773h54.316v-31.945H0v-126.611h74.491v-31.979H-44.228V31.979H74.491V0Z" style="fill:#fff;fill-opacity:1;fill-rule:nonzero;stroke:none" transform="translate(1053.424 1564.809)"></path><path d="M0 0v-337.286h-35.376l-8.852 24.224-67.457 184.324v-208.548h-44.228V0h44.228l67.457-184.324V0Z" style="fill:#fff;fill-opacity:1;fill-rule:nonzero;stroke:none" transform="translate(960.13 1596.788)"></path><path d="M0 0c0-11.597-9.401-21.033-21.033-21.033h-28.445v127.469h28.445C-9.401 106.436 0 97.034 0 85.402Zm-13.142 140.165H-93.74v-337.287h44.262v144.11h36.336c31.945 0 57.816 25.906 57.816 57.816v77.545c0 31.944-25.871 57.816-57.816 57.816" style="fill:#fff;fill-opacity:1;fill-rule:nonzero;stroke:none" transform="translate(625.486 1456.623)"></path></g><path d="M576.007 1563.059V1435.59h28.446c11.631 0 21.033 9.436 21.033 21.033v85.403c0 11.631-9.402 21.033-21.033 21.033z" style="fill:url(#n);stroke:none" transform="matrix(1.33333 0 0 -1.33333 -585.333 2383.095)"></path><g clip-path="url(#o)" transform="matrix(1.33333 0 0 -1.33333 -585.333 2383.095)"><path d="M0 0v-215.513c0-36.405-29.508-65.913-65.948-65.913h-12.695c-36.405 0-65.913 29.508-65.913 65.913V0c0 36.405 29.508 65.913 65.913 65.913h12.695C-29.508 65.913 0 36.405 0 0" style="fill:#fff;fill-opacity:1;fill-rule:nonzero;stroke:none" transform="translate(1469.936 1536.124)"></path></g><path d="M1395.784 1567.879c-14.812 0-26.82-12.008-26.82-26.82v-222.753c0-14.813 12.008-26.82 26.82-26.82h3.74c14.813 0 26.821 12.007 26.821 26.82v222.753c0 14.812-12.008 26.82-26.821 26.82z" style="fill:url(#p);stroke:none" transform="matrix(1.33333 0 0 -1.33333 -585.333 2383.095)"></path><g clip-path="url(#q)" transform="matrix(1.33333 0 0 -1.33333 -585.333 2383.095)"><path d="M0 0v12.49c0 4.597-3.74 8.338-8.338 8.338h-2.402c-4.597 0-8.303-3.741-8.303-8.338v-78.403a8.29 8.29 0 0 1 8.303-8.303h2.402C-3.74-74.216 0-70.511 0-65.913v13.347h15.234v-12.901c0-13.313-10.808-24.087-24.121-24.087h-1.304c-13.313 0-24.087 10.774-24.087 24.087v78.849c0 13.278 10.774 24.087 24.087 24.087h1.304c13.313 0 24.121-10.809 24.121-24.087V0Z" style="fill:#fff;fill-opacity:1;fill-rule:nonzero;stroke:none" transform="translate(1168.369 1186.348)"></path><path d="M0 0v12.49c0 4.597-3.74 8.338-8.338 8.338h-2.401c-4.598 0-8.304-3.741-8.304-8.338v-78.403a8.29 8.29 0 0 1 8.304-8.303h2.401C-3.74-74.216 0-70.511 0-65.913v13.347h15.235v-12.901c0-13.313-10.809-24.087-24.087-24.087h-1.339c-13.312 0-24.087 10.774-24.087 24.087v78.849c0 13.278 10.775 24.087 24.087 24.087h1.339c13.278 0 24.087-10.809 24.087-24.087V0Z" style="fill:#fff;fill-opacity:1;fill-rule:nonzero;stroke:none" transform="translate(1352.555 1186.348)"></path><path d="M0 0v-78.849c0-13.313-10.774-24.087-24.087-24.087h-1.304c-13.313 0-24.087 10.774-24.087 24.087V0c0 13.279 10.774 24.087 24.087 24.087h1.304C-10.774 24.087 0 13.279 0 0" style="fill:#fff;fill-opacity:1;fill-rule:nonzero;stroke:none" transform="translate(1467.363 1199.73)"></path></g><path d="M1442.003 1207.166a8.906 8.906 0 0 1-8.905-8.906v-77.24a8.905 8.905 0 0 1 8.905-8.905h1.242a8.906 8.906 0 0 1 8.907 8.905v77.24a8.906 8.906 0 0 1-8.907 8.906z" style="fill:url(#r);stroke:none" transform="matrix(1.33333 0 0 -1.33333 -585.333 2383.095)"></path><g clip-path="url(#s)" transform="matrix(1.33333 0 0 -1.33333 -585.333 2383.095)" data-source="https://football-logos.cc"><path d="M0 0c-.172-4.186-3.637-7.549-7.892-7.549-4.254 0-7.686 3.363-7.857 7.549v6.651c0 3.745 2.431 7.242 6.083 8.074 2.826.643 5.538-.313 7.367-2.098C-.892 11.186 0 9.196 0 7.034Zm-2.265 31.67h-11.46c-13.176 0-23.847-10.671-23.847-23.812v-9.539c0-10.195 8.265-18.46 18.46-18.46H-.275v-8.784a4.56 4.56 0 0 0-4.563-4.563h-6.622a4.56 4.56 0 0 0-4.564 4.563v3.74h-21.548v-4.186c0-2.573.446-5.044 1.304-7.343 2.985-8.406 11.014-14.411 20.45-14.411H-3.5c13.663 0 24.739 11.076 24.739 24.739V8.166c0 12.981-10.523 23.504-23.504 23.504" style="fill:#fff;fill-opacity:1;fill-rule:nonzero;stroke:none" transform="translate(957.179 397.242)"></path><path d="M0 0h-12.696l6.623 46.733z" style="fill:#68c9f3;fill-opacity:1;fill-rule:nonzero;stroke:none" transform="translate(1227.832 1138.517)"></path><path d="m0 0 6.622 46.733L12.696 0Zm15.715 83.103H-.927L-20.656-39.768h15.029l3.431 24.328h16.882l3.156-24.328h16.024z" style="fill:#fff;fill-opacity:1;fill-rule:nonzero;stroke:none" transform="translate(1215.136 1138.517)"></path><path d="M0 0v-15.132h-41.415V107.74h16.23V0Z" style="fill:#fff;fill-opacity:1;fill-rule:nonzero;stroke:none" transform="translate(1304.004 1113.881)"></path><path d="M1399.906 1098.75h-16.195v122.871h16.195z" style="fill:#fff;fill-opacity:1;fill-rule:nonzero;stroke:none"></path></g><!-- source: https://football-logos.cc --></svg>