<svg xmlns="http://www.w3.org/2000/svg" viewBox="23.65 27.89 547.98 786.11"><!-- Source: https://football-logos.cc --><path d="M25.234 27.892h545.404c.548 0 .992.444.992.992V649.06c0 14.494-1.162 37.997-13.654 58.569-12.507 20.595-36.316 38.181-81.55 40.7-4.992.278-12.674.07-21.004-.155-8.43-.228-17.527-.474-25.132-.25-12.12.358-24.013 1.404-35.285 3.147-10.937 1.69-21.293 4.038-30.706 7.05-15.588 4.989-28.828 12.48-39.635 21.516-11.778 9.848-20.664 21.528-26.548 33.8a.989.989 0 0 1-1.781.002l-.002.001c-4.471-9.23-10.538-17.01-18.26-23.776-7.749-6.791-17.171-12.572-28.323-17.78-14.736-6.882-32.05-12.003-50.984-15.424-19.738-3.566-41.233-5.283-63.408-5.224-8.743.023-16.818-.089-24.231-.656-7.47-.572-14.312-1.608-20.557-3.434-29.433-8.605-46.18-23.371-55.57-40.973-9.369-17.56-11.373-37.886-11.354-57.712l.6-619.576c0-.546.443-.988.988-.988zm544.412 1.984H26.222l-.6 618.584c-.019 19.557 1.945 39.58 11.121 56.782 9.156 17.16 25.535 31.571 54.378 40.004 6.089 1.78 12.802 2.794 20.153 3.356 7.41.568 15.424.68 24.085.656 22.289-.059 43.902 1.67 63.756 5.256 19.099 3.45 36.577 8.622 51.473 15.578 11.318 5.286 20.894 11.164 28.788 18.083 7.419 6.5 13.35 13.915 17.843 22.61 5.995-11.864 14.752-23.118 26.174-32.668 10.991-9.19 24.455-16.808 40.302-21.88 9.506-3.042 19.964-5.413 31.008-7.12 11.357-1.756 23.334-2.81 35.532-3.17 7.654-.226 16.778.02 25.233.25 8.276.224 15.909.43 20.85.155 44.436-2.475 67.76-19.645 79.969-39.748 12.222-20.127 13.359-43.267 13.359-57.545z" style="fill:#231f20;fill-rule:evenodd" data-source="https://football-logos.cc"></path><path d="M569.646 29.876H26.222l-.6 618.584c-.019 19.557 1.945 39.58 11.121 56.782 9.156 17.16 25.535 31.571 54.378 40.004 6.089 1.78 12.802 2.794 20.153 3.356 7.41.568 15.424.68 24.085.656 22.289-.059 43.902 1.67 63.756 5.256 19.099 3.45 36.577 8.622 51.473 15.578 11.318 5.286 20.894 11.164 28.788 18.083 7.419 6.5 13.35 13.915 17.843 22.61 5.995-11.864 14.752-23.118 26.174-32.668 10.991-9.19 24.455-16.808 40.302-21.88 9.506-3.042 19.964-5.413 31.008-7.12 11.357-1.756 23.334-2.81 35.532-3.17 7.654-.226 16.778.02 25.233.25 8.276.224 15.909.43 20.85.155 44.436-2.475 67.76-19.645 79.969-39.748 12.222-20.127 13.359-43.267 13.359-57.545z" style="fill:#fff;fill-rule:evenodd"></path><path d="M58.962 118.663h4.304l17.964-45.6 2.907.01 19.932 45.599h3.375v5.775l-19.632.066-.047-5.87 5.222.02-5.296-12.01-13.022-.037-4.772 12.037h5.137l-.003 5.832-16.034.005zm17.57-17.508 9.067-.01-4.724-11.288zM116.98 126.13a6.216 6.216 0 0 1-6.216-6.215 6.216 6.216 0 1 1 6.216 6.216M170.99 105.862l-.712 13.546c-7.03 4.103-13.916 6.146-20.83 6.17-15.836.052-26.797-10.901-26.663-27.188.115-13.821 11.76-25.462 26.776-25.463 5.777 0 10.638 1.462 15.188 4.5v-1.781l5.475-.056v16.424h-4.706c-2.643-6.173-6.91-12.594-15.824-12.787-9.592-.208-16.25 9.1-16.35 19.2-.123 12.535 8.819 20.499 17.25 20.588 7.59.08 12.667-3.758 15.395-13.162zM211.804 108.787l4.725.075c1.7 7.435 5.923 10.793 11.325 10.95 3.801.11 8.397-2.572 8.475-7.575.045-2.935-2.617-5.171-6.9-7.463L219.193 99.3c-3.454-1.847-7.848-5.498-7.725-12.9.125-7.55 4.221-13.248 16.427-13.312 3.739-.02 7.25.503 10.2 2.165v-1.49h5.438l-.076 15-5.39-.01c-1.054-5.517-4.393-9.788-10.172-9.928-3.374-.081-7.786 2.366-7.856 6.02-.06 3.093 2.353 4.416 4.481 5.568l13.276 7.181c4.351 2.354 8.077 6.29 7.876 12.581-.269 8.385-6.428 15.595-16.744 15.32-3.948-.106-7.763-.338-11.644-2.195v1.567l-5.466-.01zM244.773 118.663h4.305l17.963-45.6 2.907.01 19.932 45.599h3.375v5.775l-19.632.066-.046-5.87 5.221.02-5.296-12.01-13.022-.037-4.772 12.037h5.137l-.003 5.832-16.034.005zm17.57-17.508 9.067-.01-4.724-11.288zM296.06 74.099l21.178.018-.01 5.888h-5.85l.02 38.635 17.417.019 4.425-10.912 5.438-.038-2.137 16.763-41.176-.019-.019-5.775 6.202-.028.005-38.654-5.49-.005zM335.457 79.99l.013-5.835 21.871-.01.01 5.85-6.56.01-.006 25.913c-.001 5.535 2.433 13.278 11.306 13.144 7.124-.108 12.417-5.303 12.412-12.47l-.018-26.625-5.84.019.01-5.831h18.243l-.005 5.849-5.461-.008-.02 27.559c-.007 10.424-7.513 18.348-19.537 18.168-12.367-.185-20.929-6.528-20.945-18.018l-.038-27.712zM388.684 89.462l.02-15.28h43.405l.02 3.637-30.864 40.82 22.2-.02c2.155-1.743 2.716-6.05 3.549-10.172l5.461.01.019 16.04-45.226.01-.009-3.815 31.124-40.689-18.394-.018c-3.46-.004-5.038 1.788-5.062 4.837l-.038 4.725s-6.15.038-6.204-.085zM435.172 89.462l.02-15.28h43.405l.02 3.637-30.864 40.82 22.2-.02c2.155-1.743 2.716-6.05 3.549-10.172l5.461.01.019 16.04-45.226.01-.009-3.815 31.124-40.689-18.394-.018c-3.46-.004-5.038 1.788-5.062 4.837l-.038 4.725s-6.15.038-6.204-.085zM507.296 78.87c10.403.224 16.439 8.877 15.974 20.025-.527 12.666-6.94 21.115-16.387 20.888-10.096-.244-16.908-9.819-16.8-20.738.123-12.458 7.913-20.376 17.213-20.175M479.49 98.895c.178-13.874 12.675-25.565 27.9-25.838 14.272-.256 26.574 10.402 26.699 25.575.106 12.887-11.112 27.173-27.45 27.226-18.603.06-27.321-13.61-27.15-26.963M324.208 708.418c11.076.117 11.598-13.268 11.598-21.565 0-8.331-.694-21.627-12.154-21.808-11.031-.174-11.598 13.498-11.598 21.808 0 8.442.529 21.442 12.154 21.565m-.36 4.32c-15.658 0-21.394-12.709-21.394-25.885 0-13.265 5.234-26.54 21.695-26.39 15.8.144 21.272 13.256 21.272 26.39 0 13.223-5.937 25.885-21.574 25.885M279.522 688.759c2.514.095 5.747-.2 8.318-1.07.646-2.334 1.002-5.12 1.071-8.413.144-6.869-2.113-13.95-10.75-14.158-8.293-.198-10.931 5.704-11.03 11.646-.087 5.238 2.467 11.62 12.391 11.995m-11.469 22.048c7.815-4.891 12.895-9.734 18.533-18.292-1.35.615-3.652 1.172-8.9 1.172-12.053 0-19.591-6.527-19.591-16.286 0-9.933 7.45-17.199 19.833-17.199 12.673 0 20.227 9.228 20.386 18.964.3 18.377-12.831 27.301-27.039 35.186zM220.565 711.779l-.035-4.029 9.872-.58.007-39.963-9.098-.318-.003-4.372 18.216-1.45-.007 45.93 8.784.733-.003 4.013zM353.51 711.779l-.036-4.029 9.873-.58.007-39.963-9.098-.318-.003-4.372 18.216-1.45-.007 45.93 8.784.733-.003 4.013z" style="fill:#fff;fill-rule:evenodd"></path><path d="M196.873 184.274c-2.16.437 1.375-.651 0 0m-24.909 36.425c-3.997 1.324-4.357-.604-5.98-1.628-1.922 1.198-1.322 1.524-4.232 2.208-1.723.405-3.748.862-5.316.54-.692-6.168 2.285-7.27-2.226-11.919-2.118-2.182-4.139-5.952-3.919-10.486.508-10.45 9.565-11.403 16.496-12.89 1.956-5.005 1.886-6.97 6.994-8.77 3.727-1.313 10.582-2.621 13.027.386.918 1.129.717 1.859 1.408 2.732 1.927 2.436 3.598.188 3.392 8.144-.233 9.005-5.044 3.701-8.362 4.064-2.51 5.887 4.394 8.218 9.309 5.526 8.238-4.512.106-12.198 3.532-13.931.082-.042.206-.146.311-.19q.298-.127.475-.211l.224-.047c.554-.117.652-.074 1.213-.037 2.103.138 3.891 1.218 5.174 2.561 1.517 1.59.904 1.34 2.936 2.44 1.945 1.051 1.067.753 2.11 2.856 1.277 2.573 4.831 2.016 6.525 3.858 1.98 2.154 1.24 5.01 1.133 8.444 3.773 2.493 1.98 1.183 2.325 4.15.186 1.609 1.245.504 1.883 2.319.77 2.193-.188 3.34-1.583 4.402-.28 3.18.097 6.335.169 9.452.087 3.793-.478 5.275-4.23 5.64-2.35.229-6.857.08-9.098-.573-1.386-.404-4.7-2.612-5.042-4.175-.033-.152-.14-.175-.226-.244-4.032 3.273 4.98 6.174 7.811 7.297 5.397 2.14 8.424 2.26 13.758-.045 4.264-1.844 7.24-4.692 9.38-8.053 2.137-3.356 3.79-9.884 2.47-14.252-1.216-.741-1.345-.314-2.259-1.425-.481-.586-.848-1.714-1.325-2.406-1.043-1.515-2.467-1.681-3.382-3.67-2.56-5.556 1.92-7.113 4.874-8.908.353-2.555-.328-9.244.31-10.498 1.5-2.94 5.2-3.718 8.144-3.499 3.105.23 7.12 1.888 7.477 4.252.261 1.728-.888 1.884-.71 4.881.413 6.923 1.238 3.228 4.166 6.922 2.532 3.195 4.337.34 3.72 7.453-.545 6.269-3.738 1.54-4.302 6.84-.19 1.786.283 3.322.876 4.899 3.443 9.145 13.377 12.907 22.75 8.71 3.954-1.77 10.07-8.801 8.989-13.528-1.753-.606-1.818.069-3.253-.487-.925-.36-.906-.825-1.984-1.545-3.903.978-6.98 2.304-11.35.805-2.876-.987-6.03-3.442-6.165-7.203-.162-4.53 3.814-5.986 7.895-4.473 4.265 1.581 7.172 2 7.647-3.032-3.14-.33-5.764.316-8.402-.762-.686-2.035.287-3.304-1.212-4.608-1.48-1.286-2.018-.382-2.618-2.876-1.152-4.787-3.789-2.425-3.967-7.078-.123-3.194 1.323-6.287 3.09-8.006 2.556-2.485 4.283-2.136 8.168-2.648.338-2.37-.79-2.344-.981-4.648-.173-2.072.51-3.645.003-5.757-.72-3.004-4.726-3.432-3.202-8.766 1.42-1.017.834-.085 2.41-.81.843-.388 1-.756 1.651-1.245 3.584-2.695 24.067-.895 29.415-.741 2.445.07 3.796.43 5.608-.76 2.68-1.759 1.14-.226 3.925.255 1.996-2.616 2.274-3.516 6.644-3.07 2.401.245 5.722 1.178 7.007 2.665 1.096 1.268 2.605 4.67 2.268 6.845-.494 3.182-2.621 2.263-5.557 3.524-.493 1.68.666 2.308.967 4.116.265 1.594-.089 3.96-.275 5.597 3.742 1.033 2.056 1.475 2.624 2.995 1.77.104 3.014-.176 4.331.777 1.814 1.313 2.85 3.335 4.44 4.579 4.11 3.213-2.446 8.749-3.005 9.654-2.11 3.417-.152 6.69-1.784 8.116-1.346 1.32-4.108-.175-6.083-.006-2.352.199-3.936 1.523-2.99 3.595 1.185 1.505 2.68-.577 4.3-.853 1.552-.265 4.139-.069 5.546.556 3.02 1.34 4.537 4.51 3.576 8.215-1.01.517-1.756.378-2.408 1.274-.437.6-.487 1.752-1.006 2.694-3.47 6.288-15.764-2.466-16.162 4.65-.542 9.713 16.042 18.652 25.421 5.87 7.758-10.574 3.292-7.566 3.775-12.356.12-1.178.374-2.012-.232-2.94-1.219-1.864-2.448-.812-2.513-5.093-.132-8.74 5.99-4.324 8.083-4.872 1.11-2.027.114-5.263 1.398-7.733 3.702-7.12 14.035-5.516 15.191 2.244.706 4.732-2.235 2.23 1.162 6.633 2.631 3.411 3.486 15.755-2.878 15.64-.434-.009-1.376-.157-1.693-.104-3.927.651.454 10.485 1.403 12.913 8.259 21.144 25.438 13.166 26.339 7.954-5.052-2.14-10.276 1.86-14.529-3.604-1.691-2.173-1.911-5.53-.589-7.746 1.115-1.87 4.583-2.647 4.595-4.33-.879-2.849-3.94-1.161-4.482-5.817-.568-4.88 2.5-3.213 2.233-8.273-.191-3.601.945-5.662 3.438-6.886 4.362-2.142 4.465-.505 7.98-.332.448-2.444-.567-3.46.734-6.285 4.707-10.219 10.584-3.559 13.236-4.737 1-1.014.457-1.19 1.57-2.034 1.308-.992 1.014-.286 2.429-.878 1.648-2.925.716-4.289 4.572-4.86 13.006-1.93 8.678 2.003 15.675 3.344 3.87.741 2.403 3.116 3.031 6.528 4.617 2.306 13.555.68 12.994 15.705-.343 9.205-6.91 8.26-6.47 14.945.199 3.032 1.795 2.51 3.423 3.55.79 6.056-3.353 4.123-7.108 3.93-2.059-.108-3.861.286-5.83.163-5.492-.345-13.074-6.707-7.236-10.757 1.955-1.357 5.396-3.974 2.043-7.093-4.448-1.495-5.611 2.556-7.16 4.937-.19 2.536-.408 5.816 1.406 7.535 1.12 1.062 1.287.441 2.085 2.084.516 1.064.61 2.307.649 3.504.135 4.15-.023 10.636-4.567 12.096-4.91 1.578-1.327 3.835-6.193 10.8-5.411 7.741-9.39 3.31-11.262 5.335-1.482 1.605 3.084 4.868 3.687 10.398.766 7.028-3.965 5.396-6.766 7.621-.59 2.063.99 4.608 1.081 7.67.125 4.199-.629 3.901-2.964 5.806-.478.826 1.291 9.86-3.1 13.078-1.934 1.417-8.289 3.573-11.201 4.55-27.173 9.119-51.512 13.879-81.044 13.821-29.201-.057-55.93-1.758-83.263-11.55-4.334-1.554-8.208-3.061-7.198-8.691 1.15-6.408.52-1.897.102-7.061-.37-4.58 1.18-3.489-2.343-5.454-.413-2.497-.58-4.474-.063-6.967l2.254-.956c.632-5.734-6.083-.408-9.05-7.282-2.858-6.623 3.85-9.865 4.26-10.854.224-3.084-.505-2.733-1.56-4.763-6.913-.416-9.983-.26-12.257-7.591-1.326-4.27.47-3.99-2.776-7.143-1.457-1.415-3.624-3.12-4.577-4.97-3.092-5.991-2.26-9.539.95-14.382 5.987-9.03-8.567-19.453-6.045-5.506.611 3.377 2.476 3.058 2.868 5.53.387 2.443-1.663 4.013-3.398 4.587zm45.32-95.833-5.466-.01-.014-16.07 4.725.075c1.7 7.436 5.923 10.793 11.325 10.95 3.801.11 8.397-2.572 8.475-7.575.045-2.934-2.617-5.17-6.9-7.462l-10.236-5.475c-3.454-1.847-7.848-5.499-7.725-12.9.125-7.55 4.221-13.248 16.427-13.313 3.739-.02 7.25.503 10.2 2.166v-1.49h5.438l-.076 15-5.39-.01c-1.054-5.517-4.393-9.789-10.172-9.928-3.374-.082-7.786 2.366-7.856 6.019-.06 3.093 2.353 4.417 4.481 5.568l13.276 7.182c4.351 2.354 8.077 6.29 7.876 12.581-.269 8.384-6.428 15.595-16.744 15.32-3.948-.106-7.763-.339-11.644-2.195zm328.959-71.138-501.04-.693-1.162 567.037c-.121 59.146 27.086 80.891 55.192 93.29 27.955 12.333 74.754 10.023 94.129 9.15 53.463-2.412 78.685 23.345 102.399 49.221 31.854-36.78 57.384-45.314 81.339-49.288 18.541-3.076 53.722 3.283 89.592-.523 32.237-3.42 54.968-23.186 67.797-54.435 6.86-16.709 11.794-36.701 11.792-59.49zM244.808 124.49l-.035-5.826h4.305l17.963-45.6 2.907.01 19.932 45.599h3.375v5.775l-19.632.066-.046-5.87 5.221.02-5.296-12.01-13.022-.037-4.772 12.037h5.137l-.003 5.832zm-74.53-5.08c-7.03 4.102-13.916 6.145-20.83 6.168-15.836.053-26.797-10.9-26.662-27.187.114-13.821 11.76-25.462 26.775-25.463 5.777 0 10.638 1.462 15.188 4.5v-1.781l5.475-.057v16.425h-4.706c-2.643-6.173-6.91-12.594-15.824-12.787-9.592-.208-16.25 9.1-16.35 19.2-.123 12.535 8.819 20.499 17.25 20.588 7.59.08 12.667-3.758 15.395-13.162l5 .009zm9.631 6.722a6.216 6.216 0 1 1 0-12.432 6.216 6.216 0 0 1 0 12.432m-62.929 0a6.216 6.216 0 1 1 0-12.432 6.216 6.216 0 0 1 0 12.432m50.523 315.39c0-8.64-.473-108.279.107-113.973l253.7.068c.328.497.242.228.472 1.128l.133 2.482c-.016 1.11-.021 2.21-.021 3.32v215.193c0 18.464-.265 37.12 0 55.56.153 10.504.037 16.382-6.342 21.62-6.677 5.483-11.978 5.753-22.014 5.753h-55.541c-9.266 0-17.436-1.393-24.51 3.262-3.885 2.556-11.55 10.747-12.746 14.67l-15.606-13.16c-5.573-4.74-16.761-3.922-24.283-4.074-18.855-.382-37.926.417-56.736-.218-12.554-.424-20.251-.04-28.312-7.826-2.061-1.99-1.288-.824-3.286-3.766-6.849-10.078-4.85-24.938-4.85-37.821zm134.951 245.332c0-13.265 5.234-26.54 21.695-26.39 15.8.144 21.272 13.256 21.272 26.39 0 13.223-5.937 25.885-21.574 25.885-15.657 0-21.393-12.709-21.393-25.885m51.056 24.926-.036-4.029 9.873-.58.007-39.963-9.098-.318-.003-4.372 18.216-1.45-.007 45.93 8.784.733-.003 4.013zm-132.945 0-.035-4.029 9.872-.58.007-39.963-9.098-.318-.003-4.372 18.216-1.45-.007 45.93 8.784.733-.003 4.013zm37.53-34.378c0-9.933 7.45-17.199 19.833-17.199 12.673 0 20.227 9.229 20.386 18.964.3 18.377-12.831 27.301-27.039 35.186l-3.222-3.545c7.815-4.89 12.895-9.734 18.532-18.292-1.35.615-3.651 1.172-8.9 1.172-12.052 0-19.59-6.527-19.59-16.286m220.887-552.903-45.226.01-.009-3.816 31.124-40.688-18.394-.019c-3.46-.003-5.038 1.788-5.062 4.838l-.038 4.725s-6.15.037-6.204-.086l.018-15.28h43.407l.019 3.637-30.863 40.82 22.2-.02c2.155-1.743 2.715-6.05 3.548-10.172l5.462.01zm27.658 1.36c-18.603.06-27.321-13.61-27.15-26.963.18-13.874 12.676-25.565 27.9-25.838 14.273-.256 26.575 10.402 26.7 25.575.106 12.887-11.112 27.173-27.45 27.226m-144.764-.135c-12.368-.184-20.93-6.528-20.945-18.018l-.038-27.712-5.436-.002.013-5.836 21.871-.01.01 5.85-6.56.01-.006 25.913c-.001 5.535 2.433 13.278 11.306 13.144 7.124-.108 12.417-5.303 12.412-12.47l-.018-26.625-5.84.019.01-5.831h18.243l-.005 5.849-5.461-.007-.02 27.558c-.007 10.424-7.513 18.348-19.537 18.168zm26.808-36.26.02-15.282h43.405l.02 3.638-30.864 40.82 22.2-.02c2.155-1.743 2.716-6.05 3.549-10.172l5.461.01.019 16.04-45.226.01-.009-3.815 31.124-40.689-18.394-.018c-3.46-.004-5.038 1.788-5.062 4.837l-.038 4.726s-6.15.037-6.204-.086zm-87.132-9.467-5.49-.005-.003-5.892 21.179.019-.01 5.887h-5.849l.018 38.635 17.418.019 4.425-10.912 5.438-.038-2.137 16.763-41.176-.019-.019-5.775 6.202-.028zM75.031 124.485l-16.034.005-.035-5.827h4.304l17.964-45.6 2.907.01 19.932 45.6h3.375v5.774l-19.632.066-.047-5.87 5.222.02-5.296-12.01-13.022-.037-4.772 12.037h5.137z" style="fill:#931c1e;fill-rule:evenodd"></path><path d="m45.203 53.035 501.04.693.038 554.27c.002 22.788-4.933 42.78-11.792 59.489-12.829 31.25-35.56 51.015-67.797 54.435-35.87 3.806-69.445-2.521-89.592.523-24.129 3.646-49.641 12.04-81.34 49.288-23.713-25.876-46.685-54.633-102.398-49.221-19.304 1.875-70.222 2.75-93.83-9.262-29.245-14.881-55.612-34.378-55.491-93.178Z" style="fill:none"></path><path d="M235.363 243.328c.784 1.937 2.27.497 4.79-.025 5.242-1.086 17.3-1.683 18.97-3.707-1.991-1.346-16.27 1.33-18.838 1.842-3.422.681-4.11.3-4.922 1.89M187.107 241.343c1.22-.148 2.398-.412 3.416-.83 1.429-.588 1.612-.565 1.674-2.16-2.257-.96-4.327 1.511-5.09 2.99M192.1 528.137l1.109.505c.568.203.25.106.798.151.185-.19.608-.62.873-.768l.02-1.94c-.94-.834-1.184-1.145-2.612-.892zM308.53 479.14c2.165-3.452-1.608-3.736-2.269-2.184-.742 1.744.884 2.144 2.27 2.184M357.893 483.774c1.208-.494 1.123-.354 1.47-1.62-2.146-2.992-5.132.184-1.47 1.62M228.977 536.04c1.523-.08 1.355-.32 1.738-1.227-1.23-1.097-3.39-1.383-4.095.414.814.68 1.096.881 2.357.814M290.475 463.779c1.832.252 1.847-.035 2.347-1.527-.766-.855-.786-.996-2.31-1.04-.627 1.626-.591.942-.037 2.567" style="fill:#fafcfd;fill-rule:evenodd"></path><path d="M224.933 525.64c-.307-4.37-3.92-7.847.212-12.797 4.082.169 2.915 3.648 7.052 3.146 2.025-1.812 1.597-5.04-1.163-5.7-2.644-.63-5.601.255-7.038 2.125-2.529 3.292-2.54 10.89.937 13.226M398.927 223.79c1.021-.771.684-.53 1.213-2.077 1.117-3.26 1.154-3.176 4.3-5.633 1.89-1.475 1.687-1.839.79-4.322-.997-2.761.422-4.063-2.154-4.395-1.593 3.23 3.512 3.796-1.028 8.402-1.306 1.325-4.737 5.505-3.121 8.025" style="fill:#158ace;fill-rule:evenodd"></path><path d="M296.742 483.398c-2.799 5.752-11.407 2.93-8.852-3.279 2.24-5.445 11.843-2.87 8.852 3.28m-5.832-7.065c-8.837 3.508-4.342 15.516 4.487 12.143 8.155-3.114 3.77-15.42-4.487-12.143M247.638 520.284c-3.89.201-3.17 6.825-.858 9.169 1.093 1.107 1.968 2.067 2.836 3.784.391.773.623 1.567.863 2.487.576 2.221-.296 1.243 1.064 2.098.74-3.934.061-5.883-1.758-8.885-2.33-3.848-.474-6.583-2.147-8.653M199.201 574.165c.575 1.038-.139.79 1.644 1.181 2.101.462 4.942.258 6.337-1.413 1.618-1.937 1.52-6.61-.913-7.566-.526 2.343.015 4.421-1.538 5.96-1.74 1.722-3.507 1.116-5.53 1.838" style="fill:#138ccf;fill-rule:evenodd"></path><path d="M208.352 286.904c1.93.725 7.023-1.943 9.271-2.727 50.604-17.64 105.534-17.183 156.68-2.102 1.926.568 7.885 2.898 9.227 2.691.123-.019.245-.067.354-.093.112-.027.257-.11.346-.137.092-.028.24-.088.343-.16-.624-2.285-6.672-3.438-8.892-4.093-3.495-1.033-6.712-2.08-10.283-2.992-24.32-6.21-44.243-9.093-70.094-8.871-16.31.14-32.066 1.942-47.385 5.028-7.232 1.457-14.398 3.392-21.07 5.44-3.353 1.028-6.768 2.269-9.898 3.422l-7.086 2.865c-1.42.696-1.276.196-1.514 1.73" style="fill:#fdfdfe;fill-rule:evenodd"></path><path d="M385.661 265.718c-.005-1.922-.236-1.555-3.994-2.646-44.202-12.827-89.12-17.756-134.716-7.943-5.908 1.271-39.314 9.793-40.796 12.661-1.922 3.718 7.096-.672 8.095-1.065 12.485-4.918 40.72-11.174 53.69-12.702 21.956-2.586 54.023-1.824 75.092 1.661 7.569 1.253 14.577 2.859 21.809 4.725 3.586.926 6.858 1.912 10.295 2.935 2.313.687 8.778 3.6 10.525 2.374M192.1 528.137l-.785-.824c-2.769-3.407-4.795-4.48-5.705-7.584-1.03-3.516-.194-8.737 2.869-11.202-.07 3.364.537 5.216 2.033 7.55 1.312 2.048 2.953 3.345 4.011 5.533 1.972 4.077 3.274 11.901-1.706 13.591.576-3.94.004-3.897-.718-7.064m-2.892 9.96c9.232.527 14.521-13.895 8.448-18.785-3.294-2.654-6.316-5.994-4.608-11.325 1.342-4.182 6.6-3.525 10.937-3.69-4.294-1.713-10.719-1.632-14.84.614-7.422 4.046-10.822 16.089-2.822 22.817 1.389 1.168 4.113 2.133 4.674 4.031.975 3.298-1.119 4.61-1.789 6.338M244.053 474.449c-.2 5.688 6.59 6.375 6.064-.228-2.735-1.603-4.035-1.256-6.042.11-.082.057-.208.16-.32.228-.123-7.182-11.57-4.252-3.726 1.137 2.146 1.475 3.021-.2 3.022-.202zM337.235 236.223c2.73.625 13.326 2.076 15.801 1.416.98-3.478-4.063-2.994-7.2-3.26-3.282-.28-8.894-1.844-8.6 1.844M236.68 240.973l18.787-4.112c-2.549-1.959-11.291.047-15.512.897-2.274.458-2.414 1.165-3.276 3.215M288.349 229.006l16.284.288c-2.661-2.395-1.348-2.785-6.007-2.643-2.887.088-5.774.11-8.663.22zM257.064 476.832c-3.95-2.078-7.661.797-5.283 3.654 1.88 2.26 6.503 1.05 5.283-3.654M377.245 449.399c.895 1.502 9.006 9.02 6.455-.563-1.915-.853-4.871-1.068-6.455.563M283.669 497.395c4.134.102 4.94-4.113 1.847-5.492-1.64-.73-2.96-.273-3.317 1.578-.39 2.027.328 2.817 1.47 3.914M340.217 232.44l10.952 1.124-1.57-2.997-7.547-.218zM370.95 397.57c.1 2.883 5.92 2.517 5.683-.807-.247-3.447-5.782-2.085-5.682.807M380.473 416.643c1.205 1.476 3.758 2.155 6.163 1.785.823-1.688.588-2.886.201-4.593-1.55-.214-5.062 1.732-6.364 2.808M190.731 246.806c1.605.48 9.72-.968 8.953-2.93-.753-1.928-4.102.015-5.185.242-2.362.495-3.54-.376-3.768 2.688M337.16 477.11c-2.996 1.906.466 5.267 3.038 3.958 3.116-1.586-.532-5.552-3.037-3.959M291.375 225.315l9.44.086c-.687-.88-1.83-2.137-3.023-2.566-4.014.014-4.804-.333-6.417 2.48M291.09 499.57c.376-3.758-3.534-4.181-4.692-1.792-1.33 2.745 2.309 4.439 4.693 1.791M286.6 468.5c3.16.51 5.604-3.504 3.134-4.345-3.096-1.055-4.81 1.468-3.134 4.345M236.198 539.073c1.183-2.966-1.613-5.15-3.629-3.979-2.224 1.294-.417 4.803 3.629 3.978M229.16 553.056c.41 2.315 4.926 2.476 4.636-.747-.268-2.974-5.197-2.417-4.636.747M299.116 468.903c.94-2.41.59-5.035-3.261-4.063-1.584 2.862-.159 4.51 3.261 4.063M282.995 473.285c3.005.594 5.75-2.39 4.009-3.96-1.361-1.227-5.027.332-4.009 3.96M368.122 435.716c.78 1.122.882 1.943 3.013 1.716 1.198-.128 2.198-.889 2.099-2.125-.15-1.866-4.05-2.692-5.112.41M349.864 479.606c.8 3.278 4.885 3.772 4.76-.481-.969-.567-1.927-1.26-3.67-.948zM301.873 472.894c1.784-2.435.305-4.806-2.174-3.75-1.295.553-2.575 4.67 2.174 3.75M196.898 249.124c2.313.67 2.249-.165 4.167-.94 1.261-.508.96-.08 1.995-.952.662-.559.906-.856.849-1.89-1.503-.1-2.878.562-4.118 1.132-1.689.778-2.27 1.022-2.893 2.65M188.382 244.108c1.97.17 5.431-1.067 6.635-2.024-.526-2.419-1.758-1.342-3.748-.758-1.887.554-2.81.676-2.887 2.782M348.119 479.252c-1.076-1.606-1.636-1.717-3.617-1.648-2.801 4.026 2.96 5.769 3.617 1.648M304.142 495.584c.953-3.572-2.215-4.744-3.375-2.55-1.519 2.875 1.095 3.598 3.375 2.55M303.782 490.784c2.439 3.265 5.089-1.154 3.936-2.39-1.572-1.688-3.803.36-3.936 2.39" style="fill:#fdfdfe;fill-rule:evenodd"></path><path d="M188.426 519.564c-1.217 2.239-.54 3.7 1.598 4.354 2.71-1.326 1.684-5.006-1.598-4.354M392.215 243.931c-.308 1.541-.247.688 2.659 2.628 2.408 1.608 2.401-.704 2.47-2.568zM282.371 491.674c.703-3.433-2.617-3.896-3.391-2.221-.937 2.026 1.146 3.684 3.391 2.221M293.77 464.21c2.19.648 3.108-.472 3.433-2.335-2.209-1.977-4.567-1.801-3.432 2.335M302.893 472.76c-.6 3.094 2.22 4.126 3.307 2.926 1.052-1.162-.291-3.751-3.307-2.926M236.07 472.177c1.377-2.253-.11-4.231-2.402-3.527-2.064.633-.138 3.53 2.401 3.527M234.71 550.569c.094 2.797 3.062 2.582 4.088.414-1.05-2.184-2.828-2.089-4.087-.414M379.021 434.472c1.437-1.615-1.497-3.402-2.929-2.075-1.738 1.612 1.289 3.919 2.93 2.075M279.17 476.299c2.822.445 3.597-.102 3.332-2.902-2.177-.474-3.676.29-3.332 2.902M308.191 487.545c2.069.726 3.083-.555 2.89-2.56l-1.642-.819c-1.518.744-2.175 1.676-1.248 3.379M379.924 395.976l.15-2.6c-4.311-1.203-4.014 3.997-.15 2.6M276.292 488.738c1.928.209 2.166-.031 2.783-1.608-.583-1.268-.783-1.557-2.46-1.61-.692 1.42-.815 1.46-.323 3.218M299.826 498.465c-.104-1.475.075-1.11-.791-2.207-3.348.397-3.26 5.574.79 2.207M330.096 437.396c1.016-.076 1.197-.45 1.618-.804-.477-2.985-3.991-2.244-3.429.1.494.442.525.8 1.811.704M238.495 539.823c-.575-.593-1.066-.475-1.983-.392-1.05 4.22 4.377 2.859 1.983.392" style="fill:#fdfdfe;fill-rule:evenodd"></path><path d="M190.731 246.806c.227-3.064 1.406-2.193 3.768-2.688 1.083-.227 4.432-2.17 5.185-.242.767 1.962-7.348 3.41-8.953 2.93m-2.349-2.698c.078-2.106 1-2.228 2.887-2.782 1.99-.584 3.222-1.66 3.748.758-1.204.957-4.666 2.195-6.635 2.024m-1.275-2.765c.763-1.479 2.833-3.95 5.09-2.99-.062 1.595-.245 1.572-1.674 2.16-1.018.418-2.196.682-3.416.83m-.754-7.888c-7.176 1.854-10.024-10.82-7.663-13.507 3.01-3.426 9.194 7.478 7.663 13.507m58.073-36.162c5.766-2.962 6.029 5.08 2.632 6.476-5.871 2.412-6.553-4.462-2.632-6.476m-12.638.243c2.657-1.062 5.795.72 6.524 2.463.903 2.161 1.101 5.938-1.212 6.673-5.707 1.813-9.688-7.386-5.312-9.136m126.24-1.979c5.3-1.237 4.598 7.23-.344 8.612-5.676 1.587-5.452-7.258.345-8.612m-14.054-.745c4.57-1.614 7.042 7.35 3.105 9.097-4.5 1.996-7.968-7.38-3.105-9.097m66.366-1.01c.718 1.249-.67 2.45-1.215 2.925-5.498 4.8-9.846-2.257-8.876-5.904 2.96.487 2.693 2.956 6.4 2.511 1.386-.166 2.854-.99 3.69.467m-173.935-11.09c5.869-3.787 9.657 10.986 4.715 12.613-2.814.927-5.722-2.396-6.312-4.224-.852-2.642-.153-7.259 1.597-8.388m56.81-3.349c6.884-3.718 10.538 12.587 3.654 16.606-6.837 3.992-11.217-12.52-3.654-16.606m61.396 2.523c4.08-1.687 8.594 7.427.885 10.532-7.076 2.85-6.153-8.355-.885-10.532m-84.868-29.022c-.652-.533-1.165-.615-.755-2.185.626-2.4 4.443-2.118 7.283-2.098 2.758.019 3.225.31 3.348 3.084.403 9.086-2.078 9.369 8.645 10.075 3.057.202 8.745 1.28 10.8-.888 1.35-1.424 1.137-2.666 3.335-2.844 2.108-.171 2.614 1.007 5.347.91 5.162-.184 4.486-3.427 4.552-8.075.034-2.41.075-3.517 1.96-4.209 6.054-2.221 7.959 3.574 5.062 4.053-1.35.224-4.36-.121-6.182.078-.034 1.62-.307 3.831.351 5.027 1.84 3.13 5.507.015 4.858 7.203l-6.463.07c-1.963-.819.004.088-1.274-.995-2.846-2.412-7.884-.932-10.33 1.235-4.75 4.207-1.585 7.143-2.89 13.283-8.852 2.044.04-11.707-7.363-11.078-1.12 3.112.527 2.875 1.227 5.53.551 2.087 1.074 5.671-.067 7.205-1.844 1.94-2.247.03-4.172-.52-1.376 1.69-.067 1.759-2.856 1.84-3.418.1-10.401-1.29-12.397-.094.451 1.65 1.095 1.332 3.206 1.4 5.953.193 16.199-1.556 11.648 8.143-2.185 4.657-3.673 1.868-3.282 5.325 2.963.506 2.137-.68 3.67-1.84l2.11 3.976c-.587.373-.178.044-.96.301-1.753.579 1.314-.637-.636.196-1.08.46-.143-.522-1.174.909-.254.352-.974 1.96-1.214 2.526-.564 1.324-1.18 4.059-2.48 4.577-.235-1.51.041-1.765.039-3.136-.012-5.928-3.262-.109-8.265 1.932-3.695 1.507-7.778 1.896-10.125-.646-.423-2.166-.505-3.717 1.577-4.454 2.39.788.943 2.994 5.673 2.213 2.28-.377 4.21-1.639 5.46-2.828 2.18-2.075 5.55-8.436 1.96-11.325-4.445-.173-5.507 6.526-9.482 4.036-1.065-2.115.34-2.109.473-4.252-1.641-1.485-2.709-.756-3.684-2.488.964-1.807.911-.243 1.972-1.773 2.235-3.225-4.023-4.245-4.107-4.288-.838-3.493.148-4.198 2.15-5.952 5.344-4.68 13.816-.12 21.16-3.653.33-2.067.652-2.999-.507-4.651-3.604-1.02-10.948 1.166-13.529-.852-3.11-2.504 1.266-5.36 1.744-6.512 1.796-4.338-3.714-2.023-5.416-3.49m24.166 2.433c-2.892.895-2.852-.104-5.247-.344-1.845-.186-3.41.392-5.09-.216-.813-9.102-2.156-6.55 7.575-5.5 4.54.49 13.44-2.195 16.5-1.093.453 10.463.237 2.833-13.738 7.153m-96.708 94.877c.241-.823.292-.424-.303-1.05.622-1.628 1.204-1.872 2.893-2.65 1.24-.57 2.615-1.232 4.118-1.131 1.653-.826.671-.353 1.45-1.313-15.291-4.462-14.973-17.962-16.451-20.315-1.92-3.054-4.837-3.354-6.631-5.285-.968-4.124 1.058-8.103-1.291-12.899-2.362-4.82-13.614-5.04-13.778.463-.267 8.989 4.365 6.071 4.523 9.584.082 1.827-1.578 3.101-3.37 2.64-1.46-1.35-.804-1.88-1.193-3.84-.545-2.754-4.01-5.812-5.4-8.714-1.378-2.878-1.341-5.074.714-7.301 2.695-2.921 3.909-.796 6.865-2.303-.284-.918-.431-1.025-1.985-1.418-.85-.216-2.06-.373-3.018-.437-8.093-.538-8.073 5.567-5.451 11.425 1.34 2.994 4.957 6.099 5.363 7.952.758 3.462-3.39 6.288-6.18 6.87-.02-4.638 3.153-5.524-1.405-10.939-2.076-2.465-4.484-5.545-3.86-10.098.816-5.966 5.66-9.824 11.134-9.903 1.157-.017 1.833.077 2.936.258 5.863.96-.802-4.436 4.016-9.107 1.7-1.648 6.38-3.363 9.389-2.234-.545 2.437-8.592 4.254-5.505 14.232 2.102-3.1-1.404-7.347 5.444-8.448 5.108-.821 7.63.57 8.837 4.362-4.951-.72-8.795-2.508-10.958 2.587-2.14 5.043 1.203 7.98 5.104 9.253 4.457 1.455 8.95 1.27 11.982-1.259 3.435-2.864 3.182-6.877 3.502-11.959 1.888.44 1.076.545 2.329 2.017.96 1.128 1.027.63 1.858 1.87 1.038 7.409-4.732 11.28-10.88 12.258.988 5.089 8.59 1.602 10.986-.117 5.273-3.78 4.513-6.94 9.523-6.052 1.011 4.635-2.819 6.975-5.504 8.823-5.041 3.47-7.693 1.804-11.13 3.33.383 5.128 11.173 1.45 14.643.207 1.826-.653 4.782-4.228 4.81.203.006.82-.279 1.56-.704 2.229-.682 1.072-2.032 1.95-3.642 2.56-4.114 1.562-7.327.549-11.394 1.054-.154 3.465 7.992 11.509 11.18 7.846 1.18-2.035-.172-3.03 2.054-3.631 3.699 2.13.505 8.28-3.661 8.03-3.913-.233-6.038-4.313-8.341-6.084-6.54-5.027-12.032 6.973-1.5 12.711 6.112 3.33 16.552 4.683 23.281 1.69 18.115-8.055 12.513-24.048 16.522-26.626 1.857-1.194 3.811-.207 4.47 1.418 1.649 4.064-.243 7.36 8.471 13.046 9.714 6.338 23.482 4.504 30.317-5.197 3.289-4.668 8.766-13.554 6.91-21.722 2.163.586 2.181 1.506 4.501 1.692 8.832.709 5.72-3.696 9.389-7.697 2.215.856.781 1.605 2.901 2.488 2.298-3.303-1.893-4.428-2.967-7.817-1.769-5.586 2.783-5.216 4.591-6.665-1.277-3.402-3.743-.33-6.28-.387-2.129-3.966-2.67-11.016 1.755-13.797 1.955 1.208 1.893 2.915 5.013 3.78 4.725 1.31 12.323-.808 16.69.74 1.231.435 3.85 2.963 4.387 4.273-1.291 3.214-3.51 2.788-5.917 4.561.742 2.462 2.671 3.244-1.634 4.77.196 1.94.628 3.239-.221 4.817-1.668 1.673-8.682-3.58-10.82-.05-1.86 3.069 3.698 16.332 10.43 12.569 2.787-1.56-.993-4.047 4.592-3.47 4.916 6.864-4.232 7.94-8.856 6.24-4.345-1.599-5.371-4.98-7.621-5.567l.348 6.608c-5.976-.95-2.611-5.901-6.391-6.388-4.294 4.537 1.258 15.371 3.285 18.641 3.298 5.32 6.958 8.372 14.694 9.673 7.858 1.32 14.386-2.906 17.473-6.572 5.525-6.563 4.27-9.618 8.479-10.016 1.816-.172 3.53-.596 5.306-.524 2.537 10.283 3.237 14.849 8.868 22.258 11.159 14.681 35.892-.482 35.641-7.38-.09-2.48-1.923-3.466-4.54-2.87-3.34.761-3.885 4.832-10.444 4.951-5.112.093-9.573-2.248-6.797-7.321l3.64.147c.768 1.71-.294 7.287 7.888 1.97 3.477-2.26.618-2.494 5.785-3.42-.396-1.24-.25-1.257-1.698-1.924-2.488-1.147-5.687-.522-8.317-1.127-11.46-2.634-9.361-13.47-2.736-8.91 1.848 1.272 3.397 3.36 5.706 3.902q1.528.36 2.222-.5c2.187-3.252-4.81-3.976-6.637-5.116-2.118-1.32-5.18-5.276-1.975-7.984 3.149-2.66 6.148 1.662 7.228 3.562.877 1.541 2.992 6.097 5.35 5.276 3.056-1.061-2.915-7.81-2.97-11.713-.051-3.7 2.373-10.44 5.458-9.301 1.329 6.152-2.79 16.26 6.53 17.13 6.494.607 14.834-3.663 13.198-10.337-3.94-4.328-11.738 2.184-12.85-3.789-1.1-5.913 7.34-5.579 11.188-3.634 4.207 2.126 1.672 3.834 2.876 5.915 1.304 2.254 3.569.21 2.719-4.06-1.455-7.304-6.368-5.536-9.584-7.7 2.079-2.225 7.841-2.174 10.93-1.114 4.515 1.548 3.156 5.503 3.2 8.886 3.294 1.7 6.113-.007 10.747 3.292 2.396 1.706 4.388 5.414 3.622 10.082-.808 4.919-3.206 5.132-4.654 9.462-2.21 6.607.688 7.477.43 11.643-6.077.421-4.455-8.714-3.321-12.059 1.15-3.395 7.417-10.676 2.076-11.508-1.135 2.521-.165 3.699-.889 6.065-.41 1.34-2.008 2.634-2.899 4.17-2.752 4.743-1.447 6.8-2.834 10.808-2.567.509-4.415.043-5.458-1.581 1.145-3.123 5.19-2.224 5.264-8.287.051-4.2-2.117-7.295-6.383-7.105-10.948.488-12.6 11.957-7.557 13.844 1.226.669.581-.745.737-1.737.411-2.6-.997-1.574 1.072-2.394 1.55-2.38 2.713-6.432 7.16-4.937 3.353 3.119-.087 5.736-2.043 7.093-5.837 4.05 1.744 10.412 7.237 10.757 1.968.124 3.77-.27 5.83-.164 3.755.195 7.898 2.128 7.108-3.93-1.628-1.038-3.224-.516-3.424-3.55-.44-6.684 6.128-5.74 6.471-14.944.56-15.026-8.377-13.399-12.994-15.704-.628-3.413.838-5.788-3.031-6.53-6.998-1.34-2.67-5.274-15.675-3.344-3.857.573-2.924 1.936-4.573 4.86-1.414.593-1.12-.113-2.429.879-1.113.843-.57 1.02-1.57 2.034-2.652 1.178-8.529-5.482-13.235 4.737-1.301 2.824-.286 3.84-.735 6.285-3.515-.173-3.617-1.81-7.98.332-2.493 1.224-3.629 3.285-3.438 6.886.268 5.06-2.8 3.392-2.233 8.273.542 4.656 3.604 2.969 4.483 5.817-.013 1.683-3.48 2.46-4.595 4.33-1.323 2.216-1.102 5.573.589 7.746 4.253 5.464 9.477 1.464 14.528 3.604-.9 5.212-18.08 13.19-26.339-7.953-.949-2.43-5.33-12.263-1.403-12.914.318-.053 1.26.095 1.693.103 6.364.116 5.51-12.228 2.878-15.64-3.396-4.402-.455-1.9-1.16-6.632-1.157-7.76-11.49-9.364-15.193-2.244-1.284 2.47-.286 5.706-1.397 7.733-2.094.549-8.215-3.868-8.083 4.873.064 4.28 1.294 3.228 2.513 5.092.606.928.35 1.762.232 2.94-.483 4.79 3.983 1.782-3.775 12.355-9.379 12.783-25.963 3.844-25.421-5.87.398-7.115 12.692 1.639 16.161-4.649.52-.942.57-2.093 1.007-2.694.651-.896 1.397-.757 2.408-1.274.96-3.706-.557-6.875-3.576-8.215-1.408-.624-3.994-.82-5.547-.556-1.62.276-3.114 2.358-4.3.853-.945-2.072.64-3.396 2.99-3.595 1.976-.168 4.738 1.326 6.084.006 1.631-1.427-.327-4.699 1.783-8.116.56-.906 7.116-6.441 3.007-9.654-1.59-1.244-2.627-3.266-4.441-4.579-1.318-.952-2.561-.673-4.331-.777-.569-1.52 1.118-1.962-2.625-2.995.187-1.636.54-4.003.276-5.597-.301-1.808-1.46-2.437-.967-4.117 2.936-1.26 5.062-.341 5.556-3.523.337-2.174-1.172-5.577-2.268-6.845-1.285-1.487-4.605-2.42-7.006-2.665-4.37-.446-4.649.454-6.644 3.07-2.785-.48-1.246-2.014-3.926-.254-1.812 1.189-3.162.83-5.607.759-5.349-.154-25.832-1.954-29.415.741-.65.489-.808.857-1.652 1.245-1.575.725-.989-.207-2.409.81-1.525 5.334 2.481 5.762 3.201 8.766.507 2.112-.176 3.685-.003 5.757.193 2.304 1.32 2.278.982 4.648-3.885.512-5.612.163-8.168 2.649-1.767 1.718-3.213 4.811-3.09 8.005.178 4.653 2.814 2.291 3.967 7.078.6 2.494 1.137 1.59 2.617 2.876 1.5 1.304.527 2.573 1.213 4.608 2.638 1.078 5.262.431 8.402.762-.475 5.031-3.383 4.613-7.648 3.032-4.08-1.513-8.056-.056-7.894 4.473.135 3.761 3.289 6.216 6.165 7.203 4.37 1.499 7.447.173 11.35-.805 1.078.72 1.06 1.186 1.984 1.545 1.435.556 1.5-.119 3.252.487 1.081 4.727-5.035 11.757-8.989 13.528-9.372 4.196-19.306.435-22.749-8.71-.593-1.577-1.066-3.113-.876-4.898.563-5.3 3.757-.572 4.301-6.841.618-7.113-1.187-4.258-3.72-7.453-2.928-3.694-3.752 0-4.165-6.922-.179-2.997.97-3.153.71-4.881-.358-2.364-4.373-4.021-7.477-4.252-2.945-.219-6.644.559-8.144 3.5-.638 1.253.043 7.942-.31 10.497-2.955 1.795-7.434 3.352-4.875 8.908.916 1.989 2.34 2.155 3.383 3.67.476.692.843 1.82 1.325 2.406.914 1.11 1.043.684 2.259 1.425 1.32 4.367-.334 10.896-2.47 14.252-2.14 3.361-5.117 6.21-9.38 8.053-5.334 2.305-8.361 2.185-13.758.045-2.832-1.123-11.843-4.024-7.811-7.297.087.069.192.092.226.244.342 1.563 3.656 3.771 5.042 4.175 2.24.653 6.747.802 9.098.573 3.752-.365 4.317-1.847 4.23-5.64-.072-3.117-.448-6.271-.17-9.452 1.396-1.062 2.353-2.209 1.583-4.402-.637-1.815-1.696-.71-1.883-2.32-.343-2.966 1.45-1.656-2.325-4.149.108-3.434.849-6.29-1.132-8.444-1.694-1.842-5.248-1.285-6.525-3.858-1.043-2.103-.165-1.805-2.11-2.857-2.032-1.099-1.42-.85-2.936-2.439-1.283-1.343-3.072-2.423-5.174-2.56-.562-.038-.659-.081-1.213.036-2.835.601 1.88-.836-.699.257-.105.045-.23.149-.312.19-3.425 1.734 4.707 9.42-3.531 13.932-4.916 2.692-11.819.36-9.31-5.527 3.318-.362 8.13 4.942 8.363-4.063.206-7.956-1.465-5.708-3.392-8.144-.691-.874-.49-1.603-1.408-2.733-2.445-3.007-9.3-1.698-13.027-.385-5.108 1.8-5.038 3.765-6.995 8.77-6.93 1.487-15.987 2.44-16.495 12.89-.22 4.534 1.8 8.304 3.919 10.486 4.51 4.65 1.534 5.75 2.225 11.918 1.568.323 3.594-.134 5.316-.54 2.91-.683 2.31-1.009 4.232-2.207 1.624 1.024 1.984 2.952 5.98 1.628 1.736-.575 3.786-2.145 3.399-4.587-.392-2.472-2.257-2.153-2.868-5.53-2.522-13.948 12.032-3.525 6.046 5.505-3.211 4.844-4.043 8.391-.951 14.384.954 1.848 3.12 3.554 4.577 4.969 3.247 3.152 1.45 2.873 2.776 7.143 2.274 7.33 5.344 7.174 12.258 7.59zM370.95 397.57c-.099-2.892 5.436-4.254 5.683-.807.238 3.324-5.583 3.69-5.682.807m8.974-1.594c-3.864 1.397-4.161-3.803.15-2.6zm-15.186 7.227c10.267-2.821 18.181 1.303 18.084-12.5-2.674.68-11.071 1.878-12.654 2.545-3.159 1.333-4.829 6.003-5.43 9.955M368.122 435.716c1.062-3.101 4.961-2.275 5.112-.409.1 1.236-.901 1.997-2.1 2.125-2.13.227-2.232-.594-3.012-1.716m10.9-1.244c-1.642 1.844-4.668-.463-2.93-2.075 1.432-1.327 4.366.46 2.93 2.075m-18.731-1.679c1.478 2.493 5.925 6.153 10.031 6.729 9.149 1.28 21.308-14.574 3.18-8.94-4.92 1.53-7.624 3.007-13.211 2.211M192.1 528.137l.188-2.944c1.428-.253 1.671.058 2.612.891l-.02 1.94c-.265.15-.688.579-.873.769-.549-.045-.23.052-.798-.151zm-3.674-8.573c3.282-.652 4.308 3.028 1.598 4.354-2.138-.654-2.815-2.115-1.598-4.354m-1.268-2.58-.069-1.572c3.052-.408 2.097 2.647.069 1.571m4.941 11.153c.722 3.167 1.295 3.125.719 7.064 4.98-1.69 3.677-9.514 1.705-13.59-1.058-2.19-2.699-3.486-4.011-5.534-1.496-2.334-2.104-4.186-2.033-7.55-3.063 2.465-3.9 7.686-2.869 11.202.91 3.105 2.936 4.177 5.705 7.584zM351.36 448.07c2.324-1.136 3.302-4.452 3.031-7.705-.152-1.83-.408-2.8-1.488-3.819-2.412-2.273-.773-1.701-1.642-3.169-2.014.266-3.394.752-3.63 2.433-.536 3.827 5.452 1.87 3.73 12.26M203.296 557.255c.387-10.82 5.02-6.559 5.725-10.504-2.578-1.818-7.728-.235-8.655 2.141-.655 1.677-.287 3.503.345 5.043.64 1.563 1.124 2.752 2.585 3.32" style="fill:#148dcf;fill-rule:evenodd"></path><path d="M351.36 448.07c1.723-10.39-4.265-8.433-3.728-12.26.235-1.68 1.615-2.167 3.629-2.433.869 1.468-.77.896 1.642 3.17 1.08 1.017 1.336 1.988 1.488 3.818.271 3.253-.707 6.57-3.03 7.706m8.93-15.277c5.588.796 8.293-.682 13.212-2.21 18.128-5.635 5.969 10.22-3.18 8.939-4.106-.576-8.553-4.236-10.031-6.729M331 414.555c8.31-.745 13.958 29.532-3.562 24.237-3.45-1.043-3.736-4.98.576-4.983 4.046-.002 6.716.743 8.08-2.92 2.393-6.425-4.206-13.153-5.093-16.334m24.682 1.918c1.87-1.03 3.929-1.923 4.947-3.615 2.273.294 3.947.901 6.432 1.063 1.422.093 2.263.048 3.665-.054l2.725.429c-8.789 2.552-6.663 4.069-19.781 3.622zm-15.972-8.017c6.855.647 12.299-2.848 15.15-8.09.575-1.055 1.415-4.147 2.495-4.713 1.543 4.874-1.714 12.051-4.195 13.777-3.224 2.242-11.295 2.278-13.45-.974m25.028-5.253c.601-3.952 2.271-8.622 5.43-9.955 1.583-.667 9.98-1.864 12.654-2.545.097 13.803-7.817 9.679-18.084 12.5m-79.582 97.84-9.332-10.592c-3.903-4.404-2.161-3.633-8.12-4.44-9.03-1.224-17.916-3.452-25.284-7.326-8.253-4.34-13.265-8.588-17.995-14.78-3.948-5.167-9.956-18.326-8.405-23.54 1.48 5.669 3.28 11.032 6.833 15.588.734.94 1.033 1.422 1.603 2.126 4.86 5.997 13.326 10.877 20.588 13.386 7.873 2.72 16.933 4.157 25.819 4.12 5.121-.02 7.235-3.02 9.516-5.47 1.89-2.031 5.374-6.157 6.593-8.793-12.84-.378-41.03-.703-50.991-9.79-11.142-10.164-14.097-23.006-5.464-36.256 14.98-22.989 43.307-21.599 67.95-13.818 9.597 3.03 22.025 7.052 28.544 12.486 2.772 2.31 7.248 7.926 6.25 13.762-1.166 6.813-10.925-2.751-12.135 6.866-.834 6.63 6.037 8.93 12.26 7.713 8.459-1.655 6.095-8.71 11.414-9.563-2.514 4.928-1.062 4.712 1.532 8.348 3.526 4.945 1.748 4.193 1.793 9.416 3.204.986 8.302-2.403 9.534-3.803 2.837-3.223-.968-7.38-.491-11.252 4.019.446 3.39 9.001 17.886 6.624 7.764-1.273 13.836-7.284 11.424-12.955-1.353-3.183-5.324-3.092-9.495-2.797-4.64.328-6.221 1.828-10.115 2.627-6 1.23-18.88-.137-21.098-3.58 2.216-1.367 13.862.509 17.913-.336 4.505-.938 11.432-3.748 16.078-3.217.778.388 1.06 4.686 6.322 3.166 2.356-7.93-13.63-3.835-18.276-2.931-4.868.947-21.158 2.702-23.322-1.657l1.32-.34c3.415-.046 9.796 3.727 24.73-1.104 3.741-1.21 7.21-2.847 10.414-4.527 2.472-1.296 8.957-4.082 5.235-7.462-3.88-2.562-8.506 4.43-14.273 5.091-2.875.33-3.45.082-5.262-1.525-.612-4.343 2.304-4.511 5.88-4.876 5.649-.578 10.502-.38 12.974-8.624.876-2.923 1.084-7.025-.254-9.596-2.92.456-5.65 1.443-8.727 1.914-2.877.441-6.656.021-8.858 1.437-5.44 3.5-3.442 9.536-5.686 15-5.515 13.438-27.52 10.27-27.826 5.083 1.328.429 4.387 3.845 12.97 3.574 14.797-.468 17.142-19.913 13.412-25.31-1.03-1.49-3.243-3.279-5.688-2.498-.15 8.024-2.957 13.31-7.679 16.414-7.648 5.027-29.073-6.447-36.584-9.1-6.263-2.212-11.998-3.883-18.754-5.251-40.483-8.2-87.812 12.801-88.769 51.586-.404 16.385 4.38 26.071 12.26 35.66 6.642 8.083 15.255 15.18 27.992 20.083 11.3 4.35 28.498 7.296 41.844 5.04" style="fill:#fefeff;fill-rule:evenodd"></path><path d="M199.201 574.165c2.023-.722 3.79-.116 5.53-1.839 1.553-1.538 1.012-3.616 1.538-5.96 2.434.958 2.531 5.63.913 7.567-1.395 1.67-4.236 1.875-6.337 1.413-1.783-.39-1.07-.143-1.644-1.181m4.095-16.91c-1.461-.568-1.945-1.757-2.585-3.32-.632-1.54-1-3.366-.345-5.043.927-2.376 6.077-3.959 8.655-2.14-.705 3.944-5.338-.317-5.725 10.503m44.342-36.97c1.673 2.07-.184 4.804 2.147 8.652 1.82 3.002 2.497 4.951 1.758 8.885-1.36-.854-.488.124-1.064-2.098-.24-.92-.472-1.714-.863-2.487-.868-1.717-1.743-2.677-2.836-3.784-2.312-2.344-3.032-8.968.858-9.169m-22.705 5.355c-3.476-2.337-3.466-9.934-.937-13.226 1.437-1.87 4.394-2.755 7.038-2.124 2.76.658 3.188 3.887 1.163 5.7-4.137.501-2.97-2.978-7.052-3.147-4.132 4.95-.519 8.428-.212 12.797m72.563-64.993c.528 1.486 5.312 6.88 6.634 8.545 2.494 3.143 4.972 5.956 9.395 5.976 10.006.045 20.29.114 30.287.44 8.897.292 17.72 2.847 23.196 7.371 4.898 4.047 10.216 10.815 10.91 20.136-.575-.58-.239-.039-.87-1.136l-1.54-3.447c-.838-1.592-1.613-2.919-2.488-4.157-7.075-10.017-16.306-11.216-28.806-11.285-8.47-.047-17.046.585-25.309 1.45-2.788.292-3.687-.059-4.985 1.722l-8.368 12.248c5.607-.258 11.795-1.313 17.523-1.829 15.98-1.44 38.34-3.506 46.232 9.719 5.507 9.228 2.642 22.087-1.638 30.714-2.294 4.625-4.245 7.696-7.934 11.155-2.746 2.576-7.892 5.612-11.97 7.526-20.708 9.723-42.006 8.738-64.372 2.151-11.393-3.355-17.615-7.711-24.856-13.705-6.573-5.44-2.273-7.108-5.933-13.157-1.066-1.762-2.929-4.342-2.423-6.952.566-2.921 2.857-4.467.642-7.379-3.874-.694-8.468 4.527-8.252 8.522.25 4.627 5.93 6.886 4.746 11.721-4.979 2.56-2.062-4.354-11.096-7.326-3.697-1.216-4.487-1.126-6.335-3.64-1.189-1.616-3.306-4.7-2.743-7.12l.686-.203c1.92-.129 6.224 3.144 8.598-2.573 4.12-9.923-19.41-12.596-17.541 3.553l.096 2.216c-.193 1.103-.049.508-.358 1.052-.073-.084-.177-.329-.208-.262l-.386-.537c-2.288-3.753-3.774-13.112-13.981-13.477 1.294 9.188 6.196 20.392 12.349 23.362 4.048 1.955 11.997.107 17.123.78 3.084.406 3.866 1.604 5.403 3.245 1.461 1.56 2.92 3.667 2.496 6.696-3.267 2.35-5.717-.313-7.915-2.104-5.468-4.456-12.99-3.145-18.02-6.84-1.682-1.235-5.143-5.383-8.213-3.727-1.881 2.197-.333 4.155 1.373 5.155 2.044 1.198 3.946 1.105 6.363 1.604 4.687.967 13.037 4.18 17.33 6.62 2.474 1.406 2.814 2.252 4.55 3.75 3.432 2.96 10.408.469 12.236 4.178-.947 2.61-3.31 1.905-6.459 1.874-7.722-.075-8.204.89-12.228 4.964-.79.8-1.299 1.266-2.074 2.071-1.143 1.188-1.087 1.59-2.815 1.972 3.042-13.279.949-7.637-4.354-13.867-7.613-8.945-21.516-5.73-24.358-.155-3.748 7.354 8.487 12.421 7.396 19.304-.594 3.75-5.27 5.585-8.232 3.153-1.27-1.044-2.428-2.256-4.375-2.715-1.85-.436-5.007-.624-5.643 1.228 2.165 2.044 5.048-.66 7.004 3.267 1.247 2.503 2.374 4.667 5.047 5.695 2.525.972 6.586.186 8.902-.77 2.564-1.058 4.328-2.84 5.21-5.567 2.922-9.023-4.033-10.153-4.326-15.507-.186-3.409 1.034-6.383 4.5-6.096 4.414.365 3.307 3.61 3.804 7.028 2.565.104 3.118-.913 5.901-.541 2.747 6.713-1.855 7.395-1.79 9.634.072 2.408 3.52 1.087 4.682.442 4.807-2.667 5.28-12.833 21.07-11.851 8.877.552 13.02 3.437 20.05 6.23 6.135 2.438 13.413 4.374 20.233 5.916 37.896 8.568 76.678 3.746 95.207-27.761 2.741-4.661 6.489-12.21 7.688-18.46 3.086-16.092-2.858-30.85-10.533-40.407-3.747-4.665-8.258-8.783-13.59-12.516-17.756-12.432-48.03-8.561-67.545-7.316M400.14 221.713c-.529 1.547-.192 1.306-1.213 2.077-1.616-2.52 1.815-6.7 3.12-8.025 4.541-4.606-.564-5.171 1.03-8.402 2.575.332 1.156 1.634 2.154 4.395.896 2.483 1.098 2.848-.79 4.322-3.147 2.457-3.184 2.372-4.3 5.633M205.358 244.03c2.777 2.14 9.53 2.171 13.336 1.38 4.695-.976 7.786-3.184 10.612-5.5 2.373-1.944 5.077-5.682 6.978-9.174 3.919-7.203 2.348-9.907 5.966-10.166 1.024 1.04 1.46 2.206 2.288 3.472 6.396 9.781 16.786 13.297 28.668 9.613 8.707-2.699 14.754-9.583 17.998-17.224 1.552-3.655.818-7.122 5.125-7.273 2.86 11.188 7.677 21.367 19.758 25.014 9.746 2.942 20.883-2.787 27.016-10.606.838-1.069 3.928-6.4 6.73.05 1.832 4.216 5.244 11.585 8.184 14.192 8.355 7.407 22.7 7.536 33.959 1.041 1.786-1.03 2.824-1.689 4.511-2.94 1.08-.799 3.44-2.609 4.108-3.337 3.263-3.558-2.353-7.156 2.64-11.48 2.962-2.566 7.614-4.853 7.205-7.508-5.044-1.886-3.391-13.355 7.557-13.844 4.265-.19 6.434 2.907 6.383 7.106-.073 6.063-4.119 5.163-5.264 8.287 1.043 1.624 2.89 2.09 5.458 1.58 1.387-4.007.082-6.064 2.834-10.807.891-1.536 2.49-2.83 2.899-4.17.724-2.366-.246-3.544.889-6.065 5.341.832-.926 8.113-2.076 11.508-1.134 3.345-2.756 12.48 3.32 12.059.259-4.166-2.64-5.036-.43-11.643 1.45-4.33 3.848-4.543 4.655-9.462.766-4.668-1.226-8.376-3.622-10.082-4.634-3.3-7.453-1.591-10.747-3.292-.044-3.383 1.315-7.338-3.2-8.887-3.089-1.059-8.851-1.11-10.93 1.115 3.216 2.164 8.13.395 9.584 7.7.85 4.27-1.415 6.314-2.72 4.06-1.203-2.08 1.332-3.79-2.875-5.915-3.849-1.945-12.288-2.28-11.187 3.634 1.111 5.973 8.91-.539 12.849 3.79 1.636 6.673-6.704 10.943-13.198 10.336-9.32-.87-5.201-10.978-6.53-17.13-3.085-1.139-5.51 5.601-5.457 9.3.054 3.903 6.025 10.653 2.97 11.714-2.36.82-4.474-3.735-5.35-5.276-1.081-1.9-4.08-6.222-7.23-3.562-3.204 2.708-.142 6.663 1.976 7.984 1.828 1.14 8.824 1.864 6.637 5.117q-.695.859-2.222.499c-2.309-.543-3.858-2.63-5.706-3.901-6.625-4.561-8.725 6.275 2.736 8.91 2.63.604 5.83-.02 8.317 1.126 1.447.667 1.302.683 1.698 1.925-5.167.925-2.308 1.158-5.785 3.418-8.182 5.318-7.12-.26-7.888-1.969l-3.64-.147c-2.776 5.073 1.685 7.414 6.797 7.321 6.559-.12 7.104-4.19 10.443-4.95 2.618-.597 4.451.389 4.541 2.869.251 6.898-24.482 22.061-35.64 7.38-5.632-7.409-6.332-11.975-8.87-22.258-1.774-.072-3.489.352-5.305.524-4.21.398-2.954 3.453-8.48 10.016-3.086 3.666-9.614 7.893-17.472 6.572-7.736-1.301-11.396-4.353-14.694-9.673-2.027-3.27-7.579-14.104-3.285-18.641 3.78.487.415 5.438 6.391 6.388l-.348-6.608c2.25.588 3.276 3.968 7.62 5.566 4.625 1.701 13.773.625 8.857-6.238-5.585-.578-1.805 1.91-4.593 3.469-6.731 3.763-12.29-9.5-10.43-12.57 2.14-3.528 9.153 1.724 10.82.05.85-1.577.418-2.876.222-4.815 4.305-1.527 2.376-2.309 1.634-4.77 2.407-1.774 4.626-1.348 5.917-4.562-.537-1.31-3.156-3.838-4.387-4.274-4.367-1.547-11.965.572-16.69-.739-3.12-.865-3.058-2.572-5.013-3.78-4.424 2.781-3.884 9.83-1.755 13.797 2.536.058 5.003-3.015 6.28.387-1.807 1.45-6.36 1.079-4.59 6.665 1.073 3.39 5.264 4.514 2.966 7.817-2.12-.883-.686-1.632-2.901-2.488-3.67 4.001-.557 8.406-9.389 7.697-2.32-.186-2.338-1.106-4.5-1.692 1.855 8.168-3.622 17.054-6.91 21.722-6.836 9.701-20.604 11.535-30.318 5.197-8.714-5.686-6.822-8.982-8.47-13.046-.66-1.625-2.614-2.612-4.471-1.418-4.01 2.578 1.593 18.571-16.522 26.626-6.73 2.993-17.17 1.64-23.282-1.69-10.531-5.738-5.038-17.738 1.5-12.71 2.304 1.77 4.43 5.85 8.342 6.084 4.166.249 7.36-5.9 3.661-8.031-2.226.601-.874 1.596-2.054 3.631-3.188 3.663-11.334-4.38-11.18-7.846 4.067-.505 7.28.508 11.394-1.054 1.61-.61 2.96-1.489 3.642-2.56.425-.669.71-1.408.704-2.229-.028-4.43-2.984-.856-4.81-.203-3.47 1.242-14.26 4.921-14.643-.207 3.437-1.526 6.089.14 11.13-3.33 2.685-1.848 6.515-4.188 5.504-8.823-5.01-.887-4.25 2.272-9.523 6.052-2.396 1.719-9.998 5.206-10.986.117 6.148-.977 11.918-4.85 10.88-12.257-.83-1.241-.899-.743-1.858-1.87-1.253-1.473-.441-1.577-2.329-2.018-.32 5.082-.067 9.095-3.502 11.96-3.032 2.528-7.525 2.713-11.982 1.258-3.901-1.274-7.243-4.21-5.103-9.253 2.162-5.095 6.006-3.307 10.957-2.587-1.207-3.791-3.73-5.183-8.837-4.362-6.848 1.1-3.342 5.348-5.444 8.448-3.087-9.978 4.96-11.795 5.505-14.232-3.01-1.13-7.69.586-9.389 2.234-4.818 4.671 1.847 10.068-4.016 9.107-1.103-.18-1.779-.275-2.936-.258-5.474.079-10.318 3.937-11.135 9.903-.623 4.553 1.785 7.633 3.861 10.098 4.558 5.415 1.384 6.3 1.405 10.939 2.79-.582 6.938-3.408 6.18-6.87-.406-1.853-4.024-4.958-5.363-7.952-2.622-5.858-2.642-11.963 5.451-11.425.958.064 2.168.221 3.018.436 1.554.394 1.701.5 1.985 1.42-2.956 1.506-4.17-.62-6.865 2.302-2.055 2.227-2.092 4.422-.714 7.3 1.39 2.903 4.855 5.96 5.4 8.716.389 1.958-.267 2.49 1.192 3.838 1.793.462 3.453-.812 3.371-2.64-.158-3.512-4.79-.594-4.523-9.583.164-5.504 11.416-5.284 13.778-.463 2.349 4.796.323 8.775 1.29 12.9 1.795 1.93 4.713 2.23 6.632 5.284 1.478 2.353 1.16 15.853 16.45 20.315M220.158 296.4c2.317-3.796 26.02-9.891 32.218-11.082 29.177-5.607 50.037-5.22 79.513-1.909 5.472.615 34.036 4.747 36.208 6.967 3.94 4.028-9.998 6.644-13.04 7.388-31.105 7.602-66.885 8.974-98.704 5.586-6.355-.677-33.336-3.932-36.195-6.95m71.416 16.713c17.157.033 34.62-2.097 50.729-5.323 7.964-1.595 37.014-9.164 42.32-13.265 1.34-1.033 2.448-2.761 1.521-4.814-1.357-3.005-11.228-5.413-14.377-6.342-7.45-2.197-14.307-4.045-21.991-5.82-31.94-7.374-68.485-7.219-100.514-.274-11.986 2.598-31.051 8.145-40.389 13.518-4.038 2.325-2.722 6.185.469 7.827 5.17 2.66 25.307 7.963 31.08 9.186 17.16 3.639 32.877 5.273 51.152 5.307" style="fill:#fefeff;fill-rule:evenodd" data-source="https://football-logos.cc"></path><path d="M208.547 270.693c1.134 2.8 3.889.833 6.89 2.278 1.132 4.545-1.973 6.384-.467 7.66 1.314.65 6.507-1.856 8.267-2.44 3.032-1.006 5.737-1.905 8.82-2.783 71.131-20.247 143.352 3.42 145.213 2.749 1.129-2.544-1.324-3.559-.206-7.407 2.37-2.274 3.651-.518 6.049-2.13-3.578-3.874-33.228-10.28-39.824-11.451-39.717-7.055-86.998-2.373-125.52 9.77-1.586.5-3.058 1.025-4.687 1.558-.667.218-1.711.532-2.467.81-1.748.646-1.317.264-2.068 1.386" style="fill:#fefeff;fill-rule:evenodd"></path><path d="M381.813 248.246c-.522 1.16-.92 1.987-1.57 2.868-1.753.074-9.25-2.51-11.673-3.127-4.132-1.054-8.045-1.891-12.23-2.668-8.584-1.591-17.338-2.726-26.225-3.55-42.917-3.981-67.374-3.04-108.574 7.795-5.06 1.33-18.796 5.188-22.401 7.445-3.012 1.886-4.28 7.517-.79 9.918 2.907 1.999 8.198-1.09 11.332-2.286 49.81-19.015 103.325-19.459 155.948-7.09 4.974 1.169 20.085 6.206 24.189 5.78 5.851-.609 3.887-6.419 1.207-8.78-3.134-2.763.518-3.992-2.275-5.16-.792-.332-5.963-1.241-6.938-1.145M269.743 152.864c1.702 1.468 7.212-.847 5.416 3.49-.478 1.154-4.854 4.01-1.744 6.513 2.581 2.018 9.925-.168 13.529.852 1.159 1.652.837 2.584.507 4.651-7.344 3.533-15.816-1.028-21.16 3.653-2.002 1.754-2.988 2.46-2.15 5.952.084.042 6.342 1.063 4.107 4.288-1.06 1.53-1.008-.034-1.972 1.773.975 1.732 2.043 1.003 3.684 2.488-.133 2.143-1.538 2.137-.473 4.252 3.975 2.49 5.037-4.21 9.482-4.036 3.59 2.889.22 9.25-1.96 11.325-1.25 1.19-3.18 2.451-5.46 2.828-4.73.781-3.283-1.425-5.673-2.213-2.082.737-2 2.288-1.577 4.454 2.347 2.542 6.43 2.153 10.125.646 5.003-2.041 8.253-7.86 8.265-1.932.003 1.371-.274 1.627-.038 3.136 1.298-.518 1.915-3.253 2.479-4.577.24-.565.96-2.174 1.214-2.526 1.031-1.431.093-.449 1.174-.91 1.95-.832-1.117.384.636-.195.782-.258.373.072.96-.301l-2.11-3.977c-1.533 1.161-.707 2.347-3.67 1.841-.39-3.457 1.097-.668 3.282-5.325 4.55-9.699-5.695-7.95-11.648-8.143-2.11-.068-2.755.25-3.206-1.4 1.996-1.196 8.979.194 12.397.094 2.789-.081 1.48-.15 2.856-1.84 1.925.55 2.328 2.46 4.172.52 1.141-1.534.618-5.118.067-7.204-.7-2.656-2.347-2.419-1.227-5.531 7.404-.629-1.49 13.122 7.363 11.078 1.305-6.14-1.86-9.076 2.89-13.283 2.446-2.167 7.484-3.647 10.33-1.235 1.278 1.083-.69.176 1.274.995l6.463-.07c.649-7.188-3.018-4.073-4.858-7.203-.658-1.196-.385-3.408-.351-5.027 1.822-.199 4.833.146 6.182-.078 2.897-.479.992-6.274-5.062-4.053-1.885.692-1.926 1.798-1.96 4.209-.066 4.648.61 7.891-4.552 8.075-2.733.097-3.239-1.081-5.347-.91-2.198.178-1.985 1.42-3.334 2.843-2.056 2.168-7.744 1.09-10.8.89-10.724-.707-8.243-.99-8.646-10.076-.123-2.774-.59-3.065-3.348-3.084-2.84-.02-6.657-.301-7.283 2.098-.41 1.57.103 1.652.755 2.185M290.91 476.333c8.257-3.278 12.642 9.03 4.487 12.143-8.83 3.373-13.324-8.635-4.487-12.143m.555 21.173c1.865-.79 2.689-2.107 3.739-3.434l6.738-7.348c5.811-5.34 2.64-4.655-3.173-11.354-1.23-1.417-5.984-6.903-7.356-7.287-2.566 2.534-7.823 8.786-9.95 10.593-4.895 4.161-3.668 3.324 3.511 11.322 2.107 2.347 4.412 5.41 6.491 7.508" style="fill:#fefeff;fill-rule:evenodd"></path><path d="M293.215 179.363c-7.563 4.085-3.183 20.598 3.654 16.606 6.884-4.02 3.23-20.324-3.654-16.606M283.573 154.737c1.679.608 3.244.03 5.09.216 2.394.24 2.354 1.239 5.246.344 13.975-4.32 14.191 3.31 13.738-7.153-3.06-1.102-11.96 1.583-16.5 1.093-9.731-1.05-8.388-3.602-7.574 5.5M227.469 549.802c1.79-.506.645-1.084 3.191-1.259 1.553-.107 3.21.516 3.154-1.216-.053-1.617-4.525-2.49-6.085-3.36-5.126-2.854-11.003-7.064-17.374-5.462-1.694.426-2.132.79-2.121 2.609 2.356 1.034 5.344.378 8.086 1.38 6.854 2.504 8.467 8.065 11.149 7.308M236.405 182.713c-1.75 1.13-2.45 5.746-1.597 8.388.59 1.828 3.498 5.15 6.312 4.224 4.942-1.627 1.154-16.4-4.715-12.612M186.353 233.455c1.531-6.03-4.652-16.933-7.663-13.507-2.36 2.686.487 15.361 7.663 13.507M354.611 181.886c-5.268 2.177-6.191 13.382.885 10.532 7.71-3.105 3.195-12.218-.885-10.532M296.742 483.398c2.991-6.149-6.613-8.724-8.852-3.279-2.555 6.208 6.053 9.03 8.852 3.28M410.314 218.886c-2.821.927-4.05 1.616-4.593 5.087-.503 3.207-1.006 6.672 3.148 5.279 2.534-.85 4.508-2.076 4.768-4.976.239-2.668-.41-6.347-3.323-5.39M231.788 197.536c-4.376 1.75-.395 10.949 5.312 9.136 2.313-.735 2.115-4.512 1.212-6.673-.729-1.743-3.867-3.525-6.524-2.463M383.549 440.692c-.036 1.825-.511-.987.115.699.026.07.062.233.098.317l.494.821c2.063 3.06-.523-1.566.613.797-3.824 1.423-9.392.657-11.663.91-.856.096.073-.094-.77.133-1.037.278-.465.04-1.007.47 3.344 2.92 16.041 2.042 19.218-.713.038-3.724-4.32-4.887-7.098-3.434M358.029 195.557c-5.797 1.354-6.021 10.199-.345 8.612 4.942-1.382 5.644-9.849.345-8.612M343.974 194.812c-4.863 1.717-1.396 11.092 3.105 9.097 3.937-1.746 1.466-10.711-3.105-9.097M380.62 271.143c-2.914 5.005 2.77 9.83 6.304 7.455 1.43-.962 1.83-4.308.37-5.803-.905-.926-5.013-1.951-6.674-1.652M260.163 477.137c-5.696 3.227 1.505 7.667 5.153 6.524 3.963-1.242.584-9.774-5.153-6.524M400.249 190.823c-.97 3.647 3.378 10.704 8.876 5.904.544-.475 1.933-1.676 1.215-2.926-.837-1.457-2.305-.632-3.692-.467-3.706.445-3.439-2.024-6.4-2.511M271.323 477.91c-4.352 1.939-2.07 7.763 3.192 6.697 4.443-.9 1.954-8.989-3.192-6.697M244.426 197.294c-3.92 2.013-3.24 8.887 2.632 6.475 3.397-1.396 3.134-9.438-2.632-6.476M204.786 280.73c4.747.8 8.457-3.361 4.57-5.77-1.722-1.07-3.76-.39-4.768.779-1.265 1.467-.477 3.71.198 4.992M312.511 477.629c-.89.479-1.103-.009-1.408 1.712-.553 3.127 2.922 4.913 5.338 3.632 3.132-1.661.601-7.783-3.93-5.344M333.89 477.544c-4.645-1.444-7.82 1.834-5.09 4.275 2.008 1.795 6.758.804 5.09-4.275M325.565 477.607c-4.798-1.731-7.661 1.935-5.073 4.227 2.01 1.781 6.726.729 5.073-4.227" style="fill:#fefeff;fill-rule:evenodd"></path><path d="M229.16 553.056c-.561-3.164 4.368-3.72 4.636-.747.29 3.223-4.226 3.062-4.636.747m5.55-2.487c1.26-1.675 3.038-1.77 4.087.414-1.025 2.168-3.994 2.383-4.086-.414m1.802-11.138c.917-.083 1.408-.2 1.983.392 2.394 2.467-3.032 3.828-1.983-.392m-28.279 1.683c-.01-1.818.428-2.183 2.122-2.61 6.371-1.6 12.248 2.61 17.374 5.463 1.56.87 6.032 1.743 6.084 3.36.057 1.732-1.6 1.11-3.153 1.216-2.546.175-1.4.753-3.191 1.259-2.682.757-4.295-4.804-11.15-7.308-2.741-1.002-5.73-.346-8.086-1.38m27.965-2.042c-4.047.825-5.853-2.684-3.629-3.978 2.016-1.171 4.812 1.013 3.629 3.978m-9.579-3.845c.705-1.797 2.866-1.51 4.096-.414-.383.906-.215 1.147-1.738 1.228-1.261.067-1.543-.135-2.358-.814m-37.41 2.87c.67-1.728 2.763-3.04 1.788-6.338-.562-1.898-3.286-2.864-4.674-4.031-8-6.728-4.6-18.771 2.823-22.817 4.12-2.246 10.545-2.327 14.84-.613-4.337.164-9.597-.493-10.938 3.69-1.708 5.33 1.313 8.67 4.608 11.324 6.073 4.89.784 19.312-8.448 18.785m101.882-38.528c-2.384 2.648-6.023.954-4.693-1.791 1.158-2.39 5.068-1.966 4.693 1.791m8.735-1.104c-4.052 3.367-4.139-1.81-.791-2.208.866 1.098.687.733.79 2.208m-16.157-1.07c-1.142-1.097-1.86-1.887-1.47-3.914.356-1.85 1.677-2.308 3.317-1.578 3.092 1.378 2.287 5.594-1.847 5.492m20.473-1.811c-2.28 1.047-4.894.325-3.375-2.55 1.16-2.194 4.328-1.022 3.375 2.55m-21.77-3.91c-2.246 1.463-4.329-.195-3.392-2.221.774-1.676 4.094-1.212 3.391 2.221m21.41-.89c.133-2.03 2.364-4.078 3.936-2.39 1.152 1.236-1.497 5.655-3.936 2.39m-27.49-2.046c-.492-1.757-.37-1.798.324-3.219 1.676.054 1.876.343 2.459 1.611-.617 1.577-.855 1.817-2.783 1.608m31.9-1.193c-.928-1.703-.27-2.635 1.247-3.379l1.642.82c.193 2.004-.821 3.285-2.89 2.559m49.7-3.771c-3.66-1.436-.675-4.612 1.47-1.62-.346 1.266-.262 1.126-1.47 1.62m-66.427 13.732c-2.079-2.097-4.384-5.161-6.49-7.508-7.18-7.998-8.407-7.16-3.511-11.322 2.126-1.807 7.383-8.059 9.95-10.593 1.371.384 6.125 5.87 7.355 7.287 5.813 6.699 8.984 6.014 3.173 11.354l-6.738 7.348c-1.05 1.326-1.874 2.643-3.739 3.434m-20.142-19.596c5.146-2.292 7.635 5.796 3.192 6.697-5.262 1.066-7.544-4.758-3.192-6.697m41.188-.281c4.531-2.44 7.062 3.682 3.93 5.344-2.416 1.28-5.89-.505-5.338-3.632.305-1.72.519-1.233 1.408-1.712m38.443.548c1.743-.312 2.701.381 3.67.948.125 4.253-3.96 3.76-4.76.481zm-17.064-.633c1.668 5.079-3.082 6.07-5.09 4.275-2.73-2.441.445-5.719 5.09-4.275m-8.325.063c1.653 4.956-3.062 6.008-5.073 4.227-2.588-2.292.275-5.958 5.073-4.227m-65.402-.47c5.737-3.25 9.116 5.282 5.153 6.524-3.648 1.143-10.85-3.297-5.153-6.524m87.956 2.115c-.657 4.12-6.418 2.377-3.617-1.648 1.981-.07 2.541.042 3.617 1.648m-10.958-2.143c2.504-1.593 6.153 2.373 3.037 3.96-2.572 1.308-6.034-2.053-3.037-3.96m-80.097-.277c1.22 4.704-3.402 5.914-5.283 3.654-2.378-2.857 1.333-5.732 5.283-3.654m125.53.784c.101-.072.267-.273.334-.17l8.124-.382c7.956 0 18.864-.277 26.179.051-.457 34.751-.018 71.148-.018 106.21 0 19.45 3.919 35.254-12.493 40.633-5.352 1.754-10.775 1.307-16.57 1.326-9.74.032-65.507-.518-70.195.665-4.731 1.193-8.638 3.985-11.45 6.32-.8.664-1.33 1.411-2.021 2.1l-6.66 6.912c-4.188-3.977-10.176-8.858-14.875-12.005-2.152-1.441-3.383-2.349-6.442-2.677-15.633-1.677-51.85-.74-70.74-1.422-7.355-.266-18.937-.26-24.868-6.606-.844-.903-1.342-1.314-2.259-2.302-6.568-7.079-5.827-19.387-5.827-30.457 0-35.656.586-73.688-.026-108.793l39.205.047c3.897 5.021 2.545 6.208 11.256 12.904 22.662 17.416 40.285 17.887 69.776 15.983 8.461-.546 16.769-1.499 25.078-2.632 8.167-1.114 15.46-3.4 24.038-3.925 19.057-1.165 30.67 8.122 26.63 28.03-1.135 5.592-3.394 9.824-6.65 14.099-1.129 1.483-2.237 2.381-3.434 3.618-.57.589-.893 1.08-1.57 1.746-2.746 2.702-11.317 7.6-15.218 9.239-7.749 3.254-13.841 4.323-22.976 4.571-8.362.227-17.407-.128-25.49-1.998-12.971-3.002-32.456-8.781-33.762-21.83-.438-4.384.397-8.531-.446-13.22-.682-3.794-2.241-7.578-5.718-8.38-4.583-1.058-8.105 1.021-9.833 3.553-2.92 4.277-1.092 8.55-2.687 11.354-2.446.204-3.527-1.14-3.67-3.697-.302-5.386 6.183-3.953 3.727-11.199-3.368-9.932-19.036-10.604-22.318-2.767l-.766 2.164c-.391.742-.116.367-.579.83-2.462-1.809-3.58-8.49-12.481-11.74-6.726-2.457-14.54-1.306-19.416 2.45l-1.057 1.018c-.06.061-.142.152-.201.214-4.193 4.347-5.22 10.886-2.584 16.24 4.36 8.861 8.152 6.752 7.065 10.979-.715 2.78-2.17 1.033-2.833 3.46 4.06 5.492 22.098-4.112 17.9-17.914-1.415-4.654-6.646-6.221-3.748-8.975 2.839-2.426 4.342 4.586 5.099 6.8.564 1.652 1.16 3.155 1.806 4.851.654 1.717 1.8 2.88 1.536 4.756-.976 2.324-5.942-1.17-2.342 10.481-3.194 1.593-2.936.56-2.83 4.991-6.367 2.114-10.24 4.803-6.927 12.693 2.374 5.656 8.01 8.222 3.765 15.16-5.334.437-2.26-4.501-8.424-4.636-4.365-.095-8.453-.659-8.992 3.881-.69 5.812 5.18 1.815 7.76 4.778 1.808 2.075 2.448 4.574 5.936 7.33 4.599 3.632 17.226 2.19 20.92-7.348.568-1.463 1.24-3.901 3.266-2.359 1.447 1.102.234 2.699 4.236 2.531 5.835-.244 7.074-5.98 10.628-8.976 6.916-5.828 23.872.601 30.936 3.362 24.294 9.492 64.89 12.311 88.722 1.903 6.56-2.865 14.87-7.832 19.92-12.009 1.451-1.2 2.31-1.917 3.646-2.989l6.381-6.888c3.491-3.729 7.287-9.982 10.086-15.627 3.1-6.254 4.702-14.252 4.222-21.93-1.418-22.695-16.468-31.97-16.782-34.38m-74.064 1.524c-1.385-.04-3.01-.44-2.269-2.184.66-1.552 4.434-1.268 2.27 2.184m-30.767-.579c-.267-1.446-.236-1.008.547-1.832.472.183 1.562.317.906 1.376-.394.635-.667.55-1.453.456m1.407-2.262c-.344-2.613 1.155-3.376 3.332-2.902.265 2.8-.51 3.347-3.332 2.902m27.03-.612c-1.086 1.2-3.907.167-3.307-2.927 3.016-.825 4.36 1.764 3.307 2.927m-62.125-1.356c2.007-1.366 3.307-1.713 6.042-.11.527 6.603-6.263 5.916-6.064.228l-1.002 1.045c0 .001-.875 1.678-3.022.202-7.844-5.389 3.603-8.318 3.727-1.137.111-.068.237-.171.32-.228m57.798-1.437c-4.749.92-3.47-3.197-2.174-3.75 2.478-1.056 3.958 1.315 2.174 3.75m-18.878.39c-1.018-3.627 2.648-5.186 4.009-3.959 1.741 1.57-1.004 4.554-4.009 3.96m-46.926-1.107c-2.54.003-4.465-2.894-2.4-3.527 2.29-.704 3.778 1.274 2.4 3.527m63.047-3.274c-3.42.447-4.845-1.201-3.261-4.063 3.85-.972 4.202 1.652 3.261 4.063M286.6 468.5c-1.677-2.877.038-5.4 3.134-4.345 2.47.841.026 4.854-3.134 4.345m3.875-4.721c-.554-1.625-.59-.941.037-2.566 1.524.043 1.544.184 2.31 1.04-.5 1.49-.515 1.778-2.347 1.526m3.296.43c-1.135-4.135 1.223-4.311 3.432-2.334-.325 1.863-1.243 2.983-3.432 2.335m-41.166 66.875c3.659 6.049-.64 7.718 5.932 13.157 7.24 5.994 13.463 10.35 24.856 13.705 22.366 6.587 43.664 7.572 64.373-2.151 4.077-1.914 9.223-4.95 11.97-7.526 3.688-3.459 5.639-6.53 7.933-11.155 4.28-8.627 7.145-21.486 1.638-30.714-7.892-13.225-30.252-11.158-46.232-9.719-5.728.516-11.916 1.571-17.523 1.83l8.368-12.249c1.298-1.78 2.197-1.43 4.985-1.722 8.263-.865 16.838-1.497 25.31-1.45 12.499.07 21.73 1.268 28.805 11.285.875 1.238 1.65 2.565 2.489 4.157l1.538 3.447c.632 1.097.296.556.872 1.136-.695-9.321-6.013-16.09-10.91-20.136-5.476-4.524-14.3-7.08-23.197-7.37-9.997-.327-20.281-.396-30.287-.441-4.423-.02-6.9-2.833-9.395-5.976-1.322-1.665-6.106-7.059-6.634-8.545 19.516-1.245 49.789-5.116 67.545 7.316 5.332 3.733 9.843 7.851 13.59 12.516 7.675 9.557 13.619 24.315 10.533 40.407-1.199 6.25-4.946 13.799-7.688 18.46-18.529 31.507-57.31 36.329-95.207 27.761-6.82-1.542-14.098-3.478-20.232-5.916-7.03-2.793-11.174-5.678-20.052-6.23-15.79-.982-16.262 9.184-21.068 11.851-1.163.645-4.611 1.966-4.682-.442-.066-2.239 4.536-2.921 1.79-9.634-2.784-.372-3.337.645-5.902.541-.497-3.418.61-6.663-3.805-7.028-3.465-.287-4.685 2.687-4.498 6.096.292 5.354 7.247 6.484 4.326 15.507-.883 2.727-2.647 4.509-5.211 5.567-2.316.956-6.377 1.742-8.902.77-2.673-1.028-3.8-3.192-5.047-5.695-1.955-3.926-4.839-1.223-7.004-3.267.636-1.852 3.793-1.664 5.643-1.228 1.947.459 3.105 1.67 4.375 2.715 2.961 2.432 7.638.597 8.232-3.153 1.09-6.883-11.144-11.95-7.395-19.304 2.84-5.575 16.744-8.79 24.357.155 5.303 6.23 7.396.588 4.355 13.867 1.727-.383 1.672-.784 2.814-1.972.775-.805 1.284-1.271 2.074-2.071 4.024-4.074 4.506-5.039 12.228-4.964 3.15.03 5.512.735 6.46-1.874-1.828-3.709-8.805-1.218-12.238-4.178-1.735-1.498-2.075-2.344-4.549-3.75-4.293-2.44-12.642-5.653-17.33-6.62-2.417-.5-4.32-.406-6.363-1.604-1.706-1-3.254-2.958-1.373-5.155 3.07-1.656 6.531 2.492 8.212 3.727 5.031 3.695 12.553 2.384 18.021 6.84 2.198 1.791 4.649 4.454 7.915 2.104.423-3.03-1.035-5.136-2.496-6.696-1.537-1.64-2.319-2.84-5.403-3.244-5.126-.674-13.075 1.174-17.123-.78-6.153-2.971-11.055-14.175-12.35-23.363 10.208.365 11.694 9.724 13.982 13.477l.387.537c.03-.067.134.178.207.263.309-.545.165.05.358-1.053l-.096-2.216c-1.87-16.15 21.66-13.476 17.54-3.553-2.372 5.717-6.677 2.444-8.597 2.572l-.686.203c-.563 2.42 1.554 5.505 2.743 7.122 1.848 2.513 2.638 2.423 6.335 3.64 9.034 2.97 6.117 9.885 11.096 7.325 1.184-4.835-4.496-7.094-4.746-11.721-.216-3.994 4.378-9.216 8.252-8.522 2.215 2.912-.076 4.458-.642 7.38-.506 2.609 1.357 5.189 2.424 6.951m124.64-81.685c1.584-1.63 4.54-1.416 6.455-.563 2.55 9.583-5.56 2.065-6.455.563m6.419-8.008c-.626-1.686-.151 1.126-.115-.7 2.777-1.452 7.136-.29 7.098 3.435-3.177 2.755-15.874 3.633-19.218.712.542-.429-.03-.191 1.008-.47.842-.226-.087-.036.769-.132 2.271-.253 7.839.513 11.663-.91-1.136-2.363 1.45 2.263-.613-.797l-.494-.82c-.036-.085-.072-.248-.098-.318m-3.191-24.748c1.302-1.076 4.813-3.022 6.364-2.808.387 1.707.622 2.905-.201 4.593-2.405.37-4.958-.31-6.163-1.785m-95.317 84.4c-13.346 2.257-30.544-.689-41.844-5.04-12.737-4.903-21.35-12-27.991-20.082-7.88-9.589-12.665-19.275-12.26-35.66.956-38.785 48.285-59.787 88.768-51.586 6.756 1.368 12.491 3.04 18.754 5.252 7.511 2.653 28.936 14.126 36.584 9.099 4.722-3.104 7.53-8.39 7.679-16.414 2.445-.78 4.658 1.007 5.688 2.497 3.73 5.398 1.385 24.843-13.413 25.31-8.582.272-11.64-3.144-12.969-3.573.306 5.187 22.311 8.355 27.826-5.083 2.244-5.464.245-11.5 5.686-15 2.202-1.416 5.981-.995 8.858-1.437 3.078-.471 5.806-1.458 8.727-1.914 1.338 2.571 1.13 6.673.254 9.596-2.472 8.244-7.325 8.046-12.975 8.624-3.575.365-6.49.533-5.88 4.876 1.812 1.607 2.388 1.855 5.263 1.525 5.767-.66 10.393-7.653 14.273-5.09 3.722 3.38-2.763 6.165-5.235 7.461-3.204 1.68-6.673 3.317-10.414 4.528-14.934 4.83-21.315 1.058-24.73 1.103l-1.32.34c2.164 4.359 18.454 2.604 23.322 1.657 4.646-.904 20.632-4.999 18.276 2.931-5.263 1.52-5.544-2.778-6.322-3.166-4.646-.53-11.573 2.279-16.078 3.218-4.051.844-15.697-1.031-17.913.335 2.219 3.444 15.098 4.81 21.098 3.58 3.894-.799 5.475-2.3 10.115-2.627 4.17-.295 8.142-.386 9.495 2.797 2.412 5.67-3.66 11.682-11.424 12.955-14.497 2.377-13.867-6.178-17.886-6.624-.477 3.872 3.328 8.029.491 11.252-1.232 1.4-6.33 4.789-9.534 3.803-.045-5.223 1.733-4.471-1.793-9.416-2.594-3.636-4.046-3.42-1.532-8.348-5.319.853-2.955 7.908-11.413 9.563-6.224 1.217-13.095-1.082-12.26-7.713 1.21-9.617 10.968-.053 12.133-6.866.999-5.836-3.477-11.451-6.249-13.762-6.52-5.434-18.947-9.456-28.544-12.486-24.643-7.78-52.97-9.17-67.95 13.818-8.633 13.25-5.678 26.092 5.464 36.256 9.961 9.087 38.15 9.412 50.991 9.79-1.22 2.636-4.702 6.762-6.593 8.793-2.28 2.45-4.395 5.45-9.516 5.47-8.886.037-17.946-1.4-25.819-4.12-7.262-2.509-15.728-7.39-20.588-13.386-.57-.704-.87-1.186-1.603-2.126-3.552-4.556-5.353-9.92-6.833-15.587-1.551 5.213 4.457 18.372 8.405 23.54 4.73 6.19 9.742 10.44 17.995 14.779 7.368 3.874 16.254 6.102 25.285 7.326 5.958.807 4.216.036 8.12 4.44zm15.586 149.562c1.195-3.924 8.86-12.114 12.746-14.671 7.073-4.655 15.244-3.262 24.509-3.262h55.541c10.036 0 15.338-.27 22.014-5.753 6.379-5.237 6.645-11.116 6.493-21.62l1.864-277.533-256.299-.217c-.58 5.694-.107 105.332-.107 113.972l.165 142.218c0 12.883-1.998 27.743 4.85 37.822 1.999 2.941 1.225 1.774 3.286 3.765 8.061 7.787 15.759 7.403 28.313 7.826 18.81.635 37.88-.164 56.735.218 7.522.152 18.71-.667 24.283 4.073zM291.574 313.113c-18.275-.034-33.992-1.668-51.152-5.307-5.773-1.223-25.91-6.526-31.08-9.186-3.192-1.642-4.507-5.502-.469-7.827 9.338-5.374 28.403-10.92 40.39-13.518 32.028-6.945 68.573-7.1 100.513.275 7.684 1.774 14.542 3.622 21.991 5.82 3.15.928 13.02 3.336 14.377 6.34.927 2.054-.182 3.781-1.52 4.815-5.307 4.1-34.357 11.67-42.321 13.265-16.11 3.226-33.572 5.356-50.729 5.323m-86.788-32.382c-.675-1.282-1.463-3.525-.198-4.992 1.009-1.17 3.046-1.848 4.769-.78 3.886 2.41.176 6.57-4.57 5.772m175.834-9.588c1.661-.299 5.77.726 6.674 1.652 1.46 1.495 1.06 4.84-.37 5.803-3.534 2.376-9.218-2.45-6.304-7.455m-172.268 15.761c.237-1.533.094-1.033 1.513-1.729l7.086-2.865c3.13-1.153 6.545-2.394 9.897-3.422 6.673-2.049 13.84-3.983 21.071-5.44 15.32-3.086 31.075-4.888 47.385-5.028 25.851-.222 45.774 2.66 70.094 8.87 3.571.913 6.788 1.96 10.283 2.993 2.22.655 8.269 1.808 8.892 4.093a1.4 1.4 0 0 1-.343.16c-.09.028-.234.11-.346.136-.11.027-.23.075-.354.094-1.342.207-7.3-2.124-9.227-2.691-51.146-15.081-106.076-15.538-156.68 2.102-2.248.784-7.341 3.452-9.271 2.727m.195-16.21c.75-1.123.32-.741 2.068-1.386.756-.279 1.8-.593 2.467-.811 1.63-.533 3.1-1.058 4.686-1.558 38.523-12.143 85.804-16.825 125.52-9.77 6.597 1.171 36.247 7.577 39.825 11.451-2.398 1.612-3.679-.144-6.05 2.13-1.117 3.849 1.336 4.863.207 7.407-1.861.67-74.082-22.996-145.214-2.749-3.082.878-5.787 1.777-8.819 2.783-1.76.584-6.953 3.09-8.267 2.44-1.507-1.275 1.6-3.115.468-7.66-3.002-1.445-5.757.523-6.89-2.278m177.114-4.976c-1.747 1.225-8.212-1.687-10.524-2.374-3.437-1.023-6.71-2.009-10.296-2.935-7.231-1.866-14.24-3.472-21.81-4.725-21.068-3.485-53.134-4.247-75.09-1.66-12.97 1.527-41.206 7.783-53.691 12.7-.999.394-10.017 4.784-8.095 1.066 1.482-2.868 34.888-11.39 40.796-12.661 45.595-9.813 90.514-4.884 134.716 7.943 3.758 1.091 3.99.724 3.994 2.646m-3.848-17.472c.975-.096 6.146.813 6.938 1.145 2.793 1.168-.86 2.397 2.275 5.16 2.68 2.361 4.645 8.171-1.207 8.78-4.104.426-19.215-4.611-24.189-5.78-52.623-12.368-106.138-11.925-155.948 7.09-3.134 1.197-8.425 4.285-11.331 2.286-3.491-2.4-2.223-8.032.789-9.918 3.605-2.257 17.342-6.115 22.4-7.445 41.2-10.836 65.658-11.776 108.575-7.796 8.887.825 17.64 1.96 26.225 3.552 4.185.776 8.098 1.613 12.23 2.667 2.424.618 9.92 3.201 11.674 3.127.649-.88 1.047-1.708 1.57-2.868m10.488-.772c-1.23 1.192-4.493.722-5.286-.414.16-.945 1.697-.701 2.702-.59 2.999.33 2.338.686 2.584 1.004m2.573-.915c-2.906-1.94-2.967-1.087-2.659-2.628l5.129.06c-.069 1.864-.062 4.176-2.47 2.568m-159.51-3.231c.81-1.59 1.5-1.209 4.921-1.89 2.569-.511 16.847-3.188 18.838-1.842-1.67 2.024-13.728 2.621-18.97 3.707-2.52.522-4.006 1.962-4.79.025m1.315-2.355c.862-2.05 1.002-2.757 3.276-3.215 4.22-.85 12.963-2.856 15.512-.897zm109.158-6.595c3.136.267 8.18-.217 7.2 3.262-2.476.66-13.071-.791-15.802-1.417-.293-3.688 5.32-2.124 8.602-1.845m-3.785-4.029 7.548.218 1.569 2.997-10.952-1.123zm-52.089-3.479c2.89-.11 5.776-.13 8.663-.219 4.66-.142 3.346.249 6.008 2.643l-16.285-.288zm120.351-7.984c2.913-.957 3.562 2.722 3.323 5.39-.26 2.9-2.234 4.126-4.767 4.976-4.155 1.393-3.651-2.072-3.15-5.279.544-3.471 1.773-4.16 4.594-5.087m-118.939 6.43c1.613-2.814 2.403-2.467 6.417-2.48 1.193.427 2.336 1.684 3.022 2.565zm-86.017 18.714c-.778.96.204.487-1.449 1.313.057 1.033-.187 1.33-.85 1.89-1.033.872-.733.443-1.994.952-1.918.774-1.854 1.61-4.167.939.595.626.544.227.303 1.05 1.054 2.03 1.783 1.679 1.559 4.763-.411.989-7.118 4.231-4.26 10.854 2.967 6.874 9.682 1.548 9.05 7.282l-2.254.956c-.518 2.493-.35 4.47.062 6.966 3.525 1.966 1.973.874 2.343 5.455.418 5.164 1.049.653-.101 7.06-1.01 5.63 2.863 7.138 7.197 8.691 27.334 9.793 54.062 11.494 83.264 11.551 29.532.058 53.87-4.702 81.044-13.821 2.912-.977 9.267-3.133 11.201-4.55 4.39-3.218 2.622-12.252 3.1-13.078 2.335-1.905 3.089-1.607 2.964-5.805-.092-3.063-1.672-5.608-1.08-7.671 2.8-2.225 7.53-.593 6.764-7.62-.603-5.531-5.169-8.794-3.686-10.399 1.871-2.025 5.85 2.406 11.261-5.336 4.867-6.964 1.283-9.221 6.193-10.799 4.545-1.46 4.703-7.945 4.567-12.096-.039-1.197-.132-2.44-.648-3.504-.798-1.643-.965-1.022-2.086-2.084-1.813-1.719-1.595-5-1.406-7.535-2.07.82-.66-.207-1.072 2.394-.156.992.49 2.406-.737 1.736.41 2.655-4.243 4.942-7.206 7.509-4.992 4.323.624 7.92-2.638 11.479-.668.728-3.03 2.538-4.109 3.338-1.687 1.25-2.725 1.909-4.511 2.94-11.258 6.494-25.604 6.365-33.959-1.042-2.94-2.607-6.352-9.976-8.184-14.193-2.802-6.45-5.892-1.118-6.73-.05-6.133 7.82-17.27 13.55-27.016 10.607-12.08-3.647-16.898-13.826-19.758-25.014-4.307.151-3.573 3.618-5.125 7.273-3.244 7.64-9.291 14.525-17.998 17.224-11.882 3.684-22.272.168-28.668-9.613-.827-1.266-1.263-2.432-2.288-3.472-3.618.259-2.047 2.963-5.966 10.166-1.9 3.492-4.605 7.23-6.978 9.175-2.826 2.315-5.917 4.523-10.612 5.5-3.805.79-10.56.76-13.336-1.381" style="fill:#178ed0;fill-rule:evenodd"></path><path d="M264.019 302.314c1.657-.935 4.503-1.186 6.652-1.524 1.8-.282 5.244-.54 6.43-1.914-4.307-.225-14.145 1.297-19.086 2.067-3.097.483-5.169 1.27-6.863.018.788-.784 1.72-1.09 3.03-1.38 1.127-.25 2.269-.451 3.435-.647 4.93-.833 20.227-2.474 22.334-3.777-3.742-2.083-28.124 4.125-33.018 2.787 1.943-2.855 25.453-7.033 30.56-7.805 22.782-3.445 51.281-2.876 74.348-.222 2.848.328 9.541.22 10.613 2.752-1.852 2.453-17.99 5.146-21.839 5.96-15.159 3.21-34.764 5.15-50.284 5.487-4.173.091-23.711-.209-26.312-1.802m-43.86-5.914c2.858 3.018 29.839 6.273 36.194 6.95 31.82 3.388 67.599 2.015 98.704-5.586 3.042-.744 16.98-3.36 13.04-7.388-2.172-2.22-30.736-6.352-36.208-6.967-29.476-3.312-50.336-3.698-79.513 1.909-6.198 1.19-29.901 7.286-32.218 11.082M331.714 436.592c-.421.354-.602.729-1.618.804-1.286.096-1.317-.262-1.81-.705-.563-2.343 2.95-3.084 3.428-.099m-.713-22.037c.887 3.181 7.486 9.909 5.093 16.334-1.364 3.663-4.034 2.919-8.08 2.92-4.312.002-4.026 3.94-.576 4.983 17.52 5.295 11.872-24.982 3.563-24.237" style="fill:#178ed0;fill-rule:evenodd"></path><path d="M382.593 477.617c.314 2.41 15.364 11.684 16.782 34.38.48 7.677-1.122 15.675-4.222 21.929-2.799 5.645-6.595 11.898-10.086 15.627l-6.381 6.888c-1.337 1.072-2.195 1.789-3.646 2.99-5.05 4.176-13.36 9.143-19.92 12.008-23.833 10.408-64.428 7.589-88.722-1.903-7.064-2.76-24.02-9.19-30.936-3.362-3.554 2.996-4.793 8.732-10.628 8.976-4.002.168-2.79-1.429-4.236-2.531-2.025-1.542-2.699.896-3.265 2.36-3.695 9.537-16.322 10.98-20.921 7.346-3.488-2.755-4.128-5.254-5.935-7.329-2.58-2.962-8.452 1.034-7.761-4.778.539-4.54 4.627-3.976 8.992-3.88 6.164.134 3.09 5.072 8.424 4.635 4.246-6.938-1.39-9.504-3.765-15.16-3.312-7.89.56-10.579 6.928-12.693-.107-4.43-.365-3.398 2.829-4.99-3.6-11.652 1.366-8.158 2.342-10.482.265-1.876-.882-3.039-1.536-4.756-.646-1.696-1.242-3.199-1.807-4.852-.756-2.213-2.26-9.225-5.098-6.799-2.898 2.754 2.333 4.32 3.749 8.975 4.197 13.802-13.84 23.406-17.901 17.913.663-2.425 2.118-.68 2.833-3.459 1.087-4.227-2.706-2.118-7.065-10.978-2.635-5.355-1.609-11.893 2.584-16.241l.2-.214 1.057-1.017c4.877-3.757 12.69-4.908 19.417-2.451 8.902 3.25 10.02 9.931 12.481 11.74.463-.463.188-.088.579-.83l.766-2.164c3.282-7.837 18.95-7.165 22.317 2.767 2.457 7.246-4.028 5.813-3.727 11.2.144 2.556 1.225 3.9 3.671 3.696 1.595-2.804-.233-7.077 2.687-11.354 1.728-2.532 5.25-4.611 9.833-3.554 3.477.803 5.036 4.587 5.718 8.381.843 4.689.007 8.836.446 13.22 1.305 13.049 20.79 18.828 33.762 21.83 8.083 1.87 17.128 2.225 25.49 1.998 9.135-.248 15.227-1.317 22.976-4.571 3.9-1.638 12.472-6.537 15.219-9.24.676-.665.998-1.156 1.57-1.745 1.196-1.237 2.304-2.135 3.433-3.618 3.256-4.275 5.515-8.507 6.65-14.098 4.04-19.909-7.573-29.196-26.63-28.031-8.578.524-15.871 2.811-24.038 3.925-8.31 1.134-16.617 2.086-25.078 2.632-29.491 1.904-47.114 1.433-69.776-15.983-8.711-6.696-7.36-7.883-11.256-12.904l-39.205-.047c.612 35.105.026 73.137.026 108.793 0 11.07-.74 23.378 5.827 30.457.917.989 1.415 1.4 2.259 2.302 5.931 6.345 17.513 6.34 24.868 6.606 18.89.683 55.107-.255 70.74 1.422 3.06.328 4.29 1.236 6.442 2.677 4.7 3.147 10.687 8.028 14.874 12.006l6.66-6.914c.692-.688 1.222-1.435 2.022-2.099 2.812-2.335 6.719-5.127 11.45-6.32 4.688-1.182 60.454-.633 70.195-.665 5.795-.019 11.218.428 16.57-1.326 16.412-5.38 12.493-21.183 12.493-40.634 0-35.061-.439-71.457.018-106.209-7.315-.328-18.223-.051-26.18-.051l-8.123.382c-.067-.103-.233.098-.335.17M264.019 302.314c2.6 1.593 22.139 1.893 26.312 1.802 15.52-.336 35.125-2.278 50.284-5.487 3.848-.814 19.987-3.507 21.839-5.96-1.072-2.532-7.765-2.424-10.613-2.752-23.067-2.654-51.566-3.223-74.349.222-5.106.772-28.616 4.95-30.56 7.805 4.895 1.338 29.277-4.87 33.019-2.787-2.107 1.303-17.405 2.944-22.334 3.777a68 68 0 0 0-3.435.647c-1.31.29-2.242.596-3.03 1.38 1.694 1.252 3.766.465 6.863-.018 4.94-.77 14.78-2.292 19.087-2.067-1.187 1.375-4.63 1.632-6.431 1.914-2.15.338-4.995.589-6.652 1.524" style="fill:#921b1d;fill-rule:evenodd"></path><path d="M339.71 408.456c2.155 3.252 10.226 3.216 13.45.974 2.48-1.726 5.738-8.903 4.194-13.777-1.08.566-1.919 3.658-2.493 4.712-2.852 5.243-8.296 8.738-15.151 8.09" style="fill:#349ad5;fill-rule:evenodd"></path><path d="M353.67 417.918c13.118.447 10.992-1.07 19.781-3.622l-2.725-.43c-1.402.103-2.243.148-3.665.055-2.485-.162-4.16-.769-6.432-1.063-1.018 1.692-3.077 2.584-4.947 3.615z" style="fill:#1c91d1;fill-rule:evenodd"></path><path d="M387.015 247.06c.793 1.136 4.055 1.606 5.286.414-.246-.318.415-.675-2.584-1.005-1.005-.11-2.542-.354-2.702.59" style="fill:#f5fafd;fill-rule:evenodd"></path><path d="M187.158 516.983c2.028 1.076 2.983-1.978-.069-1.57z" style="fill:#f6fcfd;fill-rule:evenodd"></path><path d="M277.763 478.561c.786.094 1.059.18 1.453-.456.656-1.059-.434-1.193-.906-1.376-.783.824-.814.386-.547 1.832" style="fill:#f2f8fc;fill-rule:evenodd"></path><path d="M179.91 126.131a6.216 6.216 0 0 1-6.216-6.216 6.216 6.216 0 1 1 6.216 6.216" style="fill:#fff;fill-rule:evenodd"></path><path d="M278.16 665.118c-8.292-.198-10.93 5.703-11.029 11.645-.087 5.239 2.467 11.621 12.391 11.996 2.514.095 5.747-.2 8.318-1.07.646-2.334 1.002-5.12 1.071-8.413.144-6.869-2.113-13.95-10.75-14.158M323.652 665.045c-11.031-.174-11.598 13.498-11.598 21.808 0 8.442.529 21.442 12.154 21.565 11.076.117 11.598-13.268 11.598-21.565 0-8.331-.694-21.627-12.154-21.808M76.533 101.155l9.066-.01-4.724-11.288zM266.686 89.857l-4.342 11.298 9.066-.01zM490.083 99.045c-.108 10.92 6.704 20.494 16.8 20.737 9.447.228 15.86-8.22 16.388-20.887.464-11.148-5.572-19.801-15.975-20.025-9.3-.2-17.09 7.717-17.213 20.175" style="fill:#931c1e;fill-rule:evenodd" data-source="https://football-logos.cc"></path><!-- source: https://football-logos.cc --></svg>