<svg xmlns="http://www.w3.org/2000/svg" viewBox="60.96 44.65 1033.61 1298.19"><!-- Source: https://football-logos.cc --><path fill="#c80914" fill-rule="evenodd" d="m808.94 44.71-.02 149.04q-17.72-.05-34.92-.04c-6.71.01-7.37 4.33-7.07 9.79q.4 7.34.18 14.59-.32 10.3-.12 14.33c.54 10.68-.07 21.61.07 32.01.24 17.25.05 32.37.04 49.64q0 6.59.36 7.7 1.18 3.59 6.22 3.61 19.67.04 27.34.08a2.636 2.506-54.976 0 0 .99-.2q3.15-1.39 3.86-4.58a1.029.645-50.502 0 0 .03-.23v-29.76a.016.014 42.618 0 1 .03 0l3.66 21.22q-.99 1.53-.98 2.09.14 11.36.29 22.72c.04 3.55-.24 8.71.01 13.09q-6.01-.63-6.93 4.92c-.29 1.8.09 4.26-.12 6.05a.34.337-54.502 0 1-.64.11c-5.18-10.84-17.01-12.71-27.87-11.76q-13.15 1.16-19.77 12.56a.264.263-27.948 0 1-.49-.15c.35-6.03.98-11.65-7.12-11.67q-28.82-.06-35.16-.08-3.48 0-5.32 3.77a1.046.941-35.64 0 0-.09.41l.1 6.36a.243.242 28.767 0 1-.45.13q-4.77-7.85-14.5-9.67c-9.5-1.77-20.05-1.16-31.04-.79q-1.49.05-3.05 1.33-.58.49-.99.42-.55-.1-.57-.87l.49-306.16zm-98.97 228.48q-13.49.42-25.31.23c-4.01-.06-5.51 2.83-5.46 6.73.18 14.9-.38 28.32 12.52 38.18q4.74 3.62 8.85 5.11c5.15 1.87 11.19 3.57 16.88 3.79q12.7.48 24.84-3.52c10.52-3.47 19.7-13.77 22.04-24.61 2.95-13.62.41-28.71-9.8-39.1q-9.4-9.58-18.28-14.96-.27-.17-.39-.53a.485.444 81.434 0 1 .43-.64q10.32.67 20.96.24 5.69-.23 6.18-5.87.49-5.72-.09-14.99c-.91-14.62-10.63-26.13-24.82-29.54-14.9-3.58-33.92-2.56-45.77 7.37-8.34 6.99-11.25 15.85-11.63 26.53-.23 6.33-.08 11.79 1.99 16.78 5.28 12.72 16.08 20.32 27.08 28.1a.389.385-27.802 0 1-.22.7" data-source="https://football-logos.cc"></path><path fill="#facf15" fill-rule="evenodd" d="m958.12 44.69.01 341.84-148.45 372.42q-.86-.59-.86-1.44.2-162.7.06-325.37 16.39-.02 32.6.12c4.58.04 8.54-.27 8.64-5.59q.08-3.83.12-13.13c.02-7.63-8.68-5.78-14.8-4.98q-1.89.25-5.99-.29a.883.881 89.55 0 1-.75-.74q-.32-2.22.11-4.54a.799.796 2.826 0 1 .72-.65q4.94-.4 11.23.09c4.09.31 6.44-1.73 6.32-6.14q-.2-7.5-.13-10.64c.1-4.31-1.42-7.61-5.74-7.45q-7.78.27-11.42.29a1.276 1.262 87.573 0 1-1.27-1.18l-.12-1.79a1.217 1.211-1.27 0 1 1.25-1.3q8.89.28 14.09.23c4.53-.05 6.25-2.54 6.29-7.08q.03-4.91-.02-11.02c-.04-4.26-2.17-6.65-6.26-6.61q-17.36.16-34.84.07c-.25-4.38.03-9.54-.01-13.09q-.15-11.36-.29-22.72-.01-.56.98-2.09 1.21 5.3 2.3 10.45.42 2.03 3.15 3.09a2.067 2.05-36.264 0 0 .87.13q8.96-.68 16.95-.13c4.18.28 7.5-.71 8.25-4.83.54-2.96 1.22-5.33 1.47-7.81q.66-6.55 2.98-19.68a.196.193-84.597 0 1 .19-.16h.26a.42.41 90 0 1 .41.42q-.04 18.4.04 22.38c.12 5.48.14 9.71 7.07 9.71 7.65.01 12.62-.6 18.98-.05 4.17.35 9.49.96 11.6-2.74q.8-1.4.79-5.05-.19-53.88.03-115.83.01-4.17-1.3-5.77-2.08-2.55-6.08-2.59-12.7-.11-26.4.22-2.95.08-7.29-.13c-5.17-.25-11.62-1.33-14.27 3.46q-.52.94-1.61 8.01-.95 6.11-1.55 10.75a.574.573 45.96 0 1-1.14-.02q-.68-7.01-1.96-15.78c-.42-2.91-1.94-6.49-5.17-6.52q-5.1-.05-9.24.31l.02-149.04z"></path><path fill="#c80914" fill-rule="evenodd" d="m958.13 386.53-.01-341.84q66.55-.08 132.88-.01 2.65.01 3.52 2.08a.605.593 44.403 0 1 .01.48zM189.44 44.8q.05 159.99-.03 320.16 0 .4-.32.62-.15.11-.57.01L61.06 46.68a1.345 1.338 79.125 0 1 1.24-1.84z"></path><path fill="#facf15" fill-rule="evenodd" d="m347.27 44.73.04 148.59c-8.79 1.13-18.68-.27-25.79.32q-3.14.27-5.17 3.74a2.437 2.391-26.926 0 0-.31.92q-.55 4.54-.56 5.45-.25 53.06.01 97.71c.04 7.15-.5 13.26.15 19.14q.29 2.65 3.11 4.28a1.937 1.885-28.855 0 0 .91.25l27.6.54-.16 25.24c-2.19-.63-4.28-1.51-6.39-1.75q-9.73-1.12-18.37 1.63c-7.24 2.3-11.76 6.75-13.83 14.38q-5.15 19.01 10.99 31.11a.378.376 61.573 0 1-.2.68q-5.64.33-6.45.36c-3.81.14-6.2 1.37-6.44 5.22-.81 13.01 1.52 24.57 15.34 29.01q12.46 3.99 25.22-.52.27 1.04.27 1.47-.12 162.38.01 324.75 0 3.05-.63 6.42l-158.1-398.08q.42.1.57-.01.32-.22.32-.62.08-160.17.03-320.16zm-34.525 154.846a6.01 6.01 0 0 0-6.02-6l-27.62.048a6.01 6.01 0 0 0-6 6.021l.21 119.98a6.01 6.01 0 0 0 6.02 5.999l27.62-.048a6.01 6.01 0 0 0 6-6.021z"></path><path fill="#c80914" fill-rule="evenodd" d="m500.19 44.76-.04 148.61q-6.34.1-13.47.24-3.36.07-4.56 1.07c-.5.41-1 1.08-1.33 1.27a.761.755 50.152 0 1-.85-.08q-2.6-2.14-3.69-2.17-3.12-.08-8-.07-44.45.06-49.75-.18-2.2-.1-7.91.34a1.006.991 26.986 0 0-.41.13l-2.93 1.69a.741.735-35.627 0 1-.93-.15q-1.75-2.04-5.31-1.97-11.6.22-25.2.06-4.07-.05-5.78 4.33a3.776 3.641-35.215 0 0-.26 1.36v35.05a.237.237-54.839 0 1-.46.08q-3.04-8.55-5.23-16.44-.88-3.16-6.87-20.13c-1.8-5.1-5.64-3.94-9.9-4.48l-.04-148.59z"></path><path fill="#facf15" fill-rule="evenodd" d="m655.39 44.72-.49 306.16q-9.47-1.94-19.66-1.21-3.01.21-5.07 3.19a.592.588-43.631 0 1-.98-.02q-1.1-1.71-2.52-2.43a2.99 2.927 59.108 0 0-1.18-.31q-14.43-.69-17.54-.22-4.62.68-5.06 4.95c-.63 6.23.15 14.41-.06 21.63-.21 6.99-.06 11.53-.32 17a.163.162 39.53 0 1-.32.03q-.67-2.85-.93-5.48-.37-3.78-.78-5.47c-1.5-6.25-2.21-13.05-3.88-19.46q-1.13-4.35-1.57-9.05-.28-3.01-3.31-4.13a2.107 2.067-35.545 0 0-.83-.13q-8.73.37-19.12-.11c-3.48-.16-7.76.13-8.68 3.66-2.27 8.67-3.34 17.2-5.47 25.47q-1.55 6.03-2.38 12.47-.29 2.24-.11 3.32a.233.228-5.142 0 1-.23.27h-.36a.24.23 1.145 0 1-.24-.24q.37-16.43.3-38.21c-.01-3.75-.76-5.44-4.11-6.61a2.224 2.158 51.571 0 0-.92-.12c-8.63.61-17.51-.22-26.35.31q-3.84.23-5.14 3.91a.491.486-43.495 0 1-.93-.02q-1.18-4.05-5.4-4-5.96.06-11.72-.08l.26-24.5c2.11-.03 4.34-.25 6.32-.11q11.55.82 22 .18c5.91-.36 12.12.47 17.56.27q3.76-.15 5.05-.89c3.08-1.8 2.78-3.54 2.97-6.68q.19-3.05.16-3.63-.31-7.01-.25-18.96a3.118 3.017-59.305 0 0-.33-1.39q-1.84-3.61-6.81-3.5-14.3.29-27.74-.01a.85.85.69 0 1-.83-.85v-13.97a.802.801 1.365 0 1 .84-.8q13.51.71 24.44-.01 2.74-.18 4.14-2.23.98-1.44 1.05-4.62.18-9.41.08-19.36c-.07-7.46-4.02-8.29-10.38-8.37q-3.18-.04-18.86.54a1.42 1.42-.975 0 1-1.47-1.42v-11.01a.82.82.682 0 1 .84-.82c6.83.14 12.03-.58 18.49.07q3.67.37 9.14-.04 6.17-.46 6.37-6.51.31-9.54-.35-21.64-.23-4.2-4.26-5.62a1.214 1.028 49.731 0 0-.36-.06l-47.95-.48.04-148.61zm-24.17 211.04q6.68-6.12 8.44-15.2.62-3.14.81-12.16c.27-12.49-2.85-22.45-13.88-29.58q-3.91-2.52-10.89-3.66-9.28-1.51-11.59-1.54-6.51-.09-38.9-.14c-4.43-.01-8.38.94-8.97 5.54q-.79 6.23-.39 13.46c.51 9.45-.7 21.09-.39 28.56q.58 14.03.22 33.51-.26 13.79-.01 19.9.46 11.26.01 19.91c-.34 6.52.05 11.88 7.77 11.33q12.41-.89 25.05-.03c4.24.29 6.38-2.26 6.66-6.44.59-8.54-.14-17.02.24-24.54.35-6.86.05-11.75-.07-19.59a1.76 1.76-80.317 0 1 2.37-1.68l.34.13a3.872 3.869-79.353 0 1 2.54 3.72q-.32 15.95.19 32.98c.13 4.31 1.77 12.54 6.15 14.84q1.32.7 5.42.34 5.7-.5 17.16.07c2.76.14 5.45-.17 9.05-.33a2.04 2.026-62.123 0 0 .93-.29c3.78-2.3 3.44-4.9 1.92-9.07q-1.8-4.95-1.75-8.3.25-17.45.14-29.02c-.07-7.01-1.63-14.85-6.52-20.19-.62-.69-1.5-1-2.05-1.51a.696.696 0 0 1 0-1.02"></path><path fill="#fff" fill-rule="evenodd" d="M709.97 273.19a.389.385-27.802 0 0 .22-.7c-11-7.78-21.8-15.38-27.08-28.1-2.07-4.99-2.22-10.45-1.99-16.78.38-10.68 3.29-19.54 11.63-26.53 11.85-9.93 30.87-10.95 45.77-7.37 14.19 3.41 23.91 14.92 24.82 29.54q.58 9.27.09 14.99-.49 5.64-6.18 5.87-10.64.43-20.96-.24a.485.444 81.434 0 0-.43.64q.12.36.39.53 8.88 5.38 18.28 14.96c10.21 10.39 12.75 25.48 9.8 39.1-2.34 10.84-11.52 21.14-22.04 24.61q-12.14 4-24.84 3.52c-5.69-.22-11.73-1.92-16.88-3.79q-4.11-1.49-8.85-5.11c-12.9-9.86-12.34-23.28-12.52-38.18-.05-3.9 1.45-6.79 5.46-6.73q11.82.19 25.31-.23m48-35.39q-.13-4.39-.01-10.04.11-5.5-1.78-11.98c-3.72-12.76-17.06-18.04-29.18-18.4-13.51-.4-27.18 1.36-35.07 12.8-8 11.62-8.15 29.78 1.39 40.76 8.35 9.61 23.5 19.57 29.39 24.08q4.21 3.23 6.94 7.57c3.48 5.51 3.63 16.39-4.93 17.67-9.61 1.43-12.56-4.57-12.52-12.72q0-1.09-.11-7.77a1.03 1.03 89.433 0 0-1.03-1.01h-25.43a.641.64-89.076 0 0-.64.62c-.16 6.2-.89 14.48.72 20.43 2.2 8.16 7.97 14.96 15.82 18.22q4.99 2.07 7.66 2.57 6.48 1.21 16.83 1.15 10.57-.07 20.46-6.26c10.62-6.65 14.54-18.23 13.28-30.49q-1.62-15.71-13.53-25.45-7.98-6.53-24.84-19.44-4.08-3.12-6.49-7c-3.76-6.04-1.07-13.86 6.58-14.59 11.63-1.11 10.39 11.97 10.05 19.4a.501.5-88.898 0 0 .5.52h25.32a.621.62 89.105 0 0 .62-.64m-31.93-1.67q-.27-2.67-.35-8.34c-.05-3.25-2.64-4.41-5.41-3.36a1.491 1.481 3.313 0 0-.78.69q-1.93 3.71 1.08 6.6 2.4 2.3 4.68 4.76a.452.45 20.685 0 0 .78-.35m-8.15 42.99-.21 10.11c-.5 7.64 9.82 7.76 8.64.58-.75-4.61-4.22-8.2-7.91-10.94a.326.322 18.993 0 0-.52.25M347.31 193.32c4.26.54 8.1-.62 9.9 4.48q5.99 16.97 6.87 20.13 2.19 7.89 5.23 16.44a.237.237-54.839 0 0 .46-.08v-35.05a3.776 3.641-35.215 0 1 .26-1.36q1.71-4.38 5.78-4.33 13.6.16 25.2-.06 3.56-.07 5.31 1.97a.741.735-35.627 0 0 .93.15l2.93-1.69a1.006.991 26.986 0 1 .41-.13q5.71-.44 7.91-.34 5.3.24 49.75.18 4.88-.01 8 .07 1.09.03 3.69 2.17a.761.755 50.152 0 0 .85.08c.33-.19.83-.86 1.33-1.27q1.2-1 4.56-1.07 7.13-.14 13.47-.24l47.95.48a1.214 1.028 49.731 0 1 .36.06q4.03 1.42 4.26 5.62.66 12.1.35 21.64-.2 6.05-6.37 6.51-5.47.41-9.14.04c-6.46-.65-11.66.07-18.49-.07a.82.82.682 0 0-.84.82v11.01a1.42 1.42-.975 0 0 1.47 1.42q15.68-.58 18.86-.54c6.36.08 10.31.91 10.38 8.37q.1 9.95-.08 19.36-.07 3.18-1.05 4.62-1.4 2.05-4.14 2.23-10.93.72-24.44.01a.802.801 1.365 0 0-.84.8v13.97a.85.85.69 0 0 .83.85q13.44.3 27.74.01 4.97-.11 6.81 3.5a3.118 3.017-59.305 0 1 .33 1.39q-.06 11.95.25 18.96.03.58-.16 3.63c-.19 3.14.11 4.88-2.97 6.68q-1.29.74-5.05.89c-5.44.2-11.65-.63-17.56-.27q-10.45.64-22-.18c-1.98-.14-4.21.08-6.32.11-5.05.06-10.21-.09-15.24.15q-3.01.14-4.71-1.73-1.26-1.38-1.25-5.58.12-43.46-.19-91.1a.332.327-13.461 0 0-.48-.29q-1.83.93-4.68.9-1.58-.02-9.59-.15a1.23 1.23.458 0 0-1.25 1.23q.19 75.75.33 89.32c.02 2.6.23 4.24-1.82 6.13q-1.61 1.48-5.6 1.26-6.52-.35-25.8.1-3.42.08-5.17-2.14c-1.82-2.32-1.23-7.72-1.23-12.39q-.04-46.47.07-82.64a.74.74-.382 0 0-.75-.74q-6.06.13-12.02-.08c-.88-.03-1.57-.73-2.25-.88a.318.318 6.501 0 0-.39.31q-.15 19.87-.09 91.55c.01 3.76-1.69 7.05-5.93 6.97q-18.67-.35-28.81 0c-2.74.1-5.3-.9-6.1-3.39q-4.62-14.4-4.88-15.12c-2.76-7.71-4.69-15.78-7.57-23.99a.285.282-54.97 0 0-.55.1q.02 15.69-.01 33.87-.01 4.71-1.19 6.36-1.72 2.43-5.88 2.35l-27.6-.54a1.937 1.885-28.855 0 1-.91-.25q-2.82-1.63-3.11-4.28c-.65-5.88-.11-11.99-.15-19.14q-.26-44.65-.01-97.71.01-.91.56-5.45a2.437 2.391-26.926 0 1 .31-.92q2.03-3.47 5.17-3.74c7.11-.59 17 .81 25.79-.32m1.26 50.63a.21.21 26.045 0 1 .26.14l22.96 75.68a.632.629 81.141 0 0 .6.44h29.58a.71.7-90 0 0 .7-.71V199.71a.59.58-90 0 0-.58-.59h-26.48a.54.54-89.459 0 0-.54.53q-.54 31.69.1 69.54.01.39-.16.56a.142.14 59.329 0 1-.23-.06l-22.27-70.07a.675.671 81.087 0 0-.64-.47h-30.25a.61.6-90 0 0-.6.61v119.89a.56.56 87.555 0 0 .56.56h26.86a.42.42-89.301 0 0 .42-.41q.32-7.89.08-17.55-.07-2.59-.04-50.98 0-2.79-.69-7.08a.148.142-14.125 0 1 .1-.16zm94.927 76.381q6.386-.002 13.601-.208a.716.713-.955 0 0 .692-.713v-96.83a.66.66-89.854 0 1 .66-.66h16.74a.58.58-78.781 0 0 .58-.58V199.7a.597.585.246 0 0-.592-.585q-19.762-.028-31.72-.024t-31.72.044a.597.585-.283 0 0-.591.586l.014 21.64a.58.58 76.048 0 0 .58.579l16.74-.01a.66.66-74.579 0 1 .661.659l.062 96.83a.716.713.918 0 0 .693.713q7.215.201 13.6.199m70.063-24.001a.71.71 29.828 0 1-.71-.71v-25.31a.71.71-56.718 0 1 .71-.71h28.88a.71.71 22.535 0 0 .71-.71v-21.9a.71.71 77.672 0 0-.71-.71h-28.83a.71.71 29.788 0 1-.71-.71V222.7a.71.71 0 0 1 .71-.71h33.35a.71.71 0 0 0 .71-.71v-21.42a.71.71 0 0 0-.71-.71h-61.8a.71.71-72.347 0 0-.71.71v119.63a.71.71 5.854 0 0 .71.71h62.96a.71.71-72.38 0 0 .71-.71v-22.45a.71.71 0 0 0-.71-.71zM809.59 311.91l-3.66-21.22a.016.014 42.618 0 0-.03 0v29.76a1.029.645-50.502 0 1-.03.23q-.71 3.19-3.86 4.58a2.636 2.506-54.976 0 1-.99.2q-7.67-.04-27.34-.08-5.04-.02-6.22-3.61-.36-1.11-.36-7.7c.01-17.27.2-32.39-.04-49.64-.14-10.4.47-21.33-.07-32.01q-.2-4.03.12-14.33.22-7.25-.18-14.59c-.3-5.46.36-9.78 7.07-9.79q17.2-.01 34.92.04 4.14-.36 9.24-.31c3.23.03 4.75 3.61 5.17 6.52q1.28 8.77 1.96 15.78a.574.573 45.96 0 0 1.14.02q.6-4.64 1.55-10.75 1.09-7.07 1.61-8.01c2.65-4.79 9.1-3.71 14.27-3.46q4.34.21 7.29.13 13.7-.33 26.4-.22 4 .04 6.08 2.59 1.31 1.6 1.3 5.77-.22 61.95-.03 115.83.01 3.65-.79 5.05c-2.11 3.7-7.43 3.09-11.6 2.74-6.36-.55-11.33.06-18.98.05-6.93 0-6.95-4.23-7.07-9.71q-.08-3.98-.04-22.38a.42.41-90 0 0-.41-.42h-.26a.196.193-84.597 0 0-.19.16q-2.32 13.13-2.98 19.68c-.25 2.48-.93 4.85-1.47 7.81-.75 4.12-4.07 5.11-8.25 4.83q-7.99-.55-16.95.13a2.067 2.05-36.264 0 1-.87-.13q-2.73-1.06-3.15-3.09-1.09-5.15-2.3-10.45m-9.31-86.39a.244.242 81.344 0 1 .27.2l16.03 93.94a.691.689-4.964 0 0 .68.57h17.94a.728.724 4.107 0 0 .72-.62q6.11-41.6 15.19-91.76a.2.2 28.97 0 1 .23-.17l.33.05a.183.181 3.59 0 1 .16.18v91.6a.69.69 70.819 0 0 .69.69h26.17a.67.67-72.375 0 0 .67-.67v-119.9a.47.47 5.845 0 0-.47-.47H834.6a.484.476 3.338 0 0-.48.42l-8.01 58.28a.415.412 45.441 0 1-.82-.01l-7.22-58a.837.832-3.493 0 0-.83-.73h-43.91a.97.97 45 0 0-.97.97v119.62a.44.44 84.645 0 0 .44.44h26.48a.653.651-88.12 0 0 .65-.61c.56-8.78.09-18.62.17-25.82q.5-40.87-.23-68.04a.12.11-4.96 0 1 .11-.12zM312.955 319.555a6.01 6.01 0 0 1-6 6.021l-27.62.048a6.01 6.01 0 0 1-6.02-5.999l-.21-119.98a6.01 6.01 0 0 1 6-6.021l27.62-.048a6.01 6.01 0 0 1 6.02 6zM307 199.71a.58.58 0 0 0-.58-.58h-27.24a.58.58 0 0 0-.58.58v119.88a.58.58 0 0 0 .58.58h27.24a.58.58 0 0 0 .58-.58zM631.22 256.78c.55.51 1.43.82 2.05 1.51 4.89 5.34 6.45 13.18 6.52 20.19q.11 11.57-.14 29.02-.05 3.35 1.75 8.3c1.52 4.17 1.86 6.77-1.92 9.07a2.04 2.026-62.123 0 1-.93.29c-3.6.16-6.29.47-9.05.33q-11.46-.57-17.16-.07-4.1.36-5.42-.34c-4.38-2.3-6.02-10.53-6.15-14.84q-.51-17.03-.19-32.98a3.872 3.869-79.353 0 0-2.54-3.72l-.34-.13a1.76 1.76-80.317 0 0-2.37 1.68c.12 7.84.42 12.73.07 19.59-.38 7.52.35 16-.24 24.54-.28 4.18-2.42 6.73-6.66 6.44q-12.64-.86-25.05.03c-7.72.55-8.11-4.81-7.77-11.33q.45-8.65-.01-19.91-.25-6.11.01-19.9.36-19.48-.22-33.51c-.31-7.47.9-19.11.39-28.56q-.4-7.23.39-13.46c.59-4.6 4.54-5.55 8.97-5.54q32.39.05 38.9.14 2.31.03 11.59 1.54 6.98 1.14 10.89 3.66c11.03 7.13 14.15 17.09 13.88 29.58q-.19 9.02-.81 12.16-1.76 9.08-8.44 15.2a.696.696 0 0 0 0 1.02m-41.02 52.24-.03-39.93q-.26-.63-.13-1.04.12-.4.86-.46c6.76-.5 15.07.42 15.15 9.01q.14 16.11.19 33.35.01 4.52 1.83 9.11a1.766 1.745 79.151 0 0 1.63 1.12h26.86a.33.324 77.225 0 0 .29-.47q-2.27-4.6-2.44-10.47-.14-4.69-.17-32.91c-.01-9.55-5.49-17.81-15.1-19.29a.633.632-47.342 0 1-.05-1.24q11.66-2.8 14.56-14.32 2.72-10.76.69-22.05-2.41-13.44-14.68-17.55-7.2-2.41-11.56-2.48-14.04-.25-46.21-.18a.69.68-90 0 0-.68.69v119.44a.92.92-15.188 0 0 .92.92h27.03a.821.81-89.275 0 0 .81-.8z"></path><path fill-rule="evenodd" d="M757.97 237.8a.621.62 89.105 0 1-.62.64h-25.32a.501.5-88.898 0 1-.5-.52c.34-7.43 1.58-20.51-10.05-19.4-7.65.73-10.34 8.55-6.58 14.59q2.41 3.88 6.49 7 16.86 12.91 24.84 19.44 11.91 9.74 13.53 25.45c1.26 12.26-2.66 23.84-13.28 30.49q-9.89 6.19-20.46 6.26-10.35.06-16.83-1.15-2.67-.5-7.66-2.57c-7.85-3.26-13.62-10.06-15.82-18.22-1.61-5.95-.88-14.23-.72-20.43a.641.64-89.076 0 1 .64-.62h25.43a1.03 1.03 89.433 0 1 1.03 1.01q.11 6.68.11 7.77c-.04 8.15 2.91 14.15 12.52 12.72 8.56-1.28 8.41-12.16 4.93-17.67q-2.73-4.34-6.94-7.57c-5.89-4.51-21.04-14.47-29.39-24.08-9.54-10.98-9.39-29.14-1.39-40.76 7.89-11.44 21.56-13.2 35.07-12.8 12.12.36 25.46 5.64 29.18 18.4q1.89 6.48 1.78 11.98-.12 5.65.01 10.04M307 319.59a.58.58 0 0 1-.58.58h-27.24a.58.58 0 0 1-.58-.58V199.71a.58.58 0 0 1 .58-.58h27.24a.58.58 0 0 1 .58.58zM348.57 243.95l-.26.08a.148.142-14.125 0 0-.1.16q.69 4.29.69 7.08-.03 48.39.04 50.98.24 9.66-.08 17.55a.42.42-89.301 0 1-.42.41h-26.86a.56.56-54.466 0 1-.56-.56V199.76a.61.6 90 0 1 .6-.61h30.25a.675.671 81.087 0 1 .64.47l22.27 70.07a.142.14 59.329 0 0 .23.06q.17-.17.16-.56-.64-37.85-.1-69.54a.54.54-89.459 0 1 .54-.53h26.48a.59.58-90 0 1 .58.59V319.5a.71.7-90 0 1-.7.71h-29.58a.632.629 81.141 0 1-.6-.44l-22.96-75.68a.21.21 16.054 0 0-.26-.14M443.458 199.091q11.958-.004 31.72.024a.597.585.246 0 1 .592.585v21.64a.58.58-53.17 0 1-.58.58h-16.74a.66.66-89.951 0 0-.66.66v96.83a.716.713-.955 0 1-.692.713q-7.215.206-13.601.208-6.385.002-13.6-.199a.716.713.918 0 1-.693-.713l-.062-96.83a.66.66 85.783 0 0-.661-.659l-16.74.01a.58.58-77.27 0 1-.58-.579l-.014-21.64a.597.585-.283 0 1 .591-.586q19.763-.04 31.72-.044M513.56 296.33h34.56a.71.71 0 0 1 .71.71v22.45a.71.71-57.205 0 1-.71.71h-62.96a.71.71 29.828 0 1-.71-.71V199.86a.71.71-57.3 0 1 .71-.71h61.8a.71.71 0 0 1 .71.71v21.42a.71.71 0 0 1-.71.71h-33.35a.71.71 0 0 0-.71.71v22.87a.71.71 5.868 0 0 .71.71h28.83a.71.71-66.958 0 1 .71.71v21.9a.71.71 22.535 0 1-.71.71h-28.88a.71.71-88.282 0 0-.71.71v25.31a.71.71 5.854 0 0 .71.71M800.28 225.52l-.3.04a.12.11-4.96 0 0-.11.12q.73 27.17.23 68.04c-.08 7.2.39 17.04-.17 25.82a.653.651-88.12 0 1-.65.61H772.8a.44.44-57.946 0 1-.44-.44V200.09a.97.97-45.042 0 1 .97-.97h43.91a.837.832-3.493 0 1 .83.73l7.22 58a.415.412 45.441 0 0 .82.01l8.01-58.28a.484.476 3.338 0 1 .48-.42h44.29a.47.47 29.827 0 1 .47.47v119.9a.67.67-57.205 0 1-.67.67h-26.17a.69.69-72.251 0 1-.69-.69v-91.6a.183.181 3.59 0 0-.16-.18l-.33-.05a.2.2 9.029 0 0-.23.17q-9.08 50.16-15.19 91.76a.728.724 4.107 0 1-.72.62h-17.94a.691.689-4.964 0 1-.68-.57l-16.03-93.94a.244.242 81.344 0 0-.27-.2M590.17 269.09l.03 39.93-.23 10.45a.821.81-89.275 0 1-.81.8h-27.03a.92.92 33.737 0 1-.92-.92V199.91a.69.68-90 0 1 .68-.69q32.17-.07 46.21.18 4.36.07 11.56 2.48 12.27 4.11 14.68 17.55 2.03 11.29-.69 22.05-2.9 11.52-14.56 14.32a.633.632-47.342 0 0 .05 1.24c9.61 1.48 15.09 9.74 15.1 19.29q.03 28.22.17 32.91.17 5.87 2.44 10.47a.33.324 77.225 0 1-.29.47H609.7a1.766 1.745 79.151 0 1-1.63-1.12q-1.82-4.59-1.83-9.11-.05-17.24-.19-33.35c-.08-8.59-8.39-9.51-15.15-9.01q-.74.06-.86.46-.13.41.13 1.04m-.08-48.638-.18 25.779a.92.92 79.419 0 0 .914.926l6.7.047a9.18 9.14.4 0 0 9.243-9.075l.065-9.34a9.18 9.14.4 0 0-9.116-9.204l-6.699-.047a.92.92-86.74 0 0-.927.914"></path><path fill="#fff" fill-rule="evenodd" d="M590.09 220.452a.92.92-69.656 0 1 .927-.914l6.699.047a9.18 9.14.4 0 1 9.116 9.204l-.065 9.34a9.18 9.14.4 0 1-9.243 9.075l-6.7-.047a.92.92-80.591 0 1-.914-.926zm5.283 6.147-.146 13.94a1.06 1.06 74.501 0 0 1.049 1.071l.67.007a4.24 4.19-89.4 0 0 4.234-4.196l.08-7.58a4.24 4.19-89.4 0 0-4.146-4.283l-.67-.007a1.06 1.06 3.481 0 0-1.071 1.048"></path><path fill="#c80914" fill-rule="evenodd" d="M726.04 236.13a.452.45 20.685 0 1-.78.35q-2.28-2.46-4.68-4.76-3.01-2.89-1.08-6.6a1.491 1.481 3.313 0 1 .78-.69c2.77-1.05 5.36.11 5.41 3.36q.08 5.67.35 8.34"></path><path fill="#facf15" fill-rule="evenodd" d="M595.373 226.599a1.06 1.06 32.948 0 1 1.071-1.048l.67.007a4.24 4.19-89.4 0 1 4.146 4.283l-.08 7.58a4.24 4.19-89.4 0 1-4.234 4.196l-.67-.007a1.06 1.06-52.228 0 1-1.049-1.071z"></path><path fill="#c80914" fill-rule="evenodd" d="m500.29 325.29-.26 24.5q-6.1.12-12.02-.18-3.76-.19-5.78 3.05a.459.456 48.367 0 1-.8-.05c-.97-2.05-2.89-2.79-5.25-2.76q-11.29.13-24.41-.08c-3.81-.06-4.79 3.07-5.59 5.94a.316.312-43.732 0 1-.61-.01c-.69-3.18-1.08-5.68-5.08-5.76q-16.24-.33-24.99 0-5.78.22-6.1 5.82c-.48 8.26.25 17.16-.06 26.38q-.23 6.93-.3 11.9a.272.261-89.952 0 1-.25.26h-.02a.326.322 83.1 0 1-.34-.27q-3.52-23.24-7.4-39.96-.87-3.75-4.01-4.03-3.76-.34-18.92-.07c-4.49.08-8.18-.08-8.93 4.73q-.43 2.7-9.12 44.62a.326.324-47.608 0 1-.63.03c-1.88-6.43-6.45-10.99-12.05-14.68a.752.707 38.552 0 1-.16-1.11q.18-.19.44-.19c5.12-.01 12.38 1.48 12.41-6.35.03-8.76-.43-17.32-8.16-22.92q-2.52-1.82-4.8-3.19l.16-25.24q4.16.08 5.88-2.35 1.18-1.65 1.19-6.36.03-18.18.01-33.87a.285.282-54.97 0 1 .55-.1c2.88 8.21 4.81 16.28 7.57 23.99q.26.72 4.88 15.12c.8 2.49 3.36 3.49 6.1 3.39q10.14-.35 28.81 0c4.24.08 5.94-3.21 5.93-6.97q-.06-71.68.09-91.55a.318.318 6.501 0 1 .39-.31c.68.15 1.37.85 2.25.88q5.96.21 12.02.08a.74.74-.382 0 1 .75.74q-.11 36.17-.07 82.64c0 4.67-.59 10.07 1.23 12.39q1.75 2.22 5.17 2.14 19.28-.45 25.8-.1 3.99.22 5.6-1.26c2.05-1.89 1.84-3.53 1.82-6.13q-.14-13.57-.33-89.32a1.23 1.23.458 0 1 1.25-1.23q8.01.13 9.59.15 2.85.03 4.68-.9a.332.327-13.461 0 1 .48.29q.31 47.64.19 91.1-.01 4.2 1.25 5.58 1.7 1.87 4.71 1.73c5.03-.24 10.19-.09 15.24-.15"></path><path fill="#959494" fill-rule="evenodd" d="m590.2 309.02-.03-39.93z"></path><path fill="#c80914" fill-rule="evenodd" d="M717.89 279.12a.326.322 18.993 0 1 .52-.25c3.69 2.74 7.16 6.33 7.91 10.94 1.18 7.18-9.14 7.06-8.64-.58z"></path><path fill="#fff" fill-rule="evenodd" d="M347.1 350.91q2.28 1.37 4.8 3.19c7.73 5.6 8.19 14.16 8.16 22.92-.03 7.83-7.29 6.34-12.41 6.35q-.26 0-.44.19a.752.707 38.552 0 0 .16 1.11c5.6 3.69 10.17 8.25 12.05 14.68a.326.324-47.608 0 0 .63-.03q8.69-41.92 9.12-44.62c.75-4.81 4.44-4.65 8.93-4.73q15.16-.27 18.92.07 3.14.28 4.01 4.03 3.88 16.72 7.4 39.96a.326.322 83.1 0 0 .34.27h.02a.272.261-89.952 0 0 .25-.26q.07-4.97.3-11.9c.31-9.22-.42-18.12.06-26.38q.32-5.6 6.1-5.82 8.75-.33 24.99 0c4 .08 4.39 2.58 5.08 5.76a.316.312-43.732 0 0 .61.01c.8-2.87 1.78-6 5.59-5.94q13.12.21 24.41.08c2.36-.03 4.28.71 5.25 2.76a.459.456 48.367 0 0 .8.05q2.02-3.24 5.78-3.05 5.92.3 12.02.18 5.76.14 11.72.08 4.22-.05 5.4 4a.491.486-43.495 0 0 .93.02q1.3-3.68 5.14-3.91c8.84-.53 17.72.3 26.35-.31a2.224 2.158 51.571 0 1 .92.12c3.35 1.17 4.1 2.86 4.11 6.61q.07 21.78-.3 38.21a.24.23 1.145 0 0 .24.24h.36a.233.228-5.142 0 0 .23-.27q-.18-1.08.11-3.32.83-6.44 2.38-12.47c2.13-8.27 3.2-16.8 5.47-25.47.92-3.53 5.2-3.82 8.68-3.66q10.39.48 19.12.11a2.107 2.067-35.545 0 1 .83.13q3.03 1.12 3.31 4.13.44 4.7 1.57 9.05c1.67 6.41 2.38 13.21 3.88 19.46q.41 1.69.78 5.47.26 2.63.93 5.48a.163.162 39.53 0 0 .32-.03c.26-5.47.11-10.01.32-17 .21-7.22-.57-15.4.06-21.63q.44-4.27 5.06-4.95 3.11-.47 17.54.22a2.99 2.927 59.108 0 1 1.18.31q1.42.72 2.52 2.43a.592.588-43.631 0 0 .98.02q2.06-2.98 5.07-3.19 10.19-.73 19.66 1.21.02.77.57.87.41.07.99-.42 1.56-1.28 3.05-1.33c10.99-.37 21.54-.98 31.04.79q9.73 1.82 14.5 9.67a.243.242 28.767 0 0 .45-.13l-.1-6.36a1.046.941-35.64 0 1 .09-.41q1.84-3.77 5.32-3.77 6.34.02 35.16.08c8.1.02 7.47 5.64 7.12 11.67a.264.263-27.948 0 0 .49.15q6.62-11.4 19.77-12.56c10.86-.95 22.69.92 27.87 11.76a.34.337-54.502 0 0 .64-.11c.21-1.79-.17-4.25.12-6.05q.92-5.55 6.93-4.92 17.48.09 34.84-.07c4.09-.04 6.22 2.35 6.26 6.61q.05 6.11.02 11.02c-.04 4.54-1.76 7.03-6.29 7.08q-5.2.05-14.09-.23a1.217 1.211-1.27 0 0-1.25 1.3l.12 1.79a1.276 1.262 87.573 0 0 1.27 1.18q3.64-.02 11.42-.29c4.32-.16 5.84 3.14 5.74 7.45q-.07 3.14.13 10.64c.12 4.41-2.23 6.45-6.32 6.14q-6.29-.49-11.23-.09a.799.796 2.826 0 0-.72.65q-.43 2.32-.11 4.54a.883.881 89.55 0 0 .75.74q4.1.54 5.99.29c6.12-.8 14.82-2.65 14.8 4.98q-.04 9.3-.12 13.13c-.1 5.32-4.06 5.63-8.64 5.59q-16.21-.14-32.6-.12-7.21.81-6.96-5.9.16-4.44.15-5.06a.418.413-34.05 0 0-.8-.15c-6.4 15.13-37.91 16.44-46.63 3.07a.436.436 26.321 0 0-.8.27q.67 8.17-7.6 8.02-15.3-.28-35.14-.03-.66.01-1.65-.29-.86-.26-1.64-.65a1.617 1.594-43.778 0 0-1.42-.02l-1.36.65a1.845 1.76 30.82 0 1-.79.18h-17.77a2.289 2.288 58.506 0 1-1.04-.25q-2.87-1.49-3.75-5.5a.08.064 1.468 0 0-.06-.05q-.26-.05-.42.08a.347.331 72.005 0 0-.13.27q.05 3.68-2.9 5.17a2.56 2.473 31.525 0 1-1.22.27q-9.58-.3-18.43-.25-.92.01-3.4-1.8-.95-4.28-.46-9.1a.643.642 61.535 0 0-1.21-.36c-4.65 9.01-12.81 12.58-22.65 12.3-9.75-.28-16.19-.8-21.96-8.99a.427.424-64.739 0 0-.77.28l.24 3.47a2.772 2.753-33.237 0 1-.32 1.51q-1.8 3.39-6.08 3.13-8.28-.51-14.3-.12c-3.48.22-5.83-.11-6.76-3.62q-.85-3.25-.84-7.6a1.782 1.776 4.264 0 0-1.53-1.77l-.13-.02a1.425 1.421 4.486 0 0-1.62 1.38c-.11 5.83.8 12.13-7.54 11.61q-2.06-.13-12.24.06c-1.82.03-4.12-.67-5.7-.57q-12.23.77-18.4.36c-1.96-.13-2.75-.37-3.82-1.87a.889.885-37.355 0 0-1.29-.17l-2.07 1.76a1.449 1.442 25.142 0 1-.92.33q-6.2-.09-13.35-.23c-2.05-.04-2.96-.96-3.47-2.77a.525.524 48.435 0 0-.99-.06q-1.04 2.5-3.6 3.06-1.54.34-3.23.17l-14.25-.21a2.73 2.699 57.591 0 1-1.09-.25q-1.48-.7-2.39-2.06a.494.492 45.599 0 0-.81-.01q-.95 1.36-2.72 2.12a3.158 3.148-56.399 0 1-1.23.25l-17.17.04a1.022.952 47.043 0 1-.14-.01q-2.05-.24-3.45-3.27a.392.39 44.814 0 0-.71 0q-1.51 3.43-5.85 3.31-9.88-.28-10.96-.32a2.272 2.201-29.652 0 1-1.01-.26q-1.78-.93-2.59-4.03a.294.291-46.807 0 0-.57.02c-.92 4.61-3.69 4.56-8.32 4.63-7.93.12-12.13-.38-19.12-.13q-4.57.17-15.35-.08-2.54-.06-3.45-.91c-2.21-2.06-2.43-7.69-2.37-10.04a1.86 1.86 19.289 0 0-1.9-1.9l-.17.01a1.961 1.96-.742 0 0-1.92 1.97c.05 5.72-.31 11.29-7.33 10.98q-9.97-.44-16.01-.03a2.514 2.499-33.861 0 1-1.29-.25q-3.49-1.72-2.57-6.21a.42.419 72.099 0 0-.72-.37q-3.32 3.63-7.68 5.7-12.76 4.51-25.22.52c-13.82-4.44-16.15-16-15.34-29.01.24-3.85 2.63-5.08 6.44-5.22q.81-.03 6.45-.36a.378.376 61.573 0 0 .2-.68q-16.14-12.1-10.99-31.11c2.07-7.63 6.59-12.08 13.83-14.38q8.64-2.75 18.37-1.63c2.11.24 4.2 1.12 6.39 1.75m-8.07 27.04a.52.512 1.563 0 0 .52.54h15.06a.496.493-86.738 0 0 .49-.44q.56-5.41-.67-11.24-2.19-10.34-12.92-12.17c-7.2-1.22-16.11-1.24-21.66 2.98q-8.22 6.25-7.22 18.28.78 9.32 8.47 15.26 3.54 2.74 10.3 7.42c4.07 2.83 8.46 6.93 7.59 12.35-.57 3.56-4 5.54-7.26 4.09-4.22-1.87-3.53-7.66-3.39-11.97a.68.68-88.789 0 0-.68-.71H312.1a.68.67-89.566 0 0-.67.67q-.05 3.43-.06 5.96c-.07 9.7 5.55 16.56 15.37 18.42q12.23 2.32 21.56-3.13c9.14-5.33 9.54-17.72 5.27-26.09-3.8-7.44-13.68-13.36-18.51-17.2q-3.18-2.53-5.11-4.88c-3.13-3.82-1.2-9.46 4.14-9.5 5.51-.03 5.11 8.1 4.94 11.36m459.65-.14q.44-7.26-.64-11.62c-2.91-11.73-16.65-13.53-26.84-11.56-7.78 1.51-12.97 6.35-14.61 14.26-2.3 11.02 3.05 17.97 11.42 24.36q7.78 5.94 11.22 8.76 3.86 3.16 3.73 7.61c-.25 8.15-11.47 7.91-11.41-.38q.04-5.71.05-6.26a.621.62-89.105 0 0-.62-.64h-14.97a.81.81-88.898 0 0-.81.78c-.19 5.04-.41 11.54 2.11 15.8 4.3 7.28 11.75 8.82 20.18 9.06 9.01.25 19.73-4.58 21.76-13.57 1.87-8.31-.19-15.93-6.25-21.79-5.65-5.45-13.03-10.68-17.71-14.63q-3.53-2.97-3.07-7.22c.18-1.65 1.39-3.56 2.81-3.93q7.3-1.86 7.92 5.46.29 3.44.15 5.55a.614.612-87.828 0 0 .61.66h14.23a.742.741-88.362 0 0 .74-.7m-389.806 49.065a.589.588 85.155 0 0 .58-.688l-13.001-70.42a.947.944 84.986 0 0-.929-.781l-20.888-.083a.837.834-84.48 0 0-.82.678l-13.423 70.499a.628.624-84.664 0 0 .618.75l15.481-.036a.616.609 3.814 0 0 .611-.528l1.507-11.331a.753.746-85.931 0 1 .74-.649l10.594.047a.685.678-3.204 0 1 .679.601l1.331 11.435a.647.643 86.134 0 0 .649.571zm37.066-37.235q-.41-.49-.5-1.11-2.64-18.63-4.7-32.88a.809.806-4.107 0 0-.8-.69h-25.15a.54.54 87.519 0 0-.54.54v70.66a.68.68-8.175 0 0 .68.68H430a.46.46-45 0 0 .46-.46l-.02-53.8a.378.374-4.494 0 1 .32-.37h.02a.411.409 89.023 0 1 .35.34l9.13 53.82a.73.728-4.641 0 0 .72.61h10.15a.649.646 4.709 0 0 .64-.54l8.72-53.23a.359.354-85.203 0 1 .35-.3h.02a.334.328 10.175 0 1 .22.31v53.13a.5.49 0 0 0 .5.49h14.94a.63.63 45 0 0 .63-.63v-70.57a.68.68 45 0 0-.68-.68h-24.69a.6.595-86.132 0 0-.59.52l-5.06 34.11a.108.106-59.24 0 1-.19.05m77.203 37.32a.15.15 2.815 0 0 .148-.126l8.835-53.868a.15.15-46.265 0 1 .171-.124l.316.049a.15.15 52.81 0 1 .127.148v53.681a.15.15-44.996 0 0 .15.15h16.1a.15.15-88.262 0 0 .15-.15v-71.66a.15.15 70.795 0 0-.15-.15h-25.833a.15.15-78.759 0 0-.148.126l-5.641 34.378a.15.15-5.28 0 1-.297-.005l-4.275-34.288a.15.15-8.763 0 0-.148-.131H486.56a.15.15-45 0 0-.15.15v71.56a.15.15 44.99 0 0 .15.15h15.83a.15.15-44.971 0 0 .15-.15v-53.11a.15.15-44.996 0 1 .15-.15h.213a.15.15-77.304 0 1 .148.125l9.098 53.27a.15.15 72.943 0 0 .148.125zm60.515-12.66a.67.67-63.833 0 1 .665.588l1.414 11.404a.67.67 7.672 0 0 .665.588h16.152a.67.67-68.315 0 0 .658-.793l-13.16-70.64a.67.67-28.459 0 0-.659-.547h-21.268a.67.67-73.216 0 0-.658.546l-13.327 70.6a.67.67 30.762 0 0 .658.794h15.358a.67.67 75.252 0 0 .663-.579l1.562-11.382a.67.67 83.431 0 1 .663-.579zm46.059 13.988c8.691.013 16.374-3.471 19.967-11.623q1.826-4.145 1.856-14.085.06-18.59-.01-46.81a.79.79-45 0 0-.79-.79h-15.33a.57.56-89.479 0 0-.56.56q-.14 19.38-.153 51.723c-.002 3.636-.44 7.297-4.959 7.29s-4.946-3.669-4.936-7.305q.086-32.343.005-51.723a.57.56 89.655 0 0-.558-.562l-15.33-.047a.79.79-28.912 0 0-.792.787q-.157 28.22-.154 46.81 0 9.94 1.813 14.091c3.568 8.163 11.24 11.671 19.931 11.684m73.793-1.868q-1.14-2.64-1.29-6.92-.24-6.72-.14-13.74c.11-8.03-.66-13.61-8.68-15.87a.385.381-46.905 0 1-.02-.73q8.28-2.96 8.86-11.88c.46-7.04.34-15.07-5.97-19.08q-4.8-3.04-11.77-3.11l-24.56-.17a.64.63-89.559 0 0-.64.64v70.41a.91.91-.037 0 0 .91.91h14.99a.73.72 0 0 0 .73-.72v-28.8a2.115 2.11-84.689 0 1 2.5-2.08l3.44.65a4.227 4.222 4.06 0 1 3.44 3.96q.41 8.63.17 17.11-.13 4.93 1.53 9.04a1.398 1.38-10.929 0 0 1.29.86h14.89a.347.342-11.67 0 0 .32-.48m103.39-.21a.64.64-15.149 0 0 .64.64h36.74a.64.64 11.211 0 0 .64-.64v-12.56a.64.64-15.149 0 0-.64-.64h-20.06a.64.64 44.979 0 1-.64-.64v-14.45a.64.64 40.826 0 1 .64-.64h17.08a.64.64-78.721 0 0 .64-.64v-12.57a.64.64 74.818 0 0-.64-.64h-17.03a.64.64 33.735 0 1-.64-.64V369.7a.64.64 38.614 0 1 .64-.64h19.46a.64.64 21.209 0 0 .64-.64v-12.85a.64.64-15.149 0 0-.64-.64h-36.19a.64.64 11.211 0 0-.64.64zm-58.104-.09-.036-12.545a.54.53 89.791 0 0-.532-.539l-20.049-.067a.85.85 35.137 0 1-.843-.857l.088-14.206a.65.65-89.761 0 1 .648-.643l17.047.008a.58.58 74.744 0 0 .579-.582l-.017-12.656a.66.66-3.723 0 0-.662-.658l-17.067.083a.6.6 22.291 0 1-.603-.598l-.038-13.176a.51.51 44.847 0 1 .509-.512l19.817-.262a.34.34 76.635 0 0 .339-.342l.083-12.815a.84.83.128 0 0-.843-.838l-35.785.031a.82.81-.209 0 0-.817.813l.056 70.49a.69.68.627 0 0 .683.688l36.735-.114a.71.71-89.8 0 0 .708-.703m2.514-52.25a.369.364 77.043 0 0-.52-.33q-2.25 1.06-5.54 1.06-9.4 0-11.88-.13a.901.893-88.492 0 0-.94.9v2a1.07 1.07-1.033 0 0 1.11 1.07q4.93-.2 10.98-.27 5.93-.07 6.1 5.39.11 3.39.17 11.43c.03 3.9-.61 7.1-4.77 7.41q-5.6.42-12.56.05a.932.931 1.462 0 0-.98.93v3.43a1.1 1.1 74.866 0 0 1.1 1.1h15.96a.421.42 88.697 0 0 .42-.44c-.2-5.06-.07-10.41 6.21-10.36q5.24.04 7.53.23a.461.458-26.928 0 0 .28-.85q-12.56-7.58-12.67-22.62m50 21.12a.294.292-61.265 0 0 .54-.16v-12.08a.44.44-20.642 0 0-.73-.33c-.9.8-1.94 1.25-3.24 1.21q-6.09-.15-7.12-.05a.516.513 56.229 0 0-.19.97q6.26 3.28 10.74 10.44m-95.57-2.44v-6.91a.306.305 61.779 0 0-.56-.17l-2.31 3.45a.494.488 46.485 0 0-.01.51l1.94 3.37a.504.503 30.057 0 0 .94-.25m72.02 16.84q.36-1.25-.27-2.31a.393.39 39.095 0 0-.71.07q-.43 1.35.23 2.36a.422.414-53.537 0 0 .75-.12m-443.8-1.45q-.59-.27-.77.57-.26 1.19.44 1.28a.999.898 58.138 0 0 .33-1.85"></path><path fill-rule="evenodd" d="M339.03 377.95c.17-3.26.57-11.39-4.94-11.36-5.34.04-7.27 5.68-4.14 9.5q1.93 2.35 5.11 4.88c4.83 3.84 14.71 9.76 18.51 17.2 4.27 8.37 3.87 20.76-5.27 26.09q-9.33 5.45-21.56 3.13c-9.82-1.86-15.44-8.72-15.37-18.42q.01-2.53.06-5.96a.68.67-89.566 0 1 .67-.67h15.56a.68.68-88.789 0 1 .68.71c-.14 4.31-.83 10.1 3.39 11.97 3.26 1.45 6.69-.53 7.26-4.09.87-5.42-3.52-9.52-7.59-12.35q-6.76-4.68-10.3-7.42-7.69-5.94-8.47-15.26-1-12.03 7.22-18.28c5.55-4.22 14.46-4.2 21.66-2.98q10.73 1.83 12.92 12.17 1.23 5.83.67 11.24a.496.493-86.738 0 1-.49.44h-15.06a.52.512 1.563 0 1-.52-.54M797.94 378.51h-14.23a.614.612-87.828 0 1-.61-.66q.14-2.11-.15-5.55-.62-7.32-7.92-5.46c-1.42.37-2.63 2.28-2.81 3.93q-.46 4.25 3.07 7.22c4.68 3.95 12.06 9.18 17.71 14.63 6.06 5.86 8.12 13.48 6.25 21.79-2.03 8.99-12.75 13.82-21.76 13.57-8.43-.24-15.88-1.78-20.18-9.06-2.52-4.26-2.3-10.76-2.11-15.8a.81.81-88.898 0 1 .81-.78h14.97a.621.62-89.105 0 1 .62.64q-.01.55-.05 6.26c-.06 8.29 11.16 8.53 11.41.38q.13-4.45-3.73-7.61-3.44-2.82-11.22-8.76c-8.37-6.39-13.72-13.34-11.42-24.36 1.64-7.91 6.83-12.75 14.61-14.26 10.19-1.97 23.93-.17 26.84 11.56q1.08 4.36.64 11.62a.742.741-88.362 0 1-.74.7M408.874 426.875l-16.271.065a.647.643 86.134 0 1-.649-.571l-1.331-11.435a.685.678-3.204 0 0-.679-.601l-10.594-.047a.753.746-85.931 0 0-.74.649l-1.507 11.331a.616.609 3.814 0 1-.611.528l-15.481.036a.628.624-84.664 0 1-.618-.75l13.423-70.499a.837.834-84.48 0 1 .82-.678l20.888.083a.947.944 84.986 0 1 .929.781l13.001 70.42a.589.588 85.155 0 1-.58.688m-24.238-25.679q2.761.027 3.678-.049a.448.444-6.071 0 0 .407-.5q-.865-6.753-3.397-31.393-.055-.542-.376-.545-.305-.003-.371.538-3.016 24.585-4.013 31.32a.448.444 7.198 0 0 .396.507q.916.095 3.676.122M445.94 389.64a.108.106-59.24 0 0 .19-.05l5.06-34.11a.6.595-86.132 0 1 .59-.52h24.69a.68.68 45 0 1 .68.68v70.57a.63.63 45 0 1-.63.63h-14.94a.5.49 0 0 1-.5-.49v-53.13a.334.328 10.175 0 0-.22-.31h-.02a.359.354-85.203 0 0-.35.3l-8.72 53.23a.649.646 4.709 0 1-.64.54h-10.15a.73.728-4.641 0 1-.72-.61l-9.13-53.82a.411.409 89.023 0 0-.35-.34h-.02a.378.374-4.494 0 0-.32.37l.02 53.8a.46.46-45 0 1-.46.46h-15.07a.68.68 25.205 0 1-.68-.68V355.5a.54.54-54.474 0 1 .54-.54h25.15a.809.806-4.107 0 1 .8.69q2.06 14.25 4.7 32.88.09.62.5 1.11M523.143 426.96h-10.846a.15.15-66.19 0 1-.148-.125l-9.098-53.27a.15.15 73.356 0 0-.148-.125h-.213a.15.15-44.971 0 0-.15.15v53.11a.15.15-44.996 0 1-.15.15h-15.83a.15.15-44.995 0 1-.15-.15v-71.56a.15.15-45 0 1 .15-.15h26.088a.15.15 26.87 0 1 .148.131l4.275 34.288a.15.15-79.615 0 0 .297.005l5.641-34.378a.15.15-49.895 0 1 .148-.126h25.833a.15.15-72.398 0 1 .15.15v71.66a.15.15-56.7 0 1-.15.15h-16.1a.15.15 45 0 1-.15-.15v-53.681a.15.15-59.459 0 0-.127-.148l-.316-.049a.15.15-79.403 0 0-.171.124l-8.835 53.868a.15.15-13.424 0 1-.148.126M583.658 414.3h-10.614a.67.67-88.714 0 0-.663.579l-1.562 11.382a.67.67 52.385 0 1-.663.579h-15.358a.67.67 47.441 0 1-.658-.794l13.327-70.6a.67.67-46.19 0 1 .658-.546h21.268a.67.67 21.541 0 1 .659.547l13.16 70.64a.67.67-53.964 0 1-.658.793h-16.152a.67.67 31.754 0 1-.665-.588l-1.414-11.404a.67.67 68.251 0 0-.665-.588m-5.451-12.921q2.82.029 3.758-.049a.457.454-6.042 0 0 .415-.51q-.88-6.9-3.454-32.075-.056-.554-.384-.558-.311-.003-.379.55-3.094 25.116-4.117 31.997a.457.454 7.227 0 0 .405.518q.936.098 3.756.127M629.738 414.553c4.519.007 4.957-3.654 4.959-7.29q.013-32.343.153-51.723a.57.56-89.479 0 1 .56-.56h15.33a.79.79-45 0 1 .79.79q.07 28.22.01 46.81-.03 9.94-1.856 14.085c-3.593 8.152-11.276 11.636-19.967 11.623s-16.363-3.521-19.931-11.684q-1.813-4.151-1.813-14.091-.003-18.59.154-46.81a.79.79 27.243 0 1 .792-.787l15.33.047a.57.56 89.655 0 1 .558.562q.081 19.38-.005 51.723c-.01 3.636.417 7.298 4.936 7.305M703.51 426.42a.347.342-11.67 0 1-.32.48H688.3a1.398 1.38-10.929 0 1-1.29-.86q-1.66-4.11-1.53-9.04.24-8.48-.17-17.11a4.227 4.222 4.06 0 0-3.44-3.96l-3.44-.65a2.115 2.11-84.689 0 0-2.5 2.08v28.8a.73.72 0 0 1-.73.72h-14.99a.91.91-.111 0 1-.91-.91v-70.41a.64.63-89.559 0 1 .64-.64l24.56.17q6.97.07 11.77 3.11c6.31 4.01 6.43 12.04 5.97 19.08q-.58 8.92-8.86 11.88a.385.381-46.905 0 0 .02.73c8.02 2.26 8.79 7.84 8.68 15.87q-.1 7.02.14 13.74.15 4.28 1.29 6.92m-27.499-58.245.078 14.86a.76.76-9.102 0 0 .764.756l3.68-.019a5.14 5.12-.3 0 0 5.113-5.147l-.032-6.14a5.14 5.12-.3 0 0-5.167-5.093l-3.68.019a.76.76-74.172 0 0-.756.764M806.9 426.21v-70.64a.64.64 36.836 0 1 .64-.64h36.19a.64.64 33.735 0 1 .64.64v12.85a.64.64 37.839 0 1-.64.64h-19.46a.64.64 27.326 0 0-.64.64v13.09a.64.64-15.149 0 0 .64.64h17.03a.64.64-56.248 0 1 .64.64v12.57a.64.64-53.17 0 1-.64.64h-17.08a.64.64 19.838 0 0-.64.64v14.45a.64.64-44.981 0 0 .64.64h20.06a.64.64 33.735 0 1 .64.64v12.56a.64.64 36.836 0 1-.64.64h-36.74a.64.64 33.735 0 1-.64-.64M748.796 426.12a.71.71-89.8 0 1-.708.703l-36.735.114a.69.68.627 0 1-.683-.688l-.056-70.49a.82.81-.209 0 1 .817-.813l35.785-.031a.84.83.128 0 1 .843.838l-.083 12.815a.34.34 77.139 0 1-.339.342l-19.817.262a.51.51 44.979 0 0-.509.512l.038 13.176a.6.6 22.41 0 0 .603.598l17.067-.083a.66.66 26.797 0 1 .662.658l.017 12.656a.58.58-56.347 0 1-.579.582l-17.047-.008a.65.65-89.761 0 0-.648.643l-.088 14.206a.85.85-8.96 0 0 .843.857l20.049.067a.54.53 89.791 0 1 .532.539z"></path><path fill="#fff" fill-rule="evenodd" d="M676.011 368.175a.76.76-50.803 0 1 .756-.764l3.68-.019a5.14 5.12-.3 0 1 5.167 5.093l.032 6.14a5.14 5.12-.3 0 1-5.113 5.147l-3.68.019a.76.76 32.409 0 1-.764-.756zM578.542 368.187q.328.004.384.558 2.574 25.175 3.454 32.075a.457.454-6.042 0 1-.415.51q-.938.078-3.758.049t-3.756-.127a.457.454 7.227 0 1-.405-.518q1.023-6.881 4.117-31.997.068-.553.379-.55M384.636 401.196q-2.76-.027-3.676-.122a.448.444 7.198 0 1-.396-.507q.997-6.735 4.013-31.32.066-.541.371-.538.321.003.376.545 2.532 24.64 3.397 31.393a.448.444-6.071 0 1-.407.5q-.917.076-3.678.049"></path><path fill="#c80914" fill-rule="evenodd" d="M751.31 373.87q.11 15.04 12.67 22.62a.461.458-26.928 0 1-.28.85q-2.29-.19-7.53-.23c-6.28-.05-6.41 5.3-6.21 10.36a.421.42 88.697 0 1-.42.44h-15.96a1.1 1.1-56.24 0 1-1.1-1.1v-3.43a.932.931 1.462 0 1 .98-.93q6.96.37 12.56-.05c4.16-.31 4.8-3.51 4.77-7.41q-.06-8.04-.17-11.43-.17-5.46-6.1-5.39-6.05.07-10.98.27a1.07 1.07-1.033 0 1-1.11-1.07v-2a.901.893-88.492 0 1 .94-.9q2.48.13 11.88.13 3.29 0 5.54-1.06a.369.364 77.043 0 1 .52.33M801.31 394.99q-4.48-7.16-10.74-10.44a.516.513 56.229 0 1 .19-.97q1.03-.1 7.12.05c1.3.04 2.34-.41 3.24-1.21a.44.44-20.642 0 1 .73.33v12.08a.294.292-61.265 0 1-.54.16M705.74 392.55a.504.503 30.057 0 1-.94.25l-1.94-3.37a.494.488 46.485 0 1 .01-.51l2.31-3.45a.306.305 61.779 0 1 .56.17zM777.76 409.39a.422.414-53.537 0 1-.75.12q-.66-1.01-.23-2.36a.393.39 39.095 0 1 .71-.07q.63 1.06.27 2.31"></path><path fill="#959494" fill-rule="evenodd" d="M333.96 407.94a.999.898 58.138 0 1-.33 1.85q-.7-.09-.44-1.28.18-.84.77-.57"></path><path fill="#c80914" fill-rule="evenodd" d="m500.11 432.34-.02 90.36-.73.91a2.336 2.266 3.372 0 1-.65.56q-8.09 4.73-12.15 8.38-11.22 10.1-22.48 25.04c-4.76 6.33-9.66 16.09-12.09 21.12q-7.97 16.53-10.54 35.67-4.89 36.29 10.32 69.97 4.6 10.18 9.06 16.97c3.29 5.01 9.02 12.86 13.8 17.79q9.82 10.12 20.4 17.79.87.63 2.52 1.56 1.39.78 2.5 1.62l-.3 409.04q-1.85-3.32-4.95-11.13-19.87-50.05-39.75-100.43-14.25-36.11-28.63-72.15-39.45-98.9-78.75-198.26-.72-1.82-1.05-3.48.63-3.37.63-6.42-.13-162.37-.01-324.75 0-.43-.27-1.47 4.36-2.07 7.68-5.7a.42.419 72.099 0 1 .72.37q-.92 4.49 2.57 6.21a2.514 2.499-33.861 0 0 1.29.25q6.04-.41 16.01.03c7.02.31 7.38-5.26 7.33-10.98a1.961 1.96-.742 0 1 1.92-1.97l.17-.01a1.86 1.86 37.555 0 1 1.9 1.9c-.06 2.35.16 7.98 2.37 10.04q.91.85 3.45.91 10.78.25 15.35.08c6.99-.25 11.19.25 19.12.13 4.63-.07 7.4-.02 8.32-4.63a.294.291-46.807 0 1 .57-.02q.81 3.1 2.59 4.03a2.272 2.201-29.652 0 0 1.01.26q1.08.04 10.96.32 4.34.12 5.85-3.31a.392.39 44.814 0 1 .71 0q1.4 3.03 3.45 3.27a1.022.952 47.043 0 0 .14.01l17.17-.04a3.158 3.148-56.399 0 0 1.23-.25q1.77-.76 2.72-2.12a.494.492 45.599 0 1 .81.01q.91 1.36 2.39 2.06a2.73 2.699 57.591 0 0 1.09.25z"></path><path fill="#facf15" fill-rule="evenodd" d="m655.12 430.17-.19 96.39q-12.41-8.33-18.21-11.28-4.77-2.43-17.88-7.26-7.74-2.84-16.21-4.39-11.93-2.18-16.63-2.51c-29.04-2.05-60.46 5.12-84.66 21.18a2.152 2.094 22.16 0 1-.79.32l-.46.08.02-90.36q1.69.17 3.23-.17 2.56-.56 3.6-3.06a.525.524 48.435 0 1 .99.06c.51 1.81 1.42 2.73 3.47 2.77q7.15.14 13.35.23a1.449 1.442 25.142 0 0 .92-.33l2.07-1.76a.889.885-37.355 0 1 1.29.17c1.07 1.5 1.86 1.74 3.82 1.87q6.17.41 18.4-.36c1.58-.1 3.88.6 5.7.57q10.18-.19 12.24-.06c8.34.52 7.43-5.78 7.54-11.61a1.425 1.421 4.486 0 1 1.62-1.38l.13.02a1.782 1.776 4.264 0 1 1.53 1.77q-.01 4.35.84 7.6c.93 3.51 3.28 3.84 6.76 3.62q6.02-.39 14.3.12 4.28.26 6.08-3.13a2.772 2.753-33.237 0 0 .32-1.51l-.24-3.47a.427.424-64.739 0 1 .77-.28c5.77 8.19 12.21 8.71 21.96 8.99 9.84.28 18-3.29 22.65-12.3a.643.642 61.535 0 1 1.21.36q-.49 4.82.46 9.1"></path><path fill="#c80914" fill-rule="evenodd" d="M808.88 432.14q.14 162.67-.06 325.37 0 .85.86 1.44-21.43 53.67-42.79 107.36-12.19 30.63-42.98 107.29-25.08 62.47-49.7 125.13-9.11 23.18-19.43 47.43l.02-409.41q.39-.14 1.06-.6 5.73-3.92 11.33-9.22 6.81-6.45 13.72-14.87c8.88-10.79 15.53-24.02 20.16-36.49q5.88-15.82 6.9-27.75c1.5-17.47 1-31.8-2.92-46.41q-4.49-16.73-12.3-31.46-3.61-6.82-6.69-11.2-6.45-9.16-7.77-10.54-4.38-4.56-13.08-13.24-1.77-1.77-5.09-4.25-2.72-2.04-5.19-4.16l.19-96.39q2.48 1.81 3.4 1.8 8.85-.05 18.43.25a2.56 2.473 31.525 0 0 1.22-.27q2.95-1.49 2.9-5.17a.347.331 72.005 0 1 .13-.27q.16-.13.42-.08a.08.064 1.468 0 1 .06.05q.88 4.01 3.75 5.5a2.289 2.288 58.506 0 0 1.04.25h17.77a1.845 1.76 30.82 0 0 .79-.18l1.36-.65a1.617 1.594-43.778 0 1 1.42.02q.78.39 1.64.65.99.3 1.65.29 19.84-.25 35.14.03 8.27.15 7.6-8.02a.436.436 26.321 0 1 .8-.27c8.72 13.37 40.23 12.06 46.63-3.07a.418.413-34.05 0 1 .8.15q.01.62-.15 5.06-.25 6.71 6.96 5.9" data-source="https://football-logos.cc"></path><path fill="#959494" fill-rule="evenodd" d="M654.93 526.56q2.47 2.12 5.19 4.16 3.32 2.48 5.09 4.25 8.7 8.68 13.08 13.24 1.32 1.38 7.77 10.54 3.08 4.38 6.69 11.2 7.81 14.73 12.3 31.46c3.92 14.61 4.42 28.94 2.92 46.41q-1.02 11.93-6.9 27.75c-4.63 12.47-11.28 25.7-20.16 36.49q-6.91 8.42-13.72 14.87-5.6 5.3-11.33 9.22-.67.46-1.06.6-12.53 8.8-24.1 13.94-12.29 5.45-27.23 8.95-10.38 2.44-18.69 2.7-3.75.12-16.81-.05c-9.41-.13-18.35-1.82-26.53-4.19q-12.13-3.52-15.98-5.09-10.97-4.45-25.41-12.93-1.11-.84-2.5-1.62-1.65-.93-2.52-1.56-10.58-7.67-20.4-17.79c-4.78-4.93-10.51-12.78-13.8-17.79q-4.46-6.79-9.06-16.97-15.21-33.68-10.32-69.97 2.57-19.14 10.54-35.67c2.43-5.03 7.33-14.79 12.09-21.12q11.26-14.94 22.48-25.04 4.06-3.65 12.15-8.38a2.336 2.266 3.372 0 0 .65-.56l.73-.91.46-.08a2.152 2.094 22.16 0 0 .79-.32c24.2-16.06 55.62-23.23 84.66-21.18q4.7.33 16.63 2.51 8.47 1.55 16.21 4.39 13.11 4.83 17.88 7.26 5.8 2.95 18.21 11.28m-117.61-12.85-2.33.95q-.76-.56-2.53-.16-4.73 1.08-7.47 2.92a.346.338-50.467 0 0 .05.6q.39.17 1.02.13l-7.22 3.35q-3.3-.78-7.48 1.86-10.54 6.66-22.08 16.39-9.95 8.37-16.49 17.05-7.59 10.06-12.57 20.17-8.43 17.08-10.94 35.97-.19 9.89-.53 19.4c-.24 6.68 1.09 12.11 1.83 17.55q.94 6.86 2.63 12.99 7.11 25.75 24.42 46.73 1.77 2.13 5.8 6.06.09.1.11.22.01.13.06.33a.591.586-87.567 0 0 .41.45q.78.24 1.05.85c.58 1.36 2.18 2.57 3.22 3.04a2.859 2.668 76.717 0 1 .78.52q8.95 8.44 19.61 14.6 4.93 4.87 11.83 7.07.66.21.85-.3l.43.32a2.943 2.883-19.032 0 0 .97.46q5.47 1.5 10.28 3.55c3.24 1.37 6 1.72 9.36 3q2.87 1.09 7.13 1.79 15.48 2.56 27.73 2.37 23.75-.35 46.39-9.87-.09 1.66 3.07.18.7-.33 4.34-2.4 2.62-1.49 4.39-2.26 3.63-1.58 8.46-4.93 9.25-6.42 11.72-8.46c3.24-2.67 6.11-5.8 9.04-8.28q2.63-2.22 6.17-6.79 6.34-8.16 12.19-15.98c3.34-4.48 5.33-8.38 6.95-12.91q4.22-11.77 6.99-20.97.88-2.92.37-5.65l2.15-13.45.08 2.43a.252.241 89.943 0 0 .23.24h.01a.177.173-83.815 0 0 .17-.14q2.56-14.68-.72-29.88a.2.196-41.36 0 0-.38-.02l-.18.49q-.22-2.64-1.12-2.27l1.01-2.24a2.917 2.871-39.779 0 0 .18-1.81l-1.74-7.74a1.468 1.386-76.469 0 0-.43-.75l-.59-.53-.32-.94.3-.14a.584.579 75.299 0 0 .33-.57q-.13-1.7-.68-3.45-5.7-17.9-16.53-33.86-4.75-7-9.83-13.04c-5.28-6.28-11.97-11.46-18.3-16.47q-3.66-2.89-9.67-6.2-6.02-3.32-10.02-5.3-1.23-.6-2.7-.87a1.466 1.464-15.504 0 1-.85-.48q-1.11-1.27-3.99-2.32c-6.65-2.43-13.07-4.81-19.6-5.93q-.57-.1-.66.25-.07.28.09.77l-8.77-1.56q.51-1.21-2.29-1.47-11.1-1.04-24.81-.71-3.21.08-8.86.99-2.75.44-8.82 1.29-4.93.69-12.4 2.96a.615.536-72.081 0 0-.25.15q-.41.42-.05.66"></path><path fill-rule="evenodd" d="M594.8 509.84q-.95.64-1.53 1.58a1.22 1.22-78.047 0 1-.86.56q-1.31.19-1.52 1.13-.26 1.19-1.24 1.24-1.47.08-2.75 1.76a2.42 2.417-76.266 0 1-1.53.93l-10.2 1.78a.12.087-54.217 0 0-.06.02q-3.5 2.05-8.15 1.98a1.744 1.726-66.905 0 0-1.25.51l-7.04 7.05a1.556 1.556 77.427 0 1-2.2 0l-1.35-1.35a1.397 1.359 72.361 0 0-.71-.38q-2.52-.48-3.22-3.04c-.7-2.56-1.43-4.69 1.66-5.54q.61-.45.82-.82 3.29-.73 1.72-2.37-.91-.04-.95-.59.52-.9.37-1.46a.618.614-8.862 0 0-.62-.45q-1.57.06-2.72-.91a1.645 1.628 63.746 0 0-1.1-.38c-4.34.14-8.83 1.63-13.05 2.62q-.36-.24.05-.66a.615.536-72.081 0 1 .25-.15q7.47-2.27 12.4-2.96 6.07-.85 8.82-1.29 5.65-.91 8.86-.99 13.71-.33 24.81.71 2.8.26 2.29 1.47"></path><path fill="#fff" fill-rule="evenodd" d="m594.8 509.84 8.77 1.56q11.73 2.74 23.51 7.42a.423.422-38.011 0 1-.1.81c-3.22.46-7.47-.04-9.92 2.82-1.21 1.42-1.79 2.47-3.53 3.4q-3.56 1.91-5.59 2.66a.833.827-13.953 0 0-.54.89c.53 3.63.76 8.71 5.92 3.97a.917.915-30.653 0 1 1.49.38q.62 1.8 1.96 2.71a.947.934-65.842 0 1 .38 1.02q-.13.47-.45.9a.662.659-77.904 0 0 .67 1.04q1.01-.23 3.8-1.01a1.688 1.614 70.184 0 0 1.01-2.28q-.27-.61-.3-.72a.789.78 76.929 0 1 .56-.91l1.4-.4a.997.993 59.31 0 0 .42-1.66l-1.57-1.57a1.428 1.425 56.89 0 1 .49-2.34q2.37-.92 3.19-3.45a.944.943 12.722 0 1 1.03-.65q.46.06 2.26 1.73a.802.798 55.375 0 1-.24 1.33l-2.03.82a1.318 1.315 61.039 0 0-.57 1.99q1.98 2.74 4.52 1.97c1.81-.55 3.55-.47 4.52.16a.965.964-23.933 0 1-.68 1.76q-2.94-.47-4.1-.21a.575.572-48.166 0 0 .06 1.13q.86.09 1.97 1.27a.55.546-19.631 0 1-.44.92q-1.26-.07-2.25-1.15a1.012 1.008-66.406 0 0-1.75.69v2.7a.975.968 87.421 0 1-.88.97l-6.8.63a.58.552 52.751 0 1-.31-.05q-1.17-.55-3.08.13a1.3 1.3-33.264 0 1-1.3-.27q-2.21-2.01-1.93-4.1a.428.427 85.988 0 0-.54-.47c-1.51.45-1.99 1.66-1.61 3.24q.3 1.19-.04 1.71a2.306 2.304 5.222 0 1-1.01.84l-3.16 1.35a5.419 5.276-77.768 0 0-1.66 1.1q-4.54 4.36-10.83 5.39a.695.692 52.948 0 0-.18 1.31c2.93 1.4 6.26 5.24 2.49 7.97a.96.923-59.125 0 1-.66.18l-6.45-.64a2.171 2.161-83.111 0 0-2.36 1.86l-.82 5.98a.991.959-17.48 0 1-.32.59q-1.15.99-.13 2.2c.6.71.54 2.1.81 2.51a.919.904 67.58 0 0 .94.4l1.74-.32a.694.69-21.651 0 1 .7.3l.92 1.41a.41.41 41.772 0 0 .71-.04q.33-.58 2.22-.63c2.69-.06 6.24-1.8 6.16-5.15-.06-2.46 3.83-4.16 4.95-5.94q.91-1.42 1-1.54a1.446 1.41 19.964 0 1 1.15-.52q3.54.12 6.59-1.46a.75.746 59.826 0 1 .97.26q2.85 4.36 8.67 7.36a2.497 2.215 27.165 0 1 1.21 3.11q-.75 1.47-3.42.96-.49-.09-.76.01-.69.25-.35 1.04a.74.718-86.151 0 0 .28.33l2.41 1.61a.403.401 22.099 0 0 .62-.26l.19-.99a1.064 1.025-11.459 0 1 .49-.71c1.65-1 3.31-1.83 2.22-3.9a.598.582-38.138 0 1 .09-.67q.25-.27.42-.33a.971.936 43.84 0 0-.07-1.81q-5.59-1.82-8.38-7.5a.659.655-86.3 0 1 .95-.84l9.55 6.36a2.483 2.396 88.526 0 1 .63.62q.07.15.1 2.25a1.47 1.429-66.298 0 0 .34.91l3.53 4.18a1.542 1.523-69.854 0 1 .31.68q.22 1.25.69 2.01a.924.923-51.818 0 0 1.66-.2q.31-.92 1.45-1.98a.657.656 41.658 0 0-.06-1.01q-.32-.23-1.32-.04a.534.533 82.217 0 1-.63-.48c-.14-1.5-.29-3.15 1.51-3.55q1.93-.43 2.92.25a1.44 1.436-78.613 0 1 .57.86c.86 3.99 3.67 9.11 8.46 7.16a1.26 1.245 41.094 0 1 .8-.05l2.89.84a1.355 1.331 41.939 0 0 .9-.04l2.2-.89a1.072 1.07 75.871 0 1 1.47.88q.6 5.55-1.67 10.08a1.3 1.3-61.145 0 1-1.83.53q-2.62-1.56-5.19-.2a2.138 2.123-48.057 0 1-1.76.1l-11.33-4.31a.726.695-42.456 0 0-.45-.01q-3.48 1.06-2.83 4.4a.447.447-57.057 0 1-.6.5l-4.91-1.87a1.829 1.81 82.863 0 1-.84-.66q-1.78-2.54-5.83-2.91a3.085 2.466 7.064 0 1-2.86-2.93q.25-1.5-.22-5.23a.636.633 83.813 0 0-.68-.55l-10.93.76a14.634 13.626 34.948 0 0-1.99.28q-.83.3-5.15 2.21-2.59 1.14-6.18-.51a.619.616 17.54 0 0-.87.45c-.69 3.78-7.1 4.26-6.96 10.74.04 2.11-2.82 4.16-4.48 4.75a2.817 2.789 3.244 0 0-1.55 1.37l-5.77 11.49a4.13 4.096 50.569 0 0-.28 3q1.54 5.35-.15 10.53c-1.47 4.49-.88 7.96 2.25 11.64 2.51 2.96 3.48 7.24 6.07 10.01q2.16 2.31 5.81 5.23a2.874 2.867-36.605 0 0 2.87.42l3.59-1.46a1.23 1.199 33.2 0 1 .46-.09h4.8a3.479 3.324 31.046 0 0 1.47-.33c2.9-1.39 6.08-3.2 8.95-2.44a1.214 1.2 85.943 0 1 .82.72l1.11 2.75a1.397 1.395 76.998 0 0 1.39.87l3.33-.23a.823.816 66.725 0 1 .67.27q1.35 1.52 1.76 3.2a.5.5-3.324 0 1 0 .24l-1.8 7.61a3.891 3.872-58.419 0 0 .8 3.39q2.45 2.95 3.84 4.94.66.95 2.32 6.77a5.108 5.019 37.372 0 1 .18 1.26q.04 3.38 1.1 6.79a1.795 1.784-36.186 0 1-.25 1.58q-4.66 6.63-4.01 14.11a5.228 5.127-59.51 0 0 .4 1.61q3.36 7.84 3.48 9.42.31 3.75.63 6.8a10.337 10.276 32.301 0 0 .53 2.32c1.51 4.3 3.34 8.59 2.94 12.22-.27 2.47 1.44 4.38 4.16 3.18 3.61-1.59 6.35.67 9.55-2.58q4.64-4.73 8.04-9.43 2.55-3.52 3.07-6.66a1.68 1.662 76.441 0 1 .64-1.06q.11-.08 2.28-1.32c3.15-1.79 2.79-5.84 2.65-9.32a2.774 2.757-26.926 0 1 .59-1.79q2.69-3.36 6.56-6.02c4.52-3.12 3.79-6.1 4.25-12.46a4.044 4.008 36.215 0 0-.28-1.76l-.52-1.29a2.03 1.865 33.107 0 1-.12-.47l-.71-8.12a1.185 1.077-42.28 0 1 .04-.42q1.49-5.1 2.53-6.59 3.58-5.07 11.45-14.04c3.78-4.3 4.88-9.43 6.72-14.85a1.012.857-40.269 0 0 .05-.3v-3.84a.614.614-20.043 0 0-1.01-.47l-1.04.88a.405.373-69.183 0 1-.18.09l-8.48 1.88a1.051 1.035 56.144 0 1-.83-.17q-1.65-1.21-2.08-3.87a.336.331-88.84 0 1 .39-.38l1.32.25a.927.902-53.538 0 0 .61-.1q3.81-2.11 9.59-4.54 1.34-.56 2.82-2.69a1.015 1.006 21.113 0 1 .96-.42l.84.12a1.322 1.313-65.94 0 0 1.19-.46l3.83-4.5q.9-.37 1.12 2.27 1.71 13.44.79 26.88l-2.15 13.45q-2.11 9.36-5.45 17.81c-1.5 3.81-3.51 10.16-6 14.3q-3.35 5.56-3.61 5.85-3.15 3.51-5.41 7.37a5.042 4.908-7.973 0 1-.83 1.07q-2.9 2.85-4.19 5.75a4.256 4.083 79.029 0 1-.71 1.1c-5.77 6.4-11.54 13.13-19.22 18.81q-13.16 9.73-28.27 16.39-22.64 9.52-46.39 9.87-12.25.19-27.73-2.37-4.26-.7-7.13-1.79c-3.36-1.28-6.12-1.63-9.36-3q-4.81-2.05-10.28-3.55a2.943 2.883-19.032 0 1-.97-.46l-.43-.32q.2-1.04.6-2.05.63-1.61.14-1.88-.36-.2-1.66-1.01a.459.455-43.818 0 1 .02-.78q2.5-1.42.61-3.25a.506.504 68.119 0 1 .37-.87q1.69.07 2.54-.14a.636.63-9.217 0 0 .48-.66l-.1-1.38a.692.682 86.658 0 1 .64-.73q.55-.04 1.48.11c1.92.3 3.02-1.25 3.32-3.04a1.067 1.059 19.69 0 0-.53-1.11q-1.73-.97-2.82-3.05a.354.353 85.83 0 1 .43-.5c2.44.85 5.33 1.23 6.55-1.41q2.68-5.79 5.07-12.72a1.516 1.487 44.46 0 0-.02-1.06l-.64-1.57a2.43 2.427-31.691 0 1 .65-2.74q3.23-2.85 6.71-3.23a2.648 2.637-81.411 0 0 2.16-1.6q1.83-4.35 3.05-10.22c.55-2.62.05-5.52.04-8.11a2.088 2.086 60.913 0 1 .33-1.16q3.61-5.74 3.81-6.03c2.68-3.84 2.74-5.66 1.96-10.04a.903.88 88.11 0 0-.76-.73l-1.3-.18a1.038.964 67.666 0 1-.52-.24l-4.28-3.71a1.549 1.533-16.99 0 0-.59-.31l-6.55-1.72a2.304 2.298-10.512 0 1-1.27-.87q-1.45-2.01-4-3.17-1.86-.85-2.87 1.71a.037.036 60.223 0 1-.07-.02l.27-1.96a1.01.992-63.336 0 0-.27-.84q-1.26-1.3-3.04-1.05-1.25.18-2.34 1.85a.13.13-17.721 0 1-.18.04l-.24-.16a.428.423 35.086 0 1-.11-.61q.93-1.24 2.56-2.23a1.008 1.007 63.735 0 0 .42-1.24l-3.13-7.73a1.136 1.103-77.848 0 0-.15-.24c-1.66-1.98-3.42-3.19-6.03-3.25q-1.58-.03-2.47-.26a1.749 1.705 75.719 0 1-.85-.52q-1.2-1.34-5.74-5.79c-1.61-1.59-1.21-3.64-4.52-3.65q-6.34-.03-11.05-3.43a.67.667-52.401 0 0-.91.12q-2.05 2.55-1.05 5.74a.142.134-20.118 0 1-.08.16l-.24.09a.435.431-21.924 0 1-.57-.24q-1.14-2.81.39-5.44a.485.483 10.341 0 0-.5-.72q-3.81.66-4.77 2.9a1.12 1.12 4.797 0 1-.77.65q-2.55.58-3.37 3.93a.805.805 35.656 0 1-1.46.24q-.94-1.47-2.62-1.99a1.302 1.24-46.396 0 0-.82.04l-2.78 1.13a1.44 1.44-38.592 0 1-1.34-.15c-4.3-2.93-2.33-8.22-1.37-12.16a2.232 2.231-85.061 0 0-2.32-2.76l-4.91.35a1.056 1.052-78.535 0 1-1.01-1.53l4.7-9.36a1.104 1.103 8.029 0 0-1.19-1.58l-2.98.55a3.01 3.007-84.878 0 0-2.26 1.89l-.91 2.41a.728.716-1.172 0 1-.4.41l-4.28 1.73a2.75 2.748 65.079 0 1-3.47-1.27c-1.98-3.77-.96-7.03.05-11.67 1.19-5.48 4.82-9.28 10.35-10.28a1.8 1.763-36.131 0 1 1.1.16q2.5 1.26 3.47-.4a3.284 3.199 23.553 0 1 3.76-1.42q3.04.91 5.58 1.03a1.197 1.194-83.334 0 1 1.12 1.42q-.82 4.17 1.18 8.05a.542.536 53.184 0 0 .87.13c1.06-1.12 1.7-2.8 1.61-4.57q-.1-1.92.03-6.86a2.474 2.415-32.046 0 1 .25-1.03c1.5-3.1 5.38-5.16 8.47-7.24 2.58-1.74 3.35-3.26 3.4-6.18a.963.928-79.906 0 1 1.24-.9q.67.23 1.13-.11.71-.54.92-.87 3.12-4.93 7.98-6.05a1.072 1.062 89.227 0 0 .82-.85l.3-1.63a1.253 1.232 82.671 0 1 .66-.87q3.6-1.8 6.72-2.66.88-.25.91-.29.42-.72.67-.72a.31.309-61.72 0 1 .17.57q-.97.64-1.53 1.27a.917.828-56.837 0 0 .22 1.4q.46.19.83-.05 3.22-2.1 7.01-3.02c.86-.21 1.21-.72 1.4-1.54a.644.642-8.228 0 0-.94-.7q-1.71.95-2.99.62a1.811 1.77-68.848 0 1-1.11-2.59q.22-.41 1.28-1.71a.79.787 14.228 0 0-.76-1.27l-3.37.63a.374.373 20.62 0 1-.3-.66q2.76-2.17 7.11-2.47a1.394 1.378 56.122 0 1 .74.15l.6.3a1.819 1.796 53.497 0 0 1.09.17q4.2-.68 6.45-2.64a.399.398-20.466 0 1 .66.3v.54a1.343 1.335 69.912 0 1-.47 1.02l-4.62 3.89a.843.841-59.947 0 0 .39 1.47l7.03 1.33a.507.499-84.806 0 0 .59-.5q-.02-1.19.26-2.76c.25-1.39-.67-1.8-1.84-1.76a.582.579 11.329 0 1-.55-.82l1.69-3.74a1.02.872 61.074 0 0 .08-.39q.02-1.7-2.18-3.23-.3-.21-2.5-.65a.88.875-1.597 0 1-.67-.63c-.24-.96.37-1.91.2-2.87q-.3-1.66-.8-3.32a.794.793-27.238 0 0-1.25-.4c-1.59 1.25-3.56 3.05-5.63 2.15a.936.934-40.833 0 1 .13-1.76q.46-.13.55-.19a.935.933-58.346 0 0-.39-1.65l-1.08-.21a.62.62-45 0 1-.49-.73q.16-.86.04-1.26a.829.827 84.279 0 0-.72-.59q-4.44-.42-7.84 3.09a1.924 1.92-17.53 0 0-.49.94q-.31 1.53-1.95 2.64a1.028 1.022 59.209 0 0-.33 1.32q.91 1.71-1.05 2.48-2.95 1.16-3.4 1.4a1.706 1.684 88.536 0 0-.75.8c-1.01 2.13-2.05 5.2-4.43 5.18a1.121 1.119 10.666 0 1-1.04-1.52l.87-2.31a.982.977-78.033 0 0-.86-1.33q-2.63-.13-4.75-1.87a.782.778 45.609 0 1 .01-1.22q7.97-6.29 16.02-9.9a1.21.945 7.018 0 0 .15-.09l3.34-2.29a1.118 1.117 57.382 0 1 1.59.35q.38.66.97 1.08a1.096 1.084 53.46 0 0 .97.15q2.46-.79 6.17.07a1.119 1.109 81.189 0 1 .69.51l.87 1.51a1.174 1.172 47.856 0 0 1.97.1q1.19-1.67 3.38-1.36a.645.642-18.365 0 0 .55-1.09l-.99-.98a1.115 1.112-26.115 0 1 .65-1.89q1.6-.21 2.06.45.48.7.99.58.58-.14 1.12-.82a1.318 1.285-75.465 0 1 .76-.46l2.58-.48a.64.628 89.449 0 0 .51-.53l.05-.36a.683.682-89.669 0 0-.76-.77q-1.56.19-1.93-1.02a1.268 1.262.476 0 0-.85-.86q-1.13-.34-1.92-.52-.99-.22-1.03-1.26l2.33-.95c4.22-.99 8.71-2.48 13.05-2.62a1.645 1.628 63.746 0 1 1.1.38q1.15.97 2.72.91a.618.614-8.862 0 1 .62.45q.15.56-.37 1.46-2.58 1.41-1.59 3.78c-3.09.85-2.36 2.98-1.66 5.54q.7 2.56 3.22 3.04a1.397 1.359 72.361 0 1 .71.38l1.35 1.35a1.556 1.556 37.512 0 0 2.2 0l7.04-7.05a1.744 1.726-66.905 0 1 1.25-.51q4.65.07 8.15-1.98a.12.087-54.217 0 1 .06-.02l10.2-1.78a2.42 2.417-76.266 0 0 1.53-.93q1.28-1.68 2.75-1.76.98-.05 1.24-1.24.21-.94 1.52-1.13a1.22 1.22-78.047 0 0 .86-.56q.58-.94 1.53-1.58m-7.71 13.34a1.948 1.941 67.792 0 0 1.35.57q1.84.01 5.58-.71 1.47-.29 1.87-.81a1.522 1.319 11.471 0 0-1.61-2.09q-4.96.75-9.37.15a.279.277-18.192 0 0-.24.47zm7.04 15.37q-2.54-.21-5.17 1.49a.91.898-20.162 0 0-.41.87q.18 1.48-.76 3.04a.812.811 4.486 0 0 1 1.17l4.21-1.71a1.051 1.031-7.579 0 0 .64-.82l.35-2.53a1.167 1.161 18.679 0 1 1.73-.85q1.09.62 1.27 1.38.14.6-.78 1.14-.71.42-.91.81a.847.841 40.769 0 0 .07.9q.85 1.18-.66 2.57a.788.785 22.381 0 0 .57 1.36q.44-.02 1.25-.57a1.645 1.625 33.17 0 1 1.23-.25q2.64.5 4.94-2a.673.663 46.069 0 0 .01-.88l-4.82-5.71a1.15 1.143 32.935 0 1-.23-1.06q.53-1.87-.74-2.57c-1.22-.67-2.69.41-3.4.99a.618.612 52.84 0 0-.11.83l1.15 1.65a.48.475 75.075 0 1-.43.75m9.318-.245q.214 1.184 2.381 2.175a1.043 1.041-66.941 0 0 1.405-.567q.507-1.294.316-2.351t-1.121-2.091a1.043 1.041 46.419 0 0-1.513-.039q-1.683 1.688-1.468 2.873m12.125 30.18q.443-.038.71-.399.327-.446.197-.836-1.02-2.98-.82-4.62.02-.14-.223-.246-.292-.126-.389-.118t-.364.182q-.222.145-.179.279.473 1.584-.033 4.693-.063.406.334.791.323.311.767.274m39.677 9.875q.34-.05.51-.39a.669.55-67.825 0 0-.28-.9q-.65-.19-1.19.12a.618.607 47.722 0 0-.04 1.03q.31.22 1 .14m-167.204 15.841a.7.6-65.9 0 0-.834.394.7.6-65.9 0 0 .262.884.7.6-65.9 0 0 .834-.394.7.6-65.9 0 0-.262-.884m4.814 9.119c-.19-.18-1.92-.61-2.62-1.08-5.14-3.49-9.61-6.63-14.73-2.47a.548.546-72.858 0 0 .5.95l3.66-1.1a2.526 2.479 49.404 0 1 1.85.16l4.17 2.09a1.074 1.065-74.61 0 1 .58 1.03q-.04.61-.04.68a.82.82 45.053 0 0 .82.82l5.42-.01a.608.607-25.003 0 0 .39-1.07m.99 3.79q-1.11-.1-1.51.01a.621.619-45.612 0 0 .01 1.2q2.86.72 4.7.15c1.53-.47 2.53-.08 3.89-.29a.635.634-25.779 0 0 .37-1.06q-2.33-2.49-6.13-2.74a.65.649-2.451 0 0-.69.75l.19 1.08a.778.771-2.571 0 1-.83.9m-8.47.528a1.49.85-147 0 0 .787 1.525 1.49.85-147 0 0 1.713.099 1.49.85-147 0 0-.787-1.525 1.49.85-147 0 0-1.713-.099m18.284.578a1.11.77-165.7 0 0 .886 1.02 1.11.77-165.7 0 0 1.266-.472 1.11.77-165.7 0 0-.886-1.02 1.11.77-165.7 0 0-1.266.472"></path><path fill-rule="evenodd" d="m695.68 599.01-2.09-3.95a.848.846 45.696 0 0-1.49-.02q-.28.51-1.12 1.01a.715.709 51.476 0 1-.85-.1l-3.4-3.24a1.512 1.406 9.217 0 1-.28-.36q-1.18-2.03-3.77-4.36a.827.821-63.49 0 0-1.36.46l-.19 1.05a1.708 1.704 28.232 0 0 .46 1.52q1.8 1.83 2.82 4.33a1.234 1.214 87.204 0 0 .77.71l1.87.59a1.026.912 71.565 0 1 .33.19q.74.7.47 1.85a1.52 1.408-6.08 0 0 2.09 1.56q1.98-.83 2.54-2.31a.882.882-41.588 0 1 1.68.1q.51 2.06 1.84 1.91l.59.53a1.468 1.386-76.469 0 1 .43.75l1.74 7.74a2.917 2.871-39.779 0 1-.18 1.81l-1.01 2.24-3.83 4.5a1.322 1.313-65.94 0 1-1.19.46l-.84-.12a1.015 1.006 21.113 0 0-.96.42q-1.48 2.13-2.82 2.69-5.78 2.43-9.59 4.54a.927.902-53.538 0 1-.61.1l-1.32-.25a.336.331-88.84 0 0-.39.38q.43 2.66 2.08 3.87a1.051 1.035 56.144 0 0 .83.17l8.48-1.88a.405.373-69.183 0 0 .18-.09l1.04-.88a.614.614-20.043 0 1 1.01.47v3.84a1.012.857-40.269 0 1-.05.3c-1.84 5.42-2.94 10.55-6.72 14.85q-7.87 8.97-11.45 14.04-1.04 1.49-2.53 6.59a1.185 1.077-42.28 0 0-.04.42l.71 8.12a2.03 1.865 33.107 0 0 .12.47l.52 1.29a4.044 4.008 36.215 0 1 .28 1.76c-.46 6.36.27 9.34-4.25 12.46q-3.87 2.66-6.56 6.02a2.774 2.757-26.926 0 0-.59 1.79c.14 3.48.5 7.53-2.65 9.32q-2.17 1.24-2.28 1.32a1.68 1.662 76.441 0 0-.64 1.06q-.52 3.14-3.07 6.66-3.4 4.7-8.04 9.43c-3.2 3.25-5.94.99-9.55 2.58-2.72 1.2-4.43-.71-4.16-3.18.4-3.63-1.43-7.92-2.94-12.22a10.337 10.276 32.301 0 1-.53-2.32q-.32-3.05-.63-6.8-.12-1.58-3.48-9.42a5.228 5.127-59.51 0 1-.4-1.61q-.65-7.48 4.01-14.11a1.795 1.784-36.186 0 0 .25-1.58q-1.06-3.41-1.1-6.79a5.108 5.019 37.372 0 0-.18-1.26q-1.66-5.82-2.32-6.77-1.39-1.99-3.84-4.94a3.891 3.872-58.419 0 1-.8-3.39l1.8-7.61a.5.5-35.838 0 0 0-.24q-.41-1.68-1.76-3.2a.823.816 66.725 0 0-.67-.27l-3.33.23a1.397 1.395 76.998 0 1-1.39-.87l-1.11-2.75a1.214 1.2 85.943 0 0-.82-.72c-2.87-.76-6.05 1.05-8.95 2.44a3.479 3.324 31.046 0 1-1.47.33h-4.8a1.23 1.199 33.2 0 0-.46.09l-3.59 1.46a2.874 2.867-36.605 0 1-2.87-.42q-3.65-2.92-5.81-5.23c-2.59-2.77-3.56-7.05-6.07-10.01-3.13-3.68-3.72-7.15-2.25-11.64q1.69-5.18.15-10.53a4.13 4.096 50.569 0 1 .28-3l5.77-11.49a2.817 2.789 3.244 0 1 1.55-1.37c1.66-.59 4.52-2.64 4.48-4.75-.14-6.48 6.27-6.96 6.96-10.74a.619.616 17.54 0 1 .87-.45q3.59 1.65 6.18.51 4.32-1.91 5.15-2.21a14.634 13.626 34.948 0 1 1.99-.28l10.93-.76a.636.633 83.813 0 1 .68.55q.47 3.73.22 5.23a3.085 2.466 7.064 0 0 2.86 2.93q4.05.37 5.83 2.91a1.829 1.81 82.863 0 0 .84.66l4.91 1.87a.447.447 66.361 0 0 .6-.5q-.65-3.34 2.83-4.4a.726.695-42.456 0 1 .45.01l11.33 4.31a2.138 2.123-48.057 0 0 1.76-.1q2.57-1.36 5.19.2a1.3 1.3-61.145 0 0 1.83-.53q2.27-4.53 1.67-10.08a1.072 1.07 75.871 0 0-1.47-.88l-2.2.89a1.355 1.331 41.939 0 1-.9.04l-2.89-.84a1.26 1.245 41.094 0 0-.8.05c-4.79 1.95-7.6-3.17-8.46-7.16a1.44 1.436-78.613 0 0-.57-.86q-.99-.68-2.92-.25c-1.8.4-1.65 2.05-1.51 3.55a.534.533 82.217 0 0 .63.48q1-.19 1.32.04a.657.656 41.658 0 1 .06 1.01q-1.14 1.06-1.45 1.98a.924.923-51.818 0 1-1.66.2q-.47-.76-.69-2.01a1.542 1.523-69.854 0 0-.31-.68l-3.53-4.18a1.47 1.429-66.298 0 1-.34-.91q-.03-2.1-.1-2.25a2.483 2.396 88.526 0 0-.63-.62l-9.55-6.36a.659.655-86.3 0 0-.95.84q2.79 5.68 8.38 7.5a.971.936 43.84 0 1 .07 1.81q-.17.06-.42.33a.598.582-38.138 0 0-.09.67c1.09 2.07-.57 2.9-2.22 3.9a1.064 1.025-11.459 0 0-.49.71l-.19.99a.403.401 22.099 0 1-.62.26l-2.41-1.61a.74.718-86.151 0 1-.28-.33q-.34-.79.35-1.04.27-.1.76-.01 2.67.51 3.42-.96a2.497 2.215 27.165 0 0-1.21-3.11q-5.82-3-8.67-7.36a.75.746 59.826 0 0-.97-.26q-3.05 1.58-6.59 1.46a1.446 1.41 19.964 0 0-1.15.52q-.09.12-1 1.54c-1.12 1.78-5.01 3.48-4.95 5.94.08 3.35-3.47 5.09-6.16 5.15q-1.89.05-2.22.63a.41.41 41.772 0 1-.71.04l-.92-1.41a.694.69-21.651 0 0-.7-.3l-1.74.32a.919.904 67.58 0 1-.94-.4c-.27-.41-.21-1.8-.81-2.51q-1.02-1.21.13-2.2a.991.959-17.48 0 0 .32-.59l.82-5.98a2.171 2.161-83.111 0 1 2.36-1.86l6.45.64a.96.923-59.125 0 0 .66-.18c3.77-2.73.44-6.57-2.49-7.97a.695.692 52.948 0 1 .18-1.31q6.29-1.03 10.83-5.39a5.419 5.276-77.768 0 1 1.66-1.1l3.16-1.35a2.306 2.304 5.222 0 0 1.01-.84q.34-.52.04-1.71c-.38-1.58.1-2.79 1.61-3.24a.428.427 85.988 0 1 .54.47q-.28 2.09 1.93 4.1a1.3 1.3-33.264 0 0 1.3.27q1.91-.68 3.08-.13a.58.552 52.751 0 0 .31.05l6.8-.63a.975.968 87.421 0 0 .88-.97v-2.7a1.012 1.008-66.406 0 1 1.75-.69q.99 1.08 2.25 1.15a.55.546-19.631 0 0 .44-.92q-1.11-1.18-1.97-1.27a.575.572-48.166 0 1-.06-1.13q1.16-.26 4.1.21a.965.964-23.933 0 0 .68-1.76c-.97-.63-2.71-.71-4.52-.16q-2.54.77-4.52-1.97a1.318 1.315 61.039 0 1 .57-1.99l2.03-.82a.802.798 55.375 0 0 .24-1.33q-1.8-1.67-2.26-1.73a.944.943 12.722 0 0-1.03.65q-.82 2.53-3.19 3.45a1.428 1.425 56.89 0 0-.49 2.34l1.57 1.57a.997.993 59.31 0 1-.42 1.66l-1.4.4a.789.78 76.929 0 0-.56.91q.03.11.3.72a1.688 1.614 70.184 0 1-1.01 2.28q-2.79.78-3.8 1.01a.662.659-77.904 0 1-.67-1.04q.32-.43.45-.9a.947.934-65.842 0 0-.38-1.02q-1.34-.91-1.96-2.71a.917.915-30.653 0 0-1.49-.38c-5.16 4.74-5.39-.34-5.92-3.97a.833.827-13.953 0 1 .54-.89q2.03-.75 5.59-2.66c1.74-.93 2.32-1.98 3.53-3.4 2.45-2.86 6.7-2.36 9.92-2.82a.423.422-38.011 0 0 .1-.81q-11.78-4.68-23.51-7.42-.16-.49-.09-.77.09-.35.66-.25c6.53 1.12 12.95 3.5 19.6 5.93q2.88 1.05 3.99 2.32a1.466 1.464-15.504 0 0 .85.48q1.47.27 2.7.87 4 1.98 10.02 5.3 6.01 3.31 9.67 6.2c6.33 5.01 13.02 10.19 18.3 16.47q5.08 6.04 9.83 13.04 10.83 15.96 16.53 33.86.55 1.75.68 3.45a.584.579 75.299 0 1-.33.57zm-58.54-66.26q1.1.28 1.57-.01a.622.614 33.938 0 0-.23-1.14q-.66-.1-1.47.59a.322.322-58.126 0 0 .13.56m15.97 23.96.45 1.43a.684.68 71.43 0 1-.42.85q-.75.27-1.96-.05a1.079 1.054 84.778 0 1-.68-.58q-.75-1.64-2.8-2.97a1.297 1.295-63.12 0 0-1.92.63l-2.08 5.48a.849.84 47.272 0 0-.02.59l.62 1.96a.729.727 58.944 0 1-.18.73l-.76.77a.456.452-47.75 0 0 .03.68q1 .79 1.83.89a.712.705 12.448 0 0 .76-.48q.31-.98.81-1.48a1.108 1.105 28.629 0 1 1.06-.31q1.85.44 2.84-.78c1.63-2 5.91.14 7.68.85q2.46.98 4.95.18a1.204 1.204-24.174 0 0 .67-1.76c-1.18-2.01-5.44-3.73-7.5-5.04a.741.74-52.094 0 1-.14-1.13q1.63-1.77.2-1.98a.424.403-46.431 0 0-.2.01l-2.83.76a.59.589-16.388 0 0-.41.75m22.98 67.55q-.46-5.03-.8-5.97-.9-2.48-8.01-11.96a.64.62-68.036 0 1-.13-.32l-.32-2.22a2.093 2.013-65.68 0 0-.27-.76l-7.67-12.69a.456.455 34.146 0 0-.84.16l-.09.54a.531.526 38.561 0 1-1.01.11l-1.36-3.25a.485.478 68.42 0 0-.61-.27l-.08.05a.917.913 59.159 0 0-.3 1.2l9.24 16.92a1.095 1.084 28.01 0 1 .14.45l.17 2.06a2.98 2.98-69.374 0 0 .82 1.81q2.44 2.53 3.38 6.37a4.058 4.049-74.449 0 0 1.07 1.9l6.12 6.13a.324.324 19.684 0 0 .55-.26M534.99 514.66q.04 1.04 1.03 1.26.79.18 1.92.52a1.268 1.262.476 0 1 .85.86q.37 1.21 1.93 1.02a.683.682-89.669 0 1 .76.77l-.05.36a.64.628 89.449 0 1-.51.53l-2.58.48a1.318 1.285-75.465 0 0-.76.46q-.54.68-1.12.82-.51.12-.99-.58-.46-.66-2.06-.45a1.115 1.112-26.115 0 0-.65 1.89l.99.98a.645.642-18.365 0 1-.55 1.09q-2.19-.31-3.38 1.36a1.174 1.172 47.856 0 1-1.97-.1l-.87-1.51a1.119 1.109 81.189 0 0-.69-.51q-3.71-.86-6.17-.07a1.096 1.084 53.46 0 1-.97-.15q-.59-.42-.97-1.08a1.118 1.117 57.382 0 0-1.59-.35l-3.34 2.29a1.21.945 7.018 0 1-.15.09q-8.05 3.61-16.02 9.9a.782.778 45.609 0 0-.01 1.22q2.12 1.74 4.75 1.87a.982.977-78.033 0 1 .86 1.33l-.87 2.31a1.121 1.119 10.666 0 0 1.04 1.52c2.38.02 3.42-3.05 4.43-5.18a1.706 1.684 88.536 0 1 .75-.8q.45-.24 3.4-1.4 1.96-.77 1.05-2.48a1.028 1.022 59.209 0 1 .33-1.32q1.64-1.11 1.95-2.64a1.924 1.92-17.53 0 1 .49-.94q3.4-3.51 7.84-3.09a.829.827 84.279 0 1 .72.59q.12.4-.04 1.26a.62.62-45 0 0 .49.73l1.08.21a.935.933-58.346 0 1 .39 1.65q-.09.06-.55.19a.936.934-40.833 0 0-.13 1.76c2.07.9 4.04-.9 5.63-2.15a.794.793-27.238 0 1 1.25.4q.5 1.66.8 3.32c.17.96-.44 1.91-.2 2.87a.88.875-1.597 0 0 .67.63q2.2.44 2.5.65 2.2 1.53 2.18 3.23a1.02.872 61.074 0 1-.08.39l-1.69 3.74a.582.579 11.329 0 0 .55.82c1.17-.04 2.09.37 1.84 1.76q-.28 1.57-.26 2.76a.507.499-84.806 0 1-.59.5l-7.03-1.33a.843.841-59.947 0 1-.39-1.47l4.62-3.89a1.343 1.335 69.912 0 0 .47-1.02V542a.399.398-20.466 0 0-.66-.3q-2.25 1.96-6.45 2.64a1.819 1.796 53.497 0 1-1.09-.17l-.6-.3a1.394 1.378 56.122 0 0-.74-.15q-4.35.3-7.11 2.47a.374.373 20.62 0 0 .3.66l3.37-.63a.79.787 14.228 0 1 .76 1.27q-1.06 1.3-1.28 1.71a1.811 1.77-68.848 0 0 1.11 2.59q1.28.33 2.99-.62a.644.642-8.228 0 1 .94.7c-.19.82-.54 1.33-1.4 1.54q-3.79.92-7.01 3.02-.37.24-.83.05a.917.828-56.837 0 1-.22-1.4q.56-.63 1.53-1.27a.31.309-61.72 0 0-.17-.57q-.25 0-.67.72-.03.04-.91.29-3.12.86-6.72 2.66a1.253 1.232 82.671 0 0-.66.87l-.3 1.63a1.072 1.062 89.227 0 1-.82.85q-4.86 1.12-7.98 6.05-.21.33-.92.87-.46.34-1.13.11a.963.928-79.906 0 0-1.24.9c-.05 2.92-.82 4.44-3.4 6.18-3.09 2.08-6.97 4.14-8.47 7.24a2.474 2.415-32.046 0 0-.25 1.03q-.13 4.94-.03 6.86c.09 1.77-.55 3.45-1.61 4.57a.542.536 53.184 0 1-.87-.13q-2-3.88-1.18-8.05a1.197 1.194-83.334 0 0-1.12-1.42q-2.54-.12-5.58-1.03a3.284 3.199 23.553 0 0-3.76 1.42q-.97 1.66-3.47.4a1.8 1.763-36.131 0 0-1.1-.16c-5.53 1-9.16 4.8-10.35 10.28-1.01 4.64-2.03 7.9-.05 11.67a2.75 2.748 65.079 0 0 3.47 1.27l4.28-1.73a.728.716-1.172 0 0 .4-.41l.91-2.41a3.01 3.007-84.878 0 1 2.26-1.89l2.98-.55a1.104 1.103 8.029 0 1 1.19 1.58l-4.7 9.36a1.056 1.052-78.535 0 0 1.01 1.53l4.91-.35a2.232 2.231-85.061 0 1 2.32 2.76c-.96 3.94-2.93 9.23 1.37 12.16a1.44 1.44-38.592 0 0 1.34.15l2.78-1.13a1.302 1.24-46.396 0 1 .82-.04q1.68.52 2.62 1.99a.805.805 35.656 0 0 1.46-.24q.82-3.35 3.37-3.93a1.12 1.12 4.797 0 0 .77-.65q.96-2.24 4.77-2.9a.485.483 10.341 0 1 .5.72q-1.53 2.63-.39 5.44a.435.431-21.924 0 0 .57.24l.24-.09a.142.134-20.118 0 0 .08-.16q-1-3.19 1.05-5.74a.67.667-52.401 0 1 .91-.12q4.71 3.4 11.05 3.43c3.31.01 2.91 2.06 4.52 3.65q4.54 4.45 5.74 5.79a1.749 1.705 75.719 0 0 .85.52q.89.23 2.47.26c2.61.06 4.37 1.27 6.03 3.25a1.136 1.103-77.848 0 1 .15.24l3.13 7.73a1.008 1.007 63.735 0 1-.42 1.24q-1.63.99-2.56 2.23a.428.423 35.086 0 0 .11.61l.24.16a.13.13-76.316 0 0 .18-.04q1.09-1.67 2.34-1.85 1.78-.25 3.04 1.05a1.01.992-63.336 0 1 .27.84l-.27 1.96a.037.036 60.223 0 0 .07.02q1.01-2.56 2.87-1.71 2.55 1.16 4 3.17a2.304 2.298-10.512 0 0 1.27.87l6.55 1.72a1.549 1.533-16.99 0 1 .59.31l4.28 3.71a1.038.964 67.666 0 0 .52.24l1.3.18a.903.88 88.11 0 1 .76.73c.78 4.38.72 6.2-1.96 10.04q-.2.29-3.81 6.03a2.088 2.086 60.913 0 0-.33 1.16c.01 2.59.51 5.49-.04 8.11q-1.22 5.87-3.05 10.22a2.648 2.637-81.411 0 1-2.16 1.6q-3.48.38-6.71 3.23a2.43 2.427-31.691 0 0-.65 2.74l.64 1.57a1.516 1.487 44.46 0 1 .02 1.06q-2.39 6.93-5.07 12.72c-1.22 2.64-4.11 2.26-6.55 1.41a.354.353 85.83 0 0-.43.5q1.09 2.08 2.82 3.05a1.067 1.059 19.69 0 1 .53 1.11c-.3 1.79-1.4 3.34-3.32 3.04q-.93-.15-1.48-.11a.692.682 86.658 0 0-.64.73l.1 1.38a.636.63-9.217 0 1-.48.66q-.85.21-2.54.14a.506.504 68.119 0 0-.37.87q1.89 1.83-.61 3.25a.459.455-43.818 0 0-.02.78q1.3.81 1.66 1.01.49.27-.14 1.88-.4 1.01-.6 2.05-.19.51-.85.3-6.9-2.2-11.83-7.07c.9-1.94-.81-3.45-1.93-4.71a2.368 2.312 18.669 0 1-.51-1q-.94-4.19-.24-7.38a2.38 2.314-46.319 0 0-.01-1.11c-.48-1.97-1.75-3.98-2.21-6.15q-.91-4.24-1.06-9.57-.07-2.4-1.95-12.84c-.36-2-1.42-4.5-2.89-5.56q-2.29-1.68-8.07-5.49c-2.33-1.54-2-3.7-3.26-6.19q-.75-1.49-4.59-9.59-.33-.68-3.39-3.51a1.409 1.354 18.758 0 1-.44-.85l-.49-3.94a1.44 1.436-26.205 0 1 .41-1.2l1.42-1.42a.58.58 0 0 0 0-.82q-.34-.35-.87-.58a.906.9 12.178 0 1-.52-.8c-.08-4.4 1.95-7.42 5.07-11.37a1.765 1.708 68.833 0 0 .38-.9q.7-5.94-1.82-10.6a1.249 1.248-38.199 0 0-2.02-.24q-.81.89-1.16 1.94a.83.822 28.034 0 1-1.3.39q-3.37-2.65-6.09-4.54-1.44-1.01-1.57-2.5-.2-2.28-2.57-4.97a1.41 1.401-18.004 0 0-.93-.47q-5.71-.53-8.08-5.51a1.284 1.284 17.889 0 0-1.71-.61q-1.7.8-3.52.12-1.06-.4-3.47-.77 2.51-18.89 10.94-35.97 4.98-10.11 12.57-20.17 6.54-8.68 16.49-17.05 11.54-9.73 22.08-16.39 4.18-2.64 7.48-1.86 4.63 1.24 11.31-2.03a.67.667-57.544 0 0-.28-1.27l-3.81-.05q-.63.04-1.02-.13a.346.338-50.467 0 1-.05-.6q2.74-1.84 7.47-2.92 1.77-.4 2.53.16m-46.574 34.023 3.331 1.199a.2.2-89.673 0 0 .256-.12l.03-.085a1.76 1.65 19.8 0 0-1.097-2.148l-.395-.143a1.76 1.65 19.8 0 0-2.215.956l-.03.085a.2.2-52.731 0 0 .12.256m5.734 4.057q-.05.14.2.47.27.35.7.18.28-.11.26-.33a.655.572 56.548 0 0-1.16-.32"></path><path fill="#959494" fill-rule="evenodd" d="M554.44 514.29q.04.55.95.59-1.97.44-1.72 2.37-.21.37-.82.82-.99-2.37 1.59-3.78"></path><path fill="#fff" fill-rule="evenodd" d="M555.39 514.88q1.57 1.64-1.72 2.37-.25-1.93 1.72-2.37M526.06 518.15l3.81.05a.67.667-57.544 0 1 .28 1.27q-6.68 3.27-11.31 2.03z"></path><path fill-rule="evenodd" d="M584.91 520.29q4.41.6 9.37-.15a1.522 1.319 11.471 0 1 1.61 2.09q-.4.52-1.87.81-3.74.72-5.58.71a1.948 1.941 67.792 0 1-1.35-.57l-2.42-2.42a.279.277-18.192 0 1 .24-.47"></path><path fill="#fff" fill-rule="evenodd" d="M637.01 532.19q.81-.69 1.47-.59a.622.614 33.938 0 1 .23 1.14q-.47.29-1.57.01a.322.322-58.126 0 1-.13-.56"></path><path fill-rule="evenodd" d="M594.13 538.55a.48.475 75.075 0 0 .43-.75l-1.15-1.65a.618.612 52.84 0 1 .11-.83c.71-.58 2.18-1.66 3.4-.99q1.27.7.74 2.57a1.15 1.143 32.935 0 0 .23 1.06l4.82 5.71a.673.663 46.069 0 1-.01.88q-2.3 2.5-4.94 2a1.645 1.625 33.17 0 0-1.23.25q-.81.55-1.25.57a.788.785 22.381 0 1-.57-1.36q1.51-1.39.66-2.57a.847.841 40.769 0 1-.07-.9q.2-.39.91-.81.92-.54.78-1.14-.18-.76-1.27-1.38a1.167 1.161 18.679 0 0-1.73.85l-.35 2.53a1.051 1.031-7.579 0 1-.64.82l-4.21 1.71a.812.811 4.486 0 1-1-1.17q.94-1.56.76-3.04a.91.898-20.162 0 1 .41-.87q2.63-1.7 5.17-1.49M607.55 537.562q.191 1.057-.316 2.351a1.043 1.041-66.941 0 1-1.405.567q-2.167-.991-2.381-2.175-.215-1.185 1.468-2.873a1.043 1.041 46.419 0 1 1.513.039q.93 1.034 1.121 2.091"></path><path fill="#959494" fill-rule="evenodd" d="M488.416 548.683a.2.2-28.248 0 1-.12-.256l.03-.085a1.76 1.65 19.8 0 1 2.215-.956l.395.143a1.76 1.65 19.8 0 1 1.097 2.148l-.03.085a.2.2 87.406 0 1-.256.12zM494.15 552.74a.655.572 56.548 0 1 1.16.32q.02.22-.26.33-.43.17-.7-.18-.25-.33-.2-.47"></path><path fill="#fff" fill-rule="evenodd" d="m653.52 555.96 2.83-.76a.424.403-46.431 0 1 .2-.01q1.43.21-.2 1.98a.741.74-52.094 0 0 .14 1.13c2.06 1.31 6.32 3.03 7.5 5.04a1.204 1.204-24.174 0 1-.67 1.76q-2.49.8-4.95-.18c-1.77-.71-6.05-2.85-7.68-.85q-.99 1.22-2.84.78a1.108 1.105 28.629 0 0-1.06.31q-.5.5-.81 1.48a.712.705 12.448 0 1-.76.48q-.83-.1-1.83-.89a.456.452-47.75 0 1-.03-.68l.76-.77a.729.727 58.944 0 0 .18-.73l-.62-1.96a.849.84 47.272 0 1 .02-.59l2.08-5.48a1.297 1.295-63.12 0 1 1.92-.63q2.05 1.33 2.8 2.97a1.079 1.054 84.778 0 0 .68.58q1.21.32 1.96.05a.684.68 71.43 0 0 .42-.85l-.45-1.43a.59.589-16.388 0 1 .41-.75"></path><path fill-rule="evenodd" d="M615.048 562.266q.097-.008.389.118.243.106.223.246-.2 1.64.82 4.62.13.39-.197.836-.267.361-.71.399-.444.037-.767-.274-.397-.385-.334-.791.506-3.109.033-4.693-.043-.134.179-.279.266-.174.364-.182M655.25 578.36q-.69.08-1-.14a.618.607 47.722 0 1 .04-1.03q.54-.31 1.19-.12a.669.55-67.825 0 1 .28.9q-.17.34-.51.39"></path><path fill="#fff" fill-rule="evenodd" d="m675.54 624.52-6.12-6.13a4.058 4.049-74.449 0 1-1.07-1.9q-.94-3.84-3.38-6.37a2.98 2.98-69.374 0 1-.82-1.81l-.17-2.06a1.095 1.084 28.01 0 0-.14-.45l-9.24-16.92a.917.913 59.159 0 1 .3-1.2l.08-.05a.485.478 68.42 0 1 .61.27l1.36 3.25a.531.526 38.561 0 0 1.01-.11l.09-.54a.456.455 34.146 0 1 .84-.16l7.67 12.69a2.093 2.013-65.68 0 1 .27.76l.32 2.22a.64.62-68.036 0 0 .13.32q7.11 9.48 8.01 11.96.34.94.8 5.97a.324.324 19.684 0 1-.55.26M695.68 599.01l.32.94q-1.33.15-1.84-1.91a.882.882-41.588 0 0-1.68-.1q-.56 1.48-2.54 2.31a1.52 1.408-6.08 0 1-2.09-1.56q.27-1.15-.47-1.85a1.026.912 71.565 0 0-.33-.19l-1.87-.59a1.234 1.214 87.204 0 1-.77-.71q-1.02-2.5-2.82-4.33a1.708 1.704 28.232 0 1-.46-1.52l.19-1.05a.827.821-63.49 0 1 1.36-.46q2.59 2.33 3.77 4.36a1.512 1.406 9.217 0 0 .28.36l3.4 3.24a.715.709 51.476 0 0 .85.1q.84-.5 1.12-1.01a.848.846 45.696 0 1 1.49.02z"></path><path fill-rule="evenodd" d="M488.046 594.201a.7.6-65.9 0 1 .262.884.7.6-65.9 0 1-.834.394.7.6-65.9 0 1-.262-.884.7.6-65.9 0 1 .834-.394M492.86 603.32a.608.607-25.003 0 1-.39 1.07l-5.42.01a.82.82-45.013 0 1-.82-.82q0-.07.04-.68a1.074 1.065-74.61 0 0-.58-1.03l-4.17-2.09a2.526 2.479 49.404 0 0-1.85-.16l-3.66 1.1a.548.546-72.858 0 1-.5-.95c5.12-4.16 9.59-1.02 14.73 2.47.7.47 2.43.9 2.62 1.08M494.68 606.21l-.19-1.08a.65.649-2.451 0 1 .69-.75q3.8.25 6.13 2.74a.635.634-25.779 0 1-.37 1.06c-1.36.21-2.36-.18-3.89.29q-1.84.57-4.7-.15a.621.619-45.612 0 1-.01-1.2q.4-.11 1.51-.01a.778.771-2.571 0 0 .83-.9M485.38 607.638a1.49.85-147 0 1 1.713.099 1.49.85-147 0 1 .787 1.525 1.49.85-147 0 1-1.713-.099 1.49.85-147 0 1-.787-1.525M503.664 608.216a1.11.77-165.7 0 1 1.266-.472 1.11.77-165.7 0 1 .886 1.02 1.11.77-165.7 0 1-1.266.472 1.11.77-165.7 0 1-.886-1.02"></path><path fill="#fff" fill-rule="evenodd" d="M508.67 735.68q-10.66-6.16-19.61-14.6a2.859 2.668 76.717 0 0-.78-.52c-1.04-.47-2.64-1.68-3.22-3.04q-.27-.61-1.05-.85a.591.586-87.567 0 1-.41-.45q-.05-.2-.06-.33-.02-.12-.11-.22-4.03-3.93-5.8-6.06-17.31-20.98-24.42-46.73-1.69-6.13-2.63-12.99c-.74-5.44-2.07-10.87-1.83-17.55q.34-9.51.53-19.4 2.41.37 3.47.77 1.82.68 3.52-.12a1.284 1.284 18.814 0 1 1.71.61q2.37 4.98 8.08 5.51a1.41 1.401-18.004 0 1 .93.47q2.37 2.69 2.57 4.97.13 1.49 1.57 2.5 2.72 1.89 6.09 4.54a.83.822 28.034 0 0 1.3-.39q.35-1.05 1.16-1.94a1.249 1.248-38.199 0 1 2.02.24q2.52 4.66 1.82 10.6a1.765 1.708 68.833 0 1-.38.9c-3.12 3.95-5.15 6.97-5.07 11.37a.906.9 12.178 0 0 .52.8q.53.23.87.58a.58.58 0 0 1 0 .82l-1.42 1.42a1.44 1.436-26.205 0 0-.41 1.2l.49 3.94a1.409 1.354 18.758 0 0 .44.85q3.06 2.83 3.39 3.51 3.84 8.1 4.59 9.59c1.26 2.49.93 4.65 3.26 6.19q5.78 3.81 8.07 5.49c1.47 1.06 2.53 3.56 2.89 5.56q1.88 10.44 1.95 12.84.15 5.33 1.06 9.57c.46 2.17 1.73 4.18 2.21 6.15a2.38 2.314-46.319 0 1 .01 1.11q-.7 3.19.24 7.38a2.368 2.312 18.669 0 0 .51 1c1.12 1.26 2.83 2.77 1.93 4.71"></path><path fill-rule="evenodd" d="M699.48 642.17q.92-13.44-.79-26.88l.18-.49a.2.196-41.36 0 1 .38.02q3.28 15.2.72 29.88a.177.173-83.815 0 1-.17.14h-.01a.252.241 89.943 0 1-.23-.24zM623.64 744.07q15.11-6.66 28.27-16.39c7.68-5.68 13.45-12.41 19.22-18.81a4.256 4.083 79.029 0 0 .71-1.1q1.29-2.9 4.19-5.75a5.042 4.908-7.973 0 0 .83-1.07q2.26-3.86 5.41-7.37.26-.29 3.61-5.85c2.49-4.14 4.5-10.49 6-14.3q3.34-8.45 5.45-17.81.51 2.73-.37 5.65-2.77 9.2-6.99 20.97c-1.62 4.53-3.61 8.43-6.95 12.91q-5.85 7.82-12.19 15.98-3.54 4.57-6.17 6.79c-2.93 2.48-5.8 5.61-9.04 8.28q-2.47 2.04-11.72 8.46-4.83 3.35-8.46 4.93-1.77.77-4.39 2.26-3.64 2.07-4.34 2.4-3.16 1.48-3.07-.18"></path><path fill="#facf15" fill-rule="evenodd" d="m654.8 736.75-.02 409.41-77.79 196.27a.646.642-44.814 0 1-1.2 0q-3.37-8.71-19.07-48.24-1.89-4.75-3.66-9.23-25.98-65.68-49.82-125.89-2.79-7.06-3.49-9.95l.3-409.04q14.44 8.48 25.41 12.93 3.85 1.57 15.98 5.09c8.18 2.37 17.12 4.06 26.53 4.19q13.06.17 16.81.05 8.31-.26 18.69-2.7 14.94-3.5 27.23-8.95 11.57-5.14 24.1-13.94m-80.45 280.47q-4.04-15.72-20.93-13.37-5.42.75-7.6 2.47-5.65 4.47-6.15 12.56-.35 5.71-.02 12.85.27 5.91 2.47 10.55a1.008.983 5.62 0 0 .32.38l3.67 2.72a.452.451-22.938 0 1-.33.81l-3.06-.42a2.194 2.189-86.394 0 0-2.49 2.2q.18 14.46 13.79 16.52c9.04 1.37 17.48-2.41 19.85-11.82a.434.431 45.51 0 1 .84.01q.89 3.66 3.04 6.51c4.06 5.39 13.32 6.13 19.36 4.9 6.6-1.34 8.81-4.96 11.8-10.45a.411.408 50.116 0 1 .75.07c2.96 9.15 11.06 11.21 19.78 10.65 8.48-.55 13.45-5.91 14.97-14.28q.01-.01.06-7.66.03-4.7-.08-7.65c-.17-4.56-2.59-11.05-7.17-12.8q-1.12-.43-5.68-1.55a3.21 3.197-43.209 0 0-1.37-.04l-4.13.77a.54.54-64.883 0 1-.63-.43l-.07-.38a.59.59 85.065 0 1 .58-.69q8.45 0 15.09-.38 2.03-.12 2.06-2.47.1-7.35.1-9.75a2.16 2.15.537 0 0-2.13-2.16q-19.99-.32-25.02-.32-2.39 0-4.43.54a1.174 1.17 83.492 0 0-.88 1.11c-.07 3.56-.63 8.01-.61 12.32q.04 6.59.29 18.87a1.481 1.47 89.403 0 0 1.47 1.45h12.27a1.1 1.1-85.763 0 0 1.09-.94q.44-2.97 1.16-3.12a.769.719-8.258 0 1 .92.64q.68 8.06-.02 14.98a.586.583 6.656 0 1-.66.52l-.37-.05a.897.888 4.106 0 1-.77-.88v-7.25a1.85 1.84-90 0 0-1.84-1.85H610a.62.62-5.654 0 1-.61-.5l-.82-4.42a2.712 2.595 22.694 0 0-.48-1.1l-2.24-3.05a.722.717 46.493 0 1 .02-.88q2.26-2.8 3.13-6.06a4.149 3.938-39.692 0 0 .13-1.09c-.05-3.65.37-6.28-.68-9.4q-2.61-7.76-9.85-10.29a4.728 4.64-32.545 0 0-1.09-.23q-6.61-.5-8.91-.28-11.83 1.12-13.86 13.59a.2.199-47.853 0 1-.39.02m-60.12 5.76q.07 29.29.02 35.69c-.04 5.21 1.52 4.89 6.36 4.96q3.53.05 7.33.01 2.84-.03 3.02-3.13.39-7.15-.18-16.93-.36-6.01-.13-10.08c.52-9.29.69-19.64.14-26.27q-.21-2.56-2.96-2.58-8.81-.05-9.92.09a1.869 1.836 10.343 0 0-1.4.95c-2.02 3.72-5.33 3.94-9.1 4.71a1.215 1.215-5.828 0 0-.97 1.19v9.04a1.74 1.74 45 0 0 1.74 1.74h5.44a.62.61 89.523 0 1 .61.61"></path><path fill="#fff" fill-rule="evenodd" d="M574.35 1017.22a.2.199-47.853 0 0 .39-.02q2.03-12.47 13.86-13.59 2.3-.22 8.91.28a4.728 4.64-32.545 0 1 1.09.23q7.24 2.53 9.85 10.29c1.05 3.12.63 5.75.68 9.4a4.149 3.938-39.692 0 1-.13 1.09q-.87 3.26-3.13 6.06a.722.717 46.493 0 0-.02.88l2.24 3.05a2.712 2.595 22.694 0 1 .48 1.1l.82 4.42a.62.62-5.654 0 0 .61.5h13.64a1.85 1.84 90 0 1 1.84 1.85v7.25a.897.888 4.106 0 0 .77.88l.37.05a.586.583 6.656 0 0 .66-.52q.7-6.92.02-14.98a.769.719-8.258 0 0-.92-.64q-.72.15-1.16 3.12a1.1 1.1-85.763 0 1-1.09.94h-12.27a1.481 1.47 89.403 0 1-1.47-1.45q-.25-12.28-.29-18.87c-.02-4.31.54-8.76.61-12.32a1.174 1.17 83.492 0 1 .88-1.11q2.04-.54 4.43-.54 5.03 0 25.02.32a2.16 2.15.537 0 1 2.13 2.16q0 2.4-.1 9.75-.03 2.35-2.06 2.47-6.64.38-15.09.38a.59.59 85.065 0 0-.58.69l.07.38a.54.54 79.567 0 0 .63.43l4.13-.77a3.21 3.197-43.209 0 1 1.37.04q4.56 1.12 5.68 1.55c4.58 1.75 7 8.24 7.17 12.8q.11 2.95.08 7.65-.05 7.65-.06 7.66c-1.52 8.37-6.49 13.73-14.97 14.28-8.72.56-16.82-1.5-19.78-10.65a.411.408 50.116 0 0-.75-.07c-2.99 5.49-5.2 9.11-11.8 10.45-6.04 1.23-15.3.49-19.36-4.9q-2.15-2.85-3.04-6.51a.434.431 45.51 0 0-.84-.01c-2.37 9.41-10.81 13.19-19.85 11.82q-13.61-2.06-13.79-16.52a2.194 2.189-86.394 0 1 2.49-2.2l3.06.42a.452.451-22.938 0 0 .33-.81l-3.67-2.72a1.008.983 5.62 0 1-.32-.38q-2.2-4.64-2.47-10.55-.33-7.14.02-12.85.5-8.09 6.15-12.56 2.18-1.72 7.6-2.47 16.89-2.35 20.93 13.37m-14.24 25.99c-.02 3.99 1.14 11.19-4.61 9.31q-1.83-.6-1.72-3.34a.901.9-89.076 0 0-.9-.93h-9.77a.72.72 74.83 0 0-.72.72q-.04 7.43 4.64 10.67c8.29 5.75 24.77 2.81 24.97-9.64q.26-15.66-.1-31.28-.15-6.85-5.24-10.13c-7.33-4.73-20.38-3.8-24.11 5.53q-1.08 2.71-1.01 9.33c.08 8.87-1.29 18.54 8.56 21.16 1.66.43 6.18.48 8.22-1.17q.65-.53 1.14-.7a.495.492 80.704 0 1 .65.47m16.17.19c-.2 6.92-.14 14.69 7.38 17.66 7.87 3.1 19.14 1.69 22.71-7.34 1.39-3.51 1.07-7.92.92-12.46q-.22-6.53-5.74-9.09a.524.522 42.667 0 1-.04-.93c5.96-3.38 6-9.65 5-15.5-1.78-10.35-15.6-11.77-23.26-8.19-6.23 2.9-6.48 8.74-6.44 14.73a.61.6 89.514 0 0 .6.6h10.23a.74.73 90 0 0 .73-.74v-3.84a1.332 1.203-36.377 0 1 .1-.49c1.26-3.23 5.35-3.28 5.9.11.44 2.69.69 9.47-3.35 9.52q-1.75.02-3.09.17a.765.758 87.089 0 0-.68.76v7.43a.691.685 3.831 0 0 .6.68c2.81.39 4.7-.61 6.86 2.77a.664.656-61.322 0 1 .1.35v10.06a3.03 3.02 90 0 1-3.02 3.03h-.45a3 3 45 0 1-3-3v-6.01a.7.7 11.244 0 0-.7-.7h-10.93a.43.43-89.318 0 0-.43.42m46.83-18.99v-6.63a.54.54-45 0 1 .54-.54h16.48a.73.73 0 0 0 .73-.73v-8.79a.73.73 0 0 0-.73-.73h-27.08a.65.65 87.535 0 0-.65.65v28.22a.58.58 3.452 0 0 .58.58h9.45a1.082 1.081-88.609 0 0 1.08-1.03c.19-4.14 5.79-3.87 6.17-.01q.3 3.07.12 14.04a3.263 3.26 88.466 0 1-3.03 3.2l-.29.03a2.793 2.787-3.055 0 1-3.09-2.77v-6.02a.52.52 44.981 0 0-.52-.52h-11a.761.75-89.215 0 0-.75.74q-.1 4.4.55 8.43c1.73 10.67 17.89 12.34 25.11 6.95q5.53-4.13 5.6-11.82c.09-11.39 2.17-25.93-14.44-24.79q-2.45.17-4.11 1.84a.423.422 67.55 0 1-.72-.3m-31.226-6.299a3.65.93-83.8 0 0-1.319 3.529 3.65.93-83.8 0 0 .531 3.729 3.65.93-83.8 0 0 1.319-3.529 3.65.93-83.8 0 0-.531-3.729m-17.124 6.159a.377.373-70.851 0 0-.61.3c.12 7.03-.1 15.16.58 16.27q.28.47 1.18.1.43-.17 1.72-.16 8.98.09 11.89.28a.972.963-88.442 0 1 .91.97v7.02a1.093 1.091-84.166 0 0 .87 1.07l.31.06a.725.723-84.166 0 0 .87-.71v-8.83a1.59 1.59-44.952 0 0-1.59-1.59h-3.87a1.76 1.76 36.827 0 1-1.76-1.76v-11.47a.49.49-.573 0 0-.5-.49c-3.19.1-7.89.67-10-1.06m-17.53 22.483-1.271.156a.4.4-25.996 0 0-.348.445l.021.169a2.31.9 83 0 0 1.175 2.183l.277-.034a2.31.9 83 0 0 .612-2.402l-.021-.169a.4.4 19.001 0 0-.445-.348M514.23 1022.98a.62.61 89.523 0 0-.61-.61h-5.44a1.74 1.74-45 0 1-1.74-1.74v-9.04a1.215 1.215-5.828 0 1 .97-1.19c3.77-.77 7.08-.99 9.1-4.71a1.869 1.836 10.343 0 1 1.4-.95q1.11-.14 9.92-.09 2.75.02 2.96 2.58c.55 6.63.38 16.98-.14 26.27q-.23 4.07.13 10.08.57 9.78.18 16.93-.18 3.1-3.02 3.13-3.8.04-7.33-.01c-4.84-.07-6.4.25-6.36-4.96q.05-6.4-.02-35.69m-4.99-2.64h6.47a.67.67 45 0 1 .67.67v39.62a.68.68-8.149 0 0 .68.68h11.06a.58.57 0 0 0 .58-.57v-53.03a.71.71 0 0 0-.71-.71h-8.44a2.056 2.05 17.015 0 0-1.7.9c-1.87 2.8-5.26 3.93-8.69 4.42a.647.642 85.894 0 0-.55.64v6.74a.64.63-90 0 0 .63.64"></path><path fill-rule="evenodd" d="M559.46 1042.74q-.49.17-1.14.7c-2.04 1.65-6.56 1.6-8.22 1.17-9.85-2.62-8.48-12.29-8.56-21.16q-.07-6.62 1.01-9.33c3.73-9.33 16.78-10.26 24.11-5.53q5.09 3.28 5.24 10.13.36 15.62.1 31.28c-.2 12.45-16.68 15.39-24.97 9.64q-4.68-3.24-4.64-10.67a.72.72-56.246 0 1 .72-.72h9.77a.901.9-89.076 0 1 .9.93q-.11 2.74 1.72 3.34c5.75 1.88 4.59-5.32 4.61-9.31a.495.492 80.704 0 0-.65-.47m.393-24.286a2.89 2.89 0 0 0-2.905-2.874l-.22.001a2.89 2.89 0 0 0-2.875 2.905l.074 14.18a2.89 2.89 0 0 0 2.905 2.874l.22-.001a2.89 2.89 0 0 0 2.875-2.905zM576.28 1043.4a.43.43-89.318 0 1 .43-.42h10.93a.7.7 36.839 0 1 .7.7v6.01a3 3-45 0 0 3 3h.45a3.03 3.02-90 0 0 3.02-3.03v-10.06a.664.656-61.322 0 0-.1-.35c-2.16-3.38-4.05-2.38-6.86-2.77a.691.685 3.831 0 1-.6-.68v-7.43a.765.758 87.089 0 1 .68-.76q1.34-.15 3.09-.17c4.04-.05 3.79-6.83 3.35-9.52-.55-3.39-4.64-3.34-5.9-.11a1.332 1.203-36.377 0 0-.1.49v3.84a.74.73-90 0 1-.73.74h-10.23a.61.6 89.514 0 1-.6-.6c-.04-5.99.21-11.83 6.44-14.73 7.66-3.58 21.48-2.16 23.26 8.19 1 5.85.96 12.12-5 15.5a.524.522 42.667 0 0 .04.93q5.52 2.56 5.74 9.09c.15 4.54.47 8.95-.92 12.46-3.57 9.03-14.84 10.44-22.71 7.34-7.52-2.97-7.58-10.74-7.38-17.66M508.61 1019.7v-6.74a.647.642 85.894 0 1 .55-.64c3.43-.49 6.82-1.62 8.69-4.42a2.056 2.05 17.015 0 1 1.7-.9h8.44a.71.71-45 0 1 .71.71v53.03a.58.57 0 0 1-.58.57h-11.06a.68.68 25.195 0 1-.68-.68v-39.62a.67.67 45 0 0-.67-.67h-6.47a.64.63-90 0 1-.63-.64M623.11 1024.41a.423.422 67.55 0 0 .72.3q1.66-1.67 4.11-1.84c16.61-1.14 14.53 13.4 14.44 24.79q-.07 7.69-5.6 11.82c-7.22 5.39-23.38 3.72-25.11-6.95q-.65-4.03-.55-8.43a.761.75-89.215 0 1 .75-.74h11a.52.52 44.998 0 1 .52.52v6.02a2.793 2.787-3.055 0 0 3.09 2.77l.29-.03a3.263 3.26 88.466 0 0 3.03-3.2q.18-10.97-.12-14.04c-.38-3.86-5.98-4.13-6.17.01a1.082 1.081-88.609 0 1-1.08 1.03h-9.45a.58.58 38.896 0 1-.58-.58v-28.22a.65.65-54.477 0 1 .65-.65h27.08a.73.73 0 0 1 .73.73v8.79a.73.73 0 0 1-.73.73h-16.48a.54.54-45 0 0-.54.54z"></path><path fill="#fff" fill-rule="evenodd" d="M559.927 1032.634a2.89 2.89 0 0 1-2.875 2.905l-.22.001a2.89 2.89 0 0 1-2.905-2.874l-.074-14.18a2.89 2.89 0 0 1 2.875-2.905l.22-.001a2.89 2.89 0 0 1 2.905 2.874zm-2.061-13.067a.74.74 0 0 0-.725-.755l-.04-.001a.74.74 0 0 0-.755.725l-.272 12.977a.74.74 0 0 0 .725.755l.04.001a.74.74 0 0 0 .755-.725z"></path><path fill="#facf15" fill-rule="evenodd" d="M591.884 1018.111a3.65.93-83.8 0 1 .531 3.729 3.65.93-83.8 0 1-1.319 3.529 3.65.93-83.8 0 1-.531-3.729 3.65.93-83.8 0 1 1.319-3.529M557.594 1032.544a.74.74 0 0 1-.755.725l-.04-.001a.74.74 0 0 1-.725-.755l.272-12.977a.74.74 0 0 1 .755-.725l.04.001a.74.74 0 0 1 .725.755zM574.76 1024.27c2.11 1.73 6.81 1.16 10 1.06a.49.49-.573 0 1 .5.49v11.47a1.76 1.76 11.253 0 0 1.76 1.76h3.87a1.59 1.59 44.988 0 1 1.59 1.59v8.83a.725.723-84.166 0 1-.87.71l-.31-.06a1.093 1.091-84.166 0 1-.87-1.07v-7.02a.972.963-88.442 0 0-.91-.97q-2.91-.19-11.89-.28-1.29-.01-1.72.16-.9.37-1.18-.1c-.68-1.11-.46-9.24-.58-16.27a.377.373-70.851 0 1 .61-.3M557.23 1046.753a.4.4 19.033 0 1 .445.348l.021.169a2.31.9 83 0 1-.612 2.402l-.277.034a2.31.9 83 0 1-1.175-2.183l-.021-.169a.4.4-26.01 0 1 .348-.445z" data-source="https://football-logos.cc"></path><!-- source: https://football-logos.cc --></svg>