<svg xmlns="http://www.w3.org/2000/svg" viewBox="0 0 492.46 601.56"><!-- Source: https://football-logos.cc --><path d="M357.927 478.412c1.59.394 2.695 1.653 4.023 2.48 1.82 1.133 3.168 1.066 5.03 1.708 1.664.572 5.86 4.611 7.552 5.885-.221 1.844-.963 3.424-1.302 5.17-.687 3.542-.012 3.055-2.149 5.112-3.098-.614-1.027-.964-4.19.14-1.394.486-3.239.25-4.654.035-3.03-.458-1.148-.617-5.793-4.618-8.369-7.21-9.822-5.098-6.931-11.156 1.08.577.17-.084 1.04.784.991.99.7 1.41 2.299 2.451.921-.346 1.693-1.06 3.168-.987 2.269.112 1.336.759 3.124 1.013.6-1.735-.054-2.294-.994-3.737-1.5-2.303-.845-2.018-.223-4.28m-17.755-19.338c-1.663.475-2.817.082-4.563-.597-2.534-.987-3.896-.482-5.394-.997-.01-.004-6.15-4.691-4.567-6.956 1.602-2.29 6.515.305 8.968 1.44 1.246.576 2.423 1.988 3.414 2.916 1.292 1.21 2.365 1.649 2.142 4.194m-42.567 12.535c.965-7.027 4.413 3.11 13.383-16.346 1.15-2.492 5.034-6.14 6.88-7.78 2.1-1.866 1.6-1.811 2.373-4.633.952-3.479 1.17 1.578 1.359-6.378 1.696.365 5.165 3.494 6.665 4.792 2.802 2.425 5.566.462 7.49 4.404-1.737.048-5.208-1.247-10.113-1.845-1.91 4.553-11.036 8.615-13.287 14.401-2.665 6.85-5.82 13.246-14.75 13.385m15.862-35.4c1.255 4.396.967 3.346-1.067 6.977-.95 1.697-2.542 4.714-3.654 6.221l-2.988.044c.137-1.322.75-1.6 1.552-2.621 11.557-14.719-5.555-8.784-10.604-12.042l.056-1.467c2.485-1.519 6.831-1.621 9.897-.85 1.351.34 3.326.768 4.084 1.787 1.82 2.446-.712 1.988 2.724 1.95m72.044 3.566c.018 7.258-2.485 7.266-3.624 9.528-1.058 2.103-2.53 9.765-11.557 10.168.06-1.26.505-2.222.465-3.177-.099-2.394-2.114-1.6-.327-4.948.9-1.686.96-.58 1.11-2.777-2.096.79-3.88 3.113-8.397 3.708.4-1.599 2.004-4.43 2.873-6.126 1.514-2.955 5.218-14.603 7.127-15.559 1.128-.565 2.78-.633 4.24-.27 1.256 1.532 1.111 2.265 1.273 4.489 3.878-4.84.559-8.273 2.444-12.437 1.414.338 2.341 2.183 3.144 3.418-.584 2.698-1.478 6.656-2.477 9.132-3.57 8.847 3.588 4.881 3.706 4.852m-146.393-24.174c1.93 0 3.87 2.277 4.985 3.23 1.388 1.189 2.946 2.418 4.32 3.6 3.524 3.027 7.77 5.498 7.725 8.18-1.884.86-12.708 5.933-14.187 1.918 2.403-.899 7.507-.372 3.902-5.152-.937-1.242-4.2-4.708-5.953-5.16-1.813.872-1.205 1.41-2.774 2.43-.866-.69-1.032-.938-1.406-2.227-.921-3.169-.803-6.82 3.388-6.819m16.027-13.464c-3.11-.835-10.057-7.316-14.05-5.274.074 1.683.205 1.332 1.356 2.214l5.452 4.054c1.54.901.93-.068 4.273 2.082 1.493.96 3.122.87 2.991 2.966-2.32.597-4.999.2-6.648-.865-.834-.54-1.114-1.24-2.133-1.845-1.199-.711-1.547-.25-2.766-1.211-1.017-.802-1.033-1.655-1.728-2.24-.718-.602-1.62-.505-2.62-1.342-1.215-1.017-.793-1.344-1.35-2.655-.67-1.57-.752-.218-.717-2.768 1.421-.917 2.515-1.192 4.687-1.255 3.995-.114 2.352 1.075 4.908 1.12l.225-1.423c-.963-1.547-.066-.773-1.633-1.916-2.717-1.983-7.331-3.95-5.1-6.025 1.098-1.022-.123-.258 1.239-.38 3.718-.333 9.833 5.912 12.873 3.817l-.118-.783c-.39-.9-1.955-1.673-2.795-2.332-1.542-1.209-8.443-7.693-8.859-9.423 1.241-2.012 1.945-1.457 3.981-2.43 6.96-3.325 2.412-2.702 7.463.535 3.926 2.517.984 1.297 2.848 2.752 1.08.843 2.425.651 3.834 2.063 2.276 2.28-.221 1.345 5.476 6.034 1.175.967 1.567 1.742 2.6 2.945 1.375 1.602 4.51 3.947 4.644 5.582.066.818.02.437-.198.875-3.181 1.152-5.898-7.356-8.696-4.768-.75 1.168.547 1.974 1.388 3.138 1.335 1.846 6.042 6.289 8.413 7.057l7.726 2.557c1.406.51 2.483.75 3.795 1.365 1.917.898 1.562 1.622 3.174 1.828 2.522.323 6.676.938 8.406 2.442 1.554 1.35 1.77.777 3.177 1.975 1.825 1.556.375 1.4 1.465 3.7 1.334 2.819 3.646 2.707 5.86 4.441 3.876 3.033 5.357 2.147 5.386 5.145-2.891.69-1.512-.206-3.66-1.717-.911-.642-2.754-1.515-3.921-1.457-.255 4.33 5.119 4.683 5.857 5.024.868 7.419-7.477-.677-9.61-1.158-4.733-1.068-4.512 5.683-12.886 3.046-2.908-.916-10.712-2.546-12.889-4.109-2.352-1.69-1.692-1.92-5.095-3.236-1.994-.772-3.918-2.007-3.81-4.352 2.804-.167 5.282 1.974 6.955-.441-.934-2.042-1.607-.531-5.009-3.24-8.08-6.436-5.186-2.779-7.859-4.815-.909-.693-1.013-1.239-1.92-2.062-1.315-1.193-3.69-2.562-4.382-3.235m32.65-54.2c-2.563 3.835-4.718.08-9.556.897-4.135.7-4.553 3.864-9.4 3.668-1.976-.08-3.383-.924-5.008-1.392-2.471-.71-6.833 2.418-8.621 3.99-1.808 1.587-1.26 2.443-1.565 5.176-2.665 1.067-3.06 1.092-4.415 3.515-1.509 2.695-2.407 2.7-3.755 4.577-.422.588-1.13 1.955-1.563 2.38-2.212 2.173-2.361-1.943-5.23 7.426-1.584 5.175-4.132 9.798-4.206 12.34-.14 4.821-3.389 7.948-4.838 11.892-2.866 7.8 3.02 10.617-5.577 19.028-1.716 1.678-2.57 2.884-3.974 4.355-2.72 2.85-12.687 15.01-13.143 20.214.54 2.247 6.894 5.632 7.708 7.53-1.451 1.469-4.42 2.342-3.617 5.409.664 2.537 2.949 3.625 3.939 5.686-1.063 1.409-5.471 4.298-4.31 7.367.885 2.34 5.04 3.656 6.705 5.314.383 5.503-1.561 8.946-2.046 13.924-.401 4.114 3.32 6.571 6.68 9.132 3.233 2.463 6.192 3.97 10.534 5.295 8.28 2.53 4.477-.495 10.754 5.523 4.981 4.774 9.549 12.758 12.46 19.235 1.59 3.533 2.927 7.85 3.898 11.916 1.207 5.053 1.132 9.33 1.914 14.397 7.45 3.986 16.679 1.454 23.484-1.369 3.409-1.413 6.663-3.124 9.6-4.685 12.708-6.756 20.291-18.573 32.481-25.394 4.582-2.564 6.888-2.025 12.3-2.204.595-8.185-4.398-9.384-5.577-17.335-.9-6.069-1.964-1.99-2.467-9.013-.346-4.832 1.553-5.313 3.841-7.533l.076-3.661c1.005-.563 4.606-2.71 5.157-4.265-1.158-1.157-2.239-.83-3.04-2.401-.777-1.52-.494-3.91.904-4.596 2.048-1.005 2.546-.592 2.859-4.494.294-3.663.482-4.067 3.887-4.788 1.898 3.553 2.088 2.322 2.094 6.768.01 5.215-2.312 7.731-.734 13.956 1.45 5.714 2.324 5.578 6.893 8.564 2.758 1.802 6.278 4.946 8.236 7.216 2.754 3.193 2.758 6.893 3.69 11.762 2.942-3.106 8.25-12.548 10.79-17.12 1.159-2.085.447-5.755.033-8.42-.539-3.467-6.676-7.643-9.543-9.422-1.516-.94-6.74-2.84-4.2-8.532 1.172-2.629 9.954-4.369 14.859-8.545 3.844-3.272 3.869-7.11 4.9-9.355.535-1.165 1.198-1.777 1.86-2.9 1.512-2.562 4.44-10.667 4.963-14.06.87-5.642-2.505-10.882-4.64-14.274-4.33-.252-3.609.286-5.528 2.918-1.454 1.995-3.614 2.627-6.22 1.62-.737-2.778-.112-2.26.67-4.778-3.133 1.492-3.096 5.53-3.11 9.368-.017 4.934.184 6.115-4.152 7.588-3.082-3.185-4.197-11.588-2.971-13.737 1.154-2.025 2.094-3.168 3.183-5.55.984-2.15 1.853-4.4 2.4-6.534-3.823-4.161-3.618-3.576-3.321-10.793-2.038-.958-4.113-3.18-5.18-5.507-.712-1.556-.671-2.59-1.592-3.942-3.414-5.01.304-3.331-3.929-6.785-3.748-3.058.11-4.343-8.205-8.45-3.977-1.965-3.422-1.508-6.078-4.61-4.457-5.203-1.783-1.93-4.547-6.54-1.793-2.99-5.216-1.291-8.791-1.976-4.34-.83-2.738-3.576-3.501-7.58-2.962-1.612-5.228-.046-8.154-1.263-2.224-.925-.611-1.554-2.46-2.335-1.175-.496-2.851-.035-4.234-.453-1.445-.437-1.446-1.479-3.276-1.564-2.11-.099-1.616 1.034-3.59 1.154-2.89.178-2.8-3.464-4.306-5.086-.673.628-1.246.9-1.988 1.956-.886 1.26-1.552 3.23-5.403 2.267-.904-.226-.807-.203-1.259-.674l-.737-1.09c-.05-.08-.113-.224-.195-.318" style="fill:#201f1a;fill-rule:evenodd" transform="translate(-51.408 -120.164)" data-source="https://football-logos.cc"></path><path d="M297.65 708.749c-4.586-2.366-9.233-5.336-13.668-8.097-15.325-9.54-38.145-24.178-52.205-35.768-18.302-15.087-35.916-29.223-52.15-46.922-1.796-1.96-3.679-3.674-5.438-5.654-24.514-27.583-37.227-42.155-56.717-75.254-44.327-75.276-61.503-161.967-51.455-250.794.712-6.298 4.57-33.546 6.97-36.971l33.491-8.87c28.988-8.436 63.388-23.356 89.79-37.853 18.646-10.239 35.956-20.404 52.826-31.973 8.5-5.829 16.893-11.551 24.878-17.52l21.105-16.147c.925-.74 2.172-2.114 2.912-1.624 8.541 7.173 13.534 11.888 23.531 18.59 7.243 4.854 18.365 12.905 25.304 17.09 4.413 2.662 8.328 5.492 12.741 8.264 12.486 7.841 27.215 16.783 40.352 23.455 4.588 2.33 9.13 4.876 13.87 7.141 4.828 2.307 9.342 4.634 14.161 6.839 33.124 15.157 58.717 24.63 94.663 32.613 12.51 48.85 12.224 109.553 2.929 159.252-13.233 70.749-48.445 138.297-93.81 191.97-5.987 7.083-14.373 16.633-21.021 22.966-1.901 1.812-3.592 3.798-5.523 5.57-1.972 1.812-3.938 3.456-5.77 5.335-2.78 2.852-4.736 4.058-5.672 5.02l-11.796 10.401c-.937.821-1.814 1.579-2.943 2.602-1.156 1.047-1.73 1.4-3.025 2.519-6.214 5.374-17.714 13.968-24.769 19.226l-39.392 26.384c-3.423 1.783-11.153 7.23-14.169 8.21m244.517-369.81c.633-20.738-2.226-57.645-6.79-77.907-.738-3.279-1.148-7.5-2.144-10.799-2.594-8.586-.19-9.47-10.115-11.064-4.43-.711-12.55-2.88-17.134-4.225a607 607 0 0 1-47.688-16.153c-1.154-.444-1.603-.815-3.153-1.282-4.317-1.3-4.313-2.096-8.837-3.692-7.179-2.532-16.807-7.405-23.464-10.672-2.015-.988-3.555-1.676-5.58-2.701l-11.216-5.83c-5.96-2.697-11.078-6.384-16.504-9.036-.946-.462-.765-.24-1.575-.73l-3.92-2.374c-1.934-1.07-3.356-2.123-5.108-3.161-5.157-3.055-10.079-5.53-14.774-9.062-.416-.312-.674-.438-1.204-.767-1.77-1.1-3.3-2.36-5.064-3.262-1.385-.709-1.53-.9-2.656-1.658-1.012-.68-1.413-.773-2.632-1.731l-2.265-1.455c-.076-.043-.179-.097-.253-.14l-.242-.146-2.668-1.916c-.063-.05-.154-.126-.218-.178-3.596-2.89-7.928-5.126-11.447-7.967l-.224-.179-26.508-20.315c-2.427-2.041-4.546-4.34-6.985-6.08-3.325-2.373-2.941-3.6-5.237-2.388l-34.92 27.37c-4.376 3.562-9.223 6.867-14.014 9.801-.079.048-.18.103-.258.152l-29.996 19.43c-.081.043-.184.102-.262.148-.075.044-.17.11-.244.155-.07.043-.161.112-.23.155-.067.042-.157.11-.224.152s-.16.107-.228.147l-6.131 3.488-.258.146c-.08.044-.18.1-.261.143l-22.177 12.248c-5.448 2.967-11.575 5.48-17.119 8.65-5.728 3.275-11.55 5.13-17.291 8.063-1.542.787-4.733 1.82-6.253 2.45l-5.793 2.556c-14.466 6.282-47.561 17.494-64.165 20.858-2.55.516-4.462.999-7.011 1.594-2.521.587-4.627-.01-5.514 2.708-2.904 8.91-7.617 33.586-8.311 42.87-.395 5.278-1.083 10.42-1.532 15.523a374 374 0 0 0-1.465 32.911c0 5.713.443 11.232.534 16.972.146 9.114 2.619 37.33 4.38 46.286a283 283 0 0 1 2.444 14.55c2.236 15.882 12.126 52.36 18.173 66.595 1.858 4.374 2.996 7.982 4.758 12.295l3.9 8.997c1.783 5.272 3.977 9.494 6.728 14.493.598 1.087.684 1.865 1.281 3.017l4.29 8.412c1.277 2.15 1.777 3.559 2.985 5.7l9.312 16.054c1.062 2.036 2.025 3.64 3.319 5.434l18.93 27.793c.663.825 1.381 1.531 2.012 2.47.201.3.17.23.456.764 1.486 2.772-.595-.116.793 1.24 2.773 2.71 6.574 8.208 9.588 11.67l15.709 18.282c3.748 4.55 8.51 8.96 12.545 13.27.877.937 1.402 1.265 2.24 2.189.608.671.207.296.982 1.045l36.743 32.922c1.156.858 1.498.972 2.442 1.917.786.787 1.337 1.438 2.257 2.14.096.073.383.285.482.352l6.779 5.03c.922.717 1.559 1.394 2.357 1.964l26.625 18.954c.063.047.156.119.22.165l7.535 4.956c.114.049.448.155.552.203.07.032.182.068.249.103l25.98 16.349c8.725 4.548 5.472 4.943 13.921.197l11.466-6.836c4.582-2.945 13.441-7.91 17.42-11.04l9.875-6.782c4.965-2.775 9.898-6.64 14.414-10.146 2.23-1.732 4.792-3.009 6.936-5.078l3.278-2.55c.772-.554 1.46-1.39 2.358-1.965 1.223-.783 1.469-.88 2.61-1.799 1.674-1.346 2.855-2.394 4.574-3.764l4.443-3.595c4.217-2.91 8.011-6.768 12.014-10.022l32.64-31.265c1.527-1.403 2.433-2.527 4.021-4.267 1.243-1.362 2.657-3.256 4.102-4.547l7.088-8.012c5.322-6.361 11.502-12.995 16.212-19.895l9.85-13.446c.84-1.222-.866 1.33.479-.752l.318-.503c2.283-3.43 4.883-6.587 6.923-10.102l9.728-15.71c.671-1.202 1.127-1.577 1.71-2.642.48-.876.812-1.71 1.329-2.6l5.83-10.285c.632-1.184.968-1.902 1.572-2.915l22.234-50.306c.743-2.06 1.33-4.176 2.041-6.138 2.98-8.22 5.735-17.404 7.948-25.834 1.21-4.611 2.81-9.026 3.55-13.527.347-2.11 1.016-4.88 1.577-7.136l3.9-21.225c3.32-25.08 4.535-37.196 5.321-62.944" style="fill:#ececec;fill-rule:evenodd" transform="translate(-51.408 -120.164)"></path><path d="M542.167 338.94c-.786 25.747-2 37.862-5.32 62.943l-3.9 21.225c-.562 2.256-1.23 5.026-1.578 7.136-.74 4.5-2.34 8.916-3.55 13.527-2.213 8.43-4.969 17.614-7.948 25.834-.711 1.962-1.298 4.077-2.041 6.138l-22.234 50.306c-.604 1.013-.94 1.731-1.572 2.915l-5.83 10.285c-.517.89-.85 1.725-1.33 2.6-.582 1.065-1.038 1.44-1.709 2.641l-9.728 15.711c-2.04 3.515-4.64 6.673-6.923 10.102l-.318.503c-1.345 2.083.362-.47-.48.752l-9.849 13.446c-4.71 6.9-10.89 13.534-16.212 19.895l-7.088 8.012c-1.445 1.29-2.859 3.185-4.102 4.547-1.588 1.74-2.494 2.864-4.02 4.267l-32.64 31.265c-4.004 3.254-7.798 7.112-12.015 10.022l-4.443 3.596c-1.719 1.369-2.9 2.417-4.573 3.764-1.142.919-1.388 1.016-2.61 1.799-.9.575-1.587 1.41-2.359 1.964l-3.278 2.55c-2.144 2.07-4.706 3.346-6.936 5.078-4.515 3.506-9.449 7.371-14.414 10.146l-9.875 6.781c-3.979 3.13-12.838 8.096-17.42 11.041l-11.466 6.836c-8.45 4.746-5.196 4.351-13.921-.197l-25.98-16.349c-.067-.035-.178-.07-.249-.103-.104-.047-.438-.154-.552-.203l-7.535-4.956c-.064-.046-.157-.118-.22-.165l-26.625-18.954c-.798-.57-1.435-1.247-2.357-1.963l-6.779-5.03a19 19 0 0 1-.482-.353c-.92-.702-1.471-1.353-2.257-2.14-.944-.945-1.285-1.06-2.442-1.917l-36.743-32.922c-.775-.749-.373-.374-.983-1.045-.837-.924-1.362-1.252-2.238-2.188-4.036-4.311-8.798-8.72-12.546-13.27l-15.71-18.282c-3.013-3.463-6.814-8.961-9.586-11.671-1.389-1.356.692 1.532-.794-1.24-.286-.534-.255-.464-.456-.763-.63-.94-1.35-1.646-2.011-2.47l-18.931-27.794c-1.294-1.794-2.256-3.398-3.32-5.434l-9.31-16.054c-1.209-2.141-1.708-3.55-2.986-5.7l-4.29-8.412c-.597-1.152-.683-1.93-1.281-3.017-2.751-5-4.945-9.221-6.727-14.493l-3.9-8.997c-1.763-4.313-2.9-7.921-4.76-12.295-6.046-14.234-15.936-50.713-18.172-66.595a283 283 0 0 0-2.443-14.55c-1.762-8.956-4.235-37.172-4.38-46.286-.092-5.74-.536-11.259-.535-16.971.002-10.985.493-21.881 1.465-32.911.45-5.104 1.137-10.246 1.532-15.525.694-9.283 5.407-33.959 8.311-42.869.887-2.717 2.993-2.12 5.514-2.708 2.55-.595 4.46-1.077 7.011-1.594 16.604-3.363 49.699-14.576 64.165-20.858l5.794-2.557c1.519-.629 4.71-1.662 6.252-2.45 5.74-2.931 11.563-4.786 17.291-8.062 5.544-3.17 11.671-5.682 17.119-8.65l22.177-12.248.261-.143c.08-.044.179-.101.258-.146l6.13-3.487c.07-.041.162-.106.23-.147.066-.042.157-.11.223-.153.069-.043.16-.112.23-.155.073-.045.169-.111.244-.155.078-.046.181-.105.262-.149l29.996-19.429c.078-.049.179-.103.259-.152 4.79-2.933 9.637-6.239 14.012-9.801l34.922-27.37c2.295-1.212 1.911.015 5.237 2.388 2.439 1.74 4.557 4.039 6.984 6.08l26.508 20.315.224.18c3.52 2.84 7.851 5.077 11.447 7.966l.218.179 2.668 1.915c.07.044.17.103.242.146.075.043.177.098.253.14l2.266 1.455c1.218.958 1.62 1.052 2.63 1.73 1.128.758 1.272.95 2.657 1.659 1.765.902 3.294 2.161 5.065 3.262.529.33.787.455 1.203.768 4.696 3.53 9.618 6.006 14.774 9.06 1.752 1.039 3.174 2.092 5.107 3.162l3.921 2.374c.81.49.63.268 1.575.73 5.426 2.652 10.544 6.34 16.504 9.037l11.217 5.829c2.024 1.025 3.564 1.713 5.579 2.702 6.657 3.266 16.286 8.14 23.464 10.67 4.524 1.597 4.52 2.393 8.837 3.693 1.55.467 2 .838 3.154 1.282a607 607 0 0 0 47.687 16.153c4.584 1.346 12.704 3.514 17.134 4.225 9.926 1.594 7.521 2.478 10.115 11.064.996 3.298 1.406 7.52 2.144 10.8 4.564 20.262 7.424 57.168 6.79 77.906m-490.76-9.115.534 26.55c.276 9.959 1.761 26.252 3.425 35.953.881 5.138 1.411 11.934 2.661 17.141 1.261 5.254 2.168 11.01 3.27 16.218 3.35 15.815 7.93 30.986 13.09 46.267l5.159 14.264c2.393 6.84 8.392 20.08 12.002 27.61 5.482 11.435 17.807 34.217 24.827 44.143l1.346 2.191c4.02 6.658 13.67 19.907 18.927 26.662l29.526 34.695 27.531 26.747c3.225 3.234 7.149 6.043 10.57 9.244a85 85 0 0 0 5.095 4.418c3.28 2.614 7.372 6.387 10.941 8.889l16.927 12.78c1.97 1.544 3.54 2.617 5.73 4.184l5.76 4.148c7.882 5.197 15.333 10.747 23.673 15.56 3.74 2.159 22.276 14.28 25.354 14.236 2.946-.042 21.625-11.947 25.04-14.17l23.901-15.74c10.788-6.817 34.638-26.092 44.47-34.365 6.031-5.076 23.26-20.684 28.088-25.809 4.165-4.422 8.163-8.109 12.145-12.81l8.02-8.65c10.296-11.096 18.87-22.512 27.564-34.644l5.942-8.338c.71-.995 1.334-2.018 2.098-3.084 8.307-11.579 15.367-24.793 22.131-37.265 2.312-4.263 4.13-8.402 6.562-12.916 1.109-2.058 2.12-4.46 3.14-6.704 3.14-6.897 6.268-13.338 8.874-20.87.808-2.337 1.706-4.942 2.693-7.239 1.12-2.606 1.616-4.754 2.554-7.269 14.336-38.478 22.891-89.395 22.891-134.894 0-19.22-.727-43.185-4.294-61.863-1.508-7.897-2.369-16.29-4.372-23.695-3.795-14.026-.294-11.054-14.145-14.492-28.89-7.173-47.419-13.732-74.615-24.858-3.01-1.231-6.714-3.238-9.835-4.452-6.708-2.608-26.4-12.436-33.19-16.327-13.509-7.742-26.526-14.863-40.443-23.718-11.294-7.186-22.381-15.072-33.547-23.142l-27.722-22.227c-5.425-4.785-7.44-.553-16.85 7.295-5.746 4.791-11.901 9.98-18.084 14.019l-10.068 7.373c-14.088 9.952-28.255 18.946-42.96 27.975-11.626 7.14-24.767 13.982-36.852 20.248-6.406 3.322-13.102 6.137-19.356 9.134-15.996 7.665-33.799 14.012-51.136 19.848l-10.886 3.346c-7.187 1.962-15.42 4.532-22.794 5.818-2.975.518-8.73 1.167-9.882 3.912-.852 2.031-2.528 8.817-3.002 11.353l-4.495 23.917c-2.736 16.436-3.932 36.141-3.932 53.403" style="fill:#e4e4e4;fill-rule:evenodd" transform="translate(-51.408 -120.164)"></path><path d="M340.538 477.31c.064-.073.148-.176.193-.215l2.646-1.898-.52 2.95zm25.538-47.801c-.273-1.38-.332-3.81.155-5.082.676.767.483-.98.744 1.737l-.2 4.908zm-78.28-81.572c.081.094.144.239.194.317l.737 1.091c.453.471.355.448 1.26.674 3.85.962 4.516-1.006 5.402-2.267.742-1.057 1.315-1.328 1.988-1.956 1.506 1.622 1.417 5.264 4.306 5.086 1.974-.12 1.48-1.253 3.59-1.154 1.83.085 1.831 1.127 3.276 1.564 1.383.418 3.06-.043 4.233.453 1.85.782.237 1.41 2.46 2.335 2.927 1.218 5.193-.349 8.155 1.264.763 4.003-.839 6.749 3.5 7.58 3.576.684 7-1.015 8.792 1.975 2.764 4.61.09 1.337 4.547 6.54 2.656 3.102 2.101 2.645 6.078 4.61 8.315 4.107 4.457 5.392 8.205 8.45 4.233 3.454.515 1.775 3.929 6.785.92 1.353.88 2.386 1.593 3.942 1.066 2.328 3.141 4.549 5.179 5.508-.297 7.216-.502 6.63 3.322 10.792-.548 2.133-1.417 4.383-2.4 6.534-1.09 2.382-2.03 3.525-3.184 5.55-1.226 2.15-.111 10.552 2.971 13.737 4.336-1.473 4.135-2.654 4.152-7.588.014-3.838-.023-7.876 3.11-9.368-.781 2.518-1.407 2-.67 4.779 2.606 1.006 4.766.374 6.22-1.62 1.919-2.633 1.198-3.171 5.528-2.919 2.135 3.392 5.51 8.632 4.64 14.274-.523 3.393-3.45 11.498-4.963 14.06-.662 1.123-1.325 1.735-1.86 2.9-1.031 2.244-1.056 6.083-4.9 9.356-4.905 4.175-13.687 5.915-14.86 8.544-2.54 5.693 2.685 7.592 4.201 8.533 2.867 1.778 9.004 5.954 9.543 9.421.414 2.665 1.126 6.335-.033 8.42-2.54 4.572-7.848 14.014-10.79 17.12-.932-4.869-.936-8.57-3.69-11.762-1.958-2.27-5.478-5.414-8.236-7.216-4.569-2.986-5.443-2.85-6.893-8.564-1.578-6.225.744-8.74.734-13.956-.006-4.446-.196-3.215-2.094-6.768-3.405.72-3.593 1.125-3.887 4.788-.313 3.902-.811 3.489-2.859 4.494-1.398.686-1.68 3.077-.905 4.596.802 1.57 1.883 1.244 3.041 2.401-.55 1.555-4.152 3.702-5.157 4.265l-.076 3.661c-2.288 2.22-4.187 2.701-3.841 7.533.503 7.024 1.566 2.944 2.467 9.013 1.179 7.951 6.172 9.15 5.577 17.335-5.412.179-7.718-.36-12.3 2.204-12.19 6.821-19.773 18.638-32.482 25.394-2.936 1.56-6.19 3.272-9.599 4.685-6.805 2.823-16.034 5.355-23.484 1.369-.782-5.067-.707-9.344-1.914-14.398-.971-4.065-2.309-8.382-3.897-11.915-2.912-6.477-7.48-14.46-12.461-19.235-6.277-6.018-2.473-2.994-10.754-5.523-4.342-1.326-7.301-2.832-10.534-5.295-3.36-2.56-7.081-5.018-6.68-9.132.485-4.978 2.429-8.42 2.046-13.924-1.665-1.658-5.82-2.973-6.705-5.314-1.161-3.069 3.247-5.958 4.31-7.367-.99-2.06-3.275-3.149-3.94-5.686-.802-3.067 2.167-3.94 3.618-5.41-.814-1.897-7.167-5.282-7.708-7.53.456-5.203 10.424-17.364 13.143-20.213 1.404-1.471 2.258-2.677 3.974-4.355 8.597-8.411 2.711-11.228 5.577-19.028 1.449-3.944 4.698-7.071 4.838-11.891.074-2.543 2.622-7.166 4.206-12.341 2.869-9.369 3.018-5.253 5.23-7.425.433-.426 1.141-1.793 1.563-2.38 1.348-1.879 2.246-1.883 3.755-4.578 1.356-2.423 1.75-2.448 4.415-3.515.305-2.733-.242-3.59 1.565-5.177 1.788-1.571 6.15-4.7 8.621-3.988 1.625.467 3.032 1.312 5.008 1.391 4.847.196 5.265-2.968 9.4-3.668 4.838-.818 6.993 2.938 9.556-.897m9.889 204.945c1.637-1.184 3.523-2.262 5.203-3.486 1.91-1.391 3.228-2.495 5.002-4.105 5.648-5.125 13.22-12.342 19.435-16.234 1.555-.973 3.729-2.215 6.11-2.582 3.526-.544 5.607.397 8.646.338 2.26-11.938-1.864-12.02-4.225-18.607-.673-1.876-.683-3.065-1.028-4.991-.45-2.515-1.212-2.657-1.76-4.19-1.673-4.682.313-5.945 3.464-7.455l.09-4.302 3.891-2.654.923 2.574c.232.939.436 1.751.773 2.72 2.413 6.943 14.933 8.818 16.898 18.43.406 1.984.51 4.157.964 6.093.321 1.372 1.311 3.846 1.877 5.203 2.943-.735 15.2-21.525 15.808-23.417.648-2.015-.174-7.088-.523-9.297-.626-3.975-1.348-3.835-3.842-5.995-2.47-2.14-5.451-4.578-8.42-6.232-1.667-.929-1.988-.884-1.697-3.248 6.615-4.636 14.256-4.316 18.345-13.67.64-1.463.89-2.844 1.425-4.175.529-1.313 1.437-2.141 2.105-3.422 1.875-3.594 4.971-12.336 5.193-16.851.255-5.218-3.547-12.866-6.202-15.761-4.863-.66-4.68-.338-8.21 1.12l-.797-4.933c-2.301-.32-5.513 3.534-7.291 4.486l2.625-7.851c-1.176-1.175-3.275-2.583-3.855-3.932-.82-1.902.09-4.915-.105-7.215-2.095-1.753-3.861-2.604-5.059-4.662-.872-1.5-.824-2.29-1.398-3.69-.612-1.496-1.53-1.943-1.841-3.29-.591-2.552.35-2.118-1.386-3.85-.979-.975-2.255-1.75-2.745-2.402-1.989-2.642-.533-3.458-4.328-5.958-7.288-4.802-3.97-.167-11.325-8.893-1.809-2.145-1.846-4.778-4.336-5.95-2.872-1.35-6.307-.146-9.192-1.129-.209-2.48.47-5.616-1.41-6.94-2.127-1.497-4.639-1.032-7.508-1.174-.067-.077-.14-.32-.168-.255l-.51-.705c-.738-.817-1.882-1.268-3.025-1.626-2.344-.736-3.398.029-5.586-1.215-7.296-4.148-6.82 4.189-7.611-4.697l-3.372-.952c-2.291.444-5.87 5-5.883 5.01-.87-1.645.335-2.85-2.903-3.383-2.934-.482-2.678.828-3.834 2.65-3.9.06-5.855-1.724-10.393.295-3.914 1.741-2.723 4.18-8.888 1.978-5.212-1.863-3.782-1.324-8.416 1.353-2.678 1.547-5.864 3.114-6.563 6.06-.863 3.631.061 1.432-2.44 3.557-1.368 1.16-1.408 2.187-2.562 3.773-.994 1.365-1.907 1.687-3.034 3.308-2.256 3.243-1.225 1.149-3.572 2.748-1.982 1.349-4.375 10.421-5.484 13.56-.737 2.085-1.474 2.566-2.221 4.139-1.53 3.219 1.7 1.766-2.636 9.618-7.371 13.343-.17 13.778-4.71 19.861-.894 1.198-2.008 2.123-3.03 3.318-5.004 5.852-9.278 9.67-13.984 17.73-.954 1.635-4.008 7.164-3.733 8.902.297 1.865 4.243 5.583 5.963 6.77-1.404 3.557-3.758 4.5 1.048 11.132-1.233 2.334-4.493 4.367-2.864 8.897 1.232 3.428 4.323 3.834 6.557 6.162-.391 11.292-7.1 13.559 4.83 22.937 3.105 2.442 6.34 4.34 10.09 5.73 7.124 2.643 7.562.86 11.333 4.95 8.273 8.971 13.409 18.412 16.328 31.177 1.222 5.345 1.093 9.268 1.555 14.744 15.59 8.169 27.638-.894 39.424-5.947" style="fill:#fafafa;fill-rule:evenodd" transform="translate(-51.408 -120.164)"></path><path d="m247.025 393.695.483-.396c.116.12.209.284.281.415 1.489 2.683-1.019 1.097.698 2.19.02.013.137.059.159.065l.414-.295c0 .001-.978 1.202.612 2.028 1.264.657 1.863-.18 1.864-.18-1.966 2.38 3.284 2.495 3.435 2.51-1.032.184-.233.668.174 2.105.692.673 3.067 2.042 4.382 3.235.907.823 1.011 1.369 1.92 2.062 2.673 2.036-.22-1.62 7.86 4.815 3.4 2.709 4.074 1.198 5.008 3.24-1.673 2.415-4.151.274-6.955.441-.108 2.345 1.816 3.58 3.81 4.352 3.403 1.317 2.743 1.546 5.095 3.236 2.177 1.563 9.98 3.193 12.889 4.109 8.374 2.637 8.152-4.114 12.887-3.046 2.132.48 10.477 8.577 9.61 1.158-.74-.341-6.113-.694-5.858-5.024 1.167-.058 3.01.815 3.922 1.457 2.147 1.511.768 2.408 3.659 1.717-.03-2.998-1.51-2.112-5.385-5.145-2.215-1.734-4.527-1.622-5.861-4.44-1.09-2.301.36-2.145-1.465-3.7-1.406-1.199-1.623-.626-3.177-1.976-1.73-1.504-5.884-2.12-8.406-2.442-1.612-.206-1.257-.93-3.174-1.828-1.312-.614-2.389-.855-3.795-1.365l-7.726-2.557c-2.371-.768-7.078-5.21-8.413-7.057-.841-1.164-2.138-1.97-1.388-3.138 2.798-2.588 5.515 5.92 8.696 4.768.217-.438.264-.057.198-.875-.133-1.635-3.27-3.98-4.644-5.582-1.033-1.203-1.425-1.978-2.6-2.945-5.697-4.69-3.2-3.754-5.476-6.034-1.409-1.412-2.755-1.22-3.834-2.063-1.864-1.455 1.078-.235-2.848-2.751-5.05-3.238-.503-3.861-7.463-.536-2.036.973-2.74.418-3.98 2.43.415 1.73 7.316 8.214 8.858 9.423.84.659 2.404 1.433 2.795 2.332l.118.783c-3.04 2.095-9.155-4.15-12.873-3.817-1.362.122-.14-.642-1.24.38-2.23 2.074 2.384 4.042 5.101 6.025 1.567 1.143.67.37 1.633 1.916" style="fill:#fefefe;fill-rule:evenodd" transform="translate(-51.408 -120.164)"></path><path d="M385.511 439.776c-.118.03-7.276 3.995-3.706-4.852 1-2.476 1.893-6.434 2.477-9.132-.803-1.235-1.73-3.08-3.144-3.418-1.885 4.164 1.434 7.597-2.444 12.437-.161-2.224-.017-2.957-1.272-4.488-1.461-.364-3.113-.296-4.241.269-1.91.956-5.613 12.604-7.127 15.559-.869 1.696-2.472 4.527-2.873 6.126 4.516-.595 6.301-2.919 8.396-3.708-.148 2.196-.21 1.091-1.109 2.776-1.787 3.349.228 2.555.327 4.95.04.953-.406 1.916-.465 3.176 9.027-.403 10.499-8.066 11.557-10.168 1.139-2.262 3.642-2.27 3.624-9.528" style="fill:#fdfdfd;fill-rule:evenodd" transform="translate(-51.408 -120.164)"></path><path d="M374.532 488.485c-1.692-1.274-5.888-5.313-7.551-5.886-1.863-.641-3.212-.574-5.03-1.706-1.33-.828-2.434-2.087-4.024-2.481-.622 2.262-1.276 1.977.223 4.28.94 1.443 1.595 2.002.994 3.737-1.788-.254-.855-.9-3.124-1.013-1.475-.074-2.247.641-3.168.987-1.6-1.042-1.308-1.461-2.3-2.45-.869-.869.04-.208-1.039-.785-2.891 6.058-1.438 3.947 6.93 11.156 4.646 4.001 2.763 4.16 5.794 4.618 1.415.214 3.26.451 4.655-.036 3.162-1.103 1.09-.753 4.19-.14 2.136-2.056 1.461-1.57 2.148-5.112.339-1.745 1.08-3.325 1.302-5.17" style="fill:#fefefe;fill-rule:evenodd" transform="translate(-51.408 -120.164)"></path><path d="M297.605 471.609c8.93-.139 12.085-6.535 14.75-13.385 2.251-5.786 11.377-9.848 13.287-14.4 4.905.597 8.375 1.892 10.113 1.844-1.924-3.942-4.688-1.979-7.49-4.404-1.5-1.298-4.97-4.427-6.666-4.792-.189 7.956-.406 2.9-1.358 6.378-.773 2.822-.274 2.767-2.374 4.633-1.845 1.64-5.73 5.288-6.879 7.78-8.97 19.456-12.418 9.319-13.383 16.346" style="fill:#fdfafa;fill-rule:evenodd" transform="translate(-51.408 -120.164)"></path><path d="M237.136 424.646c1.569-1.019.96-1.557 2.774-2.428 1.753.451 5.016 3.917 5.953 5.16 3.605 4.78-1.499 4.252-3.902 5.151 1.479 4.015 12.303-1.058 14.186-1.917.047-2.683-4.2-5.154-7.724-8.182-1.374-1.18-2.932-2.41-4.32-3.598-1.114-.954-3.054-3.23-4.985-3.231-4.191-.002-4.31 3.65-3.388 6.82.374 1.288.54 1.536 1.406 2.225" style="fill:#fdfdfd;fill-rule:evenodd" transform="translate(-51.408 -120.164)"></path><path d="m247.025 393.695-.225 1.422c-2.556-.044-.913-1.233-4.908-1.119-2.172.063-3.265.338-4.687 1.255-.035 2.55.048 1.198.716 2.768.558 1.31.136 1.638 1.352 2.655.999.837 1.902.74 2.619 1.343.695.584.71 1.437 1.728 2.239 1.22.962 1.567.5 2.766 1.211 1.019.604 1.299 1.306 2.133 1.845 1.65 1.064 4.329 1.462 6.648.865.131-2.097-1.498-2.005-2.991-2.966-3.343-2.15-2.732-1.18-4.273-2.082l-5.452-4.054c-1.151-.882-1.282-.531-1.357-2.214 3.994-2.041 10.94 4.439 14.05 5.274-.406-1.437-1.205-1.921-.173-2.105-.151-.015-5.401-.13-3.435-2.51 0 0-.6.837-1.864.18-1.59-.826-.612-2.027-.612-2.028l-.414.295a2 2 0 0 1-.16-.065c-1.716-1.093.792.493-.697-2.19a2 2 0 0 0-.281-.415z" style="fill:#fdfafa;fill-rule:evenodd" transform="translate(-51.408 -120.164)"></path><path d="m296.762 433.322-.056 1.466c5.049 3.258 22.161-2.677 10.604 12.042-.802 1.022-1.415 1.299-1.552 2.621l2.988-.044c1.112-1.507 2.704-4.524 3.654-6.221 2.034-3.631 2.322-2.581 1.067-6.977-3.436.037-.903.495-2.724-1.951-.758-1.018-2.733-1.448-4.084-1.788-3.066-.77-7.412-.667-9.897.852" style="fill:#fafafa;fill-rule:evenodd" transform="translate(-51.408 -120.164)" data-source="https://football-logos.cc"></path><path d="M325.648 450.524c-1.584 2.265 4.556 6.952 4.567 6.956 1.498.515 2.86.01 5.394.997 1.746.68 2.9 1.072 4.563.597.223-2.545-.85-2.985-2.142-4.194-.991-.928-2.168-2.34-3.414-2.916-2.453-1.135-7.367-3.73-8.968-1.44" style="fill:#fdfdfd;fill-rule:evenodd" transform="translate(-51.408 -120.164)"></path><path d="m366.776 431.072.2-4.908c-.263-2.717-.07-.97-.745-1.737-.487 1.272-.428 3.702-.155 5.082z" style="fill:#232e44;fill-rule:evenodd" transform="translate(-51.408 -120.164)"></path><path d="m340.538 477.31 2.318.837.521-2.95-2.646 1.898c-.045.039-.13.142-.193.214" style="fill:#212c3d;fill-rule:evenodd" transform="translate(-51.408 -120.164)"></path><path d="M271.01 229.596c2.52 0 4.554 1.89 4.554 4.232 0 2.348-2.014 4.27-4.555 4.27-2.56 0-4.597-1.891-4.597-4.27 0-2.372 2.056-4.232 4.597-4.232M265.103 228.156c-.005 7.299-4.455 10.092-11.821 10.017-6.874-.07-11.29-2.952-11.237-9.87l.188-24.32h7.277v22.305c0 3.406 1 5.675 4.475 5.678 2.927.002 3.89-1.905 3.898-5.256l.056-22.727h7.183zM339.514 211.516c-1.526-1.254-2.92-2.092-4.737-2.114-1.569-.02-3.896.96-3.953 3.212-.03 1.18.288 2.694 2.519 4.29 2.168 1.55 3.697 3.083 4.654 3.96 1.733 1.588 3.248 2.843 3.297 7.53.06 5.75-4.51 9.812-10.592 9.812-2.48 0-3.941-.58-6.488-1.703l-.018-7.247c2.078 1.59 3.463 2.598 5.56 2.564 1.95-.03 4.032-1.17 4.065-3.343.05-3.258-5.565-5.429-8.1-8.999-1.45-2.042-2.331-4.164-2.331-6.835 0-5.602 4.782-9.233 10.16-9.233 2.154 0 4.13.637 5.945 1.61zM219.621 588.618v12.475h6.578v44.373h11.943v-56.848zm55.243 56.848 9.9-15.95c3.96-6.395 7.408-14.448 7.408-22.66 0-13.027-9.196-19.739-19.287-19.739-10.474 0-19.799 6.79-19.799 20.766 0 10.422 5.748 19.976 14.817 19.976 2.363 0 4.28-.632 6.387-1.737l.127.157-13.092 19.187zm-1.915-47.216c4.15 0 7.663 4.027 7.663 9.238 0 5.132-3.512 9.238-7.663 9.238-4.216 0-7.409-4.185-7.409-9.317 0-5.21 3.193-9.159 7.409-9.159m30.4-9.632v12.475h6.578v44.373h11.942v-56.848zm55.243 56.848 9.9-15.95c3.959-6.395 7.408-14.448 7.408-22.66 0-13.027-9.197-19.739-19.288-19.739-10.474 0-19.798 6.79-19.798 20.766 0 10.422 5.748 19.976 14.817 19.976 2.363 0 4.279-.632 6.386-1.737l.128.157-13.092 19.187zm-1.916-47.216c4.151 0 7.664 4.027 7.664 9.238 0 5.132-3.513 9.238-7.664 9.238-4.215 0-7.408-4.185-7.408-9.317 0-5.21 3.193-9.159 7.408-9.159M444.933 317.636h-9.962l-13.456-39.604h-.147v39.604h-9.423v-59.284h10.613l12.705 37.336h.184v-37.336h9.485zM393.508 297.957c-1.67-9.05-2.93-18.286-3.438-27.597h-.391c-.817 9.727-2.154 18.633-3.74 27.644zm13.902 19.679h-10.618l-1.584-10.83-10.98.075-1.752 10.755h-10.42l12.408-59.284h11.128z" style="fill:#fff;fill-rule:evenodd" transform="translate(-51.408 -120.164)"></path><path d="M367.107 258.352h11.067l-15.06 59.284h-9.113l-15.11-59.284h10.966c2.76 13.314 6.646 26.328 8.282 39.941l.903-.007c1.038-13.611 5.377-26.623 8.065-39.934z" style="fill:#fffffc;fill-rule:evenodd" transform="translate(-51.408 -120.164)"></path><path d="M310.037 317.636h-22.682v-59.284h10.285v47.719h12.397zM250.947 258.352h10.426v59.284h-10.426zM225.826 284.272c4.926 0 8.764-2.33 8.695-8.845-.07-6.666-3.286-8.26-6.756-8.26h-1.939zm20.367 33.364h-11.295l-8.925-25.082h-.147v25.082h-10.142v-59.284h12.754c13.083 0 15.828 7.723 15.828 16.992 0 6.887-1.38 12.162-8.42 15.206zM210.067 268.97h-8.477v48.666h-10.284v-48.57h-8.624v-10.714h27.385zM149.799 317.636h-22.38v-59.284h22.115v10.618h-12.256v12.334h11.203v11.55h-11.203v13.217h12.52zM119.077 270.984c-1.674-1.796-5.259-3.025-7.221-3.003-3.481.038-5.23 3.328-5.23 5.71 0 2.829.342 4.715 3.538 7.514 2.982 2.611 5.058 4.905 6.203 6.562 2.644 3.826 5.188 6.026 5.116 13.56-.082 8.646-4.806 17.231-14.945 17.119-3.25-.036-6.629-.524-9.82-3.072l.037-12.12c2.957 2.796 4.91 3.912 8.147 3.93 2.95.018 5.286-2.259 5.509-5.697.187-2.893-1.376-5.127-3.56-7.121-4.443-4.058-6.237-6.357-7.459-8.173-2.73-4.06-3.38-8.08-3.38-12.514 0-7.737 5-16.5 13.583-16.5 2.822 0 6.557.989 9.378 3.192zM347.21 229.446c2.52 0 4.555 1.89 4.555 4.232 0 2.349-2.015 4.27-4.556 4.27-2.56 0-4.597-1.891-4.597-4.27 0-2.372 2.056-4.232 4.597-4.232M177.754 270.984c-1.674-1.796-5.259-3.025-7.22-3.003-3.482.038-5.231 3.328-5.231 5.71 0 2.829.342 4.715 3.538 7.514 2.982 2.611 5.058 4.905 6.203 6.562 2.644 3.826 5.188 6.026 5.116 13.56-.081 8.646-4.806 17.231-14.945 17.119-3.25-.036-6.629-.524-9.82-3.072l.038-12.12c2.956 2.796 4.909 3.912 8.146 3.93 2.95.018 5.286-2.259 5.509-5.697.187-2.893-1.376-5.127-3.56-7.121-4.443-4.058-6.237-6.357-7.458-8.173-2.731-4.06-3.38-8.08-3.38-12.514 0-7.737 5-16.5 13.583-16.5 2.821 0 6.556.989 9.378 3.192zM337.027 317.636h-22.38v-59.284h22.115v10.618h-12.255v12.334h11.202v11.55h-11.202v13.217h12.52zM477.374 268.97h-8.477v48.666h-10.284v-48.57h-8.624v-10.714h27.385zM505.263 317.636h-22.38v-59.284h22.115v10.618h-12.255v12.334h11.203v11.55h-11.203v13.217h12.52z" style="fill:#fff;fill-rule:evenodd" transform="translate(-51.408 -120.164)"></path><path d="m234.898 317.636-8.925-25.082h-.147v25.082h-10.142v-59.284h12.754c13.083 0 15.828 7.723 15.828 16.992 0 6.887-1.38 12.162-8.42 15.206l10.347 27.086zm16.049 0v-59.284h10.426v59.284zm46.587-59.284V135.205c-.733.091-1.702 1.117-2.457 1.72l-21.105 16.149c-7.985 5.968-16.377 11.69-24.877 17.519-16.87 11.569-34.181 21.734-52.828 31.973-26.4 14.497-60.801 29.417-89.789 37.854l-33.49 8.869c-2.401 3.425-6.259 30.673-6.971 36.97-10.048 88.828 7.128 175.519 51.455 250.795 19.49 33.099 32.203 47.67 56.717 75.254 1.76 1.98 3.642 3.695 5.438 5.654 16.234 17.699 33.848 31.835 52.15 46.922 14.06 11.59 36.88 26.229 52.205 35.768 4.397 2.738 9.004 5.681 13.552 8.037V552.947c-11.737 5.065-23.749 14.016-39.273 5.882-.462-5.476-.333-9.399-1.555-14.744-2.92-12.765-8.055-22.206-16.328-31.178-3.771-4.089-4.209-2.305-11.332-4.948-3.75-1.392-6.986-3.29-10.092-5.73-11.93-9.38-5.22-11.646-4.83-22.938-2.233-2.328-5.323-2.734-6.557-6.162-1.628-4.53 1.632-6.563 2.865-8.897-4.806-6.632-2.452-7.575-1.048-11.133-1.72-1.186-5.666-4.904-5.963-6.77-.275-1.737 2.779-7.266 3.733-8.9 4.706-8.061 8.98-11.879 13.985-17.73 1.021-1.196 2.135-2.12 3.029-3.319 4.54-6.083-2.661-6.518 4.71-19.861 4.337-7.852 1.107-6.4 2.636-9.618.747-1.573 1.484-2.054 2.221-4.14 1.109-3.138 3.502-12.21 5.484-13.56 2.347-1.598 1.316.496 3.572-2.747 1.127-1.62 2.04-1.943 3.034-3.308 1.154-1.586 1.194-2.613 2.562-3.773 2.501-2.125 1.577.074 2.44-3.557.7-2.946 3.885-4.513 6.563-6.06 4.634-2.677 3.204-3.215 8.416-1.353 6.165 2.203 4.974-.237 8.888-1.978 4.538-2.02 6.493-.235 10.393-.296 1.156-1.82.9-3.13 3.834-2.649 3.238.532 2.034 1.738 2.903 3.382.012-.01 3.416-4.342 5.71-4.969v-24.257h-10.179v-59.284zm-132.319 60.094c-3.25-.036-6.629-.524-9.82-3.072l.038-12.12c2.956 2.796 4.909 3.912 8.146 3.93 2.95.018 5.286-2.259 5.509-5.697.187-2.893-1.376-5.127-3.56-7.121-4.443-4.058-6.237-6.357-7.458-8.173-2.731-4.06-3.38-8.08-3.38-12.514 0-7.737 5-16.5 13.583-16.5 2.821 0 6.556.989 9.378 3.192l.103 10.613c-1.674-1.796-5.259-3.025-7.22-3.003-3.482.038-5.231 3.328-5.231 5.71 0 2.829.342 4.715 3.538 7.514 2.982 2.611 5.058 4.905 6.204 6.562 2.643 3.826 5.187 6.026 5.115 13.56-.081 8.646-4.806 17.231-14.945 17.119m-15.416-.81h-22.38v-59.284h22.115v10.618h-12.256v12.334h11.203v11.55h-11.203v13.217h12.52zm41.507 0v-48.57h-8.624v-10.714h27.385v10.618h-8.477v48.666zm73.797-89.48c-.005 7.298-4.455 10.092-11.821 10.017-6.874-.07-11.29-2.952-11.237-9.87l.188-24.32h7.277v22.305c0 3.406 1 5.675 4.475 5.678 2.927.002 3.89-1.905 3.898-5.256l.056-22.727h7.183zm5.906 9.943c-2.561 0-4.597-1.892-4.597-4.271 0-2.372 2.056-4.232 4.597-4.232 2.521 0 4.555 1.89 4.555 4.232 0 2.348-2.014 4.27-4.555 4.27m-51.388 362.994v-12.475h18.521v56.848h-11.943v-44.373zm33.466 6.79c0-13.975 9.324-20.766 19.798-20.766 10.09 0 19.287 6.712 19.287 19.74 0 8.21-3.449 16.264-7.408 22.66l-9.9 15.949h-13.539l13.093-19.186-.128-.158c-2.108 1.105-4.024 1.737-6.387 1.737-9.069 0-14.816-9.554-14.816-19.976m-134.01-336.9c-1.674-1.795-5.259-3.024-7.221-3.002-3.481.038-5.23 3.328-5.23 5.71 0 2.829.342 4.715 3.538 7.514 2.982 2.611 5.058 4.905 6.203 6.562 2.644 3.826 5.188 6.026 5.116 13.56-.082 8.646-4.806 17.231-14.945 17.119-3.25-.036-6.629-.524-9.82-3.072l.037-12.12c2.957 2.796 4.91 3.912 8.147 3.93 2.95.018 5.286-2.259 5.509-5.697.187-2.893-1.376-5.127-3.56-7.121-4.443-4.058-6.237-6.357-7.459-8.173-2.73-4.06-3.38-8.08-3.38-12.514 0-7.737 5-16.5 13.583-16.5 2.822 0 6.557.989 9.378 3.192z" style="fill:#db0913;fill-rule:evenodd" transform="translate(-51.408 -120.164)"></path><path d="M225.826 284.272c4.926 0 8.764-2.33 8.695-8.845-.07-6.666-3.286-8.26-6.756-8.26h-1.939zM272.949 598.25c-4.216 0-7.409 3.948-7.409 9.16 0 5.131 3.193 9.316 7.409 9.316 4.15 0 7.663-4.106 7.663-9.238 0-5.21-3.512-9.238-7.663-9.238" style="fill:#db0913;fill-rule:evenodd" transform="translate(-51.408 -120.164)"></path><path d="M386.14 417.566c2.655 2.895 6.458 10.543 6.202 15.76-.222 4.516-3.318 13.258-5.193 16.852-.668 1.28-1.576 2.109-2.105 3.423-.536 1.33-.786 2.711-1.425 4.174-4.09 9.354-11.73 9.034-18.345 13.67-.291 2.364.03 2.319 1.698 3.248 2.968 1.654 5.949 4.092 8.42 6.232 2.493 2.16 3.215 2.02 3.841 5.995.349 2.209 1.17 7.282.523 9.297-.608 1.892-12.865 22.682-15.808 23.417-.566-1.357-1.556-3.83-1.877-5.203-.453-1.936-.558-4.109-.964-6.094-1.965-9.611-14.485-11.486-16.898-18.428-.337-.97-.54-1.782-.773-2.721l-.923-2.574-3.891 2.654-.09 4.302c-3.15 1.51-5.137 2.773-3.464 7.455.548 1.533 1.31 1.675 1.76 4.19.345 1.926.355 3.115 1.028 4.99 2.362 6.588 6.484 6.67 4.225 18.608-3.039.059-5.12-.882-8.646-.338-2.381.367-4.555 1.608-6.11 2.582-6.216 3.892-13.787 11.108-19.435 16.234-1.774 1.61-3.092 2.714-5.002 4.104-1.68 1.225-3.566 2.302-5.203 3.487l-.15.065v155.742l.115.06c3.016-.98 10.746-6.427 14.169-8.21l39.392-26.385c7.055-5.257 18.555-13.85 24.769-19.225 1.294-1.12 1.87-1.472 3.025-2.519 1.13-1.023 2.006-1.781 2.943-2.602l11.796-10.401c.937-.962 2.893-2.168 5.673-5.02 1.83-1.879 3.797-3.523 5.769-5.335 1.93-1.772 3.622-3.758 5.523-5.57 6.648-6.333 15.034-15.882 21.022-22.967 45.364-53.672 80.576-121.22 93.809-191.969 9.295-49.7 9.581-110.403-2.929-159.252-35.946-7.983-61.54-17.456-94.663-32.613-4.82-2.206-9.333-4.532-14.162-6.839-4.738-2.265-9.281-4.812-13.868-7.141-13.138-6.672-27.867-15.614-40.353-23.455-4.413-2.772-8.328-5.602-12.741-8.264-6.939-4.185-18.06-12.236-25.304-17.091-9.997-6.7-14.99-11.416-23.531-18.59a.65.65 0 0 0-.455-.096v123.147h.106v47.719h12.397v11.565h-12.503v24.257q.089-.025.174-.04l3.37.952c.792 8.886.316.549 7.612 4.697 2.188 1.244 3.242.48 5.586 1.215 1.143.358 2.287.809 3.024 1.626l.511.705c.027-.064.1.178.168.255 2.87.142 5.38-.323 7.508 1.175 1.88 1.323 1.201 4.458 1.41 6.94 2.885.982 6.32-.222 9.193 1.129 2.489 1.17 2.527 3.804 4.335 5.949 7.356 8.726 4.037 4.091 11.325 8.893 3.795 2.5 2.34 3.316 4.328 5.958.49.651 1.767 1.427 2.745 2.403 1.736 1.73.795 1.297 1.386 3.849.312 1.347 1.23 1.794 1.841 3.289.574 1.4.526 2.19 1.398 3.69 1.198 2.06 2.965 2.91 5.06 4.663.194 2.3-.715 5.313.104 7.215.58 1.349 2.679 2.757 3.855 3.932l-2.625 7.851c1.778-.953 4.99-4.806 7.29-4.485l.799 4.931c3.53-1.457 3.346-1.78 8.21-1.119M303.35 588.618h18.52v56.848h-11.942v-44.373h-6.578zm53.263-1.5c10.091 0 19.288 6.71 19.288 19.738 0 8.212-3.45 16.265-7.409 22.66l-9.899 15.95h-13.54l13.093-19.186-.128-.158c-2.107 1.105-4.023 1.737-6.386 1.737-9.07 0-14.817-9.554-14.817-19.976 0-13.975 9.324-20.765 19.798-20.765m148.651-269.482h-22.38v-59.284h22.115v10.618h-12.255v12.334h11.203v11.55h-11.203v13.217h12.52zm-46.65 0v-48.57h-8.624v-10.714h27.385v10.618h-8.477v48.666zm-13.68 0h-9.962l-13.456-39.604h-.147v39.604h-9.423v-59.284h10.613l12.705 37.336h.184v-37.336h9.485zm-107.906 0h-22.38v-59.284h22.115v10.618h-12.255v12.334h11.202v11.55h-11.202v13.217h12.52zm58.181-10.83-10.98.075-1.752 10.755h-10.42l12.408-59.284h11.128l11.818 59.284h-10.618zm-32.094 10.83h-9.113l-15.11-59.284h10.966c2.76 13.314 6.646 26.328 8.282 39.941l.903-.007c1.038-13.611 5.377-26.623 8.065-39.934h11.066zm-11.35-83.958c0 2.348-2.014 4.27-4.554 4.27-2.562 0-4.598-1.89-4.598-4.27 0-2.372 2.056-4.232 4.598-4.232 2.52 0 4.555 1.89 4.555 4.232m-12.25-22.162c-1.526-1.254-2.92-2.092-4.737-2.114-1.569-.02-3.896.96-3.953 3.212-.03 1.18.288 2.694 2.519 4.29 2.168 1.55 3.697 3.083 4.654 3.96 1.733 1.588 3.248 2.843 3.297 7.53.06 5.75-4.51 9.812-10.592 9.812-2.48 0-3.941-.58-6.488-1.703l-.018-7.247c2.078 1.59 3.463 2.598 5.56 2.564 1.95-.03 4.032-1.17 4.065-3.343.05-3.258-5.565-5.429-8.1-8.999-1.45-2.042-2.331-4.164-2.331-6.835 0-5.602 4.782-9.233 10.16-9.233 2.154 0 4.13.637 5.945 1.61z" style="fill:#152841;fill-rule:evenodd" transform="translate(-51.408 -120.164)"></path><path d="M364.34 607.488c0-5.21-3.513-9.238-7.664-9.238-4.215 0-7.408 3.948-7.408 9.16 0 5.131 3.193 9.316 7.408 9.316 4.151 0 7.664-4.106 7.664-9.238M385.939 298.004l7.57-.047c-1.672-9.05-2.93-18.286-3.44-27.597h-.39c-.817 9.727-2.154 18.633-3.74 27.644" style="fill:#152841;fill-rule:evenodd" transform="translate(-51.408 -120.164)" data-source="https://football-logos.cc"></path><!-- source: https://football-logos.cc --></svg>