<svg xmlns="http://www.w3.org/2000/svg" viewBox="0 0 702.33 828.98"><!-- Source: https://football-logos.cc --><defs data-source="https://football-logos.cc"><style>.cls-1{fill:#fff}.cls-1,.cls-2{fill-rule:evenodd}.cls-2,.cls-3{fill:#d4a367}</style></defs><g id="svgContainer" data-source="https://football-logos.cc"><path d="m179.46 366.57 31.03 103-31.03 102.99-31.02-102.99z" class="cls-3"></path><path d="m260.31 366.57-31.02 103 31.02 102.99 31.03-102.99zm0 0-31.02 103 31.02 102.99 31.03-102.99zm0 0-31.02 103 31.02 102.99 31.03-102.99zm90.86-33.51-41.03 136.51 41.03 136.51 41.03-136.51zm90.86 33.51-31.03 103 31.03 102.99 31.02-102.99zm0 0-31.03 103 31.03 102.99 31.02-102.99zm-131.89 103 41.03 136.51 41.03-136.51-41.03-136.51zm-80.85 0 31.02 102.99 31.03-102.99-31.03-103zm441.9-409.71-9.27-28.13-24.26 17c-33.96 23.81-74.94 36.4-118.49 36.4-59.87 0-115.05-24.04-151.37-65.95L351.17 0l-16.62 19.18c-36.33 41.91-91.51 65.95-151.38 65.95-43.55 0-84.52-12.59-118.49-36.4L40.43 31.74l-9.27 28.12C28.05 69.3.75 155.4.02 271.87c-.75 118.55 25.99 224.72 79.47 315.57 56.55 98.5 124.98 158.12 172.44 190.79 52.13 35.89 91.08 48.21 92.72 48.72l6.52 2.03 6.52-2.03c1.64-.51 40.59-12.83 92.72-48.72 47.46-32.67 115.89-92.29 172.44-190.79 53.49-90.86 80.22-197.02 79.47-315.57-.73-116.44-28.02-202.57-31.13-212.01M522.88 603.77l-40.43-134.2-40.42 134.2-40.43-134.2-50.43 167.78-50.43-167.78-40.43 134.2-40.42-134.2-40.43 134.2-40.42-134.2 40.42-134.2 40.43 134.2 40.42-134.2 40.43 134.2 50.43-167.78 50.43 167.78 40.43-134.2 40.42 134.2 40.43-134.2 40.42 134.2zm-31.03-134.2 31.03 102.99 31.02-102.99-31.02-103zm-80.85 0 31.03 102.99 31.02-102.99-31.02-103zm-100.86 0 41.03 136.51 41.03-136.51-41.03-136.51zm-80.85 0 31.02 102.99 31.03-102.99-31.03-103zm31.02-103-31.02 103 31.02 102.99 31.03-102.99zm90.86-33.51-41.03 136.51 41.03 136.51 41.03-136.51zm0 0-41.03 136.51 41.03 136.51 41.03-136.51zm-90.86 33.51-31.02 103 31.02 102.99 31.03-102.99z" class="cls-3"></path><path d="M645.93 396.13c-11.62 61.18-32.6 117.81-62.35 168.32l-.07.12-.06.11c-22.88 39.88-49.68 76.18-79.65 107.9-23.98 25.38-50.04 47.91-77.46 66.97-34.52 24.01-62.64 36.46-75.17 41.38-12.53-4.92-40.65-17.37-75.17-41.38-27.42-19.06-53.48-41.59-77.46-66.97-29.97-31.72-56.77-68.02-79.65-107.9l-.06-.11-.07-.12c-29.75-50.51-50.73-107.14-62.35-168.32-7.53-39.61-11.16-81.23-10.88-124.12h611.28c.28 42.89-3.35 84.51-10.88 124.12" style="fill:#cf0101"></path><path d="M680.32 272.01c-.72-114.5-28.26-199.89-30.03-205.26-36.08 25.29-81.62 40.38-131.12 40.38-68.4 0-129.23-28.81-168-73.54-38.77 44.73-99.6 73.54-168 73.54-49.5 0-95.04-15.09-131.12-40.38-1.77 5.37-29.31 90.76-30.03 205.26-.58 91.51 15.97 201.62 76.49 304.37 105.51 183.87 252.66 229.56 252.66 229.56s147.15-45.69 252.66-229.56c60.52-102.75 77.07-212.86 76.49-304.37m-34.39 124.12c-11.62 61.18-32.6 117.81-62.35 168.32l-.07.12-.06.11c-22.88 39.88-49.68 76.18-79.65 107.9-23.98 25.38-50.04 47.91-77.46 66.97-34.52 24.01-62.64 36.46-75.17 41.38-12.53-4.92-40.65-17.37-75.17-41.38-27.42-19.06-53.48-41.59-77.46-66.97-29.97-31.72-56.77-68.02-79.65-107.9l-.06-.11-.07-.12c-29.75-50.51-50.73-107.14-62.35-168.32-7.53-39.61-11.16-81.23-10.88-124.12h611.28c.28 42.89-3.35 84.51-10.88 124.12"></path><path d="M76.36 156.17c-7.17 7.9-7.53 13.09-7.53 21.98 1.29 11 6.4 17.44 19.34 25.64 13.01 8.25 16.68 12.46 16.68 19.14 0 4.4-2.21 7.36-6.58 8.8-3.26 1.07-11.45.48-15.17-.95-.75-.29-14.27-25.94-14.27-25.94v29.63c9.7 4.42 27.88 7.75 38.01 3.74 12.83-4.97 19.32-16.88 14.8-32.11-2.03-6.84-7.27-15.69-20.93-22.11-11.19-6.76-13.86-9.9-13.86-16.27 0-8.44 7.52-10 11.83-10s6.75.75 6.75.75l14.05 25.39s-.13-23.14-.13-27.7c-11.82-10.07-35.48-7.6-42.98 0ZM163.5 149.6c-19.45 0-35.22 18.4-35.22 43.57 0 .85.02 3.7.06 4.54 1.01 24.12 14.25 43.02 35.16 43.02s34.15-18.91 35.17-43.02c.04-.84.05-3.69.05-4.54 0-25.17-15.77-43.57-35.22-43.57m1.6 83.04c-8.7.39-14.89-14.91-16.2-34.72-.04-.7-.16-3.04-.19-3.74-.92-20.7 4.96-36.12 13.05-36.48 8.08-.36 15.31 14.48 16.23 35.17.03.7.13 3.05.15 3.74.46 19.85-4.35 35.65-13.04 36.03M597.74 149.6c-19.45 0-35.22 18.4-35.22 43.57 0 .85.02 3.7.06 4.54 1.01 24.12 14.25 43.02 35.16 43.02s34.15-18.91 35.17-43.02c.04-.84.05-3.69.05-4.54 0-25.17-15.77-43.57-35.22-43.57m1.6 83.04c-8.7.39-14.89-14.91-16.2-34.72-.04-.7-.16-3.04-.19-3.74-.92-20.7 4.96-36.12 13.05-36.48 8.08-.36 15.31 14.48 16.23 35.17.03.7.13 3.05.15 3.74.46 19.85-4.35 35.65-13.04 36.03M324.1 663.74c-6.59 0-12.42 3.78-15.99 9.88-1.33 2.27-2.01 4.87-2.01 7.5v1.14c0 3.93 1.55 7.7 4.3 10.5l.36.36c2.58 2.62 6.11 4.1 9.79 4.1 2.44 0 4.8-.8 6.74-2.29l4.27-3.28c-.06 1.99-.23 3.85-.48 5.57-1.35 8.93-4.57 14.26-8.44 14.26-.9 0-2.35-1.19-3.52-2.93l-.25-.38-5.47-8.31-4.4 6.36-1.86 2.69 2.92 1.82c4.21 2.62 9.08 4 14.04 4 11.71 0 19.11-10.58 19.68-24.07.02-.47.03-2.07.03-2.54 0-14.09-8.82-24.38-19.71-24.38m.06 26.76h-1.23c-1.21 0-2.34-.6-3.02-1.61a17.3 17.3 0 0 1-2.94-9.66v-.78c0-2.49.48-4.97 1.57-7.21 1.33-2.73 3.02-4.31 4.86-4.31 5.2 0 7.94 8.4 8.16 20.18l-4.4 2.57c-.91.53-1.94.81-3 .81ZM420.96 698.16c0 .47-.06.95-.2 1.4-.96 3.11-2.37 5.89-4.17 8.2-3.39 4.34-8.16 6.98-14.02 6.98-10.94 0-17.36-3.13-17.36-3.13l5.11-11.37s8.34 11.25 10.78 11.25c4.31 0 6.34-3.63 7.68-9.92.26-1.25-.42-2.51-.17-3.76 0-2.42-3.62-8.71-11.18-8.71-2.38 0-4.73.48-6.92 1.4s-2.66 1.12-2.66 1.12l-.03-.02.59-20.66.19-6.04h23.18l7.29-2.1-2.63 12.85h-22.67l-2.41 10.98 7.9-3.69h7.89c4.37 0 8.45 2.16 10.91 5.78 1.89 2.79 2.9 6.08 2.9 9.44M245.85 180.22v-6.97c0-8.04-6.52-14.56-14.56-14.56h-4.8v70.38l7 9.64h-33.53l7-9.64v-68.51l-1.33-1.87-5.67-7.98h42.63c12.82 0 23.22 10.4 23.22 23.22v6.08c0 9.22-6.84 16.85-15.72 18.09l19.31 40.61h-22.89l-17.96-40.43-.69-1.55v-1.91h3.38c8.07 0 14.61-6.54 14.61-14.6M319.83 180.22v-6.97c0-8.04-6.52-14.56-14.56-14.56h-4.8v70.38l7 9.64h-33.53l7-9.64v-68.51l-1.33-1.87-5.67-7.98h42.63c12.82 0 23.22 10.4 23.22 23.22v6.08c0 9.22-6.84 16.85-15.72 18.09l19.31 40.61h-22.89l-17.96-40.43-.69-1.55v-1.91h3.38c8.07 0 14.61-6.54 14.61-14.6M408.03 209.73v28.98h-60.57l7-9.64v-68.51l-1.33-1.87-5.67-7.98h59.92v29.26l-13.34-21.3h-20.05v35.56l23.1-10.01v21.86l-23.1-9.04v33.99h20.71zM556.9 150.85v33.37l-13.34-25.38h-9.23v70.23l7 9.64H507.8l7-9.64v-70.23h-9.34l-13.34 25.38v-33.37z" class="cls-2"></path><path d="m487.11 150.71-9.53 17.09v70.91h-8.21l-4.95-7.81-34.46-54.37-.02.05v46.69l10.77 15.44h-26.59l9.53-17.09v-55.05l-10.05-15.86h24.79l.87 1.36 32.03 50.23v-36.15l-10.76-15.44zM301.87 713.95h-18.88l4-5.15v-34.58l-6.06-5.5 16.94-4.98v45.06zM381.82 701.89v-11.97l-5.68 1.87v-28.06l-10.88 1.23-20.7 40.75c6.51-1.94 14.06-3.43 20.7-4.24v7.32l-4 5.15h17.88l-3-5.15v-7.99c2.22.07 4.6.63 5.68 1.08Zm-16.55-6.49-14.61 4.83 14.61-22.26zM387.85 691.62l-.03.01" class="cls-3"></path><path d="m392.2 469.57-41.03 136.51-41.03-136.51 41.03-136.51z" class="cls-1"></path><path d="m351.17 301.79-50.43 167.78 50.43 167.78 50.43-167.78zm0 31.27 41.03 136.51-41.03 136.51-41.03-136.51z" class="cls-3"></path><path d="m473.05 469.57-31.02 102.99L411 469.57l31.03-103z" class="cls-1"></path><path d="m442.03 335.37-40.43 134.2 40.43 134.2 40.42-134.2zm0 31.2 31.02 103-31.02 102.99L411 469.57z" class="cls-3"></path><path d="m553.9 469.57-31.02 102.99-31.03-102.99 31.03-103z" class="cls-1"></path><path d="m522.88 335.37-40.43 134.2 40.43 134.2 40.42-134.2zm0 31.2 31.02 103-31.02 102.99-31.03-102.99z" class="cls-3"></path><path d="m291.34 469.57-31.03 102.99-31.02-102.99 31.02-103z" class="cls-1"></path><path d="m260.31 335.37-40.42 134.2 40.42 134.2 40.43-134.2zm0 31.2 31.03 103-31.03 102.99-31.02-102.99z" class="cls-3"></path><path d="m210.49 469.57-31.03 102.99-31.02-102.99 31.02-103z" class="cls-1"></path><path d="m179.46 335.37-40.42 134.2 40.42 134.2 40.43-134.2zm0 31.2 31.03 103-31.03 102.99-31.02-102.99z" class="cls-3"></path></g><!-- source: https://football-logos.cc --></svg>