<svg xmlns="http://www.w3.org/2000/svg" viewBox="32.79 26.91 664.31 933.95"><!-- Source: https://football-logos.cc --><path fill-rule="evenodd" d="M583.77 107.9c2.46 1.69 1.83 4.05.31 6.45-8.25 13-11.96 27.86-9.53 43.14q2.18 13.7 9.62 27.63 9.2 17.26 22.51 34.2 17.46 22.25 29.91 37.83c25.68 32.18 49.71 68.14 56.48 109.41q2 12.15 3.3 36.01 1.47 26.74.01 53.15-3.29 59.38-24.99 113.7c-13.47 33.73-31.88 66.05-50.77 96.2q-13.73 21.92-36.01 56.97c-1.31 2.06-2.17 3.89-5.11 3.07q-10.01-2.83-19.43-2.54c-40.2 1.23-48.72 43.63-49.35 75.24a1.918 1.842 56.832 0 1-.13.69c-.99 2.58-2.78 2.84-5.46 2.23-24.85-5.72-48.61-2.54-69.68 11.66-16.69 11.25-29.96 28.18-39.3 46.21-15.05 29.04-23.19 61.57-27.16 94.35-.29 2.34.88 6.5-2.7 7.21q-3.71.72-5.02-2.04c-.51-1.09-.26-1.94-.2-3.04a7.844 7.595 44.076 0 0-.04-1.24q-3.29-28.51-11.23-55.4c-14.76-49.97-48.39-104.38-108.8-100.26q-7.2.49-16.32 2.58c-3.17.72-5.43-.4-5.58-3.68-.79-17.05-4.06-35.67-12.32-50.79-11.72-21.45-33.53-28.41-56.38-21.13q-2.45.77-3.89-1.4-3.93-5.93-31.57-49.71c-19.4-30.72-39.11-63.93-53.53-98.25q-21.44-51.04-26.48-103.61-4.73-49.33 1.01-99.17c3.69-32.09 17.93-61.37 36.29-87.89 17.6-25.44 39.11-50.58 56-72.94 9.81-12.99 19.77-28.99 24.91-45.29 5.99-19.02 2.84-36.21-7.31-53.18-2.22-3.72-1.61-6.49 2.81-6.93q18.21-1.82 36.61-5.83C229 91.99 275.2 77.44 316.18 58.43c15.72-7.29 32.97-16.64 45.09-29.44 1.87-1.97 3.92-3.07 5.95-.88 9.99 10.76 22.59 18.48 35.59 25.12q25.45 13.02 58.99 24.73 40.54 14.15 81.28 23.22 19.44 4.32 39.7 6.36a2.1 2.068 64.538 0 1 .99.36M365.26 930.18q4.23-24.07 12.33-46.81c8.84-24.83 22.05-49.05 41.26-66.61q35.89-32.81 84.09-23.39a.553.546 7.613 0 0 .65-.49q.63-7.81.85-10.12c2.79-29.22 14.69-60.64 47.38-66.15q13.51-2.27 26.53 1.15a.618.614 23.598 0 0 .67-.26q25.53-39.31 46.74-74.48c20.28-33.6 38.35-68.92 49.33-106.5q14.18-48.58 14.64-100.03.26-28.49-2.55-58.24c-4.2-44.42-28.97-82.13-56.49-116.69-19.68-24.71-28.35-35-41.87-54.38q-10.97-15.72-17.3-32.41-11.82-31.14 3.77-60a.405.404-72.03 0 0-.3-.59q-26.12-3.58-50.8-9.84-45.05-11.43-84.95-26.82-26.4-10.18-48.85-22.64-14.25-7.91-25.43-18.44a.313.313-47.69 0 0-.42 0q-12.56 11.53-27.86 19.73-16.3 8.74-25.04 12.5-65.22 28.07-135.36 42.16-10.96 2.2-21.1 3.23a.636.634-17.554 0 0-.49.94c22.28 40.01-2.21 78.75-26.46 109.99-13.49 17.38-37.24 45.56-53.71 70.51-14.83 22.48-27.35 48.57-30.7 74.52q-2.73 21.11-3.46 46.73c-1.23 43.45 3.58 86 16.69 126.72q9.87 30.63 25.48 60.65 10.91 21 18.54 33.7 21.75 36.19 49.69 79.4a.959.958 66.686 0 0 1.03.41c31.5-7.93 56.14 7.66 66.65 37.21q6.51 18.3 7.57 38.17a.518.516-7.189 0 0 .62.48q45.4-9.37 80.57 19.86c20.27 16.85 34.6 41.5 43.76 66.18q9.18 24.77 13.72 50.65a.294.294-69.681 0 0 .58 0" data-source="https://football-logos.cc"></path><path fill="#ffed01" fill-rule="evenodd" d="M365.26 930.18a.294.294-5.516 0 1-.58 0q-4.54-25.88-13.72-50.65c-9.16-24.68-23.49-49.33-43.76-66.18q-35.17-29.23-80.57-19.86a.518.516-7.189 0 1-.62-.48q-1.06-19.87-7.57-38.17c-10.51-29.55-35.15-45.14-66.65-37.21a.959.958 66.686 0 1-1.03-.41q-27.94-43.21-49.69-79.4-7.63-12.7-18.54-33.7-15.61-30.02-25.48-60.65c-13.11-40.72-17.92-83.27-16.69-126.72q.73-25.62 3.46-46.73c3.35-25.95 15.87-52.04 30.7-74.52 16.47-24.95 40.22-53.13 53.71-70.51 24.25-31.24 48.74-69.98 26.46-109.99a.636.634-17.554 0 1 .49-.94q10.14-1.03 21.1-3.23 70.14-14.09 135.36-42.16 8.74-3.76 25.04-12.5 15.3-8.2 27.86-19.73a.313.313-9.152 0 1 .42 0q11.18 10.53 25.43 18.44 22.45 12.46 48.85 22.64 39.9 15.39 84.95 26.82 24.68 6.26 50.8 9.84a.405.404-72.03 0 1 .3.59q-15.59 28.86-3.77 60 6.33 16.69 17.3 32.41c13.52 19.38 22.19 29.67 41.87 54.38 27.52 34.56 52.29 72.27 56.49 116.69q2.81 29.75 2.55 58.24-.46 51.45-14.64 100.03c-10.98 37.58-29.05 72.9-49.33 106.5q-21.21 35.17-46.74 74.48a.618.614 23.598 0 1-.67.26q-13.02-3.42-26.53-1.15c-32.69 5.51-44.59 36.93-47.38 66.15q-.22 2.31-.85 10.12a.553.546 7.613 0 1-.65.49q-48.2-9.42-84.09 23.39c-19.21 17.56-32.42 41.78-41.26 66.61q-8.1 22.74-12.33 46.81m-.42-72.31q1.97-.27 2.68-2.38c12.26-36.61 27.15-78.71 72.31-82.44q19.23-1.59 38.47 2.26 3.01.6 4.32-.94.8-.95.9-4.46c.72-23 7.51-45.3 25.47-59.99 14.3-11.7 34.25-16.62 52.75-15.85q2.62.11 3.33-.99 33.11-51.62 41.64-65.36 15.94-25.7 26.74-49.25c15.81-34.46 24.01-71.25 26.74-108.75q2.86-39.21.84-79.49c-1.66-33.28-19.7-63.21-39.78-89.1q-11.5-14.83-33.07-40.78c-11.89-14.3-22.66-28.61-31.6-44.41q-7.72-13.64-11.12-28.4-4.53-19.61 3.61-40.19c1.19-2.99 1.82-6.07-2.3-6.4q-11.39-.89-21.64-2.8-58.34-10.92-112.18-34.55-18.58-8.16-35.8-20.45-2.45-1.75-8.83-8.27c-1.67-1.7-3.58-3.09-5.43-.97-8.91 10.2-21 18.24-33.37 24.86-33.8 18.11-71.3 31.08-108.39 39.08q-10.76 2.31-25.76 3.81-4.16.42-2.78 4.51 7.84 23.27-.98 46.75c-7.31 19.45-20.04 36.81-33.28 52.92q-12.96 15.75-26.18 31.55c-18.49 22.08-35.67 45.38-46.7 71.02q-8 18.6-10.07 33.86-6.13 45.2-2.46 91.83 3.98 50.67 24.56 98.19 12.91 29.81 32.25 61.02 24.95 40.27 41.16 65.34 1.22 1.9 3.1 1.59c19.96-3.23 40.16.5 54.79 14.61 14.66 14.13 20.09 36.34 21.14 55.96.13 2.44 1.33 5.08 4.07 4.41 49.52-12.07 88.71 42.55 107.08 80 .83 1.7 1.88 2.9 3.77 2.65"></path><path fill-rule="evenodd" d="M364.84 857.87c-1.89.25-2.94-.95-3.77-2.65-18.37-37.45-57.56-92.07-107.08-80-2.74.67-3.94-1.97-4.07-4.41-1.05-19.62-6.48-41.83-21.14-55.96-14.63-14.11-34.83-17.84-54.79-14.61q-1.88.31-3.1-1.59-16.21-25.07-41.16-65.34-19.34-31.21-32.25-61.02-20.58-47.52-24.56-98.19-3.67-46.63 2.46-91.83 2.07-15.26 10.07-33.86c11.03-25.64 28.21-48.94 46.7-71.02q13.22-15.8 26.18-31.55c13.24-16.11 25.97-33.47 33.28-52.92q8.82-23.48.98-46.75-1.38-4.09 2.78-4.51 15-1.5 25.76-3.81c37.09-8 74.59-20.97 108.39-39.08 12.37-6.62 24.46-14.66 33.37-24.86 1.85-2.12 3.76-.73 5.43.97q6.38 6.52 8.83 8.27 17.22 12.29 35.8 20.45 53.84 23.63 112.18 34.55 10.25 1.91 21.64 2.8c4.12.33 3.49 3.41 2.3 6.4q-8.14 20.58-3.61 40.19 3.4 14.76 11.12 28.4c8.94 15.8 19.71 30.11 31.6 44.41q21.57 25.95 33.07 40.78c20.08 25.89 38.12 55.82 39.78 89.1q2.02 40.28-.84 79.49c-2.73 37.5-10.93 74.29-26.74 108.75q-10.8 23.55-26.74 49.25-8.53 13.74-41.64 65.36-.71 1.1-3.33.99c-18.5-.77-38.45 4.15-52.75 15.85-17.96 14.69-24.75 36.99-25.47 59.99q-.1 3.51-.9 4.46-1.31 1.54-4.32.94-19.24-3.85-38.47-2.26c-45.16 3.73-60.05 45.83-72.31 82.44q-.71 2.11-2.68 2.38m240.75-241.45q16.83-27.51 28.56-56.78 1.9-4.74 1.9-6.64-.15-119.55-.04-178.35a.4.39-90 0 1 .39-.4h15.16a.457.453 83.409 0 0 .44-.56q-4.53-18.51-13.88-35.08c-12.28-21.76-27.36-40.73-44.12-60.51a1.388 1.369-20.299 0 0-1.04-.47h-30.02a.37.37 33.743 0 1-.37-.37v-38.09a3.481 3.43-63.523 0 0-.67-2.05c-10.24-14.15-19.51-31.42-23.16-48.83q-4.26-20.35 3.01-40.39a.546.545 13.422 0 0-.45-.73l-8.96-.99a.432.425-87.011 0 0-.47.43V277.2a.44.43 0 0 1-.44.43h-37.42a.29.29 45 0 1-.29-.29V138.86a.67.67-43.615 0 0-.48-.64l-35.83-10.24a.445.439-82.133 0 0-.56.43v148.78a.44.44 45 0 1-.44.44h-35.85a.27.26 0 0 1-.27-.26V114.58a.789.788-78.915 0 0-.49-.73q-19.94-8.1-37.5-18.92a.27.27 15.694 0 0-.41.23v182.06a.42.41 90 0 1-.41.42h-37.2a.44.44-54.471 0 1-.44-.44V98.72a.335.327 74.45 0 0-.5-.29q-16.95 10.43-36.06 18.7a.59.59 21.184 0 0-.36.54v159.72a.25.24 0 0 1-.25.24h-35.8a.38.38 45 0 1-.38-.38v-145.7a.228.223-9.407 0 0-.3-.21q-19.12 6.34-39.01 11.13a.772.767 83.366 0 0-.59.75v133.82a.59.59 17.72 0 1-.59.59h-35.76a.33.33 32.828 0 1-.33-.33v-71.72a.085.085-60.003 0 0-.16-.04c-9.41 17.9-21.34 34.33-34.54 49.83a2.224 2.206 65.44 0 0-.53 1.44v20.27a.56.56 33.757 0 1-.56.56h-16.57a1.839 1.828-69.55 0 0-1.39.64c-24.21 28.76-46.5 58.71-56.21 95.24a.578.574 7.337 0 0 .56.72h4.69a.62.62 45 0 1 .62.62v153.98a15.837 15.683 36.955 0 0 .66 4.51q10.38 34.52 28 66.64a.213.212 30.791 0 0 .4-.1V374.54a.28.28 39.155 0 1 .28-.28h38.92a.61.6 90 0 1 .6.61v290.46a5.139 5.123 28.87 0 0 .8 2.75l15.58 24.61a.96.937-19.505 0 0 .93.43q7.92-1.1 17.23-.51a.634.632 2.108 0 0 .68-.63V374.84a.58.57 90 0 1 .57-.58h35.75a.37.37-45 0 1 .37.37v331.88a1.282 1.279-66.745 0 0 .35.88q1.45 1.55 3.76 3.91c14.01 14.25 20.16 35.82 21.57 55.73a.691.683 85.14 0 0 .75.64l13.12-1.22a.383.381-2.459 0 0 .35-.38v-391.5a.31.31-45 0 1 .31-.31h35.67a.45.45-54.469 0 1 .45.45v403.24a1.153 1.141-73.064 0 0 .5.95q20.55 13.91 35.76 34.57a.367.366-63.349 0 0 .66-.22V374.82a.56.56 35.537 0 1 .56-.56h37.03a.47.46 90 0 1 .46.47v428.5a.302.3-29.791 0 0 .56.15c8.73-14.72 21.19-26.89 37.35-32.79a.756.754-9.927 0 0 .5-.71V374.84a.57.57 35.526 0 1 .57-.57h35.51a.46.46-64.785 0 1 .46.46l.01 390.79a.392.383-87.611 0 0 .35.39l19.29 2.13a.554.552 3.883 0 0 .61-.53c.46-17.51 5.35-36.2 15.87-50.39a3.79 3.74 63.739 0 0 .75-2.26V374.67a.41.41-64.819 0 1 .41-.41h37.29a.44.44-45 0 1 .44.44v315.59a.435.435-7.629 0 0 .55.42q13.55-3.76 27.82-3.46a1.182 1.18-68.073 0 0 .89-.38q1.45-1.59 1.45-3.87.01-71.67 0-308.47a.27.26 0 0 1 .27-.26h42.01a.37.37-56.243 0 1 .37.37v241.68a.2.198-29.609 0 0 .37.1"></path><path fill="#fff" fill-rule="evenodd" d="M605.59 616.42a.2.198-29.609 0 1-.37-.1V374.64a.37.37 74.787 0 0-.37-.37h-42.01a.27.26 0 0 0-.27.26q.01 236.8 0 308.47 0 2.28-1.45 3.87a1.182 1.18-68.073 0 1-.89.38q-14.27-.3-27.82 3.46a.435.435-7.629 0 1-.55-.42V374.7a.44.44-45 0 0-.44-.44h-37.29a.41.41 81.854 0 0-.41.41v340.19a3.79 3.74 63.739 0 1-.75 2.26c-10.52 14.19-15.41 32.88-15.87 50.39a.554.552 3.883 0 1-.61.53l-19.29-2.13a.392.383-87.611 0 1-.35-.39l-.01-390.79a.46.46 81.833 0 0-.46-.46h-35.51a.57.57-2.391 0 0-.57.57v395.04a.756.754-9.927 0 1-.5.71c-16.16 5.9-28.62 18.07-37.35 32.79a.302.3-29.791 0 1-.56-.15v-428.5a.47.46-90 0 0-.46-.47H344.4a.56.56-2.444 0 0-.56.56v438.43a.367.366-63.349 0 1-.66.22q-15.21-20.66-35.76-34.57a1.153 1.141-73.064 0 1-.5-.95V374.71a.45.45 87.511 0 0-.45-.45H270.8a.31.31-45 0 0-.31.31v391.5a.383.381-2.459 0 1-.35.38l-13.12 1.22a.691.683 85.14 0 1-.75-.64c-1.41-19.91-7.56-41.48-21.57-55.73q-2.31-2.36-3.76-3.91a1.282 1.279-66.745 0 1-.35-.88V374.63a.37.37-45 0 0-.37-.37h-35.75a.58.57-90 0 0-.57.58v317.14a.634.632 2.108 0 1-.68.63q-9.31-.59-17.23.51a.96.937-19.505 0 1-.93-.43l-15.58-24.61a5.139 5.123 28.87 0 1-.8-2.75V374.87a.61.6-90 0 0-.6-.61h-38.92a.28.28-24.7 0 0-.28.28v225.35a.213.212 30.791 0 1-.4.1q-17.62-32.12-28-66.64a15.837 15.683 36.955 0 1-.66-4.51V374.86a.62.62-45 0 0-.62-.62h-4.69a.578.574 7.337 0 1-.56-.72c9.71-36.53 32-66.48 56.21-95.24a1.839 1.828-69.55 0 1 1.39-.64h16.57a.56.56-15.176 0 0 .56-.56v-20.27a2.224 2.206 65.44 0 1 .53-1.44c13.2-15.5 25.13-31.93 34.54-49.83a.085.085 5.507 0 1 .16.04v71.72a.33.33 17.637 0 0 .33.33H230a.59.59-19.252 0 0 .59-.59V143.22a.772.767 83.366 0 1 .59-.75q19.89-4.79 39.01-11.13a.228.223-9.407 0 1 .3.21v145.7a.38.38 0 0 0 .38.38h35.8a.25.24 0 0 0 .25-.24V117.67a.59.59 31.848 0 1 .36-.54q19.11-8.27 36.06-18.7a.335.327 74.45 0 1 .5.29V277.2a.44.44 87.563 0 0 .44.44h37.2a.42.41 90 0 0 .41-.42V95.16a.27.27 15.694 0 1 .41-.23q17.56 10.82 37.5 18.92a.789.788-78.915 0 1 .49.73v162.79a.27.26 0 0 0 .27.26h35.85a.44.44 45 0 0 .44-.44V128.41a.445.439-82.133 0 1 .56-.43l35.83 10.24a.67.67-38.435 0 1 .48.64v138.48a.29.29 45.026 0 0 .29.29h37.42a.44.43 0 0 0 .44-.43V146.61a.432.425-87.011 0 1 .47-.43l8.96.99a.546.545 13.422 0 1 .45.73q-7.27 20.04-3.01 40.39c3.65 17.41 12.92 34.68 23.16 48.83a3.481 3.43-63.523 0 1 .67 2.05v38.09a.37.37-15.198 0 0 .37.37h30.02a1.388 1.369-20.299 0 1 1.04.47c16.76 19.78 31.84 38.75 44.12 60.51q9.35 16.57 13.88 35.08a.457.453 83.409 0 1-.44.56H636.4a.4.39-90 0 0-.39.4q-.11 58.8.04 178.35 0 1.9-1.9 6.64-11.73 29.27-28.56 56.78m-434.6-302.97c-.82-11.03-6.48-20.91-18.6-20.45-13.3.5-17.39 12.11-16.8 23.45.47 8.82 4.78 14.9 13.05 17.94 4.85 1.78 12.15 3.71 10.15 9.7q-.53 1.58-2.07 2.3c-4.82 2.28-8.33-1.05-9.16-5.71a.581.579-5.403 0 0-.57-.47h-11.71a.651.65 89.145 0 0-.65.67c.27 11.16 7.6 22.51 20.16 21.35q10.1-.94 14.57-9.39c2.74-5.19 3.39-13.16 2.21-18.91-2.08-10.21-9.32-12.73-17.93-16.18q-3.68-1.47-4.75-3.83c-2.97-6.55 7.55-7.93 8.93-1.75q.16.73.25 1.05a.862.852-7.463 0 0 .83.63h11.72a.381.371 88.531 0 0 .37-.4m23.291 14.22c.03 10.742 2.147 24.793 11.597 31.532q6.102 4.348 14.012 2.528c11.31-2.62 15.17-16.29 15.7-26.24a.3.3-88.208 0 0-.3-.32h-11.93a.679.674-86.65 0 0-.67.6c-.48 4.17-1.64 9.31-6.017 10.274-8.481 1.861-8.886-13.572-8.899-18.41s.308-20.274 8.799-18.459c4.382.94 5.57 6.074 6.073 10.241a.679.674 86.339 0 0 .673.597l11.93-.065a.3.3 87.897 0 0 .298-.322c-.584-9.947-4.518-23.596-15.843-26.154q-7.919-1.777-13.998 2.604c-9.413 6.791-11.454 20.853-11.425 31.594m246.42-14.222c-.823-11.028-6.486-20.905-18.604-20.442-13.299.505-17.385 12.115-16.791 23.453.473 8.819 4.784 14.897 13.054 17.934 4.85 1.778 12.15 3.706 10.152 9.696q-.529 1.58-2.069 2.3c-4.819 2.281-8.329-1.047-9.161-5.706a.581.579-5.422 0 0-.57-.47l-11.709.004a.651.65 89.127 0 0-.649.67c.273 11.159 7.606 22.505 20.164 21.341q10.099-.943 14.566-9.394c2.738-5.19 3.385-13.159 2.203-18.908-2.083-10.208-9.323-12.726-17.933-16.173q-3.68-1.468-4.75-3.828c-2.972-6.548 7.546-7.931 8.928-1.752q.16.729.25 1.049a.862.852-7.481 0 0 .83.63l11.719-.004a.381.371 88.513 0 0 .37-.4m-144.662 47.078q6.095.01 6.467-.027a.346.34-2.672 0 0 .314-.339l.08-47.77a.4.39 90 0 1 .39-.4h11.34a.42.41 0 0 0 .42-.41v-16.47a.288.285 1.533 0 0-.272-.284q-1.717-.086-18.631-.114-16.915-.027-18.632.053a.288.285-1.346 0 0-.273.283l-.054 16.47a.42.41.187 0 0 .419.412l11.34.037a.4.39-89.813 0 1 .389.401l-.076 47.77a.346.34 2.859 0 0 .313.34q.372.038 6.466.048M351.8 329.11l1.43-.91a1.739 1.428-80.358 0 0 .38-.33q3.93-4.65 4.13-11.85.2-7.09-.52-10.03-2.61-10.6-14.15-11.08-8.56-.36-22.31-.13a.59.58-.503 0 0-.58.58v64.84a.32.31 0 0 0 .32.31h12.84a.35.35-8.173 0 0 .35-.35v-21.91a.644.642-2.431 0 1 .59-.64c3.17-.24 8.68-.41 9.78 3.24q.96 3.23.96 7.16 0 6.58.47 12.11a.442.432-2.098 0 0 .44.4h12.63a.921.919-16.102 0 0 .78-1.41l-.96-1.51a1.682 1.641 28.35 0 1-.25-.8q-.14-3.74-.33-14.3-.09-4.5-1.56-8.1-.76-1.86-4.46-4.45a.505.5-43.87 0 1 .02-.84m13.76 31.02a.4.4-45 0 0 .4.4h33.44a.4.4-45.034 0 0 .4-.4v-14.54a.4.4 87.521 0 0-.4-.4h-19.96a.4.4 44.996 0 1-.4-.4v-9.55a.4.4 44.994 0 1 .4-.4h16.23a.4.4-45.034 0 0 .4-.4v-14.52a.4.4-45 0 0-.4-.4h-16.21a.4.4-60.205 0 1-.4-.4v-8.6a.4.4-54.478 0 1 .4-.4h19.29a.4.4 45 0 0 .4-.4v-14.6a.4.4-8.147 0 0-.4-.4h-32.79a.4.4 45 0 0-.4.4zm98.707.403q6.095.005 6.467-.032a.346.34-2.718 0 0 .314-.339l.041-47.774a.4.39 89.954 0 1 .39-.4l11.341-.009a.42.41-.046 0 0 .42-.411l-.014-16.471a.288.285 1.487 0 0-.272-.284q-1.717-.084-18.633-.098-16.915-.014-18.632.067a.288.285-1.392 0 0-.273.284l-.041 16.471a.42.41.141 0 0 .419.411l11.341.028a.4.39-89.859 0 1 .389.401l-.037 47.773a.346.34 2.813 0 0 .313.34q.372.038 6.467.043m38.413-65.423a.38.38 0 0 0-.38-.38h-12.68a.38.38 0 0 0-.38.38v65.04a.38.38 0 0 0 .38.38h12.68a.38.38 0 0 0 .38-.38zm22.844 34.626c3.509 8.996 7.761 18.892 12.433 30.326a.729.724 79.016 0 0 .673.458h11.61a.57.56-90 0 0 .56-.57v-64.67a.57.57-84.138 0 0-.57-.57h-11.79a.46.46 0 0 0-.46.46v34a.068.066 32.739 0 1-.128.026q-.382-.818-1.508-3.705c-3.51-8.995-7.762-18.892-12.434-30.326a.729.724 79.016 0 0-.673-.458h-11.61a.57.56 90 0 0-.56.57v64.67a.57.57 44.95 0 0 .57.57h11.79a.46.46 0 0 0 .46-.46v-34a.068.066 32.739 0 1 .128-.026q.382.819 1.509 3.705m51.418 22.094q4.845.004 5.938.012a.708.699-5.778 0 1 .68.548l1.72 7.7a.576.565-6.277 0 0 .56.44h12.22a.398.392-6.354 0 0 .39-.48l-14.44-64.67a.703.691-4.361 0 0-.649-.548q-2.01-.104-6.379-.107t-6.378.098a.703.691 4.442 0 0-.65.547l-14.531 64.65a.398.392 6.434 0 0 .389.48l12.22.017a.576.565 6.357 0 0 .561-.439l1.731-7.697a.708.699 5.859 0 1 .681-.547q1.092-.007 5.937-.004m-387.362-9.79a.34.34 0 0 0-.34-.34h-11.46a.34.34 0 0 0-.34.34v18.14a.34.34 0 0 0 .34.34h11.46a.34.34 0 0 0 .34-.34zm63.41.07a.41.41 0 0 0-.41-.41H241.3a.41.41 0 0 0-.41.41v18a.41.41 0 0 0 .41.41h11.28a.41.41 0 0 0 .41-.41z" data-source="https://football-logos.cc"></path><path fill-rule="evenodd" d="M170.99 313.45a.381.371 88.531 0 1-.37.4H158.9a.862.852-7.463 0 1-.83-.63q-.09-.32-.25-1.05c-1.38-6.18-11.9-4.8-8.93 1.75q1.07 2.36 4.75 3.83c8.61 3.45 15.85 5.97 17.93 16.18 1.18 5.75.53 13.72-2.21 18.91q-4.47 8.45-14.57 9.39c-12.56 1.16-19.89-10.19-20.16-21.35a.651.65 89.145 0 1 .65-.67h11.71a.581.579-5.403 0 1 .57.47c.83 4.66 4.34 7.99 9.16 5.71q1.54-.72 2.07-2.3c2-5.99-5.3-7.92-10.15-9.7-8.27-3.04-12.58-9.12-13.05-17.94-.59-11.34 3.5-22.95 16.8-23.45 12.12-.46 17.78 9.42 18.6 20.45M207.774 327.634c.013 4.838.418 20.271 8.899 18.41 4.377-.964 5.537-6.104 6.017-10.274a.679.674-86.65 0 1 .67-.6h11.93a.3.3-88.208 0 1 .3.32c-.53 9.95-4.39 23.62-15.7 26.24q-7.91 1.82-14.012-2.528c-9.45-6.739-11.567-20.79-11.597-31.532-.029-10.741 2.012-24.803 11.425-31.594q6.079-4.381 13.998-2.604c11.325 2.558 15.259 16.207 15.843 26.154a.3.3 87.897 0 1-.298.322l-11.93.065a.679.674 86.339 0 1-.673-.597c-.503-4.167-1.691-9.301-6.073-10.241-8.491-1.815-8.812 13.62-8.799 18.459M440.701 313.448a.381.371 88.513 0 1-.37.4l-11.719.004a.862.852-7.481 0 1-.83-.63q-.09-.32-.25-1.049c-1.382-6.179-11.9-4.796-8.928 1.752q1.07 2.36 4.75 3.828c8.61 3.447 15.85 5.965 17.933 16.173 1.182 5.749.535 13.718-2.203 18.908q-4.467 8.451-14.566 9.394c-12.558 1.164-19.891-10.182-20.164-21.341a.651.65 89.127 0 1 .649-.67l11.709-.004a.581.579-5.422 0 1 .57.47c.832 4.659 4.342 7.987 9.161 5.706q1.54-.72 2.069-2.3c1.998-5.99-5.302-7.918-10.152-9.696-8.27-3.037-12.581-9.115-13.054-17.934-.594-11.338 3.492-22.948 16.791-23.453 12.118-.463 17.781 9.414 18.604 20.442M296.147 294.712q16.914.028 18.631.114a.288.285 1.533 0 1 .272.284v16.47a.42.41 0 0 1-.42.41h-11.34a.4.39 90 0 0-.39.4l-.08 47.77a.346.34-2.672 0 1-.314.339q-.372.037-6.467.027t-6.466-.048a.346.34 2.859 0 1-.313-.34l.076-47.77a.4.39-89.813 0 0-.389-.401l-11.34-.037a.42.41.187 0 1-.419-.412l.054-16.47a.288.285-1.346 0 1 .273-.283q1.717-.08 18.632-.053M351.78 329.95q3.7 2.59 4.46 4.45 1.47 3.6 1.56 8.1.19 10.56.33 14.3a1.682 1.641 28.35 0 0 .25.8l.96 1.51a.921.919-16.102 0 1-.78 1.41h-12.63a.442.432-2.098 0 1-.44-.4q-.47-5.53-.47-12.11 0-3.93-.96-7.16c-1.1-3.65-6.61-3.48-9.78-3.24a.644.642-2.431 0 0-.59.64v21.91a.35.35 25.208 0 1-.35.35H320.5a.32.31 0 0 1-.32-.31v-64.84a.59.58-.503 0 1 .58-.58q13.75-.23 22.31.13 11.54.48 14.15 11.08.72 2.94.52 10.03-.2 7.2-4.13 11.85a1.739 1.428-80.358 0 1-.38.33l-1.43.91a.505.5-43.87 0 0-.02.84m-18.058-19.46-.064 12.279a.4.4 87.744 0 0 .398.402l5.72.03a5.56 5.54.3 0 0 5.589-5.51l.01-2a5.56 5.54.3 0 0-5.531-5.569l-5.72-.03a.4.4 87.788 0 0-.402.398M365.56 360.13v-65.01a.4.4 45 0 1 .4-.4h32.79a.4.4 25.155 0 1 .4.4v14.6a.4.4 45 0 1-.4.4h-19.29a.4.4 87.574 0 0-.4.4v8.6a.4.4-84.167 0 0 .4.4h16.21a.4.4-45 0 1 .4.4v14.52a.4.4-45.004 0 1-.4.4h-16.23a.4.4-44.976 0 0-.4.4v9.55a.4.4 44.966 0 0 .4.4h19.96a.4.4-54.468 0 1 .4.4v14.54a.4.4-45.004 0 1-.4.4h-33.44a.4.4-45 0 1-.4-.4M464.267 360.533q-6.095-.005-6.467-.043a.346.34 2.813 0 1-.313-.34l.037-47.773a.4.39-89.859 0 0-.389-.401l-11.341-.028a.42.41.141 0 1-.419-.411l.041-16.471a.288.285-1.392 0 1 .273-.284q1.717-.081 18.632-.067t18.633.098a.288.285 1.487 0 1 .272.284l.014 16.471a.42.41-.046 0 1-.42.411l-11.341.009a.4.39 89.954 0 0-.39.4l-.041 47.774a.346.34-2.718 0 1-.314.339q-.372.037-6.467.032M502.68 360.15a.38.38 0 0 1-.38.38h-12.68a.38.38 0 0 1-.38-.38v-65.04a.38.38 0 0 1 .38-.38h12.68a.38.38 0 0 1 .38.38zM525.524 329.736q-1.127-2.886-1.509-3.705a.068.066 32.739 0 0-.128.026v34a.46.46 45 0 1-.46.46h-11.79a.57.57 44.994 0 1-.57-.57v-64.67a.57.56-90 0 1 .56-.57h11.61a.729.724 79.016 0 1 .673.458c4.672 11.434 8.924 21.331 12.434 30.326q1.126 2.887 1.508 3.705a.068.066 32.739 0 0 .128-.026v-34a.46.46 45 0 1 .46-.46h11.79a.57.57-60.186 0 1 .57.57v64.67a.57.56 90 0 1-.56.57h-11.61a.729.724 79.016 0 1-.673-.458c-4.672-11.434-8.924-21.33-12.433-30.326M576.982 294.725q4.369.003 6.379.107a.703.691-4.361 0 1 .649.548l14.44 64.67a.398.392-6.354 0 1-.39.48h-12.22a.576.565-6.277 0 1-.56-.44l-1.72-7.7a.708.699-5.778 0 0-.68-.548q-1.093-.008-5.938-.012-4.845-.003-5.937.004a.708.699 5.859 0 0-.681.547l-1.731 7.697a.576.565 6.357 0 1-.561.439l-12.22-.017a.398.392 6.434 0 1-.389-.48l14.531-64.65a.703.691 4.442 0 1 .65-.547q2.01-.101 6.378-.098m-4.201 43.045a.31.31-73.32 0 0 .307.363l7.679-.026a.31.31-73.767 0 0 .304-.366l-3.915-21.465a.31.31 11.666 0 0-.61.002z"></path><path fill="#fff" fill-rule="evenodd" d="M333.722 310.49a.4.4-54.204 0 1 .402-.398l5.72.03a5.56 5.54.3 0 1 5.531 5.569l-.01 2a5.56 5.54.3 0 1-5.589 5.51l-5.72-.03a.4.4-54.183 0 1-.398-.402zM572.781 337.77l3.765-21.492a.31.31 82.895 0 1 .61-.002l3.915 21.465a.31.31-56.548 0 1-.304.366l-7.679.026a.31.31-56.189 0 1-.307-.363"></path><path fill-rule="evenodd" d="M189.58 360.18a.34.34 0 0 1-.34.34h-11.46a.34.34 0 0 1-.34-.34v-18.14a.34.34 0 0 1 .34-.34h11.46a.34.34 0 0 1 .34.34zM252.99 360.11a.41.41 0 0 1-.41.41H241.3a.41.41 0 0 1-.41-.41v-18a.41.41 0 0 1 .41-.41h11.28a.41.41 0 0 1 .41.41z" data-source="https://football-logos.cc"></path><!-- source: https://football-logos.cc --></svg>