<svg xmlns="http://www.w3.org/2000/svg" viewBox="0.82 0.64 535.81 566.93"><!-- Source: https://football-logos.cc --><path d="M11.2 45.094C89.315 17.652 170.741 1.355 253.683.676 347.086-.09 438.547 13.37 526.508 45.34c7.172 2.601 10.789 8.066 10.031 15.719-5.422 54.73-10.168 109.562-18.086 164.004-3.601 24.75-7.89 49.417-13.555 73.785-5.226 22.46-11.625 44.707-20.035 66.191-40.91 104.563-107.828 161.52-211.008 201.656-3.566 1.336-6.78 1.004-9.835-.02-76.48-30.066-137.524-70.905-181.512-141.773a343 343 0 0 1-14.922-26.632c-23.426-46.524-35.797-97.247-44.25-148.375-4.84-29.254-8.438-58.696-11.727-88.16C7.883 128.327 4.56 94.878.953 61.452c-.86-8.023 2.59-13.672 10.246-16.36m0 0" style="stroke:none;fill-rule:evenodd;fill:#fff;fill-opacity:1" data-source="https://football-logos.cc"></path><path d="M15.672 57.836c79.242-27.84 158.61-43.008 238.117-43.656 89.117-.73 178.676 11.347 268.113 43.851 1.32.48 1.34.285 1.203 1.696-11.367 114.628-19.734 220.953-50.816 300.394C431.664 463.95 365.262 516.648 268.953 554.11c-80.09-31.488-135.215-72.28-174.973-136.328-56.066-90.316-62.613-200.164-79.597-357.77-.188-1.738-.344-1.6 1.289-2.175m0 0" style="stroke:none;fill-rule:evenodd;fill:#a8191d;fill-opacity:1"></path><path d="M269.117 517.977c84.422-35.418 140.977-79.922 175.613-167.485 14.817-37.453 22.56-79.031 28.215-118.781 6.543-46.047 10.594-92.555 15.582-138.809-75.191-26.644-152.988-38.738-232.754-38.09-70.625.575-140.183 15.098-206.796 37.997 2.972 28.347 5.8 56.714 9.02 85.035 2.952 25.976 6.233 51.976 10.667 77.746 7.547 43.855 18.547 87.43 39.258 127.09a288 288 0 0 0 11.23 19.586c36.59 58.293 87.094 90.449 149.965 115.71m0 0" style="stroke:none;fill-rule:evenodd;fill:#fff;fill-opacity:1"></path><path d="M71.703 198.402c62.5-7.332 128.16-11.972 192.375-12.054 67.293-.086 134.309 4.039 201.602 12.054l-5.602 28.192c-65.238-7.875-130.531-11.07-196.832-10.957-61.531.105-123.273 3.703-185.863 10.902Zm0 0" style="stroke:none;fill-rule:evenodd;fill:#a8191d;fill-opacity:1" data-source="https://football-logos.cc"></path><path d="m75.137 200.895 4.543 22.492a1684 1684 0 0 1 66.008-6.184l-1.418-23.043c-23.106 1.809-46.165 4.074-69.133 6.735M391.66 217.12c22.074 1.61 44.117 3.691 66.117 6.305l4.48-22.535a1750 1750 0 0 0-69.362-6.746ZM353.621 31.29l.313-2.888-6.504-.707-6.97 9.801-4.608-11.05-6.504-.704-.313 2.89 2.055.223-1.516 14.028-2.058-.223-.313 2.89 5.844.634 1.558-14.403 3.797 9.5 2.95.32 6.187-8.464-1.559 14.441 5.81.633.312-2.89-1.989-.216 1.52-14.027ZM319.777 24.887l-6.035-.41-6.238 16.636-1.965-.133-.195 2.903 5.558.375 2.004-6.137 5.305.36 1.09 6.343 5.664.387.195-2.902-1.926-.133Zm-3.367 2.566 1.336 8.137-3.957-.266ZM299.926 29.473l3.879.136.21-6.047-16.413-.578-.106 2.91 2 .07-.5 14.099-1.992-.07-.102 2.91 16.618.581.226-6.52-3.836-.136-.129 3.617-6.629-.234.203-5.766 7.2.254.101-2.933-7.195-.254.187-5.403 6.391.227ZM281.047 28.754l3.879.016.023-5.801-18.25-.078-.023 5.8 3.879.012.011-2.887 3.18.012-.055 14.11-2.07-.008-.012 2.91 8.188.031.012-2.906-1.997-.012.06-14.105 3.187.011ZM260.613 42.355c.422.32.926.45 1.45.434.527-.02 1.007-.172 1.406-.523.36-.32.562-.73.55-1.22-.015-.483-.265-.862-.648-1.151a2.18 2.18 0 0 0-1.418-.43c-.52.015-1.008.168-1.414.508-.375.308-.586.715-.57 1.203.015.496.254.886.644 1.18M239.305 39.977l.039 2.906 10.832-.153c.597-.007 1.195-.02 1.797-.054.507-.031 1.02-.145 1.507-.278a4.8 4.8 0 0 0 1.516-.683c.59-.39 1.04-.91 1.293-1.57.297-.774.348-1.704.332-2.524l-.133-9.648a18 18 0 0 0-.074-1.582c-.055-.496-.293-1.028-.52-1.465a3.64 3.64 0 0 0-1.328-1.414c-1.082-.653-2.78-.735-4.02-.723l-11.483.164.042 2.914 2.032-.031.199 14.11Zm5.953-14.2 4.437-.062c.516 0 1.84.023 2.176.43.348.41.414 1.574.434 2.117l.129 9.117c-.02.527-.07 1.617-.403 2.023-.328.399-1.57.422-2.066.422l-4.512.063ZM236.227 43.184c.363-.32.562-.73.55-1.215-.015-.489-.261-.867-.644-1.153a2.2 2.2 0 0 0-1.414-.433c-.528.015-1.016.168-1.422.508-.371.308-.586.714-.57 1.207.015.492.253.882.644 1.175.418.32.926.45 1.453.43.524-.012 1.004-.168 1.403-.52M224.36 29.633l3.945-.125-.184-5.719-8.723.281c-.449.008-.902.028-1.347.051-.371.027-.746.117-1.106.207-.437.117-.86.285-1.246.516-1.41.875-1.972 2.242-1.922 3.86l.078 2.394c.008.308.024.625.06.93.05.34.151.675.245 1.003.14.465.399.871.75 1.211.39.375.867.656 1.367.863.91.403 2.012.473 3.004.446l3.067-.098c.488-.004 1.691-.008 2.066.277.36.266.457 1.133.5 1.567l.05 1.683c.013.368.009.786-.093 1.141-.082.27-.266.441-.52.55a3.3 3.3 0 0 1-.847.255c-.465.058-.93.07-1.395.086l-3.988.125-.094-3-3.98.125.187 5.91 9.48-.3.013-.005c.601-.062 1.21-.125 1.812-.222.52-.086 1.04-.301 1.508-.536a4.2 4.2 0 0 0 1.441-1.164c.578-.808.703-1.879.672-2.847l-.082-2.442a19 19 0 0 0-.129-1.476c-.062-.438-.336-.918-.578-1.282-.363-.546-.875-.945-1.457-1.234-1.035-.5-2.473-.547-3.601-.512l-2.692.086c-.586.008-1.59-.008-2.101-.289-.465-.254-.528-1.008-.528-1.476l-.05-1.535c-.012-.36-.005-.766.097-1.114a.83.83 0 0 1 .422-.539c.203-.105.43-.195.66-.246.32-.062.664-.07.992-.086l4.157-.129ZM207.906 44.797c.422.32.93.45 1.453.433.524-.02 1.008-.171 1.407-.527.355-.316.562-.726.547-1.215-.016-.484-.262-.867-.649-1.148a2.17 2.17 0 0 0-1.41-.434c-.527.016-1.012.168-1.426.508-.367.309-.582.715-.566 1.203.02.496.254.887.644 1.18M194.879 26.23l-6.008.625-3.32 17.454-1.957.203.3 2.894 5.54-.578.93-6.383 5.292-.55 2.153 6.066 5.64-.582-.297-2.895-1.922.2Zm-2.875 3.106 2.7 7.785-3.942.41ZM312.121 190.84q-.461 0-.93.015c-.367.016-.73.067-1.093.118a5.5 5.5 0 0 0-1.23.289c-.376.144-.727.36-1.048.597a3.4 3.4 0 0 0-.918.98c-.238.376-.414.79-.464 1.235-.118.965-.118 1.965-.149 2.938v8.703c.035.902.035 1.86.184 2.75.074.433.218.844.43 1.222.269.454.613.852 1.042 1.157.45.32.977.504 1.508.605.485.09.977.18 1.461.207.54.028 1.078.028 1.613.028h3.97c.538 0 1.077 0 1.612-.028.45-.023.91-.129 1.344-.25.5-.136.98-.347 1.406-.652a3.45 3.45 0 0 0 1.149-1.281c.191-.371.406-.836.453-1.254a13 13 0 0 0 .055-1.348v-11.098c0-.878-.09-1.847-.438-2.668-.265-.64-.687-1.16-1.3-1.492a5.7 5.7 0 0 0-1.848-.625c-.801-.12-1.625-.148-2.434-.148Zm-1.402 17.57c-.39-.515-.403-1.898-.403-2.543v-9.058c0-.743.028-2.364.594-2.88.563-.515 2.125-.538 2.867-.538h1.582c.739.011 2.204.062 2.72.632.523.555.51 2.016.483 2.75v9.094c0 .692-.035 1.906-.44 2.48-.407.59-1.59.641-2.25.641h-2.833c-.61-.011-1.93-.054-2.32-.578M302.934 193.54v-2.61h-8.29v2.61h2.208v15.448h-2.207v2.61h8.289v-2.61h-2.168V193.54ZM286.941 196.902h3.84v-5.972h-9.32c-.488.015-.977.023-1.465.074a6.7 6.7 0 0 0-1.18.234c-.445.117-.867.301-1.246.563a3.7 3.7 0 0 0-1.293 1.472c-.222.461-.441 1.008-.488 1.516a20 20 0 0 0-.055 1.75v9.977c0 .988.106 2.261.649 3.113.273.422.613.793 1.027 1.082.406.285.863.48 1.348.594.426.097.86.187 1.297.234.465.05.937.059 1.398.059h9.55v-6.328H287.2v3.718h-4.601c-.614 0-1.477-.027-2.036-.273-.492-.219-.699-.676-.765-1.18v-.039c0-.207-.012-.406-.02-.61-.007-.202-.02-.406-.02-.605l.005-10.043c.027-.511.043-1.093.168-1.59.074-.3.28-.53.523-.71.477-.325 1.64-.38 2.223-.399h4.265ZM265.238 193.54v-2.61h-8.285v2.61h2.203v15.448h-2.203v2.61h15.711v-6.743h-3.625v4.133h-6.004V193.54ZM247.887 190.93H241.8l-5.438 18.058h-2.035v2.61h5.512l1.691-6.645h6.043l1.617 6.645h5.621v-2.61h-2Zm-3.203 1.73 2.304 9.746h-4.84ZM226.805 196.902h3.843v-5.972h-9.32c-.492.015-.98.023-1.469.074a7 7 0 0 0-1.18.234c-.44.117-.863.301-1.242.563a3.66 3.66 0 0 0-1.296 1.472c-.22.457-.442 1.008-.485 1.516-.05.582-.058 1.172-.058 1.75v9.977c0 .988.105 2.261.648 3.113a3.9 3.9 0 0 0 1.027 1.082c.407.285.864.48 1.348.594.43.097.86.183 1.293.234.469.05.941.059 1.41.059h9.543v-6.328h-3.804v3.718h-4.602c-.613 0-1.473-.027-2.035-.273-.492-.219-.7-.676-.766-1.18v-.039c0-.207-.012-.406-.02-.61-.003-.202-.019-.406-.019-.605v-10.043c.035-.511.043-1.093.168-1.59.078-.3.285-.53.531-.71.477-.325 1.633-.38 2.22-.399h4.265ZM120.098 177.191l-17.657 2.496c-2.433.344-4.453-.43-5.132-3.199l-3.426-14.008-1.102.149.399 14.48c.066 2.422-1.438 3.996-3.82 4.317l-16.712 2.238c-2.464.332-4.539-1.168-4.957-4.336l-1.945-14.762c-.234-1.793.41-4.007 3.512-4.468l.234-52.676c.016-4.242 2.047-4.695 3.953-5.137l21.801-5.062c3.496-.813 4.844 1.625 5.285 3.168l15.04 52.53 4.726-.425-3.742-35.148c-3.22.23-3.832-1.153-4.149-4.23l-1.554-15.24c-.25-2.437.953-4.44 3.468-4.91l21.852-4.038c2.863-.532 4.672 1.078 4.945 3.761l1.57 15.34c.31 3.059-.273 4.867-3.43 5.473l2.313 22.644 16.063-2.101c2.84-.371 4.363 1.308 4.594 3.719l2.757 29.324c.395 4.219-1.937 5.45-4.656 5.746Zm136.574-10.445-17.777 1c-2.868.125-5.106-.45-5.575-3.805l-2.324-16.543-1.184.051-.8 15.828c-.133 2.637-1.008 4.934-4.2 5.047l-16.914.606c-3.687.226-4.484-1.965-4.707-4.614l-.738-16.476c-.098-2.192.438-4.309 4.5-4.485l5.457-60.55c.278-3.094 1.63-4.774 4.153-4.903l22.906-1.16c3.465-.176 4.265 1.649 4.644 4.059l9.418 60.086 4.688-.11.484-39.406c-3.066-.031-3.762-2.2-3.734-3.918l.285-17.914c.035-2.57 1.41-4.14 3.941-4.055l17.192.594c1.96.07 3.242.836 3.976 2.942l9.157 26.199 9.32-24.914c.68-1.82 1.777-2.782 4.129-2.649l18.254 1.047c1.058.059 2.078 1.406 2.293 2.11.468-.918 1.98-1.57 3.125-1.454l19.136 1.97c1.551.16 2.875 1.612 3.461 3.722 1.04-1.543 2.735-2.68 4.403-2.473l18.55 2.309c1.297.164 2.637.941 3.493 2.918.98-1.352 2.488-1.899 3.957-1.61l28.34 5.543c5.414 1.059 10.238 3.532 12.863 8.59 2.398 4.61 2.293 10.113 1.855 15.156-.144 1.668-.289 3.344-.469 5.008-.16 1.469-.406 2.938-.671 4.39-.82 4.513-2.196 7.52-5 9.692a13.2 13.2 0 0 1 1.312 2.27c1.781 3.844 2.043 6.469 1.68 10.75l-.41 4.73 3.664.352 14.597-50.598c.825-2.851 3.133-3.262 5.32-2.742l21.9 5.203c2.269.535 3.815 1.871 3.831 4.746l.383 50.567c2.71.503 4.258 1.093 3.652 5.261l-1.812 12.48c-.332 2.302-1.672 4.884-5.25 4.462l-16.547-1.953c-2.613-.313-3.535-2.106-3.496-4.079l.265-13.808-1.195-.164-3.133 12.984c-.574 2.38-2.593 3.578-4.547 3.348l-20.132-2.38-10.961-1.05c-3.336-.316-6.852-1.187-8.782-4.187-1.652-2.57-1.496-3.895-2.078-7.637l-.566 5.566c-.356 3.47-2.469 4.63-3.977 4.485l-18.254-1.758c-2.914-.277-4.62-1.5-4.214-6.234l.867-10.032c-.43 3.336-1.293 6.672-3.317 9.406-3.261 4.415-8.351 5.7-13.613 5.465l-12.086-.543c-5.613-.254-10.719-2.238-13.738-7.203-1.645-2.703-2.371-5.785-2.649-8.933v9.343c0 3.305-1.8 4.836-4.226 4.813l-17.414-.156c-2.555-.024-4.352-1.094-4.344-4.239l.078-19.898-4.746 12.117c-1.508 3.848-6.656 3.336-7.918-.21l-4.277-12.884-.121 19.457c-.043 3.274-1.371 5.153-5.164 5.137Zm-65.195-48.207 1.687 25.824c2.621-.36 4.09 1.903 4.18 3.477l.976 17.023c.149 2.551-.437 4.907-3.664 5.2l-22.578 2.035c-1.258.113-4.02-.809-4.3-4.575l-1.215-16.402c-.262-2.25.804-4.41 3.683-4.535l-1.836-25.082-10.472 1.363c-4.864.63-5.774-1.73-5.989-5.668l-1.812-26.601c-.235-3.442 1.027-4.946 4.12-5.368l45.907-6.277c2.035-.277 4.856.75 5.078 4.168l1.844 28.156c.187 2.883-.824 5.664-4.274 6.04Zm0 0" style="stroke:none;fill-rule:evenodd;fill:#fff;fill-opacity:1"></path><path d="m258.848 79.234 18.132.594 12.368 36.137 13.082-34.598 17.824.88-.14 17.972-4.137-.031v46.007l3.562.035v17.543l-18.512-.164.153-40.586-12.34 31.875-12.016-33.195-.558 41.375-17.996-.164v-18.547l3.64.035.574-46.726-3.78-.035ZM325.355 100.547l.766-17.352 19.317 1.953-2.942 62.891 7.512.352 2.656-62.168 19.524 2.375-.774 17.496-3.684-.43-2.28 42.29c-.442 8.206-.298 18.937-13.536 18.343l-12.086-.543c-13.375-.602-13.238-11.84-12.863-19.899l2.074-44.875ZM376.738 106.86l1.48-17.137 29.044 5.68c11.96 2.34 12.484 10.84 11.718 19.761-.19 2.14-.34 3.781-.464 4.922q-.188 1.718-.63 4.129c-.874 4.797-2.03 7.597-8.116 9.61 2.503 1.128 3.808 2.628 4.714 4.585 1.114 2.406 1.754 4.14 1.344 8.863l-.726 8.415 3.64.351-1.691 16.25-11.016-1.05c-6.836-.653-7.105-3.333-6.633-8.794l1.934-22.41-7.938-.765-2.609 30.207-19.437-1.872 1.464-16.992 4.13.399 3.765-43.621Zm26.922 4.617-7.77-1.043-1.23 14.214 7.785.899ZM425.453 156.953l15.633-54.164 23.484 5.574.563 54.575 3.765.734-2.035 14.824-17.75-2.129.336-17.406-7.836-1.07-4.058 16.824-17.977-2.125 1.906-16.11Zm24.914-11.082-.336-21.75-5.57 21.055ZM210.383 146.95l5.879-65.302 24.086-1.445 10.398 64.594 3.707-.16.652 18.683-17.992.766-2.886-20.566-7.973.34-1.05 20.738-18.216.773-.777-18.242Zm22.597-17.805-4.46-28.41-1.676 28.671ZM153.828 89.02l47.637-6.473 2.023 30.937-10.918 1.18-.707-13.008-5.187.703 3.023 46.2 3.781-.473 1.196 18.223-23.098 2.086-1.156-17.649 3.64-.5-3.003-45.906-4.77.562.684 12.582-11.192 1.344ZM116.23 113.809l-1.742-17.082 22.903-4.215 1.714 17.226-3.917.688 4.503 44.062 5.723-.586-1.46-14.242 14.5-1.914 2.89 31.184-39.04 4.304-1.714-16.793 3.945-.406-4.387-42.918ZM73.586 163.254l-.34-56.66 23.203-5.39 16.442 55.835 3.761-.5 2.278 17.203-17.871 2.363-4.344-17.765-7.762 1.027.504 18.274-17.805 2.351-2.125-16.054Zm20.348-18.012-6.395-27.258.414 28.047ZM268.77 219.094c1.058-.461 3.082.695 5.964 2.414 1.532.906 5.125 1.8 7.575 1.773 3.336-.035 6.832-.554 9.336.871 3.683 2.094 3.789 10.051 5.375 11.407 2.125 1.812 3.894 3.058 6.425 4.015 3.254 1.23 7.567 3.43 8.047 7.414.414 3.461-.539 8.45-1.004 16.149.426 1.43 1.653 3.789 2.477 5.777.937 2.258 1.258 4.25 2.129 6.734 1.172 3.329 2.886 4.575 3.953 6.157.824 1.226.707 4.648 2.117 7.91 3.156 7.3 8.106 18.02 12.59 27.433 1.11 1.547 1.941 1.223 2.965 3.122.804 1.492 1.43 4.363 2.539 5.906.808 1.129 1.531 2.414 2.43 3.558 1.527 1.95 3.468 3.602 5.093 5.528 1.781 2.12 2.352 3.601 4.617 6.629h1.582c.81 1.879 2.766 4.687 4.286 6.273 2.03 2.125 3.175 2.32 3.437 2.844.75 1.476 1.707 2.898 2.39 4.613-4.808-3.14-8.948-7.613-12.921-11.418-2.61.617-4.633.012-7.426 1.067-2.308.875-4.863 2.851-7.71 5.8-.595.61-2.442.543-3.177 1.008-1.449.91-3.718 5.274-5.632 6.235-1.372.69-2.356-.286-3.575.39-2.144 1.2-3.347 5.137-4.836 6.266-1.32.996-2.285.703-3.586.105-1.152-.523-2.144-4.21-3.113-3.219-2.543 4.137-6.234 4.922-8.246 4.934-4.273.035-6.422-2.617-4.254-2.883 2.91-.355 4.692-.285 6.957-1.215 1.531-.925-1.922-2.601-1.453-3.605.227-.492 1.094-1.406.246-2.027-5.273-3.07-7.137-5.93-8.394-9.375-.543-1.489-1.07-3.793-.446-5.497.778-2.125 2.395-2.468 2-3.027.11-1.332-2.476-3.058-3.863-3.34-.785-.16-1.523.672-1.992 1.407-.469.726-.668 1.359-.383 1.933-1.066 1.61-1.527 3.086-3.031 4.63-1.5 1.546-4.043 3.66-3.543 5.022 1.004 2.727 6.215.391 8.27-2.464 1.671 1.672 2.296 5.738 1.527 10.738 1.293 1.676 2.308 3.293 2.433 5.215-2.965-.762-5.707-1.512-7.289-.215-.11 1.098 4.371 1.684 4.27 3.453-.067 1.156-.836 1.68-1.688 2.246-.851.567-1.644.844-2.043 1.656-.558 1.137.27 2.61.528 4.262.136.871.007 1.899-.332 2.73-.422 1.036-1.086 1.907-2.356 2.997-.95.816-1.023 1.242-.246 2.293 1.367 1.832 2.48 3.855 2.934 6.5.566 3.316.214 7.191.199 11.156-.02 5.098 3.144 9.016-.324 14.129.199 1.816 3.343 2.055 3.332 3.297-.016 1.234-3.188 2.199-2.993 4.148.153 1.5 1.344 2.988 1.583 4.477.214 1.324.43 2.648.64 3.972 1.504 4.938 5.098 9.485 5.934 12.309.402 1.363.394 3.598-.153 5.57.29.883.797 2.797.942 3.715.34 2.16-.028 5.078 1.008 6.938a2.344 2.344 0 0 0 2.808 1.043c.965-.329 1.606-.364 1.809-3.461.023-.352 1.394-1.067 1.738-.606.649.856 1.387 1.504 1.805 1.387.746-2.352 1-5.094 1.777-7.543.692-2.168 2.063-4.34 2.586-6.45.074-.288-.562-.581-.8-.402-1.54 1.137-1.962 5.22-2.778 6.149-1.25 1.422-3.328.14-2.457-1.711.625-1.332 1.16-2.442 1.504-3.606.762-2.558 1.062-4.828 3.09-6.113-.184-.562-.493-1.418-.192-2.008.278-.539 1.508-1.18 1.727-1.761.398-1.07-1.543-2.301-.828-4.239.53-1.437 2.289-3.047 2.52-4.816.53-4.043-2.376-7.309-1.716-8.457.653-1.14 1.215-1.399.97-2.89-.868-.47-1.575-1.024-2.446-1.497 1.004-.398 1.836-.379 2.597-.558.84-.2-.484-2.512-.503-5.024-.012-2.082.957-4.402 1.16-6.027.508-4.067 1.02-8.535.558-12.309-1.187 1.777-2.27 4.281-3.207 6.227-.324-2.832-.308-7.035.508-7.703.813-.653 1.902-1.383 3.633-1.973.082-1.356.844-2.172 1.73-2.895 1.293-1.062 2.856-1.757 2.977-.707.824 7.164.742 14.387.492 21.633-.293 8.207-1.664 16.45-1.969 24.668-.171 4.735.063 9.469-.156 14.188-.098 2.27-1.914 4.547-1.973 6.812-.02.711.247 1.442.23 2.16-.034 1.532-.347 3.067-.358 4.594-.008 1.2 1.199 2.363 2.859 2.969.574.21.277 1.234.273 1.851-2.285 1.153-1.32 3.36-2.332 6.036-.976 2.582-3.441 5.449-5.843 6.714-1.586.836-3.274.856-4.54.48-3.789-1.124-7.218-5.769-20.195-2.331-.828.3-1.52 1.465-2.344 1.762-.734.261-1.609-.332-2.34-.07-4.921 1.488-4.863 5.507-4.824 7.222.028 1.18.622 2.7 1.872 3.168 1.152.426 1.328-2.031 2.738-1.938 1.418.094 1.672 2.364 2.738 3.094 2.156-1.601 4.344-3.433 6.75-4.957.637 3.117.934 6.863 2.559 6.582.457-.078 1.425-.48 2-1.062 2.058-2.086 1.851-5.352 5.41-6.235 1.164 2.73-.809 3.45-.668 6.082.11 2.031 1.738 3.137 2.574 3.352 1.465.37 3.863-.106 4.762-1.395.789-1.129.293-2.968.836-4.156.23-.5 1.101-1 1.61-1.055 1.804-.191 2.519 1.036 3.038 2.23.309.72.367 1.43 1.063 1.821 1.441.805 2.726-1.008 5.093-.672-3.046 2.606-5.902 5.211-8.28 7.817-13.575 6.972-27.677 13.023-42.36 17.773-11.899-1.96-21.27-5.8-29.61-10.207 9.914-2.434 17.168-4.445 22.762-9.05 2.883-2.368 4.281-5.602 5.578-9.676 1.73-5.426 2.43-10.895 5.352-11.856.566.582 1.25.938 2.027 1.008 2.75.246 4.25-2.738 6.738-4.203 2.536-1.492 5.618-.492 7.899-1.282 2.226-.77 2.387-3.39 2.379-5.37-.02-3.708-.68-10.43-2.11-15.673-.91-3.316-3.132-4.332-3.718-7.003.648-.465 1.066-.754 1.285-1.364.64-1.836-.535-4.265-2.649-4.675-3.195-.625-8.058.765-10.347-.36-5.848-2.883-9.696-8.426-12.176-9.37-.832-.317-1.633-.126-2.395-.286-1.27-.266-2.449-.758-3.53-.613-1.196.156-1.563.418-2.528 1.039-1.094.699-.746 2.078-1.555 3.265-1.332 1.977-4.629 3.89-4.863 7.996-.434.922-1.617 1.176-2.328 2.082-.684.875-1.063 1.723-1.746 2.426-.875.906-2.063 1.567-3.036 1.727-7.378 1.21-15.828 1.82-22.425 2.625-3.793.457-7.7.445-10.621 1.996-1.996 1.062-3.313 3.023-4.715 5.3-2.992 4.844-5.328 11.333-4.563 20.567.078.953-1.27 2.84-1.68 1.98-2.18-4.593-3.109-9.066-3.538-12.699-.297-2.492.308-3.41.066-5.629-.492-4.527-1.133-7.515-.152-11.035.14-.504.21-2.41.394-2.894 1.527-3.883 4.867-5.809 6.918-8.032 2.207-2.394 3.969-5.91 4.934-8.984.539-1.71.539-2.918 1.523-4.207 1.7-2.215 3.059-2.566 5.02-2.797 1.523-.18 3.418-.222 6.12-2.453a6.23 6.23 0 0 0 2.126-3.43c.191-.836 1.535-1.117 1.875-2.332.578-2.035.527-5.03.078-5.988-4.762.64-4.68-2.2-6.13-5.91-1.608-4.113-5.034-8.649-7.42-8.387-1.481.164-2.563 1.293-4.462 3.95-2.84-2.344-3.086-6.965-2.844-12.29.09-2.062-.629-4.824-.597-6.89.05-3.239.925-3.977.746-5.614-.305-2.789-.93-4.656-1.344-7.246-.617-3.91-.937-7.199-.418-8.656.676-1.883 1.824-1.64 2.113.035.176 1.016-.238 2.328.078 3.633.618 2.516 2.364 5.016 3.204 5.344.398.156 1.363-.899 2.308-1.836.809-.8 2.13-1.508 3-.887.942.668.98 2.192-.035 3.57-.867 1.18-1.922 2.45-1.406 3.516 2.004-2.305 4.289-3.918 6.73-3.95-.324-2.273-.773-3.026-.133-3.37 1.094-.59 3.235 3.05 3.657 4.054.601 1.434 1.117 3 .61 4.176-1.263 2.953-4.395 4.035-4.642 5.383-.082.453.266.938.918 1.527.91.825.25 1.438-.722 2.16-.754.56-1.617 1.352-1.856 1.27-1.132-.41-2.906-2.797-.449-8.129.625-1.351-.043-2.887-1.594-1.847-1.547 1.039-3.207 5.671-1.765 9.793 1.652 4.742 5.16 1.78 6.601 5.917 1.383-.699 2.766-1.394 4.149-2.093-1.364-4.426 1.086-6.934 7.64-12.782 1.649-1.472-1.578-2.882-2.312-5.726 1.976-1.184 2.98-2.274 3.066-3.043.34-3.02-2.246-3.75-1.992-7.8.219-3.524 3.102-5.141 2.941-8.587-.171-3.648-2.949-5.203-5.878-5.078.949.91 1.835 1.574 2.039 2.645-4.47.097-7.196.879-8.618 2.007-1.828 1.454-1.468 3.344-1.171 4.239.457 1.37 2.824 3.472 6.87.527.337 1.996-.374 5.902-2.277 7.008-2.418 1.406-4.539-.727-6.882-1.235-1.235-.265-2.274.239-2.805.325-1.211.187-2.043-.047-2.32-.903.667-.648 1.046-1.222 1.066-2.187.05-2.633-1.926-4.473-.8-7.895.831-2.507 1.944-3.156 4.597-2.754 1.82-2.527 3.637-4.132 5.308-5.828-1.406-2.273-2.879-4.093-2.832-6.754.032-1.832 1.786-4.605 5.625-5.543l6-5.261c-1.386.343-2.836-.188-3.168-1.203-.629-1.942 1.43-4.625-.453-7.739-.808-1.336-2.168-2.543-4.87-2.832-.497 1.524.03 3.418-.665 4.778-.617 1.195-2.215 1.718-5.851 1.03l3.851-6.425c.234-.387-1.644-.707-1.52-1.11.41-1.35 1.395-1.105 1.536-3.167-.317-1.567-2.88-3.055-2.89-4.582 0-.09.839-1.301 1.624-3.39.406-1.063.691-2.376 1.371-3.024.875-.836 1.934-.676 2.61.336.664.996.761 2.761.183 4.187-.668 1.664-1.652 2.625-3.164 3.606 3.227 1.675 4.992 1.613 6.133.851 2.457-1.648 2.367-4.305 2.633-6.96.207-2.067.008-3.888 1.043-4.395.812-.399 3.3 1.71 4.054 3.117.618-.477 1-1.223.98-2.149-.023-.964-.944-2.117-1.39-3.386-.746-2.14.805-2.293.156-3.692-1.078-2.324-4.328-5.035-5.007-6.773.02-3.555-.352-13.871 2.297-19.07 1.117-2.192 2.949-3.954 5.527-5.032.2.985-.188 1.965-.238 2.953 1.07-.363 2.39-1.304 4.046-1.086-4.796 7.614-5.636 11.954-6.863 18.125-.254 1.282 2.399 3.2 2.528 4.48.035 2.5.101 4.911 1.742 5.419-.688-1.438-1.121-3.707-.645-4.39.797-1.141 2.77-.786 3.57-1.93.125-.426.25-.856.372-1.282 3.406-.386 3.582 2.094 4.925 2.243.703.078 1.164-1.122 1.149-1.899-.055-2.394-3.844-2.008-6.13-2.723q9.047-.399 18.095-.804c.03.746.058 1.484.09 2.23-1.567 2.66-3.989 3.36-5.622 5.485-1.27 1.652-1.265 3.27-2.574 4.492-2.484 2.316-4.637-.39-7.558 5.101-2.18-.586-3.239-3.68-4.5-5.52-.344 3.481.453 8.04-.157 11.376-1.02 5.562-5.922 10.59-5.238 15.332l-.066 1.281c1.082.305 2.308.031 3.39.043 2.414 2.3 2.914 4.516 5.516 8.008 1.512 2.027 3.527 4.168 5.07 5.363 4.403 3.414 9.297 2.754 11.23 2.402 2.079-.375 4.876-1.94 4.184-5.351-.207-1.024-1.691-3.145-3.16-6.024 1.488.403 3.05.75 4.531.782.93-.832 1.829-1.281 3.157-.996 2.214.476 4.949 2.226 7.597-.352 1.426-1.39 3.078-3.148 4.457-5.262 1.774-2.71 2.953-6.062 2.094-9.37-2.348.6-4.406 1.35-6.754 1.952 4.438 3.473 3.38 8.012 1.918 9.664-.988 1.13-3.64 1.676-5.98 1.036-3.774-1.04-5.856-3.989-10.48-5.477-1.696-.543-3.759-.96-5.872-.719-4.035.453-8.43 2.016-10.504-1.582-.472.59-1.129 2.07-2.078 2.703-2.5-4.761-.715-7.164 1.074-8.37.883-.598 1.992-.38 3.063-.4 1.37-.026 1.183-.925 3.39-1.148l-.996-2.132c3.118-.176 5.47-1.422 7.563-2.938 2.37-1.707 4.32-3.762 5.183-4.973-.082-1.117-.91-.968-1.593-1.82-.407-.512-.512-.805-.684-1.344-.254-.804.14-1.593.7-2.09 1.007-.906 1.609-.113 2.07 1.055.46 1.172.785 2.715 1.246 3.317.316.414 1.316-.344 1.347-.426.352-1.016-1.863-1.856-1.625-3.98.192-1.7 1.602-2.583 3.274-3.04 3.523-.957 5.691 1.594 8.887 5.47 1.468.32 2.351.726 2.601 1.198.414.801-.086 3.594-1.953 4.649-.649.367-1.664.41-2.11-.375-.347-.614-.347-1.73.43-3.59.528-1.258-.23-.383-2.086.18-2.437.73-3.004.597-3.906.953-3.777 1.492-8.043 7.683-8.723 8.289 3.782-.696 6.29-4.172 9.274-3.942 1.394.11 2.113.918 3.512 1.493 1.226.507 3.12.843 4.668.363 3.351-1.035 3.492-5.774 4.527-8.969.473-1.445 1.754-2.586 2.2-2.894 1.573-1.098 3.534-2.293 5.007-3.61 3.375-3.023 4.144-6.601 6.234-7.789.395-.223.86 2.324 1.239 2.078.738-2.765-1.137-2.64-.942-7.183 1.004-.633 1.149-1.457.977-2.25-.367-1.688-2.227-3.407-2.524-5.043-.183-1.004.063-1.563-.125-2.52-.5-.394-2.035.66-2.804 1.832-1.465 2.238-.86 2.793.347 3.387.723.36 1.856 1.11 2.34 1.09.203 3.16-.098 6.011-.687 7.875-.305.96-1.817 1.5-3.13 1.004-1.488-.563-1.534-2.145-3.773-2.88-.777-.257-1.094.509-1.879 1.196.184.606.575 1.05 1.063 1.399.816.574 1.902.886 2.77 1.226 1.195.484 1.218 2.27.73 3.375-1.016 2.266-4.461 3.703-6.938 1.332-.93-.883-1.699-2.082-3.058-3.68-.274.215-.54 1.875-.574 2.555-.149 2.965 1.46 8.074-.61 7.817-1.195-.149-3.976-2.907-6.37-5.891.05-.184.093-.363.136-.55 1.332.905 2.762 1.206 3.687 1.202.176-1.515-.808-3.578-.367-5.535.617-2.738 1.86-2.215 2.207-4.144.395-2.211-.601-3.551-.015-6.04.585-2.492 2.367-4.343 2.773-7.94.43-3.806-.344-4.821-1.133-7.68-2.687-1.008-2.973-3.938-2.172-5.106.414-.606 1.508-.758 2.434-.484.715.207 1.476.945 2.484.625 1.93-.618 4.914-1.676 6-3.09.84-1.102-1-3.125.082-3.735 1.489-.836 4.352-.23 5.422-.11 1.117.126 2.184.927 1.852 2.716-.059.32 1.394.16 1.394-.168-.012-3.113-2.691-5.297-5.152-5.406-3.05-.137-5.305.582-8.11 1.789-1.847.793-3.242 1.48-5.945 1.16Zm96.14 186.797c-.277-.332-.562-.711-.754-1.286-.426-1.304-.234-2.433.035-3.503.18-.72.18-1.442-.128-1.864-.586-.804-1.907-.883-2.524-.39-6.887 5.586-15.008 13.105-15.398 17.84 2.629.273 6.046-1.157 8.675-2.88 1.348-.894 3.305-2.43 4.536-3.964 1.226-1.531.578-2.989 3.101-3.961.793.207 1.586.379 2.375.668 1.195.433.746.129.082-.66m-31.836 23.242c2.059.25 4.77 1.02 6.59 1.168 2.61.21 2.664-1.086 3.375-1.149.883-.082 1.77.887 2.649.836 1.304-.086 2.035-.976 3.328-.972.726 0 1.421.468 2.27.675 1.085.262 2.335.293 3.245.336 1.73.082 3.149-.117 4.797.106 1.703.234 3.598 3.988.535 5.465-1.668.804-2.96-.235-5.117-.582-1.785-.29-4.875.156-6.41.078-.145-.383.11-1.082-.125-1.309-1.258-1.21-1.465-1.539-2.559-1.715-.96-.156-2.062.14-2.898 1.332-4.258-.937-7.992-2.867-9.68-4.27m-52.23-38.36c-.93 2.137-.664 2.848-.477 3.883.254 1.41-3.226 2.688-3.707 4.442-.8 2.922 1.027 7.355-1.508 8.597-3.648 1.79-5.906-2.554-9.289-3.328-2.316-.531-4.277 1.598-6.652 2.41-.191-2.629.66-3.168 1.066-5.246.176-.91.547-1.804.793-2.582.196-.601.203-.996.72-1.41.98-.797 2.397-1.77 3.956-2.086 1.57-.32 3.29.012 4.871-.473 1.145-.351 1.688-2.503 2.75-2.968 2.461-1.082 4.32.312 6.77-1.559.582-.445 1.277-1 .707.32m-19.07 23.098c3.613-.387 4.398 1 6.015.55.863-.241 1.125-1.71.516-2.362-1.278-1.36-4.14-2.856-5.59-2.528-1.406.32-2.219 2.7-.942 4.34m-31.419-4.48c1.278-.75 2.47-1.645 3.47-2.758.773-.856 1.003-2.059 1.796-2.79.473-.433.996-.382 1.61-.64.867-.363.699-2.43 2.808-2.937 1.57-.38 3.512-.711 5.285-.688.797.012 1.735.04 2.625.36.692.253 1.215.656 1.781.785.594.136.793-.395 1.262-.586.531-.223 1.352-.075 2.41-.266.72 2.168 3.309 2.89 3.301 5.426-.004 1.672-.988 2.074-1.656 2.824-.356.399-.457 1.902-1.246 2.86-.52.628-1.09 1.222-1.578 1.89-2.817 3.832-7.875 7.899-11.301 11.832-1.926 2.203-2.344 5.375-4.996 6.805-1.95 1.043-4.23-2.828-5.98-2.727-2.348.133-3.958 3.653-6.141 4.29-1.79.523-3.688-1.825-5.684-2.016-2.055-.203-4.137 1.437-6.234 2.16-.875-2.66-.867-5.078-.047-6.719 1.988-3.965 8.707-4.508 14.433-5.762 4.598-1.004 8.707-3.168 9.079-5.332.164-.949-.997-2.507-2.688-3.347-.953-.477-1.918-.618-2.562-.883-1.43-.586-.48-1.352.253-1.781m39.286-56.758c-1.602-7.985.355-7.684-.157-12.469-.207-1.91-1.62-3.324-2.011-4.394-.496-1.348 3-3.247 4.148-2.524 1.442.906 1.996 2.219 3.266 3.59 1.25 1.351 2.832 1.644 3.816-.227-.656-1.05-1.058-1.636-1.156-2.73-.078-.883.637-1.535.93-2.402.644-1.907 1.593-3.883 3.351-3.524 2.453.5 4.434 3.668 4.586 6.313.207 3.785-1.336 5.03-2.633 7.62-.683 1.356-.953 2.86-1.578 4.317-.73 1.692-2.055 2.426-3.73 2.875-1.91.508-2.84-.09-4.551 1.887-.977 1.129-2.293 2.12-4.281 1.668m7.418 25.023c.105.653.164 1.371.14 2.07-.015.544-.515 1.504-.644 1.977-.344 1.23-.516 1.926-1.227 3.117-.883 1.477-2.848 2.774-4.375 4.13-.793.706-1.375 1.573-1.832 2.347-1.336-1.332-3.144-2.895-4.144-3.89-.23-2.794.597-2.993.945-4.805.348-1.813.367-3.649-.024-4.98-.804-2.735-4.617-4.278-3.382-7.294 1.015-2.484 5.289-3.25 8.113-2.11 2.32.938 2.586 2.36 2.781 4.196.399 3.832-.539 4.098-.164 12.906.488-.156 1.477-.843 1.871-1.703.504-1.11.504-2.273.781-4.418.082-.648.82-.879 1.16-1.543m-2.938-15.39c-.21.285-.418.578-.473.87-.144.755.098 1.731.16 2.188 1.06.38 1.797-.344 1.77-1.105-.039-1.14-.875-1.399-1.457-1.953m-22.285 30.054a7.2 7.2 0 0 0 .09 2.395c.172.824 1.035 1.765 1.297 2.558-1.332-.289-3.61-1.32-3.813-2.558-.207-1.23 1.426-2.063 2.426-2.395m-18.938-17.574c.997-.035 1.696-.308 1.97-.207.812 1.016-.313 4.14-6.49 6.484.255 1.364 1.59 2.454 2.43 4.735.762.281 3.446-.387 4.102.457 1.77 2.265 2.399 2.855 4.586 2.664 2.29-.2 5.574-3.899 5.168-2.332-.605 2.332-1.168 3.914-.277 4.242 2.902-1.574 5.855-2.254 7.875-1.836.062-2.937 2.36-4.676 4.832-5.094 1.316-1.632 3.027-2.156 4.191-3.23.64-1.402-2.348-4.106-4.379-6.695-1.535-1.95-2.133-3.836-1.765-5.047.355-1.192 2.074-2.16 4.27-3.086 1.273-.535 2.66-1.25 3.929-1.488 2.082-.387 3.754.484 4.433-.391 1.23-1.586.399-3.735 1.305-5.05.703-1.024 2.66-.673 3.207-1.876-1.832-.816-2.808-2.058-3.308-3.543-3.036 1.473-6.622 4.133-8.473 3.563-.77-.239-1.43-.852-1.856-1.532-1.277-2.035-1.34-5.347-2.515-7.808-1.45.863-2.324 1.914-2.36 3.125-.078 2.625 1.7 2.937 1.84 4.578.09 1.144-1.164 1.52-2.218 1.027-1.762-.828-2.82-5.484-1.008-8.375 1.242-1.976 2.41-2.777 5.898-4.215.684-.285 1.406-1.722.52-3.265-1.274-2.211.64-1.586 1.16-.996.863.984 1.707 3.144 2.32 4.941.918-1.262 1.285-2.851 1.176-4.59-.188-2.894-2.274-6.035-4.113-9.086-1.684 1.063-2.274 2.293-3.371 3.77-1.825-2.3-2.817-4.848-3.973-7.145-1.05.309-1.738.7-2.566 2.008l-4.012-6.082c-2.29 1.067-3.164 2.582-3.028 4.356.235 3.043 3.098 5.976 5.036 9.492.945 1.719 1.671 4.234 1.761 5.695.149 2.414-1.386 4.688-1.812 6.875-.227 1.156.488 2.582.656 3.75.145 1.035-.473 1.809-.418 2.941.137 2.497 4.356 2.118 4.79 4.598.3 1.735-3.79 6.613-3.419 8.078.88 3.504 3.504 3.977 5.086 6.696 2.29 3.91-.34 6.453-2.469 6.746-1.207.168-5.113.523-8.714-2.86-.946-.886-.817-2.207-.711-3.675.132-1.883-.98-4.024-1.086-5.872-.067-1.105 1.23-2.113.547-2.89-1.32-.38-1.184 2.808-2.176 4.82-.715 1.45-2.348.984-2.535-.46-.27-2.083-.786-5.837-.145-7.122 1.066-2.117 3.637-3.473 5.09-5.043.992-1.066 1.32-2.91 1.32-4.418 0-.683-.855-1.851-1.86-1.922-1.468-.097-3.245.992-3.128-.101.129-1.211.293-3.528 1.094-4.88 2.047-3.456 5.84-3.437 5.828-9.23-.012-3.754-4.852-5.164-6.488-8.96-1-2.31.199-3.356-2.493-6.844-.906-.172-2.738-.426-3.62.351-1.59 1.395-.946 3.832-1.427 5.13-.289.784-1.27 1.1-1.617.913-1.125-.601-2.976-4.207-.18-11.2-2.007 2.044-5.163 3.138-7.171 3.18 2.12 1.106 2.183 4.215 1.625 7.106 1.168-.55 1.754-.547 2.61.098 1.108.828 2.741 2.433 4.187 4.652 3.02 4.649 7.125 5.2 7.394 7.988.121 1.211.012 2.735-.914 3.938-1.043 1.367-3.004 2.332-4.625 1.992.617-1.61 2.707-3.719 2.426-5.422-.168-1.008-1.414-1.148-2.094-.379-1 1.14-2.016 4.168-1.242 8.254.691 3.64 2.867 6.238 3.234 11.227.301 4.258-3.785 5.957-4.61 9.058-.663 2.489-.144 4.813 2.77 4.72m-24.683-57.332c1.058 2.14.844 5.578-1.649 6.707.344-1.3.782-3.3.41-4.68-.167-.613-.312-.312-.406-.863-.21-.3 1.02-1.484 1.645-1.164m3.605 23.664c-.39.926-.312 1.793.082 2.652.395.856 1.028 1.207 2 2.598.75-1.973.051-3.723-2.082-5.25m6.383 40.387c.145 1.004.637 2.05 1.285 2.738 1.075 1.137 2.575 1.375 2.086-.086-.398-1.203-1.637-2.125-3.37-2.652m95.508-56.016c-.656 2.121-1.363 3.797-2.172 5.137-.703 1.18-1.488 2.062-2.383 3.203-.832 3.895 2.406 5.875 6.34 4.887 1.543-.387 2.953-1.395 3.957-3.164.414 1.652.813 3.425.777 4.5-.066 2.11-2.378 1.398-2.18 2.605 1.114.2 1.56.742 2.337 1.692.62.488-.735 1.605-1.953 3.23-.637.856-1.243 2.16-1.504 2.906-1.559 4.465-.07 7.82-4.559 9.618.484-1.149.79-2.422.832-3.915.05-1.695-1.133-3.468-1.137-6.16-1.293.356-1.878 4.07-3.324 5.649-.703.761-1.453 1.226-2.21 1.336.835-1.04 1.198-1.703 1.14-2.278-.121-1.207-3.508-.742-4.145-1.058-1-1.282-1.62-2.563-1.289-3.84 1.973-4.336.813-6.813-2.047-5.649v-4.32c2.387-1.824 2.122-5.426 2.836-8.586.203-.883.746-1.734 1.121-2.5.88 1.313 1.118 2.906 1.551 4.445 2-1.39 1.13-3.19 2.797-4.89 1.3-1.32 2.875-1.707 5.215-2.848m-35.387-74.594c1.215-.468 3.137.043 4.238-.382.852-.332 1.368-1.543 1.985-2.407-1.559.25-3.059-.21-3.957.215-1.176.559-1.942 1.43-2.266 2.574m6.817 50.266c1.12 1.692 4.25 2.488 6.117 3.86 1.644 1.214 3.023 2.765 3.676 4.816.183.57-.95 1.492-1.75.7-1.11-1.09-2.106-2.876-3.223-3.958-1.867-1.816-3.895-3.066-5.176-4.875-.187-.258.176-.809.356-.543m12.793 13.625c.668.512 1.68 1.082 2.48 1.555 1.172.683 2.348 1.597 2.39 2.676.024.68-.683 2.3-1.503 3.968-.567 1.14-1.113 2.301-1.824 3.196-1.891 2.379-5.196-.313-3.399-2.75.574-.782 1.235-1.762 1.621-2.887.567-1.652.43-3.621.235-5.758m-4.403 11.442c-.969-.418-3.265-2.11-4.27-.961-.64.726.481 2.238 1.653 2.562.934.27 1.59-.77 2.617-1.601m46.953 11.328c-1.57.425-4.156 1-5.879 1.546-1.34.426-2.609.801-3.988 1.579 1.809.582 3.793.425 5.461 0 1.473-.38 3.61-1.325 4.649-2.27.437-.39.242-.988-.243-.855m-32.949 29.332c-1.562.144-3 1.683-2.336 3.648.715 2.125 5.172 3.277 6.422 1.668.426-.543.02-1.43-.613-2.027-.637-.598-1.5-.903-2.004-1.434-.883-.933-.524-1.672-1.469-1.855m-10.996 4.578c-.113 1.726-.223 4.176 1.332 5.008 2.313-.961 1.746-4.43.484-5.293-.457-.313-1.777-.27-1.816.285m67.664-16.235c2.895 1.895 6.223 3.93 9.117 5.825l1.711.289c2.813 1.789 6.653 4.14 9.809 5.754 3.465 1.77 6.98 3.097 10.172 5.02 3.675 2.21 7.355 4.87 10.98 7.144 4.11 2.574 8.153 4.492 12.059 7.23.722.516.785 1.434.43 2.246-4.512 10.38-12.567 23.934-19.028 30.38l-.3 1.433-1.391.191-.184 1.485-1.394.113c-4.422 4.523-8.907 9.164-13.829 12.933-2.035-2.968-4.425-4.007-6.074-2.796-.808.593-.578 1.308 1.203 3.343-.613.832-.55.656-.722 1.34-.172.688.082 1.508.14 2.176-5.375 5.984-13.23 11.973-21.77 15.566-2.335-1.672-4.968-3.629-7.304-5.3-.379-1.403 2.274-.407 3.79-.61 2.21-.297 4.495-.715 4.745-.375.77 1.035 2.035 1.207 2.73.906.552-.238 1.446-.91 1.528-1.578.14-1.129-1.676-2.668-1.95-3.926-.21-.976 1.017-1.789 1.524-2.101-.222-1.113.078-2.02-.957-2.48-.937-.415-1.629.593-1.91 1.43-1.25-.642-1.672-2.196-1.812-3.056-1.895 1.446-3.356 3.188-5.25 5.637-2.977-2.004-.383-4.523-2.102-4.875-1.71-.344-4.918-.969-5.773 1.227-.66 1.699-.446 5.277.683 8.547.465 1.343 3.196 2.105 2.5 2.93-.32.378-2.37 2.019-1.562 3.066.457.593 1.535 1.02 2.004 1.683.324.457-.114 1.078.168 1.5.48.73 1.117.39 1.554.88.442.487.54 1.737.34 2.296-3.36 9.566-12.082 16.25-27.015 20.16-.868-1.789-.86-2.937-1.11-4.582-.117-.762-.918-1.453-.86-2.523 2.497-2.989 4.286-5.696 5.024-9.43 1.363-6.863.332-15.215.75-23.512.473-9.382.453-19.46.606-29.293.101-6.41.086-13.511 1.183-18.656.332-1.55.84-2.363 1.965-3.27 1.621-1.312 4.317-1.312 5.543-2.245 1.399-1.067 1.242-3.567 1.016-5.676 2.644.84 5.183 6.68 5.351 9.234.121 1.781-4.828 4.074-7.226 7.145-2.809 3.593-3.621 10.074.515 12.453 3.668 2.11 8.32-3.961 12.438-7.828-1.113-.782-3.664-1.418-4.778-2.196.032-.449.204-1.28 1.34-1.004 2.801.688 5.739 1.72 7.477.606 1.234-.79 2.137-2.41 3.195-4.02 1.2-1.828 2.328-3.53 3.274-4.757 2.367-3.09-3.586-4.497-2.332-7.762.554-1.445 3.957.808 5.992.172.422-.13 1.398-1.16 2.793-1.75 1.789-.766 2.597.761 1.605 2.054-1.18 1.543-4.152 2.73-4.133 4.344 2.75.5 3.997 1.156 5.43 2.246.473.297 2.36.145 4.059.367 1.16.153 2.234.555 2.715 1.106.668.762 1.027 3.71-2.907 3.265.575 1.958 2.172 2.426 3.461 2.153 1.285-.277 2.414-1.012 4.63-.317 1.218.383 2.292 2.41 3.558 2.622.972.16 2.097-1.45 3.043-1.305 1.21.183 3.906.82 4.832-.25-1.282-.055-3.559-.563-4.922-.902-1.36-.336-1.555-.782-2.91-1.012-1.485-.246-4.368.144-5.434-.332-2.488-1.114-1.293-3.473.809-3.828 1.625-.278 3.539.847 5.398 1.23 1.649.332 3.328-.066 3.688-.152 1.562-.371 3.21-1.14 4.855-1.68 4.215-1.387 7.617-2.074 11.395-4.46-2.356-3.493-8.883-7.274-15.352-11.575a99 99 0 0 1-8.387-6.234c-8.062-6.73-12.918-11.247-14.449-14.079m-118.765-44.62c-1.07.488-2.473 1.128-1.004 3.23 1.027 1.472 2.504 2.832 3.296 1.715.606-.852-1.957-3.227-2.292-4.946m-5.2-2.032c-.496.356-.472-1.176-1.023-2.476-.625-1.485-.457-2.907.613-2.985 2.164-.148 4.402.145 7.121-.09 5.98-.515 9.172-1.718 14.13 2.426 1.108.922-.977 1.445-4.337 1.203-2.61-.187-5.996-.976-9.246-.715-2.473.2-5.285 1.246-7.258 2.637m23.063-52.531c-1.09-2.235-2.836-3.969-8.84-5.703.305-.23.762-1.801.101-2.04-.66-.238-2.109-.562-2.886.274-.899.965-1.059 2.649-1.57 4.656-1.243.594-2.282 1.047-2.86 1.707.324 1.344 1.43 1.446 2.59 1.051 1.316-.45 2.75-1.789 3.941-1.629 1.172.149 2.797.754 3.844 2.66-1.582.805-2.394 1.032-4.648 1.172-.004 1.543 1.316 1.895 2.953 1.797 1.441-.082 4.52-1.433 5.152-.797.836 1.223.719 2.45 2.223 3.672 1.804-.414 3.808-1.418 5.84-2.504.125-.996-.47-1.554-1.356-1.832-.62-.195-.344-.863-.113-.976 4.84-2.313 5.305-5.637 3.762-7.543-.598-.735-1.235.87-1.864 1.578-1.382 1.558-2.91 2.828-4.293 4.387q-.392-.614-.785-1.235-.599.656-1.191 1.305m-4.512-27.23c1.524-1.505 3.852-3.977 6.934-3.84 1.8.078 4.464 3.55 3.922 4.921-.618 1.543-2.61.86-3.84.668-1.106-.168-2.957.426-4.844-.082-.883-.242-2.816-1.03-2.172-1.668m-25.875-8.098c2.953-.766 5.297-.278 7.723.93 2.75 1.37 5.511 3.675 7.64 6.167 2.313 2.703-5.351 7.98-5.925 7.758-.7-.265-1.012-.613-.844-1.23.437-1.586 2.129-5.352.453-7.977-.875-1.367-2.969-3.898-6.64-3.73-.782.035-4.212-1.453-2.407-1.918m-6.34 18.36 8.348.081c1.07.016 1.258-1.129 1.48-2.48.485-2.977.536-7.856-2.816-7.95-4.027-.113-7.152 10.348-7.012 10.348m-16.254 20.636c-1.09 1.445-.965 2.793-1.465 4.234-.386 1.121-1.07 2.098-1.058 3.086.008.762.398 1.707 1.523 1.512.383 2.601.739 5.633-.023 8.73-.274 1.106-1.469 1.09-2.5 1.61-.805.398-1.371 1.304-1.473 2.21-.129 1.165-.285 2.352-.39 3.551-.215 2.383-.868 4.797-1.055 7.09-.383 4.664 1.207 6.625 1.918 8.031.808 1.594.387 1.711.176 3.47-.157 1.32 2.683 1.21 3.816-1.68.281-.707-1.344-2.247-2.562-5.067-1.868-4.324-1.07-8.644-.735-9.7 1.719-5.366 5.836-6.89 8.2-8.362 1.636-1.028 1.593-2.145 1.5-2.887-.06-.45-2.57-6.582-3.512-9.59-.426-1.367-.524-2.031.64-3.238.38-.395-.03-1.512-.664-2.235-.812-.921-1.914-1.324-2.336-.765m-5.543 72.762c2.356-5.403 6.04-1.708 8.078-3.461 1.223-1.055.293-4 .993-5.2.52-.89 1.832-1.55 1.566-2.632-.336-1.348-5.844-3.989-8.89-5.36-2.598-1.176-4.669.86-3.602 3.227.672 1.484 1.316 2.953 1.437 3.824.317 2.258-1.562 4.34-1.406 6.523.07.996.336 2.012 1.824 3.079m0 0" style="stroke:none;fill-rule:evenodd;fill:#a8191d;fill-opacity:1"></path><path d="M224.363 442.371c-4.191-.117-8.457 1.016-11.316 3.36-6.64 5.433-9.613 16.148-8.453 23.937 2.945 19.852 18.39 25.043 32.164 25.187 5.781.06 12.476-1.964 17.57-5.82 6.145-4.652 10.457-9.773 11.977-18.55 1.957-11.305-3.942-22.727-13.688-29.38-.726-.496-2.554-.699-4.281-.64-2.215.074-3.414.937-2.848 1.906 2.317 3.957 5.36 1.762 8.66 3.277 2.114.973 3.723 3.368 4.973 5.422 1.762 2.875-2.316 5.692-1.715 8.739.774 3.914 6.227 6.66 4.356 12.671-.86 2.762-3.961 7.122-5.907 9.184-.664-1.055-.902-2.11-1.57-3.168-3.836-.75-6.726-.957-9.73-1.289-1.594 3.664-4.457 5.324-7.696 7.75-1.222.914.551 3.164 1.332 4.39-6.43.305-11.312-.64-15.12-3.34q1.67-.501 3.34-1c-.56-4.452-.165-13.093-2.821-13.929-4.762-1.5-8.031-1.754-13.371-2.812-1.102-2.125-.278-9.239 1.062-10.797 4.024-4.688 12.418-5.14 13.793-8.305.903-2.074.793-4.625-.71-6.793m4.477 10.817c.398 2.64.613 6.69 1.047 10.16.125.996-.106 1.644.68 2.125 2.902 1.785 6.714 2.64 10.507 2.75.61.02 1.297-.059 1.93-.395 1.96-1.055 6.402-5.539 7.785-7.351.895-1.168 1.137-2.489.106-3.247-4.43-3.285-6.083-5.828-8.715-8.43-.871-.863-2.13-1.476-3.75-.87-5.328 2.004-5 2.101-8.64 3.46-.802.301-1.071 1.016-.95 1.798m4.476-2.114c1.84.559 2.813.14 3.903.531.847.465 1.82 2.07 4.68 2.622l-4.083-4.75Zm0 0" style="stroke:none;fill-rule:evenodd;fill:#a8191d;fill-opacity:1" data-source="https://football-logos.cc"></path><!-- source: https://football-logos.cc --></svg>