<svg xmlns="http://www.w3.org/2000/svg" viewBox="24.17 42.73 546.94 756.44"><!-- Source: https://football-logos.cc --><path d="M24.17 42.726h546.62l.016 21.39.3 467.144c.015 23.812-5.286 48.26-13.449 70.557-8.542 23.334-20.758 45.855-36.036 65.484-24.631 31.648-61.28 59.594-95.541 79.958-38.158 22.681-79.981 40.026-123.097 50.628l-5.194 1.277-5.212-1.335c-47.25-12.099-94.015-31.353-135.269-57.397-36.237-22.878-70.052-52.253-93.79-88.216-11.769-17.829-21.63-36.89-28.517-57.14-7.083-20.825-10.831-42.39-10.831-64.405Z" style="fill:#01478f;fill-rule:evenodd" data-source="https://football-logos.cc"></path><path d="M403.327 175.167c0-7.792.497-8.356 4.28-9.037l2.304-.416c.658-.498.658-2.421 0-2.92-4.444.167-8.56.222-12.428.222-3.95 0-7.215-.055-11.66-.221-.658.498-.658 2.421 0 2.92l2.305.415c3.783.681 4.28 1.246 4.28 9.037v30.53c0 7.79-.497 8.355-4.28 9.036l-2.304.415c-.659.498-.659 2.422 0 2.92 4.444-.166 7.709-.221 11.66-.221 3.868 0 7.9.055 12.345.221.658-.498.74-2.422.082-2.92l-2.304-.415c-3.783-.681-4.28-1.246-4.28-9.037zM266.677 174.575c-.02-7.723.111-8.486 3.86-8.556l3.753-.07c.658-.497.658-2.407 0-2.905-4.116.165-9.544-.277-13.494-.277s-6.94.367-11.22.202c-.988.497-.941 2.66-.118 3.159l2.34.079c3.734.126 4.9-.516 4.91 7.205l.037 31.714c.01 7.694-.681 8.74-4.384 9.232l-3.128.415c-.658.526-.831 2.736-.09 3.234 5.102-.166 7.567-.174 11.353-.174h11.028c6.75 0 15.4.083 19.762.25.928-2.093 1.89-9.098 3.314-13.603-.576-.996-3.05-1.186-3.315-.16-2.403 9.317-7.348 9.918-14.837 9.918-6.008 0-7.62-.492-8.71-1.888-1.049-1.344-.977-4.586-.987-8.488zM346.426 161.626c-18.51-.2-31.518 10.34-31.518 29.47 0 10.296 4.24 17.22 10.19 21.755 5.818 4.433 14.073 6.31 22.139 6.31 6.42 0 11.963-1.939 16.407-3.184.59-2.135 1.351-7.792 2.452-13.75-.494-.996-2.206-.757-2.865-.093-1.884 6.021-6.23 12.908-16.19 12.908-9.876 0-20.728-8.735-20.728-25.259s8.814-24.504 20.13-24.112c9.587.332 14.376 5.877 16.298 13.674.576.747 3.098.64 3.427-.356-.74-4.816-.8-12.171-.8-13.666-3.332.696-10.399-3.605-18.942-3.697M369.488 241.256c3.287 0 5.351 3 5.351 5.544 0 3.094-.897 4.757-1.88 5.644-2.767 2.495-5.904 4.144-8.587 5.175-.604 1.581-.811 2.519.53 2.794 1.733-.85 2.45-.898 5.198-1.032 3.862-.187 7.363 3.838 7.417 9.057.075 7.332-6.192 10.461-9.064 10.2-1.24-.112-3.909-.087-5.06-1.618-.647-.861-1.03-3.487-3.669-3.419-1.332.034-2 1.212-2 2.62 0 3.505 4.858 5.501 9.57 5.555 8.55.1 18.425-7.465 18.447-17.088.012-5.475-5.082-9.111-9.77-9.007-.87.02-1.33-.53-.603-.893 6.63-3.32 7.88-7.476 7.927-10.295.075-4.456-3.717-9.181-9.99-9.106-6.037.072-9.781 3.425-13.552 7.644 0 .825 1.558 2.593 2.76 1.643 2.2-2.23 3.755-3.418 6.975-3.418M272.497 235.387c-8.092 0-15.379 5.619-15.379 14.419 0 6.944 4.313 12.515 11.479 12.65 4.476.086 8.2-3.968 9.378-5.956.067-.55-.067-1.124-.402-1.33-.604 0-.653-.141-1.41.312-6.926 4.141-11.444-3.926-11.444-9.563 0-4.126 3.388-7.536 6.54-7.445 6.46.188 7.71 9.37 7.71 14.595 0 12.65-8.613 22.438-21.693 25.739-.604.48-.312 2.412.493 2.756 5.635-.206 14.767-4.279 20.35-9.557 5.686-5.378 9.556-10.706 9.556-19.026 0-9.556-5.477-17.594-15.178-17.594M226.997 235.955c.005-.72-1.278-.606-1.614-.606-.47 0-2.538 1.771-5.108 3.475-3.611 2.396-4.804 2.675-10.498 6.088-.537.413.252 3.328 1.269 2.734l2.7-1.265c4.016-1.882 5.225-3.13 5.208-.03l-.15 26.77c-.023 4.18-1.339 4.192-4.627 4.438l-2.75.207c-.604.412-.42 2.586.251 2.792 2.415-.137 6.285-.033 10.712-.033 4.16 0 8.934-.18 11.35-.042.67-.206 1.15-2.605-.13-2.53l-3.462-.281c-3.287-.267-3.426.275-3.39-5.225zM485.353 143.7c-4.149 0-7.412-1.188-10.373-3.181-7.15-5.358-10.11-15.71-10.11-24.653 0-9.003 2.437-16.94 8.338-20.705 1.954-1.31 4.733-2.014 7.633-2.014 4.09 0 7.473 1.188 10.353 3.484 6.465 4.934 9.845 14.311 9.845 23.858 0 8.057-2.212 15.981-7.227 20.21-2.074 1.874-5.277 3.002-8.459 3.002m-3.081 4.07c9.284 0 18.408-3.827 24.129-11.662 3.705-5.056 5.478-11.24 5.478-18.53 0-15.005-9.728-28.138-28.319-28.138-9.466 0-18.268 4.009-23.464 10.01-4.793 5.298-6.908 11.884-6.908 18.833 0 7.472 2.296 15.347 7.855 21.228 4.773 5.076 11.883 8.258 21.229 8.258M361.783 93.83c2.88.402 3.859.525 5.45.928 1.954.705 2.417 2.538 2.296 4.21-.403 7.794-2.236 30.714-3.122 37.623-.584 4.37-1.35 5.559-4.129 6.264-1.549.1-2.115.032-3.887.254-.343.362-.437 2.888-.094 3.351l20.412-.037c.343-.363.505-2.3.143-2.602-2.598-.342-3.468-.475-4.998-.879-2.72-.846-2.19-2.685-2.19-5.989.06-7.09 1.424-24.804 1.947-32.418.182-.12.343-.18.524-.18 5.499 13.071 15.9 35.263 18.136 42.876.362 0 2.187-.05 3.176-.031 2.84-8.017 15.562-36.03 18.765-43.302.16-.12.342-.12.463 0 .06 8.44 1.854 27.83 1.673 34.376 0 2.255-.423 3.665-2.135 4.21-1.229.402-2.638.583-4.834 1.047-.282.362-.282 2.316 0 2.78 3.082 0 5.407-.093 10.442-.093 7.09 0 11.9.017 14.438.017.363-.463.403-2.316.181-2.78l-4.063-.586c-2.658-.644-3.182-2.296-3.363-5.136l-2.943-39.128c0-2.075.486-3.635 2.44-4.219 1.309-.423 3.059-.514 5.758-.857.423-.362.423-2.598 0-2.78-4.592 0-7.569.227-17.075.227l-17.945 39.816c-.121.06-.282.182-.464 0L378.848 90.71l-16.796.153c-.343.18-.571 2.503-.269 2.966M310.372 101.453c1.59 4.37 5.204 15.372 6.675 19.622 0 .302-.162.645-.343.645l-13.189.3c-.302-.06-.362-.221-.302-.644 1.592-4.492 4.963-15.15 6.675-19.943.121-.04.423.02.484.02m-25.383 41.927c-.342.363-.077 2.868.225 3.23 2.297 0 3.425-.017 7.674-.017 5.257 0 9.026-.133 11.201-.133.423-.362.154-2.627-.208-2.93-1.652-.22-2.551-.373-3.981-.675-2.478-.584-3-1.755-2.578-3.122l3.644-11.812c.12-.372.335-1.117 1.228-1.147l15.634-.004c.303 0 .705.403.826.584l4.385 13.09c.241.644.241 1.72-.947 2.264-.987.403-2.67.48-4.442.823-.423.302-.227 2.466.075 2.93 2.598 0 6.848-.018 12.749-.018 5.418 0 7.614.017 9.91.017.362-.362.523-2.477.241-2.78-6.606-.986-4.975-1.53-7.795-8.298l-16.462-47.1c-2.198 1.289-4.331 2.591-7.703 3.939l-15.189 43.735c-2.598 6.284-2.122 6.558-8.487 7.424M240.05 93.992c8.104.075 12.161 4.069 12.054 13.15-.091 7.777-7.122 11.026-14.167 10.44-.24-.02-1.978.266-1.978-.097 0-9.285.045-19.655.18-22.194.025-.481.587-.926.904-1.107.825-.242 2.242-.2 3.007-.192m-21.855-.443c1.813.141 3.525.383 4.834.685 1.994.463 2.72 1.591 2.78 4.19.1 3.262.1 10.715.1 19.758 0 5.337-.1 17.583-.16 20.06-.182 3.082-.823 4.285-2.901 4.734-1.185.255-2.359.558-4.07.78-.464.362-.343 2.417 0 2.78 1.772 0 5.42-.318 12.066-.318 6.506 0 11.422.242 13.315.242.463-.302.524-2.598.161-2.78-2.236-.342-3.951-.515-5.54-.886-1.956-.455-2.58-1.471-2.679-4.25-.123-3.485.064-12.117.064-17.374 0-.12.161-.463.342-.463.766 0 2.163.053 3.176.076 1.435.032 2.136 1.7 2.778 2.632 1.287 1.869 14.746 23.117 15.147 23.124 5.01.085 11.062.414 15.864.357.423-.182.615-3.138.394-3.44-5.076-.645-4.681-.37-7.796-4.132-3.937-4.753-10.612-15.336-13.433-19.778-.121-.06 0-.524.04-.584 5.7-2.477 10.142-6.926 9.97-14.254-.225-9.566-5.861-13.958-16.777-13.958-4.31 0-9.165.241-15.912.241-3.041 0-9.285-.241-11.48-.241-.464.18-.524 2.276-.283 2.8M155.272 93.971c2.123.02 3.275.055 4.574.45 2.004.61 1.915 1.162 2.132 4.063.186 2.477.12 9.97.12 17.543 0 10.453.061 18.67-.12 21.994-.1 3-.93 4.114-2.82 4.612-1.474.388-1.822.63-4.823.972-.241.343-.181 2.296 0 2.82 4.432 0 7.824-.227 13.363-.227 9.527 0 17.759.001 25.386.307 4.364.174 5.232-.383 5.188-1.94-.087-3.027.92-8.546 1.833-11.33-.342-.463-2.117-.868-2.64-.807-1.25 3-1.37 5.576-3.583 6.983-2.392 1.52-4.27 3.082-8.3 3.14-4.51.063-9.309-.463-11.136-.945-1.073-.283-1.921-1.551-1.954-3.202-.088-4.432-.03-13.273.029-17.945.002-.181.282-.826.524-.826 3.142 0 7.995 0 10.223.256 1.963.227 2.756 1.326 3.141 2.659.32 1.108.317 2.55.84 4.926.485.343 2.84.222 3.304-.12-.1-2.377-.236-6.941-.236-9.841 0-3.062.043-7.417.224-9.411-.363-.423-2.78-.484-3.304-.181-.241 1.228-.504 2.549-.765 3.424-.564 1.885-1.014 3.486-3.023 3.63-3.028.218-7.383.218-10.404.106-.242-.01-.52-.363-.524-.705-.057-5.015-.206-12.166-.15-17.584.004-.402.463-1.53 1.108-1.712 1.127-.12 11.198-.12 13.273.06 2.195.182 3.266.91 4.088 2.941.588 1.454 1.27 3.381 1.612 6.382.363.242 2.304.257 2.767-.106.161-4.43-.753-9.924-.09-12.653.043-.176-.183-.509-.363-.483-2.5.357-5.638-.21-9.203-.21h-18.026c-4.793 0-9.31-.324-12.21-.324-.403.342-.518 2.861-.055 3.284M123.591 143.566c-3.142-.466-4.663-.557-6.143-1.013-2.005-.617-2.605-2.064-2.739-4.618-.268-5.122-.222-28.938-.222-42.124 0-.365.162-.608.403-.71 1.773-.06 9.169-.004 12.838.02 1.718.01 2.335.019 3.433 1.778 1.223 1.96 1.533 2.578 1.755 5.798.302.284 2.62.34 2.86-.004.524-5.408.771-9.591.822-14.182.006-.526-1.944-.302-2.186-.302-1.296 2.178-.93 2.54-5.379 2.555l-39.955.131c-2.818.01-2.235-2.068-4.343-2.911-.367-.148-1.438.58-1.49 1.039-.486 4.231-.926 9.163-1.57 12.97.54 1.304 2.99.683 3.309.456.43-2.906.292-3.969 1.436-5.486.88-1.168 2.247-1.791 4.031-1.786 2.785.008 12.055.024 13.707.187.18.018.403.466.403.71 0 14.745-.179 32.343-.446 40.484-.135 4.113-.723 5.507-3.485 6.117-1.269.28-2.35.668-4.888.891-.463.365-.463 2.33 0 2.795 2.658 0 6.117-.243 13.529-.243 5.74 0 10.956.243 13.978.243.523-.303.705-2.43.342-2.795zM200.83 173.843c1.592 4.272 5.206 15.024 6.677 19.178 0 .295-.162.63-.343.63l-13.19.293c-.303-.059-.363-.216-.303-.63 1.592-4.39 4.964-14.805 6.676-19.49.12-.04.423.02.483.02m-25.386 40.977c-.343.355-.077 2.803.225 3.157 2.296 0 3.425-.017 7.675-.017 5.258 0 9.027-.13 11.203-.13.423-.354.154-2.568-.208-2.863a48 48 0 0 1-3.982-.66c-2.478-.571-3-1.716-2.579-3.051l3.646-11.544c.12-.365.335-1.092 1.227-1.121l15.638-.004c.302 0 .705.393.826.57l4.385 12.793c.241.63.241 1.682-.947 2.213-.988.394-2.67.47-4.443.804-.423.295-.227 2.41.075 2.863 2.598 0 6.849-.016 12.751-.016 5.42 0 7.615.016 9.912.016.362-.354.523-2.421.241-2.716-6.607-.965-4.976-1.496-7.796-8.11l-16.465-46.032c-2.198 1.258-4.332 2.531-7.705 3.848l-15.19 42.744c-2.6 6.141-2.123 6.41-8.49 7.256zM462.853 215.4c-14.624 0-20.934-13.41-20.934-26.484 0-9.004 2.888-18.289 8.789-22.055 1.954-1.31 4.733-2.014 7.633-2.014 4.09 0 7.473 1.188 10.353 3.484 6.465 4.934 9.845 14.311 9.845 23.858 0 8.057-2.212 15.981-7.227 20.21-2.074 1.874-5.277 3.002-8.459 3.002m-3.081 4.07c9.284 0 18.408-3.827 24.129-11.662 3.705-5.056 5.864-11.24 5.928-18.53.148-16.94-14.748-27.792-29.706-27.8-9.466-.005-17.33 3.67-22.527 9.673-4.794 5.297-6.908 11.883-6.908 18.832 0 7.472 2.296 15.347 7.855 21.228 4.773 5.076 11.883 8.258 21.229 8.258M136.644 161.626c-18.51-.2-31.519 10.34-31.519 29.47 0 10.296 4.24 17.22 10.19 21.755 5.818 4.433 14.073 6.31 22.14 6.31 6.419 0 11.962-1.939 16.406-3.184.59-2.135 1.352-7.792 2.453-13.75-.494-.996-2.207-.757-2.865-.093-1.885 6.021-6.231 12.908-16.19 12.908-9.876 0-20.728-8.735-20.728-25.259s8.814-24.504 20.13-24.112c9.586.332 14.375 5.877 16.297 13.674.576.747 3.099.64 3.428-.356-.741-4.816-.8-12.171-.8-13.666-3.332.696-10.4-3.605-18.943-3.697M328.194 235.955c.005-.72-1.278-.606-1.614-.606-.47 0-2.538 1.771-5.108 3.475-3.611 2.396-4.804 2.675-10.498 6.088-.537.413.252 3.328 1.269 2.734l2.7-1.265c4.016-1.882 5.225-3.13 5.208-.03l-.15 26.77c-.023 4.18-1.339 4.192-4.627 4.438l-2.75.207c-.604.412-.593 2.586.078 2.792 2.414-.137 6.458-.033 10.885-.033 4.159 0 8.934-.18 11.35-.042.67-.206 1.15-2.605-.13-2.53l-3.462-.281c-3.287-.267-3.426.275-3.39-5.225zM147.142 267.895a5.475 5.475 0 0 1-5.475-5.475 5.475 5.475 0 1 1 5.475 5.475M448.117 267.82a5.475 5.475 0 0 1-5.475-5.475 5.475 5.475 0 1 1 5.475 5.475" style="fill:#fbbd0a;fill-rule:evenodd"></path><path d="M434.974 415.274c.247-2.27.383-3.8 2.518-5.335l2.71-1.558c.738-.425-.187-2.306-.95-1.99-2.482 1.027-4.952 2.634-7.787 3.99-3.168 1.515-5.742 2.196-9.561 4.1-1.074.535-.142 2.539.836 2.169l3.41-1.288c2.14-.809 2.859.178 2.882.82l1.587 44.272-32.187-30.282c-1.096-1.032 2.176-2.653 3.966-3.751.85-.522-.034-2.55-1.27-1.878-5.403 2.936-6.553 3.233-10.39 5.068-4.335 2.073-6.366 3.218-10.807 4.8-1.466.521-.384 3.085.794 2.646l3.601-1.342c2.857-1.065 4.76.287 7.194 2.016l41.23 38.069c1.278 1.179 4.037 1.566 3.989-.078zM333.203 513.047c1.78 6.19 3.917 7.322-1.932 10.185-.854.418-.824 2.763 1.008 1.773 3.256-1.76 4.723-2.316 7.39-3.593 3.17-1.515 5.712-2.54 8.86-3.888 1.214-.52.62-2.711-.269-2.294l-3.84 1.804c-3.381 1.59-4.207-1.542-5.597-5.933l-9.419-29.75.167-.08c9.848 8.593 25.27 19.285 34.008 27.53.963.909 2.537-.146 2.545-1.403l.283-44.105.167-.08 19.237 29.103c1.25 1.89 1.39 3.133.524 4.122-.764.871.27 2.311 1.345 1.778 4.559-2.26 12.446-5.466 17.638-7.791 1.268-.568 0-2.306-1.047-1.964-1.29.42-3.374 1.687-4.68 1.808-3.617.335-4.853-1.024-6.848-4.766l-28.632-42.591c-1.547-2.301-3.075-2.863-3.07 1.403l.049 50.591-40.147-33.283c-1.087-.901-3.324-.286-2.83 1.353zM281.885 521.628c-2.077 1.01-2.84 1.662-3.028-.961l-1.534-21.425 15.14 14.52c1.705 1.85 1.742 1.874-.168 2.803zm8.466-.116c2.754-1.258 6.026-3.217 7.075-2.097 1.914 2.054 10.516 8.656 11.34 10.38.415.867 3.153 1.993 1.291 3.736-1.536 1.438-.184 2.326 1.028 1.677 5.047-2.703 11.44-5.544 17.28-8.14 2.352-1.045.564-2.559-1.325-1.68l-2.438 1.132c-2.19 1.019-6.074-1.022-8.105-2.856l-41.823-38.67c-1.726-1.597-3.273-.953-3.224-.185l3.834 59.944c.138 3.93-1.588 5.908-3.47 7.115l-2.078 1.093c-.264.946-.3 1.345.856 1.407 3.836-1.835 5.895-2.718 8.73-4.075 3.542-1.591 5.621-2.87 8.62-4.099 1.294-.653.867-2.074-.023-1.867l-2.701.78c-3.984 1.564-4.363-1.451-4.442-2.35l-1.255-14.282c-.25-1.81-.016-2.005 2.002-2.927z" style="fill:#074689;fill-rule:evenodd"></path><path d="M206.829 526.956c-1.86-4.028-2.008-4.112 1.348-5.87 7.255-3.803 14.559-1.52 18.442 6.842 3.652 7.867 2.356 13.232-4.207 17.195-4.207 2.54-6.104 2.361-7.46-.576zm8.266 39.268c3.583 7.69 4.592 9.323 1.159 11.785l-2.555 1.485c-.468.736.252 1.114 1.145 1.351 1.427.379 6.724-3.552 10.894-5.546 4.002-1.914 7.03-2.832 11.151-4.811.768-.369-.003-2.22-1.393-1.565l-1.901.896c-3.967 1.347-5.16 1.97-7.366-2.477l-6.962-14.033c-.814-1.642-.744-1.985 2.174-3.38 2.085-.998 5.06-2.723 7.131-.965 4.573 3.243 10.377 6.279 15.8 8.85 6.48 2.731 8.711 4.88 16.383 1.21 2.585-1.237 7.178-3.082 9.255-4.352.616-.376-.403-1.621-1.283-1.26-8.46 3.468-12.346-.959-15.169-1.85l-20.807-9.428c-.856-.717-.736-1.056-.21-1.945 2.42-4.096 4.733-11.918 1.318-18.91-6.331-12.956-18.242-8.366-27.438-3.651-7.632 3.913-11.506 5.206-18.258 8.2-.801.896-.478 2.18.556 2.198l2.41-.743c3.516-1.649 5.397-.91 6.683 1.85zM156.408 550.15c-1.476-3.085-1.822-3.201.93-4.482l9.624-4.479c2.47-1.15 5.094 1.094 6.489 4.509.414 1.012 2.321.466 1.914-.535-2.693-6.627-3.888-12.234-5.03-11.73-1.046.461-.629 1.697-4.085 3.341l-17.018 8.099c-3.996 1.928-8.357 3.829-12.356 5.536-1.13.823-.14 1.892.85 2.033l2.614-1.195c3.74-1.71 4.982-1.31 8.87 7.184l14.758 32.247c3.531 7.715 4.925 9.497 2.801 10.524l-3.64 2.458c-.454.764.085 1.718.992 1.9 6.174-3.159 6.943-3.878 10.945-5.793l8.525-4.077c6.824-3.264 9.753-4.52 14.171-6.637-.751-3.529-2.172-7.034-3.352-11.922-.223-.998-2.148.238-1.823 1.856.783 3.894 2.315 6.871-4.954 10.348-6.073 2.904-8.339 3.791-10.14 2.809-1.666-.945-3.047-4.105-4.813-7.973l-5.255-11.508c-1.151-2.523-1.042-2.22 1.195-3.29l5.754-2.753c4.322-2.067 6.052-2.252 7.573.204l1.702 2.745c.548.951 2.245-.242 1.875-.999-1.265-2.585-1.817-4.105-3.267-7.303-.754-1.661-.953-3.284-1.204-4.653-.172-.934-2.594-.913-2.5.823.104 1.936-1.636 3.035-5.558 4.91l-6.633 3.173c-2.236 1.07-1.858 1.557-2.974-.778zM117.187 613.036c3.676 7.686 3.492 9.754 2.1 10.624l-3.484 2.18c-.428.819.375 1.977 1.282 2.158 5.495-3.332 7.322-4.025 11.325-5.94 3.752-1.795 5.902-2.505 11.402-4.93a1.326 1.326 0 0 0-.885-1.85l-3.535 1.178c-3.991 1.294-5.129-.145-8.838-7.9L108.98 571.81c-1.037-2.167-.906-2.537 1.095-3.495l5.003-2.393c6.254-2.991 10.709-4.064 13.418 1.696.736.468 1.803-.164 1.86-1.114-2.44-4.673-3.987-7.102-5.149-10.196-.261-.737-1.655-.67-1.946.146-.426 1.195-1.182 1.406-6.682 4.037l-28.462 13.614c-6.334 3.03-6.806 3.174-8.415 2.662-.933-.296-2.483.627-2.149 1.505 1.482 3.885 1.883 5.76 2.824 11.062 1.02.845 1.54.385 2.302-.594-.404-7.27 2.012-8.284 8.606-11.438l5.17-2.472c2.002-.958 2.202-.54 3.158 1.46zM468.223 448.468c1.78 6.189 3.917 7.322-1.932 10.184-.854.418-.824 2.764 1.008 1.774 3.256-1.76 4.723-2.317 7.39-3.593 3.17-1.516 5.712-2.541 8.86-3.889 1.214-.52.62-2.71-.269-2.293l-3.84 1.804c-3.381 1.589-4.207-1.542-5.597-5.934l-9.419-29.749.167-.08c9.848 8.593 25.27 19.284 34.008 27.53.962.908 2.537-.147 2.545-1.403l.283-44.105.167-.08 19.237 29.102c1.25 1.891 1.39 3.134.523 4.122-.763.872.271 2.312 1.346 1.779 4.559-2.26 12.446-5.466 17.638-7.792 1.268-.567 0-2.305-1.047-1.964-1.29.421-3.374 1.687-4.68 1.808-3.617.335-4.853-1.024-6.848-4.766l-28.632-42.59c-1.547-2.301-3.075-2.863-3.07 1.403l.049 50.59-40.147-33.283c-1.087-.9-3.324-.286-2.83 1.354z" style="fill:#074689;fill-rule:evenodd"></path><path d="M397.354 603.229c4.838.042 9.211-1.426 13.547-2.88l1.376-.461c3.251-1.077 6.551-2.126 9.908-2.954 3.36-.829 6.759-1.43 10.191-1.605l.791-.04-.052.79c-.353 5.39-1.831 10.012-3.231 14.393l-.1.31c-.57 1.782-1.151 3.463-1.71 5.08-1.776 5.145-3.329 9.641-3.436 14.221q-.009.377.003.746c.092 2.855 1.13 4.972 2.734 6.383 1.616 1.42 3.82 2.146 6.222 2.202q.364.008.738-.004c2.835-.091 5.399-.982 7.247-2.576 1.697-1.463 2.797-3.533 2.944-6.132.187-3.29-1.147-7.394-2.453-11.408-.417-1.283-.832-2.558-1.21-3.852l-.887-2.811c-1.75-5.522-3.462-10.916-3.946-16.524l-.07-.809.812.043c2.814.146 5.535.537 8.12 1.058 2.586.521 5.015 1.169 7.256 1.832 2.214.654 4.325 1.364 6.34 2.042 5.209 1.752 9.776 3.288 14.102 3.147 3.001-.098 5.316-.998 6.869-2.516 1.581-1.546 2.391-3.76 2.347-6.442-.052-3.18-.868-5.649-2.337-7.353-1.475-1.71-3.638-2.672-6.371-2.827-3.325-.19-8.02 1.325-12.33 2.715-1.338.432-2.64.852-3.879 1.213-3.337 1.015-6.704 1.966-10.07 2.72-3.385.757-6.765 1.315-10.104 1.539l-.814.054.06-.813c.193-2.578.815-5.675 1.713-9.034 1.032-3.86 2.433-8.076 3.972-12.254.638-1.733 1.543-4.464 2.151-7.347.42-1.987.7-4.047.658-5.896-.066-2.903-1.046-5.054-2.614-6.497-1.743-1.604-4.233-2.363-7.024-2.336-3.181.03-5.583.68-7.171 2.077-1.567 1.378-2.378 3.533-2.404 6.597-.04 4.612 1.295 8.53 2.682 12.597l.66 1.951c1.082 3.27 2.136 6.586 2.966 9.961.831 3.379 1.43 6.797 1.597 10.248l.038.791-.788-.052c-2.68-.178-5.994-.769-9.582-1.627-3.953-.945-8.228-2.213-12.344-3.61-1.799-.61-5.211-1.695-8.644-2.43-2.208-.472-4.418-.799-6.19-.759-2.775.064-4.693 1.056-5.943 2.608-1.506 1.87-2.093 4.575-2.065 7.481.03 3.074.876 5.296 2.434 6.753 1.643 1.537 4.116 2.27 7.29 2.297z" style="fill:#0c4690;fill-rule:evenodd"></path><path d="M418.987 624.1q-.009.378.003.746c.092 2.855 1.13 4.972 2.734 6.383 1.616 1.42 3.82 2.146 6.222 2.202q.364.008.738-.004c2.835-.091 5.399-.982 7.247-2.576 1.697-1.462 2.797-3.533 2.944-6.132.187-3.29-1.147-7.394-2.453-11.408-.417-1.283-.832-2.558-1.21-3.852-.214-.69-.55-1.75-.887-2.811-1.75-5.522-3.461-10.916-3.946-16.523l-.07-.81.812.043c2.814.146 5.535.537 8.12 1.058 2.586.521 5.015 1.169 7.256 1.832 2.214.654 4.325 1.364 6.34 2.042 5.209 1.752 9.776 3.288 14.102 3.147 3.001-.098 5.316-.998 6.869-2.516 1.581-1.546 2.391-3.76 2.347-6.442-.052-3.18-.868-5.649-2.337-7.353-1.475-1.71-3.638-2.672-6.371-2.827-3.325-.19-8.02 1.325-12.33 2.715-1.338.432-2.64.852-3.879 1.213-3.337 1.015-6.704 1.966-10.07 2.72-3.385.757-6.765 1.315-10.104 1.539l-.814.054.06-.813c.193-2.578.815-5.675 1.713-9.034 1.032-3.86 2.433-8.076 3.972-12.254.638-1.733 1.543-4.464 2.151-7.347.42-1.987.7-4.047.658-5.896-.066-2.903-1.046-5.054-2.614-6.497-1.743-1.604-4.233-2.363-7.025-2.336-3.18.03-5.582.68-7.17 2.077-1.567 1.378-2.378 3.533-2.404 6.597-.04 4.612 1.295 8.53 2.682 12.597.236.694.473 1.388.66 1.951 1.082 3.27 2.136 6.586 2.966 9.961.831 3.38 1.43 6.797 1.597 10.248l.038.791-.788-.052c-2.68-.178-5.994-.769-9.581-1.627-3.954-.945-8.23-2.213-12.344-3.61-1.8-.61-5.212-1.695-8.645-2.43-2.208-.472-4.418-.799-6.19-.759-2.775.064-4.693 1.056-5.943 2.608-1.506 1.87-2.093 4.575-2.065 7.481.03 3.074.876 5.296 2.434 6.753 1.643 1.537 4.116 2.27 7.29 2.297 4.839.041 9.212-1.426 13.548-2.88.335-.113.688-.231 1.376-.459v-.003c3.25-1.077 6.55-2.126 9.907-2.954 3.36-.829 6.76-1.43 10.192-1.604l.79-.04-.051.79c-.353 5.389-1.832 10.011-3.232 14.39v.002l-.099.31c-.57 1.782-1.151 3.464-1.71 5.081-1.776 5.144-3.329 9.64-3.436 14.22zm-1.408.79q-.014-.4-.003-.82v-.004c.112-4.797 1.699-9.391 3.513-14.646.558-1.617 1.139-3.298 1.7-5.05v-.004l.098-.31h.001c1.303-4.072 2.673-8.36 3.103-13.25-3.056.216-6.1.773-9.12 1.518-3.285.81-6.563 1.853-9.802 2.925v-.003l-1.37.459c-4.446 1.491-8.93 2.996-14.007 2.952-3.532-.03-6.325-.885-8.243-2.679-1.847-1.727-2.85-4.286-2.882-7.771-.031-3.209.644-6.23 2.375-8.378 1.503-1.867 3.772-3.06 7.016-3.134 1.901-.043 4.218.297 6.512.787 3.503.75 6.975 1.853 8.805 2.474 4.097 1.391 8.33 2.647 12.216 3.577 3.157.754 6.092 1.297 8.547 1.524-.21-3.075-.764-6.137-1.511-9.173-.813-3.304-1.861-6.6-2.94-9.856-.246-.745-.451-1.347-.653-1.94-1.425-4.178-2.796-8.203-2.755-13.062.03-3.497 1.002-5.997 2.88-7.65 1.858-1.633 4.566-2.391 8.096-2.425 3.143-.03 5.974.85 7.992 2.707 1.843 1.695 2.993 4.184 3.07 7.51.044 1.971-.249 4.136-.687 6.212-.628 2.978-1.553 5.775-2.205 7.545-1.526 4.142-2.914 8.318-3.934 12.133-.783 2.926-1.35 5.638-1.594 7.953 3.004-.25 6.034-.765 9.067-1.444 3.327-.745 6.664-1.688 9.973-2.694l.008-.003c1.197-.349 2.5-.77 3.84-1.202 4.43-1.428 9.256-2.985 12.84-2.782 3.13.178 5.629 1.305 7.362 3.315 1.686 1.956 2.622 4.729 2.68 8.255.05 3.082-.907 5.652-2.774 7.478-1.802 1.76-4.436 2.804-7.81 2.914-4.58.15-9.259-1.424-14.595-3.219-1.988-.668-4.07-1.37-6.29-2.025-2.224-.658-4.62-1.298-7.134-1.805a55 55 0 0 0-7.094-.98c.56 5.168 2.165 10.228 3.806 15.402.256.807.516 1.625.887 2.822l.003.011c.352 1.208.775 2.51 1.202 3.82 1.345 4.137 2.721 8.367 2.519 11.922-.171 3.012-1.452 5.418-3.431 7.124-2.097 1.807-4.972 2.816-8.128 2.918q-.406.014-.813.004h-.003c-2.729-.064-5.25-.904-7.124-2.551-1.885-1.658-3.104-4.116-3.21-7.402z" style="fill:#fff;fill-rule:evenodd"></path><path d="M391.703 597.246c4.838.042 9.211-1.426 13.547-2.88l1.376-.461c3.251-1.077 6.55-2.126 9.907-2.954 3.36-.83 6.76-1.43 10.192-1.605l.79-.04-.051.79c-.353 5.39-1.831 10.011-3.231 14.392l-.1.31c-.57 1.783-1.151 3.464-1.71 5.081-1.776 5.145-3.329 9.641-3.436 14.221q-.009.378.003.745c.092 2.855 1.13 4.973 2.734 6.383 1.616 1.421 3.82 2.147 6.222 2.203q.364.008.738-.004c2.835-.091 5.399-.982 7.247-2.576 1.697-1.462 2.797-3.533 2.944-6.132.187-3.29-1.147-7.394-2.453-11.408-.417-1.283-.832-2.558-1.21-3.852l-.887-2.811c-1.75-5.522-3.461-10.916-3.946-16.524l-.07-.809.812.043c2.814.146 5.535.537 8.12 1.058 2.586.521 5.015 1.169 7.256 1.832 2.214.654 4.325 1.364 6.34 2.042 5.209 1.752 9.776 3.288 14.102 3.147 3.002-.098 5.316-.998 6.869-2.516 1.581-1.546 2.391-3.76 2.347-6.442-.052-3.18-.868-5.649-2.337-7.353-1.475-1.71-3.638-2.672-6.371-2.827-3.325-.19-8.02 1.325-12.33 2.715-1.338.432-2.64.852-3.879 1.213-3.337 1.015-6.704 1.966-10.07 2.72-3.385.757-6.765 1.315-10.104 1.539l-.814.054.06-.813c.194-2.578.815-5.675 1.713-9.034 1.032-3.86 2.433-8.076 3.972-12.254.638-1.733 1.543-4.464 2.151-7.347.42-1.987.7-4.047.658-5.896-.066-2.903-1.046-5.054-2.614-6.497-1.743-1.604-4.233-2.363-7.024-2.336-3.181.03-5.583.68-7.171 2.077-1.567 1.378-2.378 3.533-2.404 6.597-.04 4.612 1.295 8.53 2.682 12.597l.66 1.951c1.082 3.27 2.137 6.586 2.967 9.961.83 3.38 1.43 6.797 1.596 10.248l.038.791-.788-.052c-2.68-.178-5.994-.769-9.581-1.627-3.954-.945-8.23-2.213-12.344-3.61-1.8-.61-5.212-1.695-8.645-2.43-2.208-.472-4.418-.799-6.19-.759-2.775.064-4.693 1.056-5.943 2.608-1.506 1.87-2.093 4.575-2.065 7.481.03 3.074.876 5.296 2.434 6.753 1.643 1.537 4.116 2.27 7.29 2.297z" style="fill:#b7bec4;fill-rule:evenodd"></path><path d="m55.365 576.305 489.866-232.65 2.172 4.604-489.865 232.65zM89.192 645.38 546.15 428.518l2.172 4.604L91.365 649.984Z" style="fill:#01478f;fill-rule:evenodd"></path><path d="M45.571 59.167h508.79l.003 4.96.3 467.144c.013 20.287-4.358 42.802-12.446 64.894-7.87 21.498-19.267 42.659-33.572 61.038-18.59 23.887-50.215 51.7-90.967 75.923-33.9 20.15-74.187 37.859-118.622 48.795l-1.187.292-1.216-.31c-46.096-11.813-91.462-30.684-130.569-55.374-36.486-23.034-67.58-51.153-88.846-83.37-11.177-16.933-20.318-34.693-26.672-53.376-6.385-18.774-9.956-38.449-9.956-59.112V59.167Zm4.96 242.065 494.103.074-.149-232.218H50.532Zm494.108 7.133-494.107-.074v222.38c0 19.568 3.376 38.183 9.413 55.934 6.068 17.841 14.826 34.844 25.549 51.09 20.47 31.009 50.526 58.155 85.862 80.463 37.913 23.936 81.842 42.28 126.524 53.857 42.933-10.705 81.902-27.884 114.761-47.415 39.615-23.546 70.252-50.45 88.177-73.481 13.676-17.572 24.573-37.806 32.1-58.364 7.709-21.06 11.876-42.393 11.864-61.484z" style="fill:#fbbd0a;fill-rule:evenodd" data-source="https://football-logos.cc"></path><path d="M104.204 403.944c4.838.042 9.212-1.425 13.548-2.88l1.375-.461c3.251-1.077 6.551-2.126 9.908-2.954 3.36-.829 6.759-1.43 10.191-1.605l.791-.04-.052.79c-.353 5.39-1.831 10.012-3.231 14.393l-.1.31c-.57 1.782-1.15 3.463-1.709 5.08-1.776 5.145-3.33 9.641-3.437 14.221q-.009.378.003.746c.092 2.855 1.13 4.972 2.734 6.383 1.617 1.42 3.82 2.146 6.222 2.202q.364.008.739-.004c2.834-.091 5.398-.982 7.246-2.575 1.698-1.463 2.797-3.534 2.945-6.133.187-3.29-1.148-7.394-2.453-11.408a132 132 0 0 1-1.21-3.852l-.887-2.811c-1.752-5.522-3.462-10.916-3.947-16.523l-.07-.81.812.043c2.814.146 5.536.537 8.12 1.058 2.586.522 5.016 1.169 7.256 1.832 2.214.655 4.325 1.365 6.34 2.042 5.21 1.752 9.776 3.289 14.102 3.147 3.002-.098 5.316-.998 6.87-2.516 1.58-1.545 2.39-3.76 2.346-6.442-.052-3.18-.868-5.649-2.337-7.352-1.475-1.711-3.637-2.673-6.37-2.828-3.325-.189-8.02 1.325-12.33 2.715-1.339.432-2.641.852-3.88 1.213-3.336 1.015-6.704 1.966-10.07 2.72-3.385.757-6.765 1.315-10.104 1.539l-.814.054.061-.813c.193-2.578.814-5.675 1.712-9.034 1.033-3.86 2.434-8.076 3.973-12.254.638-1.733 1.542-4.464 2.15-7.347.42-1.987.701-4.047.658-5.896-.066-2.903-1.046-5.054-2.614-6.497-1.743-1.603-4.233-2.363-7.024-2.336-3.18.03-5.583.68-7.17 2.077-1.568 1.378-2.379 3.533-2.405 6.598-.04 4.611 1.296 8.53 2.682 12.597l.66 1.95c1.083 3.27 2.137 6.587 2.967 9.962.83 3.378 1.43 6.796 1.596 10.247l.038.791-.788-.052c-2.68-.178-5.993-.769-9.581-1.627-3.953-.945-8.23-2.212-12.344-3.61-1.8-.61-5.212-1.695-8.645-2.43-2.208-.471-4.418-.799-6.19-.758-2.775.063-4.693 1.056-5.943 2.608-1.506 1.87-2.092 4.574-2.065 7.48.03 3.074.876 5.296 2.434 6.753 1.643 1.537 4.116 2.27 7.291 2.297z" style="fill:#0c4690;fill-rule:evenodd"></path><path d="M125.837 424.815q-.008.377.003.746c.092 2.855 1.13 4.972 2.734 6.383 1.617 1.42 3.82 2.146 6.222 2.202q.364.008.739-.004c2.834-.091 5.398-.982 7.246-2.575 1.698-1.463 2.797-3.534 2.945-6.133.187-3.29-1.148-7.394-2.453-11.408-.418-1.283-.833-2.558-1.21-3.852-.214-.69-.55-1.75-.887-2.811-1.751-5.522-3.462-10.916-3.947-16.523l-.07-.81.812.043c2.814.146 5.536.537 8.12 1.058 2.586.522 5.016 1.169 7.256 1.832 2.214.655 4.325 1.365 6.34 2.042 5.21 1.752 9.776 3.289 14.102 3.147 3.002-.098 5.316-.998 6.87-2.516 1.58-1.545 2.39-3.76 2.347-6.442-.053-3.18-.869-5.649-2.338-7.352-1.475-1.711-3.637-2.673-6.37-2.828-3.325-.19-8.02 1.325-12.33 2.715-1.339.432-2.641.852-3.88 1.213-3.336 1.015-6.704 1.966-10.07 2.72-3.385.757-6.765 1.315-10.104 1.539l-.814.054.061-.813c.193-2.578.814-5.675 1.712-9.034 1.033-3.86 2.434-8.076 3.973-12.254.638-1.733 1.542-4.464 2.15-7.347.42-1.987.701-4.047.659-5.896-.067-2.903-1.047-5.054-2.615-6.497-1.743-1.603-4.233-2.363-7.024-2.336-3.18.03-5.583.68-7.171 2.077-1.567 1.378-2.378 3.533-2.404 6.598-.04 4.611 1.296 8.529 2.682 12.597.237.693.473 1.387.66 1.95 1.083 3.27 2.137 6.587 2.967 9.962.83 3.378 1.43 6.796 1.596 10.247l.039.791-.789-.052c-2.68-.178-5.993-.769-9.581-1.627-3.953-.945-8.23-2.212-12.344-3.61-1.8-.61-5.212-1.695-8.645-2.43-2.208-.471-4.418-.799-6.19-.758-2.775.063-4.693 1.056-5.943 2.608-1.506 1.87-2.092 4.574-2.065 7.48.03 3.074.876 5.296 2.434 6.753 1.643 1.537 4.116 2.27 7.291 2.297 4.838.041 9.211-1.426 13.547-2.88.335-.112.688-.231 1.376-.459v-.003c3.251-1.077 6.551-2.126 9.908-2.954 3.36-.828 6.759-1.43 10.191-1.604l.791-.04-.052.79c-.353 5.389-1.831 10.011-3.231 14.39v.002l-.1.31c-.57 1.783-1.15 3.464-1.71 5.081-1.776 5.145-3.329 9.641-3.436 14.22zm-1.408.79q-.013-.4-.003-.82v-.004c.112-4.797 1.699-9.391 3.514-14.646.558-1.617 1.138-3.298 1.699-5.05v-.004l.099-.31c1.303-4.072 2.674-8.36 3.103-13.25-3.056.216-6.1.773-9.12 1.518-3.285.81-6.563 1.853-9.802 2.926v-.003l-1.37.458c-4.446 1.491-8.93 2.996-14.007 2.952-3.532-.03-6.325-.885-8.243-2.678-1.847-1.728-2.849-4.286-2.882-7.772-.03-3.209.644-6.23 2.375-8.378 1.503-1.867 3.772-3.06 7.017-3.133 1.9-.044 4.217.296 6.511.786 3.503.75 6.975 1.853 8.805 2.475 4.097 1.39 8.33 2.647 12.217 3.576 3.156.755 6.091 1.297 8.546 1.524-.21-3.075-.764-6.137-1.511-9.173-.813-3.304-1.86-6.6-2.94-9.856-.246-.745-.451-1.347-.653-1.94-1.424-4.178-2.796-8.203-2.754-13.062.03-3.497 1.001-5.997 2.88-7.65 1.857-1.633 4.565-2.391 8.095-2.425 3.143-.03 5.974.85 7.993 2.707 1.842 1.695 2.992 4.184 3.068 7.51.045 1.971-.247 4.136-.685 6.212-.629 2.978-1.554 5.775-2.206 7.545-1.526 4.142-2.913 8.318-3.934 12.133-.783 2.926-1.349 5.638-1.594 7.953 3.004-.25 6.035-.765 9.067-1.444 3.327-.745 6.664-1.688 9.974-2.694l.008-.003c1.196-.349 2.5-.77 3.84-1.202 4.43-1.428 9.256-2.985 12.839-2.782 3.13.178 5.629 1.306 7.362 3.315 1.686 1.956 2.622 4.73 2.68 8.255.05 3.082-.907 5.653-2.774 7.478-1.802 1.761-4.435 2.804-7.81 2.914-4.58.15-9.258-1.424-14.594-3.219-1.989-.668-4.071-1.369-6.29-2.025-2.225-.658-4.622-1.298-7.135-1.804a55 55 0 0 0-7.093-.981c.56 5.168 2.165 10.228 3.806 15.402.256.807.515 1.625.887 2.823l.003.01c.352 1.208.775 2.51 1.2 3.82 1.347 4.137 2.722 8.367 2.52 11.922-.17 3.012-1.452 5.418-3.431 7.124-2.096 1.807-4.971 2.816-8.127 2.918q-.407.014-.813.004h-.003c-2.73-.064-5.25-.904-7.124-2.55-1.885-1.659-3.104-4.117-3.21-7.403z" style="fill:#fff;fill-rule:evenodd"></path><path d="M98.553 397.961c4.838.042 9.211-1.425 13.547-2.88l1.376-.461c3.251-1.077 6.551-2.126 9.908-2.954 3.36-.829 6.759-1.43 10.191-1.605l.791-.04-.052.79c-.353 5.39-1.831 10.012-3.231 14.393l-.1.31c-.57 1.782-1.15 3.463-1.709 5.08-1.776 5.145-3.33 9.641-3.437 14.221q-.008.378.003.746c.092 2.855 1.13 4.972 2.734 6.383 1.617 1.42 3.82 2.146 6.222 2.202q.364.008.739-.004c2.834-.091 5.398-.982 7.246-2.575 1.698-1.463 2.797-3.534 2.945-6.133.187-3.29-1.148-7.394-2.453-11.408-.418-1.283-.833-2.558-1.21-3.852l-.887-2.811c-1.751-5.522-3.462-10.916-3.947-16.523l-.07-.81.812.043c2.814.146 5.536.537 8.12 1.058 2.586.522 5.016 1.169 7.256 1.832 2.214.655 4.325 1.365 6.34 2.042 5.21 1.752 9.776 3.289 14.102 3.147 3.002-.098 5.316-.998 6.87-2.516 1.58-1.545 2.39-3.76 2.347-6.442-.053-3.18-.869-5.649-2.338-7.352-1.475-1.711-3.637-2.673-6.37-2.828-3.325-.19-8.02 1.325-12.33 2.715-1.339.432-2.641.852-3.88 1.213-3.336 1.015-6.704 1.966-10.07 2.72-3.385.757-6.765 1.315-10.104 1.539l-.814.054.061-.813c.193-2.578.814-5.675 1.712-9.034 1.033-3.86 2.434-8.076 3.973-12.254.638-1.733 1.542-4.464 2.15-7.347.42-1.987.701-4.047.659-5.896-.067-2.903-1.047-5.054-2.615-6.497-1.743-1.603-4.233-2.363-7.024-2.336-3.18.03-5.583.68-7.171 2.077-1.567 1.378-2.378 3.533-2.404 6.598-.04 4.611 1.296 8.529 2.682 12.597l.66 1.95c1.083 3.27 2.137 6.587 2.967 9.962.83 3.378 1.43 6.796 1.596 10.247l.039.791-.789-.052c-2.68-.178-5.993-.769-9.581-1.627-3.953-.945-8.23-2.212-12.344-3.61-1.8-.61-5.212-1.695-8.645-2.43-2.208-.471-4.418-.799-6.19-.758-2.775.063-4.693 1.056-5.943 2.608-1.506 1.87-2.092 4.574-2.065 7.48.03 3.074.876 5.296 2.434 6.753 1.643 1.537 4.116 2.27 7.291 2.297z" style="fill:#b7bec4;fill-rule:evenodd"></path><path d="M544.665 349.56 58.037 580.671a186 186 0 0 0 1.908 5.933c6.068 17.841 14.826 34.844 25.549 51.09a210 210 0 0 0 4.91 7.11l454.313-215.607Zm-269.38 195.193-3.835-59.944c-.05-.768 1.498-1.412 3.224.184l41.823 38.671c2.031 1.834 5.915 3.875 8.106 2.856l2.437-1.133c1.89-.878 3.677.636 1.325 1.682-5.84 2.595-12.233 5.436-17.28 8.139-1.212.65-2.564-.239-1.028-1.677 1.862-1.744-.876-2.869-1.291-3.736-.825-1.724-9.425-8.326-11.34-10.38-1.048-1.12-4.321.839-7.075 2.097l-8.828 4.036c-2.018.922-2.253 1.117-2.002 2.927l1.255 14.282c.08.899.458 3.914 4.442 2.35l2.7-.78c.89-.207 1.318 1.214.024 1.868-2.999 1.229-5.078 2.507-8.62 4.098-2.835 1.356-4.894 2.24-8.73 4.075a3 3 0 0 1-.394-.042.38.38 0 0 1-.188.346c-2.078 1.27-6.67 3.115-9.255 4.352-7.672 3.669-9.903 1.521-16.384-1.21-5.422-2.571-11.226-5.607-15.798-8.85-2.071-1.758-5.047-.033-7.132.965-2.918 1.395-2.988 1.738-2.173 3.38l6.96 14.033c2.207 4.447 3.4 3.824 7.367 2.477l1.9-.896c1.391-.655 2.162 1.196 1.394 1.565-4.121 1.979-7.149 2.896-11.151 4.81-4.17 1.995-9.467 5.926-10.894 5.547-.893-.237-1.613-.615-1.145-1.351l2.555-1.485c3.433-2.462 2.424-4.095-1.16-11.785l-17.282-37.091c-1.286-2.76-3.167-3.498-6.682-1.85l-2.411.743c-1.034-.018-1.357-1.302-.556-2.198 6.752-2.993 10.626-4.287 18.258-8.2 9.196-4.715 21.107-9.305 27.438 3.651 3.415 6.992 1.103 14.814-1.318 18.91-.526.889-.645 1.228.21 1.945l20.807 9.429c2.823.89 6.71 5.317 15.17 1.849.3-.123.615-.06.878.093.025-.157.072-.337.13-.544l2.078-1.093c1.881-1.207 3.608-3.185 3.47-7.115m57.917-31.706-15.088-50.07c-.495-1.64 1.742-2.255 2.829-1.354l40.147 33.283-.05-50.59c-.004-4.267 1.524-3.705 3.07-1.404l28.633 42.59c1.995 3.743 3.23 5.102 6.849 4.767 1.305-.121 3.39-1.387 4.68-1.808 1.047-.342 2.314 1.396 1.046 1.964-5.192 2.325-13.079 5.532-17.638 7.791-1.075.533-2.109-.907-1.346-1.778.866-.989.727-2.231-.523-4.122l-19.237-29.103-.167.08-.283 44.105c-.008 1.256-1.583 2.311-2.545 1.403-8.738-8.245-24.16-18.937-34.008-27.53l-.167.08 9.419 29.75c1.39 4.391 2.216 7.522 5.598 5.933l3.84-1.804c.887-.417 1.482 1.774.268 2.294-3.148 1.347-5.69 2.373-8.86 3.888-2.667 1.276-4.134 1.833-7.39 3.593-1.832.99-1.862-1.356-1.008-1.773 5.85-2.863 3.711-3.996 1.931-10.185m99.549-37.247-41.23-38.069c-2.436-1.73-4.338-3.081-7.195-2.016l-3.601 1.342c-1.178.44-2.26-2.125-.794-2.647 4.441-1.58 6.472-2.726 10.808-4.8 3.836-1.834 4.986-2.131 10.388-5.067 1.237-.672 2.121 1.356 1.271 1.878-1.79 1.098-5.062 2.72-3.966 3.751l32.187 30.282-1.587-44.272c-.023-.642-.743-1.628-2.882-.82l-3.41 1.288c-.979.37-1.91-1.634-.836-2.17 3.82-1.903 6.392-2.584 9.561-4.1 2.835-1.355 5.305-2.962 7.787-3.99.763-.315 1.689 1.566.95 1.99l-2.71 1.56c-2.135 1.533-2.271 3.064-2.518 5.334l1.765 60.448c.048 1.644-2.711 1.257-3.988.078m33.54-17.148c5.849-2.862 3.711-3.995 1.932-10.184l-15.09-50.071c-.494-1.64 1.743-2.255 2.83-1.354l40.147 33.284-.05-50.591c-.005-4.266 1.524-3.704 3.07-1.404l28.633 42.591c1.995 3.742 3.23 5.101 6.849 4.766 1.305-.12 3.39-1.387 4.68-1.808 1.047-.341 2.313 1.397 1.046 1.964-5.192 2.326-13.08 5.532-17.638 7.792-1.075.533-2.11-.907-1.345-1.779.865-.989.725-2.23-.524-4.122l-19.238-29.102-.166.08-.283 44.105c-.008 1.256-1.583 2.311-2.545 1.403-8.738-8.246-24.16-18.937-34.008-27.53l-.167.08 9.419 29.75c1.39 4.39 2.215 7.522 5.597 5.933l3.84-1.804c.889-.418 1.482 1.773.269 2.293-3.148 1.348-5.69 2.373-8.86 3.889-2.667 1.276-4.134 1.833-7.39 3.592-1.832.99-1.862-1.355-1.008-1.773M182.257 561.267c1.45 3.198 2.002 4.718 3.267 7.303.37.757-1.327 1.95-1.875 1l-1.702-2.746c-1.521-2.456-3.251-2.27-7.573-.204l-5.754 2.752c-2.238 1.07-2.347.768-1.195 3.291l5.255 11.508c1.766 3.868 3.147 7.027 4.812 7.973 1.802.982 4.068.095 10.141-2.81 7.269-3.476 5.737-6.454 4.954-10.347-.325-1.618 1.6-2.854 1.823-1.856 1.18 4.889 2.6 8.393 3.352 11.922-4.418 2.116-7.347 3.373-14.171 6.637l-8.525 4.077c-4.002 1.915-4.771 2.634-10.945 5.792-.907-.181-1.446-1.135-.992-1.899l3.64-2.458c2.124-1.026.73-2.809-2.8-10.524l-14.76-32.247c-3.887-8.494-5.128-8.895-8.869-7.184l-2.613 1.195c-.99-.141-1.98-1.21-.851-2.033 3.999-1.707 8.36-3.608 12.356-5.536l17.018-8.099c3.456-1.644 3.039-2.88 4.085-3.341 1.142-.504 2.337 5.103 5.03 11.73.407 1.001-1.5 1.548-1.914.535-1.395-3.415-4.02-5.658-6.489-4.509l-9.625 4.479c-2.751 1.28-2.405 1.397-.929 4.482l6.98 14.593c1.116 2.334.738 1.847 2.974.777l6.633-3.173c3.922-1.875 5.662-2.973 5.558-4.91-.094-1.736 2.328-1.757 2.5-.823.25 1.369.45 2.991 1.204 4.653m-55.703 47.289c3.71 7.755 4.847 9.195 8.838 7.9l3.535-1.179c.823.222 1.23 1.071.885 1.85-5.5 2.426-7.65 3.137-11.402 4.931-4.003 1.915-5.83 2.608-11.325 5.94-.907-.181-1.71-1.34-1.282-2.159l3.485-2.179c1.39-.87 1.575-2.938-2.1-10.624L99.611 576.29c-.956-2-1.156-2.418-3.158-1.46l-5.17 2.472c-6.594 3.155-9.01 4.168-8.607 11.438-.76.979-1.282 1.44-2.3.594-.942-5.302-1.343-7.177-2.825-11.062-.335-.878 1.216-1.801 2.15-1.505 1.608.512 2.08.367 8.413-2.662l28.463-13.614c5.5-2.63 6.256-2.842 6.682-4.037.29-.815 1.685-.883 1.946-.146 1.162 3.094 2.71 5.523 5.15 10.197-.058.95-1.125 1.581-1.86 1.114-2.71-5.761-7.165-4.688-13.419-1.697l-5.003 2.393c-2.001.958-2.132 1.328-1.095 3.495z" style="fill:#fff;fill-rule:evenodd"></path><path d="M226.619 527.928c-3.883-8.362-11.187-10.645-18.442-6.843-3.356 1.76-3.208 1.843-1.349 5.871l8.124 17.591c1.356 2.937 3.253 3.116 7.46.576 6.563-3.963 7.86-9.328 4.207-17.195M277.323 499.243l1.534 21.424c.188 2.623.951 1.97 3.027.96l10.411-5.062c1.91-.929 1.873-.953.169-2.803z" style="fill:#fff;fill-rule:evenodd"></path><path d="m56.611 575.714 488.05-231.789-.022-35.56-494.107-.074v222.38c0 15.605 2.147 30.604 6.079 45.043m61.14099999999999-174.65c-4.336 1.455-8.71 2.922-13.548 2.88-3.175-.027-5.648-.76-7.29-2.296-.74-.691-1.318-1.555-1.726-2.6-1.983-.398-3.626-1.173-4.889-2.354-1.847-1.727-2.849-4.286-2.882-7.771-.031-3.21.644-6.23 2.375-8.378 1.503-1.867 3.772-3.06 7.017-3.134 1.9-.043 4.217.297 6.511.787 3.503.75 6.975 1.853 8.805 2.474 4.097 1.39 8.33 2.647 12.216 3.576 3.157.755 6.092 1.298 8.547 1.525-.21-3.075-.764-6.137-1.511-9.173-.813-3.304-1.86-6.6-2.94-9.856l-.653-1.94c-1.425-4.178-2.796-8.203-2.755-13.062.03-3.497 1.002-5.997 2.88-7.65 1.858-1.634 4.566-2.392 8.096-2.426 3.143-.03 5.974.85 7.992 2.708 1.513 1.391 2.558 3.318 2.927 5.802a8 8 0 0 1 1.767 1.222c1.569 1.443 2.548 3.593 2.615 6.496.042 1.85-.239 3.91-.658 5.897-.609 2.882-1.513 5.613-2.151 7.346-1.539 4.179-2.94 8.395-3.973 12.254a84 84 0 0 0-.415 1.616q1.8-.32 3.605-.724c3.327-.745 6.664-1.688 9.973-2.694l.008-.003c1.197-.349 2.5-.77 3.84-1.202 4.43-1.429 9.256-2.985 12.84-2.782 3.13.178 5.629 1.305 7.362 3.315 1.155 1.34 1.959 3.065 2.368 5.153a7.5 7.5 0 0 1 2.214 1.755c1.469 1.704 2.285 4.172 2.337 7.352.044 2.682-.766 4.897-2.347 6.443-1.553 1.517-3.868 2.417-6.87 2.515-4.325.142-8.892-1.394-14.101-3.146-2.015-.678-4.126-1.388-6.34-2.043-2.24-.663-4.67-1.31-7.256-1.832-2.585-.52-5.306-.911-8.12-1.058l-.812-.042.07.809c.484 5.608 2.195 11.001 3.946 16.523l.887 2.811c.378 1.294.793 2.57 1.21 3.852 1.306 4.014 2.64 8.118 2.453 11.408-.147 2.6-1.247 4.67-2.944 6.133-1.848 1.593-4.412 2.484-7.247 2.575q-.375.012-.738.004c-2.403-.056-4.606-.781-6.222-2.202a7.6 7.6 0 0 1-1.936-2.655c-1.762-.379-3.36-1.13-4.65-2.265-1.886-1.658-3.105-4.116-3.21-7.402q-.013-.399-.004-.823c.113-4.798 1.7-9.392 3.514-14.647.558-1.616 1.139-3.297 1.699-5.053l.1-.31c.795-2.485 1.614-5.05 2.23-7.782q-1.47.297-2.934.66c-3.356.827-6.656 1.876-9.907 2.953zM544.72 434.832 93.488 648.977c19.961 26.342 46.885 49.62 77.868 69.181 37.913 23.936 81.842 42.28 126.524 53.857 42.933-10.705 81.902-27.884 114.761-47.415 39.615-23.546 70.252-50.45 88.177-73.481 13.676-17.572 24.573-37.806 32.1-58.364 7.709-21.06 11.876-42.393 11.864-61.484zM390.063 600.933c-.739-.691-1.318-1.555-1.725-2.6-1.983-.398-3.626-1.173-4.89-2.354-1.846-1.727-2.848-4.286-2.882-7.771-.03-3.21.644-6.23 2.375-8.378 1.504-1.867 3.772-3.06 7.017-3.134 1.9-.043 4.217.296 6.512.787 3.502.75 6.975 1.853 8.805 2.474 4.096 1.39 8.33 2.647 12.216 3.576 3.157.755 6.092 1.297 8.547 1.524-.21-3.075-.765-6.136-1.512-9.172-.812-3.304-1.86-6.6-2.939-9.856l-.654-1.94c-1.424-4.178-2.796-8.203-2.754-13.063.03-3.496 1.002-5.997 2.88-7.649 1.857-1.634 4.565-2.392 8.095-2.426 3.144-.03 5.975.85 7.993 2.708 1.512 1.391 2.558 3.318 2.927 5.802a8 8 0 0 1 1.767 1.222c1.568 1.443 2.548 3.593 2.614 6.496.043 1.85-.238 3.91-.658 5.897-.608 2.882-1.512 5.613-2.15 7.346-1.54 4.178-2.94 8.395-3.973 12.254a84 84 0 0 0-.415 1.616q1.8-.32 3.604-.724c3.327-.745 6.664-1.688 9.974-2.694l.008-.003c1.196-.35 2.5-.77 3.84-1.202 4.43-1.429 9.256-2.985 12.84-2.782 3.13.178 5.628 1.305 7.361 3.315 1.156 1.34 1.96 3.065 2.369 5.153a7.5 7.5 0 0 1 2.214 1.755c1.469 1.703 2.285 4.172 2.337 7.352.044 2.682-.766 4.897-2.347 6.442-1.553 1.518-3.868 2.418-6.87 2.516-4.326.142-8.893-1.395-14.101-3.147-2.016-.677-4.127-1.387-6.34-2.042-2.24-.663-4.67-1.31-7.257-1.832-2.584-.52-5.306-.912-8.12-1.058l-.811-.042.07.809c.484 5.607 2.195 11.001 3.946 16.523l.887 2.811c.378 1.294.793 2.57 1.21 3.852 1.306 4.014 2.64 8.117 2.453 11.408-.148 2.6-1.247 4.67-2.944 6.133-1.849 1.593-4.413 2.484-7.247 2.575q-.375.012-.738.004c-2.403-.056-4.606-.781-6.222-2.202a7.6 7.6 0 0 1-1.936-2.655c-1.762-.379-3.36-1.13-4.65-2.265-1.886-1.658-3.105-4.117-3.211-7.402a14 14 0 0 1-.003-.823c.113-4.798 1.7-9.392 3.514-14.647.558-1.617 1.138-3.297 1.699-5.053l.1-.31c.794-2.485 1.614-5.05 2.23-7.782q-1.471.297-2.934.66c-3.356.827-6.656 1.876-9.907 2.953l-1.376.461c-4.336 1.455-8.71 2.922-13.547 2.88-3.175-.027-5.648-.76-7.291-2.296z" style="fill:#ed1b24;fill-rule:evenodd"></path><path d="M105.125 191.096c0-19.13 13.009-29.67 31.519-29.47 8.543.093 15.61 4.393 18.942 3.697 0 1.494.059 8.85.8 13.666-.33.996-2.852 1.103-3.428.356-1.922-7.797-6.71-13.342-16.298-13.674-11.315-.392-20.13 7.588-20.13 24.112s10.853 25.259 20.73 25.259c9.958 0 14.304-6.887 16.189-12.908.658-.664 2.37-.903 2.865.094-1.101 5.957-1.863 11.614-2.453 13.749-4.444 1.245-9.987 3.185-16.407 3.185-8.065 0-16.32-1.877-22.14-6.311-5.95-4.534-10.189-11.46-10.189-21.755M50.532 301.232l494.102.074-.149-232.218H50.532Zm91.135-38.812a5.475 5.475 0 1 1 10.95 0 5.475 5.475 0 0 1-10.95 0m42.265-54.856 15.191-42.744c3.373-1.317 5.507-2.59 7.705-3.848l16.465 46.031c2.82 6.615 1.189 7.146 7.796 8.11.283.296.122 2.363-.241 2.717-2.297 0-4.493-.016-9.912-.016-5.902 0-10.153.016-12.75.016-.303-.453-.5-2.568-.076-2.863 1.772-.335 3.455-.41 4.442-.804 1.19-.531 1.19-1.583.948-2.213l-4.385-12.793c-.121-.177-.524-.57-.826-.57l-15.638.004c-.892.029-1.108.757-1.227 1.12l-3.646 11.545c-.422 1.335.101 2.48 2.579 3.05 1.43.296 2.33.445 3.981.661.364.295.632 2.51.209 2.863-2.176 0-5.945.13-11.203.13-4.25 0-5.378.017-7.675.017-.302-.354-.567-2.802-.225-3.156 6.366-.847 5.89-1.115 8.488-7.257zm68.429 6.794c3.703-.491 4.393-1.539 4.384-9.232l-.038-31.714c-.009-7.721-1.175-7.08-4.91-7.205l-2.34-.08c-.822-.498-.87-2.66.118-3.159 4.28.166 7.27-.2 11.22-.2s9.38.441 13.495.276c.658.498.658 2.408 0 2.906l-3.753.07c-3.749.069-3.88.832-3.86 8.554l.074 29.288c.01 3.902-.062 7.144.987 8.488 1.09 1.396 2.702 1.889 8.71 1.889 7.49 0 12.434-.602 14.837-9.92.265-1.024 2.739-.835 3.315.161-1.424 4.505-2.386 11.51-3.314 13.602-4.362-.166-13.013-.249-19.762-.249h-11.028c-3.786 0-6.251.008-11.354.174-.74-.498-.567-2.708.091-3.234zm74.22 20.991c.335 0 1.618-.113 1.613.606l-.239 36.492c-.036 5.5.103 4.958 3.39 5.225l3.463.281c1.278-.075.799 2.324.128 2.53-2.415-.137-7.19.042-11.349.042-4.427 0-8.47-.104-10.885.034-.671-.207-.682-2.38-.078-2.793l2.75-.207c3.288-.246 4.604-.259 4.627-4.438l.15-26.77c.017-3.1-1.192-1.852-5.208.03l-2.7 1.265c-1.017.594-1.806-2.321-1.27-2.734 5.695-3.413 6.888-3.692 10.5-6.088 2.569-1.704 4.637-3.475 5.107-3.475M95.74 146.361c-.462-.466-.462-2.43 0-2.795 2.539-.223 3.62-.611 4.89-.892 2.761-.61 3.349-2.003 3.484-6.116.267-8.141.446-25.74.446-40.485 0-.243-.223-.691-.403-.709-1.652-.164-10.922-.18-13.707-.187-1.784-.005-3.15.618-4.03 1.786-1.145 1.517-1.007 2.58-1.437 5.486-.32.227-2.77.848-3.31-.456.645-3.808 1.085-8.739 1.57-12.97.053-.46 1.124-1.187 1.49-1.04 2.11.844 1.526 2.92 4.344 2.912l39.955-.132c4.449-.014 4.083-.376 5.38-2.554.24 0 2.191-.224 2.185.302-.05 4.59-.298 8.774-.821 14.182-.242.345-2.559.288-2.861.004-.222-3.22-.531-3.839-1.755-5.798-1.098-1.76-1.715-1.768-3.433-1.779-3.67-.023-11.065-.08-12.838-.019-.241.102-.403.345-.403.71 0 13.186-.046 37.002.222 42.124.134 2.554.734 4 2.74 4.618 1.479.456 3 .547 6.142 1.013.363.364.181 2.491-.342 2.795-3.022 0-8.238-.243-13.978-.243-7.412 0-10.87.243-13.53.243zm64.105-51.94c-1.299-.395-2.451-.43-4.574-.45-.463-.423-.348-2.942.055-3.284 2.9 0 7.417.324 12.21.324h18.026c3.565 0 6.702.567 9.204.21.179-.026.405.307.362.483-.663 2.73.252 8.222.09 12.653-.463.363-2.404.348-2.767.106-.342-3-1.024-4.928-1.612-6.382-.822-2.032-1.893-2.76-4.088-2.94-2.075-.182-12.145-.182-13.273-.061-.645.181-1.104 1.31-1.108 1.712-.056 5.418.093 12.569.15 17.584.004.342.282.696.524.705 3.021.112 7.376.112 10.404-.106 2.01-.144 2.46-1.745 3.023-3.63.261-.875.524-2.196.765-3.424.524-.303 2.941-.242 3.304.181-.181 1.994-.224 6.35-.224 9.41 0 2.9.136 7.465.236 9.841-.463.343-2.82.464-3.303.121-.524-2.376-.52-3.818-.84-4.926-.386-1.333-1.179-2.432-3.142-2.659-2.228-.257-7.081-.256-10.223-.256-.242 0-.522.645-.524.826-.058 4.672-.117 13.513-.03 17.945.034 1.65.882 2.92 1.955 3.202 1.827.482 6.626 1.008 11.137.944 4.03-.057 5.907-1.62 8.299-3.14 2.212-1.406 2.333-3.981 3.582-6.982.524-.06 2.299.344 2.64.808-.912 2.783-1.919 8.302-1.832 11.33.044 1.556-.824 2.113-5.188 1.939-7.627-.306-15.86-.307-25.386-.307-5.539 0-8.931.227-13.363.227-.181-.524-.241-2.477 0-2.82 3.001-.342 3.35-.584 4.823-.972 1.89-.498 2.72-1.611 2.82-4.612.181-3.324.12-11.54.12-21.994 0-7.573.066-15.066-.12-17.543-.217-2.9-.128-3.452-2.132-4.063m66.064 23.761c0-9.043 0-16.496-.101-19.759-.06-2.598-.786-3.726-2.78-4.189-1.309-.302-3.02-.544-4.834-.685-.241-.523-.18-2.618.283-2.8 2.195 0 8.439.242 11.48.242 6.747 0 11.601-.241 15.912-.241 10.916 0 16.552 4.392 16.777 13.958.172 7.329-4.27 11.777-9.97 14.254-.04.06-.161.524-.04.584 2.82 4.442 9.496 15.025 13.433 19.778 3.115 3.763 2.72 3.487 7.796 4.131.221.303.03 3.26-.394 3.44-4.802.058-10.854-.271-15.864-.356-.401-.007-13.86-21.255-15.147-23.124-.642-.932-1.343-2.6-2.777-2.632-1.014-.023-2.411-.076-3.177-.076-.18 0-.342.343-.342.463 0 5.257-.187 13.889-.064 17.375.098 2.778.723 3.794 2.679 4.25 1.589.37 3.304.543 5.54.886.363.181.302 2.477-.16 2.78-1.894 0-6.81-.243-13.316-.243-6.646 0-10.294.317-12.067.317-.342-.362-.463-2.417 0-2.78 1.712-.22 2.886-.523 4.07-.78 2.079-.448 2.72-1.65 2.901-4.732.06-2.478.162-14.724.162-20.061m67.566 17.774 15.189-43.735c3.372-1.348 5.505-2.65 7.703-3.938l16.463 47.1c2.82 6.767 1.188 7.31 7.794 8.297.282.303.121 2.418-.241 2.78-2.296 0-4.492-.017-9.91-.017-5.901 0-10.151.017-12.75.017-.301-.463-.497-2.627-.074-2.93 1.772-.342 3.455-.419 4.442-.822 1.188-.544 1.188-1.62.947-2.265l-4.385-13.089c-.12-.18-.523-.584-.826-.584l-15.634.004c-.893.03-1.108.775-1.228 1.147l-3.644 11.812c-.422 1.367.1 2.538 2.578 3.122 1.43.302 2.33.454 3.98.676.363.302.632 2.567.21 2.93-2.176 0-5.945.132-11.202.132-4.25 0-5.377.017-7.674.017-.302-.362-.567-2.867-.225-3.23 6.365-.866 5.889-1.14 8.487-7.424m73.757-41.198c-1.591-.403-2.57-.526-5.45-.929-.302-.463-.074-2.785.269-2.966l16.796-.153 17.938 40.082c.18.182.342.06.463 0l17.945-39.815c9.507 0 12.483-.227 17.075-.227.423.18.423 2.417 0 2.78-2.7.342-4.449.433-5.758.856-1.954.584-2.44 2.144-2.44 4.219l2.943 39.128c.181 2.84.705 4.492 3.363 5.137l4.063.586c.222.463.182 2.316-.18 2.78-2.539 0-7.349-.018-14.438-.018-5.036 0-7.361.092-10.443.092-.282-.463-.282-2.417 0-2.78 2.196-.463 3.605-.644 4.834-1.047 1.712-.543 2.135-1.953 2.135-4.21.181-6.545-1.613-25.935-1.673-34.375-.12-.12-.302-.12-.463 0-3.203 7.271-15.926 35.285-18.765 43.302-.989-.018-2.814.03-3.176.03-2.236-7.612-12.637-29.804-18.136-42.876-.181 0-.342.06-.524.182-.523 7.613-1.887 25.328-1.947 32.417 0 3.304-.53 5.144 2.19 5.99 1.53.403 2.4.536 4.998.878.362.302.2 2.239-.142 2.602l-20.413.037c-.342-.463-.249-2.989.094-3.351 1.772-.222 2.338-.154 3.887-.254 2.78-.705 3.545-1.893 4.13-6.264.885-6.908 2.718-29.83 3.12-37.624.122-1.671-.341-3.504-2.295-4.21m-141.85 140.591c.336 0 1.62-.113 1.614.606l-.239 36.492c-.036 5.5.103 4.958 3.39 5.225l3.463.281c1.278-.075.799 2.324.128 2.53-2.415-.137-7.19.042-11.349.042-4.427 0-8.297-.104-10.712.033-.67-.206-.855-2.38-.251-2.792l2.75-.207c3.289-.246 4.604-.259 4.627-4.437l.15-26.77c.017-3.102-1.192-1.852-5.207.029l-2.701 1.265c-1.017.594-1.806-2.321-1.27-2.734 5.695-3.413 6.888-3.692 10.5-6.088 2.569-1.704 4.638-3.475 5.107-3.475m31.735 14.457c0-8.8 7.287-14.419 15.38-14.419 9.7 0 15.177 8.038 15.177 17.594 0 8.32-3.87 13.648-9.557 19.026-5.582 5.278-14.714 9.35-20.349 9.557-.805-.344-1.097-2.275-.493-2.757 13.08-3.3 21.693-13.088 21.693-25.738 0-5.225-1.25-14.407-7.71-14.595-3.152-.091-6.54 3.32-6.54 7.445 0 5.637 4.518 13.704 11.444 9.562.757-.452.806-.312 1.41-.312.335.206.47.781.402 1.331-1.178 1.988-4.903 6.042-9.378 5.957-7.166-.136-11.479-5.707-11.479-12.651m102.635-6.775c3.771-4.22 7.515-7.572 13.551-7.644 6.274-.075 10.066 4.65 9.99 9.106-.047 2.82-1.296 6.975-7.926 10.295-.728.364-.268.913.604.893 4.687-.105 9.781 3.531 9.769 9.007-.022 9.623-9.898 17.188-18.447 17.089-4.712-.055-9.57-2.05-9.57-5.557 0-1.407.668-2.585 2-2.619 2.64-.068 3.022 2.558 3.67 3.419 1.15 1.531 3.82 1.506 5.059 1.618 2.872.261 9.139-2.868 9.064-10.2-.054-5.219-3.555-9.244-7.417-9.057-2.748.134-3.465.182-5.198 1.032-1.341-.275-1.134-1.213-.53-2.794 2.683-1.031 5.82-2.68 8.587-5.175.983-.887 1.88-2.55 1.88-5.644 0-2.544-2.064-5.544-5.35-5.544-3.22 0-4.776 1.187-6.976 3.418-1.202.95-2.76-.819-2.76-1.643m-44.845-51.935c0-19.13 13.008-29.67 31.518-29.47 8.543.093 15.61 4.393 18.942 3.697 0 1.494.06 8.85.8 13.666-.329.996-2.851 1.103-3.427.356-1.922-7.797-6.711-13.342-16.298-13.674-11.316-.392-20.13 7.588-20.13 24.112s10.853 25.259 20.729 25.259c9.958 0 14.305-6.887 16.19-12.908.658-.664 2.37-.903 2.864.094-1.1 5.957-1.862 11.614-2.452 13.749-4.444 1.245-9.988 3.185-16.407 3.185-8.066 0-16.321-1.877-22.14-6.311-5.95-4.534-10.19-11.46-10.19-21.755m127.734 71.249a5.475 5.475 0 1 1 10.95 0 5.475 5.475 0 0 1-10.95 0m-50.234-56.649v-30.53c0-7.79-.497-8.355-4.28-9.036l-2.304-.415c-.659-.498-.659-2.422 0-2.92 4.444.166 7.709.22 11.66.22 3.868 0 7.983-.054 12.427-.22.658.498.658 2.422 0 2.92l-2.304.415c-3.783.681-4.28 1.245-4.28 9.037v30.53c0 7.79.497 8.355 4.28 9.036l2.304.415c.658.498.576 2.422-.082 2.92a326 326 0 0 0-12.346-.221c-3.95 0-7.215.055-11.66.221-.658-.498-.658-2.422 0-2.92l2.305-.415c3.783-.68 4.28-1.246 4.28-9.037m46.135 5.515c-5.56-5.88-7.855-13.756-7.855-21.228 0-6.95 2.115-13.535 6.908-18.832 5.196-6.002 13.061-9.678 22.527-9.673 14.959.008 29.854 10.86 29.706 27.8-.064 7.29-2.223 13.474-5.928 18.53-5.72 7.835-14.844 11.661-24.13 11.661-9.345 0-16.455-3.182-21.228-8.258m43.729-63.442c-9.346 0-16.456-3.182-21.23-8.258-5.558-5.88-7.854-13.756-7.854-21.228 0-6.95 2.115-13.535 6.908-18.832 5.196-6.002 13.998-10.01 23.465-10.01 18.59 0 28.318 13.132 28.318 28.137 0 7.29-1.773 13.474-5.478 18.53-5.72 7.835-14.845 11.661-24.13 11.661" style="fill:#01478f;fill-rule:evenodd"></path><path d="M200.347 173.824c-1.712 4.685-5.084 15.1-6.676 19.49-.06.414 0 .57.302.63l13.191-.293c.181 0 .343-.335.343-.63-1.47-4.154-5.085-14.906-6.677-19.178-.06 0-.362-.059-.483-.02M464.87 115.866c0 8.942 2.96 19.295 10.11 24.653 2.961 1.993 6.224 3.182 10.373 3.182 3.182 0 6.385-1.128 8.46-3.001 5.014-4.23 7.226-12.155 7.226-20.21 0-9.548-3.38-18.925-9.845-23.86-2.88-2.295-6.264-3.484-10.353-3.484-2.9 0-5.68.705-7.633 2.014-5.901 3.767-8.339 11.702-8.339 20.706M468.694 168.33c-2.88-2.295-6.264-3.483-10.353-3.483-2.9 0-5.68.705-7.633 2.014-5.901 3.766-8.789 13.051-8.789 22.055 0 13.075 6.31 26.485 20.934 26.485 3.182 0 6.385-1.128 8.46-3.001 5.014-4.23 7.226-12.154 7.226-20.21 0-9.547-3.38-18.925-9.845-23.86M317.047 121.075c-1.47-4.25-5.084-15.251-6.675-19.622-.06 0-.363-.06-.484-.02-1.712 4.794-5.083 15.451-6.675 19.943-.06.423 0 .584.302.644l13.19-.3c.18 0 .342-.343.342-.645M237.937 117.582c7.045.586 14.076-2.663 14.167-10.44.107-9.081-3.95-13.075-12.054-13.15-.765-.007-2.182-.05-3.007.192-.317.181-.879.626-.904 1.107-.135 2.54-.18 12.91-.18 22.194 0 .363 1.738.077 1.977.097" style="fill:#01478f;fill-rule:evenodd" data-source="https://football-logos.cc"></path><!-- source: https://football-logos.cc --></svg>