<svg xmlns="http://www.w3.org/2000/svg" viewBox="86.79 39.43 421.69 761.86"><!-- Source: https://football-logos.cc --><path d="M427.271 80.993h-6.508V39.559h6.508z" style="fill:#b20000;fill-rule:evenodd" data-source="https://football-logos.cc"></path><path d="m287.354 39.597 6.982.009 4.761 26.938 5.156-26.985h6.946l-8.826 41.471-6.455.01zM274.631 75.057c2.733 0 3.743-1.374 3.743-4.092V50.37c0-2.661-.922-4.8-3.677-4.8-2.701 0-4.233 2.131-4.233 4.819v20.576c0 2.704 1.443 4.092 4.167 4.092m.028 6.589c-6.456 0-10.664-3.667-10.678-10.311l-.046-21.938c-.014-6.595 4.15-9.966 10.743-9.966 6.463 0 10.872 3.719 10.866 10.399l-.019 21.317c-.006 6.633-4.43 10.499-10.866 10.499M247.933 81.42c-6.895 0-10.41-3.922-10.41-10.114V39.559h7.176v31.97c0 2.237.766 3.706 3.234 3.706 2.486 0 4.016-1.426 4.016-3.706V39.56h6.488v31.747c0 6.242-3.59 10.115-10.504 10.115M210.493 39.56l6.517.074 9.119 23.642V39.56h6.508l.056 41.49-6.47-.01-9.212-24.217v24.142h-6.518zM192.232 66.697h5.89l-3.027-13.93zm7.111 5.835h-8.325l-1.76 8.46-6.624.053 9.72-41.439 5.912-.01 9.62 41.434-6.773-.037zM149.465 62.347l6.521 18.57-7.173.076-5.772-17.527h-2.864v17.527h-7.3V39.53h10.94c5.989 0 10.587 2.83 10.587 9.405v4.844c0 3.748-1.466 6.91-4.9 8.55zm-9.288-16.855v12.73h4.097c.727 0 2.914-1.655 3.322-2.4q.438-.818.438-1.985v-4.416c0-.816-.146-1.526-.438-2.12-.645-1.33-1.936-1.809-3.322-1.809zM114.686 39.56h14.579999999999998v6.01H117.32v11.402h10.772v6.578H117.32v11.574h11.946v5.869h-19.163V39.559ZM86.79 39.56h21.468v5.961h-7.274v35.472h-7.061V45.52H86.79zM175.685 62.347l6.521 18.57-7.172.076-5.717-17.372-2.718-.019v17.433l-7.502-.042V39.53h10.940000000000001c5.99 0 10.588 2.83 10.588 9.405v4.844c0 3.748-1.467 6.91-4.9 8.55zm-9.138-16.752.059 12.625 3.605.002c1.654.001 4.044-2.408 4.044-4.385v-4.416c0-2.382-1.943-3.826-4.46-3.826zM318.94 66.697h5.891l-3.028-13.93zm7.112 5.835h-8.326l-1.76 8.46-6.624.053 9.721-41.439 5.912-.01 9.62 41.434-6.774-.037z" style="fill:#f20000;fill-rule:evenodd"></path><path d="M345.736 39.56h21.467v5.961h-7.274v35.472h-7.061V45.52h-7.132zM385.59 62.347l6.522 18.57-7.173.076-5.773-17.527h-2.863v17.527h-7.3V39.53h10.94c5.989 0 10.587 2.83 10.587 9.405v4.844c0 3.748-1.466 6.91-4.9 8.55zm-9.287-16.713v12.589h3.53c1.866 0 4.185-2.402 4.185-4.386v-4.132c0-2.712-1.78-4.071-4.468-4.071zM401.996 66.697h5.89l-3.027-13.93zm7.11 5.835h-8.325l-1.76 8.46-6.624.053 9.721-41.439 5.912-.01 9.62 41.434-6.773-.037zM439.838 66.697h5.891l-3.028-13.93zm7.111 5.835h-8.325l-1.76 8.46-6.624.053 9.72-41.439 5.913-.01 9.62 41.434-6.774-.037zM457.39 39.56l6.518.074 9.119 23.642V39.56h6.507l.056 41.49-6.469-.01-9.213-24.217v24.142h-6.518zM491.996 66.697h5.89l-3.027-13.93zm7.11 5.835h-8.325l-1.76 8.46-6.624.053 9.721-41.439 5.912-.01 9.62 41.434-6.773-.037z" style="fill:#b20000;fill-rule:evenodd"></path><path d="M298.272 122.811c-27.39 33.814-46.519 65.845-46.389 93.263.153 31.94 21.024 73.275 35.325 106.2 3.851 8.866 26.288 75.367 23.812 99.488-14.326-27.4-28.614-55.363-42.94-82.764 1.24-7.103.867-14.622 1.65-21 2.693-21.93-21.5-67.877-61.688-66.3-31.057 1.219-39.385 23.79-43.613 48.3-1.639 9.504-.365 17.236 7.425 19.276 11.66 3.053 30.968 5.087 47.775 6.45 8.128.659 8.562 3.46 5.025 8.1-2.573 3.374-6.995 7.711-6.975 10.65.03 4.652 4.044 6.974 7.875 8.55 20.533 8.442 35.4 22.324 47.7 39.9 13.21 20.082 22.093 42.265 21.3 69.15-25.957-58.478-59.804-105.029-118.65-106.8-41.318-1.244-69.867 29.46-72 72.15-1.35 26.986 17.1 57.799 44.55 68.249 17.035 6.485 39.729 11.36 63.224 32.325 2.265 2.02 2.623 6.551 1.575 9.488-.596 1.672-2.414 3.864-4.8 3.862-2.8-.002-3.915-1.32-5.55-2.437-7.583-5.18-13.023-13.637-23.25-15.038-4.245-.581-6.35 4.066-8.1 9-1.365 3.846-4.565 6.989-7.875 9.375-4.781 3.448-12.897 5.584-13.388 16.238-.4 8.685 5.845 13.944 10.313 19.95 4.759 6.396 10.63 12.038 17.025 16.8 3 2.233 6.836 3.81 10.575 3.75 6.741-.11 10.055-5.848 11.925-12.15 1.132-3.817.96-8.385 1.5-11.213.38-1.99 3.071-3.616 5.626-3.638 3.438-.028 4.982 2.161 8.381 1.163 17.625-5.177 24.305-19.91 24.245-33.113-.096-20.806-22.912-44.712-34.95-63.075-4.235-6.463-8.708-12.765-8.774-21.338-.074-9.434 12.32-18.358 24.376-18.414 13.098-.06 26.277 8.936 33.562 23.963 6.292 12.979 20.931 36.04 20.439 58.537-.277 12.634-2.326 18.638-7.65 28.35-4.465 9.07-8.245 15.523-8.4 22.35-.144 6.39 4.244 8.767 9.9 11.4 11.735 5.465 26.712 14.445 29.738 24.225 1.17 3.78-5.436 11.845-18.412 11.475-8.48-.241-27.032-3.441-41.324-3.45-16.333-.008-32.626 4.33-39.15 13.05-2.89 3.866-3.239 9.275-3.3 14.1-.09 7.163-.005 14.244 2.851 21.3 1.39 3.433 3.485 6.666 9.15 6.3 3.705-.238 8.6-3.93 13.05-7.387 5.406-4.2 13.798-6.672 19.2-6.562 5.277.107 16.845 1.436 15.994 5.737-1.326 6.697-4.263 10.397-7.968 12.338-7.269 3.807-10.506 5.792-15.075 11.025-2.287 2.62-4.653 5.65-4.8 9.9-.271 7.856 9.011 14.162 16.05 14.4 7.682.259 15.358-4.363 21-9.525 5.952-5.446 13.1-9.704 21.15-9.75 1.956-.011 5.308-.304 4.95 3.15-.249 2.414-5.044 11.178-7.5 15.975-2.818 5.507-6.833 12.183-6.9 18.825-.064 6.366 4.562 10.295 7.276 14.7 9.243 15 13.1 38.9 13.35 60.825" style="fill:none"></path><path d="M251.884 216.074c-.13-27.3 18.835-59.176 46.038-92.83H87.294v559.18c0 40.104 36.944 58.109 77.842 72.435l132.56 46.436c-.37-21.603-4.253-44.926-13.333-59.662-2.714-4.404-7.34-8.333-7.276-14.699.067-6.642 4.082-13.319 6.9-18.825 2.456-4.797 7.251-13.56 7.5-15.975.358-3.454-2.994-3.162-4.95-3.15-8.05.046-15.198 4.304-21.15 9.75-5.642 5.162-13.318 9.784-21 9.525-7.039-.238-16.321-6.544-16.05-14.4.147-4.25 2.513-7.28 4.8-9.9 4.569-5.233 7.807-7.218 15.075-11.026 3.706-1.94 6.642-5.64 7.968-12.337.851-4.301-10.717-5.63-15.994-5.737-5.402-.11-13.794 2.362-19.2 6.562-4.45 3.458-9.345 7.149-13.05 7.388-5.665.365-7.76-2.868-9.15-6.3-2.856-7.057-2.942-14.138-2.85-21.3.06-4.827.408-10.235 3.3-14.1 6.523-8.721 22.816-13.06 39.15-13.05 14.29.007 32.843 3.208 41.323 3.45 12.976.369 19.582-7.697 18.412-11.476-3.026-9.78-18.003-18.76-29.738-24.225-5.656-2.634-10.044-5.01-9.9-11.4.155-6.827 3.935-13.28 8.4-22.35 5.324-9.712 7.373-15.716 7.65-28.35.492-22.497-14.147-45.559-20.439-58.537-7.285-15.027-20.464-24.023-33.562-23.963-12.056.056-24.45 8.98-24.377 18.414.067 8.573 4.54 14.875 8.776 21.337 12.037 18.364 34.853 42.27 34.949 63.076.06 13.204-6.62 27.936-24.245 33.113-3.399.998-4.943-1.191-8.381-1.163-2.555.022-5.245 1.649-5.626 3.638-.54 2.828-.368 7.396-1.5 11.212-1.87 6.303-5.184 12.04-11.925 12.15-3.74.061-7.575-1.517-10.575-3.75-6.394-4.76-12.266-10.403-17.025-16.8-4.468-6.006-10.714-11.264-10.313-19.95.491-10.653 8.607-12.79 13.388-16.237 3.31-2.386 6.51-5.529 7.875-9.375 1.75-4.934 3.855-9.581 8.1-9 10.227 1.401 15.667 9.857 23.25 15.038 1.635 1.116 2.75 2.435 5.55 2.437 2.386.002 4.204-2.19 4.8-3.862 1.048-2.937.69-7.467-1.575-9.488-23.496-20.964-46.19-25.84-63.225-32.325-27.45-10.45-45.899-41.263-44.55-68.25 2.134-42.69 30.683-73.393 72-72.15 58.847 1.772 92.694 48.323 118.65 106.8.794-26.884-8.09-49.067-21.3-69.15-12.3-17.575-27.166-31.457-47.7-39.9-3.83-1.575-7.844-3.897-7.874-8.55-.02-2.938 4.402-7.276 6.975-10.65 3.538-4.64 3.103-7.44-5.025-8.1-16.807-1.362-36.115-3.396-47.775-6.45-7.79-2.04-9.064-9.77-7.425-19.275 4.228-24.51 12.556-47.081 43.613-48.3 40.188-1.577 64.381 44.37 61.688 66.3-.783 6.378-.41 13.897-1.65 21 14.326 27.4 28.614 55.364 42.94 82.764 2.476-24.121-19.96-90.622-23.812-99.489-14.301-32.924-35.172-74.26-35.325-106.2" style="fill:#f20000;fill-rule:evenodd"></path><path d="M398.504 275.78h9v8.344h7.819v9.038h-7.82v30.469h-9v-30.47h-8.418v-9.037h8.419z" style="fill:#b20000;fill-rule:evenodd"></path><path d="m339.797 352.548 41.7-27.873v-159.5h42.226v158.95l42.075 28.227V165.138h42.687v-41.895H297.922c-11.598 14.348-21.698 28.373-29.46 41.858h71.335z" style="fill:#b20000;fill-rule:evenodd" data-source="https://football-logos.cc"></path><path d="M339.72 479.16c.075-11.201 10.89-19.83 20.7-19.65 11.028.202 21.45 9 21.15 19.2" style="fill:none"></path><path d="M360.42 459.51c-9.36-.173-19.634 7.675-20.623 18.123v309.089l41.7-14.705V476.763c-.969-9.349-10.758-17.064-21.077-17.254" style="fill:#b20000;fill-rule:evenodd"></path><path d="M423.699 481.032c.037-14.262 11.09-21.573 21.149-21.526 10.288.048 21.075 8.413 21.038 20.475" style="fill:none"></path><path d="M444.848 459.506c-9.8-.046-20.546 6.894-21.125 20.443v277.178l19.97-7.042c5.33-1.88 13.423-5.453 22.105-10.556V478.052c-1.043-11.016-11.22-18.5-20.95-18.546" style="fill:#b20000;fill-rule:evenodd"></path><path d="M381.433 434.904V332.112q0 19.842 19.842 19.842h2.315q19.843 0 19.843-19.842v102.792z" style="fill:#b20000;fill-rule:evenodd;stroke:#1b1918;stroke-width:.56690001;stroke-linecap:butt;stroke-linejoin:miter;stroke-dasharray:none"></path><path d="M381.498 434.904h41.935v-63.107c0-10.914-8.93-19.843-19.843-19.843h-2.315c-10.372 0-18.952 8.066-19.777 18.236q-.065.795-.065 1.607v63.107z" style="fill:#b20000;fill-rule:evenodd" data-source="https://football-logos.cc"></path><!-- source: https://football-logos.cc --></svg>