<svg xmlns="http://www.w3.org/2000/svg" xml:space="preserve" id="Livello_1" x="0" y="0" version="1.1" viewBox="70.09 23.7 432.71 563.2"><!-- Source: https://football-logos.cc --><style data-source="https://football-logos.cc">.st1{fill:#030415}.st2{fill:#fff}.st3{fill:#fe170e}.st4{fill:#b48b37}</style><path d="M494.7 403.7v-372H78.4V404l-.1.6c0 .3-3.6 29.7 19.9 65.5 13.9 21.2 34.5 40.5 61.1 57.4 33.2 21 76 38.3 127.1 51.2h.3c49.8-11.3 91.7-27.5 124.6-48.2 26.4-16.6 47-36 61.3-57.8 12.7-19.3 18-36.9 20.2-48.2 2.4-12.4 1.8-20.3 1.8-20.4zm-15.1 18.5c-.1.3-.1.7-.2 1-1.7 9.2-5.4 21.2-12.8 34.5l-.9 1.5c-2.1 3.6-4.4 7.3-7.1 11.1-3.4 4.8-7.4 9.8-12 14.8-1.5 1.7-3.1 3.3-4.8 5l-1.7 1.7c-1.7 1.7-3.5 3.3-5.4 5-1.2 1.1-2.5 2.2-3.8 3.3s-2.6 2.2-4 3.3c-.7.6-1.4 1.1-2.1 1.7-2.1 1.7-4.3 3.3-6.6 5-.8.6-1.5 1.1-2.3 1.7-1.6 1.1-3.1 2.2-4.8 3.3-.8.5-1.6 1.1-2.5 1.6-1.7 1.1-3.4 2.2-5.1 3.2-4.4 2.7-9 5.4-13.8 8-1.9 1-3.9 2.1-6 3.1-25.3 12.9-57.3 24.7-97.5 34-22.2-4.7-41.9-10.2-59.3-16.5-3.7-1.3-7.4-2.7-10.9-4.1-2.4-.9-4.7-1.9-6.9-2.8-1.1-.5-2.3-1-3.4-1.4-2.2-1-4.4-1.9-6.5-2.9l-6.3-3q-3.15-1.5-6-3c-3-1.5-5.8-3.1-8.6-4.6-1.9-1-3.7-2.1-5.4-3.2-1.8-1.1-3.5-2.1-5.2-3.2s-3.4-2.1-5-3.2c-.8-.5-1.6-1.1-2.4-1.6-2.4-1.6-4.7-3.3-6.9-4.9-1.5-1.1-2.9-2.2-4.3-3.3-.7-.6-1.4-1.1-2.1-1.7-2.1-1.7-4-3.3-6-5s-3.7-3.4-5.5-5c-2.9-2.8-5.7-5.6-8.2-8.4-6.7-7.3-12.1-14.5-16.5-21.5-8.8-14-13.6-26.9-16.1-37.2-.7-2.7-1.2-5.2-1.6-7.5s-.7-4.4-.9-6.3c-.1-.6-.1-1.2-.2-1.8-.4-5.1-.2-8.1-.2-8.1V134.4h389v270.5s.7 6.6-1.2 17.3m1.7-294.8h-390V49.7h390z" style="fill:#835d3e"></path><path d="M502.7 403.4V23.7H70.4v379.7S52.7 528.3 286.6 586.9c227.8-51 216.1-183.5 216.1-183.5m-9.8 21.1c-2.2 11.4-7.5 29-20.2 48.2-14.3 21.8-35 41.2-61.3 57.8-32.9 20.7-74.8 36.9-124.6 48.2h-.3c-51.1-13-93.9-30.2-127.1-51.2-26.6-16.9-47.2-36.2-61.1-57.4-23.5-35.8-20-65.2-19.9-65.5l.1-.6V31.7h416.3V404c0 .2.6 8.1-1.9 20.5" class="st1"></path><path d="M91.3 127.4h390V49.7h-390zm326.8-24.7h2.4l.1.1c.1.1 6.6 5.7 19.9 5.7 12.9 0 13.2-6.9 13.2-7.2v-.1c0-.1.4-1.4-.7-2.8-1.2-1.6-4.4-3.6-13-3.6-17.4 0-22-11.6-22-17.8 0-2.4.6-6.9 4.9-10.6 4.2-3.6 10.8-5.4 19.7-5.4 19.3 0 21.2 3.8 21.3 4.2V76h-3.4l-.1-.2c-.1-.1-5.2-5.6-18.7-5.6-4.9 0-8.6 1.1-10.6 3.1-1.6 1.6-1.5 3.3-1.5 3.3 0 .1-.4 2.7 1.5 4.9 1.8 2.1 5.1 3.2 9.8 3.2 15.4 0 25.3 6.4 25.3 16.3 0 9-6.6 18.6-25.3 18.6-17.2 0-22.5-5.4-22.7-5.6l-.1-.1zM363 60.9h45v10.9h-32.3v10h30.4v10.9h-30.4v16.1H408v9.9h-45zm-62.9-.3h28.3c9.8 0 17.7 7.9 17.7 17.5 0 7.1-4.4 13.5-10.9 16.2l24.2 24h-17.9l-20.7-21.7h-8.3v21.7H300V60.6zm-62.4 0H266c9.8 0 17.7 7.9 17.7 17.5 0 7.1-4.4 13.5-10.9 16.2l24.2 24h-17.9l-20.7-21.7h-8.3v21.7h-12.5V60.6zm-40.5-.7c16.3 0 29.5 13.4 29.5 29.9s-13.3 29.9-29.5 29.9-29.5-13.4-29.5-29.9 13.2-29.9 29.5-29.9m-89.8.5h55.5v10.4h-22v47.8H129v-48h-21.6z" class="st2"></path><path d="M269.3 79c0-4.1-3.3-7.5-7.5-7.5h-11.5v14.9h11.5c4.2 0 7.5-3.3 7.5-7.4M332.3 79c0-4.1-3.3-7.5-7.5-7.5h-11.5v14.9h11.5c4.1 0 7.5-3.3 7.5-7.4M197.2 107.8c9 0 16.3-8.1 16.3-18.1s-7.3-18.1-16.3-18.1-16.3 8.1-16.3 18.1 7.3 18.1 16.3 18.1" class="st2"></path><path d="M206.1 253.2h66.7v70.2h-66.7zM206.1 141.4h66.7v69.2h-66.7zM98.8 253.2H165v70.2H98.8zM98.8 141.4H165v69.2H98.8z" class="st1"></path><path d="M473.8 141.5H298.4v183h175.4zm-135.6 25.7h31.3v10.9h9v-10.9h15.3v10.9h8.3v-10.9h33.3V189h-97.2zm95.1 62.9.6 4h-94.1l.6-4zm-92.4-3 5.1-33.6h82l5 33.6zm57.7 64.4h-67.4l8.2-54.3h95l8.1 54.3z" class="st3"></path><path d="M406.1 201.5c-5.8 0-6.5 5-6.5 5v9.3h13v-8.5s-.7-5.8-6.5-5.8M386.7 264.7c-4.2 0-6.5 2.1-7.8 4.2-1.1 1.7-1.6 3.7-1.6 5.8v15.9h18.8v-15.9c0-2-.5-4.1-1.6-5.8-1.3-2.2-3.7-4.2-7.8-4.2M367.3 201.5c-5.8 0-6.5 5-6.5 5v9.3h13v-8.5s-.8-5.8-6.5-5.8" class="st3"></path><path d="M406.6 460.2v49.6c20.2-13.5 36.3-28.8 47.7-45.5.6-.9 1.3-1.9 1.9-2.8v-1.2h-49.6zM298.9 460.2v94.6c24.6-6.3 46.9-14 66.7-22.8v-71.9h-66.7zM298.9 347.4h66.7v70.2h-66.7z" class="st1"></path><path d="M195.4 472.9c0-2-.5-4.1-1.6-5.8-1.3-2.1-3.7-4.2-7.8-4.2-4.2 0-6.5 2.1-7.8 4.2-1.1 1.7-1.6 3.7-1.6 5.8v15.9h18.8zM205.4 399.8c-5.8 0-6.5 5-6.5 5v9.3h13v-8.5c.1 0-.7-5.8-6.5-5.8" class="st3"></path><path d="M98.8 348.5v57c0 .3-1.5 28.1 20.5 60.5 3.7 5.4 7.8 10.6 12.4 15.7l7-46.2h95l8.1 54.3H139.6c10 9.7 21.8 18.6 35.1 26.8 26.4 16.1 59.2 28.9 97.7 38.2V348.5zm40.4 83.9.6-4h92.9l.6 4zm1-7 5.1-33.6h82l5 33.6zm94.6-38.1h-97.2v-21.8h31.3v10.9h9v-10.9h15.3v10.9h8.3v-10.9h33.3z" class="st3"></path><path d="M166.6 399.8c-5.8 0-6.5 5-6.5 5v9.3h13v-8.5s-.7-5.8-6.5-5.8" class="st3"></path><path d="M480.8 134.4h-389v270.5s-.2 2.9.2 8.1c0 .6.1 1.2.2 1.8q.3 2.85.9 6.3c.6 3.45.9 4.8 1.6 7.5 2.6 10.3 7.3 23.3 16.1 37.2 4.4 7 9.8 14.2 16.5 21.5 2.6 2.8 5.3 5.6 8.2 8.4 1.8 1.7 3.6 3.4 5.5 5s3.9 3.3 6 5c.7.6 1.4 1.1 2.1 1.7 1.4 1.1 2.8 2.2 4.3 3.3 2.2 1.7 4.5 3.3 6.9 4.9.8.5 1.6 1.1 2.4 1.6 1.6 1.1 3.3 2.2 5 3.2s3.4 2.1 5.2 3.2 3.6 2.1 5.4 3.2c2.8 1.6 5.6 3.1 8.6 4.6l6 3c2.1 1 4.1 2 6.3 3 2.1 1 4.3 2 6.5 2.9 1.1.5 2.2 1 3.4 1.4 2.3.9 4.6 1.9 6.9 2.8 3.5 1.4 7.2 2.7 10.9 4.1 17.4 6.2 37.1 11.8 59.3 16.5 40.2-9.3 72.2-21.1 97.5-34 2-1 4-2.1 6-3.1 4.9-2.6 9.5-5.3 13.8-8 1.7-1.1 3.4-2.2 5.1-3.2.8-.5 1.7-1.1 2.5-1.6l4.8-3.3c.8-.5 1.5-1.1 2.3-1.7 2.3-1.7 4.5-3.3 6.6-5 .7-.6 1.4-1.1 2.1-1.7 1.4-1.1 2.7-2.2 4-3.3s2.6-2.2 3.8-3.3c1.9-1.7 3.6-3.3 5.4-5l1.7-1.7c1.7-1.7 3.3-3.3 4.8-5 4.6-5 8.6-9.9 12-14.8 2.7-3.8 5-7.5 7.1-11.1l.9-1.5c7.4-13.3 11.1-25.3 12.8-34.5.1-.4.1-.7.2-1 1.9-10.7 1.2-17.3 1.2-17.3zM365.5 417.6h-66.7v-70.2h66.7zm-67.1-93.2v-183h175.4v183zm-25.6-183v69.2h-66.7v-69.2zm-66.7 111.8h66.7v70.2h-66.7zM98.8 141.4H165v69.2H98.8zm0 111.8H165v70.2H98.8zm75.9 263.3c-13.3-8.1-25.1-17.1-35.1-26.8h102.2l-8.1-54.3h-95l-7 46.2c-4.6-5.1-8.7-10.3-12.4-15.7-22.1-32.4-20.6-60.3-20.5-60.5v-57h173.5v206.3c-38.4-9.3-71.2-22.1-97.6-38.2m1.9-27.7v-15.9c0-2 .5-4.1 1.6-5.8 1.3-2.1 3.7-4.2 7.8-4.2 4.2 0 6.5 2.1 7.8 4.2 1.1 1.7 1.6 3.7 1.6 5.8v15.9zm122.3 66v-94.6h66.7v71.9c-19.9 8.8-42.2 16.4-66.7 22.7m155.5-90.5c-11.5 16.8-27.5 32.1-47.7 45.5v-49.6h49.6v1.2c-.7 1-1.3 1.9-1.9 2.9m18.9-46.7h-66.7v-70.2h66.7v70.2" class="st2"></path><path d="M406.6 347.4v70.2h66.7v-70.2z" class="st1"></path><path d="M435.4 167.2h-33.3v10.9h-8.3v-10.9h-15.3v10.9h-9v-10.9h-31.3V189h97.2zM346 193.5l-5.1 33.6h92l-5-33.6zm27.8 22.3h-13v-9.3s.8-5 6.5-5 6.5 5.8 6.5 5.8zm38.8 0h-13v-9.3s.8-5 6.5-5 6.5 5.8 6.5 5.8zM339.8 234.1h94.1l-.6-4h-92.9zM339.4 237.1l-8.2 54.3h111.2l-8.1-54.3zm56.7 53.4h-18.8v-15.9c0-2 .5-4.1 1.6-5.8 1.3-2.1 3.7-4.2 7.8-4.2s6.5 2.1 7.8 4.2c1.1 1.7 1.6 3.7 1.6 5.8zM201.4 376.4h-8.2v-10.9h-15.3v10.9h-9.1v-10.9h-31.3v21.8h97.3v-21.8h-33.4zM145.3 391.8l-5.1 33.6h92l-5-33.6zm27.8 22.3h-13v-9.3s.8-5 6.5-5c5.8 0 6.5 5.8 6.5 5.8zm38.9 0h-13v-9.3s.8-5 6.5-5 6.5 5.8 6.5 5.8zM139.8 428.4l-.6 4h94.1l-.6-4z" class="st2"></path><path d="M130 117.6h9.9V69.8h22v-8.4h-53.5v8.2H130z" class="st1" data-source="https://football-logos.cc"></path><path d="M129 118.6h11.9V70.8h22V60.4h-55.5v10.2H129zm-20.6-49v-8.2h53.5v8.4h-22v47.8H130v-48z" class="st4"></path><path d="M197.2 118.6c15.7 0 28.5-13 28.5-28.9s-12.8-28.9-28.5-28.9-28.5 13-28.5 28.9c0 16 12.8 28.9 28.5 28.9m0-47.9c9.5 0 17.3 8.5 17.3 19.1 0 10.5-7.8 19.1-17.3 19.1s-17.3-8.5-17.3-19.1c0-10.5 7.8-19.1 17.3-19.1" class="st1"></path><path d="M197.2 119.6c16.3 0 29.5-13.4 29.5-29.9s-13.3-29.9-29.5-29.9-29.5 13.4-29.5 29.9 13.2 29.9 29.5 29.9m0-58.7c15.7 0 28.5 13 28.5 28.9s-12.8 28.9-28.5 28.9-28.5-13-28.5-28.9c0-16 12.8-28.9 28.5-28.9" class="st4"></path><path d="M197.2 108.8c9.5 0 17.3-8.5 17.3-19.1 0-10.5-7.8-19.1-17.3-19.1s-17.3 8.5-17.3 19.1 7.8 19.1 17.3 19.1m0-37.1c9 0 16.3 8.1 16.3 18.1s-7.3 18.1-16.3 18.1-16.3-8.1-16.3-18.1 7.3-18.1 16.3-18.1" class="st4"></path><path d="M374.7 91.7h30.4v-8.9h-30.4v-12H407v-8.9h-43v55.7h43v-7.8h-32.3z" class="st1"></path><path d="M408 108.8h-32.3V92.7h30.4V81.8h-30.4v-10H408V60.9h-45v57.7h45zm-1 8.8h-43V61.9h43v8.9h-32.3v12h30.4v8.9h-30.4v18.1H407z" class="st4"></path><path d="M465.3 101c0-9.4-9.3-15.3-24.3-15.3-5 0-8.5-1.2-10.6-3.6-2-2.4-1.7-5.1-1.7-5.5 0-.3.1-2.2 1.8-4 2.2-2.3 6-3.4 11.3-3.4 12.8 0 18.3 4.8 19.3 5.7h1.9v-9.4c-.3-.5-3.1-3.5-20.4-3.5-21.3 0-23.6 10.5-23.6 15 0 5.8 4.4 16.8 21 16.8 7.2 0 11.9 1.3 13.8 4 1.2 1.7.9 3.3.8 3.6 0 .4-.2 2.3-1.9 4.1-2.4 2.7-6.5 4-12.3 4-12.7 0-19.3-4.9-20.4-5.8h-1v9.7c.9.8 6.6 5.2 21.9 5.2 18 0 24.4-9.1 24.4-17.6" class="st1"></path><path d="M441 119.6c18.7 0 25.3-9.6 25.3-18.6 0-9.9-9.9-16.3-25.3-16.3-4.7 0-8-1.1-9.8-3.2-1.9-2.2-1.5-4.7-1.5-4.9 0-.1 0-1.7 1.5-3.3 2-2 5.6-3.1 10.6-3.1 13.5 0 18.7 5.5 18.7 5.6l.1.2h3.4V65.2c-.1-.4-2-4.2-21.3-4.2-8.9 0-15.5 1.8-19.7 5.4s-4.9 8.2-4.9 10.6c0 6.2 4.6 17.8 22 17.8 8.5 0 11.8 1.9 13 3.6 1.1 1.4.7 2.8.7 2.8v.1c0 .3-.3 7.2-13.2 7.2-13.3 0-19.8-5.6-19.9-5.7l-.1-.1h-2.4v11.1l.1.1c.2.4 5.5 5.7 22.7 5.7m-21.9-15.9h1c1.1.9 7.7 5.8 20.4 5.8 5.8 0 10-1.4 12.3-4 1.7-1.9 1.9-3.7 1.9-4.1.1-.4.4-2-.8-3.6-1.9-2.6-6.6-4-13.8-4-16.6 0-21-11-21-16.8 0-4.5 2.3-15 23.6-15 17.2 0 20 3 20.4 3.5v9.4h-1.9c-1-1-6.5-5.7-19.3-5.7-5.3 0-9.1 1.2-11.3 3.4-1.7 1.8-1.8 3.6-1.8 4-.1.4-.3 3.1 1.7 5.5s5.6 3.6 10.6 3.6c15 0 24.3 5.9 24.3 15.3 0 8.5-6.4 17.6-24.3 17.6-15.2 0-20.9-4.4-21.9-5.2v-9.7z" class="st4"></path><path d="M341.9 117.3h15l-23.6-23.4.7-.3c6.6-2.4 11-8.6 11-15.5 0-9.1-7.5-16.5-16.7-16.5H301v55.7h10.5V95.7h9.7zm-29.5-46.8h12.5c4.7 0 8.5 3.8 8.5 8.5s-3.8 8.5-8.5 8.5h-12.5z" class="st1"></path><path d="M312.6 96.7h8.3l20.7 21.7h17.9l-24.2-24c6.6-2.7 10.9-9.1 10.9-16.2 0-9.7-8-17.5-17.7-17.5h-28.3v57.7h12.5V96.7zm-1 20.6h-10.5V61.6h27.3c9.2 0 16.7 7.4 16.7 16.5 0 6.9-4.4 13.1-11 15.5l-.7.3 23.6 23.4h-15l-20.7-21.7h-9.7z" class="st4"></path><path d="M333.3 79c0-4.7-3.8-8.5-8.5-8.5h-12.5v16.9h12.5c4.7 0 8.5-3.8 8.5-8.4m-19.9-7.5h11.5c4.1 0 7.5 3.3 7.5 7.5 0 4.1-3.3 7.5-7.5 7.5h-11.5z" class="st4"></path><path d="M279.5 117.3h15L271 93.9l.7-.3c6.6-2.4 11-8.6 11-15.5 0-9.1-7.5-16.5-16.7-16.5h-27.3v55.7h10.5V95.7h9.7zm-30.1-46.8h12.5c4.7 0 8.5 3.8 8.5 8.5s-3.8 8.5-8.5 8.5h-12.5z" class="st1"></path><path d="M250.2 96.7h8.3l20.7 21.7H297l-24.2-24c6.6-2.7 10.9-9.1 10.9-16.2 0-9.7-8-17.5-17.7-17.5h-28.3v57.7h12.5zm-1 20.6h-10.5V61.6H266c9.2 0 16.7 7.4 16.7 16.5 0 6.9-4.4 13.1-11 15.5l-.7.3 23.6 23.4h-15l-20.7-21.7h-9.7z" class="st4"></path><path d="M270.3 79c0-4.7-3.8-8.5-8.5-8.5h-12.5v16.9h12.5c4.7 0 8.5-3.8 8.5-8.4m-19.9-7.5h11.5c4.1 0 7.5 3.3 7.5 7.5 0 4.1-3.3 7.5-7.5 7.5h-11.5z" class="st4" data-source="https://football-logos.cc"></path><!-- source: https://football-logos.cc --></svg>