<svg xmlns="http://www.w3.org/2000/svg" viewBox="51.28 29.11 492.86 783.52"><!-- Source: https://football-logos.cc --><path d="M294 461.098q.423.029.847.107c1.395.258 2.627.911 3.663 1.875a96 96 0 0 1 3.029 2.929c.983.997 2.386 2.415 3.064 3.628 1.698 3.034 1.504 7.308 1.3 10.68-.123 2.026-.79 8.078.561 9.668.36.424.754.732 1.316.815 1.149.168 3.31-.616 4.485-.885a12 12 0 0 1 2.234-.318c4.918-.18 8.504 2.523 7.904 7.72l-.203 1.759-29.358-.045-.38-1.494c-.48-1.894-.46-3.714-.326-5.644.092-1.324.268-2.835.05-4.147-.235-1.42-.943-2.4-2.05-3.295-.416-.324-1.533-.771-2.033-.983-1.284-.543-2.586-1.046-3.879-1.565-1.795-.72-3.92-1.537-5.585-2.545l-.076.31c-1.651 6.742-4.785 11.79-10.4 15.874-1.911 1.39-3.931 2.54-5.927 3.79-1.519.951-3.125 2.027-4.29 3.405-1.705 2.016-2.12 4.417-2 6.912.802.036 1.599.081 2.436.225 2.798.482 5.135 1.893 5.763 4.856.312 1.473.936 3.648-.88 4.47a1.95 1.95 0 0 1-1.078.175c-2.422 1.432-6.74 1.427-9.218.983-7.127-1.275-10.122-6.449-7.723-13.426.846-2.462.991-5.08 1.837-7.596.72-2.144 1.811-3.886 3.342-5.536 1.04-1.121 2.267-2.126 3.242-3.287.534-.635.953-1.297 1.225-2.085 1.05-3.037.764-8.595-.172-12.572-1.038 1.19-1.888 2.621-2.904 3.841-1.626 1.955-3.467 3.265-5.947 3.932-7.546 2.028-12.377-4.342-12.568-11.276-.172-6.228 2.177-11.158 6.162-15.782 1.568-1.82 3.281-3.477 4.954-5.194 1.177-1.208 2.46-2.556 3.378-4.002.15-2.229-.155-4.11-.553-6.33-.762-4.264-.812-7.264.364-11.517l.478-1.729 1.768.302c4.13.704 7.073 5.49 7.817 9.295 1.39 7.102-2.678 13.593-7.636 18.292-2.304 2.183-4.737 4.112-6.846 6.514-3.95 4.499-5.151 8.763-1.565 13.735 1.74.1 3.467-.168 4.857-1.33 2.505-2.095 3.792-7.234 4.743-10.267 1.475-4.707 3.567-9.261 6.946-12.915 2.432-2.631 5.1-4.323 8.11-6.18 3.297-2.033 5.923-3.82 8.223-7.032 1.5-2.095 2.835-5.577 3.522-8.041q.07-.251.146-.552l-.951-.576c-1.482-.896-2.616-2.12-3.352-3.69-1.113-2.373-1.117-5.08-1.047-7.65l-.15.152-1.947 1.914-1.22-2.442c-2.266-4.539-4.458-10.179-3.683-15.4l-.655.393-.981-1.842c-1.713-3.213-.657-8.17.674-11.34 1.727-4.118 4.67-7.648 8.565-9.793l-.025-.065c-.416-.73-.628-1.46-.748-2.306l-.152-1.076.824-.708c.82-.704 1.601-1.453 2.474-2.093 1.494-1.096 3.019-1.669 4.72-1.93a2.2 2.2 0 0 1 .25-.847q.084-.156.173-.309.327-.557.662-1.11c.585-.97 1.27-1.818 2.365-2.228.767-.287 1.502-.27 2.302-.286a13.7 13.7 0 0 0 2.605-.292l.155-.033 15.467-.735.366.129c2.298.81 4.334 2.026 5.178 4.436.786 2.247.25 4.175 1.61 6.402 1.231 2.02 4.43 5.292 6.85 5.658l.677.102.47.498c1.035 1.097 2.479 1.69 3.552 2.824 1.258 1.327 1.67 2.946 1.604 4.741l-.01.276-3.075 9.494-1.296.125c-2.43.234-5.441.231-7.952.792l.054 1.796c.48.275.926.603 1.247 1.056.335.471.516.959.894 1.465 1.419 1.9 2.723 3.842 4.069 5.79.235.342.977 1.433 1.456 1.925.836-.695 2.546-2.92 2.968-3.458 2.82-3.581 5.629-7.086 8.632-10.522 2.472-2.826 5.799-5.204 9.64-5.54 2.981-.262 5.956.809 7.79 3.24 1.31 1.735 1.8 3.876 1.502 6.02l-.15 1.075-.985.454c-2.069.953-4.111 1.503-6.391 1.55-.741.016-2.322-.138-2.976.038-1.06.286-2.204 3.18-2.55 4.037-1.777 4.416-4.77 8.72-7.255 12.79-3.007 4.924-6.012 7.402-9.18 8.34 1.328.554 2.57 1.248 3.854 2.045 4.561 2.835 9.362 8.46 7.945 14.234-.956 3.894-4.403 6.024-8.053 7.008l-2.009.541-.445-2.032c-1.094-4.984-5.093-10.67-10.747-10.167-.613.714-1.664 2.68-2.016 3.301-.755 1.336-1.705 3.065-2.814 4.12-.743.709-1.317 1.56-2.367 1.7-2.456 3.976-6.495 6.901-10.58 9.487m167.213 18.217-.122.072c-1.802 1.063-4.137 1.912-6.09 2.696-1.165.469-4.988 1.93-5.813 2.716-1.294 1.232-1.912 2.453-1.953 4.24-.03 1.251.185 2.547.287 3.796.137 1.68.1 3.271-.405 4.897l-.433 1.395-29.437.017-.186-1.78c-.235-2.247.079-4.613 1.938-6.126 3.414-2.78 9.3-.567 13.496-.78a6.1 6.1 0 0 0 1.136-2.24c.368-1.368.315-2.916.225-4.318-.13-2.04-.349-4.047-.38-6.098-.054-3.382.226-6.735 2.31-9.534 1.206-1.62 2.9-2.97 4.336-4.393 1.613-1.599 3.583-2.618 5.86-2.736l-.442-.308a97 97 0 0 1-11.818-9.75c-1.709-1.653-2.749-3.33-3.931-5.352-.68-1.164-1.336-2.225-2.21-3.216-5.554-.342-9.39 5.33-10.533 10.21l-.462 1.976-1.965-.507c-2.323-.6-4.92-1.379-6.506-3.3-1.788-2.166-1.762-5.098-1.404-7.735.844-6.222 6.109-10.188 11.784-12.393-4.627-1.218-8.91-5.308-9.896-9.893-2.167-1.906-2.348-3.193-3.879-5.705-.58-.955-1.22-1.924-1.745-2.908-.61-1.149-1.1-2.439-1.593-3.643-.369-.9-1.036-2.45-2.064-2.794-.8-.269-2.345-.19-3.215-.226-2.213-.094-4.156-.522-6.19-1.422l-1.028-.455-.138-1.116c-.759-6.14 3.005-9.018 8.786-9.182.76-.022 1.52.046 2.265.199 4.714.966 8.422 5.222 11.202 8.88 1.862 2.449 3.56 5.077 5.495 7.456.47.576 2.08 2.489 3.025 2.714.712-.662 1.302-1.567 1.8-2.355.935-1.477 1.79-2.938 2.88-4.318 1.362-1.728 3.213-3.22 2.628-5.345l-9.16-.673-.362-1.367c-.258-.975-.35-1.671-.441-2.651-.03-.325-.225-.773-.387-1.122-2.472-3.037-2.668-6.985.277-9.909l.078-.077 3.642-2.889.54-.074c2.309-.315 5.327-3.36 6.582-5.198 1.624-2.379 1.01-3.932 1.738-6.375.537-1.8 1.698-3.013 3.29-3.959 2.498-1.486 4.631-1.972 7.487-1.48 1.29.224 2.462.55 3.79.448l.22-.016 14.795 2.171-.455 3.572c1.686.167 3.299.588 4.792 1.555 1.142.74 2.11 1.718 3.092 2.652l.757.72-.165 1.031c-.163 1.017-.31 1.627-.73 2.319 3.116 1.718 6.17 4.577 7.533 7.651 1.736 3.912 3.893 9.55 1.568 13.597l-1.008 1.754-.477-.286q.06.4.098.802c.47 5.013-1.632 10.195-4.104 14.447l-1.614 2.777-1.203-1.836q-.01.27-.026.541c-.22 3.985-1.107 8.333-4.94 10.383l-.679.364c.737 3.357 2.26 6.674 4.042 9.037 1.672 2.217 4.943 4.555 7.212 6.169 1.964 1.397 3.968 2.737 5.929 4.137 5.818 4.155 8.166 9.34 10.006 16.105.83 3.052 2.094 7.58 4.693 9.61 1.364 1.066 2.982 1.371 4.648 1.301 1.672-2.203 2.63-4.693 1.965-7.519-1.2-5.089-6.804-9.227-10.395-12.652-4.936-4.708-9.007-11.228-7.633-18.32.753-3.884 3.721-8.62 7.91-9.358l1.764-.31.49 1.722c1.044 3.677 1.276 8.674.426 12.399-.494 2.165-1.039 5.103.323 7.078.498.722 1.204 1.353 1.867 1.922.999.858 2.012 1.674 2.973 2.579 3.111 2.93 5.221 6.27 6.865 10.208 2.265 5.429 2.915 13.642-1.816 18.018a8.95 8.95 0 0 1-3.564 2.017c-2.455.727-4.865.6-7.148-.592-1.65-.86-3.004-2.151-4.219-3.54-.725-.829-1.878-2.404-2.995-3.638-1.403 4.554-1.773 9.268.833 13.588 2.023 3.353 5.778 6.17 6.982 9.83.742 2.255 1.45 4.514 1.927 6.842.708 3.448 1.062 7.732-1.044 10.785-1.655 2.4-4.316 3.332-7.13 3.465-2.148.101-4.632.216-6.763-.085-1.548-.218-3.132-.736-3.915-2.21-.569-1.07-.493-2.245-.254-3.39.278-1.339.952-2.485 2.019-3.344 1.861-1.497 4.015-1.664 6.213-1.768.147-2.04.058-4.32-1.03-5.937-.954-1.414-2.74-2.557-4.158-3.456-2.766-1.754-5.487-3.39-8.151-5.32-3.85-2.79-6.26-5.79-7.663-10.343-.531-1.724-.891-3.494-1.352-5.238" style="fill:#4c4b4b;fill-rule:evenodd" data-source="https://football-logos.cc"></path><path d="M421.068 429.145c7.887.168 11.037-3.346 16.188-4.527l-1.285 3.083c-4.808.802-6.44 2.395-11.388 3.366-6.436 1.261-14.91 5.01-15.906 12.357-.836 6.159 1.351 7.534 6.44 8.847 1.423-6.084 6.362-12.674 13.41-11.653 2.938 2.978 3.38 5.946 6.575 9.036 13.221 12.788 19.764 12.497 25.384 22.45 4.844 8.578 1.676 14.498 10.906 21.185 10.612 7.688 15.324 6.924 13.982 18.213-2.091.145-7.283-.29-8.096 3.622-.597 2.866.447 3.699 8.895 3.3 10.261-.485 6.466-12.383 4.456-18.49-2.095-6.369-13.742-9.632-6.854-27.401 4.093 2.086 6.826 11.567 14.723 9.23 6.066-1.794 7.038-10.357 4.112-17.367-6.169-14.781-15.074-10.1-12.131-22.994.825-3.617.469-8.353-.401-11.415-4.742.834-12.325 11.818.748 24.288 4.953 4.724 16.882 13.02 8.071 23.52-7.985.858-10.344-5.235-12.267-12.303-1.926-7.081-4.24-11.438-9.244-15.011-4.349-3.105-10.957-7.26-13.572-10.726-3.501-4.64-5.803-12.062-4.58-17.576l1.866 5.23c6-3.208 2.852-14.517 4.652-17.779.12.134.282.186.316.437l1.25 4.175c.836 2.92.088.99.785 2.055 2.604-4.48 5.2-10.763 3.18-16.225-.8-2.162-1.82-2.771-.83-4.794 1.798 2.583.472 2.711 3.135 4.31 1.871-3.255-.151-8.403-1.66-11.803-1.48-3.333-5.268-6.27-8.269-7.48.3-2.27.88-.87 1.32-3.609-2.563-2.437-3.682-3.751-8.758-3.758l.482-3.777-12.65-1.857c-3.825.29-5.709-2.041-10.414.758-4.23 2.515-1.402 5.353-4.403 9.748-1.497 2.192-4.907 5.63-7.954 6.046l-3.129 2.482c-3.595 3.568.003 7.405.013 7.426 1.108 2.385.35 1.668 1.058 4.339l8.944.657c2.166 3.827-.664 6.25-2.411 8.465-2.232 2.829-3.31 5.78-5.454 7.37-5.757 1.525-12.218-19.49-22.714-19.192-4.825.138-7.462 2.189-6.873 6.956 6.927 3.067 9.69-1.373 12.502 5.505 1.533 3.747 1.297 3.151 3.197 6.27 1.59 2.61 1.53 3.69 4.014 5.683.546 4.255 5.348 9.215 10.639 9.328m15.538-27.102c-.542-.4-4.992 1.317 1.352-6.08 6.557-7.644 1.815-16.512 9.894-17.966-1.298 3.119-1.371 1.645-2.97 4.964-.754 1.027-2.117 8.996-2.658 10.752-.58 1.88-4.92 7.18-5.618 8.33" style="fill:#bd9e44;fill-rule:evenodd"></path><path d="M460.083 477.678c-.53-6.32-11.066-19.822-18.565-12.394-3.858 3.824-6.182 4.611-6.059 12.487.098 6.292 1.745 10.68-1.995 14.593-5.621.73-15.327-3.793-14.43 4.795l26.188-.015c1.504-4.845-2.22-9.193 2.597-13.782 1.694-1.614 9.46-4.03 12.264-5.684M333.282 400.164c-15.98 18.278-10.768 18.794-20.21 6.145-1.323-1.773-.288-1.393-2.498-2.473l-.136-4.516c2.85-1.004 6.426-.958 9.792-1.282l2.588-7.993c.143-3.876-2.534-3.924-4.617-6.13-3.164-.479-6.775-4.175-8.248-6.586-2.775-4.551.545-7.78-5.753-10l-14.92.709c-4.054.85-4.533-.511-5.98 1.89-2.743 4.548 2.63-4.103-.91 3.055-4.256.175-5.54 1.792-7.776 3.713.173 1.22.554 1.65.588 1.744.875 2.41.232-1.711.71 1.906-9.2 3.831-12.076 15.262-9.978 19.2 2.58-1.548 1.36-1.767 3.134-4.328.443.907 1.568-1.633-.765 4.899-1.899 5.317.7 11.769 2.975 16.324 2.057-2.023.271-4.364 2.492-6.857 2.95 5.003-1.75 13.996 4.475 17.763l.626-7.59c4.678 3.783-.183 16.017-2.757 19.61-7.225 10.095-17.197 7.06-22.999 25.566-2.282 7.28-3.836 13.914-12.542 12.903-8.568-10.754 2.951-18.715 8.095-23.588 13.13-12.444 5.397-23.416.85-24.191-2.302 8.328.856 11.08.217 17.947-3.77 6.466-14.797 11.735-14.45 24.294.154 5.604 3.773 11.107 10.069 9.415 5.781-1.555 6.181-7.05 10.393-9.223 1.603 3.876 2.56 12.128 1.02 16.586-1.48 4.278-5.89 5.192-7.803 10.891-.922 2.743-.92 4.926-1.842 7.61-4.27 12.425 11.672 12.117 14.407 9.846.696-.68 1.451 1.382.675-2.281-.815-3.843-5.82-3.426-8.079-3.604-2.23-17.669 17.251-10.86 22.51-32.343 2.109-8.611 5.13-12.775 11.046-16.518 6.4-4.049 12.606-7.289 15.612-12.798 1.82-.629.343.447 2.287-1.404 1.793-1.708 3.932-7.152 5.392-7.886 7.06-1.075 12.137 5.47 13.49 11.643 10.499-2.83 7.71-12.587-.423-17.64-5.1-3.17-6.184-2.472-11.693-4.026-7.24-2.043-9.067-2.66-9.902-6.13 12.311 4.823 18.857 9.2 26.275-2.948 2.31-3.783 5.525-8.563 7.11-12.498 3.64-9.043 4.88-2.98 12.925-6.686.913-6.568-7.853-10.853-15.472-2.14m-28.422 1.874c-4.641-1.357-.176 1.025-5.448-4.785-2.48-2.734-1.714-1.863-2.516-6.129-1.997-10.613-3.037-7.98-5.2-13.11 5.321.892 5.429 6.253 6.72 11.545 1.75 7.17 4.8 6.617 6.444 12.479" style="fill:#bd9e44;fill-rule:evenodd"></path><path d="M297.16 464.533c-6.143-5.708-17.049 6.63-17.62 13.05 2.82 1.755 10.4 4.16 11.84 5.323 5.054 4.08 1.644 8.78 3.006 14.143l26.046.04c.428-3.703-1.849-5.655-5.86-5.51-3.535.13-6.9 2.89-9.62-.31-3.226-3.797.945-15.256-2.08-20.663-.825-1.473-4.438-4.888-5.713-6.073" style="fill:#bd9e44;fill-rule:evenodd"></path><path d="M424.611 584.548c-5.103 0-9.453-3.818-9.453-8.899s4.545-8.186 9.888-8.186c5.103 0 9.172 2.945 9.172 8.083 0 5.081-4.384 9.002-9.607 9.002m2.028-22.372c-2.641 0-4.294.34-6.215 1.3l11.037-14.106h-7.657c-8.988 12.486-14.974 17.589-14.927 26.307.048 8.977 7.03 14.078 15.734 14.078 8.945 0 16.029-5.374 16.216-14.49.15-7.305-6.984-13.089-14.188-13.089M385.342 584.548c-6.663 0-11-5.482-11-15.418s4.57-15.559 11.234-15.559c6.724 0 11.39 5.857 11.39 15.793s-4.9 15.184-11.624 15.184m.329-36.137c-10.692.14-17.517 7.903-17.517 20.719s6.73 20.578 17.657 20.578c11.046 0 17.342-7.875 17.342-20.578s-6.437-20.864-17.482-20.719M346.261 570.467c-5.103 0-9.032-2.899-9.032-8.036 0-5.082 3.963-8.721 9.185-8.721 5.103 0 9.712 3.583 9.712 8.664s-4.522 8.093-9.865 8.093m.341-22.058c-8.944-.124-15.888 5.421-15.888 14.115 0 8.526 7.36 13.23 14 13.323 2.642.038 4.53-.62 6.45-1.58l-11.036 14.199 7.093.047c9.505-12.345 15.289-18.854 15.303-25.745.019-8.976-5.764-14.218-15.922-14.359M307.474 549.336l.04 4.702 7.84-.003-.082 34.571h5.508l.035-39.249zM221.6 343.984v49.64h-9.923l-39.473-30.909v28.014h-9.537v-44.782h8.556l40.324 31.617v-33.58zm0 60.077v12.965l-40.536 30.282H221.6v12.652h-58.933V446.43l39.757-29.715h-39.757V404.06zm.142 69v43.558h-59.075v-43.214h9.537v30.148h14.13v-27.286h9.82v27.286h15.342v-30.492zm-.142 53.257v40.97h-58.933v-13.35h47.979v-27.62zm-22.804 70.78-24.343 8.636v.364l24.39 8.917zm22.723-21.291-.006 13.186-13.297 5.244v23.73l13.268 4.707.011 13.702-58.734-23.135v-14.154zM162.763 633l58.793 22.174v16.214l-58.805 21.689-.011-13.937 46.374-15.874v-.364l-46.35-15.978zm36.033-330.706-24.343 8.636v.364l24.39 8.917zm22.723-21.292-.006 13.187-13.297 5.244v23.73l13.268 4.707.011 13.701-58.734-23.134v-14.154zm.08-64.312v12.965l-40.535 30.282H221.6v12.652h-58.933V259.06l39.757-29.716h-39.757v-12.652zm-22.803-47.625-24.343 8.636v.364l24.39 8.917zm22.723-21.29-.006 13.186-13.297 5.244v23.73l13.268 4.706.011 13.702-58.734-23.135v-14.154z" style="fill:#be9f44;fill-rule:evenodd"></path><path d="M359.359 362.713c-.854-.002-1.782-.995-1.782-1.852v-25.685c0-6.353 5.011-14.012 12.051-14.012h.32c7.04 0 11.767 7.66 11.767 14.012v25.58c0 .874-.838 1.993-1.711 1.992z" style="fill:#e30016;fill-rule:evenodd"></path><path d="M365.23 355.626h9.115v-20.45c0-2.857-1.98-6.926-4.398-6.926h-.319c-2.417 0-4.397 4.071-4.397 6.926z" style="fill:#be9f44;fill-rule:evenodd"></path><path d="M359.359 426.776c-.854-.002-1.782-.995-1.782-1.852V399.24c0-6.353 5.011-14.012 12.051-14.012h.32c7.04 0 11.767 7.66 11.767 14.012v25.58c0 .874-.838 1.993-1.711 1.992z" style="fill:#e30016;fill-rule:evenodd"></path><path d="M365.23 419.689h9.115v-20.45c0-2.857-1.98-6.926-4.398-6.926h-.319c-2.417 0-4.397 4.071-4.397 6.926z" style="fill:#be9f44;fill-rule:evenodd"></path><path d="m359.359 362.713 20.645.035c.873 0 1.71-1.118 1.71-1.991v-25.58c0-6.354-4.726-14.013-11.767-14.013h-.319c-7.04 0-12.05 7.659-12.05 14.012v25.685c0 .857.927 1.85 1.78 1.852m14.986-27.537v20.45h-9.114v-20.45c0-2.855 1.98-6.926 4.397-6.926h.32c2.416 0 4.397 4.07 4.397 6.926M369.628 385.227c-7.04 0-12.05 7.659-12.05 14.012v25.685c0 .857.927 1.85 1.78 1.852l20.646.035c.873 0 1.71-1.118 1.71-1.991v-25.58c0-6.354-4.726-14.013-11.767-14.013zm-4.397 34.462v-20.45c0-2.855 1.98-6.926 4.397-6.926h.32c2.416 0 4.397 4.07 4.397 6.926v20.45z" style="fill:#1f1d81;fill-rule:evenodd"></path><path d="M332.859 309.497c-3.69-.003-6.738 3.164-7.013 6.843l-15.04 201.34c-.182 2.439 2.28 4.333 4.406 4.33l34.624-.041v-48.405c0-10.964 6.757-25.32 19.932-25.32 13.438 0 19.932 14.362 19.932 25.32v48.357l34.62-.042c2.262-.003 4.2-2.431 4.05-4.425l-15.226-202.35c-.182-2.422-2.71-5.549-6.075-5.551z" style="fill:none"></path><path d="M366.24 521.916v-64.758c-5.728 1.787-9.398 7.772-9.392 13.653l.056 51.109zM373.215 457.098v64.815l9.527-.003-.018-51.099c-.002-5.95-3.618-12.005-9.509-13.713z" style="fill:#be9f44;fill-rule:evenodd" data-source="https://football-logos.cc"></path><path d="M349.836 521.969v-48.405c0-10.964 6.757-25.32 19.933-25.32 13.437 0 19.931 14.362 19.931 25.32v48.357l34.62-.042c2.262-.003 4.2-2.431 4.05-4.425l-1.378-18.316-9.745.006-.186-1.779c-.235-2.247.079-4.614 1.938-6.127 1.905-1.551 4.58-1.548 7.302-1.278l-3.473-46.163c-2.972 1.908-5.001 5.6-5.78 8.926l-.462 1.976-1.965-.507c-2.323-.599-4.92-1.379-6.506-3.3-1.788-2.165-1.762-5.098-1.404-7.735.844-6.222 6.109-10.188 11.785-12.393-4.628-1.217-8.911-5.308-9.897-9.892-2.167-1.907-2.348-3.194-3.878-5.706-.582-.954-1.221-1.923-1.745-2.908-.612-1.148-1.102-2.438-1.594-3.642-.369-.901-1.036-2.45-2.064-2.795-.8-.268-2.345-.19-3.215-.226-2.212-.093-4.156-.521-6.19-1.422l-1.028-.455-.138-1.115c-.759-6.14 3.005-9.018 8.786-9.183.76-.021 1.52.046 2.265.2 4.714.965 8.422 5.222 11.202 8.879 1.862 2.45 3.56 5.077 5.495 7.456.47.576 2.08 2.49 3.025 2.714.32-.298.616-.645.89-1.008l-.87-11.545-1.872-.137-.362-1.368c-.258-.974-.35-1.671-.441-2.651-.03-.325-.225-.773-.387-1.122-2.472-3.037-2.668-6.985.277-9.908l.078-.078 1.471-1.167-5.16-68.581c-.182-2.422-2.71-5.548-6.075-5.551l-74.21-.056c-3.69-.003-6.738 3.164-7.013 6.844l-5.02 67.208c.803.573 1.667 1.085 2.371 1.828 1.258 1.328 1.67 2.947 1.604 4.741l-.01.277-3.075 9.494-1.296.124q-.405.04-.83.07l-.813 10.895c.274.399.96 1.396 1.411 1.86.836-.695 2.545-2.922 2.968-3.458 2.82-3.582 5.629-7.087 8.632-10.522 2.472-2.827 5.798-5.205 9.64-5.541 2.981-.262 5.956.81 7.79 3.24 1.31 1.736 1.8 3.877 1.502 6.02l-.15 1.075-.985.454c-2.069.953-4.111 1.503-6.391 1.55-.741.016-2.323-.138-2.976.038-1.06.287-2.204 3.181-2.55 4.037-1.777 4.416-4.77 8.72-7.256 12.791-3.006 4.924-6.01 7.401-9.178 8.339 1.327.554 2.57 1.248 3.852 2.045 4.562 2.835 9.362 8.46 7.945 14.234-.955 3.895-4.402 6.024-8.052 7.008l-2.009.542-.445-2.032c-.769-3.504-2.973-7.353-6.178-9.157l-3.457 46.284c.531-.1 1.067-.168 1.609-.188 4.918-.179 8.504 2.523 7.904 7.72l-.203 1.759-10.003-.015-1.39 18.618c-.183 2.44 2.28 4.334 4.405 4.332zm7.741-97.045V399.24c0-6.353 5.011-14.012 12.051-14.012h.32c7.04 0 11.767 7.66 11.767 14.012v25.58c0 .874-.838 1.993-1.711 1.992l-20.646-.036c-.853-.002-1.78-.994-1.78-1.85m22.427-62.176-20.646-.036c-.853 0-1.78-.994-1.78-1.85v-25.686c0-6.353 5.01-14.012 12.05-14.012h.32c7.04 0 11.767 7.66 11.767 14.012v25.58c0 .874-.838 1.993-1.711 1.992M320.757 289.175h98.776v8.878a3.695 3.695 0 0 1-3.685 3.684h-91.406a3.696 3.696 0 0 1-3.685-3.685zM317.558 225.612h15.766c2.183 0 3.968 3.028 3.968 5.212v15.375h19.576l-.076-15.318c-.01-2.237 3.015-5.269 5.253-5.269h15.783c2.79 0 4.535 3.021 4.535 5.362v15.225h19.576V231.16c0-2.578 2.808-5.549 5.385-5.549h15.558c3.315 0 6.026 2.718 6.026 6.026v43.672c0 3.314-2.711 6.027-6.026 6.027H317.558c-3.314 0-6.025-2.713-6.025-6.027v-43.672c0-3.314 2.711-6.026 6.025-6.026" style="fill:#be9f44;fill-rule:evenodd"></path><path d="M526.928 420.799c0-104.034-25.967-198.218-68.016-266.293C417.404 87.306 360.29 45.709 297.3 45.709c-62.911 0-119.812 41.612-161.155 108.793-41.972 68.202-67.837 162.56-67.837 266.672 0 104.048 25.816 198.038 67.715 265.908 41.347 66.975 98.295 108.357 161.277 108.357 63.011 0 120.14-41.511 161.65-108.633 42.027-67.96 67.978-162.006 67.978-266.007m-58.886-271.931c43.064 69.718 69.658 165.912 69.658 271.93 0 105.99-26.579 202.046-69.62 271.646C424.609 762.738 364.284 806.21 297.3 806.21c-66.96 0-127.101-43.342-170.407-113.491-42.915-69.515-69.356-165.513-69.356-271.546 0-106.135 26.474-202.5 69.435-272.31C170.266 78.513 230.372 34.937 297.3 34.937c66.966 0 127.276 43.56 170.742 113.93" style="fill:#be9f44;fill-rule:evenodd"></path><path d="M221.6 272.59h-58.933V259.06l39.757-29.716h-39.757v-12.652H221.6v12.965l-40.536 30.282H221.6zm75.927 93.07V45.708h-.227c-62.911 0-119.812 41.612-161.155 108.793-41.972 68.202-67.837 162.56-67.837 266.672 0 104.048 25.816 198.038 67.715 265.908 41.347 66.975 98.295 108.357 161.277 108.357h.227V499.038l-4.685-.007-.38-1.494c-.48-1.894-.46-3.714-.326-5.644.092-1.324.268-2.835.05-4.146-.235-1.42-.943-2.401-2.05-3.296-.417-.324-1.533-.771-2.033-.983-1.284-.542-2.586-1.046-3.879-1.565-1.795-.72-3.92-1.537-5.585-2.545l-.076.31c-1.651 6.742-4.785 11.79-10.4 15.874-1.911 1.39-3.931 2.54-5.927 3.79-1.519.951-3.125 2.027-4.29 3.405-1.705 2.016-2.12 4.417-2 6.912.802.036 1.599.081 2.436.225 2.798.482 5.135 1.893 5.763 4.856.312 1.473.936 3.648-.88 4.47a1.95 1.95 0 0 1-1.078.175c-2.422 1.432-6.74 1.427-9.218.984-7.127-1.276-10.122-6.45-7.723-13.427.845-2.462.991-5.08 1.837-7.596.72-2.144 1.811-3.886 3.342-5.536 1.04-1.121 2.267-2.126 3.242-3.287.534-.635.952-1.297 1.225-2.085 1.05-3.037.764-8.594-.172-12.572-1.039 1.19-1.888 2.622-2.904 3.841-1.627 1.955-3.467 3.266-5.947 3.932-7.546 2.028-12.377-4.342-12.568-11.276-.172-6.228 2.177-11.158 6.162-15.782 1.568-1.82 3.281-3.477 4.954-5.194 1.177-1.208 2.46-2.556 3.378-4.001.15-2.23-.156-4.111-.553-6.332-.762-4.263-.812-7.263.364-11.516l.478-1.729 1.768.302c4.13.705 7.073 5.49 7.817 9.295 1.39 7.102-2.678 13.593-7.637 18.292-2.303 2.183-4.736 4.112-6.845 6.514-3.95 4.499-5.151 8.763-1.565 13.735 1.74.1 3.467-.168 4.857-1.33 2.505-2.095 3.792-7.234 4.743-10.267 1.475-4.706 3.567-9.261 6.946-12.915 2.432-2.631 5.1-4.323 8.11-6.18 3.297-2.033 5.923-3.82 8.223-7.032 1.5-2.094 2.835-5.577 3.522-8.041l.146-.552-.951-.576c-1.482-.896-2.616-2.12-3.352-3.69-1.113-2.373-1.118-5.08-1.047-7.65l-.15.152-1.947 1.914-1.22-2.442c-2.266-4.539-4.458-10.179-3.683-15.4l-.655.393-.982-1.842c-1.712-3.213-.656-8.17.674-11.34 1.728-4.118 4.671-7.647 8.566-9.792l-.025-.066c-.416-.729-.628-1.46-.748-2.306l-.152-1.076.824-.708c.82-.704 1.601-1.452 2.474-2.093 1.494-1.095 3.019-1.669 4.72-1.93a2.2 2.2 0 0 1 .25-.847l.173-.308.662-1.11c.585-.97 1.27-1.819 2.365-2.229.767-.287 1.502-.27 2.302-.286a13.7 13.7 0 0 0 2.605-.292l.155-.033zm-134.86 25.069v-44.781h8.556l40.324 31.616v-33.58H221.6v49.64h-9.923l-39.473-30.909v28.014zm0 13.332H221.6v12.965l-40.536 30.282H221.6v12.652h-58.933V446.43l39.757-29.715h-39.757Zm48.829 99.492v-30.492h10.246v43.558h-59.075v-43.214h9.537v30.148h14.13v-27.286h9.82v27.286zm-.85 22.765H221.6v40.97h-58.933v-13.35h47.979zm-47.885 72.769 58.758-23.28-.006 13.186-13.297 5.245v23.729l13.268 4.707.011 13.702-58.734-23.135zm.002 33.914 58.793 22.174v16.214l-58.805 21.689-.012-13.937 46.375-15.874v-.364l-46.351-15.978zm-.002-314.563v-14.154l58.758-23.28-.006 13.186-13.298 5.244v23.73l13.268 4.707.012 13.702zm58.734-110.094-58.734-23.135v-14.154l58.758-23.28-.006 13.187-13.298 5.244v23.73l13.268 4.706z" style="fill:#e32926;fill-rule:evenodd"></path><path d="m198.796 597.098-24.343 8.636v.364l24.39 8.917zM174.453 311.295l24.39 8.917-.047-17.917-24.343 8.636zM174.453 178.067l24.39 8.916-.047-17.917-24.343 8.636z" style="fill:#e32926;fill-rule:evenodd"></path><path d="M419.533 289.175v8.878a3.695 3.695 0 0 1-3.685 3.684h-91.406a3.696 3.696 0 0 1-3.685-3.685v-8.877zm3.35-7.838H317.557c-3.314 0-6.025-2.713-6.025-6.027v-43.672c0-3.314 2.711-6.026 6.025-6.026h15.766c2.183 0 3.968 3.028 3.968 5.212v15.375h19.576l-.076-15.318c-.01-2.237 3.015-5.269 5.253-5.269h15.783c2.79 0 4.535 3.021 4.535 5.362v15.225h19.576V231.16c0-2.578 2.808-5.549 5.385-5.549h15.558c3.315 0 6.026 2.718 6.026 6.026v43.672c0 3.314-2.711 6.027-6.026 6.027M297.526 45.709v319.95l6.967-.331.366.129c2.298.81 4.334 2.026 5.178 4.436.786 2.247.25 4.175 1.61 6.402 1.231 2.02 4.43 5.292 6.85 5.658l.677.102.47.498c.355.377.76.695 1.18.995l5.02-67.207c.276-3.68 3.324-6.847 7.014-6.844l74.21.056c3.365.002 5.893 3.13 6.075 5.55l5.16 68.582 2.172-1.722.538-.074c2.31-.314 5.328-3.36 6.583-5.198 1.625-2.379 1.01-3.932 1.738-6.375.537-1.8 1.698-3.012 3.29-3.959 2.498-1.486 4.631-1.972 7.487-1.48 1.29.224 2.462.55 3.79.448l.22-.016 14.796 2.171-.456 3.572c1.686.167 3.299.588 4.792 1.555 1.142.74 2.11 1.718 3.092 2.652l.757.72-.165 1.031c-.163 1.017-.31 1.627-.73 2.319 3.116 1.718 6.17 4.577 7.533 7.651 1.736 3.912 3.893 9.55 1.568 13.597l-1.008 1.754-.477-.286q.06.4.098.802c.47 5.013-1.632 10.195-4.104 14.447l-1.614 2.777-1.203-1.836-.026.541c-.22 3.985-1.107 8.333-4.94 10.383l-.679.364c.737 3.357 2.26 6.674 4.042 9.037 1.672 2.217 4.943 4.555 7.212 6.169 1.964 1.397 3.968 2.737 5.929 4.137 5.818 4.155 8.166 9.34 10.006 16.105.83 3.052 2.094 7.58 4.693 9.61 1.364 1.066 2.982 1.371 4.648 1.301 1.672-2.203 2.63-4.693 1.965-7.519-1.2-5.089-6.804-9.227-10.395-12.652-4.936-4.708-9.007-11.228-7.633-18.32.753-3.884 3.721-8.62 7.91-9.358l1.764-.31.49 1.722c1.044 3.677 1.276 8.674.426 12.399-.494 2.165-1.039 5.103.323 7.078.498.722 1.204 1.353 1.867 1.922.999.858 2.012 1.674 2.973 2.579 3.111 2.93 5.222 6.27 6.865 10.208 2.266 5.429 2.915 13.642-1.816 18.018a8.95 8.95 0 0 1-3.564 2.017c-2.455.727-4.865.6-7.148-.592-1.65-.86-3.004-2.151-4.219-3.54-.725-.829-1.878-2.404-2.995-3.637-1.403 4.553-1.773 9.267.833 13.587 2.023 3.353 5.778 6.17 6.982 9.83.742 2.255 1.45 4.514 1.927 6.842.708 3.448 1.062 7.732-1.044 10.785-1.655 2.4-4.316 3.332-7.13 3.465-2.148.101-4.632.216-6.763-.085-1.548-.218-3.132-.736-3.915-2.21-.569-1.07-.492-2.245-.254-3.39.278-1.339.952-2.485 2.019-3.344 1.861-1.497 4.015-1.664 6.213-1.768.147-2.04.058-4.32-1.03-5.937-.954-1.414-2.74-2.557-4.158-3.456-2.766-1.754-5.487-3.39-8.151-5.32-3.85-2.79-6.26-5.79-7.663-10.343-.531-1.724-.891-3.494-1.352-5.238l-.122.072c-1.802 1.063-4.137 1.912-6.09 2.696-1.165.469-4.988 1.93-5.813 2.716-1.294 1.232-1.912 2.453-1.953 4.24-.03 1.251.185 2.547.287 3.796.137 1.68.1 3.271-.405 4.897l-.433 1.395-19.692.011 1.378 18.316c.15 1.994-1.788 4.422-4.05 4.425l-34.62.042v-48.357c0-10.958-6.494-25.32-19.931-25.32-13.176 0-19.933 14.356-19.933 25.32v48.405l-34.624.041c-2.126.003-4.588-1.891-4.406-4.33l1.39-18.62-14.67-.022v296.4c62.923-.099 119.964-41.59 161.424-108.632 42.027-67.96 67.978-162.006 67.978-266.007 0-104.034-25.967-198.218-68.016-266.293-41.458-67.119-98.484-108.697-161.385-108.797m85.197 425.102.018 51.1-9.527.002v-64.816c5.89 1.708 9.507 7.763 9.509 13.714zm-16.483-13.653v64.758l-9.337.003-.056-51.108c-.007-5.881 3.664-11.866 9.392-13.653zm-58.767 92.178 13.34.021-.034 39.25h-5.508l.082-34.572-7.84.003zm39.128-.927c10.158.14 15.941 5.384 15.922 14.36-.014 6.89-5.798 13.399-15.303 25.744l-7.093-.047 11.037-14.2c-1.922.96-3.809 1.619-6.45 1.581-6.642-.094-14.001-4.797-14.001-13.323 0-8.694 6.944-14.239 15.888-14.115m39.069.002c11.045-.145 17.482 8.016 17.482 20.719s-6.296 20.578-17.342 20.578c-10.926 0-17.657-7.763-17.657-20.578 0-12.816 6.825-20.578 17.517-20.719m38.134.959h7.656l-11.037 14.105c1.92-.96 3.574-1.299 6.215-1.299 7.204 0 14.339 5.784 14.188 13.088-.187 9.117-7.27 14.49-16.215 14.49-8.705 0-15.687-5.1-15.735-14.077-.047-8.718 5.94-13.822 14.928-26.307" style="fill:#1f1d81;fill-rule:evenodd"></path><path d="M356.126 562.374c0-5.08-4.609-8.664-9.712-8.664-5.222 0-9.185 3.64-9.185 8.72 0 5.138 3.929 8.037 9.032 8.037 5.343 0 9.865-3.011 9.865-8.093M385.576 553.571c-6.663 0-11.235 5.623-11.235 15.559s4.338 15.418 11.001 15.418c6.724 0 11.624-5.247 11.624-15.184s-4.666-15.793-11.39-15.793M425.046 567.463c-5.343 0-9.888 3.105-9.888 8.186s4.35 8.9 9.453 8.9c5.223 0 9.607-3.922 9.607-9.003 0-5.138-4.069-8.083-9.172-8.083M312.89 489.784l3.457-46.284c-1.355-.762-2.889-1.16-4.57-1.01-.612.714-1.663 2.68-2.015 3.301-.755 1.336-1.705 3.065-2.814 4.12-.743.709-1.317 1.56-2.367 1.7-1.74 2.816-4.273 5.105-7.054 7.119v3.57q.517.346.983.78a96 96 0 0 1 3.029 2.929c.983.997 2.386 2.415 3.064 3.628 1.698 3.034 1.504 7.308 1.3 10.68-.123 2.026-.79 8.078.561 9.668.36.424.754.732 1.316.815 1.149.168 3.31-.616 4.485-.885q.312-.072.625-.13M419.54 400.116l.87 11.545c.334-.445.636-.914.91-1.347.935-1.477 1.79-2.938 2.88-4.318 1.362-1.728 3.213-3.22 2.628-5.345zM429.79 445.729c-.68-1.164-1.335-2.225-2.208-3.216-1.77-.109-3.365.392-4.754 1.284l3.473 46.162c2.155.214 4.34.594 6.195.5a6.1 6.1 0 0 0 1.135-2.241c.368-1.368.315-2.916.225-4.318-.13-2.04-.349-4.047-.38-6.098-.054-3.382.226-6.735 2.31-9.534 1.206-1.62 2.9-2.97 4.336-4.393 1.613-1.599 3.583-2.618 5.86-2.736l-.441-.308a97 97 0 0 1-11.819-9.75c-1.709-1.653-2.749-3.33-3.931-5.352" style="fill:#1f1d81;fill-rule:evenodd"></path><path d="M297.527 462.3v-3.57a68 68 0 0 1-3.527 2.368q.423.029.847.107a7.1 7.1 0 0 1 2.68 1.095" style="fill:#e32926;fill-rule:evenodd"></path><path d="M544.138 421.133c0-216.551-109.114-392.626-247.363-392.026-138.25.6-245.637 175.7-245.637 392.25 0 216.552 109.938 391.127 245.487 391.427s247.513-175.1 247.513-391.65" style="fill:none"></path><path d="M126.893 692.72c-42.915-69.515-69.356-165.513-69.356-271.546 0-106.135 26.474-202.5 69.435-272.31C170.266 78.513 230.372 34.937 297.3 34.937c66.966 0 127.276 43.56 170.742 113.93C511.106 218.587 537.7 314.78 537.7 420.8c0 105.99-26.579 202.045-69.62 271.645C424.609 762.738 364.284 806.21 297.3 806.21c-66.96 0-127.101-43.342-170.407-113.491M296.775 29.107C161.453 29.694 55.699 197.47 51.28 407.659v27.24c4.394 206.65 108.967 371.86 238.563 377.724h14.231c132.177-6.001 240.063-178.92 240.063-391.49 0-216.551-109.114-392.626-247.363-392.026" style="fill:#1f201d;fill-rule:evenodd"></path><path d="M313.77 403.657c.334.471.515.959.893 1.465 1.419 1.9 2.723 3.842 4.069 5.79l.045.066.813-10.895c-2.262.17-4.89.224-7.122.722l.054 1.796c.48.275.926.603 1.247 1.056" style="fill:#1f1d81;fill-rule:evenodd" data-source="https://football-logos.cc"></path><!-- source: https://football-logos.cc --></svg>