<svg xmlns="http://www.w3.org/2000/svg" viewBox="23.81 67.13 547.66 707.63"><!-- Source: https://football-logos.cc --><path d="M301.231 68.996c3.853 5.715 12.622 14.2 25.533 24.57 12.4 9.959 28.495 21.54 47.612 33.971 26.066 16.951 57.577 34.79 92.583 49.654 28.224 11.983 58.719 22.025 90.45 28.086a4.25 4.25 0 0 1 3.405 3.571c12.52 66.216 13.589 127.117 5.385 183.696-8.215 56.654-25.728 108.969-50.351 157.947-23.544 46.83-54.54 89.329-90.026 126.25-37.743 39.269-80.589 72.26-124.969 97.468a4.24 4.24 0 0 1-4.198-.007l-.004.007c-53.75-30.77-105.094-71.528-148.838-123.434-38.97-46.244-71.868-101.285-95.006-165.926-13.885-38.792-24.71-84.933-27.98-136.452-2.746-43.274-.158-90.327 10.431-139.983a4.25 4.25 0 0 1 3.422-3.302v-.004c47.627-8.323 95.86-28.002 137.566-50.272 60.36-32.23 106.816-69.621 117.96-85.857a4.243 4.243 0 0 1 7.022.019z" style="fill:#fff;fill-rule:evenodd;fill-opacity:1" data-source="https://football-logos.cc"></path><path d="M313.416 632.927c-2.735-3.637-5.413-22.665-4.56-28.256 4.02-2.912 3.947.635 6.328-3.269 1.374 2.285 1.394 5.313 3.977 6.276 6.136-2.628 3.429-23.554 8.397-28.075 1.497.582 4.015 4.497 5.147 6.122 2.496.326 1.705-.174 3.556-.325 4.356 7.006 2.145 29.693-5.403 37.16-2.338 2.313-2.874 1.78-6.245 3.002-6.05 2.194-7.633 4.579-11.197 7.365m43.642-133.563c-.941-3.044-5.05-6.312-3.506-11.05 2.53-7.756 8.436-2.53 8.835-2.394 2.881.98 3.005-1.07 6.175-.511 2.005.353 3.582 1.964 5.473 2.116 3.227.258 7.152-4.946 9.189-6.096 1.251 3.218 2.889 5.39 7.183 4.47 2.595-.556 6.57-2.57 8.392-3.984 1.923-1.491 4.723-4.506 3.083-8.516-1.141-2.787-3.807-5.691-5.907-6.544 1.34 4.133 2.17 6.902-1.752 9.126-2.86 1.622-7.822 2.23-11.394 2.236 1.743-1.218 2.192-.682 3.963-2.59-.004-1.73-.956-3.123-1.067-4.563-.132-1.709 1.144-2.19 1.172-4.876-3.037-.669-5.137-.763-7.743-2.394-2.503-1.567-2.271-3.078-4.172-5.956-3.518-5.331-9.347-4.311-16.793-4.117.241-1.788 1.276-1.655.9-4.13-.273-1.805-1.509-2.715-3.247-2.994-2.707 1.149-2.24 2.83-3.536 5.118-3.786-1.183-4.94-3.148-6.55-5.21-.507 1.573-.877 3.7-.893 5.702-.023 2.856.73 3.61 1.656 5.31-4.952 1.918-6.792 3.253-9.401 7.271-1.165 2.292-1.87 4.616-4.39 4.989-1.085-1.45-2.182-5.434-2.903-7.48-4.586.794-6.022-.271-9.546-2.386-1.383-.83-.81-.472-1.622-1.443-.475-.568-.958-1.129-1.422-1.683-1.133-1.355-1.888-2.509-2.717-3.903l-4.366.525c4.312-8.213 5.039-9.333 11.606-15.837 4.482-4.439 10.963-11.052 18.447-8.981 2.439.674 3.099 2.39 5.03 3.616 4.93-1.61 8.337-3.283 13.435-4.599 9.952-2.57 11.12-6.165 18.7-8.115 6.062-1.56 7.543 4.71 13.641 2.92 2.456-.722 2.656-2.006 3.394-3.24.164-.274.352-.57.562-.82.549-.65.154-.26.787-.75 1.414-4.224 6.753-2.29 8.948-4.93.68-.816 3.397-8.738 3.943-10.232 1.326-3.63 3.08-9.126-1.677-10.147-8.201-1.759-4.88.104-7.14-6.974-3.039-.209-5.76 1.204-8.786.336-5.712-1.64-10.871-8.807-19.293-3.336l-.785-.168c.69-1.889 1.344-2.452.533-4.313-3.825-6.272-28.359 2.317-32.503-.712-3.944-2.882-3.313-3.36-8.343-.347-2.304-3.038-2.08-3.604-7-3.575-4.307.025-4.925.816-8.39-1.066-6.083-3.304-12.26.561-17.6.715-.907 1.074-2.972 1.576-3.966 2.085-2.342 1.2-1.512.927-2.817 2.933-2.192-.75-5.442-3.337-8.286-2.581-2.9.77-4.037 4.332-6.748 4.388-2.47.052-4.832-3.169-7.55-3.537-4.003-.543-4.395 2.924-8.076 3.15l-.829-2.599c-2.495-.248-.676.772-2.667-.37-2.403-1.38-4.985-3.032-8.644-.536-2.965 2.023-5.06 5.795-7.58 7.97-3.948-1.664-8.692-3.54-11.97.355-1.949 2.315-.4 2.512-4.57 3.382-2.761.576-4.178-.238-6.883-.192-.088-.095-.17-.246-.214-.324l-.67-1.734c-1.88.225-4.508 3.048-5.867 4.546-1.656 1.826-3.544 3.525-5.043 5.545-2.93 3.95-.763 6.335-1.885 8.77-.883 1.916-5.228 4.042-5.145 5.676.182 3.558 12.967 4.136 19.05 15.198 4.556.465 11.576-1.38 16.68-1.478l2.523 6.99c1.727.277 3.473.5 5.205.73 4.273.572 3.107 4.377 12.167 3.096 4.457-.63 14.09-4.156 18.072-2.884 2.656.85 11.066 7.095 12.899 8.684 8.352 7.24 7.941 6.395 7.684 13.896l-7.136-1.074c-2.86 5.202-8.764 11.02-15.465 9.248-.747 2.43-1.405 6.008-2.874 7.546-4.828-.582-1.316-6.964-13.595-12.197 1.804-4.854 2.06-4.917.72-11.166-1.342 1.462-.987 2.075-2.859 3.385-.873.612-2.704 1.656-3.921 2.1-.83-4.254-2.008-5.564-5.134-4.973-.46 1.276-1.416.952-1.544 3.117-.13 2.21.799 2.028.974 3.695-7.343.01-13.266-1.284-16.835 4.107-1.738 2.625-1.345 4.138-4.155 5.987-2.553 1.68-4.812 1.38-7.566 2.586-.098 2.633 1.157 2.707.98 4.696-.173 1.917-1.278 2.561-.852 4.687 1.61 1.94 2.256 1.379 3.77 2.46-3.626-.054-8.52-.623-11.381-2.236-3.948-2.225-3.135-5.013-1.778-9.122-9.846 5.36-7.675 16.022 5.624 19.074 4.504 1.034 5.548-1.526 7.129-4.348 1.64.785 3.933 3.4 6.038 4.832 3.361 2.287 4.224.48 7.569-.69 3.869-1.354 4.781 1.76 8.408-.428 3.524-2.125 5.048-1.511 6.781 1.305 3.345 5.437-1.867 10.966-4.23 14.482-2.794 4.159-.087 11.395-3.06 18.187-3.817 8.714-12.252 15.374-18.729 24.102-12.05 16.236-5.674 28.425-5.72 33.898-6.378 5.328-12.874.366-14.937-5.543-2.999-8.59-1.15-17.778 4.429-23.823 5.615-6.082 16.33-17.723 17.73-24.75 4.337-21.78-10.912-30.604-19.123-26.597-5.197 2.535-9.597 6.304-10.54 13.684-1.523 11.927 9.167 15.774 10.909 12.316.95-1.886-.006-5.29.583-8.752.5-2.94 2.083-5.626 3.328-7.122 4.047-.722 6.423.397 7.322 4.033.605 2.447.273 7.737-.744 10.022-.799 1.793-3.33 4.825-4.514 6.503-1.789 2.536-2.893 3.913-4.733 6.308-7.7 10.015-12.822 13.26-15.505 28.256-.47 9.932-.3 12.834 4.493 19.377 4.273 5.83 6.159 7.425 15.832 8.095 10.662.738 9.549-8.596 16.554-1.14 2.561 2.724 4.235 2.473 8.345 3.668 2.655.772 6.246 3.169 8.196 3.45 1.147 1.545.848.587 2.224 1.947 1.292 1.28.52 1.122 1.992 2.123.192 1.883 1.382 3.5 1.68 6.211.627 5.684-6.154 17.509-3.822 21.025 1.666 1.414 6.388 1.622 8.977 2.419 2.841.874 5.718 2.077 8.252 3.333 2.83 1.402 4.829 2.507 7.5 3.972 3.7 2.03 4.066 2.625 4.372 7.717-.992 2.894-11.392 8.352-15.374 9.974l-1.84.87c-.727.531-.32.177-.823.777 5.085.446 15.991-.591 20.343-4.26 2.126-1.793 2.09-2.665 3.708-4.797 1.222 1.643.866 3.607 2.21 5.408 1.203-1.394 3.09-9.414 15.492-3.544 2.782 1.316 2.871 3.806 2.428 8.35-.43 4.396-2.819 7.136 3.737 5.318l-.566-12.848c3.353-1.34 5.487-2.832 9.846-2.76 6.064.101 6.13 3.315 6.779 4.41.798 1.344.173.477.926 1.15.465-1.492.624-2.952 1.573-4.007 3.247 1.393 3.976 3.394 9.38 4.718 3.666.897 10.166 1.35 13.27-.334-3.549-.7-10.973-2.115-13.277-4.984-.702-.875-2.156-2.283-2.877-3.441.26-5.024.527-5.587 4.048-7.559 17.96-10.052 20.984-7.62 24.932-9.495 1.118-4.338-.581-8.552-1.969-12.4-3.575-9.912-.698-8.565-1.308-12.723l1.248-1.74c2.844-5.164 2.414-2.307 4.179-4.841 1.636-.188 5.906-2.883 8.984-3.654 6.754-1.69 4.688-1.021 8.424-4.367 2.966-2.657 2.888-3.094 8.388.435 5.026 3.225 15.6 1.88 19.917-2.624 11.461-11.957 9.638-24.292 2.417-38.248-1.619-3.128-3.621-5.099-5.476-7.353-3.972-4.83-7.46-9.235-11.15-14.5-2.243-3.202-3.265-3.91-3.723-9.087-1.165-13.178 11.451-13.335 10.936 2.2-.088 2.634-.367 4.13 1.34 5.475 2.805 1.287 6.427-1.822 7.865-3.46 4.198-4.783 3.79-17.41-8.417-23.469-5.78-2.868-12.743 1.151-16.206 5.946-3.975 5.506-4.194 13.223-2.798 20.569.74 3.896 1.974 5.372 3.846 8.073 5.477 7.903 13.368 15.595 16.442 20.247 7.49 11.335 1.093 35.224-13.161 25.843.329-7.054 3.898-12.458-.418-24.174-6.692-18.166-26.47-25.273-25.728-43.4.082-1.993.454-4.385-.132-6.261-.463-1.48-1.755-3.518-2.846-4.072m-51.172 39.448c2.484-.537 5.677-2.252 7.96-.396 1.807 1.469 2.792 3.914 5.783 4.523 3.03.618 10.46-2.223 14-1.295 2.393.628.583 1.274 2.898 2.14l2.521-4.79c5.064 7.335 1.096 3.247 8.632 9.76 2.827 2.445 6.919 6.256 5.807 12.57-5.685 5.454-23.454-9.689-29.472-9.71-9.106-.032-3.674 30.082-5.688 35.872-2.069.338-3.673-1.324-4.635-2.537-5.98-7.54-2.424-6.49-2.505-11.672-.046-3.013-1.565-1.548-2.263-5.6-1.26-7.315-3.82-21.827-3.038-28.865m-28.708-5.638c-3.595.043-8.064-5.208-2.155-11.53.794-.849 1.765-2.241 2.564-3.649 2.854-5.034 3.656-15.455 6.26-18.372 1.453-.216 2.164-.33 3.618.194.765.276.757.375 1.399.816.114.078.521.373.608.434l.673.456c-1.532-5.007-3.144-6.071-1.183-11.892 2.555 0 5.173 1.78 5.646 3.396l-.066 13.747c-1.728 1.554-1.53-.241-5.434 4.225-4.52 5.174-2.645 8.847-3.186 11.394-.278 1.31-2.274 3.39-3.945 10.73zm28.589-40.915c1.044-1.457 2.693-2.672 5.121-2.567 2.16 5.068.136 7.543-1.003 11.684 1.97-1.11 2.943-2.274 6.156-1.738 2.865 2.868 3.155 13.949 6.746 19.19 1.204 1.758 1.816 2.21 2.981 3.664 2.493 3.108 2.773 6.438.054 9.284-1.883 1.97-3.465 1.39-7.545 1.352-1.252-1.86-1.874-6.288-3.265-8.698-3.037-5.264.112-4.33-2.122-9.76-3.09-7.515-5.057-2.139-7.299-15.762-.355-2.158-.931-5.104.176-6.65m2.52-29.449c5.566 1.094 3.773-.934 8.34-1.449-.646 2.078-1.557 2.164.24 4.16 3.737 4.15 8.083-.249 11.126 4.353 2.126 3.215 2.033 4.61.456 7.547-1.23 2.292-2.354 4.261-3.478 6.54-1.254-1.129-1.567-2.667-2.554-4.056-1.006-1.416-2.32-2.023-3.155-3.037-2.114-2.57-1.815-6.052-4.52-8.472-2.853-.31-3.866 1.424-7.45 1.72zm-33.319 20.904c-.985-1.195-2.946-5.152-3.89-6.81-1.495-2.63-.483-5.168 1.021-7.247 2.31-3.192 3.566-1.513 7.718-2.308 5.28-1.011 3.703-4.926 3.49-5.974 4.831.514 3.508 3.429 8.931.767l.223 7.963c-3.554-.223-4.318-2.029-7.328-1.692-2.631 2.595-2.585 6.34-4.52 8.446-.736.801-.791.6-1.685 1.401-2.461 2.204-2.636 4.404-3.96 5.454m42.508-51.132c-.036 3.082.117 5.226-1.85 7.003-2.529-.594-3.862-2.34-4.101-5.45zm-22.17.762c3.816 1.94 6.593-.06 10.322-.742.148 2.771-1.288 14.262-7.74 13.418-2.219-3.477-2.53-7.452-2.582-12.676m-1.912 2.808c-2.823.279-7.835-1.619-8.55-3.771l6.034.084c1.085 1.208 2.364 1.651 2.516 3.687m-46.823 125.067c-2.783-7.48 8.094-14.146 10.415-16.517 1.492-1.524 2.213-3.735 3.84-5.573.07.09.16.125.188.284l2.23 4.52c2.935-1.458.097-3.235 7.61-2.22 9.836 1.33 8.558 3.264 14.503-2.65 2.243-2.232 5.21-1.725 7.51-.24.1 5.536-.006 10.76.198 16.35.196 5.371.594 11.075.589 16.4-8.177-5.099-3.13 6.267-4.744 9.504-1.234 2.477-4.173 6.557-7.392 6.43-2.022-6.676 2.948-31.32-3.95-35.426-4.573-2.721-20.397 11.601-30.13 10.337zm14.9 37.704c-.24-4.754-.275-9.927 2.236-13.515 2.698.101 2.676 1.641 4.781-1.352 1.287-1.83 1.731-3.342 3.387-4.49 5.008 2.316 2.764 23.14 8.396 28.077 3.477-.485 2.808-3.945 4.42-6.383 2.188 3.611 1.412 1.223 4.907 2.544 1.558.59 3.312 1.929 4.813 2.565.898 8.55 1.923 26.417-6.185 28.94-1.473-1.037-1.769-2.479-3.358-3.87-7.431-6.508-10.597-5.038-14.462-7.627-4.812-3.222-7.87-12.965-8.501-20.907z" style="fill:#182164;fill-rule:evenodd"></path><path d="M291.219 160.415h-16.34v18.737l11.465-.015v4.8l-11.466.015v9.679h-4.818v-38.035h21.159zM322.967 165.174a14.9 14.9 0 0 0-4.857-3.585 13.6 13.6 0 0 0-5.672-1.25 14.12 14.12 0 0 0-10.017 4.15 14.12 14.12 0 0 0-4.15 10.017c0 3.911 1.586 7.453 4.15 10.016a14.12 14.12 0 0 0 10.017 4.15c1.945 0 3.869-.43 5.641-1.214a14.8 14.8 0 0 0 4.814-3.417l3.52 3.275a19.6 19.6 0 0 1-6.395 4.547c-2.377 1.051-4.962 1.627-7.58 1.627a18.93 18.93 0 0 1-13.425-5.56 18.93 18.93 0 0 1-5.56-13.424c0-5.243 2.125-9.99 5.56-13.424a18.93 18.93 0 0 1 13.425-5.561c2.661 0 5.27.604 7.668 1.7a19.7 19.7 0 0 1 6.438 4.734z" style="fill:#182062;fill-rule:evenodd"></path><path d="m197.31 203.869 13.697 38.498 14.094-38.446 8.3.006-22.356 60.403-22.267-60.388zM245.684 203.998l-.056 59.944h-7.623l.055-59.944zM296.91 219.313a22.2 22.2 0 0 0-7.535-5.626 22.15 22.15 0 0 0-9.192-1.982c-6.097 0-11.544 2.453-15.465 6.42-3.966 4.012-6.396 9.579-6.396 15.741s2.43 11.73 6.396 15.741c3.921 3.968 9.368 6.42 15.465 6.42a22.2 22.2 0 0 0 9.046-1.953 22.9 22.9 0 0 0 7.43-5.302l-20.136-.032v-7.623l24.039.038 3.811.006v3.805l.002 18.45h-7.624v-4.804a31 31 0 0 1-4.413 2.428c-3.77 1.687-7.912 2.64-12.155 2.64-8.214 0-15.579-3.332-20.907-8.722-5.337-5.4-8.608-12.86-8.608-21.092s3.27-15.693 8.608-21.092c5.328-5.39 12.693-8.722 20.907-8.722 4.292 0 8.502.94 12.36 2.698a29.8 29.8 0 0 1 10.138 7.57zM338.837 211.556a22.13 22.13 0 0 0-15.696 6.502 22.13 22.13 0 0 0-6.502 15.696 22.13 22.13 0 0 0 6.501 15.697 22.13 22.13 0 0 0 15.697 6.502 22.13 22.13 0 0 0 15.697-6.502 22.13 22.13 0 0 0 6.502-15.697 22.13 22.13 0 0 0-6.502-15.696 22.13 22.13 0 0 0-15.697-6.502m-21.108 1.09c5.402-5.402 12.866-8.743 21.108-8.743s15.707 3.341 21.109 8.743 8.743 12.866 8.743 21.109c0 8.242-3.341 15.706-8.743 21.108s-12.866 8.744-21.109 8.744c-8.242 0-15.706-3.342-21.108-8.744s-8.744-12.866-8.744-21.108 3.342-15.707 8.744-21.109M376.291 263.575l.45-56.25.029-3.677 3.678-.105q.298-.008.75-.014c8.563-.089 14.954 2.591 19.29 6.727 4.434 4.229 6.65 9.917 6.819 15.734l.008.46-.001.49c-.077 5.73-2.343 11.576-6.847 15.738-1.094 1.01-2.2 2.01-3.54 2.83l10.79 18.149-9.236.009-8.878-15.51c-1.738.456-3.558.734-5.609.665l-.079 14.813zm8.042-52.296-.24 30.144c4.763-.498 8.48-2.218 11.089-4.628 2.918-2.697 4.46-6.283 4.508-9.944a12 12 0 0 0-.007-.652c-.112-3.883-1.561-7.65-4.457-10.412-2.487-2.372-6.088-4.048-10.893-4.508z" style="fill:#ff0414;fill-rule:evenodd"></path><path d="M123.412 282.255c-1.76-1.69-3.355-2.187-4.84-2.3-1.862-.142-3.578.64-4.838 1.639a8 8 0 0 0-.709.625c-1.146 1.141-1.828 2.507-1.974 3.866a4.89 4.89 0 0 0 1.06 3.604q.226.286.452.513c1.74 1.747 3.977 1.909 6.302 2.077l.891.064c5.34.425 11.834 2.308 16.56 6.088 3.977 3.18 6.72 7.612 6.716 13.53v.2c-.068 5.809-2.727 11.033-6.837 14.782-4.034 3.678-9.508 5.954-15.3 5.95h-.22900000000000004c-3.373-.04-5.897-.414-8.427-1.531-2.447-1.08-5.104-2.847-7.96-5.538l6.02-4.962c2.207 2.08 3.454 2.812 5.02 3.504 1.483.655 3.121.877 5.406.903h.178c3.822.001 7.455-1.52 10.15-3.977 2.62-2.39 4.314-5.644 4.355-9.19l.001-.147c0-3.265-1.57-5.755-3.846-7.575-3.395-2.715-8.296-4.086-12.405-4.413l-.831-.065c-3.776-.272-7.408-.535-11.175-4.319a14 14 0 0 1-1.021-1.14c-2.178-2.745-3.017-5.98-2.674-9.166.331-3.074 1.777-6.07 4.187-8.47q.65-.647 1.336-1.192c2.546-2.02 6.114-3.592 10.16-3.284 3.119.238 6.849 1.984 10.05 5.061zM181.065 280.74h-25.7l-.001 29.107h18.24v7.624h-18.24v7.492h25.888v7.654H147.74v-59.501h33.325zM197.066 328.884v3.812h-7.623v-3.812l-.047-55.706 7.485-.016 25.227 43.267.166-39.666.015-3.812 7.624.03-.015 3.812-.113 55.5-7.213.001-25.575-43.613zM247.984 273.121l-.038 59.232h-7.623l.038-59.232zM299.036 288.195a22.2 22.2 0 0 0-7.535-5.627 22.15 22.15 0 0 0-9.192-1.98c-6.097 0-11.544 2.452-15.465 6.419-3.966 4.012-6.396 9.579-6.396 15.741s2.43 11.73 6.396 15.741c3.921 3.968 9.368 6.42 15.465 6.42a22.2 22.2 0 0 0 9.046-1.953c2.84-1.271 5.385-3.094 7.43-5.302l-20.136-.032V310l24.039.037 3.812.006v22.256h-7.623v-4.804a31 31 0 0 1-4.413 2.428c-3.77 1.687-7.912 2.64-12.155 2.64-8.214 0-15.579-3.332-20.907-8.722-5.337-5.4-8.608-12.861-8.608-21.092s3.27-15.693 8.608-21.093c5.328-5.39 12.693-8.721 20.907-8.721 4.292 0 8.502.94 12.36 2.698a29.8 29.8 0 0 1 10.138 7.57zM443.859 273.121l-.039 59.232h-7.623l.038-59.232zM327.812 309.937h11.59l-5.827-15.639zm14.443 7.654h-17.263l-5.292 14.664-8.215.069 18.477-50.326 3.562-9.668 3.598 9.654 18.487 50.325-8.008.035zM368.136 273.19v51.82h22.1v7.623h-29.724V273.19zM406.12 273.19v51.82h22.1v7.623h-29.724v-3.812l.001-55.632zM465.01 309.937h11.59l-5.829-15.639zm14.442 7.654H462.19l-5.292 14.664-8.216.069 18.478-50.326 3.562-9.668 3.598 9.654 18.487 50.325-8.008.035zM299.344 718.662c-.936-.186-1.566-.014-2.08.262-.643.345-1.044.964-1.249 1.559a3 3 0 0 0-.102.355c-.137.618-.074 1.212.164 1.69.219.44.596.789 1.108.965q.135.046.258.074c.94.21 1.712-.209 2.514-.643l.308-.167c1.849-.984 4.386-1.732 6.74-1.482 1.98.21 3.818 1.094 5.064 3.045l.003.005.035.057.003.005c1.202 1.928 1.426 4.21.86 6.312a8.93 8.93 0 0 1-3.788 5.184l-.005.003-.067.042-.005.003c-1.12.697-2.03 1.105-3.1 1.27-1.034.16-2.281.137-3.79-.148l.94-2.904c1.165.22 1.73.2 2.392.098.627-.097 1.213-.369 1.972-.842l.059-.037a5.94 5.94 0 0 0 2.507-3.449c.36-1.34.234-2.769-.5-3.946l-.03-.05c-.688-1.075-1.73-1.565-2.864-1.686-1.69-.18-3.595.401-5.018 1.159l-.288.154c-1.301.705-2.554 1.384-4.593.93q-.31-.07-.576-.16a4.86 4.86 0 0 1-2.812-2.459c-.539-1.083-.693-2.375-.404-3.673a6 6 0 0 1 .189-.675c.413-1.202 1.258-2.471 2.657-3.222 1.078-.579 2.675-.789 4.379-.449z" style="fill:#182164;fill-rule:evenodd"></path><path d="M322.484 705.1a8.95 8.95 0 0 0-3.646.075 8 8 0 0 0-3.145 1.5 8.38 8.38 0 0 0-3.15 5.71 8.74 8.74 0 0 0 1.836 6.357 8.74 8.74 0 0 0 5.745 3.282 8.38 8.38 0 0 0 6.29-1.715 8.2 8.2 0 0 0 2.2-2.675c.55-1.057.886-2.23.975-3.428l2.898.271a11.8 11.8 0 0 1-1.293 4.558 11.1 11.1 0 0 1-2.956 3.592c-2.47 1.943-5.51 2.68-8.43 2.3a11.7 11.7 0 0 1-7.7-4.4 11.7 11.7 0 0 1-2.46-8.52c.318-2.926 1.75-5.708 4.22-7.65a10.9 10.9 0 0 1 4.258-2.023 11.8 11.8 0 0 1 4.825-.109z" style="fill:#182062;fill-rule:evenodd"></path><path d="m323.855 697.245 7.294 9.225c3.615 4.572 9.119 5.568 12.338 2.925 3.358-2.758 3.46-8.433.6-12.02l-7.838-9.825" style="fill:none;stroke:#182062;stroke-width:2.83459997;stroke-linecap:butt;stroke-linejoin:miter;stroke-dasharray:none"></path><path d="M355.713 677.437a8.62 8.62 0 0 0-6.112 2.532 8.62 8.62 0 0 0-2.53 6.11c0 2.387.967 4.548 2.53 6.112a8.62 8.62 0 0 0 6.112 2.531 8.62 8.62 0 0 0 6.11-2.531 8.62 8.62 0 0 0 2.532-6.111 8.62 8.62 0 0 0-2.531-6.111 8.62 8.62 0 0 0-6.111-2.532m-8.218.425a11.59 11.59 0 0 1 8.218-3.404c3.209 0 6.114 1.3 8.217 3.404a11.59 11.59 0 0 1 3.405 8.218c0 3.209-1.301 6.115-3.404 8.218a11.59 11.59 0 0 1-8.218 3.404c-3.21 0-6.115-1.301-8.218-3.404a11.59 11.59 0 0 1-3.404-8.218c0-3.21 1.3-6.115 3.404-8.218" style="fill:#182062;fill-rule:evenodd"></path><path d="m360.495 666.62 14.044 14.607 6.23-5.99 2.066 2.15-7.304 7.022-1.075 1.034-1.033-1.075-15.077-15.681zM382.438 665.424l3.189-3.16-5.867-2.713zm6.06-1.832-4.75 4.707 2.543 5.477-2.241 2.258-8.638-18.882-1.656-3.63 3.622 1.674 18.806 8.805-2.193 2.193z" style="fill:#182164;fill-rule:evenodd"></path><path d="M405.447 628.204a8.95 8.95 0 0 0-3.538.881 8 8 0 0 0-2.735 2.161 8.38 8.38 0 0 0-1.806 6.265 8.74 8.74 0 0 0 3.2 5.792 8.74 8.74 0 0 0 6.33 1.928 8.38 8.38 0 0 0 5.753-3.067 8.2 8.2 0 0 0 1.552-3.096c.302-1.152.37-2.37.191-3.56l2.886-.377c.24 1.587.15 3.205-.25 4.731a11.1 11.1 0 0 1-2.086 4.158c-1.979 2.442-4.78 3.834-7.711 4.11a11.7 11.7 0 0 1-8.484-2.582 11.7 11.7 0 0 1-4.287-7.763c-.338-2.924.442-5.954 2.42-8.396a10.9 10.9 0 0 1 3.703-2.916 11.8 11.8 0 0 1 4.68-1.175z" style="fill:#182062;fill-rule:evenodd" data-source="https://football-logos.cc"></path><path d="m418.062 626.403 2.839-3.477-6.12-2.082zm5.834-2.458-4.229 5.18 3.104 5.179-1.992 2.481-10.573-17.87-2.028-3.437 3.778 1.285 19.626 6.78-1.95 2.412zM416.02 605.503l16.116 12.282 5.238-6.874 2.371 1.807-6.141 8.059-.904 1.186-1.185-.904-17.302-13.185z" style="fill:#182164;fill-rule:evenodd"></path><path d="M436.106 587.894a8.95 8.95 0 0 0-3.473 1.11 8 8 0 0 0-2.587 2.335 8.38 8.38 0 0 0-1.393 6.37 8.74 8.74 0 0 0 3.57 5.57 8.74 8.74 0 0 0 6.444 1.51 8.38 8.38 0 0 0 5.54-3.437 8.2 8.2 0 0 0 1.346-3.19 8.85 8.85 0 0 0-.042-3.564l2.856-.565c.342 1.567.36 3.188.06 4.737a11.1 11.1 0 0 1-1.81 4.286c-1.815 2.565-4.52 4.138-7.426 4.605a11.7 11.7 0 0 1-8.635-2.023 11.7 11.7 0 0 1-4.786-7.466c-.528-2.896.053-5.97 1.867-8.536a10.9 10.9 0 0 1 3.504-3.152 11.8 11.8 0 0 1 4.594-1.479zM435.368 578.238l18.863 12.637-1.572 2.348-18.863-12.638zM452.438 563.895a8.62 8.62 0 0 0-6.111 2.532 8.62 8.62 0 0 0-2.532 6.11c0 2.387.968 4.548 2.532 6.112a8.62 8.62 0 0 0 6.11 2.531 8.62 8.62 0 0 0 6.112-2.531 8.62 8.62 0 0 0 2.531-6.111 8.62 8.62 0 0 0-2.531-6.111 8.62 8.62 0 0 0-6.111-2.532m-8.218.425a11.59 11.59 0 0 1 8.218-3.404c3.209 0 6.115 1.3 8.218 3.404a11.59 11.59 0 0 1 3.404 8.218c0 3.209-1.301 6.115-3.404 8.218a11.59 11.59 0 0 1-8.218 3.404c-3.21 0-6.115-1.301-8.218-3.404a11.59 11.59 0 0 1-3.404-8.218c0-3.21 1.3-6.115 3.404-8.218M457.457 542.073l15.503 2.539-10.326-11.884 1.544-2.793 16.182 18.742-24.463-3.718zM466.109 526.092l20.12 10.522-1.31 2.504-20.12-10.522z" style="fill:#182062;fill-rule:evenodd"></path><path d="M480.039 511.107a8.6 8.6 0 0 0-3.322 1.552 8.6 8.6 0 0 0-2.374 2.792 8.43 8.43 0 0 0-.645 6.495c.648 2.102 2.112 3.963 4.229 5.098 2.117 1.136 4.477 1.327 6.586.704a8.43 8.43 0 0 0 5.055-4.13 8.6 8.6 0 0 0 .996-3.467 8.9 8.9 0 0 0-.453-3.53l-3.72 6.912-2.62-1.405 4.443-8.25.705-1.309 1.307.701 6.338 3.4-1.405 2.619-1.65-.886q.091.977.02 1.964a11.6 11.6 0 0 1-1.332 4.662 11.4 11.4 0 0 1-6.849 5.574 11.65 11.65 0 0 1-8.832-.93 11.65 11.65 0 0 1-5.659-6.843 11.4 11.4 0 0 1 .857-8.79 11.6 11.6 0 0 1 3.205-3.748 11.6 11.6 0 0 1 4.468-2.087z" style="fill:#182164;fill-rule:evenodd"></path><path d="M452.438 563.895a8.62 8.62 0 0 0-6.111 2.532 8.62 8.62 0 0 0-2.532 6.11c0 2.387.968 4.548 2.532 6.112a8.62 8.62 0 0 0 6.11 2.531 8.62 8.62 0 0 0 6.112-2.531 8.62 8.62 0 0 0 2.531-6.111 8.62 8.62 0 0 0-2.531-6.111 8.62 8.62 0 0 0-6.111-2.532m-8.218.425a11.59 11.59 0 0 1 8.218-3.404c3.209 0 6.115 1.3 8.218 3.404a11.59 11.59 0 0 1 3.404 8.218c0 3.209-1.301 6.115-3.404 8.218a11.59 11.59 0 0 1-8.218 3.404c-3.21 0-6.115-1.301-8.218-3.404a11.59 11.59 0 0 1-3.404-8.218c0-3.21 1.3-6.115 3.404-8.218M491.296 490.979a8.62 8.62 0 0 0-6.111 2.531 8.62 8.62 0 0 0-2.531 6.111c0 2.387.967 4.548 2.53 6.112a8.62 8.62 0 0 0 6.112 2.53 8.62 8.62 0 0 0 6.111-2.53 8.62 8.62 0 0 0 2.531-6.112 8.62 8.62 0 0 0-2.53-6.11 8.62 8.62 0 0 0-6.112-2.532m-8.218.424a11.59 11.59 0 0 1 8.218-3.404c3.209 0 6.115 1.301 8.218 3.404a11.59 11.59 0 0 1 3.404 8.218c0 3.21-1.3 6.115-3.404 8.218a11.59 11.59 0 0 1-8.218 3.404c-3.21 0-6.115-1.3-8.218-3.404a11.59 11.59 0 0 1-3.404-8.218c0-3.209 1.3-6.115 3.404-8.218M507.28 490.798l-20.337-7.691-1.329-.503.454-1.347q.037-.11.096-.275c1.113-3.116 2.94-5.075 5.02-6.094 2.127-1.041 4.486-1.084 6.618-.366a14 14 0 0 1 .346.124c2.067.795 3.883 2.4 4.79 4.59.22.531.434 1.066.552 1.661l8.025-1.483-1.233 3.35-6.812 1.143a7.4 7.4 0 0 1-.51 2.123l5.361 2.011zm-17.887-9.915 10.898 4.122c.457-1.795.331-3.372-.194-4.64-.587-1.42-1.681-2.459-3.002-2.967a8 8 0 0 0-.238-.084c-1.422-.48-2.983-.458-4.371.222-1.193.585-2.283 1.666-3.093 3.347M491.744 467.309l21.289 7.893-.982 2.65-21.289-7.894z" style="fill:#182062;fill-rule:evenodd"></path><path d="m514.266 468.435 1.406.472-.944 2.812-1.405-.472-20.553-6.88.921-2.762 19.081-3.948-14.61-4.972-1.403-.477.954-2.808 1.404.477 20.457 6.912-.893 2.66-19.252 4.034zM513.515 446.056l1.3-4.296-6.45.406zm4.458-4.495-1.937 6.4 4.842 3.607-.896 3.053-16.583-12.496-3.184-2.406 3.982-.25 20.73-1.207-.885 2.973zM527.268 401.534l5.982 1.534.654-2.551.88.225-.767 2.992-.113.44-.44-.113-6.422-1.647z" style="fill:#182164;fill-rule:evenodd"></path><path d="m532.542 408.927-6.37-1.846-.416-.12.106-.422.022-.085c.263-.975.772-1.614 1.38-1.974a2.64 2.64 0 0 1 2.002-.272l.053.014.056.016a2.57 2.57 0 0 1 1.567 1.279c.08.156.158.314.208.492l2.404-.645-.294 1.048-2.043.512c-.004.212-.03.428-.104.658l1.679.482zm-5.678-2.582 3.413.99c.095-.557.019-1.033-.171-1.406a1.62 1.62 0 0 0-.985-.83l-.039-.01-.035-.01a1.75 1.75 0 0 0-1.324.174c-.349.207-.654.562-.86 1.092" style="fill:#182062;fill-rule:evenodd"></path><path d="m528.76 412.605.374-1.316-1.963.157zm1.335-1.393-.557 1.96 1.493 1.074-.257.935-5.116-3.723-.983-.716 1.212-.097 6.31-.473-.254.91zM521.099 427.901a.87.87 0 0 0-.372.505.83.83 0 0 0 .08.591 1 1 0 0 0 .056.096.76.76 0 0 0 .4.312.57.57 0 0 0 .507-.082c.239-.16.307-.414.378-.677l.027-.1c.168-.604.529-1.308 1.068-1.767.453-.385 1.023-.602 1.703-.47h.002l.019.005h.002c.665.137 1.206.559 1.545 1.114a2.67 2.67 0 0 1 .343 1.889v.002l-.006.023v.002c-.08.386-.179.667-.363.933-.179.257-.44.523-.813.79l-.436-.8c.288-.208.4-.335.514-.5.108-.155.17-.338.224-.6l.004-.02a1.78 1.78 0 0 0-.23-1.254c-.217-.354-.553-.62-.959-.704l-.017-.003c-.375-.073-.695.052-.955.273-.387.329-.654.861-.783 1.326l-.025.094c-.116.427-.227.838-.745 1.186a1.452 1.452 0 0 1-1.265.195 1.66 1.66 0 0 1-.88-.669q-.06-.09-.107-.18a1.71 1.71 0 0 1-.15-1.24c.096-.352.38-.741.804-1.04zM522.59 422.309a.87.87 0 0 0-.39.49.83.83 0 0 0 .06.595 1 1 0 0 0 .052.097c.1.161.238.275.389.327a.57.57 0 0 0 .509-.064c.244-.152.322-.403.402-.663l.03-.1c.19-.597.575-1.288 1.13-1.727.467-.37 1.044-.565 1.719-.41l.002.001.019.005h.002c.66.161 1.185.602 1.504 1.169a2.67 2.67 0 0 1 .276 1.9v.001l-.006.023v.002c-.093.383-.202.661-.396.92-.188.25-.459.507-.84.761l-.407-.816c.294-.197.41-.32.53-.48.114-.152.183-.333.246-.592l.005-.02c.1-.436.023-.89-.186-1.262-.204-.36-.53-.64-.933-.738l-.017-.004c-.372-.085-.697.028-.964.24-.399.315-.684.837-.829 1.297-.02.066-.025.079-.03.093-.13.423-.255.83-.785 1.16a1.452 1.452 0 0 1-1.271.15 1.66 1.66 0 0 1-.856-.7 2 2 0 0 1-.1-.184 1.72 1.72 0 0 1-.107-1.244c.109-.35.406-.729.84-1.012zM523.637 417.926l5.154 1.48a3.66 3.66 0 0 0-.396-2.015c-.414-.783-1.07-1.299-1.675-1.44-.629-.145-1.272.057-1.826.45-.532.38-.978.93-1.257 1.525m5.392 2.432-6.075-1.744-.425-.122.137-.418a4.85 4.85 0 0 1 1.737-2.363c.74-.527 1.62-.792 2.506-.586.826.191 1.704.864 2.236 1.87.43.815.641 1.854.418 3.033l-.088.458z" style="fill:#182164;fill-rule:evenodd"></path><path d="M301.086 89.831c12.012 14.146 55.526 50.44 114.616 81.632 37.688 19.894 81.61 37.631 127.545 46.07a4.52 4.52 0 0 1 3.624 3.58l.009-.001c11.326 57.708 13.207 114.858 5.773 169.894-7.418 54.91-24.109 107.686-49.943 156.783-23.09 43.883-51.27 83.225-84.805 118.033-33.533 34.806-72.404 65.061-116.882 90.773a4.52 4.52 0 0 1-4.57-.019v.002c-43.9-26.051-86.045-57.469-123.592-97.327-37.565-39.878-70.493-88.174-95.918-147.95-17.578-41.324-30.928-90.687-36.111-143.89-4.545-46.662-2.808-96.273 7.871-145.997a4.53 4.53 0 0 1 3.741-3.537c49.882-11.109 93.8-29.08 130.365-48.46 56.676-30.041 95.535-63.385 111.58-79.816a4.523 4.523 0 0 1 6.695.232zm110.4 89.64c-55.74-29.424-98.156-63.632-114.01-80.166-18.133 17.733-56.403 49.472-110.45 78.12-36.522 19.358-80.31 37.341-130.06 48.695-9.949 47.859-11.507 95.545-7.134 140.44 5.085 52.202 18.187 100.642 35.438 141.198 24.977 58.72 57.307 106.147 94.182 145.292 36.247 38.479 76.92 68.989 119.334 94.378 42.79-25 80.24-54.29 112.599-87.877 32.934-34.185 60.619-72.842 83.317-115.979 25.34-48.157 41.711-99.92 48.985-153.77 7.17-53.073 5.502-108.206-5.122-163.95-45.858-8.84-89.54-26.565-127.08-46.381" style="fill:#ff0414;fill-rule:evenodd"></path><path d="M301.231 68.996c3.853 5.715 12.622 14.2 25.533 24.57 12.4 9.959 28.495 21.54 47.612 33.971 26.066 16.951 57.577 34.79 92.583 49.654 28.224 11.983 58.719 22.025 90.45 28.086a4.25 4.25 0 0 1 3.405 3.571c12.52 66.216 13.589 127.117 5.385 183.696-8.215 56.654-25.728 108.969-50.351 157.947-23.544 46.83-54.54 89.329-90.026 126.25-37.743 39.269-80.589 72.26-124.969 97.468a4.24 4.24 0 0 1-4.198-.007l-.004.007c-53.75-30.77-105.094-71.528-148.838-123.434-38.97-46.244-71.868-101.285-95.006-165.926-13.885-38.792-24.71-84.933-27.98-136.452-2.746-43.274-.158-90.327 10.431-139.983a4.25 4.25 0 0 1 3.422-3.302v-.004c47.627-8.323 95.86-28.002 137.566-50.272 60.36-32.23 106.816-69.621 117.96-85.857a4.243 4.243 0 0 1 7.022.019zm20.218 31.18c-10.64-8.546-18.691-15.999-23.75-21.894-15.942 18.678-60.865 53.805-117.467 84.029-41.606 22.216-89.629 41.902-137.256 50.658-9.926 47.826-12.327 93.155-9.678 134.896 3.212 50.612 13.858 95.973 27.515 134.127 22.8 63.696 55.165 117.872 93.478 163.335 42.452 50.373 92.26 90.114 144.486 120.302 42.934-24.657 84.36-56.716 120.933-94.768 34.94-36.351 65.434-78.148 88.564-124.157 24.215-48.166 41.44-99.623 49.52-155.355 7.968-54.947 7.047-114.06-4.822-178.288-31.33-6.228-61.427-16.215-89.335-28.064-35.487-15.067-67.441-33.158-93.879-50.35-19.393-12.612-35.724-24.363-48.309-34.471" style="fill:#182164;fill-rule:evenodd" data-source="https://football-logos.cc"></path><!-- source: https://football-logos.cc --></svg>