<svg xmlns="http://www.w3.org/2000/svg" viewBox="20.34 39.51 554.59 762.87"><!-- Source: https://football-logos.cc --><path d="M468.467 645.214c5.47 6.273 7.817 12.95 2.744 17.374-6.311 5.503-14.594-.635-18.713-5.358-5.638-6.467-6.965-13.148-2.202-17.3 4.801-4.188 12.398-1.338 18.171 5.283m-19.415-7.336c-8.093 7.056-8.658 17.977-1.973 25.644 7.057 8.093 17.167 8.274 24.95 1.488 8.325-7.259 9.555-17.26 2.195-25.702-6.854-7.86-17.118-8.453-25.172-1.43M419.26 665.38c-1.223-2.142-1.21-2.326.618-3.372 3.478-1.988 7.321-.753 9.616 3.26 1.504 2.632 1.473 4.544 1.148 5.736-.363 1.331-1.07 2.268-2.675 3.186-2.632 1.505-2.842 1.447-3.734-.114zm4.646 22.306c2.342 4.096 2.253 4.56.45 6.065l-1.077.912c-.23.426.387 1.504.896 1.568a187 187 0 0 1 6.444-3.842c2.14-1.224 4.21-2.367 6.624-3.63.16-.445-.457-1.523-.897-1.567l-1.331.465c-2.211.79-2.657.632-4.999-3.464l-3.136-5.486c-.506-.884-.468-1.025 1.093-1.917 1.115-.638 2.033-.689 3.252.202 2.378 1.778 4.653 3.376 7.427 4.917 3.807 2.104 7.235 2.097 11.338-.25 1.383-.79 2.759-1.695 3.294-2.415.07-.395-.313-1.064-.842-1.057-.694.338-2.006.733-3.702.46-3.186-.605-6.927-2.905-13.287-7.199-.503-.362-.657-.63-.338-1.108 1.465-2.199 3.172-5.423.903-9.393-1.632-2.854-4.245-4.32-7.698-4.357-2.281-.057-5.869 1.225-9.66 3.393-4.237 2.422-7.614 4.589-10.83 6.724-.409.53.229 1.644.802 1.612l1.306-.51c2.027-.803 2.396-.364 4.946 4.096zm-30.729-15.895c-5.004 1.872-9.372 5.151-11.726 9.268-2.295 3.984-3.25 9.058-1.053 14.929 2.231 5.966 6.371 8.97 10.826 10.32 4.37 1.273 9.596.58 14.311-1.183 3.754-1.404 6.774-3.74 9.102-5.434.26-1.359-.002-4.552-.997-8.239-.504-.47-1.713-.181-1.954.347-.075 3.758-1.204 8.953-7.027 11.13-5.774 2.16-13.233-.92-16.814-10.495-3.582-9.575.435-16.288 5.776-18.286 4.667-1.745 8.646-.491 11.62 3.498.498.307 1.725-.372 1.702-1.021-1.477-2.629-3.061-6.424-3.385-7.29-1.48.443-5.473.62-10.38 2.456m-34.885 19.296c-1.063-4.658-.854-5.127 1.32-5.992l1.256-.498c.333-.392.07-1.544-.4-1.753a192 192 0 0 1-7.378 1.842q-3.606.823-7.547 1.564c-.532.437-.27 1.59.3 1.775l1.498-.13c2.322-.215 2.726.168 3.788 4.825l4.252 18.633c1.06 4.641.85 5.11-1.335 5.925l-1.846.685c-.329.409.034 1.538.553 1.736 3.083-.81 5.576-1.43 7.88-1.956l6.711-1.532c4.107-.937 8.927-1.984 11.604-2.49.393-1.512.647-5.943.303-8.605-.488-.52-1.686-.458-1.972.134-1.63 6.484-2.998 6.954-7.556 7.994-3.656.835-4.65.64-5.494-.063-.834-.653-1.4-2.21-1.937-4.564zm-24.268 14.553c.445 8.31-1.82 15.017-8.54 15.377-8.362.448-11.107-9.489-11.442-15.747-.458-8.567 2.612-14.648 8.921-14.986 6.361-.34 10.591 6.584 11.06 15.356m-10.776-17.738c-10.722.574-17.894 8.83-17.35 18.987.574 10.722 8.426 17.092 18.737 16.54 11.03-.59 18.16-7.712 17.56-18.895-.557-10.414-8.277-17.203-18.947-16.632m-47.333 28.102c-.14 4.776-.458 5.126-2.78 5.47l-1.446.215c-.572.24-.504 1.432.052 1.757 2.775-.022 5.241.016 7.706.088s4.98.18 7.853.366c.574-.292.609-1.481.051-1.755l-1.636-.304c-2.3-.427-2.596-.847-2.457-5.623l.632-21.661c.06-2.046.179-2.607 2.078-2.552 4.622.134 6.454 4.29 6.343 8.09-.11 3.801-1.072 6.806-5.373 8.016-.368.298-.29 1.122.114 1.391.563.068 1.025.081 1.641.1 2.722.079 11.231-.907 11.477-9.329.145-4.98-2.908-7.785-6.007-9.057-2.132-.885-4.993-1.482-9.358-1.61-4.467-.13-8.48-.041-11.875.117-.576.343-.61 1.473-.154 1.743l1.585.252c2.15.32 2.235.939 2.084 6.116zm-24.194-25.057c.274-1.88.29-1.983 1.958-1.74l4.067.593c2.483.362 3.919 1.195 4.752 2.303.557.808 1.047 2.437 1.346 4.298.442.531 1.626.6 1.911.07.243-3.442.42-7.154.488-7.975-.675.005-3.58-.367-6.843-.842l-10.76-1.569a163 163 0 0 1-7.3-1.211c-.552.23-.775 1.4-.362 1.772l1.234.44c2.221.79 2.482 1.14 1.808 5.758l-2.762 18.945c-.68 4.668-1.03 4.929-3.37 4.951l-2.44.008c-.447.212-.625 1.432-.263 1.796 3.828.454 6.326.767 8.766 1.123l6.6.962c4.16.606 9.042 1.37 11.721 1.865.912-1.269 2.733-5.209 3.321-7.823-.114-.64-1.355-1.028-1.843-.528-3.634 5.337-5.385 5.237-9.816 4.591-3.702-.54-4.609-1.088-5.136-2.099-.476-.952-.442-2.608-.101-4.946l.882-6.05c.222-1.525.28-1.569 1.644-1.37l3.508.512c2.635.384 3.186.88 3.339 3.394l.068 1.308c.29.51 1.576.645 1.897.224.136-1.641.369-3.476.65-5.408s.582-3.757.922-5.369c-.188-.494-1.467-.68-1.882-.326l-.44 1.234c-.864 2.366-1.526 2.633-4.16 2.248l-3.509-.511c-1.364-.2-1.4-.308-1.192-1.732zm-21.226 15.738c1.461-5.458-1.688-9.387-4.326-11.848l-2.81-2.614c-2.136-1.955-3.612-4.584-3-6.867.664-2.481 3.022-4.137 6.297-3.26 3.573.958 4.737 5.152 4.902 7.909.314.616 1.568.898 1.976.369.89-3.325 1.112-6.137 1.007-7.336a12 12 0 0 1-1.58-.848c-1.826-1.128-3.808-1.87-5.445-2.31-7.196-1.927-12.6.774-14.052 6.395-1.316 4.913 1.807 8.94 4.902 11.684 2.578 2.286 5.712 5.678 4.635 9.697-.664 2.482-3.03 4.56-6.701 3.577-4.219-1.13-6.32-6.586-6.45-10.077-.25-.652-1.405-.908-1.925-.356-.904 3.374-1.216 7.12-.565 8.464.883.875 3.365 2.923 7.93 4.146 7.494 2.007 13.57-.62 15.205-6.725m-27.397-19.692c1.712-3.793 3.485-7.22 4.571-8.251.865-.793 1.925-.766 3.226-.403l.907.24c.543-.206.893-1.231.74-1.639a110 110 0 0 1-5.308-2.228c-1.92-.867-3.724-1.738-6.21-2.973-.408.153-.946 1.094-.74 1.638l1.18.759c1.179.757 2.06 1.55 2.039 2.724-.057 1.497-1.455 5.093-3.168 8.885l-2.918 6.462c-.38.843-.74 1.639-1.139 2.022-.59-1.563-1.208-3.815-2.168-7.18l-1.84-6.412c-1.951-6.912-3.388-11.845-2.905-14.163-1.025-.351-2.404-.917-3.996-1.636a175 175 0 0 1-6.398-3.059c-.531-.07-1.085 1.032-.927 1.555l1.226.78c1.533.973 1.935 1.831 1.95 2.796-.015.783-.306 1.553-1.469 4.128l-5.37 11.892c-1.713 3.792-3.44 7.24-4.526 8.272-.818.814-1.903.72-3.272.383l-.86-.22c-.544.206-.894 1.231-.74 1.64 1.822.709 3.575 1.444 5.307 2.227 1.873.846 3.725 1.738 6.21 2.973.409-.153.946-1.095.74-1.638l-1.226-.78c-1.132-.736-2.061-1.55-2.039-2.724.056-1.497 1.455-5.093 3.168-8.885l4.102-9.083c.782-1.733 1.142-2.529 1.587-2.891.525 1.083 1.183 3.747 2.397 8.297l4.768 18.275c.974 3.71 1.44 6.795 1.488 6.817 1.123.507 2.667.584 3.248.17.605-1.587 1.937-4.537 3.311-7.58zm-53.323-20.878c-1.07-.712-1.198-.983-.044-1.88l3.205-2.496c1.951-1.54 4.344-3.279 5.341-4.034-.213 1.154-.981 3.976-1.607 6.213l-1.195 4.203c-.399 1.34-.698 1.326-1.68.671zm2.723 5.085c1.497.997 1.782 1.31 1.545 2.13l-1.295 4.446c-.536 1.917-.92 3.142-1.119 3.441-.17.257-.541.443-1.639-.042l-1.51-.697c-.698.029-1.216.99-.916 1.56a151 151 0 0 1 5.848 3.731c2.223 1.48 4.514 3.047 6.51 4.5.555 0 1.158-1.09 1.044-1.476l-1.455-1.338c-1.41-1.31-1.14-2.55-.334-5.707l5.343-20.626c.952-3.748 1.493-5.673 1.977-7.14.256-.756.142-1.14-.414-1.51-.085-.057-3.063.984-5.429.088-.698 1.325-2.42 2.337-5.198 4.376l-10.84 7.842c-3.2 2.303-5.38 3.814-7.24 5.033-1.838 1.184-2.921.956-4.032.4l-1.24-.64c-.528.143-1.173 1.02-.874 1.59 1.967 1.31 3.027 1.85 4.48 2.819 1.768 1.238 3.317 2.25 4.757 3.331.57.071 1.144-.976 1.086-1.446l-1.14-1.068c-1.055-1.011-1.44-1.639-1.27-1.895.228-.342.5-.656 1.325-1.34l4.967-3.842c.793-.635.95-.592 1.976.092zm-19.799-12.051c3.905-4.084 3.031-9.043 1.901-12.47l-1.208-3.642c-.933-2.741-.964-5.756.67-7.464 1.774-1.856 4.637-2.175 7.088.169 2.674 2.556 1.678 6.793.499 9.29-.021.691.943 1.542 1.554 1.273 2.38-2.487 3.925-4.847 4.41-5.948-.375-.5-.639-.894-.98-1.504-1.059-1.866-2.439-3.47-3.664-4.642-5.384-5.148-11.42-5.377-15.395-1.145-3.516 3.675-2.713 8.708-1.318 12.601 1.163 3.244 2.28 7.725-.595 10.733-1.776 1.856-4.849 2.542-7.596-.085-3.156-3.018-2.377-8.813-.812-11.937.093-.692-.796-1.471-1.518-1.237-2.414 2.525-4.488 5.66-4.563 7.151.353 1.191 1.547 4.18 4.962 7.447 5.607 5.361 12.198 5.977 16.565 1.41m202.625 87.162c0 3.402-1.07 6.09-3.822 6.09-3.422 0-4.325-4.116-4.325-6.678 0-3.507 1.386-5.922 3.968-5.922 2.604 0 4.18 2.92 4.18 6.51m-4.01-7.476c-4.39 0-7.497 3.213-7.497 7.371 0 4.389 3.066 7.16 7.287 7.16 4.514 0 7.58-2.75 7.58-7.328 0-4.263-3.003-7.203-7.37-7.203m-11.875 3.406c0-1.97.125-2.118 1.091-2.286l.588-.105c.168-.126.168-.612 0-.738a85 85 0 0 1-3.17.056 85 85 0 0 1-3.192-.056c-.168.126-.168.612 0 .738l.588.105c.966.168 1.092.315 1.092 2.286v7.72c0 1.97-.126 2.118-1.092 2.286l-.588.105c-.168.126-.168.612 0 .738a86 86 0 0 1 3.192-.056c.987 0 2.016.014 3.15.056.168-.126.189-.612.02-.738l-.588-.105c-.966-.168-1.091-.315-1.091-2.286zm-11.67-3.547c-2.184 0-4.326.63-5.817 1.869-1.45 1.197-2.541 3.002-2.541 5.564 0 2.604 1.155 4.347 2.667 5.502 1.49 1.113 3.59 1.596 5.648 1.596 1.638 0 3.13-.462 4.263-.777.294-.483.651-1.743.798-3.297-.126-.252-.63-.315-.798-.147-.567 1.428-1.743 3.255-4.284 3.255-2.52 0-4.934-2.247-4.934-6.426s2.499-6.173 4.83-6.173c2.036 0 3.38 1.05 3.947 3.002.147.19.714.105.798-.147-.189-1.217-.252-2.898-.252-3.275-.63-.042-2.184-.546-4.326-.546m-16.317 3.36c0-1.953.126-2.121 1.071-2.268l.546-.084c.168-.126.168-.61 0-.735a78 78 0 0 1-6.258 0c-.252.126-.252.609-.042.735l.61.084c.944.126 1.07.315 1.07 2.268v7.811c0 1.946-.126 2.114-1.07 2.24l-.799.105c-.168.133-.126.616.063.742 1.302-.042 2.352-.063 3.318-.063h2.814c1.722 0 3.738.021 4.85.063.295-.567.799-2.31.904-3.402-.147-.252-.63-.336-.798-.126-1.24 2.436-1.827 2.499-3.738 2.499-1.533 0-1.911-.168-2.184-.525-.273-.336-.357-1.008-.357-1.995zm-14.778 4.976c-.525 0-.63-.063-.441-.63l.525-1.575c.315-.965.735-2.1.903-2.583.189.441.567 1.575.86 2.478l.547 1.701c.168.546.063.61-.42.61zm2.079 1.113c.735 0 .903.042 1.008.375l.567 1.806c.252.773.399 1.277.399 1.424 0 .126-.084.273-.567.357l-.672.105c-.231.168-.19.612.042.738a62 62 0 0 1 2.835-.056c1.092 0 2.226.015 3.234.056.189-.126.147-.633.02-.738l-.797-.126c-.777-.126-.966-.609-1.407-1.865l-2.856-8.229c-.525-1.49-.777-2.267-.945-2.876-.084-.316-.21-.42-.483-.42-.042 0-.82 1.029-1.827 1.26.063.608-.294 1.343-.777 2.666l-1.91 5.124a83 83 0 0 1-1.324 3.353c-.357.82-.777.987-1.28 1.05l-.568.063c-.147.168-.168.612.063.738.966 0 1.45-.056 2.163-.056.882.021 1.638.015 2.373.056.21-.105.168-.591.042-.738l-.63-.105c-.588-.105-.86-.231-.86-.357 0-.168.02-.336.146-.756l.82-2.432c.125-.396.188-.417.692-.417zm-13.219-9.45c-2.184 0-4.326.63-5.817 1.87-1.449 1.197-2.54 3.002-2.54 5.564 0 2.604 1.155 4.347 2.666 5.502 1.491 1.113 3.591 1.596 5.65 1.596 1.637 0 3.128-.462 4.262-.777.294-.483.651-1.743.798-3.297-.126-.252-.63-.315-.798-.147-.567 1.428-1.743 3.255-4.284 3.255-2.52 0-4.935-2.247-4.935-6.426s2.5-6.173 4.83-6.173c2.037 0 3.381 1.05 3.948 3.002.147.19.714.105.798-.147-.189-1.217-.252-2.898-.252-3.275-.63-.042-2.184-.546-4.326-.546" style="fill:#1d1d1b;fill-rule:evenodd" data-source="https://football-logos.cc"></path><path d="M352.97 65.06c0-1.73.035-3.323.105-4.12a.5.5 0 0 0-.485-.38c-.242 0-1.558.657-3.082 1.107-1.385.381-3.012.762-4.432.97-.277.208-.242 1.039.07 1.212l1.592.208c1.524.207 1.663.727 1.663 3.006v11.178c0 2.77-.208 3.116-1.905 3.255l-1.42.104c-.311.208-.277 1.114.07 1.218 1.246-.07 3.324-.093 5.61-.093 2.146 0 4.223.023 5.47.093.346-.104.38-1.01.069-1.218l-1.42-.104c-1.696-.139-1.904-.485-1.904-3.255zM313.9 79.296c-.484 0-.657-.208-.657-.416 0-.277.311-.761 1.835-2.181l1.662-1.558c4.155-3.913 5.228-5.852 5.228-8.553 0-3.254-2.493-5.886-6.544-5.886-3.358 0-6.544 1.905-7.964 5.402.07.554.727.761 1.143.484 1.108-1.904 2.493-3.185 4.467-3.185 2.32 0 3.774 1.835 3.774 4.224 0 3.705-2.147 6.614-4.536 9.245-2.078 2.285-4.051 4.12-5.367 5.332-.07.312.035.693.346.762.589-.07 2.078-.104 3.878-.104h5.506c2.216 0 3.462.035 4.847.104.589-.83 1.385-3.22 1.697-5.367-.139-.45-.935-.45-1.177-.208-1.005 1.835-1.42 1.905-3.948 1.905zm-34.15-18.594c-4.293 0-7.686 3.151-7.686 7.583 0 3.497 2.631 6.163 5.886 6.163 1.42 0 2.84-.45 3.428-1.073.034-.277-.035-.623-.208-.727-.312 0-.52 0-.97-.07-2.354-.415-3.497-3.393-3.497-6.232 0-2.077.935-4.051 2.563-4.051 2.908 0 3.67 5.02 3.67 7.652 0 6.371-3.497 12.188-10.249 13.85-.312.242-.277.97.138 1.143 2.909-.104 7.514-2.147 10.388-4.813 2.943-2.7 4.778-6.337 4.778-10.526 0-4.813-2.943-8.899-8.24-8.899m-32.242 4.501c0-1.73.034-3.323.104-4.12a.5.5 0 0 0-.485-.38c-.243 0-1.558.657-3.082 1.107-1.385.381-3.012.762-4.432.97-.277.207-.242 1.038.07 1.212l1.592.207c1.524.208 1.662.728 1.662 3.007v11.178c0 2.77-.207 3.116-1.904 3.255l-1.42.104c-.311.207-.277 1.114.07 1.217 1.246-.069 3.323-.092 5.609-.092 2.146 0 4.224.023 5.47.092.347-.103.381-1.01.07-1.217l-1.42-.104c-1.697-.139-1.904-.485-1.904-3.255z" style="fill:#fff;fill-rule:evenodd"></path><path d="M27.406 69.488h174.698L224.5 42.107l2.106-2.574h3.375l135.612-.022h3.328l2.125 2.574 22.152 26.844 174.226-.147 7.051-.005.008 7.064.45 428.25q.002 1.213-.006 2.401c-.539 90.757-36.663 164.657-88.88 215.898-52.301 51.323-120.822 79.92-186.003 79.989q-.78.001-1.54-.004c-75.881-.45-146.654-33.14-197.79-87.815-49.035-52.43-80.008-125.063-80.066-208.819l-.3-429.166-.005-7.087Zm178.05 14.173H34.47l.295 422.08c.056 79.985 29.551 149.257 76.247 199.186 48.525 51.884 115.634 82.903 187.547 83.33q.75.004 1.485.004c61.568-.064 126.434-27.216 176.093-75.947 49.745-48.814 84.158-119.275 84.672-205.877q.006-1.18.006-2.345l-.442-421.186-170.502.144-3.326.002-2.127-2.577-22.153-26.845-128.908.02-22.42 27.41-2.127 2.602z" style="fill:#c89519;fill-rule:evenodd"></path><path d="M50.207 100.145h495.377v402.526c0 158.7-118.494 271.122-249.299 270.6-112.321-.45-246.078-95.574-246.078-270.6z" style="fill:none"></path><path d="M50.207 100.145h495.377v402.526c0 158.7-118.494 271.122-249.299 270.6-112.321-.45-246.078-95.574-246.078-270.6zm155.25-16.484H34.47l.295 422.08c.056 79.985 29.551 149.257 76.247 199.186 48.525 51.884 115.634 82.903 187.547 83.33q.75.004 1.485.004c61.568-.064 126.434-27.216 176.093-75.947 49.745-48.814 84.158-119.275 84.672-205.877q.006-1.18.006-2.345l-.442-421.186-170.502.144-3.326.002-2.127-2.577-22.153-26.845-128.908.02-22.42 27.41-2.127 2.602zm45.305-.702c-1.246-.069-3.323-.092-5.47-.092-2.285 0-4.363.023-5.61.092-.346-.103-.38-1.01-.069-1.217l1.42-.104c1.697-.139 1.904-.485 1.904-3.255V67.205c0-2.28-.138-2.799-1.662-3.007l-1.593-.207c-.311-.174-.346-1.005-.069-1.212 1.42-.208 3.047-.589 4.432-.97 1.524-.45 2.84-1.108 3.082-1.108.173 0 .415.104.485.381-.07.797-.104 2.39-.104 4.12v13.181c0 2.77.207 3.116 1.904 3.255l1.42.104c.311.207.277 1.114-.07 1.217m21.925.837c6.752-1.662 10.249-7.479 10.249-13.85 0-2.631-.762-7.652-3.67-7.652-1.628 0-2.563 1.974-2.563 4.051 0 2.84 1.143 5.817 3.498 6.233.45.069.657.069.969.069.173.104.242.45.208.727-.589.623-2.008 1.073-3.428 1.073-3.255 0-5.886-2.666-5.886-6.163 0-4.432 3.393-7.583 7.686-7.583 5.298 0 8.241 4.086 8.241 8.899 0 4.19-1.835 7.825-4.778 10.526-2.874 2.666-7.48 4.709-10.388 4.813-.415-.173-.45-.9-.138-1.143m39.62-6.925c2.39-2.631 4.537-5.54 4.537-9.245 0-2.389-1.454-4.224-3.774-4.224-1.974 0-3.359 1.281-4.467 3.185-.415.277-1.073.07-1.143-.484 1.42-3.497 4.606-5.402 7.964-5.402 4.051 0 6.544 2.632 6.544 5.886 0 2.701-1.073 4.64-5.228 8.553l-1.662 1.558c-1.524 1.42-1.835 1.905-1.835 2.181 0 .208.173.416.658.416h4.19c2.527 0 2.943-.07 3.947-1.905.242-.242 1.038-.242 1.177.208-.312 2.147-1.108 4.536-1.697 5.367-1.385-.07-2.631-.104-4.847-.104h-5.506c-1.8 0-3.289.035-3.878.104-.311-.07-.415-.45-.346-.762 1.316-1.212 3.29-3.047 5.367-5.332m36.094-9.808c0-2.28-.139-2.799-1.663-3.006l-1.592-.208c-.312-.173-.347-1.004-.07-1.212 1.42-.208 3.047-.589 4.432-.97 1.524-.45 2.84-1.107 3.082-1.107.173 0 .416.103.485.38-.07.797-.104 2.39-.104 4.12v13.181c0 2.77.208 3.116 1.904 3.255l1.42.104c.312.208.277 1.114-.07 1.218-1.246-.07-3.323-.093-5.47-.093-2.285 0-4.363.023-5.61.093-.346-.104-.38-1.01-.069-1.218l1.42-.104c1.697-.139 1.905-.485 1.905-3.255z" style="fill:#1d1e1c;fill-rule:evenodd"></path><path d="M297.869 185.718c-56.276 0-107.224 22.81-144.103 59.689s-59.689 87.827-59.689 144.102 22.81 107.224 59.69 144.103c36.878 36.878 87.826 59.689 144.102 59.689 56.275 0 107.223-22.81 144.102-59.69 36.879-36.878 59.689-87.826 59.689-144.102 0-56.275-22.81-107.223-59.69-144.102-36.878-36.879-87.826-59.69-144.102-59.69m-144.504 59.288c36.982-36.981 88.072-59.855 144.503-59.855 56.432 0 107.522 22.874 144.504 59.855s59.855 88.071 59.855 144.503-22.874 107.522-59.855 144.503c-36.982 36.982-88.072 59.856-144.504 59.856s-107.521-22.874-144.503-59.856S93.51 445.942 93.51 389.51s22.874-107.522 59.855-144.503" style="fill:#fff;fill-rule:evenodd"></path><path d="m217.794 411.56.076-79.761c.014-13.87 3.637-24.426 9.165-30.87 4.955-5.776 11.77-8.858 15.473-8.843 10.772.042 14.7 13.685 14.7 22.462l-.01 77.588zm77.046 182.368-.004-157.56m0-.815-.005-205.868-125.026 71.18 14.363 12.938.022 111.61-3.428 3.027 4.25 3.788.075 127.688" style="fill:none"></path><path d="m217.794 411.56 39.404-19.424.01-77.588c.001-8.777-3.928-22.42-14.7-22.462-3.702-.015-10.517 3.067-15.473 8.843-5.528 6.444-9.151 17-9.164 30.87z" style="fill:#1d1d1b;fill-rule:evenodd;stroke:#d1cfce;stroke-width:.5669;stroke-linecap:butt;stroke-linejoin:miter;stroke-dasharray:none" data-source="https://football-logos.cc"></path><path d="m257.199 392.136-39.405 19.424.076-79.761c.014-13.87 3.637-24.426 9.165-30.87 4.956-5.776 11.77-8.858 15.473-8.843 10.772.042 14.7 13.685 14.7 22.462zm-72.152 97.73 109.789-54.386-.005-205.795-125.026 71.18 14.363 12.938.022 111.61-3.428 3.027 4.25 3.788zM294.836 436.426l-109.789 54.387.04 68.462c31.513 20.976 69.199 33.413 109.753 34.004zM338.691 392.136l39.404 19.424-.076-79.761c-.013-13.87-3.636-24.426-9.164-30.87-4.956-5.776-11.771-8.858-15.473-8.843-10.772.042-14.701 13.685-14.7 22.462zm72.152 97.73-109.79-54.386.005-205.795 125.026 71.18-14.362 12.938-.023 111.61 3.428 3.027-4.25 3.788zM301.054 436.426l109.789 54.387-.04 68.462c-31.513 20.976-69.2 33.413-109.753 34.004z" style="fill:#fff;fill-rule:evenodd"></path><path d="m185.047 490.813 109.789-54.387.004 156.853a208 208 0 0 0 6.21 0l.004-156.853 109.79 54.387-.041 68.36a205 205 0 0 0 31.169-25.561c36.878-36.88 59.689-87.827 59.689-144.103 0-56.275-22.81-107.223-59.69-144.102-36.878-36.879-87.826-59.69-144.102-59.69-56.275 0-107.223 22.811-144.102 59.69s-59.69 87.827-59.69 144.102 22.811 107.224 59.69 144.103a204.8 204.8 0 0 0 31.321 25.662zm-.856-65.4-.023-111.61-14.362-12.937 125.025-71.18.005 205.794-109.79 54.387-.033-57.64-4.25-3.787zm116.863 10.067.005-205.795 125.025 71.18-14.362 12.938-.023 111.61 3.428 3.027-4.25 3.788-.034 57.639z" style="fill:#1d1d1b;fill-rule:evenodd"></path><path d="M159.889 114.23H61.71v334.348c0 72.34 39.062 139.799 98.179 181.66v-89.983a206 206 0 0 1-6.524-6.243c-36.981-36.981-59.855-88.07-59.855-144.503s22.874-107.522 59.855-144.503a206 206 0 0 1 6.524-6.243zM435.362 114.23v124.089a206 206 0 0 1 7.01 6.687c36.981 36.981 59.855 88.071 59.855 144.503s-22.874 107.522-59.855 144.503a206 206 0 0 1-7.01 6.688v89.335c23.299-16.283 43.167-36.422 58.491-59.212 22.902-34.056 40.209-81.84 40.209-124.23V114.23ZM346.975 191.09v-76.86h-98.7v76.98c15.878-3.958 32.49-6.06 49.594-6.06 16.928 0 33.376 2.06 49.106 5.94M294.84 593.846a204.6 204.6 0 0 1-46.565-6.038v81.12a228.4 228.4 0 0 0 47.212 4.802c17.723-.048 34.951-1.937 51.488-5.452v-80.349c-15.73 3.88-32.178 5.939-49.107 5.939q-1.516 0-3.028-.023" style="fill:#1d1d1b;fill-rule:evenodd"></path><path d="M159.889 630.237c-59.117-41.86-98.179-109.319-98.179-181.66V114.23h98.179v124.533c24.664-22.588 54.89-39.203 88.386-47.553v-76.98h98.7v76.86c33.47 8.255 63.692 24.758 88.387 47.229v-124.09h98.7v332.364c0 42.39-17.307 90.174-40.209 124.23-15.324 22.79-35.192 42.93-58.491 59.212V540.7c-24.695 22.47-54.917 38.973-88.387 47.229v80.349c-16.537 3.515-33.764 5.404-51.488 5.452a228.4 228.4 0 0 1-47.212-4.801v-81.12c-33.496-8.35-63.722-24.965-88.386-47.554zm385.695-530.092H50.207v402.526c0 175.026 133.757 270.15 246.078 270.6 130.804.522 249.3-111.9 249.3-270.6zm-418.011 532.92c3.975-4.23 10.011-4.002 15.395 1.146 1.225 1.172 2.605 2.776 3.665 4.642.34.61.604 1.004.978 1.504-.484 1.1-2.03 3.46-4.409 5.948-.611.269-1.575-.582-1.554-1.273 1.18-2.497 2.175-6.734-.499-9.29-2.45-2.344-5.314-2.026-7.089-.17-1.633 1.71-1.602 4.724-.669 7.465l1.208 3.643c1.13 3.426 2.004 8.385-1.901 12.469-4.367 4.567-10.958 3.951-16.565-1.41-3.415-3.266-4.609-6.256-4.962-7.447.075-1.492 2.15-4.626 4.563-7.151.722-.234 1.611.545 1.518 1.238-1.565 3.123-2.344 8.918.812 11.936 2.748 2.627 5.82 1.941 7.596.085 2.876-3.008 1.758-7.489.595-10.733-1.395-3.893-2.198-8.926 1.318-12.601m319.506 30.457c-6.684-7.667-6.12-18.588 1.973-25.644 8.054-7.023 18.318-6.43 25.172 1.43 7.36 8.442 6.13 18.444-2.195 25.702-7.783 6.786-17.894 6.605-24.95-1.488m-39.25 3.185c3.216-2.135 6.593-4.302 10.83-6.724 3.791-2.168 7.379-3.45 9.66-3.393 3.453.038 6.066 1.503 7.698 4.357 2.27 3.97.562 7.194-.903 9.393-.318.478-.165.746.338 1.108 6.36 4.294 10.101 6.594 13.287 7.198 1.696.274 3.008-.121 3.703-.46.528-.005.911.663.841 1.058-.535.72-1.911 1.625-3.294 2.416-4.103 2.346-7.531 2.353-11.338.249-2.774-1.54-5.05-3.14-7.427-4.917-1.219-.89-2.137-.84-3.251-.202-1.562.892-1.6 1.033-1.094 1.917l3.137 5.486c2.34 4.096 2.787 4.255 4.998 3.464l1.332-.465c.44.044 1.055 1.122.896 1.568a194 194 0 0 0-6.624 3.63 187 187 0 0 0-6.444 3.84c-.509-.063-1.125-1.14-.896-1.567l1.077-.912c1.803-1.504 1.892-1.97-.45-6.065l-9.022-15.78c-2.55-4.46-2.92-4.9-4.946-4.097l-1.306.51c-.573.032-1.21-1.083-.803-1.611m-26.38 14.352c2.355-4.117 6.723-7.396 11.727-9.268 4.908-1.836 8.901-2.013 10.38-2.457.325.867 1.909 4.662 3.386 7.29.023.65-1.204 1.329-1.703 1.022-2.973-3.99-6.952-5.243-11.62-3.498-5.34 1.998-9.357 8.711-5.775 18.286s11.04 12.655 16.814 10.495c5.822-2.177 6.951-7.372 7.027-11.13.24-.528 1.45-.816 1.954-.347.995 3.687 1.257 6.88.997 8.239-2.328 1.694-5.348 4.03-9.102 5.434-4.715 1.763-9.94 2.456-14.311 1.184-4.455-1.35-8.595-4.355-10.826-10.321-2.196-5.87-1.242-10.945 1.053-14.93m-35.907 5.191a202 202 0 0 0 7.547-1.564c2.404-.55 4.897-1.17 7.379-1.842.47.21.732 1.361.4 1.753l-1.257.498c-2.174.865-2.383 1.334-1.32 5.992l4 17.53c.537 2.354 1.103 3.911 1.937 4.564.845.703 1.838.898 5.494.064 4.558-1.04 5.926-1.51 7.556-7.995.286-.592 1.484-.655 1.972-.134.344 2.662.09 7.093-.303 8.606-2.677.505-7.497 1.552-11.604 2.49l-6.711 1.53a250 250 0 0 0-7.88 1.957c-.52-.198-.882-1.327-.554-1.736l1.847-.684c2.185-.815 2.394-1.285 1.335-5.926l-4.252-18.632c-1.062-4.658-1.466-5.04-3.788-4.826l-1.498.13c-.57-.185-.832-1.337-.3-1.775m-39.646 20.64c-.543-10.158 6.629-18.414 17.35-18.988 10.671-.571 18.391 6.218 18.949 16.632.599 11.183-6.531 18.305-17.56 18.895-10.312.553-18.164-5.818-18.739-16.54m-92.433-20.615c1.452-5.62 6.856-8.322 14.052-6.395 1.637.44 3.619 1.183 5.444 2.31.592.37 1.012.59 1.581.848.105 1.199-.117 4.011-1.007 7.336-.408.53-1.662.247-1.976-.37-.165-2.756-1.329-6.95-4.902-7.907-3.275-.877-5.633.778-6.298 3.259-.611 2.283.865 4.912 3 6.867l2.811 2.614c2.638 2.462 5.787 6.39 4.325 11.848-1.635 6.104-7.71 8.732-15.203 6.725-4.566-1.223-7.048-3.27-7.931-4.146-.65-1.344-.339-5.09.565-8.464.52-.552 1.675-.296 1.926.356.128 3.491 2.23 8.947 6.448 10.077 3.672.984 6.038-1.095 6.702-3.577 1.077-4.019-2.057-7.41-4.635-9.697-3.095-2.744-6.218-6.771-4.902-11.684m27.794 25.514 2.762-18.945c.674-4.618.413-4.967-1.808-5.758l-1.234-.44c-.413-.372-.19-1.542.363-1.772 2.374.45 4.857.864 7.299 1.211l10.76 1.569c3.262.475 6.168.847 6.843.842-.068.82-.245 4.533-.488 7.976-.285.53-1.469.46-1.91-.071-.3-1.86-.79-3.49-1.347-4.298-.833-1.108-2.27-1.94-4.752-2.303l-4.067-.592c-1.669-.244-1.684-.142-1.958 1.739l-1.297 8.896c-.208 1.424-.172 1.532 1.192 1.731l3.508.512c2.635.384 3.297.117 4.161-2.249l.44-1.234c.415-.354 1.694-.168 1.882.327-.34 1.612-.64 3.437-.922 5.369s-.514 3.767-.65 5.408c-.32.42-1.607.285-1.897-.224l-.068-1.309c-.153-2.514-.704-3.01-3.339-3.394l-3.508-.51c-1.364-.2-1.422-.157-1.644 1.369l-.882 6.05c-.341 2.338-.375 3.994.1 4.946.528 1.011 1.435 1.558 5.137 2.099 4.431.646 6.182.745 9.815-4.592.489-.5 1.73-.11 1.844.529-.588 2.614-2.409 6.554-3.32 7.823-2.68-.495-7.562-1.259-11.722-1.866l-6.6-.962c-2.44-.356-4.938-.668-8.766-1.122-.362-.365-.184-1.584.262-1.796l2.441-.008c2.34-.023 2.69-.283 3.37-4.952zm31.876 9.685c2.323-.344 2.642-.694 2.78-5.47l.53-18.17c.151-5.177.067-5.797-2.083-6.116l-1.585-.252c-.455-.27-.422-1.4.153-1.743 3.397-.158 7.408-.247 11.876-.116 4.365.127 7.226.724 9.358 1.609 3.099 1.272 6.152 4.077 6.007 9.057-.246 8.422-8.755 9.408-11.477 9.328-.616-.018-1.078-.031-1.641-.099-.403-.269-.483-1.093-.114-1.39 4.301-1.211 5.262-4.216 5.373-8.016.11-3.8-1.721-7.957-6.343-8.091-1.9-.055-2.019.506-2.078 2.552l-.632 21.661c-.14 4.776.157 5.196 2.457 5.623l1.636.304c.558.274.523 1.463-.05 1.755a216 216 0 0 0-7.854-.366c-2.465-.072-4.93-.11-7.706-.088-.557-.325-.624-1.517-.052-1.757zm-87.765-56.636c1.592.719 2.971 1.285 3.997 1.636-.484 2.318.953 7.25 2.904 14.163l1.84 6.412c.96 3.365 1.578 5.617 2.168 7.18.4-.383.759-1.18 1.14-2.022l2.917-6.462c1.713-3.792 3.111-7.388 3.168-8.885.022-1.173-.86-1.967-2.04-2.724l-1.18-.759c-.204-.544.333-1.485.74-1.638 2.487 1.235 4.292 2.106 6.211 2.973 1.733.783 3.44 1.497 5.308 2.228.154.408-.197 1.433-.74 1.639l-.906-.24c-1.302-.363-2.361-.39-3.227.403-1.085 1.032-2.859 4.458-4.571 8.25l-5.054 11.19c-1.374 3.044-2.706 5.994-3.31 7.582-.582.413-2.126.336-3.25-.171-.046-.022-.513-3.107-1.487-6.817l-4.768-18.274c-1.214-4.551-1.871-7.215-2.397-8.298-.445.362-.805 1.158-1.587 2.89l-4.102 9.084c-1.713 3.792-3.112 7.388-3.168 8.885-.022 1.174.907 1.988 2.04 2.725l1.226.78c.205.542-.332 1.484-.74 1.637-2.486-1.235-4.338-2.127-6.21-2.973a109 109 0 0 0-5.308-2.228c-.154-.408.197-1.433.74-1.638l.86.219c1.37.336 2.454.431 3.272-.383 1.086-1.031 2.813-4.48 4.525-8.272l5.371-11.892c1.163-2.575 1.454-3.345 1.47-4.128-.016-.965-.417-1.823-1.95-2.797l-1.227-.78c-.158-.522.396-1.624.928-1.553a175 175 0 0 0 6.397 3.058m-40.753-.06 10.84-7.841c2.777-2.04 4.5-3.052 5.198-4.377 2.366.896 5.344-.145 5.43-.088.555.37.669.755.413 1.51-.484 1.467-1.025 3.392-1.977 7.14l-5.343 20.626c-.807 3.157-1.077 4.397.334 5.707l1.455 1.338c.113.385-.49 1.475-1.045 1.475-1.995-1.452-4.285-3.018-6.509-4.499a151 151 0 0 0-5.848-3.73c-.3-.57.218-1.532.916-1.561l1.51.697c1.098.485 1.469.299 1.64.043.199-.3.582-1.525 1.118-3.442l1.295-4.446c.237-.82-.048-1.133-1.545-2.13l-5.088-3.388c-1.026-.684-1.182-.727-1.975-.092l-4.967 3.842c-.826.684-1.097.998-1.324 1.34-.171.256.214.884 1.269 1.895l1.14 1.068c.058.47-.517 1.517-1.086 1.446-1.44-1.082-2.99-2.093-4.757-3.332-1.453-.968-2.513-1.509-4.48-2.819-.3-.57.346-1.446.873-1.589l1.24.64c1.112.556 2.195.784 4.033-.4 1.86-1.219 4.04-2.73 7.24-5.033m173.332 74.39c.987 0 2.037-.014 3.17-.056.168.126.168.612 0 .738l-.588.105c-.966.168-1.091.315-1.091 2.286v7.72c0 1.97.125 2.118 1.091 2.286l.588.105c.168.126.148.612-.02.738a84 84 0 0 0-3.15-.056c-1.008 0-2.058.014-3.192.056-.168-.126-.168-.612 0-.738l.588-.105c.966-.168 1.092-.315 1.092-2.286v-7.72c0-1.97-.126-2.118-1.092-2.286l-.588-.105c-.168-.126-.168-.612 0-.738a85 85 0 0 0 3.192.056m5.869 7.038c0-4.158 3.108-7.37 7.497-7.37 4.367 0 7.37 2.94 7.37 7.202 0 4.578-3.066 7.329-7.58 7.329-4.221 0-7.287-2.772-7.287-7.161m-21.865-5.643c1.49-1.24 3.633-1.87 5.816-1.87 2.142 0 3.696.505 4.326.547 0 .377.063 2.057.252 3.275-.084.252-.65.337-.798.147-.567-1.952-1.91-3.002-3.948-3.002-2.33 0-4.83 1.994-4.83 6.173s2.416 6.426 4.936 6.426c2.54 0 3.716-1.827 4.283-3.255.168-.168.672-.105.798.147-.147 1.554-.504 2.814-.798 3.297-1.134.315-2.625.777-4.263.777-2.057 0-4.157-.483-5.648-1.596-1.512-1.155-2.667-2.898-2.667-5.502 0-2.562 1.092-4.367 2.54-5.564m-15.14-1.596a78.29 78.29 0 0 0 6.258 0c.167.125.167.608 0 .735l-.547.083c-.945.148-1.07.315-1.07 2.268v7.35c0 .987.083 1.659.356 1.995.273.357.65.525 2.184.525 1.911 0 2.499-.063 3.738-2.499.168-.21.65-.126.798.126-.105 1.092-.61 2.835-.903 3.402-1.113-.042-3.13-.063-4.85-.063h-2.815c-.966 0-2.016.021-3.318.063-.189-.126-.23-.609-.063-.742l.798-.105c.945-.126 1.071-.294 1.071-2.24v-7.811c0-1.953-.126-2.142-1.07-2.268l-.61-.084c-.21-.127-.21-.61.042-.735m-21.278-.273c2.142 0 3.696.504 4.326.546 0 .377.063 2.057.252 3.275-.084.252-.651.337-.798.147-.567-1.952-1.911-3.002-3.948-3.002-2.33 0-4.83 1.994-4.83 6.173s2.415 6.426 4.935 6.426c2.54 0 3.717-1.827 4.284-3.255.168-.168.672-.105.798.147-.147 1.554-.504 2.814-.798 3.297-1.134.315-2.625.777-4.263.777-2.058 0-4.158-.483-5.649-1.596-1.511-1.155-2.667-2.898-2.667-5.502 0-2.562 1.092-4.367 2.541-5.564 1.491-1.24 3.633-1.87 5.817-1.87m9.082 9.05 1.91-5.124c.484-1.323.841-2.058.778-2.666 1.008-.231 1.785-1.26 1.827-1.26.273 0 .399.104.483.42.168.609.42 1.386.945 2.876l2.856 8.228c.44 1.257.63 1.74 1.407 1.866l.798.126c.126.105.168.612-.021.738a80 80 0 0 0-3.234-.056c-1.05 0-1.869.015-2.835.056-.231-.126-.273-.57-.042-.738l.672-.105c.483-.084.567-.231.567-.357 0-.147-.147-.65-.4-1.424l-.566-1.806c-.105-.333-.273-.375-1.008-.375h-2.5c-.503 0-.566.021-.692.417l-.819 2.432c-.126.42-.147.588-.147.756 0 .126.273.252.861.357l.63.105c.126.147.168.633-.042.738-.735-.041-1.49-.035-2.373-.056-.714 0-1.197.056-2.163.056-.23-.126-.21-.57-.063-.738l.567-.063c.504-.063.924-.23 1.281-1.05a83 83 0 0 0 1.323-3.353" style="fill:#fff;fill-rule:evenodd"></path><path d="m152.935 661.74-3.205 2.494c-1.153.898-1.025 1.17.044 1.881l4.02 2.677c.982.655 1.281.67 1.68-.67l1.195-4.204c.626-2.237 1.394-5.06 1.607-6.213-.997.755-3.39 2.495-5.34 4.035M322.963 690.284c-6.31.338-9.38 6.419-8.922 14.986.335 6.258 3.08 16.195 11.441 15.747 6.72-.36 8.986-7.066 8.54-15.377-.469-8.772-4.699-15.697-11.06-15.356M419.26 665.38l4.972 8.697c.892 1.56 1.102 1.618 3.734.113 1.605-.918 2.312-1.855 2.675-3.186.325-1.192.356-3.104-1.148-5.735-2.295-4.014-6.137-5.25-9.616-3.26-1.829 1.045-1.841 1.23-.618 3.37M450.296 639.93c-4.763 4.152-3.436 10.833 2.202 17.3 4.12 4.723 12.402 10.86 18.713 5.358 5.073-4.423 2.726-11.101-2.744-17.374-5.773-6.622-13.37-9.472-18.171-5.285M279.067 746.421l-.546-1.7c-.294-.904-.672-2.038-.86-2.479-.169.483-.589 1.618-.904 2.583l-.525 1.575c-.189.567-.084.63.441.63h1.974c.483 0 .588-.063.42-.609M327.176 745.723c0 2.562.903 6.678 4.325 6.678 2.751 0 3.822-2.688 3.822-6.09 0-3.59-1.575-6.51-4.179-6.51-2.582 0-3.968 2.415-3.968 5.922" style="fill:#fff;fill-rule:evenodd"></path><path d="m338.691 392.136 39.404 19.424-.076-79.761c-.013-13.87-3.636-24.426-9.164-30.87-4.956-5.776-11.771-8.858-15.473-8.843-10.772.042-14.701 13.685-14.7 22.462z" style="fill:#1d1d1b;fill-rule:evenodd" data-source="https://football-logos.cc"></path><!-- source: https://football-logos.cc --></svg>