<svg xmlns="http://www.w3.org/2000/svg" viewBox="27.33 11.07 1079.21 1111.72"><!-- Source: https://football-logos.cc --><defs data-source="https://football-logos.cc"><clipPath id="a" clipPathUnits="userSpaceOnUse"><path d="M-775.985 667.676H74.409v-850.394h-850.394Z"></path></clipPath><clipPath id="b" clipPathUnits="userSpaceOnUse"><path d="M-775.376 178.323H75.018v-850.394h-850.394Z"></path></clipPath><clipPath id="c" clipPathUnits="userSpaceOnUse"><path d="M0 850.394h850.394V0H0Z"></path></clipPath><clipPath id="d" clipPathUnits="userSpaceOnUse"><path d="M-429.223 836.855H421.17V-13.54h-850.394Z"></path></clipPath><clipPath id="e" clipPathUnits="userSpaceOnUse"><path d="M-823.39 609.305H27.006V-241.09H-823.39Z"></path></clipPath><clipPath id="f" clipPathUnits="userSpaceOnUse"><path d="M-721.387 625.822h850.394v-850.394h-850.394Z"></path></clipPath><clipPath id="g" clipPathUnits="userSpaceOnUse"><path d="M-141.107 614.188h850.394v-850.394h-850.394Z"></path></clipPath><clipPath id="h" clipPathUnits="userSpaceOnUse"><path d="M-159.982 612.172h850.394v-850.394h-850.394Z"></path></clipPath><clipPath id="i" clipPathUnits="userSpaceOnUse"><path d="M-752.186 564.491H98.208v-850.394h-850.394Z"></path></clipPath><clipPath id="j" clipPathUnits="userSpaceOnUse"><path d="M-116.744 543.85H733.65v-850.394h-850.394Z"></path></clipPath><clipPath id="k" clipPathUnits="userSpaceOnUse"><path d="M0 850.394h850.394V0H0Z"></path></clipPath><clipPath id="l" clipPathUnits="userSpaceOnUse"><path d="M-156.214 251.188H694.18v-850.394h-850.394Z"></path></clipPath><clipPath id="m" clipPathUnits="userSpaceOnUse"><path d="M-151.873 232.57H698.52v-850.394h-850.394Z"></path></clipPath><clipPath id="n" clipPathUnits="userSpaceOnUse"><path d="M-97.99 287.748h850.393v-850.394H-97.99Z"></path></clipPath><clipPath id="o" clipPathUnits="userSpaceOnUse"><path d="M-733.52 303.54h850.394v-850.394H-733.52Z"></path></clipPath><clipPath id="p" clipPathUnits="userSpaceOnUse"><path d="M-822.789 238.314H27.605V-612.08h-850.394Z"></path></clipPath><clipPath id="q" clipPathUnits="userSpaceOnUse"><path d="M-724.804 224.11H125.59v-850.393h-850.394Z"></path></clipPath><clipPath id="r" clipPathUnits="userSpaceOnUse"><path d="M-43.967 148.054h850.394V-702.34H-43.967Z"></path></clipPath><clipPath id="s" clipPathUnits="userSpaceOnUse"><path d="M-526.975 247.592h850.394v-850.394h-850.394Z"></path></clipPath><clipPath id="t" clipPathUnits="userSpaceOnUse"><path d="M-521.336 247.592h850.394v-850.394h-850.394Z"></path></clipPath><clipPath id="u" clipPathUnits="userSpaceOnUse"><path d="M-470.623 190.846H379.77v-850.394h-850.394Z"></path></clipPath><clipPath id="v" clipPathUnits="userSpaceOnUse"><path d="M-94.93 247.673h850.394V-602.72H-94.93Z"></path></clipPath><clipPath id="w" clipPathUnits="userSpaceOnUse"><path d="M-85.303 585.543H765.09v-850.394H-85.303Z"></path></clipPath><clipPath id="x" clipPathUnits="userSpaceOnUse"><path d="M-792.85 611.473H57.544V-238.92H-792.85Z"></path></clipPath><clipPath id="y" clipPathUnits="userSpaceOnUse"><path d="M-776.842 221.487H73.552v-850.394h-850.394Z"></path></clipPath><clipPath id="z" clipPathUnits="userSpaceOnUse"><path d="M-150.558 169.01h850.394v-850.393h-850.394Z"></path></clipPath><clipPath id="A" clipPathUnits="userSpaceOnUse"><path d="M-205.566 138.28h850.394v-850.395h-850.394Z"></path></clipPath><clipPath id="B" clipPathUnits="userSpaceOnUse"><path d="M-472.792 89.755h850.394v-850.394h-850.394Z"></path></clipPath><clipPath id="C" clipPathUnits="userSpaceOnUse"><path d="M-253.003 120.372h850.394v-850.394h-850.394Z"></path></clipPath><clipPath id="D" clipPathUnits="userSpaceOnUse"><path d="M-295.184 101.265H555.21V-749.13h-850.394Z"></path></clipPath><clipPath id="E" clipPathUnits="userSpaceOnUse"><path d="M-364.762 71.158h850.394v-850.394h-850.394Z"></path></clipPath><clipPath id="F" clipPathUnits="userSpaceOnUse"><path d="M-428.485 88.871H421.91v-850.394h-850.394Z"></path></clipPath><clipPath id="G" clipPathUnits="userSpaceOnUse"><path d="M-398.383 45.18H452.01v-850.394h-850.394Z"></path></clipPath><clipPath id="H" clipPathUnits="userSpaceOnUse"><path d="M-683.002 152.836h850.394v-850.394h-850.394Z"></path></clipPath><clipPath id="I" clipPathUnits="userSpaceOnUse"><path d="M-538.882 76.237h850.394v-850.394h-850.394Z"></path></clipPath><clipPath id="J" clipPathUnits="userSpaceOnUse"><path d="M-731.897 155.448h850.394v-850.394h-850.394Z"></path></clipPath><clipPath id="K" clipPathUnits="userSpaceOnUse"><path d="M-592.944 82.98H257.45v-850.395h-850.394Z"></path></clipPath><clipPath id="L" clipPathUnits="userSpaceOnUse"><path d="M-644.532 110.334h850.394V-740.06h-850.394Z"></path></clipPath><clipPath id="M" clipPathUnits="userSpaceOnUse"><path d="M-150.414 430.609H699.98v-850.394h-850.394Z"></path></clipPath><clipPath id="N" clipPathUnits="userSpaceOnUse"><path d="M-209.113 429.704h850.394V-420.69h-850.394Z"></path></clipPath><clipPath id="O" clipPathUnits="userSpaceOnUse"><path d="M-301.409 389.882h850.394v-850.394h-850.394Z"></path></clipPath><clipPath id="P" clipPathUnits="userSpaceOnUse"><path d="M-431.495 409.978h850.394v-850.394h-850.394Z"></path></clipPath><clipPath id="Q" clipPathUnits="userSpaceOnUse"><path d="M-528.88 401.029h850.394v-850.394H-528.88Z"></path></clipPath><clipPath id="R" clipPathUnits="userSpaceOnUse"><path d="M-749.762 401.444h850.394V-448.95h-850.394Z"></path></clipPath><clipPath id="S" clipPathUnits="userSpaceOnUse"><path d="M-653.97 460.53h850.394v-850.393H-653.97Z"></path></clipPath><clipPath id="T" clipPathUnits="userSpaceOnUse"><path d="M-563.045 783.184h850.394V-67.21h-850.394Z"></path></clipPath><clipPath id="U" clipPathUnits="userSpaceOnUse"><path d="M-467.116 797.013h850.394V-53.38h-850.394Z"></path></clipPath><clipPath id="V" clipPathUnits="userSpaceOnUse"><path d="M-512.956 792.856h850.394V-57.538h-850.394Z"></path></clipPath><clipPath id="W" clipPathUnits="userSpaceOnUse"><path d="M-629.52 764.483h850.395V-85.91H-629.52Z"></path></clipPath><clipPath id="X" clipPathUnits="userSpaceOnUse"><path d="M-357.012 787.267h850.394V-63.127h-850.394Z"></path></clipPath><clipPath id="Y" clipPathUnits="userSpaceOnUse"><path d="M-706.529 722.688h850.394v-850.394h-850.394Z"></path></clipPath><clipPath id="Z" clipPathUnits="userSpaceOnUse"><path d="M-215.07 741.82h850.394v-850.393H-215.07Z"></path></clipPath><clipPath id="aa" clipPathUnits="userSpaceOnUse"><path d="M-271.027 753.6h850.394V-96.794h-850.394Z"></path></clipPath><clipPath id="ab" clipPathUnits="userSpaceOnUse"><path d="M-161.22 700.442h850.395v-850.394H-161.22Z"></path></clipPath><clipPath id="ac" clipPathUnits="userSpaceOnUse"><path d="M-327.433 749.37H522.96v-850.394h-850.394Z"></path></clipPath><clipPath id="ad" clipPathUnits="userSpaceOnUse"><path d="M-393.797 781.767h850.394V-68.627h-850.394Z"></path></clipPath><clipPath id="ae" clipPathUnits="userSpaceOnUse"><path d="M-660.878 752.897h850.394V-97.497h-850.394Z"></path></clipPath><clipPath id="af" clipPathUnits="userSpaceOnUse"><path d="M-527.633 595.175H322.76V-255.22h-850.394Z"></path></clipPath><clipPath id="ag" clipPathUnits="userSpaceOnUse"><path d="M-414.318 532.63h850.394v-850.394h-850.394Z"></path></clipPath><clipPath id="ah" clipPathUnits="userSpaceOnUse"><path d="M-380.119 533.824h850.394V-316.57h-850.394Z"></path></clipPath><clipPath id="ai" clipPathUnits="userSpaceOnUse"><path d="M-458.231 578.76h850.394v-850.395h-850.394Z"></path></clipPath><clipPath id="aj" clipPathUnits="userSpaceOnUse"><path d="M-415.426 629.322h850.394v-850.394h-850.394Z"></path></clipPath><clipPath id="ak" clipPathUnits="userSpaceOnUse"><path d="M-364.864 591.92H485.53v-850.395h-850.394Z"></path></clipPath><clipPath id="al" clipPathUnits="userSpaceOnUse"><path d="M-379.686 513.651h850.394v-850.394h-850.394Z"></path></clipPath><clipPath id="am" clipPathUnits="userSpaceOnUse"><path d="M-337.075 561.083h850.394V-289.31h-850.394Z"></path></clipPath><clipPath id="an" clipPathUnits="userSpaceOnUse"><path d="M-490.379 525.454h850.394V-324.94h-850.394Z"></path></clipPath><clipPath id="ao" clipPathUnits="userSpaceOnUse"><path d="M-377.045 674.62H473.35v-850.394h-850.394Z"></path></clipPath><clipPath id="ap" clipPathUnits="userSpaceOnUse"><path d="M-475.122 677.188h850.394v-850.394h-850.394Z"></path></clipPath><clipPath id="aq" clipPathUnits="userSpaceOnUse"><path d="M-521.815 595.327h850.394v-850.394h-850.394Z"></path></clipPath></defs><path d="m0 0 36.608-38.621c-96.969-81.104-232.744-135.794-383.37-135.794-151.623 0-294.472 52.068-394.452 131.268L-701.669-.85c-.776.277-50.923 17.843-52.788 62.171 0 0 36.7 33.376 56.316 61.913 15.072 21.924 34.502 6.557 39.693 5.689l7.726-2.656-15.718-23.72s45.853-14.279 52.93-26.583c6.095-10.598-.517-41.498-3.786-52.858 54.431-32.895 109.215-56.704 170.776-66.973 29.756-4.95 62.393-6.428 99.758-6.428 67.934 0 162.521 10.251 274.562 80.66-3.011 3.436-17.677 21.056-14.869 36.535 3.121 17.251 35.537 24.934 35.537 24.934s15.478 3.436 22.755 8.423l-23.282 25.3s12.339 9.489 31.031 9.489c16.808 0 18.941-11.424 24.149-18.48 5.191-7.074 16.633-27.675 50.101-56.452 0 0-3.324-38.522-51.874-59.597C.914.329.443.166 0 0" clip-path="url(#a)" style="fill:#0000fe;fill-opacity:1;fill-rule:nonzero;stroke:none" transform="matrix(1.33333 0 0 -1.33333 1034.647 890.234)"></path><path d="m0 0 38.599 42.096c-81.459 68.356-242.401 127.923-384.751 127.923-155.373 0-295.248-54.321-392.864-139.395l36.59-38.031c-47.912-18.599-52.456-59.733-52.456-59.733 33.45-28.776 45.492-49.242 50.683-56.316 5.208-7.055 7.203-19.006 24.011-19.006 18.692 0 30.845 10.602 30.845 10.602l-22.958 24.714c7.277 4.987 22.755 8.422 22.755 8.422s32.416 7.684 35.537 24.935-15.423 37.144-15.423 37.144c32.933 20.465 75.969 43.091 114.276 56.094 53.435 18.157 110.434 26.875 169.004 26.875 75.248 0 135.793-9.457 208.4-43.018 17.529-8.108 35.556-17.547 53.232-27.89-3.38-11.803-10.399-40.616-2.956-53.047 7.352-12.153 52.715-26.468 52.715-26.468l-15.534-23.66 7.093-1.995c5.19-.868 24.621-16.235 39.674 5.67 19.634 28.556 56.316 61.931 56.316 61.931C50.923-17.473 0 0 0 0" clip-path="url(#b)" style="fill:#0000fe;fill-opacity:1;fill-rule:nonzero;stroke:none" transform="matrix(1.33333 0 0 -1.33333 1033.834 237.764)"></path><path d="M829.9 373.868H20.692V487.53H829.9Z" clip-path="url(#c)" style="fill:#0000fe;fill-opacity:1;fill-rule:nonzero;stroke:none" transform="matrix(1.33333 0 0 -1.33333 0 1133.859)"></path><path d="M0 0c-142.159 0-282.744 46.095-386.725 126.632l78.226 83.67c76.24-51.062 140.496-78.91 207.879-90.155 27.019-4.495 58.051-6.499 100.62-6.499 68.91 0 173.77 9.423 300.717 96.881l75.062-79.458c-48.533-39.762-104.278-71.344-165.777-93.908C142.795 12.504 72.141 0 0 0" clip-path="url(#d)" style="fill:#fff;fill-opacity:1;fill-rule:nonzero;stroke:none" transform="matrix(1.33333 0 0 -1.33333 572.298 1115.806)"></path><path d="M0 0c-1.866-8.921-12.366-39.582-50.285-54.303l-40.728 43.29c-32.009-1.441-37.974 11.175-38.344 12.597-.018.018-.018.037-.018.055-.277 2.051-.296 4.045.055 5.966 2.032 11.286 24.067 18.84 31.584 20.761 21.869 5.578 36.645 13.816 47.883 28.768.665-.887 2.781-4.073 3.723-5.422C-39.942 42.736-27.964 24.436 0 0" clip-path="url(#e)" style="fill:#fff;fill-opacity:1;fill-rule:nonzero;stroke:none" transform="matrix(1.33333 0 0 -1.33333 1097.852 812.406)"></path><path d="M0 0a530 530 0 0 0-13.114-8.644l-.092.111c-2.364 2.549-6.539 7.85-9.771 14.037C-16.863 2.309-4.193.517 0 0" clip-path="url(#f)" style="fill:#fff;fill-opacity:1;fill-rule:nonzero;stroke:none" transform="matrix(1.33333 0 0 -1.33333 961.85 834.429)"></path><path d="M0 0c-16.346-5.024-20.989-5.202-21.376-5.221-.019 0-41.739-45.182-41.739-45.182l-.074-.019c-7.573 3.011-47.949 21.093-50.997 56.095 7.832 7.277 35.21 31.72 52.628 57.08 4.203-10.73 24.104-16.935 24.104-16.935 11.303-3.251 47.428-17.506 53.004-25.004.783-1.053 2.803-3.935 2.992-5.962C18.874 9.454 15.995 4.913 0 0" clip-path="url(#g)" style="fill:#fff;fill-opacity:1;fill-rule:nonzero;stroke:none" transform="matrix(1.33333 0 0 -1.33333 188.143 818.917)"></path><path d="M0 0c-.757-9.531-3.232-20.668-5.874-29.608-9.752 5.966-18.771 11.757-28.561 18.295C-16.648-9.853-.757-.425 0 0" clip-path="url(#h)" style="fill:#fff;fill-opacity:1;fill-rule:nonzero;stroke:none" transform="matrix(1.33333 0 0 -1.33333 213.309 816.23)"></path><path d="m0 0-19.826 20.913s23.428 11.572 33.648 2.543C22.538 15.756 8.208 6.026 0 0" clip-path="url(#i)" style="fill:#fff;fill-opacity:1;fill-rule:nonzero;stroke:none" transform="matrix(1.33333 0 0 -1.33333 1002.915 752.655)"></path><path d="m0 0-11.844-18.87s-21.753 8-20.922 15.065 6.441 9.558 10.805 9.766S-4.052.312 0 0" clip-path="url(#j)" style="fill:#fff;fill-opacity:1;fill-rule:nonzero;stroke:none" transform="matrix(1.33333 0 0 -1.33333 155.658 725.134)"></path><path d="M25.471 483.166h799.788V378.162H25.471Z" clip-path="url(#k)" style="fill:#fff;fill-opacity:1;fill-rule:nonzero;stroke:none" transform="matrix(1.33333 0 0 -1.33333 0 1133.859)"></path><path d="M0 0c-2.032-11.285-24.067-18.84-31.584-20.761-21.869-5.578-36.405-13.095-47.413-29.423-.665.887-3.251 4.729-4.193 6.077-6.188 8.977-18.914 27.428-46.878 51.865 1.866 8.921 10.768 38.104 48.688 52.825.702.277 1.385.535 2.087.757l41.018-43.285C-5.915 19.145-.683 9.235-.037 6.557.346 4.917.369 2.032 0 0" clip-path="url(#l)" style="fill:#fff;fill-opacity:1;fill-rule:nonzero;stroke:none" transform="matrix(1.33333 0 0 -1.33333 208.285 334.918)"></path><path d="M0 0c-7.222 3.786-23.605 5.597-24.344 5.67 4.23 2.882 8.774 5.837 13.557 8.885C-5.227 8.072-2.235 3.768-.85 1.588-.554 1.071-.277.536 0 0" clip-path="url(#m)" style="fill:#fff;fill-opacity:1;fill-rule:nonzero;stroke:none" transform="matrix(1.33333 0 0 -1.33333 202.497 310.094)"></path><path d="m0 0 20.364-22.026s-24.807-10.246-34.078-2.078C-22.441-16.416-8.208-6.026 0 0" clip-path="url(#n)" style="fill:#fff;fill-opacity:1;fill-rule:nonzero;stroke:none" transform="matrix(1.33333 0 0 -1.33333 130.654 383.664)"></path><path d="m0 0 11.948 19.428s21.091-8 20.26-15.064c-.832-7.065-6.442-9.559-10.806-9.767C17.039-5.61 4.052-.312 0 0" clip-path="url(#o)" style="fill:#fff;fill-opacity:1;fill-rule:nonzero;stroke:none" transform="matrix(1.33333 0 0 -1.33333 978.026 404.72)"></path><path d="M0 0c-7.831-7.277-34.54-32.009-51.976-57.369-3.675 10.953-28.758 18.286-28.758 18.286-11.322 3.251-42.334 13.963-49.888 24.491-.887 1.256-1.496 2.974-1.847 5.043-.54 3.544 1.83 10.338 18.784 14.739 18.201 4.725 21.001 5.449 21.001 5.449l41.687 45.455C-43.442 53.065-3.066 34.983 0 0" clip-path="url(#p)" style="fill:#fff;fill-opacity:1;fill-rule:nonzero;stroke:none" transform="matrix(1.33333 0 0 -1.33333 1097.052 317.753)"></path><path d="M0 0c-22.695-3.967-33.875-10.926-33.875-10.926-.071 13.095 2.522 21.436 4.747 29.285A624 624 0 0 0 0 0" clip-path="url(#q)" style="fill:#fff;fill-opacity:1;fill-rule:nonzero;stroke:none" transform="matrix(1.33333 0 0 -1.33333 966.405 298.814)"></path><path d="M0 0c48.331 41.199 105.145 73.833 168.955 97.035 68.394 24.87 141.169 37.48 216.302 37.48 68.371 0 137.696-11.805 206.05-35.086 62.013-21.122 121.156-51.42 171.426-87.786l-77.408-84.404c-28.497 19.184-59.341 36.616-89.471 50.551-78.107 36.103-140.677 43.5-210.597 43.5-60.234 0-117.661-9.135-170.688-27.151-48.112-16.328-104.92-48.343-139.328-72.338z" clip-path="url(#r)" style="fill:#fff;fill-opacity:1;fill-rule:nonzero;stroke:none" transform="matrix(1.33333 0 0 -1.33333 58.622 197.406)"></path><path d="M0 0c0-55.687-45.376-100.831-101.35-100.831S-202.7-55.687-202.7 0s45.298 100.831 99.502 100.831C-47.224 100.831 0 55.687 0 0" clip-path="url(#s)" style="fill:#0000fe;fill-opacity:1;fill-rule:nonzero;stroke:none" transform="matrix(1.33333 0 0 -1.33333 702.634 330.123)"></path><path d="M0 0c0-52.589-42.851-95.22-95.711-95.22S-191.422-52.589-191.422 0s42.778 95.22 93.966 95.22C-44.597 95.22 0 52.589 0 0" clip-path="url(#t)" style="fill:#fefefe;fill-opacity:1;fill-rule:nonzero;stroke:none" transform="matrix(1.33333 0 0 -1.33333 695.115 330.123)"></path><path d="M0 0c1.399.401 2.182-1.568.88-2.219-6.78-3.393-20.944-8.292-36.476-14.995-29.852-12.883-27.22-25.905-25.696-31.584 1.523-5.68 9.208-10.093 21.953-10.093s31.795 6.145 48.973 18.959c9.655 7.202 15.779 11.251 20.137 14.865.96.795 2.332-.298 1.758-1.404-2.901-5.591-8.087-11.682-17.324-16.717C8.606-46.239 4.162-51.499-5.12-55.517c0 0-3.532-1.316-2.701-4.917s6.095-3.671 8.727-3.464c1.939.153 7.392-.414 22.907 8.382 4.024 2.282 9.268 5.22 13.63 8.242 1.54 1.066 2.825-.488 1.489-1.801-4.909-4.825-11.478-10.666-19.671-14.476C4.37-70.478-4.635-72.625-4.635-72.625s-28.623-8.069-34.493-10.563C-43.477-85.035-61.29-85.794-67.281-86c-1.637-.057-3.231-.491-4.632-1.341-2.565-1.557-5.906-4.622-4.756-9.665 1.801-7.896 19.948-8.796 19.948-8.796s12.675-1.316 22.026-.485c4.762.423 10.097 1.488 14.75 2.602.955.229 1.38-1.149.46-1.494-8.421-3.158-20.386-6.974-32.422-8.554-22.165-2.909-35.152-1.004-49.281 3.983-7.169 2.53-12.623 6.91-16.225 10.511-3.274 3.272-3.306 7.69-.312 11.22l7.944 10.061c.938 1.188.806 2.916-.34 3.904-2.928 2.525-7.958 8.092-9.214 17.308 0 0-4.433 0-7.966 1.091-2.178.672-2.276 2.021.003 1.973l8.378.053s2.794 6.818 10.494 6.753c6.181-.052 7.483-5.031 7.403-7.281-.032-.892.29-1.76.85-2.455l2.619-3.201a1.854 1.854 0 0 1 2.684-.203c.58.526 1.288 1.175 2.038 1.876 3.272 3.063 3.192 8.279-.191 11.218l-1.374 1.194c-1.26 1.094-2.355 2.358-3.212 3.789-1.971 3.29-2.601 10.389 2.449 15.297 9.001 8.748 15.097 10.779 28.604 12.199 13.023 1.369 28.54 3.118 38.025 5.956C-20.578-6.107-8.79-2.521 0 0" clip-path="url(#u)" style="fill:#0000fe;fill-opacity:1;fill-rule:nonzero;stroke:none" transform="matrix(1.33333 0 0 -1.33333 627.498 254.461)"></path><path d="M0 0c.277-.307-.131-.753-.46-.502C-2.173.805-5.189 3.809-8.839 6.937c-7.013 6.011-10.029 3.714-11.297 2.615s-1.447-3.611.136-6.864c1.582-3.253 5.525-7.349 10.947-10.133 3.048-1.566 4.848-2.623 6.316-3.285.324-.145.214-.632-.142-.623-1.795.042-4.002.605-6.442 2.334-1.478 1.048-3.38 1.526-5.564 3.394 0 0-.776.737-1.597.075-.822-.662-.186-2.014.195-2.66.28-.476.811-1.939 4.995-4.801 1.086-.742 2.491-1.714 3.808-2.45.465-.26.226-.782-.277-.605-1.848.651-4.163 1.598-6.158 3.214-3.627 2.936-5.297 4.967-5.297 4.967s-5.625 6.299-6.994 7.486c-1.014.879-3.421 5.331-4.218 6.835a2.7 2.7 0 0 1-.92 1.015c-.718.46-1.919.93-3.071.007-1.803-1.446.22-6.19.22-6.19s1.236-3.4 2.611-5.683c.7-1.163 1.635-2.392 2.499-3.441.178-.215-.123-.495-.326-.304-1.856 1.756-4.322 4.333-6.222 7.209-3.499 5.294-4.623 8.847-5.098 13.076-.241 2.146.206 4.085.683 5.454.433 1.245 1.563 1.804 2.841 1.481l3.569-.772a.814.814 0 0 1 .96.575c.284 1.063 1.088 3.042 3.298 4.513 0 0-.551 1.132-.709 2.17-.098.64.236.833.506.245l1.054-2.132s2.097.138 3.037-1.835c.754-1.585-.362-2.539-.95-2.799a1.07 1.07 0 0 1-.524-.524l-.496-1.068a.523.523 0 0 1 .281-.71c.207-.083.461-.183.734-.286a2.164 2.164 0 0 1 2.856 1.449l.136.5c.124.458.312.896.573 1.293.6.914 2.344 1.961 4.23 1.285 3.364-1.205 4.642-2.508 6.684-5.778 1.968-3.154 4.344-6.896 6.251-8.963C-4.123 4.49-1.739 1.929 0 0" clip-path="url(#v)" style="fill:#0000fe;fill-opacity:1;fill-rule:nonzero;stroke:none" transform="matrix(1.33333 0 0 -1.33333 126.573 330.23)"></path><path d="M0 0c.316.267.748-.155.487-.476-1.361-1.67-4.459-4.59-7.701-8.138-6.232-6.819-4.031-9.906-2.973-11.209s3.563-1.56 6.865-.082c3.301 1.479 7.52 5.289 10.476 10.62 1.661 2.997 2.776 4.762 3.483 6.209.156.318.639.193.619-.162-.099-1.793-.732-3.981-2.538-6.364-1.095-1.445-1.633-3.331-3.568-5.454 0 0-.762-.753-.127-1.594.636-.842 2.008-.25 2.665.11.485.265 1.964.749 4.957 4.841.777 1.061 1.793 2.435 2.57 3.728.275.456.789.2.596-.297-.709-1.826-1.73-4.11-3.408-6.053-3.05-3.531-5.132-5.135-5.132-5.135S.796-24.879-.434-26.21c-.911-.985-5.437-3.25-6.965-3.998a2.7 2.7 0 0 1-1.044-.887c-.483-.703-.991-1.889-.105-3.069 1.388-1.848 6.194.022 6.194.022s3.438 1.128 5.763 2.429c1.185.663 2.443 1.559 3.518 2.389.221.171.492-.139.294-.335-1.814-1.8-4.468-4.182-7.402-5.99-5.403-3.329-8.99-4.34-13.233-4.68-2.152-.172-4.076.336-5.429.856-1.23.473-1.754 1.62-1.39 2.887l.885 3.542a.815.815 0 0 1-.544.978c-1.053.318-3.006 1.185-4.406 3.439 0 0-1.149-.514-2.191-.639-.643-.078-.825.262-.229.514l2.164.986s-.071 2.1 1.931 2.976c1.608.704 2.526-.442 2.767-1.038.096-.236.281-.425.507-.541l1.052-.529a.524.524 0 0 1 .719.258c.089.204.197.455.309.725a2.164 2.164 0 0 1-1.358 2.9l-.495.152a4.5 4.5 0 0 0-1.275.614c-.894.629-1.885 2.405-1.149 4.269 1.311 3.323 2.654 4.559 5.987 6.496 3.215 1.868 7.031 4.124 9.157 5.963C-4.619-3.978-1.983-1.677 0 0" clip-path="url(#w)" style="fill:#0000fe;fill-opacity:1;fill-rule:nonzero;stroke:none" transform="matrix(1.33333 0 0 -1.33333 113.738 780.724)"></path><path d="M0 0c.276-.303-.132-.747-.46-.501C-2.168.785-5.174 3.746-8.811 6.826c-6.991 5.919-10.004 3.62-11.272 2.523s-1.45-3.591.125-6.808 5.504-7.255 10.911-9.984c3.04-1.533 4.834-2.571 6.299-3.218.323-.142.212-.626-.142-.62-1.792.031-3.995.576-6.427 2.276-1.474 1.03-3.371 1.492-5.548 3.331 0 0-.774.727-1.594.065s-.188-1.999.19-2.638c.279-.47.807-1.918 4.979-4.73 1.082-.73 2.484-1.685 3.797-2.407.464-.255.224-.774-.278-.602-1.843.634-4.152 1.559-6.141 3.149-3.616 2.89-5.279 4.894-5.279 4.894s-5.605 6.213-6.97 7.382c-1.011.866-3.406 5.267-4.199 6.754a2.65 2.65 0 0 1-.916 1.001c-.716.452-1.915.911-3.066-.012-1.801-1.446.21-6.14.21-6.14s1.229-3.365 2.597-5.621c.697-1.149 1.629-2.362 2.49-3.397.176-.212-.124-.492-.326-.303-1.85 1.729-4.307 4.271-6.199 7.111-3.485 5.23-4.601 8.747-5.069 12.94-.237 2.127.212 4.054.69 5.415.435 1.237 1.563 1.799 2.838 1.486l3.561-.743a.82.82 0 0 1 .959.576c.285 1.056 1.091 3.024 3.298 4.498 0 0-.547 1.119-.704 2.148-.097.634.237.828.506.246l1.049-2.108s2.093.15 3.028-1.801c.75-1.567-.365-2.521-.952-2.783a1.07 1.07 0 0 1-.525-.523l-.496-1.062a.515.515 0 0 1 .279-.703c.207-.081.46-.178.733-.279a2.177 2.177 0 0 1 2.852 1.456l.136.496c.125.455.314.891.575 1.287.6.91 2.342 1.96 4.224 1.301 3.355-1.175 4.629-2.459 6.662-5.69 1.96-3.116 4.325-6.814 6.225-8.852C-4.108 4.428-1.733 1.903 0 0" clip-path="url(#x)" style="fill:#0000fe;fill-opacity:1;fill-rule:nonzero;stroke:none" transform="matrix(1.33333 0 0 -1.33333 1057.134 815.297)"></path><path d="M0 0c.318.263.743-.149.479-.464-1.376-1.646-4.498-4.524-7.771-8.02-6.291-6.718-4.136-9.735-3.099-11.008 1.038-1.272 3.531-1.513 6.838-.047S4.004-14.315 7.013-9.072c1.692 2.947 2.823 4.684 3.546 6.107.159.313.639.192.615-.156-.121-1.759-.779-3.909-2.607-6.255-1.108-1.422-1.666-3.274-3.621-5.366 0 0-.768-.742-.145-1.564s1.996-.235 2.656.121c.486.262 1.965.744 4.997 4.772.787 1.045 1.815 2.397 2.606 3.669.279.449.788.201.59-.288-.729-1.795-1.774-4.039-3.469-5.953-3.082-3.479-5.176-5.063-5.176-5.063s-6.516-5.35-7.757-6.661c-.92-.971-5.457-3.214-6.988-3.956a2.75 2.75 0 0 1-1.051-.874c-.489-.693-1.01-1.858-.142-3.011 1.36-1.806 6.171.052 6.171.052s3.438 1.123 5.771 2.41c1.188.656 2.452 1.541 3.534 2.361.222.168.488-.134.288-.328-1.829-1.774-4.502-4.123-7.447-5.911-5.423-3.292-9.009-4.3-13.239-4.654-2.147-.18-4.057.309-5.399.812-1.219.458-1.727 1.581-1.349 2.825l.925 3.479a.78.78 0 0 1-.53.956 7.67 7.67 0 0 0-4.347 3.352s-1.15-.51-2.19-.638c-.642-.079-.82.253-.223.503l2.169.978s-.046 2.059 1.959 2.929c1.611.697 2.511-.422 2.744-1.005.093-.231.275-.415.499-.528l1.041-.515a.534.534 0 0 1 .72.257c.091.201.201.448.316.713a2.08 2.08 0 0 1-1.317 2.838l-.492.146c-.45.134-.877.331-1.262.597-.883.611-1.848 2.349-1.093 4.181 1.347 3.266 2.7 4.485 6.044 6.401 3.225 1.847 7.055 4.078 9.195 5.893C-4.65-3.924-1.996-1.654 0 0" clip-path="url(#y)" style="fill:#0000fe;fill-opacity:1;fill-rule:nonzero;stroke:none" transform="matrix(1.33333 0 0 -1.33333 1035.79 295.316)"></path><path d="M0 0c-10.416-7.476-24-3.107-30.366 7.154-6.384 10.279-5.299 21.65 6.862 30.03 7.631 5.268 18.236 4.535 24.049-1.709l-6.936-5.889c-2.95 3.988-8.572 5.108-13.507 1.816-7.872-5.25-7.85-12.825-3.474-19.892 4.394-7.066 12.978-10.23 19.36-5.732 5.411 3.786 6.622 8.268 5.344 14.055l7.111 4.701C12.659 15.718 9.261 6.633 0 0" clip-path="url(#z)" style="fill:#0000fe;fill-opacity:1;fill-rule:nonzero;stroke:none" transform="matrix(1.33333 0 0 -1.33333 200.744 225.348)"></path><path d="m0 0-28.5-15.589-20.28 37.125 8.201 4.489 17.011-31.123L-3.269 5.984z" clip-path="url(#A)" style="fill:#0000fe;fill-opacity:1;fill-rule:nonzero;stroke:none" transform="matrix(1.33333 0 0 -1.33333 274.088 184.372)"></path><path d="m0 0-32.473.879 1.168 42.287 9.345-.25-.97-35.455L.188 6.817Z" clip-path="url(#B)" style="fill:#0000fe;fill-opacity:1;fill-rule:nonzero;stroke:none" transform="matrix(1.33333 0 0 -1.33333 630.39 119.674)"></path><path d="m0 0-7.185-3.014-20.243 25.663 4.693-32.186-7.122-2.987-30.067 33.709 9.537 3.849L-30.649-1.87l-5.319 32.724 8.749 3.531L-7.792 7.584l-5.15 32.563 9.382 3.787z" clip-path="url(#C)" style="fill:#0000fe;fill-opacity:1;fill-rule:nonzero;stroke:none" transform="matrix(1.33333 0 0 -1.33333 337.337 160.496)"></path><path d="m0 0-14.518-3.786-2.992 11.488 14.518 3.786c3.177.813 6.409-1.071 7.24-4.248a6 6 0 0 0 .203-1.514A5.94 5.94 0 0 0 0 0m-21.813 24.252 13.982 3.638c2.992.776 6.076-1.016 6.852-4.026a5.4 5.4 0 0 0 .185-1.423c0-2.493-1.681-4.783-4.211-5.43l-13.982-3.639zm33.837-13.41c-.591 2.272-4.47 6.409-8.219 5.67 4.636 4.895 2.678 10.879 2.678 10.879-1.607 6.188-8.496 8.46-14.665 6.853l-24.178-6.28 10.547-40.431L3.626-5.526c1.844.503 3.626 1.279 5.125 2.464 7.16 5.658 3.273 13.904 3.273 13.904" clip-path="url(#D)" style="fill:#0000fe;fill-opacity:1;fill-rule:nonzero;stroke:none" transform="matrix(1.33333 0 0 -1.33333 393.579 135.02)"></path><path d="m0 0-11.47-2.069-2.549 14.13 11.47 2.069a7.173 7.173 0 0 0 8.441-7.074A7.16 7.16 0 0 0 0 0m14.148 9.272-.129.665C12.763 16.956 6.04 21.629-.979 20.373l-23.014-4.138 7.277-40.431 8.94 1.607-2.586 14.333 14.075 2.53C10.731-4.47 15.404 2.253 14.148 9.272" clip-path="url(#E)" style="fill:#0000fe;fill-opacity:1;fill-rule:nonzero;stroke:none" transform="matrix(1.33333 0 0 -1.33333 486.35 94.877)"></path><path d="m0 0-35.112-1.459-1.718 41.429 35.094 1.477.277-6.501-25.803-1.09.425-10.436 24.159.998.295-7.074-24.159-1.016.462-10.953 25.803 1.09z" clip-path="url(#F)" style="fill:#0000fe;fill-opacity:1;fill-rule:nonzero;stroke:none" transform="matrix(1.33333 0 0 -1.33333 571.313 118.495)"></path><path d="m0 0 6.93 9.032h5.557L19.899.319 13.974.171l-3.927 5.536L5.759-.011Z" clip-path="url(#G)" style="fill:#0000fe;fill-opacity:1;fill-rule:nonzero;stroke:none" transform="matrix(1.33333 0 0 -1.33333 531.177 60.24)"></path><path d="m0 0-30.844 16.841 19.874 36.391 30.838-16.815-3.113-5.715L-5.92 43.063l-5.013-9.163 21.219-11.593-3.392-6.215-21.228 11.577-5.248-9.625L3.093 5.683Z" clip-path="url(#H)" style="fill:#0000fe;fill-opacity:1;fill-rule:nonzero;stroke:none" transform="matrix(1.33333 0 0 -1.33333 910.669 203.782)"></path><path d="m0 0-.923-4.451c-1.349-6.447-7.666-10.565-14.112-9.217l-9.457 1.976 5.8 27.761 9.475-1.976C-2.789 12.745 1.348 6.428 0 0m-5.467 20.114-20.502 4.285-8.515-40.69 20.502-4.285C-4.063-22.645 5.67-16.291 7.739-6.372l.998 4.765c2.068 9.919-4.286 19.634-14.204 21.721" clip-path="url(#I)" style="fill:#0000fe;fill-opacity:1;fill-rule:nonzero;stroke:none" transform="matrix(1.33333 0 0 -1.33333 718.509 101.65)" data-source="https://football-logos.cc"></path><path d="m0 0-2.652-3.692c-3.851-5.343-11.296-6.54-16.639-2.69l-7.838 5.648 16.577 23.011 7.855-5.655C2.629 12.779 3.843 5.326 0 0m3.176 20.601-16.994 12.244-24.31-33.722 16.993-12.244c8.223-5.92 19.698-4.069 25.618 4.154L7.33-5.018c5.92 8.223 4.061 19.682-4.154 25.619" clip-path="url(#J)" style="fill:#0000fe;fill-opacity:1;fill-rule:nonzero;stroke:none" transform="matrix(1.33333 0 0 -1.33333 975.863 207.264)"></path><path d="M0 0a6.245 6.245 0 0 0-7.721-4.285L-22.231.037l3.435 12.006 14.511-4.341C-.961 6.76.942 3.306 0 0m1.667 12.043-26.953 8.164-11.488-40.044 8.207-2.198 4.71 16.402 11.671-3.916c2.935-.843 5.074-2.364 4.779-5.403-.107-1.109-1.134-3.734-1.523-4.779-1.524-4.086-1.561-6.645-1.561-6.645 3.085-2.587 7.375-2.86 9.734-2.983.638-.033.832.347.47.873-2.525 3.667.875 9.07 1.434 12.495.628 3.842-1.584 5.169-1.584 5.169l-.597 2.312c5.61.415 8.829 3.431 9.863 9.434 0 0 1.334 8.828-7.162 11.119" clip-path="url(#K)" style="fill:#0000fe;fill-opacity:1;fill-rule:nonzero;stroke:none" transform="matrix(1.33333 0 0 -1.33333 790.592 110.639)"></path><path d="M0 0c-3.491-7.721-12.357-11.71-19.375-8.072C-27.613-3.805-29.608 4.1-26.099 11.84c3.491 7.72 12.32 11.636 19.376 8.053C2.216 15.386 3.509 7.721 0 0m-3.749 26.117c-11.304 5.67-24.972.388-30.052-10.805-5.061-11.175-1.477-22.959 11.692-29.7 11.267-5.763 24.99-.388 30.051 10.805 5.061 11.174 2.605 22.534-11.691 29.7" clip-path="url(#L)" style="fill:#0000fe;fill-opacity:1;fill-rule:nonzero;stroke:none" transform="matrix(1.33333 0 0 -1.33333 859.376 147.111)"></path><path d="M0 0h19.117C13.576-20.244-2.05-31.787-23.236-31.787c-25.064 0-45.4 19.818-45.4 44.254 0 24.455 20.336 44.274 45.4 44.274 20.89 0 38.4-10.935 43.129-31.27L.037 25.84c-1.441 10.011-10.362 16.494-22.645 16.494-18.913 0-27.114-13.373-27.114-29.867 0-16.475 9.032-29.848 27.114-29.848C-12.153-17.381-1.588-10.584 0 0" clip-path="url(#M)" style="fill:#0000fe;fill-opacity:1;fill-rule:nonzero;stroke:none" transform="matrix(1.33333 0 0 -1.33333 200.552 574.145)"></path><path d="m0 0 15.312 37.55L30.365 0Zm26.856 53.545H3.99l-35.537-84.372h18.987l6.982 17.122h41.429l6.871-17.122h19.449z" clip-path="url(#N)" style="fill:#0000fe;fill-opacity:1;fill-rule:nonzero;stroke:none" transform="matrix(1.33333 0 0 -1.33333 278.817 572.938)"></path><path d="M0 0v-20.668h50.092v-13.336H0v-22.718h54.247v-13.927h-73.142v84.372h73.142V0Z" clip-path="url(#O)" style="fill:#0000fe;fill-opacity:1;fill-rule:nonzero;stroke:none" transform="matrix(1.33333 0 0 -1.33333 401.878 519.843)"></path><path d="M0 0c-2.678-2.087-6.169-3.38-9.346-3.38h-28.481v23.069h30.864c6.372 0 11.544-5.171 11.544-11.544C4.581 4.969 2.697 2.087 0 0m18.71-41.817-.628 17.769c-.037 6.778-4.063 12.559-11.636 14.333 0 0 16.509 4.891 16.199 24.417-.156 9.774-7.938 14.62-14.58 16.978-4.186 1.487-8.624 2.139-13.066 2.139h-53.181v-84.372h20.355v33.579l26.502-.328c5.209-.166 10.623-5.029 10.531-10.237l-.314-17.362c-.185-3.565 1.81-5.652 5.356-5.652l19.911.221v2.457s-5.356 1.847-5.449 6.058" clip-path="url(#P)" style="fill:#0000fe;fill-opacity:1;fill-rule:nonzero;stroke:none" transform="matrix(1.33333 0 0 -1.33333 575.327 546.637)"></path><path d="M0 0h17.316s4.156 27.567-38.026 27.567C-62.891 27.567-59.359 0-59.359 0s-1.662-20.433 32.831-21.887S1.108-39.134 1.108-39.134s-1.414-9.143-22.11-8.727c-20.695.415-21.942 10.389-22.149 14.753H-62.06s-3.005-28.26 39.744-28.26 42.541 22.857 42.541 29.714c0 6.858-3.325 19.948-36.156 22.026S-41.073 5.749-41.073 5.749s3.279 9.558 20.133 8.519S-1.108 6.303 0 0" clip-path="url(#Q)" style="fill:#0000fe;fill-opacity:1;fill-rule:nonzero;stroke:none" transform="matrix(1.33333 0 0 -1.33333 705.173 534.705)"></path><path d="M0 0h17.316s4.156 27.567-38.026 27.567C-62.891 27.567-59.359 0-59.359 0s-1.662-20.433 32.831-21.887S1.108-39.134 1.108-39.134s-1.414-9.143-22.11-8.727c-20.695.415-21.941 10.389-22.149 14.753H-62.06s-3.005-28.26 39.744-28.26 42.541 22.857 42.541 29.714c0 6.858-3.325 19.948-36.156 22.026S-41.073 5.749-41.073 5.749s3.279 9.558 20.133 8.519S-1.108 6.303 0 0" clip-path="url(#R)" style="fill:#0000fe;fill-opacity:1;fill-rule:nonzero;stroke:none" transform="matrix(1.33333 0 0 -1.33333 999.683 535.26)"></path><path d="M0 0h-17.177l-17.178 62.411L-52.086 0h-16.347l-28.536 84.372h19.671l17.177-65.181 15.238 65.181h20.225l16.623-65.458L7.48 84.372h20.78z" clip-path="url(#S)" style="fill:#0000fe;fill-opacity:1;fill-rule:nonzero;stroke:none" transform="matrix(1.33333 0 0 -1.33333 871.96 614.041)"></path><path d="M0 0c-12.201-3.94-23.803 4.367-26.733 16.081-2.942 11.738 1.562 22.235 15.701 26.503 8.874 2.687 18.75-1.248 22.379-8.968l-8.403-3.491c-1.591 4.698-6.603 7.481-12.308 5.852-9.098-2.596-11.389-9.817-9.379-17.882 2.027-8.071 9.236-13.704 16.686-11.369C4.252 8.68 6.772 12.579 7.322 18.48l8.207 2.306C16.853 11.104 10.843 3.49 0 0" clip-path="url(#T)" style="fill:#0000fe;fill-opacity:1;fill-rule:nonzero;stroke:none" transform="matrix(1.33333 0 0 -1.33333 750.727 1044.245)"></path><path d="m0 0-32.464-1.17-1.5 42.277 9.343.339L-23.355 6l23.113.815Z" clip-path="url(#U)" style="fill:#0000fe;fill-opacity:1;fill-rule:nonzero;stroke:none" transform="matrix(1.33333 0 0 -1.33333 622.821 1062.684)"></path><path d="m0 0-32.357-2.875-3.721 42.139 9.311.83 3.129-35.33L-.6 6.793z" clip-path="url(#V)" style="fill:#0000fe;fill-opacity:1;fill-rule:nonzero;stroke:none" transform="matrix(1.33333 0 0 -1.33333 683.942 1057.141)"></path><path d="m0 0-30.698-10.623-13.813 39.985 8.834 3.059L-24.088-1.1l21.861 7.545z" clip-path="url(#W)" style="fill:#0000fe;fill-opacity:1;fill-rule:nonzero;stroke:none" transform="matrix(1.33333 0 0 -1.33333 839.359 1019.311)"></path><path d="m0 0-14.927 1.516 1.204 11.81 14.926-1.515c3.261-.347 5.633-3.24 5.304-6.507a6 6 0 0 0-.338-1.491A5.94 5.94 0 0 0 0 0m-11.984 30.337L2.389 28.87c3.075-.317 5.341-3.072 5.018-6.164a5.4 5.4 0 0 0-.323-1.397c-.87-2.337-3.244-3.897-5.841-3.62l-14.373 1.467Zm27.035-24.37c.238 2.335-1.953 7.566-5.725 8.181 6.052 2.97 6.305 9.261 6.305 9.261.652 6.36-5.012 10.892-11.354 11.538l-24.85 2.548-4.219-41.57L1.471-6.444c1.903-.172 3.844-.066 5.662.522 8.685 2.805 7.918 11.889 7.918 11.889" clip-path="url(#X)" style="fill:#0000fe;fill-opacity:1;fill-rule:nonzero;stroke:none" transform="matrix(1.33333 0 0 -1.33333 476.015 1049.69)"></path><path d="m0 0-12.969-7.543-5.965 10.265 12.969 7.542c2.843 1.636 6.462.688 8.115-2.149a6 6 0 0 0 .602-1.405A5.94 5.94 0 0 0 0 0m-27.52 17.51 12.493 7.256c2.674 1.551 6.126.652 7.682-2.04.253-.428.43-.858.559-1.32.669-2.403-.336-5.06-2.6-6.362l-12.493-7.256Zm35.983-4.352c-1.179 2.03-5.814 5.488-9.228 3.77 3.153 5.959-.339 11.199-.339 11.199-3.208 5.529-10.454 5.869-15.966 2.666l-20.954-12.199 21.007-36.119L4.976-4.351c1.641.98 3.149 2.205 4.276 3.749 5.38 7.372-.789 13.76-.789 13.76" clip-path="url(#Y)" style="fill:#0000fe;fill-opacity:1;fill-rule:nonzero;stroke:none" transform="matrix(1.33333 0 0 -1.33333 942.038 963.583)"></path><path d="M0 0c-4.632-7.095-14.004-9.679-20.383-5.009-7.487 5.478-8.248 13.596-3.594 20.706 4.632 7.095 13.956 9.612 20.38 4.991C4.547 14.865 4.65 7.092 0 0m.295 26.383c-10.302 7.335-24.618 4.208-31.352-6.075-6.712-10.268-4.976-22.461 7.005-31.14C-13.8-18.253.584-15.043 7.3-4.757 14.012 5.51 13.325 17.112.295 26.383" clip-path="url(#Z)" style="fill:#0000fe;fill-opacity:1;fill-rule:nonzero;stroke:none" transform="matrix(1.33333 0 0 -1.33333 286.76 989.094)"></path><path d="M0 0c-.657-8.448-7.638-15.214-15.476-14.18-9.197 1.211-13.762 7.967-13.093 16.438.657 8.448 7.628 15.133 15.481 14.162C-3.148 15.223.675 8.454 0 0m-12.408 23.285c-12.558 1.488-23.615-8.127-24.585-20.381-.959-12.229 6.418-22.092 21.095-23.954C-3.343-22.637 7.735-12.916 8.687-.669c.959 12.23-5.214 22.077-21.095 23.954" clip-path="url(#aa)" style="fill:#0000fe;fill-opacity:1;fill-rule:nonzero;stroke:none" transform="matrix(1.33333 0 0 -1.33333 361.37 1004.8)"></path><path d="m0 0-5.93-9.313 17.418-10.432-3.767-5.892-17.104 10.898-9.826-15.441-7.795 4.95 22.479 35.352 27.98-17.084-3.599-5.653z" clip-path="url(#ab)" style="fill:#0000fe;fill-opacity:1;fill-rule:nonzero;stroke:none" transform="matrix(1.33333 0 0 -1.33333 214.959 933.922)"></path><path d="m0 0-1.367-6.428-14.702 3.159-7.388-34.466-8.571 1.829 7.389 34.465-14.13 3.029 1.385 6.428z" clip-path="url(#ac)" style="fill:#0000fe;fill-opacity:1;fill-rule:nonzero;stroke:none" transform="matrix(1.33333 0 0 -1.33333 436.578 999.16)"></path><path d="m0 0 8.33 18.489L14.887 0Zm14.001 26.745-10.658.332-18.563-41.816 8.441-.277 3.99 8.847h19.874l3.436-9.697 9.438-.296z" clip-path="url(#ad)" style="fill:#0000fe;fill-opacity:1;fill-rule:nonzero;stroke:none" transform="matrix(1.33333 0 0 -1.33333 525.063 1042.355)"></path><path d="m0 0-7.517-3.066c-7.573-3.085-16.199.535-19.302 8.09l-10.713 26.228 8.644 3.528a1 1 0 0 1 .074-.204l10.399-25.433c1.718-4.248 6.575-6.28 10.805-4.544l2.235.905A8.295 8.295 0 0 1-.831 16.328l-10.38 25.433c-.037.074-.056.13-.093.204l8.681 3.546L8.09 19.301C11.193 11.729 7.554 3.103 0 0" clip-path="url(#ae)" style="fill:#0000fe;fill-opacity:1;fill-rule:nonzero;stroke:none" transform="matrix(1.33333 0 0 -1.33333 881.17 1003.863)"></path><path d="M0 0c0-55.429-45.244-100.363-101.056-100.363S-202.111-55.429-202.111 0s45.244 100.363 101.055 100.363S0 55.429 0 0" clip-path="url(#af)" style="fill:#0000fe;fill-opacity:1;fill-rule:nonzero;stroke:none" transform="matrix(1.33333 0 0 -1.33333 703.51 793.567)"></path><path d="M0 0s8.866 10.078 24.242 13.818c0 0 16.921-8.849 29.112-9.541 0 0 5.866-8.675 8.706-38.666 0 0-15.93-6.338-19.117-9.524 0 0-16.813 12.675-36.207 15.446 0 0-3.273 4.917-6.736 28.467" clip-path="url(#ag)" style="fill:#fefefe;fill-opacity:1;fill-rule:nonzero;stroke:none" transform="matrix(1.33333 0 0 -1.33333 552.424 710.173)"></path><path d="M0 0s11.792 3.636 30.597.017c0 0 1.247-17.115 6.373-27.913 0 0-13.006-8.972-25.266-29.751l-26.616 2.902-6.693 32.305C-7.325-15.48 0 0 0 0" clip-path="url(#ah)" style="fill:#fefefe;fill-opacity:1;fill-rule:nonzero;stroke:none" transform="matrix(1.33333 0 0 -1.33333 506.825 711.766)"></path><path d="m0 0 2.355.831s9.281 7.065 15.099 7.342l1.109 2.009s13.65-2.125 26.776-18.921c0 0-.477-23.051-2.118-32.542 0 0-11.862-12.191-25.438-16.623L1.835-38.337 0-37.766S1.939-12.606 0 0" clip-path="url(#ai)" style="fill:#fefefe;fill-opacity:1;fill-rule:nonzero;stroke:none" transform="matrix(1.33333 0 0 -1.33333 610.975 771.68)"></path><path d="M0 0s22.268.45 41.108 11.394L58.32-8.71v-1.403l-.831-2.216s-3.602-12.329-7.342-22.58l-.831-4.329s-11.394-4.779-31.688-6.753c0 0-22.407 14.684-27.256 24.381z" clip-path="url(#aj)" style="fill:#fefefe;fill-opacity:1;fill-rule:nonzero;stroke:none" transform="matrix(1.33333 0 0 -1.33333 553.901 839.096)"></path><path d="m0 0 26.736-3.255s5.61-19.879 20.71-32.762l-9.905-21.472s-12.329-3.047-30.199-3.186l-.97 2.632-16.069 26.32-1.524.693S-12.329-22.441 0 0" clip-path="url(#ak)" style="fill:#fefefe;fill-opacity:1;fill-rule:nonzero;stroke:none" transform="matrix(1.33333 0 0 -1.33333 486.485 789.226)"></path><path d="M0 0c-.554-16.549-2.143-19.597-2.143-19.597l-1.606-.425c-7.462-12.32-18.064-18.913-18.064-18.913v-1.342c-12.191-7.203-20.576-9.722-20.576-9.722l-.222 2.567C-34.835-27.244-20.373-10.325-1.939.48z" clip-path="url(#al)" style="fill:#fefefe;fill-opacity:1;fill-rule:nonzero;stroke:none" transform="matrix(1.33333 0 0 -1.33333 506.248 684.869)"></path><path d="M0 0c7.776 20.188 22.238 37.107 40.672 47.912" clip-path="url(#am)" style="fill:#fefefe;fill-opacity:1;fill-rule:nonzero;stroke:none" transform="matrix(1.33333 0 0 -1.33333 449.433 748.111)"></path><path d="M0 0v-2.05L-23.568-.96-24.639.923c-11.637.961-22.534 7.352-22.534 7.352l-2.882.092-15.035 15.478v1.312c.444 0 .869-.019 1.293-.019C-39.582 24.787-17.067 15.386 0 0" clip-path="url(#an)" style="fill:#fefefe;fill-opacity:1;fill-rule:nonzero;stroke:none" transform="matrix(1.33333 0 0 -1.33333 653.838 700.605)"></path><path d="M0 0h-3.232c-23.439 15.386-39.675 40.727-42.574 69.966h3.01s11.018-10.223 17.87-18.313l-.156-3.013 16.156-26.337 3.049-1.496z" clip-path="url(#ao)" style="fill:#fefefe;fill-opacity:1;fill-rule:nonzero;stroke:none" transform="matrix(1.33333 0 0 -1.33333 502.726 899.494)"></path><path d="M0 0c-14.167-8.367-30.772-13.151-48.54-13.151-.462 0-.924 0-1.385.019l-.24 2.955 8.339 9.247s13.012-.381 30.614 5.16l1.146 1.57 2.585-.536 7.37-3.158z" clip-path="url(#ap)" style="fill:#fefefe;fill-opacity:1;fill-rule:nonzero;stroke:none" transform="matrix(1.33333 0 0 -1.33333 633.496 902.917)"></path><path d="M0 0c0-13.834-2.937-26.985-8.238-38.825l-.905 1.09s-5.467 9.974-8.681 13.169l1.478 2.346s1.718 23.882 1.256 28.537l-1.533 2.216s5.689 13.853 10.251 18.84l2.179.259A92.8 92.8 0 0 0 0 0" clip-path="url(#aq)" style="fill:#fefefe;fill-opacity:1;fill-rule:nonzero;stroke:none" transform="matrix(1.33333 0 0 -1.33333 695.753 793.77)" data-source="https://football-logos.cc"></path><!-- source: https://football-logos.cc --></svg>