<svg xmlns="http://www.w3.org/2000/svg" xml:space="preserve" viewBox="0 0 235.97 243.16"><!-- Source: https://football-logos.cc --><path d="M1595.3 912.57c0-391.422-317.33-708.75-708.753-708.75-391.43 0-708.75 317.328-708.75 708.75 0 391.43 317.32 708.75 708.75 708.75 391.423 0 708.753-317.32 708.753-708.75" style="fill:#211c1d;fill-opacity:1;fill-rule:nonzero;stroke:none" transform="matrix(.13333 0 0 -.13333 0 243.16)" data-source="https://football-logos.cc"></path><path d="M421.965 1418.82s118.332 111.67 266.668 150c-15-16.67-25-31.67-25-31.67s-139.996-58.33-193.328-115c-30-3.33-48.34-3.33-48.34-3.33M720.305 1543.82s38.34 40 86.668 45c48.332 5 246.677 28.33 348.337-75 16.66-31.67-80-53.34-80-53.34s-216.665 8.34-278.337 18.34c-18.336 8.33-76.668 65-76.668 65M780.305 1470.48l-75 40s-20 10-50 3.34c-30-6.67-156.66-85-178.332-116.67-5-30 5-75 5-75s64.996-3.33 193.332 50c103.332 56.67 105 98.33 105 98.33M456.973 1397.15v-120s-78.328-135-105-220c-29.996-53.34-101.66-88.341-101.66-88.341s-25-16.661-28.336 31.671c-3.332 48.33 36.656 351.68 234.996 396.67M1166.98 1530.47l246.67-201.66s-91.67 161.66-246.67 201.66M1090.32 1443.81s105 30 148.33 0 138.33-95 138.33-140-6.66-81.67-6.66-81.67 1.66-23.34-53.34-1.67c-179.99 83.34-223.33 191.67-223.33 191.67zM1411.99 1297.14s-18.33-1.67-30-113.33c21.64-116.66 66.67-238.333 66.67-238.333s68.31-93.317 83.31-89.985c15 3.328 43.34 4.988 40 118.328-11.67 190-108.34 298.34-108.34 298.34s-14.95 28.3-51.64 24.98M1560.3 847.152s-74.99-226.672-113.33-275.004c-8.34-23.328 115 53.332 113.33 275.004M1425.3 553.82l-90-3.34s-28.33 10-58.33-15-145-113.332-145-113.332-45-90-60-110 21.66-18.328 36.66-18.328 95.01-10 193.34 75 125 158.328 125 158.328 8.33 3.34-1.67 26.672M745.305 275.48l299.995 6.661S926.969 180.48 745.305 275.48M711.965 403.809s153.332 31.679 168.332 38.339 0 16.661 108.332-3.339l108.331-20s23.34-28.329-58.33-103.329c-105.001-41.671-265.001-5-265.001-5s-60 51.661-61.664 93.329M290.297 670.48s-20-131.671 141.668-245c161.664-113.332 171.668-130 303.332-133.332 25 10-56.668 116.672-56.668 116.672s-191.672 111.668-240 193.328c-58.332 46.661-148.332 68.332-148.332 68.332M225.297 945.48l50-266.671s-103.328 113.332-50 266.671M335.297 1000.48l-68.332-50s-11.668-9.992-11.668-31.664c0-21.668 11.668-170.007 41.668-203.336 30-33.332 71.664-63.332 125-78.332 10 75 3.332 208.332 3.332 208.332z" style="fill:#d3d4d3;fill-opacity:1;fill-rule:nonzero;stroke:none" transform="matrix(.13333 0 0 -.13333 0 243.16)"></path><path d="m806.953 1453.82 241.667-18.33s14.99-6.67 26.66-25c11.67-18.34 91.67-126.67 91.67-126.67l-116.67-168.33 130 141.66s16.68 11.67 28.34 5c11.66-6.66 141.66-71.66 141.66-71.66s13.34-6.67 16.67-18.34c3.33-11.66 60-224.998 60-224.998s-15.01-50.011-36.67-76.672c55 50.008 65 40.008 65 40.008l61.67-75.008s5-85-85-243.332c-86.66-33.328-96.66-16.668-96.66-16.668s-12.49 59.59-7.49 93.34c-28.75-91.25-38.75-92.5-38.75-92.5s-117.5-110-170-130-192.503 22.5-192.503 22.5l-23.75 36.25h-8.75s3.75-33.75-2.5-37.5-128.75-42.5-183.75-45c-68.75 16.25-208.75 126.25-253.75 192.5-15 66.25-3.75 198.75-3.75 207.5s163.75 50 186.25 50c17.5 6.25-5 8.75-5 8.75s-155-30-178.75-31.25-77.5 116.25-80 137.5-18.75 82.5 50 203.75c70 111.25 121.25 120 121.25 120s125 21.25 140 27.5 122.906 115 122.906 115" style="fill:#d3d4d3;fill-opacity:1;fill-rule:nonzero;stroke:none" transform="matrix(.13333 0 0 -.13333 0 243.16)"></path><path d="M964.047 696.32c-18.75-30-41.25-81.25-61.25-92.5-16.25-5-31.25 2.5-31.25 2.5l45.422 84.16s20.828 45.008 12.078 63.34l28.75-3.75s25-23.75 6.25-53.75m470.003 61.25s-18.75 10-37.5 21.25-36.25 33.75-36.25 33.75 1.25 35-36.25 52.5c-228.75 117.5-390.003 220-435.003 250s-90 92.5-106.25 108.75-21.25 31.25-61.25 63.75-103.75 2.5-103.75 2.5l-142.5-57.5-1.25-6.25s52.5-10 67.5-15 32.5-12.5 55-37.5 46.25-142.5 46.25-142.5-3.75-32.5 40-110 192.5-183.75 196.25-188.75 2.5-45 2.5-45l-45-90s-63.75-8.75-86.25-7.5-28.75-7.5-26.25-17.5 17.5-5 17.5-5-7.5-10-6.25-15 21.25 2.5 21.25 2.5-10-22.5 16.25-20 57.5 22.5 57.5 22.5 140-3.75 157.5-3.75c17.503 0 27.503 7.5 25.003 18.75s-67.503 22.5-67.503 22.5l5 26.25s43.75 70 47.5 75c3.753 5 13.753 26.25 16.253 43.75s46.25 23.75 46.25 23.75h195s62.5-42.5 133.75-47.5 45 41.25 45 41.25" style="fill:#211c1d;fill-opacity:1;fill-rule:nonzero;stroke:none" transform="matrix(.13333 0 0 -.13333 0 243.16)"></path><path d="M92.984 752.77c9.149 2.261 23.399 5.929 31.758 9.41 18.34 7.89 5.528 19.879 17.723 23.218 8.43 2.313 14.648-6.476 16.594-13.566 1.582-5.781 10.293-46.312 15.339-64.723 1.223-4.437 15.637-48.41 16.497-51.507 2.363-8.653-12.668-22.551-27.747-26.68-7.546-2.063-16.277-.652-18.582 7.777-4.199 15.313 20.84 13.59 9.168 56.172-3.699 13.527-4.168 19.598-36.336 10.801-3.996-1.102-7.707-2.363-4.171-15.223 4.668-17.09 22.101-.617 26.359-16.148 3.457-12.641-20.481-20.16-29.121-22.52-10.43-2.851-37.57-9.101-41.711 5.981-3.875 14.187 25.187 6.418 18.691 30.148-2.676 9.77-4.082 7.949-26.992 1.922-33.074-8.113-8.75-25.531-25.605-30.141-5.098-1.41-14.317-6.082-29.07 47.829-9.727 35.492-6.204 42.66 3.34 45.261 12.421 3.41 9.929-10.16 22.968-11.59 6.816-.519 22.742 3.129 30.066 5.141zM200.863 553.922c-5.965 11.43-20.781 10.937-30.769 5.719-17.336-9.051-59.668-46.762-48.156-68.77 6.496-12.449 20.07-12.109 31.085-6.351 18.555 9.691 60.313 45.539 47.84 69.402m-79.773 46.84c43.223 22.57 91.824 4.097 115.058-40.34 29.415-56.281-8.839-103.793-35.136-117.543-43.848-22.91-93.047.703-114.785 42.301-22.493 43.031-8.567 92.871 34.863 115.582M305.973 397.801c-8.594 9.597-22.825 5.488-31.223-2.02-14.57-13.031-46.336-59.972-29.766-78.48 9.348-10.449 22.422-6.781 31.68 1.488 15.598 13.961 47.258 58.961 29.309 79.012m-88.809 25.769c36.348 32.52 87.969 26.551 121.406-10.8 42.325-47.309 16.934-102.739-5.175-122.52-36.856-32.988-90.332-22.191-121.622 12.77-32.363 36.171-31.113 87.89 5.391 120.55M489.203 279.969c8.125-5.629 12.422-7.5 15.656-8.899 3.164-1.082 5.067-1.558 8.653-4.058 7.383-5.121 12.566-30.301-1.602-50.692-6.562-9.449-15.801-12.261-25.441-5.57-16.434 11.41-.762 33.559-10.391 40.27-7.371 5.109-13.699-5.622-14.754-7.122l-40.285-57.988c-15.613-22.48 9.25-23.789.051-37.012-4.063-5.847-13.43-11.679-48.75 12.872-9.629 6.691-45.215 30.851-35.11 45.39 6.954 10.02 15.911-2.078 24.668 2.469 4.649 2.66 13.282 13.473 16.75 18.062l30.516 40.68c14.531 19.32 10.441 21.879 7.785 23.719-8.496 5.91-28.136-13.5-43.437-2.871-7.364 5.133-6.985 14.953-2.258 21.75 11.152 16.051 39.316 27.57 50.09 20.082 1.316-.91 3.008-2.93 6.074-6.172 3.191-3.07 7.762-7.367 15.32-12.617zM580.641 171.441c-3.36-8.32-5.422-12.211 1.191-14.871 12.793-5.172 19.395 2.578 24.129 14.309 3.867 9.601 5.5 22.82-6.231 27.551-7.89 3.179-9.617-3.532-12.117-9.731zm-21.008-52.031c-9.988-24.73-6.18-27.012.422-29.68 12.148-4.91 19.773 1.692 24.246 12.782 5.254 13.008 6.066 26.058-8.856 32.09-6.613 2.66-9.484-.133-11.504-4.532zm79.269 17.602c-2.617-.942-5.05-1.442-6.164-4.203-1.121-2.789.879-4.579 2.578-6.508 7.364-6.949 17.942-24.352 10.715-42.262-8.613-21.32-33.488-41.777-76.34-24.48-7.253 2.922-13.769 5.8-19.988 8.812-6.308 2.8-12.629 5.598-19.238 8.258-7.246 2.93-14.797 5.73-22.129 8.441a401 401 0 0 0-22.219 8.23c-6.609 2.669-12.527 9.532-9.512 16.981 5.344 13.219 13.782-5.812 29.336 29.071l27.141 60.468c14.277 31.668-10 24.352-4.055 39.059 3.262 8.109 13.555 8.422 20.168 5.762 7.891-3.2 15.606-6.809 23.407-10.211 7.714-3.621 15.429-7.211 23.32-10.399 5.117-2.062 10.195-3.633 15.266-5.172 4.988-1.769 10.292-3.418 15.183-5.39 39.016-15.739 41.555-38.348 34.922-54.77-3.953-9.801-12.227-18.609-22.391-21.687M765.367 78.781c2.274-.32 9.043-1.742 9.52 1.68.48 3.418-4.461 16.187-5.84 19.629-1.543 3.941-4.227 12.91-9.246 13.609-5.461.77-11.25-12.359-12.52-14.738-1.261-2.36-6.367-10.7-6.758-13.45-.539-3.882 5.243-3.992 7.754-4.34zM719.82 101.88c9.266 14.73 21.414 33.473 23.934 51.473 2.207 15.73 11.152 26.546 31.426 23.687 19.816-2.769 29.511-24.801 36.289-41.07 2.941-7.149 27.578-81.68 33.164-101.508 5.09-18.371 18.867-9.602 17.043-22.59-2.324-16.64-34.582-11.43-45.977-9.832-32.578 4.57-52.129 7.543-50.156 21.66 1.531 10.942 14.852 4.89 15.977 12.871 1.433 10.239-4.133 11.961-40.821 17.102-11.836 1.66-18.965 2.187-20.527-8.973-1.25-8.89 14.16-5.008 12.508-16.847-1.914-13.68-26.551-10.454-35.664-9.18-32.578 4.566-34.676 11.129-33.661 18.43 1.504 10.699 13.36 5.777 21.114 13.058 5.867 5.461 12.187 15.711 16.629 22.531zM917.484 2.75c-7.332-.691-18.972-2.23-19.961 8.3-1.328 14.2 17.649 3.962 15.852 30.598-1.113 16.774-2.492 31.422-3.762 44.954-1.289 13.73-3.64 26.437-5.3 39.23-2.258 19.199-21.477 7.227-22.708 20.297-1.562 16.723 34.317 21.012 45.54 22.051 45.918 3.16 48.835-3.258 49.57-11.059 1.238-13.281-17.805-4.902-15.781-26.422l6.836-72.847c1.55-16.493 5.058-24.25 21.316-22.73 38.934 3.66 22.664 34.25 37.324 35.616 10.3.973 15.24-9.648 16.05-18.36 1.68-17.866-9-41.98-19.54-42.968-4.12-.37-7.42.23-11.61.54-4.43.5-9.54.71-17.322-.009zM1095.99 27.45c-7.05-2.118-18.14-5.95-21.19 4.179-4.12 13.66 16.5 7.383 9.47 33.133-4.4 16.207-8.65 30.289-12.56 43.289-3.98 13.211-8.79 25.211-12.95 37.41-6.01 18.359-22.48 2.84-26.25 15.391-4.85 16.078 29.46 27.367 40.26 30.617 44.37 12.16 48.49 6.453 50.75-1.039 3.85-12.77-16.46-8.328-10.22-29.02l21.09-70.031c4.77-15.86 9.73-22.77 25.37-18.07 37.44 11.28 15.44 38.05 29.53 42.293 9.91 2.988 16.85-6.473 19.37-14.832 5.16-17.16-.54-42.91-10.66-45.95-3.96-1.21-7.31-1.25-11.47-1.78-4.45-.38-9.5-1.18-16.98-3.438zM1311.97 304.859c18.46 12.922 36.79 11.981 41.69 15.411 4.15 2.89 4.36 5.019 7.57 7.242 7.91 5.527 26.38.777 41-20.153 7.51-10.73 7.43-24.25-3.69-32.027-19.4-13.562-37.83 23.219-71.37-.242-14.51-10.149-11.05-27.93-3.82-38.289 19.51-27.891 51-41.223 77.38-22.781 23.93 16.742 18.43 32.218 24.27 36.312 5.46 3.816 12.57-.742 15.87-5.441 5.8-8.289 9.24-31.692-.17-38.282-6.41-4.488-11.96-24.621-34.2-40.187-39.57-27.66-93.86-19.024-120.33 18.848-27.01 38.628-11.33 93.64 25.8 119.589M1509.93 254.621c-4.99-5.41-12.63-14.332-20.39-7.16-10.49 9.66 10.47 14.75-8.68 33.348-12.03 11.722-22.86 21.711-32.84 30.921-10.13 9.36-20.39 17.25-30.16 25.649-14.53 12.769-20.81-8.969-30.44-.078-12.36 11.39 11.46 38.558 19.1 46.84 32.06 33.039 38.52 30.211 44.27 24.918 9.81-9.071-9.96-15.547 5.93-30.219l53.78-49.61c12.17-11.23 19.96-14.671 31.04-2.648 26.52 28.727-6.04 40.598 3.95 51.418 7.02 7.621 17.8 3.012 24.21-2.91 13.2-12.18 21.37-37.238 14.19-45.039-2.8-3.031-5.66-4.781-8.97-7.34-3.65-2.602-7.59-5.852-12.89-11.602zM1582.8 558.102c-21.42 12.16-22.98-9.711-34.58-3.133-12.4 7.043 1.17 30.019 5.82 38.23 4.31 7.59 16.8 29.621 28.41 23.02 11.22-6.34-4.12-17.5 14.1-27.828l54.03-30.661c9-5.101 57.14-32.152 17.84-101.39-44.72-78.852-100.56-35.508-102.97-34.16l-46.22 26.23c-12.15 7.949-19.88-5.64-29.08-.43-2.8 1.602-15.26 5.758 8.14 46.969 18.5 32.61 28.27 35.821 36.06 31.391 14.4-8.18-7.29-15.168 16.56-30.039l36.81-20.879c23.81-13.512 44.13-13.141 56.16 8.066 17.95 31.602-9.06 45.102-11.26 46.352zM1698.34 663.57c25.69-7.211 27.53-3.211 29.47 3.668 3.54 12.621-3.85 19.473-15.36 22.711-13.5 3.789-26.59 3.172-30.94-12.34-1.93-6.847 1.18-9.39 5.76-10.918zm-54.03 15.168c8.64-2.406 12.73-4.039 14.66 2.844 3.72 13.277-4.7 18.977-16.89 22.418-9.95 2.789-23.29 2.949-26.7-9.238-2.3-8.172 4.58-9.16 11-10.961zm27.85 61.711c1.22-2.488 2-4.867 4.88-5.668 2.87-.812 4.44 1.379 6.17 3.278 6.09 8.089 22.24 20.511 40.84 15.273 22.15-6.211 45.21-28.711 32.7-73.203-2.11-7.539-4.26-14.34-6.58-20.848-2.09-6.59-4.17-13.16-6.1-20.031-2.11-7.52-4.07-15.328-5.97-22.93a398 398 0 0 0-5.74-22.988c-1.93-6.871-8.09-13.492-15.84-11.32-13.73 3.859 4.27 14.328-32.12 25.988l-63.08 20.352c-33.06 10.73-23.14-12.59-38.41-8.313-8.42 2.383-9.85 12.57-7.92 19.43 2.3 8.179 5.04 16.25 7.56 24.39 2.75 8.071 5.49 16.129 7.8 24.332 1.5 5.321 2.48 10.528 3.47 15.75 1.21 5.161 2.26 10.579 3.69 15.68 11.39 40.527 33.58 45.52 50.63 40.731 10.19-2.872 19.85-10.122 24.02-19.903M33.531 1214.4c7.055 21.4 22.293 31.63 24.164 37.3 1.586 4.81.489 6.62 1.715 10.34 3.02 9.17 20.668 16.42 44.906 8.43 12.446-4.11 20.481-14.99 16.231-27.87-7.422-22.49-44.195-4.07-57.016-42.94-5.547-16.81 7.871-28.98 19.883-32.94 32.313-10.66 65.516-2.49 75.602 28.08 9.144 27.73-4.551 36.85-2.321 43.62 2.09 6.33 10.524 6.94 15.981 5.14 9.605-3.17 26.383-19.84 22.777-30.76-2.445-7.42 5.176-26.88-3.32-52.65-15.125-45.85-63.758-71.45-107.653-56.98-44.757 14.77-65.14 68.22-50.949 111.23M220.859 1368.14c-2.75.42-9.722 2.79-11.738-.29-2.398-3.65 1.723-8.28 10.762-21.35l21.367-30.77c7.359-10.59 13.219-17.18 5.023-29.69-7.054-10.77-15.683-9.24-26.8-6.91l-114.84 24.08c-17.383 3.69-15.305-8.67-27.04-.98-13.277 8.69 3.348 34.92 9.15 43.77 18.398 28.09 25.976 30 33.866 24.84 5.774-3.79 3.645-8.71 9.606-12.63 5.582-3.65 23.535-6.88 26.348-7.62 3.71-1.06 19.953-5.65 22.851-1.23 3.277 5.01-7.93 18.12-10.184 20.98-.777 1.33-4.523 6.53-5.871 7.41-1.726 1.14-16.304 4.91-23.359 1.28-4.441-2.58-9.281-4.1-14.094-.94-1.148.76-14.461 5.62 11.883 45.84 24.453 37.32 32.606 30.88 35.871 28.74 6.356-4.15 2.414-13.95 7.223-17.1 5.195-3.4 21.414-4.68 26.906-5.53 3.957-.66 18.66-4.25 21.688.37 4.285 6.54-23.008 36.24-25.704 38.01-8.269 5.42-12.23-9.86-22.812-2.93-11.738 7.69 1.695 26.94 6.859 34.83 5.172 7.89 15.586 21.68 26.36 14.63 9.429-6.18 1.636-12.62 11.699-26.64l64.91-89.81c7.742-10.85 14.852-21.83 7.668-32.79-6.305-9.63-13.516-9.3-23.867-7.47zM333.863 1505.22c-2.996 1.39-9.394 4.99-12.547 2.31-5.421-4.63 16.024-26.24 20.95-32.01 15.964-18.73 19.707-.43 27.761-9.88 8.508-9.98-9.922-26.3-16.746-32.12-6.125-5.22-22.5-18.27-30.258-9.17-8.507 9.97 9.008 10.7-1.828 26.25-11.136 15.89-23.441 33.51-45.078 58.89-8.953 10.5-14.281 15.33-19.637 17.72-4.882 2.18-15.906-5.1-22.023 2.07-8.504 9.98 5.68 26.31 19.684 38.25 20.476 17.45 23.109 13.65 35.972 9.21 14.93-5.11 50.254-24.55 59.45-19.74 6.468 3.4-4.411 30.7-7.961 47.63-5.102 24.05-9.407 29.46 13.695 49.15 7.707 6.56 25.656 20.97 35.055 9.94 5.972-7-.711-15.12 2.613-22.56 2.777-6.09 19.16-27.79 25.879-35.67 2.234-2.62 19.703-20.98 34.281-36.66 11.418-12.33 19.531-.58 26.246-8.45 10-11.72-14.426-31.65-22.129-38.21-7.176-6.12-30.554-27.26-40.101-16.06-5.227 6.12 1.75 13.89-1.797 20.53-1.836 3.58-24.004 36.66-30.129 31.44-5.426-4.62 2.105-24.8 5.515-37.31 3.016-11.33 13.727-36.66 7.528-40.73-3.098-2.04-4.199-3.59-34.844 11.09z" style="fill:#ec1d27;fill-opacity:1;fill-rule:nonzero;stroke:none" transform="matrix(.13333 0 0 -.13333 0 243.16)" data-source="https://football-logos.cc"></path><path d="M520.266 1620.2c12.089-23.79 16.297-22.43 22.656-19.2 11.687 5.94 11.726 16.02 6.308 26.68-6.359 12.52-15.679 21.71-30.035 14.42-6.359-3.23-6.125-7.24-4.14-11.65zm-25.426 50.03c4.062-8 5.629-12.1 11.984-8.87 12.309 6.25 10.805 16.32 5.071 27.6-4.688 9.23-13.602 19.15-24.883 13.42-7.586-3.86-3.637-9.59-.617-15.54zm64.262 21.31c-1.016-2.58-2.239-4.75-.879-7.41 1.351-2.67 4.027-2.35 6.597-2.33 10.078.99 30.16-2.48 38.914-19.71 10.422-20.5 9.504-52.71-31.718-73.66-6.973-3.54-13.438-6.57-19.793-9.28-6.262-2.93-12.516-5.85-18.871-9.08-6.973-3.54-14.051-7.39-20.914-11.14-6.77-3.96-13.633-7.7-20.813-11.35-6.355-3.23-15.41-3.19-19.062 3.99-6.458 12.72 13.437 6.57-2.629 41.23l-27.762 60.22c-14.504 31.59-24.949 8.48-32.145 22.63-3.957 7.79 2.575 15.76 8.934 18.98 7.586 3.86 15.379 7.31 23.074 10.96 7.793 3.44 15.594 6.89 23.18 10.75 4.922 2.5 9.43 5.3 13.941 8.11 4.61 2.6 9.324 5.51 14.043 7.91 37.528 19.07 56.235 6.13 64.258-9.66 4.793-9.43 6.004-21.47 1.645-31.16" style="fill:#ec1d27;fill-opacity:1;fill-rule:nonzero;stroke:none" transform="matrix(.13333 0 0 -.13333 0 243.16)"></path><path d="M657.348 1731.29c1.031-5.91 1.172-11.1 8.527-9.22 14.492 3.7 17.121 12.92 13.594 26.74-2.789 10.92-8.313 21.39-21.242 18.08-8.247-2.1-6.711-7.17-5.395-14.19zm-54.223-3.4c-8.824 34.56-22.125 15.96-25.652 29.79-3.133 12.25 13.859 18.26 22.777 20.53 4.684 1.2 9.254 1.89 13.992 2.86 4.571.7 9.367 1.44 13.824 2.58 7.133 1.82 14.157 4.09 21.399 6.42 7.078 2.04 14.32 4.36 21.453 6.18 25.191 6.43 57.242 2.75 64.809-26.91 3.418-13.37.253-27.95-10.692-37.16-1.722-1.63-3.117-2.69-2.433-5.36.855-3.35 3.98-3.5 6.941-3.94 17.082-1.81 26.613-10.3 35.883-33.58 7.969-20.04 19.269-3.86 22.742-17.46 2.164-8.47-5.813-20-31.004-26.44-35.672-9.11-45.367 10.27-59.793 37.93-5.066 9.63-11.418 18.69-23.68 15.56-4.902-1.25-6.519-2.37-2.929-16.42 1.648-6.47 4.371-15.27 7.082-21.23 4.398-9.79 14.972-3.77 17.703-14.47 2.051-8.03-1.988-15.47-38.102-24.69-10.703-2.73-42.355-10.81-46.511 5.46-2.961 11.59 15.808 7.84 8.414 36.82z" style="fill:#ec1d27;fill-opacity:1;fill-rule:nonzero;stroke:none" transform="matrix(.13333 0 0 -.13333 0 243.16)"></path><path d="M867.895 1725.1c2.3.04 9.207-.31 9.152 3.13-.055 3.45-6.914 15.31-8.805 18.5-2.129 3.64-6.172 12.09-11.23 12.01-5.524-.09-9.207-13.95-10.086-16.49-.887-2.55-4.653-11.58-4.606-14.34.063-3.91 5.801-3.12 8.328-3.09zm-48.555 15.79c6.883 15.98 15.98 36.36 15.695 54.53-.254 15.86 6.914 27.94 27.383 28.26 20.004.32 32.977-19.94 42.187-34.98 4.012-6.6 39.852-76.41 48.438-95.14 7.859-17.35 20.117-6.58 20.32-19.68.266-16.79-32.39-16.62-43.894-16.8-32.883-.53-52.656-.61-52.887 13.65-.176 11.03 13.922 7.11 13.785 15.17-.156 10.34-5.926 11.17-42.945 10.58-11.957-.19-19.078-.77-18.902-12.03.148-8.97 14.765-2.75 14.957-14.71.218-13.8-24.61-14.42-33.809-14.57-32.887-.52-35.973 5.63-36.09 13-.172 10.8 12.297 7.78 18.832 16.17 4.961 6.29 9.617 17.4 12.945 24.81z" style="fill:#ec1d27;fill-opacity:1;fill-rule:nonzero;stroke:none" transform="matrix(.13333 0 0 -.13333 0 243.16)"></path><path d="M1100.99 1736.74c2.17-2.87 7.81-11.04 11.85-11.99 5.6-1.3 7.97 7.83 8.85 11.64 1.31 5.59 3.34 15.28 2.76 20.85-.94 10.14-13.61 9.56-10.77 21.65 3.35 14.34 26.03 8.32 35.45 6.13 9.85-2.3 34.53-6.89 30.91-22.34-2.97-12.77-13.75-5.29-19.97-14.71-4.79-7.38-8.03-21.27-10.03-29.78l-13.55-58.01c-2.35-10.09-8.18-41.09-23.19-37.58-4.48 1.04-7.66 4.62-10.34 8.32l-54.71 78.22c-2.46 3.64-7.03 10.38-11.73 11.48-6.94 1.62-10.58-12.89-11.67-17.59-1.47-6.27-3.18-14.61-3.19-20.75.01-15.12 13.13-12.52 10.56-23.5-3.5-15-26.88-10.96-37.419-8.5-10.305 2.41-33.059 9.15-29.66 23.71 2.773 11.87 14.668 4.13 20.265 17.94 3.817 9.27 7.559 23.27 9.91 33.35 3.77 16.13 7.594 32.48 8.894 49.18 1.65 23.24-16.519 18.28-13.374 31.72 3.711 15.9 33.744 7.94 43.824 5.59 13.89-3.25 16.15-4.72 24.13-16.04zM1365.54 1680.23c8.52-5.04 12.94-6.6 16.26-7.77 3.24-.85 5.18-1.19 8.94-3.42 7.71-4.58 14.71-29.32 2.04-50.69-5.87-9.9-14.88-13.38-24.98-7.39-17.22 10.21-3.18 33.44-13.26 39.42-7.73 4.58-13.27-6.58-14.21-8.16l-36.02-60.76c-13.96-23.55 10.93-23.06 2.72-36.92-3.64-6.13-12.56-12.61-49.57 9.33-10.09 5.99-47.34 27.54-38.3 42.77 6.22 10.49 16.02-.94 24.44 4.24 4.44 2.98 12.27 14.38 15.41 19.21l27.51 42.8c13.11 20.31 8.84 22.58 6.07 24.22-8.9 5.28-27.11-15.49-43.14-5.98-7.72 4.57-8.04 14.4-3.82 21.52 9.97 16.82 37.25 30.34 48.53 23.65 1.38-.82 3.21-2.7 6.5-5.73 3.41-2.82 8.28-6.78 16.2-11.47zM1466.17 1563.56c-9.42 8.79-23.24 3.43-30.93-4.81-13.34-14.29-40.78-63.9-22.62-80.86 10.26-9.58 22.95-4.74 31.43 4.34 14.28 15.3 41.79 62.95 22.12 81.33m-90.78 17.72c33.28 35.65 85.25 34.34 121.91.11 46.41-43.34 26.07-100.84 5.82-122.53-33.76-36.16-88-30.2-122.3 1.83-35.48 33.13-38.88 84.77-5.43 120.59M1568.12 1335.23c1.55 2.3 6.66 7.6 4.74 10.73-2.29 3.73-8.23 1.97-23.9-.64l-36.92-6.23c-12.72-2.14-21.18-4.64-29 8.1-6.75 10.97-1.69 18.12 5.16 27.19l70.66 93.62c10.74 14.16-1.33 17.54 10.63 24.88 13.51 8.31 30.16-17.9 35.7-26.91 17.58-28.61 16.08-36.27 8.05-41.21-5.88-3.61-9.44.42-15.51-3.32-5.67-3.49-16.25-18.35-18.12-20.58-2.53-2.91-13.6-15.65-10.83-20.15 3.13-5.1 19.77-.54 23.3.29 1.55.13 7.85 1.3 9.21 2.14 1.77 1.09 11.39 12.66 11.11 20.59-.45 5.12.24 10.14 5.14 13.15 1.18.72 11.24 10.69 36.41-30.26 23.35-38.01 14.05-42.64 10.72-44.69-6.46-3.97-13.64 3.76-18.54.75-5.29-3.25-13.34-17.38-16.45-21.98-2.29-3.31-11.79-15.07-8.9-19.78 4.09-6.66 42.57 5.38 45.32 7.07 8.43 5.17-3.71 15.26 7.07 21.88 11.94 7.34 23.64-13 28.57-21.03 4.94-8.04 12.99-23.33 2.01-30.07-9.59-5.9-12.1 3.89-29.07.75l-108.87-20.47c-13.11-2.39-26.07-4.14-32.92 7.02-6.03 9.8-2.66 16.18 3.39 24.77zM1699.89 1125.57c-1.48-3.27-5.93-12.15-4.83-16.14 1.55-5.54 10.7-3.23 14.46-2.18 5.54 1.54 15.01 4.41 19.61 7.6 8.44 5.69 1.85 16.51 13.81 19.84 14.18 3.95 19.81-18.84 22.4-28.14 2.71-9.75 10.53-33.6-4.75-37.85-12.64-3.51-11.25 9.53-22.49 10.45-8.77.67-22.51-3.15-30.93-5.5l-57.38-15.97c-9.97-2.77-39.96-12.54-44.08 2.3-1.24 4.43.37 8.94 2.32 13.06l42.33 85.54c2.02 3.9 5.73 11.15 4.44 15.8-1.91 6.87-16.38 3.08-21.03 1.79-6.21-1.73-14.34-4.23-19.73-7.17-13.25-7.26-4.67-17.53-15.53-20.55-14.84-4.13-22.52 18.32-25.42 28.74-2.83 10.19-7.85 33.38 6.54 37.38 11.75 3.27 10.68-10.87 25.47-9.15 9.96 1.11 24.04 4.54 34.01 7.32 15.95 4.44 32.13 8.94 47.4 15.81 21.17 9.72 8.09 23.26 21.39 26.96 15.73 4.38 23.16-25.78 25.93-35.75 3.83-13.74 3.62-16.42-2.47-28.86z" style="fill:#ec1d27;fill-opacity:1;fill-rule:nonzero;stroke:none" transform="matrix(.13333 0 0 -.13333 0 243.16)" data-source="https://football-logos.cc"></path><!-- source: https://football-logos.cc --></svg>