<svg xmlns="http://www.w3.org/2000/svg" xml:space="preserve" viewBox="18.9 85.03 755.91 624.75"><!-- Source: https://football-logos.cc --><path d="m484.34 4796.24 394.582 526c679.898-558.8 1410.838-602.22 2086.628-34.74l10.82 9.15 10.79-9.13c675.82-567.5 1406.77-524.1 2086.68 34.72l394.58-526c-89.61-129.7-147.12-249.15-144.41-442.45 4.67-333.5 446.54-723.07 482.52-1203.56 34.18-456.25-129.68-804.43-370.82-1072.93-175.97-195.93-385.16-352.97-636.65-462.07-432.37-187.56-954.04-249.07-1357.72-489.64-187.81-111.93-352.43-275.789-463.1-485.391l-1.85-3.547-1.9 3.547c-110.61 209.602-275.27 373.481-463.07 485.391-403.66 240.57-925.35 302.08-1357.73 489.64-251.479 109.1-460.674 266.14-636.643 462.07-241.137 268.5-404.996 616.68-370.82 1072.93 35.984 480.49 477.847 870.06 482.523 1203.56 2.711 193.3-54.801 312.75-144.41 442.45" style="fill:#fff;fill-opacity:1;fill-rule:evenodd;stroke:none" transform="matrix(.13333 0 0 -.13333 0 794.667)" data-source="https://football-logos.cc"></path><path d="m484.34 4796.24 394.582 526c679.898-558.8 1410.838-602.22 2086.628-34.74l10.82 9.15 10.79-9.13c675.82-567.5 1406.77-524.1 2086.68 34.72l394.58-526c-89.61-129.7-147.12-249.15-144.41-442.45 4.67-333.5 446.54-723.07 482.52-1203.56 34.18-456.25-129.68-804.43-370.82-1072.93-175.97-195.93-385.16-352.97-636.65-462.07-432.37-187.56-954.04-249.07-1357.72-489.64-187.81-111.93-352.43-275.789-463.1-485.391l-1.85-3.547-1.9 3.547c-110.61 209.602-275.27 373.481-463.07 485.391-403.66 240.57-925.35 302.08-1357.73 489.64-251.479 109.1-460.674 266.14-636.643 462.07-241.137 268.5-404.996 616.68-370.82 1072.93 35.984 480.49 477.847 870.06 482.523 1203.56 2.711 193.3-54.801 312.75-144.41 442.45m115.855-3.64c85.071-137.18 125.864-264.9 123.426-440.14-2.168-154.78-80.914-309.47-155.094-441.73-82.586-147.19-174.047-289.79-241.339-445.07-44.477-102.64-77.954-210.46-86.36-322.52-28.844-385.14 89.973-716.48 346.809-1002.45 169.961-189.23 369.824-336.91 603.803-438.43 444.95-193 945.86-243.26 1368.54-495.17 165.38-98.53 307.56-230.52 416.43-387.578 108.93 157.105 251.1 289.088 416.36 387.578 422.68 251.89 923.59 302.17 1368.53 495.17 234 101.52 433.86 249.2 603.82 438.43 256.84 285.97 375.65 617.31 346.81 1002.45-4.91 65.26-18.32 129.39-37.59 191.87-13.69 44.45-30.29 87.98-48.77 130.65-67.29 155.28-158.75 297.88-241.34 445.07-74.18 132.26-152.93 286.95-155.1 441.73-2.43 175.24 38.36 302.96 123.43 440.14l-296.18 394.83c-671.42-511.45-1403.18-550.83-2080.01-13.57-676.74-537.28-1408.56-497.88-2079.987 13.57z" style="fill:#231f20;fill-opacity:1;fill-rule:evenodd;stroke:none" transform="matrix(.13333 0 0 -.13333 0 794.667)"></path><path d="M1237.38 4019.88c-173.17-26.18-282.423-115.93-318.454-239.26-24.645-84.37-31.082-225.39 56.902-330.99 154.212-.79 208.242 73.34 251.872 160.15 58.07 115.63 24.21 366.42 9.68 410.1m-72.75-92.2c5.71-60.95-9.7-127.27-42.63-199.17-10.98-23.97-35.6-60.79-55.5-85.93-50.87-64.27-53.29-94.67-83.559-175.95-2.414 130.23 19.499 166.96 65.419 225.64 54.89 70.1 98.1 165.44 116.27 235.41M1097.93 1913.73c130.41-99.9 257.53-114.85 356.87-58.21 67.95 38.73 158.57 127 165.14 255.84-101.36 104.8-182.45 92.65-264.43 65.14-109.17-36.67-240.41-224.26-257.58-262.77m123.88 39.2c44.01 40.62 65.29 56.68 108.02 70.7 22.25 7.32 64.91 15.81 93.58 17.44 74.13 4.19 106.05 10.71 168.54 65.45-53.94-111.4-114.95-102.96-181.16-110.45-79.13-8.91-109.32-10.83-188.98-43.14M692.777 2331.92c101.403-134.32 222.082-183.3 334.453-153.65 76.88 20.28 189.08 83.7 229.63 210.04-71.65 131.4-154.36 141.08-242.01 135.73-116.741-7.15-295.053-158.43-322.073-192.12m131.817 5.72c53.906 28.58 83.918 35.47 129.523 37.93 23.75 1.31 67.833-1.69 96.353-7.78 73.78-15.71 104.06-5.97 175.24 23.21-82.37-96.28-137.54-71.51-204.42-61.18-79.923 12.36-110.044 18.58-196.696 7.82M437.285 2851.06c80.86-154.27 195.688-224.59 315.235-213.19 81.777 7.8 206.816 53.74 269.34 176-51.001 146.27-133.712 170.07-223.977 179.33-120.223 12.31-327.399-112.27-360.598-142.14m135.36-16.31c59.753 20.14 73.277 27.71 120.152 22.6 24.391-2.65 78.613-15.55 106.637-26.55 72.566-28.43 112.824-16.46 193.601-9.35-78.328-72.39-154.703-39.83-221.16-18.03-79.414 26.05-109.078 27.75-199.23 31.33M413.363 3508.12c20.969-172.91 103.434-279.35 219.27-311.03 79.238-21.68 212.441-23.02 314.222 69.16 4.122 154.86-64.796 206.41-145.925 247.05-108.071 54.11-345.942 10.99-387.567-5.18m120.805-63.2c61.793 7.38 97.406-5.54 139.434-26.9 21.843-11.13 74.304-56.13 96.589-76.33 57.766-52.28 98.582-50.73 149.985-58.13-123.582-43.57-159.817 8.47-214.238 52.4-65.036 52.49-88.735 73.68-171.77 108.96" style="fill:#231f20;fill-opacity:1;fill-rule:evenodd;stroke:none" transform="matrix(.13333 0 0 -.13333 0 794.667)"></path><path d="M1614.1 3391.27c-111.71 133.63-238.83 178.02-353.24 141.55-78.27-24.94-190.74-96.33-225.95-229.05 80.84-132.16 166.72-137.89 256.89-127.82 120.11 13.44 296.18 179.09 322.3 215.32m-135.74-12.75c-39.04-30.18-71.52-46.01-126.17-52.07-24.38-2.69-72.55 3.09-102.28 7.89-76.96 12.43-107.78-7.82-185.22-31.88 79.95 103.81 167.33 76.34 236.9 69.11 83.13-8.64 87.91-8.65 176.77 6.95M1637.23 3086.08c-144.14 97.78-278.57 105.53-378.55 39.02-68.4-45.51-156.91-145.06-154.28-282.35 114.05-104.84 198.19-86.75 282.12-52.28 111.79 45.94 235.55 253.6 250.71 295.61m-127.01-49.56c-28.63-45.98-85.28-80.91-129.04-98.55-22.79-9.18-69.34-16.11-99.27-19.65-77.42-9.21-97.62-29.08-148.52-68.64 48.34 121.8 115.36 107.03 184.24 119.2 82.3 14.55 111.43 28.21 192.59 67.64M1748.71 2797.36c-142.21 58.97-287.85 22.96-368.36-55.22-55.06-53.48-116.04-149.03-95.18-270.24 106.54-51.61 189.15-38.85 259.6 7.9 115.67 76.74 196.04 277.4 203.94 317.56m-103.36-48.98c-22.73-49.06-67.03-84.49-103.78-108.54-19.12-12.5-63.17-33.91-89.44-42.8-68.02-23.03-87.19-61-141.94-113.42 26.85 117.26 108.43 151.87 168.42 175.92 71.71 28.7 99.41 38.28 166.74 88.84M1980.57 2613.27c-148.63 12.49-272.41-63.68-323.66-159.57-35.05-65.59-63.15-171.75-8.16-277.45 113.54-16.23 186.02 19.91 237.25 83.82 84.11 104.93 99.11 313.81 94.57 353.2m-94.34-107.09c-8.19-52.38-32.3-85.55-59.18-118.59-14-17.21-43.4-45.83-65.06-61.82-56.04-41.33-58.54-66.82-93.6-131.33-9.8 116.13 41.86 140.7 90.16 180.6 57.74 47.64 80.46 64.64 127.68 131.14M2217.69 2475.45c-129.26-13.41-223.02-102.06-251.51-196.36-19.48-64.5-26.51-164.18 37.54-249.68 99.81 4.25 156.07 48.59 189.67 114.27 55.19 107.82 34.51 297.27 24.3 331.77M2154.11 2364c1.39-48.25-10.22-79.2-27.93-113.22-9.22-17.73-29.8-48.21-45.79-66.1-41.34-46.26-43.11-72.2-62.78-135.74-27.02 102.32 13.27 132.86 48.22 176.55 41.79 52.2 58.51 71.17 88.28 138.51M1574.32 1675.34c130.06-59.83 248.23-35.94 314.52 19.18 52.39 43.56 110.36 138.46 91.15 249.24-106.32 69.57-172.91 43.64-237.29 4.49-85.75-52.18-161.2-236.87-168.38-272.91m97.74 57.14c29.6 43.01 39.04 60.19 72.64 80.33 17.5 10.49 52.14 25.95 76.19 32.83 62.19 17.83 92.31 36.31 136.24 88.62-12.28-86.88-77.9-109.63-132.74-128.74-65.54-22.8-90.84-30.23-152.33-73.04M995.41 3153.62c32.17 0 58.23-26.07 58.23-58.23 0-32.17-26.06-58.24-58.23-58.24-32.168 0-58.234 26.07-58.234 58.24 0 32.16 26.066 58.23 58.234 58.23M1150.41 2702.29c32.17 0 58.24-26.06 58.24-58.23s-26.07-58.23-58.24-58.23c-32.16 0-58.23 26.06-58.23 58.23s26.07 58.23 58.23 58.23M1455.39 2350c30.7 0 55.57-24.87 55.57-55.57 0-30.72-24.87-55.59-55.57-55.59-30.72 0-55.59 24.87-55.59 55.59 0 30.7 24.87 55.57 55.59 55.57M1799.33 2136.46c28.01 0 50.73-22.72 50.73-50.73 0-28.03-22.72-50.76-50.73-50.76-28.04 0-50.76 22.73-50.76 50.76 0 28.01 22.72 50.73 50.76 50.73M2137.21 1981.17c26 0 47.1-21.1 47.1-47.1 0-26.02-21.1-47.12-47.1-47.12-26.02 0-47.12 21.1-47.12 47.12 0 26 21.1 47.1 47.12 47.1M4713.27 4029.55c173.17-26.18 282.43-115.92 318.46-239.26 24.65-84.37 31.08-225.39-56.9-331-154.22-.79-208.25 73.35-251.87 160.16-58.07 115.63-24.21 366.41-9.69 410.1m72.76-92.21c-5.71-60.95 9.69-127.26 42.63-199.16 10.97-23.97 35.59-60.79 55.5-85.93 50.87-64.27 53.28-94.67 83.55-175.95 2.42 130.23-19.49 166.96-65.41 225.65-54.89 70.09-98.11 165.44-116.27 235.39M4852.72 1923.4c-130.4-99.9-257.52-114.85-356.86-58.22-67.95 38.75-158.58 127-165.15 255.85 101.37 104.8 182.46 92.65 264.43 65.13 109.18-36.66 240.41-224.25 257.58-262.76m-123.87 39.19c-44.02 40.63-65.3 56.69-108.03 70.71-22.25 7.31-64.91 15.81-93.57 17.43-74.14 4.19-106.06 10.72-168.55 65.46 53.94-111.4 114.96-102.96 181.17-110.45 79.12-8.91 109.31-10.83 188.98-43.15M5257.88 2341.59c-101.4-134.32-222.08-183.3-334.46-153.66-76.87 20.28-189.08 83.71-229.62 210.05 71.64 131.39 154.36 141.08 242.01 135.73 116.74-7.16 295.05-158.44 322.07-192.12m-131.82 5.72c-53.9 28.58-83.92 35.47-129.52 37.93-23.75 1.3-67.84-1.69-96.36-7.78-73.78-15.71-104.05-5.97-175.23 23.22 82.36-96.29 137.53-71.53 204.42-61.19 79.92 12.36 110.04 18.57 196.69 7.82M5513.37 2860.73c-80.86-154.27-195.69-224.59-315.23-213.19-81.78 7.8-206.82 53.74-269.35 176 51.01 146.27 133.72 170.07 223.98 179.33 120.23 12.31 327.4-112.28 360.6-142.14m-135.36-16.31c-59.75 20.14-73.28 27.71-120.15 22.6-24.39-2.66-78.62-15.55-106.64-26.55-72.56-28.44-112.82-16.45-193.6-9.35 78.33-72.39 154.7-39.83 221.16-18.03 79.42 26.05 109.08 27.75 199.23 31.33M5537.29 3517.79c-20.97-172.91-103.43-279.35-219.27-311.04-79.23-21.67-212.44-23-314.22 69.17-4.12 154.86 64.8 206.42 145.93 247.05 108.06 54.1 345.94 10.99 387.56-5.18m-120.8-63.2c-61.79 7.38-97.41-5.55-139.44-26.91-21.84-11.12-74.3-56.13-96.59-76.32-57.76-52.28-98.58-50.73-149.98-58.13 123.58-43.57 159.82 8.47 214.24 52.4 65.03 52.49 88.73 73.67 171.77 108.96" style="fill:#231f20;fill-opacity:1;fill-rule:evenodd;stroke:none" transform="matrix(.13333 0 0 -.13333 0 794.667)"></path><path d="M4336.56 3400.93c111.7 133.64 238.82 178.03 353.24 141.57 78.27-24.96 190.74-96.34 225.95-229.07-80.84-132.15-166.72-137.88-256.89-127.81-120.11 13.44-296.19 179.09-322.3 215.31m135.73-12.74c39.04-30.18 71.52-46.01 126.18-52.06 24.37-2.7 72.54 3.07 102.28 7.87 76.95 12.44 107.77-7.82 185.21-31.87-79.95 103.81-167.33 76.33-236.89 69.11-83.14-8.64-87.91-8.65-176.78 6.95M4313.43 3095.75c144.14 97.78 278.56 105.53 378.55 39.02 68.4-45.51 156.91-145.06 154.28-282.35-114.05-104.84-198.19-86.75-282.13-52.28-111.78 45.93-235.55 253.6-250.7 295.61m127.01-49.56c28.63-45.99 85.27-80.92 129.03-98.55 22.79-9.19 69.35-16.11 99.27-19.65 77.42-9.21 97.62-29.08 148.53-68.64-48.34 121.79-115.37 107.03-184.24 119.2-82.3 14.54-111.44 28.22-192.59 67.64M4201.95 2807.02c142.21 58.98 287.84 22.97 368.35-55.21 55.07-53.48 116.05-149.04 95.18-270.24-106.53-51.62-189.15-38.85-259.59 7.89-115.68 76.74-196.04 277.41-203.94 317.56m103.35-48.98c22.74-49.06 67.04-84.48 103.79-108.54 19.12-12.49 63.17-33.9 89.44-42.8 68.02-23.02 87.19-60.99 141.93-113.41-26.84 117.26-108.42 151.87-168.41 175.91-71.71 28.71-99.42 38.29-166.75 88.84M3970.09 2622.94c148.62 12.49 272.41-63.68 323.66-159.57 35.05-65.59 63.14-171.76 8.15-277.46-113.53-16.22-186.01 19.93-237.24 83.84-84.12 104.91-99.12 313.8-94.57 353.19m94.33-107.08c8.2-52.39 32.31-85.56 59.19-118.6 13.99-17.22 43.39-45.83 65.06-61.82 56.03-41.33 58.54-66.82 93.6-131.33 9.8 116.13-41.87 140.7-90.16 180.59-57.74 47.65-80.46 64.65-127.69 131.16M3732.96 2485.11c129.27-13.4 223.02-102.05 251.51-196.35 19.49-64.51 26.51-164.17-37.53-249.69-99.81 4.26-156.07 48.6-189.68 114.28-55.18 107.82-34.51 297.26-24.3 331.76m63.59-111.44c-1.39-48.25 10.22-79.21 27.93-113.22 9.22-17.73 29.8-48.21 45.79-66.09 41.34-46.27 43.11-72.21 62.78-135.76 27.02 102.33-13.27 132.86-48.23 176.56-41.78 52.19-58.51 71.17-88.27 138.51M4376.34 1685c-130.06-59.82-248.24-35.93-314.53 19.18-52.38 43.57-110.35 138.46-91.15 249.25 106.32 69.57 172.91 43.64 237.3 4.48 85.74-52.17 161.2-236.87 168.38-272.91m-97.75 57.16c-29.59 43-39.03 60.18-72.64 80.32-17.5 10.48-52.14 25.95-76.18 32.82-62.2 17.84-92.31 36.31-136.24 88.63 12.27-86.88 77.9-109.64 132.74-128.74 65.53-22.8 90.83-30.24 152.32-73.03M4955.25 3163.29c-32.17 0-58.24-26.07-58.24-58.24 0-32.16 26.07-58.23 58.24-58.23 32.16 0 58.23 26.07 58.23 58.23 0 32.17-26.07 58.24-58.23 58.24M4800.24 2711.96c-32.17 0-58.24-26.07-58.24-58.23 0-32.17 26.07-58.24 58.24-58.24s58.23 26.07 58.23 58.24c0 32.16-26.06 58.23-58.23 58.23M4495.27 2359.66c-30.7 0-55.57-24.86-55.57-55.56 0-30.72 24.87-55.59 55.57-55.59 30.72 0 55.59 24.87 55.59 55.59 0 30.7-24.87 55.56-55.59 55.56M4151.33 2146.13c-28.01 0-50.74-22.72-50.74-50.73 0-28.04 22.73-50.76 50.74-50.76 28.03 0 50.76 22.72 50.76 50.76 0 28.01-22.73 50.73-50.76 50.73M3813.44 1990.84c-25.99 0-47.1-21.1-47.1-47.1 0-26.03 21.11-47.12 47.1-47.12 26.02 0 47.12 21.09 47.12 47.12 0 26-21.1 47.1-47.12 47.1" style="fill:#231f20;fill-opacity:1;fill-rule:evenodd;stroke:none" transform="matrix(.13333 0 0 -.13333 0 794.667)" data-source="https://football-logos.cc"></path><path d="m1429.03 4287.56 26.31-123.88c4.36-20.44 8.2-32.98 11.5-37.63 3.41-4.65 8.77-8.16 16.13-10.57 7.48-2.53 16.74-2.55 27.92-.18l13.31 2.82 2.32-10.87-209.2-44.47-2.3 10.88 13.31 2.83c11.58 2.46 20.49 6.57 26.65 12.2 4.56 3.81 7.48 9.37 8.77 16.69 1.24 5.11-.27 17.73-4.57 37.86l-55.93 263.16c-4.33 20.44-8.15 33-11.49 37.66-3.19 4.69-8.57 8.17-15.93 10.61s-16.71 2.44-27.9.07l-13.3-2.85-2.33 11 209.17 44.46 2.33-10.98-13.3-2.82c-11.57-2.46-20.51-6.46-26.68-12.11-4.54-3.89-7.59-9.4-9.08-16.74-1.2-5.22.4-17.82 4.67-37.86l24.08-113.3 141.3 30.04-24.08 113.31c-4.34 20.42-8.16 32.98-11.37 37.65-3.31 4.68-8.69 8.16-16.14 10.6-7.57 2.39-16.84 2.39-28.11 0l-12.98-2.76-2.33 10.98 208.95 44.41 2.32-10.98-12.99-2.75c-11.76-2.51-20.71-6.51-26.76-12.11-4.45-3.89-7.5-9.38-9.09-16.76-1.1-5.18.43-17.81 4.68-37.84l55.93-263.16c4.36-20.44 8.18-33 11.39-37.68 3.29-4.68 8.67-8.15 16.13-10.57 7.58-2.49 16.87-2.53 28.12-.14l13.01 2.76 2.3-10.86-208.95-44.41-2.32 10.86 12.99 2.76c11.79 2.5 20.71 6.61 26.76 12.24 4.45 3.77 7.48 9.35 9.06 16.74 1.15 5.1-.38 17.73-4.65 37.86l-26.34 123.85zM1912.61 4605.86c64 12.63 119.23 2.1 165.83-31.4 46.51-33.59 74.54-80.32 84.02-140.32 8.14-51.25.33-98.67-23.51-142.38-31.58-57.94-83.62-92.66-156.11-104.16-72.63-11.49-132.75 4.21-180.33 47.24-37.47 33.97-60.53 77.66-69.01 131.06-9.48 59.99 3.03 113.24 37.46 159.65 34.53 46.56 81.7 73.31 141.65 80.31m6.69-18.43c-37-5.85-62.08-29.23-75.43-70-10.77-33.41-11.54-79.18-2.37-137.14 10.93-68.94 31.09-117.99 60.52-147.1 20.53-20.42 46.03-28.15 76.44-23.33 20.44 3.22 36.75 10.93 48.9 22.94 15.39 15.48 25.8 38 31.13 67.5 5.35 29.41 4.45 66.59-2.67 111.43-8.46 53.47-19.76 92.66-33.93 117.51-14.14 24.98-29.72 41.7-46.91 50.21-17.08 8.47-35.67 11.16-55.68 7.98M2548.96 4410.13l-2.75-144.41-361.85-31.67-.98 11.07 13.56 1.19c11.79 1.02 21.14 4.03 27.94 8.86 4.99 3.23 8.56 8.38 10.82 15.49 1.76 4.93 1.78 17.64-.02 38.16l-23.45 267.99c-1.81 20.83-4.09 33.75-6.71 38.78-2.69 5.04-7.5 9.18-14.61 12.5-7 3.29-16.31 4.45-27.68 3.45l-13.55-1.19-.97 11.18 217.33 19.02.97-11.18-17.76-1.56c-11.88-1.04-21.14-3.91-28.05-8.77-4.88-3.3-8.56-8.38-11.02-15.52-1.74-4.99-1.77-17.73.02-38.13l22.7-259.59c1.83-20.82 4.22-34.06 7.09-39.48 2.94-5.53 7.93-9.44 15.27-11.59 5.17-1.4 17.35-1.18 36.53.5l33.95 2.98c21.64 1.9 39.37 7.27 53.15 16.13 13.69 8.85 25.16 21.93 34.18 39.37 9.14 17.33 16.96 42.42 23.58 75.33zM2909.68 4688.08l.41-11.22c-13.42-2.22-23.7-6.48-30.7-12.81-9.76-8.79-24.8-32.39-45.22-70.7l-83.4-151.08 3.46-98.87c.72-21.08 2.19-34.2 4.65-39.28 2.33-4.97 6.91-9.33 13.53-13.01 6.73-3.8 15.45-5.47 26.34-5.09l22.86.82.39-11.12-229.37-8.02-.39 11.12 21.42.75c12.04.42 21.52 2.93 28.39 7.38 5.13 2.96 9.08 7.93 11.84 14.93 2.1 4.81 2.78 17.53 2.06 38.08l-2.88 82.03-102.32 171.74c-20.33 33.93-34.43 53.74-42.56 59.61-8.02 5.92-18.55 8.63-31.6 8.38l-.39 11.21 195.92 6.84.38-11.2-8.76-.32c-11.82-.41-20.11-2.32-24.72-5.98-4.61-3.6-6.75-7.25-6.61-11.07.25-7.21 8.92-25.15 25.97-53.7l78.61-132.82 69.26 125.93c17.17 30.79 25.64 51.07 25.3 60.95-.2 5.35-2.94 9.8-8.32 13.19-6.97 4.84-19.71 7.36-37.97 7.75l-.38 11.22zM3533.09 4658.92l-.59-11.22c-7.63-.21-14.11-1.92-19.56-5.27-5.42-3.3-10.32-8.61-14.73-15.81-1.37-2.42-8.47-17.6-21.48-45.7l-145.67-330.4-11.7.61-87.38 268.62-125.25-257.49-11.23.59-116.79 340.48c-11.92 34.33-20.39 55.09-25.5 62.39-4.96 7.34-13.91 11.93-26.69 13.73l.58 11.23 177.05-9.28-.58-11.23c-14.21.34-23.9-1.29-28.74-4.97-4.9-3.66-7.54-8.36-7.84-14.23-.4-7.61 3.66-24.01 12.15-49.2l69.83-202.42 72.26 151.49-14.59 44.25c-8.02 24.14-14.37 40.36-19 48.54-4.52 8.15-9.98 14.12-16.38 17.87-6.3 3.84-15.9 5.96-28.53 6.64l.59 11.2 197.93-10.37-.59-11.22c-13.89.54-23.81.04-30-1.7-4.29-1.22-7.7-3.43-10.32-6.59-2.55-3.17-4-6.89-4.2-11.12-.25-4.61 3.54-18.95 11.34-43.19l64.31-197.29 75.69 171.63c7.91 17.62 12.9 29.73 14.89 36.33 1.99 6.5 3.14 12.62 3.43 18.27.43 8.22-2.1 14.86-7.43 19.88-5.4 4.92-16.06 8.06-31.87 9.28l.58 11.23zM3707.32 4607.51l-20.28-165.24 8.06-.99c25.78-3.16 45.34 2.62 58.98 17.33 13.53 14.72 23.83 37.72 30.97 68.8l11.34-1.4-26.09-212.54-11.36 1.4c.38 23.49-2.29 43.01-8.14 58.78-5.94 15.76-13.62 26.76-23.19 33.14-9.52 6.23-24.04 10.61-43.33 12.98l-14.05-114.34c-2.76-22.39-3.5-36.1-2.17-41.34 1.24-5.22 4.3-9.76 9.13-13.57 4.72-3.89 12.9-6.45 24.55-7.89l24.22-2.96c37.9-4.65 69.34.41 94.4 15.16 25.02 14.66 44.66 39.42 59.09 74.18l11.05-1.35-34.05-126.84-350.92 43.08 1.36 11.04 13.49-1.67c11.74-1.45 21.52-.45 29.18 2.87 5.56 2.12 10.12 6.41 13.73 12.92 2.83 4.43 5.49 16.87 8 37.3l32.78 267.02c2.26 18.39 3.14 29.7 2.62 34.02-1.08 7.2-4.21 13.05-9.04 17.5-6.98 6.55-16.96 10.57-30.13 12.2l-13.51 1.65 1.38 11.14 339.78-41.73-14.75-120.05-11.34 1.39c-2.24 30.05-7.72 52.09-16.69 66.17-8.84 14.03-22.5 25.28-40.98 33.54-10.68 5.04-31.42 9.38-62.19 13.15zM4283.43 4269.69l-40.05-138.76-357.72 63.07 1.94 10.95 13.4-2.37c11.65-2.06 21.46-1.58 29.27 1.33 5.65 1.83 10.46 5.88 14.48 12.18 2.96 4.29 6.26 16.58 9.85 36.84l46.72 264.95c3.61 20.58 4.78 33.66 3.54 39.19-1.31 5.58-4.88 10.8-10.89 15.83-5.89 5.02-14.59 8.52-25.84 10.51l-13.4 2.37 1.97 11.04 214.84-37.88-1.94-11.06-17.55 3.09c-11.75 2.08-21.46 1.69-29.36-1.2-5.58-1.92-10.46-5.87-14.69-12.13-2.98-4.38-6.3-16.67-9.85-36.84l-45.26-256.64c-3.62-20.57-4.73-33.97-3.37-39.95 1.43-6.12 5.24-11.16 11.77-15.14 4.63-2.71 16.44-5.62 35.4-8.96l33.56-5.92c21.39-3.78 39.92-3.17 55.53 1.8 15.51 5.02 29.97 14.69 43.18 29.21 13.33 14.37 27.38 36.57 42.29 66.64zM4666.88 4187.43l-44.87-137.28-355.3 75.52 2.31 10.86 13.3-2.82c11.59-2.46 21.39-2.33 29.32.29 5.72 1.63 10.64 5.54 14.89 11.68 3.11 4.18 6.84 16.33 11.11 36.46l55.95 263.16c4.34 20.44 5.97 33.47 4.93 39.06-1.13 5.6-4.52 10.95-10.35 16.21-5.71 5.2-14.3 9.02-25.46 11.39l-13.3 2.82 2.35 10.98 213.4-45.36-2.35-10.97-17.42 3.7c-11.68 2.48-21.39 2.44-29.39-.18-5.64-1.74-10.64-5.51-15.11-11.61-3.12-4.27-6.87-16.45-11.11-36.48l-54.19-254.9c-4.34-20.44-5.92-33.79-4.77-39.8 1.2-6.17 4.83-11.36 11.23-15.56 4.54-2.85 16.24-6.19 35.08-10.19l33.34-7.09c21.23-4.52 39.75-4.57 55.52-.12 15.7 4.46 30.47 13.62 44.21 27.68 13.8 13.89 28.62 35.57 44.59 65.12zM1832.55 3770.66v-194.71h13.72c20.89 0 38.06 3.2 51.32 9.41 13.35 6.33 24.57 16.94 33.77 31.85 9.17 14.91 15.27 35.08 18 60.49h12.18v-238.02h-12.18c-4.4 44.98-16.46 74.57-36.14 88.89-19.7 14.3-42.01 21.6-66.95 21.6h-13.72v-145.09c0-24.21 1.43-39.37 4.07-45.47 2.74-6.08 7.97-11.32 15.75-15.86 7.74-4.65 18.36-6.93 31.62-6.93h15.74v-12.88h-247.82v12.88h15.75c13.73 0 24.82 2.5 33.18 7.41 6.07 3.23 10.73 8.83 13.96 16.82 2.62 5.49 3.82 20.15 3.82 44.03v311.77c0 24.22-1.2 39.37-3.82 45.45-2.51 6.08-7.77 11.34-15.52 15.88-7.88 4.52-18.36 6.8-31.62 6.8h-15.75v12.99h399.83v-136.01h-14.33c-3.2 31.97-11.56 55.59-24.93 71-13.49 15.38-32.8 26.11-58.21 32.43-13.97 3.49-39.88 5.27-77.57 5.27zM4254.77 3808.72v-164.17h-13.61c-10.25 42.83-29.34 75.65-57.37 98.55-27.92 22.79-59.66 34.24-95.1 34.24-29.59 0-56.67-8.46-81.37-25.54-24.71-17.06-42.85-39.26-54.16-66.82-14.69-35.19-22.1-74.32-22.1-117.39 0-42.36 5.38-81.03 16.11-115.86 10.75-34.84 27.45-61.22 50.35-79 22.79-17.89 52.38-26.72 88.78-26.72 29.84 0 57.15 6.44 81.97 19.56 24.83 13.02 50.94 35.45 78.52 67.43v-40.93c-26.61-27.67-54.31-47.84-83.06-60.25-28.87-12.53-62.39-18.75-100.93-18.75-50.48 0-95.46 10.15-134.72 30.43-39.24 20.29-69.55 49.41-90.92 87.36-21.23 38.05-31.96 78.49-31.96 121.32 0 45.22 11.81 88.07 35.55 128.62 23.63 40.57 55.48 72.08 95.69 94.4 40.21 22.43 82.92 33.52 128.15 33.52 33.29 0 68.48-7.16 105.58-21.59 21.48-8.36 35.08-12.65 40.93-12.65 7.41 0 13.85 2.73 19.33 8.22 5.5 5.49 9.06 14.21 10.73 26.02zM2545.53 1753l-31.92-91.65-8.97 3.12c2.04 23.08 1.43 40.3-1.83 51.75-3.23 11.52-9.62 21.98-19.06 31.38-5.22 5.26-15.79 10.57-31.54 16.06l-25.23 8.79-90.92-260.95c-6.03-17.28-8.88-28.44-8.49-33.41.43-5.04 2.89-10.1 7.29-15.25 4.48-5.29 11.48-9.55 21.1-12.89l11.23-3.94-3.21-9.19-177.12 61.73 3.21 9.2 11.25-3.91c9.78-3.41 18.32-4.38 25.5-2.98 5.15.81 9.94 3.62 14.41 8.45 3.23 3.25 7.82 13.39 13.76 30.45l90.94 260.94-24.53 8.54c-22.72 7.93-41.02 8.95-54.71 2.83-19.15-8.41-34.96-24.49-47.5-48.12l-9.47 3.32 31.94 91.62zM2724.07 1726.52c55.16-8.67 96.55-33.86 124.29-75.33 27.6-41.54 36.54-88.39 26.69-140.66-8.4-44.62-28.5-81.35-60.42-110.21-42.31-38.32-94.31-51.37-156.02-39.19-61.76 12.19-105.58 43.05-131.31 92.67-20.26 39.18-26.11 82.05-17.35 128.54 9.85 52.25 35.46 92.36 76.71 120.33 41.36 28.01 87.11 35.98 137.41 23.85m-.02-17.19c-31.49 6.24-58.46-5.51-81.09-35.15-18.39-24.28-32.38-61.75-41.91-112.22-11.29-60.04-9.37-106.44 5.83-139.21 10.57-22.93 28.85-36.91 54.71-42.02 17.39-3.43 32.75-1.96 46.06 4.32 16.87 8.15 31.81 23.58 44.7 46.28 12.88 22.61 23.02 53.51 30.38 92.55 8.77 46.58 11.07 82.22 6.96 106.93-4.15 24.81-11.81 43.19-23.15 55.35-11.27 12.08-25.44 19.81-42.49 23.17M3358.77 1729.75l1.07-9.76c-6.33-1.28-11.5-3.72-15.57-7.38s-7.41-8.97-10.07-15.79c-.81-2.28-4.61-16.44-11.52-42.61l-75.25-306.55-9.87-1.18-110.51 219.37-68.44-240.57-9.41-1.11-145.14 277.17c-14.75 27.94-24.78 44.61-30.02 50.19-5.2 5.62-13.29 8.31-24.2 8.02l-1.08 9.75 149 17.67 1.08-9.76c-11.9-1.78-19.76-4.63-23.27-8.49-3.61-3.86-5.12-8.31-4.56-13.42.72-6.64 6.44-20.22 17.04-40.75l86.6-164.74 39.08 141.34-18.37 36.12c-10.07 19.69-17.66 32.77-22.68 39.19-4.89 6.39-10.3 10.75-16.14 13.03-5.81 2.42-14.08 2.87-24.74 1.63l-1.06 9.76 166.55 19.74 1.08-9.76c-11.66-1.58-19.85-3.45-24.76-5.85-3.41-1.67-5.96-4.05-7.72-7.16-1.68-3.12-2.33-6.55-1.93-10.21.46-4.04 5.61-15.88 15.52-35.67l81.28-161.1 39.1 159.2c4.16 16.4 6.6 27.59 7.34 33.55.75 5.92.86 11.36.3 16.29-.79 7.16-3.84 12.54-8.95 16.1-5.21 3.46-14.55 4.63-27.92 3.41l-1.08 9.76z" style="fill:#231f20;fill-opacity:1;fill-rule:nonzero;stroke:none" transform="matrix(.13333 0 0 -.13333 0 794.667)"></path><path d="M3468.47 1780.89 3701.7 1626l-49.99 145.7c-6.96 20.31-14.48 33.07-22.52 38.31-11.03 7.01-25.55 7.28-43.6.68l-3.18 9.31 107.86 37 3.18-9.29c-13.21-6.53-21.59-12.08-25.37-16.6-3.77-4.54-5.83-10.59-6.21-18.07s2.19-19.27 7.66-35.22l96.84-282.18-8.23-2.82-317.62 206.41 73.96-215.47c6.66-19.45 15.45-31.1 26.43-34.99 10.91-3.98 21.98-4 32.98-.23l7.72 2.67 3.16-9.22-115.83-39.76-3.16 9.22c17.96 6.35 29.14 14.48 33.63 24.42 4.48 9.94 3.66 23.85-2.53 41.86l-82.06 239.19-10.08 6.64c-10.01 6.58-18.09 10.39-24.44 11.43-6.21 1.02-14.41-.06-24.46-3.14l-3.19 9.31z" style="fill:#231f20;fill-opacity:1;fill-rule:nonzero;stroke:none" transform="matrix(.13333 0 0 -.13333 0 794.667)"></path><path d="M2623.59 3573.41c-45.54-13.26-40.99 42.36-32.68 54.58 13.8 20.35 30.65 32.3 45.56 45.63 17.42 15.56 24.65 37.63 16.2 67.2-8.83 31.02-62.24 21.82-89.61 4.86-16.76-10.42-21.96-31.9-26.59-47.64-2.98-10.15-4.81-19.7-10.39-25.49-14.37-14.84-23.54 2.47-31.65 12.86-17.62 22.63-30.81 51.7-22.18 71.18 7.18 16.21 20.29 28.46 34.97 37 28.01 16.28 45.42 20.12 78.85 45.52 23.25 17.61 7.44 54.09 18.17 81.29 20.53 51.93 80.73 77.64 121.1 116.47 1.64 31.44 3.32 62.88 4.99 94.35 25.25-12.99 40.84-22.31 61.24-31.62 11.92 16.44 17.8 23.17 28.5 42.04 31.45-38.43 41.05-44.05 61.58-55.75 27.92-54.06 82.52-58.37 109.26-55.41-14.54-61.6 25.35-109.6 86.7-120.13-9.26-74.52-12.38-148.3 46.76-219.09-37.84-34.36-67.02-94.29-43.23-166.05-68.07-89.3-118.82-168.45-130.3-316.41-4.47-57.96 25.69-145.35 50.35-151.79 72.17-18.91 202.31 7.36 223.04 99.01 19.3 85.34-15.29 139.23-50.78 172.44 112.91 282.29 83.47 536.89-3.93 780.29 88.14-32.8 153.7-104.36 196.66-214.85 2.51 89.73 5.02 179.45 7.52 269.17 39.13-65.05 90.02-115.38 155.03-148.02-8.13-88.1 3.59-164.88 86.04-201.2-7.16-119.06-36.27-250.74 97.41-289.19-25.5-105.01-8.97-171.29 49.56-198.73-62.6-48.36-95.49-116.61-22.28-255.71-91.69 15.18-166.39-2.28-180.46-136.18-83.85 20.89-161.24 3.66-212.79-80.67-50.96 61.49-109.76 74.63-216.37 18.79-20.36 22.16-51.8 5.42-57.58.77 10.21-75.09 75.49-116.63 122.52-154.85 68.81-55.9 84.26-77.97 145.88-110.23 147.39-77.19 379.72-38.78 455.41 70.61-85-8.56-154.44 28.44-179.89 105.36-22.03 66.48 5.19 147.96 76.16 184.96 53.88 28.08 134.77 3.83 168.83-27.97 51.94-48.54 52.21-130.36 32.87-188.3 88.12 20.65 130.27 135.92 116.67 263.32-27.24 4.09-51.12-10.58-74.25-24.4 18.5 84.03 20.85 175.32 26.41 259.28 45.92-76.03 112.06-149.7 164.47-225.8-23.31 6.3-63.59 5.31-77.19-.52 18.25-140.5-16.96-294.33-183.9-337.64-41.62-77.34-122-136.21-246.01-162.95-83.44-18.01-197.29-18.59-272.96 14.57-11.8-122.41-62.15-223.23-45.05-313.83 27.27-144.52 137.41-117.4 144.4-190.06 5.05-52.57-83.59-119.79-95.06-171.2-24.11 37.47-47.44 52.36-96.84 11.67-8.72 45.59-19.06 46.72-79.42 27.61 9.08 122.61 160.87 51.64 153.2 127.58-7.28 72.06-193.97 112.97-261.33 208.81-28.31 40.28 6.57 124.92 2.59 174.03-131.72-67.48-265.42-58.53-364.81-29.01.29-133.54 7.77-272.01-8.81-403.14-5.94-46.92-20.22-53.11-60.27-28.69-54.59 33.25-104.36 60.15-178.47 41.5-15.27 53.9-37.05 72.17-65.3 54.82-10.23 39.4-44.71 46.44-74.41 40.5 23.01 55.21 61.64 57.53 101.1 44.89 57.63-18.51 127.45-74.32 178.46-64.22-.32 208.56-54.83 280.16-58.87 362.61-3.77 77.1 65.91 148.01 61.17 228.74-5.1 87.24-24.51 147.75-85.18 189.48-99.93 19.94-119.97-50.56-162.96-43.35-5.06.83-9.03 47.73-6.93 64.31-93.66 30.94-203.08 70.36-283.42 81.88-24.61 8.23-58.71-3.43-97.61-16.62-6.24 18.09-7.64 29.5-16.47 38.8-8.83 9.31-25.07 16.47-60.99 26.05 15.99 11.84 27 25.77 25.59 39.89-1.49 15.18-7.38 35.56-24.96 47.91 56.95 7.66 96.57 4.45 118.37-14.28 37.36-32.09 58.59-50.66 86.31-60.69 89.74-21.46 169.8-50.24 254.69-62.03 3.01 25.46 8.45 54.51 23.56 45.99 29.21-12.83 45.13-37.86 76.74-33.68 32.64 4.32 73.86 28.28 87.75 92.16-59.86 12.9-182.69-11.81-179.58-.13-3.93 16.8-4.27 44.52.27 58.87-89.15 48.04-206.85 120.24-271.13 141.67-31.42 10.46-88.06 28.01-119.36 25.62 10.16 23.63 38.02 23.36 36.75 44.52-1.24 21.17-14.77 36.03-25.46 63.29 25.58 9.36 44.8-1.3 61.63 13.09 13.05 11.15 17.71 32.7 19.63 56.06 53.4-37.43 51.09-121.8 91.19-154.8 69.48-57.15 147.66-76.99 228.15-117.33 8.08 7.61 18 35.17 30.88 48.61 7.67 8.05 14.13 9.99 20.14 4.95 36.04-30.09 60.43-64.45 119.11-82.74 166.12 210.48 302.18 276.35 334.93 441.54 8.18 41.27 7.7 62.23.61 108.23-5.04 32.75-36.55 17.73-41.13 9.55-17.35-31.06-23.93-46.49-49.75-54.96-19.36-6.32-41.36 11.84-60.54 5.29-33.88-11.57-56.65-28.29-74.09-54.04-10.82-15.99-12.51-34.78-32.71-40.68m-362.79 170.43c-16-47.79-18.93-80.21-5.38-113.98 9.89-24.6 51.91-21.41 72.49-37.92 36.7-29.46 74.11-47.01 119.92-36.17 66.12 15.63 102.4 66.91 139.76 115.72 16.96 22.16 39.64 41.9 58.3 54.78 0 6.48-3.03 10.51-3.03 16.96-31.32-10.93-81.02-72.23-117.52-107.63-57.97-56.2-119.64-72.96-183.7-18.72-13.8 11.67-16.4 40.7-28.48 60.15-13.67 22.04-30.81 43.91-52.36 66.81m1577.36-1006.39c20.6 32.73 26.36 75.15 15.76 114.04-15.43 56.75-74.18 93.41-134.42 70.37-55.82-21.35-73.15-96.34-41.21-146.81 28.92-45.65 118.66-52.2 159.87-37.6" style="fill:#e8362f;fill-opacity:1;fill-rule:evenodd;stroke:none" transform="matrix(.13333 0 0 -.13333 0 794.667)" data-source="https://football-logos.cc"></path><!-- source: https://football-logos.cc --></svg>