<svg xmlns="http://www.w3.org/2000/svg" viewBox="10.99 0.75 88.59 84"><!-- Source: https://football-logos.cc --><path fill="#0b3d90" d="M16.483 48.1s-.435-4.779 1.551-5.71 3.725-.186 4.035 1.8 1.366 7.448.931 8.07-6.517-4.16-6.517-4.16" data-source="https://football-logos.cc"></path><path fill="none" stroke="#f8c213" stroke-width=".451" d="M16.483 48.1s-.435-4.779 1.551-5.71 3.725-.186 4.035 1.8 1.366 7.448.931 8.07-6.517-4.16-6.517-4.16z"></path><path fill="#0b3d90" d="M81.273 37.431c0 17.025-26.483 30.781-26.483 30.781S29.169 54.627 29.169 37.431c-.172-2.064 0-36.456 0-36.456h52.1v36.456"></path><path fill="none" d="M0 0h102.336v89.697H0z"></path><path fill="none" stroke="#f8c213" stroke-width=".451" d="M81.273 37.431c0 17.025-26.483 30.781-26.483 30.781S29.169 54.627 29.169 37.431c-.172-2.064 0-36.456 0-36.456h52.1z"></path><path fill="none" d="M7.867 0h92.463v85.496H7.867z"></path><path fill="#1b137c" d="M17.29 44.5s3.724 4.531 5.958 5.4 2.98 1.366 3.6 2.11a4.17 4.17 0 0 1 .558 3.911C26.786 57.285 23.372 62 23.372 62l-3.6 2.794-5.9-4.656s-3.911-4.965-2.235-7.261S17.29 44.5 17.29 44.5"></path><path fill="none" d="M0 0h102.336v89.697H0z"></path><path fill="#0b3d90" stroke="#f8c213" stroke-width=".451" d="M17.29 44.5s3.724 4.531 5.958 5.4 2.98 1.366 3.6 2.11a4.17 4.17 0 0 1 .558 3.911C26.786 57.285 23.372 62 23.372 62l-3.6 2.794-5.9-4.656s-3.911-4.965-2.235-7.261S17.29 44.5 17.29 44.5z"></path><path fill="none" d="M7.867 0h92.463v85.496H7.867z"></path><path fill="#0b3d90" d="M94.1 45.575s.435-4.779-1.551-5.71-3.725-.186-4.035 1.8-1.366 7.449-.931 8.07 6.518-4.16 6.518-4.16"></path><path fill="none" stroke="#f8c213" stroke-width=".451" d="M94.1 45.575s.435-4.779-1.551-5.71-3.725-.186-4.035 1.8-1.366 7.449-.931 8.07 6.517-4.16 6.517-4.16z"></path><path fill="none" d="M0 0h102.336v89.697H0z"></path><path fill="#0b3d90" d="M93.289 41.975s-3.725 4.531-5.96 5.4-2.979 1.366-3.6 2.11a4.17 4.17 0 0 0-.558 3.911c.621 1.365 4.035 6.082 4.035 6.082l3.6 2.793 5.9-4.654s3.911-4.965 2.235-7.263-5.649-8.379-5.649-8.379"></path><path fill="none" stroke="#f8c213" stroke-width=".451" d="M91.627 53.726s-3.45-3.2-5.052-2.342a29 29 0 0 0-3.36 2.223m-62.808 2.582 1.109-2.34a5.33 5.33 0 0 1 5.3 2.588m66.473-14.462s-3.725 4.531-5.96 5.4-2.979 1.366-3.6 2.11a4.17 4.17 0 0 0-.558 3.911c.621 1.365 4.035 6.082 4.035 6.082l3.6 2.793 5.9-4.654s3.911-4.965 2.235-7.263-5.652-8.379-5.652-8.379z"></path><path fill="#0b3d90" d="m20.642 55.113-7.325 8.5s-1.614 5.028 2.918 7.76 6.828 3.724 9.932 4.407S33.8 77.4 35.6 77.894s5.461 2.047 6.207 2.793 15.332 6.7 23.4 2.11 9.869-6.27 11.607-6.889 9.248-3.477 10.8-4.16a36.3 36.3 0 0 0 6.518-4.779c.621-.745 3.538-4.346 3.475-5.4s-2.854-5.338-4.531-6.828-2.979-2.36-4.407-.374-6.828 7.7-11.421 9.063a43.7 43.7 0 0 0-11.918 5.586c-2.421 1.8-7.386 4.9-10.738 4.221s-6.456-.993-9.621-3.724-4.779-2.731-6.579-3.289S27.406 63 25.794 61.692s-3.788-3.414-3.911-4.593-.745-2.544-1.242-1.986"></path><path fill="none" stroke="#f8c213" stroke-width=".451" d="m20.642 55.113-7.325 8.5s-1.614 5.028 2.918 7.76 6.828 3.724 9.932 4.407S33.8 77.4 35.6 77.894s5.461 2.047 6.207 2.793 15.332 6.7 23.4 2.11 9.869-6.27 11.607-6.889 9.248-3.477 10.8-4.16a36.3 36.3 0 0 0 6.518-4.779c.621-.745 3.538-4.346 3.475-5.4s-2.854-5.338-4.531-6.828-2.979-2.36-4.407-.374-6.828 7.7-11.421 9.063a43.7 43.7 0 0 0-11.918 5.586c-2.421 1.8-7.386 4.9-10.738 4.221s-6.456-.993-9.621-3.724-4.779-2.731-6.579-3.289S27.406 63 25.794 61.692s-3.788-3.414-3.911-4.593-.745-2.544-1.241-1.986z"></path><path fill="none" d="M7.867 0h92.463v85.496H7.867z"></path><path fill="#f8c213" d="m22.328 63.938.86.574-2.254 3.377 2.056 1.372-.49.739-2.92-1.945zM25.313 65.912l.924.465L24.408 70l2.207 1.112-.4.795-3.131-1.578zM29.862 68.082l1.1.4-.055 5.251-1.053-.385.042-1.067-1.713-.626-.664.841-1.019-.37zm-1.122 2.87 1.191.436.081-2.045zM32.652 69.021l1.054.257L34.8 73.1l.816-3.354.937.228-1.173 4.806-1.006-.245-1.126-3.89-.831 3.413-.938-.229zM42.033 72.406l-.446.754-1.274-.754-2.073 3.506-.9-.529 2.073-3.507-1.281-.757.446-.755zM43.623 73.272l-.757 2.809-.247.764.49-.614 1.836-2.253.963.515-.815 2.777-.239.768.493-.6 1.931-2.217.929.5-3.559 3.709-.874-.467.835-2.836.3-.926-.605.762-1.89 2.273-.849-.453 1.092-5.028zM48.754 80.737l-1-.215 1.035-4.841 1.006.215zM53.92 76.527l-.128.867-1.466-.217-.595 4.031-1.031-.151.595-4.03-1.473-.218.128-.867zM59.349 76.181l1.419-.45 1.5 4.718-.918.291-1.014-3.191-.119-.387-.118-.383.362 4.243-.958.3-2.145-3.677.124.381q.082.246.126.384l1.01 3.19-.918.3-1.5-4.718 1.435-.455 2.036 3.438zM61.874 74.688l1.029-.557 3.9 3.521-.986.533-.771-.739-1.6.867.188 1.055-.952.515zm1.4 2.741 1.116-.6-1.472-1.419zM67 75.462l.056.1a2.3 2.3 0 0 0 .492.652.545.545 0 0 0 .785-.456 1.4 1.4 0 0 0-.187-.479l-1.664-3.037.907-.5 1.655 3.021a2 2 0 0 1 .294.981 1.746 1.746 0 0 1-2.194 1.338 2.55 2.55 0 0 1-.945-1.054l-.055-.1zM73.931 73.395a2.565 2.565 0 0 1-2.867 1.518 2.67 2.67 0 0 1-1.621-1.453 2.62 2.62 0 0 1-.29-2.156 2.57 2.57 0 0 1 2.867-1.518 2.63 2.63 0 0 1 1.618 1.454 2.68 2.68 0 0 1 .293 2.155m-.924-.362a2.48 2.48 0 0 0-1.207-2.28 1.18 1.18 0 0 0-1.075.056 1.2 1.2 0 0 0-.654.859 2.45 2.45 0 0 0 1.206 2.279 1.2 1.2 0 0 0 1.079-.058 1.18 1.18 0 0 0 .651-.857zM76.466 67.29a1.25 1.25 0 0 1 .565.127 1.5 1.5 0 0 1 .4.28 1.4 1.4 0 0 1 .3.437 1.5 1.5 0 0 1 .12.706 1 1 0 0 1-.341.681.92.92 0 0 1 .6.158 1.6 1.6 0 0 1 .445.649l.136.3a2.5 2.5 0 0 0 .213.408.41.41 0 0 0 .29.181l.05.113-1.044.47a3 3 0 0 1-.17-.216 2.4 2.4 0 0 1-.214-.371l-.196-.413a.94.94 0 0 0-.407-.51.84.84 0 0 0-.6.1l-.923.412.791 1.773-.923.412-2.017-4.521 2.162-.965a2.1 2.1 0 0 1 .763-.211m-1.653 1.54.541 1.215 1.018-.454a1.2 1.2 0 0 0 .422-.276.56.56 0 0 0 .04-.629.62.62 0 0 0-.506-.436 1 1 0 0 0-.473.115zM80.763 65.251l1.039-.538 3.832 3.59-1 .516-.758-.753-1.619.839.17 1.058-.961.5zm1.355 2.767 1.126-.584-1.451-1.441zM83.629 63.792l3.018-1.831.452.742L84.959 64l.591.974 1.875-1.138.446.735L86 65.711l1.077 1.774-.879.533zM87.5 61.9a2.31 2.31 0 0 1 2.815-1.791 1.8 1.8 0 0 1 .817.548l-.837.608a1.4 1.4 0 0 0-.521-.284 1.02 1.02 0 0 0-.853.222 1.01 1.01 0 0 0-.437.881 2.22 2.22 0 0 0 .5 1.229 1.95 1.95 0 0 0 1.006.811 1.06 1.06 0 0 0 .937-.168.97.97 0 0 0 .447-.765 1.6 1.6 0 0 0-.131-.614l.831-.605a2.23 2.23 0 0 1 .225 1.465 1.97 1.97 0 0 1-.834 1.232 2.1 2.1 0 0 1-1.747.424A3.25 3.25 0 0 1 87.5 61.9"></path><path fill="none" stroke="#f1c116" stroke-width=".414" d="M54.749 58.188v6.273"></path><path fill="#f1c217" d="M54.749 58.547a6.6 6.6 0 0 1-4.061 1.416 12.2 12.2 0 0 0 4.061-4.957 12.87 12.87 0 0 0 4.062 4.957 6.84 6.84 0 0 1-4.062-1.416"></path><path fill="none" stroke="#f1c116" stroke-width=".041" d="M54.749 58.547a6.6 6.6 0 0 1-4.061 1.416 12.2 12.2 0 0 0 4.061-4.957 12.87 12.87 0 0 0 4.062 4.957 6.84 6.84 0 0 1-4.062-1.416z"></path><path fill="#f1c217" d="M74.467 6.713v6.273"></path><path fill="none" stroke="#f1c116" stroke-width=".414" d="M74.467 6.713v6.273"></path><path fill="#f1c217" d="M74.467 7.073a6.6 6.6 0 0 1-4.061 1.416 12.2 12.2 0 0 0 4.061-4.958 12.87 12.87 0 0 0 4.062 4.958 6.84 6.84 0 0 1-4.062-1.416"></path><path fill="none" stroke="#f1c116" stroke-width=".041" d="M74.467 7.073a6.6 6.6 0 0 1-4.061 1.416 12.2 12.2 0 0 0 4.061-4.958 12.87 12.87 0 0 0 4.062 4.958 6.84 6.84 0 0 1-4.062-1.416z"></path><path fill="#f1c217" d="M74.467 6.713v6.273"></path><path fill="none" stroke="#f1c116" stroke-width=".414" d="M74.467 6.713v6.273"></path><path fill="#f1c217" d="M74.467 7.073a6.6 6.6 0 0 1-4.061 1.416 12.2 12.2 0 0 0 4.061-4.958 12.87 12.87 0 0 0 4.062 4.958 6.84 6.84 0 0 1-4.062-1.416"></path><path fill="none" stroke="#f1c116" stroke-width=".041" d="M74.467 7.073a6.6 6.6 0 0 1-4.061 1.416 12.2 12.2 0 0 0 4.061-4.958 12.87 12.87 0 0 0 4.062 4.958 6.84 6.84 0 0 1-4.062-1.416z"></path><path fill="#f1c217" d="M35.833 6.713v6.273"></path><path fill="none" stroke="#f1c116" stroke-width=".414" d="M35.833 6.713v6.273"></path><path fill="#f1c217" d="M35.833 7.073a6.6 6.6 0 0 1-4.061 1.416 12.2 12.2 0 0 0 4.061-4.958A12.87 12.87 0 0 0 39.9 8.489a6.84 6.84 0 0 1-4.062-1.416"></path><path fill="none" stroke="#f1c116" stroke-width=".041" d="M35.833 7.073a6.6 6.6 0 0 1-4.061 1.416 12.2 12.2 0 0 0 4.061-4.958A12.87 12.87 0 0 0 39.9 8.489a6.84 6.84 0 0 1-4.067-1.416z"></path><path fill="#f1c217" d="M35.833 6.713v6.273"></path><path fill="none" stroke="#f1c116" stroke-width=".414" d="M35.833 6.713v6.273"></path><path fill="#f1c217" d="M35.833 7.073a6.6 6.6 0 0 1-4.061 1.416 12.2 12.2 0 0 0 4.061-4.958A12.87 12.87 0 0 0 39.9 8.489a6.84 6.84 0 0 1-4.062-1.416"></path><path fill="none" stroke="#f1c116" stroke-width=".041" d="M35.833 7.073a6.6 6.6 0 0 1-4.061 1.416 12.2 12.2 0 0 0 4.061-4.958A12.87 12.87 0 0 0 39.9 8.489a6.84 6.84 0 0 1-4.067-1.416z"></path><path fill="#f1c217" d="M54.86 5.019V8.63"></path><path fill="none" stroke="#f1c116" stroke-width=".238" d="M54.86 5.019V8.63"></path><path fill="#f1c217" d="M54.86 5.226a3.8 3.8 0 0 1-2.337.815 7 7 0 0 0 2.337-2.853 7.4 7.4 0 0 0 2.34 2.853 3.93 3.93 0 0 1-2.338-.815"></path><path fill="none" stroke="#f1c116" stroke-width=".041" d="M54.86 5.226a3.8 3.8 0 0 1-2.337.815 7 7 0 0 0 2.337-2.853 7.4 7.4 0 0 0 2.34 2.853 3.93 3.93 0 0 1-2.34-.815z"></path><path fill="#f1c217" d="M54.86 5.019V8.63"></path><path fill="none" stroke="#f1c116" stroke-width=".238" d="M54.86 5.019V8.63"></path><path fill="#f1c217" d="M54.86 5.226a3.8 3.8 0 0 1-2.337.815 7 7 0 0 0 2.337-2.853 7.4 7.4 0 0 0 2.34 2.853 3.93 3.93 0 0 1-2.338-.815"></path><path fill="none" stroke="#f1c116" stroke-width=".041" d="M54.86 5.226a3.8 3.8 0 0 1-2.337.815 7 7 0 0 0 2.337-2.853 7.4 7.4 0 0 0 2.34 2.853 3.93 3.93 0 0 1-2.34-.815z"></path><path fill="#f1c217" d="M34.339 29.323v3.611" data-source="https://football-logos.cc"></path><path fill="none" stroke="#f1c116" stroke-width=".238" d="M34.339 29.323v3.611"></path><path fill="#f1c217" d="M34.339 29.53a3.8 3.8 0 0 1-2.339.815 7 7 0 0 0 2.337-2.853 7.4 7.4 0 0 0 2.338 2.853 3.93 3.93 0 0 1-2.338-.815"></path><path fill="none" stroke="#f1c116" stroke-width=".041" d="M34.339 29.53a3.8 3.8 0 0 1-2.339.815 7 7 0 0 0 2.337-2.853 7.4 7.4 0 0 0 2.338 2.853 3.93 3.93 0 0 1-2.336-.815z"></path><path fill="#f1c217" d="M34.339 29.323v3.611"></path><path fill="none" stroke="#f1c116" stroke-width=".238" d="M34.339 29.323v3.611"></path><path fill="#f1c217" d="M34.339 29.53a3.8 3.8 0 0 1-2.339.815 7 7 0 0 0 2.337-2.853 7.4 7.4 0 0 0 2.338 2.853 3.93 3.93 0 0 1-2.338-.815"></path><path fill="none" stroke="#f1c116" stroke-width=".041" d="M34.339 29.53a3.8 3.8 0 0 1-2.339.815 7 7 0 0 0 2.337-2.853 7.4 7.4 0 0 0 2.338 2.853 3.93 3.93 0 0 1-2.336-.815z"></path><path fill="#f1c217" d="M75.725 29.323v3.611"></path><path fill="none" stroke="#f1c116" stroke-width=".238" d="M75.725 29.323v3.611"></path><path fill="#f1c217" d="M75.725 29.53a3.8 3.8 0 0 1-2.337.815 7 7 0 0 0 2.337-2.853 7.4 7.4 0 0 0 2.338 2.853 3.93 3.93 0 0 1-2.338-.815"></path><path fill="none" stroke="#f1c116" stroke-width=".041" d="M75.725 29.53a3.8 3.8 0 0 1-2.337.815 7 7 0 0 0 2.337-2.853 7.4 7.4 0 0 0 2.338 2.853 3.93 3.93 0 0 1-2.338-.815z"></path><path fill="#f1c217" d="M75.725 29.323v3.611"></path><path fill="none" stroke="#f1c116" stroke-width=".238" d="M75.725 29.323v3.611"></path><path fill="#f1c217" d="M75.725 29.53a3.8 3.8 0 0 1-2.337.815 7 7 0 0 0 2.337-2.853 7.4 7.4 0 0 0 2.338 2.853 3.93 3.93 0 0 1-2.338-.815"></path><path fill="none" stroke="#f1c116" stroke-width=".041" d="M75.725 29.53a3.8 3.8 0 0 1-2.337.815 7 7 0 0 0 2.337-2.853 7.4 7.4 0 0 0 2.338 2.853 3.93 3.93 0 0 1-2.338-.815z"></path><path fill="#fff" d="M40.759 22.728s.361 4.169 4.332 3.921 3.452-3.69 3.452-3.69z"></path><path fill="none" stroke="#fff" stroke-width=".041" d="M40.759 22.728s.361 4.169 4.332 3.921 3.452-3.69 3.452-3.69z"></path><path fill="#fff" d="M33.28 22.075s.1 4.182 4.08 4.182 3.674-3.468 3.674-3.468z"></path><path fill="none" stroke="#fff" stroke-width=".225" d="m34.301 22.534 6.886-12.6 6.581 13.926"></path><path fill="none" stroke="#fff" stroke-width=".231" d="m41.289 10.7.204 12.139"></path><path fill="none" stroke="#fff" stroke-width=".24" d="M44.757 25.7v2.857M38.433 25.7v2.65m2.958-14.232-3.723 8.825"></path><path fill="none" stroke="#fff" stroke-width=".231" d="M41.442 9.884s5.152 3.264 6.631 2.652"></path><path fill="#fff" d="M55.014 45.6s-.362 4.169-4.332 3.921-3.45-3.69-3.45-3.69z"></path><path fill="none" stroke="#fff" stroke-width=".041" d="M55.014 45.6s-.362 4.169-4.332 3.921-3.45-3.69-3.45-3.69z"></path><path fill="#fff" d="M62.493 44.946s-.1 4.182-4.082 4.182-3.672-3.468-3.672-3.468z"></path><path fill="none" stroke="#fff" stroke-width=".225" d="m61.473 45.405-6.887-12.6-6.581 13.926"></path><path fill="none" stroke="#fff" stroke-width=".231" d="M54.484 33.571 54.28 45.71"></path><path fill="none" stroke="#fff" stroke-width=".24" d="M51.015 48.567v2.857m6.326-2.857v2.654m-2.959-14.232 3.723 8.825"></path><path fill="none" stroke="#fff" stroke-width=".231" d="M54.331 32.755s-5.153 3.264-6.632 2.652"></path><path fill="#fff" d="M55.014 45.6s-.362 4.169-4.332 3.921-3.45-3.69-3.45-3.69z"></path><path fill="none" stroke="#fff" stroke-width=".041" d="M55.014 45.6s-.362 4.169-4.332 3.921-3.45-3.69-3.45-3.69z"></path><path fill="#fff" d="M62.493 44.946s-.1 4.182-4.082 4.182-3.672-3.468-3.672-3.468z"></path><path fill="none" stroke="#fff" stroke-width=".225" d="m61.473 45.405-6.887-12.6-6.581 13.926"></path><path fill="none" stroke="#fff" stroke-width=".231" d="M54.484 33.571 54.28 45.71"></path><path fill="none" stroke="#fff" stroke-width=".24" d="M51.015 48.567v2.857m6.326-2.857v2.654m-2.959-14.232 3.723 8.825"></path><path fill="none" stroke="#fff" stroke-width=".231" d="M54.331 32.755s-5.153 3.264-6.632 2.652"></path><g fill="#f8c213"><path d="M49.764 9.802v2.175h10.022l-.078-2.719h-1.98v1.399h-1.749V9.336h-1.865v1.321h-2.136V9.531h-2.253zM49.687 12.444h1.087v1.747h-.97zM51.668 12.483h3.34v1.593h-3.223zM55.979 12.405h3.534v1.786h-3.378zM49.803 15.007l1.398 1.943 1.904-.117-.233-2.136-3.147.078zM53.727 14.697l3.729.117-.428 1.903-3.263.077zM58.465 14.58l1.943.233-1.088 1.788-1.399-.039zM51.551 17.338l3.729-.039-.078 1.786-3.223-.076zM56.057 17.26l2.952-.039-.582 1.593h-2.409zM51.59 19.707l2.603-.117-.078 1.166-2.681-.233zM55.008 19.513l1.632.078v.971l-1.749-.078zM57.65 19.28l1.204.039.078 1.01-1.321.039zM50.774 21.106h2.486l-.233 1.476-2.796-.039zM54.387 21.028l.894.039-.234 1.67-1.242-.038zM56.251 21.028l.972-.078.66 1.71-1.825.039zM58.426 20.834l.777.078.621 1.359-1.359.078zM49.959 23.242l1.437-.156v1.476l-1.631.078M52.328 23.203l1.593-.039-.117 1.322H52.25v-1.361M54.814 23.203h1.904l.078 1.359-2.099-.039zM57.533 23.165h2.447l.156 1.165-2.642.116zM49.881 25.34l2.796.078-.076 1.359-2.876.039zM53.532 25.301h1.748l-.155 1.437-1.71-.078zM56.018 25.34l2.097-.194-.076 1.32-1.982.194zM59.009 25.223l1.359-.078.273 1.088-1.632.234zM63.521 32.502v2.175h10.022l-.078-2.72h-1.98v1.4h-1.749v-1.322h-1.865v1.322h-2.136V32.23h-2.253zM63.444 35.143h1.087v1.747h-.97zM65.425 35.182h3.34v1.593h-3.223zM69.736 35.104h3.534v1.786h-3.378zM63.56 37.706l1.398 1.943 1.904-.117-.233-2.136-3.147.078zM67.484 37.396l3.729.117-.428 1.903-3.263.077zM72.222 37.279l1.943.233-1.088 1.788-1.399-.039zM65.308 40.037l3.729-.039-.078 1.786-3.223-.076zM69.814 39.959l2.952-.039-.582 1.593h-2.409zM65.347 42.407l2.603-.117-.078 1.165-2.681-.232zM68.765 42.212l1.632.078v.971l-1.749-.078zM71.407 41.979l1.204.039.077 1.01-1.32.039zM64.531 43.805h2.486l-.233 1.476-2.796-.039zM68.144 43.727l.894.039-.234 1.669-1.242-.037zM70.008 43.727l.972-.078.66 1.71-1.825.039zM72.183 43.533l.777.078.621 1.359-1.359.078zM63.716 45.941l1.437-.156v1.476l-1.632.078M66.085 45.902l1.593-.039-.117 1.322h-1.554v-1.361M68.571 45.902h1.903l.078 1.359-2.098-.039zM71.29 45.863h2.447l.156 1.166-2.642.115zM63.638 48.039l2.796.078-.076 1.359-2.876.039zM67.289 48h1.748l-.155 1.437-1.71-.078zM69.775 48.039l2.097-.194-.078 1.32-1.98.194zM72.766 47.922l1.359-.078.273 1.088-1.632.234zM35.32 32.502v2.175h10.021l-.078-2.72h-1.98v1.4h-1.749v-1.322H39.67v1.322h-2.136V32.23h-2.253zM35.242 35.143h1.087v1.747h-.97zM37.223 35.182h3.34v1.593H37.34zM41.535 35.104h3.534v1.786h-3.378zM35.359 37.706l1.398 1.943 1.903-.117-.232-2.136-3.147.078zM39.282 37.396l3.729.117-.428 1.903-3.262.077zM44.021 37.279l1.942.233-1.087 1.788-1.4-.039zM37.107 40.037l3.729-.039-.078 1.786-3.224-.076zM41.612 39.959l2.952-.039-.582 1.593h-2.409zM37.145 42.407l2.603-.117-.078 1.165-2.681-.232zM40.563 42.212l1.632.078v.971l-1.749-.078zM43.205 41.979l1.204.039.077 1.01-1.32.039zM36.33 43.805h2.485l-.232 1.476-2.796-.039zM39.942 43.727l.894.039-.234 1.669-1.242-.037zM41.807 43.727l.971-.078.66 1.71-1.825.039zM43.982 43.533l.777.078.621 1.359-1.359.078zM35.514 45.941l1.437-.156v1.476l-1.632.078M37.883 45.902l1.593-.039-.117 1.322h-1.554v-1.361M40.369 45.902h1.904l.078 1.359-2.099-.039zM43.088 45.863h2.447l.156 1.166-2.642.115zM35.436 48.039l2.796.078-.076 1.359-2.876.039zM39.088 48h1.747l-.154 1.437-1.71-.078zM41.573 48.039l2.097-.194-.078 1.32-1.98.194zM44.564 47.922l1.359-.078.273 1.088-1.632.234z"></path></g><path fill="#fff" d="M69.23 22.384s-.362 4.169-4.332 3.921-3.45-3.69-3.45-3.69z"></path><path fill="none" stroke="#fff" stroke-width=".041" d="M69.23 22.384s-.362 4.169-4.332 3.921-3.45-3.69-3.45-3.69z"></path><path fill="#fff" d="M76.708 21.731s-.1 4.184-4.082 4.184-3.672-3.469-3.672-3.469l7.754-.714"></path><path fill="none" stroke="#fff" stroke-width=".225" d="m75.688 22.19-6.886-12.6-6.581 13.926"></path><path fill="none" stroke="#fff" stroke-width=".231" d="m68.7 10.356-.204 12.14"></path><path fill="none" stroke="#fff" stroke-width=".24" d="M65.23 25.352v2.858m6.326-2.857v2.654M68.6 13.774l3.721 8.826"></path><path fill="none" stroke="#fff" stroke-width=".231" d="M68.547 9.54s-5.153 3.264-6.632 2.652"></path><path fill="none" d="M0 0h102.336v89.697H0z" data-source="https://football-logos.cc"></path><!-- source: https://football-logos.cc --></svg>