<svg xmlns="http://www.w3.org/2000/svg" viewBox="0.06 0.58 438.35 566.93"><!-- Source: https://football-logos.cc --><defs data-source="https://football-logos.cc"><clipPath id="a"><path d="M0 0h438.398v129H0Zm0 0"></path></clipPath><clipPath id="b"><path d="M0 439h438.398v129H0Zm0 0"></path></clipPath></defs><path d="M64.781 164.406h67.516l3.277-12.945h5.223l2.082-7.3h3.348v-5.587a2.67 2.67 0 0 1-1.024-2.086c0-.98.543-1.84 1.336-2.3-2.836-4.075-2.45-8.114-2.512-12.282-.136-9.066-11.246-11.828-11.625-23.523 0-10.66 8.621-15.473 15.082-15.43 8.832.063 10.926 6 18.149 6.121 9.863.168 10.957-11.578 23.515-12.172 6.493-.304 10.34 1.938 13.883 4.547v-4.816c0-4.387 3.586-7.977 7.973-7.977h15.95c4.386 0 7.976 3.59 7.976 7.977v4.906c3.578-2.644 7.437-4.945 14.007-4.637 12.555.594 13.653 12.34 23.512 12.172 7.223-.12 9.317-6.058 18.149-6.12 6.464-.044 15.086 4.769 15.086 15.429-.38 11.695-11.493 14.457-11.625 23.523-.063 4.164.32 8.203-2.508 12.274a2.67 2.67 0 0 1 1.34 2.308 2.66 2.66 0 0 1-1.43 2.352v5.32h2.855l2.305 7.3h5l3.684 12.946h67.957v289.508l-23.965 18.738H246.379l-27.383 28.383-27.418-28.383H88.043l-23.262-18.09Zm0 0" style="stroke:none;fill-rule:evenodd;fill:#0a130c;fill-opacity:1"></path><path d="m222.414 487.809 21.113-21.875H346.98l19.56-15.293V322.62H222.413Zm0 0" style="stroke:none;fill-rule:evenodd;fill:#152b82;fill-opacity:1"></path><path d="M71.496 322.621v128.652l18.856 14.66H194.43l21.27 22.016V322.621ZM222.414 315.898h144.121V171.121h-144.12Zm0 0" style="stroke:none;fill-rule:evenodd;fill:#e30228;fill-opacity:1"></path><path d="M71.496 315.898h144.2V171.121h-144.2Zm0 0" style="stroke:none;fill-rule:evenodd;fill:#152b82;fill-opacity:1"></path><g clip-path="url(#a)"><path d="M95.012 19.203a649 649 0 0 1 25.258-3.805c19.136-2.52 38.34-4.378 57.609-5.5 17.348-1.007 34.71-1.406 52.09-1.3 14.562.086 29.191.894 43.71 2.03 11.88.934 23.75 2.11 35.587 3.524 10.168 1.215 20.34 2.594 30.445 4.274 1.086.18 2.176.363 3.258.562 7.21-8.699 18.777-16.933 35.164-18.226 10.113-.797 18.058 1.12 24.789 4.254 2.844 1.324 5.633 3.097 8.27 4.773l27.222 52.367-2 1.34C425.86 70.598 416.63 77.441 405.45 81.22c6.227 6.527 14.38 9.695 27.352 7.594-3.547 15.953-18.387 22.699-34.028 19.511-3.418 13.559-9.613 21.164-27.09 20.16 5.114-8.597 5.594-14.949 3.005-19.738-6.692-12.363-20.86-10.047-32.426-19.125-3.149-2.473-5.942-5.797-8.211-9.75a699 699 0 0 0-28.711-4.125c-4.754-.59-9.516-1.156-14.277-1.7-12.196-1.39-24.418-2.616-36.665-3.507-11.425-.836-22.91-1.39-34.367-1.379-16.64.02-33.242.707-49.828 2.043-12.254.996-24.476 2.332-36.672 3.902-9.91 1.278-19.828 2.606-29.636 4.512-2.297 4.063-5.141 7.477-8.36 10.004-11.566 9.078-25.738 6.762-32.422 19.125-2.59 4.79-2.11 11.14 3.004 19.738-17.476 1.004-23.676-6.601-27.094-20.16-15.644 3.188-30.48-3.558-34.027-19.511 13.121 2.124 21.309-1.141 27.563-7.817C21.602 77.012 9.375 70.93 1.734 63.31l-1.5-1.496 26.024-51.547c3.113-2.426 6.484-4.371 10.11-5.914C42.777 1.617 50.288.023 59.663.762c16.527 1.3 28.152 9.672 35.348 18.441m0 0" style="stroke:none;fill-rule:evenodd;fill:#0a130c;fill-opacity:1"></path></g><path d="M28.48 12.355 3.793 61.242c8.59 8.555 23.777 15.332 35.77 19.028 20.996 6.472 41.398.976 62.136-3.196 10.414-2.097 20.93-3.508 31.457-4.87 29.25-3.766 56.64-5.93 86.871-5.966 26.024-.027 56.332 2.98 85.672 6.61 12.215 1.507 25.961 3.523 39.086 5.933 15.348 2.824 29.438 5.508 43.457 3.5 13.219-1.894 28.461-6.41 46.324-21.039l-25.488-48.887c-4.148 6.829-14.605 15.075-24.734 15.735-14.73.96-21.817-2.91-45.114-6.785-28.12-4.676-74.027-9.575-109.28-9.785-33.528-.204-68.446 1.402-109.298 6.77-47.48 6.25-56.855 12.14-69.57 9.687-11.133-2.149-16.875-7.582-22.602-15.622m0 0" style="stroke:none;fill-rule:evenodd;fill:#f0dd00;fill-opacity:1"></path><g clip-path="url(#b)"><path d="M94.84 548.883a641 641 0 0 0 25.258 3.812c19.136 2.52 38.34 4.38 57.605 5.5 17.352 1.008 34.711 1.407 52.094 1.301 14.562-.09 29.191-.894 43.71-2.031a890 890 0 0 0 35.583-3.524c10.168-1.214 20.344-2.593 30.45-4.277 1.081-.176 2.17-.367 3.257-.559 7.21 8.692 18.773 16.934 35.164 18.223 10.113.797 18.059-1.121 24.785-4.25 2.848-1.328 5.637-3.101 8.274-4.777l27.226-52.367-2-1.34c-10.558-7.098-19.793-13.946-30.973-17.723 6.23-6.523 14.383-9.691 27.356-7.59-3.55-15.953-18.383-22.703-34.027-19.515-3.418-13.555-9.614-21.16-27.09-20.157 5.11 8.594 5.593 14.95 3 19.735-6.688 12.367-20.856 10.047-32.422 19.125-3.149 2.476-5.942 5.8-8.211 9.75a705 705 0 0 1-28.715 4.129c-4.75.586-9.512 1.156-14.273 1.695-12.196 1.394-24.418 2.617-36.664 3.512-11.426.832-22.91 1.39-34.368 1.379-16.64-.02-33.238-.711-49.824-2.051-12.258-.988-24.48-2.324-36.676-3.895-9.91-1.281-19.824-2.605-29.636-4.511-2.297-4.067-5.141-7.48-8.36-10.008-11.57-9.078-25.734-6.758-32.422-19.125-2.59-4.785-2.109-11.14 3.004-19.735-17.476-1.004-23.675 6.602-27.093 20.157-15.645-3.188-30.48 3.562-34.028 19.515 13.121-2.125 21.309 1.137 27.563 7.813-10.965 3.988-23.18 10.07-30.824 17.691l-1.5 1.492 26.023 51.547c3.113 2.426 6.484 4.371 10.11 5.918 6.41 2.735 13.921 4.328 23.296 3.586 16.528-1.3 28.153-9.668 35.348-18.445m0 0" style="stroke:none;fill-rule:evenodd;fill:#0a130c;fill-opacity:1"></path></g><path d="M28.309 555.738 3.625 506.852c8.586-8.559 23.773-15.332 35.766-19.028 20.996-6.472 41.398-.98 62.136 3.196 10.41 2.097 20.926 3.507 31.457 4.863 29.25 3.773 56.637 5.937 86.871 5.972 26.024.028 56.333-2.984 85.672-6.609 12.215-1.508 25.961-3.523 39.086-5.937 15.348-2.82 29.438-5.504 43.457-3.497 13.22 1.895 28.461 6.403 46.325 21.04l-25.489 48.886c-4.148-6.828-14.605-15.074-24.734-15.734-14.73-.965-21.817 2.906-45.113 6.781-28.122 4.68-74.024 9.578-109.282 9.79-33.53.202-68.449-1.407-109.297-6.778-47.476-6.242-56.859-12.133-69.57-9.68-11.133 2.145-16.879 7.582-22.601 15.621m0 0" style="stroke:none;fill-rule:evenodd;fill:#f0dd00;fill-opacity:1"></path><path d="M307.598 294.266a3.06 3.06 0 0 1 1.757 2.773c0 1.649-1.316 3.04-2.976 3.04h-.262c-8.87 3.894-17.789 3.894-26.656 0h-.613c-1.664 0-2.977-1.388-2.977-3.04 0-1.402.957-2.625 2.27-2.953.011-7.492-.59-15.05-1.555-22.45a224 224 0 0 0-4.941-25.82c-1.696-6.703-3.72-13.5-6.262-19.953-2.281 1.348-4.594 2.66-6.668 4.301l-1.777 1.406-.547-2.199c-.403-1.633-1.489-3.375-2.356-4.809-1.191-1.968-2.375-3.921-3.164-6.101-2.055-5.727-1.023-13.738 5.008-16.68 2.504-1.219 5.309-1.25 7.785-.152 2.203-3.473 6.691-6.555 10.727-5.496 1.714.445 2.98 1.344 3.879 2.523.199-2.222.996-4.375 2.582-5.992 1.925-1.953 4.507-2.89 7.238-2.559a9.7 9.7 0 0 1 4.902 2.098c3.254-2.558 8.598-2.832 11.664.063 1.547 1.464 2.442 3.785 2.735 6.132.894-1.199 2.171-2.109 3.898-2.558 4.04-1.059 8.527 2.023 10.727 5.496a9.16 9.16 0 0 1 7.789.156c6.03 2.938 7.062 10.953 5.004 16.68-.786 2.176-1.97 4.129-3.16 6.098-.864 1.433-1.954 3.175-2.36 4.808l-.543 2.2-1.777-1.407c-2.14-1.687-4.524-3.031-6.875-4.418-4.293 12.086-7.285 25.137-9.352 37.676-1.683 10.219-2.847 20.734-3.144 31.137m0 0" style="stroke:none;fill-rule:evenodd;fill:#0a130c;fill-opacity:1"></path><path d="M278.848 295.46h27.53c.837 0 1.517.712 1.517 1.58 0 .866-.692 1.581-1.516 1.581h-27.531c-.832 0-1.52-.71-1.52-1.582 0-.863.692-1.578 1.52-1.578M292.285 193.52c-2.555-2.262-7.113-3.157-10.39.171-2.274 2.305-2.57 5.95-1.903 8.88 1.602 7.023 7.805 13.933 12.797 16.777 8.059-4.895 11.742-11.485 12.988-16.782.653-2.765.114-7.129-2.125-9.238-2.566-2.426-7.226-2.086-9.91.145v17.8h-1.457ZM265.813 201.188c2.015-2.399 5.253-4.418 8.207-3.649 3.328.875 4.453 3.766 4.496 6.832.062 5.125-1.93 9.832-6.38 14.695-3.882 4.254-9.214 5.91-14.327 9.954-.836-3.375-4.043-6.836-5.563-11.051-1.61-4.489-1.375-12.121 4.274-14.871 1.597-.782 3.976-1.235 6.425-.192-1.156 2.328-1.742 4.89-1.84 7.567-.12 3.148.278 5.972-.644 9.054l-.207.7 1.398.418.211-.7c.985-3.289.575-6.078.703-9.418.125-3.316 1.086-6.78 3.247-9.34M320.348 201.496c-1.953-2.64-5.485-5.082-8.684-4.242-3.328.867-4.453 3.758-4.492 6.824-.07 5.125 1.93 9.832 6.375 14.7 3.883 4.25 9.215 5.906 14.324 9.949.84-3.375 4.043-6.836 5.563-11.051 1.613-4.488 1.378-12.121-4.27-14.871-1.598-.782-3.98-1.235-6.422-.192 1.149 2.328 1.735 4.895 1.836 7.567.121 3.148-.277 5.972.645 9.054l.207.7-1.399.418-.21-.7c-.981-3.289-.575-6.078-.704-9.418-.12-3.047-.937-6.27-2.77-8.738m0 0" style="stroke:none;fill-rule:evenodd;fill:#f0dd00;fill-opacity:1"></path><path d="M266.652 225.11c6.676 16.886 12.957 44.886 12.946 68.886h3.347c-.21-15.226-1.242-30.582-3.656-45.625-1.504-9.398-3.57-18.797-6.488-27.879-1.805 1.852-3.938 3.281-6.149 4.617m17.754 68.886h3.68c.254-11.137-.016-22.312-.719-33.433-.61-9.61-1.555-19.211-2.89-28.747-1.18-8.406-2.664-16.812-4.614-25.082-.515 4.762-2.75 8.832-5.93 12.512 3.075 9.402 5.239 19.145 6.805 28.899 2.422 15.12 3.457 30.546 3.668 45.851m5.14 0h2.427v-73.433c-3.512-2.024-7-5.446-9.59-9.297 3.453 16.093 5.406 32.894 6.441 49.203.707 11.152.977 22.36.723 33.527m3.888 0h3.257c-.25-11.004-.007-22.05.637-33.043.582-9.805 1.488-19.613 2.8-29.351.927-6.848 2.048-13.715 3.481-20.493-2.55 3.852-6.074 7.067-10.062 9.489l-.113.066Zm4.718 0h3.375c.063-15.605 1.114-31.25 3.633-46.66 1.586-9.715 3.774-19.106 6.457-28.535-2.906-3.406-5.004-7.145-5.676-11.457-1.87 8.058-3.257 16.265-4.363 24.453-1.308 9.7-2.21 19.473-2.789 29.242-.644 10.965-.887 21.98-.637 32.957m4.836 0h3.157c.695-22.469 5.574-49.332 12.675-69.308-2.18-1.329-4.28-2.754-6.05-4.602-2.551 9.078-4.637 18.137-6.168 27.484-2.504 15.336-3.551 30.899-3.614 46.426m-19.398 6.082q9.198 2.925 18.402 0Zm0 0" style="stroke:none;fill-rule:evenodd;fill:#f0dd00;fill-opacity:1" data-source="https://football-logos.cc"></path><path d="M157.36 444.164a3.06 3.06 0 0 1 1.761 2.777c0 1.645-1.32 3.04-2.98 3.04h-.258c-8.871 3.89-17.79 3.89-26.656 0h-.614c-1.664 0-2.98-1.391-2.98-3.04 0-1.402.957-2.625 2.27-2.953.011-7.496-.59-15.05-1.555-22.449a223 223 0 0 0-4.938-25.824c-1.695-6.703-3.719-13.496-6.262-19.95-2.285 1.344-4.597 2.66-6.671 4.298l-1.778 1.406-.547-2.2c-.406-1.632-1.488-3.37-2.355-4.804-1.192-1.973-2.375-3.926-3.156-6.102-2.063-5.726-1.032-13.742 5-16.68 2.504-1.218 5.312-1.253 7.789-.152 2.199-3.476 6.687-6.558 10.722-5.5 1.715.45 2.989 1.34 3.88 2.524.198-2.227.995-4.375 2.585-5.989 1.922-1.953 4.504-2.89 7.235-2.558a9.7 9.7 0 0 1 4.902 2.094c3.258-2.555 8.601-2.829 11.66.062 1.555 1.465 2.445 3.785 2.738 6.133.895-1.195 2.172-2.102 3.907-2.559 4.03-1.054 8.52 2.024 10.722 5.5 2.477-1.101 5.285-1.066 7.79.153 6.03 2.937 7.058 10.953 5 16.68-.786 2.175-1.97 4.128-3.16 6.1-.864 1.434-1.95 3.173-2.356 4.806l-.543 2.203-1.782-1.407c-2.136-1.695-4.527-3.035-6.87-4.421-4.298 12.09-7.286 25.136-9.356 37.675-1.684 10.22-2.848 20.735-3.145 31.137m0 0" style="stroke:none;fill-rule:evenodd;fill:#0a130c;fill-opacity:1"></path><path d="M128.613 445.36h27.528c.836 0 1.52.71 1.52 1.581 0 .864-.688 1.579-1.52 1.579h-27.528c-.836 0-1.52-.711-1.52-1.579 0-.867.688-1.582 1.52-1.582M142.047 343.414c-2.555-2.254-7.113-3.148-10.39.18-2.27 2.304-2.571 5.945-1.903 8.875 1.601 7.023 7.805 13.937 12.8 16.777 8.055-4.894 11.735-11.484 12.985-16.777.652-2.77.113-7.13-2.125-9.242-2.566-2.422-7.223-2.086-9.906.144v17.8h-1.461ZM115.578 351.086c2.016-2.395 5.25-4.414 8.203-3.64 3.328.87 4.453 3.757 4.496 6.827.067 5.13-1.93 9.829-6.375 14.696-3.886 4.25-9.218 5.91-14.332 9.945-.836-3.375-4.039-6.836-5.554-11.047-1.618-4.484-1.383-12.12 4.265-14.87 1.598-.778 3.98-1.235 6.422-.192-1.148 2.328-1.73 4.894-1.836 7.566-.12 3.152.281 5.973-.64 9.055l-.211.695 1.398.418.207-.695c.988-3.29.578-6.078.707-9.418.125-3.313 1.086-6.778 3.25-9.34M170.113 351.398c-1.957-2.64-5.484-5.086-8.687-4.246-3.328.875-4.453 3.758-4.492 6.828-.07 5.13 1.93 9.832 6.375 14.696 3.886 4.254 9.218 5.91 14.328 9.945.836-3.375 4.043-6.832 5.558-11.047 1.614-4.484 1.38-12.12-4.265-14.87-1.602-.778-3.98-1.231-6.426-.192 1.152 2.332 1.734 4.894 1.836 7.566.12 3.152-.278 5.973.644 9.055l.211.703-1.406.418-.203-.7c-.984-3.292-.578-6.081-.703-9.417-.117-3.051-.942-6.27-2.77-8.739m0 0" style="stroke:none;fill-rule:evenodd;fill:#f0dd00;fill-opacity:1"></path><path d="M116.414 375.008c6.684 16.89 12.957 44.89 12.945 68.89h3.352c-.215-15.226-1.242-30.578-3.652-45.62-1.508-9.407-3.579-18.801-6.493-27.883-1.804 1.847-3.945 3.277-6.152 4.613m17.758 68.89h3.676c.254-11.136-.012-22.32-.72-33.433-.608-9.61-1.55-19.219-2.89-28.75-1.175-8.406-2.66-16.813-4.617-25.078v-.004c-.508 4.765-2.75 8.832-5.926 12.515 3.078 9.399 5.243 19.141 6.801 28.891 2.43 15.125 3.457 30.555 3.676 45.86m5.137 0h2.425v-73.433c-3.511-2.027-7-5.45-9.59-9.3 3.458 16.097 5.407 32.897 6.442 49.206.703 11.149.976 22.36.723 33.527m3.886 0h3.258c-.25-11.003-.008-22.05.64-33.043.579-9.804 1.485-19.617 2.802-29.351.921-6.852 2.046-13.715 3.476-20.496-2.55 3.851-6.074 7.066-10.059 9.488l-.117.07Zm4.72 0h3.374c.066-15.609 1.113-31.25 3.637-46.66 1.586-9.71 3.77-19.11 6.453-28.539-2.906-3.41-5.008-7.14-5.676-11.453-1.867 8.055-3.258 16.266-4.363 24.453-1.309 9.7-2.211 19.473-2.79 29.242-.644 10.961-.886 21.98-.636 32.957m4.839 0h3.156c.695-22.472 5.57-49.332 12.668-69.308-2.176-1.328-4.273-2.762-6.043-4.606-2.555 9.082-4.64 18.137-6.168 27.489-2.508 15.332-3.55 30.898-3.613 46.425m-19.402 6.082c6.132 1.946 12.27 1.946 18.402 0Zm0 0" style="stroke:none;fill-rule:evenodd;fill:#f0dd00;fill-opacity:1"></path><path d="M96.414 276.352c2.5-.13 5.594 1.312 9.563 1.972 3.503.586 7.675.649 9.687-.765 1.074-.754 1.8-2.786.93-4.34-1.121-1.996-4.356-3.703-5.309-6.465-.89-2.57-.144-5.766 1.387-7.457 1.398-1.55 4.527-3.152 7.883-2.938 4.316.274 9.144 2.43 12.472 1.93 3.762-.559 4.168-4.691 3.985-6.484-.282-2.77-1.266-5.88-4.77-6.215-1.394-.137-2.832.062-4.738 1.738-1.598-.687-1.383-1.289-1.899-1.976-.468.18-1.601 1.02-2.164 1.578-.875-.192-1.625-.64-2.25-1.336-.605.21-1.558 1.636-2.863 2.101-.652-.55-1.058-1.074-1.969-1.37-.605.6-1.023 1.105-2.101 1.613-.531-.516-1.156-1.032-1.684-1.543-1.437 1.718-2.328 2.933-3.511 3.644q-.612-1.23-1.223-2.46c-.918 1.331-1.871 2.507-3.05 3.331-.438-.441-.884-.793-1.325-1.238-2.192-.39-4.735-.277-8.66.055-1.27.109-2.192-1.075-2.176-2.48.02-1.583 1.164-3.427 2.902-3.493 4.985-.2 10.016-.691 15.645-2.25 4.52-1.258 9.75-3.77 11.23-6.387.485-.855.809-1.84.73-2.89-.097-1.313-.624-2.547-2.097-2.696-1.71-.176-3.734 1.914-6.293 2.047-.125-1.25-.66-3.226-1.324-4.129-.578.254-2.445.742-3.375.317.715-1.387-.133-2.633-1.031-3.446-1.637-.453-3.082-1.144-4.192-2.023.5-1.578.559-2.484-.066-4.059-.887-.328-1.82-.66-2.707-.984.547-1.774.445-3.64.11-5.54-.7-.343-1.446-.878-2.145-1.222.078-.898.25-1.797.324-2.695-.422-.543-.887-.895-1.305-1.438.867-3.843-1.023-7.261-5.113-9.78 2.933-4.173 7.586-2.071 9.742 1.347 1.898 3.015 2.484 7.308 4.707 11.207 2.152 3.781 5.832 6.87 8.75 7.812 2.156.696 7.23.625 9.559.426 3.8-.32 8.43-2.008 12.855-5.598-4.8-1.457-9.082-4.828-10.37-9.632 1.491 1.379 1.952 4.007 6.276 5.129-1.246-2.856 1.012-5.04-2.32-8.649 4.184 1.957 2.625 6.305 4.781 7.89 1.672 1.235 5.133.067 5.282-2.488.265-4.476-.664-8.304-10.73-10.015-1.712-.293-1.138-3.742-.642-4.266.375-.39 2.614-1.719 3.16-1.707 8.13.18 13.551 3.63 18.18.473 1.293-.887 1.98-2.004 2.118-3.285.261-2.446-.215-6.043-.903-8.645 7.617 5.281 7.942 15.578 8.211 24.262.113 3.726-1.824 10.996-3.605 15.363-2.446 5.984-5.602 10.281-6.614 15.832-.863 4.711-.328 10.73-.363 18.961-.012 4.527 2.945 9.652 6.465 17.363.742 1.63 2.453 3.403 5.754 4.082 3.512.723 8.926-.32 10.894-3.64 2.239-3.778 2.028-12.485 1-24.055-.636-7.18-1.933-15.191-2.863-22.719-1.195-9.8-.523-19.418 2.68-26.492 2.508-5.523 5.855-10.625 12.594-10.86 7.87-.277 10.765 8.313 11.582 14.794 3.668 7.554-.348 23.086-.286 35.672-.836-.188-1.707-.27-2.261-.95-1.407-1.746-1.778-5.34-1.942-9.343-.433-10.645 1.684-25.653 2.117-25.856-1.886-12.304-7.09-12.582-9.625-12.426-6.55.407-11.167 9-12.652 19.246-1.242 8.586.336 16.383 2.086 28.97.484 3.491 1.219 10.019 1.73 16.148.434 5.261.727 16-2.207 19.855-1.738 2.285-3.375 3.574-6.382 4.293-7.332 1.774-11.344-1.976-14.032-.273-.414 9.062 7.094 11.156 11.391 12.656 1.852.648 2.695 2.61 1.8 4.605-.694 1.547-1.718 1.864-2.484 2.922-.859 1.184-1.8 2.54-2.636 3.403-1.836 1.898-3.508 2.89-5.121 4.8-2.653 3.137-3.59 6.274-8.297 7.864-3.93 1.324-8.356 1.117-14.668.843-1.52-.07-2.719-2.859-.664-3.796 3.097-1.418 9.32-.5 12.426-2.286 2.527-1.457 3.933-4.5 8.445-8.628-2.496-1.961-5.992-3.305-7.707-4.575-3.235-1.086-5.067-3.234-7.281-7.949l-5.313-2.652-7.5 5.144-5.125-3.058c-1.406.535-2.754 1.316-3.074 1.379-3.98.808-8.88.41-12.078.644l-1.383-1.508-3.035.38c-1.477-.81-2.668-1.716-3.2-2.524l-2.917-.11-1.02-1.562c-2.293-.387-4.02-4.277-.793-4.445M246.648 426.691c2.504-.132 5.594 1.305 9.563 1.973 3.5.582 7.676.649 9.691-.766 1.07-.753 1.797-2.785.926-4.34-1.125-1.995-4.355-3.703-5.308-6.464-.891-2.57-.149-5.766 1.386-7.461 1.399-1.547 4.528-3.149 7.883-2.934 4.32.274 9.145 2.43 12.473 1.93 3.761-.559 4.164-4.692 3.984-6.484-.281-2.774-1.266-5.88-4.77-6.215-1.398-.133-2.835.062-4.738 1.742-1.597-.692-1.379-1.29-1.898-1.98-.469.18-1.602 1.019-2.164 1.578q-1.312-.288-2.25-1.336c-.606.21-1.559 1.636-2.86 2.101-.656-.555-1.062-1.074-1.972-1.37-.606.6-1.024 1.105-2.106 1.608-.527-.511-1.152-1.027-1.68-1.539-1.437 1.72-2.324 2.93-3.511 3.645l-1.223-2.465c-.922 1.332-1.875 2.512-3.047 3.332-.449-.441-.886-.793-1.328-1.234-2.191-.39-4.734-.282-8.66.054-1.27.11-2.191-1.074-2.176-2.476.02-1.586 1.164-3.43 2.903-3.5 4.98-.195 10.015-.688 15.644-2.25 4.52-1.25 9.75-3.77 11.23-6.387.481-.851.81-1.836.731-2.887-.098-1.312-.625-2.546-2.098-2.695-1.71-.176-3.734 1.914-6.293 2.043-.125-1.25-.66-3.223-1.324-4.125-.578.258-2.445.742-3.375.316.715-1.386-.136-2.632-1.035-3.449-1.633-.453-3.082-1.14-4.187-2.023.5-1.574.558-2.48-.067-4.055-.887-.332-1.82-.656-2.707-.984.543-1.774.45-3.64.11-5.54-.7-.343-1.446-.878-2.149-1.226.082-.894.25-1.793.328-2.691-.418-.543-.887-.895-1.304-1.438.867-3.844-1.024-7.262-5.114-9.785 2.934-4.172 7.586-2.066 9.739 1.352 1.902 3.015 2.488 7.308 4.71 11.207 2.153 3.78 5.836 6.867 8.75 7.812 2.153.695 7.23.625 9.555.43 3.8-.324 8.434-2.012 12.856-5.602-4.797-1.46-9.079-4.828-10.368-9.633 1.493 1.38 1.954 4.004 6.278 5.13-1.246-2.852 1.012-5.04-2.317-8.65 4.18 1.954 2.625 6.306 4.774 7.892 1.676 1.234 5.137.062 5.281-2.489.266-4.48-.66-8.304-10.723-10.015-1.714-.293-1.144-3.743-.644-4.27.375-.387 2.613-1.719 3.156-1.707 8.133.184 13.555 3.637 18.184.477 1.293-.883 1.98-2.008 2.117-3.29.262-2.445-.215-6.038-.902-8.644 7.613 5.285 7.937 15.578 8.21 24.266.114 3.726-1.824 10.996-3.609 15.36-2.441 5.987-5.594 10.284-6.61 15.831-.863 4.715-.327 10.734-.359 18.969-.015 4.523 2.942 9.644 6.461 17.355.743 1.633 2.453 3.407 5.754 4.086 3.512.723 8.922-.316 10.895-3.64 2.234-3.778 2.027-12.485 1-24.063-.64-7.172-1.938-15.183-2.86-22.71-1.199-9.802-.53-19.419 2.676-26.497 2.504-5.523 5.856-10.625 12.594-10.855 7.867-.278 10.766 8.312 11.582 14.793 3.668 7.554-.348 23.086-.285 35.671-.84-.19-1.711-.27-2.262-.953-1.41-1.742-1.777-5.336-1.941-9.34-.434-10.648 1.683-25.656 2.117-25.859-1.887-12.3-7.094-12.582-9.625-12.422-6.55.406-11.176 9-12.652 19.246-1.243 8.586.335 16.383 2.085 28.97.485 3.487 1.22 10.019 1.73 16.148.438 5.261.727 16-2.206 19.851-1.738 2.29-3.375 3.578-6.383 4.3-7.336 1.77-11.344-1.98-14.031-.276-.414 9.058 7.094 11.156 11.394 12.656 1.844.644 2.692 2.61 1.797 4.605-.695 1.547-1.722 1.86-2.488 2.922-.852 1.184-1.797 2.54-2.633 3.402-1.836 1.899-3.508 2.891-5.125 4.801-2.648 3.133-3.586 6.274-8.293 7.864-3.926 1.324-8.355 1.117-14.668.84-1.52-.063-2.719-2.856-.664-3.794 3.098-1.418 9.32-.5 12.426-2.285 2.527-1.457 3.937-4.5 8.445-8.629-2.5-1.96-5.996-3.304-7.707-4.578-3.234-1.082-5.07-3.23-7.281-7.941l-5.316-2.656-7.497 5.144-5.12-3.058c-1.41.535-2.758 1.316-3.079 1.378-3.98.805-8.879.41-12.078.645l-1.387-1.512-3.03.38c-1.477-.806-2.669-1.712-3.2-2.52l-2.918-.11-1.02-1.562c-2.289-.39-4.02-4.282-.793-4.446m0 0" style="stroke:none;fill-rule:evenodd;fill:#fff;fill-opacity:1"></path><path d="m136.938 153.215-2.833 11.191H303.48l-3.183-11.191Zm0 0" style="stroke:none;fill-rule:evenodd;fill:#f0dd00;fill-opacity:1"></path><path d="m144.2 145.91-1.579 5.55H294.79l-1.758-5.55Zm0 0" style="stroke:none;fill-rule:evenodd;fill:#e30228;fill-opacity:1"></path><path d="M163.34 134.176h27.101a6 6 0 0 1-.687-.89 7 7 0 0 1-.48-.915h-24.747a6 6 0 0 1-.422.805 5.7 5.7 0 0 1-.765 1m39.418 0h32.558a6.3 6.3 0 0 1-.695-.895 7.5 7.5 0 0 1-.476-.91h-30.22a6.6 6.6 0 0 1-.484.914 6 6 0 0 1-.683.89m44.883 0h27.406a5.7 5.7 0 0 1-.688-.895 6.6 6.6 0 0 1-.48-.91h-25.07a6.6 6.6 0 0 1-.48.91 5.7 5.7 0 0 1-.688.895M147.867 135.578a.915.915 0 0 0-.906.91c0 .492.41.903.906.903h142.367a.91.91 0 0 0 .903-.903c0-.496-.41-.91-.903-.91Zm0 0" style="stroke:none;fill-rule:evenodd;fill:#fff;fill-opacity:1"></path><path d="M151.7 117.719c1.269-1 3.015-1.559 5.359-1.559 2.625 0 5.129.746 6.683 2.992 1.414 2.04 1.602 4.692 1.602 7.102v.793c-.008 1.176-.043 2.398-.278 3.57h23.68c-.277-1.43-.27-2.945-.27-4.363 0-.293.004-.582.008-.875.13-5.363 2.09-9.219 8.114-9.219 2.535 0 4.937.723 6.464 2.863 1.47 2.055 1.66 4.782 1.66 7.23v.794c-.007 1.172-.042 2.398-.269 3.57h29.164c-.277-1.43-.27-2.945-.27-4.363 0-.293.005-.59.012-.875.13-5.367 2.094-9.219 8.118-9.219 2.539 0 4.937.723 6.472 2.867 1.465 2.051 1.66 4.778 1.66 7.227 0 .266 0 .527-.004.793-.003 1.172-.039 2.398-.27 3.57h24.017c-.278-1.43-.274-2.945-.274-4.363 0-.293 0-.59.012-.875.129-5.367 2.094-9.219 8.12-9.219 1.907 0 3.743.41 5.185 1.524a19.3 19.3 0 0 1 1.488-4.075c1.851-3.73 4.582-6.308 7.11-9.504 1.456-1.843 2.402-3.476 2.51-5.859-.026-2.094-.616-3.976-2.25-5.375-1.214-1.027-3-1.75-4.6-1.734-3.22.02-5.286 1.828-7.977 3.3-3.211 1.758-6.406 2.754-10.086 2.817a18.7 18.7 0 0 1-10.254-2.809c-3.238-1.992-5.387-4.648-8.215-7.05-1.762-1.493-3.242-2.211-5.566-2.32-3.89-.184-5.926.921-8.977 3.202-2.473 1.852-4.844 3.735-7.574 5.207-3.973 2.137-8.16 3.22-12.664 3.395l-.3.012-.302-.012c-4.5-.176-8.687-1.258-12.66-3.395-2.73-1.472-5.098-3.355-7.574-5.207-3.05-2.28-5.082-3.386-8.973-3.203-2.328.11-3.808.828-5.566 2.32-2.828 2.403-4.977 5.06-8.219 7.051a18.7 18.7 0 0 1-10.25 2.809c-3.68-.063-6.875-1.059-10.086-2.817-2.691-1.472-4.758-3.28-7.98-3.3-1.602-.016-3.39.707-4.602 1.734-1.629 1.399-2.223 3.281-2.25 5.375.113 2.383 1.059 4.016 2.516 5.86 2.523 3.195 5.258 5.773 7.11 9.503.655 1.329 1.16 2.7 1.495 4.11m0 0" style="stroke:none;fill-rule:evenodd;fill:#152b82;fill-opacity:1"></path><path d="M303.93 98.352c-.008-4.036-1.395-7.707-4.504-10.364-2.387-2.035-5.668-3.3-8.817-3.285-4.945.04-6.996 1.895-11.023 4.098-2.297 1.258-4.465 1.984-7.106 2.027-2.464.043-4.683-.57-6.777-1.86-2.816-1.73-4.926-4.35-7.426-6.472-2.843-2.418-5.656-3.668-9.422-3.84-5.464-.258-8.863 1.29-13.12 4.473-2.227 1.66-4.32 3.367-6.782 4.7-3.113 1.675-6.312 2.491-9.844 2.624h-.132c-3.532-.133-6.735-.95-9.844-2.625-2.469-1.332-4.555-3.039-6.781-4.7-4.262-3.183-7.657-4.73-13.122-4.472-3.77.172-6.582 1.422-9.425 3.84-2.5 2.121-4.606 4.742-7.422 6.473-2.098 1.289-4.317 1.902-6.778 1.86-2.644-.044-4.816-.77-7.109-2.028-4.023-2.203-6.082-4.059-11.023-4.098-3.149-.016-6.434 1.25-8.817 3.285-3.11 2.657-4.496 6.328-4.504 10.364.133 3.867 1.54 6.75 3.895 9.738 2.168 2.738 4.824 5.21 6.398 8.375.844 1.715 1.301 3.5 1.336 5.414.067 4.683-.285 8.23 2.672 11.95h2.02q-.247-.301-.465-.653c-1.262-2.043-1.235-4.602-1.235-6.922q.001-.442.008-.883c.063-2.379.489-4.441 1.461-6.004a17.4 17.4 0 0 0-1.61-4.976c-1.804-3.637-4.468-6.094-6.917-9.2-1.711-2.168-2.774-4.129-2.887-6.914.02-2.625.824-4.992 2.863-6.738 1.532-1.305 3.73-2.172 5.75-2.156 3.711.023 5.668 1.797 8.813 3.52 2.96 1.62 5.867 2.542 9.273 2.593 3.34.063 6.457-.793 9.301-2.543 3.18-1.957 5.238-4.547 8-6.894 2.059-1.75 3.906-2.606 6.621-2.735 4.313-.203 6.707 1.012 10.106 3.547 2.418 1.813 4.683 3.625 7.36 5.07 3.737 2.012 7.651 3.024 11.886 3.188l.238.008.238-.008c4.243-.164 8.157-1.176 11.895-3.188 2.676-1.445 4.937-3.257 7.36-5.07 3.394-2.535 5.788-3.75 10.1-3.547 2.72.13 4.563.985 6.622 2.735 2.762 2.347 4.824 4.937 8 6.894 2.844 1.75 5.965 2.606 9.305 2.543 3.402-.05 6.308-.973 9.27-2.594 3.148-1.722 5.1-3.496 8.812-3.52 2.023-.015 4.218.852 5.75 2.157 2.039 1.746 2.843 4.113 2.863 6.738-.113 2.785-1.176 4.746-2.887 6.914-2.453 3.106-5.113 5.563-6.914 9.196a17.3 17.3 0 0 0-1.598 4.898c1.31 2.024 1.485 4.621 1.485 6.969v.793c-.012 2.11-.117 4.394-1.277 6.234a6 6 0 0 1-.391.547h1.957c2.957-3.719 2.605-7.266 2.676-11.95.023-1.913.484-3.698 1.336-5.413 1.562-3.164 4.226-5.637 6.394-8.38 2.36-2.983 3.762-5.866 3.895-9.733m0 0" style="stroke:none;fill-rule:evenodd;fill:#f0dd00;fill-opacity:1"></path><path d="M196.598 117.91c5.828 0 6.37 4.32 6.37 8.344 0 2.992.028 6.16-2.613 7.574h-7.515c-2.645-1.414-2.61-4.582-2.61-7.574 0-4.024.543-8.344 6.368-8.344M241.477 117.91c5.832 0 6.378 4.32 6.378 8.344 0 2.992.032 6.16-2.617 7.574h-7.523c-2.645-1.414-2.613-4.582-2.613-7.574 0-4.024.543-8.344 6.375-8.344M281.21 117.91c5.83 0 6.376 4.32 6.376 8.344 0 2.992.031 6.16-2.613 7.574h-7.528c-2.644-1.414-2.617-4.582-2.617-7.574 0-4.024.55-8.344 6.383-8.344M157.059 117.91c5.976 0 6.53 4.32 6.53 8.344 0 2.992.032 6.16-2.675 7.574h-7.71c-2.712-1.414-2.677-4.582-2.677-7.574 0-4.024.551-8.344 6.532-8.344M233.176 82.867v-6.234c0-3.418-2.805-6.227-6.223-6.227h-15.95c-3.417 0-6.222 2.809-6.222 6.227v6.14c3.715 2.836 7.54 5.676 14.258 5.93 6.649-.25 10.457-3.031 14.137-5.836m0 0" style="stroke:none;fill-rule:evenodd;fill:#f0dd00;fill-opacity:1"></path><path d="m300.656 20.367 7.438.621-3.86 45.961-7.742-.648 3.07-36.602-4.707 2.457-3.593-6.89ZM334.191 52.484c-1.16.13-2.336.094-3.492-.12-6.922-1.313-11.863-6.954-11.41-14.15.45-7.124 6.207-12.968 13.465-12.859 6.816.153 11.535 4.762 12.973 10.657 1.043 4.3.41 7.547-.743 11.535-2.414 8.332-8.129 15.172-15.14 20.527-1.496 1.14-2.524 1.77-4.055 2.867l-5.055-5.863c1.672-1.2 3.38-2.375 4.996-3.648 3.266-2.57 6.223-5.547 8.461-8.946m-1.554-19.363c-3.114-.043-5.403 2.613-5.59 5.582-.207 3.258 2.195 5.817 5.312 6.067 2.91.226 5.29-1.516 5.91-4.11.797-3.34-.898-7.465-5.632-7.539M406.883 53.305a11.8 11.8 0 0 1-3.137 1.425c-6.766 1.95-13.933-.882-16.777-7.52-2.813-6.562-.309-14.374 6.215-17.55 6.238-3.039 12.964-1.05 16.96 3.914 2.77 3.442 3.989 8.285 4.465 12.574.762 6.868-.52 13.957-3.363 20.286-1.254 2.804-2.543 4.671-4.144 7.285l-7.391-2.89c1.734-2.68 3.48-5.274 4.73-8.227 1.25-2.95 2.098-6.106 2.442-9.297m-3.028-15.14c-1.793-2.02-4.539-2.895-7.27-1.517-2.565 1.293-3.644 4.766-2.472 7.504 1.29 3.004 4.926 4.278 7.59 3.133 3.36-1.445 4.633-6.324 2.152-9.12M364.8 68.387l11.833 1.691-.89 7.719-24.34-3.113.75-7.043c9.25-5.02 16.949-11.793 19.585-20.403 1.102-3.601.348-8.855-4.133-9.386-2.554-.301-4.53.933-6.671 4l-7.414-3.207c2.796-4.672 7.933-9.348 15-8.508 2.476.293 4.78 1.27 6.683 2.894 4.738 4.047 5.723 10.746 3.961 16.485-2.23 7.3-7.883 13.73-14.363 18.87M121.61 23.262l1.175 7.68-10.476 1.605 5.793 37.867-7.68 1.18-5.8-37.875-10.454 1.601-1.172-7.683ZM130.77 61.813a3.005 3.005 0 0 1 3.43 2.515 3.006 3.006 0 0 1-2.52 3.434 3.01 3.01 0 0 1-3.434-2.52 3.007 3.007 0 0 1 2.524-3.43M32.863 23.727l25.59 10.644-2.988 7.168-18.41-7.668-4.317 10.36 18.844 7.847-2.988 7.176-18.848-7.852-4.473 10.746 19.641 8.18-2.992 7.176-26.813-11.188ZM75.387 38.371c-3.469.668-5.692 4.418-4.559 7.438 1.387 3.683 5.215 4.18 8.25 4.27 7.192.222 13.18 5.25 13.656 12.624.23 3.567-1.246 7.067-3.629 9.676-2.566 2.805-6.097 4.535-9.894 4.777-4.082.254-8.379-1.18-11.465-3.914-2.254-2.004-3.277-4.414-4.402-7.097l7.199-2.72c.531 1.266.96 2.305 1.602 3.173 1.472 1.992 4.175 3.02 6.582 2.8 3.527-.32 6.464-2.921 6.253-6.195-.214-3.34-2.957-5.258-6.14-5.355-6.844-.207-13.695-2.907-15.543-10.114-1.008-3.949-.277-8.058 2.066-11.398 2.078-2.969 5.328-5.152 8.946-5.66 3.023-.422 6.254.039 9.086 1.32 2.277 1.043 3.94 2.621 5.718 4.317l-6.039 5.015c-2.191-2.39-4.48-3.582-7.687-2.957M373.031 528.605a3.47 3.47 0 0 1 3.965 2.915 3.48 3.48 0 0 1-2.91 3.968 3.48 3.48 0 1 1-1.055-6.883M406.219 537.715a3.483 3.483 0 1 1-2.914 3.969 3.485 3.485 0 0 1 2.914-3.97M243.89 505.547l27.825-1.078.3 7.8-20.023.77.43 11.258 20.492-.785.3 7.8-20.491.79.449 11.683 21.36-.82.296 7.8-29.168 1.106ZM334.371 495.965l27.434-4.781 1.336 7.687-19.77 3.442 1.93 11.101 20.23-3.516 1.336 7.696-20.23 3.511 3.332 19.184-7.672 1.348ZM211.328 552.027l28.434.012v-7.8h-20.649v-38.552l-7.789-.019ZM89.473 540.457l27.976 5.066 1.387-7.683-20.32-3.672 6.847-37.93-7.664-1.398ZM72.773 490.309c9.45.445 15.536 8.503 15.125 17.171l-.64 13.641c-.414 8.707-7.188 16.121-16.676 15.672-9.453-.441-15.543-8.5-15.129-17.172l.645-13.64c.41-8.711 7.183-16.122 16.675-15.672m-.367 7.761c-4.898-.23-8.324 3.543-8.547 8.278l-.644 13.64c-.219 4.696 2.87 8.817 7.73 9.043 4.899.235 8.325-3.543 8.547-8.273l.645-13.645c.222-4.695-2.875-8.816-7.73-9.043M405.84 494.797c4.055 1.45 6.156 4.52 7.87 7.86l-6.663 3.761c-.762-2.09-2.055-3.871-4.3-4.672-4.614-1.652-8.52 1.328-10.118 5.79l-4.11 11.48c-1.582 4.425.168 9.27 4.75 10.906 2.325.836 4.586.586 6.465-.434l3.114 7.133c-3.582 1.77-7.856 2.172-12.2.621-8.906-3.187-12.37-12.668-9.445-20.844l4.11-11.484c2.94-8.21 11.585-13.316 20.527-10.117M126.66 499.598l14.903 1.804c9.39 1.137 14.765 9.86 13.738 18.477l-1.613 13.562c-1.028 8.653-8.258 15.075-17.692 13.973l-14.824-1.68Zm6.844 8.734-3.684 30.953 7.035.883c4.864.613 8.555-2.941 9.118-7.645l1.613-13.562c.555-4.668-2.313-9.195-7.14-9.77ZM9.605 507.95l6.926-5.372 16.528 12.524 4.855-21.914 6.156-1.454 13.285 44-7.746 1.172-7.863-25.965-4.062 17.137-14.989-10.793 12.414 25.93-6.074 5.305ZM196.383 505.316l10.515 47.348-8.043-.316-1.476-6.489-12.82-.414-1.97 6.266-8.05-.313 14.574-46.367Zm-.735 32.739-3.609-16.426-5.05 16.086ZM307.64 500.078l-7.73 22.402 17.899 23.47-8.985 1.03-11.957-15.683-6.129 17.762-8.558.98 9.023-26.16-15.367-20.149 8.988-1.035 9.422 12.364 4.832-14Zm0 0" style="stroke:none;fill-rule:evenodd;fill:#0a130c;fill-opacity:1" data-source="https://football-logos.cc"></path><!-- source: https://football-logos.cc --></svg>