<svg xmlns="http://www.w3.org/2000/svg" xml:space="preserve" style="shape-rendering:geometricPrecision;text-rendering:geometricPrecision;image-rendering:optimizeQuality;fill-rule:evenodd;clip-rule:evenodd" viewBox="0 0 275.74 349.41"><!-- Source: https://football-logos.cc --><defs data-source="https://football-logos.cc"><style>.fil0{fill:#000}.fil2,.fil4{fill:#fdb714}.fil1,.fil3{fill:#fff}</style></defs><g id="Plan_x0020_1" data-source="https://football-logos.cc"><g id="_2662250358592"><circle cx="137.87" cy="211.54" r="137.87" class="fil0"></circle><circle cx="137.87" cy="211.54" r="131.89" class="fil1"></circle><circle cx="137.87" cy="211.54" r="125.72" class="fil0"></circle><circle cx="137.87" cy="211.54" r="89.51" class="fil1"></circle><circle cx="137.87" cy="211.54" r="83.21" class="fil0"></circle><path d="m204.04 18.83-19.45-.07L178.11 0l-6.25 18.66-19.54.17 15.75 11.59-5.97 18.96 16.15-11.56 16.01 11.43-5.98-18.87zM123.42 18.83l-19.45-.07L97.49 0l-6.25 18.66-19.54.17 15.75 11.59-5.98 18.96 16.16-11.56 16 11.43-5.97-18.87z" class="fil2"></path><path d="M122.57 209.02c2.61-.84 3.98 3.26 1.17 4.14-1.31.41-2.37-.57-2.64-1.46-.41-1.35.52-2.37 1.47-2.68m28.96.04c2.58-.93 4.08 3.2 1.23 4.09-2.45.76-4.11-3.05-1.23-4.09m-49.06-6.65 12.41-.11-.06 3.18-8.61.09.03 3.64 8.46-.02-.06 3.37-8.43-.01-.01 3.99 8.6.06.07 3.26-12.45-.1.05-17.36zm58.94 12.11c.58.16.71.64 2 1.36 2.91 1.63 7.05 1.01 6.66-1.19-.36-2.09-6.43-1.56-8.82-4.05-1.14-1.19-1.73-3.02-.98-5.06 2-5.37 11.43-3.8 13.19-1.1-.2.45-1.7 2.4-2.04 2.74-.63-.38-1.06-.81-1.94-1.2-1.33-.59-4.16-1.15-5.24.04-2.34 2.57 4.75 2.79 7.49 4.42 2.49 1.48 2.74 4.77 1.45 6.89-.72 1.18-2.11 2.18-3.87 2.55-1.89.39-4.08.32-5.85-.19-2.63-.76-3.27-1.85-4.03-2.21.09-.55 1.68-2.71 1.97-3.01zm-28.9-.04c1.53 1.08 1.81 1.77 4.37 2.23 1.72.31 4.72-.2 4.15-2.16-.56-1.93-6.33-1.4-8.86-4-2.09-2.14-1.7-6.5 2.52-8.08 3.15-1.18 8.43 0 9.78 2.01l-2.06 2.74c-.61-.37-1.04-.82-1.93-1.21-4.51-1.95-7.17.86-4.77 2.13 2.19 1.16 7.14 1.04 8.72 4.12.83 1.62.55 3.79-.24 5.15-2.02 3.49-8.68 3.39-11.99 1.36-.59-.36-1.51-.94-1.77-1.44.12-.3 1.75-2.6 2.1-2.85zm-16.49-49.65v32.89l-14.45.04-.05-22.54c-1.39.98-4.57 5.29-5.68 6.84-1.54 2.16-3.3 5.29-4.45 7.97-5.82 13.64-5.89 27.41-.02 41.06 1.58 3.67 4.57 8.68 7.12 11.58.59.67 2.31 2.87 3.04 3.33l-.02-21.58 14.51-.04v32.03c1.67 1.44 11.44 4.23 14.49 4.43V224.4c1.63-.11 13.59-.18 14.52.06v36.39c3.86-.46 7.58-1.57 11.1-2.88 1.07-.4 2.42-1.14 3.39-1.39l-.02-32.11c.75-.24 13.85-.23 14.54.01l-.01 21.53c1.2-.54 5.22-6.06 5.75-6.82 1.72-2.46 3.05-5.02 4.44-7.99 2.73-5.86 4.38-13.19 4.38-20.58 0-11.06-3.21-19.94-8.75-28.51-.88-1.35-1.71-2.34-2.69-3.59-.62-.79-2.35-2.99-3.16-3.34l.03 22.49-14.47-.04-.06-32.95c-3.26-1.95-10.69-3.91-14.51-4.34l.03 37.3-14.45.09-.06-37.36c-3.28.24-12.6 2.91-14.49 4.45z" class="fil3"></path><path d="M123.2 139.97c.37-.53 1.81-1.35 2.44-1.84.35-.27 2.24-1.63 2.47-1.72.75-.28 6.37-.95 7.56-1.1-.35.58-2.23 1.52-2.86 1.89-1.21.71-1.02 1.61-1.72 2.75-1.42 2.32-5.37 1.63-6.65.88 1.35-.05 2.54.22 3.54-.5.6-.42 1.46-1.55 1.04-2.73-1.33.1-.96.88-1.36 1.57-.7 1.2-1.43-.1-2.44.21-.69.21-1.32.5-2.02.6zm-2.54-2.41c.32.63.26.23.8.6l-3.13 1.86c-2.21 1.52-3.39 4.28-1.3 6.5.67.71 1.81 1.99 2.81 2.44-.38-3.87 5.36-3.87 8.07-3.89 1.93-.02 3.84.16 5.74.33 2.03.18 3.82.08 5.85.16 4.57.17 10.8 1.6 15.35 2.66 1.32.31 3.56 1.09 4.72 1.23l-1.63-2.23c-2.61-2.81-6.07-5.72-9.5-7.39-.29-.14-.22-.09-.43-.26.24-.48.88-.74 1.56-1.09.58-.3 1.21-.56 1.9-.76 1.86-.53 2.85-.49 4.76-.25-.89-1.06-6.24-2.77-8.22-3.07-6.16-.95-8.86-1.52-15.22-1.66-4.84-.1-3.29-.39-8.66 2.62-1.26.71-2.37 1.51-3.47 2.21z" class="fil2"></path><path d="M72.9 131.42c-.58-.36-3.26-3.14-1.72-5.6.66-1.05 4.06-3.62 4.65-3.75l3.38 4.5-6.32 4.85zm23.99-29.32 4.69 12.9-3.79 1.19-3.9-7.34-2.61 1.33c.7 1.72 3.51 6.41 3.78 7.52l-2.74 1.21-3.8-7.27-2.6 1.38 3.72 7.26-2.63 1.45-3.91-7.29-2.58 1.21 3.75 7.42-2.57 1.7c-.56-.42-3.52-4.57-4.4-5.67-1.41-1.78-3.64.91-6.23 2.7-.55.38-1.28 1.1-1.63 1.72-.5.9-.58 1.58-.46 2.72-.84-.72-3.74-5.15-4.45-5.59-.45.26-1.92 1.36-2.23 1.73.22.49.66.9 1.01 1.37l7.16 9.48c-.02.03-2.72 2.85-2.86 2.91l-9.29-9.74-2.25 1.99 5.34 5.66 1.88 1.88c3.86 4.33 3.99 4.68 5.99 2.78 3.79-3.6 12.09-10.71 16.66-13.08.51-.26 1.42-.62 1.67-1.12.08-.16.16-.44.28-.72.18.37.1.33.42.63 1.37-.7 2.73-1.4 4.1-2.1.88-.54.42-.7.87-1.27l.42.61c.72-.26 2.22-1.15 3.02-1.57 2.14-.85 4.27-1.73 6.44-2.51 1.44-.52 2.28-.92 1.51-2.78-1.81-4.39-3.27-9.43-5.02-13.62l-2.73.93z" class="fil3"></path><path d="M62.99 210.48c.01 17.9 6.16 34.7 16.96 47.54 1.87 2.22 10.84 10.98 13.12 12.49l2.31-4.05-2.85-2.31c-.82-.87-1.53-1.27-2.71-2.45-1.32-1.32-5.25-5.19-6.28-6.69l-1.74-2.17c-.23-.33-.33-.49-.59-.81l-2.12-3.04c-.37-.6-.65-1.08-1.02-1.65-6.75-10.4-10.44-24.3-10.43-36.72.01-14.14 3.86-25.83 10.73-37.27l4.74-6.57c.16.2.25.78.33 1.06.09.39.2.74.29 1.11.2.78.39 1.44.61 2.18.42 1.41.93 2.79 1.45 4.13.54 1.39 1.09 2.61 1.71 3.88.34.68 1.45 3.04 2.03 3.63.14-.12.11-.06.25-.24l.51-.9c.22-.36.46-.72.7-1.11l3.13-4.4c.28-.31.51-.63.81-1.01 1.31-1.61 1.03-.17-.8-5.26-2.27-6.34-2.61-11.35-2.5-18.05-.74.28-2.37 1.95-3.04 2.45-.34.25-.36.32-.66.59-3.61 3.28-6.36 5.98-9.23 9.91l-1.76 2.28c-1.75 2.2-3.83 5.91-5.24 8.45-5.19 9.36-8.72 22.19-8.71 34.99z" class="fil2"></path><path d="M70.23 210.2c.09 14.1 3.49 24.72 9.78 35.47 1.68 2.86 3.73 5.51 5.75 8.07 3 3.78 7.16 7.35 10.86 10.47l2.37-4.03c-.56-.64-1.77-1.53-2.5-2.1l-2.37-2.23c-1.5-1.34-4.31-4.43-5.45-5.99-2.6-3.56-4.18-5.37-6.43-9.76-7.92-15.46-9.74-32.22-4.13-49.4 1.2-3.68 2.6-6.78 4.37-10.01.59-1.08.58-.86.07-2.04l-1.68-4.21c-.78.5-3.57 5.98-4.24 7.39-1.25 2.64-2.31 5.37-3.25 8.34-1.9 5.98-3.19 13.25-3.14 20.04z" class="fil2"></path><path d="M77.48 210.34c.02 5.37.64 10.73 1.99 15.63 1.21 4.4 2.87 9.01 4.93 12.66 1.09 1.94 2.1 3.72 3.23 5.44 2.3 3.49 5.05 6.7 8.01 9.58l4.64 4.15 2.36-4.04-3.02-2.69c-.61-.44-4-4.09-4.78-5.13-.25-.34-.35-.43-.69-.85-.38-.47-.86-1.13-1.2-1.6-8.06-11.09-11.66-23.65-10.58-37.89.36-4.78 1.56-9.65 3.15-14.07 1.73-4.81 2.35-3.24.27-6.48-.46-.72-.91-1.56-1.24-2.35-4.57 9.3-7.1 16.94-7.06 27.65z" class="fil2"></path><path d="M55.87 149.19c-.25.52-1.67 2.34-1.93 2.54-.93.72-2.32.5-3.25-.15-2.46-1.71-1.4-3.76.43-5.75zm-.17-12.7c.91 1.06 5.42 4.8 6.06 5.58-.81 1.2-2.99 3.55-4.07 4.58-.5-.16-1.89-1.27-2.47-1.68-2.27-1.63-3.8-3.3-5.42-2.26-.36.23-1.44 1.87-1.86 2.46-1.27 1.74-2.41 3.53-1.16 6.3.88 1.93 2.52 2.87 4.4 3.53l.38.21c-.08.16-2.07 2.8-2.15 2.87l-5.09-2.49c-3.07-1.53-2.99-.72-4.34 1.88-1.15 2.22-1.08 4.38.54 5.83 1.09.97 4.45 2.21 5.01 2.8-.27.85-1.85 4.01-2.47 4.5-1.79 1.41-3.92-.94-4.64-1.67l-2.34 1.64c.63 1.39 3.77 3.71 6.54 3.36 2.8-.36 3.85-2.94 4.92-5.15 1.97-4.08 2.45-3.92-1.21-5.69-1.84-.89-4.59-1.68-4.17-3.18.19-.67.45-1.32.88-1.67l5.09 2.48c.74.36 1.79 1.13 2.67.71.32-.15 2.59-3.7 3.13-4.41.56-.75 1-1.43 1.57-2.2l6.6-8.62c3.03-3.61 4.76-3.62 1.62-6.38l-6.03-5.44c-.47.22-1.8 1.76-1.99 2.12zM141.63 108.38c-.14-1.41.12-3.42.81-4.28.78-.97 2.22-1.41 3.88-1.25 3.65.37 3.86-.19 3.65 1.25l-.39 4.76-7.96-.48zm-2.99-.22-2.49-.15c-1.08 0-.78-.05-.91-1.47-.15-1.44-.16-6.55-1.61-6.94-.84-.23-6.29-.26-7.25 3.1-.55 1.94.25 5.07.21 5.87-.03.54-.01.2-.13.37-.66.42-4.65.63-5.42.2-.66-.36-.94-.94-1.05-2.02-.17-1.63.7-2.45.02-2.82-.44-.24-1.88-.78-2.3-.88-.89 1.06-1.03 4.93.4 6.96 1.45 2.06 3.6 2.14 6.85 1.78 4.46-.5 5.07.08 4.55-3.78-.43-3.21-1.34-5.98 1.94-5.79.59.03.13-.02.35.13.27.43.63 5.27.72 6.25.29 3.16 1.74 1.96 4.61 2.11 4.3.22 8.74.54 13.06.9 2.68.22 2.35-1.26 2.49-4.33.36-7.73 2.07-7.23-5.5-7.69-2.36-.14-4.17.31-4.99 1.92v-2.29l-2.94-.17-.6 8.73zM223.45 154.23c.31-.31 1.39-.98 1.92-1.27.7-.4 1.37-.99 2.5-.84 1.72.24 2.41 2.21 3.15 3.35-.33.49-4.08 2.91-4.82 3.11-.81-.54-2.39-3.13-2.75-4.35m-.19 5.71c-2.8.62-4.61-.16-5.53-1.96-.43.1-2.26 1.21-2.52 1.54.46 1.2 2.22 2.72 3.68 3.26 2.6.96 3.84.16 6.06-.29l2.56 5.07c.65 1.04 1.51.85 2.57.32l7.77-3.83c.86-.44 1.68-.86 2.59-1.3.81-.39 1.95-.88 2.6-1.3l-1.24-2.6-12.23 6c-.1-.11-1.76-3.42-1.86-3.68 1.16-.57 2.38-1.42 3.51-2.2.8-.55 2.96-1.63 3.16-2.7s-1.08-2.72-1.84-3.94c-.81-1.29-1.42-2.17-3.07-2.8-3.02-1.16-5.67.79-8.41 2.63-1.53 1.03-.87 2.24 0 4.1.59 1.27 2.14 3.48 2.18 3.68zM219.08 148.2c-.44-.43-1.78-1.96-2.04-2.56-1-2.31 2.57-5.06 4.48-3.49.53.44.68.74 1.06 1.18.39.45.79.73.94 1.25-.37.4-.68.63-1.1.95-.38.29-.71.6-1.08.88-.71.53-1.54 1.47-2.24 1.79zm-4.75-5.75-3.23-3.32c.24-.48 4.37-4.47 4.78-4.88.36-.36 4.57-4.39 4.76-4.9l-1.96-1.96c-.53.27-2.09 2.02-2.63 2.56l-7.97 7.95c-1.42 1.43-.07 2.38.78 3.22l8.59 9.84c1.46 1.78 2.35.62 4.77-1.44l4.32-3.63c.44-.51.6-1.4.2-2.12l-2.37-2.94c-2.09-2.37-4.73-2.84-7.45-1.08-2.27 1.47-1.74 1.97-2.58 2.7zM226.58 253.53c.77.29 1.56.74 2.34 1.14.85.43 1.58.77 2.42 1.21.63.33 4.29 2 4.79 2.53l-11-2.27c-.43.8-1.43 2.58-1.61 3.36 1.01.3 10.52 5.28 12.37 6.21.8.4 3.63 1.93 4.33 2.08.24-.62.97-1.72 1.07-2.34-3.34-1.48-7.01-3.62-10.4-5.21-.55-.26-1.03-.62-1.4-.81.82.07 2.29.48 3.22.68 1.78.39 9.49 2.04 10.24 2.03l1.34-2.5c-.43-.55-3.29-1.77-4.08-2.16-2.29-1.14-10.97-5.7-12.48-6.3-.37.36-1.08 1.82-1.16 2.36zM26.14 245.91l.81 2.43c1.27-.17 11.74-4.34 12.52-4.31-.64.62-1.98 1.38-2.73 1.91l-5.67 3.96c-.69.49-2.41 1.53-2.81 2.05l.9 2.67c.85-.07 17.26-6 17.63-6.3l-.81-2.24c-1.03 0-8.32 3.05-10.27 3.53.35-.54 1.64-1.27 2.2-1.64l6.91-4.81c.01-.77-.88-2.46-1.05-3.42-1.01.1-3.41 1.13-4.49 1.5l-8.75 3.11c-1.29.45-3.31 1.07-4.4 1.57zM231.12 242.03l.63.31c.21.07.42.13.63.21l3.91 1.4c1.67.61 3.6 1.11 5.08 1.92l-11.28-.92-1.25 3.44c1.46.64 16.96 6.16 17.64 6.23l.83-2.42c-1.58-.55-11.96-4.1-12.46-4.56l13.68 1.12c.28-.82.83-2.04.98-2.84L232 239.68l-.89 2.36zM44.3 281.26c.13.31 1.27 1.75 1.65 2.01.92-.67 1.72-1.34 2.59-2.07.74-.62 7.1-5.94 7.68-6.2-.23.44-.64.93-.94 1.35l-7.02 9.78c.2.41 1.6 2.07 1.89 2.31.57-.36 1.1-.88 1.73-1.38.64-.51 1.24-1.01 1.86-1.51l7.2-5.9c.6-.48 1.18-.92 1.8-1.43l1.8-1.58c-.25-.5-.03-.12-.39-.48l-1.17-1.44-4.28 3.4c-.38.35-.58.54-.97.83s-.69.58-1.09.87c-.83.61-1.3 1.19-2.19 1.73.62-1.18 6.55-8.94 6.52-9.23-.27-.48-1.93-2.51-2.34-2.77l-8.93 7.25c-.7.62-1.11.89-1.81 1.52l-3.62 2.93zM202.94 131.53c-1.44-1.92 1.3-5.41 3.56-4.4.5.23 2.28 1.57 2.53 1.95l-2.64 3.5c-.3.37-.48.8-.99 1.03zm-3.24-2.45-1.71-1.26c-.62-.53-1.12-1.12-1.09-1.94.04-1.34 1.8-2.78 2.82-3.17-.09-.75-.86-1.98-1.11-2.77-.89.27-2.07 1.25-2.65 1.81a7 7 0 0 0-1.76 2.71c-1.59 4.48 3.95 6.98 7.42 9.93.6.51 3.25 2.73 3.91 2.83 1.37.19 2.39-1.93 3.49-3.25.69-.83 1.26-1.68 1.96-2.51.82-.96 1.58-1.79 1.46-2.9-.11-1.06-1.39-1.7-2.14-2.3-1.56-1.26-3.45-3.06-6.46-1.93-2.47.92-3.38 2.52-4.15 4.75zM120.59 316.23c-.03-.63.45-3.16.59-4.01.12-.68-.02-1.6.64-1.56.62.03 1.46.13 1.85.54.7.73.29 2.79.02 3.83-.42 1.64-1.54 1.82-3.1 1.2m-4.4 9.83 2.78.37c.52-1 .8-5.9 1.2-7.37.54-.19 1.72.1 2.14.47.59.52.51 1.42.41 2.37-.17 1.52-.75 3.42-.5 4.98l2.91.49c-.3-3.36 1.48-6.85-.05-8.65-.42-.49-.44-.2-.68-.79 1.23-.46 1.97-1.34 2.26-3.02.55-3.12 1.02-5.92-3.11-6.67-.44-.08-4.47-.67-4.53-.64-.28.15-1.98 12.04-2.17 13.73-.15 1.34-.7 3.5-.67 4.72zM178.92 116.92c-.47-.1-1.37-.56-1.76-.79-.58-.33-1.33-.47-1.87-.77.1-.64 1.95-5.18 2.15-6.49-.4-.2-2.27-.93-2.71-.95-.4.58-1.06 3.07-1.36 3.94-.68 1.97-1.6 4.7-3.09 6.12-.72.69-1.34 1.25-2.6 1.42-1.07.15-1.47-.17-2.42-.28l-.95 2.74c6.8 2.14 8.64-3.01 9.67-3.76 3.93.96 5.72 4.25 7.31.71.63-1.39 5.72-12.49 5.83-13.21-.69-.25-2.06-1.02-2.67-1.07zM110.35 308.18c.63-.23 1.45.12 1.73.49.44.59.22 1.31.03 2.04l-2.03 7.45c-.28 1.06-.61 2.91-1.47 3.29-.7.3-1.68-.18-1.92-.53-.58-.87.67-4.47 1.05-5.8.36-1.26.69-2.49 1.01-3.72.4-1.52.55-2.83 1.6-3.21zm-.98-2.65c-2.1.63-2.6 2.16-3.23 4.37-.57 2-1.07 4.07-1.65 6.04-.55 1.86-1.48 4.35-.4 6.19.78 1.33 3.13 2.57 5.38 1.99 2.02-.51 2.6-2.18 3.2-4.33.56-1.99 1.14-4.05 1.64-6.04.48-1.91 1.53-4.36.43-6.19-.77-1.28-3.09-2.71-5.37-2.03M169.01 104.51l-2.84-.7-2.12 7.93-6.71-1.47c.02-.95 1.77-10.25 2.26-12.59.13-.6.18-.65-.01-.85l-2.73-.5-2.72 14.75c-.28 2.02 1.95 1.99 3.63 2.27l4.62 1.08c4.4 1.11 3.71 1.4 5.42-5.2l1.19-4.72zM154.1 307.97l-.11 7.5c-.01 2.41.13 5.3-.02 7.64-.56-.61-3.6-12.42-4.36-14.4l-2.91.3 5.41 18.01 4.33-.66.25-18.75-2.6.36zM99.14 304.31c.75.09 1.95.66 2.16 1.32s-.47 2.02-.71 2.63c-.93 2.34-1.05 3.25-3.83 1.85l2.37-5.8zm-8.62 13.67 2.61 1.13 2.62-6.45c2.46.31 5.23 3.71 8.12-4.76.82-2.4.28-3.95-1.33-5.04-.66-.44-4.16-1.87-5.06-2.15-.11.12-6.86 16.57-6.96 17.27M182.14 313.22c-.54.13-2.15.89-2.53 1.16 2.25 6.65 8.39 3.58 8.96.47.27-1.46-.57-3.37-1.21-4.24-1.91-2.57-4.43-2.25-7.16-3.87-.75-.45-2.46-2.24-1.51-3.45.37-.47 1.28-.9 1.92-.44.57.4.79 1.07 1.09 1.7l2.47-1.06c-.41-2.25-3.06-4.87-6.63-2.74-2.88 1.72-2.42 5.03-.38 7.37 1.74 2 5.03 2.16 7.3 3.74.73.51 2.01 2.59.53 3.47-1.77 1.05-2.39-.94-2.85-2.09zM83.48 308.35c-.26-.36-1.84-1.25-2.38-1.37-1.79 2.32-1.92 5.3.74 6.95 3.34 2.06 5.41.18 6.62-2.3 1.61-3.29-.61-5.76-.93-8.58-.47-4.05 3.1-4.27 3.32-2.34.09.74-.43 1.41-.67 1.92.22.25.11.17.47.38l1.92.98c3.5-5.97-3.05-8.49-5.59-6.68-.79.56-1.87 2-2.23 3.22-1.09 3.75 1.42 5.84 1.27 8.8-.07 1.34-1.01 3.07-2.48 2.47-1.87-.77-.62-2.33-.08-3.45zM232.79 236.69l18.09 4.17c.24-.36 1.78-7 1.84-7.78l-2.54-.59-1.22 4.82c-.49.14-4.72-.88-5.27-1.17.15-1.09.83-2.82.83-3.9l-2.5-.53-.92 3.82c-.51.09-4.57-.82-5.06-1.18l1.1-4.86-2.56-.56c-.32.86-1.74 6.89-1.79 7.76M37.16 270.65c.29.59 3.87 6.27 4.33 6.61.71-.34 1.36-.91 2.11-1.28-.13-.66.02-.1-.6-1.1l-2.02-3.27c.31-.29 4.19-2.74 4.6-2.9.47.59 1.7 2.92 2.21 3.3l2.11-1.34c-.19-.75-1.58-2.43-2.02-3.37.32-.42 3.97-2.71 4.41-2.8l2.66 4.15c.47-.19 1.71-1.02 2.17-1.34-.17-.56-3.94-6.39-4.3-6.71l-13.75 8.72c-.64.43-1.52.8-1.89 1.32zM62.94 301.01c.7.3 5.18 4.04 6.19 4.71.62-.54 1.12-1.37 1.62-1.98-.69-.85-3.57-2.74-3.87-3.21.29-.48 2.99-3.99 3.36-4.22.49.24 2.38 1.9 3.07 2.35.34-.31 1.5-1.68 1.62-2.03-.39-.56-2.71-1.98-3.04-2.51.73-1.31 2.22-2.74 3.06-4.04.4.13 1.63 1.15 2.04 1.48s.61.47 1.01.8c.36.29.62.65 1.04.77.27-.29 1.41-1.72 1.55-2.07l-6.16-4.85c-.54.37-2.37 2.89-2.92 3.61-.92 1.21-1.94 2.49-2.89 3.68-.54.68-5.54 6.85-5.69 7.54zM184.59 297.6l8.28 14.06c.38.61.76 1.55 1.25 1.93l6.75-4.02-1.34-2.24c-.99.45-3.6 2.3-4.33 2.42-.33-.33-2.61-4.19-2.69-4.61.44-.39 1.08-.71 1.65-1.04.41-.24 1.36-.69 1.65-1.06-.15-.48-1.03-1.83-1.3-2.2-.99.38-2.6 1.74-3.53 1.93-.45-.94-2.41-3.78-2.54-4.52.59-.22 3.66-2 4.21-2.47-.07-.55.1-.04-.23-.58l-.96-1.65c-.55.13-6.31 3.56-6.88 4.05zM217.71 268.44c.45.38 1.33.88 1.9 1.26l11.59 7.68c.59.38 1.55 1.17 2.17 1.27.26-.66 3.81-5.96 4.27-6.41-.3-.53-1.68-1.4-2.26-1.58-.37.62-2.39 3.83-2.78 4.13l-4.49-2.96c.23-.74 1.84-2.59 2.15-3.44-.54-.33-1.73-1.23-2.27-1.35l-1.85 2.87c-.22.3-.09.16-.37.36-.58-.31-3.8-2.39-4.18-2.82.12-.66 2.35-3.38 2.63-4.19l-2.06-1.47-4.46 6.66zM158.99 307.06l4.68 18.02 7.69-1.95-.59-2.53-4.86 1.21-1.44-5.22 3.8-1.07c.01-.6-.37-1.99-.58-2.53l-2.99.73c-.64.18-.9.29-1.11-.42l-1.1-4.44 4.84-1.22-.59-2.54zM23.03 233.39l1.72 7.77 2.53-.54c.01-.63-.86-4.22-1.07-4.84.49-.43 1.84-.55 2.59-.71.76-.16 2.08-.6 2.76-.57.28.8.64 3.33 1 3.83l2.42-.56c.13-.79-.81-2.87-.74-3.96l4.87-1.11c.42.55 1.04 3.97 1.23 4.9l2.53-.56c.05-1.34-1.4-6.02-1.66-7.76l-18.19 4.1z" class="fil3"></path><path d="M157.64 158.58c-.2-.82-1.75-2.52-2.25-2.95-3.19-2.67-6.02-3.92-10.35-5.15-5.92-1.68-11.96-2.22-18.43-2.42.52.49 7.09 2.55 7.65 2.73z" class="fil2"></path><path d="m206.89 281.12 12.66 11.95c.39.35.46.58.99.76.35-.74 1.39-1.36 1.79-2.1-.73-.82-5.18-4.79-5.46-5.31.63-.81 1.45-1.63 2.47-2.61-.17-.47-1.44-1.58-1.8-1.85-.79.26-1.87 1.96-2.65 2.59-.45-.17-3.95-3.64-4.05-3.85.64-.84 3-3.01 3.18-3.49-.29-.41-1.51-1.53-1.91-1.7-.56.55-4.97 5.05-5.2 5.61zM157.1 275.33c.12 1.3-.56 1.77-1.62 2.07-3.01.86-3.42-1.94-.91-2.71 1.11-.34 1.9.17 2.53.64m-3.4-5.32c1.02-.19 2.12.13 1.99 1.18-.07.55-1.12 1.37-1.8 1.45-2.66.32-2.78-2.16-.19-2.64zm-1.63 4.13c-.27.64-.94.71-1.36 1.85-.88 2.37 1.47 4.64 5.44 3.48 4.74-1.38 4.72-5.76.49-6.41.21-.54.92-.88 1.24-1.64.91-2.17-1.08-4.48-4.99-3.46-1.61.42-3.17 1.36-3.54 2.75-.26.95.07 1.81.57 2.37.8.9 1.07.58 2.15 1.05zM129.69 309.19l-.14 2.49 3.08.14-.57 15.92c.6.16 2.38.24 2.91.09l.58-15.85 3.08-.01.06-2.62zM193.14 292.43l1.51 2.06c.68-.21 1.65-1.42 2.5-1.75 2.71 3.44 5.62 7.59 8.37 11.16.37.48.79 1.25 1.28 1.55.57-.37 1.72-1.24 2.21-1.71-.1-.25-.94-1.38-1.14-1.63-.84-1.08-8.23-10.74-8.32-11.21.56-.53 2.03-1.41 2.32-1.8l-1.5-2.07c-.18.06-6.68 4.75-7.23 5.4M64.29 280.18c.27.41.62.67 1 1.02.23.21.34.34.56.55.36.34.33.2.52.63-.29.63-.86.91-1.39 1.44l-6.85 7.12c-.93.99-1.9 1.92-2.79 2.89.14.24 1.69 1.75 2.05 2 .5-.32 4.75-4.86 5.55-5.66.91-.92 1.79-2.02 2.73-2.85l2.89-2.83 2.2 2.07c.48-.49 1.45-1.44 1.79-1.91l-6.5-6.25c-.4.28-1.47 1.45-1.77 1.79zM45.37 251.7l1.25 2.59c-.92.7-12.33 6.06-14.3 7.18.13.39 1.05 2.32 1.35 2.57l14.22-7.03c.47.51.9 1.89 1.41 2.61.47-.05 1.99-.86 2.35-1.08l-4.02-8.04c-.44.11-1.95.81-2.26 1.21zM132.27 274.34c-.68.47-1.85.94-3.02.55-.82-.27-1.76-1.31-1.05-2.42 1.1-1.7 4.3-1.07 4.07 1.86zm-.14 1.72c-.25 1.5-.79 2.41-1.96 2.87-1.65.66-2.69-.31-3.53-.91l-.17.13c-.36.36-.97 1.16-1.09 1.57 2.62 2.43 6.48 1.99 8.1-.55 1.62-2.53 1.73-7.17-.58-8.79-2.64-1.84-6.94-1.14-7.41 2.35-.39 2.88 1.96 4.58 4.46 4.28.97-.11 1.47-.62 2.17-.96zM138.01 270.19l.3 6.54c.34.2 1.24.38 1.72.43.77-.6 1.2-1.12 2.68-1.08 2.71.06 2.56 3.5-.56 3.45-1.5-.02-1.93-.55-2.78-1.03l-1.19 1.76c2.1 2.15 7.5 2.13 8.7-1.25.92-2.61-.99-5.46-3.99-5.09-1.35.16-1.38.68-2.31 1l-.14-2.7 5.46-.39-.11-2.11-7.78.49zM141.26 309.32l.87 18.53 2.85-.13c.16-.92-.68-18.51-1.04-18.62l-2.67.22zM213.86 273.49c.7.35 1.17.88 1.85 1.36 2.39 1.71 6.16 5.06 8.93 7.12 1.27.95 2.44 1.99 3.65 2.94.49-.27.66-.64.96-1.02.29-.37.66-.71.9-1.1-.34-.62-1.22-1.1-1.72-1.53l-3.66-2.9c-.65-.51-1.22-.95-1.85-1.5l-5.46-4.33c-.43-.35-1.47-1.31-1.89-1.45-.36.4-1.6 1.96-1.71 2.41M202.22 285.31l12.39 13.84 2.12-1.83-11.62-13.12c-.44-.41-.36-.6-.83-.8zM229.31 171.38l1.05 2.55c.79-.1 6.48-2.62 7.7-3.11 2.53-1.03 5.25-2.13 7.66-3.2-.08-.6-.81-1.95-1.03-2.7-.93.21-2.95 1.2-3.94 1.61-1.88.78-10.94 4.43-11.43 4.86zM182.86 122.14l2.57 1.26 7.72-14.68-2.51-1.37c-.49.49-3.29 6.1-3.92 7.24-.54.98-3.74 6.94-3.86 7.55M103.23 100.04l4.67 15.78c.67-.02 2.08-.52 2.77-.76l-4.65-15.88c-.57.02-2.39.55-2.79.86M117.01 270.21l.82 1.84c.8-.16 1.58-.94 2.38-1.22l-2.18 8.02 2.2.65c.42-.61 2.9-9.64 3.32-11.05-2.72-1.54-3.26.54-6.53 1.76z" class="fil3"></path><path d="M140.6 155.02c-.23-.73-3.18-2.12-3.74-2.36-1.35-.57-3.04-1.27-4.63-1.61.2.54 2.56 2.93 2.99 3.38.84.87.74.56 2.32.51 1.04-.03 2.03.04 3.06.07z" class="fil2"></path><path d="M44.77 142.12c-1.88.38-1.57 3.52.59 3.14 2.11-.38 1.4-3.54-.59-3.14M226.61 137.83c-2.03.85-.69 3.69 1.2 2.91 1.87-.77.78-3.74-1.2-2.91M162.36 117.02c-1.9.78-.72 3.81 1.34 2.88 1.68-.76.67-3.71-1.34-2.88M66.73 144.66c-2.03.8-.94 3.61 1 2.99 1.96-.62.98-3.77-1-2.99M209.35 120.12c-2.36.54-1.27 3.71.75 3.05.71-.23 1.31-1.07 1.06-1.93-.2-.67-.98-1.31-1.8-1.12zM122.74 114.38c-2.1.83-.84 3.62.99 2.98 2.05-.71.93-3.74-.99-2.98M158.33 116.37c-1.3 1.17.03 3.33 1.67 2.64 2.31-.97.13-4.26-1.67-2.64M64.12 147.48c-2.08 1.02-.47 3.64 1.27 2.86 1.79-.8.71-3.84-1.27-2.86M211.98 122.49c-2.12.94-.65 3.62 1.07 2.94 2.02-.8.81-3.78-1.07-2.94M49.04 171.07c-2.66 1 .16 4.59 1.85 2.32.27-.37.34-.87.18-1.39-.22-.69-1.11-1.27-2.02-.93zM145.81 95.27c-2.14.84-.73 3.68 1.17 2.91.61-.25 1.2-1.18.82-2.11-.25-.6-1.09-1.16-1.99-.8M50.74 167.73c-.52.18-.6.17-.91.69-.77 1.27.53 2.76 1.88 2.31 1.78-.6 1.06-3.69-.98-2.99z" class="fil3"></path><path d="M126.52 113.96c-2.04.6-1.27 3.56.88 3.02 1.79-.45 1.16-3.61-.88-3.02" class="fil3"></path><path d="m130.68 155.35 1.22-.07c.06-.68-1.78-2.68-2.31-3.13.1.49.74 1.64 1.1 3.2z" class="fil2"></path><path d="M212.66 210.5c-.01 17.9-6.16 34.7-16.96 47.54-1.87 2.22-10.84 10.98-13.12 12.49l-2.31-4.05 2.85-2.31c.82-.87 1.53-1.27 2.71-2.45 1.32-1.32 5.25-5.19 6.28-6.69l1.74-2.17c.23-.33.33-.49.59-.81l2.12-3.04c.37-.6.65-1.08 1.02-1.65 6.75-10.4 10.44-24.3 10.43-36.72-.01-14.14-3.86-25.83-10.73-37.27l-4.74-6.57c-.16.2-.25.78-.33 1.06-.09.39-.2.74-.29 1.11-.2.78-.39 1.44-.61 2.18-.42 1.41-.93 2.79-1.45 4.13-.54 1.39-1.09 2.61-1.71 3.88-.34.68-1.45 3.04-2.03 3.63-.14-.12-.11-.06-.25-.24l-.51-.9c-.22-.36-.46-.72-.7-1.11l-3.13-4.4c-.28-.31-.51-.63-.81-1.01-1.31-1.61-1.03-.17.8-5.26 2.27-6.34 2.61-11.35 2.5-18.05.74.28 2.37 1.95 3.04 2.45.34.25.36.32.66.59 3.61 3.28 6.36 5.98 9.23 9.91l1.76 2.28c1.75 2.2 3.83 5.91 5.24 8.45 5.19 9.36 8.72 22.19 8.71 34.99z" class="fil4"></path><path d="M205.42 210.22c-.09 14.1-3.49 24.72-9.78 35.47-1.68 2.86-3.73 5.51-5.75 8.07-3 3.78-7.16 7.35-10.86 10.47l-2.37-4.03c.56-.64 1.77-1.53 2.5-2.1l2.37-2.23c1.5-1.34 4.31-4.43 5.45-5.99 2.6-3.56 4.18-5.37 6.43-9.76 7.92-15.46 9.74-32.22 4.13-49.4-1.2-3.68-2.6-6.78-4.37-10.01-.59-1.08-.58-.86-.07-2.04l1.68-4.21c.78.5 3.57 5.98 4.24 7.39 1.25 2.64 2.31 5.37 3.25 8.34 1.9 5.98 3.19 13.25 3.14 20.04z" class="fil4"></path><path d="M198.16 210.36c-.02 5.37-.64 10.73-1.99 15.63-1.21 4.4-2.87 9.01-4.93 12.66-1.09 1.94-2.1 3.72-3.23 5.44-2.3 3.49-5.05 6.7-8.01 9.58l-4.64 4.15-2.36-4.04 3.02-2.69c.61-.44 4-4.09 4.78-5.13.25-.34.35-.43.69-.85.38-.47.86-1.13 1.2-1.6 8.06-11.09 11.66-23.65 10.58-37.89-.36-4.78-1.56-9.65-3.15-14.07-1.73-4.81-2.35-3.24-.27-6.48.46-.72.91-1.56 1.24-2.35 4.57 9.3 7.1 16.94 7.06 27.65z" class="fil4"></path></g></g><!-- source: https://football-logos.cc --></svg>