<svg xmlns="http://www.w3.org/2000/svg" id="Calque_1" data-name="Calque 1" viewBox="0 0 1113.01 1341"><!-- Source: https://football-logos.cc --><defs data-source="https://football-logos.cc"><style>.cls-3{fill:#fff}</style></defs><path d="M995.09 362.51h74.58c-170.09 302.41-341.22 612.65-513.93 911.42C385.34 973.86 211.03 663.1 42.83 362.51h75.07l304.29 500.07 11.25-6.85L125.3 349.34H42.78l201.4-315.82 621.88-.18 204.63 316h-83L679.54 855.73l11.25 6.85z" style="fill:#d9bf9a"></path><path d="M1110.71 349.86 886.22 3.19 884.15 0h-3.81L229.69.18h-3.83l-2.07 3.24L2.25 350.8 0 354.33l2.05 3.65 7.69 13.75c164.74 294.4 341.39 609.46 516.97 918.67l22.7 39.97 6.03 10.63 6.12-10.58 23-39.8c121.88-210.83 244.62-430.32 363.31-642.59 50.91-91.04 103.56-185.18 155.25-277.06l7.81-13.87 2.08-3.69zm-25.14 11.22c-51.66 91.8-104.34 186.01-155.28 277.11-118.67 212.21-241.37 431.64-363.17 642.33l-11.5 19.91-11.35-19.99C368.71 971.27 192.08 656.25 27.36 361.88l-3.84-6.87L236.94 20.35l636.26-.18 216.27 333.97z" style="fill:#d6c198"></path><path d="M995.09 362.51h74.58c-170.09 302.41-341.22 612.65-513.93 911.42C385.34 973.86 211.03 663.1 42.83 362.51h75.07l304.29 500.07 11.25-6.85L125.3 349.34H42.78l201.4-315.82 621.88-.18 204.63 316h-83L679.54 855.73l11.25 6.85z" class="cls-3"></path><path d="M995.09 362.51h74.58c-170.09 302.41-341.22 612.65-513.93 911.42C385.34 973.86 211.03 663.1 42.83 362.51h75.07l304.29 500.07 11.25-6.85L125.3 349.34H42.78l201.4-315.82 621.88-.18 204.63 316h-83L679.54 855.73l11.25 6.85z" style="fill:#e60f2e"></path><path d="M745.86 96.89c-61.14 0-113.96 35.99-138.24 87.87 15.95 2.29 31.37 6.53 46.08 12.7 18.08-32.11 52.64-53.82 92.16-53.82 58.31 0 105.63 47.11 105.63 105.16s-47.32 105.16-105.63 105.16c-44.48 0-82.59-27.53-98.18-66.34-15.6-12-34.03-19.59-53.52-22.23 8.33 75.87 73.19 135.16 151.53 135.16 84 0 152.41-68.11 152.41-151.74.18-83.81-68.23-151.92-152.24-151.92" class="cls-3" data-source="https://football-logos.cc"></path><path d="M578.92 246.87c4.43 0 8.68.18 12.94.71.53 0 .89.18 1.42.18 1.6.18 3.37.35 4.96.53 4.25.71 8.51 1.41 12.58 2.47 2.13.53 4.08 1.06 6.2 1.76 4.08 1.24 8.15 2.65 12.05 4.23 3.9 1.59 7.8 3.35 11.52 5.47.18.18.35.18.71.35 1.42.71 2.66 1.41 4.08 2.29 2.66 1.59 5.32 3.18 7.8 4.94 1.24.88 2.48 1.76 3.72 2.65 3.37 2.47 6.73 5.29 9.92 8.12 1.6 1.41 3.19 3 4.79 4.41 4.43 4.41 10.1 6.7 15.95 6.88h3.01c.18 0 .53 0 .71-.18.53 0 1.24-.18 1.77-.35 2.48-.53 4.96-1.41 7.27-2.82 1.6-.88 3.01-2.12 4.43-3.53 1.06-1.06 2.13-2.29 3.01-3.71.89-1.24 1.6-2.65 2.13-4.06.18-.53.35-1.06.53-1.59.35-1.06.53-2.12.89-3.35.18-.53.18-1.24.18-1.76a9.4 9.4 0 0 0 0-3.18c0-1.76-.35-3.35-.71-4.94-.35-1.06-.71-2.12-1.06-3.18-1.06-2.65-2.84-5.12-4.96-7.23-1.06-1.06-2.13-2.12-3.19-3.18-1.6-1.59-3.19-3-4.96-4.41-3.37-3-6.73-5.65-10.1-8.29-1.77-1.24-3.54-2.65-5.32-3.88-1.24-.88-2.3-1.59-3.54-2.47q-4.785-3.18-9.57-5.82c-1.77-1.06-3.54-1.94-5.32-3-3.19-1.76-6.56-3.35-9.92-4.76-1.95-.88-3.9-1.76-5.85-2.47-.18 0-.35-.18-.53-.18-3.72-1.59-7.62-3-11.52-4.23-5.49-1.76-10.99-3.35-16.66-4.59-4.25-.88-8.51-1.76-12.94-2.29-1.42-.18-2.84-.35-4.43-.53-1.42-.18-2.84-.35-4.25-.53-4.43-.35-8.86-.71-13.29-.88h-4.43c-4.96 0-9.75.18-14.71.53 3.72 13.94 7.09 29.29 10.1 46.23 1.42-.35 3.01-.35 4.61-.35ZM707.58 473.07c-.89-1.24-1.77-2.47-3.01-3.71-1.77-1.76-3.54-3.18-5.67-4.23-.35-.18-.89-.35-1.24-.71-.89-.35-1.77-.71-2.66-1.06s-1.77-.53-2.66-.71-1.77-.35-2.84-.35h-1.42c-6.03 0-12.05 2.29-16.48 6.88-1.6 1.59-3.19 3-4.79 4.41-3.19 2.82-6.56 5.65-9.92 8.12-1.77 1.24-3.54 2.47-5.32 3.71-3.54 2.29-7.27 4.59-10.99 6.53s-7.62 3.88-11.52 5.47-7.98 3-12.05 4.23c-1.95.53-4.08 1.24-6.2 1.76-4.08 1.06-8.33 1.94-12.58 2.47-2.13.35-4.25.53-6.38.71-4.25.35-8.68.71-12.94.71s-9.04-.18-13.29-.71c-2.13-.18-4.43-.53-6.56-.88-10.81-1.59-21.27-4.59-31.01-8.82-3.01-1.24-5.85-2.65-8.68-4.06-2.84-1.41-5.67-3-8.33-4.59-1.77-1.06-3.54-2.29-5.32-3.35-2.66-1.76-5.14-3.53-7.62-5.47s-4.96-3.88-7.27-6c-2.3-2.12-4.61-4.23-6.73-6.53-2.13-2.29-4.25-4.59-6.2-7.06-5.32-6.35-10.1-13.41-14.18-20.82-1.24-2.29-2.48-4.59-3.54-7.06-1.6-3.53-3.19-7.23-4.61-10.94-.89-2.47-1.77-5.12-2.48-7.59a130.5 130.5 0 0 1-5.14-36.35c0-7.94.71-15.53 2.13-23.11 1.95-11.29 5.49-21.88 10.28-31.94 1.6-3.35 3.37-6.53 5.14-9.88 1.77-3.18 3.9-6.35 5.85-9.35 2.13-3 4.25-6 6.73-8.82.71-.88 1.42-1.59 1.95-2.47 1.42-1.59 2.84-3.18 4.25-4.59 2.13-2.29 4.43-4.41 6.73-6.53 1.77-1.59 3.37-3 5.32-4.41-2.84-18.88-6.2-35.47-9.92-50.11-2.3 1.41-4.61 2.82-6.73 4.23-3.01 1.94-5.85 4.06-8.68 6.18-2.84 2.12-5.67 4.41-8.33 6.7-2.13 1.94-4.25 3.71-6.38 5.65-4.08 3.88-7.98 7.94-11.7 12.35-.89 1.06-1.77 2.12-2.84 3.18-2.66 3.35-5.32 6.7-7.8 10.06-.89 1.24-1.6 2.29-2.48 3.53-2.48 3.53-4.61 7.23-6.73 10.94-1.42 2.47-2.84 4.94-4.08 7.59-.71 1.24-1.24 2.47-1.95 3.88-1.24 2.65-2.48 5.12-3.54 7.76-.53 1.24-1.06 2.65-1.6 4.06-1.06 2.65-2.13 5.47-3.01 8.12-.53 1.41-.89 2.82-1.42 4.06-.89 2.82-1.6 5.65-2.48 8.47-.71 2.82-1.42 5.65-1.95 8.47s-1.06 5.82-1.6 8.65c-.53 3-.89 5.82-1.06 8.82-.35 3-.53 6-.71 9s-.18 6-.18 9.18c0 19.76 3.37 38.82 9.39 56.64.89 2.82 1.95 5.47 3.01 8.12 1.6 4.06 3.37 7.94 5.14 11.82 1.24 2.65 2.48 5.12 3.9 7.59s2.84 4.94 4.25 7.41c1.42 2.47 3.01 4.76 4.61 7.23 4.08 5.82 8.33 11.47 12.94 16.94 2.84 3.18 5.67 6.35 8.68 9.35s6.2 5.82 9.39 8.65c3.19 2.82 6.56 5.47 9.92 7.94 1.06.88 2.3 1.76 3.37 2.47 4.61 3.35 9.39 6.35 14.36 9.18 4.96 2.82 9.92 5.29 15.06 7.76 12.05 5.47 24.81 9.53 38.1 12.35 1.95.35 3.72.71 5.67 1.06 9.57 1.59 19.49 2.47 29.6 2.47 9.39 0 18.79-.71 27.82-2.12 1.24-.18 2.66-.35 3.9-.71.71-.18 1.6-.35 2.3-.53 3.37-.71 6.56-1.41 9.92-2.12 2.66-.71 5.14-1.41 7.8-2.12 5.49-1.59 10.99-3.53 16.3-5.82 10.63-4.41 20.91-9.88 30.48-16.23 3.54-2.47 7.09-4.94 10.63-7.59 5.67-4.41 11.34-9.35 16.48-14.47 1.06-1.06 2.13-2.29 3.01-3.71.89-1.24 1.6-2.65 2.13-4.06 2.3-5.65 2.3-12 0-17.64-.18-.88-.89-2.29-1.77-3.53Z" class="cls-3"></path><path d="M402.76 270.16c.35-.18.89-.35 1.24-.71.18-.18.53-.35.71-.53s.35-.18.53-.35.35-.18.53-.35c.18-.18.53-.35.71-.53.35-.35.71-.53 1.06-.88.35-.18.53-.53.71-.71s.53-.53.71-.88c.35-.35.53-.71.89-.88.18-.18.35-.53.53-.71.35-.35.53-.71.71-1.06.18-.18.35-.53.53-.71.18-.35.53-.71.71-1.24.18-.35.35-.53.53-.88s.35-.71.53-1.06.35-.71.35-1.06c.18-.35.18-.71.35-.88.18-.53.35-.88.35-1.41 0-.18 0-.35.18-.35 1.77-7.76 6.56-20.29 12.94-34.76 1.6-3.53 3.37-7.23 5.14-11.12.53-1.24 1.24-2.47 1.77-3.88 1.77-3.88 3.72-7.76 5.67-11.65 1.24-2.65 2.66-5.29 4.08-7.76 1.42-2.65 2.66-5.29 4.08-7.76 1.42-2.65 2.84-5.12 4.25-7.59.71-1.24 1.42-2.47 2.13-3.71 1.42-2.47 2.84-4.94 4.25-7.41 2.84-4.76 5.49-9.35 8.33-13.76.18-.35.35-.53.71-.88l.18-.18c.18-.18.35-.35.53-.35s.18-.18.35-.18.35-.18.53-.18h1.06c.35 0 .89 0 1.42.18.18 0 .35.18.71.35.18.18.53.35.71.53.35.35.53.53.89 1.06 7.62 12.88 15.77 30.53 23.22 54.87 1.6 5.29 3.37 11.12 4.79 17.12 1.24 4.76 2.48 9.7 3.54 14.82.53 2.47 1.06 4.94 1.6 7.41 1.06 5.12 2.13 10.41 3.01 15.88.53 2.82 1.06 5.47 1.42 8.29 0 .35.18.71.18 1.06.35 2.47.89 5.12 1.24 7.59.53 3 .89 6 1.24 9 .18.71.18 1.59.35 2.29.18.71.18 1.59.35 2.29.35 3.18.89 6.35 1.24 9.53q.795 7.14 1.59 14.82c.89 8.47 1.6 17.29 2.3 26.47.53 6.35.89 13.06 1.24 19.76s.53 13.76.89 21c0 .71 0 1.41.18 1.94l.53 3.18c.18.53.35 1.06.53 1.59.53 1.41 1.06 2.82 1.77 4.06 1.06 1.94 2.48 3.71 4.08 5.12.53.53 1.06 1.06 1.59 1.41 1.77 1.41 3.72 2.47 5.67 3.35 1.6.71 3.19 1.06 4.96 1.41.53.18 1.06.18 1.77.18s1.6.18 2.3.18h.71c.53 0 .89 0 1.42-.18.53 0 .89-.18 1.42-.18 1.24-.18 2.3-.53 3.54-.88.89-.35 1.95-.71 2.84-1.06.71-.35 1.42-.71 1.95-1.06a24.4 24.4 0 0 0 3.72-2.65c.53-.53 1.06-1.06 1.6-1.59.53-.53 1.06-1.06 1.42-1.76.89-1.24 1.77-2.47 2.48-3.88q1.065-2.115 1.59-4.23c.18-.71.35-1.41.53-2.29.18-1.59.35-3.18.35-4.76-.18-8.29-.53-16.23-1.06-24.17-.18-1.94-.18-3.88-.35-5.82-.18-3.88-.53-7.59-.71-11.47-.18-1.94-.18-3.71-.35-5.65-.35-4.94-.71-9.7-1.24-14.47-.53-5.65-1.06-11.29-1.59-16.59-.35-3.53-.89-7.23-1.24-10.59-.71-5.29-1.24-10.41-2.13-15.35-.18-1.59-.53-3.35-.71-4.94 0-.53-.18-1.06-.18-1.59-.35-2.65-.89-5.47-1.24-8.12-.53-3.18-1.06-6.18-1.6-9.18-.89-4.59-1.59-9-2.48-13.41-1.24-5.82-2.3-11.29-3.72-16.76-.71-2.65-1.24-5.29-1.95-7.94-.35-1.24-.71-2.65-.89-3.88-.35-1.24-.71-2.65-1.06-3.88-.71-2.47-1.24-4.94-1.95-7.23-.35-1.24-.71-2.29-1.06-3.53-.53-2.12-1.24-4.06-1.77-6.18-.35-1.41-.89-2.65-1.24-4.06-.71-2.12-1.42-4.41-2.13-6.35-1.77-5.29-3.54-10.23-5.49-14.82-1.77-4.76-3.72-9.18-5.49-13.23-.35-.88-.71-1.59-1.06-2.47-1.06-2.47-2.13-4.76-3.37-7.06-1.06-2.29-2.13-4.41-3.37-6.53-.35-.71-.71-1.41-1.06-2.12-.71-1.41-1.42-2.65-2.13-3.88-.71-1.24-1.42-2.47-2.13-3.71-9.04-15.53-25.34-24.88-43.24-25.06h-3.72c-.53 0-1.06.18-1.77.18-.53 0-1.06 0-1.59.18-.53 0-1.06.18-1.6.18s-1.06.18-1.6.18c-.53.18-1.06.18-1.59.35-.53.18-1.06.18-1.6.35-.53.18-1.06.35-1.6.53-.53.18-1.06.35-1.42.35-.53.18-1.06.35-1.6.53-.53.18-.89.35-1.42.53s-1.06.35-1.6.71c-.53.18-.89.35-1.42.53s-1.06.53-1.6.71c-.53.18-.89.35-1.42.71-.53.35-1.06.53-1.42.88-.35.18-.89.53-1.24.71-.53.35-.89.71-1.42.88-.35.35-.89.53-1.24.88-.53.35-.89.71-1.42 1.06-.35.35-.71.53-1.06.88-.53.35-.89.71-1.42 1.24-.35.35-.71.71-1.06.88-.53.35-.89.88-1.24 1.24-.35.35-.71.71-.89 1.06-.53.53-.89 1.06-1.24 1.41s-.53.71-.89.88c-.53.53-.89 1.06-1.42 1.76-.18.35-.53.53-.71.88-.71.88-1.24 1.76-1.77 2.82-1.42 2.29-2.84 4.59-4.25 7.06-.71 1.24-1.42 2.47-2.3 3.71-1.42 2.47-3.01 5.12-4.43 7.76-1.6 2.65-3.01 5.29-4.61 8.12-3.9 6.88-7.62 14.12-11.34 21.35-1.42 2.82-3.01 5.82-4.43 8.82s-2.84 5.82-4.25 8.82c-4.25-8.65-8.68-17.64-13.11-26.11-1.59-2.82-3.01-5.65-4.61-8.47s-3.01-5.65-4.61-8.29c-4.61-8.12-9.04-15.7-13.29-22.41-.53-.88-1.24-1.76-1.77-2.82-.18-.35-.53-.53-.71-.88-.35-.53-.89-1.24-1.24-1.76-.35-.35-.53-.71-.89-1.06-.35-.53-.89-.88-1.24-1.41l-1.06-1.06c-.35-.35-.89-.88-1.24-1.24l-1.06-1.06c-.35-.35-.89-.71-1.24-1.06s-.89-.71-1.24-.88c-.35-.35-.89-.71-1.24-1.06s-.89-.53-1.24-.88c-.53-.35-.89-.53-1.42-.88s-.89-.53-1.42-.88-.89-.53-1.42-.88c-.53-.18-.89-.53-1.42-.71s-.89-.53-1.42-.71-1.06-.35-1.42-.71c-.35-.35-.89-.35-1.42-.71-.53-.18-1.06-.35-1.42-.53-.53-.18-1.06-.35-1.6-.53-.53-.18-1.06-.35-1.59-.35-.53-.18-1.06-.35-1.6-.35-.53-.18-1.06-.18-1.6-.35-.53-.18-1.06-.18-1.59-.35-.53-.18-1.06-.18-1.6-.18s-1.06-.18-1.6-.18-1.06-.18-1.59-.18-1.06-.18-1.6-.18h-3.72c-3.37 0-6.73.35-9.92 1.06-.89.18-1.59.35-2.3.53-1.6.35-3.19.88-4.61 1.41-.71.35-1.6.53-2.3.88-1.95.88-3.9 1.76-5.85 2.82-1.77 1.06-3.72 2.29-5.32 3.53a49.1 49.1 0 0 0-12.94 14.65c-2.13 3.53-4.25 7.59-6.56 11.82-.71 1.41-1.42 2.82-2.13 4.41s-1.42 3-2.13 4.59-1.42 3.18-2.13 4.94c-.71 1.59-1.42 3.35-2.13 5.12-.71 1.76-1.42 3.53-2.13 5.29-.35.88-.71 1.76-1.06 2.82-.53 1.24-.89 2.29-1.42 3.53-.89 2.47-1.77 4.94-2.66 7.41-.53 1.24-.89 2.65-1.42 3.88-1.42 4.23-2.84 8.65-4.25 13.06-.71 2.29-1.42 4.59-2.13 7.06-.71 2.29-1.42 4.76-1.95 7.23-1.06 3.71-1.95 7.59-2.84 11.47-.71 2.65-1.24 5.29-1.95 8.12-.53 2.65-1.24 5.47-1.77 8.29s-1.24 5.65-1.77 8.65-1.06 6-1.6 9c-.35 1.59-.53 3-.89 4.59-.53 3.18-1.06 6.18-1.59 9.53q-1.065 7.14-2.13 14.82c-.53 3.35-.89 6.88-1.42 10.23-3.19 26.11-5.49 55.58-6.56 88.58-.18 5.65 1.6 10.94 4.96 15 .89 1.24 1.95 2.29 3.01 3.18 2.3 1.94 4.96 3.53 7.8 4.59.53.18 1.06.35 1.59.53 1.77.53 3.37.71 5.32.71h2.48c1.24 0 2.3-.18 3.37-.53.53-.18 1.06-.35 1.6-.35 1.42-.35 2.84-1.06 4.08-1.76 1.95-1.06 3.72-2.29 5.32-3.88l1.59-1.59c.89-1.06 1.77-2.29 2.48-3.53.35-.71.71-1.24 1.06-1.94.35-.71.53-1.41.89-2.12.53-1.41.89-2.82 1.06-4.41.18-.71.18-1.59.18-2.29.18-8.12.53-16.06 1.06-23.82.35-5.82.71-11.47 1.06-16.94s.89-10.94 1.24-16.06c.53-5.29.89-10.41 1.42-15.35s1.06-9.88 1.77-14.65c.35-3.18.89-6.35 1.24-9.35s.89-6 1.24-9c1.06-7.41 2.3-14.47 3.54-21.17.71-4.06 1.59-7.94 2.3-11.82.35-1.24.53-2.47.89-3.71 1.06-4.94 2.13-9.7 3.37-14.29.89-3.53 1.77-6.7 2.66-10.06.89-3.18 1.77-6.35 2.66-9.35.53-1.94 1.24-4.06 1.77-6 .71-1.94 1.24-3.88 1.95-5.65.71-1.76 1.24-3.71 1.95-5.47s1.24-3.53 1.95-5.12c.89-2.47 1.95-4.94 2.84-7.23.71-1.59 1.24-3 1.95-4.59.71-1.41 1.24-3 1.95-4.41s1.24-2.82 1.95-4.06c.89-1.94 1.95-3.88 2.84-5.82 1.59-3 3.19-5.82 4.79-8.47.18-.35.53-.71.89-1.06.53-.35.89-.71 1.42-.88.53-.18.89-.18 1.42-.18h1.06c.18 0 .35.18.53.18s.18 0 .35.18c.18.18.35.18.53.35l.18.18c.18.18.53.53.71.88 1.42 2.12 2.66 4.41 4.08 6.7 2.13 3.35 4.25 7.06 6.2 10.76 2.84 4.94 5.67 10.06 8.33 15.17 1.42 2.65 2.84 5.12 4.08 7.76 1.95 3.88 4.08 7.76 6.03 11.65.71 1.24 1.24 2.65 1.95 3.88 3.72 7.76 7.27 15.35 10.28 22.41.53 1.24 1.06 2.29 1.42 3.53 1.42 3.35 2.84 6.7 4.08 9.7.89 2.12 1.6 4.06 2.3 5.82.71 1.94 1.24 3.71 1.77 5.29.89 2.47 1.42 4.76 1.95 6.7 0 .18 0 .35.18.35.18.53.18.88.35 1.41 0 .18.18.35.18.53s.18.35.18.53c.18.35.35.71.35 1.06.18.35.35.71.53 1.06s.35.53.53.88.35.71.71 1.24c.18.18.35.53.53.71.18.35.53.71.71 1.06l.35.35.35.35c.35.35.53.71.89 1.06l.71.71c.35.35.53.53.89.88.35.18.53.53.89.71l.18.18.53.53c.35.18.71.53 1.06.71s.53.35.89.53c.35.18.71.35 1.06.53s.71.35 1.06.53.71.35 1.06.35c.35.18.89.35 1.24.53s.53.18.89.35c.35.18.71.18 1.06.35q.18 0 .35.18h.71c.53.18 1.06.18 1.59.35.18 0 .53 0 .71.18h.18c.53 0 .89 0 1.42.18h2.3c.35 0 .89 0 1.24-.18.35 0 .71 0 1.06-.18.53 0 .89-.18 1.42-.18h.53c.18 0 .35 0 .35-.18.53-.18.89-.18 1.24-.35.35-.18.71-.18 1.06-.35.35-.18.71-.35 1.06-.35.35-.18.71-.35 1.06-.53-1.24.88-.89.71-.53.53Z" class="cls-3"></path><path d="m873.2 20.17-636.26.18L23.52 355.01l3.84 6.87c164.72 294.37 341.35 609.39 516.91 918.56l11.35 19.99 11.5-19.91c121.8-210.69 244.5-430.12 363.17-642.33 50.94-91.1 103.62-185.31 155.28-277.11l3.9-6.94zM555.74 1273.93C385.34 973.86 211.03 663.1 42.83 362.51h75.07l304.29 500.07 11.25-6.85L125.3 349.34H42.78l201.4-315.82 621.88-.18 204.63 316h-83L679.54 855.73l11.25 6.85 304.3-500.07h74.58c-170.09 302.41-341.22 612.65-513.93 911.42" class="cls-3"></path><path d="M673.02 872.76c.22 3.18.34 6.4.34 9.64 0 69.82-52.66 126.41-117.62 126.41s-117.62-56.6-117.62-126.41c0-3.24.11-6.46.34-9.64-6.69 16.66-10.41 35.03-10.41 54.33 0 75.79 57.17 137.24 127.69 137.24s127.69-61.44 127.69-137.24c0-19.3-3.72-37.67-10.41-54.33" class="cls-3"></path><path d="m555.74 815.97 15.96 49.11a2.84 2.84 0 0 0 2.7 1.96h51.64l-41.78 30.35c-.99.72-1.41 2-1.03 3.17l15.96 49.11-41.78-30.35c-.99-.72-2.34-.72-3.33 0l-41.78 30.35 15.96-49.11c.38-1.17-.04-2.45-1.03-3.17l-41.78-30.35h51.64c1.23 0 2.32-.79 2.7-1.96l15.96-49.11Z" class="cls-3" data-source="https://football-logos.cc"></path><!-- source: https://football-logos.cc --></svg>