<svg xmlns="http://www.w3.org/2000/svg" viewBox="0 0 261.3 361.33"><!-- Source: https://football-logos.cc --><path d="M130.672 359.762c-6.271-2.81-14.499-6.576-22.563-10.812-5.797-3.04-11.709-6.463-18.073-10.463-8.117-5.092-15.905-10.548-23.149-16.219-7.99-6.26-14.78-12.356-20.76-18.635a223 223 0 0 1-17.574-20.928c-4.51-6.08-8.169-11.922-11.189-17.86a263 263 0 0 1-5.832-12.331c-1.869-4.221-3.444-8.066-4.815-11.754-2.28-6.098-3.706-12.205-4.243-18.153q-.213-2.337-.428-4.673-.226-2.443-.449-4.887c-.039-.404-.042-.814-.042-1.2q-.007-90.19 0-180.381c0-.27-.004-.496-.008-.69v-.033c.183-.08.398-.175.653-.296 6.723-3.204 12.839-5.832 18.698-8.033a639 639 0 0 1 18.649-6.69c3.738-1.276 7.561-2.328 11.156-3.297 5.395-1.444 9.816-2.552 13.911-3.486 7.583-1.726 13.738-2.898 19.37-3.689l2.706-.385c3.844-.548 7.818-1.116 11.725-1.547 3.608-.399 7.301-.678 10.873-.948q1.357-.102 2.714-.207c5.456-.418 11.21-.622 17.59-.622 2.694 0 5.468.036 8.481.109 4.188.1 8.604.323 14.317.726 4.357.307 8.85.724 13.352 1.24 6.294.721 12.71 1.697 19.616 2.984 7.432 1.387 14.134 2.864 20.489 4.517 7.39 1.92 14.028 3.9 20.295 6.052 8.094 2.775 14.635 5.255 20.586 7.803a592 592 0 0 1 8.203 3.61q2.396 1.07 4.797 2.128c-.004.16.002.308.006.438q.005.101.006.201v90.863l-.004 23.202c-.003 20.788-.008 42.283.02 63.428.005 4.548-.374 9.027-.944 14.352a69 69 0 0 1-2.726 13.13c-1.51 4.858-3.461 9.935-5.967 15.522-1.649 3.684-3.862 8.526-6.372 13.325-3.62 6.938-7.455 12.978-11.724 18.467-3.689 4.751-6.82 8.703-10.112 12.546a180 180 0 0 1-19.097 19.184c-7.127 6.16-14.881 12.059-23.706 18.034a276 276 0 0 1-18.346 11.417 289 289 0 0 1-23.184 11.776c-2.085.942-4.508 2.04-6.906 3.165" style="fill:#6b2a5c;stroke-width:0" data-source="https://football-logos.cc"></path><path d="M261.283 122.214V31.351c0-.272-.033-.555.005-.822.087-.631-.234-.92-.767-1.154-4.399-1.932-8.77-3.93-13.185-5.82-6.789-2.906-13.708-5.449-20.692-7.844-6.723-2.308-13.54-4.3-20.41-6.086-6.804-1.77-13.68-3.25-20.593-4.54-6.544-1.22-13.114-2.243-19.723-3-4.464-.511-8.939-.93-13.42-1.246-4.79-.338-9.586-.616-14.387-.73-8.749-.212-17.497-.152-26.229.517-4.55.354-9.102.659-13.637 1.16-4.834.533-9.651 1.257-14.475 1.938-6.554.92-13.043 2.243-19.5 3.713-4.676 1.067-9.33 2.259-13.968 3.5-3.778 1.018-7.551 2.063-11.253 3.326a637 637 0 0 0-18.694 6.707c-6.39 2.4-12.651 5.144-18.82 8.084-1.768.844-1.523.338-1.523 2.412q-.009 90.19 0 180.381c0 .446.005.893.049 1.34.288 3.19.587 6.374.876 9.559.577 6.39 2.096 12.564 4.333 18.552 1.486 3.996 3.125 7.943 4.85 11.84 1.852 4.181 3.8 8.324 5.87 12.407 3.233 6.358 7.076 12.352 11.322 18.079a223 223 0 0 0 17.698 21.073c6.484 6.81 13.534 12.994 20.926 18.787 7.47 5.846 15.243 11.268 23.278 16.31 5.934 3.728 11.971 7.267 18.177 10.522 7.42 3.898 15.009 7.431 22.652 10.855.446.202.795.218 1.247.006a531 531 0 0 1 6.924-3.174 289 289 0 0 0 23.31-11.84 277 277 0 0 0 18.45-11.481c8.28-5.608 16.271-11.596 23.85-18.145a181 181 0 0 0 19.26-19.347c3.505-4.094 6.848-8.34 10.158-12.603 4.545-5.846 8.443-12.128 11.873-18.7 2.297-4.392 4.387-8.883 6.412-13.407 2.298-5.123 4.366-10.333 6.032-15.695a70.4 70.4 0 0 0 2.787-13.424c.518-4.829.959-9.652.953-14.519-.038-28.88-.016-57.754-.016-86.628M9.343 35.902C48.798 17.998 90.144 9.18 133.39 9.565c41.351.37 80.873 9.227 118.594 26.337v70.416H9.445c-.233-.745-.337-68.195-.103-70.416m242.68 176.805c-.011 2.02-.289 4.04-.457 6.06-.098 1.131-.196 2.258-.327 3.385-.441 3.718-1.067 7.41-2.205 10.986-.73 2.292-1.383 4.61-2.226 6.859-1.051 2.798-2.216 5.553-3.408 8.291-1.334 3.049-2.7 6.092-4.154 9.08a112 112 0 0 1-3.805 7.192c-1.791 3.086-3.593 6.173-5.585 9.123-2.113 3.12-4.4 6.13-6.724 9.097a285 285 0 0 1-7.85 9.532c-1.9 2.21-3.914 4.323-5.944 6.413-2.347 2.412-4.71 4.818-7.17 7.11-2.384 2.215-4.888 4.306-7.376 6.407a157 157 0 0 1-5.749 4.66 276 276 0 0 1-7.904 5.912c-2.76 1.982-5.57 3.881-8.384 5.787a138 138 0 0 1-5.008 3.233c-3.305 2.02-6.609 4.045-9.962 5.989a270 270 0 0 1-9.358 5.166c-2.64 1.383-5.34 2.656-8.025 3.941-3.064 1.465-6.146 2.885-9.205 4.339-.381.18-.68.18-1.062 0-4-1.878-8.035-3.686-12.009-5.624-2.983-1.453-5.9-3.054-8.824-4.632-2.504-1.345-5.02-2.673-7.458-4.138a495 495 0 0 1-11.449-7.098c-5.645-3.599-11.078-7.491-16.407-11.541a203 203 0 0 1-13.828-11.52c-2.302-2.1-4.578-4.251-6.766-6.472a175 175 0 0 1-12.064-13.506c-2.384-2.967-4.78-5.929-7.033-8.993-3.19-4.34-6.152-8.841-8.656-13.632-1.143-2.194-2.373-4.339-3.468-6.554-1.16-2.341-2.232-4.72-3.282-7.11a343 343 0 0 1-3.386-7.964 87 87 0 0 1-3.767-11.225c-.98-3.735-1.525-7.54-1.873-11.378-.196-2.226-.398-4.448-.594-6.669-.021-.24-.01-.484-.01-.724v-31.318h242.718c.022.343.06.642.06.936.006 10.202.027 20.398-.016 30.6" style="fill:#f04d24;stroke-width:0"></path><path d="m256.648 145.258.005-23.044V32.73q-1.493-.66-2.977-1.329a625 625 0 0 0-8.166-3.587c-5.88-2.52-12.352-4.97-20.37-7.725-6.19-2.123-12.756-4.083-20.072-5.983-6.283-1.633-12.919-3.097-20.279-4.47-6.832-1.273-13.18-2.237-19.401-2.95a305 305 0 0 0-13.218-1.23c-5.662-.397-10.033-.62-14.176-.719-2.988-.07-5.738-.108-8.405-.108-6.299 0-11.976.201-17.35.615-.909.07-1.818.136-2.721.207-3.55.266-7.214.544-10.768.936-3.855.425-7.807.99-11.623 1.535l-2.716.387c-5.542.778-11.618 1.938-19.114 3.641-4.055.926-8.443 2.026-13.794 3.457-3.544.958-7.311 1.993-10.964 3.24a632 632 0 0 0-18.558 6.657c-5.45 2.047-11.138 4.475-17.344 7.404-.006 59.708-.006 119.427 0 179.14 0 .294.005.637.032.92l.441 4.818c.147 1.578.294 3.163.436 4.747.512 5.672 1.878 11.508 4.06 17.355 1.351 3.63 2.902 7.42 4.748 11.579a257 257 0 0 0 5.76 12.178c2.94 5.781 6.51 11.48 10.914 17.425a220 220 0 0 0 17.334 20.638c5.873 6.168 12.553 12.161 20.425 18.33 7.158 5.606 14.856 11.001 22.891 16.037 6.293 3.957 12.14 7.338 17.867 10.343 7.447 3.914 15.052 7.43 21.1 10.153a643 643 0 0 1 5.656-2.586 286 286 0 0 0 22.935-11.644 275 275 0 0 0 18.139-11.29c8.726-5.907 16.386-11.738 23.42-17.813a178 178 0 0 0 18.77-18.858c3.255-3.8 6.358-7.719 10.022-12.433 4.148-5.34 7.888-11.225 11.42-18.003 2.472-4.725 4.66-9.51 6.294-13.158 2.455-5.47 4.366-10.436 5.836-15.177a65.5 65.5 0 0 0 2.602-12.543c.56-5.22.93-9.603.93-14.018-.032-21.198-.026-42.75-.021-63.589M9.34 35.902C48.797 17.998 90.143 9.18 133.39 9.565c41.351.37 80.873 9.227 118.594 26.337v70.416H9.443c-.233-.745-.337-68.195-.103-70.416m242.68 176.805c-.01 2.02-.288 4.04-.457 6.06-.098 1.131-.196 2.258-.326 3.385-.441 3.718-1.067 7.41-2.205 10.986-.73 2.292-1.383 4.61-2.226 6.859-1.051 2.798-2.216 5.553-3.408 8.291-1.334 3.049-2.7 6.092-4.154 9.08a112 112 0 0 1-3.805 7.192c-1.791 3.086-3.593 6.173-5.586 9.123-2.112 3.12-4.398 6.13-6.723 9.097a285 285 0 0 1-7.85 9.532c-1.9 2.21-3.914 4.323-5.944 6.413-2.347 2.412-4.71 4.818-7.17 7.11-2.384 2.215-4.888 4.306-7.376 6.407a157 157 0 0 1-5.749 4.66 276 276 0 0 1-7.904 5.912c-2.76 1.982-5.57 3.881-8.384 5.787a138 138 0 0 1-5.008 3.233c-3.305 2.02-6.609 4.045-9.962 5.989a270 270 0 0 1-9.358 5.166c-2.64 1.383-5.34 2.656-8.025 3.941-3.064 1.465-6.146 2.885-9.205 4.339-.381.18-.68.18-1.062 0-4-1.878-8.035-3.686-12.009-5.624-2.983-1.453-5.9-3.054-8.824-4.632-2.504-1.345-5.02-2.673-7.458-4.138a495 495 0 0 1-11.449-7.098c-5.645-3.599-11.078-7.491-16.407-11.541a203 203 0 0 1-13.828-11.52c-2.302-2.1-4.578-4.251-6.766-6.472a175 175 0 0 1-12.064-13.506c-2.384-2.967-4.78-5.929-7.033-8.993-3.19-4.34-6.152-8.841-8.656-13.632-1.143-2.194-2.374-4.339-3.468-6.554-1.16-2.341-2.232-4.72-3.282-7.11a343 343 0 0 1-3.386-7.964 87 87 0 0 1-3.768-11.225c-.98-3.735-1.524-7.54-1.872-11.378-.196-2.226-.398-4.448-.594-6.669-.021-.24-.01-.484-.01-.724v-31.318h242.718c.022.343.06.642.06.936.005 10.202.027 20.398-.016 30.6" style="fill:#fff;stroke-width:0"></path><path d="M1.547 111.158h258.209v64.083H1.547z" style="fill:#f04d24;stroke-width:0"></path><path d="M4.633 115.861H256.67v54.959H4.633z" style="fill:#303e49;stroke-width:0"></path><path d="M31.312 150.204v4.742q0 .215.23.215h13.956c.916 0 1.602 0 2.06-.215.457-.216.915-.43 1.144-.862.229-.216.457-.432.457-.647.23-.43.23-.647.23-.647 0-.862-.458-1.508-.916-1.94-.686-.646-1.83-.86-2.975-.86H31.541q-.229 0-.229.214m.23-4.74h13.27c.915 0 1.602-.217 2.06-.432q.686-.648.686-1.94c0-.646-.229-1.293-.687-1.723q-.686-.647-2.059-.647h-13.27c-.23 0-.23.215-.23.43v4.095q0 .216.23.216m-4.576-9.053h17.389c1.372 0 2.745.216 3.66.647.916.43 1.83.862 2.288 1.508q1.03.97 1.373 1.94c.23.863.458 1.509.458 2.155 0 .647-.229 1.293-.458 1.94 0 .43-.458 1.077-.686 1.509-.229.43-.687.646-1.145.862s-.914.431-1.372.431c.458 0 1.144.215 1.83.215.458.216 1.144.647 1.602.862.687.431 1.144 1.078 1.602 1.724.228.647.457 1.51.457 2.586 0 .432-.229 1.294-.457 1.94-.229.863-.687 1.51-1.145 2.371a10.2 10.2 0 0 1-2.517 1.725c-1.143.43-2.287.647-3.889.647h-18.99q-.228 0-.228-.216v-22.415c0-.215 0-.431.228-.431M203.03 136.627q0-.216-.193-.216H184.07c-.192 0-.386.216-.386.43v22.2c0 .216.194.431.386.431h18.766q.193 0 .193-.215v-4.311h-15.09q-.193 0-.193-.216c-.194 0-.194-.215-.194-.215v-4.31c0-.216.194-.216.194-.216h11.027l.194-.215v-4.096h-11.221s-.194 0-.194-.215v-4.31c0-.216.194-.432.388-.432h15.09zM80.067 136.627q0-.216-.193-.216H61.108c-.192 0-.386.216-.386.43v22.2c0 .216.194.431.386.431h18.766q.193 0 .193-.215v-4.311h-15.09q-.193 0-.193-.216c-.194 0-.194-.215-.194-.215v-4.31c0-.216.194-.216.194-.216H75.81l.194-.215v-4.096H64.784s-.194 0-.194-.215v-4.31c0-.216.194-.432.388-.432h15.09zM110.02 153.437s-1.192.568-1.625.748c-.71.296-1.441.546-2.184.75-3.771 1.031-7.731 1.27-11.411-.04-2.415-.861-4.765-2.926-5.182-5.613-.372-2.393.757-4.873 2.626-6.362 1.627-1.295 3.606-2.127 5.642-2.518 3.633-.697 7.326-.148 10.796.967l1.338.43v-4.526s-1.806-.663-2.512-.824c-.932-.213-1.897-.336-2.845-.45-1.932-.234-3.886-.317-5.828-.16-2.913.233-5.81 1.019-8.312 2.53-3.565 2.151-5.483 5.735-5.483 9.896 0 2.752.892 5.243 2.9 7.169 1.436 1.376 3.218 2.585 5.073 3.303 2.97 1.15 5.922 1.547 9.115 1.341 3.707-.24 7.892-1.815 7.892-1.815v-4.826M151.764 136.411h2.902l.194.216 9.672 13.147h.194l9.673-13.147c0-.216.193-.216.193-.216h2.902c.194 0 .194.216.194.43v22.2q0 .432-.194.432h-3.289c-.193 0-.387 0-.387-.433v-14.655h-.193l-7.932 10.776h-2.128l-8.125-10.776v14.655c0 .433-.194.433-.387.433h-3.289q-.194 0-.194-.433v-22.198c0-.215 0-.431.194-.431M132.527 125.419l11.465 10.992v23.061h-3.96q-.21 0-.21-.216v-20.905l-8.963-8.837h-.208l-8.963 8.837s-.208 0-.208.215v20.906h-3.961s-.208 0-.208-.216v-22.845l11.672-10.992q0-.215.208-.215h3.127s.209 0 .209.215M207.287 136.196h5.223l.194.215 8.125 8.621h.194l8.125-8.62v-.216h5.417v.215L223.73 148.05v.216l10.254 10.992q.194 0 .194.215h-5.61l-7.545-8.19h-.194l-7.738 8.19h-5.417c-.193-.215 0-.215 0-.215l10.253-10.992v-.216l-10.834-11.638s0-.215.194-.215" style="fill:#f04d24;stroke-width:0"></path><path d="M105.479 323.93c-.99-.25-1.529-.385-1.529-.875 0-.458.48-.656.99-.656.933 0 1.048.646 1.115 1.021l1.701-.093c-.086-.72-.26-2.241-2.777-2.241-1.25 0-2.681.562-2.681 2.115 0 1.667 1.614 2.105 2.249 2.272 1.24.323 1.69.437 1.69 1.052 0 .543-.48.886-1.152.886-1.115 0-1.278-.906-1.346-1.323l-1.691.135c.038.438.086.928.442 1.47.624.938 1.787 1.104 2.604 1.104 2.7 0 2.874-1.98 2.874-2.438 0-1.813-1.586-2.2-2.49-2.428M109.11 321.211h1.759v7.461h-1.759zM116.701 325.765h-.02l-2.69-4.554h-1.663v7.461h1.644v-4.48h.019l2.652 4.48h1.701v-7.46h-1.643zM122.84 327.286c-1.49 0-1.509-1.72-1.509-2.355 0-.542.058-2.334 1.557-2.334.99 0 1.25.865 1.336 1.146l1.624-.406c-.413-1.48-1.355-2.251-2.96-2.251-1.787 0-3.344 1.199-3.344 3.876 0 1.907.875 3.835 3.363 3.835 1.942 0 2.682-1.208 2.98-2.48l-1.605-.542c-.087.417-.327 1.511-1.442 1.511M128.778 325.452h3.382v-1.386h-3.382v-1.427h3.642v-1.428h-5.4v7.461h5.515v-1.47h-3.757zM136.762 323.076v1.5a5.4 5.4 0 0 0 1.855-1.083v5.18h1.633v-7.535h-1.326c-.48 1.198-1.547 1.73-2.162 1.938M144.679 321.138c-1.576 0-2.46 1.157-2.46 2.564 0 1.396.884 2.469 2.095 2.469.797 0 1.22-.49 1.364-.677l.02.02c-.058.761-.145 2.064-1.02 2.064-.45 0-.662-.344-.739-.813l-1.586.208c.212 1.095.923 1.835 2.191 1.835 2.24 0 2.806-2.116 2.806-3.919 0-1.708-.518-3.75-2.671-3.75m.01 3.866c-.558 0-.923-.52-.923-1.302 0-.896.404-1.334.875-1.334.566 0 .96.614.96 1.385 0 .845-.442 1.251-.912 1.251M148.224 322.753h3.2c-1.778 2.397-2.009 4.512-2.153 5.92h1.586c.201-3.627 1.787-5.607 2.412-6.243v-1.219h-5.045zM157.16 323.764c-.798 0-1.22.49-1.365.677l-.019-.02c.057-.772.144-2.064 1.018-2.064.452 0 .663.344.74.813l1.586-.208c-.308-1.522-1.432-1.835-2.21-1.835-1.057 0-1.73.511-2.172 1.21-.548.875-.615 2.052-.615 2.709 0 1.803.576 3.751 2.671 3.751 1.586 0 2.46-1.177 2.46-2.553 0-1.407-.893-2.48-2.094-2.48m-.327 3.803c-.654 0-.961-.75-.961-1.375 0-.698.327-1.26.913-1.26.74 0 .923.822.923 1.312 0 .834-.366 1.323-.875 1.323" style="fill:#fff;stroke-width:0"></path><path d="m173.633 78.952-5.732 4.164 2.19-6.737-5.731-4.164h7.083l2.19-6.737 2.189 6.737h7.083l-5.73 4.164 2.189 6.737z" style="fill:#fd0408;stroke-width:0"></path><path d="m173.632 67.187 1.806 5.556h5.842l-4.726 3.434 1.805 5.557-4.727-3.434-4.726 3.434 1.805-5.557-4.726-3.434h5.842z" style="fill:#ecd987;stroke-width:0"></path><path d="M173.632 75.228v-8.041l-1.805 5.556zM170.711 76.177l2.773-.949-7.5-2.485zM173.632 78.3v-3.072l-4.726 6.506zM178.36 81.734l-4.728-6.506 2.922.95zM181.28 72.743l-7.648 2.485 1.806-2.485z" style="fill:#bea55e;stroke-width:0"></path><path d="m144.979 78.952-5.732 4.164 2.19-6.737-5.731-4.164h7.083l2.19-6.737 2.189 6.737h7.083l-5.73 4.164 2.189 6.737z" style="fill:#fd0408;stroke-width:0"></path><path d="m144.978 67.187 1.806 5.556h5.842l-4.727 3.434 1.806 5.557-4.727-3.434-4.726 3.434 1.805-5.557-4.726-3.434h5.842z" style="fill:#ecd987;stroke-width:0"></path><path d="M144.978 75.228v-8.041l-1.805 5.556zM142.057 76.177l2.773-.949-7.5-2.485zM144.978 78.3v-3.072l-4.726 6.506zM149.705 81.734l-4.727-6.506 2.921.95zM152.626 72.743l-7.648 2.485 1.806-2.485z" style="fill:#bea55e;stroke-width:0" data-source="https://football-logos.cc"></path><path d="m116.324 78.952-5.731 4.164 2.19-6.737-5.732-4.164h7.084l2.19-6.737 2.188 6.737h7.084l-5.73 4.164 2.189 6.737z" style="fill:#fd0408;stroke-width:0"></path><path d="m116.324 67.187 1.806 5.556h5.842l-4.727 3.434 1.806 5.557-4.727-3.434-4.726 3.434 1.805-5.557-4.727-3.434h5.843z" style="fill:#ecd987;stroke-width:0"></path><path d="M116.324 75.228v-8.041l-1.805 5.556zM113.403 76.177l2.772-.949-7.499-2.485zM116.324 78.3v-3.072l-4.726 6.506zM121.05 81.734l-4.726-6.506 2.921.95zM123.972 72.743l-7.648 2.485 1.806-2.485z" style="fill:#bea55e;stroke-width:0"></path><path d="m87.67 78.952-5.732 4.164 2.19-6.737-5.73-4.164h7.083l2.19-6.737 2.188 6.737h7.084l-5.731 4.164 2.19 6.737z" style="fill:#fd0408;stroke-width:0"></path><path d="m87.67 67.187 1.805 5.556h5.843l-4.727 3.434 1.806 5.557L87.67 78.3l-4.727 3.434 1.806-5.557-4.727-3.434h5.843z" style="fill:#ecd987;stroke-width:0"></path><path d="M87.67 75.228v-8.041l-1.805 5.556zM84.749 76.177l2.772-.949-7.499-2.485zM87.67 78.3v-3.072l-4.727 6.506zM92.397 81.734l-4.727-6.506 2.921.95zM95.318 72.743l-7.648 2.485 1.805-2.485z" style="fill:#bea55e;stroke-width:0"></path><path d="M101.822 96.416 96.9 99.992l1.88-5.785-4.921-3.576h6.083l1.88-5.785 1.88 5.785h6.082l-4.921 3.576 1.88 5.785zM130.651 96.416l-4.921 3.576 1.88-5.785-4.921-3.576h6.082l1.88-5.785 1.88 5.785h6.083l-4.921 3.576 1.88 5.785zM159.481 96.416l-4.922 3.576 1.88-5.785-4.92-3.576h6.082l1.88-5.785 1.88 5.785h6.082l-4.92 3.576 1.88 5.785z" style="fill:#fd0408;stroke-width:0"></path><path d="M212.466 211.105c-.294.02-1.713.847-2.118 1.043-1.765.847-3.579 1.583-5.314 2.486-1.127.133-2.196-.043-3.285-.222.005-.15.231-.349.347-.442 3.116-2.465 5.918-5.272 7.988-8.697 1.036-1.717 1.884-3.581 2.432-5.511-.183-.043-.234.103-.344.196-.564.465-1.077 1.128-1.628 1.628-3.12 2.827-7.065 5.71-10.737 7.828-.498.287-1.934 1.186-2.377 1.28-.44.09-1.75-.02-2.254-.074-.145-.015-.251-.017-.339-.155l2.515-2.023c5.204-4.499 10.22-11.027 11.505-17.913.088-.46.035-.96.203-1.425l-.352.09-2.759 3.265c-4.034 4.312-8.222 8.507-13.029 11.954-.166.118-.125.365-.402.284-.07-.017-.186-.4-.357-.44l-1.08-.598c.262-.218.393-.532.594-.794 2.9-3.736 6.676-10.23 6.321-15.095-.01-.148.078-.287-.146-.244-.415.628-.93 1.179-1.378 1.782-5.192 6.988-10.99 13.552-17.788 19.038l-.148-.05c.153-.332.475-.52.694-.792 3.82-4.757 5.496-9.393 5.232-15.59-.005-.151.093-.39-.146-.342a46.6 46.6 0 0 1-4.138 8.202c-4.062 6.368-9.598 11.505-15.227 16.465-.219.04-.146-.088-.136-.233.111-1.599.606-2.93.483-4.652-.01-.148.076-.286-.148-.244l-1.965 3.315c-.553.59-.95 1.327-1.443 1.963a42 42 0 0 1-4.64 5.033c-.876.797-1.907 1.455-2.722 2.317-.207.043-.161-.098-.146-.244.035-.4.211-.862.254-1.33.01-.13.143-.233-.106-.2-.996 1.04-2.075 2.008-3.063 3.058-1.713 1.815-4.286 4.589-5.37 6.775-.438.882-.664 1.83-1.006 2.742-3.567 9.464-7.601 20.003-16.548 25.607-1.617.095-3.224-.12-4.84-.098-.505.008-1.159.294-1.622-.045-.825-1.141-1.755-2.2-2.613-3.31-2.377-3.076-4.517-6.114-7.219-8.976-4.381-4.644-9.733-8.278-14.075-12.972-2.266-2.455-3.194-4.255-6.275-5.973-4.842-2.702-9.606-4.644-14.07-8.148-.345-.268-1.74-1.686-1.932-1.72-.143-.026-.181.004-.15.15.06.291.827 1.882.69 2.02l-.226-.02c-7.042-4.222-13.499-9.516-18.544-16.015-.144-.186-.302-.364-.438-.545-1.1-1.455-2.07-3.008-3.066-4.536.015.311.008.736.055 1.03 1.15 7.315 6.148 13.176 11.505 17.915.241.211.714.324.737.691-.055.055-1.215-.66-1.368-.751-3.454-2.068-7.242-4.956-10.19-7.685-1.32-1.219-3.216-3.624-4.537-4.546-.176-.12-.274-.18-.5-.14v.097c.319-.015.233.179.299.345.74 1.88 1.293 3.465 2.387 5.212 2.304 3.671 5.991 7.302 9.63 9.622 1.736 1.105 4.032 2.568 5.869 3.417.123.056.254.06.387.056l-.149.294c-2.683-1.332-5.732-2.32-8.315-3.83-.485-.284-2.855-1.689-3.62-2.108-2.026-1.121-4.014-2.629-5.847-4.026-.247-.02-.116.032-.073.17.098.302.355.777.518 1.064 3.607 6.28 10.758 9.818 17.202 12.517.515.216 1.116.45 1.667.555l-.16.29c-5.177-1.491-10.318-3.228-15.203-5.52-.12.056-.017.282.028.37.626 1.214 3.131 3.448 4.278 4.31 1.51 1.133 14.712 6.028 14.712 6.028-.07.096-.332.063-.44.04-.48-.09-.986-.195-1.494-.28-4.198-.69-8.542-1.647-12.64-3.064-.48-.191.287.769.345.84 1.46 1.71 4.17 3.314 6.208 4.259.588.271 3.252 1.507 3.67 1.565.135.02 4.97.646 6.974 1.124.164.04.367-.008.538.005.016.23.033.175-.145.198-.35.045-.918.015-1.29.003-1.907-.063-3.857-.23-5.723-.294-.913-.033-1.823-.121-2.721-.156-.083-.003-.3-.048-.295.1.005.096 1.17 1.191 1.336 1.33 1.65 1.377 3.931 2.163 5.959 2.782.065.482-.063.977.072 1.457.194.699 1.638 1.543 2.28 1.867 1.234.626 2.628 1.033 3.99 1.244.582 1.206-.16 1.606 1.178 2.375 1.404.807 2.882.94 4.379 1.312l5.944-2.35c.103.103.218.128.045.244-.657.435-1.48.877-2.178 1.274-1.001.565-2.45 1.432-3.474 1.86a1 1 0 0 1-.465.077c.11.965.634 1.734 1.459 2.242.44.266 1.157.668 1.657.425l6.663-3.752c.106.09-.267.38-.322.422-.513.42-1.17.759-1.703 1.156-1.418 1.053-2.767 2.209-4.296 3.108-.264.242.028.483.076.714.1.48.11.91.415 1.36.299.437 1.496 1.324 2.022 1.234l5.883-4.147c.035.189-.04.266-.143.4-.33.43-1.044.86-1.44 1.226-.442.412-.837.877-1.282 1.287-.397.37-2.138 1.708-2.254 2.09-.12.403.436 1.594.717 1.91.403.458 1.92 1.184 2.523.93.611-.535 1.215-1.098 1.831-1.623.194-.166.44-.272.642-.445.156-.136 1.048-1.159 1.184-1.038l-3.166 3.903c.21.58.407 1.44.943 1.822.55.394 1.74.515 2.422.59v.523c-.548.392-1.152.882-1.635 1.35-.82.793-2.402 2.51-2.754 3.563-.151.447-.076 1.08-.232 1.447-.186.442-1.167 1.372-1.504 1.852-1.275 1.812-1.909 3.448-1.106 5.64.503 1.369 2.067 2.804 3.476 3.188l-.448-1.68c.868-.365 1.497-1.091 2.234-1.614.565-.405 1.355-.998 1.944-1.317 2.377-1.29 6.876-1.196 9.427-.487 2.535.703 5.126 2.15 6.552 4.407.221.043.138-.095.148-.243.018-.282-.103-.639.146-.837a14.5 14.5 0 0 0 2.274 3.158c-.093 1.119-.284 2.257-.252 3.406.028 1.002.287 2.002.393 2.96.03.269.053.937.007 1.18-.037.192-.898.705-1.139.933-.815.782-.999 1.453-.978 2.576-.763.266-1.754.493-2.568.38-.999-.139-2.02-1.559-2.775-2.162-.256-.206-.752-.437-1.031-.648-.571-.432-1.615-1.593-2.4-1.4-.246.06-1.081.583-1.307.767-.292.233-.87 1.058-1.042 1.13-.324.136-.712-.007-1.033.053-.405.078-1.744 1.925-1.872 2.373-.284.992.27 2.435.979 3.153.163.164.271.342.545.294v-1.726c0-.048.39-.792.446-.837.093-.078 1.15-.128 1.265-.09.176.057.364.638.608.58l.511-.977c.68.148 1.285.558 2.012.485v.296c-.33-.093-.588.158-.85.196-.435.06-.822-.032-1.348.126-3.137.942-1.92 5.267 1.11 4.908-.55-.583-1.007-1.22-.889-2.074.868.257.981-.454 1.51-.71.314-.151.671-.116.978-.207.246-.073.694-.374.91-.364.31.012.596.372.845.45.425.13.999.07 1.44.336.137.083 1.943 1.913 2.009 2.038.241.46-.058.671.058 1.124.105.424.639.708.651.759.189.781-1.333 1.907-2.077 1.708-.23.232 1.089.676 1.227.694.88.123 2.213-.276 2.764-.998.599-.781 1.107-2.917.672-3.814-.244-.503-1.009-.747-1.406-1.262-.098-.128-.584-.955-.493-1.035 1.861-.216 4.44-.327 4.15 2.27.59-.003 1.582-1.654 2.015-1.587.196.03.535 1.475.704 1.682.093.115.146.12.292.105.206-.186 1.094-1.656 1.333-1.483.085.277.113.631.256.88.146.259.51.4.604.53.123.174.264 1.528.221 1.792-.105.67-.918 1.304.015 1.895-.216.967-1.446 1.276-2.326 1.118-.073-.015-.594-.38-.448-.05.206.465 1.5 1.274 2.025 1.334.332.038 1.039.035 1.36-.022.83-.151 2.425-1.842 2.712-2.621.03-.086.204-.7.204-.744-.036-.395-.463-1.169-.561-1.606-.119-.538-.204-1.94-.106-2.455.058-.3.805-.546 1.034-.546h3.26l.148.247c.01.887-.294 1.781-.591 2.616.204.18 1.22-.433 1.431-.593.267-.204 1.273-1.46 1.53-1.282.16.558.334 1.128.56 1.661.09.211.453 1.146.67 1.098.6-.555 1.146-1.16 1.68-1.779.173-.201.14-.575.548-.487.113.115.158 2.779.203 3.201.046.412.136 1.048.2 1.48.153 1.046.781.837 1.599.968.925.15 2.256.5 3.179.364.327-.048.687-.344 1.069-.274.221.04 1.046.54 1.414.669 1.084.38 2.351.55 3.453.904.697.028 1.366-1.208 1.66-1.18.186.067.322.22.506.288 1.079.392 3.25.985 4.35.99.144 0 .315.02.446-.058.209-.128.704-.954.888-1.183.106-.128.385-.44.543-.445.523.246 1.062.488 1.615.656 1.061.324 2.671.759 3.725.917.413.063.936.023 1.366.11l1.242-3.316c1.193-.108 2.287.276 3.52.16.613-.06.9-.686 1.184-1.186.53-.947.968-1.982 1.33-3.013l4.397-1.726c.465-.367.272-.794.347-1.231.035-.204.161-.352.196-.594.066-.477-.128-1.223.234-1.64.254-.292 1.585-.855 2.025-1.136 1.683-1.083 3.139-2.538 4.454-4.036 0-.199-1.489-.216-1.723-.251-8.053-1.282-20.446-4.617-27.43-9.012-.828-.52-1.273-1.39-1.67-2.28-.053-.115-.134-.193-.096-.349.385-.04.767.224 1.137.204.115-.005.895-.241.993-.297.52-.306.548-.917.54-1.44-.002-.175-.188-.595.049-.638.093-.017 1.423.661 1.705.762.755.271 1.542.417 2.319.545.204.033.385.188.611.17.043-.002.793-.223.843-.245.463-.222.802-1.526.893-2.02.354-.036.646.208.945.288.159.04.685.186.788.199.304.042 1.061.045 1.353-.02.684-.156.845-1.835.963-2.443.664.015 2.528.291 3.061.05.742-.337.694-2.088.986-2.77 2.07.413 3.871-.587 3.466-2.861-1.476-1.043-2.85-2.22-4.258-3.343-.762-.603-1.615-1.146-2.36-1.789-.113-.098-.24-.153-.203-.337l7.777 4.908c.97.166 3.006-.334 3.267-1.425.073-.311.211-1.58-.007-1.779-2.782-1.658-5.58-3.392-8.26-5.22-.124-.082-.938-.592-.803-.728l9.837 5.131c.77-.067 2.45-.781 2.606-1.633.035-.186.03-1.721-.015-1.8-.697-.467-1.522-.766-2.238-1.168-3.069-1.721-6.08-3.553-9.16-5.254-.15-.083-.247-.181-.14-.307l12.283 5.599c1.632-.5 1.969-2.103 1.695-3.626l-10.617-5.378.327-.035 11.183 4.415c1.738-.495 2.319-2.174 1.552-3.74l-11.203-4.749-.971-.578 7.425 2.302 5.179 1.742c2.218-.583 2.59-3.333 1.62-5.177.025-.128 1.121-.337 1.363-.42 1.31-.45 2.686-1.221 3.642-2.231 1.006-1.066.322-1.254.048-2.418 1.345-.482 2.66-1.005 3.83-1.85.619-.45 2.344-2.062 2.463-2.776.063-.37-.88-1.59-.83-1.704.306-.387.842-.422 1.26-.62 1.469-.702 3.393-1.913 4.477-3.13.216-.246 1.112-1.432 1.19-1.673.045-.133.088-.279 0-.405-.101-.14-1.63-.864-1.92-1.045-.103-.065-.457-.249-.407-.38 3.23-1.877 6.451-4.05 8.38-7.322l-.133-.226a.44.44 0 0 1-.229.163c-5.908 1.644-11.773 3.506-17.757 4.86-.626.14-1.474.166-2.047.307-.046.01-.282.472-.662.045 1.046-.354 2.128-.623 3.182-.965 7.105-2.302 13.522-4.232 18.097-10.537.385-.528 1.124-1.638 1.34-2.216.056-.146-.022-.159-.148-.149M88.64 247.521h-.394v-.146c.105-.156.21-.173.394-.148zm6.372 34.832c-.39.018.21-1.322.309-1.467.083-.126.812-.91.926-.8zm9.384 14.015c-.204-.013-.682-.533-.54-.691l.688.1c-.038.166.131.644-.148.591m68.607-53.88h-.294v-.197h.294zm14.553-34.162-5.166 3.078c-.16-.15 1.137-.937 1.275-1.042 1.804-1.405 3.607-2.94 5.345-4.433.506-.435.906-1.149 1.625-1.237.581-.07 1.069-.055 1.117.631z" style="fill:#303e49;stroke-width:0"></path><path d="M163.223 216.832c-.216.701-.449 1.415-.715 2.098-1.424 3.657-3.814 7.014-7.187 9.103.776.099 1.647-.226 2.389-.476.161-.054.415-.377.374.03-3.76 2.012-7.409 4.413-9.776 8.043-.006.116.115.136.245.05.682-.455 1.378-.964 2.197-1.162.202-.05.38-.098.322.174-.226.016-.491.14-.677.262-4.055 2.66-4.655 6.616-6.565 10.71-1.684 3.612-3.664 7.207-6.192 10.296-.03.135.007.186.146.145.245-.073 2.497-2.343 2.82-2.71.48-.546.866-1.169 1.33-1.727.232.177.101.145.01.303-1.45 2.507-3.02 5.005-5.092 7.048-1.235 1.22-2.666 2.22-4.053 3.255.169.228.159.097.321.024.367-.166 1.354-.38 1.807-.463.2-.037.403-.074.34.191-.493.1-1.038.391-1.484.641-2.346 1.313-4.49 3.613-4.345 6.464-.254.021-.166.018-.194-.148-.13-.77-.317-1.575-.206-2.373.01-.078.45-1.094.056-.931l-1.2 1.317c-.454.637-.975 1.821-1.118 2.585-.016.087.06 1.175-.202.834l-.588-2.028c.03-.571-.062-1.212-.006-1.772.095-.951.623-1.938.988-2.811-.654.172-1.342.284-2.026.197-.137-.017-.293-.058-.147-.196.56-.163 1.15-.478 1.65-.772 8.304-4.875 12.616-10.823 16.515-19.52 1.52-3.394 2.494-6.99 3.93-10.384 1.048-2.478 3.048-4.584 4.772-6.58.228-.263.293-.781.594-.392-.338.868-.828 1.76-.986 2.664l.196.049c.878-1.669 2.37-2.859 3.754-4.096 2.595-2.319 5.348-4.537 7.412-7.397zM105.399 243.214c4.031 3.614 7.37 6.974 10.604 11.363.682.925 1.408 1.824 2.073 2.763l-.194.148c0-.12-.07-.213-.145-.3-3.202-3.637-6.669-7.205-10.38-10.355-.843-.716-1.773-1.355-2.614-2.075.034.53.564.908.87 1.35 3.129 4.537 5.596 9.62 6.627 15.064-.032.097-1.496.945-1.676.999-.102.03-.191.113-.295.009-.079-.058-.174-.815-.192-.993-.791-7.901-6.417-15.211-11.706-20.87-.72-.77-3.093-3.358-3.803-3.8-.079-.05-.19-.1-.2.002l1.184 2.566-.293.147c-.015-.228-.141-.487-.262-.677-1.248-1.958-3.093-3.65-4.983-4.988-.383-.271-2.684-1.607-2.757-1.787-.08-.195.065-.152.193-.093.788.358 1.687.426 2.426.834.124.04.197-.024.145-.146-.074-.174-1.976-1.354-2.3-1.55-1.927-1.165-3.381-1.835-5.06-3.432-1.432-1.36-2.628-2.873-3.802-4.442.174-.136 1.482 1.012 1.73 1.182 3.357 2.303 6.929 3.792 10.408 5.787 2.982 1.71 3.97 3.467 6.186 5.86 2.518 2.718 5.47 4.973 8.216 7.434M156.998 286.107c-.008.08-.01.15.077.189 6.81 3.108 14.46 5.107 21.712 6.613.419.087.933-.006 1.327.251-.013.227-2.31 1.848-2.673 2.065-.923.55-1.49.935-2.604.742-.907-.158-2.238-.608-3.174-.877-.289-.084-.517.175-.438-.3.507-.161 1.021-.053 1.523-.108.212-.023.397-.156.609-.182.49-.058 1.041.11 1.475-.204l-.098-.186c-.243.179-.35-.034-.525-.081-4.344-1.184-8.842-3.165-12.85-5.222-1.524-.782-2.987-1.736-4.549-2.415zM99.38 276.896c.025-.01.037-.13.105-.156 1.247-.496 2.623-1.204 3.972-1.145l-6.57 5.18c-.178.073-.18-.114-.132-.23.058-.143 1.86-1.936 2.109-2.137.897-.728 2.081-1.257 3.004-1.934.152-.112.448-.22.403-.434-.28-.043-.497.102-.74.198-.86.34-1.885.892-2.703 1.344-1.743.963-4.389 2.318-4.555 4.537-.023.313.16.564.195.878.013.115.063.431-.147.344-2.166-1.73-2.645-4.565-.884-6.801.654-.83 1.145.17 1.527.336.22.096 1.189.283 1.422.25l.06-.248c-.358-.172-.749-.273-1.104-.457-.072-.037-.096-.133-.168-.172-.246-.131-1.289-.441-1.088-.789.747-.305.663-1.415 1.695-1.176.158.037.717.398.863.52.754.63 1.447 2.642 2.736 2.092m-3.655-1.23c-.14.014-.723.247-.467.423.353.241 1.175.538 1.48.099-.247-.314-.589-.56-1.013-.521M162.098 292.757c2.115.983 4.313 1.987 6.545 2.786 2.053.734 4.14 1.28 6.24 1.858.311.228-.25 1.704-.15 2.125l-.353.146a50 50 0 0 1-11.442-5.536c-.574-.376-3.137-2.057-3.388-2.438-.073-.11-.142-.238.066-.165.235.083.696.433 1.004.577.484.227.993.422 1.478.647M203.034 228.87c-.479-.132-.864.131-1.243.19-5.303.815-10.611 1.216-15.994 1.588-.897.062-1.829.363-2.717.097.205-.355.778-.151 1.135-.197 5.046-.66 9.93-1.56 14.894-2.489.45-.084 1.273-.364 1.715-.363.334 0 1.71.628 2.002.84.123.089.243.153.208.334M126.277 298.736l.29-.005.273-.47c1.197-.14 2.334-.439 3.543-.618.666.011.968.774 1.327 1.241-.173.095-.41.026-.62.072a40 40 0 0 1-3.18.572c-.178.024-.906-.04-.942-.003-.007.41.012.822 0 1.232-.02.685-.087 1.897.006 2.562.089.626.59 1.716.586 2.275-.003.384-.248.675-.296 1.036-.034.033-.506-.564-.695-.637-.24-.094-.51.022-.686-.203l.988-.491c.205-.222-.193-1.565-.2-1.978-.015-.826.11-1.24-.147-2.118-.079-.27-.48-1.263-.637-1.436-.194-.215-.607-.117-.793-.39.257-.308.427-.732.393-1.135-.27-.044-1.06.125-1.185-.149-.145-.319.196-.197.302-.31.089-.093.405-.635.392-.767-.014-.133-.158-.234-.176-.33-.076-.403-.042-.804-.28-1.198-.037-.06-.743-.733-.29-.6.515.152.85.95 1.138 1.331.147.195.564.477.64.644.128.281.007.633.057.93.049.295.3.572.192.943M169.249 304.262c-.098.106-1.607-.876-1.809-1.005-2.358-1.516-5.8-4.12-7.576-6.248-.092-.111-.239-.16-.196-.345.097-.1.821.582.955.673 1.97 1.338 4.463 2.754 6.63 3.738.546.249 2.21.73 2.544 1.01.12.102.153.168.13.327-.081.53-.69 1.261-.678 1.85M167.308 215.88c.316-.276.86-1.02 1.03-.26.393 1.757-1.252 3.297-2.497 4.271-.962.754-2.085 1.334-3.062 2.07-.262-.159.116-.45.218-.668.438-.93.808-1.89 1.212-2.835 1.113-.765 2.104-1.71 3.099-2.578M163.317 308.206c-.346.092-.273-.135-.434-.294a51.7 51.7 0 0 1-6.772-8.189c.185-.043.235.104.346.197.835.7 1.67 1.6 2.517 2.32 1.6 1.363 3.261 2.661 5.093 3.698zM191.476 241.995c-.424.108-.78-.14-1.144-.19-4.573-.62-9.09-1.431-13.54-2.152-.215-.035-.656.217-.923-.075.42-.415.973.003 1.338.043 4.074.45 8.266.349 12.345.892.334.045.827-.1 1.092.094.13.095.928 1.295.832 1.388M169.486 229.208c-1.47.797-3.02 1.43-4.591 2.073-.132.054-.318.168-.288-.09 1.215-.63 2.422-1.298 3.547-2.082 1.105-.77 3.779-2.774 3.964-4.132.13-.954-.273-1.07-.59-1.82.659-.597 1.748.305 1.945.953.732 2.409-2.236 4.148-3.987 5.098M183.376 235.582c.7-.036 1.425.046 2.124 0 3.218-.214 6.794-.639 9.983-1.081.257-.036.893-.061 1.08.094.075.062.656 1.162.643 1.23-.02.102-.231.17-.341.156-4.027-.03-8.051.109-12.058-.202-.44-.034-1.153.162-1.431-.197M142.972 287.783c.017.204-.035.438.005.636.675 3.325.307 6.241-.846 9.428-.046.128-.052.261-.049.395l-.272-.171c-.12-.58-.383-1.26-.813-1.703-.346 1.184-.768 2.228-1.4 3.288l-.576.757c.049-1.296.916-2.5 1.234-3.752.083-.326.094-.886.154-1.225.075-.42.323-.818.193-1.338.222-.052.16.031.226.123.314.435.654 1.146.861 1.653.305.227.48-1.245.52-1.404.476-1.963.636-3.562.57-5.656-.012-.347-.343-.992.193-1.031M171.263 221.21c-1.311 1.594-3.31 2.834-5.108 3.83-.193.106-1.138.664-1.252.574-.178-.142.14-.22.185-.256 1.597-1.302 4.694-3.46 5.223-5.543.157-.618-.642-1.489-1.259-1.603.147-.815 1.92-.106 2.32.2.78.597.685 1.805.174 2.543-.091.132-.215.173-.283.256M155.502 308.288h-.265c-1.857-2.563-3.551-5.289-4.658-8.269l5.78 6.813c.173.307-.207.433-.347.637-.168.243-.32.57-.51.82M190.39 219.99l.059-.292c.074.024.16.061.236.033 3.196-1.209 6.366-3.103 9.482-4.53.325-.059 2.87-.165 2.865.2-4.126 1.77-8.382 3.189-12.642 4.588M151.467 281.565c-.2.052-.23-.113-.333-.209-2.926-2.694-5.19-4.633-9.037-5.972-.29-.101-2.181-.562-2.185-.677.233-.341.424.016.644.046 2.343.318 4.712.83 6.813 2.075 1.865 1.106 3.206 2.786 4.098 4.737M173.2 242.686c-.113-.358.749-.13.929-.088 3.62.84 7.295 1.746 10.885 2.745.318.088.704-.057.98.304.054.072.555 1.07.544 1.132-.016.083-.213.205-.323.128zM132.105 283.638c-.583 1.515-.581 3.36-.498 4.987.112 2.164 1.083 4.187.074 6.381-.145.316-.394.738-.661.967-.09-.383.365-.944.383-1.229.199-3.257-1.588-6.364-.325-9.616.06-.152.81-1.714 1.027-1.49M162.236 236.469c-.076-.325.278-.154.515-.225 2.396-.716 7.401-2.527 8.052-5.18.08-.326-.133-.937.45-.797.344.083.38.801.36 1.105-.176 2.79-4.086 4.065-6.375 4.593-.65.15-1.41.177-2.059.312-.28.058-.546.322-.943.192M195.922 211.405c.055.28-.082.157-.213.228-2.794 1.515-5.982 2.886-8.922 4.116-.735.308-1.488.505-2.174.886l-.049-.244c2.339-1.117 4.572-2.45 6.803-3.764.811-.478.998-.837 1.991-1.07.095-.022.213-.152.242-.152zM182.388 211.404c-.16-.15 1.14-.937 1.276-1.044 1.804-1.403 3.608-2.94 5.344-4.43.506-.435.906-1.149 1.626-1.237.582-.072 1.069-.055 1.118.63l-4.197 3.004zM126.079 261.14c.053.256-.048.153-.141.207-.807.467-1.286.382-2.179.383-2.055.003-4.01.208-6.001.718-.442.113-.906.258-1.314.47l-.395-.496c-.327.276-.643.09-.873.127-.339.055-.877.272-1.22.343-.174.036-.347.03-.52.023-.055-.275.072-.16.21-.23 2.113-1.075 6.534-1.602 8.923-1.747 1.213-.074 2.322.137 3.51.201M149.692 292.614l-.003-.144.147-.147c.444.257 1.8.645 2.265.589.695-.084 1.249-.582 1.141-1.324-.085-.588-.441-1.707-.658-2.306-.333-.92-.836-1.787-1.313-2.635-.022-.067.093-.072.146-.048.08.036 1.055 1.127 1.18 1.288.866 1.112 2.634 4.078 1.635 5.37-.378.49-1.32.403-1.928.35-.966-.083-1.708-.77-2.612-.993M118.769 281.96c-.512-.2-.962-.534-1.46-.76-.985-.448-2.219-.972-3.28-.967.246.373.567.78.647 1.23.03.168.023.52.023.52-.994-1.07-2.343-2.175-3.665-2.807-.133-.064-.957-.472-.957-.472l5.3 1.168 1.712.608c.225-.216-1.84-1.886-1.974-2.122.502-.067 1.265.477 1.67.798a6.2 6.2 0 0 1 1.984 2.804M80.044 226.502c-1.962-.576-4.2-1.74-4.978-3.76-.059-.152-.282-.818-.257-.925.079-.327.445.162.56.229.728.428 1.504.778 2.208 1.248zM129.636 291.137c-3.709-.256-7.567-2.479-10.227-4.931-.13-.12-1.23-1.19-1.134-1.284l2.022 1.482c4.212 3.278 9.339 4.733 9.339 4.733M148.757 308.054c-.956-1.543-1.781-4.358-2.267-6.172-.044-.166-.096-.299-.06-.481l3.642 5.79-1.123 1.213c-.122-.087-.12-.234-.192-.35M79.885 231.796c.105.202.267.508.416.717 1.12 1.574 4.104 2.648 5.867 3.315-.28.364-.602.022-.86-.028-2.248-.432-5.991-1.31-6.542-4.024-.22-1.082.368-.428.989-.395.106.075.062.286.13.415M83.453 243.87c.035.009.173.163.148.196-.123.005-.233.076-.355.09-2.097.25-4.119.508-6.213.702-.816.076-1.596.3-2.422.097.094-.212-.11-1.085.149-1.085zM111.425 296.994c.079.065.099.2.238.302.252.184 1.252.696 1.531.743.92.154 1.71-.282 2.615-.25l.194.65c-.504-.136-.914.152-1.33.201-1.388.165-2.674-.603-3.757-1.385-.305-.22-.513-.574-.87-.808-.361-.238-.678-.422-1.056-.178l-.2-.69-1.134.59c-.317-.209.023-.334.046-.545.064-.587.022-1.124-.39-1.576.162-.272.497-.023.683.106 1.214.838 2.295 1.895 3.43 2.84" style="fill:#fff;stroke-width:0"></path><path d="M130.312 292.733c.618 1.554-.077 3.386-1.315 4.433l-1.04.188 1.482-4.638zM88.392 240.219c-.045-.005-.182-.158-.316-.177-1.723-.251-3.667-.558-4.77-2.143-.135-.194-.611-1.147-.4-1.284.775-.502 1.224.822 1.58 1.19.862.894 3.77 1.883 5.016 2.193.249.062.698-.113.62.22-.554-.044-1.188.062-1.73 0M160.655 240.218c-.08-.33.372-.161.62-.22 1.29-.3 3.067-.757 4.207-1.322.824-.407 1.869-.952 1.805-1.996.197-.095.697-.212.833-.02.252.888-.209 1.577-.896 2.079-1.094.798-3.993 1.328-5.331 1.483-.387.045-.841-.038-1.238-.004M81.922 230.942c-.155.019-.213.085-.383.047-.685-.154-2.29-.87-2.94-1.216-1.312-.699-2.64-1.915-2.115-3.522.12-.095.916.36 1 .49.143.223.092.604.25.936.195.411.814 1.096 1.175 1.391.89.73 2.074 1.212 3.013 1.874M158.382 251.37c-.005-.494.722-.025.934.005.523.073 2.134.06 2.676-.002.13-.015.938-.213 1.031-.253.742-.318-.018-1.672.004-2.217 1.771.958 1.751 3.71-.737 3.35-1.187-.173-2.334-.497-3.491-.856-.137-.043-.277-.032-.417-.028M161.742 253.344c.203-.235.771 1.057.794 1.229.453 3.399-4.166 1.236-5.732.596.223-.334.423.006.645.044.835.144 2.025.307 2.86.301.158 0 .944-.085 1.066-.119.79-.22.23-1.892.367-2.051M163.52 244.759c1.078-.016 2.064 2.154 1.078 2.803-.51.335-2.363.333-3.008.258-.245-.028-.4-.17-.594-.195-.18-.023-1.627-.034-1.623-.252.281-.343.723-.042 1.035-.05.683-.015 2.564-.145 3.104-.45 1.07-.606.38-1.312.008-2.114M94.27 244.066c-.151-.012-.298.082-.444.08-1.15-.012-3.56-.356-4.581-.832-.782-.364-1.814-1.172-1.792-2.108.818-.179.805.309 1.237.69 1.45 1.28 3.444 1.524 5.234 1.975.137.034.308-.003.346.195M88.145 247.423c.053.31-.096.15-.244.195-1.82.568-4.011 1.274-5.857 1.653-.141.03-.866.155-.911.124l-.089-.929.152-.14zM159.827 260.016c-.027.042-.389.403-.425.415-.918.285-2.772-.632-3.607-1.099-.074-.041-.845-.406-.672-.56.958.375 1.951.527 2.92.782.795.277 1.565-.559 1.423-1.32-.029-.155-.465-.775-.047-.844.544.724.942 1.792.408 2.626M149.466 258.449c-.542.544-2.247.626-2.982.721-.353.046-.77.34-1.24.192-.073-.337.238-.14.44-.201.74-.225 1.742-.446 2.412-.749.967-.436 1.483-1.13.4-1.853-.125-.083-1.593-.622-1.276-.946.493.133 2.94 1.03 2.845 1.607-.19.33-.332.961-.599 1.229M160.704 243.771c-.033-.008-.151-.134-.148-.196l1.306-.226c.766-.458 2.11-.486 1.834-1.679-.08-.343-.493-.439-.422-.762.941.148 2.265 1.68 1.09 2.374-.212.125-1.607.49-1.783.49-.445 0-1.537.086-1.877 0M121.634 298.736v-1.53c0-.032.127-.46.156-.535.511-1.319 2.273-2.06 2.388-.151l-.14.127c-.686.011-1.32.401-1.696.97-.242.366-.283 1.031-.708 1.119M143.17 263.507l.166-.278 1.837-.319c.287-.327 1.197-.398 1.402-.885.395-.935-.764-1.345-1.323-1.831-.113-.099-.243-.153-.205-.337.182-.16 2.402 1.132 2.518 1.382.146.318-.13.793-.321 1.059-.883 1.227-2.718 1.05-4.074 1.209M140.108 267.553c-.157-.119-.002-.18.146-.197.82-.093 1.988-.355 2.77-.688.272-.116.687-.297.824-.558.546-1.042-.61-1.3-1.148-1.883-.101-.109-.178-.063-.123-.325.092-.1 2.262 1.26 2.322 1.38.267.544-.545 1.512-1.048 1.718-.653.268-1.344.262-2.01.36-.182.028-.329.169-.504.188-.4.042-.827-.018-1.23.005M148.513 251.755c-.014-.164-.086-.324.139-.288.331.053 1.46.498 1.813.658.344.155 1.05.499 1.005.964-.008.08-.394 1.063-.455 1.134-.336.388-1.699.602-2.235.728-.336.08-.526.127-.897.189-.134.022-.292.192-.414.177-.138-.017-.185-.177.008-.286.742-.42 3.417-.764 3.149-1.997-.103-.471-1.638-1.124-2.113-1.28M157.197 261.238c-.093.327.153.58.193.844.103.692-.373 1.684-1.08 1.876-.665.18-2.459-.886-3.063-1.29-.04-.2.077-.175.22-.123.695.252 2.194.666 2.866.346.212-.101.36-.424.436-.65.12-.358.031-.993.428-1.003M118.86 293.105l-.288.006c-.024-.335.037-.7-.006-1.03-.063-.49-.338-1.293-.381-1.79-.096-1.096.053-2.29-.008-3.396.1-.112.78.566.796.745-.66 1.77.33 3.663-.113 5.465M148.8 251.073v-.295c.13.001.274.006.396-.046.407-.176 1.441-.666 1.766-.903.313-.229.403-.47.287-.857-.134-.448-1.398-.776-1.825-1.038-.132-.081-.268-.113-.228-.314l2.296.715c.716.265.751 1.442.214 1.842-.215.16-2.799 1.005-2.905.896M142.182 303.374c.21-.242.597 1.14.655 1.27.147.32 1.024 1.888 1.027 2.039.004.23-.958.519-1.162.514-.492-.01-.284-.937-.33-1.3-.031-.236-.171-.436-.191-.697-.045-.591.034-1.23.001-1.826M119.066 296.268c-.068-.351.238-.563.18-.91-.07-.421-.393-1.03-.674-1.358.42-.118.751-.098 1.154.08.24.23 1.64 1.093 1.694 1.271.082.268-.017.463-.23.62l-.876-.579c-.413.306-.671.85-1.248.876M145.96 293.486c-.111-.163.008-.393.171-.274.009.006-.024.13.078.189.32.182.939.448 1.292.564.165.054 1.252.334 1.34.33.616-.034.568-.82.256-1.183.369-.27 1.177 1.35 1.146 1.679l-.158.246c-.486.292-2.177-.394-2.698-.662-.179-.091-1.38-.82-1.427-.889M116.835 295.422c.139-.19.892-.881 1.097-.89.259-.01.738.416.705.703-.022.19-1.233.949-1.494 1.334-.241.356-.283.814-.498 1.178-.526-.558-.235-1.743.19-2.325M148.77 296.004c.292.312.319 1.194.085 1.553-.384.59-.587.275-.998.286-.669.018-.726.106-1.443-.128-.335-.109-1.955-.852-2.058-1.102-.072-.175.062-.171.205-.106.824.374 1.951.984 2.9.84.894-.135 1.052-.637.945-1.472.044-.048.303.062.365.129M154.135 264.395v1.53c0 .097-.358.69-.49.794-.872.692-2.113-.35-2.87-.794l.15-.248 1.387.39c1.173.135 1.344-.504 1.627-1.428.046-.15-.115-.295.196-.244M143.465 272.191c.057.518-.008.875-.391 1.237-1.051.993-2.734-.24-3.856-.548-.007-.179-.05-.206.147-.196.452.021 1.028.325 1.407.375.075.01 1.445-.02 1.52-.033.042-.008.72-.341.75-.37.13-.115.109-.522.423-.465M150.973 267.554c.155.673-.237 1.953-.962 2.146-.74.197-1.97-.721-2.494-1.21.815.019 2.375.749 2.946-.115.15-.227.18-.493.29-.696.063-.115-.004-.167.22-.125M106.98 294.527c.687.807-.499.906-.953 1.397l-.791 1.43c-.025-.509-.1-1.118.006-1.622.134-.641 1.124-1.925 1.737-1.205M149.294 247.128c.535-.196 2.495-1.15 2.648-1.65.243-.797-1-.977-1.46-1.364-.158-.133-.063-.13.05-.244.444.187 1.79.557 1.97.99.69 1.655-2.071 1.864-2.983 2.445zM147.417 270.02c.114.806-.546 1.795-1.357 1.953-.747.146-1.687-.702-2.297-1.067l.148-.197c.842.33 2.075.739 2.816.052zM115.707 303.965l.15-.585c-.353-.382-.63-.837-.94-1.24-.136-.176-1.193-1.233-.988-1.43.709-.142.676.446.988.838.62.78 1.759 1.291 1.73 2.418-.135.215-.703-.096-.94 0M102.765 298.835l-.301-.044-.078-.12c-.143-.818.102-1.733.82-2.21.435-.29.607.375.638.729-.518.408-1.121.928-1.079 1.645M124.302 308.406c-.174-.146.788-.626.89-.738.327-.358.38-1.05 1.031-.939.787.134.057.943-.293 1.183-.225.154-1.456.638-1.628.494M137.835 299.624c.061 1.027-.675 2.286-1.341 3.051-.099.113-.153.243-.338.205-.216-.25 1.03-2.208 1.226-2.574.127-.239.104-.693.453-.682M115.875 304.772c.11-.031.234-.045.332.026.459.561-1.004 2.098-1.436 2.03-.365-.057.314-.602.38-.703.23-.352.296-1.234.724-1.353M152.395 242.726a5.3 5.3 0 0 1-1.816.848l.544-.492c.442-.21 1.336-.697 1.487-1.18.084-.27-.047-.587.192-.794.24.278.17 1.204-.05 1.431-.065.068-.24.1-.357.187M118.967 297.849c-.013.467-.368.178-.641.188-.317.01-.652.329-1.039.205l.4-1.081c.244-.167.883.766 1.28.688M105.433 300.907c.045.287-.106.553-.102.834 0 .088.279 1.102-.045.941-.445-.559-1.142-1.969.147-1.775M96.245 280.086l-1.234 2.267c-.391.017.212-1.323.308-1.467.084-.126.813-.911.926-.8M106.322 299.624c.062.365-.235.628-.454.875l-.83-.284c-.18-.243 1.028-.778 1.284-.59M104.543 295.776c-.038.167.132.644-.148.593-.204-.013-.682-.534-.542-.692zM88.639 247.226v.295h-.394v-.146c.104-.155.212-.172.394-.15M159.865 240.22h.691v.097h-.691zM172.707 242.292h.295v.196h-.295zM102.267 272.784c.033.447-.418 1.01-1.185 1.01a.75.75 0 0 1-.709-.525l.116-.07a.609.609 0 1 0 .845-.837q.065-.1.126-.207c.503-.032.78.272.807.629" style="fill:#fff;stroke-width:0"></path><path d="M120.55 272.831c-.666-.608-1.64-1.24-2.475-1.575-.493-.194-.996-.287-1.476-.495 1.064-.448 2.228-1.04 3.378-1.056l.965-.324c-.845-.822-2.017-1.035-3.108-1.34l-2.473-.092c-.118-.211.956-.651 1.114-.762l2.589-1.063a.73.73 0 0 0-.338-.256c-.993-.42-3.005-.638-4.062-.49-.178.023-1.162.38-1.23.299l.068-.299c.483-.417 1.183-.98 1.562-1.475.078-.098.194-.126.149-.297-1.439-.005-2.87.473-4.248.887l1.272-1.739.11-.43c-.396.162-.741.41-1.136.591-3.564 1.634-7.523 2.576-10.838 4.742-1.388.907-3.919 3.094-4.628 4.576-.065.139-.34 1.043-.28 1.131.212.307.733-.012.879-.284.057.701.613.9.97 1.345.277.339.991 1.932 1.17 1.992.654.222 1.293-.346 1.859-.577 1.315-.54 2.52-1.008 3.954-1.182.143-.017.425-.037.543.048l-.79 1.186-1.184 1.232 4.791-2.17c.194-.037.191.074.1.2-.183.253-.867.628-1.151.826-.056.04-.355.11-.184.257.043.035.898-.327 1.067-.365 2.756-.623 5.387-.708 8.139 0 .143.035.654.138.573.365-1.12-.078-2.16-.29-3.315-.201-.34.025-.576.173-.883.2-.46.043-.968-.032-1.433.003-.028.02.052.126.098.148.073.035 1.39.211 1.632.244 2.505.324 4.314.608 6.733 1.661l1.515.807c.241-.274-1.218-2.287-1.484-2.614.432.003.875.28 1.275.405.15.05.241.103.209-.108l-1.983-1.772-1.77-.894c.113-.174.266-.139.437-.154 1.374-.118 2.752.108 4.105.156.083.003.302.048.295-.1-.003-.08-.931-1.048-1.082-1.187m-14.301-3.596-3.094 2.307c-.01.314-.043.59-.09.835-.242 1.259-.893 1.637-.981 1.683 1.372-.59 1.274-2.362 1.274-2.362.27.076.131.96.073 1.206-.08.34-.63 1.131-.913 1.36-.623.505-1.868.518-2.545.1-.113-.07-.085-.261-.32-.304-.346-.06-.49.166-.784.209-.234.033-.958.03-1.185-.01-.566-.103-1.046-1.159-.596-1.377.206-.098.11.276.247.442.477.596 2.168-.211 2.668-.586.82-.615 1.29-1.71 2.136-2.306.206-.146 1.72-.885 1.81-.807.177.148-.135.219-.186.254-.261.196-.96.482-.553.731l3.212-1.674zM102.084 274.06l-.01.005zM40.853 42.071V29.886h3.713q1.516 0 2.22.64.683.655.683 2.226 0 1.175-.249 1.742-.306.759-1.223 1.123.946.187 1.354.935.41.747.409 1.902 0 1.637-.654 2.575-.747 1.042-2.446 1.042zm2.682-10.108v2.747h.498q.57 0 .783-.417.15-.335.15-1.005 0-.686-.175-1.005-.175-.32-.658-.32zm0 4.726v3.305h.556q.597 0 .803-.32.185-.35.184-1.34 0-.795-.142-1.146-.206-.498-.788-.499zM49.53 42.071V29.886h5.962v2.353h-3.28v2.419h2.875v2.352h-2.875v2.709h3.407v2.352zM57.397 38.744v-5.53q0-1.728.976-2.65.917-.871 2.481-.871 1.544 0 2.505.9.945.894.945 2.62v1.124h-2.682v-1.37q0-.438-.085-.699-.177-.41-.683-.41-.482 0-.676.395-.099.32-.1.715v6.021q0 .552.18.857.17.26.596.26.477 0 .669-.432.1-.32.1-.685v-1.786h2.681v1.54q0 1.617-.93 2.561-.933.96-2.52.96-1.579 0-2.51-.945-.947-.945-.947-2.575M65.32 42.071l2.156-12.185h3.557l2.184 12.185h-2.81l-.25-2.166h-1.876l-.278 2.166zm3.237-4.332h1.337l-.625-5.962zM74.569 42.071V29.886h4.225l.76 6.037.783-6.037h4.225v12.185h-2.589v-9.468l-1.529 9.468h-1.75l-1.5-9.468-.029 9.468zM86.41 42.071V29.886h5.962v2.353h-3.28v2.419h2.875v2.352h-2.875v2.709H92.5v2.352zM93.822 42.071l2.262-6.573-2.126-5.612h2.88l.918 3.462.96-3.462h2.789l-2.148 5.702 2.276 6.483h-2.81l-1.138-3.938-1.081 3.938zM107.15 42.071V29.886h2.682v4.563h1.544v-4.563h2.682v12.185h-2.682v-5.188h-1.544v5.188zM115.83 38.744v-5.53q0-1.728.975-2.65.918-.871 2.481-.871 1.544 0 2.505.9.945.894.945 2.62v5.53q0 1.617-.93 2.561-.932.96-2.52.96-1.578 0-2.51-.945-.947-.945-.947-2.575m2.681-5.776v6.021q0 .552.178.857.171.26.597.26.478 0 .669-.432.1-.32.1-.685v-6.021q0-.44-.085-.7-.178-.41-.684-.41-.482 0-.675.395-.1.32-.1.715M128.703 38.744v-5.53q0-1.728.975-2.65.918-.871 2.482-.871 1.544 0 2.504.9.946.894.946 2.62v1.124h-2.682v-1.37q0-.438-.085-.699-.178-.41-.683-.41-.483 0-.676.395-.1.32-.1.715v6.021q0 .552.179.857.171.26.597.26.477 0 .668-.432.1-.32.1-.685v-1.786h2.682v1.54q0 1.617-.931 2.561-.931.96-2.52.96-1.577 0-2.51-.945-.945-.945-.946-2.575M137.38 42.071V29.886h2.682v4.563h1.543v-4.563h2.682v12.185h-2.682v-5.188h-1.543v5.188zM146.145 42.071V29.886h2.681v12.185zM154.956 42.071V29.886h4.225l.76 6.037.783-6.037h4.225v12.185h-2.589v-9.468l-1.529 9.468h-1.75l-1.5-9.468-.029 9.468zM166.885 42.071V29.886h2.682v12.185zM171.43 42.071V29.886h2.931l2.155 7.183.028-7.183h2.597v12.185h-2.917l-2.169-7.533-.029 7.533zM180.91 42.071V29.886h2.682v4.563h1.543v-4.563h2.682v12.185h-2.682v-5.188h-1.543v5.188zM193.785 38.744v-5.53q0-1.728.975-2.65.918-.871 2.482-.871 1.544 0 2.504.9.946.894.945 2.62v1.124h-2.681v-1.37q0-.438-.085-.699-.179-.41-.683-.41-.483 0-.676.395-.1.32-.1.715v6.021q0 .552.179.857.171.26.597.26.477 0 .668-.432.1-.32.1-.685v-1.786h2.681v1.54q0 1.617-.93 2.561-.932.96-2.52.96-1.578 0-2.51-.945-.945-.945-.946-2.575M202.548 42.071V29.886h2.682v12.185zM206.652 32.239v-2.353h6.153v2.353h-1.736v9.832h-2.682v-9.832zM215.84 37.255l-2.183-7.369h2.767l.747 4.116.81-4.116h2.725l-2.184 7.168v5.017h-2.682zM81.467 60.46V48.275h5.599v2.352h-2.917v2.419h2.611v2.352h-2.611v5.062zM88.516 57.132v-5.53q0-1.728.976-2.65.917-.87 2.481-.87 1.543 0 2.505.9.945.892.945 2.62v5.53q0 1.615-.93 2.56-.933.96-2.52.961-1.579 0-2.51-.945-.948-.946-.947-2.576m2.682-5.776v6.022q0 .551.178.856.171.26.597.26.477 0 .669-.431.1-.32.1-.685v-6.022q0-.44-.086-.7-.178-.409-.683-.409-.483 0-.676.395-.099.32-.1.714M97.193 57.132v-5.53q0-1.728.976-2.65.917-.87 2.481-.87 1.544 0 2.505.9.945.892.945 2.62v5.53q0 1.615-.93 2.56-.933.96-2.52.961-1.578 0-2.51-.945-.947-.946-.947-2.576m2.682-5.776v6.022q0 .551.178.856.171.26.597.26.478 0 .669-.431.1-.32.1-.685v-6.022q0-.44-.085-.7-.178-.409-.684-.409-.482 0-.676.395-.099.32-.1.714M105.43 50.627v-2.352h6.153v2.352h-1.736v9.833h-2.682v-9.833zM112.92 60.46V48.275h3.713q1.515 0 2.219.64.684.655.683 2.225 0 1.176-.249 1.742-.305.76-1.223 1.124.946.186 1.354.934.41.749.41 1.902 0 1.638-.655 2.575-.746 1.044-2.446 1.043zm2.681-10.108v2.746h.499q.568 0 .783-.417.15-.334.149-1.005 0-.684-.175-1.005-.174-.32-.658-.32zm0 4.726v3.305h.556q.597 0 .803-.32.186-.35.185-1.34 0-.796-.142-1.146-.206-.5-.789-.5zM121.1 60.46l2.154-12.185h3.557l2.184 12.185h-2.81l-.249-2.166h-1.877l-.278 2.166zm3.236-4.332h1.337l-.625-5.963zM130.275 60.46V48.275h2.682v9.832h2.917v2.353zM137.323 60.46V48.275h2.682v9.832h2.917v2.353zM148.568 57.132v-5.53q0-1.728.976-2.65.917-.87 2.481-.87 1.544 0 2.505.9.945.892.945 2.62v1.124h-2.682v-1.37q0-.44-.085-.7-.178-.408-.683-.409-.482 0-.676.395-.099.32-.1.714v6.022q0 .551.18.856.17.26.596.26.477 0 .669-.431.1-.32.1-.685v-1.786h2.68v1.54q0 1.615-.93 2.56-.931.96-2.519.961-1.579 0-2.51-.945-.947-.946-.947-2.576M157.247 60.46V48.275h2.681v9.832h2.917v2.353zM164.038 57.132v-8.857h2.682v8.887q0 .64.114.93.108.306.661.306.377 0 .584-.239.185-.23.184-.997v-8.887h2.682v8.857q0 1.615-.93 2.56-.933.96-2.52.961-1.578 0-2.51-.945-.947-.946-.947-2.576M172.717 60.46V48.275h3.713q1.515 0 2.22.64.683.655.682 2.225 0 1.176-.248 1.742-.306.76-1.223 1.124.945.186 1.354.934.41.749.409 1.902 0 1.638-.654 2.575-.746 1.044-2.447 1.043zm2.681-10.108v2.746h.5q.567 0 .782-.417.15-.334.15-1.005-.001-.684-.176-1.005-.174-.32-.657-.32zm0 4.726v3.305h.556q.597 0 .804-.32.184-.35.184-1.34 0-.796-.142-1.146-.206-.5-.789-.5z" style="fill:#fff;stroke-width:0" data-source="https://football-logos.cc"></path><!-- source: https://football-logos.cc --></svg>