<svg xmlns="http://www.w3.org/2000/svg" viewBox="16.58 18.71 1735.48 1735.48"><!-- Source: https://football-logos.cc --><path fill="#e41b13" fill-rule="evenodd" d="M1752.06 886.45a867.74 867.74 0 0 1-867.74 867.74A867.74 867.74 0 0 1 16.58 886.45 867.74 867.74 0 0 1 884.32 18.71a867.74 867.74 0 0 1 867.74 867.74m-12.5.01A855.25 855.25 0 0 0 884.31 31.21 855.25 855.25 0 0 0 29.06 886.46a855.25 855.25 0 0 0 855.25 855.25 855.25 855.25 0 0 0 855.25-855.25" data-source="https://football-logos.cc"></path><path fill="#fff" fill-rule="evenodd" d="M1739.56 886.46a855.25 855.25 0 0 1-855.25 855.25A855.25 855.25 0 0 1 29.06 886.46 855.25 855.25 0 0 1 884.31 31.21a855.25 855.25 0 0 1 855.25 855.25m-293.646-135.661h-7.149a1.07 1.07 90 0 0-1.071 1.069l-.002 21.45a1 .99.007 0 0 1 .99l245.974.029a1.08 1.07.007 0 0 1.08-1.069l.003-21.47a.92.92 74.828 0 0-.92-.92l-7.38-.001a1.086 1.077-4.685 0 1-1.07-.9c-26.361-151.3-94.873-291.444-197.997-404.544-89.376-98.018-201.575-172.15-326.586-216.244-128.762-45.414-268.937-57.47-404.177-33.707q-138.389 24.313-259.185 93.007C382.91 248.485 291.692 332.152 223.032 432.461Q124.787 576.026 93.957 749.928a.996.986 4.804 0 1-.98.82l-9.15-.001a.67.66-89.993 0 0-.66.67l-.003 22.13a.69.68-89.993 0 0 .68.69l246.454.029a.85.85-44.896 0 0 .85-.85l.003-21.719a.91.91 45.071 0 0-.91-.91l-5.91-.001a.837.835-82.962 0 1-.81-1.04q24.612-99.615 80.67-183.816c72.572-109.019 180.549-190.284 305.27-230.158 106.192-33.947 220.27-36.333 328.543-6.771 125.963 34.384 237.162 111.216 313.987 216.542q67.118 92.006 94.864 204.047a.975.97 83.007 0 1-.941 1.209m-62.317 134.091a498.51 498.27-.2 0 0-500.246-496.527A498.51 498.27-.2 0 0 386.583 888.37a498.51 498.27-.2 0 0 500.246 496.527 498.51 498.27-.2 0 0 496.768-500.007M289.25 888.78a85.33 85.33 0 0 0-85.33-85.33 85.33 85.33 0 0 0-85.33 85.33 85.33 85.33 0 0 0 85.33 85.33 85.33 85.33 0 0 0 85.33-85.33m1354.58.01a85.34 85.34 0 0 0-85.34-85.34 85.34 85.34 0 0 0-85.34 85.34 85.34 85.34 0 0 0 85.34 85.34 85.34 85.34 0 0 0 85.34-85.34m-198.13 133.35a.975.97-83 0 1 .94 1.21q-27.76 112.04-94.89 204.04c-76.84 105.32-188.05 182.14-314.02 216.51-108.28 29.55-222.36 27.15-328.55-6.81-124.72-39.89-232.69-121.17-305.25-230.2q-56.05-84.21-80.65-183.83a.837.835 82.968 0 1 .81-1.04H330a.91.91-19.22 0 0 .91-.91v-21.72a.85.85 11.195 0 0-.85-.85H83.6a.69.68-90 0 0-.68.69v22.13a.67.66-90 0 0 .66.67h9.15a.996.986-4.797 0 1 .98.82q30.81 173.91 129.04 317.49c68.65 100.32 159.86 184 265.38 244.01q120.79 68.71 259.18 93.04c135.24 23.78 275.42 11.74 404.19-33.66 125.02-44.08 237.23-118.2 326.62-216.21 103.14-113.09 171.67-253.23 198.05-404.53a1.086 1.077 4.692 0 1 1.07-.9h7.38a.92.92 0 0 0 .92-.92V999.7a1.08 1.07 0 0 0-1.08-1.07h-245.98a1 .99 0 0 0-1 .99v21.45a1.07 1.07 74.811 0 0 1.07 1.07z"></path><path fill="#ffd50f" fill-rule="evenodd" d="M1445.914 750.799a.975.97 83.007 0 0 .941-1.209q-27.746-112.041-94.864-204.047c-76.825-105.326-188.024-182.158-313.987-216.542-108.273-29.562-222.351-27.176-328.543 6.771-124.721 39.874-232.698 121.139-305.27 230.158q-56.058 84.201-80.67 183.816a.837.835-82.962 0 0 .81 1.04l5.91.001a.91.91-45 0 1 .91.91l-.003 21.719a.85.85-44.965 0 1-.85.85l-246.454-.029a.69.68-89.993 0 1-.68-.69l.003-22.13a.67.66-89.993 0 1 .66-.67l9.15.001a.996.986 4.804 0 0 .98-.82q30.83-173.902 129.075-317.467c68.66-100.309 159.878-183.976 265.402-243.972q120.796-68.694 259.185-93.007c135.24-23.763 275.415-11.707 404.177 33.707 125.011 44.094 237.21 118.226 326.586 216.244 103.124 113.1 171.636 253.244 197.997 404.544a1.086 1.077-4.685 0 0 1.07.9l7.38.001a.92.92-56.272 0 1 .92.92l-.003 21.47a1.08 1.07.007 0 1-1.08 1.069l-245.974-.029a1 .99.007 0 1-1-.99l.002-21.45a1.07 1.07 89.854 0 1 1.071-1.069zm-559.94-600.464a.68.68-62.137 0 0 .505-.237l20.275-23.591a.68.68-5.303 0 0-.527-1.123l-26.236.42a.68.68-36.436 0 0-.567.322l-14.568 23.506a.68.68-19.607 0 0 .589 1.038zm-27.654 5.454a.89.89 8.767 0 0-.851.682l-24.662 102.873a.89.89 6.049 0 0 .88 1.097l26.053-.42a.89.89 7.429 0 0 .851-.682l3.418-14.248a.89.89-46.933 0 1 .851-.682l22.632-.368a.89.89 31.31 0 1 .875.664l3.716 14.15a.89.89-15.673 0 0 .875.664l26.754-.431a.89.89 49.663 0 0 .844-1.125l-28.033-102.058a.89.89-17.534 0 0-.873-.654zm132.227 112.069 5.77-32.15a.674.671-79.611 0 1 .788-.546q9.619 1.92 18.632 3.361 5.872.933 8.804.809 15.478-.653 18.361-16.627 4.918-27.267 5.226-28.939c2.588-14.069-5.672-21.703-18.761-24.089q-11.023-2.007-48.026-8.625a.66.66 14.838 0 0-.769.533l-18.13 101.035a.924.924 18.409 0 0 .745 1.074l26.5 4.762a.744.735 9.826 0 0 .86-.598M754.93 271.98q20.62-3 48.88-7.38c6.83-1.05 14.11-4.2 17.12-10.81q2.53-5.55 1.45-12.41-3.67-23.47-8.59-57.06-1.63-11.1-3.87-14.74c-4.97-8.09-13.69-9.12-22.92-7.78q-9.16 1.33-47.77 7.2a.487.485 81.297 0 0-.41.56l6.05 40.22a.546.546-51.274 0 1-.46.62l-7.29 1.09a.962.96-8.769 0 0-.8 1.09l2.57 17.07a.75.75-21.408 0 0 .85.63l7.2-1.09a.901.899 81.278 0 1 1.02.75l6.24 41.49a.656.645 81.488 0 0 .73.55m323.008 18.083q12.285 3.96 14.763 4.78a1.253 1.24 24.699 0 0 1.454-.529l55.567-89.946a.541.537-65.487 0 0-.294-.798l-26.829-8.629a1.059 1.048-66.664 0 0-1.259.508l-32.063 60.032a.215.073-8.119 0 1-.139.071q-.033.008-.065-.002-.049-.016-.07-.042a.215.073 43.855 0 1-.072-.138l9.035-67.457a1.059 1.048-77.6 0 0-.725-1.146l-26.817-8.666a.541.537-78.778 0 0-.705.476l-7.427 105.465a1.253 1.24 11.037 0 0 .87 1.278q2.49.783 14.776 4.743M684.29 219.59a.506.5-19.837 0 0 .31-.65q-3.05-8.6-3.86-11.1c-3.93-12.16-11.07-19.39-25.26-15.83q-6.58 1.65-29.13 10.12c-11.41 4.29-18.13 12.73-13.83 25.41q4.03 11.86 21.9 61.81 2.52 7.07 8.79 10.59c5.64 3.18 13.43 1.95 19.35-.13q20.41-7.19 23.41-8.37 6.25-2.46 8.39-4.09 11.26-8.58 6.79-21.58-4.82-14.01-12.7-36.06a.437.437 59.018 0 0-.56-.26l-33.19 11.81a1.094 1.091 70.661 0 0-.67 1.4l5.48 15.41a.83.83 62.675 0 0 1.06.5l6.07-2.16a.85.85-69.152 0 1 1.08.52q3.22 9.19 5.07 14.3c.83 2.32 1.02 4.32-1.5 5.34q-3.95 1.59-8.01 2.64a1.695 1.671-38.627 0 1-1.15-.12q-1.16-.57-1.94-2.75-9.35-26.11-19.09-53.76c-.93-2.65-2.04-4.58.88-5.84q5.13-2.22 8.09-2.79a2.616 2.601-15.266 0 1 2.96 1.68l4.53 12.73a.712.702-19.078 0 0 .9.43zm541.612 19.346-55.299-26.092a.783.783-62.442 0 0-1.042.375l-43.81 92.943a.697.697-18.287 0 0 .329.93l24.629 11.636a.64.64 41.851 0 0 .851-.302l16.558-35.096a.436.436 26.165 0 1 .583-.203l25.283 11.921a1.075 1.075 27.491 0 0 1.434-.505l7.284-15.472a.689.683-64.999 0 0-.327-.907l-25.456-11.989a.658.653 25.263 0 1-.319-.877l10.071-21.397a.769.764 25.309 0 1 1.016-.359l29.489 13.901a.661.653 24.668 0 0 .877-.319l8.168-17.311a.666.661-65.206 0 0-.319-.877m-662.961 48.242a.295.29 6.578 0 1 .452-.353l43.439 36.226a1.319 1.315-38.722 0 0 1.463.158l20.342-10.478a.78.78-38.287 0 0 .334-1.052l-47.144-91.452a.633.624-27.414 0 0-.846-.262l-22.244 11.455a.564.55-27.497 0 0-.246.747l24.368 47.232a.25.248-83.859 0 1-.38.308l-43.955-36.958a1.286 1.269 51.349 0 0-1.393-.165l-20.411 10.474a.744.744-27.938 0 0-.322 1.003l47.08 91.358a.811.808 62.387 0 0 1.101.347l21.795-11.302a.839.834-27.436 0 0 .358-1.12zm-110.769 1.829a.53.53 6.796 0 0 .835.413l17.039-11.983a.53.53 19.295 0 0 .221-.373l3.618-31.39a.53.53 67.957 0 0-.832-.494l-21.747 15.294a.53.53 81.445 0 0-.225.454zm51.774-5.989a19.08 19.08 0 0 0-26.59-4.593l-27.57 19.449a19.08 19.08 0 0 0-4.593 26.589l38.021 53.899a19.08 19.08 0 0 0 26.59 4.593l27.57-19.449a19.08 19.08 0 0 0 4.593-26.589zm787.619 51.862a.74.74 0 0 0-.194-1.028l-39.603-27.016a.74.74 0 0 0-1.029.194l-9.884 14.49a.74.74 0 0 0 .194 1.028l39.603 27.016a.74.74 0 0 0 1.029-.194zM443.89 367.03q1.23-5.61-1.81-10.54c-3.68-5.98-8.32-10.43-13.49-15.98-11.49-12.31-22.1-8.75-33.04 1.36q-17.27 15.95-33.77 31.12a.573.573-37.375 0 0-.03.81l69.66 75.68a.83.83 7.246 0 0 1.17.05q32.14-29.54 35.63-32.82c9-8.45 12.34-18.74 3.68-29.1q-.66-.79-11.35-12.39c-3.16-3.43-7.39-7.26-12.33-7.75-1.42-.14-2.66.39-3.69.36a.661.66 6.85 0 1-.63-.8m927.48 63.76-19.74-18.86a.821.814-46.23 0 0-1.16.03q-7.4 7.87-10.76 11.24-2.02 2.02-4.1.38-2.79-2.19-5.66-5.44-1.93-2.18.24-4.45 32.43-33.98 41.17-43.06 2.16-2.24 4.37-.39 2.77 2.32 5.03 4.74c1.75 1.87 1.99 3.21.14 5.17q-3.95 4.19-10.97 11.49a.68.68-8.846 0 0 .02.96l19.74 18.86a.67.67 41.195 0 0 .95-.03q2.13-2.28 12.43-13.05c10.03-10.5 7.13-21.45-2.38-30.57q-14.82-14.2-17.78-16.98c-9.57-8.99-20.52-12.15-30.7-1.61q-5.2 5.38-44.33 46.4c-9.98 10.46-6.53 21.38 2.83 30.44q3.99 3.87 17.85 17.04c9.1 8.66 20.3 11.81 30.06 1.76q5.49-5.66 12.77-13.32a.538.531 43.849 0 0-.02-.75m24.275 65.118a.59.59 78.609 0 1-.013.753l-9.664 11.248a.59.59-9.219 0 0-.013.753l17.28 21.653a.59.59 39.613 0 0 .933-.013l64.017-85.077a.59.59-4.942 0 0-.01-.722l-21.079-26.395a.59.59 87.491 0 0-.703-.17l-97.109 43.67a.59.59 50.244 0 0-.22.906l16.684 20.901a.59.59-6.347 0 0 .714.165l13.606-6.45a.59.59-.98 0 1 .714.165zm-1041.989-36.87q.158-5.742-3.752-10.016c-4.736-5.185-10.128-8.688-16.246-13.172-13.594-9.941-23.35-4.456-32.204 7.526q-13.978 18.904-27.347 36.898a.573.573-38.319 0 0 .123.801l82.61 61.3a.83.83-74.039 0 0 1.159-.17q26.041-35.041 28.855-38.917c7.259-9.987 8.613-20.722-1.835-29.277q-.797-.653-13.472-10.046c-3.746-2.778-8.619-5.748-13.564-5.304-1.422.128-2.54.881-3.558 1.045a.661.66-3.945 0 1-.769-.668m1053.516 77.128a.34.34 72.537 0 0-.118.466l13.042 21.936a.34.34-60.914 0 0 .466.118l45.575-27.104a.34.34-51.239 0 1 .446.496l-34.636 46.03a.34.34 75.085 0 0-.02.378l12.419 20.882a.34.34 19.959 0 0 .466.118l89.056-52.942a.34.34-29.971 0 0 .118-.466l-13.042-21.936a.34.34 75.746 0 0-.466-.118l-45.896 27.285a.34.34 39.77 0 1-.445-.497l34.866-46.33a.34.34 25.743 0 0 .021-.378l-12.34-20.762a.34.34-43.641 0 0-.466-.118zm-1173.636 13.85 89.764 51.17a.532.525-60.153 0 0 .715-.199l29.56-51.842a.667.66 29.905 0 0-.248-.9l-16.711-9.545a.589.582 29.52 0 0-.804.217l-15.305 26.807a.83.823-60.155 0 1-1.123.309l-71.633-40.85a.526.525 29.379 0 0-.725.202l-13.671 23.973a.49.483-60.764 0 0 .181.658m1312.936 22.477-94.993 40.127a.61.61 26.087 0 0-.324.799l19.709 46.658a20.72 19.63 67.1 0 0 26.145 11.449l59.951-25.325a20.72 19.63 67.1 0 0 10.02-26.725l-19.709-46.658a.61.61-30.239 0 0-.799-.325M282.483 597.15l-10.598 25.158a.821.813 22.919 0 0 .441 1.073q9.988 4.114 14.333 6.054 2.606 1.169 1.814 3.696-1.053 3.387-3.069 7.225-1.35 2.58-4.243 1.36-43.294-18.21-54.89-23.146-2.862-1.221-1.919-3.944 1.182-3.414 2.639-6.387c1.124-2.301 2.291-3.002 4.781-1.971q5.321 2.2 14.641 6.161a.68.68 82.839 0 0 .89-.36l10.597-25.158a.67.67-47.734 0 0-.366-.877q-2.888-1.179-16.618-6.971c-13.381-5.635-22.581.972-27.719 13.104q-7.994 18.902-9.538 22.658c-4.995 12.142-4.05 23.499 9.422 29.26q6.878 2.944 59.135 24.909c13.326 5.603 22.302-1.507 27.437-13.478q2.196-5.106 9.569-22.744c4.854-11.586 3.811-23.172-9.053-28.716q-7.243-3.115-16.992-7.192a.538.531-67.002 0 0-.694.286"></path><path fill="#e41b13" fill-rule="evenodd" d="m885.974 150.335-20.529.335a.68.68-29.047 0 1-.589-1.038l14.568-23.506a.68.68-30.175 0 1 .567-.322l26.236-.42a.68.68 50.207 0 1 .527 1.123l-20.275 23.591a.68.68-30.84 0 1-.505.237M858.32 155.789l33.33-.538a.89.89 26.539 0 1 .873.654l28.033 102.058a.89.89 40.493 0 1-.844 1.125l-26.754.431a.89.89 18.901 0 1-.875-.664l-3.716-14.15a.89.89-28.529 0 0-.875-.664l-22.632.368a.89.89-77.049 0 0-.851.682l-3.418 14.248a.89.89 43.787 0 1-.851.682l-26.053.42a.89.89-2.785 0 1-.88-1.097l24.662-102.873a.89.89 39.138 0 1 .851-.682m9.737 67.814a.31.31 85.762 0 0 .308.371l15.089-.211a.31.31 3.689 0 0 .298-.38l-8.029-34.573a.31.31-73.092 0 0-.606.009zM990.547 267.858a.744.735 9.826 0 1-.86.598l-26.5-4.762a.924.924 18.436 0 1-.745-1.074l18.13-101.035a.66.66 37.207 0 1 .769-.533q37.003 6.618 48.026 8.625c13.089 2.386 21.349 10.02 18.761 24.089q-.308 1.672-5.226 28.939-2.883 15.974-18.361 16.627-2.932.124-8.804-.809-9.013-1.441-18.632-3.361a.674.671-79.611 0 0-.788.546zm14.564-81.081-4.965 27.597a.57.57 89.099 0 0 .46.662l10.737 1.932a3.6 3.48-79.8 0 0 4.063-2.927l3.892-21.633a3.6 3.48-79.8 0 0-2.788-4.159l-10.737-1.932a.57.57-73.912 0 0-.662.46M754.93 271.98a.656.645 81.488 0 1-.73-.55l-6.24-41.49a.901.899 81.278 0 0-1.02-.75l-7.2 1.09a.75.75 24.364 0 1-.85-.63l-2.57-17.07a.962.96-8.769 0 1 .8-1.09l7.29-1.09a.546.546-39.111 0 0 .46-.62l-6.05-40.22a.487.485 81.297 0 1 .41-.56q38.61-5.87 47.77-7.2c9.23-1.34 17.95-.31 22.92 7.78q2.24 3.64 3.87 14.74 4.92 33.59 8.59 57.06 1.08 6.86-1.45 12.41c-3.01 6.61-10.29 9.76-17.12 10.81q-28.26 4.38-48.88 7.38m21.26-46.81 3.28 21.76a.679.678-8.778 0 0 .78.57q5.91-.95 10.52-1.76 3.14-.55 2.63-4.01-7.07-47.86-8.45-55.7-.56-3.18-3.7-2.66-7.6 1.26-10.24 1.44a.864.863-6.474 0 0-.79.99l2.95 19.65a.628.627 81.147 0 0 .71.52l7.27-1.09a.972.97-8.502 0 1 1.11.82l2.55 16.9a.85.85-66.526 0 1-.72.96l-7.56 1.14a.416.406 81.574 0 0-.34.47M1077.938 290.063q-12.286-3.96-14.776-4.743a1.253 1.24 11.037 0 1-.87-1.278l7.427-105.465a.541.537-78.778 0 1 .705-.476l26.817 8.666a1.059 1.048-77.6 0 1 .725 1.146l-9.035 67.457a.215.073 43.855 0 0 .072.138q.021.026.07.042.032.01.065.002a.215.073-8.119 0 0 .139-.071l32.063-60.032a1.059 1.048-66.664 0 1 1.259-.508l26.829 8.629a.541.537-65.487 0 1 .294.798l-55.567 89.946a1.253 1.24 24.699 0 1-1.454.529q-2.478-.82-14.763-4.78"></path><path fill="#ffd50f" fill-rule="evenodd" d="M776.19 225.17a.416.406 81.574 0 1 .34-.47l7.56-1.14a.85.85-87.777 0 0 .72-.96l-2.55-16.9a.972.97-8.502 0 0-1.11-.82l-7.27 1.09a.628.627 81.147 0 1-.71-.52l-2.95-19.65a.864.863-6.474 0 1 .79-.99q2.64-.18 10.24-1.44 3.14-.52 3.7 2.66 1.38 7.84 8.45 55.7.51 3.46-2.63 4.01-4.61.81-10.52 1.76a.679.678-8.778 0 1-.78-.57zM1005.111 186.777a.57.57-45.018 0 1 .662-.46l10.737 1.932a3.6 3.48-79.8 0 1 2.788 4.159l-3.892 21.633a3.6 3.48-79.8 0 1-4.063 2.927l-10.737-1.932a.57.57-49.369 0 1-.46-.662zM868.057 223.603l7.06-34.784a.31.31-12.377 0 1 .606-.009l8.029 34.573a.31.31 28.576 0 1-.298.38l-15.089.211a.31.31-61.474 0 1-.308-.371"></path><path fill="#e41b13" fill-rule="evenodd" d="m684.29 219.59-25.83 9.2a.712.702-19.078 0 1-.9-.43l-4.53-12.73a2.616 2.601-15.266 0 0-2.96-1.68q-2.96.57-8.09 2.79c-2.92 1.26-1.81 3.19-.88 5.84q9.74 27.65 19.09 53.76.78 2.18 1.94 2.75a1.695 1.671-38.627 0 0 1.15.12q4.06-1.05 8.01-2.64c2.52-1.02 2.33-3.02 1.5-5.34q-1.85-5.11-5.07-14.3a.85.85 65.792 0 0-1.08-.52l-6.07 2.16a.83.83-72.249 0 1-1.06-.5l-5.48-15.41a1.094 1.091 70.661 0 1 .67-1.4l33.19-11.81a.437.437-89.057 0 1 .56.26q7.88 22.05 12.7 36.06 4.47 13-6.79 21.58-2.14 1.63-8.39 4.09-3 1.18-23.41 8.37c-5.92 2.08-13.71 3.31-19.35.13q-6.27-3.52-8.79-10.59-17.87-49.95-21.9-61.81c-4.3-12.68 2.42-21.12 13.83-25.41q22.55-8.47 29.13-10.12c14.19-3.56 21.33 3.67 25.26 15.83q.81 2.5 3.86 11.1a.506.5-19.837 0 1-.31.65M1225.902 238.936a.666.661-65.206 0 1 .319.877l-8.168 17.311a.661.653 24.668 0 1-.877.319l-29.489-13.901a.769.764 25.309 0 0-1.016.359l-10.071 21.397a.658.653 25.263 0 0 .319.877l25.456 11.989a.689.683-64.999 0 1 .327.907l-7.284 15.472a1.075 1.075 64.094 0 1-1.434.505l-25.283-11.921a.436.436 26.168 0 0-.583.203l-16.558 35.096a.64.64-9.254 0 1-.851.302l-24.629-11.636a.697.697 69.918 0 1-.329-.93l43.81-92.943a.783.783-28.51 0 1 1.042-.375zM562.941 287.178l23.791 46.166a.839.834-27.436 0 1-.358 1.12l-21.795 11.302a.811.808 62.387 0 1-1.101-.347l-47.08-91.358a.744.744-36.055 0 1 .322-1.003l20.411-10.474a1.286 1.269 51.349 0 1 1.393.165l43.955 36.958a.25.248-83.859 0 0 .38-.308l-24.368-47.232a.564.55-27.497 0 1 .246-.747l22.244-11.455a.633.624-27.414 0 1 .846.262l47.144 91.452a.78.78-65.073 0 1-.334 1.052l-20.342 10.478a1.319 1.315-38.722 0 1-1.463-.158l-43.439-36.226a.295.29 6.578 0 0-.452.353M452.172 289.007l-1.091-28.079a.53.53-69.374 0 1 .225-.454l21.747-15.294a.53.53-66.638 0 1 .832.494l-3.618 31.39a.53.53 26.301 0 1-.221.373l-17.039 11.983a.53.53 11.164 0 1-.835-.413M541.967 336.917a19.08 19.08 0 0 1-4.593 26.589l-27.57 19.449a19.08 19.08 0 0 1-26.59-4.593l-38.021-53.899a19.08 19.08 0 0 1 4.593-26.589l27.57-19.449a19.08 19.08 0 0 1 26.59 4.593zm-58.841-33.853a2.87 2.87 0 0 0-3.997-.705l-7.225 5.059a2.87 2.87 0 0 0-.705 3.997l32.855 46.921a2.87 2.87 0 0 0 3.997.705l7.225-5.059a2.87 2.87 0 0 0 .705-3.997z"></path><path fill="#ffd50f" fill-rule="evenodd" d="M515.981 349.985a2.87 2.87 0 0 1-.705 3.997l-7.225 5.059a2.87 2.87 0 0 1-3.997-.705l-32.855-46.921a2.87 2.87 0 0 1 .705-3.997l7.225-5.059a2.87 2.87 0 0 1 3.997.705z"></path><path fill="#e41b13" fill-rule="evenodd" d="M1281.681 349.37a.74.74 0 0 1-1.029.194l-39.603-27.016a.74.74 0 0 1-.194-1.028l9.884-14.49a.74.74 0 0 1 1.029-.194l39.603 27.016a.74.74 0 0 1 .194 1.028zM444.52 367.83c1.03.03 2.27-.5 3.69-.36 4.94.49 9.17 4.32 12.33 7.75q10.69 11.6 11.35 12.39c8.66 10.36 5.32 20.65-3.68 29.1q-3.49 3.28-35.63 32.82a.83.83 0 0 1-1.17-.05l-69.66-75.68a.573.573-4.578 0 1 .03-.81q16.5-15.17 33.77-31.12c10.94-10.11 21.55-13.67 33.04-1.36 5.17 5.55 9.81 10 13.49 15.98q3.04 4.93 1.81 10.54a.661.66 6.85 0 0 .63.8m-49.418.658 15.638 16.947a.28.28 31.236 0 0 .396.016l8.576-7.914a3.55 3.45 47.3 0 0 .128-4.948l-11.203-12.141a3.55 3.45 47.3 0 0-4.943-.27l-8.576 7.915a.28.28-21.359 0 0-.016.395m29.055 31.549 15.356 16.582a.58.58-58.776 0 0 .819.032l8.46-7.834a3.25 3.12-42.8 0 0 .265-4.498l-11.904-12.855a3.25 3.12-42.8 0 0-4.504-.081l-8.46 7.834a.58.58 57.521 0 0-.032.82M1371.37 430.79a.538.531 43.849 0 1 .02.75q-7.28 7.66-12.77 13.32c-9.76 10.05-20.96 6.9-30.06-1.76q-13.86-13.17-17.85-17.04c-9.36-9.06-12.81-19.98-2.83-30.44q39.13-41.02 44.33-46.4c10.18-10.54 21.13-7.38 30.7 1.61q2.96 2.78 17.78 16.98c9.51 9.12 12.41 20.07 2.38 30.57q-10.3 10.77-12.43 13.05a.67.67 78.77 0 1-.95.03l-19.74-18.86a.68.68-4.531 0 1-.02-.96q7.02-7.3 10.97-11.49c1.85-1.96 1.61-3.3-.14-5.17q-2.26-2.42-5.03-4.74-2.21-1.85-4.37.39-8.74 9.08-41.17 43.06-2.17 2.27-.24 4.45 2.87 3.25 5.66 5.44 2.08 1.64 4.1-.38 3.36-3.37 10.76-11.24a.821.814-46.23 0 1 1.16-.03z"></path><path fill="#ffd50f" fill-rule="evenodd" d="M395.102 368.488a.28.28-21.299 0 1 .016-.395l8.576-7.915a3.55 3.45 47.3 0 1 4.943.27l11.203 12.141a3.55 3.45 47.3 0 1-.128 4.948l-8.576 7.914a.28.28 80.847 0 1-.396-.016z"></path><path fill="#e41b13" fill-rule="evenodd" d="M1383.597 884.89a498.51 498.27-.2 0 1-496.768 500.007A498.51 498.27-.2 0 1 386.583 888.37a498.51 498.27-.2 0 1 496.768-500.007 498.51 498.27-.2 0 1 500.246 496.527M865.33 404.23q-35.06 1.3-69.4 7.88c-5.09.97-7.89 2.23-11.99 4.83q-11.06 7.01-21.91 15.6-31.96 25.29-62.06 52.99a.337.334 22.795 0 0 .24.58q2.67-.08 4.67.24 15.84 2.58 34.18 8.61 23.22 7.64 38.12 13.12.44.16 3.06.78a.417.416 45.084 0 1 0 .81q-35.28 8.35-65.74 16.8-31.3 8.69-55.13 17.64c-7.56 2.84-16.49 6.41-20.98 11.79-11.37 13.64-20.58 29.81-29.7 45.79q-20.28 35.55-39.23 72.95a.611.609 48.993 0 1-1.12-.08q-5.04-14.58-7.05-30.12-3.01-23.28-3.97-48.35a.649.646 82.887 0 0-.78-.61c-16.63 3.37-31.77 11.63-45.77 20.8q-21.85 14.33-44.84 34.15-2.67 2.3-4.1 4.92-13.13 24.04-23.82 50.34-3.1 7.63-6.26 15.83-.45.02-.88 1.35-6.24 19.36-11.65 38.41-9.12 34.67-13.26 70.05a7.722 7.654 42.146 0 0 .14 2.58q7.84 35.16 22.41 68 7.63 17.2 19.49 30.47a.787.786 43.073 0 0 1.21-.04c13.06-17.07 26.99-33.68 42.49-48.13q5.28-4.92 11.81-9.19a.638.635-12.553 0 1 .98.62c-5.04 35.03-9.59 69.92-12.13 103.64q-1.12 14.86-.82 27.75.25 10.61 6.06 19.6 14.7 22.71 30.58 42.68 25.34 31.83 52.45 62.58a.39.388 77.52 0 1-.4.63q-31.82-9.25-37.66-11.08c-14.91-4.66-28.43-9.2-40.85-16.34a.319.314 8.711 0 0-.47.34c6.89 30.94 14.04 61.03 23.71 90.85q2.69 8.29 6.41 16.58 1.3 2.9 4.02 5.74 24.21 25.23 50.4 46.29l35.56 25.66q26.22 17.23 54.2 30.76c3.25 1.57 6.59 2.26 9.83 2.58 16.25 1.57 33.47.68 50.37-.43q30.89-2.04 61.5-5.44a.149.148-28.099 0 0 .08-.26c-11.2-9.74-20.55-22.11-30.32-35.78q-4.1-5.74-21.21-30.36a.271.27-5.605 0 1 .33-.4q44.04 18.64 89.73 34.44 9.96 3.45 26.57 8.17c8.61 2.46 18.97 5.21 27.15 3.01 14.89-4.01 29.56-10.34 43.46-16.57q40.39-18.1 80.58-38.67a.631.624-6.841 0 1 .9.7q-1.86 7.62-5.19 14.79c-8.77 18.9-19.97 37.14-31.97 55.28a.435.435-59.904 0 0 .17.64q9.99 4.69 21.04 6.89 17.27 3.43 38.93 3.9 27.4.59 54.25-2.28 4.66-.5 8.72-2.54 25.87-13.03 48.45-27.67l35.63-25.6q17.02-13.54 32.6-28.32 7.71-7.31 11.13-11.81c8.1-10.69 12.69-23.18 16.32-35.27q12.34-41.06 21.65-85.05a.224.223 80.819 0 0-.33-.24c-10.94 6.29-22.77 10.57-35.3 14.57q-18.43 5.89-43.63 12.92a.209.208-76.876 0 1-.21-.34q25.25-28.73 48.67-57.97 14.98-18.7 28.01-37.48 5.81-8.37 9.52-16.01c3.13-6.45 3.27-12.99 3.18-20.47q-.16-13.39-1.61-29.25-4.69-51.16-11.43-94.47-.15-.98.12-1.43a.489.486-58.058 0 1 .68-.16c11.47 7.41 21.15 17.72 30.41 28.23q12.29 13.96 24.03 29.16a.664.659 48.197 0 0 1 .06q8.04-8.27 13.8-18.97c14.07-26.12 23.18-56.17 29.82-85.17q.55-2.44.11-5.62-3.87-27.81-10.5-57.33-.75-3.3-1.44-5.71l-12.4-38.87q-1.04-3.28-3.6-9.88-10.31-26.55-23.73-51.69a14.338 14.211 7.098 0 0-3.08-3.92q-22.05-19.72-45.54-35.77-16.01-10.95-31.68-18.06-9.62-4.37-19.28-5.9a.318.314 5.579 0 0-.37.3q-.79 27-4.44 52.2-2.08 14.4-6.17 25.61-.22.62-.71 1.12a.462.459-36.358 0 1-.74-.11q-22.44-44.42-47.64-87.35-7.29-12.41-13.83-21.65c-5.17-7.31-8.55-12.06-15.49-15.67q-6.46-3.37-15.22-6.69-13.34-5.05-29.17-9.82-43.93-13.24-89.7-23.84a.388.388 41.168 0 1-.05-.74c.71-.27 1.65-.15 2.36-.41 20.38-7.37 39-14.1 58.84-19.19q9.72-2.5 19.19-3.33a.23.229 63.125 0 0 .13-.4q-31.96-29.5-65.41-55.64-9.84-7.68-21.01-14.5-4.81-2.93-11.89-4.14-34.2-5.83-63.87-7z"></path><path fill="#ffd50f" fill-rule="evenodd" d="M424.157 400.037a.58.58 83.969 0 1 .032-.82l8.46-7.834a3.25 3.12-42.8 0 1 4.504.081l11.904 12.855a3.25 3.12-42.8 0 1-.265 4.498l-8.46 7.834a.58.58-9.21 0 1-.819-.032zM906.65 404.25l103.77 313.68a1.694 1.681-8.913 0 0 1.59 1.15l326.74 1.64 12.4 38.87-265.27 189.78a2.073 2.06 63.464 0 0-.76 2.3l99.43 314.05-35.63 25.6q-130.77-94.93-261.49-189.99c-1.95-1.41-2.62-1.62-4.56-.21q-130.71 94.72-261.52 189.44l-35.56-25.66q.46-1.21.37-2.9a1.303 1.293-37.64 0 1 .06-.45l100.22-305.01a1.65 1.638 27.243 0 0-.6-1.85L419.22 761.28q5.41-19.05 11.65-38.41.43-1.33.88-1.35 2.49-.82 3.75-.83 69.28-.44 301.75-1.4 13.59-.06 26.95-.26a1.503 1.5-81.554 0 0 1.4-1.04q9.83-30.13 17.93-55.81 41.1-130.22 79.09-250.76 1.1-3.5 2.71-7.19zm114.19 544.43q-2.19-5.77-60.74-158.93c-8.77-22.93-15.8-43.61-24.52-68.06a1.389 1.378 80.056 0 0-1.3-.92h-61.16a.55.55 81.814 0 0-.55.55v27.46a1.041 1.025 6.782 0 0 .8 1l16.05 3.85a.476.468 19.635 0 1 .32.66c-9.07 19.28-18.6 41.85-27.49 60.62q-24.5 51.74-59.3 125.15a.686.679 40.184 0 0 .06.67q1.92 2.66 4.42 5.09 10.34 10.03 22.57 17.01a.896.885-62.099 0 0 1.24-.39l11.69-24.14a1.09 1.09 13.089 0 1 .98-.61h102.98a.768.759 79.285 0 1 .71.49l14.61 39a1.426 1.415-17.141 0 0 1.68.88q30.9-7.62 56.42-27.49a1.657 1.656 60.669 0 0 .53-1.89m41.21 6.39a.301.297 35.431 0 0-.07-.4l-23.47-17.66a.478.472-52.391 0 0-.66.09q-12.25 15.78-29.11 26.4c-38.5 24.25-87.33 29.84-131.54 21q-29.33-5.86-55.01-21.93-25.75-16.1-37.57-44.01-9.13-21.56-2.65-44.32c10.02-35.21 45.42-58.63 78.76-68.49a3.533 3.497-85.654 0 0 2.19-1.9l17.94-38.87a.637.634 11.002 0 0-.61-.9q-32.51 1.66-63.1 11.33c-45.01 14.22-92.05 44.64-106.27 91.61q-9.58 31.64 3.27 61.58c8.12 18.93 22.01 35.29 37.35 48.27 13.94 11.8 29.62 22.34 46.65 28.97q63.13 24.58 130.78 16.36 43.67-5.3 81.83-25.12 28.23-14.67 48.98-38.81.94-1.09 2.31-3.2m-106.58-186.6q.01.04 9.27 24.81c1.01 2.7 1.34 3.76 4.12 4.8q15.53 5.8 29.24 12.33c6.06 2.89 10.12 6.5 10.07 13.68a.72.72 5.858 0 0 .72.72h11.94a.72.72-45 0 0 .72-.72v-46.26a.72.72 81.847 0 0-.72-.72h-12.01a1.457 1.451 12.397 0 0-1.32.84l-2.43 5.27a.857.85 23.424 0 1-1.1.43c-15.42-6.47-31.51-12.69-47.78-15.99a.629.625-3.532 0 0-.72.81m81.29 216.05q-30.53 21.85-66.53 31.71a3.796 3.791 3.21 0 0-2.51 2.24q-1.83 4.56-3.99 9.25-1.09 2.35-1.07 5.03.09 13.39-.04 25.84a.6.6-89.53 0 0 .6.61h103.34a.75.75 45 0 0 .75-.75v-26.44q.01-2.63-1.4-4.43-14.76-18.84-18.61-23.77c-2.23-2.86-4.81-5.73-5.98-8.62q-.44-1.09-3.69-10.39a.57.566 62.625 0 0-.87-.28m-294.13 75.61h68.65a1.3 1.3-89.778 0 0 1.3-1.29q.08-11.75 0-27.09-.01-1.94-1.87-4.95-3-4.84-6.62-10.43a1.47 1.462 40.197 0 1-.12-1.38l.95-2.27a.984.984-69.097 0 0-.59-1.32q-16.75-5.65-31.16-14.84a1.065 1.055-53.11 0 0-1.36.2q-26.08 29.85-28.92 33.13-1.32 1.51-1.28 3.4.16 10.31.01 25.83a1.01 1.01 89.973 0 0 1.01 1.01"></path><path fill="#fff" fill-rule="evenodd" d="M865.33 404.23q-1.61 3.69-2.71 7.19-37.99 120.54-79.09 250.76-8.1 25.68-17.93 55.81a1.503 1.5-81.554 0 1-1.4 1.04q-13.36.2-26.95.26-232.47.96-301.75 1.4-1.26.01-3.75.83 3.16-8.2 6.26-15.83 10.69-26.3 23.82-50.34 1.43-2.62 4.1-4.92 22.99-19.82 44.84-34.15c14-9.17 29.14-17.43 45.77-20.8a.649.646 82.887 0 1 .78.61q.96 25.07 3.97 48.35 2.01 15.54 7.05 30.12a.611.609 48.993 0 0 1.12.08q18.95-37.4 39.23-72.95c9.12-15.98 18.33-32.15 29.7-45.79 4.49-5.38 13.42-8.95 20.98-11.79q23.83-8.95 55.13-17.64 30.46-8.45 65.74-16.8a.417.416 45.084 0 0 0-.81q-2.62-.62-3.06-.78-14.9-5.48-38.12-13.12-18.34-6.03-34.18-8.61-2-.32-4.67-.24a.337.334 22.795 0 1-.24-.58q30.1-27.7 62.06-52.99 10.85-8.59 21.91-15.6c4.1-2.6 6.9-3.86 11.99-4.83q34.34-6.58 69.4-7.88M1338.75 720.72l-326.74-1.64a1.694 1.681-8.913 0 1-1.59-1.15L906.65 404.25q29.67 1.17 63.87 7 7.08 1.21 11.89 4.14 11.17 6.82 21.01 14.5 33.45 26.14 65.41 55.64a.23.229 63.125 0 1-.13.4q-9.47.83-19.19 3.33c-19.84 5.09-38.46 11.82-58.84 19.19-.71.26-1.65.14-2.36.41a.388.388 41.168 0 0 .05.74q45.77 10.6 89.7 23.84 15.83 4.77 29.17 9.82 8.76 3.32 15.22 6.69c6.94 3.61 10.32 8.36 15.49 15.67q6.54 9.24 13.83 21.65 25.2 42.93 47.64 87.35a.462.459-36.358 0 0 .74.11q.49-.5.71-1.12 4.09-11.21 6.17-25.61 3.65-25.2 4.44-52.2a.318.314 5.579 0 1 .37-.3q9.66 1.53 19.28 5.9 15.67 7.11 31.68 18.06 23.49 16.05 45.54 35.77a14.338 14.211 7.098 0 1 3.08 3.92q13.42 25.14 23.73 51.69 2.56 6.6 3.6 9.88"></path><path fill="#e41b13" fill-rule="evenodd" d="m1395.645 495.908-14.863-18.613a.59.59-34.2 0 0-.714-.165l-13.606 6.45a.59.59-83.293 0 1-.714-.165l-16.684-20.901a.59.59 86.76 0 1 .22-.906l97.109-43.67a.59.59-82.699 0 1 .703.17l21.079 26.395a.59.59-2.101 0 1 .01.722l-64.017 85.077a.59.59 84.605 0 1-.933.013l-17.28-21.653a.59.59-6.001 0 1 .013-.753l9.664-11.248a.59.59 60.273 0 0 .013-.753m3.897-28.47a.3.3 42.936 0 0-.103.456l9.369 11.822a.3.3-46.752 0 0 .468.004l22.349-27.338a.3.3 64.701 0 0-.364-.459zM353.656 459.038a.661.66-3.945 0 0 .769.668c1.018-.164 2.136-.917 3.558-1.045 4.945-.444 9.818 2.526 13.564 5.304q12.675 9.393 13.472 10.046c10.448 8.555 9.094 19.29 1.835 29.277q-2.814 3.876-28.855 38.917a.83.83-23.331 0 1-1.159.17l-82.61-61.3a.573.573-16.439 0 1-.123-.801q13.369-17.994 27.347-36.898c8.854-11.982 18.61-17.467 32.204-7.526 6.118 4.484 11.51 7.987 16.246 13.172q3.91 4.274 3.752 10.016m-47.426 10.698 18.103 13.395a.57.57 73.217 0 0 .797-.119l6.674-9.019a3.57 3.22-53.5 0 0-.465-4.785l-13.842-10.243a3.57 3.22-53.5 0 0-4.712.954l-6.674 9.02a.57.57 24.359 0 0 .119.797m34.365 25.539 17.956 13.19a.77.77-71.835 0 0 1.077-.165l6.571-8.946a3.77 3.49 36.3 0 0-.972-5.045l-13.121-9.638a3.77 3.49 36.3 0 0-5.104.581l-6.571 8.946a.77.77-81.654 0 0 .164 1.077"></path><path fill="#ffd50f" fill-rule="evenodd" d="m1399.542 467.438 31.719-15.515a.3.3-47.309 0 1 .364.459l-22.349 27.338a.3.3-10.481 0 1-.468-.004l-9.369-11.822a.3.3-88.104 0 1 .103-.456M306.23 469.736a.57.57 79.987 0 1-.119-.797l6.674-9.02a3.57 3.22-53.5 0 1 4.712-.954l13.842 10.243a3.57 3.22-53.5 0 1 .465 4.785l-6.674 9.019a.57.57 79.249 0 1-.797.119z"></path><path fill="#e41b13" fill-rule="evenodd" d="m1407.172 536.166 89.046-52.942a.34.34.427 0 1 .466.118l12.34 20.762a.34.34 10.961 0 1-.021.378l-34.866 46.33a.34.34-27.754 0 0 .445.497l45.896-27.285a.34.34 88.338 0 1 .466.118l13.042 21.936a.34.34-9.58 0 1-.118.466l-89.056 52.942a.34.34 24.88 0 1-.466-.118l-12.419-20.882a.34.34 74.363 0 1 .02-.378l34.636-46.03a.34.34 60.752 0 0-.446-.496l-45.575 27.104a.34.34 8.453 0 1-.466-.118l-13.042-21.936a.34.34-86.412 0 1 .118-.466"></path><path fill="#ffd50f" fill-rule="evenodd" d="M340.595 495.275a.77.77-3.796 0 1-.164-1.077l6.571-8.946a3.77 3.49 36.3 0 1 5.104-.581l13.121 9.638a3.77 3.49 36.3 0 1 .972 5.045l-6.571 8.946a.77.77-71.823 0 1-1.077.165z"></path><path fill="#e41b13" fill-rule="evenodd" d="M233.536 550.016a.49.483-60.764 0 1-.181-.658l13.671-23.973a.526.525 29.379 0 1 .725-.202l71.633 40.85a.83.823-60.155 0 0 1.123-.309l15.305-26.807a.589.582 29.52 0 1 .804-.217l16.711 9.545a.667.66 29.905 0 1 .248.9l-29.56 51.842a.532.525-60.153 0 1-.715.199zM1546.472 572.493a.61.61 13.972 0 1 .799.325l19.709 46.658a20.72 19.63 67.1 0 1-10.02 26.725l-59.951 25.325a20.72 19.63 67.1 0 1-26.145-11.449l-19.709-46.658a.61.61 23.527 0 1 .324-.799zm-6.323 33.888-60.032 25.235a.65.65 56.996 0 0-.347.851l4.003 9.523a4 3.56-22.8 0 0 5.067 1.731l53.855-22.638a4 3.56-22.8 0 0 2.308-4.832l-4.003-9.523a.65.65 62.751 0 0-.851-.347M282.483 597.15a.538.531-67.002 0 1 .694-.286q9.749 4.077 16.992 7.192c12.864 5.544 13.907 17.13 9.053 28.716q-7.373 17.638-9.569 22.744c-5.135 11.971-14.111 19.081-27.437 13.478q-52.257-21.965-59.135-24.909c-13.472-5.761-14.417-17.118-9.422-29.26q1.544-3.756 9.538-22.658c5.138-12.132 14.338-18.739 27.719-13.104q13.73 5.792 16.618 6.971a.67.67 75.375 0 1 .366.877l-10.597 25.158a.68.68-62.401 0 1-.89.36q-9.32-3.961-14.641-6.161c-2.49-1.031-3.657-.33-4.781 1.971q-1.457 2.973-2.639 6.387-.943 2.723 1.919 3.944 11.596 4.936 54.89 23.146 2.893 1.22 4.243-1.36 2.016-3.838 3.069-7.225.792-2.527-1.814-3.696-4.345-1.94-14.333-6.054a.821.813 22.919 0 1-.441-1.073z"></path><path fill="#ffd50f" fill-rule="evenodd" d="M1540.149 606.381a.65.65-78.559 0 1 .851.347l4.003 9.523a4 3.56-22.8 0 1-2.308 4.832l-53.855 22.638a4 3.56-22.8 0 1-5.067-1.731l-4.003-9.523a.65.65 81.883 0 1 .347-.851z"></path><path fill="#e41b13" fill-rule="evenodd" d="M1020.84 948.68a1.657 1.656 60.669 0 1-.53 1.89q-25.52 19.87-56.42 27.49a1.426 1.415-17.141 0 1-1.68-.88l-14.61-39a.768.759 79.285 0 0-.71-.49H843.91a1.09 1.09 13.089 0 0-.98.61l-11.69 24.14a.896.885-62.099 0 1-1.24.39q-12.23-6.98-22.57-17.01-2.5-2.43-4.42-5.09a.686.679 40.184 0 1-.06-.67q34.8-73.41 59.3-125.15c8.89-18.77 18.42-41.34 27.49-60.62a.476.468 19.635 0 0-.32-.66l-16.05-3.85a1.041 1.025 6.782 0 1-.8-1v-27.46a.55.55-64.809 0 1 .55-.55h61.16a1.389 1.378 80.056 0 1 1.3.92c8.72 24.45 15.75 45.13 24.52 68.06q58.55 153.16 60.74 158.93M898.785 812.833a.46.46-63.62 0 0-.852-.009l-42.123 99.737a.46.46 3.648 0 0 .424.639h81.778a.46.46 85.334 0 0 .428-.63z" data-source="https://football-logos.cc"></path><path fill="#fff" fill-rule="evenodd" d="M1351.15 759.59q.69 2.41 1.44 5.71 6.63 29.52 10.5 57.33.44 3.18-.11 5.62c-6.64 29-15.75 59.05-29.82 85.17q-5.76 10.7-13.8 18.97a.664.659 48.197 0 1-1-.06q-11.74-15.2-24.03-29.16c-9.26-10.51-18.94-20.82-30.41-28.23a.489.486-58.058 0 0-.68.16q-.27.45-.12 1.43 6.74 43.31 11.43 94.47 1.45 15.86 1.61 29.25c.09 7.48-.05 14.02-3.18 20.47q-3.71 7.64-9.52 16.01-13.03 18.78-28.01 37.48-23.42 29.24-48.67 57.97a.209.208-76.876 0 0 .21.34q25.2-7.03 43.63-12.92c12.53-4 24.36-8.28 35.3-14.57a.224.223 80.819 0 1 .33.24q-9.31 43.99-21.65 85.05c-3.63 12.09-8.22 24.58-16.32 35.27q-3.42 4.5-11.13 11.81-15.58 14.78-32.6 28.32l-99.43-314.05a2.073 2.06 63.464 0 1 .76-2.3zM585.79 1264.9q-26.19-21.06-50.4-46.29-2.72-2.84-4.02-5.74-3.72-8.29-6.41-16.58c-9.67-29.82-16.82-59.91-23.71-90.85a.319.314 8.711 0 1 .47-.34c12.42 7.14 25.94 11.68 40.85 16.34q5.84 1.83 37.66 11.08a.39.388 77.52 0 0 .4-.63q-27.11-30.75-52.45-62.58-15.88-19.97-30.58-42.68-5.81-8.99-6.06-19.6-.3-12.89.82-27.75c2.54-33.72 7.09-68.61 12.13-103.64a.638.635-12.553 0 0-.98-.62q-6.53 4.27-11.81 9.19c-15.5 14.45-29.43 31.06-42.49 48.13a.787.786 43.073 0 1-1.21.04q-11.86-13.27-19.49-30.47-14.57-32.84-22.41-68a7.722 7.654 42.146 0 1-.14-2.58q4.14-35.38 13.26-70.05l266.62 193.41a1.65 1.638 27.243 0 1 .6 1.85l-100.22 305.01a1.303 1.293-37.64 0 0-.06.45q.09 1.69-.37 2.9"></path><path fill="#e41b13" fill-rule="evenodd" d="M1062.05 955.07q-1.37 2.11-2.31 3.2-20.75 24.14-48.98 38.81-38.16 19.82-81.83 25.12-67.65 8.22-130.78-16.36c-17.03-6.63-32.71-17.17-46.65-28.97-15.34-12.98-29.23-29.34-37.35-48.27q-12.85-29.94-3.27-61.58c14.22-46.97 61.26-77.39 106.27-91.61q30.59-9.67 63.1-11.33a.637.634 11.002 0 1 .61.9l-17.94 38.87a3.533 3.497-85.654 0 1-2.19 1.9c-33.34 9.86-68.74 33.28-78.76 68.49q-6.48 22.76 2.65 44.32 11.82 27.91 37.57 44.01 25.68 16.07 55.01 21.93c44.21 8.84 93.04 3.25 131.54-21q16.86-10.62 29.11-26.4a.478.472-52.391 0 1 .66-.09l23.47 17.66a.301.297 35.431 0 1 .07.4M955.47 768.47a.629.625-3.532 0 1 .72-.81c16.27 3.3 32.36 9.52 47.78 15.99a.857.85 23.424 0 0 1.1-.43l2.43-5.27a1.457 1.451 12.397 0 1 1.32-.84h12.01a.72.72-64.821 0 1 .72.72v46.26a.72.72-45 0 1-.72.72h-11.94a.72.72 29.798 0 1-.72-.72c.05-7.18-4.01-10.79-10.07-13.68q-13.71-6.53-29.24-12.33c-2.78-1.04-3.11-2.1-4.12-4.8q-9.26-24.77-9.27-24.81M289.25 888.78a85.33 85.33 0 0 1-85.33 85.33 85.33 85.33 0 0 1-85.33-85.33 85.33 85.33 0 0 1 85.33-85.33 85.33 85.33 0 0 1 85.33 85.33m-88.47-59.95a.708.7 11.258 0 0-.44-.65l-27.86-11.15a2.84 2.838-46.726 0 0-2.29.07q-19.22 9.13-31.76 27.05a1.786 1.762 55.427 0 0-.26 1.47l6.13 23.37a1.168 1.164 1.923 0 0 .76.81l27.56 9.06a.679.669 33.791 0 0 .63-.12l26.76-21.36a2.032 2.026-19.247 0 0 .77-1.59zm6.361-.042-.021 26.963a2.032 2.026 19.292 0 0 .769 1.591l26.746 21.383a.679.669-33.747 0 0 .63.121l27.571-9.04a1.169 1.164-1.878 0 0 .76-.809l6.149-23.368a1.787 1.762-55.382 0 0-.259-1.47q-12.527-17.932-31.742-27.078a2.84 2.838 46.771 0 0-2.291-.072l-27.871 11.13a.708.7-11.214 0 0-.441.649M164.76 936.64a1.09 1.079 23.004 0 0 1.03-.41l12.92-17.17a2.229 2.201 56.435 0 0 .37-1.89l-8.22-31.33a1.535 1.526 1.831 0 0-1.01-1.07l-26.67-8.76a1.221 1.211 29.387 0 0-1.31.36l-16.03 18.66a3.088 3.082-27.999 0 0-.73 2.38q2.19 18.42 12 34.01a1.953 1.942 78.423 0 0 1.34.89zm78.365-.07 26.29-4.289a1.951 1.94-78.344 0 0 1.339-.888q9.822-15.561 12.035-33.96a3.085 3.079 28.078 0 0-.726-2.378l-15.989-18.664a1.22 1.21-29.309 0 0-1.308-.361l-26.655 8.715a1.534 1.524-1.753 0 0-1.011 1.067l-8.255 31.288a2.227 2.199-56.357 0 0 .367 1.889l12.884 17.17a1.089 1.078-22.926 0 0 1.029.411m-72.025 3.98 15.76 24.83a2.75 2.748 79.403 0 0 1.78 1.22q16.57 3.26 33.15-.62a2.017 1.995 8.263 0 0 1.26-.93L236.93 941a.92.92 37.614 0 0-.06-1.02l-12.52-16.62a2.502 2.472 71.216 0 0-1.98-.99H185.2a1.835 1.83-71.643 0 0-1.47.74l-12.6 16.74a.612.61-42.604 0 0-.03.7M1643.83 888.79a85.34 85.34 0 0 1-85.34 85.34 85.34 85.34 0 0 1-85.34-85.34 85.34 85.34 0 0 1 85.34-85.34 85.34 85.34 0 0 1 85.34 85.34m-88.615-59.996a.708.699 11.137 0 0-.441-.648l-27.851-11.078a2.837 2.834-46.848 0 0-2.287.074q-19.178 9.16-31.666 27.086a1.784 1.76 55.305 0 0-.256 1.469l6.172 23.33a1.167 1.163 1.801 0 0 .761.807l27.547 8.991a.678.668 33.67 0 0 .629-.121l26.683-21.392a2.03 2.024-19.369 0 0 .766-1.59zm6.493-.022-.042 26.969a2.033 2.027 19.336 0 0 .768 1.592l26.735 21.408a.679.669-33.703 0 0 .631.121l27.582-9.021a1.169 1.165-1.834 0 0 .762-.809l6.168-23.368a1.787 1.762-55.338 0 0-.258-1.471q-12.516-17.945-31.728-27.107a2.841 2.838 46.815 0 0-2.291-.074l-27.886 11.111a.709.7-11.17 0 0-.441.649m-42.398 107.822a1.089 1.078 22.999 0 0 1.029-.41l12.91-17.16a2.227 2.2 56.43 0 0 .37-1.889l-8.218-31.308a1.534 1.525 1.826 0 0-1.01-1.069l-26.653-8.752a1.221 1.21 29.382 0 0-1.309.36l-16.018 18.649a3.086 3.08-28.005 0 0-.729 2.378q2.19 18.408 11.995 33.987a1.952 1.941 78.417 0 0 1.339.889zm78.385-.004 26.289-4.298a1.951 1.94-78.363 0 0 1.34-.888q9.817-15.565 12.024-33.964a3.085 3.079 28.059 0 0-.727-2.379l-15.995-18.659a1.22 1.21-29.327 0 0-1.309-.361l-26.653 8.724a1.534 1.524-1.771 0 0-1.01 1.068l-8.245 31.291a2.227 2.199-56.375 0 0 .368 1.889l12.889 17.167a1.089 1.078-22.944 0 0 1.029.41m-71.997 3.972 15.779 24.816a2.75 2.748 79.356 0 0 1.781 1.219q16.572 3.246 33.148-.648a2.016 1.995 8.216 0 0 1.26-.931l13.859-24.06a.92.92 72.107 0 0-.061-1.02l-12.533-16.609a2.502 2.472 71.168 0 0-1.981-.988l-37.168.031a1.834 1.829-71.69 0 0-1.469.741l-12.586 16.749a.612.61-42.652 0 0-.029.7"></path><path fill="#ffd50f" fill-rule="evenodd" d="m898.785 812.833 39.655 99.737a.46.46-82.333 0 1-.428.63h-81.778a.46.46 45.493 0 1-.424-.639l42.123-99.737a.46.46-8.217 0 1 .852.009"></path><path fill="#fff" fill-rule="evenodd" d="M200.78 828.83v26.96a2.032 2.026-19.247 0 1-.77 1.59l-26.76 21.36a.679.669 33.791 0 1-.63.12l-27.56-9.06a1.168 1.164 1.923 0 1-.76-.81l-6.13-23.37a1.786 1.762 55.427 0 1 .26-1.47q12.54-17.92 31.76-27.05a2.84 2.838-46.726 0 1 2.29-.07l27.86 11.15a.708.7 11.258 0 1 .44.65M207.141 828.788a.708.7-11.214 0 1 .441-.649l27.871-11.13a2.84 2.838 46.771 0 1 2.291.072q19.215 9.146 31.742 27.078a1.787 1.762-55.382 0 1 .259 1.47l-6.149 23.368a1.169 1.164-1.878 0 1-.76.809l-27.571 9.04a.679.669-33.747 0 1-.63-.121l-26.746-21.383a2.032 2.026 19.292 0 1-.769-1.591zM1555.215 828.794l.057 26.928a2.03 2.024-19.369 0 1-.766 1.59l-26.683 21.392a.678.668 33.67 0 1-.629.121l-27.547-8.991a1.167 1.163 1.801 0 1-.761-.807l-6.172-23.33a1.784 1.76 55.305 0 1 .256-1.469q12.488-17.926 31.666-27.086a2.837 2.834-46.848 0 1 2.287-.074l27.851 11.078a.708.699 11.137 0 1 .441.648M1561.708 828.772a.709.7-11.17 0 1 .441-.649l27.886-11.111a2.841 2.838 46.815 0 1 2.291.074q19.212 9.162 31.728 27.107a1.787 1.762-55.338 0 1 .258 1.471l-6.168 23.368a1.169 1.165-1.834 0 1-.762.809l-27.582 9.021a.679.669-33.703 0 1-.631-.121l-26.735-21.408a2.033 2.027 19.336 0 1-.768-1.592zM164.76 936.64l-26.31-4.33a1.953 1.942 78.423 0 1-1.34-.89q-9.81-15.59-12-34.01a3.088 3.082-27.999 0 1 .73-2.38l16.03-18.66a1.221 1.211 29.387 0 1 1.31-.36l26.67 8.76a1.535 1.526 1.831 0 1 1.01 1.07l8.22 31.33a2.229 2.201 56.435 0 1-.37 1.89l-12.92 17.17a1.09 1.079 23.004 0 1-1.03.41M243.125 936.57a1.089 1.078-22.926 0 1-1.029-.411l-12.884-17.17a2.227 2.199-56.357 0 1-.367-1.889l8.255-31.288a1.534 1.524-1.753 0 1 1.011-1.067l26.655-8.715a1.22 1.21-29.309 0 1 1.308.361l15.989 18.664a3.085 3.079 28.078 0 1 .726 2.378q-2.213 18.399-12.035 33.96a1.951 1.94-78.344 0 1-1.339.888zM1519.31 936.594l-26.294-4.325a1.952 1.941 78.417 0 1-1.339-.889q-9.805-15.579-11.995-33.987a3.086 3.08-28.005 0 1 .729-2.378l16.018-18.649a1.221 1.21 29.382 0 1 1.309-.36l26.653 8.752a1.534 1.525 1.826 0 1 1.01 1.069l8.218 31.308a2.227 2.2 56.43 0 1-.37 1.889l-12.91 17.16a1.089 1.078 22.999 0 1-1.029.41M1597.695 936.59a1.089 1.078-22.944 0 1-1.029-.41l-12.889-17.167a2.227 2.199-56.375 0 1-.368-1.889l8.245-31.291a1.534 1.524-1.771 0 1 1.01-1.068l26.653-8.724a1.22 1.21-29.327 0 1 1.309.361l15.995 18.659a3.085 3.079 28.059 0 1 .727 2.379q-2.207 18.399-12.024 33.964a1.951 1.94-78.363 0 1-1.34.888zM171.1 940.55a.612.61-42.604 0 1 .03-.7l12.6-16.74a1.835 1.83-71.643 0 1 1.47-.74h37.17a2.502 2.472 71.216 0 1 1.98.99l12.52 16.62a.92.92 75.737 0 1 .06 1.02l-13.88 24.05a2.017 1.995 8.263 0 1-1.26.93q-16.58 3.88-33.15.62a2.75 2.748 79.403 0 1-1.78-1.22zM1525.698 940.562a.612.61-42.652 0 1 .029-.7l12.586-16.749a1.834 1.829-71.69 0 1 1.469-.741l37.168-.031a2.502 2.472 71.168 0 1 1.981.988l12.533 16.609a.92.92 68.098 0 1 .061 1.02l-13.859 24.06a2.016 1.995 8.216 0 1-1.26.931q-16.576 3.894-33.148.648a2.75 2.748 79.356 0 1-1.781-1.219z"></path><path fill="#e41b13" fill-rule="evenodd" d="M1036.76 984.52a.57.566 62.625 0 1 .87.28q3.25 9.3 3.69 10.39c1.17 2.89 3.75 5.76 5.98 8.62q3.85 4.93 18.61 23.77 1.41 1.8 1.4 4.43v26.44a.75.75-45 0 1-.75.75H963.22a.6.6-89.53 0 1-.6-.61q.13-12.45.04-25.84-.02-2.68 1.07-5.03 2.16-4.69 3.99-9.25a3.796 3.791 3.21 0 1 2.51-2.24q36-9.86 66.53-31.71M742.63 1060.13a1.01 1.01 89.973 0 1-1.01-1.01q.15-15.52-.01-25.83-.04-1.89 1.28-3.4 2.84-3.28 28.92-33.13a1.065 1.055-53.11 0 1 1.36-.2q14.41 9.19 31.16 14.84a.984.984-69.097 0 1 .59 1.32l-.95 2.27a1.47 1.462 40.197 0 0 .12 1.38q3.62 5.59 6.62 10.43 1.86 3.01 1.87 4.95.08 15.34 0 27.09a1.3 1.3-89.778 0 1-1.3 1.29z"></path><path fill="#e41b13" fill-rule="evenodd" d="M1445.7 1022.14h-7.15a1.07 1.07-56.234 0 1-1.07-1.07v-21.45a1 .99 0 0 1 1-.99h245.98a1.08 1.07 0 0 1 1.08 1.07v21.47a.92.92 45 0 1-.92.92h-7.38a1.086 1.077 4.692 0 0-1.07.9c-26.38 151.3-94.91 291.44-198.05 404.53-89.39 98.01-201.6 172.13-326.62 216.21-128.77 45.4-268.95 57.44-404.19 33.66q-138.39-24.33-259.18-93.04c-105.52-60.01-196.73-143.69-265.38-244.01q-98.23-143.58-129.04-317.49a.996.986-4.797 0 0-.98-.82h-9.15a.67.66-90 0 1-.66-.67v-22.13a.69.68-90 0 1 .68-.69h246.46a.85.85 36.856 0 1 .85.85v21.72a.91.91 17.555 0 1-.91.91h-5.91a.837.835 82.968 0 0-.81 1.04q24.6 99.62 80.65 183.83c72.56 109.03 180.53 190.31 305.25 230.2 106.19 33.96 220.27 36.36 328.55 6.81 125.97-34.37 237.18-111.19 314.02-216.51q67.13-92 94.89-204.04a.975.97-83 0 0-.94-1.21m88.663 57.68q-1.782-5.448-6.893-8.15c-6.194-3.281-12.438-4.76-19.695-6.917-16.117-4.772-23.441 3.662-27.734 17.898q-6.781 22.464-13.294 43.868a.57.57-63.835 0 0 .384.712l98.24 29.834a.827.827-83.052 0 0 1.031-.549q12.692-41.684 14.034-46.272c3.464-11.826 1.127-22.369-11.567-26.896q-.968-.345-16.037-4.912c-4.455-1.351-10.032-2.504-14.53-.424-1.292.598-2.091 1.682-2.992 2.178a.66.658-23.629 0 1-.947-.37M192.57 1127.48l31.08-9.93a.674.671-17.505 0 1 .85.44q2.8 9.39 5.74 18.02 1.92 5.62 3.4 8.15 7.81 13.36 23.26 8.44 26.37-8.4 27.99-8.91c13.63-4.29 16.51-15.15 12.5-27.82q-3.38-10.67-14.83-46.43a.66.66-3.585 0 0-.83-.43l-97.67 31.21a.923.923 64.658 0 0-.6 1.16l8.18 25.62a.743.734 71.932 0 0 .93.48m1331.641 76.723c-1.34 2.94-2.514 6.943-6.199 5.265q-42.632-19.428-72.522-33.068a.497.492-65.016 0 0-.65.24l-11.55 25.04a.465.461-65.604 0 0 .23.62q63.11 28.69 69.74 31.83 10.72 5.05 14.915 5.075c14.674.078 18.919-14.133 24.579-26.549s13.602-24.942 3.918-35.967q-2.771-3.15-13.614-7.929-6.719-2.945-69.771-31.764a.465.461-65.386 0 0-.619.234l-11.324 25.142a.497.492-65.974 0 0 .245.648q29.901 13.615 72.529 33.052c3.684 1.68 1.433 5.192.093 8.131m-1295.664 17.694q5.516 11.66 6.613 14.026a1.252 1.239 71.516 0 0 1.38.697l103.54-21.02a.541.536-18.67 0 0 .38-.76l-12.06-25.45a1.058 1.048-19.847 0 0-1.23-.57l-65.67 17.69a.215.073 38.698 0 1-.147-.053q-.028-.018-.042-.049-.022-.046-.018-.079a.215.073-89.328 0 1 .052-.148l55.331-39.546a1.058 1.048-30.783 0 0 .339-1.313l-12.024-25.466a.541.536-31.961 0 0-.829-.189l-81.927 66.711a1.252 1.239 57.854 0 0-.336 1.509q1.133 2.349 6.648 14.01m131.297 60.935a.72.72 66.375 0 0 .994.222l16.054-10.188a.72.72 52.511 0 0 .222-.994l-32.728-51.574a.72.72 2.539 0 0-.994-.222l-86.704 55.018a.72.72 61.281 0 0-.222.994l14.528 22.894a.72.72 1.114 0 0 .994.222l32.404-20.568a.72.72-37.769 0 1 .994.222l15.008 23.644a.72.72-13.945 0 0 .994.222l14.674-9.308a.72.72-42.648 0 0 .222-.994l-15.008-23.654a.72.72 6.935 0 1 .221-.994l19.915-12.648a.72.72 25.92 0 1 .994.222zm1040.031-24.9 88.125 53.581a.531.524-58.539 0 0 .719-.179l30.953-50.896a.666.658 31.519 0 0-.223-.904l-16.405-9.994a.588.581 31.135 0 0-.809.194l-16.025 26.317a.829.821-58.54 0 1-1.128.277l-70.326-42.774a.525.524 30.993 0 0-.728.181l-14.315 23.535a.489.482-59.15 0 0 .162.662m46.564 47.94-16.76 21.492a.819.812 38.024 0 0 .145 1.149q8.557 6.564 12.24 9.565 2.208 1.804.787 4.034-1.896 2.99-4.837 6.166-1.973 2.135-4.445.206-36.992-28.816-46.884-36.59-2.441-1.921-.824-4.302 2.027-2.983 4.205-5.469c1.683-1.925 2.99-2.298 5.121-.656q4.557 3.505 12.509 9.748a.68.68 28.49 0 0 .952-.116l16.76-21.492a.67.67-54.423 0 0-.124-.94q-2.478-1.888-14.205-11.043c-11.431-8.913-22.018-4.938-30.126 5.419q-12.624 16.139-15.089 19.358c-7.973 10.404-10.018 21.596 1.469 30.654q5.863 4.627 50.518 39.395c11.387 8.868 21.888 4.349 29.952-5.853q3.445-4.35 15.142-19.433c7.692-9.904 9.702-21.344-1.256-30.034q-6.171-4.887-14.507-11.353a.537.53-51.896 0 0-.743.095M366.41 1332.45a.64.64 0 0 0-.903-.061l-13.203 11.517a.64.64 0 0 0-.061.903l31.527 36.141a.64.64 0 0 0 .903.061l13.203-11.517a.64.64 0 0 0 .061-.903zm936.696 37.492a.6.6 57.275 0 0-.847-.036l-20.138 18.538a.6.6-50.45 0 0-.035.847l69.708 75.728a.6.6 30.37 0 0 .847.035l43.678-40.208a.6.6 64.82 0 0 .035-.847l-12.998-14.137a.6.6 44.174 0 0-.848-.035l-22.667 20.867a.6.6 82.269 0 1-.847-.036zm-830.336 92.969-20.957-17.429a.819.812-50.176 0 0-1.154.109q-6.83 8.347-9.945 11.935-1.873 2.151-4.057.66-2.93-1.99-6.012-5.03-2.072-2.038-.066-4.448 29.967-36.073 38.048-45.718 1.998-2.379 4.326-.688 2.919 2.12 5.336 4.375c1.871 1.743 2.203 3.061.495 5.14q-3.647 4.445-10.138 12.198a.68.68-12.892 0 0 .086.955l20.958 17.429a.67.67-70.381 0 0 .944-.095q1.965-2.417 11.484-13.852c9.269-11.148 5.628-21.855-4.471-30.285q-15.736-13.126-18.876-15.692c-10.149-8.297-21.273-10.692-30.688.505q-4.81 5.716-40.967 49.262c-9.222 11.104-5.036 21.744 4.91 30.125q4.24 3.58 18.949 15.746c9.659 8.001 21.031 10.369 30.062-.312q5.08-6.015 11.804-14.145a.537.53 39.904 0 0-.071-.745m756.72-34.379 61.202 83.004a.531.524-36.241 0 0 .733.108l47.945-35.344a.666.658 53.817 0 0 .137-.921l-11.386-15.47a.588.581 53.432 0 0-.821-.127l-24.81 18.267a.829.821-36.243 0 1-1.149-.171l-48.835-66.254a.525.524 53.291 0 0-.743-.108l-22.172 16.342a.489.482-36.852 0 0-.101.674m-694.774 120.366a.389.384 25.492 0 0 .576-.2l32.511-101.162a1.025 1.012-64.975 0 0-.415-1.167l-28.006-17.695a.976.971 39.412 0 0-1.177.112l-77.296 72.989a.41.409 40.166 0 0 .055.647l22.838 14.382a.74.74 68.852 0 0 .915-.106l10.101-10.347a1.05 1.044 38.372 0 1 1.312-.149l19.477 12.313a1.062 1.061 26.329 0 1 .433 1.277l-5.015 13.424a.813.801 26.83 0 0 .325.966zm742.186-26.689a.389.384-36.191 0 0 .097-.601l-73.551-76.521a1.024 1.01 53.343 0 0-1.223-.187l-28.83 16.242a.974.97-22.271 0 0-.458 1.088l27.557 102.553a.409.408-21.516 0 0 .595.258l23.467-13.269a.736.736-31.634 0 0 .34-.854l-4.312-13.784a1.048 1.043-23.311 0 1 .491-1.225l20.056-11.293a1.06 1.06-35.353 0 1 1.328.225l9.428 10.77a.812.8-34.852 0 0 1.003.172zm-680.24-2.251a.294.29 58.273 0 1 .557.136l-1.499 56.451a1.317 1.313 12.972 0 0 .781 1.244l20.798 9.452a.78.78-3.017 0 0 1.031-.388l42.474-93.533a.632.623 24.28 0 0-.319-.824l-22.741-10.339a.563.55 24.197 0 0-.737.27l-21.924 48.321a.25.248-32.165 0 1-.476-.107l1.753-57.309a1.284 1.267-76.957 0 0-.733-1.193l-20.838-9.509a.743.743 55.129 0 0-.984.368l-42.44 93.424a.81.807-65.919 0 0 .409 1.077l22.343 10.081a.837.832 24.258 0 0 1.1-.413zm562.763 5.405q3.145-4.795 2.064-10.475c-1.303-6.889-4.047-12.692-6.893-19.709-6.335-15.574-17.499-16.031-31.303-10.496q-21.788 8.729-42.58 17.004a.57.57 57.31 0 0-.316.745l38.03 95.395a.827.827-21.043 0 0 1.074.463q40.497-16.11 44.92-17.927c11.404-4.678 18.183-13.087 13.794-25.834q-.335-.972-6.176-15.598c-1.726-4.324-4.308-9.403-8.741-11.619-1.275-.636-2.62-.583-3.57-.978a.66.659 27.743 0 1-.303-.971m-486.975-27.861-29.409 98.649a.6.6 45 0 0 .404.747l48.654 14.504a20.41 19.58 16.6 0 0 25.153-12.933l18.564-62.271a20.41 19.58 16.6 0 0-13.965-24.595l-48.654-14.505a.6.6 0 0 0-.747.404m369.347 14.808-32.577 8.521a.557.557-14.497 0 0-.4.679l4.93 18.78a.432.425 74.865 0 0 .53.31l18.17-4.76a.786.786 23.732 0 1 .96.56l20.9 79.7a.496.489 75.018 0 0 .595.35q3.482-.909 13.307-3.488t13.304-3.496a.496.489 75.572 0 0 .347-.597l-20.93-79.692a.786.786-73.235 0 1 .561-.959l18.166-4.776a.432.425 75.725 0 0 .309-.53l-4.927-18.781a.557.557-14.913 0 0-.682-.395zm-34.704 28.478a18.88 18.88 0 0 0-21.239-16.18l-33.594 4.542a18.88 18.88 0 0 0-16.181 21.239l8.868 65.583a18.88 18.88 0 0 0 21.239 16.18l33.594-4.542a18.88 18.88 0 0 0 16.181-21.239zm-161.989-8.468-60.68-6.892a.78.78 29.461 0 0-.864.69l-11.541 101.971a.696.696 44.582 0 0 .61.773l27.03 3.084a.64.64-11.191 0 0 .708-.559l4.372-38.51a.436.436-23.066 0 1 .485-.379l27.741 3.143a1.073 1.073 90 0 0 1.193-.939l1.913-16.972a.688.682-83.779 0 0-.6-.753l-27.927-3.151a.657.652 6.483 0 1-.583-.727l2.643-23.47a.768.763 6.529 0 1 .845-.667l32.354 3.663a.66.652 5.888 0 0 .727-.583l2.157-18.996a.666.66-83.986 0 0-.583-.726m78.702 18.6a18.78 18.78 0 0 0-19.105-18.449l-34.055.594a18.78 18.78 0 0 0-18.449 19.105l1.157 66.29a18.78 18.78 0 0 0 19.105 18.449l34.055-.594a18.78 18.78 0 0 0 18.449-19.105z"></path><path fill="#fff" fill-rule="evenodd" d="M1534.363 1079.82a.66.658-23.629 0 0 .947.37c.901-.496 1.7-1.58 2.992-2.178 4.498-2.08 10.075-.927 14.53.424q15.069 4.567 16.037 4.912c12.694 4.527 15.031 15.07 11.567 26.896q-1.342 4.588-14.034 46.272a.827.827 71.185 0 1-1.031.549l-98.24-29.834a.57.57-45 0 1-.384-.712q6.513-21.404 13.294-43.868c4.293-14.236 11.617-22.67 27.734-17.898 7.257 2.157 13.501 3.636 19.695 6.917q5.111 2.702 6.893 8.15m-41.002 26.088 21.402 6.543a.73.73 0 0 0 .912-.484l3.275-10.711a3.65 3.52-73 0 0-2.299-4.52l-16.066-4.912a3.65 3.52-73 0 0-4.434 2.462l-3.274 10.71a.73.73 17.783 0 0 .484.912m40.796 12.433 21.471 6.524a.77.77 10.46 0 0 .961-.513l3.328-10.956a3.38 3.29-73.1 0 0-2.165-4.19l-16.649-5.058a3.38 3.29-73.1 0 0-4.13 2.277l-3.329 10.956a.77.77-54.314 0 0 .513.96M192.57 1127.48a.743.734 71.932 0 1-.93-.48l-8.18-25.62a.923.923-74.798 0 1 .6-1.16l97.67-31.21a.66.66 21.153 0 1 .83.43q11.45 35.76 14.83 46.43c4.01 12.67 1.13 23.53-12.5 27.82q-1.62.51-27.99 8.91-15.45 4.92-23.26-8.44-1.48-2.53-3.4-8.15-2.94-8.63-5.74-18.02a.674.671-17.505 0 0-.85-.44zm78.243-25.099-26.341 8.508a.84.84-28.511 0 0-.541 1.057l3.323 10.287a3.43 3.41 72.1 0 0 4.299 2.216l21.449-6.928a3.43 3.41 72.1 0 0 2.191-4.312l-3.323-10.287a.84.84 6.196 0 0-1.057-.541"></path><path fill="#e41b13" fill-rule="evenodd" d="M1493.361 1105.908a.73.73 55.495 0 1-.484-.912l3.274-10.71a3.65 3.52-73 0 1 4.434-2.462l16.066 4.912a3.65 3.52-73 0 1 2.299 4.52l-3.275 10.711a.73.73-45 0 1-.912.484z"></path><path fill="#fff" fill-rule="evenodd" d="M1148.92 1291.32q-22.58 14.64-48.45 27.67-4.06 2.04-8.72 2.54-26.85 2.87-54.25 2.28-21.66-.47-38.93-3.9-11.05-2.2-21.04-6.89a.435.435-59.904 0 1-.17-.64c12-18.14 23.2-36.38 31.97-55.28q3.33-7.17 5.19-14.79a.631.624-6.841 0 0-.9-.7q-40.19 20.57-80.58 38.67c-13.9 6.23-28.57 12.56-43.46 16.57-8.18 2.2-18.54-.55-27.15-3.01q-16.61-4.72-26.57-8.17-45.69-15.8-89.73-34.44a.271.27-5.605 0 0-.33.4q17.11 24.62 21.21 30.36c9.77 13.67 19.12 26.04 30.32 35.78a.149.148-28.099 0 1-.08.26q-30.61 3.4-61.5 5.44c-16.9 1.11-34.12 2-50.37.43-3.24-.32-6.58-1.01-9.83-2.58q-27.98-13.53-54.2-30.76 130.81-94.72 261.52-189.44c1.94-1.41 2.61-1.2 4.56.21q130.72 95.06 261.49 189.99"></path><path fill="#e41b13" fill-rule="evenodd" d="M270.813 1102.381a.84.84 19.102 0 1 1.057.541l3.323 10.287a3.43 3.41 72.1 0 1-2.191 4.312l-21.449 6.928a3.43 3.41 72.1 0 1-4.299-2.216l-3.323-10.287a.84.84 16.807 0 1 .541-1.057zM1534.157 1118.341a.77.77-36.777 0 1-.513-.96l3.329-10.956a3.38 3.29-73.1 0 1 4.13-2.277l16.649 5.058a3.38 3.29-73.1 0 1 2.165 4.19l-3.328 10.956a.77.77 53.133 0 1-.961.513z"></path><path fill="#fff" fill-rule="evenodd" d="M1542.754 1212.656c-5.66 12.416-9.905 26.627-24.579 26.549q-4.195-.025-14.915-5.075-6.63-3.14-69.74-31.83a.465.461-65.604 0 1-.23-.62l11.55-25.04a.497.492-65.016 0 1 .65-.24q29.89 13.64 72.522 33.068c3.685 1.678 4.859-2.325 6.199-5.265s3.591-6.451-.093-8.131q-42.628-19.437-72.529-33.052a.497.492-65.974 0 1-.245-.648l11.324-25.142a.465.461-65.386 0 1 .619-.234q63.052 28.819 69.771 31.764 10.843 4.779 13.614 7.929c9.684 11.025 1.742 23.551-3.918 35.967M261.311 1206.408q.014.031.042.049a.215.073 38.698 0 0 .147.053l65.67-17.69a1.058 1.048-19.847 0 1 1.23.57l12.06 25.45a.541.536-18.67 0 1-.38.76l-103.54 21.02a1.252 1.239 71.516 0 1-1.38-.697q-1.097-2.366-6.613-14.026-5.515-11.661-6.648-14.01a1.252 1.239 57.854 0 1 .336-1.509l81.927-66.711a.541.536-31.961 0 1 .829.189l12.024 25.466a1.058 1.048-30.783 0 1-.339 1.313l-55.331 39.546a.215.073-89.328 0 0-.052.148q-.004.033.018.079M359.844 1282.832l-17.438-27.484a.72.72 88.819 0 0-.994-.222l-19.915 12.648a.72.72-33.924 0 0-.221.994l15.008 23.654a.72.72-.027 0 1-.222.994l-14.674 9.308a.72.72 7.261 0 1-.994-.222l-15.008-23.644a.72.72-41.528 0 0-.994-.222l-32.404 20.568a.72.72 8.286 0 1-.994-.222l-14.528-22.894a.72.72 61.845 0 1 .222-.994l86.704-55.018a.72.72-65.737 0 1 .994.222l32.728 51.574a.72.72-85.453 0 1-.222.994l-16.054 10.188a.72.72 70.527 0 1-.994-.222M1399.875 1257.932a.489.482-59.15 0 1-.162-.662l14.315-23.535a.525.524 30.993 0 1 .728-.181l70.326 42.774a.829.821-58.54 0 0 1.128-.277l16.025-26.317a.588.581 31.135 0 1 .809-.194l16.405 9.994a.666.658 31.519 0 1 .223.904l-30.953 50.896a.531.524-58.539 0 1-.719.179zM1446.439 1305.872a.537.53-51.896 0 1 .743-.095q8.336 6.466 14.507 11.353c10.958 8.69 8.948 20.13 1.256 30.034q-11.697 15.083-15.142 19.433c-8.064 10.202-18.565 14.721-29.952 5.853q-44.655-34.768-50.518-39.395c-11.487-9.058-9.442-20.25-1.469-30.654q2.465-3.219 15.089-19.358c8.108-10.357 18.695-14.332 30.126-5.419q11.727 9.155 14.205 11.043a.67.67-14.852 0 1 .124.94l-16.76 21.492a.68.68 37.44 0 1-.952.116q-7.952-6.243-12.509-9.748c-2.131-1.642-3.438-1.269-5.121.656q-2.178 2.486-4.205 5.469-1.617 2.381.824 4.302 9.892 7.774 46.884 36.59 2.472 1.929 4.445-.206 2.941-3.176 4.837-6.166 1.421-2.23-.787-4.034-3.683-3.001-12.24-9.565a.819.812 38.024 0 1-.145-1.149zM397.937 1368.591a.64.64 0 0 1-.061.903l-13.203 11.517a.64.64 0 0 1-.903-.061l-31.527-36.141a.64.64 0 0 1 .061-.903l13.203-11.517a.64.64 0 0 1 .903.061zM1303.106 1369.942l55.888 60.716a.6.6 48.747 0 0 .847.036l22.667-20.867a.6.6 82.066 0 1 .848.035l12.998 14.137a.6.6 85.375 0 1-.035.847l-43.678 40.208a.6.6 79.418 0 1-.847-.035l-69.708-75.728a.6.6-25.045 0 1 .035-.847l20.138-18.538a.6.6 80.452 0 1 .847.036M472.77 1462.911a.537.53 39.904 0 1 .071.745q-6.724 8.13-11.804 14.145c-9.031 10.681-20.403 8.313-30.062.312q-14.709-12.166-18.949-15.746c-9.946-8.381-14.132-19.021-4.91-30.125q36.157-43.546 40.967-49.262c9.415-11.197 20.539-8.802 30.688-.505q3.14 2.566 18.876 15.692c10.099 8.43 13.74 19.137 4.471 30.285q-9.519 11.435-11.484 13.852a.67.67-70.355 0 1-.944.095l-20.958-17.429a.68.68-90 0 1-.086-.955q6.491-7.753 10.138-12.198c1.708-2.079 1.376-3.397-.495-5.14q-2.417-2.255-5.336-4.375-2.328-1.691-4.326.688-8.081 9.645-38.048 45.718-2.006 2.41.066 4.448 3.082 3.04 6.012 5.03 2.184 1.491 4.057-.66 3.115-3.588 9.945-11.935a.819.812-50.176 0 1 1.154-.109zM1229.49 1428.532a.489.482-36.852 0 1 .101-.674l22.172-16.342a.525.524 53.291 0 1 .743.108l48.835 66.254a.829.821-36.243 0 0 1.149.171l24.81-18.267a.588.581 53.432 0 1 .821.127l11.386 15.47a.666.658 53.817 0 1-.137.921l-47.945 35.344a.531.524-36.241 0 1-.733-.108zM534.716 1548.898l-23.366-14.716a.813.801 26.83 0 1-.325-.966l5.015-13.424a1.062 1.061 26.329 0 0-.433-1.277l-19.477-12.313a1.05 1.044 38.372 0 0-1.312.149l-10.101 10.347a.74.74-3.169 0 1-.915.106l-22.838-14.382a.41.409 40.166 0 1-.055-.647l77.296-72.989a.976.971 39.412 0 1 1.177-.112l28.006 17.695a1.025 1.012-64.975 0 1 .415 1.167l-32.511 101.162a.389.384 25.492 0 1-.576.2m-24.384-58.224a.34.34 40.269 0 0 .06.526l12.853 8.125a.34.34 48.906 0 0 .501-.171l12.194-33.515a.34.34-45.656 0 0-.562-.355zM1276.902 1522.209l-24.012 13.574a.812.8-34.852 0 1-1.003-.172l-9.428-10.77a1.06 1.06-35.353 0 0-1.328-.225l-20.056 11.293a1.048 1.043-23.311 0 0-.491 1.225l4.312 13.784a.736.736 13.826 0 1-.34.854l-23.467 13.269a.409.408-21.516 0 1-.595-.258l-27.557-102.553a.974.97-22.271 0 1 .458-1.088l28.83-16.242a1.024 1.01 53.343 0 1 1.223.187l73.551 76.521a.389.384-36.191 0 1-.097.601m-62.772-6.124a.36.36 50.175 0 0 .52.208l13.158-7.384a.36.36 39.177 0 0 .093-.552l-23.684-26.79a.36.36-10.506 0 0-.614.344zM596.662 1519.958l-21.445 47.209a.837.832 24.258 0 1-1.1.413l-22.343-10.081a.81.807-65.919 0 1-.409-1.077l42.44-93.424a.743.743 28.041 0 1 .984-.368l20.838 9.509a1.284 1.267-76.957 0 1 .733 1.193l-1.753 57.309a.25.248-32.165 0 0 .476.107l21.924-48.321a.563.55 24.197 0 1 .737-.27l22.741 10.339a.632.623 24.28 0 1 .319.824l-42.474 93.533a.78.78 53.289 0 1-1.031.388l-20.798-9.452a1.317 1.313 12.972 0 1-.781-1.244l1.499-56.451a.294.29 58.273 0 0-.557-.136"></path><path fill="#e41b13" fill-rule="evenodd" d="m510.332 1490.674 25.046-25.39a.34.34 23.576 0 1 .562.355l-12.194 33.515a.34.34 70.643 0 1-.501.171l-12.853-8.125a.34.34 74.318 0 1-.06-.526"></path><path fill="#fff" fill-rule="evenodd" d="M1159.425 1525.363a.66.659 27.743 0 0 .303.971c.95.395 2.295.342 3.57.978 4.433 2.216 7.015 7.295 8.741 11.619q5.841 14.626 6.176 15.598c4.389 12.747-2.39 21.156-13.794 25.834q-4.423 1.817-44.92 17.927a.827.827-.239 0 1-1.074-.463l-38.03-95.395a.57.57 78.841 0 1 .316-.745q20.792-8.275 42.58-17.004c13.804-5.535 24.968-5.078 31.303 10.496 2.846 7.017 5.59 12.82 6.893 19.709q1.081 5.68-2.064 10.475m-46.048-15.841 8.4 21.002a.59.59-37.719 0 0 .767.329l10.557-4.223a3.62 3.4-21.8 0 0 2.099-4.501l-6.314-15.784a3.62 3.4-21.8 0 0-4.624-1.813l-10.556 4.223a.59.59 71.462 0 0-.329.767m15.949 39.994 8.053 20.236a1.09 1.09-31.976 0 0 1.416.61l10.276-4.089a3.45 3.25-21.7 0 0 2.004-4.296l-6.456-16.222a3.45 3.25-21.7 0 0-4.407-1.744l-10.276 4.089a1.09 1.09-31.144 0 0-.61 1.416"></path><path fill="#e41b13" fill-rule="evenodd" d="m1214.13 1516.085-10.527-34.174a.36.36 54.145 0 1 .614-.344l23.684 26.79a.36.36-84.964 0 1-.093.552l-13.158 7.384a.36.36-80.776 0 1-.52-.208"></path><path fill="#fff" fill-rule="evenodd" d="M672.45 1497.502a.6.6-79.416 0 1 .747-.404l48.654 14.505a20.41 19.58 16.6 0 1 13.965 24.595l-18.564 62.271a20.41 19.58 16.6 0 1-25.153 12.933l-48.654-14.504a.6.6-90 0 1-.404-.747zm35.67 31.605a1.86 1.86 0 0 0-1.251-2.314l-10.58-3.154a1.86 1.86 0 0 0-2.314 1.251l-17.935 60.163a1.86 1.86 0 0 0 1.251 2.314l10.58 3.154a1.86 1.86 0 0 0 2.314-1.251zM1068.212 1612.962q-9.825 2.579-13.307 3.488a.496.489 75.018 0 1-.595-.35l-20.9-79.7a.786.786-.942 0 0-.96-.56l-18.17 4.76a.432.425 74.865 0 1-.53-.31l-4.93-18.78a.557.557-14.497 0 1 .4-.679l32.577-8.521 32.563-8.574a.557.557-14.913 0 1 .682.395l4.927 18.781a.432.425 75.725 0 1-.309.53l-18.166 4.776a.786.786 69.781 0 0-.561.959l20.93 79.692a.496.489 75.572 0 1-.347.597q-3.48.918-13.304 3.496"></path><path fill="#e41b13" fill-rule="evenodd" d="M1113.377 1509.522a.59.59-75.701 0 1 .329-.767l10.556-4.223a3.62 3.4-21.8 0 1 4.624 1.813l6.314 15.784a3.62 3.4-21.8 0 1-2.099 4.501l-10.557 4.223a.59.59-61.272 0 1-.767-.329zM690.185 1589.27a1.86 1.86 0 0 1-2.314 1.251l-10.58-3.154a1.86 1.86 0 0 1-1.251-2.314l17.935-60.163a1.86 1.86 0 0 1 2.314-1.251l10.58 3.154a1.86 1.86 0 0 1 1.251 2.314z"></path><path fill="#fff" fill-rule="evenodd" d="M1015.961 1606.371a18.88 18.88 0 0 1-16.181 21.239l-33.594 4.542a18.88 18.88 0 0 1-21.239-16.18l-8.868-65.583a18.88 18.88 0 0 1 16.181-21.239l33.594-4.542a18.88 18.88 0 0 1 21.239 16.18zm-36.477-57.19a3.16 3.16 0 0 0-3.56-2.702l-8.382 1.148a3.16 3.16 0 0 0-2.702 3.56l7.736 56.472a3.16 3.16 0 0 0 3.56 2.702l8.382-1.148a3.16 3.16 0 0 0 2.702-3.56zM845.104 1532.32a.666.66-83.986 0 1 .583.726l-2.157 18.996a.66.652 5.888 0 1-.727.583l-32.354-3.663a.768.763 6.529 0 0-.845.667l-2.643 23.47a.657.652 6.483 0 0 .583.727l27.927 3.151a.688.682-83.779 0 1 .6.753l-1.913 16.972a1.073 1.073 50.766 0 1-1.193.939l-27.741-3.143a.436.436 32.764 0 0-.485.379l-4.372 38.51a.64.64 39.814 0 1-.708.559l-27.03-3.084a.696.696 50.873 0 1-.61-.773l11.541-101.971a.78.78-5.835 0 1 .864-.69zM924.963 1617.21a18.78 18.78 0 0 1-18.449 19.105l-34.055.594a18.78 18.78 0 0 1-19.105-18.449l-1.157-66.29a18.78 18.78 0 0 1 18.449-19.105l34.055-.594a18.78 18.78 0 0 1 19.105 18.449zm-29.431-61.083a3.25 3.25 0 0 0-3.3-3.198l-8.319.13a3.25 3.25 0 0 0-3.199 3.301l.894 56.873a3.25 3.25 0 0 0 3.3 3.198l8.319-.13a3.25 3.25 0 0 0 3.199-3.301z"></path><path fill="#e41b13" fill-rule="evenodd" d="M1129.326 1549.516a1.09 1.09 8.201 0 1 .61-1.416l10.276-4.089a3.45 3.25-21.7 0 1 4.407 1.744l6.456 16.222a3.45 3.25-21.7 0 1-2.004 4.296l-10.276 4.089a1.09 1.09.075 0 1-1.416-.61zM987.22 1605.653a3.16 3.16 0 0 1-2.702 3.56l-8.382 1.148a3.16 3.16 0 0 1-3.56-2.702l-7.736-56.472a3.16 3.16 0 0 1 2.702-3.56l8.382-1.148a3.16 3.16 0 0 1 3.56 2.702zM896.426 1613a3.25 3.25 0 0 1-3.199 3.301l-8.319.13a3.25 3.25 0 0 1-3.3-3.198l-.894-56.873a3.25 3.25 0 0 1 3.199-3.301l8.319-.13a3.25 3.25 0 0 1 3.3 3.198z" data-source="https://football-logos.cc"></path><!-- source: https://football-logos.cc --></svg>