<svg xmlns="http://www.w3.org/2000/svg" viewBox="0.69 0.48 174.2 175.47"><!-- Source: https://football-logos.cc --><style data-source="https://football-logos.cc">.shp0{fill:#e32b19}.shp1{fill:#991f18}</style><path d="M1.43 26.35c16.15-3 59.12-8.53 73.3-9.51 15.25-1.52 16.89 7.38 8.86 16.64-6.36 6.76-78.51 49.92-65.56 66.89-28.66-29.6 36.73-61.77 45.92-71.69 10.99-11.43-38.09-4.26-62.52-2.33" class="shp0"></path><path d="M18.03 100.37c4.39 6.76 53.83-10.62 74.66-28.2 1.6-1.31 10.04-7.83 8.69-10.17-28.82 14.76-71.99 26.19-77.9 19.76-2.5 2.83-7.21 8.89-7.01 14.3.04 1.52.58 2.95 1.56 4.31" class="shp1"></path><path d="M101.38 62c6.52.29 6.27 10.87-7.79 17.63C71 91.27 43.7 110.32 55.95 130.37c-34.39-17.22 8.33-46.44 26.98-55.78 4.76-2.54 20.21-8.78 18.45-12.59" class="shp0"></path><path d="M174.27.48C149.39 63.52 88.3 120.04 52.96 118.85c-.37 3.98.82 8.03 2.99 11.52C96.09 142.79 164.19 47.54 174.27.48" class="shp1" data-source="https://football-logos.cc"></path><path d="M153.04 14.09c-.05-.21-.09-.33-.09-.33.04.12.09.33.09.33m-2.18 7.79v.04c.21-.21 1.15-1.19 1.97-2.95.04-.09.08-.17.12-.25 0 0 0-.04.04-.04.29-.82.37-1.52.33-2.7-.04-.54-.16-1.32-.28-1.89.16.82.45 2.87-.13 4.51-.53 1.6-1.76 2.95-2.05 3.28" class="shp0"></path><path fill-rule="evenodd" d="M147.01 13.23c.12-.16.29-.33.45-.49.94-.94 2.13-1.81 3.36-2.17 1.03-.29 2.05-.29 2.99.24-.49-.12-1.18-.12-2.17.17-2.21.65-3.73 2.7-4.3 3.73zm-.29 0 .37 1.56-2.01-1.07-.37-1.47zm-3.97-2.3c1.02-.98 2.13-1.72 3.36-2.09 1.27-.36 3.11-.45 5.66.29-.41-.2-.91-.33-1.36-.49-1.64-.45-3.07-.45-4.38-.04-1.28.41-2.42 1.15-3.45 2.13l-2.05-.98c.12-.13.37-.41.82-.82.08-.04.17-.17.25-.21s.16-.12.2-.16c.13-.08.21-.17.33-.25.04 0 .08-.04.12-.08.05 0 .09-.08.13-.08.37-.25.78-.49 1.31-.7.74-.37 1.88-.74 3.28-.74 1.48 0 3.2.41 5.08 1.56.29.16 1.03.74 1.56 1.35.53.66.86 1.15 1.02 1.44l-.08-.04c-1.15-.99-2.5-1.07-3.77-.7-1.31.41-2.54 1.27-3.48 2.21-.17.17-.33.33-.45.5L144.71 12c.33-.57.99-1.27 2.22-2.01.82-.53 1.68-.86 2.37-1.02-.77-.04-1.72.08-2.74.53-1.68.74-3.03 2.54-3.28 3.12zm2.7 5.78 1.19-1.1.04 2.33-1.15 1.11zm-.04 4.59c-1.35-.36-2.54-.94-3.53-1.8-.73-.7-1.55-1.8-2.17-3.48v-.08h-.04v-.09c-.16-.41-.29-.86-.41-1.35 0 .49.12.94.25 1.39.45 1.64 1.19 2.87 2.21 3.82.99.9 2.21 1.47 3.65 1.84l.08 2.34c-.16-.04-.53-.09-1.19-.33-.08 0-.2-.04-.29-.08-.08-.04-.16-.09-.24-.13-.12-.04-.25-.08-.37-.12-.04-.04-.08-.04-.12-.08a.4.4 0 0 1-.17-.08c-.36-.17-.82-.41-1.27-.78-1.39-.9-3.6-3.32-3.44-7.63 0-.28.12-1.23.41-2 .45-1.19.86-1.81.9-1.81-.45 1.64.21 3.12 1.31 4.02 1.07.9 2.59 1.43 4.23 1.88l.08 2.38c-.62.04-1.56-.16-2.87-.86-.82-.45-1.48-.94-1.97-1.43.37.65.9 1.35 1.76 1.96 1.48 1.03 3.69 1.32 4.35 1.23zm-.12-4.79c-1.6-.41-3.08-.98-4.14-1.85-.82-.69-1.36-1.59-1.44-2.86.17.49.49 1.06 1.27 1.76 1.68 1.6 4.27 1.92 5.41 1.88zm.33 4.96 1.14-1.27.04 2.17-1.1 1.31zm9.38-8.98-.61.37-1.27.78-1.68-.25 1.88-1.18zm-5.29 8.4c.21-1.39-.08-2.95-.57-4.59l2.09-1.14c.33.53.58 1.43.62 2.87.04.9-.08 1.72-.25 2.37.37-.61.7-1.43.82-2.5.16-1.72-.65-3.69-1.06-4.26l1.59.25c.5 1.64.58 2.99.25 4.26-.33 1.15-1.02 2.25-2.01 3.44l-.08.12-.08.04-.04.09-.58.69c1.44-1.18 2.67-3.03 3.04-4.34.32-1.27.28-2.66-.21-4.3l2.01-1.23c.08.16.21.49.29 1.06.04.12.08.25.08.33s.04.16.04.29c0 .12.04.2.04.37v.12c0 .08.04.16.04.16 0 .45 0 .95-.04 1.52-.12 1.68-1.11 4.75-4.92 6.8v-.04c-.29.17-1.15.53-1.97.66-1.27.2-2.05.16-2.05.16 1.69-.49 2.71-1.8 2.95-3.2m-.69-4.79-1.44-.33 1.97-1.23 1.44.45zm-1.56-.12 1.43.36c.46 1.6.74 3.16.54 4.51-.17 1.11-.74 2.09-1.93 2.79.37-.33.78-.94 1.03-2.05.53-2.25-.45-4.59-1.07-5.61m-6.89-5.95 1.93.95.53 1.59-1.92-.98z" class="shp0"></path><path fill-rule="evenodd" d="M14.14 175.57h-3.86L.69 151.02l6.76 5.87 4.76 12.25 7.3-18.12 3.32 2.91zm21.19-4.05H43l4.67 4.05H30.82v-24.55l4.51 3.9zm-10.7 4.05c-1.27 0-2.3-1.02-2.3-2.29s1.03-2.29 2.3-2.29 2.3 1.02 2.3 2.29-1.03 2.29-2.3 2.29m28.95-14.67h9.47l4.26 3.65v.24H53.58v6.73h9.3l4.68 4.05H53.37l-4.3-3.72v-20.83h13.89l4.6 3.98H53.58zm50.71-6.35c-.16.16-.41.29-.66.29-3.73.24-6.97 2.91-7.79 6.55-.86 3.65.82 7.42 4.1 9.27 3.24 1.84 7.34 1.31 10.05-1.31v-2.96h-2.38l-4.67-4.01h11.43v8.19c-1.76 2.5-4.34 4.27-7.29 5-1.97.46-4.06.46-6.03 0-5.7-1.35-9.43-6.35-9.39-12.21.04-5.82 4.1-10.86 9.76-12.17l3.07 2.66c.05.25-.04.49-.2.7m29.97 18.77a9.23 9.23 0 0 1-6.76 2.62c-2.55.09-5.01-.86-6.81-2.62a9.24 9.24 0 0 1-2.87-6.72v-15.58l4.18 3.61v11.97c0 1.43.58 2.79 1.64 3.77 1.03.98 2.42 1.48 3.86 1.44 1.39.04 2.78-.46 3.85-1.44 1.02-.98 1.6-2.34 1.6-3.77v-15.58l4.18 3.61v11.97a9.28 9.28 0 0 1-2.87 6.72m11.27-12.42H155l4.27 3.65v.24h-13.74v6.73h9.31l4.72 4.05h-14.23l-4.26-3.72v-20.83h13.89l4.6 3.98h-14.03zm29.36 14.67h-4.47v-20.61h-4.92l4.55-3.94h4.84zm-83.31 0-6.97-6.02-.41-1.02h-9.22l-2.71 7.04-3.36-2.86 8.36-21.69h4.27l4.01 9.76h-4.51l-1.59-3.85-2.96 7.74h6.11l-1.56-3.89h4.51zm12.05-20.73.86-.99z" style="fill:#111" data-source="https://football-logos.cc"></path><!-- source: https://football-logos.cc --></svg>