<svg xmlns="http://www.w3.org/2000/svg" viewBox="0.66 0.21 445.72 445.72"><!-- Source: https://football-logos.cc --><path fill="#fbaa23" fill-rule="evenodd" d="M446.38 223.07a222.86 222.86 0 0 1-222.86 222.86A222.86 222.86 0 0 1 .66 223.07 222.86 222.86 0 0 1 223.52.21a222.86 222.86 0 0 1 222.86 222.86m-11.46-.07A211.42 211.42 0 0 0 223.5 11.58 211.42 211.42 0 0 0 12.08 223 211.42 211.42 0 0 0 223.5 434.42 211.42 211.42 0 0 0 434.92 223" data-source="https://football-logos.cc"></path><path fill="#373e48" fill-rule="evenodd" d="M434.92 223A211.42 211.42 0 0 1 223.5 434.42 211.42 211.42 0 0 1 12.08 223 211.42 211.42 0 0 1 223.5 11.58 211.42 211.42 0 0 1 434.92 223M199.398 46.667q-3.612.495-7.166.894a.451.446-6.931 0 1-.494-.384l-1.13-8.317a2.013 2.003 50.94 0 1 .09-.886q.283-.833 1.029-1.848a.399.398-75.535 0 0-.372-.632l-6.982.947a.348.347-34.728 0 0-.119.652c1.264.655 2.02 1.581 2.178 3.365q.051.535 2.819 20.718c.246 1.722-.032 2.38-1.063 3.821a.344.338 13.893 0 0 .327.532l6.877-.931a.364.364 62.62 0 0 .198-.625l-1.462-1.391a1.315 1.254-73.566 0 1-.393-.765l-1.324-9.803a.638.637-8.886 0 1 .528-.722q3.419-.562 6.95-1.046 3.53-.483 6.975-.861a.638.637-6.711 0 1 .702.554l1.36 9.798a1.315 1.254 57.97 0 1-.173.843l-1.033 1.731a.364.364-78.216 0 0 .358.55l6.874-.953a.344.338-29.489 0 0 .172-.6c-1.38-1.111-1.825-1.67-2.051-3.394q-2.761-20.185-2.855-20.713c-.327-1.762.152-2.857 1.193-3.827a.348.347 19.132 0 0-.29-.596l-6.98.965a.399.398 59.938 0 0-.187.709q.991.776 1.488 1.503a2.013 2.003-66.536 0 1 .324.829l1.148 8.315a.451.446-8.665 0 1-.373.502q-3.531.572-7.143 1.066m44.717-.388q-3.616-.42-7.152-.919a.45.446 7.497 0 1-.383-.494l.977-8.324a2.01 2 65.368 0 1 .307-.834q.481-.736 1.455-1.531a.398.397-61.107 0 0-.202-.704l-6.988-.822a.348.347-20.301 0 0-.277.601c1.059.948 1.56 2.031 1.268 3.796q-.083.53-2.428 20.738c-.191 1.726-.623 2.292-1.978 3.429a.344.338 28.32 0 0 .184.597l6.882.81a.364.363 77.048 0 0 .346-.555l-1.067-1.708a1.313 1.252-59.139 0 1-.19-.838l1.159-9.809a.637.636 5.542 0 1 .69-.567q3.446.306 6.981.717t6.959.903a.637.636 7.717 0 1 .542.71l-1.122 9.814a1.313 1.252 72.398 0 1-.377.772l-1.431 1.417a.364.363-63.789 0 0 .21.621l6.884.789a.344.338-15.061 0 0 .316-.538c-1.058-1.418-1.349-2.069-1.138-3.793q2.351-20.206 2.392-20.741c.121-1.785.857-2.725 2.105-3.404a.348.347 33.56 0 0-.132-.648l-6.99-.803a.398.397 74.366 0 0-.357.638q.765.998 1.064 1.824a2.01 2-52.109 0 1 .108.883l-.958 8.326a.45.446 5.762 0 1-.487.393q-3.556-.325-7.172-.746M291.09 35.26l-3.66-1.39a1.05 1.038 29.836 0 0-1.17.31l-4.03 4.95a.316.316-82.079 0 0 .37.49l8.51-3.68a.369.367 43.467 0 0-.02-.68m-126.4 37.33-1.35-.84a1.993 1.981-83.689 0 1-.82-1.03l-6.61-19.12a.359.358 6.589 0 1 .53-.42q8.8 5.56 24.72 15.38.88.55 1.14.54a.426.42-10.557 0 0 .39-.56l-8.6-24.89a1.32 1.316-38.46 0 1 .13-1.12l.76-1.22a.401.4 6.506 0 0-.47-.59l-6.42 2.22a.391.391 7.87 0 0 0 .74q1.26.45 1.95 1.12a2.087 2.052-77.546 0 1 .52.83l4.72 13.66a.386.384 6.503 0 1-.57.45l-19.06-11.88a1.595 1.575-38.345 0 0-1.36-.15l-5.41 1.87a.429.429 47.18 0 0-.03.8q1.61.68 2.19 1.63a1.05.895-74.157 0 1 .11.24l7.71 22.2a1.149 1.135 51.629 0 1-.11 1l-.9 1.44a.39.387 6.283 0 0 .46.57l6.31-2.18a.387.381 51.24 0 0 .07-.69m127.524-12.4a13.6 13.6 0 0 0-7.884-17.543l-2.337-.888a13.6 13.6 0 0 0-17.543 7.884l-.944 2.487a13.6 13.6 0 0 0 7.884 17.543l2.337.888a13.6 13.6 0 0 0 17.543-7.884zm10.793 14.159q4.529 2.438 4.606 2.485a1.088 1.081-74.39 0 1 .517.926q.02 2.53-.7 4.92c-.17.56-1.12.99-1.56 1.29a.615.613-49.921 0 0 .09 1.07l5.88 2.59a.21.205-86.103 0 0 .28-.25l-.55-1.93a2.616 2.53-50.047 0 1-.07-.98q1.52-11.74 3.15-24.54.17-1.33 1.87-2.03a.388.388 47.419 0 0 .029-.707q-1.631-.811-3.369-1.747-1.737-.935-3.313-1.85a.388.388 9.161 0 0-.574.414q.352 1.805-.664 2.679-9.786 8.41-18.748 16.145a2.616 2.53-73.372 0 1-.857.481l-1.914.604a.21.205-37.316 0 0-.054.372l5.4 3.481a.615.613-73.498 0 0 .943-.514c.008-.533-.156-1.563.217-2.013q1.599-1.917 3.721-3.294a1.088 1.081-49.029 0 1 1.058-.078q.082.038 4.612 2.476M139.86 76.656q4.462-2.568 4.543-2.609a1.089 1.082 47.402 0 1 1.061.049q2.163 1.317 3.816 3.189c.387.44.252 1.475.275 2.008a.616.613 71.871 0 0 .958.487l5.304-3.636a.21.205 35.689 0 0-.065-.37l-1.932-.55a2.619 2.532 71.744 0 1-.871-.457q-9.186-7.484-19.216-15.62-1.042-.846-.741-2.661a.389.388-10.789 0 0-.586-.398q-1.55.96-3.262 1.945t-3.321 1.843a.389.388-49.047 0 0 .049.707q1.721.652 1.929 1.978 1.995 12.76 3.849 24.462a2.619 2.532 48.42 0 1-.042.983l-.496 1.946a.21.205 84.476 0 0 .288.242l5.809-2.758a.616.613 48.293 0 0 .06-1.073c-.449-.288-1.412-.691-1.598-1.246q-.788-2.371-.84-4.903a1.089 1.082 72.762 0 1 .491-.941q.076-.05 4.538-2.617m-31.787 10.946q-2.76 2.352-5.523 4.594a.448.444-39.581 0 1-.62-.056l-5.41-6.36a2.003 1.993 18.29 0 1-.4-.79q-.21-.85-.13-2.1a.397.395 71.816 0 0-.65-.33L90 87.1a.347.345-67.378 0 0 .25.61c1.41-.13 2.54.24 3.63 1.65q.33.42 13.48 15.84c1.13 1.31 1.25 2.01 1.16 3.77a.342.336-18.757 0 0 .56.27l5.26-4.47a.363.362 29.97 0 0-.17-.63l-1.97-.38a1.308 1.247 73.784 0 1-.74-.43l-6.37-7.5a.634.633-41.535 0 1 .055-.888q2.561-2.306 5.259-4.606t5.38-4.464a.634.633-39.361 0 1 .885.086l6.398 7.477a1.308 1.247 25.32 0 1 .308.799l.063 2.005a.363.362 69.134 0 0 .595.267l5.246-4.486a.342.336-62.139 0 0-.178-.596c-1.752-.189-2.424-.419-3.539-1.742q-13.145-15.424-13.507-15.816c-1.22-1.3-1.407-2.474-1.055-3.846a.347.345-13.518 0 0-.563-.343l-5.328 4.555a.397.395 27.288 0 0 .223.694q1.247.118 2.053.46a2.003 1.993 80.814 0 1 .717.52l5.424 6.348a.448.444-41.315 0 1-.043.622q-2.65 2.373-5.41 4.726M327.12 99.38v-2.37a1.151 1.115-25.634 0 1 .27-.73l5.99-6.99a.678.671-52.274 0 1 .9-.12c1.58 1.1 4.48 3.24 4.63 5.11q.09.99.19 1.58a.329.327 60.528 0 0 .57.16l4.38-5.12a.424.423-69.647 0 0-.32-.7h-2.24a2.129 2.087-24.152 0 1-1.38-.51L337 87.02a1.297 1.291-49.518 0 1-.14-1.83l4.42-5.16a1.2 1.2-14.156 0 1 1.69-.13l7.27 6.23a1.003.943-78.772 0 1 .3.48l.92 3.44a.511.51 47.902 0 0 .97.05l1.77-4.65a.869.862-59.817 0 0-.25-.96L340 72.54a.195.193-69.688 0 0-.32.15v1.79a2.213 2.19-24.971 0 1-.53 1.43l-14.89 17.38a1.593 1.575 12.209 0 1-.77.49l-2.35.62a.234.231-32.639 0 0-.09.4l5.6 4.8a.287.285-69.912 0 0 .47-.22M364.05 223A140.55 140.55 0 0 0 223.5 82.45 140.55 140.55 0 0 0 82.95 223 140.55 140.55 0 0 0 223.5 363.55 140.55 140.55 0 0 0 364.05 223M76.202 102.902q-3.464 4.238-6.869 8.359a.785.783-42.494 0 0-.043.949l2.63 3.79a.481.476-62.55 0 0 .87-.28v-2.44a1.111 1.071 65.728 0 1 .25-.7l4.17-5.13a.697.69-50.621 0 1 .97-.1l16.7 13.59a1.409 1.369 10.474 0 1 .44.62l.66 1.91a.526.526 56.534 0 0 .89.182q.423-.472 1.913-2.295t1.868-2.332a.526.526 21.981 0 0-.355-.836l-2.004-.266a1.409 1.369 68.041 0 1-.695-.308l-16.643-13.66a.697.69-50.864 0 1-.095-.97l4.197-5.108a1.111 1.071 12.787 0 1 .636-.384l2.391-.486a.481.476-38.935 0 0 .102-.909l-4.238-1.822a.785.783-58.992 0 0-.922.23q-3.36 4.158-6.823 8.396M370.59 114.96l5.5-5.51a.413.412-56.679 0 0-.14-.68l-.88-.34a2.416 2.414.816 0 1-1.43-1.47c-3.44-10.04-16.92-14.76-24.88-6.7-9.14 9.25-4.95 20.91 5.6 26.59a1.78 1.775 41.526 0 0 1.85-.11l2.83-1.96a.435.431-56.129 0 0-.15-.78c-5.37-1.11-10.37-5.67-10.77-11.02-.84-11.27 14.23-17.57 20.6-7.26q2.58 4.18 1.48 9.03a.232.23-16.469 0 0 .39.21M45.753 231.372l.56 6.402a.432.432 72.867 0 0 .64.338q1.766-.972 4.525-.038c8.746 2.972 14.535-5.528 15.111-13.351.595-8.072-2.836-16.657-12.055-16.212q-6.093.29-8.442 5.319c-5.096 10.887 9.054 19.324 15.65 9.763a.413.412 65.29 0 1 .75.278q-.217 1.978-.782 4.197c-2.163 8.594-9.736 8.188-15.538 3.093a.254.253 18.226 0 0-.419.211M397.81 215.74l-.55-6.41a.433.433 72.965 0 0-.64-.34q-1.77.97-4.53.03c-8.75-2.99-14.56 5.51-15.15 13.34-.61 8.08 2.81 16.68 12.04 16.25q6.1-.28 8.46-5.31c5.12-10.89-9.03-19.36-15.65-9.8a.413.412 65.388 0 1-.75-.28q.22-1.98.79-4.2c2.18-8.6 9.76-8.18 15.56-3.07a.254.253 18.324 0 0 .42-.21m12.98 18c4.81-4.8 11.02-13.15 7.43-20.2-2.68-5.24-9.11-6.04-14.13-4.16a1.855 1.845 85.447 0 0-1.17 1.38l-.67 3.51a.43.427 75.142 0 0 .7.41q2.43-2.11 4.13-2.35 5.47-.76 7.21 3.24c3.24 7.44-7.71 17.62-12.09 22.22a.274.273 21.521 0 0 .2.46h17.23a.561.56 5.641 0 0 .55-.45l.99-5.16a.421.421 73.147 0 0-.71-.38l-1.59 1.6a1.98 1.98-67.491 0 1-1.4.58h-6.39a.41.41 22.499 0 1-.29-.7M32.46 214.02q1.77 0 1.87.93v.15l.01 20.32a.92.874-26.823 0 1-.2.56l-1.45 1.78a.3.299-70.293 0 0 .23.49h6.94a.302.298-17.338 0 0 .25-.47l-.97-1.4a2.509 2.471 28.105 0 1-.44-1.41v-25.79a.364.364-17.209 0 0-.57-.3l-5.98 4.15a.544.543-62.417 0 0 .31.99m257.719 147.329-3.799 1.403a1.086 1.074-11.22 0 0-.702 1.036l.219 6.599a.327.327 56.865 0 0 .622.131l4.137-8.652a.381.379 2.412 0 0-.477-.517m-146.598 20.807q-.224.557-.24.962a.78.769 6.975 0 0 .629.792q.8.16 1.37.54a.768.752-63.29 0 1 .29.91l-3.2 8.42a1.735 1.723-7.23 0 1-.64.82l-1.74 1.21a.411.408-51.525 0 0 .08.72q11.85 4.83 13.381 5.224c7.929 2.068 14.285-1.293 17.25-8.659s.709-14.192-6.441-18.194q-1.378-.777-13.27-5.503a.411.408-84.626 0 0-.556.464l.416 2.078a1.735 1.723 51.079 0 1-.106 1.035l-3.525 8.289a.768.752-72.861 0 1-.84.455q-.674-.12-1.362-.559a.78.769 36.874 0 0-1.002.135q-.269.303-.494.861m153.347 9.937q4.71-2.045 4.795-2.076a1.087 1.079 53.851 0 1 1.045.167q1.997 1.548 3.426 3.589c.334.479.084 1.49.047 2.02a.614.612 78.32 0 0 .895.591l5.664-3.01a.209.205 42.138 0 0-.023-.374l-1.853-.761a2.612 2.526 78.194 0 1-.812-.551q-8.266-8.447-17.295-17.634-.938-.955-.436-2.721a.388.387-4.34 0 0-.537-.46q-1.644.778-3.451 1.563t-3.498 1.454a.388.387-42.598 0 0-.03.706q1.632.839 1.69 2.177.547 12.87 1.074 24.676a2.612 2.526 54.869 0 1-.152.969l-.709 1.874a.209.205-89.075 0 0 .258.272l6.066-2.083a.614.612 54.743 0 0 .18-1.057c-.413-.335-1.322-.843-1.444-1.414q-.516-2.438-.283-4.953a1.087 1.079 79.212 0 1 .592-.878q.08-.04 4.791-2.086M186.97 379.12a.169.168-74.175 0 0 .16.29l4.99-1.72a2.604 2.599-34.334 0 1 2.56.48l3.78 3.24a.323.319 5.465 0 0 .49-.4l-3.91-6.77a1.286 1.282 54.861 0 0-1.94-.34zm81.29 17.02-6.95 1.19a.349.346-37.474 0 0-.09.66c2.81 1.26 3.23 5.99 3.19 8.39a.917.911 80.875 0 1-.61.85q-11.4 4.14-16.16-5.03c-2.92-5.62-.68-12.57 5.11-15.25q6.59-3.05 12.64 2.16a.285.285 12.762 0 0 .46-.29l-1.98-7.41a.573.567 57.231 0 0-.99-.22l-.45.56a1.811 1.782 23.452 0 1-1.66.64c-7.61-1.12-15.06 2.11-17.96 9.44-4.2 10.61 4.75 21.76 15.94 20.47q5.01-.58 9.74-3.11a1.49 1.475 71.27 0 0 .76-1.56l-1.4-8.21a2.045 1.953 51.811 0 1 .1-1.04l.68-1.78a.342.341-83.912 0 0-.37-.46m-63.35 1.11a15.21 15.21 0 0 0-15.21-15.21 15.21 15.21 0 0 0-15.21 15.21 15.21 15.21 0 0 0 15.21 15.21 15.21 15.21 0 0 0 15.21-15.21m12.196 17.185-.996-1.222a1.976 1.965-64.779 0 1-.438-1.23l-.057-20.063a.356.356 25.499 0 1 .632-.223q6.47 8.044 18.25 22.374.649.799.896.873a.423.417 8.353 0 0 .546-.4l-.069-26.116a1.309 1.306-19.55 0 1 .482-1.009l1.105-.9a.398.397 25.416 0 0-.251-.705l-6.737.02a.388.388-39.04 0 0-.238.694q1.037.827 1.469 1.677a2.07 2.035-58.636 0 1 .221.946l.039 14.333a.383.38 25.413 0 1-.68.239l-14.064-17.272a1.581 1.562-19.435 0 0-1.228-.577l-5.676.015a.426.425 66.09 0 0-.286.741q1.292 1.156 1.531 2.233a1.041.888-55.247 0 1 .026.261l.099 23.306a1.139 1.125 70.539 0 1-.425.903l-1.307 1.062a.387.384 25.193 0 0 .248.682l6.621-.017a.384.378 70.15 0 0 .287-.625"></path><path fill="#fcfcfc" fill-rule="evenodd" d="M199.398 46.667q3.612-.494 7.143-1.066a.451.446-8.665 0 0 .373-.502l-1.148-8.315a2.013 2.003-66.536 0 0-.324-.829q-.497-.727-1.488-1.503a.399.398 59.938 0 1 .187-.709l6.98-.965a.348.347 19.132 0 1 .29.596c-1.041.97-1.52 2.065-1.193 3.827q.094.528 2.855 20.713c.226 1.724.671 2.283 2.051 3.394a.344.338-29.489 0 1-.172.6l-6.874.953a.364.364-78.216 0 1-.358-.55l1.033-1.731a1.315 1.254 57.97 0 0 .173-.843l-1.36-9.798a.638.637-6.711 0 0-.702-.554q-3.445.378-6.975.861-3.531.484-6.95 1.046a.638.637-8.886 0 0-.528.722l1.324 9.803a1.315 1.254-73.566 0 0 .393.765l1.462 1.391a.364.364 62.62 0 1-.198.625l-6.877.931a.344.338 13.893 0 1-.327-.532c1.031-1.441 1.309-2.099 1.063-3.821q-2.768-20.183-2.819-20.718c-.158-1.784-.914-2.71-2.178-3.365a.348.347-34.728 0 1 .119-.652l6.982-.947a.399.398-75.535 0 1 .372.632q-.746 1.015-1.029 1.848a2.013 2.003 50.94 0 0-.09.886l1.13 8.317a.451.446-6.931 0 0 .494.384q3.554-.399 7.166-.894M244.115 46.279q3.616.421 7.172.746a.45.446 5.762 0 0 .487-.393l.958-8.326a2.01 2-52.109 0 0-.108-.883q-.299-.826-1.064-1.824a.398.397 74.366 0 1 .357-.638l6.99.803a.348.347 33.56 0 1 .132.648c-1.248.679-1.984 1.619-2.105 3.404q-.041.535-2.392 20.741c-.211 1.724.08 2.375 1.138 3.793a.344.338-15.061 0 1-.316.538l-6.884-.789a.364.363-63.789 0 1-.21-.621l1.431-1.417a1.313 1.252 72.398 0 0 .377-.772l1.122-9.814a.637.636 7.717 0 0-.542-.71q-3.424-.492-6.959-.903t-6.981-.717a.637.636 5.542 0 0-.69.567l-1.159 9.809a1.313 1.252-59.139 0 0 .19.838l1.067 1.708a.364.363 77.048 0 1-.346.555l-6.882-.81a.344.338 28.32 0 1-.184-.597c1.355-1.137 1.787-1.703 1.978-3.429q2.345-20.208 2.428-20.738c.292-1.765-.209-2.848-1.268-3.796a.348.347-20.301 0 1 .277-.601l6.988.822a.398.397-61.107 0 1 .202.704q-.974.795-1.455 1.531a2.01 2 65.368 0 0-.307.834l-.977 8.324a.45.446 7.497 0 0 .383.494q3.536.499 7.152.919M291.11 35.94l-8.51 3.68a.316.316-82.079 0 1-.37-.49l4.03-4.95a1.05 1.038 29.836 0 1 1.17-.31l3.66 1.39a.369.367 43.467 0 1 .02.68M164.62 73.28l-6.31 2.18a.39.387 6.283 0 1-.46-.57l.9-1.44a1.149 1.135 51.629 0 0 .11-1l-7.71-22.2a1.05.895-74.157 0 0-.11-.24q-.58-.95-2.19-1.63a.429.429 47.18 0 1 .03-.8l5.41-1.87a1.595 1.575-38.345 0 1 1.36.15l19.06 11.88a.386.384 6.503 0 0 .57-.45l-4.72-13.66a2.087 2.052-77.546 0 0-.52-.83q-.69-.67-1.95-1.12a.391.391 56.611 0 1 0-.74l6.42-2.22a.401.4 6.506 0 1 .47.59l-.76 1.22a1.32 1.316-38.46 0 0-.13 1.12l8.6 24.89a.426.42-10.557 0 1-.39.56q-.26.01-1.14-.54-15.92-9.82-24.72-15.38a.359.358 6.589 0 0-.53.42l6.61 19.12a1.993 1.981-83.689 0 0 .82 1.03l1.35.84a.387.381 51.24 0 1-.07.69M291.27 62.677a13.6 13.6 0 0 1-17.543 7.884l-2.337-.888a13.6 13.6 0 0 1-7.884-17.543l.944-2.487a13.6 13.6 0 0 1 17.543-7.884l2.337.888a13.6 13.6 0 0 1 7.884 17.543zm-10.037-17.455a11.44 10.61-72.8 0 0-13.518 7.791 11.44 10.61-72.8 0 0 6.752 14.065 11.44 10.61-72.8 0 0 13.519-7.791 11.44 10.61-72.8 0 0-6.753-14.065"></path><path fill="#373e48" fill-rule="evenodd" d="M281.233 45.222a11.44 10.61-72.8 0 1 6.753 14.065 11.44 10.61-72.8 0 1-13.519 7.791 11.44 10.61-72.8 0 1-6.752-14.065 11.44 10.61-72.8 0 1 13.518-7.791"></path><path fill="#fcfcfc" fill-rule="evenodd" d="M313.18 55.446q1.738.936 3.369 1.747a.388.388 47.419 0 1-.029.707q-1.7.7-1.87 2.03-1.63 12.8-3.15 24.54a2.616 2.53-50.047 0 0 .07.98l.55 1.93a.21.205-86.103 0 1-.28.25l-5.88-2.59a.615.613-49.921 0 1-.09-1.07c.44-.3 1.39-.73 1.56-1.29q.72-2.39.7-4.92a1.088 1.081-74.39 0 0-.517-.926q-.077-.047-4.606-2.485-4.53-2.438-4.612-2.476a1.088 1.081-49.029 0 0-1.058.078q-2.122 1.377-3.721 3.294c-.373.45-.209 1.48-.217 2.013a.615.613-73.498 0 1-.943.514l-5.4-3.481a.21.205-37.316 0 1 .054-.372l1.914-.604a2.616 2.53-73.372 0 0 .857-.481q8.962-7.735 18.748-16.145 1.016-.874.664-2.679a.388.388 9.161 0 1 .574-.414q1.576.915 3.313 1.85m-12.133 13.042a.46.46 38.674 0 0 .089.75l7.031 3.754a.46.46 33.628 0 0 .673-.343l1.576-11.413a.46.46-39.498 0 0-.762-.406zM139.86 76.656q-4.462 2.567-4.538 2.617a1.089 1.082 72.762 0 0-.491.941q.052 2.532.84 4.903c.186.555 1.149.958 1.598 1.246a.616.613 48.293 0 1-.06 1.073l-5.809 2.758a.21.205 84.476 0 1-.288-.242l.496-1.946a2.619 2.532 48.42 0 0 .042-.983q-1.854-11.702-3.849-24.462-.208-1.326-1.929-1.978a.389.388-49.047 0 1-.049-.707q1.609-.858 3.321-1.843t3.262-1.945a.389.388-10.789 0 1 .586.398q-.301 1.815.741 2.661 10.03 8.136 19.216 15.62a2.619 2.532 71.744 0 0 .871.457l1.932.55a.21.205 35.689 0 1 .065.37l-5.304 3.636a.616.613 71.871 0 1-.958-.487c-.023-.533.112-1.568-.275-2.008q-1.653-1.872-3.816-3.189a1.089 1.082 47.402 0 0-1.061-.049q-.081.041-4.543 2.609m-5.977-1.446a.41.41 74.369 0 0 .609.287l6.996-4.038a.41.41 19.032 0 0 .055-.672l-8.888-7.317a.41.41 28.858 0 0-.665.384z"></path><path fill="#373e48" fill-rule="evenodd" d="m301.047 68.488 8.607-7.658a.46.46 6.364 0 1 .762.406l-1.576 11.413a.46.46 54.969 0 1-.673.343l-7.031-3.754a.46.46 65.517 0 1-.089-.75M133.883 75.21l-1.893-11.356a.41.41 51.741 0 1 .665-.384l8.888 7.317a.41.41 26.268 0 1-.055.672l-6.996 4.038a.41.41-73.753 0 1-.609-.287"></path><path fill="#fcfcfc" fill-rule="evenodd" d="M110.404 90.336q-2.698 2.3-5.259 4.606a.634.633-41.535 0 0-.055.888l6.37 7.5a1.308 1.247 73.784 0 0 .74.43l1.97.38a.363.362 29.97 0 1 .17.63l-5.26 4.47a.342.336-18.757 0 1-.56-.27c.09-1.76-.03-2.46-1.16-3.77Q94.21 89.78 93.88 89.36c-1.09-1.41-2.22-1.78-3.63-1.65a.347.345-67.378 0 1-.25-.61l5.34-4.54a.397.395 71.816 0 1 .65.33q-.08 1.25.13 2.1a2.003 1.993 18.29 0 0 .4.79l5.41 6.36a.448.444-39.581 0 0 .62.056q2.763-2.242 5.523-4.594t5.41-4.726a.448.444-41.315 0 0 .043-.622l-5.424-6.348a2.003 1.993 80.814 0 0-.717-.52q-.806-.342-2.053-.46a.397.395 27.288 0 1-.223-.694l5.328-4.555a.347.345-13.518 0 1 .563.343c-.352 1.372-.165 2.546 1.055 3.846q.362.392 13.507 15.816c1.115 1.323 1.787 1.553 3.539 1.742a.342.336-62.139 0 1 .178.596l-5.246 4.486a.363.362 69.134 0 1-.595-.267l-.063-2.005a1.308 1.247 25.32 0 0-.308-.799l-6.398-7.477a.634.633-39.361 0 0-.885-.086q-2.682 2.164-5.38 4.464M326.65 99.6l-5.6-4.8a.234.231-32.639 0 1 .09-.4l2.35-.62a1.593 1.575 12.209 0 0 .77-.49l14.89-17.38a2.213 2.19-24.971 0 0 .53-1.43v-1.79a.195.193-69.688 0 1 .32-.15l13.95 11.95a.869.862-59.817 0 1 .25.96l-1.77 4.65a.511.51 47.902 0 1-.97-.05l-.92-3.44a1.003.943-78.772 0 0-.3-.48l-7.27-6.23a1.2 1.2-83.215 0 0-1.69.13l-4.42 5.16a1.297 1.291-49.518 0 0 .14 1.83l3.11 2.67a2.129 2.087-24.152 0 0 1.38.51h2.24a.424.423-69.647 0 1 .32.7l-4.38 5.12a.329.327 60.528 0 1-.57-.16q-.1-.59-.19-1.58c-.15-1.87-3.05-4.01-4.63-5.11a.678.671-52.274 0 0-.9.12l-5.99 6.99a1.151 1.115-25.634 0 0-.27.73v2.37a.287.285-69.912 0 1-.47.22"></path><path fill="#fbaa23" fill-rule="evenodd" d="M364.05 223A140.55 140.55 0 0 1 223.5 363.55 140.55 140.55 0 0 1 82.95 223 140.55 140.55 0 0 1 223.5 82.45 140.55 140.55 0 0 1 364.05 223M226.24 111.92q-4.93.04-9.68 1.63a1.059 1.056 80.672 0 0-.73 1.02c.37 36.91.49 72.37-2.54 108.17q-2.36 27.85-10.23 53.68a.335.334 5.129 0 0 .36.43q20.09-2.54 40.13-.04a.345.34 85.471 0 0 .37-.44q-7.7-25.2-10.14-52.37c-3.21-35.89-3.2-70.44-2.91-109.3a.809.807 81.118 0 1 .56-.77q12.23-3.99 16.95-16.61a.885.884 15.828 0 0-.66-1.18q-24.17-4.62-48.75.04a.574.57-14.754 0 0-.44.75q3.67 10.61 13.39 15.58a1.323 1.301 46.544 0 0 1.13.04q6.32-2.79 13.25-1.17a.274.274-38.674 0 1-.06.54M117.53 296.89q8 11.36 18.11 20.62a1.82 1.82 51.104 0 0 2.15.23q14.15-8.29 23.83-19.61c18-21.05 27.77-49.55 33.43-77.29q4.88-23.86 7.53-49.66 1.01-9.83 2.82-34.17a.734.734-15.138 0 0-1.15-.66l-4.47 3.1a2.935 2.916-15.476 0 0-1.25 2.19q-1.81 24.76-3.26 35.12-1.78 12.64-4.37 21.92-11.36 40.74-44.68 66.46a.65.646-53.33 0 0 .16 1.12l10.97 4.16a.556.555-57.574 0 1 .2.9q-12.32 13.05-28.6 20.39-2.04.92-11.2 4.43a.497.493 61.578 0 0-.22.75m211.935-.009a.497.493-61.596 0 0-.22-.75q-9.158-3.506-11.197-4.425-16.276-7.332-28.596-20.373a.555.555 57.556 0 1 .2-.9l10.965-4.162a.65.646 53.312 0 0 .159-1.119q-33.315-25.7-44.684-66.421-2.591-9.275-4.375-21.91-1.452-10.355-3.269-35.105a2.934 2.914 15.458 0 0-1.251-2.189l-4.469-3.098a.734.734 15.12 0 0-1.149.661q1.817 24.33 2.829 34.156 2.657 25.789 7.543 49.638c5.667 27.728 15.442 56.214 33.441 77.25q9.68 11.313 23.827 19.595a1.82 1.82-51.122 0 0 2.149-.231q10.104-9.259 18.097-20.617M263.33 150.52q4.06 34 15.66 64.52c11.06 29.1 30.26 54.08 58.01 68.88a.58.58-64.26 0 0 .8-.28l8.09-18.36a.773.772-68.695 0 0-.46-1.05q-11.35-3.82-21.15-9.68a.512.509 43.152 0 1-.03-.86l7.78-5.4a.327.326 42.96 0 0-.02-.55q-44.54-26.2-58.99-75.15-.97-3.26-2.01-9-1.24-6.81-1.77-9.26a.593.548 11.749 0 0-.25-.35l-5.61-3.49a.034.03-72.704 0 0-.05.03m-79.667.008a.034.03 72.702 0 0-.05-.03l-5.609 3.49a.593.548-11.751 0 0-.25.35q-.53 2.45-1.769 9.259-1.04 5.74-2.01 8.999-14.447 48.946-58.981 75.145a.327.326-42.962 0 0-.02.55l7.779 5.399a.511.509-43.155 0 1-.029.86q-9.799 5.86-21.148 9.68a.773.772 68.693 0 0-.46 1.049l8.09 18.358a.58.58 64.258 0 0 .8.28c27.746-14.799 46.944-39.777 58.001-68.875q11.598-30.517 15.656-64.514M270.56 320.59q-1.26-1.2-2.82-2.6c-7.53-6.73-13.45-15.27-17.64-24.6a.945.933-35.027 0 1 .19-1.04l8.14-8.13a.458.454 27.253 0 0-.25-.77q-34.79-5.86-69.45.02a.401.398 62.344 0 0-.21.68l8.47 8.47a.624.617 65.116 0 0 .51.19q20.02-2.05 40.84.17a.232.231 2.732 0 1 .21.23v.05a.3.29-1.023 0 1-.29.29c-13.22.64-26.46 1.69-38.92 4.66-1.48.35-5.81 1.84-6.66 3.28q-6.49 10.97-16.11 18.8a.349.348 25.529 0 0 .22.62h93.64a.187.185-23.167 0 0 .13-.32m-47.141 10.954q7.817 0 69.865-.034a.194.192 56.871 0 0 .076-.37l-14.72-6.66a.981.894 54.07 0 0-.348-.072q-46.528-.029-54.873-.029-8.346 0-54.874.03a.981.894-54.071 0 0-.348.072l-14.72 6.66a.194.192-56.872 0 0 .076.371q62.048.032 69.866.032m.031 20.734q4.714.002 13.049-.816 26.691-2.622 50.021-15.822a.337.335-59.79 0 0-.163-.63q-5.599.035-62.901.015-57.301-.02-62.9-.059a.337.335 59.83 0 0-.164.63q23.321 13.216 50.011 15.857 8.333.823 13.047.825"></path><path fill="#373e48" fill-rule="evenodd" d="M226.24 111.92a.274.274-38.674 0 0 .06-.54q-6.93-1.62-13.25 1.17a1.323 1.301 46.544 0 1-1.13-.04q-9.72-4.97-13.39-15.58a.574.57-14.754 0 1 .44-.75q24.58-4.66 48.75-.04a.885.884 15.828 0 1 .66 1.18q-4.72 12.62-16.95 16.61a.809.807 81.118 0 0-.56.77c-.29 38.86-.3 73.41 2.91 109.3q2.44 27.17 10.14 52.37a.345.34 85.471 0 1-.37.44q-20.04-2.5-40.13.04a.335.334 5.129 0 1-.36-.43q7.87-25.83 10.23-53.68c3.03-35.8 2.91-71.26 2.54-108.17a1.059 1.056 80.672 0 1 .73-1.02q4.75-1.59 9.68-1.63"></path><path fill="#fcfcfc" fill-rule="evenodd" d="M98.783 121.357q-1.49 1.823-1.913 2.295a.526.526 56.534 0 1-.89-.182l-.66-1.91a1.409 1.369 10.474 0 0-.44-.62l-16.7-13.59a.697.69-50.621 0 0-.97.1l-4.17 5.13a1.111 1.071 65.728 0 0-.25.7v2.44a.481.476-62.55 0 1-.87.28l-2.63-3.79a.785.783-42.494 0 1 .043-.949q3.405-4.121 6.869-8.359t6.823-8.396a.785.783-58.992 0 1 .922-.23l4.238 1.822a.481.476-38.935 0 1-.102.909l-2.391.486a1.111 1.071 12.787 0 0-.636.384l-4.197 5.108a.697.69-50.864 0 0 .095.97l16.643 13.66a1.409 1.369 68.041 0 0 .695.308l2.004.266a.526.526 21.981 0 1 .355.836q-.378.509-1.868 2.332M370.59 114.96a.232.23-16.469 0 1-.39-.21q1.1-4.85-1.48-9.03c-6.37-10.31-21.44-4.01-20.6 7.26.4 5.35 5.4 9.91 10.77 11.02a.435.431-56.129 0 1 .15.78l-2.83 1.96a1.78 1.775 41.526 0 1-1.85.11c-10.55-5.68-14.74-17.34-5.6-26.59 7.96-8.06 21.44-3.34 24.88 6.7a2.416 2.414.816 0 0 1.43 1.47l.88.34a.413.412-56.679 0 1 .14.68z" data-source="https://football-logos.cc"></path><path fill="#373e48" fill-rule="evenodd" d="M117.75 296.14q9.16-3.51 11.2-4.43 16.28-7.34 28.6-20.39a.556.555-57.574 0 0-.2-.9l-10.97-4.16a.65.646-53.33 0 1-.16-1.12q33.32-25.72 44.68-66.46 2.59-9.28 4.37-21.92 1.45-10.36 3.26-35.12a2.935 2.916-15.476 0 1 1.25-2.19l4.47-3.1a.734.734-15.138 0 1 1.15.66q-1.81 24.34-2.82 34.17-2.65 25.8-7.53 49.66c-5.66 27.74-15.43 56.24-33.43 77.29q-9.68 11.32-23.83 19.61a1.82 1.82 51.104 0 1-2.15-.23q-10.11-9.26-18.11-20.62a.497.493 61.578 0 1 .22-.75M329.465 296.881q-7.993 11.358-18.097 20.617a1.82 1.82-51.122 0 1-2.149.231q-14.147-8.282-23.827-19.595c-17.999-21.036-27.774-49.522-33.441-77.25q-4.886-23.849-7.543-49.638-1.012-9.826-2.829-34.156a.734.734 15.12 0 1 1.149-.661l4.469 3.098a2.934 2.914 15.458 0 1 1.251 2.189q1.817 24.75 3.269 35.105 1.784 12.635 4.375 21.91 11.369 40.721 44.684 66.421a.65.646 53.312 0 1-.159 1.119l-10.965 4.162a.555.555 57.556 0 0-.2.9q12.32 13.041 28.596 20.373 2.039.919 11.197 4.425a.497.493-61.596 0 1 .22.75"></path><path fill="#373e48" fill-rule="evenodd" d="M263.33 150.52a.034.03-72.704 0 1 .05-.03l5.61 3.49a.593.548 11.749 0 1 .25.35q.53 2.45 1.77 9.26 1.04 5.74 2.01 9 14.45 48.95 58.99 75.15a.327.326 42.96 0 1 .02.55l-7.78 5.4a.512.509 43.152 0 0 .03.86q9.8 5.86 21.15 9.68a.773.772-68.695 0 1 .46 1.05l-8.09 18.36a.58.58-64.26 0 1-.8.28c-27.75-14.8-46.95-39.78-58.01-68.88q-11.6-30.52-15.66-64.52M183.663 150.528q-4.058 33.997-15.656 64.514c-11.057 29.098-30.255 54.076-58.001 68.875a.58.58 64.258 0 1-.8-.28l-8.09-18.358a.773.772 68.693 0 1 .46-1.049q11.349-3.82 21.148-9.68a.511.509-43.155 0 0 .029-.86l-7.779-5.399a.327.326-42.962 0 1 .02-.55q44.534-26.199 58.981-75.145.97-3.259 2.01-8.999 1.239-6.809 1.769-9.259a.593.548-11.751 0 1 .25-.35l5.609-3.49a.034.03 72.702 0 1 .05.03"></path><path fill="#fcfcfc" fill-rule="evenodd" d="M45.753 231.372a.254.253 18.226 0 1 .419-.211c5.802 5.095 13.375 5.501 15.538-3.093q.565-2.219.782-4.197a.413.412 65.29 0 0-.75-.278c-6.596 9.561-20.746 1.124-15.65-9.763q2.349-5.029 8.442-5.319c9.219-.445 12.65 8.14 12.055 16.212-.576 7.823-6.365 16.323-15.111 13.351q-2.759-.934-4.525.038a.432.432 72.867 0 1-.64-.338zm8.934-19.354a6.03 5.78-94.4 0 0-5.3 6.455 6.03 5.78-94.4 0 0 6.226 5.569 6.03 5.78-94.4 0 0 5.3-6.455 6.03 5.78-94.4 0 0-6.226-5.569M397.81 215.74a.254.253 18.324 0 1-.42.21c-5.8-5.11-13.38-5.53-15.56 3.07q-.57 2.22-.79 4.2a.413.412 65.388 0 0 .75.28c6.62-9.56 20.77-1.09 15.65 9.8q-2.36 5.03-8.46 5.31c-9.23.43-12.65-8.17-12.04-16.25.59-7.83 6.4-16.33 15.15-13.34q2.76.94 4.53-.03a.433.433 72.965 0 1 .64.34zm-3.76 12.51a5.11 5.11 0 0 0-5.11-5.11h-1.04a5.11 5.11 0 0 0-5.11 5.11v1.46a5.11 5.11 0 0 0 5.11 5.11h1.04a5.11 5.11 0 0 0 5.11-5.11zM410.79 233.74a.41.41 22.499 0 0 .29.7h6.39a1.98 1.98-67.491 0 0 1.4-.58l1.59-1.6a.421.421 73.147 0 1 .71.38l-.99 5.16a.561.56 5.641 0 1-.55.45H402.4a.274.273 21.521 0 1-.2-.46c4.38-4.6 15.33-14.78 12.09-22.22q-1.74-4-7.21-3.24-1.7.24-4.13 2.35a.43.427 75.142 0 1-.7-.41l.67-3.51a1.855 1.845 85.447 0 1 1.17-1.38c5.02-1.88 11.45-1.08 14.13 4.16 3.59 7.05-2.62 15.4-7.43 20.2M32.46 214.02a.544.543-62.417 0 1-.31-.99l5.98-4.15a.364.364-17.209 0 1 .57.3v25.79a2.509 2.471 28.105 0 0 .44 1.41l.97 1.4a.302.298-17.338 0 1-.25.47h-6.94a.3.299-70.293 0 1-.23-.49l1.45-1.78a.92.874-26.823 0 0 .2-.56l-.01-20.32v-.15q-.1-.93-1.87-.93"></path><path fill="#373e48" fill-rule="evenodd" d="M54.687 212.018a6.03 5.78-94.4 0 1 6.226 5.569 6.03 5.78-94.4 0 1-5.3 6.455 6.03 5.78-94.4 0 1-6.226-5.569 6.03 5.78-94.4 0 1 5.3-6.455M394.05 229.71a5.11 5.11 0 0 1-5.11 5.11h-1.04a5.11 5.11 0 0 1-5.11-5.11v-1.46a5.11 5.11 0 0 1 5.11-5.11h1.04a5.11 5.11 0 0 1 5.11 5.11zM270.56 320.59a.187.185-23.167 0 1-.13.32h-93.64a.349.348 25.529 0 1-.22-.62q9.62-7.83 16.11-18.8c.85-1.44 5.18-2.93 6.66-3.28 12.46-2.97 25.7-4.02 38.92-4.66a.3.29-1.023 0 0 .29-.29v-.05a.232.231 2.732 0 0-.21-.23q-20.82-2.22-40.84-.17a.624.617 65.116 0 1-.51-.19l-8.47-8.47a.401.398 62.344 0 1 .21-.68q34.66-5.88 69.45-.02a.458.454 27.253 0 1 .25.77l-8.14 8.13a.945.933-35.027 0 0-.19 1.04c4.19 9.33 10.11 17.87 17.64 24.6q1.56 1.4 2.82 2.6M223.419 324.379q8.345 0 54.873.029a.981.894 54.07 0 1 .348.072l14.72 6.66a.194.192 56.871 0 1-.076.37q-62.048.034-69.865.034-7.818 0-69.866-.032a.194.192-56.872 0 1-.076-.371l14.72-6.66a.981.894-54.071 0 1 .348-.072q46.528-.03 54.874-.03M223.456 335.025q57.302.02 62.901-.015a.337.335-59.79 0 1 .163.63q-23.33 13.2-50.021 15.822-8.335.818-13.049.816t-13.047-.825q-26.69-2.641-50.011-15.857a.337.335 59.83 0 1 .164-.63q5.599.039 62.9.059"></path><path fill="#fcfcfc" fill-rule="evenodd" d="M290.179 361.349a.381.379 2.412 0 1 .477.517l-4.137 8.652a.327.327 56.865 0 1-.622-.131l-.219-6.599a1.086 1.074-11.22 0 1 .702-1.036zM170.761 393.095c-2.965 7.366-9.321 10.727-17.25 8.659q-1.531-.394-13.381-5.224a.411.408-51.525 0 1-.08-.72l1.74-1.21a1.735 1.723-7.23 0 0 .64-.82l3.2-8.42a.768.752-63.29 0 0-.29-.91q-.57-.38-1.37-.54a.78.769 6.975 0 1-.629-.792q.016-.405.24-.962.225-.558.494-.861a.78.769 36.874 0 1 1.002-.135q.688.439 1.362.559a.768.752-72.861 0 0 .84-.455l3.525-8.289a1.735 1.723 51.079 0 0 .106-1.035l-.416-2.078a.411.408-84.626 0 1 .556-.464q11.892 4.726 13.27 5.503c7.15 4.002 9.406 10.828 6.441 18.194m-13.417-5.364q-.531 1.308-1.478.951a.042.012-9.31 0 0-.016-.002l-4.74-1.91a1.274 1.273 21.353 0 0-1.67.73l-2.35 6.18a1.728 1.722 20.729 0 0 1.01 2.23l5.807 2.151c5.729 2.124 10.521-1.27 12.675-6.582s1.082-11.086-4.507-13.553l-5.665-2.502a1.728 1.722 23.431 0 0-2.278.896l-2.619 6.071a1.274 1.273 22.807 0 0 .689 1.687l4.731 1.932a.042.012 53.471 0 0 .013.009q.928.404.398 1.712M296.928 392.093q-4.711 2.046-4.791 2.086a1.087 1.079 79.212 0 0-.592.878q-.233 2.515.283 4.953c.122.571 1.031 1.079 1.444 1.414a.614.612 54.743 0 1-.18 1.057l-6.066 2.083a.209.205-89.075 0 1-.258-.272l.709-1.874a2.612 2.526 54.869 0 0 .152-.969q-.527-11.806-1.074-24.676-.058-1.338-1.69-2.177a.388.387-42.598 0 1 .03-.706q1.691-.67 3.498-1.454 1.807-.785 3.451-1.563a.388.387-4.34 0 1 .537.46q-.502 1.766.436 2.721 9.029 9.187 17.295 17.634a2.612 2.526 78.194 0 0 .812.551l1.853.761a.209.205 42.138 0 1 .023.374l-5.664 3.01a.614.612 78.32 0 1-.895-.591c.037-.53.287-1.541-.047-2.02q-1.429-2.041-3.426-3.589a1.087 1.079 53.851 0 0-1.045-.167q-.085.031-4.795 2.076m-5.695-2.137a.46.46 74.838 0 0 .645.391l7.178-3.165a.46.46 85.99 0 0 .146-.74l-7.923-8.243a.46.46 17.571 0 0-.791.349zM186.97 379.12l6.13-5.22a1.286 1.282 54.861 0 1 1.94.34l3.91 6.77a.323.319 5.465 0 1-.49.4l-3.78-3.24a2.604 2.599-34.334 0 0-2.56-.48l-4.99 1.72a.169.168-74.175 0 1-.16-.29"></path><path fill="#373e48" fill-rule="evenodd" d="M166.582 391.479c-2.154 5.312-6.946 8.706-12.675 6.582l-5.807-2.151a1.728 1.722 20.729 0 1-1.01-2.23l2.35-6.18a1.274 1.273 21.353 0 1 1.67-.73l4.74 1.91a.042.012-9.31 0 1 .016.002q.947.357 1.478-.951.53-1.308-.398-1.712a.042.012 53.471 0 1-.013-.009l-4.731-1.932a1.274 1.273 22.807 0 1-.689-1.687l2.619-6.071a1.728 1.722 23.431 0 1 2.278-.896l5.665 2.502c5.589 2.467 6.662 8.241 4.507 13.553M291.233 389.956l-.745-11.408a.46.46 56.817 0 1 .791-.349l7.923 8.243a.46.46-86.19 0 1-.146.74l-7.178 3.165a.46.46-70.752 0 1-.645-.391"></path><path fill="#fcfcfc" fill-rule="evenodd" d="m268.63 396.6-.68 1.78a2.045 1.953 51.811 0 0-.1 1.04l1.4 8.21a1.49 1.475 71.27 0 1-.76 1.56q-4.73 2.53-9.74 3.11c-11.19 1.29-20.14-9.86-15.94-20.47 2.9-7.33 10.35-10.56 17.96-9.44a1.811 1.782 23.452 0 0 1.66-.64l.45-.56a.573.567 57.231 0 1 .99.22l1.98 7.41a.285.285 12.762 0 1-.46.29q-6.05-5.21-12.64-2.16c-5.79 2.68-8.03 9.63-5.11 15.25q4.76 9.17 16.16 5.03a.917.911 80.875 0 0 .61-.85c.04-2.4-.38-7.13-3.19-8.39a.349.346-37.474 0 1 .09-.66l6.95-1.19a.342.341-83.912 0 1 .37.46M204.91 397.25a15.21 15.21 0 0 1-15.21 15.21 15.21 15.21 0 0 1-15.21-15.21 15.21 15.21 0 0 1 15.21-15.21 15.21 15.21 0 0 1 15.21 15.21m-13.068-11.271a11.43 10.59-79.3 0 0-12.528 9.265 11.43 10.59-79.3 0 0 8.284 13.197 11.43 10.59-79.3 0 0 12.528-9.265 11.43 10.59-79.3 0 0-8.284-13.197"></path><path fill="#fcfcfc" fill-rule="evenodd" d="M217.106 414.435a.384.378 70.15 0 1-.287.625l-6.621.017a.387.384 25.193 0 1-.248-.682l1.307-1.062a1.139 1.125 70.539 0 0 .425-.903l-.099-23.306a1.041.888-55.247 0 0-.026-.261q-.239-1.077-1.531-2.233a.426.425 66.09 0 1 .286-.741l5.676-.015a1.581 1.562-19.435 0 1 1.228.577l14.064 17.272a.383.38 25.413 0 0 .68-.239l-.039-14.333a2.07 2.035-58.636 0 0-.221-.946q-.432-.85-1.469-1.677a.388.388 9.697 0 1 .238-.694l6.737-.02a.398.397 25.416 0 1 .251.705l-1.105.9a1.309 1.306-19.55 0 0-.482 1.009l.069 26.116a.423.417 8.353 0 1-.546.4q-.247-.074-.896-.873-11.78-14.33-18.25-22.374a.356.356 25.499 0 0-.632.223l.057 20.063a1.976 1.965-64.779 0 0 .438 1.23z"></path><path fill="#373e48" fill-rule="evenodd" d="M191.842 385.979a11.43 10.59-79.3 0 1 8.284 13.197 11.43 10.59-79.3 0 1-12.528 9.265 11.43 10.59-79.3 0 1-8.284-13.197 11.43 10.59-79.3 0 1 12.528-9.265" data-source="https://football-logos.cc"></path><!-- source: https://football-logos.cc --></svg>