<svg xmlns="http://www.w3.org/2000/svg" viewBox="10.82 61.05 773.4 990.48"><!-- Source: https://football-logos.cc --><defs data-source="https://football-logos.cc"><clipPath id="a" clipPathUnits="userSpaceOnUse"><path d="M-535.1 531.943H60.18v-841.89H-535.1Z"></path></clipPath><clipPath id="b" clipPathUnits="userSpaceOnUse"><path d="M-298.068 773.023h595.28v-841.89h-595.28Z"></path></clipPath><clipPath id="c" clipPathUnits="userSpaceOnUse"><path d="M-557.189 98.98h595.28v-841.89h-595.28Z"></path></clipPath><clipPath id="d" clipPathUnits="userSpaceOnUse"><path d="M-557.189 213.818h595.28v-841.89h-595.28Z"></path></clipPath><clipPath id="e" clipPathUnits="userSpaceOnUse"><path d="M-73.841 271.675h595.28v-841.89h-595.28Z"></path></clipPath><clipPath id="f" clipPathUnits="userSpaceOnUse"><path d="M-143.074 271.675h595.28v-841.89h-595.28Z"></path></clipPath><clipPath id="g" clipPathUnits="userSpaceOnUse"><path d="M-211.512 271.675h595.28v-841.89h-595.28Z"></path></clipPath><clipPath id="h" clipPathUnits="userSpaceOnUse"><path d="M-281.048 271.675h595.28v-841.89h-595.28Z"></path></clipPath><clipPath id="i" clipPathUnits="userSpaceOnUse"><path d="M-553.374 371.037h595.28v-841.89h-595.28Z"></path></clipPath><clipPath id="j" clipPathUnits="userSpaceOnUse"><path d="M-489.208 271.675h595.28v-841.89h-595.28Z"></path></clipPath><clipPath id="k" clipPathUnits="userSpaceOnUse"><path d="M-419.999 271.675h595.28v-841.89h-595.28Z"></path></clipPath><clipPath id="l" clipPathUnits="userSpaceOnUse"><path d="M-350.767 271.675h595.28v-841.89h-595.28Z"></path></clipPath><clipPath id="m" clipPathUnits="userSpaceOnUse"><path d="M-325.708 223.898h595.28v-841.89h-595.28Z"></path></clipPath><clipPath id="n" clipPathUnits="userSpaceOnUse"><path d="M-309.637 243.866h595.28v-841.89h-595.28Z"></path></clipPath><clipPath id="o" clipPathUnits="userSpaceOnUse"><path d="M-290.199 238.64h595.28v-841.89h-595.28Z"></path></clipPath><clipPath id="p" clipPathUnits="userSpaceOnUse"><path d="M-272.181 220.575h595.28v-841.89h-595.28Z"></path></clipPath><clipPath id="q" clipPathUnits="userSpaceOnUse"><path d="M-324.43 163.205h595.28v-841.89h-595.28Z"></path></clipPath><clipPath id="r" clipPathUnits="userSpaceOnUse"><path d="M-326.065 173.304h595.28v-841.89h-595.28Z"></path></clipPath><clipPath id="s" clipPathUnits="userSpaceOnUse"><path d="M0 841.89h595.28V0H0Z"></path></clipPath><clipPath id="t" clipPathUnits="userSpaceOnUse"><path d="M-295.03 189.419h595.28v-841.89h-595.28Z"></path></clipPath><clipPath id="u" clipPathUnits="userSpaceOnUse"><path d="M-236.479 173.038h595.28v-841.89h-595.28Z"></path></clipPath><clipPath id="v" clipPathUnits="userSpaceOnUse"><path d="M-250.092 179.822h595.28v-841.89h-595.28Z"></path></clipPath><clipPath id="w" clipPathUnits="userSpaceOnUse"><path d="M-364.864 180.224h595.28v-841.89h-595.28Z"></path></clipPath><clipPath id="x" clipPathUnits="userSpaceOnUse"><path d="M-274.798 180.705h595.28v-841.89h-595.28Z"></path></clipPath><clipPath id="y" clipPathUnits="userSpaceOnUse"><path d="M-348.754 193.927h595.28v-841.89h-595.28Z"></path></clipPath><clipPath id="z" clipPathUnits="userSpaceOnUse"><path d="M-379.606 122.686h595.28v-841.89h-595.28Z"></path></clipPath><clipPath id="A" clipPathUnits="userSpaceOnUse"><path d="M-422.7 124.454h595.28v-841.89H-422.7Z"></path></clipPath><clipPath id="B" clipPathUnits="userSpaceOnUse"><path d="M-354.292 124.454h595.28v-841.89h-595.28Z"></path></clipPath><clipPath id="C" clipPathUnits="userSpaceOnUse"><path d="M-328.987 151.95h595.28v-841.89h-595.28Z"></path></clipPath><clipPath id="D" clipPathUnits="userSpaceOnUse"><path d="M-292.36 142.095h595.28v-841.89h-595.28Z"></path></clipPath><clipPath id="E" clipPathUnits="userSpaceOnUse"><path d="M-267.089 151.92h595.28v-841.89h-595.28Z"></path></clipPath><clipPath id="F" clipPathUnits="userSpaceOnUse"><path d="M-216.446 151.95h595.28v-841.89h-595.28Z"></path></clipPath><clipPath id="G" clipPathUnits="userSpaceOnUse"><path d="M-170.632 102.01h595.28v-841.89h-595.28Z"></path></clipPath></defs><path d="M0 0c-61.324-141.863-237.031-256.705-237.031-256.705S-410.863-143.637-472.187-1.773c-59.899 138.574-54.682 220.08-54.682 220.08V469.8c149.412 13.745 289.838 16.354 289.838 16.354s140.425-2.609 289.838-16.354V218.307S59.899 138.575 0 0" clip-path="url(#a)" style="fill:#d2a665;fill-opacity:1;fill-rule:nonzero;stroke:none" transform="matrix(1.33333 0 0 -1.33333 713.466 709.258)"></path><path d="M0 0c-14.833 10.298-48.02 36.862-84.913 70.052-29.039 26.123-55.785 52.154-77.291 78.509-26.594 32.589-44.963 65.018-59.167 95.633-32.908 70.936-44.372 123.597-49.942 156.862-1.447 8.641-3.016 24.308-3.016 57.401 0 86.87-.491 234.847-.491 234.847C-135.893 705.49-6.903 711.096 0 711.234c6.89-.138 135.927-5.748 274.821-17.93V458.09l.058-.663c.012-.144 1.518-19.548-4.064-55.043-5.16-32.81-17.602-86.453-47.567-155.683-13.437-31.041-33.877-63.435-60.752-96.283-21.722-26.548-47.636-53.404-77.024-79.822C48.226 37.113 14.879 10.359 0 0" clip-path="url(#b)" style="fill:#fff;fill-opacity:1;fill-rule:nonzero;stroke:none" transform="matrix(1.33333 0 0 -1.33333 397.424 1030.698)"></path><path d="M0 0v-102.792h-518.265L-518.24 0c129.704 10.933 249.367 16.245 259.12 16.505C-249.377 16.245-129.681 10.933 0 0" clip-path="url(#c)" style="fill:#d12129;fill-opacity:1;fill-rule:nonzero;stroke:none" transform="matrix(1.33333 0 0 -1.33333 742.918 131.975)"></path><path d="M0 0v-46.269h-518.279l.01 46.269Z" clip-path="url(#d)" style="fill:#0e6cb0;fill-opacity:1;fill-rule:nonzero;stroke:none" transform="matrix(1.33333 0 0 -1.33333 742.918 285.09)"></path><path d="M0 0v-214.768c-19.144 48.023-27.491 86.359-31.329 112.015-3.949 26.374-3.66 54.139-3.617 55.136L-34.937 0Z" clip-path="url(#e)" style="fill:#d12129;fill-opacity:1;fill-rule:nonzero;stroke:none" transform="matrix(1.33333 0 0 -1.33333 98.455 362.233)"></path><path d="M0 0v-338.485a428 428 0 0 0-34.859 51.6V0Z" clip-path="url(#f)" style="fill:#d12129;fill-opacity:1;fill-rule:nonzero;stroke:none" transform="matrix(1.33333 0 0 -1.33333 190.765 362.233)"></path><path d="M0 0v-409.183c-11.93 10.793-23.204 21.284-33.761 31.86V0Z" clip-path="url(#g)" style="fill:#d12129;fill-opacity:1;fill-rule:nonzero;stroke:none" transform="matrix(1.33333 0 0 -1.33333 282.016 362.233)"></path><path d="M0 0v-468.7c-9.96 7.946-21.49 17.463-33.762 27.957V0Z" clip-path="url(#h)" style="fill:#d12129;fill-opacity:1;fill-rule:nonzero;stroke:none" transform="matrix(1.33333 0 0 -1.33333 374.73 362.233)"></path><path d="M0 0c-3.854-24.332-11.906-60.563-28.71-106.52V99.362H3.814V52.183l.111-1.209C3.997 49.823 5.032 31.772 0 0" clip-path="url(#i)" style="fill:#d12129;fill-opacity:1;fill-rule:nonzero;stroke:none" transform="matrix(1.33333 0 0 -1.33333 737.832 494.716)"></path><path d="M0 0v-285.017c-9.372-16.206-20.565-32.72-33.762-49.419V0Z" clip-path="url(#j)" style="fill:#d12129;fill-opacity:1;fill-rule:nonzero;stroke:none" transform="matrix(1.33333 0 0 -1.33333 652.277 362.233)"></path><path d="M0 0v-374.892c-10.388-10.801-21.466-21.561-33.463-32.581V0Z" clip-path="url(#k)" style="fill:#d12129;fill-opacity:1;fill-rule:nonzero;stroke:none" transform="matrix(1.33333 0 0 -1.33333 559.999 362.233)"></path><path d="M0 0v-439.053c-12.112-10.344-23.725-19.968-33.761-28.044V0Z" clip-path="url(#l)" style="fill:#d12129;fill-opacity:1;fill-rule:nonzero;stroke:none" transform="matrix(1.33333 0 0 -1.33333 467.689 362.233)"></path><path d="M0 0v-10.851h3.982a4.9 4.9 0 0 0 4.899-4.899v-10.705a4.9 4.9 0 0 0-4.899-4.899H.872a4.9 4.9 0 0 0-4.898 4.899v3.193H0v-2.732c0-1.109.898-2.007 2.008-2.007h.724c1.109 0 2.007.898 2.007 2.007v8.878a2.007 2.007 0 0 1-2.007 2.008h-6.758V3.323H8.881V0Z" clip-path="url(#m)" style="fill:#fefefe;fill-opacity:1;fill-rule:nonzero;stroke:none" transform="matrix(1.33333 0 0 -1.33333 434.277 298.53)"></path><path d="M0 0h-5.779L.17 14.893Zm3.54 0v23.291H0L-9.247.632v-3.565H0v-8.452h3.54v8.452h3.617V0Z" clip-path="url(#n)" style="fill:#fefefe;fill-opacity:1;fill-rule:nonzero;stroke:none" transform="matrix(1.33333 0 0 -1.33333 412.849 325.155)"></path><path d="M0 0c-2.692-.539-6.348-1.006-6.348 2.644v8.925c0 1.488 1.686 2.692 3.174 2.692.741 0 1.898-.299 2.384-.79.486-.487.79-1.156.79-1.902Zm-1.782 18.065h-2.572a5.38 5.38 0 0 1-5.384-5.384V2.114c0-1.203.259-2.407.833-3.467.679-1.252 1.887-2.538 4.002-2.654.106-.005-.27-.01-.159-.01C-1.431-4.017 0-1.584 0-1.584v-9.368a2.193 2.193 0 0 0-2.191-2.191h-1.484a2.19 2.19 0 0 0-2.191 2.191v2.283h-3.872v-2.057a5.884 5.884 0 0 1 5.885-5.885h1.57a5.885 5.885 0 0 1 5.886 5.885v23.407a5.38 5.38 0 0 1-5.385 5.384" clip-path="url(#o)" style="fill:#fefefe;fill-opacity:1;fill-rule:nonzero;stroke:none" transform="matrix(1.33333 0 0 -1.33333 386.932 318.187)"></path><path d="M0 0v-34.676h-3.607v27.895l-3.858-.515v3.01l.451.158C-5.262-3.512-3.607-1.857-3.607 0z" clip-path="url(#p)" style="fill:#fefefe;fill-opacity:1;fill-rule:nonzero;stroke:none" transform="matrix(1.33333 0 0 -1.33333 362.908 294.1)"></path><path d="M0 0h-2.154l-2.358 3.534h2.378l.693-1.222h.958L.604 3.534h2.621z" clip-path="url(#q)" style="fill:#fefefe;fill-opacity:1;fill-rule:nonzero;stroke:none" transform="matrix(1.33333 0 0 -1.33333 432.573 217.606)" data-source="https://football-logos.cc"></path><path d="m0 0-.04 3.454a1.097 1.097 0 0 1-1.092 1.078H-4.04c-.611 0-1.106-.5-1.102-1.111l.041-4.878c0-.975.986-2.014 1.813-2.53l5.036-3.139c1.138-.63 1.363-1.346 1.363-2.646v-7.425a4.12 4.12 0 0 0-4.116-4.119l-3.181-.002a3.637 3.637 0 0 0-3.638 3.637v3.542l3.206.028v-3.162c0-.934.764-1.698 1.697-1.698h1.223c.934 0 1.698.764 1.698 1.698v6.101c0 1.013-1.059 1.982-1.943 2.473L-6.322-5.78c-1.702.944-1.984 2.548-1.984 4.494v5.637a3.136 3.136 0 0 0 3.135 3.136l4.715.003a3.565 3.565 0 0 0 3.567-3.565V-.021z" clip-path="url(#r)" style="fill:#fefefe;fill-opacity:1;fill-rule:nonzero;stroke:none" transform="matrix(1.33333 0 0 -1.33333 434.753 231.072)"></path><path d="M309.642 647.932h-2.93V676.1h2.93z" clip-path="url(#s)" style="fill:#fefefe;fill-opacity:1;fill-rule:nonzero;stroke:none" transform="matrix(1.33333 0 0 -1.33333 0 1122.52)"></path><path d="M0 0c0-.911-1.214-2.124-2.124-2.124h-3.699v23.252h3.699c.91 0 2.124-1.218 2.124-2.124Zm-.679 23.628h-7.836V-4.479h7.836c2.124 0 3.362 1.719 3.362 3.843v20.421c0 2.124-1.238 3.843-3.362 3.843" clip-path="url(#t)" style="fill:#fefefe;fill-opacity:1;fill-rule:nonzero;stroke:none" transform="matrix(1.33333 0 0 -1.33333 393.372 252.559)"></path><path d="M0 0v2.712c-.155 1.686-.959 2.032-1.548 2.032h-2.549c-.589 0-1.548-.5-1.548-2.032v-19.461c0-1.28.959-1.549 1.548-1.549h2.549c.589 0 1.548.527 1.548 1.549v7.297h-2.88v2.6h5.601v-14.041h-7.54a3.67 3.67 0 0 0-3.667 3.672V3.576a3.67 3.67 0 0 0 3.667 3.671h4.354c2.026 0 3.186-1.644 3.186-3.671V0Z" clip-path="url(#u)" style="fill:#fefefe;fill-opacity:1;fill-rule:nonzero;stroke:none" transform="matrix(1.33333 0 0 -1.33333 315.305 230.717)"></path><path d="M0 0v11.532h3.161c1.175 0 2.61-1.325 2.61-2.365V2.365C5.771 1.325 4.336 0 3.161 0Zm9.75-14.136L6.247-2.376l.19.117c1.345.842 2.144 2.209 2.144 3.667v8.578c0 1.882-2.202 4.047-4.324 4.047h-7.275v-28.169H0V-2.74h3.366l3.196-11.336z" clip-path="url(#v)" style="fill:#fefefe;fill-opacity:1;fill-rule:nonzero;stroke:none" transform="matrix(1.33333 0 0 -1.33333 333.456 239.763)"></path><path d="M0 0h-5.711v9.914c0 1.432 1.154 1.997 1.982 1.997h1.745c.83 0 1.984-.428 1.984-1.997Zm-1.113 14.405h-3.544c-2.174 0-3.936-1.78-3.936-3.974v-24.137h2.882v11.363H0v-11.363h2.82v24.137c0 2.194-1.761 3.974-3.933 3.974" clip-path="url(#w)" style="fill:#fefefe;fill-opacity:1;fill-rule:nonzero;stroke:none" transform="matrix(1.33333 0 0 -1.33333 486.486 240.298)"></path><path d="M0 0h-5.711v9.914c0 1.64 1.154 2.478 1.982 2.478h1.744c.83 0 1.985-.702 1.985-2.478Zm-1.113 14.886h-3.545c-2.173 0-3.935-1.779-3.935-3.973v-24.138h2.882v10.882H0v-10.882h2.82v24.138c0 2.194-1.762 3.973-3.933 3.973" clip-path="url(#x)" style="fill:#fefefe;fill-opacity:1;fill-rule:nonzero;stroke:none" transform="matrix(1.33333 0 0 -1.33333 366.397 240.94)"></path><path d="M0 0h-3.3l-4.411 12.845h-1.233V0h-3.039v28.107h2.971l.063-12.661h1.243l3.313 12.661h2.972v-.905L-5.202 14.4Z" clip-path="url(#y)" style="fill:#fefefe;fill-opacity:1;fill-rule:nonzero;stroke:none" transform="matrix(1.33333 0 0 -1.33333 465.005 258.57)"></path><path d="M0 0v20.676h5.229c2.083 0 3.772-2.17 3.772-4.253V3.771A3.77 3.77 0 0 0 5.229 0Zm17.28-29.263L11.925-5.722l.818.236c2.384 1.686 3.319 4.422 3.319 7.34v18.46c0 3.767-2.568 6.815-6.329 6.815H-6.574v-56.392H0v23.296h5.594l4.38-23.296z" clip-path="url(#z)" style="fill:#fefefe;fill-opacity:1;fill-rule:nonzero;stroke:none" transform="matrix(1.33333 0 0 -1.33333 506.142 163.581)"></path><path d="M0 0h-9.604v18.923c0 1.676 1.845 3.52 3.521 3.52h2.558c1.68 0 3.525-1.844 3.525-3.52zm-.785 28.897h-8.154c-4.402 0-7.49-3.569-7.49-7.971v-48.422h6.825v20.864H0v-20.864h6.699v48.422c0 4.402-3.087 7.971-7.484 7.971" clip-path="url(#A)" style="fill:#fefefe;fill-opacity:1;fill-rule:nonzero;stroke:none" transform="matrix(1.33333 0 0 -1.33333 563.6 165.938)"></path><path d="M0 0h-9.604v18.923c0 1.676 1.845 3.52 3.521 3.52h2.558c1.68 0 3.525-1.844 3.525-3.52zm-.785 28.897h-8.153c-4.403 0-7.49-3.569-7.49-7.971v-48.422h6.824v20.864H0v-20.864h6.699v48.422c0 4.402-3.087 7.971-7.484 7.971" clip-path="url(#B)" style="fill:#fefefe;fill-opacity:1;fill-rule:nonzero;stroke:none" transform="matrix(1.33333 0 0 -1.33333 472.39 165.938)"></path><path d="M0 0h-20.811v6.511l11.559 43.428h-11.31v6.454h18.25v-6.935L-13.378 6.511H0Z" clip-path="url(#C)" style="fill:#fefefe;fill-opacity:1;fill-rule:nonzero;stroke:none" transform="matrix(1.33333 0 0 -1.33333 438.65 202.599)"></path><path d="M0 0c0-1.58-1.763-2.861-3.342-2.861h-4.99c-1.58 0-3.337 1.281-3.337 2.861v36.748c0 1.579 1.757 2.856 3.337 2.856h4.99c1.579 0 3.342-1.277 3.342-2.856Zm-.602 46.539h-10.104c-4.296 0-7.783-3.487-7.783-7.788V-2.066c0-4.301 3.487-7.788 7.783-7.788H-.602c4.296 0 7.302 3.487 7.302 7.788v40.817c0 4.301-3.006 7.788-7.302 7.788" clip-path="url(#D)" style="fill:#fefefe;fill-opacity:1;fill-rule:nonzero;stroke:none" transform="matrix(1.33333 0 0 -1.33333 389.814 189.46)"></path><path d="M0 0h-7.817l-10.489 27.071L-18.395 0h-7.313v56.393h7.187l.252-27.01 8.31 27.01h7.187v-1.824l-8.315-25.673z" clip-path="url(#E)" style="fill:#fefefe;fill-opacity:1;fill-rule:nonzero;stroke:none" transform="matrix(1.33333 0 0 -1.33333 356.119 202.56)"></path><path d="M0 0h-7.549l-10.129 27.071L-17.764 0h-7.062v56.393h6.94l.243-27.01 8.026 27.01h6.94v-1.824l-8.03-25.673z" clip-path="url(#F)" style="fill:#fefefe;fill-opacity:1;fill-rule:nonzero;stroke:none" transform="matrix(1.33333 0 0 -1.33333 288.595 202.599)"></path><path d="M0 0v-16.905h10.22v-6.82H0v-26.214h-7.003V6.454h18.499V0z" clip-path="url(#G)" style="fill:#fefefe;fill-opacity:1;fill-rule:nonzero;stroke:none" transform="matrix(1.33333 0 0 -1.33333 227.51 136.014)" data-source="https://football-logos.cc"></path><!-- source: https://football-logos.cc --></svg>