<svg xmlns="http://www.w3.org/2000/svg" fill="none" viewBox="0 0 50.81 62"><!-- Source: https://football-logos.cc --><path fill="#fff" d="M1.93 10.956v21.649c0 11.258 9.326 22.345 23.496 27.304 14.17-4.972 23.445-16.046 23.445-27.304v-21.65z" data-source="https://football-logos.cc"></path><path fill="#0659A4" d="M37.477 11.43c-2.693 0-5.166.999-7.06 2.643v-3.117h-4.972V59.96c1.211-.381 3.478-1.354 4.972-2.117v-26.7c1.894 1.618 4.393 2.631 7.06 2.631 6.041 0 10.95-4.998 10.95-11.18S43.517 11.43 37.476 11.43"></path><path fill="#fff" d="M37.458 29.83c3.906 0 7.072-3.233 7.072-7.221s-3.166-7.22-7.072-7.22-7.072 3.232-7.072 7.22 3.166 7.22 7.072 7.22"></path><path fill="#1E1E1C" d="M42.223 17.02c-.013-.014-.026-.027-.039-.027-.077-.066-.142-.132-.219-.184a.2.2 0 0 1-.064-.053 6 6 0 0 0-.541-.381c-.103-.066-.194-.132-.297-.184-.077-.04-.154-.092-.232-.132a4 4 0 0 0-.244-.118l-.155-.08a6 6 0 0 0-.49-.21 8 8 0 0 0-1.57-.394 7 7 0 0 0-3.595.447 6 6 0 0 0-.644.302c-.103.053-.206.106-.31.171a7 7 0 0 0-.733.487c-.284.21-.541.447-.786.697-.039.04-.078.08-.116.132-.077.092-.155.17-.232.263a5 5 0 0 0-.322.42c-.064.093-.142.198-.206.29-.039.053-.065.105-.09.145-.065.105-.13.197-.18.302a1 1 0 0 1-.09.158l-.155.316q-.156.316-.27.67c-.04.119-.078.224-.117.342-.013.053-.038.119-.051.171a4 4 0 0 0-.09.355c-.04.185-.078.356-.104.54-.051.368-.077.75-.077 1.13 0 .317.026.632.064.948.026.25.078.486.13.723.025.119.05.237.09.355.012.053.038.119.051.171.039.119.077.237.116.342q.116.336.27.671l.155.316a1 1 0 0 0 .09.157c.065.106.116.21.18.303a2 2 0 0 0 .142.21c.052.08.103.158.168.237.103.145.219.276.322.421.051.066.116.131.18.197.142.158.296.303.451.447.077.08.168.145.245.224.129.118.27.224.412.329.09.066.193.131.283.197q.445.295.928.513c.914.421 1.92.658 2.988.658.31 0 .619-.027.928-.066a6.4 6.4 0 0 0 1.572-.395c.167-.065.334-.131.489-.21l.155-.079c.154-.079.309-.158.463-.25.103-.066.206-.118.297-.184a7.45 7.45 0 0 0 3.349-6.247 7.5 7.5 0 0 0-2.5-5.564m-4.767-1.487c1.083 0 2.113.25 3.053.723.207.119.413.237.593.382a4.2 4.2 0 0 0-1.468.04c-.709-.211-1.469-.395-2.255-.382a9 9 0 0 0-1.314-.618c.451-.092.915-.145 1.392-.145m6.93 7.076c0 .447-.038.881-.115 1.315-.116-.381-.245-.71-.45-.986 0-1.158-.246-2.118-.67-2.92.115-.434.128-.947.05-1.368a7.1 7.1 0 0 1 1.186 3.959m-8.192-2.552.039.066.013.026c-.593.882-1.057 1.618-1.288 2.67l-.04.014c-.708.131-1.403.276-2.112.407l-.051.013c-.619-.578-.876-1.223-1.108-2.038.335-.974.786-1.868 1.327-2.736.811-.25 1.417-.46 2.254-.434.232.697.593 1.394.966 2.012m-.76-2.051c.49-.737 1.07-1.224 1.907-1.513l.077-.026c.76 0 1.468.17 2.19.368.54.684.85 1.42 1.16 2.25-.362.473-.76.907-1.186 1.328l-.051.039-.026.026-.065-.013a12.2 12.2 0 0 0-3.001-.434l-.026-.04c-.373-.604-.747-1.262-.979-1.946zm-2.615 5.458.039-.013c.708-.132 1.417-.29 2.125-.421l.039-.013c.335.473.721.868 1.146 1.25.335.302.606.499.967.775.012.802-.194 1.605-.477 2.354-.786.277-1.456.605-2.28.697a7.3 7.3 0 0 1-1.984-1.815l-.051-.078-.052-.08-.052-.078-.038-.066c.013-.92.283-1.657.618-2.512m4.496 1.657c.94-.342 1.79-.736 2.615-1.315.67.407 1.365.763 2.087 1.052l.038.013c-.026.855-.322 1.42-.592 2.223l-.026.066a6.3 6.3 0 0 1-.953.815 4 4 0 0 1-1.366.566c-.927-.132-1.584-.408-2.28-1.053.284-.75.49-1.538.477-2.367m2.82-1.447-.063-.04-.04-.026c-.076-1.012-.128-1.999-.373-2.985l-.013-.053.026-.026c.451-.42.863-.894 1.237-1.381l.064.013c.799.132 1.314.342 1.971.842l.052.04c.463.907.644 1.84.657 2.867l-.026.052c-.412.697-.76 1.29-1.482 1.71l-.051-.013a14 14 0 0 1-1.958-1m-7.573-6.076c.077-.079.154-.158.244-.237-.025.329-.025.684.013 1-.528.881-.992 1.775-1.327 2.814-.322.408-.644.803-.953 1.25a7.01 7.01 0 0 1 2.023-4.827m0 10.009a7 7 0 0 1-1.417-2.091c.296.276.618.473.991.63.58.948 1.404 1.592 2.203 2.092.065.263.18.566.296.829a6.7 6.7 0 0 1-2.073-1.46m6.646 1.078c.992-.197 1.791-.789 2.358-1.407.309 0 .708.092 1.043.053-.09.092-.167.197-.257.289a6.84 6.84 0 0 1-4.02 2.012c.413-.276.619-.631.876-.947" data-source="https://football-logos.cc"></path><path fill="#E32618" d="M11.53 10.956H1.935v9.785h9.597zM11.543 30.54H1.946v2.578c0 .144.013.289.013.42v.08c.013.131.013.276.026.407 0 .026 0 .066.013.092l.038.395c0 .04.013.066.013.105l.039.381c0 .04.013.08.013.119.013.131.026.25.051.381 0 .04.013.08.013.119.013.105.026.21.052.328.013.053.013.119.026.171.012.106.038.198.051.303l.039.184c.013.105.038.197.064.29l.039.184c.026.105.038.197.064.302.013.066.026.132.052.21.025.093.051.185.064.277.026.079.039.157.065.236l.038.119.116.394c0 .027.013.04.026.066.051.158.09.303.142.46v.014c.128.394.257.789.412 1.183h8.154V30.54zM9.754 50.137a38 38 0 0 0 1.79 1.723v-1.723zM25.445 10.956h-4.303v9.785h4.303zM25.445 30.54h-4.303v9.798h4.303zM21.142 50.137v8.023a45 45 0 0 0 4.29 1.749h.013v-9.772zM21.141 20.741h-9.597v9.799h9.597zM21.141 40.338h-9.597v9.799h9.597z"></path><path fill="#FBC205" d="M48.873 10.956v21.649c0 11.258-9.274 22.345-23.444 27.304-14.17-4.972-23.497-16.046-23.497-27.304v-21.65zM50.806 0H0v32.605c0 3.038.618 6.09 1.83 9.075C3 44.573 4.714 47.348 6.916 49.913c2.19 2.565 4.818 4.866 7.807 6.866 3.053 2.038 6.454 3.722 10.073 4.997l.632.224.63-.224c3.633-1.275 7.021-2.946 10.074-4.997 2.989-2 5.617-4.314 7.794-6.866 2.19-2.578 3.89-5.34 5.062-8.233 1.211-2.986 1.817-6.037 1.817-9.075V0"></path><path fill="#1E1E1C" d="m32.286 40.14-.773.238-.206-.645 1.082-.381h.695v3.67h-.798zM33.946 40.615c0-.803.58-1.316 1.352-1.316.8 0 1.508.526 1.508 1.855 0 1-.413 1.946-1.52 1.946-.76 0-1.199-.592-1.237-1.026h.76c.038.185.232.33.502.33.451 0 .644-.369.696-.869q-.27.276-.812.276c-.721 0-1.25-.513-1.25-1.197m.773-.027c0 .33.27.579.63.579.362 0 .632-.237.632-.566s-.27-.591-.631-.591c-.374 0-.631.236-.631.578M39.202 41.838c0-.316-.18-.553-.618-.553-.232 0-.477.066-.606.158l-.644-.171.077-1.92h2.345v.723h-1.597l-.026.684c.116-.079.373-.131.631-.131.734 0 1.25.473 1.25 1.183 0 .803-.606 1.263-1.366 1.263-.992 0-1.391-.566-1.43-1.223h.773c.026.276.22.5.644.5.335.026.567-.198.567-.513M43.467 41.193c0 1.17-.58 1.894-1.52 1.894s-1.52-.723-1.52-1.894.58-1.894 1.52-1.894 1.52.724 1.52 1.894m-.824 0c0-.75-.258-1.13-.696-1.13-.45 0-.695.38-.695 1.13s.257 1.131.695 1.131c.451 0 .696-.381.696-1.13M5.154 5.485V3.55h1.108v4.945H5.154v-1.96H3.042v1.96H1.934V3.551h1.108v1.934zM9.623 7.076c0-.29-.206-.46-.785-.552l-.49-.093c-1.043-.17-1.481-.71-1.481-1.473 0-.88.644-1.473 1.842-1.473 1.172 0 1.816.592 1.893 1.46H9.533c-.051-.302-.335-.46-.798-.46-.477 0-.748.17-.748.487 0 .315.258.447.825.539l.49.092c1.043.17 1.442.657 1.442 1.42 0 1.026-.76 1.565-1.945 1.565-1.211 0-1.932-.578-1.997-1.512h1.082c.039.329.348.526.928.526.515-.013.811-.21.811-.526M8.206 3.209l-.824-1.17h.889l.438.5.438-.5h.889l-.825 1.17zM13.734 5.748l2.1 2.748h-1.34l-1.481-1.96-.606.658v1.302H11.3V3.551h1.108v2.183l1.984-2.183h1.34zM18.526 8.51h-1.108V3.563h2.19c1.236 0 1.867.71 1.867 1.697 0 1-.63 1.697-1.867 1.71h-1.082zm.991-2.552c.529 0 .825-.237.825-.697 0-.447-.296-.684-.825-.684h-.991v1.38zM27.042 6.037a2.52 2.52 0 0 1-2.551 2.551c-1.43 0-2.564-1.117-2.564-2.551s1.134-2.552 2.564-2.552c1.43-.013 2.55 1.118 2.55 2.552m-1.134 0c0-.855-.631-1.473-1.417-1.473s-1.417.618-1.417 1.473.631 1.473 1.417 1.473 1.417-.618 1.417-1.473M30.25 7.076c0-.29-.206-.46-.785-.553l-.49-.092c-1.043-.17-1.481-.71-1.481-1.473 0-.88.644-1.473 1.842-1.473 1.172 0 1.816.592 1.894 1.46h-1.07c-.051-.302-.335-.46-.798-.46-.477 0-.747.17-.747.486s.257.448.824.54l.49.092c1.043.17 1.442.657 1.442 1.42 0 1.026-.76 1.565-1.945 1.565-1.21 0-1.932-.578-1.997-1.512h1.083c.038.329.347.526.927.526.502-.013.811-.21.811-.526M31.872 6.497V3.564h1.107v2.802c0 .828.387 1.17 1.018 1.17s1.03-.329 1.03-1.17V3.564h1.096v2.933c0 1.434-.954 2.091-2.139 2.091-1.172 0-2.112-.657-2.112-2.09M39.473 7.076c0-.29-.207-.46-.786-.552l-.49-.093c-1.043-.17-1.481-.71-1.481-1.473 0-.88.644-1.473 1.842-1.473 1.172 0 1.816.592 1.894 1.46h-1.07c-.051-.302-.335-.46-.798-.46-.477 0-.748.17-.748.487 0 .315.258.447.825.539l.49.092c1.043.17 1.442.657 1.442 1.42 0 1.026-.76 1.565-1.945 1.565-1.21 0-1.932-.578-1.997-1.512h1.082c.04.329.348.526.928.526.515-.013.811-.21.811-.526m-1.417-3.867-.825-1.17h.889l.438.5.438-.5h.889l-.825 1.17zM44.507 6.694c0 1.263-.735 1.894-1.817 1.894-1.185 0-1.752-.776-1.816-1.683h1.082c.039.355.232.605.709.605.45 0 .734-.224.734-.908V3.564h1.108zM45.206 8.51V3.563h3.633v1.013h-2.525v.934h2.345v1.012h-2.345v.96h2.564v1.013h-3.672z" data-source="https://football-logos.cc"></path><!-- source: https://football-logos.cc --></svg>