<svg xmlns="http://www.w3.org/2000/svg" viewBox="10.99 66.61 774.67 980.79"><!-- Source: https://football-logos.cc --><defs data-source="https://football-logos.cc"><clipPath id="a" clipPathUnits="userSpaceOnUse"><path d="M-560.598 255.893h595.28v-841.89h-595.28Z"></path></clipPath><clipPath id="b" clipPathUnits="userSpaceOnUse"><path d="M-571.518 508.065h595.28v-841.89h-595.28Z"></path></clipPath><clipPath id="c" clipPathUnits="userSpaceOnUse"><path d="M-571.038 148.201h595.28v-841.89h-595.28Z"></path></clipPath><clipPath id="d" clipPathUnits="userSpaceOnUse"><path d="M-250.257 164.726h595.28v-841.89h-595.28Z"></path></clipPath><clipPath id="e" clipPathUnits="userSpaceOnUse"><path d="M-335.9 197.4h595.28v-841.89H-335.9Z"></path></clipPath><clipPath id="f" clipPathUnits="userSpaceOnUse"><path d="M-92.057 469.904h595.28v-841.89h-595.28Z"></path></clipPath><clipPath id="g" clipPathUnits="userSpaceOnUse"><path d="M-206.072 470.883h595.28v-841.89h-595.28Z"></path></clipPath><clipPath id="h" clipPathUnits="userSpaceOnUse"><path d="M-311.696 389.532h595.28v-841.89h-595.28Z"></path></clipPath><clipPath id="i" clipPathUnits="userSpaceOnUse"><path d="M-374.5 470.883h595.28v-841.89H-374.5Z"></path></clipPath><clipPath id="j" clipPathUnits="userSpaceOnUse"><path d="M-490.307 427.136h595.28v-841.89h-595.28Z"></path></clipPath><clipPath id="k" clipPathUnits="userSpaceOnUse"><path d="M-38.029 422.273h595.28v-841.89h-595.28Z"></path></clipPath><clipPath id="l" clipPathUnits="userSpaceOnUse"><path d="M-238.842 392.673h595.28v-841.89h-595.28Z"></path></clipPath><clipPath id="m" clipPathUnits="userSpaceOnUse"><path d="M-311.696 461.059h595.28v-841.89h-595.28Z"></path></clipPath><clipPath id="n" clipPathUnits="userSpaceOnUse"><path d="M-449.318 416.19h595.28V-425.7h-595.28Z"></path></clipPath><clipPath id="o" clipPathUnits="userSpaceOnUse"><path d="M-486.043 429.344h595.28v-841.89h-595.28Z"></path></clipPath><clipPath id="p" clipPathUnits="userSpaceOnUse"><path d="M-202.344 646.892h595.28v-841.89h-595.28Z"></path></clipPath><clipPath id="q" clipPathUnits="userSpaceOnUse"><path d="M-271.601 647.656h595.28v-841.89h-595.28Z"></path></clipPath><clipPath id="r" clipPathUnits="userSpaceOnUse"><path d="M-396.743 647.997h595.28v-841.89h-595.28Z"></path></clipPath><clipPath id="s" clipPathUnits="userSpaceOnUse"><path d="M-328.834 647.728h595.28v-841.89h-595.28Z"></path></clipPath><clipPath id="t" clipPathUnits="userSpaceOnUse"><path d="M-473.92 598.312h595.28v-841.89h-595.28Z"></path></clipPath></defs><path d="M0 0s0-56.085 9.39-107.073 13.696-122.368 12.35-145.723c-1.345-23.34-4.022-101.436-84.001-166.104 0 0-56.354-42.404-144.633-84.539 0 0-17.877-9.781-33.805-19.545a45.26 45.26 0 0 0-47.966.41c-15.646 9.953-33.087 19.946-33.087 19.946-91.24 46.692-141.992 87.18-141.992 87.18-79.979 64.668-82.082 128.663-87.453 162.652-3.651 23.106 1.705 94.736 11.095 145.723S-526.147 8.761-526.147 8.761c0 81.937-23.615 106.983-23.615 106.983l96.247 89.804c70.575-40.52 188.794-40.251 188.794-40.251s120.02.118 190.594 40.638L28.65 115.044S0 88.009 0 0" clip-path="url(#a)" style="fill:#d9241e;fill-opacity:1;fill-rule:nonzero;stroke:none" transform="matrix(1.33333 0 0 -1.33333 747.464 341.19)"></path><path d="m0 0-.085-1.615c-1.346-23.836-5.41-96.337-79.753-156.558-3.172-2.351-58.606-43.197-142.649-83.307l-.284-.142-.269-.155c-22.93-12.634-37.277-19.46-46.356-24.814-3.738-2.223-8.355-2.295-12.137-.156-4.504 2.563-10.339 5.566-17.973 10.297-13.894 8.625-27.632 15.309-27.774 15.394l-.226.128-.227.127c-89.043 45.563-139.676 85.602-140.171 85.998a299 299 0 0 0-15.651 13.555L-3.201 354.656c-8.753-17.888-18.554-49.571-18.554-102.484 0-2.337.1-57.672 9.561-109.041C-3.159 94.113 1.359 23.609 0 0" clip-path="url(#b)" style="fill:#fefefd;fill-opacity:1;fill-rule:nonzero;stroke:none" transform="matrix(1.33333 0 0 -1.33333 762.023 677.42)"></path><path d="M0 0a109 109 0 0 1-2.722-5.208l-480.353-495.904c-43.481 40.464-56.85 79.072-62.813 109.707L-92.7 78.018a8.29 8.29 0 0 0 11.429.478L-1.476 8.583A6.914 6.914 0 0 0 0 0" clip-path="url(#c)" style="fill:#121195;fill-opacity:1;fill-rule:nonzero;stroke:none" transform="matrix(1.33333 0 0 -1.33333 761.384 197.602)"></path><path d="M0 0c0-8.144-6.586-14.772-14.715-14.829v32.745h.283C-6.458 17.916 0 11.458 0 3.484Zm-29.389-14.829h-.948c-9.037 0-16.359 7.337-16.359 16.372v1.615c0 8.144 6.6 14.758 14.758 14.758h2.549zm18.653 42.135h-3.979v8.725h-14.674v-8.725h-6.444c-13.186 0-23.878-10.693-23.878-23.879v-.481c0-14.999 12.166-27.165 27.164-27.165h3.158v-8.455h14.674v8.455h4.107a26.64 26.64 0 0 1 18.879 7.818 26.6 26.6 0 0 1 7.818 18.88c0 13.709-9.659 24.827-26.825 24.827" clip-path="url(#d)" style="fill:#fefefd;fill-opacity:1;fill-rule:nonzero;stroke:none" transform="matrix(1.33333 0 0 -1.33333 333.676 219.634)"></path><path d="M0 0h-18.784L-40.61 27.732l-5.368-6.977V0h-14.669v68.705h14.848l.358-25.945 24.688 25.945h17.891l-25.762-28.987Z" clip-path="url(#e)" style="fill:#fefefd;fill-opacity:1;fill-rule:nonzero;stroke:none" transform="matrix(1.33333 0 0 -1.33333 447.866 263.2)"></path><path d="M0 0c-26.086 0-38.085 10.661-39.572 12.088-1.792 1.28-16.464 12.476-16.464 35.543 0 32.739 28.714 43.33 42.619 43.33 7.978 0 15.026-2.255 18.516-3.599a8.1 8.1 0 0 1 2.911-.543c2.236 0 4.322.935 5.724 2.566.292.341.455.585.487.634l.592.93 1.109.012h3.987l6.849-35.859h-5.393l-.506 1.258C15.817 68.876 5.79 77.286-4.094 77.286c-9.013 0-24.132-3.993-24.132-30.731 0-28.259 19.088-35.095 30.467-36.655.654-.089 1.31-.134 1.951-.134 7.782.001 13.68 6.573 18.884 12.373.75.834 1.479 1.647 2.19 2.413a3.17 3.17 0 0 0 2.344 1.042 3.29 3.29 0 0 0 2.771-1.55 3.19 3.19 0 0 0 .139-3.115L20.784 1.142.056 0Z" clip-path="url(#f)" style="fill:#262324;fill-opacity:1;fill-rule:nonzero;stroke:none" transform="matrix(1.33333 0 0 -1.33333 122.742 626.54)"></path><path d="M0 0v6.251h5.021a4.814 4.814 0 0 1 4.808 4.808v68.012H7.092c-7.3 0-13.769-5.018-15.381-11.932a22.4 22.4 0 0 1-.542-4.982V36.152c0-6.382-1.153-12.376-3.427-17.811-1.64-3.888-3.572-6.958-5.744-9.128C-22.702 4.512-28.791 1.97-32 .872A16.7 16.7 0 0 0-37.352 0H-53.24c-5.595 0-10.882 2.224-14.504 6.101-1.384 1.482-2.48 3.103-3.26 4.82-1.973 4.289-1.59 9.3 1.029 13.396 3.017 4.738 7.413 7.243 12.71 7.243 9.611 0 13.035-8.791 14.06-12.572.447-1.701.498-3.363.161-4.896q.294.386.618.873c3.726 5.657 4.228 12.11 4.228 17.676v19.692l.011.103c.086.827 2.251 20.361 14.455 28.313 11.702 7.62 19.614 11.019 35.568 11.019h32.869v-6.622h-2.991a6.944 6.944 0 0 1-6.937-6.937V10.258a4.013 4.013 0 0 1 4.007-4.007h5.298V0Z" clip-path="url(#g)" style="fill:#262324;fill-opacity:1;fill-rule:nonzero;stroke:none" transform="matrix(1.33333 0 0 -1.33333 274.763 627.844)"></path><path d="M0 0c-16.089 0-19.322-13.3-19.322-34.76 0-16.803 5.075-34.76 19.322-34.76 14.257 0 19.337 17.957 19.337 34.76C19.337-17.458 13.357 0 0 0m.213-81.351c-25.044 0-45.418 20.52-45.418 45.743 0 27.796 17.828 45.756 45.418 45.756 26.732 0 45.401-18.816 45.401-45.756 0-25.223-20.367-45.743-45.401-45.743" clip-path="url(#h)" style="fill:#262324;fill-opacity:1;fill-rule:nonzero;stroke:none" transform="matrix(1.33333 0 0 -1.33333 415.595 519.376)"></path><path d="M0 0v5.443h2.007a4.98 4.98 0 0 1 4.975 4.976v68.067a6.5 6.5 0 0 1-6.491 6.491h-2.007v6.699l68.764-.181 10.172-38.81h-4.485L63.72 64.732a32 32 0 0 1-1.944 2.318l-5.983 6.536c-1.39 1.519-2.52 2.568-3.661 3.4-3.038 2.213-6.231 3.335-9.489 3.335-3.692 0-6.688-1.492-8.259-2.887a5.7 5.7 0 0 1-1.917-4.263V10.419a4.98 4.98 0 0 1 4.975-4.976h4.954V0z" clip-path="url(#i)" style="fill:#262324;fill-opacity:1;fill-rule:nonzero;stroke:none" transform="matrix(1.33333 0 0 -1.33333 499.333 627.844)"></path><path d="M0 0c7.161 0 13.493-2.004 19.31-6.118L8.476 29.669-1.419-.024C-.967-.01-.491 0 0 0m20.343-43.747v5.585h2.007c1.503 0 2.712 1.267 3.298 2.024 1.686 2.17 2.434 5.363 1.822 7.76-.229.816-6.1 20.882-29.832 20.882q-.448 0-.906-.01a1.31 1.31 0 0 1-1.213-.875l-7.457-21.654a5.78 5.78 0 0 1 .562-4.953 5.77 5.77 0 0 1 4.196-2.686l5.745-.724v-5.349h-33.628v5.337l2.149.285a14.19 14.19 0 0 1 11.565 9.38L1.427 35.694a3.77 3.77 0 0 1-.482 3.471 3.77 3.77 0 0 1-3.113 1.611h-2.007v7.145H38.66v-7.145h-4.267a2.64 2.64 0 0 1-2.166-1.105 2.65 2.65 0 0 1-.378-2.405l22.931-69.99a7.62 7.62 0 0 1 6.249-5.161l4.06-.516v-5.346z" clip-path="url(#j)" style="fill:#262324;fill-opacity:1;fill-rule:nonzero;stroke:none" transform="matrix(1.33333 0 0 -1.33333 653.742 569.514)" data-source="https://football-logos.cc"></path><path d="M0 0c0-23.261 15.743-33.994 15.743-33.994s11.45-11.629 38.285-11.629l19.5 1.073 9.218 18.733c.62 1.26-1.025 2.402-1.98 1.373-6.192-6.671-13.678-16.796-24.77-15.276-13.361 1.832-32.203 10.109-32.203 38.644 0 26.835 15.07 32.738 26.141 32.738s21.627-9.303 26.815-22.183h1.609l-6.082 31.844H69.95s-.221-.359-.666-.877c-2.668-3.105-7.058-4.059-10.878-2.588-3.579 1.378-10.246 3.465-17.796 3.465C29.34 41.323 0 32.743 0 0" clip-path="url(#k)" style="fill:#fefefd;fill-opacity:1;fill-rule:nonzero;stroke:none" transform="matrix(1.33333 0 0 -1.33333 50.705 563.031)"></path><path d="M0 0v-67.951a6.015 6.015 0 0 1 6.015-6.015h3.29v-2.238h-40.067v2.238h3.013a6.815 6.815 0 0 1 6.816 6.816V2.868h-4.745c-8.172 0-15.48-5.523-17.335-13.483a24.5 24.5 0 0 1-.595-5.439v-26.003c0-5.835-1.02-11.656-3.272-17.038-1.303-3.088-3.031-6.203-5.311-8.484-4.362-4.361-9.999-6.755-13.228-7.86a14.7 14.7 0 0 0-4.702-.765H-86.01c-4.903 0-9.69 1.883-13.037 5.466-1.121 1.201-2.14 2.61-2.899 4.278-1.713 3.726-1.317 8.03.893 11.486 1.94 3.045 5.339 6.317 11.018 6.317 8.215 0 11.189-7.648 12.124-11.089.453-1.729.439-3.569-.269-5.198a7.2 7.2 0 0 0-1.515-2.224s2.28-3.088 6.174 2.818c3.881 5.892 4.561 12.606 4.561 18.781v19.587S-66.949-6.664-55.406.857c11.529 7.506 19.05 10.693 34.473 10.693H9.928V8.944h-.984A8.944 8.944 0 0 1 0 0" clip-path="url(#l)" style="fill:#fefefd;fill-opacity:1;fill-rule:nonzero;stroke:none" transform="matrix(1.33333 0 0 -1.33333 318.456 523.564)"></path><path d="M0 0c-14.517 0-21.33 16.472-21.33 36.767 0 20.31 2.819 36.767 21.33 36.767 13.695 0 21.344-16.457 21.344-36.767C21.344 16.472 14.503 0 0 0m.213 79.667c-28.78 0-43.41-19.587-43.41-43.75 0-24.147 19.431-43.735 43.41-43.735 23.964 0 43.395 19.588 43.395 43.735 0 24.163-16.231 43.75-43.395 43.75" clip-path="url(#m)" style="fill:#fefefd;fill-opacity:1;fill-rule:nonzero;stroke:none" transform="matrix(1.33333 0 0 -1.33333 415.595 614.745)"></path><path d="M0 0h-.892l-8.611 11.26a34 34 0 0 1-2.068 2.464l-5.973 6.525c-1.216 1.328-2.505 2.606-3.96 3.667-8.47 6.168-16.688 3.501-20.265.326a7.7 7.7 0 0 1-2.589-5.763v-62.752a6.98 6.98 0 0 1 6.982-6.983h2.946v-1.431h-38.382v1.431a6.983 6.983 0 0 1 6.983 6.983v68.067a8.5 8.5 0 0 1-8.498 8.498v2.68l65.206-.173z" clip-path="url(#n)" style="fill:#fefefd;fill-opacity:1;fill-rule:nonzero;stroke:none" transform="matrix(1.33333 0 0 -1.33333 599.091 554.92)"></path><path d="m0 0 10.963 32.897c.595 1.742 3.045 1.699 3.583-.057L25.938-4.798c.421-1.391-1.191-2.512-2.343-1.625C13.931 1.015 4.776.376 0 0m57.137-31.141L34.205 38.85c-.992 3.028 1.265 6.142 4.451 6.142h2.261v3.13H2.097v-3.13c4.015 0 6.825-3.972 5.486-7.759l-22.774-64.438a16.26 16.26 0 0 0-13.195-10.702l-.407-.054v-1.572H.822v1.572l-3.989.503c-4.914.618-8.017 5.6-6.404 10.284l7.454 21.653A3.32 3.32 0 0 0 .954-3.29c26.424.56 32.724-22.382 32.724-22.382 1.35-5.277-2.405-12.289-7.066-12.289v-1.572h40.734v1.572l-2.306.293a9.59 9.59 0 0 0-7.903 6.527" clip-path="url(#o)" style="fill:#fefefd;fill-opacity:1;fill-rule:nonzero;stroke:none" transform="matrix(1.33333 0 0 -1.33333 648.057 572.458)"></path><path d="M0 0h-18.865c-3.371 4.362-2.422 15.438-2.422 15.438 0 23.878 11.274 28.708 14.758 28.708 3.498 0 6.529-2.413 6.529-2.413Zm26.754 0H15.565v42.404c0 3.087 5.68 4.829 5.68 4.829v2.422H-8.13c-26.442 0-33.949-24.162-33.949-32.348 0-6.175 2.153-13.909 3.202-17.307h-9.334l-2.634-18.908h2.053l.51.934a22.46 22.46 0 0 0 19.857 11.94H6.146a25.3 25.3 0 0 0 19.758-9.489l2.72-3.385h1.84z" clip-path="url(#p)" style="fill:#000091;fill-opacity:1;fill-rule:nonzero;stroke:none" transform="matrix(1.33333 0 0 -1.33333 269.792 862.522)"></path><path d="M0 0c-7.138-.936-14.262 8.497-15.919 21.088s2.775 23.554 9.914 24.502c7.138.935 14.262-8.512 15.919-21.103C11.571 11.911 7.138.935 0 0m-2.762 53.281c-16.514 0-29.898-13.498-29.898-30.139 0-16.656 13.384-30.153 29.898-30.153S27.15 6.486 27.15 23.142c0 16.641-13.398 30.139-29.912 30.139" clip-path="url(#q)" style="fill:#000091;fill-opacity:1;fill-rule:nonzero;stroke:none" transform="matrix(1.33333 0 0 -1.33333 362.135 863.542)"></path><path d="M0 0c-7.138-.935-13.209 8.498-14.866 21.089s3.026 23.575 8.861 24.502C4.098 47.196 8.257 37.079 9.914 24.488 11.571 11.911 7.139.936 0 0m-2.762 53.282c-16.513 0-29.898-13.498-29.898-30.139 0-16.656 13.385-30.154 29.898-30.154 16.514 0 29.912 13.498 29.912 30.154 0 16.641-13.398 30.139-29.912 30.139" clip-path="url(#r)" style="fill:#000091;fill-opacity:1;fill-rule:nonzero;stroke:none" transform="matrix(1.33333 0 0 -1.33333 528.99 863.996)"></path><path d="M0 0c-3.045 0-4.915 2.039-6.346 3.243v26.854c9.023-1.431 18.512-10.651 18.512-18.696C12.166 3.343 3.13 0 0 0m19.318 27.052C9.036 32.504-6.346 36.441-6.346 36.441v6.53H8.115a15.64 15.64 0 0 0 12.988-6.941l1.175-1.741h2.139l-4.83 16.202h-45.973v-3.045h.439a4.044 4.044 0 0 0 4.037-4.036V1.572a4.045 4.045 0 0 0-4.037-4.037v-2.86H10.82c15.481 0 18.611 11.26 18.611 15.381 0 4.107-1.984 12.675-10.113 16.996" clip-path="url(#s)" style="fill:#000091;fill-opacity:1;fill-rule:nonzero;stroke:none" transform="matrix(1.33333 0 0 -1.33333 438.445 863.637)"></path><path d="M0 0c-2.151 0-3.895-2.816-3.895-4.968v-35.284s1.077-15.706-22.675-15.706c0 0-10.991-1.077-21.188 7.647l9.121 16.104h1.204s-1.615-17.208 9.121-17.208c0 0 8.456.298 8.456 9.163v34.884A5.37 5.37 0 0 1-25.225 0v1.869H0Z" clip-path="url(#t)" style="fill:#000091;fill-opacity:1;fill-rule:nonzero;stroke:none" transform="matrix(1.33333 0 0 -1.33333 631.893 797.75)" data-source="https://football-logos.cc"></path><!-- source: https://football-logos.cc --></svg>