<svg xmlns="http://www.w3.org/2000/svg" viewBox="66.18 137.48 462.92 566.93"><!-- Source: https://football-logos.cc --><path d="m504.058 231.743 25.038 12.078-.01.517c-.75 36.819-3.733 73.379-12.055 109.332-9.705 41.935-25.14 81.943-44.351 120.4-43.318 86.713-105.684 160.82-173.02 229.78l-.545.56-.575-.53c-77.772-71.7-146.675-148.039-189.241-246.092-16.573-38.177-28.252-78.04-35.075-119.09-5.205-31.311-7.354-62.928-8.034-94.635l-.01-.524 25.299-11.832c.165-17.62 1.081-35.275 2.5-52.838l.04-.502.47-.183c65.394-25.444 131.62-40.683 202.044-40.704 71.001-.02 138.651 14.23 204.51 40.66l.457.184.044.492c1.566 17.598 2.602 35.253 2.514 52.927" style="fill:#b1b3b4;fill-rule:evenodd" data-source="https://football-logos.cc"></path><path d="m503.25 232.247 25.03 12.075c-.75 36.886-3.677 73.067-12.032 109.167-9.523 41.144-24.567 80.746-44.288 120.222-43.361 86.8-105.608 160.687-172.875 229.577-78.927-72.764-146.782-148.459-189.048-245.82-16.759-38.605-28.259-78.23-35.02-118.901-5.218-31.394-7.342-62.78-8.022-94.521l25.284-11.824c.15-17.56 1.09-35.803 2.502-53.288 65.406-25.449 131.187-40.628 201.752-40.649 70.287-.02 137.494 13.828 204.21 40.602 1.593 17.908 2.62 35.354 2.507 53.36" style="fill:#fff;fill-rule:evenodd"></path><path d="M116.504 195.618c60.872-23.685 120.34-33.98 180.036-33.998 61.59-.018 121.505 10.364 182.57 33.68 1.476 17.076 2.1 34.365 1.207 52.033l24.735 11.32c-1.455 71.44-19.515 136.66-53.65 204.99-34.505 69.071-85.481 137.741-152.927 206.814-70.281-66.628-130.351-135.764-167.771-221.962-23.987-55.255-38.905-117.357-40.46-189.927l24.65-10.916q-.527-25.574 1.61-52.034" style="fill:#e1001d;fill-rule:evenodd"></path><path d="M471.12 201.322c-56.537-20.939-114.225-31.271-174.578-31.253-59.477.018-116.496 10.573-172.018 31.524-1.08 15.267-1.498 30.581-1.182 45.884l.116 5.623-24.619 10.902c1.974 62.915 14.463 123.192 39.615 181.13 36.29 83.595 94.672 151.02 159.787 213.43 56.834-59.015 108.916-125.254 145.603-198.695 31.41-62.877 50.306-125.822 52.613-195.855L471.59 252.63l.289-5.724c.769-15.209.382-30.414-.758-45.585" style="fill:#00afd7;fill-rule:evenodd"></path><path d="M463.07 207.38c-53.96-19.34-108.994-28.88-166.525-28.862-56.644.017-110.986 9.753-163.948 29.09a492 492 0 0 0-.808 39.695l.232 11.245-24.53 10.863c2.496 59.797 14.745 117.144 38.713 172.355 34.679 79.884 89.98 144.87 151.793 204.825 53.955-56.84 103.253-120.366 138.289-190.5 30.022-60.097 48.438-120.186 51.505-186.754l-24.929-11.408.579-11.448c.659-13.043.445-26.083-.371-39.1" style="fill:#fff;fill-rule:evenodd"></path><path d="M124.362 279.417c2.256 35.931 8.153 70.984 18.234 105.116h143.652V244.421c-57.896 1.432-115.31 14.352-161.886 34.996m25.75 128.213a438 438 0 0 0 10.854 27.506c29.378 67.672 74.347 126.067 125.282 178.45V407.63Zm159.059 205.72c59.909-60.664 111.767-134.082 135.948-205.72H309.17Zm140.218-228.817c11.626-33.862 19.01-68.755 21.684-105.148-41.207-18.663-98.866-33.219-161.902-34.93v140.078z" style="fill:#e1001d;fill-rule:evenodd"></path><path d="M128.35 281.84c2.277 33.49 7.813 66.613 17.112 98.871h136.964V248.356c-51.857 1.749-106.443 12.809-154.076 33.485m27.217 129.612a435 435 0 0 0 8.905 22.162c27.852 64.158 69.972 120.114 117.954 170.49V411.452Zm157.426 192.505a727 727 0 0 0 25.146-27.486c22.577-25.99 43.469-53.762 61.532-83.086 15.895-25.803 29.915-53.31 40.079-81.933H312.993ZM446.65 380.71c10.798-32.107 17.7-65.15 20.406-98.937-22.213-9.824-45.947-17.154-69.59-22.483-27.683-6.239-56.103-9.88-84.474-10.893v132.313z" style="fill:#fff;fill-rule:evenodd"></path><path d="M134.68 285.7c2.3 30.076 7.295 59.901 15.348 88.976H276.39V254.643c-47.873 2.297-97.527 12.517-141.711 31.058m29.65 131.787a428 428 0 0 0 5.678 13.724c25.504 58.75 63.637 111.073 106.785 158.015V417.487Zm154.698 171.274a716 716 0 0 0 14.555-16.248c22.39-25.775 43.036-53.212 60.95-82.293 14.213-23.072 26.848-47.385 36.557-72.733H319.028Zm141.646-303.178c-20.752-8.834-42.562-15.452-64.533-20.404-25.318-5.707-51.185-9.202-77.113-10.483v119.98H442.29c9.405-28.946 15.625-58.778 18.384-89.093" style="fill:#00afd7;fill-rule:evenodd"></path><path d="M243.639 425.868c-2.247 4.012-5.519 10.293-8.278 13.367-2.075 2.314-3.978 3.974-6.26 5.227 2.394.232 5.368.27 8.69-.116-4.826 5.243-8.842 7.945-13.789 10.776 5.37-.077 10.74-.502 13.094-1.392-4.228 5.025-10.446 9.969-18.772 13.094 6.2.262 11.878-.22 16.222-1.506-4.884 4.927-8.938 8.48-18.191 11.471 3.243.33 9 .871 14.484 0-3.7 3.221-6.75 5.724-10.681 7.628-2.059.997-4.109 1.494-7.163 2.569 3.455.193 9.52.565 16.686-.169-6.44 6.032-13.489 9.095-21.785 11.408 6.035.784 13.355.92 19.699-.463-1.788 1.306-3.653 2.599-6.258 3.476 4.242.157 9.915-.136 11.822-.373 2.517-.312 3.584-1.689 5.095-3.335.618.696 1.005 1.391 1.623 2.086v5.504c-1.035-.203-2.477-.348-3.981.283-1.935.813-4.173 2.403-6.477 3.389-2.456 1.051-4.142 1.688-6.807 2.063.556.378 2.283 2.402 3.937 2.797 1.057.252 1.562-.513 2.372-.462 1.042.065 1.594.875 2.611 1.67 2.615.226 5.241.315 6.84.013a4.87 4.87 0 0 1 3.032-1.074c.889 0 2.086.667 3.043 1.235 1.707-1.357 3.392-2.571 5.327-2.586 1.935-.016 4.935 1.978 6.026 1.813 1.202-.087 2.002-1.061 2.924-1.36 1.016-.33 1.654-.118 2.568-.377 1.968-.558 1.988-1.147.625-1.915-2.455-1.383-8.917-4.55-13.238-5.154-1.021-.143-2.332-.015-3.473.07v-6.14c.428-.52 1.204-1.257 1.63-2.104 2.857 2.385 4.172 3.003 8.233 3.495 3.06.37 7.19.523 10.691.056-3.821-1.11-4.585-1.532-6.315-3.07 6.537.995 12.853.666 17.727-.35-8.296-2.312-14.069-4.563-20.51-10.595 7.167.734 13.58.362 17.035.169-8.886-3.128-14.524-6.217-20.164-11.125 5.485.87 13.677.91 16.92.58-9.253-2.991-14.466-6.661-19.119-11.704 4.344 1.286 10.834 2.35 17.033 2.087-8.325-3.125-14.195-7.373-18.423-12.397 2.354.89 7.608.85 12.397.81-4.947-2.83-8.615-5.648-13.44-10.891 3.322.386 5.948.348 8.342.116-5.102-3.228-9.808-7.396-13.604-18.594" style="fill:#fff;fill-rule:evenodd" data-source="https://football-logos.cc"></path><path d="M344.623 275.06h73.771v61.874c0 13.076-12.756 27.73-36.692 35.609-24.544-7.648-37.079-21.012-37.079-36.304z" style="fill:#e1001d;fill-rule:evenodd"></path><path d="M387.959 277.071v35.415h28.424v11.703h-28.424v43.858a88 88 0 0 1-6.274 2.381 94 94 0 0 1-6.704-2.418V324.19h-28.346v-11.703h28.346V277.07z" style="fill:#fff;fill-rule:evenodd"></path><path d="M394.173 287.997v14.558l10.442 3.116c2.411.72 3.81-1.085 3.856-2.714.056-2.049-2.3-3.867-4.658-2.275-.703.475-.697-1.26-.64-2.83.034-.94.097-1.433.607-1.844.487-.393.5-1.211-.01-1.575-.61-.436-.564-1.254-.615-2.54-.062-1.552.065-3.422.658-2.838 1.921 1.894 4.835.13 4.75-2.16-.078-2.129-2.007-3.285-4.244-2.576zm3.375 2.208v10.669l3.189.874c-.43-2.034-.282-4.465.108-5.446.244-.611.328-1.1.135-1.731-.354-1.15-1.026-2.842-.394-5.148zM367.124 287.997v14.558l-10.442 3.116c-2.411.72-3.811-1.085-3.856-2.714-.056-2.049 2.3-3.867 4.658-2.275.703.475.697-1.26.64-2.83-.034-.94-.097-1.433-.607-1.844-.487-.393-.5-1.211.01-1.575.61-.436.564-1.254.615-2.54.062-1.552-.066-3.422-.658-2.838-1.921 1.894-4.835.13-4.75-2.16.078-2.129 2.007-3.285 4.244-2.576zm-3.375 2.208v10.669l-3.189.874c.43-2.034.282-4.465-.108-5.446-.244-.611-.328-1.1-.135-1.731.354-1.15 1.026-2.842.394-5.148zM394.173 334.45v14.558l10.442 3.116c2.411.72 3.81-1.084 3.856-2.713.056-2.05-2.3-3.868-4.658-2.276-.703.475-.697-1.26-.64-2.829.034-.94.097-1.434.607-1.845.487-.393.5-1.21-.01-1.574-.61-.436-.564-1.255-.615-2.54-.062-1.552.065-3.422.658-2.839 1.921 1.894 4.835.131 4.75-2.16-.078-2.128-2.007-3.284-4.244-2.576zm3.375 2.208v10.669l3.189.875c-.43-2.034-.282-4.466.108-5.447.244-.61.328-1.1.135-1.73-.354-1.151-1.026-2.842-.394-5.149zM367.124 334.45v14.558l-10.442 3.116c-2.411.72-3.811-1.084-3.856-2.713-.056-2.05 2.3-3.868 4.658-2.276.703.475.697-1.26.64-2.829-.034-.94-.097-1.434-.607-1.845-.487-.393-.5-1.21.01-1.574.61-.436.564-1.255.615-2.54.062-1.552-.066-3.422-.658-2.839-1.921 1.894-4.835.131-4.75-2.16.078-2.128 2.007-3.284 4.244-2.576zm-3.375 2.208v10.669l-3.189.875c.43-2.034.282-4.466-.108-5.447-.244-.61-.328-1.1-.135-1.73.354-1.151 1.026-2.842.394-5.149z" style="fill:#fff;fill-rule:evenodd"></path><path d="M205.812 389.345c-.05.283-.013.605-.014.892l-.045 8.124.008 2.839-.032.764c.012.279.162.579.38.78.233.249.57.356.983.372l4.917.002c1.505-.579 1.263-2.182 1.175-3.174l-.399-4.49c-.255-1.694-1.909-2.77-3.324-2.776l-.959-.02-.006-2.009.07-.01 2.721.036.636-.026q.292-.003.543-.112c.468-.205.83-.59.751-1.078.02-.354-.11-.608-.341-.866a2.24 2.24 0 0 0-1.283-.358l-.849.011-3.542.012c-.408-.017-.743.111-.98.332-.295.199-.412.457-.41.755zm2.68 8.593-.021-2.877.957.015c.506.008.951.796 1.043 1.06l.189 3.15c.02 1.027.141 1.306-.878 1.46-.183-.01-1.156-.026-1.333-.002zM309.982 403.298l1.407-.02a5.5 5.5 0 0 0 3.091-.858c.99-.6 1.529-1.37 1.582-2.26-.014-.078.02-.124.006-.202q.01-.301-.123-.701l-.453-1.852-.666-2.82a1.9 1.9 0 0 0-.711-1.17c-.492-.402-1.237-.563-2.164-.574l-.8-.022v-1.45l-.002-1.59c-.01-.278-.15-.533-.374-.776-.27-.237-.601-.343-.962-.366l-6.263.01-.663-.006c-.351.015-.638.14-.909.342-.213.272-.34.531-.358.892.019.315.114.578.34.82.268.237.557.35.91.335l.396.009-.132.457c-.06.368-.101.613-.114.774l.017.316.002 8.35-.977-.003c-.31.009-.604.095-.867.335a1.05 1.05 0 0 0-.365.854c-.025.321.122.617.347.86.268.235.55.31.91.333l.927-.027c.935.011 1.637-.259 2.121-.733.363-.415.588-.849.555-1.241l.02-9.15-.013-.515a.65.65 0 0 1 .21-.51c.165-.066.38-.1.689-.11l1.87.008.015.753.002 10.38c.017.315.106.54.375.776l.007.038c.304.19.593.304.953.327q.084-.005.164-.014zm1.17-8.067v5.68c.104-.014.202-.021.324-.013l.532-.085c.157-.065.32-.092.471-.197.593-.215.9-.626.9-1.107l-.09-.507-.295-1.195-.59-2.151q-.133-.4-.45-.409zM285.344 389.013c.221.255.345.506.327.856.075.483-.27.862-.719 1.065q-.239.108-.518.11l-.61.027-2.935-.037-.016 1.805 2.567-.03c.333-.005.64.131.86.387.285.186.368.453.39.788.004.297-.13.607-.38.878-.284.198-.565.309-.898.312l-2.527.016-.047 5.714 3.561.046q.501-.006.867.3c.261.239.363.541.384.875.004.298-.148.572-.357.826a1.4 1.4 0 0 1-.92.365l-4.837-.012c-.156-.024-.253-.029-.369-.068a1.24 1.24 0 0 1-.572-.287c-.262-.24-.386-.49-.39-.789l-.011-.895.06-11.5a.85.85 0 0 1 .392-.755c.227-.218.547-.344.938-.328l3.056-.011 1.478-.011c.447-.004.835.095 1.226.353M334.968 393.335l1.937-1.45-.005-2.095c.008-.306.143-.564.373-.8.263-.21.596-.314.967-.336.341.007.63.128.894.334s.407.475.4.78l-.018 5.915-.004 6.495c.025.332-.11.59-.403.83-.263.21-.534.31-.938.306-.308.019-.63-.128-.893-.334-.297-.232-.38-.505-.4-.782l.006-6.912-2.376 1.782v4.109l-.05 1.002a.88.88 0 0 1-.344.77c-.5.512-1.395.418-1.922.007-.282-.221-.373-.575-.37-.879l.016-2.986.009-9.3c.029-.029-.004-.055-.01-.11.075-.254.182-.483.412-.719.235-.18.535-.31.938-.306.342.007.658.099.955.33.235.236.38.505.372.81l-.006 3.179.026.747zM232.375 393.335l1.936-1.45-.005-2.095c.008-.306.144-.564.374-.8.263-.21.596-.314.967-.336.34.007.63.128.893.334.264.206.408.475.4.78l-.018 5.915-.004 6.495c.025.332-.11.59-.402.83-.263.21-.535.31-.938.306-.309.019-.63-.128-.894-.334-.296-.232-.379-.505-.4-.782l.007-6.912-2.376 1.782-.001 4.109-.049 1.002a.88.88 0 0 1-.345.77c-.499.512-1.395.418-1.921.007-.283-.221-.374-.575-.371-.879l.016-2.986.01-9.3c.028-.029-.005-.055-.01-.11.075-.254.181-.483.411-.719.235-.18.535-.31.938-.306.342.007.659.099.955.33.236.236.38.505.372.81l-.006 3.179.026.747zM361.447 392.606l-.005-2.816c.008-.306.143-.564.373-.8.263-.21.596-.314.967-.336.34.007.63.128.893.334.264.206.408.475.4.78l-.018 5.915-.004 6.495c.026.332-.11.59-.402.83-.263.21-.534.31-.938.306-.308.019-.63-.128-.893-.334-.297-.232-.38-.504-.4-.781l.006-7.399-2.376.02-.001 6.357-.048 1.002a.88.88 0 0 1-.346.77c-.498.512-1.394.418-1.92.007-.284-.221-.374-.575-.372-.879l.017-2.986.009-9.3c.029-.029-.004-.055-.01-.11.075-.254.182-.483.412-.719.235-.18.535-.31.938-.306.342.007.658.099.954.33.236.236.38.505.372.81l.02 2.803zM258.764 392.766l-.038-2.95c-.015-.315.14-.579.38-.797.243-.257.56-.352.955-.362.352-.014.65.087.938.304.244.214.393.5.364.812l.06 3.188.019 6.63c.007 2.512-1.215 3.829-3.509 3.725-.442.002-.668.032-1.208-.017-2.52-.23-2.72-1.693-2.749-3.292l-.03-2.602c.03-.312.141-.579.38-.797s.56-.352.955-.362c.35.025.648.125.935.343.243.214.393.5.408.816l-.003 3.155c.033.12.113.204.28.295.535.204 1.13.14 1.656-.048.138-.069.236-.179.25-.336zM382.699 392.586l-.018-.315c.013-.16.054-.406.115-.774l.131-.458-.396-.009a1.23 1.23 0 0 1-.91-.334 1.24 1.24 0 0 1-.34-.82c.019-.362.145-.62.358-.893.271-.202.558-.326.91-.342l.663.007 5.86-.01c.36.022.693.128.961.365.225.243.365.499.375.775l.003 1.59-.001 10.818a1.1 1.1 0 0 1-.097.414c-.063.129-.17.265-.284.362-.263.241-.557.327-.952.35-.36-.023-.65-.136-.953-.327l-.008-.038c-.27-.237-.358-.461-.375-.776l.006-6.961-2.36-.025-.035 6.13c.032.392-.193.826-.556 1.24-.484.475-1.186.745-2.12.734l-.928.027c-.36-.023-.641-.098-.91-.334-.225-.242-.372-.538-.347-.86a1.05 1.05 0 0 1 .365-.853 1.28 1.28 0 0 1 .867-.335l.978.004zm5.04-.795-.014-.754-1.468-.007c-.31.01-.524.043-.69.11a.65.65 0 0 0-.21.51l.013.514-.008.638 2.403.018zM293.274 244.954c-.057.338-.015.724-.016 1.067l-.052 9.716.009 3.395-.038.915c.014.333.187.691.44.933.269.296.659.425 1.136.444l2.044-.043c1.422.013 3.032.068 4.207-.646 1.148-.64 1.105-1.747.967-2.93l-.62-6.809c-.12-.605-.606-1.074-1.028-1.387-.619-.479-1.728-.665-2.885-.668l-1.055-.025-.007-2.402.08-.013 3.145.044.735-.032c.227-.002.433-.046.627-.134.542-.245.959-.704.869-1.288.022-.424-.128-.727-.395-1.036a2.5 2.5 0 0 0-1.482-.428l-.981.013-4.094.014c-.472-.02-.858.133-1.133.397-.341.238-.476.547-.474.903zm3.097 10.277-.025-3.44 1.107.018c.265.002.991.254 1.098.569l.502 4.64c.023 1.229-.228 1.387-1.405 1.571-.213-.012-1.122-.03-1.327-.002zM293.048 281.96c-.057-.338-.015-.724-.015-1.066l-.053-9.717.01-3.395-.038-.914c.014-.333.187-.692.44-.934.268-.296.659-.424 1.135-.444l2.045.043c1.422-.013 3.299-.113 4.474.602.837.817.838 2.058.7 3.24l-.62 6.543c-.12.605-.606 1.074-1.028 1.387-.62.479-1.728.665-2.885.668l-1.056.025-.014 2.415c-.007 1.2.02 1.85-.263 2.273-.248.374-.779.548-1.225.53-.472.02-.858-.09-1.133-.353a1.03 1.03 0 0 1-.474-.903zm3.098-10.277-.025 3.44 1.374.027c.264-.002.724-.298.83-.614l.325-4.64c.023-1.228-.05-1.387-1.228-1.571-.212.012-1.121.031-1.326.002zM301.473 353c.267.312.417.62.395 1.048.09.592-.327 1.056-.869 1.305q-.288.132-.626.135l-.736.033-3.38-.045-.02 2.212 3.101-.038a1.33 1.33 0 0 1 1.04.474c.344.23.445.556.47.966.006.365-.157.745-.457 1.076-.345.243-.684.379-1.085.383l-3.053.019-.058 7.003 4.303.056q.605-.007 1.046.367c.316.293.439.664.465 1.073.005.365-.179.7-.431 1.012-.323.287-.71.443-1.112.447l-5.844-.015c-.188-.03-.306-.035-.445-.083a1.5 1.5 0 0 1-.692-.352c-.316-.294-.465-.6-.47-.966l-.014-1.097.072-14.092a1.05 1.05 0 0 1 .474-.925c.275-.267.661-.422 1.133-.403l3.692-.013 1.62-.014a2.5 2.5 0 0 1 1.481.434M300.745 287.53c.267.312.416.619.394 1.048.09.591-.326 1.056-.868 1.304-.194.089-.4.133-.626.136l-.736.032-2.34-.044-.062 12.094-.016 1.411c-.007.628-.383 1.003-.639 1.2-.364.28-.904.406-1.363.247a1.5 1.5 0 0 1-.691-.353c-.317-.293-.466-.6-.47-.965l-.015-1.097.072-14.092a1.05 1.05 0 0 1 .474-.925c.275-.268.661-.423 1.133-.403l3.29-.013.981-.014a2.5 2.5 0 0 1 1.482.433M295.374 313.145l-.274-2.937c-.034-.586-.92-1.049-1.394-1.012-.352.024-.916.211-1.179.457-.22.24-.338.54-.277.846l.278 3.177.386 3.794c.218 2.108 1.325 3.275 2.998 3.272l2.606-.004-.122 2.83c-.025.281-.06.691-.448.845-.648.257-1.903.162-2.027-.291l.004-.52c-.056-1.183-1.492-1.87-2.414-1.029-.293.267-.43.592-.464.973l.036.36c.055 1.707.54 2.868 2.107 3.236 1.03.242 2.504.238 3.509-.042 1.732-.484 2.64-1.989 2.634-4.384l.294-12.204c.035-.38-.148-.73-.445-.992a1.7 1.7 0 0 0-1.145-.37c-.483.013-.869.128-1.165.442-.292.266-.372.476-.353.862l-.058 7.584c-.466.031-.794.062-1.314.07-1.092.016-1.322-.546-1.42-1.518zM293.81 335.532l-.018-.387c.014-.198.058-.499.123-.95l.142-.562-.427-.012c-.38.02-.69-.12-.98-.41-.242-.297-.345-.62-.364-1.007.019-.443.155-.761.385-1.095.291-.248.6-.4.978-.42l.714.008 6.742-.013c.388.028.745.158 1.034.449.242.298.393.612.403.952l.003 1.952v13.279a1.5 1.5 0 0 1-.105.507 1.5 1.5 0 0 1-.306.445c-.284.296-.6.401-1.025.43-.388-.029-.698-.168-1.026-.402l-.008-.047c-.29-.29-.385-.565-.404-.952l-.002-12.742-.016-.925-2.013-.008c-.333.011-.564.053-.741.134-.123.12-.23.334-.227.626l.014.633-.02 12.036c.066.908-.514 1.654-1.263 1.653l-2.616-.002c-.388-.028-.69-.12-.98-.41-.242-.297-.4-.66-.373-1.055-.02-.388.109-.751.392-1.047.285-.295.6-.401.934-.412l1.052.005zM161.722 224.307a3 3 0 0 0 .348-.123c.843-.287 1.64-.097 2.483.394 1.118.815 1.539 1.978 1.623 3.544l.93 12.942c.062.86-.173 2.67-.992 2.956l-.027.01-2.997-13.605zm5.866 26.537.08.362a5.05 5.05 0 0 1-.206 2.509c-.42.706-.852 1.167-1.585 1.447-.549.272-1.224.11-1.833-.253-.65-.507-1.006-1.077-1.184-1.9l-.091-.412q-.184.044-.373.104c-1.446.564-2.762.58-3.869.098-1.194-.52-1.921-1.72-2.54-3.293l-5.95-15.116c-1.292-3.318-1.523-7.31.23-10.543 1.261-2.075 2.945-3.538 5.126-4.343l.157-.05c-.152-.676-.062-1.7.186-2.433.695-1.515 2.16-1.763 3.374-1.04.305.181.423.37.575.46.276.378.468.797.627 1.29l.234-.096c2.187-.778 4.213-.66 6.125.264 3.293 1.484 4.203 5.149 4.434 8.852l.993 16.914c.103 1.759-.036 3.273-.847 4.52-.751 1.156-1.882 2.027-3.344 2.518a5 5 0 0 0-.319.141m-6.323-5.065-4.35-19.72q-.099.038-.192.064c-.835.321-1.44 1.02-1.963 2.006-.627 1.448-.52 2.724.038 4.119l4.524 11.892c.295.775 1.105 1.954 1.92 1.647zM308.601 225.705c-.047.886-.254 1.645-.71 2.381-.449.625-1.052 1.013-1.72 1.06l-9.151-.09c-.752.041-1.314-.346-1.781-.948a3.07 3.07 0 0 1-.8-2.188l.037-35.167c.04-.774.247-1.534.697-2.159.538-.728 1.135-1.004 1.88-.934l9.158-.021c.668-.048 1.23.339 1.699.94.544.72.75 1.518.703 2.404.037.894-.253 1.645-.708 2.381s-1.054 1.014-1.633.959l-6.744.026-.016 5.006 4.827.014c.67-.046 1.231.34 1.692 1.051.468.601.758 1.408.711 2.294.035.892-.254 1.645-.709 2.38-.455.737-1.053 1.014-1.72 1.062l-4.828-.013-.025 16.134 6.821.092c.586-.056 1.154.22 1.615.932.468.601.752 1.518.705 2.404M247.28 212.388l-.752-2.459-.644-1.203a9 9 0 0 0-1.761-1.807c.358-.607.718-1.213.957-1.67.183-.537.302-.843.482-1.224.902-2.22 1.449-4.144 1.343-5.868l-.214-3.29c-.113-.944-.343-1.736-.812-2.384-.529-.574-1.06-.836-1.711-.79l-9.83 1.218c-.356-.019-.593.126-.948.264-.358.295-.536.52-.776.976-.48.756-.603 1.53-.55 2.392l.383 4.627 1.26 14.667.546 6.587.709 8.704c.172.869.404 1.505.991 2.16.589.498 1.178.84 1.888.72l3.494-.37c.296-.062.651-.043.947-.106 1.127-.334 2.195-.748 3.204-1.4.655-.514 1.37-1.101 1.966-1.851a10.27 10.27 0 0 0 2.402-5.032c.125-.932.19-1.943.078-2.885l-.055-.55.004-.47zm-9.494-13.134 3.79-.43c.11 1.099-.255 2.485-.917 4.091l-.119.15-.96 1.981-1.719.147-.49-6.037zm4.332 15.293-.578-2.216c-.23-.793-.523-1.198-1.056-1.146l-.71.119-1.364.165 1.1 12.395.272 3.215c.593-.127 1.186-.252 1.72-.46q.711-.198 1.247-.638c1.247-.796 1.728-1.864 1.619-3.12l.004-.624zM228.982 229.496c.15-.973.117-1.914.006-2.894l-.428-1.825-3.207-9.754c-.551-.958-.893-1.7-1.024-1.878l-1.049-1.426a20 20 0 0 0 1.66-3.958c.505-2.076.647-4.094.479-5.912l-.49-3.36c-.111-.98-.374-1.686-.925-2.295-.495-.468-1.043-.73-1.586-.64l-9.798 1.93c-.363.058-.648.153-.905.495-.233.236-.464.473-.643.852-.333.65-.457 1.519-.322 2.395l.55 4.547c.137.876.48 1.619.976 2.087.549.608 1.2.804 1.925.687.673-.258 1.19-.59 1.625-1.31a3.9 3.9 0 0 0 .4-2.359l-.027-.244-.08-.386-.03-.593 4.405-.912c.085 1.084-.14 2.367-.65 3.746-.38 1.208-.995 2.305-1.61 3.401l-1.296.309c-.624.05-1.14.384-1.576 1.102-.359.756-.457 1.519-.321 2.395.11.979.452 1.723.95 2.19.547.61 1.12.768 1.768.613l1.634-.266c.362-.058.519.017.65.196.155.074.262.356.42.78l2.966 8.595.317.846s.028.246.002.35c.058.838-.196 1.527-.658 2.35-.643.851-1.367 1.317-2.3 1.567l-1.141.034-.766-5.81c.05-.207-.08-.385-.056-.488-.24-.81-.504-1.514-1.027-2.228-.63-.995-1.333-1.33-1.955-1.28q-.817.131-1.392 1.423l-.1.414c-.383 1.208-.53 2.18-.343 3.196l1.068 8.153c.166 1.47.59 2.6 1.241 3.142.602.75 1.434.915 2.263.731l3.008-.535c2.124-.493 3.985-1.69 5.503-3.63a9.7 9.7 0 0 0 1.89-4.543M328.467 223.796c.293-.915.403-1.842.441-2.827l-.147-1.887-1.696-10.305c-.4-1.07-.626-1.877-.728-2.083l-.82-1.647a17.7 17.7 0 0 0 2.232-3.466c.81-1.907 1.253-3.844 1.361-5.661l.022-3.402c.038-.985-.116-1.738-.567-2.466-.418-.577-.919-.964-1.468-1.01l-9.953-.48c-.367-.03-.662-.006-.967.266-.265.175-.529.35-.762.677-.427.556-.68 1.374-.677 2.263l-.141 4.576c.002.89.228 1.698.648 2.275.45.727 1.062 1.075 1.795 1.136.703-.09 1.262-.29 1.8-.888a3.62 3.62 0 0 0 .75-2.208l.008-.245-.021-.397.06-.586 4.481.173c-.078 1.08-.493 2.279-1.203 3.503-.557 1.088-1.329 2.012-2.1 2.935l-1.325-.012c-.622-.101-1.182.1-1.72.697-.467.652-.678 1.374-.676 2.262-.038.984.187 1.793.607 2.37.449.729.99 1.021 1.652 1.026l1.651.135c.366.03.51.142.611.348.143.11.206.411.299.864l1.632 9.115.186.903s-.01.247-.051.343c-.07.832-.423 1.445-1.003 2.136-.762.677-1.546.958-2.504.977l-1.13-.243.117-5.861c.082-.191-.02-.397.02-.491-.115-.85-.27-1.601-.678-2.426-.472-1.124-1.116-1.621-1.737-1.722q-.825-.07-1.586 1.054l-.161.38c-.559 1.088-.851 2.002-.818 3.041l-.174 8.224c-.056 1.476.191 2.682.752 3.37.481.878 1.277 1.24 2.122 1.261l3.047.203c2.169.032 4.184-.689 5.973-2.218a8.6 8.6 0 0 0 2.546-3.982zM261.86 196.699l1.386-1.694-.099-2.573c-.125-.812.075-1.526.522-2.168.446-.644 1.021-1.028 1.79-1.023.689-.019 1.18.125 1.765.74.586.614.81 1.344.855 2.13l.401 6.533 1.615 27.682c.027.892-.174 1.608-.62 2.251s-1.005.92-1.628 1.07c-.082-.023-.082-.023-.098.08-.508-.038-.998-.181-1.455-.536-.145-.154-.228-.178-.374-.331-.585-.615-.811-1.345-.854-2.132l-1.346-23.51-4.273 5.27 1.032 18.551c.065.13.03.341.013.447a3.63 3.63 0 0 1-.551 1.828c-.528.62-1.104 1.003-1.792 1.023-.705.123-1.341-.174-1.845-.765-.504-.59-.828-1.237-.854-2.13l-.025-1.445-1.9-31.748-.01-.996c-.11-.919.19-1.715.538-2.277.445-.643 1.02-1.026 1.79-1.022.625-.148 1.26.149 1.846.765.504.59.81 1.343.855 2.13l.212 2.938.2 4.593zM284.141 199.27l-.063-8.344c-.026-.893.27-1.638.726-2.255.463-.727 1.064-.993 1.815-1.02.67-.038 1.236.248 1.78.862a3.45 3.45 0 0 1 .69 2.3l.105 9.017.014 23.793c.034 2.117-.552 3.496-1.692 4.37-1.042.662-2.65 1.039-4.989 1.113-1.92.01-3.479-.386-4.603-1.067-1.36-.93-1.933-2.438-1.981-4.333l-.07-14.905c.056-.883.27-1.637.725-2.253.456-.618 1.063-.995 1.816-1.022.662.073 1.228.358 1.773.975.462.608.745 1.417.773 2.31l-.02 12.337c.061.34.213.579.53.836.242.139.4.268.567.286.075.119.323.146.49.165.338-.073.421-.063.594-.156.082.009.255-.083.6-.267.262-.193.449-.505.477-.948zM337.889 196.088c-.1-.083-.182-.057-.201-.165-.379-.68-.554-1.653-.547-2.571.108-.836.397-1.615.888-2.232.59-.532 1.14-.822 1.746-.788l2.123.347 9.38 1.109 1.759.236c.707.115 1.291.5 1.67 1.18.48.761.697 1.493.59 2.329l-.208 3.157-1.742 23.792-.298 4.56 1.757.237c.628.141 1.21.526 1.59 1.205.46.654.615 1.521.527 2.465l-.394 6.42-.042.243c-.107.835-.398 1.615-.906 2.122-.491.616-1.14.825-1.848.707-.606-.033-1.272-.391-1.67-1.18-.12-.19-.22-.271-.24-.38a3.9 3.9 0 0 1-.35-1.949l.189-3.263-12.9-1.582-.186 3.265c-.028.81-.398 1.617-.908 2.123-.509.507-1.14.824-1.847.707-.625-.142-1.29-.5-1.67-1.18-.48-.762-.697-1.493-.589-2.328l.39-5.964.047-.7c.107-.836.396-1.616.887-2.23.49-.615 1.12-.932 1.747-.791l1.84.21 1.524-21.662.413-6.314-1.05-.12c-.628-.143-1.111-.445-1.471-1.015m10.264 28.061 1.743-23.791.177-1.888-2.891-.331c-.546-.168-.97-.146-1.338.2-.243.078-.408.59-.455 1.292l-.2 2.238-1.743 23.792.04.218 4.467.51zM384.822 200.296c-.036.149-.032.395-.067.545l-3.84 34.621c-.098.942-.39 1.647-.985 2.072-.518.618-1.119.798-1.836.686-.718-.11-1.291-.573-1.753-1.24-.388-.72-.514-1.504-.45-2.295l2.187-19.493-4.533-.753-1.924 17.065c-.209 1.144-.644 2.201-1.496 3.183-1.072 1.387-2.535 1.807-4.273 1.551l-1.776-.352c-.679-.014-1.177-.53-1.64-1.198-.388-.719-.552-1.597-.453-2.54.137-.846.429-1.551 1.021-2.223.557-.522 1.118-.797 1.836-.686l1.776.352 2.027-17.759.729-6.499c.035-.148.03-.396.102-.696.031-.396.213-.898.319-1.347l.357-1.251-2.306-.474c-.679-.013-1.212-.381-1.565-1.25-.387-.72-.588-1.45-.414-2.445.063-.793.428-1.551.946-2.17.558-.52 1.193-.85 1.722-.73l2.871.445 8.882 1.514 2.266.376c.718.111 1.25.478 1.678 1.294.385.474.545 1.107.592 1.697m-10.587 7.549 4.535.752.535-4.367.102-.697-2.986-.487c-.529-.121-.98-.048-1.278.164-.338.117-.519.618-.581 1.412zM197.38 237.77l.517.355c.517.602.922 1.253 1.026 2.197.182.747.026 1.637-.316 2.524-.303.787-.864 1.276-1.387 1.416l-1.827.616c-.298.045-.597.09-.782.087-1.378.177-2.493-.087-3.49-1.145-.296-.202-.48-.453-.7-.853-.517-.602-.698-1.35-.952-2.147l-2.855-16.9c-.107-.696-.4-1.146-.995-1.304-.483-.206-1.153-.167-1.787.021l-1.975.515 3.677 21.325a5.14 5.14 0 0 1-.315 2.525c-.451.688-.902 1.126-1.647 1.362-.56.24-1.228.032-1.821-.375-.629-.555-.96-1.154-1.102-2l-4.928-28.533-.889-5.715c-.18-.747-.063-1.538.24-2.327q.567-1.107 1.685-1.461c.56-.24 1.154-.081 1.747.324.297.204.406.402.554.504.294.45.477.95.622 1.547l1.033 6.311 1.976-.513c.671-.288 1.27-.626 1.682-.966.45-.44.603-1.08.421-1.829l-.749-4.373q-.215-1.269.688-2.518c.602-.834 1.573-1.414 2.73-1.742l2.76-.852q.95-.282 1.782.475c.592.406.959 1.155 1.137 2.149.145.845.026 1.636-.278 2.425-.415.836-.864 1.276-1.537 1.563l-1.752.42.463 2.931c.107.697-.049 1.587-.54 2.62l-.828 1.425c.448-.192.927.262 1.628 1.116.589.9.955 1.65 1.062 2.346l2.286 13.273.642 3.68 1.791-.519c.41-.093.894-.136 1.303.02M420.948 209.452c5.869 1.646 7.702 11.553 5.784 22.599s-6.862 19.051-12.73 17.405-7.702-11.554-5.784-22.599 6.862-19.051 12.73-17.405m-1.361 7.85c2.773.779 3.43 6.67 2.266 13.38-1.166 6.71-3.713 11.702-6.487 10.924s-3.431-6.67-2.266-13.38 3.713-11.701 6.487-10.923M401.685 219.65c-1.437.927-2.67-.984-1.645-1.76 1.767-1.334 3.702-2.996 4.174-5.006-2.006-1.141-2.774-2.702-2.688-4.834.063-1.562 1.256-4.162 2.915-3.99 2.712.283 2.924 4.811 2.498 7.425-.553 3.396-3.016 6.718-5.254 8.164M443.918 217.544c4.888.813 7.508 7.626 6.37 14.6-.647 3.974-2.431 8.437-5.447 13.41-1.902 3.136-4.473 6.8-8.002 10.093-1.646 1.537-3.946 1.562-4.384-1.08-.42-2.525 1.184-4.596 2.006-5.398 1.008-.983 2.803-2.745 5.565-6.42-1.426.122-2.362-.153-3.127-.652-3.69-2.412-3.841-8.34-2.89-13.802 1.147-6.598 5.521-11.48 9.908-10.75m-.991 8.698c1.959.5 2.779 3.208 2.288 5.928-.49 2.72-2.037 4.835-4.363 4.28s-3.026-3.432-2.417-6.323c.61-2.89 2.533-4.384 4.492-3.885" style="fill:#e1001d;fill-rule:evenodd"></path><path d="m332.573 481.077-9.617 19.696c-.34.527.205 1.513 1.275 2.448.555.486 1.049 1.227 1.658 1.725 1.017.83 2.142 1.417 2.943 2.022.746.563 1.343 1.872 2.284 2.35.445.226 3.287.432 5.82.763 1.848.242 2.539.458 3.972.365 1.328-.087 3.132-1.557 4.297-1.277.503.121 1.324.75 1.957 1.646.448-1.293.39-2.722.062-3.705.598.286 1.602 1.357 2.26 1.437.554.068.846-.525 1.386-.671.532 1.631 1.645-.511 2.583-.447-.128 2.071 1.367.717 1.935.756-.55.883-.675 2.617.36 3.694.852-1.713 1.061-2.407 2.894-4.123-1.08 2.007-2.412 3.335-1.326 5.033 2.729-2.415 2.637-4.558 6.1-6.779.128.876-.476 1.27-.212 2.06.088.262 1.21.854 1.38 1.172.94-.258 2.19-1.792 4.406-1.237.203.9-.406 2.38-1.13 3.628 1.915-.41 2.081-1.978 3.463-3.047.555-.43 1.201.057 1.705-.051.503-.108.864-.812 1.464-1.146.322-.178.75.428 1.14.096.5-.427.99-1.853 1.649-2.624.015 2.19.262 3.45-.766 5.756 1.764-.552 2.948-1.916 3.32-4.673.775 2.66.224 4.603-.106 6.183.377-.191.702-.382.987-.574a568 568 0 0 0 13.817-21.333 507 507 0 0 0 14.762-25.556c-.305-.628-.606-1.224-.92-1.72-.956-1.515-2.03-2.102-3.22-3.53-.06-1.559-.323-2.182-.713-2.974-1.174-2.378-3.276-4.202-5.572-4.814.13-.554 1.015-1.514 2.305-2.3-1.405-.397-1.98-1.007-3.694-1.715-.296-1.452-.096-3.27-1.01-4.552-.06-.085-.358-.13-.427-.21-.295-.346-.426-1.019-.775-1.347-.271-.255-.752-.167-1.054-.444-.158-.146-.14-.336-.332-.488-.342-.273-1.228-.456-1.557-.795a8 8 0 0 1-1.038-1.317c-.467-.747-.322-1.698-.772-2.066-.75-.615-1.617-.24-2.445-.725-.055-.232-.389-.786-.69-.73-.173.032-.416.14-.575.027-.258-.186-.108-1.05-.7-1.029-.352.013-.69-.005-.984-.218-.245-.177-.031-.587-.278-.752-.742-.498-1.94-.68-2.575-.835-1.67-.408-2.753.92-4.855.86-.617-1.892-1.195-3.243-2.433-5.445q-3.903.365-6.876 3.518c-1.008-.235-2.316-.43-3.303-.185-.449.112-.587.623-1.032.722-.473.106-1.015-.02-1.463.06-.895.158-2.005.106-2.72.363-.714.256-1.034.823-1.893.977-.55.1-.934-.096-1.641-.151-.91-.07-2.464.298-3.144.442-.454.097-1.08-.38-1.562-.228-.48.15-.507.62-.996.75-.734.193-1.623.63-2.324.851-1.051.331-1.529.024-2.292.394-.764.37-1.813 1.419-2.154 1.988-4.291-1.605-8.16-3.046-11.96-3.728-2.6-.467-5.062-.936-7.274-.211.643 1.953 2.248 5.834 3.636 8.815.95 2.04 2.487 4.326 3.483 6.457.562 2.598.892 3.996 2.034 5.2-.582.995-1.803 1.828-2.474 3.9.424.225.454.2.946.294-.143.515-1.062 1.799-1.483 2.964-.22.609-.536 1.314-.531 1.993.778.396 1.203.106 1.118.673-.059.388-.778.208-.894.612-.116.403.366 1.393.238 1.795-.096.302-.886.757-.966 1.05-.132.487-.153 2.587-.167 3.022.956.444.81.55 1.28 1.78.167.44.679 1.033.786 1.677.18 1.076-.065 2.305.175 3.234.208.802.537 1.11.78 1.78.242.67.4 1.704.265 2.724" style="fill:#fff;fill-rule:evenodd"></path><path d="M334.813 497.298c2.874-.048 3.224-3.988 3.591-4.458 1.59-2.037 1.57-.847 2.35-3.12.954-.249 1.753-.034 2.707-.284.153-1.038.229-1.69.383-2.728 1.186-1.8 2.605-2.67 3.792-4.47.84 1.713.493 2.715.754 3.874.436 1.932 1.295 2.723 2.568 2.61-.31-1.699-.233-2.314-.155-4.014q1.204-.114 2.426-.24c2.596.825 5.115 1.011 7.568.825.46-.035.4-.648.879-.743 1.919.28 4.654-.782 4.922-1.452 1.82-.522 4.15.129 5.91-.398-.463-1.467 1.007-2.161.543-3.629 1.545.618 1.08.85 2.625 1.467 1.625-2.936-4.79-6.414-4.712-8.034 1.545-.234 2.626.384 4.326 1.08-.155-1.236.232-2.472.619-2.857 2.394 1.004 2.701 2.163 5.328 1.774-.104-.538-.2-1.06-.3-1.565-.16-.806-.571-1.652-.828-2.388-.228-.649-.288-1.121-.686-1.728-1.281-1.959-4.086-2.65-5.6-5.441 1.313.85 2.548 1.854 3.94 2.55 0-.928-.233-1.545.076-2.395.695 2.32 3.864 1.545 4.945 1.543-.154-1.623-.385-2.239-3.245-3.241.696-.388 1.235-.852 2.085-.775-.683-1.235-1.2-1.697-1.004-2.933 3.7 2.044 7.055 4.229 9.903 6.936.527.5 1.425.634 2.612.245-.386-1.39-1.159-1.62-2.396-2.778.869.084 2.266.938 3.32 1.298.96.329 1.806.067 2.767.589.565.306 1.118.645 1.643 1.01 2.054 1.424 3.61 3.368 4.785 4.365 1.107-2.208-.789-5.25-5.787-7.996-1.53-.84-3.492-1.585-5.569-2.358 4.584.489 6.978 1.957 9.5 3.477 1.483-.518.185-1.748-.84-2.57-1.96-1.572-6.811-3.03-12.136-3.687 2.395-.543 4.325-.156 6.952.075.31-.85-.075-1.622-4.326-2.316 2.793-.512 4.921-.214 7.089.777 1.913.874 3.737 2.152 3.493 3.696 1.566 2.043 4.753 6.851 6.703 9.55q-1.39 2.556-2.81 5.092c-1.397-1.812-3.516-3.54-5.59-4.902.434.615-1.002 1.71-.47 2.231a24.5 24.5 0 0 1 4.354 5.694l-.39.684c-1.847-2.367-4.55-4.55-8.053-6.213l-.463 1.853c-1.699-1.23-2.78-1.911-6.41-2.007.523.35.032 2.009.61 2.238 4.196 1.663 8.234 4.211 12.042 8.07l-.845 1.443c-4.456-3.501-10.069-5.5-14.204-3.948 5.36 1.648 10.537 4.338 12.702 6.489a534 534 0 0 1-5.277 8.678c-1.81-3.968-4.358-7.823-7.655-7.829 1.325 1.953 4.87 6.697 5.445 11.36a562 562 0 0 1-2.968 4.65c-.162-2.09-.381-4.59-.662-6.698-.444-3.333-1.042-5.69-3.36-3.906-3.476-6.461-8.163-7-13.287-4.172.618.773 1.545.926 2.163 1.698l-3.376.143-.134.618-2.086.09-3.782 2.717c-2.685 1.928-5.552 3.044-9.16 3.077-.233 1.622-1.779 3.553-2.01 5.176-2.395-.135-4.55.716-6.662 1.028-1.381.204-1.723.823-.533 1.025.776.132 3.262.358 5.428.4-.956 1.485-3.376.525-5.469.163-.738-.127-3.444.208-1.606 1.216 1.118.613 4.018.598 4.98.985-1.629 1-2.648.016-4.682-.299-2.033-.315-3.92-.269-3.727.855.087.507.252.537.867.902.995.59 4.233.353 5.307.567-.593 1.084-2.823.537-5.134.109-.648-.12-.835-.153-1.571-.244-1.266-.155-2.62.395-1.392 1.233 1.143.781 3.232.705 4.538 1.406-4.03.377-7.238-1.722-8.227-2.815.355-.852.072-1.066.253-1.356s.826-.659 1.182-1.51c.382-.399.386-1.493.066-2.357-.411-1.111-1.259-2.046-1.462-2.777" style="fill:#e1001d;fill-rule:evenodd"></path><path d="M382.58 495.115c1.358 2.516 1.542 5.39 1.183 11.908a577 577 0 0 0 1.833-2.77c-.205-5.454-1.467-8.411-1.93-9.486-.433-1-.426-2.085-.304-3.203.539-1.03.835-.646 2.11 1.047-.47-2.029-1.658-2.972-2.281-1.893-1.388-1.103-2.95-4.005-4.975-3.309 1.269 1.01 1.958 1.903 2.532 2.854-1.704.652-1.934 1.641-2.895 2.953-.605-.914-.906-1.046-1.18-1.318-.41-.408-1.793-.116-2.457-.1.322 1.02.24 1.577-.598 2.366-.316-.306-.634-1.092-1.094-1.318-.358-.175-.804.15-1.406.267.033.919.17 1.337-.216 1.73-.128.132-.244.196-.471.318-.98-.284-1.077-1.003-1.422-1.192-.84-.462-3.198-.429-5.02-.151-.19.146.028.392-.287.88-.727-.12-1.702.472-2.286.825 1.073.384 1.254.645 1.008.865-.589.122-1.388.706-1.57.892 1.154.416.975.599.68 1.305-.36.173-.832.234-1.234.52-.24.172-.399 1.18-1.013.777-.328-.883-.597-.664-.75-.212-.233 2.206-.388 3.523-.001 5.574.065-.29.371-.632.37-.93a15.5 15.5 0 0 1 .384-3.599c.619-.115 1.12.407 1.16 1.336.56-.89.714-1.258 1.449-1.336.338.146.473.726.543 1.503s.076 1.749.153 2.678c.232-.465.405-1.394.637-1.858.638 1.103.696-1.046 1.044-1.742 3.286-2.071 1.875 2.012 2.725 3.135.425-1.2.33-2.342.754-3.542.126-.355.414-.53.547-.936s.112-1.048.312-1.412c.274-.497.824-.59.997-1.077.71.703 1.333 2.746 1.564 4.083.132.768-.54.562-1.206.716-.498.116.952.1 1.074.638.281 1.243.094 3.016.191 3.446.245-.415.284-1.185.467-1.752.235-.728.772-.462.75-1.906.46-.157 1.641.513 1.753.042.1-.426.564-.492.895-.634.31-.133.55-.138.913-.458.282-.25.107-.655.905-.634.125-1.268.222-2.602-.174-4.296.966-.348 1.469-.522 2.435-.87.638 2.516.29 2.825.522 5.225.676.096 1.062.425 1.623.813.281-2.114-.273-4.217-.841-4.655-.303-.234-.146-.912-.235-1.275-.347-1.409 1.501-2.371 2.333-.832M325.95 502.399c-.35 1.012 1.747 1.143 2.862 1.686.866.423 1.353 1.456 2.24 1.159.545-.183.318-1.474-.13-1.974-.27-.3-.443.043-.554-.351-.082-.294.936-.8.93-1.247-.003-.37.107-.375-.899-.609-.589-.137-1.801-.08-2.002.136-.323.346-.155.703-.684.937-.298.13-.231.165-.694.041-.525-.14-.968-.072-1.07.222M344.623 478.528c-.632.388-.454.777-.684 1.163-.324.547-.785 1.175-1.202 1.7-.25.314-.488.519-.67.853-.17.31-.222 1.032-.406 1.335-.248.411-.893.288-.882.778.014.636.083 1.102-.14 1.45-.187.291-.6.175-.63.522-.063.73-.245.595-.427.862-.556.816-.624 1.417-1.083 2.106-.154.23-.713.47-.865.731-.171.292-.08.88-.315 1.184-.2.256-1.327.52-1.52.79-.285.396-.369 1.088-.652 1.485-.185.26-.575.23-.758.49-.173.245.403 1.155-.008 1.475-.404.315-1.144.062-1.445.47-.181.246.103.61-.537.74-.268.053-1.123-.285-.985-.523.264-.456 1.247-.149 1.685-.407.153-.09.416-.327.418-.482.004-.259-.266-.249.015-.458.232-.171.503-.38.543-.545.093-.39-.354-.419-.342-.9.016-.619.38-1.69.56-2.05.056-.112.58-.173.635-.289.207-.427-.272-.903-.045-1.301.124-.219.831-.207.955-.422.137-.237.048-.532.19-.764.239-.384 1.582.275 1.822-.107.337-.535 1.003-1.962-.664-2.878.229-.427 1.625-.055 1.897-.452.176-.257.045-1.507.347-1.598.767-.233 1.45-.511 1.495-.835.083-.592.113-.875.29-1.208.227-.43.592-.525.87-.915.091-.13.13-.317.266-.439.33-.296.601-.318.531-.633-.082-.364.3-.561.525-.87.134-.185.943-.434 1.263-.433.32 0 .15.253-.047.375M337.082 477.493c-.426 1.522-.872 3.603-1.711 4.929a40 40 0 0 1-2.927 4.012c-.585.702-.737.637-.31-.281.742-1.592 2.286-4.51 3.093-5.873.594-1.004 2.17-3.91 1.855-2.787M331.274 488.32c.093.05.115.192.049.32-.067.129-.195.194-.289.146-.092-.048-.114-.191-.048-.32.066-.128.195-.193.288-.145M328.915 492.624c.136.07.167.277.071.464-.096.186-.283.28-.419.21-.135-.069-.166-.276-.07-.462.096-.187.283-.281.418-.212M330.115 490.614c.093.048.114.19.048.32-.066.127-.195.193-.288.144-.093-.047-.115-.19-.048-.319.066-.128.195-.193.288-.145M367.291 456.942l5.509 4.296c-.039.31-.194.735-.232 1.045-1.752-1.36-2.68-2.277-3.568-3.019-.917-.766-1.332-1.543-1.709-2.322M376.627 434.881c-.576 2.467-.457 4.935-.453 6.88-1.047 2.466-3.834 5.747-5.288 6.705.696.27 1.45.774 1.971 1.045.85-1.53 2.398-3.58 3.538-6.27 1.71.696 4 4.587-.145 5.805-.598.175-.252 1.239-.32 1.858.87.24 1.762-.312 2.599-.105.651.16.9 1.254 1.75 1.15.462-.138.096-1.387.134-1.885.042-.57.954-.812.591-2.397-.114-.5-.443-1.147-.624-1.7-.208-.632-.106-1.645-.369-2.327-.641-1.662-1.737-2.925-2.44-4.57-.547-1.278-.768-2.95-.944-4.189M397.327 449.685c-2.552-2.232-4.91-4.759-8.165-6.024-1.705-.662-3.625-1.026-5.867-.943l-.174-2.206q-1.363.06-2.725.117c1.285.968 2.04 2.148 2.55 3.425.544.26 1.053.096 1.604.338.33.145.714.697 1.024.845.323.154.794.028 1.097.183.303.154-.023.942.327 1.063.837.29 2.185.038 2.968.456.371.199-.06 1.38.324 1.564.5.238 1.832.158 2.365.353.532.195.785.61 1.327.79s1.086.186 1.618.381c.532.196 1.053.58 1.553.82zM384.89 438.045c0 .658.086 1.519.086 2.177 2.666-.52 5.935.944 9.22 3.367-.46-1.368-2.601-2.04-4.045-3.291-.564-.489-.956-1.502-1.522-1.992-1.005-.058-2.735-.203-3.74-.261M378.308 434.823c.192 1.73-.126 2.218 1.044 3.193.507.024.967-.062 1.529-.07a66 66 0 0 1 3.747.07c.685.012-.457-.36-.569-.385-1.173-.27-2.418-.304-3.606-.37-.425-.097-.56-1.122-.058-1.335 1.817-.078 3.634-.04 5.451-.116-.233-.71-1.745-.555-2.732-.855-.287-.088-.499-.64-.76-.753-.435-.19-.909.055-1.36-.004-.306-.04-.731.734-1.037.699-.549-.063-1.1-.011-1.649-.075zM326.297 434.533c1.656.904 2.955 1.13 4.796 1.662 2.085.602 5.14 1.128 7.09 2.004 1.031.464 1.728 1.226 2.712 1.818.976.587 2.01.657 3.145 1.714l-.877 1.118c-.472.6-.412.846.181.972.503-.282 1.706-1.361 1.974-1.94.592-1.273.006-2.358 1.11-2.98.959-.538 1.417.554 2.64.187.504-.151-.046-1.235.445-1.395.487-.16 1.635.52 2.15.404.858-.196 1.098-1.166 1.922-1.341.439-.093 1.222.65 1.794.466.528-.169 1.36-.79 1.765-1.18-.996.03-2.188-.275-2.899-.185s-.653.636-1.586.86c-.976.234-1.842.072-2.663.442-.45.203-.957-.138-1.633-.253-.676-.116-1.523-.006-1.956.168-1.157.465-.908 2.664-2.02 3.38-.711-.632-1.237-1.505-2.21-2.08-1.223-.724-2.739-1.208-4.188-1.778-1.174-.461-2.086-.992-3.25-1.343-3.978-1.2-7.828-1.558-8.442-.72M337.082 444.75c.357.464.455.871.668 1.452-.233.183-.465.455-.842.696.106-.735.242-1.529.174-2.148M339.525 459.525v6.257c-1.642.174-.61 1.173-1.276 1.86-.667.689-1.644.716-2.2.226-.303-.268-.162-.635-.357-1.044-.196-.408-.731-.862-.78-1.303-.124-1.134.23-2.273.673-3.215.172-.363.033-1.184.373-1.382.223-.13.498.168.797.074.898-.284 1.8-1.47 2.77-1.473M347.171 469.946c-.176-.667-.147-1.64-.784-1.996-.382-.213-.988.122-1.237-.254-.26-.389.155-1.013.144-1.642-.01-.63-.448-1.266-.558-1.681.875-1.8 2.91-3.368 3.551-3.425 1.265-.114 1.237.94 2.476 1.169 1.187.218 1.398-.267 2.792-.047 1.17.185 2.927.12 4.409.197.602.032 1.276.669 1.793.712.755.063 1.31-.48 1.91-.58.812 1.026 2.29 2.811 3.538 4.144 1.247 1.332 2.261 2.213 1.217 2.358-1.176.163-3.08.056-4.414.209-1.036.12-1.558-.288-2.489.417-.258.196-.754-.544-1.057-.595-.364-.063-.917-.056-1.214-.18-.336-.14-.38-.49-.65-.649-.448-.265-1.117-.319-1.787-.225-.265.036-.243.618-.582.887-.338.27-1.04.228-1.358.644-.277.361-.465.8-.597 1.234-1.12-1.761-1.432-2.363-2.204-2.497-.554-.096-1.646.541-1.973 1.756-.1.37-.708.082-.926.044M362.305 471.456c-.337.057-.787.503-1.19.71-.442.23-1.117.1-1.516.32-.398.221-.523.792-.792 1.025-.502.435-.668.938-1.277 1.261-.288.153-.88.053-1.199.15-.567.17-1.592-.038-2.36-.472-.678-.383-1.108-.892-1.581-.672-.34.157-.973.834-.998 1.5-.019.517.686 1.495.824 1.751.197.366.99.113 1.608.433.795.41 1.318.89 2.093.917.455.016.936-.035 1.433-.144s.838-.45 1.36-.668c.816-.34 1.521-.453 2.27-1.026s1.547-1.608 2.08-2.394c.26-.386.298-.836.315-1.307.028-.786-.207-1.53-1.07-1.384M350.303 472.965c.126.355-.466.378-.786.684-.412.395-.543.945-1.012.825-.806-.206-1.004-1.297-.58-1.683.615-.56 2.1-.61 2.377.174M354.941 472.21c.573.524 1.767.41 2.204-.232.338-.498-.561-.93-1.16-.87-.581.057-1.475.708-1.044 1.102M371.524 439.41c-.568 1.158-.962 1.969-1.413 3.01-.27.625.188 1.554.021 2.214.735-1.409 1.355-2.392 1.503-3.134.114-.577-.11-1.01-.11-2.09M368.276 448.012c-.538.91-.986 1.483-1.448 2.08.067-.368-.225-.755-.106-1.311.118-.558.477-1.174.686-1.534.31-.535 1.723-.686.868.765M366.234 436.55c-.753.95-1.415 2.137-2.29 3.369-.771 1.087-1.76 2.226-2.393 3.09 1.093-.733 2.846-2.275 3.62-3.2 1.024-1.227 1.537-3.859 1.063-3.26M232.855 282.68c5.815 1.902 11.37 7.223 14.115 11.67 8.757 8.974 10.745 25.284 7.905 37.164-1.679 7.855-4.52 13.601-11.122 18.876-7.155 7.384-16.787 11.57-26.666 13.429-8.994 1.579-18.544.707-25.647-3.064-9.892-3.946-18.479-13.655-22.55-21.792-5.031-6.29-5.546-13.908-4.572-19.274.534-12.959 6.52-26.116 15.86-33.915 4.509-5.698 13.154-9.347 20.365-9.359 10.493-2.168 24.146.584 32.312 6.264" style="fill:#e1001d;fill-rule:evenodd"></path><path d="M202.719 304.829c-4.127 5.632-7.192 11.258-8.795 17.375l-13.209 2.377c-3.772-3.041-6.587-8.237-8.261-13.138 2.055-5.753 5.166-11.724 8.42-16.806 4.42-1.768 12.07-2.419 15.465-2.086 1.749 4.033 4.05 8.422 6.38 12.278m15.896 57.654c8.86-1.922 17.353-5.791 23.848-12.22-2.014-.132-4.098-.207-5.776-.174-4.292 4.517-9.001 7.056-14.99 8.973-1.007 1.087-2.047 2.211-3.082 3.421m35.78-33.623c1.892-10.843-.055-24.707-7.376-32.98-.076 3.119-.1 6.24.11 9.359 2.729 5.532 3.526 10.544 3.423 16.59a23.7 23.7 0 0 1 3.842 7.031m-23.322-46.15c-8.025-4.985-20.088-7.095-29.336-5.497 2.546 1.35 5.292 2.748 7.668 3.852 4.718.055 9.632.876 14.249 2.057 2.45-.034 4.937-.195 7.419-.411m-51.086 4.558c-8.738 7.772-13.938 20.062-14.623 31.66 1.925-1.9 3.788-5.056 5.96-7.308 2.071-5.965 5.288-12.186 8.67-17.473-.347-2.647-.263-4.825-.007-6.88m-9.614 52.363c4.325 7.996 12.19 16.148 20.555 19.819a33 33 0 0 1-1.057-4.23c-5.846-3.665-9.87-7.565-14.072-12.904-1.781-.785-3.617-1.788-5.426-2.685m23.743-16.44c3.547 4.068 8.298 8.992 14.103 12.69-.135 4.689-1.035 9.837-2.819 14.103-4.733 1.741-10.169 3.524-15.067 4.338-5.544-3.486-9.405-7.185-13.388-12.18-.185-4.737 1.268-10.818 3.905-16.562zm28.663-39.252c-4.327-1.07-8.901-1.807-13.298-1.867-6.505 2.743-9.886 6.242-12.19 10.146 1.758 4.044 4.077 8.45 6.412 12.296 6.25-.223 12.634.419 19.44 2.405 2.49-2.486 4.968-5.024 7.247-7.691-.571-5.005-2.846-10.304-7.61-15.289m26.763 38.156c.13-5.985-.61-10.899-3.281-16.344-3.31-3.298-7.79-5.606-15.006-5.988-2.364 2.779-4.945 5.417-7.536 8.002a105 105 0 0 1 2.47 18.35c4.092 2.512 8.93 5.03 13.33 6.904 4.313-2.758 7.443-6.442 10.023-10.924m-27.776 35.887c5.767-1.888 10.297-4.392 14.453-8.864 2.394-5.627 2.769-10.25 2.696-15.263-4.325-1.857-9.042-4.311-13.073-6.772-5.005 3.857-10.511 6.924-16.618 8.85-.14 4.73-1.038 9.898-2.81 14.232 4.184 3.713 7.795 6.323 15.352 7.817" style="fill:#fff;fill-rule:evenodd" data-source="https://football-logos.cc"></path><!-- source: https://football-logos.cc --></svg>