<svg xmlns="http://www.w3.org/2000/svg" viewBox="0 0 878 1023.65"><!-- Source: https://football-logos.cc --><g fill="none" stroke-width="2" data-source="https://football-logos.cc"><path stroke="#80beaa" d="M439.89 995.65q.36 0 .48-.05 62.26-26.05 118.56-62.58 9.61-6.23 16.62-11.13Q741.37 806 810.17 613.99q28.63-79.9 39.04-169.72 9.68-83.58 2.91-167.22-1.75-21.69-5.16-43.81a1.83 1.83 0 0 0-.98-1.34q-87.86-44.14-405.64-203.48-.16-.09-.35-.09-.2 0-.36.09Q121.82 187.7 33.95 231.82a1.83 1.83 0 0 0-.98 1.34q-3.41 22.12-5.17 43.81-6.78 83.64 2.88 167.22 10.39 89.82 39.01 169.73 68.76 192.02 234.55 307.94 7.01 4.9 16.62 11.14 56.29 36.54 118.55 62.6.12.05.48.05" vector-effect="non-scaling-stroke"></path><path stroke="#78b6a2" d="M440 953.82q.29 0 .49-.08c45.84-19.15 90.05-43.32 130.4-72.29q131.68-94.52 194.82-244.18c25.44-60.29 41.37-125.61 48.55-191.26q8.16-74.58 2.07-149.59-1.64-20.17-4.84-39.57-.08-.5-.54-.73Q597.17 148.94 440.49 70.29q-.29-.14-.6-.14-.3 0-.59.14-156.66 78.69-370.42 185.92-.46.23-.54.73-3.19 19.4-4.83 39.57-6.07 75.01 2.11 149.59c7.19 65.64 23.14 130.96 48.59 191.25q63.17 149.64 194.88 244.13c40.35 28.96 84.57 53.12 130.41 72.26q.2.08.5.08" vector-effect="non-scaling-stroke"></path><path stroke="#78b6a2" d="M529.95 219.18q-1.13 0-.29-.75c6.83-6.17 18.7-9.59 16.45-21.63q-1.55-8.32-10.67-10.61-4.6-1.16-9.71-.2-8.57 1.6-12.02 10.62-.51 1.32.88 1.54l9.94 1.54q.48.08.68-.37 1.8-4.19 6.03-3.47c2.56.44 4.32 2.03 3.46 4.68q-.79 2.47-3.65 4.28c-6.44 4.07-11.13 7.04-14.81 12.76-1.91 2.97-1.33 8.18-1.3 10.91q0 .54.55.54h31.05q.34 0 .34-.33v-9.17q0-.34-.35-.34h-16.58M496.44 211.84q-.64 3.78-2.54 6.04c-2.92 3.49-8.98 2.14-12.37.02q-.27-.17-.43.11l-4.59 7.95a.24.24 0 0 0 .08.32q5.8 3.67 13.2 3.41c12.73-.44 16.96-11.98 17.44-23.02.48-11.01-4.12-21.14-16.58-21q-5.61.06-9.44 2.43-4.9 3.02-6.11 8.51c-1.28 5.84 1.34 12.3 6.48 15.55q7.02 4.44 14.47-.57.49-.33.39.25M571.809 229.89a22.25 18.58 89.9 0 0 18.541-22.282 22.25 18.58 89.9 0 0-18.619-22.218 22.25 18.58 89.9 0 0-18.541 22.282 22.25 18.58 89.9 0 0 18.619 22.218M312.49 220.09q.12 0 .2-.11 7.17-10.37 10.61-15.4.75-1.09.75.23v23.73q0 .48.48.48h10.22q.51 0 .51-.52v-41.58q0-.56-.56-.56h-11.39q-.53 0-.83.45-5.7 8.57-9.8 14.55-.02.03-.1.06-.05.02-.1.02t-.1-.02q-.08-.03-.1-.06-4.1-5.98-9.81-14.54-.3-.45-.83-.45h-11.39q-.56 0-.56.56l.03 41.58q0 .52.51.52h10.22q.48 0 .48-.48l-.02-23.73q0-1.32.75-.23 3.45 5.02 10.62 15.39.08.11.21.11M357.06 196.82a.34.34 0 0 1 .34-.34l17.18.03a.34.34 0 0 0 .34-.34l.01-9.47a.34.34 0 0 0-.34-.34h-28.44a.34.34 0 0 0-.34.34l.01 41.99a.34.34 0 0 0 .34.34h10.57a.34.34 0 0 0 .34-.34l-.01-15.19a.34.34 0 0 1 .34-.34l13.39.04a.34.34 0 0 0 .34-.34l-.01-9.64a.34.34 0 0 0-.34-.34l-13.37-.01a.34.34 0 0 1-.34-.34l-.01-5.71M394.99 200.13a.3.3 0 0 1-.52-.2l-.04-13.27a.3.3 0 0 0-.3-.3h-10.51a.3.3 0 0 0-.3.3v42.07a.3.3 0 0 0 .3.3l10.52-.01a.3.3 0 0 0 .3-.3l-.01-12.13a.3.3 0 0 1 .07-.19l2.28-2.64a.3.3 0 0 1 .46.01l11.51 15.11a.3.3 0 0 0 .24.12l13.12.07a.3.3 0 0 0 .24-.49l-17.82-22.81a.3.3 0 0 1 .01-.39l17.13-18.54a.3.3 0 0 0-.22-.51l-13.92.06a.3.3 0 0 0-.22.1l-12.32 13.64M454.43 200.78v27.83a.42.41 0 0 0 .42.41h9.89a.26.26 0 0 0 .26-.26v-41.83q0-.57-.57-.57h-8.64q-.5 0-.83.38c-2.06 2.34-5.57 5.36-8.75 5.12a.38.37-87.9 0 0-.4.38v9.32q0 .58.58.6 3.78.1 7.38-1.78.66-.34.66.4M438.91 922.73q.24 0 .34-.05 35.33-14.64 69.5-34.14.46-.25.46-.78V449.77a.39.38 90 0 1 .38-.39H649.9a.34.33-90 0 1 .33.34v324.36q0 .7.47.17 61.53-70.33 95.95-158.55 15.9-40.76 25.25-80.49Q798.09 423.8 788 308.5q-1.69-19.4-4.14-32.46-.09-.5-.61-.51-1.1-.03-344.32-.04-343.21-.01-344.31.02-.52.01-.61.51-2.45 13.06-4.14 32.46-10.1 115.3 16.08 226.71 9.35 39.73 25.25 80.49 34.41 88.22 95.93 158.56.47.53.47-.17l.03-324.36a.34.33-90 0 1 .33-.34l140.31.01a.39.38-90 0 1 .38.39l-.03 437.99q0 .53.46.78 34.17 19.5 69.49 34.14.1.05.34.05" vector-effect="non-scaling-stroke"></path><path stroke="#78b6a2" d="M490.727 205.327a5.21 4.97 91.9 0 0 5.14-5.042 5.21 4.97 91.9 0 0-4.794-5.372 5.21 4.97 91.9 0 0-5.14 5.042 5.21 4.97 91.9 0 0 4.794 5.372M571.802 219.71a12.11 7.66 89.8 0 0 7.618-12.137 12.11 7.66 89.8 0 0-7.702-12.083 12.11 7.66 89.8 0 0-7.618 12.137 12.11 7.66 89.8 0 0 7.702 12.083" vector-effect="non-scaling-stroke"></path><path stroke="#80beaa" d="M177.49 349.69c-3.42-2.74-2.43-8.46.45-10.89q2.28-1.93 6.26-2.23 9.29-.7 13.27 7.79.22.48.72.33l17.91-5.33a.25.24 72.2 0 0 .16-.32c-4.4-11.7-13.81-18.04-26.39-18.92q-9.86-.69-16.91 1.47-16.31 4.99-17.28 22.18c-.69 12.22 7.18 21.52 18.65 24.73q3.84 1.08 13.28 3.44c4.53 1.14 9.49 4.54 8.51 9.6-.91 4.66-5.92 6.9-10.39 6.91q-9.17.02-12.99-8.1a.77.77 0 0 0-.92-.41l-17.5 5.2q-.79.23-.56 1.03c3.04 10.82 15.83 17.15 26.12 18.46q5.48.7 11.95.09c13.99-1.32 24.61-9.74 24.46-24.72q-.09-8.85-5.66-15.29-5.47-6.33-12.47-8.28-5.28-1.48-16.66-4.4-1.61-.42-4.01-2.34M547.67 362.77q.05 8.17 2.57 15.33 6.72 19.13 26.52 25.37 4.06 1.28 11.08 1.51c18.03.6 32.44-8.44 39.4-24.83a.57.57 0 0 0-.34-.77l-16.92-5.61a.74.73 22 0 0-.9.38q-5.4 11.19-15.71 12.95-8.9 1.53-15.98-3.31c-6.85-4.66-9.92-12.58-9.98-21.15-.05-8.58 2.91-16.54 9.7-21.28q7.02-4.94 15.94-3.52 10.33 1.62 15.88 12.74a.74.73-22.8 0 0 .9.37l16.85-5.83a.57.57 0 0 0 .33-.78c-7.18-16.29-21.7-25.15-39.73-24.31q-7.01.32-11.05 1.66-19.72 6.49-26.19 25.71-2.43 7.19-2.37 15.37M259.42 350.45a.33.33 0 0 1-.57-.22l.05-28.6a.33.33 0 0 0-.33-.33h-18.29a.33.33 0 0 0-.33.33v81.74a.33.33 0 0 0 .33.33h18.27a.33.33 0 0 0 .33-.33v-25.38a.33.33 0 0 1 .09-.22l5.02-5.44a.33.33 0 0 1 .51.02l24.09 31.22a.33.33 0 0 0 .26.13l22.93-.01a.33.33 0 0 0 .26-.53l-34.99-44.49a.33.33 0 0 1 .02-.43l33.73-36.37a.33.33 0 0 0-.24-.55l-24.22-.03a.33.33 0 0 0-.25.11l-26.67 29.05M367.71 387.94q7.73 0 15.36.01a.78.78 0 0 1 .73.5l5.77 14.85q.15.39.57.39h19.09q.7 0 .45-.64l-31.67-81.52a.33.32 79.3 0 0-.3-.21q-4.98-.02-10.01-.02-5.02 0-10 .02a.33.32-79.4 0 0-.3.21l-31.65 81.53q-.25.64.45.64h19.09q.42 0 .57-.39l5.77-14.86a.78.78 0 0 1 .73-.5q7.63-.01 15.35-.01M449.72 386.11a.36.36 0 0 1-.36-.36v-64.09a.36.36 0 0 0-.36-.36h-18.47a.36.36 0 0 0-.36.36l-.01 81.68a.36.36 0 0 0 .36.36h53.35a.36.36 0 0 0 .36-.36l.01-16.87a.36.36 0 0 0-.36-.36h-34.16M524.82 321.7a.4.4 0 0 0-.4-.4h-18.44a.4.4 0 0 0-.4.4v81.6a.4.4 0 0 0 .4.4h18.44a.4.4 0 0 0 .4-.4v-81.6M684.11 387.94q14.87 0 15.54.05.53.05.71.53l5.45 14.7q.17.48.68.48h19.16q.67 0 .43-.63l-31.57-81.26q-.16-.42-.61-.43-4.69-.08-9.78-.08-5.1 0-9.79.08-.45.01-.61.43l-31.57 81.26q-.24.63.43.63h19.16q.51 0 .68-.48l5.45-14.7q.18-.48.71-.53.67-.05 15.53-.05" vector-effect="non-scaling-stroke"></path><path stroke="#80beaa" d="M358.18 370.7a.32.32 0 0 0 .3.43l18.51-.03a.32.32 0 0 0 .3-.43l-9.3-24.75a.32.32 0 0 0-.6 0l-9.21 24.78M674.56 370.69a.31.31 0 0 0 .29.42h18.54a.31.31 0 0 0 .29-.42l-9.27-24.76a.31.31 0 0 0-.58 0l-9.27 24.76" vector-effect="non-scaling-stroke"></path></g><path fill="#fff" d="M439.22 0q6.82 3.6 13.7 7.03 24.54 12.22 87.27 44.19 9.45 4.82 17.84 9.02 136.87 68.48 247.9 123.93c21.04 10.5 42.48 22.01 61.72 31.51q.86.42 1.48.97.37.33.44.82 7.13 48.76 7.91 98.03.08 5 .52 9.96v19.46q-.58 10.91-.89 21.84-2.39 84.36-21.36 166.97-20.5 89.3-61.77 171.02-3.26 6.45-9.49 17.61-20.98 37.62-46.4 72.48-16.94 23.24-36.45 45.05-6.73 7.52-22.53 24.15-4.62 4.86-10.39 10.25-8.77 8.17-10.69 9.98-26.69 25.29-56.75 47.5-45.09 33.32-94.55 59.74-20.62 11.02-35.64 17.8-25.07 11.31-31.56 14.23-.47.22-.95.01-24.46-10.63-39.85-18.05-72.79-35.11-136.69-84.84-24.21-18.84-55.35-48.8-5.88-5.66-13.84-14.23-4.23-4.56-13.54-14.61-24.04-25.95-47.62-59.68-23.76-33.99-41.17-66.56Q60.68 660.95 41.3 601.7q-3.67-11.25-6.01-19.1Q7 487.53 1.75 386.23.97 371.15 0 356.07v-42.49q.48-3 .56-6.08 1.19-44.3 7.66-88.69.23-1.57 1.01-2.36.92-.92 2.21-1.54c16.87-8.23 34.03-17.49 51.28-26.11Q267.52 86.42 315.26 62.49c10.29-5.16 21.48-11.17 30.76-15.84q33.84-17.01 77.32-38.52 7.7-3.82 15.18-8.13zm.67 995.65q.36 0 .48-.05 62.26-26.05 118.56-62.58 9.61-6.23 16.62-11.13Q741.37 806 810.17 613.99q28.63-79.9 39.04-169.72 9.68-83.58 2.91-167.22-1.75-21.69-5.16-43.81a1.83 1.83 0 0 0-.98-1.34q-87.86-44.14-405.64-203.48-.16-.09-.35-.09-.2 0-.36.09Q121.82 187.7 33.95 231.82a1.83 1.83 0 0 0-.98 1.34q-3.41 22.12-5.17 43.81-6.78 83.64 2.88 167.22 10.39 89.82 39.01 169.73 68.76 192.02 234.55 307.94 7.01 4.9 16.62 11.14 56.29 36.54 118.55 62.6.12.05.48.05"></path><path fill="#007d55" d="M439.99 28.33q.19 0 .35.09Q758.12 187.76 845.98 231.9a1.83 1.83 0 0 1 .98 1.34q3.41 22.12 5.16 43.81 6.77 83.64-2.91 167.22-10.41 89.82-39.04 169.72-68.8 192.01-234.62 307.9-7.01 4.9-16.62 11.13-56.3 36.53-118.56 62.58-.12.05-.48.05t-.48-.05q-62.26-26.06-118.55-62.6-9.61-6.24-16.62-11.14Q138.45 805.94 69.69 613.92q-28.62-79.91-39.01-169.73-9.66-83.58-2.88-167.22 1.76-21.69 5.17-43.81a1.83 1.83 0 0 1 .98-1.34q87.87-44.12 405.68-203.4.16-.09.36-.09m.01 925.49q.29 0 .49-.08c45.84-19.15 90.05-43.32 130.4-72.29q131.68-94.52 194.82-244.18c25.44-60.29 41.37-125.61 48.55-191.26q8.16-74.58 2.07-149.59-1.64-20.17-4.84-39.57-.08-.5-.54-.73Q597.17 148.94 440.49 70.29q-.29-.14-.6-.14-.3 0-.59.14-156.66 78.69-370.42 185.92-.46.23-.54.73-3.19 19.4-4.83 39.57-6.07 75.01 2.11 149.59c7.19 65.64 23.14 130.96 48.59 191.25q63.17 149.64 194.88 244.13c40.35 28.96 84.57 53.12 130.41 72.26q.2.08.5.08"></path><path fill="#efefef" d="M439.89 70.15q.31 0 .6.14 156.68 78.65 370.46 185.83.46.23.54.73 3.2 19.4 4.84 39.57 6.09 75.01-2.07 149.59c-7.18 65.65-23.11 130.97-48.55 191.26q-63.14 149.66-194.82 244.18c-40.35 28.97-84.56 53.14-130.4 72.29q-.2.08-.49.08-.3 0-.5-.08c-45.84-19.14-90.06-43.3-130.41-72.26q-131.71-94.49-194.88-244.13c-25.45-60.29-41.4-125.61-48.59-191.25q-8.18-74.58-2.11-149.59 1.64-20.17 4.83-39.57.08-.5.54-.73Q282.64 148.98 439.3 70.29q.29-.14.59-.14m90.06 149.03q-1.13 0-.29-.75c6.83-6.17 18.7-9.59 16.45-21.63q-1.55-8.32-10.67-10.61-4.6-1.16-9.71-.2-8.57 1.6-12.02 10.62-.51 1.32.88 1.54l9.94 1.54q.48.08.68-.37 1.8-4.19 6.03-3.47c2.56.44 4.32 2.03 3.46 4.68q-.79 2.47-3.65 4.28c-6.44 4.07-11.13 7.04-14.81 12.76-1.91 2.97-1.33 8.18-1.3 10.91q0 .54.55.54h31.05q.34 0 .34-.33v-9.17q0-.34-.35-.34zm-33.51-7.34q-.64 3.78-2.54 6.04c-2.92 3.49-8.98 2.14-12.37.02q-.27-.17-.43.11l-4.59 7.95a.24.24 0 0 0 .08.32q5.8 3.67 13.2 3.41c12.73-.44 16.96-11.98 17.44-23.02.48-11.01-4.12-21.14-16.58-21q-5.61.06-9.44 2.43-4.9 3.02-6.11 8.51c-1.28 5.84 1.34 12.3 6.48 15.55q7.02 4.44 14.47-.57.49-.33.39.25m75.369 18.05a22.25 18.58 89.9 0 0 18.541-22.282 22.25 18.58 89.9 0 0-18.619-22.218 22.25 18.58 89.9 0 0-18.541 22.282 22.25 18.58 89.9 0 0 18.619 22.218m-259.319-9.8q.12 0 .2-.11 7.17-10.37 10.61-15.4.75-1.09.75.23v23.73q0 .48.48.48h10.22q.51 0 .51-.52v-41.58q0-.56-.56-.56h-11.39q-.53 0-.83.45-5.7 8.57-9.8 14.55-.02.03-.1.06-.05.02-.1.02t-.1-.02q-.08-.03-.1-.06-4.1-5.98-9.81-14.54-.3-.45-.83-.45h-11.39q-.56 0-.56.56l.03 41.58q0 .52.51.52h10.22q.48 0 .48-.48l-.02-23.73q0-1.32.75-.23 3.45 5.02 10.62 15.39.08.11.21.11m44.57-23.27a.34.34 0 0 1 .34-.34l17.18.03a.34.34 0 0 0 .34-.34l.01-9.47a.34.34 0 0 0-.34-.34h-28.44a.34.34 0 0 0-.34.34l.01 41.99a.34.34 0 0 0 .34.34h10.57a.34.34 0 0 0 .34-.34l-.01-15.19a.34.34 0 0 1 .34-.34l13.39.04a.34.34 0 0 0 .34-.34l-.01-9.64a.34.34 0 0 0-.34-.34l-13.37-.01a.34.34 0 0 1-.34-.34zm37.93 3.31a.3.3 0 0 1-.52-.2l-.04-13.27a.3.3 0 0 0-.3-.3h-10.51a.3.3 0 0 0-.3.3v42.07a.3.3 0 0 0 .3.3l10.52-.01a.3.3 0 0 0 .3-.3l-.01-12.13a.3.3 0 0 1 .07-.19l2.28-2.64a.3.3 0 0 1 .46.01l11.51 15.11a.3.3 0 0 0 .24.12l13.12.07a.3.3 0 0 0 .24-.49l-17.82-22.81a.3.3 0 0 1 .01-.39l17.13-18.54a.3.3 0 0 0-.22-.51l-13.92.06a.3.3 0 0 0-.22.1zm59.44.65v27.83a.42.41 0 0 0 .42.41h9.89a.26.26 0 0 0 .26-.26v-41.83q0-.57-.57-.57h-8.64q-.5 0-.83.38c-2.06 2.34-5.57 5.36-8.75 5.12a.38.37-87.9 0 0-.4.38v9.32q0 .58.58.6 3.78.1 7.38-1.78.66-.34.66.4m-15.52 721.95q.24 0 .34-.05 35.33-14.64 69.5-34.14.46-.25.46-.78V449.77a.39.38 90 0 1 .38-.39H649.9a.34.33-90 0 1 .33.34v324.36q0 .7.47.17 61.53-70.33 95.95-158.55 15.9-40.76 25.25-80.49Q798.09 423.8 788 308.5q-1.69-19.4-4.14-32.46-.09-.5-.61-.51-1.1-.03-344.32-.04-343.21-.01-344.31.02-.52.01-.61.51-2.45 13.06-4.14 32.46-10.1 115.3 16.08 226.71 9.35 39.73 25.25 80.49 34.41 88.22 95.93 158.56.47.53.47-.17l.03-324.36a.34.33-90 0 1 .33-.34l140.31.01a.39.38-90 0 1 .38.39l-.03 437.99q0 .53.46.78 34.17 19.5 69.49 34.14.1.05.34.05"></path><g fill="#007d55"><path d="M529.95 219.18h16.58q.35 0 .35.34v9.17q0 .33-.34.33h-31.05q-.55 0-.55-.54c-.03-2.73-.61-7.94 1.3-10.91 3.68-5.72 8.37-8.69 14.81-12.76q2.86-1.81 3.65-4.28c.86-2.65-.9-4.24-3.46-4.68q-4.23-.72-6.03 3.47-.2.45-.68.37l-9.94-1.54q-1.39-.22-.88-1.54 3.45-9.02 12.02-10.62 5.11-.96 9.71.2 9.12 2.29 10.67 10.61c2.25 12.04-9.62 15.46-16.45 21.63q-.84.75.29.75M496.05 211.59q-7.45 5.01-14.47.57c-5.14-3.25-7.76-9.71-6.48-15.55q1.21-5.49 6.11-8.51 3.83-2.37 9.44-2.43c12.46-.14 17.06 9.99 16.58 21-.48 11.04-4.71 22.58-17.44 23.02q-7.4.26-13.2-3.41a.24.24 0 0 1-.08-.32l4.59-7.95q.16-.28.43-.11c3.39 2.12 9.45 3.47 12.37-.02q1.9-2.26 2.54-6.04.1-.58-.39-.25m-5.323-6.263a5.21 4.97 91.9 0 0 5.14-5.042 5.21 4.97 91.9 0 0-4.794-5.372 5.21 4.97 91.9 0 0-5.14 5.042 5.21 4.97 91.9 0 0 4.794 5.372"></path><path d="M571.809 229.89a22.25 18.58 89.9 0 1-18.619-22.218 22.25 18.58 89.9 0 1 18.541-22.282 22.25 18.58 89.9 0 1 18.619 22.218 22.25 18.58 89.9 0 1-18.541 22.282m-.007-10.18a12.11 7.66 89.8 0 0 7.618-12.137 12.11 7.66 89.8 0 0-7.702-12.083 12.11 7.66 89.8 0 0-7.618 12.137 12.11 7.66 89.8 0 0 7.702 12.083M312.48 201.44q.05 0 .1-.02.08-.03.1-.06 4.1-5.98 9.8-14.55.3-.45.83-.45h11.39q.56 0 .56.56v41.58q0 .52-.51.52h-10.22q-.48 0-.48-.48v-23.73q0-1.32-.75-.23-3.44 5.03-10.61 15.4-.08.11-.2.11-.13 0-.21-.11-7.17-10.37-10.62-15.39-.75-1.09-.75.23l.02 23.73q0 .48-.48.48h-10.22q-.51 0-.51-.52l-.03-41.58q0-.56.56-.56h11.39q.53 0 .83.45 5.71 8.56 9.81 14.54.02.03.1.06.05.02.1.02M357.06 196.82l.01 5.71a.34.34 0 0 0 .34.34l13.37.01a.34.34 0 0 1 .34.34l.01 9.64a.34.34 0 0 1-.34.34l-13.39-.04a.34.34 0 0 0-.34.34l.01 15.19a.34.34 0 0 1-.34.34h-10.57a.34.34 0 0 1-.34-.34l-.01-41.99a.34.34 0 0 1 .34-.34h28.44a.34.34 0 0 1 .34.34l-.01 9.47a.34.34 0 0 1-.34.34l-17.18-.03a.34.34 0 0 0-.34.34M394.99 200.13l12.32-13.64a.3.3 0 0 1 .22-.1l13.92-.06a.3.3 0 0 1 .22.51l-17.13 18.54a.3.3 0 0 0-.01.39l17.82 22.81a.3.3 0 0 1-.24.49l-13.12-.07a.3.3 0 0 1-.24-.12l-11.51-15.11a.3.3 0 0 0-.46-.01l-2.28 2.64a.3.3 0 0 0-.07.19l.01 12.13a.3.3 0 0 1-.3.3l-10.52.01a.3.3 0 0 1-.3-.3v-42.07a.3.3 0 0 1 .3-.3h10.51a.3.3 0 0 1 .3.3l.04 13.27a.3.3 0 0 0 .52.2M453.77 200.38q-3.6 1.88-7.38 1.78-.58-.02-.58-.6v-9.32a.38.37-87.9 0 1 .4-.38c3.18.24 6.69-2.78 8.75-5.12q.33-.38.83-.38h8.64q.57 0 .57.57v41.83a.26.26 0 0 1-.26.26h-9.89a.42.41 0 0 1-.42-.41v-27.83q0-.74-.66-.4M438.93 275.49q343.22.01 344.32.04.52.01.61.51 2.45 13.06 4.14 32.46 10.09 115.3-16.1 226.71-9.35 39.73-25.25 80.49-34.42 88.22-95.95 158.55-.47.53-.47-.17V449.72a.34.33 90 0 0-.33-.34H509.59a.39.38 90 0 0-.38.39v437.99q0 .53-.46.78-34.17 19.5-69.5 34.14-.1.05-.34.05t-.34-.05q-35.32-14.64-69.49-34.14-.46-.25-.46-.78l.03-437.99a.39.38-90 0 0-.38-.39l-140.31-.01a.34.33-90 0 0-.33.34l-.03 324.36q0 .7-.47.17-61.52-70.34-95.93-158.56-15.9-40.76-25.25-80.49-26.18-111.41-16.08-226.71 1.69-19.4 4.14-32.46.09-.5.61-.51 1.1-.03 344.31-.02m-261.44 74.2c-3.42-2.74-2.43-8.46.45-10.89q2.28-1.93 6.26-2.23 9.29-.7 13.27 7.79.22.48.72.33l17.91-5.33a.25.24 72.2 0 0 .16-.32c-4.4-11.7-13.81-18.04-26.39-18.92q-9.86-.69-16.91 1.47-16.31 4.99-17.28 22.18c-.69 12.22 7.18 21.52 18.65 24.73q3.84 1.08 13.28 3.44c4.53 1.14 9.49 4.54 8.51 9.6-.91 4.66-5.92 6.9-10.39 6.91q-9.17.02-12.99-8.1a.77.77 0 0 0-.92-.41l-17.5 5.2q-.79.23-.56 1.03c3.04 10.82 15.83 17.15 26.12 18.46q5.48.7 11.95.09c13.99-1.32 24.61-9.74 24.46-24.72q-.09-8.85-5.66-15.29-5.47-6.33-12.47-8.28-5.28-1.48-16.66-4.4-1.61-.42-4.01-2.34m370.18 13.08q.05 8.17 2.57 15.33 6.72 19.13 26.52 25.37 4.06 1.28 11.08 1.51c18.03.6 32.44-8.44 39.4-24.83a.57.57 0 0 0-.34-.77l-16.92-5.61a.74.73 22 0 0-.9.38q-5.4 11.19-15.71 12.95-8.9 1.53-15.98-3.31c-6.85-4.66-9.92-12.58-9.98-21.15-.05-8.58 2.91-16.54 9.7-21.28q7.02-4.94 15.94-3.52 10.33 1.62 15.88 12.74a.74.73-22.8 0 0 .9.37l16.85-5.83a.57.57 0 0 0 .33-.78c-7.18-16.29-21.7-25.15-39.73-24.31q-7.01.32-11.05 1.66-19.72 6.49-26.19 25.71-2.43 7.19-2.37 15.37m-288.25-12.32a.33.33 0 0 1-.57-.22l.05-28.6a.33.33 0 0 0-.33-.33h-18.29a.33.33 0 0 0-.33.33v81.74a.33.33 0 0 0 .33.33h18.27a.33.33 0 0 0 .33-.33v-25.38a.33.33 0 0 1 .09-.22l5.02-5.44a.33.33 0 0 1 .51.02l24.09 31.22a.33.33 0 0 0 .26.13l22.93-.01a.33.33 0 0 0 .26-.53l-34.99-44.49a.33.33 0 0 1 .02-.43l33.73-36.37a.33.33 0 0 0-.24-.55l-24.22-.03a.33.33 0 0 0-.25.11zm108.29 37.49q7.73 0 15.36.01a.78.78 0 0 1 .73.5l5.77 14.85q.15.39.57.39h19.09q.7 0 .45-.64l-31.67-81.52a.33.32 79.3 0 0-.3-.21q-4.98-.02-10.01-.02-5.02 0-10 .02a.33.32-79.4 0 0-.3.21l-31.65 81.53q-.25.64.45.64h19.09q.42 0 .57-.39l5.77-14.86a.78.78 0 0 1 .73-.5q7.63-.01 15.35-.01m82.01-1.83a.36.36 0 0 1-.36-.36v-64.09a.36.36 0 0 0-.36-.36h-18.47a.36.36 0 0 0-.36.36l-.01 81.68a.36.36 0 0 0 .36.36h53.35a.36.36 0 0 0 .36-.36l.01-16.87a.36.36 0 0 0-.36-.36zm75.1-64.41a.4.4 0 0 0-.4-.4h-18.44a.4.4 0 0 0-.4.4v81.6a.4.4 0 0 0 .4.4h18.44a.4.4 0 0 0 .4-.4zm159.29 66.24q14.87 0 15.54.05.53.05.71.53l5.45 14.7q.17.48.68.48h19.16q.67 0 .43-.63l-31.57-81.26q-.16-.42-.61-.43-4.69-.08-9.78-.08-5.1 0-9.79.08-.45.01-.61.43l-31.57 81.26q-.24.63.43.63h19.16q.51 0 .68-.48l5.45-14.7q.18-.48.71-.53.67-.05 15.53-.05"></path></g><ellipse fill="#efefef" rx="5.21" ry="4.97" transform="rotate(91.9 148.654 337.503)" data-source="https://football-logos.cc"></ellipse><ellipse fill="#efefef" rx="12.11" ry="7.66" transform="rotate(89.8 181.717 390.68)"></ellipse><path fill="#fff" d="M177.49 349.69q2.4 1.92 4.01 2.34 11.38 2.92 16.66 4.4 7 1.95 12.47 8.28 5.57 6.44 5.66 15.29c.15 14.98-10.47 23.4-24.46 24.72q-6.47.61-11.95-.09c-10.29-1.31-23.08-7.64-26.12-18.46q-.23-.8.56-1.03l17.5-5.2a.77.77 0 0 1 .92.41q3.82 8.12 12.99 8.1c4.47-.01 9.48-2.25 10.39-6.91.98-5.06-3.98-8.46-8.51-9.6q-9.44-2.36-13.28-3.44c-11.47-3.21-19.34-12.51-18.65-24.73q.97-17.19 17.28-22.18 7.05-2.16 16.91-1.47c12.58.88 21.99 7.22 26.39 18.92a.25.24 72.2 0 1-.16.32l-17.91 5.33q-.5.15-.72-.33-3.98-8.49-13.27-7.79-3.98.3-6.26 2.23c-2.88 2.43-3.87 8.15-.45 10.89M567.41 362.64c.06 8.57 3.13 16.49 9.98 21.15q7.08 4.84 15.98 3.31 10.31-1.76 15.71-12.95a.74.73 22 0 1 .9-.38l16.92 5.61a.57.57 0 0 1 .34.77c-6.96 16.39-21.37 25.43-39.4 24.83q-7.02-.23-11.08-1.51-19.8-6.24-26.52-25.37-2.52-7.16-2.57-15.33-.06-8.18 2.37-15.37 6.47-19.22 26.19-25.71 4.04-1.34 11.05-1.66c18.03-.84 32.55 8.02 39.73 24.31a.57.57 0 0 1-.33.78l-16.85 5.83a.74.73-22.8 0 1-.9-.37q-5.55-11.12-15.88-12.74-8.92-1.42-15.94 3.52c-6.79 4.74-9.75 12.7-9.7 21.28M259.42 350.45l26.67-29.05a.33.33 0 0 1 .25-.11l24.22.03a.33.33 0 0 1 .24.55l-33.73 36.37a.33.33 0 0 0-.02.43l34.99 44.49a.33.33 0 0 1-.26.53l-22.93.01a.33.33 0 0 1-.26-.13l-24.09-31.22a.33.33 0 0 0-.51-.02l-5.02 5.44a.33.33 0 0 0-.09.22v25.38a.33.33 0 0 1-.33.33h-18.27a.33.33 0 0 1-.33-.33v-81.74a.33.33 0 0 1 .33-.33h18.29a.33.33 0 0 1 .33.33l-.05 28.6a.33.33 0 0 0 .57.22M367.7 321.3q5.03 0 10.01.02a.33.32 79.3 0 1 .3.21l31.67 81.52q.25.64-.45.64h-19.09q-.42 0-.57-.39l-5.77-14.85a.78.78 0 0 0-.73-.5q-7.63-.01-15.36-.01-7.72 0-15.35.01a.78.78 0 0 0-.73.5l-5.77 14.86q-.15.39-.57.39H326.2q-.7 0-.45-.64l31.65-81.53a.33.32-79.4 0 1 .3-.21q4.98-.02 10-.02m-9.52 49.4a.32.32 0 0 0 .3.43l18.51-.03a.32.32 0 0 0 .3-.43l-9.3-24.75a.32.32 0 0 0-.6 0zM449.72 386.11h34.16a.36.36 0 0 1 .36.36l-.01 16.87a.36.36 0 0 1-.36.36h-53.35a.36.36 0 0 1-.36-.36l.01-81.68a.36.36 0 0 1 .36-.36H449a.36.36 0 0 1 .36.36v64.09a.36.36 0 0 0 .36.36"></path><rect width="19.24" height="82.4" x="505.58" y="321.3" fill="#fff" rx=".4"></rect><path fill="#fff" d="M684.12 321.3q5.09 0 9.78.08.45.01.61.43l31.57 81.26q.24.63-.43.63h-19.16q-.51 0-.68-.48l-5.45-14.7q-.18-.48-.71-.53-.67-.05-15.54-.05-14.86 0-15.53.05-.53.05-.71.53l-5.45 14.7q-.17.48-.68.48h-19.16q-.67 0-.43-.63l31.57-81.26q.16-.42.61-.43 4.69-.08 9.79-.08m-9.56 49.39a.31.31 0 0 0 .29.42h18.54a.31.31 0 0 0 .29-.42l-9.27-24.76a.31.31 0 0 0-.58 0z"></path><g fill="#007d55" data-source="https://football-logos.cc"><path d="m358.18 370.7 9.21-24.78a.32.32 0 0 1 .6 0l9.3 24.75a.32.32 0 0 1-.3.43l-18.51.03a.32.32 0 0 1-.3-.43M674.56 370.69l9.27-24.76a.31.31 0 0 1 .58 0l9.27 24.76a.31.31 0 0 1-.29.42h-18.54a.31.31 0 0 1-.29-.42"></path></g><!-- source: https://football-logos.cc --></svg>