<svg xmlns="http://www.w3.org/2000/svg" style="fill-rule:evenodd" viewBox="7.97 18.48 542.62 594.64"><!-- Source: https://football-logos.cc --><path d="m76.765 170.002-1.693 1.442c-8.047 6.849-15.538 14.319-23.482 21.28 5.19-17.574-4.57-23.13-11.172-24.867l15.184-18.426c-5.198-2.415-11.634-4.987-29.278-2.653 3.06-2.317 6.23-4.506 9.268-6.775 10.588-7.913 20.518-16.559 29.984-25.78a123.4 123.4 0 0 0 15.682-18.62c3.776-5.504 7.098-11.302 10.523-17.028 3.61-6.034 7.415-11.897 11.963-17.276 3.48-4.112 10.89-4.604 14.855-.944 18.664 17.23 28.958 27.17 55.387 29.889 16.821 1.728 32.933-4.526 45.227-15.774-7.49-4.468-15.075-7.815-23.524-10.092-2.383-.64-4.94-1.219-7.439-1.95 11.594-6.73 13.33-12.777 10.624-25.397l24.467 3.588c-3.504-10.231-6.805-10.426-12.24-17.92 3.271.98 6.472 2.22 9.56 3.562 15.7 6.83 29.347 9.249 46.364 9.997 8.227.363 16.49.41 24.712-.112 17.342-1.103 30.385-4.88 46.237-11.774 3.013-1.31 6.07-2.084 9.178-2.602-9.032 6.125-9.993 8.839-15.013 16.793l24.812-.783c-3.389 10.971.406 16.67 10.777 23.097-2.063.482-4.138.892-6.076 1.381-8.005 2.021-15.283 5.012-22.453 9.097l-2.025 1.153 1.438 1.833c9.705 12.36 32.175 15.606 46.885 14.184 14.05-1.358 24.46-5.57 35.187-14.79 6.502-5.589 12.298-11.921 19.057-17.23 4.44-3.488 11.284-1.23 14.633 2.73 4.474 5.287 8.243 11.047 11.815 16.967 3.522 5.836 6.924 11.754 10.781 17.378a125 125 0 0 0 15.919 18.923c9.198 8.962 18.887 17.315 29.41 24.693 4.004 2.807 8.278 5.4 12.228 8.352-18.754-3.544-26.673-.678-30.465 1.386l14.363 18.03c-8.205 5.667-15.033 9.082-10.49 25.7-9.513-8.097-19.384-16.45-28.2-25.295-14.575 21.454-20.39 46.907-15.935 85.726 4.66 40.614 13.5 80.636 17.419 121.35 3.722 38.65-1.434 85.348-21.428 119.26-10.95 18.575-26.169 28.912-44.51 39.305-11.028 6.249-22.36 11.933-33.828 17.32-10.188 4.784-20.477 9.354-30.609 14.256-20.103 9.727-38.467 20.823-55.71 35.083a116 116 0 0 0-12.611 12.138l-1.498 1.677-1.499-1.675a116 116 0 0 0-12.536-12.054c-17.36-14.358-35.945-25.276-56.278-34.851-10.458-4.924-21.073-9.5-31.577-14.324-11.683-5.367-23.213-11.067-34.401-17.407-18.478-10.472-31.704-21.312-42.615-39.82-19.97-33.871-24.973-78.24-21.257-116.846 3.888-40.366 11.264-80.312 14.84-120.711 2.66-30.092-.102-56.511-17.673-81.965z" style="fill:#015aab;fill-opacity:1;fill-rule:evenodd;stroke:none" data-source="https://football-logos.cc"></path><path d="M382.767 88.73q1.404-.076 2.73-.205c14.05-1.358 24.46-5.57 35.187-14.79 6.502-5.589 12.298-11.921 19.057-17.23 3.454-2.713 8.362-1.949 11.948.389v446.277c-9.917 11.799-22.228 19.804-36.408 27.839-10.607 6.01-21.495 11.496-32.514 16.698zM244.923 33.857c7.003 1.346 14.189 2.053 22.102 2.401 8.227.363 16.49.41 24.712-.112 8.06-.512 15.19-1.602 22.109-3.314v550.833a242 242 0 0 0-18.711 14.004 116 116 0 0 0-12.612 12.138l-1.498 1.677-1.499-1.675a116 116 0 0 0-12.536-12.054c-7.137-5.902-14.48-11.225-22.067-16.109zM107.079 58.856c3.725-1.645 8.574-1.22 11.52 1.5 18.664 17.228 28.958 27.17 55.387 29.888q1.002.104 2.015.167v456.717c-10.611-4.943-21.08-10.183-31.267-15.955-15.768-8.935-27.711-18.142-37.655-32.149z" style="fill:#ed2128;fill-opacity:1;fill-rule:evenodd;stroke:none"></path><path d="M267.114 34.252c-18.018-.793-30.376-3.189-45.652-9.834-4.72-2.053-9.785-3.894-14.957-4.953-5.848-1.196-10.44-1.256-15.753.818-6.639 2.592-12.419 7.923-16.06 14.128-5.265 8.969-4.829 16.856.87 23.159 4.194 4.64 9.484 6.096 15.456 7.659 6.782 1.776 14.982 3.7 24.844 9.583-10.908 9.981-27.586 14.88-41.671 13.432-27.162-2.792-37.815-14.213-54.23-29.365-4.892-4.518-13.611-3.772-17.75 1.122-14.312 16.92-17.769 33.038-38.037 52.783-30.738 29.943-42.55 31.568-51.856 45.03-8.13 11.757-4.313 32.514 6.97 41.73 5.941 4.852 13.842 6.081 20.373 3.987 2.059-.657 4.022-1.67 5.72-3.008 11.294-8.89 21.235-18.709 32.026-27.894 3.205 4.648 6.161 9.833 8.485 14.975 10.626 23.513 9.495 46.919 7.807 66.014-3.653 41.306-10.833 79.138-14.837 120.697-3.49 36.254.388 82.207 21.525 118.058 11.13 18.878 24.437 29.826 43.356 40.548 46.568 26.39 81.034 32.529 121.967 66.382a111.7 111.7 0 0 1 12.777 12.36c1.854 2.098 3.478 1.806 5.15-.085a112 112 0 0 1 12.777-12.361c40.935-33.852 73.29-40.072 119.857-66.46 18.917-10.719 34.123-21.156 45.25-40.03 21.136-35.852 25.19-84.222 21.699-120.473-4-41.56-12.698-80.193-17.423-121.387-1.027-8.942-2.21-19.998-1.731-30.755.799-17.93 5.302-36.26 16.129-51.614 9.615 8.184 19.558 18.02 29.56 26.307 2.193 1.818 4.103 3.584 6.646 4.82 7.082 3.45 16.993 2.387 23.806-3.177 10.016-8.18 13.064-25.998 7.936-38.121-1.66-3.93-4.154-7.093-7.207-10.03-8.755-8.414-20.986-12.235-46.646-37.233-20.269-19.743-24.07-36.208-38.381-53.127-4.14-4.894-12.173-7.125-17.41-3.012-17.102 13.432-24.312 28.808-53.195 31.6-12.325 1.191-30.574-1.02-41.104-9.426-1.481-1.181-2.828-2.508-3.99-4.004 1.1-.649 2.24-1.252 3.374-1.842 20.328-10.568 30.05-6.35 37.942-15.23 4.834-5.436 5.784-13.502.525-22.467-4.11-7.002-10.366-12.411-17.796-14.264-8.121-2.024-19.66.01-27.083 3.237-15.663 6.812-27.094 10.438-45.563 11.612-8.003.508-16.506.462-24.495.11m-65.747 4.957a20.77 20.77 0 0 1-.95 14.838c-1.576 3.444-4.356 6.054-7.655 7.506 1.197.302 2.359.592 3.449.885 8.043 2.167 15.17 5.366 22.243 9.313 6.686-8.542 7.436-19.762 3.851-29.305zm-11.766 19.218c3.081-.849 5.77-3.007 7.162-6.051 2.15-4.703 2.005-10.013-.297-14.62l-1.644-3.288 25.492 3.644c-4.57-8.317-12.7-14.579-23.084-15.243-7.319-.47-15.721 7.866-19.072 13.576-3.693 6.292-4.785 12.71.385 18.43 3 3.32 6.546 4.792 11.058 3.552m165.276-19.925-22.07 2.224c-3.834 9.947-1.348 20.863 4.929 29.19 7.47-4.063 15.022-7.484 23.424-9.605a76 76 0 0 1 1.89-.452 17 17 0 0 1-3.13-2.021c-5.684-4.656-7.223-12.394-5.043-19.336M334.9 36.475l26.556-2.677-1.67 3.28c-3.351 6.581-2.3 15.116 4.57 18.928 2.16 1.198 4.401 1.853 6.47 1.684 3.224-.261 5.557-1.926 7.697-4.336 4.683-5.268 3.378-12.111.062-17.764-3.531-6.017-9.076-10.981-15.757-12.494-6.518-1.476-13.876 1.177-19.288 4.645-3.481 2.23-6.45 5.14-8.64 8.734m-118.751-9.901c10.932 9.53 15.463 26.107 9.944 39.89-2.375 5.93-5.268 9.522-10.211 13.392-3.79 2.97-7.8 5.551-12.469 7.566-9.377 4.048-19.938 5.816-29.631 4.821-27.124-2.79-37.745-13.058-56.545-30.412-3.134-2.893-9.227-2.463-11.958.766-4.512 5.336-8.194 11.027-11.772 17.01-3.457 5.779-6.778 11.573-10.592 17.133a124.7 124.7 0 0 1-15.936 18.923c-9.589 9.342-19.464 17.939-30.184 25.95-1.28.955-2.61 1.916-3.96 2.89 5.054-1.026 10.343-.96 15.44.19 14.507 3.27 25.458 14.34 33.104 26.626 17.274 25.63 18.986 52.555 16.324 82.653-3.577 40.418-10.95 80.347-14.84 120.728-3.674 38.16 1.246 82.15 20.988 115.632 10.75 18.236 23.658 28.77 41.875 39.093 11.162 6.325 22.595 11.975 34.249 17.328 10.508 4.827 21.132 9.407 31.594 14.333 20.745 9.77 38.962 20.448 56.702 35.12a117 117 0 0 1 12.754 12.263 117 117 0 0 1 12.83-12.349c17.63-14.58 35.591-25.413 56.114-35.343 10.139-4.905 20.436-9.478 30.63-14.266 11.443-5.375 22.688-11.014 33.692-17.25 18.054-10.23 33.003-20.314 43.77-38.576 19.778-33.547 24.828-79.948 21.16-118.047-3.92-40.713-12.756-80.702-17.415-121.314-2.405-20.958-3.237-46.456 5.355-67.05 4.621-11.083 12.705-23.586 21.694-31.357 8.959-7.747 20.062-12.406 32.862-11.16 1.642.161 3.281.416 4.907.774-1.88-1.247-3.737-2.47-5.478-3.69-10.66-7.474-20.335-15.814-29.66-24.9a126.6 126.6 0 0 1-16.173-19.224c-3.891-5.675-7.29-11.593-10.843-17.477-3.539-5.865-7.195-11.466-11.628-16.707-2.644-3.125-8.31-5.234-11.86-2.448-6.767 5.315-12.494 11.593-18.987 17.174-11.021 9.471-21.785 13.863-36.303 15.266-10.275.992-23.879-.213-34.835-4.926-4.428-1.905-7.888-4.311-10.986-7.265-2.748-2.619-5.202-5.523-7.209-8.695-5.452-8.62-7.424-19.115-4.062-29.085 2.004-5.942 5.568-10.73 10.138-14.323-16.373 7.117-28.86 10.776-46.872 11.92-8.272.526-16.652.48-24.928.115-17.496-.77-31-3.168-47.079-10.162a98 98 0 0 0-3.71-1.53m299.397 138.65-13.38-16.237c-7.716 3.532-14.29 9.522-19.545 16.599 7.472 6.358 14.638 13.052 21.994 19.54-.5-2.068-.615-4.229-.224-6.427 1.073-6.033 5.573-11.1 11.155-13.474m-9.45-17.785 16.46 19.973-3.131.749c-5.33 1.272-10.102 5.757-11.078 11.243-.82 4.612 1.412 9.068 4.504 12.427 1.582 1.72 3.541 3.393 5.669 4.37 6.035 2.772 14.17 1.2 19.146-2.865 8.398-6.86 11.14-22.331 7.02-32.855-1.586-4.052-3.883-6.7-7.424-9.145-4.669-3.223-10.337-5.033-15.935-5.578-5.43-.53-10.518.119-15.23 1.68M43.573 166.854c3.654 1.318 6.798 4.114 8.769 7.408 2.533 4.233 3.103 9.045 1.836 13.628 7.026-6.186 13.872-12.575 21.002-18.642-5.092-7.169-11.49-13.62-19.251-17.545zm5.789 22.476c2.037-4.257 1.97-8.93-.468-13.004-1.896-3.168-5.323-5.905-9.097-6.232l-3.785-.327 16.1-19.743a36 36 0 0 0-4.722-1.412c-9.428-2.125-19.663-.093-27.104 6.22-1.839 1.56-3.281 3.27-4.661 5.268-7.09 10.252-3.219 28.633 6.206 36.331 4.4 3.595 10.767 5.019 16.231 3.408 4.944-1.457 9.14-5.995 11.3-10.51" style="fill:#015aab;fill-opacity:1;fill-rule:evenodd;stroke:none"></path><path d="M109.346 248.97h340.077c4.664 0 8.48 3.8 8.48 8.449v94.23c0 4.647-3.816 8.45-8.48 8.45H109.346c-4.664 0-8.48-3.803-8.48-8.45v-94.23c0-4.649 3.816-8.45 8.48-8.45" style="fill:#fff;fill-opacity:1;fill-rule:evenodd;stroke:none"></path><path d="M109.346 252.184h340.077c2.897 0 5.265 2.355 5.265 5.235v94.23c0 2.88-2.368 5.235-5.265 5.235H109.346c-2.897 0-5.265-2.355-5.265-5.235v-94.23c0-2.88 2.368-5.235 5.265-5.235m82.332 2.812v99.074h257.745c1.35 0 2.452-1.089 2.452-2.421v-94.232c0-1.33-1.101-2.42-2.452-2.42zm-3.216 99.074v-99.074h-79.116c-1.35 0-2.452 1.09-2.452 2.421v94.232c0 1.332 1.103 2.42 2.452 2.42z" style="fill:#015aab;fill-opacity:1;fill-rule:evenodd;stroke:none"></path><path d="M279.384 400.31c42.163 0 76.357 33.77 76.357 75.41s-34.194 75.41-76.357 75.41-76.356-33.77-76.356-75.41 34.193-75.41 76.356-75.41" style="fill:#fff;fill-opacity:1;fill-rule:evenodd;stroke:none" data-source="https://football-logos.cc"></path><path d="M279.384 410.15c36.662 0 66.394 29.363 66.394 65.57 0 36.208-29.732 65.57-66.394 65.57s-66.393-29.362-66.393-65.57 29.73-65.571 66.393-65.571m42.673 53.543 9.15 12.23-9.69 29.678-14.771 4.611-9.975-13.56 9.14-27.779zm12.089 13.58 8.412-.855c-.148 13.19-4.444 25.399-11.655 35.415l-6.23-5.55zm-4.067-38.783-7.265 4.132-25.01-17.861 1.779-8.179a63.3 63.3 0 0 1 30.496 21.908m-8.898 6.885-.124 15.3-15.984 5.129-24.082-17.28v-16.606l14.606-4.814zm-17.031 66.709-8.95 12.372-31.573.072-9.006-12.45 9.75-13.256h30.024zm-9.342 15.55 3.428 7.652a63.9 63.9 0 0 1-18.852 2.83 63.9 63.9 0 0 1-18.865-2.835l3.425-7.577zm-42.792-17.418-14.682-4.582L227.51 476l9.207-12.307 15.398 4.941 9.423 28.64zm-17.862-3.968-6.294 5.57c-7.207-10.018-11.5-22.223-11.645-35.412l8.335.874zm3.549-45.576-.123-15.205 25.499-18.386 14.696 4.844v16.122l-24.54 17.61zm-1.697-18.004-7.31-4.19a63.3 63.3 0 0 1 30.499-21.899l1.74 8.117zM323.404 138.153l.056-.604 7.374-.777 9.669 23.54-9.159 3.095-1.052-2.003c-3.457-6.587-9.143-14.715-17.486-14.666-4.078.022-7.6 1.942-10.24 4.975-3.34 3.838-4.244 9.082-4.44 14.012-.415 10.518 4.877 21.406 16.76 21.406 7.24 0 14.001-5.534 17.4-11.6l1.388-2.478 8.633 5.644-1.149 2.143c-6.192 11.544-17.008 18.765-30.372 18.3-18.348-.638-31.661-13.681-31.174-32.309.147-5.588 1.309-10.927 4.1-15.8 2.712-4.754 6.449-8.526 11.206-11.239 4.855-2.742 10.155-4.01 15.726-4.01 4.165 0 8.717.813 12.76 2.371M244.499 161.79h5.456c2.176 0 2.775-1.95 2.775-3.802v-5.113h10.022V181.5H252.73v-6.218c0-.52-.156-1.33-.331-1.823-.257-.717-2.162-1.305-2.854-1.305h-5.046v14.78c0 1.535.645 1.971 2.131 1.971h4.797v10.188h-31.352v-10.188h4.347c1.67 0 1.944-.119 1.944-1.808v-35.4c0-1.933-.007-2.455-1.944-2.455h-4.347v-10.659h49.658l10.083 18.433-7.943 3.962-1.294-1.968c-4.667-7.103-12.628-12.095-21.325-10.495-2.192.403-4.755 1.058-4.755 3.716z" style="fill:#015aab;fill-opacity:1;fill-rule:evenodd;stroke:none"></path><path d="M222.727 141.235h45.432l8.008 14.636-3.37 1.683c-5.939-9.037-15.27-13.258-24.024-11.647-3.72.684-6.928 2.253-6.928 6.324v12.212h8.11c3.982 0 5.427-3.414 5.427-6.455v-2.46h4.718v23.32h-4.718v-3.566c0-1.027-.318-2.243-.484-2.714-.669-1.87-3.428-3.066-5.353-3.066h-7.7v17.433c0 3.274 2.091 4.622 4.785 4.622h2.143v4.884h-26.046v-4.884h1.695c3.051 0 4.596-1.137 4.596-4.459v-35.4c0-3.693-1.285-5.107-4.596-5.107h-1.695zM325.9 139.959l3.236-.342 7.838 19.089-4.334 1.464c-3.549-6.761-9.906-16.143-19.851-16.086-5.385.033-9.509 2.768-12.224 5.888-3.277 3.766-4.82 8.847-5.089 15.648-.456 11.524 5.554 24.165 19.41 24.165 7.666 0 15.49-5.416 19.714-12.958l4.222 2.76c-5.438 10.136-14.992 17.353-27.943 16.903-16.535-.575-29.073-12.066-28.614-29.59.139-5.326 1.245-10.178 3.749-14.553 2.504-4.387 5.908-7.794 10.212-10.247 4.316-2.44 9.118-3.666 14.418-3.666 5.369 0 11 1.46 15.053 3.695z" style="fill:#fff;fill-opacity:1;fill-rule:nonzero;stroke:none"></path><path d="M120.993 298.719h7.527v1.31h-.236q-.716-.001-.915.033a.7.7 0 0 0-.336.143q-.135.108-.136.222 0 .143.264.584l2.8 4.713 2.99-4.833q.212-.361.212-.497 0-.191-.208-.277c-.139-.061-.439-.087-.905-.087h-.487v-1.311h6.133v1.311q-.759 0-1.021.097c-.269.107-.531.36-.794.764l-4.747 7.29h-3.567l-4.826-7.34q-.297-.44-.453-.561a1.2 1.2 0 0 0-.45-.191c-.194-.046-.472-.065-.845-.06zM142.078 298.223q.861-.001 1.47.364.606.362.607.878 0 .521-.607.886-.609.362-1.47.362c-.573 0-1.066-.12-1.47-.362q-.607-.364-.607-.88 0-.508.624-.878.62-.37 1.453-.37m1.84 3.026v5.013q-.001.36.066.44a.47.47 0 0 0 .245.128q.173.042.789.043h.614v1.308h-7.02v-1.308h.606q.585 0 .755-.039a.44.44 0 0 0 .244-.124q.078-.088.078-.353v-3.238h-1.683v-1.272a24 24 0 0 0 1.722-.116q.824-.09 1.473-.21a10 10 0 0 0 1.03-.272zM155.453 298.555q3.767 0 6.104 1.373 2.333 1.369 2.334 3.52.001 1.443-1.072 2.562c-.708.747-1.692 1.322-2.944 1.728q-1.877.607-4.536.607-3.509-.001-5.747-1.153-2.7-1.39-2.7-3.718 0-2.164 2.367-3.542 2.367-1.375 6.194-1.377m.047 1.506q-1.808 0-2.873.808-1.342 1.017-1.341 2.626c0 1.07.414 1.92 1.25 2.542q1.08.802 2.848.802 1.782 0 2.851-.802 1.262-.954 1.261-2.556 0-1.127-.54-1.893a3.3 3.3 0 0 0-1.46-1.148 5.2 5.2 0 0 0-1.996-.379M170.6 301.25v.9q1.284-.52 2.198-.71a9 9 0 0 1 1.868-.19q1.104 0 1.947.277.845.277 1.232.695.386.418.386 1.183v2.823q0 .36.085.46.087.104.268.15.135.036.818.035h.552v1.308h-6.663v-1.308q.765-.008.85-.02c.19-.033.315-.083.377-.158q.092-.106.093-.467v-2.489c0-.323-.057-.528-.17-.624q-.274-.239-.864-.238-.49.001-1.047.13-.554.128-1.496.527v2.694q-.002.44.158.545.157.1.76.1h.364v1.308h-6.596v-1.308h.328c.52 0 .846-.014.97-.042a.53.53 0 0 0 .284-.143q.098-.101.096-.397v-3.164h-1.678v-1.309q2.039-.15 3.826-.569zM205.022 283.33h29.868v5.2h-.94c-1.891 0-3.106.037-3.63.13-.522.09-.968.275-1.336.57-.355.283-.54.579-.54.882 0 .375.355 1.147 1.047 2.315l11.12 18.706 11.857-19.184c.57-.957.845-1.608.845-1.967q0-.757-.83-1.103c-.553-.24-1.738-.348-3.584-.348h-1.938v-5.201h24.331v5.2c-2 0-3.352.13-4.045.395-1.06.415-2.107 1.425-3.151 3.024l-18.841 28.933h-14.15l-19.147-29.127q-1.176-1.749-1.799-2.233c-.416-.32-1.016-.578-1.784-.753-.769-.184-1.876-.257-3.353-.238zM288.686 281.364c2.276 0 4.23.479 5.83 1.443 1.614.955 2.415 2.122 2.415 3.482 0 1.387-.8 2.555-2.416 3.52-1.6.955-3.553 1.433-5.829 1.433s-4.228-.478-5.828-1.433c-1.615-.965-2.415-2.124-2.415-3.493 0-1.34.83-2.508 2.478-3.482 1.644-.983 3.568-1.47 5.765-1.47m7.307 12.01v19.89c0 .949.077 1.535.262 1.746.184.222.506.386.968.506.46.11 1.506.174 3.137.174h2.43v5.192h-27.852v-5.192h2.4c1.553 0 2.553-.055 2.997-.156q.646-.136.97-.495c.2-.23.307-.699.307-1.397v-12.845h-6.674v-5.054a91 91 0 0 0 6.827-.46c2.185-.237 4.123-.513 5.845-.835 1.108-.211 2.477-.57 4.091-1.075zM341.762 282.687c9.966 0 18.04 1.81 24.223 5.44 6.168 3.62 9.258 8.277 9.258 13.965q0 5.734-4.244 10.171c-2.815 2.97-6.721 5.247-11.69 6.855-4.967 1.608-10.965 2.407-17.993 2.407-9.289 0-16.886-1.525-22.806-4.576-7.153-3.674-10.722-8.59-10.722-14.746 0-5.724 3.139-10.41 9.398-14.058 6.26-3.639 14.457-5.458 24.576-5.458m.185 5.973c-4.784 0-8.583 1.066-11.397 3.206-3.552 2.692-5.322 6.166-5.322 10.419 0 4.245 1.647 7.617 4.953 10.089 2.86 2.123 6.63 3.18 11.304 3.18 4.723 0 8.488-1.057 11.32-3.18 3.336-2.526 4.998-5.908 4.998-10.144 0-2.986-.708-5.486-2.138-7.516-1.43-2.022-3.352-3.538-5.798-4.548-2.43-1.003-5.076-1.506-7.92-1.506M401.866 293.373v3.575c3.4-1.379 6.305-2.317 8.72-2.822a36 36 0 0 1 7.413-.753c2.922 0 5.49.367 7.736 1.102q3.345 1.104 4.89 2.757c1.016 1.103 1.523 2.673 1.523 4.696v11.199c0 .956.107 1.562.34 1.829.229.276.583.469 1.06.598.354.09 1.445.136 3.244.136h2.2v5.192h-26.439v-5.192q3.024-.027 3.37-.082c.754-.129 1.246-.331 1.493-.624.245-.285.368-.9.368-1.857v-9.877c0-1.277-.23-2.094-.677-2.471-.721-.634-1.86-.947-3.43-.947-1.29 0-2.676.175-4.152.515-1.461.34-3.443 1.037-5.936 2.094v10.686c0 1.167.2 1.883.63 2.158.415.269 1.415.405 3.014.405h1.448v5.192h-26.177v-5.192h1.307c2.06 0 3.353-.055 3.844-.165.493-.11.876-.293 1.123-.57.262-.266.384-.788.384-1.58v-12.55h-6.658v-5.193q8.098-.591 15.18-2.259z" style="fill:#015aab;fill-opacity:1;fill-rule:nonzero;stroke:none"></path><path d="m163.736 293.147 8.316-17.948c.848-1.829 3.038-2.662 4.867-1.815a3.645 3.645 0 0 1 1.786 4.838l-8.474 18.287zM142.884 310.52l6.401 13.817 6.403-13.818 6.429 3.557-8.654 18.622-4.194 9.052-.012-.024-.007.013-12.858-27.734zM126.505 275.169l8.398 18.127-6.595 3.213-8.454-18.258a3.676 3.676 0 0 1 1.786-4.867 3.674 3.674 0 0 1 4.865 1.785" style="fill:#ed2128;fill-opacity:1;fill-rule:evenodd;stroke:none" data-source="https://football-logos.cc"></path><!-- source: https://football-logos.cc --></svg>