<svg xmlns="http://www.w3.org/2000/svg" viewBox="116.5 137.48 362.27 566.93"><!-- Source: https://football-logos.cc --><path d="m293.498 704.41-46.091-167.701c-75.592-20.04-130.902-84.16-130.902-160.145 0-46.546 20.76-88.632 54.215-118.87L137.68 137.48h311.36l-31.362 114.311c37.465 30.533 61.093 75.116 61.093 124.772 0 78.955-59.716 145.1-139.852 162.293z" style="fill:#19221d;fill-rule:evenodd" data-source="https://football-logos.cc"></path><path d="m293.497 698.611 153.53-559.595H139.694Z" style="fill:#e3001e;fill-rule:evenodd"></path><path d="M297.638 211.453a179.598 165.11 0 0 1 179.598 165.11 179.598 165.11 0 1 1-179.598-165.11" style="fill:#e3001e;fill-rule:evenodd"></path><path d="m293.494 687.014.311-544.927H143.724Z" style="fill:#fff;fill-rule:evenodd"></path><path d="M252.419 151.428h83.466v56.165c0 1.567-.136 3.131-.4 4.676-3.146 18.49-24.04 33.255-42.255 33.255-20.239 0-40.811-16.882-40.811-37.931z" style="fill:#19221d;fill-rule:evenodd"></path><path d="M254.108 153.117h80.088v54.476c0 11.167-7.324 21.575-17.225 28.347v-17.247l-5.228 1.258-1.782 1.353v3.252l-.693.178v-4.382l-4.615.786v-2.3c8.08-1.168 14.658-7.316 16.34-15.25h2.927v-11.44l1.69-.001-6.924-10.338a1.565 1.565 0 1 0-1.417-.1h-10.526l-2.09 2.71v-7.623l1.56-1.897v-5.027h-2.593l-9.294-11.387a2.211 2.211 0 1 0-1.383.017l-9.447 11.37h-2.852v5.027l1.56 1.897v7.59l-2.065-2.677h-10.525a1.564 1.564 0 1 0-1.417.1l-6.925 10.339h1.69v11.44h3.32c1.543 7.877 7.94 13.994 15.922 15.224v2.386l-4.826-.794v4.543l-1.112-.196v-3.472l-1.822-1.45-5.754-1.09v16.385c-8.585-6.618-14.582-16.45-14.582-27.531Zm42.95 90.499a34 34 0 0 1-3.828.22c-1.598 0-3.201-.114-4.798-.33v-4.052h.979v1.72h1.867v-1.72h.59v1.72h1.866v-1.72h.59v1.72h1.867v-1.72h.867zm-7.875-26.107h8.048v-5.046c0-2.157-.6-4.381-1.715-6.23-.384-.638-.87-1.296-1.428-1.792-.17-.15-.639-.523-.881-.523-.238 0-.712.382-.878.53-.559.504-1.045 1.17-1.43 1.813a12.27 12.27 0 0 0-1.716 6.202zm-21.458-17.379h1.708v-7.33a.863.863 0 0 0-.854-.863.864.864 0 0 0-.854.864zm49.978 0h1.708v-7.33a.863.863 0 0 0-.854-.863.864.864 0 0 0-.854.864zm-21.668-12.295h4.21v-6.138c0-1.16-.942-2.123-2.105-2.123s-2.105.964-2.105 2.123zm-9.596 0h4.21v-6.138c0-1.16-.942-2.123-2.105-2.123s-2.105.964-2.105 2.123zm1.993 49.752v-.513h.979v.513zm.008-2.38q.014-.222.047-.436h.923v.437zm.872-2.303q.048-.06.098-.117v.117zm1.965-1.31q.286-.09.59-.144v1.454h-.59zm2.457-.124q.305.06.59.158v1.276h-.59zm3.268 3.301q.034.213.047.437h-.858v-.437zm.055 2.303v.513h-.866v-.513zm-2.733.513v-.513h-.59v.513zm-2.457 0v-.513h-.59v.513zm2.457-2.38v-.436h-.59v.437zm-2.457 0v-.436h-.59v.437z" style="fill:#e3001e;fill-rule:evenodd"></path><path d="M279.91 200.513h2.592l1.455-1.726-1.513-2.897-.787.934zm4.475-2.233 2.512-2.978-1.513-2.898-2.512 2.979zm2.94-3.486 2.255-2.674-1.513-2.897-2.255 2.674zm2.683-3.181 2.227-2.641-.196-.376h-3.444l-.1.12zm-6.702 8.9h1.552l-.593-1.137zm2.245 0h1.634l1.503-1.782-1.484-2.841-2.512 2.979zm3.565-2.29 2.254-2.673-1.483-2.841-2.255 2.674zm2.682-3.18 2.228-2.641-1.484-2.842-2.227 2.641zm2.655-3.149 2.275-2.697-.313-.601h-3.06l-.385.457zm2.703-3.205.079-.093h-.128zm-9.167 11.824h1.629l-.623-1.193zm2.322 0h1.174l1.53-1.814-1.337-2.56-2.255 2.673zm3.131-2.322 2.228-2.64-1.337-2.561-2.227 2.641zm2.655-3.148 2.275-2.698-1.337-2.56-2.274 2.698zm2.703-3.205 2.333-2.766-.215-.476h-2.88l-.575.682zm-11.06-3.242h-2.186l-.697 1.471.648 1.241 2.254-2.674zm-3.213 2.167-1.84 3.888 2.39-2.835zm7.761 9.75h1.673l-.64-1.226zm2.366 0h1.667l1.198-1.42-1.542-2.954-2.227 2.64zm3.293-1.928 2.275-2.697-1.542-2.954-2.275 2.697zm2.703-3.205 2.168-2.57-1.405-3.117-2.306 2.733zm-3.525 5.133h1.136l-.435-.832zm1.828 0h1.821l1.15-1.364-1.395-2.673-2.275 2.697zm3.4-1.872 2.016-2.391-1.272-2.82-2.14 2.539zm-.775 1.872h1.059l-.405-.776zm1.752 0h2.96l-1.641-3.642-1.99 2.359zM305.44 174.132l.005-3.492h-3.065v2.266h-3.727v-2.266h-3.361v2.266h-3.727v-2.266h-3.31v2.266h-3.728v-2.266h-3.115l.006 3.491z" style="fill:#fff;fill-rule:evenodd"></path><path d="m303.885 193.31-2.47-5.482h-.402v-6.131c0-1.59-1.292-2.89-2.873-2.89-1.58 0-2.873 1.3-2.873 2.89v6.131h-3.85v-6.131c0-1.59-1.293-2.89-2.873-2.89s-2.873 1.3-2.873 2.89v6.131h-.603l-2.096 4.426.006-15.374h20.901zM293.39 159.165l-2.811 3.383 1.01 1.237 1.801-2.169zm.615 2.441 1.807 2.215.948-1.14-2.755-3.376zm-3.826 1.424-1.753 2.11 1.01 1.236 1.752-2.11zm-2.152 2.59-1.637 1.97 1.009 1.237 1.637-1.97zm-2.037 2.452-1.496 1.8h.8v1.488l1.705-2.052zm10.218-3.766 1.752 2.146.947-1.14-1.752-2.146zm2.147 2.631 1.392 1.705.947-1.14-1.391-1.705zm1.787 2.19 1.47 1.8v-1.055h1.017l-1.54-1.886zm-14.695 3.01h2.04v-2.232l-.092-.112zm2.805-2.265h2.533l.359-.432-1.713-2.098-1.636 1.97zm3.292-.913 1.752-2.11-1.712-2.098-1.753 2.11zm2.152-2.591 1.716-2.065-1.712-2.098-1.716 2.065zm-1.407 3.504h.043v.053l1.36 1.665.832-1.003v-.715h.594l.326-.392-1.752-2.146-1.753 2.11zm.043 1.025v1.24h.904l.055-.066zm3.512-1.898 1.716-2.065-1.752-2.147-1.716 2.066zm-1.705 3.139h.385v-.59l-.437.527zm2.417-2.266h2.169l.622-.749-1.391-1.704-1.717 2.065zm2.864.124v2.142h2.192v-.24l-1.87-2.29zM293.61 154.952a1.443 1.443 0 1 1-.001 2.885 1.443 1.443 0 0 1 0-2.885M282.195 191.388h-1.661l.98-1.18zm-2.46 0h-1.08l-.862-1.495 2.09-2.514 1.304 2.261zm-2.269-2.062-1.28-2.22 2.09-2.515 1.28 2.22zm-1.607-2.787-1.29-2.235 1.519-1.827h.968l.892 1.547zm-1.616-2.802-.727-1.26h1.773zm3.703 7.65h-1.394l.823-.99zm-2.193 0h-.19l-1.34-1.919 1.544-1.858 1.28 2.22zm-1.894-2.44-1.437-2.058 1.73-2.082 1.288 2.236zm-1.802-2.58-1.516-2.172 1.428-1.718h.838l1.017 1.763zm-1.88-2.694-.835-1.196h1.828zm7.588-1.196h1.469l-.867 1.043zm2.127.169 1.504 1.95-1.422 1.712-1.28-2.22zm1.889 2.448.423.549v2.773l-.598.72-1.305-2.261zm.423 4.283v.797l-.271-.47zM282.204 202.814h-7.8v-10.658h7.8v1.72l-3.508 7.404h3.508zM313.247 202.82h9.906v-11.44h1.02l-5.833-8.707-6.079 8.707h.989zm3.689-1.922h3.243V192.8c0-.897-.73-1.631-1.622-1.631s-1.621.735-1.621 1.63zM318.075 179.571a.797.797 0 1 0 0 1.594.797.797 0 0 0 0-1.594M304.863 191.388h1.662l-.98-1.18zm2.46 0h1.08l.862-1.495-2.09-2.514-1.304 2.261zm2.27-2.062 1.28-2.22-2.09-2.515-1.28 2.22zm1.607-2.787 1.288-2.235-1.517-1.827h-.969l-.892 1.547zm1.616-2.802.726-1.26h-1.773zm-3.704 7.65h1.395l-.823-.99zm2.193 0h.014l1.42-2.034-1.448-1.743-1.28 2.22zm1.8-2.556 1.436-2.057-1.634-1.967-1.289 2.236zm1.8-2.58 1.516-2.17-1.332-1.604h-.838l-1.017 1.763zm1.881-2.693.755-1.081h-1.653zm-7.493-1.081h-1.468l.867 1.043zm-2.218.06-1.504 1.95 1.513 1.82 1.28-2.22zm-1.889 2.447-.525.681-.008-.007v2.515l.8.963 1.305-2.262zm-.533 4.15v1.39l.473-.82z" style="fill:#fff;fill-rule:evenodd"></path><path d="M304.653 202.814h7.826v-10.658h-7.826v2.856l2.826 6.268h-2.826z" style="fill:#fff;fill-rule:evenodd"></path><path d="M271.984 203.586c1.355 4.81 5.3 8.524 10.22 9.606v-9.61z" style="fill:#e3001e;fill-rule:evenodd"></path><path d="M267.066 203.587c1.521 7.432 7.558 13.233 15.138 14.45v-4.06c-5.358-1.11-9.628-5.169-11.016-10.391z" style="fill:#fff;fill-rule:evenodd"></path><path d="M315.291 203.586c-1.458 4.895-5.58 8.656-10.638 9.66v-9.664z" style="fill:#e3001e;fill-rule:evenodd"></path><path d="M320.21 203.587c-1.655 7.493-7.872 13.328-15.557 14.478v-4.038c5.491-1.034 9.94-5.138 11.434-10.441zM302.707 225.632v-3.128l1.133-1.193.045-20.03h-20.913v20.043l.21.034 1.18 1.262v3.164l1.257.088v-4.424l5.714.03.006 4.408 3.792-.005.01-4.429h5.888v4.28zm-14.292-7.356h9.583v-5.813c0-5.255-3.269-9.312-4.791-9.312s-4.792 4.138-4.792 9.312z" style="fill:#fff;fill-rule:evenodd" data-source="https://football-logos.cc"></path><path d="m283.594 222.922-.414-.446-.007 3.225.42.03zM311.75 220.909l-1.021.776v2.673l1.02-.262zM303.903 222.344l-.428.462v2.78l.428-.025zM274.447 224.43l1.051.185v-2.963l-1.053-.828z" style="fill:#fff;fill-rule:evenodd"></path><path d="M297.825 243.523v-1.284h1.542v1.044q-.771.136-1.542.24m18.379-7.069a48 48 0 0 1-6.423 3.548v-2.897a79 79 0 0 0 6.423-1.093zm-7.037 3.823a45 45 0 0 1-3.972 1.528c-1.684.144-3.371.25-5.06.329v-4.218c3.012-.137 6.039-.364 9.032-.733zm-6.787 2.356q-1.121.286-2.245.507v-.388q1.122-.05 2.245-.119m-14.716.762a38 38 0 0 1-1.426-.25v-.906h1.426zm-2.193-.409a40 40 0 0 1-1.92-.465q.946.096 1.9.168l.02.001zm-5.14-1.477q-.518-.186-1.032-.387v-3.982c2.032.313 4.079.556 6.151.713h.02v4.221a78 78 0 0 1-5.138-.565zm-1.647-.632a43 43 0 0 1-9.226-5.175v-.569c3.068.756 6.131 1.412 9.226 1.91zm19.141.747v-3.802h1.542v3.803zm0-4.416v-1.726c0-.648-.115-1.26-.33-1.818l1.415-.846c.293.712.457 1.503.457 2.357v2.033zm-.59-4.104a4.68 4.68 0 0 0-2.22-2.033l.693-1.522c1.242.571 2.286 1.507 2.937 2.712zm-2.796-2.25a5.7 5.7 0 0 0-1.694-.248c-.524 0-1.02.067-1.483.19l-.688-1.51a6.995 6.995 0 0 1 4.564.032zm-3.764.136a4.73 4.73 0 0 0-2.338 1.979l-1.323-.79c.673-1.192 1.735-2.114 2.987-2.67zm-2.617 2.528a5 5 0 0 0-.394 1.964v1.726h-1.426v-2.033c0-.888.18-1.71.5-2.445zm-.394 4.304v3.803h-1.426v-3.803zm-18.206-3.322v-4.204c1.82.448 3.636.861 5.46 1.227v4.21c-1.823-.368-3.64-.783-5.46-1.233m6.074-2.855a88 88 0 0 0 8.175 1.219v4.22a88 88 0 0 1-8.175-1.228zm8.79 1.277a75 75 0 0 0 1.481.12 6.9 6.9 0 0 0-.332 2.133v2.063a74 74 0 0 1-1.15-.096zm-14.864-3.258v-3.897q1.517.374 3.035.713v3.9a141 141 0 0 1-3.035-.716m3.649-3.05a99 99 0 0 0 7.699 1.379v3.91a99 99 0 0 1-7.7-1.387zm8.313 1.46q2.001.257 4.03.413 2.24.166 4.48.216c-1.741.701-3.16 2.028-3.9 3.74l-.534-.04a77 77 0 0 1-4.076-.419zm-11.962-2.94v-5.468l4.219.803.003 4.605 2.926.516v1.104c-2.39-.442-4.767-.971-7.148-1.56zm7.762.565.926.163v-4.554l4.267.702-.009 4.407 2.732.19v1.239a83 83 0 0 1-7.916-1.04zm8.53.951.637.045v-4.475l4.179.021.006 4.414 4.263-.006v1.442q-.83.013-1.658.02c-2.48.02-4.954-.04-7.427-.218zm9.699-.002h.448l.009-4.428h4.355v4.326l2.888-.17v1.384c-2.563.175-5.132.272-7.7.32zm8.313-.308.937-.055-.028-4.372 3.83-.651v4.462l3.307-.85v1.952c-1.82.281-3.65.5-5.48.675q-1.282.122-2.565.215zm8.66-1.625.093-.024.003-4.144 3.685-.88v6.35a73 73 0 0 1-3.78.713zm3.782 1.93v3.902a79 79 0 0 1-7.116 1.184v-3.905a81 81 0 0 0 7.116-1.18m-7.73 5.16q-1.072.123-2.146.225a129 129 0 0 1-6.728.455c-.735-1.746-2.169-3.091-3.94-3.794 4.241-.082 8.557-.298 12.814-.792zm7.73-.63v4.209q-.98.21-1.963.395v-4.21a73 73 0 0 0 1.963-.394m-2.577 4.716c-2.418.43-4.859.744-7.299.976q-.373.036-.747.068v-4.212a92 92 0 0 0 8.046-1.043zm-8.66 1.097q-2.413.2-4.832.31v-2.123a7 7 0 0 0-.313-2.082c1.713-.074 3.43-.177 5.145-.318zM282.636 176.113h21.585l.998-1.214h-23.581zM273.592 192.148v10.673h-9.905V191.38h-1.02l5.832-8.707 6.079 8.707h-.988v.768zm-6.634 8.75h3.243V192.8c0-.897-.73-1.631-1.622-1.631s-1.621.735-1.621 1.63zM268.61 179.571a.797.797 0 1 1 0 1.594.797.797 0 0 1 0-1.594M290.663 231.839v1.68h1.819v-2.138q.13-.006.263-.007a5 5 0 0 1 .375.014v2.13h1.818v-1.627q.342.179.639.413v1.215h1.013q.16.301.267.638h-1.28v1.665h1.48v.638h-1.48v1.742h1.48v.638h-1.48v1.72h-.639v-1.72h-1.818v1.72h-.638v-1.72h-1.819v1.72h-.638v-1.72h-1.593v-.639h1.593v-1.741h-1.593v-.638h1.593v-1.665h-1.39q.108-.336.27-.639h1.12v-1.293q.299-.22.638-.386m4.275 6.363v-1.742h-1.818v1.742zm-2.456 0v-1.742h-1.819v1.742zm2.456-2.38v-1.665h-1.818v1.665zm-2.456 0v-1.665h-1.819v1.665z" style="fill:#fff;fill-rule:evenodd"></path><path d="M391.244 308.383a1.68 1.68 0 0 0-1.66-.378c-8.229-12.719-19.638-21.62-32.198-26.333a1.58 1.58 0 0 0-.666-1.516c-24.6-16.35-57.625-22.942-89.476-17.084-.693.127-1.28.507-1.38 1.184-6.498.708-11.968 2.063-17.889 4.003-11.109 3.636-21.168 10.01-29.403 17.468-.625-.386-1.49.23-2.056.719-28.986 24.915-39.012 56.539-41.123 90.292-.042.656.203 1.254.786 1.541-2.783 13.747 1.315 28.486 8.464 38.818 9.291 21.008 36.962 53.548 64.293 63.35a.4.4 0 0 0 .213.015c17.288 7.953 40.34 10.733 60.272 7.245.057.015.114.029.18.015 25.744-3.25 59.334-17.894 75.91-37.71a.4.4 0 0 0 .083-.118c13.201-9.92 22.94-26.534 26.294-42.718.724-.016.742-.499.924-1.195 5.426-20.807 4.755-45.931-3.429-68.061-4.053-10.962-10.012-21.79-18.14-29.537" style="fill:#19221d;fill-rule:evenodd"></path><path d="M350.422 319.643c-6.824 8.657-14.016 16.212-21.747 22.903-16.014-4.516-33.45-6.278-50.782-6.77-6.264-8.443-14.047-23.248-17.12-32.123 5.965-9.235 18.537-22.952 34.47-27.318 13.2.148 24.338 2.776 35.973 5.969 7.567 9.408 13.542 22.44 19.205 37.34M291.057 415.324c.575 12.124-3.211 26.234-7.918 37.264-9.17 5.34-26.716 10.832-40.428 12.074-13.587-8.187-27.771-19.153-36.376-32.729.617-13.973 4.327-29.27 10.89-42.402 11.954-1.925 25.328-5 37.309-6.917 10.237 13.874 25.375 24.486 36.523 32.71" style="fill:#fff;fill-rule:evenodd"></path><path d="M364.768 451.24c-9.356 11.962-24.93 19.858-38.073 22.288-15.79-2.295-31.534-9.567-41.713-20.394 4.942-11.963 7.91-24.944 7.965-37.587 15.028-5.013 30.84-13.705 44.344-22.272 11.219 7.194 22.642 12.254 35.194 17.109.104 13.098-2.775 28.512-7.717 40.856M218.132 309.452c12.971-3.911 28.886-6.682 41.7-5.628q.047.12.083.243c1.13 3.288 2.6 6.795 4.296 10.356 1.51 3.221 3.147 6.34 4.846 9.372 2.222 4.003 5.466 8.536 7.775 12.133-8.73 11.752-18.591 28.413-23.062 45.923-12.314 2.177-24.98 4.823-36.443 6.746-10.02-9.161-17.771-21.275-21.376-34.057 5.875-17.53 13.538-32.406 22.181-45.088M400.73 380.487c-6.504 10.243-13.796 21.75-28.517 28.78-11.188-4.363-23.661-10.625-34.74-17.053-1.14-16.233-3.733-33.822-7.296-48.54 7.755-6.69 15.265-14.682 21.932-22.592 15.2 2.417 26.225 5.635 37.605 14.347 6.667 12.148 11.004 28.5 11.017 45.058" style="fill:#fff;fill-rule:evenodd"></path><path d="M217.212 287.5c-.853 5.758-1.294 15.51-.776 21.276-9.33 14.394-16.145 27.397-21.81 43.507-.329.385.97.923.614 1.336-5.457 6.332-13.885 16.511-18.601 22.703 3.529-42.031 16.52-66.923 40.573-88.822M294.745 275.152c13.078.022 25.122 2.47 36.645 5.819 6.207-1.562 15.187-1.7 21.114-1.316-22.56-15.179-61.048-20.36-82.096-15.034 7.727 2.53 17.951 7.019 24.337 10.53M392.121 312.065c1.079 6 .89 15.641-1.08 22.377 6.963 13.426 11.358 29.998 11.251 46.104 3.696 3.894 8.07 16.527 9.895 23.333 6.99-37.578-1.18-70.77-20.066-91.815" style="fill:#fff;fill-rule:evenodd"></path><path d="M373.864 409.535c.958 23.723.271 33.399 1.48 36.827.492 1.398 1.576 1.81 3.256 2.072 1.642.255 3.483.081 7.03.379 13.477-10.093 22.272-26.14 25.911-42.95-1.853-7.234-5.598-18.783-9.876-25.075-7.665 12.076-15.329 22.409-27.8 28.747M283.379 402.996c7.218 3.327 13.786 3.501 26.214-.564 6.731-2.202 16.344-6.057 27.222-10.212-1.275-16.007-3.77-33.749-7.448-48.55-16.58-4.802-33.475-6.567-51.58-7.013-10.043 13.35-17.99 26.763-22.72 44.439 13.786 11.87 21.1 18.577 28.312 21.9M195.155 354.945c-6.3 7.353-12.191 14.265-18.175 22.856 2.25 12.776 5.199 30.202 14.742 39.275 3.323 3.159 8.253 6.682 13.912 13.456.772-15.574 5.16-29.072 10.925-41.602-8.658-8.133-17.963-21.113-21.404-33.985M374.285 322.305c6.172 2.439 12.135 5.507 15.432 12.37 2.19-8.239 2.4-17.845.488-25.094-9.853-14.818-19.793-22.588-34.633-28.093-7.74-1.184-15.504-.998-23.063.23 14.053 8.078 15.267 21.469 24.073 31.173 4.457 4.903 11.207 6.85 17.703 9.414M224.62 300.572c5.402 2.213 11.206.83 17.69.226 5.372-.5 11.299-.685 17.956 1.49 7.77-11.338 19.877-22.577 33.586-26.5-8.355-4.452-16.745-8.12-26.457-10.944-7.005.67-12.788 2.116-19.097 4.182-10.224 3.351-20.743 9.542-29.969 17.924.862 5.967 2.5 12.07 6.29 13.622" style="fill:#4b5f5b;fill-rule:evenodd"></path><path d="m264.888 291.18 17.884-17.336a.55.55 0 0 0 .173-.484.59.59 0 0 0-.301-.425l-15.294-7.683-.534 1.005 14.575 7.32-17.31 16.79zM325.947 346.258l-47.416-5.49-.15 1.126 46.956 5.426 4.631 42.36 1.148-.106-4.662-42.81a.57.57 0 0 0-.507-.506" style="fill:#fff;fill-rule:evenodd"></path><path d="M385.035 449.594c-6.212 1.966-13.53 1.983-19.682 1.959-9.5 11.974-24.308 19.995-39.4 22.745-4.326 4.96-8.822 8.909-15.534 12.698 26.455-3.868 58.438-18.567 74.616-37.402M248.984 479.812c-2.63-4.918-5.065-10.128-6.113-14.353-13.082-8.048-27.392-18.123-36.87-33.155-8.092-4.204-14.392-8.221-20.118-13.903 10.016 20.585 35.554 51.549 63.1 61.41" style="fill:#d4dade;fill-rule:evenodd"></path><path d="M218.098 390.712c-6.117 12.46-9.772 27.043-10.44 40.868 8.436 13.12 22.14 23.734 35.36 31.743 5.197-.5 10.435-1.53 15.487-2.812a125 125 0 0 0 13.368-4.18c1.08-.408 4.43-1.375 3.257-1.288-21.624 1.596-32.87-4.545-42.828-13.81-14.554-13.542-19.797-34.796-14.204-50.521M326.67 472.205c12.752-2.41 26.467-9.662 35.263-19.6-11.63 4.278-21.785 9.443-33.02 11.144-13.559 2.053-30.757-1.106-42.402-10.904 10.306 10.606 25.652 17.209 40.158 19.36M372.158 407.843c-12.322-6.4-16.46-10.45-21.665-16.077-9.599-10.381-11.542-25.713-17.21-40.405 1.54 7.488 2.752 15.3 3.714 22.854.729 5.72 1.311 11.464 1.728 17.216a296 296 0 0 0 11.934 6.527c6.986 3.614 14.175 7.002 21.499 9.885M328.349 341.1c-7.148-4.317-17.276-6.35-26.276-7.706-5.39-.812-10.375-1.382-14.074-2.054-7.435-1.35-9.122-5.965-12.687-11.515-3.539-5.507-7.672-12.35-13.093-15.998.916 2.558 2.01 5.086 3.147 7.547a162 162 0 0 0 4.7 9.337c1.417 2.61 2.9 5.19 4.464 7.715 1.275 2.06 2.61 4.103 4.038 6.063 16.66.503 33.686 2.159 49.78 6.61M197.317 354.571c3.57 12.352 11.021 23.884 20.425 32.633 11.689-1.978 23.303-4.526 34.976-6.607-16.201-.66-28.234 1.213-40.431-5.172-7.812-4.089-9.823-12.183-14.97-20.854M215.48 290.896c-6.016 5.736-11.524 11.941-16.278 18.789-6.211 8.946-10.84 18.583-14.181 28.941-3.483 10.795-5.504 22.069-6.666 33.355a510 510 0 0 1 6.87-8.48 648 648 0 0 1 8.43-10.04c-2.378-3.899-3.15-6.383-3.486-10.17-1.8-20.282 18.673-44.34 25.312-52.395" style="fill:#f0f2f3;fill-rule:evenodd"></path><path d="m175.55 349.014-3.608-7.07 2.707-6.21 7.62-2.13-2.427 5.566-3.774.878 1.925 3.362zm-14.037-11.663q.77.201 1.357.05.585-.15 1.066-.526.906-.73 1.5-2.094.644-1.476.543-2.332-.102-.855-.862-1.187-.76-.33-1.55.135-.792.466-1.65 1.399a27 27 0 0 0-1.792 2.192 66 66 0 0 1-1.996 2.555 27 27 0 0 1-2.26 2.439q-1.2 1.144-2.61 1.836a8 8 0 0 1-3.017.803q-1.607.11-3.468-.702-2.393-1.043-3.747-2.76a9 9 0 0 1-1.777-3.907q-.424-2.19.011-4.794t1.657-5.406q1.171-2.688 2.87-4.561 1.698-1.873 3.637-2.898 1.938-1.024 3.978-1.194a8.7 8.7 0 0 1 3.935.567l-3.731 8.556q-1.56-.363-2.81.533a4.4 4.4 0 0 0-1.04.988 6 6 0 0 0-.749 1.25q-.743 1.704-.668 2.931.076 1.226 1.063 1.658 1.026.447 2.08-.467 1.054-.915 2.25-2.466l2.601-3.373a17.5 17.5 0 0 1 3.113-3.148 9.4 9.4 0 0 1 3.808-1.787q2.099-.459 4.72.684 2.165.943 3.429 2.554a8.44 8.44 0 0 1 1.662 3.653q.397 2.043.007 4.442t-1.513 4.973q-1.239 2.84-2.83 4.624-1.591 1.785-3.388 2.69a9.35 9.35 0 0 1-3.72 1.015 11.2 11.2 0 0 1-3.807-.444zM160.887 378.91l1.549 9.625-9.532 1.534 10.89 6.908 1.819 11.296-12.813-8.941-16.459 14.823-1.857-11.54 10.605-8.945-2.78-1.895-9.328 1.5-1.55-9.623zM155.234 454.799l23.586-18.271 14.165 18.286-5.503 4.263-8.196-10.58-4.291 3.325 6.526 8.424-5.503 4.263-6.526-8.424-8.288 6.42zM407.21 463.61q-.609-.45-1.177-.525a2.7 2.7 0 0 0-1.124.086q-1.057.323-2.062 1.312-1.089 1.072-1.302 1.861t.338 1.35q.55.56 1.412.43.861-.132 1.947-.648a26 26 0 0 0 2.353-1.296 63 63 0 0 1 2.66-1.542q1.393-.764 2.853-1.346a9.9 9.9 0 0 1 2.946-.693q1.485-.111 2.94.36 1.452.473 2.804 1.845 1.737 1.766 2.32 3.755.584 1.99.183 4.067-.402 2.077-1.706 4.216-1.305 2.138-3.371 4.172-1.983 1.95-4.14 2.999-2.157 1.048-4.226 1.263-2.07.216-3.924-.357a8.3 8.3 0 0 1-3.263-1.89l6.312-6.211q1.242.871 2.66.525a4.2 4.2 0 0 0 1.266-.501 5.6 5.6 0 0 0 1.102-.836q1.256-1.238 1.624-2.343.368-1.107-.349-1.835-.744-.757-1.996-.325-1.251.432-2.853 1.374l-3.482 2.048a16.6 16.6 0 0 1-3.854 1.67 8.9 8.9 0 0 1-3.983.225q-2.01-.338-3.912-2.271-1.572-1.597-2.115-3.462a8 8 0 0 1-.17-3.803q.373-1.94 1.566-3.912 1.192-1.972 3.09-3.841 2.095-2.062 4.127-3.069t3.934-1.17a8.9 8.9 0 0 1 3.633.424q1.73.585 3.194 1.738zM441.913 451.81l-25.233-12.814 10.415-20.506 5.887 2.99-6.227 12.262 3.61 1.833 5.269-10.376 5.887 2.99-5.269 10.376 3.96 2.011 6.476-12.75 5.888 2.99zM445.194 396.95l.362-3.626q.214-2.144-.261-3.314-.477-1.17-1.962-1.318-1.486-.148-2.313.813-.827.96-.99 2.598l-.429 4.289zm6.18.617 9.817.98-.919 9.201-28.16-2.811 1.323-13.256q.351-3.509 1.077-5.838t1.85-3.694 2.711-1.836q1.588-.471 3.622-.268 2.425.242 4.209 1.562t2.204 3.842q.539-1.049 1.039-1.904a4.05 4.05 0 0 1 1.323-1.384q.823-.529 2.147-.73 1.324-.203 3.436.007 1.369.137 2.307.23.939.095 1.533.075.595-.02.869-.189.274-.17.316-.598l.86.086-.93 9.318q-.489.147-1.793.155-1.305.007-3.181-.18-1.369-.136-2.324-.074t-1.573.532-.972 1.42-.51 2.547zM461.201 357.352l-27.572 6.376-5.182-22.408 6.434-1.487 3.098 13.399 3.945-.913-2.622-11.337 6.433-1.488 2.622 11.338 4.327-1-3.222-13.934 6.434-1.488zM435.929 308.158l-1.087-1.63q-1.783-2.674-4.243-3.105t-5.797 1.792q-1.83 1.222-2.834 2.338t-1.25 2.27q-.248 1.154.203 2.43.45 1.278 1.471 2.81l.978 1.467zm-30.696 7.901 7.497.702 3.599 5.323-2.164 7.186-3.226-4.771 1.213-3.47-3.67-.166zm41.32-3.87-23.548 15.698-6.868-10.302q-1.89-2.835-2.73-5.549-.84-2.712-.516-5.236.325-2.525 1.886-4.79t4.471-4.205q3.336-2.223 6.245-2.892 2.908-.667 5.467-.019 2.558.65 4.76 2.5 2.204 1.852 4.094 4.688z" style="fill:#fff;fill-rule:evenodd" data-source="https://football-logos.cc"></path><!-- source: https://football-logos.cc --></svg>