<svg xmlns="http://www.w3.org/2000/svg" xml:space="preserve" id="Layer_1" x="0" y="0" version="1.1" viewBox="3.14 2.31 78.53 89.28"><!-- Source: https://football-logos.cc --><style data-source="https://football-logos.cc">.st1{fill:#007330}.st2{fill:#fd0}</style><path d="M81.54 12.28c1.14 26.21-4.98 55.36-39.15 79.3C4.57 65.15 2.38 32.78 3.28 12.28a81.74 81.74 0 0 1 78.26 0" style="fill:#ffd632"></path><path d="M75.79 28.15C74.63 53.11 62.06 73.52 42.3 87.06 22.54 73.52 10 53.09 8.84 28.15a69.97 69.97 0 0 1 66.95 0" class="st1"></path><path d="M71.85 30.47C70.81 52.99 60.13 72.69 42.3 84.92 24.47 72.7 13.82 52.98 12.78 30.47c18.77-9.41 40.65-9.41 59.07 0" class="st2" data-source="https://football-logos.cc"></path><path d="M17.18 29.34v4.07h.72v-1.86h1.08v-.46H17.9V29.8h1.2v-.46zM19.64 29.34v2.87c0 .43.03.64.13.8.18.31.54.45 1.11.45.91 0 1.23-.3 1.23-1.17v-2.95h-.71v2.95c0 .52-.1.65-.51.65-.43 0-.54-.14-.54-.73v-2.87zM22.49 29.34v.48h.84v3.59h.7v-3.59h.81v-.48zM25.22 29.34v4.07h.95c.85 0 1.26-.36 1.26-1.11 0-.56-.18-.78-.75-.96.51-.14.67-.37.67-.95 0-.71-.38-1.06-1.15-1.06h-.98zm.68 1.79v-1.35c.05-.01.09-.01.14-.01.4 0 .61.23.61.66 0 .51-.18.7-.7.7zm0 .44c.57 0 .78.18.78.68 0 .54-.16.68-.78.7zM28.89 29.34l-1.16 4.07h.69l.21-.79h1.06l.2.79h.71l-1.15-4.07zm.69 2.85h-.86l.14-.52c.15-.62.23-1 .3-1.54.06.41.17 1.04.26 1.41zM31.01 29.34v4.07h1.9v-.47h-1.18v-3.6zM34.56 29.29c-.99 0-1.37.55-1.37 1.99 0 1.62.37 2.18 1.43 2.18.97 0 1.36-.56 1.36-1.99 0-1.63-.36-2.18-1.42-2.18m.04.49c.21 0 .36.08.46.24.11.19.17.68.17 1.51 0 .4-.03.76-.08.98-.07.31-.25.45-.55.45-.49 0-.64-.35-.64-1.51 0-.79.03-1.13.12-1.34.09-.23.25-.33.52-.33M36.08 29.34l1.03 4.07h.57l1.05-4.07h-.67l-.34 1.5c-.02.11-.03.13-.1.49l-.04.21c-.06.27-.02.1-.11.52-.04.2-.03.16-.06.34-.07-.43-.06-.32-.2-1.09l-.04-.19-.02-.09-.02-.09-.02-.09-.32-1.5h-.71zM38.92 29.34l1.11 2.32v1.75h.72v-1.75l.93-2.32h-.75l-.3.92c-.06.19-.01.03-.15.51-.02.09-.06.23-.1.45-.06-.29-.1-.38-.26-.8-.03-.07-.06-.13-.08-.19l-.35-.88h-.77zm1.89-1.14-.75.56.26.22.87-.46zM43.43 29.34v4.07h.72v-2.1l1 2.1h.81l-1.14-2.1 1.05-1.97h-.72l-1 1.97v-1.97zM46.4 29.34v4.07h1.9v-.47h-1.18v-3.6zM48.74 29.34v2.87c0 .43.03.64.13.8.18.31.55.45 1.11.45.91 0 1.23-.3 1.23-1.17v-2.95h-.71v2.95c0 .52-.1.65-.51.65-.43 0-.54-.14-.54-.73v-2.87zM52.01 29.34v4.07h.95c.85 0 1.26-.36 1.26-1.11 0-.56-.18-.78-.75-.96.51-.14.67-.37.67-.95 0-.71-.38-1.06-1.15-1.06h-.98zm.68 1.79v-1.35c.05-.01.09-.01.14-.01.4 0 .61.23.61.66 0 .51-.18.7-.7.7zm0 .44c.57 0 .78.18.78.68 0 .54-.16.68-.78.7zM56.56 29.34v.47h.53v3.6h.69v-4.07zM60.01 33.41l.02-.03.02-.04.02-.03s.09-.14.19-.3c.22-.35.14-.23.24-.38.47-.81.62-1.26.62-1.95 0-.99-.33-1.38-1.15-1.38-.81 0-1.14.39-1.14 1.35 0 .84.29 1.22.92 1.22.22 0 .34-.04.55-.16-.26.49-.3.54-.81 1.32l-.14.21s-.02.04-.08.12l-.03.06h.77zm-.04-3.62c.3 0 .45.25.45.77 0 .58-.13.81-.45.81-.33 0-.46-.23-.46-.81.01-.52.15-.77.46-.77M63.01 29.29c-.43 0-.78.18-.95.5-.18.33-.26.79-.26 1.58 0 .8.07 1.24.26 1.59.17.32.52.5.95.5s.78-.18.95-.5c.18-.35.26-.79.26-1.58 0-.81-.07-1.24-.26-1.59-.17-.32-.52-.5-.95-.5m-.01.49c.36 0 .48.4.48 1.6s-.12 1.6-.48 1.6c-.37 0-.49-.4-.49-1.6.01-1.2.13-1.6.49-1.6M66.57 31.2c.42-.14.58-.38.58-.91 0-.7-.34-1-1.11-1s-1.11.31-1.11 1c0 .52.16.77.59.91-.48.13-.63.37-.63 1.02 0 .85.36 1.23 1.15 1.23s1.15-.38 1.15-1.23c0-.65-.15-.89-.62-1.02m-.53-1.44c.25 0 .39.2.39.57 0 .4-.14.63-.39.63s-.39-.23-.39-.63c-.01-.36.14-.57.39-.57m0 1.74c.31 0 .44.23.44.8 0 .46-.14.68-.44.68s-.44-.22-.44-.68c-.01-.58.12-.8.44-.8M17.11 34.22s-.17 30.14 25.2 51.1c25.37-20.96 25.03-51.1 25.03-51.1z" class="st1"></path><path d="m27.84 39.8.86 2.34 2.53-.45-1.67 1.89 1.67 1.89-2.53-.46-.86 2.35-.86-2.35-2.54.46 1.68-1.89-1.68-1.89 2.54.45zM57.07 39.8l.86 2.34 2.53-.45-1.67 1.89 1.67 1.89-2.53-.46-.86 2.35-.86-2.35-2.54.46 1.68-1.89-1.68-1.89 2.54.45zM44.16 68.25V56.52h5.67c3.73 0 5.99.98 5.99.98-.51-2.93 0-5.65 0-5.65-2.4 1.02-6.04 1.11-6.04 1.11h-5.62v-9.25c2.67-.13 4.43.62 4.43.62-.37-2.49 0-4.8 0-4.8-2.44.76-4.47.62-4.47.62.14-1.42.14-3.56.14-3.56-1.06.13-1.98.09-1.98.09s-.92.04-1.98-.09c0 0 0 2.13.14 3.56 0 0-2.03.13-4.47-.62 0 0 .37 2.31 0 4.8 0 0 1.75-.76 4.43-.62v9.25h-5.62s-3.64-.09-6.04-1.11c0 0 .51 2.71 0 5.65 0 0 2.26-.98 5.99-.98h5.67v11.74s.25 3.17-1.18 4.02c-1.43.84-1.81.81-2.36 1.35-.55.53-.37 1.53 0 1.97s.92 1.11.88 1.87c0 0 .69-.73-.18-1.82-.74-.93.92-2.21 1.7-1.13.56.78.1 1.93.1 1.93s-.78 1.33.55 2.4c1.34 1.07 1.2.76 1.52 1.42 0 0 .22-.45-.6-1.25-.86-.83-.58-2.23-.07-2.8.51-.58 1.1-.65 1.73-.26.67.41.41 1.16.32 1.65s-.09.93.09 1.42.55 1.11.46 1.87c0 0 .75-.43.32-1.42s-.28-1.42 0-1.82.74-.84.65-1.73.6-1.56 1.25-1.51c.65.04 1.34.71 1.2 1.51-.18.77-.78 1.04-.78 1.62s-.21 1.25-.45 1.38c0 0 .49-.22 1-1.16.48-.89 1.04-1.09 1.04-1.09s.73-.75.62-1.8c-.08-.75-.92-1.42-.92-1.42s-1.98-.71-2.54-1.65c-.54-.93-.59-3.56-.59-3.56" class="st2"></path><path d="m18.78 21.71-.84-8.78-2.78 1.24-.93 3.91c-.2.81-.27 1.29-.35 2.02l-.01.01c-.08-.7-.17-1.14-.3-1.6l-.89-3.23-2.88 1.28-.9 9.55 2.36-1.05.18-3.73c.03-.59.04-1.09.04-1.91l.01-.01c.07.78.17 1.25.3 1.7l.97 3.27 2-.89 1.12-4.3c.14-.55.21-1.04.31-1.86l.01-.01c0 .79.03 1.25.07 1.81l.22 3.59zm57.18 4.42-2.77-10.38-2.44-1.09-2.94 7.84 2.47 1.1.5-1.54 2.17.96.46 1.98zm-3.5-5.12-1.18-.53.37-1.33c.16-.55.22-1.02.25-1.35.01.35.08.91.17 1.36zm-5.34 1.23v-9.15l-2.23-.67v2.84c0 .6.01 1.51.08 2.07-.22-.68-.5-1.41-.76-1.97l-1.67-3.63-2.26-.67v9.15l2.23.67v-2.57c0-1.13-.08-1.99-.13-2.36.2.65.47 1.39.71 1.93l1.61 3.66zM59 19.85V10.7l-2.4-.47v9.15zm-3.43-2.71-3.11-.46V9.47l-2.38-.3v9.15l5.5.8zm-6.59 1.06V9.05l-2.4-.08v9.15zm-3.57-2.16-3.59.01 3.54-5.43V8.85h-2.39l1.4-1.01-.59-1-1.43.74-1.48-.75-.54.99 1.46 1.03h-2.53l-.01 1.9h3.32l-3.59 5.45v1.79h6.42zM35.2 18.21l-2.86-4.49 2.4-4.58-2.91.48-2.02 4.56 2.3 4.54zm-5.42.89V9.95l-2.35.39v9.15zm-4.71-9.36-.59-.84-1.43 1.13-1.48-.35-.54 1.14 1.49.64c-1.68.7-2.84 2.13-2.84 3.73 0 1.58.91 2.07 2.23 2.05l1.08-.01c.63-.01.92.09.92.5 0 .5-.37.94-1.29 1.19-.93.25-1.92.16-2.57-.05l-.83 2.06c.92.24 1.99.29 3.37-.08 2.38-.64 4-2.23 4-4.42 0-1.84-1.42-1.9-2.4-1.89l-.93.01c-.68.01-.89-.23-.89-.53 0-.37.33-.74.93-.91.63-.17 1.44-.15 2.06.09l1.13-1.97c-.72-.3-1.72-.35-2.81-.12z" class="st1" data-source="https://football-logos.cc"></path><!-- source: https://football-logos.cc --></svg>