<svg xmlns="http://www.w3.org/2000/svg" viewBox="0 0 260.66 383"><!-- Source: https://football-logos.cc --><defs data-source="https://football-logos.cc"><linearGradient id="a" x1="-.259" x2="1.068" y1="0" y2="0" gradientTransform="rotate(-150 314.039 349.582)scale(293.97756)" gradientUnits="userSpaceOnUse"><stop offset="0" style="stop-color:#d7bb81;stop-opacity:1"></stop><stop offset=".125" style="stop-color:#d7bb81;stop-opacity:1"></stop><stop offset=".188" style="stop-color:#d7bb81;stop-opacity:1"></stop><stop offset=".195" style="stop-color:#d7bb81;stop-opacity:1"></stop><stop offset=".199" style="stop-color:#d7ba80;stop-opacity:1"></stop><stop offset=".203" style="stop-color:#d7ba7f;stop-opacity:1"></stop><stop offset=".207" style="stop-color:#d6b97e;stop-opacity:1"></stop><stop offset=".211" style="stop-color:#d6b97d;stop-opacity:1"></stop><stop offset=".215" style="stop-color:#d6b87c;stop-opacity:1"></stop><stop offset=".219" style="stop-color:#d6b87b;stop-opacity:1"></stop><stop offset=".223" style="stop-color:#d5b77a;stop-opacity:1"></stop><stop offset=".227" style="stop-color:#d5b779;stop-opacity:1"></stop><stop offset=".23" style="stop-color:#d5b678;stop-opacity:1"></stop><stop offset=".234" style="stop-color:#d4b677;stop-opacity:1"></stop><stop offset=".238" style="stop-color:#d4b577;stop-opacity:1"></stop><stop offset=".242" style="stop-color:#d4b576;stop-opacity:1"></stop><stop offset=".246" style="stop-color:#d3b475;stop-opacity:1"></stop><stop offset=".25" style="stop-color:#d3b474;stop-opacity:1"></stop><stop offset=".254" style="stop-color:#d3b373;stop-opacity:1"></stop><stop offset=".258" style="stop-color:#d3b372;stop-opacity:1"></stop><stop offset=".262" style="stop-color:#d2b271;stop-opacity:1"></stop><stop offset=".266" style="stop-color:#d2b270;stop-opacity:1"></stop><stop offset=".27" style="stop-color:#d2b170;stop-opacity:1"></stop><stop offset=".273" style="stop-color:#d1b16f;stop-opacity:1"></stop><stop offset=".277" style="stop-color:#d1b06e;stop-opacity:1"></stop><stop offset=".281" style="stop-color:#d1b06d;stop-opacity:1"></stop><stop offset=".285" style="stop-color:#d1af6c;stop-opacity:1"></stop><stop offset=".289" style="stop-color:#d0af6b;stop-opacity:1"></stop><stop offset=".293" style="stop-color:#d0ae6a;stop-opacity:1"></stop><stop offset=".297" style="stop-color:#d0ae6a;stop-opacity:1"></stop><stop offset=".301" style="stop-color:#cfad69;stop-opacity:1"></stop><stop offset=".305" style="stop-color:#cfad68;stop-opacity:1"></stop><stop offset=".309" style="stop-color:#cfac67;stop-opacity:1"></stop><stop offset=".313" style="stop-color:#ceac66;stop-opacity:1"></stop><stop offset=".316" style="stop-color:#ceab65;stop-opacity:1"></stop><stop offset=".32" style="stop-color:#ceab65;stop-opacity:1"></stop><stop offset=".324" style="stop-color:#ceaa64;stop-opacity:1"></stop><stop offset=".328" style="stop-color:#cdaa63;stop-opacity:1"></stop><stop offset=".332" style="stop-color:#cda962;stop-opacity:1"></stop><stop offset=".336" style="stop-color:#cda961;stop-opacity:1"></stop><stop offset=".34" style="stop-color:#cca861;stop-opacity:1"></stop><stop offset=".344" style="stop-color:#cca860;stop-opacity:1"></stop><stop offset=".348" style="stop-color:#cca85f;stop-opacity:1"></stop><stop offset=".352" style="stop-color:#cca75e;stop-opacity:1"></stop><stop offset=".355" style="stop-color:#cba75d;stop-opacity:1"></stop><stop offset=".359" style="stop-color:#cba65d;stop-opacity:1"></stop><stop offset=".363" style="stop-color:#cba65c;stop-opacity:1"></stop><stop offset=".367" style="stop-color:#caa55b;stop-opacity:1"></stop><stop offset=".371" style="stop-color:#caa55a;stop-opacity:1"></stop><stop offset=".375" style="stop-color:#caa459;stop-opacity:1"></stop><stop offset=".379" style="stop-color:#caa459;stop-opacity:1"></stop><stop offset=".383" style="stop-color:#c9a358;stop-opacity:1"></stop><stop offset=".387" style="stop-color:#c9a357;stop-opacity:1"></stop><stop offset=".391" style="stop-color:#c9a256;stop-opacity:1"></stop><stop offset=".395" style="stop-color:#c8a255;stop-opacity:1"></stop><stop offset=".398" style="stop-color:#c8a155;stop-opacity:1"></stop><stop offset=".402" style="stop-color:#c8a154;stop-opacity:1"></stop><stop offset=".406" style="stop-color:#c8a053;stop-opacity:1"></stop><stop offset=".41" style="stop-color:#c7a052;stop-opacity:1"></stop><stop offset=".414" style="stop-color:#c7a052;stop-opacity:1"></stop><stop offset=".418" style="stop-color:#c79f51;stop-opacity:1"></stop><stop offset=".422" style="stop-color:#c79f50;stop-opacity:1"></stop><stop offset=".426" style="stop-color:#c69e4f;stop-opacity:1"></stop><stop offset=".43" style="stop-color:#c69e4f;stop-opacity:1"></stop><stop offset=".434" style="stop-color:#c69d4e;stop-opacity:1"></stop><stop offset=".438" style="stop-color:#c59d4d;stop-opacity:1"></stop><stop offset=".441" style="stop-color:#c59c4c;stop-opacity:1"></stop><stop offset=".445" style="stop-color:#c59c4c;stop-opacity:1"></stop><stop offset=".449" style="stop-color:#c59b4b;stop-opacity:1"></stop><stop offset=".453" style="stop-color:#c49b4a;stop-opacity:1"></stop><stop offset=".457" style="stop-color:#c49b49;stop-opacity:1"></stop><stop offset=".461" style="stop-color:#c49a49;stop-opacity:1"></stop><stop offset=".465" style="stop-color:#c39a48;stop-opacity:1"></stop><stop offset=".469" style="stop-color:#c39947;stop-opacity:1"></stop><stop offset=".473" style="stop-color:#c39947;stop-opacity:1"></stop><stop offset=".477" style="stop-color:#c39846;stop-opacity:1"></stop><stop offset=".48" style="stop-color:#c29845;stop-opacity:1"></stop><stop offset=".484" style="stop-color:#c29744;stop-opacity:1"></stop><stop offset=".488" style="stop-color:#c29744;stop-opacity:1"></stop><stop offset=".492" style="stop-color:#c29743;stop-opacity:1"></stop><stop offset=".496" style="stop-color:#c19642;stop-opacity:1"></stop><stop offset=".5" style="stop-color:#c19642;stop-opacity:1"></stop><stop offset=".504" style="stop-color:#c19541;stop-opacity:1"></stop><stop offset=".508" style="stop-color:#c09540;stop-opacity:1"></stop><stop offset=".512" style="stop-color:#c09440;stop-opacity:1"></stop><stop offset=".516" style="stop-color:#c0943f;stop-opacity:1"></stop><stop offset=".52" style="stop-color:#c0943e;stop-opacity:1"></stop><stop offset=".523" style="stop-color:#bf933d;stop-opacity:1"></stop><stop offset=".527" style="stop-color:#bf933d;stop-opacity:1"></stop><stop offset=".531" style="stop-color:#bf923c;stop-opacity:1"></stop><stop offset=".535" style="stop-color:#bf923b;stop-opacity:1"></stop><stop offset=".539" style="stop-color:#be913b;stop-opacity:1"></stop><stop offset=".543" style="stop-color:#be913a;stop-opacity:1"></stop><stop offset=".547" style="stop-color:#be9139;stop-opacity:1"></stop><stop offset=".551" style="stop-color:#be9039;stop-opacity:1"></stop><stop offset=".555" style="stop-color:#bd9038;stop-opacity:1"></stop><stop offset=".559" style="stop-color:#bd8f37;stop-opacity:1"></stop><stop offset=".563" style="stop-color:#bd8f37;stop-opacity:1"></stop><stop offset=".566" style="stop-color:#bc8f36;stop-opacity:1"></stop><stop offset=".57" style="stop-color:#bc8e35;stop-opacity:1"></stop><stop offset=".578" style="stop-color:#bc8e35;stop-opacity:1"></stop><stop offset=".586" style="stop-color:#bc8d35;stop-opacity:1"></stop><stop offset=".594" style="stop-color:#bc8d34;stop-opacity:1"></stop><stop offset=".602" style="stop-color:#bc8c34;stop-opacity:1"></stop><stop offset=".609" style="stop-color:#bc8b34;stop-opacity:1"></stop><stop offset=".617" style="stop-color:#bb8b33;stop-opacity:1"></stop><stop offset=".625" style="stop-color:#bb8a33;stop-opacity:1"></stop><stop offset=".633" style="stop-color:#bb8933;stop-opacity:1"></stop><stop offset=".641" style="stop-color:#bb8932;stop-opacity:1"></stop><stop offset=".648" style="stop-color:#bb8832;stop-opacity:1"></stop><stop offset=".656" style="stop-color:#bb8832;stop-opacity:1"></stop><stop offset=".664" style="stop-color:#bb8731;stop-opacity:1"></stop><stop offset=".672" style="stop-color:#ba8631;stop-opacity:1"></stop><stop offset=".68" style="stop-color:#ba8631;stop-opacity:1"></stop><stop offset=".688" style="stop-color:#ba8530;stop-opacity:1"></stop><stop offset=".695" style="stop-color:#ba8530;stop-opacity:1"></stop><stop offset=".703" style="stop-color:#ba8430;stop-opacity:1"></stop><stop offset=".711" style="stop-color:#ba832f;stop-opacity:1"></stop><stop offset=".719" style="stop-color:#ba832f;stop-opacity:1"></stop><stop offset=".727" style="stop-color:#ba822f;stop-opacity:1"></stop><stop offset=".734" style="stop-color:#b9822f;stop-opacity:1"></stop><stop offset=".742" style="stop-color:#b9812e;stop-opacity:1"></stop><stop offset=".75" style="stop-color:#b9802e;stop-opacity:1"></stop><stop offset=".758" style="stop-color:#b9802e;stop-opacity:1"></stop><stop offset=".766" style="stop-color:#b97f2d;stop-opacity:1"></stop><stop offset=".773" style="stop-color:#b97f2d;stop-opacity:1"></stop><stop offset=".781" style="stop-color:#b97e2d;stop-opacity:1"></stop><stop offset=".789" style="stop-color:#b97d2c;stop-opacity:1"></stop><stop offset=".797" style="stop-color:#b87d2c;stop-opacity:1"></stop><stop offset=".805" style="stop-color:#b87c2c;stop-opacity:1"></stop><stop offset=".813" style="stop-color:#b87c2c;stop-opacity:1"></stop><stop offset=".82" style="stop-color:#b87b2b;stop-opacity:1"></stop><stop offset=".828" style="stop-color:#b87a2b;stop-opacity:1"></stop><stop offset=".836" style="stop-color:#b87a2b;stop-opacity:1"></stop><stop offset=".844" style="stop-color:#b8792a;stop-opacity:1"></stop><stop offset=".852" style="stop-color:#b8792a;stop-opacity:1"></stop><stop offset=".859" style="stop-color:#b7782a;stop-opacity:1"></stop><stop offset=".867" style="stop-color:#b77829;stop-opacity:1"></stop><stop offset=".875" style="stop-color:#b77729;stop-opacity:1"></stop><stop offset=".883" style="stop-color:#b77629;stop-opacity:1"></stop><stop offset=".891" style="stop-color:#b77629;stop-opacity:1"></stop><stop offset=".898" style="stop-color:#b77528;stop-opacity:1"></stop><stop offset=".906" style="stop-color:#b77528;stop-opacity:1"></stop><stop offset=".914" style="stop-color:#b67428;stop-opacity:1"></stop><stop offset=".922" style="stop-color:#b67328;stop-opacity:1"></stop><stop offset=".93" style="stop-color:#b67327;stop-opacity:1"></stop><stop offset=".938" style="stop-color:#b67227;stop-opacity:1"></stop><stop offset=".945" style="stop-color:#b67227;stop-opacity:1"></stop><stop offset=".953" style="stop-color:#b67127;stop-opacity:1"></stop><stop offset=".969" style="stop-color:#b67127;stop-opacity:1"></stop><stop offset="1" style="stop-color:#b67127;stop-opacity:1"></stop></linearGradient></defs><path d="m362.304 540.268-18.475 77.138-16.534 71.433-28.474 12.693-26.375-13.038-16.098-71.898-18-76.667-8.25 2.15 18.033 76.945 16.648 74.484 34.042 14.231 36.583-14.079 17.094-74.025 18.498-77.41zm0 0" style="fill:#fff;fill-opacity:1;fill-rule:nonzero;stroke:none;stroke-width:1.44859" transform="translate(-169.67 -539.929)"></path><path d="m348.696 562.11-12.398 53.383-15.392 66.24-22.085 9.84-20.031-10.005-14.707-66.765-11.696-53.134-5.302 1.37 11.719 53.269 14.972 68.061 25.045 10.31 27.885-10.31 15.663-67.535 12.415-53.513zm0 0" style="fill:#fff;fill-opacity:1;fill-rule:nonzero;stroke:none;stroke-width:1.44859" transform="translate(-169.67 -539.929)"></path><path d="m299.999 605.388-129.47 32.881-.333 4.856c-.04.571-3.853 57.858 9.66 120.419 18.101 83.82 58.9 138.686 117.987 158.655l2.156.73 2.155-.73c59.087-19.975 99.885-74.835 117.992-158.655 13.507-62.561 9.699-119.848 9.66-120.42l-.34-4.855z" style="clip-rule:nonzero;fill:url(#a);fill-rule:nonzero;stroke:none;stroke-width:1.44859" transform="translate(-169.67 -539.929)"></path><path d="m299.941 901.924-2.36-.798c-50.57-17.094-85.466-64.468-100.903-136.994-11.362-53.366-8.233-103.353-8.2-103.84l.363-5.32 111.106-28.213 1.21.311 109.89 27.903.362 5.325c.034.498 3.237 50.112-8.205 103.834-15.436 72.526-50.327 119.9-100.903 136.994zm0 0" style="fill:#fff;fill-opacity:1;fill-rule:nonzero;stroke:none;stroke-width:1.44859" transform="translate(-169.67 -539.929)" data-source="https://football-logos.cc"></path><path d="m189.531 654.684-.107 1.619c-.04.509-3.356 51.181 8.425 106.51 15.635 73.466 50.696 121.354 101.39 138.489l.72.243.718-.238c50.695-17.14 85.755-65.028 101.396-138.493 11.724-55.08 8.46-106.002 8.425-106.511l-.113-1.619-110.427-28.05zm110.427 252.582-2.45-.832c-52.608-17.78-88.902-67.054-104.96-142.494-11.816-55.51-8.562-107.507-8.528-108.01l.373-5.53 115.57-29.35 1.257.322 114.303 29.029.38 5.534c.033.515 3.36 52.12-8.534 108.005-16.059 75.44-52.347 124.715-104.955 142.494zm0 0" style="fill:#87171c;fill-opacity:1;fill-rule:nonzero;stroke:none;stroke-width:1.44859" transform="translate(-169.67 -539.929)"></path><path d="m363.487 542.09-18.475 77.138-16.54 71.433-28.474 12.687-28.474-12.687-16.099-71.897-18-76.674-5.556 1.132 18.034 76.94 16.647 74.489 33.448 14.904 33.448-14.904 17.094-74.02 18.504-77.41zm0 0" style="fill:#87171c;fill-opacity:1;fill-rule:nonzero;stroke:none;stroke-width:1.44859" transform="translate(-169.67 -539.929)"></path><path d="m349.872 563.932-12.397 53.377-15.392 66.24-22.085 9.846-22.086-9.846-14.7-66.766-11.702-53.134-2.779.566 11.72 53.27 14.972 68.061 24.575 10.95 24.575-10.95 15.669-67.535 12.409-53.513zM308.299 771.222l-8.301 5.2-8.301-5.2-13.44-47.735 21.74 8.318 21.741-8.318zm-34.297-52.398 15.267 54.22 10.729 6.723 10.734-6.723 15.261-54.22-25.995 9.942zM227.246 684.052l-2.28-5.155 19.493 6.887 1.403 4.866zm-7.538-10.015 5.444 12.279 24.971 8.855-3.35-11.577zM372.75 684.052l-18.617 6.598 1.41-4.866 19.487-6.887zm-19.528-.458-3.35 11.577 24.972-8.855 5.443-12.28zm0 0" style="fill:#87171c;fill-opacity:1;fill-rule:nonzero;stroke:none;stroke-width:1.44859" transform="translate(-169.67 -539.929)"></path><path d="m377.74 688.936-33.86 11.77 6.14-19.613 36.797-12.698zM313.5 780.35l-13.502 7.277-13.501-7.277-21.633-70.59 35.134 12.323 35.14-12.324zm-91.24-91.414-9.076-20.541 36.792 12.698 6.145 19.612zm123.204-12.268-8.255 26.357-37.211 13.05-37.21-13.05-8.257-26.357-51.793-17.87 15.33 34.687 40.153 13.954 23.54 76.798 18.237 9.83 18.243-9.83 23.54-76.798 40.147-13.954 15.33-34.687zM256.127 837.258c-.81 0-1.403.43-1.777 1.301-.373.866-.566 2.264-.566 4.199 0 1.93.193 3.327.566 4.193.374.871.968 1.302 1.777 1.302.82 0 1.42-.43 1.794-1.302q.56-1.299.56-4.193 0-2.901-.56-4.199c-.374-.871-.973-1.301-1.794-1.301m.436 13.795q-.153.027-.255.046a1 1 0 0 1-.198.017c-1.856 0-3.254-.708-4.21-2.117q-1.425-2.115-1.426-6.241 0-4.134 1.426-6.247 1.434-2.115 4.227-2.116 2.811.001 4.238 2.116 1.425 2.113 1.426 6.247c0 1.895-.22 3.48-.673 4.759-.458 1.279-1.115 2.184-1.975 2.733l2.003 1.969-2.178 1.618zM278.28 837.603l-1.5 6.592h3.011zm-1.946-2.914h3.899l4.351 16.116h-3.186l-.99-3.984h-4.267l-.967 3.984h-3.186ZM302.03 850.805h-3.186v-13.332h-4.092v-2.784h11.368v2.784h-4.09zM322.581 837.603l-1.5 6.592h3.011zm-1.94-2.914h3.892l4.352 16.116h-3.18l-.996-3.984h-4.267l-.967 3.984h-3.186zM342.703 837.365v4.391h1.5q1.305 0 1.873-.509c.379-.345.565-.905.565-1.692q0-1.179-.56-1.68c-.373-.34-.996-.51-1.878-.51zm4.091 5.829c.317.062.589.215.826.447.232.232.521.69.855 1.363l2.92 5.8h-3.497l-1.947-4.068-.226-.481c-.566-1.21-1.24-1.822-2.009-1.822h-1.013v6.372h-3.186v-16.116h4.6q3.108.001 4.465 1.098 1.351 1.102 1.353 3.587c0 1.11-.272 1.986-.81 2.643-.537.656-1.318 1.047-2.33 1.177M244.612 803.488l-2.331-2.31-2.304 2.31 2.304 2.325zM238.727 803.488l-2.337-2.31-2.303 2.31 2.303 2.325zM262.114 826.722l2.303 2.303 2.303-2.303-2.303-2.303zM256.223 826.722l2.337 2.303 2.275-2.303-2.275-2.303zM241.992 819.156h-9.325v-3.87c0-1.788 1.165-3.667 3.983-3.667h5.342zm53.898-7.679c-1.737-1.652-3.673-3.468-8.279-3.468h-10.49l-.572 3.038h11.628c2.846 0 4.272 1.166 5.664 2.394.906.792 1.845 1.647 3.186 2.212-1.51.6-2.45 1.37-3.39 2.02-1.16.827-2.33 1.483-4.605 1.483h-19.964c-.271 0-.51.068-.724.176v-.176h-1.709v-9.5l-3.837.854.793 1.335v7.311H244.98v-5.12c0-1.704 0-2.05.43-2.96l-3.418-2.501h-5.342c-4.611 0-6.915 3.327-6.858 6.71l.147 6.91h38.405v-.176c.215.108.453.176.724.176h19.398c4.153 0 5.885-1.364 7.48-2.7 1.392-1.165 2.671-2.274 5.404-2.274h1.081l.453-3.13h-1.619c-2.62 0-3.927-1.25-5.375-2.614M288.664 801.666l-2.332-2.304-2.303 2.304 2.303 2.33zM339.41 819.156h-3.356c-3.157 0-4.776-1.624-4.776-4.125v-3.44h4.72c1.793 0 3.412.854 3.412 3.412zm19.488-14.107v14.107h-16.642l.255-4.153c.226-3.73-2.649-6.428-6.513-6.428h-4.663l-3.56 2.416c.6.571.657 1.222.657 1.794l-.113 6.371h-16.823v-8.844l-3.842.849.798 1.34v8.902c0 2.642-.572 4.52-3.757 6.315l1.935 1.963c3.814-2.139 4.69-4.068 4.838-7.486h18.668l.345-3.039h.17c.91 2.275 2.614 3.039 4.266 3.039h27.025v-19.336l-3.836.85zM366.271 803.708l.798 1.341v17.146h3.044v-19.336zM263.925 869.546h2.546v-7.47l-2.371.583v-2.054l2.382-.566h2.201v9.507h2.541v2.003h-7.3zM289.162 865.84c.492 0 .865-.182 1.12-.538.26-.357.396-.877.396-1.556 0-.674-.135-1.189-.396-1.545q-.382-.534-1.12-.532-.74-.002-1.132.532-.4.534-.402 1.545.002 1.008.402 1.55c.26.362.64.543 1.132.543m-2.982 5.557v-2.077c.407.238.792.413 1.165.527q.562.17 1.081.17c.815 0 1.437-.278 1.867-.821.425-.549.657-1.364.685-2.456a2.3 2.3 0 0 1-.928.753q-.561.247-1.335.249c-1.03 0-1.834-.329-2.4-.985-.56-.65-.843-1.584-.843-2.784q.002-1.928.945-2.982.95-1.06 2.688-1.058 2.097 0 3.056 1.409.95 1.401.95 4.544c0 1.986-.384 3.48-1.165 4.47-.775.996-1.935 1.494-3.492 1.494-.362 0-.73-.04-1.114-.113-.38-.08-.77-.193-1.16-.34M311.304 865.84c.486 0 .86-.182 1.12-.538q.39-.536.39-1.556 0-1.011-.39-1.545t-1.12-.532c-.493 0-.877.175-1.138.532q-.4.534-.401 1.545.001 1.008.401 1.55c.26.362.645.543 1.138.543m-2.988 5.557v-2.077q.611.356 1.171.527.56.17 1.075.17c.815 0 1.438-.278 1.868-.821.43-.549.656-1.364.684-2.456a2.3 2.3 0 0 1-.928.753c-.373.164-.82.249-1.33.249q-1.551 0-2.399-.985c-.565-.65-.848-1.584-.848-2.784q0-1.928.95-2.982c.628-.707 1.528-1.058 2.682-1.058q2.106 0 3.056 1.409.95 1.401.95 4.544c0 1.986-.384 3.48-1.165 4.47-.775.996-1.935 1.494-3.491 1.494-.357 0-.73-.04-1.11-.113a8 8 0 0 1-1.165-.34M330.379 860.04h6.252v2.002h-4.413v2.14c.186-.074.385-.125.594-.165.215-.028.436-.045.673-.045 1.143 0 2.071.357 2.773 1.075.713.724 1.07 1.658 1.07 2.812 0 1.206-.385 2.162-1.155 2.858-.77.702-1.816 1.058-3.14 1.058-.493 0-.996-.045-1.494-.124q-.764-.128-1.545-.374v-2.048q.644.315 1.313.475c.452.108.9.159 1.352.159.804 0 1.415-.176 1.828-.515q.628-.512.628-1.488c0-.606-.21-1.087-.622-1.449-.414-.362-.968-.543-1.653-.543q-.611 0-1.222.147-.61.154-1.24.453zm0 0" style="fill:#87171c;fill-opacity:1;fill-rule:nonzero;stroke:none;stroke-width:1.44859" transform="translate(-169.67 -539.929)" data-source="https://football-logos.cc"></path><!-- source: https://football-logos.cc --></svg>