<svg xmlns="http://www.w3.org/2000/svg" viewBox="180.76 47.42 1411.3 1682.6"><!-- Source: https://football-logos.cc --><path fill="#d89306" fill-rule="evenodd" d="M1032.01 1667.94c-13.12 5.33-26.61 11.82-38.84 16.91q-5.39 2.24-16.54 7.54c-5.36 2.54-16.47 6.68-25.7 10.85q-1.78.81-7.33 3.1-5.07 2.09-10.95 4.71-8.24 3.69-13.31 5.66c-10.73 4.19-19.45 8.53-29.82 12.81q-2.48 1.03-5.22-.07-31.06-12.44-61.43-25.6-52.95-22.96-122.01-54.21-20.46-9.26-41.6-19.65c-9.53-4.69-22.61-10.33-33.2-15.56-25.56-12.64-46.84-22.89-71.99-36.06q-22.77-11.93-27.45-14.4-29.13-15.36-66.57-37.03-18.38-10.63-54.53-33.53c-7.08-4.48-13.06-9.33-19.9-14.04q-6.24-4.3-14.46-11.13-2.11-1.75-16.68-14.24-22.79-19.54-42.71-41.83-15.16-17.28-21.75-25.94-37.94-49.89-62.04-106.15c-14.23-33.23-24.88-64.51-31.84-96.91q-2.3-10.69-5.5-27.47-3.1-16.26-6.17-42.64-3.21-27.61-3.21-58.81.03-406.77-.15-805.97-.01-23.4-.35-44.78a3.955 3.925 71.351 0 1 1.58-3.22q1.5-1.11 4.54-2.64c30.27-15.32 58.03-28.21 86.77-39.26 14.72-5.66 23.76-9.5 37.52-14.19q.29-.1 16.35-5.81 35.12-12.47 50.83-17 35.07-10.11 43.15-12.5c15.72-4.65 26-6.86 44.13-11.47q18.17-4.63 37.13-8.52c16.87-3.47 32.51-7.44 48.38-10.27q59.75-10.64 104.62-16.26c21.81-2.73 47.53-5.14 73.66-7.93q11.81-1.26 27.89-2.35Q832.63 47 897 47.46q57.16.42 124.24 5.2 44.72 3.19 112.96 11.94c20.93 2.69 42.12 6.89 59.73 9.31q1.46.2 24.88 4.3 11.18 1.96 24.75 5.05 17.08 3.89 38.24 8.17c15.58 3.15 36.89 8.95 46.63 11.38 17.71 4.42 34.62 9.74 51.47 14.28q10.79 2.91 21.53 6.49 54.42 18.14 71.29 24.47 15.2 5.7 55.69 22.5c20.51 8.52 40.42 19.25 58.65 27.66 2.83 1.31 5.05 1.75 5 5.53q-.35 27.96-.35 32.52l.17 821.89q.01 20.85-1.64 41.33c-.95 11.73-3.17 23.81-4.23 34.82-1.41 14.73-4.59 29.41-7.92 45.31q-.44 2.11-3.63 14.13c-1.4 5.26-2.81 12.46-4.69 18.27q-9.16 28.3-12.74 38.27-2.68 7.45-12.37 29.69-9.53 21.87-23.38 46.85c-4.8 8.64-12.53 20.12-16.1 26.05-4.65 7.73-11.03 16.33-15.72 22.83q-21.44 29.69-46.13 54.38-27.89 27.91-50.04 44.44-21.68 16.18-36.52 25.47-3.96 2.48-17.11 10.63c-8.87 5.49-16.17 9.36-24.99 15.03q-2.77 1.79-10.06 5.9-25.14 14.2-49.6 27.48-7.28 3.95-10.79 5.53c-5.07 2.28-9.06 4.91-14.31 7.56q-10.4 5.24-27.02 14.33-3.13 1.72-7.79 3.99-6.49 3.18-7.83 3.9-4.07 2.17-16.2 7.97c-12.23 5.85-23.89 11.99-35.86 17.66q-51.43 24.36-103.2 47.97m482.71-1436.99q-22.83-7.66-31.87-10.54-97.16-30.98-192.21-53.97-44.25-10.7-87.43-19.56-53.24-10.91-104.84-18.27c-10.9-1.56-25.12-3.16-37.64-4.94q-18.91-1.81-37.72-4.27-3.01-.39-9.84-.56a4.328 3.821 48.563 0 1-.8-.1q-2.55-.56-2.74-.58-26.6-1.66-41.71-2.71c-6.11-.42-14.38-.43-18.67-.69q-12.96-.77-27.75-1.12-50.66-1.2-106.02 1.48c-12.49.61-21.19 1.35-31.79 2.01q-35.9 2.24-69.93 6.45-36.2 4.48-61.22 8.6c-13.59 2.23-26.84 3.85-41.11 6.93q-10.66 2.31-24.03 4.73c-29.09 5.27-57.54 11.95-84 17.68q-15.08 3.26-40.94 10.31c-7.87 2.15-16.17 3.82-25.12 6.05q-14.22 3.53-44.16 11.83-36.53 10.12-90.42 26.57-5.09 1.55-27.3 8.82c-8.21 2.68-18.18 6.41-27.54 9.03a2.117 2.115 82.255 0 0-1.55 2.04q.08 486.77-.11 805.08-.03 37.21 1.02 50.46 1.87 23.62 6.83 50.07 1.83 9.76 3.18 17.27 2.36 13.19 7.32 29.89 2.23 7.48 10.02 32.42c2.51 8.01 5.72 14.58 8.4 21.74 3.81 10.16 8.89 20.3 13.6 30.48q2.23 4.82 7.47 14.27 4.11 7.4 9.99 18.07c6.23 11.31 15.68 25.08 24.66 37.26 13.34 18.09 28.69 34.85 44.73 50.6q19.43 19.08 44.25 37.08c3.44 2.49 6.53 5.14 10.19 6.88a3.656 3.641-32.24 0 0 1.56.35q188.74.07 436.77-.18 15.93-.02 32-.01 164.3.03 310.42.15c40.2.03 79.65-.67 112.18.18 3.5.1 4.44-.66 7.14-2.49q32.29-22.05 59.74-50.76c7.87-8.24 16.21-16.64 23.34-25.29q23.68-28.76 42.11-60.64 5.05-8.73 11.94-22.57 7.58-15.21 11.02-23.04 8.76-19.94 16.83-45.12c2.25-7.04 3.44-12.98 5.58-19.36q1.77-5.24 4.01-14.56c8.67-35.94 14.08-73.53 14.11-110.64q.23-336.22-.07-827.49a1.504 1.499 10.025 0 0-.99-1.41zM940.06 1485.61q-.07.04-6.15 6.85c-6.62 7.42-13.37 12.55-22.73 16.71a.603.6 31.939 0 0 .27 1.15c4-.13 8.49-.64 12.51.43a1.288 1.268 87.155 0 1 .87.8q.57 1.53.58 2.9.12 14.7.13 53.8c0 5.4 0 12.4-3.01 16.29q-2.84 3.66-2.96 3.84a.514.513-72.745 0 0 .42.8l28.41.02a.255.253 64.76 0 0 .16-.45c-8.65-7.18-7.84-17.3-7.84-26.75q0-38.57.28-71.25.03-4.29-.22-4.89a.517.513-25.668 0 0-.72-.25m-127.51 84.84c-6.85 3.75-14 6.68-21.33 7.28q-1.12.1-8.96.09-8.57 0-17.64-.63a1.117 1.117-78.725 0 1-.98-1.47q.65-1.95 1.64-3.43c9.81-14.6 22.77-31.68 30.84-43.43 6.23-9.08 8.12-20.63 1.37-29.68q-3.2-4.28-7.91-6.81c-11.76-6.29-26.16-5.89-38.94-1.44q-2.06.72-2.81 2.21-4.09 8.16-6.65 16.36a.602.599-7.769 0 0 .9.68c11.21-7.21 22.62-14.78 36.17-7.12 9.91 5.59 6.1 16.02 1.21 23.16q-15.77 23.04-33.2 47.33c-3.13 4.38-6.64 10.11-9.9 14.89a.314.312 17.259 0 0 .26.49h69.83a.599.592 12.45 0 0 .54-.34q4.07-8.49 6.31-17.56a.519.518 82.667 0 0-.75-.58m10.618-30.238c.023 12.907 2.888 26.236 10.747 36.779 5.075 6.809 11.975 12.559 20.655 14.309 17.27 3.5 33.94-5.69 41.106-21.631q6.626-14.744 6.6-29.594t-6.702-29.572c-7.222-15.916-23.923-25.048-41.181-21.488-8.674 1.78-15.554 7.554-20.606 14.381-7.822 10.57-10.641 23.909-10.619 36.816m134.663-.102q0 11.01 3.3 21.967c4.994 16.578 17.978 30.061 36.183 30.061 18.205.001 31.191-13.48 36.186-30.058q3.301-10.957 3.302-21.967t-3.3-21.967c-4.994-16.578-17.978-30.061-36.183-30.062-18.206 0-31.191 13.481-36.186 30.058q-3.301 10.958-3.302 21.968" data-source="https://football-logos.cc"></path><path fill="#fff" fill-rule="evenodd" d="M1060.73 123.67c11.04 4.85 21.35 6.45 33.68 7.99 10.38 1.3 15.56 2.14 26.13 3.8 25.61 4.04 64.17 11.51 96.21 17.8q7.86 1.54 44.28 9.78c16.5 3.73 35.36 8.72 50.72 12.82 5.19 1.38 12.26 2.43 16.76 3.66q17.94 4.89 23.09 6.08c7.95 1.83 17.9 5.14 26.26 7.14 11.07 2.65 18.81 5.92 29.8 8.75q3.94 1.02 15.98 4.6 4.78 1.43 9.64 3.11c6.28 2.17 12.03 3.25 19.14 4.36 2.93.45 6.02 1.71 8.71 3.09q1.68.86 6.44 2.66 13.01 4.95 26.31 9.36 10.17 3.38 20.84 2.28l10.89 3.91a1.504 1.499 10.025 0 1 .99 1.41q.3 491.27.07 827.49c-.03 37.11-5.44 74.7-14.11 110.64q-2.24 9.32-4.01 14.56c-2.14 6.38-3.33 12.32-5.58 19.36q-8.07 25.18-16.83 45.12-3.44 7.83-11.02 23.04-6.89 13.84-11.94 22.57-18.43 31.88-42.11 60.64c-7.13 8.65-15.47 17.05-23.34 25.29q-27.45 28.71-59.74 50.76c-2.7 1.83-3.64 2.59-7.14 2.49-32.53-.85-71.98-.15-112.18-.18q-146.12-.12-310.42-.15-16.07-.01-32 .01-248.03.25-436.77.18a3.656 3.641-32.24 0 1-1.56-.35c-3.66-1.74-6.75-4.39-10.19-6.88q-24.82-18-44.25-37.08c-16.04-15.75-31.39-32.51-44.73-50.6-8.98-12.18-18.43-25.95-24.66-37.26q-5.88-10.67-9.99-18.07-5.24-9.45-7.47-14.27c-4.71-10.18-9.79-20.32-13.6-30.48-2.68-7.16-5.89-13.73-8.4-21.74q-7.79-24.94-10.02-32.42-4.96-16.7-7.32-29.89-1.35-7.51-3.18-17.27-4.96-26.45-6.83-50.07-1.05-13.25-1.02-50.46.19-318.31.11-805.08a2.117 2.115 82.255 0 1 1.55-2.04c9.36-2.62 19.33-6.35 27.54-9.03q22.21-7.27 27.3-8.82 53.89-16.45 90.42-26.57 29.94-8.3 44.16-11.83c8.95-2.23 17.25-3.9 25.12-6.05q25.86-7.05 40.94-10.31c26.46-5.73 54.91-12.41 84-17.68q13.37-2.42 24.03-4.73c14.27-3.08 27.52-4.7 41.11-6.93q25.02-4.12 61.22-8.6 34.03-4.21 69.93-6.45c10.6-.66 19.3-1.4 31.79-2.01q55.36-2.68 106.02-1.48 14.79.35 27.75 1.12c4.29.26 12.56.27 18.67.69q15.11 1.05 41.71 2.71.19.02 2.74.58a4.328 3.821 48.563 0 0 .8.1q6.83.17 9.84.56 18.81 2.46 37.72 4.27m21.4 529.35-.25-17.13q3.66-18.12 8.94-35.94 4.16-14 4.8-16.74 2.88-12.31 3.44-17.09.51-4.48-.49-6.51-2.79-5.61-8.78-1.99t-10.91 9.53q-15.01 18.04-24.33 30.16-11.06 14.39-37.05 44.82c-14.76 17.29-31.15 32.88-47.72 48.26q-6.67 6.18-11.45 9.76c-10.3 7.73-20.52 13.41-32.73 19.67-12.89 6.61-27.69 10.03-42.48 12.39q-14.88 2.37-30.33 1.33-42.09-2.83-78.4-24.18c-10.12-5.95-17.67-11.75-27.93-20.14-5.07-4.16-9.53-8.57-12.99-12.69-10.2-12.14-15.94-18.3-22.24-28.77q-7.23-12.03-11.08-18.86-2.4-4.28-7.85-17.43-2.63-6.34-5.82-18.23c-5.02-18.67-9.65-33.83-10.95-50.5-.71-9.12-1.69-17.79-1.94-25.32q-.92-27.61 1.53-56.19c1.38-16.07 2.23-27.77 4.54-39.41q.97-4.92 1.62-9.5a.371.323 76.592 0 1 .11-.21l.22-.22a.656.635 69.546 0 0 .21-.48q-.06-.55.82-9.66.36-3.65 2.97-19.14 1.82-10.78 3.77-19 .27-1.11 8.98-42.29 1.51-7.14 2.06-8.12a1.721 1.628-33.283 0 0 .22-.93q-.06-.99.09-1.76.34-1.67 6.03-25.91.65-2.77 1.83-6.2 1.44-4.19 1.83-6.2 5.11-26.03 6.03-30.54c2.19-10.71 4.01-22.97 4.8-30.9q.58-5.74-.62-10.4c-2.9-11.31-15.06-.14-18.46 3.81q-3.25 3.78-11.31 14.18c-13.58 17.54-20.99 34.6-30.65 55.61-9.43 20.53-16.67 45.93-23.4 70.87-2.38 8.8-5.01 20.71-6.2 26.98q-9.77 51.81-12.76 91.7c-2.64 35.29-4.14 70.07-2.74 104.18 1.76 42.77 4.78 85.28 11.29 126.82 1.73 11.03 4.07 21.22 5.97 31.25q1.19 6.28 4.88 19.78c4.47 16.31 8.31 30.93 12.53 44.43 5.73 18.28 11.37 32.55 18.44 51.09q12.04 31.53 29.26 63.48 11.16 20.71 27.05 39.19c10.48 12.18 22.2 22.39 36.95 27.8q4.61 1.69 9.53 2.14 10.97 1 21.19-.03 24.67-2.49 39.04-4.17 17.08-1.99 43.7-8.58c10.71-2.65 20.93-6.51 29.55-12.9q16.21-12.03 29.75-25.37 8.32-8.2 20.33-22.83 15.13-18.43 18.97-23.97 8.8-12.69 18.88-28.96c14.29-23.08 25.63-47.2 37.38-73.55 6.57-14.74 16.59-26.8 29.15-36.59q8.89-6.93 17.09-9.9 18.23-6.6 40.46-6.7c3.07-.01 5.09.59 7.96.56 3.11-.03 6.85.93 10.48 1.26q1.31.12 4.48.89 11.38 2.76 22.82 5.3 2.86.64 4.8 1.63 1.46.75 2.5.87 2.15.25 4.97 1.35 1.03.4 2.01.85.09.04 2.51 1.18 4.46 2.1 9.7 4c10.83 3.92 20.89 9.61 30.94 15.59 5.21 3.11 9.52 7.02 13.57 10.68 6.85 6.2 13.07 15.53 14.78 24.77q2.12 11.48-.99 21.73-4.82 15.93-15.8 29.7-9.85 12.36-19.59 21.42-17.83 16.58-42.84 32.88-15.05 9.82-19.39 12.6-13.7 8.76-30.09 16.9-6.24 3.11-30.97 15.23c-23.89 11.7-45.9 20.01-73.62 30.31-12.93 4.8-24.63 7.86-36.83 12.15q-10.97 3.86-26.46 7.91-24.44 6.38-39.02 10.46c-9.23 2.58-18.52 4.37-27.52 5.88q-6.04 1-20.66 4.31c-20.1 4.55-40.15 6.83-59.67 9.98q-18.57 3-31.67 4.65c-36.54 4.6-74.42 7.1-111.4 8.25q-22.84.71-25.66.85c-3.62.18-10.05.82-12.35 3.75-6.56 8.34 18.11 11.54 22.74 12.28 7.54 1.2 17.74 2.22 27.43 2.86q19.08 1.24 21.86 1.34c22.44.85 47.45 1.05 71.3-.63q47.88-3.37 66.15-5.51 52.72-6.16 117.13-20.12 16.13-3.5 40.91-10.51 24.51-6.93 40.77-10.95a.441.247 15.158 0 1 .51.5q-.02 0-.11-.02a.49.284 33.321 0 1-.35-.7q1.58-.25 3.34-.87 7.95-2.78 16.45-5.44c18.05-5.63 32.97-11.55 58.78-21.1q5.35-1.98 6.63-2.62 4.26-2.1 6.51-2.86 4.51-1.52 9.9-4.01c3.66-1.68 10.47-4.31 15.63-6.72q33.71-15.76 53.27-26.11 21.32-11.29 35.92-21.09 21.9-14.71 33.21-23.03 11.6-8.52 31.21-26.18 4.83-4.35 9.05-9.12 7.83-8.87 8.47-9.69c8.25-10.58 14.77-21.66 15.99-35.19q1.02-11.26-.16-18.63-1.19-7.46-3.62-12.56c-7.55-15.85-17.99-28.27-32.39-38.75q-11.24-8.19-21.63-13.29-22.16-10.87-28.54-13.02-33.62-11.3-56.93-15.88-13.37-2.62-42.54-6.02c-6.03-.7-13.57-1.76-19.42-2.84-13.53-2.5-29.3-9.19-38.97-20.02q-6.72-7.52-9.86-18.49m-342.47-78.45c5.3 10.61 12.57 20.58 20.4 29.87q9.08 10.77 24.46 21.53 6.46 4.52 19.85 11 11.12 5.38 21.16 8.03 22.44 5.93 45.23 4.63 19.24-1.1 34.78-7.15 16.07-6.25 27.76-13.47c16.13-9.96 28.16-22.51 39.68-37.92q4.74-6.35 8.83-15.02 6.39-13.53 7.1-15.94 4.44-15.05 5.33-19.67 4.95-25.67.34-51.15c-1.61-8.85-3.39-16.77-6.93-24.94q-5.11-11.78-11.72-23.53-3.37-5.98-9.47-13.29-14.72-17.63-32.99-29.45-9.66-6.25-20.97-10.53c-10.89-4.12-18.92-7.15-29.5-8.6q-19.98-2.73-40.47-.44c-26.17 2.93-52.06 16.11-71.49 33.06-17.28 15.08-31.07 37.16-38.67 59.1q-5.39 15.54-6.49 35.17-.97 17.33 2.09 35.75.37 2.22 2.29 9.39 1.14 4.22 3.18 9.1 2.35 5.58 4.63 11.17.24.59 1.59 3.3m378.97 569.78q-.35.16-.63.7c-4.53 8.81-11.67 8.86-20.5 7.45q-.96-.16-14.21-3.27c-19.09-4.49-43.06 2.18-54.36 19.21-3.9 5.88-5.62 7.77-7.52 13.69-3.16 9.92-4.8 19.21-4.2 29.36q.5 8.35.66 9.99c2.21 22.47 17.54 41.65 40.22 45.89q8.94 1.68 19.67.78c14.91-1.25 26.87-8.72 35.13-21.01q1.85-2.75 6.15-13.9c1.08-2.78 2.08-4.8.59-7.04q-.95-1.44-2.98-.86a.923.907-4.905 0 0-.66.77c-.96 8.53-3.91 15.64-10.21 21.79q-11.35 11.07-27.42 7.05c-12.1-3.03-17.73-16.92-18.45-28.34q-1.3-20.76-.37-42.11.47-10.76 3.75-20.45c6.01-17.77 22.74-11.66 32.87-2.49 9.21 8.34 16.13 18.19 18.66 29.48q1.5 6.66 1.62 7.01.5 1.36 2.26 1.32a1.16 1.16-.258 0 0 1.13-1.14q.2-10.69-.2-23.32c-.36-11-.05-16.9.34-29.66a.958.955-11.023 0 0-1.34-.9m82.63 4.15q-13.02-1.89-28.02.01c-9.48 1.2-20.86 5.15-27.75 11.25q-5.31 4.71-9.91 11.39c-6.63 9.63-9.69 25.09-9.68 36.82q.02 12.94 2.93 22.82c4.8 16.33 17.42 31.72 34.19 35.65 10.97 2.57 22.09 2.45 32.65 1.93q12.17-.59 20.07-3.79c15.31-6.19 25.62-18.99 29.32-35.43q1.48-6.59 1.95-9.14c1.72-9.29.77-19.73-1.23-30.06q-.93-4.79-2.15-8.18c-4.94-13.71-16.19-26.27-30.76-30.43q-8.21-2.34-11.61-2.84m-695.65 2.5v2.41a.88.87-89.334 0 0 .85.88q3.97.12 9.07-.07c4.06-.15 5.11 2.9 5.12 6.46q.18 40.22.27 94.08c.01 4.48-.71 7.3-5.57 7.6q-5.33.33-8.46.51a1.893 1.885 88.248 0 0-1.78 1.9v.07a1.85 1.84 89.843 0 0 1.84 1.84l65.8.2a1.68 1.68.17 0 0 1.69-1.68v-.87a1.77 1.76-90 0 0-1.76-1.77q-7.63.01-9.69-.02-6.26-.07-6.2-6.26.17-19.6.13-36.78a1.642 1.635-88.509 0 1 1.72-1.64q17.67.93 33.53-1.75c12.49-2.11 23.35-8.52 27.23-20.71 2.56-8.02 2.33-20.56-2.29-28.13q-4.7-7.7-12.2-11.22-10.79-5.07-22.68-5.71-7.85-.42-26.73-.25-27.5.26-49.11.14a.77.77.367 0 0-.78.77m426.48 57.01q1.03.58 1.79 1.61c4.52 6.2 7.97 13.1 12.06 19.29q2.29 3.47 7.77 12.51 5.47 9.04 8.38 12.03 6.76 6.95 15.03 10.72c4.64 2.12 9.84 2.57 15.13 2.61q6.68.06 24.17-.25a.72.71-1.972 0 0 .7-.74q-.02-.71-.8-1.38-7.84-6.71-14.43-16.79-7.21-11.02-14.35-21.89-3.85-5.88-11.76-11.87c-4.24-3.21-8.7-4.82-13.56-5.54q-.92-.14-1.62-.74a.439.436 64.479 0 1 .27-.77q12.5-.39 24.56-4.64c7.42-2.62 13.9-8.68 15.65-16.39q.92-4.09.39-9.59c-1-10.47-8.96-18.66-18.69-21.93q-12.26-4.12-28.28-4.15-18.87-.03-73.97.26a1.2 1.2-10.391 0 0-1.2 1.2v1.03a1.44 1.44.819 0 0 1.4 1.44l9.94.23a3.136 3.075-29.414 0 1 1.49.4c2.33 1.16 3.13 4.43 3.12 7.16q-.16 40.91.13 84.58c.02 3.3-.29 7.23-.5 11.36-.24 4.7-4.27 4.88-8.17 5.14-8.77.6-10.82-4.68-13.72-11.67q-2.86-6.88-6-15.49-15.92-43.64-30.26-84.95a.861.855 80.43 0 0-.81-.58h-39.94a1.082 1.079-15.942 0 0-.92 1.65q2.07 3.3 3.94 5.61 1.78 2.2 1.15 4.69-.78 3.12-1.89 6.35-8.98 26.13-9.3 26.98-5.89 15.67-10.72 30.38-1.55 4.69-4.63 12.35c-2.64 6.57-5 14.76-8.79 22.21a3.68 3.538-7.404 0 1-.89 1.11q-2.03 1.72-4.96 2.63a.534.533 79.202 0 1-.69-.47q-.08-1.25-1.32-1.25-4.61.01-9.36-.17c-5.21-.2-4.43-9.88-4.43-12.79q-.05-59.13.18-90.83.02-2.72 2.12-4.17a1.134 1.121-62.027 0 1 .64-.2h10.97a1.44 1.43-90 0 0 1.43-1.44v-1.48a1.25 1.25-45 0 0-1.25-1.25H696.7a1.11 1.11-19.217 0 0-1.11 1.11v1.7a1.1 1.1-8.14 0 0 1.1 1.1h5.54a3.359 3.352-10.577 0 1 3.13 2.14q1.35 3.51 1.26 8.33-.31 17.74-.06 36.4a1.48 1.48 89.618 0 1-1.48 1.5h-32.33a.56.55 90 0 1-.55-.56q-.11-28.26-.04-42.34c.03-6.55 5.97-5.71 10.54-5.76a.831.825-2.58 0 0 .82-.89l-.14-1.74a1.077 1.073 87.683 0 0-1.07-.99h-60.25a1.18 1.17 0 0 0-1.18 1.17v1.5a1.181 1.18.747 0 0 1.15 1.18q4.02.1 8.89.15c3.27.04 4.42 2.54 5.11 5.41a3.831 3.536-53.008 0 1 .09.9c-.43 16.85.13 33.1-.13 53.81q-.17 13.77.08 42.75.04 4.95-4.56 5.21-8.05.44-9.15.53a1.876 1.873-3.752 0 0-1.73 1.97l.01.07a1.966 1.963 88.605 0 0 1.95 1.86l59.24.2a1.75 1.75.163 0 0 1.76-1.75v-.84a1.75 1.75-45 0 0-1.75-1.75h-6.3a2.545 2.54 79.078 0 1-2.36-1.6q-1.01-2.53-.97-6.4.21-20.68-.17-44.13a.46.46 89.39 0 1 .46-.47h33.38a.553.552 87.751 0 1 .55.51q.19 2.14.16 4.34-.25 22.35.15 40 .06 2.74-.36 4.65c-.74 3.33-5.82 3.55-8.86 3.59a1.938 1.935-88.885 0 0-1.9 1.83v.08a1.666 1.663-88.542 0 0 1.67 1.76c22.98-.1 39.5.39 61.97.04q9.95-.15 34.77.06a1.316 1.312-3.733 0 0 1.32-1.5q-.09-.61-.27-.76-3.41-3-3.84-3.42c-2.53-2.48-1.5-8.04-.52-11.11q9.07-28.26 20.37-59.58c.79-2.21 1.2-5.46 1.58-7.21a.796.796-50.65 0 1 1.51-.15c.74 1.71 1 3.99 1.73 6.1q9.61 27.79 16.05 46.38 3.24 9.36 5.01 15.5 1.1 3.81 1.17 7a4.27 4.26-18.247 0 1-1.81 3.58q-2.66 1.87-3.42 2.55-1.02.91-.65 1.93a.769.756-9.734 0 0 .72.5l114.18.22a1.89 1.89 87.117 0 0 1.88-2.08v-.04a2.553 2.546 87.125 0 0-2.47-2.24c-3.65-.1-9.53.51-12.07-.75q-3.12-1.55-3.06-6.45.22-17.44-.06-42.98-.03-2.75.21-4.01a.34.339 20.209 0 1 .5-.23m143.29 145.41q-1.17.2-1.54.39c-10.88 5.83-20.07 10.12-32.84 7.45-10.26-2.15-19.41-11.64-22.77-21.44q-4.3-12.54-.08-24.77c6.27-18.16 25.04-22.43 41.64-15.54q3.75 1.56 8.16 4.02a.748.744-59.032 0 0 .99-.25q.01-.03.19-.19a.219.202 69.183 0 0 .06-.15v-13.24a.925.912-81.449 0 0-.64-.88c-13.8-4.19-31.35-5-44.18 1.33q-10.74 5.28-17.27 15.71c-4.52 7.21-6.11 15.78-6.09 24.14.04 15.45 8.28 31.05 22.5 37.46q17.59 7.94 38.02 4.03 4.75-.91 6.99-1.84a4.021 4.011-1.083 0 0 2.23-2.31l5.04-13.42a.375.375-84.412 0 0-.41-.5m-290.07-29c1.16-.45 2.11-1.7 3.51-2.18 13.31-4.6 23.38 1.51 25.23 15.2.93 6.91.23 12.6-4.11 18.28-5.28 6.92-16.81 7.4-24.35 5.21a3.088 3.083 8.171 0 1-2.22-2.96v-71.58a.425.422-6.543 0 0-.52-.41q-7.87 1.83-15.49 1.84a.347.344-18.227 0 0-.28.55l3.56 4.83a3.974 3.954-63.073 0 1 .77 2.38q-.47 48.53-.05 66.91.1 4.38-3.11 6.67a.564.562-60.458 0 0 .28 1.02q7.65.57 18.47 1.69 17.41 1.81 30.96-8.41 2.04-1.53 3.17-3.12 7.84-11.03 6.6-23.48c-1.39-13.83-9.78-23.51-23.58-25.87-5.1-.87-11.77.25-14.79 4.9q-2.7 4.17-4.44 8.12a.306.305 1.593 0 0 .39.41m140.53 45.8q-4.08-3.53-4.4-8.95-.32-5.46-.3-7.03.08-11.67.2-67.93a.486.481 82.298 0 0-.61-.47q-7.78 2.07-15.81 1.84a.297.296 73.119 0 0-.25.47l3.68 4.98a4.519 4.48-63.184 0 1 .89 2.75q-.29 26.09-.31 46.7c-.01 5.82.53 14.21-.06 20.29-.36 3.64-1.54 4.35-4.28 6.78a.699.696-65.764 0 0 .46 1.22h20.55a.37.369 65.375 0 0 .24-.65m276.453-45.832c1.161-.451 2.111-1.704 3.512-2.185 13.321-4.618 23.408 1.49 25.272 15.194.937 6.917.242 12.614-4.098 18.304-5.28 6.933-16.822 7.424-24.373 5.238a3.091 3.087 8.12 0 1-2.225-2.961l-.064-71.661a.425.422-6.594 0 0-.521-.41q-7.878 1.839-15.506 1.856a.347.344-18.279 0 0-.28.551l3.568 4.832a3.979 3.959-63.124 0 1 .773 2.382q-.426 48.585.011 66.986.104 4.384-3.108 6.68a.564.562-60.51 0 0 .281 1.021q7.659.564 18.493 1.675 17.431 1.796 30.987-8.447 2.041-1.534 3.171-3.127 7.839-11.049 6.586-23.512c-1.404-13.845-9.812-23.528-23.63-25.878-5.106-.866-11.783.261-14.802 4.919q-2.699 4.177-4.438 8.133a.307.305 1.541 0 0 .391.41m-96.113 46.412a.522.52 64.129 0 0 .32-.93c-4.97-3.95-4.53-8.07-4.43-14.66q.55-35.83-.05-68.91a.202.196-8.385 0 0-.25-.18q-7.66 1.95-15.96 1.53a.569.567 68.988 0 0-.43.97l4.4 4.41a1.136 1.125-67.702 0 1 .33.8q-.3 25.79-.41 31.09c-.22 10.95.7 25.22.21 37.32-.14 3.59-1.72 5.02-3.98 7.46a.654.65-68.317 0 0 .47 1.1zm-166.53-82.42 3.79 5.13a2.262 2.259-64.314 0 1 .43 1.23q.82 20.29.08 63.76-.11 6.16-.77 7.51a4.458 4.296-14.887 0 1-.49.81q-.66.9-2.77 1.93a1.099 1.095 31.844 0 0 .49 2.08h19.7a.81.803-27.06 0 0 .48-1.46q-3.85-2.76-3.98-7.49c-.65-24.84-.23-49.97-.55-75.11a.511.51-5.58 0 0-.61-.5q-6.99 1.41-15.47 1.45a.415.412-18.699 0 0-.33.66m-374.09 44.89v-11a.73.72 0 0 0-.73-.72h-21.08a.27.27 45 0 1-.27-.27v-23.34a.492.48-1.911 0 1 .46-.48q10.3-.6 18.12-.04c3.97.28 6.81 2.93 9.64 5.13a.739.736 19.711 0 0 1.19-.56l.4-14.27a.12.11 0 0 0-.12-.11q-21.9.47-47.14-.07-.54-.01-1.02.27a.757.752 48.83 0 0-.08 1.25c3.78 2.93 4.87 6.15 4.95 11.13q.41 27.68-.18 61.8-.09 5.34-4.31 7.47a.623.623-58.365 0 0 .28 1.18h22.21a.593.592-24.5 0 0 .39-1.04c-5.14-4.45-4.8-9.41-4.76-16.64q.07-13.62-.14-21.17a.66.651-.843 0 1 .66-.67q5.32.05 13.42.18c3.17.05 4.72.58 7.17 2.43a.587.582 18.68 0 0 .94-.46m192.25 29.62c-5.81.95-12.77 2.1-14.98-5.21q-1.13-3.73-1.15-6.44-.07-17.11-.27-29.13a.54.54.503 0 1 .56-.55c7.31.23 11.62-.51 15.95 2.04a.638.635-74.704 0 0 .96-.55v-10.01a.45.44-90 0 0-.44-.45h-16.33a.56.56-45.004 0 1-.56-.56v-16.69a2.08 2.08 0 0 0-2.08-2.08h-1.78a2.088 2.084-88.245 0 0-2.08 1.96q-.2 3.37-.6 6.29c-1.11 8.21-6.09 11.6-12.98 15.02q-2.46 1.21-1.23 5.01a.994.988-11.145 0 0 1.02.68l6.71-.53a.784.773-2.073 0 1 .84.77q.1 32.78.09 33.27c-.18 11.51 8.71 17.79 19.63 16.95 5.11-.39 7.94-4.72 9.4-8.99a.61.61-85.377 0 0-.68-.8m-114.404-22.242a32.62 31.16-2.2 0 0-33.792-29.885 32.62 31.16-2.2 0 0-31.4 32.389 32.62 31.16-2.2 0 0 33.792 29.885 32.62 31.16-2.2 0 0 31.4-32.389m71.665-.084a32.62 31.11-2.4 0 0-33.894-29.717 32.62 31.11-2.4 0 0-31.288 32.449 32.62 31.11-2.4 0 0 33.894 29.717 32.62 31.11-2.4 0 0 31.288-32.449m154.899 21.546a.471.469 82.32 0 0-.68-.52c-5.62 3.01-13.72 3.83-18.55-1.28-5.83-6.16-1.57-12.97 5.36-15q8.79-2.58 15.08-5.2a.704.701 80.694 0 1 .97.7q-.72 9.96-.17 18.94.07 1.19 2.06 5.78c.69 1.6 1.2 3.37 2.83 4.09q6.61 2.89 12.61 2.33a3.041 3.025-77.404 0 0 2.35-1.5l3.36-5.83a.838.838 14.917 0 0-.73-1.26c-5.3.03-9.95-2.75-10.05-8.63q-.11-6.92-.02-22.21c.04-7-.81-12.09-5.92-16.18q-5.03-4.03-12.06-4.9c-6.27-.78-11.09-1.14-16.44 1.31a2.155 2.134 2.186 0 0-.97.89c-2.68 4.74-5.41 8.78-5.64 10.97a.585.58 76.218 0 0 .9.55c6.45-4.25 17-6.91 24.18-3.07 3.2 1.72 5.26 6.28 2.81 9.49-3.06 4.01-11.66 4.83-16.97 5.5q-4.74.6-10.04 3.17-9.5 4.63-8.9 15.73c.56 10.3 9.13 16.18 18.92 16.6 3.82.16 8.14.31 11.07-2.51q3.6-3.47 4.64-7.96m246.21-49.06a.742.74-23.329 0 0-.51 1.28c2.8 2.61 3.6 4.39 3.7 8.6q.3 12.44.12 21.12-.24 11.69 1.52 15.83 4.04 9.5 13.99 12.07c5.24 1.35 13.78.75 18.67-2.89q2.93-2.17 5.6-5.62a.723.721 62.535 0 1 1.29.41q.15 2.71-1.22 6.24a.428.424 10.706 0 0 .4.58h16.36a.449.447-28.163 0 0 .25-.82c-4.25-2.82-4.76-7.7-4.78-12.35q-.12-26.03.27-45.99a.33.324 83.959 0 0-.4-.33q-7.7 1.82-15.76 1.44a.619.617 68.577 0 0-.46 1.06c5.17 5.06 4.58 8.99 4.47 17.22q-.17 14.02-.3 17.32c-.31 8.2-6.39 14.93-15.11 14.06-10.15-1.01-12.49-8.76-12.65-17.56q-.36-18.78.42-32.84a.478.475 84.962 0 0-.58-.49q-7.69 1.65-15.29 1.66"></path><path fill="#fefcda" fill-rule="evenodd" d="M1514.72 230.95q-10.67 1.1-20.84-2.28-13.3-4.41-26.31-9.36-4.76-1.8-6.44-2.66c-2.69-1.38-5.78-2.64-8.71-3.09-7.11-1.11-12.86-2.19-19.14-4.36q-4.86-1.68-9.64-3.11-12.04-3.58-15.98-4.6c-10.99-2.83-18.73-6.1-29.8-8.75-8.36-2-18.31-5.31-26.26-7.14q-5.15-1.19-23.09-6.08c-4.5-1.23-11.57-2.28-16.76-3.66-15.36-4.1-34.22-9.09-50.72-12.82q-36.42-8.24-44.28-9.78c-32.04-6.29-70.6-13.76-96.21-17.8-10.57-1.66-15.75-2.5-26.13-3.8-12.33-1.54-22.64-3.14-33.68-7.99 12.52 1.78 26.74 3.38 37.64 4.94q51.6 7.36 104.84 18.27 43.18 8.86 87.43 19.56 95.05 22.99 192.21 53.97 9.04 2.88 31.87 10.54"></path><path fill="#fe8502" fill-rule="evenodd" d="M1081.88 635.89q-1.46 9.07.25 17.13 3.14 10.97 9.86 18.49c9.67 10.83 25.44 17.52 38.97 20.02 5.85 1.08 13.39 2.14 19.42 2.84q29.17 3.4 42.54 6.02 23.31 4.58 56.93 15.88 6.38 2.15 28.54 13.02 10.39 5.1 21.63 13.29c14.4 10.48 24.84 22.9 32.39 38.75q2.43 5.1 3.62 12.56 1.18 7.37.16 18.63c-1.22 13.53-7.74 24.61-15.99 35.19q-.64.82-8.47 9.69-4.22 4.77-9.05 9.12-19.61 17.66-31.21 26.18-11.31 8.32-33.21 23.03-14.6 9.8-35.92 21.09-19.56 10.35-53.27 26.11c-5.16 2.41-11.97 5.04-15.63 6.72q-5.39 2.49-9.9 4.01-2.25.76-6.51 2.86-1.28.64-6.63 2.62c-25.81 9.55-40.73 15.47-58.78 21.1q-8.5 2.66-16.45 5.44-1.76.62-3.34.87a.49.284 33.321 0 0 .35.7q.09.02.11.02a.441.247 15.158 0 0-.51-.5q-16.26 4.02-40.77 10.95-24.78 7.01-40.91 10.51-64.41 13.96-117.13 20.12-18.27 2.14-66.15 5.51c-23.85 1.68-48.86 1.48-71.3.63q-2.78-.1-21.86-1.34c-9.69-.64-19.89-1.66-27.43-2.86-4.63-.74-29.3-3.94-22.74-12.28 2.3-2.93 8.73-3.57 12.35-3.75q2.82-.14 25.66-.85c36.98-1.15 74.86-3.65 111.4-8.25q13.1-1.65 31.67-4.65c19.52-3.15 39.57-5.43 59.67-9.98q14.62-3.31 20.66-4.31c9-1.51 18.29-3.3 27.52-5.88q14.58-4.08 39.02-10.46 15.49-4.05 26.46-7.91c12.2-4.29 23.9-7.35 36.83-12.15 27.72-10.3 49.73-18.61 73.62-30.31q24.73-12.12 30.97-15.23 16.39-8.14 30.09-16.9 4.34-2.78 19.39-12.6 25.01-16.3 42.84-32.88 9.74-9.06 19.59-21.42 10.98-13.77 15.8-29.7 3.11-10.25.99-21.73c-1.71-9.24-7.93-18.57-14.78-24.77-4.05-3.66-8.36-7.57-13.57-10.68-10.05-5.98-20.11-11.67-30.94-15.59q-5.24-1.9-9.7-4-2.42-1.14-2.51-1.18-.98-.45-2.01-.85-2.82-1.1-4.97-1.35-1.04-.12-2.5-.87-1.94-.99-4.8-1.63-11.44-2.54-22.82-5.3-3.17-.77-4.48-.89c-3.63-.33-7.37-1.29-10.48-1.26-2.87.03-4.89-.57-7.96-.56q-22.23.1-40.46 6.7-8.2 2.97-17.09 9.9c-12.56 9.79-22.58 21.85-29.15 36.59-11.75 26.35-23.09 50.47-37.38 73.55q-10.08 16.27-18.88 28.96-3.84 5.54-18.97 23.97-12.01 14.63-20.33 22.83-13.54 13.34-29.75 25.37c-8.62 6.39-18.84 10.25-29.55 12.9q-26.62 6.59-43.7 8.58-14.37 1.68-39.04 4.17-10.22 1.03-21.19.03-4.92-.45-9.53-2.14c-14.75-5.41-26.47-15.62-36.95-27.8q-15.89-18.48-27.05-39.19-17.22-31.95-29.26-63.48c-7.07-18.54-12.71-32.81-18.44-51.09-4.22-13.5-8.06-28.12-12.53-44.43q-3.69-13.5-4.88-19.78c-1.9-10.03-4.24-20.22-5.97-31.25-6.51-41.54-9.53-84.05-11.29-126.82-1.4-34.11.1-68.89 2.74-104.18q2.99-39.89 12.76-91.7c1.19-6.27 3.82-18.18 6.2-26.98 6.73-24.94 13.97-50.34 23.4-70.87 9.66-21.01 17.07-38.07 30.65-55.61q8.06-10.4 11.31-14.18c3.4-3.95 15.56-15.12 18.46-3.81q1.2 4.66.62 10.4c-.79 7.93-2.61 20.19-4.8 30.9q-.92 4.51-6.03 30.54-.39 2.01-1.83 6.2-1.18 3.43-1.83 6.2-5.69 24.24-6.03 25.91-.15.77-.09 1.76a1.721 1.628-33.283 0 1-.22.93q-.55.98-2.06 8.12-8.71 41.18-8.98 42.29-1.95 8.22-3.77 19-2.61 15.49-2.97 19.14-.88 9.11-.82 9.66a.656.635 69.546 0 1-.21.48l-.22.22a.371.323 76.592 0 0-.11.21q-.65 4.58-1.62 9.5c-2.31 11.64-3.16 23.34-4.54 39.41q-2.45 28.58-1.53 56.19c.25 7.53 1.23 16.2 1.94 25.32 1.3 16.67 5.93 31.83 10.95 50.5q3.19 11.89 5.82 18.23 5.45 13.15 7.85 17.43 3.85 6.83 11.08 18.86c6.3 10.47 12.04 16.63 22.24 28.77 3.46 4.12 7.92 8.53 12.99 12.69 10.26 8.39 17.81 14.19 27.93 20.14q36.31 21.35 78.4 24.18 15.45 1.04 30.33-1.33c14.79-2.36 29.59-5.78 42.48-12.39 12.21-6.26 22.43-11.94 32.73-19.67q4.78-3.58 11.45-9.76c16.57-15.38 32.96-30.97 47.72-48.26q25.99-30.43 37.05-44.82 9.32-12.12 24.33-30.16 4.92-5.91 10.91-9.53t8.78 1.99q1 2.03.49 6.51-.56 4.78-3.44 17.09-.64 2.74-4.8 16.74-5.28 17.82-8.94 35.94"></path><path fill="#d89306" fill-rule="evenodd" d="M739.66 574.57q-1.35-2.71-1.59-3.3-2.28-5.59-4.63-11.17-2.04-4.88-3.18-9.1-1.92-7.17-2.29-9.39-3.06-18.42-2.09-35.75 1.1-19.63 6.49-35.17c7.6-21.94 21.39-44.02 38.67-59.1 19.43-16.95 45.32-30.13 71.49-33.06q20.49-2.29 40.47.44c10.58 1.45 18.61 4.48 29.5 8.6q11.31 4.28 20.97 10.53 18.27 11.82 32.99 29.45 6.1 7.31 9.47 13.29 6.61 11.75 11.72 23.53c3.54 8.17 5.32 16.09 6.93 24.94q4.61 25.48-.34 51.15-.89 4.62-5.33 19.67-.71 2.41-7.1 15.94-4.09 8.67-8.83 15.02c-11.52 15.41-23.55 27.96-39.68 37.92q-11.69 7.22-27.76 13.47-15.54 6.05-34.78 7.15-22.79 1.3-45.23-4.63-10.04-2.65-21.16-8.03-13.39-6.48-19.85-11-15.38-10.76-24.46-21.53c-7.83-9.29-15.1-19.26-20.4-29.87m135.68-184.69c-12.72-2.11-26.74-.47-39.85 2.06-14.87 2.87-27.63 8.4-40.75 16.28-5.34 3.2-8.38 5.74-10.47 10.8a.675.669 13.922 0 0 .56.92l28.72 2.8a5.336 5.219 35.886 0 0 2.55-.38q7.82-3.26 20.6-8.9c9.6-4.23 17.16-6.1 27.07-8.15a2.197 2.174 12.976 0 0 1.31-.81l10.61-13.72a.564.56-66.46 0 0-.35-.9m-24.28 110.03q3.79-.89 7.76-2.57 20.92-8.86 39.64-14.34a1.073 1.06-6.097 0 0 .76-.93q1.14-12.59 3.77-26.84.84-4.54 1.9-17.78a2.185 2.141-54.284 0 0-.15-.98q-.75-1.9-3.1-3.8-11.91-9.67-26.28-18.9c-3.66-2.34-7.5-4.94-11.51-4.07-12.21 2.64-26.34 8.35-37.55 12.87q-5.93 2.4-9.2 4.77c-2.8 2.03-3.52 6.17-4.19 9.35q-4.33 20.42-5.57 26.38-.54 2.62-.76 5.34a1.639 1.624 16.811 0 0 .84 1.55c8.51 4.73 15.42 10.61 24.44 16.35 5.77 3.66 11.39 9.52 18.18 13.45a1.383 1.382 53.346 0 0 1.02.15m85.99-86.12a.333.332-86.772 0 0-.47.42q3.38 7.93 8.31 16.14.86 1.43 2.27 2.76 3.49 3.29 11.71 12.64c4.75 5.41 8.78 11.54 12.23 19.35q3.9 8.86 6.92 14.18a1.119 1.117 55.362 0 0 1.69.31l.04-.03a2.167 2.164 61.383 0 0 .68-2.32q-2.76-8.58-5.93-16.26-2.28-5.53-4.39-8.6c-5.3-7.69-11.67-17.39-19.03-24.97q-9.98-10.28-12.03-12.23-.66-.63-2-1.39m-157.52 5.68a.245.241-28.617 0 0-.42-.12q-4.46 4.93-12.42 13.33-2.92 3.08-13.66 19.1-2.92 4.36-5.3 11.08a3.05 3.05-48.773 0 0 .16 2.43l.05.09a.685.683 45.847 0 0 1.21.02c6.61-12.24 11.24-20.83 16.79-28.38 3.91-5.33 10.23-11.79 12.71-15.11q1.04-1.39.88-2.44m190.07 98.94q2.65-12.23 3.16-26.04c.29-7.93.51-13.93-2.32-20.11-3.01-6.6-8.79-15.7-14.51-22.73-5.47-6.72-7.93-10.35-12.95-14.25a5.923 5.898-28.092 0 0-4.11-1.24l-28.73 2.26a1.027 1.025-1.543 0 0-.95 1q-.38 18.48-3.26 35.97c-.49 2.97-1.43 5.75-2.03 8.76a4.299 4.289-58.005 0 0 .79 3.44q4.52 5.95 11.47 13.99 1.65 1.91 13.7 20.51 1.16 1.8 2.59 3.64a2.045 2.042-21.498 0 0 1.82.79q13.09-1.37 28.45-3.74 3.28-.5 5.87-1.19a1.43 1.43-1.39 0 0 1.01-1.06m-218.77 50.44 1.37-3.44a2.202 2.108-17.19 0 1 .3-.54c2.98-4.04 9.45-12.49 9.1-16.37q-.96-10.6-1.65-22.24-.37-6.21-.11-9.33.03-.39 1.47-17.16.33-3.79-.68-5.94c-3.9-8.42-7.86-16.22-10.04-23.99a.889.888-19.158 0 0-1.2-.58l-4.25 1.75a3.023 3.006 87.466 0 0-1.72 1.89q-2.02 6.52-4.73 21.53-3.05 16.85-.71 32.6 1.56 10.54 5.21 24.51c1.61 6.16 4.68 12.64 6.55 17.32a.588.585-45.368 0 0 1.09-.01m14.83-70.79c.39 4.98-.31 9.13-.61 14.26q-1 17.05.42 33.13c.31 3.5.95 5.13 3.21 7.56 3.36 3.61 8.64 6.99 12.94 10.54q8.26 6.82 20.57 15.01a2.973 2.956 54.028 0 0 2.41.39q4.31-1.18 8.15-3.44 8.25-4.84 22.47-12.3 5.9-3.09 11.36-7.37a2.868 2.864 70.889 0 0 1.09-2.25v-48.46a2.205 2.195 18.053 0 0-.91-1.78c-5.5-3.99-9.25-7.31-14.52-10.65q-4.19-2.65-16.99-11.88c-3.3-2.38-6.5-4.25-10.46-6.65q-1.93-1.17-4.06.07-12.04 6.99-22.45 14.03c-3.69 2.5-8.76 4.48-11.86 7.67a2.738 2.728-25.388 0 0-.76 2.12m137.73 75.99a1.614 1.612-41.06 0 0-.08 1.15q4.36 14.13 5.79 31.18a2.325 2.322-3.012 0 0 2.37 2.13q9.91-.23 21.54-3.2c3.87-.99 7.11-1.83 9.14-3.92q6.35-6.53 14.07-16.91c4.47-6.01 9.2-15.52 14.7-26.29q1.53-2.99 1.49-5.34-.21-13.31-3.68-27.11a.984.981-4.546 0 0-.87-.74c-1.4-.13-3.39-.12-4.8.17q-12.03 2.43-22.18 3.7c-2.26.28-4.67.05-6.53.7a5.529 5.526 6.422 0 0-2.91 2.32c-2.66 4.35-5.47 9.97-8.89 15.22q-4.45 6.82-15.11 20.58-2.68 3.45-4.05 6.36m74.42-18.48a.614.606-70.572 0 0-.74.36q-7.42 18.53-20.4 34.51-5.03 6.19-12.76 15.01a1.135 1.114-24.81 0 0-.28.74v.39a.394.393 69.685 0 0 .65.3q5.04-4.42 10.1-10.25 11.66-13.43 20.07-29.94 3.08-6.04 3.86-10.33a.688.685-76.2 0 0-.47-.78zm-164.89 53.28q.92 4.01 3.73 5.92 4.38 2.96 9.5 4.78c8.6 3.08 17.29 5.7 26.44 7.26q5.1.86 10.38 1.97c2.81.59 5.89.58 8.18-.38q16.64-6.97 31.82-16.84a3.102 3.097 69.913 0 0 1.39-3q-2.08-16.1-5.75-31.86a3.225 3.216-87.368 0 0-2.11-2.32l-45.05-14.97a1.086.618 41.915 0 0-.23-.05q-1.79-.08-3.66 1.18-18.12 12.22-38.01 21.73-1.7.81-2.6 2.22a1.312 1.305-35.6 0 0-.17 1.01q2.86 12.3 5.18 20.16.21.71.16 1.33-.04.44.31.86a2.485 2.423-71.829 0 1 .49 1m-20.28 7.71c7.73 6.66 16.28 10.31 26.59 14.44q7.29 2.92 14.66 4.39 16.48 3.27 31.7 3.25 1.98 0 2.98-1.14a.89.877-35.449 0 0 .16-.91q-1.12-2.81-3.85-3.22-9.22-1.38-13.64-2.12-15.86-2.66-28.73-8.31-9.57-4.19-9.86-4.31a1.199 1.119 58.283 0 0-.33-.09l-19.4-2.61a.361.359 69.152 0 0-.28.63"></path><path fill="#fff" fill-rule="evenodd" d="M875.34 389.88a.564.56-66.46 0 1 .35.9l-10.61 13.72a2.197 2.174 12.976 0 1-1.31.81c-9.91 2.05-17.47 3.92-27.07 8.15q-12.78 5.64-20.6 8.9a5.336 5.219 35.886 0 1-2.55.38l-28.72-2.8a.675.669 13.922 0 1-.56-.92c2.09-5.06 5.13-7.6 10.47-10.8 13.12-7.88 25.88-13.41 40.75-16.28 13.11-2.53 27.13-4.17 39.85-2.06M850.04 499.76c-6.79-3.93-12.41-9.79-18.18-13.45-9.02-5.74-15.93-11.62-24.44-16.35a1.639 1.624 16.811 0 1-.84-1.55q.22-2.72.76-5.34 1.24-5.96 5.57-26.38c.67-3.18 1.39-7.32 4.19-9.35q3.27-2.37 9.2-4.77c11.21-4.52 25.34-10.23 37.55-12.87 4.01-.87 7.85 1.73 11.51 4.07q14.37 9.23 26.28 18.9 2.35 1.9 3.1 3.8a2.185 2.141-54.284 0 1 .15.98q-1.06 13.24-1.9 17.78-2.63 14.25-3.77 26.84a1.073 1.06-6.097 0 1-.76.93q-18.72 5.48-39.64 14.34-3.97 1.68-7.76 2.57a1.383 1.382 53.346 0 1-1.02-.15"></path><path fill="#fefcda" fill-rule="evenodd" d="M937.05 413.79q1.34.76 2 1.39 2.05 1.95 12.03 12.23c7.36 7.58 13.73 17.28 19.03 24.97q2.11 3.07 4.39 8.6 3.17 7.68 5.93 16.26a2.167 2.164 61.383 0 1-.68 2.32l-.04.03a1.119 1.117 55.362 0 1-1.69-.31q-3.02-5.32-6.92-14.18c-3.45-7.81-7.48-13.94-12.23-19.35q-8.22-9.35-11.71-12.64-1.41-1.33-2.27-2.76-4.93-8.21-8.31-16.14a.333.332-86.772 0 1 .47-.42M779.53 419.47q.16 1.05-.88 2.44c-2.48 3.32-8.8 9.78-12.71 15.11-5.55 7.55-10.18 16.14-16.79 28.38a.685.683 45.847 0 1-1.21-.02l-.05-.09a3.05 3.05-48.773 0 1-.16-2.43q2.38-6.72 5.3-11.08 10.74-16.02 13.66-19.1 7.96-8.4 12.42-13.33a.245.241-28.617 0 1 .42.12"></path><path fill="#fff" fill-rule="evenodd" d="M969.6 518.41a1.43 1.43-1.39 0 1-1.01 1.06q-2.59.69-5.87 1.19-15.36 2.37-28.45 3.74a2.045 2.042-21.498 0 1-1.82-.79q-1.43-1.84-2.59-3.64-12.05-18.6-13.7-20.51-6.95-8.04-11.47-13.99a4.299 4.289-58.005 0 1-.79-3.44c.6-3.01 1.54-5.79 2.03-8.76q2.88-17.49 3.26-35.97a1.027 1.025-1.543 0 1 .95-1l28.73-2.26a5.923 5.898-28.092 0 1 4.11 1.24c5.02 3.9 7.48 7.53 12.95 14.25 5.72 7.03 11.5 16.13 14.51 22.73 2.83 6.18 2.61 12.18 2.32 20.11q-.51 13.81-3.16 26.04M750.83 568.85a.588.585-45.368 0 1-1.09.01c-1.87-4.68-4.94-11.16-6.55-17.32q-3.65-13.97-5.21-24.51-2.34-15.75.71-32.6 2.71-15.01 4.73-21.53a3.023 3.006 87.466 0 1 1.72-1.89l4.25-1.75a.889.888-19.158 0 1 1.2.58c2.18 7.77 6.14 15.57 10.04 23.99q1.01 2.15.68 5.94-1.44 16.77-1.47 17.16-.26 3.12.11 9.33.69 11.64 1.65 22.24c.35 3.88-6.12 12.33-9.1 16.37a2.202 2.108-17.19 0 0-.3.54zM765.66 498.06a2.738 2.728-25.388 0 1 .76-2.12c3.1-3.19 8.17-5.17 11.86-7.67q10.41-7.04 22.45-14.03 2.13-1.24 4.06-.07c3.96 2.4 7.16 4.27 10.46 6.65q12.8 9.23 16.99 11.88c5.27 3.34 9.02 6.66 14.52 10.65a2.205 2.195 18.053 0 1 .91 1.78v48.46a2.868 2.864 70.889 0 1-1.09 2.25q-5.46 4.28-11.36 7.37-14.22 7.46-22.47 12.3-3.84 2.26-8.15 3.44a2.973 2.956 54.028 0 1-2.41-.39q-12.31-8.19-20.57-15.01c-4.3-3.55-9.58-6.93-12.94-10.54-2.26-2.43-2.9-4.06-3.21-7.56q-1.42-16.08-.42-33.13c.3-5.13 1-9.28.61-14.26M903.39 574.05q1.37-2.91 4.05-6.36 10.66-13.76 15.11-20.58c3.42-5.25 6.23-10.87 8.89-15.22a5.529 5.526 6.422 0 1 2.91-2.32c1.86-.65 4.27-.42 6.53-.7q10.15-1.27 22.18-3.7c1.41-.29 3.4-.3 4.8-.17a.984.981-4.546 0 1 .87.74q3.47 13.8 3.68 27.11.04 2.35-1.49 5.34c-5.5 10.77-10.23 20.28-14.7 26.29q-7.72 10.38-14.07 16.91c-2.03 2.09-5.27 2.93-9.14 3.92q-11.63 2.97-21.54 3.2a2.325 2.322-3.012 0 1-2.37-2.13q-1.43-17.05-5.79-31.18a1.614 1.612-41.06 0 1 .08-1.15"></path><path fill="#fefcda" fill-rule="evenodd" d="m977.81 555.57.03.01a.688.685-76.2 0 1 .47.78q-.78 4.29-3.86 10.33-8.41 16.51-20.07 29.94-5.06 5.83-10.1 10.25a.394.393 69.685 0 1-.65-.3v-.39a1.135 1.114-24.81 0 1 .28-.74q7.73-8.82 12.76-15.01 12.98-15.98 20.4-34.51a.614.606-70.572 0 1 .74-.36"></path><path fill="#fff" fill-rule="evenodd" d="M812.43 607.85q-.35-.42-.31-.86.05-.62-.16-1.33-2.32-7.86-5.18-20.16a1.312 1.305-35.6 0 1 .17-1.01q.9-1.41 2.6-2.22 19.89-9.51 38.01-21.73 1.87-1.26 3.66-1.18a1.086.618 41.915 0 1 .23.05l45.05 14.97a3.225 3.216-87.368 0 1 2.11 2.32q3.67 15.76 5.75 31.86a3.102 3.097 69.913 0 1-1.39 3q-15.18 9.87-31.82 16.84c-2.29.96-5.37.97-8.18.38q-5.28-1.11-10.38-1.97c-9.15-1.56-17.84-4.18-26.44-7.26q-5.12-1.82-9.5-4.78-2.81-1.91-3.73-5.92a2.485 2.423-71.829 0 0-.49-1" data-source="https://football-logos.cc"></path><path fill="#fefcda" fill-rule="evenodd" d="M792.64 616.56a.361.359 69.152 0 1 .28-.63l19.4 2.61a1.199 1.119 58.283 0 1 .33.09q.29.12 9.86 4.31 12.87 5.65 28.73 8.31 4.42.74 13.64 2.12 2.73.41 3.85 3.22a.89.877-35.449 0 1-.16.91q-1 1.14-2.98 1.14-15.22.02-31.7-3.25-7.37-1.47-14.66-4.39c-10.31-4.13-18.86-7.78-26.59-14.44M1081.88 635.89l.25 17.13q-1.71-8.06-.25-17.13"></path><path fill="#3c3d38" fill-rule="evenodd" d="M1118.63 1144.35a.958.955-11.023 0 1 1.34.9c-.39 12.76-.7 18.66-.34 29.66q.4 12.63.2 23.32a1.16 1.16-.258 0 1-1.13 1.14q-1.76.04-2.26-1.32-.12-.35-1.62-7.01c-2.53-11.29-9.45-21.14-18.66-29.48-10.13-9.17-26.86-15.28-32.87 2.49q-3.28 9.69-3.75 20.45-.93 21.35.37 42.11c.72 11.42 6.35 25.31 18.45 28.34q16.07 4.02 27.42-7.05c6.3-6.15 9.25-13.26 10.21-21.79a.923.907-4.905 0 1 .66-.77q2.03-.58 2.98.86c1.49 2.24.49 4.26-.59 7.04q-4.3 11.15-6.15 13.9c-8.26 12.29-20.22 19.76-35.13 21.01q-10.73.9-19.67-.78c-22.68-4.24-38.01-23.42-40.22-45.89q-.16-1.64-.66-9.99c-.6-10.15 1.04-19.44 4.2-29.36 1.9-5.92 3.62-7.81 7.52-13.69 11.3-17.03 35.27-23.7 54.36-19.21q13.25 3.11 14.21 3.27c8.83 1.41 15.97 1.36 20.5-7.45q.28-.54.63-.7M1201.26 1148.5q3.4.5 11.61 2.84c14.57 4.16 25.82 16.72 30.76 30.43q1.22 3.39 2.15 8.18c2 10.33 2.95 20.77 1.23 30.06q-.47 2.55-1.95 9.14c-3.7 16.44-14.01 29.24-29.32 35.43q-7.9 3.2-20.07 3.79c-10.56.52-21.68.64-32.65-1.93-16.77-3.93-29.39-19.32-34.19-35.65q-2.91-9.88-2.93-22.82c-.01-11.73 3.05-27.19 9.68-36.82q4.6-6.68 9.91-11.39c6.89-6.1 18.27-10.05 27.75-11.25q15-1.9 28.02-.01m-34.928 59.014q-.183 10.654 1.125 25.214.843 9.402 4.123 18.952c2 5.83 5.72 10.75 11.41 12.16 8.61 2.13 14.55-2.41 17.544-10.052 5.427-13.844 5.736-30.16 5.996-45.288q.188-10.653-1.12-25.214-.844-9.402-4.124-18.952c-2-5.83-5.72-10.75-11.41-12.16-8.61-2.13-14.55 2.41-17.543 10.052-5.428 13.844-5.736 30.16-6.001 45.288M506.39 1150.23q21.61.12 49.11-.14 18.88-.17 26.73.25 11.89.64 22.68 5.71 7.5 3.52 12.2 11.22c4.62 7.57 4.85 20.11 2.29 28.13-3.88 12.19-14.74 18.6-27.23 20.71q-15.86 2.68-33.53 1.75a1.642 1.635-88.509 0 0-1.72 1.64q.04 17.18-.13 36.78-.06 6.19 6.2 6.26 2.06.03 9.69.02a1.77 1.76 90 0 1 1.76 1.77v.87a1.68 1.68.17 0 1-1.69 1.68l-65.8-.2a1.85 1.84 89.843 0 1-1.84-1.84v-.07a1.893 1.885 88.248 0 1 1.78-1.9q3.13-.18 8.46-.51c4.86-.3 5.58-3.12 5.57-7.6q-.09-53.86-.27-94.08c-.01-3.56-1.06-6.61-5.12-6.46q-5.1.19-9.07.07a.88.87-89.334 0 1-.85-.88V1151a.77.77.367 0 1 .78-.77m50.641 4.815-.202 57.72a1.19 1.19-72.312 0 0 1.186 1.194l2.71.01a23.67 21.86-89.8 0 0 21.943-23.594l.044-12.76a23.67 21.86-89.8 0 0-21.777-23.746l-2.71-.01a1.19 1.19 5.982 0 0-1.194 1.186"></path><path fill="#3c3d38" fill-rule="evenodd" d="M932.09 1208.01a.34.339 20.209 0 0-.5.23q-.24 1.26-.21 4.01.28 25.54.06 42.98-.06 4.9 3.06 6.45c2.54 1.26 8.42.65 12.07.75a2.553 2.546 87.125 0 1 2.47 2.24v.04a1.89 1.89 87.117 0 1-1.88 2.08l-114.18-.22a.769.756-9.734 0 1-.72-.5q-.37-1.02.65-1.93.76-.68 3.42-2.55a4.27 4.26-18.247 0 0 1.81-3.58q-.07-3.19-1.17-7-1.77-6.14-5.01-15.5-6.44-18.59-16.05-46.38c-.73-2.11-.99-4.39-1.73-6.1a.796.796-50.65 0 0-1.51.15c-.38 1.75-.79 5-1.58 7.21q-11.3 31.32-20.37 59.58c-.98 3.07-2.01 8.63.52 11.11q.43.42 3.84 3.42.18.15.27.76a1.316 1.312-3.733 0 1-1.32 1.5q-24.82-.21-34.77-.06c-22.47.35-38.99-.14-61.97-.04a1.666 1.663-88.542 0 1-1.67-1.76v-.08a1.938 1.935-88.885 0 1 1.9-1.83c3.04-.04 8.12-.26 8.86-3.59q.42-1.91.36-4.65-.4-17.65-.15-40 .03-2.2-.16-4.34a.553.552 87.751 0 0-.55-.51H672.5a.46.46 89.39 0 0-.46.47q.38 23.45.17 44.13-.04 3.87.97 6.4a2.545 2.54 79.078 0 0 2.36 1.6h6.3a1.75 1.75 45 0 1 1.75 1.75v.84a1.75 1.75.163 0 1-1.76 1.75l-59.24-.2a1.966 1.963 88.605 0 1-1.95-1.86l-.01-.07a1.876 1.873-3.752 0 1 1.73-1.97q1.1-.09 9.15-.53 4.6-.26 4.56-5.21-.25-28.98-.08-42.75c.26-20.71-.3-36.96.13-53.81a3.831 3.536-53.008 0 0-.09-.9c-.69-2.87-1.84-5.37-5.11-5.41q-4.87-.05-8.89-.15a1.181 1.18.747 0 1-1.15-1.18v-1.5a1.18 1.17 0 0 1 1.18-1.17h60.25a1.077 1.073 87.683 0 1 1.07.99l.14 1.74a.831.825-2.58 0 1-.82.89c-4.57.05-10.51-.79-10.54 5.76q-.07 14.08.04 42.34a.56.55 90 0 0 .55.56h32.33a1.48 1.48 89.618 0 0 1.48-1.5q-.25-18.66.06-36.4.09-4.82-1.26-8.33a3.359 3.352-10.577 0 0-3.13-2.14h-5.54a1.1 1.1 25.168 0 1-1.1-1.1v-1.7a1.11 1.11 17.624 0 1 1.11-1.11h60.59a1.25 1.25-45 0 1 1.25 1.25v1.48a1.44 1.43-90 0 1-1.43 1.44h-10.97a1.134 1.121-62.027 0 0-.64.2q-2.1 1.45-2.12 4.17-.23 31.7-.18 90.83c0 2.91-.78 12.59 4.43 12.79q4.75.18 9.36.17 1.24 0 1.32 1.25a.534.533 79.202 0 0 .69.47q2.93-.91 4.96-2.63a3.68 3.538-7.404 0 0 .89-1.11c3.79-7.45 6.15-15.64 8.79-22.21q3.08-7.66 4.63-12.35 4.83-14.71 10.72-30.38.32-.85 9.3-26.98 1.11-3.23 1.89-6.35.63-2.49-1.15-4.69-1.87-2.31-3.94-5.61a1.082 1.079-15.942 0 1 .92-1.65h39.94a.861.855 80.43 0 1 .81.58q14.34 41.31 30.26 84.95 3.14 8.61 6 15.49c2.9 6.99 4.95 12.27 13.72 11.67 3.9-.26 7.93-.44 8.17-5.14.21-4.13.52-8.06.5-11.36q-.29-43.67-.13-84.58c.01-2.73-.79-6-3.12-7.16a3.136 3.075-29.414 0 0-1.49-.4l-9.94-.23a1.44 1.44.819 0 1-1.4-1.44v-1.03a1.2 1.2 38.189 0 1 1.2-1.2q55.1-.29 73.97-.26 16.02.03 28.28 4.15c9.73 3.27 17.69 11.46 18.69 21.93q.53 5.5-.39 9.59c-1.75 7.71-8.23 13.77-15.65 16.39q-12.06 4.25-24.56 4.64a.439.436 64.479 0 0-.27.77q.7.6 1.62.74c4.86.72 9.32 2.33 13.56 5.54q7.91 5.99 11.76 11.87 7.14 10.87 14.35 21.89 6.59 10.08 14.43 16.79.78.67.8 1.38a.72.71-1.972 0 1-.7.74q-17.49.31-24.17.25c-5.29-.04-10.49-.49-15.13-2.61q-8.27-3.77-15.03-10.72-2.91-2.99-8.38-12.03-5.48-9.04-7.77-12.51c-4.09-6.19-7.54-13.09-12.06-19.29q-.76-1.03-1.79-1.61m.36-53.49a1.02 1.02 88.61 0 0-1 1.05q.59 19.68-.04 44.18-.06 2.06.43 3.62a.906.899-6.188 0 0 .79.63c9.81.79 25.28.28 28.55-11.08 1.99-6.93 2.02-16.59-.77-23.1q-5.5-12.87-20.7-14.99-3.07-.43-7.26-.31"></path><path fill="#fff" fill-rule="evenodd" d="M1206.53 1208.5c-.26 15.128-.569 31.444-5.996 45.288-2.994 7.642-8.934 12.182-17.544 10.052-5.69-1.41-9.41-6.33-11.41-12.16q-3.28-9.55-4.123-18.952-1.308-14.56-1.125-25.214c.265-15.128.573-31.444 6.001-45.288 2.993-7.642 8.933-12.182 17.543-10.052 5.69 1.41 9.41 6.33 11.41 12.16q3.28 9.55 4.124 18.952 1.308 14.561 1.12 25.214M557.031 1155.045a1.19 1.19 30.004 0 1 1.194-1.186l2.71.01a23.67 21.86-89.8 0 1 21.777 23.746l-.044 12.76a23.67 21.86-89.8 0 1-21.943 23.594l-2.71-.01a1.19 1.19-56.99 0 1-1.186-1.194zM932.45 1154.52q4.19-.12 7.26.31 15.2 2.12 20.7 14.99c2.79 6.51 2.76 16.17.77 23.1-3.27 11.36-18.74 11.87-28.55 11.08a.906.899-6.188 0 1-.79-.63q-.49-1.56-.43-3.62.63-24.5.04-44.18a1.02 1.02 88.61 0 1 1-1.05"></path><path fill="#3c3d38" fill-rule="evenodd" d="M1075.38 1353.42a.375.375-84.412 0 1 .41.5l-5.04 13.42a4.021 4.011-1.083 0 1-2.23 2.31q-2.24.93-6.99 1.84-20.43 3.91-38.02-4.03c-14.22-6.41-22.46-22.01-22.5-37.46-.02-8.36 1.57-16.93 6.09-24.14q6.53-10.43 17.27-15.71c12.83-6.33 30.38-5.52 44.18-1.33a.925.912-81.449 0 1 .64.88v13.24a.219.202 69.183 0 1-.06.15q-.18.16-.19.19a.748.744-59.032 0 1-.99.25q-4.41-2.46-8.16-4.02c-16.6-6.89-35.37-2.62-41.64 15.54q-4.22 12.23.08 24.77c3.36 9.8 12.51 19.29 22.77 21.44 12.77 2.67 21.96-1.62 32.84-7.45q.37-.19 1.54-.39M785.31 1324.42a.306.305 1.593 0 1-.39-.41q1.74-3.95 4.44-8.12c3.02-4.65 9.69-5.77 14.79-4.9 13.8 2.36 22.19 12.04 23.58 25.87q1.24 12.45-6.6 23.48-1.13 1.59-3.17 3.12-13.55 10.22-30.96 8.41-10.82-1.12-18.47-1.69a.564.562-60.458 0 1-.28-1.02q3.21-2.29 3.11-6.67-.42-18.38.05-66.91a3.974 3.954-63.073 0 0-.77-2.38l-3.56-4.83a.347.344-18.227 0 1 .28-.55q7.62-.01 15.49-1.84a.425.422-6.543 0 1 .52.41v71.58a3.088 3.083 8.171 0 0 2.22 2.96c7.54 2.19 19.07 1.71 24.35-5.21 4.34-5.68 5.04-11.37 4.11-18.28-1.85-13.69-11.92-19.8-25.23-15.2-1.4.48-2.35 1.73-3.51 2.18M925.84 1370.22a.37.369 65.375 0 1-.24.65h-20.55a.699.696-65.764 0 1-.46-1.22c2.74-2.43 3.92-3.14 4.28-6.78.59-6.08.05-14.47.06-20.29q.02-20.61.31-46.7a4.519 4.48-63.184 0 0-.89-2.75l-3.68-4.98a.297.296 73.119 0 1 .25-.47q8.03.23 15.81-1.84a.486.481 82.298 0 1 .61.47q-.12 56.26-.2 67.93-.02 1.57.3 7.03.32 5.42 4.4 8.95M1202.293 1324.388a.307.305 1.541 0 1-.391-.41q1.739-3.956 4.438-8.133c3.019-4.658 9.696-5.785 14.802-4.919 13.818 2.35 22.226 12.033 23.63 25.878q1.253 12.463-6.586 23.512-1.13 1.593-3.171 3.127-13.556 10.243-30.987 8.447-10.834-1.111-18.493-1.675a.564.562-60.51 0 1-.281-1.021q3.212-2.296 3.108-6.68-.437-18.401-.011-66.986a3.979 3.959-63.124 0 0-.773-2.382l-3.568-4.832a.347.344-18.279 0 1 .28-.551q7.628-.017 15.506-1.856a.425.422-6.594 0 1 .521.41l.064 71.661a3.091 3.087 8.12 0 0 2.225 2.961c7.551 2.186 19.093 1.695 24.373-5.238 4.34-5.69 5.035-11.387 4.098-18.304-1.864-13.704-11.951-19.812-25.272-15.194-1.401.481-2.351 1.734-3.512 2.185M1106.18 1370.8h-19.78a.654.65-68.317 0 1-.47-1.1c2.26-2.44 3.84-3.87 3.98-7.46.49-12.1-.43-26.37-.21-37.32q.11-5.3.41-31.09a1.136 1.125-67.702 0 0-.33-.8l-4.4-4.41a.569.567 68.988 0 1 .43-.97q8.3.42 15.96-1.53a.202.196-8.385 0 1 .25.18q.6 33.08.05 68.91c-.1 6.59-.54 10.71 4.43 14.66a.522.52 64.129 0 1-.32.93M939.65 1288.38a.415.412-18.699 0 1 .33-.66q8.48-.04 15.47-1.45a.511.51-5.58 0 1 .61.5c.32 25.14-.1 50.27.55 75.11q.13 4.73 3.98 7.49a.81.803-27.06 0 1-.48 1.46h-19.7a1.099 1.095 31.844 0 1-.49-2.08q2.11-1.03 2.77-1.93a4.458 4.296-14.887 0 0 .49-.81q.66-1.35.77-7.51.74-43.47-.08-63.76a2.262 2.259-64.314 0 0-.43-1.23zM565.56 1333.27a.587.582 18.68 0 1-.94.46c-2.45-1.85-4-2.38-7.17-2.43q-8.1-.13-13.42-.18a.66.651-.843 0 0-.66.67q.21 7.55.14 21.17c-.04 7.23-.38 12.19 4.76 16.64a.593.592-24.5 0 1-.39 1.04h-22.21a.623.623-58.365 0 1-.28-1.18q4.22-2.13 4.31-7.47.59-34.12.18-61.8c-.08-4.98-1.17-8.2-4.95-11.13a.757.752 48.83 0 1 .08-1.25q.48-.28 1.02-.27 25.24.54 47.14.07a.12.11 0 0 1 .12.11l-.4 14.27a.739.736 19.711 0 1-1.19.56c-2.83-2.2-5.67-4.85-9.64-5.13q-7.82-.56-18.12.04a.492.48-1.911 0 0-.46.48v23.34a.27.27 45 0 0 .27.27h21.08a.73.72 0 0 1 .73.72zM757.81 1362.89a.61.61-85.377 0 1 .68.8c-1.46 4.27-4.29 8.6-9.4 8.99-10.92.84-19.81-5.44-19.63-16.95q.01-.49-.09-33.27a.784.773-2.073 0 0-.84-.77l-6.71.53a.994.988-11.145 0 1-1.02-.68q-1.23-3.8 1.23-5.01c6.89-3.42 11.87-6.81 12.98-15.02q.4-2.92.6-6.29a2.088 2.084-88.245 0 1 2.08-1.96h1.78a2.08 2.08 0 0 1 2.08 2.08v16.69a.56.56 45.017 0 0 .56.56h16.33a.45.44-90 0 1 .44.45v10.01a.638.635-74.704 0 1-.96.55c-4.33-2.55-8.64-1.81-15.95-2.04a.54.54.503 0 0-.56.55q.2 12.02.27 29.13.02 2.71 1.15 6.44c2.21 7.31 9.17 6.16 14.98 5.21M643.406 1340.648a32.62 31.16-2.2 0 1-31.4 32.389 32.62 31.16-2.2 0 1-33.792-29.885 32.62 31.16-2.2 0 1 31.4-32.389 32.62 31.16-2.2 0 1 33.792 29.885m-35.407-20.465a22.01 19.03-97.6 0 0-15.952 24.334 22.01 19.03-97.6 0 0 21.774 19.3 22.01 19.03-97.6 0 0 15.952-24.334 22.01 19.03-97.6 0 0-21.774-19.3"></path><path fill="#3c3d38" fill-rule="evenodd" d="M715.071 1340.564a32.62 31.11-2.4 0 1-31.288 32.449 32.62 31.11-2.4 0 1-33.894-29.717 32.62 31.11-2.4 0 1 31.288-32.449 32.62 31.11-2.4 0 1 33.894 29.717m-35.346-20.476a21.98 18.95-97.7 0 0-15.834 24.321 21.98 18.95-97.7 0 0 21.724 19.243 21.98 18.95-97.7 0 0 15.834-24.321 21.98 18.95-97.7 0 0-21.724-19.243M869.97 1362.11q-1.04 4.49-4.64 7.96c-2.93 2.82-7.25 2.67-11.07 2.51-9.79-.42-18.36-6.3-18.92-16.6q-.6-11.1 8.9-15.73 5.3-2.57 10.04-3.17c5.31-.67 13.91-1.49 16.97-5.5 2.45-3.21.39-7.77-2.81-9.49-7.18-3.84-17.73-1.18-24.18 3.07a.585.58 76.218 0 1-.9-.55c.23-2.19 2.96-6.23 5.64-10.97a2.155 2.134 2.186 0 1 .97-.89c5.35-2.45 10.17-2.09 16.44-1.31q7.03.87 12.06 4.9c5.11 4.09 5.96 9.18 5.92 16.18q-.09 15.29.02 22.21c.1 5.88 4.75 8.66 10.05 8.63a.838.838 14.917 0 1 .73 1.26l-3.36 5.83a3.041 3.025-77.404 0 1-2.35 1.5q-6 .56-12.61-2.33c-1.63-.72-2.14-2.49-2.83-4.09q-1.99-4.59-2.06-5.78-.55-8.98.17-18.94a.704.701 80.694 0 0-.97-.7q-6.29 2.62-15.08 5.2c-6.93 2.03-11.19 8.84-5.36 15 4.83 5.11 12.93 4.29 18.55 1.28a.471.469 82.32 0 1 .68.52M1116.18 1313.05q7.6-.01 15.29-1.66a.478.475 84.962 0 1 .58.49q-.78 14.06-.42 32.84c.16 8.8 2.5 16.55 12.65 17.56 8.72.87 14.8-5.86 15.11-14.06q.13-3.3.3-17.32c.11-8.23.7-12.16-4.47-17.22a.619.617 68.577 0 1 .46-1.06q8.06.38 15.76-1.44a.33.324 83.959 0 1 .4.33q-.39 19.96-.27 45.99c.02 4.65.53 9.53 4.78 12.35a.449.447-28.163 0 1-.25.82h-16.36a.428.424 10.706 0 1-.4-.58q1.37-3.53 1.22-6.24a.723.721 62.535 0 0-1.29-.41q-2.67 3.45-5.6 5.62c-4.89 3.64-13.43 4.24-18.67 2.89q-9.95-2.57-13.99-12.07-1.76-4.14-1.52-15.83.18-8.68-.12-21.12c-.1-4.21-.9-5.99-3.7-8.6a.742.74-23.329 0 1 .51-1.28"></path><path fill="#fff" fill-rule="evenodd" d="M607.999 1320.183a22.01 19.03-97.6 0 1 21.774 19.3 22.01 19.03-97.6 0 1-15.952 24.334 22.01 19.03-97.6 0 1-21.774-19.3 22.01 19.03-97.6 0 1 15.952-24.334M679.725 1320.088a21.98 18.95-97.7 0 1 21.724 19.243 21.98 18.95-97.7 0 1-15.834 24.321 21.98 18.95-97.7 0 1-21.724-19.243 21.98 18.95-97.7 0 1 15.834-24.321M940.78 1485.86q.25.6.22 4.89-.28 32.68-.28 71.25c0 9.45-.81 19.57 7.84 26.75a.255.253 64.76 0 1-.16.45l-28.41-.02a.514.513-72.745 0 1-.42-.8q.12-.18 2.96-3.84c3.01-3.89 3.01-10.89 3.01-16.29q-.01-39.1-.13-53.8-.01-1.37-.58-2.9a1.288 1.268 87.155 0 0-.87-.8c-4.02-1.07-8.51-.56-12.51-.43a.603.6 31.939 0 1-.27-1.15c9.36-4.16 16.11-9.29 22.73-16.71q6.08-6.81 6.15-6.85a.517.513-25.668 0 1 .72.25M812.55 1570.45a.519.518 82.667 0 1 .75.58q-2.24 9.07-6.31 17.56a.599.592 12.45 0 1-.54.34h-69.83a.314.312 17.259 0 1-.26-.49c3.26-4.78 6.77-10.51 9.9-14.89q17.43-24.29 33.2-47.33c4.89-7.14 8.7-17.57-1.21-23.16-13.55-7.66-24.96-.09-36.17 7.12a.602.599-7.769 0 1-.9-.68q2.56-8.2 6.65-16.36.75-1.49 2.81-2.21c12.78-4.45 27.18-4.85 38.94 1.44q4.71 2.53 7.91 6.81c6.75 9.05 4.86 20.6-1.37 29.68-8.07 11.75-21.03 28.83-30.84 43.43q-.99 1.48-1.64 3.43a1.117 1.117-78.725 0 0 .98 1.47q9.07.63 17.64.63 7.84.01 8.96-.09c7.33-.6 14.48-3.53 21.33-7.28M902.276 1540.075q.026 14.85-6.6 29.594c-7.166 15.941-23.836 25.131-41.106 21.631-8.68-1.75-15.58-7.5-20.655-14.309-7.859-10.543-10.724-23.872-10.747-36.779s2.797-26.246 10.619-36.816c5.052-6.827 11.932-12.601 20.606-14.381 17.258-3.56 33.959 5.572 41.181 21.488q6.676 14.722 6.702 29.572m-62.832.54q.069 6.859 1.232 13.882c1.827 11.034 8.459 26.428 22.108 26.29 13.648-.137 19.968-15.661 21.573-26.73q1.021-7.046.952-13.904-.069-6.86-1.232-13.883c-1.827-11.034-8.459-26.428-22.108-26.291-13.648.138-19.968 15.662-21.573 26.731q-1.021 7.045-.952 13.905M997.319 1488.084c18.205.001 31.189 13.484 36.183 30.062q3.3 10.957 3.3 21.967-.001 11.01-3.302 21.967c-4.995 16.578-17.981 30.059-36.186 30.058-18.205 0-31.189-13.483-36.183-30.061q-3.3-10.957-3.3-21.967.001-11.01 3.302-21.968c4.995-16.577 17.98-30.058 36.186-30.058m-23.135 52.304q.066 6.853 1.225 13.87c1.821 11.026 8.44 26.409 22.077 26.278 13.636-.131 19.958-15.639 21.566-26.698q1.023-7.039.957-13.891-.066-6.854-1.225-13.872c-1.821-11.026-8.44-26.409-22.077-26.278-13.636.132-19.958 15.64-21.566 26.699q-1.023 7.039-.957 13.892"></path><path fill="#d89306" fill-rule="evenodd" d="M974.184 1540.388q-.066-6.853.957-13.892c1.608-11.059 7.93-26.567 21.566-26.699 13.637-.131 20.256 15.252 22.077 26.278q1.159 7.018 1.225 13.872.066 6.852-.957 13.891c-1.608 11.059-7.93 26.567-21.566 26.698-13.637.131-20.256-15.252-22.077-26.278q-1.159-7.017-1.225-13.87M861.969 1499.979c13.649-.137 20.281 15.257 22.108 26.291q1.163 7.023 1.232 13.883.069 6.858-.952 13.904c-1.605 11.069-7.925 26.593-21.573 26.73s-20.281-15.256-22.108-26.29q-1.163-7.023-1.232-13.882-.069-6.86.952-13.905c1.605-11.069 7.925-26.593 21.573-26.731" data-source="https://football-logos.cc"></path><!-- source: https://football-logos.cc --></svg>