<svg xmlns="http://www.w3.org/2000/svg" viewBox="96.88 192.54 805.86 630.94"><!-- Source: https://football-logos.cc --><path fill="#1d1d1c" fill-rule="evenodd" d="M411.06 254.65v.01a.238.234-67.954 0 1-.3.13q-54.06-19.69-110.02-29.76-31.28-5.63-64.99-5.92-4.98-.04-19.49.94-21.41 1.45-39.74 7.71-10.5 3.59-21.75 11.49-2.65 1.85-8.57 8.74c-20.44 23.72-13.03 60.62-1.48 86.83q12.83 29.13 32.54 55.19c16.53 21.86 34.27 40.95 54.77 60.71q19.26 18.55 39.14 35.08 28.05 23.32 62.88 46.59 40.13 26.81 81.04 48.25c51.17 26.82 102.21 48.22 155.74 63.75q27.54 8 58.42 13.65 24.11 4.42 51.24 5.31 23.1.77 45.16-3.99 16.27-3.52 30.56-11.65 7.84-4.47 15.15-12.24 6.3-6.71 10.29-16.4c6.07-14.7 5.94-29.38 3.31-45.31-2.52-15.27-8.94-31.32-15.47-44.54a.044.034 52.018 0 1 0-.05l.26-.3a.207.206-41.316 0 1 .33.02q21.34 31.88 33.21 60.29 8.89 21.26 10.73 43.05 1.01 12.04-1.77 23.82-5.35 22.64-25.9 33.06c-14.13 7.16-30.27 10.1-45.85 10.36-10.15.17-20.55.01-31.3-1.2q-29.15-3.29-52.21-8.78-46.44-11.05-94.2-29.3c-65.53-25.04-129.21-57.28-189.51-94.73q-4.89-3.03-24.08-15.72c-38.44-25.42-75.01-53.65-109.91-84.3q-33.18-29.15-62.18-61.28-17.23-19.1-32.99-40.19-4.89-6.54-8.38-11.71-5.97-8.87-7.97-12.01-8.23-12.95-16.12-29.14c-9.84-20.18-16.42-42.39-14.4-64.64.97-10.77 5.15-22.72 12.74-30.73 13.47-14.24 32.73-20.01 51.88-22.11q18.44-2.02 42.65-.29 33.97 2.42 71.22 12.06 44.78 11.57 88.33 28.83 19.14 7.58 46.87 20.12a.23.23 79.16 0 1 .12.3" data-source="https://football-logos.cc"></path><path fill="#1d1d1c" fill-rule="evenodd" d="M775.67 394.28a.257.252-20.198 0 0-.42-.19l-34.76 28.72a.63.63 79.658 0 1-.8 0l-34.86-28.8a.318.315 19.962 0 0-.52.24v82.82a.62.62-90 0 1-.62.62h-63.95a.49.49 45 0 1-.49-.49V314.73a.51.51 0 0 1 .51-.51h70.94a.932.915 66.573 0 1 .64.26l28.68 28.69a.968.964-42.724 0 0 1.31.05l32.93-28.48a1.785 1.745-64.866 0 1 1.15-.43h28.53a.756.738 2.953 0 0 .75-.66c1.33-12.23 7.58-24.4 17.42-32.04q17.36-13.46 39.13-10.1c43.92 6.76 56.85 62.82 19.91 87.44q-12.19 8.13-28.87 8.04c-2.18-.01-4.29-.52-6.42-.64a.58.58 1.409 0 0-.61.58v110.36a.41.4 0 0 1-.41.4h-68.49a.68.68 29.813 0 1-.68-.68zm44.53-102.7 1.57 1.9a1.028 1.022-21.319 0 0 .85.37l16.42-.9a2.792 2.783-66.344 0 0 1.63-.64l11.09-9.16a1.095 1.091 63.079 0 0 .36-1.11l-1.51-5.61a.803.799 79.798 0 0-.83-.58q-16.99 1.35-29.43 13.2a1.858 1.85-41.734 0 0-.15 2.53m34.766-7.058a2.46 2.46 37.236 0 0-2.371.428l-9.905 8.182a2.46 2.46-49.192 0 0-.809 2.536l4.04 15.012a2.46 2.46 68.008 0 0 1.572 1.686l12.561 4.343a2.46 2.46-17.321 0 0 2.371-.429l12.164-10.05a2.46 2.46 51.573 0 0 .856-2.318l-2.027-11.663a2.46 2.46-13.196 0 0-1.619-1.903zm25.594 1.198-5.03 4.15a1.138 1.131-24.984 0 0-.39 1.06l2.36 13.56a1.585 1.557-77.15 0 0 .61.99l12.11 8.78a.987.986-46.861 0 0 1.21-.04l4.95-4.08a1.863 1.858-27.976 0 0 .6-1.95q-3.87-13.45-15.09-22.48a1.062 1.06 44.517 0 0-1.33.01m-70.78 33.17 3.96-3.42a1.907 1.886 78.38 0 0 .56-.86l5.87-18.58a1.365 1.324 46.617 0 0 .01-.77q-.58-2.05-1.54-2.97a.612.606-49.143 0 0-.91.07q-8.96 11.73-8.8 26.15a.515.512-20.699 0 0 .85.38m78.882 8.672q-1.705 6.691-2.48 9.678a1.164 1.098 43.354 0 0 .038.66l2.59 6.92a.498.495 52.467 0 0 .868.116q5.26-7.345 7.277-15.261t.914-16.884a.498.495-23.876 0 0-.818-.313l-5.586 4.837a1.164 1.098-14.763 0 0-.349.561q-.749 2.994-2.454 9.686m-42.119-13.625a1.89 1.89 57.631 0 0-1.821.329l-13.505 11.16a1.89 1.89-60.631 0 0-.621 1.948l3.644 13.538a1.89 1.89-5.84 0 0 1.207 1.295l17.195 5.946a1.89 1.89 37.242 0 0 1.954-.449l10.332-10.332a1.89 1.89-.545 0 0 .489-1.827l-4.207-15.657a1.89 1.89-44.705 0 0-1.207-1.296zM824.53 350.15l7.8-7.8a.94.932 60.582 0 0 .25-.91l-3.78-14.05a1.095 1.056-82.01 0 0-.45-.62l-13.6-8.76a1.308 1.299 40.733 0 0-1.55.11l-3.72 3.22a1.276 1.272-24.254 0 0-.43 1.13q2.33 16.85 14.74 27.71a.546.54-46.991 0 0 .74-.03m33.36 11.91q17.01-1.03 29.18-14.12a1.61 1.602-33.884 0 0 .33-1.66l-3.08-8.23a.91.91-10.219 0 0-.85-.59h-15.46a1.62 1.602 22.272 0 0-1.14.47l-11.51 11.51a.947.933 63.014 0 0-.26.82l1.94 11.13a.819.806-6.315 0 0 .85.67"></path><path fill="#fff" fill-rule="evenodd" d="M820.2 291.58a1.858 1.85-41.734 0 1 .15-2.53q12.44-11.85 29.43-13.2a.803.799 79.798 0 1 .83.58l1.51 5.61a1.095 1.091 63.079 0 1-.36 1.11l-11.09 9.16a2.792 2.783-66.344 0 1-1.63.64l-16.42.9a1.028 1.022-21.319 0 1-.85-.37zM854.966 284.522l16.833 5.824a2.46 2.46 35.945 0 1 1.619 1.903l2.027 11.663a2.46 2.46-89.717 0 1-.856 2.318l-12.164 10.05a2.46 2.46-10.899 0 1-2.371.429l-12.561-4.343a2.46 2.46-50.072 0 1-1.572-1.686l-4.04-15.012a2.46 2.46-70.376 0 1 .809-2.536l9.905-8.182a2.46 2.46.212 0 1 2.371-.428M880.56 285.72a1.062 1.06 44.517 0 1 1.33-.01q11.22 9.03 15.09 22.48a1.863 1.858-27.976 0 1-.6 1.95l-4.95 4.08a.987.986-46.861 0 1-1.21.04l-12.11-8.78a1.585 1.557-77.15 0 1-.61-.99l-2.36-13.56a1.138 1.131-24.984 0 1 .39-1.06zM809.78 318.89a.515.512-20.699 0 1-.85-.38q-.16-14.42 8.8-26.15a.612.606-49.143 0 1 .91-.07q.96.92 1.54 2.97a1.365 1.324 46.617 0 1-.01.77l-5.87 18.58a1.907 1.886 78.38 0 1-.56.86zM896.955 329.675q-2.017 7.916-7.277 15.261a.498.495 52.467 0 1-.868-.116l-2.59-6.92a1.164 1.098 43.354 0 1-.038-.66q.775-2.987 2.48-9.678t2.454-9.686a1.164 1.098-14.763 0 1 .349-.561l5.586-4.837a.498.495-23.876 0 1 .818.313q1.103 8.968-.914 16.884M846.543 313.937l13.46 4.655a1.89 1.89 43.136 0 1 1.207 1.296l4.207 15.657a1.89 1.89.644 0 1-.489 1.827l-10.332 10.332a1.89 1.89 70.376 0 1-1.954.449l-17.195-5.946a1.89 1.89 38.182 0 1-1.207-1.295l-3.644-13.538a1.89 1.89-67.77 0 1 .621-1.948l13.505-11.16a1.89 1.89 76.935 0 1 1.821-.329"></path><path fill="#1d1d1c" fill-rule="evenodd" d="M468.467 477.68H349.08a.44.44 35.526 0 1-.44-.44V314.79a.44.44 45 0 1 .44-.44h64.84a.44.44-45 0 1 .44.44v123.58a.44.44-2.478 0 0 .44.44h61.066a.44.44-46.873 0 1 .432.524l-7.399 37.99a.44.44-52.277 0 1-.432.356M598.893 421.18H561.21a.47.47-45 0 0-.47.47v55.54a.47.47-60.173 0 1-.47.47h-59.05a.47.47 45 0 1-.47-.47V314.71a.47.47-45 0 1 .47-.47h119.95a.47.47-51.999 0 1 .461.56l-6.697 34.37a.47.47-44.849 0 1-.461.38H561.21a.47.47-45 0 0-.47.47v31.24a.47.47 45 0 0 .47.47h45.19a.47.47-50.192 0 1 .461.56l-7.507 38.51a.47.47 39.996 0 1-.461.38" data-source="https://football-logos.cc"></path><path fill="#fff" fill-rule="evenodd" d="M824.53 350.15a.546.54-46.991 0 1-.74.03q-12.41-10.86-14.74-27.71a1.276 1.272-24.254 0 1 .43-1.13l3.72-3.22a1.308 1.299 40.733 0 1 1.55-.11l13.6 8.76a1.095 1.056-82.01 0 1 .45.62l3.78 14.05a.94.932 60.582 0 1-.25.91zM857.89 362.06a.819.806-6.315 0 1-.85-.67l-1.94-11.13a.947.933 63.014 0 1 .26-.82l11.51-11.51a1.62 1.602 22.272 0 1 1.14-.47h15.46a.91.91-10.219 0 1 .85.59l3.08 8.23a1.61 1.602-33.884 0 1-.33 1.66q-12.17 13.09-29.18 14.12"></path><path fill="#1d1d1c" fill-rule="evenodd" d="M408.03 503.45v7.65a1.283 1.278 78.578 0 1-.78 1.18c-8.1 3.5-19.45.4-16.45-10.74 1.94-7.22 10.05-7.44 15.99-4.79a.725.721 21.484 0 1 .39.89q-.44 1.29-1.94 2.43a.913.892 38.911 0 1-.95.09q-1.11-.54-3.49-.84c-7.41-.91-6.54 12.04 1.17 10.15a1.426 1.426 38.109 0 0-.34-2.81h-1.1a.64.64 45 0 1-.64-.64v-2.58a.68.68 45 0 1 .68-.68h6.77a.69.69-45 0 1 .69.69M527.737 505.071a8.27 8.27 0 0 1-8.08 8.456l-1.859.042a8.27 8.27 0 0 1-8.456-8.081l-.039-1.739a8.27 8.27 0 0 1 8.08-8.456l1.859-.042a8.27 8.27 0 0 1 8.456 8.081zm-9.496-5.993a5.36 3.92-93.2 0 0-3.615 5.571 5.36 3.92-93.2 0 0 4.213 5.133 5.36 3.92-93.2 0 0 3.615-5.571 5.36 3.92-93.2 0 0-4.213-5.133M548.431 505.851a8.23 8.23 0 0 1-8.771 7.651l-2.155-.146a8.23 8.23 0 0 1-7.651-8.771l.115-1.696a8.23 8.23 0 0 1 8.771-7.651l2.155.146a8.23 8.23 0 0 1 7.651 8.771zm-9.58-6.793a5.34 3.86-93.1 0 0-3.565 5.541 5.34 3.86-93.1 0 0 4.143 5.123 5.34 3.86-93.1 0 0 3.565-5.541 5.34 3.86-93.1 0 0-4.143-5.123M818.15 515.82l-2.55.87a2.131 2.111 53.319 0 1-1.92-.29l-3.17-2.3a1.031 1.003-21.333 0 0-.45-.19c-3.45-.69-6.44-.75-8.47-4.18-2.04-3.44-2.32-11.3 2.3-13.28 4.44-1.91 11.74-1.99 13.84 3.41q2.43 6.24-2.14 11.66a.873.766-22.829 0 0-.17.35q-.28 1.18 2.82 2.79a.634.632-40.671 0 1-.09 1.16m-8.676-16.567a5.26 3.84-88 0 0-4.022 5.123 5.26 3.84-88 0 0 3.654 5.391 5.26 3.84-88 0 0 4.022-5.123 5.26 3.84-88 0 0-3.654-5.391M387.54 512.61a.59.59 0 0 1-.59.59h-4.02a.59.59 0 0 1-.59-.59v-16.36a.59.59 0 0 1 .59-.59h4.02a.59.59 0 0 1 .59.59zM640.551 496.069a.32.32 42.29 0 1 .319-.321l7.899-.028a8.38 8.11-.2 0 1 8.409 8.081l.004 1.26a8.38 8.11-.2 0 1-8.351 8.139l-7.9.028a.32.32 89.947 0 1-.322-.319zm5.154 4.091-.03 8.8a.46.46 45.028 0 0 .458.461l1.04.004a4.46 4.17.2 0 0 4.475-4.155l.004-1.38a4.46 4.17.2 0 0-4.445-4.185l-1.04-.004a.46.46 85.293 0 0-.462.459M671.762 504.43q.002 1.215-.011 1.302a.701.697-86.167 0 1-.691.608l-5.02.04a1 1 45 0 0-1 1v1.11a.96.95 90 0 0 .95.96h6.07a.67.67 29.78 0 1 .67.67v2.43a.68.68-45 0 1-.68.68l-11.46-.02a.455.452-3.63 0 1-.451-.395q-.036-.277-.049-8.359t.022-8.359a.455.452 3.442 0 1 .449-.396l11.46-.058a.68.68-.067 0 1 .682.678l.008 2.43a.67.67-45.158 0 1-.667.672l-6.07.02a.96.95 89.812 0 0-.947.963l.003 1.11a1 1 70.69 0 0 1.004.997l5.02.023a.701.697 85.978 0 1 .693.606q.013.087.015 1.288M715.232 495.594q1.341.009 2.504.182a.969.958 83.834 0 1 .754.614l6.1 16.28a.442.44 79.469 0 1-.41.6h-3.88a.866.863-10.244 0 1-.81-.56l-.6-1.62a1.116 1.113 83.015 0 0-.898-.704q-.81-.097-2.854-.11-2.044-.014-2.856.073a1.116 1.113-82.279 0 0-.907.693l-.62 1.612a.866.863 10.98 0 1-.817.549l-3.88-.049a.442.44-78.733 0 1-.402-.606l6.308-16.2a.969.958-83.098 0 1 .763-.605q1.164-.158 2.505-.149m-.122 10.635q.69-.007 1.361-.088a.456.454 76.257 0 0 .369-.611l-1.62-4.25a.172.032 70.045 0 0-.079-.135q-.048-.011-.084-.011-.035 0-.083.013a.172.032-71.23 0 0-.076.136l-1.532 4.283a.456.454-77.442 0 0 .381.603q.674.068 1.363.06M767.59 512.64a.57.57 0 0 1-.57.57H763a.57.57 0 0 1-.57-.57V496.2a.57.57 0 0 1 .57-.57h4.02a.57.57 0 0 1 .57.57zM783.46 495.73h4.63a.3.3-44.991 0 1 .3.3V513a.3.3-45 0 1-.3.3h-4.926a.3.3 25.253 0 1-.253-.138l-5.899-9.173a.3.3 8.609 0 0-.552.162v8.829a.3.3 29.819 0 1-.3.3h-4.32a.3.3-58.618 0 1-.3-.3v-16.99a.3.3 32.811 0 1 .3-.3h5.126a.3.3 15.069 0 1 .253.138l5.389 8.383a.3.3 81.322 0 0 .552-.162v-8.019a.3.3-44.996 0 1 .3-.3M379.848 512.52a.775.775 40.39 0 1-.766.764l-10.584.02a.694.684.463 0 1-.693-.695l.035-16.349a.493.493 22.736 0 1 .494-.492l4.064.024a.543.543 56.182 0 1 .543.544l.129 12.365a.564.554-89.956 0 0 .543.553l5.413.056a.886.885-88.98 0 1 .874.906zM419.646 509.425q2.419-.008 2.806-2.218.438-2.537.268-10.777a.701.7 89.204 0 1 .7-.72h3.6a.711.71 89.17 0 1 .71.69q.21 7.09.213 7.334c.154 6.206-1.646 9.841-8.281 9.864-6.638.024-8.463-3.598-8.353-9.805q.001-.244.16-7.335a.711.71-89.575 0 1 .706-.695l3.599-.026a.701.7-89.61 0 1 .706.715q-.112 8.241.344 10.774.402 2.208 2.822 2.199M431.471 504.52q-.066-8.067-.032-8.344a.454.451 3.066 0 1 .445-.399l11.439-.132a.68.68 23.8 0 1 .685.672l.024 2.426a.67.67 25.034 0 1-.662.675l-6.059.06a.958.948 89.436 0 0-.938.967l.01 1.108a1 1 74.233 0 0 1.008.988l5.012-.009a.7.696 85.603 0 1 .696.6q.013.087.023 1.285.01 1.213-.002 1.3a.7.696-86.542 0 1-.686.612l-5.011.072a1 1 5.591 0 0-.992 1.005l.008 1.108a.958.948 89.624 0 0 .954.952l6.059-.04a.67.67-45.26 0 1 .673.665l.016 2.425a.68.68-66.264 0 1-.674.684l-11.439.055a.454.451-4.006 0 1-.453-.391q-.038-.277-.104-8.344M453.339 496.021a.31.31-79.971 0 1 .312-.309l7.979.028a8.59 8.03.2 0 1 8.562 8.059l-.004 1.4a8.59 8.03.2 0 1-8.618 8l-7.98-.027a.31.31-58.451 0 1-.309-.312zm5.081 4.149v8.36a.57.57 45 0 0 .57.57h1.02a4.63 4.5 0 0 0 4.63-4.5v-.5a4.63 4.5 0 0 0-4.63-4.5h-1.02a.57.57-45 0 0-.57.57M472.973 504.473q-.062-8.085-.028-8.363a.455.452 3.098 0 1 .447-.399l11.463-.126a.68.68-45.582 0 1 .686.674l.023 2.43a.67.67 18.8 0 1-.664.677l-6.072.056a.96.95 89.468 0 0-.941.969l.01 1.111a1 1-55.659 0 0 1.01.991l5.022-.007a.701.697 85.634 0 1 .697.602q.013.087.023 1.288.009 1.215-.003 1.303a.701.697-86.511 0 1-.688.612l-5.022.07a1 1-5.093 0 0-.994 1.006l.007 1.111a.96.95 89.656 0 0 .956.954l6.072-.036a.67.67-45.241 0 1 .674.666l.014 2.431a.68.68-56.564 0 1-.676.684l-11.463.049a.455.452-3.974 0 1-.454-.392q-.038-.277-.099-8.361M505.764 506.472l-5.138.286a.61.61 11.405 0 0-.576.609v5.223a.61.61-56.258 0 1-.61.61h-3.92a.61.61 0 0 1-.61-.61v-16.27a.61.61 29.854 0 1 .61-.61h11.29a.61.61-49.868 0 1 .61.61v2.67a.61.61 45 0 1-.61.61h-6.116a.61.61 63.349 0 0-.609.643l.103 1.88a.61.61 21.141 0 0 .609.577h4.933a.61.61-45 0 1 .61.61v2.553a.61.61-55.195 0 1-.576.609M557.472 513.126q-1.805.01-1.859.002a.714.71 3.98 0 1-.605-.691l-.216-12.302a.68.68 67.137 0 0-.69-.669l-4.137.062a.67.66-.865 0 1-.68-.649l-.034-2.279a.845.843 89.936 0 1 .854-.858q3.376.03 7.268-.034 3.894.021 7.269-.047a.845.843 89.428 0 1 .863.849l-.009 2.279a.67.66.229 0 1-.672.657l-4.138-.017a.68.68-5.969 0 0-.682.677l-.079 12.303a.714.71-4.616 0 1-.597.698q-.055.009-1.856.019M580.59 504.35q.09.11.41.24a3.4 3.06-80.775 0 1 1.86 2.89c.16 4.19-2.34 5.77-6.32 5.7q-3.72-.07-8.03.03a.681.671-.83 0 1-.7-.67v-16.33a.511.501 1.102 0 1 .53-.5q.78.03 7.9.11c1.99.02 4.42.39 5.46 2.38q1.57 3.03-1.04 5.38a.572.568 50.413 0 0-.07.77m-7.909-4.306.019 1.8a.68.68 67.24 0 0 .687.672l1.26-.013a2.58 1.28-.6 0 0 2.566-1.307l-.006-.6a2.58 1.28-.6 0 0-2.594-1.253l-1.259.014a.68.68 44.314 0 0-.673.687m4.767 7.246a1.15 1.15 0 0 0-1.174-1.125l-2.46.051a1.15 1.15 0 0 0-1.125 1.174l.023 1.14a1.15 1.15 0 0 0 1.174 1.125l2.46-.051a1.15 1.15 0 0 0 1.125-1.174zM597.614 512.902l-.778-2.064a.6.6 47.676 0 0-.561-.388h-6.262a.6.6-8.827 0 0-.561.385l-.754 1.97a.6.6 63.739 0 1-.561.385h-3.686a.6.6-49.937 0 1-.56-.814l6.212-16.27a.6.6-41.141 0 1 .56-.386h5.551a.6.6 55.085 0 1 .562.39l6.13 16.37a.6.6 26.28 0 1-.561.81h-4.17a.6.6-42.917 0 1-.561-.388m-4.23-6.541q.852-.024 1.307-.218a.582.577-21.123 0 0 .324-.721q-1.368-4.054-1.769-4.043t-1.542 4.135a.582.577 17.95 0 0 .362.702q.465.168 1.318.145M605.22 512.57v-16.16a.62.62-53.16 0 1 .62-.62h3.91a.62.62 33.774 0 1 .62.62v12.19a.62.62-15.136 0 0 .62.62h5.58a.62.62-69.781 0 1 .62.62v2.73a.62.62-45 0 1-.62.62h-10.73a.62.62 45 0 1-.62-.62M631.469 512.484a.77.77-60.311 0 1-.767.757l-10.547-.036a.692.682.768 0 1-.687-.696l.122-16.291a.49.49 35.355 0 1 .494-.488l4.05.045a.54.54-51.068 0 1 .538.545l.063 12.322a.562.552-89.652 0 0 .538.555l5.394.084a.883.882-88.676 0 1 .866.907zM698.43 503.32a.14.137-36.055 0 0-.27-.04l-3.17 9.18a.982.967 9.734 0 1-.92.64h-2.82a1.045 1.045-9.331 0 1-.99-.71l-3.05-8.89a.226.225 35.835 0 0-.44.07v8.92a.72.72 0 0 1-.72.72h-3.56a.54.54 45 0 1-.54-.54v-16.09a.79.79 45 0 1 .79-.79h6.04a.791.79-9.204 0 1 .75.54l3.47 10.13a.038.036 43.699 0 0 .07 0l3.15-10.06a.879.877 8.498 0 1 .84-.62h5.61a.67.67-45 0 1 .67.67v16.04a.58.58 45 0 1-.58.58h-3.69a.64.64-45 0 1-.64-.64zM732.04 512.67a.51.51 0 0 1-.51.51h-4.07a.4.39 0 0 1-.4-.39v-16.38a.73.73-.398 0 1 .72-.73c5.01-.12 17.01-1.41 13.67 8.25-.25.72-1.18 1.29-1.82 1.91a.869.867-34.966 0 0-.18 1.01l3.01 6.13a.155.152-13.05 0 1-.14.22h-5.03a.422.421 75.657 0 1-.37-.22q-2.25-4.32-2.99-5.39-.33-.47-.91-.59a.789.779-83.864 0 0-.93.76q-.05 2.42-.05 4.91m-.115-12.652.01 2.66a.93.93 67.503 0 0 .933.927l1.2-.004a2.73 2.04-.2 0 0 2.723-2.049l-.002-.44a2.73 2.04-.2 0 0-2.737-2.031l-1.2.004a.93.93 11.331 0 0-.927.933M751.941 495.73q3.895.006 7.272-.076a.846.844 89.199 0 1 .867.846v2.28a.67.66 0 0 1-.67.66h-4.14a.68.68 3.496 0 0-.68.68l-.03 12.31a.714.71-4.845 0 1-.595.701q-.054.009-1.86.026-1.802.017-1.857.01a.714.71 3.75 0 1-.607-.69l-.266-12.307a.68.68 73.973 0 0-.692-.667l-4.14.079a.67.66-1.094 0 1-.682-.647l-.044-2.28a.846.844 89.707 0 1 .851-.862q3.378.017 7.273-.063M797.19 512.45a.78.78 0 0 1-.78.78h-3.78a.78.78 0 0 1-.78-.78v-16a.78.78 0 0 1 .78-.78h3.78a.78.78 0 0 1 .78.78zM829.469 513.683c-6.701.035-8.549-3.618-8.449-9.884q.001-.246.15-7.405a.717.717-89.672 0 1 .71-.703l3.634-.032a.707.707-89.707 0 1 .713.721q-.098 8.319.367 10.876.409 2.227 2.852 2.214t2.828-2.244q.438-2.561.253-10.879a.707.707 89.108 0 1 .705-.728l3.634-.006a.717.717 89.073 0 1 .718.695q.224 7.157.227 7.403c.166 6.264-1.644 9.937-8.342 9.972M841.227 504.494q-.08-8.05-.047-8.327a.453.45 2.967 0 1 .445-.398l11.414-.152a.677.677 8.846 0 1 .685.669l.028 2.42a.667.667 30.03 0 1-.659.676l-6.046.07a.956.946 89.337 0 0-.936.967l.013 1.105a.996.996 88.392 0 0 1.008.985l5-.018a.698.694 85.504 0 1 .696.597q.014.087.026 1.283.012 1.21 0 1.297a.698.694-86.641 0 1-.684.612l-5 .081a.996.996-88.598 0 0-.988 1.004l.009 1.106a.956.946 89.525 0 0 .955.948l6.046-.05a.667.667-45.403 0 1 .673.662l.02 2.42a.677.677-57.749 0 1-.672.683l-11.415.075a.453.45-4.105 0 1-.452-.389q-.039-.276-.119-8.326M710.76 806.49a.327.326-49.263 0 0 .04.54l12.92 7.46a.494.491 34.491 0 1 .14.74l-6.46 7.82a1.163 1.156-70.589 0 1-.87.42c-7.25.23-14.12-5.18-19.82-9.82a1.744 1.733-31.146 0 0-1.48-.36c-11.03 2.4-23.9.2-32.39-6.55-10.44-8.31-13.11-22.68-11.05-35.49 2.47-15.3 12.89-24.88 28.09-26.72 14.08-1.7 28.43 1.48 36.4 13.62 5.6 8.55 6.24 20.26 4.53 30.84q-1.75 10.83-10.05 17.5m-39.693-27.311c.11 9.871 3.892 20.208 15.725 20.076s15.384-10.551 15.274-20.422-3.892-20.208-15.725-20.076-15.384 10.55-15.274 20.422M175.91 765.45v46.97a.68.68-89.867 0 1-.68.68h-16.3a.63.63 36.825 0 1-.63-.63v-67.1a.6.6 36.479 0 1 .6-.6h25.86a.888.877-9.104 0 1 .84.6l14.74 43.06a.344.344-44.849 0 0 .65 0l14.91-43.1a.782.781 9.375 0 1 .74-.53h26.29a.22.22-64.799 0 1 .22.22v67.55a.5.5-45 0 1-.5.5h-17.26a.6.59-90 0 1-.59-.6V765.3a.176.174 54.781 0 0-.34-.06l-16.42 47.46a.36.356-81.04 0 1-.34.25h-14.51a.962.957-9.296 0 1-.91-.65l-16.05-46.9a.165.163 35.853 0 0-.32.05M295.513 744.782q10.443-.001 12.068.046a.724.722 80.558 0 1 .659.472l25.15 67.13a.451.45 79.639 0 1-.42.61h-19.56a.562.56 80.517 0 1-.53-.38l-4.38-12.81a.669.662-8.65 0 0-.61-.444q-2.338-.058-12.373-.057t-12.372.059a.669.662 8.641 0 0-.61.444l-4.378 12.811a.562.56-80.526 0 1-.53.38l-19.56.002a.451.45-79.647 0 1-.42-.609l25.14-67.134a.724.722-80.566 0 1 .659-.473q1.624-.046 12.067-.047m-.04 40.985q5.042-.019 8.128-.133a.47.47-10.037 0 0 .429-.614q-3.17-10.12-6.7-19.9-.34-.95-.861-3.016-.728-2.863-1.097-2.862-.369.002-1.075 2.87-.505 2.07-.838 3.023-3.455 9.806-6.548 19.95a.47.47 9.601 0 0 .434.611q3.087.09 8.128.071M447.885 744.889l30.238.012a.509.506 89.96 0 1 .507.509v14.07a.64.63-90 0 1-.63.64h-20.11a.52.51 0 0 0-.52.51v51.86a.571.564 88.934 0 1-.543.57q-2.557.112-8.987.108-6.431-.004-8.988-.119a.571.564-88.858 0 1-.542-.572l.069-51.86a.52.51.076 0 0-.52-.51l-20.11-.027a.64.63-89.924 0 1-.629-.641l.019-14.07a.509.506-89.885 0 1 .507-.508zM512.06 812.6a.48.48 0 0 1-.48.48h-18.16a.48.48 0 0 1-.48-.48v-67.26a.48.48 0 0 1 .48-.48h18.16a.48.48 0 0 1 .48.48zM407.79 812.26a.52.52 75 0 1-.45.78H386.9a.786.765-12.684 0 1-.7-.43l-11.12-22.68a1.077 1.069-12.622 0 0-.97-.61h-7.38a.66.66 79.613 0 0-.66.66v22.52a.63.62 0 0 1-.63.62h-18.21a.49.48 0 0 1-.49-.48v-67.27a.33.33 45.011 0 1 .33-.33q4.58-.05 28.2-.09c12.52-.02 25.56 2.04 29.19 15.54 2.72 10.06-.8 21.04-11 25.36a.713.71 63.746 0 0-.34 1.01zm-41.87-52.82v16.36a.47.47 81.848 0 0 .47.47h10.51a9.08 7.89 0 0 0 9.08-7.89v-1.52a9.08 7.89 0 0 0-9.08-7.89h-10.51a.47.47-84.125 0 0-.47.47M578.27 787.53a.202.201-61.4 0 0 .37-.11v-42.06a.3.3-54.469 0 1 .3-.3h17.6a.5.5 45 0 1 .5.5v66.74a.78.77 90 0 1-.77.78h-19.29a.916.914-16.342 0 1-.77-.42l-25.74-40.07a.256.252 29.036 0 0-.47.13v39.84a.57.56 90 0 1-.56.57h-17.58a.76.76 45 0 1-.76-.76v-66.64a.66.65-90 0 1 .65-.66h18.81a.813.789 73.045 0 1 .67.37zM635.07 812.58a.58.58 0 0 1-.58.58h-17.98a.58.58 0 0 1-.58-.58v-67.02a.58.58 0 0 1 .58-.58h17.98a.58.58 0 0 1 .58.58zM768.753 799.519c8.45-.006 12.533-5.896 12.474-13.772q-.127-17.287-.127-40.097a.54.54-45 0 1 .54-.54h18.07a.5.49-.585 0 1 .5.48q.25 24.48-.08 42.4-.36 19.99-19.599 24.781-6.102 1.518-11.767 1.523t-11.769-1.506q-19.246-4.763-19.635-24.752-.356-17.92-.142-42.4a.5.49.501 0 1 .5-.481l18.07-.026a.54.54 39.063 0 1 .54.539q.034 22.81-.068 40.097c-.047 7.876 4.043 13.76 12.493 13.754M862.61 772.88v12.67a.51.51 0 0 1-.51.51h-24.47a.51.51 0 0 0-.51.51v11.82a.51.51 44.964 0 0 .51.51h29.3a.51.51 0 0 1 .51.51v13.19a.51.51 0 0 1-.51.51h-48.84a.51.51 0 0 1-.51-.51v-66.97a.51.51-45.004 0 1 .51-.51h48.12a.51.51 25.18 0 1 .51.51v13.31a.51.51 0 0 1-.51.51h-28.65a.51.51 0 0 0-.51.51v11.9a.51.51 0 0 0 .51.51h24.54a.51.51 44.996 0 1 .51.51" data-source="https://football-logos.cc"></path><!-- source: https://football-logos.cc --></svg>