<svg xmlns="http://www.w3.org/2000/svg" fill-rule="evenodd" viewBox="24.01 98.91 549.23 645.61"><!-- Source: https://football-logos.cc --><path d="M298.628 98.907c-66.012 1.321-95.057 69.973-235.004 56.771-13.203 23.764-39.94 64.872-39.607 64.693 46.208 64.692 38.658 137.818 45.324 275.123 6.68 137.611 175.157 148.68 229.287 249.02 54.13-100.34 221.29-110.378 229.542-249.531 9.059-152.677-1.137-209.92 45.07-274.612 0-.154-26.404-40.929-39.605-64.693-139.947 13.202-168.994-55.45-235.007-56.771" style="stroke:none;fill:#0079b8" data-source="https://football-logos.cc"></path><path d="M229.976 157.793s-.265 39.173-.001 47.095c.265 6.336 8.956-1.636 20.663-9.998 9.331-6.666 11.079-14.892 12.664-24.661 1.055-7.922-3.605-19.662-7.999-21.996-12.27-4.331-25.327 9.56-25.327 9.56M357.777 193.175c8.186-.529 18.485 4.752 18.485 4.752s-1.789-29.348-2.317-34.364c-.791-6.337-10.271-11.217-11.332.667-1.845 17.69-3.517 16.535-4.836 28.945M479.768 167.827c23.763 2.904 34.853 0 34.853 0l-19.365 21.73s-7.039-10.377-15.488-21.73M316.574 239.864l-.215-24.509 8.715-1.849s21.387-45.416 10.824-58.618c-.527-.529-7.773-5.914-7.863-6.655-.334-2.667-5.334-29.328-5.334-29.328s-21.074-11.331-46.068-2c33.326 34.326-9.516 85.237-9.516 85.237s3.432 10.034 7.657 15.843c5.808 8.186 14.523 11.354 14.523 11.354v9.928c3.054-.132 6.113-.233 9.198-.233 6.095 0 12.114.319 18.079.83M246.821 217.885s-11.997 8.665-15.745 10.478c-1.388.672-1.154 12.849-.932 22.184 5.493-1.902 11.072-3.62 16.761-5.066.041-11.425-.084-27.596-.084-27.596M441.932 257.21s6.148-5.681 6.675-11.225c2.643-21.652 1.991-29.1 1.325-44.43.666-9.331-10.332-13.998-13.664-17.331-.934-.933-4.334-21.995-4.334-21.995s-14.661-1.999-31.325-11.33c-.527 7.129 15.258 79.243 15.258 79.243s8.188 5.281 8.188 8.714v41.955c6.211 4.649 12.121 9.669 17.777 14.961.018-9.204.1-38.562.1-38.562M492.256 322.271c16.664-1.407 16.437-13.691 20.328-24.069 5.332-26.661 8.223-91.183 7.334-89.982-11.33 15.331-23.781 33.277-23.781 33.277l-26.405-35.12s-1.318 25.878-.791 45.681c0 6.337 6.073 11.882 6.073 11.882s.187 39.013.564 72.461a209.6 209.6 0 0 1 15.012 27.98v-35.518c-.166-5.333 1.129-6.547 1.666-6.592M189.048 269.983v-26.638l12.146-5.281c19.012-29.047-9.212-38.508-9.212-38.508s.529-26.162 0-43.326c0-1.584-19.328 6.666-19.328 6.666v46.209s-21.997-1.551-23.33-.218c-3.998-15.997-46.356-34.195-61.671 2.508-3.697 9.241.35 17.987.516 18.154.835 2 7.956 9.324 24.497-.999l.071 37.239c-3.168-1.585-6.073-2.113-6.073-2.113s-18.484-5.281-18.484 5.282c0 55.714 5.284 49.279 18.486 53.239.907.273 1.379 4.508 1.5 11.497.229 4.636.178 16.097.057 27.194 17.465-37.66 45.729-69.312 80.825-90.905M373.619 226.973s2.643-2.904 2.906-3.96c2.11-6.866-.263-12.674-.263-12.674s-3.17-3.697-21.389-6.074c.791.792-6.34 14.259.264 17.427l-1.194 24.833a208 208 0 0 1 19.774 6.473c.035-12.966-.098-26.025-.098-26.025" style="stroke:none;fill:#fff"></path><path d="M88.8 448.996c0 115.628 94.07 209.698 209.697 209.698 115.773 0 209.962-94.07 209.962-209.698 0-115.773-94.189-209.961-209.962-209.961-115.627 0-209.697 94.188-209.697 209.961" style="stroke:none;fill:#522c29"></path><path d="m431.387 372.998-3.401-4.302c-4.359-5.531-8.867-11.249-13.56-16.424l-6.024-6.159c-5.523-5.993-11.24-12.189-19.504-13.041l-.289-.028-.218.192c-5.006 4.403-10.684 8.677-15.698 12.448l-1.726 1.299c-7.547 6.415-16.715 11.348-26.237 16.255-7.99 3.57-16.289 7.277-24.72 9.941l-1.35.374c-2.055.56-4.18 1.139-6.137 2.208-18.945 5.147-35.167 8.268-50.905 9.766-16.576 2.118-32.219 2.249-48.782 2.389h-.159l-.141.074c-1.196.617-8.952 12.611-9.355 14.965-8.019 23.394-12.162 46.555-12.289 68.737v1.148c-.004 12.039-.008 24.487 4.138 35.377 3.567 3.419 7.839 4.727 12.2 3.934 3.778.01 7.756-.425 11.605-.844l10.527-.833c25.868-1.607 47.992-4.554 67.664-9.016 11.849-2.718 24.454-5.863 36.384-10.438 7.274-1.91 14.514-4.638 21.516-7.278 5.775-2.175 11.748-4.426 17.722-6.207 22.194-9.492 45.717-20.239 67.844-34.673 5.381-4.437 5.537-11.701 5.688-18.728l.338-6.647c-.127-15.851-5.362-31.206-15.131-44.489" style="stroke:none;fill:#cf992f"></path><path d="m464.625 493.785-.098-1.463c-.138-6.922-2.023-13.495-3.849-19.007-.502-4.886-2.91-9.385-5.24-13.738l-3.801-7.857-.098-.153-.906-1.305c-1.19-1.864-2.985-4.681-6.229-3.524-.086.04-2.342 1.221-2.342 1.221-4.568 2.39-9.292 4.86-13.789 8.15.063-.042-8.308 4.407-8.308 4.407l-21.237 11.586c.067-.033-.867.379-.867.379-4.535 1.996-8.82 3.884-12.951 6.679l.002-.003c-.023 0-9.961 4.303-9.961 4.303-4.631 2.178-9.418 4.43-14.394 5.73-2.485 1.732-5.192 2.61-7.811 3.461-2.473.802-5.027 1.633-7.258 3.096-5.008.816-9.875 2.708-14.584 4.538-5.469 2.125-11.121 4.322-17.306 4.92-8 3.152-16.511 4.467-24.739 5.74-5.501.852-11.189 1.73-16.701 3.138-17.89 2.908-35.296 4.071-53.724 5.3l-16.746 1.163-3.045 2.201-.07.193a6.7 6.7 0 0 0-.388 2.304c0 1.435.38 2.845.729 4.143l.186.696c1.405 5.131 3.27 9.995 5.074 14.702l1.495 3.929c.043.092.213.395.213.395 1.434 2.558 3.062 5.361 4.861 7.104-.139.298-.345.606-.345.88 0 .781.452 1.456.791 1.968.3.445.582.872.582 1.252 0 .021-.021.285-.021.285l7.074 11.327c4.168 6.913 8.477 14.061 12.321 18.333 6.492 8.2 12.216 14.507 20.6 20.501 6.936 8.498 18.595 7.968 28.881 7.501l5.893-.203c.111-.011 5.038-.902 5.038-.902 22.91-4.131 46.603-8.406 68.443-16.44l10.904-4.356c5.168-1.921 10.512-3.908 15.52-6.652l10.984-5.906c20.072-10.711 39.033-20.857 55.938-36.526l.886.342.168-.021c.627-.082.903-.393 1.024-.638.076-.156.107-.314.107-.473 0-.411-.228-.8-.422-1.135l3.326-3.726c1.889-1.907 3.846-3.876 5.215-6.782 1.424-6.668 1.893-13.55 1.893-20.477 0-6.866-.461-13.779-.918-20.58M344.428 275.741c-3.028-3.112-29.606-30.266-35.1-30.413l.115.015c-9.199-2.789-21.222-1.911-31.771-.87-.24.072-1.565.546-1.565.546-1.445.431-3.629 1.084-2.973 3.791.803 1.691 2.144 2.408 3.325 3.041.936.501 1.819.974 2.357 1.805l.088.137.144.082c4.259 2.394 8.03 6.015 11.678 9.517l4.168 3.901c-.051-.05 7.217 7.865 7.217 7.865 5.58 5.986 11.348 12.174 15.954 18.468l.982 1.461c5.65 8.38 11.49 17.046 15.586 26.674l.078.183.168.109c.806.541 1.344 1.46 1.865 2.35.731 1.249 1.596 2.582 3.236 2.859.114.914.614 2.746 1.944 7.096.613 2.013 1.381 4.518 1.4 4.936l.004.124.037.209c.795 1.813.947 3.974 1.094 6.064.199 2.806.402 5.709 2.123 7.993l.125.163.191.066c5.213 1.792 9.678-1.634 13.614-4.654l4.773-3.256c.123-.081 5.02-3.896 5.02-3.896 4.437-3.37 8.627-6.552 11.859-10.931.621-1.128.85-2.412.85-3.697 0-1.593-.35-3.187-.746-4.485-10.274-18.919-23.047-32.049-37.84-47.253" style="stroke:none;fill:#cf992f"></path><path d="m323.082 247.057-.41.178-.008.498c.014.825 1.746 2.622 12.361 12.823 8.327 8.003 18.69 17.963 22.995 23.388 3.423 1.831 7.275 1.55 10.998 1.28l4.515-.185c13.93-.987 28.75 1.257 45.371 6.857-.242-.145 2.045 1.131 2.045 1.131 1.26.534 1.869.937 2.053 1.495-16.664-3.163-33.897-6.428-51.027-4.482-1.168.66-2.817 1.672-2.817 3.487 0 .362.067.758.213 1.189 4.285 6.569 8.582 12.413 13.135 18.601l7.556 10.397c.09.103 10.829 9.468 10.829 9.468 6.209 5.243 12.07 10.195 17.457 16.187 10.98 10.913 19.793 23.949 26.214 38.774.04.076.758 2.395.758 2.395.198 1.064.471 2.137 1.268 3.035l1.291 5.022c1.422 5.31 2.775 10.371 2.775 16.02q.002 1.546-.142 3.157c.09.977.127 1.964.127 2.954 0 2.258-.192 4.531-.373 6.755-.184 2.232-.371 4.495-.371 6.72 0 3.554.476 7.017 2.201 10.115l1.435 1.068c5.58 8.982 11.785 20.092 14.043 32.895 2.08 8.872 2.715 18.779 2.715 28.561 0 8.509-.482 16.92-.914 24.475l-.037.674c-.17.746-.25 1.497-.25 2.244 0 2.207.724 4.382 2.15 6.344 3.035 2.529 6.278 4.485 10.213 2.533l.184-.088 1.97-3.492.145-.24a204.3 204.3 0 0 0 15.924-45.359c1.547-7.794 3.054-16.801 4.115-26.239.559-6.164.889-12.392.889-18.696 0-104.09-77.549-190.36-177.897-204.194a4.5 4.5 0 0 0-.533.398c-.465.394-1.16.987-3.166 1.857M143.393 314.547l-.067.319-.566 1.874c-.563 1.393-1.334 3.302.318 4.218.055.027 11.173 4.558 11.173 4.558 5.385 2.105 10.472 4.093 15.435 6.607 2.216 2.071 5.214 3.989 8.112 5.843 4.888 3.127 9.942 6.361 12.352 10.985.173.209 1.007.88 1.007.88 2.823 2.26 5.741 4.597 7.169 7.54 4.745 6.272 9.526 13.023 12.812 20.646 1.545 4.788 6.021 4.988 9.971 5.165 1.731.076 3.367.15 4.783.555l.21.059.204-.075c1.259-.463 2.878-.423 4.593-.381 3.136.078 6.691.165 8.453-3.165.084-.752.122-1.498.122-2.24 0-4.346-1.312-8.529-2.586-12.593l-1.707-5.888a60 60 0 0 0-.45-1.103c-.388-.873-.667-1.568-.667-2.186 0-.372.152-.712.389-1.054.164-.015.261.091.521.467l.995.799 2.269 7.322c1.796 6.216 3.83 13.263 7.051 17.487l.514.676.534-.66c.343-.424.405-.5 1.463.277 1.382 1.012 3.693 2.706 7.703-.859l.258-.229-.039-.343c-.419-3.771-3.974-11.244-7.112-17.837-1.838-3.86-3.571-7.506-4.133-9.348-.417-1.43-1.432-2.831-2.414-4.188-1.003-1.385-2.041-2.82-2.232-4.071-4.949-13.549-15.281-23.467-25.273-33.058l-1.156-1.111-6.037-4.165c-2.975-2.171-6.054-4.415-9.374-6.04-8.917-5.436-18.794-10.355-30.228-9.349l-.162.015-.139.088c-3.001 1.91-5.782 4.116-8.44 6.498a211 211 0 0 0-4.432 4.232c-3.866 3.963-7.492 8.292-11.114 12.73zM120.997 536.79c-3.445-8.711-7.278-34.757-8.308-51.497-1.993-24.791 2.591-50.201 6.807-69.567-.009.039 5.252-16.359 5.252-16.359l5.787-18.193c.007-.001 6.51-14.457 6.51-14.457 2.544-5.923 5.176-12.048 8.175-17.765.616-2.248 1.648-4.137 2.741-6.138 1.648-3.017 3.349-6.132 3.349-10.082q0-.282-.012-.572l-.007-.149-.068-.132c-2.567-4.913-8.477-4.814-13.692-4.728l-3.158.011-.174.09c-1.647.954-3.055 2.183-4.297 3.579a207 207 0 0 0-4.193 6.22 77 77 0 0 0-1.049 2.011c-.95 1.256-1.79 2.535-2.635 3.811-2.835 4.707-5.461 9.549-7.92 14.489-.3.656-.632 1.342-.916 1.976-.332.546-.585 1.126-.88 1.689-12.633 26.699-19.73 56.515-19.73 87.969 0 44.041 13.942 84.86 37.582 118.375a419 419 0 0 0-2.069-6.067c-2.909-8.398-6.895-19.902-7.095-24.514" style="stroke:none;fill:#cf992f" data-source="https://football-logos.cc"></path><path d="m253.012 638.732 2.494-4.533c.466-1.039.673-1.999.673-2.895 0-4.011-4.127-6.708-7.567-8.954-1.609-1.053-3.129-2.044-4.042-3.022-10.489-8.612-20.687-18.824-33.135-33.176-.181-.163-.261-.316-.261-.477q0-.103.042-.211c.069-.185.233-.253.382-.326.59.598 11.194 11.392 11.194 11.392 10.218 10.645 21.797 22.708 33.157 29.838l.162.103h.193c1.4 0 1.77-.768 2.241-1.738l.663-1.252c.504-.871-.497-1.609-2.012-2.727-.665-.493-1.781-1.315-1.904-1.643l-.09-.237-.256-.327c-4.069-2.13-7.093-5.052-10.017-7.876-2.012-1.942-4.092-3.952-6.463-5.64-8.793-6.71-15.473-16.091-21.932-25.165l-3.426-4.777c-1.248-2.967-2.975-5.762-4.644-8.467-2.133-3.456-4.338-7.029-5.626-11.169-3.429-4.408-4.807-9.508-6.268-14.908-1.101-4.071-2.239-8.281-4.287-12.07q.008.021.008-.014c0-.274-.356-3.061-.356-3.061-.591-5.234-1.104-9.004-2.329-9.864 0 0-.134-.029-.204-.042-1.574-5.036-2.035-10.993-2.459-16.775l-1.138-11.104a254 254 0 0 1-.255-11.392c0-25.748 3.918-50.87 11.691-74.779.893-3.387 2.471-5.904 3.996-8.339 2.103-3.355 4.095-6.532 4.095-11.422q0-.422-.02-.861c-3.582-9.107-11.589-21.364-17.33-28.383l-.024-.028c-4.23-4.632-14.078-12.007-20.661-15.472l-.398-.211-.344.293c-3.197 2.72-3.691 4.589-4.216 6.568-.381 1.439-.85 2.965-2.365 5.042-1.668.015-3.077 2.465-4.443 4.844-.556.97-1.408 2.425-1.954 2.944.296-2.206 3.187-6.895 5.616-10.788 2.429-3.892 4.528-7.253 4.789-9.004l.076-.512-.506-.318c-.634-.269-.986.153-2.936 2.491-1.042 1.247-3.022 3.591-3.958 4.201.205-.733.857-2.549 1.291-3.753.799-2.212 1.124-3.177 1.124-3.722a.83.83 0 0 0-.149-.507l-.561-.799-.595.786c-6.922 10.438-15.273 31.607-20.32 46.561l-5.24 13.409-6.623 17.235c-.023.077-2.007 8.293-2.007 8.293-2.498 10.099-4.305 17.397-4.853 32.693 0 .124.034 4.203.034 9.745 0 9.977-.109 24.687-.713 29.573 2.25 20.303 5.635 44.031 13.674 67.242a115.2 115.2 0 0 0 13.814 27.441c25.439 28.23 58.571 49.367 96.047 60.164l3.247.601c4.343-.73 6.384-4.975 8.184-8.719M473.877 549.935l-.016-.056-.023-.055c-.938-2.039-1.781-2.594-2.85-3.294l-1.515-1.096c-5.184-2.442-9.01.801-12.389 3.66l-2.215 1.803.287.024c-1.974.253-7.777 5.147-10.422 7.464-6.197 5.476-13.4 10.025-20.369 14.426l-11.22 7.327c-20.006 13.358-42.971 23.68-70.202 31.549-3.459.485-6.796 1.639-10.021 2.757-4.022 1.39-8.18 2.83-12.737 2.983-12.222 3.933-23.99 4.727-36.449 5.568l-6.825.481c-1.376.521-3.246.299-5.053.089-2.778-.327-5.65-.662-7.369 1.107-.121.175-1.158 1.804-1.158 1.804-.926 1.344-1.879 2.729-1.879 3.844q0 .227.055.438c.118.435.408.772.843.978 7.026 2.42 16.281 2.571 25.233 2.716 5.5.09 10.695.174 15.214.757l.01.005c-16.168 2.328-29.449 2.049-40.546-.889l-.226-.06-.215.094c-3.39 1.514-6.054 5.184-8.146 11.222-.58 2.234.996 3.001 2.146 3.56l.873.459c.633.595 1.89 1.163 3.524 1.69 12.412 2.344 25.196 3.623 38.28 3.623 73.983 0 138.962-39.139 175.347-97.754.582-2.215.716-4.598.033-7.224M178.213 286.475l.104.131.154.067c25.019 10.859 52.309 25.779 65.004 54.085 6.398 9.53 11.694 21.297 15.794 35.076.788 1.904 2.105 4.426 4.702 5.096 12.625.244 24.465-2.832 35.916-5.807l9.289-2.347c1.629-1.082 3.566-1.573 5.441-2.049 3.526-.892 7.52-1.905 8.295-6.504-.303-5.05-2.021-9.4-3.684-13.609-1.269-3.215-2.568-6.543-3.232-10.073 1.014-1.502 1.383-3.124 1.383-4.799 0-1.251-.17-2.523-.336-3.779l-.227-3.749h.166c1.301 1.514 3.012 6.475 4.651 11.806-.344-.354-.69-.742-1.03-.902-.925-.431-1.83-.197-2.544.659-1.463.802-.36 5.285 4.732 18.293l1.271 3.385c.815 2.851 4.393 3.605 6.378 3.605h.162l2.126-1.083c2.59-1.281 5.526-2.731 7.124-4.962 1.058-3.064.74-5.718.402-8.527l-.281-2.737c-5.957-20.877-14.789-38.252-27.024-53.251-2.99-3.028-5.498-6.252-7.924-9.37-3.48-4.47-7.08-9.094-11.961-12.953l-8.915-7.483c-6.2-5.518-12.613-11.226-20.76-13.862-8.811-5.404-35.07 5.321-35.335 5.43-.794.48-1.101 1.267-.861 2.008.14.431.83 1.825 3.831 1.605 1.022-.075 2.952-.732 5.188-1.494 2.551-.869 5.443-1.854 7.153-2.005 2.566-.23 4.019.301 4.524.875.129.148.149.247.151.289-.166-.062-2.466.795-2.466.795-4.386 1.476-7.78 2.736-8.261 4.4a1.5 1.5 0 0 0-.061.417c0 .29.088.63.372.978 1.125 1.383 2.87 2.618 4.559 3.813 1.283.907 2.556 1.832 3.511 2.791 3.076-1.606 6.781-3.415 11.833-3.159l5.628 1.197c.846 3.125-2.34 3.215-4.137 3.856-2.054.211-5.226.276-6.254 2.351-.063 1.826 3.49 5.61 4.954 6.646 3.336 2.227 3.074 1.937 7.022 2.214 2.207-.625 8.917-5.175 11.445-3.258.929.735 1.44 1.738 1.522 3.289-2.274 2.594-9.037.811-11.069 4.257-1.149 1.649 2.998 4.044 3.767 5.479 1.871 1.192 1.296 3.846 3.774 3.229 3.951 1.472 9.594-6.843 12.305-2.385.219 1.554-.399 2.201-1.669 3.424-2.401 2.308-8.164.594-7.785 5.392.779 1.152 3.925 5.737 4.012 7.146-3.813-.272-5.788-7.36-9.713-8.341-4.744 2.169-8.485 4.781-10.289 1.762-.574-3.116 13.386-4.176.729-13.061-3.865-6.608-10.418 5.124-14.633.755.107-3.092 7.509-3.959 5.99-7.39-2.068-3.309-5.597-7.794-9.298-7.36-3.599 1.423-11.242 9.176-15.228 6.081-.803-.449-.492-2.168-.458-3.151l11.164-6.666c.315.012.63-.013.948-.059-2.347-.936-3.958-2.581-5.103-3.82-.869-.938-1.443-1.559-2.12-1.617-5.612-3.429-13.269 1.674-19.422 5.774-.215.144-.869.579-2.116-.182-.432-.261-.434-.459-.434-.523-.017-1.184 3.579-3.508 6.206-5.207 2.258-1.459 4.39-2.838 5.535-4.078.496-.538.471-1.013.363-1.316-.335-.939-1.779-1.209-3.78-1.488l-1.177-.2-.248-.008c-4.142.863-12.507 4.777-20.591 9.182a206 206 0 0 0-18.052 11.518c-.096.137-.177.259-.177.259-.925 1.371-2.321 3.44-.925 5.199" style="stroke:none;fill:#cf992f"></path><path d="M415.98 299.561c8.729 5.204 17.461 11.251 25.645 17.298.137 2.392-8.553-2.489-8.69-.66 2.331 2 12.665 8.665 9.51 10.223 1.364.281-12.113-7.722-17.842-12.223-1.228-1.968 10.088 3.917 8.997 1.666-4.231-4.499-14.893-12.085-20.213-16.163-.137-1.546 1.773-.422 2.593-.141M364.818 310.109c2.184 3.375 4.778 6.891 5.733 10.969h-1.367l-9.956-15.048v-1.827c3 .562 3.68 3.937 5.59 5.906M318.98 316.859c2.321 2.531 1.092 7.594 4.368 9.281 4.363 7.454 6.002 15.47 9.55 23.205v2.672c-2.458.281-3.138-2.813-4.23-4.782-4.094-13.5-9.416-26.157-15.963-38.392l.139-2.109c2.863 2.249 3.543 7.172 6.136 10.125M356.633 336.408c-.545.561.275 1.968-.817 1.968-3-2.672-3.275-7.313-5.867-10.548-3.004-6.609-6.14-13.922-10.096-19.828l.274-1.266c7.639 8.016 11.185 19.688 16.506 29.674M354.041 307.578c4.912 5.202 7.232 11.812 9.551 18.281-3.41-.843-3.82-12.094-8.188-11.953-3.273 0-4.5-3.375-5.32-6.047.412-2.391 1.092-.844 3.957-.281M293.878 321.078l-.273 1.265c-3.956 1.97-8.321 4.079-12.687 3.516-.273-.28-1.092-.843-.819-1.546 3.956-2.672 8.323-4.642 13.371-4.079zM227.167 357.362c.817 5.624 5.865 9.844 4.229 16.031-4.912-6.187-5.185-15.048-9.004-21.939-1.773-5.765-6.14-10.827-8.322-16.594l.409-.985c5.594 7.032 8.186 15.751 12.688 23.487M138.898 340.485c-3.683 5.907-4.091 13.5-8.185 19.408-.544 0-.682.984-1.363.562-1.229-2.249.273-4.782 1.363-6.891 2.729-4.922 3.411-11.11 7.367-15.188 1.229-.141.683 1.407.818 2.109M169.185 356.94c-.954 1.827-1.364 4.358-3.273 5.343 0-2.39.818-5.203 2.864-6.047zM264.956 367.909c-.546 1.265-1.5.141-2.319.141l-3.137-9.001.408-1.265c1.773 3.093 4.639 6.187 5.048 10.125M220.754 363.408c.546 3.375 2.592 6.469 2.046 9.563-3.273-3.938-3.273-9.281-5.729-13.782l.41-1.124c2.046.843 2.455 3.516 3.273 5.343M188.694 375.924c-2.864 8.016-3.41 16.877-7.367 24.33-.954.281-1.227-.844-1.091-1.547 1.91-8.157 3.956-16.594 8.05-23.485zM121.71 381.972c0 .844-.956.281-1.502.422-.409-2.39.819-4.36 2.048-5.626 1.5 1.407.272 3.797-.546 5.204M190.331 391.535c-1.091 3.516-2.045 7.453-3.955 10.547-1.092-.563-.546-2.39-.411-3.375.819-5.062 3.138-9.703 5.048-14.204 2.184 1.829-.273 4.782-.682 7.032M413.387 420.646l4.228-3.236h.412zM406.02 436.398c.41-1.831 2.863-1.409 4.228-2.674 3.82-2.532 7.779-4.359 11.734-7.172-4.64 3.797-10.642 7.172-15.962 9.846M427.846 433.023c-9.412 6.185-18.551 12.656-29.057 16.453 9.276-5.485 19.102-10.69 29.057-17.018zM435.898 437.521c-11.732 10.125-27.421 16.031-41.613 23.203l-12.551 4.643c10.78-6.046 22.375-9.284 32.744-16.034 7.368-3.936 14.053-8.016 21.147-12.092zM436.853 460.444l4.092-2.953-1.636 1.688zM432.895 462.976l1.091-.987h.684zM440.533 465.085l2.32-1.687-1.908 1.687zM487.602 469.586c-.409 14.062-5.319 26.718-7.368 40.221-1.363 2.531-.953 6.889-4.363 7.454l-.273-2.392c2.045-7.876 5.457-15.327 6.412-23.767 2.455-3.236 1.092-8.298 2.32-12.095.543-3.375 1.227-6.89 2.727-10.125zM479.826 476.336c.819 4.923-1.365 9.703-2.047 14.483-.273.283-.816 1.409-1.365.705-1.229-5.485 1.776-10.125 2.867-15.188zM398.652 480.555c0 .983-1.092.561-1.634.844h-.413c.547-.422 1.229-.844 2.047-.844M238.08 504.319c-8.185 3.661-19.236 1.973-28.649 1.973-.819-.564-1.092-1.408-.273-2.109 9.141-1.973 17.053-.707 26.33-.707.955.285 1.91.285 2.592.843M445.174 520.915c1.228-.701 2.047-2.389 3.412-2.671-.41.844-2.184 1.688-3.412 2.671M451.312 524.433c-1.091 2.953-4.228 3.654-6.275 5.624h-.955c1.502-2.531 4.367-4.641 7.23-5.624M455.236 534.31c-1.228 3.237 1.944.389-1.195 3.201-1.09 1.125-2.182 2.251-3.82 1.829-4.229 4.78-10.231 7.733-15.414 11.249-6.686 3.517-12.688 9.001-19.784 11.532-1.773.562-2.625 3.972-2.759 1.862.543-3.093 3.955-3.796 6.41-5.625 9.277-6.75 19.576-11.039 28.308-18.632.956-.141 4.026-2.461 3.75-3.867 2.458-.843 1.776-1.407 4.504-1.549M443.672 530.339c-.955 2.109-3.819 2.673-5.727 3.937 1.364-1.406 3.137-3.658 5.727-3.937" style="stroke:none;fill:#522c29"></path><path d="M449.947 538.496c-.135.984-.955-.141-1.226-.141v-.563c.547 0 1.091.141 1.226.704M429.758 540.042l.82-.844-.275.703zM428.666 540.464c-2.455 2.251-4.775 3.517-7.502 5.062 1.363-2.531 4.91-3.375 7.502-5.062M241.628 550.448c-2.456.704-5.321-.281-7.64-.281 2.319 0 5.32-1.124 7.64.281M231.669 550.167c-2.729 0-5.594.703-8.05.985-2.592-1.687-5.32.703-8.186-.421 3.275-1.548 7.232.421 11.051-.844zM260.863 555.793c-1.636.562-4.365.983-5.73.422 1.638-.704 3.821-.282 5.73-.422M246.13 556.776c-2.183 1.688-5.185.844-8.05.705-5.321 1.124-11.596.843-17.053.28.41-1.266 2.319.281 3.683-.844h18.145c.955-.984 2.046.142 3.275-.141M464.547 557.059c-1.092 2.389-3.684 5.062-6.004 6.186 1.229-2.531 3.137-5.343 6.004-6.186M162.637 570.137c8.867 13.922 21.009 25.595 32.333 37.547 9.14 7.879 20.6 16.456 30.695 23.91 2.593.561 5.321 2.389 6.548 4.498-.954 1.83-3.137 0-4.501-.562-15.689-9.421-28.922-20.811-42.838-33.892-1.5-3.093-4.638-6.468-7.23-9.142-8.049-10.969-16.234-20.529-22.92-32.204l-.819-2.811c3.411 3.655 5.184 9.281 8.732 12.656M273.415 564.933c-9.141 2.39-19.101 1.265-28.241 2.673l-3.546-.564c2.727-.984 6.138-.138 9.686-.422 7.367-.844 14.461-1.828 22.101-1.687M241.218 567.323c-3.274-.139-7.367 1.828-10.641 0-1.501.141-3.002 1.269-4.775.563.546-2.11 3.274-.422 4.775-.563 3.411-1.125 7.23-.703 10.641-.561zM266.729 575.199v-.141h.956v.141zM265.365 575.482c-7.64 1.827-16.235.843-24.147 1.687-2.182-.282-4.638.704-6.957 0 2.727-1.548 6.138.422 9.413-.844 6.684-.282 14.598-.282 21.691-.843M133.988 576.745l-.136.142-.273-.986c.136.142.545.424.409.844M439.037 581.388c0-.984 1.496-2.249 2.588-2.814-.272 1.266-1.498 2.392-2.588 2.814M199.472 589.825c11.051 11.109 20.874 19.968 32.741 29.956l-2.591-.564c-13.916-11.67-30.423-24.611-39.563-40.221 3.546 3.096 6.548 7.032 9.413 10.829M283.647 582.793c.954-1.405 4.365-.561 6.139-1.405l1.774.139zM281.328 582.793c-3.411.422-6.959 1.97-10.778 1.126 3.001-.983 7.367-.704 10.778-1.126M422.391 582.653c-.545 1.548-2.866 1.126-3.821 2.11 1.229-.984 2.321-1.827 3.821-2.11" style="stroke:none;fill:#522c29"></path><path d="M196.061 596.153c9.55 10.547 20.464 18.423 31.242 27.425l1.091 1.688c-1.91.701-3.956-.987-5.594-2.11-7.639-6.188-15.142-12.941-22.236-18.987-4.911-6.188-12.416-12.517-16.645-19.406l.273-.844c4.365 3.093 7.504 8.999 11.869 12.234M264.956 584.763c-8.867 1.827-16.917.561-25.784 1.827l-.819-.844c1.637-1.967 6.14-1.405 9.277-1.265 6.139-.422 11.459.142 17.326-.422zM353.088 585.746c-4.776 2.674-10.914 3.375-16.098 5.485-14.734 6.048-31.652 7.314-47.068 9.703l-.136-.14c2.046-.983 4.911-.704 7.367-1.548 13.095-1.687 26.329-5.763 39.7-8.437 3.545-1.545 7.639-2.11 11.459-3.375 1.5-.844 3-1.688 4.776-1.688M305.065 589.121c-1.909.282-4.229 1.266-6.276.844 1.637-.701 4.641-.983 7.094-1.405zM401.652 594.466c3.549-1.266 6.413-4.641 10.1-5.906-2.457 3.235-6.961 3.514-10.1 5.906M296.061 590.387c-1.228 1.265-4.366.844-5.458.844 1.502-.562 3.684-.562 5.458-.844M289.376 591.231c-13.369 2.531-27.831 3.796-42.019 3.796.409-1.687 2.865-.983 4.366-1.405 12.551-.704 25.375-1.97 37.653-2.391M363.184 592.357c-7.504 3.514-15.553 5.766-23.331 8.577-18.418 4.218-36.697 9.002-54.979 10.549l-.682-.424c-5.456.424-11.187 2.252-16.507.843-.41-1.824 1.773-1.402 2.865-2.109 7.913.143 15.28-1.405 23.874-1.405 0 .139.136.282.273.425.681-1.688 3.001-.286 4.229-1.266 21.689-2.534 42.699-9.284 63.302-16.034.272.422 1.909-.282.956.844M400.018 595.31c-5.321 3.936-12.28 6.328-18.008 9.842l-1.229-.139 1.229-1.266c6-2.531 12.004-5.906 18.008-8.437M412.978 597.981c-3.822 4.922-10.505 6.328-15.96 8.3 2.726-2.673 6.002-3.378 9.275-5.065 2.184-1.266 4.23-2.814 6.685-3.235M288.694 600.512v.704c-6.275.844-13.506 1.827-20.463 2.249-3.821.422-6.686 1.266-10.369 0v-.844c10.369-.279 20.601-1.687 30.832-2.109M415.023 603.325c0 1.126-.82 1.97-1.912 2.113-13.093 8.716-28.375 17.014-42.699 20.25 5.459-3.518 12.414-3.94 17.465-7.876 9.683-3.236 18.006-10.265 27.146-14.487M390.469 609.371c-2.866 1.266-5.867 2.956-8.871 2.956 3.412-2.249 8.052-2.534 11.871-4.643-.276 1.83-2.727-.137-3 1.687M418.027 610.5c-.136 1.967-2.183 3.233-3.549 4.219-18.964 12.234-39.835 21.373-62.074 26.718-3 1.405-6.275 1.69-9.414 2.391 0-.282-.408-.422-.408-.701.82-2.112 3.273-1.269 4.912-2.112 24.691-6.611 48.158-15.61 68.893-30.515zM299.336 641.719c.818 1.545 2.182-.422 3.137.844-7.367 1.123-15.689 2.531-22.51-.422-.137-.844.819-1.126 1.365-1.266 6.002.279 12.004 1.266 18.008.844M454.553 528.862c-1.225 3.233 1.943.385-1.194 3.199-1.091 1.126-2.183 2.249-3.818 1.827-4.229 4.783-10.232 7.736-15.416 11.253-6.685 3.514-12.69 8.999-19.785 11.53-1.772.562-2.625 3.974-2.762 1.864.547-3.094 3.957-3.797 6.412-5.626 9.28-6.75 19.578-11.038 28.307-18.633.959-.14 4.027-2.46 3.756-3.869 2.455-.843 1.771-1.405 4.5-1.545M232.282 498.698c-8.186 3.655-19.236 1.967-28.649 1.967-.819-.564-1.092-1.408-.273-2.109 9.14-1.97 17.054-.701 26.33-.701.955.279 1.911.279 2.592.843M226.484 493.071c-8.185 3.655-13.438 2.178-22.851 2.178-.819-.561-1.842-1.756-1.023-2.46 9.14-1.97 12.005-.561 21.282-.561.954.279 1.91.279 2.592.843M244.27 398.659c-7.918 4.236-19.056 3.348-28.446 4.024-.855-.502-1.184-1.324-.414-2.084 8.984-2.621 16.963-1.928 26.218-2.595.972.211 1.923.143 2.642.655M238.105 393.465c-7.918 4.236-13.257 3.141-22.648 3.817-.855-.501-1.955-1.62-1.187-2.381 8.985-2.621 11.938-1.424 21.193-2.091.972.211 1.924.142 2.642.655M202.882 625.585c-4.926-3.215-11.058-7.212-11.583-7.826-13.357-12.551-25.901-27.135-39.581-46.045-.593-1.938-1.972-3.502-3.306-5.013-1.389-1.576-2.659-3.113-3.068-5.135.782.572 1.503 1.405 2.174 2.373l1.835 2.32q-.012-.016-.012-.003c0 .09.446 1.152.446 1.152.307.92.794 1.962 1.927 2.535 5.027 8.727 12.14 16.489 19.02 23.996l8.376 9.339.307.01h.381c4.546 5.897 10.319 10.055 16.439 14.437 4.299 3.077 8.744 6.261 12.702 10.106l-.001.003c0 .09.366.965.366.965.17.414.405.934.597 1.393a979 979 0 0 0-7.019-4.607M341.369 325.207c.053-.087.109-.174.109-.174.598-.98.879-1.255 1.485-1.068 3.25 3.167 4.432 7.711 5.68 12.52l1.306 4.619c-.037.066-.052.091-.099.178-1.071-.6-2.959-4.741-4.143-7.383-1.82-4.06-3.068-6.633-4.338-7.494z" style="stroke:none;fill:#522c29" data-source="https://football-logos.cc"></path><!-- source: https://football-logos.cc --></svg>