<svg xmlns="http://www.w3.org/2000/svg" viewBox="0 0.03 548.9 579.01"><!-- Source: https://football-logos.cc --><path fill="#fff" d="m545.4 435.4-64.7-67.1a241.1 241.1 0 0 0-19.6-280.8l-.9-1.1h.5l-9.5-10.1a241.2 241.2 0 0 0-352 0l-9.5 10h.5A241.4 241.4 0 0 0 68.4 366L3.6 433.2 0 436.9l3.1 4.1.7.9 3.1 4.1c1.6 2.2 3.3 4.4 5 6.6a340.2 340.2 0 0 0 53.8 53.5 337.2 337.2 0 0 0 417.5 1.1 340.3 340.3 0 0 0 53.7-52.8c2.8-3.4 5.4-6.8 8.1-10.3l.7-.9 3.2-4.1Z" data-source="https://football-logos.cc"></path><path fill="#051939" fill-rule="evenodd" d="m98.9 83.7 90.2 54.5-98.4 253.6h72.9l25.6-67.7 66.6-60.4 106.5 128.2h99.3L308.5 218.1 455.1 83.7h-90.7L246.4 187l35.2-103.3z"></path><path fill="#051939" fill-rule="evenodd" d="M275.2 4.2a234.8 234.8 0 0 1 171.7 74.3h-9a228.9 228.9 0 0 0-325.3 0h-9A234.8 234.8 0 0 1 275.2 4.2M16.5 436.1a324.9 324.9 0 0 0 516 2.1l-63-65.4q-3.9 5.6-8 11l-4.4-5a228.9 228.9 0 0 0-5.2-285l4.6-4.3a235.4 235.4 0 0 1 16.6 277.8l68 70.5-.7.9c-2.6 3.4-5.3 6.8-8 10.2A331.4 331.4 0 0 1 16.6 447c-2.8-3.4-5.3-7.1-8-10.6l-.7-.9 68-70.6A235.4 235.4 0 0 1 95.4 87.7l5.6 3.4A228.9 228.9 0 0 0 91.2 376l-2.8 7.1q-4.7-6.1-8.9-12.4zm433.8-39a236.7 236.7 0 0 1-35.4 32.1l2.6-10.2a230 230 0 0 0 23.9-21.9Zm-54 44.5A235.4 235.4 0 0 1 100.2 397h8.8a228.9 228.9 0 0 0 287.5 36.9z"></path><path fill="#df1f26" fill-rule="evenodd" d="M158.7 78.5c8.8-11.3 14.5-26.6 28.5-32.3a35.2 35.2 0 0 1 12.8-2.5 64.4 64.4 0 0 1 11.1.9c7.8 1.2 18.1 4.1 25.9 2.1 16.5-4.2 24.1-19.5 43.3-19.7 7.8-.1 14.1 2.4 20.4 6.8s13.4 12.1 22 14.3 20.4.9 30 .7 20.1.8 29.3 6.2 12.1 14.8 16.1 23.5h-8.4c-2.7-6-6-13.5-11.6-16.7-17.5-10.2-38.6-1.1-57.3-6.1-16.2-4.2-23.7-21-40.4-20.8a27 27 0 0 0-13.2 3.7c-10.1 5.6-16.3 12.7-28.3 15.8-16.1 4.1-33.2-7.2-48.8-.9a20 20 0 0 0-3.1 1.6c-7.7 4.8-13 14.6-19 23.5ZM437 107.3a41 41 0 0 1 14.5 11.6 31.3 31.3 0 0 1 5 9.4c2 5.9 2.4 12.1 2.4 18.3s-.8 17 1.5 23.9c4.6 13.9 12.9 18.6 20.7 29.4a34.7 34.7 0 0 1 6.8 18c2.2 25.5-13.2 27.8-15.7 47.9-2.2 17.4 9.4 37.6.8 54.8a42.3 42.3 0 0 1-9.4 12.2c-5.1 4.7-11.1 8.4-16.8 12.4a89.3 89.3 0 0 0-11.3 9.3l-5.2-5.8a98 98 0 0 1 11.9-9.8c5.3-3.8 11.2-7.3 16-11.8a34.5 34.5 0 0 0 7.7-10 19.6 19.6 0 0 0 1.1-2.8c4.4-13.7-4.7-33.8-2.7-49.5 1.3-10.5 4.9-15.7 10.4-24.3s6.1-13.1 5.3-22a26.9 26.9 0 0 0-5.3-14.1c-3.2-4.5-7.4-8.5-11-12.7a55.4 55.4 0 0 1-10.8-18.8c-5-15.3 2.5-36.2-7.6-49.2a33.7 33.7 0 0 0-13.1-10l-1.5-.7 6.2-5.6Zm-20 289.8a28.5 28.5 0 0 1-5.9 6.9c-13.6 11.6-33.5 6.4-48.9 12.9-18 7.7-23.3 24.8-44.5 29.6-8.7 2-16.4.8-24.6-2.3-6.3-2.4-12.6-5.8-19.1-7.4a27.4 27.4 0 0 0-5.4-.8c-18.3-.7-28.5 13-48.9 7.7a39.9 39.9 0 0 1-14.4-7.2c-10.2-7.8-18.1-21.2-28.6-27.3-4.4-2.5-11.6-3-16.6-3.5-7.4-.7-16.3-1.5-22.2-6.5l-2.1-2.1h17.6c8.8 1.4 20 1.3 27.2 5.4 15.3 8.8 23.5 29.2 41.1 33.8 6.5 1.7 11.9 1.1 18.2-1 10.4-3.4 17.5-7.4 29.1-7 17 .6 29.2 14.8 47.2 10.7 7.1-1.6 12.3-4.9 17.6-9.8 8.7-7.8 14.3-14.7 25.5-19.5 5.7-2.4 11.8-3.4 17.9-4.1 9.2-1.1 21.6-1.3 29-7.5l1-.9Zm-311.2-58.6-6-4.4c-10.8-7.9-18.2-15.3-22.7-28.3s-3.8-22.2.1-34.2c1.8-5.7 3.3-11.2 2.8-17.2-1.4-16.5-16.4-30.7-13.9-48 3.3-22.8 22-26.1 29.4-44.2 2.5-6.2 2.8-14.5 3.1-21.1.5-9.6 1.2-21 7.3-28.9a38.3 38.3 0 0 1 12.8-10.5l7.9 4.8c-5.8 2.7-11.2 5.9-14.6 10.3-8.2 10.6-3.7 34.2-9.3 48.2-4.9 12-12.4 16.7-20.6 25.6-4.6 5-7.3 10-8.3 16.8a20 20 0 0 0-.2 3.6c.3 7.8 5.2 16.6 8.4 23.7s5.1 12.2 5.7 18.9c1.6 18-9.6 31.3-3.3 49.5 4.4 12.4 14.3 19.9 24.4 27.5l-3 7.7Z" data-source="https://football-logos.cc"></path><path fill="#df1f26" fill-rule="evenodd" d="M116.5 311.1c-5-6-9.1-12.5-11.3-20.5-3.8-14.4 6.3-25.9 5.5-39-.9-15.2-14.9-26-12.7-41.9 1.1-7.4 3.5-13.2 8.6-18.7 7.2-7.8 12.4-10.6 17.2-21.1 1.6-3.4 1.9-8.2 2.2-11.9.4-5.4.6-10.7 1.8-16a35 35 0 0 1 5.4-12.9 43.5 43.5 0 0 1 12-11.5l7.5 4.5c-5 2.9-9.6 6.4-13.1 11.4-8.1 11.6-3.2 27.7-8.6 39.5a52.2 52.2 0 0 1-9.7 14.4c-2.9 3-6.1 5.7-8.9 8.8s-5.8 8.7-6.7 14.5a17.9 17.9 0 0 0 .3 6.6c1.1 5 4.1 10 6.4 14.6 3.1 6.2 5.6 12.1 6 19.1a32.3 32.3 0 0 1-.2 5.6c-1.2 10-8.1 22.3-5.6 31.8a43.1 43.1 0 0 0 7 14zm78.2-232.6a31 31 0 0 1 9.3-6.3c13.4-5.8 27.6 3.9 41 .7s20.6-16.6 34.5-16.6c16.7 0 24.6 14.9 38.4 18.4s31.9-4.5 46.4 3.3l.8.5h-2.6l-5.6 4.9c-11.4-3.1-28.7 2-40.9-1.1a33.5 33.5 0 0 1-6.4-2.4c-9.7-4.8-19.2-15.8-30-15.8a13.9 13.9 0 0 0-4.2.7c-4.3 1.4-8.6 4.7-12.2 7.3a61 61 0 0 1-10.8 6.4h-33.2a29.2 29.2 0 0 0-9.4 0Zm222.5 47a35.1 35.1 0 0 1 10.9 11.3c7 11.8 3.4 21.3 4.1 33.5a26.5 26.5 0 0 0 1.1 6.5c5.2 16.7 23.7 26.6 24 44.9.2 15.2-11.6 25.6-14.7 40.1s8.8 28.4 2.5 44.3c-3.2 8.2-12.5 14.3-19.5 19-2.8 1.9-6.5 4.2-9.8 6.7l-5.1-5.8c10-7.7 23.9-14.6 27.2-22.9 5-12.5-6.1-28.2-2.9-43.1a65 65 0 0 1 6.8-17c2.3-4.3 4.9-8.7 6.5-13.3a23.9 23.9 0 0 0 1.3-8 20 20 0 0 0-1.4-6.9c-2.2-5.7-6.7-11-10.5-15.7-4.9-6.2-9.4-12.4-11.8-20.1-4-12.9 2.4-26.8-4.5-38.3a26.6 26.6 0 0 0-6.5-7.3 40 40 0 0 0-3.6-2.5zm-65.1 262.2a30 30 0 0 0-4 1.5c-5.7 2.7-11 9.4-15.4 13.9s-10.4 9.7-17.4 11.7a30.7 30.7 0 0 1-17-.2c-8.7-2.4-17.8-8.6-26.8-8.8-7.3-.2-14.1 2.8-21 4.9s-13.8 2.9-21.2.9-14-6.5-19.8-12.5-11-13.6-18.6-18.3c-4.6-2.9-10.3-3.5-16.1-4.1l2.8-7.3c6.1.8 12.4 1.8 17.4 4.9 14 8.7 20 25.4 36.3 29.9 13.9 3.8 25.9-6.4 40.3-6s27.2 13.3 41.5 9.3c12.6-3.5 19.5-19.3 31.6-25l2-.9 5.3 6.4Z"></path><path fill="#051939" d="m159.8 475.4-20.9-12.3-6 10.2 15.7 9.2-5.5 9.2-15.7-9.2-6.4 10.8 21 12.3-5.8 9.8-33.2-19.6 29.2-49.3 33.2 19.5zM215.1 495.3l-23.5-7.8-4.1 12.1 17.9 6-3.4 10.1-17.9-5.9-7.2 21.2-13.8-4.6 18.4-54.3 37.2 12.4zM242.8 534.3l23.6 2.9-1.4 11.3-37.7-4.6 6.9-56.9 14.1 1.7ZM314.7 487l28.8 53.9-14.9 2-6.4-11.4-22.7 3.2-2.1 12.5-12.1 1.7 13.5-59.7 16-2.1ZM301 523.8l15.8-2.2-11-21.1zM390.7 463.7l4.7 59.8-13.9 5.9-39.8-45.2 14.9-5.8 27 31.9-3.8-42zM442.4 427.8l19.6 20.1-4-35.2 11.4-11.2 1.7 35.6 40 4.5-11.8 12.3-36.1-4.8 18.5 20.4-10 9.4-39.3-41.7zM92.2 411.1l-19.5 20.2 35.1-5.1 11.5 11.1-35.5 2.7-3.3 40.1-12.6-11.4 3.7-36.2-19.8 19.2L42 442l40.5-40.6zM415.4 448.5l32.1 47.5-11.6 7.8-32.1-47.5zm-14-17.3 9.1-6.9-6.2 22.6-3.5 2.3z" data-source="https://football-logos.cc"></path><!-- source: https://football-logos.cc --></svg>