<svg xmlns="http://www.w3.org/2000/svg" id="a" version="1.1" viewBox="0 0 25.82 35.12"><!-- Source: https://football-logos.cc --><defs data-source="https://football-logos.cc"><style>.st1{fill:#060da0}</style></defs><path d="M0 0h25.82v31.99l-12.95 3.13L0 31.99z" class="st1"></path><path d="m17.01 21.2 6.37-2.71-4.64-2.16 3.93-7.15-6.99 3.08-2.83-10.55-2.87 10.55-7.06-3.03 3.97 6.96-4.67 2.14 6.34 2.83-.92 2.94 2.97-1.01 2.27 7.81 2.11-7.65s2.07.62 3.03.94l-1.03-2.99" style="fill:#fff" data-source="https://football-logos.cc"></path><path d="M10.5 12.73c3.36-1.47 6.04.77 6.39 1.86-2.42-1.29-5.14-.88-6.07.98 2.71-1.38 5.7-.78 6.48 1.66.39 1.7-.55 3.07-1.26 3.65-3.15 2.86-6.81.42-7.42-.9 2.87 1.44 5.62.78 6.16-1.09-2.88 1.55-5.48.77-6.38-1.65-.7-2.31 1-3.97 2.11-4.51" class="st1" data-source="https://football-logos.cc"></path><!-- source: https://football-logos.cc --></svg>