<svg xmlns="http://www.w3.org/2000/svg" viewBox="27.99 183.72 730.23 708.01"><!-- Source: https://football-logos.cc --><path d="M105.356 652.727a7.1 7.1 0 0 1-2.952-.618 8.4 8.4 0 0 1-2.367-1.608 7.2 7.2 0 0 1-1.628-2.395 7.4 7.4 0 0 1-.583-2.908v-28.903c0-1.017.196-1.996.583-2.91a7.2 7.2 0 0 1 1.628-2.393 7.9 7.9 0 0 1 2.377-1.585c.896-.388 1.886-.585 2.942-.585h13.299v23.09h-9.234v-5.725h3.111v-11.638h-7.006c-.45 0-.818.148-1.123.453a1.51 1.51 0 0 0-.454 1.123v29.242c0 .449.149.816.455 1.122.305.306.672.455 1.122.455h5.656c.443 0 .798-.146 1.085-.446.293-.307.435-.696.435-1.188v-3.456h5.953v3.286a7.1 7.1 0 0 1-.585 2.829 8.3 8.3 0 0 1-1.58 2.4 7.8 7.8 0 0 1-2.38 1.71 6.9 6.9 0 0 1-2.928.648zM140.26 652.727a7.1 7.1 0 0 0 2.917-.616 7.9 7.9 0 0 0 2.38-1.617 7.5 7.5 0 0 0 1.591-2.388 7.4 7.4 0 0 0 .583-2.908v-15.724c0-1.14-.23-2.178-.683-3.085a7.5 7.5 0 0 0-1.805-2.327 8.5 8.5 0 0 0-2.578-1.516c-.66-.248-1.37-.318-2.073-.415l9.064-13.309h-7.044s-8.545 12.634-8.87 13.112l-.716-.027v-13.085h-6.122v43.905zm-7.233-5.783V627.67h7.062c.45 0 .795.141 1.085.444.293.307.436.677.436 1.133v16.12c0 .453-.143.823-.435 1.13-.287.3-.642.446-1.086.446zM169.833 652.664a7.4 7.4 0 0 0 2.91-.583 7.5 7.5 0 0 0 2.387-1.593 7.5 7.5 0 0 0 1.593-2.39 7.4 7.4 0 0 0 .583-2.907v-28.903a7.4 7.4 0 0 0-.583-2.91 7.5 7.5 0 0 0-1.593-2.387 7.4 7.4 0 0 0-2.387-1.593 7.4 7.4 0 0 0-2.91-.583h-5.826c-1.056 0-2.046.197-2.942.585-.889.383-1.689.917-2.377 1.585a7.2 7.2 0 0 0-1.628 2.393 7.4 7.4 0 0 0-.582 2.91v28.903a7.4 7.4 0 0 0 .582 2.908 7.2 7.2 0 0 0 1.628 2.395 7.9 7.9 0 0 0 2.377 1.585 7.4 7.4 0 0 0 2.942.585zm-5.656-38.122h5.43c.449 0 .816.148 1.122.454.306.305.455.673.455 1.123v29.241c0 .449-.15.815-.455 1.122a1.52 1.52 0 0 1-1.122.455h-5.43c-.45 0-.817-.15-1.122-.454a1.51 1.51 0 0 1-.454-1.123V616.12c0-.45.148-.818.453-1.123a1.51 1.51 0 0 1 1.123-.454M198.231 652.727c1.018 0 2-.207 2.919-.616a7.9 7.9 0 0 0 2.378-1.616 7.5 7.5 0 0 0 1.594-2.39 7.4 7.4 0 0 0 .582-2.907v-8.824c0-1.435-.496-2.786-1.353-4.05 1.329-1.4 2.031-3.053 2.031-4.944v-11.085a7.45 7.45 0 0 0-.582-2.91 7.5 7.5 0 0 0-1.592-2.387 7.4 7.4 0 0 0-2.388-1.593 7.4 7.4 0 0 0-2.91-.583h-13.355v43.905h12.676m-.17-17.986c.412 0 .76.148 1.066.454.306.305.455.654.455 1.065v9.107c0 .448-.149.815-.455 1.122a1.45 1.45 0 0 1-1.065.455h-6.385V634.73zm-6.385-5.751v-14.441h7.007c.45 0 .816.148 1.122.453.305.306.454.674.454 1.123v11.312c0 .416-.152.776-.464 1.103a1.47 1.47 0 0 1-1.112.474zM213.32 652.727V647h3.338v-32.451h-3.338v-5.727h12.854v5.727h-3.394V647h3.394v5.727zM278.037 652.664a7.4 7.4 0 0 0 2.91-.583 7.5 7.5 0 0 0 2.388-1.594 7.5 7.5 0 0 0 1.592-2.388 7.4 7.4 0 0 0 .582-2.908v-36.376h-6.122v13.405h-8.583v-13.405h-6.122v36.376c0 .942.196 1.874.583 2.771.385.891.93 1.693 1.62 2.384a8.6 8.6 0 0 0 2.364 1.667c.903.432 1.9.65 2.962.65zm-7.233-24.717h8.583v17.414c0 .449-.149.815-.454 1.122a1.51 1.51 0 0 1-1.122.455h-5.43c-.449 0-.817-.15-1.122-.455a1.51 1.51 0 0 1-.455-1.122zM301.363 652.727a7.7 7.7 0 0 1-3.115-.642 8.2 8.2 0 0 1-2.523-1.704 8.2 8.2 0 0 1-1.703-2.523 7.7 7.7 0 0 1-.641-3.113v-5.035c0-1.846.481-3.47 1.432-4.824.919-1.31 2.118-2.49 3.562-3.505l7.017-4.866a8.4 8.4 0 0 0 1.751-1.591c.445-.54.66-1.18.66-1.954v-6.392c0-.601-.185-1.08-.568-1.462-.38-.382-.84-.567-1.404-.567h-4.581c-.568 0-1.04.188-1.44.575-.397.38-.59.857-.59 1.454v3.117h-5.726v-2.947c0-1.098.216-2.138.644-3.091a8.6 8.6 0 0 1 1.695-2.512 7.6 7.6 0 0 1 2.538-1.714 8 8 0 0 1 3.106-.609H306c1.092 0 2.128.206 3.081.611.952.404 1.794.98 2.505 1.712a8.7 8.7 0 0 1 1.697 2.512c.427.956.644 1.996.644 3.091v6.052c0 1.882-.483 3.525-1.434 4.881-.919 1.31-2.096 2.488-3.499 3.501L301.911 636a8.4 8.4 0 0 0-1.746 1.587c-.445.54-.661 1.18-.661 1.955v5.43c0 .568.187 1.04.574 1.441.381.396.857.588 1.455.588h4.186c.596 0 1.07-.192 1.452-.588.388-.402.576-.874.576-1.441v-3.117h5.727v2.89a8 8 0 0 1-.61 3.105 7.6 7.6 0 0 1-1.713 2.537 8.7 8.7 0 0 1-2.513 1.697 7.5 7.5 0 0 1-3.09.644zM346.213 652.727a7.7 7.7 0 0 1-3.113-.642 8.2 8.2 0 0 1-2.524-1.704 8.2 8.2 0 0 1-1.703-2.523 7.7 7.7 0 0 1-.642-3.113v-5.035c0-1.846.482-3.47 1.433-4.824.919-1.31 2.118-2.49 3.562-3.505l7.017-4.866a8.5 8.5 0 0 0 1.75-1.591c.445-.54.66-1.18.66-1.954v-6.392c0-.601-.184-1.08-.567-1.462-.38-.382-.84-.567-1.405-.567h-4.58c-.57 0-1.04.188-1.441.575-.396.38-.588.856-.588 1.454v3.117h-5.728v-2.947c0-1.098.218-2.138.644-3.091a8.6 8.6 0 0 1 1.696-2.512 7.6 7.6 0 0 1 2.538-1.714 8 8 0 0 1 3.105-.609h4.524c1.09 0 2.128.206 3.08.611.952.404 1.795.98 2.506 1.712a8.7 8.7 0 0 1 1.696 2.512c.427.956.644 1.996.644 3.091v6.052c0 1.882-.482 3.525-1.434 4.881-.918 1.31-2.096 2.488-3.498 3.501L346.76 636a8.4 8.4 0 0 0-1.746 1.587c-.445.54-.661 1.18-.661 1.955v5.43c0 .568.188 1.04.574 1.441.382.396.857.588 1.455.588h4.186c.597 0 1.071-.192 1.453-.588.387-.402.575-.874.575-1.441v-3.117h5.727v2.89a8 8 0 0 1-.61 3.105 7.6 7.6 0 0 1-1.713 2.537 8.7 8.7 0 0 1-2.513 1.697 7.5 7.5 0 0 1-3.089.644zM374.42 652.727a7.4 7.4 0 0 1-2.91-.583 7.5 7.5 0 0 1-2.388-1.594 7.5 7.5 0 0 1-1.593-2.387 7.4 7.4 0 0 1-.583-2.91v-28.958c0-1.017.196-1.996.583-2.91a7.5 7.5 0 0 1 1.594-2.387 7.4 7.4 0 0 1 2.387-1.593 7.4 7.4 0 0 1 2.91-.583h5.826c1.02 0 1.982.198 2.86.587.87.383 1.649.906 2.317 1.554a7.7 7.7 0 0 1 1.618 2.29c.409.877.636 1.817.676 2.792v3.65h-6.009V615.9c-.05-.32-.227-.655-.528-.943a1.39 1.39 0 0 0-.992-.407h-5.6c-.449 0-.794.141-1.085.445-.292.305-.434.675-.434 1.131v29.298c0 .455.142.825.434 1.131.287.3.642.446 1.086.446h5.6c.377 0 .702-.134.99-.409a1.7 1.7 0 0 0 .535-1.023l-.006-3.714h6.01v3.625a7.3 7.3 0 0 1-.677 2.816 7.7 7.7 0 0 1-1.618 2.29 7.9 7.9 0 0 1-2.316 1.555 7 7 0 0 1-2.862.587zM410.635 652.727l-16.55-43.905h6.313l16.609 43.905zM424.008 652.727v-43.905h16.304v5.727h-10.181v38.178zM447.706 652.727v-43.905h6.123v17.76h10.576v5.727h-10.576V647h12.16v5.727zM481.22 652.727a7.7 7.7 0 0 1-3.114-.642 8.2 8.2 0 0 1-2.524-1.704 8.2 8.2 0 0 1-1.702-2.523 7.7 7.7 0 0 1-.642-3.113v-5.035c0-1.846.482-3.47 1.433-4.824.918-1.31 2.118-2.49 3.561-3.505l7.017-4.866a8.4 8.4 0 0 0 1.751-1.591c.445-.54.66-1.18.66-1.954v-6.392c0-.601-.185-1.08-.568-1.462-.38-.382-.84-.567-1.404-.567h-4.582c-.567 0-1.038.188-1.44.575-.395.38-.587.856-.587 1.454v3.117h-5.728v-2.947c0-1.098.217-2.138.644-3.091a8.6 8.6 0 0 1 1.695-2.512 7.6 7.6 0 0 1 2.539-1.714 8 8 0 0 1 3.105-.609h4.523c1.092 0 2.128.206 3.081.611.952.404 1.794.98 2.505 1.712a8.7 8.7 0 0 1 1.697 2.512c.427.956.644 1.996.644 3.091v6.052c0 1.882-.483 3.525-1.434 4.881-.919 1.31-2.096 2.488-3.499 3.501L481.767 636a8.4 8.4 0 0 0-1.746 1.587c-.444.54-.66 1.18-.66 1.955v5.43c0 .568.187 1.04.574 1.441.381.396.857.588 1.455.588h4.186c.596 0 1.07-.192 1.452-.588.388-.402.576-.874.576-1.441v-3.117h5.727v2.89a8 8 0 0 1-.61 3.105 7.6 7.6 0 0 1-1.713 2.537 8.7 8.7 0 0 1-2.513 1.697 7.5 7.5 0 0 1-3.09.644zM256.551 652.727v-43.905h-5.944l-10.345 27.002v-27.002h-6.122v43.905h5.943l10.402-27.017v27.017zm-7.599-47.096h-6.144v-6.228h6.144zM271.202 320.024a4.3 4.3 0 0 1-1.656-.325 4.05 4.05 0 0 1-1.353-.913 4.6 4.6 0 0 1-.904-1.34 4 4 0 0 1-.343-1.648v-1.558h3.24v1.558c0 .308.105.564.324.783s.475.325.782.325h2.151c.328 0 .594-.106.813-.325.22-.22.325-.476.325-.783v-3.574c0-.42-.121-.765-.37-1.057l-.96-.859-3.786-2.575a7.8 7.8 0 0 1-1.878-1.892c-.506-.732-.763-1.602-.763-2.587v-6.71h10.785v3.028h-7.545v3.774c0 .439.116.79.356 1.071l.943.843 3.788 2.607a8 8 0 0 1 1.875 1.874c.507.723.764 1.588.764 2.573v3.484c0 .584-.115 1.138-.343 1.648a4.6 4.6 0 0 1-.904 1.34c-.379.389-.828.695-1.335.912a4.2 4.2 0 0 1-1.643.326zM289.264 320.024c.542 0 1.066-.11 1.555-.328a4.2 4.2 0 0 0 1.267-.862c.359-.358.644-.786.85-1.272.206-.49.31-1.01.31-1.551v-15.484a4 4 0 0 0-.31-1.55 4 4 0 0 0-.85-1.273 4 4 0 0 0-1.272-.85 4 4 0 0 0-1.55-.31h-3.121c-.563 0-1.09.105-1.568.311-.474.205-.9.49-1.268.846q-.557.542-.867 1.276a4 4 0 0 0-.311 1.55v15.484c0 .541.105 1.063.31 1.55.207.488.499.917.868 1.276.365.354.79.643 1.263.858a3.8 3.8 0 0 0 1.573.33zm.744-3.923a.88.88 0 0 1-.253.634.8.8 0 0 1-.611.26h-2.91a.8.8 0 0 1-.61-.26.88.88 0 0 1-.254-.634v-15.636c0-.249.083-.456.253-.634a.8.8 0 0 1 .612-.26h2.909c.244 0 .443.084.61.26.171.178.254.385.254.634zM304.78 320.024c.543 0 1.066-.11 1.556-.328a4.2 4.2 0 0 0 1.268-.862c.357-.358.643-.786.849-1.272.206-.49.31-1.01.31-1.551v-15.484a4 4 0 0 0-.31-1.55 4 4 0 0 0-.85-1.273 4 4 0 0 0-1.272-.85 4 4 0 0 0-1.55-.31h-3.122c-.562 0-1.09.105-1.567.311a4.2 4.2 0 0 0-1.268.846q-.557.542-.867 1.276a4 4 0 0 0-.311 1.55v15.484c0 .541.104 1.063.31 1.55s.498.917.868 1.276c.365.354.79.643 1.263.858.479.219 1.008.33 1.572.33zm.743-3.923a.88.88 0 0 1-.253.634.8.8 0 0 1-.612.26h-2.909a.8.8 0 0 1-.61-.26.88.88 0 0 1-.254-.634v-15.636c0-.249.082-.456.253-.634a.8.8 0 0 1 .611-.26h2.91c.243 0 .443.084.611.26.17.178.253.385.253.634zM320.196 320.024c.543 0 1.066-.11 1.556-.328a4.4 4.4 0 0 0 1.28-.86c.37-.358.66-.787.867-1.274a4 4 0 0 0 .311-1.551v-15.484c0-.54-.105-1.062-.311-1.55a3.9 3.9 0 0 0-.867-1.276 4.2 4.2 0 0 0-1.285-.847 4 4 0 0 0-1.55-.31h-3c-.563 0-1.09.105-1.568.311-.474.205-.901.49-1.268.846a3.9 3.9 0 0 0-.867 1.276 4 4 0 0 0-.31 1.55v1.771h3.239v-1.861c0-.216.081-.418.25-.62a.75.75 0 0 1 .615-.276h2.817c.245 0 .444.085.611.26a.88.88 0 0 1 .254.636v5.773h-3.774c-.561 0-1.093.104-1.58.31a4.2 4.2 0 0 0-2.195 2.13 3.8 3.8 0 0 0-.329 1.573v5.788c0 .54.105 1.063.31 1.55s.492.915.85 1.273c.356.356.783.646 1.268.862.49.218 1.013.328 1.556.328zm-3-10.847h3.774v6.925a.83.83 0 0 1-.25.615.83.83 0 0 1-.615.25h-2.909a.88.88 0 0 1-.634-.254.8.8 0 0 1-.26-.611v-6.06c0-.227.086-.423.263-.601a.85.85 0 0 1 .631-.264M356.25 412.16c0-33.647-27.277-60.924-60.923-60.924s-60.924 27.277-60.924 60.924 27.278 60.923 60.924 60.923 60.923-27.277 60.923-60.923" style="fill:#19223f;fill-opacity:1;fill-rule:nonzero;stroke:none" transform="matrix(1.33333 0 0 -1.33333 -.667 1121.853)" data-source="https://football-logos.cc"></path><path d="m256.007 440.87 3.828-15.245.036-.249 16.113-5.731.263.201 16.87 12.258.19.122v16.665l-.003.322-14.41 9.04-.266-.073c-9.145-3.328-17.026-9.31-22.709-17.01zM281.276 395.868l-6.401 19.704-.074.205-15.963 5.679-.225-.224-12.245-10.238.028-.293a48.68 48.68 0 0 1 9-26.83l.392-.05 15.898-1.084.325.458 9.34 12.488zM284.827 393.165h21.327l.147-.212 9.412-12.587-.122-.33-5.893-14.661-.284-.103a48.8 48.8 0 0 0-14.087-2.065c-4.992 0-9.81.75-14.35 2.145l-.167.385-5.87 14.602.444.62 9.122 12.198zM343.913 411.306l-11.915 9.962-.218.175-15.925-5.665-.124-.357-6.415-19.745.197-.273 9.463-12.653.465.02 15.784 1.076.121.15a48.67 48.67 0 0 1 8.92 27.02zM334.528 441.45c-5.68 7.582-13.506 13.469-22.568 16.753l-.191.056-14.447-9.062.025-.368v-16.57l.201-.163 16.768-12.183.355-.268 16.075 5.718.086.315 3.888 15.481z" style="fill:#fff;fill-opacity:1;fill-rule:nonzero;stroke:none" transform="matrix(1.33333 0 0 -1.33333 -.667 1121.853)"></path><path d="M188.22 413.202c.612.475 1.25.972 1.906 1.484 0 0 8.579-11.728 12.113-17.535 3.535-5.808 10.017-18.349 15.403-27.86s9.426-15.908 12.456-20.284 3.788-5.724 3.788-6.818-.59-1.683-2.273.085-6.228 6.313-8.332 8.922-10.015 15.318-14.476 23.145c-4.462 7.828-20.585 38.861-20.585 38.861m13.598-4.604c-3.282 6.231-6.561 10.095-6.561 10.095 4.764 3.727 9.542 7.48 11.977 9.393 1.041.818.52 1.605-.04 1.773-4.917 1.482-9.501 3.81-13.203 6.682-4.124 3.198-5.47 7.827-3.366 16.328s9.93 16.328 12.372 17.59c2.441 1.263 10.184 1.01 19.526 1.095s12.457.084 16.16 1.852c3.704 1.767 5.513 6.102 5.513 6.102l-14.14-.127c3.535 1.516 5.05 2.778 5.05 2.778s2.778-.253 10.605 0c7.828.253 9.596.631 13.762 3.535s4.419 6.186 4.419 6.186l-16.287.126s1.43 2.588 3.283 2.525c7.085-.24 14.56-.084 21.083 2.778 6.27 2.75 8.333 9.342 8.333 9.342l-26.891.127s-.253 2.146.841 2.146c7.562 0 18.443.083 24.283 2.272 6.06 2.273 7.953 7.701 7.953 7.701s-60.095.253-72.593.127c-12.5-.127-21.463-.252-30.553-9.974-9.09-9.72-17.17-26.891-18.559-31.057s-1.767-5.05-2.399-4.42c-.63.632-8.332 10.859-13.634 18.938-5.303 8.08-6.565 10.605-6.944 15.403-.38 4.797.505 11.362 1.262 14.519.758 3.156 2.02 8.837.631 13.256-1.388 4.418-4.04 6.312-10.857 10.605-6.818 4.292-7.827 4.797-9.09 6.438s-8.585 12.12-11.489 16.287-5.05 5.681-5.05 5.681 14.14-21.167 17.086-26.05c2.946-4.88 8.753-16.748 10.352-19.862 1.6-3.115 1.767-7.744 1.936-11.027s-.505-10.689.252-18.937c.758-8.248 3.199-16.497 6.06-23.735 2.862-7.238 5.135-11.7 4.882-12.204-.252-.506-2.103-.085-5.218 1.01s-18.938 6.397-26.597 7.996-15.28 3.39-23.987-1.936c-7.154-4.377-19.948-14.309-30.553-22.473S21.49 416.635 21.49 416.635s3.272-2.146 7.07-2.146c6.438 0 11.238 4.46 16.288 7.827s7.406 6.06 8.164 6.145c.758.083 1.936-1.684 1.936-1.684s-5.892-4.376-12.205-9.258-9.426-7.154-9.426-7.154 2.777-2.188 7.743-2.61c4.966-.42 9.679 1.6 16.413 6.144 6.733 4.545 7.827 5.808 8.332 5.892s2.61-1.094 2.61-1.094-2.357-1.936-6.482-5.218c-4.123-3.283-6.228-4.882-6.228-4.882s2.188-1.682 6.565-1.851 6.985.84 13.214 5.133 8.248 6.397 10.268 6.902c2.02.506 3.536.253 3.536.253s-5.892-4.713-10.437-7.996c0 0 2.609-1.936 6.397-1.684 3.787.253 8.5 3.283 12.54 6.397s13.822 8.863 24.661 11.279c15.487 3.451 30.385 3.282 39.138 0s12.54-7.575 14.729-11.615 2.861-6.313 3.535-6.818 1.262-.758 2.02-.252c.192.128.665.478 1.353 1.002 0 0 1.845-3.696 7.568-12.785 5.724-9.09 21.042-34.594 26.598-42.757 5.554-8.164 8.5-14.225 13.718-19.19 5.22-4.966 10.436-6.987 13.888-7.323 3.45-.336 3.956 0 3.03 1.852s-3.198 4.377-3.198 4.377 2.693-.843 5.218-1.684 3.03.084 1.262 2.61c-1.767 2.524-6.228 6.564-11.783 12.12s-11.699 11.446-17.843 23.145-13.214 26.26-19.864 38.886M381.849 374.341c-4.461-7.827-12.372-20.536-14.476-23.145-2.104-2.61-6.65-7.155-8.333-8.922s-2.272-1.178-2.272-.085c0 1.094.757 2.442 3.787 6.818s7.07 10.774 12.456 20.284 11.868 22.052 15.403 27.86 12.113 17.535 12.113 17.535l1.906-1.484s-16.123-31.033-20.584-38.86m-12.878-4.63c-6.144-11.7-12.288-17.59-17.843-23.146-5.555-5.555-10.016-9.595-11.783-12.12s-1.262-3.45 1.262-2.61c2.525.842 5.219 1.684 5.219 1.684s-2.273-2.524-3.199-4.376-.42-2.188 3.03-1.852c3.452.336 8.67 2.357 13.888 7.323 5.219 4.965 8.164 11.026 13.719 19.19 5.555 8.163 20.874 33.666 26.597 42.756s7.569 12.786 7.569 12.786c.688-.524 1.16-.874 1.353-1.002.757-.506 1.346-.253 2.02.252s1.346 2.777 3.534 6.818c2.19 4.04 5.976 8.332 14.73 11.615 8.752 3.282 23.65 3.45 39.137 0 10.84-2.416 20.621-8.164 24.661-11.279 4.04-3.114 8.753-6.144 12.54-6.397 3.788-.252 6.398 1.684 6.398 1.684-4.546 3.283-10.437 7.996-10.437 7.996s1.515.253 3.535-.253c2.02-.505 4.04-2.61 10.268-6.902s8.837-5.302 13.214-5.133 6.565 1.851 6.565 1.851-2.104 1.6-6.228 4.882a597 597 0 0 0-6.481 5.218s2.104 1.179 2.61 1.094c.504-.084 1.598-1.347 8.332-5.892s11.446-6.565 16.412-6.143c4.967.42 7.743 2.609 7.743 2.609s-3.113 2.272-9.426 7.154c-6.312 4.882-12.204 9.258-12.204 9.258s1.178 1.767 1.935 1.684c.758-.084 3.115-2.778 8.165-6.145s9.85-7.827 16.288-7.827c3.797 0 7.07 2.146 7.07 2.146s-29.334 22.683-39.939 30.847-23.398 18.096-30.553 22.473c-8.706 5.325-16.328 3.535-23.987 1.936-7.66-1.599-23.482-6.902-26.597-7.996-3.114-1.095-4.965-1.516-5.218-1.01-.252.505 2.02 4.966 4.882 12.204s5.302 15.487 6.06 23.735c.757 8.248.084 15.655.252 18.937.169 3.283.337 7.912 1.936 11.027 1.6 3.114 7.407 14.981 10.353 19.863s17.085 26.05 17.085 26.05-2.146-1.516-5.05-5.682-10.226-14.645-11.489-16.287c-1.262-1.64-2.272-2.146-9.09-6.438-6.817-4.293-9.468-6.187-10.857-10.605s-.126-10.1.631-13.256c.758-3.157 1.642-9.722 1.263-14.519-.38-4.798-1.641-7.323-6.944-15.403-5.302-8.08-13.004-18.306-13.635-18.937s-1.01.252-2.399 4.419-9.469 21.336-18.558 31.057-18.054 9.847-30.553 9.974c-12.499.126-72.594-.127-72.594-.127s1.894-5.428 7.954-7.7c5.84-2.19 16.72-2.273 24.282-2.273 1.094 0 .842-2.146.842-2.146l-26.891-.127s2.062-6.591 8.332-9.342c6.523-2.862 13.999-3.018 21.084-2.778 1.852.063 3.282-2.525 3.282-2.525l-16.286-.126s.253-3.282 4.419-6.186 5.933-3.282 13.76-3.535c7.829-.253 10.606 0 10.606 0s1.515-1.263 5.05-2.778l-14.14.127s1.81-4.335 5.513-6.102 6.818-1.768 16.16-1.852 17.085.168 19.526-1.095c2.442-1.262 10.268-9.09 12.373-17.59s.758-13.13-3.366-16.328c-3.703-2.872-8.287-5.2-13.204-6.682-.56-.168-1.081-.955-.04-1.773 2.435-1.914 7.213-5.666 11.977-9.393 0 0-3.279-3.864-6.561-10.095-6.65-12.625-13.72-27.186-19.864-38.886" style="fill:#19223f;fill-opacity:1;fill-rule:nonzero;stroke:none" transform="matrix(1.33333 0 0 -1.33333 -.667 1121.853)"></path><path d="M444.8 419.007c-11.268-42.594-29.291-77.172-54.57-105.43-30.892-34.534-71.497-54.322-94.904-63.618-23.407 9.296-64.011 29.084-94.903 63.618-25.257 28.236-43.272 62.778-54.54 105.324l-.162.53c-5.939.125-13.181-.5-21.075-2.26-8.744-1.948-17.165-6.7-20.69-9.419-7.047-5.431-12.778-8.125-18.037-8.475-3.673-.245-6.77.55-9.053 1.47a45 45 0 0 0-1.443-.827l-.304-.17c12.923-48.506 34.82-94.852 70.729-134.994 62.115-69.437 149.478-92.163 149.478-92.163s87.365 22.726 149.48 92.163c35.888 40.12 57.78 86.437 70.707 134.915l-.199.204q-.752.41-1.526.873c-2.284-.92-5.38-1.716-9.054-1.471-5.258.35-10.99 3.044-18.036 8.475-3.526 2.72-11.947 7.47-20.69 9.42-7.894 1.758-15.135 2.384-21.073 2.258zM71.5 467.89a912 912 0 0 1-7.9-5.994l-.383-.228c-3.656 28.887-4.987 57.933-4.987 86.338V683.4s40.99-.8 99.99 5.808c31.563 3.535 86.86 14.392 137.107 14.392s105.544-10.857 137.106-14.392c59-6.608 99.99-5.808 99.99-5.808V548.006c0-28.228-1.314-57.087-4.918-85.795l-.087-.596a918 918 0 0 1-8.65 6.563l.05.556c2.858 24.66 4.263 51.033 4.263 79.272v126.04c-15.47.136-48.655 1.059-91.688 5.878-8.871.994-19.258 2.508-31.285 4.262-30.781 4.488-69.09 10.073-104.78 10.073-35.693 0-74.001-5.585-104.783-10.073-12.027-1.754-22.413-3.268-31.285-4.262-43.033-4.82-76.218-5.742-91.687-5.877V548.006c0-28.446 1.425-54.999 4.324-79.815z" style="fill:#19223f;fill-opacity:1;fill-rule:nonzero;stroke:none" transform="matrix(1.33333 0 0 -1.33333 -.667 1121.853)" data-source="https://football-logos.cc"></path><path d="M247.414 442.793c7.585 11.822 19.422 20.666 33.336 24.358l-2.942-4.963c-9.962-3.488-18.566-9.869-24.804-18.133zM309.805 361.168a53 53 0 0 0-14.478-2.001c-5.013 0-9.863.696-14.46 1.997l-5.429-2.3a56.6 56.6 0 0 1 19.889-3.588c6.98 0 13.669 1.264 19.853 3.574zM352.178 414.079q.032-.956.032-1.92c0-13.484-4.716-25.888-12.587-35.649l-.541 5.747a52.7 52.7 0 0 1 9.178 27.368zM343.25 442.776c-7.585 11.831-19.429 20.683-33.351 24.375l2.961-4.968c9.956-3.49 18.555-9.868 24.79-18.13zM251.047 376.49c-7.88 9.762-12.604 22.175-12.604 35.67q0 .962.032 1.919l3.92-4.485a52.7 52.7 0 0 1 9.172-27.33z" style="fill:#fff;fill-opacity:1;fill-rule:nonzero;stroke:none" transform="matrix(1.33333 0 0 -1.33333 -.667 1121.853)"></path><path d="M147.057 549.387v28.722h-9.57v-22.442l-.01-.356.748-.47c3.33-2.096 6.326-3.983 8.83-6.272zM181.069 521.107v57.002h-9.57v-66.691l-.009-.806a69 69 0 0 0 4.477 5.337 45 45 0 0 0 5.112 4.717zM215.081 529.63v48.479h-9.57v-48.86l-.01-.33c2.734.148 5.497.176 8.293.205q.586.006 1.302.01zM249.094 529.817v48.292h-9.571V530.07l.002-.924c3.135-.006 6.366-.014 9.595-.022zM283.106 529.787v48.322h-9.57V529.66l.013-.613c3.954-.014 7.264-.027 9.564-.037zM317.117 529.565v48.544h-9.569v-48.511l.026-.587c2.304.01 5.614.023 9.563.037zM351.13 529.817v48.292h-9.57v-48.292l.006-.693c3.23.008 6.46.016 9.595.022zM385.142 529.313v48.796h-9.57v-48.544l.02-.431 1.267-.01c2.787-.029 5.541-.056 8.266-.203zM419.154 511.385v66.724h-9.57v-57.003l.032-.471a45 45 0 0 0 5.07-4.686 70 70 0 0 0 4.462-5.315zM453.167 555.763v22.346h-9.57v-28.817l-.027-.749c2.51 2.301 5.517 4.194 8.858 6.298l.733.46z" style="fill:#ddd9d8;fill-opacity:1;fill-rule:nonzero;stroke:none" transform="matrix(1.33333 0 0 -1.33333 -.667 1121.853)"></path><path d="M505.505 398.493c-5.998-21.808-13.565-41.989-22.75-60.706v71.841l-.016.748c1.63-.962 2.983-1.87 3.96-2.624 7.046-5.431 12.777-8.125 18.035-8.475q.492-.033.97-.042zM107.897 409.564v-70.889l-.012-.86c-9.21 18.772-16.793 39.019-22.798 60.902l-.154.518q.485.009.986.042c5.259.35 10.99 3.044 18.036 8.475.98.756 2.34 1.67 3.98 2.636zM175.929 345.493v-95.824l.042-1.504c-7.971 6.956-15.762 14.55-23.16 22.82a293 293 0 0 0-10.192 12.027l-.02.744v135.152l.03.52a71 71 0 0 0 3.092.002l.161-.529c7.208-27.212 17.175-51.15 30.032-72.259zM243.96 275.362V204.22l.02-1.132c-10.438 5.226-21.744 11.52-33.299 19.004l-.05 1.317v78.654l.051.89c10.681-10.272 22.092-19.016 33.291-26.38zM311.992 255.981v-67.038l.017-.987c-7.814-2.916-13.644-4.748-16.683-5.65-3.035.902-8.855 2.73-16.657 5.64l-.007 1.376v66.597l-.021 1.283a292 292 0 0 1 16.685-7.243 292 292 0 0 1 16.636 7.22zM380.022 302.252V223.22l-.02-1.109c-11.555-7.485-22.862-13.78-33.3-19.009l-.009 1.307v71.268l-.01.897c11.221 7.38 22.655 16.143 33.354 26.441zM448.055 418.656V284.01l.003-.97a294 294 0 0 0-10.215-12.055c-7.388-8.259-15.167-15.842-23.126-22.791l.008.781v96.834l-.04.745c12.9 21.157 22.895 45.159 30.116 72.453l.134.423a71 71 0 0 0 3.092-.002z" style="fill:#3c5099;fill-opacity:1;fill-rule:nonzero;stroke:none" transform="matrix(1.33333 0 0 -1.33333 -.667 1121.853)" data-source="https://football-logos.cc"></path><!-- source: https://football-logos.cc --></svg>