<svg xmlns="http://www.w3.org/2000/svg" viewBox="0 -4.53 301.62 303.34"><!-- Source: https://football-logos.cc --><defs data-source="https://football-logos.cc"><clipPath id="a"><path d="M0 0h841.89v595.28H0Z"></path></clipPath><clipPath id="b"><path d="M329.728 232.797c0 57.388 46.526 103.927 103.93 103.927 57.395 0 103.926-46.539 103.926-103.927 0-57.402-46.531-103.93-103.926-103.93-57.404 0-103.93 46.528-103.93 103.93"></path></clipPath><clipPath id="c"><path d="M0 0h841.89v595.28H0Z"></path></clipPath></defs><g clip-path="url(#a)" transform="translate(-284.346 -83.963)"><path fill="#061c2f" d="M434.979 85.538c-81.526 0-147.624 66.102-147.624 147.64s66.098 147.638 147.624 147.638c81.547 0 147.643-66.101 147.643-147.637 0-81.54-66.096-147.641-147.643-147.641"></path><path fill="#0773ba" d="M538.908 233.179c0 57.39-46.522 103.928-103.93 103.928-57.396 0-103.915-46.537-103.915-103.928 0-57.4 46.52-103.93 103.915-103.93 57.408 0 103.93 46.53 103.93 103.93"></path></g><g clip-path="url(#b)" transform="translate(-284.346 -83.963)" data-source="https://football-logos.cc"><path fill="#061c2f" d="M537.584 232.797c0 57.388-46.531 103.927-103.926 103.927-57.404 0-103.93-46.539-103.93-103.927 0-57.402 46.526-103.93 103.93-103.93 57.395 0 103.926 46.528 103.926 103.93"></path><path fill="#061c2f" d="m291.333 301.15 28.34-133.725 71.313-60.82 122.087-27.176Z"></path><path fill="#054265" d="m328.076 338.398-36.949-36.95L512.86 79.71l36.95 36.962z"></path><path fill="#0e5a88" d="m363.962 376.12-36.954-36.946L548.734 117.45l36.957 36.952Z"></path><path fill="#0974b8" d="m535.299 323.997-171.05 51.667 221.718-221.722-30.66 122.076Z"></path></g><g clip-path="url(#c)" transform="translate(-284.346 -83.963)" data-source="https://football-logos.cc"><path fill="#fff" d="M505.99 305.597c-19.305 19.305-44.949 29.932-72.242 29.932-27.29 0-52.94-10.627-72.237-29.932-19.297-19.297-29.93-44.947-29.93-72.232 0-27.292 10.633-52.943 29.93-72.239 19.297-19.292 44.947-29.92 72.237-29.92 27.293 0 52.937 10.628 72.242 29.92 19.291 19.296 29.918 44.947 29.918 72.24 0 27.284-10.627 52.934-29.918 72.231m2.486-146.968c-19.95-19.968-46.507-30.962-74.728-30.962-28.233 0-54.776 10.994-74.742 30.962-19.956 19.967-30.954 46.5-30.954 74.736 0 28.23 10.998 54.773 30.954 74.726 19.966 19.977 46.51 30.967 74.742 30.967 28.221 0 54.777-10.99 74.728-30.967 19.965-19.953 30.96-46.496 30.96-74.726 0-28.237-10.995-54.769-30.96-74.736"></path><path fill="#0b75b8" d="M536.883 336.51c-27.547 27.547-64.182 42.72-103.135 42.72-38.963 0-75.597-15.173-103.138-42.72-27.56-27.553-42.73-64.184-42.73-103.144 0-38.958 15.17-75.592 42.73-103.144 27.54-27.551 64.175-42.726 103.138-42.726 38.953 0 75.588 15.175 103.135 42.726 27.553 27.552 42.732 64.186 42.732 103.144 0 38.96-15.18 75.59-42.732 103.144m2.498-208.784c-28.213-28.218-65.723-43.763-105.633-43.763-39.908 0-77.424 15.545-105.641 43.763-28.226 28.213-43.761 65.738-43.761 105.64 0 39.896 15.535 77.429 43.76 105.64 28.218 28.217 65.734 43.764 105.642 43.764 39.91 0 77.42-15.547 105.633-43.764 28.236-28.211 43.777-65.744 43.777-105.64 0-39.902-15.541-77.427-43.777-105.64"></path><path fill="#fff" d="M392.6 114.499c-2.504-5.713-8.387-4.89-12.032-3.298-3.653 1.596-8.245 5.339-5.75 11.056 2.497 5.72 8.38 4.916 12.023 3.32 3.656-1.595 8.256-5.356 5.759-11.078m4.588-1.993c3.906 8.989-2.146 15.05-8.304 17.733-6.151 2.693-14.715 3.003-18.646-5.981-3.913-8.974 2.147-15.041 8.289-17.722 6.168-2.684 14.733-3 18.66 5.97M431.723 105.447l1.51 11.812c-3.573 2.348-8.457 3.924-12.59 4.45-6.25.798-14.654-1.381-15.876-10.998-1.23-9.63 6.356-13.861 12.597-14.658a32.1 32.1 0 0 1 11.922.719l.69 5.356c-3.958-1.176-7.998-1.533-11.974-1.025-3.663.473-9.062 2.829-8.287 8.957.784 6.139 6.619 7.069 10.276 6.597 1.44-.183 4.074-.678 5.767-1.346l2.076-.874-.47-3.726-7.543.963-.59-4.626zM447.45 101.508l-.989 6.069 11.572 1.894c1.951.322 4.128.624 4.621-2.352.481-2.99-1.676-3.387-3.632-3.714zm17.54 22.199-5.687-.928-2.424-8.337-11.242-1.846-1.258 7.732-4.937-.811 3.913-23.842 17.29 2.833c1.838.305 3.581.7 4.964 2.056 1.793 1.76 2.424 4.655 1.97 7.357-.523 3.208-2.513 5.999-5.22 6.725zM501.176 113.045l-2.053 4.493-16.687-7.596-1.94 4.263 15.496 7.05-2.046 4.491-15.49-7.05-1.942 4.265 16.695 7.596-2.06 4.486-21.221-9.66 10.013-21.996zM381.246 334.931l-7.63 11.443c-4.581 6.875-12.077 5.471-16.651 2.426-4.561-3.039-8.734-9.432-4.154-16.303l7.639-11.445 4.146 2.764-7.514 11.277c-2.656 3.992.25 7.832 2.709 9.465 2.46 1.646 7.122 2.852 9.787-1.137l7.515-11.269zM410.668 345.449l-7.62 22.953-4.68-1.562-11.01-20.981-5.187 15.606-4.678-1.56 7.619-22.952 4.69 1.559 11.005 20.994 5.181-15.616zM480.977 337.39l1.575 4.697-17.376 5.84 1.483 4.45 16.14-5.442 1.573 4.674-16.141 5.435 1.483 4.43 17.39-5.846 1.574 4.688-22.115 7.426-7.707-22.909zM510.627 333.21c-3.434-5.17-8.353-2.825-11.668-.622l-6.895 4.578 7.752 11.643 6.897-4.58c3.297-2.211 7.355-5.838 3.914-11.018m4.16-2.754c5.467 8.219.481 14.19-5.258 18.014l-11.045 7.353-13.391-20.117 11.055-7.363c5.743-3.822 13.161-6.112 18.639 2.113M405.453 252.744h-20.697l12.328-69.887h20.697zm22.043-90.512h-37.159a12.19 12.19 0 0 0-12.016 10.079l-15.295 86.744c-1.319 7.466 4.431 14.312 12.016 14.312h37.166a12.19 12.19 0 0 0 12.01-10.078l15.292-86.735c1.326-7.477-4.416-14.322-12.014-14.322M499.295 193.357h-9.73a5.38 5.38 0 0 0-5.295 4.436l-15.18 86.074h-20.678l9.27-52.631 1.663-9.367h.02l2.754-15.573h-.033l1.166-6.64c.585-3.287-1.936-6.3-5.287-6.3h-9.72c-2.6 0-4.833 1.87-5.287 4.437l-1.49 8.503-14.796 83.882c-1.316 7.47 4.426 14.316 12.022 14.316h37.162c5.927 0 10.98-4.254 12.003-10.072l16.717-94.766c.577-3.287-1.951-6.3-5.281-6.3M422.469 346.465l-2.861 24.006-4.957-.598 2.87-24.006zM443.932 351.68l1.21 19.036-5.06.33L438.879 352l-10.923.694-.317-5.088 26.892-1.7.322 5.088z"></path></g><!-- source: https://football-logos.cc --></svg>