<svg xmlns="http://www.w3.org/2000/svg" version="1.2" viewBox="1.44 1.35 1913.13 1913.25"><!-- Source: https://football-logos.cc --><defs data-source="https://football-logos.cc"><clipPath id="cp1"><path d="M0 0h1916v1916H0z"></path></clipPath></defs><style data-source="https://football-logos.cc">.s0{fill:#2e3164}.s1{fill:#faea01}</style><g id="Page 1" clip-path="url(#cp1)" data-source="https://football-logos.cc"><path id="Path 1" fill-rule="evenodd" d="M899.1 3.2c143.8-9 289.6 15 422.7 70.1 122.2 50 233.5 125.9 325 221 92 95.4 163.8 210.2 209.3 334.6 45.8 124.8 65.2 259.1 56.4 391.7-7.1 103.9-30.6 207-70.8 303.2-54.5 132.4-139.6 252.1-246.4 347.5-113.9 101.9-252.4 175.7-400.4 213.6-125.4 31.8-257.1 38.4-384.9 18.2-126-19.5-247.8-64.9-356.1-131.9-114.6-71.1-214.1-166.7-289.4-278.6-95.3-141-151.7-307.9-161.7-477.9C.7 971.2 1 927.5 3.9 884c3.2-37.7 8.4-75.3 15.6-112.5C48 628 109.9 491.2 199.2 375.3 292.3 253.6 415.4 155 554.5 90.6c108-50.5 225.6-80.2 344.6-87.4m-7.6 20.7c-52.9 3.9-105.5 12.3-157 24.9-162.2 39.9-313 124.6-431.5 242.3-58.6 57.3-109.9 122-151.5 192.6-73.8 124-117.7 265.5-127.9 409.5-3.1 53.7-3.1 107.7 3 161.3 8.3 82.2 28.2 163.1 57.9 240.1 13.7 36.2 30.8 71.1 48.6 105.4 48.7 89.8 112.1 171.6 186.9 241.1 52.7 49.9 111.5 93.5 174.5 129.5 120 69.4 255.8 110.8 393.9 121.1 36.7.3 73.4.3 110.1.2 14-.1 28 .5 42-1.3 65.2-5.6 129.7-18.6 192.2-37.8 146.6-45.2 281.6-127.5 389-237 116.2-115.9 200.8-263.1 242-422 36.8-139.5 40.5-287.6 10.2-428.7-28.2-134.4-87-262.3-170.4-371.4-41-53.8-88-102.8-139-147.1-104.4-89.8-228.9-156.1-361.8-192.2-101-27.8-206.8-37.6-311.2-30.5" class="s0"></path><path id="Path 2" fill-rule="evenodd" d="M907.4 51.8c171.4-9.5 345.3 30.6 494.8 115.1 120.9 67.6 225.8 163.7 304 278.1 72.3 105.2 121.8 225.8 144.5 351.5 23.5 129.4 18.5 264-15.1 391.3-30.9 118.8-86.6 231.1-162.1 327.9-65.8 84.6-146.9 157.4-238.2 213.7-99.5 61.9-211.3 103.9-326.8 123.3-131.1 22.1-267.2 15.2-395.1-21-131.4-36.5-254.1-103.4-356.3-193.7-95.8-84.5-173.4-189.5-225.9-306-64.1-141.1-91-298.9-77.2-453.2 11.6-134.9 54-267 123.3-383.4C237.4 393.5 318 303.9 412.5 232.6 524.8 148.3 656.8 90.4 795 65.3c37.1-7.4 74.8-10.4 112.4-13.5M200.5 837.9c-2.2 14.5-.7 29.6-4.7 43.9-4 14.2-7.8 29.2-17.2 41-11.6 11.4-28 16.1-43.5 20-16.1 4.2-33.2 2.4-49.2 6.9 23 4 46.8 5.2 69.1 12.6 11.1 4.4 22.9 10.3 28.5 21.5 9 17.6 14.4 37.1 15.4 56.9.4 10 1.7 20 2.7 30 4.4-18.7 3.5-38.2 8.6-56.7 3.3-13.2 7.2-27 16.3-37.4 6.2-6.2 14.1-10.4 22-13.8 22.8-7.8 47-9.2 70.6-13-8.1-2.1-16.4-3-24.8-3.6-19.5-1.3-39.1-5.7-56.6-14.7-13.3-6.2-19.9-20.6-24.3-33.7-4.9-17.4-8.1-35.2-8.9-53.2.3-3-2-4.9-4-6.7m382.1-689.1c-121 55.8-228.8 139.6-313.6 242.3-84.3 102.8-145.9 224.3-177 353.6 6.9 2.1 13.9 3.9 20.9 5.6 79.1 19.5 158.2 38.9 237.2 58.6 12.7 3.1 25.5 5.7 37.9 9.6-24.7 100.1-22.1 206.6 7.2 305.4 17.1 58.4 43.6 114 77.8 164.3 75.7 111.7 191.2 195.7 320.9 233 1.9 21.6 5.5 43.3 15.1 62.9 5.5 13.1 14.3 24.4 21.9 36.3-79.5-14.8-156-45.1-224.8-87.5-57.9-35.4-109.5-80.7-154.7-131.2-46-51.8-83.7-110.8-111.9-174-15.1-35.1-26.6-71.7-37.2-108.5-35.8 8-71.3 17.6-107 26.1-34.4 8.7-68.9 16.7-103.1 25.6 7.3 36.1 20 70.9 32.4 105.5 50.2 131.6 132.1 251 237.1 345 93.6 84.3 205.4 148.4 325.6 186.5 139.3 44.3 289.7 54.3 433.4 27 113.3-20.9 222.5-64.2 319.4-126.7 95.9-61.4 179.7-141.6 245.4-234.5 64.6-91 112-194.3 138.4-302.8-70.3-17.3-140.5-35-210.9-51.8-2.9 9.3-5.3 18.8-7.9 28.2-31.8 110.4-93.8 211.8-176.4 291.5-93.1 93.1-214.7 157.4-344.1 181.7 3.6-5.6 7.5-11 11.3-16.6 15.9-24.5 24.1-53.3 25.8-82.4 14.8-4.9 29.9-9.5 44.5-15.2 64.4-24.4 124.5-60.3 176.4-105.6 98.2-84.8 166.7-203.4 191.1-330.9 16.3-82.9 13.8-169.1-5.8-251.2 21.2-6.4 42.9-10.6 64.2-16.4 77.3-19.2 154.7-37.7 231.8-57.5-22.7-92.1-60-180.7-110.6-260.9-71.8-115-170.6-212.9-285.9-284.2-126.8-78.7-273.7-124.8-422.8-132.4-144.5-7.9-290.8 20.6-422 81.6m1126.8 715.7c-3.9 21.5-7.2 45.5-23.2 61.8-12.4 9.2-27.7 13.5-42.6 17-15.1 3.6-31.1 2-46 6.5 20.9 3.5 42.3 4.9 62.8 10.9 13.4 4.1 27.5 10.8 34.4 23.7 8.3 14.8 11.2 31.9 14.1 48.4 1.9 10.7.9 21.9 4.9 32.2 1.7-7.3 2.4-14.9 2.8-22.4 1.1-20.8 6.3-41.5 16.1-59.9 4.9-9.1 14.2-14.4 23.3-18.5 23.3-9.3 48.8-10.5 73.4-14.4-10-3.3-20.6-3.1-30.9-4.1-13.6-1.3-27-4.8-39.8-9.5-10.5-4.3-21.6-10.2-26.9-20.9-6.3-12.8-10.6-26.6-13.4-40.5-2.6-12.3-1-25.1-4.1-37.3-5.7 7.8-2.9 18.1-4.9 27M667.9 478c99.6-60.5 218.5-88.6 334.7-79.1 74.5 6.1 147.7 27 214 61.6 105.3 54.5 192.4 143.4 244.3 250 36 72.5 55.6 153.2 57.6 234.1 1.7 77.2-12.4 154.7-41.9 226.1-44.6 109.7-125.2 204.3-226.4 265.7-40.5 24.8-84.2 44.6-129.8 58-4-23.6-11.6-46.8-24.8-66.9-16.6-25.8-40.5-46.8-68.3-59.7-35.5-16.9-77.1-19.8-114.8-9.2-33.8 9.8-64.2 30.7-85.3 58.8-17 22.3-27.9 49.2-31.6 77-124.4-36.5-234.4-119-305.6-227.3-41-61.9-69.4-132-83.1-204.9-20.8-106.9-8.5-219.5 33.3-319.9C485.4 633 566.4 538.9 667.9 478M297.4 611.5c4.6-6.3 6.5-14.6 12.9-19.5-4.5 17.2-11.4 34.2-11.6 52.3.2 8.5 2.1 17.5 8.3 23.7 11.9 14.3 29.2 21.8 43.8 32.6-14.4-1.9-27.6-8.9-42.2-10.1-11.8-1.5-25-.3-34.3 7.9-14.3 13-22.3 31-33.8 46.2 4.5-17.6 13.1-34.5 12.8-53.1.4-9.5-2.4-19.4-9.2-26.4-12.8-13.1-29.2-21.6-43.7-32.6 21.7 6 44.5 16.3 67.2 9.3 12.7-6.8 21.7-18.7 29.8-30.3M1606.3 592c5.8 5 7.9 12.6 12.2 18.8 8.4 12.4 18.2 24.8 31.7 31.9 22.1 5.3 43.9-3.9 64.8-10-14.2 12.1-31.9 19.9-44.2 34.2-6.9 8.1-8.2 19.2-7.5 29.4.8 16.9 8.3 32.3 12.8 48.4-14-17.1-21.9-40.6-42.3-51.4-22.7-9.3-45.7 3.2-67.9 7.3 16.5-12.7 37.6-21 48.5-39.9 6-13.6 2.2-28.7-.9-42.6-1.8-8.9-5.8-17.1-7.2-26.1M212.5 1218.3c7.1 8.1 10.6 18.6 17.5 26.8 9.1 12.8 21.2 27.8 38.5 26.9 18.7.4 36-7.7 54-11.3-18.5 13.7-43.5 22.9-52 46.2-5.7 22 6 43.1 9.9 64.3-8.1-10.4-12.8-23.1-21.3-33.2-8.6-10.4-19.8-21.8-34.5-20.9-20.6.7-40.2 8-59.9 13.4 20.6-12.2 44.9-22.6 56.8-44.8 3.7-12.1 1.7-25.2-.6-37.4-1.8-10.3-6.7-19.7-8.4-30m1484.2 10.4c1.7-3.7 4-7 7.3-9.3-6.6 20.9-14.9 43.1-9.6 65.3 10.3 21.5 33.5 31.1 52.3 43.6-19.5-3.4-38.2-12.3-58.3-11.1-12.6.7-22.2 10.4-30 19.4-9.1 10.2-14 23.3-22 34.3 3.3-21.6 15.5-43.1 9.1-65.2-9.1-22.4-33.3-31.3-51.3-44.9 20.4 4.1 40.3 13.8 61.5 10.6 10.2-2.8 18.6-10.3 24.8-18.7 5.8-7.7 11.9-15.3 16.2-24" class="s0"></path><path id="Path 3" fill-rule="evenodd" d="M943.4 1361.9c37.4-4.1 76.2 6.9 106.2 29.6 25.7 19.4 44.9 47.4 53.7 78.4 8.3 28.5 7.6 59.6-1.7 87.9-10.9 33.6-34.3 63-64.5 81.3-24.7 14.8-53.7 22.9-82.6 21.8-38.4-1-76.2-17.7-102.9-45.4-20.2-20.7-33.9-47.4-39.7-75.7-6-33.5-1.3-69 14.9-99 22.7-43.5 67.8-73.9 116.6-78.9m-34 25.7c-21.8 8.8-41.2 23.6-55.6 42.2-5.6 6.4-2.1 15.4-2.3 23 0 11 2.3 22 1.5 33-6.6 14.6-18.4 26.4-25.2 40.9.2 16.9 6.9 33.2 14.5 48 3.1 5.3 5.6 12 11.9 14.2 10.5 3.9 21.5 6.5 32.3 9.7 5.2 1.6 11.2 2.7 14.6 7.4 8.1 10 14.9 20.9 23 30.9 2.9 4 8.1 4.6 12.5 5.5 12.8 2.1 25.8 2.2 38.7.9 4.6-.7 9.9-.9 13.3-4.6 8.5-8.9 16.1-18.5 24.3-27.7 2.2-2.5 4.7-5 8-5.7 12-3.4 24.4-4.8 36.4-8.1 5.9-1.3 8.9-7.2 12.2-11.7 10.6-16.4 19-35.1 20.9-54.7-4.5-15.3-16.8-27.2-21.6-42.3-.6-15.3 4.9-30.2 4.3-45.4-12.2-22.5-32.6-40.1-55.3-51.6-5.1-2.4-10.7-5.7-16.5-3.9-12.2 3.2-23.9 8-36 11.6-3.8 1.3-7.8 1.6-11.6.2-11.1-3.4-21.8-7.7-32.8-11.1-3.7-1.1-7.8-2.3-11.5-.7m41.9 71.9c3.4-2 7.7-7 11.7-3.4 11 7.6 21.3 16.1 32.1 24 7.3 6 15.7 10.8 22.4 17.5.7 4.1-1 8-2.1 11.8-6.8 19-12.6 38.3-19.3 57.3-24.5 1.1-49 .9-73.4.1-6.8-19.4-13.1-39-19.8-58.5-.9-4-3.9-9.8.5-12.8 15.7-12.3 32.1-23.7 47.9-36" class="s0"></path><path id="Path 4" fill-rule="evenodd" d="M891.5 23.9c104.4-7.1 210.2 2.7 311.2 30.5 132.9 36.1 257.4 102.4 361.8 192.2 51 44.3 98 93.3 139 147.1 83.4 109.1 142.2 237 170.4 371.4 30.3 141.1 26.6 289.2-10.2 428.7-41.2 158.9-125.8 306.1-242 422-107.4 109.5-242.4 191.8-389 237-62.5 19.2-127 32.2-192.2 37.8-14 1.8-28 1.2-42 1.3-36.7.1-73.4.1-110.1-.2-138.1-10.3-273.9-51.7-393.9-121.1-63-36-121.8-79.6-174.5-129.5-74.8-69.5-138.2-151.3-186.9-241.1-17.8-34.3-34.9-69.2-48.6-105.4-29.7-77-49.6-157.9-57.9-240.1-6.1-53.6-6.1-107.6-3-161.3 10.2-144 54.1-285.5 127.9-409.5 41.6-70.6 92.9-135.3 151.5-192.6C421.5 173.4 572.3 88.7 734.5 48.8c51.5-12.6 104.1-21 157-24.9m15.9 27.9c-37.6 3.1-75.3 6.1-112.4 13.5-138.2 25.1-270.2 83-382.5 167.3-94.5 71.3-175.1 160.9-235.2 262.8C108 611.8 65.6 743.9 54 878.8c-13.8 154.3 13.1 312.1 77.2 453.2 52.5 116.5 130.1 221.5 225.9 306 102.2 90.3 224.9 157.2 356.3 193.7 127.9 36.2 264 43.1 395.1 21 115.5-19.4 227.3-61.4 326.8-123.3 91.3-56.3 172.4-129.1 238.2-213.7 75.5-96.8 131.2-209.1 162.1-327.9 33.6-127.3 38.6-261.9 15.1-391.3-22.7-125.7-72.2-246.3-144.5-351.5-78.2-114.4-183.1-210.5-304-278.1-149.5-84.5-323.4-124.6-494.8-115.1" class="s1"></path><path id="Path 5" fill-rule="evenodd" d="M582.6 148.8c131.2-61 277.5-89.5 422-81.6 149.1 7.6 296 53.7 422.8 132.4 115.3 71.3 214.1 169.2 285.9 284.2 50.6 80.2 87.9 168.8 110.6 260.9-77.1 19.8-154.5 38.3-231.8 57.5-21.3 5.8-43 10-64.2 16.4 19.6 82.1 22.1 168.3 5.8 251.2-24.4 127.5-92.9 246.1-191.1 330.9-51.9 45.3-112 81.2-176.4 105.6-14.6 5.7-29.7 10.3-44.5 15.2-1.7 29.1-9.9 57.9-25.8 82.4-3.8 5.6-7.7 11-11.3 16.6 129.4-24.3 251-88.6 344.1-181.7 82.6-79.7 144.6-181.1 176.4-291.5 2.6-9.4 5-18.9 7.9-28.2 70.4 16.8 140.6 34.5 210.9 51.8-26.4 108.5-73.8 211.8-138.4 302.8-65.7 92.9-149.5 173.1-245.4 234.5-96.9 62.5-206.1 105.8-319.4 126.7-143.7 27.3-294.1 17.3-433.4-27-120.2-38.1-232-102.2-325.6-186.5-105-94-186.9-213.4-237.1-345-12.4-34.6-25.1-69.4-32.4-105.5 34.2-8.9 68.7-16.9 103.1-25.6 35.7-8.5 71.2-18.1 107-26.1 10.6 36.8 22.1 73.4 37.2 108.5 28.2 63.2 65.9 122.2 111.9 174 45.2 50.5 96.8 95.8 154.7 131.2 68.8 42.4 145.3 72.7 224.8 87.5-7.6-11.9-16.4-23.2-21.9-36.3-9.6-19.6-13.2-41.3-15.1-62.9-129.7-37.3-245.2-121.3-320.9-233-34.2-50.3-60.7-105.9-77.8-164.3-29.3-98.8-31.9-205.3-7.2-305.4-12.4-3.9-25.2-6.5-37.9-9.6-79-19.7-158.1-39.1-237.2-58.6-7-1.7-14-3.5-20.9-5.6 31.1-129.3 92.7-250.8 177-353.6 84.8-102.7 192.6-186.5 313.6-242.3m1114.1 1079.9c-4.3 8.7-10.4 16.3-16.2 24-6.2 8.4-14.6 15.9-24.8 18.7-21.2 3.2-41.1-6.5-61.5-10.6 18 13.6 42.2 22.5 51.3 44.9 6.4 22.1-5.8 43.6-9.1 65.2 8-11 12.9-24.1 22-34.3 7.8-9 17.4-18.7 30-19.4 20.1-1.2 38.8 7.7 58.3 11.1-18.8-12.5-42-22.1-52.3-43.6-5.3-22.2 3-44.4 9.6-65.3-3.3 2.3-5.6 5.6-7.3 9.3m-1484.2-10.4c1.7 10.3 6.6 19.7 8.4 30 2.3 12.2 4.3 25.3.6 37.4-11.9 22.2-36.2 32.6-56.8 44.8 19.7-5.4 39.3-12.7 59.9-13.4 14.7-.9 25.9 10.5 34.5 20.9 8.5 10.1 13.2 22.8 21.3 33.2-3.9-21.2-15.6-42.3-9.9-64.3 8.5-23.3 33.5-32.5 52-46.2-18 3.6-35.3 11.7-54 11.3-17.3.9-29.4-14.1-38.5-26.9-6.9-8.2-10.4-18.7-17.5-26.8M1606.3 592c1.4 9 5.4 17.2 7.2 26.1 3.1 13.9 6.9 29 .9 42.6-10.9 18.9-32 27.2-48.5 39.9 22.2-4.1 45.2-16.6 67.9-7.3 20.4 10.8 28.3 34.3 42.3 51.4-4.5-16.1-12-31.5-12.8-48.4-.7-10.2.6-21.3 7.5-29.4 12.3-14.3 30-22.1 44.2-34.2-20.9 6.1-42.7 15.3-64.8 10-13.5-7.1-23.3-19.5-31.7-31.9-4.3-6.2-6.4-13.8-12.2-18.8M297.4 611.5c-8.1 11.6-17.1 23.5-29.8 30.3-22.7 7-45.5-3.3-67.2-9.3 14.5 11 30.9 19.5 43.7 32.6 6.8 7 9.6 16.9 9.2 26.4.3 18.6-8.3 35.5-12.8 53.1 11.5-15.2 19.5-33.2 33.8-46.2 9.3-8.2 22.5-9.4 34.3-7.9 14.6 1.2 27.8 8.2 42.2 10.1-14.6-10.8-31.9-18.3-43.8-32.6-6.2-6.2-8.1-15.2-8.3-23.7.2-18.1 7.1-35.1 11.6-52.3-6.4 4.9-8.3 13.2-12.9 19.5M667.9 478c-101.5 60.9-182.5 155-227.7 264.3-41.8 100.4-54.1 213-33.3 319.9 13.7 72.9 42.1 143 83.1 204.9 71.2 108.3 181.2 190.8 305.6 227.3 3.7-27.8 14.6-54.7 31.6-77 21.1-28.1 51.5-49 85.3-58.8 37.7-10.6 79.3-7.7 114.8 9.2 27.8 12.9 51.7 33.9 68.3 59.7 13.2 20.1 20.8 43.3 24.8 66.9 45.6-13.4 89.3-33.2 129.8-58 101.2-61.4 181.8-156 226.4-265.7 29.5-71.4 43.6-148.9 41.9-226.1-2-80.9-21.6-161.6-57.6-234.1-51.9-106.6-139-195.5-244.3-250-66.3-34.6-139.5-55.5-214-61.6-116.2-9.5-235.1 18.6-334.7 79.1m275.5 883.9c-48.8 5-93.9 35.4-116.6 78.9-16.2 30-20.9 65.5-14.9 99 5.8 28.3 19.5 55 39.7 75.7 26.7 27.7 64.5 44.4 102.9 45.4 28.9 1.1 57.9-7 82.6-21.8 30.2-18.3 53.6-47.7 64.5-81.3 9.3-28.3 10-59.4 1.7-87.9-8.8-31-28-59-53.7-78.4-30-22.7-68.8-33.7-106.2-29.6m-742.9-524c2 1.8 4.3 3.7 4 6.7.8 18 4 35.8 8.9 53.2 4.4 13.1 11 27.5 24.3 33.7 17.5 9 37.1 13.4 56.6 14.7 8.4.6 16.7 1.5 24.8 3.6-23.6 3.8-47.8 5.2-70.6 13-7.9 3.4-15.8 7.6-22 13.8-9.1 10.4-13 24.2-16.3 37.4-5.1 18.5-4.2 38-8.6 56.7-1-10-2.3-20-2.7-30-1-19.8-6.4-39.3-15.4-56.9-5.6-11.2-17.4-17.1-28.5-21.5-22.3-7.4-46.1-8.6-69.1-12.6 16-4.5 33.1-2.7 49.2-6.9 15.5-3.9 31.9-8.6 43.5-20 9.4-11.8 13.2-26.8 17.2-41 4-14.3 2.5-29.4 4.7-43.9m1508.9 26.6c2-8.9-.8-19.2 4.9-27 3.1 12.2 1.5 25 4.1 37.3 2.8 13.9 7.1 27.7 13.4 40.5 5.3 10.7 16.4 16.6 26.9 20.9 12.8 4.7 26.2 8.2 39.8 9.5 10.3 1 20.9.8 30.9 4.1-24.6 3.9-50.1 5.1-73.4 14.4-9.1 4.1-18.4 9.4-23.3 18.5-9.8 18.4-15 39.1-16.1 59.9-.4 7.5-1.1 15.1-2.8 22.4-4-10.3-3-21.5-4.9-32.2-2.9-16.5-5.8-33.6-14.1-48.4-6.9-12.9-21-19.6-34.4-23.7-20.5-6-41.9-7.4-62.8-10.9 14.9-4.5 30.9-2.9 46-6.5 14.9-3.5 30.2-7.8 42.6-17 16-16.3 19.3-40.3 23.2-61.8" class="s1"></path><path id="Path 6" fill-rule="evenodd" d="M909.4 1387.6c3.7-1.6 7.8-.4 11.5.7 11 3.4 21.7 7.7 32.8 11.1 3.8 1.4 7.8 1.1 11.6-.2 12.1-3.6 23.8-8.4 36-11.6 5.8-1.8 11.4 1.5 16.5 3.9 22.7 11.5 43.1 29.1 55.3 51.6.6 15.2-4.9 30.1-4.3 45.4 4.8 15.1 17.1 27 21.6 42.3-1.9 19.6-10.3 38.3-20.9 54.7-3.3 4.5-6.3 10.4-12.2 11.7-12 3.3-24.4 4.7-36.4 8.1-3.3.7-5.8 3.2-8 5.7-8.2 9.2-15.8 18.8-24.3 27.7-3.4 3.7-8.7 3.9-13.3 4.6-12.9 1.3-25.9 1.2-38.7-.9-4.4-.9-9.6-1.5-12.5-5.5-8.1-10-14.9-20.9-23-30.9-3.4-4.7-9.4-5.8-14.6-7.4-10.8-3.2-21.8-5.8-32.3-9.7-6.3-2.2-8.8-8.9-11.9-14.2-7.6-14.8-14.3-31.1-14.5-48 6.8-14.5 18.6-26.3 25.2-40.9.8-11-1.5-22-1.5-33 .2-7.6-3.3-16.6 2.3-23 14.4-18.6 33.8-33.4 55.6-42.2m41.9 71.9c-15.8 12.3-32.2 23.7-47.9 36-4.4 3-1.4 8.8-.5 12.8 6.7 19.5 13 39.1 19.8 58.5 24.4.8 48.9 1 73.4-.1 6.7-19 12.5-38.3 19.3-57.3 1.1-3.8 2.8-7.7 2.1-11.8-6.7-6.7-15.1-11.5-22.4-17.5-10.8-7.9-21.1-16.4-32.1-24-4-3.6-8.3 1.4-11.7 3.4m130.6-971.7c3.1-2.7 6.7-4.7 10.4-6.6 1.4 15-1.9 29.8-1.7 44.7-1.9 54.7.1 109.4 6 163.8 2.1 24.9 4.9 49.9 9.8 74.4 34.5 2.1 69-1.1 103.5-1.5 24-1.1 48-2.7 72-3.8 32.4-.1 64.4-7 96.7-7.1-8.5 11.1-20.3 19-31 27.9-37.6 25.8-74.9 51.9-112.8 77.3-30.8 21.6-62.5 41.8-93.3 63.5.3 5.1 1.4 10.1 2.8 14.9 6.4 21.2 12.1 42.6 19 63.6 8.6 23.7 15.8 47.9 24.6 71.5 8.6 20.4 15.2 41.6 23.8 61.9 5.6 12.6 10.7 25.4 15.8 38.1 8.3 21.4 18.7 41.7 27.4 62.8 6.3 15.8 15.7 30.1 21 46.3-8.8-3.4-17.5-7.2-25.7-11.9-18.9-10.6-38.9-19.2-57.6-30-79-41.7-156.3-86.5-231.1-135.2-17.1-10.2-32.7-22.6-49.7-32.9-3.9 1.1-7.5 3.1-11 5.3-32.5 20.3-65.3 40.3-98.6 59.4-18 11.7-37.4 21-55.6 32.4-42.9 23.5-85.6 47.3-129.7 68.4-10.9 7.1-23.7 10.2-36.5 10.6 13.6-51.3 30.8-101.5 50.4-150.8 10.9-25 20.3-50.7 33-74.9 10.4-24.8 24-48.1 35.9-72.2 4.9-9.7 11.1-18.6 15.9-28.3 2-3.1-2-5.3-3.7-7.3-60.9-55.2-117.3-115.7-165.8-182.2-7.8-12.6-18.6-23.5-24.5-37.3 27.8 6.2 55.1 14.7 82.9 20.8 24.1 4.5 47.8 10.6 72 14 35 8.4 70.9 12 106.4 17.6 11.8 2.1 23.8 2.7 35.7 4.1 4.2.2 9.2 1.5 12.3-2.3 9.5-9.3 16-21.2 25-30.9 38.1-46.3 78.5-90.7 121.3-132.6 33.5-33.3 68.9-64.6 104.7-95.5M1299.2 775c-88.7 23.8-177.7 46.6-267.2 67-25.4 6.1-51.3 10.8-76.6 17.4-2.5 12.7-2.4 26.4 2.6 38.6 10.3 26.8 27.8 50.1 45.5 72.4 25.2 31.4 51.4 62 77.5 92.6 47.5 55.7 95.9 110.6 146.4 163.6 7.2 7.4 13.2 16.4 22.7 21.2-2.6-9.8-7.9-18.4-12.9-27.1-20-35.6-38.2-72.2-54.2-109.8-17.5-40.7-34.7-81.4-51.6-122.3-8.8-22.2-19-43.8-26.1-66.6 4.8-5.6 11.6-8.9 17.6-13.1 65.5-43.9 131-87.8 196.7-131.3 3.8-2.7 7.2-5.9 10.3-9.3-10.6.6-20.6 3.9-30.7 6.7m-737.7-52.8c2.2 5.5 5.5 10.5 9.4 14.9C619.2 792 669 845.7 722.8 895.3c5 4.3 9.3 10 15.5 12.7 5.1-.1 10.2-1.4 15.2-2.3 20.1-4.2 40.4-7.4 60.3-12.2-14-11.4-29.9-20.1-44.6-30.6-29.3-19.9-58.3-40.3-86.7-61.4-35.3-25.7-71.6-50.2-108.6-73.4-3.9-2.5-8.1-4.4-12.4-5.9m508.4-182.3c-31.7 67.1-61 135.4-84.2 205.8-3.3 8.9-6 18.2-5.5 27.8 31.9.2 63.7-1.6 95.6-2.3 1.9-10.7-.3-21.5-.6-32.1-1.4-50.4-2.5-100.8-.6-151.1-.3-19 3.6-37.8 1.4-56.7-2.3 2.6-4.6 5.4-6.1 8.6m-255.1 462.9q-20.85 23.1-42.9 45c-51.4 50.7-101.5 102.6-150.9 155.2-2.6 2.8-4.7 6-6.8 9.2 7.5-1.8 14.4-5.2 21.1-8.9 88.6-48.2 177.2-96.5 262.8-149.9-2.3-4.2-6.7-6.4-10.5-9-22.7-14.9-43.8-32.1-65.9-47.8-2.5 1.8-4.9 3.9-6.9 6.2m330.4-467.5c8.5-2.7 18.3-1.3 25.7 3.7 65 44.2 132.6 84.4 198 128 5.5 3.9 13.4 7.3 13.3 15.1-9.7 2.3-17.9-4.5-26-8.4-62-32.3-122.9-66.8-184.9-98.9-10.5-5.7-23.5-9.4-29.2-20.8-4.1-5.7-4.4-15.7 3.1-18.7m18.2 123.3c-3.5-8.5 3.7-18.5 12.8-18.3 8.1-1.4 13.8 5.4 19.4 10.2 9.3 8.6 20.8 15 29.1 24.9 2.5 2.7 1.3 6.4.1 9.3-11.6 3.4-22.4-5.1-33.1-8.5-9.7-5.1-24.7-5.1-28.3-17.6m125.2 237c-1.2-6.9 4.6-13.5 11.5-13.5 7.6-1.1 13 5.2 18.6 9.2 23.5 18 48.8 33.7 72.3 51.9 2.3 1.7 3.8 4.1 5 6.8-8.7.2-16.3-4.6-24-8-24.1-11.1-47.5-23.7-72.1-34-5.4-2.1-10.5-6.3-11.3-12.4m-93 48.1c3.9-3.1 9.2-2.4 13.6-.8 10.7 3.7 19.8 10.6 29.2 16.7 76 48.9 153.7 95.3 229.7 144.3 4.7 3.2 9.9 6.8 10.9 12.9-10.8.5-19.7-6.3-28.9-10.9-74.4-40-147.6-82.1-222.1-121.9-11.8-6.6-24.9-11.7-34.4-21.7-5.1-5.1-3.9-14.5 2-18.6m40.4 160.2c-.9-8.3 7.5-15.7 15.7-13.7 6.1 1.8 11 6.3 16.3 9.8 36.3 25.3 74.3 48.1 110.6 73.4 5 3.5 9.9 7.5 12.3 13.4-11.7-.2-21.5-7.1-31.7-11.9-38.2-19-75.1-40.5-113.7-58.6-5-2.2-9.6-6.5-9.5-12.4m-365.8 44.4c6.8-6.7 19.2-7.2 26.5-.8 24.2 21.8 52.2 38.7 79.3 56.6 36.8 23.9 74.3 46.9 111.1 70.9 9.5 6.3 19.9 12 27 21.2-12.7-2.5-23.6-9.6-34.9-15.4-58.6-30.6-115.7-64.1-175.5-92.5-10.3-5.4-22.6-6.9-31.9-14.1-6.7-6.7-8.5-18.7-1.6-25.9m-71.5 66.4c7.4-3.1 15.3.6 20.4 6.1 9.3 9.4 21.1 16.3 29.5 26.6 4.8 5.5-.7 15.2-7.9 13.5-11.3-2.1-21.5-7.7-32.4-11.1-6.4-2.5-14.2-3.7-18-10-5.6-8.6-1.5-21.7 8.4-25.1m-134.1 60.5c-4.5-8.5 1.5-20.8 11.5-20.9 8.1-1 13.5 6 18.7 10.9 7.2 7.6 16.3 14.4 19.2 24.9-11.7 2-23.2-2.5-34.3-5.7-5.5-1.9-12.5-3.3-15.1-9.2" class="s1"></path><path id="Path 7" d="m360.9 585.9 24.6-32.7c7 5.3 18.4 2 25.5-7.4 6.4-8.5 7.2-18.8 1.5-23.1-17.2-13-57.5 55.6-100.7 23.1-24.2-18.2-24.9-50.6-5.1-77 20.2-26.8 52.2-34.4 74.8-17.5L357 483.8c-6.3-4.7-15.9-1.9-22.3 6.6-5.6 7.4-6.7 16.6-.8 21.1 17.5 13.2 55.2-57.6 99.5-24.3 25.4 19.2 26.1 52.9 5.5 80.2-21.2 28.3-55 35.8-78 18.5m78.3-123.7-63.7-73.4 29.8-25.9 63.3 72.9c10.3 11.9 26.7 12.9 38.4 2.7 11.9-10.3 13-26.6 2.7-38.4l-63.3-72.9 30-26.1 63.8 73.4c24.2 27.9 20.7 68-8 93-28.6 24.8-68.8 22.6-93-5.3" class="s0"></path><path id="Path 8" fill-rule="evenodd" d="m520.5 271.5 65.9-35.5c28.7-15.4 61.7-6.2 76.7 21.7 14.9 27.7 4.4 60.3-24.2 75.8l-31 16.6L631 393l-35 18.8zm52.8 14.2 16.9 31.5 30.1-16.2c8.8-4.7 11.9-15 7.1-24-5-9.1-15.3-12.2-24-7.5zm103.4-90.9L779 164.2l10.7 35.8-64.2 19.2 6.7 22.1 57.1-17 10.7 35.8-57.1 17.1 6.9 23 65.3-19.5 10.7 35.8-103.4 30.9z" class="s0"></path><path id="Path 9" fill-rule="evenodd" d="m825.5 154.7 72.5-6.3c32.4-2.8 58.8 18.3 61.6 49.6 1.9 22.7-10.2 42.4-30.1 51.5l4.7 5.6c6.7 8 15.3 11.2 25.9 10.3l7.4-.7 3.2 37.3-11.7 1c-27.4 2.4-47.4-6.2-60.5-26.2L885 257.3l-10.6 1 4.5 51.7-39.5 3.5zm42.8 33.8 3.1 35.2 31.9-2.8c9.9-.8 16.6-9.1 15.8-19.2-.9-9.9-8.9-16.8-18.8-16zm193.6-38.6 38.8 8.3 39.5 100.7 19-88 38.8 8.4-33.6 155.7-38.8-8.3-39.5-100.7-19 88-38.8-8.4z" class="s0"></path><path id="Path 10" fill-rule="evenodd" d="M1212.1 266.1c21.1-41.9 69.6-57.3 112.7-35.5 42.8 21.6 59.4 69.8 38.3 111.7-21.2 41.9-69.8 57.2-112.7 35.5-43.1-21.7-59.4-69.8-38.3-111.7m114.5 57.8c11.3-22.5 2.9-47.9-19.1-59.1-22.3-11.2-47.7-2.9-59.1 19.6-11.3 22.5-3 47.9 19.3 59.2 22.1 11.1 47.5 2.8 58.9-19.7m93.7-38.1 33.8 28.6-39.5 105.2 97.3-56.2 33.2 28.1-150 81.8-31-26.3z" class="s0"></path><path id="Path 11" fill-rule="evenodd" d="m1584.8 441.6 28.7 37-89.8 144.2-26.6-34.3 14.6-22.2-37.6-48.3-25 8.9-26.2-33.8zm-51.7 92.6 31.2-47.4-53.6 18.6zM283.8 1472l18.2-11.9c5.6 16.3 7.9 21.3 14 28.6 6.5 7.8 16.5 13.5 24.8 6.6 3.9-3.2 4.9-8.2 2.3-18.8l-4.3-17.3c-4-15.5-3.6-28.2 8.2-38.2 18-15 39.4-5.1 53.4 11.6 7.7 9.2 12.2 17.7 15.5 26.3l-17.2 11.4c-5.5-15.2-7.8-20.5-12.9-26.6-6.5-7.8-14.9-11.6-21.2-6.3-3.9 3.3-4.9 7.8-2.8 17.1l4.4 16.7c4.9 17.7 4.5 31.4-7.8 41.7-20 16.8-42.8 4.6-57.7-13.1-7.2-8.7-12.7-17.6-16.9-27.8" class="s0"></path><path id="Path 12" fill-rule="evenodd" d="m417.1 1557.2-27.7 31.6-18-15.9 75.2-85.7c8.3 6 17.6 13.5 25.5 20.4 21.8 19.1 28.2 39.3 12.8 56.9-18.9 21.5-44.2 13.5-63.9-3.9zm13.7-10.3c12.6 11.1 25.6 13.2 35.4 2 6-6.9 7.5-17.1-5.4-28.4-2.5-2.2-4.5-3.7-6.8-5.5l-25.9 29.6z" class="s0"></path><path id="Path 13" fill-rule="evenodd" d="M500.2 1609.5c16.8-28 48.6-43 81.8-23 33.5 20.2 33.6 52.1 17.8 78.3-17.2 28.5-49.6 42-81.7 22.7-32.4-19.5-34.1-51.2-17.9-78m76.2 44.1c12.6-20.9 11.6-42.1-4.7-51.9-16-9.6-34.8-3.1-48.1 18.8-13 21.7-11.1 42.3 4.9 51.9 15.7 9.5 34.6 3.2 47.9-18.8m91.1 54.9-6.3-2.7-15.8 42.1-22.2-8.3 39.9-106.7c11.1 3 20.6 5.8 30.8 9.6 28 10.5 41 25.5 33 46.8-5 13.4-17 20.3-30.8 22.5l12 59.6-25.6-9.6-7.8-42.7c-1.3-6.9-1.8-8.4-7.2-10.6m16.8-11.8c9.1-1.4 16.1-6.8 19-14.6 3.3-8.7 0-18-15.5-23.7-2.5-1-5.3-1.9-7.9-2.6l-12.9 34.6zm117.1-1.1-38.1-7.4 3.6-18.5 99.8 19.4-3.6 18.5-38.1-7.4-18.2 93.6-23.6-4.6zm117.6-3.2 28.4-.6 5.6 20 30.3 96.6-24.8-.8-8.4-27.4-41.9-1.4-10.1 26.8-22.9-.8zm25.8 70.2-13.7-44.9-16.4 43.9zm168.5-19.5-6.4 1.1 10.5 48.3-23.5 5.1-24.1-111.7 23.4-5 10 46.2 13.6-3.3 24.4-53.3 25.7-5.6-29.6 61.3 54.9 50.1-28.2 6.1-38.9-35.9c-4.5-4.3-6.4-4.4-11.8-3.4m87.2-90.2 22.2-9 35.5 88.2 49.4-19.9 7.2 17.8-71.7 28.8zm134.6 18-36.4-59.7 20.2-12.3 34.7 57c9.2 15.1 21 23.1 36.6 13.6 12.5-7.7 18.3-21.7 6.4-41.4l-34.1-55.8 18.9-11.5 34.5 56.5c17.8 29.2 8 54.4-16.4 69.3-25.5 15.5-47.9 11.3-64.4-15.7" class="s0"></path><path id="Path 14" fill-rule="evenodd" d="m1490.5 1620.1-75.4-85.3c6-6.4 14.7-14.9 24.8-23.8 18.2-16.1 37.3-24.1 52.1-7.4 6.6 7.5 8.8 18 4.8 28.8 14.4-7.3 27.4-4.4 35.9 5.2 17 19.3 6.2 42-16.5 62.1-9.1 8-17.3 14.6-25.7 20.4m-18.9-71.7c12.2-10.8 10.3-21.5 4.3-28.4-7-7.8-16.2-5.9-26.4 3.1-2.3 2-5 4.7-7.3 6.9l22 24.9zm35.8 37c9.8-8.5 16.6-20.4 6.9-31.4-7.1-8.1-17.4-7.2-30.8 4.4l-9.2 7.9 23.3 26.3c3.3-2 6.7-4.4 9.8-7.2m79.7-59-15.1-15.7c15-8.5 19.6-11.7 25.6-19 6.5-7.9 10.3-18.7 2-25.6-3.9-3.2-9-3.3-19 1.2l-16.2 7.3c-14.4 6.9-27 8.8-39-1.1-18.1-14.9-12.2-37.7 1.7-54.5 7.6-9.3 15.2-15.3 23-20.1l14.3 14.8c-13.9 8.2-18.6 11.4-23.7 17.6-6.5 7.8-8.7 16.7-2.4 21.9 4 3.3 8.6 3.5 17.3-.3l15.6-7.4c16.5-8 30.2-10.1 42.5.1 20.1 16.6 12.3 41.2-2.4 59.1-7.2 8.7-14.9 15.7-24.2 21.7" class="s0"></path></g><!-- source: https://football-logos.cc --></svg>