<svg xmlns="http://www.w3.org/2000/svg" viewBox="0 0 342.67 296.91"><!-- Source: https://football-logos.cc --><defs data-source="https://football-logos.cc"><clipPath id="a"><path d="M159 278h12v18.91h-12Zm0 0"></path></clipPath><clipPath id="b"><path d="M172 278h12v18.91h-12Zm0 0"></path></clipPath></defs><path d="M69.629 45.18A148.2 148.2 0 0 1 94.78 25.637V.004h152.371v25.2c9.36 5.702 18.063 12.401 25.895 19.976-1.567-8.399-2.828-17.453-2.086-26.68l.652-7.965c2.7 2.438 3.7 3.352 8.094 7.399 11.883 10.84 22.805 21.242 32.164 34.511.652 2.746 1.305 5.356 1.61 8.184l2.042-4.219c1.614 3.262 3.223 6.528 4.832 9.832 6.79 13.668 14.45 28.727 17.41 43.828a45.8 45.8 0 0 1-1.956 10.23l4.304-3.917c.266 3.656.57 7.312.871 10.922 1.133 14.32 3.223 33.207-.129 47.222-1.347 2.961-3.351 5.961-5.44 8.489l5.312-2.004c-1.09 3.48-2.133 6.965-3.223 10.445-4.742 15.45-9.445 29.68-17.41 43.828-2.739 2.305-5.438 4.438-8.617 6.176l5.878.133c-2.308 2.828-4.574 5.656-6.878 8.488-9.575 11.922-19.977 25.242-32.422 34.25-6.922 2.656-14.668 3.527-22.024 3.266-8.05-.352-15.668-2.047-23.328-4.223-18.715 8.66-39.515 13.535-61.363 13.535a145.5 145.5 0 0 1-61.324-13.535c-7.704 2.176-15.32 3.871-23.371 4.223-7.356.261-15.102-.61-22.024-3.266-12.445-9.008-22.848-22.328-32.422-34.25-2.308-2.832-4.57-5.66-6.875-8.488l5.875-.133c-3.18-1.738-5.875-3.871-8.617-6.176-7.969-14.148-12.668-28.379-17.41-43.828-1.09-3.48-2.133-6.965-3.223-10.445l5.313 2.004c-2.09-2.528-4.094-5.528-5.442-8.489-3.351-14.015-1.261-32.902-.133-47.222.305-3.61.61-7.266.872-10.922l4.308 3.918a45.8 45.8 0 0 1-1.957-10.23c2.961-15.102 10.617-30.16 17.406-43.829 1.614-3.305 3.223-6.57 4.832-9.832l2.047 4.219c.305-2.828.957-5.438 1.61-8.184 9.36-13.27 20.28-23.672 32.164-34.511 4.394-4.047 5.394-4.961 8.093-7.399l.653 7.965c.742 9.227-.52 18.281-2.086 26.68" style="stroke:none;fill-rule:nonzero;fill:#eb1d22;fill-opacity:1"></path><path d="m155.844 295.254-3.176-.434 1.695-12.054a11.6 11.6 0 0 1-4.48 1.828l.39-2.914c.872-.133 1.872-.524 2.961-1.176 1.086-.61 1.871-1.395 2.395-2.352l2.566.348" style="stroke:none;fill-rule:nonzero;fill:#d2ac66;fill-opacity:1"></path><g clip-path="url(#a)"><path d="M166.813 282.504c-.829-1.043-2.223-1.305-3.133-.262-.914 1.004-.957 3.7-.133 4.7.781 1.046 2.266 1.132 3.18.175.957-1.09.957-3.48.085-4.613m-6.921 9.27 3.136-.258q.064.977.52 1.433c.871.914 2.266.524 3.004-.347q.72-.915 1.043-3.786c-1.824 2-4.785 1.61-6.485-.347-1.914-2.18-1.738-6.094.395-8.14 2.305-2.22 6.09-1.786 8.05.737 1.044 1.352 1.524 3.528 1.391 6.575-.086 3.046-.738 5.265-1.914 6.57-1.87 2.09-5.57 2.7-7.703.738-.781-.738-1.262-1.781-1.437-3.176" style="stroke:none;fill-rule:nonzero;fill:#d2ac66;fill-opacity:1"></path></g><g clip-path="url(#b)"><path d="m183.523 292.688.086 3.003-11.312.395a7.7 7.7 0 0 1 1-3.266c.562-1.047 1.738-2.437 3.48-4.18 1.438-1.39 2.262-2.347 2.614-2.87.39-.653.605-1.352.562-2.004 0-.696-.215-1.262-.61-1.61-.433-.39-.956-.566-1.652-.523q-.979 0-1.566.656c-.39.434-.61 1.086-.61 2.043l-3.218-.215c.086-1.785.652-3.05 1.652-3.875 1-.828 2.223-1.262 3.742-1.308 1.653-.043 3.004.351 3.961 1.222 1 .867 1.524 1.957 1.567 3.305 0 .742-.086 1.48-.348 2.176a8.4 8.4 0 0 1-1.219 2.175c-.39.524-1.047 1.266-2.047 2.223-.957 1-1.609 1.61-1.87 1.957-.258.305-.477.61-.606.914" style="stroke:none;fill-rule:nonzero;fill:#d2ac66;fill-opacity:1"></path></g><path d="m185.09 291.078 3.047-.824q.262 1.173 1.047 1.695c.476.348 1.043.48 1.652.39a2.16 2.16 0 0 0 1.566-.956c.348-.567.48-1.262.391-2.133q-.194-1.171-.914-1.828c-.52-.39-1.086-.567-1.695-.48-.395.046-.871.218-1.438.437v-2.656c.871-.086 1.48-.391 1.871-.825.438-.48.567-1.046.48-1.699-.085-.562-.304-.957-.699-1.262-.39-.304-.824-.39-1.39-.304-.567.043-1 .305-1.305.742-.348.434-.523 1.043-.48 1.781l-3.047-.086c.09-1.043.262-1.914.61-2.566.304-.652.827-1.219 1.523-1.656a6.1 6.1 0 0 1 2.394-.871c1.61-.215 2.914.09 4.004.957q1.372 1.113 1.566 2.613c.22 1.48-.433 2.742-1.914 3.875q1.501.064 2.48 1.043c.696.61 1.09 1.437 1.263 2.48.175 1.438-.172 2.785-1.086 3.961-.961 1.176-2.176 1.871-3.79 2.09-1.523.219-2.828-.047-3.96-.785-1.086-.695-1.828-1.781-2.176-3.133M95.48 47.531c-10.578-2.133-20.675-.785-31.074 3.262 1.871-10.227 4.309-20.715 3.395-31.988-11.926 10.925-24.2 21.847-33.34 35.34-3.7 13.058 1.352 22.242 3.7 34.863a66 66 0 0 1 8.573-5.442c6.356-3.308 12.664-4.832 19.586-6.05 8.051-11.489 17.887-21.63 29.16-29.985" style="stroke:none;fill-rule:nonzero;fill:#d2ac66;fill-opacity:1"></path><path d="M63.36 82.043c-10.665 1.828-19.587 6.746-27.813 14.273-1.957-10.183-3.48-20.843-8.442-30.988-7.136 14.496-14.62 29.074-18.277 44.961 1.39 14.102 9.008 21.149 16.059 32.336 1.785-2.914 3.742-5.656 5.918-8.184 4.66-5.394 9.968-9.183 15.93-12.836 3.308-14.234 8.964-27.593 16.624-39.562" style="stroke:none;fill-rule:nonzero;fill:#d2ac66;fill-opacity:1"></path><path d="M45.602 126.871c-9.137 5.656-15.579 13.445-20.454 23.457-5.57-8.703-10.925-18.062-19.28-25.633-1.263 16.102-2.829 32.38-.348 48.485 6.44 12.535 16.144 16.187 26.808 23.976a61.4 61.4 0 0 1 2.48-9.793c2.31-6.746 5.876-12.183 10.055-17.8a127 127 0 0 1-1.437-19.192c0-7.965.738-15.84 2.176-23.5" style="stroke:none;fill-rule:nonzero;fill:#d2ac66;fill-opacity:1"></path><path d="M45.777 174.875c-6.441 8.66-9.53 18.277-10.312 29.375-8.403-6.047-16.887-12.793-27.422-16.754 4.746 15.45 9.312 31.203 17.586 45.262 10.703 9.312 21.062 9.27 33.945 12.535-.738-3.352-1.219-6.7-1.347-10.012-.352-7.136.957-13.535 2.785-20.324a127.8 127.8 0 0 1-15.235-40.082" style="stroke:none;fill-rule:nonzero;fill:#d2ac66;fill-opacity:1"></path><path d="M63.84 219.527c-2.832 10.446-2.133 20.59 1.262 31.25-10.098-2.523-20.41-5.656-31.684-5.441 10.14 12.578 20.238 25.547 33.074 35.559 13.016 4.57 26.985 3.046 40.043-.61 1.824-6.527 1.781-13.058.262-19.543a128.8 128.8 0 0 1-42.957-41.215" style="stroke:none;fill-rule:nonzero;fill:#d2ac66;fill-opacity:1"></path><path d="M136.129 123.39c-8.66-6.835-16.41-17.41-29.684-15.8 3.004 3.566 4.528 7.66 4.66 12.316.215 5.485-1.527 11.664-5.007 18.453-5.266 10.317-7.746 20.11-6.528 29.246 1.176 8.965 5.875 17.41 14.883 25.2h96.883c1.828-11.922 6.394-20.63 13.492-26.504 6.918-5.79 16.188-8.832 27.594-9.574-6.488-16.497-21.328-21.543-37.91-20.196 1.175-9.965 1.175-19.672-1.61-29.418-2.394-8.183-6.53-15.41-12.23-21.242-9.008-9.226-20.805-14.664-33.25-17.191-2.309 10.882-8.317 19.89-17.063 26.68-11.054 8.53-15.492 13.277-14.23 28.03" style="stroke:none;fill-rule:nonzero;fill:#ffde02;fill-opacity:1"></path><path d="M190.441 110.113c2.79 10.36 2.746 20.586-1.257 30.684-2.047 5.137-1.524 10.055.343 15.144.914 2.528 2.352 4.875 4.746 5.79 3.09 1.175 3.395-3.524 3.832-5.528 3.438-15.535 2.043-32.86-7.664-46.09M213.031 149.504c3.004-4.356 7.88-7.836 13.45-7.227 5.742.61 12.53 5.918 11.097 11.88-4.484-4.348-10.75-7.18-24.547-4.653" style="stroke:none;fill-rule:nonzero;fill:#eb1d22;fill-opacity:1" data-source="https://football-logos.cc"></path><path d="M181.781 109.723c-8.18 6.617-11.969 15.406-13.62 24.285-2.872 15.277-2.61 41.172 18.714 42.304 3.219.172 6.656-1.742 6.703-5.44 0-3.005-1.394-3.657-3.351-4.919-20.586-13.492-16.715-37.254-8.446-56.23" style="stroke:none;fill-rule:nonzero;fill:#eb1d22;fill-opacity:1"></path><path d="M208.113 137.574c.828-26.676-7.574-53.137-36.773-60.972v30.246c3.262-4.438 8.094-8.657 12.75-8.614 6.746.086 14.101 15.274 16.625 21.196 2.262 5.351 4.394 11.27 7.398 18.144M167.16 79.953c-1.176 4.656-4.308 9.488-8.922 14.797-4.527 5.18-8.441 8.75-10.664 15.582-.738 2.262-1.129 5.875-.262 8.617 1.262 3.832 5.965 5.356 8.97 2.524 2.827-2.61 1.78-8.442-.048-11.489 1.004-2.351 2.309-4.308 3.746-6.136 4.395-5.657 7.356-8.922 7.266-16.407M158.715 150.371c-2.13-13.492 3.613-25.375 7.226-38.082-5.746 8.707-9.75 17.844-12.925 27.203-1.614 4.832-5.313 13.36-3.961 18.106 1.218 4.437 6.351 5.703 9.093 3.175 2.7-2.48 2.133-7.398.567-10.402M116.11 120.82c1.347 3.352 2.48 5.918 3.046 8.618 1.567 7.488-.957 15.015.61 22.546 2.218 10.836 10.445 18.844 23.152 21.282-6.356-8.532-8.27-19.063-10.574-29.075-1.047-4.613-2.438-8.746-4.399-12.273-2.742-4.871-6.527-8.617-11.836-11.098" style="stroke:none;fill-rule:nonzero;fill:#eb1d22;fill-opacity:1"></path><path d="m234.445 134.617 12.012-.043V94.36l-34.687-.129c6.527 11.707 8.183 24.98 7.093 38.168 5.485-.043 10.75.61 15.582 2.22M98.7 3.965v39.648h49.66l-52.141 47.7v43.914l7.094-.043c6.18-12.84 5.136-19.715-4.047-30.641 14.71-1.742 21.195-.262 32.902 10.227 1.176-10.489 7.793-16.32 15.8-22.5 9.88-7.704 13.884-16.102 16.407-28.204 8.18 1.657 15.887 3.657 23.371 7.532 5.441 2.828 10.445 6.351 14.883 10.707l40.605-34.078V3.965" style="stroke:none;fill-rule:nonzero;fill:#fff;fill-opacity:1"></path><path d="M247.195 47.531c10.578-2.133 20.676-.785 31.075 3.262-1.872-10.227-4.305-20.715-3.391-31.988 11.922 10.925 24.195 21.847 33.336 35.34 3.7 13.058-1.352 22.242-3.7 34.863a66 66 0 0 0-8.574-5.442c-6.351-3.308-12.668-4.832-19.586-6.05-8.05-11.489-17.886-21.63-29.16-29.985" style="stroke:none;fill-rule:nonzero;fill:#d2ac66;fill-opacity:1"></path><path d="M279.316 82.043c10.66 1.828 19.582 6.746 27.813 14.273 1.957-10.183 3.476-20.843 8.437-30.988 7.141 14.496 14.625 29.074 18.282 44.961-1.395 14.102-9.008 21.149-16.059 32.336-1.785-2.914-3.742-5.656-5.918-8.184-4.7-5.48-9.707-9.355-15.93-12.836-3.308-14.234-8.964-27.593-16.625-39.562" style="stroke:none;fill-rule:nonzero;fill:#d2ac66;fill-opacity:1"></path><path d="M297.07 126.871c9.145 5.656 15.582 13.445 20.457 23.457 5.57-8.703 10.922-18.062 19.282-25.633 1.261 16.102 2.828 32.38.347 48.485-6.441 12.535-16.148 16.187-26.808 23.976a61 61 0 0 0-2.485-9.793c-2.304-6.746-5.875-12.183-10.05-17.8a127 127 0 0 0 1.433-19.192c0-7.965-.738-15.84-2.176-23.5" style="stroke:none;fill-rule:nonzero;fill:#d2ac66;fill-opacity:1"></path><path d="M296.898 174.875c6.442 8.66 9.532 18.277 10.313 29.375 8.402-6.047 16.89-12.793 27.422-16.754-4.746 15.45-9.313 31.203-17.586 45.262-10.707 9.312-21.063 9.27-33.945 12.535.738-3.352 1.218-6.7 1.351-10.012.344-7.136-.96-13.535-2.789-20.324a127.8 127.8 0 0 0 15.234-40.082" style="stroke:none;fill-rule:nonzero;fill:#d2ac66;fill-opacity:1"></path><path d="M278.836 219.527c2.828 10.446 2.133 20.59-1.262 31.25 10.098-2.523 20.41-5.656 31.684-5.441-10.14 12.578-20.238 25.547-33.074 35.559-13.016 4.57-26.985 3.046-40.043-.61-1.828-6.527-1.782-13.058-.262-19.543a128.8 128.8 0 0 0 42.957-41.215" style="stroke:none;fill-rule:nonzero;fill:#d2ac66;fill-opacity:1"></path><path d="M247.152 47.531c31.555 23.328 52.094 60.797 52.094 102.84 0 70.461-57.445 127.953-127.906 127.953-70.465 0-127.914-57.492-127.914-127.953 0-33.207 12.797-63.543 33.73-86.348 5.614-6.09 11.707-11.488 18.324-16.492h10.403c-33.383 21.805-56.45 60.235-56.45 102.84 0 19.238 4.481 37.387 12.446 53.578h218.918c7.96-16.191 12.445-34.34 12.445-53.578 0-39.863-19.367-75.422-49.222-97.707l3.132-2.61" style="stroke:none;fill-rule:nonzero;fill:#ffde02;fill-opacity:1"></path><path d="M230.18 212.348c-2.176-.524-2.614-2.786-1.914-4.395.695-1.613 3.004-2.351 4.828-1.004 2.699 1.961 1.308 6.356-2.914 5.399M207.242 265.14c11.012-16.363 22.5-33.558 32.074-50.792h4.313c-8.836 14.492-12.277 19.543-22.066 33.558 6.222-7.183 4.656-4.96 11.183-12.101 6.617-7.18 13.45-14.274 20.41-21.457h4.875c-8.527 10.84-17.844 23.722-25.633 33.906 14.93-14.54 19.41-20.02 34.907-33.906h5.175c-18.886 16.453-36.644 33.297-55.27 50.793h-2.784c9.617-11.446 17.797-20.938 26.676-32.903-12.88 13.664-18.454 18.93-31.29 32.903M180.563 265.14c1.699-8.488 3.351-16.933 5.05-25.374 1.653-8.485 3.309-16.93 5.004-25.418h3.742a1234 1234 0 0 1-2.914 12.23c-.957 4.047-1.87 8.14-2.87 12.23 2.566-4.09 5.265-8.226 8.265-12.23 3.004-4.133 6.355-8.137 9.84-12.23h4.785c-5.961 6.617-11.75 13.886-16.973 21.066-.133 5.047-.48 9.574-1.09 14.578-.609 5.051-1.609 10.098-2.699 15.149h-2.176c.743-4.223 1.395-8.446 1.828-12.668.391-4.22.567-8.442.61-12.664-1.477 2.308-2.305 4.656-3.656 6.964-1.52 6.18-2.914 12.446-4.348 18.672-.613 0-1.79-.304-2.399-.304M170.074 265.14l-.129-5.269c2.48-14.23 6.356-25.543 11.836-38.777h-12.183c-.043-1.739-.043-4.961-.086-6.746h17.972l-.785 5.226c-6.394 14.055-10.879 24.805-14.273 40.082h7.05c-.304 1.828-.566 3.656-.87 5.485M154.277 249.035h2.914c.524 2.438 2.395 12.23 6.008 12.23 3.004 0 2.395-7.874 2.223-9.53-.438-4.528-3.137-6.876-6.617-9.184-3.57-2.309-5.313-3.914-7.14-7.832-1.915-4.137-4.048-13.668-2.349-17.844 1-2.484 3.09-3.137 6.051-3.137 9.094.09 9.27 9.707 9.574 15.801h-2.699c-.48-4.266-1.047-9.402-6.18-10.098-6.484-.828-3.527 11.446-.742 14.188 6.442 6.398 11.926 5.441 12.664 17.41.133 2.438.305 15.23-4.132 15.23-4.918 0-8.79-13.84-9.575-17.234M120.547 214.348c1.219 0 3.18-.13 4.484-.13 2.7 5.7 5.485 11.403 8.227 17.106 2.738 5.7 5.48 11.403 8.222 17.059 2.31 4.789 4.137 8.183 5.528 10.054 1.785 2.438 4.527 4.875 4.094-.304-.176-2.004-1-5.223-2.528-9.617-2.043-5.703-4.047-11.36-6.094-17.063-2-5.703-4.042-11.402-6.046-17.105h4.004c1.742 5.527 3.484 11.058 5.265 16.582l5.223 16.582c1.347 4.265 2.219 7.312 2.613 9.054.39 1.786 2.219 9.707-1.047 9.707-.828 0-2.176-.437-3.262-1.351-1.132-.914-2.308-2.219-3.57-3.918-.87-1.133-1.87-2.61-2.918-4.395-1.086-1.785-2.738-4.832-4.96-9.097-2.872-5.524-5.743-11.055-8.618-16.582-2.871-5.524-5.742-11.055-8.617-16.582M98.656 238.633h4.09c1.7 0 2.223-.781 1.61-2.438-1.086-2.87-8.79-11.402-11.66-13.187-3.876-2.434-7.184-2.176-11.45-2.176 5.79 5.832 11.621 12.059 17.41 17.8m24.156 26.509c-8.75-8.489-17.542-16.934-26.289-25.375-8.746-8.485-17.539-16.93-26.328-25.414 7.223 0 13.274-.657 19.758 3.433 3.613 2.223 7.703 5.832 11.836 10.75 2.785 3.309 7.398 8.578 8.75 12.926.434 1.484-.043 2.18-2.09 2.351-1.176.047-3.047 0-4.222 0 3.57 3.528 6.746 6.922 10.27 10.489 3.57 3.527 7.097 7.097 10.663 10.664-.61 0-1.738.176-2.347.176" style="stroke:none;fill-rule:nonzero;fill:#eb1d22;fill-opacity:1"></path><path d="M213.379 220.527c3.351-3.566 7.617-6.699 12.23-7.394 3.875-.567 4.79 1.957 4.57 6.133-.128 2.918-1.699 7.05-3.699 10.968-2.96 5.961-7.27 12.188-11.226 17.54-6.14 8.269-14.844 19.41-18.586 18.585-2.004-.437-1.957-3.308-1.219-7.007 2.305-11.45 10.008-30.336 17.93-38.825m-11.664 27.641c-2.219 6.004-4.266 12.969-1.914 12.621 4.789-.785 16.625-19.543 21.543-28.031 1.437-2.524 7.922-13.535 1.523-12.969-4.96.434-9.008 5.352-12.273 10.578-3.614 5.785-6.485 11.399-8.88 17.801M125.902 232.977c1.305 2.87 1.871 5.093 1.739 7.57 6.441 3.617 12.754 19.371 17.714 24.594h-2.96c-.958-1.176-2.829-3.918-5.614-8.27-1.437-2.176-2.566-3.918-3.394-5.18-2.352-3.527-4.961-8.398-9.66-8.398h-3.442c5.399 7.18 10.84 14.664 16.278 21.848H134.3a12002 12002 0 0 0-20.11-25.375c-6.699-8.485-13.402-16.93-20.105-25.418h10.707c5.789 0 9.312 2.875 13.144 6.879 3.09 3.308 6.442 8.007 7.965 11.75m-9.707 4.918c1.176 0 2.961.132 4.133.132 2.047 0 2.961-.785 2.961-2.308 0-1.828-6.05-10.356-7.832-12.184-3.18-3.137-7.746-2.484-11.797-2.484 4.137 5.484 8.488 11.406 12.535 16.844" style="stroke:none;fill-rule:nonzero;fill:#eb1d22;fill-opacity:1" data-source="https://football-logos.cc"></path><!-- source: https://football-logos.cc --></svg>