<svg xmlns="http://www.w3.org/2000/svg" viewBox="0 0 1522 2066"><!-- Source: https://football-logos.cc --><path fill="#fff" fill-rule="evenodd" d="M1.11 0q.91.43 1.41 0h.85q.29.33 1.06.14L1518.86.09a.079.057-75.803 0 0 .06-.05q.01-.02.01-.04h.21q.85.21 1.61 0h1.25v1320.88q-.41 8.93-.8 17.87-4.59 106.67-37.68 206.49c-70.52 212.71-235.15 386.28-443.65 468.22q-121.92 47.91-255.12 52.02-7.99.25-15.98.52h-15.4q-7.07-.25-14.12-.45-151.84-4.24-288.82-65.5c-118.86-53.16-221.61-136.29-299.59-240.19-67.11-89.41-113.53-193.25-135.67-302.6Q1.12 1387.83 0 1314.75V0zm759.954 2034.477c139.893-.003 276.392-39.86 393.959-115.504 154.157-99.183 266.157-252.923 312.137-430.243q23.31-89.9 23.35-179.49.12-278.3.02-1277.23a.395.385.368 0 0-.39-.385q-364.35-.002-729.116.005t-729.116.025a.395.385-.371 0 0-.39.384q-.06 998.93.071 1277.23.044 89.59 23.358 179.489c45.987 177.319 157.993 331.054 312.154 430.23 117.57 75.641 254.07 115.491 393.963 115.489" data-source="https://football-logos.cc"></path><path fill="#4c2c65" fill-rule="evenodd" d="M4.58 0q-.08.07-.15.14Q3.66.33 3.37 0zM761.024 31.63q364.766-.007 729.116-.005a.395.385.368 0 1 .39.385q.1 998.93-.02 1277.23-.04 89.59-23.35 179.49c-45.98 177.32-157.98 331.06-312.137 430.243-117.567 75.644-254.066 115.501-393.959 115.504-139.893.002-276.393-39.848-393.963-115.489-154.161-99.176-266.167-252.911-312.154-430.23q-23.314-89.899-23.358-179.489-.131-278.3-.071-1277.23a.395.385-.371 0 1 .39-.384q364.35-.018 729.116-.025m520.616 779.39h-248.19a.897.873 20.895 0 0-.65.28L889.57 962.87a.29.289 66.723 0 1-.5-.2V781.96a.34.33-.895 0 1 .33-.33q57.61-.1 130.39.06 46.58.1 59.84-1c102.03-8.42 190.88-71.28 233.3-164.72 15.83-34.86 24.39-73.69 24.65-111.73q.07-10.34.11-54.07.03-27.53-1.42-41.32c-13.98-132.97-117.84-237.03-250.7-251.21q-15.39-1.64-53.68-1.49-34.87.14-400.81.04a.38.37-90 0 0-.37.38v806.1a.284.281 23.542 0 1-.49.19L486.98 811.28a.848.845 68.009 0 0-.61-.26H238.38a.32.319 68.217 0 0-.23.54l392.2 415.06a1.334 1.31-67.102 0 1 .36.91v8.67a1.565 1.544-23.765 0 1-.42 1.06l-392.4 415.27a.375.368 43.389 0 0 .02.53l130.92 123.71a.55.55-24.446 0 0 .78-.02l260.64-275.84a.268.265-23.327 0 1 .46.18v324.6a.37.37 45 0 0 .37.37h257.38a.61.6 0 0 0 .61-.6v-324.31a.299.296-67.13 0 1 .51-.21l260.66 275.86a.48.48-44.29 0 0 .68.02l130.92-123.72a.43.43-43.181 0 0 .02-.62L889.45 1237.2a1.429 1.425-66.467 0 1-.38-.97v-8.68a1.365 1.315 67.118 0 1 .35-.91L1281.8 811.4a.225.223-68.095 0 0-.16-.38"></path><path fill="#fff" fill-rule="evenodd" d="M1281.64 811.02a.225.223-68.095 0 1 .16.38l-392.38 415.24a1.365 1.315 67.118 0 0-.35.91v8.68a1.429 1.425-66.467 0 0 .38.97l392.41 415.28a.43.43-43.181 0 1-.02.62l-130.92 123.72a.48.48-39.376 0 1-.68-.02l-260.66-275.86a.299.296-67.13 0 0-.51.21v324.31a.61.6 0 0 1-.61.6H631.08a.37.37-45 0 1-.37-.37v-324.6a.268.265-23.327 0 0-.46-.18l-260.64 275.84a.55.55-5.45 0 1-.78.02l-130.92-123.71a.375.368 43.389 0 1-.02-.53l392.4-415.27a1.565 1.544-23.765 0 0 .42-1.06v-8.67a1.334 1.31-67.102 0 0-.36-.91l-392.2-415.06a.32.319 68.217 0 1 .23-.54h247.99a.848.845 68.009 0 1 .61.26l143.24 151.58a.284.281 23.542 0 0 .49-.19v-806.1a.38.37-90 0 1 .37-.38q365.94.1 400.81-.04 38.29-.15 53.68 1.49c132.86 14.18 236.72 118.24 250.7 251.21q1.45 13.79 1.42 41.32-.04 43.73-.11 54.07c-.26 38.04-8.82 76.87-24.65 111.73-42.42 93.44-131.27 156.3-233.3 164.72q-13.26 1.1-59.84 1-72.78-.16-130.39-.06a.34.33-.895 0 0-.33.33v180.71a.29.289 66.723 0 0 .5.2L1032.8 811.3a.897.873 20.895 0 1 .65-.28zM889.07 351.93v227.22a.91.91-44.964 0 0 .91.91h76.29a92.86 92.86-9.045 0 0 92.86-92.86v-43.32a92.86 92.86-4.638 0 0-92.86-92.86h-76.29a.91.91 11.222 0 0-.91.91" data-source="https://football-logos.cc"></path><path fill="#4c2c65" fill-rule="evenodd" d="M889.07 351.93a.91.91 36.829 0 1 .91-.91h76.29a92.86 92.86-29.316 0 1 92.86 92.86v43.32a92.86 92.86 25.386 0 1-92.86 92.86h-76.29a.91.91 44.991 0 1-.91-.91z" data-source="https://football-logos.cc"></path><!-- source: https://football-logos.cc --></svg>