<svg xmlns="http://www.w3.org/2000/svg" viewBox="0 0 280.64 314.79"><!-- Source: https://football-logos.cc --><defs data-source="https://football-logos.cc"><clipPath id="a"><path d="M0 0h280.648v314.79H0Zm0 0"></path></clipPath></defs><g clip-path="url(#a)"><path d="M140.324.004C95.114.004 49.531 5.55 4.84 16.484L0 17.668v34.559c0 49.21.96 93.234 12.785 133.64 6.621 22.637 16.024 41.973 28.742 59.121 14.012 18.899 32.399 35.188 54.645 48.418 12.418 7.489 26.465 14.403 41.75 20.547l.148.059.149.05.031.012 2.074.715 2.07-.715.032-.012.148-.05.149-.059c15.28-6.144 29.328-13.055 41.742-20.543 22.25-13.23 40.637-29.523 54.656-48.422 12.719-17.148 22.117-36.484 28.742-59.12 11.82-40.407 12.782-84.43 12.782-133.641V17.668l-4.836-1.184C231.113 5.551 185.53.004 140.324.004" style="stroke:none;fill-rule:nonzero;fill:#0a2065;fill-opacity:1"></path></g><path d="M140.324 6.352c44.723 0 89.567 5.433 133.973 16.3v29.575c0 91.242-2.383 181.804-93.086 235.73-12.008 7.246-25.55 13.953-40.856 20.106l-.03.011-.036-.012c-15.305-6.152-28.848-12.859-40.855-20.105C8.73 234.031 6.348 143.469 6.348 52.227V22.652c44.406-10.867 89.25-16.3 133.976-16.3" style="stroke:none;fill-rule:nonzero;fill:#ff8c05;fill-opacity:1"></path><path d="M265.23 57.316c-18.246-5.214-66.945-17.343-124.91-17.343S33.66 52.102 15.414 57.316l-2.527.723.008 2.625c.082 28.703.718 59.074 4.789 86.742l.562 3.844 3.758-.988c21.996-5.805 66.617-15.54 118.316-15.54 3.282 0 6.66.044 10.059.126 7.832 4.726 16.219 7.12 24.934 7.12 3.574 0 7.21-.413 10.82-1.226a56 56 0 0 0 8.41-2.629c27.656 3.364 50.094 8.453 64.098 12.149l3.757.988.567-3.84c4.07-27.676 4.707-58.047 4.785-86.746l.008-2.625" style="stroke:none;fill-rule:nonzero;fill:#0a2065;fill-opacity:1"></path><path d="M264.277 60.656c-17.02-4.863-65.972-17.21-123.957-17.21-57.98 0-106.933 12.347-123.953 17.21.078 27.219.606 58.078 4.75 86.246 20.508-5.41 66.336-15.648 119.203-15.648q5.601 0 11.078.148c7.516 4.711 15.52 7.094 23.915 7.094 3.316 0 6.699-.383 10.054-1.14a53 53 0 0 0 8.7-2.797c28.968 3.472 52.37 8.89 65.46 12.343 4.145-28.168 4.676-59.027 4.75-86.246" style="stroke:none;fill-rule:nonzero;fill:#fe0009;fill-opacity:1"></path><path d="M264.16 76.7c.02-1.24.027-2.47.043-3.696H181.04v3.695M16.445 73.004c.012 1.23.024 2.457.04 3.695h83.12v-3.695M16.54 80.395q.028 1.84.07 3.695h82.995v-3.695M264.04 84.09q.035-1.854.065-3.695H181.04v3.695M263.86 91.48c.035-1.234.07-2.468.097-3.695h-82.918v3.695M16.688 87.785q.045 1.842.097 3.695h82.82v-3.695M264.234 69.309c.008-1.235.02-2.47.024-3.696h-83.219v3.696M16.387 65.613l.023 3.696h83.195v-3.696M264.273 61.922c0-.422.004-.848.004-1.266a335 335 0 0 0-8.972-2.43h-74.266v3.696M25.34 58.227a339 339 0 0 0-8.973 2.43c0 .417.004.843.004 1.265h83.234v-3.695M239.762 54.531a485 485 0 0 0-18.621-3.695h-40.102v3.695M59.504 50.836a483 483 0 0 0-18.621 3.695h58.722v-3.695M196.953 47.14a479 479 0 0 0-15.914-1.753v1.754M83.691 47.14h15.914v-1.753a470 470 0 0 0-15.914 1.754M18.586 124.734c.105 1.235.223 2.465.336 3.696h80.683v-3.696M261.723 128.43q.176-1.844.336-3.696h-81.02v3.696M190.727 135.816a53 53 0 0 0 3.34-1.257c3.304.394 6.53.82 9.68 1.257h57.214c.14-1.226.27-2.46.398-3.695h-80.32v3.695M19.285 132.121c.13 1.234.258 2.469.399 3.695h57.203a493 493 0 0 1 22.718-2.636v-1.059M20.605 143.207h15.668a493 493 0 0 1 17.965-3.695h-34.11q.23 1.856.477 3.695M244.371 143.207h15.668a353 353 0 0 0 .48-3.695h-34.113a493 493 0 0 1 17.965 3.695M18.016 117.344c.086 1.23.175 2.465.27 3.695h81.32v-3.695M262.36 121.04c.093-1.231.183-2.466.269-3.696h-81.59v3.695M17.55 109.953c.071 1.23.141 2.465.22 3.695h81.835v-3.695M262.879 113.648q.112-1.847.219-3.695h-82.059v3.695M263.29 106.258c.062-1.23.12-2.465.175-3.695h-82.426v3.695M17.184 102.563c.05 1.23.113 2.464.175 3.695h82.246v-3.695M16.902 95.176c.04 1.226.082 2.46.13 3.691h82.573v-3.691M263.613 98.867c.051-1.23.09-2.465.133-3.691H181.04v3.691" style="stroke:none;fill-rule:nonzero;fill:#13007c;fill-opacity:1"></path><path d="M81.387 209.965c0-16.125 6.633-30.934 17.281-41.578q.463-.464.937-.914v-21.395c-35.921 3.328-64.992 10.188-79.746 14.18 1.446 7.48 3.188 14.812 5.29 21.992 6.187 21.148 14.93 39.16 26.726 55.063 12.512 16.87 28.156 30.992 47.73 43.097v-27.875a52 52 0 0 1-.937-.914c-10.648-10.644-17.281-25.379-17.281-41.656M181.04 146.078v21.465q.433.416.862.844c10.723 10.644 17.36 25.453 17.36 41.578 0 16.281-6.637 31.012-17.36 41.656q-.429.426-.863.848v27.941c19.578-12.105 35.223-26.226 47.734-43.098 11.793-15.902 20.536-33.914 26.723-55.062 2.102-7.18 3.844-14.512 5.29-21.992-14.75-3.992-43.821-10.848-79.747-14.18" style="stroke:none;fill-rule:nonzero;fill:#0a2065;fill-opacity:1" data-source="https://football-logos.cc"></path><path d="M140.254 157.445c14.527 0 27.672 5.922 37.176 15.422 9.566 9.5 15.488 22.719 15.488 37.106 0 14.527-5.922 27.675-15.488 37.175-9.504 9.567-22.649 15.489-37.176 15.489-14.387 0-27.535-5.922-37.106-15.489-9.5-9.5-15.421-22.648-15.421-37.175 0-14.387 5.921-27.606 15.421-37.106 9.57-9.5 22.72-15.422 37.106-15.422" style="stroke:none;fill-rule:nonzero;fill:#0a2065;fill-opacity:1"></path><path d="M118.05 250.988c-2.366-1.215-4.8-3.074-7.171-5.312-.512-.45-1.09-1.028-1.598-1.54-2.37-2.433-4.55-5.058-6.148-7.363-.64-.96-1.219-1.793-1.664-2.625-1.028-.32-1.922-.64-2.754-.835-.578-.192-1.09-.317-1.602-.45a47 47 0 0 0 6.02 8.903c.832.96 1.664 1.922 2.625 2.882a48 48 0 0 0 5.12 4.418c2.5 1.86 5.188 3.524 8.005 4.871-.254-.898-.445-1.671-.64-2.308a7 7 0 0 0-.192-.64M102.79 188.113c1.534-2.883 3.01-5.504 4.163-7.234a21.5 21.5 0 0 1-.191-3.008c0-1.027.062-2.18.125-3.27-.512.45-1.024.899-1.473 1.348-.96.957-1.793 1.922-2.625 2.88-6.789 8.007-10.95 18.25-11.207 29.327 1.281-1.281 2.691-2.883 3.844-4.222.449-.512.77-.965 1.09-1.348.703-2.434 1.918-5.57 3.39-8.703.899-1.926 1.86-3.914 2.883-5.77M102.137 194.797a81 81 0 0 0-2.946 7.305c.641 1.472 1.602 3.71 2.883 5.89q.575 1.056 1.344 2.113c1.152 1.73 2.562 3.395 4.098 4.418 1.09-.324 12.168-3.265 15.304-4.101l8.578-16.457c-.894-1.278-1.855-2.75-2.683-4.29a97 97 0 0 1-1.54-2.816c-1.09-2.433-2.112-4.93-2.687-7.492-2.308.063-5.894.45-9.16 1.024a60 60 0 0 0-4.164.898c-.766.191-1.406.445-1.984.64-1.535 2.243-3.778 6.145-5.762 10.31-.45.831-.898 1.726-1.281 2.558M129.816 185.523c1.227 2.516 2.707 4.903 4.063 6.84l20.324 3.227 8.004-9.613c-.262-2-.969-4.325-2-6.649-.387-1.027-.906-2.062-1.422-3.094-1.097-2.261-2.324-4.39-3.422-6.195-2.84-.52-13.933-2-16.644-2.129-.516.387-1.16.711-1.809 1.16-1.547 1.094-3.351 2.387-5.094 3.871a28 28 0 0 0-2.062 1.871c-1.102 1.098-2.004 2.13-2.649 3.098a35 35 0 0 0 2.649 7.418c0 .067.062.133.062.195M137.074 164.965c.64.195 1.281.45 1.922.64 2.625.13 14.215 1.598 17.227 2.176l6.527-1.152c-1.277-.703-2.621-1.277-3.969-1.856-3.71-1.605-7.62-2.691-11.777-3.27-2.117-.253-4.23-.444-6.473-.444-1.152 0-2.304.062-3.457.125-1.726.132-3.52.386-5.25.707.895.765 1.985 1.472 3.137 2.05.64.383 1.41.7 2.113 1.024M136.254 227.012l-.258-.258-12.867-13.188c-2.883.704-14.219 3.778-15.242 4.094-1.09 1.922-1.922 4.164-2.625 6.406-.832 2.621-1.348 5.188-1.664 7.301q-.196.676-.196 1.344c0 .062.13.191.196.32 1.535 2.625 4.289 6.211 7.425 9.414.13.13.196.192.32.32 2.626 2.626 5.446 4.93 8.067 6.212 2.563-.516 5.125-1.09 7.496-1.793.64-.13 1.278-.32 1.985-.512 1.726-.516 3.457-1.09 5.12-1.668M179.234 193.027a18.6 18.6 0 0 0-6.453-3.77c-2.492-.831-5.297-1.21-8.363-1.085l-4.727 5.617-3.382 4.152 2.746 18.075c.187.125.445.254.636.316 5.809 2.813 10.41 6.066 13.22 8.047h.066c1.789-1.531 3.894-3.383 5.875-5.36a39 39 0 0 0 3.003-3.386c.508-.574.958-1.211 1.336-1.852.254-5.812-.379-10.219-1.336-13.605-.77-2.938-1.789-5.235-2.62-7.149M182.492 185.496c-.387-.64-.773-1.219-1.156-1.86l-.191 7.626c.062.187.128.379.19.508q.576 1.249 1.157 2.69c1.66 3.97 3.324 9.477 3.137 18.06.254.636.64 1.664 1.152 2.878.446 1.09.961 2.372 1.535 3.653.575-3.074.899-6.215.899-9.414 0-8.836-2.434-17.098-6.723-24.14M154 251.973c1.602-.77 3.332-1.602 5.059-2.5 3.52-1.918 7.3-4.16 10.629-7.235l1.859-15.05c-.067-.063-.133-.063-.195-.125-2.692-1.922-6.98-4.872-12.293-7.56q-.77-.38-1.54-.769l-18.183 8.778-2.242 18.054c.129.067.191.13.258.196a30.4 30.4 0 0 0 5.566 3.586c1.281.703 2.691 1.277 4.36 1.918 1.472.578 3.074 1.09 4.867 1.601a17 17 0 0 0 1.855-.894M159.402 252.05a80 80 0 0 1-4.289 2.114q-1.249.579-2.304 1.156l-1.73 2.434c2.882-.64 5.636-1.54 8.323-2.625 5.703-2.434 10.825-5.89 15.114-10.184.257-.257.449-.511.707-.703-1.22-.062-2.5-.062-4.102-.062-3.71 3.39-7.812 5.824-11.719 7.87" style="stroke:none;fill-rule:nonzero;fill:#fff;fill-opacity:1"></path><path d="m183.02 35.543 3.62.379 2.079-19.754-3.625-.383ZM170.176 27.047l3.37-9.063h.06l1.847 9.434Zm1.68-12.207-8.032 19.351 3.637.254 1.754-4.668 6.812.477 1.059 4.863 3.746.262-5.004-20.262M198.25 23.8a4.084 4.084 0 0 0-4.074 4.075 4.08 4.08 0 0 0 4.074 4.07 4.08 4.08 0 0 0 4.07-4.07 4.08 4.08 0 0 0-4.07-4.074M239.734 34.629q.837-.855 2.09-.59c.887.188 1.457.672 1.7 1.438q.364 1.154.027 2.742c-.242 1.148-.63 2.008-1.156 2.578-.532.562-1.239.754-2.13.562q-1.307-.276-1.702-1.379-.388-1.1-.02-2.828.35-1.669 1.191-2.523m5.7-10.324q-2.227-.476-3.88.12a6.87 6.87 0 0 0-2.84 1.915q-1.182 1.318-1.933 3.223a25 25 0 0 0-1.21 4.05 20.3 20.3 0 0 0-.458 3.598c-.039 1.137.098 2.168.403 3.098a5.4 5.4 0 0 0 1.52 2.355q1.057.97 2.925 1.367 1.36.288 2.527.07a4.85 4.85 0 0 0 2.07-.898 5.8 5.8 0 0 0 1.524-1.77q.627-1.09.934-2.538c.222-1.055.28-2.012.16-2.86-.125-.851-.363-1.59-.723-2.219a4.6 4.6 0 0 0-1.394-1.53 5.1 5.1 0 0 0-1.88-.81c-.945-.203-1.734-.167-2.359.094a4.75 4.75 0 0 0-1.617 1.098l-.043-.066q.215-.887.653-1.973.433-1.086 1.117-1.973a4.8 4.8 0 0 1 1.687-1.386q1.012-.5 2.434-.196c.777.164 1.402.403 1.867.715q.703.474 1.152.8l.813-2.855a13 13 0 0 0-1.29-.722q-.824-.425-2.16-.707M254.355 37.73c.579-.55 1.282-.718 2.11-.515.883.222 1.437.719 1.652 1.496.211.777.195 1.691-.07 2.742-.281 1.14-.7 1.984-1.246 2.535q-.82.82-2.145.492-1.3-.328-1.652-1.44-.352-1.115.074-2.825.413-1.659 1.277-2.485m1.407-5.925a4.9 4.9 0 0 1 1.734-1.328c.688-.309 1.496-.344 2.438-.11q1.159.288 1.843.781.685.495 1.125.836l.907-2.82c-.297-.21-.72-.469-1.258-.77q-.811-.452-2.137-.78-2.209-.551-3.883-.016a6.9 6.9 0 0 0-2.902 1.812c-.816.852-1.5 1.906-2.043 3.156a24.6 24.6 0 0 0-1.356 4.004c-.308 1.25-.507 2.446-.582 3.578-.078 1.137.024 2.172.293 3.11a5.5 5.5 0 0 0 1.438 2.414q1.03 1.002 2.875 1.465 1.351.337 2.527.16a4.8 4.8 0 0 0 2.098-.828q.927-.647 1.586-1.715c.441-.711.785-1.543 1.02-2.5.265-1.055.35-2.004.257-2.856-.09-.855-.305-1.601-.64-2.246a4.74 4.74 0 0 0-1.336-1.578 5.15 5.15 0 0 0-1.852-.87c-.937-.235-1.73-.231-2.363.01-.64.243-1.188.59-1.653 1.04l-.043-.066q.249-.878.72-1.95.47-1.073 1.187-1.933M208.21 22.5l1.278 2.68 3.004-2.032-2.457 15.489 3.488.554 3.106-19.62-2.98-.473M158.965 24.129q-.059 1.622-.461 2.933-.4 1.309-1.156 2.223a4.7 4.7 0 0 1-1.899 1.371c-.762.305-1.652.438-2.68.403l-1.222-.04.5-14.28 1.223.046q1.534.051 2.64.59a4.7 4.7 0 0 1 1.8 1.5c.462.64.794 1.41 1 2.297.204.89.294 1.879.255 2.957m-5.285-10.121-5.18-.184-.691 19.852 5.175.183q2.08.07 3.832-.476a8.05 8.05 0 0 0 3.067-1.746q1.312-1.19 2.086-3.032c.52-1.226.804-2.671.863-4.34q.17-4.95-2.144-7.523-2.315-2.571-7.008-2.734M229.957 27.797q-.292 1.681-1.102 2.566-.801.884-2.066.66-1.346-.235-1.75-1.378-.404-1.139-.121-2.735.305-1.74 1.066-2.613c.504-.59 1.211-.8 2.106-.645.879.157 1.46.594 1.75 1.32q.428 1.09.117 2.825m1.316-5.563q-1.091-.929-2.968-1.261-1.401-.242-2.551.015a4.86 4.86 0 0 0-2.02.973c-.582.477-1.07 1.082-1.464 1.824-.387.738-.668 1.598-.84 2.567-.188 1.066-.203 2.02-.055 2.867.145.843.414 1.574.797 2.191a4.6 4.6 0 0 0 1.441 1.48 5.1 5.1 0 0 0 1.91.743c.95.168 1.739.11 2.356-.176a4.8 4.8 0 0 0 1.574-1.152l.047.066q-.21.886-.598 1.988a8 8 0 0 1-1.03 2.016 4.8 4.8 0 0 1-1.642 1.441q-.99.533-2.421.286-1.173-.212-1.895-.657a34 34 0 0 1-1.184-.758l-.707 2.883c.313.188.754.414 1.313.68q.84.393 2.184.633 2.245.393 3.875-.258a6.7 6.7 0 0 0 2.753-2.016q1.123-1.363 1.825-3.289c.464-1.289.828-2.648 1.082-4.086.218-1.254.332-2.453.332-3.597q-.005-1.722-.508-3.098a5.5 5.5 0 0 0-1.606-2.305M86.05 28.871l1.75-9.512.055-.007 3.461 8.964Zm-.464-12.312-4.547 20.449 3.625-.383.914-4.902 6.793-.715 1.887 4.61 3.738-.391-8.445-19.086M43.367 22.59l-4.09.867-3.789 9.418-.082.02-1.754-8.243-3.562.758 4.129 19.43 3.562-.758-1.937-9.129.082-.02 7.785 7.891 4.316-.918-9.308-8.754M28.137 34.043l-5.938 1.48-1.308-5.246 6.214-1.55-.703-2.817-9.75 2.43 4.805 19.277 3.535-.883-2.09-8.394 5.938-1.48M136.922 30.617l7.668-14.082-.055-3.015-11.836.207.051 2.906 7.598-.137-7.586 13.91.058 3.188 12.176-.215-.05-2.902M52.059 27.078a4.08 4.08 0 0 0-4.07 4.07 4.08 4.08 0 0 0 4.07 4.075 4.084 4.084 0 0 0 4.074-4.075 4.08 4.08 0 0 0-4.074-4.07M139.96 12.547l2.532-4.125-2.273.035-1.59 2.68-1.688-2.63-2.304.04 2.687 4.043M122.922 22.828l.148 2.785 3.012-.156.277 5.34a5.893 5.893 0 0 1-2.082.48q-1.393.072-2.5-.382a4.84 4.84 0 0 1-1.882-1.368q-.773-.915-1.211-2.246c-.297-.886-.47-1.886-.532-3.008-.05-1.02.024-1.984.235-2.89q.314-1.355 1.015-2.375a5.5 5.5 0 0 1 1.782-1.645q1.075-.627 2.527-.703 1.364-.072 2.547.207a8.4 8.4 0 0 1 2.094.778l.027-3.282q-.586-.228-1.875-.457c-.867-.156-1.863-.203-3-.14-1.594.082-2.98.41-4.168.988-1.184.57-2.168 1.336-2.941 2.289-.782.953-1.344 2.059-1.696 3.324q-.527 1.894-.41 4.11c.078 1.476.356 2.828.84 4.046q.72 1.829 2.027 3.13c.871.863 1.93 1.523 3.168 1.968q1.86.675 4.246.55 1.964-.105 3.266-.487 1.306-.382 2.055-.82l-.547-10.372M70.95 27.176l.39 2.762 2.984-.422.746 5.297a5.9 5.9 0 0 1-2.035.66c-.918.129-1.762.074-2.523-.16a4.8 4.8 0 0 1-1.992-1.204c-.567-.558-1.04-1.27-1.407-2.129q-.555-1.287-.789-2.949a10.5 10.5 0 0 1-.02-2.898c.13-.922.4-1.738.805-2.457a5.4 5.4 0 0 1 1.63-1.793q1.02-.722 2.456-.922a9 9 0 0 1 2.559-.016c.8.117 1.52.317 2.152.59l-.258-3.27q-.603-.175-1.91-.292c-.875-.078-1.875-.035-3.004.12q-2.362.335-4.062 1.348-1.694 1.015-2.73 2.54-1.04 1.523-1.399 3.456c-.238 1.29-.258 2.668-.05 4.133q.308 2.2 1.187 3.953.879 1.764 2.297 2.942c.941.789 2.054 1.351 3.324 1.687 1.277.34 2.699.399 4.281.176 1.293-.183 2.367-.437 3.211-.77q1.265-.493 1.973-.992L77.32 26.277M106.375 22.738q-.842.803-2.29.903l-1.48.105-.406-5.851 1.477-.102c1.02-.07 1.832.062 2.426.398q.89.51 1.007 2.215c.075 1.024-.171 1.797-.734 2.332m2.727 3.078a2.9 2.9 0 0 0-.602-.644 1.9 1.9 0 0 0-.594-.3 4 4 0 0 0-.578-.118l-.004-.086c1.106-.246 1.989-.805 2.653-1.664.66-.867.945-1.95.851-3.258-.062-.906-.258-1.68-.586-2.312a4.3 4.3 0 0 0-1.32-1.536c-.555-.39-1.2-.66-1.942-.82a8.9 8.9 0 0 0-2.421-.14l-6.188.43 1.387 19.816 3.633-.254-.598-8.52.824-.055q.996-.07 1.723.32c.48.262.875.782 1.176 1.56l2.41 6.308 3.863-.27-3.113-7.37a5.5 5.5 0 0 0-.574-1.087M235.855 99.496h-8.796l4.37-11.305Zm-147.242 0h-8.797l2.575-6.687 1.793-4.621 1.804 4.628Zm165.969 17.418L235.285 67.5l-.48-1.238h-6.68l-.484 1.238-18.817 48.234-.191-.168-2.238-1.914-1.301-1.113-1.285 1.164c-.086.074-8.723 7.652-20.317 8.953a30 30 0 0 1-3.398.192c-9.746 0-18.711-4.797-26.66-14.254V67.21H141.66v28.394l-22.887-26.351c-9.418-11.047-20.367-16.656-32.543-16.656-.695 0-1.406.02-2.109.054-12.207.649-22.543 6.825-27.617 10.446-2.277 1.629-3.68 2.863-3.938 3.093l-.062.055-1.66 1.469 1.672 1.457.07.058 2.184 1.868 1.296 1.109 1.282-1.152c.004-.004.511-.453 1.453-1.16 3.203-2.399 11.777-7.989 22.273-7.989.989 0 1.98.051 2.953.153 8.79.894 16.91 5.82 24.157 14.636v42.375l-.844-2.156L88.043 67.5l-.48-1.238h-6.68l-.48 1.238-19.278 49.41-1.035 2.649 2.844.004 7.8.003h1.32l.489-1.226 3.016-7.59h17.316l2.945 7.574.485 1.242h11.879v.008h11.77V90.32l25.495 29.282.059.066.062.059c9.11 8.742 19.118 13.175 29.743 13.175a40.4 40.4 0 0 0 8.828-1c11.285-2.55 19.812-9.183 23.367-12.343l2.668.004 7.8.003h1.32l.49-1.226 3.015-7.59h17.32l2.941 7.574.481 1.242h12.074" style="stroke:none;fill-rule:nonzero;fill:#0a2065;fill-opacity:1"></path><path d="M165.887 111.945c2.383 2.352 5.203 4.246 8.386 5.625 2.926 1.27 6.082 1.965 9.375 2.075q.462.01.91.011c3.5 0 6.895-.683 10.094-2.039a27.4 27.4 0 0 0 8.426-5.523 26.3 26.3 0 0 0 5.79-8.23c1.41-3.141 2.12-6.552 2.12-10.13v-7.171h-27.867v11.253h15.309a15.3 15.3 0 0 1-1.184 2.668 14.7 14.7 0 0 1-3.215 3.934 13.9 13.9 0 0 1-4.336 2.566c-1.605.602-3.332.903-5.136.903q-.377.001-.754-.016a14 14 0 0 1-4.907-1.113c-1.804-.774-3.332-1.79-4.671-3.106a14.3 14.3 0 0 1-3.118-4.601 14.3 14.3 0 0 1-1.14-5.664c0-1.985.383-3.89 1.14-5.66a14.3 14.3 0 0 1 3.121-4.606c1.344-1.32 2.88-2.355 4.692-3.16a13.4 13.4 0 0 1 4.883-1.137 14.816 14.816 0 0 1 6.664 1.191c1.851.801 3.418 1.954 4.781 3.516l1.434 1.64 1.468-1.609.75-.824q2.28-2.494 4.567-5l1.215-1.336-1.243-1.312a25 25 0 0 0-8.64-5.942 26.6 26.6 0 0 0-11.145-2.015c-3.308.105-6.465.805-9.386 2.074-3.176 1.375-5.997 3.27-8.383 5.629-2.399 2.363-4.309 5.156-5.688 8.305-1.387 3.18-2.094 6.629-2.094 10.246 0 3.62.708 7.066 2.094 10.246a26.5 26.5 0 0 0 5.688 8.312M49.953 105.934a7.3 7.3 0 0 1-2.3 1.765c-.837.41-1.801.617-2.872.617h-3.87V78.461h2.753c1 0 1.418.336 1.64.59.419.469.622 1.066.622 1.832 0 .613-.168 1.137-.54 1.644-.171.239-.445.493-1.136.524l-1.848.094v9.043l1.793.144c2.332.188 4.258.988 5.723 2.379 1.156 1.11 1.816 2.535 2.012 4.355a11.3 11.3 0 0 1 0 2.286 8.7 8.7 0 0 1-.461 2.003 7.9 7.9 0 0 1-1.516 2.579m13.465-5.352c0-1.516-.164-3.074-.492-4.637-.324-1.535-.864-3.035-1.64-4.586a17.4 17.4 0 0 0-2.743-3.957 15 15 0 0 0-2.234-1.984c.699-1.629 1.046-3.32 1.046-5.05 0-1.766-.359-3.481-1.07-5.098a14 14 0 0 0-.746-1.461c-.57-.961-1.262-1.86-2.05-2.672a13.2 13.2 0 0 0-4.102-2.864c-1.575-.707-3.301-1.062-5.13-1.062H29.142v52.363h15.39c2.602 0 5.086-.52 7.38-1.539a21.4 21.4 0 0 0 3.03-1.656 19.2 19.2 0 0 0 2.961-2.43 19 19 0 0 0 1.235-1.367 19.3 19.3 0 0 0 2.808-4.64c.977-2.266 1.473-4.743 1.473-7.36" style="stroke:none;fill-rule:nonzero;fill:#0a2065;fill-opacity:1"></path><path d="M238.54 101.441h-14.15l-.07-.257 7.024-18.157h.152l7.11 18.157Zm-5.063-33.234h-4.024l-19.273 49.41 7.797.004 3.507-8.816h19.965l3.426 8.816h7.895M183.71 124.59c-9.554 1.07-21.14-1.797-32.222-15.293V69.152h-7.879v31.309a2 2 0 0 0-.16.168l-26.144-30.102c-11-12.906-22.73-16.484-33.078-15.933-11.59.617-21.442 6.41-26.59 10.086-2.149 1.535-3.473 2.691-3.774 2.96l-.07.063.07.063 2.172 1.855c.008-.012.574-.512 1.602-1.281 3.828-2.875 14.152-9.48 26.59-8.219 8.14.828 17.187 5.031 25.902 15.887v41.62h7.879v-32.51l.617.71 28.293 32.496c13.125 12.602 26.187 14.07 36.793 11.68 13.738-3.102 23.355-12.684 23.66-12.957l-2.242-1.918c-.035.047-9.016 8.066-21.418 9.46" style="stroke:none;fill-rule:nonzero;fill:#fff;fill-opacity:1"></path><path d="M185.066 95.871h15.852c-.344 2-1.012 3.852-1.98 5.57a16.6 16.6 0 0 1-3.637 4.454 15.9 15.9 0 0 1-4.926 2.91 16.5 16.5 0 0 1-6.664 1.007 16 16 0 0 1-5.578-1.265c-2-.856-3.754-2.02-5.27-3.508a16.1 16.1 0 0 1-3.543-5.227c-.855-2-1.297-4.14-1.297-6.425 0-2.282.442-4.422 1.297-6.422a16.1 16.1 0 0 1 3.543-5.227c1.516-1.488 3.27-2.668 5.27-3.554a15.5 15.5 0 0 1 5.578-1.301q.423-.024.848-.024c2.343 0 4.566.457 6.68 1.368 2.113.918 3.933 2.257 5.476 4.023q2.657-2.904 5.312-5.82a23 23 0 0 0-7.972-5.485 24.6 24.6 0 0 0-10.344-1.867c-3.047.098-5.95.734-8.664 1.914-2.957 1.281-5.567 3.028-7.793 5.227q-3.34 3.291-5.27 7.703c-1.285 2.937-1.933 6.098-1.933 9.465 0 3.37.648 6.527 1.933 9.468a24.5 24.5 0 0 0 5.27 7.707c2.226 2.2 4.836 3.942 7.793 5.223 2.715 1.18 5.617 1.817 8.664 1.914q.423.017.848.016 4.876 0 9.336-1.887a25.5 25.5 0 0 0 7.84-5.137 24.3 24.3 0 0 0 5.359-7.62c1.304-2.915 1.949-6.028 1.949-9.337v-5.222h-23.977M91.297 101.441H77.148l-.066-.257 3.496-9.075 3.52-9.082h.16L87.8 92.11l3.57 9.075ZM86.23 68.207h-4.015l-19.278 49.41 7.797.004 3.504-8.816h19.969l3.426 8.816h7.894M53.863 101.57q-.14 1.26-.562 2.442a9.9 9.9 0 0 1-1.89 3.21 9.2 9.2 0 0 1-2.903 2.227c-1.113.543-2.367.813-3.727.813h-5.816V76.516h4.7c1.32 0 2.35.41 3.093 1.242.73.82 1.113 1.87 1.113 3.125a4.6 4.6 0 0 1-.91 2.785c-.598.824-1.477 1.27-2.613 1.328v5.399c2.797.222 5.113 1.195 6.91 2.91q2.243 2.144 2.605 5.554a13.2 13.2 0 0 1 0 2.711m5.684-9.34a15 15 0 0 0-1.914-2.914 13 13 0 0 0-.52-.593 13.2 13.2 0 0 0-3.25-2.563l-.086-.047.086-.144q1.547-2.684 1.547-5.602c0-1.539-.32-2.98-.906-4.316a11 11 0 0 0-.64-1.25 12.2 12.2 0 0 0-1.77-2.309c-1-1.027-2.16-1.844-3.5-2.441-1.336-.602-2.793-.899-4.336-.899H31.086v48.477H44.53c2.34 0 4.543-.461 6.586-1.371.973-.434 1.89-.93 2.746-1.5.961-.64 1.848-1.363 2.66-2.18.391-.394.762-.8 1.11-1.23a17.5 17.5 0 0 0 2.523-4.172c.887-2.055 1.32-4.25 1.32-6.594 0-1.371-.148-2.785-.453-4.234-.308-1.461-.828-2.825-1.476-4.118" style="stroke:none;fill-rule:nonzero;fill:#fff;fill-opacity:1" data-source="https://football-logos.cc"></path><!-- source: https://football-logos.cc --></svg>