<svg xmlns="http://www.w3.org/2000/svg" viewBox="72.56 137.48 450.15 566.93"><!-- Source: https://football-logos.cc --><path d="M72.563 137.48h450.15v347c0 37.976-16.097 87.004-36.953 118.663C443.873 666.728 373.88 704.41 297.638 704.41c-80.314 0-153.546-41.544-194.354-110.64-18.879-31.966-30.721-69.775-30.721-107.04Z" style="fill:#e1001d;fill-rule:evenodd" data-source="https://football-logos.cc"></path><path d="M90.337 155.254v331.475c0 33.913 10.92 68.655 28.25 98.001 36.994 62.638 103.803 101.906 179.05 101.906 71.33 0 135.268-35.566 173.28-93.27 19.038-28.9 34.022-74.675 34.022-108.885V155.254Z" style="fill:#103c71;fill-rule:evenodd"></path><path d="M362.782 213.917a9 9 0 0 1 1.264-2.325c1.683-2.23 4.232-3.415 7.012-3.415h20.073c4.147 0 7.17 1.64 9.412 5.138l.132.206 12.484 22.704 13.004-22.387c1.943-3.322 5.144-5.66 9.094-5.66h2.87c4.21 0 7.162 2.685 8.236 6.102l.695-1.207c2.019-3.499 4.791-4.896 8.775-4.896h2.588c3.832 0 6.742 1.385 8.681 4.783l30.842 54.236c1.755 3.077 2.043 6.833.186 9.937-1.77 2.957-4.943 4.406-8.32 4.406h-19.387c-3.301 0-5.89-1.04-7.94-3.23-1.791 2.089-4.45 3.23-7.458 3.23h-31.478c-4.53 0-7.488-2.871-8.487-6.494l-.918 1.596c-2.015 3.503-4.793 4.897-8.777 4.897h-2.41c-3.7 0-6.845-1.51-8.703-4.82l-.64-1.142c-1.207 3.397-4.232 5.962-8.667 5.962h-19.386c-3.29 0-5.988-1.03-8.087-3.215-1.733 2.076-4.296 3.216-7.312 3.216h-32.189a9.6 9.6 0 0 1-2.007-.209 8.6 8.6 0 0 1-2.493.362h-4.306c-2.644 0-5.207-1.064-7.395-2.485L273.582 260.9v10.396c.094 6.34-3.706 10.396-10.128 10.396h-5.67a8.5 8.5 0 0 1-3.679-.83 8.75 8.75 0 0 1-3.572.746h-16.857c-.996 0-1.89-.245-2.778-.595-.938.308-1.861.526-2.894.526h-19.92c-3.333 0-5.895-1.156-7.901-3.275-1.791 2.117-4.467 3.275-7.498 3.275h-31.477c-2.532 0-4.866-.971-6.56-2.716-2.968 1.816-6.294 2.848-9.847 2.848h-38.625c-5.555 0-9.244-4.392-9.244-9.783v-54.077c0-5.407 3.606-9.722 9.183-9.722h38.863c5.256 0 9.942 2.156 13.7 5.77 4.226 4.067 6.764 9.676 8.243 15.275.972 3.684 1.572 7.673 1.802 11.65l15.996-27.711c2.019-3.5 4.791-4.896 8.775-4.896h2.588c3.831 0 6.742 1.384 8.68 4.782l19.823 34.781v-30.625c0-5.075 3.542-9.115 8.736-9.115h17.39c1.322 0 2.617.262 3.803.805a8.5 8.5 0 0 1 3.625-.806h7.527c2.514 0 4.939.99 7.007 2.373l25.485 17.187v-9.562c0-4.969 3.246-9.998 8.594-9.998h7.252c4.98 0 8.369 5.031 8.369 9.642v29.818l19.82-34.386c2.02-3.5 4.792-4.896 8.776-4.896h2.588c3.831 0 6.742 1.385 8.68 4.783zm-231.097 19.441-.392-.024.013 22.735.38.002c.195-1.857.404-9.52.422-10.99.037-3.01-.136-8.58-.423-11.723zm54.252 20.062-1.485 2.525h2.883zm157.475 0-1.485 2.525h2.882zm104.864 0-1.485 2.525h2.883z" style="fill:#fff;fill-rule:evenodd"></path><path d="M254.527 211.249a6.33 6.33 0 0 1 3.612-1.117h7.527c2.079 0 4.113.871 5.817 2.01l28.808 19.428v-13.573c0-4.404 2.81-7.865 6.46-7.865h7.253c3.64 0 6.236 3.923 6.236 7.51v37.789l23.8-41.292c1.65-2.858 3.74-3.829 6.929-3.829h2.588c3.027 0 5.258.955 6.827 3.706l30.447 53.525c2.998 5.255.41 11.865-5.886 11.865h-19.386c-3.382 0-5.925-1.24-7.795-4.157l-.094-.146-.431-.779c-.969 3.071-3.406 5.082-7.079 5.082h-32.189a7.3 7.3 0 0 1-2.104-.3 6.4 6.4 0 0 1-2.396.453h-4.306c-2.214 0-4.406-.954-6.234-2.141l-31.482-20.447v14.341c.08 4.962-2.574 8.247-7.995 8.247h-5.67a6.33 6.33 0 0 1-3.646-1.14c-1.012.67-2.239 1.056-3.605 1.056h-16.857c-.977 0-1.888-.381-2.703-.747-.88.322-1.875.678-2.97.678h-19.919c-3.874 0-6.305-1.843-8.142-5.082-.968 3.071-3.584 5.082-7.257 5.082h-31.477c-2.77 0-4.931-1.446-6.085-3.484-2.982 2.247-6.475 3.616-10.322 3.616h-38.625c-4.304 0-7.111-3.363-7.111-7.65v-54.077c0-4.288 2.712-7.589 7.05-7.589h38.863c4.698 0 8.859 1.94 12.22 5.175 8.598 8.271 10.04 24.155 9.336 33.443l20.032-34.701c1.649-2.858 3.739-3.829 6.928-3.829h2.588c3.027 0 5.258.955 6.828 3.706l23.808 41.774v-38.675c0-3.927 2.619-6.982 6.604-6.982h17.389c1.47 0 2.764.407 3.816 1.116m-122.525 20.217h-2.351v26.416h2.114c1.707 0 1.438-.423 1.682-2.121.483-3.36.515-7.782.548-10.457.038-3.098.203-8.23-.348-11.955-.251-1.7.09-1.883-1.645-1.883m53.992 17.65-5.271 8.962h10.23zm157.474 0-5.27 8.962h10.229zm118.813 25.208c-.968 3.071-3.584 5.082-7.256 5.082h-31.478c-6.125 0-8.336-6.774-5.538-11.622l30.896-53.645c1.65-2.858 3.74-3.829 6.928-3.829h2.588c3.027 0 5.258.955 6.828 3.705l30.842 54.238c2.998 5.255.015 11.153-6.281 11.153h-19.387c-3.382 0-5.747-1.24-7.617-4.157l-.093-.146zm-13.948-25.207-5.271 8.96h10.23zm-35.224-8.558 14.896-25.646c1.552-2.653 4.065-4.603 7.252-4.603h2.87c5.635 0 8.122 6.233 5.513 10.768l-31.347 54.5c-1.644 2.859-3.74 3.827-6.928 3.827h-2.41c-2.725 0-5.286-.957-6.843-3.731l-30.762-54.826c-2.627-4.666.185-10.538 5.708-10.538h20.073c3.382 0 5.746 1.24 7.617 4.157l.093.145z" style="fill:#103c71;fill-rule:evenodd"></path><path d="M161.778 245.067c0 6.616-1.918 19.168-8.402 25.352-2.252 2.148-5.142 3.787-8.576 3.787h-38.802c-1.118 0-1.779-.391-1.779-1.962V217.81c0-1.468.634-2.079 1.896-2.079h38.863c3.48 0 6.28 1.35 8.524 3.507 6.455 6.21 8.276 19.12 8.276 25.828m-23.486-15.57c-.635-2.06-2.041-3.54-4.349-3.54h-9.624v37.257h9.624c2.032 0 3.443-1.336 4.053-3.294.92-2.96 1.258-8.662 1.33-14.55.073-5.889.08-12.26-1.034-15.873M227.47 274.074h-19.386c-1.188 0-2.081-.07-3.129-1.703l-18.82-34.012-14.735 25.05h21.249c1.941 0 2.374.797 2.374 2.776v5.33c0 1.655-.61 2.559-2.337 2.559h-31.478c-1.42 0-2.141-1.436-1.37-2.771l31.347-54.322c.669-1.16 1.05-1.16 2.31-1.16h2.587c1.082 0 1.619.002 2.196 1.014l30.842 54.06c.857 1.501.745 3.179-1.65 3.179M384.945 274.074h-19.386c-1.189 0-2.082-.07-3.13-1.703l-18.82-34.012-14.734 25.05h21.248c1.942 0 2.375.797 2.375 2.776v5.33c0 1.655-.611 2.559-2.338 2.559h-31.478c-1.419 0-2.14-1.436-1.37-2.771l31.347-54.322c.67-1.16 1.05-1.16 2.31-1.16h2.588c1.082 0 1.619.002 2.196 1.014l30.842 54.06c.856 1.501.745 3.179-1.65 3.179M489.81 274.074h-19.387c-1.188 0-2.081-.07-3.129-1.703l-18.82-34.012-14.735 25.05h21.249c1.941 0 2.374.797 2.374 2.776v5.33c0 1.655-.61 2.559-2.337 2.559h-31.478c-1.42 0-2.141-1.436-1.37-2.771l31.347-54.322c.67-1.16 1.05-1.16 2.31-1.16h2.587c1.083 0 1.62.002 2.196 1.014l30.842 54.06c.857 1.501.745 3.179-1.65 3.179M371.058 215.82h20.073c1.188 0 2.081.07 3.129 1.703l18.721 33.815 19.627-33.556c.587-1.003 1.478-1.962 2.649-1.962h2.395c1.418 0 2.14 1.436 1.37 2.771l-31.347 54.321c-.67 1.16-1.05 1.161-2.31 1.161h-2.41c-1.082 0-1.625 0-2.196-1.015l-30.762-54.648c-.74-1.314-.156-2.59 1.06-2.59M252.113 272.67c0 .976-.492 1.473-1.225 1.473h-17.745c-.802 0-1.27-.65-1.27-1.473v-55.377c0-1.097.525-1.65 1.449-1.65h17.388c.855 0 1.403.44 1.403 1.65zM315.086 273.117c0 .735-.307 1.11-.904 1.11h-5.017c-.753 0-1.918-.364-3.33-1.28l-39.718-25.797v25.79c0 .736-.483 1.287-1.082 1.287h-6.896c-.633 0-1.13-.547-1.13-1.288V216.93c0-.74.495-1.288 1.13-1.288h7.527c.634 0 1.636.296 2.854 1.11l37.103 24.795V216.93c0-.74.495-1.288 1.129-1.288h7.252c.603 0 1.082.556 1.082 1.288z" style="fill:#ffdf00;fill-rule:evenodd"></path><path d="M129.457 285.514h30.923v221.98l-30.923 22.889zm306.24 0h30.923V530.56l-30.923-23.223zm-61.32 0H405.3v173.572c-6.487-17.81-17.204-33.565-30.923-46.037zm-61.496 0h30.923v107.564a113.5 113.5 0 0 0-30.923-8.776zm92.42-91.375v9.66h-30.923v-24.071zm-92.243-28.208 30.923 4.434v33.434h-30.923zm-91.398 15.125v22.743h-31.24l.317-8.313zm61.002-15.125v37.868H251.74v-32.484ZM251.74 285.514h30.923v98.697a113.4 113.4 0 0 0-30.923 8.58zm-60.963 0h30.923v126.478a115.9 115.9 0 0 0-30.923 44z" style="fill:#e1001d;fill-rule:evenodd"></path><path d="M266.406 299.258c2.82-1.96 5.764-2.854 9.323-2.854h45.131c1.05 0 1.948.158 2.857.499a8.8 8.8 0 0 1 2.932-.499h10.988c4.836 0 8.863 1.945 11.455 5.736a86 86 0 0 1 3.1-2.472c1.399-1.05 2.854-1.991 4.515-2.576 1.392-.49 2.807-.688 4.28-.688h15.269c3.44 0 6.828.888 9.521 3.101 2.253 1.85 3.735 4.414 4.284 7.271 1.065 5.55-.954 10.61-5.503 13.943l-11.556 8.466 14.13 12.286c5.089 4.424 5.844 11.418 2.556 17.148-1.934 3.369-5.463 5.918-9.446 5.918h-19.227c-4.5 0-8.157-3.373-11.422-6.439-.904 1.498-2.046 2.85-3.41 3.95-1.793 1.442-4.054 2.489-6.387 2.489h-13.987c-2.868 0-5.883-1.133-8.117-2.911-2.895-2.304-4.43-5.564-4.439-9.262l-.007-3.145c-2.669 2.017-5.967 2.815-9.895 2.765l-4.597-.058c-.516 7.742-4.965 12.61-13.355 12.61H272.81c-2.837 0-4.93-.814-6.842-2.493-3.178 1.553-8.287 2.494-11.142 2.494H218.07c-7.487 0-12.832-5.136-12.832-12.623V310.9c0-8.072 6.292-14.495 14.395-14.495h35.982c3.837 0 7.414 1.15 10.79 2.854z" style="fill:#fff;fill-rule:evenodd" data-source="https://football-logos.cc"></path><path d="M219.635 298.537h35.982c3.819 0 7.423 1.276 10.988 3.238 3.041-2.453 5.897-3.238 9.124-3.238h45.131c1.096 0 1.897.212 2.845.687a6.5 6.5 0 0 1 2.944-.687h10.988c4.304 0 8.553 1.766 10.842 6.868 5.69-4.611 7.809-6.868 12.509-6.868h15.268c7.04 0 10.837 4.096 11.71 8.641.923 4.807-.826 9.006-4.668 11.82l-13.71 10.045 16.145 14.038c4.914 4.272 4.447 10.396 2.105 14.476-1.821 3.173-4.851 4.847-7.596 4.847h-19.227c-4.454 0-8.054-4.248-12.076-7.812-1.93 5.036-5.94 7.812-9.143 7.812h-13.987c-4.22 0-10.408-3.177-10.423-10.044l-.019-8.941c-2.74 4.995-6.742 6.499-11.989 6.432l-6.714-.085c.295 11.61-7.537 12.638-11.264 12.638h-12.59c-3.332 0-5.046-1.407-6.517-3.042-2.028 1.635-8.068 3.042-11.467 3.042h-36.754c-6.895 0-10.7-4.768-10.7-10.49V310.9c0-6.877 5.319-12.362 12.263-12.362" style="fill:#103c71;fill-rule:evenodd"></path><path d="M322.705 309.076h-48.891v43.006h12.362v-20.86l3.065 8.351h16.426v-10.618h-19.491v-9h24.476v7l12.006-3.997zM325.978 352.26h12.586V331.98l23.295 19.978 18.31.123-27.712-23.552 26.1-19.454-17.64-.124-22.353 17.28v-17.157h-12.586zM217.985 352.027h12.378V341.74l4.059 10.225h16.446c7.608 0 11.734-2.046 14.343-4.63 3.11-3.082 4.335-7.036 4.335-11.353v-9.295c0-3.17-.407-5.95-1.238-8.309-.894-2.54-2.208-4.278-3.823-5.636-3.551-2.988-8.561-3.667-13.78-3.667h-32.72Zm12.378-11.531v-20.29h20.59c3.487 0 5.729 1.541 5.729 5.258v9.697c0 3.752-1.706 5.19-5.707 5.213zM187.332 507.513c-1.047 3.565 4.825 23.27 8.83 33.848 2.79 7.37 6.078 12.25 11.577 16.188 14.523 10.4 32.013 19.325 49.035 23.977 15.585 4.26 35.891 6.75 57.415 1.238 3.694-.946 4.142-4.919 4.12-8.732-.047-8.36-2.825-18.205-6.77-25.41-1.583-2.895-2.647-2.588-5.886-1.963-23.061 4.448-43.717 4.208-63.545-2.496-13.133-4.44-25.979-11.796-38.704-21.792-5.427-4.263-11.995-11.891-16.072-14.858" style="fill:#ffdf00;fill-rule:evenodd"></path><path d="M206.954 560.787c14.27 10.63 31.224 19.962 50.554 24.755 15.478 3.838 33.174 5.58 55.356 1.306 5.24-1.01 8.73-1.155 13.687 1.606 3.331 1.856 6.022 4.423 7.358 7.849.548 1.406-.347 3.508-1.472 4.513-2.778 2.483-7.874 4.499-13.246 5.583-13.106 2.644-29.366 2.43-43.564-.41-11.544-2.309-22.965-6.774-33.224-12.566-13.918-7.858-26.598-19.033-35.45-32.636M187.626 495.543c.099 3.042.432 6.084 2.453 8.34 6.702 7.483 23.687 22.673 39.366 30.788 7.644 3.957 16.416 6.74 25.596 8.503 8.223 1.578 17.27 2.699 27.46 2.462 8.295-.193 24.64-1.123 29.726-7.513 3.59-4.51 6.823-10.478 8.143-16.09.6-2.548.36-4.9-1.472-6.77-4.811-4.91-11.259-9.223-17.267-12.165-3.116-1.525-7.878-1.044-10.989.49-5.286 2.608-11.613 6.893-16.286 7.85-3.876.792-6.708.739-10.204-2.355-4.93-4.364-8.511-12.559-11.479-17.562-1.933-3.26-5.119-3.474-8.485-3.85-7.29-.813-17.971-3.247-26.54-8.61-1.648-1.032-4.079-1.12-5.789-.196-6.224 3.364-12.414 7.169-16.459 6.156-2.76-.691-3.885-2.346-5.812-7.334-1.668 5.265-2.142 12.313-1.962 17.856M361.847 588.598c3.614-.861 17.804-15.74 24.998-24.47 5.013-6.081 7.617-11.357 8.305-18.086 1.817-17.77.194-37.58-4.218-54.665-4.04-15.643-11.764-33.82-27.234-49.767-2.655-2.737-5.92-1.782-9.135.268-7.037 4.485-14.793 12.375-19.09 18.198-1.958 2.654-.832 4.956 1.318 7.457 15.31 17.81 25.258 34.781 29.283 55.321 2.666 13.604 3.05 28.407.691 44.417-1.006 6.826-4.367 16.315-4.918 21.327" style="fill:#ffdf00;fill-rule:evenodd"></path><path d="M398.939 544.528c.377-17.37.943-36.721-4.493-55.88-4.353-15.34-13.554-35.212-28.017-49.288-3.6-3.504-4.043-6.32-4.223-11.993-.121-3.81 1.535-8.699 3.356-10.284 1.623-1.412 5.135-.127 6.91.675 3.034 1.37 6.177 3.77 9.062 7.384 8.116 10.162 17.473 25.659 22.058 39.392 3.727 11.168 5.58 21.827 5.488 33.607-.106 13.923-4.69 33.029-10.141 46.387M353.763 593.598c2.592-1.595 2.614-2.022 3.569-4.895 3.169-9.533 7.921-32.505 7.182-50.145-.361-8.6-2.3-17.596-5.327-26.44-2.712-7.92-5.937-14.957-11.202-23.685-2.276-3.774-7.452-11.018-11.08-15.51-3.203-3.963-5.042-6.767-8.825-7.349-5.697-.876-14.348-.819-19.874.331-2.562.533-4.236 2.12-4.95 4.638-1.874 6.615-2.416 14.353-1.987 21.03.222 3.46 1.435 7.062 4.311 9 4.888 3.295 13.418 7.346 16.567 10.928 2.612 2.97 3.776 5.456 2.826 10.026-1.34 6.445-5.597 13.428-8.86 18.29-2.111 3.149-1.062 6.17.283 9.277 2.913 6.731 5.907 17.802 6.29 27.706.076 1.942.66 4.391 2.312 5.417 6.01 3.732 12.582 8.002 13.711 12.015.77 2.739-.107 5.225-2.99 8 5.399-1.166 13.322-5.725 18.044-8.634M343.775 397.286c.463-2.577-21.428-8.606-32.602-10.365-7.785-1.225-13.653-.785-19.797 2.042-16.227 7.468-32.64 18.245-45.111 30.73-11.418 11.43-23.146 27.643-29.015 49.072-1.007 3.678 1.732 6.23 5.055 8.1 7.286 4.099 16.726 7.05 24.938 7.192 3.298.057 4.442-.824 5.503-3.947 7.555-22.237 17.502-40.26 33.144-54.168 10.36-9.211 23.21-17.22 38.196-23.326 6.39-2.604 13.228-3.846 19.69-5.33" style="fill:#ffdf00;fill-rule:evenodd"></path><path d="M286.597 387.758c-16.007 8.016-30.45 16.163-44.185 30.584-10.999 11.546-21.373 27.53-28.643 48.918-1.717 5.052-2.339 6.488-7.192 9.428-3.261 1.975-6.825 3.73-10.462 3.193-1.493-.22-3.465-2.137-3.781-3.612-.781-3.643-.304-8.48 1.415-13.684 4.192-12.696 13.313-27.893 22.81-38.822 7.722-8.887 16.374-16.01 26.485-22.054 6.912-4.132 17.187-8.541 25.952-11.302 8.632-2.719 15.794-3.83 17.601-2.65M355.402 402.193c-2.691-1.42-5.303-2.146-9.539-1.41-9.896 1.72-29.858 8.764-44.671 18.367-15.441 10.01-27.783 24.537-36.485 40.666-3.94 7.302-11.226 21.963-8.192 29.545 2.14 5.352 5.725 11.706 9.946 15.631 1.917 1.782 4.374 2.346 6.905 1.68 6.649-1.747 14.08-5.999 19.61-9.762 2.868-1.95 4.023-4.365 4.23-7.827.353-5.883.057-15.171 1.54-19.704 1.23-3.76 2.385-5.605 6.804-7.11 6.232-2.123 14.145-.686 20.941-1.571 3.76-.49 5.54-2.152 7.252-5.074 3.53-6.028 11.328-12.436 21.31-19.383 1.595-1.11 2.6-2.302 2.644-4.735.127-7.075-.18-14.041 2.703-17.054 1.967-2.056 5.238-1.822 10.525-1.026-3.749-4.056-10.618-8.644-15.523-11.233M247.489 660.03l-11.648-3.126c-.316-.085-.627-.076-.803-.52l-10.62-26.796-7.817 13.652 12.386 4.803c.287.11.43.392.43.864v5.556c0 .472-.144.666-.43.554l-18.267-7.132c-1.005-.393-.64-1.918-.441-2.254l16.982-28.714c.316-.534.41-.78 1.094-.533l1.59.537c.788.266.828.436 1.216 1.358l17.054 40.565c.309.735-.025 1.374-.726 1.185M273.964 664.508c0 .472-.166.674-.496.615l-17.25-3.066c-2.453-.436-4.949-2.112-6.54-5.737-1.593-3.625-2.094-7.148-2.094-12.273v-20.628c0-.472.166-.695.496-.615l10.998 2.678c.33.08.496.331.496.803v21.699c0 1.472-.048 2.64-.054 3.594-.015 2.511 1.209 4.741 3.696 5.17l10.252 1.764c.33.057.495.33.495.802zM299.33 630.411c0 .182-.041.364-.123.536l-10.26 21.486v13.282c0 .47-.16.697-.47.673l-9.345-.71q-.493-.038-.495-.746v-13.543L268.506 628.6a1.4 1.4 0 0 1-.124-.555c0-.4.174-.6.52-.56l12.024 1.42a.47.47 0 0 1 .395.302l6.98 17.017 7.501-15.654c.354-.74.415-.849 1.316-.831l1.693.032c.346.006.519.24.519.64" style="fill:#ffdf00;fill-rule:evenodd"></path><path d="M326.558 633.376c0 .442-.165.689-.5.727-1.33.151-2.307.293-3.636.435q-1.998.212-3.991.407l.08 30.38c0 .474-.163.72-.498.74-1.659.091-3.318.183-4.977.268s-3.319.157-4.977.23c-.33.014-.5-.214-.5-.684l-.08-30.029q-1.934.125-3.863.218c-1.284.06-2.571.1-3.858.138-.332.01-.5-.206-.5-.636l-.014-5.214q-.002-.702.5-.724c4.443-.18 8.886-.441 13.326-.838 4.443-.397 8.528-.914 12.97-1.45.336-.04.503.178.504.663zM357.724 638.445c.047 4.489-.38 10.117-1.798 14.408-1.454 4.397-4.028 7.278-6.509 7.793l-12.755 2.647c-5.153 1.069-7.226-4.767-7.81-8.355-.358-2.19-.635-7.274-.636-9.938l-.006-17.327q-.001-.703.489-.777c1.591-.238 3.186-.496 4.775-.804 1.593-.309 4.077-.67 5.67-1.043.312-.072.469.134.47.606l.086 20.428c.006 1.395.116 10.205 3.74 9.333l4.968-1.195c1.2-.289 2.859-1.637 3.821-4.499.81-2.404.858-6.011.816-10.596l-.155-16.99c-.004-.486.15-.778.461-.861 1.119-.3 2.594-.953 3.715-1.244.309-.08.468.125.473.601zM378.038 651.483c-5.877 2.38-11.932 4.452-17.809 6.31-.339.107-.494-.035-.494-.523v-5.528c0-.487.157-.82.494-.939l15.035-5.245-12.378-7.817c-2.886-1.823-3.193-5.251-3.193-8.625 0-2.932.29-7.466 2.34-9.758 1.27-1.42 3.097-2.248 4.093-2.646 6.384-2.549 12.572-5.08 18.76-8.118.304-.15.469.05.469.533v5.762c0 .448-.16.738-.47.872L370.2 622.12l11.746 6.997c2.057 1.225 3.067 2.463 3.535 4.696.518 2.471.606 5.583.14 8.478-.283 1.757-.76 3.434-1.567 4.84-1.406 2.454-3.507 3.336-6.016 4.352" style="fill:#ffdf00;fill-rule:evenodd" data-source="https://football-logos.cc"></path><!-- source: https://football-logos.cc --></svg>