<svg xmlns="http://www.w3.org/2000/svg" viewBox="0 0 150.08 150.08"><!-- Source: https://football-logos.cc --><defs data-source="https://football-logos.cc"><clipPath id="aa" clipPathUnits="userSpaceOnUse"><path d="M-284.687 317.402h595v-842h-595Z"></path></clipPath><clipPath id="Z" clipPathUnits="userSpaceOnUse"><path d="M-251.768 363.686h595v-842h-595Z"></path></clipPath><clipPath id="Y" clipPathUnits="userSpaceOnUse"><path d="M-248.062 346.627h595v-842h-595Z"></path></clipPath><clipPath id="X" clipPathUnits="userSpaceOnUse"><path d="M-313.84 409.7h595v-842h-595Z"></path></clipPath><clipPath id="W" clipPathUnits="userSpaceOnUse"><path d="M-245.806 365.449h595v-842h-595Z"></path></clipPath><clipPath id="V" clipPathUnits="userSpaceOnUse"><path d="M-311.87 333.572h595v-842h-595Z"></path></clipPath><clipPath id="U" clipPathUnits="userSpaceOnUse"><path d="M-320.95 354.453h595v-842h-595Z"></path></clipPath><clipPath id="T" clipPathUnits="userSpaceOnUse"><path d="M-247.673 350.787h595v-842h-595Z"></path></clipPath><clipPath id="S" clipPathUnits="userSpaceOnUse"><path d="M-325.217 412.75h595v-842h-595Z"></path></clipPath><clipPath id="R" clipPathUnits="userSpaceOnUse"><path d="M-239.674 368.495h595v-842h-595Z"></path></clipPath><clipPath id="Q" clipPathUnits="userSpaceOnUse"><path d="M-322.23 346.097h595v-842h-595Z"></path></clipPath><clipPath id="P" clipPathUnits="userSpaceOnUse"><path d="M-316.507 350.125h595v-842h-595Z"></path></clipPath><clipPath id="O" clipPathUnits="userSpaceOnUse"><path d="M-326.86 343.477h595v-842h-595Z"></path></clipPath><clipPath id="N" clipPathUnits="userSpaceOnUse"><path d="M-335.228 413.247h595v-842h-595Z"></path></clipPath><clipPath id="M" clipPathUnits="userSpaceOnUse"><path d="M-325.286 358.112h595v-842h-595Z"></path></clipPath><clipPath id="L" clipPathUnits="userSpaceOnUse"><path d="M-332.727 340.564h595v-842h-595Z"></path></clipPath><clipPath id="K" clipPathUnits="userSpaceOnUse"><path d="M-242.91 349.322h595v-842h-595Z"></path></clipPath><clipPath id="J" clipPathUnits="userSpaceOnUse"><path d="M-333.95 368.953h595v-842h-595Z"></path></clipPath><clipPath id="I" clipPathUnits="userSpaceOnUse"><path d="M-315.602 352.922h595v-842h-595Z"></path></clipPath><clipPath id="H" clipPathUnits="userSpaceOnUse"><path d="M-235.76 371.4h595v-842h-595Z"></path></clipPath><clipPath id="G" clipPathUnits="userSpaceOnUse"><path d="M-337.097 368.899h595v-842h-595Z"></path></clipPath><clipPath id="F" clipPathUnits="userSpaceOnUse"><path d="M-248.535 277.568h595v-842h-595Z"></path></clipPath><clipPath id="E" clipPathUnits="userSpaceOnUse"><path d="M-262.626 402.323h595v-842h-595Z"></path></clipPath><clipPath id="D" clipPathUnits="userSpaceOnUse"><path d="M-224.753 343.018h595v-842h-595Z"></path></clipPath><clipPath id="C" clipPathUnits="userSpaceOnUse"><path d="M-267.764 433.888h595v-842h-595Z"></path></clipPath><clipPath id="B" clipPathUnits="userSpaceOnUse"><path d="M-348.66 396.045h595v-842h-595Z"></path></clipPath><clipPath id="A" clipPathUnits="userSpaceOnUse"><path d="M-289.236 436.455h595v-842h-595Z"></path></clipPath><clipPath id="z" clipPathUnits="userSpaceOnUse"><path d="M-191.538 374.37h595v-842h-595Z"></path></clipPath><clipPath id="y" clipPathUnits="userSpaceOnUse"><path d="M-382.052 372.794h595v-842h-595Z"></path></clipPath><clipPath id="x" clipPathUnits="userSpaceOnUse"><path d="M-220.62 341.424h595v-842h-595Z"></path></clipPath><clipPath id="w" clipPathUnits="userSpaceOnUse"><path d="M-356.922 398.259h595v-842h-595Z"></path></clipPath><clipPath id="v" clipPathUnits="userSpaceOnUse"><path d="M-367.032 398.932h595v-842h-595Z"></path></clipPath><clipPath id="u" clipPathUnits="userSpaceOnUse"><path d="M-207.234 403.588h595v-842h-595Z"></path></clipPath><clipPath id="t" clipPathUnits="userSpaceOnUse"><path d="M-196.483 397.906h595v-842h-595Z"></path></clipPath><clipPath id="s" clipPathUnits="userSpaceOnUse"><path d="M-364.781 337.927h595v-842h-595Z"></path></clipPath><clipPath id="r" clipPathUnits="userSpaceOnUse"><path d="M-188.812 331.386h595v-842h-595Z"></path></clipPath><clipPath id="q" clipPathUnits="userSpaceOnUse"><path d="M-302.4 312.82h595v-842h-595Z"></path></clipPath><clipPath id="p" clipPathUnits="userSpaceOnUse"><path d="M-249.821 308.598h595v-842h-595Z"></path></clipPath><clipPath id="o" clipPathUnits="userSpaceOnUse"><path d="M-284.687 317.402h595v-842h-595Z"></path></clipPath><clipPath id="n" clipPathUnits="userSpaceOnUse"><path d="M-286.295 207.977h595v-842h-595Z"></path></clipPath><clipPath id="m" clipPathUnits="userSpaceOnUse"><path d="M-345.811 492.039h595v-842h-595Z"></path></clipPath><clipPath id="l" clipPathUnits="userSpaceOnUse"><path d="M-345.811 492.039h595v-842h-595Z"></path></clipPath><clipPath id="k" clipPathUnits="userSpaceOnUse"><path d="M-307.688 504.78h595v-842h-595Z"></path></clipPath><clipPath id="j" clipPathUnits="userSpaceOnUse"><path d="M-307.688 504.78h595v-842h-595Z"></path></clipPath><clipPath id="i" clipPathUnits="userSpaceOnUse"><path d="M-258.556 486.018h595v-842h-595Z"></path></clipPath><clipPath id="h" clipPathUnits="userSpaceOnUse"><path d="M-258.556 486.018h595v-842h-595Z"></path></clipPath><clipPath id="g" clipPathUnits="userSpaceOnUse"><path d="M-213.184 481.92h595v-842h-595Z"></path></clipPath><clipPath id="f" clipPathUnits="userSpaceOnUse"><path d="M-444.482 352.617h595v-842h-595Z"></path></clipPath><clipPath id="e" clipPathUnits="userSpaceOnUse"><path d="M-130.104 352.617h595v-842h-595Z"></path></clipPath><clipPath id="d" clipPathUnits="userSpaceOnUse"><path d="M-433.277 289.98h595v-842h-595Z"></path></clipPath><clipPath id="c" clipPathUnits="userSpaceOnUse"><path d="M-286.295 148.535h595v-842h-595Z"></path></clipPath><clipPath id="b" clipPathUnits="userSpaceOnUse"><path d="M-488.218 339.309h595v-842h-595Z"></path></clipPath><clipPath id="a" clipPathUnits="userSpaceOnUse"><path d="M-499.013 339.309h595v-842h-595Z"></path></clipPath></defs><path d="M0 0c0-117.481-95.237-212.718-212.718-212.718S-425.436-117.481-425.436 0s95.237 212.718 212.718 212.718S0 117.481 0 0" clip-path="url(#a)" style="fill:#0e2346;fill-opacity:1;fill-rule:evenodd;stroke:none" transform="matrix(.35278 0 0 -.35278 150.084 75.042)"></path><path d="M0 0c0-111.519-90.404-201.923-201.923-201.923S-403.846-111.519-403.846 0s90.404 201.923 201.923 201.923S0 111.519 0 0Z" clip-path="url(#b)" style="fill:none;stroke:#80d6f7;stroke-width:5;stroke-linecap:butt;stroke-linejoin:miter;stroke-miterlimit:10;stroke-dasharray:none;stroke-opacity:1" transform="matrix(.35278 0 0 -.35278 146.276 75.042)"></path><path d="M0 0c105.361 0 190.773-85.412 190.773-190.773 0-105.362-85.412-190.774-190.773-190.774s-190.774 85.412-190.774 190.774S-105.361 0 0 0" clip-path="url(#c)" style="fill:#fff;fill-opacity:1;fill-rule:evenodd;stroke:none" transform="matrix(.35278 0 0 -.35278 75.042 7.742)"></path><path d="m0 0 9.582 9.08-13.175 1.342zm-56.244 77.485-9.265 5.971 11.185 7.09zm-119.096 43.974c-3.437-.607-6.359-2.137-8.521-4.898-2.498-3.191-3.199-6.855-2.478-10.819.725-3.982 2.654-7.139 6.131-9.254 3.01-1.832 6.32-2.197 9.761-1.571 3.429.624 6.388 2.124 8.543 4.898 1.224 1.577 2.028 3.359 2.438 5.313.373 1.77.398 3.551.075 5.33-.732 4.021-2.595 7.325-6.156 9.429-3.029 1.79-6.349 2.18-9.793 1.572M-5.519-5.273l-5.698 16.526-5.894.691c-.455.048-1.226.11-1.666-.041-.686-.237-.664-1.193-.614-1.778l.046-.538-2.087-.718-4.836 14.026 2.11.728.287-.485c.264-.445.636-.944 1.105-1.187.607-.314 1.735-.449 2.417-.518l34.412-3.958c.633-.073 1.572-.14 2.186.072.71.245.827.948.826 1.619l-.001.494 2.044.705L24.27 5.424l-2.071-.714-.299.428c-.322.461-.816 1.049-1.444.833-.527-.182-1.019-.597-1.407-1.002L-5.527-19.876c-.601-.609-1.51-1.555-1.879-2.334-.269-.566-.29-1.194-.205-1.806l.079-.565-2.115-.729-5.344 15.498 2.129.735.28-.513c.346-.63.786-1.197 1.558-.93.411.141.997.705 1.298 1.007zm-21.9 50.076 23.988 5.999c.579.144 1.539.407 2.015.781.527.416.143 1.256-.097 1.722l-.262.508 1.76 1.383 9.471-12.037-1.785-1.403-.433.417c-.301.289-.837.749-1.278.78-.735.051-2.706-.458-3.447-.634l-32.608-7.73c-.436-.104-1.932-.464-2.275-.734-.62-.487-.424-1.083-.072-1.697l.299-.519-1.782-1.4-9.514 12.093 1.781 1.4.434-.411c.528-.501 1.059-.807 1.69-.311.32.252 1.032 1.643 1.223 2.019l15.183 29.88c.354.695 1.296 2.462 1.428 3.207.075.427-.253 1.068-.459 1.421l-.304.52 1.785 1.403L-10.874 69l-1.76-1.385-.431.373c-.4.346-1.115.908-1.645.492-.482-.38-.96-1.23-1.24-1.766zm-29.904 25.126-.686-5.934c-.05-.424-.163-1.228-.399-1.594-.442-.686-1.137-.514-1.798-.231l-.537.229-1.221-1.893 13.781-8.88 1.212 1.881-.411.395c-.446.428-.818.934-.957 1.546-.191.84-.061 2.146.036 2.996l3.963 34.721c.055.558.184 1.188.487 1.657.359.558 1.113.402 1.649.238l.5-.152 1.186 1.842-13.284 8.561-1.172-1.818.307-.388c.416-.526.757-1.152.351-1.783-.352-.546-1.131-1.074-1.674-1.408l-29.498-18.157c-.58-.369-1.549-.959-2.221-1.088-.518-.099-1.119.063-1.601.25l-.526.204-1.209-1.876 12.472-8.037 1.196 1.856-.369.393c-.4.429-1.008 1.166-.615 1.777.252.391.896.819 1.284 1.062l5.061 3.1zm-65.564 44.952-5.194-22.415c-.067-.291-.122-.703.026-.981.171-.321.68-.636.987-.805l.456-.253-.495-2.134-12.938 2.999.494 2.134.522.026c.35.018.944.077 1.24.29.254.184.387.577.455.868l7.772 33.536c.067.289.113.675-.033.95-.176.329-.663.632-.979.802l-.466.25.497 2.14 14.791-3.428-.499-2.152-.54-.009c-.416-.007-.783-.07-.886-.515-.086-.369.19-.909.366-1.209l15.799-26.335 5.059 21.832c.068.289.113.676-.033.95-.174.329-.662.632-.978.802l-.466.25.497 2.141 12.938-3-.495-2.14-.53-.019c-.358-.014-.929-.072-1.231-.29-.251-.182-.381-.55-.448-.838l-7.772-33.536c-.067-.291-.121-.703.026-.98.171-.322.68-.636.987-.806l.456-.253-.494-2.133-13.812 3.201.503 2.168.556-.007c.367-.005.732.027.822.411.024.357-.677 1.558-.861 1.863zm-53.966 14.718c6.286 1.191 12.62.742 18.136-2.737 5.386-3.397 8.453-8.393 9.584-14.61.727-4 .304-7.912-1.194-11.692-3.255-8.211-10.216-12.256-18.667-13.794-6.261-1.139-12.575-.72-18.054 2.752-2.668 1.691-4.834 3.891-6.517 6.563a21.9 21.9 0 0 0-3.023 7.817c-.741 4.077-.395 8.083 1.116 11.942 3.198 8.172 10.267 12.175 18.619 13.759m-52.009-63.167-1.379 12.298 2.16.239.196-.487c.066-.163.135-.329.215-.486.329-.651 1.188-.873 1.835-.964 1.445-.148 3 .063 4.413.361 1.641.348 3.255.876 4.753 1.634 1.599.809 3.431 2.051 4.014 3.843.232.716.268 1.427.106 2.162-.242 1.102-.87 2.393-1.377 3.395l-10.632 21.006c-.139.276-.354.613-.653.737-.331.138-.93.049-1.268-.016l-.513-.098-.989 1.954 12.559 6.355.989-1.954-.384-.355c-.257-.238-.676-.664-.766-1.018-.077-.303.074-.692.208-.957l10.824-21.387c1.245-2.459 2.712-5.9 2.46-8.718-.22-2.455-1.254-4.618-2.802-6.515-1.784-2.185-4.12-3.838-6.622-5.104-1.369-.693-2.815-1.341-4.286-1.78-2.021-.604-4.289-1.002-6.363-1.39-1.028-.193-2.632-.497-3.566-.97-.478-.241-.741-.667-.904-1.164l-.142-.433zm-28.269-7.181-.098-2.113.365-.211c.193-.112.391-.236.567-.373.358-.28.507-.694.566-1.133.12-.892-.059-2.145-.195-3.031-.582-3.82-2.018-7.284-4.395-10.331-2.363-3.027-5.373-5.555-9.209-6.375-4.021-.859-7.633.066-10.866 2.589-3.245 2.533-5.006 5.788-5.15 9.911-.135 3.91 1.592 7.462 3.948 10.482 2.378 3.047 5.386 5.288 8.946 6.779.827.346 1.999.824 2.893.924.432.049.874.009 1.228-.267a6 6 0 0 0 .53-.483l.301-.305 1.985.651-3.633 11-2.081-.64.047-.556c.018-.212.05-.892-.092-1.074-.328-.339-2.194-1.107-2.667-1.301-2.88-1.179-6.067-2.621-8.603-4.44-2.302-1.652-4.313-3.827-6.049-6.052-4.816-6.17-7.65-13.306-5.747-21.127 1.169-4.8 3.834-8.664 7.721-11.698 2.857-2.23 6.059-3.731 9.629-4.357 3.04-.533 6.055-.36 9.025.475 5.648 1.587 10.125 5.332 13.681 9.889 1.749 2.241 3.364 4.725 4.419 7.375 1.159 2.907 1.785 6.323 2.22 9.413.071.503.353 2.526.602 2.935.131.167.796.3 1.008.334l.55.088.117 2.176zm-39.713-66.402 13.244-4.455c.3-.101.689-.186.995-.061.344.14.676.587.873.885l.294.444 2.085-.701-4.488-13.341-2.075.699.023.521c.016.35.016.948-.168 1.263-.158.271-.538.441-.821.536l-32.599 10.966c-.283.096-.688.189-.978.069-.343-.143-.693-.599-.892-.897l-.294-.44-2.082.701 11.695 34.768c.093.274.186.665.07.946-.143.345-.605.695-.905.894l-.442.294.701 2.084 11.259-3.787-.702-2.086-.53.034c-.347.023-.943.024-1.255-.161-.266-.16-.428-.519-.522-.8l-7.811-23.219 7.884-2.652 5.022 14.93c.093.275.187.681.068.963-.147.347-.6.696-.901.899l-.437.295.7 2.08 11.027-3.71-.7-2.08-.526.03c-.365.02-.933.015-1.261-.173-.266-.152-.436-.532-.528-.808z" clip-path="url(#d)" style="fill:#0e2346;fill-opacity:1;fill-rule:evenodd;stroke:none" transform="matrix(.35278 0 0 -.35278 126.894 57.64)"></path><path d="M0 0c6.74 0 12.204-5.464 12.204-12.204S6.74-24.408 0-24.408s-12.204 5.464-12.204 12.204S-6.74 0 0 0" clip-path="url(#e)" style="fill:#0e2346;fill-opacity:1;fill-rule:evenodd;stroke:none" transform="matrix(.35278 0 0 -.35278 19.942 79.737)"></path><path d="M0 0c6.74 0 12.204-5.464 12.204-12.204S6.74-24.408 0-24.408s-12.204 5.464-12.204 12.204S-6.74 0 0 0" clip-path="url(#f)" style="fill:#0e2346;fill-opacity:1;fill-rule:evenodd;stroke:none" transform="matrix(.35278 0 0 -.35278 130.847 79.737)"></path><path d="m0 0 3.198 8.504.791-.296q-.05-.969.105-1.32.154-.35.679-.541.25-.092.733-.159a171 171 0 0 1 2.333-.239l.483 1.395q.245.71.032 1.208-.214.497-1.014 1.047l.269.755c4.075-1.452 6.129-2.119 10.259-3.34l-.226-.768q-.967.024-1.427-.239-.462-.266-.688-1.008L7.096-22.677q-.227-.743.061-1.248.286-.506 1.258-1.055l-.227-.768C3.342-24.316.932-23.532-3.849-21.83l.268.755q1.113-.13 1.644.11.531.239.785.973L5.929.439C4.886.557 4.365.619 3.32.751Q2.403.869 1.902.654 1.399.439.827-.309L0 0" clip-path="url(#g)" style="fill:#0e2346;fill-opacity:1;fill-rule:nonzero;stroke:#0e2346;stroke-width:.25;stroke-linecap:butt;stroke-linejoin:miter;stroke-miterlimit:10;stroke-dasharray:none;stroke-opacity:1" transform="matrix(.35278 0 0 -.35278 49.25 125.352)"></path><path d="M0 0c-2.644.383-4.902.109-6.789-.826-1.569-.776-2.527-1.969-2.831-3.609-.299-1.608.169-3.065 1.438-4.354 1.507-1.534 3.694-2.531 6.521-2.932 2.846-.403 5.23-.052 7.099 1.003 1.574.886 2.424 2.14 2.581 3.734.164 1.677-.422 3.105-1.707 4.303C4.812-1.284 2.714-.393 0 0m-21.866-23.586c2.783 2.73 4.14 4.116 6.783 6.925.289-.2.434-.301.724-.5q-.291-.581-.359-.925c-.129-.654.348-1.431 1.449-2.318.913-.733 2.149-1.423 3.711-2.053s3.086-1.052 4.561-1.272c3.239-.483 6.116-.107 8.553 1.083 1.592.796 2.805 1.833 3.645 3.093.842 1.26 1.436 2.966 1.798 5.111-2.01-1.326-4.042-2.203-6.067-2.63-2.022-.427-4.331-.462-6.891-.081-4.088.608-7.444 2.092-9.976 4.347-1.436 1.288-2.442 2.809-3.01 4.537-.549 1.668-.609 3.389-.216 5.147.788 3.517 2.985 5.956 6.445 7.461C-7.347 5.805-3.493 6.178.992 5.547 5.883 4.859 9.578 3.288 12.213.63c1.752-1.748 3.035-3.886 3.829-6.441a21.5 21.5 0 0 0 .961-7.599c-.282-5.315-2.356-9.541-6.468-12.514-4.257-3.079-9.768-4.252-16.228-3.293-2.266.336-4.275.842-6.015 1.494-1.74.653-3.738 1.657-5.96 3.032q-1.134.718-1.804.863c-.331.07-.696.041-1.061-.104-.289-.115-.505-.206-.636-.245-.28.236-.419.354-.697.591" clip-path="url(#h)" style="fill:#0e2346;fill-opacity:1;fill-rule:nonzero;stroke:none" transform="matrix(.35278 0 0 -.35278 65.256 126.798)"></path><path d="M0 0c-2.644.383-4.902.109-6.789-.826-1.569-.776-2.527-1.969-2.831-3.609-.299-1.608.169-3.065 1.438-4.354 1.507-1.534 3.694-2.531 6.521-2.932 2.846-.403 5.23-.052 7.099 1.003 1.574.886 2.424 2.14 2.581 3.734.164 1.677-.422 3.105-1.707 4.303C4.812-1.284 2.714-.393 0 0Zm-21.866-23.586c2.783 2.73 4.14 4.116 6.783 6.925.289-.2.434-.301.724-.5q-.291-.581-.359-.925c-.129-.654.348-1.431 1.449-2.318.913-.733 2.149-1.423 3.711-2.053s3.086-1.052 4.561-1.272c3.239-.483 6.116-.107 8.553 1.083 1.592.796 2.805 1.833 3.645 3.093.842 1.26 1.436 2.966 1.798 5.111-2.01-1.326-4.042-2.203-6.067-2.63-2.022-.427-4.331-.462-6.891-.081-4.088.608-7.444 2.092-9.976 4.347-1.436 1.288-2.442 2.809-3.01 4.537-.549 1.668-.609 3.389-.216 5.147.788 3.517 2.985 5.956 6.445 7.461C-7.347 5.805-3.493 6.178.992 5.547 5.883 4.859 9.578 3.288 12.213.63c1.752-1.748 3.035-3.886 3.829-6.441a21.5 21.5 0 0 0 .961-7.599c-.282-5.315-2.356-9.541-6.468-12.514-4.257-3.079-9.768-4.252-16.228-3.293-2.266.336-4.275.842-6.015 1.494-1.74.653-3.738 1.657-5.96 3.032q-1.134.718-1.804.863c-.331.07-.696.041-1.061-.104-.289-.115-.505-.206-.636-.245-.28.236-.419.354-.697.591z" clip-path="url(#i)" style="fill:none;stroke:#0e2346;stroke-width:.25;stroke-linecap:butt;stroke-linejoin:miter;stroke-miterlimit:10;stroke-dasharray:none;stroke-opacity:1" transform="matrix(.35278 0 0 -.35278 65.256 126.798)"></path><path d="m0 0-1.416 14.928c-5.009-6.5-7.726-9.681-13.57-15.834C-8.984-.749-5.983-.567 0 0m.532-5.606c-8.373-.794-12.578-.995-20.98-1.007-1.128-.002-1.874-.089-2.236-.276q-.542-.278-.791-1.31l-.942.013.116 7.232c7.856 7.503 11.453 11.445 17.954 19.561.701.903 1.03 1.541 1.002 1.907-.045.582-.508.904-1.388.975l-.057.799c5.827.414 8.736.729 14.527 1.575l.116-.792a10.5 10.5 0 0 1-1.644-.89q-.764-.509-.667-1.252L8.199.933c.85.113 1.275.171 2.124.292q.877.126 1.276.547.399.418.546 1.341l.898.139 1.368-8.728-.934-.144q-.426.831-.943 1.116-.516.283-1.415.155c-.871-.124-1.307-.185-2.179-.3l.412-3.102q.101-.769.569-1.11.468-.343 1.571-.44l.112-.793c-4.964-.702-7.455-.985-12.443-1.416l-.068.798q1.05.343 1.429.781T.827-8.72z" clip-path="url(#j)" style="fill:#0e2346;fill-opacity:1;fill-rule:nonzero;stroke:none" transform="matrix(.35278 0 0 -.35278 82.59 133.417)"></path><path d="m0 0-1.416 14.928c-5.009-6.5-7.726-9.681-13.57-15.834C-8.984-.749-5.983-.567 0 0Zm.532-5.606c-8.373-.794-12.578-.995-20.98-1.007-1.128-.002-1.874-.089-2.236-.276q-.542-.278-.791-1.31l-.942.013.116 7.232c7.856 7.503 11.453 11.445 17.954 19.561.701.903 1.03 1.541 1.002 1.907-.045.582-.508.904-1.388.975l-.057.799c5.827.414 8.736.729 14.527 1.575l.116-.792a10.5 10.5 0 0 1-1.644-.89q-.764-.509-.667-1.252L8.199.933c.85.113 1.275.171 2.124.292q.877.126 1.276.547.399.418.546 1.341l.898.139 1.368-8.728-.934-.144q-.426.831-.943 1.116-.516.283-1.415.155c-.871-.124-1.307-.185-2.179-.3l.412-3.102q.101-.769.569-1.11.468-.343 1.571-.44l.112-.793c-4.964-.702-7.455-.985-12.443-1.416l-.068.798q1.05.343 1.429.781T.827-8.72z" clip-path="url(#k)" style="fill:none;stroke:#0e2346;stroke-width:.25;stroke-linecap:butt;stroke-linejoin:miter;stroke-miterlimit:10;stroke-dasharray:none;stroke-opacity:1" transform="matrix(.35278 0 0 -.35278 82.59 133.417)"></path><path d="M0 0c-2.729-.771-4.809-1.973-6.259-3.621-1.205-1.37-1.641-2.851-1.256-4.457s1.452-2.744 3.222-3.384c2.104-.761 4.658-.746 7.6.095 2.943.841 5.127 2.179 6.519 3.941 1.173 1.482 1.488 2.989.981 4.509C10.275-1.319 9.114-.267 7.351.27 5.28.901 2.837.802 0 0m11.111 19.781a198 198 0 0 0-1.638-9.297c-.335.031-.502.048-.835.081q-.085.659-.192.966c-.218.631-.984 1.069-2.278 1.339q-1.64.34-3.901.174a20.3 20.3 0 0 1-4.238-.743c-2.811-.825-5.027-2.168-6.705-4.091-1.094-1.258-1.817-2.612-2.157-4.073s-.36-3.269-.052-5.423C-9.4.598-7.84 2.092-6.177 3.205c1.666 1.114 3.667 2 6.028 2.692 3.812 1.118 7.309 1.354 10.608.663 1.84-.385 3.497-1.137 4.926-2.278 1.373-1.097 2.394-2.51 3.033-4.213 1.253-3.343.628-6.665-2.044-9.894-2.584-3.123-6.545-5.541-11.78-7.031-5.645-1.606-10.41-1.475-14.095.204-2.439 1.1-4.421 2.796-5.921 5.045-1.437 2.153-2.376 4.541-2.871 7.113-1.007 5.227-.043 9.775 2.626 13.726 2.763 4.091 6.713 6.786 12.065 8.355 1.877.55 3.619.908 5.246 1.064 1.624.156 3.56.152 5.828.017q1.196-.08 1.789.136c.28.102.52.305.702.604.151.247.261.425.335.524z" clip-path="url(#l)" style="fill:#0e2346;fill-opacity:1;fill-rule:nonzero;stroke:none" transform="matrix(.35278 0 0 -.35278 96.038 128.922)"></path><path d="M0 0c-2.729-.771-4.809-1.973-6.259-3.621-1.205-1.37-1.641-2.851-1.256-4.457s1.452-2.744 3.222-3.384c2.104-.761 4.658-.746 7.6.095 2.943.841 5.127 2.179 6.519 3.941 1.173 1.482 1.488 2.989.981 4.509C10.275-1.319 9.114-.267 7.351.27 5.28.901 2.837.802 0 0Zm11.111 19.781a198 198 0 0 0-1.638-9.297c-.335.031-.502.048-.835.081q-.085.659-.192.966c-.218.631-.984 1.069-2.278 1.339q-1.64.34-3.901.174a20.3 20.3 0 0 1-4.238-.743c-2.811-.825-5.027-2.168-6.705-4.091-1.094-1.258-1.817-2.612-2.157-4.073s-.36-3.269-.052-5.423C-9.4.598-7.84 2.092-6.177 3.205c1.666 1.114 3.667 2 6.028 2.692 3.812 1.118 7.309 1.354 10.608.663 1.84-.385 3.497-1.137 4.926-2.278 1.373-1.097 2.394-2.51 3.033-4.213 1.253-3.343.628-6.665-2.044-9.894-2.584-3.123-6.545-5.541-11.78-7.031-5.645-1.606-10.41-1.475-14.095.204-2.439 1.1-4.421 2.796-5.921 5.045-1.437 2.153-2.376 4.541-2.871 7.113-1.007 5.227-.043 9.775 2.626 13.726 2.763 4.091 6.713 6.786 12.065 8.355 1.877.55 3.619.908 5.246 1.064 1.624.156 3.56.152 5.828.017q1.196-.08 1.789.136c.28.102.52.305.702.604.151.247.261.425.335.524z" clip-path="url(#m)" style="fill:none;stroke:#0e2346;stroke-width:.25;stroke-linecap:butt;stroke-linejoin:miter;stroke-miterlimit:10;stroke-dasharray:none;stroke-opacity:1" transform="matrix(.35278 0 0 -.35278 96.038 128.922)"></path><path d="M0 0c72.532 0 131.331-58.799 131.331-131.331 0-72.533-58.799-131.332-131.331-131.332s-131.331 58.799-131.331 131.332S-72.532 0 0 0" clip-path="url(#n)" style="fill:#0e2346;fill-opacity:1;fill-rule:evenodd;stroke:none" transform="matrix(.35278 0 0 -.35278 75.042 28.711)"></path><path d="M0 0c.479.95-.639.951.704.716l.491-2.999C3.076-1.068 3.152.306 4.476 2.134c-.06-3.753-1.432-4.79-3.723-5.831-2.543-4.867-3.218-4.944-7.159-8.184-1.679-1.38-2.486-2.044-5.027-2.712-5.049-1.326-3.297-6.634-14.64 4.512-2.664 2.616-3.972 5.886-6.389 9.623-1.481-.704-2.674-3.259-3.337-4.914-2.025-5.048-.168-18.294 1.157-22.92 3.749-13.086 10.347-30.315 19.327-40.558l4.39-4.296c4.502-3.563 14.503-11.206 22.584-12.037-.876 4.356-12.21 12.655-9.819 24.682l.918 1.812c1.098-2.093.569-7.141 1.065-9.864.771-4.236 6.073-12.581 9.099-13.305 1.507-.361 2.557.605 4.941.358 2.331-.243 2.429-1.187 4.563-1.352 2.266 3.471 1.539 9.43 2.737 13.298 3.572-3.706-3.279-14.35-1.998-18.839 2.344-3.081 9.086-2.127 12.983-2.179 2.424-.033 4.896-.04 7.319.032 2.438.073 5.056.758 6.662.693l-1.414-2.049c1.324-2.557 5.073-7.014 8.926-6.938 2.753.054 10.27 3.878 9.147 6.895-2.94 3.256-9.607 5.345-14.256 7.681-5.58 2.803-8.361 5.912-12.543 9.426C21.137-58.986 29.381-26.393 21.604-4.968c-1.093 3.01-2.832 6.425-4.768 8.982L13.02 8.431c-9.456 10.604 7.483 15.474 12.766 26.617 11.735 24.744-5.293 51.429-31.297 49.275-11.844-.981-21.883-6.504-28.276-15.757-1.905-2.758-7.029-11.513-5.731-16.172 3.038-.513 5.362 1.079 7.101 2.442 3.589 2.814 2.07 2.64 3.933 6.503 3.382-.491 2.237-2.042 1.02-3.71.207-1.788 4.078-10.175 5.065-11.32 7.78 7.642 7.078 17.881 8.69 21.355l.794-2.286c5.31.603 8.06 5.006 15.827 3.408 11.611-2.388 15.94-15.564 10.913-24.971-9.326-17.449-44.241-2.633-46.068-33.773-.42-7.165 1.223-10.85 4.035-15.873 1.072.396-.166-.194.624.502.84.74-.346.374.803.586.251-4.472 1.935-5.936 4.313-8.034.267.424.821-.865.236 2.757-.193 1.197-.369 1.794-.373 3.023.243-3.184 2.176-6.949 3.766-8.564 1.688-.891 5.548.132 6.347 4.717.317 1.818-.055 1.769.669 3.168l.074-5.886c9.26 2.869 5.787 8.21 7.646 11.924.758-1.651-.116-5.128-.261-6.939C-.859-8.576-.857-3.322 0 0" clip-path="url(#o)" style="fill:#fff;fill-opacity:1;fill-rule:evenodd;stroke:none" transform="matrix(.35278 0 0 -.35278 74.475 67.314)"></path><path d="M0 0c-3.83-1.522-5.477-1.732-8.107.808-1.641 1.585-3.686 3.956-4.479 6.976-1.805 6.878 2.147 12.048 1.849 19.544-.778 19.582-17.836 17.821-26.987 12.688-8.154-4.574-17.128-14.079-20.752-24.098-3.32-9.181-4.556-29.883-4.461-40.733.726-1.861 3.214.842 3.784-8.232.628-10.004-2.865-26.799-.794-34.954 2.226-.428 2.972.092 5.353.448-.043-5.009-.836-23.497.344-26.663 3.014-.734 4.46.076 6.629 1.914.675.573.676.981 1.601.763 1.435-2.775-.841-2.828 2.096-5.511 5.016-.606 6.282 3.43 8.694 6.178l2.274-3.52c3.196-.346 5.02 1.445 6.419 2.923 2.208 2.329 1.474 2.728 5.046 4.128 9.589 3.762 3.178 19.655 11.822 24.738 2.993 1.76 9.633 5.703 13.445 5.269 2.052-1.85 3.455-5.039 4.902-7.896 2.449-4.831 1.771-4.873 1.555-10.79-.444-12.181 1.388-36.27-9.276-43.857-3.033-2.157-13.589-2.385-14.508-11.902 3.131.596 6.91 2.602 10.016 2.628 4.845.042 6.591-2.627 9.599-3.666 4.689 4.124 4.059 6.697 13.196 4.008 1.766-.52 1.604-.104 2.108.165 1.456 5.69-6.503 8.848-6.903 9.695-.612 5.565 3.204 12.459 5.583 16.128 2.355 3.633 7.335 9.51 10.257 11.837 2.113-.393 15.154-5.479 16.05-6.509 3.642-4.184 3.454-13.222 2.581-19.259-1.1-2.191-13.065-6.266-14.185-14.316 3.01.163 5.73.878 8.801.967 4.303.126 5.228-.597 8.789-1.241 2.074-.375 4.804 1.403 7.492 1.947 3.089.626 6.025.602 9.164.88.566 5.584-6.423 7.627-10.027 10.675-.445 3.329-1.693 14.722-.242 16.983.059.037-.462 1.087 1.206.058.474-.292.786-.7 1.043-1.296 2.749-6.373-5.064-15.454 20.468-11.308 6.359 1.033 9.221 2.18 14.6 4.559 2.76 1.221 11.115 4.962 7.659 10.142-2.225 3.338-11.028 4.867-18.74 10.084-2.223 1.504-3.288 2.456-5.231 4.365-3.317 3.259-5.898 5.821-8.623 10.602-1.394 2.446-6.059 10.773-5.128 13.67.919.108 19.442-2.09 20.582-4.639 1.058-2.367 1.745-18.309 8.86-24.067 2.101-1.701 2.979-.559 5.786-.975 2.088-.309 2.378-1.967 4.676-2.263 2.62-.337 3.297 1.234 5.378 1.942 1.327-.026 2.762-2.926 6.581-2.276 3.931.669 2.234 4.923 2.499 8.351 2.023-.696 6.364-5.002 9.083-2.512 2.751 2.847-1.292 16.156-.898 20.818 2.439-.639 2.55-1.598 5.641-1.227 2.82 4.143-2.776 23.481-2.66 35.16.057 5.642.52 6.83 4.379 9.225l-3.77 37.19c-4.153 25.127-26.123 42.494-44.162 26.291-7.755-6.965-7.878-20.722-11.94-29.216-1.801-3.765-6.439-9.175-9.691-10.912C54.135-5.603 46.114.736 47.748 7.128c1.269 4.966 9.374 8.706 13.901 17.204 11.245 21.108 3.734 43.577-20.032 52.749-3.27 1.262-15.379.648-19.197-.263-9.78-2.331-18.773-9.034-24.097-17.052-2.451-3.693-4.944-9.454-5.923-14.626-1.566-8.264 3.088-8.45.569-17.492-1.125-4.04-5.255-14.144.792-14.917 3.916-.5 4.848 1.485 5.467 4.506 1.417 6.908 9.008 12.587 13.605 17.502 14.541 15.547 6.178 20.136 18.195 23.028 7.402 1.781 11.79-1.532 14.524-5.589 3.187-4.73 3.87-11.159.816-16.204-7.997-13.212-30.464-6.092-41.105-20.649C1.798 10.585.994 6.848 0 0m35.619-12.501c-2.543-4.867-3.218-4.944-7.159-8.184-1.679-1.38-2.486-2.044-5.027-2.712-5.05-1.326-3.298-6.634-14.64 4.512-2.664 2.616-3.972 5.886-6.389 9.623C.923-9.966-.27-12.521-.933-14.176c-2.025-5.048-.169-18.294 1.157-22.92 3.749-13.086 10.347-30.315 19.327-40.558l4.39-4.296c4.502-3.563 14.503-11.206 22.584-12.037-.876 4.356-12.211 12.655-9.82 24.681l.919 1.813c1.098-2.093.568-7.141 1.065-9.864.771-4.236 6.073-12.581 9.099-13.305 1.507-.361 2.556.605 4.941.358 2.331-.243 2.428-1.187 4.562-1.352 2.267 3.471 1.54 9.43 2.738 13.298 3.572-3.706-3.279-14.35-1.998-18.839 2.343-3.081 9.085-2.127 12.983-2.179 2.424-.033 4.895-.04 7.318.032 2.439.073 5.056.758 6.662.693l-1.413-2.049c1.323-2.557 5.073-7.014 8.926-6.938 2.753.054 10.27 3.878 9.147 6.895-2.941 3.256-9.607 5.345-14.256 7.681-5.58 2.803-8.361 5.912-12.543 9.426C56.002-67.79 64.247-35.197 56.469-13.772c-1.092 3.01-2.831 6.425-4.767 8.982L47.886-.373c-9.456 10.604 7.483 15.474 12.766 26.617 11.734 24.744-5.293 51.429-31.297 49.275-11.844-.981-21.884-6.504-28.276-15.757C-.826 57.004-5.95 48.249-4.652 43.59c3.038-.513 5.362 1.079 7.101 2.442 3.589 2.814 2.07 2.64 3.933 6.503 3.382-.491 2.237-2.042 1.02-3.71.207-1.788 4.078-10.175 5.065-11.32 7.78 7.642 7.078 17.881 8.69 21.355l.794-2.286c5.31.603 8.059 5.006 15.827 3.408 11.611-2.388 15.94-15.564 10.913-24.971C39.364 17.562 4.45 32.378 2.623 1.238c-.42-7.165 1.222-10.85 4.035-15.873 1.072.396-.166-.194.624.502.84.74-.346.374.802.586.252-4.472 1.936-5.936 4.314-8.034.267.424.821-.865.236 2.757-.193 1.197-.369 1.794-.373 3.023.242-3.184 2.176-6.949 3.765-8.564 1.688-.891 5.549.132 6.348 4.717.316 1.818-.055 1.769.669 3.168l.074-5.886c9.26 2.869 5.786 8.21 7.645 11.923.759-1.65-.115-5.127-.26-6.938 3.505.001 3.507 5.255 4.364 8.577.652-.011.758-3.541.753-3.697m-36.906 43.53c5.477-.168-.295 4.175 8.723 7.711.329-.325.314-.219.664-.748.044-.068.39-.772.429-.86 1.751-3.964-1.069-3.378-6.85-11.821C-1.902 20.079-2.518 14.956-4 14.247c-5.889-.803-2.512 8.387-1.609 11.501 2.689 9.272.929 9.897 6.517 9.726-.711-2.545-1.985-1.695-2.195-4.445m-59.722-53.818c10.554 2.362 8.136 16.977 12.642 21.801.362-.578 1.152 1.5-.17-3.488l-3.124-11.582c-1.151-4.491.553-13.06 3.294-15.365 6.259.819 5.598 14.746 5.925 17.687 1.184-1.612 1.27-3.764 1.174-6.049-.094-2.216-.473-4.009-1.074-6.036-1.375-4.636-1.557-7.841 1.751-10.436 5.246 2.14 6.605 10.931 5.424 16.878-.032.162-.291 1.464-.292 1.523-.019 2.044.004.653.356 1.204 4.189-5.053-1.333-12.632 1.83-17.312 5.398-.15 6.773 9.033 5.358 15.013-.045.192-.249.901-.247 1.091.017 1.342.032.764.517 1.478 3.922-11.139-.564-11.865 1.292-15.685 5.924-.225 4.959 13.005 5.072 14.946 1.297-.1 6.411-3.109 7.84-3.866 2.878-1.525 5.635-2.954 9.58-2.559 1.075 3.862.792 5.676 2.447 9.879C6.857 7.334-8.657-12.492-14.336 6.024c-2.747 8.955 1.32 12.782 1.195 21.307-.125 8.611-3.168 12.902-11.421 13.692-5.865.561-5.875.095-10.17-2.173-8.036-4.243-14.954-9.945-19.357-18.138-3.684-6.857-3.97-11.418-4.806-19.912-.745-7.572-1.898-15.9-2.114-23.589M52.578-4.222c.609-2.27 4.576-5.636 7.283-12.535 1.006-2.565 1.056-5.964 3.855-6.183 2.325-.181 2.076.92 3.278 1.675.861.542 2.563.674 3.858 1.202 2.995 1.223 10.02 6.368 12.477 7.62 5.534 2.823 8.553 5.706 13.601 6.3-.797-4.966-3.711-10.541-.223-16.762 1.67-2.979 1.957-3.167 3.58-3.142.697 2.175.424 9.048.505 12.222.066 2.643-.106 2.612.874 3.704.392-4.764-.946-13.484 5.244-17.253 6.012-3.661-1.037 5.826.577 12.813.127.553.414 1.532.609 2.077.681 1.899.224 1.133 1.399 1.925-.226-3.966-1.752-6.424-.638-10.658.808-3.074 2.778-6.366 5.151-7.373 6.801 3.507-3.057 4.669.637 16.865.67 2.212.863 1.67 1.434 2.085-.468-3.825-2.025-5.569-.8-9.817.865-3 2.254-5.143 5.56-5.279 1.607 5.663 2.058 7.332 1.147 13.313-.68 4.47-1.812 9.67-2.086 14.055 3.171-1.464 2.069-9.493 3.872-14.942 1.391-4.201 4.995-8.964 9.588-9.388.106 2.735-1.02 7.555-1.316 10.629-1.858 19.273-.181 33.148-13.3 48.161-6.368 7.287-23.922 13.114-32.074-1.639-7.437-13.459-1.966-20.025-15.238-33.699-4.729-4.87-10.532-5.976-18.854-5.976m30.328-27.744c-.814 1.525 3.173 8.829 4.027 11.361 1.361 4.032 2.536 8.674 4.128 12.344l3.245-.157c-.027-2.505-.596-5.532-.973-7.963-.731-4.719-9.353-14.974-10.427-15.585m-.411 16.624L77.039-34.88c4.918 2.533 10.699 16.927 10.652 22.23-1.235.184-2.095.012-3.279-.45-1.421-.554-1.327-.551-1.917-2.242M72.409-37.5c-.135 2.698.988 9.354 1.492 12.504.833 5.22.304 7.826 6.45 7.593-.256-6.543-4.188-16.864-7.942-20.097m-5.724-4.028c4.024 4.51 6.691 12.786 7.214 20.178-6.92.104-5.526-1.949-6.248-7.981-.358-2.999-1.3-9.354-.966-12.197m20.59-18.773c-4.266 8.504-.77 22.641 2.112 31.728.873 2.753 2.202 7.508 4.867 7.862.388-7.09-4.409-20.497-5.944-29.177-.561-3.173-.24-7.614-1.035-10.413m-145.558-5.471c3.105.93 6.79 8.582 8.176 12.931 1.777 5.569 3.048 13.021 2.807 19.508-4.689 2.244-5.061 7.365-5.782 13.938-1.425-.188-2.837-1.645-3.595-2.606-1.315-1.666-.608-3.274-.394-5.546 1.28-13.597-2.301-31.888-1.212-38.225m51.371 25.047c.004 1.398-3.312 6.378-5.099 11.125-2.729 7.245-2.32 9.322-7.641 9.449-.454-5.461 1.663-9.118 4.006-12.648 1.529-2.304 5.663-8.442 8.734-7.926m1.459 9.428c-1.495 4.11-1.644 7.318-6.688 7.27-.312-3.966 5.52-16.355 9.993-18.162-.2 3.284-2.208 7.872-3.305 10.892m.076 6.021c1.808-.125 1.689-.05 2.138-1.963l1.48-10.79c-1.368 1.749-3.899 9.878-3.618 12.753m67.425.302c-.861-3.26-.359-11.851-.179-15.562 3.523 1.123 6.514 12.237 4.386 16.417-1.747.189-3.171-.134-4.207-.855m36.791-62.474c-2.31.198-3.676 2.996-4.833 5.122-3.853 7.077-4.665 15.948-4.786 24.121-.106 7.1 1.049 10.338 2.8 16.539.591 2.095 3.289 13.101 4.732 14.822-.705-16.328-4.229-30.01-.475-46.784.865-3.864 2.559-10.1 2.562-13.82m-119.448 59.06c-.199-5.28 1.78-12.577 2.939-17.374.584-2.413 3.279-16.408 3.608-17.041.404.333.699.306 1.081 1.617l.731 7.552c.089 3.47-.136 6.862-.805 10.26-.869 4.414-4.19 13.532-7.554 14.986M84.128-60.355c.417 5.082-.843 9.847.244 15.788.858 4.697 2.482 9.584 2.945 14.49-4.912-1.795-5.432-7.894-6.433-14.164-.748-4.683-1.768-15.799 3.244-16.114m22.973-29.306c3.641 6.527-3.329 13.236-4.388 28.698-.812 11.863.8 29.205.233 34.609-4.975-1.303-5.188-6.768-6.183-13.589-1.719-11.786-1.102-26.141 2.183-37.46 1.321-4.55 4.421-11.84 8.155-12.258M-22.691-32.524c-1.773-.605-1.216-.579-2.377-1.896-.049-.915 2.826-15.333 3.133-23.783l-.236-26.857c4.922 1.18 5.599 16.571 5.598 20.909-.002 11.167-3.251 22.066-6.118 31.627m98.155-16.991c-.003 5.254.539 14.967 6.118 17.009-.442-6.731-3.129-14.74-2.759-20.688.149-2.413 1.415-5.157.487-6.03-3.61-1.4-3.843 6.333-3.846 9.709m56.767-14.682c.338 6.331-1.167 14.085-1.965 20.365-.92 7.242-.689 14.477-.815 21.783-1.085 1.328-3.402 3.635-5.318 4.379-.973-1.661-1.023-4.011-1.752-5.885-.939-2.414-6.036-2.015-1.549-20.099 1.632-6.578 6.252-19.983 11.399-20.543M71.128-45.856c.007-5.294-.911-13.342 3.617-12.396.196 3.482-.709 7.055-.273 11.457.314 3.172 1.204 7.075 1.356 10.742-3.38-2.002-4.704-4.937-4.7-9.803M114.96-29.33c-4.495.045-3.938 2.139-3.938-5.548 0-10.416.593-20.186 3.364-29.823 1.915-6.662 8.047-20.117 13.5-20.618 1.128 18.786-9.401 35.631-10.411 58.193-1.206-.438-1.754-1.359-2.515-2.204m-126.3-10.581c3.999-.735 4.78-4.44 4.965-9.141.193-4.918.675-9.79-3.773-10.846zm6.215-2.05c2.868-.34 4.322-2.947 4.041-6.638-.124-1.635-.351-3.635-.604-5.102-.363-2.103-.306-2.721-2.328-3.15-.756 2.99-1.513 11.694-1.109 14.89m5.161-2.796c1.219-1.315 1.429-3.057 1.951-5.226 1.019-4.232 1.128-4.031-.04-5.105-1.092.536-.937-.178-1.224 2.027zm65.745.433c1.184.412 1.471 1.479 2.371 2.701l2.218 2.546c.054.183.243.136.366.202.024-5.409-.195-13.555-1.057-18.464-3.815.274-3.505 4.696-3.903 8.654-.216-5.765.681-8.181-2.526-8.058-1.035 1.814-3.559 13.632 1.817 16.074.852-1.335.646-1.987.714-3.655m-119.12-44.984c-.031 20.954 5.274 37.572 7.99 56.944 1.629-.938 1.474-1.321 2.242-2.742 2.198-4.067 3.278-.453 3.69-5.244.129-1.493.15-3.089.15-4.591 0-8.908-3.829-38.58-11.125-46.002-2.259-2.298-2.942-1.892-2.947 1.635m170.549-1.026c-4.002-.233-7.337 6.901-8.771 10.572-6.112 15.645-4.232 34.273-2.904 51.613 1.655.071 2.08-.617 3.421-1.251.148-6.226-.287-11.126.692-17.266 1.709-10.734 9.901-38.958 7.562-43.668M-42.587-94.99c2.051.849 2.52 2.364 3.941 5.07 1.062 2.02 1.89 3.79 2.697 6.026 4.855 13.452 5.679 34.546 3.494 48.109-4.66 2.543-4.451 4.857-5.074-9.613-.25-5.823-1.22-10.71-2.257-16.369-1.911-10.422-4.741-22.404-2.801-33.223m15.24 62.337c3.701-11.77 6.864-35.389 2.636-48.757-1.238-3.915-3.216-10.19-7.158-10.249l-.111 2.808c-.529 5.308 2.156 47.121 2.778 56.025zm41.072-41.521-.92-19.551c5.561-.089 5.57-2.097 8.453-3.342 1.398 1.469 6.402 6.966 7.178 9.131-1.43 2.494-12.099 12.592-14.711 13.762m35.04-17.963c-1.253-6.566 6.09-12.868 2.91-21.765-2.949-8.248-10.225-11.113-12.26-13.956 13.966.224 9.569-1.122 14.288-1.493 1.409-.11 11.069 2.78 12.063 3.451-1.964 2.172-5.535 3.794-7.606 5.904-5.372 5.473-1.811 15.672-2.23 23.389-.323 5.934-3.906 6.357-7.165 4.47M17.943-125.29c-8.681-.562-7.052-.611-12.338-4.004-5.854 1.465.325 2.083-12.845 2.181 1.174 1.108 6.177 3.138 8.043 4.642 8.916 7.187 10.865 15.144 12.336 26.569 10.946 3.206 2.409-9.365-.045-15.991-4.265-11.514 2.473-9.076 4.849-13.397m57.991 24.2c7.633.19 4.391 1.052 9.473-3.559 3.407-3.092 3.687-2.165 4.423-3.87-1.586-2.755-8.656-2.731-8.754-2.7-2.391 1.781-5.429 5.595-5.142 10.129m3.099-10.475c-.925 2.259-2.533 5.472-3.638 7.413-.606 1.066-5.124 5.691-6.535 3.267-.001-.002.607-15.775 10.173-10.68m-15.014 10.462c.01.005.693 1.876 2.43-1.471 1.002-1.929 3.37-8.072 3.364-9.793-2.96-.431-4.77.808-5.384 3.249-.539 2.141-1.305 6.153-.41 8.015" clip-path="url(#p)" style="fill:#040407;fill-opacity:1;fill-rule:evenodd;stroke:none" transform="matrix(.35278 0 0 -.35278 62.175 64.208)"></path><path d="M0 0c.609-2.27 4.576-5.637 7.282-12.535 1.007-2.566 1.057-5.964 3.856-6.183 2.324-.181 2.075.92 3.278 1.675.86.541 2.563.673 3.858 1.202 2.995 1.223 10.019 6.367 12.477 7.62 5.534 2.822 8.553 5.706 13.6 6.3-.797-4.967-3.711-10.542-.223-16.762 1.671-2.979 1.957-3.167 3.58-3.142.698 2.175.425 9.048.505 12.222.067 2.643-.106 2.612.875 3.704.391-4.764-.947-13.484 5.244-17.253 6.012-3.661-1.038 5.826.577 12.813.127.553.414 1.532.609 2.077.681 1.899.224 1.133 1.398 1.925-.225-3.966-1.751-6.424-.637-10.658.808-3.074 2.777-6.367 5.151-7.373 6.801 3.507-3.057 4.668.636 16.865.67 2.212.864 1.67 1.434 2.085-.468-3.825-2.024-5.57-.8-9.817.866-3.001 2.255-5.143 5.561-5.279 1.606 5.662 2.057 7.332 1.147 13.313-.68 4.47-1.813 9.67-2.086 14.055 3.171-1.464 2.069-9.494 3.872-14.943 1.39-4.201 4.995-8.964 9.587-9.388.107 2.735-1.019 7.556-1.315 10.629-1.858 19.274-.181 33.149-13.301 48.162-6.367 7.287-23.922 13.114-32.073-1.639-7.438-13.46-1.966-20.025-15.239-33.699C14.125 1.105 8.322 0 0 0" clip-path="url(#q)" style="fill:#fff;fill-opacity:1;fill-rule:evenodd;stroke:none" transform="matrix(.35278 0 0 -.35278 80.723 65.697)"></path><path d="M0 0c10.555 2.361 8.136 16.977 12.643 21.801.361-.579 1.151 1.5-.171-3.488L9.349 6.731c-1.152-4.491.552-13.06 3.294-15.365 6.258.819 5.597 14.746 5.924 17.686 1.185-1.612 1.27-3.763 1.174-6.049-.094-2.215-.473-4.008-1.074-6.035-1.375-4.636-1.556-7.841 1.751-10.436 5.247 2.14 6.606 10.93 5.425 16.877-.032.163-.292 1.464-.292 1.524-.02 2.044.004.652.356 1.204 4.188-5.054-1.333-12.632 1.83-17.313 5.397-.149 6.772 9.034 5.358 15.014-.046.192-.249.901-.247 1.091.016 1.342.032.764.517 1.478C37.287-4.732 32.8-5.459 34.657-9.278c5.923-.225 4.959 13.005 5.071 14.946 1.298-.1 6.412-3.109 7.84-3.866 2.878-1.525 5.635-2.954 9.581-2.56 1.074 3.863.791 5.677 2.446 9.88 8.271 21-7.242 1.174-12.922 19.691-2.746 8.955 1.32 12.782 1.196 21.307-.126 8.611-3.169 12.902-11.422 13.691-5.864.561-5.875.095-10.169-2.172-8.036-4.243-14.955-9.946-19.357-18.139-3.685-6.856-3.971-11.417-4.807-19.911C1.369 16.017.216 7.689 0 0" clip-path="url(#r)" style="fill:#fff;fill-opacity:1;fill-rule:evenodd;stroke:none" transform="matrix(.35278 0 0 -.35278 40.652 72.247)"></path><path d="M0 0c-4.495.045-3.938 2.139-3.938-5.549 0-10.416.593-20.185 3.364-29.823 1.915-6.662 8.048-20.116 13.5-20.618 1.128 18.787-9.4 35.632-10.411 58.194C1.309 1.766.762.845 0 0" clip-path="url(#s)" style="fill:#fff;fill-opacity:1;fill-rule:evenodd;stroke:none" transform="matrix(.35278 0 0 -.35278 102.73 74.555)"></path><path d="M0 0c.005-3.526.688-3.933 2.947-1.635 7.295 7.422 11.124 37.094 11.124 46.002 0 1.502-.021 3.098-.149 4.591-.413 4.791-1.492 1.177-3.69 5.244-.768 1.421-.614 1.805-2.242 2.743C5.274 37.572-.031 20.955 0 0" clip-path="url(#t)" style="fill:#fff;fill-opacity:1;fill-rule:evenodd;stroke:none" transform="matrix(.35278 0 0 -.35278 43.358 95.714)"></path><path d="M0 0c2.051.85 2.521 2.365 3.942 5.071 1.061 2.02 1.889 3.789 2.697 6.026 4.854 13.452 5.678 34.545 3.493 48.108-4.659 2.543-4.451 4.857-5.074-9.613-.25-5.823-1.219-10.71-2.257-16.369C.89 22.801-1.94 10.819 0 0" clip-path="url(#u)" style="fill:#fff;fill-opacity:1;fill-rule:evenodd;stroke:none" transform="matrix(.35278 0 0 -.35278 47.151 97.718)"></path><path d="M0 0c2.339 4.71-5.853 32.934-7.563 43.668-.978 6.14-.543 11.041-.692 17.266-1.341.635-1.765 1.322-3.42 1.252-1.329-17.341-3.208-35.969 2.903-51.614C-7.337 6.901-4.002-.232 0 0" clip-path="url(#v)" style="fill:#fff;fill-opacity:1;fill-rule:evenodd;stroke:none" transform="matrix(.35278 0 0 -.35278 103.524 96.076)"></path><path d="M0 0c3.641 6.527-3.328 13.236-4.388 28.698-.812 11.863.8 29.205.233 34.609-4.975-1.303-5.188-6.768-6.183-13.589-1.719-11.786-1.102-26.141 2.184-37.46C-6.834 7.708-3.734.418 0 0" clip-path="url(#w)" style="fill:#fff;fill-opacity:1;fill-rule:evenodd;stroke:none" transform="matrix(.35278 0 0 -.35278 99.958 95.838)"></path><path d="M0 0c-.622-8.904-3.308-50.717-2.779-56.024l.112-2.809c3.942.06 5.92 6.334 7.158 10.249C8.719-35.215 5.555-11.596 1.855.174z" clip-path="url(#x)" style="fill:#fff;fill-opacity:1;fill-rule:evenodd;stroke:none" transform="matrix(.35278 0 0 -.35278 51.873 75.788)"></path><path d="M0 0c.338 6.331-1.167 14.085-1.965 20.364-.92 7.243-.689 14.478-.814 21.784-1.086 1.327-3.403 3.635-5.319 4.378-.973-1.661-1.023-4.01-1.752-5.885-.939-2.414-6.036-2.014-1.549-20.098C-9.766 13.965-5.147.56 0 0" clip-path="url(#y)" style="fill:#fff;fill-opacity:1;fill-rule:evenodd;stroke:none" transform="matrix(.35278 0 0 -.35278 108.823 86.855)"></path><path d="M0 0c3.106.929 6.79 8.582 8.176 12.93 1.777 5.57 3.049 13.021 2.807 19.509-4.689 2.244-5.061 7.365-5.782 13.937-1.425-.188-2.836-1.645-3.595-2.605-1.315-1.666-.608-3.274-.394-5.546C2.493 24.628-1.088 6.336 0 0" clip-path="url(#z)" style="fill:#fff;fill-opacity:1;fill-rule:evenodd;stroke:none" transform="matrix(.35278 0 0 -.35278 41.614 87.41)"></path><path d="M0 0c13.966.224 9.569-1.122 14.288-1.493 1.409-.11 11.069 2.779 12.063 3.45-1.964 2.173-5.535 3.795-7.606 5.904-5.372 5.473-1.811 15.672-2.23 23.39-.323 5.933-3.906 6.357-7.165 4.469-1.253-6.566 6.09-12.867 2.91-21.764C9.311 5.707 2.035 2.843 0 0" clip-path="url(#A)" style="fill:#ed2025;fill-opacity:1;fill-rule:evenodd;stroke:none" transform="matrix(.35278 0 0 -.35278 76.08 109.313)" data-source="https://football-logos.cc"></path><path d="M0 0c-.003 3.72-1.697 9.956-2.561 13.82-3.754 16.774-.231 30.456.475 46.784-1.443-1.721-4.142-12.728-4.733-14.822-1.75-6.201-2.906-9.44-2.8-16.539.121-8.173.933-17.044 4.786-24.121C-3.676 2.996-2.309.198 0 0" clip-path="url(#B)" style="fill:#fff;fill-opacity:1;fill-rule:evenodd;stroke:none" transform="matrix(.35278 0 0 -.35278 97.043 95.058)"></path><path d="M0 0c-2.376 4.321-9.114 1.883-4.849 13.397 2.454 6.626 10.991 19.197.045 15.991-1.471-11.425-3.42-19.382-12.336-26.569-1.866-1.504-6.868-3.534-8.043-4.642 13.17-.098 6.991-.716 12.846-2.182C-7.052-.611-8.681-.562 0 0" clip-path="url(#C)" style="fill:#ed2025;fill-opacity:1;fill-rule:evenodd;stroke:none" transform="matrix(.35278 0 0 -.35278 68.505 108.407)"></path><path d="M0 0c-.048-.915 2.826-15.333 3.133-23.782L2.898-50.64c4.921 1.18 5.598 16.571 5.598 20.909C8.493-18.564 5.244-7.664 2.377 1.896.605 1.291 1.161 1.317 0 0" clip-path="url(#D)" style="fill:#fff;fill-opacity:1;fill-rule:evenodd;stroke:none" transform="matrix(.35278 0 0 -.35278 53.331 76.35)"></path><path d="M0 0c5.561-.089 5.57-2.097 8.453-3.342 1.398 1.469 6.402 6.966 7.178 9.131C14.201 8.283 3.532 18.381.92 19.551Z" clip-path="url(#E)" style="fill:#fff;fill-opacity:1;fill-rule:evenodd;stroke:none" transform="matrix(.35278 0 0 -.35278 66.692 97.272)"></path><path d="M0 0c.209 2.75 1.484 1.9 2.194 4.444-5.587.172-3.827-.453-6.516-9.726-.904-3.114-4.28-12.303 1.609-11.501 1.482.709 2.098 5.833 5.679 11.064 5.78 8.444 8.6 7.858 6.85 11.821a21 21 0 0 1-.43.86c-.349.529-.334.424-.664.749C-.295 4.175 5.477-.168 0 0" clip-path="url(#F)" style="fill:#ed2025;fill-opacity:1;fill-rule:evenodd;stroke:none" transform="matrix(.35278 0 0 -.35278 61.721 53.261)"></path><path d="M0 0c.794 2.799.474 7.24 1.035 10.413C2.57 19.093 7.367 32.5 6.979 39.59c-2.666-.354-3.994-5.109-4.867-7.862C-.771 22.641-4.267 8.505 0 0" clip-path="url(#G)" style="fill:#fff;fill-opacity:1;fill-rule:evenodd;stroke:none" transform="matrix(.35278 0 0 -.35278 92.964 85.48)"></path><path d="M0 0c.404.333.7.306 1.081 1.617l.731 7.552c.089 3.469-.136 6.862-.805 10.26-.869 4.413-4.19 13.532-7.554 14.986-.199-5.281 1.78-12.578 2.939-17.374C-3.024 14.627-.329.633 0 0" clip-path="url(#H)" style="fill:#fff;fill-opacity:1;fill-rule:evenodd;stroke:none" transform="matrix(.35278 0 0 -.35278 57.214 86.363)"></path><path d="M0 0c-.068 1.668.138 2.32-.714 3.656-5.376-2.442-2.852-14.26-1.817-16.074 3.207-.124 2.31 2.293 2.526 8.058.398-3.959.088-8.381 3.903-8.655C4.76-8.106 4.979.041 4.955 5.449c-.123-.066-.312-.019-.366-.202L2.37 2.702C1.471 1.48 1.184.413 0 0" clip-path="url(#I)" style="fill:#fff;fill-opacity:1;fill-rule:evenodd;stroke:none" transform="matrix(.35278 0 0 -.35278 85.381 79.845)"></path><path d="M0 0c.416 5.082-.843 9.847.243 15.788.859 4.697 2.483 9.584 2.946 14.49-4.912-1.794-5.432-7.894-6.433-14.164C-3.992 11.431-5.013.315 0 0" clip-path="url(#J)" style="fill:#fff;fill-opacity:1;fill-rule:evenodd;stroke:none" transform="matrix(.35278 0 0 -.35278 91.854 85.5)"></path><path d="M0 0c.003 1.398-3.313 6.378-5.1 11.124-2.728 7.246-2.319 9.323-7.641 9.449-.453-5.461 1.664-9.117 4.006-12.647C-7.205 5.621-3.071-.516 0 0" clip-path="url(#K)" style="fill:#fff;fill-opacity:1;fill-rule:evenodd;stroke:none" transform="matrix(.35278 0 0 -.35278 59.737 78.575)"></path><path d="M0 0c1.074.611 9.696 10.866 10.428 15.586.376 2.43.946 5.458.972 7.962l-3.245.157c-1.591-3.67-2.767-8.312-4.128-12.344C3.173 8.829-.814 1.525 0 0" clip-path="url(#L)" style="fill:#fff;fill-opacity:1;fill-rule:evenodd;stroke:none" transform="matrix(.35278 0 0 -.35278 91.422 75.485)"></path><path d="M0 0c.002-3.376.235-11.109 3.845-9.71.928.873-.337 3.617-.487 6.031-.369 5.947 2.317 13.956 2.759 20.688C.539 14.967-.003 5.253 0 0" clip-path="url(#M)" style="fill:#fff;fill-opacity:1;fill-rule:evenodd;stroke:none" transform="matrix(.35278 0 0 -.35278 88.797 81.676)"></path><path d="M0 0c-5.082 4.612-1.84 3.75-9.472 3.56-.287-4.534 2.75-8.349 5.142-10.13.097-.031 7.167-.055 8.754 2.701C3.688-2.165 3.408-3.092 0 0" clip-path="url(#N)" style="fill:#fff;fill-opacity:1;fill-rule:evenodd;stroke:none" transform="matrix(.35278 0 0 -.35278 92.305 101.126)"></path><path d="M0 0c4.918 2.532 10.699 16.926 10.652 22.23-1.235.184-2.095.012-3.28-.45-1.421-.554-1.326-.551-1.916-2.242Z" clip-path="url(#O)" style="fill:#fff;fill-opacity:1;fill-rule:evenodd;stroke:none" transform="matrix(.35278 0 0 -.35278 89.353 76.513)"></path><path d="M0 0c4.024 4.51 6.691 12.786 7.213 20.178-6.92.104-5.525-1.949-6.247-7.981C.608 9.198-.335 2.843 0 0" clip-path="url(#P)" style="fill:#fff;fill-opacity:1;fill-rule:evenodd;stroke:none" transform="matrix(.35278 0 0 -.35278 85.7 78.858)"></path><path d="M0 0c3.754 3.233 7.685 13.554 7.942 20.097-6.147.233-5.617-2.373-6.45-7.593C.988 9.353-.135 2.698 0 0" clip-path="url(#Q)" style="fill:#fff;fill-opacity:1;fill-rule:evenodd;stroke:none" transform="matrix(.35278 0 0 -.35278 87.72 77.437)"></path><path d="M0 0c4.447 1.056 3.965 5.928 3.772 10.846-.185 4.701-.966 8.405-4.964 9.141z" clip-path="url(#R)" style="fill:#fff;fill-opacity:1;fill-rule:evenodd;stroke:none" transform="matrix(.35278 0 0 -.35278 58.595 85.339)"></path><path d="M0 0c-.606 1.066-5.124 5.691-6.535 3.267-.002-.002.606-15.775 10.173-10.68C2.713-5.154 1.104-1.941 0 0" clip-path="url(#S)" style="fill:#fff;fill-opacity:1;fill-rule:evenodd;stroke:none" transform="matrix(.35278 0 0 -.35278 88.773 100.95)"></path><path d="M0 0c-.199 3.284-2.208 7.873-3.305 10.892-1.494 4.11-1.644 7.319-6.687 7.27C-10.305 14.196-4.473 1.807 0 0" clip-path="url(#T)" style="fill:#fff;fill-opacity:1;fill-rule:evenodd;stroke:none" transform="matrix(.35278 0 0 -.35278 61.417 79.091)"></path><path d="M0 0c.007-5.295-.911-13.343 3.617-12.397.196 3.483-.709 7.056-.273 11.458C3.658 2.232 4.548 6.136 4.7 9.802 1.32 7.8-.004 4.865 0 0" clip-path="url(#U)" style="fill:#fff;fill-opacity:1;fill-rule:evenodd;stroke:none" transform="matrix(.35278 0 0 -.35278 87.267 80.385)"></path><path d="M0 0c-.861-3.259-.359-11.85-.179-15.562C3.344-14.438 6.335-3.325 4.207.855 2.46 1.045 1.036.721 0 0" clip-path="url(#V)" style="fill:#fff;fill-opacity:1;fill-rule:evenodd;stroke:none" transform="matrix(.35278 0 0 -.35278 84.064 73.018)"></path><path d="M0 0c2.022.43 1.964 1.048 2.327 3.15.254 1.467.481 3.467.604 5.103.281 3.69-1.172 6.298-4.04 6.637C-1.513 11.694-.757 2.99 0 0" clip-path="url(#W)" style="fill:#fff;fill-opacity:1;fill-rule:evenodd;stroke:none" transform="matrix(.35278 0 0 -.35278 60.758 84.264)"></path><path d="M0 0c-.895-1.862-.129-5.874.41-8.015.614-2.441 2.424-3.68 5.384-3.249C5.8-9.543 3.431-3.4 2.43-1.471.692 1.876.01.005 0 0" clip-path="url(#X)" style="fill:#fff;fill-opacity:1;fill-rule:evenodd;stroke:none" transform="matrix(.35278 0 0 -.35278 84.76 99.875)"></path><path d="m0 0-1.48 10.79c-.448 1.913-.33 1.838-2.138 1.963C-3.899 9.878-1.368 1.75 0 0" clip-path="url(#Y)" style="fill:#fff;fill-opacity:1;fill-rule:evenodd;stroke:none" transform="matrix(.35278 0 0 -.35278 61.554 77.624)"></path><path d="M0 0c1.168 1.074 1.059.874.04 5.106-.522 2.169-.732 3.91-1.951 5.225l.687-8.304C-.937-.177-1.092.536 0 0" clip-path="url(#Z)" style="fill:#fff;fill-opacity:1;fill-rule:evenodd;stroke:none" transform="matrix(.35278 0 0 -.35278 62.862 83.642)"></path><path d="M0 0c.652-.011.758-3.541.753-3.697 2.291 1.041 3.663 2.078 3.723 5.831-1.324-1.828-1.4-3.202-3.281-4.417L.704.716C-.639.951.479.95 0 0" clip-path="url(#aa)" style="fill:#444547;fill-opacity:1;fill-rule:evenodd;stroke:none" transform="matrix(.35278 0 0 -.35278 74.475 67.314)" data-source="https://football-logos.cc"></path><!-- source: https://football-logos.cc --></svg>