<svg xmlns="http://www.w3.org/2000/svg" viewBox="1 1 249.83 250"><!-- Source: https://football-logos.cc --><path d="M297.638 137.48A283.272 283.465 0 0 1 580.91 420.945 283.272 283.465 0 1 1 297.638 137.48" style="fill:#ececec;fill-rule:evenodd" transform="translate(-5.335 -59.625)scale(.44097)" data-source="https://football-logos.cc"></path><path d="M297.638 138.818a281.934 282.126 0 0 1 281.934 282.127 281.934 282.126 0 1 1-281.934-282.127" style="fill:#fff;fill-rule:evenodd" transform="translate(-5.335 -59.625)scale(.44097)"></path><path d="M297.638 146.044a274.708 274.9 0 0 1 274.708 274.9 274.708 274.9 0 1 1-274.708-274.9" style="fill:#034e97;fill-rule:evenodd" transform="translate(-5.335 -59.625)scale(.44097)"></path><path d="M297.638 151.13A269.623 269.816 0 0 1 567.26 420.944a269.623 269.816 0 1 1-269.623-269.816" style="fill:#fff;fill-rule:evenodd" transform="translate(-5.335 -59.625)scale(.44097)"></path><path d="M297.638 164.51A256.242 256.434 0 0 1 553.88 420.946 256.242 256.434 0 1 1 297.638 164.51" style="fill:#034e97;fill-rule:evenodd" transform="translate(-5.335 -59.625)scale(.44097)"></path><path d="M297.638 182.174a238.579 238.771 0 0 1 238.579 238.77 238.579 238.771 0 1 1-238.58-238.77" style="fill:#fff;fill-rule:evenodd" transform="translate(-5.335 -59.625)scale(.44097)" data-source="https://football-logos.cc"></path><path d="M297.638 202.78a217.972 218.164 0 0 1 217.971 218.165A217.972 218.164 0 1 1 297.638 202.78" style="fill:#034e97;fill-rule:evenodd" transform="translate(-5.335 -59.625)scale(.44097)"></path><path d="M297.638 162.905c97.052 0 181.586 53.694 225.578 133.007 3.527 6.99 2.913 13.873.005 19.583-3.986 7.825-12.582 14.155-20.45 17.48-10.52 4.445-20.467 6.727-28.51 5.807-5.157-.59-9.412-2.504-12.259-6.996-31.653-58.341-93.392-97.96-164.364-97.96-70.37 0-131.663 38.95-163.553 96.48-2.361 3.778-4.488 6.506-7.516 8.328-9.972 6-27.539 2.49-37.83-3.706-14.308-8.615-27.09-20.005-17.373-37.757 43.794-80.003 128.707-134.266 226.272-134.266m237.471 358.682c-39.196 92.496-130.769 157.398-237.471 157.398-106.351 0-197.672-64.475-237.083-156.486-7.34-17.15 8.205-27.832 21.372-33.935 12.76-5.914 27.992-7.25 37.457-.71 2.65 1.831 4.44 4.541 6.096 7.591 3.198 7.384 7.449 14.374 11.534 21.228 32.62 54.726 92.349 91.391 160.624 91.391 69.999 0 131.311-38.688 163.338-95.72 3.123-5.562 6.266-11.152 8.82-17.046 7.139-16.087 26.188-13.19 42.892-6.916 17.688 6.643 27.99 20.454 22.421 33.205" style="fill:#e00e1f;fill-rule:evenodd" transform="translate(-5.335 -59.625)scale(.44097)"></path><path d="M298.259 247.742A173.631 173.203 0 0 1 471.89 420.945 173.631 173.203 0 1 1 298.26 247.742" style="fill:#fff;fill-rule:evenodd" transform="translate(-5.335 -59.625)scale(.44097)"></path><path d="M298.195 262.194a158.695 158.541 0 0 1 158.695 158.54 158.695 158.541 0 1 1-158.695-158.54" style="fill:#2d2d24;fill-rule:evenodd" transform="translate(-5.335 -59.625)scale(.44097)"></path><path d="M338.979 270.257c43.499 11.744 79.47 41.813 99.099 81.404-8.503-7.752-18.263-12.797-28.245-17.631 2.044 19.182-.43 36.751-4.86 57.607 19.076 17.725 27.388 27.192 32.913 44.355 4.87-5.385 11.614-12.853 16.037-24.674.186 3.116.291 6.254.291 9.417 0 40.853-15.748 78.033-41.5 105.83 3.4-10.892 4.34-23.989 3.887-33.877-16.059 9.223-22.382 14.712-52.271 19.3-6.958 13.437-15.241 26.892-33.09 43.8 5.067 3.93 12.356 7.805 23.841 10.119-17.625 6.902-36.813 10.693-56.886 10.693-25.062 0-48.74-5.916-69.727-16.412 12.138 1.426 23.607-.687 32.25-2.03-13.734-12.423-24.287-27.137-31.066-54.188-14.929-2.464-33.544-7.61-53.856-16.362-2.159 6.001-4.418 14.175-4.592 23.675-18.273-25.522-29.028-56.783-29.028-90.548 0-4.932.237-9.808.686-14.622l11.41 22.556q13.148-21.273 42.842-42.546c-4.973-15.635-5.466-33.805.591-54.955-12.525 4.119-24.19 7.593-35.728 13.544 20.652-36.847 55.85-64.463 97.823-75.078-3.809 6.138-7.162 13.263-9.514 19.053 14.932 3.395 32.347 7.637 53.724 19.52 13.523-9.29 29.59-15.025 55.133-12.991-5.819-8.297-12.779-16.981-20.164-24.96m-32.25 87.206c-21.938 9.997-44.49 21.765-67.364 40.183.812 24.646 6.179 50.99 18.022 80.364 25.41 7.387 52.346 9.947 81.252 7.091 9.134-19.081 19.376-42.964 30.875-73.864-16.692-20.486-38.705-38.016-62.785-53.774M120.321 527.614c-.32.172-.578.088-.77-.268q-1.067-1.987-3.27-6.615-2.065-4.333-3.342-6.578l-1.023-1.84q-.983-1.762-1.09-1.837c-.312-.267-.942-.151-1.868.348l-6.114 3.291c-1.151.62-1.596 1.184-1.336 1.669.887 1.645 2.293 4.07 4.23 7.295 1.928 3.229 3.34 5.663 4.221 7.3.191.354.16.606-.118.755a22 22 0 0 1-1.319.621c-.586.26-1.02.471-1.314.63a31 31 0 0 0-1.349.793q-.904.553-1.357.798c-.2.107-.401-.019-.592-.374-.63-1.169-1.546-2.954-2.76-5.373-1.216-2.405-2.142-4.207-2.776-5.385-1.175-2.182-1.859-3.41-2.039-3.683-.497-.715-1.013-.928-1.559-.634-1.524.82-3.778 2.09-6.78 3.818-2.992 1.723-5.255 2.997-6.78 3.817-.501.27-.873.203-1.092-.204-.182-.338-.409-.863-.699-1.568q-.42-1.063-.704-1.597a19 19 0 0 0-.791-1.284c-.369-.56-.633-.988-.787-1.273-.228-.425-.158-.73.214-.931 1.88-1.012 4.744-2.454 8.608-4.322q5.79-2.816 8.594-4.326c1.75-.942 7.32-4.164 16.714-9.68l.33-.178c.345-.208.665-.112.954.301q.112.208 1.657 3.263c1.38 2.687 2.695 5.15 3.95 7.4 1.681 3.039 3.953 6.842 6.806 11.415.397.613.307 1.13-.252 1.544q-.703.344-2.023 1.223c-1.2.903-1.984 1.459-2.374 1.669M146.133 554.04c-1.79 1.335-4.516 3.257-8.191 5.763-3.67 2.515-6.41 4.435-8.192 5.763q-.876.653-2.608 1.98-1.724 1.322-2.577 1.958-4.836 3.605-7.372 4.097c-2.596.5-5.23-.335-7.894-2.494q-2.449-1.982-5.771-6.443c-4.015-5.386-5.757-9.582-5.219-12.596.416-2.322 2.71-5.037 6.865-8.135q.77-.572 2.596-1.898a280 280 0 0 0 2.872-2.104c1.814-1.352 5.107-3.928 9.87-7.724 1.261-.94 3.1-2.422 5.509-4.425.17-.151.29-.253.352-.3.324-.241.628-.161.928.24.47.632 1.103 1.497 1.887 2.58.913 1.259 1.548 2.11 1.883 2.56.258.347.251.634-.024.84-2.343 1.745-5.894 4.319-10.67 7.72s-8.329 5.974-10.67 7.72c-2.65 1.974-3.999 3.9-4.063 5.788-.07 1.634.91 3.822 2.938 6.543 1.852 2.483 3.502 3.99 4.962 4.533q2.755 1.036 6.243-1.563c2.429-1.81 6.058-4.577 10.878-8.28q7.22-5.565 10.872-8.288c.245-.182.567-.08.965.323.28.294.621.752 1.035 1.388q.69 1.123.663 1.088.309.414 1.006 1.2c.456.53.798.94 1.003 1.215.288.386.263.7-.076.952M165.331 578.235c-.336.372-.632.449-.887.218q-.6-.546-7.324-7.12c-4.062 4.23-7.285 7.653-9.657 10.268-1.486 1.64-3.654 4.148-6.496 7.531s-5.01 5.892-6.49 7.524c-.271.298-.614.266-1.03-.11-.254-.231-.628-.61-1.113-1.13q-.728-.78-1.135-1.148a21 21 0 0 0-1.232-.998 21 21 0 0 1-1.24-1.005c-.35-.317-.373-.657-.05-1.014 1.474-1.625 3.753-3.992 6.837-7.13 3.084-3.123 5.363-5.505 6.85-7.144 2.299-2.535 5.37-6.083 9.233-10.652-3.883-3.096-6.67-5.424-8.383-6.977-.167-.152-.189-.304-.064-.442.232-.255.635-.567 1.194-.936q1.093-.721 1.295-.857c.471-.475 1.201-1.075 2.175-1.798.23-.123.44-.105.608.047l.243.26q7.146 7.293 9.563 9.481c1.42 1.288 3.837 3.294 7.27 6.008 2.326 1.857 3.31 2.616 2.946 2.286.364.33.457.653.269.947q.173-.277-1.92 2.03c-.172.19-.408.494-.72.927-.314.419-.563.737-.742.934M181.599 616.874q-2.836 4.137-7.367 5.396-4.773 1.31-8.836-1.473a257 257 0 0 1-4.526-3.206 242 242 0 0 0-4.533-3.2 99 99 0 0 0-3.429-2.216q-2.306-1.435-3.426-2.202c-.397-.273-.47-.585-.22-.95q1.792-2.617 5.628-7.697c2.559-3.372 4.435-5.937 5.63-7.682 1.255-1.834 3.069-4.657 5.42-8.458q3.54-5.69 5.43-8.451c.24-.349.55-.386.949-.114 1.411.967 3.524 2.425 6.353 4.386s4.955 3.417 6.383 4.395c3.327 2.278 5.553 4.72 6.696 7.314 1.377 3.16.977 6.32-1.19 9.484q-1.123 1.641-3.288 2.766c-1.439.743-2.82 1.108-4.133 1.092-.668-.017-1.034.03-1.1.128-.062.09.043.423.334.992.745 1.487 1.038 3.13.885 4.92q-.228 2.683-1.66 4.776m2.661-18.214c1.534-2.24 1.556-4.43.093-6.576q-1.328-1.924-5.443-4.74c-2.662-1.822-4.132-2.53-4.398-2.141-.362.528-.92 1.29-1.685 2.303a68 68 0 0 0-1.701 2.328c-.25.365-.63.939-1.131 1.704q-.758 1.16-1.148 1.729c-.317.463 1.321 1.918 4.9 4.368 5.087 3.484 8.596 3.824 10.513 1.025m-8.537 13.844c1.322-1.931 1.348-3.832.087-5.697q-1.174-1.784-4.657-4.166-5.987-4.103-6.428-3.46l-2.667 3.896c-.394.576-.972 1.455-1.74 2.646a126 126 0 0 1-1.763 2.679c-.105.154.315.62 1.274 1.396.964.768 2.445 1.841 4.441 3.208 2.508 1.717 4.524 2.62 6.064 2.721 2.027.137 3.827-.942 5.389-3.223M225.608 628.508c-2.275 5.231-5.91 9.002-10.894 11.317-5.193 2.397-10.373 2.471-15.55.22-5.195-2.259-8.686-6.093-10.464-11.498-1.715-5.207-1.422-10.442.868-15.71 2.267-5.212 5.91-8.98 10.94-11.297 5.195-2.405 10.361-2.497 15.511-.258 5.159 2.243 8.633 6.092 10.409 11.529 1.724 5.232 1.454 10.466-.82 15.697m-6.336-2.84q2.255-5.181.689-10.415c-1.075-3.695-3.306-6.284-6.706-7.762-3.364-1.463-6.768-1.303-10.198.466q-4.847 2.494-7.094 7.66-2.242 5.156-.753 10.387c1.041 3.723 3.25 6.314 6.614 7.777 3.418 1.486 6.846 1.347 10.297-.424 3.255-1.641 5.637-4.208 7.15-7.69M255.754 650.075c-.657 2.614-1.255 4.43-1.817 5.455-.26.513-.652.699-1.176.567-1.383-.347-3.424-.941-6.14-1.796-2.728-.847-4.767-1.45-6.15-1.798q-1.96-.492-5.859-1.38a296 296 0 0 1-5.859-1.38c-.467-.119-.648-.407-.53-.875.51-2.031 1.355-5.074 2.519-9.142 1.173-4.065 2.011-7.12 2.526-9.17.542-2.156 1.261-5.424 2.143-9.785.893-4.359 1.61-7.616 2.154-9.782.103-.41.384-.562.851-.445.334.084.842.242 1.515.472s1.19.39 1.543.479c.333.083.865.187 1.585.307a22 22 0 0 1 1.586.307c.449.112.632.351.543.704-.496 1.974-1.32 4.931-2.469 8.861-1.14 3.932-1.963 6.889-2.464 8.882l-1.11 4.416c-.515 1.97-.893 3.436-1.137 4.41-1.04 4.139-1.396 6.24-1.052 6.326 6.867 1.725 12.097 2.867 15.682 3.412q.264.036 1.337.123c.592.027 1.033.087 1.329.161.391.098.539.318.45.67M302.194 639.876c-.497 5.682-2.747 10.412-6.74 14.189-4.164 3.92-9.052 5.635-14.676 5.143-5.643-.494-10.17-3.022-13.572-7.585-3.279-4.393-4.662-9.45-4.162-15.172.496-5.663 2.756-10.391 6.79-14.184 4.164-3.93 9.034-5.657 14.628-5.167 5.604.49 10.12 3.037 13.528 7.63 3.297 4.415 4.701 9.464 4.204 15.146m-6.91-.684c.328-3.752-.552-7.116-2.651-10.094-2.192-3.163-5.129-4.91-8.822-5.234-3.654-.32-6.832.913-9.523 3.679q-3.806 3.902-4.298 9.516-.489 5.599 2.583 10.088c2.168 3.2 5.085 4.956 8.74 5.276 3.712.325 6.919-.895 9.63-3.67 2.566-2.588 4.01-5.778 4.34-9.56M381.293 645.926c.25.87.11 1.38-.43 1.535l-6.371 1.827c-.539.155-2.492-1.413-5.87-4.7q-4.282-4.175-5.866-6.114-1.546-1.859-1.76-2.074c-.821-.757-1.605-1.064-2.359-.91-.223.044-.85.213-1.861.504-2.326.666-3.407 1.283-3.242 1.86.488 1.702 1.271 4.22 2.364 7.568 1.082 3.343 1.875 5.857 2.354 7.53.177.615.027.985-.436 1.118-.35.1-.878.221-1.603.368-.716.144-1.244.264-1.603.367a20 20 0 0 0-1.451.508q-.965.37-1.46.511c-.463.133-.75-.01-.871-.436q-.874-3.049-2.344-9.241c-.967-4.122-1.748-7.203-2.33-9.236-.613-2.136-1.632-5.332-3.061-9.568-1.42-4.237-2.436-7.424-3.052-9.57-.116-.407.054-.67.517-.803.331-.095.85-.213 1.544-.361.697-.138 1.225-.26 1.574-.36q.5-.143 1.47-.513c.657-.24 1.141-.41 1.481-.507.416-.12.68-.02.775.31q.677 2.354 1.882 7.134c.8 3.187 1.434 5.574 1.89 7.162.206.718.383 1.158.522 1.323.246.288.673.35 1.278.176 3.583-1.027 6.019-2.452 7.294-4.25 1.088-1.591 1.807-4.15 2.178-7.674.216-2.742.435-5.476.642-8.215.043-.35.264-.65.679-.88.271-.16 1.243-.48 2.907-.957 2.023-.58 3.125-.589 3.29-.012q.144.495.01 4.847c-.103 3.385-.612 6.498-1.523 9.317-.591 1.898-1.527 3.916-2.79 6.038-.334.515-.46.93-.368 1.251.095.331 1.316 1.772 3.67 4.309 2.02 2.193 3.784 3.918 5.287 5.165 1.572 1.094 3.825 2.811 6.753 5.174.14.134.24.3.29.48zM411.762 626.374c1.117 2.452 1.783 4.245 1.984 5.396.116.564-.074.953-.566 1.177-1.298.592-3.263 1.4-5.92 2.427-2.66 1.04-4.629 1.84-5.927 2.432a296 296 0 0 0-5.44 2.576 299 299 0 0 1-5.44 2.577c-.439.2-.76.086-.96-.352-.869-1.906-2.106-4.812-3.735-8.716-1.62-3.91-2.87-6.82-3.747-8.744-.921-2.022-2.398-5.025-4.429-8.984-2.022-3.963-3.494-6.956-4.42-8.988-.175-.385-.05-.68.388-.879.313-.143.809-.336 1.478-.576s1.173-.438 1.504-.589a22 22 0 0 0 1.431-.749 22 22 0 0 1 1.43-.75c.421-.191.714-.119.865.212q1.267 2.781 3.598 8.466c1.562 3.784 2.763 6.608 3.616 8.479l1.888 4.143q1.238 2.788 1.861 4.156c1.77 3.884 2.804 5.748 3.126 5.6 6.443-2.935 11.242-5.306 14.384-7.116q.23-.138 1.122-.739c.48-.348.861-.576 1.139-.703.367-.167.62-.088.77.244M426.466 576.386c1.235 1.86 3.006 4.686 5.31 8.492 2.314 3.8 4.082 6.64 5.312 8.49q.603.91 1.837 2.712a268 268 0 0 1 1.815 2.679q3.338 5.023 3.692 7.583c.359 2.62-.617 5.203-2.917 7.747-1.407 1.561-3.657 3.363-6.746 5.415-5.594 3.717-9.88 5.23-12.86 4.53-2.295-.541-4.882-2.979-7.75-7.296q-.532-.798-1.756-2.694a285 285 0 0 0-1.945-2.982c-1.252-1.884-3.647-5.311-7.18-10.272-.87-1.311-2.25-3.228-4.12-5.74a6 6 0 0 1-.28-.37c-.224-.335-.128-.635.29-.913a234 234 0 0 1 2.678-1.744c1.305-.843 2.19-1.431 2.657-1.741.36-.24.647-.217.837.07 1.617 2.432 3.995 6.118 7.132 11.07 3.137 4.953 5.515 8.64 7.132 11.073 1.828 2.752 3.678 4.203 5.56 4.37 1.628.158 3.866-.703 6.692-2.58 2.58-1.715 4.173-3.281 4.795-4.71q1.184-2.696-1.224-6.318c-1.676-2.524-4.242-6.297-7.679-11.31q-5.166-7.51-7.688-11.305c-.168-.254-.048-.57.376-.946.308-.264.783-.58 1.441-.958q1.16-.628 1.122-.603.43-.285 1.254-.94c.554-.427.98-.745 1.267-.936.401-.266.712-.225.946.127M470.467 571.723c2.36 2.368 3.67 5.118 3.935 8.24.266 3.29-.76 6.091-3.088 8.41q-1.305 1.3-3.992 3.852a242 242 0 0 0-3.984 3.86 99 99 0 0 0-2.815 2.957q-1.84 2-2.8 2.958c-.341.34-.661.354-.974.04q-2.239-2.247-6.518-6.959c-2.839-3.14-5.011-5.46-6.504-6.958-1.568-1.575-4.005-3.88-7.303-6.898-3.291-3.024-5.721-5.322-7.297-6.904-.298-.3-.277-.612.064-.953 1.212-1.207 3.038-3.012 5.49-5.428s4.277-4.234 5.503-5.456c2.856-2.846 5.668-4.58 8.43-5.222q5.039-1.147 9.098 2.93 1.404 1.408 2.108 3.745c.463 1.551.565 2.977.305 4.263-.14.653-.162 1.022-.078 1.106.076.076.424.035 1.036-.145 1.6-.456 3.27-.439 5 .044q2.595.723 4.384 2.518m-17.403-5.997c-1.916-1.923-4.064-2.35-6.444-1.312-1.427.63-3.314 2.123-5.668 4.469-2.285 2.277-3.254 3.59-2.92 3.924a67 67 0 0 1 1.95 2.082c.853.94 1.513 1.644 1.97 2.104.313.314.806.794 1.466 1.428q.997.96 1.485 1.45c.396.396 2.13-.943 5.202-4.004 4.368-4.353 5.354-7.738 2.959-10.141m12.019 10.96c-1.652-1.658-3.516-2.037-5.583-1.143-1.314.546-2.965 1.816-4.957 3.802q-5.143 5.121-4.593 5.673l3.332 3.344q.738.74 2.277 2.201a126 126 0 0 1 2.305 2.23c.132.132.668-.194 1.608-.992.934-.805 2.264-2.061 3.978-3.77 2.152-2.144 3.414-3.957 3.8-5.451.51-1.967-.217-3.937-2.168-5.894M506.382 543.12c.181.135.135.395-.14.766q-.326.438-1.021 1.226a21 21 0 0 0-1.027 1.234q-.327.44-.908 1.372a22 22 0 0 1-.909 1.37q-.476.642-4.73-.952-4.255-1.596-5.078-.586c-.446.55-1.564 2.023-3.353 4.431l-2.714 3.656c-1.888 2.542-2.952 4.007-3.191 4.38-.364.588.388 2.065 2.255 4.419q2.796 3.529 2.416 4.036l-3.864 5.203c-.229.308-.456.384-.67.226-.158-.117-.415-.48-.801-1.098l-11.289-17.18c-.89-1.407-3.417-5.526-7.57-12.371-.664-1.167-1.715-2.854-3.153-5.074-.458-.621-.603-1.035-.439-1.256.217-.293.58-.697 1.08-1.208.501-.509.863-.914 1.08-1.206.205-.277.469-.73.812-1.357.33-.625.587-1.071.78-1.332.106-.142.539-.114 1.295.055 1.13.276 7.141 1.898 18.013 4.876q22.96 6.247 23.126 6.37m-20.777 1.304c-.45-.334-2.966-1.137-7.558-2.392q-6.681-1.84-8.915-2.198 8.656 13.853 9.237 14.283.78.584 2.231-1.074c.057-.044.628-.796 1.707-2.248l1.77-2.385q2.454-3.303 1.528-3.986M486.206 498.58c.41.613 1.067 1.49 1.951 2.646.45.435 1.061 1.13 1.825 2.079.111.18.13.352.047.53.008-.018-.692.677-2.096 2.098-1.408 1.407-2.36 2.669-2.867 3.767q-2.222 4.81 2.008 6.767c1.571.726 3.457.232 5.666-1.477 3.722-2.874 5.821-4.439 6.301-4.705q4.253-2.13 8.836-.012c3.901 1.803 6.268 4.77 7.094 8.89.735 3.708.177 7.59-1.692 11.633-.87 1.884-1.55 2.794-2.036 2.743-.694-.234-1.728-.528-3.12-.868-.589-.109-1.469-.245-2.658-.437a1.5 1.5 0 0 1-.475-.122c-.25-.115-.304-.303-.184-.562.193-.42.526-1.045 1.015-1.87.486-.816.831-1.447 1.034-1.884 2.496-5.402 2.004-8.911-1.486-10.524q-2.557-1.182-5.956 1.213c-4.103 2.925-6.222 4.416-6.353 4.464-2.791 1.375-5.682 1.372-8.682-.014-3.25-1.502-5.357-3.764-6.317-6.798-.927-2.94-.631-6.066.89-9.36.644-1.393 1.619-2.892 2.903-4.498 1.42-1.738 2.712-2.94 3.884-3.6q.17-.087.468-.098M140.184 261.473c3.168 2.753 4.956 5.81 5.373 9.178.418 3.465-.726 6.76-3.45 9.893-.666.766-1.708 1.896-3.126 3.401-1.405 1.505-2.46 2.649-3.138 3.428q-.564.65.265 1.369c.718.624 1.823 1.512 3.33 2.664 1.506 1.152 2.612 2.041 3.33 2.665.228.198.237.424.009.687-.246.282-.652.68-1.206 1.205q-.842.777-1.212 1.2c-.21.241-.502.618-.868 1.124a17 17 0 0 1-.85 1.102c-.294.338-.645.324-1.066-.042q-2.203-1.915-6.49-5.97c-2.848-2.704-5.023-4.704-6.5-5.988-4.21-3.66-8.855-7.431-13.949-11.314l-.322-.243c-.308-.245-.31-.55.007-.915.636-.731 1.59-1.816 2.876-3.267a505 505 0 0 0 2.895-3.288 95 95 0 0 0 2.395-2.922c1.056-1.312 1.856-2.288 2.401-2.916 2.592-2.982 5.724-4.549 9.414-4.71 3.606-.148 6.906 1.073 9.881 3.659zm-4.124 5.357c-2.022-1.758-4.111-2.617-6.28-2.575-2.253.028-4.237 1.042-5.97 3.036-.54.621-1.453 1.768-2.728 3.458-1.467 1.91-2.18 2.94-2.117 3.09.074.235 2.357 2.292 6.837 6.186q.846.74 2.588 2.166t2.589 2.165c.124.108.346.034.672-.203.794-.606 2.651-2.603 5.579-5.97q2.465-2.838 2.073-5.94c-.266-1.952-1.338-3.757-3.243-5.413M195.453 248.211c.121.172.004.388-.348.635q-.416.29-1.26.782c-.564.327-.992.593-1.269.788q-.417.292-1.204.943c-.522.433-.926.749-1.203.943q-.609.426-3.894-2.23-3.286-2.655-4.308-2.007c-.555.355-1.974 1.326-4.258 2.926l-3.47 2.429c-2.41 1.688-3.779 2.669-4.1 2.927-.493.412-.263 1.937.693 4.56.955 2.625 1.27 4.046.948 4.271l-4.937 3.457c-.292.205-.515.205-.657.002-.105-.15-.226-.545-.385-1.204l-4.918-18.47c-.371-1.503-1.393-5.879-3.048-13.137-.244-1.225-.675-3.021-1.293-5.402-.221-.682-.228-1.09-.018-1.238.277-.194.716-.445 1.308-.747.591-.303 1.03-.554 1.306-.748.262-.184.628-.507 1.115-.96.474-.454.832-.772 1.08-.945.135-.094.508.057 1.126.429.916.575 5.743 3.77 14.46 9.588q18.424 12.25 18.534 12.408zm-18.713-4.948c-.299-.427-2.283-1.873-5.967-4.328q-5.354-3.586-7.22-4.556 3.572 14.763 3.958 15.313.517.743 2.284-.293.096-.034 2.165-1.483l2.262-1.584q3.133-2.194 2.518-3.069M226.45 194.916q1.103 2.88 3.137 8.757 2.022 5.881 3.134 8.778 1.047 2.728 3.188 8.15c1.426 3.616 2.486 6.324 3.184 8.142.213.555.113.907-.306 1.068q-.371.142-1.156.355-.785.212-1.157.356c-.264.102-.664.284-1.19.545q-.804.397-1.2.55-.449.173-1.394-.416c-5.464-3.466-13.698-8.611-24.716-15.421-1.7-1.033-2.668-1.592-2.913-1.693q-.255.098.137 1.122c.986 2.57 2.51 6.413 4.569 11.52q3.092 7.673 4.568 11.518c.213.555.147.893-.186 1.021-.281.108-.727.25-1.327.422a18 18 0 0 0-1.336.424q-.448.172-1.302.588a18 18 0 0 1-1.31.592c-.419.16-.69.068-.817-.265-.702-1.827-1.678-4.626-2.926-8.388-1.237-3.757-2.216-6.564-2.927-8.417-.774-2.014-2.247-5.622-4.408-10.816-.557-1.353-1.433-3.378-2.61-6.06l-.15-.315c-.112-.241.032-.453.444-.63a44 44 0 0 0 2.513-1.083c.224-.105.645-.336 1.248-.704.507-.312.923-.53 1.239-.652.153-.059.504.09 1.055.427 5.855 3.796 14.737 9.379 26.637 16.75q.776.453 1.406.754c-.15-.746-.711-2.362-1.671-4.863q-1.25-3.253-3.976-9.67-2.739-6.412-3.975-9.64c-.21-.546-.153-.882.18-1.01.308-.118.77-.266 1.392-.456a19 19 0 0 0 1.396-.447c.316-.121.784-.33 1.396-.624a26 26 0 0 1 1.4-.616c.35-.134.59-.02.73.347M280.215 216.444c.035.282.013.699-.056 1.25l-.147 1.263c.034.641.023 1.592-.025 2.833-.042.327-.258.52-.63.566q-.258.032-1.02.017-3.327-.067-10.186.79c-1.298.161-3.246.432-5.84.828q-3.896.596-5.831.837c-.59.074-.912-.144-.977-.661-.247-1.988-.509-4.978-.778-8.99-.277-4.001-.54-7-.788-8.988-.25-2.014-.82-5.767-1.725-11.258-.212-1.41-.575-3.512-1.081-6.316l-.074-.368c-.069-.406.133-.634.614-.694 1.243-.155 3.108-.35 5.593-.595 2.496-.238 4.36-.433 5.604-.588 1.18-.147 2.954-.405 5.313-.772 2.36-.359 4.125-.615 5.314-.763.835-.104 1.32.093 1.457.601.663 2.286 1.026 3.724 1.096 4.287.05.409-.115.632-.505.68-1.506.188-3.803.391-6.881.609-3.071.207-5.386.413-6.928.605q-2.178.268-2.678.923-.498.659-.21 2.975l.493 3.956c.134 1.08.241 1.712.317 1.878.223.534.72.749 1.482.654.218-.027.516-.074.904-.14l.898-.113a208 208 0 0 0 9.341-1.357c1.077-.161 2.336-.41 3.788-.739.367-.082.578.057.622.411.07.563.115 1.442.125 2.63s.056 2.075.128 2.656c.04.317-.203.514-.738.58q-.314.039-2.393.105-1.501.033-6.715.68c-2.923.363-4.77.63-5.542.791q-1.05.215-1.086 1.269c.003-.12.097.559.283 2.047l.49 3.938c.23 1.843.655 2.96 1.284 3.352.491.316 1.62.36 3.39.14l2.919-.392c1.243-.154 4.702-.797 10.375-1.937l.395-.077c.35-.08.55.116.61.597M326.479 198.83c-.06.756-2.09 4.283-6.1 10.6q-3.793 5.907-7.598 11.813c-.305.499-.617.73-.936.706l-5.37-.423c-.246-.02-.48-.294-.686-.833-.046-.114-1.848-4.265-5.413-12.461-3.05-7.037-4.548-10.86-4.499-11.481.111-1.413.323-3.524.645-6.333.323-2.818.535-4.93.646-6.334q.075-.984.715-.934c.338.027.837.093 1.48.19q.964.159 1.47.198c.329.026.814.037 1.484.034q.992.007 1.474.043c.41.032.597.212.57.549-.113 1.45-.375 3.612-.795 6.496-.41 2.894-.674 5.066-.788 6.524-.096 1.213 2.233 6.826 7.004 16.833a231 231 0 0 0 5.424-8.196c2.847-4.472 4.293-7.119 4.357-7.93.11-1.395.236-3.467.362-6.237.127-2.769.243-4.833.352-6.21.028-.355.242-.513.634-.482.337.027.827.093 1.49.19.651.107 1.141.173 1.46.198.32.026.805.036 1.466.033.65.006 1.136.016 1.455.042.392.03.607.212.626.553-.01-.12-.045.217-.108 1.019-.103 1.313-.24 3.283-.411 5.92q-.255 3.945-.41 5.912M365.61 226.957q-.113.41-.523 1.138l-.611 1.114c-.21.606-.577 1.483-1.089 2.614-.162.289-.434.386-.796.289q-.252-.067-.952-.369c-2.038-.877-5.283-1.907-9.735-3.1-1.263-.339-3.17-.821-5.723-1.43-2.554-.608-4.463-1.082-5.717-1.418-.574-.154-.79-.477-.656-.98.519-1.934 1.401-4.803 2.661-8.622 1.249-3.812 2.133-6.69 2.652-8.624.525-1.961 1.41-5.652 2.637-11.08.334-1.387.788-3.471 1.374-6.258l.07-.37c.09-.402.363-.537.83-.412q1.815.49 5.407 1.553 3.6 1.079 5.412 1.564c1.149.308 2.89.736 5.214 1.283 2.322.556 4.053.983 5.21 1.293q1.22.324 1.124 1.105c-.246 2.367-.45 3.837-.597 4.384-.107.398-.344.542-.724.44q-2.2-.589-6.605-2.025c-2.923-.963-5.145-1.643-6.646-2.045-1.414-.379-2.355-.433-2.828-.153q-.71.423-1.314 2.678l-1.032 3.851c-.282 1.051-.42 1.676-.412 1.859.005.579.385.964 1.126 1.163.213.057.506.126.89.21l.875.235q5.075 1.36 9.165 2.257c1.059.255 2.319.498 3.788.74.372.062.514.27.422.614-.147.548-.436 1.38-.874 2.484s-.729 1.944-.88 2.51c-.083.308-.382.399-.903.26q-.305-.083-2.256-.804c-.936-.355-3.095-.99-6.478-1.897q-4.266-1.141-5.432-1.351-1.054-.198-1.483.767c.048-.11-.12.554-.509 2.003l-1.027 3.833c-.48 1.794-.507 2.989-.071 3.588.336.479 1.366.944 3.088 1.405l2.851.736c1.21.324 4.657 1.03 10.342 2.108l.395.078c.354.057.465.314.34.782m-2.189-45.547a3.626 3.626 0 1 1 0 7.251 3.626 3.626 0 0 1 0-7.251M401.785 242.864c-.282.554-.816 1.36-1.613 2.4-.785 1.037-1.331 1.847-1.622 2.417-.178.35-.453.426-.836.231a145 145 0 0 1-4.215-2.26 151 151 0 0 0-4.212-2.27l-11.342-5.779c-.44-.224-.625-.524-.537-.879q.831-2.933 1.5-4.254c.088-.171 4.5-2.829 13.222-7.981 8.73-5.148 13.183-7.907 13.379-8.29.09-.18-.063-.36-.462-.564l-12.719-6.48c-.318-.163-.398-.408-.236-.726.067-.13.546-.79 1.46-1.997q1.348-1.807 1.594-2.082.252-.283.728-.04.928.474 2.675 1.58c1.16.724 2.043 1.246 2.646 1.553l13.411 6.833c.294.15.394.375.323.677-.258 1.09-.742 2.342-1.456 3.743q-.069.135-13.668 8.154c-9.075 5.341-13.676 8.129-13.813 8.357.023.155.149.291.369.403 4.62 2.354 8.198 4.054 10.746 5.116q.501.194 2.288.827c.966.339 1.708.635 2.213.892.212.108.264.248.177.419m14.577-38.398c-1.407.546-3.114 1.277-5.15 2.19-1.593.892-2.772 1.635-3.546 2.247-.259.186-.496.23-.724.113l-2.502-1.274c-.212-.108-.284-.31-.237-.603.138-.936.063-2.319-.217-4.166q-.711-2.745-1.365-5.539.123-.122 1.558-.098c.953.023 1.489.06 1.62.126.48.245 1.303 2.317 2.483 6.223q.32-.053 3.126-1.179c1.575-.613 2.583-.818 3.006-.602.147.074.512.507 1.09 1.284q.882 1.17.858 1.278M450.842 252.457q-.938 1.2-8.744 3.44c-3.34.859-6.681 1.718-10.002 2.582-.833.22-1.463.61-1.902 1.172-.591.756-1.444 1.923-2.548 3.498-1.103 1.576-1.95 2.735-2.53 3.477-.197.252-.472.247-.825-.029l-5.03-3.93c-.28-.22-.26-.528.061-.938.563-.721 1.464-1.77 2.7-3.16 1.244-1.383 2.156-2.446 2.724-3.174a3.62 3.62 0 0 0 .792-2.098c.008-2.105.038-5.262.082-9.462.113-3.695.277-6.445.47-8.267.08-.622.266-1.127.576-1.523a839 839 0 0 1 5.965-7.71c.299-.382.61-.44.95-.175.237.186.573.483 1.02.89.436.41.779.713 1.017.899.28.22.716.525 1.319.926.59.403 1.032.714 1.327.945.253.197.298.406.118.637q-.92 1.177-2.9 3.444c-1.307 1.508-2.279 2.664-2.892 3.45-.66.842-.752 5.55-.265 14.136q2.982-.56 7.104-1.621 5.725-1.446 6.3-2.181c.596-.764 1.433-1.955 2.53-3.581q1.636-2.45 2.524-3.587c.299-.382.61-.44.927-.192.26.203.625.523 1.123.97q.729.674 1.11.971.399.313 1.26.88c.57.387.997.686 1.263.894q.507.396-.036 1.086-.946 1.212-2.794 3.666a282 282 0 0 1-2.794 3.665M484.204 278.024c-.673.126-1.663.365-2.976.698q-.806.338-2.444.798c-.196.028-.349-.018-.47-.154.011.014-.326-.84-1.026-2.56-.687-1.72-1.416-2.994-2.169-3.83q-3.297-3.661-6.52-.763-1.791 1.614-.812 5.384 1.637 6.348 1.712 7.109.262 4.415-3.225 7.555c-2.97 2.674-6.373 3.61-10.197 2.807-3.438-.73-6.55-2.63-9.322-5.708-1.291-1.433-1.82-2.348-1.598-2.744.454-.508 1.084-1.284 1.884-2.35.31-.462.748-1.165 1.347-2.11.079-.145.176-.27.278-.362.19-.171.371-.149.549.048.287.32.7.834 1.226 1.554q.781 1.072 1.232 1.573c3.702 4.111 6.88 4.977 9.538 2.585q1.947-1.753 1.145-5.535-1.497-6.869-1.488-7.064c-.153-2.89.909-5.359 3.192-7.415q3.709-3.342 8.123-2.909c2.853.286 5.415 1.683 7.673 4.19.955 1.06 1.88 2.443 2.782 4.129q1.449 2.774 1.654 4.638.012.177-.088.436" style="fill:#fff;fill-rule:evenodd" transform="translate(-5.335 -59.625)scale(.44097)" data-source="https://football-logos.cc"></path><!-- source: https://football-logos.cc --></svg>