<svg xmlns="http://www.w3.org/2000/svg" viewBox="43.43 33.87 1686.13 1705.07"><!-- Source: https://football-logos.cc --><path fill="#fff" fill-rule="evenodd" d="M1464.65 384.44q28.61-3.53 50.95 10.83 6.45 4.15 18.01 15.65 13.34 13.26 120.39 117.18 12.61 12.24 15.99 17.54 7.87 12.34 10.97 25.66.33 1.4 44.36 206.29 4.22 19.65 4.24 26.66c.07 23.25-11.55 45.81-30.63 59.55a.449.44 66.533 0 0-.18.47q24.32 113.78 26.09 121.55 4.71 20.75 4.71 28.41 0 17.05-6.69 32.28-2.8 6.38-12.4 19.75-104.77 145.95-107.18 149.44-5.36 7.77-8.46 10.81c-7.01 6.89-14.81 11.81-23.84 15.73a1.073 1.066-9.894 0 0-.63.89l-.31 3.68a1.843.919 73.902 0 1-.03.21q-6.08 23.25-24.3 39.5a.831.807-34.193 0 0-.2.97q13.2 26.96 5.61 54.63-1.93 7.04-9.03 21.18-62.23 123.97-74.48 148.89-7.37 14.98-12.06 20.76-10.34 12.74-22.71 19.94-118.67 69.03-183.58 106.77-7.45 4.33-13.87 6.96-8.22 3.37-14.34 6.07a2.758 2.629 30.849 0 1-.97.22q-1.08.06-13.59 0-23.84-.1-43.36-13.44a.991.983-42.608 0 0-1.05-.04q-69.8 40.31-121.12 69.75c-11.96 6.86-28.09 10.85-43 9.49q-3.58-.32-7.7-.55a4.379 3.892-31.272 0 1-1.04-.19q-23.89-7.53-193.58-61.08c-12.12-3.83-23.74-12.66-31.92-22.03a1.262 1.233-23.706 0 0-1.09-.41q-26.9 3.45-50.38-10.45a.728.722-51.306 0 0-.87.1c-14.48 13.85-34.15 22.63-54.28 21.66q-7.16-.35-9.36-.67-15.25-2.23-171.48-25.12-19.32-2.84-25.23-5.14-8.89-3.47-16.95-8.59-4.33-2.75-14.67-12.04-53.27-47.82-160.84-144.45-9.31-8.37-15.42-21.66-11.84-25.79-3.25-52.9a.936.923 30.553 0 0-.26-.98q-89.42-80.23-93.13-83.45-14.13-12.21-19.48-19.48-16.3-22.14-16.32-49.23 0-17.24-.8-181.99-.07-15.67 1.26-21.96 2.74-12.92 9.94-25.07a.839.829-44.659 0 0 .01-.84c-8.41-14.77-9.62-32.91-5.63-49.46a.763.758 21.096 0 0-.38-.85q-26.4-14.39-36.42-41.16-2.71-7.24-6.38-29.4-19.93-120.32-26.59-159.5-2.61-15.37-2.24-22.17.51-9.16 2.62-17.7 1.28-5.18 6.42-16.66 4.71-10.51 86.63-195.6c11.95-27.01 37.5-43.52 66.81-44.1a.884.868-78.155 0 0 .78-.52q40.58-90.59 54.05-120.97 5.7-12.88 9.42-18.04 10.5-14.58 26.38-23.56 6.73-3.81 23.76-9.28 56.96-18.28 188.29-60.57a6.056 5.969-55.424 0 1 1.41-.27q11.93-.77 23.07 1.67a.958.942-60.107 0 0 .86-.24q19.43-18.91 46.26-22.21a.783.778 2.034 0 0 .67-.62c3.68-17.7 12.86-33.71 26.52-45.07q5.15-4.28 22.94-13.53 136.1-70.73 143.98-74.97 15.37-8.26 23-10.36 15.68-4.31 31.16-2.71 188.57 19.52 220.23 22.98 9.91 1.08 20.6 6.17 26 12.38 36.81 39.16.85 2.12 1.96 5.06a.853.847 82.063 0 0 .71.54q101.48 10.46 126.7 12.88 16.58 1.58 24.71 4.11 26.25 8.15 41.89 29.45 31.24 42.53 108.08 147.36 8.64 11.8 11.17 17.51c3.77 8.5 5.81 17.21 7.12 26.63a.938.932-78.884 0 0 .46.69q13.31 7.66 19.51 13.76 8.38 8.23 15.51 23.46a.658.657-15.777 0 0 .68.38m-421.345-251.599c1.911-4.297-1.1-8.116-5.713-8.588q-131.517-13.541-216.347-22.271c-2.358-.242-5.178-.103-7.029.863q-72.344 37.782-160.82 84.004-4.29 2.247-5.624 4.219c-3.695 5.511-.029 12.476 6.314 13.784q437.045 90.014 442.668 91.256c6.047 1.341 6.406 8.486 1.161 11.214q-28.2 14.69-68.092 35.569c-6.822 3.572-9.004 12.58-4.473 18.764q29.135 39.808 86.929 118.633c3.726 5.08 6.4 7.047 12.118 7.395q2.539.163 10.176-3.867 14.371-7.581 218.559-114.239c5.138-2.683 8.102-4.756 9.239-10.098q1.212-5.683-1.986-10.058-49.705-67.843-113.802-155.227-3.268-4.451-8.827-5.017-216.363-22.282-228.847-23.541c-3.768-.376-6.591-1.204-7.222-4.962q-.718-4.354 3.427-6.521 26.967-14.115 33.747-17.594 3.622-1.855 4.444-3.718M594.678 249.754c-7.804-2.564-15.961 2.073-18.149 9.577q-.913 3.146.69 11.962 1.217 6.66 49.662 293.862c1.117 6.608 2.272 10.292 7.689 13.6q172.683 105.434 345.356 210.871 4.171 2.546 6.292 3.024c5.594 1.263 11.536-1.13 14.789-5.615q1.467-2.022 3.133-9.03 27.948-117.351 63.545-266.565c1.381-5.78 1.538-9.795-1.805-14.355q-21.393-29.179-85.628-116.821c-2.457-3.355-4.461-5.217-8.133-6.421q-28.192-9.294-377.441-124.089M210.513 505.316c-3.496-3.145-8.058-1.462-9.933 2.78q-53.515 120.894-88.028 198.873c-.959 2.168-1.699 4.893-1.352 6.952q13.579 80.477 30.2 178.903.812 4.774 2.275 6.653c4.1 5.216 11.856 3.882 15.06-1.746q220.649-387.836 223.568-392.8c3.143-5.337 10.049-3.47 11.023 2.361q5.257 31.359 12.789 75.748c1.289 7.593 9.182 12.451 16.462 10.053q46.862-15.409 139.686-46.018c5.982-1.973 8.679-3.909 10.776-9.239q.94-2.364-.533-10.873-2.769-16.009-41.114-243.157c-.963-5.715-2.019-9.176-6.748-11.907q-5.03-2.909-10.18-1.219-79.88 26.309-182.791 60.267-5.243 1.733-7.498 6.845-88.045 198.885-93.1 210.369c-1.522 3.468-3.181 5.897-6.951 5.336q-4.362-.663-5.143-5.275-5.091-30.008-6.305-37.531-.645-4.018-2.163-5.375m1194.517-86.033c.027-8.214-6.904-14.538-14.716-14.3q-3.273.104-11.162 4.353-5.957 3.215-264.106 138.036c-5.94 3.104-9.086 5.34-10.558 11.514q-46.902 196.797-93.81 393.586-1.132 4.753-.931 6.918c.527 5.71 4.639 10.621 9.909 12.329q2.377.77 9.556.189 120.233-9.686 273.131-21.945c5.924-.472 9.79-1.564 13.094-6.152q21.137-29.361 84.632-117.53c2.431-3.373 3.583-5.854 3.593-9.718q.127-29.682 1.368-397.28m249.848 390.494c4.678.489 7.379-3.554 6.403-8.087q-27.763-129.268-45.674-212.645c-.498-2.317-1.502-4.956-2.993-6.419q-58.289-57.129-129.59-126.993-3.463-3.386-5.751-4.045c-6.383-1.812-11.874 3.828-11.158 10.264q49.444 443.48 50 449.212c.593 6.165-6.091 8.714-10.307 4.569q-22.685-22.281-54.87-53.769c-5.506-5.385-14.747-4.676-19.228 1.544q-28.858 40.011-85.967 119.336c-3.68 5.113-4.725 8.264-3.288 13.81q.629 2.465 6.822 8.483 11.651 11.325 176.189 172.565c4.138 4.057 7.026 6.237 12.458 5.667q5.78-.603 8.953-4.998 49.164-68.237 112.466-156.202 3.223-4.483 2.043-9.945-45.667-212.663-48.328-224.926c-.806-3.7-.891-6.64 2.488-8.402q3.919-2.029 7.261 1.244 21.758 21.286 27.162 26.659 2.883 2.872 4.909 3.078M183.06 968.07c-4.85 6.63-2.96 15.82 3.5 20.22q2.71 1.84 11.59 3.04 6.71.9 294.82 43.57c6.63.98 10.49 1.02 15.31-3.11Q661.91 900.14 815.54 768.5q3.71-3.18 4.82-5.05c2.93-4.93 2.49-11.32-.77-15.8q-1.47-2.02-7.62-5.77Q709 679.04 578.09 599.08c-5.07-3.1-8.84-4.49-14.21-2.72q-34.36 11.33-137.56 45.34c-3.95 1.3-6.34 2.63-8.62 5.75q-17.55 23.94-234.64 320.62m614.17-94.17q6.42 9.52 7.73 12.69 16.79 40.51 33.86 81.92a.625.62-20.314 0 0 .77.35q9.97-3.35 16.66-3.9 15.05-1.25 85.44-6.85a.633.631-3.341 0 0 .58-.65q-.25-9.08 1.1-14.89.46-1.97 20.44-85.68a.457.442-75.009 0 0-.3-.54c-5.61-1.73-10.04-3.73-15.64-7.14q-27.39-16.61-73.86-44.6a.4.397 32.238 0 0-.54.12c-4.21 6.39-8.53 10.92-14.97 16.37q-42.54 36.03-61.15 51.92a.664.655 53.148 0 0-.12.88m-58.225 707.588c4.806 6.661 14.13 7.703 20.31 2.919q2.587-2.008 6.472-10.082 2.929-6.103 132.53-266.904c2.98-6.002 4.211-9.661 1.773-15.52q-77.726-186.777-155.443-373.55-1.878-4.511-3.313-6.144c-3.783-4.31-9.996-5.866-15.263-4.15q-2.376.774-7.842 5.464-91.576 78.505-208.065 178.29c-4.515 3.864-7.002 7.019-6.978 12.673q.158 36.176.613 144.826c.016 4.158.542 6.841 2.805 9.974q17.344 24.086 232.401 322.204m755.233-339.169c7.821-2.514 11.693-11.06 9.052-18.416q-1.111-3.081-7.59-9.271-4.899-4.672-212.914-208.52c-4.787-4.69-7.887-6.991-14.214-6.482q-201.665 16.219-403.324 32.43-4.871.392-6.868 1.253c-5.268 2.266-8.667 7.695-8.663 13.235q.002 2.499 2.774 9.147 46.374 111.357 105.292 252.985c2.28 5.488 4.513 8.828 9.898 10.552q34.457 11.028 137.938 44.165c3.96 1.27 6.675 1.598 10.353.414q28.269-9.054 378.266-121.492m-1186.91 170.085c-4.072 2.353-3.881 7.212-.426 10.305q98.437 88.256 161.932 145.178c1.766 1.582 4.129 3.127 6.194 3.434q80.733 11.956 179.477 26.566 4.791.704 7.03-.108c6.228-2.286 7.356-10.076 2.994-14.862q-300.659-329.701-304.478-334.011c-4.104-4.639-.195-10.63 5.652-9.754q31.447 4.691 75.992 11.246c7.618 1.121 14.678-4.884 14.647-12.55q-.172-49.329-.597-147.067c-.028-6.3-1.034-9.463-5.456-13.105q-1.958-1.624-10.505-2.853-16.082-2.313-243.959-36.043c-5.733-.85-9.35-.915-13.409 2.738q-4.321 3.885-4.305 9.305.335 84.099.827 192.467.028 5.521 4.193 9.246 161.939 145.197 171.299 153.553c2.827 2.52 4.624 4.848 2.925 8.26q-1.978 3.944-6.605 3.261-30.112-4.432-37.642-5.602-4.021-.628-5.78.396m892.722 188.226c.98 4.6 5.66 5.92 9.67 3.59q114.36-66.35 188.12-109.15c2.05-1.19 4.25-2.96 5.18-4.83q36.32-73.09 80.73-162.49 2.15-4.34 2.07-6.72c-.25-6.63-7.31-10.11-13.21-7.44q-406.49 184.07-411.77 186.37c-5.68 2.47-10.17-3.1-7.53-8.39q14.18-28.46 34.18-68.8c3.42-6.9-.11-15.47-7.41-17.81q-46.97-15.08-140.06-44.88c-6-1.92-9.32-1.94-14.15 1.14q-2.15 1.36-5.96 9.11-7.17 14.58-109.67 220.89c-2.58 5.19-3.76 8.61-1.54 13.6q2.36 5.31 7.52 6.97 80.09 25.67 183.31 58.69 5.26 1.68 10.09-1.13 188.14-109.15 198.98-115.47c3.27-1.91 6.04-2.9 8.76-.23q3.14 3.1 1.06 7.29-13.52 27.27-16.96 34.07-1.84 3.63-1.41 5.62" data-source="https://football-logos.cc"></path><path fill="#ea2427" fill-rule="evenodd" d="M1043.305 132.841q-.822 1.863-4.444 3.718-6.78 3.479-33.747 17.594-4.145 2.167-3.427 6.521c.631 3.758 3.454 4.586 7.222 4.962q12.484 1.259 228.847 23.541 5.559.566 8.827 5.017 64.097 87.384 113.802 155.227 3.198 4.375 1.986 10.058c-1.137 5.342-4.101 7.415-9.239 10.098q-204.188 106.658-218.559 114.239-7.637 4.03-10.176 3.867c-5.718-.348-8.392-2.315-12.118-7.395q-57.794-78.825-86.929-118.633c-4.531-6.184-2.349-15.192 4.473-18.764q39.892-20.879 68.092-35.569c5.245-2.728 4.886-9.873-1.161-11.214q-5.623-1.242-442.668-91.256c-6.343-1.308-10.009-8.273-6.314-13.784q1.334-1.972 5.624-4.219 88.476-46.222 160.82-84.004c1.851-.966 4.671-1.105 7.029-.863q84.83 8.73 216.347 22.271c4.613.472 7.624 4.291 5.713 8.588"></path><path fill="#4651a2" fill-rule="evenodd" d="M594.678 249.754q349.249 114.795 377.441 124.089c3.672 1.204 5.676 3.066 8.133 6.421q64.235 87.642 85.628 116.821c3.343 4.56 3.186 8.575 1.805 14.355q-35.597 149.214-63.545 266.565-1.666 7.008-3.133 9.03c-3.253 4.485-9.195 6.878-14.789 5.615q-2.121-.478-6.292-3.024Q807.253 684.189 634.57 578.755c-5.417-3.308-6.572-6.992-7.689-13.6q-48.445-287.202-49.662-293.862-1.603-8.816-.69-11.962c2.188-7.504 10.345-12.141 18.149-9.577"></path><path fill="#ea2427" fill-rule="evenodd" d="M210.513 505.316q1.518 1.357 2.163 5.375 1.214 7.523 6.305 37.531.781 4.612 5.143 5.275c3.77.561 5.429-1.868 6.951-5.336q5.055-11.484 93.1-210.369 2.255-5.112 7.498-6.845 102.911-33.958 182.791-60.267 5.15-1.69 10.18 1.219c4.729 2.731 5.785 6.192 6.748 11.907q38.345 227.148 41.114 243.157 1.473 8.509.533 10.873c-2.097 5.33-4.794 7.266-10.776 9.239q-92.824 30.609-139.686 46.018c-7.28 2.398-15.173-2.46-16.462-10.053q-7.532-44.389-12.789-75.748c-.974-5.831-7.88-7.698-11.023-2.361q-2.919 4.964-223.568 392.8c-3.204 5.628-10.96 6.962-15.06 1.746q-1.463-1.879-2.275-6.653-16.621-98.426-30.2-178.903c-.347-2.059.393-4.784 1.352-6.952q34.513-77.979 88.028-198.873c1.875-4.242 6.437-5.925 9.933-2.78"></path><path fill="#4651a2" fill-rule="evenodd" d="M1405.03 419.283q-1.241 367.598-1.368 397.28c-.01 3.864-1.162 6.345-3.593 9.718q-63.495 88.169-84.632 117.53c-3.304 4.588-7.17 5.68-13.094 6.152q-152.898 12.259-273.131 21.945-7.179.581-9.556-.189c-5.27-1.708-9.382-6.619-9.909-12.329q-.201-2.165.931-6.918 46.908-196.789 93.81-393.586c1.472-6.174 4.618-8.41 10.558-11.514q258.149-134.821 264.106-138.036 7.889-4.249 11.162-4.353c7.812-.238 14.743 6.086 14.716 14.3" data-source="https://football-logos.cc"></path><path fill="#ea2427" fill-rule="evenodd" d="M1654.878 809.777q-2.026-.206-4.909-3.078-5.404-5.373-27.162-26.659-3.342-3.273-7.261-1.244c-3.379 1.762-3.294 4.702-2.488 8.402q2.661 12.263 48.328 224.926 1.18 5.462-2.043 9.945-63.302 87.965-112.466 156.202-3.173 4.395-8.953 4.998c-5.432.57-8.32-1.61-12.458-5.667q-164.538-161.24-176.189-172.565-6.193-6.018-6.822-8.483c-1.437-5.546-.392-8.697 3.288-13.81q57.109-79.325 85.967-119.336c4.481-6.22 13.722-6.929 19.228-1.544q32.185 31.488 54.87 53.769c4.216 4.145 10.9 1.596 10.307-4.569q-.556-5.732-50-449.212c-.716-6.436 4.775-12.076 11.158-10.264q2.288.659 5.751 4.045 71.301 69.864 129.59 126.993c1.491 1.463 2.495 4.102 2.993 6.419q17.911 83.377 45.674 212.645c.976 4.533-1.725 8.576-6.403 8.087"></path><path fill="#4651a2" fill-rule="evenodd" d="M186.56 988.29c-6.46-4.4-8.35-13.59-3.5-20.22Q400.15 671.39 417.7 647.45c2.28-3.12 4.67-4.45 8.62-5.75q103.2-34.01 137.56-45.34c5.37-1.77 9.14-.38 14.21 2.72Q709 679.04 811.97 741.88q6.15 3.75 7.62 5.77c3.26 4.48 3.7 10.87.77 15.8q-1.11 1.87-4.82 5.05-153.63 131.64-307.26 263.29c-4.82 4.13-8.68 4.09-15.31 3.11q-288.11-42.67-294.82-43.57-8.88-1.2-11.59-3.04M739.005 1581.488q-215.057-298.118-232.401-322.204c-2.263-3.133-2.789-5.816-2.805-9.974q-.455-108.65-.613-144.826c-.024-5.654 2.463-8.809 6.978-12.673q116.489-99.785 208.065-178.29 5.466-4.69 7.842-5.464c5.267-1.716 11.48-.16 15.263 4.15q1.435 1.633 3.313 6.144 77.717 186.773 155.443 373.55c2.438 5.859 1.207 9.518-1.773 15.52q-129.601 260.801-132.53 266.904-3.885 8.074-6.472 10.082c-6.18 4.784-15.504 3.742-20.31-2.919M1494.238 1242.319q-349.997 112.438-378.266 121.492c-3.678 1.184-6.393.856-10.353-.414q-103.481-33.137-137.938-44.165c-5.385-1.724-7.618-5.064-9.898-10.552q-58.918-141.628-105.292-252.985-2.772-6.648-2.774-9.147c-.004-5.54 3.395-10.969 8.663-13.235q1.997-.861 6.868-1.253 201.659-16.211 403.324-32.43c6.327-.509 9.427 1.792 14.214 6.482q208.015 203.848 212.914 208.52 6.479 6.19 7.59 9.271c2.641 7.356-1.231 15.902-9.052 18.416"></path><path fill="#ea2427" fill-rule="evenodd" d="M307.328 1412.404q1.759-1.024 5.78-.396 7.53 1.17 37.642 5.602 4.627.683 6.605-3.261c1.699-3.412-.098-5.74-2.925-8.26q-9.36-8.356-171.299-153.553-4.165-3.725-4.193-9.246-.492-108.368-.827-192.467-.016-5.42 4.305-9.305c4.059-3.653 7.676-3.588 13.409-2.738q227.877 33.73 243.959 36.043 8.547 1.229 10.505 2.853c4.422 3.642 5.428 6.805 5.456 13.105q.425 97.738.597 147.067c.031 7.666-7.029 13.671-14.647 12.55q-44.545-6.555-75.992-11.246c-5.847-.876-9.756 5.115-5.652 9.754q3.819 4.31 304.478 334.011c4.362 4.786 3.234 12.576-2.994 14.862q-2.239.812-7.03.108-98.744-14.61-179.477-26.566c-2.065-.307-4.428-1.852-6.194-3.434q-63.495-56.922-161.932-145.178c-3.455-3.093-3.646-7.952.426-10.305M1209.72 1604.22c-4.01 2.33-8.69 1.01-9.67-3.59q-.43-1.99 1.41-5.62 3.44-6.8 16.96-34.07 2.08-4.19-1.06-7.29c-2.72-2.67-5.49-1.68-8.76.23q-10.84 6.32-198.98 115.47-4.83 2.81-10.09 1.13-103.22-33.02-183.31-58.69-5.16-1.66-7.52-6.97c-2.22-4.99-1.04-8.41 1.54-13.6q102.5-206.31 109.67-220.89 3.81-7.75 5.96-9.11c4.83-3.08 8.15-3.06 14.15-1.14q93.09 29.8 140.06 44.88c7.3 2.34 10.83 10.91 7.41 17.81q-20 40.34-34.18 68.8c-2.64 5.29 1.85 10.86 7.53 8.39q5.28-2.3 411.77-186.37c5.9-2.67 12.96.81 13.21 7.44q.08 2.38-2.07 6.72-44.41 89.4-80.73 162.49c-.93 1.87-3.13 3.64-5.18 4.83q-73.76 42.8-188.12 109.15" data-source="https://football-logos.cc"></path><!-- source: https://football-logos.cc --></svg>