<svg xmlns="http://www.w3.org/2000/svg" viewBox="27.08 131.21 733.63 809.04"><!-- Source: https://football-logos.cc --><path d="M273.178 526.052 449.79 702.707v40.272L273.18 566.324ZM59.584 227.304q0-4.576-2.29-8.569-2.286-3.996-7.056-6.515t-12.37-2.52q-3.8-.001-6.63.35-2.83.345-5.312 1.123a40 40 0 0 0-5.119 2.015v13.34q4.5-2.25 9.073-3.45 4.575-1.205 8.299-1.204 3.335 0 4.885 1.164 1.552 1.165 1.552 2.947-.001 2.172-2.288 3.49t-7.716 3.8q-4.111 1.859-7.136 4.033-3.025 2.17-4.654 5.273-1.628 3.101-1.628 7.834 0 5.348 2.638 8.955 2.636 3.605 7.329 5.432 4.69 1.82 10.895 1.822 5.43 0 9.772-1.24 4.342-1.243 7.755-2.715l-4.576-11.557a48.6 48.6 0 0 1-7.018 2.598q-3.45.969-6.397.969-2.949.001-4.267-1.006-1.317-1.01-1.317-2.56 0-1.319 1.008-2.329 1.008-1.006 3.373-2.209 2.364-1.203 6.476-3.064 4.032-1.86 6.864-3.955 2.83-2.092 4.342-5.041 1.513-2.947 1.513-7.211M113.24 210.53l-2.715 10.39H92.534l-2.792-10.39H73.3l18.07 55.604h19.932l18.302-55.604zm-5.817 22.645-2.402 9.074a506 506 0 0 0-2.483 9.889 132 132 0 0 0-1.085 4.845q-.39-1.94-1.01-4.693-.62-2.749-1.279-5.504t-1.124-4.537l-2.404-9.074zM170.837 210.517l-11.322 39.86h-.31q.155-1.549.309-4.187t.31-5.738q.155-3.103.156-5.892v-24.043h-13.262v55.373h19.931l11.556-39.32h.31l11.322 39.32h19.932v-55.373h-13.727v24.273q0 2.559.078 5.584.076 3.025.193 5.7.115 2.677.272 4.228h-.311l-11.167-39.785zM257.348 210.517h-14.967v43.119h-13.494v12.254h41.955v-12.254h-13.494zM308.026 265.89q22.568 0 22.568-16.364-.001-5.044-2.522-8.763-2.52-3.725-6.863-6.127l16.13-24.12h-16.983l-11.71 20.165h-3.8v-20.164h-14.968v55.373zm-.232-11.323h-2.947v-12.64h2.79q3.413-.001 5.624 1.511t2.21 5.391q0 2.634-1.823 4.188c-1.214 1.03-3.167 1.55-5.854 1.55M386.43 210.517h-32.882v55.373h32.882v-12.02h-17.914v-8.687h16.596V233.16h-16.596v-10.467h17.914zM454.288 239.364q0-9.616-3.605-16.05-3.608-6.44-10.121-9.616-6.515-3.18-15.356-3.181h-17.915v55.373h19.156q13.34 0 20.59-6.825 7.251-6.825 7.251-19.7m-15.51-.542q-.001 14.969-12.175 14.969h-4.343v-31.021h3.334q6.824-.001 10.004 3.953c2.12 2.636 3.18 6.672 3.18 12.1M500.89 210.517h-28.849v8.53l6.902 2.638V254.8l-6.902 2.558v8.532h28.85v-8.532l-6.903-2.558v-33.115l6.903-2.637zM554.663 210.53l-2.715 10.39h-17.992l-2.79-10.39h-16.442l18.07 55.604h19.93l18.303-55.604zm-5.817 22.645-2.403 9.074q-.387 1.473-1.087 4.225-.697 2.753-1.395 5.664a133 133 0 0 0-1.085 4.845q-.39-1.94-1.01-4.693-.62-2.749-1.28-5.504a230 230 0 0 0-1.123-4.537l-2.403-9.074zM243.26 136.825h-7.048v31.817q0 2.553.067 4.597.068 2.048.2 3.996a22 22 0 0 0-1.812-1.746q-.939-.805-2.146-1.812l-5.236-4.229-3.625 4.565 13.693 10.74h5.908zM291.912 164.327q0-4.096-.57-8.154c-.38-2.71-1.052-5.258-2.014-7.654a20.9 20.9 0 0 0-3.994-6.377q-2.552-2.785-6.512-4.362t-9.531-1.578q-1.342.001-3.189.135-1.846.135-2.985.469v5.976q1.275-.404 2.852-.605a24 24 0 0 1 3.053-.201q4.633-.002 7.652 1.377c2.015.914 3.602 2.203 4.766 3.857q1.746 2.484 2.551 5.74.805 3.255.94 7.014h-.403q-1.478-2.282-4.094-3.926-2.619-1.647-7.048-1.646-6.175 0-9.935 3.86c-2.506 2.575-3.759 6.186-3.759 10.843q0 7.582 4.228 11.947 4.23 4.362 11.346 4.363 4.632 0 8.423-2.283 3.793-2.282 6.008-6.947 2.215-4.666 2.215-11.848m-16.579 15.238q-3.826 0-6.243-2.55-2.416-2.55-2.416-7.787-.001-4.295 2.08-6.782 2.08-2.483 6.31-2.482 2.952 0 5.135 1.207 2.18 1.21 3.357 3.09 1.174 1.879 1.174 3.892 0 2.685-1.04 5.303-1.041 2.62-3.155 4.363-2.116 1.746-5.202 1.746M328.467 173.74q-.001-4.902-2.754-7.788-2.752-2.886-7.25-3.826v-.268q5.707-.673 8.593-3.625t2.887-7.652q0-4.162-1.98-7.416-1.983-3.26-6.109-5.103-4.128-1.845-10.573-1.846-3.825.001-7.115.605a24.8 24.8 0 0 0-6.241 2.014v6.445a28 28 0 0 1 6.51-2.351q3.49-.806 6.579-.807c4.115 0 7.06.772 8.826 2.316s2.652 3.706 2.652 6.479q0 4.029-3.222 5.906-3.225 1.879-9.666 1.88h-4.364v5.839h4.43q6.107 0 8.86 2.283t2.754 5.975c0 2.148-.705 3.812-2.116 5q-2.115 1.779-6.074 1.78-3.692 0-6.41-1.177a33 33 0 0 1-5.068-2.718l-3.49 4.902q2.682 2.013 6.442 3.455 3.759 1.444 8.728 1.443 7.449.001 11.31-3.256 3.86-3.255 3.86-8.49M336.727 157.28q0 4.161.569 8.19a32.6 32.6 0 0 0 2.015 7.617 20.9 20.9 0 0 0 3.994 6.377q2.55 2.786 6.477 4.365 3.926 1.576 9.498 1.576 1.41 0 3.188-.101 1.78-.1 2.92-.436v-5.974q-1.276.4-2.785.603a22 22 0 0 1-2.986.203q-4.632 0-7.653-1.41t-4.766-3.894q-1.744-2.483-2.55-5.772-.807-3.29-1.007-7.049h.401q1.476 2.351 4.162 3.994 2.685 1.645 6.915 1.645 6.242.001 10.034-3.86t3.794-10.906q-.001-7.52-4.196-11.883-4.197-4.363-11.377-4.363-4.631 0-8.425 2.283-3.791 2.281-6.008 6.948-2.214 4.662-2.214 11.847m16.58-15.17q3.825 0 6.242 2.516 2.418 2.517 2.418 7.822-.001 4.227-2.116 6.71c-1.41 1.655-3.525 2.488-6.343 2.488q-2.887-.001-5.035-1.211t-3.356-3.09q-1.207-1.876-1.207-3.824 0-2.687 1.073-5.336 1.072-2.652 3.155-4.364 2.08-1.71 5.17-1.71M273.178 500.06v-40.272l156.896 156.93v40.273z" style="fill:#263080;fill-opacity:1;fill-rule:nonzero;stroke:none" transform="matrix(1.33333 0 0 -1.33333 -.667 1121.853)" data-source="https://football-logos.cc"></path><path d="M277.523 438.151c-15.21-15.254-28.245-15.54-37.904-14.085-6.772 1.02-21.507 6.915-28.81 21.93-2.942 6.05-3.896 12.248-4.054 17.247.058 6.63-.311 14.772-6.676 23.573-5.104 7.06-13.468 11.08-13.468 11.08s4.345 4.344 6.19 10.209c1.847 5.865 4.672 8.907 9.568 9.5 4.726.572 10.226-1.624 14.298-5.172 5.99-5.22 8.3-9.267 8.208-21.11l-.004-.27h28.484l.003.325c.084 15.914-3.167 29.616-17.978 42.524-18.268 15.922-45.944 16.781-60.445-.326-5.262-6.207-7.777-12.586-8.847-18.195l-24.227-27.153s25.774-12.423 29.76-14.337c5.432-2.607 6.41-5.104 6.626-6.409.218-1.302-.155-3.141.14-7.381.547-7.854 2.252-17.184 6.813-26.561 11.885-24.441 35.028-35.355 50.18-37.635s38.613-1.63 62.285 22.112l113.673 113.705v40.274zM273.178 367.532V327.26l66.473 66.486v40.274z" style="fill:#263080;fill-opacity:1;fill-rule:nonzero;stroke:none" transform="matrix(1.33333 0 0 -1.33333 -.667 1121.853)" data-source="https://football-logos.cc"></path><!-- source: https://football-logos.cc --></svg>