<svg xmlns="http://www.w3.org/2000/svg" fill="none" viewBox="0.66 0 60 60"><!-- Source: https://football-logos.cc --><path fill="#000" d="M60.658 8.923V0h-60v8.923h6.504V6.529h20.244v6.093H13.558v14.58h6.503V19.15h7.345v27.694l3.252 1.613 3.252-1.613V19.15h20.244v15.504c-.006.25-.21 6.424-5.873 9.294-5.913 2.995-14.303 7.142-17.623 8.78-3.32-1.638-11.71-5.785-17.622-8.78-5.573-2.824-5.86-8.877-5.874-9.31V12.623H.658v22.081c.004.422.196 10.386 9.447 15.073 7.518 3.809 19.007 9.464 19.122 9.52l1.431.704 1.431-.704c.116-.056 11.604-5.711 19.122-9.52 9.251-4.687 9.443-14.65 9.447-15.073v-22.08h-3.126v-.001H33.91V6.529h20.244v2.394z" data-source="https://football-logos.cc"></path><!-- source: https://football-logos.cc --></svg>