<svg xmlns="http://www.w3.org/2000/svg" xmlns:xlink="http://www.w3.org/1999/xlink" id="svg2" version="1.1" viewBox="0 0 308.24 400"><!-- Source: https://football-logos.cc --><defs id="defs4" data-source="https://football-logos.cc"><clipPath id="clipPath5029" clipPathUnits="userSpaceOnUse"><path id="rect5031" d="M271.352-790.086h53.714v94.857h-53.714z" style="fill:#00f;fill-rule:evenodd;stroke:#000;stroke-width:.80000001px;stroke-linecap:butt;stroke-linejoin:miter;stroke-opacity:1" transform="scale(1 -1)"></path></clipPath><clipPath id="clipPath2999" clipPathUnits="userSpaceOnUse"><path id="path3001" d="M0 0h595.276v841.89H0z"></path></clipPath><clipPath id="clipPath3007" clipPathUnits="userSpaceOnUse"><path id="path3009" d="M0 0h595.278v841.887H0z"></path></clipPath><clipPath id="clipPath3017" clipPathUnits="userSpaceOnUse"><path id="path3019" d="M-8.505-8.505h612.288v858.897H-8.505z" style="clip-rule:evenodd"></path></clipPath><clipPath id="clipPath3025" clipPathUnits="userSpaceOnUse"><path id="path3027" d="M-44.073 850.392h683.424V-8.505H-44.073z"></path></clipPath><clipPath id="clipPath3033" clipPathUnits="userSpaceOnUse"><path id="path3035" d="M595.278 841.887H0V0h595.278zM46.35 650.034h505.917V578.52H46.35z"></path></clipPath><clipPath id="clipPath3045" clipPathUnits="userSpaceOnUse"><path id="path3047" d="M8.505 700.155h578.268v85.041H8.505z" style="clip-rule:evenodd"></path></clipPath><clipPath id="clipPath3153" clipPathUnits="userSpaceOnUse"><path id="path3155" d="M29.763 28.962h110.16v45.126H29.763z" style="clip-rule:evenodd"></path></clipPath><clipPath id="clipPath3161" clipPathUnits="userSpaceOnUse"><path id="path3163" d="M.938 2.957h1v1h-1z"></path></clipPath><clipPath id="clipPath3173" clipPathUnits="userSpaceOnUse"><path id="path3175" d="M552.267 650.034H46.35V578.52h505.917z"></path></clipPath><clipPath id="clipPath3181" clipPathUnits="userSpaceOnUse"><path id="path3183" d="M46.162 578.346h506.327v72.006H46.162z"></path></clipPath><clipPath id="clipPath3201" clipPathUnits="userSpaceOnUse"><path id="path3203" d="M433.701 35.901h153.072v30.717H433.701z"></path></clipPath><clipPath id="clipPath3289" clipPathUnits="userSpaceOnUse"><path id="path3291" d="M481.321 50.262a3.113 3.113 0 1 0 4.402 4.402 3.113 3.113 0 0 0-4.402-4.402"></path></clipPath><clipPath id="clipPath3305" clipPathUnits="userSpaceOnUse"><path id="path3307" d="M481.292 50.188a3.2 3.2 0 0 0-.608.848 3.025 3.025 0 0 1 4.275 4.276 3.192 3.192 0 1 0-3.667-5.124"></path></clipPath><clipPath id="clipPath3313" clipPathUnits="userSpaceOnUse"><path id="path3315" d="M481.321 50.262a3.113 3.113 0 1 0 4.402 4.402 3.113 3.113 0 0 0-4.402-4.402"></path></clipPath><clipPath id="clipPath3323" clipPathUnits="userSpaceOnUse"><path id="path3325" d="M481.321 50.262a3.113 3.113 0 1 0 4.402 4.402 3.113 3.113 0 0 0-4.402-4.402"></path></clipPath><linearGradient id="stop0"><stop id="stop3450" offset="0" stop-color="#00aaec"></stop><stop id="stop3452" offset="1" stop-color="#0076d0"></stop></linearGradient><linearGradient xlink:href="#stop0" id="linearGradient1" x1="255.67" x2="641.65" gradientUnits="userSpaceOnUse"></linearGradient><linearGradient xlink:href="#stop0" id="linearGradient2" x1="725.2" x2="861.7" gradientUnits="userSpaceOnUse"></linearGradient><style id="style2989" type="text/css">.fil1{fill:#272624}.fil3{fill:#fe1b22}.fil2{fill:#fefefe}</style></defs><g id="layer1" transform="translate(-.529 -307.81)" data-source="https://football-logos.cc"><g id="layer1-3" transform="matrix(.68924 0 0 .68924 .528 -17.489)"><g id="g3096" style="fill-rule:evenodd" transform="matrix(3.5433 0 0 3.5433 -.077 -.002)"><g id="Слой_x0020_1"><path id="path2993" d="M60.834 140.126c.91-2.268 1.425-4.67 2.374-6.925.889 2.272 1.39 4.678 2.342 6.922 2.438-.06 4.876-.04 7.313-.043-1.88 1.644-3.968 3.034-5.958 4.544.73 2.37 1.577 4.706 2.272 7.09-2.113-1.241-3.962-2.881-5.98-4.264-2.025 1.386-3.88 3.023-5.986 4.279.663-2.402 1.598-4.724 2.275-7.123-2.029-1.46-4.057-2.92-6.015-4.473 2.452-.095 4.91-.074 7.363-.007z" style="fill:#e4b669"></path><path id="path2995" d="M46.69 184.008c5.511-11.138 10.912-22.334 16.51-33.426a11747 11747 0 0 0 16.454 33.433c11.9-1.591 23.799-3.154 35.698-4.71a25009 25009 0 0 0-26.144 34.544c-1.337.141-2.668.307-4.001.462-2.067 5.768-6.438 10.668-11.96 13.332-5.245 2.59-11.472 3.122-17.067 1.386-7.023-2.05-12.855-7.62-15.356-14.481-1.249-.424-2.766-.244-3.87-.96-8.689-11.395-17.29-22.867-25.971-34.265 11.906 1.513 23.805 3.122 35.708 4.685" class="fil1" style="fill:#272624"></path><path id="path2997" d="M63.127 153.344c5.535 10.915 10.791 21.985 16.294 32.918.448-.343.667-1.041 1.26-1.158 10.633-1.4 21.269-2.811 31.905-4.208-7.821 10.4-15.713 20.75-23.548 31.143-.236.236-.402.635-.78.674-1.29.271-2.74.092-3.944.568-.945 2.438-2.06 4.833-3.718 6.875-3.298 4.234-8.153 7.25-13.434 8.238-6.515 1.313-13.578-.554-18.62-4.883-3.114-2.596-5.393-6.088-6.794-9.877-1.132-.766-2.914-.342-4.078-1.126-8.004-10.498-15.935-21.06-23.925-31.573 10.731 1.326 21.445 2.811 32.166 4.212.392.345.667.801.984 1.217 5.394-11.017 10.859-21.996 16.232-33.02" class="fil2" style="fill:#fefefe"></path><path id="path2999" d="m63.063 157.673.184-.018c4.47 8.975 8.861 17.996 13.303 26.984.219.498.554.963.628 1.514-.176.557-.505 1.051-.832 1.53-4.957-3.58-11.424-4.96-17.417-3.799-3.27.572-6.34 1.976-9.077 3.828-.247-.734-1.006-1.513-.473-2.293 4.586-9.236 9.109-18.507 13.684-27.746" class="fil3" style="fill:#fe1b22"></path><path id="path3001-7" d="M29.835 158.947c4.42.014 8.848-.025 13.272.025-.858.867-1.81 1.63-2.713 2.44 1.933-.126 4.007.234 5.468 1.596 2.86 2.497 3.1 7.694-.064 10.043-1.563 1.252-3.662 1.002-5.531 1.005.906 1.07 1.919 2.04 2.854 3.087-4.452.028-8.901.014-13.353 0 .956-1.016 1.947-2.003 2.847-3.076-1.82-.05-3.884.275-5.422-.931-2.713-1.849-3.143-5.878-1.485-8.566a6.62 6.62 0 0 1 3.845-2.97c.268.201.54.41.808.614-2.918.278-5.034 3.182-4.897 6.018-.078 2.24 1.443 4.61 3.729 5.038 1.68.264 3.39.07 5.084.134-.953 1.033-1.948 2.025-2.9 3.058 3.386.014 6.77-.014 10.153.018-.946-1.023-1.891-2.05-2.816-3.09 2.325-.141 5.109.582 7-1.175 2.734-2.508 1.975-7.518-1.193-9.331-1.767-1.076-3.916-.674-5.877-.776.882-.847 1.81-1.64 2.723-2.452-3.27-.028-6.54.025-9.807-.024.861.829 1.732 1.643 2.593 2.472-1.351-.169-3.062.558-4.092-.62.79-.04 1.587-.06 2.381-.074-.878-.812-1.76-1.62-2.607-2.463" class="fil1" style="fill:#272624"></path><path id="path3003" d="M81.171 159.299c7.465-.018 14.933.007 22.398-.01-2.967 2.578-5.944 5.15-8.9 7.743 3.189 3.386 6.417 6.734 9.581 10.15-7.68.045-15.36-.033-23.04.038.695-1.831 1.86-3.443 2.642-5.235.089-2.544.078-5.105.004-7.652-.79-1.729-1.831-3.334-2.685-5.034" class="fil1" style="fill:#272624"></path><path id="path3005" d="M82.297 159.97c3.115.007 6.23-.007 9.345.014-.77 1.432-1.658 2.819-2.265 4.332 0 .205.007.61.007.815 1.316-.589 2.399-1.577 3.514-2.47q-.009-1.35.056-2.695c2.928.022 5.856 0 8.78.015-2.687 2.317-5.368 4.65-8.046 6.985 2.974 3.21 6.011 6.357 9.014 9.535-6.82.007-13.636 0-20.455.004.78-1.45 1.63-2.868 2.29-4.378.046-2.699.113-5.412-.035-8.107-.674-1.379-1.486-2.691-2.205-4.05z" class="fil2" style="fill:#fefefe"></path><path id="path3007" d="M33.222 160.305c2.134-.01 4.265-.021 6.396 0-.854.854-1.778 1.63-2.653 2.462 2.677.223 5.937-.769 8.078 1.341 2.537 2.233 2.276 7.26-1.157 8.463-2.215.367-4.49.074-6.73.176.97 1.01 1.929 2.036 2.888 3.055-2.38.022-4.762.029-7.143.008.903-1.059 1.905-2.025 2.832-3.063-2.2-.08-4.423.152-6.614-.14-2.148-.565-3.288-2.996-2.981-5.088.201-2.377 2.159-4.635 4.625-4.734 1.672-.07 3.351.01 5.027-.042-.872-.797-1.757-1.58-2.568-2.438" class="fil1" style="fill:#272624"></path><path id="path3009-0" d="M93.571 160.626c2.114 0 4.23.007 6.343-.01-2.29 2.183-4.745 4.187-7.13 6.268 2.696 3.066 5.635 5.913 8.354 8.957-2.825.007-5.651.028-8.476-.014.507-1.055.998-2.117 1.506-3.168-1.253-1.143-2.388-2.409-3.68-3.503-.554-.215-1.178-.095-1.76-.145.021 1.143-.053 2.29.035 3.43.497 1.188 1.245 2.254 1.849 3.39-2.424.035-4.851.024-7.278.007.624-1.225 1.404-2.382 1.873-3.68.007-2.727.074-5.46-.025-8.184-.5-1.164-1.227-2.216-1.792-3.348 2.385.004 4.774-.003 7.158.004-.765 1.62-2.145 3.1-1.852 5.023q.668-.004 1.34-.003a341 341 0 0 1 3.415-2.508c.015-.84.046-1.679.12-2.515z" class="fil1" style="fill:#272624"></path><path id="path3011" d="M90.45 163.66c.585-1.122 1.185-2.24 1.802-3.344-.095.702.067 1.474-.215 2.141-.476.466-1.04.83-1.588 1.203" class="fil2" style="fill:#fefefe"></path><path id="path3013" d="M29.542 165.963c.914-2.028 3.521-1.097 5.25-1.28.028 2.053.01 4.106.003 6.163-1.355-.04-2.72.08-4.064-.106-1.838-.717-1.7-3.228-1.189-4.777" class="fil2" style="fill:#fefefe"></path><path id="path3015" d="M38.048 164.668c1.33.057 2.688-.137 4 .117 1.415.444 1.63 2.152 1.56 3.422-.004 1.026-.438 2.243-1.535 2.532-1.334.201-2.692.067-4.036.089 0-2.054-.014-4.107.01-6.16" class="fil2" style="fill:#fefefe"></path><path id="path3017" d="M30.34 165.833c1.002-.952 2.564-.367 3.806-.522.004 1.626-.003 3.25.01 4.875-1.248-.165-2.797.413-3.83-.472-.664-1.15-.614-2.724.014-3.88z" class="fil1" style="fill:#272624"></path><path id="path3019-4" d="M38.697 165.311c1.291.197 3.207-.586 3.986.833.328 1.238.618 3.058-.589 3.919-1.111.24-2.268.088-3.397.116-.004-1.623-.007-3.245 0-4.868" class="fil1" style="fill:#272624"></path><path id="path3021" d="M39.406 166.03c.818.046 1.693-.155 2.473.173.533 1.009.444 2.29-.064 3.291q-1.211-.008-2.413.007.007-1.736.004-3.471z" class="fil2" style="fill:#fefefe"></path><path id="path3023" d="M30.94 166.221c.737-.36 1.643-.12 2.444-.215.056 1.16.05 2.325.05 3.489q-1.24.002-2.48-.036c-.417-1.015-.523-2.236-.015-3.238" class="fil2" style="fill:#fefefe"></path><path id="path3025" d="M89.38 169.65c.462-.021.91.106 1.221.473.949.875 1.856 1.795 2.798 2.685-.593 1.178-1.118 2.384-1.662 3.587-.86-1.263-1.591-2.614-2.279-3.976-.23-.896-.074-1.848-.078-2.769" class="fil1" style="fill:#272624"></path><path id="path3027-7" d="M90.05 170.595c.826.766 1.63 1.556 2.453 2.325-.265.67-.558 1.333-.854 1.993-.723-1.365-1.888-2.656-1.598-4.318" class="fil2" style="fill:#fefefe"></path><path id="path3029" d="M84.632 231.933c13.72-17.61 27.407-35.25 41.106-52.878q.275.382.498.8c-.36.989-.94 1.881-1.352 2.848l-.977.183.145-.578c-1.285 1.559-2.198 3.348-3.098 5.14-9.38 14.845-18.845 29.637-28.257 44.464q2.248.02 4.497.007c3.634-6.632 7.24-13.282 10.852-19.925 5.242-9.726 10.63-19.378 15.794-29.146q.312.273.624.547c-8.897 16.136-17.586 32.388-26.462 48.538 3.55-.017 7.098.029 10.644-.035.063 3.16.004 6.325.017 9.49 3.82.028 7.638-.007 11.459.014-1.122 6.11-2.167 12.235-3.221 18.355-8.583.053-17.17.004-25.757.021.522-2.741.946-5.496 1.478-8.237-1.76-.007-3.52-.029-5.28.017-6.139 11.395-12.362 22.747-18.532 34.128-2.12 3.757-3.972 7.67-6.3 11.303h-.152c-8.079-15.148-16.122-30.314-24.211-45.452a391 391 0 0 0-4.452.011c.571 2.73.934 5.496 1.499 8.223-8.58.021-17.163-.003-25.742.007-1.087-6.128-2.135-12.266-3.235-18.394 3.097.014 6.194.028 9.288-.007-.035-3.154-.017-6.304-.014-9.458 4.075.021 8.15.014 12.22.004-8.477-15.974-17-31.927-25.484-47.9-.766-1.482-1.694-2.893-2.205-4.495 5.119 6.406 10.072 12.95 15.138 19.4 8.537 11.006 17.099 21.995 25.636 33.002q21.918-.005 43.836.004z" class="fil1" style="display:inline;fill:#272624"></path><path id="path3031" d="M17.276 183.211c9.225 1.203 18.447 2.445 27.672 3.63a108 108 0 0 1 2.127 3.225c-5.503 5.365-8.085 13.581-6.396 21.11-.536-.106-1.15-.124-1.435-.674-7.32-9.098-14.616-18.218-21.968-27.291" class="fil3" style="fill:#fe1b22"></path><path id="path3033" d="M81.5 186.855c9.175-1.245 18.358-2.438 27.54-3.644-7.023 8.685-14.001 17.406-21.01 26.098-.674.77-1.179 1.92-2.379 1.884 1.62-7.546-.85-15.776-6.416-21.131.793-1.038 1.326-2.3 2.264-3.207" class="fil3" style="fill:#fe1b22"></path><path id="path3035-9" d="M58.435 186.431c4.96-1.189 10.375-.466 14.81 2.075 4.092 2.296 7.309 6.081 8.953 10.473 1.743 4.594 1.887 9.832.162 14.454-1.697 4.65-5.193 8.6-9.57 10.9-4.498 2.435-9.928 3.02-14.87 1.747-5.338-1.383-10.023-5.052-12.683-9.874-2.314-4.124-3.192-9.077-2.272-13.73 1.584-7.691 7.881-14.119 15.47-16.045" class="fil1" style="fill:#272624"></path><path id="path3037" d="M66.774 186.932c5.144.974 9.829 4.029 12.736 8.386-1.217.006-2.431.006-3.648.038-1.037-1.622-2.568-2.829-4.102-3.944-.996-.695-2.026-1.41-3.246-1.637a97 97 0 0 1-1.74-2.843" class="fil2" style="fill:#fefefe"></path><path id="path3039" d="M47.181 194.898c2.635-3.418 6.24-6.142 10.39-7.422-.276.945-.55 1.887-.84 2.829-2.364.797-4.502 2.166-6.315 3.866-.988.484-2.17.448-3.235.727" class="fil2" style="fill:#fefefe"></path><path id="path3041" d="M63.039 193.049c1.735-.868 3.503-1.676 5.214-2.593 1.781.388 3.185 1.63 4.579 2.724.998.768 1.824 1.728 2.547 2.758.056 1.94.127 3.884.134 5.828-2.149.625-4.31 1.267-6.325 2.258-1.8-1.443-3.659-2.812-5.437-4.276-.533-2.166-.455-4.476-.713-6.699" class="fil2" style="fill:#fefefe"></path><path id="path3043" d="M7.825 190.781c1.355 1.506 2.501 3.179 3.761 4.763 9.433 12.114 18.828 24.267 28.293 36.36-2.004.025-4.008.018-6.012.01-8.678-13.712-17.342-27.435-26.042-41.133" class="fil2" style="fill:#fefefe"></path><path id="path3045" d="M50.974 194.768c1.52-1.595 3.453-2.797 5.517-3.549 1.976.515 3.877 1.288 5.82 1.909.089 2.173.354 4.332.512 6.501a476 476 0 0 0-5.669 3.916c-2.117-.66-4.184-1.464-6.233-2.31-.064-2.156.042-4.312.053-6.467" class="fil2" style="fill:#fefefe"></path><path id="path3047-1" d="M47.107 205.46a108 108 0 0 0 3.44-3.63c2.039 1.002 4.212 1.68 6.332 2.476.61 2.258 1.214 4.52 1.909 6.75-1.514 1.756-2.914 3.626-4.054 5.65a417 417 0 0 0-5.82-1.453c-1.683-2.935-1.807-6.487-1.807-9.793" class="fil2" style="fill:#fefefe"></path><path id="path3049" d="M69.385 204.744a38.6 38.6 0 0 1 6.473-2.272c1.161 1.372 2.343 2.724 3.5 4.1-.085 3.241-1.196 6.554-3.665 8.762-1.828.438-3.648.893-5.458 1.394-1.16-1.704-2.099-3.549-3.249-5.26.766-2.254 1.591-4.487 2.399-6.724" class="fil2" style="fill:#fefefe"></path><path id="path2" d="m124.884 182.703-.977.183.145-.578c-1.285 1.559-2.198 3.348-3.098 5.14-9.38 14.845-18.845 29.637-28.257 44.464q2.248.02 4.497.007c3.634-6.632 7.24-13.282 10.852-19.925 5.242-9.726 10.63-19.378 15.794-29.146q.312.273.624.547c-8.897 16.136.833-1.659.42-.692" class="fil1" style="display:inline;fill:#fff;fill-opacity:1"></path><path id="path3051" d="M43.622 202.991c.92.857 1.834 1.722 2.787 2.55-.149 3.493.2 7.197 1.908 10.298-.028 1.023-.236 2.029-.402 3.038-3.528-4.41-5.26-10.284-4.293-15.886" class="fil2" style="fill:#fefefe"></path><path id="path3053" d="M80.039 206.564a76 76 0 0 1 2.624-2.794c.777 5.662-.994 11.709-5.002 15.826-.473-1.306-.857-2.643-1.298-3.958 2.586-2.213 3.711-5.75 3.676-9.074" class="fil2" style="fill:#fefefe"></path><path id="path3055" d="M59.359 211.599c2.332.035 4.688.095 7.017.286 1.129 1.735 2.11 3.566 3.239 5.306-.809 1.35-1.553 2.734-2.353 4.088-.47.999-1.74.95-2.664 1.147-1.947.138-4.107.31-5.863-.681-1.217-1.429-2.163-3.066-3.334-4.533 1.005-2.054 2.406-3.937 3.958-5.613" class="fil2" style="fill:#fefefe"></path><path id="path3057" d="M55.355 224.408c.84-.804 1.849-1.397 2.808-2.05 2.579 1.26 5.606 1.228 8.322.438 1.238.62 2.463 1.27 3.7 1.898-4.74 1.827-10.156 1.686-14.83-.286" class="fil2" style="fill:#fefefe"></path><path id="path1" d="M84.632 231.933c13.72-17.61 27.407-35.25 41.106-52.878q.275.382.498.8c-.36.989-1.193 2.669-1.79 3.564-.315-.17-.409-.395-.635-.49l.24-.621c-1.284 1.559-2.197 3.348-3.097 5.14-9.38 14.844-18.845 29.636-28.257 44.464q2.248.02 4.497.007c3.634-6.632 7.24-13.282 10.852-19.925 5.242-9.726 10.63-19.378 15.794-29.146.208.183.377.416.585.6-8.897 16.136-17.547 32.335-26.423 48.485 3.55-.017-27.982-.007-13.37 0v-1.646z" class="fil1" style="display:inline;fill:#272624"></path><path id="path3059" d="M16.394 232.674c30.484.032 60.967.024 91.447.007.141 5.997.1 12.002.074 18.003-30.54.042-61.08.02-91.62.014.057-6.008-.134-12.023.1-18.024z" class="fil3" style="fill:#fe1b22"></path><path id="path3061" d="M67.163 235.693c4.116-1.295 8.635 2.727 7.997 6.943-.25 3.087-3.337 5.288-6.297 5.281-2.84.13-5.599-1.888-6.4-4.6-.793-3.26 1.493-6.795 4.7-7.624" class="fil2" style="fill:#fefefe"></path><path id="path3063" d="M23.489 235.835c2.663.017 5.33.02 7.994-.007-.501.748-1.03 1.475-1.577 2.19.8 1.758 1.51 3.557 2.268 5.335.533 1.517 1.718 2.794 3.076 3.609-.402.187-.776.518-1.256.42-2.395-.011-4.787-.011-7.182-.025.698-.89 1.848-1.496 2.279-2.54l-.226-.61a99 99 0 0 1-3.976-.008c-.677 1.362 1.185 2.166 1.775 3.193-2.11-.053-4.223-.014-6.333-.029.9-1.245 1.993-2.388 2.512-3.859.71-1.83 1.542-3.612 2.233-5.447-.395-.829-1.055-1.485-1.587-2.222" class="fil2" style="fill:#fefefe"></path><path id="path3065" d="M36.802 238.421a72 72 0 0 1-1.82-2.565q3.518.047 7.041.004c-.673 1.252-2.06 2.243-1.873 3.81 1.489.32 2.727-.575 3.867-1.393.229-.77.042-1.606.077-2.4a998 998 0 0 1 5.74 0c-1.602 1.546-3.348 2.94-4.886 4.555 2.459 2.847 4.805 5.789 7.225 8.671-1.556.01-3.112-.01-4.667.025l-.01-1.753q-1.637.004-3.268 0 .026-1.19.078-2.375a99 99 0 0 0-2.184-2.79c-.642-.007-1.28-.018-1.922-.021.014.867-.078 1.746.053 2.607.451.913 1.083 1.725 1.63 2.586-2.255.021-4.513-.064-6.763.063.331-1.012 1.076-1.792 1.601-2.695.187-2.095.025-4.22.081-6.329z" class="fil2" style="fill:#fefefe"></path><path id="path3067" d="M50.081 235.841c3.81.01 7.624-.01 11.434.01.045 1.853.134 3.708.165 5.564a315 315 0 0 0-2.564-3.492c-.533 0-1.062.003-1.595.007-.021 1.802.01 3.609-.01 5.411-.378 1.856 1.622 2.752 2.55 4.043-2.854-.01-5.708-.007-8.562 0 .836-.878 1.672-1.764 2.498-2.65-.004-2.275 0-4.553-.004-6.829-.518.007-1.033.01-1.552.018-.854 1.147-1.676 2.321-2.565 3.443q.076-2.762.205-5.525z" class="fil2" style="fill:#fefefe"></path><path id="path3069" d="M75.7 235.835c4.445.02 8.89.003 13.332.01a218 218 0 0 0 .003 4.015c-.953-.585-1.778-1.383-2.79-1.856-1.514-.066-3.031.01-4.541-.031-.007.8-.007 1.598-.014 2.398 2.275.043 4.741-.211 6.801.96 2.346 1.348 1.701 5.888-1.252 5.916-3.824.307-7.68.032-11.515.148.822-.885 1.627-1.785 2.47-2.65.021-2.109.004-4.218-.004-6.328-.84-.854-1.668-1.718-2.49-2.582" class="fil2" style="fill:#fefefe"></path><path id="path3071" d="M90.34 235.841c4.434-.004 8.865.022 13.3-.014.042 1.672.014 3.34.032 5.013-.953-.956-1.606-2.237-2.689-3.034-1.57-.035-3.143-.064-4.71.057.029.808.036 1.619.04 2.43.864.004 1.728.004 2.596.018q.968-.706 1.95-1.39c-.038 1.714-.013 3.429-.049 5.144a96 96 0 0 1-1.848-1.518c-.886 0-1.775.004-2.66.022q-.005 1.234-.021 2.472c1.63.018 3.26.029 4.893.003.906-1.072 1.795-2.166 2.716-3.227-.024 1.848-.01 3.7-.004 5.549-4.515-.007-9.03-.004-13.546.024.797-.998 1.883-1.774 2.529-2.881.032-1.927.05-3.86 0-5.786-.628-1.122-1.732-1.887-2.53-2.883z" class="fil2" style="fill:#fefefe"></path><path id="path3073" d="M67.858 237.768c.63-.49 1.605-.356 2.116.244.79.786 1.037 1.912 1.196 2.973-1.591-.02-3.182-.003-4.777-.003.135-1.178.466-2.47 1.464-3.214z" class="fil3" style="fill:#fe1b22"></path><path id="path3075" d="M26.748 239.355c.55.967.875 2.043 1.351 3.048-.85.01-1.703.007-2.557.004.402-1.02.776-2.046 1.206-3.052z" class="fil3" style="fill:#fe1b22"></path><path id="path3077" d="M7.134 242.075c2.77.064 5.542-.01 8.315.036-.064 3.068.02 6.145-.085 9.214 1.207.423 2.498.155 3.747.215 4.65.053 9.302-.102 13.952.085.452 2.48 1.065 4.953 1.2 7.471-8.143-.038-16.281.018-24.42-.031-.226-3.013-1.048-5.934-1.432-8.926-.356-2.698-1.157-5.334-1.277-8.064" class="fil3" style="fill:#fe1b22"></path><path id="path3079" d="M108.723 242.093c3.503.004 7.006.05 10.513-.01-.092 1.858-.635 3.654-.903 5.489-.201 1.432-.374 2.871-.67 4.286-.59 2.377-.745 4.833-1.291 7.218-8.136-.007-16.271.056-24.403-.032.28-2.487.946-4.914 1.147-7.412 4.142-.205 8.29-.032 12.436-.095 1.114-.06 2.292.187 3.347-.279-.476-1.912-.042-3.86-.091-5.793.007-1.125-.173-2.247-.085-3.372" class="fil3" style="fill:#fe1b22"></path><path id="path3081" d="M66.404 242.763c1.588-.01 3.179-.077 4.763.053-.364 1.179-.865 2.77-2.329 2.89-1.563.006-2.198-1.659-2.434-2.943" class="fil3" style="fill:#fe1b22"></path><path id="path3083" d="M81.715 242.622c1.129.032 2.264-.078 3.386.078 1.104.247 1.112 2.18-.017 2.444-1.105.276-2.265.075-3.39.13q0-1.325.02-2.652" class="fil3" style="fill:#fe1b22"></path><path id="path3085" d="M46.275 251.558q4.417-.027 8.837-.01c2.367 3.047 4.744 6.088 7.101 9.147.021 5.33.042 10.66-.007 15.991-5.345-8.353-10.594-16.77-15.932-25.128" class="fil2" style="fill:#fefefe"></path><path id="path3087" d="M56.06 251.551c4.445-.021 8.887-.003 13.328-.003-2.215 2.85-4.459 5.683-6.65 8.555-2.243-2.836-4.43-5.715-6.677-8.552z" class="fil2" style="fill:#fefefe"></path><path id="path3089" d="M80.194 251.554c2.117-.018 4.233-.007 6.35-.018a25126 25126 0 0 0-23.188 42.634c.095-5.581.254-11.176.427-16.747 5.4-8.66 10.961-17.233 16.411-25.869" class="fil2" style="fill:#fefefe"></path></g></g></g></g><!-- source: https://football-logos.cc --></svg>