<svg xmlns="http://www.w3.org/2000/svg" data-name="Calque 2" viewBox="0 0 1964.4 2665.91"><!-- Source: https://football-logos.cc --><path d="M954.91 9c-39.33 14.59-73.22 27.67-145.5 56.12-134.39 52.9-191.06 74.11-194.45 72.76-1.13-.45-36.25-15.07-78.05-32.49-70.55-29.41-76.25-31.62-79.5-30.75C452.52 75.94 1.11 246.01.05 246.96c-.47.42 2.34 12.85 6.25 27.61 42.11 158.99 59.42 317.47 56.04 513.17-1.84 106.65-8.18 199.58-24.49 359.16-15.2 148.68-19.25 191.05-23.4 244.5-2.89 37.17-5.76 87.04-7.11 123.25-1.32 35.49-.69 136.24.99 159.25 2.22 30.39 4.32 52.32 7.22 75.49 36.37 290.58 172.8 503.33 429.37 669.57 112.02 72.58 247.45 137.87 434 209.24 40.3 15.42 100.89 37.71 102.5 37.71 3.32 0 110.6-40.43 164.5-61.99 287.56-115.03 469.08-229.4 595.96-375.5 122.59-141.15 192.3-314.3 209.99-521.52 3.29-38.53 3.71-49 4.24-104.25.7-72.67-1.38-129.56-7.72-211.25-4.15-53.45-8.2-95.82-23.4-244.5-16.31-159.54-22.67-252.77-24.49-358.99-3.33-194.67 13.6-351.51 55-509.51 3.89-14.85 7.49-27.43 8-27.95 1.52-1.58 1.03-4.11-.83-4.29-.96-.09-104.57-38.92-230.24-86.28s-229.4-85.93-230.5-85.71-36.43 14.74-78.51 32.26c-42.07 17.52-77.18 31.79-78 31.72s-82.82-31.21-182.21-69.19C1063.81 30.98 981.69-.05 980.7 0c-.98.05-12.59 4.11-25.79 9m-156.47 96.56-181.47 69.45-56.02-13.1c-45.98-10.75-56.47-13.51-58.53-15.4-3.07-2.82-38.85-33.59-41.17-35.4-1.42-1.11-31.73 10.08-211 77.92-115.14 43.57-209.47 79.31-209.62 79.42-.16.11 2.86 12.97 6.7 28.58 27.59 112.08 41.89 216.68 48.25 352.88 1.6 34.31 1.59 149.57-.01 188.5-4.54 110.06-9.8 177.28-29.15 372.5-16.02 161.56-19.76 206.21-24.2 289-1.7 31.6-1.71 138.66-.03 162.5 10 141.34 39.14 253.98 93.78 362.5 32.88 65.3 72.04 122.91 124.38 182.94 17.98 20.62 67.67 70.43 87.24 87.45 101.76 88.48 223.42 156.31 411.82 229.58 42.45 16.51 78.17 29.78 156.25 58.04l65.75 23.8 65.75-23.8c181.06-65.54 256.44-96.32 344.16-140.54 90.37-45.56 158.98-90.62 223.91-147.09 31.8-27.65 83.2-81.21 111.76-116.45 113.23-139.7 176.1-301.42 191.84-493.44 3.03-36.99 3.86-67.04 3.26-118.5-.58-49.41-1.15-64.76-4.21-113.5-3.61-57.43-7.71-103.8-21.47-242.5-19.35-195.15-24.62-262.43-29.16-372.5-1.61-38.93-1.61-154.19-.01-188.5 6.37-136.46 21.11-243.83 48.73-355 3.48-14.02 6.02-25.8 5.64-26.16-.39-.36-79.28-22.91-175.32-50.11l-174.61-49.45-34.28-29.69c-23.89-20.69-34.77-29.51-35.89-29.1-.88.33-36.27 15-78.63 32.61l-77.03 32.01L1198.12 135c-81.25-22-148.54-40.59-149.53-41.31s-16.48-14.01-34.43-29.55-33-28.2-33.45-28.14-82.47 31.36-182.28 69.55m76.96 157.01c.68.34 1.03 15.61 1.03 44.98 0 24.46.34 44.27.75 44.01s.53-20.38.25-44.73c-.39-34.75-.77-44.32-1.78-44.52-.7-.14-.81-.03-.25.25m342.44 29.85c0 11 .14 15.64.32 10.3.18-5.33.18-14.33 0-20s-.32-1.3-.33 9.7m187.83 115.25c-.13 61.19.1 111.25.51 111.25.68 0 .67-77.14-.01-182.5-.14-22-.37 10.06-.5 71.25m-83.57-84.08c-.37.37-.67 41.06-.67 90.43 0 84.65-.1 89.79-1.75 90.22-1.32.35-1.2.48.49.57l2.24.12.26-91c.14-50.05.22-91 .18-91s-.38.3-.75.67M1574.9 442.4c0 62.15.12 87.43.27 56.17s.15-82.11 0-113-.27-5.32-.27 56.83m-116.25-63.81c-.22 33.65.17 39.69 2.35 36.17.45-.73.29-.9-.42-.46-.85.52-1.21-8.7-1.42-35.6l-.28-36.3-.24 36.19M876.18 430.9c-.15 27.5.06 50 .46 50s.85-22.5 1-50-.06-50-.46-50-.85 22.5-1 50m655.96-19.28c.87.62 1.31 6.19 1.53 19.33l.31 18.45-.04-18.92c-.03-15.95-.27-18.98-1.54-19.33-1.09-.3-1.16-.17-.27.46m-73.27 22.56c-.27.7-.36 13.85-.22 29.24.23 24.02.48 27.99 1.77 28.08.92.07 1.01-.05.22-.32-1.01-.33-1.22-6.55-1-29.35.15-15.91.15-28.92 0-28.92-.16 0-.5.57-.77 1.26m82.55 93.04.5 19.2.28-18.43c.15-10.13-.07-18.77-.5-19.2-.42-.43-.55 7.87-.27 18.43m-627.51 32.78c-215.76 5.62-429.85 38.73-635.88 98.35-14.23 4.12-26.08 7.69-26.33 7.94s-.31 1.32-.12 2.37c.31 1.82 1.63 1.64 25.33-3.45 151.46-32.54 317.58-54.98 483-65.26 81.45-5.06 128.57-6.43 221-6.44 107.76 0 182.51 2.79 279.5 10.44 148.58 11.72 304.09 34.45 440.25 64.35l10.75 2.36v-2.3c0-1.33-.74-2.53-1.75-2.83-254.36-76.59-525.65-112.57-795.75-105.53m-246.5 274.04c-125.27 10-241.32 58.96-333.76 140.81l-9.26 8.2-5.82-5.06c-3.2-2.78-6.08-5.06-6.41-5.06-.78 0-63.87 35.72-64.9 36.74-.68.68-19.34 50.13-24.9 65.98l-1.83 5.22 7.43 6.25c4.09 3.44 7.43 6.52 7.43 6.84s-2.95 5.73-6.56 12.03c-30.21 52.67-54.05 120.66-64.86 184.95-7 41.63-8.99 66.88-8.96 113.5.03 39.52 1.17 59.04 5.47 93.5 2.37 19.04 7.39 49.81 8.27 50.69.93.93 73.9 3.46 74.65 2.58.37-.43 1.2-9.86 1.85-20.97 4.39-74.86 20.74-152.21 47.1-222.8 12.85-34.41 37.15-86.3 53.07-113.31l6.07-10.3 6.7 5.87c3.68 3.23 23.57 20.42 44.2 38.2 20.62 17.78 38.14 32.92 38.93 33.65 1.22 1.13.12 4.01-7.67 20.1-51.02 105.29-71.13 220.61-58.21 333.79 13.65 119.48 61.63 231.62 138.7 324.16l10.13 12.16-102.14 88.34c-56.17 48.59-102.81 88.85-103.64 89.48-1.27.96-.12 2.75 7.39 11.5 12.91 15.03 71.04 72.87 73.2 72.84.99-.02 24.08-6.01 51.3-13.31l49.5-13.29 28.67-45.94 28.67-45.94 30.83-26.81c16.96-14.75 31.38-27.05 32.05-27.35.67-.29 6.3 3.05 12.5 7.44 74.85 52.95 165.12 88.95 257.28 102.6 34.26 5.08 49.11 6.06 91.5 6.06s57.24-.98 91.5-6.06c91.43-13.55 181-49.12 255.79-101.59 7.04-4.94 13.34-8.74 14-8.45s15.08 12.59 32.03 27.34l30.83 26.81 28.71 45.95 28.71 45.94 49.46 13.28c27.2 7.3 50.28 13.29 51.27 13.31 2.16.03 60.29-57.81 73.2-72.84 7.51-8.75 8.67-10.54 7.4-11.5-.83-.62-47.47-40.89-103.64-89.48l-102.14-88.34 10.13-12.16c61.9-74.32 105.77-162.78 127.29-256.66 30.84-134.56 14.48-274.83-46.8-401.29-7.8-16.1-8.9-18.97-7.67-20.11.79-.73 18.31-15.86 38.93-33.64 20.62-17.77 40.51-34.96 44.19-38.19l6.68-5.87 5.24 8.79c7.42 12.46 29.7 56.36 36.44 71.8 37.76 86.51 59.28 175.05 64.59 265.8.65 11.11 1.48 20.55 1.85 20.97.75.88 73.72-1.65 74.65-2.58.33-.33 1.87-8.16 3.41-17.4 14.86-88.83 14.28-177.19-1.69-257.3-11.61-58.25-34.2-119.62-61.82-167.95-3.6-6.29-6.54-11.71-6.54-12.03s3.35-3.4 7.44-6.84l7.43-6.25-1.83-5.22c-5.77-16.43-24.16-65.24-24.83-65.91-1.07-1.07-64.09-36.8-64.91-36.8-.35 0-3.26 2.28-6.46 5.06l-5.82 5.06-9.26-8.2c-86.24-76.37-195.82-125.32-309.76-138.38-42.79-4.91-91.52-4.91-133 0-20.88 2.47-20.91 1.96.5 8.93 132.73 43.24 249.73 120.22 342.2 225.14l6.2 7.03-43.88 37.92c-24.14 20.86-44.3 37.92-44.81 37.92s-4.88-4.5-9.71-10c-13.12-14.95-43.14-44.48-59-58.05-111.85-95.72-249.2-146.45-396.5-146.45-162.64 0-314.31 62.44-428.6 176.44-9.96 9.93-22.05 22.56-26.89 28.06-4.83 5.5-9.21 10-9.72 10s-20.68-17.07-44.81-37.92l-43.88-37.92 6.2-7.03c68.63-77.85 151.19-140.65 243.98-185.58 34.15-16.54 60.49-27.17 96.72-39.04 17.06-5.59 20-6.82 17.5-7.35-5.26-1.1-27.53-3.55-42-4.61-16.24-1.19-67.17-1.14-82.5.08m.03 19.58c-42.86 4.39-74.9 10.4-111 20.84-71.27 20.61-137.06 55.41-193.09 102.15-13.75 11.47-23.93 20.84-23.84 21.95.04.49 4.05 4.26 8.92 8.38 7.55 6.4 8.66 7.72 7.56 9-32.5 37.71-42.82 49.54-43.37 49.74-.63.22-7.75-5.57-16.47-13.41l-3.8-3.41 6.6-25.08c3.63-13.79 6.4-25.28 6.15-25.52-.51-.51-41.61 22.32-43.26 24.03-1.27 1.32-19.4 50.07-19.4 52.17 0 .76 4.28 5.08 9.51 9.59l9.51 8.2-1.73 2.59c-4.63 6.96-17.12 29.04-23.25 41.09-33.03 65-52.77 139.27-59.13 222.5-1.49 19.51-1.49 72.46 0 93.5 1.86 26.3 7.72 75.03 9.19 76.41.22.21 8.72.7 18.9 1.1l18.5.72-.35-21.36c-.39-24.1 1.16-65.71 3.42-91.86 17.9-207.39 100.93-368.52 241.39-468.43 57.33-40.78 125.35-71.81 200.6-91.5 14.86-3.89 14.9-3.91 8.43-3.83-3.58.05-8.08.24-10 .44m606.01 1.61c.27.25 7.92 3.9 17 8.12 52.21 24.27 109.64 60.27 156.53 98.11 41.88 33.79 86.91 78.47 120.93 119.98 73.4 89.54 125.95 195.21 149.97 301.51 4.17 18.44 8.99 46.22 10.67 61.5.67 6.05 1.59 11.43 2.06 11.95 1.2 1.36 1.05-41.14-.22-60.04-8.04-119.72-54.71-240.05-130.16-335.63-22.08-27.97-56.99-64.16-82.32-85.34-70.87-59.26-149.01-97.98-241.95-119.9-1.65-.39-2.77-.51-2.5-.26M954.41 964.9c-117.6 5.81-227.62 45.06-321.5 114.69-123.76 91.79-207.15 231.1-229.46 383.31-4.7 32.08-5.45 43.83-5.45 85.5s.75 53.42 5.45 85.5c13.95 95.14 52.17 187.04 109.81 264 30.12 40.22 70.74 81.52 110.46 112.34 126.97 98.49 288.68 140.01 448.71 115.2 96.17-14.91 189.19-55.1 266.67-115.2 39.72-30.81 80.33-72.12 110.46-112.34 61.47-82.07 100.8-181.21 112.29-283 5.45-48.3 4.54-104.12-2.48-152-23.83-162.58-116.7-309.07-253.96-400.54-41.45-27.62-92.06-52.49-138.06-67.84-67.73-22.6-143.06-33.08-212.94-29.62m679.3 46.61c-8.69 7.49-16.18 13.97-16.66 14.42-.89.83 31.82 39.47 33.41 39.47s16.06-12.77 15.67-13.89c-.22-.61-3.7-12.93-7.73-27.36-4.04-14.44-7.69-26.25-8.12-26.25s-7.89 6.12-16.57 13.61m-615.41-1.36c-.26.57-12.6 95.27-12.44 95.47.19.25 61.42 8.28 63.17 8.28.64 0 1.41-2.68 1.8-6.25.37-3.44.91-7.65 1.21-9.35l.54-3.1-13.48-1.76-13.48-1.76-6.18 4.2c-3.4 2.31-6.33 4.04-6.52 3.85s2.14-19.61 5.17-43.16 5.32-43.01 5.09-43.25c-.7-.7-24.61-3.75-24.87-3.17m-108.37 3.91c-7.68 1.08-14.1 2.09-14.26 2.24-.16.16-5.62 22.9-12.14 50.55l-11.85 50.26 3.61-.56c1.98-.31 7.71-1.08 12.72-1.72l9.11-1.15 2.22-10.71 2.22-10.71 17.17-2.19c9.44-1.2 17.89-2.18 18.77-2.18 1.06 0 3.09 3.29 5.94 9.61l4.34 9.6 3.56-.56c1.96-.31 7.84-1.08 13.06-1.72s9.77-1.45 10.1-1.79c.92-.96-47.71-90.6-49.25-90.78-.74-.08-7.64.73-15.33 1.81m225.54 23.42c-13.97 37.34-31.17 84.64-30.88 84.93.58.58 60.13 22.53 60.35 22.25 1.15-1.44 6.24-17.35 5.7-17.81-.4-.33-6.03-2.54-12.52-4.9l-11.8-4.3-7.12 2.63c-3.92 1.44-7.22 2.52-7.34 2.38s6.26-17.8 14.19-39.25 14.66-39.93 14.95-41.06c.48-1.84-.71-2.52-10.93-6.25-6.31-2.3-11.7-4.19-11.99-4.19s-1.46 2.51-2.61 5.58m-227.39 23.52c-2.63 13.26-4.65 24.24-4.48 24.42.17.17 2.98-2.76 6.24-6.51 5.91-6.81 8.03-7.98 14.45-8.02 5.8-.03 5.69-.8-2.46-17.84-4.25-8.88-8-16.15-8.34-16.15s-2.77 10.85-5.41 24.1m-121.17-14.07c-5.57 1.14-10.31 2.91-31.32 11.69-13.95 5.83-18.22 8.03-17.91 9.21.63 2.38 35.92 86.46 36.62 87.22.69.76 36.84-14.26 44.96-18.68 12.46-6.78 18.15-14.65 18.14-25.05-.02-14.56-11.8-25.93-25.02-24.16l-4.02.54 3.15-3.59c6.44-7.33 7.66-15.91 3.52-24.8-4.96-10.66-14.99-15.08-28.12-12.39m-10.03 21.81c-8.11 3-9.64 4.05-8.96 6.18 2.04 6.43 7.63 17.44 8.72 17.2.7-.16 4.12-1.67 7.6-3.35 7.53-3.65 10.54-7.59 9.75-12.81-1.13-7.51-8.22-10.5-17.11-7.21m-113.47 44.29c-15.67 11.52-28.64 21.35-28.81 21.84-.36 1.03 9.61 15.03 10.7 15.03.4 0 7.2-4.72 15.09-10.49 7.9-5.77 14.47-10.38 14.61-10.25.13.13-.63 3.94-1.71 8.47l-1.95 8.23 19.18 26.27c10.55 14.45 19.29 26.42 19.44 26.6.38.47 19.89-13.82 20.26-14.84.23-.63-35.8-51.11-43.97-61.6-.72-.93 7.5-7.76 17.51-14.54 1.11-.75-9.3-15.85-10.85-15.73-.55.04-13.83 9.5-29.5 21.03m843.81 20.66c-24.58 21.28-44.72 39.08-44.75 39.57s3.46 5.67 7.77 11.5c4.3 5.84 9.53 12.99 11.62 15.9s4.11 5.16 4.51 5c.39-.16 20.98-17.84 45.76-39.28l45.04-38.99-2.29-3.36c-4.03-5.93-21.94-29.11-22.46-29.06-.28.02-20.61 17.45-45.19 38.72m-713.82-29.71c-3.03 1.12-6.74 2.5-8.25 3.06s-2.75 1.36-2.75 1.77c0 1.82 7.96 19.54 8.92 19.86 1.97.66 15.17-6.12 17.64-9.06 5.54-6.58.19-17.9-8.37-17.71-.93.02-4.16.95-7.18 2.08m488.99 16.19c-15.15 4.34-30.01 18.42-36.28 34.36-6.85 17.45-2.51 35.08 12.55 50.98 7.04 7.43 17.47 15.21 26.44 19.73 2.87 1.45 5.43 2.63 5.7 2.63s3.2-3.9 6.53-8.67l6.05-8.67-6.75-2.64c-9.2-3.6-13.9-6.76-20.03-13.47-9.14-10.01-10.56-21.49-4.14-33.53 3.87-7.27 9.27-12.36 16.67-15.75 14.44-6.61 34.05 2.56 42.93 20.08l2.5 4.93 6.91-6.86c3.8-3.77 6.91-7.32 6.9-7.89-.02-1.99-10-14.29-15.21-18.74-7.83-6.69-17.04-12.35-24.06-14.78-7.69-2.67-20.52-3.49-26.72-1.71m-908.39 23.85c-7.55 11.19-10.62 16.55-10 17.44.49.71 16.42 14.67 35.4 31.03s39.3 33.94 45.16 39.07l10.66 9.33 2.26-3.76c1.24-2.07 6.04-9.72 10.65-17s8.12-13.68 7.78-14.23c-.91-1.47-88.39-77.04-89.8-77.58-.71-.27-5.76 6.27-12.12 15.69m582.91 6.49c-143.47 9.38-270.74 94.44-333.48 222.88-27.22 55.71-40.25 112.37-40.25 175 0 45.01 6.44 85.11 20.36 126.79 32.41 97.03 102.86 179.5 193.38 226.36 45.43 23.51 87.95 36.53 140.5 43.01 20.37 2.51 67.59 2.51 87.96 0 26.27-3.24 48.3-7.77 71.02-14.61 123.46-37.17 222.14-132.8 262.87-254.76 20.61-61.72 25.86-129.24 15.06-193.79-14.2-84.9-58.08-166-121.59-224.71-63.18-58.41-140.48-94.02-226.34-104.27-12.99-1.55-56.59-2.74-69.5-1.9m2.51 24.97c-19.06 1.65-29.38 2.88-41.51 4.95-171.92 29.32-302.06 176.61-309.34 350.08-3.27 78 15.51 150.44 55.79 215.22 84.11 135.28 245.61 202.33 401.05 166.51 114.25-26.33 210.22-105.62 257.64-212.85 23.23-52.53 33.7-109.23 31.21-168.88-5.51-131.51-82.47-251.9-200.2-313.17-41.15-21.42-83.31-34.38-130.14-40-12.3-1.48-54.79-2.71-64.5-1.87m-375.11 8.77c-8.4 3.45-12.1 6.05-18.67 13.06-15.63 16.71-19.34 34.75-10.75 52.3 7.26 14.83 24.45 28.74 40.65 32.89 18.18 4.66 37.42-4.47 49.8-23.62 10.33-15.99 10.57-32.98.68-48.38-7.26-11.31-23.2-23.42-35.53-27.03-8.12-2.37-19.34-2.04-26.18.77m767.58 38.24c-20.33 15.67-37.54 29.06-38.24 29.77-1.04 1.04 2.35 6.01 18 26.43 10.6 13.83 19.67 25.17 20.14 25.19s3.85-2.3 7.5-5.16 6.82-5.32 7.03-5.47-3.35-5.19-7.92-11.19l-8.31-10.92-7.33-1.25c-4.03-.69-7.31-1.53-7.28-1.86s14.32-11.52 31.75-24.86 32.96-25.27 34.51-26.51l2.82-2.26-7.66-9.99c-4.21-5.49-7.75-10.08-7.85-10.19-.11-.11-16.83 12.62-37.16 28.29m-411.47-18.01c-53.92 6.46-104.42 25.04-149.9 55.15-14.07 9.32-35.89 26.17-41.33 31.93l-2.73 2.89 20.76 20.75 20.76 20.75 15.26-6.55c44.18-18.96 93.59-31.16 139.67-34.49 8.8-.64 17.91-1.38 20.25-1.65l4.25-.49v-89.88l-7.75.11c-4.26.06-12.92.73-19.25 1.49m55.01 43.33v44.94l4.25.49c2.34.27 11.45 1.01 20.25 1.65 46.08 3.33 95.48 15.53 139.67 34.49l15.26 6.55 20.76-20.75 20.76-20.75-2.73-2.89c-5.44-5.76-27.26-22.62-41.33-31.93-39.25-25.98-81.24-43.02-127.4-51.68-13.69-2.57-34.96-5.06-43.24-5.06h-6.26v44.94m-407.49-42.03c-4.49 1.12-6.9 2.64-10.32 6.54-8.42 9.58-5.65 22.12 7.68 34.84 10.09 9.62 23.22 14.49 31.61 11.73 4.76-1.57 10.46-6.58 12.18-10.71 2.17-5.2 1.69-12.23-1.25-18.12-7.18-14.4-28.19-27.18-39.9-24.27m832.97 92.45c-15.42 7.28-30.07 14.63-32.56 16.34-18.06 12.43-21.36 30.16-9.76 52.46 9.52 18.3 23.53 25.55 41.31 21.39 5.7-1.34 61.05-26.06 63.71-28.46.55-.49-8.25-20.51-9.61-21.88-.22-.22-12.92 5.48-28.23 12.67-28.47 13.37-34.67 15.49-41.14 14.04-4.65-1.05-9.7-6.41-11.17-11.87-1.49-5.53 1.1-11.49 6.64-15.33 2.19-1.52 16.33-8.61 31.42-15.75 15.08-7.14 27.57-13.42 27.75-13.95.29-.86-8.35-20.53-9.76-22.21-.31-.37-13.18 5.27-28.59 12.55m-908.44 1.23c-11.22 3.02-21.35 12.13-27.52 24.75-14.85 30.38-3.53 56.56 29.89 69.15 19.82 7.46 37.97 4.26 50.38-8.88 8.8-9.31 14.69-22.13 15.83-34.46 1.21-13.07-2.66-23.31-12.57-33.21-14.64-14.63-38.58-22.04-56.02-17.35m210.86 18.15c-16.83 17.95-35.43 44.79-48.91 70.61-19.02 36.41-30.16 71.68-36.68 116.14-2.53 17.23-2.53 70.77 0 88 7.76 52.9 23.65 97.41 49.76 139.34 7.81 12.55 25.56 36.27 33.78 45.16l6.01 6.5 19.45-19.37 19.45-19.37-6.54-9.63c-15.47-22.78-27.09-53.18-32.67-85.46-.85-4.93-3.5-13.76-5.99-20-5.26-13.15-9.73-29.89-12.24-45.77-2.54-16.08-2.54-54.73 0-70.81 2.51-15.88 6.98-32.62 12.24-45.77 2.49-6.24 5.14-15.07 5.99-20 5.58-32.28 17.2-62.68 32.67-85.46l6.54-9.63-19.14-19.12c-10.52-10.52-19.38-19.12-19.67-19.12s-2.12 1.69-4.05 3.75m492.46 15.51-19.14 19.25 5.99 8.5c15.21 21.6 27.66 53.91 33.27 86.33.85 4.93 3.5 13.76 5.99 20 5.26 13.15 9.73 29.89 12.24 45.77 2.54 16.08 2.54 54.73 0 70.81-2.51 15.88-6.98 32.62-12.24 45.77-2.49 6.24-5.14 15.07-5.99 20-5.58 32.28-17.2 62.68-32.67 85.46l-6.54 9.63 19.45 19.37 19.45 19.37 6.01-6.5c8.22-8.89 25.96-32.61 33.78-45.16 26.11-41.93 42-86.44 49.76-139.34 2.53-17.23 2.53-70.77 0-88-9.21-62.81-30.49-115.37-65.78-162.5-9.2-12.29-21.77-27.14-23.43-27.68-.55-.18-9.62 8.34-20.15 18.92m-252.35-12.59c-48.26 2.55-92.46 11.53-133 27.02-18.67 7.13-38.99 16.78-41.32 19.61-3.94 4.8-14.06 20.56-17.15 26.71-5.28 10.52-10.34 24-13.46 35.89-1.6 6.11-2.77 11.11-2.6 11.11s3.2-.89 6.71-1.98c33.04-10.2 92.1-21.24 136.31-25.46 51.18-4.89 113.82-4.89 165 0 32.35 3.09 71.08 9.38 102 16.58 12.46 2.9 36.88 9.3 39.93 10.47 3.33 1.28-6.88-30.52-14.96-46.61-3.15-6.27-13.42-22.23-17.15-26.66-3.62-4.29-32.43-17.04-57.17-25.3-47.57-15.88-105.13-23.92-153.15-21.38m-451.36 3.81c-8.23 2.93-14.83 13.68-13.03 21.19 2.05 8.54 9.24 16.26 19.86 21.33 18.16 8.67 33.84 6.1 39.65-6.48 5.39-11.68-1.8-24.19-18.42-32.06-11.08-5.25-20.66-6.6-28.06-3.97m939.7 94.86c-25.4 5.04-46.41 9.41-46.7 9.7-.85.86 8.02 43.95 10.29 50.03 5.16 13.8 12.01 20.09 22.6 20.76 13.94.89 23.99-6.71 26.07-19.69l.65-4.08 2.78 3.84c4.57 6.31 9.28 8.62 17.47 8.59 8.26-.03 13.65-2.41 18.31-8.06 6.45-7.82 6.69-17.86 1.13-46.23-4.51-23.02-4.8-24.21-5.77-24.09-.38.05-21.46 4.21-46.86 9.25m-995.3 2.43c0 .43-2.49 14.44-5.54 31.13-3.04 16.69-5.41 30.47-5.25 30.62.42.41 89.84 16.61 92.7 16.8 2.32.15 2.5-.33 4.71-12.3 1.26-6.85 2.2-12.53 2.09-12.61-.12-.09-8.54-1.63-18.71-3.42s-18.8-3.54-19.16-3.89c-.36-.34.65-7.6 2.26-16.13s2.8-16.38 2.66-17.45c-.21-1.56-1.57-2.2-6.76-3.19-11.29-2.14-10.38-2.83-12.63 9.54l-1.98 10.9 4.25 7.32c2.34 4.03 4.13 7.44 3.99 7.58-.3.3-29.91-4.89-30.5-5.34-.21-.16 1.09-8.42 2.88-18.37s3.05-18.28 2.81-18.52c-.41-.41-15.44-3.48-17.06-3.48-.41 0-.75.36-.75.79m475.49 16.36c-41.51 2.48-84.71 8.53-125 17.51-16.91 3.77-51.85 13.45-56.27 15.59-4.28 2.07-10.41 19.81-14.44 41.77-2.85 15.52-3.1 53.21-.46 68.5 2.23 12.89 5.79 26.28 9.61 36.16l3.04 7.84 12.26 3.73c35.19 10.72 77.6 19.61 117.76 24.69 37.7 4.77 52.3 5.56 103 5.56s65.3-.79 103-5.56c40.16-5.08 82.57-13.97 117.76-24.69l12.26-3.73 3.04-7.84c3.82-9.88 7.38-23.27 9.61-36.16 2.64-15.29 2.39-52.98-.46-68.5-4.03-21.96-10.17-39.7-14.44-41.77-1.44-.7-11.09-3.69-21.45-6.66-49.49-14.17-104.32-23.12-162.68-26.53-20.5-1.2-75.48-1.15-96.14.08m544.15 2.14-9.85 2.04.65 4.1c1.92 12.18 5.78 17.6 12.54 17.6 3.28 0 4.8-.63 7.1-2.92 2.45-2.46 2.92-3.73 2.92-7.95 0-5.62-1.8-15.18-2.83-15.02-.37.06-5.1 1.03-10.52 2.15m-34.66 6.89c-2.47.52-6.8 1.39-9.62 1.94l-5.12 1 1.3 6.22c2.42 11.56 5.17 16.04 10.55 17.22 3.26.72 9.14-.93 10.9-3.05 2.35-2.83 2.76-8.24 1.26-16.41-1.63-8.85-1.27-8.58-9.28-6.91m-539.82 26.32c-19.29 4.36-32.04 21.73-33.76 45.99-1.92 27.1 13.29 48.74 34.35 48.86 7.84.05 13.06-1.47 18.99-5.52 4.96-3.39 4.92-3.48 2.82 8.31-3.1 17.38-10.06 25.56-23.27 27.35-6.54.89-14.29-1.23-20.21-5.52-2.35-1.7-4.44-2.94-4.64-2.74s-.49 6.14-.66 13.21l-.3 12.86 6.98 2.37c31.75 10.78 55.29.25 65.92-29.49 9.46-26.49 8.32-72.07-2.38-94.94-7.84-16.75-25.2-24.96-43.85-20.75m73.84 39.02c0 37.44.1 39.69 1.75 39.04 5.34-2.12 16.36-3.66 22.58-3.17 16.39 1.3 24.67 11.41 23.44 28.58-.88 12.25-6.58 18.89-18.25 21.23-9.04 1.82-22.52-1.43-28.78-6.94-.97-.85-1.92-1.36-2.11-1.13-.2.23-.62 6.81-.94 14.64l-.58 14.23 6.36 1.96c34.96 10.8 65.03-2.8 73.08-33.05 1.9-7.14 1.86-23.9-.08-31.33-4.4-16.88-16.8-28.03-33.86-30.45-3.76-.53-9.03-.71-11.72-.39l-4.89.58v-28.28h9.78c12.53 0 25.11 1.59 31.33 3.95l4.89 1.86v-28.57l-12.25-.6c-6.74-.33-22.94-.89-36-1.24l-23.75-.64v39.73m123-33.56c-11.64 3.55-19.47 11.9-22.58 24.06-4.15 16.23 1.92 32.26 15.57 41.11l2.48 1.61-3.98 2.06c-12.61 6.54-19.33 19.99-18.2 36.46 1.2 17.58 11.8 30.08 28.52 33.63 21.24 4.51 47.24-6.18 55.71-22.9 4.82-9.52 5.18-22.52.86-31.61-2.67-5.64-9.4-12.16-16.27-15.78l-6.4-3.38 3.4-1.73c13.72-6.97 20.08-20.32 16.48-34.59-4.53-17.94-22.51-30.02-44.38-29.8-4.78.05-9.82.43-11.2.85m-276.86 3.62c-10.09 1.28-18.5 2.47-18.69 2.66-.42.42-4.46 23.99-4.46 26.04 0 1.29 1.23 1.16 8.2-.86 4.51-1.31 8.56-2.38 9-2.38s.8 23.6.8 52.44.36 52.66.8 52.94c.44.27 5.73.98 11.75 1.57s12.41 1.27 14.2 1.5l3.25.42v-136.87l-3.25.12c-1.79.06-11.51 1.16-21.6 2.44m82 15.96c-4.73 3.98-6.65 10.34-6.64 21.97.02 16.74 3.98 23.5 13.75 23.5 4.41 0 5.38-.41 8.28-3.48 3.83-4.06 5.46-10.18 5.46-20.52 0-15.97-4.46-24-13.32-24-3.38 0-5.28.64-7.53 2.53m203.62 2.04c-2.85 1.55-5.01 4.96-6.15 9.72-1.7 7.08 4.59 16.79 14.3 22.07 5.84 3.18 7.3 2.71 11.43-3.66 6.37-9.82 3.77-23.35-5.37-27.94-4.22-2.12-10.5-2.2-14.22-.19m-.29 60.81c-9.48 9.89-10.14 27.46-1.28 33.95 3.38 2.47 12.04 2.65 16.51.34 10.29-5.32 11.26-23.23 1.71-31.6-3.23-2.84-10.43-7.05-12.04-7.05-.39 0-2.6 1.97-4.9 4.38m-625.31 48.75c-5.68 7.78-10.55 14.69-10.8 15.35-.26.68 6.07 6.03 14.57 12.32l15.04 11.11 5.51-7.46c3.03-4.1 7.99-10.81 11.01-14.91 3.03-4.09 5.48-7.81 5.47-8.25-.03-.78-27.74-21.4-29.56-21.99-.5-.16-5.56 6.07-11.25 13.84m973.63-3.41c-8.09 5.92-14.72 11.11-14.74 11.56-.02.44 2.44 4.16 5.46 8.25 3.03 4.1 7.98 10.81 11.01 14.91l5.51 7.46 14.99-11.07c8.24-6.09 14.99-11.4 14.99-11.8 0-.91-20.92-29.47-21.85-29.81-.37-.14-7.29 4.59-15.38 10.5m-696.72 60.28c5.1 19.45 12.42 36.01 22.76 51.47 8.79 13.16 9.59 13.86 22.2 19.57 45.46 20.56 87.48 31.73 139.5 37.05 25.72 2.63 70.17 1.42 99.5-2.71 31.59-4.45 66.89-13.74 95.5-25.16 18.55-7.4 32.98-14.37 35.34-17.07 3.92-4.49 14.17-20.29 17.63-27.18 8.1-16.13 18.29-47.89 14.95-46.61-.81.31-8.09 2.37-16.19 4.57-40.65 11.07-85.7 18.86-137.22 23.74-14.9 1.41-28.7 1.75-71 1.75s-56.1-.34-71-1.75c-51.52-4.88-96.57-12.67-137.22-23.74-8.1-2.2-15.39-4.26-16.19-4.57-1.16-.44-.85 1.81 1.47 10.63m626.08 65.5c-3.39 6.34-6.16 11.73-6.16 11.98s5.89 8.38 13.08 18.07 12.9 17.79 12.68 18.01-8.24-.04-17.83-.57-19.47-.98-21.97-.99l-4.54-.02-6.77 12.61c-3.72 6.94-6.63 12.69-6.46 12.78s16.06-.22 35.31-.69l35-.86 15.23 8.15c8.38 4.48 15.58 7.93 16 7.66s3.24-5.27 6.27-11.11c5.32-10.26 5.43-10.65 3.5-11.82-1.1-.66-8.28-4.58-15.96-8.71l-13.96-7.51-18.04-29.24c-9.92-16.08-18.31-29.24-18.63-29.25-.33 0-3.36 5.17-6.75 11.51m-839.66 6.97c-10.35 2.93-21.6 9.59-29.57 17.5-15.51 15.39-17.91 31.34-7.95 52.74l2.9 6.23-3.41 10.12-3.41 10.12 6.61 11.95c3.64 6.58 6.96 11.59 7.38 11.15s2.38-6.62 4.35-13.71c1.97-7.1 3.74-13.07 3.94-13.26.2-.2 3.01.86 6.26 2.35 7.76 3.56 20.29 4.36 29 1.84 16.37-4.73 33.46-17.8 39.6-30.27 4.32-8.78 5.08-20.72 1.95-30.93-4.45-14.56-14.89-27.61-26.74-33.44-6.03-2.97-7.77-3.35-16.33-3.57-5.97-.15-11.46.29-14.58 1.17m222.2 42.32-20.8 20.82 4.8 4.49c14.8 13.82 40.5 32.03 62.62 44.38 44.12 24.62 98.41 40.3 147.93 42.73l5.75.28v-90.36l-5.25-.54c-2.89-.29-9.75-.8-15.25-1.13-46.2-2.75-99.65-15.82-145-35.46-6.6-2.86-12.45-5.39-13-5.62s-10.36 8.95-21.8 20.4m400.3-17.62c-43.73 20.32-103.61 35.46-151.5 38.31-5.5.33-12.36.84-15.25 1.13l-5.25.54v90.36l5.75-.28c49.52-2.43 103.81-18.11 147.93-42.73 22.13-12.35 47.83-30.56 62.62-44.38l4.8-4.49-20.8-20.81c-11.44-11.45-21.02-20.78-21.3-20.74s-3.43 1.43-7.01 3.09m-609.99-1c-12.02 1.82-27.15 12.11-32 21.76-4.34 8.63-1.98 18.93 5.67 24.76 3.42 2.6 4.35 2.81 12.81 2.81s9.61-.24 16.78-3.78c19.61-9.7 27.61-25.24 19.39-37.67-4.47-6.76-12.22-9.45-22.65-7.87m765.09 78.25c-10.51 4-19.11 10.75-36.12 28.35-8.78 9.09-15.97 16.85-15.97 17.24 0 .59 42.68 41.7 64.11 61.75l5.61 5.25 15.04-16.05c16.58-17.7 22.97-26.4 26.91-36.66 3.41-8.88 3.59-19.29.48-27.31-4.62-11.92-17.62-25.45-30.12-31.35-9.09-4.29-20.63-4.76-29.92-1.23m-714.96 28.28-46.35 20.59 9.03 9.03 9.03 9.03 9.12-4.24c5.02-2.33 9.69-4.1 10.39-3.93s6.83 6.08 13.63 13.14l12.37 12.82-4.77 9.59-4.77 9.59 9.54 9.54c5.25 5.25 9.74 9.33 9.98 9.08s9.97-21.27 21.62-46.7l21.17-46.24-10.28-11.01c-5.66-6.05-10.98-10.98-11.83-10.95s-22.4 9.32-47.89 20.64m715.26-5.31c-5.2 1.69-11.65 6.17-17.36 12.05l-4.46 4.59 15.46 14.73c8.51 8.1 18.19 17.32 21.53 20.47l6.06 5.74 6.65-7.61c12.82-14.67 12.97-26.26.51-39.9-8.19-8.96-19.5-12.98-28.39-10.09m-696.01 21.48-22.11 10.67 4.11.68c2.26.37 6.35.71 9.08.75 4.6.07 5.35.45 10.22 5.27 2.89 2.86 5.42 4.99 5.63 4.75.53-.63 16.68-32.21 16.68-32.61 0-.8-2.69.4-23.61 10.49m607.38 27.03c-5.35 3.1-9.74 6-9.75 6.45-.07 2.67 28.9 50.56 36.39 60.15 3.7 4.74 2.67 4.17-7.81-4.29-4.4-3.55-19.18-13.85-32.85-22.88l-24.85-16.42-13.98 8.17-13.98 8.18 2.15 3.64c1.18 2 12.25 20.81 24.59 41.8l22.44 38.16 8.69-5.05c4.78-2.78 9.24-5.55 9.9-6.16.93-.85-.98-4.92-8.25-17.53-11.75-20.39-17.03-28.88-24-38.6-3-4.18-5.46-7.81-5.46-8.05s3.24 2.28 7.2 5.6c8.45 7.09 20.88 15.64 44.08 30.32l16.78 10.62 13.47-7.74c9.56-5.49 13.36-8.2 13.1-9.31s-46.88-81.28-48.02-82.56c-.07-.08-4.5 2.4-9.85 5.5m-534.52 38.55c-12.78 22.22-23.47 41.02-23.75 41.77-.35.92 3 3.4 10.19 7.55l10.72 6.19 5.15-8.81c2.83-4.84 7.09-12.22 9.47-16.39l4.32-7.58 3.97 2.19c2.18 1.2 5.48 3.66 7.34 5.47 2.93 2.85 3.37 3.93 3.37 8.22 0 2.72-1.35 11.11-3 18.66s-3 13.83-3 13.95c0 .44 23.19 13.53 23.41 13.21.13-.18 1.67-8.65 3.42-18.82 3.54-20.49 3.88-26.72 1.69-30.95l-1.48-2.85 5.94.54c5.07.46 6.74.15 11.38-2.12 8.55-4.18 13.89-12.68 13.91-22.12.03-11.79-8.37-19.99-37.65-36.74-11.29-6.46-20.9-11.75-21.35-11.75s-11.27 18.18-24.04 40.41m30.79-2.84c-3.4 5.83-6.04 10.74-5.86 10.91s4.36 2.43 9.29 5.01c7.51 3.92 9.6 4.6 12.85 4.17 7.79-1.04 12.43-9.2 9.16-16.1-.97-2.04-3.16-4.76-4.86-6.05-2.99-2.25-13.33-8.54-14.04-8.54-.19 0-3.13 4.77-6.53 10.59m251.23 17.69c-1.77 2.87-4.18 6.69-5.35 8.47l-2.12 3.25 9.35-.06 9.35-.06 7.85-8.44 7.86-8.44-11.86.03-11.85.03-3.22 5.22m-534.91 84.73c-51.63 44.64-94 81.69-94.16 82.34-.31 1.33 33.02 36.12 42.96 44.84l6.49 5.69 28.42-44.6 28.42-44.6 55-47.61c30.25-26.18 54.99-48.05 54.98-48.59s-6.37-7.2-14.12-14.81l-14.1-13.83-93.88 81.17m394.81-70.76c-30.12 40.85-53.2 72.74-53.2 73.52 0 .52 4.61 2.19 10.25 3.72l11.79 3.2c1.04.29 3.57-2.51 7.77-8.58 5.95-8.6 6.35-8.96 8.96-8.12 1.5.49 9.56 2.75 17.9 5.04l15.17 4.15.7 10.81.7 10.81 13 3.64c7.15 2 13.12 3.5 13.27 3.34.66-.74-9.3-101.97-10.1-102.68-.79-.68-27.14-8.12-28.78-8.12-.33 0-3.68 4.16-7.43 9.25m252.95-4.21c-7.9 2.12-14.53 4.03-14.73 4.24-.43.43-11.18 102.09-10.84 102.56.12.17 5.64-1.13 12.26-2.89l12.04-3.2.58-6.61c.32-3.64.91-8.6 1.31-11.02l.74-4.41 16.5-4.32c9.07-2.38 17.18-4.33 18-4.34.83 0 3.95 3.81 6.94 8.48 2.99 4.68 6 8.5 6.7 8.5 1.36 0 24.61-6.09 25.24-6.61.46-.38-59.17-84.31-59.88-84.27-.28.02-6.96 1.77-14.86 3.89m-114.99 13.06c-13.66 1.77-27.61 8.66-34.08 16.83-15.89 20.06-14.33 54.88 3.16 70.61 5.6 5.04 12.46 8.53 21.77 11.09 11.36 3.12 47.1 2.04 53.01-1.61.9-.56 1.37-7.86 1.76-27.38l.53-26.62h-39.29v18h15.29l-.58 9.63c-.32 5.3-1.02 10.08-1.57 10.63-.58.58-4.7.82-9.89.57-7.58-.36-9.69-.87-14.32-3.46-6.04-3.37-11.14-9.87-13.1-16.71-.66-2.29-1.18-7.87-1.15-12.4.04-7.21.45-9.07 3.25-14.75 5.71-11.59 15.11-16.57 31.28-16.58 6.73 0 10.35.57 16 2.53 4.01 1.4 7.73 2.65 8.25 2.79.74.2 3.71-18.04 3.09-18.96-.47-.71-13.3-3.36-20.51-4.24-9.5-1.16-13.67-1.15-22.87.04m-136.84 27.72c-7.78 11.38-14.04 20.82-13.89 20.96.14.15 4.04-1.54 8.65-3.75l8.39-4.03 6.76 1.94 6.76 1.94-.65-12.68c-.36-6.98-.92-15.47-1.26-18.88l-.61-6.19zm256.62-16.76c-.02 1.35-.68 10.55-1.48 20.45s-1.46 20.25-1.46 23v5l5.12-7.76c4.92-7.43 5.38-7.83 10.74-9.32 3.08-.85 6.18-1.74 6.88-1.96 1.41-.45.55-1.96-11.06-19.45-8.51-12.81-8.7-13.04-8.74-9.95m287.53 3.63c-2.75 2.54-9.28 8.21-14.5 12.61s-9.5 8.31-9.5 8.68 14.1 12.88 31.34 27.79l31.34 27.11 27.53 42.35 27.53 42.35 41.13 11.05c22.62 6.08 41.29 10.91 41.5 10.74.2-.17-12.4-20.31-28-44.77l-28.37-44.47-56.76-49.07c-31.22-26.99-57.09-49.05-57.5-49.03s-2.99 2.11-5.74 4.65" style="fill-rule:evenodd;fill:#c7955b" data-source="https://football-logos.cc"></path><path d="M938.41 261.63c-3.43.38-4.11 1.33-32.5 45.58l-29 45.19-.26-44.75c-.24-41.75-.38-44.75-2-44.76-4.44-.02-43.22 2.13-46.99 2.6l-4.25.53v217.16l14.25-.77c7.84-.43 19.65-1.05 26.25-1.39l12-.62.26-49.75c.23-44.72.69-53.24 2.57-48.33.8 2.08 56.73 93.86 58.1 95.35.9.98 8.14 1.2 31.93 1l30.76-.27-31.86-48.5c-17.52-26.67-34.66-52.66-38.09-57.75l-6.23-9.25 23.02-33.43c12.66-18.39 28.42-41.13 35.03-50.54s12.01-17.31 12.01-17.56c0-.54-49.91-.3-55 .27m83 108.67v108.4l10.25.56c5.64.31 17.56.78 26.5 1.04l16.25.47v-92.99l8.25.58c10.72.75 43.28 2.53 46.36 2.53h2.39v92.83l7.25.6c3.99.33 15.03 1.26 24.55 2.08 9.51.82 18.18 1.49 19.25 1.49 1.92 0 1.95-1.57 1.95-108.91V270.08l-4.75-.58c-2.61-.32-11.05-1.03-18.75-1.58s-17.49-1.26-21.75-1.58l-7.75-.58v86.14l-3.25-.05c-1.79-.03-9.32-.41-16.74-.86l-13.49-.8-11.51 8.84-11.51 8.84-.26-52.33-.26-52.33-15.15-.66c-8.33-.36-20.25-.66-26.49-.66h-11.34v108.4m-304.5-96.35c-3.85.44-16.57 1.8-28.27 3.03s-21.9 2.73-22.67 3.33c-1.25.98-17.04 48.22-62.34 186.6-7.65 23.38-13.87 42.55-13.82 42.62.24.29 50.67-7.36 51.06-7.74.24-.24 3.45-11.45 7.14-24.9 3.69-13.46 6.97-24.79 7.3-25.17.9-1.05 11.46-2.52 44.6-6.2 16.5-1.83 30.22-2.97 30.5-2.53s3.42 11.18 7 23.86l6.5 23.07 3-.51c1.65-.28 13.77-1.42 26.94-2.52s24.07-2.14 24.23-2.3-13.47-40.76-30.28-90.23c-16.82-49.46-32.95-96.91-35.84-105.43-3.27-9.62-5.79-15.55-6.66-15.63-.76-.07-4.54.23-8.39.67m501.5 18.26v19.32l14.75 1.25c8.11.69 19.25 1.78 24.75 2.43l10 1.17.26 90.23.26 90.23 2.24.5c3.16.7 46.95 6.54 49.03 6.54 1.61 0 1.71-5.67 1.71-89.83 0-49.41.22-90.06.49-90.33.48-.47 23.61 2.53 41.76 5.42l8.75 1.39v-19.31c0-19.2-.01-19.31-2.25-19.83-8.07-1.88-143.46-18.51-150.72-18.51-.67 0-1.03 6.71-1.03 19.32m-681 6.08-24.5 4.17-.26 43.66c-.24 40.5-.39 43.69-2 44.13-.96.26-8.42 1.74-16.59 3.29l-14.85 2.82-11.9 12.31-11.9 12.31v-53.54c0-29.45-.18-53.54-.41-53.54-.47 0-46.96 9.7-50.34 10.5l-2.25.54v111.48c0 88.53.26 111.48 1.25 111.46.69-.01 12.5-2.62 26.25-5.8l25-5.78.26-47.57.26-47.57 3.24-.58c1.78-.32 14.17-2.85 27.52-5.63s24.72-5.05 25.25-5.05c.61 0 .97 17.4.97 47.08v47.08l2.75-.58c1.51-.32 12.42-2.38 24.25-4.57s22.51-4.23 23.75-4.52l2.25-.53V403.88c0-104.12-.09-109.97-1.75-109.87-.96.06-12.78 1.98-26.25 4.28m869.25 109.22.25 110.64 46 9.27c40.2 8.1 77.56 15.95 85.89 18.04l2.65.67-.27-18.78-.27-18.78-41-8.67-41-8.67-.27-28.35c-.15-15.59.08-28.64.5-29s17.19 2.77 37.27 6.96l36.5 7.61.27-17.95c.19-12.55-.07-18.16-.86-18.65-1.24-.77-46.46-9.95-48.99-9.95-.87 0-6.58 3.11-12.69 6.9s-11.36 6.64-11.67 6.33c-.88-.88-.66-72.23.22-72.23.43 0 17.63 3.38 38.21 7.5s38.24 7.5 39.23 7.5c1.69 0 1.79-1.2 1.54-18.24l-.27-18.24-9-1.7c-4.95-.93-23.07-4.42-40.27-7.74s-41.72-7.86-54.5-10.09c-12.78-2.22-24.25-4.27-25.49-4.54l-2.26-.5.26 110.65m-722.55-53.02c-18.84 63.28-23.39 78.91-23.07 79.3.17.21 6.18-5.23 13.36-12.08l13.05-12.46 15.5-1.51c8.53-.83 15.78-1.79 16.12-2.14.54-.54-21.38-80.01-23.48-85.11-.57-1.37-3.85 8.36-11.48 34m891.32 87.92v112.21l24.25 6.2c13.34 3.41 25.04 6.43 26 6.71 1.65.48 1.75-2.16 1.75-45.56 0-35.13.29-46.07 1.2-46.07 2.78 0 18.63 5.36 22.53 7.61 7.72 4.47 8.71 7.11 22.81 60.83 4.75 18.11 9.17 34.51 9.81 36.44l1.16 3.51 26.48 7.74c14.57 4.26 26.66 7.57 26.88 7.35s-6.75-23.39-15.48-51.5l-15.87-51.11-11.23-12.68-11.23-12.68 4.23-.25c27.19-1.58 38.89-14.31 38.83-42.25-.09-37.98-20.98-62.33-66.37-77.36-10.3-3.41-26.67-7.57-64.98-16.52l-20.75-4.85v112.21M328.41 340.91c-35.92 3.5-69.61 20.55-87.64 44.34-20.29 26.77-22.97 69.13-5.38 85.02 7.82 7.06 18.11 10.99 41.02 15.66 21.98 4.48 34.05 10.24 38.1 18.17 1.75 3.43 2.06 5.4 1.67 10.75-1.44 20.01-20.82 34.06-52.56 38.09-9.25 1.18-21.4-.21-28.49-3.26-2.63-1.13-4.91-1.88-5.07-1.67-.34.45-3.68 39.35-3.66 42.64.01 2.1.45 2.25 6.56 2.25 16.21 0 39.24-3.94 56.32-9.63 46.64-15.55 74.77-46.73 77.73-86.15 1.72-22.9-5.88-39.28-22.22-47.92-7.86-4.16-16.57-6.72-36.84-10.84-23.89-4.85-30.91-8.76-33.59-18.69-3.36-12.46 5.25-26.47 20.77-33.8 15.85-7.49 34.53-8.88 48.75-3.64 3.83 1.41 7.07 2.46 7.21 2.32.22-.22 3.33-41.01 3.33-43.64 0-1.15-14.19-1.16-26 0m1298.99 77.44v38.45l10.25-6.14c9.85-5.9 10.59-6.16 18.86-6.81 5.45-.43 9.73-1.33 11.66-2.47 6.62-3.91 9.67-15.5 7.28-27.66-3.3-16.78-12.91-25.11-36.05-31.29-5.22-1.39-10.06-2.53-10.75-2.54-.98 0-1.25 8.35-1.25 38.45" style="fill:#fff;fill-rule:evenodd"></path><path d="m798.44 105.56-181.47 69.45-56.02-13.1c-45.98-10.75-56.47-13.51-58.53-15.4-3.07-2.82-38.85-33.59-41.17-35.4-1.42-1.11-31.73 10.08-211 77.92-115.14 43.57-209.47 79.31-209.62 79.42-.16.11 2.86 12.97 6.7 28.58 27.59 112.08 41.89 216.68 48.25 352.88 1.6 34.31 1.59 149.57-.01 188.5-4.54 110.06-9.8 177.28-29.15 372.5-16.02 161.56-19.76 206.21-24.2 289-1.7 31.6-1.71 138.66-.03 162.5 10 141.34 39.14 253.98 93.78 362.5 32.88 65.3 72.04 122.91 124.38 182.94 17.98 20.62 67.67 70.43 87.24 87.45 101.76 88.48 223.42 156.31 411.82 229.58 42.45 16.51 78.17 29.78 156.25 58.04l65.75 23.8 65.75-23.8c181.06-65.54 256.44-96.32 344.16-140.54 90.37-45.56 158.98-90.62 223.91-147.09 31.8-27.65 83.2-81.21 111.76-116.45 113.23-139.7 176.1-301.42 191.84-493.44 3.03-36.99 3.86-67.04 3.26-118.5-.58-49.41-1.15-64.76-4.21-113.5-3.61-57.43-7.71-103.8-21.47-242.5-19.35-195.15-24.62-262.43-29.16-372.5-1.61-38.93-1.61-154.19-.01-188.5 6.37-136.46 21.11-243.83 48.73-355 3.48-14.02 6.02-25.8 5.64-26.16-.39-.36-79.28-22.91-175.32-50.11l-174.61-49.45-34.28-29.69c-23.89-20.69-34.77-29.51-35.89-29.1-.88.33-36.27 15-78.63 32.61l-77.03 32.01L1198.12 135c-81.25-22-148.54-40.59-149.53-41.31s-16.48-14.01-34.43-29.55-33-28.2-33.45-28.14-82.47 31.36-182.28 69.55m127.67 169.6c-5.09 7.84-18.01 27.92-28.72 44.64l-19.47 30.39-.5-43.87-.5-43.87-8 .31c-4.4.17-14.53.71-22.5 1.21s-16.41.92-18.75.93l-4.25.02v219.17l7.25-.61c9.56-.8 39.37-2.55 43.5-2.56h3.25V381.5l5.78 9.45c3.18 5.2 16.56 27.12 29.74 48.7l23.96 39.25h63.45l-12.29-18.75c-6.76-10.31-23.66-36.03-37.55-57.15s-25.46-38.93-25.71-39.58c-.44-1.14 59.22-88.83 68.9-101.27.77-.99-5.1-1.25-28.68-1.25h-29.65l-9.25 14.25m95.3 95.45v109.3h10.75c5.91 0 17.84.3 26.5.66l15.75.65V388.9h4.25c6.81 0 45.93 2.04 49.5 2.59l3.25.5v92.91h5.25c5.39.01 37.29 2.54 44 3.49l3.75.53V269.21l-15.25-1.17c-8.39-.64-20.31-1.46-26.5-1.81l-11.25-.64v86.46l-2.75-.52c-1.51-.29-9.06-.81-16.78-1.16l-14.03-.64-11.15 8.58c-6.14 4.72-11.41 8.58-11.72 8.58s-.56-23.37-.56-51.93v-51.93l-5.25-.55c-2.89-.3-14.81-.69-26.5-.87l-21.25-.32v109.3m-324.01-95.13c-11.83 1.29-23.97 2.71-27 3.15l-5.5.8-9.81 29.5c-23.54 70.8-65.68 200.35-65.3 200.73.23.23 11.94-1.27 26.02-3.34l25.6-3.76 1-3.57c.55-1.96 3.75-13.51 7.11-25.67l6.11-22.1 9.64-1.2c14.5-1.81 61.41-7.06 63.23-7.08 1.23 0 3.04 5.13 7.91 22.44 3.47 12.35 6.63 22.97 7.03 23.61.54.88 4.74.77 17.09-.42 9.01-.87 21.21-1.89 27.12-2.26 7.6-.48 10.75-1.04 10.75-1.93 0-.95-47.86-142.86-68.69-203.7l-2.65-7.75-4.08.1c-2.24.06-13.75 1.16-25.58 2.45m520 16.94c0 15.83.26 19.5 1.37 19.5 2.27 0 41.85 4.02 45.88 4.66l3.75.6v90.37c0 71.63.26 90.37 1.25 90.37.69 0 12.72 1.58 26.75 3.5s25.61 3.5 25.75 3.5.25-40.73.25-90.5c0-71.74.26-90.5 1.25-90.48 1.54.02 40.55 5.67 45.32 6.56l3.43.64v-20.11c0-11.46-.39-20.11-.91-20.11s-8.94-1.1-18.75-2.45c-44.89-6.17-124.21-15.54-131.59-15.55h-3.75zm-666 3.06c-7.42 1.29-19.23 3.33-26.24 4.54l-12.74 2.19-.26 43.59-.26 43.58-16.5 3.28-16.5 3.28-11.71 12.25-11.71 12.24-.04-53.25c-.03-41.9-.31-53.25-1.29-53.27-.69-.01-12.61 2.33-26.5 5.21l-25.25 5.22v112.36c0 106.54.09 112.33 1.75 111.84 2.4-.72 49.94-11.61 50.67-11.61.32 0 .58-21.34.58-47.43 0-44.31.11-47.47 1.75-47.96 1.43-.43 32.78-7.02 49.96-10.5 2.32-.47 4.45-.61 4.75-.32.29.3.54 21.39.54 46.87 0 36.4.27 46.34 1.25 46.34.69 0 12.61-2.1 26.5-4.67l25.25-4.68V403.73c0-60.95-.11-110.78-.25-110.72s-6.33 1.16-13.75 2.45m854 112.35v110.91l4.25.68c9.46 1.52 65.28 12.76 96.35 19.41 18.2 3.89 33.85 7.08 34.77 7.08 1.52 0 1.65-1.77 1.4-18.75l-.27-18.75-36-7.67c-19.8-4.22-38.36-8.19-41.25-8.82l-5.25-1.15v-28.43c0-15.64.2-28.43.45-28.43s16.72 3.38 36.62 7.5 36.58 7.5 37.08 7.5.79-8.08.63-18.75l-.27-18.75-25.64-5.28-25.64-5.28-9.64 6.01c-5.3 3.31-10.52 6.48-11.61 7.07-1.95 1.04-1.97.58-1.97-34.84v-35.89l36.75 7.35c20.21 4.04 37.99 7.61 39.5 7.94l2.75.59v-37.88l-5.75-1.16c-35.76-7.23-121.92-23.11-125.41-23.11-1.77 0-1.84 3.97-1.84 110.91m-715.4-71.72c-13.88 46.6-28.45 96.29-28.28 96.46.11.11 5.89-5.18 12.86-11.75l12.66-11.95 15.83-1.61c8.71-.88 15.93-1.69 16.05-1.79.2-.16-21.55-77.26-23.52-83.37-.57-1.78-1.85 1.41-5.6 14m884.39 106.25c0 106.21.1 112.46 1.75 112.95 5.72 1.69 49.1 12.62 50.07 12.62.89 0 1.18-11.4 1.18-46.07 0-43.4.1-46.04 1.75-45.56 19.57 5.62 22.68 6.98 26.53 11.55 3.79 4.5 5.06 8.51 17.18 54.36l11.17 42.22 27.44 8.1c15.09 4.46 27.57 7.99 27.74 7.86s-6.95-23.54-15.81-52.02l-16.12-51.78-10.87-12.21-10.87-12.21 8.5-1.1c15.03-1.94 24.32-7.77 29.72-18.65 7.91-15.93 5.45-43.65-5.52-62.32-4.7-7.99-16.99-19.8-26.55-25.51-10.25-6.12-23.86-11.73-38.95-16.07-10.82-3.11-75.31-18.6-77.41-18.6-.54 0-.91 45.97-.91 112.43M320.08 341.47c-46.9 7.3-83.21 35.04-93.73 71.6-2.58 8.96-3.65 27.77-2.06 36.22 1.54 8.19 5.18 15.67 9.99 20.47 7.52 7.52 18.56 11.75 46.09 17.64 16.78 3.59 24.4 6.76 30.21 12.57 3.75 3.74 4.81 5.58 5.36 9.31 1.97 13.15-7.36 27.5-22.81 35.07-11.94 5.86-21.18 7.86-36.73 7.96-12.54.08-13.96-.11-19.95-2.63-3.55-1.49-6.56-2.61-6.69-2.48-.46.46-4.29 46.09-3.91 46.47.21.22 7.06-.12 15.22-.74 56.28-4.31 99.42-27.67 117.35-63.54 6.46-12.94 8.1-19.34 8.71-34.04.58-13.95-.54-20.76-4.81-29.31-7.36-14.72-20.21-21.37-54.51-28.18-8.75-1.74-17.93-4.04-20.41-5.12-8.94-3.9-13.01-9.87-12.99-19.07.03-17.32 19.64-31.71 46.76-34.31 7.55-.72 18.24 1.11 25.7 4.41 2.49 1.1 4.58 1.92 4.64 1.81s.85-10.43 1.75-22.94l1.64-22.75-13 .1c-7.15.05-16.98.72-21.83 1.47m1307.34 76.44c0 20.9.18 38 .4 38s5.28-2.89 11.25-6.42c10.67-6.31 10.98-6.42 18.11-6.41 9 0 12.83-1.95 16.06-8.2 2.06-3.98 2.28-5.59 1.98-14.54-.3-8.97-.69-10.78-3.6-16.69-5.16-10.48-13.44-15.78-32.52-20.8-6.15-1.62-11.29-2.94-11.43-2.94s-.25 17.09-.25 37.99m-713.5 142.09c-215.76 5.62-429.85 38.73-635.88 98.35-14.23 4.12-26.08 7.69-26.33 7.94s-.31 1.32-.12 2.37c.31 1.82 1.63 1.64 25.33-3.45 151.46-32.54 317.58-54.98 483-65.26 81.45-5.06 128.57-6.43 221-6.44 107.76 0 182.51 2.79 279.5 10.44 148.58 11.72 304.09 34.45 440.25 64.35l10.75 2.36v-2.3c0-1.33-.74-2.53-1.75-2.83-254.36-76.59-525.65-112.57-795.75-105.53m-127.5 119.98c-120.73 8.41-175.07 14.36-233.64 25.61l-19.36 3.72v75.56l-.01 75.56-9.74 3.36c-68.32 23.54-135.5 62.82-190 111.07l-9.26 8.2-5.82-5.06c-3.2-2.78-6.08-5.06-6.41-5.06-.78 0-63.87 35.72-64.9 36.74-.68.68-19.34 50.13-24.9 65.98l-1.83 5.22 7.43 6.25c4.09 3.44 7.43 6.52 7.43 6.84s-2.95 5.73-6.56 12.03c-30.21 52.67-54.05 120.66-64.86 184.95-7 41.63-8.99 66.88-8.96 113.5.03 39.52 1.17 59.04 5.47 93.5 2.37 19.04 7.39 49.81 8.27 50.69.93.93 73.9 3.46 74.65 2.58.37-.43 1.2-9.86 1.85-20.97 4.39-74.86 20.74-152.21 47.1-222.8 12.85-34.41 37.15-86.3 53.07-113.31l6.07-10.3 6.7 5.87c3.68 3.23 23.57 20.42 44.2 38.2 20.62 17.78 38.14 32.92 38.93 33.65 1.22 1.13.12 4.01-7.67 20.1-51.03 105.3-71.12 220.52-58.21 333.79 13.62 119.42 61.63 231.62 138.7 324.16l10.13 12.16-102.14 88.34c-56.17 48.59-102.81 88.85-103.64 89.48-1.27.96-.12 2.75 7.39 11.5 12.91 15.03 71.04 72.87 73.2 72.84.99-.02 24.08-6.01 51.3-13.31l49.5-13.29 16.5-26.4 16.5-26.4.5 87.45.5 87.45 13.47 7.87c56.1 32.78 129.41 67.81 209.53 100.12 30.29 12.21 72.77 28.53 74.29 28.53.94 0 1.21-33.98 1.21-153.11 0-135.61.17-153.04 1.5-152.53.83.32 9.02 2.19 18.2 4.17 83.94 18.05 174.66 18.05 258.6 0 9.19-1.98 17.38-3.85 18.2-4.17 1.33-.51 1.5 16.92 1.5 152.53 0 119.12.27 153.11 1.21 153.11 1.53 0 44-16.31 74.29-28.53 79.31-31.99 146.33-63.93 207.72-99l15.72-8.98.28-87.43.28-87.43 16.56 26.38 16.56 26.38 49.44 13.27c27.19 7.3 50.25 13.28 51.24 13.3 2.16.03 60.29-57.81 73.2-72.84 7.51-8.75 8.67-10.54 7.4-11.5-.83-.62-47.47-40.89-103.64-89.48l-102.14-88.34 10.13-12.16c61.9-74.32 105.77-162.78 127.29-256.66 30.84-134.56 14.48-274.83-46.8-401.29-7.8-16.1-8.9-18.97-7.67-20.11.79-.73 18.31-15.86 38.93-33.64 20.62-17.77 40.51-34.96 44.19-38.19l6.68-5.87 5.24 8.79c7.42 12.46 29.7 56.36 36.44 71.8 37.76 86.51 59.28 175.05 64.59 265.8.65 11.11 1.48 20.55 1.85 20.97.75.88 73.72-1.65 74.65-2.58.33-.33 1.87-8.16 3.41-17.4 14.86-88.83 14.28-177.19-1.69-257.3-11.61-58.25-34.2-119.62-61.82-167.95-3.6-6.29-6.54-11.71-6.54-12.03s3.35-3.4 7.44-6.84l7.43-6.25-1.83-5.22c-5.77-16.43-24.16-65.24-24.83-65.91-1.07-1.07-64.09-36.8-64.91-36.8-.35 0-3.26 2.28-6.46 5.06l-5.82 5.06-9.26-8.2c-54.5-48.26-121.68-87.53-190-111.07l-9.74-3.36v-75.56l-.01-75.56-19.25-3.67c-59.8-11.41-118.97-17.9-229.25-25.18-20.9-1.38-40.81-2.77-44.25-3.1l-6.25-.59v140.19c0 118.93-.21 140.11-1.38 139.66-3.06-1.17-30.03-6.75-44.12-9.13-77.49-13.06-159.65-11.12-235.87 5.56-7.63 1.67-14.49 3.27-15.25 3.57-1.17.45-1.38-20.72-1.38-139.58V676.88l-2.75.12c-1.51.07-20.97 1.39-43.25 2.94M667.41 853.58c-42.86 4.39-74.9 10.4-111 20.84-71.27 20.61-137.06 55.41-193.09 102.15-13.75 11.47-23.93 20.84-23.84 21.95.04.49 4.05 4.26 8.92 8.38 7.55 6.4 8.66 7.72 7.56 9-32.5 37.71-42.82 49.54-43.37 49.74-.63.22-7.75-5.57-16.47-13.41l-3.8-3.41 6.6-25.08c3.63-13.79 6.4-25.28 6.15-25.52-.51-.51-41.61 22.32-43.26 24.03-1.27 1.32-19.4 50.07-19.4 52.17 0 .76 4.28 5.08 9.51 9.59l9.51 8.2-1.73 2.59c-4.63 6.96-17.12 29.04-23.25 41.09-33.03 65-52.77 139.27-59.13 222.5-1.49 19.51-1.49 72.46 0 93.5 1.86 26.3 7.72 75.03 9.19 76.41.22.21 8.72.7 18.9 1.1l18.5.72-.35-21.36c-.39-24.1 1.16-65.71 3.42-91.86 17.9-207.39 100.93-368.52 241.39-468.43 57.33-40.78 125.35-71.81 200.6-91.5 14.86-3.89 14.9-3.91 8.43-3.83-3.58.05-8.08.24-10 .44m606.01 1.61c.27.25 7.92 3.9 17 8.12 52.21 24.27 109.64 60.27 156.53 98.11 41.88 33.79 86.91 78.47 120.93 119.98 73.4 89.54 125.95 195.21 149.97 301.51 4.17 18.44 8.99 46.22 10.67 61.5.67 6.05 1.59 11.43 2.06 11.95 1.2 1.36 1.05-41.14-.22-60.04-8.04-119.72-54.71-240.05-130.16-335.63-22.08-27.97-56.99-64.16-82.32-85.34-70.87-59.26-149.01-97.98-241.95-119.9-1.65-.39-2.77-.51-2.5-.26M954.41 964.9c-117.6 5.81-227.62 45.06-321.5 114.69-123.76 91.79-207.15 231.1-229.46 383.31-4.7 32.08-5.45 43.83-5.45 85.5s.75 53.42 5.45 85.5c13.95 95.14 52.17 187.04 109.81 264 30.12 40.22 70.74 81.52 110.46 112.34 126.97 98.49 288.68 140.01 448.71 115.2 96.17-14.91 189.19-55.1 266.67-115.2 39.72-30.81 80.33-72.12 110.46-112.34 61.47-82.07 100.8-181.21 112.29-283 5.45-48.3 4.54-104.12-2.48-152-23.83-162.58-116.7-309.07-253.96-400.54-41.45-27.62-92.06-52.49-138.06-67.84-67.73-22.6-143.06-33.08-212.94-29.62m-436 23c-28.58 23.88-59.74 54.28-84.7 82.61l-6.2 7.04 43.88 37.92c24.14 20.86 44.31 37.92 44.83 37.92s4.61-4.14 9.07-9.19l8.12-9.19-.26-79.61-.26-79.62-14.5 12.12m911.02 67.44v79.86l8.12 9.01c4.46 5.05 8.55 9.19 9.07 9.19s20.7-17.07 44.83-37.92l43.88-37.92-6.2-7.03c-29.57-33.56-69.03-71.23-97.95-93.52-1.66-1.28-1.75 2.6-1.75 78.34m204.3-43.84c-8.69 7.49-16.18 13.97-16.66 14.42-.89.83 31.82 39.47 33.41 39.47s16.06-12.77 15.67-13.89c-.22-.61-3.7-12.93-7.73-27.36-4.04-14.44-7.69-26.25-8.12-26.25s-7.89 6.12-16.57 13.61m-615.41-1.36c-.26.57-12.6 95.27-12.44 95.47.19.25 61.42 8.28 63.17 8.28.64 0 1.41-2.68 1.8-6.25.37-3.44.91-7.65 1.21-9.35l.54-3.1-13.48-1.76-13.48-1.76-6.18 4.2c-3.4 2.31-6.33 4.04-6.52 3.85s2.14-19.61 5.17-43.16 5.32-43.01 5.09-43.25c-.7-.7-24.61-3.75-24.87-3.17m-108.37 3.91c-7.68 1.08-14.1 2.09-14.26 2.24-.16.16-5.62 22.9-12.14 50.55l-11.85 50.26 3.61-.56c1.98-.31 7.71-1.08 12.72-1.72l9.11-1.15 2.22-10.71 2.22-10.71 17.17-2.19c9.44-1.2 17.89-2.18 18.77-2.18 1.06 0 3.09 3.29 5.94 9.61l4.34 9.6 3.56-.56c1.96-.31 7.84-1.08 13.06-1.72s9.77-1.45 10.1-1.79c.92-.96-47.71-90.6-49.25-90.78-.74-.08-7.64.73-15.33 1.81m225.54 23.42c-13.97 37.34-31.17 84.64-30.88 84.93.58.58 60.13 22.53 60.35 22.25 1.15-1.44 6.24-17.35 5.7-17.81-.4-.33-6.03-2.54-12.52-4.9l-11.8-4.3-7.12 2.63c-3.92 1.44-7.22 2.52-7.34 2.38s6.26-17.8 14.19-39.25 14.66-39.93 14.95-41.06c.48-1.84-.71-2.52-10.93-6.25-6.31-2.3-11.7-4.19-11.99-4.19s-1.46 2.51-2.61 5.58m-227.39 23.52c-2.63 13.26-4.65 24.24-4.48 24.42.17.17 2.98-2.76 6.24-6.51 5.91-6.81 8.03-7.98 14.45-8.02 5.8-.03 5.69-.8-2.46-17.84-4.25-8.88-8-16.15-8.34-16.15s-2.77 10.85-5.41 24.1m-121.17-14.07c-5.57 1.14-10.31 2.91-31.32 11.69-13.95 5.83-18.22 8.03-17.91 9.21.63 2.38 35.92 86.46 36.62 87.22.69.76 36.84-14.26 44.96-18.68 12.46-6.78 18.15-14.65 18.14-25.05-.02-14.56-11.8-25.93-25.02-24.16l-4.02.54 3.15-3.59c6.44-7.33 7.66-15.91 3.52-24.8-4.96-10.66-14.99-15.08-28.12-12.39m-10.03 21.81c-8.11 3-9.64 4.05-8.96 6.18 2.04 6.43 7.63 17.44 8.72 17.2.7-.16 4.12-1.67 7.6-3.35 7.53-3.65 10.54-7.59 9.75-12.81-1.13-7.51-8.22-10.5-17.11-7.21m-113.47 44.29c-15.67 11.52-28.64 21.35-28.81 21.84-.36 1.03 9.61 15.03 10.7 15.03.4 0 7.2-4.72 15.09-10.49 7.9-5.77 14.47-10.38 14.61-10.25.13.13-.63 3.94-1.71 8.47l-1.95 8.23 19.18 26.27c10.55 14.45 19.29 26.42 19.44 26.6.38.47 19.89-13.82 20.26-14.84.23-.63-35.8-51.11-43.97-61.6-.72-.93 7.5-7.76 17.51-14.54 1.11-.75-9.3-15.85-10.85-15.73-.55.04-13.83 9.5-29.5 21.03m843.81 20.66c-24.58 21.28-44.72 39.08-44.75 39.57s3.46 5.67 7.77 11.5c4.3 5.84 9.53 12.99 11.62 15.9s4.11 5.16 4.51 5c.39-.16 20.98-17.84 45.76-39.28l45.04-38.99-2.29-3.36c-4.03-5.93-21.94-29.11-22.46-29.06-.28.02-20.61 17.45-45.19 38.72m-713.82-29.71c-3.03 1.12-6.74 2.5-8.25 3.06s-2.75 1.36-2.75 1.77c0 1.82 7.96 19.54 8.92 19.86 1.97.66 15.17-6.12 17.64-9.06 5.54-6.58.19-17.9-8.37-17.71-.93.02-4.16.95-7.18 2.08m488.99 16.19c-15.15 4.34-30.01 18.42-36.28 34.36-6.85 17.45-2.51 35.08 12.55 50.98 7.04 7.43 17.47 15.21 26.44 19.73 2.87 1.45 5.43 2.63 5.7 2.63s3.2-3.9 6.53-8.67l6.05-8.67-6.75-2.64c-9.2-3.6-13.9-6.76-20.03-13.47-9.14-10.01-10.56-21.49-4.14-33.53 3.87-7.27 9.27-12.36 16.67-15.75 14.44-6.61 34.05 2.56 42.93 20.08l2.5 4.93 6.91-6.86c3.8-3.77 6.91-7.32 6.9-7.89-.02-1.99-10-14.29-15.21-18.74-7.83-6.69-17.04-12.35-24.06-14.78-7.69-2.67-20.52-3.49-26.72-1.71m-908.39 23.85c-7.55 11.19-10.62 16.55-10 17.44.49.71 16.42 14.67 35.4 31.03s39.3 33.94 45.16 39.07l10.66 9.33 2.26-3.76c1.24-2.07 6.04-9.72 10.65-17s8.12-13.68 7.78-14.23c-.91-1.47-88.39-77.04-89.8-77.58-.71-.27-5.76 6.27-12.12 15.69m582.91 6.49c-143.47 9.38-270.74 94.44-333.48 222.88-27.22 55.71-40.25 112.37-40.25 175 0 45.01 6.44 85.11 20.36 126.79 32.41 97.03 102.86 179.5 193.38 226.36 45.43 23.51 87.95 36.53 140.5 43.01 20.37 2.51 67.59 2.51 87.96 0 26.27-3.24 48.3-7.77 71.02-14.61 123.46-37.17 222.14-132.8 262.87-254.76 20.61-61.72 25.86-129.24 15.06-193.79-14.2-84.9-58.08-166-121.59-224.71-63.18-58.41-140.48-94.02-226.34-104.27-12.99-1.55-56.59-2.74-69.5-1.9m2.51 24.97c-19.06 1.65-29.38 2.88-41.51 4.95-171.92 29.32-302.06 176.61-309.34 350.08-3.27 78 15.51 150.44 55.79 215.22 84.11 135.28 245.61 202.33 401.05 166.51 114.25-26.33 210.22-105.62 257.64-212.85 23.23-52.53 33.7-109.23 31.21-168.88-5.51-131.51-82.47-251.9-200.2-313.17-41.15-21.42-83.31-34.38-130.14-40-12.3-1.48-54.79-2.71-64.5-1.87m-375.11 8.77c-8.4 3.45-12.1 6.05-18.67 13.06-15.63 16.71-19.34 34.75-10.75 52.3 7.26 14.83 24.45 28.74 40.65 32.89 18.18 4.66 37.42-4.47 49.8-23.62 10.33-15.99 10.57-32.98.68-48.38-7.26-11.31-23.2-23.42-35.53-27.03-8.12-2.37-19.34-2.04-26.18.77m767.58 38.24c-20.33 15.67-37.54 29.06-38.24 29.77-1.04 1.04 2.35 6.01 18 26.43 10.6 13.83 19.67 25.17 20.14 25.19s3.85-2.3 7.5-5.16 6.82-5.32 7.03-5.47-3.35-5.19-7.92-11.19l-8.31-10.92-7.33-1.25c-4.03-.69-7.31-1.53-7.28-1.86s14.32-11.52 31.75-24.86 32.96-25.27 34.51-26.51l2.82-2.26-7.66-9.99c-4.21-5.49-7.75-10.08-7.85-10.19-.11-.11-16.83 12.62-37.16 28.29m-411.47-18.01c-53.92 6.46-104.42 25.04-149.9 55.15-14.07 9.32-35.89 26.17-41.33 31.93l-2.73 2.89 20.76 20.75 20.76 20.75 15.26-6.55c44.18-18.96 93.59-31.16 139.67-34.49 8.8-.64 17.91-1.38 20.25-1.65l4.25-.49v-89.88l-7.75.11c-4.26.06-12.92.73-19.25 1.49m55.01 43.33v44.94l4.25.49c2.34.27 11.45 1.01 20.25 1.65 46.08 3.33 95.48 15.53 139.67 34.49l15.26 6.55 20.76-20.75 20.76-20.75-2.73-2.89c-5.44-5.76-27.26-22.62-41.33-31.93-39.25-25.98-81.24-43.02-127.4-51.68-13.69-2.57-34.96-5.06-43.24-5.06h-6.26v44.94m-407.49-42.03c-4.49 1.12-6.9 2.64-10.32 6.54-8.42 9.58-5.65 22.12 7.68 34.84 10.09 9.62 23.22 14.49 31.61 11.73 4.76-1.57 10.46-6.58 12.18-10.71 2.17-5.2 1.69-12.23-1.25-18.12-7.18-14.4-28.19-27.18-39.9-24.27m832.97 92.45c-15.42 7.28-30.07 14.63-32.56 16.34-18.06 12.43-21.36 30.16-9.76 52.46 9.52 18.3 23.53 25.55 41.31 21.39 5.7-1.34 61.05-26.06 63.71-28.46.55-.49-8.25-20.51-9.61-21.88-.22-.22-12.92 5.48-28.23 12.67-28.47 13.37-34.67 15.49-41.14 14.04-4.65-1.05-9.7-6.41-11.17-11.87-1.49-5.53 1.1-11.49 6.64-15.33 2.19-1.52 16.33-8.61 31.42-15.75 15.08-7.14 27.57-13.42 27.75-13.95.29-.86-8.35-20.53-9.76-22.21-.31-.37-13.18 5.27-28.59 12.55m-908.44 1.23c-11.22 3.02-21.35 12.13-27.52 24.75-14.85 30.38-3.53 56.56 29.89 69.15 19.82 7.46 37.97 4.26 50.38-8.88 8.8-9.31 14.69-22.13 15.83-34.46 1.21-13.07-2.66-23.31-12.57-33.21-14.64-14.63-38.58-22.04-56.02-17.35m210.86 18.15c-16.83 17.95-35.43 44.79-48.91 70.61-19.02 36.41-30.16 71.68-36.68 116.14-2.53 17.23-2.53 70.77 0 88 7.76 52.9 23.65 97.41 49.76 139.34 7.81 12.55 25.56 36.27 33.78 45.16l6.01 6.5 19.45-19.37 19.45-19.37-6.54-9.63c-15.47-22.78-27.09-53.18-32.67-85.46-.85-4.93-3.5-13.76-5.99-20-5.26-13.15-9.73-29.89-12.24-45.77-2.54-16.08-2.54-54.73 0-70.81 2.51-15.88 6.98-32.62 12.24-45.77 2.49-6.24 5.14-15.07 5.99-20 5.58-32.28 17.2-62.68 32.67-85.46l6.54-9.63-19.14-19.12c-10.52-10.52-19.38-19.12-19.67-19.12s-2.12 1.69-4.05 3.75m492.46 15.51-19.14 19.25 5.99 8.5c15.21 21.6 27.66 53.91 33.27 86.33.85 4.93 3.5 13.76 5.99 20 5.26 13.15 9.73 29.89 12.24 45.77 2.54 16.08 2.54 54.73 0 70.81-2.51 15.88-6.98 32.62-12.24 45.77-2.49 6.24-5.14 15.07-5.99 20-5.58 32.28-17.2 62.68-32.67 85.46l-6.54 9.63 19.45 19.37 19.45 19.37 6.01-6.5c8.22-8.89 25.96-32.61 33.78-45.16 26.11-41.93 42-86.44 49.76-139.34 2.53-17.23 2.53-70.77 0-88-9.21-62.81-30.49-115.37-65.78-162.5-9.2-12.29-21.77-27.14-23.43-27.68-.55-.18-9.62 8.34-20.15 18.92m-252.35-12.59c-48.26 2.55-92.46 11.53-133 27.02-18.67 7.13-38.99 16.78-41.32 19.61-3.94 4.8-14.06 20.56-17.15 26.71-5.28 10.52-10.34 24-13.46 35.89-1.6 6.11-2.77 11.11-2.6 11.11s3.2-.89 6.71-1.98c33.04-10.2 92.1-21.24 136.31-25.46 51.18-4.89 113.82-4.89 165 0 32.35 3.09 71.08 9.38 102 16.58 12.46 2.9 36.88 9.3 39.93 10.47 3.33 1.28-6.88-30.52-14.96-46.61-3.15-6.27-13.42-22.23-17.15-26.66-3.62-4.29-32.43-17.04-57.17-25.3-47.57-15.88-105.13-23.92-153.15-21.38m-451.36 3.81c-8.23 2.93-14.83 13.68-13.03 21.19 2.05 8.54 9.24 16.26 19.86 21.33 18.16 8.67 33.84 6.1 39.65-6.48 5.39-11.68-1.8-24.19-18.42-32.06-11.08-5.25-20.66-6.6-28.06-3.97m939.7 94.86c-25.4 5.04-46.41 9.41-46.7 9.7-.85.86 8.02 43.95 10.29 50.03 5.16 13.8 12.01 20.09 22.6 20.76 13.94.89 23.99-6.71 26.07-19.69l.65-4.08 2.78 3.84c4.57 6.31 9.28 8.62 17.47 8.59 8.26-.03 13.65-2.41 18.31-8.06 6.45-7.82 6.69-17.86 1.13-46.23-4.51-23.02-4.8-24.21-5.77-24.09-.38.05-21.46 4.21-46.86 9.25m-995.3 2.43c0 .43-2.49 14.44-5.54 31.13-3.04 16.69-5.41 30.47-5.25 30.62.42.41 89.84 16.61 92.7 16.8 2.32.15 2.5-.33 4.71-12.3 1.26-6.85 2.2-12.53 2.09-12.61-.12-.09-8.54-1.63-18.71-3.42s-18.8-3.54-19.16-3.89c-.36-.34.65-7.6 2.26-16.13s2.8-16.38 2.66-17.45c-.21-1.56-1.57-2.2-6.76-3.19-11.29-2.14-10.38-2.83-12.63 9.54l-1.98 10.9 4.25 7.32c2.34 4.03 4.13 7.44 3.99 7.58-.3.3-29.91-4.89-30.5-5.34-.21-.16 1.09-8.42 2.88-18.37s3.05-18.28 2.81-18.52c-.41-.41-15.44-3.48-17.06-3.48-.41 0-.75.36-.75.79m475.49 16.36c-41.51 2.48-84.71 8.53-125 17.51-16.91 3.77-51.85 13.45-56.27 15.59-4.28 2.07-10.41 19.81-14.44 41.77-2.85 15.52-3.1 53.21-.46 68.5 2.23 12.89 5.79 26.28 9.61 36.16l3.04 7.84 12.26 3.73c35.19 10.72 77.6 19.61 117.76 24.69 37.7 4.77 52.3 5.56 103 5.56s65.3-.79 103-5.56c40.16-5.08 82.57-13.97 117.76-24.69l12.26-3.73 3.04-7.84c3.82-9.88 7.38-23.27 9.61-36.16 2.64-15.29 2.39-52.98-.46-68.5-4.03-21.96-10.17-39.7-14.44-41.77-1.44-.7-11.09-3.69-21.45-6.66-49.49-14.17-104.32-23.12-162.68-26.53-20.5-1.2-75.48-1.15-96.14.08m544.15 2.14-9.85 2.04.65 4.1c1.92 12.18 5.78 17.6 12.54 17.6 3.28 0 4.8-.63 7.1-2.92 2.45-2.46 2.92-3.73 2.92-7.95 0-5.62-1.8-15.18-2.83-15.02-.37.06-5.1 1.03-10.52 2.15m-34.66 6.89c-2.47.52-6.8 1.39-9.62 1.94l-5.12 1 1.3 6.22c2.42 11.56 5.17 16.04 10.55 17.22 3.26.72 9.14-.93 10.9-3.05 2.35-2.83 2.76-8.24 1.26-16.41-1.63-8.85-1.27-8.58-9.28-6.91m-539.82 26.32c-19.29 4.36-32.04 21.73-33.76 45.99-1.92 27.1 13.29 48.74 34.35 48.86 7.84.05 13.06-1.47 18.99-5.52 4.96-3.39 4.92-3.48 2.82 8.31-3.1 17.38-10.06 25.56-23.27 27.35-6.54.89-14.29-1.23-20.21-5.52-2.35-1.7-4.44-2.94-4.64-2.74s-.49 6.14-.66 13.21l-.3 12.86 6.98 2.37c31.75 10.78 55.29.25 65.92-29.49 9.46-26.49 8.32-72.07-2.38-94.94-7.84-16.75-25.2-24.96-43.85-20.75m73.84 39.02c0 37.44.1 39.69 1.75 39.04 5.34-2.12 16.36-3.66 22.58-3.17 16.39 1.3 24.67 11.41 23.44 28.58-.88 12.25-6.58 18.89-18.25 21.23-9.04 1.82-22.52-1.43-28.78-6.94-.97-.85-1.92-1.36-2.11-1.13-.2.23-.62 6.81-.94 14.64l-.58 14.23 6.36 1.96c34.96 10.8 65.03-2.8 73.08-33.05 1.9-7.14 1.86-23.9-.08-31.33-4.4-16.88-16.8-28.03-33.86-30.45-3.76-.53-9.03-.71-11.72-.39l-4.89.58v-28.28h9.78c12.53 0 25.11 1.59 31.33 3.95l4.89 1.86v-28.57l-12.25-.6c-6.74-.33-22.94-.89-36-1.24l-23.75-.64v39.73m123-33.56c-11.64 3.55-19.47 11.9-22.58 24.06-4.15 16.23 1.92 32.26 15.57 41.11l2.48 1.61-3.98 2.06c-12.61 6.54-19.33 19.99-18.2 36.46 1.2 17.58 11.8 30.08 28.52 33.63 21.24 4.51 47.24-6.18 55.71-22.9 4.82-9.52 5.18-22.52.86-31.61-2.67-5.64-9.4-12.16-16.27-15.78l-6.4-3.38 3.4-1.73c13.72-6.97 20.08-20.32 16.48-34.59-4.53-17.94-22.51-30.02-44.38-29.8-4.78.05-9.82.43-11.2.85m-276.86 3.62c-10.09 1.28-18.5 2.47-18.69 2.66-.42.42-4.46 23.99-4.46 26.04 0 1.29 1.23 1.16 8.2-.86 4.51-1.31 8.56-2.38 9-2.38s.8 23.6.8 52.44.36 52.66.8 52.94c.44.27 5.73.98 11.75 1.57s12.41 1.27 14.2 1.5l3.25.42v-136.87l-3.25.12c-1.79.06-11.51 1.16-21.6 2.44m82 15.96c-4.73 3.98-6.65 10.34-6.64 21.97.02 16.74 3.98 23.5 13.75 23.5 4.41 0 5.38-.41 8.28-3.48 3.83-4.06 5.46-10.18 5.46-20.52 0-15.97-4.46-24-13.32-24-3.38 0-5.28.64-7.53 2.53m203.62 2.04c-2.85 1.55-5.01 4.96-6.15 9.72-1.7 7.08 4.59 16.79 14.3 22.07 5.84 3.18 7.3 2.71 11.43-3.66 6.37-9.82 3.77-23.35-5.37-27.94-4.22-2.12-10.5-2.2-14.22-.19m-.29 60.81c-9.48 9.89-10.14 27.46-1.28 33.95 3.38 2.47 12.04 2.65 16.51.34 10.29-5.32 11.26-23.23 1.71-31.6-3.23-2.84-10.43-7.05-12.04-7.05-.39 0-2.6 1.97-4.9 4.38m-625.31 48.75c-5.68 7.78-10.55 14.69-10.8 15.35-.26.68 6.07 6.03 14.57 12.32l15.04 11.11 5.51-7.46c3.03-4.1 7.99-10.81 11.01-14.91 3.03-4.09 5.48-7.81 5.47-8.25-.03-.78-27.74-21.4-29.56-21.99-.5-.16-5.56 6.07-11.25 13.84m973.63-3.41c-8.09 5.92-14.72 11.11-14.74 11.56-.02.44 2.44 4.16 5.46 8.25 3.03 4.1 7.98 10.81 11.01 14.91l5.51 7.46 14.99-11.07c8.24-6.09 14.99-11.4 14.99-11.8 0-.91-20.92-29.47-21.85-29.81-.37-.14-7.29 4.59-15.38 10.5m-696.72 60.28c5.1 19.45 12.42 36.01 22.76 51.47 8.79 13.16 9.59 13.86 22.2 19.57 45.46 20.56 87.48 31.73 139.5 37.05 25.72 2.63 70.17 1.42 99.5-2.71 31.59-4.45 66.89-13.74 95.5-25.16 18.55-7.4 32.98-14.37 35.34-17.07 3.92-4.49 14.17-20.29 17.63-27.18 8.1-16.13 18.29-47.89 14.95-46.61-.81.31-8.09 2.37-16.19 4.57-40.65 11.07-85.7 18.86-137.22 23.74-14.9 1.41-28.7 1.75-71 1.75s-56.1-.34-71-1.75c-51.52-4.88-96.57-12.67-137.22-23.74-8.1-2.2-15.39-4.26-16.19-4.57-1.16-.44-.85 1.81 1.47 10.63m626.08 65.5c-3.39 6.34-6.16 11.73-6.16 11.98s5.89 8.38 13.08 18.07 12.9 17.79 12.68 18.01-8.24-.04-17.83-.57-19.47-.98-21.97-.99l-4.54-.02-6.77 12.61c-3.72 6.94-6.63 12.69-6.46 12.78s16.06-.22 35.31-.69l35-.86 15.23 8.15c8.38 4.48 15.58 7.93 16 7.66s3.24-5.27 6.27-11.11c5.32-10.26 5.43-10.65 3.5-11.82-1.1-.66-8.28-4.58-15.96-8.71l-13.96-7.51-18.04-29.24c-9.92-16.08-18.31-29.24-18.63-29.25-.33 0-3.36 5.17-6.75 11.51m-839.66 6.97c-10.35 2.93-21.6 9.59-29.57 17.5-15.51 15.39-17.91 31.34-7.95 52.74l2.9 6.23-3.41 10.12-3.41 10.12 6.61 11.95c3.64 6.58 6.96 11.59 7.38 11.15s2.38-6.62 4.35-13.71c1.97-7.1 3.74-13.07 3.94-13.26.2-.2 3.01.86 6.26 2.35 7.76 3.56 20.29 4.36 29 1.84 16.37-4.73 33.46-17.8 39.6-30.27 4.32-8.78 5.08-20.72 1.95-30.93-4.45-14.56-14.89-27.61-26.74-33.44-6.03-2.97-7.77-3.35-16.33-3.57-5.97-.15-11.46.29-14.58 1.17m222.2 42.32-20.8 20.82 4.8 4.49c14.8 13.82 40.5 32.03 62.62 44.38 44.12 24.62 98.41 40.3 147.93 42.73l5.75.28v-90.36l-5.25-.54c-2.89-.29-9.75-.8-15.25-1.13-46.2-2.75-99.65-15.82-145-35.46-6.6-2.86-12.45-5.39-13-5.62s-10.36 8.95-21.8 20.4m400.3-17.62c-43.73 20.32-103.61 35.46-151.5 38.31-5.5.33-12.36.84-15.25 1.13l-5.25.54v90.36l5.75-.28c49.52-2.43 103.81-18.11 147.93-42.73 22.13-12.35 47.83-30.56 62.62-44.38l4.8-4.49-20.8-20.81c-11.44-11.45-21.02-20.78-21.3-20.74s-3.43 1.43-7.01 3.09m-609.99-1c-12.02 1.82-27.15 12.11-32 21.76-4.34 8.63-1.98 18.93 5.67 24.76 3.42 2.6 4.35 2.81 12.81 2.81s9.61-.24 16.78-3.78c19.61-9.7 27.61-25.24 19.39-37.67-4.47-6.76-12.22-9.45-22.65-7.87m765.09 78.25c-10.51 4-19.11 10.75-36.12 28.35-8.78 9.09-15.97 16.85-15.97 17.24 0 .59 42.68 41.7 64.11 61.75l5.61 5.25 15.04-16.05c16.58-17.7 22.97-26.4 26.91-36.66 3.41-8.88 3.59-19.29.48-27.31-4.62-11.92-17.62-25.45-30.12-31.35-9.09-4.29-20.63-4.76-29.92-1.23m-714.96 28.28-46.35 20.59 9.03 9.03 9.03 9.03 9.12-4.24c5.02-2.33 9.69-4.1 10.39-3.93s6.83 6.08 13.63 13.14l12.37 12.82-4.77 9.59-4.77 9.59 9.54 9.54c5.25 5.25 9.74 9.33 9.98 9.08s9.97-21.27 21.62-46.7l21.17-46.24-10.28-11.01c-5.66-6.05-10.98-10.98-11.83-10.95s-22.4 9.32-47.89 20.64m715.26-5.31c-5.2 1.69-11.65 6.17-17.36 12.05l-4.46 4.59 15.46 14.73c8.51 8.1 18.19 17.32 21.53 20.47l6.06 5.74 6.65-7.61c12.82-14.67 12.97-26.26.51-39.9-8.19-8.96-19.5-12.98-28.39-10.09m-696.01 21.48-22.11 10.67 4.11.68c2.26.37 6.35.71 9.08.75 4.6.07 5.35.45 10.22 5.27 2.89 2.86 5.42 4.99 5.63 4.75.53-.63 16.68-32.21 16.68-32.61 0-.8-2.69.4-23.61 10.49m607.38 27.03c-5.35 3.1-9.74 6-9.75 6.45-.07 2.67 28.9 50.56 36.39 60.15 3.7 4.74 2.67 4.17-7.81-4.29-4.4-3.55-19.18-13.85-32.85-22.88l-24.85-16.42-13.98 8.17-13.98 8.18 2.15 3.64c1.18 2 12.25 20.81 24.59 41.8l22.44 38.16 8.69-5.05c4.78-2.78 9.24-5.55 9.9-6.16.93-.85-.98-4.92-8.25-17.53-11.75-20.39-17.03-28.88-24-38.6-3-4.18-5.46-7.81-5.46-8.05s3.24 2.28 7.2 5.6c8.45 7.09 20.88 15.64 44.08 30.32l16.78 10.62 13.47-7.74c9.56-5.49 13.36-8.2 13.1-9.31s-46.88-81.28-48.02-82.56c-.07-.08-4.5 2.4-9.85 5.5m-534.52 38.55c-12.78 22.22-23.47 41.02-23.75 41.77-.35.92 3 3.4 10.19 7.55l10.72 6.19 5.15-8.81c2.83-4.84 7.09-12.22 9.47-16.39l4.32-7.58 3.97 2.19c2.18 1.2 5.48 3.66 7.34 5.47 2.93 2.85 3.37 3.93 3.37 8.22 0 2.72-1.35 11.11-3 18.66s-3 13.83-3 13.95c0 .44 23.19 13.53 23.41 13.21.13-.18 1.67-8.65 3.42-18.82 3.54-20.49 3.88-26.72 1.69-30.95l-1.48-2.85 5.94.54c5.07.46 6.74.15 11.38-2.12 8.55-4.18 13.89-12.68 13.91-22.12.03-11.79-8.37-19.99-37.65-36.74-11.29-6.46-20.9-11.75-21.35-11.75s-11.27 18.18-24.04 40.41m30.79-2.84c-3.4 5.83-6.04 10.74-5.86 10.91s4.36 2.43 9.29 5.01c7.51 3.92 9.6 4.6 12.85 4.17 7.79-1.04 12.43-9.2 9.16-16.1-.97-2.04-3.16-4.76-4.86-6.05-2.99-2.25-13.33-8.54-14.04-8.54-.19 0-3.13 4.77-6.53 10.59m251.23 17.69c-1.77 2.87-4.18 6.69-5.35 8.47l-2.12 3.25 9.35-.06 9.35-.06 7.85-8.44 7.86-8.44-11.86.03-11.85.03-3.22 5.22m-534.91 84.73c-51.63 44.64-94 81.69-94.16 82.34-.31 1.33 33.02 36.12 42.96 44.84l6.49 5.69 28.42-44.6 28.42-44.6 55-47.61c30.25-26.18 54.99-48.05 54.98-48.59s-6.37-7.2-14.12-14.81l-14.1-13.83-93.88 81.17m394.81-70.76c-30.12 40.85-53.2 72.74-53.2 73.52 0 .52 4.61 2.19 10.25 3.72l11.79 3.2c1.04.29 3.57-2.51 7.77-8.58 5.95-8.6 6.35-8.96 8.96-8.12 1.5.49 9.56 2.75 17.9 5.04l15.17 4.15.7 10.81.7 10.81 13 3.64c7.15 2 13.12 3.5 13.27 3.34.66-.74-9.3-101.97-10.1-102.68-.79-.68-27.14-8.12-28.78-8.12-.33 0-3.68 4.16-7.43 9.25m252.95-4.21c-7.9 2.12-14.53 4.03-14.73 4.24-.43.43-11.18 102.09-10.84 102.56.12.17 5.64-1.13 12.26-2.89l12.04-3.2.58-6.61c.32-3.64.91-8.6 1.31-11.02l.74-4.41 16.5-4.32c9.07-2.38 17.18-4.33 18-4.34.83 0 3.95 3.81 6.94 8.48 2.99 4.68 6 8.5 6.7 8.5 1.36 0 24.61-6.09 25.24-6.61.46-.38-59.17-84.31-59.88-84.27-.28.02-6.96 1.77-14.86 3.89m-114.99 13.06c-13.66 1.77-27.61 8.66-34.08 16.83-15.89 20.06-14.33 54.88 3.16 70.61 5.6 5.04 12.46 8.53 21.77 11.09 11.36 3.12 47.1 2.04 53.01-1.61.9-.56 1.37-7.86 1.76-27.38l.53-26.62h-39.29v18h15.29l-.58 9.63c-.32 5.3-1.02 10.08-1.57 10.63-.58.58-4.7.82-9.89.57-7.58-.36-9.69-.87-14.32-3.46-6.04-3.37-11.14-9.87-13.1-16.71-.66-2.29-1.18-7.87-1.15-12.4.04-7.21.45-9.07 3.25-14.75 5.71-11.59 15.11-16.57 31.28-16.58 6.73 0 10.35.57 16 2.53 4.01 1.4 7.73 2.65 8.25 2.79.74.2 3.71-18.04 3.09-18.96-.47-.71-13.3-3.36-20.51-4.24-9.5-1.16-13.67-1.15-22.87.04m-136.84 27.72c-7.78 11.38-14.04 20.82-13.89 20.96.14.15 4.04-1.54 8.65-3.75l8.39-4.03 6.76 1.94 6.76 1.94-.65-12.68c-.36-6.98-.92-15.47-1.26-18.88l-.61-6.19zm256.62-16.76c-.02 1.35-.68 10.55-1.48 20.45s-1.46 20.25-1.46 23v5l5.12-7.76c4.92-7.43 5.38-7.83 10.74-9.32 3.08-.85 6.18-1.74 6.88-1.96 1.41-.45.55-1.96-11.06-19.45-8.51-12.81-8.7-13.04-8.74-9.95m287.53 3.63c-2.75 2.54-9.28 8.21-14.5 12.61s-9.5 8.31-9.5 8.68 14.1 12.88 31.34 27.79l31.34 27.11 27.53 42.35 27.53 42.35 41.13 11.05c22.62 6.08 41.29 10.91 41.5 10.74.2-.17-12.4-20.31-28-44.77l-28.37-44.47-56.76-49.07c-31.22-26.99-57.09-49.05-57.5-49.03s-2.99 2.11-5.74 4.65" style="fill-rule:evenodd" data-source="https://football-logos.cc"></path><path d="M786.41 679.96c-120.73 8.41-175.07 14.36-233.64 25.61l-19.36 3.72v75.31c0 41.42.22 75.31.49 75.31s8.26-2.24 17.75-4.98c52.54-15.16 101.66-22.02 157.65-22.01 27.3 0 45.17.95 67.1 3.54 20.93 2.47 21.05 1.9-2 9.45-81.49 26.7-156.07 65.54-224.25 116.79l-16.75 12.59v159.26l18.75-18.63c77.91-77.41 169.99-130.11 276-157.96l4.25-1.12V676.92l-2.75.12c-1.51.07-20.97 1.39-43.25 2.94m344.01 136.8v140.04l4.25 1.12c105.99 27.84 197.74 80.36 276 157.96l18.75 19.3V975.18l-16.77-12.55c-68.89-51.58-144.17-90.68-225.73-117.26-21.41-6.98-21.38-6.47-.5-8.93 21.93-2.59 39.81-3.53 67.1-3.54 55.99 0 105.11 6.85 157.65 22.01 9.49 2.74 17.48 4.98 17.75 4.98s.49-33.89.49-75.31v-75.31l-19.25-3.67c-59.8-11.41-118.97-17.9-229.25-25.18-20.9-1.38-40.81-2.77-44.25-3.1l-6.25-.59v140.04M588.77 2067.95l-31.14 26.97-12.11 19.39-12.11 19.39.26 87.84.26 87.84 13.47 7.87c56.1 32.78 129.41 67.81 209.53 100.13 30.29 12.21 72.77 28.53 74.29 28.53.94 0 1.21-33.95 1.21-152.96v-152.96l-4.25-1.09c-68.86-17.69-138.27-49.7-195.39-90.11-6.13-4.33-11.53-7.86-12-7.84s-14.88 12.18-32 27.01m743.12-20.5c-42.06 30.48-99.9 60.05-152.21 77.81-14.25 4.84-33.74 10.73-45.04 13.62l-4.25 1.09v152.96c0 119.01.27 152.96 1.21 152.96 1.53 0 44-16.31 74.29-28.53 79.31-31.99 146.26-63.89 207.72-99l15.72-8.98.03-87.85.03-87.85-12.14-19.43-12.14-19.43-30.94-26.71c-17.02-14.69-31.47-26.82-32.11-26.95-.65-.13-5.22 2.7-10.17 6.29" style="fill-rule:evenodd;fill:#ff4a0c" data-source="https://football-logos.cc"></path><!-- source: https://football-logos.cc --></svg>