<svg xmlns="http://www.w3.org/2000/svg" style="shape-rendering:geometricPrecision;text-rendering:geometricPrecision;image-rendering:optimizeQuality;fill-rule:evenodd;clip-rule:evenodd" viewBox="-0.5 -0.5 1280 1280"><!-- Source: https://football-logos.cc --><path fill="#ded0b2" d="M607.5-.5h64l5 2h-75z" style="opacity:1" data-source="https://football-logos.cc"></path><path fill="#eedcc8" d="M687.5 1.5q7.516-.25 15 .5.834.575 1 1.5-8.656.92-16-2" style="opacity:.086"></path><path fill="#f1e4d2" d="M837.5 31.5q-3.873.712-6-2-.197-1.314 1-2a107 107 0 0 1 5 4" style="opacity:.063"></path><path fill="#e3d1ac" d="M900.5 55.5a306 306 0 0 0 14 5q1.668 1.148 2 3a177 177 0 0 1-14-5q-1.668-1.148-2-3" style="opacity:1"></path><path fill="#dfcba8" d="M374.5 57.5q-1.095 1.818-3 3a60.4 60.4 0 0 1-14 5q7.079-6.55 17-8" style="opacity:1"></path><path fill="#dec7a1" d="M916.5 63.5q11.143 3.027 20 10a472 472 0 0 1-15-5q-2.309-2.862-5-5" style="opacity:1"></path><path fill="#e2cfb1" d="M1099.5 195.5a63.4 63.4 0 0 1 10 9 5.56 5.56 0 0 1 1 3c-4.7-3.035-8.37-7.035-11-12" style="opacity:1"></path><path fill="#debf90" d="M1111.5 207.5c3.65 4.907 7.98 9.24 13 13a98 98 0 0 1 7 11c-2.21-2.201-4.88-3.534-8-4v-4c-3.51.042-6.84-.624-10-2 .17-1.322-.16-2.489-1-3.5a4.94 4.94 0 0 1 3-.5c-1.33-3.333-2.67-6.667-4-10" style="opacity:1"></path><path fill="#ddc091" d="M127.5 255.5a68 68 0 0 1-4 8 7.3 7.3 0 0 0 2 3q-3.969 2.448-4 7-2.217-.393-4 1-6.635 6.126-12 13a32 32 0 0 1 3-7 502 502 0 0 1 19-25" style="opacity:1"></path><path fill="#dbbc8a" d="M85.5 319.5a30 30 0 0 0-2 7l1 3a12.4 12.4 0 0 0 2.5-4q1.05 5.106-2.5 9-1.238 1.329-3 1 .393-2.217-1-4-3.115 2.364-4.5 6a72.6 72.6 0 0 0 1.5 12q-3.105.077-5.5-2l-1.5 1a55.7 55.7 0 0 0-1.5 9q-.803-2.656-2.5-1-3.785 6.06-5 13 .324 2.826 2 5a56.4 56.4 0 0 0-8 3q11.985-30.98 30-58" style="opacity:1"></path><path fill="#eefde6" d="M19.5 463.5q2.755.209 1 2-1.195-.686-1-2" style="opacity:.012"></path><path fill="#ebd4b4" d="M3.5 568.5a1004 1004 0 0 1-4 55v-28a2598 2598 0 0 0 4-27" style="opacity:1"></path><path fill="#fcedd1" d="M1277.5 601.5c.67 2 1.33 4 2 6v64h-1c.33-20.174 0-40.174-1-60z" style="opacity:1"></path><path fill="#d9c199" d="M1277.5 611.5c1 19.826 1.33 39.826 1 60a870 870 0 0 0-1.5 28q-.315 2.337-1.5 4c1.49-30.645 2.15-61.311 2-92" style="opacity:1"></path><path fill="#e5d7c1" d="M-.5 665.5q2.582 10.13 2 21l-2-5z" style="opacity:1"></path><path fill="#e6c9ad" d="M6.5 735.5q3.735 7.377 3 16-1.083-.626-1.5-2a200 200 0 0 1-1.5-14" style="opacity:1"></path><path fill="#eddfc6" d="M11.5 767.5q4.447 7.047 4 16-2.905-7.617-4-16" style="opacity:.035"></path><path fill="#eee0c8" d="M1251.5 825.5c.03 4.588-1.31 8.588-4 12 .73-4.287 2.07-8.287 4-12" style="opacity:.043"></path><path fill="#e0c79e" d="M45.5 879.5q1.852.332 3 2 1.684-2.683 4-1a16.2 16.2 0 0 0-2 5 221 221 0 0 1 5 16q-1.875-.116-2.5-2a230 230 0 0 0-7.5-20" style="opacity:1"></path><path fill="#e3ca9d" d="M1225.5 895.5a958 958 0 0 1-8.5 22q-1.86 3.539-4.5 6a291 291 0 0 1 9-22q-.135-2.888-3-3.5c1.8-2.103 4.14-2.936 7-2.5" style="opacity:1"></path><path fill="#dbc18f" d="M268.5 1161.5c1.788-.29 3.455.05 5 1 2.899 1.22 5.399 2.89 7.5 5q4.447-1.365 5.5-6a36.9 36.9 0 0 1 1 12q5.35 1.23 8 6a117 117 0 0 1-27-18" style="opacity:1"></path><path fill="#e0c79a" d="M959.5 1193.5a123 123 0 0 1-13 9c-1.189.93-2.522 1.26-4 1 2.111-2.29 3.611-4.96 4.5-8 .414.46.914.79 1.5 1a57.6 57.6 0 0 1 11-3" style="opacity:1"></path><path fill="#dec293" d="M891.5 1227.5c-1.237 1.6-2.904 2.76-5 3.5a649 649 0 0 1-23 8.5q.332-1.845 2-3c-.667-.67-1.333-1.33-2-2q3.626-.855 6.5-3c.414.46.914.79 1.5 1 3.33-.59 6.664-1.26 10-2-1.505-1.34-2.172-3.01-2-5 3.753 1.64 7.753 2.31 12 2" style="opacity:1"></path><path fill="#d7b578" d="M601.5 1.5h86q7.344 2.92 16 2 7.567.165 14.5 0l1.5 1.5q53.117 6.123 104 21 4.03 1.752 8 3.5 2.127 2.712 6 2 32.388 9.151 63 24 .332 1.852 2 3a177 177 0 0 0 14 5q2.691 2.138 5 5a472 472 0 0 0 15 5q58.214 28.639 108 71a457 457 0 0 1 55 51c2.63 4.965 6.3 8.965 11 12h1c1.33 3.333 2.67 6.667 4 10a4.94 4.94 0 0 0-3 .5c.84 1.011 1.17 2.178 1 3.5 3.16 1.376 6.49 2.042 10 2v4c3.12.466 5.79 1.799 8 4 1.86 1.32 3.53 2.987 5 5q1.23 1.329 3 1 .255 4.003 3 7c50.92 64.501 88.08 136.168 111.5 215 13.22 46.417 21.05 93.75 23.5 142v10c.15 30.689-.51 61.355-2 92q-4.455 62.814-24 122c-1.93 3.713-3.27 7.713-4 12-5.21 20.226-12.55 39.559-22 58-2.86-.436-5.2.397-7 2.5q2.865.612 3 3.5a291 291 0 0 0-9 22c-25.88 55.093-59.71 104.76-101.5 149-.48.95-.65 1.95-.5 3-1.18-.22-2.18.11-3 1-42.24 45.61-90.24 84.28-144 116-1.189.93-2.522 1.26-4 1a57.6 57.6 0 0 0-11 3 3.6 3.6 0 0 1-1.5-1c-.889 3.04-2.389 5.71-4.5 8q-24.198 15.165-51 24c-4.247.31-8.247-.36-12-2-.172 1.99.495 3.66 2 5-3.336.74-6.67 1.41-10 2a3.6 3.6 0 0 1-1.5-1q-2.874 2.145-6.5 3c.667.67 1.333 1.33 2 2q-1.668 1.155-2 3-40.014 16.14-82 24a156 156 0 0 1-23 2.5c.333.33.667.67 1 1-3.667.33-7.333.67-11 1a56 56 0 0 0-8 3.5 296 296 0 0 1-53 6c-11.052-.64-21.719.02-32 2h-32c-9.946-1.98-20.279-2.64-31-2-53.987-2.95-106.654-13.12-158-30.5-34.824-12.4-68.824-27.07-102-44a848 848 0 0 1-37-23.5q-2.65-4.77-8-6 .486-6.075-1-12-1.053 4.635-5.5 6c-2.101-2.11-4.601-3.78-7.5-5-1.545-.95-3.212-1.29-5-1-48.247-33.74-90.913-73.58-128-119.5q-5.23-6.495-10-13.5c-.825-.89-1.825-1.22-3-1 .262-1.48-.071-2.81-1-4q-37.548-50.794-66-107.5a85 85 0 0 1-5-14.5 221 221 0 0 0-5-16 16.2 16.2 0 0 1 2-5q-2.316-1.683-4 1-1.148-1.668-3-2a562 562 0 0 1-30-96q.447-8.953-4-16a68.2 68.2 0 0 1-2-16q.735-8.623-3-16-4.568-24.085-5-49 .582-10.87-2-21v-42a1004 1004 0 0 0 4-55q10.036-100.497 52-191a56.4 56.4 0 0 1 8-3q-1.676-2.174-2-5 1.215-6.94 5-13 1.697-1.656 2.5 1a55.7 55.7 0 0 1 1.5-9l1.5-1q2.395 2.077 5.5 2a72.6 72.6 0 0 1-1.5-12q1.385-3.636 4.5-6 1.393 1.783 1 4 1.762.329 3-1 3.55-3.894 2.5-9a12.4 12.4 0 0 1-2.5 4l-1-3a30 30 0 0 1 2-7 466 466 0 0 1 14-25 42.5 42.5 0 0 1 6-7q5.365-6.874 12-13 1.783-1.393 4-1 .031-4.552 4-7a7.3 7.3 0 0 1-2-3 68 68 0 0 0 4-8q60.885-82.813 145-140.5 38.259-26.938 81-49a8.44 8.44 0 0 1 4-.5 60.4 60.4 0 0 0 14-5q1.905-1.182 3-3 8.949-5.445 19-9.5a2906 2906 0 0 0 53-20.5l2 1q74.374-24.059 153-27m471 334c-.01 2.501-.68 2.668-2 .5a2.42 2.42 0 0 1 2-.5" style="opacity:1"></path><path fill="#056748" d="M671.5 1251.5h-64c-10.662-.74-21.328-1.41-32-2q-12.51-3.855-26-3c-183.912-31.05-327.079-124.72-429.5-281q-125.327-206.906-82-446Q95.915 258.758 320.5 116q227.78-133.686 485-66 245.191 74.12 372 296.5c75.53 143.936 93.36 294.936 53.5 453-53.28 180.892-164.12 312.73-332.5 395.5-71.951 33.07-147.618 51.9-227 56.5m401-916a2.42 2.42 0 0 0-2 .5c1.32 2.168 1.99 2.001 2-.5" style="opacity:1"></path><path fill="#fafcfc" d="M594.5 1085.5c4.93-.3 9.763.03 14.5 1l27 63a3560 3560 0 0 0 29-62c4.737-.97 9.57-1.3 14.5-1q1.968 40.485 3 81h-14a946 946 0 0 0-2.5-48 10176 10176 0 0 0-23 47q-6.675 1.95-13.5 0c-7.333-15.67-14.667-31.33-22-47a1224 1224 0 0 0-4 48h-14c1.49-27.34 3.156-54.68 5-82M775.5 1066.5h6a59.5 59.5 0 0 1 2 13c-13.679 2.67-27.346 5.5-41 8.5q-1.212.465-2 1.5a177 177 0 0 1 4.5 18 3.9 3.9 0 0 0 2 1 337 337 0 0 1 37.5-8 58.5 58.5 0 0 0 2 10.5 3.95 3.95 0 0 1-1 2 1171 1171 0 0 1-36 8.5l-1 1.5a245 245 0 0 1 4 18.5 645 645 0 0 1 44-9 59.5 59.5 0 0 1 2 13 1604 1604 0 0 0-54.5 12c-.833-.33-1.667-.67-2.5-1q-9.885-38.775-18-78 26.275-5.565 52-12M499.5 1064.5a1759 1759 0 0 0 54 15.5c1.016.52 1.682 1.35 2 2.5a138 138 0 0 0-2.5 9c-.388.93-1.055 1.59-2 2a3513 3513 0 0 1-40.5-12 112 112 0 0 0-6 20 575 575 0 0 0 37 10 43.9 43.9 0 0 1-2.5 11c-.519 1.02-1.353 1.68-2.5 2a576 576 0 0 0-37-10 108.8 108.8 0 0 0-4 20c13.71 3.51 27.377 7.18 41 11a77.4 77.4 0 0 1-2.5 12 3.9 3.9 0 0 1-2 1 1838 1838 0 0 1-54-16 1129 1129 0 0 1 21.5-78M404.5 1029.5c9.273-.76 18.273.41 27 3.5a181 181 0 0 1 22 13c2.274 1.77 3.941 3.93 5 6.5a91 91 0 0 1-7.5 10 107 107 0 0 0-25.5-16.5q-34.056-7.71-39 27 1.22 15.45 14 24a146 146 0 0 0 26 10.5c1.114 1.22 1.281 2.56.5 4a57 57 0 0 0-2.5 7q-26.025-1.95-44.5-21c-13.243-21.71-10.743-41.54 7.5-59.5 5.212-3.94 10.879-6.77 17-8.5M878.5 1018.5a1426 1426 0 0 1 38 70.5q-.389 1.89-2 3a36 36 0 0 0-7 4c-1.444.78-2.777.61-4-.5a1649 1649 0 0 0-25.5-48 3964 3964 0 0 1-13.5 71c-3.439 1.8-6.939 3.47-10.5 5-1.767-.84-3.101-2.17-4-4a6184 6184 0 0 0-34.5-66.5q4.46-3.735 10-6c1.284-.68 2.451-.52 3.5.5l25 48a6114 6114 0 0 0 13-68c.309-1.27.809-2.43 1.5-3.5a71.4 71.4 0 0 0 10-5.5" style="opacity:1"></path><path fill="#f8fbfa" d="M847.5 1008.5q4.97.81 10 1.5c.882 4.06.049 7.9-2.5 11.5-9.499 12.05-20.999 14.88-34.5 8.5a29.8 29.8 0 0 0 3-8.5q13.299 4.185 22.5-6c1.202-2.18 1.702-4.51 1.5-7" style="opacity:1"></path><path fill="#b8b27a" d="M604.5 1001.5h67a288.7 288.7 0 0 1-67 0" style="opacity:1"></path><path fill="#d5b376" d="M671.5 1001.5h-67q-88.014-7.673-161.5-56-1-1 0-2a148 148 0 0 1 15-14q102.288 63.883 223.5 49.5 75.125-10.116 139-49.5a286 286 0 0 0 14.5 14q1 1 0 2-74.124 48.63-163.5 56" style="opacity:1"></path><path fill="#d4b376" d="M279.5 937.5q2.753.933 3.5 4a116 116 0 0 1 4.5 14 161 161 0 0 0 16-5.5q2.166-1.171 4 .5a132 132 0 0 0-7 16.5 418 418 0 0 0 19 9q-10.225 2.977-19 8.5 3.52 9.033 7 18c-6.667-2.33-13.333-4.667-20-7a103.6 103.6 0 0 1-7 18 58 58 0 0 1-5.5-14q-.721-2.967-3.5-4a107 107 0 0 0-17.5 8q2.004-10.036 7.5-19-9.532-4.268-19-8.5 8.283-5.348 18-7.5-1.997-9.756-7-18.5l1-1.5a65.3 65.3 0 0 0 17 7q2.779-1.033 3.5-4 2.255-7.028 4.5-14M997.5 936.5a92.8 92.8 0 0 0 9.5 19 238 238 0 0 0 17.5-8c.33.333.67.667 1 1a93 93 0 0 0-8 21c6.21.8 11.88 2.967 17 6.5a483 483 0 0 0-17 8.5c2.67 6 5.33 12 8 18l-1 1c-6.58-2.97-13.24-5.64-20-8a84 84 0 0 1-3.5 12 26.9 26.9 0 0 1-3.5 6 324 324 0 0 1-7-17l-2.5-1a93 93 0 0 0-17 8c-.667-1.33-.667-2.67 0-4q2.997-5.936 6-12 1-2 0-4a111.3 111.3 0 0 0-17.5-7 144.5 144.5 0 0 1 17.5-9q1-2 0-4-4.04-6.569-5.5-14a59 59 0 0 1 14 5.5q2.639 1.197 5-.5 3.524-9.039 7-18M463.5 862.5a5.58 5.58 0 0 1 3 1 268 268 0 0 0 13 14.5 6784 6784 0 0 0-69 69.5 286 286 0 0 1-14.5-14q-1.171-2.166.5-4z" style="opacity:1"></path><path fill="#d5b376" d="M812.5 862.5q2.133.313 4 1.5a1564 1564 0 0 0 66.5 66.5q1.124 1.702-.5 3-7.5 6.5-14 14a10404 10404 0 0 0-68.5-68q-1.171-2.166.5-4 6.585-6.08 12-13M839.5 825.5a3805 3805 0 0 1 74 73q2 2 0 4-6.777 7.782-15 12.5l-71-71a185 185 0 0 0 12-18.5" style="opacity:1"></path><path fill="#d6b377" d="M436.5 825.5q1.763-.329 3 1 5.056 8.535 10 17a2353 2353 0 0 1-70 71.5q-1 1-2 0-8.139-7.098-13.5-15.5a2526 2526 0 0 0 72.5-74" style="opacity:1"></path><path fill="#d5b376" d="M858.5 783.5a8.4 8.4 0 0 1 4 .5l83.5 83.5q1.124 1.702-.5 3l-12 12q-2 2-4 0a4194 4194 0 0 1-77-77q-1.671-1.834-.5-4a201 201 0 0 0 6.5-18" style="opacity:1"></path><path fill="#fafcfb" d="M1046.5 828.5a3478 3478 0 0 1 70 35.5 7.25 7.25 0 0 1 2 2.5c-2.49 3.312-4.16 6.978-5 11a8.4 8.4 0 0 1-4-.5 10366 10366 0 0 1-68-35.5c-1.08-.865-1.25-1.865-.5-3a79 79 0 0 0 5.5-10" style="opacity:1"></path><path fill="#d5b376" d="M415.5 783.5q2.217-.393 4 1a227 227 0 0 1 7.5 20 8358 8358 0 0 0-76.5 77q-2.054 2.436-5 1.5a285 285 0 0 1-14-14.5 5037 5037 0 0 0 84-85" style="opacity:1"></path><path fill="#fafcfb" d="M214.5 792.5q1.494-.128 2.5 1a229 229 0 0 0 12 26 444 444 0 0 0 11.5 26 1197 1197 0 0 1-73 33q-2.779-1.033-3.5-4a4362 4362 0 0 0-21.5-48 86 86 0 0 1 11-6 3.65 3.65 0 0 1 1.5 1 524 524 0 0 0 18.5 39 223 223 0 0 0 18-8.5 505 505 0 0 1-16-36.5 74.5 74.5 0 0 0 11-4 3.65 3.65 0 0 1 1.5 1 1057 1057 0 0 0 15.5 33.5 220 220 0 0 1 18-6.5 440 440 0 0 0-17-40.5 3.94 3.94 0 0 1 1-2q4.985-1.56 9-4.5" style="opacity:1"></path><path fill="#d6b376" d="M942.5 443.5q1.983-.255 3.5 1 93.375 154.492 33 325a387.4 387.4 0 0 1-28 58 30.8 30.8 0 0 1-7 8 57.9 57.9 0 0 1-14.5-14q81.385-138.35 34-292a540 540 0 0 0-34-71.5 268 268 0 0 1 13-14.5" style="opacity:1"></path><path fill="#fafcfc" d="M1074.5 750.5a1088 1088 0 0 1 76 24c.33.667.67 1.333 1 2a78 78 0 0 0-3 12 166 166 0 0 1-21-6.5c-1.33-.667-2.67-.667-4 0-2.17 12.007-7.5 22.34-16 31-16.03 9.745-29.86 7.245-41.5-7.5-3.72-8.421-4.39-17.088-2-26q5.1-14.567 10.5-29" style="opacity:1"></path><path fill="#096749" d="M1082.5 767.5c9.2 2.899 18.36 5.899 27.5 9-1.08 7.652-3.42 14.985-7 22q-11.52 11.446-24 1c-2.42-5.07-3.09-10.403-2-16a455 455 0 0 1 5.5-16" style="opacity:1"></path><path fill="#d5b376" d="M277.5 671.5v-64q7.451-88.354 55-163 1.298-1.624 3-.5a288 288 0 0 0 14 14.5q-80.478 131.784-37.5 281 14.118 43.713 37 83L335.5 836q-1.702 1.124-3-.5-47.924-74.916-55-164" style="opacity:1" data-source="https://football-logos.cc"></path><path fill="#fbfcfc" d="M191.5 692.5q1.496-.045 2 1.5 2.785 6.442 1 13a985 985 0 0 1-64 12.5l5 32a343 343 0 0 0 36-6.5q22.533-6.165 34.5 13.5a17.8 17.8 0 0 1 1.5 7 116 116 0 0 0-11.5 2 81 81 0 0 1-7.5-7.5 22.1 22.1 0 0 0-7.5-1.5 8148 8148 0 0 0-55.5 10 1910 1910 0 0 1-11-60 1327 1327 0 0 0 77-16M1087.5 654.5l80 8a795 795 0 0 1-5 56c-4.37.033-8.7-.3-13-1a562 562 0 0 1 4-42 199 199 0 0 1-14-1c.58 12.579-2.26 24.246-8.5 35-10.72 11.038-22.88 12.871-36.5 5.5q-8.895-6.55-10.5-17.5c-1.07-14.558.1-28.891 3.5-43" style="opacity:1"></path><path fill="#0c684a" d="M1098.5 670.5c9.33.74 18.66 1.407 28 2a127.7 127.7 0 0 1-3.5 25c-5.3 7.544-12.13 9.377-20.5 5.5-2.97-2.1-4.8-4.934-5.5-8.5q-.435-12.129 1.5-24" style="opacity:1"></path><path fill="#fefefe" d="M110.5 643.5h81v14h-81z" style="opacity:1"></path><path fill="#baae75" d="M277.5 607.5v64q-2.329-15.176-2-31-.285-16.813 2-33" style="opacity:1"></path><path fill="#fafcfb" d="M1159.5 549.5c1.55.73 2.38 2.063 2.5 4q1.005 6 0 12a882 882 0 0 0-40.5 27.5 533 533 0 0 0 46 15.5c.65 5.328.82 10.662.5 16l-69.5-24.5c-12.79-6.502-18.12-17.002-16-31.5 4.31.58 8.64.914 13 1q-1.56 9.602 6 15.5 2.79 1.952 6 1a3121 3121 0 0 0 52-36.5" style="opacity:1"></path><path fill="#fbfcfc" d="M124.5 508.5a3749 3749 0 0 0 81 8l-2 14a1006 1006 0 0 0-48-3.5 1016 1016 0 0 1 43.5 29.5q-.63 6.432-1.5 13a539 539 0 0 0-50 15 677 677 0 0 0 45 10q-.06 7.039-1 14a8468 8468 0 0 1-80-16q.537-6.014 1.5-12 .582-1.392 2-2a9397 9397 0 0 1 65.5-18.5l-56-36q-2.165-1.689-2-4.5a190 190 0 0 1 2-11M1128.5 445.5c1.32-.17 2.49.163 3.5 1 6.18 18.348 12.34 36.681 18.5 55-.33.667-.67 1.333-1 2a877 877 0 0 1-76 25q-1.185-5.558-3-11c.33-.667.67-1.333 1-2a1155 1155 0 0 1 62-21 423 423 0 0 0-8.5-27q-.78-2.584-3-4c-13.22 4.36-26.39 8.86-39.5 13.5-10.84 2.385-20.01-.448-27.5-8.5a17.34 17.34 0 0 1-3.5-7c.11-.942.44-1.775 1-2.5 3.38-1.07 6.71-2.236 10-3.5 2.84 2.981 6.17 5.481 10 7.5q3 1 6 0a4318 4318 0 0 0 50-17.5" style="opacity:1"></path><path fill="#d5b376" d="M345.5 395.5a74 74 0 0 1 9 6.5q26.25 27.25 53.5 53.5a934 934 0 0 1 23.5 53l-1 1a13680 13680 0 0 0-98.5-98q-1-1 0-2 6.461-5.958 13-12a2.43 2.43 0 0 0 .5-2" style="opacity:1"></path><path fill="#d4b376" d="M929.5 395.5a4.93 4.93 0 0 1 3 .5l12.5 12.5q1.197 2.639-.5 5l-96 96-1-2a450.5 450.5 0 0 1 23-52 1251 1251 0 0 0 59-60" style="opacity:1"></path><path fill="#fbfcfc" d="M161.5 410.5q43.998.732 88 1.5a3.94 3.94 0 0 1 1 2 66.7 66.7 0 0 0-5 12.5q-9.513-.25-19 .5a1722 1722 0 0 0-17 35.5 119 119 0 0 1 12 14 141 141 0 0 1-7.5 14l-57-67q1.325-6.685 4.5-13" style="opacity:1"></path><path fill="#10694b" d="M177.5 424.5a760 760 0 0 0 34 1 434 434 0 0 1-11.5 26l-20-22a19.2 19.2 0 0 1-2.5-5" style="opacity:1"></path><path fill="#d5b376" d="M377.5 363.5a2170 2170 0 0 1 56 55 110.6 110.6 0 0 1-15 12.5q-2 1-4 0L364 380.5q-.5-2.32 1.5-4a109 109 0 0 0 12-13" style="opacity:1"></path><path fill="#d6b477" d="M898.5 363.5q8.362 6.1 15.5 14 1 1.5 0 3L863.5 431q-1.5 1-3 0a178 178 0 0 1-15-12 1991 1991 0 0 1 52.5-53.5 2.43 2.43 0 0 0 .5-2" style="opacity:1"></path><path fill="#fefefe" d="M609.5 381.5q89.633-5.662 173 26.5 36.299 15.008 66.5 39.5 2.225 4.803 1 10-15.368 27.718-24 58-8.384 33.875-1 68a4844 4844 0 0 1 22 75Q874.102 809.487 746.5 893q-105.014 55.865-211 2Q423.391 826.563 426 694.5a348 348 0 0 1 4-30 2317 2317 0 0 1 23-79q11.013-50.674-10-98a888 888 0 0 0-15-30q-1.225-5.197 1-10 37.028-29.9 82.5-45.5 47.945-15.938 98-20.5" style="opacity:1"></path><path fill="#cb535f" d="M666.5 847.5q-3.235 1.36-7 2 .166-.925 1-1.5a18.5 18.5 0 0 1 6-.5" style="opacity:1"></path><path fill="#e90d2a" d="M666.5 847.5a18.5 18.5 0 0 0-6 .5q-.834.575-1 1.5-92.047 8.095-143.5-68-33.032-58.977-14-124 27.365-76.124 105.5-96 .329-1.762-1-3-48.939-13.672-68.5-61a157.7 157.7 0 0 1-8.5-33.5 9.8 9.8 0 0 1 1-4q94.43-41.39 193-10a231 231 0 0 1 32 14.5q-12.158 18.674-33 26-2.692 34.45-37 33.5-6.68-.166-5.5-6.5 10.986-11.858 3-26-7.895-8.47-19.5-9.5-33.895-5.784-67 3.5 3.495 22.242 20 37.5a94.9 94.9 0 0 0 19 12 311 311 0 0 1 40 15q7.952 4.947 11.5 13.5a16.24 16.24 0 0 1 0 8 245 245 0 0 0-7.5 20q-36.735-5.318-71 8.5-70.075 42.189-48.5 121.5 17.085 44.09 61.5 59.5 53.074 12.476 87.5-29.5 12.447-19.683 6-42-11.159-23.454-36.5-17.5-19.807 11.474-8.5 31.5 4.85 2.782 4 8-41.734 8.62-56-32-8.358-39.014 25.5-59.5 37.829-19.36 75 1.5-1.596-27.194 16.5-47 65.586 63.809 42 153-27.61 80.874-110.5 100" style="opacity:1"></path><path fill="#d4b476" d="M407.5 333.5a12.9 12.9 0 0 1 5 .5l60.5 60.5q1.124 1.702-.5 3a183 183 0 0 0-16 8.5q-2 1-4 0a4481 4481 0 0 0-56-56.5q-2-2 0-4a93 93 0 0 0 11-12" style="opacity:1"></path><path fill="#d5b376" d="M866.5 333.5a8.4 8.4 0 0 1 4 .5l12.5 12.5q1.124 1.702-.5 3a4538 4538 0 0 0-57 56.5q-2.303.744-4.5-.5a157 157 0 0 0-15.5-8q-1.635-1.337 0-3z" style="opacity:1"></path><path fill="#fbfcfc" d="M1072.5 335.5a55.5 55.5 0 0 0 5.5 8q1.005 1.5 0 3a216 216 0 0 1-26.5 16.5q-5.64 3.824 0 8a718 718 0 0 1 48 7.5c2.92 4.166 5.58 8.499 8 13l-3 1a541 541 0 0 0-46-5.5 1405 1405 0 0 0-17 48.5c-4.74-3.415-8.07-8.081-10-14q5.55-17.908 12-35.5a48.8 48.8 0 0 0-8-12.5 471 471 0 0 1-25 15 42.2 42.2 0 0 1-7-11.5 1671 1671 0 0 1 66-42q1.875-1.11 3 .5m0 0a2.42 2.42 0 0 0-2 .5c1.32 2.168 1.99 2.001 2-.5" style="opacity:.994"></path><path fill="#d5b376" d="M671.5 299.5q-3.196-1.221-7-1.5-25.758-1.242-51 .5-84.543 6.744-156 51a79.9 79.9 0 0 1-15-15q106.155-68.893 233-56.5 86.812 9.296 160 55.5 1.532.753.5 2a102.5 102.5 0 0 1-15.5 14q-49.507-30.285-107-43.5z" style="opacity:1"></path><path fill="#749d70" d="M613.5 298.5q25.242-1.742 51-.5 3.804.279 7 1.5a1099 1099 0 0 0-58-1" style="opacity:1"></path><path fill="#f8fbfa" d="M223.5 282.5q1.763-.329 3 1 3.567 30.435-27 33-.247-5.025.5-10 18.182-3.444 16.5-22 3.851-.332 7-2" style="opacity:1"></path><path fill="#fbfcfc" d="M248.5 281.5a2307 2307 0 0 1 63 51 97 97 0 0 1-7 9.5q-1.5 1-3 0l-41-32.5-1 1.5a3221 3221 0 0 1 16 66.5q-3.423 6.323-9 11a3798 3798 0 0 1-58-45.5q-2.591-2.084-4-5a41.1 41.1 0 0 1 8-10.5l43 34a825 825 0 0 0-15-68 72.2 72.2 0 0 1 8-12" style="opacity:1"></path><path fill="#fafcfc" d="M926.5 197.5q4.089-.354 7 2.5a2191 2191 0 0 1 44 32.5 1572 1572 0 0 1-47.5 65 38.3 38.3 0 0 1-10.5-8 5034 5034 0 0 0 38-54.5 262 262 0 0 0-25-18.5 400 400 0 0 0-24.5 33q-16.175 18.124-36.5 5.5a86 86 0 0 1 6-9.5q6.364-.23 13-.5a29.5 29.5 0 0 0 4.5-2.5 857 857 0 0 0 31.5-45" style="opacity:1"></path><path fill="#fbfcfc" d="M387.5 171.5q2.217-.393 4 1a26.7 26.7 0 0 0 5 7q24.53-12.68 43.5 7 16.856 30.078-12 49a77 77 0 0 0 3 11l-9.5 5.5q-2.166 1.171-4-.5a39.4 39.4 0 0 0-5-7q-24.441 12.444-43.5-7-14.24-22.674 3-43a111 111 0 0 0 9.5-8q-2.685-4.332-3.5-9a94 94 0 0 0 9.5-6" style="opacity:1"></path><path fill="#0a6849" d="M387.5 200.5q1.494-.129 2.5 1l15 28q.675 3.846-3.5 4.5-30.081 2.42-21.5-26.5a73 73 0 0 1 7.5-7" style="opacity:1"></path><path fill="#0b6849" d="M407.5 189.5q30.022-1.736 21.5 27a39.6 39.6 0 0 1-8 7 9.6 9.6 0 0 1-3-3 451 451 0 0 0-14-25q-1.171-2.166.5-4 1.858-.663 3-2" style="opacity:1"></path><path fill="#fbfcfc" d="M818.5 143.5q25.237.98 41.5 20 13.57 25.378-2 50-20.058 23.514-49.5 13.5-40.166-18.099-24.5-59.5 10.872-21.532 34.5-24" style="opacity:1"></path><path fill="#076748" d="M815.5 158.5q26.33-3.327 35.5 21 2.544 24.674-19.5 35.5-24.5 4.416-35.5-17.5-5.322-27.358 19.5-39" style="opacity:1"></path><path fill="#fafcfb" d="M535.5 119.5h3a5256 5256 0 0 1-9.5 58 116.7 116.7 0 0 1-6 23q-9.68 13.465-26.5 13v-13q14.527.22 14.5-14a364984 364984 0 0 1-44.5-46.5q7.344-5.088 16-3.5a823 823 0 0 0 33 35 2801 2801 0 0 0 8.5-48 96 96 0 0 0 11.5-4" style="opacity:1"></path><path fill="#fbfcfc" d="m692.5 113.5 56 8-2 13a373 373 0 0 1-41-6q-2.575 6.736-2 14 15.727.993 30 7.5 17.817 12.537 10.5 33.5-6.327 12.815-20.5 15.5-21.468.942-42-5.5-1.736-4.927-.5-10a7658 7658 0 0 1 11.5-70" style="opacity:1"></path><path fill="#0d684a" d="M700.5 155.5a130 130 0 0 1 24 4.5q12.154 10.034 3 23-2.985 2.627-7 3a98.4 98.4 0 0 1-24-2.5 203 203 0 0 1 4-28" style="opacity:1"></path><path fill="#fbfcfc" d="M634.5 111.5h17v12q-13.989.75-28 1a1095 1095 0 0 0 2 68q-7.384.846-14.5 0a2118 2118 0 0 1-2.5-67q-15.009.265-30 1v-14z" style="opacity:1"></path><path fill="#badfd3" d="M634.5 111.5q8.715-1.485 18-1 .477 6.799-1 13v-12z" style="opacity:1"></path><path fill="#629468" d="M549.5 1246.5q13.49-.855 26 3a688 688 0 0 0-26-3" style="opacity:1"></path><path fill="#a3a46b" d="M607.5 1251.5h64c-10.312 1.33-20.978 2-32 2s-21.688-.67-32-2" style="opacity:1"></path><path fill="#f2fee8" d="M813.5 1257.5c1.837.14 2.17.81 1 2-.798-.46-1.131-1.12-1-2" style="opacity:.012"></path><path fill="#e2cca4" d="M781.5 1263.5a62.5 62.5 0 0 1-9 3.5 528 528 0 0 1-32 4.5 56 56 0 0 1 8-3.5c3.667-.33 7.333-.67 11-1-.333-.33-.667-.67-1-1 7.78-.27 15.447-1.1 23-2.5" style="opacity:1"></path><path fill="#e1caac" d="M687.5 1277.5c-1.333.67-2.667 1.33-4 2h-28c10.281-1.98 20.948-2.64 32-2" style="opacity:1"></path><path fill="#e9cfac" d="M592.5 1277.5c10.721-.64 21.054.02 31 2h-27c-1.333-.67-2.667-1.33-4-2" style="opacity:1" data-source="https://football-logos.cc"></path><!-- source: https://football-logos.cc --></svg>