<svg xmlns="http://www.w3.org/2000/svg" viewBox="65.95 24.1 1136.18 1162.6"><!-- Source: https://football-logos.cc --><path fill="#fccc20" fill-rule="evenodd" d="M330.49 1091.55q37.13-30.62 47.53-77.56c14.77-66.72-19.43-136.43-79.25-167.7-51.68-27-113.82-20.45-158.23 17.73q-3.79 3.25-11.16 10.63-11.71-24.21-17.81-39c-8.55-20.71-17.47-46.2-23.75-68.8Q72.66 712.23 67.83 654.5q-.48-5.69-1.36-26.15-.66-15.36-.49-26.21 1.26-76.53 21.1-149.95c3.06-11.34 6.95-23.23 10.91-35.22 14.64-44.28 35.45-87.33 61.25-127.73q65.77-103 166.8-170.43 51.5-34.37 112.87-58.27 17.99-7.01 39.77-13.3 22.42-6.47 40.56-10.72 10.57-2.47 33-6.02 54.48-8.6 110.01-5.65c9.85.52 28.84 1.61 42.64 3.67q29.12 4.35 41.6 7.01 16.59 3.53 43.07 11.2 32.66 9.46 67.23 24.73 23.4 10.35 40.75 19.82 17.75 9.69 38.8 23.37 42.31 27.51 78.57 61.43c23.19 21.71 44.6 45.95 64.31 71.44 22.09 28.57 41.19 59.46 57.55 91.41 24.81 48.44 42.54 100.72 53.5 153.94q3.14 15.21 5.96 35.67 2.67 19.37 3.86 35.97 1.26 17.56 1.87 35.74c.6 17.51-.53 36.9-1.73 54.01q-3.23 46.15-14.75 93.51-3.08 12.7-6.94 26.04-20.14 69.58-56.62 132.87-29.89 51.87-71.15 97.18-7.22 7.93-12.86 13.47c-6.15 6.05-11.56 11.84-17.58 17.53q-64.31 60.85-144.77 98.68c-50.36 23.67-104.21 38.78-158.62 46.99q-79.98 12.07-159.92.53-6.89-1-23.19-3.94c-65.85-11.91-125.59-36.95-181.67-71.04q-12.09-7.35-21.67-14.53m314.59-990.98c9.55-3.64 13.37-11.01 12.24-20.65-.74-6.28-3.02-12.05-8.66-15.1q-5.39-2.91-11.17-2.91-25.5.01-27.65-.04a.53.52-89.47 0 0-.53.53v81.62a.27.26 88.977 0 0 .27.27q18.82-.09 30.41-.23c10.69-.12 18.7-5.89 19.73-17.02 1.04-11.24-1.91-23.45-14.57-25.71a.396.395-50.312 0 1-.07-.76m-71.017-35.318q-23.626 2.758-24.007 2.751a.404.398 87.653 0 0-.406.447l.77 7.4a.574.573-6.395 0 0 .64.51l14.28-1.58a.603.593 83.291 0 1 .66.53l7.96 71.69a.57.569-6.228 0 0 .631.506q3.084-.353 8.951-1.038 5.866-.684 8.949-1.052a.57.569-7.086 0 0 .497-.637l-8.762-71.596a.603.593 83.396 0 1 .52-.668l14.26-1.751a.574.573-6.919 0 0 .505-.643l-.954-7.379a.404.398 79.034 0 0-.499-.341q-.369.094-23.995 2.851m84.447 79.128 6.82.76a.707.706-78.308 0 0 .76-.5l4.9-16.51a.721.711 11.272 0 1 .76-.5l17.11 1.92a.553.552.643 0 1 .49.5l1.74 17.19a.403.389 1.023 0 0 .35.35l17.07 1.91a.309.3.082 0 0 .34-.33l-8.36-82.69a.817.81-1.985 0 0-.79-.73q-7.03-.13-14.08-1.82a.591.587-74.265 0 0-.69.39l-26.72 79.6a.356.348 12.531 0 0 .3.46m95.731 7.066-23.296-4.941a.5.5-35.895 0 1-.377-.599l15.516-70.745a.827.821-78.096 0 0-.636-.984l-16.871-3.553a.428.419 12.187 0 0-.503.317l-16.931 78.697a.63.63 17.46 0 0 .481.753l40.667 9.38a.565.559-76.505 0 0 .67-.416l1.716-7.215a.578.573-77.396 0 0-.436-.694m-220.892 4.468c23.048-5.108 21.285-29.574 17.381-47.192s-12.641-40.539-35.69-35.432c-23.047 5.107-21.283 29.573-17.379 47.192 3.904 17.618 12.641 40.539 35.688 35.432m263.885 9.959-22.718-7.176a.5.5-35.291 0 1-.317-.633l22.299-68.941a.827.822-72.542 0 0-.538-1.041l-16.455-5.172a.428.419 17.741 0 0-.531.268L754.495 159.9a.63.63-45.134 0 0 .406.796l39.585 13.278a.565.559-70.951 0 0 .708-.349l2.407-7.018a.579.573-71.842 0 0-.367-.734M450.437 92.219c-22.247 8.226-17.156 32.341-10.868 49.347s18.11 38.632 40.357 30.406 17.157-32.341 10.869-49.347-18.111-38.632-40.358-30.406m-33.203 105.855a.33.33-39.53 0 0 .442.15l15.728-7.768a.33.33 36.888 0 0 .15-.442l-16.788-33.978a.33.33-74.955 0 1 .15-.442l16.648-8.228a.33.33-21.575 0 0 .15-.442l-3.488-7.048a.33.33-35.85 0 0-.442-.15l-16.718 8.258a.33.33-86.867 0 1-.442-.15l-11.498-23.268a.33.33-84.091 0 1 .15-.442l18.998-9.388a.33.33-2.195 0 0 .15-.442l-3.518-7.108a.33.33-41.567 0 0-.442-.15l-35.238 17.418a.33.33-8.475 0 0-.15.442zM869.85 174.13q-3.01 9.86-9.38 16.08c-6.46 6.3-17.48 4.75-17.81-5.85q-.13-4.35.99-7.7 6.08-18.19 19.06-37.43c4.19-6.21 11.89-14.38 18.94-6.31a2.819 2.772 17.05 0 1 .59 1.09c2.05 7.18-.95 15.23-5.25 21.03a.55.55-19.873 0 0 .44.88h8.37a.867.866 12.125 0 0 .79-.51q3.41-7.72 3.87-11.75 1.82-16.14-13.02-21.64-7.87-2.92-15.47-.27c-14.74 5.12-24.59 19.87-30.69 34.08-4.15 9.67-6.78 22.84-1.22 32.57 3.07 5.37 10.29 9.96 16.08 11.2 13.9 2.96 24.99-6.84 29.75-19.2a.493.49 33.482 0 0-.11-.53l-5.78-5.78a.09.089 30 0 0-.15.04m30.271 59.192a.5.5 42.327 0 0 .697-.12l4.436-6.292a.5.5 16.288 0 0-.132-.705l-19.626-13.058a.5.5-5.52 0 1-.139-.693l39.966-60.068a.5.5 51.658 0 0-.139-.693l-14.328-9.536a.5.5 30.839 0 0-.693.139l-44.183 66.389a.5.5-76.064 0 0 .128.685zM327.3 197.45l50.42 26.27a.666.664-48.921 0 0 .71-.05l9.9-7.23a.91.91 26.636 0 0 .19-1.27l-47.96-65.64a.966.966 57.678 0 0-1.35-.21l-3.86 2.82a1.011 1 54.296 0 0-.22 1.39q14.47 20.12 28.33 38.59c1.21 1.61 2.85 3.08 3.97 4.7a.385.382 86.394 0 1-.49.56l-54.23-28.26a.825.824 39.241 0 0-.9.09l-8.43 6.82a.409.405 52.534 0 0-.07.55l48.76 66.71a.358.358-59.717 0 0 .58 0q1.25-1.75 4.47-3.95a.388.386-35.867 0 0 .09-.55l-30.07-41.15a.128.127 85.439 0 1 .16-.19m626.24-25.4q-16.5 19.04-32.15 37.64c-6.85 8.15-12.48 14.97-11.47 26.15.67 7.49 7.74 14.51 14.25 17.81 9.42 4.78 19.41.96 26.43-6.31q4.36-4.52 8.09-8.9 7.11-8.37 25.15-29.84 3.16-3.75 4.82-6.05a.87.861-52.203 0 0-.14-1.16l-3.56-3.03a.632.625-49.792 0 0-.89.08q-17.36 20.65-36.88 43.51c-3.23 3.78-8.66 7.93-13.54 6.54-7.17-2.04-11.7-8.51-7.28-15.66 3.09-5 7.38-9.71 11.4-14.44q16.39-19.31 29.51-34.41a.645.645 48.856 0 0-.07-.91L954.2 172a.475.469-48.927 0 0-.66.05M319.558 273.619a.37.37 47.131 0 0 .04-.449l-9.16-14.46a.37.37 84.659 0 1 .051-.459l12.021-12.021a.37.37-75.141 0 1 .475-.041l14.871 10.472a.37.37 37.156 0 0 .474-.041l12.449-12.439a.37.37-49.853 0 0-.049-.564l-69.375-48.868a.37.37 35.272 0 0-.475.041l-11.105 11.114a.37.37 28.425 0 0-.054.454l44.214 72.672a.37.37-31.911 0 0 .588.058zm678.602-8.299c8.62 6.19 20.18-.36 25.39-8.09 5.32-7.9 2.57-17.01-3.39-23.41q-4.42-4.75-19.29-20.15a.532.531-42.579 0 0-.73-.03q-8.89 7.78-17.92 16.32-17.32 16.37-40.05 38.47a.411.403 46.592 0 0-.01.56q7.76 8.38 17.45 18.48c5.5 5.73 8.9 9.82 17.38 10.21 6.86.32 14.42-4.77 18.6-10.13q7.84-10.03 2.09-21.82a.326.325-85.403 0 1 .48-.41m-752.12-34.41q21.46 18.12 43.46 36.58c5.04 4.23 9.61 9.85 7.52 16.92-2.17 7.31-9.61 10.16-15.72 5.04q-25.51-21.39-49.68-41.29a.19.19 52.844 0 0-.27.03l-11.28 14.32a.306.306 37.534 0 0 .05.43q19.19 15.31 42.91 35.32 6.1 5.15 9.32 6.64 14.62 6.81 25.23-4.55c3.87-4.14 7.77-10.68 7.63-16.58-.24-9.97-6.72-16.86-13.96-23.02q-15.15-12.89-40.85-35.22a.292.291-50.317 0 0-.42.04l-3.97 5.04a.221.214 40.172 0 0 .03.3m55.72 245.5q-.1.12-.21.23-.74-1.32-1.54-1.02-7.03 2.68-15.11 8.54-8.6 6.25-20.29 17.44-9.49 9.09-20.82 23.48-9.76 12.4-17.46 26.07c-25.7 45.58-35.3 97.72-27.92 149.57q4.43 31.11 14 56.38 7.04 18.58 16.63 32.85 1.39 2.07 3.29 4.12a.026.026-80.28 0 0 .04-.03q-9.91-22.14-14.69-46.95-2.91-15.07-4.1-24.59c-3.51-28.26-2.49-58.25 4.74-85.34 6.17-23.15 16.12-44.33 28.93-64.92q13.48-21.66 31.36-39.63 12.68-12.74 26.27-21.41a.432.427 73.341 0 1 .66.36c.03 2.38 1.35 4.53 1.88 6.43q2.36 8.51 5.02 13.44a.425.424 70.925 0 1-.3.62q-10 1.86-18.39 8.49-13.59 10.76-24.63 25.34c-27.05 35.71-47.78 77.35-51.72 122.54-2.38 27.29.75 54.21 7.71 80.47q3.9 14.69 10.99 30.03c1.55 3.36 5.62 4.74 7.76 1.09q.89-1.52.81-4.02c-.13-4.09-.97-9.67-1.05-13.68q-.44-21.15 5.7-39.05 5.91-17.25 12.92-28.82 18-29.7 48.4-52.8 4.75-3.61 13.21-9.3 15.3-10.29 31.71-17.38a.794.787 50.725 0 1 .76.08q10.48 7.44 21.69 13.72c40.34 22.56 87.28 37.08 132.99 38.01q30.81.63 60.32-5.97 18.58-4.16 31.11-8.16 25.56-8.16 51.5-20.75c25.82-12.54 41.84-21.04 64.7-30.24 19.99-8.04 40.64-13.09 61.4-10.6a.952.951 10.086 0 1 .81 1.16c-3.3 14.2-1.08 29.33 10.79 38.92q7.28 5.89 9.64 7.84 8.12 6.72 8.09 17.5a.446.445-12.944 0 0 .64.4c10.1-4.92 18.19-18.22 22.33-28.33q3.64-8.86 3.52-18.95a.413.41-62.497 0 1 .75-.24q6.19 9.14 9.76 14.79 17.68 28.03 24.28 60.33c1.39 6.77 1.81 13.89 2.67 21.01q.45 3.64.28 12.85-.14 7.11-.61 12.84-2.51 30.68-8.89 55.98-15.09 59.78-53.03 108.44-15.86 20.34-27.6 31.37-10.15 9.54-14.75 13.71-33.22 30.14-76.57 50.62-47.45 22.43-100.42 22.46a.35.348 18.637 0 1-.28-.56q6.35-8.37 10.36-13.61c1.52-1.99 2.88-6.05-.8-6.03q-84.64.4-158.48-38.37c-12.94-6.79-26.4-15.34-41.65-24.76a.498.497 19.302 0 0-.75.36c-.25 1.76 2.45 6.52 4.21 9.42q6.79 11.23 16.52 23.5 9.81 12.37 18.54 21.94 28.31 31.04 64.7 52.69 14.1 8.38 28.2 14.43c16.19 6.94 32.22 12.6 49.08 15.36q4.38.72 8.56.52c3.21-.15 3.45-4.62 2.85-6.91-2.06-7.89-4.71-16.45-5.6-25.69a.571.563-4.316 0 1 .54-.62q.36-.02 12.05.16c24.04.38 48.68-3.01 74.01-9 48.5-11.47 94.48-32.94 135.1-61.67q44.22-31.28 78.88-73.39 20.23-24.59 37.07-53.06 4.45-7.52 9.41-17.6 7.39-15.02 8.66-17.98 11.08-25.87 17.71-53.75 5.81-24.41 6.73-55.34.2-6.77-.42-16.78c-2-32.02-9.79-63.32-22.27-92.77-8.74-20.62-20.35-39.14-33.78-56.41a.331.328 81.927 0 1 .38-.51c13.84 5.57 29.19 4.11 43.09-.95 8.18-2.98 14.24-7.12 21.52-11.93a.573.572 34.165 0 0-.2-1.04c-5.75-1.21-10.28-4.28-13.47-9.22-4.15-6.44-7.08-14.26-10.22-20.14q-8.76-16.41-26.82-22.37-14.31-4.73-29.64-3.11a.589.586-68.26 0 1-.44-1.03q8.72-7.54 19.45-11.77c14.05-5.53 28.01-8.4 42.99-9.94q27.5-2.82 54.99-.59 41.22 3.33 81.63 13.67 20.55 5.26 42.8 12.69 3.34 1.12 6.45.76c2.99-.35 4.14-3.55 2.98-6.16q-.56-1.26-1.65-2.9-7.48-11.31-16.95-23.06-13.9-17.25-26.34-31.38-38.26-43.46-80.73-76.28c-25.54-19.73-51.33-36.86-78.37-51.39-42.62-22.91-89.23-37.78-137.37-41.57q-26.66-2.09-53.94-.37-29.27 1.84-52.75 6.08-20.1 3.63-26.76 4.45c-28.12 3.45-56.61 2.47-85 2.48q-18.79.01-36.49 1.75c-24.19 2.36-47.23 8.64-67.65 21.09q-14.84 9.05-27.56 22.4c-11.97 12.56-20.87 27.27-30.6 41.45q-5.19 7.57-14.68 14.81c-12.05 9.21-27.68 10.01-41.09 15.21q-11.72 4.55-23.22 12.24c-28.9 19.3-43.85 50.73-43.45 85.21M235.61 305.9l-37.53-10.28a1.113 1.109-67.315 0 0-1.26.52l-8.62 14.93a.348.346 22.836 0 0 .21.51l50.38 13.8a6.751 6.514-18.842 0 1 2.11.99l23.72 16.7a.444.438 34.578 0 0 .62-.11l9.8-14.74a.702.699 33.578 0 0-.2-.98l-25.91-16.99a3.919 3.821 86.641 0 1-.91-.83l-32.57-40.24a.12.119-47.652 0 0-.19.01l-4.51 6.41a.211.203 43.899 0 0 .01.26l25.21 29.47a.353.352-12.777 0 1-.36.57m-47.95 60.71.42-7.54a1.068 1.062-78.359 0 0-.7-1.07c-8.71-3.08-20.9-2.93-26.66 5.45-10.49 15.26-3.32 30.73 10.4 40.44 12.08 8.56 28.37 15.6 43.01 14q14.89-1.63 20.85-15.26c2.32-5.31 2.55-11.95.15-16.56a.529.529-12.004 0 1 .5-.77l3.79.21a1.291 1.284-76.491 0 0 1.25-.77l2.08-4.8a.546.546-62.248 0 0-.28-.72l-39.18-17a.36.36-85.824 0 0-.47.19l-10.04 23.14a.52.511 23.849 0 0 .27.68l6.77 2.94a.645.641-66.266 0 0 .84-.33l3-6.92a.663.663 63.683 0 1 .87-.35q13.15 5.55 18.52 7.62c3.38 1.3 6.88 3.25 6.08 7.23-1.96 9.79-13.16 6.34-19.66 3.87Q195.5 395 183.8 389.46c-7.05-3.34-20.71-9.02-18.8-18.14 2.23-10.68 15.37-6.77 21.86-4.2a.586.581 12.257 0 0 .8-.51m-56.56 86.91 77.14 22.93a.497.491-73.36 0 0 .62-.34l1.77-5.94a.146.146-56.164 0 0-.1-.18l-47.35-14.07a.297.291 39.193 0 1-.06-.54c.95-.51 2.4-.3 3.86-.55q26.33-4.6 50.14-8.58a.918.91 3.46 0 0 .74-.65l3.69-12.42a.73.73-70.012 0 0-.49-.91l-77.3-22.98a.554.544 15.944 0 0-.68.37l-1.87 6.27a.282.279-75.001 0 0 .2.35q15.67 3.97 15.79 4.01 3.99 1.29 35.71 10.58a.396.396-42.039 0 1-.04.77l-58.46 10.31a.847.84-86.54 0 0-.66.59l-3.05 10.26a.58.58-74.504 0 0 .4.72m67.88 76.05 1.31-7.01a.351.342 16.887 0 0-.21-.38l-15.62-6.78a.431.429 17.669 0 1-.25-.48l3.19-17.11a.873.86 3.685 0 1 .82-.71l16.33-.64a.546.542 4.014 0 0 .51-.44l3.13-16.8a.628.618-85.864 0 0-.63-.74l-81.97 3.23a.256.246 2.681 0 0-.24.21l-2.9 15.53a.536.527-75.989 0 0 .36.61q4.83 1.48 10.37 3.77 7.15 2.96 65.6 27.85a.146.145 15.97 0 0 .2-.11m-49.26 17.532a.32.32 52.94 0 1 .302.338l-.764 13.641a.32.32 36.88 0 1-.337.301l-32.421-1.804a.32.32-11.236 0 0-.338.302l-.964 17.481a.32.32-79.361 0 0 .301.337l80.281 4.464a.32.32-65.544 0 0 .338-.302l.974-17.55a.32.32 58.827 0 0-.302-.338l-39.14-2.174a.32.32 38.987 0 1-.302-.338l.754-13.491a.32.32 52.749 0 1 .337-.301l39.102 2.164a.32.32 85.158 0 0 .337-.301l.974-17.511a.32.32-77.533 0 0-.302-.338l-79.95-4.434a.32.32 2.56 0 0-.338.302l-.964 17.431a.32.32 9.5 0 0 .301.337zM1156.06 677.2q-4.31 22.84-12.14 47.76c-27.27 86.82-77.73 166.28-142.47 230.29-8.33 8.25-18.21 16.95-27.05 24.65q-39.71 34.58-84.21 60.9c-27.95 16.53-57.16 29.89-87.91 41.74q-66.67 25.7-137.56 34.05-23.49 2.76-43.03 3.18-25.94.56-43.16-.43-32.53-1.87-69.51-8.69-35.19-6.49-75.29-19.93-15.12-5.07-29.81-11.68a.167.161 25.67 0 0-.21.07v.01a.153.147 32.038 0 0 .05.2q19.38 12.42 36.03 20.88 73.59 37.39 157.23 46.26 102.97 10.92 202.49-18.97 105.39-31.64 189.96-104.22c22.3-19.14 43.19-41.19 60.3-62.75 28.1-35.39 52.14-73.27 70.11-114.63q4.1-9.45 9.19-23.1 6.83-18.33 8.29-23.42 5.73-19.92 8.23-30.69 10.55-45.34 10.87-91.44a.202.202 50.685 0 0-.4-.04" data-source="https://football-logos.cc"></path><path fill="#0c4076" fill-rule="evenodd" d="M645.08 100.57a.396.395-50.312 0 0 .07.76c12.66 2.26 15.61 14.47 14.57 25.71-1.03 11.13-9.04 16.9-19.73 17.02q-11.59.14-30.41.23a.27.26 88.977 0 1-.27-.27V62.4a.53.52-89.47 0 1 .53-.53q2.15.05 27.65.04 5.78 0 11.17 2.91c5.64 3.05 7.92 8.82 8.66 15.1 1.13 9.64-2.69 17.01-12.24 20.65m-17.963-30.922-.094 27.16a.72.72-44.714 0 0 .717.723l3.62.012a9.61 8.08-89.8 0 0 8.114-9.581l.032-9.38a9.61 8.08-89.8 0 0-8.046-9.638l-3.62-.013a.72.72-84.037 0 0-.723.717m-.11 35.54.166 31.66a.55.55-82.004 0 0 .553.547l4.23-.022a11.7 9.74 89.7 0 0 9.678-11.751l-.049-9.36a11.7 9.74 89.7 0 0-9.801-11.649l-4.23.022a.55.55-89.328 0 0-.547.553M583.542 146.468q-5.867.685-8.951 1.038a.57.569-6.228 0 1-.631-.506L566 75.31a.603.593 83.291 0 0-.66-.53l-14.28 1.58a.574.573-6.395 0 1-.64-.51l-.77-7.4a.404.398 87.653 0 1 .406-.447q.381.007 24.007-2.751t23.995-2.851a.404.398 79.034 0 1 .499.341l.954 7.379a.574.573-6.919 0 1-.505.643l-14.26 1.751a.603.593 83.396 0 0-.52.668l8.762 71.596a.57.569-7.086 0 1-.497.637q-3.083.368-8.949 1.052M658.51 144.38a.356.348 12.531 0 1-.3-.46l26.72-79.6a.591.587-74.265 0 1 .69-.39q7.05 1.69 14.08 1.82a.817.81-1.985 0 1 .79.73l8.36 82.69a.309.3.082 0 1-.34.33l-17.07-1.91a.403.389 1.023 0 1-.35-.35l-1.74-17.19a.553.552.643 0 0-.49-.5l-17.11-1.92a.721.711 11.272 0 0-.76.5l-4.9 16.51a.707.706-78.308 0 1-.76.5zm15.472-25.515a.31.31-6.385 0 0 .262.402l13.652 1.459a.31.31-80.882 0 0 .341-.338l-3.272-33.978a.31.31-68.992 0 0-.604-.065z"></path><path fill="#fccc20" fill-rule="evenodd" d="M627.117 69.648a.72.72-60.006 0 1 .723-.717l3.62.013a9.61 8.08-89.8 0 1 8.046 9.638l-.032 9.38a9.61 8.08-89.8 0 1-8.114 9.581l-3.62-.012a.72.72 45.184 0 1-.717-.723z"></path><path fill="#0c4076" fill-rule="evenodd" d="M754.241 151.446a.578.573-77.396 0 1 .436.694l-1.716 7.215a.565.559-76.505 0 1-.67.416l-40.667-9.38a.63.63 30.408 0 1-.481-.753l16.931-78.697a.428.419 12.187 0 1 .503-.317l16.871 3.553a.827.821-78.096 0 1 .636.984l-15.516 70.745a.5.5 62.624 0 0 .377.599zM533.349 155.914c-23.047 5.107-31.784-17.814-35.688-35.432s-5.668-42.085 17.379-47.192c23.049-5.107 31.786 17.814 35.69 35.432s5.667 42.084-17.381 47.192m-1.427-6.39q5.886-1.302 4.706-11.95c-.926-8.355-2.455-16.42-4.269-24.62-1.814-8.203-3.83-16.161-6.514-24.126q-3.422-10.152-9.307-8.851-5.895 1.305-4.715 11.953c.925 8.354 2.454 16.419 4.268 24.62 1.814 8.203 3.83 16.16 6.515 24.125q3.421 10.153 9.316 8.849"></path><path fill="#fccc20" fill-rule="evenodd" d="M531.922 149.524q-5.895 1.304-9.316-8.849c-2.685-7.965-4.701-15.922-6.515-24.125-1.814-8.201-3.343-16.266-4.268-24.62q-1.18-10.648 4.715-11.953 5.885-1.301 9.307 8.851c2.684 7.965 4.7 15.923 6.514 24.126 1.814 8.2 3.343 16.265 4.269 24.62q1.18 10.648-4.706 11.95"></path><path fill="#0c4076" fill-rule="evenodd" d="M797.234 165.873a.579.573-71.842 0 1 .367.734l-2.407 7.018a.565.559-70.951 0 1-.708.349l-39.585-13.278a.63.63 80.459 0 1-.406-.796l24.479-76.722a.428.419 17.741 0 1 .531-.268l16.455 5.172a.827.822-72.542 0 1 .538 1.041l-22.299 68.941a.5.5 89.309 0 0 .317.633z"></path><path fill="#fccc20" fill-rule="evenodd" d="m673.982 118.865 10.379-32.52a.31.31-.921 0 1 .604.065l3.272 33.978a.31.31-53.62 0 1-.341.338l-13.652-1.459a.31.31 42.841 0 1-.262-.402"></path><path fill="#0c4076" fill-rule="evenodd" d="M490.795 122.625c6.288 17.006 11.378 41.121-10.869 49.347s-34.069-13.4-40.357-30.406-11.379-41.121 10.868-49.347 34.069 13.4 40.358 30.406m-37.674-24.166q-5.703 2.043-3.18 12.509c1.98 8.212 4.524 16.059 7.37 24.005 2.847 7.948 5.863 15.627 9.547 23.228q4.695 9.689 10.398 7.646 5.712-2.046 3.189-12.512c-1.98-8.212-4.524-16.059-7.37-24.005-2.847-7.948-5.863-15.627-9.547-23.228q-4.695-9.689-10.407-7.643"></path><path fill="#fccc20" fill-rule="evenodd" d="M473.075 129.33c2.846 7.946 5.39 15.793 7.37 24.005q2.523 10.466-3.189 12.512-5.703 2.043-10.398-7.646c-3.684-7.601-6.7-15.28-9.547-23.228-2.846-7.946-5.39-15.793-7.37-24.005q-2.523-10.466 3.18-12.509 5.712-2.046 10.407 7.643c3.684 7.601 6.7 15.28 9.547 23.228M627.007 105.188a.55.55-65.654 0 1 .547-.553l4.23-.022a11.7 9.74 89.7 0 1 9.801 11.649l.049 9.36a11.7 9.74 89.7 0 1-9.678 11.751l-4.23.022a.55.55 64.751 0 1-.553-.547z"></path><path fill="#0c4076" fill-rule="evenodd" d="m417.234 198.074-36.158-73.178a.33.33 12.106 0 1 .15-.442l35.238-17.418a.33.33 10.458 0 1 .442.15l3.518 7.108a.33.33 9.399 0 1-.15.442l-18.998 9.388a.33.33 80.346 0 0-.15.442l11.498 23.268a.33.33 69.19 0 0 .442.15l16.718-8.258a.33.33 9.148 0 1 .442.15l3.488 7.048a.33.33-3.998 0 1-.15.442l-16.648 8.228a.33.33-81.915 0 0-.15.442l16.788 33.978a.33.33 33.658 0 1-.15.442l-15.728 7.768a.33.33 8.035 0 1-.442-.15M869.85 174.13a.09.089 30 0 1 .15-.04l5.78 5.78a.493.49 33.482 0 1 .11.53c-4.76 12.36-15.85 22.16-29.75 19.2-5.79-1.24-13.01-5.83-16.08-11.2-5.56-9.73-2.93-22.9 1.22-32.57 6.1-14.21 15.95-28.96 30.69-34.08q7.6-2.65 15.47.27 14.84 5.5 13.02 21.64-.46 4.03-3.87 11.75a.867.866 12.125 0 1-.79.51h-8.37a.55.55 54.995 0 1-.44-.88c4.3-5.8 7.3-13.85 5.25-21.03a2.819 2.772 17.05 0 0-.59-1.09c-7.05-8.07-14.75.1-18.94 6.31q-12.98 19.24-19.06 37.43-1.12 3.35-.99 7.7c.33 10.6 11.35 12.15 17.81 5.85q6.37-6.22 9.38-16.08M900.121 233.322l-34.013-23.952a.5.5-85.4 0 1-.128-.685l44.183-66.389a.5.5 66.822 0 1 .693-.139l14.328 9.536a.5.5 35.672 0 1 .139.693l-39.966 60.068a.5.5 1.743 0 0 .139.693l19.626 13.058a.5.5 17.468 0 1 .132.705l-4.436 6.292a.5.5 73.675 0 1-.697.12M327.3 197.45a.128.127 85.439 0 0-.16.19l30.07 41.15a.388.386-35.867 0 1-.09.55q-3.22 2.2-4.47 3.95a.358.358-7.455 0 1-.58 0l-48.76-66.71a.409.405 52.534 0 1 .07-.55l8.43-6.82a.825.824 39.241 0 1 .9-.09l54.23 28.26a.385.382 86.394 0 0 .49-.56c-1.12-1.62-2.76-3.09-3.97-4.7q-13.86-18.47-28.33-38.59a1.011 1 54.296 0 1 .22-1.39l3.86-2.82a.966.966-87.953 0 1 1.35.21l47.96 65.64a.91.91 26.885 0 1-.19 1.27l-9.9 7.23a.666.664-48.921 0 1-.71.05zM953.54 172.05a.475.469-48.927 0 1 .66-.05l13.01 11.07a.645.645 78.88 0 1 .07.91q-13.12 15.1-29.51 34.41c-4.02 4.73-8.31 9.44-11.4 14.44-4.42 7.15.11 13.62 7.28 15.66 4.88 1.39 10.31-2.76 13.54-6.54q19.52-22.86 36.88-43.51a.632.625-49.792 0 1 .89-.08l3.56 3.03a.87.861-52.203 0 1 .14 1.16q-1.66 2.3-4.82 6.05-18.04 21.47-25.15 29.84-3.73 4.38-8.09 8.9c-7.02 7.27-17.01 11.09-26.43 6.31-6.51-3.3-13.58-10.32-14.25-17.81-1.01-11.18 4.62-18 11.47-26.15q15.65-18.6 32.15-37.64M319.558 273.619l-5.035 5.469a.37.37-62.069 0 1-.588-.058l-44.214-72.672a.37.37 74.281 0 1 .054-.454l11.105-11.114a.37.37 67.193 0 1 .475-.041l69.375 48.868a.37.37-11.788 0 1 .049.564L338.33 256.62a.37.37 75.521 0 1-.474.041l-14.871-10.472a.37.37-37.926 0 0-.475.041l-12.021 12.021a.37.37 48.057 0 0-.051.459l9.16 14.46a.37.37 37.149 0 1-.04.449m-33.492-53.972a.13.13 88.123 0 0-.199.141l.098.353a.1.1-86.301 0 0 .015.035l19.324 30.508a.13.13-38.754 0 0 .201.024l10.323-10.088a.13.13-81.026 0 0-.017-.2zM998.16 265.32a.326.325-85.403 0 0-.48.41q5.75 11.79-2.09 21.82c-4.18 5.36-11.74 10.45-18.6 10.13-8.48-.39-11.88-4.48-17.38-10.21q-9.69-10.1-17.45-18.48a.411.403 46.592 0 1 .01-.56q22.73-22.1 40.05-38.47 9.03-8.54 17.92-16.32a.532.531-42.579 0 1 .73.03q14.87 15.4 19.29 20.15c5.96 6.4 8.71 15.51 3.39 23.41-5.21 7.73-16.77 14.28-25.39 8.09m9.152-34.135-19.26 18.405a.73.73-44.41 0 0-.023 1.032l2.452 2.567a11.05 8.48-43.7 0 0 13.848-1.504l4.338-4.145a11.05 8.48-43.7 0 0 2.13-13.765l-2.453-2.567a.73.73 53.542 0 0-1.032-.023m-25.393 24.086-22.172 21.637a.63.63-52.024 0 0-.011.891l2.221 2.276a12.34 10.47-44.3 0 0 16.144-1.125l5.411-5.28a12.34 10.47-44.3 0 0 1.519-16.112l-2.221-2.276a.63.63-43.76 0 0-.891-.011"></path><path fill="#fccc20" fill-rule="evenodd" d="m286.066 219.647 29.745 20.773a.13.13-73.299 0 1 .017.2l-10.323 10.088a.13.13-.977 0 1-.201-.024l-19.324-30.508a.1.1-26.229 0 1-.015-.035l-.098-.353a.13.13-43.835 0 1 .199-.141"></path><path fill="#0c4076" fill-rule="evenodd" d="M246.04 230.91a.221.214 40.172 0 1-.03-.3l3.97-5.04a.292.291-50.317 0 1 .42-.04q25.7 22.33 40.85 35.22c7.24 6.16 13.72 13.05 13.96 23.02.14 5.9-3.76 12.44-7.63 16.58q-10.61 11.36-25.23 4.55-3.22-1.49-9.32-6.64-23.72-20.01-42.91-35.32a.306.306 74.071 0 1-.05-.43l11.28-14.32a.19.19 75.778 0 1 .27-.03q24.17 19.9 49.68 41.29c6.11 5.12 13.55 2.27 15.72-5.04 2.09-7.07-2.48-12.69-7.52-16.92q-22-18.46-43.46-36.58"></path><path fill="#fccc20" fill-rule="evenodd" d="M1007.312 231.185a.73.73 85.667 0 1 1.032.023l2.453 2.567a11.05 8.48-43.7 0 1-2.13 13.765l-4.338 4.145a11.05 8.48-43.7 0 1-13.848 1.504l-2.452-2.567a.73.73-36.58 0 1 .023-1.032z"></path><path fill="#0c4076" fill-rule="evenodd" d="M301.55 476.64q-.1 3.67.53 6.55 1.51 6.91 4.37 15.17c1.72 4.95 4.42 8.19 6.08 13.13 4.89 14.5 10.66 28.22 19 40.96 5.82 8.89 19.78 24.37 32.05 20.39 4.7-1.53 7.02-6.01 8.17-11.09q1.47-6.46 2.02-10.63a.346.341-79.799 0 0-.26-.38h-.01a.382.377 14.609 0 0-.45.26c-1.62 5.39-2.59 8.94-7.38 11.75-6.63 3.89-14.42-.18-19.11-5.07-7.12-7.41-12.09-16.18-17.02-26.37a.35.349 9.345 0 1 .56-.4l1.04 1.01q5.54 8.32 12.9 15.05 6.52 5.99 10.63 7.4 11.69 4.02 15.39-7.31 1.3-4 .01-10.12 6.82-4.15 4.99-13.21-.75-3.69-2.29-6.77-5.52-10.98-13.11-20.88-.17-.22-.23-.22a.284.278-13.855 0 0-.26.42q.92 1.59 4.72 12.37 2.28 6.47 2.38 11.83c.32 17.72-23.75 9.49-31.68 5.1-11.61-6.43-21.43-15.83-26.95-27.94q-2.75-6.05-4.95-14.48c-.54-2.07-.37-4.47-.93-6.75-.4-34.48 14.55-65.91 43.45-85.21q11.5-7.69 23.22-12.24c13.41-5.2 29.04-6 41.09-15.21q9.49-7.24 14.68-14.81c9.73-14.18 18.63-28.89 30.6-41.45q12.72-13.35 27.56-22.4c20.42-12.45 43.46-18.73 67.65-21.09q17.7-1.74 36.49-1.75c28.39-.01 56.88.97 85-2.48q6.66-.82 26.76-4.45 23.48-4.24 52.75-6.08 27.28-1.72 53.94.37c48.14 3.79 94.75 18.66 137.37 41.57 27.04 14.53 52.83 31.66 78.37 51.39q42.47 32.82 80.73 76.28 12.44 14.13 26.34 31.38 9.47 11.75 16.95 23.06 1.09 1.64 1.65 2.9c1.16 2.61.01 5.81-2.98 6.16q-3.11.36-6.45-.76-22.25-7.43-42.8-12.69-40.41-10.34-81.63-13.67-27.49-2.23-54.99.59c-14.98 1.54-28.94 4.41-42.99 9.94q-10.73 4.23-19.45 11.77a.589.586-68.26 0 0 .44 1.03q15.33-1.62 29.64 3.11 18.06 5.96 26.82 22.37c3.14 5.88 6.07 13.7 10.22 20.14 3.19 4.94 7.72 8.01 13.47 9.22a.573.572 34.165 0 1 .2 1.04c-7.28 4.81-13.34 8.95-21.52 11.93-13.9 5.06-29.25 6.52-43.09.95a.331.328 81.927 0 0-.38.51c13.43 17.27 25.04 35.79 33.78 56.41 12.48 29.45 20.27 60.75 22.27 92.77q.62 10.01.42 16.78-.92 30.93-6.73 55.34-6.63 27.88-17.71 53.75-1.27 2.96-8.66 17.98-4.96 10.08-9.41 17.6-16.84 28.47-37.07 53.06-34.66 42.11-78.88 73.39c-40.62 28.73-86.6 50.2-135.1 61.67-25.33 5.99-49.97 9.38-74.01 9q-11.69-.18-12.05-.16a.571.563-4.316 0 0-.54.62c.89 9.24 3.54 17.8 5.6 25.69.6 2.29.36 6.76-2.85 6.91q-4.18.2-8.56-.52c-16.86-2.76-32.89-8.42-49.08-15.36q-14.1-6.05-28.2-14.43-36.39-21.65-64.7-52.69-8.73-9.57-18.54-21.94-9.73-12.27-16.52-23.5c-1.76-2.9-4.46-7.66-4.21-9.42a.498.497 19.302 0 1 .75-.36c15.25 9.42 28.71 17.97 41.65 24.76q73.84 38.77 158.48 38.37c3.68-.02 2.32 4.04.8 6.03q-4.01 5.24-10.36 13.61a.35.348 18.637 0 0 .28.56q52.97-.03 100.42-22.46 43.35-20.48 76.57-50.62 4.6-4.17 14.75-13.71 11.74-11.03 27.6-31.37 37.94-48.66 53.03-108.44 6.38-25.3 8.89-55.98.47-5.73.61-12.84.17-9.21-.28-12.85c-.86-7.12-1.28-14.24-2.67-21.01q-6.6-32.3-24.28-60.33-3.57-5.65-9.76-14.79a.413.41-62.497 0 0-.75.24q.12 10.09-3.52 18.95c-4.14 10.11-12.23 23.41-22.33 28.33a.446.445-12.944 0 1-.64-.4q.03-10.78-8.09-17.5-2.36-1.95-9.64-7.84c-11.87-9.59-14.09-24.72-10.79-38.92a.952.951 10.086 0 0-.81-1.16c-20.76-2.49-41.41 2.56-61.4 10.6-22.86 9.2-38.88 17.7-64.7 30.24q-25.94 12.59-51.5 20.75-12.53 4-31.11 8.16-29.51 6.6-60.32 5.97c-45.71-.93-92.65-15.45-132.99-38.01q-11.21-6.28-21.69-13.72a.794.787 50.725 0 0-.76-.08q-16.41 7.09-31.71 17.38-8.46 5.69-13.21 9.3-30.4 23.1-48.4 52.8-7.01 11.57-12.92 28.82-6.14 17.9-5.7 39.05c.08 4.01.92 9.59 1.05 13.68q.08 2.5-.81 4.02c-2.14 3.65-6.21 2.27-7.76-1.09q-7.09-15.34-10.99-30.03c-6.96-26.26-10.09-53.18-7.71-80.47 3.94-45.19 24.67-86.83 51.72-122.54q11.04-14.58 24.63-25.34 8.39-6.63 18.39-8.49a.425.424 70.925 0 0 .3-.62q-2.66-4.93-5.02-13.44c-.53-1.9-1.85-4.05-1.88-6.43a.432.427 73.341 0 0-.66-.36q-13.59 8.67-26.27 21.41-17.88 17.97-31.36 39.63c-12.81 20.59-22.76 41.77-28.93 64.92-7.23 27.09-8.25 57.08-4.74 85.34q1.19 9.52 4.1 24.59 4.78 24.81 14.69 46.95a.026.026-80.28 0 1-.04.03q-1.9-2.05-3.29-4.12-9.59-14.27-16.63-32.85-9.57-25.27-14-56.38c-7.38-51.85 2.22-103.99 27.92-149.57q7.7-13.67 17.46-26.07 11.33-14.39 20.82-23.48 11.69-11.19 20.29-17.44 8.08-5.86 15.11-8.54.8-.3 1.54 1.02m633.32-156.86a.124.114 24.183 0 0-.06-.14q-17.2-8.85-29.13-14-23.45-10.14-49.91-15.88c-36.75-7.97-73.84-4.86-108.82 8.53q-15.5 5.94-26.66 12.01-38.86 21.13-70.95 53.29-21.85 21.89-40.01 45.97-13.11 17.38-20.47 28.78-11.71 18.14-22.58 37.27c-9.99 17.59-19.98 37.04-30.32 52.89q-15.19 23.31-38.58 40.18-14.54 10.49-36.86 21.1-29.46 14-59.53 9.95-21.3-2.86-37.82-11.69a.426.422 30.001 0 0-.57.15l-.01.02a.446.439-57.862 0 0 .13.59c5.04 3.41 10.17 7.64 15.42 10.52q11.66 6.42 21.15 9.34c25.51 7.87 55.27 2.64 79.34-9.09q18.9-9.2 33.8-21.68 20.3-16.98 37.38-41.4 5.24-7.49 12.59-20.57 9.75-17.32 11.64-21.13 13.84-27.97 29.65-51.87c8.83-13.36 15.58-21.64 24.57-32.66q32.6-39.98 77.91-69.79 29.74-19.56 62.19-30.04 78.22-25.25 155.59 5.17 11.37 4.47 10.8 4.83a.062.059-6.047 0 1-.09-.07zm-424.35-25.46a.217.214-34.863 0 0-.29-.05q-28.53 17.66-41.98 47.77c-8.2 18.35-13.26 38.25-15.51 57.46q-2.43 20.68-2.86 24.21c-2 16.14-9.46 34.49-21.46 46.44q-3.3 3.29-6.47 4.99c-9.52 5.11-14.05-5.25-15.17-12.4q-.88-5.56-.99-9.67a.46.45-.637 0 0-.46-.44h-.02a.392.382.774 0 0-.38.36q-.58 10.63-.46 16.25c.12 5.98 1.86 16.96 7.09 20.6 12.15 8.43 29.8-8.44 35.23-17.79 6.44-11.11 9.71-20.95 12.2-33.74q1.22-6.29 2.01-20.28.68-11.99 2.96-27.79c4.11-28.57 12.42-55.67 29.13-78.66 4.6-6.33 11.31-12.04 17.45-16.82a.248.242 52.213 0 0 .04-.35zm-37.16 717.32q17.92 12.37 35.31 19.67 18.89 7.93 35.37 11.81 36.43 8.57 75.46 5.6 37.78-2.88 72.17-13.38 33.28-10.16 62.02-24.45 35.97-17.88 69.37-44.09 20.38-15.99 41.15-37.97c37.99-40.2 68.56-88.42 84.88-141.52 9.69-31.52 14.03-65.07 10.94-98.11q-2.54-27.09-10.56-54c-1.7-5.7-3.8-10.8-5.4-15.56-5.48-16.28-13.86-32.63-22.1-45.37q-12.39-19.13-27.51-36.84a.589.584 75.026 0 1 .55-.96l10.82 2.01a3.444 3.36 64.138 0 1 .97.35q11.31 6.31 21.7 6.44 18.3.21 35.19-10.27a.495.495-43.639 0 0 .02-.83c-7.84-5.45-10.33-13.13-15.03-22.98q-3.48-7.3-6.27-10.68-9.81-11.86-25.48-14.86-11.37-2.17-17.94-1.62-13.8 1.17-16.99 1.57-.92.12-1.34-.04a.689.682-61.246 0 1-.3-1.05q9.84-13.3 24.48-20.83c13.18-6.78 28.98-11.17 44.43-13.12q27.73-3.52 56.99-1.8 31.87 1.87 60.76 7.66 35.59 7.12 68.63 18.45 1.84.63 3.25 1.44a.235.233-4.6 0 0 .3-.35q-2.42-2.92-5.07-5.58-22.62-22.74-47.51-43.5c-38.45-32.07-79.54-62.18-122.33-85.88q-34.76-19.25-67.96-28.26-60.38-16.39-122.04 2.35-31.62 9.61-58.97 27.02-16.53 10.52-27.17 18.79-18.59 14.45-35.5 31.76-29.56 30.26-50.89 65.08c-12.94 21.13-23.2 42.02-33.87 61.18q-12.24 21.99-29.09 41.67c-17.01 19.89-38 35.92-61.28 46.41q-9.61 4.33-23.43 7.86c-14.77 3.78-31.22 4.62-45.16 2.25-21.16-3.6-40.13-14.25-55.9-28.41q-24.53-22.02-42.21-50.25a.866.86-29.08 0 0-1.1-.31c-15.78 7.58-26.9 19.96-37.64 34.18q-19.53 25.88-32.39 55.13-9.88 22.46-13.64 43.02-4.44 24.2-3.52 45.03c1.1 24.99 5.55 50.28 15.16 72.94a.256.255 31.101 0 0 .49-.12q-2.59-29.57 8.89-57.03 8.97-21.46 23.01-38.72 34.47-42.35 86.14-64.39a.92.901 50.253 0 1 .88.09c43.84 30.4 96.02 49.48 149.38 52.07 24.49 1.19 49.81-2.01 73.39-8.01q31.63-8.04 58.55-20.21c10.55-4.78 22.46-10.33 31.72-15.01q18.58-9.39 29.11-14.1c17.66-7.89 34.48-14.39 52.13-17.32q18.47-3.08 36.32.59a.915.911 15.788 0 1 .68 1.21c-5.38 14.71-3.79 31.08 9.38 41.15 6.76 5.17 12.58 9.43 15.29 17.56a.432.432 57.477 0 0 .72.16q11.35-12.01 15.35-28.24c2.23-9.08.05-19.62-2.38-28.61a.47.47 16.142 0 1 .8-.44c33.48 36.61 53.73 82.97 52.03 132.81q-2.13 62.01-27.06 117.58c-22.26 49.61-59.48 92.73-103.45 125.2q-9.47 6.99-12.29 8.86-18.97 12.53-38.57 21.97-20.97 10.11-41.54 15.54-26.71 7.04-49.14 8.23-69.08 3.66-133.94-27.92a.226.109 32.352 0 0-.17-.02q-.05.03-.07.03a.181.119 52.766 0 0 .02.29m13.12-541.46q11.34 2.74 19.77-3.44 6.66-4.88 8.38-12.73 1.52-6.91-.95-15.38-2.6-8.93-8.98-16.07l3.66-10.76a.51.504-59.634 0 1 .82-.22q4.46 4.07 7.12 6.91c5.41 5.78 10.42 14.31 11.27 22.03 2.13 19.3-13.54 34.9-31.5 38.32a.177.176 40.19 0 0 .03.35c20.92.48 42.82-10.86 46.73-32.68q1.64-9.13-1.4-20.89c-3.81-14.77-12.71-28.31-22.63-39.87a.943.928 38.964 0 1-.12-1.05q8.99-17.36 13.29-23.25 4.64-6.37 10.67-13.97a.258.248-51.197 0 0-.03-.34l-.01-.01a.243.234 42.132 0 0-.32.01q-17 17.64-27.16 37.46-10.42 20.33-17.26 36.49-10.8 25.56-17.26 37.8c-7.9 14.96-20.12 34.61-38.25 38.77a.353.351-31.354 0 0-.15.61l.02.02a1.604 1.593 61.417 0 0 1.24.37q14.05-1.74 24.28-8.91 11.34-7.94 17.8-19.12a1.403 1.183-89.672 0 1 .29-.34q.56-.44.65-.11"></path><path fill="#fccc20" fill-rule="evenodd" d="M981.919 255.271a.63.63-12.501 0 1 .891.011l2.221 2.276a12.34 10.47-44.3 0 1-1.519 16.112l-5.411 5.28a12.34 10.47-44.3 0 1-16.144 1.125l-2.221-2.276a.63.63-11.97 0 1 .011-.891z"></path><path fill="#0c4076" fill-rule="evenodd" d="M235.61 305.9a.353.352-12.777 0 0 .36-.57l-25.21-29.47a.211.203 43.899 0 1-.01-.26l4.51-6.41a.12.119-47.652 0 1 .19-.01l32.57 40.24a3.919 3.821 86.641 0 0 .91.83l25.91 16.99a.702.699 33.578 0 1 .2.98l-9.8 14.74a.444.438 34.578 0 1-.62.11l-23.72-16.7a6.751 6.514-18.842 0 0-2.11-.99l-50.38-13.8a.348.346 22.836 0 1-.21-.51l8.62-14.93a1.113 1.109-67.315 0 1 1.26-.52z"></path><path fill="#fccc20" fill-rule="evenodd" d="M934.75 320.43q.57-.36-10.8-4.83-77.37-30.42-155.59-5.17-32.45 10.48-62.19 30.04-45.31 29.81-77.91 69.79c-8.99 11.02-15.74 19.3-24.57 32.66q-15.81 23.9-29.65 51.87-1.89 3.81-11.64 21.13-7.35 13.08-12.59 20.57-17.08 24.42-37.38 41.4-14.9 12.48-33.8 21.68c-24.07 11.73-53.83 16.96-79.34 9.09q-9.49-2.92-21.15-9.34c-5.25-2.88-10.38-7.11-15.42-10.52a.446.439-57.862 0 1-.13-.59l.01-.02a.426.422 30.001 0 1 .57-.15q16.52 8.83 37.82 11.69 30.07 4.05 59.53-9.95 22.32-10.61 36.86-21.1 23.39-16.87 38.58-40.18c10.34-15.85 20.33-35.3 30.32-52.89q10.87-19.13 22.58-37.27 7.36-11.4 20.47-28.78 18.16-24.08 40.01-45.97 32.09-32.16 70.95-53.29 11.16-6.07 26.66-12.01c34.98-13.39 72.07-16.5 108.82-8.53q26.46 5.74 49.91 15.88 11.93 5.15 29.13 14a.124.114 24.183 0 1 .06.14l-.21.58a.062.059-6.047 0 0 .09.07" data-source="https://football-logos.cc"></path><path fill="#fcfcfc" fill-rule="evenodd" d="m510.52 294.32.06.09a.248.242 52.213 0 1-.04.35c-6.14 4.78-12.85 10.49-17.45 16.82-16.71 22.99-25.02 50.09-29.13 78.66q-2.28 15.8-2.96 27.79-.79 13.99-2.01 20.28c-2.49 12.79-5.76 22.63-12.2 33.74-5.43 9.35-23.08 26.22-35.23 17.79-5.23-3.64-6.97-14.62-7.09-20.6q-.12-5.62.46-16.25a.392.382.774 0 1 .38-.36h.02a.46.45-.637 0 1 .46.44q.11 4.11.99 9.67c1.12 7.15 5.65 17.51 15.17 12.4q3.17-1.7 6.47-4.99c12-11.95 19.46-30.3 21.46-46.44q.43-3.53 2.86-24.21c2.25-19.21 7.31-39.11 15.51-57.46q13.45-30.11 41.98-47.77a.217.214-34.863 0 1 .29.05"></path><path fill="#fcfcfc" fill-rule="evenodd" d="M473.34 1011.35q.02 0 .07-.03a.226.109 32.352 0 1 .17.02q64.86 31.58 133.94 27.92 22.43-1.19 49.14-8.23 20.57-5.43 41.54-15.54 19.6-9.44 38.57-21.97 2.82-1.87 12.29-8.86c43.97-32.47 81.19-75.59 103.45-125.2q24.93-55.57 27.06-117.58c1.7-49.84-18.55-96.2-52.03-132.81a.47.47 16.142 0 0-.8.44c2.43 8.99 4.61 19.53 2.38 28.61q-4 16.23-15.35 28.24a.432.432 57.477 0 1-.72-.16c-2.71-8.13-8.53-12.39-15.29-17.56-13.17-10.07-14.76-26.44-9.38-41.15a.915.911 15.788 0 0-.68-1.21q-17.85-3.67-36.32-.59c-17.65 2.93-34.47 9.43-52.13 17.32q-10.53 4.71-29.11 14.1c-9.26 4.68-21.17 10.23-31.72 15.01q-26.92 12.17-58.55 20.21c-23.58 6-48.9 9.2-73.39 8.01-53.36-2.59-105.54-21.67-149.38-52.07a.92.901 50.253 0 0-.88-.09q-51.67 22.04-86.14 64.39-14.04 17.26-23.01 38.72-11.48 27.46-8.89 57.03a.256.255 31.101 0 1-.49.12c-9.61-22.66-14.06-47.95-15.16-72.94q-.92-20.83 3.52-45.03 3.76-20.56 13.64-43.02 12.86-29.25 32.39-55.13c10.74-14.22 21.86-26.6 37.64-34.18a.866.86-29.08 0 1 1.1.31q17.68 28.23 42.21 50.25c15.77 14.16 34.74 24.81 55.9 28.41 13.94 2.37 30.39 1.53 45.16-2.25q13.82-3.53 23.43-7.86c23.28-10.49 44.27-26.52 61.28-46.41q16.85-19.68 29.09-41.67c10.67-19.16 20.93-40.05 33.87-61.18q21.33-34.82 50.89-65.08 16.91-17.31 35.5-31.76 10.64-8.27 27.17-18.79 27.35-17.41 58.97-27.02 61.66-18.74 122.04-2.35 33.2 9.01 67.96 28.26c42.79 23.7 83.88 53.81 122.33 85.88q24.89 20.76 47.51 43.5 2.65 2.66 5.07 5.58a.235.233-4.6 0 1-.3.35q-1.41-.81-3.25-1.44-33.04-11.33-68.63-18.45-28.89-5.79-60.76-7.66-29.26-1.72-56.99 1.8c-15.45 1.95-31.25 6.34-44.43 13.12q-14.64 7.53-24.48 20.83a.689.682-61.246 0 0 .3 1.05q.42.16 1.34.04 3.19-.4 16.99-1.57 6.57-.55 17.94 1.62 15.67 3 25.48 14.86 2.79 3.38 6.27 10.68c4.7 9.85 7.19 17.53 15.03 22.98a.495.495-43.639 0 1-.02.83q-16.89 10.48-35.19 10.27-10.39-.13-21.7-6.44a3.444 3.36 64.138 0 0-.97-.35l-10.82-2.01a.589.584 75.026 0 0-.55.96q15.12 17.71 27.51 36.84c8.24 12.74 16.62 29.09 22.1 45.37 1.6 4.76 3.7 9.86 5.4 15.56q8.02 26.91 10.56 54c3.09 33.04-1.25 66.59-10.94 98.11-16.32 53.1-46.89 101.32-84.88 141.52q-20.77 21.98-41.15 37.97-33.4 26.21-69.37 44.09-28.74 14.29-62.02 24.45-34.39 10.5-72.17 13.38-39.03 2.97-75.46-5.6-16.48-3.88-35.37-11.81-17.39-7.3-35.31-19.67a.181.119 52.766 0 1-.02-.29M751.19 423.6q12.38-12.46 23.55-27.37c7.26-9.7 12.13-17.94 14.75-27.99q6.54-25.03 8.82-51.13a.549.546 70.125 0 0-.93-.44q-13.1 13.09-23.16 28.54c-13.79 21.17-20.05 44.42-23.22 70.05q-.48 3.91-.41 8.1a.35.35-23.13 0 0 .6.24m98.24-95.31c-17.52 13.3-32.13 31.53-39.67 52.48q-5.27 14.63-7.36 28.18a.372.372-15.803 0 0 .61.34q10.89-9.39 20.97-19.28 10.56-10.37 15.31-23.15 7.1-19.06 10.92-38.08a.494.491 76.934 0 0-.78-.49m10.305 43.695c-7.096 9.645-12.184 21.766-15.566 33.416a.328.326-66.157 0 0 .141.369q.37.23.75-.03 8.81-5.91 17.435-12.994 6.757-5.549 10.676-10.876t7.205-13.43q4.196-10.343 7.215-20.513.135-.44-.195-.724a.328.326-41.161 0 0-.394-.025c-10.115 6.697-20.172 15.162-27.267 24.807M303.026 600.369c8.603.358 18.378-2.808 26.638-5.292a.538.537 46.946 0 0 .034-1.018c-8.253-3.096-17.546-6.001-26.145-6.358-8.599-.358-18.101 1.766-26.583 4.166a.538.537-42.185 0 0-.051 1.017c8.026 3.162 17.505 7.128 26.107 7.485m-10.011 20.296c6.927-.582 14.437-4.105 20.802-6.93a.434.434 39.759 0 0-.075-.818c-6.924-1.647-14.661-3.035-21.584-2.453-6.924.583-14.32 3.243-20.872 6.022a.434.434-49.372 0 0 .062.82c6.748 1.722 14.741 3.941 21.667 3.359m-6.259 9.651c-5.023 1.101-10.15 3.746-14.953 6.352a.473.472-55.686 0 0 .166.883c5.388.679 10.898 1.568 16.45.351s10.185-4.33 14.795-7.199a.473.472 30.959 0 0-.219-.873c-5.453-.357-11.216-.615-16.239.486"></path><path fill="#0c4076" fill-rule="evenodd" d="M751.19 423.6a.35.35-23.13 0 1-.6-.24q-.07-4.19.41-8.1c3.17-25.63 9.43-48.88 23.22-70.05q10.06-15.45 23.16-28.54a.549.546 70.125 0 1 .93.44q-2.28 26.1-8.82 51.13c-2.62 10.05-7.49 18.29-14.75 27.99q-11.17 14.91-23.55 27.37M849.43 328.29a.494.491 76.934 0 1 .78.49q-3.82 19.02-10.92 38.08-4.75 12.78-15.31 23.15-10.08 9.89-20.97 19.28a.372.372-15.803 0 1-.61-.34q2.09-13.55 7.36-28.18c7.54-20.95 22.15-39.18 39.67-52.48"></path><path fill="#fcfcfc" fill-rule="evenodd" d="M504.7 422.56c-2.94 9.45-5.79 19.81-9.43 28.25-2.79 6.45-5.18 12.24-8.72 17.5q-.31.46-.07 1.87-.09-.33-.65.11a1.403 1.183-89.672 0 0-.29.34q-6.46 11.18-17.8 19.12-10.23 7.17-24.28 8.91a1.604 1.593 61.417 0 1-1.24-.37l-.02-.02a.353.351-31.354 0 1 .15-.61c18.13-4.16 30.35-23.81 38.25-38.77q6.46-12.24 17.26-37.8 6.84-16.16 17.26-36.49 10.16-19.82 27.16-37.46a.243.234 42.132 0 1 .32-.01l.01.01a.258.248-51.197 0 1 .03.34q-6.03 7.6-10.67 13.97-4.3 5.89-13.29 23.25a.943.928 38.964 0 0 .12 1.05c9.92 11.56 18.82 25.1 22.63 39.87q3.04 11.76 1.4 20.89c-3.91 21.82-25.81 33.16-46.73 32.68a.177.176 40.19 0 1-.03-.35c17.96-3.42 33.63-19.02 31.5-38.32-.85-7.72-5.86-16.25-11.27-22.03q-2.66-2.84-7.12-6.91a.51.504-59.634 0 0-.82.22z"></path><path fill="#0c4076" fill-rule="evenodd" d="M873.171 381.87q-3.919 5.327-10.676 10.876-8.625 7.084-17.435 12.994-.38.26-.75.03a.328.326-66.157 0 1-.141-.369c3.382-11.65 8.47-23.771 15.566-33.416 7.095-9.645 17.152-18.11 27.267-24.807a.328.326-41.161 0 1 .394.025q.33.284.195.724-3.019 10.17-7.215 20.513-3.285 8.103-7.205 13.43M187.66 366.61a.586.581 12.257 0 1-.8.51c-6.49-2.57-19.63-6.48-21.86 4.2-1.91 9.12 11.75 14.8 18.8 18.14q11.7 5.54 25.67 10.83c6.5 2.47 17.7 5.92 19.66-3.87.8-3.98-2.7-5.93-6.08-7.23q-5.37-2.07-18.52-7.62a.663.663-22.215 0 0-.87.35l-3 6.92a.645.641-66.266 0 1-.84.33l-6.77-2.94a.52.511 23.849 0 1-.27-.68l10.04-23.14a.36.36-43.266 0 1 .47-.19l39.18 17a.546.546-31.078 0 1 .28.72l-2.08 4.8a1.291 1.284-76.491 0 1-1.25.77l-3.79-.21a.529.529-12.004 0 0-.5.77c2.4 4.61 2.17 11.25-.15 16.56q-5.96 13.63-20.85 15.26c-14.64 1.6-30.93-5.44-43.01-14-13.72-9.71-20.89-25.18-10.4-40.44 5.76-8.38 17.95-8.53 26.66-5.45a1.068 1.062-78.359 0 1 .7 1.07zM130.7 452.8l3.05-10.26a.847.84-86.54 0 1 .66-.59l58.46-10.31a.396.396-42.039 0 0 .04-.77q-31.72-9.29-35.71-10.58-.12-.04-15.79-4.01a.282.279-75.001 0 1-.2-.35l1.87-6.27a.554.544 15.944 0 1 .68-.37l77.3 22.98a.73.73-35.876 0 1 .49.91l-3.69 12.42a.918.91 3.46 0 1-.74.65q-23.81 3.98-50.14 8.58c-1.46.25-2.91.04-3.86.55a.297.291 39.193 0 0 .06.54l47.35 14.07a.146.146 89.625 0 1 .1.18l-1.77 5.94a.497.491-73.36 0 1-.62.34l-77.14-22.93a.58.58-38.664 0 1-.4-.72"></path><path fill="#fccc20" fill-rule="evenodd" d="M504.7 422.56q6.38 7.14 8.98 16.07 2.47 8.47.95 15.38-1.72 7.85-8.38 12.73-8.43 6.18-19.77 3.44-.24-1.41.07-1.87c3.54-5.26 5.93-11.05 8.72-17.5 3.64-8.44 6.49-18.8 9.43-28.25"></path><path fill="#fcfcfc" fill-rule="evenodd" d="M301.76 476.41c.56 2.28.39 4.68.93 6.75q2.2 8.43 4.95 14.48c5.52 12.11 15.34 21.51 26.95 27.94 7.93 4.39 32 12.62 31.68-5.1q-.1-5.36-2.38-11.83-3.8-10.78-4.72-12.37a.284.278-13.855 0 1 .26-.42q.06 0 .23.22 7.59 9.9 13.11 20.88 1.54 3.08 2.29 6.77 1.83 9.06-4.99 13.21-7.18 3.74-12.32 3.15c-9.19-1.07-16.74-2.25-24.37-7.66a2.079 2.02 65.004 0 0-.92-.35l-1.32-.16-1.04-1.01a.35.349 9.345 0 0-.56.4c4.93 10.19 9.9 18.96 17.02 26.37 4.69 4.89 12.48 8.96 19.11 5.07 4.79-2.81 5.76-6.36 7.38-11.75a.382.377 14.609 0 1 .45-.26h.01a.346.341-79.799 0 1 .26.38q-.55 4.17-2.02 10.63c-1.15 5.08-3.47 9.56-8.17 11.09-12.27 3.98-26.23-11.5-32.05-20.39-8.34-12.74-14.11-26.46-19-40.96-1.66-4.94-4.36-8.18-6.08-13.13q-2.86-8.26-4.37-15.17-.63-2.88-.53-6.55.11-.11.21-.23"></path><path fill="#0c4076" fill-rule="evenodd" d="M198.98 529.57a.146.145 15.97 0 1-.2.11q-58.45-24.89-65.6-27.85-5.54-2.29-10.37-3.77a.536.527-75.989 0 1-.36-.61l2.9-15.53a.256.246 2.681 0 1 .24-.21l81.97-3.23a.628.618-85.864 0 1 .63.74l-3.13 16.8a.546.542 4.014 0 1-.51.44l-16.33.64a.873.86 3.685 0 0-.82.71l-3.19 17.11a.431.429 17.669 0 0 .25.48l15.62 6.78a.351.342 16.887 0 1 .21.38zm-23.76-17.896a.55.55-10.346 0 0 .749-.41l2.442-13.301a.55.55-77.646 0 0-.556-.649l-32.767.86a.55.55 25.588 0 0-.195 1.059z"></path><path fill="#fccc20" fill-rule="evenodd" d="m175.22 511.674-30.327-12.441a.55.55-87.445 0 1 .195-1.059l32.767-.86a.55.55-46.207 0 1 .556.649l-2.442 13.301a.55.55 34.343 0 1-.749.41"></path><path fill="#0c4076" fill-rule="evenodd" d="m149.72 547.102-32.121-1.784a.32.32-39.16 0 1-.301-.337l.964-17.431a.32.32 35.643 0 1 .338-.302l79.95 4.434a.32.32-48.595 0 1 .302.338l-.974 17.511a.32.32-57.625 0 1-.337.301l-39.102-2.164a.32.32-57.711 0 0-.337.301l-.754 13.491a.32.32 7.384 0 0 .302.338l39.14 2.174a.32.32 51.929 0 1 .302.338l-.974 17.55a.32.32 70.175 0 1-.338.302l-80.281-4.464a.32.32-54.327 0 1-.301-.337l.964-17.481a.32.32 35.169 0 1 .338-.302l32.421 1.804a.32.32-17.654 0 0 .337-.301l.764-13.641a.32.32-48.404 0 0-.302-.338"></path><path fill="#fccc20" fill-rule="evenodd" d="M370.07 536.94q1.29 6.12-.01 10.12-3.7 11.33-15.39 7.31-4.11-1.41-10.63-7.4-7.36-6.73-12.9-15.05l1.32.16a2.079 2.02 65.004 0 1 .92.35c7.63 5.41 15.18 6.59 24.37 7.66q5.14.59 12.32-3.15"></path><path fill="#0c4076" fill-rule="evenodd" d="M303.553 587.701c8.599.357 17.892 3.262 26.145 6.358a.538.537 46.946 0 1-.034 1.018c-8.26 2.484-18.035 5.65-26.638 5.292-8.602-.357-18.081-4.323-26.107-7.485a.538.537-42.185 0 1 .051-1.017c8.482-2.4 17.984-4.524 26.583-4.166M293.015 620.665c-6.926.582-14.919-1.637-21.667-3.359a.434.434-49.372 0 1-.062-.82c6.552-2.779 13.948-5.439 20.872-6.022 6.923-.582 14.66.806 21.584 2.453a.434.434 39.759 0 1 .075.818c-6.365 2.825-13.875 6.348-20.802 6.93M288.419 637.902c-5.552 1.217-11.062.328-16.45-.351a.473.472-55.686 0 1-.166-.883c4.803-2.606 9.93-5.251 14.953-6.352s10.786-.843 16.239-.486a.473.472 30.959 0 1 .219.873c-4.61 2.869-9.243 5.982-14.795 7.199M1156.06 677.2a.202.202 50.685 0 1 .4.04q-.32 46.1-10.87 91.44-2.5 10.77-8.23 30.69-1.46 5.09-8.29 23.42-5.09 13.65-9.19 23.1c-17.97 41.36-42.01 79.24-70.11 114.63-17.11 21.56-38 43.61-60.3 62.75q-84.57 72.58-189.96 104.22-99.52 29.89-202.49 18.97-83.64-8.87-157.23-46.26-16.65-8.46-36.03-20.88a.153.147 32.038 0 1-.05-.2v-.01a.167.161 25.67 0 1 .21-.07q14.69 6.61 29.81 11.68 40.1 13.44 75.29 19.93 36.98 6.82 69.51 8.69 17.22.99 43.16.43 19.54-.42 43.03-3.18 70.89-8.35 137.56-34.05c30.75-11.85 59.96-25.21 87.91-41.74q44.5-26.32 84.21-60.9c8.84-7.7 18.72-16.4 27.05-24.65 64.74-64.01 115.2-143.47 142.47-230.29q7.83-24.92 12.14-47.76M330.49 1091.55q-24.74 20.04-54.57 27.29c-38.96 9.46-81.26 1.92-114.8-20.37q-24.54-16.31-41.32-40.86-24.38-35.67-26.83-81.22-.28-5.16.14-9.81c.3-3.23.36-8.77.91-13.1q4.57-35.87 24.68-65.56 1.82-2.69 5.23-6.7 2.99-3.51 5.45-6.57 7.37-7.38 11.16-10.63c44.41-38.18 106.55-44.73 158.23-17.73 59.82 31.27 94.02 100.98 79.25 167.7q-10.4 46.94-47.53 77.56m-137.1-245.82q7.43 1.67 15.55 5.88a2.735 2.711-34.634 0 0 1.57.28q5.34-.61 10.48-.99 21.61-1.6 41.42 3.48a.703.686 41.626 0 0 .43-.02l15.94-6.08a.278.276 44.043 0 0-.01-.52c-26.82-9.56-57.92-11.29-85.41-2.53a.262.258 42.018 0 0 .03.5m92.68 42.69q-9.61-16.27-22.56-30.8a3.035 3.014 74.171 0 0-1.67-.94c-5.31-.96-10.98-1.19-15.59-1.79q-4.09-.53-10.87-.56-13.57-.06-23.4.67a1.726 1.695-71.627 0 0-1.19.61q-12.56 14.89-23.14 32.09a.804.795-46.638 0 0 .02.88l21.09 29.92a1.951 1.946-16.733 0 0 1.53.82l55.02 1.18a1.261 1.254 17.409 0 0 1.06-.55c5.9-8.75 12.41-21.26 19.66-30.92a.56.555 49.02 0 0 .04-.61M103.7 963.44l10.25-11.13a2.577 2.487-18.868 0 0 .6-1.17q5.66-26.8 21.08-50.02 3.14-4.72 6.16-8.1a2.11 2.085-22.853 0 0 .53-1.28q.51-9.16 4.61-18.17a.426.423-8.578 0 0-.67-.49c-26.28 23.17-39.75 55.29-43.05 90.15a.283.279-21.328 0 0 .49.21m268.41-3.73q-6.9-40.14-33.99-71.11-3.88-4.44-8.07-9.05a.362.357 12.233 0 0-.6.38q3.67 8.24 4.83 17.72a5.128 5.12-71.304 0 0 1.49 3.02q6.7 6.57 11.01 13.29c8.16 12.75 13.73 24.44 18.08 37.78a3.279 3.197-75.238 0 0 .6 1.06l6.12 7.16a.304.304-70.249 0 0 .53-.25m-190.13-71.1q-18.3.83-36.61 4.87a2.421 2.405-80.562 0 0-1.57 1.13c-7.07 11.85-13.25 23.01-17.95 35.78q-4.2 11.39-7.08 23.05a1.054 1.021 37.38 0 0 .12.8q7.85 13.26 16.65 25.73 5.2 7.37 11.09 13.55a.907.888 61.232 0 0 .86.26q21.19-4.99 37.44-10.14a1.228 1.215-1.02 0 0 .8-.82q8.49-29.86 18.64-59.27a1.561 1.55 38.182 0 0-.17-1.38l-21.87-33.38a.398.387-16.987 0 0-.35-.18m160.18 102.22q12.52-17.17 18.86-35.7a1.43 1.388 45.842 0 0 0-.95q-8.24-24-21.96-45.22-3.19-4.93-5.38-7.11a4.731 4.695-8.837 0 0-1.2-.87q-1.8-.95-4.46-1.71-6.29-1.79-10.01-2.5-12.95-2.47-28.23-4.79a.519.505 18.554 0 0-.52.25l-17.86 30.92a1.257 1.249 46.637 0 0-.03 1.18c7.89 15.51 17.86 36.06 25.65 54.96a1.34 1.334 85.526 0 0 .92.79l44.17 10.77a.047.041-62.919 0 0 .05-.02m-44.57-5.45a1.768 1.754-60.816 0 0-1.6.46q-13.79 13.4-28.32 25.32-15.24 12.49-18.92 15.29a1.098 1.084 67.371 0 0-.42 1.04l6.17 42.36a3.116 3.102 12.553 0 0 1.38 2.16q4.77 3.12 10.39 5.24 16.75 6.3 34.38 8.25c1.92.22 3.42.63 5.1-.52q24.69-16.88 42.26-42.02a2.298 2.263 66.363 0 0 .39-1.02q.48-4.03.09-8.18-1.43-15.19-5.14-30.63-.85-3.51-2.31-7.39a1.559 1.545 85.61 0 0-1.11-.96zm-109.37 1.7-37.65 13.01a1.087 1.071 4.064 0 0-.62.53q-2.17 4.1-2.93 7.89-3.57 17.77-1.56 37.1c.22 2.1.16 4.65.26 7.59a2.237 2.186-65.071 0 0 .43 1.22q2.58 3.45 5.71 6.11c16.1 13.68 31.72 25.01 49.99 33.1a1.417 1.395 48.72 0 0 .96.07q20.83-6.08 38.45-16.46 2.29-1.35 6.75-5.11a1.527 1.507-19.022 0 0 .54-1.09c.19-3.67-.58-7.11-.86-10.48-.74-8.94-.86-12.02-1.8-20.4q-.66-5.9-.59-11.98a.916.914-73.658 0 0-.42-.77q-27.74-17.75-55.78-40.18a.922.915 54.473 0 0-.88-.15m174.55 49.99a.358.357-9.199 0 0-.57-.41q-4.71 4.38-11.14 7.09c-1.54.65-2.86 3.98-4.03 5.76q-4.63 7.09-5.73 8.54-13.54 17.88-33.29 31.22a.074.046-5.152 0 0-.04.03l-6.86 11.48a.251.249-88.442 0 0 .33.35q41.68-21.54 61.33-64.06m-152.46 72.74-9.37-11.57a1.336 1.32-7.781 0 0-.52-.39q-23.4-9.89-42.52-26.76c-4.42-3.9-7.32-8.06-11.62-13.7a3.95 3.939 74.096 0 0-2.74-1.53q-7.99-.81-15.07-3.79a.254.251 83.692 0 0-.3.38q30.11 44.1 81.87 57.77a.259.257-11.845 0 0 .27-.41"></path><path fill="#fcfcfc" fill-rule="evenodd" d="M193.39 845.73a.262.258 42.018 0 1-.03-.5c27.49-8.76 58.59-7.03 85.41 2.53a.278.276 44.043 0 1 .01.52l-15.94 6.08a.703.686 41.626 0 1-.43.02q-19.81-5.08-41.42-3.48-5.14.38-10.48.99a2.735 2.711-34.634 0 1-1.57-.28q-8.12-4.21-15.55-5.88M286.07 888.42a.56.555 49.02 0 1-.04.61c-7.25 9.66-13.76 22.17-19.66 30.92a1.261 1.254 17.409 0 1-1.06.55l-55.02-1.18a1.951 1.946-16.733 0 1-1.53-.82l-21.09-29.92a.804.795-46.638 0 1-.02-.88q10.58-17.2 23.14-32.09a1.726 1.695-71.627 0 1 1.19-.61q9.83-.73 23.4-.67 6.78.03 10.87.56c4.61.6 10.28.83 15.59 1.79a3.035 3.014 74.171 0 1 1.67.94q12.95 14.53 22.56 30.8M103.7 963.44a.283.279-21.328 0 1-.49-.21c3.3-34.86 16.77-66.98 43.05-90.15a.426.423-8.578 0 1 .67.49q-4.1 9.01-4.61 18.17a2.11 2.085-22.853 0 1-.53 1.28q-3.02 3.38-6.16 8.1-15.42 23.22-21.08 50.02a2.577 2.487-18.868 0 1-.6 1.17zM371.58 959.96l-6.12-7.16a3.279 3.197-75.238 0 1-.6-1.06c-4.35-13.34-9.92-25.03-18.08-37.78q-4.31-6.72-11.01-13.29a5.128 5.12-71.304 0 1-1.49-3.02q-1.16-9.48-4.83-17.72a.362.357 12.233 0 1 .6-.38q4.19 4.61 8.07 9.05 27.09 30.97 33.99 71.11a.304.304-70.249 0 1-.53.25M181.98 888.61a.398.387-16.987 0 1 .35.18l21.87 33.38a1.561 1.55 38.182 0 1 .17 1.38q-10.15 29.41-18.64 59.27a1.228 1.215-1.02 0 1-.8.82q-16.25 5.15-37.44 10.14a.907.888 61.232 0 1-.86-.26q-5.89-6.18-11.09-13.55-8.8-12.47-16.65-25.73a1.054 1.021 37.38 0 1-.12-.8q2.88-11.66 7.08-23.05c4.7-12.77 10.88-23.93 17.95-35.78a2.421 2.405-80.562 0 1 1.57-1.13q18.31-4.04 36.61-4.87"></path><path fill="#fcfcfc" fill-rule="evenodd" d="M342.16 990.83a.047.041-62.919 0 1-.05.02l-44.17-10.77a1.34 1.334 85.526 0 1-.92-.79c-7.79-18.9-17.76-39.45-25.65-54.96a1.257 1.249 46.637 0 1 .03-1.18l17.86-30.92a.519.505 18.554 0 1 .52-.25q15.28 2.32 28.23 4.79 3.72.71 10.01 2.5 2.66.76 4.46 1.71a4.731 4.695-8.837 0 1 1.2.87q2.19 2.18 5.38 7.11 13.72 21.22 21.96 45.22a1.43 1.388 45.842 0 1 0 .95q-6.34 18.53-18.86 35.7M297.59 985.38l42.34 9.4a1.559 1.545 85.61 0 1 1.11.96q1.46 3.88 2.31 7.39 3.71 15.44 5.14 30.63.39 4.15-.09 8.18a2.298 2.263 66.363 0 1-.39 1.02q-17.57 25.14-42.26 42.02c-1.68 1.15-3.18.74-5.1.52q-17.63-1.95-34.38-8.25-5.62-2.12-10.39-5.24a3.116 3.102 12.553 0 1-1.38-2.16l-6.17-42.36a1.098 1.084 67.371 0 1 .42-1.04q3.68-2.8 18.92-15.29 14.53-11.92 28.32-25.32a1.768 1.754-60.816 0 1 1.6-.46M188.22 987.08a.922.915 54.473 0 1 .88.15q28.04 22.43 55.78 40.18a.916.914-73.658 0 1 .42.77q-.07 6.08.59 11.98c.94 8.38 1.06 11.46 1.8 20.4.28 3.37 1.05 6.81.86 10.48a1.527 1.507-19.022 0 1-.54 1.09q-4.46 3.76-6.75 5.11-17.62 10.38-38.45 16.46a1.417 1.395 48.72 0 1-.96-.07c-18.27-8.09-33.89-19.42-49.99-33.1q-3.13-2.66-5.71-6.11a2.237 2.186-65.071 0 1-.43-1.22c-.1-2.94-.04-5.49-.26-7.59q-2.01-19.33 1.56-37.1.76-3.79 2.93-7.89a1.087 1.071 4.064 0 1 .62-.53z"></path><path fill="#fcfcfc" fill-rule="evenodd" d="M362.77 1037.07q-19.65 42.52-61.33 64.06a.251.249-88.442 0 1-.33-.35l6.86-11.48a.074.046-5.152 0 1 .04-.03q19.75-13.34 33.29-31.22 1.1-1.45 5.73-8.54c1.17-1.78 2.49-5.11 4.03-5.76q6.43-2.71 11.14-7.09a.358.357-9.199 0 1 .57.41M210.31 1109.81a.259.257-11.845 0 1-.27.41q-51.76-13.67-81.87-57.77a.254.251 83.692 0 1 .3-.38q7.08 2.98 15.07 3.79a3.95 3.939 74.096 0 1 2.74 1.53c4.3 5.64 7.2 9.8 11.62 13.7q19.12 16.87 42.52 26.76a1.336 1.32-7.781 0 1 .52.39z" data-source="https://football-logos.cc"></path><!-- source: https://football-logos.cc --></svg>