<svg xmlns="http://www.w3.org/2000/svg" viewBox="70.07 14.59 455.13 566.93"><!-- Source: https://football-logos.cc --><path d="M517.293 22.496H77.98v331.461c0 120.797 98.864 219.656 219.657 219.656 120.797 0 219.656-98.86 219.656-219.656z" style="stroke:none;fill-rule:evenodd;fill:#e9e9ea;fill-opacity:1" data-source="https://football-logos.cc"></path><path d="M521.246 18.543v335.414c0 122.977-100.629 223.61-223.61 223.61-122.976 0-223.609-100.633-223.609-223.61V18.543z" style="stroke:none;fill-rule:evenodd;fill:#e9e9ea;fill-opacity:1"></path><path d="M85.32 19.11h105.59v274.43H85.32Zm319.035 0h105.598v274.43H404.355z" style="stroke:none;fill-rule:evenodd;fill:#0d814b;fill-opacity:1"></path><path d="M85.336 290.715h424.703v7.906H85.336z" style="stroke:none;fill-rule:evenodd;fill:#231f20;fill-opacity:1"></path><path d="M284.367 125.668c-13.617.031-14.097-22.074-27.644-33.86-11.551-10.046-27.809-12.773-38.27-12.773-7.937 0-25.41.809-25.598 16.707l-.503 43.055h14.191c19.691 0 30.828-18.188 31.105-37.285l3.66-.114.184 89.032-3.722.011c-2.856-25.796-12.81-37.824-30.766-37.824h-14.652v59.95c0 10.69 1.128 18.98 3.425 24.855 2.301 5.871 4.54 9.625 14.29 10.351v9.625h-84.63v-10.476c9.364-1.207 12.36-4.2 14.598-9.496 2.258-5.34 2.528-13.149 2.528-23.504V112.8c0-10.598-.278-18.832-2.579-24.66-2.3-5.829-5.847-9.91-14.547-11.164v-9.774h130.364c4.601 0 8.133-.27 10.64-.723 1.247-.226 2.551-1.722 3.614-5.113l6.011.121zM305.656 106.313c0-12.989-1.136-27.16-16.972-29.344V67.19h84.457l.035 9.743c-18.356 2.793-17.856 19.828-17.856 36.316v20.848l44.547-38.356c4.766-4.101 6.36-9.031 5.594-12.164-1.406-5.754-7.488-6.902-13.914-6.644V67.19h65.277l-.015 9.743c-8.614 0-16.176.218-24.575 7.445l-36.175 31.129c18.058 17.8 39.832 50.504 47.836 98.855 1.164 7.04 2.644 22.274 6.664 26.157 2.722 2.628 7.226 5.69 18.546 6.453v10.476l-79.96-.027v-10.485c14.058-.011 15.64-7.816 14.546-16.527-2.46-19.57-6.757-43.824-16.222-61.828-5.305-10.098-12.172-18.422-19.938-25.691l-12.21 9.57v59.047c0 14.176-.051 35.465 17.855 35.465l-.035 10.441-84.457.035v-10.476c14.156 0 16.972-9.09 16.972-32.356zM242.645 487.8c0 9.56-.454 17.208-1.254 22.829-2.625 18.426-13.293 16.734-28.832 17.504l.011 12.43 169.266-.004.012-12.692c-11.914.43-29.383-1.793-29.118-18.172.09-5.43-.972-14.14-.972-23.465V350.734c22.172 0 38.984.434 52.715 8.032 13.687 7.57 28.699 36.097 36.922 53.367l11.468-.168-29.175-96.445-252.774.02-29.351 96.417 10.78.172c13.626-24.742 19.927-41.574 33.743-50.805 13.816-9.23 31.766-10.87 56.559-10.59z" style="stroke:none;fill-rule:nonzero;fill:#231f20;fill-opacity:1"></path><path d="M410.559 512.46c-.516-.128.64 0 0 0" style="stroke:none;fill-rule:evenodd;fill:#fff;fill-opacity:1"></path><path d="M295.23 571.457v.129c-.128 0 0-.129 0-.129" style="stroke:none;fill-rule:evenodd;fill:#231f20;fill-opacity:1"></path><path d="M376.508 563.238c-.836-1.734-1.918-3.031-3.278-2.761-1.289.253-1.8 1.53-2.445 2.296-.644 0-.902-.894-1.418-1.277-1.414-1.531-3.344-2.937-5.531-2.172-.516.13-.902.64-1.547.64-.258-8.812.129-17.624-.129-26.562 1.29.254 2.445 2.809 3.219-.511-.774-3.575-3.09-5.11-3.09-9.32-.644-4.981 1.16-.77 2.832-2.044.129 1.274-1.418 3.063.258 4.086 1.031.512 2.703.512 3.73-.129.387-.382.258-.894.516-1.277.258 0 1.805 2.938 2.574 3.45.774.124 4.508-1.919 4.121-2.302-1.93-1.273-3.863-3.062-4.632-5.234 1.156.254 2.058-.894 2.187-.512-.258 1.407.258 2.172 1.8 2.301 3.348-.894 1.16-4.215 2.446-4.215 1.031 1.02-1.285 4.34-.258 5.235 2.317 1.66 3.477 3.195 3.992-.512.774-.125 2.188 2.3 3.344 2.3 5.02-1.53-.129-2.937-.129-5.109 2.32-.765 2.063-.129 1.934-2.68 1.93-.382 2.832 5.618 7.078.895.387-2.172-4.762-2.172 1.8-2.172.645-.64 2.06-5.62 1.548-5.875-7.98 1.149-16.348 2.172-23.297-2.808-2.192-1.535.64-1.024.383-3.45-3.86-5.234.257-1.277 1.804-.765.645-.129 1.028-1.277 1.414-.895-1.414 3.45-3.859 4.727 1.547 5.746.77-.125.64-1.02 1.285-1.402 1.16.89 1.93 2.297 3.22 3.063.901.129 3.089-1.786 3.347-2.809-.258-1.023-1.418-1.277-2.063-2.043.387 0 .774-.129 1.032-.383.902.895 2.058 1.403 3.476 1.531.387.13.258-.636.64-.511 2.446 3.32 1.677 4.215 6.052 2.172.773-.637-.774-1.532 0-2.043 3.734-4.98-2.832-4.086-2.832-6.387 1.93-1.273 3.347 1.664 4.632 3.195 1.032.637 3.477-2.043 3.09-2.683-.258-.637-.77-1.149-1.156-1.66 4.246-1.403 4.117-.766 3.09-4.98-.516-.895-2.703.51-3.606.51 0-.382.258-.64.13-1.023-.259-.636-1.548-2.168-2.06-2.168-5.277 4.34-13.386 3.957-19.695 2.297-4.117-1.785-12.097-5.617-13.773-10.344 1.16 2.938 2.191.766 3.476.13.516 1.53.516 3.066 1.16 4.468 1.415 1.149 5.407-1.531 6.692-2.043-.129.895-1.672 4.215-.129 4.469 2.059.64 2.445 1.023 3.348-.766.898.512 1.027 2.043 1.93 2.809 4.374 0 3.992-1.402 2.062-3.703 4.246-1.66-4.637-5.875.64-4.34 1.29 1.02 2.575 2.172 3.864 3.191.512-.129 3.472-2.172 2.96-2.937-.257-.383-.902-.512-1.16-.895 4.376-.507 7.594.766 6.82-4.468-.257-1.79-3.987-.512-5.148-.383-.253 0-1.8-3.192-2.703-2.684-6.047 4.215-18.02-.765-22.136-5.746.77 0 1.543-.254 2.187-.894.645-.125 2.059 1.918 3.988-.508.13-.383 0-.895 0-1.278.774.383.387 1.403 1.29 1.532 1.16.129 2.574.382 3.347-.637 0-.512-.387-1.277-.258-1.66 4.118 2.043 4.89 1.277 4.504-3.45-6.18-2.683-15.187-7.277-17.246-14.3.387.254.77.765 1.156 1.02 2.063 1.53 3.993 2.171 5.407-.512 0-.637-1.414-1.278-1.032-1.403 3.348.383 6.567-.129 5.407-4.597-.77-1.407-2.446-.258-3.86-.13.516-.636 1.285-.894 1.801-1.406-4.89-5.234-2.059-1.785-7.98-.507-.512-.383 3.734-4.215 3.347-5.239-4.762-5.492-2.832-2.554-5.793-.125-.129-5.11 0-9.836-.129-14.816-1.027-3.063-2.703-4.086-4.761-1.531-1.16 3.32-.516 6.511-.387 10.09.129 2.425.129 4.851.258 7.406-.387 1.148-2.317-3.192-3.348-3.192-2.96 2.168-1.8 5.489.387 7.66-1.285 1.407-5.664-6.511-6.692.512.645 2.043 2.832 1.278-1.03 2.426-.517.637-.77 4.344 1.03 3.832 4.762-1.406 1.286-.512 1.286 2.043 2.058 2.172 3.218 1.402 5.02-.383.386.383-2.06 3.192-2.317 3.703-3.215 2.938-5.149 4.47-9.653 4.215-1.8.383-2.96 1.785-2.058 3.574 2.316 1.66-3.992-.382-3.992 2.043.902 2.938 2.96 4.47 5.793 2.809-1.286 2.684-3.348 2.809 1.16 4.473 1.8-.387 2.574-4.856 2.96-1.407.641.637 3.344.637 3.989 0 .515-3.449 2.574-3.832 4.25-6.511.125-.77.898-4.856.898-1.536-1.289 6.899-5.277 9.454-11.07 12.516-2.059 1.149-4.117 1.914-6.176 2.684-5.148 1.66-9.527-.77-14.547-.77-1.8 1.79-.77 2.3-3.218 1.152-3.73-2.683-3.086-2.937-6.047.383 1.027 1.278 4.117 4.086 5.535 4.34-2.832.13-2.832.383-2.317 3.195-2.32.766-3.992-.77-2.96 2.934.511 1.79 2.445.895 3.859.512 0 3.32 2.96 3.066 4.762 1.148 1.289 2.43 2.574 1.535-.77 3.32-1.16 2.172.64 2.684 2.445 3.45 1.672 0 2.059-1.531 3.215-2.297-.511 2.297 1.676 1.789 3.348 1.789 1.547-.899 2.058-3.832 2.445-5.621 0 0 1.805-.383 1.934-.383-.516 2.68-4.121 5.363 1.414 5.363 2.316-.511 1.543-7.664 3.219-2.937 1.03.512 3.214-.383 3.73-1.149 0-4.851-3.344-4.086 1.805-6.129-.387 3.063-1.676 3.192 2.96 3.192 0 1.402-5.534 5.746-6.824 6.64-6.949 2.555-15.445 4.723-23.554 1.149-2.703-1.024-3.348-.125-3.477 1.789 0 .129-2.187-1.148-3.086-1.148-1.16 1.02-.902 3.316-.773 4.086 1.027 1.019 3.09 1.148 4.504 1.914-1.414 1.406-2.961.765.387 3.32 1.289 0 3.601.129 5.148.129-2.574 1.148-3.477-.77-3.219 3.191-1.285.383-4.246-.129-3.601 1.79 1.671 2.554 1.93 3.445 5.02 2.554.515 1.402 3.73 1.785 5.019.89a59 59 0 0 1 2.445-3.703c4.246 2.043-.387.13-1.285 3.45-.262 4.468 4.762-.766 4.504 1.277.511.637 1.027.637 1.672.766 3.347.254 3.605-3.067 5.277-4.47.129 1.79-.129 2.68 2.445 1.02.774-.765 1.543-1.277 2.188-2.168-.516 2.551-5.535 5.235-7.078 5.872-.645.77-.903 3.96.773 3.832 0 .511-3.348 1.277-3.992 2.043 0 3.449 1.289 3.703 4.25 2.812 2.832-1.535.512-.258 1.8.89 5.665.641 4.634-.765 6.434-5.745 1.805 0-.898 4.597-1.156 5.109 1.156 2.937 2.832 3.191 3.988.637 1.032 3.449.645 4.98 4.38.765.128-.636.253-1.531-.13-2.168 3.86-3.96 1.414-3.066-1.16-6.898 3.09-4.086 1.418-1.402 2.059 1.277 1.933 2.043 4.379-3.703 4.379-5.234 1.027 1.02-.903 11.492-1.29 13.41-.773 4.594-1.671 9.32-5.277 12.512-.386 3.32-.77 3.96 2.446 1.789 1.16-1.02 2.703-2.555 3.218-3.832.516.258.13 13.922.13 15.965-.13 0-4.376-6.004-4.634-6.258-1.03-.258-1.289.636-2.058 1.531-.13.129-1.547-3.957-1.805-4.598-1.027-1.66-1.672-2.554-2.96-3.32-1.544-.894-2.704-3.828-3.216-5.492-.773-.254-2.703.77-2.703 2.047-.258.254-5.277-7.664-5.535-7.918-1.16.636-1.676 1.277-2.059 2.426 0 0-2.703-1.278-3.863-1.278-2.574.13-2.703-8.172-8.238-7.406a12 12 0 0 1-1.285.766c-3.348-5.875-6.18-9.579-13.387-9.579-.258-.253 0-14.687 0-14.94 0-1.786.129-5.747.129-9.067 0-.895 4.375 4.468 4.633 4.726 1.16-.258 2.574-1.789 2.574-3.066-5.277-3.45-7.465-11.492-7.594-16.856V470.7c0-.383-.773-3.957.13-4.086 1.284.766 1.413-2.808 1.929-.636.902 3.574 0 4.086 3.605 3.191 3.348-1.406-1.933-5.234 2.703-3.066.899 1.152-2.449 2.043.383 3.96 1.676.766 1.934 1.278 2.703-.253 0-.13.13 0 .258 0 1.934 2.808 4.25 5.234 6.567 1.277 0-2.047-3.348-2.3.257-2.813.645-.382.645-.511.258-1.66 2.445.895 3.086 4.086 3.86 6.258 3.863 0 4.12 0 3.605-2.683 1.156.511 4.117 2.683 4.89 1.406.645-2.809 1.93-4.723-1.288-5.11-1.543-4.851-.383-3.703-4.504-2.933-1.285 0-2.317 0-3.606-.387-.254 0 .262-.637.39-.766-.515-3.32-.128-3.828-3.347-4.21-.258 0 1.672-1.407 1.93-1.66 3.09 3.062 2.574 5.488 6.433 3.445.645-.512 0-.254.516-.383 3.863 2.555 3.348 3.32 5.793-.13.645-1.655-.902-1.655-2.445-2.808.258-.894.773-.636.902-2.172 4.375 2.813 2.703 3.579 6.563-.89-.645-.64-1.414-.387-2.059-1.024 3.73 0 4.762.895 5.148-3.449-.773-1.656-2.96-.765-4.761-.89 0-3.067-2.317-2.813-4.504-2.172-8.496 1.02-16.992-2.172-23.297-6.899-.645-.508-3.992-3.957-3.606-4.34 1.157.383.899-1.02 1.415-.382.902 1.914 1.418 2.808 2.32 4.468 3.086.895 4.117 0 3.473-3.066 0 0 1.542-.125 2.316-.125.773-.766.258-1.66 1.285-1.531.516 1.53.516 4.34.645 6.894.386 1.785 5.02 4.215 5.02 1.531-.9-4.468 1.16 1.79 3.605-.636 1.8-2.555 1.8-1.66-.258-3.32 4.12.382 3.219-1.153 3.863 4.468.77.766 2.574.766 3.09-.258.129-1.02 0-2.043.77-.89 1.93 2.68 1.417 3.703 4.632 2.55 1.418-1.53.516-2.296-.898-3.445 2.316-.64 1.543-.512 1.8-3.066-.511-.125-4.117-1.278-4.117-1.785 1.672-.387 1.801-.258 2.059-1.66 2.188 3.574 1.285 2.808 5.277 2.042.516-.77-.515-2.425-.773-3.32 0-.77 7.21.895 5.148-4.215-1.285-2.172-9.652 1.403-4.632-1.277.773-1.148-1.032-3.574-2.06-4.086-1.16.254-3.476 2.043-4.12 1.914.644-2.68-1.285-3.062-3.73-3.062-.387.382-.258.765-.387 1.402-2.059 5.363-14.29-.512-17.633-2.172-3.606-2.809-6.695-5.363-9.785-8.809-.383-.382.644-1.535 1.289-.894 1.672 2.297 4.89 6.512 5.02 1.277 0-1.148-.259-.894.773-.511 1.543 4.597-1.418 6.382 3.73 6.128 2.188-1.277.903 3.45 4.25 1.278 2.445-1.531.899-2.297 1.156-2.684.903.258 2.192 1.79 2.961 1.79.903-3.958 1.29 2.425 2.188 2.425 4.762-2.426 4.379-.89 2.445-4.98 2.832.64 1.934 1.023 3.735-1.914-.13-1.915-4.633-3.192-2.188-3.575 2.188 2.168 5.02 4.47 7.723 1.403-.774-2.809-3.992-2.043.77-3.192 2.448-.636 2.062-.258 2.448-2.808-.257-3.961-1.16-3.45-4.25-2.426-.902.254-3.347 1.656-3.347.508 0-1.785-.77-2.68-2.574-2.68-8.493 3.063-17.504 3.703-24.711-2.937-1.29-1.278-4.504-4.852-4.504-6.641 1.93 0 4.761 6.004 7.078 6.64 2.703-.765 3.09-2.3 1.027-3.957 1.676.254 3.219.766 4.766 1.274.898-.637 1.156-3.192 1.414-4.215-.899-.637-5.406-.383-4.633-1.402 3.348-1.149.902-2.809-.773-4.469-4.504 2.297-8.11 2.555-9.782-.766 4.762-1.148 4.375-1.023 3.348-5.62-1.16-1.403-4.121 2.683-5.02 1.406 0-3.45.641-9.196-1.289-12.004-6.433-4.086-3.988 9.449-3.988 11.746-.387.64-3.09-2.168-4.508-1.66-2.187 2.683-2.316 2.937.387 5.363.387.258 2.317 1.535 2.445 1.918-2.96 2.172-5.793 1.02-8.878-.254-1.934-.387-3.735 2.168-2.446 3.7 0 .64-2.32-.638-2.96.386.257 4.086 1.284 4.469 4.89 3.574-.387.895-1.29 1.148-1.031 2.297 2.316 2.683 3.863 2.172 6.308 0-.515 1.406-2.574 2.937-3.863 3.707-7.207 4.34-13.899 5.36-21.238.766-3.989.765-4.246 1.277-1.93 4.086-2.316 1.148-6.95-3.067-8.367-1.153-.254 4.727-.254 4.985 4.637 5.11.125.128-1.418.894-1.547 1.535 1.03 5.87 9.27-2.559 9.27.382-3.22 1.532-4.25.891-2.575 4.723.898.895 2.187-1.402-.387 2.555 0 1.148 2.317 2.3 3.086 2.043 2.063-3.067.774-2.426 2.703-1.278 2.832-.253 1.16-2.425 3.477.13 1.418.894 3.219 1.019 3.863-.641 5.535.386 5.02-1.66 5.02-6.383 1.543-.258.644.254 1.156 1.277 1.805 1.278 2.574.508 3.476-1.023.13-.383.774-1.785 1.032-1.66.898 2.172 2.574.129-.774 3.96-3.347 3.829-7.593 6.258-11.843 8.938-5.278 2.172-8.235 1.531-13-2.043-1.672-1.277-4.118.512-3.344 2.555 0 .512-3.219-2.043-3.477-2.172-1.027 0-1.93 1.531-2.445 2.809.387 2.683 7.851 3.703.516 3.703-3.606-.383-5.02-1.914-5.922 2.043 1.418 2.683 2.574 1.918 5.535 1.918 0 .636-1.805 1.277-2.059 2.171.899 3.446 2.574 2.043 4.89.891.645 0-.257.77-.644.77-2.316 3.445 1.414 2.808 1.543 3.316-.511 1.152-1.93 1.406-1.285 2.684 2.445 1.277 3.09 1.914 4.633-.766 2.832.512 2.059 2.297 3.992-1.148.387-.77.64-1.536 1.027-2.301 5.536-1.914 1.93-.254 1.676.894.77 2.043 1.672 2.809 3.602 1.532.129-.125.773 1.023 1.031 1.152 4.246 1.148 5.149-3.45 5.406-6.64 1.414-.512 1.93-2.684 1.93-.384 1.16.891 1.414-.128 1.031 1.532.13 1.02 2.574 1.789 3.348 2.043 1.93 0 3.215-4.215 3.86-5.621.773-.254 2.574.129 2.831-1.02 0 2.684-4.25 6.512-6.437 7.66-4.375 2.301-8.11 4.98-13 5.492s-4.375.383-11.582 0c-1.031-.128-1.031 2.938-1.934 2.938-3.601 0-4.762-1.402-4.117 3.96 1.8.767 3.734.384 5.664.126-1.93 2.808-3.605.894.516 4.215 1.543-.13 2.703-1.02 3.988-1.914-.387 1.148-.387 1.148.773 1.66-2.96 1.402-3.605 1.277-.644 4.215 1.418.125 2.445-1.024 2.703.125 4.89 4.086 4.379-3.446 6.95-3.446 1.417 1.149 2.32 1.02-.259 1.149-1.156.637-1.414 3.32-.382 3.957.77.765-6.051-.254-6.309-.254-1.8 1.02-.773 4.469-.902 4.469-3.73 1.148-3.473 1.406-.77 4.597 2.317-.257 3.344-2.937 2.188.383.129 1.149 2.96 1.79 3.863 1.277 1.027-1.406 1.543-3.578 2.058-5.363 3.989-1.277 1.157-.258 2.446.637 2.187 1.66.129 1.148.387 2.937 2.058 2.172 4.375 2.172 4.89-.382.13 0 0 .128.13 0-.259 1.66 3.6.382 4.245-.125 1.8-.895-.644-4.598 1.543-5.875.774 3.828-1.285 4.086 3.348 3.957 1.93-.383 2.187-.254 1.8-2.297.903 0 1.934 2.426 2.962.765.386 0 0 6.13-.13 7.153-.257 2.55-6.69 4.593-6.046 7.023 3.215 2.938 3.343 3.063 6.047.125.515 0 .128 32.184.128 32.567-5.664.636-8.367 2.425-12.355 6.511-.129.254-.902 1.278-1.031 1.149-3.86-3.063-7.207 3.32-8.621 6.004-.774 0 .129-2.555-1.934-2.043-.512.636-3.601 6.254-4.117 6-.387-1.278-1.16-3.703-2.961-3.067 0 2.047-3.477 4.09-4.117 6.387-1.418 4.469-.13.129-2.063.894-2.574 2.68-4.633 5.364-6.304 8.813-2.446 5.488-.387 2.938-4.121 1.914-2.575.254-3.989 3.191-5.016 4.98 0-1.789-.902-16.347-.39-16.347 1.03 1.281 3.863 5.367 5.792 4.215.13-.254 1.16-1.66.645-1.66-2.832-2.297-5.149-5.489-5.664-9.196-.258-3.957-.516-7.914-.645-11.875 0-2.043-.512-6 0-7.789 2.574-.254 1.031 3.067.387 4.727-.899 2.297 3.734 3.574 4.25 2.808 1.156-1.789-.387-4.468 1.8-2.043-.515 1.66-1.929 3.575-3.863 4.086-.511 3.957 2.45 3.067 2.192 3.32-1.418 1.786-1.418 1.915.512 3.192.257.258-2.704-1.789 1.03.64 1.419 0 1.548-.765 1.93-1.917 0 0 4.508 2.043 4.508-1.785l-1.933-3.832c1.675-1.024 1.289-1.024 1.804 1.019.899 3.32 1.028 7.152 5.278 4.727 1.285-1.278-3.09-5.11 2.574-.766 2.445 1.402 3.86 1.402 4.762-1.66-.258-1.024-2.063-2.301-2.961-2.555.386-4.598.773-2.555-2.575-3.96-.257-.126-4.12-3.063-3.218-3.192 3.218-.254 2.445-.383 1.8-3.832 1.676-1.149 1.805 2.554 2.063 3.32 1.672 3.32 1.543 4.09 5.277 3.195 1.543-3.195-2.187-1.148 2.059.125 4.117-1.914 2.96-2.168.129-5.488 0-2.683 4.117 4.215 4.504 4.852 2.187.254 2.574.511 2.832-2.043 3.476 0 4.375 2.937 5.793-1.914.258-3.196-2.317-1.024-3.864-2.172 1.547-2.684-3.085-2.684-3.601-4.086 1.285-.895 3.344 1.914 5.148.125 1.286-4.086 1.286-2.938 5.79-4.34.386-1.66.128-3.578-1.93-3.578-3.09.894-2.059 1.023-2.059-.766-2.703-2.68-2.832-1.66-6.05.258-8.368 3.703-21.497 1.402-26.512-6.77-2.063-3.32 3.086-1.66 2.445-3.957-1.418-2.937-.133-1.535 1.93-.64 0 2.3-2.446 2.426-.516 4.98 1.93 1.149 2.445 1.79 3.605-.636 1.93 3.191.254 6.128 5.149 3.574 1.285-1.79-2.063-2.297 1.543-2.426.644 0 1.289 4.727 3.348 5.234 3.472-.636 1.414-1.148 2.058-2.296 1.156 1.148 2.317 4.085 4.246 2.68 2.961-1.403 3.606-1.532 1.29-3.829-.774-.77-1.548-1.406-2.317-2.172 0-2.3 3.09 1.66 3.219 1.785 1.671 0 4.246-.89 2.957-3.062 0-.64 2.574.765 3.218.129 2.961-3.832 2.704-3.961-1.93-4.344 0-.894.259-2.937-.128-3.574-.903.125-2.188.383-2.961.125 3.992-2.043 6.308-1.785 4.504-6.383-2.446-1.277-6.305 4.469-6.305 0-.258-.258-5.148 1.02-5.664 1.02-10.426 1.918-21.367-.254-25.355-11.364-1.418-3.96 1.543 1.785 2.96.254 1.028 3.45-1.03 5.746 3.602 4.852 1.676-.637-.898-3.575 2.703.129 1.29 1.148 3.992-1.532 3.992-2.938-2.32-2.172-1.804-1.66 1.286-.383 1.418-.129 2.703-4.722 1.671-5.234-3.601-.64-3.086-.258-3.73-3.961-.129 0-3.219-.254-4.121-.254-4.246-1.406-6.176-3.066-8.492-6.894-1.801-3.579.898-.258 2.187.89.903 0 1.8-.508 2.961-1.914-.258-1.66-2.059-1.66.258-1.148.77-.895 3.344-4.344 1.285-4.98-4.762 0-.898-.384-.898-2.044-.387-1.148-1.16-2.172-2.063-2.808-1.414 1.402-3.73 2.55-5.793 1.53 3.735-2.425 5.024-2.3 2.063-6.386-1.16-.512-2.703 1.535-3.348 2.043.258-4.469.773-9.32.516-13.789-.387-1.789-1.16-4.473-3.606-3.45-2.96 1.661.13 18.134-1.289 17.626-2.957-3.578-3.086-4.602-5.273-.387-.258 1.406 5.406 7.024.511 2.938-2.316-2.426-2.957-1.786-4.504.894-.128 1.531 1.16 1.531 1.16 2.172-2.96-.64-3.476-2.043-4.632 1.149-.13 3.449-.13 3.19 3.344 3.19 5.02 0-.512.513.773 2.813 2.445 2.043 4.246 0 5.793-1.789.258 0 0-.257.129.13-3.219 8.296-7.852 12.257-16.734 13.152-1.032 1.277.128 3.832 1.16 4.851 3.214-.894 1.543-.512 1.543.766.644.894 1.93 2.554 2.96 2.554 3.864-1.66-.644-1.914 2.06 0 1.929 0 3.476.766 3.991-1.53.77 1.53 2.188.51 2.188.894-5.793 5.492-13.258 10.597-22.785 6-2.446 0-1.672 2.3-2.828 3.066-3.606-1.531-3.477-1.277-3.864 2.809 1.801 2.043 3.09 1.914 5.664 1.914 0 .894-1.675 1.66-1.675 2.812 4.378 3.828 5.152-2.937 9.656-2.937 0 1.785-4.89 2.297-2.059 4.469 2.957 1.406-.773.894-.773 3.32.258.894 2.316 1.789 2.316 2.172-5.148 1.148-9.91 0-14.8-2.043-1.29.383-1.676 2.55-2.704 2.168-.644-.383-1.675-1.66-2.449-1.02-5.66 5.488 5.152 4.723-.125 6.258-1.289 1.148.125 2.172 1.156 3.191 2.446 0 4.633-1.277 7.465-2.554 3.348.894-3.73 2.554-4.246 3.066 0 1.914-.129 3.828 2.059 3.063.386 0-1.414 1.789-1.543 2.554 1.93 4.47 3.988 1.79 5.664-1.53.511 0 .383 1.53 1.8 1.66 2.446-.512 2.704-.255 2.833-3.067-.387-4.723-.387-3.703 3.347-3.703 0 0-2.316 1.789-2.578 2.172-.64 3.832 3.863.511-1.93 5.234-1.8 2.555 2.063 3.32 1.93 4.09-3.473 0-6.562-.64-10.035-1.664-1.547.258-2.191 3.066-2.32 3.832 1.547 1.277 2.445 1.406 4.25 1.789 0 2.808-1.418 3.066 2.574 3.191.64 0 4.117-1.02 4.117-.765.129 2.3 1.93 1.023-.644 3.191-1.157 1.406 2.058 3.703 3.476 3.832.774-.383 1.16-.637 1.8-1.531.774 1.914 4.38 1.66 5.536-.13 1.031-2.679 1.547-.636 3.348-2.171-.258 1.535-2.832 1.918-2.575 4.215 1.415 1.918 3.22 2.172 5.02.64 1.93-2.3.773-1.406 2.059.125 1.546.512 4.12-.765 4.25-2.425.128-1.66 1.93-2.426 3.085-3.832.516 3.066 0 8.047-.898 10.984-1.289 2.172-3.476 4.598-3.992 6.77 2.187 3.828 3.348 0 5.148-1.79.516 0 .13 4.47.13 5.235 0 2.043-.512 20.945-.77 21.07-3.22-1.148-1.934 2.301-3.09 3.067-2.75-2.805-4.414.422-5.473 3.507 49.242 19.215 100.012 18.141 152.266-2.66" style="stroke:none;fill-rule:evenodd;fill:#000;fill-opacity:1" data-source="https://football-logos.cc"></path><path d="M226.754 498.41c-.387 1.406-.516 2.813-1.414 3.961-3.992 3.32-8.625 5.363-13.774 6.258-1.546.254 2.317-3.703 2.704-4.215.511.766.64 2.297 1.93 2.426 3.218-.254 3.476-3.703 3.09-6.13.386.255 0 .767.128 1.15.129 1.148 1.285 1.788 2.059 2.554 2.187.766 4.117-5.11 4.632-6.387.258.13.387.258.645.383m4.89-39.332c.387.258 1.032-.254 1.418.129-.128.64-.902 3.832-1.675 3.832-.258-1.918-2.575-4.598-.645-5.746.258.512.258 1.402.903 1.785m.516 15.836c-.258 2.043-2.187 0 0-.512.13.13 0 .383 0 .512m-2.703 4.852c-.387 1.277-2.445 2.554-3.477 3.195.645-1.535 1.29-3.195 1.93-4.856.645.383 1.031 1.153 1.547 1.66m-7.594 2.554c.258 1.153 1.672 1.407 2.703 1.918-2.832 2.043-5.921 3.446-9.14 4.34.387-.765 1.031-1.66 1.547-2.426.511 1.407 3.214.512 3.859-.254.129-1.66-.644-3.832 1.031-3.578m144.29-20.941c.128.254-2.188 3.957-2.45 4.469-.383-.766-.77-1.66-1.027-2.426 3.219-1.277.902-4.086 3.476-2.043m-3.864 54.91c-.258 0 0-1.402 0-1.66.387.512.129 1.277 0 1.66m24.715-15.324c-.129.765-.258 1.535-.902 2.043 0-.766-.645-3.574.902-2.043m-21.625-22.985c-.258.891-1.8 2.938-1.414 3.832-.516-.894-1.16-3.449-.387-4.343.512.254 1.156.254 1.8.511m-89.844-65.382c.258.254-2.187 3.445-2.445 3.828-.516 0-.13-3.828 0-4.211.902.125 1.547.254 2.445.383m47.883-.512c-1.16 6.77-.516 5.234-3.348.894.645-.64 2.317-.894 3.348-.894" style="stroke:none;fill-rule:evenodd;fill:#fff;fill-opacity:1"></path><path d="M225.98 564.945c.903-1.66 1.418-3.449 3.09-1.148.258.637 1.285 2.168 1.801.637v-1.407c.129-.507.258-1.02.258-1.402.773-1.918.902-1.406 2.059.383.257.254.386.637.515.894h.129s-.129.254.129 0c0-.129.129-.129.129-.257v-2.297c0-.13 0-.383.129-.641-.13 0-.13-.125-.13-.125 0-.383 0-.64.13-1.023v-2.168c0-.895.129-1.918.129-2.938v-2.172c0-.129.129-.383.129-.511v-2.426c.128-.895.128-1.79.128-2.684 0-.89 0-1.66.13-2.55V538c.128-.766.128-1.531.128-2.172 0-.637 0-1.406-.129-2.043 0-.512.13-.894.13-1.406-.13-.125-.259-.254-.13-.383 0-.383 0-.637-.129-.894-.128-.125-.257-.125-.386-.254-.258.129-.387.129-.645.129-.129.125-.387.382-.64.511-.774 1.149-1.676 2.168-2.45 3.32-.129.126-.129.126-.254.126-.128 0-.257 0-.386-.125-.13 0-.13-.13-.13-.13 0-.257-.128-.511.259-.64.64-1.02 1.414-1.914 2.058-2.937.387-.508.645-.891.903-1.403.254-.64.64-1.406.898-2.043.129-.383.258-.765.387-1.023 0-.637.129-1.403.258-2.043v-4.215c0-.637.128-1.277.128-1.914v-2.809c.13-.129.13-.511.258-.765.13-.64.387-1.278.645-2.043.129-.77.254-1.535.383-2.43v-1.402c-.13-.383.257 2.808-.254-1.149 0-.258 0-.511-.13-.77-.128-.382-.257-.636-.515-.89-.129-.129.258-.258-.258-.258 0 .13-.129.13-.257.13-.258.128-.387.382-.645.51v.384c.129.254.258.636.258.894.129.766.129 1.403.258 2.168-.13.258-.13-1.66 0 .64-.13.384-.13.767-.258 1.02v.383c-.13.512-.258.77-.258 1.278-.258.382-.387.765-.644 1.152-.13.383-.383.637-.512 1.02-.516.64-1.031 1.148-1.418 1.788-.258.254-.516.383-.774.637 0-.125-.129-.254-.129-.254 0-.765 0-1.53-.125-2.3-.128-.383-.128-.766-.257-1.278-.13 0-.258-.125-.258-.125h-.774c0 .125-.257.125-.257.383 0 .637-.13 1.277-.13 1.914.13 1.406.13 2.684.258 3.961 0 .254-.128-1.918 0 .766-.515.254-1.03.636-1.542.894-.13 0-.387.125-.645.125v-2.297c0-.129.258.766-.129-.383-.516-.382-.387-.257-.902-.257a474 474 0 0 0-2.446 2.812c-.515.254-.902.637-1.285 1.02-.129-.13-.386-.13-.515-.13-.387-.124-.774-.382-1.16-.636-.125 0 .386.512-.254-.254.382-.258.511-.512.77-.894 1.417-1.536 2.96-3.067 4.507-4.598.383-.766.254-.766-.133-1.277h-.64c-.774.511-1.418 1.148-2.06 1.789l-.132-.13a269 269 0 0 0-.383-3.702c-.386-.637-.644-.512-1.031-.637q-.194.188-.387.383c0 1.148.13 2.168.258 3.32-.258 1.402-.258 1.277-1.8 1.531v-3.832c-.258-.894-.13-1.277-1.16-1.148-.13.129-.13.254-.259.383-.129 1.02-.129 2.043-.254 3.066 0 1.402 0 2.809-.515 4.086-.903.254-1.676.125-2.574.125v-.383c.511-.894 1.285-2.297 1.156-3.32-.129 0 .258.512-.258-.254h-.64c-.258.254-.516.512-.645.766-1.031 1.148-2.059 2.171-2.961 3.449-.258.129-3.219-.766-1.93-2.043 1.285-1.024 2.575-1.918 3.86-2.938.515-1.023-.13-1.277-1.028-1.023-.644.383-1.289.894-1.933 1.277-.383-.125-.64-.125-.516-.765 1.16-1.278 1.676-1.532 2.191-2.426 0-.64 0-.766-1.03-.766-2.317 1.403-5.278 3.063-8.11 2.68.258-1.66 3.219-2.297 1.16-3.192-.773.383-4.246-.382-5.02-.894 0-.129.258-1.66.903-2.043 3.601 1.023 6.433 1.531 10.293 1.531 6.18-.254 12.23-2.937 16.863-7.023.774-1.531 1.285-3.063 1.676-4.723v-.383c-.262-.129-2.063-1.66-2.192-1.535-.128.13-.386.13-.515.13-.125.128-.254.382-.387.51-.64 1.532-.898 3.45-1.93 4.723-1.414 1.278-.902 1.536-2.187.13-.258-1.15.644-2.044 1.16-2.938.125-1.02-.129-1.277-1.16-1.02-.516.383-.899.766-1.414 1.02-.645-.129-.774-.895-1.547-.512-.129.258-.258.383-.387.512.258 1.406.387 2.808.516 4.086-.129 1.023-.774 2.172-1.8 2.426-.259 0-1.032-2.426-1.161-2.809-.129-.254-.64-.512-.898-.254l-.387.383c-.516.637-3.348 4.726-3.863 4.726-.641-.511-1.93-1.023-1.672-1.789 1.543-1.53 3.347-2.808 5.02-4.214.386-.383.773-.637.902-1.278-.387-1.531-2.32.13-2.961.512-.387 0-1.16-.64-.774-.766a38 38 0 0 1 3.735-2.554c.128-.254.128-.383.257-.512 0-.383 0-.895-.386-.895-8.754-.507-7.465-1.148-6.953 5.875-.13.512-1.286 1.024-1.543.766-2.961-5.363-1.93.766-5.02 2.3-.258 0-.773-.765-1.031-1.023 3.219-3.191 4.25-4.98-.383-3.703 0-.129.383.13-.133-.129-.383-1.66 1.29-1.402 2.703-1.914 3.09-1.914 3.992-2.554.387-4.344-2.445.895-6.434 3.579-7.852 2.047 0-.257 4.38-1.023 2.188-2.43-1.156-.636-2.445-1.53-3.473-2.042 1.543-2.938 1.414-1.278 4.762.894 1.8 1.149 2.832 0 .902-1.277-2.062-1.531-.515-2.426.383-2.168 1.676.254 4.379 1.531 4.895 1.531 3.086.766 6.047.766 9.136.254 3.348-.766 6.18-1.914 9.137-3.32 1.031-.637 2.063-1.278 3.094-1.914 1.285-1.149 2.57-2.172 3.988-3.32.516-.512 1.027-1.149 1.543-1.66a34 34 0 0 1 1.676-2.938c.258-.512.387-1.024.64-1.66.258-.383.387-.895.516-1.407 0-.125.129-.254.129-.382 0-.125-.129-.254-.129-.383-.258-.125-.387-.383-.644-.508-.254 0-.383 0-.641-.129-.258.129-.645.254-.902.254a3.8 3.8 0 0 1-1.032.512 1.53 1.53 0 0 1-.64.636c-.13.13-.13.258-.258.512 0 .129 0 .383.129.512.258.512.515.894.898 1.402.13.129.13.258.258.258-.129.383-.387.766-.516 1.148 0 .13.13.13-.253.13h-.13q-.772-.96-1.546-1.919c-.645-.125-.774-.382-1.414.258-.645 1.66-1.16 3.32-1.801 4.98-.645 1.278-.258 1.278-1.676.637v-.382c.645-.895 1.16-1.915 1.676-2.81.254-.894.383-1.023-.258-1.53-.129.125-.387-.13-.644.125-.13.257-.516.64-.774.894l-1.156 2.301h-.774c0-.895-.128-1.918-.257-2.813.257-.253.129 2.172-.258-.89-.258-.258-.13-.258-.645-.258-.77.129-.257.383-.64.64 0 .891 0 1.786-.13 2.68 0 1.66 0 3.32-.128 4.98-.387 0-.774.13-1.16.259 0-.77 0-1.536.129-2.301-.258.129-.13-.13-.387-.13-.258-.124-.516-.124-.899-.124-.902 1.66-2.062 3.32-3.09 4.98-.386-.257-1.417-.64-1.546-1.023 1.16-1.402 2.316-2.938 3.605-4.34 0-.64.258-.894-.387-1.277-.257.125-.515.125-.644.125-.258.129-.516.258-.64.512-.258.257-.516.765-.774 1.023-.387 0-.774-.258-1.031-.383-.13.254-.13-.129.129-.258 1.03-1.02 2.058-2.172 3.09-3.191.386-.64.386-.766-.258-1.277-1.543 0-2.961.128-4.504.382-.13.13-.258.13-.516.254-1.156 1.278-4.504 5.11-4.762 3.196 4.118-5.364 1.286-3.067-2.703-3.704-2.058-.257-1.547-1.023-1.418-2.683.387-.512 3.992 2.3 5.922.64.516-.382-2.574-1.277-1.93-1.66.13-.382.387-.765.516-1.148.129 0 .258-.129.258-.129.383.129.64.254 1.027.383 5.02 2.297 10.168 1.66 14.934-.766 2.058-1.277 3.988-2.555 5.918-3.832.902-.894 1.804-1.918 2.703-2.808.516-.641.902-1.278 1.418-1.918.258-.508.512-.895.77-1.403.257-.64.515-1.406.773-2.043.129-.765.258-1.406.387-2.172.257-1.789.386-3.574.515-5.492-.129-.129.258 1.278-.129-.383 0-.128.387.512-.258-.253h-.515q-.194.188-.387.382c0 .766-.129 1.532-.258 2.172 0 .89-.129 1.914-.129 2.809-.129 0-.257 0-.257.125h-.641c-.129 0-.129-.125-.258-.254-.129-.512-.258-1.024-.387-1.66-.257-.13.645 1.148-.515-.512-.13.129-.387.129-.516.129s-.387.129-.512.254c-.515.512-.902 1.023-1.417 1.664q-.194.38-.387.765c0 .254.129.508.129.766.386.895.773 1.785 1.16 2.68.129.512.258 1.023.387 1.406 0 .383.128.512.128.895 0 0 .125 0 0 0-.386.125-.773.253-1.289.253 0-.128-.129-.253-.129-.382-.128-.254-1.16-3.832-1.8-3.832-.516.129-.774 0-1.032.382.13 1.407.258 2.938.258 4.344-.515.125-1.16.254-1.8.254v-.129c.257-1.402.773-3.574 0-4.722-.13 0 .128.253-.13.128-.902 1.532-1.93 2.934-2.96 4.34 0 0 .129.254-.13.13-.386-.384-.773-.766-1.284-1.15.898-1.152 1.8-2.171 2.574-3.195v-.253s.254.511-.262 0c-1.543.382-3.086.894-4.633 1.277-.64 0-.64-1.406-.77-1.918 0 0 0 .387.13-.125 0 0-.13.254 0-.129 4.246-.512 8.62-1.914 11.582-5.11.386-.507.902-1.019 1.418-1.53q.768-1.344 1.543-2.68l1.543-2.684c.386-.894.644-1.914 1.03-2.808.13-.641.388-1.149.516-1.79 0-.253 0-.511-.128-.765 0-.13-.13-.13-.258-.254-.258 0-.387 0-.645.125-.129.129-.387.258-.64.383-.13.258-.387.383-.516.64-.387.512-.773.895-1.29 1.403-.515.64-1.026 1.152-1.671 1.789-.258.129-.516.129-.773.129-.258-.13-.387-.13-.645-.13 0 0 .258 0 0-.128.902-1.02 1.676-2.043 2.574-3.063q.194-.194.387-.382h.129c-.129-.13.129.125-.129-.13 0-.128-.129-.128-.129-.128-1.285.129-2.574.258-3.86.258-1.03.125-2.058.125-3.09.125h-.128v-1.532c.129-.254.258-.636.258-.894h.387c.773.258 1.414.383 2.187.64.773.125 1.547.383 2.445.508h.903c.129-.125.382-.254.64-.383v-.125c0-.128-.129-.257-.129-.257-1.027-.895-2.058-1.66-2.957-2.551-.129 0-.129-.13-.257-.258.257-.254.382-.512.511-.895a1.8 1.8 0 0 0 .39-.507h.255s.129 0 .258.125c.644.64 1.418 1.406 2.187 2.043.387.257.902.64 1.29.894.386.13.644.254 1.026.383h1.032c.258-.129.515-.383.773-.637.13 0 .13 0 .13-.129-1.161-1.53-2.317-3.062-3.606-4.597-.13-.254.773 1.148-.258-.508.258-.512.515-1.024.902-1.535h.258c.387.64 1.027 1.277 1.543 2.043.258.257.516.765.902 1.023.13.254.516.512.774.766 0 .129 0 0 .125.129.258 0 .386.125.515-.13.258 0 .258 0 .387-.253v-10.348c-.129-.383-.129-.765-.129-1.273v-1.535c0-1.149.13-2.426 0-3.45 0-.382.13-.765.13-1.273.128-.129.257-.387.386-.64.129 0 .258-.13.387-.13.128 0 .257 0 .386.13.13.128.254.253.387.382.129.512.383.895.512 1.277 0 .766.129 1.407.257 2.043-.128.766-.128 1.536-.128 2.301.128 1.278.257-8.812-.13 3.828-.128 1.278-.128 2.555-.257 3.703 0 1.278-.125 2.43-.125 3.707.125.254.254.508.254.637.258.13.515.13.773.13.258-.13.645-.384.903-.513.64-.765 1.285-1.406 1.93-2.043.128 0-.387.254.257 0 .258.512.516.895.773 1.407v.382q-1.931 1.338-3.863 2.68c0 .13-.129.254-.258.383v.64c.258.255.645.383.903.637.515.13 1.027.254 1.543.383.644 0 1.289 0 1.8.13q.774-.196 1.547-.384c.645-.258 2.832-1.789 2.446 0-.516.383-1.16.766-1.801 1.149-1.16 1.53-.902 1.789 1.156 2.043 2.703.129 2.703-.383 1.418 2.297-.516 0-4.89-2.81-4.89-.891.511 1.277 2.316 2.426 3.343 3.32 0 .125-.898.766-1.285.637-1.289-1.149-2.574-2.426-3.863-3.574-.254-.13-.387-.258-.516-.258h-.383q-.193.195-.386.383v.77l.386 1.148c.254.636.512 1.277.77 1.789 2.832 5.234 6.566 8.808 12.875 8.808.254.13.77 1.918.512 2.043-1.414 0-1.543-.382-1.543 1.153 1.672.636 3.988.125 5.148.765 0 .254-.387 2.809-.902 2.426-1.93-.766-4.375-2.043-6.434-2.043-.516.766-.258.637 0 1.402 1.285.895 2.703 2.043 3.73 3.067-2.058 1.914-1.285 1.277-3.73-.895-2.445-1.789-1.289 1.149-2.187 2.043h-.774c-.515 0-.129-5.617-1.289-6.64-.77.257-1.156 1.023-1.414 1.66-1.289-1.278-2.445-2.426-3.219-3.957-.129-1.406.13-2.938-.386-4.215a36 36 0 0 0-.387-.383h-.516c-.125.125-.254.125-.254.383-.129.254-.129.637-.257.894.128.891.128 1.66.257 2.426.13.766.13 1.406.254 2.043.13.895.39 1.79.645 2.684 0 .254.129.637.258 1.02 2.187 5.363 4.89 9.066 10.296 11.492 6.567 3.066 14.29 2.171 21.11.382.644 2.684 1.031 2.043 3.605 1.024.899-.383 1.801-.895 2.703-1.278h.13c0 .13-.13-.128.128.254 0 .512-.129-.382.13 1.407-1.806 1.148-5.923 3.703-8.11 3.062-1.031 1.918.129 1.406 2.058 1.79 1.286 0 2.575.257 3.989 0 .902 2.042-1.414 1.534-2.575 2.042-1.543 1.918 4.508 1.535 5.149 1.535.258 0 .515.125.902.125v.13c-.258.51-.644 1.023-.902 1.405 0 .125-.125.125-.125.125-.774-.125-5.793-1.914-6.05-1.402.128.254 3.347 3.32 2.573 3.703-1.289.895-1.418.254-2.445-.64-.773-.895-1.418-1.914-2.703-1.66-.387.64-1.805 1.66-1.543 2.554 1.285 1.149 2.441 2.426 3.73 3.574 0 .258-2.058 1.278-2.445 1.153-.258-.383-4.504-6.77-4.504-3.196.125.77.254 1.536.254 2.301-.254.125-.512.125-.77.125-1.16-1.914-2.316-4.21-1.8-6.512-.13-.765 0-1.53-.903-1.148-1.546 1.406.387 2.555-2.445 2.555-.387-.895-2.445-4.598-2.96-1.914.644 1.53 1.413 3.062 2.187 4.593-.645.258-1.543.895-1.93.258-.387-1.66-.902-3.191-1.418-4.851-1.285-.895-1.8 1.148-2.316 2.168-.512 0-1.028-.508-1.414-.766-.258-.766 1.027-2.938 1.414-3.574 0-1.406-3.22-2.301-4.246-3.067-.774-1.148-.516-1.148-1.93-.894-.258.64.898 3.578 1.156 4.597-2.059 1.278-2.059.895-2.703-1.148-.258-1.277-.645-2.684-.774-3.96-.511-.384-.769-.126-1.414-.126.516 7.406 3.993 13.406 10.555 16.473 1.031.383-2.574-.766 2.961 1.023 1.285.383-3.348-.765 3.988.895 2.703.636 3.22.508 6.18.636 4.246-.511 6.691-1.406 10.297-3.703.129 0 .258.13.387.13.257.124.515.382.773.507v.129c-.773.766-1.805 1.531-.773 2.426.515 0-1.032 0 1.285-.125 1.16-.258-2.703.765 3.219-.77.257.383-.387-.89.644 1.024-.129.129-.129.254-.129.254-1.418.511-2.96.894-4.375 1.277-.258 0-.515.129-.773.129-1.16.129-2.317-.13-1.93 1.148.77.383 1.027.258 1.93.258 0 0-.13-.258 0 .125-.645 1.918-.13 1.148-.774 1.66-1.027-.254-6.05-2.043-7.078-.765 0 1.023 0 .636 1.027 1.53 1.418.895 2.833 1.79 4.122 2.684.515.254.773.254.386.766-1.8 1.79-.129 1.79 1.414 2.043.903 0-1.93-.254 2.446.129-.13.383-.258.894-.258 1.277-.125.254-.258.508-.258.637-.125 0 .133-.129-.254.129-1.289-.383-2.445-.766-3.734-1.149-2.059 0-.645 2.043-1.543 2.551-1.805-.254-3.09-4.851-4.766-6-1.027 0-2.57 1.278-2.57 2.426.512.512 1.027 1.148 1.543 1.79 1.289 1.784 1.289 1.401-.13 1.913-.772-1.148-1.546-2.297-2.702-3.191-1.672-.512-.645 2.68-.387 3.449-1.543.508-1.672.125-2.445-1.277-.774-1.536-1.285-3.32-1.285-5.11-.516-.129-3.993-.894-3.993.13 0 .636.13 1.276.258 1.784.516 2.043.516 1.79-1.418 1.66-1.156-2.554-1.156-4.086-1.285-5.87-.387-.258-.773-.13-1.289-.13 0 5.618 2.32 10.598 7.98 12.258-.128 1.66.13 1.407-1.93.766-1.929 1.277 1.93 2.426 2.833 2.937.644.258 1.289.641 1.8 1.024 0 1.277-.769 1.277-1.929.894-1.672-1.152-3.477-2.3-5.148-3.449-1.672 0-.903 1.531-.387 2.809.387 1.277.515 1.531-.645 1.66-1.285-.512-1.672-4.215-2.058-5.617-.645-2.555-.774-2.426-3.09-1.149-1.028.766-.77.383-1.156 1.149.257 1.785 2.058 3.32 1.93 4.851-2.446 1.66-1.415-1.406-3.22-1.148-.64.512-1.156 1.914-1.542 2.808 0 0 .257.13-.13 0q-.58-.382-1.16-.765s.13.125 0 0c.645-.766 1.805-2.043 2.192-2.938 0-2.554-2.961.383-3.477-.258-.129-.89-.257-.382 0-.89 3.864-2.809 5.664-4.98 1.286-8.047h-.77c-.773 1.023 0 3.191-.902 3.96-2.446-1.023-2.188-.257-1.414-2.812.253-1.66 1.156-3.957-.387-4.851-.516 0-.903-.13-1.29-.13-.386 0 1.16-.124-1.155.13-.13 0 .386-.254-.516.129 0 .125.258-.13-.129.254 0 .64-.129 1.277-.129 1.918 0 1.02.129 2.043.129 3.062v4.727c.129 2.808.258 5.746.387 8.554.129 1.024.258 2.043.258 3.067.128.508-.13-.77.386 1.402.516 1.024 1.028 2.172 1.543 3.195.387.637.774 1.274 1.285 1.914.258.512-1.285-1.406 1.16 1.532.258.258-.902-.766.903.765v.13c-.258-.13.387.511-.902-.512-.774-.891-1.543-1.786-2.317-2.809-.516-.637 1.543 2.3-1.418-1.914-.129-.383.516.894-.383-1.024 0 0 .13.383 0-.253-.129 0 .13.125-.257-.13-.258.13.77 0-.774.13-.129.125.129-.383-.258.382v2.938c.13.894.13 1.789.13 2.68l.386 11.496v1.66c0 .508 0 1.02.129 1.531-.13.512.129-1.918-.13 1.531.13.512 0-1.914.259 1.79 0 0-.258-.258.129 0h.77c.128-.258-.384.511.386-.895l.387-1.149c.129-.129-.258.254.257-.382.258-.766.645-1.536 1.032-2.301.511-.766.898-1.403 1.285-2.043.387-.254-.774.765 1.031-.766.129-.129-.387.383.516-.383.257.13.382.13.64.13.258.124-.382-.13.516.253.258.383-.516-.511.902 1.024.258.507-.644-1.153.903 1.785h.254c0-.125-.125.512.257-.512.516-1.148 1.032-2.426 1.547-3.703.64-1.402 1.285-2.68 1.801-3.957.258-.512-.645 1.406.902-1.406.254-.254-.644 1.023.77-.89.644-.895 1.418-1.79 2.187-2.813.13.128-.125-.254.13.257.257 1.149.386 2.172.515 3.32.129.126-.258-.257.258.384.129.128-.516-.258.386.253.258 0-.515 0 .516-.125.129-.129-.387.383.387-.511.129-1.149.258-2.301.387-3.32.253-.641-.258 1.785.382-1.79q.387-.768.774-1.53c.258-.513.644-1.024 1.031-1.661.516-.512 1.027-1.024 1.543-1.66.129-.258-.516.894.516-.766.128-.129-.387.383.386-.512h.13l.386.766c.129.383-.258-1.406.383 1.277-.125.766-.125 1.66-.254 2.426.129 0-.258-.254.254.254.386 0 .644.129.902.129.129-.129-.387.254.387-.383.644-1.148 1.289-2.426 1.93-3.574a8.3 8.3 0 0 0 1.289-1.66c.257-.258-.387.894.64-.77.13-.254-.129.64.262-.765.125 0 0 .129.125-.125 0 0-.125 0 .129.125.129.386.129-.891.258 1.406-.13.512-.13 1.148-.258 1.789-.13.383-.387.89-.516 1.402v.13c.262.128-.512-.255.774.382.129 0-.258.129.257 0 .13-.254.387-.512.516-.766.129-.382.258-.765.258-1.023q.77-1.532 1.543-3.063c.129-.382.387-.894.644-1.277q.58-.958 1.16-1.918c.254-.383.641-.89 1.028-1.402.902-.895 1.8-1.024 3.09-1.149 0 0-.258-.129.258 0 0 .254.386-.511-.13.766-.515.766-.902 1.531-1.417 2.172v.254c0 .254 0-.383.129.511.128.125-.13-.128.257.125h.516q.387-.379.773-.765c.13-.254-.128.512.387-.512q1.349-1.722 2.703-3.445c.516-.512.899-1.024 1.414-1.535.645-.508 1.29-1.02 1.93-1.657.516-.386-1.027.766 1.547-1.023.64-.383 1.414-.766 2.187-1.148.774-.258 1.543-.383 2.317-.641h1.543c.515.129-.64 0 1.676.129 0 0-.13.129.128-.13v-18.261c0-3.574 0-7.148.13-10.726v-7.536c0-.253-.13.641 0-.765 0 0 .128.383-.13-.125-.515.508.774-1.152-1.418 1.402-.898.895-1.671 1.79-2.703 2.684 0 0 .258-.258-.129.125-.128 0 .13 0-.382-.125-.387-.258 1.027.765-1.29-1.024-.128 0 0 .13-.128-.129v-.125c.902-.894 1.8-1.66 2.703-2.554.902-.895 1.93-1.79 2.832-2.684.129-.125-.13.258.258-.383v-.382c.129-.637.129-1.278.257-1.915v-.511c.13-1.149.13-2.297.13-3.45 0-.765.128 2.172.128-2.167 0-.641.13-1.407.13-2.043-.516-1.153-1.032-2.301-1.548-3.32 0-.259-.129.253 0-.512.516-.766.903-1.407 1.29-2.172.511-1.149 1.027-2.297 1.671-3.45 0-.125-.129.258.13-.382-.13-.125.515.129-.645-.508-.13 0 .386 0-.387-.13-.125.13.129 0-.258.13-.898 1.785-1.93 3.703-2.832 5.617-.254.383-.383.766-.64 1.148.64 1.153 1.156 2.301 1.671 3.45-.257.636.645-.895-1.03 1.53-.126 0 .26.13-.255-.124-.515-.387-1.031-.895-1.547-1.406-.258-.254.903.765-.77-.64-.128 0 .77.257-.644-.126-.129.125.258 0-.258.125 0 .129.258-.125-.257.387 0 .383-.13-.512.128 1.02 0 .382 0 .894.13 1.277 0 .129-.258-.512.128.382v.13c-.129.124.13-.13-.257.253h-2.188s.129.254 0 0c-.129-.894-.129-1.66-.129-2.425 0-.637.129 1.789 0-1.79-.129 0 0 .258-.129-.125-.258-.128.258 0-.644-.257-.258 0 .257-.125-.516.129-.516.382-1.027.765-1.543 1.148-.258.129.516-.895-.644.64-.13.766-.13 1.403-.13 2.169 0 .257-.257-.891 0 .765-.128.77 0-2.168-.128 1.918-.516.254-1.028.512-1.543.637-.13 0 .129-.125-.387 0-.129 0 0 .258-.129-.125 0-.64 0-1.277.129-1.918-.129-.254 0 .766-.129-.637-.129-.129.387.512-.515-.512-.13 0 .386.13-.387.13-.13 0 .129-.13-.254.253-.516.895-1.547 3.575-2.32 3.961-.383-.129-1.286-.512-1.543-.765a85 85 0 0 0 2.96-3.45s0 .383.13-.257c-.13-.125.128.257-.13-.254-1.8-.895-1.675 1.148-3.218 1.148-.13-.129.387.258-.516-.383.387-1.02 2.961-2.043 1.418-2.937-1.933.383-3.734 1.535-5.664 1.789-1.031 1.531-1.16 3.832-1.93 5.492-2.832 0-1.546-.77-.902-2.555 1.285-3.191-2.574-.382-3.988.508-.387 0-.774-.89-1.031-1.148 0-.254 3.472-1.403 3.859-1.66 1.031-1.403.129-1.278-1.414-1.532-.258-2.554.129-1.789 2.445-1.53 3.09.51 5.02.382 7.207-1.661 0-.383-2.445-.766-2.96-.895v-1.406c.644 0 6.952-.125 4.12-1.914-.902-.383 3.344 1.66-2.574-1.148-1.289-.641-.258-1.66-1.805-1.407-1.414 1.79-2.828 3.32-4.117 5.239-1.93-.512-1.16-.512 0-1.918 1.29-3.063-3.476.382-4.762.64-.257-.382-.515-.77-.773-1.023 1.676-.766 4.633-2.172 5.406-3.832-.386-.254-.644-.512-.898-.766-1.16 0-1.29 2.297-2.961 1.531-.387-.382 2.187-4.21 1.672-4.851-.13.129.258 0-.387.258-.902.765-7.207 6.765-7.207 3.574 1.027-.895 1.93-1.406 2.316-2.684-1.16-1.53-4.632.383-6.695-.254-.254-1.914-.512-1.66.903-1.66 1.93 0 3.734.13 5.535-.254 1.289-1.535-.774-1.406-1.672-1.406 0-.383.129-1.148.512-1.277 2.96.129 5.792.383 8.625.258 2.19-.258 3.863-.258 5.921-.77 2.446-.894 4.118-1.914 6.438-3.191 4.246-2.043 7.976-3.832 9.91-8.301 1.414-1.406 1.93-5.11 2.832-6.64-1.547-.766-.902-.895-1.805.128-.64.766-1.93 2.68-2.832 3.828-1.027.13-1.8-.508-2.574.258-.64 1.66-1.156 3.957-2.574 5.234-3.988-.765-.258-2.425.387-4.851-1.157-1.914-2.575 2.555-3.602 1.918-.129-.387.258-5.492-1.289-3.067-.773 1.278-1.156 3.45-2.703 2.426-.129.13.129 0-.387.254 0 3.195-.129 5.492-2.96 7.152-1.544 0 .644-1.406-.77-2.68-.387.126-3.606 3.192-3.606 1.15a58 58 0 0 0 3.988-3.962c-1.027-.125-7.078 1.024-7.976 1.918-.129.125-2.961 5.364-2.445 3.32 1.414-5.62-2.704.126-3.735 1.66-3.09-.511 1.672-2.171 0-3.577-4.504-.637-1.289-1.02 1.031-1.278 1.415-.765 4.118-1.531 2.317-3.191-.387.258-3.863 3.066-4.121 1.789 2.316-5.11-3.73.512-5.02-.766 1.29-1.023 5.149-3.832 1.16-3.96-1.418 0-6.566.636-4.12-1.79 3.218.383 7.722 1.79 9.269-1.148-.516-1.02-3.992-2.297-4.375-3.445 1.414-2.301 1.543-.641 4.117 1.02.899.382 2.316 1.023 3.09.51-.902-1.405-2.961-3.573-.258-3.831 5.79 4.98 11.582 4.726 17.504.383 6.566-3.45 11.328-8.684 14.676-15.067 0-.258-.645-.64-1.16-.64-1.418 2.043-1.16 3.449-3.09 3.449-.516-6.64-3.348 2.172-4.762 2.297-.258-2.168 3.73-2.297-2.96-1.914-1.93 1.148.644 4.722-1.415 6.257-3.863.637.125-1.406-1.805-2.937-1.543.512-1.543 2.426-2.445 4.215-3.86.89-.644-2.43.387-3.832 2.316-3.32.387-3.192-3.477-3.575-1.543.254-.898 3.575-1.027 5.106-1.543 1.531-1.418 2.3-2.188.129-1.933-1.531-1.418 3.062-4.12 2.172 0-.895 2.058-2.813 2.574-3.961-.387-2.297-3.473 1.531-3.09-1.149 2.574-1.02 4.507-1.02 2.703-3.832-.77-.507-.64-.382-1.414-.636-2.059 1.02-4.121 1.789-6.18 2.68h-.387c-.129-.126.387.511-.382-.509v-.128c.64-.383 1.414-.895 2.187-1.278.516-.511.77-1.148-.129-1.66-.644 0-1.16 0-1.676-.129h-1.543c-.644-.125-1.289-.125-1.93-.254-.128 0 .13.13-.257-.129 0-.382 0-.894-.13-1.406.13-.383 0 .895.13-1.148.644.257 1.414.511 2.187.765.903.258 1.801.512 2.703.77 1.415.254 3.22.383 4.247-.512 0-.765-4.247-3.96-.512-3.45a8.4 8.4 0 0 1 1.8 1.024c7.852 4.086 16.22 1.02 22.524-3.578l2.188-2.043c.515-.89 1.804-2.297 2.703-4.597.644-1.532 1.03-1.914-.64-2.297-1.29 1.66-4.38 6.129-6.696 6.129-2.703-1.786 0-1.278.773-3.832-.644-1.149-4.25 0-5.406.128-.129-.511-.258-1.148-.516-1.66.516 0 7.852 1.149 4.89-1.406-2.573-.766-3.089-.383-1.67-2.426h.515c3.86 1.535 6.562 2.555 10.425-.125.258-.382.512-.64.774-1.023v-.254c-.902-.512-5.024-3.066-5.281-4.215 1.547-2.172 1.289-1.277 3.734.125.516.129 1.16.387 1.672.64.258 0 .644.13.902.13.13 0 .13-.13.13-.13 0-.382 0-.894-.13-1.277-.386-5.875-.515-6.765-.515-9.832.257-.765.515-1.66 1.418-1.918 1.671.387 1.414 3.067 1.543 4.473.128 2.68.128 5.363.128 8.043 0 .512.387.64.774.64 1.672-.128 3.09-.64 4.375-1.66.129 0 .258.254.258.254.129.512.258 1.278.258 1.66-1.29.512-2.704.895-3.993 1.407-.257.125-.382.254-.382.512.382 1.53 1.543 2.808 2.96 3.445 2.57 1.531 5.79.64 8.11-.637.64.125.898.895 1.285 1.149v.253q-1.354.573-2.703 1.153c-.258.254-.387.637-.129.89.644.766 1.8.766 2.703 1.153.902.125 1.93.508 2.961.508 0 .64 0 1.277-.387 1.66-1.8-.383-3.605-.89-5.535-1.278-.387 0-.773 0-1.031.387.258 1.277 1.418 2.043 2.191 3.063 0 .129.125.129.125.129-.382.253-.511.511-.898.511-1.93-1.789-3.735-4.09-5.664-6.004-.774-.511-1.801-1.148-2.574-.511-.516.894-.13 1.789.128 2.554 2.575 5.746 8.497 10.215 14.543 11.493 5.407 1.152 11.2 0 16.348-1.786.774.383.645 1.403.774 2.168-.387.383-1.801.13-1.16 1.153.128.125 0 .507.257.507 2.574-.636 5.149-1.53 7.723-2.425.902-.254.515 2.554.387 2.937-1.157.895-6.051.64-5.664 2.43a19 19 0 0 0 2.445 2.043c-.254.508-1.93.89-2.317.508-2.832-2.426-2.703-3.192-6.562-2.168-1.031 1.402 2.445 3.316 3.476 4.086-.257 2.68-2.707-.258-4.12.125-.774.765 1.16 3.703 1.542 4.343-.382.512-1.027.637-1.543.895-.773-1.918-1.543-3.832-2.187-5.875-.258-.512-1.29 2.937-1.29 3.062-2.831.641 1.161-5.87-.64-6.253-1.418-.13-6.566 0-5.922 2.425 1.157 1.66 2.188 3.32 3.22 4.98-.13.255-1.419 1.403-1.548 1.15-.898-1.532-1.672-2.938-2.316-4.47-.258-.257-.645 0-.903.125-.382.766-.128 1.79-.128 2.555-.383.258-.899.129-1.157 0-.257-.254-.257-.894-.257-1.402-.13-1.406-.258-2.684-.387-4.086-.774-.64-1.801-1.277-2.961-.895-1.285.508-.254 2.168-.77 3.063l-.129-.125c-1.03-1.278-2.062-2.555-3.09-3.961-.257-.254-.515-.383-.902-.254-.644.383-.773 1.66-1.672 1.148-1.672-1.914-1.672-4.343-2.058-6.77l-.13-.124c-.386 1.148-1.546 2.168-1.03 3.574 1.03 4.727 5.148 8.172 8.753 11.363 2.704 2.301 5.665 4.602 9.008 5.75 3.22 1.403 12.36 4.852 14.676.254.512-.383.125-1.277.899-1.277 3.218 0-.899 4.344 1.933 3.574 1.543-.765 2.957-1.785 4.375-2.55.516.636 1.156 1.148 1.027 1.913-2.058 1.407-5.66 3.192-.77 3.192 1.93 0 3.731-.383 5.665-.383 1.543 2.426-4.637 1.914-5.535 2.555-.258.64.64 2.425 1.027 3.191-2.96 2.684-2.574-3.957-4.89-3.703-.258.895-.258 1.918-.387 2.813-3.988 2.296-2.703-2.555-2.957-2.684-.262-.258-.387-.64-.774-.512-3.09 3.832 2.704 6.64 5.536 7.535.511 1.66-1.93-.254-2.575 1.149.13.765 1.801 2.683 2.446 3.066-.13.512-.774.383-1.16.512-.903-.512-2.961-5.363-4.247-4.344-.257.895-.386 1.914-.515 2.809-1.285 1.66-.903-4.98-1.93-4.98-2.187.769-4.766.382-6.309-1.274-.257-.13-.515-.387-.77-.512-.772 2.168 1.286 3.957 2.958 4.852-.516 3.449-5.664-4.852-4.89.129.128.765.386 1.402.386 2.043-.773 0-1.672-.258-2.059-.895-1.03-1.66.258-7.918-1.418-8.555-.898-.129-1.671-.129-2.703-.129-.129.512.258 1.278-.129 1.66-.511.13-.898 0-1.414 0-.644-1.023-1.16-2.3-1.93-3.32-.386.125-.773.254-1.03.508.644 2.047 1.671 3.961 1.8 6.133-.511.383-1.156.254-1.8 0-.903-1.79-1.801-3.703-2.446-5.746-.258-.13-.644-.387-1.031-.512-.383.512-.512 1.277-.77 1.914-.129.258-.386 0-.515 0-.774-1.531-1.29-3.32-2.059-4.98-.387-.383-.773 0-1.16 0-.129 0-.129.129-.129.129.774 6.64 6.18 12.386 12.23 15.195 6.692 3.195 13.383 4.855 20.723 3.195.254.254.64.383.899.637-.258.512-1.543 1.023-.512 2.043 1.8 0 3.473-.125 5.144-.125.258.254.13 1.531-.253 1.656-2.063-.125-4.122.13-5.922-.383-2.703.77 1.414 2.813 2.316 3.196-.773 3.828-4.25-3.32-6.18-1.79.774 3.192.903 4.215-2.187 2.044-.387.128-.645.64-.774 1.02 1.676 1.276 3.22 2.683 5.024 3.706-.258.508-.516 1.02-1.031 1.402-1.672-1.277-3.477-2.425-5.149-3.574-1.676.895-.387 1.278 0 2.297-1.289 2.043-3.605-4.723-5.535-4.086-1.543 1.153-2.832 2.555-4.504 3.067.13.511-.258 1.02.13 1.277 1.284 0 2.702.254 3.987.254.258.765.387 1.531.645 2.426-.645.129-3.09.382-3.09.765 2.832 1.918 6.691 2.684 10.04 1.66 1.933 2.555.515 2.172-1.286 2.043-.258.258-.387 1.153 0 1.407 1.285 0 2.703-.13 3.988 0 0 .894-.258 1.66-.258 2.554-1.027 0-5.793-3.32-6.175-2.937.511 1.148.77 2.426 1.156 3.578-.387.379-.899.379-1.414.379-.774-2.555-2.059-5.235-4.637-6.512-3.215-1.148-2.828-1.148-1.414 2.043-1.93 1.024-2.703-1.785-3.73-2.937-.387.128-.774.382-1.16.64 1.285 2.043 2.831 4.086 4.117 6.258-.383.383-1.028.895-1.543.895-1.801-1.278-3.09-3.196-3.348-5.239-.129-.129-.129-.129-.258-.129-.512.895-.898 1.79-1.414 2.684-.258.254-.773-.129-1.156-.383-.39-.129 0-.512 0-.64.254-.891 1.027-1.786.77-2.68-.77-.64-1.673-.766-2.575-1.277-.515-.383-1.414-.766-1.289-1.532-.512-.258-1.027-.129-1.414 0-.129 0-.129 0-.129.125.387 1.66.774 3.32.902 5.11-.386.129-.902.254-1.418.382-.386-1.53-.64-3.191-1.027-4.722-.129-.258-.387-.512-.515-.64-1.16.128-1.415 1.53-2.317 2.042-.515-.383-.902-.894-1.418-1.402 0-.13.13-.13.13-.258.901-.766 1.546-1.66 2.315-2.426 0-.129 0-.254-.125-.512-1.289-2.296-2.32-4.722-3.605-7.152-.258-.383-.645-.383-1.031-.254-.383.13-.258.512-.258.766 1.16 2.172 2.187 4.473 3.348 6.64-.258 1.024-1.29 1.407-1.801 2.172-.258.383-.903.637-.774 1.149.516.765 1.16 1.277 1.672 1.789.13 4.086 0 8.3.258 12.515.774 5.235 3.09 9.832 7.082 13.536 0 .382-.258.765-.516 1.02-1.675-1.786-3.347-3.958-5.406-5.36-.258-.258-.644 0-.773.254-.258 1.53-.13 3.191-.258 4.722 0 7.282-.129 15.2 0 22.223 0 .254.258.383.387.383 3.347-.512 6.437.512 8.882 2.808 2.317 2.172 3.86 5.11 5.02 8.047.258.254.387-.258.516-.383.254-.765 1.027-1.406 1.8-1.789 2.961-.129 5.149 6.13 5.922 8.172.383.258.77-.383 1.157-.511 2.574-.766 4.25 2.046 5.406 3.832 2.187 0-.387-2.555.387-4.086.257-.512.515-.13.644.129 1.93 3.062 5.149 5.875 4.89 9.703 2.833 1.023.516-5.235 2.446-4.594.773 1.785 1.8 3.445 3.09 4.851 3.219 1.02 4.246 6.512 4.89 9.32 1.286 2.044 2.06-4.214 3.09-1.784.899 1.148 1.801 2.425 2.703 3.703q.77 1.723 1.543 3.445c.13.258.387.512.774.512.258 0 .387-.383.515-.512.254-6.512.641-13.406.512-19.922-.129-1.02.258-2.68-1.156-2.168-1.29 2.168-2.703 4.598-4.89 6.13-.774.253.769-1.15.898-1.407 2.445-3.063 3.219-6.64 4.12-10.344.388-2.172 3.731-18.515 0-18.77-1.804.766-.257 7.15-2.96 7.407-.129-1.277 0-2.684-.129-3.832-.645-2.172-5.02 3.832-4.246 4.726 1.027.891 1.93 2.168 3.086 3.063-.899 3.066-1.8-.637-3.344-.129-1.676 1.152 3.73 3.45 0 6.004-.516-.895.129-3.578-1.031-4.215-1.672-.254-1.672 4.469-3.09 2.3.129-.51.516-.769.645-1.277.902-2.042.515-4.472-.13-6.386-.257-.254-1.542.894-1.8 1.148-.774 1.918-1.16 3.961-2.317 5.875-.773 0-1.546.13-2.32-.129.262-.508 2.063-3.957.645-3.957-2.059 1.024-2.446 3.574-5.79 3.32 0-.382-.902-1.277 0-1.406 2.188-.765 5.532-2.043 4.891-4.98-1.676.383-2.703 2.3-2.703-.254 4.504-1.914 9.395-5.875 8.621-11.367 0-.637.13-1.785-.512-.508-.644 1.02-3.734 6.129-5.02 6.129.13-1.277.642-4.086-.901-3.45-.645 1.024-4.762 8.43-6.051 6.512.129 0 .129.512.129-.254.902-1.02.902-.765.129-1.789-.13 0-4.118 1.536-4.891 1.79 0-1.66 6.438-2.172 2.703-4.086-1.031-.512-1.805-1.024-2.832-1.278-1.672.254-2.316 4.215-4.117 4.469-1.29-.254-1.676.129-.516-1.149.77-1.66 1.285-1.406-.515-1.914-1.418 1.274-2.188 1.914-4.121 1.914h-.254c-.387-.511 1.027 1.278-1.16-1.53 0 0-.258.124.128-.13 2.188-.382 4.762-.511 6.18-2.554-.387-.254-3.09.257-3.219-.254 0-.383 0-.258.258-.512 2.961-.254 4.117-.129 6.18-2.68-.645-.64-7.598-.257-9.012-.257-.258-.13-.515-.254-.644-.512-.13 0-.13 0-.13-.125.13 0 .13 0 .259-.13 1.03-.253 3.218-.64 1.542-2.042-.77-.254 1.676.637-2.187-.766-1.027-.382 2.574.895-3.09-1.152 0-.125.133.387 0-.254.133-.512.133-1.02.133-1.531h.129c.254.129-.39-.258.512.254.128 0-.258-.254.386.129.516.382-1.672-.766 1.801 1.02.129 0 .258.128.387.257.387.125.644.254 1.031.383.129-.13.387-.13.645-.13 0-.128.125-.253.125-.382 0-.254-.125-.512-.125-.766-.387-.382-.645-.636-.903-1.023v-.383c0-.254.13-.383.13-.637 0 0 .128 0 .128-.128.258.128.645.257.898.257 5.665 2.426 9.657 2.426 15.961 1.786 3.477-.895 5.536-1.403 9.27-2.81 4.762-3.573 9.008-7.788 10.039-13.917-.258-.258-.773-.64-1.16-.383-1.156 1.785-2.317 3.574-3.473 5.235-3.219 0-.387-.766-.644-3.192-1.543-.765-3.993 1.02-5.407 1.66-1.543 1.532 1.29 4.211.516 5.235-.516.129-.902.254-1.418.382-.512 0-.387-4.214-2.187-2.043-.512.895-2.059 6.387-3.606 4.723.902-1.785 1.676-3.574 2.45-5.36 0-1.788-2.833.384-3.22.509-2.187-.383-1.8-1.914-2.316 1.789-.258.765-.902 3.703-1.676 3.957-2.703 0-.64-.766-1.156-2.809-2.058-1.66-3.734 5.875-6.308 2.3 2.19-1.405 4.632-1.917 2.058-3.702-1.156-1.024-.64-1.66 0-2.938-.129-.383-.383-.383-.898-.765-.516 0-3.864 4.851-4.762 2.425.258-.894 2.828-2.554 2.316-2.937-1.93.512-3.863 1.02-5.921 1.402h-.13c-.128-.254-.257-.508-.257-.89v-.13c.129 0 .387 0 .644-.128 1.157 0 3.735.129 4.246-.895-.511-1.914-2.058-.125-1.93-2.297.387-.253 7.852.766 5.278-1.406-3.219-.894-5.02-1.914-7.594-4.086-.129-.129.13.254-.257-.254.386-.382-.903.766 1.03-1.023.13.129-.515-.254.512.258 2.32 1.785 1.29 1.148 3.606 2.297 2.832.765 1.031-1.278 3.219-1.79 4.246 1.024 8.367 1.66 12.742 1.024.902 0 1.543-.258 2.445-.64 6.95-3.063 14.031-6.13 16.606-13.79.129-1.148 1.414-7.664.129-8.047-1.16 2.172-2.832 3.961-2.961 6.512-.516.64-1.418 2.3-2.188 2.43 0-1.278.125-3.067-1.418-2.555-.898 1.66 0 4.852-.773 6.383-1.801.258-1.672.766-1.93-2.043-1.027-1.914-3.09 1.918-3.988 2.937-.516 0-.387-.128-1.16-.511 1.289-1.532 2.703-3.192 3.863-4.852 0-.765.129-.129-.387-.894-2.832.511-5.535 4.98-7.594.894.258-.254 8.622-.765 4.762-2.808-1.418-.383-2.058-.895-.644-1.79 2.574-.382 4.12 0 7.207-1.53 1.03-.766 2.832-1.79 3.347-2.938 2.446-2.426 3.606-5.364 5.149-8.301a2.84 2.84 0 0 1-1.032-.637c-1.156.383-3.214 3.446-4.632 4.34-2.832-.383.515-1.785.515-3.957-1.027-.77-2.445 0-4.504.637-.129-.13-.129-.895-.129-1.149 3.86-1.023 4.504-1.53 1.415-3.703l.257-1.535c1.934 1.024 6.696 4.215 8.883 1.79-1.676-1.532-5.277-2.173-4.504-5.49.383-1.917.64-1.023 2.059.891.515.383 2.316 2.172 2.832 1.278 0-5.492-.258-10.856-.387-16.344.13-2.3 1.543-5.11 2.832-.894v18.261c-.387 2.168 1.672-1.918 1.93-2.172.644-1.148 2.703-5.875 3.734-1.406-1.289 1.79-2.703 3.45-3.863 5.363 0 2.555 5.535-.636 6.691-1.277 2.832 1.918-.254 1.535-1.543 3.707 0 2.168 5.149-1.023 5.793 0-.257 4.086-3.605 2.043-6.824 2.297-.77 1.148.774 1.918 2.063 2.684-.387 1.53-2.192.253-2.961-.258-.516-.508-3.477-3.703-3.864-3.703-1.027 5.363 4.633 10.726 8.239 13.535 2.574 1.918 6.308 3.707 9.523 5.11.262.51 0 1.788-.125 2.3-.258 1.148-5.02-2.555-5.793-2.555-.258.383 1.93 3.574 1.414 4.086-1.672 0-1.285.254-1.8-1.531-.13-.129-2.188-5.11-2.833-2.3.13 1.405.258 2.808.387 4.085-2.316.64-.773-.254-1.676-1.66-1.543 0-1.285.129-1.93 1.66-1.027.895-1.156 1.024-2.058-.129 0-1.914 2.059-3.957 2.574-5.746-.257-.637-3.347-3.7-3.992-1.914-.254.895-.383 1.79-.512 2.684-1.16.254-.902.254-1.16-1.153-.129-1.402-.258-2.937-.386-4.468-1.801-1.278-1.286 1.277-1.286 2.043.645 4.597 1.672 8.171 4.633 11.75 2.703 2.808 5.149 4.597 8.883 6 4.375 1.023 9.395 2.3 13.77.382.773 0 .386 0 1.16.77-.258.254-.258.125-.903.637-1.93 2.683 6.051 0 6.567.511.129.254.129 1.278 0 1.914-2.317.383-4.633.641-7.078 1.024-1.547.765-.13 1.531 1.027 2.297-.387.257.773-.383-1.156.894-.387 0-2.703-2.172-3.348-2.808-.773-.258-4.25-.766-4.762 0 .383 1.53 1.93 2.554 3.215 3.832 0 1.66-5.02-1.79-1.543 1.66.258.383 1.543 1.785 1.543 2.043-1.93.636-1.156.508-2.703-2.301-.383-.383-1.027-2.172-1.93-.766-.257 1.407-.129 2.426-1.671 1.66.128-1.277.515-2.296.773-3.449.383-1.66-2.832-5.105-3.606-3.062.387.637 2.06 3.062-.128 2.68-.774-1.532-.258-1.915-1.801-1.403-1.29 1.277 2.058 2.68-1.676 2.809-.129-.64-.64-3.575-1.027-4.98-1.16-.895-1.676.382-2.703 1.53-.387 0 .128.512-.645-.636 1.8-3.832 2.96-3.45-.902-4.98-1.286-.259-1.157-.512-2.059.382-1.156 4.723 1.29 7.79 4.508 10.727 4.504 3.191 8.621 5.875 14.156 6.894 5.277.895 11.711.766 16.477-2.68.386 0 .64.508.77.766-.13 1.66-1.286 2.426 1.16 2.297 2.831-1.02 2.574-1.66 3.218.64-.902.512-2.316.637-3.348 1.02-.644 0-1.289.64-1.16 1.278 1.934 2.3 2.32 1.277.516 2.937-1.027-1.148-2.059-2.426-3.09-3.574-.512 0 .516-.512-1.414.129-.902.254-2.574.636-2.574 1.785 1.289 1.535 3.09 2.683 4.633 3.96 0 .384-.512 1.02-.774 1.278-.512-.383-3.601-3.066-3.344-1.277 0 .894 2.832 3.062 2.704 3.574-.645.129-1.16.383-1.805.512-.899-1.535-1.8-2.938-2.703-4.469-1.028-.64-1.156.766-1.285 1.531-1.414 0-1.543-.383-.903-1.66.258-1.277.774-1.914-.129-2.683-1.93-.508-3.73-1.02-5.664-1.403-1.285 1.149 1.418 2.297 2.45 2.938.382 2.297.382 1.66-1.934 1.277-2.574.508 2.316 3.32 2.703 4.086-.387.383-.77.894-1.285 1.277-.129 0-2.832-2.812-3.477-3.32-2.187.254-.386 2.297-2.96 1.277-1.286-.129 3.605-4.98 0-5.75-1.415.387-.9 1.535-2.188.77-1.285-1.152-2.832-2.938-3.735-.895 0 1.914.645 2.809 1.418 4.086-1.03 2.172-2.445-2.043-2.703-3.191-.773-.64-1.16 0-1.16 1.02.774 3.19 2.574 4.85 4.25 6.386 6.305 4.469 14.801 4.34 22.137 3.192.258 0-.516 2.425-.516 2.808-.511.129-6.949-.383-4.761 1.66.644.512-2.317-2.043 1.933 1.407.254.382-.902 1.019-1.031 1.148-1.16 0-5.406-5.363-5.922-3.066.387 3.195.902 2.683-1.672 3.195-1.672 1.66 3.735 4.21 1.543 4.722-1.414-.511-3.09-3.832-4.504-2.425-.515 2.172 0 2.808-1.672 1.406-.129-.129.645-3.961.645-4.852-.902-.894-1.547-1.535-2.961-1.535-.645.64-.387 3.192-.516 4.344-1.93 1.402-1.16-1.79-1.16-2.555-.258-1.023-.129-2.683-1.672-1.148-.773 1.66-.644 3.191-1.675.383-.512-.512-1.028-.383-1.415.254-.773 3.578 1.16 5.875 3.735 8.171 0 .641-1.031.895-1.418.895-1.414-1.277-1.8-3.703-3.219-4.469-1.156.13-1.027 1.79-1.414 2.809-.902.129-1.285 0-2.059-.125.13-2.047.774-4.09 1.286-6.133-2.317-1.277-1.93 1.918-3.09 2.043-2.188-1.277-2.059-.766-.77-3.062 0-.383-.258 1.402.254-1.024 0-1.277.262-1.785-.512-2.937-.515-.383-1.671-1.403-2.187-1.02 0 4.852-.516 9.961.383 14.813.644 1.914 1.804 3.703 2.578 5.492.383 1.277-1.805-1.918-2.961-1.024 0 1.024-.129 2.043-.129 3.196-.129 8.554 0 17.238.129 25.921.383 2.043 2.832.13 4.117.13 2.317 0 3.477 2.308 4.504 4.097-48.066 16.082-95.95 16.371-143.645-.012" style="stroke:none;fill-rule:evenodd;fill:#0d814b;fill-opacity:1"></path><path d="M70.074 14.59H525.2v339.367c0 125.16-102.402 227.563-227.562 227.563S70.074 479.117 70.074 353.957Zm447.219 7.906H77.98v331.461c0 120.797 98.864 219.656 219.657 219.656 120.797 0 219.656-98.86 219.656-219.656z" style="stroke:none;fill-rule:evenodd;fill:#231f20;fill-opacity:1"></path><path d="M263.262 562.66q.03-2.924 1.25-4.957c.808-1.351 2.254-2.726 4.324-4.117q.47-.323 1.367-.887c2.738-1.758 4.113-3.445 4.113-5.07 0-.965-.293-1.723-.867-2.285-.578-.559-1.375-.836-2.379-.836q-1.639-.002-2.535 1.027-.89 1.03-.89 2.934v.18h-4.02q.001-3.747 2.012-5.77c1.336-1.352 3.25-2.027 5.726-2.027q3.37 0 5.375 1.836 2.011 1.828 2.012 4.882.001 2.174-1.05 3.774c-.7 1.066-2.06 2.281-4.071 3.636q-.638.446-1.762 1.16c-1.914 1.227-2.988 2.165-3.234 2.805h9.906v3.715zM285.09 552.059q-.001 3.98.8 5.773.798 1.8 2.551 1.8c1.164 0 2.02-.605 2.559-1.816q.804-1.81.805-5.757-.001-3.962-.805-5.754-.812-1.799-2.559-1.797-1.753.001-2.55 1.785-.803 1.793-.801 5.766m-4.524 0q-.002-5.62 1.954-8.41c1.304-1.868 3.28-2.797 5.921-2.797 2.625 0 4.602.933 5.918 2.808 1.317 1.875 1.97 4.684 1.97 8.434q.001 5.613-1.954 8.39-1.959 2.768-5.934 2.77c-2.64 0-4.617-.93-5.921-2.785q-1.956-2.784-1.954-8.41M302.46 552.059q0 3.98.802 5.773c.527 1.2 1.383 1.8 2.55 1.8q1.746 0 2.56-1.816.803-1.81.804-5.757-.001-3.962-.805-5.754-.813-1.799-2.558-1.797c-1.168 0-2.024.597-2.551 1.785q-.802 1.793-.801 5.766m-4.522 0c0-3.746.648-6.551 1.953-8.41 1.304-1.868 3.28-2.797 5.921-2.797 2.625 0 4.602.933 5.918 2.808 1.317 1.875 1.97 4.684 1.97 8.434q.001 5.613-1.954 8.39-1.96 2.768-5.933 2.77c-2.641 0-4.618-.93-5.922-2.785q-1.956-2.784-1.954-8.41M319.828 552.059q.001 3.98.805 5.773c.527 1.2 1.383 1.8 2.55 1.8q1.746 0 2.56-1.816.802-1.81.804-5.757-.001-3.962-.805-5.754-.813-1.799-2.558-1.797c-1.168 0-2.024.597-2.551 1.785q-.804 1.793-.805 5.766m-4.52 0q-.002-5.62 1.954-8.41c1.304-1.868 3.281-2.797 5.922-2.797 2.625 0 4.601.933 5.918 2.808q1.968 2.81 1.968 8.434c0 3.742-.648 6.539-1.953 8.39-1.305 1.844-3.289 2.77-5.933 2.77-2.641 0-4.618-.93-5.922-2.785-1.305-1.856-1.953-4.66-1.953-8.41" style="stroke:none;fill-rule:nonzero;fill:#fff;fill-opacity:1"></path><path d="M297.602 185.418c40.164 0 72.738 32.574 72.738 72.742 0 40.164-32.574 72.738-72.738 72.738-40.168 0-72.743-32.574-72.743-72.738 0-40.168 32.575-72.742 72.743-72.742" style="stroke:none;fill-rule:evenodd;fill:#fff;fill-opacity:1"></path><path d="M297.602 183.836c38.793 0 70.656 29.742 74.027 67.664.191 2.195.293 4.414.293 6.66 0 41.04-33.281 74.32-74.32 74.32-41.04 0-74.325-33.28-74.325-74.32s33.286-74.324 74.325-74.324m62.296 50c.645 8.84.063 19.062-.765 27.684q-.084.86-.168 1.699l-.035.351c2.261 6.215 2.797 12.957 2.101 20.067l-.035.117c1.285-.004 2.719-.125 3.93-.227l.273-.023h.031a72 72 0 0 0 4.582-25.344c0-9.14-1.703-17.883-4.8-25.93-1.38.426-3.496 1.098-5.114 1.606m-2.953 28.351c.922-9.269 1.598-20.628.696-30.027-4.633-9.332-9.946-14.77-16.895-18.887-7.676 1.543-16.457 4.422-23.308 8.204.503 7.582.652 16.246-1.743 25.75 7.625 6.437 15.54 14.746 21.743 22.578l.128.16c8.422-1.504 12.657-3.164 19.38-7.777m-96.34-66.054c-9.156 7.05-16.824 14.27-22.246 24.41 1.25 4.59 3.922 11.305 5.895 15.82 7.719-2.89 16.543-4.144 24.77-4.789l.136-.21c5.371-8.04 11.39-15.427 18.324-21.891l-5.289-15.13-.117-.007c-6.172-.563-13.047-.453-19.117.45a73 73 0 0 0-2.356 1.347m103.766 89.55c-1.344.11-2.82.212-4.117.165-2.942 7.652-8.328 14.75-16.156 20.343-.145 2.547-.278 5.09-.5 7.63a72.4 72.4 0 0 0 20.773-28.137m-23.07 29.954.043-.403c.3-2.855.457-5.722.617-8.59-5.156-1.921-9.945-5.226-13.484-7.789-9.852 4.25-20.79 6.91-31.43 8.114-4.344 4.418-7.875 8.976-9.867 13.93l.183.55c.918 2.715 1.617 5.403 2.364 8.149l.101.351c2.555.274 5.145.422 7.774.422 16.425 0 31.562-5.492 43.699-14.734m-81.07-.75c-1.286.832-2.54 1.734-3.825 2.566a71.8 71.8 0 0 0 31.164 12.223c-.656-2.422-1.293-4.805-2.086-7.203-8.293-.82-17.523-4.235-25.199-7.618Zm-5.672 1.246.027-.02c1.351-.836 2.664-1.789 4.004-2.672-4.469-7.343-6.688-15.836-7.137-23.53-8.187-7.016-12.851-14.407-16.879-24.395h-8.816c2.097 20.71 12.953 38.836 28.8 50.617m42.437-11.281c10.195-1.168 20.668-3.692 30.14-7.711.344-.145.68-.297 1.016-.446 4.043-7.523 7.078-15.058 8.032-25.078-6.2-7.898-14.23-16.36-21.942-22.851q-14.393 4.668-27.383 6.507c-3.449 10.313-6.75 20.735-9.093 31.36a82.4 82.4 0 0 0 19.23 18.219m-60.95-41.344c3.974 10.195 8.427 17.578 16.528 24.59l.446.375c7.449.074 15.367-.512 22.695-2.344 2.348-10.633 5.644-21.055 9.094-31.371-6.063-6.836-11.25-13.89-16.016-21.055-8.316.668-17.29 1.992-24.941 5.078-5.207 7.844-6.907 16.281-7.805 24.727m48.18-69.742 5.337 15.25c10.917 2.316 19.19 6.207 26.617 10.746 6.742-3.766 15.312-6.66 23.004-8.317l-.047-.433c-.754-6.797-2.985-12.055-4.907-15.094a71.7 71.7 0 0 0-30.62-9.727c-6.551 1.391-14.59 4.145-19.383 7.575" style="stroke:none;fill-rule:evenodd;fill:#231f20;fill-opacity:1" data-source="https://football-logos.cc"></path><!-- source: https://football-logos.cc --></svg>