<svg xmlns="http://www.w3.org/2000/svg" viewBox="13.76 0 376.71 404.23"><!-- Source: https://football-logos.cc --><clipPath id="a" data-source="https://football-logos.cc"><path d="M0 303.169h303.169V0H0z"></path></clipPath><g fill="#fab10d" data-source="https://football-logos.cc"><path d="m388.42 83.181-9.614 15.387 11.661 13.897-17.599-4.388-9.62 15.382-1.266-18.094-17.599-4.388 16.824-6.798-1.27-18.1 11.66 13.9zM323.716 28.888l-3.772 17.748 15.712 9.07-18.039 1.896-3.778 17.745-7.378-16.57-18.04 1.895 13.484-12.142-7.384-16.572 15.712 9.07zM244.345 0l-8.517 16.02-17.867-3.151 12.607 13.048-8.519 16.021 16.303-7.95 12.6 13.046-2.517-17.967 16.302-7.95-17.865-3.15zM159.88 0l-2.526 17.967-17.865 3.15 16.31 7.949-2.525 17.968 12.599-13.045 16.304 7.949-8.512-16.023 12.6-13.046-17.867 3.15zM80.51 28.888l13.483 12.14 15.712-9.07-7.379 16.569 13.479 12.145-18.04-1.894-7.377 16.569-3.774-17.748-18.044-1.892 15.712-9.07zM15.806 83.181l16.822 6.798 11.662-13.9-1.267 18.096 16.82 6.802-17.599 4.388-1.266 18.094-9.616-15.387-17.603 4.393L25.42 98.568z"></path></g><g clip-path="url(#a)" transform="matrix(1.33333 0 0 -1.33333 0 404.225)" data-source="https://football-logos.cc"><path fill="#412c91" d="M274.966 123.777C275.028 55.477 219.699.057 151.405 0 83.1-.058 27.685 55.265 27.622 123.564c-.052 68.301 55.267 123.72 123.572 123.778 68.293.06 123.714-55.266 123.772-123.565"></path><path fill="#fff" d="M151.196 238.976c-63.579-.053-115.26-51.827-115.203-115.4.053-63.58 51.822-115.264 115.401-115.21s115.262 51.821 115.208 115.406c-.057 63.575-51.826 115.257-115.406 115.204M151.4 5.244c-15.986-.014-31.5 3.107-46.104 9.267-14.109 5.954-26.782 14.485-37.666 25.351C56.75 50.728 48.193 63.386 42.216 77.48c-6.185 14.6-9.33 30.104-9.344 46.091-.01 15.986 3.101 31.5 9.266 46.104 5.954 14.11 14.48 26.78 25.346 37.666 10.866 10.881 23.524 19.43 37.622 25.408 14.595 6.19 30.105 9.335 46.09 9.35 15.982.008 31.496-3.108 46.101-9.269 14.112-5.952 26.785-14.482 37.67-25.349 10.881-10.867 19.43-23.525 25.408-37.619 6.19-14.599 9.33-30.104 9.344-46.089.014-15.986-3.102-31.5-9.262-46.105-5.958-14.108-14.484-26.78-25.35-37.666-10.866-10.88-23.524-19.429-37.623-25.407-14.594-6.19-30.103-9.335-46.085-9.35"></path><path fill="#fff" d="M263.408 123.762c.054-61.917-50.098-112.154-112.015-112.207S39.238 61.653 39.185 123.57c-.048 61.918 50.098 112.154 112.015 112.207s112.15-50.098 112.208-112.016"></path><g fill="#412c91"><path d="M221.964 123.725c.034-39.03-31.582-70.693-70.606-70.728-39.035-.03-70.7 31.578-70.733 70.607s31.583 70.693 70.608 70.723c39.033.039 70.698-31.573 70.73-70.602M54.412 120.645c2.071 1.407 3.435 2.52 3.931 3.213.443.558.684 1.31.742 2.303-.14 2.751-1.623 4.09-4.547 4.085-2.548 0-4.061-1.119-4.494-3.32-.106-.538-.053-.943.159-1.198.183-.218.477-.328.872-.328h1.492v.087c-.009.968.194 1.671.608 2.09.313.318.76.477 1.329.477.645-.025 1.122-.203 1.411-.526.275-.303.4-.75.366-1.328-.057-.62-.274-1.099-.655-1.41a26 26 0 0 0-2.683-1.943c-1.011-.646-1.81-1.434-2.384-2.35a7.16 7.16 0 0 1-.876-3.16l-.005-.087 9.282.005v2.38l-5.486-.006c.1.342.418.685.938 1.016M66.143 128.03c1.306 0 1.975-1.469 1.994-4.369.015-1.965-.289-3.276-.905-3.896a1.45 1.45 0 0 0-1.084-.439c-.434 0-.78.144-1.069.434-.617.625-.906 1.951-.873 3.935 0 2.918.631 4.334 1.937 4.334m-.005 2.231c-3.14-.004-4.739-2.21-4.754-6.565-.043-2.523.472-4.345 1.531-5.424.781-.79 1.87-1.19 3.238-1.19s2.466.405 3.251 1.2c1.054 1.074 1.575 2.886 1.541 5.385-.063 4.38-1.68 6.594-4.807 6.594M236.3 128.024c1.307 0 1.98-1.468 2-4.368.015-1.965-.294-3.275-.905-3.896a1.46 1.46 0 0 0-1.084-.439c-.434 0-.785.14-1.074.434-.612.626-.906 1.95-.867 3.935-.005 2.92.626 4.334 1.93 4.334m0 2.231c-3.14-.004-4.738-2.21-4.753-6.565-.043-2.523.473-4.345 1.532-5.424.78-.79 1.868-1.194 3.232-1.189 1.373 0 2.47.404 3.25 1.2 1.056 1.073 1.576 2.885 1.543 5.384-.063 4.38-1.677 6.594-4.803 6.594M248.573 119.26c-1.31 0-1.956.75-1.979 2.302.057 1.305.673 1.966 1.902 2.018 1.22 0 1.845-.671 1.922-2.043-.054-1.531-.656-2.277-1.845-2.277m.365 6.55c-.915 0-1.714-.26-2.374-.771.115 2.067.756 3.034 2 3.034.697 0 1.208-.26 1.565-.794.182-.29.433-.43.756-.43h1.984l-.005.094c-.115 1.955-1.763 3.322-4.002 3.322-3.405-.004-5.207-2.39-5.207-6.902.005-4.166 1.661-6.282 4.918-6.276 2.783 0 4.652 1.82 4.647 4.523 0 2.514-1.723 4.205-4.282 4.2"></path><path d="m89.926 170.575 4.715 4.44-8.761 9.312 8.275 7.789 8.76-9.311 4.722 4.446-20.14 21.39-4.715-4.44 7.394-7.861-8.274-7.788-7.394 7.859-2.375-2.238c-.631-.588-.973-1.407-.973-2.298a3.38 3.38 0 0 1 .92-2.346zM118.792 216.723l7.129-9.426-6.868-2.374zm.386-17.451 10.22 3.541 3.744-4.956 6.396 2.215-19.575 24.319-4.662-1.613c-1.465-.511-2.206-1.508-2.188-2.958l-.288-28.996 6.473 2.245zM154.08 219.03l9.672-20.114 6.516-.568 2.563 29.27-6.285.549-1.677-19.121-9.667 20.114-3.313.289q-.151.015-.31.015c-1.637-.024-3.038-1.37-3.187-3.07l-2.27-25.931 6.286-.55zM189.457 206.508c2.008 3.588 4.69 5.582 7.538 5.62 1.242.015 2.524-.342 3.8-1.054 4.263-2.394 5.018-6.796 2.052-12.076-2.052-3.656-4.75-5.687-7.601-5.726-1.252-.015-2.543.347-3.834 1.069-2.182 1.223-3.43 2.976-3.704 5.207-.255 2.06.352 4.469 1.749 6.96m-.713-16.931c2.49-1.397 4.994-2.091 7.437-2.057 4.913.058 9.262 3.025 12.244 8.348 2.167 3.857 2.875 7.779 2.06 11.348-.838 3.66-3.236 6.69-6.935 8.765-2.413 1.354-4.87 2.024-7.297 1.995-4.928-.058-9.441-3.103-12.374-8.343-2.187-3.901-2.934-7.812-2.144-11.31.815-3.606 3.238-6.632 7.009-8.746M210.185 172.603l21.55 19.97-2.163 2.33c-.737.796-1.517 1.196-2.326 1.186-.76-.01-1.537-.381-2.312-1.098l-19.093-17.697zM82.268 62.143l-3.66 4.2 1.955 1.705 4.89-5.607 2.21 1.932-5.959 6.835a1.66 1.66 0 0 1-1.282.564c-.427 0-.842-.159-1.16-.44l-9.759-8.504 2.187-2.515 4.755 4.142 2.504-2.87a1.78 1.78 0 0 1 1.363-.617c.4.005.78.15 1.07.404zM91.642 51.119c-1.137-1.34-2.365-2.057-3.555-2.067-.785-.005-1.55.298-2.263.905-2.52 2.139-.694 4.846.212 5.915 1.107 1.309 2.321 2.009 3.51 2.018q1.186.007 2.25-.89c.92-.781 1.35-1.705 1.296-2.76-.054-.988-.554-2.066-1.45-3.121m2.096 8.168c-1.393 1.176-2.968 1.787-4.562 1.773-2.052-.02-4.085-1.084-5.713-3.005-3.019-3.56-2.837-7.515.473-10.323 1.425-1.204 3.015-1.836 4.6-1.82 2.056.019 4.016 1.064 5.678 3.024 1.426 1.682 2.15 3.541 2.09 5.371-.062 1.883-.948 3.603-2.566 4.98M105.227 42.193c-1.017-1.715-2.313-2.663-3.656-2.679-.62-.004-1.252.184-1.884.554-1.025.612-1.604 1.46-1.714 2.525-.097.996.221 2.153.93 3.342.996 1.682 2.282 2.615 3.621 2.631.612.005 1.243-.179 1.864-.55 1.036-.61 1.623-1.454 1.74-2.5.115-.983-.198-2.134-.9-3.323m.692 8.405c-1.233.728-2.5 1.093-3.757 1.08-2.457-.02-4.643-1.45-6.165-4.023-1.137-1.922-1.55-3.868-1.2-5.626.366-1.82 1.542-3.367 3.406-4.466 1.271-.756 2.557-1.13 3.824-1.116 2.41.024 4.576 1.45 6.103 4.026 1.122 1.898 1.522 3.854 1.16 5.646-.375 1.845-1.545 3.395-3.37 4.48M123.36 42.222l-9.364 3.77a1.6 1.6 0 0 1-.62.123 1.77 1.77 0 0 1-1.61-1.119l-.467-1.146 3.911-1.576-4.383-10.86 3.136-1.257 4.373 10.855 3.907-1.569zM130.815 30.094c-.197-.833-.636-1.21-1.41-1.214a4.2 4.2 0 0 0-1.003.13l-3.073.738.76 3.173 3.031-.723c.751-.177 1.218-.404 1.493-.716.29-.327.347-.771.202-1.388m-3.458 8.146 2.913-.695c1.35-.322 1.774-.78 1.557-1.685-.155-.651-.555-.954-1.263-.96a3.4 3.4 0 0 0-.853.112l-2.957.704zm4.186 2.017-5.092 1.218q-.195.044-.39.044c-.78-.01-1.483-.582-1.672-1.362l-3.01-12.591 6.527-1.556a8 8 0 0 1 1.994-.246c2.273.019 3.82 1.238 4.34 3.424.385 1.62.048 2.79-1.099 3.738 1.084.386 1.768 1.209 2.076 2.515.574 2.403-.732 4.113-3.674 4.816M141.464 29.607l2.048 4.918 1.223-5.189zm1.715 8.813q-.115.008-.222.006c-.688-.006-1.194-.34-1.464-.968L135.52 24.3l3.603-.303 1.18 2.827 5.153-.428.698-2.982 3.565-.294-4.041 15.09zM156.144 26.535l-.746 11.603-1.677-.111c-.929-.058-1.64-.895-1.579-1.865l.833-12.917 10.308.659-.198 3.077zM168.958 27.974l-2.221 11.412-1.647-.325c-.915-.176-1.512-1.097-1.33-2.051l2.476-12.705 10.14 1.974-.588 3.026zM199.725 41.518l-2.934-1.435.044-.183c.405-1.542-.154-2.73-1.614-3.444-.55-.27-1.088-.41-1.603-.415-1.792-.013-2.943 1.576-3.593 2.915-.906 1.854-1.421 4.36 1.304 5.69.52.254 1.022.388 1.475.388a2.26 2.26 0 0 0 1.479-.525c.337-.269.703-.399 1.078-.394.25 0 .51.066.77.193l1.812.88-.135.213c-.848 1.387-1.955 2.287-3.304 2.673a5.6 5.6 0 0 1-1.3.145c-1.002-.01-2.082-.295-3.208-.844-2.047-.997-3.343-2.394-3.84-4.13-.486-1.693-.206-3.639.834-5.767 1.493-3.068 3.64-4.679 6.214-4.648 1.02.008 2.099.284 3.208.823 3.356 1.637 4.628 4.49 3.41 7.63zM206.179 43.056l-6.546 9.604-1.388-.945c-.765-.52-.953-1.623-.41-2.414l7.289-10.691 8.535 5.813-1.74 2.549zM214.72 64.888l-2.49-2.249 6.054-6.699c.713-.786 1.055-1.528 1.012-2.2q-.044-.872-.92-1.64c-.55-.486-1.102-.737-1.647-.742-.703-.005-1.436.405-2.167 1.215l-6.055 6.7-1.248-1.127c-.664-.603-.703-1.748-.071-2.443l5.09-5.639c1.257-1.393 2.606-2.087 4.017-2.077 1.325.014 2.694.655 4.075 1.903 1.378 1.247 2.139 2.571 2.259 3.94.12 1.396-.424 2.78-1.628 4.114zM224.203 70.115q.37-.035.732-.419c.332-.347.444-.703.352-1.094-.092-.35-.352-.742-.78-1.15l-2.187-2.106-1.802 1.87 2.163 2.08c.626.602 1.108.862 1.522.82m.106-6.836 2.249 2.163c.674.646 1.209.92 1.686.871q.49-.048 1.002-.582c.805-.839.693-1.57-.39-2.615l-2.278-2.192zm5.255 6.113c-.448.048-.924-.009-1.445-.174.26 1.118-.067 2.138-.997 3.102-.689.717-1.45 1.122-2.259 1.208-1.199.131-2.475-.442-3.776-1.7l-3.781-3.63a1.66 1.66 0 0 1-.501-1.219 1.8 1.8 0 0 1 .501-1.229l8.978-9.33 4.831 4.653c2.481 2.39 2.755 4.961.741 7.052-.736.766-1.488 1.18-2.292 1.267"></path></g><path fill="#f89c0e" d="m186.879 140.486-71.08-.063-6.516 7.664 8.496-15.977 11.566-4.35 11.145-.048 21.738.02 11.145.01 11.56 4.426 8.467 15.991z"></path><path fill="#f89c0e" d="m121.812 153.876 1.518-6.229 27.868.034 28.086.005 1.575 6.238z"></path><path fill="#fbc707" d="M192.867 148.415c-6.44-6.421-13.578-.708-13.578-.708l-55.96-.05s-7.095-5.721-13.516.685l-.534-.26 6.522-7.66 71.079.059 6.521 7.673zM151.258 166.033c.9 0 1.633-.728 1.633-1.628 0-.895-.733-1.628-1.628-1.628-.901 0-1.628.727-1.628 1.628a1.625 1.625 0 0 0 1.623 1.628m21.698-4.937h-.005l.082 1.883-2.234-.255-.491-1.633-17.105-.014a3.86 3.86 0 0 1 1.917 3.333 3.87 3.87 0 0 1-3.862 3.853 3.864 3.864 0 0 1-3.854-3.863c0-1.416.77-2.659 1.917-3.328l-16.968-.014-.491 1.632-2.241.25.087-1.882h-.005s-1.026-7.172-7.89-7.177c0 0 .955-1.17 2.1-2.375l54.848.043a47 47 0 0 1 2.095 2.38c-6.86-.004-7.9 7.167-7.9 7.167M140.65 114.443l4.764 3.183a9.04 9.04 0 0 1 5.51-2.215v-.015l.448.005h.443v.01a9.03 9.03 0 0 1 5.501 2.224l4.764-3.169v-.018l-21.43-.02zm-.004 8.843 1.724.005a9 9 0 0 1 1.69-4.197l-3.41-2.282zm-.01 8.601 3.314-2.206a8.93 8.93 0 0 1-1.618-4.422h-1.69zm17.822-7.412c.004-3.91-3.175-7.099-7.09-7.104s-7.1 3.178-7.105 7.094c-.005 3.912 3.18 7.1 7.095 7.1 3.911.005 7.095-3.174 7.1-7.09m3.525 9.74-4.532-3.03a9.04 9.04 0 0 1-5.65 2.345v.01h-.896v-.014a9.04 9.04 0 0 1-5.646-2.35l-4.532 3.024zm.087-8.935-1.676-.005a9.04 9.04 0 0 1-1.624 4.422l3.295 2.201zm.005-8.444-3.405 2.27a9.04 9.04 0 0 1 1.685 4.198h1.715zm20.436-5.443-.005 4.735-9.122-.004-.014 21.534-44.033-.038.01-21.535-9.119-.01.005-4.735h-1.989v-3.738l66.261.058-.004 3.733z"></path><path fill="#f89c0e" d="m118.242 107.602 1.994-2.446 62.284.053 1.99 2.451z"></path><path fill="#fbc707" d="m120.236 105.156.03-25.447 11.043-4.845.05 27.224 40.198.034-.043-27.128 11.035 4.966-.029 25.25z"></path><path fill="#f89c0e" d="m131.356 102.088-.049-27.224 3.806-1.705-.029 25.543 32.594.029.163-25.408 3.671 1.67.048 27.129z"></path><path fill="#fbc707" d="M109.037 167.252c-2.124-1.016-3.497-3.116-3.497-5.394l.062-71.642c.005-2.13 1.205-4.12 3.136-5.193l42.555-19.146 42.627 19.219c1.927 1.077 3.126 3.067 3.121 5.196l-.058 71.647c0 2.274-1.372 4.374-3.506 5.386l-42.14 13.736zm42.261-106.308-44.656 20.312c-3.293 1.836-5.34 5.265-5.345 8.955l-.063 71.647c0 4 2.408 7.683 6.136 9.367l.126.059.12.037 43.716 14.253 43.686-14.218.121-.053c3.733-1.687 6.146-5.356 6.151-9.364l.062-71.643c.005-3.69-2.043-7.128-5.327-8.962z"></path></g><!-- source: https://football-logos.cc --></svg>