<svg xmlns="http://www.w3.org/2000/svg" xml:space="preserve" id="Layer_1" x="0" y="0" version="1.0" viewBox="0.6 1 244.8 300"><!-- Source: https://football-logos.cc --><style data-source="https://football-logos.cc">.st1{fill:#ffc724}</style><path d="m123 301 74.3-56.7c30.6-24.6 48.1-62 48.1-101.3V26.4C201.1 8.8 163.8.9 123 1 82.2.9 44.9 8.8.6 26.4v116.5c0 39.3 17.5 76.7 48.1 101.3z" style="fill:#00006e"></path><path d="M117.2 141.7V44.2c3.9-.1 7.7-.1 11.6 0v97.5zm38.8-38.2c-1.2-43.1 2.3-78.1 3.5-88.3-24.3-3-48.7-3-73 0 1.2 10.3 4.7 45.3 3.5 88.3-.8 30.1-3.7 58.2-8.7 83.6-3.9 20.2-9.1 38.7-15.6 55.3l51.4 39.2V173.2h11.6v108.4l51.4-39.2c-6.4-16.6-11.7-35.1-15.6-55.3-4.8-25.4-7.7-53.5-8.5-83.6" class="st1" data-source="https://football-logos.cc"></path><path d="M38.1 173.2V56.7c3.9-1 7.7-2 11.6-2.9v119.4zM75 16.8c-21.3 3.5-42.3 9.4-62.9 17.6v108.5c0 35.8 16.2 69.7 44 92.1 16.3-43.9 21.2-94.1 22.2-131.7 1.3-42-2.1-76.2-3.3-86.5M233.8 107.2V34.4c-20.5-8.2-41.6-14.1-62.9-17.6-1.2 10.3-4.6 44.5-3.4 86.5 1 37.5 6 87.8 22.2 131.7 27.8-22.4 44-56.3 44-92.1v-23.8h-25.9v54.1h-11.6V53.8c3.9.9 7.7 1.8 11.6 2.9v50.5z" class="st1" data-source="https://football-logos.cc"></path><!-- source: https://football-logos.cc --></svg>