<svg xmlns="http://www.w3.org/2000/svg" viewBox="0 0.19 946 946.3"><!-- Source: https://football-logos.cc --><path fill="#e20612" fill-rule="evenodd" d="M946 463.5v20.52q-3.24 116.14-56.99 214.84c-42.82 78.65-106.64 143.36-184.58 187.25-109.96 61.92-241.71 76.81-362.71 41.9-112.21-32.37-209.93-106.34-271.33-205.9Q4.21 614.79 0 487.11v-27.37q5.18-148.42 91.76-266.73 36.47-49.84 85.69-89.08 100.4-80.04 227.01-98.76c59.55-8.81 122.45-5.94 181.61 8.67 125.79 31.07 233.86 112.49 298.3 225.63q51.58 90.57 60.34 196.38c.73 8.79 1 18.42 1.29 27.65m-10.47 9.88A462.53 462.53 0 0 0 473 10.85 462.53 462.53 0 0 0 10.47 473.38 462.53 462.53 0 0 0 473 935.91a462.53 462.53 0 0 0 462.53-462.53" data-source="https://football-logos.cc"></path><path fill="#1e1d1b" fill-rule="evenodd" d="M935.53 473.38A462.53 462.53 0 0 1 473 935.91 462.53 462.53 0 0 1 10.47 473.38 462.53 462.53 0 0 1 473 10.85a462.53 462.53 0 0 1 462.53 462.53m-17.69 0A444.85 444.85 0 0 0 472.99 28.53 444.85 444.85 0 0 0 28.14 473.38a444.85 444.85 0 0 0 444.85 444.85 444.85 444.85 0 0 0 444.85-444.85"></path><path fill="#e20612" fill-rule="evenodd" d="M917.84 473.38a444.85 444.85 0 0 1-444.85 444.85A444.85 444.85 0 0 1 28.14 473.38 444.85 444.85 0 0 1 472.99 28.53a444.85 444.85 0 0 1 444.85 444.85M527.359 68.765a.72.72-63.587 0 0 .64-.259l15.267-18.685a.72.72.256 0 0-.476-1.171l-21.042-2.402a.72.72-54.588 0 0-.73.402l-9.357 19.357a.72.72-85.447 0 0 .567 1.028zm-17.007 89.959q14.182 1.55 18.557 1.803c14.841.863 21.741-7.847 23.311-21.527q2.38-20.58 6.98-63.66a.876.875 6.304 0 0-.77-.96l-20.91-2.39a.906.906-73.561 0 0-1 .8q-6.48 59.4-6.86 62.83-.8 7.12-8.134 6.349-4.669-.493-9.235-.992t-9.231-1.027q-7.328-.83-6.571-7.955.37-3.431 6.873-62.829a.906.906-87.115 0 0-.803-.997l-20.933-2.183a.876.875 6.17 0 0-.959.771q-4.814 43.057-6.935 63.665c-1.422 13.696 3.434 23.691 18.11 26.054q4.327.698 18.51 2.248M375.04 78.99l13.31 85.28a.922.912-8.793 0 0 1.05.76l20.8-3.24a.97.97-33.75 0 0 .81-1.11l-3.59-23.01a.796.79-8.475 0 1 .68-.91q17.84-2.43 32.45-5.25c11.31-2.17 18.39-9.7 17.69-21.51q-.79-13.19-3.96-24.98c-3.41-12.66-12.9-16.84-25.52-14.97q-14.72 2.17-53.27 8.33a.536.536-86.846 0 0-.45.61M652.2 106.3q-23.52-8.85-41.35-15.59c-7.97-3.01-17.59-4.4-24.19 1.71q-4.2 3.9-6.23 8.8-5.25 12.68-16.28 42.67c-2.24 6.11-3.2 12.98-.24 18.73 3.3 6.4 10.26 9.61 17.34 12.14q19.17 6.86 40.5 12.61a1.271 1.269-72.423 0 0 1.52-.79l5.26-14.46a.596.593-72.562 0 0-.4-.77q-18.73-5.41-36.48-11.76c-5.03-1.8-7.65-3.92-5.39-9.58q.76-1.9 13.85-36.64 2.49-6.59 9.13-4.1 26.84 10.04 36.45 13.71a1.459 1.456-69.422 0 0 1.89-.86l5.25-14.45a1.079 1.072 20.494 0 0-.63-1.37m-320.439 82.155a.63.63-40.233 0 0 .643.008l19.547-11.282a.63.63-26.604 0 0 .013-1.084l-42.162-25.713a.63.63 55.345 0 1-.302-.538v-48.525a.63.63 57.589 0 0-.945-.545l-19.78 11.422a.63.63 10.16 0 0-.315.546v38.882a.63.63-68.811 0 1-.315.546l-8.48 4.893a.63.63-83.391 0 1-.86-.23l-16.6-28.739a.63.63-44.303 0 0-.861-.231l-18.749 10.83a.63.63 40.578 0 0-.23.86l43.28 74.96a.63.63 52.227 0 0 .861.23l18.598-10.73a.63.63-66.157 0 0 .231-.861l-17.15-29.708a.63.63 11.04 0 1 .231-.861l8.58-4.948a.63.63 86.823 0 1 .643.008zm346.571-4.899q5.517 3.839 12.049 8.336a.759.751-55.423 0 1 .189 1.058l-19.41 27.87a.921.907 35.173 0 0 .23 1.27l17.12 11.92a1.12 1.12 32.694 0 0 1.56-.28l49.11-70.5a.805.799 34.993 0 0-.2-1.11l-17.06-11.88a1.33 1.33-53.559 0 0-1.85.33l-18.35 26.35a.852.849 33.988 0 1-1.159.224q-2.544-1.664-12.019-8.258-9.476-6.594-11.92-8.402a.852.849 35.681 0 1-.192-1.164l18.333-26.362a1.33 1.33 80.017 0 0-.333-1.849l-17.068-11.87a.805.799 34.677 0 0-1.11.198l-49.046 70.544a1.12 1.12-63.11 0 0 .279 1.561l17.126 11.912a.921.907 34.497 0 0 1.271-.226l19.39-27.884a.759.751-54.907 0 1 1.057-.19q6.487 4.563 12.003 8.402m-496.896-13.169q-.266.255-.463.231-4.683-.558-10.883-1.348a2.709 2.705 26.144 0 0-2.26.77l-9.43 9.43a.593.589-61.922 0 0 .3 1l23.12 4.5a3.262 3.242-61.812 0 0 2.917-.891q2.426-2.413 5.072-4.947t5.163-4.854a3.262 3.242-25.703 0 0 1.016-2.875l-3.493-23.293a.593.589-25.592 0 0-.986-.343l-9.83 9.012a2.709 2.705 66.341 0 0-.867 2.224q.52 6.229.875 10.931.015.198-.251.453m59.804 40.133q2.93 2.65 6.78 6.8c2.32 2.51 3.6 5.55 1.2 8.16q-2.85 3.11-12.41 11.57-13.75 12.17-22.62 19.79a.939.93-42.779 0 0-.06 1.37l10.84 10.84a1.053 1.051 47.805 0 0 1.4.07q20.14-16.48 37.04-32.22c8.81-8.21 14.02-18.11 5.98-29.43q-5.49-7.73-12.73-13.56c-9.63-7.74-19.26-6.6-28.07 1.44q-4.23 3.86-17.23 16.5-2.89 2.82-4.87 3.1c-3.49.49-6.65-2.99-8.59-5.39-3.57-4.44-1.27-7.27 2.38-10.79q21.56-20.8 26.17-25.21a.863.863-44.538 0 0 .01-1.23l-11.35-11.35a.95.95-44.566 0 0-1.33-.01q-23.59 22.85-29.87 28.69c-6.43 5.96-12.11 13.5-10.34 22.5 1.56 7.92 10.11 16.48 16.57 21.7 10.07 8.13 20.74 4.91 29.26-3.23q4.63-4.43 20.93-20.1a.667.666 44.348 0 1 .91-.01m534.28 265.83A302.52 302.52 0 0 0 473 173.83a302.52 302.52 0 0 0-302.52 302.52A302.52 302.52 0 0 0 473 778.87a302.52 302.52 0 0 0 302.52-302.52m.835-278.398a20.94 20.94 0 0 0-29.505-2.53l-36.961 31.124a20.94 20.94 0 0 0-2.53 29.506l25.546 30.336a20.94 20.94 0 0 0 29.505 2.53l36.961-31.124a20.94 20.94 0 0 0 2.53-29.506zm-616.241 98.297q-.134.234-.417.228-16.787-.407-49.967-1.147a2.449 2.438-74.106 0 0-2.18 1.22l-10.68 18.5a1.003 1.003-50.096 0 0 .37 1.37l74.26 42.88a1.11 1.11 5.451 0 0 1.52-.4l10.43-18.08a.95.945-60.217 0 0-.35-1.3l-40.08-23.15a.161.16-30.284 0 1 .08-.3h33.11a1.986 1.983-74.87 0 0 1.714-.987q.973-1.663 3.748-6.523t3.714-6.542a1.986 1.983-45.671 0 0-.021-1.978l-16.826-28.517a.161.16 89.743 0 1 .218-.221l40.305 22.755a.95.945-60.324 0 0 1.298-.359l10.271-18.17a1.11 1.11-61.585 0 0-.427-1.513l-74.667-42.167a1.003 1.003-71.923 0 0-1.368.377l-10.506 18.599a2.449 2.438-46.435 0 0 .057 2.498q17.498 28.201 26.378 42.452.15.24.016.475m604.922 42.979q4.893 10.349 5.034 10.613a1.47 1.47-16.192 0 0 1.4.769l91.61-7.35a.687.684 74.875 0 0 .56-.98l-9.8-20.64a1.354 1.344 74.311 0 0-1.36-.77q-34.39 3.69-61.734 6.723-.476.053-.611-.232t.208-.62q19.696-19.208 44.371-43.445a1.354 1.344 55.078 0 0 .268-1.54l-9.733-20.672a.687.684 54.514 0 0-1.113-.189l-63.814 66.138a1.47 1.47-34.419 0 0-.294 1.569q.115.277 5.008 10.626M551.375 788.592a23.55 23.55 80.021 0 0-14.987 29.743l16.774 50.841a23.55 23.55-36.442 0 0 29.742 14.986l34.021-11.224a23.55 23.55-35.043 0 0 14.987-29.743l-16.774-50.841a23.55 23.55 89.723 0 0-29.742-14.986zM320.9 782.29l1.35 16.83a.684.682 87.724 0 0 .68.63H338a.71.71 9.836 0 1 .67.95l-25.27 69.49a.949.946-70.144 0 0 .57 1.22l22.31 8.12a.905.901-70.044 0 0 1.15-.54l32.86-90.34a.813.807 19.535 0 0-.5-1.04q-9.43-3.31-15.86-5.77-4.03-1.53-6.44-1.43-6.09.26-26.14 1.37a.48.48 0 0 0-.45.51m97.43 77.06q-.75 6.78-1.57 10.92-1.52 7.64-9.5 6.13-19.31-3.65-37.34-7.88a.888.883 10.791 0 0-1.08.73l-2.6 16.64a1.558 1.545 11.848 0 0 1.14 1.73q19.35 5.11 39.53 8.71 5.05.9 9.3 1.24c16.12 1.27 23.4-8.44 25.67-22.88q4.9-31.12 7.63-50.79c.94-6.73-.97-15.95-6.63-20.01q-6.5-4.66-14.77-6.02-2.74-.45-27.91-4.29c-15.53-2.37-26.95 2.43-29.78 19.11q-1.01 5.93-2.37 14.67-1.68 10.71-.43 14.68c3.03 9.69 9.66 13.17 20.08 14.87q15.48 2.53 30 1.77a.603.6-88.375 0 1 .63.67m70.87 18.3q.21-.39.68-.77 1.12-.91 27-22.74c8.17-6.89 14.29-13.98 13.94-25.13-.35-10.9-2.62-23.32-13.35-27.72q-6.72-2.75-14.71-2.18-12.27.88-46.37 3.56a.813.813 85.468 0 0-.75.88l1.48 18.42a.572.571-4.437 0 0 .62.53q26.34-2.18 39.46-3.01c7.97-.51 8.45 7.69 8.32 13.39a2.261 2.257-19.595 0 1-.8 1.68l-45.17 38.15a3.245 3.242 67.539 0 0-1.14 2.75l1.91 23.9a1.194 1.194 85.397 0 0 1.28 1.09l73.51-5.9a.953.953 46.313 0 0 .88-1.02l-1.46-18.25a.572.571 85.405 0 0-.61-.52l-44.28 3.55a.453.45 11.528 0 1-.44-.66"></path><path fill="#1e1d1b" fill-rule="evenodd" d="m527.359 68.765-15.131-1.73a.72.72-41.628 0 1-.567-1.028l9.357-19.357a.72.72-31.23 0 1 .73-.402l21.042 2.402a.72.72 45.099 0 1 .476 1.171l-15.267 18.685a.72.72-32.346 0 1-.64.259M512.291 140.977q4.566.499 9.235.992 7.334.771 8.134-6.349.38-3.43 6.86-62.83a.906.906-58.208 0 1 1-.8l20.91 2.39a.876.875 6.304 0 1 .77.96q-4.6 43.08-6.98 63.66c-1.57 13.68-8.47 22.39-23.311 21.527q-4.375-.253-18.557-1.803-14.183-1.55-18.51-2.248c-14.676-2.363-19.532-12.358-18.11-26.054q2.121-20.608 6.935-63.665a.876.875 6.17 0 1 .959-.771l20.933 2.183a.906.906-68.12 0 1 .803.997q-6.503 59.398-6.873 62.829-.757 7.125 6.571 7.955 4.665.528 9.231 1.027M375.04 78.99a.536.536-60.512 0 1 .45-.61q38.55-6.16 53.27-8.33c12.62-1.87 22.11 2.31 25.52 14.97q3.17 11.79 3.96 24.98c.7 11.81-6.38 19.34-17.69 21.51q-14.61 2.82-32.45 5.25a.796.79-8.475 0 0-.68.91l3.59 23.01a.97.97-31.904 0 1-.81 1.11l-20.8 3.24a.922.912-8.793 0 1-1.05-.76zm25.393 14.229 4.029 25.443a.7.7 73.262 0 0 .801.582l23.893-3.784a7.21 6.38-9 0 0 6.123-7.429l-2.253-14.223a7.21 6.38-9 0 0-8.119-5.174l-23.892 3.784a.7.7-71.305 0 0-.582.801M652.2 106.3a1.079 1.072 20.494 0 1 .63 1.37l-5.25 14.45a1.459 1.456-69.422 0 1-1.89.86q-9.61-3.67-36.45-13.71-6.64-2.49-9.13 4.1-13.09 34.74-13.85 36.64c-2.26 5.66.36 7.78 5.39 9.58q17.75 6.35 36.48 11.76a.596.593-72.562 0 1 .4.77l-5.26 14.46a1.271 1.269-72.423 0 1-1.52.79q-21.33-5.75-40.5-12.61c-7.08-2.53-14.04-5.74-17.34-12.14-2.96-5.75-2-12.62.24-18.73q11.03-29.99 16.28-42.67 2.03-4.9 6.23-8.8c6.6-6.11 16.22-4.72 24.19-1.71q17.83 6.74 41.35 15.59"></path><path fill="#e20612" fill-rule="evenodd" d="M400.433 93.219a.7.7-74.349 0 1 .582-.801l23.892-3.784a7.21 6.38-9 0 1 8.119 5.174l2.253 14.223a7.21 6.38-9 0 1-6.123 7.429l-23.893 3.784a.7.7-71.76 0 1-.801-.582z"></path><path fill="#1e1d1b" fill-rule="evenodd" d="m331.761 188.455-34.122-20.81a.63.63 26.805 0 0-.643-.008l-8.58 4.948a.63.63 7.962 0 0-.231.861l17.15 29.708a.63.63-33.529 0 1-.231.861l-18.598 10.73a.63.63-84.399 0 1-.861-.23l-43.28-74.96a.63.63 48.419 0 1 .23-.86l18.749-10.83a.63.63.946 0 1 .861.231l16.6 28.739a.63.63 88.45 0 0 .86.23l8.48-4.893a.63.63 79.25 0 0 .315-.546v-38.882a.63.63 23.043 0 1 .315-.546l19.78-11.422a.63.63-79.344 0 1 .945.545v48.525a.63.63-.667 0 0 .302.538l42.162 25.713a.63.63-76.478 0 1-.013 1.084l-19.547 11.282a.63.63 87.189 0 1-.643-.008M688.542 168.886q9.475 6.594 12.019 8.258a.852.849 33.988 0 0 1.159-.224l18.35-26.35a1.33 1.33-22.451 0 1 1.85-.33l17.06 11.88a.805.799 34.993 0 1 .2 1.11l-49.11 70.5a1.12 1.12 73.219 0 1-1.56.28l-17.12-11.92a.921.907 35.173 0 1-.23-1.27l19.41-27.87a.759.751-55.423 0 0-.189-1.058q-6.532-4.497-12.049-8.336t-12.003-8.402a.759.751-54.907 0 0-1.057.19l-19.39 27.884a.921.907 34.497 0 1-1.271.226l-17.126-11.912a1.12 1.12-50.33 0 1-.279-1.561l49.046-70.544a.805.799 34.677 0 1 1.11-.198l17.068 11.87a1.33 1.33 71.998 0 1 .333 1.849L676.43 159.32a.852.849 35.681 0 0 .192 1.164q2.444 1.808 11.92 8.402M189.809 179.132q-2.646 2.534-5.072 4.947a3.262 3.242-61.812 0 1-2.917.891l-23.12-4.5a.593.589-61.922 0 1-.3-1l9.43-9.43a2.709 2.705 26.144 0 1 2.26-.77q6.2.79 10.883 1.348.197.024.463-.231t.251-.453q-.355-4.702-.875-10.931a2.709 2.705 66.341 0 1 .867-2.224l9.83-9.012a.593.589-25.592 0 1 .986.343l3.493 23.293a3.262 3.242-25.703 0 1-1.016 2.875q-2.517 2.32-5.163 4.854M241.24 210.52a.667.666 44.348 0 0-.91.01q-16.3 15.67-20.93 20.1c-8.52 8.14-19.19 11.36-29.26 3.23-6.46-5.22-15.01-13.78-16.57-21.7-1.77-9 3.91-16.54 10.34-22.5q6.28-5.84 29.87-28.69a.95.95-44.566 0 1 1.33.01l11.35 11.35a.863.863-44.538 0 1-.01 1.23q-4.61 4.41-26.17 25.21c-3.65 3.52-5.95 6.35-2.38 10.79 1.94 2.4 5.1 5.88 8.59 5.39q1.98-.28 4.87-3.1 13-12.64 17.23-16.5c8.81-8.04 18.44-9.18 28.07-1.44q7.24 5.83 12.73 13.56c8.04 11.32 2.83 21.22-5.98 29.43q-16.9 15.74-37.04 32.22a1.053 1.051 47.805 0 1-1.4-.07l-10.84-10.84a.939.93-42.779 0 1 .06-1.37q8.87-7.62 22.62-19.79 9.56-8.46 12.41-11.57c2.4-2.61 1.12-5.65-1.2-8.16q-3.85-4.15-6.78-6.8"></path><path fill="#1e1d1b" fill-rule="evenodd" d="M775.52 476.35A302.52 302.52 0 0 1 473 778.87a302.52 302.52 0 0 1-302.52-302.52A302.52 302.52 0 0 1 473 173.83a302.52 302.52 0 0 1 302.52 302.52M345.03 305.68l.34 8.17q-.09-.54-.46-.12a.776.748-27.007 0 0-.19.55q.67 13.42.44 26.85-.1 5.99-.39 12.23-1.42-.88-2.2-1.69-1.61-1.67-15.31-15.43-2.36-2.37-7.39-3.53-4.27-.99-8.14.59c-10.57 4.32-13.01 16.23-7.04 25.62a5.184 4.961 6.871 0 0 .78.95l39.87 38.73q-.81 3.86-.45 8.4.18 2.31.81 4.39-25.91-13.74-51.97-27-5.64-2.87-8.02-3.21c-9.03-1.31-17.49 5.97-17.05 15.2q.48 10.3 9.59 14.89 33.67 16.98 67.41 33.9-1.42 1.42-.74 2.59c-24.67-4.33-49.26-9.16-73.93-13.56q-5.02-.9-11.25 2.31.54-14.28.4-28.28-.23-22.98-.23-25.48-.01-28.42.02-95.02a.49.487 65.216 0 0-.86-.32q-6.33 7.45-11.18 13.71c-84.59 109.14-79.44 260.86 11.35 364.13a.436.434-65.799 0 0 .76-.29l-.02-112.81q3.08 2.51 7.59 3.68a4.563 4.342-35.109 0 0 .94.14q4.57.17 5.99-.23 58.99-16.27 71.51-19.82a1 1-84.891 0 1 1.17 1.4q-.18.37-.83.57c-5.21 1.56-9.94 4.44-15.38 7.01q-26.83 12.7-48.32 23.25c-9.76 4.78-13.09 18.79-3.7 26.03q3.59 2.77 8.93 2.77 4.62.01 9.74-2.82 1.63-.9 45.36-24.03a.286.242 4.731 0 0 .07-.05l3.95-3.95a.848.82-75.009 0 1 .35-.21l8.44-2.63a.761.76 1.544 0 1 .94.99q-.71 1.91-2.73 3.27-3.41 2.3-5.59 3.95a4.159 4.122 16.203 0 1-1.14.62q-1.96.71-4.01 2.17-31.38 22.38-36.96 26.23c-7.84 5.41-13.36 9.33-13.5 18.17-.23 13.98 14.47 18.56 24.63 10.78q10.55-8.09 25.36-19.93.91-.72 2.18-1.48l.09 12.17q-7.45 7.67-15.06 15.55-5.71 5.91-4.97 14.26c.93 10.45 9.98 15.85 20.03 13.39l-.05 66.78a1.984 1.982 13.398 0 0 1.09 1.77q38.97 19.44 83.05 26.49a.86.854-85.443 0 0 .99-.85l-.02-71.12c5.62.78 11.76 2.26 16.68 2.75q18.11 1.77 27.5 1.69c13.14-.11 27.34-2.07 40.98-4.33l-.27 71.38a.496.493-3.131 0 0 .55.49q7.33-.89 14.92-2.47 35.73-7.42 68.77-23.72a1.737 1.731-13.327 0 0 .96-1.55v-64.56a4.206 4.181-65.975 0 0-1.06-2.79l-4.06-4.59 4.69 3.41a1.186.681 60.128 0 0 .12.07q6.22 3.06 12.33.77c7.08-2.65 10.3-11.31 7.93-18.23q-1.63-4.76-3.56-6.64-8.38-8.15-16.53-16.13l.68-6.31q11.84 8.74 23.21 17.59 4.2 3.28 8.58 4.32c4.87 1.16 10.43-.55 13.76-4.43q5.43-6.33 2.48-15.05c-.95-2.81-3.94-6.62-6.07-8.05q-33.19-22.15-35-23.38-5.5-3.74-11.35-7.26-5.18-3.11-11.28-7.73a.243.238-66.179 0 1-.09-.24l.05-.32a.436.436-37.71 0 1 .64-.32q5.29 2.89 10.93 5.28 1.46.61 4.06 2.7a6.384 5.628 73.619 0 0 1.19.75q18.03 8.65 44.01 21.81 5.72 2.9 8.27 3.38c8.79 1.64 17.31-3.95 17.93-13.23q.47-6.98-3.9-12.16-2.43-2.87-10.91-6.89-40.62-19.23-55.77-26.57a.31.301 24.802 0 1-.15-.39l.01-.02a.393.388-69.712 0 1 .47-.22q32.18 9.69 63.89 18.85 6.52 1.88 9.8 1.51 4.97-.56 9.06-4.03-.11 11.42-.34 22.63-.04 2.09.13 3.01c.46 2.49-.05 4.83.09 7.5.7 13.12.4 32.41.34 69.13q0 .97-.16 2.66a.354.351-20.889 0 0 .61.27q5.55-5.94 11.09-12.97c37.18-47.22 59.69-105.09 61.75-165.33q.66-19.19-.18-30.52-7.28-98.23-72.26-171.98a.485.485-65.621 0 0-.85.32q-.08 64.19.2 113.53c.08 13.98-.23 28.32-.45 42.53-5.73-2.51-10.85-1.9-17.32-.82-2.9.49-5.72.28-8.17.98-2.23.63-4.46.22-6.79.72q-2.54.53-5.05.81-21.26 2.35-40.96 4.96-2.15.28-5.3-.12-.59-2.54-2.14-3.13 1.64.38 2.9-.35 1.22-.71 1.48-.82 28.82-12.46 59.64-25.78c7.25-3.13 12.13-6.59 13.25-13.93q1.7-11.21-7.15-16.84c-3.89-2.48-8.3-2.4-12.22-1.92a4.371 4.303-60.193 0 0-1.25.35q-21.05 9.4-50.84 22.37-1.44.62-2.66.75a1.306 1.305 17.046 0 0-.83.44q-2.59 3.04-6.44 3.34l4.63-2.29a1.044 1.042 83.196 0 0 .55-.7q1.03-4.71-.58-8.59 20.31-17.19 41.56-34.97 8.06-6.74 6.2-17.17c-1.06-5.99-6.17-11.34-11.64-12.45q-6.29-1.28-12.2 1.85a3.007 2.748 7.777 0 0-.55.38l-21.77 18.27.29-17.64a3.817 3.62-57.059 0 0-.27-1.45q-.81-1.96-.76-3.19.16-3.71-.19-7.9 9.96-12.33-.25-25 .58-2.52.57-6.8-.09-33.71-.06-73.6a2.137 2.124-77.176 0 0-1.2-1.92q-39.96-19.45-83.56-26.23a.38.376 4.577 0 0-.44.37l.05 110.2q-.51 1.99-1.61 4.93-14.02 37.5-15.61 42.31c-.77 2.35-3.7 7.65-6.64 4.33a1.164 1.118-74.104 0 1-.26-.49l-.86-3.48a3.118 2.772 41.645 0 1-.08-.68q.11-36.22-.01-57.46c-.03-5.25.84-10.48.34-16.11-.55-6.23-3.59-11.94-8.54-14.46-8.89-4.53-18.45-1.04-22.63 8.06-1.18 2.57-1.2 6.55-1.2 9.25q.06 24.87.02 68.98-.01 2.32-1.37 4.7a1.778 1.775-61.966 0 1-2.32.71q-2.14-1.05-2.97-3.72-10.71-34.39-21.19-68.57l.09-88.53a.236.233-4.26 0 0-.27-.23q-44.36 7.03-83.94 26.63a1.81 1.795-13.386 0 0-1 1.61z"></path><path fill="#1e1d1b" fill-rule="evenodd" d="M801.901 228.288a20.94 20.94 0 0 1-2.53 29.506l-36.961 31.124a20.94 20.94 0 0 1-29.505-2.53l-25.546-30.336a20.94 20.94 0 0 1 2.53-29.506l36.961-31.124a20.94 20.94 0 0 1 29.505 2.53zm-33.826-12.505a6.34 6.34 0 0 0-8.932-.782l-32.098 26.933a6.34 6.34 0 0 0-.781 8.932l14.861 17.711a6.34 6.34 0 0 0 8.932.782l32.098-26.933a6.34 6.34 0 0 0 .781-8.932z"></path><path fill="#e20612" fill-rule="evenodd" d="M430.14 282.87q-1.59-4.6-2.46-5.77c-4.87-6.52-13.01-8.91-20.48-5.31-6.77 3.26-9.82 10.39-9.04 17.91q.1.98 3.4 11.56 11.74 37.75 18.02 57.31c1.04 3.24 3.52 11.09-2.2 11.63-3.01.29-5.01-2.35-6.24-4.58q-32.73-59.59-34.69-63.08-2.61-4.63-3.97-5.79-10.22-8.75-21.36-.87-3.69 2.61-6.09 9.8l-.01-83.33a1.81 1.795-13.386 0 1 1-1.61q39.58-19.6 83.94-26.63a.236.233-4.26 0 1 .27.23zM599.71 302.55q-8.66-6.8-17.61-2.89c-2.42 1.06-5.22 3.48-6.66 5.53q-22.61 32.35-43.7 61.81-.62.87-1.87 1.76a1.288 1.286 69.44 0 1-2.02-.92c-.16-1.45.01-3 .52-4.39q11.13-30.83 25.31-68.32c.94-2.49 2.45-7.3 1.75-10.48q-.82-3.66-1.49-5.09-4.02-8.63-12.6-9.47c-7.7-.74-14.25 2.92-16.94 10.06q-7.31 19.41-9.33 24.42l-.05-110.2a.38.376 4.577 0 1 .44-.37q43.6 6.78 83.56 26.23a2.137 2.124-77.176 0 1 1.2 1.92q-.03 39.89.06 73.6.01 4.28-.57 6.8M782.936 233.494a6.34 6.34 0 0 1-.781 8.932l-32.098 26.933a6.34 6.34 0 0 1-8.932-.782l-14.861-17.711a6.34 6.34 0 0 1 .781-8.932l32.098-26.933a6.34 6.34 0 0 1 8.932.782z"></path><path fill="#1e1d1b" fill-rule="evenodd" d="M181.672 308.56q-2.775 4.86-3.748 6.523a1.986 1.983-74.87 0 1-1.714.987H143.1a.161.16-30.284 0 0-.08.3l40.08 23.15a.95.945-60.217 0 1 .35 1.3l-10.43 18.08a1.11 1.11 66.489 0 1-1.52.4l-74.26-42.88a1.003 1.003-24.707 0 1-.37-1.37l10.68-18.5a2.449 2.438-74.106 0 1 2.18-1.22q33.18.74 49.967 1.147.283.006.417-.228t-.016-.475q-8.88-14.251-26.378-42.452a2.449 2.438-46.435 0 1-.057-2.498l10.506-18.599a1.003 1.003-29.974 0 1 1.368-.377l74.667 42.167a1.11 1.11-31.121 0 1 .427 1.513l-10.271 18.17a.95.945-60.324 0 1-1.298.359l-40.305-22.755a.161.16 89.743 0 0-.218.221l16.826 28.517a1.986 1.983-45.671 0 1 .021 1.978q-.938 1.682-3.714 6.542M790.135 327.361q.135.285.611.232 27.344-3.033 61.734-6.723a1.354 1.344 74.311 0 1 1.36.77l9.8 20.64a.687.684 74.875 0 1-.56.98l-91.61 7.35a1.47 1.47-16.192 0 1-1.4-.769q-.141-.264-5.034-10.613t-5.008-10.626a1.47 1.47-34.419 0 1 .294-1.569l63.814-66.138a.687.684 54.514 0 1 1.113.189l9.733 20.672a1.354 1.344 55.078 0 1-.268 1.54q-24.675 24.237-44.371 43.445-.343.335-.208.62"></path><path fill="#010101" fill-rule="evenodd" d="M515.07 304.57q2.02-5.01 9.33-24.42c2.69-7.14 9.24-10.8 16.94-10.06q8.58.84 12.6 9.47.67 1.43 1.49 5.09c.7 3.18-.81 7.99-1.75 10.48q-14.18 37.49-25.31 68.32a9.8 9.8 0 0 0-.52 4.39 1.288 1.286 69.44 0 0 2.02.92q1.25-.89 1.87-1.76 21.09-29.46 43.7-61.81c1.44-2.05 4.24-4.47 6.66-5.53q8.95-3.91 17.61 2.89 10.21 12.67.25 25-19.75 27.75-39.08 55.34-2.17 3.08-3.46 6.95a1.822 1.822-80.632 0 0 1.72 2.4q1.98 0 3.95-1.66 6.23-5.27 20.96-17.78c9.07-7.72 13.62-11.16 16.84-15.07l21.77-18.27a3.007 2.748 7.777 0 1 .55-.38q5.91-3.13 12.2-1.85c5.47 1.11 10.58 6.46 11.64 12.45q1.86 10.43-6.2 17.17-21.25 17.78-41.56 34.97l-9.1 7.13a1.655 1.634 84.872 0 0-.47.57q-.52 1.01-1.32 1.64c-3.53 2.83-7.29 5.44-7.99 7.06a.847.838-.717 0 0 1.13 1.09l13.15-5.91q3.85-.3 6.44-3.34a1.306 1.305 17.046 0 1 .83-.44q1.22-.13 2.66-.75 29.79-12.97 50.84-22.37a4.371 4.303-60.193 0 1 1.25-.35c3.92-.48 8.33-.56 12.22 1.92q8.85 5.63 7.15 16.84c-1.12 7.34-6 10.8-13.25 13.93q-30.82 13.32-59.64 25.78-.26.11-1.48.82-1.26.73-2.9.35-1.2-.32-2.47.96-1.06 1.07-1.54 2.33a.623.617 19.864 0 0 .38.8q3.76 1.3 5.77-.96 3.15.4 5.3.12 19.7-2.61 40.96-4.96 2.51-.28 5.05-.81c2.33-.5 4.56-.09 6.79-.72 2.45-.7 5.27-.49 8.17-.98 6.47-1.08 11.59-1.69 17.32.82q4.51 4.02 5.55 6.02 7.02 13.43-5.36 24.48-16.49 2.99-34.47 4.25-25.03 1.77-44.37 3.92a.522.52-20.006 0 0-.38.81q.74 1.08 2.21 1.21 36.24 3.37 63.25 6.05 8.85.88 13.59 1.69c4.15 1.89 8.78 5.83 9.77 10.45q.84 3.9.28 8.97-.91 8.31-8.95 12.14-4.72 1.83-6.91 1.58-39.09-4.59-52.01-6.5-5.21-.76-15.24-1.7-1.13-.1-1.89.33a.328.325-45.281 0 0 0 .57q.03.02 8.12 2.25 30.13 8.33 59.32 16.56 3.98 1.12 7.09 3.75 8.81 11.66.43 22.39-4.09 3.47-9.06 4.03-3.28.37-9.8-1.51-31.71-9.16-63.89-18.85a.393.388-69.712 0 0-.47.22l-.01.02a.31.301 24.802 0 0 .15.39q15.15 7.34 55.77 26.57 8.48 4.02 10.91 6.89 4.37 5.18 3.9 12.16c-.62 9.28-9.14 14.87-17.93 13.23q-2.55-.48-8.27-3.38-25.98-13.16-44.01-21.81a6.384 5.628 73.619 0 1-1.19-.75q-2.6-2.09-4.06-2.7-5.64-2.39-10.93-5.28a.436.436-75.976 0 0-.64.32l-.05.32a.243.238-66.179 0 0 .09.24q6.1 4.62 11.28 7.73 5.85 3.52 11.35 7.26 1.81 1.23 35 23.38c2.13 1.43 5.12 5.24 6.07 8.05q2.95 8.72-2.48 15.05c-3.33 3.88-8.89 5.59-13.76 4.43q-4.38-1.04-8.58-4.32-11.37-8.85-23.21-17.59-14.1-11.16-28.67-22.06-.75-.56-1.59-.63a.319.318 73.847 0 0-.28.51q1.83 2.38 4.58 4.92 10.88 10.03 21.06 20.19 1.19 1.19 4.22 3.38 8.15 7.98 16.53 16.13 1.93 1.88 3.56 6.64c2.37 6.92-.85 15.58-7.93 18.23q-6.11 2.29-12.33-.77a1.186.681 60.128 0 1-.12-.07l-4.69-3.41-73.42-80.15a.767.765 52.427 0 1 .15-1.16c6.29-4.07 12.61-8.5 18.1-14.17q26.41-27.32 29.28-64.03 3.31-42.32-23.66-75.31-10.66-13.05-26.05-21.96-2.34-1.35-4.57-1.91-5.04-3.11-10.37-4.95-33.4-11.5-66.05 1.02-1.93.74-4.32 1.98-2.13 1.1-4.24 2.15-14.76 7.41-25.93 19.48-21.64 23.36-26.68 54.7-.46 2.84-.57 5.08c-.21 4.38-.98 8.35-.78 12.81q.67 15.06 4.01 26.46 11.03 37.69 44.04 58.94a.381.38 37.123 0 1 .08.57q-38.49 42.83-71.49 79.3-3.25 3.59-7.56 5.78c-10.05 2.46-19.1-2.94-20.03-13.39q-.74-8.35 4.97-14.26 7.61-7.88 15.06-15.55 15.18-15.52 29.97-31.16 2.68-2.84 3.1-3.96a.966.965-2.478 0 0-1.32-1.21q-2.4 1.14-2.61 1.31-14.77 11.42-29.23 22.85-1.27.76-2.18 1.48-14.81 11.84-25.36 19.93c-10.16 7.78-24.86 3.2-24.63-10.78.14-8.84 5.66-12.76 13.5-18.17q5.58-3.85 36.96-26.23 2.05-1.46 4.01-2.17a4.159 4.122 16.203 0 0 1.14-.62q2.18-1.65 5.59-3.95 2.02-1.36 2.73-3.27a.761.76 1.544 0 0-.94-.99l-8.44 2.63a.848.82-75.009 0 0-.35.21l-3.95 3.95a.286.242 4.731 0 1-.07.05q-43.73 23.13-45.36 24.03-5.12 2.83-9.74 2.82-5.34 0-8.93-2.77c-9.39-7.24-6.06-21.25 3.7-26.03q21.49-10.55 48.32-23.25c5.44-2.57 10.17-5.45 15.38-7.01q.65-.2.83-.57a1 1-84.891 0 0-1.17-1.4q-12.52 3.55-71.51 19.82-1.42.4-5.99.23a4.563 4.342-35.109 0 1-.94-.14q-4.51-1.17-7.59-3.68-8.02-10.25-.01-21.22 3.26-3.39 9.25-4.74 15.78-3.54 62.27-14.55a.257.254-31.362 0 0 .11-.44q-.23-.2-.61-.16c-8.19.88-15.36.84-25.32 1.38q-24.3 1.31-38.67 1.81-3.27.12-7.13-1.22-5.07-3.06-7.17-6.78-2.29-4.05-1.75-9.49c.67-6.76 3.86-9.23 8.74-12.95q3.44-1.05 4.81-1.11 11.81-.54 21.82-.61 11.96-.09 21.83-.66 6.77-.4 21.72-.34c4.94.02 9.42-.42 13.5-.71a.343.339-25.736 0 0 .21-.59q-.51-.45-1.23-.58-10.5-1.85-74.09-12.58c-3-.51-5.59-1.66-8.38-2.84q-3.62-3.63-4.45-5.23-6.19-11.89 4.31-22.03 6.23-3.21 11.25-2.31c24.67 4.4 49.26 9.23 73.93 13.56q1.86.94 3.22.01a.627.617 59.818 0 0 .2-.78q-.65-1.32-2.68-1.82-33.74-16.92-67.41-33.9-9.11-4.59-9.59-14.89c-.44-9.23 8.02-16.51 17.05-15.2q2.38.34 8.02 3.21 26.06 13.26 51.97 27 5.93 3.15 12.1 5.98c1.73.8 2.93.96 4.69.51a.814.812-22.039 0 0 .51-1.2l-1.27-2.19a4.76 4.693-83.683 0 0-.86-1.09l-15.53-14.8-39.87-38.73a5.184 4.961 6.871 0 1-.78-.95c-5.97-9.39-3.53-21.3 7.04-25.62q3.87-1.58 8.14-.59 5.03 1.16 7.39 3.53 13.7 13.76 15.31 15.43.78.81 2.2 1.69.39 1.12 1.18 1.94 6.94 7.24 29.74 30.54 2.67 2.72 6.57 5.78a2.039 1.965 40.162 0 0 2.72-.18q1.66-1.82.27-4.4-2.15-3.95-4.28-7.84-17.9-32.71-35.6-65.35l-.34-8.17q2.4-7.19 6.09-9.8 11.14-7.88 21.36.87 1.36 1.16 3.97 5.79 1.96 3.49 34.69 63.08c1.23 2.23 3.23 4.87 6.24 4.58 5.72-.54 3.24-8.39 2.2-11.63q-6.28-19.56-18.02-57.31-3.3-10.58-3.4-11.56c-.78-7.52 2.27-14.65 9.04-17.91 7.47-3.6 15.61-1.21 20.48 5.31q.87 1.17 2.46 5.77 10.48 34.18 21.19 68.57.83 2.67 2.97 3.72a1.778 1.775-61.966 0 0 2.32-.71q1.36-2.38 1.37-4.7.04-44.11-.02-68.98c0-2.7.02-6.68 1.2-9.25 4.18-9.1 13.74-12.59 22.63-8.06 4.95 2.52 7.99 8.23 8.54 14.46.5 5.63-.37 10.86-.34 16.11q.12 21.24.01 57.46a3.118 2.772 41.645 0 0 .08.68l.86 3.48a1.164 1.118-74.104 0 0 .26.49c2.94 3.32 5.87-1.98 6.64-4.33q1.59-4.81 15.61-42.31 1.1-2.94 1.61-4.93m36.91 279.37 8.19-8.38a.387.374-48.588 0 1 .5-.04q29.73 21.61 69.72 50.92c8.62 6.31 14.5-3.29 6.37-9.22q-67.16-49.03-68.78-50.21a.542.536-55.384 0 1-.13-.73l6.12-9.54a.709.706-60.807 0 1 .91-.26q35.32 17.16 79.04 38.43c4.83 2.35 11.02-1.08 8.85-7.05q-1.02-2.82-4.24-4.39-43.58-21.21-77.8-37.84a.347.335-67.562 0 1-.17-.43l4.7-12.93a.629.622 18.109 0 1 .76-.38q69.56 19.69 85.89 24.23c3.16.88 7.49-.77 8-4.49.51-3.73-2.74-6.39-6.18-7.36q-48.94-13.84-84.26-23.81a.419.418 11.932 0 1-.3-.46l2.17-13.95a.366.363-81.627 0 1 .4-.3q32.69 3.26 85.48 8.58c3.22.33 5.38-.02 7.36-2.34 3.06-3.57 2.24-8.98-1.59-11.48q-1.44-.94-6.67-1.41-3.93-.36-83.76-8.41a.14.14 78.998 0 1-.13-.13l-.94-15.92a.242.241-6.206 0 1 .21-.26q36.56-4.01 81.68-8.97c4.52-.49 8.09-.62 9.72-4.72 2.09-5.28-1.27-11.29-7.35-10.63q-72.42 7.88-86.78 9.49a.148.144-13.283 0 1-.15-.09l-5.36-16.26a.298.296-21.204 0 1 .16-.36q50.95-22 79.55-34.39c6.19-2.68 5.6-12.24-1.53-13.23q-2-.28-6.04 1.48-10.46 4.55-77.62 33.55a.268.263-27.661 0 1-.33-.1l-9.02-14.06a.351.349-36.511 0 1 .07-.46q39.86-33.66 66.1-55.84 1.98-1.67 2.62-2.85c3.54-6.45-2.3-12.81-9.14-9.9a3.801 3.661 12.388 0 0-.88.54l-67.51 57.03a.448.439-40.661 0 1-.61-.04q-6.65-7.25-14.23-13.19a.629.625 36.589 0 1-.13-.86q41.84-60.12 48.9-70.2 2.99-4.28 1-8.63c-2.17-4.77-8.98-5.49-11.96-1.32q-2.1 2.93-50.14 71.98a.407.389-56.481 0 1-.53.12q-7.98-4.77-16.74-8.28a.554.552-69.004 0 1-.31-.7q3.46-9.31 30.18-81.98c1.46-3.97 1.96-7.07-.79-10.08-3.14-3.45-9.95-2.69-11.61 1.79q-10.09 27.21-31.66 85.97a.395.394 16.925 0 1-.47.25q-9.31-2.3-18.95-3.11a.644.642 2.431 0 1-.59-.64q.04-48.86.01-87.18-.01-3.63-2.6-5.94c-2.23-1.98-6.6-2.2-8.78-.42-3.5 2.86-3.13 6.16-3.13 10.82q.01 55.25.01 82.63a.602.59-1.535 0 1-.57.59q-9.31.49-18.37 2.55a.552.544 74.878 0 1-.65-.38q-4.09-13.19-26.02-83.52c-3.03-9.74-16.87-5.28-13.5 5.52q9.33 29.89 25.58 82.08a.577.577-18.768 0 1-.35.71q-11.27 4.23-21.14 10.41a.699.697 59.239 0 1-.98-.25q-32.82-59.3-42.47-76.74-1.35-2.45-2.42-3.33c-2.76-2.29-6.89-2.01-9.46.41q-3.11 2.93-1.84 8.12a3.33 3.305 23.747 0 0 .35.89l43.94 79.38a.798.796 55.835 0 1-.19 1q-7.38 5.99-13.85 13.38a.567.562 43.355 0 1-.83.02q-23.6-23.9-53.43-53.74c-2.92-2.93-6.13-6.89-9.5-9.46q-2.41-1.83-5.98-1.05c-3.96.88-5.4 5.62-4.08 9.15q.63 1.66 3.46 4.5 21.05 21.08 61.04 61.43a.764.752-52.135 0 1 .11.94l-8.21 13.46a.599.597-60.638 0 1-.78.22q-25.05-12.72-78.54-39.96-3.49-1.78-6-1.24c-6.41 1.39-5.43 9.24-.49 11.75q32.42 16.5 80.44 40.96a.131.125-66.877 0 1 .06.16l-4.77 14.95a.437.431-75.741 0 1-.48.29q-72.95-12.75-85.91-14.95c-4.07-.69-7.8.84-8.56 5.15-.84 4.81 2.81 7.43 7.4 8.22q50.9 8.86 84.35 14.73a.518.513 7.288 0 1 .43.55l-1.23 16.76a.484.484-89.332 0 1-.46.45q-3.2.09-85.36 2.34-4.19.11-6 2.04c-3.16 3.35-2.02 8.69 2.34 10.32q1.47.54 5.95.42 83.53-2.29 83.58-2.31a.432.422-16.25 0 1 .6.32l1.56 10.93a.662.653 79.283 0 1-.49.73q-1.86.43-85.21 21.29c-3.05.76-6.35 4.69-4.57 8.03 1.62 3.05 5.56 3.18 8.7 2.38q38.17-9.65 83.76-20.99a.45.444 73.678 0 1 .54.3l4.23 12.81a.485.479-22.86 0 1-.24.58q-32.53 16.23-76.12 37.89-3.9 1.94-3.53 7.5a1.747 1.697 26.425 0 0 .31.88c3.04 4.37 7.96 1.87 11.69.02q32.24-15.94 67.17-33.45 1.77-.89 5.24-2.36a.586.581-26.798 0 1 .74.24l6.6 11.43a.268.267 56.662 0 1-.07.34q-59.31 44.14-68.56 51c-1.88 1.4-3.32 3.09-3.83 5.24-1.37 5.75 5.27 7.92 9.09 5.09q29.83-22.13 69.88-51.99a.499.497 50.93 0 1 .66.07l9.83 10.88a.398.383-45.044 0 1-.01.53q-15.52 17.06-55.45 60.91-2.01 2.2-1.91 5.62c.19 6.39 7.51 7.53 11.34 3.33q47.51-52.22 65.14-71.52a.76.758-50.193 0 0-.1-1.11c-50.69-39.24-57.83-114.36-16.06-162.66q19.98-23.09 48.12-31.89c59.27-18.52 118.75 19.49 132.89 78.28q9.29 38.6-6.83 74.37-11.97 26.57-34.95 43.26a.528.522-40.269 0 0-.07.79q23.18 23.9 67.19 69.78 2.25 2.34 4.62 3.08c4.05 1.26 6.97-1.65 6.46-5.74q-.34-2.73-2.73-5.22-56.17-58.35-57.02-59.21a.24.24-90 0 1 0-.34"></path><path fill="#fff" fill-rule="evenodd" d="M551.98 583.94a.24.24 0 0 0 0 .34q.85.86 57.02 59.21 2.39 2.49 2.73 5.22c.51 4.09-2.41 7-6.46 5.74q-2.37-.74-4.62-3.08-44.01-45.88-67.19-69.78a.528.522-40.269 0 1 .07-.79q22.98-16.69 34.95-43.26 16.12-35.77 6.83-74.37c-14.14-58.79-73.62-96.8-132.89-78.28q-28.14 8.8-48.12 31.89c-41.77 48.3-34.63 123.42 16.06 162.66a.76.758-50.193 0 1 .1 1.11q-17.63 19.3-65.14 71.52c-3.83 4.2-11.15 3.06-11.34-3.33q-.1-3.42 1.91-5.62 39.93-43.85 55.45-60.91a.398.383-45.044 0 0 .01-.53l-9.83-10.88a.499.497 50.93 0 0-.66-.07q-40.05 29.86-69.88 51.99c-3.82 2.83-10.46.66-9.09-5.09.51-2.15 1.95-3.84 3.83-5.24q9.25-6.86 68.56-51a.268.267 56.662 0 0 .07-.34l-6.6-11.43a.586.581-26.798 0 0-.74-.24q-3.47 1.47-5.24 2.36-34.93 17.51-67.17 33.45c-3.73 1.85-8.65 4.35-11.69-.02a1.747 1.697 26.425 0 1-.31-.88q-.37-5.56 3.53-7.5 43.59-21.66 76.12-37.89a.485.479-22.86 0 0 .24-.58l-4.23-12.81a.45.444 73.678 0 0-.54-.3q-45.59 11.34-83.76 20.99c-3.14.8-7.08.67-8.7-2.38-1.78-3.34 1.52-7.27 4.57-8.03q83.35-20.86 85.21-21.29a.662.653 79.283 0 0 .49-.73l-1.56-10.93a.432.422-16.25 0 0-.6-.32q-.05.02-83.58 2.31-4.48.12-5.95-.42c-4.36-1.63-5.5-6.97-2.34-10.32q1.81-1.93 6-2.04 82.16-2.25 85.36-2.34a.484.484-89.332 0 0 .46-.45l1.23-16.76a.518.513 7.288 0 0-.43-.55q-33.45-5.87-84.35-14.73c-4.59-.79-8.24-3.41-7.4-8.22.76-4.31 4.49-5.84 8.56-5.15q12.96 2.2 85.91 14.95a.437.431-75.741 0 0 .48-.29l4.77-14.95a.131.125-66.877 0 0-.06-.16q-48.02-24.46-80.44-40.96c-4.94-2.51-5.92-10.36.49-11.75q2.51-.54 6 1.24 53.49 27.24 78.54 39.96a.599.597-60.638 0 0 .78-.22l8.21-13.46a.764.752-52.135 0 0-.11-.94q-39.99-40.35-61.04-61.43-2.83-2.84-3.46-4.5c-1.32-3.53.12-8.27 4.08-9.15q3.57-.78 5.98 1.05c3.37 2.57 6.58 6.53 9.5 9.46q29.83 29.84 53.43 53.74a.567.562 43.355 0 0 .83-.02q6.47-7.39 13.85-13.38a.798.796 55.835 0 0 .19-1l-43.94-79.38a3.33 3.305 23.747 0 1-.35-.89q-1.27-5.19 1.84-8.12c2.57-2.42 6.7-2.7 9.46-.41q1.07.88 2.42 3.33 9.65 17.44 42.47 76.74a.699.697 59.239 0 0 .98.25q9.87-6.18 21.14-10.41a.577.577-18.768 0 0 .35-.71q-16.25-52.19-25.58-82.08c-3.37-10.8 10.47-15.26 13.5-5.52q21.93 70.33 26.02 83.52a.552.544 74.878 0 0 .65.38q9.06-2.06 18.37-2.55a.602.59-1.535 0 0 .57-.59q0-27.38-.01-82.63c0-4.66-.37-7.96 3.13-10.82 2.18-1.78 6.55-1.56 8.78.42q2.59 2.31 2.6 5.94.03 38.32-.01 87.18a.644.642 2.431 0 0 .59.64q9.64.81 18.95 3.11a.395.394 16.925 0 0 .47-.25q21.57-58.76 31.66-85.97c1.66-4.48 8.47-5.24 11.61-1.79 2.75 3.01 2.25 6.11.79 10.08q-26.72 72.67-30.18 81.98a.554.552-69.004 0 0 .31.7q8.76 3.51 16.74 8.28a.407.389-56.481 0 0 .53-.12q48.04-69.05 50.14-71.98c2.98-4.17 9.79-3.45 11.96 1.32q1.99 4.35-1 8.63-7.06 10.08-48.9 70.2a.629.625 36.589 0 0 .13.86q7.58 5.94 14.23 13.19a.448.439-40.661 0 0 .61.04l67.51-57.03a3.801 3.661 12.388 0 1 .88-.54c6.84-2.91 12.68 3.45 9.14 9.9q-.64 1.18-2.62 2.85-26.24 22.18-66.1 55.84a.351.349-36.511 0 0-.07.46l9.02 14.06a.268.263-27.661 0 0 .33.1q67.16-29 77.62-33.55 4.04-1.76 6.04-1.48c7.13.99 7.72 10.55 1.53 13.23q-28.6 12.39-79.55 34.39a.298.296-21.204 0 0-.16.36l5.36 16.26a.148.144-13.283 0 0 .15.09q14.36-1.61 86.78-9.49c6.08-.66 9.44 5.35 7.35 10.63-1.63 4.1-5.2 4.23-9.72 4.72q-45.12 4.96-81.68 8.97a.242.241-6.206 0 0-.21.26l.94 15.92a.14.14 73.994 0 0 .13.13q79.83 8.05 83.76 8.41 5.23.47 6.67 1.41c3.83 2.5 4.65 7.91 1.59 11.48-1.98 2.32-4.14 2.67-7.36 2.34q-52.79-5.32-85.48-8.58a.366.363-81.627 0 0-.4.3L589.17 520a.419.418 11.932 0 0 .3.46q35.32 9.97 84.26 23.81c3.44.97 6.69 3.63 6.18 7.36-.51 3.72-4.84 5.37-8 4.49q-16.33-4.54-85.89-24.23a.629.622 18.109 0 0-.76.38l-4.7 12.93a.347.335-67.562 0 0 .17.43q34.22 16.63 77.8 37.84 3.22 1.57 4.24 4.39c2.17 5.97-4.02 9.4-8.85 7.05q-43.72-21.27-79.04-38.43a.709.706-60.807 0 0-.91.26l-6.12 9.54a.542.536-55.384 0 0 .13.73q1.62 1.18 68.78 50.21c8.13 5.93 2.25 15.53-6.37 9.22q-39.99-29.31-69.72-50.92a.387.374-48.588 0 0-.5.04z"></path><path fill="#e20612" fill-rule="evenodd" d="M684.57 561.61q8.38-10.73-.43-22.39l1.52-16.84q8.04-3.83 8.95-12.14.56-5.07-.28-8.97c-.99-4.62-5.62-8.56-9.77-10.45l.17-17.93q12.38-11.05 5.36-24.48-1.04-2-5.55-6.02c.22-14.21.53-28.55.45-42.53q-.28-49.34-.2-113.53a.485.485-65.621 0 1 .85-.32q64.98 73.75 72.26 171.98.84 11.33.18 30.52c-2.06 60.24-24.57 118.11-61.75 165.33q-5.54 7.03-11.09 12.97a.354.351-20.889 0 1-.61-.27q.16-1.69.16-2.66c.06-36.72.36-56.01-.34-69.13-.14-2.67.37-5.01-.09-7.5q-.17-.92-.13-3.01.23-11.21.34-22.63M259.74 436.51q-10.5 10.14-4.31 22.03.83 1.6 4.45 5.23l-.19 20.02c-4.88 3.72-8.07 6.19-8.74 12.95q-.54 5.44 1.75 9.49 2.1 3.72 7.17 6.78l.1 17.92q-8.01 10.97.01 21.22l.02 112.81a.436.434-65.799 0 1-.76.29c-90.79-103.27-95.94-254.99-11.35-364.13q4.85-6.26 11.18-13.71a.49.487 65.216 0 1 .86.32q-.03 66.6-.02 95.02 0 2.5.23 25.48.14 14-.4 28.28M345.37 313.85q17.7 32.64 35.6 65.35 2.13 3.89 4.28 7.84 1.39 2.58-.27 4.4a2.039 1.965 40.162 0 1-2.72.18q-3.9-3.06-6.57-5.78-22.8-23.3-29.74-30.54-.79-.82-1.18-1.94.29-6.24.39-12.23.23-13.43-.44-26.85a.776.748-27.007 0 1 .19-.55q.37-.42.46.12M599.96 327.55q.35 4.19.19 7.9-.05 1.23.76 3.19a3.817 3.62-57.059 0 1 .27 1.45l-.29 17.64c-3.22 3.91-7.77 7.35-16.84 15.07q-14.73 12.51-20.96 17.78-1.97 1.66-3.95 1.66a1.822 1.822-80.632 0 1-1.72-2.4q1.29-3.87 3.46-6.95 19.33-27.59 39.08-55.34"></path><path fill="#1e1d1b" fill-rule="evenodd" d="m514.92 400.08.4 11.53-15.57 17.58a1.186 1.177 49.348 0 1-1.88-.15l-23.17-36.13a.78.777-44.86 0 0-1.31 0L450.25 429a1.299 1.293-49.323 0 1-2.06.16l-18.73-21.18q1.45-3.61.48-7.7 2.11-1.05 4.24-2.15 2.39-1.24 4.32-1.98 32.65-12.52 66.05-1.02 5.33 1.84 10.37 4.95"></path><path fill="#010101" fill-rule="evenodd" d="m515.32 411.61 4.74-5.14a.541.54-35.382 0 1 .89.15q1 2.27 6.73 14.96 2.09 4.63 3.89 12.56 2.29 10.07 3.2 20.77c.16 1.85.75 3.66.86 5.21.69 9.73 1.18 19.89.43 29.91-.61 8.14-4.05 15.96-5.07 23.4q-.69 5.01-.98 10.66c-.59 11.77-3.97 23.44-8.11 34.53-2.66 7.15-4.29 10.7-5.67 16.25q-1.2 4.83-1.25 5.88-.32 6.95-.34 15.51c-.04 13.08 8.41 24.98 17.48 33.26q8.98 8.2 26.14 20.01c1.33.92 2.29 1.94 2.48 3.71.66 6.03-1.04 8.95-4.58 13.88q-1.62 2.25-4.19 4.41-9.14 7.69-21.18 10.95-7.78 2.11-15.51 4.1c-13.64 2.26-27.84 4.22-40.98 4.33q-9.39.08-27.5-1.69c-4.92-.49-11.06-1.97-16.68-2.75q-2.65-1.04-5.62-1.85c-14.87-4.04-29.72-12.33-42.37-21.43a1.659 1.64 23.526 0 1-.66-1.65l2.1-10.76a.57.562-87.217 0 1 .5-.46c3.95-.38 7.34-1.62 11.01-3.34q9.64-4.51 24.85-15.33 6.6-4.7 9.96-8.77c2.15-3.38 4.56-6.58 5.89-10.21q3.4-9.3 2.65-18.67-1.28-16-8.42-31.94-1.38-6.8-3.77-13.61-.63-1.78-2.3-12.54-1.28-8.29-2.13-11.81c-1.67-6.93-4.46-15.36-7.19-22.09-3.69-9.14-4.12-18.82-3.75-28.51q.88-22.87 5.89-41.25c2.57-9.44 6.45-16.85 10.34-25.55a.615.614 48.927 0 1 1.15.08q.18.61 1.21 1.2l18.73 21.18a1.299 1.293-49.323 0 0 2.06-.16l23.14-36.09a.78.777-44.86 0 1 1.31 0l23.17 36.13a1.186 1.177 49.348 0 0 1.88.15zm-40.112 65.646c18.416-.002 37.559 4.791 51.175 17.631a.421.419-62.227 0 0 .697-.217q1.7-7.64 1.64-16.59c-.1-14.79-1.99-31.17-5.94-44.57q-1.24-4.19-2.76-7.62a.416.416 54.043 0 0-.69-.11l-19.93 21.96a.52.519-40.75 0 1-.82-.06c-8.95-13.69-22.6-35.18-23.209-35.36q-.153-.046-.169-.046-.015 0-.168.046c-.609.18-14.255 21.673-23.203 35.364a.52.519 40.739 0 1-.82.06l-19.934-21.956a.416.416-54.053 0 0-.69.11q-1.519 3.43-2.758 7.621c-3.948 13.4-5.835 29.781-5.932 44.571q-.059 8.95 1.643 16.589a.421.419 62.217 0 0 .696.218c13.615-12.844 32.756-17.64 51.172-17.641m.54 114.263c12.863-.003 22.78-8.159 29.75-18.542 9.032-13.457 13.692-29.027 16.492-45.217 2.25-12.96 1.45-27.15-9.203-35.939-9.481-7.826-25.027-9.344-37.061-9.342-12.034.003-27.579 1.527-37.057 9.356-10.649 8.794-11.444 22.984-9.189 35.943 2.807 16.189 7.473 31.757 16.511 45.211 6.973 10.38 16.893 18.532 29.757 18.53M452.28 588.9c.05 17.52-3.14 34.97-17.04 46.1q-6.35 5.08-11.31 7.93-13.19 7.58-23.57 14.9a.793.791 48.809 0 0-.08 1.22c12.48 11.7 30.21 17.12 46.99 19.4 26.59 3.61 54.55 2.01 79.71-7.44q12.09-4.53 21.25-13.46a.605.603-49.429 0 0-.07-.93q-8.51-5.94-17.46-12.06c-9.73-6.65-18.57-14.66-23.23-25.52-4.49-10.48-5.48-21.78-5.77-32.63a.312.311 63.986 0 0-.55-.19q-7.17 8.38-18.07 10.37-17.38 3.17-30.52-7.82a.171.17 19.854 0 0-.28.13"></path><path fill="#e20612" fill-rule="evenodd" d="m345.34 398.6 15.53 14.8a4.76 4.693-83.683 0 1 .86 1.09l1.27 2.19a.814.812-22.039 0 1-.51 1.2c-1.76.45-2.96.29-4.69-.51q-6.17-2.83-12.1-5.98-.63-2.08-.81-4.39-.36-4.54.45-8.4M595.09 658.77l4.06 4.59a4.206 4.181-65.975 0 1 1.06 2.79v64.56a1.737 1.731-13.327 0 1-.96 1.55q-33.04 16.3-68.77 23.72-7.59 1.58-14.92 2.47a.496.493-3.131 0 1-.55-.49l.27-71.38q7.73-1.99 15.51-4.1 12.04-3.26 21.18-10.95 2.57-2.16 4.19-4.41c3.54-4.93 5.24-7.85 4.58-13.88-.19-1.77-1.15-2.79-2.48-3.71q-17.16-11.81-26.14-20.01c-9.07-8.28-17.52-20.18-17.48-33.26q.02-8.56.34-15.51.05-1.05 1.25-5.88c1.38-5.55 3.01-9.1 5.67-16.25 4.14-11.09 7.52-22.76 8.11-34.53q.29-5.65.98-10.66c1.02-7.44 4.46-15.26 5.07-23.4.75-10.02.26-20.18-.43-29.91-.11-1.55-.7-3.36-.86-5.21q-.91-10.7-3.2-20.77-1.8-7.93-3.89-12.56-5.73-12.69-6.73-14.96a.541.54-35.382 0 0-.89-.15l-4.74 5.14-.4-11.53q2.23.56 4.57 1.91 15.39 8.91 26.05 21.96 26.97 32.99 23.66 75.31-2.87 36.71-29.28 64.03c-5.49 5.67-11.81 10.1-18.1 14.17a.767.765 52.427 0 0-.15 1.16zM429.94 400.28q.97 4.09-.48 7.7-1.03-.59-1.21-1.2a.615.614 48.927 0 0-1.15-.08c-3.89 8.7-7.77 16.11-10.34 25.55q-5.01 18.38-5.89 41.25c-.37 9.69.06 19.37 3.75 28.51 2.73 6.73 5.52 15.16 7.19 22.09q.85 3.52 2.13 11.81 1.67 10.76 2.3 12.54 2.39 6.81 3.77 13.61.12 12.58-.24 25.19c-.09 3.23.75 8.02.49 11.68q-.53 7.33-.16 15.44c.1 2.28-.47 5.58-.21 8.51q-3.36 4.07-9.96 8.77-15.21 10.82-24.85 15.33c-3.67 1.72-7.06 2.96-11.01 3.34a.57.562-87.217 0 0-.5.46l-2.1 10.76a1.659 1.64 23.526 0 0 .66 1.65c12.65 9.1 27.5 17.39 42.37 21.43q2.97.81 5.62 1.85l.02 71.12a.86.854-85.443 0 1-.99.85q-44.08-7.05-83.05-26.49a1.984 1.982 13.398 0 1-1.09-1.77l.05-66.78q4.31-2.19 7.56-5.78 33-36.47 71.49-79.3a.381.38 37.123 0 0-.08-.57q-33.01-21.25-44.04-58.94-3.34-11.4-4.01-26.46c-.2-4.46.57-8.43.78-12.81q.11-2.24.57-5.08 5.04-31.34 26.68-54.7 11.17-12.07 25.93-19.48M594.69 413.4l-13.15 5.91a.847.838-.717 0 1-1.13-1.09c.7-1.62 4.46-4.23 7.99-7.06q.8-.63 1.32-1.64a1.655 1.634 84.872 0 1 .47-.57l9.1-7.13q1.61 3.88.58 8.59a1.044 1.042 83.196 0 1-.55.7z"></path><path fill="#fff" fill-rule="evenodd" d="M475.202 412.274q.016 0 .169.046c.609.18 14.259 21.67 23.209 35.36a.52.519-40.75 0 0 .82.06l19.93-21.96a.416.416 54.043 0 1 .69.11q1.52 3.43 2.76 7.62c3.95 13.4 5.84 29.78 5.94 44.57q.06 8.95-1.64 16.59a.421.419-62.227 0 1-.697.217c-13.616-12.84-32.759-17.633-51.175-17.631s-37.557 4.797-51.172 17.641a.421.419 62.217 0 1-.696-.218q-1.702-7.639-1.643-16.589c.097-14.79 1.984-31.171 5.932-44.571q1.239-4.191 2.758-7.621a.416.416-54.053 0 1 .69-.11l19.934 21.956a.52.519 40.739 0 0 .82-.06c8.948-13.691 22.594-35.184 23.203-35.364q.153-.046.168-.046" data-source="https://football-logos.cc"></path><path fill="#e20612" fill-rule="evenodd" d="M344.92 447.76q-.68-1.17.74-2.59 2.03.5 2.68 1.82a.627.617 59.818 0 1-.2.78q-1.36.93-3.22-.01M598.81 445.79q1.55.59 2.14 3.13-2.01 2.26-5.77.96a.623.617 19.864 0 1-.38-.8q.48-1.26 1.54-2.33 1.27-1.28 2.47-.96"></path><path fill="#1e1d1b" fill-rule="evenodd" d="m259.69 483.79.19-20.02c2.79 1.18 5.38 2.33 8.38 2.84q63.59 10.73 74.09 12.58.72.13 1.23.58a.343.339-25.736 0 1-.21.59c-4.08.29-8.56.73-13.5.71q-14.95-.06-21.72.34-9.87.57-21.83.66-10.01.07-21.82.61-1.37.06-4.81 1.11M684.73 472.89l-.17 17.93q-4.74-.81-13.59-1.69-27.01-2.68-63.25-6.05-1.47-.13-2.21-1.21a.522.52-20.006 0 1 .38-.81q19.34-2.15 44.37-3.92 17.98-1.26 34.47-4.25"></path><path fill="#fff" fill-rule="evenodd" d="M475.726 482.479c12.034-.002 27.58 1.516 37.061 9.342 10.653 8.789 11.453 22.979 9.203 35.939-2.8 16.19-7.46 31.76-16.492 45.217-6.97 10.383-16.887 18.539-29.75 18.542-12.864.002-22.784-8.15-29.757-18.53-9.038-13.454-13.704-29.022-16.511-45.211-2.255-12.959-1.46-27.149 9.189-35.943 9.478-7.829 25.023-9.353 37.057-9.356m-17.532 33.284a.868.866-78.824 0 1 .938-.63q2.877.366 4.215-.335a1.134 1.127-29.945 0 0 .438-1.608q-2.292-3.604-5.489-4.479c-5.955-1.622-19.21-.918-22.739 5.129a1.25 1.25-70.525 0 0 .891 1.867l2.118.327a1.018 1.013 75.083 0 1 .65.379c3.991 5.12 10.709 10.107 16.107 4.348q2.135-2.28 2.871-4.998m34.166.017q.74 2.72 2.88 5c5.41 5.76 12.13.76 16.12-4.37a1.02 1.014-75.146 0 1 .65-.38l2.12-.33a1.252 1.252 70.461 0 0 .89-1.87c-3.54-6.05-16.81-6.74-22.77-5.11q-3.2.88-5.49 4.49a1.135 1.129 29.882 0 0 .44 1.61q1.34.7 4.22.33a.869.867 78.76 0 1 .94.63m-26.52 24.65a.803.802-72.012 0 0 .57 1.12q8.87 1.85 18.49.34 1.16-.18 2.34-.88a1.344 1.343 56.839 0 0 .41-1.96q-1.15-1.58-3.63-1.6a1.069 1.028 17.883 0 0-.84.41c-1.84 2.42-8.52 1.94-10.8 1.23a2.537 2.463-14.086 0 1-.95-.55l-.98-.88a1.01 1.01 55.158 0 0-1.06-.19q-2.68 1.08-3.55 2.96m-4.12 15.5a.829.828 55.208 0 0-.26 1.45c2.9 2.23 7.49 2.25 12.09 2.49q8.14.42 16-.79a5.183 5.163 15.166 0 0 3.24-1.85l1.14-1.39a1.124 1.122-74.797 0 0-1.04-1.82q-14.32 2.2-27.63 1.47-1.79-.09-3.54.44m15.015 14.615q3.175.006 5.467-3.282a.325.324 17.292 0 0-.269-.51q-2.694.019-5.191.014-2.498-.004-5.192-.034a.325.324-17.076 0 0-.27.509q2.279 3.297 5.455 3.303"></path><path fill="#010101" fill-rule="evenodd" d="M458.194 515.763q-.736 2.718-2.871 4.998c-5.398 5.759-12.116.772-16.107-4.348a1.018 1.013 75.083 0 0-.65-.379l-2.118-.327a1.25 1.25-70.525 0 1-.891-1.867c3.529-6.047 16.784-6.751 22.739-5.129q3.197.875 5.489 4.479a1.134 1.127-29.945 0 1-.438 1.608q-1.338.701-4.215.335a.868.866-78.824 0 0-.938.63M492.36 515.78a.869.867 78.76 0 0-.94-.63q-2.88.37-4.22-.33a1.135 1.129 29.882 0 1-.44-1.61q2.29-3.61 5.49-4.49c5.96-1.63 19.23-.94 22.77 5.11a1.252 1.252 70.461 0 1-.89 1.87l-2.12.33a1.02 1.014-75.146 0 0-.65.38c-3.99 5.13-10.71 10.13-16.12 4.37q-2.14-2.28-2.88-5"></path><path fill="#1e1d1b" fill-rule="evenodd" d="m259.97 530.93-.1-17.92q3.86 1.34 7.13 1.22 14.37-.5 38.67-1.81c9.96-.54 17.13-.5 25.32-1.38q.38-.04.61.16a.257.254-31.362 0 1-.11.44q-46.49 11.01-62.27 14.55-5.99 1.35-9.25 4.74M685.66 522.38l-1.52 16.84q-3.11-2.63-7.09-3.75-29.19-8.23-59.32-16.56-8.09-2.23-8.12-2.25a.328.325-45.281 0 1 0-.57q.76-.43 1.89-.33 10.03.94 15.24 1.7 12.92 1.91 52.01 6.5 2.19.25 6.91-1.58"></path><path fill="#010101" fill-rule="evenodd" d="M465.84 540.43q.87-1.88 3.55-2.96a1.01 1.01 55.158 0 1 1.06.19l.98.88a2.537 2.463-14.086 0 0 .95.55c2.28.71 8.96 1.19 10.8-1.23a1.069 1.028 17.883 0 1 .84-.41q2.48.02 3.63 1.6a1.344 1.343 56.839 0 1-.41 1.96q-1.18.7-2.34.88-9.62 1.51-18.49-.34a.803.802-72.012 0 1-.57-1.12M461.72 555.93q1.75-.53 3.54-.44 13.31.73 27.63-1.47a1.124 1.122-74.797 0 1 1.04 1.82l-1.14 1.39a5.183 5.163 15.166 0 1-3.24 1.85q-7.86 1.21-16 .79c-4.6-.24-9.19-.26-12.09-2.49a.829.828 55.208 0 1 .26-1.45"></path><path fill="#1e1d1b" fill-rule="evenodd" d="M429.89 622.88c-.26-2.93.31-6.23.21-8.51q-.37-8.11.16-15.44c.26-3.66-.58-8.45-.49-11.68q.36-12.61.24-25.19 7.14 15.94 8.42 31.94.75 9.37-2.65 18.67c-1.33 3.63-3.74 6.83-5.89 10.21"></path><path fill="#010101" fill-rule="evenodd" d="M476.742 566.767q2.497.005 5.191-.014a.325.324 17.292 0 1 .269.51q-2.292 3.288-5.467 3.282-3.176-.006-5.455-3.303a.325.324-17.076 0 1 .27-.509q2.694.03 5.192.034"></path><path fill="#e20612" fill-rule="evenodd" d="m345.06 620.2-.09-12.17q14.46-11.43 29.23-22.85.21-.17 2.61-1.31a.966.965-2.478 0 1 1.32 1.21q-.42 1.12-3.1 3.96-14.79 15.64-29.97 31.16"></path><path fill="#fff" fill-rule="evenodd" d="M452.28 588.9a.171.17 19.854 0 1 .28-.13q13.14 10.99 30.52 7.82 10.9-1.99 18.07-10.37a.312.311 63.986 0 1 .55.19c.29 10.85 1.28 22.15 5.77 32.63 4.66 10.86 13.5 18.87 23.23 25.52q8.95 6.12 17.46 12.06a.605.603-49.429 0 1 .07.93q-9.16 8.93-21.25 13.46c-25.16 9.45-53.12 11.05-79.71 7.44-16.78-2.28-34.51-7.7-46.99-19.4a.793.791 48.809 0 1 .08-1.22q10.38-7.32 23.57-14.9 4.96-2.85 11.31-7.93c13.9-11.13 17.09-28.58 17.04-46.1"></path><path fill="#e20612" fill-rule="evenodd" d="m600.75 615.71-.68 6.31q-3.03-2.19-4.22-3.38-10.18-10.16-21.06-20.19-2.75-2.54-4.58-4.92a.319.318 73.847 0 1 .28-.51q.84.07 1.59.63 14.57 10.9 28.67 22.06"></path><path fill="#1e1d1b" fill-rule="evenodd" d="m551.375 788.592 34.021-11.224a23.55 23.55 65.672 0 1 29.742 14.986l16.774 50.841a23.55 23.55 2.493 0 1-14.987 29.743l-34.021 11.224a23.55 23.55 19.58 0 1-29.742-14.986l-16.774-50.841a23.55 23.55-80.072 0 1 14.987-29.743m40.465 15.064a7.08 7.08 0 0 0-8.953-4.483l-16.719 5.561a7.08 7.08 0 0 0-4.483 8.953l14.715 44.237a7.08 7.08 0 0 0 8.953 4.483l16.719-5.562a7.08 7.08 0 0 0 4.483-8.952zM320.9 782.29a.48.48 45 0 1 .45-.51q20.05-1.11 26.14-1.37 2.41-.1 6.44 1.43 6.43 2.46 15.86 5.77a.813.807 19.535 0 1 .5 1.04l-32.86 90.34a.905.901-70.044 0 1-1.15.54l-22.31-8.12a.949.946-70.144 0 1-.57-1.22l25.27-69.49a.71.71 9.836 0 0-.67-.95h-15.07a.684.682 87.724 0 1-.68-.63zM418.33 859.35a.603.6-88.375 0 0-.63-.67q-14.52.76-30-1.77c-10.42-1.7-17.05-5.18-20.08-14.87q-1.25-3.97.43-14.68 1.36-8.74 2.37-14.67c2.83-16.68 14.25-21.48 29.78-19.11q25.17 3.84 27.91 4.29 8.27 1.36 14.77 6.02c5.66 4.06 7.57 13.28 6.63 20.01q-2.73 19.67-7.63 50.79c-2.27 14.44-9.55 24.15-25.67 22.88q-4.25-.34-9.3-1.24-20.18-3.6-39.53-8.71a1.558 1.545 11.848 0 1-1.14-1.73l2.6-16.64a.888.883 10.791 0 1 1.08-.73q18.03 4.23 37.34 7.88 7.98 1.51 9.5-6.13.82-4.14 1.57-10.92m-21.831-21.403 20.835 2.928a4.01 4.01 60.61 0 0 4.529-3.413l1.8-12.804a7.54 7.34-82 0 0-6.219-8.488l-14.241-2.002a7.54 7.34-82 0 0-8.317 6.446l-1.8 12.804a4.01 4.01 21.686 0 0 3.413 4.529"></path><path fill="#e20612" fill-rule="evenodd" d="M606.555 847.893a7.08 7.08 0 0 1-4.483 8.952l-16.719 5.562a7.08 7.08 0 0 1-8.953-4.483l-14.715-44.237a7.08 7.08 0 0 1 4.483-8.953l16.719-5.561a7.08 7.08 0 0 1 8.953 4.483z"></path><path fill="#1e1d1b" fill-rule="evenodd" d="M489.2 877.65a.453.45 11.528 0 0 .44.66l44.28-3.55a.572.571 85.405 0 1 .61.52l1.46 18.25a.953.953 41.461 0 1-.88 1.02l-73.51 5.9a1.194 1.194 85.397 0 1-1.28-1.09l-1.91-23.9a3.245 3.242 67.539 0 1 1.14-2.75l45.17-38.15a2.261 2.257-19.595 0 0 .8-1.68c.13-5.7-.35-13.9-8.32-13.39q-13.12.83-39.46 3.01a.572.571-4.437 0 1-.62-.53l-1.48-18.42a.813.813 85.468 0 1 .75-.88q34.1-2.68 46.37-3.56 7.99-.57 14.71 2.18c10.73 4.4 13 16.82 13.35 27.72.35 11.15-5.77 18.24-13.94 25.13q-25.88 21.83-27 22.74-.47.38-.68.77"></path><path fill="#e20612" fill-rule="evenodd" d="M396.499 837.947a4.01 4.01 46.927 0 1-3.413-4.529l1.8-12.804a7.54 7.34-82 0 1 8.317-6.446l14.241 2.002a7.54 7.34-82 0 1 6.219 8.488l-1.8 12.804a4.01 4.01-42.5 0 1-4.529 3.413z" data-source="https://football-logos.cc"></path><!-- source: https://football-logos.cc --></svg>