<svg xmlns="http://www.w3.org/2000/svg" id="Layer_1" version="1.1" viewBox="0 0 141.74 141.74"><!-- Source: https://football-logos.cc --><defs data-source="https://football-logos.cc"><style>.st1{fill-rule:evenodd;fill:#007338}</style></defs><path d="M70.87 0c39.14 0 70.87 31.73 70.87 70.87s-31.73 70.87-70.87 70.87S0 110 0 70.87 31.73 0 70.87 0" style="fill-rule:evenodd;fill:#fff"></path><path d="M80.75 85.8h-5.73l-5.22-8.84 2.27-6.32 7.3-.49v.02s2.32 2.8 4.14 6.82c-.03 5.08-1.89 7.81-2.76 8.81m-25.84.33c.55 2.29 2.92 6.71 3.84 8.38 5.55.79 9.48.31 10.9.07.38-.55 2.77-4.07 4.01-8.25-1.14-1.54-5.06-6.85-5.86-8.1l-6.75-.05-6.13 7.94ZM49.3 70.31l-4.18 7.39c.21 1.53.93 5.29 3.21 8.05h5.98c.98-2.03 3.45-7.05 4.57-8.84l-2.23-6.04zm-3.53 24.3h1.36c-.28-.32-.43-.51-.43-.51l.32-7.72c-.65-1-2.58-3.78-2.79-7.83h-1.32c-.3 1.45-.46 2.95-.46 4.49 0 4.25 1.21 8.22 3.32 11.58Zm9.3 8.23c-.35-1-.6-2.32-.72-2.98l-.09.09c-2.83-1.26-5.02-3.16-6.3-4.45h-1.6c.74 1.07 1.58 2.06 2.49 2.98 1.79 1.79 3.89 3.27 6.22 4.36m17.72.33h-.02c.44-1.54.33-3.34.21-4.32l-2.59-3.22c-4.35.51-10.07.02-11.62-.13l-3.53 3.48c.03 1.82.8 3.75 1.08 4.39 2.47.97 5.16 1.5 7.98 1.5 3.01 0 5.88-.61 8.49-1.71Zm9.48-7.71h-1.21c-1.08 1.13-3.58 3.43-7.03 4.68a8.3 8.3 0 0 1-.14 2.53 21.9 21.9 0 0 0 8.39-7.21Zm3.33-17.3h-1.28c-.02.94-.26 3.77-2.41 7.9.15 1.1.64 5.38-.16 8.41l1.15.03a21.8 21.8 0 0 0 3.26-11.48c0-1.67-.19-3.3-.54-4.87ZM65.08 61.2l.44 3.58h.31l5.6 4.05c1.54-.05 6.7.28 7.93.36v-1.98a21.77 21.77 0 0 0-14.29-6.02ZM49.3 67.15v2.08l7.62-.36 6.17-4.09h.28l.37-3.59c-5.59.14-10.65 2.38-14.44 5.96m15-7.1c6.35 0 12.09 2.57 16.25 6.73s6.73 9.9 6.73 16.25-2.57 12.09-6.73 16.25-9.9 6.73-16.25 6.73-12.09-2.57-16.25-6.73-6.73-9.9-6.73-16.25 2.57-12.09 6.73-16.25 9.9-6.73 16.25-6.73" style="fill-rule:evenodd"></path><path d="M102.61 44.55v52.64c-.77.93-1.59 1.82-2.44 2.68V41.88c.85.86 1.67 1.75 2.44 2.68m-7.62-7.1v66.81c-.74.53-1.5 1.04-2.28 1.52V35.94c.78.48 1.54.99 2.28 1.52M64.27 57.57h.02V30.32c.6-.1 1.19-.18 1.8-.26v27.58c3.47.25 6.74 1.2 9.68 2.71V30.03c.98.11 1.96.26 2.92.44v31.64c1.63 1.15 3.13 2.48 4.44 3.97V31.57c1.34.41 2.66.89 3.94 1.44v39.1c1.5 3.22 2.34 6.81 2.34 10.6s-.84 7.38-2.34 10.6v15.41c-1.28.54-2.6 1.02-3.94 1.44V99.33a25.4 25.4 0 0 1-4.44 3.97v7.95c-.96.18-1.93.33-2.92.44v-6.62a24.9 24.9 0 0 1-9.68 2.71v3.89c-.6-.07-1.2-.16-1.8-.26v-3.56h-.02c-3.68 0-7.18-.79-10.33-2.21v2.61c-.74-.34-1.48-.7-2.19-1.09v-2.65c-7.54-4.34-12.62-12.48-12.62-21.81s5.08-17.47 12.62-21.81V34.55c.72-.38 1.45-.75 2.19-1.09v26.3c3.15-1.42 6.65-2.21 10.33-2.21Zm6.6-32.3c12.59 0 23.99 5.1 32.24 13.35s13.35 19.65 13.35 32.24-5.1 23.99-13.35 32.24a45.7 45.7 0 0 1-7.07 5.78l10.1 15.93c3.72-2.44 7.17-5.25 10.3-8.38 11.66-11.66 18.88-27.78 18.88-45.57s-7.21-33.91-18.88-45.57C104.78 13.63 88.66 6.41 70.87 6.41S36.96 13.62 25.3 25.29C13.64 36.95 6.42 53.07 6.42 70.86s7.21 33.91 18.88 45.57c3.11 3.11 6.54 5.9 10.23 8.33l10.45-15.7a46.3 46.3 0 0 1-7.35-5.96c-8.25-8.25-13.35-19.65-13.35-32.24s5.1-23.99 13.35-32.24 19.65-13.35 32.24-13.35m-18.9 100.98 1.52.63-.78 1.87-5.92-2.45.77-1.87 2.24.93 3.81-9.17-1.9-.79.78-1.88 1.28.53.83.34 1.92.79-4.57 11.05Zm10.47 3.03 2.43.26.47-4.45-2.43-.26zm3.41-10-2.22-.23-.41 3.92 2.22.23zm.71 5.12c.36.17.64.39.83.66s.26.61.22 1.05l-.36 3.42c-.08.73-.34 1.26-.8 1.58-.46.33-1.08.45-1.86.37l-2.16-.23c-.8-.08-1.4-.34-1.8-.76s-.57-.99-.49-1.71l.37-3.5c.07-.7.53-1.16 1.37-1.37l.03-.26c-.35-.17-.6-.38-.76-.61s-.22-.55-.18-.94l.31-2.97c.08-.74.35-1.28.81-1.61s1.09-.46 1.87-.38l2.08.22c1.56.16 2.27.99 2.11 2.47l-.32 2.99c-.04.39-.16.68-.37.88s-.5.34-.88.44l-.03.26Zm9.42-.35 1.08-.06 1.08-.06-.12-2.12-.12-2.12-1.08.06-1.08.06.12 2.12zm2.3 1.96-1.17.09-1.17.09c-.74.05-1.31-.1-1.7-.46s-.61-.91-.65-1.66l-.11-1.95-.11-1.95c-.04-.76.12-1.35.5-1.75s.96-.63 1.76-.67l1.08-.06 1.08-.06c.8-.05 1.41.11 1.83.47q.63.54.69 1.68l.28 4.94.28 4.94c.04.76-.12 1.35-.5 1.75s-.96.63-1.76.67l-1.08.06-1.08.06c-.8.05-1.41-.11-1.83-.47q-.63-.54-.69-1.68l-.07-1.2-.07-1.2 1.2-.07 1.2-.07.08 1.34.08 1.34 1.08-.06 1.08-.06-.21-4.06Zm12.05 1.44 2.29-.84-1.54-4.2-2.29.84zm-1.34-10.49-2.1.77 1.35 3.71 2.1-.77zm2.89 4.3c.4 0 .75.07 1.04.23.29.15.51.44.66.84l1.18 3.23c.25.69.24 1.28-.02 1.77-.27.49-.77.88-1.51 1.15l-2.04.75c-.75.27-1.4.31-1.95.11s-.95-.64-1.2-1.32l-1.21-3.3q-.36-.99.63-1.83l-.09-.25c-.39 0-.71-.07-.95-.21-.25-.14-.44-.4-.57-.77l-1.03-2.81c-.26-.7-.25-1.3.02-1.81.27-.5.78-.89 1.51-1.16l1.97-.72c1.48-.54 2.47-.11 2.98 1.29l1.03 2.83c.14.37.15.69.06.95-.1.27-.29.53-.59.78l.09.25ZM70.87 3.05c37.45 0 67.81 30.36 67.81 67.81s-30.36 67.81-67.81 67.81-67.82-30.35-67.82-67.8S33.41 3.05 70.87 3.05" class="st1" data-source="https://football-logos.cc"></path><path d="M112.06 108.17s-2.44-7.36-1.16-8.5c1.28-1.13 3.72-.87 4.24-.24 1.3 1.57-2.18 7.2-3.08 8.73m3.64-13.02s-2.57-1.88-3.38-1.11c-.62.59-.68 1.3.21 1.58.82.26 4.19 1.8 7.34 3.27-.82.11-1.95.42-3.09 1.26 0 0-.77-3.3-4.02-2.65-3.25.64-4.15 4.07-3.85 5.65.44 2.32 3.46 6.3 1.65 8.11-.86.86-3.03.06-3.41.91-.39.86.2 1.21 2.17.93.98-.14 1.56-.6 1.81-1.01.69-1.11-.16-2.62 3.54-3.59 2.61-.68 5.1-1.46 6.21-3.13s-.09-3.6-1.11-3.81c-1.03-.21-1.88-.21-1.54-1.11.25-.66 2.13-.82 3.13-.86 2.49 1.17 4.53 2.14 4.53 2.14s1.19-.21-.7-1.33c-1.88-1.11-7.77-4.52-7.77-4.52s-.24-2.31-1.35-2.29h-.36v1.56Zm-85.35 12.81s2.44-7.36 1.16-8.5c-1.28-1.13-3.72-.87-4.24-.24-1.3 1.57 2.18 7.2 3.08 8.73m-3.64-13.01s2.57-1.88 3.38-1.11c.62.59.68 1.3-.21 1.58-.82.26-4.19 1.8-7.34 3.27.82.11 1.95.42 3.09 1.26 0 0 .77-3.3 4.02-2.65 3.25.64 4.15 4.07 3.85 5.65-.44 2.32-3.46 6.3-1.65 8.11.86.86 3.03.06 3.41.91.39.86-.2 1.21-2.17.93-.98-.14-1.56-.6-1.81-1.01-.69-1.11.16-2.62-3.54-3.59-2.61-.68-5.1-1.46-6.21-3.13s.09-3.6 1.11-3.81c1.03-.21 1.88-.21 1.54-1.11-.25-.66-2.13-.82-3.13-.86-2.49 1.17-4.53 2.14-4.53 2.14s-1.19-.21.7-1.33c1.88-1.11 7.77-4.52 7.77-4.52s.24-2.31 1.35-2.29h.36v1.56Z" class="st1"></path><path d="m12.93 65.57-2.19-.08-.3 8.29 12.58.45.09-2.46-5.11-.18.18-4.96-2.19-.08-.18 4.96-3.09-.11zm8.83-11L21.19 57c.99.5 1.52 1.32 1.25 2.47-.15.65-.48 1.12-1 1.38-.65.37-1.23.35-3.6-.21s-2.9-.79-3.32-1.41c-.35-.46-.43-1.03-.28-1.68.27-1.15 1.11-1.65 2.22-1.66l.57-2.43c-2.59-.17-4.38 1.24-4.93 3.6-.31 1.31-.12 2.51.57 3.62.41.66.93 1.13 1.61 1.43.66.3 1.66.61 3 .92q2.01.465 3.09.51c.72.02 1.42-.16 2.08-.57 1.1-.68 1.81-1.68 2.12-2.99.55-2.34-.42-4.42-2.81-5.42Zm1.22-16.97-1.91-1.07-4.42 7.88 1.91 1.07 1.61-2.87 9.07 5.08 1.2-2.14-9.07-5.08zm16.16-2.94-12.57-4.64-1.25 1.47 6.63 11.63 1.66-1.95-1.21-2.02 2.89-3.41 2.18.88 1.66-1.95Zm-5.83.24-2.02 2.39-2.46-4.18 4.49 1.79Zm6.97-13.48-1.29-1.78-7.32 5.3 1.29 1.78 2.66-1.93 6.09 8.42 1.99-1.44-6.09-8.42 2.66-1.93Zm16.57 3.57-4.8-3.79c.93-.91 1.46-2.35.73-3.96-.87-1.92-2.97-2.88-5.31-1.83l-4.49 2.03 5.19 11.47 2.24-1.01-2.07-4.57 1.61-.73 4.31 3.56zm-6.31-6.73c.4.89.04 1.81-.94 2.25l-2.11.95-1.37-3.03 2.11-.95c.98-.44 1.91-.11 2.31.78m17.94 4.64-6.86-11.51-1.89.36-2.15 13.22 2.52-.48.33-2.33 4.39-.83 1.14 2.05zm-4.69-3.48-3.07.58.71-4.79zm15.93 4.44.96-12.55-2.45-.19-.59 7.68-4.39-8.06-2.19-.17-.96 12.55 2.45.19.59-7.7 4.38 8.08 2.19.17Zm18.59-2.31c.87-1.95.17-4.22-2.2-5.27l-4.46-1.98-5.11 11.5 2.25 1 1.92-4.33 2.21.98c2.37 1.06 4.52.06 5.39-1.9m-2.25-1c-.42.94-1.34 1.28-2.36.83l-2.1-.93L93 17.3l2.1.93c1.02.45 1.38 1.39.96 2.32m8.04 15.87 1.08-6.02c1.24.39 2.76.18 3.84-1.22 1.28-1.67 1.14-3.98-.89-5.54l-3.91-3-7.67 9.98 1.95 1.5 3.06-3.98 1.4 1.08-1.11 5.48 2.26 1.73Zm2.97-8.73c-.59.77-1.57.89-2.43.23l-1.84-1.41 2.02-2.64 1.84 1.41c.86.66 1 1.63.4 2.41Zm3.6 16.75 1.71-1.38-3.66-4.54 2.38-1.92 3.12 3.87 1.71-1.38-3.12-3.87 2.3-1.85 3.66 4.54 1.71-1.38-5.2-6.46-9.8 7.9 5.2 6.46Zm8.18 7.74c1-.49 1.69-1.17 1.97-2.05.21-.69.18-1.49-.19-2.59l-.46-1.43c-.16-.49-.17-.94-.07-1.27.11-.35.36-.59.65-.73.78-.38 1.71-.13 2.29 1.04.37.75.69 1.65.36 2.7l2.07.72c.46-1.43.29-2.74-.48-4.3-1.2-2.44-3.35-3.24-5.36-2.25-.95.47-1.55 1.1-1.82 1.9-.24.75-.19 1.61.14 2.65l.48 1.46c.18.56.19.87.09 1.19-.1.35-.38.62-.78.82-.9.44-1.74-.01-2.38-1.31-.51-1.05-.75-2.13-.39-3.2l-2.13-.73c-.58 1.66-.31 3.14.54 4.86 1.16 2.36 3.3 3.58 5.48 2.5Zm10.4-6.59-.79-1.6-2.08-.61.78-2.02-.79-1.6-1.65 3.41.81 1.65 3.71.78Zm-4.82 17.66c2.12-.49 3.66-.83 4.61-2.35.66-1.06.9-2.22.58-3.62-.32-1.39-1.05-2.35-2.11-3.01-1.53-.95-3.05-.57-5.17-.08s-3.66.81-4.61 2.33c-.66 1.06-.9 2.24-.58 3.63.32 1.4 1.05 2.33 2.11 3 1.53.95 3.06.58 5.17.09Zm-.55-2.39c-2.36.54-2.96.54-3.58.19-.48-.25-.86-.73-1.01-1.38s-.02-1.27.3-1.7c.41-.58.95-.84 3.31-1.38s2.96-.56 3.58-.21c.48.25.86.74 1.01 1.4.15.65.02 1.25-.3 1.68-.41.58-.95.85-3.31 1.4m7.41 14.45-.09-2.56-8.29-2.23 8.11-2.82-.09-2.54-12.43 4.61.07 1.84 12.73 3.71Z" style="fill:#007338" data-source="https://football-logos.cc"></path><!-- source: https://football-logos.cc --></svg>