<svg xmlns="http://www.w3.org/2000/svg" viewBox="0 0 311.83 319"><!-- Source: https://football-logos.cc --><path d="M692.735 501.334c-.158-.139-15.147-12.546-21.3-17.867a225.2 225.2 0 0 0 2.68-53.044c-2.343-40.597 9.786-79.547 9.925-79.924l2.918-9.171c.437-1.47 1.41-3.97 1.41-3.97s-4.864-1.609-8.794-2.978l-10.363-3.633-11.038-3.97 5.956-16.855 1.27-3.653-3.513-1.647-8.1-3.792a255.5 255.5 0 0 0-104.381-23.187 255.6 255.6 0 0 0-104.262 23.207l-8.1 3.791-3.494 1.648 1.27 3.653 5.956 16.854-26.204 9.112-3.97 1.39 1.27 3.97.159.477a204 204 0 0 1 7.107 25.926v.516l.198.457 3.693 8.238a19.4 19.4 0 0 0-4.249 2.144l-.595.338h-.1l-3.077 2.6-10.66-1.667h-.298a12.527 12.527 0 0 0-12.288 19.137l8.536 14.909a17.87 17.87 0 0 0 11.355 7.524c.338 0 6.115 1.866 13.182 4.149a11.34 11.34 0 0 0-8.655 8.516c-.894 4.11.595 9.807 7.404 13.46l.735.397c.476 56.876 20.447 96.6 57.868 114.942l24.815 11.912c14.492 6.948 28.17 13.479 35.515 17.568l4.804 2.66 1.985 1.172 1.986-1.171 4.824-2.66c7.325-4.09 21.003-10.621 35.495-17.57l24.795-11.91c22.214-10.88 38.274-29.183 47.803-54.395h37.421Z" class="cls-1" style="fill:#fff;stroke-width:1.98519" transform="translate(-389.8 -277.643)" data-source="https://football-logos.cc"></path><path d="M666.73 485.055a217.2 217.2 0 0 0 3.037-54.433c-2.402-41.55 9.926-81.076 10.104-81.393l2.938-9.231-30.174-10.581 7.305-20.904-8.1-3.792a251.2 251.2 0 0 0-102.435-22.79 251.2 251.2 0 0 0-102.436 22.79l-8.12 3.792 7.306 20.904-30.175 10.58a212 212 0 0 1 7.365 26.94l6.174 13.777a16 16 0 0 0-1.826-.159 11 11 0 0 0-1.688 0 11.9 11.9 0 0 0-4.903 1.985l-.357.258-4.328 3.415a8 8 0 0 1-1.211 0c-.596 0-11.534-1.807-11.534-1.807a8.74 8.74 0 0 0-8.318 3.732 8.62 8.62 0 0 0 .12 9.013l8.535 14.949a13.7 13.7 0 0 0 8.815 5.598c.218 0 7.94 2.442 16.516 5.221q0 3.395-.238 6.79h-1.23a7.62 7.62 0 0 0-7.505 5.617c-.258 1.27-.675 5.618 5.261 8.795.695.357 1.707.933 2.978 1.667 0 56.539 18.919 95.667 55.585 113.593l24.795 11.911c14.532 6.968 28.27 13.539 35.734 17.688l4.824 2.66 4.804-2.66c7.444-4.149 21.182-10.72 35.733-17.688l24.775-11.911c22.076-10.82 37.719-29.38 46.712-54.811h28.507s-18.978-15.524-23.346-19.515" class="cls-1" style="fill:#fff;stroke-width:1.98519" transform="translate(-389.8 -277.643)"></path><path d="M666.73 485.055a217.2 217.2 0 0 0 3.037-54.433c-2.402-41.55 9.926-81.076 10.104-81.393l2.938-9.231-30.174-10.581 7.305-20.904-8.1-3.792a251.2 251.2 0 0 0-102.435-22.79 251.2 251.2 0 0 0-102.436 22.79l-8.12 3.792 7.306 20.904-30.175 10.58a212 212 0 0 1 7.365 26.94l6.174 13.777a16 16 0 0 0-1.826-.159 11 11 0 0 0-1.688 0 11.9 11.9 0 0 0-4.903 1.985l-.357.258-4.328 3.415a8 8 0 0 1-1.211 0c-.596 0-11.534-1.807-11.534-1.807a8.74 8.74 0 0 0-8.318 3.732 8.62 8.62 0 0 0 .12 9.013l8.535 14.949a13.7 13.7 0 0 0 8.815 5.598c.218 0 7.94 2.442 16.516 5.221q0 3.395-.238 6.79h-1.23a7.62 7.62 0 0 0-7.505 5.617c-.258 1.27-.675 5.618 5.261 8.795.695.357 1.707.933 2.978 1.667 0 56.539 18.919 95.667 55.585 113.593l24.795 11.911c14.532 6.968 28.27 13.539 35.734 17.688l4.824 2.66 4.804-2.66c7.444-4.149 21.182-10.72 35.733-17.688l24.775-11.911c22.076-10.82 37.719-29.38 46.712-54.811h28.507s-18.978-15.524-23.346-19.515m-6.512 17.867-.596 1.648c-8.834 24.735-24.16 42.76-45.659 53.302l-24.775 11.911c-14.571 6.988-28.309 13.579-35.734 17.728l-3.97 2.223-3.97-2.223c-7.504-4.15-21.262-10.74-35.833-17.728l-24.755-11.91c-35.734-17.51-54.434-55.765-54.573-111.171v-1.986l-3.97-2.223c-4.924-2.62-4.626-5.956-4.408-6.968a5.956 5.956 0 0 1 5.956-4.328h2.76c0-.178.317-8.933.317-9.489-.556-.199-17.35-5.539-17.767-5.658a12.13 12.13 0 0 1-7.802-4.705l-8.497-14.908a6.97 6.97 0 0 1-.159-7.306 7.13 7.13 0 0 1 6.79-2.978h.198l11.296 1.767a6.3 6.3 0 0 0 2.104-.119h.12l4.506-3.534h.119a9.9 9.9 0 0 1 4.288-1.786 9.4 9.4 0 0 1 1.687 0 14 14 0 0 1 1.985.218c.596 0 2.442.516 2.66.576l-7.364-16.08a225 225 0 0 0-7.068-25.808l30.215-10.58-7.345-21.044 6.73-3.156a249.3 249.3 0 0 1 101.72-22.631 249.4 249.4 0 0 1 101.622 22.273l6.73 3.157-2.461 7.008-4.904 14.035 30.215 10.58-2.422 7.624a266.7 266.7 0 0 0-10.323 62.037l-.14 4.864q-.138 7.464.259 15.167a215.8 215.8 0 0 1-2.82 52.965c-.118.655-.257 1.29-.376 1.985l20.407 17.39z" class="cls-2" style="fill:#008e5c;stroke-width:1.98519" transform="translate(-389.8 -277.643)"></path><path d="m645.706 332.732 7.465-21.36-3.653-1.708a245.1 245.1 0 0 0-100.113-22.294 245.2 245.2 0 0 0-100.133 22.294l-3.653 1.707 1.33 3.792 6.154 17.569-26.224 9.132-4.13 1.508 1.33 4.13c0 .158 2.343 7.444 4.785 18.998.139.695.298 1.41.437 2.144l5.122 2.839c-.14-.715-.259-1.41-.397-2.105a235 235 0 0 0-5.718-23.246l30.433-10.66-7.623-21.838a242.5 242.5 0 0 1 98.247-21.837 242.35 242.35 0 0 1 98.227 21.837l-7.603 21.837 30.413 10.66a271 271 0 0 0-10.184 55.586c0 .596 0 1.211-.139 1.827a21.7 21.7 0 0 1 4.248 3.712c0-.735 0-1.489.14-2.224a270.4 270.4 0 0 1 10.183-57.57l1.31-4.13zM664.327 430.94a230 230 0 0 1-.317-9.708v-2.224a14.9 14.9 0 0 1-4.447 3.077v1.807c0 2.422.139 4.844.278 7.305a218.4 218.4 0 0 1-1.767 45.66c-.1.655-.199 1.33-.318 1.985 1.251 1.23 2.541 2.461 3.832 3.692l.357-1.985a215.4 215.4 0 0 0 2.382-49.61M651.543 502.982c-.199.556-.417 1.092-.616 1.647-7.345 18.999-19.852 35.734-40.557 45.918-23.227 11.395-49.094 23.266-60.965 29.778-11.911-6.611-37.719-18.483-60.965-29.778-39.05-19.137-49.054-61.78-49.809-98.744v-1.985l-4.605-2.74v1.986c.635 52.588 18.501 88.877 52.448 105.493l24.736 11.911c14.61 7.008 28.428 13.618 36.03 17.867l2.165 1.21 2.164-1.21c7.583-4.209 21.4-10.82 36.01-17.867l24.736-11.911c20.19-9.926 34.721-26.78 43.297-49.928.199-.555.397-1.091.576-1.647zM434.76 423.038v1.688c0 1.627-.1 3.295-.179 4.943v1.528l4.467-.119v-1.31c0-1.171.12-2.323.159-3.474v-1.608z" class="cls-2" style="fill:#008e5c;stroke-width:1.98519" transform="translate(-389.8 -277.643)"></path><path d="m632.564 502.982-.675-.477c-22.115-15.266-55.089-29.44-76.906-37.063-1.33.198-2.6.417-3.772.635 7.941 10.204 21.5 28.646 24.021 32.914l2.343 3.97h-29.917l-.794-1.012a253 253 0 0 0-45.441-43.297l-17.271-2.402 16.199 12.844-9.073-.972-21.837-2.343a26.4 26.4 0 0 1-11.91-4.248c-2.641-1.648-8.14-5.042-13.897-8.536l-1.985-1.172v1.986a161 161 0 0 0 6.59 42.502c7.544 24.28 21.5 41.55 41.451 51.337l24.656 11.912c13.897 6.61 26.86 12.864 34.88 17.191 7.94-4.327 21.083-10.58 34.86-17.191l24.676-11.912c17.589-8.635 30.512-23.087 38.493-43.019l.655-1.647zm-24.457 42.979-24.656 11.911c-13.32 6.373-25.947 12.427-34.046 16.755-8.12-4.328-20.746-10.382-34.066-16.755l-24.656-11.911a97 97 0 0 1-3.176-1.668 73 73 0 0 1-10.502-7.027c-12.288-9.926-21.281-23.822-26.8-41.51a158.7 158.7 0 0 1-6.452-40.737l12.924 7.941a27.8 27.8 0 0 0 12.586 4.507l36.587 3.97-15.882-12.606 10.82 1.509a255.7 255.7 0 0 1 41.887 39.168q1.529 1.786 2.918 3.573l1.29 1.628h33.61l-3.792-6.492c-.496-.834-1.37-2.164-2.521-3.831-1.707-2.482-3.97-5.737-6.61-9.271a936 936 0 0 0-13.341-17.867h.635c7.623 2.66 16.636 6.154 26.066 10.204a416 416 0 0 1 12.744 5.737 268.6 268.6 0 0 1 37.322 20.765l1.092.775h13.36c-7.881 19.038-20.388 32.914-37.341 41.232M656.645 431.376c-.12-2.104-.199-4.189-.258-6.273v-1.727c-.596.198-1.211.397-1.867.575a121.3 121.3 0 0 1-23.325 3.276c-1.827.119-10.78.159-16.755.119a345 345 0 0 0 38.949 47.089l1.648 1.647c.119-.675.218-1.35.317-1.985a217 217 0 0 0 1.29-42.721m-3.058 40.994a348 348 0 0 1-14.352-15.584q-3.97-4.546-7.405-8.794a316 316 0 0 1-14.313-18.978c5.499 0 12.11 0 13.697-.14a124 124 0 0 0 23.306-3.196c0 1.986.14 3.852.259 5.797 0 1.072.099 2.124.158 3.176q.298 6.611.278 12.924a199 199 0 0 1-1.628 24.795M635.9 337.457l7.702-22.056a242.2 242.2 0 0 0-94.197-20.348 242.2 242.2 0 0 0-94.217 20.348l7.702 22.056-30.552 10.72c1.211 4.169 3.395 12.407 5.44 23.226.138.675.258 1.37.377 2.085.714.357 1.41.754 2.104 1.111 46.414 24.28 91.537 34.126 132.57 38.394-6.51-1.727-11.771-3.97-14.392-6.849a7.05 7.05 0 0 1-1.985-5.201c.695-13.638 43.476-12.15 45.282-12.09 19.296.755 40.756 5.44 53.6 11.911.616.318 1.231.636 1.807.973 0-.596 0-1.171.139-1.767a280 280 0 0 1 9.31-51.734zm19.434 61.54c-13.757-6.73-35.971-11.117-53.6-11.792a166 166 0 0 0-23.326.914c-15.365 1.846-23.326 6.134-23.663 12.725a8.68 8.68 0 0 0 2.481 6.412 15.6 15.6 0 0 0 3.256 2.62 368.6 368.6 0 0 1-79.725-19.117 330 330 0 0 1-40.855-18.224c-1.985-10.264-3.97-18.383-5.261-23.167l30.651-10.76-7.762-22.194a240.5 240.5 0 0 1 91.875-19.475 242.6 242.6 0 0 1 72.896 12.189c6.213 1.985 12.566 4.486 18.958 7.286l-7.762 22.194 30.671 10.76a280.4 280.4 0 0 0-8.834 49.63M444.25 426.532l-1.867-.715v1.529l-.119 2.362v1.251h12.527c-3.633-1.568-7.068-3.037-10.542-4.427m-.14 3.176v-1.687c1.668.615 3.157 1.191 4.388 1.687z" class="cls-2" style="fill:#008e5c;stroke-width:1.98519" transform="translate(-389.8 -277.643)"></path><path d="M425.45 390.858c1.608-1.31 3.136-.754 5.2-.258s11.693 2.998 16.617 4.526l-5.221-10.958a418.9 418.9 0 0 0 157.723 39.565c15.663 24.914 43.059 54.196 70.256 76.608h7.841a347 347 0 0 1-68.509-75.695c2.402.12 19.118.12 21.54 0 25.132-1.727 33.232-5.36 32.954-12.288-.338-8.735-31.207-19.594-62.295-20.805-14.81-.556-42.126 1.41-42.543 9.588-.417 8.18 25.51 12.884 47.645 13.738 16.238.615 28.944-2.204 29.777-5.817s-8.715-8.596-19.077-7.543c4.07.893 6.65 2.74 6.59 4.427-.138 4.208-12.526 3.494-19.335 3.235-16.735-.595-31.029-4.764-30.81-7.722.258-3.295 10.998-5.36 26.8-4.844 31.763 1.052 48.935 8.636 48.597 14.254-.337 5.618-18.76 8.238-35.158 7.623-47.207-1.807-114.942-7.583-184.027-46.414l7.524 15.028s-5.28-1.509-8.08-1.985a6.79 6.79 0 0 0-5.955 1.23l-4.506 3.554c-.854.913-3.335.854-4.17.755-.833-.1-11.394-1.787-11.394-1.787-3.97-.357-6.115 2.859-4.11 6.333l8.537 14.928c1.548 2.561 5.141 3.137 7.444 3.97 18.661 5.956 34.523 10.661 51.159 20.23a343 343 0 0 0-38.196-.12c-4.109.298-5.36 3.773-.516 6.353 4.844 2.581 25.173 15.068 31.307 18.92a23.94 23.94 0 0 0 10.74 3.97l21.837 2.342-7.941-6.233c-1.37-.199-11.673-1.33-13.043-1.49a13.7 13.7 0 0 1-6.471-2.143c-1.211-.894-20.368-12.785-24.537-15.167-1.608-.913-1.072-1.767 1.707-1.767 10.065 0 29.778 1.41 38.513 2.56a104 104 0 0 1 11.692 7.525 278 278 0 0 0-28.21-2.363l7.942 5.738c6.908.615 23.127 2.402 31.246 3.97a255.7 255.7 0 0 1 46.394 44.13h8.2a265.9 265.9 0 0 0-55.924-51.396c-30.552-20.685-43.793-26.641-85.363-39.704a7.29 7.29 0 0 1-4.824-2.977l-5.558-9.926c-1.43-2.502-.755-2.859 1.469-2.422 1.39.258 5.955.972 8.159 1.548 3.732 1.013 4.923-.278 5.777-.992z" class="cls-2" style="fill:#008e5c;stroke-width:1.98519" transform="translate(-389.8 -277.643)" data-source="https://football-logos.cc"></path><path d="M651.424 500.302h7.94c-15.782-14.631-51.853-36.826-72.995-45.918-14.611-.159-39.525 2.899-50.88 6.234a283.7 283.7 0 0 1 29.777 39.704h7.743c-2.76-4.686-19.475-27.396-26.503-35.972 2.62-.616 5.618-1.171 8.775-1.628 23.088 7.94 56.34 22.512 78.177 37.58h8.06c-12.408-9.787-41.193-26.364-72.996-39.109 5.618-.456 11.058-1.23 14.472-1.111 20.567 8.218 55.09 29.281 68.43 40.22" class="cls-2" style="fill:#008e5c;stroke-width:1.98519" transform="translate(-389.8 -277.643)"></path><path d="m546.844 504.65-1.29-1.629q-1.39-1.786-2.919-3.573l-65.63 37.818a73 73 0 0 0 10.502 7.087l68.766-39.704zM567.53 485.055c2.58 3.534 4.903 6.79 6.61 9.271l19.495-11.236c-4.268-1.985-8.537-3.97-12.745-5.737zM639.235 456.786l15.881-9.211q0-6.313-.278-12.924l-23.107 13.34q3.553 4.23 7.504 8.795M549.405 296.939a240.5 240.5 0 0 0-91.875 19.475l7.762 22.194-30.631 10.76c1.33 4.784 3.375 12.903 5.26 23.167a330 330 0 0 0 40.856 18.224l141.544-81.631a242.6 242.6 0 0 0-72.916-12.19" class="cls-3" style="fill:#d60f3c;stroke-width:1.98519" transform="translate(-389.8 -277.643)"></path><path d="m576.661 498.158 3.792 6.491h-24.18l-68.766 39.704a97 97 0 0 0 3.176 1.668l24.656 11.91c13.32 6.373 25.946 12.428 34.066 16.756 8.1-4.328 20.725-10.383 34.046-16.755l24.656-11.911c16.953-8.318 29.46-22.195 37.301-41.332h-13.36l-1.092-.774a268.6 268.6 0 0 0-37.321-20.765l-19.495 11.236c1.152 1.608 2.025 2.938 2.521 3.772M653.587 472.37a199 199 0 0 0 1.628-24.795l-15.881 9.211c4.228 5.003 9.013 10.145 14.253 15.584" class="cls-2" style="fill:#008e5c;stroke-width:1.98519" transform="translate(-389.8 -277.643)"></path><path d="m500.748 460.26-10.82-1.508 15.882 12.606-36.587-3.97a27.8 27.8 0 0 1-12.546-4.428l-12.924-7.94a158.7 158.7 0 0 0 6.452 40.775c5.519 17.728 14.512 31.644 26.8 41.51l65.63-37.837a255.7 255.7 0 0 0-41.887-39.208M554.824 467.149h-.635c3.97 5.122 9.013 11.911 13.34 17.867l13.36-7.703c-9.429-4.01-18.442-7.504-26.065-10.164M654.52 425.678a124 124 0 0 1-23.326 3.197c-1.588.119-8.198.158-13.697.139 3.613 5.18 8.397 11.672 14.313 18.978l23.207-13.34c0-1.053-.1-2.105-.16-3.177-.198-1.945-.277-3.871-.337-5.797M557.226 407.256a8.68 8.68 0 0 1-2.481-6.412c.337-6.591 8.298-10.88 23.663-12.725a166 166 0 0 1 23.326-.914c17.629.675 39.843 5.063 53.6 11.792a280.4 280.4 0 0 1 8.834-49.63l-30.67-10.759 7.761-22.194a221 221 0 0 0-18.958-7.286l-141.544 81.63a368.6 368.6 0 0 0 79.725 19.118 15.6 15.6 0 0 1-3.256-2.62M444.11 429.708v-1.687c1.668.615 3.157 1.191 4.388 1.687z" class="cls-4" style="fill:#fd0;stroke-width:1.98519" transform="translate(-389.8 -277.643)" data-source="https://football-logos.cc"></path><!-- source: https://football-logos.cc --></svg>