<svg xmlns="http://www.w3.org/2000/svg" style="fill-rule:evenodd" viewBox="0.75 0.75 243.29 187.5"><!-- Source: https://football-logos.cc --><path d="M129.089 214.03c2.177 12.652.969 26.363-4.534 38.054-2.08 4.419-4.807 8.419-8.019 11.977 6.869-.618 13.857-.034 21.106 1.225l8.248 1.433v-54.525h302.056v53.549c8.925-1.473 17.969-2.602 26.916-2.126-2.861-3.003-5.355-6.552-7.373-10.859-7.72-16.478-5.764-31.903-2.806-48.915l3.05 1.619q.194-1.15.395-2.308c15.465 8.213 30.643 15.921 39.082 32.387 1.262 2.462 2.288 5.121 3.101 7.9 3.358-4.469 7.326-8.499 11.813-12.015l9.221-7.226 1.32 3.631 4.193-3.286 4.002 11.01c4.752 13.077 6.961 25.561 3.324 39.215a41 41 0 0 1-.97 3.123q.378-.205.759-.405l10.372-5.446.609 3.608 4.904-2.575 1.951 11.551c2.295 13.579 2.233 26.187-3.638 38.831l10.213-3.404.147 3.598 5.711-1.904.46 11.283c.569 13.96-1.235 26.763-9.173 38.553q-.697 1.035-1.44 2.021.342-.056.684-.11l11.161-1.717-.467 3.623 5.635-.867-1.444 11.2c-1.788 13.856-5.721 26.173-15.529 36.46l-.237.246 10.999-.237-.855 3.223 5.651-.123-2.896 10.916c-3.584 13.502-9.093 25.2-20.161 34.116a47 47 0 0 1-4.504 3.21l10.822 2.546-1.751 3.115 7.264 1.708-5.532 9.845c-6.844 12.179-15.102 22.129-28.047 27.996a47.6 47.6 0 0 1-8.027 2.796q.623.32 1.239.652l9.933 5.372-1.2 1.221 6.024 3.258-7.917 8.054c-9.794 9.963-20.369 17.403-34.399 19.677a48 48 0 0 1-9.129.581 62 62 0 0 1 8.188 5.994l8.537 7.393-9.472 6.151c-11.716 7.609-23.649 12.587-37.839 11.773a48.4 48.4 0 0 1-10.821-1.889 62 62 0 0 1 6.717 8.054l6.474 9.253-10.686 3.654c-12.091 4.134-23.823 6.089-36.116 3.137-38.865 16.401-83.803 26.495-126.58 25.453-35.671-.869-73.295-8.875-109.029-25.631-14.399 3.58-30.116.079-48.411-6.212a437 437 0 0 1 2.63-3.71 272 272 0 0 1-4.353-1.458c2.633-3.75 5.198-7.335 7.877-10.678a54 54 0 0 1-4.447.432c-18.494 1.029-32.64-8.463-47.28-18.005l3.293-2.577c-1.326-.858-2.651-1.725-3.981-2.592l8.548-6.689a62 62 0 0 1 1.85-1.536 46 46 0 0 1-3.151-.406c-18.28-2.995-29.004-16.009-41.233-28.492q1.212-.653 2.407-1.287a498 498 0 0 0-3.096-3.192c4.58-2.467 8.976-4.748 13.385-6.643a47 47 0 0 1-5.206-2.005c-16.858-7.676-28.424-26.785-33.168-42.034 6.299-1.272 12.516-1.906 18.7-1.788a52 52 0 0 1-7.382-4.981c-14.404-11.646-19.56-32.998-21.945-47.829 5.817.136 11.301.721 16.565 1.884a48 48 0 0 1-1.319-1.333c-13.638-14.354-15.006-32.002-16.889-50.445 6.579 1.024 12.926 2.552 18.964 4.816a47 47 0 0 1-3.388-4.452c-7.838-11.685-9.343-26.225-8.76-39.946l.504-11.829 11.044 4.266a61 61 0 0 1 7.49 3.491 43 43 0 0 1-2.674-4.815c-5.997-12.744-6.061-26.212-3.73-39.867l1.973-11.547 10.362 5.463a60 60 0 0 1 8.581 5.507c-1.39-2.805-2.51-5.677-3.273-8.56-3.613-13.66-1.382-26.141 3.393-39.21l4.02-11.003 9.21 7.242c6.431 5.059 11.793 11.175 15.814 18.126.893-5.099 2.39-10.013 4.606-14.319 6.56-12.745 15.843-20.871 28.438-27.532l10.355-5.477zm16.801 60.564v-1.098l-.698 1.313z" style="fill:#2a3c6a;stroke:none" transform="matrix(.42913 0 0 .42913 -5.332 -86.143)" data-source="https://football-logos.cc"></path><path d="M474.444 216.16c13.932 7.368 20.763 14.598 25.201 23.221 3.555 6.906 5.888 18.702 4.108 31.778-10.646-4.449-20.149-12.14-25.116-22.692-4.265-9.063-6.293-20.102-4.193-32.307" style="fill:#fff;stroke:none" transform="matrix(.42913 0 0 .42913 -5.332 -86.143)"></path><path d="M474.444 216.16c13.932 7.368 20.763 14.598 25.201 23.221 3.555 6.906 5.888 18.702 4.108 31.778-10.646-4.449-20.149-12.14-25.116-22.692-4.265-9.063-6.293-20.102-4.193-32.307M532.869 238.364c5.41 14.803 5.64 24.747 3.16 34.122-1.987 7.509-8.156 17.831-18.235 26.348-4.926-10.434-6.83-22.51-3.45-33.672 2.903-9.587 8.79-19.142 18.525-26.798M459.318 273.655c15.528-2.697 25.354-1.159 34.141 2.945 7.038 3.287 16.101 11.19 22.694 22.621-11.142 2.996-23.364 2.727-33.75-2.579-8.92-4.559-17.278-12.048-23.085-22.987M475.023 307.251c15.758.194 25.137 3.508 33.022 9.153 6.316 4.521 13.778 13.951 18.164 26.397-11.502.903-23.468-1.602-32.705-8.722-7.934-6.115-14.778-15.01-18.481-26.828M485.959 344.814c15.595 2.274 24.454 6.797 31.525 13.434 5.663 5.316 11.814 15.648 14.518 28.564-11.521-.623-23.051-4.686-31.267-12.964-7.056-7.11-12.666-16.83-14.776-29.034M489.958 381.723c15.032 4.737 23.054 10.617 28.973 18.299 4.741 6.152 9.162 17.335 9.767 30.517-11.273-2.457-22.006-8.31-28.793-17.794-5.83-8.146-9.814-18.638-9.947-31.022M553.51 285.914c2.653 15.535 1.087 25.357-3.042 34.132-3.308 7.028-11.236 16.069-22.686 22.63-2.964-11.151-2.66-23.372 2.676-33.743 4.583-8.907 12.097-17.244 23.052-23.019M566.375 334.288c.67 15.746-2.273 25.424-7.673 33.476-4.857 7.241-12.485 13.328-24.671 18.39-1.533-11.436.312-23.523 6.915-33.135 5.671-8.255 14.521-15.074 25.429-18.731M571.482 385.018c-1.989 15.634-6.518 24.679-13.196 31.707-6.006 6.321-14.549 11.038-27.414 13.977.414-11.53 4.266-23.134 12.392-31.498 6.979-7.184 16.85-12.417 28.218-14.186M569.977 433.882c-4.016 15.24-9.688 23.615-17.227 29.711-6.781 5.481-15.868 9.041-29.006 10.274 1.917-11.378 7.253-22.379 16.402-29.609 7.859-6.21 18.329-10.107 29.831-10.376M490.182 421.849c-.844 15.737 1.991 25.448 7.302 33.558 4.776 7.295 12.337 13.466 24.466 18.663 1.659-11.418-.052-23.525-6.547-33.209-5.58-8.318-14.354-15.234-25.221-19.012M483.043 454.145c-4.955 14.961-4.43 25.765-1.44 34.986 2.688 8.294 8.359 15.893 18.694 24.098 3.915-10.924 5.795-22.71 2.076-33.762-3.195-9.492-9.839-18.818-19.33-25.322M467.711 484.41c-8.655 13.171-10.942 23.743-10.438 33.424.452 8.707 3.965 17.514 11.827 28.112 6.607-9.54 11.47-20.439 10.735-32.076-.631-9.995-4.638-20.723-12.124-29.46M444.373 510.782c-11.218 11.069-15.665 20.93-17.197 30.502-1.378 8.609.216 17.956 5.688 29.964 8.455-7.948 15.49-17.589 17.205-29.123 1.473-9.906-.203-21.235-5.696-31.343M416.174 530.547c-13.604 7.956-20.349 16.413-24.197 25.31-3.462 8.002-4.226 17.453-1.89 30.44 10.157-5.613 19.355-13.218 23.866-23.971 3.873-9.235 5.048-20.626 2.221-31.779M556.481 486.464c-7.697 13.753-15.283 20.445-24.106 24.463-7.936 3.612-17.624 4.788-30.653 2.698 4.7-10.537 12.616-19.855 23.281-24.57 9.161-4.048 20.274-5.205 31.478-2.591M530.449 534.596c-11.029 11.258-20.103 15.73-29.67 17.298-8.604 1.409-18.262.007-30.29-5.421 7.294-8.939 17.374-15.86 28.902-17.617 9.901-1.509 20.929.283 31.058 5.74M494.612 573.816c-13.203 8.607-23.029 11.012-32.708 10.474-8.706-.485-17.833-3.942-28.402-11.843 9.055-7.15 20.392-11.728 32.028-10.951 9.993.668 20.372 4.803 29.082 12.32M450.387 603.824c-14.904 5.125-25.019 5.059-34.275 2.176-8.324-2.595-16.331-8.174-24.653-18.415 10.526-4.725 22.637-6.398 33.731-2.805 9.529 3.086 18.585 9.629 25.197 19.044M121.062 216.16c-13.931 7.368-20.762 14.598-25.2 23.221-3.555 6.906-5.888 18.702-4.108 31.778 10.646-4.449 20.148-12.14 25.115-22.692 4.266-9.063 6.294-20.102 4.193-32.307" style="fill:#fff;stroke:none" transform="matrix(.42913 0 0 .42913 -5.332 -86.143)"></path><path d="M121.062 216.16c-13.931 7.368-20.762 14.598-25.2 23.221-3.555 6.906-5.888 18.702-4.108 31.778 10.646-4.449 20.148-12.14 25.115-22.692 4.266-9.063 6.294-20.102 4.193-32.307M62.637 238.364c-5.41 14.803-5.64 24.747-3.16 34.122 1.987 7.509 8.156 17.831 18.236 26.348 4.925-10.434 6.83-22.51 3.45-33.672-2.903-9.587-8.79-19.142-18.526-26.798M136.188 273.655c-15.527-2.697-25.354-1.159-34.141 2.945-7.037 3.287-16.1 11.19-22.694 22.621 11.143 2.996 23.365 2.727 33.75-2.579 8.92-4.559 17.278-12.048 23.085-22.987M120.484 307.251c-15.759.194-25.137 3.508-33.023 9.153-6.316 4.521-13.777 13.951-18.164 26.397 11.503.903 23.469-1.602 32.706-8.722 7.933-6.115 14.777-15.01 18.481-26.828M109.548 344.814c-15.595 2.274-24.454 6.797-31.525 13.434-5.664 5.316-11.815 15.648-14.519 28.564 11.521-.623 23.052-4.686 31.267-12.964 7.057-7.11 12.666-16.83 14.777-29.034M105.548 381.723c-15.031 4.737-23.053 10.617-28.972 18.299-4.742 6.152-9.162 17.335-9.768 30.517 11.274-2.457 22.007-8.31 28.794-17.794 5.829-8.146 9.813-18.638 9.946-31.022M41.997 285.914c-2.653 15.535-1.087 25.357 3.042 34.132 3.307 7.028 11.236 16.069 22.685 22.63 2.964-11.151 2.66-23.372-2.675-33.743-4.584-8.907-12.097-17.244-23.052-23.019M29.131 334.288c-.67 15.746 2.273 25.424 7.673 33.476 4.857 7.241 12.486 13.328 24.672 18.39 1.532-11.436-.313-23.523-6.915-33.135-5.671-8.255-14.522-15.074-25.43-18.731M24.024 385.018c1.99 15.634 6.519 24.679 13.196 31.707 6.006 6.321 14.55 11.038 27.414 13.977-.413-11.53-4.266-23.134-12.391-31.498-6.98-7.184-16.85-12.417-28.219-14.186M25.53 433.882c4.015 15.24 9.688 23.615 17.227 29.711 6.78 5.481 15.867 9.041 29.005 10.274-1.917-11.378-7.252-22.379-16.402-29.609-7.858-6.21-18.329-10.107-29.83-10.376M105.324 421.849c.845 15.737-1.991 25.448-7.301 33.558-4.777 7.295-12.337 13.466-24.467 18.663-1.659-11.418.052-23.525 6.548-33.209 5.58-8.318 14.354-15.234 25.22-19.012M112.463 454.145c4.955 14.961 4.431 25.765 1.441 34.986-2.689 8.294-8.359 15.893-18.694 24.098-3.916-10.924-5.795-22.71-2.076-33.762 3.194-9.492 9.839-18.818 19.329-25.322M127.795 484.41c8.656 13.171 10.943 23.743 10.439 33.424-.453 8.707-3.965 17.514-11.827 28.112-6.607-9.54-11.471-20.439-10.736-32.076.632-9.995 4.639-20.723 12.124-29.46M151.133 510.782c11.218 11.069 15.665 20.93 17.197 30.502 1.378 8.609-.215 17.956-5.687 29.964-8.456-7.948-15.491-17.589-17.206-29.123-1.472-9.906.203-21.235 5.696-31.343M179.332 530.547c13.604 7.956 20.349 16.413 24.198 25.31 3.462 8.002 4.226 17.453 1.889 30.44-10.156-5.613-19.355-13.218-23.865-23.971-3.874-9.235-5.048-20.626-2.222-31.779M39.026 486.464c7.697 13.753 15.282 20.445 24.105 24.463 7.936 3.612 17.624 4.788 30.654 2.698-4.7-10.537-12.616-19.855-23.282-24.57-9.16-4.048-20.273-5.205-31.477-2.591M65.058 534.596c11.029 11.258 20.102 15.73 29.67 17.298 8.604 1.409 18.262.007 30.29-5.421-7.295-8.939-17.374-15.86-28.902-17.617-9.902-1.509-20.93.283-31.058 5.74M100.895 573.816c13.202 8.607 23.028 11.012 32.708 10.474 8.706-.485 17.832-3.942 28.402-11.843-9.055-7.15-20.393-11.728-32.028-10.951-9.993.668-20.373 4.803-29.082 12.32M145.12 603.824c14.903 5.125 25.019 5.059 34.275 2.176 8.324-2.595 16.331-8.174 24.653-18.415-10.526-4.725-22.638-6.398-33.732-2.805-9.528 3.086-18.585 9.629-25.196 19.044" style="fill:#fff;stroke:none" transform="matrix(.42913 0 0 .42913 -5.332 -86.143)"></path><path d="M476.281 220.782c8.505 4.932 15.596 10.84 20.278 19.935 3.785 7.355 4.82 17.459 4.216 26.081-8.478-4.295-15.898-10.889-19.987-19.574-3.916-8.322-5.366-17.381-4.507-26.442M531.011 243.355c3.012 9.359 4.32 18.495 1.704 28.384-2.115 7.998-8.114 16.194-14.338 22.191-3.419-8.868-4.511-18.734-1.73-27.922 2.666-8.802 7.657-16.5 14.364-22.653M463.496 275.887c9.745-1.304 18.969-.97 28.237 3.359 7.495 3.5 14.496 10.859 19.294 18.048-9.334 1.791-19.237 1.116-27.786-3.252-8.189-4.186-14.88-10.463-19.745-18.155M478.713 310.301c9.818.504 18.825 2.522 27.142 8.477 6.727 4.815 12.261 13.332 15.66 21.279-9.504.05-19.116-2.429-26.719-8.29-7.284-5.615-12.71-13.012-16.083-21.466M489.209 348.389c9.667 1.797 18.327 4.987 25.786 11.988 6.031 5.661 10.392 14.834 12.712 23.16-9.427-1.205-18.627-4.932-25.39-11.745-6.479-6.529-10.881-14.577-13.108-23.403M492.589 385.85c9.255 3.318 17.295 7.851 23.539 15.954 5.049 6.552 7.888 16.305 8.847 24.894-9.113-2.697-17.599-7.845-23.187-15.652-5.352-7.48-8.411-16.129-9.199-25.196M550.774 290.576c1.277 9.748.917 18.971-3.439 28.227-3.522 7.485-10.901 14.465-18.103 19.243-1.764-9.339-1.061-19.24 3.331-27.777 4.209-8.178 10.505-14.85 18.211-19.693M563.064 338.48c.032 9.881-1.562 19.135-7.277 27.657-4.832 7.203-12.003 12.088-19.734 15.717-.58-9.499 1.368-19.26 6.809-27.181 4.972-7.238 12.153-12.764 20.202-16.193M567.506 388.675c-1.632 9.746-4.76 18.6-11.827 26.039-5.974 6.287-13.865 9.896-22.097 12.173 1.027-9.461 4.589-18.756 11.285-25.649 6.119-6.298 14.128-10.537 22.639-12.563M565.552 437.053c-2.891 9.449-7.149 17.818-15.128 24.269-6.745 5.452-15.04 7.999-23.499 9.18 2.255-9.246 7.001-17.994 14.541-23.953 6.89-5.444 15.383-8.601 24.086-9.496M492.465 426.072c8.011 3.517 15.13 9.123 20.022 16.415 5.357 7.986 7.194 17.761 6.508 27.256-7.691-3.715-14.808-8.679-19.559-15.935-5.62-8.584-7.112-17.855-6.971-27.736M484.127 458.972c6.817 5.578 12.184 13.095 14.988 21.426 3.064 9.105 1.989 18.804-.739 27.855-6.32-5.482-11.863-11.93-14.486-20.022-3.211-9.903-2.486-19.548.237-29.259M467.493 489.48c5.143 7.151 8.384 15.801 8.938 24.573.605 9.587-2.941 18.68-7.917 26.717-4.688-6.93-8.374-14.592-8.816-23.087-.541-10.396 2.653-19.526 7.795-28.203M443.089 515.796c3.534 8.069 4.894 17.205 3.602 25.899-1.413 9.502-6.782 17.652-13.328 24.471-3.135-7.757-5.138-16.021-3.794-24.42 1.645-10.279 6.678-18.54 13.52-25.95M413.676 535.211c1.432 8.691.494 17.88-2.907 25.986-3.715 8.858-10.931 15.429-18.958 20.42-1.122-8.291-1.022-16.793 2.355-24.6 4.133-9.555 11.05-16.316 19.51-21.806M551.388 488.551c-5.161 8.427-11.375 15.466-20.713 19.718-7.894 3.594-16.562 3.986-25.048 3.016 4.494-8.389 11.276-15.674 20.066-19.559 8.032-3.549 17.045-4.483 25.695-3.175M524.97 535.405c-7.187 6.782-15.028 11.948-25.153 13.607-8.559 1.402-17.028-.489-24.964-3.646 6.534-6.92 14.987-12.175 24.487-13.624 8.681-1.323 17.624.136 25.63 3.663M489.076 573.528c-8.483 5.067-17.256 8.416-27.5 7.846-8.661-.482-16.52-4.159-23.585-8.958 7.875-5.343 17.265-8.647 26.853-8.007 8.762.586 17.178 3.944 24.232 9.119M445.074 602.313c-9.463 2.844-18.788 3.951-28.583.899-8.281-2.581-15.005-8.065-20.686-14.443 8.941-3.26 18.853-4.172 27.995-1.211 8.354 2.706 15.696 8.016 21.274 14.755M118.735 220.782c-8.505 4.932-15.596 10.84-20.278 19.935-3.785 7.355-4.82 17.459-4.216 26.081 8.478-4.295 15.898-10.889 19.987-19.574 3.916-8.322 5.366-17.381 4.507-26.442M64.005 243.355c-3.012 9.359-4.32 18.495-1.704 28.384 2.115 7.998 8.114 16.194 14.338 22.191 3.419-8.868 4.511-18.734 1.73-27.922-2.666-8.802-7.657-16.5-14.364-22.653M131.52 275.887c-9.745-1.304-18.969-.97-28.237 3.359-7.495 3.5-14.496 10.859-19.294 18.048 9.334 1.791 19.237 1.116 27.786-3.252 8.189-4.186 14.879-10.463 19.745-18.155M116.303 310.301c-9.818.504-18.825 2.522-27.142 8.477-6.727 4.815-12.26 13.332-15.66 21.279 9.504.05 19.115-2.429 26.719-8.29 7.284-5.615 12.71-13.012 16.083-21.466M105.807 348.389c-9.667 1.797-18.328 4.987-25.786 11.988-6.031 5.661-10.392 14.834-12.712 23.16 9.427-1.205 18.627-4.932 25.39-11.745 6.479-6.529 10.881-14.577 13.108-23.403M102.427 385.85c-9.255 3.318-17.295 7.851-23.539 15.954-5.049 6.552-7.888 16.305-8.847 24.894 9.113-2.697 17.6-7.845 23.187-15.652 5.352-7.48 8.411-16.129 9.199-25.196M44.242 290.576c-1.277 9.748-.917 18.971 3.439 28.227 3.522 7.485 10.9 14.465 18.103 19.243 1.764-9.339 1.06-19.24-3.331-27.777-4.209-8.178-10.505-14.85-18.211-19.693M31.952 338.48c-.032 9.881 1.562 19.135 7.277 27.657 4.832 7.203 12.003 12.088 19.734 15.717.58-9.499-1.368-19.26-6.809-27.181-4.972-7.238-12.153-12.764-20.202-16.193M27.51 388.675c1.631 9.746 4.76 18.6 11.827 26.039 5.974 6.287 13.865 9.896 22.097 12.173-1.027-9.461-4.589-18.756-11.285-25.649-6.12-6.298-14.128-10.537-22.639-12.563M29.464 437.053c2.89 9.449 7.15 17.818 15.128 24.269 6.745 5.452 15.04 7.999 23.5 9.18-2.256-9.246-7.002-17.994-14.542-23.953-6.89-5.444-15.383-8.601-24.086-9.496M102.551 426.072c-8.011 3.517-15.13 9.123-20.022 16.415-5.357 7.986-7.194 17.761-6.508 27.256 7.69-3.715 14.808-8.679 19.559-15.935 5.62-8.584 7.112-17.855 6.971-27.736M110.889 458.972c-6.817 5.578-12.184 13.095-14.988 21.426-3.064 9.105-1.99 18.804.74 27.855 6.319-5.482 11.862-11.93 14.485-20.022 3.211-9.903 2.486-19.548-.237-29.259M127.523 489.48c-5.143 7.151-8.384 15.801-8.938 24.573-.605 9.587 2.941 18.68 7.917 26.717 4.688-6.93 8.374-14.592 8.816-23.087.541-10.396-2.653-19.526-7.795-28.203M151.927 515.796c-3.534 8.069-4.894 17.205-3.602 25.899 1.413 9.502 6.782 17.652 13.328 24.471 3.135-7.757 5.138-16.021 3.794-24.42-1.645-10.279-6.678-18.54-13.52-25.95M181.34 535.211c-1.432 8.691-.494 17.88 2.906 25.986 3.716 8.858 10.932 15.429 18.959 20.42 1.122-8.291 1.022-16.793-2.355-24.6-4.133-9.555-11.05-16.316-19.51-21.806M43.628 488.551c5.16 8.427 11.375 15.466 20.713 19.718 7.894 3.594 16.562 3.986 25.048 3.016-4.494-8.389-11.276-15.674-20.066-19.559-8.032-3.549-17.045-4.483-25.695-3.175M70.046 535.405c7.187 6.782 15.028 11.948 25.153 13.607 8.559 1.402 17.028-.489 24.964-3.646-6.534-6.92-14.987-12.175-24.487-13.624-8.681-1.323-17.624.136-25.63 3.663M105.94 573.528c8.483 5.067 17.256 8.416 27.5 7.846 8.66-.482 16.52-4.159 23.585-8.958-7.876-5.343-17.265-8.647-26.853-8.007-8.762.586-17.178 3.944-24.232 9.119M149.941 602.313c9.464 2.844 18.789 3.951 28.584.899 8.281-2.581 15.005-8.065 20.686-14.443-8.941-3.26-18.853-4.172-27.995-1.211-8.354 2.706-15.696 8.016-21.275 14.755" style="fill:#cdb470;stroke:none" transform="matrix(.42913 0 0 .42913 -5.332 -86.143)"></path><path d="M155.283 220.198h284.486v285.755H155.283Z" style="fill:#fff;stroke:none" transform="matrix(.42913 0 0 .42913 -5.332 -86.143)"></path><path d="M436.053 446.668v55.569H159v-55.569h56.082l82.296-126.892 83.215 126.892z" style="fill:#fbc60d;stroke:none" transform="matrix(.42913 0 0 .42913 -5.332 -86.143)"></path><path d="M269.793 502.237h-55.17v-55.569h.459l54.711-84.358zM380.749 502.237h-55.17V362.779l55.014 83.889h.156z" style="fill:#da2931;stroke:none" transform="matrix(.42913 0 0 .42913 -5.332 -86.143)"></path><path d="M159 223.914h277.053v214.018H422.89L294.584 243.457h-55.908v8.736h14.396l21.058 32.193-101.416 153.546H159Z" style="fill:#006cad;stroke:none" transform="matrix(.42913 0 0 .42913 -5.332 -86.143)" data-source="https://football-logos.cc"></path><path d="M360.224 489.583h5.861v-30.129h-5.861l-13.782 20.801v-20.801h-5.861v30.129h5.964l13.679-20.652zM402.496 489.582l7.157-9.989h4.722v9.989h4.782v.001h1.079v-30.129h-13.345c-6.021 0-10.42 4.318-10.42 10.136 0 4.372 2.828 7.821 6.499 9.267l-7.684 10.725zm-.311-20.156c0-3.193 3.047-4.697 5.094-4.697h7.096v9.708h-7.14c-2.802 0-5.05-1.817-5.05-5.011M294.96 492.963h5.33v-3.684c8.158-.842 14.895-6.078 14.895-14.88s-6.737-14.037-14.895-14.879v-3.601h-5.33v3.672c-7.879 1.036-14.281 6.227-14.281 14.808s6.402 13.772 14.281 14.808zm5.33-8.539v-20.05c5.594.867 8.989 4.846 8.989 10.025s-3.395 9.159-8.989 10.025m-5.33-19.941v19.832c-5.228-1.055-8.376-4.929-8.376-9.916 0-4.986 3.148-8.861 8.376-9.916M242.06 458.867c8.577 0 15.532 6.956 15.532 15.532s-6.955 15.532-15.532 15.532-15.532-6.955-15.532-15.532 6.956-15.532 15.532-15.532m0 5.862c5.34 0 9.671 4.33 9.671 9.67s-4.331 9.671-9.671 9.671-9.671-4.331-9.671-9.671 4.331-9.67 9.671-9.67M188.971 458.867c4.633 0 8.792 2.031 11.638 5.249l-4.39 3.882a9.65 9.65 0 0 0-7.248-3.269c-5.34 0-9.671 4.33-9.671 9.67s4.331 9.671 9.671 9.671a9.65 9.65 0 0 0 7.289-3.315l4.237 4.053a15.5 15.5 0 0 1-11.526 5.123c-8.576 0-15.532-6.955-15.532-15.532s6.956-15.532 15.532-15.532M235.158 602.711h8.65v14.687h-33.094v-14.687h8.723v-25.532l-8.105 2.287-3.797-13.814 18.178-5.255h9.445z" style="fill:#fff;stroke:none" transform="matrix(.42913 0 0 .42913 -5.332 -86.143)"></path><path d="M232.238 563.317h-6.111l-15.012 4.34 2.253 8.201 8.989-2.537v32.31h-8.723v8.847h27.254v-8.847h-8.65z" style="fill:#cdb470;stroke:none" transform="matrix(.42913 0 0 .42913 -5.332 -86.143)"></path><path d="M326.471 602.711h8.65v14.687h-33.094v-14.687h8.723v-25.532l-8.105 2.287-3.797-13.814 18.178-5.255h9.445z" style="fill:#fff;stroke:none" transform="matrix(.42913 0 0 .42913 -5.332 -86.143)"></path><path d="M323.551 563.317h-6.111l-15.012 4.34 2.253 8.201 8.989-2.537v32.31h-8.723v8.847h27.254v-8.847h-8.65z" style="fill:#cdb470;stroke:none" transform="matrix(.42913 0 0 .42913 -5.332 -86.143)"></path><path d="M380.091 593.389h7.312v12.049h-7.312v11.9h-14.128v-11.9h-24.337l-2.007-10.535 29.033-33.975h11.439zm-23.307 0h9.179v-10.967z" style="fill:#fff;stroke:none" transform="matrix(.42913 0 0 .42913 -5.332 -86.143)"></path><path d="M377.171 563.848h-7.173l-27.248 31.886 1.292 6.784h24.841v11.901h8.288v-11.901h7.312v-6.209h-7.312zm-26.638 32.461 18.35-21.926v21.926z" style="fill:#cdb470;stroke:none" transform="matrix(.42913 0 0 .42913 -5.332 -86.143)"></path><path d="M278.32 596.428c-3.7 1.642-7.761 2.383-11.865 1.993-5.425-.517-10.671-3.04-13.941-7.489a16.17 16.17 0 0 1-3.11-8.481 20.2 20.2 0 0 1 .305-5.195c1.891-9.951 10.321-16.298 20.285-16.479 3.952-.072 7.894.729 11.352 2.691 8.851 5.022 11.411 15.443 11.401 24.932-.01 9.853-3.186 20.611-12.01 26.09-3.55 2.204-7.565 3.221-11.729 3.202-6.781-.031-11.66-1.992-16.909-6.214l-2.165-1.74 7.64-10.537 2.379 1.823c2.739 2.098 5.653 3.58 9.166 3.528 5.425-.081 8.092-3.703 9.201-8.124m-7.203-22.254c-3.604 0-7.126 1.647-7.126 5.664 0 4.004 3.363 6.194 7.126 6.194 3.9 0 7.125-1.433 7.125-5.734 0-4.293-3.117-6.124-7.125-6.124" style="fill:#fff;stroke:none" transform="matrix(.42913 0 0 .42913 -5.332 -86.143)"></path><path d="M253.929 609.203c4.737 3.809 8.964 5.542 15.092 5.569 12.641.058 20.79-10.626 20.807-26.376.017-17.047-8.334-24.908-19.781-24.7-11.726.214-18.381 9.48-17.73 18.546.88 12.245 17.29 18.151 29.581 8.671-.128 12.471-6.72 16.469-12.735 16.559-3.149.047-6.669-.824-10.985-4.13zm17.188-37.949c6.078 0 10.045 3.48 10.045 9.044 0 5.563-3.967 8.654-10.045 8.654s-10.046-4.081-10.046-9.114 3.968-8.584 10.046-8.584" style="fill:#cdb470;stroke:none" transform="matrix(.42913 0 0 .42913 -5.332 -86.143)" data-source="https://football-logos.cc"></path><!-- source: https://football-logos.cc --></svg>