<svg xmlns="http://www.w3.org/2000/svg" xml:space="preserve" viewBox="18.9 114.12 755.91 565.44"><!-- Source: https://football-logos.cc --><path d="M3012.9 5099.31c614.63-20.17 1096.72-534.97 1076.55-1149.59-20.17-614.64-534.97-1096.72-1149.61-1076.55-614.62 20.17-1096.7 534.97-1076.54 1149.6 20.18 614.62 534.98 1096.71 1149.6 1076.54" style="fill:#fff;fill-opacity:1;fill-rule:evenodd;stroke:none" transform="matrix(.13333 0 0 -.13333 0 794.11)" data-source="https://football-logos.cc"></path><path d="m1752.85 4349.05-766.057-754.21c57.927-271.93 199.987-572.21 354.127-802.74l1652.57-76.27 1635.24 109.69c153.66 223.32 269.7 498.06 337.23 760.29l-751.41 763.44c16.3-409.87-69.02-837.14-356.54-1146.07-225.89-242.71-559.18-423.53-891.93-425.72-322.47-2.12-613 128.82-839.8 358.4-307.58 311.35-382.61 788.79-373.43 1213.19" style="fill:#ee392f;fill-opacity:1;fill-rule:evenodd;stroke:none" transform="matrix(.13333 0 0 -.13333 0 794.11)"></path><path d="m1369.24 3970.81-384.517-375.97c47.977-281.88 199.987-572.2 354.127-802.73l-444.702-755.42c706.112-511.34 1355.112-764.3 2103.912-767.39 788.96-3.26 1459.68 323.83 2040.64 794.31l-412.02 728.75c153.65 223.31 289.59 534.54 357.13 796.77l-373.19 385.2c16.3-409.87-221.64-913.43-592.11-1209.09l-1024.63-70.72c-322.48-2.12-739.09 52.52-1015.65 63.12-393.84 317.99-618.17 788.78-608.99 1213.17" style="fill:#4b91d1;fill-opacity:1;fill-rule:evenodd;stroke:none" transform="matrix(.13333 0 0 -.13333 0 794.11)"></path><path d="m1773.1 4428-826.143-823.97c62.313-315.82 210.693-605.64 362.803-828.9l1670.03-107.77 1661.57 111.46c151.41 214.19 287.64 509.54 364.44 821.81L4177.01 4428c107.37-1125.45-628.84-1598.45-1195.15-1602.18-532-3.5-1291.57 386.84-1208.76 1602.18m2793.49-471.84c-8.89-447.55-231.39-954.21-638.08-1176.68l-948.78-63.65-942.17 60.8c-409.99 220.99-634.29 730.09-643.22 1179.53l-.5 25.27 325.34 324.48c-9.18-424.39 85.75-858.7 393.34-1170.05 226.79-229.58 547.18-360.52 869.66-358.4 332.75 2.19 659.41 153.15 885.28 395.86 287.53 308.93 382.8 719.61 366.5 1129.48l332.91-332.33zm-496.33-1167.18c345.24 248.57 540.11 698.97 562.18 1116.04l319.76-319.21c-67.54-262.23-183.57-536.97-337.23-760.29zm-2175.14-3.16c-350.98 250-547.8 708.08-567.14 1129.92L999.57 3588.2c57.93-271.92 182.86-535.8 336.99-766.34z" style="fill:#fff;fill-opacity:1;fill-rule:evenodd;stroke:none" transform="matrix(.13333 0 0 -.13333 0 794.11)"></path><path d="M919.371 2861.77H2624.47c107.91-33.06 226.88-51.43 351.91-51.43 125.02 0 243.98 18.37 351.89 51.43h1705.12v-779.68H919.371z" style="fill:#fff;fill-opacity:1;fill-rule:evenodd;stroke:none" transform="matrix(.13333 0 0 -.13333 0 794.11)"></path><path d="M968.832 2813.4H4983.93v-682.94H968.832z" style="fill:#ee392f;fill-opacity:1;fill-rule:evenodd;stroke:none" transform="matrix(.13333 0 0 -.13333 0 794.11)"></path><path d="m444.625 2453.59 195.48 317 28.879-93.61c121.051-392.49 245.653-630.13 591.766-848.25l8.98 11.37c38.52 47.59 105.48 71.49 161.56 35.52 469.86-309.24 998.33-509.14 1569.77-506.53 626.73 2.86 1143.72 178.05 1637.02 563.5 42.53 33.3 115.12 31.01 149.63-13.11l19.63-25.36c280.2 209.4 438.2 477.69 508.66 828.4l21.77 108.38 194.44-306.6 278.81 137.9-16.82-86.77c-49.51-255.32-142.72-491.54-290.54-707.78-280.36-410.13-721.72-693.74-1156.46-926.318-61.73-33.023-145.43-38.305-180.66 26.031l-71.22 130.017c-337.33-131.239-697.61-194.751-1094.06-194.728-387.66.024-689.24 44.383-974.67 142.008l-72.05-126.594c-31.93-56.082-73.4-66.808-125.38-54.144-20.34 4.953-47.67 17.012-68.59 26.051C1010.02 1214.31 388.906 1702.49 167.242 2505.88l-25.512 92.44z" style="fill:#fff;fill-opacity:1;fill-rule:evenodd;stroke:none" transform="matrix(.13333 0 0 -.13333 0 794.11)" data-source="https://football-logos.cc"></path><path d="M210.098 2517.24C424.164 1741.38 1020.36 1257.4 1778.48 929.805c27.67-11.957 55.59-20.852 73.63-19.75 40.85 2.484 51.23 30.582 17.42 58.297-71.43 58.548-186.64 109.628-262.25 143.108-45.62 20.19-91.53 39.73-137.17 59.89-43.66 19.28-87.03 39.25-129.94 60.07-46.25 22.44-92.18 45.9-136.89 71.17-38.14 21.55-77 45.04-111.68 71.68-46.47 35.7-98.608 115.37-56.03 169.3l197.92 250.63c-366.658 232.55-489.697 489.85-607.002 870.18l-164.855-267.33zM5750.58 2583.55c-146.42-755.13-649.62-1189.38-1424.65-1604.007-26.54-14.203-49.04-18.445-67.38-17.496-44.95 2.324-58.9 37.574-24.78 67.353 62.27 54.33 132.06 96.82 206.11 135.3 122.43 63.64 251.64 113.46 372.82 180.14 65.52 36.05 130.16 71.87 181.85 126.43 50.49 45.98 54.05 111.23 22.49 152l-182.89 236.21c314.48 235.23 459.8 528.03 525.4 854.63l156.4-246.6z" style="fill:#ee392f;fill-opacity:1;fill-rule:evenodd;stroke:none" transform="matrix(.13333 0 0 -.13333 0 794.11)"></path><path d="M3012.9 5099.31c614.63-20.17 1096.72-534.97 1076.55-1149.59-20.17-614.64-534.97-1096.72-1149.61-1076.55-614.62 20.17-1096.7 534.97-1076.54 1149.6 20.18 614.62 534.98 1096.71 1149.6 1076.54m416.93-122.38c-20.38-32.77-52.16-62.18-92.63-86.76l-13.32 19.08c36.8 22.07 65.64 48.27 84.13 77.39a1081 1081 0 0 1-130.14 46.59l-48.81-72.65 177.92-254.87 5.25-2.1c131.1-52.37 248.81-106.95 367.18-183.42l93.66 84.48a1114 1114 0 0 1-25.7 35.63l-17.82-14.2c-95.12 113.73-230.8 186.89-377.65 188.97-20.42.29-40.44-.81-60.04-3.21l-27.85 39.9c49.33 30.6 82.86 64.76 105.74 105.87-13.15 6.69-26.46 13.13-39.92 19.3m-205.72-135.98c-68.48-20.68-147.91-31.24-232.26-28.47-82.4 2.7-159.26 17.79-225.2 41.9l14.53 19.95c62.06-21.6 134.2-35.14 211.46-37.68 78.77-2.58 152.99 6.6 217.18 24.75zm-566.98 68.42c-37.93 25.79-67.7 55.53-86.95 87.81-14.51-5.84-28.87-11.99-43.07-18.43 21.98-40.79 55.4-74.8 102.46-107.22l-32.11-44.11c-18.32 2.9-37.11 4.74-56.34 5.37-165.17 5.43-324.29-76.63-433.11-206.83l-9.71 4.98c-9-12.23-17.76-24.65-26.26-37.26l98.17-55.05c128.59 71.92 264.48 129.78 404.51 175.41l190.52 261.65-40.92 70.51c-45.07-10.7-89.08-24.2-131.84-40.32 17.43-28.43 44.21-54.72 78.32-77.72zm-418.6-1724.3c14.15 25.19 22.51 56.29 26.85 89.11l22.91-5.34c-5.25-39-15.32-74.55-31.58-100.14 18.21-16.05 36.95-31.52 56.22-46.36 15.4 44.04 26.63 81.7 30.75 133.56l64.97-15.17c69.42-174.71 255.55-307.78 483.62-333.17l.48-7.43c15.77-1.21 31.63-2.1 47.59-2.63l2.96 90.36c-146.38 72.96-281.49 165.67-405.36 272.27l-349.46 84.01-37.22-68.85c27.33-31.72 56.47-61.84 87.27-90.22m27.2 215.11c-2.62 24.7-6.46 46.95-10.59 64.48-27.14 115.21-84.33 225.81-169.32 308.98l-2.11 2.07c4.13 7.2 8.24 14.43 12.31 21.68 2.27-2.14 4.5-4.29 6.72-6.47 88.27-86.38 146.77-201.28 175.94-320.71 5.37-22.02 9.49-48.15 11.86-76zm-279.34 448.95c-29.9 16.92-61.73 30.22-94.92 38.57 3.94-43.65 10.44-86.62 19.38-128.7l70.03-14.75c62.54 103.1 119.64 209.63 167.83 320.23v.01c-14.43 151.05-7.9 302.51 9.85 452.95l-99.82 55.97c-9.06-14.12-17.79-28.47-26.2-43.04l7.39-4.19c-33.4-60.96-56.91-128.26-67.52-199.32-20.45-136.86 10.51-263.04 77.63-358.8-9.33-18.57-18.9-37.01-28.68-55.35-45.34 25.52-86.55 41.27-134.06 49.38.36-16.44 1.09-32.79 2.18-49.05 38.13-8.7 74.62-23.52 108.74-42.82-3.92-7.04-7.86-14.08-11.83-21.09m2074.16 30.99c-46.19-10.11-90.24-29.5-130.47-54.9-3.65 7.23-7.27 14.47-10.86 21.73 44.19 27.6 92.65 48.26 143.48 58.32 1.11 14.99 1.93 30.07 2.42 45.24l.13 4.56c-60.42-8.28-110.37-29.59-167.34-64.43-8.99 18.76-17.86 37.57-26.63 56.39 65.65 90.33 101.58 207.75 94.02 336.65-5.14 87.81-29.89 170.86-69.26 244.08l15.87 16.55c-8.12 13.57-16.5 26.94-25.18 40.12l-95.21-85.89c8.04-150.85 8.62-299.92-19.5-449.1 14.81-34.36 30.2-68.49 45.94-102.44 34.79-75.02 71.62-152.23 111.77-224.78l113.41 42.74c7.78 37.68 13.61 76.11 17.41 115.16m-226.26-133.14c-71.18-73.18-122.84-165.56-152.6-262.78-11.95-39.04-20.61-79.44-25.4-120.31-8.48-2.09-16.96-4.13-25.45-6.15 4.88 45.35 14.48 90.26 27.73 133.53 31.68 103.51 87.31 201.55 164.13 278.4 3.83-7.58 7.69-15.14 11.59-22.69m-180.26-508c2.33-31.35 6.76-63.11 15.2-93.14 35.98 29.68 70.05 61.62 101.96 95.65l-49.9 64.1c-115.8-30.46-233.01-54.29-351.59-71.18l-1.85-.26c-125.56-94.71-258.94-177.1-400.35-245.97l-2.99-91.18c16.22-.19 32.35.02 48.41.54l.22 6.87c226.82 13.34 418.19 134.64 496.69 304.1 24.46 4.58 48.85 9.44 73.19 14.59 4.72-46.13 14.51-82.26 28.52-121.73 12.29 8.84 24.4 17.95 36.31 27.29-10.75 29.6-15.84 69.12-18.36 104.64 8.19 1.86 16.36 3.75 24.54 5.68m-202.47 1551.91c-14.76.22-29.4-.33-43.91-1.65l16.11-23.07c9.1.5 18.26.68 27.46.55 45.32-.64 90.39-8.99 133.09-24.13 82.45-29.23 153.14-81.34 207.96-147.13l18.68 15.36c-57.56 69.11-131.87 123.83-218.56 154.56-45.19 16.01-92.87 24.84-140.83 25.51m-169.01-33.67a400.6 400.6 0 0 1-63.64-35.08c-101.36-68.43-163.55-174.77-186.1-291.02l24.48-.81c21.96 108.57 80.32 207.77 175.15 271.79 20.47 13.82 41.96 25.47 64.24 34.88zm-258.98-446.77c.14-3.9.3-7.79.53-11.69 9.91-169.15 99.03-332.4 238.4-427.03l12.64 20.63c-132.7 90.57-217.46 246.68-226.91 407.82-.18 3.15-.31 6.32-.44 9.47zm346.91-493.93 2.43-.89c45.17-16 92.85-24.82 140.79-25.5 83.35-1.18 163.49 22.06 232.64 68.75 8.4 5.67 16.52 11.61 24.38 17.78l-10.55 22.54a397 397 0 0 0-27.35-20.28c-65.07-43.93-140.36-65.72-218.78-64.61-44.46.63-88.67 8.69-130.65 23.28zm489.13 155.64c60.68 89.25 88.01 199.89 81.55 310.11-4.67 79.71-26.93 158.13-63.75 228.66l-18.58-16.77c33.56-66.11 53.85-139.18 58.19-213.3 5.85-99.75-17.27-200.09-69.32-282.75q5.91-12.99 11.91-25.95m-1320.08 812.3c-34.95 1.14-69.89-2.08-104.09-9.32-111.15-23.5-209.55-86.68-283.17-171.87l18.15-9.31 11.46 6.17c68.86 74.86 158.28 130.16 258.56 151.35 32.28 6.83 65.31 9.89 98.3 8.81 3.18-.11 6.35-.24 9.52-.43l16.73 22.98c-8.44.8-16.92 1.34-25.46 1.62m-456.58-280.91c-31.42-57.17-53.11-119.6-62.71-183.83-15.62-104.58 1.1-212.5 54.45-301.18a2436 2436 0 0 1 12.56 26.93c-43.87 81.14-56.99 177.65-43.1 270.68 9.19 61.48 30.03 121.31 60.21 176.14zm77.9-584.25c64.39-52.11 142.76-79.51 225.86-82.24 34.95-1.15 69.89 2.08 104.09 9.31 22.45 4.75 44.34 11.14 65.65 18.98l-11.73 21.45c-19.15-6.87-38.81-12.52-58.92-16.77-32.28-6.83-65.3-9.89-98.29-8.8-79.64 2.61-154.58 29.27-215.67 80.33-3.63-7.43-7.29-14.86-10.99-22.26m503.23 1.27c128.04 86.09 219.12 228.54 241.93 381.23.62 4.14 1.18 8.3 1.7 12.45l-24.28.8c-.42-3.23-.86-6.46-1.33-9.68-21.69-145.08-108.14-281-229.68-363.51zm243.99 514.64c-11.96 97.86-54.53 190.09-131.39 257.53-26.5 23.25-55.59 42.09-86.57 56.52l-14.53-19.95c30.53-13.71 59.17-31.95 85.14-54.74 71.14-62.42 110.85-147.91 122.78-238.55zm69.84-616.18c80.11-2.63 155.61-19.62 223-47.82l-12.75-20.82c-63.87 26.2-135.31 41.99-211.04 44.47-80.28 2.64-156.73-9.95-225.23-34.61l-11.71 21.39c72.21 26.56 152.93 40.18 237.73 37.39m329.16-106.02c121.28-84.88 196.73-212.48 192.13-352.74-.35-10.5-1.17-20.88-2.39-31.17-8.33-1.58-16.65-3.14-24.99-4.65 1.69 12.04 2.8 24.25 3.21 36.61 4.31 131.42-66.5 251.1-180.58 331.37zm149.22-514.04c-75.78-144.94-243.79-247.9-442.05-261.17l.65 19.86c3.45 1.73 6.88 3.48 10.32 5.23 176.8 15.42 326.8 104.96 400.73 231.09 10.12 1.62 20.24 3.28 30.35 4.99m-562.92-258.11c-199.84 23.62-363.91 137.18-431.98 287.56l30.13-7.03c66.62-129.77 210.71-227.88 385.94-253.98 5.49-2.93 10.98-5.83 16.49-8.7zm-465.21 420.27c-.7 11.35-.87 22.78-.49 34.31 4.47 136.16 83.45 255.48 203.88 332.54l11.59-21.18c-113.12-72.87-187.12-184.68-191.3-312.16-.43-13.28-.06-26.43 1-39.44zm1371.95 454.03c-82.48-78.45-149.57-184.86-187.79-309.73-16.35-53.43-26.37-106.78-30.52-158.9a2732 2732 0 0 0-35.94-7.69c.96 9.3 1.63 18.67 1.94 28.13 5.1 155.3-79.22 296.41-214.28 389.22l24.07 39.31c49.46-18.43 101.86-28.79 155.77-29.55 101.46-1.44 193.62 31.3 267.92 88.37 6.22-13.08 12.49-26.14 18.83-39.16m-1457.75-433.4c-3.23 32.82-8.72 66.09-16.6 99.54-34.79 147.59-110.01 272.91-205.67 359.71 6.19 11.44 12.3 22.92 18.32 34.44 67.65-52.05 151.89-83.62 246.72-86.73 66.87-2.19 132.75 9.98 194.7 33.86l27.4-50.12c-134.29-84.19-222.67-216.2-227.62-367.16-.36-10.93-.23-21.78.29-32.56zm395.34 1432.87c73.68-29.24 159.94-47.45 252.57-50.49 95.46-3.13 185.27 10.27 262.26 36.09l15.93-22.84c-133.41-60.26-230.9-187.71-260.27-345.46l-51.12 1.67c-17.1 158.94-106.35 290.33-238.04 355.38zm241.84-945.89c89.21-2.92 173.21-22.25 247.87-54.29l22.54 36.81c-140.11 94.99-239.08 259.84-249.99 446.09-.28 4.64-.48 9.28-.64 13.89l-43.1 1.42c-.7-5.98-1.47-11.98-2.38-18-26.01-174.1-129.2-325.66-266.55-416.46l28.53-52.08c79.88 30.18 169.49 45.72 263.72 42.62m1057.39-131.97-102.98-38.81c-48.46-137.7-110.86-257.6-192.59-378.77l46.41-59.62c119.46 133.24 206.76 296.29 249.16 477.2m-1902.4-441.59 34.4 63.65-191.98 361.53-60.25 12.69c38.85-162.93 114.48-312.07 217.83-437.87m1073.79 1677.89 44.96 66.92c-77.27 20.24-157.98 32.26-241.18 34.99-90.33 2.97-178.43-5.22-263.05-23.22l37.64-64.85zm-.59-24.18-422 13.85-190.64-261.81 185.44-309.92 412.51-13.54 197.22 309.95zm511.86-1618.75c81.43 120.33 143.43 239.08 191.54 375.79-41.43 74.38-79.34 153.78-115.11 230.9-15.32 33.05-30.32 66.28-44.77 99.71l-342.35-64.72-218.62-356.86 182.18-355.71c117.06 16.92 232.79 40.64 347.13 70.89m-1719.78 398.72 191.44-360.52 338.65-81.41 212.43 339.26-204.02 373.15-368.59 52.8c-48.82-111.64-106.62-219.21-169.91-323.28m553.51-450.08c122.73-105.67 256.64-197.56 401.75-269.77 139.33 67.72 270.79 148.66 394.59 241.7l-179.51 350.51-406.57 13.34zm1196.22 782.05c26.56 145.53 25.65 291.22 17.73 438.4-114.55 74.13-228.45 127.4-354.71 178.2l-198.99-312.73 193.77-368.56zm-1175.18 627.64c-135.41-44.62-266.87-100.85-391.4-170.41-17.47-146.71-24.26-294.46-11.05-441.81l368.27-52.75 218.58 356.8zm188.92-1049.71 405.07-13.29 218.78 357.13-194.89 370.7-413.35 13.57-218.78-357.13z" style="fill:#231f20;fill-opacity:1;fill-rule:evenodd;stroke:none" transform="matrix(.13333 0 0 -.13333 0 794.11)"></path><path d="M1406.54 1839.48c531.34-349.7 1067.48-516.32 1594.73-513.92 263.09 1.19 522.84 31.52 781.95 108.23 293.67 86.94 586.53 233.48 882.53 464.76 32.39 19.92 68.68 17.51 86.63-5.43l202.06-260.99c-31.23-3.08-75.18-22.16-94.66-37.67-624.17-497.03-1241.52-648.319-1858.51-648.28-747.65.047-1165.21 163.13-1792.19 573.14-30.95 20.24-76.38 35.26-111.28 31.95l206.7 261.77c25.57 31.59 66.63 48.67 102.04 26.44M1932.79 969.188l50.62 88.932c-117.75 47.83-236.16 96.05-357 159.69-145.82 76.8-285.61 169.13-447.8 270.12-35.33 22-78.97 23.72-94.18-.28-9.56-15.08-3.13-50.16 34.55-79.12 82.32-63.23 239.96-140.33 369.36-197.5 161.2-71.21 359.03-148.55 444.45-241.842" style="fill:#ee392f;fill-opacity:1;fill-rule:evenodd;stroke:none" transform="matrix(.13333 0 0 -.13333 0 794.11)"></path><path d="m4180.27 1040.08-39.04 75.5c118.61 44.77 211.05 98.11 331.07 163.14 146.83 79.56 265.56 163.94 420.81 287.31 32.51 25.83 77.26 30.7 94 7.7 10.52-14.45 7.48-38.45-25.09-72.84-47.45-50.09-107.87-83.32-171.06-118.09-120.63-66.38-257-119.93-371.88-179.64-35.58-18.49-69.19-37.34-101.09-57.38-49.76-31.27-102.76-68.56-137.72-105.7" style="fill:#ee392f;fill-opacity:1;fill-rule:evenodd;stroke:none" transform="matrix(.13333 0 0 -.13333 0 794.11)"></path><path d="M1162.54 2727.25h191.1l83.38-310.27 83.39 310.27h191.1l26.54-483.79h-139.91l-13.89 313.89-99.17-313.89h-96.11l-99.13 311.62-13.93-311.62H1136zM2383.21 2727.25h145.57v-174.17h161.11v174.17h145.57v-483.79h-145.57v193.51h-161.11v-193.51h-145.57zM3057.35 2611.14h-137.8v116.11h421.17v-116.11h-137.8v-367.68h-145.57zM3503.3 2727.25h169.68l169.68-483.79h-150.53l-20.45 65.81-167.23-.01-20.99-65.8h-150.51999999999998zm27.31-314.43h115.06l-57.53 191.4zM4579.2 2727.25h169.68l169.68-483.79h-150.52l-20.47 65.81-167.22-.01-20.99-65.8h-150.52zm27.32-314.43h115.05l-57.53 191.4zM3898.95 2727.25h145.57v-174.17h161.11v174.17h145.57v-483.79h-145.57v193.51h-161.11v-193.51h-145.57zM2638.27 1505.93l118.89 164.75c-111.02-3.27-177.62 60.77-175.29 167.88 2.06 95.28 78.72 177.17 187.56 177.17 109.69 0 189.64-84.72 193.78-181.3 2.75-64.29-19.74-107.25-54.79-160.11l-114.03-168.39zm76.08 327.85c0-39.59 25.47-62.88 53.89-63.91s55.24 23.82 55.24 63.91c0 40.1-26.62 65.63-53.17 66.67-26.55 1.05-55.96-27.08-55.96-66.67M3375.32 1505.93H2988.5c52.61 64.44 201.16 225.54 219.09 316.11 4.53 22.88.67 48.3-22.04 61.92-10.29 6.18-22.99 9.17-39.94 8.21-41.05-2.31-92.29-31.78-136.12-73.56l.37 132.23c29.04 28.08 100.02 64.89 159.1 64.89 112.84 0 181.28-52.03 188.7-152.03 6.45-86.76-85.27-188.72-134.47-247.84h152.13zM3542.98 1890.67h-79.02l29.48 114.92h190.6v-499.66h-141.05999999999997zM2281.38 1890.67h-79.02l29.48 114.92h190.6v-499.66h-141.05999999999997zM1683.45 1457.14c-14.56-25.24-35.08-41.17-61.54-47.8s-52.86-2.34-79.18 12.85l-16.35-28.32-37.3 21.54 16.35 28.32c-26.33 15.2-43.23 35.91-50.73 62.15-7.48 26.23-3.94 51.96 10.63 77.19 14.56 25.24 35.08 41.18 61.54 47.81 26.46 6.62 52.85 2.34 79.18-12.86l14.62 25.32 37.31-21.54-14.62-25.32c26.32-15.2 43.23-35.92 50.72-62.14 7.49-26.24 3.95-51.96-10.63-77.2m-37.3 21.54c8.17 14.16 10.32 28.77 6.44 43.85-4.12 15.93-14.17 28.51-30.14 37.73l-58.81-101.85c16.16-9.32 31.88-11.86 47.17-7.62 15.28 4.25 27.06 13.55 35.34 27.89m-119.81 1.27 58.8 101.85q-24.24 13.995-47.16 7.62c-15.28-4.25-27.07-13.54-35.35-27.88-8.17-14.16-10.26-29-6.26-44.5s13.99-27.86 29.97-37.09M1986.92 1439.94l-190.87-169.73-43.09 19.18 49.03 42.88-10.98 194.89 47.69-21.22 5.62-138.13 99.52 91.31zM2156.32 1337.28l-40.73 14.02-62.14-180.47-40.73 14.03 62.14 180.47-40.73 14.03 13.61 39.54 122.2-42.08zM2356.03 1159.41c-5.13-20.54-16.2-35.5-33.23-44.86-17.02-9.37-36.62-11.28-58.79-5.76l-77.8 19.4 56.29 225.78 131.81-32.86-10.12-40.58-90.01 22.44-11.56-46.38 36-8.97c24.01-5.99 40.9-16.85 50.7-32.58s12.04-34.27 6.71-55.63m-41.8 10.42c1.77 7.12 1.16 13.76-1.85 19.91-4.12 8.59-11.97 14.33-23.57 17.22l-36.31 9.06-14.38-57.68 36.31-9.05c10.78-2.68 19.62-1.86 26.54 2.46 6.91 4.33 11.33 10.36 13.26 18.08M2688.41 1145.85c-4.7-33.43-20.35-60.07-46.96-79.94-26.6-19.86-57.03-27.39-91.29-22.57-34.25 4.81-61.43 20.44-81.53 46.86-20.1 26.43-27.8 56.36-23.1 89.78 4.72 33.64 20.4 60.48 47.04 80.56 26.63 20.07 57.08 27.7 91.34 22.88 34.25-4.81 61.41-20.54 81.48-47.17 20.07-26.64 27.75-56.77 23.02-90.4m-42.53 6.93c3.04 21.59-1.9 41.07-14.81 58.44-12.9 17.38-30.57 27.64-52.99 30.79-22.63 3.18-42.48-1.76-59.56-14.81-17.07-13.06-27.14-30.48-30.2-52.28-3.09-22.01 1.86-41.75 14.85-59.24 13-17.5 30.49-27.79 52.5-30.88 22.62-3.18 42.56 1.9 59.78 15.25 17.23 13.36 27.37 30.93 30.43 52.73M2983.84 1018.62l-47.45 1.67-57.44 175.05-69.52-170.63-47.45 1.66 100.19 229.34 37.72-1.32zM3207.67 1027.81l-124.67-6.54-12.18 232.37 124.67 6.54 2.19-41.76-81.65-4.28 2.82-53.69 78.19 4.09 2.19-41.76-78.19-4.1 2.79-53.38 81.65 4.27zM3495.16 1059.14l-42.84-4.51-10.19 96.96-84.44-8.88 10.19-96.95-42.84-4.5-24.33 231.42 42.85 4.5 9.76-92.88 84.44 8.88-9.76 92.88 42.84 4.5zM3955.19 1166.39l-49.81-13.35-96.23 79.69 26.37-98.41-41.62-11.15-60.22 224.77 41.61 11.15 26.12-97.5 43.74 116.21 49.81 13.36-55.12-133.27zM4240.41 1276.59l-44.33-17.01-121.28 138.7 2.68-184.22-44.33-17.02 2.62 250.25 35.23 13.53zM4377.85 1610.63l16.23-254.92-41.65-22.14-3.59 65.04-160.34 111.34 46.08 24.5 112.31-80.6-10.69 134.63zM4657.72 1601.8c11.53-17.75 14.91-36.05 10.16-54.89-4.77-18.84-16.74-34.48-35.9-46.93l-67.25-43.67L4438 1651.46l113.93 73.99 22.77-35.07-77.79-50.53 26.03-40.08 31.12 20.2c20.74 13.48 40.21 18.43 58.39 14.88 18.19-3.57 33.28-14.58 45.27-33.05m-36.13-23.46c-4 6.16-9.27 10.24-15.82 12.23-9.09 2.84-18.65 1.01-28.67-5.5l-31.39-20.37 32.38-49.86 31.38 20.39c9.32 6.05 14.75 13.08 16.3 21.08 1.55 8.01.16 15.35-4.18 22.03" style="fill:#fff;fill-opacity:1;fill-rule:nonzero;stroke:none" transform="matrix(.13333 0 0 -.13333 0 794.11)"></path><path d="M2051.1 2742.29c142.31 0 257.71-115.41 257.71-257.72 0-142.3-115.4-257.71-257.71-257.71s-257.71 115.41-257.71 257.71c0 142.31 115.4 257.72 257.71 257.72m0-138.59c65.78 0 119.13-53.34 119.13-119.13 0-65.78-53.35-119.12-119.13-119.12s-119.12 53.34-119.12 119.12c0 65.79 53.34 119.13 119.12 119.13" style="fill:#fff;fill-opacity:1;fill-rule:evenodd;stroke:none" transform="matrix(.13333 0 0 -.13333 0 794.11)" data-source="https://football-logos.cc"></path><!-- source: https://football-logos.cc --></svg>