<svg xmlns="http://www.w3.org/2000/svg" xmlns:xlink="http://www.w3.org/1999/xlink" viewBox="41.67 128.6 511.94 584.69"><!-- Source: https://football-logos.cc --><defs data-source="https://football-logos.cc"><linearGradient id="a"><stop offset="0%" stop-color="#740c0b"></stop><stop offset="100%" stop-color="#921513"></stop></linearGradient></defs><path d="M68.883 170.166c7.03-10.73 14.07-21.453 21.128-32.164l6.119-9.286 11 1.473c27.218 3.642 54.865 5.609 82.286 6.93 36.025 1.737 72.159 2.279 108.223 2.214 34.395-.06 68.841-.495 103.207-1.945 28.918-1.22 58.451-3.03 87.107-7.178l11.117-1.61 6.195 9.402a14969 14969 0 0 1 21.128 32.164c7.014 10.705 14.02 21.416 21.061 32.105l6.153 9.341-5.778 9.554c-7.29 12.054-11.972 26.495-15.158 40.152-4.432 18.998-6.563 38.964-7.293 58.429-.394 10.507.199 21.438.8 31.935.815 14.236 1.917 28.464 2.996 42.682.728 9.6 1.456 19.2 2.12 28.805 2.107 30.401 3.515 60.551-.832 90.859-5.102 35.572-17.752 67.926-41.676 95.157-24.25 27.602-53.706 48.148-86.407 64.465-31.767 15.852-65.628 27.35-99.437 37.973l-5.3 1.666-5.301-1.666c-33.8-10.62-67.68-21.97-99.51-37.673-32.796-16.179-62.372-36.619-86.623-64.222-23.954-27.264-36.656-59.736-41.849-95.339-4.43-30.367-3.127-60.632-1.016-91.107.745-10.747 1.583-21.487 2.425-32.226 1.065-13.586 2.154-27.183 2.96-40.787.591-10.006 1.17-20.43.795-30.447-.736-19.605-2.771-39.73-7.17-58.882-3.106-13.525-7.691-27.844-14.906-39.774l-5.778-9.554 6.153-9.341c7.04-10.689 14.046-21.4 21.06-32.105" style="fill:url(#a)"></path><path d="m167.62 243.328-9.568 35.728c-1.824 6.81-.611 13.64 7.136 13.64h25.93c9.326 0 12.85-5.4 15.145-13.885l9.598-35.484h-7.5l-9.854 36.927c-.708 2.651-2.05 4.271-4.583 4.275l-16.675.028c-1.246.002-2.913-1.795-2.345-3.914l10.003-37.306zm41.205 49.374 13.187-49.367 22.44.002 7.931 40.396 10.833-40.4 7.726.002-13.293 49.363h-22.366l-8.044-41.004-11.079 41.01zm56.498-.014h17.298l13.232-49.352h-17.297zm32.916-49.357-2.241 8.325 13.058.038-11.091 40.998 17.212.002 11.015-41.035 12.92-.01 2.226-8.315zm48.966-.017-13.202 49.349 38.42.008 2.309-8.015-21.252.012 3.632-13.365h19.998l2.356-8.074-20.25.023 3.246-11.806 20.578.01 2.244-8.131zm44.108.028-13.256 49.352 35.833-.044c8.277-.01 12.62-5.823 14.09-11.325l7.2-26.962c1.965-7.36-2.162-11.047-8.907-11.043zm15.168 8.158-9.001 33.178 9.853.048c1.342.006 2.793-1.507 3.142-2.803l7.47-27.814c.414-1.54-.231-2.596-1.753-2.597zm-275.433-19.263h333.199v4.64h-333.2zm284.322-55.623-13.202 49.348 38.42.008 2.309-8.015-21.252.012 3.632-13.365 19.998.001 2.356-8.074-20.25.023 3.246-11.807 20.578.011 2.244-8.132zm-81.827 49.356 13.125-49.366 22.174.006 1.114 28.213 16.934-28.212h21.551l-13.24 49.36h-17.099l10.664-39.363-23.52 39.352-11.919-.001-1.968-38.847-10.436 38.86zm-68.74 0 13.125-49.366 22.173.006 1.115 28.213 16.934-28.212H339.7l-13.241 49.36h-17.098l10.664-39.363-23.52 39.352-11.919-.001-1.969-38.847-10.435 38.86zm-33.332-61.51 32.637-.081-1.84 7.253-32.625.024zm-13.602 23.579-6.715 25.922c-1.487 5.74-1.116 12.01 5.637 12.006l28.314-.017c8.16-.005 12.8-4.672 14.79-12.152l6.777-25.454c2.014-7.564-.92-11.715-9.046-11.719l-23.86-.01c-7.834-.003-13.718 3.01-15.897 11.424m17.12.226-7.101 26.556c-.587 2.195.582 3.24 2.46 3.234l8.04-.023c1.931-.006 3.406-1.048 4.032-3.386l7.175-26.836c.46-1.722-.072-2.995-1.876-3l-8.11-.023c-2.512-.007-4.042 1.317-4.62 3.478m-80.16 37.701 13.179-49.35 22.455-.001 7.924 40.382 10.83-40.388 7.725.005-13.29 49.348-22.364.001-8.045-41.004-11.078 41.01z" style="fill:#000;fill-rule:evenodd"></path><defs><radialGradient id="b" cx=".5" cy=".5" r="1"><stop offset="0%" stop-color="#fdc501"></stop><stop offset="100%" stop-color="#eaa911"></stop></radialGradient></defs><path d="m123.294 477.441 10.383-38.917h17.654l.844 22.053 13.28-22.05 17.237.007-10.423 38.903-13.617.004 8.41-31.144-18.563 31.144h-9.45l-1.557-30.825-8.277 30.817z" style="fill:url(#b)"></path><defs><radialGradient id="c" cx=".5" cy=".5" r="1"><stop offset="0%" stop-color="#fdc501"></stop><stop offset="100%" stop-color="#eaa911"></stop></radialGradient></defs><path d="m188.27 438.535-10.463 38.907h13.64l3.807-13.928 15.713.009c4.52.002 8.238-2.871 9.375-6.9l2.995-10.617c1.111-3.936-.916-7.482-4.948-7.481zm11.975 6.404-3.375 12.066 7.613.038c1.098.005 2.35-.921 2.63-1.983l2.063-7.81c.447-1.69.2-2.32-1.591-2.318z" style="fill:url(#c)"></path><defs><radialGradient id="d" cx=".5" cy=".5" r="1"><stop offset="0%" stop-color="#fdc501"></stop><stop offset="100%" stop-color="#eaa911"></stop></radialGradient></defs><path d="m175.226 487.687-5.522 21.356 24.975-.028c6.513-.007 10.557-3.292 12.17-9.296l7.959-29.64h-13.866l-7.818 29.255c-.506 1.894-1.896 3.219-4.022 3.225l-5.85.019 2.447-8.73z" style="fill:url(#d)"></path><defs><radialGradient id="e" cx=".5" cy=".5" r="1"><stop offset="0%" stop-color="#fdc501"></stop><stop offset="100%" stop-color="#eaa911"></stop></radialGradient></defs><path d="m219.692 470.793-10.442 38.98 13.715-.02 3.386-12.446 4.182-4.051 3.76 16.51 16.242-.01-7.825-27.628 13.2-11.325-8.869.018-18.355 17.325 4.762-17.325z" style="fill:url(#e)"></path><defs><radialGradient id="f" cx=".5" cy=".5" r="1"><stop offset="0%" stop-color="#fdc501"></stop><stop offset="100%" stop-color="#eaa911"></stop></radialGradient></defs><path d="M190.41 380.015c-2.399 1.076-4.516 3.521-6.69 6.253-7.611.179-15.304.553-22.865 1.862 6.143 1.423 12 3.528 17.742 5.901-4.367 6.932-8.13 13.167-10.396 17.673 7.452-4.174 14.893-8.271 22.257-11.83 7.71 3.822 15.12 8.094 22.38 12.591-2.736-6.101-5.536-12.152-8.697-17.927 5.556-2.086 11.102-4.081 16.505-4.758-7.258-2.02-14.707-2.516-22.166-2.924-2.313-2.846-4.907-5.27-8.07-6.841" style="fill:url(#f)"></path><defs><radialGradient id="g" cx=".5" cy=".5" r="1"><stop offset="0%" stop-color="#fdc501"></stop><stop offset="100%" stop-color="#eaa911"></stop></radialGradient></defs><path d="M105.01 428.416c-.266 2.615-.032 5.25 1.246 8.498-3.65 6.68-5.86 11.9-8.358 19.214 4.243-4.766 7.14-7.463 12.183-10.953 3.993 6.989 7.794 12.069 10.782 16.115-.286-8.318-.436-15.308.002-23.671 7.165-4.766 14.112-8.201 21.644-12.185-6.613-.83-13.625-.91-20.268-.833.972-5.854 2.129-11.336 4.245-16.354-5.14 5.516-9.135 11.09-13.429 17.135-3.62.58-5.105 1.08-8.047 3.034z" style="fill:url(#g)"></path><defs><radialGradient id="h" cx=".5" cy=".5" r="1"><stop offset="0%" stop-color="#fdc501"></stop><stop offset="100%" stop-color="#eaa911"></stop></radialGradient></defs><path d="M105.057 517.251c2.057 1.623 4.596 2.301 8.048 2.818 4.092 6.39 8.76 11.748 13.551 17.427-2.083-4.72-3.591-10.525-4.407-16.686 8.187.316 15.346-.442 20.38-.733-7.503-4.038-15.052-7.49-21.729-12.263-.544-8.588-.396-15.217-.13-23.752-3.917 5.419-7.827 11.026-10.676 16.455-4.706-3.647-8.73-6.842-12.017-11.184 1.88 7.296 4.819 12.551 8.195 19.215-1.308 3.426-1.755 6.21-1.215 8.703" style="fill:url(#h)"></path><defs><radialGradient id="i" cx=".5" cy=".5" r="1"><stop offset="0%" stop-color="#fdc501"></stop><stop offset="100%" stop-color="#eaa911"></stop></radialGradient></defs><path d="M190.371 565.058c2.398-1.077 5.782-4.093 7.955-6.825 8.14-.41 14.77-1.353 22.247-2.893-6.143-1.423-10.856-2.497-16.599-4.87 4.367-6.932 6.743-13.43 9.009-17.936-7.41 4.247-15.25 9.003-22.614 12.562-7.71-3.823-15.006-7.7-22.266-12.198 2.735 6.102 7.218 12.578 10.496 18.096-5.556 2.086-11.945 4.72-18.061 5.864 7.67 1.533 15.7 1.692 23.085 1.894 2.338 2.717 3.7 4.528 6.748 6.306" style="fill:url(#i)"></path><defs><radialGradient id="j" cx=".5" cy=".5" r="1"><stop offset="0%" stop-color="#fdc501"></stop><stop offset="100%" stop-color="#eaa911"></stop></radialGradient></defs><path d="M275.554 517.216c.735-2.728.015-5.39-1.264-8.639 3.65-6.68 6.188-12.283 8.46-19.392-4.144 4.777-7.33 7.7-12.285 11.412-3.82-7.248-7.826-12.35-10.595-16.565-.11 8.54.402 15.693-.198 23.85-7.165 4.765-14.204 8.137-21.73 12.175 6.653.682 13.799.645 20.38.795-.97 5.854-2.315 11.599-4.431 16.617 5.89-6.006 9.99-11.765 13.644-17.407 3.527-.337 5.143-.789 8.02-2.846" style="fill:url(#j)"></path><defs><radialGradient id="k" cx=".5" cy=".5" r="1"><stop offset="0%" stop-color="#fdc501"></stop><stop offset="100%" stop-color="#eaa911"></stop></radialGradient></defs><path d="M275.512 428.44c-2.131-1.538-4.559-2.542-8.011-3.058-3.96-6.502-8.432-11.29-13.346-17.184 1.84 6.032 3.38 10.226 4.195 16.387-8.186-.317-15.152.46-20.187.75 7.486 4.105 14.864 7.674 21.523 12.46.545 8.588.25 15.041-.015 23.577 4.03-5.42 7.531-10.757 10.803-16.57 4.584 3.768 8.914 7.416 12.314 11.495-2.255-7.09-5.116-12.731-8.492-19.395 1.308-3.427 1.438-4.936 1.216-8.461" style="fill:url(#k)"></path><path d="M408.5 449.226c.116 1.355.573 2.538 1.323 3.362.664.73 1.578 1.189 2.705 1.235l.26.007c1.474.012 2.575-.417 3.3-1.159.735-.75 1.133-1.856 1.187-3.181l.007-.257.08-9.765c.014-1.812.528-2.9 1.38-3.653.806-.713 1.752-.989 2.837-1.298 5.696-1.626 10.82-4.544 15.415-8.58 4.846-4.257 9.114-9.766 12.853-16.322.609-1.068.781-2.064.568-2.936-.221-.904-.875-1.736-1.9-2.43a9 9 0 0 0-.378-.243c-1.143-.678-2.242-.907-3.226-.675-.997.235-1.94.954-2.762 2.168h-.005q-.115.172-.28.448c-2.63 4.421-5.476 8.205-8.634 11.327-3.182 3.147-6.691 5.632-10.628 7.434-1.41.646-2.65.813-3.66.208-.99-.591-1.547-1.806-1.542-3.88l.02-7.23c.002-1.165.314-1.957.903-2.598.525-.571 1.192-.923 2.031-1.3 4.894-2.205 8.798-5.216 11.82-9.027 3.032-3.823 5.19-8.473 6.583-13.939.332-1.305.265-2.575-.264-3.59-.47-.899-1.33-1.632-2.63-2.048-1.282-.41-2.426-.36-3.358.186-.955.558-1.764 1.65-2.365 3.312-.77 2.127-1.673 4.373-2.84 6.448-1.203 2.14-2.686 4.107-4.588 5.6-.569.446-1.204.679-1.848.679-.426 0-.851-.106-1.258-.323a3.2 3.2 0 0 1-.998-.85c-.691-.879-1.17-2.344-1.17-4.441l-.006-20.739c0-1.43-.454-2.738-1.287-3.653-.74-.813-1.8-1.322-3.124-1.325-1.343-.002-2.42.652-3.166 1.633-.807 1.064-1.246 2.5-1.25 3.947-.003 2.124.03 4.263.062 6.401.066 4.317.132 8.635-.1 12.93-.084 1.553-.476 2.926-1.068 3.98-.498.883-1.148 1.568-1.898 1.986a3.48 3.48 0 0 1-2.729.317c-.643-.186-1.282-.556-1.89-1.133a16 16 0 0 1-1.67-1.845 26 26 0 0 1-1.375-1.98 32 32 0 0 1-2.218-4.097 35 35 0 0 1-1.625-4.398 3.7 3.7 0 0 0-.319-.751 4.33 4.33 0 0 0-1.908-1.784 3.9 3.9 0 0 0-2.815-.199 5.2 5.2 0 0 0-1.051.449c-1.14.637-1.804 1.493-2.112 2.438-.376 1.157-.248 2.492.187 3.767 1.841 5.392 3.918 9.247 6.516 12.22 2.586 2.958 5.73 5.084 9.706 7.016 1.297.63 2.24 1.233 3.05 1.895l.001-.003c.794.65 1.436 1.347 2.152 2.183a4.8 4.8 0 0 1 1.033 1.951c.171.65.208 1.318.172 2.025l-.02 2.109a694 694 0 0 1-.042 3.944c-.01.716-.126 1.359-.337 1.917-.323.854-.857 1.52-1.571 1.974-.685.436-1.52.658-2.474.645-.79-.01-1.662-.186-2.591-.537-4.276-1.618-8.072-3.941-11.144-7.074-2.867-2.925-5.094-6.54-6.48-10.926a8 8 0 0 0-.556-1.347c-.607-1.145-1.424-1.91-2.32-2.305a3.8 3.8 0 0 0-2.712-.136 4.5 4.5 0 0 0-.742.311c-1.084.574-1.86 1.441-2.183 2.56-.316 1.097-.224 2.475.4 4.11 2.297 6.03 5.497 11.182 9.94 15.278 4.444 4.097 10.16 7.163 17.493 9.028 1.617.412 2.942 1.14 3.85 2.064 1.001 1.018 1.505 2.264 1.38 3.61zm-.56 5.076c-1.136-1.25-1.82-2.965-1.983-4.88-.15-1.762-.078-7.495.106-9.268.058-.568-.183-1.126-.658-1.61-.585-.594-1.5-1.079-2.665-1.375-7.76-1.974-13.836-5.244-18.59-9.626-4.754-4.383-8.164-9.858-10.598-16.244-.828-2.175-.925-4.099-.459-5.716.528-1.827 1.75-3.219 3.439-4.114a7 7 0 0 1 1.16-.49 6.33 6.33 0 0 1 4.507.235c1.4.619 2.652 1.766 3.545 3.452q.432.81.735 1.765c1.262 3.995 3.277 7.272 5.863 9.91 2.801 2.857 6.287 4.985 10.227 6.476.656.248 1.235.37 1.724.378.441.006.805-.083 1.079-.256.244-.156.433-.399.554-.719q.168-.442.178-1.05c.02-1.388.031-2.644.042-3.934l.02-2.22c.023-.461.005-.878-.092-1.246a2.34 2.34 0 0 0-.505-.945c-.618-.721-1.168-1.319-1.834-1.864v-.005c-.65-.533-1.434-1.03-2.542-1.568-4.275-2.077-7.674-4.386-10.513-7.634-2.827-3.234-5.063-7.361-7.015-13.077-.6-1.755-.757-3.649-.196-5.372.496-1.527 1.536-2.89 3.297-3.873a7.7 7.7 0 0 1 1.57-.668c1.69-.5 3.281-.293 4.618.338a6.9 6.9 0 0 1 3.044 2.85c.229.41.41.837.539 1.27a32 32 0 0 0 1.505 4.069 29 29 0 0 0 2.038 3.768c.43.67.827 1.26 1.246 1.8.411.53.86 1.036 1.41 1.556.302.287.586.46.844.536.272.078.54.038.786-.099.33-.183.643-.532.91-1.009.414-.734.69-1.72.751-2.864.23-4.26.165-8.515.1-12.77-.033-2.14-.066-4.28-.061-6.431.004-1.982.625-3.976 1.767-5.481 1.204-1.587 2.968-2.644 5.189-2.64 2.105.004 3.806.832 5.007 2.152 1.259 1.384 1.944 3.305 1.945 5.367l.006 20.739c0 1.465.259 2.393.631 2.868a.7.7 0 0 0 .191.181.13.13 0 0 0 .063.014c.07 0 .164-.045.274-.131 1.608-1.262 2.886-2.968 3.94-4.843 1.091-1.941 1.943-4.059 2.67-6.068.813-2.247 2.003-3.78 3.47-4.638 1.59-.93 3.432-1.05 5.417-.415h.005c1.988.636 3.334 1.819 4.105 3.294.835 1.599.965 3.502.483 5.393-1.48 5.81-3.795 10.777-7.06 14.896-3.276 4.13-7.494 7.388-12.768 9.764-.56.252-.986.465-1.204.702-.153.167-.235.43-.236.874l-.02 7.23c-.001 1.062.11 1.58.307 1.698.177.106.644-.038 1.299-.337 3.64-1.667 6.907-3.986 9.89-6.936 3.007-2.974 5.722-6.584 8.235-10.81q.153-.256.368-.574l-.003-.002c1.198-1.77 2.669-2.842 4.297-3.225 1.638-.386 3.376-.06 5.099.965l.005.005q.29.174.503.317c1.556 1.053 2.569 2.402 2.947 3.945.367 1.5.119 3.129-.828 4.79-3.876 6.797-8.322 12.526-13.391 16.98-4.88 4.286-10.328 7.387-16.392 9.117-.794.226-1.484.426-1.85.75-.32.284-.515.796-.523 1.77l-.08 9.764-.007.342c-.081 1.957-.722 3.644-1.913 4.86-1.2 1.225-2.918 1.934-5.135 1.916l-.34-.007c-1.862-.076-3.38-.842-4.488-2.061z" style="fill:#fbb604;fill-rule:evenodd" data-source="https://football-logos.cc"></path><path d="M407.502 411.17a4.8 4.8 0 0 1 1.033 1.952c.171.65.208 1.317.172 2.025l-.02 2.108-.042 3.944c-.01.717-.126 1.36-.337 1.918-.323.854-.857 1.52-1.571 1.974-.685.435-1.52.658-2.474.645-.79-.011-1.662-.186-2.591-.538-4.276-1.618-8.072-3.94-11.144-7.074-2.867-2.924-5.094-6.54-6.48-10.926a8 8 0 0 0-.556-1.346c-.607-1.145-1.424-1.91-2.32-2.306a3.8 3.8 0 0 0-2.712-.135 4.5 4.5 0 0 0-.742.31c-1.084.575-1.86 1.442-2.183 2.56-.316 1.098-.224 2.476.4 4.11 2.297 6.032 5.497 11.183 9.94 15.278 4.444 4.097 10.16 7.164 17.493 9.029 1.617.412 2.942 1.139 3.85 2.063 1.001 1.018 1.505 2.264 1.38 3.61l-.098 8.855c.116 1.355.573 2.538 1.323 3.362.664.73 1.578 1.189 2.705 1.235l.26.007c1.474.012 2.575-.417 3.3-1.159.735-.75 1.133-1.856 1.187-3.181l.007-.257.08-9.765c.015-1.812.528-2.9 1.38-3.653.806-.713 1.752-.989 2.837-1.298 5.696-1.626 10.82-4.544 15.415-8.58 4.846-4.257 9.114-9.766 12.853-16.322.609-1.068.781-2.064.568-2.936-.221-.904-.875-1.736-1.9-2.43l-.378-.243c-1.143-.678-2.242-.907-3.226-.675-.997.235-1.94.954-2.762 2.168h-.005l-.28.448c-2.63 4.421-5.476 8.205-8.634 11.327-3.182 3.147-6.691 5.632-10.628 7.434-1.41.646-2.65.813-3.66.208-.99-.591-1.547-1.806-1.542-3.88l.02-7.23c.002-1.165.314-1.957.903-2.598.525-.571 1.192-.923 2.031-1.3 4.894-2.205 8.798-5.216 11.82-9.027 3.032-3.823 5.19-8.473 6.583-13.939.332-1.305.265-2.575-.264-3.59-.47-.899-1.33-1.632-2.63-2.048-1.282-.41-2.426-.36-3.358.186-.955.558-1.764 1.65-2.365 3.312-.77 2.127-1.673 4.373-2.84 6.448-1.203 2.14-2.686 4.107-4.588 5.6-.569.446-1.204.679-1.848.679-.426 0-.851-.106-1.258-.323a3.2 3.2 0 0 1-.998-.85c-.691-.879-1.17-2.344-1.17-4.441l-.006-20.739c0-1.43-.454-2.738-1.287-3.653-.74-.813-1.8-1.322-3.124-1.325-1.343-.002-2.42.652-3.166 1.633-.807 1.064-1.246 2.5-1.25 3.947-.003 2.124.03 4.263.062 6.401.066 4.317.132 8.635-.1 12.93-.084 1.553-.476 2.926-1.068 3.98-.498.883-1.148 1.568-1.898 1.986a3.48 3.48 0 0 1-2.729.317c-.643-.186-1.282-.556-1.89-1.133a16 16 0 0 1-1.67-1.845 26 26 0 0 1-1.375-1.98 32 32 0 0 1-2.218-4.097 35 35 0 0 1-1.625-4.398 3.7 3.7 0 0 0-.319-.751 4.33 4.33 0 0 0-1.908-1.784 3.9 3.9 0 0 0-2.815-.199 5.2 5.2 0 0 0-1.051.449c-1.14.637-1.804 1.493-2.112 2.438-.376 1.157-.248 2.492.187 3.767 1.841 5.392 3.918 9.247 6.516 12.22 2.586 2.959 5.73 5.084 9.706 7.017 1.297.63 2.24 1.232 3.051 1.892.794.65 1.436 1.346 2.153 2.182z" style="fill:#247a4d;fill-rule:evenodd"></path><path d="M439.404 430.695a4.8 4.8 0 0 0-3.627 1.42c-.949.955-1.608 2.369-1.776 4.174-.71 7.639.323 14.148 2.9 19.624 2.677 5.683 7.037 10.284 12.858 13.906.862.537 1.406 1.096 1.653 1.755.296.789.16 1.536-.384 2.328-1.008 1.747-1.34 3.294-1.101 4.613.246 1.362 1.128 2.547 2.519 3.505q.444.3.92.479c1.105.414 2.379.396 3.551.029 1.168-.365 2.215-1.071 2.876-2.033l.005-.005c.19-.278.35-.577.468-.892l1.8-4.8a5 5 0 0 1 1.152-1.815 5.35 5.35 0 0 1 1.819-1.18c5.324-2.132 9.758-5.63 13.398-10.218 3.928-4.95 6.938-11.174 9.147-18.328l.003-.02h.003c.507-1.655.45-3.258-.134-4.556-.565-1.253-1.643-2.241-3.202-2.725l-.122-.036c-1.788-.524-3.268-.258-4.407.525-1.199.825-2.081 2.226-2.6 3.904l-.042.149c-.71 2.413-1.517 4.82-2.605 7.152-1.1 2.358-2.48 4.616-4.323 6.694-.527.595-1.052 1.007-1.545 1.212-.505.21-1 .235-1.471.064-.474-.172-.848-.515-1.104-1.037-.235-.479-.367-1.149-.368-2.018a670 670 0 0 0-.127-12.734c-.08-3.866-.213-7.783-.425-11.737l-10.696.007c-.03 1.554.06 3.985.167 6.824.214 5.742.49 13.12-.033 18.674-.093.993-.282 1.768-.568 2.31q-.432.818-1.185 1.094c-.527.192-1.078.153-1.653-.126q-.746-.359-1.592-1.347c-1.886-2.209-3.283-4.823-4.1-7.857-.77-2.862-1.023-6.101-.68-9.73q.032-.342.044-.67c.07-1.815-.292-3.405-1.123-4.556-.79-1.097-2.053-1.824-3.826-1.992a9 9 0 0 0-.465-.03zm-5.43-.373a7.3 7.3 0 0 1 5.52-2.168q.305.012.608.04h.005c2.566.242 4.436 1.353 5.65 3.038 1.175 1.63 1.693 3.764 1.602 6.13q-.016.409-.055.82c-.312 3.307-.085 6.248.611 8.834.716 2.658 1.932 4.94 3.572 6.86q.218.254.392.423.089-.366.14-.93c.507-5.39.236-12.68.024-18.355-.141-3.787-.256-6.87-.098-8.318l.124-1.135 15.448-.01.07 1.202c.25 4.326.402 8.685.492 13.028.09 4.299.119 8.574.127 12.784l.002.142.043-.048c1.665-1.877 2.92-3.933 3.923-6.085 1.015-2.175 1.784-4.475 2.466-6.8 0-.011.041-.145.05-.162.68-2.21 1.895-4.094 3.589-5.26 1.756-1.207 3.972-1.637 6.574-.873.012 0 .115.03.137.042 2.314.714 3.928 2.207 4.786 4.113.838 1.861.936 4.1.241 6.36l-.003.02h-.003c-2.302 7.45-5.454 13.952-9.582 19.156-3.909 4.926-8.688 8.69-14.445 10.994a2.8 2.8 0 0 0-.962.613c-.246.246-.44.548-.574.907l-1.8 4.8a6.7 6.7 0 0 1-.753 1.445c-.996 1.451-2.53 2.502-4.22 3.03-1.682.527-3.543.54-5.195-.079a6.8 6.8 0 0 1-1.468-.759l-.005-.005c-1.954-1.343-3.206-3.081-3.58-5.153-.348-1.919.078-4.065 1.421-6.376l.027-.047.038-.052c.056-.08.142.036.118-.027-.032-.087-.238-.244-.617-.48-6.236-3.88-10.92-8.836-13.814-14.982-2.77-5.882-3.883-12.83-3.13-20.94.227-2.434 1.157-4.383 2.504-5.737z" style="fill:#fbb604;fill-rule:evenodd"></path><path d="M449.554 455.53c-1.887-2.209-3.283-4.823-4.1-7.857-.771-2.862-1.023-6.101-.681-9.73l.045-.67c.07-1.815-.293-3.405-1.124-4.556-.79-1.097-2.053-1.824-3.826-1.992l-.464-.03a4.8 4.8 0 0 0-3.627 1.42c-.949.955-1.608 2.369-1.776 4.174-.71 7.639.323 14.148 2.9 19.624 2.677 5.683 7.037 10.284 12.858 13.906.862.537 1.406 1.096 1.653 1.755.296.789.16 1.536-.384 2.328-1.008 1.747-1.34 3.294-1.101 4.613.246 1.362 1.128 2.547 2.519 3.505q.444.3.92.479c1.105.414 2.379.396 3.551.029 1.168-.365 2.215-1.071 2.876-2.033l.005-.005c.19-.278.35-.577.468-.892l1.8-4.8a5 5 0 0 1 1.152-1.815 5.35 5.35 0 0 1 1.819-1.18c5.324-2.132 9.758-5.63 13.398-10.218 3.928-4.95 6.938-11.174 9.147-18.328l.006-.02c.507-1.655.45-3.258-.134-4.556-.565-1.253-1.643-2.241-3.202-2.725l-.122-.036c-1.788-.524-3.268-.258-4.407.525-1.199.825-2.081 2.226-2.6 3.904l-.042.149c-.71 2.413-1.517 4.82-2.605 7.152-1.1 2.358-2.48 4.616-4.323 6.694-.527.595-1.052 1.007-1.545 1.212-.505.21-1 .235-1.471.064-.474-.172-.848-.515-1.104-1.037-.235-.479-.367-1.149-.368-2.018a670 670 0 0 0-.127-12.734c-.08-3.866-.213-7.783-.425-11.737l-10.696.007c-.03 1.554.06 3.985.167 6.824.214 5.742.49 13.12-.033 18.674-.093.993-.282 1.768-.568 2.31q-.432.818-1.185 1.094c-.527.192-1.078.153-1.653-.126q-.746-.359-1.592-1.347z" style="fill:#247a4d;fill-rule:evenodd"></path><path d="M383.528 430.695a4.8 4.8 0 0 1 3.626 1.42c.949.955 1.608 2.369 1.776 4.174.71 7.639-.323 14.148-2.9 19.624-2.676 5.683-7.037 10.284-12.858 13.906-.862.537-1.406 1.096-1.653 1.755-.296.789-.16 1.536.384 2.328 1.008 1.747 1.34 3.294 1.101 4.613-.246 1.362-1.128 2.547-2.519 3.505q-.444.3-.92.479c-1.105.414-2.379.396-3.551.029-1.168-.365-2.215-1.071-2.875-2.033l-.005-.005a4.1 4.1 0 0 1-.468-.892l-1.8-4.8a5 5 0 0 0-1.152-1.815 5.35 5.35 0 0 0-1.82-1.18c-5.323-2.132-9.758-5.63-13.398-10.218-3.928-4.95-6.937-11.174-9.147-18.328l-.003-.02h-.003c-.507-1.655-.45-3.258.134-4.556.565-1.253 1.644-2.241 3.202-2.725l.122-.036c1.788-.524 3.268-.258 4.407.525 1.199.825 2.081 2.226 2.6 3.904l.042.149c.71 2.413 1.517 4.82 2.605 7.152 1.1 2.358 2.48 4.616 4.323 6.694.527.595 1.052 1.007 1.545 1.212.505.21 1 .235 1.472.064.473-.172.847-.515 1.103-1.037.235-.479.367-1.149.368-2.018.008-4.179.037-8.431.127-12.734.08-3.866.213-7.783.426-11.737l10.695.007c.03 1.554-.06 3.985-.167 6.824-.214 5.742-.49 13.12.033 18.674.093.993.282 1.768.568 2.31q.432.818 1.185 1.094c.527.192 1.078.153 1.653-.126q.746-.359 1.592-1.347c1.886-2.209 3.283-4.823 4.1-7.857.77-2.862 1.023-6.101.68-9.73a12 12 0 0 1-.044-.67c-.07-1.815.293-3.405 1.123-4.556.79-1.097 2.053-1.824 3.826-1.992q.223-.021.465-.03zm5.43-.373a7.3 7.3 0 0 0-5.52-2.168 11 11 0 0 0-.61.04h-.004c-2.566.242-4.436 1.353-5.65 3.038-1.175 1.63-1.692 3.764-1.601 6.13q.015.409.054.82c.312 3.307.085 6.248-.611 8.834-.716 2.658-1.932 4.94-3.572 6.86q-.218.254-.392.423a7 7 0 0 1-.14-.93c-.507-5.39-.235-12.68-.024-18.355.141-3.787.257-6.87.098-8.318l-.124-1.135-15.448-.01-.07 1.202c-.25 4.326-.401 8.685-.492 13.028a674 674 0 0 0-.127 12.784l-.002.142-.043-.048c-1.665-1.877-2.92-3.933-3.923-6.085-1.015-2.175-1.784-4.475-2.466-6.8a2 2 0 0 0-.05-.162c-.68-2.21-1.895-4.094-3.589-5.26-1.756-1.207-3.972-1.637-6.574-.873a1 1 0 0 0-.137.042c-2.314.714-3.928 2.207-4.786 4.113-.838 1.861-.936 4.1-.241 6.36l.003.02h.003c2.302 7.45 5.454 13.952 9.582 19.156 3.909 4.926 8.688 8.69 14.445 10.994q.578.23.962.613c.246.246.44.548.574.907l1.8 4.8a6.7 6.7 0 0 0 .753 1.445c.996 1.451 2.53 2.502 4.22 3.03 1.682.527 3.543.54 5.195-.079a6.8 6.8 0 0 0 1.468-.759l.005-.005c1.953-1.343 3.206-3.081 3.58-5.153.348-1.919-.078-4.065-1.42-6.376l-.028-.047-.038-.052c-.056-.08-.142.036-.118-.027.032-.087.238-.244.617-.48 6.236-3.88 10.92-8.836 13.814-14.982 2.77-5.882 3.883-12.83 3.13-20.94-.227-2.434-1.157-4.383-2.504-5.737z" style="fill:#fbb604;fill-rule:evenodd"></path><path d="M373.377 455.53c1.887-2.209 3.283-4.823 4.1-7.857.771-2.862 1.023-6.101.681-9.73l-.045-.67c-.07-1.815.293-3.405 1.124-4.556.79-1.097 2.053-1.824 3.826-1.992l.465-.03a4.8 4.8 0 0 1 3.626 1.42c.949.955 1.608 2.369 1.776 4.174.71 7.639-.323 14.148-2.9 19.624-2.676 5.683-7.037 10.284-12.858 13.906-.862.537-1.406 1.096-1.653 1.755-.296.789-.16 1.536.384 2.328 1.008 1.747 1.34 3.294 1.101 4.613-.246 1.362-1.128 2.547-2.519 3.505q-.444.3-.92.479c-1.105.414-2.379.396-3.551.029-1.168-.365-2.215-1.071-2.875-2.033l-.005-.005a4.1 4.1 0 0 1-.468-.892l-1.8-4.8a5 5 0 0 0-1.152-1.815 5.35 5.35 0 0 0-1.82-1.18c-5.323-2.132-9.758-5.63-13.398-10.218-3.928-4.95-6.937-11.174-9.147-18.328l-.006-.02c-.507-1.655-.45-3.258.134-4.556.565-1.253 1.644-2.241 3.202-2.725l.122-.036c1.788-.524 3.268-.258 4.407.525 1.199.825 2.081 2.226 2.6 3.904l.042.149c.71 2.413 1.517 4.82 2.605 7.152 1.1 2.358 2.48 4.616 4.323 6.694.527.595 1.052 1.007 1.545 1.212.505.21 1 .235 1.472.064.473-.172.847-.515 1.103-1.037.235-.479.367-1.149.368-2.018.008-4.179.037-8.431.127-12.734.08-3.866.213-7.783.426-11.737l10.695.007c.03 1.554-.06 3.985-.167 6.824-.214 5.742-.49 13.12.033 18.674.093.993.282 1.768.568 2.31q.432.818 1.185 1.094c.527.192 1.078.153 1.653-.126q.746-.359 1.592-1.347z" style="fill:#247a4d;fill-rule:evenodd"></path><path d="M412.55 456.174h-.038c-.95-.003-1.996.178-2.766.769-.744.57-1.277 1.593-1.288 3.336l-.049 18.975c-.002 1.05-.125 1.893-.388 2.468-.247.542-.618.913-1.123 1.093-.508.18-1.046.128-1.611-.18-.552-.3-1.183-.91-1.897-1.882-3.114-4.231-5-8.655-7.443-14.382l-.973-2.27q-.181-.42-.389-.735c-.5-.762-1.184-1.285-1.938-1.527-.734-.236-1.552-.204-2.344.137q-.342.147-.633.337c-.914.601-1.43 1.358-1.6 2.199-.197.97.03 2.105.607 3.294 3.925 8.098 6.184 12.647 8.066 16.02 1.872 3.353 3.398 5.589 5.86 9.058q.77 1.087.98 1.955.241 1.005-.192 1.778-.435.773-1.409 1.095h-.005q-.853.28-2.205.2c-2.233-.133-4.227-.383-6.272-.895-2.044-.511-4.127-1.281-6.535-2.452a7 7 0 0 0-.466-.208c-1.17-.467-2.269-.513-3.18-.2-.868.298-1.584.938-2.032 1.86v.006a5 5 0 0 0-.14.307c-.259.648-.242 1.618.084 2.549.272.773.76 1.488 1.487 1.91 2.65 1.541 5.598 2.467 8.533 3.388.702.22 1.404.441 2.407.773.59.196 1.21.297 1.834.337.651.043 1.315.02 1.967-.026 4.623-.332 9.26-.522 13.915-.496 4.657.025 9.282.269 13.858.805 1.7.2 3.258.22 4.687.048 1.392-.167 2.663-.52 3.827-1.073l.01-.005c1.033-.478 2.08-.975 3.157-1.512a71 71 0 0 0 3.068-1.616c1.33-.748 2.332-1.618 2.782-2.577.35-.746.354-1.6-.113-2.55l-.085-.169c-.652-1.248-1.47-1.944-2.365-2.186-.924-.25-1.993-.054-3.1.49l-.174.088a27.4 27.4 0 0 1-5.949 2.299c-2.028.517-4.137.794-6.368.84-.63.013-1.16-.099-1.586-.308-.555-.277-.931-.698-1.128-1.227-.179-.478-.19-1.009-.04-1.559.16-.579.51-1.198 1.044-1.795a81.4 81.4 0 0 0 8.01-10.563c2.466-3.872 4.736-8.154 6.84-13.024.381-.882.54-2.024.176-3.04-.272-.76-.865-1.469-1.924-1.964l-.133-.06c-1.085-.478-2.061-.538-2.864-.217-.814.324-1.514 1.064-2.033 2.18l-.061.132c-1.132 2.572-2.276 5.111-3.586 7.602-1.314 2.498-2.789 4.925-4.572 7.24-.87 1.13-1.771 1.627-2.736 1.53-.945-.094-1.729-.75-2.4-1.926-.357-.627-.588-1.24-.82-1.859v-.005c-.061-.162-.126-.334-.263-.67a6.3 6.3 0 0 1-.382-1.385c-.087-.528-.141-1.199-.14-2.1l.01-14.343c.001-1.413-.346-2.431-.927-3.091-.602-.684-1.502-1.015-2.545-1.022zm-.028-2.542h.037c1.772.013 3.34.62 4.448 1.879.974 1.106 1.557 2.69 1.555 4.775l-.01 14.344c-.001.734.042 1.273.111 1.69.058.353.141.613.232.837.054.134.166.431.28.737.2.526.398 1.05.653 1.498.242.424.39.647.437.651.03.003.184-.178.474-.554 1.678-2.177 3.077-4.483 4.333-6.87 1.26-2.395 2.386-4.9 3.506-7.443.027-.055.062-.127.081-.182.799-1.716 1.974-2.894 3.408-3.466 1.446-.577 3.094-.515 4.827.248l.164.075c1.762.82 2.772 2.063 3.26 3.423.602 1.682.364 3.513-.237 4.904-2.161 5.002-4.494 9.4-7.03 13.382a84 84 0 0 1-8.259 10.892c-.216.242-.364.463-.442.649q.088.008.209.005a25.4 25.4 0 0 0 5.791-.77 25 25 0 0 0 5.4-2.08l.233-.118c1.657-.814 3.332-1.087 4.875-.67 1.571.425 2.947 1.534 3.96 3.472l.114.228c.841 1.713.807 3.305.133 4.743-.695 1.481-2.069 2.73-3.839 3.723a73 73 0 0 1-3.177 1.676c-1.03.513-2.114 1.026-3.226 1.542-1.417.67-2.946 1.098-4.605 1.297-1.626.196-3.378.175-5.275-.048-4.525-.53-9.053-.77-13.579-.796-4.529-.025-9.112.166-13.726.496-.745.054-1.516.079-2.305.027a9.9 9.9 0 0 1-2.472-.466c-.58-.193-1.474-.473-2.367-.754-3.07-.963-6.153-1.932-9.051-3.617-1.302-.757-2.158-1.976-2.613-3.275-.524-1.495-.515-3.144-.045-4.323q.122-.305.21-.487c.76-1.556 1.99-2.644 3.498-3.162 1.467-.503 3.179-.453 4.943.25a10 10 0 0 1 .635.279c2.24 1.089 4.167 1.802 6.048 2.272 1.88.47 3.727.702 5.803.826q.752.044 1.155-.05-.128-.37-.548-.962c-2.51-3.54-4.07-5.826-6.008-9.297-1.925-3.45-4.2-8.028-8.136-16.15-.814-1.68-1.118-3.361-.807-4.899.305-1.503 1.174-2.822 2.697-3.823q.523-.343 1.021-.556a5.84 5.84 0 0 1 4.128-.217c1.296.416 2.455 1.29 3.284 2.553a7.3 7.3 0 0 1 .608 1.123l.973 2.28c2.376 5.573 4.213 9.878 7.154 13.875q.226.307.412.532a11 11 0 0 0 .013-.527c.016-6.327.007-12.659.049-18.985.018-2.67.963-4.336 2.284-5.349 1.291-.99 2.895-1.29 4.316-1.287zm-11.353 41.74c.014-.026.008-.016-.005.002-.006.015-.007.019.005-.003" style="fill:#fbb604;fill-rule:evenodd"></path><path d="m412.768 456.371-.34-.007a7 7 0 0 1-.979-.108c-.615.102-1.214.312-1.703.687-.743.57-1.277 1.594-1.288 3.336l-.049 18.975c-.002 1.05-.125 1.893-.388 2.468-.247.542-.618.914-1.123 1.093-.508.18-1.046.129-1.611-.179-.551-.3-1.183-.911-1.897-1.883-3.114-4.23-5-8.655-7.443-14.382l-.973-2.27q-.181-.42-.388-.735c-.501-.762-1.184-1.285-1.939-1.527-.734-.236-1.552-.203-2.344.137q-.342.147-.633.337c-.914.601-1.43 1.359-1.6 2.2-.197.97.03 2.104.607 3.294 3.925 8.097 6.184 12.646 8.066 16.02 1.872 3.352 3.398 5.588 5.86 9.057q.77 1.087.98 1.955.242 1.005-.192 1.778-.435.774-1.409 1.095h-.005q-.853.28-2.205.2c-2.233-.133-4.227-.383-6.271-.895-2.045-.511-4.128-1.28-6.536-2.451l-.466-.21c-1.17-.466-2.269-.512-3.18-.2-.868.299-1.584.94-2.032 1.862v.005l-.14.307c-.259.648-.242 1.618.084 2.55.272.772.76 1.487 1.487 1.91 2.65 1.54 5.598 2.466 8.533 3.387.702.22 1.404.441 2.407.774.59.195 1.21.296 1.834.337.651.042 1.315.02 1.967-.027 4.623-.331 9.26-.522 13.915-.496 4.657.026 9.282.27 13.858.806 1.7.199 3.258.22 4.687.048 1.392-.168 2.663-.521 3.827-1.074l.01-.005c1.033-.478 2.08-.975 3.157-1.512a71 71 0 0 0 3.068-1.616c1.33-.748 2.332-1.618 2.782-2.577.35-.746.354-1.6-.113-2.55l-.085-.168c-.652-1.249-1.47-1.945-2.365-2.187-.924-.25-1.993-.054-3.1.49l-.174.089a27.4 27.4 0 0 1-5.949 2.298c-2.028.517-4.137.794-6.368.84-.63.013-1.16-.098-1.586-.308-.555-.276-.931-.698-1.128-1.226-.179-.479-.19-1.01-.04-1.56.16-.578.51-1.198 1.044-1.795a81.4 81.4 0 0 0 8.01-10.563c2.466-3.872 4.736-8.153 6.84-13.024.381-.882.54-2.023.176-3.04-.272-.76-.865-1.469-1.924-1.963l-.133-.06c-1.085-.478-2.061-.538-2.864-.218-.814.324-1.514 1.064-2.033 2.18l-.061.132c-1.132 2.572-2.276 5.112-3.586 7.602-1.314 2.499-2.789 4.925-4.572 7.24-.87 1.13-1.771 1.627-2.736 1.53-.945-.094-1.729-.749-2.4-1.926-.357-.627-.588-1.24-.82-1.858v-.005l-.263-.67a6.3 6.3 0 0 1-.382-1.386c-.087-.528-.141-1.198-.14-2.1l.01-14.343c.001-1.412-.346-2.43-.927-3.091-.366-.415-.841-.7-1.392-.862q-.45.041-.935.038" style="fill:#247a4d;fill-rule:evenodd"></path><path d="M412.002 510.222c-1.111.01-1.984.409-2.572 1.089-.65.75-1 1.867-.996 3.218l.046 14.204c.003 1.008-.227 1.857-.608 2.487l.004.002c-.324.536-.762.928-1.275 1.152a2.5 2.5 0 0 1-1.761.09c-.579-.177-1.154-.556-1.673-1.158-2.137-2.478-3.948-5.08-5.19-7.749-1.271-2.737-1.948-5.548-1.776-8.376.076-1.255-.18-2.44-.843-3.266-.545-.68-1.408-1.143-2.64-1.221l-.182-.01c-.979-.015-1.816.363-2.422 1.003-.643.68-1.049 1.664-1.121 2.812l-.014.278c-.08 5.249 1.65 10.561 4.56 15.373 3.137 5.187 7.635 9.776 12.722 13.076.62.403 1.135.768 1.534 1.228.509.587.779 1.243.74 2.1q-.017.383-.009.711c.038 1.525.448 2.556 1.049 3.196.554.59 1.3.866 2.064.901h.005q.143.007.264.004l.055-.001c1.061-.036 1.98-.368 2.603-1.03.645-.686 1.021-1.768.984-3.297l-.002-.08c-.032-.964.222-1.746.712-2.417.45-.617 1.067-1.09 1.82-1.505 4.89-2.688 8.811-6.355 11.719-11.066 2.927-4.743 4.842-10.571 5.699-17.55q.033-.276.03-.474v-.005a3.18 3.18 0 0 0-.89-2.151c-.53-.559-1.23-.922-1.934-1.008a3 3 0 0 0-.35-.024c-1.251.02-2.182.366-2.817.923-.68.597-1.052 1.478-1.136 2.481-.29 3.47-1.046 6.706-2.296 9.693a27.8 27.8 0 0 1-5.285 8.198c-.76.822-1.534 1.261-2.44 1.142-.855-.113-1.596-.713-2.261-1.952-.218-.406-.347-.849-.42-1.385-.058-.436-.076-.945-.078-1.573l-.05-14.28c-.01-1.151-.4-2.112-1.04-2.775-.619-.639-1.492-1.01-2.496-1.009zm-4.495-.576c1.062-1.229 2.583-1.948 4.475-1.965h.043c1.722-.006 3.24.65 4.338 1.786 1.077 1.113 1.731 2.68 1.749 4.518 0 4.765.033 9.534.05 14.3.001.507.015.91.058 1.235v.005c.03.221.073.387.14.512.238.443.345.637.348.637.046.006.052-.133.248-.345a25.3 25.3 0 0 0 4.797-7.451c1.145-2.735 1.839-5.716 2.107-8.925.138-1.641.792-3.123 2.002-4.185 1.07-.94 2.549-1.522 4.452-1.551q.382-.006.698.033c1.28.157 2.534.8 3.468 1.785a5.73 5.73 0 0 1 1.589 3.871q.008.436-.04.822c-.9 7.339-2.94 13.508-6.068 18.577-3.148 5.101-7.384 9.065-12.655 11.964-.452.248-.796.497-.993.766-.156.214-.236.485-.225.843l.003.095c.057 2.26-.581 3.947-1.67 5.105-1.112 1.181-2.65 1.77-4.378 1.827l-.07.002a6 6 0 0 1-.449-.004c-1.386-.064-2.757-.583-3.803-1.698-1-1.066-1.68-2.656-1.736-4.88q-.011-.435.01-.88a.45.45 0 0 0-.124-.326c-.194-.224-.55-.47-.995-.76-5.407-3.508-10.187-8.383-13.52-13.894-3.14-5.191-5.004-10.964-4.917-16.718q.003-.258.013-.407c.11-1.746.768-3.287 1.819-4.396 1.086-1.149 2.572-1.827 4.295-1.8l.31.01c2.024.127 3.49.95 4.466 2.166 1.085 1.354 1.513 3.162 1.4 5.01-.144 2.38.444 4.787 1.548 7.161 1.135 2.441 2.812 4.845 4.801 7.151.194.225.358.351.486.39.013.004 0 .014.007.011q.038-.017.11-.135h.005c.151-.25.243-.647.241-1.175l-.046-14.204c-.006-1.972.56-3.666 1.613-4.883z" style="fill:#fbb604;fill-rule:evenodd"></path><path d="M406.215 549.247c-4.976.905-9.55 2.982-13.372 4.976-3.409 1.778-6.484 2.828-6.888 4.963-.328 1.738.554 3.074 1.805 3.762 1.551.852 2.792.055 4.217-.726 3.512-1.927 6.85-3.326 9.984-3.493 3.885-.207 5.486 3.594 5.683 6.422.313 4.469-.19 8.22-.376 11.52-.173 3.068 2.07 4.752 4.089 4.839 2.457.107 4.705-2.023 4.453-4.664-.435-4.541-.403-8.576.116-11.906.622-3.985 2.159-7.629 6.328-7.477 3.551.128 6.958 2.702 9.973 5.12 1.234.991 3.178.994 4.336-.093 1.105-1.037 1.57-2.098.832-3.868-1.036-2.48-3.998-3.656-6.317-5.016-3.774-2.215-7.958-4.066-12.727-4.688-4.012-.523-8.155-.396-12.136.329" style="fill:#fbb604;fill-rule:evenodd"></path><path d="M406.6 532.375a2.5 2.5 0 0 1-1.76.089c-.58-.177-1.155-.556-1.673-1.157-2.138-2.479-3.949-5.08-5.19-7.75-1.272-2.736-1.948-5.547-1.776-8.376.076-1.255-.18-2.44-.843-3.266-.545-.68-1.408-1.143-2.641-1.221l-.182-.01c-.978-.015-1.816.363-2.421 1.004-.644.68-1.05 1.664-1.122 2.811l-.013.278c-.08 5.25 1.65 10.562 4.56 15.373 3.136 5.188 7.635 9.776 12.721 13.077.62.402 1.136.768 1.534 1.227.51.588.78 1.243.74 2.1q-.015.384-.008.712c.038 1.524.448 2.555 1.049 3.195.554.59 1.3.867 2.063.901h.005q.144.007.265.004h.054c1.062-.037 1.98-.369 2.604-1.032.645-.685 1.021-1.766.984-3.296l-.002-.08c-.033-.964.222-1.745.712-2.417.45-.616 1.067-1.09 1.82-1.504 4.89-2.689 8.811-6.355 11.718-11.067 2.928-4.743 4.843-10.57 5.7-17.55q.033-.276.03-.474v-.005a3.18 3.18 0 0 0-.891-2.151c-.53-.559-1.229-.922-1.934-1.008a3 3 0 0 0-.35-.024c-1.25.02-2.182.366-2.817.924-.679.596-1.051 1.477-1.135 2.48-.29 3.47-1.046 6.706-2.296 9.693a27.8 27.8 0 0 1-5.285 8.198c-.76.822-1.535 1.262-2.44 1.142-.855-.113-1.596-.713-2.262-1.952-.218-.405-.347-.848-.419-1.384-.059-.437-.076-.945-.078-1.574l-.05-14.28c-.011-1.151-.4-2.112-1.041-2.774-.618-.64-1.49-1.01-2.495-1.01l-.033.001c-1.111.01-1.983.409-2.572 1.089-.65.75-1 1.868-.996 3.219l.046 14.203c.003 1.008-.227 1.857-.604 2.49-.324.536-.762.928-1.276 1.152z" style="fill:#247a4d;fill-rule:evenodd"></path><path d="M483.536 530.362c1.834-.093 3.783-.61 5.643-1.617 1.683-.911 3.289-2.225 4.665-3.989 3.855-4.939 6.865-10.478 9.956-16.168l.85-1.564c.67-1.227 1.235-2.556 1.448-3.847.193-1.175.09-2.324-.518-3.325-.89-1.465-2.296-2.211-3.791-3.005l-.61-.328a4 4 0 0 0-.311-.155c-.689-.301-1.253-.294-1.693-.096-.472.211-.86.647-1.141 1.166a4 4 0 0 0-.148.3l-.192.438c-2.999 6.846-5.74 13.103-11.386 17.528-.966.757-2.007 1.245-2.996 1.407-.681.112-1.347.073-1.962-.132a3.5 3.5 0 0 1-1.671-1.19c-.453-.578-.781-1.337-.938-2.288-.13-.794-.102-1.647.035-2.508.149-.932.43-1.885.773-2.779a69 69 0 0 0 2.98-10.003 84 84 0 0 0 1.534-9.913c.048-.494.046-.872-.043-1.11-.04-.104-.138-.194-.32-.272l-8.718-3.75c-.401-.172-.599-.234-.628-.207-.149.14-.221.595-.235 1.294-.097 4.715-.82 9.249-1.974 13.67-1.151 4.407-2.727 8.694-4.538 12.93-.509 1.191-1.147 2.182-1.863 2.851-.613.574-1.292.93-2.018 1.01-.78.087-1.552-.135-2.28-.727-.586-.476-1.142-1.209-1.64-2.236-.86-1.772-.96-3.61-1.06-5.488l-.056-.94-.968-14.55c-.04-.916-.22-1.583-.55-1.972-.246-.292-.647-.439-1.213-.428l-4.64.094c-.64.013-1.068.212-1.335.562-.34.448-.527 1.172-.607 2.101.062 5.252.167 10.55.271 15.847l.082 4.195c.014.696.045 1.392.16 2.042.096.538.25 1.018.51 1.386a142 142 0 0 0 2.27 3.108c.817 1.096 1.633 2.193 2.387 3.267 1.19 1.695 1.852 3.605 1.75 5.577-.09 1.787-.807 3.59-2.32 5.283-3.307 3.703-7.426 6.785-11.492 9.826v.005c-.96.719-1.916 1.433-2.604 1.958-1.172.894-2.332 1.82-3.362 2.796-1.025.969-1.962 2.015-2.725 3.172-.518.786-.764 1.647-.727 2.47.035.78.332 1.54.9 2.178.942 1.062 2.006 1.617 3.18 1.716 1.245.105 2.656-.272 4.217-1.077 4.951-3.039 9.754-6.277 14.463-9.665 4.7-3.382 9.351-6.946 13.99-10.63 1.887-1.498 4.025-2.499 6.297-3.154 2.224-.641 4.563-.946 6.912-1.064m6.849.625c-2.2 1.192-4.526 1.805-6.73 1.916-2.178.11-4.327.386-6.333.965-1.958.564-3.795 1.423-5.411 2.706-4.621 3.67-9.295 7.25-14.09 10.7-4.782 3.44-9.643 6.719-14.634 9.78l-.075.04c-2.022 1.056-3.915 1.546-5.664 1.399-1.835-.155-3.467-.987-4.875-2.573a6 6 0 0 1-1.537-3.753c-.061-1.347.326-2.731 1.146-3.974.878-1.333 1.944-2.525 3.103-3.62 1.152-1.091 2.361-2.06 3.56-2.975 1.037-.79 1.832-1.386 2.625-1.979l.002.003c3.967-2.967 7.984-5.973 11.122-9.485 1.094-1.225 1.61-2.491 1.672-3.72.07-1.369-.418-2.736-1.292-3.982-.796-1.133-1.572-2.175-2.347-3.217a149 149 0 0 1-2.311-3.158c-.501-.711-.782-1.535-.938-2.412-.135-.765-.173-1.599-.19-2.435l-.081-4.19c-.105-5.31-.21-10.62-.272-15.978v-.115c.119-1.402.46-2.575 1.126-3.45.743-.976 1.81-1.528 3.307-1.558l4.64-.094c1.388-.028 2.45.428 3.207 1.324.702.83 1.076 2 1.147 3.477.344 5.163.728 10.334 1.024 15.5.087 1.615.173 3.195.812 4.512.328.676.648 1.121.953 1.369.157.128.29.18.396.168.16-.018.352-.135.563-.332.447-.419.879-1.113 1.255-1.994 1.77-4.142 3.306-8.315 4.418-12.572 1.108-4.245 1.801-8.586 1.894-13.081.029-1.385.341-2.446 1.033-3.098.812-.766 1.91-.903 3.373-.281l8.723 3.75c.874.376 1.404.949 1.696 1.728.242.647.275 1.38.192 2.235-.33 3.401-.828 6.807-1.574 10.212a71.6 71.6 0 0 1-3.1 10.372 11.5 11.5 0 0 0-.633 2.27c-.096.605-.119 1.187-.035 1.7.084.51.233.883.43 1.133.132.17.294.282.475.342.21.07.464.08.746.033.571-.094 1.21-.405 1.84-.898 5.135-4.025 7.754-10.002 10.62-16.542l.19-.438q.116-.264.238-.49c.529-.975 1.318-1.82 2.347-2.282 1.06-.475 2.324-.536 3.746.087q.262.115.501.244l.599.318c1.805.959 3.502 1.86 4.768 3.942.965 1.587 1.141 3.32.857 5.05-.266 1.61-.938 3.207-1.726 4.654l-.85 1.563c-3.141 5.781-6.2 11.41-10.187 16.517-1.607 2.06-3.488 3.598-5.462 4.667z" style="fill:#fbb604;fill-rule:evenodd"></path><path d="M483.536 530.362c1.834-.093 3.783-.61 5.643-1.617 1.683-.911 3.289-2.225 4.665-3.989 3.855-4.939 6.865-10.478 9.956-16.168l.85-1.564c.67-1.227 1.235-2.556 1.448-3.847.193-1.175.09-2.324-.518-3.325-.89-1.465-2.296-2.211-3.791-3.005l-.61-.328-.311-.155c-.689-.301-1.253-.294-1.693-.096-.472.211-.86.647-1.141 1.166l-.148.3-.192.438c-2.999 6.846-5.74 13.103-11.386 17.528-.966.757-2.007 1.245-2.996 1.407-.681.112-1.347.073-1.962-.132a3.5 3.5 0 0 1-1.671-1.19c-.453-.578-.781-1.337-.938-2.288-.13-.794-.102-1.647.035-2.508.149-.932.43-1.885.773-2.779a69 69 0 0 0 2.98-10.003 84 84 0 0 0 1.534-9.913c.048-.494.046-.872-.043-1.11-.04-.104-.138-.194-.32-.272l-8.718-3.75c-.401-.172-.599-.234-.628-.207-.149.14-.221.595-.235 1.294-.097 4.715-.82 9.249-1.974 13.67-1.151 4.407-2.727 8.694-4.538 12.93-.509 1.191-1.147 2.182-1.863 2.851-.613.574-1.292.93-2.018 1.01-.78.087-1.552-.135-2.28-.727-.586-.476-1.142-1.209-1.64-2.236-.86-1.772-.96-3.61-1.06-5.488l-.056-.94-.968-14.55c-.04-.916-.22-1.583-.55-1.972-.246-.292-.647-.439-1.213-.428l-4.64.094c-.64.013-1.068.212-1.335.562-.34.448-.527 1.172-.607 2.101.062 5.252.167 10.55.271 15.847l.082 4.195c.014.696.045 1.392.16 2.042.096.538.25 1.018.51 1.386a142 142 0 0 0 2.27 3.108c.817 1.096 1.633 2.193 2.387 3.267 1.19 1.695 1.852 3.605 1.75 5.577-.09 1.787-.807 3.59-2.32 5.283-3.307 3.703-7.426 6.785-11.492 9.826v.005l-2.604 1.958c-1.172.894-2.332 1.82-3.362 2.796-1.025.969-1.962 2.015-2.725 3.172-.518.786-.764 1.647-.727 2.47.035.78.332 1.54.9 2.178.942 1.062 2.006 1.617 3.18 1.716 1.245.105 2.656-.272 4.217-1.077 4.951-3.039 9.754-6.277 14.463-9.665 4.7-3.382 9.351-6.946 13.99-10.63 1.887-1.498 4.025-2.499 6.297-3.154 2.224-.641 4.563-.946 6.912-1.064" style="fill:#247a4d;fill-rule:evenodd"></path><path d="M340.431 530.362c-1.834-.093-3.783-.61-5.643-1.617-1.683-.911-3.289-2.225-4.665-3.989-3.855-4.939-6.865-10.478-9.957-16.168l-.85-1.564c-.669-1.227-1.234-2.556-1.447-3.847-.193-1.175-.09-2.324.518-3.325.89-1.465 2.296-2.211 3.791-3.005l.61-.328q.174-.095.31-.155c.69-.301 1.254-.294 1.694-.096.472.211.86.647 1.14 1.166q.089.161.149.3l.192.438c2.999 6.846 5.74 13.103 11.386 17.528.966.757 2.007 1.245 2.996 1.407.681.112 1.347.073 1.962-.132a3.5 3.5 0 0 0 1.67-1.19c.454-.578.782-1.337.939-2.288.13-.794.102-1.647-.035-2.508-.149-.932-.43-1.885-.773-2.779a69 69 0 0 1-2.98-10.003 84 84 0 0 1-1.534-9.913c-.048-.494-.046-.872.043-1.11.039-.104.138-.194.32-.272l8.718-3.75c.401-.172.599-.234.627-.207.15.14.222.595.236 1.294.097 4.715.82 9.249 1.974 13.67 1.151 4.407 2.727 8.694 4.538 12.93.509 1.191 1.147 2.182 1.862 2.851.614.574 1.293.93 2.019 1.01.78.087 1.551-.135 2.28-.727.586-.476 1.142-1.209 1.64-2.236.86-1.772.959-3.61 1.06-5.488l.056-.94.967-14.55c.042-.916.221-1.583.55-1.972.247-.292.648-.439 1.214-.428l4.64.094c.64.013 1.068.212 1.335.562.34.448.527 1.172.607 2.101-.062 5.252-.167 10.55-.271 15.847l-.082 4.195c-.014.696-.045 1.392-.16 2.042-.096.538-.25 1.018-.51 1.386a142 142 0 0 1-2.27 3.108c-.817 1.096-1.633 2.193-2.387 3.267-1.19 1.695-1.852 3.605-1.75 5.577.09 1.787.807 3.59 2.32 5.283 3.307 3.703 7.426 6.785 11.492 9.826v.005c.96.719 1.916 1.433 2.604 1.958 1.172.894 2.332 1.82 3.362 2.796 1.025.969 1.962 2.015 2.725 3.172.518.786.764 1.647.727 2.47a3.5 3.5 0 0 1-.9 2.178c-.942 1.062-2.006 1.617-3.18 1.716-1.245.105-2.656-.272-4.217-1.077-4.952-3.039-9.754-6.277-14.463-9.665-4.701-3.382-9.351-6.946-13.99-10.63-1.887-1.498-4.025-2.499-6.297-3.154-2.225-.641-4.563-.946-6.912-1.064m-6.849.625c2.2 1.192 4.526 1.805 6.73 1.916 2.178.11 4.327.386 6.333.965 1.957.564 3.795 1.423 5.411 2.706 4.621 3.67 9.295 7.25 14.09 10.7 4.782 3.44 9.643 6.719 14.634 9.78l.074.04c2.023 1.056 3.916 1.546 5.665 1.399 1.835-.155 3.467-.987 4.875-2.573a6 6 0 0 0 1.537-3.753c.061-1.347-.326-2.731-1.146-3.974-.878-1.333-1.944-2.525-3.103-3.62-1.153-1.091-2.361-2.06-3.56-2.975a324 324 0 0 0-2.625-1.979l-.003.003c-3.967-2.967-7.984-5.973-11.122-9.485-1.094-1.225-1.61-2.491-1.672-3.72-.07-1.369.418-2.736 1.292-3.982.796-1.133 1.572-2.175 2.347-3.217a150 150 0 0 0 2.311-3.158c.501-.711.782-1.535.938-2.412.135-.765.173-1.599.19-2.435l.081-4.19c.105-5.31.21-10.62.272-15.978v-.115c-.119-1.402-.46-2.575-1.126-3.45-.743-.976-1.81-1.528-3.307-1.558l-4.64-.094c-1.388-.028-2.45.428-3.208 1.324-.701.83-1.075 2-1.146 3.477-.344 5.163-.728 10.334-1.024 15.5-.087 1.615-.173 3.195-.812 4.512-.328.676-.648 1.121-.953 1.369-.157.128-.29.18-.396.168-.16-.018-.352-.135-.563-.332-.447-.419-.879-1.113-1.255-1.994-1.77-4.142-3.306-8.315-4.418-12.572-1.108-4.245-1.801-8.586-1.894-13.081-.029-1.385-.341-2.446-1.033-3.098-.812-.766-1.91-.903-3.373-.281l-8.723 3.75c-.874.376-1.404.949-1.696 1.728-.242.647-.275 1.38-.192 2.235.33 3.401.828 6.807 1.574 10.212a71.6 71.6 0 0 0 3.1 10.372c.282.736.512 1.514.633 2.27.096.605.119 1.187.035 1.7-.084.51-.233.883-.43 1.133a1 1 0 0 1-.475.342c-.21.07-.464.08-.746.033-.571-.094-1.21-.405-1.84-.898-5.135-4.025-7.754-10.002-10.62-16.542l-.19-.438a7 7 0 0 0-.238-.49c-.529-.975-1.318-1.82-2.347-2.282-1.06-.475-2.324-.536-3.746.087a7 7 0 0 0-.501.244l-.599.318c-1.806.959-3.502 1.86-4.768 3.942-.965 1.587-1.141 3.32-.857 5.05.266 1.61.937 3.207 1.726 4.654l.85 1.563c3.141 5.781 6.2 11.41 10.186 16.517 1.608 2.06 3.488 3.598 5.463 4.667z" style="fill:#fbb604;fill-rule:evenodd"></path><path d="M340.431 530.362c-1.834-.093-3.783-.61-5.643-1.617-1.683-.911-3.289-2.225-4.665-3.989-3.855-4.939-6.865-10.478-9.957-16.168l-.85-1.564c-.669-1.227-1.234-2.556-1.447-3.847-.193-1.175-.09-2.324.518-3.325.89-1.465 2.296-2.211 3.791-3.005l.61-.328.31-.155c.69-.301 1.254-.294 1.694-.096.472.211.86.647 1.14 1.166l.149.3.192.438c2.999 6.846 5.74 13.103 11.386 17.528.966.757 2.007 1.245 2.996 1.407.681.112 1.347.073 1.962-.132a3.5 3.5 0 0 0 1.67-1.19c.454-.578.782-1.337.939-2.288.13-.794.102-1.647-.035-2.508-.149-.932-.43-1.885-.773-2.779a69 69 0 0 1-2.98-10.003 84 84 0 0 1-1.534-9.913c-.048-.494-.046-.872.043-1.11.039-.104.138-.194.32-.272l8.718-3.75c.401-.172.599-.234.627-.207.15.14.222.595.236 1.294.097 4.715.82 9.249 1.974 13.67 1.151 4.407 2.727 8.694 4.538 12.93.509 1.191 1.147 2.182 1.862 2.851.614.574 1.293.93 2.019 1.01.78.087 1.551-.135 2.28-.727.586-.476 1.142-1.209 1.64-2.236.86-1.772.959-3.61 1.06-5.488l.056-.94.967-14.55c.042-.916.221-1.583.55-1.972.247-.292.648-.439 1.214-.428l4.64.094c.64.013 1.068.212 1.335.562.34.448.527 1.172.607 2.101-.062 5.252-.167 10.55-.271 15.847l-.082 4.195c-.014.696-.045 1.392-.16 2.042-.096.538-.25 1.018-.51 1.386a142 142 0 0 1-2.27 3.108c-.817 1.096-1.633 2.193-2.387 3.267-1.19 1.695-1.852 3.605-1.75 5.577.09 1.787.807 3.59 2.32 5.283 3.307 3.703 7.426 6.785 11.492 9.826v.005l2.604 1.958c1.172.894 2.332 1.82 3.362 2.796 1.025.969 1.962 2.015 2.725 3.172.518.786.764 1.647.727 2.47a3.5 3.5 0 0 1-.9 2.178c-.942 1.062-2.006 1.617-3.18 1.716-1.245.105-2.656-.272-4.217-1.077-4.952-3.039-9.754-6.277-14.463-9.665-4.701-3.382-9.351-6.946-13.99-10.63-1.887-1.498-4.025-2.499-6.297-3.154-2.225-.641-4.563-.946-6.912-1.064" style="fill:#247a4d;fill-rule:evenodd"></path><path d="M106.522 151.53a23877 23877 0 0 0-19.86 30.28c-5.518 8.42-11.062 16.88-19.892 30.288 7.332 12.733 12.588 27.972 16.29 44.093 4.735 20.619 6.93 42.73 7.685 62.85.642 17.122-1.512 44.611-3.788 73.662v.014c-.845 10.782-1.706 21.775-2.416 32.015-1.827 26.379-3.523 56.657.847 86.615 4.331 29.694 14.643 59.177 36.782 84.376 22.585 25.707 50.009 44.352 80.059 59.177 29.88 14.74 62.422 25.729 95.412 36.116 32.963-10.382 65.416-21.498 95.255-36.388 29.989-14.964 57.345-33.744 79.928-59.448 22.136-25.196 32.36-54.572 36.605-84.161 4.28-29.841 2.496-60.017.668-86.4-.635-9.163-1.38-18.976-2.114-28.657-2.297-30.273-4.494-59.225-3.827-76.996.751-20.022 3.04-41.983 7.82-62.474 3.785-16.225 9.138-31.571 16.53-44.395a13376 13376 0 0 1-19.892-30.288c-7.584-11.573-15.166-23.145-19.843-30.254-24.879 3.481-54.775 5.692-87.051 7.053-33.085 1.395-68.737 1.895-104.056 1.957-37.497.067-74.726-.565-109.262-2.23-29.726-1.433-57.525-3.63-81.88-6.806m-25.784 26.404c5.768-8.803 11.537-17.606 21.108-32.133l1.223-1.856 2.181.292c24.652 3.3 53.033 5.571 83.484 7.04 34.528 1.664 71.63 2.296 108.93 2.23 35.15-.063 70.685-.562 103.78-1.958 32.942-1.39 63.404-3.674 88.54-7.312l2.205-.32 1.24 1.884c9.572 14.527 15.34 23.33 21.109 32.133 8.295 12.66 16.564 25.279 21.08 32.133l1.23 1.868-1.147 1.897c-7.572 12.52-13.013 27.896-16.832 44.266-4.68 20.059-6.92 41.54-7.655 61.117-.647 17.252 1.54 46.08 3.828 76.221.712 9.39 1.435 18.913 2.114 28.713 1.852 26.732 3.657 57.323-.723 87.866-4.417 30.795-15.107 61.423-38.294 87.815-23.288 26.507-51.367 45.809-82.088 61.138-30.551 15.245-63.711 26.556-97.358 37.134l-1.051.33-1.052-.33c-33.621-10.57-66.833-21.74-97.49-36.862-30.802-15.197-58.96-34.363-82.245-60.866-23.184-26.39-33.963-57.126-38.471-88.03-4.47-30.644-2.754-61.348-.902-88.083.76-10.958 1.596-21.632 2.416-32.098 2.267-28.917 4.41-56.278 3.788-72.873-.74-19.705-2.887-41.353-7.519-61.522-3.731-16.247-9.074-31.505-16.592-43.936l-1.147-1.897 1.23-1.868c4.516-6.854 12.784-19.473 21.08-32.133" style="fill:#000;fill-rule:evenodd"></path><path d="M88.048 303.078H507.45v26.363H88.048Zm324.973 60.58c2.106.004 3.807.83 5.008 2.151 1.258 1.384 1.944 3.305 1.945 5.367l.006 20.739c0 1.465.258 2.393.631 2.868a.7.7 0 0 0 .191.181l.063.014c.07 0 .164-.045.273-.13 1.609-1.263 2.887-2.969 3.94-4.844 1.092-1.941 1.943-4.058 2.67-6.068.814-2.247 2.004-3.78 3.472-4.638 1.59-.93 3.431-1.05 5.416-.415h.005c1.988.636 3.334 1.819 4.105 3.294.834 1.6.965 3.502.483 5.393-1.48 5.81-3.795 10.777-7.06 14.896-3.276 4.13-7.494 7.388-12.768 9.764-.56.252-.986.466-1.204.702-.153.167-.235.43-.236.874l-.02 7.23c-.001 1.062.11 1.58.307 1.698.177.106.644-.038 1.299-.337 3.64-1.667 6.907-3.986 9.89-6.936 3.007-2.974 5.722-6.584 8.235-10.81l.365-.576c1.198-1.77 2.668-2.842 4.296-3.225 1.639-.386 3.376-.06 5.1.965l.004.005.504.317c1.555 1.053 2.569 2.402 2.946 3.945.367 1.5.12 3.129-.828 4.79-3.876 6.797-8.322 12.526-13.39 16.98q-.204.179-.409.354.607-.075 1.233-.052l.61.04h.005c2.566.243 4.435 1.354 5.65 3.038 1.175 1.63 1.692 3.764 1.601 6.13q-.016.409-.054.82c-.312 3.308-.086 6.248.61 8.834.716 2.658 1.933 4.94 3.572 6.86q.218.255.392.423.09-.366.141-.93c.507-5.39.235-12.68.023-18.354-.14-3.788-.256-6.872-.098-8.318l.125-1.135 15.448-.01.07 1.2c.25 4.327.401 8.686.492 13.03.09 4.298.118 8.573.126 12.783l.002.142.043-.048c1.666-1.877 2.92-3.932 3.924-6.085 1.015-2.175 1.783-4.475 2.465-6.799l.05-.162c.68-2.211 1.895-4.095 3.59-5.26 1.756-1.208 3.971-1.638 6.573-.874l.137.042c2.314.714 3.928 2.207 4.787 4.114.838 1.86.936 4.099.24 6.359l-.005.02c-2.302 7.45-5.454 13.952-9.583 19.156-3.908 4.926-8.688 8.69-14.444 10.994a2.8 2.8 0 0 0-.963.613c-.246.247-.44.549-.574.907l-1.8 4.8a6.7 6.7 0 0 1-.753 1.445c-.995 1.451-2.53 2.502-4.22 3.03-1.682.527-3.542.54-5.195-.078a6.8 6.8 0 0 1-1.467-.76l-.005-.005c-1.954-1.343-3.207-3.08-3.581-5.153-.347-1.919.078-4.065 1.421-6.375l.028-.047.037-.053c.056-.079.142.036.119-.027-.033-.087-.239-.244-.618-.48-3.057-1.902-5.742-4.063-8.025-6.496.512 1.623.269 3.36-.307 4.693-2.161 5.002-4.494 9.401-7.03 13.383a84 84 0 0 1-8.259 10.891c-.216.243-.364.463-.442.65q.088.006.209.004a25.4 25.4 0 0 0 5.791-.77 25 25 0 0 0 5.4-2.08l.233-.117c1.657-.815 3.332-1.087 4.875-.67 1.571.424 2.947 1.534 3.96 3.472l.114.227c.841 1.713.807 3.305.133 4.743-.695 1.482-2.069 2.73-3.839 3.723a73 73 0 0 1-3.177 1.676c-1.03.513-2.114 1.027-3.226 1.542-1.417.671-2.946 1.098-4.605 1.298-1.626.196-3.378.174-5.275-.048-4.525-.53-9.053-.771-13.579-.796-4.529-.026-9.112.165-13.726.496-.745.053-1.516.078-2.305.026a9.9 9.9 0 0 1-2.472-.466c-.58-.192-1.474-.473-2.367-.753-3.07-.964-6.153-1.932-9.051-3.617-1.302-.757-2.158-1.977-2.613-3.276-.524-1.495-.515-3.144-.045-4.323l.21-.486c.76-1.557 1.99-2.645 3.498-3.162 1.467-.504 3.179-.453 4.943.25a10 10 0 0 1 .635.278c2.24 1.089 4.167 1.802 6.048 2.273 1.88.47 3.727.701 5.803.825q.752.045 1.155-.05-.128-.37-.548-.962c-2.51-3.54-4.07-5.826-6.008-9.297-1.925-3.45-4.2-8.027-8.136-16.15-.814-1.68-1.118-3.361-.807-4.898.305-1.503 1.174-2.823 2.697-3.823q.523-.344 1.021-.557a5.84 5.84 0 0 1 4.128-.217c1.296.416 2.455 1.29 3.284 2.553a7.3 7.3 0 0 1 .608 1.124l.973 2.28c2.376 5.573 4.213 9.878 7.154 13.874l.412.533.013-.527c.016-6.327.007-12.66.049-18.985.018-2.67.963-4.336 2.284-5.35q.102-.078.208-.15a7 7 0 0 1-.47-.467c-1.135-1.25-1.82-2.965-1.982-4.88-.15-1.762-.078-7.495.106-9.268.058-.568-.183-1.126-.658-1.61-.585-.594-1.5-1.079-2.665-1.375-4.748-1.207-8.865-2.9-12.434-5.036.608 1.107 1.016 2.424 1.155 3.927.754 8.109-.36 15.057-3.13 20.939-2.893 6.146-7.577 11.102-13.813 14.982-.38.236-.585.393-.618.48-.023.062.063-.052.119.026l.037.053.028.047c1.343 2.311 1.768 4.457 1.421 6.376-.374 2.072-1.627 3.81-3.58 5.153l-.006.005a6.8 6.8 0 0 1-1.467.76c-1.653.619-3.513.605-5.196.078-1.689-.528-3.224-1.579-4.219-3.03a6.7 6.7 0 0 1-.753-1.445l-1.8-4.8a2.5 2.5 0 0 0-.575-.907 2.8 2.8 0 0 0-.962-.613c-5.756-2.305-10.536-6.068-14.444-10.994-4.129-5.204-7.28-11.707-9.586-19.156l-.003-.02c-.695-2.26-.597-4.5.241-6.36.859-1.906 2.473-3.4 4.787-4.114l.137-.042c2.602-.763 4.817-.333 6.574.875 1.694 1.165 2.91 3.048 3.59 5.26l.049.162c.682 2.324 1.45 4.624 2.465 6.799 1.005 2.152 2.258 4.207 3.924 6.085l.043.048.002-.142c.008-4.21.037-8.486.126-12.784.091-4.344.242-8.703.493-13.029l.07-1.201 15.448.01.124 1.135c.158 1.447.043 4.53-.098 8.318-.212 5.675-.484 12.965.023 18.355q.053.563.141.93.174-.168.392-.424c1.64-1.919 2.856-4.201 3.571-6.86.697-2.585.923-5.526.612-8.834a15 15 0 0 1-.055-.819c-.09-2.366.426-4.501 1.601-6.13 1.215-1.685 3.084-2.796 5.65-3.038h.005l.61-.04a7.6 7.6 0 0 1 1.494.089q-.396-.345-.782-.7c-4.755-4.384-8.165-9.858-10.598-16.244-.828-2.175-.925-4.099-.459-5.716.528-1.827 1.75-3.219 3.438-4.114a7 7 0 0 1 1.161-.49 6.33 6.33 0 0 1 4.507.235c1.4.618 2.652 1.766 3.545 3.452.286.539.534 1.128.735 1.764 1.262 3.995 3.276 7.273 5.863 9.91 2.801 2.858 6.286 4.985 10.226 6.476.657.249 1.235.372 1.725.379.441.006.805-.083 1.078-.257.245-.155.433-.398.554-.718q.169-.442.179-1.05l.041-3.935.02-2.218c.024-.462.005-.879-.092-1.247a2.34 2.34 0 0 0-.504-.946c-.618-.72-1.169-1.318-1.834-1.863v-.005c-.65-.533-1.434-1.03-2.542-1.568-4.275-2.078-7.674-4.386-10.514-7.635-2.827-3.234-5.062-7.36-7.014-13.077-.6-1.755-.757-3.648-.197-5.372.497-1.526 1.536-2.889 3.297-3.872a7.7 7.7 0 0 1 1.57-.668c1.691-.501 3.282-.294 4.619.338a6.9 6.9 0 0 1 3.044 2.85c.228.41.41.837.538 1.27a32 32 0 0 0 1.505 4.068 29 29 0 0 0 2.039 3.769c.43.67.826 1.26 1.245 1.8.412.53.862 1.035 1.41 1.556.303.287.587.46.845.536.272.078.54.038.786-.099.33-.183.642-.532.91-1.009.414-.735.69-1.72.75-2.865.23-4.259.166-8.514.1-12.769-.032-2.14-.065-4.28-.06-6.431.003-1.983.625-3.976 1.767-5.481 1.204-1.587 2.967-2.644 5.188-2.64zM297.75 329.44l-.108 361.575c32.963-10.382 65.416-21.498 95.255-36.388 29.989-14.964 57.345-33.745 79.928-59.449 22.136-25.195 32.36-54.571 36.605-84.16 4.28-29.841 2.496-60.018.668-86.4-.635-9.163-1.38-18.976-2.114-28.657-1.889-24.895-3.71-48.896-3.927-66.521zm56.535 167.839c1.111 4.258 2.647 8.43 4.417 12.573.377.88.809 1.575 1.256 1.994.21.196.402.314.563.332.106.011.239-.04.396-.169.304-.247.625-.692.953-1.369.639-1.316.724-2.896.811-4.512.296-5.166.68-10.336 1.025-15.5.07-1.476.444-2.646 1.146-3.476.758-.896 1.82-1.352 3.207-1.324l4.64.093c1.497.03 2.565.583 3.307 1.559.667.875 1.008 2.047 1.127 3.45v.115c-.062 5.357-.168 10.667-.272 15.977l-.082 4.19c-.017.837-.054 1.67-.19 2.435-.156.878-.436 1.702-.938 2.413a150 150 0 0 1-2.31 3.158c-.776 1.042-1.552 2.084-2.348 3.217-.874 1.246-1.362 2.613-1.292 3.982.063 1.229.579 2.495 1.673 3.72 3.137 3.512 7.155 6.518 11.124 9.482.793.593 1.588 1.188 2.624 1.978 1.2.915 2.408 1.884 3.561 2.975 1.16 1.096 2.225 2.288 3.103 3.62.82 1.243 1.207 2.627 1.146 3.975a6 6 0 0 1-.574 2.305q.241-.123.486-.25c3.822-1.994 8.396-4.07 13.372-4.976a9.7 9.7 0 0 1-.23-1.921q-.011-.435.009-.88a.45.45 0 0 0-.123-.326c-.194-.225-.55-.471-.995-.76-5.407-3.508-10.188-8.384-13.52-13.894-3.14-5.191-5.005-10.965-4.918-16.718l.013-.407c.111-1.746.769-3.287 1.82-4.396 1.086-1.15 2.572-1.827 4.295-1.801l.31.01c2.024.128 3.49.95 4.465 2.167 1.085 1.353 1.513 3.162 1.401 5.01-.144 2.38.444 4.787 1.548 7.16 1.135 2.442 2.812 4.846 4.8 7.152.194.225.359.35.487.39.012.004 0 .014.007.01q.037-.016.11-.135h.005c.151-.25.242-.646.24-1.175l-.046-14.203c-.006-1.972.56-3.667 1.614-4.883 1.063-1.229 2.583-1.948 4.475-1.965h.043c1.722-.007 3.241.65 4.338 1.785 1.078 1.114 1.732 2.681 1.749 4.519 0 4.765.033 9.534.05 14.3.002.507.015.91.058 1.234v.005c.03.222.073.388.14.513l.348.637c.047.006.053-.133.249-.345a25.3 25.3 0 0 0 4.797-7.451c1.145-2.736 1.838-5.716 2.106-8.925.138-1.641.793-3.123 2.003-4.185 1.07-.94 2.548-1.522 4.451-1.551q.382-.006.699.033c1.28.157 2.534.8 3.468 1.785a5.73 5.73 0 0 1 1.588 3.87q.008.436-.04.823c-.9 7.339-2.94 13.508-6.068 18.577-3.148 5.1-7.383 9.065-12.655 11.964-.452.248-.796.496-.993.766-.156.214-.236.485-.224.843l.003.095a9.4 9.4 0 0 1-.133 1.896q.196.024.393.05c4.769.621 8.953 2.472 12.727 4.686q.12.072.242.14a6 6 0 0 1-.284-1.578c-.062-1.348.326-2.732 1.145-3.975.879-1.332 1.944-2.524 3.103-3.62 1.153-1.09 2.362-2.06 3.561-2.975 1.036-.79 1.832-1.385 2.627-1.975 3.967-2.967 7.985-5.973 11.122-9.485 1.094-1.225 1.61-2.491 1.672-3.72.07-1.368-.418-2.736-1.292-3.982-.796-1.133-1.572-2.175-2.347-3.216a149 149 0 0 1-2.31-3.158c-.502-.712-.783-1.535-.939-2.413-.135-.765-.173-1.599-.19-2.435l-.081-4.19c-.105-5.31-.21-10.62-.272-15.978v-.115c.119-1.402.46-2.575 1.126-3.45.743-.975 1.81-1.528 3.307-1.558l4.64-.094c1.388-.028 2.45.428 3.208 1.325.701.829 1.075 2 1.146 3.476.344 5.164.728 10.334 1.024 15.5.087 1.615.173 3.195.812 4.512.328.676.648 1.121.953 1.369.157.128.29.18.396.168.16-.018.353-.135.563-.332.447-.418.879-1.113 1.255-1.994 1.77-4.142 3.306-8.315 4.418-12.572 1.108-4.245 1.802-8.586 1.894-13.081.029-1.385.342-2.446 1.033-3.098.812-.766 1.911-.902 3.373-.281l8.723 3.75c.874.376 1.404.949 1.696 1.728.242.647.275 1.38.192 2.235-.33 3.401-.828 6.807-1.574 10.212a71.6 71.6 0 0 1-3.1 10.372 11.5 11.5 0 0 0-.633 2.27c-.096.606-.119 1.187-.035 1.7.084.51.233.883.43 1.133.132.17.294.282.475.342.21.07.464.08.746.033.571-.093 1.21-.405 1.84-.898 5.135-4.025 7.754-10.002 10.62-16.542l.19-.438q.116-.264.238-.489c.53-.976 1.318-1.821 2.347-2.282 1.06-.476 2.324-.537 3.746.086q.262.115.501.244l.599.318c1.806.959 3.502 1.86 4.768 3.942.965 1.587 1.141 3.321.857 5.05-.266 1.61-.937 3.207-1.726 4.654l-.85 1.564c-3.141 5.78-6.2 11.408-10.186 16.517-1.608 2.06-3.488 3.597-5.462 4.666-2.2 1.192-4.527 1.804-6.73 1.915-2.178.11-4.327.387-6.334.965-1.957.565-3.795 1.424-5.41 2.707-4.622 3.67-9.296 7.25-14.09 10.699-4.782 3.44-9.643 6.72-14.634 9.781l-.075.04c-2.023 1.055-3.916 1.546-5.664 1.398l-.115-.01.062.14c.739 1.77.273 2.83-.832 3.868-1.158 1.086-3.103 1.084-4.337.094-3.014-2.42-6.421-4.993-9.972-5.122-4.17-.15-5.706 3.492-6.328 7.478-.52 3.33-.55 7.364-.117 11.906.253 2.64-1.995 4.77-4.452 4.664-2.02-.088-4.263-1.771-4.09-4.84.187-3.3.69-7.05.377-11.52-.198-2.827-1.798-6.628-5.684-6.421-3.134.167-6.471 1.565-9.983 3.492-1.426.782-2.666 1.579-4.217.726-1.251-.687-2.134-2.023-1.805-3.762q.069-.354.23-.672c-1.655.062-3.436-.43-5.33-1.419l-.076-.04c-4.99-3.062-9.852-6.34-14.634-9.781-4.794-3.449-9.468-7.03-14.09-10.699-1.615-1.283-3.453-2.142-5.41-2.707-2.007-.578-4.156-.855-6.334-.965-2.203-.11-4.529-.723-6.73-1.915-1.973-1.069-3.854-2.606-5.461-4.666-3.988-5.109-7.046-10.736-10.186-16.517l-.85-1.564c-.79-1.447-1.461-3.043-1.727-4.655-.284-1.728-.108-3.462.857-5.049 1.266-2.082 2.963-2.983 4.768-3.942l.599-.318q.238-.129.501-.244c1.422-.623 2.686-.562 3.746-.086 1.03.461 1.818 1.306 2.347 2.282q.12.226.237.49l.192.437c2.865 6.54 5.484 12.517 10.62 16.542.628.493 1.268.805 1.84.898.281.046.536.038.745-.033.18-.06.343-.173.476-.342.196-.25.345-.623.429-1.132.084-.514.061-1.095-.035-1.7-.12-.756-.351-1.535-.634-2.271a71.6 71.6 0 0 1-3.099-10.372c-.746-3.405-1.245-6.81-1.574-10.212-.083-.855-.05-1.588.193-2.235.291-.78.82-1.352 1.695-1.728l8.723-3.75c1.462-.621 2.561-.485 3.373.28.692.653 1.004 1.714 1.033 3.099.093 4.495.786 8.836 1.894 13.081z" style="fill:#000;fill-rule:evenodd"></path><path d="m297.749 329.44-.108 361.576" style="fill:none"></path><defs><linearGradient id="l"><stop offset="0%" stop-color="#e19d1c"></stop><stop offset="43%" stop-color="#ce910f"></stop><stop offset="100%" stop-color="#f7cd4f"></stop></linearGradient><linearGradient xlink:href="#l" id="m" x1="0" x2="0" y1="0" y2="1" gradientTransform="rotate(-91 .5 .5)" gradientUnits="objectBoundingBox"></linearGradient></defs><path d="M89.85 303.078h415.215c1.194-15.411 3.368-31.402 6.91-46.586 3.786-16.225 9.139-31.571 16.53-44.395a13376 13376 0 0 1-19.891-30.288c-7.584-11.573-15.166-23.145-19.843-30.254-24.879 3.481-54.775 5.692-87.051 7.053-33.085 1.395-68.737 1.895-104.056 1.957-37.497.067-74.726-.565-109.262-2.23-29.726-1.433-57.525-3.63-81.88-6.806a23877 23877 0 0 0-19.86 30.28c-5.518 8.42-11.062 16.882-19.892 30.289 7.332 12.733 12.588 27.972 16.29 44.093 3.51 15.282 5.624 31.384 6.79 46.887m18.576 4.308-4.335 16.068 2.533-.006 3.42-12.883.593 12.88 3.962.001 7.727-12.94-3.554 12.939 5.685.002 4.345-16.063-7.232.008-5.432 9.059-.292-9.07zm141.024 0-4.335 16.068 2.532-.006 3.421-12.883.593 12.88 3.962.001 7.727-12.94-3.555 12.939 5.686.002 4.344-16.063-7.232.008-5.431 9.059-.293-9.07zm-112.487 3.474-3.838 5.648 4.506-.058zm-.094-3.472-11.485 16.055 2.849.003 3.135-4.341 6.502.012.49 4.329 6.177-.002-1.863-16.065zm242.457 3.472-3.839 5.648 4.506-.058zm-.095-3.472-11.484 16.055 2.848.003 3.135-4.341 6.502.012.49 4.329 6.177-.002-1.863-16.065zm-69.07 3.472-3.839 5.648 4.506-.058zm-.096-3.472-11.484 16.055 2.848.003 3.136-4.341 6.502.012.49 4.329 6.177-.002-1.863-16.065zm-159.085-.002-4.389 16.061 5.702-.004 1.916-7.09h1.768l.758 7.085 6.329.012-1.383-7.02c1.447-.03 2.386-.592 2.66-1.588l1.302-4.723c.338-1.223-.084-2.73-1.592-2.73zm4.967 2.47-1.066 3.832 3.61.058c.196.003.529-.138.58-.328l.816-3.035c.087-.325-.086-.514-.452-.516zm12.74-2.469-.734 2.573h4.355l-3.707 13.478 5.685.013 3.68-13.489 4.194.001.72-2.592zm27.721.002-4.337 16.058 5.687.001 1.608-5.762 6.995-.006c1.488-.001 3.02-1.362 3.4-2.8l1.249-4.732c.415-1.572-.574-2.75-2.106-2.751zm4.937 2.564-1.394 4.969 3.257.005c.315 0 .732-.167.82-.469l1.067-3.637c.167-.571-.073-.84-.715-.844zm154.795-2.564-4.337 16.058 5.687.001 1.608-5.762 6.996-.006c1.487-.001 3.02-1.362 3.4-2.8l1.248-4.732c.415-1.572-.574-2.75-2.106-2.751zm4.937 2.564-1.394 4.969 3.258.005c.315 0 .731-.167.82-.469l1.066-3.637c.168-.571-.073-.84-.715-.844zm-144.829-2.559c-1.778.001-3.307 2.071-3.76 3.792l-2.145 8.133c-.473 1.795-.307 4.108 2.173 4.129l9.101.075c2.541.021 4.052-1.625 4.682-3.892l2.368-8.508c.412-1.481-.06-3.74-1.734-3.738zm1.931 3.753c.225-.834.752-1.22 1.559-1.22h2.417c.737 0 .955.427.77 1.114l-2.319 8.625c-.167.624-.68 1.09-1.336 1.09l-2.6-.002c-.61 0-1.004-.316-.833-.946zm233.487-3.753c-1.78.001-3.308 2.071-3.761 3.792l-2.144 8.133c-.474 1.795-.308 4.108 2.172 4.129l9.102.075c2.54.021 4.051-1.625 4.682-3.892l2.367-8.508c.412-1.481-.06-3.74-1.734-3.738zm1.93 3.753c.226-.834.752-1.22 1.559-1.22h2.418c.736 0 .954.427.77 1.114l-2.32 8.625c-.167.624-.68 1.09-1.335 1.09l-2.6-.002c-.61 0-1.005-.316-.834-.946zm-219.49-3.753c-1.778.001-3.307 2.071-3.76 3.792l-2.145 8.133c-.473 1.795-.307 4.108 2.173 4.129l9.102.075c2.54.021 4.051-1.625 4.682-3.892l2.367-8.508c.412-1.481-.06-3.74-1.734-3.738zm1.931 3.753c.226-.834.752-1.22 1.559-1.22h2.418c.736 0 .954.427.77 1.114l-2.32 8.625c-.167.624-.68 1.09-1.335 1.09l-2.6-.002c-.61 0-1.005-.316-.834-.946zm233.487-3.753c-1.779.001-3.308 2.071-3.761 3.792l-2.144 8.133c-.473 1.795-.308 4.108 2.172 4.129l9.102.075c2.541.021 4.051-1.625 4.682-3.892l2.368-8.508c.412-1.481-.061-3.74-1.735-3.738zm1.93 3.753c.226-.834.752-1.22 1.56-1.22h2.417c.737 0 .954.427.77 1.114l-2.32 8.625c-.167.624-.68 1.09-1.335 1.09l-2.6-.002c-.61 0-1.004-.316-.834-.946zm-203.201 12.3 5.79-.001 4.272-16.059h-5.8zm149.953 0 5.79-.001 4.272-16.059h-5.8zm-131.28-2.713-.843 2.71h8.381c1.832 0 4.136-1.205 4.623-2.971l3.61-13.088h-5.817l-3.155 11.879c-.305 1.148-.637 1.471-1.894 1.471zm37.566-13.346-4.308 16.06 12.468-.004.745-2.662-6.79.002 3.687-13.4zm69.024 0-4.308 16.06 12.468-.004.745-2.662-6.79.002 3.687-13.4zm14.457 0-4.309 16.06 12.469-.004.745-2.662-6.79.002 3.686-13.4zm77.102 0-4.308 16.06 12.468-.004.745-2.662-6.79.002 3.687-13.4zm-143.744-.01c-1.795 0-3.282 2.138-3.742 3.873l-2.241 8.446 2.1 3.752h12.319l2.676-9.702-8.742.028-.77 2.654 2.944.074-.793 3.133c-.158.624-.893 1.118-1.537 1.122l-1.773.013c-.812.005-.977-.39-.768-1.172l2.295-8.621c.24-.9.925-1.1 1.85-1.101l7.602-.019.628-2.475zm88.685.019-4.336 16.05 5.775-.014 1.313-5.072 1.79-1.744 1.51 6.826 6.843-.005-3.329-11.436 5.424-4.613h-3.717l-7.543 7.13 2.002-7.13zm5.163-53.033-7.2 26.961c-1.47 5.502-5.812 11.315-14.089 11.325l-35.833.044 13.256-49.351 34.96-.022c6.745-.004 10.872 3.682 8.906 11.043m-55.713 8.865-2.356 8.075-19.998-.001-3.632 13.365 21.252-.012-2.309 8.015-38.42-.008 13.202-49.348 38.08.01-2.245 8.132-20.578-.011-3.246 11.806zm-53.274-11.569-11.015 41.034-17.212-.002 11.09-40.998-13.057-.037 2.24-8.326 43.1.003-2.227 8.316zm-30.339-8.324-13.232 49.352h-17.298l13.233-49.352zm-24.91 0-13.294 49.362-22.366.001-8.044-41.004-11.079 41.01-7.335-.003 13.187-49.367 22.44.002 7.931 40.396 10.833-40.4zm-55.082-.008-9.598 35.484c-2.295 8.484-5.82 13.884-15.146 13.884h-25.929c-7.747 0-8.96-6.83-7.136-13.64l9.568-35.727 17.287.009-10.003 37.306c-.568 2.119 1.1 3.915 2.345 3.914l16.675-.028c2.533-.004 3.875-1.624 4.583-4.275l9.854-36.927zm248.386-6.45h-333.2v-4.64h333.2zm-23.659-10.908-38.42-.008 13.202-49.348 38.08.01-2.245 8.132-20.578-.01-3.246 11.806 20.25-.023-2.356 8.074h-19.998l-3.632 13.364 21.252-.012zm-51.822-39.361-23.52 39.352-11.919-.001-1.968-38.847-10.436 38.86-7.38-.003 13.125-49.365 22.174.006 1.114 28.213 16.934-28.212h21.551l-13.24 49.36h-17.099zm-49.065-9.997-13.241 49.36h-17.098l10.664-39.363-23.52 39.352-11.919-.001-1.969-38.847-10.435 38.86-7.38-.003 13.125-49.365 22.173.006 1.115 28.213 16.934-28.212zm-77.433-4.979-32.625.024 1.828-7.196 32.637-.082zm4.404 16.712-6.776 25.454c-1.992 7.48-6.63 12.146-14.791 12.151l-28.314.018c-6.753.004-7.124-6.266-5.637-12.006l6.715-25.922c2.18-8.415 8.063-11.428 15.898-11.424l23.86.01c8.125.003 11.059 4.155 9.045 11.719m-49.73-11.73-13.29 49.348-22.364.001-8.045-41.004-11.078 41.01-7.336-.003 13.179-49.352h22.455l7.925 40.383 10.829-40.39zm21.446 41.417c1.931-.006 3.406-1.047 4.032-3.386l7.175-26.835c.46-1.722-.072-2.995-1.876-3l-8.11-.023c-2.512-.007-4.042 1.317-4.62 3.478l-7.101 26.555c-.587 2.196.582 3.24 2.46 3.235zm168.093 33.469-9.001 33.178 9.853.048c1.342.006 2.793-1.507 3.142-2.803l7.47-27.815c.414-1.54-.231-2.595-1.753-2.597z" style="fill:url(#m)"></path><defs><linearGradient id="n"><stop offset="0%" stop-color="#740c0b"></stop><stop offset="100%" stop-color="#921513"></stop></linearGradient></defs><path d="M258.323 520.852c-6.582-.15-13.728-.113-20.38-.795 7.525-4.038 14.564-7.41 21.729-12.175.6-8.157.087-15.31.198-23.85 2.77 4.216 6.775 9.317 10.595 16.564 4.955-3.712 8.141-6.634 12.285-11.411-2.272 7.109-4.81 12.711-8.46 19.392 1.279 3.249 2 5.91 1.264 8.639-2.876 2.057-4.492 2.51-8.019 2.846-3.655 5.642-7.755 11.401-13.644 17.407 2.116-5.018 3.46-10.763 4.432-16.617m-7.788-11.096-16.242.009-3.76-16.51-4.182 4.051-3.386 12.447-13.715.02 10.442-38.98 13.756.027-4.762 17.325 18.355-17.324 8.87-.02-13.201 11.326zm9.151-71.96c-6.659-4.787-14.037-8.356-21.523-12.46 5.035-.29 12-1.068 20.187-.751-.816-6.161-2.355-10.355-4.195-16.387 4.914 5.894 9.385 10.682 13.346 17.184 3.452.516 5.88 1.52 8.011 3.059.222 3.525.092 5.034-1.216 8.46 3.376 6.665 6.237 12.306 8.492 19.396-3.4-4.079-7.73-7.727-12.314-11.495-3.272 5.813-6.773 11.15-10.803 16.57.265-8.536.56-14.989.015-23.577M297.75 329.44H90.833c-.24 16.846-2.017 39.534-3.876 63.262v.014c-.845 10.782-1.706 21.775-2.416 32.015-1.827 26.379-3.523 56.657.847 86.615 4.331 29.694 14.643 59.177 36.782 84.376 22.585 25.707 50.009 44.352 80.059 59.177 29.88 14.74 62.422 25.729 95.412 36.116zM220.573 555.34c-7.477 1.54-14.106 2.483-22.247 2.893-2.173 2.732-5.556 5.748-7.955 6.825-3.048-1.778-4.41-3.589-6.748-6.306-7.384-.202-15.415-.36-23.085-1.894 6.116-1.145 12.505-3.778 18.06-5.864-3.277-5.517-7.76-11.994-10.495-18.096 7.26 4.498 14.557 8.375 22.266 12.198 7.364-3.56 15.204-8.315 22.613-12.562-2.266 4.506-4.64 11.004-9.008 17.936 5.743 2.373 10.456 3.447 16.6 4.87m-25.894-46.325-24.975.028 5.522-21.356 10.473 6.162-2.447 8.729 5.85-.019c2.126-.007 3.516-1.33 4.022-3.225l7.818-29.256h13.866l-7.96 29.64c-1.612 6.005-5.656 9.29-12.169 9.297m.575-45.501-3.806 13.927h-13.64l10.462-38.906 30.119-.01c4.032-.002 6.06 3.545 4.949 7.48l-2.996 10.617c-1.137 4.03-4.855 6.903-9.375 6.9zM122.25 520.81c.816 6.16 2.324 11.967 4.408 16.686-4.792-5.679-9.46-11.038-13.552-17.427-3.452-.517-5.991-1.194-8.048-2.818-.54-2.493-.093-5.277 1.215-8.703-3.376-6.664-6.315-11.919-8.195-19.215 3.288 4.342 7.31 7.537 12.018 11.183 2.848-5.428 6.758-11.035 10.674-16.454-.265 8.535-.413 15.165.131 23.752 6.677 4.773 14.226 8.225 21.73 12.263-5.035.29-12.194 1.05-20.38.733m26.25-43.368h-9.45l-1.556-30.825-8.278 30.816-5.92.008 10.382-38.917 17.654.001.844 22.052 13.28-22.05 17.237.008-10.423 38.902-13.617.004 8.41-31.144zm-27.634-39.823c-.438 8.363-.288 15.353-.002 23.67-2.988-4.045-6.79-9.125-10.782-16.114-5.043 3.49-7.94 6.187-12.182 10.953 2.497-7.315 4.707-12.533 8.358-19.214-1.28-3.249-1.513-5.883-1.247-8.498 2.943-1.955 4.427-2.454 8.048-3.034 4.294-6.045 8.29-11.62 13.428-17.135-2.116 5.018-3.273 10.5-4.244 16.354 6.643-.077 13.654.002 20.267.833-7.532 3.984-14.479 7.42-21.644 12.185zm91.972-25.154c-7.26-4.497-14.67-8.769-22.379-12.591-7.364 3.559-14.805 7.656-22.257 11.83 2.266-4.506 6.03-10.74 10.396-17.673-5.743-2.373-11.6-4.478-17.743-5.901 7.562-1.309 15.255-1.683 22.866-1.862 2.174-2.732 4.291-5.176 6.69-6.253 3.163 1.57 5.757 3.995 8.07 6.84 7.459.409 14.908.905 22.166 2.925-5.403.677-10.95 2.672-16.505 4.758 3.161 5.776 5.962 11.826 8.696 17.927m-8.354 44.578c1.098.005 2.35-.921 2.63-1.983l2.063-7.81c.447-1.69.2-2.32-1.592-2.318l-7.34.007-3.374 12.066z" style="fill:url(#n)"></path><path d="M432.451 432.467a40.5 40.5 0 0 1-10.174 4.502c-.794.226-1.485.426-1.85.75-.321.284-.516.796-.524 1.77l-.08 9.764-.006.342c-.082 1.956-.723 3.644-1.914 4.86q-.48.491-1.07.866.089.092.175.19c.973 1.106 1.556 2.69 1.555 4.775l-.011 14.344c0 .734.042 1.273.111 1.69.059.353.142.613.232.837l.281.737c.2.526.397 1.05.653 1.498.241.424.389.647.437.651.029.003.184-.178.473-.554 1.678-2.177 3.077-4.483 4.333-6.87 1.26-2.395 2.386-4.9 3.507-7.443l.08-.182c.8-1.716 1.974-2.894 3.409-3.466 1.445-.577 3.094-.515 4.827.248l.163.075q.303.141.578.299a32.3 32.3 0 0 1-3.036-5.151c-2.77-5.882-3.883-12.83-3.13-20.94.126-1.354.47-2.558.982-3.592z" style="fill:#000;fill-rule:evenodd" data-source="https://football-logos.cc"></path><!-- source: https://football-logos.cc --></svg>