<svg xmlns="http://www.w3.org/2000/svg" viewBox="12.63 95.99 769.78 933.6"><!-- Source: https://football-logos.cc --><defs data-source="https://football-logos.cc"><clipPath id="a" clipPathUnits="userSpaceOnUse"><path d="M-297.676 772.025h595.28v-841.89h-595.28Z"></path></clipPath><clipPath id="b" clipPathUnits="userSpaceOnUse"><path d="M-517.311 205.818h595.28v-841.89h-595.28Z"></path></clipPath><clipPath id="c" clipPathUnits="userSpaceOnUse"><path d="M-565.166 528.373h595.28v-841.89h-595.28Z"></path></clipPath><clipPath id="d" clipPathUnits="userSpaceOnUse"><path d="M-335.636 101.347h595.28v-841.89h-595.28Z"></path></clipPath><clipPath id="e" clipPathUnits="userSpaceOnUse"><path d="M-413.908 116.49h595.28V-725.4h-595.28Z"></path></clipPath><clipPath id="f" clipPathUnits="userSpaceOnUse"><path d="M-492.534 97.138h595.28v-841.89h-595.28Z"></path></clipPath><clipPath id="g" clipPathUnits="userSpaceOnUse"><path d="M-545.025 158.158h595.28v-841.89h-595.28Z"></path></clipPath><clipPath id="h" clipPathUnits="userSpaceOnUse"><path d="M-62.32 456.075h595.28v-841.89H-62.32Z"></path></clipPath><clipPath id="i" clipPathUnits="userSpaceOnUse"><path d="M-140.592 456.075h595.28v-841.89h-595.28Z"></path></clipPath><clipPath id="j" clipPathUnits="userSpaceOnUse"><path d="M-219.208 456.075h595.28v-841.89h-595.28Z"></path></clipPath><clipPath id="k" clipPathUnits="userSpaceOnUse"><path d="M-297.211 456.075h595.28v-841.89h-595.28Z"></path></clipPath><clipPath id="l" clipPathUnits="userSpaceOnUse"><path d="M-574.392 448.02h595.28v-841.89h-595.28Z"></path></clipPath><clipPath id="m" clipPathUnits="userSpaceOnUse"><path d="M-433.75 505.968h595.28v-841.89h-595.28Z"></path></clipPath><clipPath id="n" clipPathUnits="userSpaceOnUse"><path d="M-479.174 568.146h595.28v-841.89h-595.28Z"></path></clipPath><clipPath id="o" clipPathUnits="userSpaceOnUse"><path d="M-470.068 534.999h595.28v-841.89h-595.28Z"></path></clipPath><clipPath id="p" clipPathUnits="userSpaceOnUse"><path d="M-453.281 601.75h595.28v-841.89h-595.28Z"></path></clipPath><clipPath id="q" clipPathUnits="userSpaceOnUse"><path d="M-416.867 610.643h595.28v-841.89h-595.28Z"></path></clipPath><clipPath id="r" clipPathUnits="userSpaceOnUse"><path d="M-417.928 602.69h595.28V-239.2h-595.28Z"></path></clipPath><clipPath id="s" clipPathUnits="userSpaceOnUse"><path d="M0 841.89h595.28V0H0Z"></path></clipPath><clipPath id="t" clipPathUnits="userSpaceOnUse"><path d="M0 841.89h595.28V0H0Z"></path></clipPath><clipPath id="u" clipPathUnits="userSpaceOnUse"><path d="M0 841.89h595.28V0H0Z"></path></clipPath><clipPath id="v" clipPathUnits="userSpaceOnUse"><path d="M-236.925 181.384h595.28v-841.89h-595.28Z"></path></clipPath><clipPath id="w" clipPathUnits="userSpaceOnUse"><path d="M-77.594 402.803h595.28v-841.89h-595.28Z"></path></clipPath><clipPath id="x" clipPathUnits="userSpaceOnUse"><path d="M-77.594 402.803h595.28v-841.89h-595.28Z"></path></clipPath><clipPath id="y" clipPathUnits="userSpaceOnUse"><path d="M-98.971 422.704h595.28v-841.89h-595.28Z"></path></clipPath><clipPath id="z" clipPathUnits="userSpaceOnUse"><path d="M0 841.89h595.28V0H0Z"></path></clipPath><clipPath id="A" clipPathUnits="userSpaceOnUse"><path d="M-140.592 429.55h595.28v-841.89h-595.28Z"></path></clipPath><clipPath id="B" clipPathUnits="userSpaceOnUse"><path d="M-140.592 429.55h595.28v-841.89h-595.28Z"></path></clipPath><clipPath id="C" clipPathUnits="userSpaceOnUse"><path d="M-164.46 381.361h595.28v-841.89h-595.28Z"></path></clipPath><clipPath id="D" clipPathUnits="userSpaceOnUse"><path d="M-219.152 429.55h595.28v-841.89h-595.28Z"></path></clipPath><clipPath id="E" clipPathUnits="userSpaceOnUse"><path d="M0 841.89h595.28V0H0Z"></path></clipPath><clipPath id="F" clipPathUnits="userSpaceOnUse"><path d="M-258.414 376.02h595.28v-841.89h-595.28Z"></path></clipPath><clipPath id="G" clipPathUnits="userSpaceOnUse"><path d="M-285.584 376.02h595.28v-841.89h-595.28Z"></path></clipPath><clipPath id="H" clipPathUnits="userSpaceOnUse"><path d="M-298.71 422.704h595.28v-841.89h-595.28Z"></path></clipPath><clipPath id="I" clipPathUnits="userSpaceOnUse"><path d="M-346.478 376.02h595.28v-841.89h-595.28Z"></path></clipPath><clipPath id="J" clipPathUnits="userSpaceOnUse"><path d="M-359.23 381.361h595.28v-841.89h-595.28Z"></path></clipPath><clipPath id="K" clipPathUnits="userSpaceOnUse"><path d="M-386.037 381.147h595.28v-841.89h-595.28Z"></path></clipPath><clipPath id="L" clipPathUnits="userSpaceOnUse"><path d="M-427.38 422.824H167.9v-841.89h-595.28Z"></path></clipPath><clipPath id="M" clipPathUnits="userSpaceOnUse"><path d="M-447.782 396.997h595.28v-841.89h-595.28Z"></path></clipPath><clipPath id="N" clipPathUnits="userSpaceOnUse"><path d="M-473.135 425.602h595.28v-841.89h-595.28Z"></path></clipPath><clipPath id="O" clipPathUnits="userSpaceOnUse"><path d="M-473.135 425.602h595.28v-841.89h-595.28Z"></path></clipPath><clipPath id="P" clipPathUnits="userSpaceOnUse"><path d="M-507.2 375.805H88.08v-841.89H-507.2Z"></path></clipPath><clipPath id="Q" clipPathUnits="userSpaceOnUse"><path d="M-522.43 429.55H72.85v-841.89h-595.28Z"></path></clipPath><clipPath id="R" clipPathUnits="userSpaceOnUse"><path d="M-522.43 429.55H72.85v-841.89h-595.28Z"></path></clipPath></defs><path d="M0 0c-12.376 15.561-26.344 29.637-107.175 61.395-77.835 30.581-115.821 71.536-115.821 71.536-72.338 72.156-47.035 165.358-47.035 165.358l-17.998 18.593c14.865 54.814 47.691 103.434 47.691 103.434h20.439c33.495 120.466-39.949 195.719-39.949 195.719l61.814 71.179C-104.957 631.519 0 699.855 0 699.855s108.336-68.568 198.034-12.641l61.814-71.179s-70.685-77.188-37.162-195.719h18.581s32.826-48.62 47.691-103.434l-16.878-17.497s28.956-92.44-45.368-167.383c0 0-37.472-40.568-118.608-71.537C26.967 29.497 11.483 14.632 0 0" clip-path="url(#a)" style="fill:#fff;fill-opacity:1;fill-rule:nonzero;stroke:#3376bb;stroke-width:.465;stroke-linecap:butt;stroke-linejoin:miter;stroke-miterlimit:10;stroke-dasharray:none;stroke-opacity:1" transform="matrix(1.33333 0 0 -1.33333 396.9 1029.367)"></path><path d="M0 0c-12.709-32.154-25.149-87.628-6.968-146.511h-424.5c17.225 63.993 3.178 115.425-10.21 147.412-9.875 23.607-20.587 38.732-27.537 47.382l52.334 60.694c23.932-12.746 48.05-19.445 76.488-19.566 60.704-.25 104.573 24.955 119.893 33.818 17.299-11.158 64.299-33.92 119.336-33.92 28.308 0 53.095 6.764 76.266 19.51L27.714 47.66C21.061 38.909 9.439 23.895 0 0" clip-path="url(#b)" style="fill:#3376bb;fill-opacity:1;fill-rule:nonzero;stroke:none" transform="matrix(1.33333 0 0 -1.33333 689.748 274.424)"></path><path d="M0 0c-1.143-61.791-45.737-130.234-156.358-174.085-67.839-24.805-97.745-42.968-111.105-56.56-13.323 15.868-36.168 27.63-103.635 53.736-76.6 29.646-112.814 67.783-113.186 68.183 0 0-46.415 42.597-49.862 107.834-1.616 30.464 4.116 52.77 4.172 52.993l5.277 20.197H-9.383l4.673-19.472C-4.645 52.621.567 30.528 0 0" clip-path="url(#c)" style="fill:#3376bb;fill-opacity:1;fill-rule:nonzero;stroke:none" transform="matrix(1.33333 0 0 -1.33333 753.555 704.498)"></path><path d="M0 0v-250.982h-39.076V18.609q.126.08.251.148C-31.123 13.796-17.55 6.531 0 0" clip-path="url(#d)" style="fill:#e1101e;fill-opacity:1;fill-rule:nonzero;stroke:none" transform="matrix(1.33333 0 0 -1.33333 447.515 135.129)"></path><path d="M0 0v-235.838h-38.611V3.986C-26.459 1.644-13.48.149 0 0" clip-path="url(#e)" style="fill:#e1101e;fill-opacity:1;fill-rule:nonzero;stroke:none" transform="matrix(1.33333 0 0 -1.33333 551.878 155.32)"></path><path d="M0 0v-255.19h-38.611v240.214C-25.14-11.687-12.403-6.615-.121.139z" clip-path="url(#f)" style="fill:#e1101e;fill-opacity:1;fill-rule:nonzero;stroke:none" transform="matrix(1.33333 0 0 -1.33333 656.711 129.517)"></path><path d="M0 0c-3.261-4.283-7.711-10.062-12.505-17.67v32.21Z" clip-path="url(#g)" style="fill:#e1101e;fill-opacity:1;fill-rule:nonzero;stroke:none" transform="matrix(1.33333 0 0 -1.33333 726.7 210.877)"></path><path d="M0 0v-159.081c-13.36 18.776-29.33 48.645-31.3 85.891-1.616 30.463 4.116 52.77 4.172 52.993L-21.851 0Z" clip-path="url(#h)" style="fill:#e1101e;fill-opacity:1;fill-rule:nonzero;stroke:none" transform="matrix(1.33333 0 0 -1.33333 83.094 608.1)"></path><path d="M0 0v-224.151c-16.249 9.105-29.079 17.866-38.611 25.075V0Z" clip-path="url(#i)" style="fill:#e1101e;fill-opacity:1;fill-rule:nonzero;stroke:none" transform="matrix(1.33333 0 0 -1.33333 187.457 608.1)"></path><path d="M0 0v-259.111a1926 1926 0 0 1-25.14 9.904 430 430 0 0 0-13.471 5.472V0z" clip-path="url(#j)" style="fill:#e1101e;fill-opacity:1;fill-rule:nonzero;stroke:none" transform="matrix(1.33333 0 0 -1.33333 292.278 608.1)"></path><path d="M0 0v-302.367c-7.553 8.788-18.2 16.369-38.017 25.948V0Z" clip-path="url(#k)" style="fill:#e1101e;fill-opacity:1;fill-rule:nonzero;stroke:none" transform="matrix(1.33333 0 0 -1.33333 396.281 608.1)"></path><path d="M0 0h-552.281c11.112 31.123 24.481 60.165 39.782 86.634h472.55C-24.648 60.165-11.214 31.123 0 0" clip-path="url(#l)" style="fill:#e1101e;fill-opacity:1;fill-rule:nonzero;stroke:none" transform="matrix(1.33333 0 0 -1.33333 765.856 597.36)"></path><path d="M0 0c2.15-.692 2.017-3.782-.173-4.335a78 78 0 0 1-9.179-2.937 59 59 0 0 1-1.802-.724C-24.3-13.459-35.867-22.378-44.6-33.591a63 63 0 0 1-1.654-2.202 80 80 0 0 1-2.543-3.692c-.941-1.451-2.981-1.671-4.185-.43a87 87 0 0 0-9 10.904c-.316.455-.632.91-.929 1.375a78 78 0 0 0-4.624 7.847c-.628 1.226-.347 2.717.634 3.684A67.3 67.3 0 0 0-49.812-3.89a66 66 0 0 0 6.931 2.982 66.3 66.3 0 0 0 22.808 4.042c7 0 13.747-1.098 20.073-3.134" clip-path="url(#m)" style="fill:#fff;fill-opacity:1;fill-rule:nonzero;stroke:none" transform="matrix(1.33333 0 0 -1.33333 578.332 674.623)"></path><path d="M0 0v-.186a64.1 64.1 0 0 0-4.515-23.663A59 59 0 0 0-6.02-27.36c-3.708-7.964-8.978-15.073-15.378-20.939-1.894-1.735-4.84.365-3.787 2.708a74.4 74.4 0 0 1 3.696 10.157c.344 1.18.65 2.379.929 3.596 1.524 6.503 2.276 13.489 2.137 20.875a100 100 0 0 1-.186 4.441 59 59 0 0 1-.176 2.248c-.68 7.89-2.312 15.297-4.757 22.086-.648 1.798.324 3.782 2.157 4.328a78.7 78.7 0 0 0 14.379 2.854 2.55 2.55 0 0 0 2.633-1.608A65.3 65.3 0 0 0-.019 1.338C-.009.892 0 .446 0 0" clip-path="url(#n)" style="fill:#fff;fill-opacity:1;fill-rule:nonzero;stroke:none" transform="matrix(1.33333 0 0 -1.33333 638.899 757.528)"></path><path d="M0 0c1.179-1.99-.051-4.568-2.346-4.854a75.8 75.8 0 0 1-15.017-3.45 63 63 0 0 1-3.623-1.319c-12.815-5.05-24.046-13.438-32.627-24.109h-.001a94 94 0 0 0-5.974 2.35 94 94 0 0 0-24.415 15.478 79 79 0 0 0 6.643 9.319 80.7 80.7 0 0 0 34.755 24.471c.762.269 1.524.529 2.304.78a79.6 79.6 0 0 0 18.368 3.707A65.74 65.74 0 0 0 0 0" clip-path="url(#o)" style="fill:#fff;fill-opacity:1;fill-rule:nonzero;stroke:none" transform="matrix(1.33333 0 0 -1.33333 626.757 713.332)"></path><path d="M0 0a63 63 0 0 0-1.226-3.809c-3.41-9.616-8.854-17.717-15.98-24.202-5.276-2.543-14.352-3.516-19.549-3.87-1.652-.113-2.787 1.652-1.98 3.098 3.546 6.356 6.005 13.493 7.268 21.202.232 1.44.428 2.899.576 4.366q.418 3.958.418 8.083c0 8.25-1.477 16.128-4.153 23.366-.139.353-.278.706-.408 1.059a74 74 0 0 0 2.09 2.452c7.558 8.555 16.887 15.51 27.407 20.253a2.925 2.925 0 0 0 3.973-1.738C.65 43.588 2.09 36.345 2.638 28.661c.065-.808.112-1.626.149-2.453a91 91 0 0 0 .093-2.787C3.038 14.893 2.035 7.07 0 0" clip-path="url(#p)" style="fill:#fff;fill-opacity:1;fill-rule:nonzero;stroke:none" transform="matrix(1.33333 0 0 -1.33333 604.375 802.333)"></path><path d="M0 0c-1.63-9.046-5.051-16.455-10.446-22.787-12.641.685-25.171 8.041-25.512 8.241C-63.111 1.43-68.552 26.188-69.385 39.585c-.162 2.602 3.221 3.756 4.671 1.59 5.364-8.012 12.157-15.126 19.902-21.049a96 96 0 0 1 2.444-1.821c7.757-5.537 16.379-9.913 25.437-12.858a72 72 0 0 1 2.025-.622A87 87 0 0 1-1.438 1.923C-.499 1.799.168.931 0 0" clip-path="url(#q)" style="fill:#fff;fill-opacity:1;fill-rule:nonzero;stroke:none" transform="matrix(1.33333 0 0 -1.33333 555.822 814.191)"></path><path d="M0 0c-.111-.957-.978-1.655-1.93-1.506a87 87 0 0 0-12.848 3.033c-.752.232-1.486.483-2.229.743-9.402 3.242-18.303 8.036-26.209 14.075a76 76 0 0 0-2.555 2.025c-9.903 8.111-18.06 18.237-23.421 29.693a64.3 64.3 0 0 0 9.002 21.442c.038.065.084.13.121.186q.809 1.23 1.671 2.423c1.099 1.521 3.39 1.37 4.299-.272q.616-1.113 1.268-2.207c.12-.195.241-.399.362-.595 4.199-6.921 9.439-13.229 15.45-18.757a74 74 0 0 1 2.861-2.518c8.594-7.293 19.492-14.056 30.139-17.819C-3.876 29.615 1.725 14.869 0 0" clip-path="url(#r)" style="fill:#fff;fill-opacity:1;fill-rule:nonzero;stroke:none" transform="matrix(1.33333 0 0 -1.33333 557.237 803.588)"></path><path d="M195.118 614.286h-11.149v18.349h11.149zm0-27.017h-11.149v18.191h11.149zm0-26.868h-11.149v18.116h11.149zm-48.31 96.389v-19.278h3.948V508.839h77.111v128.673h4.645v19.278z" clip-path="url(#s)" style="fill:#fff;fill-opacity:1;fill-rule:nonzero;stroke:none" transform="matrix(1.33333 0 0 -1.33333 0 1122.52)"></path><path d="M266.655 587.269h-23.458v35.843h23.458z" clip-path="url(#t)" style="fill:#fff;fill-opacity:1;fill-rule:nonzero;stroke:none" transform="matrix(1.33333 0 0 -1.33333 0 1122.52)"></path><path d="M135.659 587.269h-23.458v35.843h23.458z" clip-path="url(#u)" style="fill:#fff;fill-opacity:1;fill-rule:nonzero;stroke:none" transform="matrix(1.33333 0 0 -1.33333 0 1122.52)"></path><path d="M0 0h-94.763l23.459 17.652 20.671 22.297h.604a4.647 4.647 0 0 0 2.025 8.826 4.647 4.647 0 0 0 2.026-8.826h.529l22.687-22.297z" clip-path="url(#v)" style="fill:#e1101e;fill-opacity:1;fill-rule:nonzero;stroke:none" transform="matrix(1.33333 0 0 -1.33333 315.9 241.845)" data-source="https://football-logos.cc"></path><path d="M0 0h-2.555v21.442H0a4.645 4.645 0 0 0 4.645-4.645V4.645A4.645 4.645 0 0 0 0 0m-9.987 26.784v-59.301h7.432v26.552h3.987c5.88 0 10.646 4.767 10.646 10.646v11.458c0 5.879-4.766 10.645-10.646 10.645z" clip-path="url(#w)" style="fill:#fff;fill-opacity:1;fill-rule:nonzero;stroke:none" transform="matrix(1.33333 0 0 -1.33333 103.458 537.071)"></path><path d="M0 0h-2.555v21.442H0a4.645 4.645 0 0 0 4.645-4.645V4.645A4.645 4.645 0 0 0 0 0Zm-9.987 26.784v-59.301h7.432v26.552h3.987c5.88 0 10.646 4.767 10.646 10.646v11.458c0 5.879-4.766 10.645-10.646 10.645z" clip-path="url(#x)" style="fill:none;stroke:#e1101e;stroke-width:.465;stroke-linecap:butt;stroke-linejoin:miter;stroke-miterlimit:10;stroke-dasharray:none;stroke-opacity:1" transform="matrix(1.33333 0 0 -1.33333 103.458 537.071)"></path><path d="m0 0 3.317 26.264L6.355 0Zm6.959 46.685H.111l-8.825-59.301h7.125l.874 6.921h7.729l.799-6.921h7.163z" clip-path="url(#y)" style="fill:#fff;fill-opacity:1;fill-rule:nonzero;stroke:#e1101e;stroke-width:.465;stroke-linecap:butt;stroke-linejoin:miter;stroke-miterlimit:10;stroke-dasharray:none;stroke-opacity:1" transform="matrix(1.33333 0 0 -1.33333 131.961 563.605)"></path><path d="M125.324 406.57h-6.619v59.301h6.619z" clip-path="url(#z)" style="fill:#fff;fill-opacity:1;fill-rule:nonzero;stroke:#e1101e;stroke-width:.465;stroke-linecap:butt;stroke-linejoin:miter;stroke-miterlimit:10;stroke-dasharray:none;stroke-opacity:1" transform="matrix(1.33333 0 0 -1.33333 0 1122.52)"></path><path d="M0 0h-2.611v48.19H0a4.236 4.236 0 0 0 4.236-4.237V4.236A4.236 4.236 0 0 0 0 0m-9.578 53.532V-5.769H2.673a8.883 8.883 0 0 1 8.884 8.884v41.533a8.884 8.884 0 0 1-8.884 8.884z" clip-path="url(#A)" style="fill:#fff;fill-opacity:1;fill-rule:nonzero;stroke:none" transform="matrix(1.33333 0 0 -1.33333 187.457 572.734)"></path><path d="M0 0h-2.611v48.19H0a4.236 4.236 0 0 0 4.236-4.237V4.236A4.236 4.236 0 0 0 0 0Zm-9.578 53.532V-5.769H2.673a8.883 8.883 0 0 1 8.884 8.884v41.533a8.884 8.884 0 0 1-8.884 8.884z" clip-path="url(#B)" style="fill:none;stroke:#e1101e;stroke-width:.465;stroke-linecap:butt;stroke-linejoin:miter;stroke-miterlimit:10;stroke-dasharray:none;stroke-opacity:1" transform="matrix(1.33333 0 0 -1.33333 187.457 572.734)"></path><path d="M0 0v-21.6h9.17v-5.686H0V-48.19h15.097v-5.769h-21.48V5.342h21.48V0Z" clip-path="url(#C)" style="fill:#fff;fill-opacity:1;fill-rule:nonzero;stroke:#e1101e;stroke-width:.465;stroke-linecap:butt;stroke-linejoin:miter;stroke-miterlimit:10;stroke-dasharray:none;stroke-opacity:1" transform="matrix(1.33333 0 0 -1.33333 219.28 508.482)"></path><path d="M0 0v-5.769h-22.176v59.301h6.735V0z" clip-path="url(#D)" style="fill:#fff;fill-opacity:1;fill-rule:nonzero;stroke:#e1101e;stroke-width:.465;stroke-linecap:butt;stroke-linejoin:miter;stroke-miterlimit:10;stroke-dasharray:none;stroke-opacity:1" transform="matrix(1.33333 0 0 -1.33333 292.203 572.734)"></path><path d="M230.654 406.57h-6.619v59.301h6.619z" clip-path="url(#E)" style="fill:#fff;fill-opacity:1;fill-rule:nonzero;stroke:#e1101e;stroke-width:.465;stroke-linecap:butt;stroke-linejoin:miter;stroke-miterlimit:10;stroke-dasharray:none;stroke-opacity:1" transform="matrix(1.33333 0 0 -1.33333 0 1122.52)"></path><path d="M0 0v-59.301h-6.745l-8.64 34.133v-34.133h-5.983V0h6.327l8.733-33.446V0z" clip-path="url(#F)" style="fill:#fff;fill-opacity:1;fill-rule:nonzero;stroke:#e1101e;stroke-width:.465;stroke-linecap:butt;stroke-linejoin:miter;stroke-miterlimit:10;stroke-dasharray:none;stroke-opacity:1" transform="matrix(1.33333 0 0 -1.33333 344.552 501.359)"></path><path d="M0 0v-59.301h-6.745l-8.64 34.133v-34.133h-5.983V0h6.327l8.733-33.446V0z" clip-path="url(#G)" style="fill:#fff;fill-opacity:1;fill-rule:nonzero;stroke:#e1101e;stroke-width:.465;stroke-linecap:butt;stroke-linejoin:miter;stroke-miterlimit:10;stroke-dasharray:none;stroke-opacity:1" transform="matrix(1.33333 0 0 -1.33333 380.779 501.359)"></path><path d="m0 0 3.317 26.264L6.355 0Zm6.959 46.685H.111l-8.825-59.301h7.125l.874 6.921h7.729l.799-6.921h7.163z" clip-path="url(#H)" style="fill:#fff;fill-opacity:1;fill-rule:nonzero;stroke:#e1101e;stroke-width:.465;stroke-linecap:butt;stroke-linejoin:miter;stroke-miterlimit:10;stroke-dasharray:none;stroke-opacity:1" transform="matrix(1.33333 0 0 -1.33333 398.28 563.605)"></path><path d="M0 0v-59.301h-6.429v43.238l-5.872-43.238h-4.282l-5.64 42.234v-42.234h-6.113V0h11.186l3.173-28.8L-9.797 0z" clip-path="url(#I)" style="fill:#fff;fill-opacity:1;fill-rule:nonzero;stroke:#e1101e;stroke-width:.465;stroke-linecap:butt;stroke-linejoin:miter;stroke-miterlimit:10;stroke-dasharray:none;stroke-opacity:1" transform="matrix(1.33333 0 0 -1.33333 461.97 501.359)"></path><path d="M0 0v-21.6h9.37v-5.686H0V-48.19h15.427v-5.769H-6.522V5.342h21.949V0Z" clip-path="url(#J)" style="fill:#fff;fill-opacity:1;fill-rule:nonzero;stroke:#e1101e;stroke-width:.465;stroke-linecap:butt;stroke-linejoin:miter;stroke-miterlimit:10;stroke-dasharray:none;stroke-opacity:1" transform="matrix(1.33333 0 0 -1.33333 478.973 508.482)"></path><path d="M0 0v-21.6h9.17v-5.686H0V-48.19h15.097v-5.769h-21.48V5.342h21.48V0Z" clip-path="url(#K)" style="fill:#fff;fill-opacity:1;fill-rule:nonzero;stroke:#e1101e;stroke-width:.465;stroke-linecap:butt;stroke-linejoin:miter;stroke-miterlimit:10;stroke-dasharray:none;stroke-opacity:1" transform="matrix(1.33333 0 0 -1.33333 514.716 508.197)"></path><path d="M0 0c0-7.562-5.658-13.815-12.737-13.815-3.596 0-6.847 1.579-9.17 4.134l1.839 7.879c1.448-3.69 3.884-5.85 6.875-5.655 4.367.297 5.528 4.029 5.528 9.046 0 1.533-.362 3.112-.919 4.524v.009c-.279.707-11.112 22.632-11.112 22.632v.019c-.873 1.774-1.347 3.957-1.31 6.577.102 6.922 5.305 12.542 11.855 12.542 3.001 0 5.751-1.18 7.841-3.131l-1.425-8.236c-1.872 3.622-3.322 5.161-6.119 5.003-3.267-.181-4.597-1.38-5.101-4.058-.399-2.123-.014-4.316.931-6.259L-2.213 8.982c.488-1.002.932-2.023 1.265-3.086C-.345 3.965 0 1.951 0 0" clip-path="url(#L)" style="fill:#fff;fill-opacity:1;fill-rule:nonzero;stroke:#e1101e;stroke-width:.465;stroke-linecap:butt;stroke-linejoin:miter;stroke-miterlimit:10;stroke-dasharray:none;stroke-opacity:1" transform="matrix(1.33333 0 0 -1.33333 569.84 563.766)"></path><path d="m0 0 6.308-38.109H-.353l-4.014 23.607-3.725-12.375v-11.446h-7.432v59.301h7.432V-6.587l7.274 27.565h7.126z" clip-path="url(#M)" style="fill:#fff;fill-opacity:1;fill-rule:nonzero;stroke:#e1101e;stroke-width:.465;stroke-linecap:butt;stroke-linejoin:miter;stroke-miterlimit:10;stroke-dasharray:none;stroke-opacity:1" transform="matrix(1.33333 0 0 -1.33333 597.042 529.33)"></path><path d="M0 0a3.945 3.945 0 0 0-3.948-3.948A3.945 3.945 0 0 0-7.897 0v40.293a3.945 3.945 0 0 0 3.949 3.948 3.94 3.94 0 0 0 2.796-1.152A3.97 3.97 0 0 0 0 40.293Zm3.772 47.316a10.9 10.9 0 0 1-7.72 3.196c-6.03 0-10.917-4.887-10.917-10.916V.269c0-6.029 4.887-10.916 10.917-10.916C2.081-10.647 6.968-5.76 6.968.269v39.327c0 3.019-1.226 5.741-3.196 7.72" clip-path="url(#N)" style="fill:#fff;fill-opacity:1;fill-rule:nonzero;stroke:none" transform="matrix(1.33333 0 0 -1.33333 630.847 567.47)"></path><path d="M0 0a3.945 3.945 0 0 0-3.948-3.948A3.945 3.945 0 0 0-7.897 0v40.293a3.945 3.945 0 0 0 3.949 3.948 3.94 3.94 0 0 0 2.796-1.152A3.97 3.97 0 0 0 0 40.293Zm3.772 47.316a10.9 10.9 0 0 1-7.72 3.196c-6.03 0-10.917-4.887-10.917-10.916V.269c0-6.029 4.887-10.916 10.917-10.916C2.081-10.647 6.968-5.76 6.968.269v39.327c0 3.019-1.226 5.741-3.196 7.72z" clip-path="url(#O)" style="fill:none;stroke:#e1101e;stroke-width:.465;stroke-linecap:butt;stroke-linejoin:miter;stroke-miterlimit:10;stroke-dasharray:none;stroke-opacity:1" transform="matrix(1.33333 0 0 -1.33333 630.847 567.47)"></path><path d="M0 0v-59.301h-6.745l-8.64 34.133v-34.133h-6.912V0h7.256l8.733-33.446V0Z" clip-path="url(#P)" style="fill:#fff;fill-opacity:1;fill-rule:nonzero;stroke:#e1101e;stroke-width:.465;stroke-linecap:butt;stroke-linejoin:miter;stroke-miterlimit:10;stroke-dasharray:none;stroke-opacity:1" transform="matrix(1.33333 0 0 -1.33333 676.267 501.074)"></path><path d="M0 0h-2.611v48.19H0a4.236 4.236 0 0 0 4.236-4.237V4.236A4.236 4.236 0 0 0 0 0m-9.578 53.532V-5.769H2.673a8.883 8.883 0 0 1 8.884 8.884v41.533a8.884 8.884 0 0 1-8.884 8.884z" clip-path="url(#Q)" style="fill:#fff;fill-opacity:1;fill-rule:nonzero;stroke:none" transform="matrix(1.33333 0 0 -1.33333 696.574 572.734)"></path><path d="M0 0h-2.611v48.19H0a4.236 4.236 0 0 0 4.236-4.237V4.236A4.236 4.236 0 0 0 0 0Zm-9.578 53.532V-5.769H2.673a8.883 8.883 0 0 1 8.884 8.884v41.533a8.884 8.884 0 0 1-8.884 8.884z" clip-path="url(#R)" style="fill:none;stroke:#e1101e;stroke-width:.465;stroke-linecap:butt;stroke-linejoin:miter;stroke-miterlimit:10;stroke-dasharray:none;stroke-opacity:1" transform="matrix(1.33333 0 0 -1.33333 696.574 572.734)" data-source="https://football-logos.cc"></path><!-- source: https://football-logos.cc --></svg>