<svg xmlns="http://www.w3.org/2000/svg" viewBox="0 0 1598 1554"><!-- Source: https://football-logos.cc --><path fill="#302e2b" d="m806 352 5 1 26 12 44 22 18 10 21 12 25 15 22 14 18 12 16 11 18 13 19 14 28 22 13 11 11 9 15 13 13 12 10 9 13 12 38 38 7 8 5 6-1 14-7 48-10 52-11 48-12 45-11 36-10 29-12 31-8 20-3 1-15-5-43-14-38-12-36-12-34-11-1-5 23-71 20-62 24-74 18-56 1-2-11-3-55-18-27-9h-3l-17 53-12 36-20 62-13 41-12 36-20 62-16 49-4 13 10 3 56 18 33 11 50 16 56 18 48 16 3 3-10 19-13 23-15 4-40 7-41 6-37 4-53 4-28 1h-66l-49-3-45-4-44-6-43-7-12-3-6-9-10-18-15-29-8-16-13-27-16-37-16-41-13-37-7-24-12-40-12-48-9-43-6-35-5-35v-11l14-15 11-12 33-33 8-7 16-15 8-7 15-13 13-11 11-9 16-13 16-12 18-14 20-14 16-11 15-10 22-14 20-12 21-12 18-10 23-12 15-8 28-13zM586 487l-12 38-10 30-11 35-12 36-16 50-18 55-12 38-11 33-11 34v4l21 7 63 20 8 3 5-1 22-68 10-30 10 2 51 16 22 5 12 2 12 1h20l16-2 15-3 17-6 17-9 12-9 15-15 9-13 9-17 7-19 4-17 2-16v-16l-2-16-5-17-8-16-7-11-9-11-10-10-17-13-17-10-21-10-20-7-27-9-50-16-55-18-13-4z" data-source="https://football-logos.cc"></path><path fill="#8d002e" d="M1441 593h6l38 28 20 15 19 14 21 16 14 10 11 9 3 4 4 16 8 38 7 46 4 38 2 37v58l-2 36-3 30-4 29-6 34-9 39-8 29-13 40-14 37-2 2-58 4-271 17-7-8-13-18-28-38-13-18-14-19 2-6 12-23 10-19 12-25 16-36 12-28 15-39 12-34 9-27 12-41 15-60 9-43 7-41 7-49 3-3 64-21 72-24zM1055 1171l5 1 12 16 10 14 28 38 13 18 14 19 6 8-1 6-17 42-15 37-44 108-8 5-26 11-37 14-30 10-36 10-25 6-41 8-34 5-51 5-30 2h-44l-1-1-30-2-40-4-44-7-9-3-19-45-14-34-34-82-29-70-4-10v-6l9-11 9-13 13-18 10-14 26-36 8-11 9-13 4-1 56 9 40 5 54 5 65 3h47l47-2 51-4 44-5 49-7zM461 0l5 1 35 16 29 13 42 19 35 16 40 18 37 17 36 16 32 15 8 4 1 1 1 134-3 3-23 11-29 15-22 12-26 15-25 15-19 12-39 26-19 13-13 10-16 12-13 10-16 13-22 18-15 13-10 9-8 7-13 12-10 9-9 9-8 7-16 16-7 8-10 10-7 8-5-1-103-33-12-4-11-24-13-31-19-45-10-24v-6l14-41 13-33 13-29 20-40 14-24 10-17 17-26 16-23 13-17 7-9 11-14 12-14 9-10 7-8 11-12 7-7 7-8 10-10 8-7 10-10 8-7 11-10 11-9 10-8zM195 606l10 2 57 18 59 19 12 4 3 3 8 54 8 42 10 43 7 27 11 38 14 45 14 40 15 38 13 31 14 30 12 25 11 22 12 22 6 12-7 9-13 19-7 9-13 18-12 17-14 19-7 10-16-2-90-16-84-15-8-7-13-13-7-8-9-10-8-10-13-16-14-19-13-18-19-29-14-23-15-26-18-34-14-29-18-42-14-37-15-46-10-38-5-24-1-6 14-10 14-11 21-16 20-15 18-14 28-21 18-14 19-14 18-14 12-9zM976 67l20 1 33 3 36 5 36 7 30 7 31 9 37 12 38 15 27 12 29 14 28 15 15 9 21 13 21 14 17 12 28 21 1 2v9l-6 64-9 101-8 90-1 8-8 4-61 20-52 17-22 7-5-1-14-15-12-13-7-7-8-7-10-10-8-7-7-7-8-7-11-10-11-9-11-10-10-8-16-13-14-11-21-16-14-10-17-12-16-11-26-17-19-12-15-9-26-15-29-16-29-15-16-8-23-11-1-1V149l9-7 26-17 44-29 28-19 14-9z" data-source="https://football-logos.cc"></path><path fill="#302e2b" d="m657 599 7 1 39 12 17 7 12 8 10 10 6 11 2 8v13l-4 15-4 8-7 9-8 6-11 5-11 2h-11l-17-3-49-16-1-5 13-41 9-27 7-22z" data-source="https://football-logos.cc"></path><!-- source: https://football-logos.cc --></svg>