<svg xmlns="http://www.w3.org/2000/svg" viewBox="24.08 162.41 739.18 739.18"><!-- Source: https://football-logos.cc --><path d="M572.946 442.39c0-153.092-124.1-277.192-277.191-277.192-153.092 0-277.194 124.1-277.194 277.191 0 153.093 124.102 277.193 277.194 277.193 153.09 0 277.191-124.1 277.191-277.193" style="fill:#0032e0;fill-opacity:1;fill-rule:nonzero;stroke:none" transform="matrix(1.33333 0 0 -1.33333 -.667 1121.853)" data-source="https://football-logos.cc"></path><path d="M111.5 442.39c0-101.598 82.656-184.252 184.254-184.252s184.252 82.654 184.252 184.252c0 101.596-82.654 184.252-184.252 184.252S111.5 543.986 111.5 442.39m362.734 0c0-98.575-79.906-178.48-178.48-178.48s-178.482 79.905-178.482 178.48 79.909 178.48 178.482 178.48c98.574 0 178.48-79.906 178.48-178.48" style="fill:#fff;fill-opacity:1;fill-rule:nonzero;stroke:none" transform="matrix(1.33333 0 0 -1.33333 -.667 1121.853)"></path><path d="M553.82 442.39c0-142.529-115.538-258.065-258.065-258.065-142.529 0-258.068 115.536-258.068 258.064 0 142.53 115.54 258.067 258.068 258.067s258.064-115.537 258.064-258.067M295.755 170.97c72.499 0 140.66 28.233 191.923 79.495 51.263 51.264 79.496 119.424 79.496 191.924S538.94 583.05 487.678 634.314c-51.264 51.264-119.423 79.496-191.923 79.496-72.501 0-140.661-28.232-191.926-79.496S24.333 514.89 24.333 442.39c0-72.5 28.232-140.66 79.496-191.924 51.265-51.262 119.426-79.495 191.926-79.495" style="fill:#fff;fill-opacity:1;fill-rule:nonzero;stroke:none" transform="matrix(1.33333 0 0 -1.33333 -.667 1121.853)" data-source="https://football-logos.cc"></path><path d="m184.9 646.3-7.68-3.985a1.15 1.15 0 0 0-1.549.49l-3.038 5.853a1.15 1.15 0 0 0 .491 1.55l23.84 12.374c.59.307 1.27.046 1.55-.49l3.037-5.853a1.15 1.15 0 0 0-.49-1.55l-7.679-3.985 14.883-28.672c.278-.537.046-1.271-.492-1.55l-6.443-3.344c-.537-.279-1.27-.046-1.549.49zM224.366 630.54l7.743 44.228c.081.397.412.8.822.909l.584.156c.408.11.896-.073 1.165-.376l28.834-34.419c.554-.666.29-1.55-.586-1.786l-6.486-1.74c-1.051-.281-1.613-.055-2.437.913l-3.34 4.053-15.894-4.263-.85-5.238c-.104-.78-.56-1.653-1.728-1.967l-6.426-1.723c-.877-.235-1.548.4-1.4 1.253m20.66 18.944-7.026 8.45-.058-.016-1.798-10.816zM277.395 681.984a1.15 1.15 0 0 0 1.133 1.164l18.087.246c7.258.099 13.265-5.688 13.363-12.886.076-5.566-3.553-10.092-8.787-12.28l8.496-15.252c.434-.78.023-1.754-1.004-1.768l-8.046-.11c-.483-.005-.85.292-.975.532l-8.263 15.92-4.173-.057.21-15.424c.009-.605-.53-1.157-1.134-1.165l-7.198-.098a1.15 1.15 0 0 0-1.166 1.134zm18.679-16.687c2.48.034 4.566 2.361 4.531 4.902s-2.18 4.568-4.66 4.534l-8.952-.121.128-9.436zM339.984 670.285l-8.458 1.821a1.15 1.15 0 0 0-.881 1.366l1.389 6.446a1.147 1.147 0 0 0 1.364.882l26.26-5.654c.65-.14 1.008-.775.88-1.366l-1.388-6.446a1.147 1.147 0 0 0-1.365-.882l-8.457 1.821-6.801-31.58c-.127-.59-.774-1.009-1.366-.881l-7.096 1.528c-.592.127-1.009.774-.882 1.365zM383.804 666.133c.262.546.988.8 1.534.539l6.706-3.222c.601-.289.801-.989.539-1.534l-10.61-22.084c-1.833-3.817-.465-8.233 3.407-10.093 3.926-1.886 8.283-.22 10.117 3.596l10.609 22.084c.262.545.934.827 1.534.538l6.707-3.222c.546-.262.8-.988.538-1.533l-10.82-22.52c-3.981-8.289-14.261-11.807-22.877-7.667-8.56 4.112-12.185 14.31-8.204 22.598zM147.904 295.487l-6.235 5.997a1.15 1.15 0 0 0-.033 1.625l4.572 4.753c.419.436 1.145.493 1.625.031l19.36-18.617c.48-.462.45-1.19.032-1.626l-4.571-4.752a1.15 1.15 0 0 0-1.625-.031l-6.235 5.995-22.392-23.284c-.42-.435-1.19-.45-1.626-.031l-5.233 5.032c-.435.418-.45 1.189-.03 1.625zM151.5 249.184l37.633 24.492c.346.21.865.243 1.225.019l.513-.321c.358-.224.558-.706.52-1.109l-5.518-44.56c-.11-.86-.937-1.27-1.706-.79l-5.695 3.56c-.923.576-1.141 1.14-.994 2.404l.685 5.207-13.953 8.72-4.412-2.95c-.641-.455-1.59-.718-2.616-.078l-5.643 3.528c-.77.48-.764 1.403-.039 1.878m27.946-2.197 1.39 10.9-.05.033-9.139-6.06zM222.758 255.456c.212.505.855.756 1.319.62l.927-.274c.29-.086.744-.472.816-.872l6.062-29.037.117-.035 20.858 21.092c.277.297.868.375 1.158.29l.928-.275c.464-.137.866-.698.77-1.237l-4.952-40.924c-.106-.788-.782-1.157-1.479-.951l-6.846 2.02c-.522.154-.907.773-.828 1.254l2.68 18.7-.116.033-15.296-15.922c-.277-.295-.884-.432-1.175-.347l-1.043.31c-.35.101-.728.528-.8.929l-4.255 21.692-.116.035-7.845-17.175c-.195-.447-.797-.775-1.376-.604l-6.847 2.022c-.696.205-1.065.881-.725 1.6zM281.19 242.253c.053.545.591.976 1.076.982l.968.013c.302.003.85-.23 1.035-.592l14.37-25.95h.122l13.696 26.314c.177.365.719.614 1.021.617l.968.013c.484.005 1.033-.41 1.101-.954l7.36-40.561c.13-.785-.407-1.336-1.133-1.345l-7.138-.093c-.544-.006-1.095.471-1.16.953l-2.965 18.657-.12-.001-9.91-19.73c-.176-.366-.717-.675-1.02-.679l-1.088-.014c-.363-.004-.851.292-1.038.652l-10.474 19.467-.121-.001-2.421-18.726c-.054-.484-.532-.974-1.137-.983l-7.138-.091c-.725-.01-1.277.528-1.167 1.316zM337.544 245.645a1.147 1.147 0 0 0 .797 1.416l24.126 6.727a1.15 1.15 0 0 0 1.415-.8l1.772-6.35a1.15 1.15 0 0 0-.8-1.417l-16.14-4.5 2.014-7.225 13.287 3.704c.582.162 1.253-.216 1.415-.798l1.772-6.353a1.15 1.15 0 0 0-.8-1.415l-13.286-3.705 2.194-7.867 16.142 4.501a1.15 1.15 0 0 0 1.416-.799l1.77-6.35a1.15 1.15 0 0 0-.798-1.416l-24.124-6.728a1.15 1.15 0 0 0-1.417.799zM379.235 258.904a1.433 1.433 0 0 0 .57 1.972l6.198 3.417c.688.38 1.593.119 1.973-.57l7.682-13.932 3.67 21.158c.066.382.396.91.714 1.085l6.675 3.68c1.006.556 2.179-.318 2.035-1.434l-3.838-22.357 23.205-10.14c1.022-.473 1.081-1.96.074-2.514l-7.31-4.032c-.371-.203-.965-.254-1.158-.154l-21.409 9.886 8.704-15.785c.38-.69.119-1.594-.57-1.974l-6.2-3.417a1.43 1.43 0 0 0-1.97.57zM443.484 251.837l-13.639 42.78c-.112.39-.006.9.307 1.186l.444.41c.312.287.828.351 1.208.207l41.502-17.134c.8-.332.977-1.239.31-1.853l-4.942-4.548c-.8-.738-1.403-.799-2.582-.32l-4.839 2.04-12.107-11.143 1.675-5.035c.269-.739.271-1.724-.619-2.543l-4.896-4.507c-.668-.615-1.557-.363-1.822.46m9.527 26.364-10.142 4.231-.044-.041 3.42-10.417zM64.638 462.37l-6.669-5.261c-.061-.064-.182-.371-.182-.501v-2.938c0-.337.27-.634.58-.634h4.682v-21.23c0-.306.239-.635.625-.635h5.123c.309 0 .58.297.58.635v29.93c0 .338-.271.634-.58.634zM72.88 452.691c0-6.476 4.494-9.864 8.933-9.864 1.186 0 3.108.409 4.285.912l.44.188-.094-.47c-.472-2.337-2.493-5.594-9.447-7.835q-.564-.172-.715-.46c-.078-.151-.078-.339 0-.573l1.335-3.581q.29-.815 1.13-.591c5.687 1.686 15.322 7.854 15.322 20.27 0 7.55-4.268 12.429-10.872 12.429-5.69 0-10.318-4.677-10.318-10.425m5.728-.233c0 2.607 2.1 4.728 4.682 4.728s4.683-2.121 4.683-4.728c0-2.632-2.101-4.773-4.683-4.773s-4.682 2.141-4.682 4.773M498.95 446.736c-1.837-1.225-5.128-4.04-5.128-7.378 0-5.094 4.472-8.653 10.873-8.653 6.536 0 11.102 3.559 11.102 8.653 0 3.782-3.3 6.29-5.103 7.379-.617.416-.932.486-.932.486l.877.605c1.745 1.205 4.28 3.506 4.28 6.728 0 4.876-4.204 8.28-10.224 8.28-5.792 0-9.996-3.482-9.996-8.28 0-3.64 2.951-5.938 4.207-6.75.589-.399.959-.676.959-.676s-.275.034-.916-.394m5.747 3.436c-2.219.86-3.392 2.278-3.392 4.104 0 1.718 1.66 3.282 3.483 3.282 1.88 0 3.528-1.533 3.528-3.282 0-1.783-1.287-3.317-3.441-4.105l-.09-.032zm-3.9-10.487c0 1.919 1.535 3.696 3.907 4.525l.083.03.081-.028c2.44-.821 3.955-2.556 3.955-4.527 0-2.209-2.102-3.748-3.99-3.748-1.949 0-4.035 1.505-4.035 3.748M517.129 452.691c0-6.476 4.494-9.864 8.934-9.864 1.186 0 3.108.409 4.285.912l.44.188-.094-.47c-.473-2.337-2.494-5.594-9.447-7.835q-.564-.172-.714-.46c-.078-.151-.078-.339 0-.574l1.335-3.58q.29-.815 1.13-.591c5.686 1.686 15.32 7.854 15.32 20.27 0 7.55-4.267 12.429-10.87 12.429-5.69 0-10.319-4.677-10.319-10.425m5.728-.233c0 2.607 2.1 4.728 4.683 4.728s4.683-2.121 4.683-4.728c0-2.632-2.101-4.773-4.683-4.773s-4.683 2.141-4.683 4.773M123.045 442.39c0 95.232 77.476 172.708 172.709 172.708 95.231 0 172.708-77.476 172.708-172.708s-77.477-172.708-172.708-172.708c-95.233 0-172.71 77.476-172.71 172.708m237.522 48.628c-12.38.31-19.345-4.44-19.345-8.563s10.783-9.515 18.077-17.76-5.074-15.54-22.834-15.857c-17.768-.317-32.032 1.585-38.058-3.49-6.026-5.073-1.268-10.782 10.677-22.199 8.134-7.775 4.07-15.91-9.62-21.46s-40.33-2.59-55.5-11.1c-15.17-8.508-19.749-43.19-8.51-69.93 11.577-27.539 40.7-34.409 60.3-34.551 13.956-.101 27.484 1.829 40.359 5.26 66.752 17.792 115.923 78.663 115.923 151.022 0 86.314-69.968 156.283-156.281 156.283-86.315 0-156.283-69.969-156.283-156.283 0-59.342 33.071-110.956 81.788-137.42 0 0-18.31 23.73-8.797 71.876 10.464 52.963 60.157 100.433 86.262 120.515 24.736 19.028 37.74 26.957 37.74 26.957s-47.096-17.601-82.774-53.28c-36.472-36.472-50.108-71.992-50.108-71.992s-5.492 19.023-6.978 45.035c-1.268 22.2 6.342 35.836 12.052 40.277 5.322 4.14 14.906.634 21.882-3.172 5.603-3.057 11.088-2.38 13.638 6.66 3.488 12.369-1.36 26.693 6.342 39.96 5.709 9.832 15.224 12.686 24.104 7.929s17.126-7.929 25.688 2.537c8.563 10.466 11.418 25.054 22.2 26.957s14.27-6.343 15.857-10.148c1.585-3.806 7.929-5.076 18.711-2.538s25.687 5.075 31.397-1.902 3.171-10.15-3.489-15.858-12.801-12.82-9.196-15.857c6.025-5.074 14.588-5.074 16.174-8.88 1.586-3.805-2.854-10.465-7.611-14.588-4.758-4.123-11.1-4.757-23.787-4.44" style="fill:#fff;fill-opacity:1;fill-rule:nonzero;stroke:none" transform="matrix(1.33333 0 0 -1.33333 -.667 1121.853)" data-source="https://football-logos.cc"></path><!-- source: https://football-logos.cc --></svg>