<svg xmlns="http://www.w3.org/2000/svg" viewBox="0 642.05 199.84 199.84"><!-- Source: https://football-logos.cc --><path d="M99.921 802.205a60.236 60.236 0 0 1-60.236-60.237 60.236 60.236 0 1 1 60.236 60.237" style="fill:#fff;fill-rule:evenodd" data-source="https://football-logos.cc"></path><path d="M99.921 841.89A99.92 99.92 0 0 1 0 741.968a99.921 99.921 0 1 1 99.921 99.922" style="fill:#005aa0;fill-rule:evenodd"></path><path d="M99.921 838.063a96.095 96.095 0 0 1-96.094-96.095 96.095 96.095 0 1 1 96.094 96.095" style="fill:#fff;fill-rule:evenodd"></path><path d="M99.921 834.803a92.835 92.835 0 0 1-92.834-92.835 92.835 92.835 0 1 1 92.834 92.835" style="fill:#cf322b;fill-rule:evenodd"></path><path d="M99.921 799.37a57.4 57.4 0 0 1-57.401-57.402A57.402 57.402 0 1 1 99.92 799.37" style="fill:#005aa0;fill-rule:evenodd"></path><path d="M99.921 796.535a54.567 54.567 0 0 1-54.567-54.566 54.567 54.567 0 1 1 54.567 54.566" style="fill:#fff;fill-rule:evenodd"></path><path d="M99.921 794.27a52.3 52.3 0 0 1-52.301-52.302A52.302 52.302 0 1 1 99.92 794.27" style="fill:#005aa0;fill-rule:evenodd"></path><path d="M114.548 733.989c.095-1.534-.002-2.83-.386-4.32-1.622-6.314-7.357-10.98-14.177-10.98s-12.553 4.666-14.177 10.98c-.36 1.4-.635 3.194-.55 4.665h-.1l-20.79-.043c.376-21.65 15.518-36.718 35.65-36.721 20.133-.004 35.274 15.359 35.88 36.346l-.009.023-21.349.072z" style="fill:#fdfdfd;fill-rule:evenodd"></path><path d="m96.438 751.807.077.972c.248 3.151.429 5.017 3.375 6.726l.918.532v1.062c0 3.577-.17 7.153-.17 10.73v.039c-.039 1.858-1.193 4.184-2.199 5.71-1.282 1.946-3.42 4.315-5.942 4.288H81.41a4.03 4.03 0 0 1-2.5-.836 4.17 4.17 0 0 1-1.566-3.954c.28-1.794 1.586-3.145 3.097-4.036 1.018-.634 2.708-1.872 2.513-3.274-.17-1.223-1.543-2.393-2.522-3.037-1.515-.87-3.043-2.258-2.835-4.18.181-1.669 1.586-2.737 3.014-3.37 2.56-1.278 6.097-2.95 6.12-6.284l.008-1.088h-7.863v-6.188c-3.859-.86-3.48-7.409.83-7.394h2.292l1.196-1.556a29 29 0 0 1 1.997-2.335l.11-.114c2.81-2.905 6.227-5.095 10.279-5.988 4.255-.939 8.598-.297 12.555 1.455 2.182.966 4.455 2.42 6.502 4.213l.02.017.003.004.193.17c3.798 3.4 6.765 7.965 6.818 12.723.02 3.68.038 7.364.057 11.044l.008 1.64c2.178 2.197 4.303 4.448 6.491 6.636l2.92 2.92-4.123.223c-6.93.376-23.16 1.018-23.145-9.067l.001-.5h-.01v-9.749c.008-3.112-6.46-2.964-6.406-.03l.035 1.876z" style="fill:#fdfdfd;fill-rule:evenodd"></path><path d="m116.524 732.12 1.595-.001h.44l1.963-.002c.125-10.67-9.401-19.455-20.706-19.334-10.645.223-19.199 7.905-20.238 18.092-.04.39-.028.813-.11 1.246h3.977c-.01-.396.019-.768.115-1.092a16.57 16.57 0 0 1 6.032-10.623 16.5 16.5 0 0 1 10.393-3.662c7.91 0 14.528 5.54 16.184 12.95.138.621.288 1.781.355 2.426zM132.913 725.741l-10.496 2.422c.277 1.305.414 2.731.513 4.345l10.768-.337c-.038-1.762-.344-4.737-.785-6.43M66.2 732.674l10.77.204c.05-1.333.263-2.75.56-4.34l-10.527-2.291c-.392 1.718-.818 4.678-.803 6.427M67.673 723.437l10.302 3.149c.413-1.269 1.006-2.573 1.728-4.02l-9.495-5.09c-.849 1.545-2.07 4.275-2.535 5.961M71.319 715.435l9.14 5.7c.726-1.119 1.636-2.226 2.707-3.438l-7.86-7.367c-1.219 1.273-3.103 3.596-3.987 5.105M76.938 708.614l7.35 7.875c.992-.892 2.157-1.725 3.505-2.618l-5.68-9.153c-1.508.913-3.93 2.668-5.175 3.896M84.105 703.499l5.066 9.507c1.189-.607 2.53-1.11 4.063-1.625l-3.124-10.31c-1.691.494-4.484 1.563-6.005 2.428M92.387 700.4l2.426 10.496c1.305-.277 2.73-.415 4.345-.515l-.342-10.767c-1.762.038-4.737.346-6.43.787M101.164 699.556l-.372 10.766c1.332.07 2.745.305 4.33.627l2.456-10.49c-1.712-.42-4.665-.891-6.414-.903M109.866 701.013l-3.146 10.302c1.269.412 2.573 1.005 4.02 1.726l5.088-9.496c-1.545-.848-4.275-2.068-5.962-2.532M117.748 704.581l-5.659 9.166c1.122.721 2.233 1.626 3.45 2.69l7.332-7.892c-1.279-1.213-3.61-3.087-5.123-3.964M124.667 710.248l-7.865 7.36c.893.99 1.728 2.155 2.623 3.502l9.146-5.693c-.916-1.506-2.674-3.925-3.904-5.169M129.772 717.47l-9.426 5.214c.624 1.179 1.149 2.512 1.687 4.037l10.26-3.284c-.52-1.684-1.632-4.46-2.521-5.967" style="fill:#cf322b;fill-rule:evenodd" data-source="https://football-logos.cc"></path><path d="M79.469 732.12h3.978" style="fill:none"></path><path d="M100.365 728.4a4.934 4.934 0 0 1-4.934-4.935 4.934 4.934 0 1 1 4.934 4.934" style="fill:#fdfdfd;fill-rule:evenodd"></path><path d="M100.365 726.557a3.09 3.09 0 0 1-3.092-3.092 3.091 3.091 0 1 1 3.092 3.092M84.655 737.791c13.851-18.028 35.05-2.102 35.174 9.035l.056 11.041h-14.173v-7.903c.016-5.575-10.19-5.406-10.09 0H80.718v-3.983h11.906c4.984.084 4.646-8.025 0-8.11-2.656-.076-5.313-.003-7.969-.08" style="fill:#cf322b;fill-rule:evenodd"></path><path d="M79.705 740.068H93.22c1.927-.008 2.117 3.809 0 3.801H79.705c-2.287-.035-2.181-3.809 0-3.801M105.722 760.213l14.17.044c2.394 2.393 4.64 4.786 7.033 7.18-9.012.489-21.214.257-21.203-7.224M88.574 752.908l6.104.016c.272 3.46.587 6.029 4.287 8.175 0 3.407-.17 7.323-.17 10.73-.051 2.477-3.448 8.225-6.294 8.194H81.394c-2.202.025-3.726-3.221 0-5.406 5.632-3.494 3.345-7.284 0-9.46-2.837-1.607-2.414-3.255 0-4.309 2.502-1.25 7.148-3.356 7.18-7.94" style="fill:#cf322b;fill-rule:evenodd"></path><path d="m23.476 705.49.734-1.323.601.15 4.39-7.92-.428-.463.734-1.324 6.404 1.299-.302 2.254q-1.7-.129-2.261-.083c-.735.055-1.392.229-1.956.521q-.646.322-.93.839-.136.24-.057.404.077.158.532.411l8.902 4.934q.79.438 1.016.496a.73.73 0 0 0 .413.005.74.74 0 0 0 .34-.247q.156-.19.666-1.11l2.14 1.186-3.788 6.833-2.14-1.187.23-.415q.381-.686.392-.93a.72.72 0 0 0-.17-.48q-.184-.231-.936-.649l-9.103-5.046q-.388-.215-.535-.189c-.093.016-.192.113-.287.285q-.292.525-.216 1.409.073.888.583 1.83.196.37 1.268 1.82l-1.742 1.433zM38.144 684.545l5.328-5.714 1.79 1.67-.45.481c-.305.327-.474.566-.51.725a.67.67 0 0 0 .07.473q.121.242.78.856l5.19 4.84q1.218 1.137 1.665 1.772.65.906.869 2.237.216 1.335-.242 2.676c-.3.894-.86 1.782-1.674 2.654q-1.31 1.403-2.758 1.895a5.4 5.4 0 0 1-2.906.19q-1.454-.302-2.438-1.221-.903-.844-1.032-1.858-.132-1.015.524-1.72.401-.43.858-.558c.308-.088.64-.074.996.033q.534.161.952.55l.606.566q.51.473 1.18.687.492.162 1.05-.007c.371-.11.7-.324.989-.633q.566-.608.57-1.394t-.51-1.52c-.196-.286-.68-.791-1.462-1.52l-5.374-5.012q-.409-.38-.56-.457-.298-.15-.546-.075-.256.077-.633.482l-.532.57zM47.96 675.004l6.552-4.255 1.333 2.052-.427.278q-.621.404-.714.572a.85.85 0 0 0-.116.541q.04.279.42.865l2.57 3.955 1.394-7.005q.094-.472.084-.613a.46.46 0 0 0-.058-.211q-.099-.154-.258-.153-.157-.006-.615.29l-.543.353-1.333-2.052 6.098-3.96 1.333 2.052-.204.133q-.425.274-.558.43-.132.154-.266.467a6.4 6.4 0 0 0-.272.922l-1.234 5.229 7.647 3.27q.988.422 1.308.408.436-.01 1.02-.388l.26-.169 1.332 2.053-6.808 4.421-1.333-2.052.273-.177q.744-.484.858-.666.112-.175.032-.296-.08-.125-.696-.417l-4.792-2.18-.765 3.244.978 1.506q.363.556.595.706a.72.72 0 0 0 .468.13q.236-.022.77-.37l.542-.352 1.333 2.052-6.552 4.255-1.333-2.052.493-.32q.573-.372.7-.6a.7.7 0 0 0 .07-.506c-.026-.154-.19-.466-.49-.928l-5.28-8.129q-.429-.66-.663-.826a.75.75 0 0 0-.497-.154q-.267.012-.77.34l-.553.36zM78.297 659.964l7.694-1.357.425 2.41-.676.12q-.562.099-.696.188a.78.78 0 0 0-.327.45q-.076.279.02.838l1.756 9.955q.106.601.18.73a.43.43 0 0 0 .248.182c.118.036.323.027.624-.026q1.518-.268 2.36-.866c.562-.403 1.033-.966 1.413-1.698q.57-1.098.81-2.858l2.218.425-.936 6.844-12.035 2.122-.425-2.41.754-.133q.462-.083.675-.26a.85.85 0 0 0 .274-.432q.068-.249-.034-.826l-1.745-9.896q-.11-.627-.267-.883a.8.8 0 0 0-.373-.348q-.218-.088-.682-.008l-.83.147zM97.375 657.104l13.341.933 1.43 5.746-2.135.68q-.431-1.42-1.077-2.306-.646-.892-1.478-1.23-.834-.332-1.97-.411l-2.44-.17-.31 4.44.793.055q.893.064 1.216-.062a.87.87 0 0 0 .478-.428q.157-.301.223-1.228l.047-.676 2.066.145-.523 7.479-2.066-.144.054-.767q.054-.78-.085-1.15c-.092-.245-.23-.42-.412-.515q-.277-.15-1.25-.218l-.713-.05-.284 4.064q-.045.644.004.792a.4.4 0 0 0 .208.228q.16.09.71.128l1.342.093c1.002.07 1.854-.031 2.565-.299q1.066-.409 1.947-1.412.884-1.01 1.42-2.44l2.038.942-2.557 6.432-13.819-.966.171-2.441.399.028q.804.055 1.089-.05a.74.74 0 0 0 .418-.419q.072-.184.134-1.073l.674-9.643c.037-.524.03-.873-.025-1.037a.68.68 0 0 0-.28-.381q-.197-.137-.802-.178l-.712-.05zM125.12 669.958l7.453 2.422-.756 2.327-.556-.18q-.543-.176-.78-.136a.73.73 0 0 0-.415.249q-.173.204-.39.872l-1.724 5.302-2.238-.727-.183-1.4a8.4 8.4 0 0 1-2.493.421 7.5 7.5 0 0 1-2.41-.373 7.15 7.15 0 0 1-3.437-2.357c-.899-1.118-1.466-2.456-1.692-4.017q-.346-2.339.465-4.835.804-2.474 2.427-4.106c1.08-1.091 2.335-1.815 3.762-2.186a7.4 7.4 0 0 1 4.215.124 7.8 7.8 0 0 1 1.912.932q.907.602 1.468 1.298l.647-.62 1.529.496-.44 6.035-2.246.073c-.29-1.445-.556-2.453-.81-3.028a4.6 4.6 0 0 0-1.029-1.48q-.648-.627-1.38-.863-1.035-.336-2.152.035c-.744.246-1.432.739-2.054 1.472q-.94 1.104-1.528 2.912-.647 1.993-.551 3.64.102 1.647.795 2.653.7 1.006 1.812 1.368.782.256 1.602.133.819-.124 1.222-.474.404-.354.643-1.091l.201-.62c.14-.428.202-.71.186-.838a.8.8 0 0 0-.206-.459q-.166-.172-.76-.365l-.864-.282zM139.419 667.232l6.696 4.023-1.26 2.098-.611-.367q-.53-.32-.766-.319a.7.7 0 0 0-.452.174q-.22.173-.598.805l-5.057 8.416q-.411.687-.464.926a.59.59 0 0 0 .068.426q.129.253.54.502l.73.438-1.26 2.097-6.697-4.023 1.26-2.098.545.327q.585.354.82.366a.68.68 0 0 0 .438-.136q.206-.15.567-.753l5.077-8.45q.426-.707.474-.98a.8.8 0 0 0-.074-.515q-.089-.17-.621-.49l-.615-.37zM157.285 679.72c1.861 1.736 2.782 3.763 2.772 6.085q-.024 3.486-2.763 6.424-1.845 1.979-4.058 2.77-2.219.796-4.384.326-2.166-.463-4.131-2.298-2.598-2.423-2.784-5.543-.228-3.765 2.741-6.948 2.759-2.956 6.269-3.208 3.505-.247 6.338 2.393m-1.883 2.088q-1.338-1.247-3.155-.877-2.293.468-4.342 2.666c-1.367 1.467-2.144 2.914-2.323 4.343q-.221 1.84 1.09 3.063 1.317 1.229 3.13.871 2.154-.439 4.195-2.63 1.44-1.543 2.016-2.961.58-1.42.38-2.576-.195-1.155-.991-1.899M167.399 691.114l3.337 5.553-6.45 9.357 5.43-3.262q.701-.422.831-.596.207-.254.205-.485.005-.228-.286-.71l-.401-.67 2.097-1.26 3.405 5.668-2.097 1.26-.376-.625q-.283-.47-.523-.601a.76.76 0 0 0-.495-.083q-.252.048-.939.46l-11.76 7.065-1.706-2.84 8.145-11.817-7.84 4.71q-.674.404-.818.593a.7.7 0 0 0-.136.438c.006.17.102.415.29.727l.394.656-2.098 1.26-3.405-5.668 2.097-1.26.354.588q.292.489.495.613a.76.76 0 0 0 .493.097q.294-.03.753-.306l8.721-5.24q.502-.302.678-.54.176-.24.179-.469.005-.228-.232-.62l-.44-.733zM138.434 796.336l3.125-2.313 12.389 8.345c.698.47 1.184.73 1.47.749q.43.03 1.127-.504l1.613 2.226-6.593 4.869-1.608-2.22.39-.306c.365-.27.582-.52.65-.736.07-.216.043-.403-.07-.56-.099-.135-.36-.367-.797-.694l-1.445-1.127-4.243 3.14.633 1.97q.21.627.322.784c.086.12.204.204.352.241.148.045.324.02.531-.062q.204-.079.971-.647l1.607 2.216-5.394 3.987-1.605-2.213q.519-.384.685-.666a1.2 1.2 0 0 0 .172-.594c.006-.213-.074-.542-.202-1.009z" style="fill:#fff;fill-rule:evenodd"></path><path d="m143.547 804.423 2.784-2.06-4.39-3.185z" style="fill:#cf322b;fill-rule:evenodd"></path><path d="m126.702 802.694 7.684-3.567 1.035 2.227-.574.265c-.408.19-.664.35-.76.487a.8.8 0 0 0-.13.503c.008.196.112.536.33 1.002l4.804 10.325c.072.154.16.222.315.235.202.018.451-.051.776-.178l.938-.365 1.08 2.322-7.678 3.565-1.115-2.387.55-.254c.443-.205.722-.377.825-.507a.7.7 0 0 0 .15-.467c-.003-.184-.095-.498-.303-.944l-4.858-10.43c-.1-.217-.368-.249-.396-.259-.175-.045-.406.073-.81.26l-.832.385zM108.305 807.997l7.462-2.09 7.983 9.113-1.715-6.27c-.147-.537-.26-.866-.354-.988q-.204-.263-.452-.327-.243-.058-.865.117l-.861.24-.7-2.683 7.306-2.019.695 2.663-.81.226c-.407.113-.685.237-.834.38a.8.8 0 0 0-.26.48c-.025.18.02.538.164 1.065l3.755 13.684-3.846 1.062-10.072-11.2 2.485 9.035c.143.52.254.844.354.97.1.123.245.209.43.245q.28.06.89-.11l.85-.237.654 2.515-7.349 2.018-.68-2.473.792-.221q.636-.18.842-.351c.137-.115.267-.257.31-.459.046-.214.141-.52.039-.892l-2.763-10.072c-.106-.387-.22-.66-.351-.818a.84.84 0 0 0-.444-.297q-.246-.058-.753.086l-1.142.319zM80.35 805.38c4.348.959 10.098 1.798 14.548 2.341-.593 2.297-1.455 4.327-1.235 6.645l-1.8.1c-.295-1.57.113-3.97-.83-5.038-.868-.98-2.143-.53-2.36.823L86.91 821.18l-.13.817c-.066.426.129.71.519.845.165.057.97.208 1.713.336l-.378 2.322-8.421-1.356.388-2.406.491.08c.557.09.663.08.832.042.165-.039.897-.195.974-.666l1.906-11.705c.205-1.254-.698-2.006-1.68-1.605-.893.366-1.481 2.538-2.397 4.062l-1.741-.357c1.053-2.023 1.126-4.097 1.365-6.21M78.974 805.715c-.819 1.663-1.47 3.34-1.146 5.088l-2.3-.214c.513-2.733-.093-4.79-2.569-5.728-.904-.342-2.318-.438-3.122.096-.61.403-.782.978-.84 1.443-.123.963 1.303 1.89 2.035 2.57l2.614 2.426c1.39 1.291 1.79 2.655 2.014 3.732.225 1.076.033 2.056-.553 2.942-.744 1.126-1.938 2.394-3.427 2.699-1.449.296-2.908.201-4.742-.685-.827-.4-1.493-.983-2.119-1.477-.643-.508-1.301-1.093-1.553-2.275l-.75.816-2.016-.163c.488-2.054 2.321-3.918 2.681-6.097l1.72.254c-.187 1.246-.709 3.063-.187 4.356.524 1.298 1.816 2.195 3.366 2.495 2.389.463 3.255-.175 3.48-1.217.356-1.658-1.09-2.518-2.318-3.539l-2.276-1.892c-2.81-2.336-2.712-5.177-.708-7.488 2.144-2.473 5.132-2.328 7.877-.618 1.27.792 2.06 2.555 2.857 3.02.51.177 1.022-.159 1.422-.726zM54.503 791.773l12.04 8.206c-1.271 1.472-2.47 3.105-2.876 5.22l-1.622-.259c.16-1.051.438-1.893.786-2.466.388-.64-.016-1.913-.432-2.412a8.4 8.4 0 0 0-1.658-1.504l-2.237-1.54-3.018 4.53.827.57q.815.56 1.178.637a.88.88 0 0 0 .644-.09c.192-.111.705-.817 1.029-1.32l.35-.544 1.44.99c-2.002 2.556-3.538 4.829-4.754 7.278l-1.438-.99.287-.397c.293-.406 1.039-1.724 1.064-1.985a.98.98 0 0 0-.158-.67c-.128-.188-.664-.61-1.256-1.018l-.584-.401-3.434 5.147c-.13.194.776.88.87.944l1.21.833c.904.62 2.014.754 2.8.923.781.168 1.452-.256 2.04-.94.661-.771 1.289-1.763 2.194-2.32l1.33 1.757c-1.844 1.287-2.945 3.046-4.113 5.796l-12.802-8.542 1.157-1.74.413.282c.484.331.828.55 1.038.562.165.009.4.006.522-.157l.582-.862 6.088-9.183c.279-.421.423-.725.448-.893a.76.76 0 0 0-.085-.484q-.123-.223-.673-.6l-.525-.361z" style="fill:#fff;fill-rule:evenodd"></path><path d="M101.156 808.072q3.58-.467 6.05 1.822 2.468 2.285 2.864 6.328.265 2.715-.545 4.95c-.537 1.494-1.366 2.695-2.481 3.612q-1.672 1.373-4.197 1.701-3.335.435-5.672-1.457-2.822-2.278-3.25-6.652-.395-4.069 1.6-6.952 1.996-2.879 5.631-3.352" style="fill:#fff;fill-rule:evenodd"></path><path d="M101.477 810.896q-1.719.222-2.58 1.874-1.088 2.08-.792 5.102c.196 2.01.746 3.557 1.653 4.625q1.174 1.374 2.853 1.154 1.695-.22 2.563-1.86 1.022-1.95.727-4.96-.206-2.12-.86-3.494c-.436-.914-.966-1.572-1.598-1.974q-.943-.6-1.967-.467" style="fill:#cf322b;fill-rule:evenodd" data-source="https://football-logos.cc"></path><!-- source: https://football-logos.cc --></svg>