<svg xmlns="http://www.w3.org/2000/svg" viewBox="0 0 975 975"><!-- Source: https://football-logos.cc --><circle cx="487.5" cy="487.5" r="487.5" style="fill:#000;fill-opacity:1;stroke-width:2.77573;paint-order:markers fill stroke" data-source="https://football-logos.cc"></circle><path fill="#eb0000" fill-rule="evenodd" d="M411.548 552.97a.167.165.247 0 0 .23.23l372.24-244.7a.583.594 57.136 0 0 .18-.8q-21.17-33.99-49.45-62.32-9.99-10.01-20.91-19.66a.81.808 39.372 0 1-.11-1.1l35.65-47.01a.864.864 0 0 1 1.21-.17q1.84 1.39 3.64 2.95 27.79 24.1 50.48 51.51 14.03 16.94 30.61 42.03a.63.621 56.312 0 0 .87.18l61.81-40.63a.448.447.095 0 1 .62.62q-4.04 6.05-21.07 31.98-4.16 6.32-48.71 72.09-18.47 27.27-49.33 71.67-103.39 148.75-111.25 160.2-15.38 22.39-24.39 35.37-30.12 43.41-34.66 50.12-.3.43-9.61 13.84-89.58 129.06-109.72 158.26-1.94 2.81-4.68 6.34a.527.528 20.323 0 0 .39.85q4.31.23 7.97.14 75.33-1.92 142.14-33.05 31.11-14.5 60.37-35.83c27.3-19.89 51.45-43.73 71.57-71q8.58-11.63 10.38-14.27c17.9-26.19 31.53-54.84 41.52-85.09q6.64-20.12 10.5-40.71 11.57-61.79.68-124.08a2.801 2.755 59.139 0 1 .52-2.14l46.54-61.37a.437.442 56.914 0 1 .78.16c.99 4.35 2.99 9.36 4.34 14.24q18.28 66.1 14.16 135.02-2.53 42.17-14.37 84.13a399.5 399.5 0 0 1-65.92 132.58q-33.43 44.2-77.92 78.32-39.95 30.65-87.15 51.83-4.33 1.95-25.38 10.1-20.2 7.84-50.75 14.77c-69.26 15.71-143.71 12.55-210.55-8.98q-56.59-18.23-106.7-51.54-7.39-4.91-12.9-8.78a.096.096 0 0 1 0-.16l56.35-37.05a1.078 1.091 43.824 0 1 1.13-.03q12.26 7.1 27.79 15.22 8.34 4.35 16.04 7.58c6.86 2.88 13.96 6.13 21.9 9.03q14.75 5.38 29.68 9.37a1.137 1.124 24.566 0 0 1.23-.45l222.95-323.42a.291.293.562 0 0-.4-.41q-12.68 8.45-69.72 46.95-151.84 102.47-166.64 112.6-23.55 16.11-31.6 21.43c-22.27 14.72-56.73 38.5-90.61 61.38q-61.59 41.58-121.02 82.87-.47.32-.72-.2-.11-.26-.01-.39c4.56-5.94 8.17-12.04 12.71-18.37q3.88-5.4 12.78-18.71 8.45-12.64 15.24-22.05a.688.676 42.85 0 0-.04-.86c-8.85-10.15-15.84-17.52-22.98-26.84q-10.34-13.5-12.55-16.56-19.2-26.63-31.41-53.05-12.96-28.03-21.07-54.42-4.52-14.66-8.95-34.4-4.12-18.3-6.12-35.01c-8.2-68.35-.11-137.21 25.83-201.45q4.87-12.05 6.11-14.78c6.09-13.43 14.44-30.29 22.96-44.07q14.4-23.29 25.77-38.2 33.69-44.15 77.63-78.11 2.87-2.22 13.98-10.2 9.19-6.59 14.25-9.82 46.75-29.83 97.52-45.95 21.35-6.78 49.14-12.48 4.15-.85 13.44-2.21c43.75-6.4 87.73-6.18 129.67.94q24.12 4.09 53.95 13.02 13.64 4.08 30.15 10.9 17.46 7.21 29.31 13.09a.704.701 40.728 0 0 .69-.05l71.27-47.33a.216.216 0 0 1 .3.3q-15.78 23.72-25.46 37.47-27.1 38.52-124.04 178.71-31.62 45.72-32.49 46.98-37.02 53.19-46.66 67.09-35.82 51.67-72.96 105.05-15.34 22.05-28.19 40.75m195.85-388.45q-69.7-25.58-143.84-20.02-52.96 3.97-100.93 22.71-88.49 34.55-148.5 109.46-8.63 10.78-15.67 21.56-7.12 10.89-9.28 14.46-6.26 10.37-15.98 29.54-3.36 6.63-9.7 22.29-5.23 12.93-8.39 22.8-13.94 43.6-16.44 88.88a.398.399 74.545 0 0 .62.35l468.23-311a.579.582 38.184 0 0-.12-1.03m-142.21 185.67-319.47 214.2a.592.595 66.008 0 0-.24.62q2.81 11.87 3.58 14.81c6.84 25.82 16.57 50.72 29.45 73.46 3.91 6.9 7.68 14.07 11.75 20.02 8.53 12.48 16.9 24.63 26.97 35.96a.66.659 41.641 0 0 1.04-.06l247.25-358.68a.238.237.167 0 0-.33-.33" data-source="https://football-logos.cc"></path><!-- source: https://football-logos.cc --></svg>