<svg xmlns="http://www.w3.org/2000/svg" viewBox="324.03 190.69 418.61 418.61"><!-- Source: https://football-logos.cc --><defs data-source="https://football-logos.cc"><clipPath id="a" clipPathUnits="userSpaceOnUse"><path d="M-556.98 300h800v-600h-800Z"></path></clipPath><clipPath id="b" clipPathUnits="userSpaceOnUse"><path d="M-549.243 300h800v-600h-800Z"></path></clipPath><clipPath id="c" clipPathUnits="userSpaceOnUse"><path d="M-541.782 300h800v-600h-800Z"></path></clipPath><clipPath id="d" clipPathUnits="userSpaceOnUse"><path d="M-538.73 300h800v-600h-800Z"></path></clipPath><clipPath id="e" clipPathUnits="userSpaceOnUse"><path d="M-501.606 300h800v-600h-800Z"></path></clipPath><clipPath id="f" clipPathUnits="userSpaceOnUse"><path d="M-498.637 300h800v-600h-800Z"></path></clipPath><clipPath id="g" clipPathUnits="userSpaceOnUse"><path d="M-492.111 300h800v-600h-800Z"></path></clipPath><clipPath id="h" clipPathUnits="userSpaceOnUse"><path d="M-489.56 300h800v-600h-800Z"></path></clipPath><clipPath id="i" clipPathUnits="userSpaceOnUse"><path d="M-392.436 185.315h800v-600h-800Z"></path></clipPath><clipPath id="j" clipPathUnits="userSpaceOnUse"><path d="M-413.627 186.72h800v-600h-800Z"></path></clipPath><clipPath id="k" clipPathUnits="userSpaceOnUse"><path d="M-437.979 175.168h800v-600h-800Z"></path></clipPath><clipPath id="l" clipPathUnits="userSpaceOnUse"><path d="M-372.368 172.293h800v-600h-800Z"></path></clipPath><clipPath id="m" clipPathUnits="userSpaceOnUse"><path d="M-446.535 178.12h800v-600h-800Z"></path></clipPath><clipPath id="n" clipPathUnits="userSpaceOnUse"><path d="M-355.31 187.498h800v-600h-800Z"></path></clipPath><clipPath id="o" clipPathUnits="userSpaceOnUse"><path d="M-450.99 201.376h800v-600h-800Z"></path></clipPath><clipPath id="p" clipPathUnits="userSpaceOnUse"><path d="M-329.82 190.113h800v-600h-800Z"></path></clipPath><clipPath id="q" clipPathUnits="userSpaceOnUse"><path d="M-465.8 210.62h800v-600h-800Z"></path></clipPath><clipPath id="r" clipPathUnits="userSpaceOnUse"><path d="M-329.843 213.981h800v-600h-800Z"></path></clipPath><clipPath id="s" clipPathUnits="userSpaceOnUse"><path d="M-497.325 219.754h800v-600h-800Z"></path></clipPath><clipPath id="t" clipPathUnits="userSpaceOnUse"><path d="M-321.287 215.93h800v-600h-800Z"></path></clipPath><clipPath id="u" clipPathUnits="userSpaceOnUse"><path d="M-522.219 293.855h800v-600h-800Z"></path></clipPath><clipPath id="v" clipPathUnits="userSpaceOnUse"><path d="M-277.214 295.992h800v-600h-800Z"></path></clipPath><clipPath id="w" clipPathUnits="userSpaceOnUse"><path d="M-272.13 311.393h800v-600h-800Z"></path></clipPath><clipPath id="x" clipPathUnits="userSpaceOnUse"><path d="M-524.803 303.106h800v-600h-800Z"></path></clipPath><clipPath id="y" clipPathUnits="userSpaceOnUse"><path d="M-279.013 336.744h800v-600h-800Z"></path></clipPath><clipPath id="z" clipPathUnits="userSpaceOnUse"><path d="M-523.477 333.549h800v-600h-800Z"></path></clipPath><clipPath id="A" clipPathUnits="userSpaceOnUse"><path d="M-299.694 353.726h800v-600h-800Z"></path></clipPath><clipPath id="B" clipPathUnits="userSpaceOnUse"><path d="M-517.747 340.797h800v-600h-800Z"></path></clipPath><clipPath id="C" clipPathUnits="userSpaceOnUse"><path d="M-295.915 372.802h800v-600h-800Z"></path></clipPath><clipPath id="D" clipPathUnits="userSpaceOnUse"><path d="M-504.759 367.392h800v-600h-800Z"></path></clipPath><clipPath id="E" clipPathUnits="userSpaceOnUse"><path d="M-310.82 385.086h800v-600h-800Z"></path></clipPath><clipPath id="F" clipPathUnits="userSpaceOnUse"><path d="M-477.218 377.162h800v-600h-800Z"></path></clipPath><clipPath id="G" clipPathUnits="userSpaceOnUse"><path d="M-479.42 381.457h800v-600h-800Z"></path></clipPath><clipPath id="H" clipPathUnits="userSpaceOnUse"><path d="M-330.708 384.285h800v-600h-800Z"></path></clipPath><clipPath id="I" clipPathUnits="userSpaceOnUse"><path d="M-464.111 410.72h800v-600h-800Z"></path></clipPath><clipPath id="J" clipPathUnits="userSpaceOnUse"><path d="M-339.815 391.299h800v-600h-800Z"></path></clipPath><clipPath id="K" clipPathUnits="userSpaceOnUse"><path d="M-447.337 418.78h800v-600h-800Z"></path></clipPath><clipPath id="L" clipPathUnits="userSpaceOnUse"><path d="M-364.527 411.875h800v-600h-800Z"></path></clipPath><clipPath id="M" clipPathUnits="userSpaceOnUse"><path d="M-429.288 405.28h800v-600h-800Z"></path></clipPath><clipPath id="N" clipPathUnits="userSpaceOnUse"><path d="M-416.73 408.24h800v-600h-800Z"></path></clipPath><clipPath id="O" clipPathUnits="userSpaceOnUse"><path d="M-390.229 422.957h800v-600h-800Z"></path></clipPath><clipPath id="P" clipPathUnits="userSpaceOnUse"><path d="M-366.946 229.36h800v-600h-800Z"></path></clipPath><clipPath id="Q" clipPathUnits="userSpaceOnUse"><path d="M-404.787 252.088h800v-600h-800Z"></path></clipPath><clipPath id="R" clipPathUnits="userSpaceOnUse"><path d="M-394.558 252.685h800v-600h-800Z"></path></clipPath><clipPath id="S" clipPathUnits="userSpaceOnUse"><path d="M-354.304 298.206h800v-600h-800Z"></path></clipPath><clipPath id="T" clipPathUnits="userSpaceOnUse"><path d="M-411.94 308.117h800v-600h-800Z"></path></clipPath><clipPath id="U" clipPathUnits="userSpaceOnUse"><path d="M-348.858 318.523h800v-600h-800Z"></path></clipPath><clipPath id="V" clipPathUnits="userSpaceOnUse"><path d="M-416.834 313.293h800v-600h-800Z"></path></clipPath></defs><path d="M0 0c0-86.697-70.282-156.979-156.979-156.979S-313.959-86.697-313.959 0s70.282 156.979 156.98 156.979S0 86.697 0 0" clip-path="url(#a)" style="fill:red;fill-opacity:1;fill-rule:nonzero;stroke:none" transform="matrix(1.33333 0 0 -1.33333 742.64 400)"></path><path d="M0 0c0-82.424-66.818-149.243-149.243-149.243S-298.486-82.424-298.486 0s66.819 149.242 149.243 149.242C-66.818 149.242 0 82.424 0 0" clip-path="url(#b)" style="fill:#fff;fill-opacity:1;fill-rule:nonzero;stroke:none" transform="matrix(1.33333 0 0 -1.33333 732.324 400)"></path><path d="M0 0c0-78.304-63.479-141.783-141.782-141.783S-283.564-78.304-283.564 0s63.478 141.782 141.782 141.782C-63.479 141.782 0 78.304 0 0" clip-path="url(#c)" style="fill:red;fill-opacity:1;fill-rule:nonzero;stroke:none" transform="matrix(1.33333 0 0 -1.33333 722.376 400)"></path><path d="M0 0c0-76.618-62.112-138.73-138.73-138.73-76.619 0-138.731 62.112-138.731 138.73 0 76.619 62.112 138.73 138.731 138.73C-62.112 138.73 0 76.619 0 0" clip-path="url(#d)" style="fill:#fff;fill-opacity:1;fill-rule:nonzero;stroke:none" transform="matrix(1.33333 0 0 -1.33333 718.307 400)"></path><path d="M0 0c0-56.115-45.491-101.606-101.606-101.606-56.116 0-101.607 45.491-101.607 101.606 0 56.116 45.491 101.606 101.607 101.606S0 56.116 0 0" clip-path="url(#e)" style="fill:red;fill-opacity:1;fill-rule:nonzero;stroke:none" transform="matrix(1.33333 0 0 -1.33333 668.809 400)"></path><path d="M0 0c0-54.475-44.161-98.637-98.637-98.637S-197.273-54.475-197.273 0s44.161 98.637 98.636 98.637C-44.161 98.637 0 54.475 0 0" clip-path="url(#f)" style="fill:#fff;fill-opacity:1;fill-rule:nonzero;stroke:none" transform="matrix(1.33333 0 0 -1.33333 664.849 400)"></path><path d="M0 0c0-50.871-41.24-92.111-92.111-92.111S-184.222-50.871-184.222 0s41.24 92.111 92.111 92.111S0 50.871 0 0" clip-path="url(#g)" style="fill:red;fill-opacity:1;fill-rule:nonzero;stroke:none" transform="matrix(1.33333 0 0 -1.33333 656.148 400)"></path><path d="M0 0c0-49.462-40.097-89.56-89.56-89.56-49.461 0-89.559 40.098-89.559 89.56s40.098 89.559 89.559 89.559C-40.097 89.559 0 49.462 0 0" clip-path="url(#h)" style="fill:#fff;fill-opacity:1;fill-rule:nonzero;stroke:none" transform="matrix(1.33333 0 0 -1.33333 652.746 400)"></path><path d="M0 0c-.314-2.835-2.765-5.607-5.814-5.105-3.528.565-4.888 4.461-5.194 7.556-.432 3.141.236 7.264 3.63 8.466 1.846.573 4.007.04 5.225-1.5C-.078 6.817.346 3.205 0 0m-8.722 15.158c-3.897-1.037-6.545-4.798-6.82-8.725-.298-4.383.173-9.268 3.088-12.763 3.331-3.974 9.877-4.265 13.711-.879C3.779-5.042 4.73-1.571 4.668 1.657c-.04 3.731-.692 7.744-3.183 10.674-2.396 2.929-6.655 3.927-10.207 2.827" clip-path="url(#i)" style="fill:#000;fill-opacity:1;fill-rule:nonzero;stroke:none" transform="matrix(1.33333 0 0 -1.33333 523.248 247.087)"></path><path d="M0 0c-2.051 5.718-4.432 11.317-6.709 16.949-1.572.133-3.143.275-4.707.4-.746-7.94-1.265-15.904-2.012-23.852 1.422-.094 2.844-.205 4.268-.314.455 5.529.981 11.05 1.304 16.579C-5.437 4.045-3.173-1.736-.84-7.485c1.518-.141 3.033-.227 4.558-.322C4.395.11 4.896 8.042 5.721 15.936c-1.445.118-2.876.243-4.314.353C.912 10.862.566 5.419 0 0" clip-path="url(#j)" style="fill:#000;fill-opacity:1;fill-rule:nonzero;stroke:none" transform="matrix(1.33333 0 0 -1.33333 551.503 248.96)"></path><path d="M0 0c-2.986-5.27-5.877-10.595-8.856-15.873.032 6.072.206 12.135.26 18.206-1.54.385-3.072.777-4.604 1.186.055-8.31.368-16.611.62-24.92 1.368-.37 2.742-.746 4.11-1.132C-4.095-15.448.235-8.34 4.611-1.256 3.072-.824 1.539-.4 0 0" clip-path="url(#k)" style="fill:#000;fill-opacity:1;fill-rule:nonzero;stroke:none" transform="matrix(1.33333 0 0 -1.33333 583.971 233.557)"></path><path d="M0 0c-5.5-1.571-11-3.149-16.5-4.712.4-1.43.793-2.851 1.178-4.288 2.027.581 4.047 1.17 6.074 1.759 1.768-6.26 3.638-12.488 5.382-18.756 1.47.433 2.947.857 4.424 1.281-1.792 6.252-3.622 12.495-5.391 18.755 2.012.55 4.023 1.115 6.035 1.704C.802-2.835.4-1.422 0 0" clip-path="url(#l)" style="fill:#000;fill-opacity:1;fill-rule:nonzero;stroke:none" transform="matrix(1.33333 0 0 -1.33333 496.49 229.724)"></path><path d="M0 0c-2.971-7.43-6.026-14.828-8.95-22.282 1.415-.542 2.829-1.091 4.243-1.633 3.01 7.367 5.956 14.765 8.966 22.132C2.837-1.186 1.422-.582 0 0" clip-path="url(#m)" style="fill:#000;fill-opacity:1;fill-rule:nonzero;stroke:none" transform="matrix(1.33333 0 0 -1.33333 595.38 237.494)"></path><path d="M0 0a983 983 0 0 1-8.305-3.888C-9.012-2.349-9.767-.833-10.466.714c3.159 1.453 6.278 2.985 9.46 4.391-.628 1.359-1.249 2.709-1.886 4.061-4.549-2.09-9.075-4.234-13.609-6.362 3.339-7.257 6.766-14.475 10.136-21.717 1.384.684 2.79 1.32 4.181 1.996-1.47 2.976-2.797 6.023-4.267 9.008 2.774 1.264 5.524 2.568 8.29 3.856C1.226-2.702.604-1.359 0 0" clip-path="url(#n)" style="fill:#000;fill-opacity:1;fill-rule:nonzero;stroke:none" transform="matrix(1.33333 0 0 -1.33333 473.746 249.997)"></path><path d="M0 0c3.096 5.67 6.176 11.349 9.264 17.027a181 181 0 0 1-4.047 2.191C1.39 12.229-2.389 5.207-6.238-1.775A1958 1958 0 0 1 6.907-8.938a300 300 0 0 1 2.13 3.99C6.05-3.244 3.01-1.649 0 0" clip-path="url(#o)" style="fill:#000;fill-opacity:1;fill-rule:nonzero;stroke:none" transform="matrix(1.33333 0 0 -1.33333 601.32 268.501)"></path><path d="M0 0a6841 6841 0 0 1 12.587-20.389c1.305.793 2.594 1.61 3.898 2.403-4.18 6.81-8.353 13.627-12.58 20.405C2.609 1.602 1.305.801 0 0" clip-path="url(#p)" style="fill:#000;fill-opacity:1;fill-rule:nonzero;stroke:none" transform="matrix(1.33333 0 0 -1.33333 439.76 253.484)"></path><path d="M0 0c3.883 5.16 7.852 10.25 11.771 15.378l-3.607 2.874A4269 4269 0 0 1-6.434-.762c3.929-3.055 7.866-6.102 11.849-9.094q1.379 1.8 2.758 3.589A663 663 0 0 1 0 0" clip-path="url(#q)" style="fill:#000;fill-opacity:1;fill-rule:nonzero;stroke:none" transform="matrix(1.33333 0 0 -1.33333 621.068 280.827)"></path><path d="M0 0c-3.992 5.074-7.943 10.171-11.959 15.221-1.218-.934-2.42-1.885-3.623-2.835C-10.67 6.087-5.712-.181-.778-6.464 3.135-3.377 7.048-.306 10.961 2.772c-.935 1.202-1.878 2.388-2.813 3.59C5.43 4.249 2.742 2.089 0 0" clip-path="url(#r)" style="fill:#000;fill-opacity:1;fill-rule:nonzero;stroke:none" transform="matrix(1.33333 0 0 -1.33333 439.791 285.309)"></path><path d="M0 0a257 257 0 0 0 3.324 3.086A994 994 0 0 0-7.347 14.443C-13.224 8.993-18.99 3.424-24.931-1.956c3.764-3.848 7.369-7.838 11.087-11.726a128 128 0 0 0 3.222 3.087c-2.625 2.788-5.232 5.584-7.867 8.364 1.407 1.367 2.869 2.694 4.308 4.029 2.278-2.465 4.547-4.94 6.906-7.327 1.1.982 2.184 1.995 3.268 3a430 430 0 0 0-6.937 7.438c1.17 1.052 2.347 2.096 3.495 3.18C-5.061 5.301-2.427 2.749 0 0" clip-path="url(#s)" style="fill:#000;fill-opacity:1;fill-rule:nonzero;stroke:none" transform="matrix(1.33333 0 0 -1.33333 663.1 293.005)"></path><path d="M0 0a237 237 0 0 0-3.009-3.267c.518-1.202 1.162-2.372 1.367-3.676-.094-2.615-2.806-4.924-5.422-4.131-3.033.754-5.461 3-7.339 5.395-1.736 2.043-2.192 5.514.213 7.242 1.516 1.657 3.739.95 5.46.079 1.053 1.154 2.13 2.293 3.151 3.479-1.705.95-3.496 1.908-5.484 2.003-5.092.393-9.901-4.415-9.421-9.52.109-3.007 1.815-5.709 3.779-7.885 2.75-2.85 6.247-5.482 10.372-5.584 5.044-.353 9.688 4.555 9.067 9.566C2.578-3.943 1.28-1.901 0 0" clip-path="url(#t)" style="fill:#000;fill-opacity:1;fill-rule:nonzero;stroke:none" transform="matrix(1.33333 0 0 -1.33333 428.382 287.906)"></path><path d="M0 0c.062 2.639-1.674 6.315 1.021 8.113 1.415.455 3.544.236 4.078-1.405.597-2.02.463-4.155.708-6.229C3.865.322 1.932.165 0 0m-8.793-.73c.063 2.544-1.956 7.429 1.91 7.846 3.425-.456 2.262-4.972 2.828-7.383-1.58-.165-3.166-.314-4.738-.463m5.5 10.351c-2.993 3.283-9.649 1.492-10.034-3.118-.134-3.927.44-7.838.755-11.75 7.614.629 15.219 1.281 22.842 1.815-.503 4.115-.245 8.38-1.4 12.386-1.979 4.743-9.6 5.089-12.163.667" clip-path="url(#u)" style="fill:#000;fill-opacity:1;fill-rule:nonzero;stroke:none" transform="matrix(1.33333 0 0 -1.33333 696.292 391.807)"></path><path d="M0 0c1.415-.141 2.836-.275 4.251-.432.228 2.93.464 5.859.778 8.781 1.626-.126 3.253-.267 4.872-.432-.315-3.331-.559-6.66-.896-9.99 1.422-.11 2.844-.204 4.266-.307.354 4.776.857 9.535 1.171 14.318-7.606.691-15.22 1.28-22.818 1.987-.149-1.477-.259-2.953-.424-4.437 3.19-.173 6.372-.503 9.562-.762C.527 5.82.267 2.906 0 0" clip-path="url(#v)" style="fill:#000;fill-opacity:1;fill-rule:nonzero;stroke:none" transform="matrix(1.33333 0 0 -1.33333 369.619 394.656)"></path><path d="M0 0c-1.147 2.513.636 5.412 3.088 6.283 2.302 1.004 4.879 1.045 7.338.825 2.767-.292 5.383-2.781 4.88-5.704-.684-3.416-4.526-4.664-7.598-4.82C4.872-3.668 1.163-3.001 0 0m16.681-4.735c4.314 3.823 3.709 11.764-1.32 14.716-3.661 2.161-8.242 1.98-12.25.999-1.996-.574-3.991-1.478-5.398-3.056-3.221-3.519-2.939-9.502.362-12.881C.157-6.967 3.12-7.799 5.964-7.783c3.74-.094 7.779.549 10.717 3.048" clip-path="url(#w)" style="fill:#000;fill-opacity:1;fill-rule:nonzero;stroke:none" transform="matrix(1.33333 0 0 -1.33333 362.84 415.19)"></path><path d="M0 0c-5.067.463-10.127.941-15.188 1.35-.15-1.446-.298-2.891-.472-4.329 5.445-.769 10.976-.847 16.415-1.704 3.536-.643 3.37-6.439-.15-6.982-5.648-.094-11.275.911-16.91 1.249-.14-1.469-.178-2.953-.322-4.421 4.96-.496 9.918-.934 14.883-1.367 2.521-.244 5.423.071 7.205 2.073C7.748-11.406 8.252-7.305 6.837-4.07 5.683-1.422 2.711-.214 0 0" clip-path="url(#x)" style="fill:#000;fill-opacity:1;fill-rule:nonzero;stroke:none" transform="matrix(1.33333 0 0 -1.33333 699.737 404.14)" data-source="https://football-logos.cc"></path><path d="M0 0c-2.381.682-3.968 3.479-3.088 5.842.927 2.71 3.842 3.92 6.388 4.627 2.789.848 6.585.793 8.196-2.074 1.634-2.379.047-5.593-2.287-6.809C6.459.053 3.104-.865 0 0m12.871-1.352c4.683 3.338 4.62 10.996.243 14.561-3.37 2.875-8.281 2.325-12.234 1.154-3.622-1.115-7.402-3.564-8.211-7.531C-8.533 2.175-5.642-3.371-.801-4.423c4.683-.989 9.782.345 13.672 3.071" clip-path="url(#y)" style="fill:#000;fill-opacity:1;fill-rule:nonzero;stroke:none" transform="matrix(1.33333 0 0 -1.33333 372.018 448.992)"></path><path d="M0 0c-6.027 1.531-12.063 3.04-18.074 4.618A399 399 0 0 0-19.135.299C-11.709-1.539-4.308-3.472 3.11-5.348A927 927 0 0 1 6.654 8.553c-1.399.345-2.797.691-4.187 1.029C1.641 6.385.777 3.204 0 0" clip-path="url(#z)" style="fill:#000;fill-opacity:1;fill-rule:nonzero;stroke:none" transform="matrix(1.33333 0 0 -1.33333 697.969 444.732)"></path><path d="M0 0q1.968.859 3.937 1.704C1.697 6.731-.558 11.75-2.805 16.768c-1.312-.572-2.625-1.146-3.945-1.712.841-1.838 1.658-3.683 2.499-5.529-5.697-2.569-11.417-5.104-17.122-7.665.621-1.336 1.234-2.677 1.871-4.014C-13.806.37-8.141 2.96-2.428 5.476-1.611 3.66-.817 1.83 0 0" clip-path="url(#A)" style="fill:#000;fill-opacity:1;fill-rule:nonzero;stroke:none" transform="matrix(1.33333 0 0 -1.33333 399.592 471.634)"></path><path d="M0 0a178 178 0 0 1-1.792-3.998c1.228-1.248 2.9-2.607 2.508-4.586-.213-2.648-3.08-4.211-5.531-3.67-3.349.589-6.892 2.099-8.802 5.052-1.091 1.624-.463 3.776.825 5.081 1.069 1.295 2.892.918 4.377 1.036C-7.842.227-7.269 1.539-6.71 2.85c-1.689.369-3.449.818-5.163.322-5.255-.934-8.257-7.539-5.854-12.204 1.384-2.986 4.268-4.886 7.175-6.19 3.19-1.413 6.915-2.23 10.3-.989 4.079 1.53 6.286 6.55 4.982 10.65C3.923-3.166 1.895-1.525 0 0" clip-path="url(#B)" style="fill:#000;fill-opacity:1;fill-rule:nonzero;stroke:none" transform="matrix(1.33333 0 0 -1.33333 690.33 454.396)"></path><path d="M0 0c-2.545 1.138-3.606 3.839-5.131 5.969A330 330 0 0 0-.306 9.204C.856 7.146 2.68 5.372 3.222 3.016 3.064 1.294 1.226.793 0 0m7.048 13.995c1.077-1.625 2.319-3.174 3.151-4.947 1.14-1.893-1.901-4.006-3.409-2.664-1.572 1.4-2.444 3.371-3.631 5.066 1.289.865 2.585 1.705 3.889 2.545M6.954 2.379c4.4-1.642 9.626 3.417 7.449 7.813-1.729 3.411-4.164 6.403-6.121 9.677C1.808 15.73-4.604 11.481-11.016 7.24-8.722 4.091-6.977.55-4.384-2.374c3.662-3.98 11.716-.737 11.338 4.753" clip-path="url(#C)" style="fill:#000;fill-opacity:1;fill-rule:nonzero;stroke:none" transform="matrix(1.33333 0 0 -1.33333 394.553 497.07)"></path><path d="M0 0c-.919-1.161-1.862-2.309-2.75-3.494 1.587-1.737 2.562-4.728.425-6.456-2.577-2.717-6.571-.52-8.959 1.351-2.363 1.789-5.24 5.254-3.07 8.214 1.255 2.099 3.855 2.2 5.876 1.273a355 355 0 0 1 2.663 3.535c-1.547.651-3.119 1.437-4.832 1.437-4.879.377-9.319-4.312-8.856-9.134.104-3.848 2.908-6.967 5.822-9.182 3.034-2.262 6.987-4.075 10.813-2.952 4.172 1.256 7.205 6.071 5.814 10.35C2.467-3.124 1.202-1.53 0 0" clip-path="url(#D)" style="fill:#000;fill-opacity:1;fill-rule:nonzero;stroke:none" transform="matrix(1.33333 0 0 -1.33333 673.012 489.855)"></path><path d="M0 0c-1.076 1.131-2.098 2.316-3.151 3.472 2.57 1.319 5.163 2.6 7.748 3.879A895 895 0 0 1 0 0m7.135 13.021C-.149 9.652-7.394 6.213-14.639 2.779a135 135 0 0 1 3.175-3.454C-10.002.07-8.533.793-7.063 1.523c1.547-1.813 3.182-3.542 4.785-5.3-.755-1.446-2.138-2.743-2.319-4.375.935-1.155 2.004-2.184 3.017-3.266C2.459-4.492 6.49 2.45 10.545 9.369a107 107 0 0 1-3.41 3.652" clip-path="url(#E)" style="fill:#000;fill-opacity:1;fill-rule:nonzero;stroke:none" transform="matrix(1.33333 0 0 -1.33333 414.427 513.448)"></path><path d="M0 0c5.517-5.371 11.024-10.751 16.675-15.981 1.006 1.083 1.996 2.182 2.984 3.274C14.082-7.5 8.612-2.189 3.151 3.143 2.099 2.098 1.047 1.053 0 0" clip-path="url(#F)" style="fill:#000;fill-opacity:1;fill-rule:nonzero;stroke:none" transform="matrix(1.33333 0 0 -1.33333 636.29 502.883)"></path><path d="M0 0a496 496 0 0 1-2.846 3.266c-4.15-3.587-8.39-7.083-12.588-10.625.936-1.085 1.855-2.176 2.783-3.268A244 244 0 0 1-8.038-6.73q6.02-7.176 12.052-14.326c1.147.95 2.302 1.9 3.442 2.858C3.409-13.446-.646-8.693-4.605-3.865-3.073-2.584-1.533-1.295 0 0" clip-path="url(#G)" style="fill:#000;fill-opacity:1;fill-rule:nonzero;stroke:none" transform="matrix(1.33333 0 0 -1.33333 639.227 508.61)"></path><path d="M0 0c-1.171.903-2.35 1.799-3.497 2.727-4.746-6.033-9.555-12.018-14.285-18.065 3.787-2.93 7.473-5.976 11.283-8.875.896 1.139 1.8 2.27 2.696 3.401-2.562 2.088-5.171 4.115-7.763 6.165C-7.716-9.762-3.834-4.9 0 0" clip-path="url(#H)" style="fill:#000;fill-opacity:1;fill-rule:nonzero;stroke:none" transform="matrix(1.33333 0 0 -1.33333 440.944 512.38)"></path><path d="M0 0c-.98 1.595-1.963 3.188-2.938 4.782A676 676 0 0 0 5.36 9.85c-.747 1.232-1.493 2.457-2.231 3.689-2.759-1.703-5.532-3.376-8.298-5.064-.794 1.296-1.587 2.575-2.373 3.871 3.032 1.799 6.058 3.613 9.013 5.538-.739 1.201-1.486 2.402-2.224 3.596-4.251-2.576-8.477-5.192-12.729-7.751C-9.529 7.163-5.491.644-1.492-5.906c4.408 2.615 8.763 5.342 13.137 8.01a402 402 0 0 1-2.247 3.715C6.303 3.824 3.137 1.939 0 0" clip-path="url(#I)" style="fill:#000;fill-opacity:1;fill-rule:nonzero;stroke:none" transform="matrix(1.33333 0 0 -1.33333 618.815 547.628)"></path><path d="M0 0c-3.835-6.627-7.693-13.248-11.527-19.878 4.125-2.434 8.297-4.783 12.414-7.226.739 1.265 1.454 2.545 2.193 3.801a465 465 0 0 1-8.557 4.949C-2.413-12.959.73-7.602 3.858-2.23A338 338 0 0 1 0 0" clip-path="url(#J)" style="fill:#000;fill-opacity:1;fill-rule:nonzero;stroke:none" transform="matrix(1.33333 0 0 -1.33333 453.087 521.732)"></path><path d="M0 0c-2.396 5.734-4.81 11.451-7.19 17.186-1.367-.567-2.735-1.133-4.092-1.713C-8.33 8.42-5.351 1.367-2.429-5.701 2.027-3.92 6.427-2.012 10.866-.172a437 437 0 0 0-1.744 4.028C6.09 2.545 3.032 1.312 0 0" clip-path="url(#K)" style="fill:#000;fill-opacity:1;fill-rule:nonzero;stroke:none" transform="matrix(1.33333 0 0 -1.33333 596.45 558.372)"></path><path d="M0 0c-.205 1.225-1.062 2.599-.158 3.746.778 1.367 2.782.433 2.719-.951C2.545 1.342 1.044.683 0 0m-5.815-8.946c-.856 2.253 1.32 3.833 3.033 4.735a112 112 0 0 0 2.074-6.195c-1.736-.676-4.525-.785-5.107 1.46M4.62-4.297a118 118 0 0 0-1.933-3.26q-.754 2.145-1.485 4.289c3.119.997 5.807 4.163 4.785 7.58C5.123 8.27-.967 9.337-3.19 6.008c-1.54-1.94-1.305-4.54-.724-6.793-1.893-.693-3.85-1.556-5.004-3.3-1.761-2.709-1.761-6.864.879-9.032 2.35-2.119 5.893-1.861 8.636-.731.117-.486.361-1.46.487-1.947 1.603-.51 3.198-1.06 4.816-1.539a138 138 0 0 1-2.027 5.844 17 17 0 0 1 4.274 6.101c-1.178.363-2.356.715-3.527 1.092" clip-path="url(#L)" style="fill:#000;fill-opacity:1;fill-rule:nonzero;stroke:none" transform="matrix(1.33333 0 0 -1.33333 486.036 549.167)"></path><path d="M0 0c.667-2.803 1.327-5.613 2.051-8.402-2.468-.541-4.919-1.163-7.371-1.76-.652 2.811-1.359 5.607-2.019 8.412a439 439 0 0 1-4.282-1.076c1.792-7.438 3.606-14.86 5.367-22.306q2.168.508 4.336 1.014c-.863 3.306-1.603 6.636-2.443 9.935 2.46.575 4.92 1.146 7.371 1.759.761-3.299 1.562-6.59 2.349-9.887 1.43.313 2.861.643 4.297.965A2396 2396 0 0 1 4.266.999C2.836.678 1.422.34 0 0" clip-path="url(#M)" style="fill:#000;fill-opacity:1;fill-rule:nonzero;stroke:none" transform="matrix(1.33333 0 0 -1.33333 572.384 540.372)"></path><path d="M0 0c-5.451-.438-10.914-.823-16.366-1.279.079-1.408.172-2.82.268-4.227 2.01.182 4.022.316 6.034.48.494-6.204.943-12.416 1.453-18.629 1.447.086 2.892.188 4.338.282-.463 6.227-.928 12.456-1.455 18.676 1.996.174 3.984.3 5.98.425A148 148 0 0 1 0 0" clip-path="url(#N)" style="fill:#000;fill-opacity:1;fill-rule:nonzero;stroke:none" transform="matrix(1.33333 0 0 -1.33333 555.64 544.32)"></path><path d="M0 0c.982 2.773 1.964 5.537 2.884 8.334.683-2.867 1.288-5.75 1.885-8.633C3.174-.197 1.587-.109 0 0m.786 14.098C-2.004 6.566-4.927-.928-7.732-8.459c1.54-.03 3.08-.118 4.612-.267.566 1.54 1.163 3.071 1.69 4.619 2.388-.087 4.769-.251 7.15-.339.346-1.609.699-3.212 1.052-4.822 1.58-.094 3.159-.15 4.739-.251-1.91 7.783-3.795 15.575-5.728 23.358-1.666.077-3.332.126-4.997.259" clip-path="url(#O)" style="fill:#000;fill-opacity:1;fill-rule:nonzero;stroke:none" transform="matrix(1.33333 0 0 -1.33333 520.305 563.943)"></path><path d="M0 0c5.666 5.655 14.953 8.184 22.332 4.445 5.814-2.356 9.601-8.67 16.161-9.267 6.17-.267 10.254 5.081 15.308 7.665 4.438 2.372 9.766.676 13.758-1.822 5.352-3.291 8.038-9.7 7.771-15.841-.196-10.949-5.955-20.585-10.907-29.987-1.467-3.188-3.629-6.267-3.85-9.864.433-1.594 2.302-.942 3.442-.597 7.504 3.118 13.492 9.315 21.506 11.333 5.806 1.54 12.455.668 17.185-3.196 5.193-4.225 7.315-11.42 6.412-17.899-1.47-8.309-10.152-12.928-11.805-21.15-1.128-6.314 3.114-11.836 3.688-17.955.793-7.422-3.111-14.851-9.029-19.21-5.776-3.989-13.303-4.107-19.997-2.969-9.241 1.541-17.538 6.794-23.675 13.761-2.686 3.354-4.762 7.272-8.086 10.059-1.256 1.274-3.974 1.471-4.47-.627-1.47-6.801-1.847-13.877-1.21-20.805 4.487-.447 9.469-1.053 12.817-4.375 2.945-2.984 2.732-7.515 2.033-11.333-.275-2.089-3.259-2.811-4.783-1.618-.866 1.037-1.486 2.246-2.17 3.393-3.04-.566-2.94-4.234-4.157-6.449-.816-2.661-4.086-3.989-6.506-2.552-3.481 2.026-4.934 6.025-6.961 9.276-1.714 3-4.393 5.568-7.787 6.504-3.929 1.287-8.282.375-12.125 1.963-2.223 1.138.103 3.479 1.47 4.186 4.754 2.395 10.254 1.632 15.392 1.775 1.934 6.314 1.611 13.012 1.25 19.524-.016 1.745-1.297 3.346-3.009 3.716-3.104.596-6.255-.637-8.714-2.475-5.399-3.99-8.471-10.272-13.703-14.443-7.552-5.946-18.812-7.037-27.109-1.979-6.097 3.627-9.791 10.602-9.862 17.631-.047 4.422-.392 9.135 1.752 13.172 1.297 2.545 3.317 5.065 2.916 8.104-.841 7.603-6.019 13.792-7.48 21.214-1.941 9.04 6.396 18.072 15.361 18.174 7.292.016 14.474-2.419 20.618-6.259 5.06-3.229 8.604-8.986 14.733-10.375 1.328-.48 1.957 1.296 1.524 2.3-.951 4.053-3.402 7.524-5.146 11.255-4.102 8.679-8.353 17.57-9.469 27.214C-5.28-10.65-4.251-4.217 0 0" clip-path="url(#P)" style="fill:#257c26;fill-opacity:1;fill-rule:nonzero;stroke:none" transform="matrix(1.33333 0 0 -1.33333 489.262 305.813)"></path><path d="M0 0c.614 2.01 2.791 4.775 5.148 3.951.793-2.899-1.957-5.538-1.816-8.491 1.65-1.956 4.652-.997 6.885-1.625.51-4.791-5.682-6.959-5.139-11.695.871-1.602 2.985-1.892 4.125-3.244 1.092-1.57.321-3.495-.386-5.049-1.831-3.872-5.225-6.7-8.84-8.852C-.038-23.334-.094-11.663 0 0" clip-path="url(#Q)" style="fill:#fff;fill-opacity:1;fill-rule:nonzero;stroke:none" transform="matrix(1.33333 0 0 -1.33333 539.716 336.118)"></path><path d="M0 0c2.805-.016 5.531-2.701 5.288-5.552-.054-11.216.039-22.431-.054-33.647-4.629 2.584-8.974 6.723-9.783 12.182.196 2.788 3.637 2.874 4.816 4.972.283 4.437-5.091 6.566-5.241 10.885 1.54 2.317 5.752-.268 6.938 2.616C1.689-5.607-.463-3.063 0 0" clip-path="url(#R)" style="fill:#fff;fill-opacity:1;fill-rule:nonzero;stroke:none" transform="matrix(1.33333 0 0 -1.33333 526.077 336.914)"></path><path d="M0 0c4.55.73 6.718-4.665 10.984-5.127 2.995.298 2.783 5.488 6.264 4.797 5.169-1.005 8.996-5.221 11.565-9.581-11.212-.078-22.425.007-33.645-.047-2.971-.423-5.406 2.411-5.634 5.182 3.128.567 5.705-1.805 8.721-1.938C.503-5.451-.55-2.151 0 0" clip-path="url(#S)" style="fill:#fff;fill-opacity:1;fill-rule:nonzero;stroke:none" transform="matrix(1.33333 0 0 -1.33333 472.405 397.609)"></path><path d="M0 0c2.732 4.422 6.757 9.047 12.248 9.604 3.05.056 2.712-4.585 5.533-4.774 4.25.424 6.436 5.497 10.912 5.261.78-2.215-.289-5.245 1.674-6.902 3.098.022 5.69 2.426 8.873 2.034.078-2.419-1.729-4.022-3.545-5.294C23.799.039 11.895-.086 0 0" clip-path="url(#T)" style="fill:#fff;fill-opacity:1;fill-rule:nonzero;stroke:none" transform="matrix(1.33333 0 0 -1.33333 549.253 410.823)"></path><path d="M0 0c-.07 2.811 2.499 5.545 5.367 5.277 11.268-.039 22.535.039 33.803-.039C36.577.824 32.656-3.52 27.384-4.376c-3.238-.548-3.128 3.872-5.611 4.761-4.376-.221-6.639-5.114-11.016-5.546-.903 2.325-.464 4.941-1.579 7.202C5.956 2.003 3.261-.338 0 0" clip-path="url(#U)" style="fill:#fff;fill-opacity:1;fill-rule:nonzero;stroke:none" transform="matrix(1.33333 0 0 -1.33333 465.145 424.698)"></path><path d="M0 0c11.832.117 23.666-.041 35.508.078 1.799-1.319 3.969-2.859 3.558-5.443-2.851-.031-5.287 1.635-8.013 2.097-3.67-.345-.243-5.994-3.387-6.895-3.953.557-6.012 5.025-10.051 5.348-2.67-.581-2.443-4.98-5.539-4.798C6.656-9.017 2.594-4.485 0 0" clip-path="url(#V)" style="fill:#fff;fill-opacity:1;fill-rule:nonzero;stroke:none" transform="matrix(1.33333 0 0 -1.33333 555.779 417.724)" data-source="https://football-logos.cc"></path><!-- source: https://football-logos.cc --></svg>