<svg xmlns="http://www.w3.org/2000/svg" viewBox="0.45 0.42 599.08 508.58"><!-- Source: https://football-logos.cc --><path fill="#000003" fill-rule="evenodd" d="M309.28 509h-18.4q-81.38-2.93-148.89-43.75c-35.83-21.66-66.42-50.31-90.16-84.63a.603.598-31.94 0 0-.79-.18l-14.45 8.02a.564.56-28.813 0 1-.77-.22L.48 324.63a.26.256-14.252 0 1 .23-.38h53.18a.624.607-74.532 0 0 .53-.31l26.97-47.47a.413.413-90 0 1 .72 0L112 330.28a.25.25 19.241 0 0 .34.1l7.11-3.95a.237.234-30.162 0 0 .09-.33q-21.12-34.6-26.95-73.38-6.53-43.36 5.47-84.47 10.6-36.34 33.87-66.36a.739.733-40.102 0 0 .07-.78l-24.41-48.53a2.066 2.061-55.881 0 1-.21-1.1l2.79-31.88a.456.454 17.961 0 1 .69-.35l28.49 17.58a2.417 2.404-87.721 0 1 .9.98l17.9 35.58a.224.222 56.075 0 0 .35.07q50.75-43.92 117.79-51.71a.736.732-4.974 0 0 .65-.77l-.24-3.95a.777.776 83.34 0 1 .64-.81L365.37.44a1.463 1.451-32.067 0 1 1.11.25l63.57 46.55a.529.517 33.216 0 1 .15.68l-6.02 10.83a.603.598-58.06 0 0 .18.79q37.24 26.48 59.47 64.93c36.4 62.97 35 140.09-2.92 201.89a.228.225 31.362 0 0 .08.32l6.62 3.69a.273.273 74.72 0 0 .37-.11l29.95-53.81a.55.545 45.298 0 1 .96.01l26.29 47.31a.924.916-14.105 0 0 .81.48h53.21a.336.334-75.29 0 1 .29.5l-35.31 63.45a.618.613-60.898 0 1-.83.24l-14.41-8.02a.545.541 32.055 0 0-.71.16q-49.38 70.62-129.29 104.59-46.82 19.91-99.25 23.12-5.2.32-10.41.71m29.03-488.98c7.17-.08 17.12 1.06 22.06 6.82a1.207 1.191 69.097 0 0 .9.41h12.08a.825.823-80.607 0 0 .78-.56l2.13-6.27a.819.809 26.205 0 0-.33-.95l-10.12-6.64a1.1 1.1 51.504 0 0-.66-.18l-25.24 1.48a.85.85-84.19 0 0-.76.62l-1.3 4.68a.469.464 7.366 0 0 .46.59m44.16 4.74-2.08 3.74a.821.807-54.099 0 0 .15.99q2.66 2.48 6.93 7.27 1.91 2.14 4.51 3.16a.61.609 25.367 0 0 .76-.27l3.11-5.59a.912.903-58.872 0 0-.29-1.2l-12.55-8.24a.385.379-59.052 0 0-.54.14m-95.35 2.83.49 17.34a2.622 2.576-60.142 0 0 .29 1.11q2.44 4.79 7.02 8.78c4.95 4.32 10.75 4.09 16.37 1.62a1.05 1.05-85.685 0 0 .6-.72l2.69-11.82a1.56 1.497-25.396 0 1 .11-.29l4.75-9.47a.731.725 37.507 0 0-.11-.81l-5.73-6.52a1.015.97 70.264 0 0-.66-.33q-12.96-1.17-25.05.22a.874.869 86.051 0 0-.77.89m68.48 7.33.21-2.47a.977.964-66.168 0 0-.3-.79q-5.5-5.17-13.14-3.52a.926.906-4.364 0 0-.72.82l-.2 2.25a.463.453-80.092 0 0 .33.48l13.19 3.67a.5.5-79.911 0 0 .63-.44m-51.36 142.93a.239.237-19.363 0 0 .16-.33q-5.99-13.57-15.26-23.5-4.42-4.75-11.41-7.02a4.948 4.906-35.783 0 0-1.52-.24q-13.55.04-15.95-.05-1.45-.06-1.95-.68a2.731 2.572-44.697 0 1 .12-3.39q2.99-3.51 3.74-6.58a2.945 2.61-41.544 0 0 .08-.66v-23.16a1.572 1.562-63.793 0 0-.32-.95q-4.59-5.91-6.6-9.92c-3.13-6.25.88-9.11 5.92-13.43q8.16-6.99 18.58-15.93a.92.92-38.402 0 0 .3-.9l-1.68-7.61a5.6 4.98 41.645 0 1-.12-1.02l-.92-32.42a.385.382-4.095 0 0-.43-.37q-65.67 7.66-114.82 51.19a.72.717-34.578 0 0-.16.86l58.93 117.16a.521.504 69.007 0 0 .58.27zM373.8 46.67q-18.86-11.02-41.34-14.32a.734.733 13.68 0 0-.79.48l-8.68 25.53a.457.456 17.318 0 0 .31.59q17.6 4.88 32.67 14.64a.505.496 33.045 0 0 .69-.14l17.25-26.3a.339.337-58.074 0 0-.11-.48m-239.907-3.794a.34.34-3.994 0 0-.125-.137l-16.249-10.02a.34.34-51.753 0 0-.517.26l-1.524 17.435a.34.34-9.285 0 0 .035.182l78.204 155.449a.34.34-79.967 0 0 .388.177l19.026-4.897a.34.34 0 0 0 .219-.482zM375.86 44.42l1.38-2.48a.724.706 45.754 0 0 0-.69c-2.04-3.7-2.68-6.15-6.51-6.73q-4.75-.73-6.19-.75a.646.637-85.203 0 0-.63.54l-.58 3.51a.61.61-70.489 0 0 .3.63l11.23 6.25a.734.734-66.097 0 0 1-.28m21.631-2.208a.44.44-17.665 0 0 .164.595l18.958 10.949a.44.44 29.184 0 0 .604-.166l2.224-3.992a.44.44-73.155 0 0-.143-.582l-18.353-12.037a.44.44 33.054 0 0-.625.154zm-19.085 46.902a.37.37 26.072 0 0 .545-.168l13.332-32.333a.37.37 74.679 0 0-.138-.451l-9.776-6.419a.37.37-54.461 0 0-.512.106l-18.844 28.722a.37.37-19.932 0 0 .106.512zM398.4 59.34l-11.75 31.79a.625.621-66.471 0 0 .3.77q4.84 2.47 9.55 2.08a1.117 1.107-77.499 0 0 .87-.56l13.09-22.67a.918.917 49.263 0 0 .06-.81q-3.17-8.11-11.28-10.99a.661.652 19.682 0 0-.84.39m-112.92 3.02q.36 4.87 2.74 10.65 1.03 2.52-.56 5.13a1.694 1.604-6.572 0 1-.26.31l-19.66 17.31a3.083 3.076-27.37 0 0-.96 3.01c.98 4.2 3.18 7.12 6.25 12.28a1.771 1.732 30.329 0 1 .26.95q-.13 7.95.02 17.25.13 7.93 8.22 7.96 30.41.1 33.23-.01 4.07-.16 6.65-1.04c3.42-1.17 4.33-3.19 5.63-6.66 1.9-5.08 5.67-6.16 10.32-7.85 5.72-2.08 6.64-6.89 6.73-12.55q.07-3.97 2.64-6.5c1.47-1.44 5.03-2.26 6.78-3.1q3.2-1.51 3.59-5.11c.41-3.89.48-6.28-2.09-8.67q-4.49-4.18-10.56-7.44-10.94-5.88-22.93-10.58-2.5-.97-12.71-2.38a20.5 20.263 60.927 0 1-5.76-1.68c-5.88-2.7-10.7-6.26-16.24-3.58a2.364 2.355-15.069 0 0-1.33 2.3m133.84 4.02-13.29 23.2a1.858 1.803-30.651 0 0-.25.92q-.05 9.04-.01 10c.75 17.73-11.05 28.4-20.4 41.31q-5.11 7.06-4.58 14.7.59 8.43 5.81 15.66 1.96 2.7 8.62 7.96 10.97 8.66 17.98 17.17c13.16 15.95 24 33.45 33.82 51.11a1.936 1.876-60.365 0 1 .24.93V355.6a.327.327 67.281 0 0 .56.23c39.92-40.88 59.42-96.3 53.32-153.57-5.85-54.9-36.15-104.36-81.2-136.02a.432.428 32.018 0 0-.62.14M185.95 207.59l-49.35-98.1a.267.265-39.684 0 0-.45-.04c-21.56 28.87-34.7 63.3-37.34 99.33-4.64 63.37 22.35 123.36 71.69 163.26a.283.281-77.608 0 0 .45-.29l-38.41-149.09a.565.555-14.406 0 1 .41-.68l52.62-13.56a.586.583-20.54 0 0 .38-.83m147.674-29.057a.35.35 0 0 0-.427-.251l-55.223 14.281a.35.35 0 0 0-.251.427l15.273 59.057a.35.35 0 0 0 .427.251l55.223-14.281a.35.35 0 0 0 .251-.427zM285.46 321.068a.52.52 22.572 0 1 .487.39l24.602 95.509a.52.52 77.812 0 0 .555.388l15.494-1.564a.52.52-35.965 0 0 .451-.647l-20.959-81.36a.52.52 20.856 0 1 .374-.634l62.332-16.06a.52.52-13.598 0 0 .374-.634l-18.18-70.572a.52.52 69.506 0 0-.634-.374l-62.322 16.06a.52.52 20.638 0 1-.634-.374l-17.04-66.162a.52.52 49.955 0 0-.634-.374l-64.142 16.53a.52.52 80.622 0 0-.374.634l17.05 66.152a.52.52-73.283 0 1-.374.634l-62.332 16.05a.52.52-54.392 0 0-.374.634l18.18 70.572a.52.52 70.112 0 0 .634.374l62.322-16.05a.52.52 19.241 0 1 .634.374l16.025 62.218a.52.52 29.393 0 0 .42.383l16.608 2.735a.52.52-3.466 0 0 .588-.642l-22.011-85.429a.52.52-74.566 0 1 .251-.584l15.574-8.645a.5.5-37.776 0 1 .268-.065zm118.16 1.402 8.33-10.11a.961.957 55.088 0 0 .16-.91l-31.63-89.04a1.108 1.107 61.507 0 1 .37-1.25q2.9-2.23 4.63-5.87a6.714 2.227-66.773 0 0 .38-.87q.23-.59-.95-3.82-1.9-5.18-1.93-5.33a.646.632 83.774 0 0-.62-.51l-9.68-.02a1.111 1.062-61.022 0 0-.61.19l-11.87 8.3a.913.908 63.269 0 0-.34 1.04l1.85 5.21a1.114 1.078 89.045 0 0 .65.65l4.41 1.63a1.419 1.402-89.659 0 1 .83.85l35.43 99.75a.349.34 54.879 0 0 .59.11M197.709 213.514a.32.32 0 0 0-.39-.23l-55.281 14.297a.32.32 0 0 0-.23.39l15.283 59.095a.32.32 0 0 0 .39.23l55.281-14.297a.32.32 0 0 0 .23-.39zM426.4 358.61a.517.513 87.374 0 0 .58-.64l-4.04-15.72a1.41.94-78.69 0 0-.07-.17l-1.8-3.13a2.509 2.42 26.603 0 1-.3-.85l-1.68-10.31a1.661 1.649 55.83 0 1 .21-1.12l10.23-17.73a.95.95-43.355 0 0 .1-.7l-7.4-28.7a2.286 2.27 7.633 0 0-1.1-1.43l-9.41-5.23a1.276 1.274 7.215 0 1-.59-.76l-13.22-48.5a.634.628 74.823 0 0-.76-.44l-10.86 2.8a.3.299-16.779 0 0-.21.39l31.95 89.98a1.049 1.038-35.737 0 1-.17 1.01l-11.26 13.67a.962.95-35.002 0 0-.17.93l8.67 24.41a.74.738 84.399 0 0 .57.47zm-24.897 32.287a.32.32 36.92 0 0 .452.158l4.715-2.62a.32.32 66.364 0 0 .125-.435l-5.974-10.752a.32.32-26.778 0 1-.02-.266l4.417-11.963a.3.3 30.186 0 1 .064-.105l5.959-6.532a.32.32 55.603 0 0 .065-.323l-42.475-119.623a.32.32 66.53 0 0-.485-.155l-7.294 5.104a.32.32-29.434 0 0-.122.359l37.452 118.896a.3.3-8.823 0 1 .003.181l-3.366 12.103a.32.32-48.161 0 0 .013.208zM104.97 334.864a.4.4-43.628 0 0 .156-.544l-23.217-41.791a.4.4 1.188 0 0-.699 0l-21.996 39.516a.4.4-32.758 0 1-.349.205H14.5a.4.4-22.213 0 0-.35.594l24.05 43.29a.4.4-70.569 0 0 .645.075l8.471-9.291a.4.4 49.403 0 1 .101-.08zm413.726-42.093a.423.423 35.163 0 0-.74 0l-23.07 41.493a.452.443 29.127 0 0 .18.61l57.031 31.694a3.711 3.434-4.181 0 1 .94.75l8.208 8.992a.285.281 38.404 0 0 .46-.05l24.15-43.434a.39.388 14.768 0 0-.34-.58h-43.969a.715.699-14.201 0 1-.62-.361zM315.4 339.16l19.32 74.98a.552.539-11.506 0 0 .62.4q28.26-4.75 54.31-17.07a.47.463-20.598 0 0 .25-.54l-18.55-72.02a.548.546 75.445 0 0-.66-.39l-55.01 14.17a.393.391-14.402 0 0-.28.47m-29.14 77.47-20.81-80.79a.677.67 67.065 0 1 .3-.75l4.16-2.54a2.36 2.15 21.092 0 1 .72-.28q3.23-.65 6.16.02a1.163 1.154-.804 0 1 .85.82l21.66 84.1a.567.561 74.4 0 0 .7.4l.02-.01a.561.556 75.96 0 0 .41-.69L278.5 331.7a.889.886 83.406 0 0-.83-.66l-6.36-.2a2.324 2.297 31.308 0 0-1.18.28l-5.48 3.05a1.118 1.1-21.924 0 0-.54 1.24L285 416.5a.678.668 83.466 0 0 .62.5l.34.01a.304.303 83.475 0 0 .3-.38m13.729 84.369c97.969.038 190.749-47.592 244.579-129.162a.514.505-59.266 0 0-.178-.727l-68-37.85a.543.539-58.23 0 0-.71.17c-37 54.69-98.89 88.31-164.713 91.347-3.608.167-7.333.488-10.949.486-3.616-.001-7.341-.325-10.949-.495-65.82-3.088-127.684-36.756-164.641-91.475a.543.539 58.275 0 0-.71-.17l-68.03 37.797a.514.505 59.31 0 0-.178.726c53.766 81.612 146.509 129.315 244.479 129.353M248.47 410.51l-13.07-50.74a.39.381 75.071 0 0-.47-.28l-54.94 14.15a.63.63-26.54 0 0-.45.77l.88 3.42a.651.632-24.734 0 1-.27.7l-.33.21a.27.27 44.814 0 0 0 .44q31.17 22.13 68.27 31.71a.31.31-6.554 0 0 .38-.38m168.034-28.518a.3.3 47.431 0 0 .074-.418l-8.379-11.974a.3.3-62.929 0 0-.528.068l-2.303 6.233a.3.3 59.196 0 0 .019.249l5.282 9.519a.3.3-62.277 0 0 .434.1z" data-source="https://football-logos.cc"></path><path fill="#fff" fill-rule="evenodd" d="M338.31 20.02a.469.464 7.366 0 1-.46-.59l1.3-4.68a.85.85-84.19 0 1 .76-.62l25.24-1.48a1.1 1.1-78.02 0 1 .66.18l10.12 6.64a.819.809 26.205 0 1 .33.95l-2.13 6.27a.825.823-80.607 0 1-.78.56h-12.08a1.207 1.191 69.097 0 1-.9-.41c-4.94-5.76-14.89-6.9-22.06-6.82M383.01 24.62l12.55 8.24a.912.903-58.872 0 1 .29 1.2l-3.11 5.59a.61.609 25.367 0 1-.76.27q-2.6-1.02-4.51-3.16-4.27-4.79-6.93-7.27a.821.807-54.099 0 1-.15-.99l2.08-3.74a.385.379-59.052 0 1 .54-.14M287.12 27.59a.874.869 86.051 0 1 .77-.89q12.09-1.39 25.05-.22a1.015.97 70.264 0 1 .66.33l5.73 6.52a.731.725 37.507 0 1 .11.81l-4.75 9.47a1.56 1.497-25.396 0 0-.11.29l-2.69 11.82a1.05 1.05-57.715 0 1-.6.72c-5.62 2.47-11.42 2.7-16.37-1.62q-4.58-3.99-7.02-8.78a2.622 2.576-60.142 0 1-.29-1.11zM354.97 35.36l-13.19-3.67a.463.453-80.092 0 1-.33-.48l.2-2.25a.926.906-4.364 0 1 .72-.82q7.64-1.65 13.14 3.52a.977.964-66.168 0 1 .3.79l-.21 2.47a.5.5-79.911 0 1-.63.44"></path><path fill="#ee2f2f" fill-rule="evenodd" d="m304.24 177.85-82.73 21.32a.521.504 69.007 0 1-.58-.27L162 81.74a.72.717-34.578 0 1 .16-.86q49.15-43.53 114.82-51.19a.385.382-4.095 0 1 .43.37l.92 32.42a5.6 4.98 41.645 0 0 .12 1.02l1.68 7.61a.92.92 7.025 0 1-.3.9q-10.42 8.94-18.58 15.93c-5.04 4.32-9.05 7.18-5.92 13.43q2.01 4.01 6.6 9.92a1.572 1.562-63.793 0 1 .32.95v23.16a2.945 2.61-41.544 0 1-.08.66q-.75 3.07-3.74 6.58a2.731 2.572-44.697 0 0-.12 3.39q.5.62 1.95.68 2.4.09 15.95.05a4.948 4.906-35.783 0 1 1.52.24q6.99 2.27 11.41 7.02 9.27 9.93 15.26 23.5a.239.237-19.363 0 1-.16.33"></path><path fill="#fff" fill-rule="evenodd" d="M373.8 46.67a.339.337-58.074 0 1 .11.48l-17.25 26.3a.505.496 33.045 0 1-.69.14q-15.07-9.76-32.67-14.64a.457.456 17.318 0 1-.31-.59l8.68-25.53a.734.733 13.68 0 1 .79-.48q22.48 3.3 41.34 14.32M133.893 42.876l79.457 157.967a.34.34 17.968 0 1-.219.482l-19.026 4.897a.34.34-73.098 0 1-.388-.177L115.513 50.596a.34.34 77.583 0 1-.035-.182l1.524-17.435a.34.34-30.536 0 1 .517-.26l16.249 10.02a.34.34 42.932 0 1 .125.137M374.86 44.7l-11.23-6.25a.61.61-70.489 0 1-.3-.63l.58-3.51a.646.637-85.203 0 1 .63-.54q1.44.02 6.19.75c3.83.58 4.47 3.03 6.51 6.73a.724.706 45.754 0 1 0 .69l-1.38 2.48a.734.734-47.956 0 1-1 .28M397.491 42.212l2.829-5.079a.44.44 64.394 0 1 .625-.154l18.353 12.037a.44.44-45.265 0 1 .143.582l-2.224 3.992a.44.44 61.595 0 1-.604.166l-18.958-10.949a.44.44 76.039 0 1-.164-.595M378.406 89.114l-15.287-10.031a.37.37-30.635 0 1-.106-.512l18.844-28.722a.37.37-33.894 0 1 .512-.106l9.776 6.419a.37.37-22.188 0 1 .138.451l-13.332 32.333a.37.37 57.728 0 1-.545.168M399.24 58.95q8.11 2.88 11.28 10.99a.918.917 49.263 0 1-.06.81l-13.09 22.67a1.117 1.107-77.499 0 1-.87.56q-4.71.39-9.55-2.08a.625.621-66.471 0 1-.3-.77l11.75-31.79a.661.652 19.682 0 1 .84-.39M285.48 62.36a2.364 2.355-15.069 0 1 1.33-2.3c5.54-2.68 10.36.88 16.24 3.58a20.5 20.263 60.927 0 0 5.76 1.68q10.21 1.41 12.71 2.38 11.99 4.7 22.93 10.58 6.07 3.26 10.56 7.44c2.57 2.39 2.5 4.78 2.09 8.67q-.39 3.6-3.59 5.11c-1.75.84-5.31 1.66-6.78 3.1q-2.57 2.53-2.64 6.5c-.09 5.66-1.01 10.47-6.73 12.55-4.65 1.69-8.42 2.77-10.32 7.85-1.3 3.47-2.21 5.49-5.63 6.66q-2.58.88-6.65 1.04-2.82.11-33.23.01-8.09-.03-8.22-7.96-.15-9.3-.02-17.25a1.771 1.732 30.329 0 0-.26-.95c-3.07-5.16-5.27-8.08-6.25-12.28a3.083 3.076-27.37 0 1 .96-3.01l19.66-17.31a1.694 1.604-6.572 0 0 .26-.31q1.59-2.61.56-5.13-2.38-5.78-2.74-10.65"></path><path fill="#ee2f2f" fill-rule="evenodd" d="M419.32 66.38a.432.428 32.018 0 1 .62-.14c45.05 31.66 75.35 81.12 81.2 136.02 6.1 57.27-13.4 112.69-53.32 153.57a.327.327 67.281 0 1-.56-.23V249.34a1.936 1.876-60.365 0 0-.24-.93c-9.82-17.66-20.66-35.16-33.82-51.11q-7.01-8.51-17.98-17.17-6.66-5.26-8.62-7.96-5.22-7.23-5.81-15.66-.53-7.64 4.58-14.7c9.35-12.91 21.15-23.58 20.4-41.31q-.04-.96.01-10a1.858 1.803-30.651 0 1 .25-.92zM185.57 208.42l-52.62 13.56a.565.555-14.406 0 0-.41.68l38.41 149.09a.283.281-77.608 0 1-.45.29c-49.34-39.9-76.33-99.89-71.69-163.26 2.64-36.03 15.78-70.46 37.34-99.33a.267.265-39.684 0 1 .45.04l49.35 98.1a.586.583-20.54 0 1-.38.83"></path><path fill="#fff" fill-rule="evenodd" d="M348.897 237.59a.35.35 0 0 1-.251.427l-55.223 14.281a.35.35 0 0 1-.427-.251l-15.273-59.057a.35.35 0 0 1 .251-.427l55.223-14.281a.35.35 0 0 1 .427.251z"></path><path fill="#ee2f2f" fill-rule="evenodd" d="m285.46 321.068-16.787-.533a.5.5-55.232 0 0-.268.065l-15.574 8.645a.52.52 57.127 0 0-.251.584l22.011 85.429a.52.52 30.899 0 1-.588.642l-16.608-2.735a.52.52 35.087 0 1-.42-.383l-16.025-62.218a.52.52 4.576 0 0-.634-.374l-62.322 16.05a.52.52 85.642 0 1-.634-.374l-18.18-70.572a.52.52 19.096 0 1 .374-.634l62.332-16.05a.52.52 71.828 0 0 .374-.634l-17.05-66.152a.52.52-66.526 0 1 .374-.634l64.142-16.53a.52.52-63.929 0 1 .634.374l17.04 66.162a.52.52-12.605 0 0 .634.374l62.322-16.06a.52.52-71.315 0 1 .634.374l18.18 70.572a.52.52 19.178 0 1-.374.634l-62.332 16.06a.52.52-35.586 0 0-.374.634l20.959 81.36a.52.52 31.994 0 1-.451.647l-15.494 1.564a.52.52-66.302 0 1-.555-.388l-24.602-95.509a.52.52 10.563 0 0-.487-.39m-41.576-93.989q-8.895 2.291-10.354 2.689a.468.467-15.032 0 0-.33.572l16.11 62.55a.837.822 83.324 0 0 .77.62q5.31.12 10.65-.302.151-.012.176-.019t.163-.068q4.88-2.21 9.472-4.879a.837.822 67.799 0 0 .375-.915l-16.101-62.552a.468.467-13.846 0 0-.565-.342q-1.471.356-10.366 2.646m18.717 72.546q-.107.027-.12.029-22.671 2.576-48.751 5.526a.306.299-10.487 0 0-.263.374q1.53 6.243 3.261 12.953 1.731 6.711 3.411 12.915a.306.299-18.439 0 0 .411.2q24.253-10.033 45.342-18.743.012-.005.119-.033.107-.027.12-.029 22.671-2.576 48.751-5.526a.306.299-10.487 0 0 .263-.373q-1.53-6.244-3.261-12.954t-3.411-12.915a.306.299-18.439 0 0-.411-.2q-24.254 10.033-45.342 18.743-.012.005-.119.033"></path><path fill="#fff" fill-rule="evenodd" d="M403.62 322.47a.349.34 54.879 0 1-.59-.11l-35.43-99.75a1.419 1.402-89.659 0 0-.83-.85l-4.41-1.63a1.114 1.078 89.045 0 1-.65-.65l-1.85-5.21a.913.908 63.269 0 1 .34-1.04l11.87-8.3a1.111 1.062-61.022 0 1 .61-.19l9.68.02a.646.632 83.774 0 1 .62.51q.03.15 1.93 5.33 1.18 3.23.95 3.82a6.714 2.227-66.773 0 1-.38.87q-1.73 3.64-4.63 5.87a1.108 1.107 61.507 0 0-.37 1.25l31.63 89.04a.961.957 55.088 0 1-.16.91zM212.992 272.609a.32.32 0 0 1-.23.39l-55.281 14.297a.32.32 0 0 1-.39-.23l-15.283-59.095a.32.32 0 0 1 .23-.39l55.281-14.297a.32.32 0 0 1 .39.23z"></path><path fill="#fff" fill-rule="evenodd" d="m426.4 358.61-10.73-1.77a.74.738 84.399 0 1-.57-.47l-8.67-24.41a.962.95-35.002 0 1 .17-.93l11.26-13.67a1.049 1.038-35.737 0 0 .17-1.01l-31.95-89.98a.3.299-16.779 0 1 .21-.39l10.86-2.8a.634.628 74.823 0 1 .76.44l13.22 48.5a1.276 1.274 7.215 0 0 .59.76l9.41 5.23a2.286 2.27 7.633 0 1 1.1 1.43l7.4 28.7a.95.95 3.524 0 1-.1.7l-10.23 17.73a1.661 1.649 55.83 0 0-.21 1.12l1.68 10.31a2.509 2.42 26.603 0 0 .3.85l1.8 3.13a1.41.94-78.69 0 1 .07.17l4.04 15.72a.517.513 87.374 0 1-.58.64"></path><path fill="#000003" fill-rule="evenodd" d="M260.906 293.189q-.025.007-.176.019-5.34.422-10.65.302a.837.822 83.324 0 1-.77-.62l-16.11-62.55a.468.467-15.032 0 1 .33-.572q1.459-.398 10.354-2.689t10.366-2.646a.468.467-13.846 0 1 .565.342l16.101 62.552a.837.822 67.799 0 1-.375.915q-4.592 2.669-9.472 4.879-.138.062-.163.068"></path><path fill="#fff" fill-rule="evenodd" d="m401.503 390.897-6.471-15.765a.32.32 70.14 0 1-.013-.208l3.366-12.103a.3.3-42.481 0 0-.003-.181L360.93 243.744a.32.32 9.966 0 1 .122-.359l7.294-5.104a.32.32-76.641 0 1 .485.155l42.475 119.623a.32.32-83.228 0 1-.065.323l-5.959 6.532a.3.3 3.997 0 0-.064.105l-4.417 11.963a.32.32-41.685 0 0 .02.266L406.795 388a.32.32-82.766 0 1-.125.435l-4.715 2.62a.32.32 53.575 0 1-.452-.158" data-source="https://football-logos.cc"></path><path fill="#000003" fill-rule="evenodd" d="M311.884 293.964q1.731 6.71 3.261 12.954a.306.299-10.487 0 1-.263.373q-26.08 2.95-48.751 5.526-.013.002-.12.029t-.119.033q-21.089 8.71-45.342 18.743a.306.299-18.439 0 1-.411-.2q-1.68-6.204-3.411-12.915t-3.261-12.953a.306.299-10.487 0 1 .263-.374q26.08-2.95 48.751-5.526.013-.002.12-.029t.119-.033q21.088-8.71 45.342-18.743a.306.299-18.439 0 1 .411.2q1.68 6.204 3.411 12.915"></path><path fill="#fff" fill-rule="evenodd" d="m104.97 334.864-57.553 31.974a.4.4-17.896 0 0-.101.08l-8.471 9.291a.4.4-68.854 0 1-.645-.075l-24.05-43.29a.4.4-2.578 0 1 .35-.594h44.365a.4.4 64.028 0 0 .349-.205l21.996-39.516a.4.4.429 0 1 .699 0l23.217 41.791a.4.4 4.223 0 1-.156.544M518.696 292.771l22.23 39.114a.715.699-14.201 0 0 .62.361h43.969a.39.388 14.768 0 1 .34.58l-24.15 43.434a.285.281 38.404 0 1-.46.05l-8.208-8.992a3.711 3.434-4.181 0 0-.94-.75l-57.031-31.694a.452.443 29.127 0 1-.18-.61l23.07-41.493a.423.423 78.5 0 1 .74 0M315.4 339.16a.393.391-14.402 0 1 .28-.47l55.01-14.17a.548.546 75.445 0 1 .66.39l18.55 72.02a.47.463-20.598 0 1-.25.54q-26.05 12.32-54.31 17.07a.552.539-11.506 0 1-.62-.4zM286.26 416.63a.304.303 83.475 0 1-.3.38l-.34-.01a.678.668 83.466 0 1-.62-.5l-20.89-81.09a1.118 1.1-21.924 0 1 .54-1.24l5.48-3.05a2.324 2.297 31.308 0 1 1.18-.28l6.36.2a.889.886 83.406 0 1 .83.66l21.93 85.21a.561.556 75.96 0 1-.41.69l-.02.01a.567.561 74.4 0 1-.7-.4l-21.66-84.1a1.163 1.154-.804 0 0-.85-.82q-2.93-.67-6.16-.02a2.36 2.15 21.092 0 0-.72.28l-4.16 2.54a.677.67 67.065 0 0-.3.75z"></path><path fill="#fff" fill-rule="evenodd" d="M300.018 425.263c3.616.002 7.341-.319 10.949-.486C376.79 421.74 438.68 388.12 475.68 333.43a.543.539-58.23 0 1 .71-.17l68 37.85a.514.505-59.266 0 1 .178.727c-53.83 81.57-146.61 129.2-244.579 129.162-97.97-.038-190.713-47.741-244.479-129.353a.514.505 59.31 0 1 .178-.726l68.03-37.797a.543.539 58.275 0 1 .71.17c36.957 54.719 98.821 88.387 164.641 91.475 3.608.17 7.333.494 10.949.495m-168.92-43.198c-3.471-8.15-12.165-13.773-21.037-11.794q-7.211 1.612-10.647 7.227c-6.12 9.985-1.921 21.094 7.981 26.438q6.433 3.47 15.086 1.796a.241.231-13.341 0 0 .181-.281l-.937-4.467a.312.311 79.166 0 0-.358-.243c-8.044 1.438-18.279-2.784-15.637-12.841 1.941-7.377 11.011-14.205 17.859-7.41 3.42 3.408 3.04 8.165 1.887 12.643a.817.811-69.73 0 0 .42.921l3.522 1.818a.585.585 13.284 0 0 .788-.255l5.267-10.246a.977.972 31.788 0 0-.291-1.226l-2.216-1.635a.844.83 53.061 0 0-.746-.112q-.222.084-.262.089a.741.738 70.994 0 1-.86-.422m340.882-2.755c-8.47 2.59-14.98 10.64-13.95 19.67q.84 7.34 6.06 11.35c9.28 7.14 20.77 4.14 27.13-5.14q4.13-6.03 3.38-14.81a.241.231 82.728 0 0-.26-.21l-4.54.46a.312.311-4.765 0 0-.28.33c.58 8.15-4.7 17.88-14.42 14.19-7.13-2.71-12.96-12.45-5.48-18.54 3.75-3.04 8.44-2.16 12.77-.54a.817.811 26.339 0 0 .96-.32l2.18-3.31a.585.585 28.284 0 0-.17-.81l-9.63-6.32a.977.972-52.143 0 0-1.25.16l-1.86 2.03a.844.83-30.87 0 0-.19.73q.06.23.06.27a.741.738-12.937 0 1-.51.81m33.712 6.001a4.95 4.59-48 0 0-6.723.608 4.95 4.59-48 0 0 .099 6.75 4.95 4.59-48 0 0 6.723-.608 4.95 4.59-48 0 0-.099-6.75M150.72 419.14q3.64 1.33 6.3 1.13c6.69-.53 9.66-7.39 6.28-13.1q-1.52-2.59-3.74-4.25-6.62-4.96-19.58-14.13a.747.744 35.537 0 0-1.03.17l-2.15 2.93a.68.68 34.304 0 0 .15.95l1.91 1.39a1.432 1.418 36.427 0 1 .31 1.99l-12.19 16.64a1.446 1.446-77.574 0 1-2.02.32l-1.76-1.29a.538.53-53.663 0 0-.75.12l-2.25 3.07a.516.508 36.757 0 0 .11.72l13.39 9.8a.77.77-81.095 0 0 1.08-.16l2.17-2.97a.586.586-20.896 0 0-.12-.82l-2.21-1.61a1.05 1.05 71.289 0 1-.23-1.47l4.07-5.55a1.652 1.647-28.643 0 1 2.98.87l1.02 17.41a.887.878-74.259 0 0 .36.65l8.69 6.37a.558.552-53.547 0 0 .77-.12l2.31-3.17a.544.54 33.808 0 0-.16-.79q-2.55-1.52-2.8-2.88-.64-3.48-1.55-11.72a.479.476-82.784 0 1 .64-.5m273.26.17q.76-.7 1.8-1.04a1.593 1.589-25.281 0 1 1.82.65l11.08 17.27a1.417 1.412 57.482 0 1-.43 1.96l-1.76 1.13a.81.81-78.058 0 0-.24 1.12l1.79 2.79a.854.854 41.23 0 0 1.18.26l13.92-8.93a.463.458-32.815 0 0 .14-.63l-2.16-3.37a.508.499 56.625 0 0-.7-.15l-2.15 1.38a1.376 1.373-32.697 0 1-1.89-.41l-3.59-5.61a1.196 1.187-32.893 0 1 .36-1.65l1.74-1.11a2.047 2.042 57.129 0 1 2.82.61l1.3 2.04a.666.666-26.168 0 0 .92.2l3.04-1.96a.71.705-32.441 0 0 .22-.97l-7.58-11.81a.455.446-32.616 0 0-.62-.13l-3.45 2.21a.46.455 56.818 0 0-.13.64c2.35 3.48 1.87 4.04-1.31 6.2a.813.81-33.501 0 1-1.14-.23l-3.74-5.84a.765.76 57.442 0 1 .23-1.06c5.22-3.27 9.59-7.02 15.71-2.67a.584.581-52.074 0 0 .79-.1l2.63-3.19a.608.605 37.951 0 0-.11-.87l-8.42-6.16a.857.856 46.776 0 0-.96-.03l-23.96 15.38a.86.854 57.503 0 0-.26 1.19l1.75 2.72a.89.887 52.018 0 0 1.36.17m-240.16 3.1 1.75-3.14a.528.52-61.216 0 0-.2-.71l-14.33-7.97a.88.88-72.65 0 0-1.2.34l-1.69 3.05a.784.779-60.839 0 0 .3 1.07l1.84 1.02a1.44 1.429 27.428 0 1 .6 1.87q-1.4 2.95-7.11 13.85c-6.7 12.79 12.01 24.18 21.99 17.25q2.47-1.71 5.75-8.46 2.09-4.29 4.97-9.48a.982.977 3.509 0 1 .5-.44q1.12-.43 3.03.9a.845.838-57.683 0 0 1.22-.28l1.54-2.76a.81.81-59.53 0 0-.32-1.1l-11.99-6.68a.62.62 53.345 0 0-.84.24l-1.96 3.52a.47.465 29.361 0 0 .18.63l2.08 1.15a1.589 1.584 28.626 0 1 .63 2.13q-5.11 9.63-6.48 12.41-2.76 5.61-7.75 4.21c-4.89-1.38-6.32-5.1-4-9.75q3.62-7.26 6.79-12.99a1.549 1.544 29.037 0 1 2.11-.6l1.74.96a.623.618 29.012 0 0 .85-.24m283.985-3.157a4.95 4.59-35.4 0 0-6.694-.874 4.95 4.59-35.4 0 0-1.376 6.608 4.95 4.59-35.4 0 0 6.694.874 4.95 4.59-35.4 0 0 1.376-6.608m-67.295 7.474q-6.918-.419-12.515 4.04c-4.956 3.945-6.671 10.716-1.261 15.113 5.328 4.321 15.299.038 22.341.682a2.593 2.59-3.836 0 1 2.283 1.994c.613 2.699-3.292 4.691-5.712 5.24q-7.36 1.684-13.376-3.514a.809.803-40.773 0 0-.966-.068L388 452.349a.589.587 57.229 0 0-.173.806l6.661 10.298a.8.791-27.963 0 0 .984.295l2.921-1.261a.729.725 73.893 0 0 .427-.779l-.185-1.142a.609.604 89.455 0 1 .678-.696c8.252 1.099 19.656-3.972 19.568-13.577-.036-4.102-3.304-7.686-7.521-8.329-4.984-.758-8.938.333-16.673 1.276-2.036.241-5.181-1.645-2.796-4.27 3.873-4.245 11.389-2.544 15.686.552a.975.971 44.145 0 0 1.161-.014l3.132-2.384a.523.513-37.33 0 0 .106-.731l-6.477-8.534a.799.798-30.555 0 0-.951-.244l-2.705 1.172a.877.87-13.314 0 0-.522.839l.013.326a.78.773-87.98 0 1-.824.775m-176.79 9.393q-4.84-4.96-11.98-5.42c-6.32-.41-12.14 3.45-11.09 10.34 1.04 6.78 11.3 10.31 16.08 15.52a2.592 2.59 38.398 0 1 .35 3.01c-1.36 2.41-5.59 1.26-7.75.04q-6.58-3.7-7.54-11.59a.809.803 1.461 0 0-.67-.7l-3.88-.64a.589.587-80.537 0 0-.67.48l-1.99 12.1a.8.79 14.271 0 0 .53.88l3.01 1.03a.729.725-63.873 0 0 .84-.29l.63-.97a.609.604-48.311 0 1 .97-.06c5.37 6.36 17.22 10.27 23.61 3.1 2.73-3.06 2.72-7.91.03-11.22-3.18-3.91-6.84-5.76-13.2-10.26-1.67-1.19-2.73-4.7.8-5.04 5.72-.54 10.14 5.77 11.24 10.95a.975.971 86.379 0 0 .87.77l3.92.34a.523.513 4.904 0 0 .57-.47l.94-10.67a.799.798 11.679 0 0-.54-.82l-2.79-.95a.876.87 28.92 0 0-.95.27l-.21.25a.78.773-45.746 0 1-1.13.02m149.581 18.935q3.351-1.939 4.902-4.106c3.88-5.468.524-12.14-6.019-13.207q-2.959-.494-5.654.144-8.043 1.898-23.376 5.958a.746.743-14.577 0 0-.529.898l.868 3.526a.68.68 76.121 0 0 .825.493l2.289-.573a1.431 1.417-13.686 0 1 1.724 1.037l4.946 20.005a1.445 1.445 45 0 1-1.048 1.753l-2.117.523a.538.53 76.223 0 0-.388.652l.912 3.692a.516.508-13.357 0 0 .622.377l16.091-3.987a.77.77 43.827 0 0 .569-.93l-.886-3.566a.585.585 50.104 0 0-.706-.434l-2.65.663a1.05 1.05 12.838 0 1-1.274-.765l-1.647-6.676a1.651 1.646-78.757 0 1 2.576-1.727l14 10.372a.886.877 55.627 0 0 .729.14l10.45-2.58a.558.552 76.34 0 0 .401-.667l-.95-3.802a.544.539-16.305 0 0-.708-.384q-2.799.981-4.002.302-3.077-1.739-9.977-6.321a.479.475 47.103 0 1 .027-.81M246.77 470.88l-.75 3.63a.663.663-84.136 0 0 .52.78l15.58 3.22a.694.694 12.803 0 0 .82-.54l.71-3.45a.679.669-81.521 0 0-.59-.81q-2.23-.23-2.86-4.16-.42-2.6-5.08-26.13a.92.92-20.546 0 0-.72-.72l-6.97-1.4a.817.806-66.29 0 0-.83.33q-.59.82-15.7 22.78-1.86 2.69-3.66 1.76a.586.585-70.382 0 0-.84.4l-.78 3.78a.59.59 14.855 0 0 .46.7l12.61 2.6a.706.704 11.703 0 0 .84-.55l.69-3.36a.86.86 22.769 0 0-.66-1.02l-1.89-.38a.82.816-69.389 0 1-.54-1.2l2-3.6a.843.835 20.458 0 1 .91-.41l8.93 1.84a1.697 1.681-87.215 0 1 1.33 1.48l.29 2.88a1.35 1.35-87.021 0 1-1.62 1.46l-1.57-.32a.53.53-2.237 0 0-.63.41m76.7-6.48q.57.12 1.88-.08c2.59-.39 3.26 1.69 3.15 4.13a.222.215 87.829 0 0 .24.23l4.41-.45a.282.272 84.97 0 0 .25-.31l-1.34-13.27a.694.694-66.016 0 0-.76-.62l-3.44.35a.655.653 84.034 0 0-.59.73q.26 2.33.03 2.82a2.26 2.26 35.821 0 1-1.6 1.24l-2.67.52a.867.862 81.625 0 1-1.03-.77l-.61-6.02a1.237 1.234 84.784 0 1 1.13-1.36c6.55-.55 11.05-1.63 15.03 4.93a.674.672 61.387 0 0 .88.26l3.67-1.85a.483.474 63.708 0 0 .21-.64l-4.74-9.43a.525.521-16.017 0 0-.51-.28l-29.1 2.94a.624.623-6.083 0 0-.55.68l.36 3.62a.555.552 87.13 0 0 .55.5h2.61a1.357 1.352-2.799 0 1 1.35 1.22l2.05 20.27a1.571 1.554 80.104 0 1-1.16 1.67l-2.47.63a.586.58-10.535 0 0-.43.62l.34 3.37a.773.763 84.03 0 0 .84.69l29.77-3.01a.787.772-84.35 0 0 .67-.56l3.32-11.97a.354.354-80.132 0 0-.24-.44l-4.18-1.16a.532.528 17.181 0 0-.65.34c-2.61 8.02-7.9 9.66-15.74 9.78a.985.979-3.19 0 1-.99-.88l-.77-7.68a.701.699 2.459 0 1 .83-.76m-51.222-1.765q-.385 8.909-.434 9.882a1.955 1.95 2.295 0 1-2.014 1.853l-2.03-.06a.37.37 0 0 0-.38.36l-.13 4.04a.42.42 3.49 0 0 .39.44q11.14.66 20.497.698c9.854.036 16.859-5.989 17.282-15.782s-6.038-16.399-15.859-17.211q-9.325-.768-20.481-1.07a.42.42 1.45 0 0-.426.405l-.219 4.036a.37.37-82.706 0 0 .348.392l2.028.115a1.955 1.95 2.645 0 1 1.846 2.019q-.034.974-.418 9.883"></path><path fill="#fff" fill-rule="evenodd" d="M248.47 410.51a.31.31 33.413 0 1-.38.38q-37.1-9.58-68.27-31.71a.27.27 78.464 0 1 0-.44l.33-.21a.651.632-24.734 0 0 .27-.7l-.88-3.42a.63.63 15.677 0 1 .45-.77l54.94-14.15a.39.381 75.071 0 1 .47.28zM416.504 381.992l-5.401 3.777a.3.3-75.42 0 1-.434-.1l-5.282-9.519a.3.3 54.58 0 1-.019-.249l2.303-6.233a.3.3-20.266 0 1 .528-.068l8.379 11.974a.3.3-85.164 0 1-.074.418"></path><path fill="#000003" fill-rule="evenodd" d="M131.098 382.065a.741.738 70.994 0 0 .86.422q.04-.005.262-.089a.844.83 53.061 0 1 .746.112l2.216 1.635a.977.972 31.788 0 1 .291 1.226l-5.267 10.246a.585.585 10.423 0 1-.788.255l-3.522-1.818a.817.811-69.73 0 1-.42-.921c1.153-4.478 1.533-9.235-1.887-12.643-6.848-6.795-15.918.033-17.859 7.41-2.642 10.057 7.593 14.279 15.637 12.841a.312.311 79.166 0 1 .358.243l.937 4.467a.241.231-13.341 0 1-.181.281q-8.653 1.674-15.086-1.796c-9.902-5.344-14.101-16.453-7.981-26.438q3.436-5.615 10.647-7.227c8.872-1.979 17.566 3.644 21.037 11.794M472.49 378.5q0-.04-.06-.27a.844.83-30.87 0 1 .19-.73l1.86-2.03a.977.972-52.143 0 1 1.25-.16l9.63 6.32a.585.585 73.293 0 1 .17.81l-2.18 3.31a.817.811 26.339 0 1-.96.32c-4.33-1.62-9.02-2.5-12.77.54-7.48 6.09-1.65 15.83 5.48 18.54 9.72 3.69 15-6.04 14.42-14.19a.312.311-4.765 0 1 .28-.33l4.54-.46a.241.231 82.728 0 1 .26.21q.75 8.78-3.38 14.81c-6.36 9.28-17.85 12.28-27.13 5.14q-5.22-4.01-6.06-11.35c-1.03-9.03 5.48-17.08 13.95-19.67a.741.738-12.937 0 0 .51-.81M505.692 385.311a4.95 4.59-48 0 1 .099 6.75 4.95 4.59-48 0 1-6.723.608 4.95 4.59-48 0 1-.099-6.75 4.95 4.59-48 0 1 6.723-.608M150.08 419.64q.91 8.24 1.55 11.72.25 1.36 2.8 2.88a.544.54 33.808 0 1 .16.79l-2.31 3.17a.558.552-53.547 0 1-.77.12l-8.69-6.37a.887.878-74.259 0 1-.36-.65l-1.02-17.41a1.652 1.647-28.643 0 0-2.98-.87l-4.07 5.55a1.05 1.05 6.102 0 0 .23 1.47l2.21 1.61a.586.586-75.489 0 1 .12.82l-2.17 2.97a.77.77-44.793 0 1-1.08.16l-13.39-9.8a.516.508 36.757 0 1-.11-.72l2.25-3.07a.538.53-53.663 0 1 .75-.12l1.76 1.29a1.446 1.446 84.811 0 0 2.02-.32l12.19-16.64a1.432 1.418 36.427 0 0-.31-1.99l-1.91-1.39a.68.68 73.894 0 1-.15-.95l2.15-2.93a.747.744 35.537 0 1 1.03-.17q12.96 9.17 19.58 14.13 2.22 1.66 3.74 4.25c3.38 5.71.41 12.57-6.28 13.1q-2.66.2-6.3-1.13a.479.476-82.784 0 0-.64.5m-3.278-18.403-4.323 6.128a.36.36 36.463 0 0 .086.502l5.712 4.029a5.45 3.9 35.2 0 0 6.702-.045l.242-.343a5.45 3.9 35.2 0 0-2.206-6.329l-5.711-4.029a.36.36 17.556 0 0-.502.087M423.98 419.31a.89.887 52.018 0 1-1.36-.17l-1.75-2.72a.86.854 57.503 0 1 .26-1.19l23.96-15.38a.857.856 46.776 0 1 .96.03l8.42 6.16a.608.605 37.951 0 1 .11.87l-2.63 3.19a.584.581-52.074 0 1-.79.1c-6.12-4.35-10.49-.6-15.71 2.67a.765.76 57.442 0 0-.23 1.06l3.74 5.84a.813.81-33.501 0 0 1.14.23c3.18-2.16 3.66-2.72 1.31-6.2a.46.455 56.818 0 1 .13-.64l3.45-2.21a.455.446-32.616 0 1 .62.13l7.58 11.81a.71.705-32.441 0 1-.22.97l-3.04 1.96a.666.666 3.693 0 1-.92-.2l-1.3-2.04a2.047 2.042 57.129 0 0-2.82-.61l-1.74 1.11a1.196 1.187-32.893 0 0-.36 1.65l3.59 5.61a1.376 1.373-32.697 0 0 1.89.41l2.15-1.38a.508.499 56.625 0 1 .7.15l2.16 3.37a.463.458-32.815 0 1-.14.63l-13.92 8.93a.854.854-85.876 0 1-1.18-.26l-1.79-2.79a.81.81-77.899 0 1 .24-1.12l1.76-1.13a1.417 1.412 57.482 0 0 .43-1.96l-11.08-17.27a1.593 1.589-25.281 0 0-1.82-.65q-1.04.34-1.8 1.04"></path><path fill="#fff" fill-rule="evenodd" d="M146.802 401.237a.36.36 17.769 0 1 .502-.087l5.711 4.029a5.45 3.9 35.2 0 1 2.206 6.329l-.242.343a5.45 3.9 35.2 0 1-6.702.045l-5.712-4.029a.36.36 68.392 0 1-.086-.502z"></path><path fill="#000003" fill-rule="evenodd" d="m182.97 422.65-1.74-.96a1.549 1.544 29.037 0 0-2.11.6q-3.17 5.73-6.79 12.99c-2.32 4.65-.89 8.37 4 9.75q4.99 1.4 7.75-4.21 1.37-2.78 6.48-12.41a1.589 1.584 28.626 0 0-.63-2.13l-2.08-1.15a.47.465 29.361 0 1-.18-.63l1.96-3.52a.62.62 71.06 0 1 .84-.24l11.99 6.68a.81.81-25.242 0 1 .32 1.1l-1.54 2.76a.845.838-57.683 0 1-1.22.28q-1.91-1.33-3.03-.9a.982.977 3.509 0 0-.5.44q-2.88 5.19-4.97 9.48-3.28 6.75-5.75 8.46c-9.98 6.93-28.69-4.46-21.99-17.25q5.71-10.9 7.11-13.85a1.44 1.429 27.428 0 0-.6-1.87l-1.84-1.02a.784.779-60.839 0 1-.3-1.07l1.69-3.05a.88.88-33.587 0 1 1.2-.34l14.33 7.97a.528.52-61.216 0 1 .2.71l-1.75 3.14a.623.618 29.012 0 1-.85.24M467.805 419.253a4.95 4.59-35.4 0 1-1.376 6.608 4.95 4.59-35.4 0 1-6.694-.874 4.95 4.59-35.4 0 1 1.376-6.608 4.95 4.59-35.4 0 1 6.694.874M400.51 426.727a.78.773-87.98 0 0 .824-.775l-.013-.326a.877.87-13.314 0 1 .522-.839l2.705-1.172a.799.798-30.555 0 1 .951.244l6.477 8.534a.523.513-37.33 0 1-.106.731l-3.132 2.384a.975.971 44.145 0 1-1.161.014c-4.297-3.096-11.813-4.797-15.686-.552-2.385 2.625.76 4.511 2.796 4.27 7.735-.943 11.689-2.034 16.673-1.276 4.217.643 7.485 4.227 7.521 8.329.088 9.605-11.316 14.676-19.568 13.577a.609.604 89.455 0 0-.678.696l.185 1.142a.729.725 73.893 0 1-.427.779l-2.921 1.261a.8.791-27.963 0 1-.984-.295l-6.661-10.298a.589.587 57.229 0 1 .173-.806l3.304-2.135a.809.803-40.773 0 1 .966.068q6.016 5.198 13.376 3.514c2.42-.549 6.325-2.541 5.712-5.24a2.593 2.59-3.836 0 0-2.283-1.994c-7.042-.644-17.013 3.639-22.341-.682-5.41-4.397-3.695-11.168 1.261-15.113q5.597-4.459 12.515-4.04M224.85 436.1l.21-.25a.876.87 28.92 0 1 .95-.27l2.79.95a.799.798 11.679 0 1 .54.82l-.94 10.67a.523.513 4.904 0 1-.57.47l-3.92-.34a.975.971 86.379 0 1-.87-.77c-1.1-5.18-5.52-11.49-11.24-10.95-3.53.34-2.47 3.85-.8 5.04 6.36 4.5 10.02 6.35 13.2 10.26 2.69 3.31 2.7 8.16-.03 11.22-6.39 7.17-18.24 3.26-23.61-3.1a.609.604-48.311 0 0-.97.06l-.63.97a.729.725-63.873 0 1-.84.29l-3.01-1.03a.8.79 14.271 0 1-.53-.88l1.99-12.1a.589.587-80.537 0 1 .67-.48l3.88.64a.809.803 1.461 0 1 .67.7q.96 7.89 7.54 11.59c2.16 1.22 6.39 2.37 7.75-.04a2.592 2.59 38.398 0 0-.35-3.01c-4.78-5.21-15.04-8.74-16.08-15.52-1.05-6.89 4.77-10.75 11.09-10.34q7.14.46 11.98 5.42a.78.773-45.746 0 0 1.13-.02M373.301 455.055a.479.475 47.103 0 0-.027.81q6.9 4.582 9.977 6.321 1.203.679 4.002-.302a.544.539-16.305 0 1 .708.384l.95 3.802a.558.552 76.34 0 1-.401.667l-10.45 2.58a.886.877 55.627 0 1-.729-.14l-14-10.372a1.651 1.646-78.757 0 0-2.576 1.727l1.647 6.676a1.05 1.05-9.27 0 0 1.274.765l2.65-.663a.585.585 34.19 0 1 .706.434l.886 3.566a.77.77-83.525 0 1-.569.93l-16.091 3.987a.516.508-13.357 0 1-.622-.377l-.912-3.692a.538.53 76.223 0 1 .388-.652l2.117-.523a1.445 1.445 0 0 0 1.048-1.753l-4.946-20.005a1.431 1.417-13.686 0 0-1.724-1.037l-2.289.573a.68.68-79.41 0 1-.825-.493l-.868-3.526a.746.743-14.577 0 1 .529-.898q15.333-4.06 23.376-5.958 2.695-.638 5.654-.144c6.543 1.067 9.899 7.739 6.019 13.207q-1.551 2.167-4.902 4.106m-16.26-8.382 1.953 7.137a.43.43-13.806 0 0 .528.302l6.472-1.771a5.68 3.86-15.3 0 0 4.46-5.222l-.142-.521a5.68 3.86-15.3 0 0-6.498-2.224l-6.472 1.77a.43.43 61.458 0 0-.301.529M247.4 470.47l1.57.32a1.35 1.35-87.021 0 0 1.62-1.46l-.29-2.88a1.697 1.681-87.215 0 0-1.33-1.48l-8.93-1.84a.843.835 20.458 0 0-.91.41l-2 3.6a.82.816-69.389 0 0 .54 1.2l1.89.38a.86.86 52.125 0 1 .66 1.02l-.69 3.36a.706.704 11.703 0 1-.84.55l-12.61-2.6a.59.59 44.654 0 1-.46-.7l.78-3.78a.586.585-70.382 0 1 .84-.4q1.8.93 3.66-1.76 15.11-21.96 15.7-22.78a.817.806-66.29 0 1 .83-.33l6.97 1.4a.92.92 40.755 0 1 .72.72q4.66 23.53 5.08 26.13.63 3.93 2.86 4.16a.679.669-81.521 0 1 .59.81l-.71 3.45a.694.694 41.246 0 1-.82.54l-15.58-3.22a.663.663-50.263 0 1-.52-.78l.75-3.63a.53.53 15.864 0 1 .63-.41m-4.485-12.432a.37.37 46.635 0 0 .229.565l5.452 1.189a.37.37-52.526 0 0 .444-.419l-1.193-7.625a.37.37 32.885 0 0-.674-.147z"></path><path fill="#fff" fill-rule="evenodd" d="M357.041 446.673a.43.43 89.263 0 1 .301-.529l6.472-1.77a5.68 3.86-15.3 0 1 6.498 2.224l.142.521a5.68 3.86-15.3 0 1-4.46 5.222l-6.472 1.771a.43.43 20.628 0 1-.528-.302z"></path><path fill="#000003" fill-rule="evenodd" d="M323.47 464.4a.701.699 2.459 0 0-.83.76l.77 7.68a.985.979-3.19 0 0 .99.88c7.84-.12 13.13-1.76 15.74-9.78a.532.528 17.181 0 1 .65-.34l4.18 1.16a.354.354-38.539 0 1 .24.44l-3.32 11.97a.787.772-84.35 0 1-.67.56l-29.77 3.01a.773.763 84.03 0 1-.84-.69l-.34-3.37a.586.58-10.535 0 1 .43-.62l2.47-.63a1.571 1.554 80.104 0 0 1.16-1.67l-2.05-20.27a1.357 1.352-2.799 0 0-1.35-1.22h-2.61a.555.552 87.13 0 1-.55-.5l-.36-3.62a.624.623-6.083 0 1 .55-.68l29.1-2.94a.525.521-16.017 0 1 .51.28l4.74 9.43a.483.474 63.708 0 1-.21.64l-3.67 1.85a.674.672 61.387 0 1-.88-.26c-3.98-6.56-8.48-5.48-15.03-4.93a1.237 1.234 84.784 0 0-1.13 1.36l.61 6.02a.867.862 81.625 0 0 1.03.77l2.67-.52a2.26 2.26 32.406 0 0 1.6-1.24q.23-.49-.03-2.82a.655.653 84.034 0 1 .59-.73l3.44-.35a.694.694 33.002 0 1 .76.62l1.34 13.27a.282.272 84.97 0 1-.25.31l-4.41.45a.222.215 87.829 0 1-.24-.23c.11-2.44-.56-4.52-3.15-4.13q-1.31.2-1.88.08M305.429 464.066c-.423 9.793-7.428 15.818-17.282 15.782q-9.357-.038-20.497-.698a.42.42 3.49 0 1-.39-.44l.13-4.04a.37.37-56.894 0 1 .38-.36l2.03.06a1.955 1.95 2.295 0 0 2.014-1.853q.049-.973.434-9.882.384-8.909.418-9.883a1.955 1.95 2.645 0 0-1.846-2.019l-2.028-.115a.37.37-55.348 0 1-.348-.392l.219-4.036a.42.42 1.45 0 1 .426-.405q11.156.302 20.481 1.07c9.821.812 16.281 7.418 15.859 17.211m-23.587-11.541-1.066 21.053a.64.64 89.691 0 0 .607.671l3.735.19a9.92 9.8-87.1 0 0 10.289-9.412l.128-2.517a9.92 9.8-87.1 0 0-9.286-10.403l-3.735-.189a.64.64-13.963 0 0-.672.607"></path><path fill="#fff" fill-rule="evenodd" d="m242.915 458.038 4.258-6.437a.37.37-85.714 0 1 .674.147l1.193 7.625a.37.37-65.436 0 1-.444.419l-5.452-1.189a.37.37-33.575 0 1-.229-.565M281.842 452.525a.64.64 35.445 0 1 .672-.607l3.735.189a9.92 9.8-87.1 0 1 9.286 10.403l-.128 2.517a9.92 9.8-87.1 0 1-10.289 9.412l-3.735-.19a.64.64-41.087 0 1-.607-.671z" data-source="https://football-logos.cc"></path><!-- source: https://football-logos.cc --></svg>