<svg xmlns="http://www.w3.org/2000/svg" xml:space="preserve" viewBox="25.31 313.82 737.61 578.14"><!-- Source: https://football-logos.cc --><defs data-source="https://football-logos.cc"><clipPath id="a" clipPathUnits="userSpaceOnUse"><path d="M.5-.5h595.446v841.89H.5Z"></path></clipPath></defs><g clip-path="url(#a)" transform="matrix(1.33333 0 0 -1.33333 -.667 1121.853)" data-source="https://football-logos.cc"><path d="M150.022 477.743c-41.428-2.603-89.063-20.844-110.765-30.026-7.482-3.166-10.402.66-7.539 6.79 7.437 15.922 15.179 32.912 15.179 32.912l-21.89 7.095c-6.804 1.769-7.096 5.624-2.133 9.918 9.804 8.483 28.718 22.11 49.459 32.382 21.921 10.856 42.517 18.47 52.736 22.01l.44.173v20.999c-.062 3.697 1.246 5.324 5.849 6.43 37.546 9.03 106.727 19.598 164.727 19.598h-.001c57.999 0 127.18-10.568 164.727-19.597 4.602-1.107 5.91-2.734 5.848-6.431v-21l.544-.208c10.254-3.554 30.784-11.154 52.632-21.974 20.742-10.272 39.656-23.899 49.46-32.382 4.962-4.294 4.67-8.15-2.134-9.918l-21.89-7.095s7.744-16.99 15.18-32.911c2.863-6.13-.058-9.957-7.54-6.791-21.692 9.178-69.296 27.408-110.712 30.023l-.017-.43c.649-22.804 1.203-49.343 1.346-76.552.394-75.323-18.93-121.464-58.366-164.843-39.436-43.38-89.077-63.493-89.077-63.493s-49.642 20.113-89.078 63.493-58.76 89.52-58.366 164.843c.142 27.152.695 53.637 1.343 76.408zm304.31 33.837c-3.728.712-8.211 1.547-13.32 2.46l-.022-.74c.3-7.947.62-17.068.927-27.064l.014-.73 13.193 25.914zm-303.071 2.479a1159 1159 0 0 1-14.364-2.66l.332-.552 13.019-25.139.016.877c.302 9.82.616 18.789.912 26.621z" style="fill:#231f20;fill-opacity:1;fill-rule:nonzero;stroke:none"></path><path d="M157.751 514.78c-1.05-27.551-2.373-70.09-2.603-114.056a393 393 0 0 1-.006-2.168c0-35.209 4.537-64.652 13.852-89.95 8.953-24.314 22.563-46.022 42.828-68.314 33.034-36.336 73.962-56.15 84.263-60.775 10.302 4.626 51.229 24.439 84.263 60.775 20.265 22.292 33.875 44 42.827 68.314 9.316 25.298 13.851 54.741 13.851 89.95q0 1.081-.006 2.168c-.228 43.75-1.54 86.086-2.587 113.648l-.042.833c-34.515 5.977-90.717 14.214-138.307 14.214-47.596 0-103.81-8.24-138.323-14.217z" style="fill:#3068bb;fill-opacity:1;fill-rule:nonzero;stroke:none"></path><path d="M157.751 514.78c-1.05-27.551-2.373-70.09-2.603-114.056a393 393 0 0 1-.006-2.168c0-35.209 4.537-64.652 13.852-89.95 8.953-24.314 22.563-46.022 42.828-68.314 33.034-36.336 73.962-56.15 84.263-60.775 10.302 4.626 51.229 24.439 84.263 60.775 20.265 22.292 33.875 44 42.827 68.314 9.316 25.298 13.851 54.741 13.851 89.95q0 1.081-.006 2.168c-.228 43.75-1.54 86.086-2.587 113.648l-.042.833 2.541-.443.747-.132c1.05-27.586 2.365-70.026 2.595-113.888q.006-1.098.006-2.186c0-35.599-4.601-65.41-14.052-91.074-9.102-24.721-22.916-46.766-43.473-69.379-35.083-38.59-78.896-58.757-86.67-62.144-7.774 3.387-51.588 23.554-86.67 62.144-20.557 22.613-34.371 44.658-43.474 69.38-9.45 25.663-14.052 55.474-14.052 91.073q0 1.088.005 2.186c.23 43.862 1.546 86.302 2.595 113.888l.752.133q1.24.216 2.52.44z" style="fill:#fff;fill-opacity:1;fill-rule:nonzero;stroke:none"></path><path d="M415.605 330.665a190 190 0 0 0-5.596-18.614c-8.268-23.041-20.896-43.682-39.743-64.957-27.271-30.786-60.406-49.22-74.181-56.062-13.775 6.842-46.91 25.276-74.183 56.062-18.846 21.275-31.474 41.916-39.742 64.957-2.143 5.971-4.014 12.195-5.618 18.695l-.197.801h239.477z" style="fill:#fff;fill-opacity:1;fill-rule:nonzero;stroke:none"></path><path d="M274.935 295.137v33.157h-35.787l.005-.16v-74.128l-.23.118c-2.436 1.078-5.24 2.52-7.465 4.22-5.029 3.845-9.021 8.281-11.24 5.028s2.07-10.056 7.838-16.415c4.59-5.061 9.18-7.687 10.864-8.548l.233-.103v-4.16l.139-.115c12.272-11.316 24.797-20.352 35.464-27.145l.18-.117v13.993l.224-.005c6.305-.776 12.925-.766 20.924-.814 8 .048 14.619.038 20.923.814l.225.025v-13.995l.193.107c10.639 6.777 23.125 15.784 35.365 27.058l.224.231v4.098l.266.145c1.707.876 6.27 3.501 10.832 8.53 5.768 6.36 10.057 13.163 7.838 16.416-2.218 3.254-6.211-1.183-11.24-5.028-2.216-1.695-5.006-3.13-7.435-4.206l-.26-.107v74.164l-.008.099h-35.776l.001-.147v-33.01l.005-.096c9.852-6.76 16.327-18.101 16.327-30.926 0-9.055-3.227-17.37-8.593-23.854l-.024-.032c-9.427 5.71-19.291 7.763-28.862 7.714-9.573.049-19.437-2.004-28.866-7.715l-.02.028c-5.367 6.486-8.596 14.802-8.596 23.86 0 12.828 6.477 24.17 16.333 30.93z" style="fill:#fee613;fill-opacity:1;fill-rule:nonzero;stroke:none"></path><path d="M132.06 513.71c4.43-8.639 14.074-27.42 16.948-32.813-40.777-2.732-86.687-19.89-111.018-30.184-1.48-.626-3.007-1.083-3.665-.315-.592.69.038 2.086.341 2.733a4497 4497 0 0 1 15.191 32.94l1.513 3.319-25.45 8.248-.093.024c-1.077.28-2.132.686-2.297 1.786-.148.986.569 1.741 1.473 2.524 9.69 8.383 28.277 21.775 48.774 31.926 23.117 11.448 44.963 19.332 54.268 22.504l.718.207v23.387q-.005.256-.005.482c0 1.516.27 2.042 3.361 2.786 39.068 9.395 107.044 19.506 163.966 19.506s124.897-10.111 163.965-19.506c3.092-.744 3.362-1.27 3.362-2.748q0-.217-.005-.465v-22.829l.021-.583c8.873-3.003 31.25-10.997 54.964-22.741 20.497-10.151 39.085-23.543 48.775-31.926.903-.783 1.62-1.538 1.473-2.524-.165-1.1-1.22-1.506-2.297-1.786l-.093-.024-25.45-8.248 1.512-3.32c.077-.17 7.834-17.187 15.191-32.939.303-.647.933-2.042.341-2.733-.658-.768-2.184-.311-3.664.315-24.33 10.294-70.241 27.452-111.019 30.184 2.874 5.394 12.518 24.175 16.95 32.813l-.605.175c-24.412 4.764-101.536 18.787-163.422 18.787-61.803 0-138.807-13.985-163.324-18.768z" style="fill:#fff;fill-opacity:1;fill-rule:nonzero;stroke:none"></path><path d="m422.899 403.913-.026 42.757c-.01 23.089-.022 50.45-.036 63.278l-.496.053c-34.344 5.617-84.155 12.32-126.257 12.32-42.3 0-92.382-6.766-126.741-12.4l-.012-1.058c-.014-13.236-.026-39.735-.036-62.193l-.026-42.781.002-.469h253.625z" style="fill:#fff;fill-opacity:1;fill-rule:nonzero;stroke:none"></path><path d="M132.879 580.1c40.124 9.65 109.068 19.418 163.206 19.418s123.08-9.768 163.205-19.417c.359-.087.633-.165.862-.235v-62.793c-24.513 4.783-101.908 18.853-164.068 18.853s-139.554-14.07-164.067-18.853v62.793c.23.07.503.148.862.235" style="fill:#fee613;fill-opacity:1;fill-rule:nonzero;stroke:none"></path><path d="M448.368 483.75c38.75-3.635 80.862-19.091 104.84-29.107a4590 4590 0 0 0-13.857 30.078l-3.026 6.64s25.74 8.342 27.729 8.985c-9.78 8.293-27.541 20.947-47.106 30.636-22.095 10.943-43.029 18.607-52.78 21.966l-.762.281v-40.114s-10.943-21.68-15.038-29.365M143.801 483.75c-38.75-3.635-80.863-19.091-104.84-29.107a4642 4642 0 0 1 13.857 30.078l3.025 6.64s-25.74 8.342-27.728 8.985c9.78 8.293 27.54 20.947 47.106 30.636 22.047 10.92 42.938 18.574 52.716 21.944l.826.232v-40.043s10.987-21.762 15.038-29.365" style="fill:#fee613;fill-opacity:1;fill-rule:nonzero;stroke:none"></path><path d="M61.5 503.395c0-14.127 11.493-25.62 25.62-25.62s25.62 11.493 25.62 25.62c0 14.126-11.493 25.62-25.62 25.62S61.5 517.52 61.5 503.395M505.048 529.015c-14.127 0-25.619-11.494-25.619-25.62s11.492-25.62 25.62-25.62 25.62 11.493 25.62 25.62c0 14.126-11.493 25.62-25.62 25.62" style="fill:#231f20;fill-opacity:1;fill-rule:nonzero;stroke:none"></path><path d="m96.865 507.14-9.407 6.834.005.117v6.377l.076.024 6.316 2.17.137.039 9.284-6.746.088-.07c-.035-2.148-.11-6.539-.114-6.887l-6.257-1.83zM111.945 503.138h-3.622l-.085-.001-4.221 5.612-.082.11.118 7.136.047.04 3.033 2.204.064-.077a24.8 24.8 0 0 0 4.854-15.03zM77.266 507.162l-6.201 1.826-.075.023-.113 6.798-.002.082 9.374 6.81.135-.04c2.072-.711 6.068-2.083 6.39-2.195v-6.49l-.094-.066-9.325-6.775zM93.303 495.584l3.512 10.816.14.042 6.497 1.914.067-.088 4.09-5.439-.03-.083-3.554-10.936-.103-.035-6.489-1.99-4.15 5.712zM65.934 503.138h-3.606l-.14-.006-.001.262a24.8 24.8 0 0 0 4.86 14.775l.06.069 3.074-2.234.007-.102.116-7.034-.049-.076-4.249-5.648zM92.798 483.737h-11.33l-.143-.004-3.961 5.648 4.294 5.91.062.09h10.724l.078-.006 4.358-5.997-.064-.081-3.902-5.564zM94.55 479.695l-1.113 3.424-.033.115 4.007 5.713.104.145 6.722 2.061.108.03 3.084-2.24-.039-.05a25.03 25.03 0 0 0-12.814-9.292zM79.57 479.63a25.04 25.04 0 0 0-12.752 9.307l.097.083 2.982 2.165.096-.029 6.736-2.065.035-.052 4.061-5.79-.032-.116-1.146-3.53zM76.854 489.85l4.055 5.581.042.068-3.54 10.899-.123.04-6.511 1.905-4.143-5.507.026-.088 3.554-10.938.151-.049 6.447-1.977zM86.957 521.13l-6.482 2.226-.124.041-1.178 3.623.051.027c2.483.83 5.138 1.28 7.896 1.28 2.76 0 5.417-.45 7.901-1.283l.045-.023-1.178-3.623-.11-.036-6.657-2.287zM495.303 507.14l9.407 6.834-.004.117v6.377l-.076.024-6.317 2.17-.135.039-9.286-6.746-.087-.07.114-6.887 6.257-1.83zM480.223 503.138h3.622l.086-.001 4.22 5.612.083.11-.119 7.136-.047.04-3.033 2.204-.064-.077a24.8 24.8 0 0 1-4.854-14.767v-.263zM514.903 507.162l6.2 1.826.076.023.113 6.798.002.082-9.375 6.81-.135-.04c-2.072-.711-6.068-2.083-6.39-2.195v-6.49l.094-.066 9.326-6.775zM498.866 495.584l-3.513 10.816-.14.042-6.496 1.914-.068-.088-4.09-5.439.031-.083 3.554-10.936.102-.035 6.49-1.99 4.149 5.712zM526.234 503.138h3.605l.14-.006.002.262a24.8 24.8 0 0 1-4.86 14.775l-.06.069-3.073-2.234-.007-.102-.116-7.034.048-.076 4.25-5.648zM499.37 483.737h11.33l.143-.004 3.961 5.648c-.248.342-3.728 5.133-4.294 5.91l-.062.09h-10.724l-.078-.006-4.357-5.997.063-.081 3.903-5.564zM497.619 479.695l1.112 3.424.033.115-4.006 5.713-.105.145-6.722 2.061-.108.03-3.083-2.24.038-.05a25.03 25.03 0 0 1 12.814-9.292zM512.598 479.63a25.04 25.04 0 0 1 12.753 9.307l-.098.083-2.982 2.165-.096-.029-6.736-2.065-.035-.052-4.06-5.79.03-.116 1.147-3.53zM515.313 489.85l-4.054 5.581-.042.068 3.54 10.899.123.04 6.512 1.905 4.142-5.507-.026-.088-3.554-10.938-.15-.049-6.448-1.977zM505.211 521.13l6.482 2.226.125.041 1.177 3.623-.051.027a24.8 24.8 0 0 1-7.896 1.28c-2.76 0-5.417-.45-7.9-1.283l-.045-.023 1.176-3.623.11-.036 6.659-2.287zM145.503 541.275v30.243l-6.404-1.5.003-30.583c.028-5.467 2.754-8.628 5.305-8.829 2.706-.213 4.277 1.276 5.456 2.76 1.792 2.257 2.672 5.069 2.688 8.596v13.372l-6.408-1.432s-.003-9.801.004-12.48c.005-1.798-.094-2.514-.366-2.39-.27.123-.285.888-.278 2.243zM171.387 556.271v-10.186c.004-1.236-.144-1.828-.34-1.68-.198.148-.21.468-.24 1.454v7.823l-6.494-1.267.003-.974v-6.496c0-5.058 2.32-8.251 4.61-8.79 1.423-.335 4.146-.45 6.391 2.54 1.621 2.16 2.555 5.195 2.562 8.328v10.234c0 2.511-1.038 4.112-1.882 5.008.79 1.061 1.841 2.925 1.882 5.381v10.471l-6.497-1.197.004-10.027c-.02-1.525-.277-1.818-1.154-2.028l-.909-.216v-7.111l.884.13c.79.145 1.174.167 1.18-1.397zM228.978 575.619V544.36l6.364.615.003 30.774c-.008 3.924-1.127 6.749-3.326 8.398-2.802 2.101-5.903.778-7.598-1.341-1.53-1.911-2.58-5.284-2.553-8.201v-31.003l6.362.681.003 31.025c.02 1.213.168 1.681.39 1.706s.365-.4.355-1.395zM257.876 586.988c.736.473 1.707.856 2.95.37.44-.172.786-.426 1.062-.712.32.313.695.6 1.14.794 1.445.628 3.584.582 5.103-.938 1.364-1.364 1.93-2.89 1.953-5.271v-24.18c.022-2.613-.787-5.5-2.061-7.352-1.402-2.04-3.17-2.949-5.403-2.777-2.373.183-5.918 2.886-5.96 9.592l-.003 7.344 6.377.328v-7.038c-.022-1.603.12-2.218.367-2.193.246.024.296.64.31 2.189v15.815l-5.121-.252v5.564c-.005.443-.119.468-.55.198-.96-.486-2.285-.683-3.622.898l-.28.33v10.167s.414-.575 1.055-1.488c.64-.911 1.232-1.799 1.504-1.996.27-.197.634.304 1.18.608M288.43 561.018V547.73l6.445.03.004 15.455c-.024 4.86-2.602 8.291-6.268 8.353-1.79.03-2.96-.648-3.72-1.378-.312.35-.644.622-.985.821 1.166 1.262 2.784 3.198 4.178 5.579 1.613 2.756 2.23 5.669 2.266 7.325v4.722l-6.881-.08-.06-3.973c-.036-1.602-.407-2.555-1.986-5.097l-2.157-3.412c-1.318-2.096-2.651-4.312-3.493-6.256-1.31-3.02-1.77-4.614-1.747-7.546v-14.835l6.743.175.004 13.888c.03 1.243.164 1.602.393 1.57.228-.031.516-.795.508-3.58l-.001-4.114 5.958.113-.103 3.987c-.046 2.38.25 3.464.471 3.612.222.148.418-.518.43-2.07zM312.17 574.518c.507-1.059.795-1.744.809-3.503v-13.437c.013-2.478-.71-5.806-2.358-7.65-1.638-1.835-3.206-2.22-4.234-2.22-.883 0-3.119.26-4.814 2.672-1.538 2.189-2.106 4.173-2.097 7.322v-.003l-.003 7.665 6.379-.063v-7.863c.032-1.19.14-1.546.387-1.596s.345.64.364 1.551v12.314c.012 1.243-1.094 3.066-2.164 4.83l-1.107 1.877c-1.443 2.588-1.924 3.8-1.926 5.883l-.003 6.33 6.528-.083-.006-4.322c-.022-1.482-.034-2.225.954-3.86.516-.854 1.108-1.842 1.641-2.785.723-1.277 1.124-1.957 1.651-3.059zM338.33 556.166l-.003 13.38 6.45-.44V556.12c.011-1.827-.874-5.154-2.076-6.872-1.37-1.956-2.921-2.877-4.746-2.818-2.524.082-3.953 1.847-5.018 3.562-1.168 1.882-1.75 4.183-1.728 6.839v-.01l-.003 30.9 6.45-.373v-30.979c-.016-1.119.603-3.156.675-.203zM354.993 554.832v12.305c0 1.486-1.922 4.77-2.955 6.535l-.644 1.116c-1.083 1.95-1.591 3.599-1.591 5.142l-.002 6.61 6.522-.564-.002-4.133c-.01-1.395-.015-2.237 1.137-4.334l.9-1.608c1.606-2.85 2.993-5.31 3.004-7.741v-13.441c.01-4.159-1.786-7.958-4.274-9.034-1.465-.634-4.302-1.183-6.843 2.256-2.028 2.745-2.354 6.009-2.368 7.72l-.004 7.757 6.374-.533v-7.803c.005-1.114.645-2.716.746-.25zM381.918 583.1l6.512-.876v-15.247l1.295 1.422 6.9-1.042-3.725-3.916c1.22-1.095 2.773-3.374 2.773-7.879v-5.135c-.014-2.968-.853-5.587-2.362-7.376-1.66-1.968-3.692-2.534-6.04-1.68-2.833 1.03-5.332 6.013-5.349 10.665zm6.66-27.748v-4.576c-.017-.628.41-1.675.443-.474v4.696c-.008 1.177-.46 1.238-.443.354M406.195 548.866v20.833c-.014 1.188-.158 1.745-.443 1.787-.283.041-.306-1.152-.29-2.672l-.003-3.017-6.35 1.02v4.262c.003 3.198 1.422 6.213 2.756 7.426 1.731 1.575 4.861 1.957 7.253-.433 2.342-2.343 3.4-5.214 3.427-9.315v-21.059c-.025-3.285-1.432-7.448-3.994-8.695-2.247-1.093-5.101-.113-6.942 2.383-1.563 2.122-2.497 5.189-2.5 8.203l-.002 7.884 6.356-1.021v-7.142c.007-.888-.017-1.898.352-2.218.37-.32.39.69.38 1.774zM423.014 547.204v-3.9l5.934-1.153-.086 3.412s-.1 3.008.172 3.969c.17.604.69-.296.677-1.59v-13.717l6.407-1.339.003 15.75c-.062 4.608-2.68 8.67-6.087 9.45-1.59.365-2.813-.068-3.666-.703-.372.54-.76.95-1.146 1.246a27.4 27.4 0 0 1 2.904 3.07c2.18 2.67 3.46 5.774 3.51 8.516v4.555l-6.837 1.377-.019-1.437-.043-2.796c-.033-1.329-.21-2.35-2.377-5.318-2.164-2.964-4.379-6.088-5.599-8.846-1.228-2.778-1.337-3.837-1.335-6.156v-14.612l6.71-1.253.003 13.088c-.008 1.183.068 2.194.314 2.218s.58-.934.56-3.831zM446.7 540.634v21.03c-.006.99-.216 1.547-.512 1.868-.295.32-.197-1.282-.205-2.623l-.003-3.105-6.328 1.414v4.193c-.024 3.76 1.433 5.955 2.66 7.135 1.77 1.702 4.412 1.715 6.575.032 1.984-1.543 4.127-5.38 4.14-10.158v-21.057c-.013-4.859-2.743-8.54-5.183-8.803-2.715-.294-4.441 1.428-5.643 2.96-1.57 2.003-2.571 5.307-2.55 8.408l-.003 7.973 6.336-1.416V541.2c.008-1.159.106-1.947.353-2.194.246-.246.356.32.363 1.627zM157.937 541.628c-2.176-.456-3.88-2.538-3.88-4.739 0-1.142.453-2.14 1.277-2.81.828-.671 1.953-.92 3.089-.682 2.177.457 3.882 2.532 3.882 4.726 0 1.13-.47 2.158-1.287 2.821-.827.672-1.95.922-3.081.684M184.712 546.688h-.001c-2.207-.372-3.937-2.405-3.938-4.628 0-1.135.45-2.141 1.268-2.832.817-.691 1.934-.979 3.063-.789 2.208.372 3.938 2.4 3.938 4.616 0 1.138-.452 2.147-1.273 2.842-.817.693-1.932.98-3.057.791M246.07 555.065v4.714c-.002 1.299.447 1.067.452.156v-4.584c-.006-.619-.405-1.726-.451-.286m-6.67 31.23.003-30.798c-.011-2.494.756-5.104 2.107-7.158 1.494-2.27 3.94-3.185 6.232-2.33 3.15 1.172 5.441 5.52 5.447 10.34v5.092c-.003 4.34-1.555 6.393-2.807 7.349l3.916 4.945-7.239-.47s-.81-1.065-1.138-1.493v15.052zM371.284 558.503c-.198.124-.222-.22-.218-1.175l-.004-13.711-6.657.725v30.626c-.063 4.968 2.166 7.42 3.127 8.244 1.87 1.603 5.246 1.856 7.659-.495 1.71-1.667 2.652-4.194 2.652-6.814 0-.996-.137-2.006-.419-2.987-.988-3.435-3.888-5.4-6.507-5.55v-.387c.446.109.937.16 1.475.093.95-.12 5.689-1.12 5.706-9.194l-.004-15.104-6.432.772v13.468c.007.876-.181 1.366-.379 1.49m.099 17.647c-.173.493-.32.32-.32-.32s.004-1.685.004-1.685c.3.581.488 1.512.315 2.005zM211.887 557.345c-.197-.123-.271-.27-.286-1.445l-.004-13.46-6.652-.88v30.926c-.009 3.169 1.053 6.447 2.772 8.555 1.057 1.295 2.706 2.154 4.409 2.295 1.501.125 2.919-.325 3.992-1.267 1.512-1.328 2.231-3.895 2.231-6.34 0-1.578-.299-3.104-.877-4.216-1.392-2.672-3.435-4.391-6.019-5.23v-.387c.532.196 1.15.332 1.89.347 1.114.022 2.154-.407 3.005-1.239 1.444-1.41 2.275-3.918 2.282-6.882l-.003-14.82-6.432-.783v13.782c.012.904-.11 1.168-.307 1.044m-.025 17.968c-.222.37-.32.074-.32-.542v-1.651c.345.862.542 1.824.32 2.193" style="fill:#fff;fill-opacity:1;fill-rule:nonzero;stroke:none"></path><path d="M145.825 537.688c.93.136 1.534 1.689 1.505 3.152v12.115q2.019.458 4.04.902v-11.89c-.018-3.428-.902-5.937-2.433-7.864-1.33-1.676-2.563-2.466-4.437-2.317-1.873.148-4.19 2.776-4.214 7.649v29.645q2.017.48 4.035.945v-29.872c.016-1.838.574-2.6 1.504-2.465M165.5 544.945v6.496q2.061.409 4.123.805v-6.723c-.018-1.89.708-2.449 1.55-2.238.84.212 1.377 1.071 1.396 2.8v10.199c-.02 1.874-.654 2.832-2.062 2.625v4.806c1.803.43 2.043 1.64 2.062 3.178v9.043q2.064.386 4.127.76v-9.03c-.055-3.395-2.358-5.523-2.358-5.523s2.365-1.383 2.358-4.902v-10.215c-.006-2.67-.749-5.521-2.324-7.62-1.577-2.1-3.499-2.494-5.174-2.1-1.677.395-3.698 3.1-3.698 7.639M211.986 558.602c-.79-.147-1.578-.789-1.569-2.73v-12.393q-2.144-.278-4.289-.57v29.58c-.009 2.972.978 5.93 2.506 7.803s4.682 2.662 6.703.888 2.318-6.754 1.085-9.12c-1.232-2.366-3.136-4.258-6.152-4.939v-3.623s.631 1.512 3.096 1.562c2.465.049 4.072-2.982 4.081-6.938v-13.77a675 675 0 0 1-4.07-.497v12.393c.013 1.933-.603 2.502-1.391 2.354m.69 14.049c.788 1.972.345 3.747-.493 4.092s-1.775-.394-1.766-2.081v-5.156s1.47 1.173 2.258 3.145M234.163 575.747v-29.698a676 676 0 0 1-4.001-.386v29.962c-.015 2.58-1.12 2.843-1.81 2.597s-1.282-1.33-1.302-2.914v-29.961q-2.001-.21-3.999-.429v29.698c-.023 2.57.914 5.725 2.294 7.45s3.796 2.761 5.965 1.134c2.169-1.626 2.845-4.506 2.853-7.453M268.901 581.22v-24.178c.02-2.482-.768-5.095-1.852-6.672-1.085-1.578-2.416-2.416-4.339-2.268-1.922.148-4.83 2.514-4.866 8.412v6.22q2.003.11 4.007.206v-6.445c-.022-2.058.712-2.92 1.698-2.724.986.197 1.38 1.626 1.345 2.878v22.201c.013 1.121-.457 1.64-1.197 1.54-.74-.098-.839-.887-.882-3.092V574.1a585 585 0 0 1-3.043-.15v5.32c-.019 1.22-.348 1.686-1.35.874-1.035-.838-1.963-1.358-3.101-.013v6.056c.793-1.105 1.622-1.36 2.41-.769.79.593 1.53 1.282 2.663.839 1.134-.444 1.326-1.876 1.326-1.876s.646 1.481 1.78 1.974c1.058.46 2.661.444 3.795-.69s1.586-2.385 1.606-4.446M281.147 564.254c-.936-.017-1.577-.673-1.558-2.844v-12.644q-2.19-.049-4.379-.113v13.63c-.022 2.693.367 4.108 1.648 7.066 1.282 2.957 3.796 6.654 5.57 9.514 1.624 2.615 2.12 3.795 2.165 5.693.019.798.045 1.738.045 2.83q2.264.034 4.53.053v-3.5c-.035-1.527-.64-4.25-2.105-6.753-2.366-4.042-5.496-6.86-5.496-6.86s2.18.514 3.246-2.277c0 0 .82 2.384 3.777 2.334s5.085-3.001 5.106-7.169v-14.278a618 618 0 0 1-4.084-.019v12.645c-.013 2.022-.479 2.808-1.694 2.794s-1.595-2.55-1.572-4.911l.074-2.796a670 670 0 0 1-3.564-.066v2.926c-.065 4.012-.772 4.762-1.709 4.745M300.659 557.698v6.471q2.004-.015 4.01-.04v-6.696c.006-2.008.632-2.775 1.668-2.775 1.035 0 1.478 1.035 1.45 2.735v12.303c.02 2.073-1.992 4.73-3.421 7.293-1.43 2.564-1.775 3.55-1.777 5.308v5.132q2.08-.02 4.158-.054v-2.64c-.015-1.88-.164-2.866 1.118-4.985 1.281-2.12 2.662-4.536 3.155-5.57.493-1.036.762-1.497.775-3.165v-13.444c.014-2.42-.703-5.34-2.057-6.856-1.232-1.38-2.415-1.824-3.351-1.824-.937 0-2.563.345-3.846 2.17-1.281 1.823-1.89 3.515-1.882 6.637M332.393 556.821v29.646q2.04-.112 4.08-.236v-29.873c.016-1.653.526-2.883 1.521-2.904s1.519 1.451 1.52 2.712v12.114q2.04-.133 4.08-.279v-11.89c.01-1.65-.828-4.706-1.863-6.185-.95-1.357-2.12-2.366-3.737-2.314-1.888.061-3.006 1.32-4.051 3.004-.888 1.43-1.573 3.439-1.55 6.205M356.618 546.771c-1.824-.789-3.746-.395-5.422 1.874-1.675 2.267-2.12 5.028-2.135 7.016v6.47q2-.16 4.002-.334v-6.696c-.005-2.22.893-2.907 1.682-2.956.789-.05 1.381 1.231 1.432 2.687v12.303c.002 2.174-2.763 6.453-3.749 8.228s-1.478 3.302-1.44 4.755v5.132a569 569 0 0 0 4.152-.36v-2.638c0-1.713-.132-2.74 1.281-5.312 1.923-3.5 3.746-6.26 3.757-8.78v-13.444c.01-3.936-1.736-7.156-3.56-7.945M371.296 559.711c-.703.075-1.368-.615-1.413-2.383v-12.392q-2.146.24-4.295.468v29.58c-.047 3.73 1.333 6.146 2.713 7.33 1.38 1.182 4.092 1.478 6.064-.445 1.971-1.922 2.867-5.34 1.922-8.626-1.035-3.598-4.43-5.118-6.553-4.63v-3.623s.933 1.105 2.51.908c1.578-.197 4.657-1.644 4.671-8.02v-13.77q-2.036.25-4.07.488v12.392c.008 1.837-.846 2.65-1.55 2.723m1.098 14.715c.443 2.07-.295 3.155-1.102 3.402-.805.248-1.363-.494-1.408-2.367v-4.498s2.067 1.392 2.51 3.463M383.105 552.04v29.707q2.072-.272 4.142-.558v-17.264l2.93 3.21q2.013-.299 4.025-.609l-3.121-3.281s3.421-1.186 3.409-7.72v-5.092c-.012-2.676-.752-5.042-2.083-6.62-1.331-1.577-2.842-2.018-4.733-1.33-2.169.788-4.553 5.214-4.569 9.557m7.1-1.694v4.612c.014 1.335-.756 2.215-1.397 2.278-.643.064-1.38-.408-1.413-1.884v-4.612c.033-1.11.672-2.165 1.413-2.303.74-.138 1.411.604 1.396 1.91M408.033 540.067c-1.823-.887-4.091.148-5.471 2.021s-2.268 4.634-2.27 7.5v6.496q1.994-.315 3.988-.641v-6.747c.007-1.53.627-2.873 1.55-3.015.922-.142 1.533.787 1.548 2.491v21.536c-.015 1.79-.725 3.042-1.71 3.09-.987.05-1.332-1.28-1.388-3.984v-1.628q-1.994.325-3.988.64v3.253c.002 2.903 1.284 5.565 2.368 6.551 1.085.986 3.5 1.725 5.62-.394s3.057-4.732 3.081-8.48v-21.05c-.024-3.304-1.504-6.752-3.328-7.64M434.938 548.62v-14.278q-2.022.428-4.044.844v12.645c.036 2.193-1.023 3.23-2.008 3.13-.987-.098-1.233-1.43-1.23-4.557l.074-2.812q-1.767.35-3.533.687v2.927c-.005 3.835-.685 5.037-1.696 5.106-.814.055-1.502-.809-1.544-2.515v-12.644q-2.174.414-4.348.812v13.63c-.002 2.212.1 3.113 1.234 5.676s3.205 5.521 5.472 8.627 2.563 4.338 2.603 5.987.045 2.82.045 2.82q2.245-.443 4.489-.904v-3.565c-.038-2.12-.99-5.03-3.243-7.789-2.416-2.957-4.29-4.153-4.29-4.153s1.95.225 3.218-2.962c0 0 1.017 2.2 3.632 1.602 2.616-.6 5.11-3.902 5.17-8.314M451.844 560.417v-21.05c-.012-4.25-2.304-7.433-4.128-7.63s-3.155.69-4.584 2.513c-1.43 1.824-2.317 4.93-2.298 7.678v6.496q1.984-.437 3.966-.887v-6.746c-.007-2.235.797-3.14 1.783-3.14s1.33 1.085 1.3 2.425v21.537c.017 2.172-1.153 3.3-1.99 3.2-.839-.098-1.085-1.626-1.093-3.904v-1.63q-1.982.45-3.966.887v3.251c-.019 3.023 1.016 5.044 2.298 6.277 1.282 1.232 3.253 1.33 5.028-.05s3.672-4.948 3.684-9.227M158.18 540.47c-1.624-.34-2.941-1.948-2.941-3.58 0-1.634 1.317-2.675 2.94-2.334 1.625.339 2.943 1.934 2.943 3.567 0 1.632-1.318 2.688-2.942 2.348M184.908 545.522c-1.63-.275-2.951-1.829-2.952-3.462s1.322-2.728 2.952-2.454 2.952 1.814 2.951 3.448-1.322 2.741-2.951 2.468M246.305 553.125c-.73-.052-1.439.745-1.417 1.999v4.612c-.022 1.33.688 2.111 1.417 2.19s1.382-.384 1.401-1.977v-4.612c-.02-1.442-.671-2.157-1.4-2.212m5.702 3.225v5.09c-.006 6.242-3.422 6.986-3.422 6.986l3.133 3.956q-2.02-.124-4.041-.262l-2.938-3.844v17.265q-2.076-.163-4.152-.337v-29.707c-.011-2.22.68-4.635 1.912-6.507 1.231-1.873 3.117-2.512 4.83-1.873 2.514.936 4.672 4.762 4.678 9.233" style="fill:#3068bb;fill-opacity:1;fill-rule:nonzero;stroke:none"></path><path d="M222.732 360.959c5.394 0 8.016-2.622 8.016-8.015 0-.654-.53-1.183-1.183-1.183h-4.704c.078-.033.129-.06.21-.094 2.633-1.118 6.239-2.647 6.239-8.102 0-3.657-1.504-8.016-8.666-8.016-5.573 0-8.282 2.43-8.282 7.426v.776c0 .654.53 1.183 1.183 1.183h5.241l-.187.085c-2.52 1.077-5.97 2.552-5.97 7.832 0 5.229 2.877 8.108 8.103 8.108m.588-8.438c-.05.132-.085.273-.085.423v.528c0 .712-.202 1.208-.384 1.208q-.532-.002-.533-.773c0-.591.339-.985 1.002-1.386m-.647-10.693c.534 0 .591.672.591.96 0 .76-.434 1.179-1.492 1.7.167-.204.28-.453.28-.737v-.528c0-1.395.404-1.395.621-1.395M244.62 360.524c.55 0 1.027-.38 1.151-.915l5.147-22.174a1.184 1.184 0 0 0-1.153-1.451h-5.856c-.588 0-1.086.432-1.17 1.014l-.416 2.868h-2.33l-.414-2.868a1.18 1.18 0 0 0-1.171-1.014h-5.857a1.186 1.186 0 0 0-1.152 1.45l5.146 22.175c.125.536.603.915 1.153.915zm-3.61-13.944h.3l-.15 1.899zM259.214 343.344c-.13 1.404-.132 3.47-.132 4.91 0 1.371 0 3.31.117 4.705.098 1.363.253 1.708.563 1.72.312.012.326-.834.326-2.076v-1.243c0-.653.53-1.184 1.183-1.184h5.324c.654 0 1.183.53 1.183 1.184v1.397c0 5.366-2.772 8.202-8.016 8.202-7.265 0-8.725-4.862-8.725-12.705 0-8.24 1.39-12.705 8.725-12.705 5.265 0 8.164 3.156 8.164 8.886v1.645c0 .653-.53 1.184-1.183 1.184h-5.324c-.653 0-1.183-.53-1.183-1.184q0-1.891-.1-2.957c-.1-.965-.055-1.291-.374-1.295-.317-.002-.446.41-.548 1.516M279.522 360.524c-.654 0-1.184-.53-1.184-1.183v-6.953h-1.005v6.953c0 .654-.53 1.183-1.184 1.183h-5.501c-.653 0-1.183-.53-1.183-1.183v-22.174c0-.653.53-1.183 1.183-1.183h5.5c.655 0 1.185.53 1.185 1.183v7.947h1.005v-7.947c0-.653.53-1.183 1.184-1.183h5.501c.653 0 1.183.53 1.183 1.183v22.174c0 .654-.53 1.183-1.183 1.183zM305.055 335.984h-6.27c-.478 0-.909.287-1.093.728l-2.102 5.043v-4.588c0-.653-.53-1.183-1.183-1.183h-5.501c-.654 0-1.183.53-1.183 1.183v22.174c0 .654.53 1.183 1.183 1.183h5.501c.653 0 1.183-.53 1.183-1.183v-3.431l1.891 3.943c.197.41.611.67 1.066.67h5.857c1.199.01 1.43-.852 1.036-1.752l-5.03-9.158 5.712-11.935c.331-.696.16-1.62-1.067-1.694M317.497 360.524c-.653 0-1.183-.53-1.183-1.183v-6.953h-1.006v6.953c0 .654-.53 1.183-1.183 1.183h-5.501c-.654 0-1.184-.53-1.184-1.183v-22.174c0-.653.53-1.183 1.184-1.183h5.501c.653 0 1.183.53 1.183 1.183v7.947h1.006v-7.947c0-.653.53-1.183 1.183-1.183h5.5c.654 0 1.184.53 1.184 1.183v22.174c0 .654-.53 1.183-1.183 1.183zM327.76 360.524c-.654 0-1.184-.53-1.184-1.183v-22.174c0-.653.53-1.183 1.184-1.183h12.777c.653 0 1.183.53 1.183 1.183v4.72c0 .654-.53 1.184-1.183 1.184h-6.093v2.043h5.383c.653 0 1.184.53 1.184 1.183v4.535c0 .653-.53 1.183-1.184 1.183h-5.383v1.423h5.827c.653 0 1.183.53 1.183 1.183v4.72c0 .654-.53 1.183-1.183 1.183zM351.392 344.866v-7.699c0-.653-.53-1.183-1.184-1.183h-5.5c-.654 0-1.184.53-1.184 1.183v22.174c0 .654.53 1.183 1.184 1.183h8.606c4.436 0 6.98-2.582 6.98-7.084 0-2.725-.875-4.294-1.943-5.222 1.777-1.478 1.796-4.052 1.796-5.088v-1.894c0-.475 0-1.297.04-1.891.18-1.446.855-1.475.819-2.474-.023-.606-.296-.96-1.155-.887h-5.856c-.465 0-.887.273-1.079.697-.561 1.244-.637 3.079-.637 4.71v1.49c0 2.462-.887 1.985-.887 1.985m0 6.281c.404.006 1.035.1 1.035 1.456 0 1.265-.312 1.377-1.035 1.387zM363.844 360.524c-.654 0-1.183-.53-1.183-1.183v-22.174c0-.653.53-1.183 1.183-1.183h12.777c.653 0 1.183.53 1.183 1.183v4.72c0 .654-.53 1.184-1.183 1.184h-6.093v2.043h5.384c.652 0 1.182.53 1.182 1.183v4.535c0 .653-.53 1.183-1.182 1.183h-5.384v1.423h5.826c.654 0 1.184.53 1.184 1.183v4.72c0 .654-.53 1.183-1.184 1.183z" style="fill:#231f20;fill-opacity:1;fill-rule:nonzero;stroke:none"></path><path d="M224.418 352.944v.528c0 1.304-.503 2.39-1.567 2.39-1.184 0-1.717-.962-1.717-1.955 0-4.38 8.992-2.236 8.992-10.342 0-4.721-2.632-6.833-7.482-6.833-4.556 0-7.1 1.647-7.1 6.243v.776h5.325v-.528c0-1.894.74-2.577 1.804-2.577 1.124 0 1.774.931 1.774 2.143 0 4.379-8.635 2.204-8.635 10.062 0 4.471 2.276 6.925 6.92 6.925 4.791 0 6.833-2.081 6.833-6.832zM237.698 359.34h6.921l5.146-22.173h-5.856l-.562 3.882h-4.377l-.562-3.882h-5.857zm3.49-4.534h-.06l-1.507-9.41h3.075zM261.27 352.603c0 2.515-.442 3.26-1.508 3.26-1.685 0-1.863-1.614-1.863-7.61 0-5.992.178-7.607 1.863-7.607 1.361 0 1.657 1.242 1.657 5.434h5.324v-1.645c0-6.212-3.46-7.703-6.98-7.703-6.182 0-7.543 3.261-7.543 11.522 0 8.479 1.834 11.522 7.542 11.522 4.97 0 6.833-2.733 6.833-7.02v-1.396h-5.324zM270.648 359.34h5.5v-8.136h3.374v8.137h5.501v-22.174h-5.501v9.13h-3.373v-9.13h-5.501zM288.906 359.34h5.501v-8.508h.059l4.081 8.509h5.857l-5.324-9.69 5.975-12.484h-6.27l-3.224 7.733-1.154-1.863v-5.87h-5.501zM308.624 359.34h5.501v-8.136h3.372v8.137h5.5v-22.174h-5.5v9.13h-3.372v-9.13h-5.501zM327.76 359.34h12.511v-4.719h-7.01v-3.79h6.566v-4.534h-6.566v-4.41h7.276v-4.72H327.76zM359.851 337.167h-5.856c-.533 1.18-.533 3.292-.533 4.224v1.49c0 2.516-.473 3.168-1.804 3.168h-1.45v-8.882h-5.5v22.174h8.606c4.2 0 5.797-2.484 5.797-5.901 0-2.95-1.094-4.875-3.608-5.28v-.061c2.662-.248 3.46-2.019 3.46-4.97v-1.893c0-1.15.035-2.62.267-3.075.186-.366.621-.994.621-.994m-9.643 12.795h1.095c1.568 0 2.307 1.056 2.307 2.64 0 1.802-.68 2.578-2.337 2.578h-1.064zM363.844 359.34h12.51v-4.719h-7.01v-3.79h6.568v-4.534h-6.567v-4.41h7.276v-4.72h-12.777z" style="fill:#fff;fill-opacity:1;fill-rule:nonzero;stroke:none"></path><path d="M193.57 397.94c-.654 0-1.184-.53-1.184-1.184v-22.173c0-.654.53-1.184 1.183-1.184h5.501c.654 0 1.183.53 1.183 1.184v7.946h5.384c.653 0 1.183.53 1.183 1.184v4.534c0 .653-.53 1.183-1.183 1.183h-5.384v1.423h5.827c.654 0 1.183.53 1.183 1.183v4.72c0 .653-.53 1.183-1.183 1.183zM208.594 381.036c-.654 0-1.183-.53-1.183-1.183v-5.27c0-.654.53-1.184 1.183-1.184h4.969c.653 0 1.184.53 1.184 1.184v5.27c0 .653-.53 1.183-1.184 1.183zM227.104 381.015q.064.98.064 2.48c0 .654.53 1.184 1.184 1.184h5.323c.654 0 1.183-.53 1.183-1.184v-1.645c0-5.73-2.899-8.886-8.163-8.886-7.335 0-8.725 4.465-8.725 12.705 0 7.844 1.46 12.706 8.725 12.706 5.244 0 8.015-2.837 8.015-8.203v-1.397c0-.653-.529-1.183-1.183-1.183h-5.323c-.654 0-1.183.53-1.183 1.183 0 0-.006 1.755-.016 1.963-.016 1.107-.058 1.443-.39 1.443-.334 0-.407-.702-.515-2.256-.085-1.34-.085-3.027-.085-4.256 0-1.342.023-3.228.107-4.616.086-1.406.734-3.219.983-.038M239.265 381.036c-.654 0-1.183-.53-1.183-1.183v-5.27c0-.654.53-1.184 1.183-1.184h4.97c.652 0 1.182.53 1.182 1.184v5.27c0 .653-.53 1.183-1.183 1.183zM267.533 380.576q.096 1.062.096 2.92c0 .653.53 1.183 1.183 1.183h5.324c.654 0 1.184-.53 1.184-1.184v-1.645c0-5.73-2.9-8.886-8.164-8.886-7.335 0-8.725 4.465-8.725 12.705 0 7.844 1.46 12.706 8.725 12.706 5.244 0 8.016-2.837 8.016-8.203v-1.397c0-.653-.53-1.183-1.183-1.183h-5.325c-.653 0-1.183.53-1.183 1.183 0 0-.011 1.957-.03 2.218-.055 1.99-.723.929-.828-.292-.147-1.405-.147-3.55-.147-5.032 0-1.518.035-3.73.154-5.132.098-1.149.671-2.25.903.039M287 397.94c-.653 0-1.183-.53-1.183-1.184v-6.953h-1.005v6.953c0 .653-.53 1.183-1.183 1.183h-5.502c-.653 0-1.183-.53-1.183-1.183v-22.173c0-.654.53-1.184 1.183-1.184h5.502c.653 0 1.183.53 1.183 1.184v7.946h1.005v-7.946c0-.654.53-1.184 1.183-1.184h5.502c.653 0 1.183.53 1.183 1.184v22.173c0 .653-.53 1.183-1.183 1.183zM296.917 397.94c-.654 0-1.184-.53-1.184-1.184v-22.173c0-.654.53-1.184 1.183-1.184h5.502c.653 0 1.183.53 1.183 1.184v22.173c0 .653-.53 1.183-1.183 1.183zM323.046 396.187l-5.03-9.158c.478-1.002 5.711-11.936 5.711-11.936.38-.843.074-1.694-1.067-1.694h-6.27c-.478 0-.908.288-1.092.728 0 0-1.15 2.755-2.102 5.042v-4.586c0-.654-.53-1.184-1.184-1.184h-5.5c-.654 0-1.184.53-1.184 1.184v22.173c0 .653.53 1.183 1.183 1.183h5.501c.654 0 1.184-.53 1.184-1.183v-3.43l1.89 3.942c.198.41.612.671 1.067.671h5.856c1.027.01 1.492-.668 1.037-1.752M334.976 397.94c-.654 0-1.184-.53-1.184-1.184v-6.953h-1.005v6.953c0 .653-.53 1.183-1.183 1.183h-5.501c-.654 0-1.184-.53-1.184-1.183v-22.173c0-.654.53-1.184 1.184-1.184h5.5c.655 0 1.184.53 1.184 1.184v7.946h1.005v-7.946c0-.654.53-1.184 1.184-1.184h5.502c.652 0 1.182.53 1.182 1.184v22.173c0 .653-.53 1.183-1.182 1.183zM351.36 380.762v15.994c0 .653-.53 1.183-1.183 1.183h-5.501c-.654 0-1.184-.53-1.184-1.183v-14.533c0-6.403 2.573-9.259 8.341-9.259 5.769 0 8.34 2.856 8.34 9.259v14.533c0 .653-.528 1.183-1.182 1.183h-5.501c-.654 0-1.183-.53-1.183-1.183v-15.994c-.026-1.115-.107-1.552-.473-1.518-.367.034-.47.267-.474 1.518M369.64 382.281v-7.698c0-.654-.53-1.184-1.183-1.184h-5.501c-.654 0-1.184.53-1.184 1.184v22.173c0 .653.53 1.183 1.184 1.183h8.607c4.435 0 6.98-2.582 6.98-7.083 0-2.726-.876-4.294-1.945-5.222 1.778-1.478 1.797-4.052 1.797-5.089v-1.894c0-.438 0-1.168.032-1.745.03-1.067.51-1.806.732-2.25s-.013-1.257-1.06-1.257h-5.856c-.466 0-.888.273-1.078.697-.563 1.244-.638 3.08-.638 4.71v1.49c-.018 1.685-.241 2.05-.887 1.985m0 6.281c.404.007 1.035.1 1.035 1.456 0 1.265-.312 1.378-1.035 1.387zM393.539 397.94c.55 0 1.027-.38 1.151-.916l5.147-22.174a1.184 1.184 0 0 0-1.152-1.451h-5.857c-.588 0-1.086.432-1.17 1.014l-.416 2.868h-2.328c-.162-1.106-.416-2.868-.416-2.868a1.18 1.18 0 0 0-1.171-1.014h-5.856a1.184 1.184 0 0 0-1.153 1.45l5.146 22.175c.124.536.603.915 1.153.915zm-3.611-13.944h.3l-.15 2.49z" style="fill:#231f20;fill-opacity:1;fill-rule:nonzero;stroke:none"></path><path d="M193.57 396.756h12.51v-4.72h-7.01v-3.79h6.567v-4.533h-6.567v-9.13h-5.5zM208.594 379.853h4.969v-5.27h-4.969zM228.204 390.018c0 2.515-.445 3.26-1.51 3.26-1.685 0-1.862-1.614-1.862-7.609 0-5.993.177-7.608 1.863-7.608 1.36 0 1.657 1.242 1.657 5.434h5.323v-1.645c0-6.212-3.46-7.702-6.98-7.702-6.182 0-7.542 3.26-7.542 11.521 0 8.479 1.834 11.522 7.542 11.522 4.97 0 6.832-2.732 6.832-7.02v-1.396h-5.323zM239.265 379.853h4.97v-5.27h-4.97zM268.664 390.018c0 2.515-.443 3.26-1.508 3.26-1.686 0-1.864-1.614-1.864-7.609 0-5.993.178-7.608 1.864-7.608 1.36 0 1.656 1.242 1.656 5.434h5.324v-1.645c0-6.212-3.46-7.702-6.98-7.702-6.182 0-7.542 3.26-7.542 11.521 0 8.479 1.834 11.522 7.542 11.522 4.969 0 6.833-2.732 6.833-7.02v-1.396h-5.325zM278.127 396.756h5.502v-8.136H287v8.136h5.502v-22.173H287v9.13h-3.371v-9.13h-5.502zM296.917 396.756h5.501v-22.173h-5.502zM306.511 396.756h5.501v-8.51h.06l4.081 8.51h5.856l-5.323-9.69 5.974-12.483h-6.27l-3.224 7.732-1.154-1.863v-5.87h-5.5zM326.103 396.756h5.5v-8.136h3.373v8.136h5.502v-22.173h-5.502v9.13h-3.372v-9.13h-5.501zM350.177 396.756v-15.994c0-2.143.62-2.701 1.656-2.701 1.035 0 1.657.558 1.657 2.701v15.994h5.501v-14.533c0-6.212-2.544-8.075-7.157-8.075-4.615 0-7.158 1.863-7.158 8.075v14.533zM362.956 396.756h8.607c4.2 0 5.797-2.484 5.797-5.9 0-2.95-1.095-4.876-3.609-5.28v-.062c2.662-.248 3.46-2.019 3.46-4.969v-1.894c0-1.15 0-2.64.267-3.075.147-.248.266-.496.62-.683v-.31h-5.855c-.533 1.18-.533 3.292-.533 4.223v1.49c0 2.516-.473 3.168-1.804 3.168h-1.45v-8.881h-5.5zm5.5-9.379h1.095c1.567 0 2.306 1.057 2.306 2.64 0 1.801-.68 2.578-2.336 2.578h-1.064zM386.617 396.756h6.922l5.146-22.173h-5.857l-.562 3.881h-4.377l-.562-3.881h-5.856zm3.49-4.533h-.06l-1.507-9.411h3.076z" style="fill:#fee613;fill-opacity:1;fill-rule:nonzero;stroke:none"></path><path d="M232.928 407.043c1.45 3.318 3.799 8.269 6.22 11.659 6.464 9.05 10.648 7.295 18.337 1.972 7.69-5.325 11.832-10.845 16.761-8.874 4.93 1.971 6.31 13.409 7.493 29.577 1.183 16.17.788 42.395.788 42.395h6.508s.196-18.142 4.535-27.606c4.338-9.464 8.282-10.648 13.211-11.239s8.281.986 10.254-7.296c1.971-8.281 4.332-11.24 8.28-11.24 7.888 0 8.085 11.634 8.085 11.634h7.888s4.14-4.338 7.296-4.14c3.154.197 3.549 2.563 5.717 2.76 2.17.197 3.155-3.353 6.113-2.76 7.888 1.577 7.099 25.634 7.099 25.634h8.281s0-23.071 2.76-32.733c2.761-9.661 6.705-15.183 10.254-14.986 3.55.198 5.325 4.142 11.437 3.747 5.428-.35 10.39-3.344 13.78-8.567l.196-.306h5.446l-.023.394-.005 7.937-.017.328c-1.74 1.972-3.961 3.737-6.758 4.75-7.036 2.544-12.224.196-17.351 2.563-5.127 2.365-8.676 4.929-11.24 17.154s-4.339 25.24-4.339 25.24H364.16c0-12.62-1.577-20.902-5.52-23.86-2.611-1.958-2.761.987-4.536.987s-3.352-4.93-5.915-4.733-5.521 4.14-5.521 4.14H332.02s-1.183-6.112-4.535-5.718-4.308 3.898-4.93 6.507c-.986 4.141-.393 6.902-7.887 8.873-6.453 1.699-9.662 5.127-14.591 15.183-4.93 10.057-6.31 25.043-6.31 25.043h-16.17c-.393-12.62-4.14-41.211-5.914-51.267s-4.338-11.24-9.07-7.888c-4.734 3.352-9.27 6.901-14.198 6.901-4.93 0-8.479-1.97-12.225-12.62-3.073-8.733-6.676-15.078-12.334-19.58l-.433-.334h9.34z" style="fill:#231f20;fill-opacity:1;fill-rule:nonzero;stroke:none"></path><path d="M349.623 441.727c1.057 1.38 2.373 3.101 4.481 3.101 1.53 0 2.516-.775 3.133-1.352 1.99 1.696 4.261 6.846 4.262 21.564v2.662h5.274l.017.518c-.009 19.746-.02 39.223-.032 46.263l-.502.055a882 882 0 0 1-17.192 1.775l-.01-.425c.015-11.752.028-42.314.039-67.817l.004-6.989zM349.103 430.952l.014-24.278h17.706v.517l-.017 28.913.016.344c-1.47-2.971-3.425-4.682-5.886-5.174-2.946-.59-4.815 1.103-5.933 2.113a10 10 0 0 1-.615.521 5 5 0 0 1-.617-.472c-.912-.777-2.267-1.934-4.671-2.18zM312.2 454.91c-.01 25.557-.025 53.924-.038 62.974l.005.883c5.835-.208 11.756-.52 17.709-.915l-.006-.597c.015-10.762.03-43.932.04-69.186l.003-3.832h-.077l-.427-2.15c-.331-1.656-1.179-3.32-1.661-3.575-1.174.17-1.86 1.348-2.603 4.468l-.318 1.519c-.82 4.207-1.98 7.338-9.481 9.313-1.03.27-1.962.577-2.834.974zM312.207 441.305l.02-34.41.014-.221h17.69l.003.351-.01 17.618-.008.26c-1.278-.736-2.8-1.174-4.6-1.174-6.775 0-9.228 6.386-10.871 13.285-.66 2.772-1.258 3.985-2.239 4.544zM292.864 451.685a43 43 0 0 0-1.714 3.372c-3.558 7.762-4.466 20.562-4.697 26.053h-1.235c.016-1.797.032-4.375.032-7.465 0-9.175-.141-22.69-.856-32.461-1.244-17.005-2.63-29.244-9.16-31.855-5.028-2.012-9.11 1.253-13.836 5.032-1.6 1.28-3.412 2.728-5.428 4.124-7.118 4.929-9.405 6.022-14.657-1.33-2.122-2.972-4.224-7.308-5.637-10.482h57.062l.306-.018-.026 44.73z" style="fill:#3068bb;fill-opacity:1;fill-rule:nonzero;stroke:none"></path><path d="M292.998 494.543c-.006 11.074-.014 20.068-.02 24.043l-.037.469c-40.295-.312-87.088-6.52-120.345-11.9l-.015-1.151c-.012-14.241-.023-39.344-.031-59.337l-.025-39.673v-.32h46.066l.269.148c6.728 3.89 11.039 9.909 14.819 20.651 3.693 10.495 7.687 14.398 14.736 14.398 5.382 0 10.067-3.346 14.596-6.58l1.14-.812c1.827-1.294 2.416-1.192 2.416-1.192.053.022 1.304.622 2.494 7.37 1.783 10.104 5.49 38.54 5.876 50.887l.081 2.58h17.985zM385.984 444.828v1.842c-.012 24.49-.025 53.784-.039 65.446l.225-.03c6.02-.8 11.866-1.628 17.47-2.459l.015-.443c.013-13.402.025-40.937.035-62.516l.014-22.568-.348-.005c-2.64.024-4.727.043-6.728.968-3.888 1.794-7.246 3.344-9.749 15.283a264 264 0 0 0-.76 3.762zM386.006 409.434l.001-2.366.016-.394h17.696l-.006.394-.002 4.782-.005.303c-1.165.407-2.38.657-3.632.738-2.773.178-4.267-.736-5.997-1.794-1.406-.861-3-1.837-5.12-1.954-1.002-.057-1.99.138-2.954.57l.004-.279z" style="fill:#3068bb;fill-opacity:1;fill-rule:nonzero;stroke:none"></path><path d="M406.908 509.16c.013-13.134.025-39.863.035-62.49l.014-22.397.019-.292c2.066-.146 4.316-.5 6.793-1.396 2.27-.82 4.202-2.05 5.837-3.479l.03.212-.017 27.35c-.008 20.533-.02 46.458-.033 60.47l-.69.127c-3.741.603-7.65 1.216-11.7 1.829zM370.05 452.568l.003-5.898.024-39.503-.001-.493h12.694l-.017.32-.003 4.83-.005.347c-2.615 2.827-4.94 7.554-6.75 13.884-2.293 8.023-2.749 24.367-2.84 30.801h-2.962a96 96 0 0 0-.05-2.34l-.092-1.948zM370.013 513.78c.011-7.504.021-26.068.03-45.561l.01-.517h12.206l.314-2.303c.003-.021.055-.403.152-1.08l-.003.647c-.009 19.226-.02 38.83-.03 47.57l-.289.044a1026 1026 0 0 1-12.377 1.525zM333.351 444.237h9.317l1.328-.004.798-1.057c.31-.41.666-.82 1.035-1.2l.014.338-.003 5.755c-.01 24.365-.024 56.095-.039 67.967l-.028.577c-4.208.374-8.425.714-12.633 1.014l-.017-.445c.015-10.644.03-42.608.04-69.11l.003-3.86M296.417 491.707c.014-.145 1.399-14.628 6.05-24.116 2.533-5.168 4.484-8.295 6.475-10.298l.003.402c-.01 24.27-.024 51.988-.037 60.485l-.032.694c-4.276.125-8.498.192-12.644.193l-.001-.666c.007-4.207.014-13.525.02-25.041zM296.274 446.923l.024-40.046.007-.203h12.681l-.013.351-.02 34.796.001.282-2.491.18c-3.486.42-6.751 1.145-9.93 4.376zM333.176 427.994l.011-21.32h12.677l-.014 25.042-.157.03c-2.287.854-4.335 2.546-5.485 3.617h-4.379c-.337-2.258-1.08-4.832-2.43-6.984zM406.967 407.142v3.081l.027.276c1.475-.994 2.818-2.276 3.986-3.815l-.284-.01h-3.722z" style="fill:#fee613;fill-opacity:1;fill-rule:nonzero;stroke:none"></path><path d="M203.6 472.248v-3.142c-.019-.74-.091-1.208-1.275-1.257-1.184-.05-1.492.172-1.486 1.11v3.032c.006.788.302 1.133 1.287 1.157.986.025 1.468-.2 1.474-.9m-1.375-17.783c-1.183 0-1.38.518-1.386 1.32v3.141h-9.113v-4.458a7.06 7.06 0 0 1 7.052-7.052h6.896c3.889 0 7.052 3.164 7.052 7.052v18.949a7.06 7.06 0 0 1-7.052 7.052h-6.896a7.06 7.06 0 0 1-7.052-7.052v-5.786c0-3.888 3.163-7.051 7.052-7.051h4.822v-4.86c-.019-.934-.192-1.255-1.375-1.255M228.008 472.583v-3.945c0-.58 0-.82-1.723-.888l-1.137-.046v-7.643h1.184c1.594 0 1.676-.38 1.676-1.48v-2.439c.023-.937-.27-1.39-.937-1.406-.985-.024-1.258.37-1.287 1.335v3.645h-9.409v-5.248a7.06 7.06 0 0 1 7.053-7.052h6.895c3.889 0 7.052 3.164 7.052 7.052v5.92c0 1.669-.607 3.184-1.58 4.393.973 1.209 1.58 2.725 1.58 4.394v4.242c0 3.889-3.163 7.052-7.052 7.052h-6.895a7.06 7.06 0 0 1-7.053-7.052v-4.483h9.41v3.599c-.021.912.472 1.06 1.113 1.06.64 0 1.11-.123 1.11-1.01M259.81 465.416a6.2 6.2 0 0 0 1.963-4.528v-6.42c0-3.888-3.163-7.052-7.052-7.052h-6.896c-3.888 0-7.052 3.164-7.052 7.052v6.42c0 1.777.75 3.382 1.95 4.514l.378.312a6.2 6.2 0 0 0-1.777 4.346v3.357a7.06 7.06 0 0 0 7.051 7.052h5.796a7.06 7.06 0 0 0 7.052-7.052v-3.357a6.2 6.2 0 0 0-1.822-4.392zm-8.48-4.625c-.725-.006-1.587-.237-1.586-1.327v-3.202c.001-1.517.168-1.698 1.62-1.748.584-.02.993.076 1.217.287.257.241.397.743.417 1.46v3.202c-.024 1.066-.69 1.337-1.669 1.328m.773 9.012v1.633c-.009 1.418-.114 1.712-.828 1.688-.713-.024-.74-.493-.733-1.682v-1.612c-.007-.995.265-1.34.904-1.34.641 0 .648.382.657 1.313M180.895 480.469s-2.413-4.065-5.137-5.806l-.546-.349v-8.021l1.566.536c.785.268 1.563.627 2.23.967v-20.38h8.873v33.053z" style="fill:#231f20;fill-opacity:1;fill-rule:nonzero;stroke:none"></path><path d="M204.79 461.762h-6.012c-3.228 0-5.87 2.641-5.87 5.869v5.786c0 3.228 2.642 5.87 5.87 5.87h6.896c3.228 0 5.869-2.642 5.869-5.87v-18.949c0-3.228-2.64-5.868-5.87-5.868h-6.895c-3.228 0-5.87 2.64-5.87 5.868v3.275h6.748v-1.922c-.042-1.43.401-2.563 2.422-2.563s2.649.591 2.705 1.725v6.384l.006.395m-.006 6.679v3.795c.007 1.036-.88 2.12-2.557 2.12-1.676 0-2.576-.787-2.57-2.365v-3.797c-.042-.986.844-1.528 2.67-1.528 1.822 0 2.45.543 2.457 1.775" style="fill:#fff;fill-opacity:1;fill-rule:nonzero;stroke:none"></path><path d="M234.496 464.505a5.85 5.85 0 0 0 1.696-4.117v-5.92c0-3.228-2.64-5.868-5.87-5.868h-6.894c-3.228 0-5.87 2.64-5.87 5.868v4.065h7.043v-2.466c.005-1.724.449-2.514 2.47-2.514 1.873 0 2.17.938 2.12 2.318v2.71c0 1.824-.69 2.663-2.86 2.663v5.324c2.465.098 2.86.838 2.86 2.07v4.387c0 1.331-.937 1.775-2.465 1.775-1.529 0-2.12-.887-2.125-2.267v-2.416h-7.043v3.3c0 3.228 2.642 5.87 5.87 5.87h6.895c3.228 0 5.869-2.642 5.869-5.87v-4.242c0-1.744-.77-3.315-1.986-4.393zM257.619 465.475a5.05 5.05 0 0 0 2.971-4.587v-6.42c0-3.228-2.64-5.868-5.869-5.868h-6.896c-3.228 0-5.868 2.64-5.868 5.868v6.42a5.05 5.05 0 0 0 2.864 4.537l.389.179a5.05 5.05 0 0 0-2.703 4.456v3.357c0 3.228 2.64 5.87 5.868 5.87h5.796c3.227 0 5.869-2.642 5.869-5.87v-3.357a5.04 5.04 0 0 0-2.673-4.44zm-6.294-12.143c2.167-.076 2.809 1.159 2.857 2.929v3.203c-.002 1.868-1.083 2.52-2.857 2.51-1.627-.008-2.765-.938-2.763-2.51v-3.203c.002-2.116.643-2.855 2.763-2.93m0 14.015c1.675-.039 1.922.7 1.96 2.457v1.639c-.008 2.064-.482 2.865-2.01 2.865-1.676 0-1.91-.752-1.916-2.865v-1.64c.043-1.854.536-2.422 1.965-2.456" style="fill:#fee613;fill-opacity:1;fill-rule:nonzero;stroke:none"></path><path d="M176.396 467.948v5.718c3.006 1.922 5.175 5.62 5.175 5.62h5.127V448.6h-6.508v21.222s-1.922-1.234-3.794-1.874" style="fill:#fff;fill-opacity:1;fill-rule:nonzero;stroke:none"></path><path d="M296.122 222.112c12.127 0 18.13.438 26.62 2.07 7.69 1.48 19.668 6.655 25.88 11.535 3.207 2.52.887 2.662-5.768.444s-14.05-2.514-23.218-1.183c-9.17 1.33-11.978 5.62-23.514 5.62s-14.346-4.29-23.515-5.62-16.563-1.036-23.218 1.183c-6.655 2.218-8.975 2.076-5.767-.444 6.211-4.88 18.19-10.055 25.88-11.535 8.49-1.632 14.493-2.07 26.62-2.07z" style="fill:#3068bb;fill-opacity:1;fill-rule:nonzero;stroke:none"></path><path d="M313.331 230.844a37.26 37.26 0 0 0-17.248-4.21 37.25 37.25 0 0 0-17.23 4.2l-.176.085c2.39 1.624 7.208 3.911 17.406 3.911h.001c10.198 0 15.016-2.287 17.408-3.91z" style="fill:#fff;fill-opacity:1;fill-rule:nonzero;stroke:none"></path><path d="M267.197 240.256a37.5 37.5 0 0 0-5.714 9.448l-.098-.014c-2.229-.316-5.215-.602-8.927-.663-9.022-.148-17.008 3.401-22.923 7.986s-6.803 5.472-7.838 4.732 2.07-6.359 5.768-10.648 8.873-10.351 18.19-13.161c9.316-2.81 16.859-1.775 26.028.591s12.275 6.063 24.4 6.063h.002c12.126 0 15.231-3.697 24.4-6.063 9.17-2.366 16.712-3.401 26.028-.591 9.317 2.81 14.493 8.873 18.19 13.161 3.698 4.29 6.803 9.908 5.768 10.648-1.034.74-1.922-.147-7.838-4.732-5.915-4.585-13.9-8.134-22.922-7.986-3.733.061-6.732.35-8.965.668l-.064.01a37.5 37.5 0 0 0-5.705-9.437l-.03-.04c-9.428 5.71-19.292 7.763-28.863 7.715-9.572.048-19.437-2.005-28.865-7.716zM278.188 297.16v30.961l.001.172h35.789v-31.252a37.25 37.25 0 0 1-17.895 4.554 37.25 37.25 0 0 1-17.897-4.555zM313.98 220.242v-15.49l-.18-.127c-7.196-4.423-13.347-7.735-17.715-9.946-4.366 2.21-10.513 5.519-17.703 9.939l-.194.117v15.507l.001.202c5.412-.462 11.164-.462 17.894-.501h.001c6.737.04 12.495.04 17.912.502l-.017-.203z" style="fill:#3068bb;fill-opacity:1;fill-rule:nonzero;stroke:none"></path><path d="M235.9 239.858v-2.606l-.187.153a208 208 0 0 0-11.376 11.847c-9.59 10.826-17.543 21.478-24.11 32.368l-.112.182v46.282l.003.21h35.788l-.007-.16v-72.353l.012-.21c-1.557.814-3.111 1.746-4.454 2.773-5.028 3.845-9.021 8.281-11.24 5.028s2.071-10.056 7.838-16.415a42 42 0 0 1 7.864-6.777l-.02-.322zM356.268 240.03v-2.779l.168.135a208 208 0 0 1 11.396 11.866c9.551 10.783 17.48 21.394 24.033 32.24l.187.273v46.443l-.003.085h-35.788l.007-.098v-72.44l.007-.175c1.55.812 3.098 1.74 4.435 2.764 5.029 3.845 9.021 8.281 11.24 5.028s-2.07-10.056-7.838-16.415a42 42 0 0 0-7.846-6.766v-.16z" style="fill:#3068bb;fill-opacity:1;fill-rule:nonzero;stroke:none"></path><path d="M196.767 287.61a174 174 0 0 0-11.545 25.54 184 184 0 0 0-4.41 14.078l-.228 1.065h16.28l-.001-.184v-40.67zM395.445 287.688a174.3 174.3 0 0 1 11.502 25.462 184 184 0 0 1 4.44 14.185l.294.958h-16.378l.002-.11V287.44z" style="fill:#fee613;fill-opacity:1;fill-rule:nonzero;stroke:none"></path><path d="M324.132 240.823q.84 1.008 1.606 2.077l.056.072-4.512 3.277-.157-.042-5.161-1.583-.081-.021a52 52 0 0 1-1.599.56l.12.034 6.26 1.92.15.05 5.198 15.998.046.123-5.984 7.956-.098.128-9.503-2.799-.205-.062-5.14-15.823-.027-.127 4.336-5.97.057-.086q-.734.169-1.467.317l-.042.058-3.998 5.502-.114.009h-15.69l-.09-.131c-.468-.643-2.3-3.164-3.868-5.324l-.073-.112q-.745-.15-1.488-.322l.07.094 4.264 5.868.062.1-5.18 15.945-.18.058-9.526 2.785-6.06-8.055.038-.13 5.2-16 .22-.071 6.152-1.887.153-.049a53 53 0 0 1-1.603-.561l-.135.044-5.111 1.568-.142.04-4.361-3.167-.143-.12a37 37 0 0 1 1.66-2.153l.056-.063q-.44-.255-.88-.52l-.02.027c-5.367 6.486-8.596 14.802-8.596 23.86 0 20.667 16.814 37.48 37.481 37.48s37.48-16.813 37.48-37.48c0-9.055-3.226-17.37-8.592-23.854l-.024-.032q-.442.268-.885.524z" style="fill:#231f20;fill-opacity:1;fill-rule:nonzero;stroke:none"></path><path d="m310.34 269.594-13.762 9.998.006.17v9.33l.112.036 9.241 3.173.198.057 13.584-9.868.127-.103-.167-10.075-9.152-2.677zM332.402 263.739h-5.424l-6.175 8.208-.121.162.174 10.44.068.057 4.437 3.226.094-.114a36.3 36.3 0 0 0 7.102-21.603v-.386zM281.666 269.626l-9.07 2.672-.11.034-.166 9.944-.002.12 13.714 9.963.197-.059 9.35-3.21v-9.495l-.14-.098-13.641-9.911zM265.089 263.74l-5.275-.001-.204-.01-.002.386c0 8.084 2.643 15.56 7.11 21.614l.088.1 4.497-3.267.009-.148.17-10.292-.072-.11-6.216-8.264zM295.844 290.062l-9.482 3.256-.182.06-1.722 5.3.075.038a36.3 36.3 0 0 0 11.55 1.874c4.038 0 7.925-.66 11.56-1.877l.065-.034-1.723-5.3-.16-.053-9.742-3.345z" style="fill:#fff;fill-opacity:1;fill-rule:nonzero;stroke:none"></path></g><!-- source: https://football-logos.cc --></svg>