<svg xmlns="http://www.w3.org/2000/svg" xml:space="preserve" viewBox="27.97 215.49 731.21 731.2"><!-- Source: https://football-logos.cc --><path d="M569.379 406.073c0-151.441-122.763-274.202-274.203-274.202S20.974 254.631 20.974 406.073c0 151.438 122.763 274.201 274.202 274.201 151.44 0 274.203-122.763 274.203-274.2" style="fill:#2b43a0;fill-opacity:1;fill-rule:nonzero;stroke:none" transform="matrix(1.33333 0 0 -1.33333 0 1122.52)" data-source="https://football-logos.cc"></path><path d="M105.437 216.334c-50.681 50.678-78.593 118.063-78.593 189.74 0 71.673 27.912 139.057 78.593 189.738 50.68 50.68 118.064 78.592 189.739 78.592s139.06-27.911 189.74-78.592 78.59-118.065 78.59-189.739c0-71.676-27.91-139.061-78.59-189.739-50.68-50.682-118.064-78.59-189.74-78.59-71.675 0-139.059 27.908-189.74 78.59m-68.783 203.6c30.497 2.014 64.165 11.864 95.02 11.864 26.493 0 55.394-13.849 74.661-27.397 17.98-12.64 39.438-29.2 68.04-36.728 22.955-6.04 43.11 2.324 62.617 16.258 25.29 18.063 49.374 30.707 66.233 38.535s43.05 9.934 66.533 7.525c16.941-1.737 54.792-9.031 64.727-11.74 6.418-1.751 14.72-1.993 19.795-1.946l-.011.216c-5.483 138.363-119.383 248.85-259.092 248.85-138.567 0-251.746-108.69-258.936-245.465zm-.776-13.86c0-143.21 116.091-259.297 259.299-259.297 143.209 0 259.298 116.086 259.298 259.296 0 .598-.005 2.153-.005 2.153-12.185.343-42.552.594-74.176-3.825-40.943-5.72-85.5-21.974-109.281-35.824-23.785-13.849-39.74-25.89-39.74-25.89 4.516-5.72 9.032-8.128 13.246-12.346 2.478-2.477 4.122-5.162 5.058-6.956.656-1.256-.585-1.352-1.4-1.043-6.95 2.618-15.872 2.663-25.033.775-10.235-2.107-21.676-10.235-32.815-17.76-11.14-7.527-34.62-11.442-52.383.601-11.475 7.78-15.034 12.669-16.116 15.155-.593 1.363.2 1.992 1.363 2.006 4.576.05 17.205.49 30.408 3.61 16.559 3.915 22.277 5.12 22.277 5.12s-18.363 15.353-73.456 37.63c-48.714 19.7-90.016 33.116-118.014 36.73-22.077 2.849-41.346 2.14-48.509 1.714z" style="fill:#fff;fill-opacity:1;fill-rule:nonzero;stroke:none" transform="matrix(1.33333 0 0 -1.33333 0 1122.52)"></path><path d="M320.358 539.35c-6.855-5.774-9.482-9.71-14.676-23.709-5.193-13.998-10.612-28.449-18.289-47.641s-10.386-21.45-18.74-27.772c-8.355-6.323-14.903-11.064-14.903-11.064s34.772.226 52.835 8.128 44.932 32.514 45.836 59.384c.903 26.868-12.644 48.995-39.966 54.64-25.048 5.176-42.118-11.354-48.635-21.62-1.038-1.636-2.3-3.129-4.03-3.731-4.372-1.523-13.177-4.575-20.942-7.162-10.838-3.613-15.128-4.742-16.483-3.162-1.354 1.581.207 5.665 9.71 15.355 11.515 11.74 32.287 29.578 70.672 29.804s65.027-23.257 73.833-49.448c8.238-24.503-4.063-62.544-31.61-77.897-28.62-15.954-60.738-14-88.51-14h-33.041c-5.676 0-7.376 5.193 3.01 8.354 10.387 3.161 19.87 7 26.644 21.901 6.774 14.903 20.999 53.513 26.192 65.48s12.907 17.897 24.159 25.74c3.105 2.165 5.962 3.96 8.266 5.267 2.46 1.394 5.168 1.732 8.443.265 3.292-1.476 4.515-3.5.225-7.112" style="fill:#fff;fill-opacity:1;fill-rule:nonzero;stroke:none" transform="matrix(1.33333 0 0 -1.33333 0 1122.52)"></path><path d="M483.08 432.38c-12.807 92.325-92.053 163.406-187.904 163.406-94.841 0-173.426-69.593-187.477-160.498l-.2-1.042c-10.066-1.209-20.206-2.94-30.16-4.64-11.992-2.047-23.467-4.006-34.587-5.092l-.351-.053c4.328 60.768 30.068 117.307 73.574 160.812 47.866 47.867 111.508 74.228 179.2 74.228 67.695 0 131.337-26.361 179.201-74.228 44.404-44.403 70.3-102.381 73.816-164.577l-.01-.222c-4.122.184-8.785.65-12.628 1.698-8.23 2.245-33.445 7.19-51.947 10.054zM484.807 400.432c-2.984-102.168-86.742-184.072-189.631-184.072-101.87 0-184.985 80.288-189.518 181.04l-.013.66c-8.047 1.913-15.305 3.285-21.758 4.118-17.28 2.23-32.939 2.233-42.117 1.934l-.013-.311c.583-66.846 26.888-129.599 74.218-176.929 47.866-47.866 111.507-74.226 179.2-74.226 67.695 0 131.338 26.36 179.201 74.226 47.394 47.39 73.704 110.247 74.22 177.191v.211c-13.695.188-38.166-.093-63.756-3.364z" style="fill:#fff;fill-opacity:1;fill-rule:nonzero;stroke:none" transform="matrix(1.33333 0 0 -1.33333 0 1122.52)" data-source="https://football-logos.cc"></path><path d="m147.64 514.555 76.61-117.405.39-.66c-3.732 2.554-7.336 5.115-10.844 7.608l-5.123 3.63c-6.639 4.667-25.233 16.802-47.688 23.51l-.882.236-36.327 41.202.24.51a183.7 183.7 0 0 0 23.209 41.898zM252.262 458.073a240 240 0 0 0-2.889-6.68c-5.189-11.416-11.911-15.516-20.035-18.37l-.459-.142-49.237 115.561-.205.369a184.1 184.1 0 0 0 42.505 25.885l.239-.846 9.732-37.213-.223-.29a142 142 0 0 1-2.518-2.506c-8.89-9.066-13.975-16.08-9.892-20.844 3.058-3.568 8.238-2.222 18.075 1.026l.423.181 14.601-55.842zM263.008 415.361l-6.548.03h-19.72l-.392-.037 14.407-33.814.344-.813c7.389-3.604 15.32-6.729 23.944-9.026l-.2.754L263.64 415.3zM275.536 516.808c5.58 12.857 13.744 19.219 25.564 27.456a122 122 0 0 0 5.757 3.772c-15.385 1.428-26.52-6.164-33.026-12.566l-.27-.326 1.477-19.503zM307.6 417.247c-8.277-1.174-16.534-1.655-24.611-1.837l-.354-.02 3.389-44.707.094-.84c6.024-.387 12.072.256 18.29 1.959l.064.764 3.387 44.706zM316.133 528.778c-2.126-3.242-4.025-7.5-6.64-14.55-4.973-13.404-10.484-28.131-18.326-47.738-4.458-11.146-7.354-16.9-10.7-21.06l-.095-.161.759-10.018.157.014c8.473 1.147 17.247 2.941 23.67 5.75a56 56 0 0 1 4.658 2.318l.229.139 6.48 85.5zM318.483 563.62a92 92 0 0 1-15.76 1.244c-11.742-.07-21.919-1.721-30.762-4.358l-.316-.083-2.057 27.133-.027.582a185 185 0 0 0 25.615 1.777c8.7 0 17.26-.607 25.64-1.782l-.068-.8-1.8-23.748zM343.256 477.944c2.995 6.056 4.887 12.437 5.102 18.868l.047 1.451-5.443-20.823zM381.902 481.385c2.088 11.138 1.626 22.055-1.47 31.262-3.609 10.736-10.357 21.494-19.925 30.431l-.31.274 8.018 30.66.19.686a184.2 184.2 0 0 0 42.49-25.87l-.355-.785-28.898-67.826zM368.323 449.345c-5.855-8.186-13.127-14.845-21.375-19.441-5.986-3.337-12.107-5.918-18.297-7.912l-.222-.132-11.908-45.53.602.324c5.606 2.711 11.41 6.23 17.506 10.585a394 394 0 0 0 10.07 6.958l.436.341 23.687 55.594zM443.396 514.72a183.7 183.7 0 0 0 22.95-41.556l.173-.553-34.066-38.638-.442-.063c-11.818-1.367-22.408-4.001-30.498-7.758a419 419 0 0 1-24.237-12.244l-.378-.209 66.188 101.427zM248.782 242.586a417 417 0 0 0 9.483 2.709s1.054 20.396 2.183 31.46c0 0-5.645-2.143-8.918-2.483 0 0-.452-6.886-1.242-16.596s-1.506-15.09-1.506-15.09M328.26 256.134s6.173.148 6.925-2.862-1.657-4.363-4.215-3.762c-2.559.6-6.624 4.516-6.624 4.516l-1.355-.3.454-8.128s6.098-3.176 11.74-3.012c6.435.187 10.274 4.96 10.386 9.935.114 5.042-4.215 7.826-4.215 7.826 5.721 4.515 5.268 11.892 0 14.753s-13.17.753-13.17.753l-2.184-7.225 1.506-.227s3.048 1.582 5.87.565c2.567-.924 2.822-3.386.792-4.855-1.518-1.093-5.194-.79-5.194-.79zM314.751 243.564h-18.967v1.47s4.065 4.966 7.565 10.047c3.499 5.08 4.537 9.265 2.822 11.514-1.807 2.37-8.016 1.242-9.257-.678h-1.808l1.017 8.242s6.096 4.178 12.871 2.031c6.774-2.143 8.723-6.667 7.112-13.434-1.13-4.741-8.467-12.756-8.467-12.756s1.58-.112 5.193 1.015c3.612 1.129 4.629 1.693 4.629 1.693h1.919zM278.511 241.645l-4.741 3.048s3.726 4.63 4.741 8.128c0 0-5.532-1.242-9.596 1.582-3.988 2.768-5.644 8.242-3.951 13.32 1.693 5.08 5.306 8.694 13.66 8.694 8.355 0 12.306-5.646 12.419-12.08s-2.822-12.643-12.532-22.692m1.806 16.935s1.468 3.387 1.13 7.565c-.32 3.938-2.226 5.643-4.338 5.417-2.114-.225-3.338-2.822-3.226-6.775.111-3.951.339-6.546 6.434-6.207" style="fill:#fff;fill-opacity:1;fill-rule:nonzero;stroke:none" transform="matrix(1.33333 0 0 -1.33333 0 1122.52)"></path><path d="M201.14 224.39c2.807-1.53 7.611-4.266 5.46-8.217-1.993-3.666-7.335-3.164-10.899-3.137 4.118-4.338 7.584-10.667 4.424-16.473-2.046-3.761-5.656-5.745-9.903-5.16-4.153.532-8.03 2.702-11.647 4.672l-11.948 6.5.233.428c3.28-1.229 4.627 1.247 6.073 3.79l10.438 19.184c1.378 2.642 2.879 5.403.066 7.489l.233.431zm-22.946-20.399c-1.682-3.093-1.76-3.916 1.667-5.778 2.475-1.35 5.556-2.717 8.423-2.55 2.845.241 5.43 2.042 6.778 4.518 2.356 4.332.457 9.683-2.401 13.274l-8.664 1.2zm7.02 12.9c3.634-.805 13.029-2.586 15.23 1.46 1.529 2.808-2.496 4.935-4.494 6.023-1.239.674-3.977 2.103-5.183 1.588-.74-.338-1.642-1.885-2.107-2.74zM221.34 184.906c-.762-1.078-1.542-2.204-1.903-3.454-.484-1.665.567-3.1 2.046-3.64l-.135-.47-10.618 3.08.136.47c1.325-.102 2.092.015 3.19.88 1.33 1.082 2.735 2.818 3.746 4.162l14.796 19.687c.651.883 1.355 1.75 1.655 2.79.273.938-.29 1.723-1.129 2.134l.136.47 11.554-3.353-.136-.469c-1.012.012-1.75-.394-2.053-1.433-.18-.627-.162-1.533-.12-2.167l1.471-28.186c.237-2.101.141-3.598 2.072-4.722l-.136-.47-11.813 3.429.135.47c1.995-.129 3.078 1.08 3.607 2.903 1.374 4.734-2.747 12.7-11.08 15.289zm15.315 20.892-8.36-11.115c3.866-1.067 7.414-3.62 9.305-7.214zM279.466 173.401c-.261-3.295-.456-6.43 2.993-6.815l-.04-.486-12.964 1.03.04.487c3.464-.166 3.747 2.693 4.004 5.933l2.07 26.038c-6.59.524-10.863-1.256-13.333-6.332l-.473.198 3.497 10.49c.345-.464.867-.723 1.403-.82.59-.104 22.472-1.786 22.472-1.786 1.027-.082 2.468-.416 3.243.445l1.797-10.903-.5-.124c-1.635 5.403-5.574 7.835-12.164 8.36zM305.68 201.095l13.753 1.824.063-.484c-3.724-.766-4.127-1.859-3.605-8.24l1.118-13.792c.277-3.734.773-6.238 2.656-8.066 1.691-1.633 4.85-2.362 7.696-1.985 3.492.464 6.87 2.607 7.917 4.604 1.166 2.34 1.063 4.35.511 7.283l-2.495 14.266c-1.17 6.349-1.842 7.298-5.847 6.984l-.064.485 11.444 1.518.062-.482c-2.755-1.076-3.294-1.531-2.104-8.042l2.413-14.059c.835-4.644.279-7.451-1.238-9.619-3.097-4.675-8.802-5.76-10.79-6.024-2.74-.364-7.873-.389-10.839 1.35-3.625 2.197-4.466 4.818-4.742 7.733l-1.501 17.076c-.572 6.374-1.156 7.06-4.343 7.187zM359.265 207.45l9.062-23.105c1.13-2.875 2.345-5.832 5.693-4.87l.18-.453-9.84-3.86-.177.456c3.051 1.719 2.092 4.313 1.005 7.088l-7.976 20.33c-1.087 2.773-2.286 5.68-5.693 4.867l-.178.456 12.763 5.005.178-.455c-1.092-.777-.474-1.755.927-2.953l9.956-8.32 2.09 11.592c.45 2.56.556 4.523-1.268 4.273l-.177.454 12.158 4.769.177-.454c-3.032-1.771-2.073-4.365-1.003-7.09l7.973-20.327c1.088-2.777 2.267-5.632 5.694-4.869l.178-.456-12.108-4.749-.178.455c3.091 1.62 2.112 4.262 1.002 7.09l-9.2 23.456-4.023-22.24zM422.911 211.108c1.606-2.513 3.343-5.131 6.528-3.675l.263-.412-10.96-7.002-.262.412c2.69 2.231 1.217 4.635-.387 7.147l-11.759 18.402c-1.605 2.513-3.342 5.134-6.527 3.675l-.263.412 10.958 7.002.263-.412c-2.63-2.324-1.187-4.681.417-7.191zM119.551 519.938c2.56-1.728 5.197-3.44 7.481-.732l.36-.243-7.304-10.827-.405.273c1.536 3.148-.77 4.769-3.195 6.405l-18.105 12.214c-2.426 1.636-5.062 3.35-7.45.777l-.405.272 13.062 19.363c.545.808 1.347 1.706 1.021 2.774l10.619-4.22-.153-.42c-3.796 1.057-10.118-.561-14.36-6.851-2.667-3.952-1.92-4.784 1.135-6.845l2.38-1.606 3.243 4.807c1.394 2.067 2.32 3.73-.121 5.442l.138.494 11.246-5.036-.154-.42c-6.317 1.778-8.028-.467-11.3-5.319l-.94-1.392zM166.28 561.812c-.578-.179-1.011-.667-1.405-1.118l-4.519-4.762c-4.116-3.93-9.055-6.995-14.814-7.399-6.027-.434-11.604 2.034-15.72 6.346-3.256 3.41-5.333 8.019-4.8 12.798.614 5.007 3.352 8.968 6.88 12.335 1.136 1.085 2.307 1.978 3.322 2.798 1.053.78 1.989 1.448 2.655 2.084.627.599 1.068 1.393.781 2.243l8.875-5.687-.202-.417c-4.706 2.026-9.918.345-13.487-3.06-2.587-2.47-4.103-5.04-3.92-8.762.185-3.569 1.868-6.981 4.338-9.568 6.51-6.82 16.973-8.52 24.146-1.673 4.155 3.966 4.62 9.13 2.826 14.384l.542.218zM242.441 638.173c5.573 1.15 10.63 1.31 15.802-1.496 4.799-2.606 8.379-7.345 9.486-12.705.974-4.723.071-10-3.008-13.846-3.47-4.368-7.905-5.395-13.106-6.468l-14.594-3.013-.1.477c3.288 1.232 2.782 3.95 2.19 6.816l-4.415 21.387c-.603 2.919-1.291 5.986-4.787 5.763l-.099.477zm1.95-26.324c.964-4.67 1.307-6.868 6.879-5.717 8.385 1.73 11.876 7.874 10.166 16.153-1.818 8.81-8.62 15.484-17.854 13.578-4.245-.877-3.542-2.945-2.83-6.394zM298.44 615.457c-.003-2.98.046-6.123 3.514-6.616v-.488l-13.006.018v.488c3.47.429 3.527 3.247 3.531 6.226l.03 21.839c.003 2.98-.046 6.124-3.514 6.616v.488l13.006-.017v-.488c-3.468-.538-3.527-3.301-3.53-6.282zM352.048 630.058c.627 3.024 1.214 6.113-2.21 7.212l.1.477 10.45-2.172-.098-.477c-3.495.228-4.122-2.52-4.717-5.385l-4.441-21.382c-.616-2.972-1.193-6.007 2.104-7.19l-.1-.477-10.45 2.171.1.477c3.525-.345 4.204 2.393 4.82 5.364 0 0 1.244 5.719 1.232 6.994-.074 1.51-1.171 2.623-2.045 3.746l-13.867 17.437-4.927-23.718c-.627-3.024-1.225-6.165 2.104-7.189l-.098-.477-10.347 2.15.1.477c3.495-.229 4.12 2.52 4.715 5.384l4.442 21.383c.606 2.918 1.191 6.007-2.104 7.19l.098.477 13.955-2.899-.1-.477c-1.784.204-1.568-.892-.032-2.816l10.004-12.593zM379.267 598.236c-.942-.925-1.907-1.9-2.482-3.066-.767-1.554.016-3.15 1.377-3.943l-.217-.437-9.91 4.895.215.437c1.286-.333 2.063-.353 3.294.307 1.499.831 3.188 2.294 4.419 3.44l18.021 16.786c.795.754 1.641 1.486 2.12 2.457.433.875.016 1.745-.738 2.299l.216.437 10.786-5.327-.215-.437c-.996.19-1.794-.083-2.273-1.053-.288-.583-.43-1.48-.5-2.112l-3.497-28.008c-.136-2.109-.492-3.565 1.21-5.01l-.213-.438-11.03 5.447.217.438c1.94-.475 3.22.525 4.06 2.225 2.183 4.422-.477 12.988-8.227 16.997zm18.742 17.88-10.18-9.477c3.618-1.727 6.664-4.863 7.895-8.734zM439.334 590.985l-16.302-18.715c-2.03-2.33-4.088-4.775-1.686-7.299l-.322-.368-7.967 6.941.32.368c2.936-1.91 4.793.138 6.75 2.385l14.344 16.468c1.958 2.247 3.981 4.652 1.686 7.298l.32.369 10.34-9.006-.322-.368c-1.194.61-1.777-.39-2.191-2.186l-2.777-12.675 11.244 3.502c2.48.785 4.268 1.6 3.204 3.101l.32.368 9.85-8.578-.322-.368c-2.97 1.87-4.826-.179-6.749-2.385L444.73 553.37c-1.958-2.248-3.945-4.613-1.686-7.299l-.32-.368-9.807 8.543.32.367c2.864-1.991 4.756.098 6.75 2.386l16.551 19-21.586-6.71zM460.693 530.265c.866 4.908 3.937 9.513 8.06 12.216 9.065 5.942 20.196 3.196 26.048-5.733 6.031-9.2 4.034-20.487-5.301-26.607-8.839-5.793-20.083-2.279-25.668 6.241-2.704 4.125-4.003 8.974-3.139 13.883m6.18-13.38c4.158-6.344 11.855-6.03 17.702-2.197 8.068 5.289 11.374 15.167 7.188 21.558-4.25 6.48-11.967 5.699-17.813 1.867-6.753-4.427-12.04-13.66-7.078-21.228" style="fill:#2b43a0;fill-opacity:1;fill-rule:nonzero;stroke:none" transform="matrix(1.33333 0 0 -1.33333 0 1122.52)" data-source="https://football-logos.cc"></path><!-- source: https://football-logos.cc --></svg>