<svg xmlns="http://www.w3.org/2000/svg" xmlns:xlink="http://www.w3.org/1999/xlink" xml:space="preserve" id="Layer_1" width="327.408" height="289.66" x="0" y="0" version="1.1" viewBox="0 0 124.493 110.5"><!-- Source: https://football-logos.cc --><style id="style1" type="text/css" data-source="https://football-logos.cc">.st1{fill:#fff}</style><g id="XMLID_36_" transform="translate(-1.307 -1.1)" data-source="https://football-logos.cc"><g id="XMLID_47_"><defs id="defs1"><path id="XMLID_48_" d="M91.9 56.6q-.3 0-.3.3v.8c0 1.2.7 1.8 1.3 2.2.6.5 1 .8 1 1.7v2.5c0 .3-.3.6-.6.6h-1.1c-.3 0-.6-.3-.6-.6v-2c0-.1-.1-.3-.3-.3h-.7q-.3 0-.3.3v2c0 1 .8 1.8 1.8 1.8h1.1c1 0 1.8-.8 1.8-1.8v-2.5c0-1.4-.8-2.1-1.4-2.6s-.9-.7-.9-1.3v-.9c0-.1-.1-.3-.3-.3h-.5zm-17.7 0c-1 0-1.8.8-1.8 1.8v5.8c0 1 .8 1.8 1.8 1.8h1.9q.3 0 .3-.3v-.6q0-.3-.3-.3h-1.9c-.3 0-.6-.3-.6-.6v-5.8c0-.3.3-.6.6-.6h1.1c.3 0 .6.3.6.6v3.1q0 .3.3.3h.6q.3 0 .3-.3v-3.1c0-1-.8-1.8-1.8-1.8zm5.8 0c-1 0-1.8.8-1.8 1.8v7.3q0 .3.3.3h.6q.3 0 .3-.3v-7.3c0-.3.3-.6.6-.6h1c.3 0 .6.3.6.6v7.3q0 .3.3.3h.6q.3 0 .3-.3v-7.3c0-1-.8-1.8-1.8-1.8zm5.4 7.6v-2.8c0-.3.3-.6.6-.6h1.4c.3 0 .6.3.6.6v2.8c0 .3-.3.6-.6.6H86c-.4 0-.6-.3-.6-.6m.9-7.6c-.9 0-1.6.7-1.6 1.6v.4c0 .1.1.2.2.2h.8c.1 0 .2-.1.2-.2v-.4c0-.2.2-.4.4-.4h.5c.2 0 .4.2.4.4v.6c0 .4-.4.8-.8.8H86c-1 0-1.8.8-1.8 1.8v2.9c0 1 .8 1.7 1.8 1.7h1.5c1 0 1.8-.8 1.8-1.8v-2.9c0-.9-.4-1.4-1.2-1.6.2-.2.4-.6.4-1v-.5c0-.9-.7-1.6-1.6-1.6zM1.1 52.9c0 7.2 2.5 13.8 6.7 19C4.7 65.9 5 57.8 5 57.8s.9-2.8 3.7-7.1c-3.1-5.2-4.8-10.2-4.8-10.2-1.8 3.8-2.8 8-2.8 12.4m47.7 9.4c0-.3.1-7.5-1.5-12l.6-.3s.1 0 .1-.1c1.6-.7 5.4-2.2 12.3-2.2.3 1.8.5 3.6.5 5.4 0 6.4-1.7 12.4-5.2 17.3v-.1c.8-6.1-.7-11.6-.8-12.1l-.1.1c-2.8 2.1-5.9 4-5.9 4m-14.3-39c9.8 1 18.2 6.8 22.8 15.1l-.3-.3c-1.4-1.3-6.7-5.9-10.4-7.5-2.7 0-4.9.3-4.9.3s-2.9-4.3-7.2-7.6m-11.3.9c-.6.2-1.5.4-2.3.8-2.8 1-5.4 2.5-7.7 4.2-2.3 1.8-4.4 3.8-6.1 6.2.2-.2 6-5.8 8.9-6.7-.2.3-.8 1.1-.9 1.1 2.4-1.1 4.9-1.8 7-2.3h.2c-.5 2-.8 3.3-1.3 5.3h-.2l-3.6.6s-1.4 4.2-1.5 6.4c1.2-3.3 2.3-5.3 2.3-5.3h3.5c3.8 0 9.8.3 14.6 1.4 4.2 4.4 6.5 9.4 6.5 9.4h-.2c-1.2.1-8.4.7-15.6 2.2-.4 9.6.5 16.8.5 16.8l-.2-.2c-1-.7-5.2-3.8-9-7.9l-.7-.7-1.8-2.4s-.5-4.6-.5-8.7c-.9 3.7-1.1 8-1.1 9.6.6 1.3 2 2.9 3 4.1.1.1.1.2.2.2-.5 6-.6 10.6-.3 16.9l-.2.1-4.3 1.5s3.9 2.7 6.6 3.4c-1.2-.5-3.9-2.7-3.9-2.7l1.7-.5.2-.1c.2-.1.5-.2.7-.2 3.1-1 8-2.7 14.2-5.2 0 0 5.1 2.7 12.3 4.3-.1 0-.2.1-.2.1-7.6 2.7-12 3.1-12 3.1s.1 0 .2.1c1.1.3 6.3 1.5 12.4.7-.1 0-.2.1-.3.1-4 2-8.5 3-13.3 3-3.3 0-6.6-.6-9.6-1.6-.2-.1-.4-.1-.5-.2l.3.3c.4.5.9 1 1.4 1.4 7 6.8 18.5 13.6 29 18.9 11.5 5.8 24 9.9 24.1 9.9-4.1-21.8-7-46.2-7.7-57.5 16.6-1.2 58-.6 58-.6-4.4-13.4-18.6-35.5-26.5-44.7-3.2-.7-6.2-1.4-9.5-2-26.5-4.5-59-5.7-59-5.7-2.9 6.6-5.5 14.4-7.8 23.1"></path></defs><clipPath id="XMLID_103_"><use xlink:href="#XMLID_48_" id="use1" style="overflow:visible"></use></clipPath><linearGradient id="XMLID_104_" x1="-259.275" x2="-258.885" y1="643.287" y2="643.287" gradientTransform="scale(352.6953 -352.6953)rotate(-43.614 -933.552 -2.45)" gradientUnits="userSpaceOnUse"><stop id="stop1" offset="0" style="stop-color:#2b388f"></stop><stop id="stop2" offset=".295" style="stop-color:#2b368b"></stop><stop id="stop3" offset=".59" style="stop-color:#29307f"></stop><stop id="stop4" offset=".884" style="stop-color:#27276b"></stop><stop id="stop5" offset="1" style="stop-color:#262261"></stop></linearGradient><path id="XMLID_58_" d="M66.5 174-54.1 59.1 60.5-61.2 181.2 53.7z" style="clip-path:url(#XMLID_103_);fill:url(#XMLID_104_)"></path></g><path id="XMLID_46_" d="M92.6 41.7h-.7c-1 0-1.8.8-1.8 1.8v.5q0 .3.3.3h.6q.3 0 .3-.3v-.5c0-.3.3-.6.6-.6h.7c.3 0 .6.3.6.6v.6c0 .3-.3.6-.6.6h-.4q-.3 0-.3.3v.6q0 .3.3.3h.4c.3 0 .6.3.6.6v2.7c0 .3-.3.6-.6.6h-1.1c-.3 0-.6-.3-.6-.6v-1.9q0-.3-.3-.3H90q-.3 0-.3.3v1.9c0 1 .8 1.8 1.8 1.8h1.1c1 0 1.8-.8 1.8-1.8v-2.7c0-.5-.2-.9-.5-1.2.3-.3.5-.7.5-1.2v-.6c.1-1-.8-1.8-1.8-1.8" class="st1"></path><path id="XMLID_45_" d="M73.6 41.7h-.9c-1 0-1.8.8-1.8 1.8v.6c0 .1.1.2.2.2h.8c.1 0 .2-.1.2-.2v-.6c0-.3.3-.6.6-.6h.9c.3 0 .6.3.6.6v5.8c0 .3-.3.6-.6.6h-1.1c-.3 0-.6-.3-.6-.6v-2c0-.1-.1-.2-.2-.2H71c-.1 0-.2.1-.2.2v2c0 1 .8 1.8 1.8 1.8h1.1c1 0 1.8-.8 1.8-1.8v-5.8c-.1-1-.9-1.8-1.9-1.8" class="st1"></path><path id="XMLID_44_" d="M115.9 41.7h-1.1c-1 0-1.8.8-1.8 1.8v7.3q0 .3.3.3h.6q.3 0 .3-.3v-7.3c0-.3.3-.6.6-.6h1.1c.3 0 .6.3.6.6v7.3q0 .3.3.3h.6q.3 0 .3-.3v-7.3c0-1-.8-1.8-1.8-1.8" class="st1"></path><path id="XMLID_43_" d="M104.3 41.7h-.1c-.5 0-.9.2-1.2.5-.3-.3-.7-.5-1.2-.5h-.9q-.3 0-.3.3v.6q0 .3.3.3h.9c.3 0 .6.3.6.6v1.2q0 .3.3.3h.6q.3 0 .3-.3v-1.2c0-.3.3-.6.6-.6h.1c.3 0 .6.3.6.6v5.8c0 .3-.3.6-.6.6h-1.1c-.3 0-.6-.3-.6-.6v-1.9q0-.3-.3-.3h-.6q-.3 0-.3.3v1.9c0 1 .8 1.8 1.8 1.8h1.1c1 0 1.8-.8 1.8-1.8v-5.8c0-1-.8-1.8-1.8-1.8" class="st1"></path><path id="XMLID_40_" d="M98.5 45.1h-1.1c-.2 0-.4 0-.6.1v-1.7c0-.3.3-.6.6-.6h2q.3 0 .3-.3V42q0-.3-.3-.3h-2c-1 0-1.8.8-1.8 1.8v5.7c0 1 .8 1.8 1.8 1.8h1.1c1 0 1.8-.8 1.8-1.8v-2.4c0-.9-.8-1.7-1.8-1.7m.6 4.2c0 .3-.3.6-.6.6h-1.1c-.3 0-.6-.3-.6-.6V47c0-.3.3-.6.6-.6h1.1c.3 0 .6.3.6.6z" class="st1"></path><path id="XMLID_39_" d="M86.8 41.7h-.1c-.5 0-.9.2-1.2.5-.3-.3-.7-.5-1.2-.5h-.1c-1 0-1.8.8-1.8 1.8v7.2q0 .3.3.3h.6q.3 0 .3-.3v-7.2c0-.3.3-.6.6-.6h.1c.3 0 .6.3.6.6v3.3q0 .3.3.3h.6q.3 0 .3-.3v-3.3c0-.3.3-.6.6-.6h.1c.3 0 .6.3.6.6v7.2q0 .3.3.3h.6q.3 0 .3-.3v-7.2c.1-1-.8-1.8-1.8-1.8" class="st1"></path><path id="XMLID_38_" d="M110.1 41.7H109c-1 0-1.8.8-1.8 1.8v5.8c0 1 .8 1.8 1.8 1.8h1.8q.3 0 .3-.3v-.6q0-.3-.3-.3H109c-.3 0-.6-.3-.6-.6v-5.8c0-.3.3-.6.6-.6h1.1c.3 0 .6.3.6.6v3.1q0 .3.3.3h.6q.3 0 .3-.3v-3.1c0-1-.8-1.8-1.8-1.8" class="st1"></path><path id="XMLID_37_" d="M79.4 45.1q-.15 0 0 0h-1.1c-.2 0-.4 0-.6.1v-1.7c0-.3.3-.6.6-.6h2.1c.2 0 .4-.2.4-.4V42c0-.2-.2-.4-.4-.4h-2.1c-1 0-1.8.8-1.8 1.8v7.2c0 .2.2.4.4.4h.5c.2 0 .4-.2.4-.4v-3.8c0-.3.3-.6.6-.6h1.1c.3 0 .6.3.6.6v3.8c0 .2.2.4.4.4h.5c.2 0 .4-.2.4-.4v-3.8c-.2-.9-1-1.7-2-1.7" class="st1"></path></g><!-- source: https://football-logos.cc --></svg>