<svg xmlns="http://www.w3.org/2000/svg" viewBox="9.31 97.32 576.66 647.25"><!-- Source: https://football-logos.cc --><path d="m523.405 220.774-31.971-34.891-6.484 5.941 31.971 34.891zM507.295 235.344l-5.555-6.062-10.796 9.892-26.417-28.829-6.38 5.846 31.972 34.891zM416.619 275.372c3.364 3.672 2.093 8.757-2.497 12.916l-3.081 2.791-10.342-11.286 3.55-3.252c5.706-5.23 9.523-4.275 12.37-1.169m28.403 16.842-21.4-3.997c4.551-6.201 4.094-13.273-.818-18.73-7.04-7.823-15.835-6.307-23.338.48l-10.563 9.551 31.938 34.854 6.275-5.75-12.744-13.907 22.579 4.895zM398.505 312.71l-20.888-22.726-6.275 5.75 20.378 22.239c4.97 5.424 4.262 8.78.888 11.872-3.473 3.183-6.753 2.253-11.111-2.504l-20.379-22.239-6.38 5.846 21.079 22.933c8.12 8.835 16.098 7.665 22.74 2.071 6.478-5.455 8.67-13.724-.052-23.243M360.902 337.054l-.777-.847-22.293 20.428 5.521 6.025 14.765-13.53c1.553 5.68.649 11.772-4.187 16.157-6.57 5.956-16.737 4.148-21.871-1.386-6.036-6.506-6.307-16.211.314-22.279 4.267-3.91 7.8-4.462 12.842-3.541l7.361-6.745c-8.118-4.079-18.102-3.134-26.09 4.186-10.718 9.821-10.359 24.254-1.214 34.234 9.317 10.168 24.71 10.15 33.864 2.254 11.824-10.199 10.435-25.494 1.765-34.956M331.144 396.372l-31.877-34.77-8.363 7.52 13.188 32.786-31.463-16.04-8.394 7.644 31.785 34.965 6.16-5.66-22.973-24.794 32.096 16.53 4.721-4.327-13.738-33.829 22.824 25.567zM261.467 430.989l-7.472 6.751-5.22-13.359zm27.313 4.138-45.444-22.476-5.762 5.026 18.208 47.624 6.933-6.226-5.318-13.266 11.805-10.818 12.774 6.435zM241.339 460.223c-2.929-3.243-7.328-7.835-17.085-4.214-3.705 1.375-4.073 2.277-6.203 2.89-2.44.702-4.098-.249-5.262-1.52-1.898-2.071-2.125-5.025.27-7.379 2.209-2.17 5.366-1.03 7.722 1.142l5.999-5.497c-5.955-5.801-13.029-6.982-18.979-1.621-6.176 5.564-6.116 13.34-.6 19.498 3.961 4.423 10.11 5.762 16.332 2.345 3.505-1.925 5.309-2.58 7.143-2.531 1.797.047 2.821.867 4.13 2.265 2.795 2.981 2.677 6.418-.59 9.352-3.052 2.74-6.656 1.222-9.631-1.74l-5.723 5.309c6.366 6.862 14.771 8.222 21.307 2.407 7.178-6.387 5.803-15.575 1.17-20.706M190.957 506.257l-7.471 6.879c.042 5.607-1.589 9.32-5.133 12.523-5.155 4.66-15.545 4.664-21.497-1.832-5.996-6.543-5.848-16.656.24-22.044 4.334-3.836 7.788-4.371 13.073-3.584l7.48-6.68c-9.394-3.776-17.556-3.945-26.395 4.186-10.352 9.523-9.895 24.264-.88 34.102 9.187 10.026 23.912 11.105 34.001 1.987 8.305-7.505 9.528-16.545 6.582-25.537M154.81 557.76l-6.574-7.175-6.181 5.664 6.574 7.174zM118.168 538.108l-5.555-6.062-18.03 16.521 31.877 34.787 6.38-5.846-13.262-14.472 11.626-10.654-5.458-5.957-11.627 10.654-7.6-8.296zM217.926 499.925l-6.574-7.175-6.181 5.664 6.574 7.175zM455.308 253.367l-7.473 6.752-5.22-13.36zm27.312 4.138-45.444-22.476-5.762 5.026 18.208 47.625 6.933-6.226-5.318-13.267 11.805-10.818 12.774 6.435zM348.358 486.191l-.011 5.332 3.472-.008.002 17.14c0 .756-.618 1.46-1.119 2.126h12.038c-.5-.54-1.164-1.36-1.164-2.187l-.003-26.005h-2.957zM387.635 488.572l-.004 6.458c0 .567.691 1.131 1.259 1.131h4.64c.396 0 1.074-.495 1.074-.89l.002-6.683c0-.545-.567-1.179-1.11-1.18l-4.672-.006c-.433-.001-1.19.52-1.19 1.17zm5.155 12.297c.827 0 1.548-.94 1.817-1.693v5.315c0 .62-.726 1.377-1.412 1.376l-12.08-.016c-.977-.001-1.898-.528-2.72-1.084l.796 6.03 19.58-.015c2.6-.002 5.74-2.323 5.747-4.922l.053-17.75c.008-2.736-3.31-5.521-6.044-5.52l-15.603.002c-2.428 0-5.102 2.773-5.102 5.2v7.9c0 2.417 2.663 5.18 5.081 5.18z" style="fill:#fff;fill-rule:evenodd" data-source="https://football-logos.cc"></path><path d="m432.046 482.594-15.21 15.01-.011 6.742h16.687v4.203c0 .812-.632 1.761-.977 2.234l11.608.001c-.543-.46-1.257-1.47-1.253-2.333l.02-4.103h4.17l.004-6.855-4.176-.004.002-14.9zm1.473 5.204-9.844 9.693 9.834-.014zM468.96 492.88v-5.473h13.508c1.159 0 2.226.645 3.339.968l-.933-5.775-25.06-.008-.02 16.36c.574-.737 2.013-1.467 3.177-1.467l11.034.005c.857 0 1.672.775 1.672 1.63l-.001 5.57c0 .57-.818 1.168-1.389 1.168l-11.967-.015c-1.104 0-2.13-.637-3.052-1.19l.918 6.131h20.268c2.665 0 4.828-2.585 4.838-4.875l.038-8.362c.01-2.324-1.747-4.678-4.595-4.676z" style="fill:#f2863a;fill-rule:evenodd"></path><path d="m274.755 168.045-.003-2.707 42.505.125v2.12c0 2.437-.093 4.875-.39 7.296-1.625 13.2-9.298 17.907-21.774 19.008-6.352.56-12.603.886-18.98.946l-3.184.03.96-2.373a4.38 4.38 0 0 1-3.03 1.215h-35.054v147.408a4.4 4.4 0 0 1-4.394 4.393h-25.39a4.4 4.4 0 0 1-4.394-4.393V193.706H166.72c-.567 0-1.109-.109-1.607-.305l.669.983-3.397.466c-1.45.2-3.126 1.213-4.172 2.197-1.68 1.579-2.53 3.59-2.544 5.896l-.148 24.455c-.028 4.621 2.24 6.49 6.399 7.767 7.593 2.33 16.317 3.18 24.224 3.766 3.61.268 7.223.473 10.836.675l2.008.112-.004 27.29-2.187-.063c-12.175-.351-24.493.317-36.61-1.063-7.691-.876-17.177-1.918-23.455-6.843-7.924-6.215-9.162-17.226-9.162-26.6v-35.063c0-9.651 2.508-18.766 10.796-24.49 6.445-4.45 14.794-5.794 22.417-6.811l2.406-.321.001 1.708a4.4 4.4 0 0 1 3.53-1.783h104.14c1.69 0 3.162.961 3.897 2.366zM138.03 312.457h60.353v28.552H151.21c-7.254 0-13.182-5.928-13.182-13.181zm117.913-45.167-17.38-.001-.12-27.88 2.17.035c6.181.102 12.377.38 18.551.699 6.155.317 12.308.689 18.456 1.106 4.907.333 9.774 1.756 13.924 4.43 7.762 5.004 11.248 13.12 11.278 22.178l.15 44.307c.018 5.216-1.232 10.192-4.17 14.542-7.989 11.828-25.133 14.54-38.313 14.566l-21.739.041.023-28.462 23.394-.169c3.382-.024 8.072-.288 10.79-2.562 2.41-2.014 2.929-5.331 2.939-8.3l.072-22.563c.007-2.266-.472-4.44-1.939-6.22-3.62-4.393-12.768-5.273-18.086-5.747z" style="fill:#fff;fill-rule:evenodd"></path><path d="M140.155 314.583h56.1v24.3H151.21c-6.08 0-11.055-4.975-11.055-11.055zm20.908-146.4.009 20.096c0 2.377.666 3.94 1.023 4.465-2.876.395-8.513 3.553-8.553 10.185l-.149 24.456c-.03 5.977 3.307 8.403 7.902 9.812 10.022 3.075 23.464 3.855 35.565 4.531l-.004 23.092c-12.144-.35-24.707.285-36.431-1.05-19.051-2.17-30.731-4.728-30.731-31.332v-35.062c0-23.975 16.236-27.174 31.368-29.194zm5.656-.379h104.14a2.274 2.274 0 0 1 2.268 2.268v19.24a2.274 2.274 0 0 1-2.268 2.267h-37.18v149.534a2.274 2.274 0 0 1-2.268 2.267h-25.39a2.274 2.274 0 0 1-2.268-2.267V191.58h-37.034a2.274 2.274 0 0 1-2.268-2.268v-19.24a2.274 2.274 0 0 1 2.268-2.267m110.161-.334 38.25.112c0 2.346-.087 4.699-.374 7.037-1.536 12.484-8.79 16.174-19.85 17.15-6.85.604-12.117.875-18.813.938.858-2.123.813-3.871.811-5.806zm-36.303 74.1c10.675.175 26.242 1.077 36.899 1.8 11.985.812 23.165 8.524 23.22 24.494l.15 44.307c.062 18.377-16.656 26.93-40.362 26.974l-19.607.038.019-24.222 21.285-.153c9.169-.066 15.805-2.172 15.84-12.982l.072-22.563c.035-10.744-9.75-13.003-22.057-14.1H240.68zM506.067 157.102 62.175 564.061c15.005 19.254 34.503 35.191 56.222 49.676l439.996-404.309Zm-250.285 308.2-18.208-47.625 5.762-5.026 45.444 22.476-6.804 6.299-12.774-6.435-11.805 10.817 5.318 13.267zm40.238-36.825-31.785-34.965 8.394-7.644 31.463 16.04-13.188-32.786 8.363-7.52 31.877 34.77-6.034 5.592-22.823-25.567 13.737 33.83-4.72 4.326-32.097-16.53 22.974 24.794zm29.253-58.721c-9.144-9.98-9.504-24.413 1.214-34.233 7.988-7.32 17.972-8.266 26.09-4.188l-7.361 6.746c-5.043-.92-8.575-.369-12.842 3.541-6.621 6.068-6.35 15.773-.314 22.279 5.134 5.534 15.3 7.342 21.87 1.386 4.837-4.385 5.74-10.478 4.188-16.156l-14.765 13.529-5.52-6.025 22.292-20.428.776.847c8.67 9.462 10.06 24.757-1.764 34.956-9.154 7.896-24.547 7.914-33.864-2.254m50.544-35.875-21.078-22.933 6.38-5.846 20.377 22.239c4.36 4.757 7.639 5.687 11.112 2.504 3.374-3.091 4.082-6.448-.888-11.872l-20.378-22.239 6.275-5.75 20.888 22.725c8.722 9.52 6.53 17.788.052 23.243-6.642 5.593-14.62 6.764-22.74-2.071m45.024-19.509-31.938-34.854 10.562-9.552c7.504-6.785 16.299-8.302 23.339-.48 4.911 5.457 5.37 12.53.818 18.731l21.4 3.997-8.071 7.396-22.579-4.896 12.744 13.908zm28.78-26.692-18.207-47.626 5.762-5.025 45.445 22.476-6.804 6.299-12.775-6.435-11.805 10.818 5.318 13.267zM224.256 456.01c9.756-3.621 14.155.97 17.084 4.213 4.633 5.131 6.008 14.32-1.17 20.706-6.536 5.815-14.941 4.455-21.307-2.407l5.723-5.308c2.974 2.96 6.579 4.48 9.631 1.739 3.267-2.934 3.385-6.37.59-9.352-1.309-1.397-2.333-2.218-4.13-2.265-1.835-.049-3.638.606-7.143 2.53-6.222 3.418-12.37 2.079-16.332-2.344-5.517-6.158-5.576-13.934.6-19.499 5.95-5.36 13.024-4.18 18.979 1.622l-6 5.497c-2.355-2.172-5.513-3.311-7.72-1.142-2.396 2.354-2.17 5.308-.272 7.379 1.165 1.27 2.823 2.222 5.263 1.52 2.13-.613 2.497-1.515 6.203-2.89m-12.904 36.74 6.575 7.175-6.181 5.664-6.575-7.175zm-60.097 2.955c8.84-8.131 17.002-7.962 26.395-4.186l-7.48 6.68c-5.285-.787-8.739-.252-13.073 3.584-6.089 5.388-6.236 15.501-.24 22.044 5.952 6.496 16.342 6.493 21.497 1.832 3.544-3.204 5.175-6.916 5.133-12.523l7.471-6.878c2.946 8.991 1.723 18.031-6.582 25.536-10.09 9.118-24.814 8.04-34.001-1.987-9.015-9.838-9.472-24.58.88-34.102m-38.64 36.342 5.554 6.061-11.65 10.675 7.601 8.295 11.626-10.653 5.46 5.957-11.627 10.654 13.261 14.472-6.38 5.846-31.875-34.787zm35.622 18.538 6.574 7.175-6.18 5.664-6.575-7.175zM490.12 251.082l-31.972-34.89 6.38-5.847 26.416 28.83 10.796-9.893 5.555 6.062zm26.801-24.367-31.972-34.891 6.484-5.941 31.972 34.89z" style="fill:#4ba85a;fill-rule:evenodd"></path><path d="m261.467 430.988-12.692-6.607 5.22 13.36zM442.615 246.76l5.22 13.358 7.473-6.751zM414.122 288.287c4.59-4.158 5.861-9.243 2.496-12.915-2.846-3.106-6.663-4.06-12.37 1.169l-3.55 3.252 10.343 11.286z" style="fill:#4ba85a;fill-rule:evenodd"></path><path d="M210.486 548.21c-1.07 9.95-1.605 19.524-.45 29.55 15.587-4.982 31.286-8.13 49.2-6.825 9.828-14.988 22.297-26.963 39.675-32.025-10.21-5.357-20.637-10.451-31.35-13.8M380.025 549.783c-13.052-8.687-28.189-7.652-43.65-5.1 9.082 11.403 16.145 27.42 22.425 45.225 16.72 2.442 32.534 7.101 44.625 17.7 4.29-9.051 2.55-25.087.037-36.262" style="fill:none"></path><path d="M404.286 605.472a105.3 105.3 0 0 1 8.266 20.15 101.2 101.2 0 0 1 3.85 21.655c4.25-2.214 8.502-4.44 12.743-6.688q.077.838.142 1.68l2.54-.19q-.107-1.397-.246-2.783c-2.508-24.992-12.551-47.323-27.622-65.624a135 135 0 0 0-15.764-16.141 141 141 0 0 0-15.16-11.442c-23.094-15.12-50.915-23.847-79.637-24.09-11.269-.095-21.786.673-31.686 2.617-9.935 1.95-19.266 5.086-28.13 9.72-8.402 4.394-16.21 9.81-23.326 16.09-9.135 8.061-17.13 17.545-23.778 28.113-11.47 18.234-18.938 39.702-21.343 62.663q-.116 1.106-.216 2.217l2.532.22q.05-.582.109-1.162c2.246-22.943 9.632-44.4 21.07-62.583 6.025-9.576 13.174-18.242 21.286-25.736 7.499-6.927 15.822-12.852 24.842-17.569 8.624-4.509 17.728-7.565 27.442-9.472l.292-.057c-19.697 5.192-37.608 14.783-52.621 27.657-.549 6.916-.706 13.736-.07 20.749q.916-1.454 1.856-2.902l2.133 1.385q-1.065 1.642-2.1 3.29c14.723-4.578 29.614-7.438 46.44-6.38q-.708-2.007-1.392-4.109l2.42-.787a175 175 0 0 0 1.14 3.381c9.02-13.295 20.244-24.036 35.331-29.377q-1.757-.015-3.518.021l-.05-2.54q2.007-.042 4.009-.018c-8.564-4.424-17.282-8.568-26.196-11.57 7.468-.991 15.284-1.39 23.504-1.32 25.16.212 49.617 7.05 70.706 19.058a140 140 0 0 1 22.447 15.856c6.782 5.88 12.951 12.404 18.368 19.498 1.396 9.074 1.831 19.355-.613 26.52" style="fill:#fff;fill-rule:evenodd"></path><path d="M370.761 545.25c-10.73-3.601-22.462-2.535-34.386-.567 9.082 11.403 16.145 27.42 22.425 45.225 16.72 2.442 32.534 7.101 44.625 17.7 3.467-7.314 2.996-19.189 1.362-29.374a134 134 0 0 0-34.026-32.985m-160.89 8.342c-.608 7.668-.736 16.343.165 24.168 15.587-4.982 31.286-8.13 49.2-6.825 9.828-14.988 22.297-26.963 39.675-32.025-9.783-5.133-21.17-10.399-31.412-13.745-22.467 4.023-41.26 13.46-57.628 28.427m68.076 52.3c-12.89 16.099-22.125 33.776-26.587 53.025 11.423 15.785 26.335 27.97 42.337 39.3 17.66-6.107 34.74-15.692 51.675-26.4-1.263-21.35-3.948-41.123-8.55-57.525-19.546-5.601-41.003-8.548-58.875-8.4" style="fill:#1f1c1e;fill-rule:evenodd"></path><path d="M170.55 645.107c5.65-7.436 10.7-13.64 16.35-20.475 5.083 18.841 14.234 32.866 25.425 42.224" style="fill:none"></path><path d="M429.287 642.268c-2.581-33.389-18.866-62.105-42.756-82.814-25.041-21.706-58.427-34.62-93.153-34.914-11.081-.094-21.43.663-31.178 2.577-9.714 1.907-18.818 4.963-27.442 9.472-18.78 9.819-34.534 24.877-46.127 43.305-11.631 18.49-19.073 40.365-21.18 63.745l-2.532-.22c2.145-23.795 9.72-46.06 21.56-64.88 11.826-18.8 27.914-34.169 47.104-44.202 8.863-4.635 18.194-7.77 28.129-9.721 9.9-1.944 20.417-2.712 31.686-2.617 35.338.299 69.313 13.441 94.797 35.532 24.378 21.131 40.997 50.448 43.633 84.548zm-243.766-15.966c-4.912 5.958-9.432 11.544-14.39 18.04 6.815 3.543 13.687 7.035 20.57 10.533 5.64 2.867 11.29 5.737 16.928 8.646-8.924-8.676-16.271-20.606-20.87-35.877 2.615-8.168 5.851-16.32 9.658-24.417 4.637-9.86 10.125-19.644 16.373-29.278l-2.133-1.385c-6.306 9.723-11.851 19.61-16.542 29.587-3.765 8.007-6.979 16.07-9.594 24.15m106.54-88.855c8.706-.177 17.327.562 25.853 1.995 8.523 1.432 16.956 3.556 25.288 6.148l-.757 2.431c-8.232-2.56-16.553-4.657-24.95-6.067-8.394-1.41-16.86-2.139-25.384-1.966zm-1.927 182.007c2.404-6.949 2.554-17.703 2.676-26.528l.004-.312 2.541.03-.004.312c-.125 9.01-.278 19.99-2.816 27.325zm-30.975-153.491c2.933 9.015 6.208 16.66 9.864 23.493 3.655 6.83 7.702 12.872 12.182 18.673l-2.013 1.554c-4.556-5.899-8.678-12.054-12.412-19.032-3.732-6.975-7.066-14.755-10.042-23.901zm154.893 85.377a98.8 98.8 0 0 0-3.942-25.01c-2.59-8.852-6.236-16.741-10.284-23.59l2.192-1.296c4.141 7.007 7.875 15.09 10.533 24.178 2.29 7.824 3.78 16.39 4.042 25.648zm-50.608-64.455c-3.953 5.292-8.16 10.514-12.854 15.665a168.5 168.5 0 0 1-15.752 15.201l-1.644-1.943a166 166 0 0 0 15.513-14.972c4.62-5.069 8.776-10.23 12.694-15.475zm-4.09 94.01c-3.214-1.632-6.393-3.45-9.571-5.267-3.184-1.82-6.368-3.64-9.453-5.207l1.146-2.272c3.215 1.633 6.394 3.45 9.572 5.267 3.184 1.82 6.368 3.64 9.453 5.207zm-103.547-21.418c-7.765 1.614-15.568 3.116-23.37 4.618-7.847 1.51-15.696 3.021-23.33 4.607l-.518-2.491c7.765-1.614 15.568-3.116 23.37-4.618 7.847-1.51 15.696-3.021 23.33-4.607z" style="fill:#1f1c1e;fill-rule:evenodd"></path><path d="M134.697 98.591c31.808 9.915 60.933 16.544 87.404 20.742 26.482 4.2 50.326 5.987 71.552 6.209 25.691.269 51.893-1.753 79.429-6.212 27.592-4.468 56.51-11.382 87.578-20.89l3.663-1.12 2.69 2.69 112.8 112.8 6.155 6.156-7.75 4.01c-17.738 9.178-30.15 21.743-36.596 36.894-6.365 14.96-7.006 32.64-1.314 52.281 3.377 11.654 7.45 24.502 11.535 37.383 7.327 23.108 14.69 46.328 20.064 70.09 10.792 47.715 6.452 87.682-9.74 121.547-16.143 33.759-43.962 61.182-80.225 83.98-22.547 14.175-46.655 26.675-70.338 38.956-32.73 16.972-64.643 33.52-89.64 53.07-3.629 2.84-7.972 6.6-11.882 10.566-3.037 3.081-5.748 6.213-7.522 8.99l-5.006 7.837-5.482-7.489a115 115 0 0 0-9.624-11.488c-3.109-3.244-6.42-6.271-9.756-8.766-27.207-20.346-57.075-35.526-86.72-50.591-21.277-10.813-42.441-21.569-62.832-34.334-31.362-19.636-59.39-41.513-78.572-70.539-19.36-29.294-29.601-65.574-25.042-113.64 3.081-32.488 13.719-64.83 24.379-97.239 2.379-7.233 4.76-14.471 7.37-22.732 4.57-14.464 7.256-28.685 7.509-41.252.225-11.248-1.476-21.105-5.51-28.466-4.453-8.124-9.794-14.286-15.882-19.61-6.251-5.464-13.507-10.222-21.426-15.298l-6.658-4.268 5.612-5.598 113.399-113.1 2.718-2.71zm85.41 33.299c-26.094-4.139-54.609-10.553-85.529-20.01L29.468 216.716c5.773 3.823 11.2 7.69 16.295 12.143 7.163 6.262 13.443 13.506 18.672 23.047 5.144 9.386 7.324 21.42 7.055 34.844-.28 13.899-3.161 29.345-8.057 44.84-2.19 6.93-4.806 14.882-7.42 22.832-10.457 31.792-20.893 63.518-23.831 94.497-4.25 44.811 5.166 78.433 23 105.42 18.01 27.253 44.713 48.037 74.685 66.8 19.613 12.28 40.668 22.98 61.834 33.737 30.207 15.351 60.642 30.818 88.614 51.737 3.847 2.877 7.685 6.387 11.301 10.161a126 126 0 0 1 5.543 6.188 96 96 0 0 1 3.854-4.136c4.287-4.349 9.092-8.505 13.129-11.663 25.989-20.328 58.395-37.131 91.632-54.366 23.472-12.17 47.364-24.56 69.391-38.408 34.31-21.57 60.523-47.29 75.54-78.698 14.968-31.302 18.916-68.527 8.795-113.275-5.17-22.856-12.51-46.006-19.815-69.043-3.87-12.206-7.73-24.379-11.585-37.683-6.542-22.575-5.7-43.145 1.813-60.801 6.654-15.64 18.472-28.842 34.96-38.98L460.676 111.711c-30.257 9.112-58.542 15.793-85.602 20.174-28.207 4.568-55.1 6.638-81.522 6.362-21.848-.229-46.333-2.058-73.445-6.358" style="fill:#4ca95b;fill-rule:evenodd"></path><path d="M171.132 644.342c4.956-6.496 9.477-12.082 14.388-18.04 2.616-8.081 5.83-16.144 9.595-24.15 4.225-8.987 9.142-17.9 14.685-26.686-.636-7.013-.478-13.833.07-20.749l.046-.56c-8.113 7.495-15.26 16.161-21.285 25.737-11.439 18.183-18.825 39.64-21.071 62.583q1.783.936 3.572 1.865M187.759 627.644c4.598 15.27 11.946 27.2 20.87 35.877q1.854.957 3.707 1.92c6.527-1.327 13.075-2.588 19.623-3.848 6.602-1.27 13.205-2.542 19.682-3.858 4.46-18.377 13.281-35.311 25.476-50.797-3.741-5.07-7.178-10.384-10.337-16.287-3.16-5.906-6.035-12.39-8.649-19.791-16.827-1.06-31.718 1.801-46.442 6.379-5.384 8.568-10.162 17.248-14.272 25.988-3.807 8.097-7.043 16.25-9.658 24.417M269.023 589.456c3.187 5.956 6.672 11.311 10.482 16.431 17.12.029 37.312 2.822 55.909 8.007 4.889-4.289 9.27-8.643 13.293-13.058 3.507-3.848 6.748-7.75 9.82-11.702-5.857-16.494-12.404-31.408-20.634-42.477-6.743-1.944-13.546-3.552-20.398-4.703-7.237-1.216-14.53-1.925-21.866-1.987-15.087 5.34-26.312 16.082-35.332 29.377 2.636 7.57 5.536 14.15 8.726 20.112M292.735 697.535c-15.203-10.83-29.373-22.483-40.435-37.337-6.606 1.344-13.234 2.62-19.863 3.897a2340 2340 0 0 0-16.511 3.219c22.08 11.572 43.895 23.972 64.39 39.298 3.646 2.727 7.284 6.023 10.734 9.573 1.228-5.438 1.551-12.27 1.685-18.65M295.274 697.662c-.15 7.115-.54 14.801-2.152 20.71a128 128 0 0 1 4.037 4.589 96 96 0 0 1 3.854-4.136c4.287-4.349 9.092-8.505 13.129-11.663 12.75-9.972 27.042-19.096 42.22-27.839-2.2-1.191-4.39-2.443-6.58-3.695-1.844-1.054-3.689-2.108-5.514-3.114-16.07 10.109-32.276 19.161-48.994 25.148M337.211 615.704c4.249 15.689 6.795 34.345 8.06 54.455a370 370 0 0 1 5.777 3.257c2.66 1.52 5.32 3.042 7.922 4.414 14.993-8.539 30.802-16.737 46.804-25.034q4.075-2.112 8.16-4.235a98.7 98.7 0 0 0-3.824-22.232c-2.159-7.377-5.051-14.087-8.299-20.083-11.346-9.218-25.7-13.61-40.908-16.018-3.21 4.151-6.61 8.259-10.313 12.322-4.05 4.445-8.46 8.83-13.379 13.153" style="fill:#fff;fill-rule:evenodd"></path><path d="M108.448 521.639V150.987l-64.432 63.18c25.8 19.705 41.588 47.434 35.25 87-6.065 37.861-25.35 80.254-34.35 121.2-10.785 49.056-6.74 99.022 23.544 135.932zM183.068 341.009v112.218l75-68.76v-43.191l-19.319.037.023-28.463 19.296-.139V267.49a174 174 0 0 0-2.126-.2l-17.38-.002-.12-27.88 2.17.036c5.816.096 11.645.348 17.456.643v-46.381h-22.264v147.407a4.4 4.4 0 0 1-4.393 4.394h-25.39a4.4 4.4 0 0 1-4.394-4.394V193.706h-18.559v44.984q1.555.129 3.075.24c3.609.269 7.222.474 10.836.676l2.007.112-.004 27.29-2.186-.063c-4.562-.132-9.144-.12-13.728-.127v45.639h15.314v28.552zM258.068 485.395l-75 68.916v29.953q1.64-2.913 3.41-5.725c6.648-10.568 14.643-20.052 23.778-28.114 7.116-6.279 14.924-11.695 23.327-16.088 7.772-4.064 15.903-6.975 24.485-8.946zM337.382 147.527v164.225l74.437-68.244V136.902c-13.055 2.65-26.676 4.765-40.502 6.766-11.044 1.598-22.32 2.916-33.935 3.86M486.445 275.541v318.167c21.423-14.21 40.175-30.726 52.268-51.962 10.755-18.883 16.194-41.804 16.878-66.875 1.092-39.988-11.118-78.538-24.6-117-15.906-45.382-26.365-89.658 1.303-124.46zM411.82 344.114l-74.438 68.4-79.314 72.88v39.997q1.808-.415 3.644-.775c9.9-1.944 20.417-2.712 31.686-2.617 15.095.127 29.942 2.599 43.984 7.11 12.676 4.072 24.697 9.807 35.653 16.98a141 141 0 0 1 15.16 11.442 135 135 0 0 1 15.764 16.141 129 129 0 0 1 7.86 10.604zm-28.896 138.479 15.603-.003c2.734 0 6.052 2.785 6.044 5.52l-.053 17.75c-.008 2.599-3.148 4.92-5.747 4.922l-19.58.016-.795-6.031c.822.557 1.742 1.083 2.718 1.084l12.08.017c.687 0 1.412-.756 1.412-1.376v-5.315c-.268.752-.988 1.693-1.816 1.693l-9.887.002c-2.418 0-5.081-2.762-5.081-5.18v-7.899c0-2.427 2.675-5.2 5.102-5.2zm-34.566 3.598 10.257-3.602h2.958l.003 26.005c0 .826.663 1.646 1.164 2.188l-12.038-.001c.5-.667 1.119-1.37 1.119-2.126l-.002-17.14-3.472.008z" style="fill:#f2863a;fill-rule:evenodd"></path><path d="M337.382 529.109V412.513l-79.314 72.882v39.996q1.808-.415 3.644-.775c9.9-1.944 20.417-2.712 31.686-2.617 15.095.127 29.942 2.599 43.984 7.11M258.068 384.467l79.314-72.715V147.527c-24.566 1.995-50.657 2.316-79.314.085v18.066h12.79c1.69 0 3.163.962 3.897 2.367l-.003-2.708 42.505.125v2.12c0 2.437-.093 4.876-.39 7.297-1.625 13.2-9.298 17.907-21.774 19.008-6.352.56-12.603.886-18.98.946l-3.184.03.96-2.373a4.38 4.38 0 0 1-3.03 1.215h-12.79v46.381l1.095.056c6.154.317 12.308.69 18.456 1.107 4.906.332 9.773 1.755 13.923 4.43 7.762 5.004 11.248 13.12 11.279 22.178l.15 44.307c.017 5.215-1.233 10.192-4.17 14.541-7.99 11.829-25.134 14.541-38.314 14.566l-2.42.004zM183.068 453.227V341.009H151.21c-7.253 0-13.18-5.928-13.18-13.181v-15.371h45.038v-45.639c-7.65-.01-15.306-.073-22.884-.936-7.69-.876-17.176-1.918-23.454-6.843-7.923-6.215-9.162-17.226-9.162-26.6v-35.063c0-9.651 2.508-18.766 10.797-24.49 6.445-4.45 14.793-5.794 22.416-6.811l2.406-.321.001 1.708a4.4 4.4 0 0 1 3.53-1.783h16.35v-29.012c-16.071-3.517-31.54-7.859-46.352-13.4l-28.268 27.72v370.652zM183.068 554.311l-64.67 59.426a474 474 0 0 0 11.469 7.402c11.359 7.111 23.2 13.693 35.268 20.063 2.158-20.6 8.39-39.999 17.933-56.938zM411.82 136.902v106.606l74.625-68.416v-24.29l-28.128-27.534c-14.08 5.998-29.828 10.251-46.498 13.634M433.512 504.347l-16.687-.001.012-6.742 15.21-15.01 10.863-.005-.002 14.9 4.176.004-.004 6.855h-4.17l-.02 4.103c-.004.864.71 1.874 1.253 2.333h-11.607c.344-.473.976-1.422.976-2.235zm52.933-228.806-74.626 68.573v240.162c10.681 16.083 17.72 34.67 19.762 55.02 14.89-7.927 29.612-16.124 43.584-24.908a297 297 0 0 0 11.28-7.447v-13.234zm-26.259 235.243-.918-6.131c.921.553 1.948 1.189 3.051 1.19l11.968.014c.57 0 1.388-.597 1.388-1.168l.001-5.57c0-.855-.815-1.629-1.671-1.629l-11.034-.005c-1.164 0-2.603.73-3.178 1.467l.02-16.36 25.06.008.933 5.775c-1.113-.323-2.18-.968-3.338-.968h-13.509v5.473l11.775-.01c2.848-.001 4.605 2.352 4.595 4.676l-.038 8.363c-.01 2.29-2.173 4.875-4.837 4.875z" style="fill:#fff;fill-rule:evenodd"></path><path d="M555.591 474.87c-.684 25.072-6.123 47.993-16.878 66.876-12.093 21.236-30.845 37.751-52.268 51.962v13.233c28.792-19.988 50.934-43.38 64.26-71.251 14.968-31.302 18.916-68.527 8.795-113.275-5.17-22.856-12.51-46.006-19.815-69.043-3.87-12.206-7.73-24.379-11.585-37.683-6.542-22.575-5.7-43.145 1.813-60.801 6.654-15.64 18.472-28.842 34.96-38.98l-6.48-6.48-26.1 23.983c-27.667 34.802-17.208 79.078-1.302 124.46 13.481 38.462 25.692 77.012 24.6 117M68.46 558.299c-30.284-36.91-34.329-86.876-23.544-135.932 9-40.946 28.285-83.339 34.35-121.2 6.338-39.566-9.45-67.295-35.25-87l64.432-63.18 28.268-27.72c14.812 5.541 30.28 9.883 46.352 13.4v29.011h75v-18.066c28.657 2.231 54.748 1.91 79.314-.085 11.616-.943 22.89-2.26 33.935-3.859 13.826-2.001 27.447-4.117 40.502-6.766 16.67-3.383 32.419-7.636 46.498-13.634l28.127 27.534v24.29l19.623-17.99-45.39-45.39c-30.257 9.112-58.542 15.793-85.602 20.174-28.207 4.568-55.1 6.638-81.522 6.362-21.848-.229-46.333-2.058-73.445-6.359-26.095-4.138-54.61-10.552-85.53-20.008L29.468 216.715c5.773 3.823 11.2 7.69 16.295 12.143 7.163 6.262 13.443 13.506 18.672 23.047 5.144 9.386 7.324 21.42 7.055 34.844-.28 13.899-3.161 29.345-8.057 44.84-2.19 6.93-4.806 14.882-7.42 22.832-10.457 31.792-20.893 63.518-23.831 94.497-4.25 44.811 5.166 78.433 23 105.42a153 153 0 0 0 6.993 9.723z" style="fill:#fff;fill-rule:evenodd"></path><path d="m387.635 488.572-.004 6.458c0 .567.691 1.131 1.259 1.131h4.64c.396 0 1.074-.495 1.074-.89l.002-6.683c0-.545-.567-1.179-1.11-1.18l-4.672-.006c-.433-.001-1.19.52-1.19 1.17z" style="fill:#f2863a;fill-rule:evenodd"></path><path d="M296.07 537.43h-.018zm68.014 6.167c-21.09-12.007-45.546-18.845-70.706-19.057-8.22-.07-16.036.329-23.504 1.32l-.221.03c8.667 3.007 18 7.25 26.399 11.54a128 128 0 0 0-3.991.017l.05 2.54a123 123 0 0 1 3.518-.02c7.336.061 14.628.77 21.866 1.986 6.852 1.152 13.654 2.76 20.398 4.704q2.28.657 4.551 1.364l.758-2.432q-2.165-.673-4.338-1.303c8.64-1.325 17.15-2.036 25.22-.689M523.405 220.774l-31.972-34.891-6.484 5.941 31.972 34.891zM507.294 235.344l-5.554-6.062-10.796 9.892-26.417-28.829-6.38 5.846 31.972 34.891zM416.618 275.372c3.365 3.672 2.094 8.757-2.496 12.915l-3.081 2.792-10.342-11.286 3.55-3.252c5.706-5.23 9.523-4.275 12.37-1.169m28.404 16.841-21.4-3.996c4.551-6.201 4.093-13.274-.819-18.731-7.04-7.821-15.834-6.306-23.338.48l-10.562 9.552 31.938 34.854 6.275-5.75-12.744-13.907 22.579 4.895zM398.504 312.71l-20.887-22.726-6.275 5.75 20.378 22.239c4.97 5.424 4.262 8.78.888 11.872-3.473 3.183-6.753 2.252-11.112-2.504l-20.378-22.239-6.38 5.846 21.079 22.933c8.12 8.835 16.098 7.664 22.74 2.07 6.478-5.454 8.67-13.723-.053-23.242M360.902 337.054l-.777-.847-22.293 20.428 5.521 6.025 14.765-13.53c1.552 5.679.649 11.772-4.188 16.156-6.57 5.957-16.736 4.149-21.87-1.385-6.037-6.506-6.308-16.211.314-22.28 4.267-3.909 7.799-4.461 12.842-3.54l7.361-6.746c-8.118-4.078-18.102-3.133-26.09 4.187-10.718 9.82-10.359 24.254-1.214 34.234 9.317 10.167 24.71 10.15 33.864 2.254 11.824-10.2 10.434-25.494 1.764-34.956M331.144 396.372l-31.877-34.77-8.363 7.52 13.188 32.786-31.463-16.04-8.394 7.644 31.785 34.965 6.16-5.66-22.973-24.794 32.096 16.53 4.721-4.327-13.738-33.829 22.824 25.567zM261.467 430.988l-7.472 6.752-5.22-13.36zm27.313 4.139-45.444-22.476-5.762 5.025 18.208 47.625 6.933-6.226-5.318-13.267 11.805-10.817 12.774 6.434zM241.339 460.223c-2.929-3.244-7.328-7.835-17.085-4.214-3.706 1.375-4.073 2.277-6.203 2.89-2.44.702-4.098-.25-5.263-1.52-1.897-2.071-2.124-5.025.271-7.38 2.209-2.169 5.366-1.029 7.722 1.143l5.999-5.497c-5.955-5.802-13.029-6.982-18.979-1.622-6.176 5.565-6.116 13.341-.6 19.5 3.961 4.422 10.11 5.761 16.332 2.344 3.505-1.925 5.309-2.58 7.143-2.532 1.797.048 2.821.868 4.13 2.266 2.795 2.981 2.677 6.418-.59 9.351-3.052 2.742-6.657 1.223-9.631-1.738l-5.723 5.308c6.366 6.862 14.771 8.222 21.307 2.406 7.178-6.386 5.803-15.574 1.17-20.705M190.957 506.257l-7.471 6.878c.042 5.608-1.589 9.32-5.133 12.524-5.156 4.66-15.545 4.664-21.498-1.832-5.995-6.543-5.847-16.656.24-22.045 4.335-3.835 7.789-4.37 13.074-3.583l7.48-6.68c-9.394-3.776-17.556-3.945-26.395 4.186-10.352 9.523-9.895 24.264-.88 34.102 9.187 10.026 23.912 11.105 34.001 1.987 8.305-7.505 9.527-16.545 6.582-25.537M154.81 557.76l-6.574-7.175-6.181 5.663 6.574 7.175zM118.168 538.108l-5.555-6.062-18.03 16.52 31.877 34.787 6.38-5.845-13.262-14.472 11.626-10.654-5.459-5.957-11.626 10.653-7.6-8.295zM217.926 499.925l-6.575-7.175-6.18 5.664 6.574 7.174zM455.307 253.367l-7.472 6.752-5.22-13.36zm27.313 4.138-45.444-22.476-5.762 5.026 18.207 47.625 6.934-6.226-5.318-13.267 11.805-10.818 12.774 6.435zM348.358 486.191l-.011 5.332 3.472-.008.002 17.14c0 .756-.618 1.459-1.12 2.126h12.04c-.501-.541-1.165-1.36-1.165-2.187l-.003-26.005h-2.958zM387.635 488.572l-.004 6.458c0 .567.69 1.13 1.259 1.13h4.64c.395 0 1.073-.494 1.073-.889l.002-6.683c0-.546-.566-1.179-1.11-1.18l-4.671-.007c-.433 0-1.19.522-1.19 1.171zm5.154 12.297c.828 0 1.55-.94 1.818-1.693l-.001 5.315c0 .62-.725 1.377-1.412 1.376l-12.08-.016c-.976-.001-1.897-.528-2.719-1.085l.795 6.032 19.581-.016c2.599-.002 5.74-2.324 5.747-4.922l.053-17.75c.008-2.736-3.31-5.521-6.044-5.521l-15.603.003c-2.428 0-5.102 2.773-5.102 5.2v7.9c0 2.417 2.663 5.18 5.081 5.18z" style="fill:#fff;fill-rule:evenodd"></path><path d="m432.046 482.594-15.21 15.01-.011 6.741 16.686.001.001 4.203c0 .812-.632 1.761-.977 2.234h11.608c-.543-.458-1.257-1.469-1.253-2.332l.02-4.103h4.17l.004-6.855-4.177-.004.002-14.9zm1.473 5.204-9.844 9.693 9.834-.014zM468.959 492.88v-5.473h13.509c1.159 0 2.226.645 3.338.968l-.932-5.775-25.06-.008-.021 16.36c.575-.737 2.014-1.467 3.178-1.467l11.034.005c.856 0 1.671.775 1.671 1.63v5.569c0 .571-.818 1.169-1.39 1.168l-11.966-.014c-1.104 0-2.13-.637-3.052-1.19l.918 6.131h20.268c2.665 0 4.828-2.585 4.838-4.875l.038-8.362c.01-2.324-1.747-4.678-4.595-4.676z" style="fill:#f2863a;fill-rule:evenodd" data-source="https://football-logos.cc"></path><path d="m274.755 168.045-.003-2.707 42.505.125v2.12c0 2.437-.093 4.875-.391 7.296-1.624 13.2-9.297 17.907-21.773 19.008-6.352.56-12.603.886-18.98.945l-3.184.03.959-2.372a4.38 4.38 0 0 1-3.029 1.215h-35.054v147.408a4.4 4.4 0 0 1-4.394 4.393h-25.39a4.4 4.4 0 0 1-4.394-4.393V193.706H166.72c-.567 0-1.109-.109-1.607-.305l.669.983-3.397.466c-1.45.2-3.126 1.213-4.172 2.197-1.68 1.579-2.53 3.59-2.544 5.895l-.149 24.456c-.028 4.621 2.24 6.49 6.4 7.767 7.593 2.33 16.317 3.18 24.224 3.766 3.61.268 7.223.473 10.836.675l2.008.112-.004 27.29-2.187-.063c-12.175-.351-24.493.317-36.611-1.063-7.69-.876-17.176-1.918-23.454-6.843-7.924-6.215-9.162-17.226-9.162-26.6v-35.063c0-9.651 2.508-18.766 10.796-24.49 6.445-4.45 14.793-5.794 22.417-6.811l2.406-.321v1.708a4.4 4.4 0 0 1 3.532-1.783h104.14c1.69 0 3.161.961 3.896 2.366zM138.03 312.457h60.352v28.552h-47.17c-7.254 0-13.182-5.928-13.182-13.182zm117.912-45.168h-17.378l-.122-27.88 2.17.035c6.182.102 12.378.38 18.552.698 6.155.318 12.308.69 18.456 1.107 4.907.333 9.774 1.756 13.924 4.43 7.761 5.004 11.248 13.12 11.278 22.178l.15 44.307c.018 5.215-1.232 10.192-4.17 14.542-7.99 11.828-25.133 14.54-38.313 14.566l-21.739.04.022-28.461 23.395-.169c3.381-.024 8.072-.288 10.79-2.562 2.409-2.014 2.929-5.331 2.938-8.3l.073-22.563c.007-2.266-.472-4.44-1.939-6.22-3.62-4.393-12.769-5.273-18.087-5.747z" style="fill:#fff;fill-rule:evenodd"></path><path d="M140.155 314.583h56.1v24.3H151.21c-6.08 0-11.055-4.975-11.055-11.055zm20.908-146.401.009 20.097c0 2.377.666 3.94 1.022 4.465-2.875.395-8.512 3.553-8.552 10.185l-.149 24.456c-.03 5.977 3.307 8.403 7.902 9.812 10.022 3.075 23.464 3.855 35.565 4.531l-.004 23.092c-12.144-.35-24.707.285-36.431-1.05-19.051-2.17-30.731-4.728-30.731-31.332v-35.062c0-23.975 16.236-27.175 31.368-29.194zm5.656-.377h104.14a2.274 2.274 0 0 1 2.267 2.267v19.24a2.274 2.274 0 0 1-2.267 2.267h-37.18v149.534a2.274 2.274 0 0 1-2.269 2.267h-25.39a2.274 2.274 0 0 1-2.267-2.267V191.58h-37.034a2.274 2.274 0 0 1-2.268-2.268v-19.24a2.274 2.274 0 0 1 2.268-2.267m110.161-.335 38.25.112c0 2.346-.087 4.699-.375 7.037-1.535 12.484-8.789 16.174-19.85 17.15-6.85.604-12.116.875-18.812.938.858-2.123.813-3.871.81-5.806zm-36.303 74.1c10.674.175 26.242 1.077 36.899 1.8 11.985.812 23.165 8.524 23.22 24.494l.15 44.307c.061 18.377-16.657 26.929-40.362 26.974l-19.607.038.019-24.222 21.285-.153c9.169-.066 15.805-2.172 15.84-12.982l.072-22.563c.035-10.744-9.75-13.003-22.057-14.1H240.68zM506.067 157.102 62.175 564.061c15.005 19.254 34.502 35.191 56.222 49.675l439.996-404.308Zm-250.285 308.2-18.208-47.626 5.762-5.025 45.444 22.476-6.804 6.299-12.774-6.435-11.805 10.817 5.318 13.267zm40.238-36.825-31.785-34.965 8.394-7.644 31.463 16.04-13.188-32.786 8.363-7.52 31.877 34.77-6.034 5.592-22.824-25.567 13.738 33.83-4.721 4.326-32.096-16.53 22.974 24.793zm29.253-58.721c-9.145-9.98-9.504-24.413 1.214-34.234 7.988-7.32 17.972-8.265 26.09-4.187l-7.361 6.746c-5.043-.921-8.575-.37-12.842 3.541-6.622 6.068-6.35 15.773-.314 22.279 5.134 5.534 15.3 7.342 21.87 1.385 4.837-4.384 5.74-10.477 4.188-16.156l-14.765 13.53-5.52-6.025 22.292-20.428.776.847c8.67 9.462 10.06 24.757-1.764 34.956-9.155 7.896-24.548 7.913-33.864-2.254m50.544-35.875-21.078-22.933 6.38-5.846 20.377 22.239c4.359 4.757 7.639 5.687 11.112 2.504 3.374-3.091 4.082-6.448-.888-11.872l-20.378-22.239 6.275-5.75 20.887 22.725c8.722 9.52 6.53 17.788.053 23.243-6.642 5.593-14.62 6.764-22.74-2.071m45.024-19.509-31.938-34.854 10.562-9.552c7.504-6.785 16.299-8.302 23.338-.48 4.912 5.457 5.37 12.53.82 18.731l21.4 3.997-8.073 7.396-22.578-4.896 12.744 13.908zm28.78-26.692-18.207-47.626 5.762-5.025 45.444 22.476-6.804 6.299-12.774-6.435-11.805 10.818 5.318 13.267zM224.254 456.009c9.757-3.62 14.156.97 17.085 4.214 4.633 5.131 6.008 14.319-1.17 20.705-6.536 5.816-14.941 4.456-21.307-2.406l5.723-5.308c2.974 2.96 6.579 4.48 9.631 1.738 3.267-2.933 3.385-6.37.59-9.351-1.309-1.398-2.333-2.218-4.13-2.266-1.835-.048-3.638.607-7.143 2.532-6.222 3.417-12.37 2.078-16.332-2.345-5.517-6.158-5.576-13.934.6-19.499 5.95-5.36 13.024-4.18 18.979 1.622l-6 5.497c-2.355-2.172-5.513-3.312-7.72-1.142-2.396 2.354-2.17 5.308-.272 7.379 1.165 1.27 2.823 2.222 5.263 1.52 2.13-.613 2.497-1.515 6.203-2.89m-12.903 36.74 6.575 7.176-6.181 5.663-6.575-7.174zm-60.097 2.956c8.84-8.131 17.001-7.962 26.395-4.186l-7.48 6.68c-5.285-.787-8.739-.253-13.073 3.583-6.089 5.389-6.236 15.502-.24 22.045 5.952 6.496 16.342 6.493 21.497 1.832 3.544-3.204 5.175-6.916 5.133-12.524l7.471-6.878c2.945 8.992 1.723 18.032-6.582 25.537-10.09 9.118-24.814 8.04-34.001-1.987-9.015-9.839-9.472-24.58.88-34.102m-38.64 36.341 5.554 6.062-11.65 10.675 7.601 8.295 11.626-10.653 5.46 5.957-11.627 10.654 13.261 14.472-6.38 5.845-31.875-34.786zm35.622 18.539 6.574 7.174-6.18 5.664-6.575-7.174zm341.883-299.503-31.972-34.891 6.38-5.846 26.417 28.83 10.796-9.893 5.555 6.062zm26.802-24.367-31.972-34.891 6.484-5.942 31.972 34.892z" style="fill:#4ba85a;fill-rule:evenodd"></path><path d="m261.467 430.988-12.693-6.607 5.22 13.359zM442.614 246.76l5.221 13.358 7.472-6.751zM414.122 288.287c4.59-4.158 5.86-9.243 2.496-12.915-2.846-3.106-6.663-4.06-12.37 1.169l-3.55 3.252 10.342 11.286z" style="fill:#4ba85a;fill-rule:evenodd"></path><path d="M210.486 548.21c-1.07 9.95-1.605 19.524-.45 29.55 15.587-4.982 31.285-8.13 49.2-6.825 9.828-14.988 22.297-26.964 39.675-32.025-10.211-5.358-20.637-10.451-31.35-13.8M380.025 549.783c-13.052-8.688-28.189-7.652-43.65-5.1 9.082 11.403 16.145 27.419 22.425 45.225 16.72 2.442 32.534 7.1 44.625 17.7 4.29-9.051 2.55-25.087.037-36.262" style="fill:none"></path><path d="M404.286 605.472a105.3 105.3 0 0 1 8.265 20.15 101.2 101.2 0 0 1 3.85 21.655c4.25-2.214 8.503-4.44 12.744-6.688q.076.838.142 1.68l2.54-.19a123 123 0 0 0-.246-2.783c-2.508-24.992-12.551-47.323-27.622-65.624a135 135 0 0 0-15.764-16.142 141 141 0 0 0-15.16-11.44c-23.094-15.12-50.915-23.848-79.637-24.091-11.269-.095-21.786.673-31.686 2.617-9.935 1.95-19.266 5.086-28.13 9.72-8.402 4.394-16.21 9.81-23.326 16.09-9.135 8.061-17.13 17.545-23.778 28.112-11.471 18.234-18.938 39.703-21.343 62.663q-.116 1.107-.216 2.218l2.531.22q.053-.582.11-1.162c2.246-22.943 9.632-44.4 21.07-62.583 6.025-9.576 13.173-18.242 21.286-25.736 7.499-6.927 15.822-12.853 24.842-17.57 8.623-4.508 17.728-7.564 27.442-9.471q.146-.03.292-.057c-19.697 5.192-37.609 14.783-52.621 27.657-.549 6.916-.707 13.736-.07 20.748q.916-1.453 1.856-2.901l2.132 1.385q-1.065 1.641-2.1 3.29c14.724-4.578 29.615-7.438 46.442-6.38q-.709-2.008-1.394-4.11l2.422-.787q.56 1.724 1.138 3.382c9.02-13.296 20.245-24.036 35.332-29.377q-1.757-.015-3.518.02l-.05-2.54a126 126 0 0 1 4.009-.017c-8.564-4.424-17.282-8.568-26.196-11.57 7.468-.991 15.284-1.39 23.504-1.32 25.16.212 49.617 7.05 70.706 19.057a140 140 0 0 1 22.446 15.857c6.783 5.88 12.952 12.404 18.37 19.498 1.395 9.074 1.83 19.355-.614 26.52" style="fill:#fff;fill-rule:evenodd"></path><path d="M370.761 545.249c-10.73-3.6-22.462-2.534-34.386-.566 9.082 11.403 16.145 27.419 22.425 45.225 16.72 2.442 32.534 7.1 44.625 17.7 3.466-7.314 2.996-19.189 1.361-29.374a134 134 0 0 0-34.025-32.985m-160.89 8.343c-.608 7.668-.736 16.343.165 24.168 15.587-4.982 31.286-8.13 49.2-6.825 9.828-14.988 22.297-26.964 39.675-32.025-9.783-5.133-21.17-10.399-31.412-13.746-22.467 4.024-41.26 13.46-57.628 28.428m68.076 52.3c-12.89 16.099-22.125 33.776-26.587 53.025 11.423 15.785 26.335 27.969 42.337 39.3 17.66-6.107 34.74-15.692 51.675-26.4-1.263-21.35-3.948-41.123-8.55-57.525-19.546-5.602-41.003-8.548-58.875-8.4" style="fill:#1f1c1e;fill-rule:evenodd"></path><path d="M170.55 645.106c5.65-7.435 10.7-13.64 16.35-20.475 5.083 18.842 14.234 32.867 25.424 42.225" style="fill:none"></path><path d="M429.287 642.268c-2.581-33.389-18.866-62.105-42.757-82.814-25.04-21.706-58.426-34.621-93.152-34.914-11.081-.094-21.43.663-31.178 2.577-9.714 1.907-18.819 4.963-27.442 9.472-18.78 9.819-34.534 24.877-46.127 43.305-11.632 18.489-19.073 40.365-21.18 63.745l-2.532-.22c2.145-23.795 9.72-46.06 21.56-64.88 11.826-18.8 27.914-34.169 47.103-44.202 8.864-4.635 18.195-7.77 28.13-9.721 9.9-1.944 20.417-2.712 31.686-2.617 35.338.298 69.313 13.441 94.797 35.531 24.378 21.132 40.997 50.449 43.633 84.549zM185.52 626.301c-4.912 5.959-9.433 11.544-14.39 18.04 6.815 3.543 13.687 7.036 20.57 10.534 5.64 2.866 11.289 5.737 16.928 8.646-8.924-8.677-16.271-20.607-20.87-35.877 2.615-8.168 5.85-16.32 9.658-24.417 4.637-9.86 10.125-19.645 16.372-29.278l-2.132-1.385c-6.307 9.723-11.851 19.61-16.542 29.587-3.765 8.006-6.979 16.07-9.594 24.15m106.54-88.854c8.706-.177 17.326.562 25.853 1.995 8.522 1.432 16.956 3.555 25.288 6.147l-.758 2.432c-8.23-2.56-16.553-4.657-24.949-6.068-8.394-1.41-16.86-2.138-25.384-1.965zm-1.927 182.006c2.404-6.948 2.553-17.702 2.676-26.527l.004-.312 2.541.03-.004.312c-.125 9.01-.278 19.99-2.816 27.324zm-30.975-153.49c2.933 9.014 6.208 16.66 9.863 23.492 3.655 6.831 7.703 12.872 12.183 18.674l-2.014 1.554c-4.555-5.9-8.678-12.054-12.41-19.032-3.733-6.975-7.068-14.756-10.044-23.901zm154.893 85.376a98.8 98.8 0 0 0-3.943-25.01c-2.589-8.85-6.235-16.74-10.283-23.59l2.192-1.295c4.141 7.006 7.874 15.09 10.533 24.178 2.29 7.823 3.78 16.39 4.042 25.647zm-50.608-64.454c-3.954 5.292-8.16 10.513-12.854 15.665a168.5 168.5 0 0 1-15.753 15.201l-1.644-1.943a166 166 0 0 0 15.514-14.972c4.62-5.07 8.776-10.23 12.693-15.476zm-4.09 94.01c-3.214-1.632-6.393-3.45-9.572-5.267-3.184-1.82-6.367-3.64-9.452-5.207l1.145-2.272c3.215 1.633 6.394 3.45 9.573 5.267 3.183 1.82 6.368 3.64 9.452 5.207zm-103.547-21.418c-7.765 1.613-15.568 3.116-23.37 4.617-7.847 1.51-15.696 3.022-23.33 4.608l-.518-2.492c7.765-1.613 15.568-3.115 23.37-4.617 7.847-1.51 15.696-3.021 23.33-4.608z" style="fill:#1f1c1e;fill-rule:evenodd"></path><path d="M134.697 98.591c31.808 9.915 60.933 16.544 87.404 20.742 26.482 4.2 50.326 5.987 71.552 6.209 25.69.269 51.893-1.753 79.429-6.212 27.592-4.468 56.51-11.382 87.578-20.89l3.662-1.12 2.69 2.69 112.8 112.8 6.156 6.155-7.75 4.01c-17.738 9.18-30.15 21.744-36.596 36.895-6.365 14.96-7.006 32.64-1.315 52.281 3.377 11.654 7.451 24.502 11.536 37.383 7.327 23.108 14.69 46.328 20.064 70.09 10.792 47.715 6.452 87.682-9.74 121.546-16.143 33.76-43.962 61.183-80.225 83.98-22.547 14.175-46.655 26.676-70.339 38.957-32.73 16.971-64.642 33.52-89.638 53.07-3.63 2.84-7.973 6.6-11.883 10.566-3.038 3.081-5.748 6.212-7.522 8.99l-5.006 7.836-5.482-7.488a115 115 0 0 0-9.624-11.489c-3.109-3.243-6.42-6.27-9.756-8.765-27.207-20.347-57.075-35.526-86.72-50.591-21.278-10.813-42.441-21.569-62.832-34.335-31.362-19.635-59.39-41.512-78.572-70.538-19.36-29.295-29.601-65.574-25.042-113.641 3.081-32.487 13.719-64.829 24.379-97.238 2.379-7.233 4.76-14.471 7.37-22.732 4.57-14.464 7.256-28.685 7.509-41.252.225-11.248-1.476-21.105-5.51-28.466-4.453-8.124-9.794-14.286-15.882-19.61-6.251-5.464-13.507-10.222-21.426-15.298l-6.658-4.268 5.612-5.598 113.399-113.1 2.718-2.71zm85.41 33.299c-26.094-4.14-54.61-10.553-85.529-20.01L29.468 216.716c5.773 3.823 11.2 7.69 16.295 12.143 7.163 6.262 13.443 13.506 18.672 23.047 5.144 9.386 7.324 21.42 7.055 34.844-.28 13.898-3.161 29.345-8.057 44.84-2.19 6.93-4.806 14.882-7.42 22.831-10.457 31.793-20.893 63.52-23.831 94.498-4.25 44.811 5.166 78.433 23 105.419 18.01 27.254 44.713 48.038 74.685 66.802 19.613 12.279 40.668 22.979 61.834 33.736 30.207 15.35 60.642 30.818 88.614 51.737 3.847 2.877 7.685 6.387 11.301 10.16a126 126 0 0 1 5.543 6.188 96 96 0 0 1 3.854-4.136c4.286-4.348 9.092-8.505 13.128-11.662 25.99-20.328 58.396-37.132 91.633-54.366 23.472-12.171 47.364-24.56 69.391-38.408 34.31-21.57 60.523-47.291 75.54-78.699 14.968-31.301 18.916-68.526 8.795-113.274-5.17-22.856-12.51-46.006-19.815-69.044-3.87-12.205-7.73-24.378-11.585-37.682-6.542-22.575-5.7-43.145 1.812-60.801 6.655-15.64 18.473-28.842 34.96-38.98L460.677 111.711c-30.257 9.112-58.542 15.793-85.602 20.174-28.207 4.568-55.1 6.638-81.522 6.362-21.848-.229-46.333-2.058-73.445-6.359" style="fill:#4ca95b;fill-rule:evenodd"></path><path d="M171.132 644.342c4.956-6.496 9.476-12.082 14.388-18.04 2.616-8.082 5.83-16.145 9.594-24.15 4.226-8.987 9.143-17.9 14.686-26.687-.636-7.012-.478-13.832.07-20.748l.046-.56c-8.113 7.495-15.26 16.16-21.285 25.737-11.439 18.183-18.825 39.64-21.072 62.583q1.784.935 3.573 1.865M187.759 627.644c4.598 15.27 11.946 27.2 20.87 35.877q1.854.957 3.707 1.92c6.527-1.327 13.075-2.588 19.623-3.848 6.602-1.271 13.205-2.542 19.681-3.858 4.461-18.377 13.282-35.312 25.477-50.798-3.741-5.068-7.178-10.383-10.337-16.286-3.16-5.907-6.035-12.39-8.65-19.792-16.826-1.059-31.717 1.802-46.44 6.38-5.385 8.568-10.164 17.248-14.273 25.988-3.807 8.096-7.043 16.249-9.658 24.417M269.023 589.456c3.186 5.956 6.672 11.311 10.482 16.431 17.119.029 37.312 2.822 55.909 8.007 4.888-4.29 9.27-8.643 13.293-13.058 3.507-3.849 6.747-7.75 9.82-11.702-5.857-16.494-12.405-31.408-20.634-42.477-6.744-1.945-13.546-3.552-20.398-4.704-7.237-1.216-14.53-1.925-21.866-1.986-15.087 5.34-26.312 16.081-35.332 29.377 2.636 7.57 5.536 14.15 8.725 20.111M292.735 697.534c-15.203-10.829-29.373-22.482-40.435-37.336-6.606 1.344-13.235 2.62-19.863 3.896a2340 2340 0 0 0-16.511 3.22c22.08 11.572 43.895 23.971 64.39 39.298 3.645 2.727 7.284 6.023 10.733 9.573 1.229-5.438 1.552-12.27 1.686-18.65M295.274 697.662c-.151 7.115-.54 14.8-2.152 20.71a128 128 0 0 1 4.037 4.588 96 96 0 0 1 3.854-4.136c4.286-4.348 9.092-8.505 13.129-11.662 12.749-9.972 27.042-19.096 42.22-27.839-2.2-1.192-4.39-2.443-6.58-3.695-1.844-1.054-3.689-2.109-5.514-3.114-16.07 10.109-32.277 19.16-48.994 25.148M337.211 615.703c4.249 15.69 6.795 34.346 8.06 54.456a370 370 0 0 1 5.777 3.257c2.66 1.52 5.32 3.041 7.921 4.414 14.994-8.539 30.803-16.737 46.805-25.034q4.075-2.112 8.16-4.235a98.7 98.7 0 0 0-3.825-22.232c-2.158-7.378-5.05-14.088-8.298-20.084-11.346-9.217-25.7-13.609-40.908-16.017-3.21 4.151-6.61 8.258-10.313 12.322-4.05 4.444-8.46 8.83-13.379 13.153" style="fill:#fff;fill-rule:evenodd"></path><path d="M108.448 521.638V150.987l-64.432 63.18c25.8 19.705 41.588 47.434 35.25 87-6.065 37.861-25.35 80.254-34.35 121.2-10.785 49.056-6.74 99.021 23.544 135.932zM183.068 341.009v112.217l75-68.76v-43.19l-19.319.036.022-28.462 19.297-.139V267.49a172 172 0 0 0-2.126-.2l-17.38-.002-.12-27.88 2.17.036c5.816.096 11.645.348 17.456.643v-46.381h-22.264v147.407a4.4 4.4 0 0 1-4.394 4.394h-25.39a4.4 4.4 0 0 1-4.393-4.394V193.706h-18.559v44.984q1.555.129 3.075.24c3.609.269 7.222.474 10.836.676l2.007.112-.004 27.29-2.187-.063c-4.561-.132-9.143-.12-13.727-.127v45.639h15.314v28.552zM258.068 485.394l-75 68.917v29.952q1.64-2.911 3.41-5.725c6.648-10.567 14.643-20.05 23.778-28.113 7.116-6.279 14.924-11.695 23.326-16.088 7.772-4.064 15.904-6.975 24.486-8.946zM337.382 147.527v164.225l74.437-68.244V136.902c-13.055 2.65-26.676 4.765-40.502 6.766-11.045 1.598-22.32 2.916-33.935 3.86M486.444 275.541v318.166c21.424-14.21 40.175-30.725 52.27-51.96 10.753-18.884 16.193-41.806 16.877-66.876 1.092-39.989-11.119-78.538-24.6-117-15.907-45.383-26.365-89.658 1.303-124.46zM411.82 344.114l-74.438 68.4-79.314 72.88v39.997q1.808-.415 3.644-.775c9.9-1.944 20.417-2.712 31.686-2.617 15.095.127 29.942 2.598 43.984 7.11 12.676 4.072 24.697 9.807 35.653 16.98a141 141 0 0 1 15.16 11.441 135 135 0 0 1 15.764 16.142 129 129 0 0 1 7.86 10.604zm-28.896 138.478 15.603-.003c2.734 0 6.052 2.785 6.044 5.52l-.053 17.751c-.008 2.599-3.148 4.92-5.747 4.922l-19.58.016-.795-6.031c.821.556 1.742 1.083 2.718 1.084l12.08.016c.687.001 1.412-.755 1.412-1.376v-5.314c-.268.752-.989 1.692-1.817 1.693l-9.886.002c-2.418 0-5.081-2.762-5.081-5.18v-7.9c0-2.426 2.674-5.2 5.102-5.2zm-34.566 3.6 10.257-3.603h2.958l.003 26.005c0 .826.663 1.646 1.164 2.187h-12.038c.5-.667 1.119-1.37 1.119-2.126l-.002-17.14-3.473.008z" style="fill:#f2863a;fill-rule:evenodd"></path><path d="M337.382 529.109V412.513l-79.314 72.881v39.997q1.808-.415 3.644-.775c9.9-1.944 20.417-2.712 31.686-2.617 15.095.127 29.942 2.598 43.984 7.11M258.068 384.467l79.314-72.715V147.527c-24.567 1.995-50.657 2.316-79.314.085v18.066h12.79c1.69 0 3.162.962 3.897 2.367l-.003-2.708 42.505.125v2.12c0 2.437-.093 4.876-.391 7.297-1.624 13.2-9.297 17.907-21.773 19.008-6.352.56-12.603.886-18.98.945l-3.184.03.959-2.372a4.38 4.38 0 0 1-3.029 1.215h-12.791v46.381l1.095.056c6.155.317 12.308.69 18.456 1.106 4.907.333 9.774 1.756 13.924 4.431 7.761 5.004 11.248 13.12 11.278 22.178l.15 44.307c.018 5.215-1.232 10.192-4.17 14.541-7.99 11.828-25.133 14.54-38.313 14.566l-2.42.005zM183.068 453.227V341.008H151.21c-7.253 0-13.18-5.928-13.18-13.182v-15.37h45.038v-45.639c-7.65-.011-15.306-.073-22.884-.936-7.69-.876-17.176-1.918-23.454-6.843-7.924-6.215-9.162-17.226-9.162-26.6v-35.063c0-9.651 2.508-18.766 10.797-24.49 6.444-4.45 14.793-5.794 22.416-6.811l2.406-.321.001 1.708a4.4 4.4 0 0 1 3.53-1.783h16.35v-29.012c-16.071-3.517-31.54-7.859-46.352-13.4l-28.269 27.72v370.651zM183.068 554.311l-64.67 59.425a474 474 0 0 0 11.469 7.403c11.359 7.11 23.2 13.693 35.268 20.062 2.158-20.6 8.39-39.998 17.933-56.938zM411.82 136.902v106.606l74.624-68.416v-24.29l-28.127-27.534c-14.08 5.998-29.828 10.251-46.498 13.634M433.512 504.347l-16.687-.001.011-6.742 15.21-15.01 10.864-.005-.002 14.9 4.176.004-.004 6.855h-4.17l-.02 4.103c-.004.864.71 1.874 1.253 2.333h-11.608c.345-.474.977-1.423.977-2.235zm52.932-228.806-74.625 68.573v240.162c10.681 16.083 17.72 34.67 19.762 55.02 14.89-7.927 29.612-16.124 43.584-24.908a297 297 0 0 0 11.28-7.447v-13.234zm-26.258 235.243-.919-6.132c.922.553 1.949 1.19 3.052 1.19l11.968.015c.57 0 1.388-.597 1.388-1.168v-5.57c0-.855-.814-1.63-1.67-1.63l-11.034-.004c-1.164 0-2.604.73-3.178 1.467l.02-16.36 25.06.008.933 5.774c-1.113-.322-2.18-.967-3.339-.967H468.96v5.473l11.775-.01c2.848-.001 4.605 2.352 4.595 4.676l-.038 8.363c-.01 2.289-2.173 4.875-4.838 4.875z" style="fill:#fff;fill-rule:evenodd"></path><path d="M555.591 474.87c-.684 25.071-6.124 47.993-16.878 66.876-12.094 21.236-30.845 37.75-52.269 51.961v13.234c28.793-19.988 50.935-43.381 64.262-71.252 14.967-31.301 18.915-68.526 8.794-113.274-5.17-22.856-12.51-46.006-19.815-69.044-3.87-12.205-7.73-24.378-11.585-37.682-6.542-22.575-5.7-43.145 1.812-60.801 6.655-15.64 18.473-28.842 34.96-38.98l-6.48-6.48-26.099 23.983c-27.667 34.802-17.209 79.077-1.302 124.46 13.481 38.462 25.692 77.011 24.6 117M68.46 558.299c-30.284-36.91-34.329-86.876-23.544-135.932 9-40.946 28.285-83.339 34.35-121.2 6.338-39.566-9.45-67.295-35.25-87l64.432-63.18 28.268-27.72c14.813 5.541 30.28 9.883 46.352 13.4v29.011h75v-18.066c28.657 2.231 54.748 1.91 79.314-.085 11.616-.943 22.89-2.26 33.935-3.859 13.826-2.001 27.447-4.117 40.502-6.766 16.67-3.383 32.418-7.636 46.498-13.634l28.127 27.534v24.29l19.623-17.99-45.39-45.39c-30.257 9.112-58.542 15.793-85.602 20.174-28.207 4.568-55.1 6.638-81.522 6.362-21.848-.229-46.333-2.058-73.445-6.359-26.095-4.138-54.61-10.552-85.53-20.008L29.468 216.715c5.773 3.823 11.2 7.69 16.295 12.143 7.163 6.262 13.443 13.506 18.672 23.047 5.144 9.386 7.324 21.42 7.055 34.844-.28 13.898-3.161 29.345-8.057 44.84-2.19 6.93-4.806 14.882-7.42 22.831-10.457 31.793-20.893 63.52-23.831 94.498-4.25 44.811 5.166 78.433 23 105.419a153 153 0 0 0 6.993 9.724z" style="fill:#fff;fill-rule:evenodd"></path><path d="m387.635 488.572-.004 6.458c0 .567.69 1.13 1.259 1.13h4.64c.395 0 1.073-.494 1.073-.889l.002-6.683c0-.546-.566-1.179-1.11-1.18l-4.671-.007c-.433 0-1.19.522-1.19 1.171z" style="fill:#f2863a;fill-rule:evenodd"></path><path d="M272.957 310.12c2.408-2.015 2.928-5.332 2.938-8.3l.072-22.564c.007-2.266-.471-4.439-1.939-6.219-3.174-3.85-10.595-5.002-15.96-5.547v45.221l4.098-.03c3.382-.024 8.072-.287 10.79-2.561M183.068 238.69v-44.985h-16.35c-.566 0-1.108-.108-1.606-.305l.668.984-3.396.466c-1.45.2-3.126 1.213-4.173 2.197-1.679 1.579-2.53 3.59-2.543 5.896l-.149 24.455c-.028 4.621 2.24 6.49 6.4 7.767 6.62 2.031 14.1 2.937 21.15 3.525" style="fill:#fff;fill-rule:evenodd"></path><path d="M183.068 165.679h74.898v-18.46c-26.89-.893-51.041-5.126-75-11.14v.565l.102.022zM486.625 152.89v22.036l11.654-10.684z" style="fill:#f2863a;fill-rule:evenodd"></path><path d="m433.519 487.798-9.844 9.693 9.834-.014z" style="fill:#fff;fill-rule:evenodd" data-source="https://football-logos.cc"></path><!-- source: https://football-logos.cc --></svg>