<svg xmlns="http://www.w3.org/2000/svg" xml:space="preserve" viewBox="371.82 155.98 323.03 488.04"><!-- Source: https://football-logos.cc --><defs data-source="https://football-logos.cc"><clipPath id="a" clipPathUnits="userSpaceOnUse"><path d="M0 600h800V0H0Z"></path></clipPath><clipPath id="c" clipPathUnits="userSpaceOnUse"><path d="M0 600h800V0H0Z"></path></clipPath><linearGradient id="b" x1="0" x2="1" y1="0" y2="0" gradientTransform="matrix(-100.47763 -142.4805 142.4805 -100.47762 457.808 369.65)" gradientUnits="userSpaceOnUse" spreadMethod="pad"><stop offset="0" style="stop-opacity:1;stop-color:#1d1d1b"></stop><stop offset=".448" style="stop-opacity:1;stop-color:#1d1d1b"></stop><stop offset=".671" style="stop-opacity:1;stop-color:#1d1d1b"></stop><stop offset="1" style="stop-opacity:1;stop-color:#fff"></stop></linearGradient></defs><g clip-path="url(#a)" transform="matrix(1.33333 0 0 -1.33333 0 800)"><path d="M0 0a.67.67 0 0 1-.472.356c-19.88 3.764-39.737 17.046-59.733 29.445-20.002 12.385-40.159 23.906-60.859 23.917-20.701-.011-40.859-11.532-60.861-23.917C-201.921 17.402-221.78 4.12-241.658.356a.667.667 0 0 1-.479-.947c40.054-83.326 15.415-159.679 120.634-251.205a.67.67 0 0 1 .876 0C-15.408-160.27-40.047-83.917.007-.591A.68.68 0 0 1 0 0" style="fill:#000;fill-opacity:1;fill-rule:nonzero;stroke:none" transform="translate(521.065 368.942)"></path><path d="M0 0v-284.052C95.055-198.805 72.703-127.88 109.055-49.794 72.703-42.681 37.012 0 0 0" style="fill:#e20613;fill-opacity:1;fill-rule:evenodd;stroke:none" transform="translate(400.001 411.847)"></path><path d="M0 0v284.052c-37.011 0-72.704-42.681-109.056-49.794C-72.704 156.172-95.056 85.247 0 0" style="fill:#fff;fill-opacity:1;fill-rule:evenodd;stroke:none" transform="translate(400.001 127.795)"></path><path d="M0 0a.8.8 0 0 0-.421-.371 1.4 1.4 0 0 0-.537-.111q-.542 0-.813.341-.332.406-.332 1.045 0 .398.124.805a1 1 0 0 0 .47.598q.255.138.579.138.28 0 .476-.074a.94.94 0 0 0 .443-.375q.231-.354.232-.885Q.22.394 0 0m.416 2.233a2.5 2.5 0 0 1-1.34.365q-.46 0-.89-.15a2 2 0 0 1-.892-.571A1.35 1.35 0 0 1-3.04.963q0-.622.521-1.065.62-.526 1.546-.525.47 0 .977.172.503.17.829.548.326.376.325.917.001.773-.742 1.223" style="fill:#fff;fill-opacity:1;fill-rule:nonzero;stroke:none" transform="translate(446.828 210.445)"></path><path d="M0 0a1.7 1.7 0 0 0-.479-.145 6 6 0 0 0-.799-.037h-1.103a1.6 1.6 0 0 0-.363.027.26.26 0 0 0-.134.071q-.038.044-.039.25v1.023h1.428q.406 0 .602-.045a.6.6 0 0 0 .283-.126q.068-.064.132-.29h.178v1.081h-.178a.42.42 0 0 0-.276-.372q-.187-.079-.741-.08h-1.428v1.227h1.782q.484 0 .675-.034a.9.9 0 0 0 .361-.14q.123-.092.224-.336h.187l-.072.68h-5.005v-.085h.232q.4 0 .573-.093.123-.068.123-.363V.195q0-.224-.053-.299-.057-.072-.211-.11a1.8 1.8 0 0 0-.432-.052h-.232v-.085H.24l.558.779H.607A2.5 2.5 0 0 0 0 0" style="fill:#fff;fill-opacity:1;fill-rule:nonzero;stroke:none" transform="translate(435.054 210.225)"></path><path d="M0 0a.8.8 0 0 0-.42-.371 1.4 1.4 0 0 0-.537-.111c-.359 0-.633.113-.814.341q-.33.406-.331 1.045 0 .398.124.805a1 1 0 0 0 .471.598q.253.138.58.138.277 0 .474-.074a.94.94 0 0 0 .444-.375q.232-.354.232-.885Q.222.394 0 0m.417 2.233a2.5 2.5 0 0 1-1.339.365q-.46 0-.89-.15a2 2 0 0 1-.892-.571 1.34 1.34 0 0 1-.335-.914q0-.622.521-1.065.618-.526 1.546-.525.47 0 .976.172.505.17.83.548.326.376.325.917.001.773-.742 1.223" style="fill:#fff;fill-opacity:1;fill-rule:nonzero;stroke:none" transform="translate(451.73 210.445)"></path><path d="M0 0a1.46 1.46 0 0 0-.743-.187q-.35 0-.594.107a1.16 1.16 0 0 0-.507.408q-.169.258-.17.479c0 .125.032.292.087.499q.409.12.615.157c.142.024.269.037.39.037q.6 0 .925-.286Q.33.927.329.535.329.188 0 0m.693 1.442q-.49.255-1.154.256-.697 0-1.384-.224.174.311.428.54.258.227.647.413.391.186.791.276.399.091 1.03.119v.086H.776q-.514 0-1.107-.1a5 5 0 0 1-1.242-.393q-.651-.289-.999-.665-.35-.377-.35-.793 0-.653.908-1.062.466-.211 1.131-.211.979 0 1.571.389.494.32.495.71 0 .404-.49.659" style="fill:#fff;fill-opacity:1;fill-rule:nonzero;stroke:none" transform="translate(456.584 210.135)"></path><path d="M0 0a1.7 1.7 0 0 0-.377-.073 10 10 0 0 0-.726-.02h-1.695q.297.13 1.489.752.795.415 1.149.785.231.236.231.471 0 .33-.53.572-.53.244-1.318.244-.743 0-1.238-.226-.497-.228-.616-.651h.179q.18.258.561.392.38.134.861.134.526 0 .903-.19.38-.191.38-.484-.001-.389-.69-.855-.69-.467-2.379-1.204v-.084H.015L.469.16H.292A1 1 0 0 0 0 0" style="fill:#fff;fill-opacity:1;fill-rule:nonzero;stroke:none" transform="translate(442.558 210.311)"></path><path d="M0 0a4.3 4.3 0 0 0-1.116-.129q-.73-.001-1.296.163-.568.167-.849.474-.284.309-.283.73 0 .51.299.854.298.344.82.501.523.157 1.169.157c.517 0 .954-.069 1.322-.209a1.66 1.66 0 0 0 .847-.682h.149L.913 2.914H.746a.38.38 0 0 0-.178-.171.5.5 0 0 0-.224-.044q-.087 0-.287.051-.684.164-1.39.164a6.2 6.2 0 0 1-1.668-.213q-.764-.214-1.199-.604-.436-.389-.437-.854.001-.576.661-1.003.886-.573 2.499-.572.896 0 1.548.191.652.193 1.14.608l-.149.045Q.484.128 0 0" style="fill:#fff;fill-opacity:1;fill-rule:nonzero;stroke:none" transform="translate(428.537 210.135)"></path><path d="M0 0q-.332.126-1.241.359-1.116.287-1.412.457-.206.118-.205.26 0 .186.324.33.326.145.823.146.44 0 .853-.109.412-.106.634-.291A.95.95 0 0 0 .086.66h.176v1.074H.086a.27.27 0 0 0-.128-.143.5.5 0 0 0-.204-.034q-.11-.001-.379.056a5.3 5.3 0 0 1-1.096.121q-.827 0-1.364-.241-.537-.24-.536-.576 0-.191.181-.353c.123-.107.298-.203.536-.293q.352-.132 1.183-.355.835-.223 1.02-.292.278-.1.411-.218.13-.117.13-.23 0-.208-.345-.358-.35-.151-.947-.151-.519 0-.949.11-.433.11-.646.275-.21.167-.336.501h-.176v-1.065h.176q.035.109.104.143a.44.44 0 0 0 .189.033q.123 0 .592-.072.466-.071.615-.082a6 6 0 0 1 .531-.022q.9 0 1.474.256.572.256.572.608 0 .185-.18.354Q.336-.124 0 0" style="fill:#fff;fill-opacity:1;fill-rule:nonzero;stroke:none" transform="translate(411.978 211.315)"></path><path d="M0 0h.23q.232 0 .441-.054.149-.043.197-.099.061-.075.061-.311v-2.007q0-.278-.115-.352-.182-.111-.584-.112H0v-.085h2.782v.085h-.234a1.7 1.7 0 0 0-.438.055q-.15.04-.2.099-.06.075-.06.31v2.007q0 .279.119.352.182.112.579.112h.234v.085H0Z" style="fill:#fff;fill-opacity:1;fill-rule:nonzero;stroke:none" transform="translate(413.442 212.894)"></path><path d="M0 0h.225q.381 0 .561-.097c.086-.047.133-.166.133-.357v-1.79L-3.05.085h-1.762V0q.282 0 .422-.021a2.6 2.6 0 0 0 .427-.094 3 3 0 0 0 .43-.208v-2.158q0-.262-.107-.334-.173-.12-.589-.12h-.224v-.085h2.26v.085h-.229q-.38 0-.561.096-.13.07-.129.358v1.912l4.282-2.5h.172v2.615q0 .264.104.335.172.119.583.119h.232v.085H0Z" style="fill:#fff;fill-opacity:1;fill-rule:nonzero;stroke:none" transform="translate(421.147 212.894)"></path><path d="M0 0a172 172 0 0 0 5.584.019c4.348-.077 7.352-.192 9.337-.279 2.039-.09 3.004-.161 3.219-.164.268-.005.377.1.433.269l1.286 5.992c.058.213-.312.541-.473.544-.054.001-.107.003-.163-.104-.774-1.276-1.657-2.655-2.591-3.927-.277-.425-.658-.741-1.197-.839-1.831-.344-4.895-.505-6.665-.474-.375.006-.479.276-.471.814.029 1.556.431 12.287.512 13.843.004.268.168.372.65.418 2.204.122 5.429.227 7.472.407.106-.003.384.476.389.852.002.053.004.107-.104.108-1.449.026-6.438.329-8.316.468.027 1.449.391 9.926.724 13.678.004.269.062.429.491.475.751.041 4.557-.402 5.36-.576.426-.115.747-.228.954-.661.671-1.57 1.343-3.03 1.907-4.597.052-.108.104-.109.158-.11.161-.003.597.258.599.418l-.057 5.961c.004.268-.046.484-.314.488-.216.004-1.29-.031-3.436.007a401 401 0 0 0-9.879.065l-4.992.087c-.106.002-.106-.052-.11-.16-.003-.267.044-.59.205-.594l1.55-.402c.427-.114.531-.385.574-.976.126-1.988.01-11.652.03-13.692.018-2.041-.136-13.903-.215-15.352-.011-.589-.228-.747-.606-.848L.12.705C-.097.655-.156.333-.159.119-.159.057-.161.002 0 0" style="fill:#000;fill-opacity:1;fill-rule:nonzero;stroke:none" transform="translate(392.794 449.834)"></path><path d="M0 0c-.358-.654-1.342-1.935-1.765-2.377S-3.024-3.51-4.039-4.118C-6.247-5.446-11.247-4.941-16.5 3.8c-3.595 5.983-5.032 10.566-4.879 14.479.082 1.741.467 3.288 1.709 4.034.369.221.774.276 1.068.204.295-.074.645-.24.904-.461 1.804-1.231 3.637-2.512 5.443-3.744.073-.018.147-.036.193-.008.185.11.551.644.396.801l-4.155 5.457c-.186.202-.314.313-.527.249-1.122-.112-2.327-.711-3.431-1.375a11.8 11.8 0 0 1-4.022-3.99 12 12 0 0 1-1.178-2.577c-1.252-3.619-1.16-8.226 1.178-13.556a33 33 0 0 1 1.919-3.687l.027-.046c5.336-8.88 12.052-9.739 17.161-6.671 1.61.967 2.64 1.964 3.049 2.532C-.624-3.131.222-1.62.591-.773q.055.22-.029.358C.369-.092.064.101 0 0" style="fill:#000;fill-opacity:1;fill-rule:nonzero;stroke:none" transform="translate(341.928 431.29)"></path><path d="m0 0-1.45-.448-.863-.268c-.379-.095-.592-.156-.888.356-.824 1.321-5.658 10.122-6.49 11.563-.161.279-.002.433.389.721 1.872 1.267 4.675 3.071 6.539 4.457.186.108.037.58-.124.859-.026.047-.099.067-.147.039-1.441-.831-5.925-3.049-7.765-4.05-.511.884-5.197 9.645-6.794 12.627-.135.234-.123.427.11.561.557.322 3.994 1.995 4.798 2.212.539.248.925.224 1.306-.115 1.475-.945 2.785-1.924 4.167-2.924.074-.02.121.007.166.035.094.053.358.454.278.593l-3.327 5.332c-.16.28-.307.319-.54.184-.697-.402-5.63-3.561-11.115-6.728-1.136-.717-2.391-1.442-4.511-2.604-.139-.08-.111-.127-.085-.173.16-.278.342-.484.508-.45l1.702.487c.348.149.629-.123.79-.402 1.242-1.938 6.672-10.911 7.691-12.678 1.068-1.739 6.64-10.857 7.433-12.445.248-.538.184-.638-.089-.919l-1.061-1.17c-.112-.128-.043-.46.037-.599.058-.101.086-.148.179-.094 1.134.718 2.689 1.676 4.501 2.724 1.146.662 2.259 1.285 3.205 1.804.777.427 1.441.782 1.917 1.028.093.053.066.1.007.201C.367-.098.166.034 0 0" style="fill:#000;fill-opacity:1;fill-rule:nonzero;stroke:none" transform="translate(319.577 414.077)"></path><path d="M0 0c-1.575-1.1-3.112-1.267-4.013-.939l-.05.019c-.707.256-.838.362-.587.899C-4.395.683-1.879 6.933 0 11.5a410 410 0 0 0 1.394 3.36c.147.403.556.426 1.11.224 2.271-.827 3.004-5.092 1.405-9.48C2.872 2.754 1.422.996 0 0m5.085-20.361c.073.203.134.523-.082.716l-1.148.932c-.246.26-.406.606-.411 1.063.03 5.417-.4 12.715-.926 15.82C4.449-1.461 6.391-.659 7.9.677a8.1 8.1 0 0 1 2.284 3.329l.017.05c1.305 3.587.674 6.693-2.301 9.101-1.21.979-2.805 1.841-4.818 2.574-.985.359-2.035.717-3.082 1.058a129 129 0 0 1-6.667 1.976c-.152.054-.17.005-.188-.045-.074-.202-.102-.592.084-.717l1.318-.766c.336-.178.376-.536.225-1.11-.284-1.096-3.782-11.02-4.536-13.087-.934-2.574-4.255-12.163-5.026-14.282-.109-.302-.302-.517-.691-.49l-1.528.042c-.22.023-.363-.21-.436-.414-.041-.108-.059-.159.094-.213 1.008-.368 2.759-.891 4.625-1.57a103 103 0 0 0 4.656-1.809c.082-.087.169-.005.19.054.093.252.135.523.002.629l-1.464 1.16c-.316.229-.413.436-.211.991.571 1.564 3.384 8.824 4.42 11.36.254-.092.99-.418 1.16-.423.153-.054.217-.192.262-.38 1.094-4.055 1.855-9.816 2.308-13.751.087-.546-.188-.674-.578-.647l-1.611.129c-.17.004-.293-.179-.384-.43-.041-.111-.008-.179.093-.215A170 170 0 0 0 0-18.523q.396-.14.795-.285a84 84 0 0 0 4.149-1.625c.102-.037.119.014.141.072" style="fill:#000;fill-opacity:1;fill-rule:nonzero;stroke:none" transform="translate(432.3 460.846)"></path><path d="M0 0c-1.537.938-4.322 2.767-5.242 3.432a.44.44 0 0 0-.006.432C-3.882 5.437-1.965 7.638 0 9.895c1.45 1.666 2.927 3.363 4.227 4.86.17.228.385.467.652.739q.13.134.279.278l.142-.077c-.1-.621-.235-.976-.348-1.403l-.073-.234C3.227 8.75 1.36 1.819.722-.426.539-.327.292-.18 0 0m3.117-14.706c-.114.125-.121.559-.063.772a845 845 0 0 0 1.825 5.938C5.988-4.419 7.305-.233 8.558 3.715c1.696 5.345 3.28 10.256 4.096 12.629.007.119-.062.218-.223.369a76 76 0 0 1-3.516 2.072l-.047.026q-.159.087-.31.158c-1.041.483-1.93.399-2.755-.485q-.427-.447-.924-.971C3.541 16.104 1.851 14.301 0 12.327-5.133 6.85-11.481.044-14.869-3.434l-.165-.167c-.603-.647-.818-.59-1.326-.493l-.954.162c-.167.031-.422-.319-.474-.413-.03-.054-.056-.102.037-.154.926-.457 1.844-.91 2.882-1.476l.324-.178c1.128-.625 2.134-1.244 3.329-1.968.093-.052.141-.078.195.023.131.236.169.522.006.673l-1.201 1.157c-.275.276-.386.521.152 1.267 1.125 1.586 3.665 4.842 5.118 6.799.177.208.396.272.536.193C-5.31 1.55-1.725-.218 0-1.137q.247-.133.439-.238C.312-1.864.162-2.452 0-3.095a741 741 0 0 1-1.938-7.887c-.116-.427-.366-.658-.673-.548l-2.019.566c-.166.031-.396-.272-.474-.412-.03-.056-.054-.103.037-.154 1.671-.864 3.153-1.624 4.89-2.587L0-14.215c1.296-.724 2.531-1.469 3.854-2.26.095-.052.168-.031.198.024.132.235.166.521.006.672z" style="fill:#000;fill-opacity:1;fill-rule:nonzero;stroke:none" transform="translate(455.07 443.63)"></path><path d="m0 0-1.725-.286c-.372-.078-.564.138-.748.641-.733 2.647-4.195 15.612-5.293 19.726-.06.32-.216 1.063-.382 1.518l.252.091c.286-.467.739-.93.987-1.297 3.299-4.512 10.59-13.398 14.154-17.7.107-.133.243-.196.395-.141.353.128.706.257 1.09.454.941.398 1.056.556 1.07 1.303.044 5.215-.615 17.543-.93 23.428.006.457-.045 1.067-.082 1.797l.403.147c.134-.524.405-1.11.606-1.664 1.712-4.234 6.526-15.107 8.476-19.996.129-.353.158-.743-.159-.972L16.596 6.04c-.133-.105-.142-.395-.069-.597.041-.109.058-.159.209-.104.739.326 2.638 1.074 4.705 1.827 1.917.697 3.5 1.216 4.173 1.405.051.018.102.037.085.087-.041.109-.239.494-.357.508l-1.426-.006c-.392-.027-.564.138-.768.693-1.041 2.706-4.383 11.887-5.061 13.752-.697 1.918-4.343 11.618-4.862 13.199-.152.574-.234 1.115.265 1.467l1.051.726c.133.106.105.495.031.697q-.054.152-.206.097l-7.818-2.846c-.152-.055-.166-.175-.161-.345.46-6.288 1.735-19.363 1.952-24.197.015-.509.139-1.321.147-2.288l-.302-.11c-.633.797-.988 1.298-1.304 1.697C4.39 15.25-5.355 28.841-7.316 31.556c-.105.132-.261.248-.463.174l-8.071-2.938q-.151-.054-.095-.205c.073-.202.251-.537.471-.514l1.358.036c.61.052.834-.095.963-.448.55-1.514 3.995-11.914 4.572-13.818.598-1.953 3.797-11.53 4.683-14.12.203-.556.155-.743-.179-.922l-1.07-.675c-.15-.055-.123-.445-.048-.647.02-.058.039-.108.139-.071A39 39 0 0 0-2.57-1.574c1.109.404 1.987.665 2.862.928.152.054.133.105.093.214C.33-.28.1.037 0 0" style="fill:#000;fill-opacity:1;fill-rule:nonzero;stroke:none" transform="translate(362.772 441.005)"></path><path d="m0 0-10 5.318c-.095.05-.119.003-.17-.092-.203-.38-.184-.572-.066-.696l1.034-.914c.47-.371.364-.802.135-1.347-.255-.594-4.828-9.534-6.493-12.782a950 950 0 0 0-3.54-6.986c-1.383-2.708-2.733-5.323-3.201-6.149-.177-.332-.274-.402-.655-.321l-1.864.384c-.168.028-.392-.279-.467-.421-.03-.056-.055-.102.039-.153.974-.457 2.848-1.392 4.791-2.425.474-.252.93-.501 1.357-.741 1.335-.743 2.414-1.386 2.954-1.673.094-.05.119-.003.174.1.075.142.179.451.062.575l-1.1 1.132c-.281.271-.396.514-.244.798.428.806 5.96 10.754 6.689 12.008 1.159 2.18 5.938 10.826 7.789 13.734.126.237.469.54.874.387l1.383-.372c.215-.053.463.301.565.49C.07-.098.096-.051 0 0" style="fill:#000;fill-opacity:1;fill-rule:nonzero;stroke:none" transform="translate(509.182 435.528)"></path><path d="M0 0c1.483 2.234 2.789 4.191 3.154 4.749.377.524.654.671 1.032.57l1.492-.333c.163-.037.378.212.487.396.056.091.084.138-.009.194L0 9.274l-.653.393c-.093.056-.121.01-.203-.129-.084-.138-.203-.441-.047-.598L0 8.086l.734-.693c.36-.341.386-.608.102-1.189A66 66 0 0 0 0 4.558C-2.419-.069-6.699-7.296-9.166-11.585l-1.272-2.117-.349-.165c.185.828.314 1.564.37 2.283.748 5.312 3.116 21.55 3.459 24.726-.009.193-.046.341-.231.451l-6.901 4.148c-.138.083-.166.036-.222-.055-.11-.184-.184-.516-.028-.672l1.113-1.17c.378-.415.395-.802.091-1.308-.929-1.758-6.136-11.155-7.189-12.903-1.087-1.811-4.379-7.624-6.129-10.618-.431-.735-.768-1.3-.957-1.595-.304-.506-.526-.56-.858-.487l-1.721.471a.25.25 0 0 1-.143-.013c-.138-.048-.289-.186-.389-.355-.034-.054-.062-.099.031-.155l.358-.186a52 52 0 0 0 2.549-1.436 56.508 56.508 0 0 0 3.028-1.944c.093-.056.119-.01.153.044.138.229.183.515.121.617l-1.722 1.722c-.294.24-.321.507-.045.968 2.544 4.232 8.211 13.039 10.486 16.62.332.551.554.92.959 1.49l.304-.119c-.036-.48-.148-1.289-.185-1.769-.501-6.149-1.466-18.596-1.646-23.999.014-.708.281-.993.695-1.242.37-.221 1.28-.581 1.782-.685.239-.018.34.047.424.185 1.233 1.951 7.537 12.13 8.717 13.988C-3.467-5.233-1.627-2.451 0 0" style="fill:#000;fill-opacity:1;fill-rule:nonzero;stroke:none" transform="translate(490.082 437.199)"></path><path d="M0 0a32 32 0 0 0-1.025-.182.16.16 0 0 0-.107.109c-.068 1.266-.177 3.414-.264 5.045a4 4 0 0 0-.012.483l.054.014c.126-.179.178-.302.253-.437.337-.67.728-1.415 1.101-2.118C.605 1.78 1.173.749 1.414.298A27 27 0 0 0 0 0m5.985-2.756-.174.015-.324.027c-.057.003-.164.11-.202.178C4.065-.159 1.164 5.658.341 7.421c-.028.032-.07.04-.147.038L0 7.418c-.319-.07-.716-.163-1.194-.292l-.018-.004c-.455-.122-.701-.363-.694-.828.014-2.37.138-8.211.124-10.626.008-.31-.061-.347-.213-.446l-.279-.193c-.049-.031-.031-.181-.02-.218.005-.02.011-.04.047-.03.38.122.755.242 1.21.364.348.093.678.169 1.037.25l.278.063c.036.01.055.015.044.054-.024.091-.084.172-.163.17h-.582c-.138.002-.224.037-.27.355-.104.673-.255 2.111-.366 2.957-.004.095.035.164.089.178.177.072.553.201.97.338.583.189 1.246.392 1.573.48.448-.795 1.381-2.392 1.738-2.996.074-.137.067-.255-.038-.302l-.644-.348c-.049-.033-.033-.165-.02-.22.005-.02.011-.04.047-.028.631.188 1.189.357 1.86.536.431.116.854.216 1.295.319l.293.068c.037.01.049.033.044.054-.025.091-.084.171-.163.171" style="fill:#000;fill-opacity:1;fill-rule:nonzero;stroke:none" transform="translate(382.568 430.34)"></path><path d="M0 0a1.1 1.1 0 0 0-.474-.175l-.019-.001C-.753-.2-.812-.187-.811.021c-.03.337-.231 4.148-.285 5.615-.011.149.114.218.321.236.263.022.529-.084.775-.292.536-.454.974-1.391 1.071-2.508C1.223 1.338.589.37 0 0m5.153-4.776-.502.127a.53.53 0 0 0-.288.275C3.572-2.65 2.355-.399 1.729.507c.923.666 1.68 1.713 1.568 2.985v.019C3.148 5.208 2.116 6.193 0 6.193q-.327 0-.688-.031a45 45 0 0 1-3.256-.429l-.286-.05c-.056-.005-.055-.024-.053-.043.007-.076.055-.203.133-.215l.206-.019.325-.028c.133-.008.199-.116.236-.32.071-.39.43-4.055.498-4.822.082-.955.449-4.487.517-5.274.011-.111-.02-.209-.147-.257l-.491-.213c-.073-.025-.084-.121-.077-.196.004-.04.006-.058.062-.054.374.033 1.006.126 1.7.186a39 39 0 0 0 1.744.115c.038-.015.055.024.053.045-.009.094-.036.187-.093.2L0-5.121l-.253.061c-.135.026-.196.078-.214.284-.051.58-.232 3.298-.277 4.255.092.01.376.015.43.038.055.005.097-.028.139-.081L0-.776c.903-1.12 1.91-2.699 2.591-3.809.107-.16.039-.242-.088-.29l-.53-.197c-.054-.025-.067-.101-.058-.195.004-.04.022-.057.062-.053.54.066 1.118.135 1.717.188.656.057 1.238.089 1.556.098.016.002.023.005.029.01.009.008.007.021.007.034l-.007.044c-.012.069-.048.146-.126.17" style="fill:#000;fill-opacity:1;fill-rule:nonzero;stroke:none" transform="translate(392.323 433.302)"></path><path d="M0 0c-.264.005-1.693-.083-3.703-.048-2.349.041-3.36.172-3.661.177-.114.001-.133-.036-.134-.13l-.168-2.383-.007-.095q0-.01.007-.022c.028-.043.131-.074.18-.075.019 0 .037 0 .057.037l.916 1.901c.079.167.154.186.324.221.3.051 1.073.094 1.259.09.018-1.148.018-4.417.024-5.205.005-.734.01-4.794-.02-5.413-.004-.207-.023-.244-.156-.26l-.679-.195c-.056-.017-.077-.148-.079-.205 0-.021 0-.04.036-.041a49.652 49.652 0 0 0 3.777-.066c.019 0 .039.018.039.059.001.111-.035.188-.073.188l-.671.182c-.132.039-.189.078-.185.266.006.375.149 4.225.185 5.202.043 1.427.173 4.544.246 5.444.244-.003 1.144-.094 1.348-.154.17-.04.225-.097.297-.287l.756-1.893c.019-.037.038-.038.055-.038.058-.001.208.072.21.128L.148-.153C.15-.04.131-.002 0 0" style="fill:#000;fill-opacity:1;fill-rule:nonzero;stroke:none" transform="translate(405.269 439.832)"></path><path d="m0 0-.5-.002c-.136-.01-.197.048-.268.243-.365.946-1.534 4.16-1.771 4.813-.244.672-1.521 4.066-1.702 4.62-.053.201-.082.39.093.513l.368.253c.046.038.035.174.01.245q-.018.053-.071.034l-2.739-.997c-.052-.019-.057-.061-.055-.12.162-2.2.608-6.778.683-8.469.006-.178.05-.462.053-.801l-.107-.039c-.223.28-.345.455-.456.595-.872 1.242-4.283 5.999-4.968 6.947-.037.048-.091.088-.163.062l-2.826-1.028q-.051-.02-.033-.072c.026-.07.09-.188.167-.18l.474.014c.213.017.292-.034.337-.159.193-.529 1.399-4.169 1.6-4.835.21-.684 1.33-4.036 1.639-4.942.072-.195.055-.259-.063-.323l-.372-.236c-.055-.019-.044-.156-.019-.227.007-.02.013-.037.05-.025.222.102.571.247.87.357.388.142.694.233.999.324.055.02.048.038.035.076-.02.053-.1.163-.135.151l-.604-.1c-.13-.027-.197.049-.261.225-.257.925-1.47 5.463-1.853 6.904-.02.112-.076.372-.135.53l.09.032c.1-.164.258-.325.344-.453 1.155-1.579 3.707-4.691 4.954-6.196.037-.046.086-.068.138-.048.125.044.249.089.383.158.329.139.369.194.375.456.014 1.825-.216 6.139-.326 8.2.001.16-.015.373-.03.629l.142.051c.047-.183.141-.388.212-.582.598-1.482 2.285-5.288 2.966-6.999.046-.123.054-.26-.055-.34l-.532-.353c-.046-.037-.048-.138-.024-.209.014-.038.021-.056.073-.036.259.113.923.375 1.648.638.672.244 1.225.427 1.459.493.019.006.036.012.03.03C.11-.14.042-.005 0 0" style="fill:#000;fill-opacity:1;fill-rule:nonzero;stroke:none" transform="translate(379.885 425.136)"></path><path d="M0 0c-.035.013-.042-.004-.056-.039-.056-.14-.042-.205.004-.244l.393-.28c.177-.113.156-.267.096-.464-.068-.217-1.331-3.496-1.792-4.688-.25-.669-1.589-4.181-1.868-4.819-.048-.122-.079-.149-.216-.134l-.634.062-.028.003c-.059.003-.127-.112-.147-.164-.009-.021-.016-.038.019-.052l.156-.055c.38-.136.98-.363 1.6-.613.715-.289 1.328-.577 1.589-.683.035-.014.042.003.058.04.02.054.045.165 0 .203l-.425.353c-.106.085-.155.165-.113.27.118.296 1.68 3.962 1.888 4.425.324.801 1.671 3.985 2.209 5.066.036.086.144.204.29.166l.496-.08c.076-.01.149.123.177.192.007.017.014.035-.019.049z" style="fill:#000;fill-opacity:1;fill-rule:nonzero;stroke:none" transform="translate(430.724 433.524)"></path><path d="m0 0 .011.034c.025.091.119.222.27.2L.78.217C.858.216.915.356.934.429c.005.019.01.037-.028.047L0 .719l-2.921.782c-.037.01-.042-.008-.051-.044-.04-.145-.017-.21.032-.243l.424-.231c.191-.089.187-.244.153-.449-.041-.223-.896-3.631-1.208-4.869-.166-.695-1.066-4.343-1.266-5.011-.031-.121-.059-.155-.179-.16h-.017l-.666-.016c-.06-.004-.113-.126-.126-.181-.008-.02-.013-.039.024-.048a40 40 0 0 0 1.824-.452c.746-.197 1.388-.41 1.661-.483.037-.009.042.009.052.048.014.055.025.168-.024.201l-.466.3c-.116.07-.174.144-.144.253.083.308 1.186 4.136 1.335 4.622C-1.342-4.436-.408-1.167 0 0" style="fill:#000;fill-opacity:1;fill-rule:nonzero;stroke:none" transform="translate(420.265 436.293)"></path><path d="M0 0c.064.161.166.202.323.233l.29.031C.671.273.711.4.726.492Q.736.548.68.558l-.767.121-2.222.351c-.037.007-.04-.012-.046-.049-.011-.074.002-.23.055-.255l.645-.256c.141-.06.128-.153.082-.316-.821-3.383-2.137-7.011-2.972-9.403a1.7 1.7 0 0 1-.137-.378l-.129.021a2.4 2.4 0 0 0-.01.42c-.042 2.492-.037 8.417.055 9.959.005.151.091.214.224.212l.463.041c.059.01.11.097.131.226.004.019.006.038-.031.043l-3.786.6c-.038.006-.04-.013-.047-.049-.008-.056-.013-.208.058-.239l.372-.172c.091-.034.137-.098.139-.212.092-2.9.337-8.921.58-11.106.011-.059.038-.121.131-.136l.502-.079c1.375-.199 1.434-.189 1.623.161.636 1.223 3.364 7.546 4.32 9.735z" style="fill:#000;fill-opacity:1;fill-rule:nonzero;stroke:none" transform="translate(415.336 437.604)"></path><path d="M0 0c.005.019-.015.073-.043.122-.025.046-.06.089-.086.097-.017.006-.034.012-.059-.001l-1.504-1.229c-.166-.143-.337-.187-.576-.189-.504.026-1.718.303-2.005.396-.143.045-.225.093-.186.218.163.5 1.477 4.301 1.652 4.778.267.703 1.513 4.17 1.838 4.992.082.191.142.252.35.223l.576-.058.037-.003c.035-.012.106.084.14.191.007.018.011.036-.024.048l-.153.049-3.76 1.222c-.035.012-.043-.006-.048-.024-.035-.107-.045-.202.002-.238l.406-.269c.179-.118.179-.237.117-.433-.173-.656-1.319-4.235-1.538-4.913-.22-.68-1.323-4.194-1.508-4.766a.7.7 0 0 0-.057-.131c-.055-.091-.121-.118-.221-.114l-.559.042c-.06-.001-.13-.095-.152-.167-.007-.021-.014-.039.022-.051.376-.102.654-.182.91-.26.3-.091.567-.18.926-.295 2.018-.657 4.007-1.342 4.115-1.377.125-.041.179.003.215.052l1.13 2.014z" style="fill:#000;fill-opacity:1;fill-rule:nonzero;stroke:none" transform="translate(426.693 425.394)"></path><path d="M0 0c-.652-.237-1.562-.387-2.569-.387s-1.917.15-2.568.387c-.658.235-1.027.567-1.017.859-.01.296.359.626 1.017.862.651.237 1.562.387 2.568.387S-.652 1.958 0 1.721c.657-.236 1.027-.566 1.019-.862C1.027.567.657.235 0 0m1.53.857.001.002v16.709c0 5.768-4.679 10.448-10.449 10.448s-10.448-4.68-10.448-10.448c0-3.201 1.44-6.065 3.708-7.983l.146-.124v.676l-.029.025a9.92 9.92 0 0 0-3.312 7.406 9.95 9.95 0 0 0 9.935 9.936 9.95 9.95 0 0 0 9.937-9.935l-.001-.002V1.723c-.703.55-2.052.888-3.587.896-2.226-.012-4.065-.717-4.098-1.76C-6.634-.182-4.795-.888-2.569-.9-.344-.888 1.492-.182 1.53.857" style="fill:#000;fill-opacity:1;fill-rule:nonzero;stroke:none" transform="translate(391.448 218.127)"></path><path d="M0 0c-2.227-.013-4.064-.719-4.099-1.762.022-.824 1.183-1.425 2.75-1.663l.013-.001a.1.1 0 0 1 .058.022.1.1 0 0 1 .032.067v.331a.09.09 0 0 1-.079.088c-1.362.184-2.288.7-2.262 1.156-.008.296.361.626 1.018.863.653.237 1.564.386 2.569.386 1.006 0 1.917-.149 2.568-.386.659-.237 1.027-.567 1.018-.863.028-.456-.899-.972-2.261-1.156a.087.087 0 0 1-.078-.088v-.331q.002-.04.031-.067a.1.1 0 0 1 .072-.021c1.566.238 2.728.839 2.75 1.663C4.064-.719 2.226-.013 0 0" style="fill:#000;fill-opacity:1;fill-rule:nonzero;stroke:none" transform="translate(453.705 220.748)"></path><path d="M0 0c-.473 0-.928-.033-1.35-.095a.09.09 0 0 1-.077-.088v-.329q0-.042.03-.069a.1.1 0 0 1 .072-.021A9.5 9.5 0 0 0 0-.511c1.005 0 1.915-.15 2.567-.387.659-.236 1.028-.566 1.019-.862.009-.294-.36-.624-1.019-.859-.652-.237-1.562-.387-2.567-.387-1.008 0-1.917.15-2.569.387-.658.235-1.028.565-1.018.859q-.001.038-.026.065a.1.1 0 0 1-.064.026h-.333a.1.1 0 0 1-.064-.026.1.1 0 0 1-.026-.065c.036-1.041 1.872-1.747 4.1-1.76 2.227.013 4.064.719 4.098 1.76C4.064-.717 2.227-.012 0 0" style="fill:#000;fill-opacity:1;fill-rule:nonzero;stroke:none" transform="translate(430.983 220.746)"></path><path d="M0 0c-.008.296.361.626 1.02.861.65.238 1.562.388 2.567.388s1.917-.15 2.568-.388C6.812.626 7.183.296 7.174 0c.009-.292-.362-.624-1.019-.859-.651-.238-1.562-.387-2.568-.387-1.005 0-1.917.149-2.567.387C.361-.624-.008-.292 0 0m29.675 24.921a57.4 57.4 0 0 1-14.726 1.901c-24.591 0-45.053-15.336-49.366-35.586V0c-.034 1.043-1.873 1.749-4.099 1.762-2.226-.013-4.064-.719-4.099-1.762.022-.824 1.183-1.425 2.749-1.663l.012-.001q.034 0 .059.021a.09.09 0 0 1 .031.068v.331a.09.09 0 0 1-.077.088c-1.361.183-2.288.7-2.262 1.156-.009.296.36.626 1.018.862.652.238 1.563.387 2.569.387 1.004 0 1.916-.149 2.569-.387.655-.236 1.025-.565 1.017-.861L-34.931 0v-11.688h.001c-.009-2.492-3.523-4.583-7.929-4.587-4.409.004-7.923 2.096-7.931 4.587q-.001.037-.025.065a.1.1 0 0 1-.065.025h-.334a.1.1 0 0 1-.062-.025.1.1 0 0 1-.028-.065c.015-2.856 3.81-5.096 8.445-5.1 4.627.004 8.415 2.236 8.44 5.087l.002.002A38.2 38.2 0 0 0-31.089-.48c.367-.576 1.344-.995 2.585-1.183l.013-.001q.033 0 .058.021.031.028.032.068v.331a.09.09 0 0 1-.078.088c-1.362.183-2.29.7-2.263 1.156-.007.296.361.626 1.018.862.652.238 1.562.387 2.568.387s1.917-.149 2.569-.387C-23.929.626-23.56.296-23.569 0q0-.035.027-.062a.1.1 0 0 1 .063-.026h.668q.037.001.064.026.025.027.025.063c-.008.296.361.626 1.018.861.652.238 1.562.386 2.569.386s1.916-.148 2.569-.386c.657-.235 1.027-.565 1.017-.861.028-.458-.899-.975-2.262-1.156a.09.09 0 0 1-.077-.089v-.33q.002-.041.032-.069a.1.1 0 0 1 .057-.021l.014.002c1.566.237 2.726.837 2.748 1.663-.033 1.041-1.872 1.748-4.098 1.761-1.96-.012-3.617-.561-4.01-1.403-.393.842-2.049 1.391-4.011 1.403-1.247-.008-2.371-.233-3.125-.612 5.764 10.866 16.542 19.288 29.768 23.034V0c.036-1.041 1.873-1.747 4.1-1.76 2.226.013 4.064.719 4.099 1.76-.035 1.043-1.873 1.748-4.099 1.76C2.052 1.752.701 1.414 0 .863v23.465a56.8 56.8 0 0 0 14.949 1.983c5.11 0 10.04-.668 14.68-1.91a.1.1 0 0 1 .077.017.1.1 0 0 1 .035.07v.347a.09.09 0 0 1-.066.086" style="fill:#000;fill-opacity:1;fill-rule:nonzero;stroke:none" transform="translate(438.757 218.986)"></path></g><path d="M395.965 388.516c5.13-2.603 9.861-3.291 13.42-.62 1.26-.115 2.162-.308 3.291-.989-.806.486-1.479.584-2.257.642-19.943-21.202-27.195-42.835-20.38-62.704-1.404 4.076-2.25 8.164-2.558 12.263-4.572-4.957-7.385-9.723-11.411-15.396.137-7.595.012-14.668 1.16-22.263a192 192 0 0 0-1.429 11.817c-7.006-9.065-10.371-18.762-15.23-28.289-1.073-4.746-.623-10.391.144-14.533-.933 4.521-1.192 9.401-.841 14.575-4.297-5.097-9.677-9.028-14.153-12.89-4.968-11.776-.005-28.016 10.53-46.758 2.808 8.183 5.987 14.251 9.423 18.883-2.611 7.348-2.771 15.162-1.471 23.301l.136-.321c-1.238-7.754-.474-15.101 1.997-22.111 9.424 12.095 20.697 13.927 31.525 19.162.235 1.219.726 2.477 1.525 3.736 1.263.148 3.053-.037 4.422-.396a42 42 0 0 1 4.682 3.564l-.094.075c2.677 8.803 2.493 18.329-.336 28.253-5.306-4.14-10.843-7.965-15.917-12.421l-6.315 3.62c2.103-1.207 4.211-2.034 6.315-3.241 5.074 4.455 10.759 8.449 16.064 12.59 2.829-9.926 3.103-19.948.425-28.749.379-.294.911-.684 1.29-.978-2.09-2.123-3.371-2.92-5.25-3.357a4.3 4.3 0 0 1-1.144.46 50 50 0 0 0-4.166-2.405c-1.35-4.54.485-8.583 3.265-9.73 2.249 2.807 4.581 5.043 7.894 7.347-.021 2.509 1.378 5.258 4.612 8.777-.809 9.91-1.033 20.066.632 30.424-.856 2.582-1.166 5.186-2.021 7.769l2.567-7.748c-.803-5.005-1.156-9.927-1.217-14.797a144 144 0 0 1 .207-9.295l1.457 2.85q.634 1.265 1.321 2.441.159.283.315.555l-.306-.539v-.001c3.851 6.606 8.797 11.214 13.382 14.733 7.218-7.278 13.413-11.384 16.415-19.828l1.435-.121c.765-2.129.693-4.802.157-5.815-.948-1.547-3.852-2.805-5.144-3.087.082-6.584 5.701-8.655 10.468-8.147.366 3.448 1.076 5.667 2.407 8.382-1.389 2.091-5.461 6.753-4.674 11.469-6.083 7.861-11.031 17.177-15.289 26.765-1.439 1.176-2.586 2.859-4.655 3.437-1.603-1.402-5.254-4.867-7.983-7.034-.15-.118-.813-1.797-1.879-4.147 1.214 2.919 1.707 5.232 1.721 6.397.972 2.421 1.114 4.994.668 6.797-.337 4.583-5.38 10.811-7.671 16.465-2.404 5.932-1.71 8.322-2.848 14.511-1.386 7.543-3.473 12.458-.897 21.653-1.825 3.295-4.656 7.452-5.808 10.969.855 1.431 2.006 3.137 2.862 4.569a1.92 1.92 0 0 0 1.218-.065l-2.566-4.293c1.152-3.518 2.594-6.94 4.421-10.232l11.327 3.452c10.449-1.29 16.974-5.379 26.149 3.073.204 2.072.101 4.33-.255 6.737-11.663 7.708-28.839 12.758-38.305 12.241l-.795-.815q.66-.184 1.338-.312c-1.939.369-3.818.477-5.532 1.576-3.975-1.254-7.481-1.492-11.79-1.903m22.941-.39-.383.065a2.2 2.2 0 0 0-.558.815c3.794-.979 7.576-1.884 11.306-2.646l-.902.154c-2.086.142-6.074-.921-7.461-2.375-2.151.402-2.637 2.59-2.002 3.987m-9.827.463c-.077-.105-.213-.142-.399-.126-1.302.342-4.648.729-6.95.054 2.41.729 6.038.416 7.349.072m-7.442-.1h-.002zm41.525-13.127c-.06 1.982 2.133 2.7 2.75 1.671.348-.578-.246-1.718-1.731-1.338-.842-1.783 1.518-3.727 4.18-4.217-3.7.415-5.152 2.333-5.199 3.884m-11.763-79.084c-4.507-4.126-7.262-6.207-10.222-10.296 2.96 4.091 5.715 6.171 10.222 10.296m-13.313-15.192.002.003zm0 0v-.001zm-.004-.006.004.005z" style="fill:url(#b);stroke:none" transform="matrix(1.33333 0 0 -1.33333 0 800)" data-source="https://football-logos.cc"></path><g clip-path="url(#c)" transform="matrix(1.33333 0 0 -1.33333 0 800)" data-source="https://football-logos.cc"><path d="m0 0 .332-.058-.185-.285c-2.686-4.11-6.939-7.386-8.291-11.522 5.146 2.951 9.654 4.458 15.815 6.56l-.017.741.043.061C11.702 1.14 15.294 6.544 19.853 11.5a45 45 0 0 0-.054 2.241c0 14.587 6.753 29.28 19.614 44.039-15.308-8.064-36.707-12.572-56.475-36.118 7.333 5.424 17.628 8.407 28.616 9.9l.127-.423-6.674-3.172a12 12 0 0 0 2.769.027l.09-.417c-.576-.33-1.179-.609-1.824-.962.317-.118.611-.262.863-.442l.287-.205-.308-.173c-4.286-2.392-8.262-5.479-12.078-8.928 3.823 2.236 7.506 3.309 11.117 3.913l.14-.419C-.815 16.785-7.329 12.815-13.411 8.368c2.704 1.3 5.035 1.998 7.016 2.074l.085-.433c-4.086-1.497-6.851-3.445-9.269-5.529 4.561 2.769 8.584 4.102 14.786 6.471l.253-.351c-1.093-1.285-3.173-2.73-3.109-3.565a.55.55 0 0 1 .123-.35l.127-.169-4.454-3.754-.018-.017c.519.065 1.089.097 1.725.097 1.569 0 3.539-.193 6.154-.553l.374-.05-.225-.305C-.514 1.036-1.282.597-1.909.027c.314.039.614.06.908.06C-.663.087-.334.06 0 0" style="fill:#3c3c3b;fill-opacity:1;fill-rule:nonzero;stroke:none" transform="translate(367.327 326.871)"></path><path d="M0 0c-.389.408-.528.827-.846 1.283C.512.881 1.506.251 2.585-.293A49 49 0 0 1 0 0m-39.312-68.985c3.905 5.509 6.672 10.148 11.006 14.931.34-3.944 1.177-7.879 2.527-11.802a.22.22 0 0 1 .112-.129.2.2 0 0 1 .1-.022q.036 0 .072.011.086.031.129.115a.23.23 0 0 1 .01.17 45.4 45.4 0 0 0-2.485 14.827c-.001 15.447 7.761 31.617 22.743 47.571.717-.059 1.325-.161 2.053-.6.05-.03.109-.04.168-.025.058.014.107.05.139.103a.22.22 0 0 1 .025.168.23.23 0 0 1-.101.137c-1.159.701-2.116.906-3.386 1.021l-.155-.044c-1.524-1.14-3.257-1.652-5.167-1.653-2.236-.001-4.711.709-7.311 1.946 3.919.366 7.232.649 10.95 1.806 1.751-1.082 3.636-1.189 5.522-1.551a.22.22 0 0 1 .167.035.22.22 0 0 1 .098.187.22.22 0 0 1-.038.124.23.23 0 0 1-.144.093q-.478.093-.948.213.23.239.461.476.62.033 1.287.032C8.115-.84 24.173-5.743 35.236-13.03a31 31 0 0 0 .34-4.399q.002-1.08-.096-2.098c-4.302-3.938-7.966-5.08-11.765-5.084-4.224-.003-8.628 1.442-14.139 2.124l-.093-.008-11.154-3.4c-1.76 3.2-3.158 6.523-4.284 9.938q1.257 2.104 2.517 4.207a.224.224 0 0 1-.113.323 2.1 2.1 0 0 1-.774.147q-.282 0-.581-.076a.22.22 0 0 1-.136-.102c-.853-1.423-2.002-3.129-2.862-4.567a.22.22 0 0 1-.022-.184c1.16-3.539 3.963-7.659 5.781-10.929-.874-3.144-1.208-5.801-1.208-8.232.002-4.673 1.218-8.505 2.124-13.432 1.135-6.148.441-8.579 2.862-14.555 2.316-5.689 7.346-11.942 7.656-16.396q.239-.984.24-2.144a12.5 12.5 0 0 0-.892-4.556.2.2 0 0 1-.015-.054l-.001-.003v-.007a.2.2 0 0 1 .009-.085v-.002l.001-.001.007-.019.004-.008a.23.23 0 0 1 .2-.128q.032 0 .062.01a.2.2 0 0 1 .053.021l.01.006.001.001.024.019.002.001.009.01q.03.03.049.072c.973 2.427 1.594 4.357 1.609 6.912l-.012.079C8.694-74.25 4.769-68.538 2.52-62.904.049-56.717.692-54.845-.451-48.616c-.951 5.16-2.312 9.133-2.311 13.937.001 2.215.289 4.613 1.042 7.391 3.704 1.117 7.488 1.682 11.233 2.818 5.478-.081 12.102-1.254 17.449-2.559a.22.22 0 0 1 .178.032c1.577 1.068 4.657 3.466 9.381 6.822a.23.23 0 0 1 .092.161q.056.584.055 1.217c0 1.88-.335 4.048-.624 6.016a.23.23 0 0 1-.099.155C27.008-6.727 14.394-2.333 4.781-.64l-.006.003c-1.587.364-3.704 2.014-6.311 2.584a.224.224 0 0 1-.198-.385c.501-.443.638-.957.997-1.507-.702.045-1.375.07-2.008.071q-.19 0-.373-.004a.22.22 0 0 1-.157-.067A119 119 0 0 1-4.33-1.033 15 15 0 0 0-7.689.569a.22.22 0 0 1-.188.026c-3.956-1.246-8.128-1.957-12.428-2.367a.225.225 0 0 1-.198-.181.22.22 0 0 1 .118-.241c3.071-1.559 6.248-2.582 9.105-2.582h.008c1.626 0 3.147.339 4.472 1.106q-.61-.668-1.204-1.334l-.002-.002c-15.908-8.167-42.813-13.638-63.578-43.077a.224.224 0 0 1 .033-.297.23.23 0 0 1 .299.002c9.458 8.5 20.564 13.309 31.834 15.102l-6.699-3.193a.224.224 0 0 1 .138-.422c1.326.257 2.795.594 4.139.618a21 21 0 0 1-1.116-.657 9 9 0 0 1-.714.143.225.225 0 0 1-.255-.174.227.227 0 0 1 .161-.263c.088-.024.167-.049.248-.075-1.017-.7-1.837-1.428-2.435-2.164l-.002-.002h.001l-.012-.014a.223.223 0 0 1 .337-.293c1.003 1.063 1.897 1.735 2.717 2.239q.236-.109.459-.237c-4.877-2.785-8.873-6.442-13.16-10.489a.221.221 0 0 1-.009-.317.22.22 0 0 1 .161-.07c.056 0 .111.021.155.062 4.374 4.131 8.932 7.844 13.909 10.622a.225.225 0 0 1 .022.378c-.252.18-.553.318-.872.437.649.355 1.255.636 1.832.967.084.05.128.146.106.242a.22.22 0 0 1-.197.175c-.465.044-.886.067-1.291.067-.506 0-.982-.033-1.476-.095l6.672 3.172a.224.224 0 0 1-.125.424c-10.987-1.494-21.28-4.476-28.613-9.898C-45.565-18.542-24.16-14.035-8.854-5.966-21.723-20.729-28.479-35.422-28.48-50.017c0-.747.022-1.494.058-2.24-4.558-4.954-8.155-10.36-12.158-16.003l-.041-.134.014-.669c-6.161-2.102-10.67-3.608-15.816-6.56 1.354 4.136 5.606 7.414 8.293 11.523a.225.225 0 0 1-.149.344 6 6 0 0 1-1 .086 8 8 0 0 1-.909-.059c.627.569 1.395 1.008 2.066 1.905a.22.22 0 0 1 .028.22.23.23 0 0 1-.177.135c-2.614.36-4.585.553-6.156.553a13 13 0 0 1-1.771-.105c.02.009.044.006.062.021l4.296 3.623c.09.076.106.21.035.306a.55.55 0 0 0-.123.349c-.063.833 2.017 2.279 3.11 3.566a.224.224 0 0 1-.253.349c-8.188-3.126-12.58-4.452-19.426-9.652a1.1 1.1 0 0 0-.091.464c0 .169.029.361.094.559a.223.223 0 0 1-.404.184c-.747-1.273-2.389-3.449-3.159-4.759a.224.224 0 0 1 .329-.292c6.685 5.111 12.072 8.478 19.877 11.544-.751-.866-1.228-1.37-1.243-2.184q0-.101.012-.207l-3.36-3.524a.224.224 0 0 1 0-.308.2.2 0 0 1 .125-.058c-1.429-.206-2.484-.675-3.46-1.444a.22.22 0 0 1-.077-.237.22.22 0 0 1 .191-.162l.832-.085.144.035c1.318.847 2.578 1.281 4.798 1.284 1.192 0 2.654-.129 4.53-.394-.607-.883-1.746-1.708-2.712-2.499a.225.225 0 0 1-.056-.278.224.224 0 0 1 .263-.108c.726.215 1.222.281 1.694.281q.154 0 .308-.009c-2.743-4.099-6.92-8.007-8.108-12.48a.23.23 0 0 1 .081-.237.23.23 0 0 1 .249-.014 93 93 0 0 0 17.046 7.853c.071-2.739.218-5.477.433-8.216-5.827-9.453-9.962-18.604-14.775-27.861-4.258-5.051-11.354-9.242-15.854-13.117l-.059-.08c-1.508-3.472-2.19-7.136-2.19-10.975.005-11.089 5.661-23.648 13.49-37.584l.003-.002a.2.2 0 0 1 .116-.09c.007-.003.009-.011.016-.013a.226.226 0 0 1 .17.021.22.22 0 0 1 .104.133l.002.002a.2.2 0 0 1 .008.065q-.001.004-.003.009a.2.2 0 0 1-.02.075q-.003.01-.005.02c-3.045 5.415-5.612 10.614-7.617 15.557-3.085 7.61-4.827 14.606-4.825 20.801 0 2.94.396 5.694 1.211 8.256.205.645.43 1.281.69 1.899 1.496 1.289 3.096 2.592 4.723 3.941 3.067 2.546 6.222 5.277 8.988 8.461a63 63 0 0 1-.116-3.695c0-3.59.321-7.022.991-10.272l.005-.025.001-.004a.222.222 0 1 1 .437.086v.004l-.007.035c-.438 2.371-.77 5.236-.77 8.133 0 2.125.177 4.266.623 6.242 4.778 9.375 8.114 18.876 14.851 27.764.344-3.75.809-7.499 1.375-11.248a.224.224 0 0 1 .22-.191q.019 0 .034.002a.23.23 0 0 1 .148.089.23.23 0 0 1 .043.133l-.001.033c-1.141 7.548-1.023 14.588-1.158 22.161" style="fill:#000;fill-opacity:1;fill-rule:nonzero;stroke:none" transform="translate(415.606 390.628)"></path><path d="M0 0c.944.001 1.487.656 1.489 1.27 0 .168-.04.335-.127.482-.238.394-.665.58-1.097.576-.957-.002-2.072-.838-2.073-2.287l.002-.088c.053-1.687 1.636-3.68 5.401-4.096l.025-.001a.223.223 0 0 1 .041.443C1.425-3.302-.548-1.795-.514-.458q.002.248.087.498Q-.202 0 0 0" style="fill:#000;fill-opacity:1;fill-rule:nonzero;stroke:none" transform="translate(444.742 375.398)"></path><path d="M-1.059 2.882q.207.018.412.018c1.504.006 2.949-.677 4.347-1.058C2.347 1.361.874.28-.001.224c-1.032.078-1.327.721-1.35 1.487-.001.423.12.862.292 1.171M.194-.824l.041-.003a.22.22 0 0 1 .161.069C1.598.528 5.206 1.573 7.3 1.562q.2-.001.381-.014l.881-.151a.223.223 0 0 1 .082.439C4.917 2.597 1.139 3.502-2.65 4.479a.23.23 0 0 1-.226-.071.23.23 0 0 1-.037-.232c.177-.43.383-.677.609-.89l.118-.059.109-.019A3.3 3.3 0 0 1-2.25 2.15C-2.26.87-1.498-.512.194-.824" style="fill:#000;fill-opacity:1;fill-rule:nonzero;stroke:none" transform="translate(420.673 384.744)"></path><path d="M0 0c-.757.198-2.198.378-3.764.379-1.38-.005-2.848-.136-4.014-.554-.537-.188-1.014-.444-1.392-.786l-.035-.032-.01-.01-.045-.043a.223.223 0 0 1 0-.317l.008-.008.003-.002.006-.005.002-.001.007-.006a.22.22 0 0 1 .29.022 2 2 0 0 0 .182.166l.008.007c.336.272.787.487 1.309.653.913.286 2.033.399 3.124.394 1.556 0 3.055-.219 3.808-.416.074-.01.109-.01.14-.01a.6.6 0 0 1 .493.216A.225.225 0 0 1 0 0" style="fill:#000;fill-opacity:1;fill-rule:nonzero;stroke:none" transform="translate(409.136 388.807)"></path><path d="M0 0c0 2.364.189 4.767.579 7.208l-.016.123-.137.319a.22.22 0 0 1-.233.134A.23.23 0 0 1 0 7.598c-.512-3.207-.798-6.364-.798-9.465 0-5.7.968-11.209 3.283-16.469-2.115-3.143-2.91-6.624-4.353-9.876a.223.223 0 0 1 .4-.198c1.833 3.275 3.345 7.094 5.455 9.742a.22.22 0 0 1 .03.231C1.398-12.542 0-6.412 0 0" style="fill:#000;fill-opacity:1;fill-rule:nonzero;stroke:none" transform="translate(363.98 257.992)"></path><path d="M0 0c-1.291 1.928-4.745 5.959-4.737 10.118 0 .398.031.792.097 1.191a.22.22 0 0 1-.044.173c-6.068 7.842-11.007 17.141-15.261 26.72l-.064.082c-1.405 1.139-2.575 2.868-4.734 3.479a.22.22 0 0 1-.208-.047c-1.612-1.41-5.26-4.872-7.978-7.028-.145-.142-.194-.304-.363-.651-1.024-2.262-4.336-10.597-8.775-15.691.08 4.664.435 9.376 1.205 14.163l-.008.106q-1.286 3.874-2.568 7.749a.223.223 0 1 1-.425-.142c.842-2.537 1.153-5.123 2.004-7.717-.902-5.609-1.245-11.158-1.245-16.639 0-4.611.245-9.175.611-13.684-3.154-3.448-4.581-6.19-4.605-8.741-3.225-2.254-5.534-4.462-7.737-7.194-1.957.897-3.429 3.358-3.429 6.426 0 1.65.427 3.472 1.424 5.315.441.045.901.078 1.36.078.932 0 1.855-.14 2.643-.608a.23.23 0 0 1 .164-.024c1.922.443 3.265 1.285 5.36 3.418a.22.22 0 0 1 .063.171.23.23 0 0 1-.085.163c-.344.265-.808.606-1.17.884 1.231 4.106 1.825 8.465 1.825 12.951 0 5.157-.784 10.481-2.292 15.774a.23.23 0 0 1-.146.151.22.22 0 0 1-.207-.036c-5.258-4.103-10.899-8.066-15.953-12.492-2.078 1.176-4.136 1.994-6.178 3.162a.223.223 0 1 1-.223-.387c2.105-1.205 4.21-2.415 6.316-3.621a.225.225 0 0 1 .259.026c4.977 4.373 10.412 8.141 15.642 12.207 1.416-5.065 2.14-10.026 2.14-14.833 0-4.466-.622-8.801-1.892-12.973a.23.23 0 0 1 .078-.243l.972-.755c-.869-1.223-2.951-2.712-4.552-2.74-1.161.427-2.88.706-4.327.706a8 8 0 0 1-.992-.053.22.22 0 0 1-.164-.102c-1.197-1.886-1.722-3.781-1.72-5.55 0-3.536 2.091-6.548 5.008-8.033a.2.2 0 0 1 .099-.025c.066 0 .132.03.176.085 2.239 2.795 4.829 5.414 8.123 7.703a.22.22 0 0 1 .093.207v.026c-.007 2.394 1.711 5.415 4.912 8.894a.23.23 0 0 1 .058.17c-.377 4.624-.636 9.264-.636 13.948 0 .476.007.952.012 1.429 6.596 7.143 8.684 14.741 9.753 16.634 3.344 2.859 4.374 3.833 7.538 6.48h.052c1.457.027 3.174-1.893 4.354-2.857.843-2.08 8.827-19.232 14.879-27.101a7 7 0 0 1-.086-1.123C-5.574 5.42-2.012 1.76-.713-.153-1.87-2.977-2.786-5.572-2.977-7.82a7 7 0 0 0-1.151-.092c-3.219.013-7.032 2-7.476 7.259 1.247.831 2.77 1.657 4.109 3.026l.057.101c.159.635.231 1.344.231 2.186 0 1.106-.124 2.437-.345 4.127a.22.22 0 0 1-.203.195c-.42.035-.842.102-1.283.146-3.266 8.823-9.76 13.261-16.803 19.981a.22.22 0 0 1-.305.004c-6.001-5.492-8.945-7.4-13.381-15.285a46 46 0 0 1-1.31-2.42l-.002-.004a.22.22 0 0 1 .099-.299.225.225 0 0 1 .3.096c.465.889.912 1.71 1.342 2.475 3.786 6.485 8.631 11.029 13.153 14.519C-18.764 20.986-12.672 16.9-9.721 8.59a.23.23 0 0 1 .193-.148l1.289-.108c.349-1.035.506-2.199.506-3.219.003-.994-.153-1.855-.382-2.282-.854-1.429-3.755-2.715-4.992-2.974a.22.22 0 0 1-.177-.22c.066-6.075 4.804-8.441 9.258-8.441h.052q.71.001 1.404.073a.225.225 0 0 1 .198.2C-2.006-5.102-1.309-2.922.015-.223A.23.23 0 0 1 0 0" style="fill:#000;fill-opacity:1;fill-rule:nonzero;stroke:none" transform="translate(457.394 267.33)"></path><path d="M0 0c1.251.094 3.357 1.855 4.803 1.846-1.809.199-3.807 1.487-5.993 1.25C-1.787 2.164-1.879.106 0 0" style="fill:#e20613;fill-opacity:1;fill-rule:evenodd;stroke:none" transform="translate(420.673 384.743)"></path></g><!-- source: https://football-logos.cc --></svg>