<svg xmlns="http://www.w3.org/2000/svg" xmlns:xlink="http://www.w3.org/1999/xlink" version="1.2" viewBox="3.07 3.46 181.31 181.3"><!-- Source: https://football-logos.cc --><use xlink:href="#a" width="100%" height="100%" x="285.116" y="49.467" transform="translate(-195.43 -391.14)" data-source="https://football-logos.cc"></use><g stroke-width="1.123"><path fill="#025c47" d="M184.378 94.102c0 50.067-40.59 90.654-90.655 90.654-50.067 0-90.655-40.586-90.655-90.654 0-50.064 40.586-90.646 90.655-90.646 50.063 0 90.655 40.586 90.655 90.646"></path><path fill="#fff" d="M177.916 93.88c0 46.561-37.749 84.307-84.308 84.307-46.562 0-84.307-37.745-84.307-84.308 0-46.56 37.744-84.304 84.307-84.304 46.56 0 84.308 37.745 84.308 84.304"></path><path fill="#de1738" d="M171.908 94.102c0 43.057-34.905 77.962-77.962 77.962-43.055 0-77.959-34.905-77.959-77.962 0-43.054 34.904-77.959 77.959-77.959 43.057 0 77.962 34.905 77.962 77.959"></path><path fill="#025c47" d="M165.57 94.11c0 39.554-32.063 71.617-71.616 71.617-39.55 0-71.614-32.063-71.614-71.616s32.064-71.614 71.614-71.614c39.553 0 71.616 32.061 71.616 71.614"></path><g fill="#fff" stroke="#de1738" stroke-width="1.615"><path stroke-width="1.4374792" d="M59.455 132.936h15.84V80.272l-20.6-.181-.178-23.465-17.377.013.178 76.367 17.283.038zM145.962 56.674l-.038 16.521h-14.836v43.357l19.94.066.013 16.262h-34.288l.18-76.244z"></path><path stroke-width="1.4374792" d="M59.57 96.745h-5.04v35.447h5.04z"></path></g><path fill="#025c47" d="M58.92 133.71h-3.754V97.412h3.755z"></path><path fill="#fff" stroke="#de1738" stroke-width="1.4374792" d="M108.926 49.83 115 30.142H90.707l-16.96 13.612 17.797 94.865H80.446l-6.492 19.895 26.387.209 13.82-14.242L96.36 50.454z"></path></g><use xlink:href="#b" width="100%" height="100%" x="238.209" y="708.784" transform="translate(-195.43 -391.14)" data-source="https://football-logos.cc"></use><use xlink:href="#b" width="100%" height="100%" x="332.769" y="708.784" transform="translate(-195.43 -391.14)" data-source="https://football-logos.cc"></use><!-- source: https://football-logos.cc --></svg>