<svg xmlns="http://www.w3.org/2000/svg" viewBox="0 0 250 280.14"><!-- Source: https://football-logos.cc --><path fill="#1e1a17" fill-rule="evenodd" d="M125.66 0q29.41 7.29 41.07 10.78Q208.29 23.23 250 34.12v68.01q-.12.01-.23-.09a.469.462 20.902 0 1-.16-.35l-.26-66.5a.967.953-83.623 0 0-.74-.94q-16.48-3.89-32.97-8.66c-33.3-9.61-60.42-17.76-91.05-25.17a1.885 1.759 42.408 0 0-.94.01L.82 34.4a.477.469 81.376 0 0-.34.47q.74 23.33.18 46.04c-.03.96.23 2.2.19 3.35Q.4 95.08.68 104q.07 2.23-.68 4.8V35.25q.18-1.59 2.32-2.15 21.74-5.65 75.44-20.82Q92.06 8.24 123.23 0z" data-source="https://football-logos.cc"></path><path fill="#1f1a17" fill-rule="evenodd" d="M250 102.13v38.36l-.16 4.43a1.602 1.573-34.999 0 1-.08.43q-.89 2.74-3.87 9.51c-13.17 29.88-29.07 57.6-50.9 81.44q-14.57 15.84-32.68 27.41c-11.77 6.96-22.96 12.16-36.3 15.79a2.782 2.744 45.392 0 1-1.46-.02c-34.54-10.01-64.26-31.36-85.63-60.14q-19.83-26.7-32.18-57.35-3.24-8.06-6.31-16.37L0 142.1v-33.3q.75-2.57.68-4.8-.28-8.92.17-19.74c.04-1.15-.22-2.39-.19-3.35Q1.22 58.2.48 34.87a.477.469 81.376 0 1 .34-.47L123.65.43a1.885 1.759 42.408 0 1 .94-.01c30.63 7.41 57.75 15.56 91.05 25.17q16.49 4.77 32.97 8.66a.967.953-83.623 0 1 .74.94l.26 66.5a.469.462 20.902 0 0 .16.35q.11.1.23.09M92.223 14.91a.59.59 10.189 0 0-.433.569V76.25a.59.59 0 0 0 .59.59h65.93a.59.59-78.775 0 0 .59-.59V15.045a.59.59-13.708 0 0-.452-.574l-34.389-8.295a.6.6 45.521 0 0-.296.005zM4.2 75.94a.64.64-75.888 0 0 .64.64h83.77a.64.64.214 0 0 .64-.64V16.011a.64.64 64.554 0 0-.811-.617L4.669 38.56a.64.64 74.135 0 0-.469.617zm242.26-36.423a.67.67-19.774 0 0-.487-.645l-83.49-23.641a.67.67-79.91 0 0-.853.645V76.13a.67.67 70.877 0 0 .67.67h83.49a.67.67 30.669 0 0 .67-.67zM176.95 219.22q-5.43 3.21-8.77 6.97-4.78 5.39-6.62 7.11c-1.58 1.49-3.43 3.8-4.45 5.48a.439.435 9.404 0 0 .47.65c10.13-2.13 15.79-10.69 19.65-20q.47-.2 1.42.44-3.56 5.85-4.75 12.44c-.53 3.01-1.21 3.13-3.31 5.37a.352.345 17.448 0 0 .31.58l7.63-1.01a1.25 1.179 24.882 0 0 .48-.16q6.06-3.46 10.9-8.6 1.42 1.8 2.93 2.65a1.022 1.012-52.643 0 0 1.22-.17c21.69-21.96 37.42-49.58 49.94-77.67 1.43-3.21 2.66-5.41 2.64-9.05q-.22-41.65-.31-62.96a.8.8 45 0 0-.8-.8H4.68a.107.104 63.455 0 0-.06.19l79.42 63.45a.664.652 40.632 0 0 .89-.06c21.17-22.79 57.31-23.54 78.39-.15 17.12 18.98 18.64 45.49 4.33 66.58a.516.505 36.529 0 0 .11.69l9.14 7.31a.321.299-81.584 0 1 .11.16q.11.38-.06.56M61.12 153.87q1.08-4.84 2.68-6.9a.5.309-31.717 0 0 .07-.14l.86-5.38a2.044 1.903-42.957 0 0 .02-.28q-.02-5.45-2.09-10.55a1.925 1.924 48.975 0 0-3.45-.24l-2.4 4.15a6.199 6.168 48.939 0 0-.36 5.43q1.58 3.84 2.19 10.53a1.993 1.959 30.463 0 0 .18.67l1.31 2.82a.527.524-51.17 0 0 .99-.11m-7.47-14.44c-4.28 1.43-3.97 10.75-3.27 14.25q1.14 5.75 3.16 13.67a.39.389-41.086 0 0 .74.05q2.21-5.55 3.55-11.71.87-4.03-1.15-7.84-.66-1.26-2.35-8.04a.535.527 73.795 0 0-.68-.38m23.08 3.58-10.09 1.71a3.052 3.046-4.403 0 0-2.55 2.97q-.05 3.6-2.61 7.61a.711.704-73.691 0 0 .59 1.09h1.98a1.409 1.407 29.106 0 0 .74-.21q2.63-1.56 5.89-2.66c5.5-1.85 7.52-4.02 6.89-9.88a.723.716-7.874 0 0-.84-.63m60.33 65.17q8.61-4.51 12.95-11.19c15.77-24.25-6.95-55.28-34.74-46.54q-9.11 2.86-15.02 10.31l-15.77-13.18a.67.663-52.346 0 0-.97.13c-17.22 24.25-11.83 57.79 13.02 74.5 22.07 14.84 51.51 10.97 69.18-9.18a.567.563-50.067 0 0-.07-.82l-15.44-12.34a.649.646 39.091 0 0-.89.09q-5.11 5.91-12.25 8.22M67.5 220.56l-5.25-11.61a1.943 1.931 7.416 0 0-.55-.71q-3.58-2.88-5.97-7.37a.39.39 89.466 0 1 .52-.53q.85.42 1.14-.08a.274.266-37.765 0 0 .03-.21l-.26-.91a1.292 1.289-34.253 0 1 .21-1.1q1.15-1.54 3.69-4.93.85-1.14 2.47-6.32c1.36-4.32.4-7.84-1.35-12a.406.405-41.738 0 0-.73-.04l-2.82 5.09a3.306 3.287 82.993 0 1-.66.85l-3 2.78a3.018 2.994-29.281 0 0-.86 3.01l2.71 9.8a.452.451 24.116 0 1-.84.32c-1.85-3.73-3.87-8.36-3.76-12.35a1.432 1.384-25.578 0 1 .32-.86q1.32-1.62 1.19-4.66c-.23-5.68-1.51-14.01-3.4-19.96q-1.56-4.91-1.82-7.61a.413.412 68.662 0 0-.66-.29c-3.88 2.9-2.02 16.8-.94 21.21a1.395 1.307 24.699 0 0 .11.27l3.34 6.61a.413.41 6.345 0 1-.63.5c-2.89-2.37-4.71-7.3-5.92-11.02a.437.435-52.241 0 0-.85.11c-.82 12.48 3.66 20.7 11.5 29.57a.569.562-44.623 0 1-.01.76l-.27.16a.801.8-37.244 0 1-.96-.13l-5.32-5.33a.414.412 8.883 0 0-.66.48l9.46 18.4a2.001 1.605-83.736 0 0 .21.33l2.19 2.86a2.937 2.916 87.71 0 0 .71.66l7.24 4.64a.311.311 4.071 0 0 .45-.39m-4.73-55.59c-4.31.61-8.36 1.88-8.44 7q-.08 4.31 1.05 8.7a.461.46-27.676 0 0 .74.23q1.06-.87 1.62-2.18 1.6-3.76 3.85-5.85 3.13-2.9 3.96-6.75a.776.775-86.451 0 1 .69-.61c4.73-.48 6.44-4.17 6.55-8.59a.601.598 83.033 0 0-.75-.59q-4.22 1.12-8.86 1.96c-3.22.58-5.18 2.41-5.76 5.57a.453.449 87.608 0 0 .56.52l2.97-.82a.926.893 48.345 0 1 .65.05l1.28.58a.411.41 53.064 0 1-.11.78m4.61 50.19-.63-22.49a.353.352-10.092 0 0-.46-.32c-7.54 2.31-5.69 9.05-3.9 14.52a2.686 2.206 78.465 0 0 .14.35l4.02 8.15a.44.437-58.993 0 0 .83-.21m.61-7.27q.05 7.89 3.94 13.43a5.54 5.507 1.373 0 0 1.17 1.22q4.87 3.73 7.58 8.74a.529.528-61.823 0 0 .99-.3q-.24-2.77-1.39-5.72-3.88-9.99-11.36-17.75a.543.54-67.035 0 0-.93.38m10.11 12.12q1.05 1.57 2.78 5.06c3.41 6.85 9.44 13.32 17.04 14.31a.357.356 78.084 0 0 .35-.54q-2.92-4.75-6.85-7.8a4.411 3.992 2.855 0 1-.77-.77q-5.15-6.74-11.93-10.91a.46.459 88.689 0 0-.62.65m6.51 17.85-3.66-5a.47.29 76.717 0 0-.11-.11c-3.63-2.55-5.98-4.51-9.41-6.3q-6.45-3.39-11.48-7.03a.443.443 5.162 0 0-.66.55c3.33 7 10.37 13.24 16.9 17.06a1.576 1.472-24.327 0 0 .59.2l7.61 1.01a.242.237 75.614 0 0 .22-.38m5.89-10.28q4.63 6.99 9.22 9.8 5.11 3.12 13.58.97a.398.394-29.195 0 0 .19-.66q-5.83-5.98-13.32-7.84-6.08-1.51-9.29-2.75a.322.32 83.514 0 0-.38.48m74.359.048a.321.319-83.427 0 0-.378-.479q-3.2 1.231-9.262 2.727-7.467 1.842-13.286 7.793a.397.393 29.281 0 0 .188.658q8.438 2.156 13.535-.946 4.579-2.794 9.203-9.753M79.88 241.85a.368.368 58.837 0 0-.16.65q6.06 4.81 14.53 6.99a4.638 4.635 32.32 0 0 4.14-.93l5.17-4.31a1.399 1.398 30.156 0 0-.65-2.45q-4.82-.86-9.92-2.32c-4.85-1.38-8.96 1.61-13.11 2.37m95.57.002c-4.138-.757-8.235-3.737-13.07-2.361q-5.084 1.457-9.888 2.315a1.395 1.394-30.165 0 0-.648 2.442l5.155 4.296a4.624 4.621-32.329 0 0 4.127.926q8.443-2.174 14.483-6.97a.367.367-58.847 0 0-.159-.648m-48.208 5.202q-.718-1.549-.448-3.157a.972.966 21.524 0 0-.429-.979c-5.733-3.658-13.833-5.37-19.209-.157q-.8.768-4.277 5.142a1.16 1.16-71.037 0 1-.92.449h-1.108a.666.66-18.885 0 0-.53 1.069q6.709 8.523 16.74 3.362a5.019 4.92 8.291 0 0 1.299-.948c2.598-2.566 5.086-5.192 8.342-4.172a.447.442-3.801 0 0 .54-.609m.868.016a.448.442 3.823 0 0 .54.61c3.26-1.02 5.75 1.61 8.35 4.18a5.025 4.925-8.269 0 0 1.3.95q10.04 5.17 16.76-3.36a.667.661 18.907 0 0-.53-1.07h-1.11a1.17 1.17 71.059 0 1-.92-.45q-3.48-4.38-4.28-5.15c-5.38-5.22-13.49-3.51-19.23.15a.973.967-21.502 0 0-.43.98q.27 1.61-.45 3.16"></path><path fill="#da251c" fill-rule="evenodd" d="m92.223 14.91 31.54-8.729a.6.6 86.003 0 1 .296-.005l34.389 8.295a.59.59 42.122 0 1 .452.574V76.25a.59.59-53.172 0 1-.59.59H92.38a.59.59-45 0 1-.59-.59V15.479a.59.59 31.874 0 1 .433-.569m46.847 21.38-.42-15.25a.574.57 54.055 0 0-1.11-.18l-.71 2.02a1.86 1.855-67.939 0 1-2.52 1.07c-6.54-2.96-12.21-4.89-19.29-1.6q-5.85 2.72-7.48 8.79c-3.45 12.96 11.09 18.35 19.63 22.69 4.8 2.45 9.05 7.28 4.89 12.44-3.53 4.4-10.72 3.47-14.9.85q-6.88-4.31-8.68-13.43a.528.517 83.311 0 0-.52-.42l-.28.01a.691.69-.855 0 0-.67.69v17.08a.821.819-30.731 0 0 1.54.39q1.23-2.27 3.45-2.6a1.934 1.86-35.992 0 1 1.01.14q.19.08 6.54 2.12 6 1.92 12.87-.7c9.62-3.68 13.65-16.05 5.22-23.64-6.69-6.02-19.19-8.79-21.88-14.16-2.26-4.49 1.19-8.65 5.77-9.18 8.1-.94 14.66 5.55 15.97 13.23a.516.51-5.116 0 0 .52.43l.32-.01a.751.75 88.116 0 0 .73-.78M4.2 75.94V39.177a.64.64-62.285 0 1 .469-.617l83.77-23.166a.64.64-62.8 0 1 .811.617V75.94a.64.64.638 0 1-.64.64H4.84a.64.64-51.194 0 1-.64-.64m25.12-3.57h12.7a.35.34 0 0 0 .35-.34v-.26a.523.522 2.39 0 0-.48-.52q-2.3-.19-3.3-.89a1.269 1.26-62.93 0 1-.47-1.47l2.55-7.2a.902.896 9.577 0 1 .85-.6h11.61a.948.938-12.097 0 1 .86.55L57 68.31a1.832 1.825 73.089 0 1-1.36 2.56l-3.1.53a.447.437 80.86 0 0-.36.51l.05.29a.215.206-4.793 0 0 .21.17h18.98a.505.502 54.481 0 0 .16-.98l-2.07-.74a1.449 1.408 80.108 0 1-.69-.5q-1.76-2.33-2.89-4.84-9.1-20.17-14.82-32.96a.511.509-44.861 0 0-.93 0q-9.51 20.84-15.59 33.96-1.84 3.96-5.42 5.06a.511.511 36.484 0 0 .15 1m217.14-32.853V76.13a.67.67 41.346 0 1-.67.67H162.3a.67.67-72.273 0 1-.67-.67V15.876a.67.67-55.123 0 1 .853-.645l83.49 23.641a.67.67 39.281 0 1 .487.645M220.32 55.94h-16.85a.38.37 0 0 0-.38.37v.29a.351.34 1.791 0 0 .33.34q3.4.24 4.2 1.79a.438.415-61.845 0 1 .06.22l.11 9.75a.93.93 81.575 0 1-.66.89c-17.69 5.16-18.65-15.56-15.27-25.97 2.69-8.31 11.22-10.32 17.94-5.38q3.99 2.93 5.57 8.05a.614.613 36.437 0 0 1.2-.18V33.92a.602.602 27.904 0 0-1.15-.25l-.83 1.84a1.447 1.445 22.552 0 1-1.82.75c-3.12-1.16-6.18-2.5-9.75-2.73q-9.49-.62-15.83 5.12c-9.61 8.71-8.65 24.3 2.8 31 7.65 4.47 18.22 3.17 26.04-.14a.886.875 79.357 0 0 .54-.8q.03-3.02-.01-8.43-.02-3.11 3.71-3.12a.33.33-77.312 0 0 .3-.19l.17-.38a.461.458 12.312 0 0-.42-.65"></path><path fill="#fff" fill-rule="evenodd" d="M139.07 36.29a.751.75 88.116 0 1-.73.78l-.32.01a.516.51-5.116 0 1-.52-.43c-1.31-7.68-7.87-14.17-15.97-13.23-4.58.53-8.03 4.69-5.77 9.18 2.69 5.37 15.19 8.14 21.88 14.16 8.43 7.59 4.4 19.96-5.22 23.64q-6.87 2.62-12.87.7-6.35-2.04-6.54-2.12a1.934 1.86-35.992 0 0-1.01-.14q-2.22.33-3.45 2.6a.821.819-30.731 0 1-1.54-.39V53.97a.691.69-.855 0 1 .67-.69l.28-.01a.528.517 83.311 0 1 .52.42q1.8 9.12 8.68 13.43c4.18 2.62 11.37 3.55 14.9-.85 4.16-5.16-.09-9.99-4.89-12.44-8.54-4.34-23.08-9.73-19.63-22.69q1.63-6.07 7.48-8.79c7.08-3.29 12.75-1.36 19.29 1.6a1.86 1.855-67.939 0 0 2.52-1.07l.71-2.02a.574.57 54.055 0 1 1.11.18zM29.32 72.37a.511.511 36.484 0 1-.15-1q3.58-1.1 5.42-5.06 6.08-13.12 15.59-33.96a.511.509-44.861 0 1 .93 0q5.72 12.79 14.82 32.96 1.13 2.51 2.89 4.84a1.449 1.408 80.108 0 0 .69.5l2.07.74a.505.502 54.481 0 1-.16.98H52.44a.215.206-4.793 0 1-.21-.17l-.05-.29a.447.437 80.86 0 1 .36-.51l3.1-.53A1.832 1.825 73.089 0 0 57 68.31l-3.01-6.67a.948.938-12.097 0 0-.86-.55H41.52a.902.896 9.577 0 0-.85.6l-2.55 7.2a1.269 1.26-62.93 0 0 .47 1.47q1 .7 3.3.89a.523.522 2.39 0 1 .48.52v.26a.35.34 0 0 1-.35.34zm19.547-26.612a.35.35-33.688 0 0-.656-.052l-5.775 12.679a.35.35-70.61 0 0 .318.495h9.286a.35.35-84.608 0 0 .337-.443zM220.32 55.94a.461.458 12.312 0 1 .42.65l-.17.38a.33.33-77.312 0 1-.3.19q-3.73.01-3.71 3.12.04 5.41.01 8.43a.886.875 79.357 0 1-.54.8c-7.82 3.31-18.39 4.61-26.04.14-11.45-6.7-12.41-22.29-2.8-31q6.34-5.74 15.83-5.12c3.57.23 6.63 1.57 9.75 2.73a1.447 1.445 22.552 0 0 1.82-.75l.83-1.84a.602.602-85.834 0 1 1.15.25v12.19a.614.613 36.437 0 1-1.2.18q-1.58-5.12-5.57-8.05c-6.72-4.94-15.25-2.93-17.94 5.38-3.38 10.41-2.42 31.13 15.27 25.97a.93.93 81.575 0 0 .66-.89l-.11-9.75a.438.415-61.845 0 0-.06-.22q-.8-1.55-4.2-1.79a.351.34 1.791 0 1-.33-.34v-.29a.38.37 0 0 1 .38-.37z"></path><path fill="#da251c" fill-rule="evenodd" d="m48.867 45.758 3.51 12.679a.35.35-58.818 0 1-.337.443h-9.286a.35.35-40.083 0 1-.318-.495l5.775-12.679a.35.35-3.8 0 1 .656.052M189.91 228.49q3.69-3.75 6.35-8.51a.378.377-.505 0 0-.52-.51l-9.82 5.83q-2.41-1.05-2.56-2.22 4.74-6.44 4.25-14.15a.434.434 65.717 0 0-.74-.28q-5.01 5.04-8.22 11.22-.95-.64-1.42-.44-.12-.05-.28-.21.17-.18.06-.56a.321.299-81.584 0 0-.11-.16l-9.14-7.31a.516.505 36.529 0 1-.11-.69c14.31-21.09 12.79-47.6-4.33-66.58-21.08-23.39-57.22-22.64-78.39.15a.664.652 40.632 0 1-.89.06L4.62 80.68a.107.104 63.455 0 1 .06-.19h240.85a.8.8-45 0 1 .8.8q.09 21.31.31 62.96c.02 3.64-1.21 5.84-2.64 9.05-12.52 28.09-28.25 55.71-49.94 77.67a1.022 1.012-52.643 0 1-1.22.17q-1.51-.85-2.93-2.65M67.849 84.185a.748.743 41.135 0 0 .072 1.014l.905.865a.86.86-56.528 0 0 1.213-.026l.691-.722a.751.748 48.151 0 1 1.136.065q1.168 1.546 2.832-.182a.762.756-38.16 0 0 .109-.888q-.497-.884-1.438-1.182a.863.856-61.206 0 0-.91.269q-1.153 1.418-2.218.028a.76.756-30.153 0 0-.911-.238q-1.045.46-1.481.997m114.136-.023q-.439-.531-1.484-.98a.757.753 29.635 0 0-.905.246q-1.048 1.394-2.21-.009a.86.852 60.688 0 0-.908-.259q-.936.305-1.423 1.19a.759.753 37.641 0 0 .118.884q1.672 1.706 2.822.155a.748.745-48.669 0 1 1.131-.074l.694.712a.855.855 43.537 0 0 1.209.016l.894-.871a.745.74-41.653 0 0 .062-1.01m8.626.088q-.44-.521-1.478-.955a.749.745 29.027 0 0-.893.253q-1.022 1.39-2.186.015a.851.843 60.079 0 0-.901-.247q-.922.311-1.395 1.193a.751.745 37.033 0 0 .126.872q1.672 1.67 2.793.124a.74.737-49.277 0 1 1.118-.086l.694.698a.846.846-54.133 0 0 1.196.003l.874-.871a.737.732-42.262 0 0 .052-.999m-26.881.62c-1.98 1.63-.65 8.22-.25 10.54a1.413 1.405-15.184 0 1-.9 1.56c-3.56 1.34-6.92.37-4.95-4.26a.29.285-62.435 0 0-.11-.36l-.03-.01a.275.269-56.602 0 0-.37.08c-1.72 2.61-3.18 7.64 1.4 8.42q3.91.67 5.83-3.03a1.165 1.157 13.194 0 1 1.04-.64h2.97a.761.747 15.791 0 0 .64-.35q.15-.23.2-.28a.815.815-48.775 0 1 1.06-.07l.5.38a1.706 1.676-26.063 0 0 1.02.34h13.16a1.056 1.03 19.151 0 0 .81-.38l.33-.39a.544.54-40.847 0 1 .87.06q.12.2.21.28a1.512 1.494 66.921 0 0 1.05.43q15.65-.13 19.05.04.7.03 1.6.83a.402.399 28.478 0 0 .65-.19c.66-2.27 1.31-3.35-1.02-4.44a1.229 1.228 2.991 0 1-.64-.71q-1.24-3.75 1.05-5.5a.593.591 37.295 0 0-.14-1.02q-1.51-.61-2.15-1.85a.507.499-36.003 0 0-.8-.12q-1.5 1.49-.92 2.79c.9 2 .73 3.79 1.2 5.74a.484.483-7 0 1-.47.6h-3.45a.661.66 89.105 0 1-.66-.64l-.05-1.7a.434.433-27.167 0 0-.78-.25q-.55.71-1.02 2.29a.565.561 8.301 0 1-.54.4h-.39a.58.572 7.912 0 1-.56-.73l.53-1.87a.386.384-9.358 0 0-.59-.42q-1.11.75-1.41 2.19a.93.927 5.619 0 1-.88.72l-1.27.04a.497.494-83.061 0 1-.49-.63l.57-2a.363.362 73.646 0 0-.62-.34q-1.06 1.19-1.24 2.15a.962.956-84.527 0 1-.94.78h-2.67a.75.74-90 0 1-.74-.75v-3.17a.313.308 74.408 0 0-.47-.27q-2.6 1.61-1.8 3.62a.424.421 79.113 0 1-.39.58h-4.18a.438.436-75.445 0 1-.38-.65q1.04-1.84.27-3.4-.82-1.69-2.69-.37-2.57 1.8-3.43 3.98a.7.687 10.369 0 1-.65.44h-2.32a.65.65 33.678 0 1-.65-.65v-3a.446.443 73.969 0 0-.68-.38q-2.1 1.33-1.53 3.38a.519.517 82.651 0 1-.5.65h-3.39a.8.8 88.884 0 1-.8-.77l-.2-7.31a.552.55-20.426 0 0-.9-.41m-83.81 8.48h-5.81a.304.3 15.909 0 1-.26-.46q1.18-1.88.23-3.76a1.413 1.405-28.842 0 0-1.99-.57q-2.78 1.7-4.28 4.52a.897.896-31.979 0 1-1.69-.39L65.9 85a.369.368-23.243 0 0-.63-.25l-1.02 1.02a1.987 1.981 66.881 0 0-.58 1.45l.26 9.27a.721.72 89.181 0 0 .72.7h15.5a1.015 1.008 14.72 0 0 .88-.51q2.55-4.51-.08-8.64a.562.558 40.721 0 0-.98.07l-1 2.19a.719.717 32.363 0 0 .19.84q1.04.85 1.2 1.67a.45.449 84.232 0 1-.44.54m43.48 0h-4.22a.641.64 89.076 0 1-.64-.62l-.21-7.73a.411.408-26.553 0 0-.73-.24l-.98 1.22a2.2 2.2-28.58 0 0-.47 1.41l.26 9.21a.621.62 89.045 0 0 .62.6h6.67a.959.94 14.41 0 0 .83-.48q2.54-4.56-.13-8.75a.519.518-48.759 0 0-.91.06l-1.01 2.23a.727.711-56.568 0 0 .16.83q1.71 1.58.96 2.19a.335.316-62.618 0 1-.2.07m17.69-8.43q-1.14 1.5-1.2 2.02a1.337 1.324-56.03 0 0 .15.79q1 1.91 1.2 5.03a.56.56 88.543 0 1-.56.59h-4.45a.411.41-22.45 0 1-.29-.12l-2.65-2.65a.322.32-55.661 0 0-.52.1l-.7 1.54a.965.949-49.289 0 0 .06.9l1.18 1.86a1.184 1.178 45.579 0 1-.01 1.27q-2.18 3.3-5.87 2.86a.368.362 66.234 0 0-.25.66c3.38 2.46 6.09 2.13 7.5-1.99a.886.883-80.895 0 1 .84-.61h6.13a.684.68-81.271 0 0 .65-.48q.88-2.86.34-6.04a1.604 1.599 59.655 0 1 .33-1.27l1.05-1.32a.668.662-51.937 0 0-.11-.94q-2.06-1.58-2.2-2.08a.356.35 55.507 0 0-.62-.12m7.01.46q-1.73 1.97-1.49 3.94.7 5.8.86 7.55a.309.306-24.716 0 0 .52.19c2.06-2.03 1.16-8.51.71-11.51a.347.342-28.761 0 0-.6-.17m65.834.007q-1.725 1.976-1.479 3.946.718 5.801.884 7.551a.309.307-24.891 0 0 .521.188c2.054-2.037 1.134-8.517.675-11.517a.347.342-28.937 0 0-.601-.168M105.43 87.036a1.72 1.43-179.2 0 0 1.7 1.454 1.72 1.43-179.2 0 0 1.74-1.406 1.72 1.43-179.2 0 0-1.7-1.454 1.72 1.43-179.2 0 0-1.74 1.406M38.92 93.38c-2.24 2.03-4.37 7.77 1.14 8.17q4.72.34 5.93-3.83a.805.798 8.229 0 1 .77-.57h12.72a1.046 1.028-75.002 0 0 .9-.53q2.53-4.44-.03-8.53a.616.613-48.563 0 0-1.08.07l-.89 1.96a.873.869-55.413 0 0 .18.99q.94.92 1.14 1.7a.441.435 82.762 0 1-.42.55h-5.23a.59.59-64.729 0 1-.59-.59v-1.65a.525.523 57.31 0 0-1-.22l-.97 2.14a.715.711-35.244 0 1-1.36-.23q-.07-.75.39-1.71a.385.385 16.803 0 0-.29-.54l-.13-.02a.816.811-68.482 0 0-.8.35q-.47.69-.75 1.76a1.387 1.252 44.125 0 1-2.51-.09q-.1-.25-.93-1.55a.437.433-43.124 0 0-.72-.02q-.96 1.31-.96 1.98a1.676 1.667-56.949 0 0 .14.67l1.19 2.61a1.072 1.062-23.746 0 1-.56 1.42c-1.34.58-4.75 1.21-5.45-.43q-.65-1.54.72-3.37a.372.368-2.991 0 0-.55-.49m52.24-1.17q-3.01 2.25-3.05 6.06a2.676 2.535-86.922 0 0 2.27 2.67q.73.07.72.46a.592.531-23.444 0 1-.17.37l-.47.46a.589.581-52.238 0 0 .11.92q1.2.7 2.44-.02a.786.777 43.919 0 1 .75-.01q1.25.66 2.47.08a.573.568-39.98 0 0 .09-.98q-1.82-1.28-2.68-.07a.537.533 32.688 0 1-.7.15l-.68-.39a.313.313 54.854 0 1 .1-.58l4.05-.68a1.954 1.923 12.015 0 0 1.27-.81l1.46-2.15a1.354 1.257-84.712 0 1 .48-.43l1.51-.78a.485.477-33.628 0 1 .57.11q.06.07.18.2a1.396 1.373 67.512 0 0 .99.42h8.93a.925.914-77.234 0 0 .83-.53q1.14-2.43 1.23-4.14a2.728 2.608 89.421 0 0-2.8-2.87c-2.16.17-4.79 2.12-6.94 3.63a.652.652-18.207 0 1-1.03-.52q-.03-1.15.22-1.73a.621.62 78.884 0 0-1.01-.68q-.82.82-.8 2.3a.67.66 89.572 0 1-.66.68h-5.29a1.415 1.413-74.795 0 0-1.22.7l-.88 1.53a.59.59 8.033 0 0 .44.88l2.7.36a.676.674 42.946 0 1 .05 1.33c-4.17.85-8.57-.13-5.15-5.64a.228.226-2.474 0 0-.33-.3m79.318 9.493q.722-.017 1.755-1.112a.607.606 42.119 0 0-.045-.877q-1.215-1.048-1.761-1.036-.587.013-1.753 1.115a.607.606-44.68 0 0-.006.878q1.081 1.048 1.81 1.032m-43.718-1.553q-.45-.53-1.51-.97a.764.76 28.897 0 0-.91.26q-1.04 1.42-2.23.02a.868.86 59.95 0 0-.92-.25q-.94.32-1.42 1.22a.766.76 36.903 0 0 .13.89q1.71 1.7 2.85.12a.755.752-49.407 0 1 1.14-.09l.71.71a.863.863 0 0 0 1.22 0l.89-.89a.752.747-42.391 0 0 .05-1.02m-67.983-.894q-.71.036-1.694 1.142a.597.596 40.466 0 0 .069.861q1.224.996 1.761.969.576-.03 1.692-1.146a.597.596-46.333 0 0-.019-.863q-1.093-1-1.809-.963m20.672-.038q-.715.012-1.742 1.092a.601.599 42.378 0 0 .041.868q1.197 1.043 1.738 1.034.581-.011 1.741-1.096a.601.599-44.42 0 0 .009-.869q-1.065-1.042-1.787-1.029m23.071 13.172v9.59a.5.5-45 0 0 .5.5h2.55a.51.5 0 0 0 .51-.5v-14.13a.5.5-45 0 0-.5-.5h-1.73a.942.931 18.746 0 0-.74.36q-1.86 2.42-4.35 3.1a1.442 1.423 82.695 0 0-1.06 1.39v.76a.748.739 76.46 0 0 1.08.67l3.13-1.61a.42.417-13.561 0 1 .61.37m17.41 4.61q0 1.5-1.27 2.8a2.105 1.889-40.242 0 1-3.1-.09q-1.02-1.51-3.3-.78a.917.912-29.559 0 0-.41 1.47q2.93 3.38 7.34 1.99c4.25-1.34 4.76-5.34 4.36-9.25-.84-8.01-12.84-7.28-12.34-.3.28 3.96 4.84 5.59 8.14 3.82a.395.389-14.241 0 1 .58.34m26.811 5.763c3.071-.023 6.167-1.494 6.121-4.86-.022-1.603-1.022-2.513-2.492-3.233a.37.367-47.055 0 1-.02-.65c3-1.73 2.28-4.91-.504-6.069q-1.416-.59-3.222-.577t-3.214.626c-2.766 1.201-3.437 4.392-.411 6.076a.37.367 46.181 0 1-.01.65c-1.459.743-2.445 1.668-2.442 3.271.004 3.366 3.123 4.789 6.194 4.766M133.57 111.02q-4.15 4.75-5.09 10.62a.751.75-85.423 0 0 .74.87h1.92a.92.915-86.849 0 0 .91-.82q.7-6.7 6.1-12a1.21 1.207 22.733 0 0-.85-2.07h-10.71a.71.71-8.18 0 0-.71.71v1.23a.74.74 5.852 0 0 .74.74h6.63a.435.431-69.231 0 1 .32.72m60.972 42.071a.524.521 51.169 0 0 .985.109l1.303-2.804a1.982 1.948-30.464 0 0 .179-.666q.606-6.654 2.178-10.472a6.165 6.134-48.94 0 0-.359-5.4l-2.386-4.128a1.914 1.914-48.976 0 0-3.431.239q-2.059 5.072-2.079 10.492a2.033 1.893 42.956 0 0 .02.278l.856 5.351a.497.307 31.717 0 0 .069.139q1.591 2.049 2.665 6.862m7.169-13.624a.533.526-73.816 0 0-.679.379q-1.683 6.765-2.341 8.022-2.014 3.802-1.145 7.822 1.339 6.145 3.546 11.681a.389.388 41.066 0 0 .738-.05q2.013-7.902 3.148-13.639c.697-3.492 1.003-12.79-3.267-14.215m-22.309 4.561a.722.715 7.89 0 0-.838.629c-.631 5.849 1.385 8.015 6.874 9.863q3.254 1.099 5.879 2.657a1.407 1.404-29.09 0 0 .738.21l1.977.001a.709.703 73.707 0 0 .589-1.088q-2.554-4.004-2.603-7.597a3.046 3.041 4.419 0 0-2.545-2.965zm14.488 63.322c2.03-5.79 3.56-12.03-3.79-14.6a.413.411 10.234 0 0-.55.38q-.09 6.83-.51 15.36-.19 3.98.51 7.82a1.739 1.735 53.055 0 1-.15 1.07q-1.16 2.38-1.43 2.95a.403.4 86.147 0 0 .58.51l7.24-4.69a1.504 1.465.754 0 0 .39-.37c1.23-1.63 2.29-2.72 3.22-4.58q3.03-6.06 8.87-17.37a.388.387-8.958 0 0-.62-.45l-5.65 5.64a.665.665-90 0 1-.94 0l-.26-.26a.516.516 62.659 0 1 0-.74q12.58-12.09 11.69-29.53a.368.366-19.05 0 0-.58-.28l-.21.16a.672.669 81.738 0 0-.26.35c-1.06 3.45-2.99 8.64-5.88 10.74a.371.367-4.798 0 1-.55-.46l3.32-6.62a1.772 1.725-25.791 0 0 .16-.44c1.03-4.4 2.69-17.55-.83-20.93a.498.49-64.412 0 0-.83.3q-.44 3.27-1.58 6.94-1.54 4.99-2.78 12.76-1.24 7.88-.57 11.13a1.308 1.27 20.948 0 0 .26.56l.85 1.03a1.209 1.19-61.124 0 1 .25.89q-.73 6.13-3.96 12.06a.314.312-24.095 0 1-.58-.22l2.48-10.3a2.918 2.916-64.868 0 0-1.09-3.02q-3.64-2.74-5.82-8.03a.704.702 43.579 0 0-1.31.03q-1.17 3.28-1.49 4.84c-.93 4.48.71 8.64 2.74 13.09a2.193 1.932 13.081 0 0 .45.63q1.41 1.37 2.56 3.64.13.25.51.38.37.13.62.28.31.18-.07.95-.34.69-.48 1.08a.348.343-84.898 0 0 .38.46l1.21-.2a.274.274 9.098 0 1 .29.4q-2.04 3.92-5.28 7a.325.323-12.213 0 1-.53-.34m-12.4-51.25c.21 5.34 1.41 8.43 6.99 9.17a1.718 1.711 31.074 0 0 1.22-.3l1.73-1.25a1.789 1.777 33.722 0 1 1.48-.29l3.08.74a.416.416 2.329 0 0 .51-.47c-.51-3.3-2.1-4.65-5.48-5.65q-1.46-.43-8.94-2.42a.47.47 6.444 0 0-.59.47m18.52 24.43q1.24-4.87 1-9.01c-.28-5.04-5.58-6.85-9.78-6.31a1.491 1.49 78.017 0 0-1.24 1.91c.86 2.86 3.6 5.73 5.53 7.68a.9.851 9.72 0 1 .15.2l3.19 5.68a.625.624-52.389 0 0 1.15-.15"></path><path fill="#fff" fill-rule="evenodd" d="M67.849 84.185q.436-.537 1.481-.997a.76.756-30.153 0 1 .911.238q1.065 1.39 2.218-.028a.863.856-61.206 0 1 .91-.269q.941.298 1.438 1.182a.762.756-38.16 0 1-.109.888q-1.664 1.728-2.832.182a.751.748 48.151 0 0-1.136-.065l-.691.722a.86.86-17.756 0 1-1.213.026l-.905-.865a.748.743 41.135 0 1-.072-1.014m114.136-.023a.745.74-41.653 0 1-.062 1.01l-.894.871a.855.855 79.072 0 1-1.209-.016l-.694-.712a.748.745-48.669 0 0-1.131.074q-1.15 1.551-2.822-.155a.759.753 37.641 0 1-.118-.884q.487-.885 1.423-1.19a.86.852 60.688 0 1 .908.259q1.162 1.403 2.21.009a.757.753 29.635 0 1 .905-.246q1.045.449 1.484.98m8.626.088a.737.732-42.262 0 1-.052.999l-.874.871a.846.846-18.014 0 1-1.196-.003l-.694-.698a.74.737-49.277 0 0-1.118.086q-1.121 1.546-2.793-.124a.751.745 37.033 0 1-.126-.872q.473-.882 1.395-1.193a.851.843 60.079 0 1 .901.247q1.164 1.375 2.186-.015a.749.745 29.027 0 1 .893-.253q1.038.434 1.478.955"></path><path fill="#fff" fill-rule="evenodd" d="M163.73 84.87a.552.55-20.426 0 1 .9.41l.2 7.31a.8.8 88.884 0 0 .8.77h3.39a.519.517 82.651 0 0 .5-.65q-.57-2.05 1.53-3.38a.446.443 73.969 0 1 .68.38v3a.65.65-15.203 0 0 .65.65h2.32a.7.687 10.369 0 0 .65-.44q.86-2.18 3.43-3.98 1.87-1.32 2.69.37.77 1.56-.27 3.4a.438.436-75.445 0 0 .38.65h4.18a.424.421 79.113 0 0 .39-.58q-.8-2.01 1.8-3.62a.313.308 74.408 0 1 .47.27v3.17a.75.74-90 0 0 .74.75h2.67a.962.956-84.527 0 0 .94-.78q.18-.96 1.24-2.15a.363.362 73.646 0 1 .62.34l-.57 2a.497.494-83.061 0 0 .49.63l1.27-.04a.93.927 5.619 0 0 .88-.72q.3-1.44 1.41-2.19a.386.384-9.358 0 1 .59.42l-.53 1.87a.58.572 7.912 0 0 .56.73h.39a.565.561 8.301 0 0 .54-.4q.47-1.58 1.02-2.29a.434.433-27.167 0 1 .78.25l.05 1.7a.661.66 89.105 0 0 .66.64h3.45a.484.483-7 0 0 .47-.6c-.47-1.95-.3-3.74-1.2-5.74q-.58-1.3.92-2.79a.507.499-36.003 0 1 .8.12q.64 1.24 2.15 1.85a.593.591 37.295 0 1 .14 1.02q-2.29 1.75-1.05 5.5a1.229 1.228 2.991 0 0 .64.71c2.33 1.09 1.68 2.17 1.02 4.44a.402.399 28.478 0 1-.65.19q-.9-.8-1.6-.83-3.4-.17-19.05-.04a1.512 1.494 66.921 0 1-1.05-.43q-.09-.08-.21-.28a.544.54-40.847 0 0-.87-.06l-.33.39a1.056 1.03 19.151 0 1-.81.38h-13.16a1.706 1.676-26.063 0 1-1.02-.34l-.5-.38a.815.815-48.775 0 0-1.06.07q-.05.05-.2.28a.761.747 15.791 0 1-.64.35h-2.97a1.165 1.157 13.194 0 0-1.04.64q-1.92 3.7-5.83 3.03c-4.58-.78-3.12-5.81-1.4-8.42a.275.269-56.602 0 1 .37-.08l.03.01a.29.285-62.435 0 1 .11.36c-1.97 4.63 1.39 5.6 4.95 4.26a1.413 1.405-15.184 0 0 .9-1.56c-.4-2.32-1.73-8.91.25-10.54m14.636 8.436q.508.085.846.035a.615.608-8.175 0 0 .518-.683q-.167-1.305-1.016-1.445-.85-.141-1.43 1.04a.615.608 27.006 0 0 .27.813q.304.156.812.24M80.36 92.81q-.16-.82-1.2-1.67a.719.717 32.363 0 1-.19-.84l1-2.19a.562.558 40.721 0 1 .98-.07q2.63 4.13.08 8.64a1.015 1.008 14.72 0 1-.88.51h-15.5a.721.72 89.181 0 1-.72-.7l-.26-9.27a1.987 1.981 66.881 0 1 .58-1.45l1.02-1.02a.369.368-23.243 0 1 .63.25l.22 7.69a.897.896-31.979 0 0 1.69.39q1.5-2.82 4.28-4.52a1.413 1.405-28.842 0 1 1.99.57q.95 1.88-.23 3.76a.304.3 15.909 0 0 .26.46h5.81a.45.449 84.232 0 0 .44-.54m-10.467-.236q.115.751 1.696.73.481-.004.692-.311.184-.269.102-.803t-.339-.735q-.294-.229-.754-.088-1.513.457-1.397 1.207m53.707.706q.75-.61-.96-2.19a.727.711-56.568 0 1-.16-.83l1.01-2.23a.519.518-48.759 0 1 .91-.06q2.67 4.19.13 8.75a.959.94 14.41 0 1-.83.48h-6.67a.621.62 89.045 0 1-.62-.6l-.26-9.21a2.2 2.2 15.534 0 1 .47-1.41l.98-1.22a.411.408-26.553 0 1 .73.24l.21 7.73a.641.64 89.076 0 0 .64.62h4.22a.335.316-62.618 0 0 .2-.07m18.11-8.24q.14.5 2.2 2.08a.668.662-51.937 0 1 .11.94l-1.05 1.32a1.604 1.599 59.655 0 0-.33 1.27q.54 3.18-.34 6.04a.684.68-81.271 0 1-.65.48h-6.13a.886.883-80.895 0 0-.84.61c-1.41 4.12-4.12 4.45-7.5 1.99a.368.362 66.234 0 1 .25-.66q3.69.44 5.87-2.86a1.184 1.178 45.579 0 0 .01-1.27l-1.18-1.86a.965.949-49.289 0 1-.06-.9l.7-1.54a.322.32-55.661 0 1 .52-.1l2.65 2.65a.411.41-22.45 0 0 .29.12h4.45a.56.56 88.543 0 0 .56-.59q-.2-3.12-1.2-5.03a1.337 1.324-56.03 0 1-.15-.79q.06-.52 1.2-2.02a.356.35 55.507 0 1 .62.12m6.99.51c.45 3 1.35 9.48-.71 11.51a.309.306-24.716 0 1-.52-.19q-.16-1.75-.86-7.55-.24-1.97 1.49-3.94a.347.342-28.761 0 1 .6.17m65.234-.163a.347.342-28.937 0 1 .601.168c.459 3 1.379 9.48-.675 11.517a.309.307-24.891 0 1-.521-.188q-.166-1.75-.884-7.551-.246-1.97 1.479-3.946M105.43 87.036a1.72 1.43-179.2 0 1 1.74-1.406 1.72 1.43-179.2 0 1 1.7 1.454 1.72 1.43-179.2 0 1-1.74 1.406 1.72 1.43-179.2 0 1-1.7-1.454M38.92 93.38a.372.368-2.991 0 1 .55.49q-1.37 1.83-.72 3.37c.7 1.64 4.11 1.01 5.45.43a1.072 1.062-23.746 0 0 .56-1.42l-1.19-2.61a1.676 1.667-56.949 0 1-.14-.67q0-.67.96-1.98a.437.433-43.124 0 1 .72.02q.83 1.3.93 1.55a1.387 1.252 44.125 0 0 2.51.09q.28-1.07.75-1.76a.816.811-68.482 0 1 .8-.35l.13.02a.385.385 16.803 0 1 .29.54q-.46.96-.39 1.71a.715.711-35.244 0 0 1.36.23l.97-2.14a.525.523 57.31 0 1 1 .22v1.65a.59.59 82.048 0 0 .59.59h5.23a.441.435 82.762 0 0 .42-.55q-.2-.78-1.14-1.7a.873.869-55.413 0 1-.18-.99l.89-1.96a.616.613-48.563 0 1 1.08-.07q2.56 4.09.03 8.53a1.046 1.028-75.002 0 1-.9.53H46.76a.805.798 8.229 0 0-.77.57q-1.21 4.17-5.93 3.83c-5.51-.4-3.38-6.14-1.14-8.17m52.24-1.17a.228.226-2.474 0 1 .33.3c-3.42 5.51.98 6.49 5.15 5.64a.676.674 42.946 0 0-.05-1.33l-2.7-.36a.59.59 52.409 0 1-.44-.88l.88-1.53a1.415 1.413-74.795 0 1 1.22-.7h5.29a.67.66 89.572 0 0 .66-.68q-.02-1.48.8-2.3a.621.62 78.884 0 1 1.01.68q-.25.58-.22 1.73a.652.652-18.207 0 0 1.03.52c2.15-1.51 4.78-3.46 6.94-3.63a2.728 2.608 89.421 0 1 2.8 2.87q-.09 1.71-1.23 4.14a.925.914-77.234 0 1-.83.53h-8.93a1.396 1.373 67.512 0 1-.99-.42q-.12-.13-.18-.2a.485.477-33.628 0 0-.57-.11l-1.51.78a1.354 1.257-84.712 0 0-.48.43l-1.46 2.15a1.954 1.923 12.015 0 1-1.27.81l-4.05.68a.313.313 54.854 0 0-.1.58l.68.39a.537.533 32.688 0 0 .7-.15q.86-1.21 2.68.07a.573.568-39.98 0 1-.09.98q-1.22.58-2.47-.08a.786.777 43.919 0 0-.75.01q-1.24.72-2.44.02a.589.581-52.238 0 1-.11-.92l.47-.46a.592.531-23.444 0 0 .17-.37q.01-.39-.72-.46a2.676 2.535-86.922 0 1-2.27-2.67q.04-3.81 3.05-6.06m15.826 1.229 4.317-.159a.12.12-44.975 0 0 .116-.124l-.002-.05a2.09 1.17-2.1 0 0-2.132-1.093l-.379.014a2.09 1.17-2.1 0 0-2.046 1.246l.002.05a.12.12-7 0 0 .124.116"></path><path fill="#da251c" fill-rule="evenodd" d="M72.383 92.19q.082.534-.102.803-.211.307-.692.311-1.581.021-1.696-.73-.116-.75 1.397-1.207.46-.141.754.088.257.201.339.735m106.331-.977q.849.14 1.016 1.445a.615.608-8.175 0 1-.518.683q-.338.05-.846-.035-.508-.084-.812-.24a.615.608 27.006 0 1-.27-.813q.58-1.181 1.43-1.04m-71.728 2.226a.12.12 38.029 0 1-.124-.116l-.002-.05a2.09 1.17-2.1 0 1 2.046-1.246l.379-.014a2.09 1.17-2.1 0 1 2.132 1.093l.002.05a.12.12-44.468 0 1-.116.124z"></path><path fill="#fff" fill-rule="evenodd" d="M170.427 98.678q.546-.012 1.761 1.036a.607.606 42.119 0 1 .045.877q-1.033 1.095-1.755 1.112-.729.016-1.81-1.032a.607.606-44.68 0 1 .006-.878q1.166-1.102 1.753-1.115m-43.667 1.472a.752.747-42.391 0 1-.05 1.02l-.89.89a.863.863 0 0 1-1.22 0l-.71-.71a.755.752-49.407 0 0-1.14.09q-1.14 1.58-2.85-.12a.766.76 36.903 0 1-.13-.89q.48-.9 1.42-1.22a.868.86 59.95 0 1 .92.25q1.19 1.4 2.23-.02a.764.76 28.897 0 1 .91-.26q1.06.44 1.51.97m-67.983-.894q.716-.037 1.809.963a.597.596-46.333 0 1 .019.863q-1.116 1.116-1.692 1.146-.537.027-1.761-.969a.597.596 40.466 0 1-.069-.861q.984-1.106 1.694-1.142m20.672-.038q.722-.013 1.787 1.029a.601.599-44.42 0 1-.009.869q-1.16 1.085-1.741 1.096-.541.009-1.738-1.034a.601.599 42.378 0 1-.041-.868q1.027-1.08 1.742-1.092m22.461 12.802-3.13 1.61a.748.739 76.46 0 1-1.08-.67v-.76a1.442 1.423 82.695 0 1 1.06-1.39q2.49-.68 4.35-3.1a.942.931 18.746 0 1 .74-.36h1.73a.5.5 45 0 1 .5.5v14.13a.51.5 0 0 1-.51.5h-2.55a.5.5 45 0 1-.5-.5v-9.59a.42.417-13.561 0 0-.61-.37m17.44 4.64c-3.3 1.77-7.86.14-8.14-3.82-.5-6.98 11.5-7.71 12.34.3.4 3.91-.11 7.91-4.36 9.25q-4.41 1.39-7.34-1.99a.917.912-29.559 0 1 .41-1.47q2.28-.73 3.3.78a2.105 1.889-40.242 0 0 3.1.09q1.27-1.3 1.27-2.8a.395.389-14.241 0 0-.58-.34m-2.759-6.917a2.85 2.57-101.1 0 0-1.973 3.292 2.85 2.57-101.1 0 0 3.071 2.302 2.85 2.57-101.1 0 0 1.973-3.292 2.85 2.57-101.1 0 0-3.071-2.302m30.033-2.369q1.806-.013 3.222.577c2.784 1.159 3.504 4.339.504 6.069a.37.367-47.055 0 0 .02.65c1.47.72 2.47 1.63 2.492 3.233.046 3.366-3.05 4.837-6.121 4.86s-6.19-1.4-6.194-4.766c-.003-1.603.983-2.528 2.442-3.271a.37.367 46.181 0 0 .01-.65c-3.026-1.684-2.355-4.875.411-6.076q1.407-.612 3.214-.626m2.316 4.078a2.29 1.85-.2 0 0-2.296-1.842 2.29 1.85-.2 0 0-2.284 1.858 2.29 1.85-.2 0 0 2.296 1.842 2.29 1.85-.2 0 0 2.284-1.858m.37 6.578a2.59 2.59 0 0 0-2.59-2.59 2.59 2.59 0 0 0-2.59 2.59 2.59 2.59 0 0 0 2.59 2.59 2.59 2.59 0 0 0 2.59-2.59m-16.06-7.73h-6.63a.74.74 29.913 0 1-.74-.74v-1.23a.71.71 25.24 0 1 .71-.71h10.71a1.21 1.207 22.733 0 1 .85 2.07q-5.4 5.3-6.1 12a.92.915-86.849 0 1-.91.82h-1.92a.751.75-85.423 0 1-.74-.87q.94-5.87 5.09-10.62a.435.431-69.231 0 0-.32-.72"></path><path fill="#da251c" fill-rule="evenodd" d="M116.591 109.743a2.85 2.57-101.1 0 1 3.071 2.302 2.85 2.57-101.1 0 1-1.973 3.292 2.85 2.57-101.1 0 1-3.071-2.302 2.85 2.57-101.1 0 1 1.973-3.292m32.349 1.709a2.29 1.85-.2 0 1-2.284 1.858 2.29 1.85-.2 0 1-2.296-1.842 2.29 1.85-.2 0 1 2.284-1.858 2.29 1.85-.2 0 1 2.296 1.842m.37 6.578a2.59 2.59 0 0 1-2.59 2.59 2.59 2.59 0 0 1-2.59-2.59 2.59 2.59 0 0 1 2.59-2.59 2.59 2.59 0 0 1 2.59 2.59"></path><path fill="#fff" fill-rule="evenodd" d="M194.542 153.091q-1.074-4.813-2.665-6.862a.497.307 31.717 0 1-.069-.139l-.856-5.351a2.033 1.893 42.956 0 1-.02-.278q.02-5.42 2.079-10.492a1.914 1.914-48.976 0 1 3.431-.239l2.386 4.128a6.165 6.134-48.94 0 1 .359 5.4q-1.572 3.818-2.178 10.472a1.982 1.948-30.464 0 1-.179.666l-1.303 2.804a.524.521 51.169 0 1-.985-.109m-133.422.779a.527.524-51.17 0 1-.99.11l-1.31-2.82a1.993 1.959 30.463 0 1-.18-.67q-.61-6.69-2.19-10.53a6.199 6.168 48.939 0 1 .36-5.43l2.4-4.15a1.925 1.924 48.975 0 1 3.45.24q2.07 5.1 2.09 10.55a2.044 1.903-42.957 0 1-.02.28l-.86 5.38a.5.309-31.717 0 1-.07.14q-1.6 2.06-2.68 6.9m-6.79-14.06q1.69 6.78 2.35 8.04 2.02 3.81 1.15 7.84-1.34 6.16-3.55 11.71a.39.389-41.086 0 1-.74-.05q-2.02-7.92-3.16-13.67c-.7-3.5-1.01-12.82 3.27-14.25a.535.527 73.795 0 1 .68.38m147.381-.343c4.27 1.425 3.964 10.723 3.267 14.215q-1.135 5.737-3.148 13.639a.389.388 41.066 0 1-.738.05q-2.207-5.536-3.546-11.681-.869-4.02 1.145-7.822.658-1.257 2.341-8.022a.533.526-73.816 0 1 .679-.379"></path><path fill="#1e1a17" fill-rule="evenodd" d="M250 140.49v5.47q-8.86 23.41-22.29 46.51-10.22 17.57-22.42 32.77-1.65 2.06-4.94 5.69-2.52 2.76-4.95 5.68l-.41-.31c21.83-23.84 37.73-51.56 50.9-81.44q2.98-6.77 3.87-9.51a1.602 1.573-34.999 0 0 .08-.43z"></path><path fill="#fff" fill-rule="evenodd" d="M77.57 143.64c.63 5.86-1.39 8.03-6.89 9.88q-3.26 1.1-5.89 2.66a1.409 1.407 29.106 0 1-.74.21h-1.98a.711.704-73.691 0 1-.59-1.09q2.56-4.01 2.61-7.61a3.052 3.046-4.403 0 1 2.55-2.97l10.09-1.71a.723.716-7.874 0 1 .84.63m101.832.388 10.071 1.71a3.046 3.041 4.419 0 1 2.545 2.965q.049 3.593 2.603 7.597a.709.703 73.707 0 1-.589 1.088l-1.977-.001a1.407 1.404-29.09 0 1-.738-.21q-2.625-1.558-5.879-2.657c-5.489-1.848-7.505-4.014-6.874-9.863a.722.715 7.89 0 1 .838-.629" data-source="https://football-logos.cc"></path><path fill="#1e1a17" fill-rule="evenodd" d="M162.31 263.71q.05.23.46.33-15.83 9.93-33.56 15.48-3.7 1.15-6.9.15-38.35-12-66.14-39.88-21.7-21.76-36.4-49.33-10.57-19.82-17.88-39.1-1.04-2.74-1.46-5.74 3.07 8.31 6.31 16.37 12.35 30.65 32.18 57.35c21.37 28.78 51.09 50.13 85.63 60.14a2.782 2.744 45.392 0 0 1.46.02c13.34-3.63 24.53-8.83 36.3-15.79"></path><path fill="#da251c" fill-rule="evenodd" d="M100.25 160.76q-8.65 12.54-5.88 25.3c3.3 15.15 15.93 24.7 31.56 24.64q4.36-.02 11.13-2.52 7.14-2.31 12.25-8.22a.649.646 39.091 0 1 .89-.09l15.44 12.34a.567.563-50.067 0 1 .07.82c-17.67 20.15-47.11 24.02-69.18 9.18-24.85-16.71-30.24-50.25-13.02-74.5a.67.663-52.346 0 1 .97-.13z"></path><path fill="#fff" fill-rule="evenodd" d="M137.06 208.18q-6.77 2.5-11.13 2.52c-15.63.06-28.26-9.49-31.56-24.64q-2.77-12.76 5.88-25.3 5.91-7.45 15.02-10.31c27.79-8.74 50.51 22.29 34.74 46.54q-4.34 6.68-12.95 11.19m13.62-28.78a26.63 26.63 0 0 0-26.63-26.63 26.63 26.63 0 0 0-26.63 26.63 26.63 26.63 0 0 0 26.63 26.63 26.63 26.63 0 0 0 26.63-26.63M67.5 220.56a.311.311 4.071 0 1-.45.39l-7.24-4.64a2.937 2.916 87.71 0 1-.71-.66l-2.19-2.86a2.001 1.605-83.736 0 1-.21-.33l-9.46-18.4a.414.412 8.883 0 1 .66-.48l5.32 5.33a.801.8-37.244 0 0 .96.13l.27-.16a.569.562-44.623 0 0 .01-.76c-7.84-8.87-12.32-17.09-11.5-29.57a.437.435-52.241 0 1 .85-.11c1.21 3.72 3.03 8.65 5.92 11.02a.413.41 6.345 0 0 .63-.5l-3.34-6.61a1.395 1.307 24.699 0 1-.11-.27c-1.08-4.41-2.94-18.31.94-21.21a.413.412 68.662 0 1 .66.29q.26 2.7 1.82 7.61c1.89 5.95 3.17 14.28 3.4 19.96q.13 3.04-1.19 4.66a1.432 1.384-25.578 0 0-.32.86c-.11 3.99 1.91 8.62 3.76 12.35a.452.451 24.116 0 0 .84-.32l-2.71-9.8a3.018 2.994-29.281 0 1 .86-3.01l3-2.78a3.306 3.287 82.993 0 0 .66-.85l2.82-5.09a.406.405-41.738 0 1 .73.04c1.75 4.16 2.71 7.68 1.35 12q-1.62 5.18-2.47 6.32-2.54 3.39-3.69 4.93a1.292 1.289-34.253 0 0-.21 1.1l.26.91a.274.266-37.765 0 1-.03.21q-.29.5-1.14.08a.39.39 89.466 0 0-.52.53q2.39 4.49 5.97 7.37a1.943 1.931 7.416 0 1 .55.71zm126.39-13.21a.325.323-12.213 0 0 .53.34q3.24-3.08 5.28-7a.274.274 9.098 0 0-.29-.4l-1.21.2a.348.343-84.898 0 1-.38-.46q.14-.39.48-1.08.38-.77.07-.95-.25-.15-.62-.28-.38-.13-.51-.38-1.15-2.27-2.56-3.64a2.193 1.932 13.081 0 1-.45-.63c-2.03-4.45-3.67-8.61-2.74-13.09q.32-1.56 1.49-4.84a.704.702 43.579 0 1 1.31-.03q2.18 5.29 5.82 8.03a2.918 2.916-64.868 0 1 1.09 3.02l-2.48 10.3a.314.312-24.095 0 0 .58.22q3.23-5.93 3.96-12.06a1.209 1.19-61.124 0 0-.25-.89l-.85-1.03a1.308 1.27 20.948 0 1-.26-.56q-.67-3.25.57-11.13 1.24-7.77 2.78-12.76 1.14-3.67 1.58-6.94a.498.49-64.412 0 1 .83-.3c3.52 3.38 1.86 16.53.83 20.93a1.772 1.725-25.791 0 1-.16.44l-3.32 6.62a.371.367-4.798 0 0 .55.46c2.89-2.1 4.82-7.29 5.88-10.74a.672.669 81.738 0 1 .26-.35l.21-.16a.368.366-19.05 0 1 .58.28q.89 17.44-11.69 29.53a.516.516 60.267 0 0 0 .74l.26.26a.665.665 0 0 0 .94 0l5.65-5.64a.388.387-8.958 0 1 .62.45q-5.84 11.31-8.87 17.37c-.93 1.86-1.99 2.95-3.22 4.58a1.504 1.465.754 0 1-.39.37l-7.24 4.69a.403.4 86.147 0 1-.58-.51q.27-.57 1.43-2.95a1.739 1.735 53.055 0 0 .15-1.07q-.7-3.84-.51-7.82.42-8.53.51-15.36a.413.411 10.234 0 1 .55-.38c7.35 2.57 5.82 8.81 3.79 14.6"></path><path fill="#1f1a17" fill-rule="evenodd" d="M150.68 179.4a26.63 26.63 0 0 1-26.63 26.63 26.63 26.63 0 0 1-26.63-26.63 26.63 26.63 0 0 1 26.63-26.63 26.63 26.63 0 0 1 26.63 26.63m-34.8-23.61a.898.895 70.334 0 0-1.22-.58q-7.32 3.17-11.02 8.34a.856.853-49.797 0 0 .09 1.1l1.94 1.94a.861.843 59.086 0 0 .84.22l6.07-1.68a1.704 1.667-82.054 0 0 1.01-.78l3-5.2a.672.671-37.522 0 0 .07-.53zm27.994 8.337a.868.865-37.425 0 0 .174-1.293q-5.074-5.803-10.923-7.684a.828.824 22.445 0 0-.986.407l-1.213 2.357a.832.815-48.672 0 0 .045.838l3.335 5.091a1.646 1.611-9.813 0 0 1.016.7l5.669 1.228a.649.648 34.719 0 0 .509-.092zm-10.27.979a.95.95 45.406 0 0 .008-1.088l-3.294-4.748a1.013 1.007 72.442 0 0-.825-.431l-11.077.115a1.08 1.08-1.269 0 0-.853.449l-3.549 5.006a.922.916-47.569 0 0 .046 1.109l3.152 3.824a1.5 1.5 69.648 0 0 1.184.544l11.425-.28a1.203 1.175-72.576 0 0 .954-.512zm6.808 18.97a.96.96-62.106 0 0 1.052-.324l3.579-4.625a1.025 1.019-35.071 0 0 .165-.927l-3.485-10.655a1.09 1.09-66.803 0 0-.692-.686l-5.912-1.9a.933.927 24.918 0 0-1.056.382l-2.731 4.206a1.516 1.515-37.865 0 0-.164 1.308l3.749 10.94a1.218 1.189-.088 0 0 .785.765zm-23.076-13.382a.78.78 52.707 0 0-.184-.812l-3.81-3.81a.78.78 79.629 0 0-.76-.2l-6.13 1.701a.78.78-9.308 0 0-.541.539l-3.216 11.358a.78.78 31.294 0 0 .198.764l3.706 3.714a.78.78 65.966 0 0 .76.201l5.389-1.491a.78.78 40.248 0 0 .528-.491zm26.975 23.482a.917.914 35.297 0 0 1.359-.23q4.261-6.939 4.323-13.428a.874.87-84.834 0 0-.72-.867l-2.758-.485a.879.861 24.049 0 0-.831.309l-4.088 4.961a1.739 1.701 62.909 0 0-.387 1.244l.54 6.104a.686.685-72.559 0 0 .252.484zm-45.309-14.008a.875.872-1.954 0 0-.9.961q.772 7.736 4.475 12.704a.835.831 57.915 0 0 1.048.242l2.376-1.225a.839.822-13.202 0 0 .454-.715l.24-6.134a1.66 1.624 25.658 0 0-.425-1.169l-3.938-4.327a.655.654 70.19 0 0-.471-.222zm24.746 16.396.047-4.972a1.224 1.195-71.532 0 0-.48-.991l-9.247-7.043a1.524 1.522-33.756 0 0-1.299-.258l-4.878 1.272a.938.932 83.461 0 0-.699.886l-.061 6.24a1.1 1.1 18.5 0 0 .435.879l9.059 6.7a1.03 1.024-36.55 0 0 .936.136l5.545-1.948a.96.96-9.514 0 0 .642-.901m16.845-3.942a.88.88 68.939 0 0 .364-.737l-.169-6.139a.88.88-77.535 0 0-.64-.822l-5.038-1.428a.88.88 65.7 0 0-.755.133l-9.77 7.048a.88.88-58.215 0 0-.365.713v5.384a.88.88-61.893 0 0 .641.847l5.92 1.673a.88.88-71.08 0 0 .754-.133zm-16.432 12.864q2.737-.024 6.392-1a.688.678-12.815 0 0 .497-.776l-.48-2.86a1.092 1.085 8.886 0 0-.58-.79q-2.24-1.16-5.74-2.098-.075-.021-.154-.02t-.154.022q-3.483.999-5.703 2.198a1.092 1.085-9.878 0 0-.566.8l-.431 2.867a.688.678 11.823 0 0 .511.768q3.671.913 6.408.889"></path><path fill="#fff" fill-rule="evenodd" d="m115.88 155.79.78 2.83a.672.671-37.522 0 1-.07.53l-3 5.2a1.704 1.667-82.054 0 1-1.01.78l-6.07 1.68a.861.843 59.086 0 1-.84-.22l-1.94-1.94a.856.853-49.797 0 1-.09-1.1q3.7-5.17 11.02-8.34a.898.895 70.334 0 1 1.22.58m27.994 8.337-2.374 1.552a.649.648 34.719 0 1-.509.092l-5.669-1.228a1.646 1.611-9.813 0 1-1.016-.7l-3.335-5.091a.832.815-48.672 0 1-.045-.838l1.213-2.357a.828.824 22.445 0 1 .986-.407q5.849 1.881 10.923 7.684a.868.865-37.425 0 1-.174 1.293m38.206-8.497q7.48 1.99 8.94 2.42c3.38 1 4.97 2.35 5.48 5.65a.416.416 2.329 0 1-.51.47l-3.08-.74a1.789 1.777 33.722 0 0-1.48.29l-1.73 1.25a1.718 1.711 31.074 0 1-1.22.3c-5.58-.74-6.78-3.83-6.99-9.17a.47.47 6.444 0 1 .59-.47m-119.31 9.34a.411.41 53.064 0 0 .11-.78l-1.28-.58a.926.893 48.345 0 0-.65-.05l-2.97.82a.453.449 87.608 0 1-.56-.52c.58-3.16 2.54-4.99 5.76-5.57q4.64-.84 8.86-1.96a.601.598 83.033 0 1 .75.59c-.11 4.42-1.82 8.11-6.55 8.59a.776.775-86.451 0 0-.69.61q-.83 3.85-3.96 6.75-2.25 2.09-3.85 5.85-.56 1.31-1.62 2.18a.461.46-27.676 0 1-.74-.23q-1.13-4.39-1.05-8.7c.08-5.12 4.13-6.39 8.44-7m70.834.136-2.829 3.988a1.203 1.175-72.576 0 1-.954.512l-11.425.28a1.5 1.5 69.648 0 1-1.184-.544l-3.152-3.824a.922.916-47.569 0 1-.046-1.109l3.549-5.006a1.08 1.08-32.075 0 1 .853-.449l11.077-.115a1.013 1.007 72.442 0 1 .825.431l3.294 4.748a.95.95 45.406 0 1-.008 1.088m6.808 18.97-4.71-1.516a1.218 1.189-.088 0 1-.785-.765l-3.749-10.94a1.516 1.515-37.865 0 1 .164-1.308l2.731-4.206a.933.927 24.918 0 1 1.056-.382l5.912 1.9a1.09 1.09-47.825 0 1 .692.686l3.485 10.655a1.025 1.019-35.071 0 1-.165.927l-3.579 4.625a.96.96-62.106 0 1-1.052.324m59.598-3.546a.625.624-52.389 0 1-1.15.15l-3.19-5.68a.9.851 9.72 0 0-.15-.2c-1.93-1.95-4.67-4.82-5.53-7.68a1.491 1.49 78.017 0 1 1.24-1.91c4.2-.54 9.5 1.27 9.78 6.31q.24 4.14-1 9.01m-82.674-9.836-4.06 11.473a.78.78-48.716 0 1-.528.491l-5.389 1.491a.78.78-82.202 0 1-.76-.201l-3.706-3.714a.78.78 65.697 0 1-.198-.764l3.216-11.358a.78.78-8.425 0 1 .541-.539l6.13-1.701a.78.78-77.817 0 1 .76.2l3.81 3.81a.78.78-8.43 0 1 .184.812m26.975 23.482-2.31-1.908a.686.685-72.559 0 1-.252-.484l-.54-6.104a1.739 1.701 62.909 0 1 .387-1.244l4.088-4.961a.879.861 24.049 0 1 .831-.309l2.758.485a.874.87-84.834 0 1 .72.867q-.062 6.489-4.323 13.428a.917.914 35.297 0 1-1.359.23m-45.309-14.008 2.859.115a.655.654 70.19 0 1 .471.222l3.938 4.327a1.66 1.624 25.658 0 1 .425 1.169l-.24 6.134a.839.822-13.202 0 1-.454.715l-2.376 1.225a.835.831 57.915 0 1-1.048-.242q-3.703-4.968-4.475-12.704a.875.872-1.954 0 1 .9-.961"></path><path fill="#fff" fill-rule="evenodd" d="M123.748 196.564a.96.96-9.514 0 1-.642.901l-5.545 1.948a1.03 1.024-36.55 0 1-.936-.136l-9.059-6.7a1.1 1.1-13.783 0 1-.435-.879l.061-6.24a.938.932 83.461 0 1 .699-.886l4.878-1.272a1.524 1.522-33.756 0 1 1.299.258l9.247 7.043a1.224 1.195-71.532 0 1 .48.991zm16.845-3.942-9.058 6.539a.88.88 80.21 0 1-.754.133l-5.92-1.673a.88.88-43.622 0 1-.641-.847v-5.384a.88.88-60.072 0 1 .365-.713l9.77-7.048a.88.88 70.61 0 1 .755-.133l5.038 1.428a.88.88-46.453 0 1 .64.822l.169 6.139a.88.88-82 0 1-.364.737M67.38 215.16a.44.437-58.993 0 1-.83.21l-4.02-8.15a2.686 2.206 78.465 0 1-.14-.35c-1.79-5.47-3.64-12.21 3.9-14.52a.353.352-10.092 0 1 .46.32zm56.716-17.218q.079-.001.154.02 3.5.938 5.74 2.098a1.092 1.085 8.886 0 1 .58.79l.48 2.86a.688.678-12.815 0 1-.497.776q-3.655.976-6.392 1t-6.408-.889a.688.678 11.823 0 1-.511-.768l.431-2.867a1.092 1.085-9.878 0 1 .566-.8q2.22-1.199 5.703-2.198.075-.021.154-.022M67.99 207.89a.543.54-67.035 0 1 .93-.38q7.48 7.76 11.36 17.75 1.15 2.95 1.39 5.72a.529.528-61.823 0 1-.99.3q-2.71-5.01-7.58-8.74a5.54 5.507 1.373 0 1-1.17-1.22q-3.89-5.54-3.94-13.43m115.37 15.19q-3.87 3.09-7.43 7.53a.492.491-87.142 0 0 .65.72l9.34-6.03 9.82-5.83a.378.377-.505 0 1 .52.51q-2.66 4.76-6.35 8.51-4.84 5.14-10.9 8.6a1.25 1.179 24.882 0 1-.48.16l-7.63 1.01a.352.345 17.448 0 1-.31-.58c2.1-2.24 2.78-2.36 3.31-5.37q1.19-6.59 4.75-12.44 3.21-6.18 8.22-11.22a.434.434 65.717 0 1 .74.28q.49 7.71-4.25 14.15"></path><path fill="#fff" fill-rule="evenodd" d="M78.1 220.01a.46.459 88.689 0 1 .62-.65q6.78 4.17 11.93 10.91a4.411 3.992 2.855 0 0 .77.77q3.93 3.05 6.85 7.8a.357.356 78.084 0 1-.35.54c-7.6-.99-13.63-7.46-17.04-14.31q-1.73-3.49-2.78-5.06m98.85-.79q.16.16.28.21c-3.86 9.31-9.52 17.87-19.65 20a.439.435 9.404 0 1-.47-.65c1.02-1.68 2.87-3.99 4.45-5.48q1.84-1.72 6.62-7.11 3.34-3.76 8.77-6.97m-92.34 18.64a.242.237 75.614 0 1-.22.38l-7.61-1.01a1.576 1.472-24.327 0 1-.59-.2c-6.53-3.82-13.57-10.06-16.9-17.06a.443.443 5.162 0 1 .66-.55q5.03 3.64 11.48 7.03c3.43 1.79 5.78 3.75 9.41 6.3a.47.29 76.717 0 1 .11.11z"></path><path fill="#1f1a17" fill-rule="evenodd" d="M183.36 223.08q.15 1.17 2.56 2.22l-9.34 6.03a.492.491-87.142 0 1-.65-.72q3.56-4.44 7.43-7.53"></path><path fill="#fff" fill-rule="evenodd" d="M90.88 227.1q3.21 1.24 9.29 2.75 7.49 1.86 13.32 7.84a.398.394-29.195 0 1-.19.66q-8.47 2.15-13.58-.97-4.59-2.81-9.22-9.8a.322.32 83.514 0 1 .38-.48m73.979.528q-4.624 6.959-9.203 9.753-5.097 3.102-13.535.946a.397.393 29.281 0 1-.188-.658q5.819-5.951 13.286-7.793 6.062-1.496 9.262-2.727a.321.319-83.427 0 1 .378.479"></path><path fill="#1f1a17" fill-rule="evenodd" d="M195.4 236.61q-9.78 10.79-22.98 20.82-5.71 4.33-9.65 6.61-.41-.1-.46-.33 18.11-11.57 32.68-27.41z"></path><path fill="#fff" fill-rule="evenodd" d="M79.88 241.85c4.15-.76 8.26-3.75 13.11-2.37q5.1 1.46 9.92 2.32a1.399 1.398 30.156 0 1 .65 2.45l-5.17 4.31a4.638 4.635 32.32 0 1-4.14.93q-8.47-2.18-14.53-6.99a.368.368 58.837 0 1 .16-.65m95.57.002a.367.367-58.847 0 1 .159.648q-6.04 4.796-14.483 6.97a4.624 4.621-32.329 0 1-4.127-.926l-5.155-4.296a1.395 1.394-30.165 0 1 .648-2.442q4.804-.858 9.888-2.315c4.835-1.376 8.932 1.604 13.07 2.361m-48.208 5.202a.447.442-3.801 0 1-.54.609c-3.256-1.02-5.744 1.606-8.342 4.172a5.019 4.92 8.291 0 1-1.299.948q-10.031 5.161-16.74-3.362a.666.66-18.885 0 1 .53-1.069h1.108a1.16 1.16-71.037 0 0 .92-.449q3.477-4.374 4.277-5.142c5.376-5.213 13.476-3.501 19.209.157a.972.966 21.524 0 1 .429.979q-.27 1.608.448 3.157m.868.016q.72-1.55.45-3.16a.973.967-21.502 0 1 .43-.98c5.74-3.66 13.85-5.37 19.23-.15q.8.77 4.28 5.15a1.17 1.17 71.059 0 0 .92.45h1.11a.667.661 18.907 0 1 .53 1.07q-6.72 8.53-16.76 3.36a5.025 4.925-8.269 0 1-1.3-.95c-2.6-2.57-5.09-5.2-8.35-4.18a.448.442 3.823 0 1-.54-.61" data-source="https://football-logos.cc"></path><!-- source: https://football-logos.cc --></svg>