<svg xmlns="http://www.w3.org/2000/svg" viewBox="0 0.91 800 799.09"><!-- Source: https://football-logos.cc --><path fill-rule="evenodd" d="M800 388v23.84q-1.42 25.44-2.43 31.94-2.45 15.78-4.95 31.64-3.6 22.88-14.36 54.16-6.55 19.04-11 29.2-19.45 44.37-47.67 81.83-1.19 1.58-9.5 12.15-5.47 6.95-9.91 11.78-14.13 15.39-16.57 17.82-6.65 6.63-23.02 21.48c-5.47 4.97-10.67 8.48-16.53 13.31q-5.67 4.67-12.7 9.56-36.23 25.26-68.95 39.39-28.04 12.11-50.65 18.62-37.82 10.89-81.1 15.28h-63.03c-7.19-1.28-15.24-1.64-21.62-2.73q-22.23-3.81-23.97-4.11-9.66-1.68-33.04-7.91-6.77-1.8-25.67-8.58c-35.59-12.75-69.15-30.94-99.6-53.03-7.57-5.49-13.27-10.49-19.85-15.5q-6.26-4.77-14.23-12.49-15.77-15.26-19.81-19.48-41.47-43.34-67.89-96.33-7.09-14.21-8.48-17.56c-9.27-22.39-17.21-44.32-22.66-67.29Q4.98 470.45 1.7 446.3q-.78-5.7-1.7-18.55v-54.64c.87-4.37.59-9.47 1.22-13.07 1.69-9.72 2.63-19.46 4.41-29.17q10.83-59.14 36.93-110.38 31.67-62.18 82.52-110.66 1.95-1.86 13.74-12.09c37.88-32.87 82.08-58.78 129.54-74.88 9.47-3.22 16.99-6 25.06-8.03q17.5-4.39 33.65-7.47 5.52-1.05 27.44-4.04 11.44-1.57 28.06-2.03 18.86-.53 36.41-.32 5.55.07 12.5.97c5.42.7 10.61.7 16.68 1.56q38.62 5.5 65.01 13.41 85.88 25.74 152.77 85.19 12.88 11.44 31.47 31.51c6.69 7.23 11.94 14.3 17.98 21.58q2.46 2.97 6.86 8.99 40.38 55.29 60.59 121.28 5.94 19.39 9.51 39.15 4.57 25.24 5.35 35.15 1.12 14.09 2.3 28.24m-6.73 12.64A393.73 393.73 0 0 0 399.54 6.91 393.73 393.73 0 0 0 5.81 400.64a393.73 393.73 0 0 0 393.73 393.73 393.73 393.73 0 0 0 393.73-393.73" data-source="https://football-logos.cc"></path><path fill="#ffde00" fill-rule="evenodd" d="M793.27 400.64a393.73 393.73 0 0 1-393.73 393.73A393.73 393.73 0 0 1 5.81 400.64 393.73 393.73 0 0 1 399.54 6.91a393.73 393.73 0 0 1 393.73 393.73M42.7 253.99q-.37.26-.82 1.35-9.64 22.75-16 47.96-1.23 4.89-1.68 7.34c-1.22 6.72-3.3 12.45-3.99 18.35q-.17 1.43-2.77 14.91-.8 4.14-.86 5.66-.39 11.28-2.36 31.85-.34 3.53-.4 6.7-.06 3.26-.21 6.71-.19 4.09.14 10.1c.47 8.81.33 17.81 1.24 26.44q.98 9.35 1.54 15.84c.62 7.22 2.75 15.63 3.72 22.25q.96 6.64 3.38 16.61 7.32 30.12 17.63 57.97 2.14 5.8 5.96 13.87 1.24 2.6 2.02 4.76.93 2.59 2 4.75 3.29 6.61 4.08 7.56.96 1.15 2.51 4.82a4.004 3.86-76.425 0 0 .51.87q1.59 2.08 2.45 4.06c1.29 2.94 3.11 5.47 4.88 8.98q.82 1.62 2.5 4.29 12.78 20.34 23.23 34.76 2.2 3.04 6.5 8.15.39.46 6.33 8.12 2.95 3.81 15.68 17.11.16.16 12.18 12.37 11.62 11.79 24.38 21.53 4.17 3.18 11.52 9.48 2.03 1.75 4 2.88 1.57.92 4.28 2.49 3.56 2.06 4.31 3.11.44.62 5.38 3.42a3.839 2.205 37.25 0 1 .45.3q7.34 5.48 14.82 9.86 14.12 8.28 27.47 15.22 14.6 7.58 37.13 16.08c3.02 1.13 6.97 2 9.93 3.3 3.74 1.65 9.03 2.44 13.04 4.07q2.73 1.12 5.48 1.8c6.45 1.6 11.68 3.43 18.05 4.62q3.56.67 11.66 2.97a1.223.094 4.373 0 0 .13.02l14.62 2.48a2.674 2.263-39.46 0 0 .74.01q2.06-.28 4.07.53a5.534 5.454-33.324 0 0 2.11.42q1.14.01 1.29.06a17.25 17.088-33.099 0 0 4.13.85q15.81 1.29 37.26 2.59 10.1.61 20.66.02 14.83-.82 29.51-1.78 9.68-.63 11.01-.75 5.92-.56 10.85-1.86 6.84-1.8 12.77-2.27 2.06-.17 5-.98c4.81-1.32 6.82-2.13 12.39-3.05 3.96-.66 8.4-2.44 12.94-3.48q6.2-1.42 12.86-3.64 5.74-1.9 5.79-1.92 8.87-3.01 17.1-6.03 2.49-.92 4.47-1.86 2.36-1.12 4.45-1.92 3.96-1.51 6.71-2.8 18.84-8.79 37.71-19.2c2.41-1.33 5.49-3.88 8.33-5.3q8.96-4.46 16.53-10.22 5.24-3.99 8.75-6.5 16.88-12.07 32.46-26.17c6.29-5.69 14.6-13.43 21.34-20.67q32.17-34.55 55.59-75.11 4.09-7.09 17.29-33.89 2.77-5.64 4.91-11.5 3.57-9.79 4.42-11.72c2.2-5 3.18-9.51 5.51-15.36a6.554 6.221-29.472 0 0 .3-.98q1.64-7.58 2.31-8.76 1.8-3.18 2.12-7.4a.578.209-64.903 0 1 .01-.11l5.42-24.29a2.031 1.111 87.618 0 1 .07-.25q1.92-5.11 2.23-8.1.38-3.71.98-5.96.99-3.76 1.23-5.92 1.94-17.37 2.55-30.11 1.05-21.77.32-46.4c-.18-5.88-.86-11.93-1.2-17.35q-.41-6.5-1.47-12.95-3.94-24.1-7.22-37.93-5.58-23.56-17.38-54.85c-7.74-20.53-18.44-39.31-29.59-58.18q-6.26-10.58-12.19-18.92-14.04-19.77-23.6-30.77-10.66-12.29-30.75-31.6-9.76-9.39-19.36-16.85-14.31-11.13-20.46-15.51-5.29-3.78-9.06-6.43c-7.02-4.92-14.28-8.48-21.24-13.03q-4.73-3.08-8.89-5.42-7.68-4.33-9.11-5.02c-10.64-5.1-19.77-9.67-30.35-13.67q-21.95-8.3-37.93-12.75-21.06-5.87-34.95-8-9.46-1.46-13.59-2.26c-10.92-2.13-16.86-2.07-29.97-3.07-18.91-1.44-37.95-.72-57.73.06-13.31.52-28.58 3.1-39 4.88q-33.96 5.79-67.66 18.84-6.65 2.58-9.58 3.98c-7.78 3.72-16.55 7.19-23.55 10.73q-21.05 10.62-43.05 24.33-.99.63-12.32 8.67c-8.44 6-15.81 12.6-23.81 18.74-10.98 8.43-15.33 13.84-28.86 27.26q-9.58 9.5-16.41 18.15-16.28 20.61-23.86 31.64c-14.15 20.6-25.72 41.71-35.69 63.75q-1.15 2.55-2.46 6.82a.65.623 80.654 0 1-.24.35"></path><path fill="#f13b24" fill-rule="evenodd" d="M42.94 253.64q1.31-4.27 2.46-6.82c9.97-22.04 21.54-43.15 35.69-63.75q7.58-11.03 23.86-31.64 6.83-8.65 16.41-18.15c13.53-13.42 17.88-18.83 28.86-27.26 8-6.14 15.37-12.74 23.81-18.74q11.33-8.04 12.32-8.67 22-13.71 43.05-24.33c7-3.54 15.77-7.01 23.55-10.73q2.93-1.4 9.58-3.98 33.7-13.05 67.66-18.84c10.42-1.78 25.69-4.36 39-4.88 19.78-.78 38.82-1.5 57.73-.06 13.11 1 19.05.94 29.97 3.07q4.13.8 13.59 2.26 13.89 2.13 34.95 8 15.98 4.45 37.93 12.75c10.58 4 19.71 8.57 30.35 13.67q1.43.69 9.11 5.02 4.16 2.34 8.89 5.42c6.96 4.55 14.22 8.11 21.24 13.03q3.77 2.65 9.06 6.43 6.15 4.38 20.46 15.51 9.6 7.46 19.36 16.85 20.09 19.31 30.75 31.6 9.56 11 23.6 30.77 5.93 8.34 12.19 18.92c11.15 18.87 21.85 37.65 29.59 58.18q11.8 31.29 17.38 54.85 3.28 13.83 7.22 37.93 1.06 6.45 1.47 12.95c.34 5.42 1.02 11.47 1.2 17.35q.73 24.63-.32 46.4-.61 12.74-2.55 30.11-.24 2.16-1.23 5.92-.6 2.25-.98 5.96-.31 2.99-2.23 8.1a2.031 1.111 87.618 0 0-.07.25l-5.42 24.29a.578.209-64.903 0 0-.01.11q-.32 4.22-2.12 7.4-.67 1.18-2.31 8.76a6.554 6.221-29.472 0 1-.3.98c-2.33 5.85-3.31 10.36-5.51 15.36q-.85 1.93-4.42 11.72-2.14 5.86-4.91 11.5-13.2 26.8-17.29 33.89-23.42 40.56-55.59 75.11c-6.74 7.24-15.05 14.98-21.34 20.67q-15.58 14.1-32.46 26.17-3.51 2.51-8.75 6.5-7.57 5.76-16.53 10.22c-2.84 1.42-5.92 3.97-8.33 5.3q-18.87 10.41-37.71 19.2-2.75 1.29-6.71 2.8-2.09.8-4.45 1.92-1.98.94-4.47 1.86-8.23 3.02-17.1 6.03-.05.02-5.79 1.92-6.66 2.22-12.86 3.64c-4.54 1.04-8.98 2.82-12.94 3.48-5.57.92-7.58 1.73-12.39 3.05q-2.94.81-5 .98-5.93.47-12.77 2.27-4.93 1.3-10.85 1.86-1.33.12-11.01.75-14.68.96-29.51 1.78-10.56.59-20.66-.02-21.45-1.3-37.26-2.59a17.25 17.088-33.099 0 1-4.13-.85q-.15-.05-1.29-.06a5.534 5.454-33.324 0 1-2.11-.42q-2.01-.81-4.07-.53a2.674 2.263-39.46 0 1-.74-.01l-14.62-2.48a1.223.094 4.373 0 1-.13-.02q-8.1-2.3-11.66-2.97c-6.37-1.19-11.6-3.02-18.05-4.62q-2.75-.68-5.48-1.8c-4.01-1.63-9.3-2.42-13.04-4.07-2.96-1.3-6.91-2.17-9.93-3.3q-22.53-8.5-37.13-16.08-13.35-6.94-27.47-15.22-7.48-4.38-14.82-9.86a3.839 2.205 37.25 0 0-.45-.3q-4.94-2.8-5.38-3.42-.75-1.05-4.31-3.11-2.71-1.57-4.28-2.49-1.97-1.13-4-2.88-7.35-6.3-11.52-9.48-12.76-9.74-24.38-21.53-12.02-12.21-12.18-12.37-12.73-13.3-15.68-17.11-5.94-7.66-6.33-8.12-4.3-5.11-6.5-8.15-10.45-14.42-23.23-34.76-1.68-2.67-2.5-4.29c-1.77-3.51-3.59-6.04-4.88-8.98q-.86-1.98-2.45-4.06a4.004 3.86-76.425 0 1-.51-.87q-1.55-3.67-2.51-4.82-.79-.95-4.08-7.56-1.07-2.16-2-4.75-.78-2.16-2.02-4.76-3.82-8.07-5.96-13.87-10.31-27.85-17.63-57.97-2.42-9.97-3.38-16.61c-.97-6.62-3.1-15.03-3.72-22.25q-.56-6.49-1.54-15.84c-.91-8.63-.77-17.63-1.24-26.44q-.33-6.01-.14-10.1.15-3.45.21-6.71.06-3.17.4-6.7 1.97-20.57 2.36-31.85.06-1.52.86-5.66 2.6-13.48 2.77-14.91c.69-5.9 2.77-11.63 3.99-18.35q.45-2.45 1.68-7.34 6.36-25.21 16-47.96.45-1.09.82-1.35a.65.623 80.654 0 0 .24-.35M524.82 80.82c-.04 1.76.98 4.31.71 6.4q-.44 3.46-1.84 8.32a1.034 1.03-85.009 0 1-.89.75q-1.57.16-3.2-.41-11.94-4.16-27.86-9.17-5.09-1.6-8.44-2.33c-8.05-1.75-13.32-3.42-21.32-4.65q-7.03-1.09-17.7-4.12a2.244 2.24 6.999 0 1-1.62-2.07c-.08-2.24-.12-5.44.19-7.7q2.22-16.34 3.97-37.09.2-2.43-.29-3.85a2.04 2.027 6.935 0 0-.82-1.04q-4.89-3.19-10.99-3.7a1.073 1.071 86.745 0 0-1.14 1.28c.95 4.83 1.27 7.74.71 12.93q-2.66 24.63-3.52 32.62-.76 7.07.32 9.99c1.48 3.98 4.87 9.08 9.36 10.31 10.95 3.03 24.06 5 34.2 7.59q14.84 3.79 32.41 9.69 3.22 1.08 6.8 2.6c3.27 1.4 7.88 2.99 11.5 5.08q2.91 1.68 4.47 2.54a1.559 1.559-82.586 0 0 2.26-1.74l-1.16-4.75a1.321 1.273 49.144 0 1 .04-.74q2.33-6.51 5.13-12.67 1.38-3.03 1.13-6.28a4.011 3.977-73.772 0 0-1.56-2.87c-3.07-2.35-6.1-4.52-10.27-5.39a.488.487 5.959 0 0-.58.47M390.877 53.166l9.238-.194a2.12 2.12 8.266 0 0 2.075-2.164l-.003-.18a7.84 6.66 88.8 0 0-6.823-7.699l-.16.004a7.84 6.66 88.8 0 0-6.494 7.978l.003.18a2.12 2.12-24.475 0 0 2.164 2.075M251.04 51.05q-.99-.14-2.26.14-6.45 1.41-11.61 4.7a.61.606-52.009 0 0 .13 1.09l4.13 1.35a2.612 2.553-10.3 0 1 1.14.77q1.87 2.22 3.31 5.52 2.63 5.98 19.53 44.47 1.03 2.34 2.72 3.55a1.765 1.741 61.154 0 0 1.11.33q8.2-.36 13.7-5.22a1.053 1.053 24.217 0 0-.7-1.84h-3.71a1.282 1.281 80.376 0 1-1.21-.86c-1.16-3.39-3.17-6.71-4.5-9.9q-8.1-19.3-17.16-38.71c-.73-1.55-2.04-3.51-2.96-4.51a2.764 2.757-16.999 0 0-1.66-.88m116.27 5.34a.473.472 76.637 0 0-.43.7c1.38 2.5 3.75 5.2 4.2 8.18q.58 3.82.4 7.95a.821.814 87.96 0 1-.72.78l-11.6 1.24a1.745 1.727 74.198 0 1-1.75-.99q-.33-.61-.76-2.12c-1.85-6.52-9.37-10.15-15.67-10.15q-3.65.01-9.59 1.81a6.429 5.78 29.605 0 1-1.05.23q-7.74 1.11-14.15 2.88-2.21.61-3.62 2.03a.722.719-49.835 0 0 .09 1.09l5.29 3.81a2.445 2.436-77.483 0 1 .97 1.53c.46 2.5 1 4.66 2.63 6.5 1.4 1.59 4.23 1.49 5.79 2.29 1.84.95 3.67 1.79 3.81 4.08.44 7.19-3.4 12.07-10.91 12.24q-2.4.05-4.4-2.09-4.87-5.18-4.42-11.49a.698.697-20.54 0 0-1.19-.54l-1.14 1.14a2.845 2.817 70.892 0 0-.81 1.69c-1.54 14.48 12.24 27.59 26.42 20.05q3.93-2.09 5.31-3.99 2.55-3.5 5.3-5.68a1.098 1.095-24.385 0 0 .4-1.06l-2.07-11.76a1.379 1.361-71.193 0 0-.3-.62l-4.21-4.83a3.82 3.796 78.588 0 0-1.69-1.13l-3.84-1.28a.971.97-59.232 0 1-.4-1.58q3.71-3.97 9.35-1.9a2.44 2.427 79.844 0 1 1 .7c2.49 2.92 3.49 6.85 4.39 10.98a2.187 2.183-4.844 0 0 2.03 1.71q2.58.14 4.55-.22c8.71-1.55 16.51-2.69 26.03-2.75q26.04-.16 29.7 0 5.8.27 11.03 1.12.43.08 1.19 0a.39.388-17.789 0 0 .3-.58l-4.09-7.08a3.731 3.7-59.557 0 1-.49-1.92c.19-8.96-1.45-16.17-10.48-19.94q-2.48-1.04-6.65-.95c-6.71.15-12.42-.75-18.93 2.08a1.034 1.009 40.935 0 1-.68.04l-6.72-1.85a2.154 1.798-31.717 0 0-.35-.05zm-115.39 67.15q5.77-2.76 11.37-5.05a.865.863 39.168 0 0-.17-1.65c-2.98-.55-5.91-.59-7.88-3.33q-4.73-6.6-6.54-10.3-.37-.76-7.92-15.49-2.82-5.49-10.75-19.48-1.36-2.41-3.09-4.11a2.23 2.201 62.693 0 0-1.87-.61q-6.63.95-11.99 5.01a1.067 1.065 39.363 0 0 .18 1.81q4.53 2.19 6.61 5.59c5.28 8.63 10.58 19.1 21.53 39.35a.662.66 76.561 0 1-.6.98q-1.26-.05-2.38.42-4.09 1.73-7.73 3.42a1.091 1.088 56.499 0 1-1.27-.26c-5.75-6.55-15.5-7.97-22.82-2.98q-4.44 3.03-16.24 12c-1.74 1.33-3.51 2.56-5.67 2.25q-1.48-.22-3.38.47a1.408 1.399-23.732 0 0-.77 1.96c2.2 4.23 8.29 10.79 13.59 7.55q6.02-3.68 12.07-8.51c3.2-2.56 8.01-5.73 11.33-6.93a1.03 1.029.668 0 1 1.31 1.34c-.68 1.78-1.47 3.03-3.05 4.17q-7.9 5.7-18.65 13.22-7 4.9-11.87 10.45a1.387 1.379 45.643 0 1-2.1-.03c-2.51-3-8.42-9.23-12.42-7.57q-5.45 2.25-9.24 6.7a.812.81-63.513 0 0 .44 1.32l3.28.74a.694.612-17.643 0 1 .25.11q4.54 3.51 5.89 4.93 12.05 12.66 15.09 15.76c1.34 1.37 3.31 4.24 1.63 5.88q-1.39 1.34-2.33 1.45-3.8.47-6.08 2.67a.505.505-61.215 0 0 .25.86c4.78.98 10.45 2.02 13.96-.55q7.01-5.15 4.31-13.78c-1.02-3.28-3.28-5.35-5.61-7.3a.291.283-50.073 0 1-.03-.4q5.51-6.71 12.77-11.8 8.23-5.78 16.59-11.36 4.27-2.85 9.32-6.83c6.23-4.92 12.54-8.2 20.68-12.09m338.73-53.82v1.59a1.999 1.98-35.265 0 1-.12.68q-2.49 7.2-6.51 13.54-6.77 10.66-18.29 29.44-.75 1.22-2.5 2.84a.659.651-44.008 0 1-.9-.01c-1.68-1.65-7.7-4.14-5.72-8.2 1.93-3.92 4.24-8.03 3.3-11.57a1.784 1.743-77.503 0 0-.54-.87c-3.71-3.33-5.54-4.93-9.76-6.14a.521.52 10.679 0 0-.66.45l-.55 5.85a11.092 11.047-27.332 0 1-1.44 4.49q-4.49 7.75-11.37 21.22-.66 1.28-2.38 2.51a1.154 1.136-52.692 0 1-1.05.15c-3.75-1.31-4.13-3.48-5.25-7.18a.69.687-36.539 0 0-1.23-.18c-1.27 1.9-.8 5.73-.68 8.02a3.248 3.22 25.368 0 0 .64 1.77q2.48 3.36 6.61 5.32c7.26 3.44 13.29-1.89 16.5-8.3a1.863 1.86 34.478 0 1 2.92-.54q1.94 1.77 4.66 3.23c4.41 2.36 7.11 4.32 11.94 7.41q1.14.72 4 1.86a.436.435-87.347 0 0 .58-.53q-1.96-6.46 1.66-12.33 21.09-34.29 21.59-35.12c2.48-4.12 4.52-7.03 4.63-10.7q.04-1.26-1.72-2.79-4.28-3.7-7.81-6.19a.349.346 17.798 0 0-.55.28m24.49 14.89q-.47 4.38-3.81 10-.38.63-25.09 34.6-3.03 4.16-5.82 9.45-1.1 2.08-.06 3.5 3.55 4.9 9.65 7.68a.45.45 14.258 0 0 .64-.38q.38-5.61 3.84-10.53 5.29-7.51 21.67-29.75 3.7-5.01 6.9-10.35 3.01-5.01-1.15-8.88-2.49-2.33-3.88-2.98a1.071.989 79.306 0 1-.35-.26l-1.98-2.27a.321.318 27.815 0 0-.56.17m-263.17 30.77q4.47-.05 7.68-2.02a1.425 1.395-9.176 0 0 .62-.84q.63-2.32.06-3.79c-.44-1.16-1.65-1.73-2.14-2.72a2.297 2.287 33.916 0 1-.23-1.16c.28-4.32.03-9.04-3.99-11.36-4.17-2.41-7.23 1.08-6.33 5.22q1.02 4.72.48 8.53c-.49 3.39.17 6.27 2.81 7.86a1.946 1.942 60 0 0 1.04.28m168.42-.9q-2.88-3.35-7.15-2.36a1.476 1.458-77.698 0 0-.83.54q-3.03 4.09-2.91 6.36.16 3.3-1.8 5.65c-1.07 1.27-1.89 2.54-2.31 3.8a2.346 2.337-69.909 0 0 1.34 2.9l7.87 3.23a.766.764-72.37 0 0 1.04-.54l1.9-8.53a1.079 1.017 69.882 0 1 .12-.28q2.85-4.69 3.08-9.78a1.453 1.427 26.047 0 0-.35-.99M136.87 287.47l-7.41 18.85q-3.64 10.26-7.78 25.57-1.43 5.3-2.14 9.64c-1.44 8.77-3.07 17.21-4.78 27.76a4.845 4.719 46.973 0 0-.03 1.41c.51 4.43-.79 9.37-.86 13.98q-.22 14.56-.26 25.76c-.03 7.26 1.26 13.96 1.77 21.18q.49 6.89 2.04 15.75 2.91 16.59 3.33 18.38.7 2.96 5.45 19.77 2.78 9.86 6.47 18.97 5.83 14.44 7.9 18.44 10.88 20.97 13.05 24.69 7.44 12.77 15.41 23.11c6.58 8.53 15.3 19.41 24.07 28.4 19.8 20.3 42.52 37.96 67.44 51.17q11.02 5.84 14.89 7.76 4.37 2.18 27.07 11.66c3.88 1.62 7.43 2.39 11.03 3.77 4.91 1.87 10.27 2.61 15.91 4.36q2.61.81 7.53 1.81 5.03 1.02 15.21 3.21 5.3 1.14 20.59 2.38c7.13.57 18.37 1.69 27.32 1.55q24.47-.4 47.97-4.16c5.36-.86 9.88-2.1 14.72-3.1q5.24-1.09 11-2.65 28.18-7.64 55.92-21.69 17.58-8.91 30.77-17.77 14.54-9.76 30.1-22.86 2.89-2.44 5.91-5.59 5.48-5.72 16.11-16.37 3.31-3.32 12.25-14.42 3.38-4.19 9.57-13.54 7.28-11.01 9.08-13.91 6.67-10.79 8.27-14.46 1.41-3.22 1.93-3.98 2.02-2.92 2.19-3.83c.46-2.49 2.65-5.27 3.71-7.75q8.83-20.78 11.45-29.67 2.18-7.4 3.84-12.48c1.82-5.6 3.47-12.44 4.78-18.48q.71-3.3.9-5.22c.45-4.67 1.75-9.12 2.33-13.07q2.71-18.22 3.05-39.46c.1-6.56-.49-16.44-.73-21.33q-.54-10.92-2.84-24.17c-1.45-8.37-2.01-13.72-3.7-20.79q-9.49-39.79-29.21-75.52c-2.07-3.74-4.15-6.64-5.77-10.2q-.09-.2-1.9-2.22a.313.28-86.83 0 1-.08-.1l-10.33-16.15-.08-.1c-4.26-4.71-8.84-10.3-13.53-16.35q-5.92-7.63-15.13-17.05-4.23-4.32-8.14-7.3-3.69-2.81-8.3-7.16-6.1-5.76-12.62-10.46-2.89-2.09-10.84-8c-5.38-3.99-13.71-9.25-17.91-11.52q-21.05-11.36-26.59-13.9-13.77-6.31-26.19-10.31-7.72-2.48-25.29-7.16c-7.3-1.94-14.38-2.78-20.32-4.19q-6.01-1.43-15.42-2.26-29.42-2.6-58.81-.56-8.29.57-17.66 2.48-6.52 1.33-17.61 3.08-1.34.21-5.7 1.61-3.14 1.02-5.71 1.55-4.6.95-9.84 3.11a8.174 7.633 25.16 0 1-1.24.4q-3.45.83-4.88 1.32-21.52 7.38-42.93 18.39-15.8 8.13-29.75 18.02-14.89 10.55-27.42 21.46-12.11 10.54-19.62 18.9-9.16 10.21-24.18 30.82c-1.36 1.85-3.82 4.59-5.3 6.98-8.15 13.21-16.79 28.68-23.5 43.81m89.16-140.36q.18 2.93 2.71 4.92a2.238 2.229-23.571 0 0 1.23.48c3.77.31 5.89-1.29 8.55-3.56a2.62 2.62 48.349 0 0 .22-3.77q-2.71-2.94-6.68-4.26a1.278 1.266-49.353 0 0-.99.08q-3.05 1.59-4.78 4.9a2.301 2.281-33.12 0 0-.26 1.21m417.55 29.75q4.88 2.59 6.03 7.94a2.293 2.265 44.651 0 1 .01.82c-.99 5.58-5.96 8.17-9.71 11.69a.77.767-47.097 0 0 .04 1.15q4.54 3.79 8.74 9.59 1.63 2.25 11.45 17.06 5.48 8.26 10.11 16.02c5.79 9.72 10.91 21.03 16.51 31.25 1.51 2.75 3.13 6.98 3.85 9.25q3.3 10.5 7 20.74c1.64 4.52 3.13 10.26 5.22 15.24q1.12 2.65 1.44 4.87a.775.774-35.179 0 0 1.45.25l1.5-2.8a7.876 7.85-88.586 0 1 3.55-3.39q4.16-2 10-4.54 2.63-1.14 3.87-4.07 2.86-6.71 2.19-9.92v-.04q-.18-1.62-2.25-7.33-3.34-9.17-6.4-18.23a4.356 4.313-38.74 0 1 .42-3.66q1.57-2.53 1.69-2.98.19-.67.16-.8a1.246 1.163-12.105 0 0-1.47-.88q-6.49 1.46-11.28 5.53a4.29 4.29 64.674 0 0-1.44 4.03c.59 3.23 1.72 7.04 3.16 10.51q3.44 8.25 5.21 16.78a1.502 1.501-5.927 0 1-1.47 1.81h-.77a2.281 2.28 81.054 0 1-2.17-1.58c-4.72-14.59-7.27-23.73-11.87-33.28q-8.8-18.25-17.44-33.32c-7.08-12.37-15.67-24.23-23.22-35.34a1.318 1.31 47.712 0 1 .07-1.58c3.35-4.1 6.57-11.85 4.26-17.17-1.48-3.41-3.34-6.22-6.2-9.4q-8.5-9.46-13.72-15.72-.4-.49-.7-.61a.885.882 11.508 0 0-1.23.81c0 3.11-.2 5.25-2.24 7.71-1.72 2.08-4.29 5.43-4.22 8.5.05 2.27 1.04 4.17.28 6.61q-1.21 3.86-4.7 5.4c-5.15 2.28-8.82-.64-11.64-4.72q-1.42-2.06-1.37-5.04c.07-4.63 4.14-7.42 8.43-7.72a.725.725-40.61 0 0 .11-1.43c-10.51-2.39-16.39 7.52-16.76 16.68q-.22 5.43 3.15 9.74c5.58 7.14 12.87 7.23 21.8 5.65a3.55 3.367-64.956 0 0 1.22-.48q5.52-3.5 8.01-9.92c1.16-3 .03-6.59.74-9.41a.422.421 20.693 0 1 .6-.27M58.96 404.09q7.13-3.57 14.09-4.88a3.526 3.505-75.085 0 0 2.04-1.19c2.95-3.5 4.02-5.79 8.13-6.12q5.58-.45 7.77 4.09c3.13 6.49.99 14.29-7.31 14.06q-2.38-.07-5.65-1.05-1.04-.31-1.22-.23a1.12 1.118 50.306 0 0-.18 1.96q3.88 2.58 9.32 3.36c10.88 1.55 21.91-9.45 19.66-20.35-1.37-6.65-5.6-9.19-10.85-13.24a4.534 4.513-19.726 0 0-1.79-.84c-3.54-.82-12.78-1.29-15.08 2.55q-1.8 2.99-3.3 5.15a.968.965-39.783 0 1-1.67-.15q-1.58-3.46-.44-7.35c.61-2.1 1.03-4.23 3.38-4.62q4.73-.78 11.08.39a1.092 1.092 6.391 0 0 1.29-1.03l.4-8.92a.392.137-64.33 0 1 .01-.09q2.61-14.17 5.44-28.08 4.49-22.07 12.69-46.25 3.54-10.43 8.15-19.89 8.86-18.16 10.98-22.74c2.9-6.28 8.48-13.07 11.61-18.02 3.72-5.88 6.72-11.66 11.29-17.31q13.52-16.72 26.33-31.16 1.51-1.71 2.44-3.33a.509.504-73.641 0 0-.41-.76q-4.29-.2-8.05-2.74-4.73-3.2-8.41-5.3-2.6-1.48-6.98-1.39-6.23.12-9.8 4.03-7.85 8.58-16.22 19.52a3.026 2.969 8.452 0 1-1.39 1.01l-4.88 1.71a1.081 1.079 59.552 0 0-.45 1.74c3.67 4.09 11.27 9.44 16.18 4.12 3.22-3.48 6.05-7.81 9.4-11.71q6.69-7.8 8.89-9.5a.944.942 74.609 0 1 1.51.86q-.39 3.24-2.2 5.37-7.61 8.94-18.32 22.04c-2.89 3.54-4.72 6.69-6.14 10.78a.402.397-59.527 0 1-.64.17c-3.3-2.91-7.7-6-12.48-6.82a2.946 2.943-67.325 0 0-2.87 1.18l-6.46 8.98a1.26 1.257 16.128 0 0 1.1 1.99c3.55-.22 6.86.15 9.83 1.83q1.22.69 4.33 2.25a.605.602 30.458 0 1 .23.88q-5.01 7.34-5.09 7.46-1.54 2.14-3.76.94-5.26-2.84-10.48-4.3a2.45 2.438-57.522 0 0-2.27.51q-4.26 3.71-5.92 9.92a1.064 1.062 7.769 0 0 1.02 1.34q5.46.04 10.3 2.9.71.42 4 1.06a.744.743 16.91 0 1 .54 1.01l-.77 1.87a1.417 1.416 17.295 0 1-1.62.85q-4.4-.99-7.39-2.56-3.53-1.85-5.44-2.36a1.534 1.528-65.757 0 0-1.68.64c-2.31 3.48-5.44 7.1-6.51 11a.922.914 2.587 0 0 1.05 1.14c4.44-.79 11.04 2.71 14.69 5.07a1.337 1.337 66.293 0 1-.95 2.44l-3.52-.6a4.139 3.922-24.743 0 1-1.24-.42c-1.35-.67-7.08-4.25-10.09-4.08a1.089 1.077 15.908 0 0-.82.45q-4.07 5.75-7.05 12.53a.578.576-82.88 0 0 .62.8q7.39-1.21 14.49 2.84a1.511 1.506 20.572 0 1 .73 1.6q-1.55 7.87-3.88 15.22-7.05 22.22-11.25 45.44c-1.4 7.76-3.12 13.57-4.4 20.09a1.488 1.478.546 0 1-1.19 1.16l-7.45 1.32a4.277 4.238-73.688 0 0-2.44 1.35c-5.23 5.84-6.66 10.73-6.36 19.21q.17 5.19-.18 13.36-.11 2.53-.65 5.4a.408.404 81.949 0 0 .58.44m116.37-203.55-4.57-2.1a1.781 1.7-29.227 0 0-.66-.17q-6.1-.44-7.41 6.36c-.86 4.4 6.77 4.26 9.08 3.39q3.99-1.5 4.48-5.85a1.616 1.6-74.726 0 0-.92-1.63m444.925 13.853 3.966 3.925a2.58 2.58-31.368 0 0 3.649-.019l9.953-10.058a5.71 5.32-45.3 0 0 .235-7.801l-.071-.07a5.71 5.32-45.3 0 0-7.798.316l-9.953 10.058a2.58 2.58-45.508 0 0 .019 3.649M137.02 238.48q4.67 2.76 8.36 4.66c2.53 1.31 4.81 3.73 7.24 4.81q2.03.89 3.23-.81 2.59-3.65 4.53-7.49a.864.86-64.438 0 0-.41-1.17q-5.38-2.5-13.03-7.05-1.85-1.1-5.06-.46a1.043.992 11.138 0 0-.63.4l-4.43 6.15a.668.666-56.856 0 0 .2.96m548.42 71.12q2.33-.86 4.76-2.8c3.26-2.6 2.45-8.54-.51-11.19a1.134 1.117 56.576 0 0-1.08-.23q-5.01 1.58-7.56 5.48a1.867 1.856-43.403 0 0-.06 1.95l3.78 6.55a.544.542-25.194 0 0 .67.24m26.22 81.78a.53.526 73.657 0 0 .87.48c3.46-3.08 7.52-6.7 12.73-6.85 16.19-.47 31.87-.7 48.43-2.79q2.96-.38 3.5-2.85 1.06-4.85 1.18-9.93a1.36 1.359-11.993 0 0-1.94-1.26c-3.67 1.74-5.89 2.91-10.04 3.05q-13.8.47-28.86 1.51-7.96.55-11.46 1.13a1.177 1.174 80.537 0 1-1.34-.96l-1.79-10.12a1.299 1.289-10.226 0 1 1.05-1.5l10.92-1.93a3.034 3.025 4.215 0 0 2.36-2.03c1.17-3.52.35-7.46.13-10.9a.934.932 88.682 0 0-.92-.88c-1.55 0-3.21.36-4.84 1.38q-3.67 2.27-8.87 2.67a.882.874-11.77 0 1-.91-.59q-1.26-3.64-1.5-7.58-.14-2.37 2.52-2.83c6.16-1.05 14.83-1.89 12.17-11.08q-1.05-3.66-2.09-5.68a1.615 1.612-33.218 0 0-2.46-.51l-4.59 3.74a3.974 3.967-70.07 0 1-1.77.83q-12.6 2.42-23.38 5.35-.57.16-4.1.16a.72.72 84.718 0 1-.71-.59l-.96-5.46a1.634 1.621 74.521 0 1 1.01-1.8q.99-.39 1.53-.86a1.096 1.096 24.974 0 0-.7-1.92c-3.85-.09-6.97 3.85-8.44 7.04a3.112 2.912 64.139 0 0-.27.87c-.89 5.85 1.64 12.04 7.91 13.72q6.06 1.62 10.87-.96a.558.556 70.617 0 1 .81.39q3.44 19.08 4.45 39.91.23 4.9-.5 9.63m48.52-48.12q-1.72-.53-3.47-.17-6.88 1.4-12.44 1.68-1.01.05-2.3.6c-2.64 1.13-.5 7.49.05 9.52a1.901 1.898 72.732 0 0 2.45 1.29q4.29-1.5 7.4-1.58c3.82-.09 6.21-1.38 8.65-3.39 2.44-2 1.48-4.15.48-7.14a1.288 1.25 88.789 0 0-.82-.81m-646.59 34.869.399-6.527a2.05 2.05 1.773 0 0-1.921-2.172l-14.453-.884a5.27 5.06 3.5 0 0-5.569 4.729l-.032.519a5.27 5.06 3.5 0 0 4.952 5.372l14.453.884a2.05 2.05 81.663 0 0 2.171-1.921m598.09 35.791a.554.553 68.6 0 0 .89.39q3.61-2.78 7.2-4.01a6.771 6.479 33.268 0 1 1.84-.34q6.61-.27 8.9.02c13.36 1.69 27.13 1.11 39.99.96q3.01-.03 5.23-.67a2.272 2.263-84.928 0 0 1.38-1.16q2.5-5.03 2.35-11.07a.953.951-9.772 0 0-1.25-.88c-4.37 1.41-7.45 2.14-12.01 2.22q-7.53.13-15.8-.61c-9.87-.89-18.78-.58-29.65-.77q-2.55-.04-4.87 1.07a2.766 2.729-87.109 0 0-1.19 1.09q-3.62 6.29-3.01 13.76M244.51 689.16a1.012 1.009-84.694 0 1-1.15-1.39q4.15-9.55 12.05-16.87c2.12-1.96 2.76-3.09 5.5-2.3q6.78 1.96 9.04 7.9c1.49 3.88-.98 6.17-2.94 9.49a1.58 1.578 16.952 0 0 1.27 2.38q7.02.39 15.41 2.67 3.79 1.02 7.24 1.23a.755.754.692 0 0 .8-.78c-.96-20.27-20.28-28.02-37-31.93q-4.09-.95-14.37-6.18-.62-.32-5.58-4.17-3.43-2.66-6.42-3.75a.753.741-71.103 0 0-.96.48q-.75 2.33-.53 4.94c.63 7.78.32 11.52-1.98 17.75q-4.83 13.06-11.98 24.8-3.3 5.42-6.67 9.32c-3.12 3.61-9.61 6.09-11.58 9.64a1.618 1.616 18.468 0 0 1.19 2.38q11 1.58 20.06 8.17 2.4 1.74 8.26 7.07 6.2 5.63 13.6 8.47 9.51 3.65 13.81 4.72 6.66 1.66 12.95-1.36c5.15-2.48 10.74-4.99 11.33-10.6a1.008 1.006-82.086 0 0-.83-1.1l-8.45-1.44a1.068.66-13.283 0 1-.15-.05q-4.56-1.74-9.29-5.86a1.768 1.504 89.417 0 1-.33-.38l-1.61-2.51a1.589 1.586-48.866 0 0-2.78.19c-2.36 5.07-7.28 11.45-13.24 10.13q-3.95-.89-7.17-4.92c-2.94-3.68-2.76-8.31-.82-12.58q4.2-9.25 10.28-16.05a1.785 1.775-50.323 0 1 2.4-.23q3.3 2.52 5.63 6.08c2.42 3.7 4.01 7.93 6.87 10.55 6.79 6.23 15.45 8.21 23.06 1.59q3.77-3.27 4.36-8.5a.705.704-83.97 0 0-.63-.78c-3.54-.36-8.38-.26-10.61-2.93q-2.32-2.78-5.81-7.87-3.34-4.86-5.38-5.82c-5.12-2.4-10.92-.96-16.85.4m280.63 7.76a.958.953-8.776 0 0 .95-1.29l-3.14-8.24a4.309 4.28 32.273 0 1-.28-1.22c-.58-6.63.01-10.25 7.62-10.16 4.1.05 5.06 6.78 5.06 9.75-.02 14.17-3.05 29.66-4.48 42.75q-.48 4.41-1.53 9.89c-1.28 6.72-1.84 9.59-1.99 13.73a.903.902-7.159 0 0 1.16.9l6.17-1.87a2.149 2.031 13.714 0 0 .79-.45q3.09-2.77 5.48-4.73c8.31-6.8 16.03-8.42 29.4-12.91 7.37-2.47 17.34-7.47 21.45-13.9q3.01-4.72 3.4-10.88.62-9.97-7.11-15.35-5.73-3.97-12.48-2.37c-3.65.87-10.44 2.21-11.72 5.74a1.879 1.87-59.835 0 0 .54 2.06c6.26 5.37 14.36 11.17 9.92 20.78-1.97 4.25-4.23 6-8.06 7.25-2.98.97-6.24-2.98-7.39-5.31-1.16-2.35-.8-5.15-.65-7.83q.39-6.96 3.3-30.5 2.09-16.9 4.73-27.77.52-2.12-1.15-3.97a1.346 1.322 70.792 0 0-.89-.44q-2.43-.18-4.04 1.4-8.15 7.94-17.72 11.1-3.4 1.13-9.62 2.74c-15.44 4.02-27.91 11.6-30.82 28.32q-.53 3.05-.76 4.93a.526.52 2.344 0 0 .54.58c1.7-.07 4.69-.4 6.9-1.01q7.89-2.17 16.42-1.72m-140.81 61.77q-.57-3.88 1.96-6.69c1.3-1.45 5.15-4.17 5.44-6.58a.974.967-74.633 0 0-.57-1.01q-6.32-2.72-11.93-3.86c-6.25-1.26-13.06 2.94-16.27 7.83q-3.36 5.13-1.15 10.69c2.93 7.33 10.57 10.92 17.46 12.93 12.22 3.58 24.31 4.62 36.32.59q12.99-4.35 17.9-17.18c1.38-3.58 2.24-6.17 1.89-9.65-1.12-11.08-8.41-15.86-17.51-20.47a9.474 8.595 64.483 0 0-1.27-.52c-3.37-1.08-5.2-1.33-8.98-2.99q-2.07-.92-8.57-3.09-5.65-1.9-11.87-5.83c-2.95-1.87-4.07-3.78-4.39-7.08a2.736 2.723-18.304 0 1 1.32-2.61c6.31-3.79 9.42-1.06 13.65 4.38 4.64 5.98 7.32 9.42 13.34 11.39 4.97 1.62 11.44-2.15 13.44-6.65q3.07-6.91 3.05-14.63a.75.75 13.221 0 0-1-.7l-8.53 2.99a.93.835 29.65 0 1-.23.05q-6.38.59-10.47-.93-5.46-2.03-8.11-2.8c-8.45-2.44-19.15-2.05-26.51 3.21q-7.41 5.29-9.87 14.39-2.11 7.79 1.74 13.47c4.98 7.32 14.45 11.06 22.8 13.16q3.38.84 6.44 1.94c6.61 2.37 14.92 5.13 16.68 12.58q.71 2.98-1.16 5.74c-2.38 3.52-4.84 6.36-9.3 6.87-6.39.72-12.2-2.59-15.41-7.99a2.722 2.52 28.05 0 1-.33-.95m-58.472-13.03a12.48 12.08-30 0 0-16.848-4.222 12.48 12.08-30 0 0-4.768 16.702 12.48 12.08-30 0 0 16.848 4.222 12.48 12.08-30 0 0 4.768-16.702m157.325-4.539a12.44 12.28-74.7 0 0-15.128 8.759 12.44 12.28-74.7 0 0 8.562 15.239 12.44 12.28-74.7 0 0 15.128-8.759 12.44 12.28-74.7 0 0-8.562-15.239"></path><path fill="#fbec00" fill-rule="evenodd" d="M525.4 80.35c4.17.87 7.2 3.04 10.27 5.39a4.011 3.977-73.772 0 1 1.56 2.87q.25 3.25-1.13 6.28-2.8 6.16-5.13 12.67a1.321 1.273 49.144 0 0-.04.74l1.16 4.75a1.559 1.559-82.586 0 1-2.26 1.74q-1.56-.86-4.47-2.54c-3.62-2.09-8.23-3.68-11.5-5.08q-3.58-1.52-6.8-2.6-17.57-5.9-32.41-9.69c-10.14-2.59-23.25-4.56-34.2-7.59-4.49-1.23-7.88-6.33-9.36-10.31q-1.08-2.92-.32-9.99.86-7.99 3.52-32.62c.56-5.19.24-8.1-.71-12.93a1.073 1.071 86.745 0 1 1.14-1.28q6.1.51 10.99 3.7a2.04 2.027 6.935 0 1 .82 1.04q.49 1.42.29 3.85-1.75 20.75-3.97 37.09c-.31 2.26-.27 5.46-.19 7.7a2.244 2.24 6.999 0 0 1.62 2.07q10.67 3.03 17.7 4.12c8 1.23 13.27 2.9 21.32 4.65q3.35.73 8.44 2.33 15.92 5.01 27.86 9.17 1.63.57 3.2.41a1.034 1.03-85.009 0 0 .89-.75q1.4-4.86 1.84-8.32c.27-2.09-.75-4.64-.71-6.4a.488.487 5.959 0 1 .58-.47M390.877 53.166a2.12 2.12 34.484 0 1-2.164-2.075l-.003-.18a7.84 6.66 88.8 0 1 6.494-7.978l.16-.004a7.84 6.66 88.8 0 1 6.823 7.699l.003.18a2.12 2.12 35.442 0 1-2.075 2.164zM251.04 51.05a2.764 2.757-16.999 0 1 1.66.88c.92 1 2.23 2.96 2.96 4.51q9.06 19.41 17.16 38.71c1.33 3.19 3.34 6.51 4.5 9.9a1.282 1.281 80.376 0 0 1.21.86h3.71a1.053 1.053 24.217 0 1 .7 1.84q-5.5 4.86-13.7 5.22a1.765 1.741 61.154 0 1-1.11-.33q-1.69-1.21-2.72-3.55-16.9-38.49-19.53-44.47-1.44-3.3-3.31-5.52a2.612 2.553-10.3 0 0-1.14-.77l-4.13-1.35a.61.606-52.009 0 1-.13-1.09q5.16-3.29 11.61-4.7 1.27-.28 2.26-.14m116.27 5.34 7.07.3a2.154 1.798-31.717 0 1 .35.05l6.72 1.85a1.034 1.009 40.935 0 0 .68-.04c6.51-2.83 12.22-1.93 18.93-2.08q4.17-.09 6.65.95c9.03 3.77 10.67 10.98 10.48 19.94a3.731 3.7-59.557 0 0 .49 1.92l4.09 7.08a.39.388-17.789 0 1-.3.58q-.76.08-1.19 0-5.23-.85-11.03-1.12-3.66-.16-29.7 0c-9.52.06-17.32 1.2-26.03 2.75q-1.97.36-4.55.22a2.187 2.183-4.844 0 1-2.03-1.71c-.9-4.13-1.9-8.06-4.39-10.98a2.44 2.427 79.844 0 0-1-.7q-5.64-2.07-9.35 1.9a.971.97-59.232 0 0 .4 1.58l3.84 1.28a3.82 3.796 78.588 0 1 1.69 1.13l4.21 4.83a1.379 1.361-71.193 0 1 .3.62l2.07 11.76a1.098 1.095-24.385 0 1-.4 1.06q-2.75 2.18-5.3 5.68-1.38 1.9-5.31 3.99c-14.18 7.54-27.96-5.57-26.42-20.05a2.845 2.817 70.892 0 1 .81-1.69l1.14-1.14a.698.697-20.54 0 1 1.19.54q-.45 6.31 4.42 11.49 2 2.14 4.4 2.09c7.51-.17 11.35-5.05 10.91-12.24-.14-2.29-1.97-3.13-3.81-4.08-1.56-.8-4.39-.7-5.79-2.29-1.63-1.84-2.17-4-2.63-6.5a2.445 2.436-77.483 0 0-.97-1.53l-5.29-3.81a.722.719-49.835 0 1-.09-1.09q1.41-1.42 3.62-2.03 6.41-1.77 14.15-2.88a6.429 5.78 29.605 0 0 1.05-.23q5.94-1.8 9.59-1.81c6.3 0 13.82 3.63 15.67 10.15q.43 1.51.76 2.12a1.745 1.727 74.198 0 0 1.75.99l11.6-1.24a.821.814 87.96 0 0 .72-.78q.18-4.13-.4-7.95c-.45-2.98-2.82-5.68-4.2-8.18a.473.472 76.637 0 1 .43-.7m15.98 13.65 1.2 3.42a1.648 1.643 73.705 0 0 1.93 1.06q7.18-1.7 15.6-.04a2.19 2.19-84.473 0 0 2.61-2.15v-.44a3.2 3.2-13.189 0 0-3.2-3.2h-17.18a1.016 1.016-9.594 0 0-.96 1.35m-131.37 53.5c-8.14 3.89-14.45 7.17-20.68 12.09q-5.05 3.98-9.32 6.83-8.36 5.58-16.59 11.36-7.26 5.09-12.77 11.8a.291.283-50.073 0 0 .03.4c2.33 1.95 4.59 4.02 5.61 7.3q2.7 8.63-4.31 13.78c-3.51 2.57-9.18 1.53-13.96.55a.505.505-61.215 0 1-.25-.86q2.28-2.2 6.08-2.67.94-.11 2.33-1.45c1.68-1.64-.29-4.51-1.63-5.88q-3.04-3.1-15.09-15.76-1.35-1.42-5.89-4.93a.694.612-17.643 0 0-.25-.11l-3.28-.74a.812.81-63.513 0 1-.44-1.32q3.79-4.45 9.24-6.7c4-1.66 9.91 4.57 12.42 7.57a1.387 1.379 45.643 0 0 2.1.03q4.87-5.55 11.87-10.45 10.75-7.52 18.65-13.22c1.58-1.14 2.37-2.39 3.05-4.17a1.03 1.029.668 0 0-1.31-1.34c-3.32 1.2-8.13 4.37-11.33 6.93q-6.05 4.83-12.07 8.51c-5.3 3.24-11.39-3.32-13.59-7.55a1.408 1.399-23.732 0 1 .77-1.96q1.9-.69 3.38-.47c2.16.31 3.93-.92 5.67-2.25q11.8-8.97 16.24-12c7.32-4.99 17.07-3.57 22.82 2.98a1.091 1.088 56.499 0 0 1.27.26q3.64-1.69 7.73-3.42 1.12-.47 2.38-.42a.662.66 76.561 0 0 .6-.98c-10.95-20.25-16.25-30.72-21.53-39.35q-2.08-3.4-6.61-5.59a1.067 1.065 39.363 0 1-.18-1.81q5.36-4.06 11.99-5.01a2.23 2.201 62.693 0 1 1.87.61q1.73 1.7 3.09 4.11 7.93 13.99 10.75 19.48 7.55 14.73 7.92 15.49 1.81 3.7 6.54 10.3c1.97 2.74 4.9 2.78 7.88 3.33a.865.863 39.168 0 1 .17 1.65q-5.6 2.29-11.37 5.05"></path><path fill="#f13b24" fill-rule="evenodd" d="M383.29 70.04a1.016 1.016-9.594 0 1 .96-1.35h17.18a3.2 3.2 36.584 0 1 3.2 3.2v.44a2.19 2.19-84.473 0 1-2.61 2.15q-8.42-1.66-15.6.04a1.648 1.643 73.705 0 1-1.93-1.06z"></path><path fill="#fbec00" fill-rule="evenodd" d="M590.65 69.72a.349.346 17.798 0 1 .55-.28q3.53 2.49 7.81 6.19 1.76 1.53 1.72 2.79c-.11 3.67-2.15 6.58-4.63 10.7q-.5.83-21.59 35.12-3.62 5.87-1.66 12.33a.436.435-87.347 0 1-.58.53q-2.86-1.14-4-1.86c-4.83-3.09-7.53-5.05-11.94-7.41q-2.72-1.46-4.66-3.23a1.863 1.86 34.478 0 0-2.92.54c-3.21 6.41-9.24 11.74-16.5 8.3q-4.13-1.96-6.61-5.32a3.248 3.22 25.368 0 1-.64-1.77c-.12-2.29-.59-6.12.68-8.02a.69.687-36.539 0 1 1.23.18c1.12 3.7 1.5 5.87 5.25 7.18a1.154 1.136-52.692 0 0 1.05-.15q1.72-1.23 2.38-2.51 6.88-13.47 11.37-21.22a11.092 11.047-27.332 0 0 1.44-4.49l.55-5.85a.521.52 10.679 0 1 .66-.45c4.22 1.21 6.05 2.81 9.76 6.14a1.784 1.743-77.503 0 1 .54.87c.94 3.54-1.37 7.65-3.3 11.57-1.98 4.06 4.04 6.55 5.72 8.2a.659.651-44.008 0 0 .9.01q1.75-1.62 2.5-2.84 11.52-18.78 18.29-29.44 4.02-6.34 6.51-13.54a1.999 1.98-35.265 0 0 .12-.68zm24.49 14.89a.321.318 27.815 0 1 .56-.17l1.98 2.27a1.071.989 79.306 0 0 .35.26q1.39.65 3.88 2.98 4.16 3.87 1.15 8.88-3.2 5.34-6.9 10.35-16.38 22.24-21.67 29.75-3.46 4.92-3.84 10.53a.45.45 14.258 0 1-.64.38q-6.1-2.78-9.65-7.68-1.04-1.42.06-3.5 2.79-5.29 5.82-9.45 24.71-33.97 25.09-34.6 3.34-5.62 3.81-10M350.93 115.1c-2.64-1.59-3.3-4.47-2.81-7.86q.54-3.81-.48-8.53c-.9-4.14 2.16-7.63 6.33-5.22 4.02 2.32 4.27 7.04 3.99 11.36a2.297 2.287 33.916 0 0 .23 1.16c.49.99 1.7 1.56 2.14 2.72q.57 1.47-.06 3.79a1.425 1.395-9.176 0 1-.62.84q-3.21 1.97-7.68 2.02a1.946 1.942 60 0 1-1.04-.28m169.81.37q-.23 5.09-3.08 9.78a1.079 1.017 69.882 0 0-.12.28l-1.9 8.53a.766.764-72.37 0 1-1.04.54l-7.87-3.23a2.346 2.337-69.909 0 1-1.34-2.9c.42-1.26 1.24-2.53 2.31-3.8q1.96-2.35 1.8-5.65-.12-2.27 2.91-6.36a1.476 1.458-77.698 0 1 .83-.54q4.27-.99 7.15 2.36a1.453 1.427 26.047 0 1 .35.99M129.46 306.32q4.61-9.02 7.41-18.85c6.71-15.13 15.35-30.6 23.5-43.81 1.48-2.39 3.94-5.13 5.3-6.98q15.02-20.61 24.18-30.82 7.51-8.36 19.62-18.9 12.53-10.91 27.42-21.46 13.95-9.89 29.75-18.02 21.41-11.01 42.93-18.39 1.43-.49 4.88-1.32a8.174 7.633 25.16 0 0 1.24-.4q5.24-2.16 9.84-3.11 2.57-.53 5.71-1.55 4.36-1.4 5.7-1.61 11.09-1.75 17.61-3.08 9.37-1.91 17.66-2.48 29.39-2.04 58.81.56 9.41.83 15.42 2.26c5.94 1.41 13.02 2.25 20.32 4.19q17.57 4.68 25.29 7.16 12.42 4 26.19 10.31 5.54 2.54 26.59 13.9c4.2 2.27 12.53 7.53 17.91 11.52q7.95 5.91 10.84 8 6.52 4.7 12.62 10.46 4.61 4.35 8.3 7.16 3.91 2.98 8.14 7.3 9.21 9.42 15.13 17.05c4.69 6.05 9.27 11.64 13.53 16.35l.08.1 10.33 16.15a.313.28-86.83 0 0 .08.1q1.81 2.02 1.9 2.22c1.62 3.56 3.7 6.46 5.77 10.2q19.72 35.73 29.21 75.52c1.69 7.07 2.25 12.42 3.7 20.79q2.3 13.25 2.84 24.17c.24 4.89.83 14.77.73 21.33q-.34 21.24-3.05 39.46c-.58 3.95-1.88 8.4-2.33 13.07q-.19 1.92-.9 5.22c-1.31 6.04-2.96 12.88-4.78 18.48q-1.66 5.08-3.84 12.48-2.62 8.89-11.45 29.67c-1.06 2.48-3.25 5.26-3.71 7.75q-.17.91-2.19 3.83-.52.76-1.93 3.98-1.6 3.67-8.27 14.46-1.8 2.9-9.08 13.91-6.19 9.35-9.57 13.54-8.94 11.1-12.25 14.42-10.63 10.65-16.11 16.37-3.02 3.15-5.91 5.59-15.56 13.1-30.1 22.86-13.19 8.86-30.77 17.77-27.74 14.05-55.92 21.69-5.76 1.56-11 2.65c-4.84 1-9.36 2.24-14.72 3.1q-23.5 3.76-47.97 4.16c-8.95.14-20.19-.98-27.32-1.55q-15.29-1.24-20.59-2.38-10.18-2.19-15.21-3.21-4.92-1-7.53-1.81c-5.64-1.75-11-2.49-15.91-4.36-3.6-1.38-7.15-2.15-11.03-3.77q-22.7-9.48-27.07-11.66-3.87-1.92-14.89-7.76c-24.92-13.21-47.64-30.87-67.44-51.17-8.77-8.99-17.49-19.87-24.07-28.4q-7.97-10.34-15.41-23.11-2.17-3.72-13.05-24.69-2.07-4-7.9-18.44-3.69-9.11-6.47-18.97-4.75-16.81-5.45-19.77-.42-1.79-3.33-18.38-1.55-8.86-2.04-15.75c-.51-7.22-1.8-13.92-1.77-21.18q.04-11.2.26-25.76c.07-4.61 1.37-9.55.86-13.98a4.845 4.719 46.973 0 1 .03-1.41c1.71-10.55 3.34-18.99 4.78-27.76q.71-4.34 2.14-9.64 4.14-15.31 7.78-25.57m548.78 94.35a278.6 278.6 0 0 0-278.6-278.6 278.6 278.6 0 0 0-278.6 278.6 278.6 278.6 0 0 0 278.6 278.6 278.6 278.6 0 0 0 278.6-278.6"></path><path fill-rule="evenodd" d="M678.24 400.67a278.6 278.6 0 0 1-278.6 278.6 278.6 278.6 0 0 1-278.6-278.6 278.6 278.6 0 0 1 278.6-278.6 278.6 278.6 0 0 1 278.6 278.6m-8.83-.01a269.8 269.8 0 0 0-269.8-269.8 269.8 269.8 0 0 0-269.8 269.8 269.8 269.8 0 0 0 269.8 269.8 269.8 269.8 0 0 0 269.8-269.8"></path><path fill="#ffde00" fill-rule="evenodd" d="M669.41 400.66a269.8 269.8 0 0 1-269.8 269.8 269.8 269.8 0 0 1-269.8-269.8 269.8 269.8 0 0 1 269.8-269.8 269.8 269.8 0 0 1 269.8 269.8m-218.02 64.59c-6.55 6.48 2.45 10.53 7.41 12.16q9.63 3.16 18.83 3.63c7.32.37 13.81-1.44 22.16-3.38q9.92-2.3 19.68-1.33c7.03.7 12.77 2.24 19.11 2.26q9.97.03 19.31-1.69c14.99-2.76 26.69-4.72 38.58-8.06a2.947 2.927-70.391 0 0 .94-.45q7.85-5.51 13.62-13.39 5.56-7.59 5.6-7.63c5.53-6.55 12.37-13.49 15.3-21.59q2.85-7.87 5.39-18.41c3.23-13.38 3.64-28.99-3.07-41.26q-.83-1.52-5.39-7.22c-3.88-4.85-3.88-9.24-3.83-16q.01-2.05-.66-3.42a.933.933 51.982 0 0-1.55-.19q-1.61 1.9-2.41 4.16-3.55 10.03 2.21 18.15a1.18 1.144 73.577 0 0 .85.48q3.88.28 4.74 4.01.97 4.24 2.04 7.12l-4.13-1.94a1.584 1.576-61.967 0 1-.68-2.25l1.33-2.22a1.828 1.791 59.242 0 0 .26-1.07q-.25-3.26-3.25-3.2-5.46.11-10.77.76c-4.97.62-9.34.49-8.21-6.08a.996.992-7.754 0 1 .55-.72q1.18-.58 7.86-5.55c2.35-1.75 2.65-3.43 2.85-6.16.15-2.08-3.15-5.51-4.3-7.36a.453.451-9.895 0 1 .48-.68l4.78 1.01a2.248 2.248.431 0 0 2.67-2.63c-.41-1.65-1.91-3.06-3.68-4.12q-2.63-1.59-4.17-4a3.246 3.228-21.29 0 0-3.28-1.43l-4.68.83a2.132 2.126-16.788 0 1-2.32-1.24l-1.01-2.28a.695.689-1.983 0 0-.4-.37c-5.71-2.02-3.2-7.52-1.35-11.56a.93.93 60.246 0 0 0-.78l-1.19-2.7a3.323 3.318 54.378 0 1 .59-3.59l2.9-3.14a3.773 3.768-16.884 0 0 .91-1.7c.51-1.87.65-4.15 1.62-5.98q.3-.56 2.27-3.54a1.46 1.46 20.104 0 0-1.05-2.26c-3.06-.35-3.55-4.09-4.58-7.4a.831.823-6.75 0 0-.73-.57q-3.33-.25-6.3-1.57a1.764 1.715 83.852 0 1-.76-.63q-2.3-3.38-2.67-6.29a2.146 1.818-49.731 0 1 0-.49l.6-5.33a.647.646-89.629 0 0-.7-.71q-1.37.13-2.66 1.05-4.1 2.94-8.7 3.97a1 .995-30.211 0 1-.88-.23q-3.4-2.94-4.97-7.94a.785.769-44.427 0 1 .01-.5l1.75-4.84a1.593 1.589 9.914 0 0-1.5-2.13h-2.12a.817.815-16.115 0 1-.69-.38l-2.75-4.29a1.332 1.291 79.58 0 0-.8-.57c-3.1-.72-5.33.33-8.05 1.59a1.069 1.066-35.073 0 1-1.21-.21l-2.93-2.93a1.829 1.796-13.515 0 0-.7-.42q-4.8-1.44-9.87-4.56-2.48-1.52-5.14-1.57a1.008 1-16.038 0 1-.82-.45q-1.44-2.22-2.66-2.62-2.7-.91-7.5-1.95a1.985 1.978 10.837 0 1-1.54-2.26q.47-2.78-.2-5.45c-.56-2.2-.2-3.28.92-5.12q2.95-4.84 7.38-10.61 1.39-1.81 1.91-3.84a1.177 1.154-55.222 0 0-.16-.94c-4.37-6.65-12.84-15.35-21.51-14.3a.926.92 86.888 0 0-.82.92v4.19a.368.36-80.461 0 1-.48.35q-1.42-.49-2.1-1.15c-4.84-4.7-8.73-9.18-15.4-8.6a1.107 1.107 62.045 0 0-.6 1.96q2.25 1.83 2.53 5.12a.845.843.843 0 1-.94.91q-4.06-.46-6.89.84a1.962 1.939 88.908 0 0-.97 1.02l-1.67 3.95a1.172 1.17-61.218 0 1-1.75.51q-.24-.16-.54-.58a2.5 2.488 24.885 0 1-.45-1.22q-.54-6.09-7.09-9-.6-.27-.8.35-.11.33.14.67 2.98 4.15 4.04 7.27a.685.682-5.017 0 1-.75.89q-3.14-.45-5.34-3.17a4.772 4.738-5.913 0 0-1.55-1.25q-5.67-2.91-6.79-4.36-6.57-8.48-13.6-14.27-2.19-1.8-4.23-.23a1.711 1.704 73.187 0 0-.64 1.2l-.51 6.35a.445.445 52.959 0 1-.68.34c-1.48-.91-2.26-4.41-2.68-6.39a.835.827-6.591 0 0-.84-.66c-1.43.04-2.53.98-3.05 2.6q-1.21 3.78-4.84 7.89a.545.543 63.487 0 1-.95-.32q-.08-1.03.67-2.33a.474.47 15.199 0 0-.41-.71h-.96a1.519 1.495 10.935 0 0-1.4.93l-.38.93a.91.9 16.556 0 1-1.01.54c-5.25-.99-9.37-2.74-14.37.03a2.916 2.902-41.895 0 1-3.09-.16q-4.53-3.21-9.81-4.56c-2.91-.74-4.81-2.04-7.05-3.01a3.18 3.18 34.282 0 0-3.54.67l-.76.75a.799.783 22.086 0 1-.56.23h-8.93a.97.97-45.03 0 1-.97-.97q0-.55.21-1.45a.37.37-15.518 0 0-.62-.35l-2.82 2.83a1.243 1.243-22.442 0 1-2.12-.88v-6.17a1.723 1.722 80.558 0 0-2.28-1.63l-.43.15a3.662 3.658-9.503 0 0-2.47 3.46v3.35a.439.436 37.523 0 1-.86.11c-.83-3.06-.19-4.49-3.16-7.36a1.613 1.584-22.318 0 0-1.08-.44q-3.05-.05-4.79 1.19a2.605 2.584 69.367 0 0-1.08 2.41c.46 3.96 1.31 6.84-.31 8.82a.528.526-43.499 0 1-.83-.02q-1-1.34-.08-3.02a1.068 1.066 47.546 0 0 .04-.92l-1.61-3.63a.751.749 54.067 0 0-1.24-.2q-3.8 4.16-6.65 8.81-2.92 4.75-4.11 5.54c-3.1 2.07-6.05 3.36-9.34 2.12a.453.451 89.648 0 0-.58.59c1.5 3.81 4.96 9.22-1.39 11.14q-2.66.8-5.59-.94-4.45-2.64-6.51-3.88a.543.541 3.801 0 0-.78.68l1.9 4.28a1.034 1.034-6.204 0 1-1.15 1.43c-2.11-.41-4.27-3.23-5.55-4.98a3.546 3.537-18.039 0 0-2.86-1.45h-1.99a1.021 1.019-20.565 0 0-.77 1.69c2.05 2.33 1.02 5.38-.36 7.63q-2.37 3.88-3.07 7.92a1.288 1.279-72.63 0 1-1.8.95c-4-1.84-3.37-7.77-9.28-6.55a1.525 1.521-89.691 0 0-1.18 1.17l-1.08 4.85a1.371 1.364-5.759 0 1-.78.95l-5.62 2.49a1.937 1.934 78.062 0 0-1.15 1.77v4.94a1.803 1.797-4.054 0 1-1.55 1.78q-3.77.54-8.27 1.35-2.17.39-2.14 2.75.06 4.43.06 4.78a.55.55-57.873 0 1-1.05.24q-1.08-2.4-1.1-4.54a.732.729-18.881 0 0-1.17-.57q-5.77 4.37-11.73 6.03c-1.6.45-3.47 1.48-4.23 3.01a1.709 1.708-58.767 0 1-2.53.62l-2.98-2.14a2.687 2.687-63.144 0 0-3.75.61l-2.32 3.21a1.983 1.979-70.437 0 1-1.74.83q-2.97-.16-5.03 2.36a2.485 2.105 32.569 0 0 1.05 3.4q2.38 1.26 5.32 1.45a.181.18 1.686 0 1 .17.18v.01a.161.16-1.911 0 1-.15.16q-3.29.31-6.43 2.38a.98.964-16.946 0 0-.44.81v3.71a2.11 2.11 45 0 1-2.11 2.11h-3.45a1.769 1.75 56.62 0 1-.71-.15c-3.87-1.7-6.13-3.02-9.32-2.16a.809.807-6.895 0 0-.59.75c-.11 3.31.55 6.43-.71 10.01a1.347 1.333 4.55 0 1-1.02.86l-8.16 1.44a.839.828 83.087 0 0-.68.88q.28 3.73-1.97 4.9c-2.68 1.39-2.82 3.15-1.55 5.5a1.518 1.481-55.588 0 1 .16.92q-.65 4.76 2.4 9.13c1.83 2.61 6.84 4.22 4.23 8.07q-.72 1.05-1.78 2.33a.729.715 43.75 0 0 .03.95q2.46 2.64 2.8 5.48c.37 3.03-2.64 4.66-5.05 6.11a1.067 1.061 74.446 0 0-.51.91v1.44a.812.81 12.724 0 1-1.16.73q-3.66-1.74-7.01-.09-4.34 2.14-7.02 3.9c-2.36 1.54-3.61 5.45-.1 6.61q1.31.44 3.79.87a1.038 1.033 27.783 0 1 .55 1.76c-2.06 2-4.35 2.94-4.85 6.87a1.932 1.93 11.721 0 0 1.38 2.1q4.94 1.4 7 6.54a1.667 1.662-15.791 0 0 1.83 1.02l2.43-.43a.463.456-.083 0 1 .54.53c-.51 2.8-2.5 7.85-5.93 7.66q-1.37-.07-6.47-1.99c-2.46-.93-4.78-3.56-7.21-4.77a1.356 1.353-65.393 0 0-1.85.69q-2.23 5.2-3.04 11.14-.38 2.82-2.87 3.26a1.107 1.087-29.562 0 1-.9-.24c-5.71-4.69-6.54 1.68-7.61 5.52q-.32 1.15-3.02 4.02a3.706 3.672-7.862 0 0-.52.68c-1.5 2.45-1.59 5.87-1.88 8.14a3.414 3.412 81.678 0 1-2.01 2.7l-4.74 2.11a2.183 2.177 78.708 0 0-1.31 1.97q-.08 4.21 3.68 5.5 8.34 2.86 8.51 2.92a.825.82 33.925 0 1 .28 1.41q-.02.02-5.92 4.53-2.4 1.84-2.03 5.08c.22 1.97 2.87 3.81 4.52 4.65q12.47 6.37 13.93 7.13a3.495 3.485-81.95 0 1 1.8 2.4l1.49 7.27a3.821 3.82 4.477 0 0 2.42 2.83c2.86 1.06 12.54 2.2 14.08-2.24q1.52-4.41 1.99-6.94a.811.795-89.9 0 1 .64-.65c6.76-1.21 6.79 6.71 6.36 11.28-.2 2.16-1.54 3.5-3.1 5.07a2.029 2.025 42.185 0 0 .15 3q1.47 1.18 3.89 1.73 4.67 1.04 8.25 2.72c1.81.86 2.68.33 4.22-.67a.683.681 73.416 0 1 1.05.57c.01 2.56.13 6.71 3.44 7.32 2.12.4 4.2-1.75 5.82-2.19 4.93-1.32 5.23 2.32 6.24 5.72a4.058 4.043-89.895 0 0 2.72 2.74q2.22.67 6.27.35a2.363 2.357-77.237 0 0 1.85-1.17c1.3-2.24 4.4-5.68 6.84-2.57q.78.99 1.87 2.96a1.523 1.518 63.339 0 0 1.95.65l5.81-2.57a1.305 1.305 75.307 0 1 1.83 1.07c.19 1.9-.25 6 1.49 8.23a1.224 1.218-17.552 0 0 .93.48c2.45.11 3.31-3.78 3.84-5.85a.63.625-73.309 0 1 .81-.44l1.61.55a.609.512-33.97 0 0 .28.03q5.93-.82 10.95-.29c4.4.47 9.39 1.79 14.61 2.14q15.79 1.04 29.8 6.4c4.1 1.57 7.21 1.82 11.79 2.13 7.11.47 10.8-4.76 14.42-9.87a4.539 4.499 10.911 0 1 2.67-1.79q4.19-.96 5.29-1.3c4.26-1.3 5.84-4.66 8.73-9.12a2.089 2.003 1.21 0 1 .74-.68q2.07-1.13 4.65-.97 8.25.49 11.93.89a1.051 1.045 1.639 0 1 .93.98q.08 1.58 0 2.28c-.63 5.4-1.55 11.4-1.62 17.32q-.05 3.91-.18 28.15-.01 3.72-1.14 6.17a5.257 5.244-89.488 0 1-2.63 2.59l-6.93 3.07a3.51 3.492-8.042 0 0-2.05 2.71q-.87 5.96-6.79 9.57a1.181 1.176-46.513 0 0 .05 2.04q1.5.81 3.78 1.24c8.38 1.61 15.98.88 25.65.31a2.849 2.846-13.633 0 1 2.76 1.68l.67 1.52a3.61 3.593-10.845 0 0 3.17 2.14q5.06.17 13.37.81c4.79.36 10.88-.73 16.43-.7q4.45.03 5.77-.16a1.157 1.154 80.191 0 0 .97-1.38q-.39-1.87-1.64-3.37c-3.03-3.66-4.75-6.4-4.73-10.87.03-4.47-.51-9.65-2.25-13.17-2.65-5.37-4.97-9.33-5.16-14.65q-.36-9.58 1.7-18.83 1.52-6.79-1.52-12.7-.35-.7.17-3.39a.426.417-84.061 0 1 .41-.34h7.08a1.316 1.309 75 0 0 1.13-1.97q-.78-1.36-.89-3.86a1.557 1.528-30.436 0 1 .24-.89q1.57-2.38 2.94-3.32a1.292 1.29-22.663 0 1 2 .82q.74 3.93-.99 8.14a1.475 1.455 42.57 0 0 .06 1.22q1.61 3.09 3.15 3.97 4.22 2.43 5.78 5.85M575.48 586.4q-2.18 4.23-4.17 5.24-4.6 2.34-7.19 6.62a.75.745 17.624 0 0 .59 1.13q.19.02.98-.46 4.09-2.47 7.52-6.55 3.48-4.14 8.08-7.77a8.185 8.01-88.13 0 0 1.17-1.12q5.65-6.59 12.94-13.34 2-1.85 9.05-10.21a3.754 3.614-13.658 0 0 .54-.85q.49-1.07.86-1.49 4.31-4.85 5.85-7.7l.04-.06 14.2-19.72a.424.41 36.182 0 0-.1-.58l-6.5-4.68a2.356 2.351 35.608 0 0-3.29.54q-2.36 3.29-6.97 10.68c-2.44 3.92-3.93 5.57-6.85 9.38q-2.83 3.68-1.35 6.94a1.767 1.755 42.513 0 1 .06 1.28c-.56 1.58.27 2.83 1.87 2.7q.9-.07.99.07a1.971 1.947-27.853 0 1-.93 2.95q-3.61 1.37-5.92 5.06-1.25 2-5.18 3.4a.436.431-2.254 0 1-.57-.52q1.08-3.79 4.72-5.27a1.495 1.484 74.111 0 0 .9-1.63l-.72-4.04a1.096 1.095 57.833 0 0-1.97-.45q-5.67 7.99-12.17 13.61a11.94 11.695-3.058 0 0-1.89 2.06q-.92 1.27-3.37 4.5c-1.25 1.65-1.15 3.91-3.18 4.99q-2.32 1.23-4.76 2.67a6.023 5.777-65.217 0 1-1.76.69l-2.98.62a.144.142-10.901 0 0-.11.16l1.15 6.49a1.106 1.106-9.861 0 0 1.28.9l.48-.09a1.659 1.656 79.695 0 0 1.34-1.94q-.6-3.1 2.19-2.99 3.27.13 4.92-1.38a.134.134 82.239 0 1 .21.16m-108.05-3.13q2.3-.15 4.52-1.58c5.24-3.38 8.15-5.59 14.22-4.87a.824.816-1.359 0 1 .72.68c.5 3.09-.33 5.63-1.28 9.41a1.079 1.074 1.699 0 0 1.25 1.32q2.8-.55 5.04-2.1c6.37-4.38 9.84-5.56 17.59-8.55a1.356 1.355-25.092 0 0 .7-1.93c-.77-1.37-3.44-2.48-6.02-3.91-1.84-1.03-1.94-2.51-.76-4.3q3.6-5.49.1-12.45a.971.97-37.449 0 0-1.59-.21l-3.82 4.25a1.223 1.168-72.881 0 1-.68.38q-1.64.27-2.74-1.8-5.29-9.95-6.96-20.13a1.213 1.209-15.349 0 0-1.64-.93c-4.45 1.74-9.38 5.41-13.41 6.75q-3.75 1.25-7.11 2.9a1.646 1.642-26.717 0 0-.74 2.23q.78 1.53 2.95 3.54a1.726 1.699-73.9 0 1 .52.96q.27 1.63-.1 3.56-1.72 9.06-3.33 20.04-.43 2.93.84 5.71a1.778 1.755-13.852 0 0 1.73 1.03m-149.34 7.21c-.02-2.47-.5-4.87-.5-7.49q0-2.78 2.9-8.51 6.16-12.21 14.79-24.48a1.766 1.766-59.968 0 0-.7-2.62q-.54-.25-1.89-.3c-4.07-.13-10.99.09-13.92-2.36a2.138 2.128-65.532 0 1-.74-1.99l.49-2.85a2.176 2.173 13.522 0 0-1.49-2.43q-9.04-2.85-11.17 5.91c-.84 3.44 4.1 6.37 6.73 7.73a1.938 1.931 25.357 0 1 .89 2.48q-1.45 3.37-5.16 10.41c-3.39 6.43-6.41 9.73-11.89 14.2a1.948 1.945-39.657 0 0-.26 2.76q.25.3 1.53.71c3.39 1.08 7.09 1.95 10.89 4.64q6.33 4.47 7.7 5.25a1.206 1.203-75.432 0 0 1.8-1.06m107.75-20.27a1.027 1.027 12.486 0 1 1.02 1.6q-3.13 4.51-5.38 6.92-.87.93-2.63 5.96a2.285 2.279-6.769 0 1-.94 1.19c-2.62 1.68-6.44 1.66-8.3 5.42-2.04 4.12-.13 8.69 2.97 11.93 3.96 4.13 8.77 4.01 14.91 3.74 8.02-.36 15.74-2.5 21.52-8.23 5.22-5.17 5.66-12.91 1.14-18.28-3.55-4.22-8.33-4.08-14.71-4.88q-1.5-.19-2.23-1.16a.841.84-40.896 0 1 .08-1.11q6.08-5.89 11.14-13.13.51-.74.09-3a.66.659 83.318 0 0-.67-.53c-4.28.14-8.25 1.8-11.97 2.76q-2.09.54-14.84.85-5.88.14-7.8 1.22c-10.49 5.84-3.58 24.74 6.1 18.11a1.519 1.511-6.793 0 0 .57-.72q1.22-3.15-.06-5.86a.811.807-17.806 0 1 .59-1.14zm-70.27 15.33a.844.842 60.252 0 1-.34 1.25c-3.82 1.72-7.77 5.25-6.12 9.83 3 8.35 15.29 10.24 22.73 9.25 15.69-2.09 22.82-14.08 21.44-28.9q-.5-5.41-3.57-9.63c-6.78-9.33-19-11.69-29.74-8.08q-4.48 1.51-6.72 4.06c-4.85 5.53-5.67 13.56-1.23 19.57.84 1.14 2.96 1.82 3.55 2.65m205.43-.12c-2.2-.43-4.6 2.27-6.44 3.1a1.432 1.418-.659 0 0-.75.76q-.62 1.51.5 2.76a.952.937 61.525 0 0 .95.29q1.29-.33 1.72-.39 2.65-.4 2.87 1.52c.25 2.11.94 2.43 2.1 3.46a1.007.998 43.503 0 0 1.38-.03l.19-.19a1.683 1.683 20.326 0 0 0-2.38l-2.71-2.72a1.434 1.419-70.527 0 1-.41-.87q-.23-2.13 1-4.49a.569.568-71.075 0 0-.4-.82m-4.243 10.422q-.502.533 1.509 3.262a.906.895-13.188 0 0 .569.348q.786.128 1.306-.423.519-.552.343-1.329a.906.895-80.24 0 0-.38-.546q-2.845-1.845-3.347-1.312m-9.527 14.798q-.25.99.11 1.1.9.28 1.53-.28 2.48-2.23 5.91-4.68c2.37-1.7.98-4.28-.7-5.72a2.1 2.024 70.505 0 0-.88-.44l-3.25-.71a2.123 2.089-14.03 0 1-1.12-.66q-.41-.42-.87-1.43a1.888 1.636-15.68 0 0-1.93-.91c-4.7.76-1.97 6.67-.84 9.98.38 1.09 1.48 1.83 1.95 2.83a1.382 1.35-51.249 0 1 .09.92m-6.8-9.38a.696.69-18.995 0 0-1.18-.57l-6.51 6.51a.394.386-51.567 0 1-.48.06q-.49-.3-.79-.16c-3.5 1.51-9.54 4.09-7.32 8.03q1.99 3.53 4.67 8.32a1.411 1.41 37.529 0 0 2.6-.34c.66-2.61-1.89-7.21-2.36-8.69a7.754 7.676-45.913 0 1-.05-4.59l.18-.6a1.078 1.078-50.763 0 1 1.98-.2l2.46 4.6a5.974 5.93-79.483 0 0 .77 1.13q2.11 2.44 2.12 3.9a.866.865 71.36 0 0 1.39.69l5.02-3.83a2.57 2.563 60.695 0 0 .83-2.97q-1.31-3.32-2.3-4.66c-1.68-2.27-1.28-4.62-1.03-6.63"></path><path fill="#fbec00" fill-rule="evenodd" d="M226.29 145.9q1.73-3.31 4.78-4.9a1.278 1.266-49.353 0 1 .99-.08q3.97 1.32 6.68 4.26a2.62 2.62 48.349 0 1-.22 3.77c-2.66 2.27-4.78 3.87-8.55 3.56a2.238 2.229-23.571 0 1-1.23-.48q-2.53-1.99-2.71-4.92a2.301 2.281-33.12 0 1 .26-1.21m416.69 31.23c-.71 2.82.42 6.41-.74 9.41q-2.49 6.42-8.01 9.92a3.55 3.367-64.956 0 1-1.22.48c-8.93 1.58-16.22 1.49-21.8-5.65q-3.37-4.31-3.15-9.74c.37-9.16 6.25-19.07 16.76-16.68a.725.725-40.61 0 1-.11 1.43c-4.29.3-8.36 3.09-8.43 7.72q-.05 2.98 1.37 5.04c2.82 4.08 6.49 7 11.64 4.72q3.49-1.54 4.7-5.4c.76-2.44-.23-4.34-.28-6.61-.07-3.07 2.5-6.42 4.22-8.5 2.04-2.46 2.24-4.6 2.24-7.71a.885.882 11.508 0 1 1.23-.81q.3.12.7.61 5.22 6.26 13.72 15.72c2.86 3.18 4.72 5.99 6.2 9.4 2.31 5.32-.91 13.07-4.26 17.17a1.318 1.31 47.712 0 0-.07 1.58c7.55 11.11 16.14 22.97 23.22 35.34q8.64 15.07 17.44 33.32c4.6 9.55 7.15 18.69 11.87 33.28a2.281 2.28 81.054 0 0 2.17 1.58h.77a1.502 1.501-5.927 0 0 1.47-1.81q-1.77-8.53-5.21-16.78c-1.44-3.47-2.57-7.28-3.16-10.51a4.29 4.29 64.674 0 1 1.44-4.03q4.79-4.07 11.28-5.53a1.246 1.163-12.105 0 1 1.47.88q.03.13-.16.8-.12.45-1.69 2.98a4.356 4.313-38.74 0 0-.42 3.66q3.06 9.06 6.4 18.23 2.07 5.71 2.25 7.33v.04q.67 3.21-2.19 9.92-1.24 2.93-3.87 4.07-5.84 2.54-10 4.54a7.876 7.85-88.586 0 0-3.55 3.39l-1.5 2.8a.775.774-35.179 0 1-1.45-.25q-.32-2.22-1.44-4.87c-2.09-4.98-3.58-10.72-5.22-15.24q-3.7-10.24-7-20.74c-.72-2.27-2.34-6.5-3.85-9.25-5.6-10.22-10.72-21.53-16.51-31.25q-4.63-7.76-10.11-16.02-9.82-14.81-11.45-17.06-4.2-5.8-8.74-9.59a.77.767-47.097 0 1-.04-1.15c3.75-3.52 8.72-6.11 9.71-11.69a2.293 2.265 44.651 0 0-.01-.82q-1.15-5.35-6.03-7.94a.422.421 20.693 0 0-.6.27M58.96 404.09a.408.404 81.949 0 1-.58-.44q.54-2.87.65-5.4.35-8.17.18-13.36c-.3-8.48 1.13-13.37 6.36-19.21a4.277 4.238-73.688 0 1 2.44-1.35l7.45-1.32a1.488 1.478.546 0 0 1.19-1.16c1.28-6.52 3-12.33 4.4-20.09q4.2-23.22 11.25-45.44 2.33-7.35 3.88-15.22a1.511 1.506 20.572 0 0-.73-1.6q-7.1-4.05-14.49-2.84a.578.576-82.88 0 1-.62-.8q2.98-6.78 7.05-12.53a1.089 1.077 15.908 0 1 .82-.45c3.01-.17 8.74 3.41 10.09 4.08a4.139 3.922-24.743 0 0 1.24.42l3.52.6a1.337 1.337 66.293 0 0 .95-2.44c-3.65-2.36-10.25-5.86-14.69-5.07a.922.914 2.587 0 1-1.05-1.14c1.07-3.9 4.2-7.52 6.51-11a1.534 1.528-65.757 0 1 1.68-.64q1.91.51 5.44 2.36 2.99 1.57 7.39 2.56a1.417 1.416 17.295 0 0 1.62-.85l.77-1.87a.744.743 16.91 0 0-.54-1.01q-3.29-.64-4-1.06-4.84-2.86-10.3-2.9a1.064 1.062 7.769 0 1-1.02-1.34q1.66-6.21 5.92-9.92a2.45 2.438-57.522 0 1 2.27-.51q5.22 1.46 10.48 4.3 2.22 1.2 3.76-.94.08-.12 5.09-7.46a.605.602 30.458 0 0-.23-.88q-3.11-1.56-4.33-2.25c-2.97-1.68-6.28-2.05-9.83-1.83a1.26 1.257 16.128 0 1-1.1-1.99l6.46-8.98a2.946 2.943-67.325 0 1 2.87-1.18c4.78.82 9.18 3.91 12.48 6.82a.402.397-59.527 0 0 .64-.17c1.42-4.09 3.25-7.24 6.14-10.78q10.71-13.1 18.32-22.04 1.81-2.13 2.2-5.37a.944.942 74.609 0 0-1.51-.86q-2.2 1.7-8.89 9.5c-3.35 3.9-6.18 8.23-9.4 11.71-4.91 5.32-12.51-.03-16.18-4.12a1.081 1.079 59.552 0 1 .45-1.74l4.88-1.71a3.026 2.969 8.452 0 0 1.39-1.01q8.37-10.94 16.22-19.52 3.57-3.91 9.8-4.03 4.38-.09 6.98 1.39 3.68 2.1 8.41 5.3 3.76 2.54 8.05 2.74a.509.504-73.641 0 1 .41.76q-.93 1.62-2.44 3.33-12.81 14.44-26.33 31.16c-4.57 5.65-7.57 11.43-11.29 17.31-3.13 4.95-8.71 11.74-11.61 18.02q-2.12 4.58-10.98 22.74-4.61 9.46-8.15 19.89-8.2 24.18-12.69 46.25-2.83 13.91-5.44 28.08a.392.137-64.33 0 0-.01.09l-.4 8.92a1.092 1.092 6.391 0 1-1.29 1.03q-6.35-1.17-11.08-.39c-2.35.39-2.77 2.52-3.38 4.62q-1.14 3.89.44 7.35a.968.965-39.783 0 0 1.67.15q1.5-2.16 3.3-5.15c2.3-3.84 11.54-3.37 15.08-2.55a4.534 4.513-19.726 0 1 1.79.84c5.25 4.05 9.48 6.59 10.85 13.24 2.25 10.9-8.78 21.9-19.66 20.35q-5.44-.78-9.32-3.36a1.12 1.118 50.306 0 1 .18-1.96q.18-.08 1.22.23 3.27.98 5.65 1.05c8.3.23 10.44-7.57 7.31-14.06q-2.19-4.54-7.77-4.09c-4.11.33-5.18 2.62-8.13 6.12a3.526 3.505-75.085 0 1-2.04 1.19q-6.96 1.31-14.09 4.88"></path><path fill-rule="evenodd" d="M630.25 373.2q1.14 2.24-.26 3.8-2.17 2.42-3.56 5.42a1.705 1.701-55.098 0 0 .34 1.92l3.56 3.55a1.454 1.449-37.594 0 1-.3 2.28l-5.73 3.3a.967.964 34.028 0 0 .35 1.79q1.45.22 5.29 1.79 1.36.56 1.44 2.39a1.559 1.557-7.758 0 1-1.21 1.59c-3.88.88-7.6-.26-11.92-1.67q-1.61-.53-3.07.86a1.153 1.152-22.453 0 0-.37.89c.08 3.2 3.77 8.25 5.17 10.69 1.92 3.38 3.45 4.8 6.13 7.09a1.698 1.577 40.473 0 1 .27 2.32q-.37.42-1.37.23c-2.83-.55-5.8-1.4-7.33-.4a2.238 1.62 50.642 0 0 .18 2.97q2.02 2.19 4.45 4.72a1.138 1.138-38.462 0 1-.2 1.74c-2.17 1.41-4.31 1.13-7.63 1.45a1.622 1.615 2.565 0 0-1.45 1.32c-.46 2.48-.68 5.11-2.52 6.66a.788.777 44.023 0 1-1 .01q-2.75-2.21-4.91-4.49a3.298 2.635 52.391 0 0-3.55-.87c-3.47 1.9-3.3 4.07-1.81 7.55q1.35 3.14 3.57 6.4a1.79 1.79 57.994 0 1-.59 2.56l-4.1 2.37a4.4 4.385-6.092 0 0-1.96 2.42c-.85 2.61-1.85 5.7-3.56 6.99a3.207 3.204-44.828 0 1-3.87-.01l-4.49-3.45a2.55 2.55-46.764 0 0-3.22.1q-1.01.87-1.59 2.01c-1.76 3.44-7.96 2.79-12.45 3.04a5.372 5.311-58.566 0 0-1.86.46c-3.47 1.58-9.08 4-11.65 3.04-4.05-1.51-9.71-1.84-12.14 2.36a1.555 1.528 6.013 0 1-.88.7q-3.61 1.09-5.63-.05-5.45-3.07-11.11-4.25c-3.88-.81-7.89-4.62-10.06-6.14q-2.62-1.81-6.18-1.17a3.488 3.474 3.504 0 0-2.69 2.37l-1.44 4.52a1.695 1.669 78.251 0 1-.49.76q-1.27 1.13-3.17 1.3-6.94.64-11.63 1.46c-7.35 1.3-13.9 1.42-19.49-.55q-5.71-2.01-14.31-1.95-1.94.01-2.86-2.14-1.56-3.42-5.78-5.85-1.54-.88-3.15-3.97a1.475 1.455 42.57 0 1-.06-1.22q1.73-4.21.99-8.14a1.292 1.29-22.663 0 0-2-.82q-1.37.94-2.94 3.32a1.557 1.528-30.436 0 0-.24.89q.11 2.5.89 3.86a1.316 1.309 75 0 1-1.13 1.97h-7.08a.426.417-84.061 0 0-.41.34q-.52 2.69-.17 3.39 3.04 5.91 1.52 12.7-2.06 9.25-1.7 18.83c.19 5.32 2.51 9.28 5.16 14.65 1.74 3.52 2.28 8.7 2.25 13.17-.02 4.47 1.7 7.21 4.73 10.87q1.25 1.5 1.64 3.37a1.157 1.154 80.191 0 1-.97 1.38q-1.32.19-5.77.16c-5.55-.03-11.64 1.06-16.43.7q-8.31-.64-13.37-.81a3.61 3.593-10.845 0 1-3.17-2.14l-.67-1.52a2.849 2.846-13.633 0 0-2.76-1.68c-9.67.57-17.27 1.3-25.65-.31q-2.28-.43-3.78-1.24a1.181 1.176-46.513 0 1-.05-2.04q5.92-3.61 6.79-9.57a3.51 3.492-8.042 0 1 2.05-2.71l6.93-3.07a5.257 5.244-89.488 0 0 2.63-2.59q1.13-2.45 1.14-6.17.13-24.24.18-28.15c.07-5.92.99-11.92 1.62-17.32q.08-.7 0-2.28a1.051 1.045 1.639 0 0-.93-.98q-3.68-.4-11.93-.89-2.58-.16-4.65.97a2.089 2.003 1.21 0 0-.74.68c-2.89 4.46-4.47 7.82-8.73 9.12q-1.1.34-5.29 1.3a4.539 4.499 10.911 0 0-2.67 1.79c-3.62 5.11-7.31 10.34-14.42 9.87-4.58-.31-7.69-.56-11.79-2.13q-14.01-5.36-29.8-6.4c-5.22-.35-10.21-1.67-14.61-2.14q-5.02-.53-10.95.29a.609.512-33.97 0 1-.28-.03l-1.61-.55a.63.625-73.309 0 0-.81.44c-.53 2.07-1.39 5.96-3.84 5.85a1.224 1.218-17.552 0 1-.93-.48c-1.74-2.23-1.3-6.33-1.49-8.23a1.305 1.305 75.307 0 0-1.83-1.07l-5.81 2.57a1.523 1.518 63.339 0 1-1.95-.65q-1.09-1.97-1.87-2.96c-2.44-3.11-5.54.33-6.84 2.57a2.363 2.357-77.237 0 1-1.85 1.17q-4.05.32-6.27-.35a4.058 4.043-89.895 0 1-2.72-2.74c-1.01-3.4-1.31-7.04-6.24-5.72-1.62.44-3.7 2.59-5.82 2.19-3.31-.61-3.43-4.76-3.44-7.32a.683.681 73.416 0 0-1.05-.57c-1.54 1-2.41 1.53-4.22.67q-3.58-1.68-8.25-2.72-2.42-.55-3.89-1.73a2.029 2.025 42.185 0 1-.15-3c1.56-1.57 2.9-2.91 3.1-5.07.43-4.57.4-12.49-6.36-11.28a.811.795-89.9 0 0-.64.65q-.47 2.53-1.99 6.94c-1.54 4.44-11.22 3.3-14.08 2.24a3.821 3.82 4.477 0 1-2.42-2.83l-1.49-7.27a3.495 3.485-81.95 0 0-1.8-2.4q-1.46-.76-13.93-7.13c-1.65-.84-4.3-2.68-4.52-4.65q-.37-3.24 2.03-5.08 5.9-4.51 5.92-4.53a.825.82 33.925 0 0-.28-1.41q-.17-.06-8.51-2.92-3.76-1.29-3.68-5.5a2.183 2.177 78.708 0 1 1.31-1.97l4.74-2.11a3.414 3.412 81.678 0 0 2.01-2.7c.29-2.27.38-5.69 1.88-8.14a3.706 3.672-7.862 0 1 .52-.68q2.7-2.87 3.02-4.02c1.07-3.84 1.9-10.21 7.61-5.52a1.107 1.087-29.562 0 0 .9.24q2.49-.44 2.87-3.26.81-5.94 3.04-11.14a1.356 1.353-65.393 0 1 1.85-.69c2.43 1.21 4.75 3.84 7.21 4.77q5.1 1.92 6.47 1.99c3.43.19 5.42-4.86 5.93-7.66a.463.456-.083 0 0-.54-.53l-2.43.43a1.667 1.662-15.791 0 1-1.83-1.02q-2.06-5.14-7-6.54a1.932 1.93 11.721 0 1-1.38-2.1c.5-3.93 2.79-4.87 4.85-6.87a1.038 1.033 27.783 0 0-.55-1.76q-2.48-.43-3.79-.87c-3.51-1.16-2.26-5.07.1-6.61q2.68-1.76 7.02-3.9 3.35-1.65 7.01.09a.812.81 12.724 0 0 1.16-.73v-1.44a1.067 1.061 74.446 0 1 .51-.91c2.41-1.45 5.42-3.08 5.05-6.11q-.34-2.84-2.8-5.48a.729.715 43.75 0 1-.03-.95q1.06-1.28 1.78-2.33c2.61-3.85-2.4-5.46-4.23-8.07q-3.05-4.37-2.4-9.13a1.518 1.481-55.588 0 0-.16-.92c-1.27-2.35-1.13-4.11 1.55-5.5q2.25-1.17 1.97-4.9a.839.828 83.087 0 1 .68-.88l8.16-1.44a1.347 1.333 4.55 0 0 1.02-.86c1.26-3.58.6-6.7.71-10.01a.809.807-6.895 0 1 .59-.75c3.19-.86 5.45.46 9.32 2.16a1.769 1.75 56.62 0 0 .71.15h3.45a2.11 2.11 45 0 0 2.11-2.11v-3.71a.98.964-16.946 0 1 .44-.81q3.14-2.07 6.43-2.38a.161.16-1.911 0 0 .15-.16v-.01a.181.18 1.686 0 0-.17-.18q-2.94-.19-5.32-1.45a2.485 2.105 32.569 0 1-1.05-3.4q2.06-2.52 5.03-2.36a1.983 1.979-70.437 0 0 1.74-.83l2.32-3.21a2.687 2.687 79.734 0 1 3.75-.61l2.98 2.14a1.709 1.708-58.767 0 0 2.53-.62c.76-1.53 2.63-2.56 4.23-3.01q5.96-1.66 11.73-6.03a.732.729-18.881 0 1 1.17.57q.02 2.14 1.1 4.54a.55.55-57.873 0 0 1.05-.24q0-.35-.06-4.78-.03-2.36 2.14-2.75 4.5-.81 8.27-1.35a1.803 1.797-4.054 0 0 1.55-1.78v-4.94a1.937 1.934 78.062 0 1 1.15-1.77l5.62-2.49a1.371 1.364-5.759 0 0 .78-.95l1.08-4.85a1.525 1.521-89.691 0 1 1.18-1.17c5.91-1.22 5.28 4.71 9.28 6.55a1.288 1.279-72.63 0 0 1.8-.95q.7-4.04 3.07-7.92c1.38-2.25 2.41-5.3.36-7.63a1.021 1.019-20.565 0 1 .77-1.69h1.99a3.546 3.537-18.039 0 1 2.86 1.45c1.28 1.75 3.44 4.57 5.55 4.98a1.034 1.034-6.204 0 0 1.15-1.43l-1.9-4.28a.543.541 3.801 0 1 .78-.68q2.06 1.24 6.51 3.88 2.93 1.74 5.59.94c6.35-1.92 2.89-7.33 1.39-11.14a.453.451 89.648 0 1 .58-.59c3.29 1.24 6.24-.05 9.34-2.12q1.19-.79 4.11-5.54 2.85-4.65 6.65-8.81a.751.749 54.067 0 1 1.24.2l1.61 3.63a1.068 1.066 47.546 0 1-.04.92q-.92 1.68.08 3.02a.528.526-43.499 0 0 .83.02c1.62-1.98.77-4.86.31-8.82a2.605 2.584 69.367 0 1 1.08-2.41q1.74-1.24 4.79-1.19a1.613 1.584-22.318 0 1 1.08.44c2.97 2.87 2.33 4.3 3.16 7.36a.439.436 37.523 0 0 .86-.11v-3.35a3.662 3.658-9.503 0 1 2.47-3.46l.43-.15a1.723 1.722 80.558 0 1 2.28 1.63v6.17a1.243 1.243-22.442 0 0 2.12.88l2.82-2.83a.37.37-15.518 0 1 .62.35q-.21.9-.21 1.45a.97.97-45.249 0 0 .97.97h8.93a.799.783 22.086 0 0 .56-.23l.76-.75a3.18 3.18 34.282 0 1 3.54-.67c2.24.97 4.14 2.27 7.05 3.01q5.28 1.35 9.81 4.56a2.916 2.902-41.895 0 0 3.09.16c5-2.77 9.12-1.02 14.37-.03a.91.9 16.556 0 0 1.01-.54l.38-.93a1.519 1.495 10.935 0 1 1.4-.93h.96a.474.47 15.199 0 1 .41.71q-.75 1.3-.67 2.33a.545.543 63.487 0 0 .95.32q3.63-4.11 4.84-7.89c.52-1.62 1.62-2.56 3.05-2.6a.835.827-6.591 0 1 .84.66c.42 1.98 1.2 5.48 2.68 6.39a.445.445 14.171 0 0 .68-.34l.51-6.35a1.711 1.704 73.187 0 1 .64-1.2q2.04-1.57 4.23.23 7.03 5.79 13.6 14.27 1.12 1.45 6.79 4.36a4.772 4.738-5.913 0 1 1.55 1.25q2.2 2.72 5.34 3.17a.685.682-5.017 0 0 .75-.89q-1.06-3.12-4.04-7.27-.25-.34-.14-.67.2-.62.8-.35 6.55 2.91 7.09 9a2.5 2.488 24.885 0 0 .45 1.22q.3.42.54.58a1.172 1.17-61.218 0 0 1.75-.51l1.67-3.95a1.962 1.939 88.908 0 1 .97-1.02q2.83-1.3 6.89-.84a.845.843.843 0 0 .94-.91q-.28-3.29-2.53-5.12a1.107 1.107 62.045 0 1 .6-1.96c6.67-.58 10.56 3.9 15.4 8.6q.68.66 2.1 1.15a.368.36-80.461 0 0 .48-.35v-4.19a.926.92 86.888 0 1 .82-.92c8.67-1.05 17.14 7.65 21.51 14.3a1.177 1.154-55.222 0 1 .16.94q-.52 2.03-1.91 3.84-4.43 5.77-7.38 10.61c-1.12 1.84-1.48 2.92-.92 5.12q.67 2.67.2 5.45a1.985 1.978 10.837 0 0 1.54 2.26q4.8 1.04 7.5 1.95 1.22.4 2.66 2.62a1.008 1-16.038 0 0 .82.45q2.66.05 5.14 1.57 5.07 3.12 9.87 4.56a1.829 1.796-13.515 0 1 .7.42l2.93 2.93a1.069 1.066-35.073 0 0 1.21.21c2.72-1.26 4.95-2.31 8.05-1.59a1.332 1.291 79.58 0 1 .8.57l2.75 4.29a.817.815-16.115 0 0 .69.38h2.12a1.593 1.589 9.914 0 1 1.5 2.13l-1.75 4.84a.785.769-44.427 0 0-.01.5q1.57 5 4.97 7.94a1 .995-30.211 0 0 .88.23q4.6-1.03 8.7-3.97 1.29-.92 2.66-1.05a.647.646-89.629 0 1 .7.71l-.6 5.33a2.146 1.818-49.731 0 0 0 .49q.37 2.91 2.67 6.29a1.764 1.715 83.852 0 0 .76.63q2.97 1.32 6.3 1.57a.831.823-6.75 0 1 .73.57c1.03 3.31 1.52 7.05 4.58 7.4a1.46 1.46 20.104 0 1 1.05 2.26q-1.97 2.98-2.27 3.54c-.97 1.83-1.11 4.11-1.62 5.98a3.773 3.768-16.884 0 1-.91 1.7l-2.9 3.14a3.323 3.318 54.378 0 0-.59 3.59l1.19 2.7a.93.93 84.727 0 1 0 .78c-1.85 4.04-4.36 9.54 1.35 11.56a.695.689-1.983 0 1 .4.37l1.01 2.28a2.132 2.126-16.788 0 0 2.32 1.24l4.68-.83a3.246 3.228-21.29 0 1 3.28 1.43q1.54 2.41 4.17 4c1.77 1.06 3.27 2.47 3.68 4.12a2.248 2.248.431 0 1-2.67 2.63l-4.78-1.01a.453.451-9.895 0 0-.48.68c1.15 1.85 4.45 5.28 4.3 7.36-.2 2.73-.5 4.41-2.85 6.16q-6.68 4.97-7.86 5.55a.996.992-7.754 0 0-.55.72c-1.13 6.57 3.24 6.7 8.21 6.08q5.31-.65 10.77-.76 3-.06 3.25 3.2a1.828 1.791 59.242 0 1-.26 1.07l-1.33 2.22a1.584 1.576-61.967 0 0 .68 2.25zM452.429 184.58a2.68 1.03-106.5 0 0-.227 2.863 2.68 1.03-106.5 0 0 1.749 2.277 2.68 1.03-106.5 0 0 .227-2.863 2.68 1.03-106.5 0 0-1.749-2.277m85.252 62.091 1.526-.206a.11.11-85.112 0 0 .095-.124l-.023-.168a4.56.85 82.3 0 0-1.453-4.405l-.06.008a4.56.85 82.3 0 0-.231 4.633l.022.168a.11.11 78.914 0 0 .124.094M207.53 285.34q-.33-.07-.44.06a.292.26-4.85 0 0 .44.33q.09-.08.1-.25a.136.132 10.386 0 0-.1-.14m-36.976 96.059a3.3 1.37-171.8 0 0 3.071 1.827 3.3 1.37-171.8 0 0 3.461-.885 3.3 1.37-171.8 0 0-3.071-1.827 3.3 1.37-171.8 0 0-3.461.885m266.692 67.566a2.87 1.08-25.7 0 0-3.054.272 2.87 1.08-25.7 0 0-2.118 2.218 2.87 1.08-25.7 0 0 3.054-.272 2.87 1.08-25.7 0 0 2.118-2.218"></path><path fill="#ffde00" fill-rule="evenodd" d="M452.429 184.58a2.68 1.03-106.5 0 1 1.749 2.277 2.68 1.03-106.5 0 1-.227 2.863 2.68 1.03-106.5 0 1-1.749-2.277 2.68 1.03-106.5 0 1 .227-2.863"></path><path fill="#fbec00" fill-rule="evenodd" d="M175.33 200.54a1.616 1.6-74.726 0 1 .92 1.63q-.49 4.35-4.48 5.85c-2.31.87-9.94 1.01-9.08-3.39q1.31-6.8 7.41-6.36a1.781 1.7-29.227 0 1 .66.17zm444.925 13.853a2.58 2.58-45.68 0 1-.019-3.649l9.953-10.058a5.71 5.32-45.3 0 1 7.798-.316l.071.07a5.71 5.32-45.3 0 1-.235 7.801l-9.953 10.058a2.58 2.58-32.323 0 1-3.649.019zM137.02 238.48a.668.666-56.856 0 1-.2-.96l4.43-6.15a1.043.992 11.138 0 1 .63-.4q3.21-.64 5.06.46 7.65 4.55 13.03 7.05a.864.86-64.438 0 1 .41 1.17q-1.94 3.84-4.53 7.49-1.2 1.7-3.23.81c-2.43-1.08-4.71-3.5-7.24-4.81q-3.69-1.9-8.36-4.66"></path><path fill="#ffde00" fill-rule="evenodd" d="M537.681 246.671a.11.11-62.04 0 1-.124-.094l-.022-.168a4.56.85 82.3 0 1 .231-4.633l.06-.008a4.56.85 82.3 0 1 1.453 4.405l.023.168a.11.11-59.932 0 1-.095.124z"></path><path fill="#f13b24" fill-rule="evenodd" d="M207.63 285.48q-.01.17-.1.25a.292.26-4.85 0 1-.44-.33q.11-.13.44-.06a.136.132 10.386 0 1 .1.14"></path><path fill="#ffde00" fill-rule="evenodd" d="M136.87 287.47q-2.8 9.83-7.41 18.85z"></path><path fill="#fbec00" fill-rule="evenodd" d="M685.44 309.6a.544.542-25.194 0 1-.67-.24l-3.78-6.55a1.867 1.856-43.403 0 1 .06-1.95q2.55-3.9 7.56-5.48a1.134 1.117 56.576 0 1 1.08.23c2.96 2.65 3.77 8.59.51 11.19q-2.43 1.94-4.76 2.8m26.22 81.78q.73-4.73.5-9.63-1.01-20.83-4.45-39.91a.558.556 70.617 0 0-.81-.39q-4.81 2.58-10.87.96c-6.27-1.68-8.8-7.87-7.91-13.72a3.112 2.912 64.139 0 1 .27-.87c1.47-3.19 4.59-7.13 8.44-7.04a1.096 1.096 24.974 0 1 .7 1.92q-.54.47-1.53.86a1.634 1.621 74.521 0 0-1.01 1.8l.96 5.46a.72.72 84.718 0 0 .71.59q3.53 0 4.1-.16 10.78-2.93 23.38-5.35a3.974 3.967-70.07 0 0 1.77-.83l4.59-3.74a1.615 1.612-33.218 0 1 2.46.51q1.04 2.02 2.09 5.68c2.66 9.19-6.01 10.03-12.17 11.08q-2.66.46-2.52 2.83.24 3.94 1.5 7.58a.882.874-11.77 0 0 .91.59q5.2-.4 8.87-2.67a8.96 8.96 0 0 1 4.84-1.38.934.932 88.682 0 1 .92.88c.22 3.44 1.04 7.38-.13 10.9a3.034 3.025 4.215 0 1-2.36 2.03l-10.92 1.93a1.299 1.289-10.226 0 0-1.05 1.5l1.79 10.12a1.177 1.174 80.537 0 0 1.34.96q3.5-.58 11.46-1.13 15.06-1.04 28.86-1.51c4.15-.14 6.37-1.31 10.04-3.05a1.36 1.359-11.993 0 1 1.94 1.26q-.12 5.08-1.18 9.93-.54 2.47-3.5 2.85c-16.56 2.09-32.24 2.32-48.43 2.79-5.21.15-9.27 3.77-12.73 6.85a.53.526 73.657 0 1-.87-.48m-260.27 73.87q.92 2.15 2.86 2.14 8.6-.06 14.31 1.95c5.59 1.97 12.14 1.85 19.49.55q4.69-.82 11.63-1.46 1.9-.17 3.17-1.3a1.695 1.669 78.251 0 0 .49-.76l1.44-4.52a3.488 3.474 3.504 0 1 2.69-2.37q3.56-.64 6.18 1.17c2.17 1.52 6.18 5.33 10.06 6.14q5.66 1.18 11.11 4.25 2.02 1.14 5.63.05a1.555 1.528 6.013 0 0 .88-.7c2.43-4.2 8.09-3.87 12.14-2.36 2.57.96 8.18-1.46 11.65-3.04a5.372 5.311-58.566 0 1 1.86-.46c4.49-.25 10.69.4 12.45-3.04q.58-1.14 1.59-2.01a2.55 2.55-46.764 0 1 3.22-.1l4.49 3.45a3.207 3.204-44.828 0 0 3.87.01c1.71-1.29 2.71-4.38 3.56-6.99a4.4 4.385-6.092 0 1 1.96-2.42l4.1-2.37a1.79 1.79 57.994 0 0 .59-2.56q-2.22-3.26-3.57-6.4c-1.49-3.48-1.66-5.65 1.81-7.55a3.298 2.635 52.391 0 1 3.55.87q2.16 2.28 4.91 4.49a.788.777 44.023 0 0 1-.01c1.84-1.55 2.06-4.18 2.52-6.66a1.622 1.615 2.565 0 1 1.45-1.32c3.32-.32 5.46-.04 7.63-1.45a1.138 1.138-38.462 0 0 .2-1.74q-2.43-2.53-4.45-4.72a2.238 1.62 50.642 0 1-.18-2.97c1.53-1 4.5-.15 7.33.4q1 .19 1.37-.23a1.698 1.577 40.473 0 0-.27-2.32c-2.68-2.29-4.21-3.71-6.13-7.09-1.4-2.44-5.09-7.49-5.17-10.69a1.153 1.152-22.453 0 1 .37-.89q1.46-1.39 3.07-.86c4.32 1.41 8.04 2.55 11.92 1.67a1.559 1.557-7.758 0 0 1.21-1.59q-.08-1.83-1.44-2.39-3.84-1.57-5.29-1.79a.967.964 34.028 0 1-.35-1.79l5.73-3.3a1.454 1.449-37.594 0 0 .3-2.28l-3.56-3.55a1.705 1.701-55.098 0 1-.34-1.92q1.39-3 3.56-5.42 1.4-1.56.26-3.8-1.07-2.88-2.04-7.12-.86-3.73-4.74-4.01a1.18 1.144 73.577 0 1-.85-.48q-5.76-8.12-2.21-18.15.8-2.26 2.41-4.16a.933.933 51.982 0 1 1.55.19q.67 1.37.66 3.42c-.05 6.76-.05 11.15 3.83 16q4.56 5.7 5.39 7.22c6.71 12.27 6.3 27.88 3.07 41.26q-2.54 10.54-5.39 18.41c-2.93 8.1-9.77 15.04-15.3 21.59q-.04.04-5.6 7.63-5.77 7.88-13.62 13.39a2.947 2.927-70.391 0 1-.94.45c-11.89 3.34-23.59 5.3-38.58 8.06q-9.34 1.72-19.31 1.69c-6.34-.02-12.08-1.56-19.11-2.26q-9.76-.97-19.68 1.33c-8.35 1.94-14.84 3.75-22.16 3.38q-9.2-.47-18.83-3.63c-4.96-1.63-13.96-5.68-7.41-12.16"></path><path fill="#fbec00" fill-rule="evenodd" d="M761 344.07c1 2.99 1.96 5.14-.48 7.14-2.44 2.01-4.83 3.3-8.65 3.39q-3.11.08-7.4 1.58a1.901 1.898 72.732 0 1-2.45-1.29c-.55-2.03-2.69-8.39-.05-9.52q1.29-.55 2.3-.6 5.56-.28 12.44-1.68 1.75-.36 3.47.17a1.288 1.25 88.789 0 1 .82.81m-647.41 34.059a2.05 2.05-58.168 0 1-2.171 1.921l-14.453-.884a5.27 5.06 3.5 0 1-4.952-5.372l.032-.519a5.27 5.06 3.5 0 1 5.569-4.729l14.453.884a2.05 2.05 1.266 0 1 1.921 2.172z"></path><path fill="#ffde00" fill-rule="evenodd" d="M170.554 381.399a3.3 1.37-171.8 0 1 3.461-.885 3.3 1.37-171.8 0 1 3.071 1.827 3.3 1.37-171.8 0 1-3.461.885 3.3 1.37-171.8 0 1-3.071-1.827" data-source="https://football-logos.cc"></path><path fill="#fbec00" fill-rule="evenodd" d="M711.68 413.92q-.61-7.47 3.01-13.76a2.766 2.729-87.109 0 1 1.19-1.09q2.32-1.11 4.87-1.07c10.87.19 19.78-.12 29.65.77q8.27.74 15.8.61c4.56-.08 7.64-.81 12.01-2.22a.953.951-9.772 0 1 1.25.88q.15 6.04-2.35 11.07a2.272 2.263-84.928 0 1-1.38 1.16q-2.22.64-5.23.67c-12.86.15-26.63.73-39.99-.96q-2.29-.29-8.9-.02a6.771 6.479 33.268 0 0-1.84.34q-3.59 1.23-7.2 4.01a.554.553 68.6 0 1-.89-.39"></path><path fill="#ffde00" fill-rule="evenodd" d="M437.246 448.965a2.87 1.08-25.7 0 1-2.118 2.218 2.87 1.08-25.7 0 1-3.054.272 2.87 1.08-25.7 0 1 2.118-2.218 2.87 1.08-25.7 0 1 3.054-.272"></path><path fill-rule="evenodd" d="M575.27 586.24q-1.65 1.51-4.92 1.38-2.79-.11-2.19 2.99a1.659 1.656 79.695 0 1-1.34 1.94l-.48.09a1.106 1.106 25.9 0 1-1.28-.9l-1.15-6.49a.144.142-10.901 0 1 .11-.16l2.98-.62a6.023 5.777-65.217 0 0 1.76-.69q2.44-1.44 4.76-2.67c2.03-1.08 1.93-3.34 3.18-4.99q2.45-3.23 3.37-4.5a11.94 11.695-3.058 0 1 1.89-2.06q6.5-5.62 12.17-13.61a1.096 1.095 57.833 0 1 1.97.45l.72 4.04a1.495 1.484 74.111 0 1-.9 1.63q-3.64 1.48-4.72 5.27a.436.431-2.254 0 0 .57.52q3.93-1.4 5.18-3.4 2.31-3.69 5.92-5.06a1.971 1.947-27.853 0 0 .93-2.95q-.09-.14-.99-.07c-1.6.13-2.43-1.12-1.87-2.7a1.767 1.755 42.513 0 0-.06-1.28q-1.48-3.26 1.35-6.94c2.92-3.81 4.41-5.46 6.85-9.38q4.61-7.39 6.97-10.68a2.356 2.351 35.608 0 1 3.29-.54l6.5 4.68a.424.41 36.182 0 1 .1.58l-14.2 19.72-.04.06q-1.54 2.85-5.85 7.7-.37.42-.86 1.49a3.754 3.614-13.658 0 1-.54.85q-7.05 8.36-9.05 10.21-7.29 6.75-12.94 13.34a8.185 8.01-88.13 0 1-1.17 1.12q-4.6 3.63-8.08 7.77-3.43 4.08-7.52 6.55-.79.48-.98.46a.75.745 17.624 0 1-.59-1.13q2.59-4.28 7.19-6.62 1.99-1.01 4.17-5.24a.134.134 82.239 0 0-.21-.16m43.26-50.94c.38-.97.48-1.96 1.68-2.59q.98-.52 1.55-1.82a.657.649 29.781 0 0-.22-.79l-2.54-1.83a1.144 1.134 24.118 0 0-1.78.67l-.72 3.24a.778.762-2.151 0 1-.53.56q-1.18.35-1.03 1.42a.665.626 15.365 0 0 .25.41l1.7 1.22a1.081 1.079 28.32 0 0 1.64-.49m-12.83 12.14c-2.25 1.03-1.45 3.29-2.17 5.1a.69.687 1.771 0 0 .86.91q4.89-1.67 4.71-5.79 4.23-4.3 3.17-8.41a2.056 2.052-34.577 0 1 .32-1.73l1.94-2.7a.406.404-89.62 0 0-.56-.57q-1.26.89-1.94 2.65a3.497 3.254-18.498 0 1-.43.79q-.22.32-1.82 1.78c-1.68 1.54-2.31 4.02-1.63 6.06a1.027 1.017 76.735 0 1-.82 1.34q-1.29.18-1.63.57m12.023-8.997a1.52.62-54.5 0 0-1.388.877 1.52.62-54.5 0 0-.378 1.597 1.52.62-54.5 0 0 1.388-.877 1.52.62-54.5 0 0 .378-1.597M582.91 578.13a2.231 2.22-47.938 0 0 2.79-.15q1.49-1.34 2.53-2.68a2.167 2.165-55.824 0 0-.61-3.2q-1.28-.75-2.67-.15a.673.648-77.038 0 0-.23.15l-3.23 3.23a1.253 1.248 40.296 0 0 .16 1.9zm-6.47 7.27q2.61-1.34 4.16-4.06a.724.721 14.868 0 0-.63-1.08h-3.62a.529.527-12.47 0 0-.48.75q.9 1.91.09 3.95a.349.347 87.347 0 0 .48.44"></path><path fill="#ffde00" fill-rule="evenodd" d="M618.53 535.3a1.081 1.079 28.32 0 1-1.64.49l-1.7-1.22a.665.626 15.365 0 1-.25-.41q-.15-1.07 1.03-1.42a.778.762-2.151 0 0 .53-.56l.72-3.24a1.144 1.134 24.118 0 1 1.78-.67l2.54 1.83a.657.649 29.781 0 1 .22.79q-.57 1.3-1.55 1.82c-1.2.63-1.3 1.62-1.68 2.59m-9.43 12.36-3.4-.22q.34-.39 1.63-.57a1.027 1.017 76.735 0 0 .82-1.34c-.68-2.04-.05-4.52 1.63-6.06q1.6-1.46 1.82-1.78a3.497 3.254-18.498 0 0 .43-.79q.68-1.76 1.94-2.65a.406.404-89.62 0 1 .56.57l-1.94 2.7a2.056 2.052-34.577 0 0-.32 1.73q1.06 4.11-3.17 8.41"></path><path fill-rule="evenodd" d="M467.43 583.27a1.778 1.755-13.852 0 1-1.73-1.03q-1.27-2.78-.84-5.71 1.61-10.98 3.33-20.04.37-1.93.1-3.56a1.726 1.699-73.9 0 0-.52-.96q-2.17-2.01-2.95-3.54a1.646 1.642-26.717 0 1 .74-2.23q3.36-1.65 7.11-2.9c4.03-1.34 8.96-5.01 13.41-6.75a1.213 1.209-15.349 0 1 1.64.93q1.67 10.18 6.96 20.13 1.1 2.07 2.74 1.8a1.223 1.168-72.881 0 0 .68-.38l3.82-4.25a.971.97-37.449 0 1 1.59.21q3.5 6.96-.1 12.45c-1.18 1.79-1.08 3.27.76 4.3 2.58 1.43 5.25 2.54 6.02 3.91a1.356 1.355-25.092 0 1-.7 1.93c-7.75 2.99-11.22 4.17-17.59 8.55q-2.24 1.55-5.04 2.1a1.079 1.074 1.699 0 1-1.25-1.32c.95-3.78 1.78-6.32 1.28-9.41a.824.816-1.359 0 0-.72-.68c-6.07-.72-8.98 1.49-14.22 4.87q-2.22 1.43-4.52 1.58m6.592-25.417-1.507 13.436a.12.12 70.26 0 0 .106.133l.04.004a6.75 5.92-83.6 0 0 6.636-6.048l.029-.258a6.75 5.92-83.6 0 0-5.131-7.368l-.04-.005a.12.12-45 0 0-.133.106M318.09 590.48a1.206 1.203-75.432 0 1-1.8 1.06q-1.37-.78-7.7-5.25c-3.8-2.69-7.5-3.56-10.89-4.64q-1.28-.41-1.53-.71a1.948 1.945-39.657 0 1 .26-2.76c5.48-4.47 8.5-7.77 11.89-14.2q3.71-7.04 5.16-10.41a1.938 1.931 25.357 0 0-.89-2.48c-2.63-1.36-7.57-4.29-6.73-7.73q2.13-8.76 11.17-5.91a2.176 2.173 13.522 0 1 1.49 2.43l-.49 2.85a2.138 2.128-65.532 0 0 .74 1.99c2.93 2.45 9.85 2.23 13.92 2.36q1.35.05 1.89.3a1.766 1.766-59.968 0 1 .7 2.62q-8.63 12.27-14.79 24.48-2.9 5.73-2.9 8.51c0 2.62.48 5.02.5 7.49"></path><path fill="#ffde00" fill-rule="evenodd" d="M617.723 538.443a1.52.62-54.5 0 1-.378 1.597 1.52.62-54.5 0 1-1.388.877 1.52.62-54.5 0 1 .378-1.597 1.52.62-54.5 0 1 1.388-.877"></path><path fill="#fbec00" fill-rule="evenodd" d="M609.1 547.66q.18 4.12-4.71 5.79a.69.687 1.771 0 1-.86-.91c.72-1.81-.08-4.07 2.17-5.1z"></path><path fill-rule="evenodd" d="m425.84 570.21-9.4 1.66a.811.807-17.806 0 0-.59 1.14q1.28 2.71.06 5.86a1.519 1.511-6.793 0 1-.57.72c-9.68 6.63-16.59-12.27-6.1-18.11q1.92-1.08 7.8-1.22 12.75-.31 14.84-.85c3.72-.96 7.69-2.62 11.97-2.76a.66.659 83.318 0 1 .67.53q.42 2.26-.09 3-5.06 7.24-11.14 13.13a.841.84-40.896 0 0-.08 1.11q.73.97 2.23 1.16c6.38.8 11.16.66 14.71 4.88 4.52 5.37 4.08 13.11-1.14 18.28-5.78 5.73-13.5 7.87-21.52 8.23-6.14.27-10.95.39-14.91-3.74-3.1-3.24-5.01-7.81-2.97-11.93 1.86-3.76 5.68-3.74 8.3-5.42a2.285 2.279-6.769 0 0 .94-1.19q1.76-5.03 2.63-5.96 2.25-2.41 5.38-6.92a1.027 1.027 12.486 0 0-1.02-1.6m-3.127 16.707 1.632 12.394a2.77 2.77-12.632 0 0 3.107 2.384l2.866-.377a6.87 5.74 82.5 0 0 4.794-7.56l-.561-4.264a6.87 5.74 82.5 0 0-6.588-6.062l-2.865.378a2.77 2.77 68.489 0 0-2.385 3.107m-67.143-1.377c-.59-.83-2.71-1.51-3.55-2.65-4.44-6.01-3.62-14.04 1.23-19.57q2.24-2.55 6.72-4.06c10.74-3.61 22.96-1.25 29.74 8.08q3.07 4.22 3.57 9.63c1.38 14.82-5.75 26.81-21.44 28.9-7.44.99-19.73-.9-22.73-9.25-1.65-4.58 2.3-8.11 6.12-9.83a.844.842 60.252 0 0 .34-1.25m14.835-2.96c2.666.272 4.474-1.825 5.253-4.349 1.022-3.321 2.792-12.751-1.117-14.502q-.788-.352-2.157-.492t-2.212.045c-4.183.923-4.359 10.516-4.031 13.976.253 2.629 1.598 5.049 4.264 5.322m4.095 5.67q-4.7-.95-8.63.44a2.205 2.163 12.643 0 0-.79.49q-2.29 2.23-1.68 7.72.49 4.47 5.08 4.27c4.52-.2 6.28-8.23 6.65-12.08a.787.776 8.551 0 0-.63-.84"></path><path fill="#ffde00" fill-rule="evenodd" d="M474.022 557.853a.12.12 60.005 0 1 .133-.106l.04.005a6.75 5.92-83.6 0 1 5.131 7.368l-.029.258a6.75 5.92-83.6 0 1-6.636 6.048l-.04-.004a.12.12-45 0 1-.106-.133z"></path><path fill="#fbec00" fill-rule="evenodd" d="M372.384 563.237q1.369.14 2.157.492c3.909 1.751 2.139 11.181 1.117 14.502-.779 2.524-2.587 4.621-5.253 4.349s-4.011-2.693-4.264-5.322c-.328-3.46-.152-13.053 4.031-13.976q.843-.186 2.212-.045"></path><path fill="#ffde00" fill-rule="evenodd" d="m581.49 575.33 3.23-3.23a.673.648-77.038 0 1 .23-.15q1.39-.6 2.67.15a2.167 2.165-55.824 0 1 .61 3.2q-1.04 1.34-2.53 2.68a2.231 2.22-47.938 0 1-2.79.15l-1.26-.9a1.253 1.248 40.296 0 1-.16-1.9m-5.53 9.63q.81-2.04-.09-3.95a.529.527-12.47 0 1 .48-.75h3.62a.724.721 14.868 0 1 .63 1.08q-1.55 2.72-4.16 4.06a.349.347 87.347 0 1-.48-.44m-153.247 1.957a2.77 2.77-66.835 0 1 2.385-3.107l2.865-.378a6.87 5.74 82.5 0 1 6.588 6.062l.561 4.264a6.87 5.74 82.5 0 1-4.794 7.56l-2.866.377a2.77 2.77 19.824 0 1-3.107-2.384z"></path><path fill-rule="evenodd" d="M561 585.42a.569.568-71.075 0 1 .4.82q-1.23 2.36-1 4.49a1.434 1.419-70.527 0 0 .41.87l2.71 2.72a1.683 1.683 84.166 0 1 0 2.38l-.19.19a1.007.998 43.503 0 1-1.38.03c-1.16-1.03-1.85-1.35-2.1-3.46q-.22-1.92-2.87-1.52-.43.06-1.72.39a.952.937 61.525 0 1-.95-.29q-1.12-1.25-.5-2.76a1.432 1.418-.659 0 1 .75-.76c1.84-.83 4.24-3.53 6.44-3.1"></path><path fill="#fbec00" fill-rule="evenodd" d="M375.13 589.09c-.37 3.85-2.13 11.88-6.65 12.08q-4.59.2-5.08-4.27-.61-5.49 1.68-7.72a2.205 2.163 12.643 0 1 .79-.49q3.93-1.39 8.63-.44a.787.776 8.551 0 1 .63.84"></path><path fill-rule="evenodd" d="M560.141 599.029q-.52.551-1.306.423a.906.895-13.188 0 1-.569-.348q-2.011-2.729-1.509-3.262t3.347 1.312a.906.895-80.24 0 1 .38.546q.176.777-.343 1.329M547.14 609.72c-.47-1-1.57-1.74-1.95-2.83-1.13-3.31-3.86-9.22.84-9.98a1.888 1.636-15.68 0 1 1.93.91q.46 1.01.87 1.43a2.123 2.089-14.03 0 0 1.12.66l3.25.71a2.1 2.024 70.505 0 1 .88.44c1.68 1.44 3.07 4.02.7 5.72q-3.43 2.45-5.91 4.68-.63.56-1.53.28-.36-.11-.11-1.1a1.382 1.35-51.249 0 0-.09-.92m.82-6.81c.18 1.6.9 4.25 2.26 4.61q.45.11.78-.1a1.346 1.21-40.478 0 0 .27-2.03q-1.18-1-2.84-2.7a.274.274 19.848 0 0-.47.22m-7.53-1.65c-.25 2.01-.65 4.36 1.03 6.63q.99 1.34 2.3 4.66a2.57 2.563 60.695 0 1-.83 2.97l-5.02 3.83a.866.865 71.36 0 1-1.39-.69q-.01-1.46-2.12-3.9a5.974 5.93-79.483 0 1-.77-1.13l-2.46-4.6a1.078 1.078-50.763 0 0-1.98.2l-.18.6a7.754 7.676-45.913 0 0 .05 4.59c.47 1.48 3.02 6.08 2.36 8.69a1.411 1.41 37.529 0 1-2.6.34q-2.68-4.79-4.67-8.32c-2.22-3.94 3.82-6.52 7.32-8.03q.3-.14.79.16a.394.386-51.567 0 0 .48-.06l6.51-6.51a.696.69-18.995 0 1 1.18.57m-4.21 5.33a.498.494 2.7 0 0-.62.56l1.01 6.23a1.531 1.511-68.581 0 0 .3.7q.75 1.02 1.74 1.21a1.08.924 71.035 0 0 .7-1.77q-2.1-2.33-2.34-6.03a.993.991 5.314 0 0-.74-.89z"></path><path fill="#ffde00" fill-rule="evenodd" d="M548.43 602.69q1.66 1.7 2.84 2.7a1.346 1.21-40.478 0 1-.27 2.03q-.33.21-.78.1c-1.36-.36-2.08-3.01-2.26-4.61a.274.274 19.848 0 1 .47-.22m-12.21 3.9.05.01a.993.991 5.314 0 1 .74.89q.24 3.7 2.34 6.03a1.08.924 71.035 0 1-.7 1.77q-.99-.19-1.74-1.21a1.531 1.511-68.581 0 1-.3-.7l-1.01-6.23a.498.494 2.7 0 1 .62-.56m-291.71 82.57c5.93-1.36 11.73-2.8 16.85-.4q2.04.96 5.38 5.82 3.49 5.09 5.81 7.87c2.23 2.67 7.07 2.57 10.61 2.93a.705.704-83.97 0 1 .63.78q-.59 5.23-4.36 8.5c-7.61 6.62-16.27 4.64-23.06-1.59-2.86-2.62-4.45-6.85-6.87-10.55q-2.33-3.56-5.63-6.08a1.785 1.775-50.323 0 0-2.4.23q-6.08 6.8-10.28 16.05c-1.94 4.27-2.12 8.9.82 12.58q3.22 4.03 7.17 4.92c5.96 1.32 10.88-5.06 13.24-10.13a1.589 1.586-48.866 0 1 2.78-.19l1.61 2.51a1.768 1.504 89.417 0 0 .33.38q4.73 4.12 9.29 5.86a1.068.66-13.283 0 0 .15.05l8.45 1.44a1.008 1.006-82.086 0 1 .83 1.1c-.59 5.61-6.18 8.12-11.33 10.6q-6.29 3.02-12.95 1.36-4.3-1.07-13.81-4.72-7.4-2.84-13.6-8.47-5.86-5.33-8.26-7.07-9.06-6.59-20.06-8.17a1.618 1.616 18.468 0 1-1.19-2.38c1.97-3.55 8.46-6.03 11.58-9.64q3.37-3.9 6.67-9.32 7.15-11.74 11.98-24.8c2.3-6.23 2.61-9.97 1.98-17.75q-.22-2.61.53-4.94a.753.741-71.103 0 1 .96-.48q2.99 1.09 6.42 3.75 4.96 3.85 5.58 4.17 10.28 5.23 14.37 6.18c16.72 3.91 36.04 11.66 37 31.93a.755.754.692 0 1-.8.78q-3.45-.21-7.24-1.23-8.39-2.28-15.41-2.67a1.58 1.578 16.952 0 1-1.27-2.38c1.96-3.32 4.43-5.61 2.94-9.49q-2.26-5.94-9.04-7.9c-2.74-.79-3.38.34-5.5 2.3q-7.9 7.32-12.05 16.87a1.012 1.009-84.694 0 0 1.15 1.39m280.63 7.76q-8.53-.45-16.42 1.72c-2.21.61-5.2.94-6.9 1.01a.526.52 2.344 0 1-.54-.58q.23-1.88.76-4.93c2.91-16.72 15.38-24.3 30.82-28.32q6.22-1.61 9.62-2.74 9.57-3.16 17.72-11.1 1.61-1.58 4.04-1.4a1.346 1.322 70.792 0 1 .89.44q1.67 1.85 1.15 3.97-2.64 10.87-4.73 27.77-2.91 23.54-3.3 30.5c-.15 2.68-.51 5.48.65 7.83 1.15 2.33 4.41 6.28 7.39 5.31 3.83-1.25 6.09-3 8.06-7.25 4.44-9.61-3.66-15.41-9.92-20.78a1.879 1.87-59.835 0 1-.54-2.06c1.28-3.53 8.07-4.87 11.72-5.74q6.75-1.6 12.48 2.37 7.73 5.38 7.11 15.35-.39 6.16-3.4 10.88c-4.11 6.43-14.08 11.43-21.45 13.9-13.37 4.49-21.09 6.11-29.4 12.91q-2.39 1.96-5.48 4.73a2.149 2.031 13.714 0 1-.79.45l-6.17 1.87a.903.902-7.159 0 1-1.16-.9c.15-4.14.71-7.01 1.99-13.73q1.05-5.48 1.53-9.89c1.43-13.09 4.46-28.58 4.48-42.75 0-2.97-.96-9.7-5.06-9.75-7.61-.09-8.2 3.53-7.62 10.16a4.309 4.28 32.273 0 0 .28 1.22l3.14 8.24a.958.953-8.776 0 1-.95 1.29m-140.48 62.72c3.21 5.4 9.02 8.71 15.41 7.99 4.46-.51 6.92-3.35 9.3-6.87q1.87-2.76 1.16-5.74c-1.76-7.45-10.07-10.21-16.68-12.58q-3.06-1.1-6.44-1.94c-8.35-2.1-17.82-5.84-22.8-13.16q-3.85-5.68-1.74-13.47 2.46-9.1 9.87-14.39c7.36-5.26 18.06-5.65 26.51-3.21q2.65.77 8.11 2.8 4.09 1.52 10.47.93a.93.835 29.65 0 0 .23-.05l8.53-2.99a.75.75 23.747 0 1 1 .7q.02 7.72-3.05 14.63c-2 4.5-8.47 8.27-13.44 6.65-6.02-1.97-8.7-5.41-13.34-11.39-4.23-5.44-7.34-8.17-13.65-4.38a2.736 2.723-18.304 0 0-1.32 2.61c.32 3.3 1.44 5.21 4.39 7.08q6.22 3.93 11.87 5.83 6.5 2.17 8.57 3.09c3.78 1.66 5.61 1.91 8.98 2.99a9.474 8.595 64.483 0 1 1.27.52c9.1 4.61 16.39 9.39 17.51 20.47.35 3.48-.51 6.07-1.89 9.65q-4.91 12.83-17.9 17.18c-12.01 4.03-24.1 2.99-36.32-.59-6.89-2.01-14.53-5.6-17.46-12.93q-2.21-5.56 1.15-10.69c3.21-4.89 10.02-9.09 16.27-7.83q5.61 1.14 11.93 3.86a.974.967-74.633 0 1 .57 1.01c-.29 2.41-4.14 5.13-5.44 6.58q-2.53 2.81-1.96 6.69a2.722 2.52 28.05 0 0 .33.95"></path><path fill="#fbec00" fill-rule="evenodd" d="M325.858 745.66a12.48 12.08-30 0 1-4.768 16.702 12.48 12.08-30 0 1-16.848-4.222 12.48 12.08-30 0 1 4.768-16.702 12.48 12.08-30 0 1 16.848 4.222m157.325-4.539a12.44 12.28-74.7 0 1 8.562 15.239 12.44 12.28-74.7 0 1-15.128 8.759 12.44 12.28-74.7 0 1-8.562-15.239 12.44 12.28-74.7 0 1 15.128-8.759" data-source="https://football-logos.cc"></path><!-- source: https://football-logos.cc --></svg>