<svg xmlns="http://www.w3.org/2000/svg" viewBox="149.51 0 1390.94 1907.7"><!-- Source: https://football-logos.cc --><path fill="#22603f" fill-rule="evenodd" d="M857.99 0q21.56 1.24 42.93 4.18 23.42 3.22 42.27 8.4 21.86 6 42.77 14.22c24.99 9.82 47.89 22.21 69.02 36.71 20.66 14.19 39.3 33.31 54.41 53.44q7.63 10.17 17.75 26 9.94 15.57 15.36 26.05 11.66 22.56 20.13 46.11 1.73 4.8 2.95 9.57 11.95 46.81 15.61 58.9 4.05 13.41 12.16 34.35 2.93 7.56 15 33.28 8.6 18.31 16.99 32.31c13.98 23.33 29.89 45.64 46.98 65.48q11.36 13.19 26.29 27.12 18.55 17.3 40.52 33.78c33.62 25.22 71.86 45.12 110.69 60.26q36.64 14.27 72.9 25.3a1.214 1.196-88.405 0 1 .82.88c13.91 58.14 19.29 117.68 15.94 176.41q-2.39 41.91-8.02 84.79c-5.15 39.2-10.83 77.08-17.12 106.83-3.3 15.58-7.75 37.63-12.25 55.68-5.15 20.66-9.19 38.08-14.34 56.58q-13.07 46.97-27.34 90.19-14.02 42.45-29.74 82.27-17.71 44.85-33.59 80.78c-24.3 55-52.79 111.01-83.91 163.82q-23.86 40.49-46.5 73.47-20.78 30.28-50.54 68.76-6.62 8.56-15.49 18.99c-13.02 15.31-20.7 24.81-32.05 36.93q-16.64 17.76-16.69 17.81-29.49 31.29-65.34 61.65-51.52 43.63-110.58 77.94c-11.37 6.6-27.55 14.58-36.31 19.15q-16.31 8.5-48.97 22.06-24.35 10.1-44.4 17.09-1.49.52-4.63-.63-23.65-8.71-34.53-13.33c-14.99-6.37-27.26-11.39-40.11-17.36-34.37-15.97-68.94-34.94-99.64-56.35-17.82-12.43-40.14-28.76-58.78-44.43q-38.15-32.09-70.05-65.28-8.31-8.64-13.68-14.75c-6.29-7.14-12.04-12.84-18.5-20.41-37.93-44.44-73.49-91.87-104.94-141.61q-13.72-21.7-24.81-40.41-7.71-12.99-18.48-32.36-22.93-41.27-37.68-72.34-12.43-26.16-22.49-47.99-12.75-27.68-35.33-82.93-5.05-12.35-25.67-69.96-8.58-23.96-15.97-48.31c-10.6-34.91-18.77-62.29-27.68-97.45-2.28-9.02-4.99-21.45-6.49-27.84q-11.24-47.91-16.22-77.12-1.82-10.65-9.69-63.99-3.9-26.44-5.96-46.5c-3.85-37.59-6.53-72.6-5.05-105.16 1.23-27.14 3.13-53.7 7.81-80.03q4.09-22.97 9.02-44.15a2.296 2.279 88.273 0 1 1.57-1.68q42.75-12.9 82.92-29.18 5.02-2.04 28.11-12.9 24.8-11.66 47.38-26.35 25.16-16.38 44.24-32.03 33.34-27.36 59.77-60.71 26.59-33.56 47.64-74.81 3.61-7.07 5.03-10.5c1.99-4.8 4.72-9.35 6.59-14.05q12.37-31.09 13.7-35.19 11.48-35.09 14.75-49.23c2.01-8.66 5.37-24.55 8.81-35.24q14.6-45.35 39.62-82.87c12.29-18.43 29.58-36.38 47.68-52.28q10.89-9.57 23.36-18 39.37-26.6 83.2-41.17 26.18-8.71 53.87-13.94 24.3-4.59 57.48-6.72zm631.56 628.21a4.158 4.15-.283 0 0-2.58-2.55l-19.98-6.74q-35.79-12.07-73.37-30.02c-22.56-10.77-42.27-22.54-63.83-36.95q-28.84-19.27-57.06-45.37-25.95-24.01-48.79-54.09c-20.59-27.13-37.84-55.32-52.24-85.44-10.36-21.67-19.26-43.68-26.46-66.54q-7.48-23.74-14.14-50.6c-5.99-24.13-14.59-47.4-27.21-68.56-9.07-15.21-18.36-30.04-29.08-44.13q-18.57-24.41-43.03-41.62c-15.34-10.8-29.69-17.92-47.94-26.73q-2.17-1.04-18.89-7.5c-18.15-7.01-36.96-11.77-55.88-15.69-46.76-9.68-95.6-7.99-142.2 3.23q-19.85 4.79-34.13 9.65Q703.32 68.58 676.5 84c-41.66 23.93-74.01 58.55-94.67 101.84q-6.28 13.17-8.8 19.39c-10.88 26.88-15.9 56.42-24.46 84.3q-12.8 41.69-29.41 76.64-25.64 53.96-65.93 102.79c-21.35 25.87-45.9 48.28-73.04 69.21q-17.33 13.37-45.56 30.21-29.59 17.67-59.26 30.21-41.82 17.69-68.24 25.58c-3.99 1.2-6.36 1.76-7.2 6.11-7.48 38.51-11.38 77.28-10.64 115.99q.36 19.07 2.51 46.23c3.4 42.78 9.2 88.27 17.43 132.41 7.24 38.85 14.28 74.32 23.75 110.9q6.61 25.51 10.29 38.23 1.11 3.83 9.19 31.26 5.68 19.28 9.58 31.17c12.29 37.51 24.64 73.78 39.43 110.22q14.3 35.25 22.43 53.94 26.24 60.34 59.16 122.12 32.24 60.52 77.82 128.14c7.52 11.16 15.24 21.21 24.44 33.85 29.81 40.98 63.48 79.81 99.66 115.54 50.21 49.58 107.21 92.96 169.57 125.39q25.57 13.3 50.4 24.13 17.21 7.5 32.99 13.16c4.22 1.51 6.85 2.65 10.02 1.51 13.27-4.77 29.25-11 44.37-17.87q10.83-4.91 17.22-7.82c31.08-14.15 59.17-30.77 88.89-50.42 20.03-13.25 39.6-29.04 57.66-43.77q25.23-20.57 48.59-44.04c15.47-15.55 28.88-29.37 44.39-46.96 32.84-37.23 62.37-76.15 89.77-117.2q26.17-39.22 54.61-89.13 16.65-29.24 30.48-56.77 15.21-30.26 28.72-59.3 12.27-26.38 26.19-60.66c1.48-3.65 3.35-7.16 4.59-10.35q11.71-30.09 17.01-43.69 7.18-18.39 16.55-46.16c5.89-17.46 14.26-42.88 21.28-66.12 2.34-7.76 5-15.6 7.17-23.99q7.94-30.67 9.59-36.5.93-3.3 1.37-5.03 5.76-22.2 11.81-48.53c6.99-30.42 10.31-52.1 16.67-88.74 5.01-28.84 8.41-58.36 11.48-86.49q4.03-37.04 4.53-74.18.72-53.38-10.91-111.19-.06-.28-.44-1.35" data-source="https://football-logos.cc"></path><path fill="#fff" fill-rule="evenodd" d="M1489.55 628.21q.38 1.07.44 1.35 11.63 57.81 10.91 111.19-.5 37.14-4.53 74.18c-3.07 28.13-6.47 57.65-11.48 86.49-6.36 36.64-9.68 58.32-16.67 88.74q-6.05 26.33-11.81 48.53-.44 1.73-1.37 5.03-1.65 5.83-9.59 36.5c-2.17 8.39-4.83 16.23-7.17 23.99-7.02 23.24-15.39 48.66-21.28 66.12q-9.37 27.77-16.55 46.16-5.3 13.6-17.01 43.69c-1.24 3.19-3.11 6.7-4.59 10.35q-13.92 34.28-26.19 60.66-13.51 29.04-28.72 59.3-13.83 27.53-30.48 56.77-28.44 49.91-54.61 89.13c-27.4 41.05-56.93 79.97-89.77 117.2-15.51 17.59-28.92 31.41-44.39 46.96q-23.36 23.47-48.59 44.04c-18.06 14.73-37.63 30.52-57.66 43.77-29.72 19.65-57.81 36.27-88.89 50.42q-6.39 2.91-17.22 7.82c-15.12 6.87-31.1 13.1-44.37 17.87-3.17 1.14-5.8 0-10.02-1.51q-15.78-5.66-32.99-13.16-24.83-10.83-50.4-24.13c-62.36-32.43-119.36-75.81-169.57-125.39-36.18-35.73-69.85-74.56-99.66-115.54-9.2-12.64-16.92-22.69-24.44-33.85q-45.58-67.62-77.82-128.14-32.92-61.78-59.16-122.12-8.13-18.69-22.43-53.94c-14.79-36.44-27.14-72.71-39.43-110.22q-3.9-11.89-9.58-31.17-8.08-27.43-9.19-31.26-3.68-12.72-10.29-38.23c-9.47-36.58-16.51-72.05-23.75-110.9-8.23-44.14-14.03-89.63-17.43-132.41q-2.15-27.16-2.51-46.23c-.74-38.71 3.16-77.48 10.64-115.99.84-4.35 3.21-4.91 7.2-6.11q26.42-7.89 68.24-25.58 29.67-12.54 59.26-30.21 28.23-16.84 45.56-30.21c27.14-20.93 51.69-43.34 73.04-69.21q40.29-48.83 65.93-102.79 16.61-34.95 29.41-76.64c8.56-27.88 13.58-57.42 24.46-84.3q2.52-6.22 8.8-19.39c20.66-43.29 53.01-77.91 94.67-101.84q26.82-15.42 56.24-25.44 14.28-4.86 34.13-9.65c46.6-11.22 95.44-12.91 142.2-3.23 18.92 3.92 37.73 8.68 55.88 15.69q16.72 6.46 18.89 7.5c18.25 8.81 32.6 15.93 47.94 26.73q24.46 17.21 43.03 41.62c10.72 14.09 20.01 28.92 29.08 44.13 12.62 21.16 21.22 44.43 27.21 68.56q6.66 26.86 14.14 50.6c7.2 22.86 16.1 44.87 26.46 66.54 14.4 30.12 31.65 58.31 52.24 85.44q22.84 30.08 48.79 54.09 28.22 26.1 57.06 45.37c21.56 14.41 41.27 26.18 63.83 36.95q37.58 17.95 73.37 30.02l19.98 6.74a4.158 4.15-.283 0 1 2.58 2.55M880.68 331.07q8.53-.77 16.5-2.16c20.01-3.5 39.36-7.67 58.36-14.65q14.18-5.21 23.43-9.38 24.61-11.07 46.43-28.46c12.87-10.26 22.78-21.11 30.33-34.47q20.96-37.03 5.5-74.62-4.73-11.5-12.16-21.25c-9.37-12.3-21.46-23.28-34.28-32.35q-20.67-14.61-45.14-24.62-40.86-16.72-85.62-21.89-25.25-2.91-50.65-1.88-24.92 1.02-50.42 5.41-13.53 2.33-35.45 8.48c-13.95 3.91-27.68 10.19-41.55 16.47q-10.3 4.67-24.31 13.69-22.34 14.39-36.88 32.27c-2.71 3.35-5.92 8.2-7.65 10.65-6.73 9.5-10.96 20.92-13.32 32.51q-3.01 14.78.12 29.07c9.34 42.71 44.43 69.26 81.4 88.27 20.07 10.32 43.15 17.62 65.76 22.43q27.35 5.8 37.07 6.73c23.74 2.25 48.14 1.96 72.53-.25m216.85-108.2c-3.17 6.21-6.77 15.37-11.24 22.82q-10.38 17.27-21.32 29.26-15.63 17.14-37.04 31.41-17.38 11.58-46.23 23.83-7.1 3.01-20.43 7.05-20.81 6.31-37.03 9.44-39.91 7.68-80.6 7.38-13.05-.1-30.26-1.43-19-1.47-30.12-3.13c-36.22-5.4-71.76-16.15-105.07-33.67-4.97-2.61-8.76-5.3-14.45-8.81q-4.73-2.92-10.46-7.17c-20.45-15.15-38.66-34.78-50.56-57.08q-4.94-9.26-9.68-20.56a.659.657-50.397 0 0-1.25.12c-7.02 32.3-15.42 65.7-26.22 96.78q-8.15 23.47-17.99 45.74-5.66 12.79-20.32 40.08-7.72 14.37-17.82 29.65c-15.61 23.63-31.34 44.95-47.87 62.99q-33.35 36.39-72.9 64.84-31.32 22.52-57.65 36.84-51.09 27.76-107.26 45.7a1.299 1.289-3.926 0 0-.87.99q-3.2 17.88-5.21 34.68-2.23 18.67-2.89 34.89-.3 7.4-.1 35.68.1 15.21 1.88 35.6 3.62 41.6 4.57 48.61c6.57 48.28 9.78 74.49 17.46 110.24 5.07 23.63 10.68 51.46 17.15 77.58q6.89 27.83 17.04 63.43c5.36 18.82 10.2 33.25 17.08 54.97q8.29 26.19 17.61 50.43c5.1 13.27 9.29 26.21 14.61 39.54q8.27 20.72 10.38 25.71c12.16 28.81 25.28 59.74 39.63 89.34q13.22 27.28 20.2 40.56 10.9 20.77 30.51 56.09 2.03 3.66 4.97 8.38c4.31 6.9 8.15 14.49 12.27 21.07q25.19 40.15 28.9 45.81 17.41 26.63 43.97 61.79 1.97 2.59 9.17 11.84 6.78 8.72 9.27 11.75 31.77 38.79 56.7 64.52 19.99 20.64 53.5 50.15c18.96 16.7 38.71 31.38 59.17 45.67q23.96 16.73 49.15 30.85 14.18 7.94 41.2 21.14c17.13 8.36 30.09 13.08 51.64 21.79q2.1.85 3.82.24 12.08-4.31 37.2-14.79 11.59-4.83 41.11-19.92 25.47-13.02 56.53-33.96 25.57-17.23 48.37-35.63c30.66-24.75 59.72-51.85 86.7-81.49q23.24-25.53 35.83-40.95 52.35-64.19 98.27-140.47 15.86-26.34 22.83-38.93 22.75-41.1 43.79-84.38 10.18-20.92 20.56-44.76 17.56-40.35 19.51-45.25 24.79-62.34 36.84-98.14 15.54-46.2 20.11-62.16 19.91-69.55 30.5-117.71 6.29-28.59 14.99-78.75c3.55-20.48 7.06-49.3 9.2-66.06 5.19-40.73 8.18-81.72 6.54-123.18q-1.29-32.77-8.04-65.66a1.081 1.065-86.272 0 0-.7-.81q-5.77-2.05-30.4-11.17-19.24-7.12-30.16-11.93-30.44-13.4-58.85-29.7c-22.23-12.76-45.15-29.13-64.58-44.69q-44.95-35.97-79.8-82.19-8.03-10.63-16.42-22.48c-4.93-6.94-8.8-13.73-13.27-20.7q-4.32-6.75-9.37-16.09-15.76-29.13-28.62-60.05-6.63-15.93-11.74-31.74-14.64-45.34-24.8-91.54a.611.607-37.784 0 0-1.14-.14"></path><path fill="#1a7a42" fill-rule="evenodd" d="M880.68 331.07c-24.39 2.21-48.79 2.5-72.53.25q-9.72-.93-37.07-6.73c-22.61-4.81-45.69-12.11-65.76-22.43-36.97-19.01-72.06-45.56-81.4-88.27q-3.13-14.29-.12-29.07c2.36-11.59 6.59-23.01 13.32-32.51 1.73-2.45 4.94-7.3 7.65-10.65q14.54-17.88 36.88-32.27 14.01-9.02 24.31-13.69c13.87-6.28 27.6-12.56 41.55-16.47q21.92-6.15 35.45-8.48 25.5-4.39 50.42-5.41 25.4-1.03 50.65 1.88 44.76 5.17 85.62 21.89 24.47 10.01 45.14 24.62c12.82 9.07 24.91 20.05 34.28 32.35q7.43 9.75 12.16 21.25 15.46 37.59-5.5 74.62c-7.55 13.36-17.46 24.21-30.33 34.47q-21.82 17.39-46.43 28.46-9.25 4.17-23.43 9.38c-19 6.98-38.35 11.15-58.36 14.65q-7.97 1.39-16.5 2.16M637.632 198.774c-.026 28.963 18.689 54.074 40.71 71.163C719.61 301.96 770.96 314.89 821.65 319.09q27.98 2.31 60.36-1.23 42.21-4.61 77.7-18.48c25.48-9.95 50.64-24.77 68.982-44.662 13.893-15.067 23.869-35.015 23.887-55.579s-9.923-40.53-23.79-55.621c-18.306-19.924-43.44-34.788-68.903-44.783q-35.465-13.932-77.667-18.617-32.374-3.596-60.358-1.336c-50.697 4.111-102.07 16.951-143.394 48.901-22.05 17.05-40.81 42.129-40.835 71.091"></path><path fill="#d9f4e8" fill-rule="evenodd" d="M1052.579 199.139c-.018 20.564-9.994 40.512-23.887 55.579-18.342 19.892-43.502 34.712-68.982 44.662q-35.49 13.87-77.7 18.48-32.38 3.54-60.36 1.23c-50.69-4.2-102.04-17.13-143.308-49.153-22.021-17.089-40.736-42.2-40.71-71.163s18.785-54.041 40.835-71.091c41.324-31.95 92.697-44.79 143.394-48.901q27.984-2.26 60.358 1.336 42.202 4.685 77.667 18.617c25.463 9.995 50.597 24.859 68.903 44.783 13.867 15.091 23.808 35.057 23.79 55.621m-410.378-.186q-.013 26.884 20.681 50.394C682.25 271.35 708.27 286.27 735.6 296.42q20.44 7.59 41.43 11.9 82.69 16.99 163.09-6.77 12.23-3.61 27.614-10.307c36.826-16.032 80.438-47.551 80.459-92.099s-43.562-76.109-80.372-92.175q-15.378-6.712-27.605-10.333-80.377-23.836-163.083-6.924-20.994 4.29-41.441 11.861c-27.34 10.124-53.374 25.02-72.763 47.004q-20.716 23.491-20.728 50.376"></path><path fill="#1a7a42" fill-rule="evenodd" d="M1048.193 199.144c-.021 44.548-43.633 76.067-80.459 92.099q-15.384 6.697-27.614 10.307-80.4 23.76-163.09 6.77-20.99-4.31-41.43-11.9c-27.33-10.15-53.35-25.07-72.718-47.073q-20.694-23.51-20.681-50.394.012-26.885 20.728-50.376c19.389-21.984 45.423-36.88 72.763-47.004q20.447-7.571 41.441-11.861 82.706-16.912 163.083 6.924 12.227 3.621 27.605 10.333c36.81 16.066 80.393 47.627 80.372 92.175M781.47 233.76q2.73 19.83 12.8 35.53 9.41 14.68 21.94 21.44 13.44 7.24 30.06 4.99c7.99-1.08 16.22-6.24 21.58-12.15 15.14-16.69 19.47-37.73 17.01-59.88q-2.29-20.71-19.7-31.08-5.35-3.19-10.87-5.39-7.94-3.17-26.54-9.56c-5.26-1.81-10.75-4.27-14.5-6.93-4.44-3.15-6.26-8.68-5.61-14.24q1.93-16.68 17.33-22.34 4.7-1.72 8.7-1.42c5.22.4 11.46 2.39 14.91 6.45q5.65 6.65 7.15 15.56.41 2.44 1.11 6.19a.734.722-5.194 0 0 .72.59h23.39a.471.461 88.806 0 0 .46-.49q-1.14-24.81-16.46-43.99c-5.74-7.18-13.93-13.59-23.02-14.82q-15.05-2.03-27.75 5.62c-9.16 5.51-17.39 15.83-22.39 25.2q-9.71 18.23-8.57 39.2c.61 11.35 6.15 23.37 16.19 29.37q7.75 4.62 13.7 7.04c9.79 3.97 23.42 6.97 33.7 12.28 6.58 3.4 13.26 10.21 13.58 17.85q.23 5.5-1.43 10.94-4.88 16.11-21.81 16.11c-18.32.01-28.44-13.74-31.32-30.4a.95.946-2.324 0 0-.86-.79l-22.83-1.61a.641.636 87.774 0 0-.67.73m119.19 53.51 21.74-4.56a2.07 2.07 1.892 0 0 1.56-1.46q7.03-24.74 10.25-50.3c.48-3.8 1.48-5.93 3.75-8.74q6.53-8.04 10.07-12.76a.877.876 45.353 0 1 1.41.01q10.38 14.33 15.84 31.76c2.4 7.67 3.33 19.29 3.64 26.26a.358.358 74.94 0 0 .52.3l27.73-14.24a2.093 2.079-17.663 0 0 1.12-2.15q-.92-6.49-2.7-14.95c-4.01-19.01-14.23-35.24-26.97-48.83a1.406 1.399 44.22 0 1-.03-1.9q7.7-8.58 11.94-13.68 3.9-4.7 10-15.24 3.32-5.73 4.82-12.11a.481.478 19.942 0 0-.25-.53l-28.41-14.05a.531.528-71.717 0 0-.75.38c-1.79 9.57-4 18.37-9.12 26.84q-5.96 9.83-16.59 22.41-2.09 2.47-4.7 4.68a.535.534 69.374 0 1-.88-.4c-.34-22.51-3.24-45.25-10.94-66.68a2.063 2.056-3.273 0 0-1.44-1.28l-21.21-5.13a.845.839 89.945 0 0-1.01 1.02c3.82 15.85 6.57 32.34 7.78 48.89q1.22 16.6 1.22 16.67.7 12.97.26 31.37c-.2 8.67-.92 16.09-1.46 24.5q-.53 8.41-1.87 18.3-2.3 17.01-5.66 35.27a.285.284-.711 0 0 .34.33M770.03 115.69q-10.13 2.5-20.76 6.08-2.65.89-4.34 1.98a2.335 2.318-9.154 0 0-.99 1.36c-5.07 18.86-9.84 39.49-10.98 57.87-.96 15.41.3 30.69 1.54 48.02.46 6.31.78 13.85-7.23 13.43-12.43-.64-19.57-11.36-22.66-22.55q-1.8-6.5-2.18-9.18a.515.504-.637 0 0-.46-.44l-23.51-2.56a.5.492-85.568 0 0-.54.47c-.99 21.62 14.94 41.09 31.96 52.61 11.29 7.64 30.25 18.56 44.12 12.13q6.85-3.17 8.16-10.25 1.55-8.37.24-17.82c-2.15-15.46-3.28-31.59-3.69-48.88q-.43-18.04 1.97-34.57 3.66-25.17 10.08-46.94a.607.606-88.875 0 0-.73-.76"></path><path fill="#fff" fill-rule="evenodd" d="M781.47 233.76a.641.636 87.774 0 1 .67-.73l22.83 1.61a.95.946-2.324 0 1 .86.79c2.88 16.66 13 30.41 31.32 30.4q16.93 0 21.81-16.11 1.66-5.44 1.43-10.94c-.32-7.64-7-14.45-13.58-17.85-10.28-5.31-23.91-8.31-33.7-12.28q-5.95-2.42-13.7-7.04c-10.04-6-15.58-18.02-16.19-29.37q-1.14-20.97 8.57-39.2c5-9.37 13.23-19.69 22.39-25.2q12.7-7.65 27.75-5.62c9.09 1.23 17.28 7.64 23.02 14.82q15.32 19.18 16.46 43.99a.471.461 88.806 0 1-.46.49h-23.39a.734.722-5.194 0 1-.72-.59q-.7-3.75-1.11-6.19-1.5-8.91-7.15-15.56c-3.45-4.06-9.69-6.05-14.91-6.45q-4-.3-8.7 1.42-15.4 5.66-17.33 22.34c-.65 5.56 1.17 11.09 5.61 14.24 3.75 2.66 9.24 5.12 14.5 6.93q18.6 6.39 26.54 9.56 5.52 2.2 10.87 5.39 17.41 10.37 19.7 31.08c2.46 22.15-1.87 43.19-17.01 59.88-5.36 5.91-13.59 11.07-21.58 12.15q-16.62 2.25-30.06-4.99-12.53-6.76-21.94-21.44-10.07-15.7-12.8-35.53M900.66 287.27a.285.284-.711 0 1-.34-.33q3.36-18.26 5.66-35.27 1.34-9.89 1.87-18.3c.54-8.41 1.26-15.83 1.46-24.5q.44-18.4-.26-31.37 0-.07-1.22-16.67c-1.21-16.55-3.96-33.04-7.78-48.89a.845.839 89.945 0 1 1.01-1.02l21.21 5.13a2.063 2.056-3.273 0 1 1.44 1.28c7.7 21.43 10.6 44.17 10.94 66.68a.535.534 69.374 0 0 .88.4q2.61-2.21 4.7-4.68 10.63-12.58 16.59-22.41c5.12-8.47 7.33-17.27 9.12-26.84a.531.528-71.717 0 1 .75-.38l28.41 14.05a.481.478 19.942 0 1 .25.53q-1.5 6.38-4.82 12.11-6.1 10.54-10 15.24-4.24 5.1-11.94 13.68a1.406 1.399 44.22 0 0 .03 1.9c12.74 13.59 22.96 29.82 26.97 48.83q1.78 8.46 2.7 14.95a2.093 2.079-17.663 0 1-1.12 2.15l-27.73 14.24a.358.358 74.94 0 1-.52-.3c-.31-6.97-1.24-18.59-3.64-26.26q-5.46-17.43-15.84-31.76a.877.876 45.353 0 0-1.41-.01q-3.54 4.72-10.07 12.76c-2.27 2.81-3.27 4.94-3.75 8.74q-3.22 25.56-10.25 50.3a2.07 2.07 1.892 0 1-1.56 1.46zM770.03 115.69a.607.606-88.875 0 1 .73.76q-6.42 21.77-10.08 46.94-2.4 16.53-1.97 34.57c.41 17.29 1.54 33.42 3.69 48.88q1.31 9.45-.24 17.82-1.31 7.08-8.16 10.25c-13.87 6.43-32.83-4.49-44.12-12.13-17.02-11.52-32.95-30.99-31.96-52.61a.5.492-85.568 0 1 .54-.47l23.51 2.56a.515.504-.637 0 1 .46.44q.38 2.68 2.18 9.18c3.09 11.19 10.23 21.91 22.66 22.55 8.01.42 7.69-7.12 7.23-13.43-1.24-17.33-2.5-32.61-1.54-48.02 1.14-18.38 5.91-39.01 10.98-57.87a2.335 2.318-9.154 0 1 .99-1.36q1.69-1.09 4.34-1.98 10.63-3.58 20.76-6.08"></path><path fill="#1a7a42" fill-rule="evenodd" d="M1097.53 222.87a.611.607-37.784 0 1 1.14.14q10.16 46.2 24.8 91.54 5.11 15.81 11.74 31.74 12.86 30.92 28.62 60.05 5.05 9.34 9.37 16.09c4.47 6.97 8.34 13.76 13.27 20.7q8.39 11.85 16.42 22.48 34.85 46.22 79.8 82.19c19.43 15.56 42.35 31.93 64.58 44.69q28.41 16.3 58.85 29.7 10.92 4.81 30.16 11.93 24.63 9.12 30.4 11.17a1.081 1.065-86.272 0 1 .7.81q6.75 32.89 8.04 65.66c1.64 41.46-1.35 82.45-6.54 123.18-2.14 16.76-5.65 45.58-9.2 66.06q-8.7 50.16-14.99 78.75-10.59 48.16-30.5 117.71-4.57 15.96-20.11 62.16-12.05 35.8-36.84 98.14-1.95 4.9-19.51 45.25-10.38 23.84-20.56 44.76-21.04 43.28-43.79 84.38-6.97 12.59-22.83 38.93-45.92 76.28-98.27 140.47-12.59 15.42-35.83 40.95c-26.98 29.64-56.04 56.74-86.7 81.49q-22.8 18.4-48.37 35.63-31.06 20.94-56.53 33.96-29.52 15.09-41.11 19.92-25.12 10.48-37.2 14.79-1.72.61-3.82-.24c-21.55-8.71-34.51-13.43-51.64-21.79q-27.02-13.2-41.2-21.14-25.19-14.12-49.15-30.85c-20.46-14.29-40.21-28.97-59.17-45.67q-33.51-29.51-53.5-50.15-24.93-25.73-56.7-64.52-2.49-3.03-9.27-11.75-7.2-9.25-9.17-11.84-26.56-35.16-43.97-61.79-3.71-5.66-28.9-45.81c-4.12-6.58-7.96-14.17-12.27-21.07q-2.94-4.72-4.97-8.38-19.61-35.32-30.51-56.09-6.98-13.28-20.2-40.56c-14.35-29.6-27.47-60.53-39.63-89.34q-2.11-4.99-10.38-25.71c-5.32-13.33-9.51-26.27-14.61-39.54q-9.32-24.24-17.61-50.43c-6.88-21.72-11.72-36.15-17.08-54.97q-10.15-35.6-17.04-63.43c-6.47-26.12-12.08-53.95-17.15-77.58-7.68-35.75-10.89-61.96-17.46-110.24q-.95-7.01-4.57-48.61-1.78-20.39-1.88-35.6-.2-28.28.1-35.68.66-16.22 2.89-34.89 2.01-16.8 5.21-34.68a1.299 1.289-3.926 0 1 .87-.99q56.17-17.94 107.26-45.7 26.33-14.32 57.65-36.84 39.55-28.45 72.9-64.84c16.53-18.04 32.26-39.36 47.87-62.99q10.1-15.28 17.82-29.65 14.66-27.29 20.32-40.08 9.84-22.27 17.99-45.74c10.8-31.08 19.2-64.48 26.22-96.78a.659.657-50.397 0 1 1.25-.12q4.74 11.3 9.68 20.56c11.9 22.3 30.11 41.93 50.56 57.08q5.73 4.25 10.46 7.17c5.69 3.51 9.48 6.2 14.45 8.81 33.31 17.52 68.85 28.27 105.07 33.67q11.12 1.66 30.12 3.13 17.21 1.33 30.26 1.43 40.69.3 80.6-7.38 16.22-3.13 37.03-9.44 13.33-4.04 20.43-7.05 28.85-12.25 46.23-23.83 21.41-14.27 37.04-31.41 10.94-11.99 21.32-29.26c4.47-7.45 8.07-16.61 11.24-22.82M600.87 281.5q-2.49 9.03-6.54 22.36-15.51 51.15-41.05 100.93-6.55 12.76-25.4 43.24-7.24 11.71-17.33 25.04-12.15 16.05-18.76 23.99-1.51 1.82-14.14 16.16-7.77 8.82-14.76 15.62-31.59 30.71-61.92 52.86-30.77 22.47-68.56 42.54c-28.24 14.99-59.27 27.05-88.97 37.77a1.859 1.848-5.939 0 0-1.2 1.47q-6.37 43.1-5.24 87.88.54 21.72 4.08 59.22 2.71 28.77 7.33 58.89 2.34 15.21 7.41 45.98 4.98 30.21 7.87 42.33 8.44 35.48 14.81 63.43c1.86 8.15 4.93 18.99 6.39 25.05q1.32 5.43 5.32 18.61 6.33 20.8 13.93 46.47 3.66 12.38 6.37 20.35c6.1 17.97 10.89 32.78 17.46 50.38q11.87 31.84 15.34 41.38 4.58 12.62 24.56 59.76 4.35 10.27 15.06 33.51 10.98 23.82 15.69 33.27 9.02 18.14 23.12 44.59 13.96 26.2 24.33 43.95c31.48 53.88 65.42 104.17 102.68 150.96q48.71 61.19 107.55 111.97 49.19 42.46 104.96 74.05c27.01 15.29 53.41 26.97 82.1 38.47a4.336 4.323-45.089 0 0 3.22-.01c20.2-8.21 40.31-16.32 58.99-26.04q26.01-13.54 47.21-26.57c23.84-14.65 44.66-30.63 67.07-48.39q12.79-10.14 23.77-20.03 35.37-31.86 67.09-67.14c8.98-10 16.72-20.07 24.68-29.56q10.77-12.83 18.17-22.45 48.99-63.62 88.94-133.27 24.08-41.99 35.09-63.62.78-1.52 12.42-24.49c7.08-13.96 13.86-28.11 17.81-37.32 6.91-16.11 13.53-29.41 19.75-44.49q16.33-39.64 18.96-46.31 11.38-28.91 23.74-64.96c5.07-14.82 11.23-32.37 16.08-48.14q14.17-46.02 26.48-93.36c4.46-17.16 8.04-35.32 12.89-56.8 7.41-32.8 12.56-65.47 17.62-99.66q6.2-41.96 9.34-95.96 1.65-28.43.36-51.22-1.5-26.38-5.44-51.04a1.767 1.763 4.733 0 0-1.18-1.39q-12.54-4.18-31.49-11.68-9.94-3.93-16-6.68c-13.65-6.2-26.93-11.53-39.33-18.22q-26.55-14.33-49.12-28.92-25.9-16.75-51.91-39.05-5.87-5.03-21.17-18.8-9.5-8.54-23.02-23.43-29.57-32.58-53.15-69.12-14.04-21.77-23.21-39.35c-20.48-39.27-36.47-82.01-48.38-125.32a.425.424-34.381 0 0-.75-.14c-7.25 9.61-15.68 19.03-25.75 27.01q-12.63 10.02-21.95 16.44-10.83 7.46-23.61 13.86-34.61 17.36-71.48 26.59c-16.57 4.15-36.31 7.22-53.1 9.28q-52.11 6.37-104.67-1.14-34.41-4.92-64.11-14.11-21.25-6.57-33.12-11.85-16.85-7.5-34.7-18.03-32.01-18.86-55.05-47.7a.276.275 33.11 0 0-.48.1"></path><path fill="#fff" fill-rule="evenodd" d="M600.87 281.5a.276.275 33.11 0 1 .48-.1q23.04 28.84 55.05 47.7 17.85 10.53 34.7 18.03 11.87 5.28 33.12 11.85 29.7 9.19 64.11 14.11 52.56 7.51 104.67 1.14c16.79-2.06 36.53-5.13 53.1-9.28q36.87-9.23 71.48-26.59 12.78-6.4 23.61-13.86 9.32-6.42 21.95-16.44c10.07-7.98 18.5-17.4 25.75-27.01a.425.424-34.381 0 1 .75.14c11.91 43.31 27.9 86.05 48.38 125.32q9.17 17.58 23.21 39.35 23.58 36.54 53.15 69.12 13.52 14.89 23.02 23.43 15.3 13.77 21.17 18.8 26.01 22.3 51.91 39.05 22.57 14.59 49.12 28.92c12.4 6.69 25.68 12.02 39.33 18.22q6.06 2.75 16 6.68 18.95 7.5 31.49 11.68a1.767 1.763 4.733 0 1 1.18 1.39q3.94 24.66 5.44 51.04 1.29 22.79-.36 51.22-3.14 54-9.34 95.96c-5.06 34.19-10.21 66.86-17.62 99.66-4.85 21.48-8.43 39.64-12.89 56.8q-12.31 47.34-26.48 93.36c-4.85 15.77-11.01 33.32-16.08 48.14q-12.36 36.05-23.74 64.96-2.63 6.67-18.96 46.31c-6.22 15.08-12.84 28.38-19.75 44.49-3.95 9.21-10.73 23.36-17.81 37.32q-11.64 22.97-12.42 24.49-11.01 21.63-35.09 63.62-39.95 69.65-88.94 133.27-7.4 9.62-18.17 22.45c-7.96 9.49-15.7 19.56-24.68 29.56q-31.72 35.28-67.09 67.14-10.98 9.89-23.77 20.03c-22.41 17.76-43.23 33.74-67.07 48.39q-21.2 13.03-47.21 26.57c-18.68 9.72-38.79 17.83-58.99 26.04a4.336 4.323-45.089 0 1-3.22.01c-28.69-11.5-55.09-23.18-82.1-38.47q-55.77-31.59-104.96-74.05-58.84-50.78-107.55-111.97c-37.26-46.79-71.2-97.08-102.68-150.96q-10.37-17.75-24.33-43.95-14.1-26.45-23.12-44.59-4.71-9.45-15.69-33.27-10.71-23.24-15.06-33.51-19.98-47.14-24.56-59.76-3.47-9.54-15.34-41.38c-6.57-17.6-11.36-32.41-17.46-50.38q-2.71-7.97-6.37-20.35-7.6-25.67-13.93-46.47-4-13.18-5.32-18.61c-1.46-6.06-4.53-16.9-6.39-25.05q-6.37-27.95-14.81-63.43-2.89-12.12-7.87-42.33-5.07-30.77-7.41-45.98-4.62-30.12-7.33-58.89-3.54-37.5-4.08-59.22-1.13-44.78 5.24-87.88a1.859 1.848-5.939 0 1 1.2-1.47c29.7-10.72 60.73-22.78 88.97-37.77q37.79-20.07 68.56-42.54 30.33-22.15 61.92-52.86 6.99-6.8 14.76-15.62 12.63-14.34 14.14-16.16 6.61-7.94 18.76-23.99 10.09-13.33 17.33-25.04 18.85-30.48 25.4-43.24 25.54-49.78 41.05-100.93 4.05-13.33 6.54-22.36m486.87 18.22a1.116 1.114-27.189 0 0-1.78-.57q-6.04 4.88-14.69 12.6-17.19 15.32-36.48 26.53-16.37 9.52-33.08 17.18-7.64 3.5-15.94 6.33-42.22 14.4-86.99 20.34c-12.22 1.62-27.25 2.49-40.28 3.1-28.56 1.35-56.94-1.38-85.22-6.03q-20.39-3.36-38.9-8.37-31.86-8.62-63.33-24.11-36.61-18.03-65.8-47.59a1.232 1.228 27.378 0 0-2.09.66l-.34 2.05a3.302 3.297 29.128 0 0 .77 2.7q14.67 16.81 24.7 28.26 11.54 13.18 19.01 23.21 14.76 19.81 17.86 24.11 21.2 29.35 39.79 61.45 16.11 27.82 26.65 49.08 8.39 16.91 22.95 50.07 5.6 12.76 11.83 29.84c9.85 27 19.22 53.18 24.93 74.58q.67 2.49 6.65 25.85c3.97 15.49 8.13 33.06 11.34 49.41 2.29 11.69 5.78 26.29 7.89 39.54 3.19 20.08 5.06 32.6 6.17 49.92a.933.913-1.628 0 0 .93.86h41.34a1.357 1.352 2.799 0 0 1.35-1.22q3.23-33.68 9.05-64.48 7.28-38.51 15.64-71.46c3.36-13.24 6.41-26.24 10.55-39.61 9.63-31.15 20.45-62.45 33.42-92.87 8.61-20.19 18.07-41.45 28.52-61.17q16.47-31.1 35.04-60.85c16.16-25.91 33.12-48.92 52.06-72.55q13.9-17.34 31.58-36.16.54-.58 3.33-3.86c1.99-2.34 2.29-4.1 1.57-6.77m-24.32 503.39q26.12-1.23 56.33-3.97c19.63-1.79 46.23-3.57 69.04-6.22 1.95-.22 3.6-.28 3.92-2.08 4.04-22.89 11.06-44.64 18.68-67 5.76-16.91 13.27-36.22 21.84-53.84q8.86-18.23 9.34-19.19 4.85-9.89 15.85-28.4 4.31-7.24 21.38-32.87.95-1.43 1.25-2.92a.73.714 25.531 0 0-.26-.71q-26.33-20.51-40.42-33.11-2.66-2.38-21.47-20.84c-6.8-6.67-13.07-13.83-18.35-20.08a.802.792-42.708 0 0-1.18-.04q-7.29 7.5-12.52 13.74-11.29 13.47-26.69 35.07-21.59 30.28-39.94 67.23-2.88 5.81-6.23 12.52c-5.6 11.22-9.19 20.83-14.64 34.12-6.11 14.9-9.82 26.36-14.82 40.74-5.58 16.01-9.87 32.51-14.05 49.44q-4.56 18.49-7.56 37.85a.487.482-87.059 0 0 .5.56M490.51 511.76c-5.5 5.28-11.84 12.77-18.67 19.71-14.6 14.84-29.1 28.36-45.21 40.77q-13.6 10.47-16.78 12.88a1.83 1.828 53.288 0 0-.37 2.55q10.81 14.76 20.43 30.9c16.51 27.69 31.45 57.46 42.81 88.07q10.29 27.7 17.11 51.25c1.72 5.94 3.41 12.3 4.65 18.88q1.7 9.04 3.56 15.57a1.514 1.509 86.904 0 0 1.2 1.08q2.61.45 6.81.9 18.51 1.98 58.3 5.41c20.45 1.76 38.62 2.55 61.95 4.29a1.176 1.172 86.621 0 0 1.24-1.4q-3.68-19.05-8.96-41.27-12.58-52.91-34.22-103.39-8.14-19-16.18-34.31-11.86-22.56-18.34-33.25-24.87-40.99-58.54-78.61a.55.55 47.148 0 0-.79-.03M368.74 777.54q-1.44-5-3.4-9.87-6.94-17.21-14-29.64-3.45-6.08-7.17-12.88-13.53-24.75-35.27-50.8-8.35-10.01-18.33-19.37a3.217 3.208-33.876 0 0-3.33-.65l-36.17 13.76a.74.738-5.601 0 0-.47.57q-7.5 42.62-5.37 85.9a1.655 1.64-82.922 0 0 1.15 1.49q1.06.33 2.62.7 18.76 4.43 46.29 9.38 39.51 7.1 72.95 11.98a.452.452-3.779 0 0 .5-.57m953.89-1.39q8.91-1.47 66.31-11.12c17.25-2.91 36.12-6.91 49.62-9.71q3.24-.67 5.69-1.71a1.56 1.56-10.546 0 0 .94-1.37q1.45-40.68-5.05-80.81-.45-2.8-3.01-3.79-17.4-6.69-33.37-13.18a2.85 2.847-55.175 0 0-3 .54c-15.85 14.5-29.75 31.76-42.15 50.11q-22.26 32.94-36.56 70.33a.531.528-84.433 0 0 .58.71m70.954 17.99a1.2 1.2 4.305 0 0-.954 1.175v84.226a1.2 1.2 77.901 0 0 1.447 1.175l12.91-2.716a1.2 1.2 84.28 0 0 .953-1.174v-84.218a1.2 1.2 66.934 0 0-1.446-1.175zm-77.93-.517a9.39 7.67-66.9 0 0-10.739 5.628 9.39 7.67-66.9 0 0 3.371 11.646 9.39 7.67-66.9 0 0 10.739-5.628 9.39 7.67-66.9 0 0-3.371-11.646m-1012.857 1.409a9.85 8.07-109.1 0 0-4.403 11.949 9.85 8.07-109.1 0 0 10.849 6.667 9.85 8.07-109.1 0 0 4.403-11.949 9.85 8.07-109.1 0 0-10.849-6.667M1190.84 898.34v-41.62a.81.809-4.283 0 0-.93-.8l-13.94 2.17a.359.354-4.797 0 0-.3.35v41.38a.431.425-4.797 0 1-.36.42l-17.48 2.72a1.456 1.456-4.594 0 1-1.68-1.43q-.14-17.84-.28-34.17-.07-8.41-8.14-9.03c-9.06-.69-22.95 1.3-30.03 7.38-8.72 7.5-10.8 15.83-11.04 27.92q-.21 11.2.13 17.13c.54 9.54 7.74 12.82 16.63 13.15q7.2.27 11.3-.35a.901.9 85.517 0 0 .76-.89v-15.7a.747.744-2.799 0 0-.82-.74c-3.82.34-7.07.26-10.51-.51q-1.65-.37-1.81-2.42-.63-7.9-.21-16.91c.39-8.5 11.63-10.19 18.1-9.24a.823.819-86.669 0 1 .7.79q.45 14.62.11 31.02c-.14 6.72 2.79 13.4 10.7 12.43q55.96-6.89 73-9.2 15.69-2.12 78.02-12.38 7.21-1.18 13.5-4.96a.969.961-42.106 0 1 1.08.05c2.32 1.74 9.31.28 12.03-.27q16.09-3.28 33.01-6.34 7.88-1.43 9.39-2.15c4.72-2.25 7.95-7.96 7.97-13.14q.1-43.48.31-75.1a.776.768 83.988 0 0-.93-.76l-14.19 2.98a.746.744-5.673 0 0-.6.73v68.14a1.237 1.225 84.29 0 1-.98 1.21l-16.8 3.53a.797.797-5.888 0 1-.96-.78V832.2a.849.848-5.825 0 0-1.02-.83l-13.74 2.88a.264.256-7.235 0 0-.2.25v41.05a1.255 1.246 85.74 0 1-1.06 1.24l-8.64 1.35a.861.86-4.313 0 1-.99-.85V837.5a.86.854 85.443 0 0-.99-.85l-13.05 2.03a1.011 1-4.347 0 0-.86.99v40.36a.952.933 84.457 0 1-.75.93l-8.56 1.8a1.02 1.009 84.046 0 1-1.22-1V841.6a.797.789-5.949 0 0-.96-.77l-13.6 2.85a.718.715-5.97 0 0-.57.7v39.78a1.57 1.566 85.492 0 1-1.32 1.55l-16.36 2.55a.556.554 85.575 0 1-.64-.55v-41.06a.719.71-4.505 0 0-.83-.7l-13.37 2.08a.967.966 86.765 0 0-.82.92q-.54 17.36.04 37.55.07 2.55-.35 3.86a.835.834 4.661 0 1-.66.56l-18.37 2.85a.925.922-4.528 0 1-1.07-.91v-41.1a.719.71-4.505 0 0-.83-.7l-13.17 2.05a.939.929-4.313 0 0-.8.92q-.13 14.95-.27 38.47-.01 1.9-.48 3.13a.672.669-83.794 0 1-.52.42l-18.1 2.82a.542.536-4.173 0 1-.62-.53m-871.12-99.89a9.94 7.84-112.1 0 0-3.524 12.16 9.94 7.84-112.1 0 0 11.004 6.26 9.94 7.84-112.1 0 0 3.524-12.16 9.94 7.84-112.1 0 0-11.004-6.26m1005.747 11.185a9.87 8-67 0 0-11.221 5.959 9.87 8-67 0 0 3.508 12.211 9.87 8-67 0 0 11.22-5.959 9.87 8-67 0 0-3.507-12.211m-929.492 3.466a9.78 8.02-109.5 0 0-4.295 11.896 9.78 8.02-109.5 0 0 10.825 6.542 9.78 8.02-109.5 0 0 4.295-11.896 9.78 8.02-109.5 0 0-10.825-6.542m910.812.147a9.67 8.04-68.1 0 0-11.067 5.973 9.67 8.04-68.1 0 0 3.853 11.971 9.67 8.04-68.1 0 0 11.067-5.973 9.67 8.04-68.1 0 0-3.853-11.971m-882.215 5.565a1.42 1.42-4.704 0 0-1.652 1.401v84.832a1.42 1.42 4.409 0 0 1.188 1.401l12.21 2.02a1.42 1.42-11.888 0 0 1.652-1.401v-84.832a1.42 1.42 9.954 0 0-1.188-1.401zM315.85 887.07v-15.34a1.277 1.254-81.24 0 0-.87-1.21c-3.66-1.19-10.21-2.81-11.97-5.46a2.049 2.016-62.968 0 1-.35-1.11q-.15-6.41-.16-12.22c-.02-7.05 3.2-11.57 10.72-10.19q3.64.66 6.69 1.75a1.689 1.688-80.179 0 1 1.12 1.59q.04 10.52.26 27.74.11 8.87 1.96 12.07 2.94 5.11 10.15 6.45 36.85 6.9 65.14 11.8 11.41 1.98 11.6-9.45.42-24.77.15-48.88a1.758 1.757-85.692 0 0-1.47-1.71l-12.98-2.14a.731.73 4.684 0 0-.85.72v42.13a.38.376 4.577 0 1-.44.37l-21.7-3.58a1.602 1.599-85.345 0 1-1.34-1.58q.01-21.3-.26-37.65c-.04-2.55.43-4-2.37-4.3q-5.35-.59-11.86-1.58a.737.736-85.942 0 0-.84.73v40.64a.788.783 6.717 0 1-.97.76l-18.08-4.37a.94.94 6.03 0 1-.72-.89q-.15-6.95.16-29.65c.11-7.86-1.08-13.66-9.12-15.96q-6.79-1.95-15.69-3.35c-6.06-.96-12.06.21-16.73 4.61q-7.42 6.99-8.03 17.71-.45 7.7-.29 19.75c.13 10.15 5.41 15.71 14.97 19.05q6.6 2.31 13.47 3.35a.607.606-85.544 0 0 .7-.6m829.084-55.653a9.64 8.11-75.5 0 0-10.266 7.302 9.64 8.11-75.5 0 0 5.438 11.364 9.64 8.11-75.5 0 0 10.266-7.302 9.64 8.11-75.5 0 0-5.438-11.364m-18.515 1.671a9.62 8.09-81.4 0 0-9.438 8.302 9.62 8.09-81.4 0 0 6.561 10.722 9.62 8.09-81.4 0 0 9.437-8.302 9.62 8.09-81.4 0 0-6.56-10.722m-522.465 4.465a9.73 8.04-99.5 0 0-6.324 10.924 9.73 8.04-99.5 0 0 9.536 8.27 9.73 8.04-99.5 0 0 6.324-10.924 9.73 8.04-99.5 0 0-9.536-8.27m17.527 1.47a9.69 8.11-99.5 0 0-6.4 10.896 9.69 8.11-99.5 0 0 9.598 8.218 9.69 8.11-99.5 0 0 6.4-10.896 9.69 8.11-99.5 0 0-9.598-8.218m448.764 88.837a1.08 1.08-79.624 0 0 1.005-1.078v-85.655a1.08 1.08-27.05 0 0-1.154-1.078l-13.25.912a1.08 1.08-1.48 0 0-1.006 1.077v85.664a1.08 1.08 78.547 0 0 1.155 1.078zM993.4 879.6a.524.522 84.708 0 0-.48.58q1.24 11.33 1.48 22.78c.28 13.76.11 23.33-3.98 34.69q-3.74 10.42-14.18 12.85c-.65.15-1.76.15-2.77.38a.556.541-6.721 0 0-.43.53v16.49a.78.77 89.284 0 0 .79.78q7.51-.1 14.04-3.33c13.61-6.73 16.57-19.08 20.17-32.26a.773.76 6.989 0 1 .73-.56q10.69-.16 23-1.22c8.75-.76 11.48-8 11.43-15.63q-.27-39.43-.25-72.45a1.433 1.428 87.952 0 0-1.53-1.43l-12.84.89a1.095 1.092-1.968 0 0-1.02 1.09v68.48a.772.764 88.009 0 1-.71.77l-16.21 1.12a.724.723-1.09 0 1-.77-.74q.36-17.91-2.35-34.14a.705.702-6.283 0 0-.74-.59zm-402.86 28.83a.279.276-3.99 0 1-.29.33l-17.57-1.24a1.204 1.196-87.952 0 1-1.11-1.2v-40.18a1.507 1.504 2.048 0 0-1.4-1.5l-12.86-.91a.763.762 1.77 0 0-.81.76v40.75a.678.674 3.062 0 1-.75.67l-16.54-1.8a.422.421 4.292 0 1-.38-.44c.38-11.16.39-22.22-1.92-33.08q-.62-2.94-3.85-3.06-4.87-.17-10.14-.23a.511.502-1.033 0 0-.52.53q.24 4.36.9 15.42.49 8.27-.18 21.53c-.71 14.11-3.61 30.64-21.45 30.67a.32.31-90 0 0-.31.32v16.88a.532.525 4.474 0 0 .45.52q13.11 1.98 21.69-5.44c6.71-5.8 11.11-16.72 12.8-25.56a.567.562 9.189 0 1 .63-.45q23.1 3.06 44.66 4.96 17.9 1.57 40.2 3.5 8.49.73 15.45 1.02 12.74.53 15.53.84 8.69.96 11.77-.44c7.49-3.4 6.39-13.47 6.4-20.35q.07-45.19-.4-65.55a2.076 2.071 1.382 0 0-1.92-2.01l-12.4-.87a.784.782 2.048 0 0-.84.78v69.06a.975.972 1.93 0 1-1.04.97l-15.88-1.12a.662.653-88.151 0 1-.61-.66q-.05-15.21-.16-30.85-.04-5.75-4.03-10.97a3.626 3.575-.403 0 0-.72-.7c-6.27-4.41-18.96-4.42-26.2-3.3-13.87 2.14-19.18 19.47-18.39 31.37.26 4.03 1.37 7.25 2.19 11.03m93.69-63.77a.96.96 45 0 0-.96.96v86.97a.96.96-45 0 0 .96.96h13.45a.96.96 45 0 0 .96-.96v-86.97a.96.96-15.239 0 0-.96-.96zm68.052.459a9.68 8.15-93.6 0 0-7.526 10.173 9.68 8.15-93.6 0 0 8.742 9.149 9.68 8.15-93.6 0 0 7.526-10.173 9.68 8.15-93.6 0 0-8.742-9.149m17.914.612a9.49 8.17-92.8 0 0-7.696 9.878 9.49 8.17-92.8 0 0 8.624 9.08 9.49 8.17-92.8 0 0 7.696-9.878 9.49 8.17-92.8 0 0-8.624-9.08m97.154.452a9.55 8.54-93 0 0-8.028 9.984 9.55 8.54-93 0 0 9.028 9.09 9.55 8.54-93 0 0 8.028-9.984 9.55 8.54-93 0 0-9.028-9.09m101.58 27.467h-13.45a.84.84-45 0 0-.84.84v41.11a1.531 1.52-.774 0 1-1.49 1.52l-28.41.67a1.12 1.12-.747 0 1-1.15-1.12v-68.48a.731.73-.764 0 0-.75-.73l-13.46.32a.86.86-1.011 0 0-.84.87q.18 31.8.02 76.34c-.04 9.87 6.55 11.43 15.26 11.13q18.11-.62 33.3-1.25c6.37-.27 12.68-3.06 12.61-10.36q-.24-22.42-.14-50.2a.66.65.428 0 0-.66-.66m-486.97 42.9q-4.14 14.69-20.42 13.85a.231.221.048 0 0-.24.23l.36 15.36a1.4 1.391 5.627 0 0 1.09 1.32q17.74 3.86 27.52-10.79 3.73-5.59 5.01-10.96c3.26-13.66 3.79-25.13 4.07-41.78.09-5.36.23-12.69-.71-18.47-.83-5.13-3.4-10.19-8.59-11.7q-5.04-1.48-17.25-2.35c-17.73-1.26-24.56 16.97-23.8 31.47 1.1 20.92 9.79 34.18 32.36 33.08a.591.583 6.355 0 1 .6.74m369.43-34a.312.308 71.677 0 1-.49-.25l-.15-6.42a1.421 1.41 89.163 0 0-1.41-1.38h-12.49a.5.5 45 0 0-.5.5v43.34a.83.83 29.818 0 1-.83.83h-15.98a1.07 1.07-45 0 1-1.07-1.07v-41.29a.86.86-8.176 0 0-.86-.86h-13.83a.48.47 90 0 0-.47.48v41.5a.85.85 45 0 1-.85.85h-17.95a.85.84 0 0 1-.85-.84q.09-17.95-.07-34.47-.08-8.95-8.83-10.21c-12.04-1.73-26.79-2.47-34.44 8.33q-5.45 7.7-6.28 17.68-.62 7.38-.04 22.74c.49 13.19 18.66 14.58 28.1 14.78a.76.75.377 0 0 .77-.75q.01-6.43.17-13.04.03-1.06-.41-3.31a1.255 1.247-3.291 0 0-1.14-1.01q-4.61-.3-9.15-1-2.33-.35-2.58-1.98-.88-5.74-.27-15.3c.39-5.9 5.38-10.34 11.38-10.38q4.52-.03 6.75.32a.975.974 4.211 0 1 .82.95q.03 2.51.18 28.27.06 9.42 1.7 12.16 3.07 5.09 10.94 5.1c22.75.02 46.73.83 70.16.44q10.8-.19 31.33-.02 3.14.03 6.17-.41c5.45-.8 8.83-5.62 9.14-10.58q.8-12.73.04-35.28c-.27-7.98-1.16-12.75-7.58-16.51q-2.74-1.61-10.82-1.44c-9.97.2-19.48-.4-26.01 7.07q-1.89 2.15-2.3 2.46m-500.352 22.698a9.53 7.75-110.4 0 0-3.942 11.633 9.53 7.75-110.4 0 0 10.586 6.231 9.53 7.75-110.4 0 0 3.942-11.633 9.53 7.75-110.4 0 0-10.586-6.231m17.03 2.846a9.91 7.72-112.5 0 0-3.34 12.11 9.91 7.72-112.5 0 0 10.924 6.202 9.91 7.72-112.5 0 0 3.34-12.11 9.91 7.72-112.5 0 0-10.924-6.202m889.94 10.227a9.73 8.15-66 0 0-11.403 5.574 9.73 8.15-66 0 0 3.487 12.204 9.73 8.15-66 0 0 11.403-5.574 9.73 8.15-66 0 0-3.487-12.204m-29.486 3.965a9.49 8.09-75.4 0 0-10.221 7.145 9.49 8.09-75.4 0 0 5.437 11.223 9.49 8.09-75.4 0 0 10.221-7.145 9.49 8.09-75.4 0 0-5.437-11.223m-17.576 2.633a9.66 7.81-75.7 0 0-9.954 7.432 9.66 7.81-75.7 0 0 5.182 11.29 9.66 7.81-75.7 0 0 9.954-7.432 9.66 7.81-75.7 0 0-5.182-11.29m-24.252 3.354a9.52 7.93-69.5 0 0-10.762 6.14 9.52 7.93-69.5 0 0 4.094 11.694 9.52 7.93-69.5 0 0 10.762-6.14 9.52 7.93-69.5 0 0-4.094-11.694m-634.249 5.494a9.48 7.98-101.1 0 0-6.006 10.839 9.48 7.98-101.1 0 0 9.656 7.767 9.48 7.98-101.1 0 0 6.006-10.839 9.48 7.98-101.1 0 0-9.656-7.767m17.154 1.818a9.62 8.34-104.7 0 0-5.626 11.421 9.62 8.34-104.7 0 0 10.508 7.189 9.62 8.34-104.7 0 0 5.626-11.421 9.62 8.34-104.7 0 0-10.508-7.189m387.769 9.906a9.63 8.36-89 0 0-8.527 9.483 9.63 8.36-89 0 0 8.191 9.775 9.63 8.36-89 0 0 8.527-9.483 9.63 8.36-89 0 0-8.191-9.775m462.662.579a.27.266 87.775 0 0-.32-.3q-35.31 7.28-36.5 7.55c-29.17 6.6-45.71 8.59-83.78 15.01a1.232 1.229-7.16 0 0-1.02 1.31c2.78 34.37 10.15 69.57 23.24 101.56q7.15 17.5 9.93 23.8 4.8 10.87 14.67 27.77 8.11 13.87 17.99 25.99a.442.44 35.178 0 0 .76-.13q7.8-22.66 15.29-46.53 11.68-37.22 23.5-84.18 3.5-13.9 4.76-18.77 4.16-16.03 9.57-42.24 1.12-5.43 1.91-10.84m-480.234.246a9.4 8.09-92.1 0 0-7.741 9.69 9.4 8.09-92.1 0 0 8.429 9.098 9.4 8.09-92.1 0 0 7.741-9.69 9.4 8.09-92.1 0 0-8.429-9.098m-138.467 1.222a9.51 8.12-93.5 0 0-7.524 9.988 9.51 8.12-93.5 0 0 8.686 8.996 9.51 8.12-93.5 0 0 7.524-9.988 9.51 8.12-93.5 0 0-8.686-8.996m17.907.018a9.65 8.08-92.1 0 0-7.721 9.94 9.65 8.08-92.1 0 0 8.429 9.348 9.65 8.08-92.1 0 0 7.721-9.94 9.65 8.08-92.1 0 0-8.429-9.348M325.9 1148.91c8.35-11.4 13.04-17.69 18.75-27.43q11.28-19.25 19.69-39.6c6.1-14.79 9.47-23.15 13.73-37.53 7.47-25.17 12.2-49.11 13.81-73.43a.629.623 6.518 0 0-.53-.66c-22.4-3.4-52.58-8.09-78.44-13.21q-37.19-7.36-41.19-8.14a.576.574-88.596 0 0-.68.65q.71 4.82 2.22 12.45c5.11 25.97 12.12 52.68 20.05 82.97q7.5 28.64 17.58 60.45c6.36 20.09 9.62 31.51 14.21 43.38a.46.456-37.589 0 0 .8.1m731.92-153.66c2.63 32.14 7.16 64.49 15.26 96.22q9.31 36.42 21.52 70.21 4.59 12.69 10.14 25.1 9.47 21.16 18.33 38.66c7.65 15.09 15.6 27.79 25.14 43.12q5.85 9.39 13.34 19.75 29.35 40.56 63.64 72.25 11.53 10.65 32.98 27.99 1.31 1.06 2.04 1.03.75-.04 1.56-1.56c15.88-30.02 31.36-60.97 45.52-92.5q.99-2.2.76-3.28a1.747 1.727-71.236 0 0-.34-.7c-9.54-11.5-17-20.05-25.09-31.1q-43.41-59.29-69.15-129.86-11.88-32.56-20.55-71.77-3.71-16.79-7.69-38.83c-2.04-11.28-2.89-22.01-4.49-36.15a.748.746-7.497 0 0-.85-.65c-39.76 5.54-80.69 8.69-121.81 11.76a.291.281 85.987 0 0-.26.31m-425.91.94q-37.49-2.49-79.92-6.35-11-1-20.8-2.19-14-1.69-20.89-2.06a.642.634 4.245 0 0-.67.57c-2.43 24.67-5.9 42.83-11.87 72.23-4.95 24.38-11.02 45.39-18.02 65.39q-5.08 14.5-12.84 33.23c-15.13 36.52-35.13 71.14-58.38 103.06-8.39 11.53-17.13 21.37-26 32.19a1.672 1.668-36.224 0 0-.26 1.67q3.39 8.44 7.54 17.28 11.36 24.14 21.43 44.71c5.68 11.6 11.59 22.37 16.83 32.02q.69 1.26 1.31 1.91a1.024 1.023 49.163 0 0 1.37.1c39.28-30.35 74.41-66.41 102.22-107.22q11.18-16.42 17.89-27.61 12.52-20.9 25.46-47.26 10.15-20.68 19.32-45.8 9.33-25.54 15.7-47.16c11.28-38.29 18.09-78.02 21.5-117.64a.992.984 4.549 0 0-.92-1.07m195.07 7.72a.3.3-87.952 0 0-.3.28q-2.2 23.04-4.41 44.56c-3.27 31.69-8.48 59.3-15.81 94.45q-2.48 11.89-5.93 25.4l-6.45 25.26q-4.6 17.69-13.42 44.77c-5.73 17.56-12.9 36.41-18.13 49.92q-14.95 38.63-35.04 77.25-17.86 34.3-42.75 72.22-44.75 68.16-101.24 123.25-14.2 13.85-25.93 23.66a.995.993-38.756 0 0-.15 1.36q7.54 9.9 17.11 20.94c26.45 30.5 53.95 58.66 85.43 86.05q51.01 44.38 109.6 76.9c12.44 6.9 28.97 14.87 39.59 19.91q15.56 7.38 33.8 14.23a6.157 6.147-44.685 0 0 4.27.02q17.75-6.44 34.56-14.58 18.49-8.97 18.73-9.08c20.23-9.73 39.61-21.25 58.4-33.78q28.67-19.13 37.79-26.22 42.75-33.24 83.37-74.71 12.78-13.04 25.77-27.98 20.45-23.53 24.66-29 .9-1.17 2.34-3.44a1.029 1.009 36.52 0 0-.21-1.32q-13.86-11.73-28.73-26.39c-32.79-32.3-62.94-68.04-88.8-105.8-26.61-38.86-50.13-79.67-69.76-122.82q-16.23-35.67-30.75-76.74c-4.08-11.55-7.01-22.39-10.92-34.03q-3.43-10.23-7.57-25.83c-7.98-30.04-12.92-49.6-17.39-74.31q-7.51-41.49-11.86-84.58-1.75-17.39-2.63-29.29a.571.562-1.592 0 0-.57-.53z"></path><path fill="#1a7a42" fill-rule="evenodd" d="M1087.74 299.72c.72 2.67.42 4.43-1.57 6.77q-2.79 3.28-3.33 3.86-17.68 18.82-31.58 36.16c-18.94 23.63-35.9 46.64-52.06 72.55q-18.57 29.75-35.04 60.85c-10.45 19.72-19.91 40.98-28.52 61.17-12.97 30.42-23.79 61.72-33.42 92.87-4.14 13.37-7.19 26.37-10.55 39.61q-8.36 32.95-15.64 71.46-5.82 30.8-9.05 64.48a1.357 1.352 2.799 0 1-1.35 1.22h-41.34a.933.913-1.628 0 1-.93-.86c-1.11-17.32-2.98-29.84-6.17-49.92-2.11-13.25-5.6-27.85-7.89-39.54-3.21-16.35-7.37-33.92-11.34-49.41q-5.98-23.36-6.65-25.85c-5.71-21.4-15.08-47.58-24.93-74.58q-6.23-17.08-11.83-29.84-14.56-33.16-22.95-50.07-10.54-21.26-26.65-49.08-18.59-32.1-39.79-61.45-3.1-4.3-17.86-24.11-7.47-10.03-19.01-23.21-10.03-11.45-24.7-28.26a3.302 3.297 29.128 0 1-.77-2.7l.34-2.05a1.232 1.228 27.378 0 1 2.09-.66q29.19 29.56 65.8 47.59 31.47 15.49 63.33 24.11 18.51 5.01 38.9 8.37c28.28 4.65 56.66 7.38 85.22 6.03 13.03-.61 28.06-1.48 40.28-3.1q44.77-5.94 86.99-20.34 8.3-2.83 15.94-6.33 16.71-7.66 33.08-17.18 19.29-11.21 36.48-26.53 8.65-7.72 14.69-12.6a1.116 1.114-27.189 0 1 1.78.57M1063.42 803.11a.487.482-87.059 0 1-.5-.56q3-19.36 7.56-37.85c4.18-16.93 8.47-33.43 14.05-49.44 5-14.38 8.71-25.84 14.82-40.74 5.45-13.29 9.04-22.9 14.64-34.12q3.35-6.71 6.23-12.52 18.35-36.95 39.94-67.23 15.4-21.6 26.69-35.07 5.23-6.24 12.52-13.74a.802.792-42.708 0 1 1.18.04c5.28 6.25 11.55 13.41 18.35 20.08q18.81 18.46 21.47 20.84 14.09 12.6 40.42 33.11a.73.714 25.531 0 1 .26.71q-.3 1.49-1.25 2.92-17.07 25.63-21.38 32.87-11 18.51-15.85 28.4-.48.96-9.34 19.19c-8.57 17.62-16.08 36.93-21.84 53.84-7.62 22.36-14.64 44.11-18.68 67-.32 1.8-1.97 1.86-3.92 2.08-22.81 2.65-49.41 4.43-69.04 6.22q-30.21 2.74-56.33 3.97M490.51 511.76a.55.55 47.148 0 1 .79.03q33.67 37.62 58.54 78.61 6.48 10.69 18.34 33.25 8.04 15.31 16.18 34.31 21.64 50.48 34.22 103.39 5.28 22.22 8.96 41.27a1.176 1.172 86.621 0 1-1.24 1.4c-23.33-1.74-41.5-2.53-61.95-4.29q-39.79-3.43-58.3-5.41-4.2-.45-6.81-.9a1.514 1.509 86.904 0 1-1.2-1.08q-1.86-6.53-3.56-15.57c-1.24-6.58-2.93-12.94-4.65-18.88q-6.82-23.55-17.11-51.25c-11.36-30.61-26.3-60.38-42.81-88.07q-9.62-16.14-20.43-30.9a1.83 1.828 53.288 0 1 .37-2.55q3.18-2.41 16.78-12.88c16.11-12.41 30.61-25.93 45.21-40.77 6.83-6.94 13.17-14.43 18.67-19.71M368.74 777.54a.452.452-3.779 0 1-.5.57q-33.44-4.88-72.95-11.98-27.53-4.95-46.29-9.38-1.56-.37-2.62-.7a1.655 1.64-82.922 0 1-1.15-1.49q-2.13-43.28 5.37-85.9a.74.738-5.601 0 1 .47-.57l36.17-13.76a3.217 3.208-33.876 0 1 3.33.65q9.98 9.36 18.33 19.37 21.74 26.05 35.27 50.8 3.72 6.8 7.17 12.88 7.06 12.43 14 29.64 1.96 4.87 3.4 9.87M1322.63 776.15a.531.528-84.433 0 1-.58-.71q14.3-37.39 36.56-70.33c12.4-18.35 26.3-35.61 42.15-50.11a2.85 2.847-55.175 0 1 3-.54q15.97 6.49 33.37 13.18 2.56.99 3.01 3.79 6.5 40.13 5.05 80.81a1.56 1.56-10.546 0 1-.94 1.37q-2.45 1.04-5.69 1.71c-13.5 2.8-32.37 6.8-49.62 9.71q-57.4 9.65-66.31 11.12M1393.584 794.14l12.91-2.707a1.2 1.2-61.058 0 1 1.446 1.175v84.218a1.2 1.2-65.03 0 1-.953 1.174l-12.91 2.716a1.2 1.2-68.687 0 1-1.447-1.175v-84.226a1.2 1.2 25.048 0 1 .954-1.175M1315.654 793.623a9.39 7.67-66.9 0 1 3.371 11.646 9.39 7.67-66.9 0 1-10.739 5.628 9.39 7.67-66.9 0 1-3.371-11.646 9.39 7.67-66.9 0 1 10.739-5.628M302.797 795.032a9.85 8.07-109.1 0 1 10.849 6.667 9.85 8.07-109.1 0 1-4.403 11.949 9.85 8.07-109.1 0 1-10.849-6.667 9.85 8.07-109.1 0 1 4.403-11.949M1190.84 898.34a.542.536-4.173 0 0 .62.53l18.1-2.82a.672.669-83.794 0 0 .52-.42q.47-1.23.48-3.13.14-23.52.27-38.47a.939.929-4.313 0 1 .8-.92l13.17-2.05a.719.71-4.505 0 1 .83.7v41.1a.925.922-4.528 0 0 1.07.91l18.37-2.85a.835.834 4.661 0 0 .66-.56q.42-1.31.35-3.86-.58-20.19-.04-37.55a.967.966 86.765 0 1 .82-.92l13.37-2.08a.719.71-4.505 0 1 .83.7v41.06a.556.554 85.575 0 0 .64.55l16.36-2.55a1.57 1.566 85.492 0 0 1.32-1.55v-39.78a.718.715-5.97 0 1 .57-.7l13.6-2.85a.797.789-5.949 0 1 .96.77v40.16a1.02 1.009 84.046 0 0 1.22 1l8.56-1.8a.952.933 84.457 0 0 .75-.93v-40.36a1.011 1-4.347 0 1 .86-.99l13.05-2.03a.86.854 85.443 0 1 .99.85v39.79a.861.86-4.313 0 0 .99.85l8.64-1.35a1.255 1.246 85.74 0 0 1.06-1.24V834.5a.264.256-7.235 0 1 .2-.25l13.74-2.88a.849.848-5.825 0 1 1.02.83v40.75a.797.797-5.888 0 0 .96.78l16.8-3.53a1.237 1.225 84.29 0 0 .98-1.21v-68.14a.746.744-5.673 0 1 .6-.73l14.19-2.98a.776.768 83.988 0 1 .93.76q-.21 31.62-.31 75.1c-.02 5.18-3.25 10.89-7.97 13.14q-1.51.72-9.39 2.15-16.92 3.06-33.01 6.34c-2.72.55-9.71 2.01-12.03.27a.969.961-42.106 0 0-1.08-.05q-6.29 3.78-13.5 4.96-62.33 10.26-78.02 12.38-17.04 2.31-73 9.2c-7.91.97-10.84-5.71-10.7-12.43q.34-16.4-.11-31.02a.823.819-86.669 0 0-.7-.79c-6.47-.95-17.71.74-18.1 9.24q-.42 9.01.21 16.91.16 2.05 1.81 2.42c3.44.77 6.69.85 10.51.51a.747.744-2.799 0 1 .82.74v15.7a.901.9 85.517 0 1-.76.89q-4.1.62-11.3.35c-8.89-.33-16.09-3.61-16.63-13.15q-.34-5.93-.13-17.13c.24-12.09 2.32-20.42 11.04-27.92 7.08-6.08 20.97-8.07 30.03-7.38q8.07.62 8.14 9.03.14 16.33.28 34.17a1.456 1.456-4.594 0 0 1.68 1.43l17.48-2.72a.431.425-4.797 0 0 .36-.42v-41.38a.359.354-4.797 0 1 .3-.35l13.94-2.17a.81.809-4.283 0 1 .93.8z"></path><path fill="#22603f" fill-rule="evenodd" d="M319.72 798.45a9.94 7.84-112.1 0 1 11.004 6.26 9.94 7.84-112.1 0 1-3.524 12.16 9.94 7.84-112.1 0 1-11.004-6.26 9.94 7.84-112.1 0 1 3.524-12.16"></path><path fill="#1a7a42" fill-rule="evenodd" d="M1325.467 809.635a9.87 8-67 0 1 3.507 12.211 9.87 8-67 0 1-11.22 5.959 9.87 8-67 0 1-3.508-12.211 9.87 8-67 0 1 11.221-5.959"></path><path fill="#22603f" fill-rule="evenodd" d="M395.975 813.101a9.78 8.02-109.5 0 1 10.825 6.542 9.78 8.02-109.5 0 1-4.295 11.896 9.78 8.02-109.5 0 1-10.825-6.542 9.78 8.02-109.5 0 1 4.295-11.896"></path><path fill="#1a7a42" fill-rule="evenodd" d="M1306.787 813.248a9.67 8.04-68.1 0 1 3.853 11.971 9.67 8.04-68.1 0 1-11.067 5.973 9.67 8.04-68.1 0 1-3.853-11.971 9.67 8.04-68.1 0 1 11.067-5.973M424.572 818.813l12.21 2.02a1.42 1.42 39.703 0 1 1.188 1.401v84.832a1.42 1.42 38.321 0 1-1.652 1.401l-12.21-2.02a1.42 1.42 39.54 0 1-1.188-1.401v-84.832a1.42 1.42 35.089 0 1 1.652-1.401M315.85 887.07a.607.606-85.544 0 1-.7.6q-6.87-1.04-13.47-3.35c-9.56-3.34-14.84-8.9-14.97-19.05q-.16-12.05.29-19.75.61-10.72 8.03-17.71c4.67-4.4 10.67-5.57 16.73-4.61q8.9 1.4 15.69 3.35c8.04 2.3 9.23 8.1 9.12 15.96q-.31 22.7-.16 29.65a.94.94 6.03 0 0 .72.89l18.08 4.37a.788.783 6.717 0 0 .97-.76v-40.64a.737.736-85.942 0 1 .84-.73q6.51.99 11.86 1.58c2.8.3 2.33 1.75 2.37 4.3q.27 16.35.26 37.65a1.602 1.599-85.345 0 0 1.34 1.58l21.7 3.58a.38.376 4.577 0 0 .44-.37v-42.13a.731.73 4.684 0 1 .85-.72l12.98 2.14a1.758 1.757-85.692 0 1 1.47 1.71q.27 24.11-.15 48.88-.19 11.43-11.6 9.45-28.29-4.9-65.14-11.8-7.21-1.34-10.15-6.45-1.85-3.2-1.96-12.07-.22-17.22-.26-27.74a1.689 1.688-80.179 0 0-1.12-1.59q-3.05-1.09-6.69-1.75c-7.52-1.38-10.74 3.14-10.72 10.19q.01 5.81.16 12.22a2.049 2.016-62.968 0 0 .35 1.11c1.76 2.65 8.31 4.27 11.97 5.46a1.277 1.254-81.24 0 1 .87 1.21z"></path><path fill="#22603f" fill-rule="evenodd" d="M1144.934 831.417a9.64 8.11-75.5 0 1 5.438 11.364 9.64 8.11-75.5 0 1-10.266 7.302 9.64 8.11-75.5 0 1-5.438-11.364 9.64 8.11-75.5 0 1 10.266-7.302"></path><path fill="#1a7a42" fill-rule="evenodd" d="M1126.419 833.088a9.62 8.09-81.4 0 1 6.56 10.722 9.62 8.09-81.4 0 1-9.437 8.302 9.62 8.09-81.4 0 1-6.561-10.722 9.62 8.09-81.4 0 1 9.438-8.302M603.954 837.553a9.73 8.04-99.5 0 1 9.536 8.27 9.73 8.04-99.5 0 1-6.324 10.924 9.73 8.04-99.5 0 1-9.536-8.27 9.73 8.04-99.5 0 1 6.324-10.924"></path><path fill="#22603f" fill-rule="evenodd" d="M621.481 839.023a9.69 8.11-99.5 0 1 9.598 8.218 9.69 8.11-99.5 0 1-6.4 10.896 9.69 8.11-99.5 0 1-9.598-8.218 9.69 8.11-99.5 0 1 6.4-10.896"></path><path fill="#1a7a42" fill-rule="evenodd" d="m1070.245 927.86-13.25.92a1.08 1.08-57.399 0 1-1.155-1.078v-85.664a1.08 1.08 33.682 0 1 1.006-1.077l13.25-.912a1.08 1.08-6.981 0 1 1.154 1.078v85.655a1.08 1.08-54.915 0 1-1.005 1.078M993.4 879.6l13.38-.92a.705.702-6.283 0 1 .74.59q2.71 16.23 2.35 34.14a.724.723-1.09 0 0 .77.74l16.21-1.12a.772.764 88.009 0 0 .71-.77v-68.48a1.095 1.092-1.968 0 1 1.02-1.09l12.84-.89a1.433 1.428 87.952 0 1 1.53 1.43q-.02 33.02.25 72.45c.05 7.63-2.68 14.87-11.43 15.63q-12.31 1.06-23 1.22a.773.76 6.989 0 0-.73.56c-3.6 13.18-6.56 25.53-20.17 32.26q-6.53 3.23-14.04 3.33a.78.77 89.284 0 1-.79-.78v-16.49a.556.541-6.721 0 1 .43-.53c1.01-.23 2.12-.23 2.77-.38q10.44-2.43 14.18-12.85c4.09-11.36 4.26-20.93 3.98-34.69q-.24-11.45-1.48-22.78a.524.522 84.708 0 1 .48-.58M590.54 908.43c-.82-3.78-1.93-7-2.19-11.03-.79-11.9 4.52-29.23 18.39-31.37 7.24-1.12 19.93-1.11 26.2 3.3a3.626 3.575-.403 0 1 .72.7q3.99 5.22 4.03 10.97.11 15.64.16 30.85a.662.653-88.151 0 0 .61.66l15.88 1.12a.975.972 1.93 0 0 1.04-.97V843.6a.784.782 2.048 0 1 .84-.78l12.4.87a2.076 2.071 1.382 0 1 1.92 2.01q.47 20.36.4 65.55c-.01 6.88 1.09 16.95-6.4 20.35q-3.08 1.4-11.77.44-2.79-.31-15.53-.84-6.96-.29-15.45-1.02-22.3-1.93-40.2-3.5-21.56-1.9-44.66-4.96a.567.562 9.189 0 0-.63.45c-1.69 8.84-6.09 19.76-12.8 25.56q-8.58 7.42-21.69 5.44a.532.525 4.474 0 1-.45-.52v-16.88a.32.31-90 0 1 .31-.32c17.84-.03 20.74-16.56 21.45-30.67q.67-13.26.18-21.53-.66-11.06-.9-15.42a.511.502-1.033 0 1 .52-.53q5.27.06 10.14.23 3.23.12 3.85 3.06c2.31 10.86 2.3 21.92 1.92 33.08a.422.421 4.292 0 0 .38.44l16.54 1.8a.678.674 3.062 0 0 .75-.67v-40.75a.763.762 1.77 0 1 .81-.76l12.86.91a1.507 1.504 2.048 0 1 1.4 1.5v40.18a1.204 1.196-87.952 0 0 1.11 1.2l17.57 1.24a.279.276-3.99 0 0 .29-.33m32.27.65v-23.82a2.11 2.11-2.515 0 0-2.11-2.11h-7.04a12.9 9.67 90 0 0-9.67 12.9v2.24a12.9 9.67-90 0 0 9.67 12.9h7.04a2.11 2.11-2.423 0 0 2.11-2.11M684.23 844.66h13.45a.96.96 33.766 0 1 .96.96v86.97a.96.96-45 0 1-.96.96h-13.45a.96.96 45 0 1-.96-.96v-86.97a.96.96-45 0 1 .96-.96M752.282 845.119a9.68 8.15-93.6 0 1 8.742 9.149 9.68 8.15-93.6 0 1-7.526 10.173 9.68 8.15-93.6 0 1-8.742-9.149 9.68 8.15-93.6 0 1 7.526-10.173" data-source="https://football-logos.cc"></path><path fill="#22603f" fill-rule="evenodd" d="M770.196 845.731a9.49 8.17-92.8 0 1 8.624 9.08 9.49 8.17-92.8 0 1-7.696 9.878 9.49 8.17-92.8 0 1-8.624-9.08 9.49 8.17-92.8 0 1 7.696-9.878"></path><path fill="#1a7a42" fill-rule="evenodd" d="M867.35 846.183a9.55 8.54-93 0 1 9.028 9.09 9.55 8.54-93 0 1-8.028 9.984 9.55 8.54-93 0 1-9.028-9.09 9.55 8.54-93 0 1 8.028-9.984M968.93 873.65a.66.65.428 0 1 .66.66q-.1 27.78.14 50.2c.07 7.3-6.24 10.09-12.61 10.36q-15.19.63-33.3 1.25c-8.71.3-15.3-1.26-15.26-11.13q.16-44.54-.02-76.34a.86.86-1.011 0 1 .84-.87l13.46-.32a.731.73-.764 0 1 .75.73v68.48a1.12 1.12-.747 0 0 1.15 1.12l28.41-.67a1.531 1.52-.774 0 0 1.49-1.52v-41.11a.84.84-45 0 1 .84-.84zM481.96 916.55a.591.583 6.355 0 0-.6-.74c-22.57 1.1-31.26-12.16-32.36-33.08-.76-14.5 6.07-32.73 23.8-31.47q12.21.87 17.25 2.35c5.19 1.51 7.76 6.57 8.59 11.7.94 5.78.8 13.11.71 18.47-.28 16.65-.81 28.12-4.07 41.78q-1.28 5.37-5.01 10.96-9.78 14.65-27.52 10.79a1.4 1.391 5.627 0 1-1.09-1.32l-.36-15.36a.231.221.048 0 1 .24-.23q16.28.84 20.42-13.85m1.09-45.38q-4.91-1.71-10.82-1.78c-3.06-.04-4.6 1.36-6.12 3.97-2.85 4.92-2.44 10.85-1.04 16.01 1.45 5.35 4.12 8.1 9.62 9.21 3.04.62 8.32.69 8.49-3.64q.34-8.44.24-23.25a.554.55 9.735 0 0-.37-.52"></path><path fill="#fff" fill-rule="evenodd" d="M483.05 871.17a.554.55 9.735 0 1 .37.52q.1 14.81-.24 23.25c-.17 4.33-5.45 4.26-8.49 3.64-5.5-1.11-8.17-3.86-9.62-9.21-1.4-5.16-1.81-11.09 1.04-16.01 1.52-2.61 3.06-4.01 6.12-3.97q5.91.07 10.82 1.78"></path><path fill="#1a7a42" fill-rule="evenodd" d="M851.39 882.55q.41-.31 2.3-2.46c6.53-7.47 16.04-6.87 26.01-7.07q8.08-.17 10.82 1.44c6.42 3.76 7.31 8.53 7.58 16.51q.76 22.55-.04 35.28c-.31 4.96-3.69 9.78-9.14 10.58q-3.03.44-6.17.41-20.53-.17-31.33.02c-23.43.39-47.41-.42-70.16-.44q-7.87-.01-10.94-5.1-1.64-2.74-1.7-12.16-.15-25.76-.18-28.27a.975.974 4.211 0 0-.82-.95q-2.23-.35-6.75-.32c-6 .04-10.99 4.48-11.38 10.38q-.61 9.56.27 15.3.25 1.63 2.58 1.98 4.54.7 9.15 1a1.255 1.247-3.291 0 1 1.14 1.01q.44 2.25.41 3.31-.16 6.61-.17 13.04a.76.75.377 0 1-.77.75c-9.44-.2-27.61-1.59-28.1-14.78q-.58-15.36.04-22.74.83-9.98 6.28-17.68c7.65-10.8 22.4-10.06 34.44-8.33q8.75 1.26 8.83 10.21.16 16.52.07 34.47a.85.84 0 0 0 .85.84h17.95a.85.85-45 0 0 .85-.85v-41.5a.48.47-90 0 1 .47-.48h13.83a.86.86 25.198 0 1 .86.86v41.29a1.07 1.07 0 0 0 1.07 1.07h15.98a.83.83 5.861 0 0 .83-.83V875a.5.5-45 0 1 .5-.5h12.49a1.421 1.41 89.163 0 1 1.41 1.38l.15 6.42a.312.308 71.677 0 0 .49.25m30.55 8.16q-4.08-.01-11.95-.11-5.74-.07-8.77 1.45c-10.53 5.28-10.2 16.45-9.95 26.42a.82.81 88.594 0 0 .83.8l29.18-.69a1.6 1.6-.735 0 0 1.56-1.6v-25.36a.91.91.318 0 0-.9-.91"></path><path fill="#fff" fill-rule="evenodd" d="M622.81 909.08a2.11 2.11 35.51 0 1-2.11 2.11h-7.04a12.9 9.67 90 0 1-9.67-12.9v-2.24a12.9 9.67 90 0 1 9.67-12.9h7.04a2.11 2.11 35.51 0 1 2.11 2.11zM882.84 891.62v25.36a1.6 1.6-.735 0 1-1.56 1.6l-29.18.69a.82.81 88.594 0 1-.83-.8c-.25-9.97-.58-21.14 9.95-26.42q3.03-1.52 8.77-1.45 7.87.1 11.95.11a.91.91.318 0 1 .9.91"></path><path fill="#1a7a42" fill-rule="evenodd" d="M351.038 905.248a9.53 7.75-110.4 0 1 10.586 6.231 9.53 7.75-110.4 0 1-3.942 11.633 9.53 7.75-110.4 0 1-10.586-6.231 9.53 7.75-110.4 0 1 3.942-11.633"></path><path fill="#1a7a42" fill-rule="evenodd" d="M368.068 908.094a9.91 7.72-112.5 0 1 10.924 6.202 9.91 7.72-112.5 0 1-3.34 12.11 9.91 7.72-112.5 0 1-10.924-6.202 9.91 7.72-112.5 0 1 3.34-12.11"></path><path fill="#22603f" fill-rule="evenodd" d="M1258.008 918.321a9.73 8.15-66 0 1 3.487 12.204 9.73 8.15-66 0 1-11.403 5.574 9.73 8.15-66 0 1-3.487-12.204 9.73 8.15-66 0 1 11.403-5.574M1228.522 922.286a9.49 8.09-75.4 0 1 5.437 11.223 9.49 8.09-75.4 0 1-10.221 7.145 9.49 8.09-75.4 0 1-5.437-11.223 9.49 8.09-75.4 0 1 10.221-7.145"></path><path fill="#1a7a42" fill-rule="evenodd" d="M1210.946 924.919a9.66 7.81-75.7 0 1 5.182 11.29 9.66 7.81-75.7 0 1-9.954 7.432 9.66 7.81-75.7 0 1-5.182-11.29 9.66 7.81-75.7 0 1 9.954-7.432M1186.694 928.273a9.52 7.93-69.5 0 1 4.094 11.694 9.52 7.93-69.5 0 1-10.762 6.14 9.52 7.93-69.5 0 1-4.094-11.694 9.52 7.93-69.5 0 1 10.762-6.14"></path><path fill="#22603f" fill-rule="evenodd" d="M552.445 933.767a9.48 7.98-101.1 0 1 9.656 7.767 9.48 7.98-101.1 0 1-6.006 10.839 9.48 7.98-101.1 0 1-9.656-7.767 9.48 7.98-101.1 0 1 6.006-10.839"></path><path fill="#22603f" fill-rule="evenodd" d="M569.599 935.585a9.62 8.34-104.7 0 1 10.508 7.189 9.62 8.34-104.7 0 1-5.626 11.421 9.62 8.34-104.7 0 1-10.508-7.189 9.62 8.34-104.7 0 1 5.626-11.421M957.368 945.491a9.63 8.36-89 0 1 8.191 9.775 9.63 8.36-89 0 1-8.527 9.483 9.63 8.36-89 0 1-8.191-9.775 9.63 8.36-89 0 1 8.527-9.483"></path><path fill="#1a7a42" fill-rule="evenodd" d="M1420.03 946.07q-.79 5.41-1.91 10.84-5.41 26.21-9.57 42.24-1.26 4.87-4.76 18.77-11.82 46.96-23.5 84.18-7.49 23.87-15.29 46.53a.442.44 35.178 0 1-.76.13q-9.88-12.12-17.99-25.99-9.87-16.9-14.67-27.77-2.78-6.3-9.93-23.8c-13.09-31.99-20.46-67.19-23.24-101.56a1.232 1.229-7.16 0 1 1.02-1.31c38.07-6.42 54.61-8.41 83.78-15.01q1.19-.27 36.5-7.55a.27.266 87.775 0 1 .32.3M939.796 946.316a9.4 8.09-92.1 0 1 8.429 9.098 9.4 8.09-92.1 0 1-7.741 9.69 9.4 8.09-92.1 0 1-8.429-9.098 9.4 8.09-92.1 0 1 7.741-9.69M801.329 947.538a9.51 8.12-93.5 0 1 8.686 8.996 9.51 8.12-93.5 0 1-7.524 9.988 9.51 8.12-93.5 0 1-8.686-8.996 9.51 8.12-93.5 0 1 7.524-9.988M819.236 947.556a9.65 8.08-92.1 0 1 8.429 9.348 9.65 8.08-92.1 0 1-7.721 9.94 9.65 8.08-92.1 0 1-8.429-9.348 9.65 8.08-92.1 0 1 7.721-9.94M325.9 1148.91a.46.456-37.589 0 1-.8-.1c-4.59-11.87-7.85-23.29-14.21-43.38q-10.08-31.81-17.58-60.45c-7.93-30.29-14.94-57-20.05-82.97q-1.51-7.63-2.22-12.45a.576.574-88.596 0 1 .68-.65q4 .78 41.19 8.14c25.86 5.12 56.04 9.81 78.44 13.21a.629.623 6.518 0 1 .53.66c-1.61 24.32-6.34 48.26-13.81 73.43-4.26 14.38-7.63 22.74-13.73 37.53q-8.41 20.35-19.69 39.6c-5.71 9.74-10.4 16.03-18.75 27.43M1057.82 995.25a.291.281 85.987 0 1 .26-.31c41.12-3.07 82.05-6.22 121.81-11.76a.748.746-7.497 0 1 .85.65c1.6 14.14 2.45 24.87 4.49 36.15q3.98 22.04 7.69 38.83 8.67 39.21 20.55 71.77 25.74 70.57 69.15 129.86c8.09 11.05 15.55 19.6 25.09 31.1a1.747 1.727-71.236 0 1 .34.7q.23 1.08-.76 3.28c-14.16 31.53-29.64 62.48-45.52 92.5q-.81 1.52-1.56 1.56-.73.03-2.04-1.03-21.45-17.34-32.98-27.99-34.29-31.69-63.64-72.25-7.49-10.36-13.34-19.75c-9.54-15.33-17.49-28.03-25.14-43.12q-8.86-17.5-18.33-38.66-5.55-12.41-10.14-25.1-12.21-33.79-21.52-70.21c-8.1-31.73-12.63-64.08-15.26-96.22M631.91 996.19a.992.984 4.549 0 1 .92 1.07c-3.41 39.62-10.22 79.35-21.5 117.64q-6.37 21.62-15.7 47.16-9.17 25.12-19.32 45.8-12.94 26.36-25.46 47.26-6.71 11.19-17.89 27.61c-27.81 40.81-62.94 76.87-102.22 107.22a1.024 1.023 49.163 0 1-1.37-.1q-.62-.65-1.31-1.91c-5.24-9.65-11.15-20.42-16.83-32.02q-10.07-20.57-21.43-44.71-4.15-8.84-7.54-17.28a1.672 1.668-36.224 0 1 .26-1.67c8.87-10.82 17.61-20.66 26-32.19 23.25-31.92 43.25-66.54 58.38-103.06q7.76-18.73 12.84-33.23c7-20 13.07-41.01 18.02-65.39 5.97-29.4 9.44-47.56 11.87-72.23a.642.634 4.245 0 1 .67-.57q6.89.37 20.89 2.06 9.8 1.19 20.8 2.19 42.43 3.86 79.92 6.35M826.98 1003.91h36.67a.571.562-1.592 0 1 .57.53q.88 11.9 2.63 29.29 4.35 43.09 11.86 84.58c4.47 24.71 9.41 44.27 17.39 74.31q4.14 15.6 7.57 25.83c3.91 11.64 6.84 22.48 10.92 34.03q14.52 41.07 30.75 76.74c19.63 43.15 43.15 83.96 69.76 122.82 25.86 37.76 56.01 73.5 88.8 105.8q14.87 14.66 28.73 26.39a1.029 1.009 36.52 0 1 .21 1.32q-1.44 2.27-2.34 3.44-4.21 5.47-24.66 29-12.99 14.94-25.77 27.98-40.62 41.47-83.37 74.71-9.12 7.09-37.79 26.22c-18.79 12.53-38.17 24.05-58.4 33.78q-.24.11-18.73 9.08-16.81 8.14-34.56 14.58a6.157 6.147-44.685 0 1-4.27-.02q-18.24-6.85-33.8-14.23c-10.62-5.04-27.15-13.01-39.59-19.91q-58.59-32.52-109.6-76.9c-31.48-27.39-58.98-55.55-85.43-86.05q-9.57-11.04-17.11-20.94a.995.993-38.756 0 1 .15-1.36q11.73-9.81 25.93-23.66 56.49-55.09 101.24-123.25 24.89-37.92 42.75-72.22 20.09-38.62 35.04-77.25c5.23-13.51 12.4-32.36 18.13-49.92q8.82-27.08 13.42-44.77l6.45-25.26q3.45-13.51 5.93-25.4c7.33-35.15 12.54-62.76 15.81-94.45q2.21-21.52 4.41-44.56a.3.3-87.952 0 1 .3-.28m-94.146 523.866a118.32 118.18-161.5 0 0 74.707 149.617 118.32 118.18-161.5 0 0 149.705-74.529 118.32 118.18-161.5 0 0-74.707-149.617 118.32 118.18-161.5 0 0-149.705 74.529"></path><path fill="#fff" fill-rule="evenodd" d="M732.834 1527.776a118.32 118.18-161.5 0 1 149.705-74.529 118.32 118.18-161.5 0 1 74.707 149.617 118.32 118.18-161.5 0 1-149.705 74.529 118.32 118.18-161.5 0 1-74.707-149.617m129.286 75.594v53.94a.564.558-4.425 0 0 .65.55l13.88-2.16a1.499 1.494 85.505 0 0 1.26-1.48v-50.42a1.19 1.18 0 0 1 1.19-1.18h3.85a.63.62 90 0 0 .62-.63v-14.29a.67.67 0 0 0-.67-.67h-3.45a1.24 1.24-53.158 0 1-1.24-1.24v-23.11a.76.75-90 0 0-.75-.76h-14.3a1.03 1.02 0 0 0-1.03 1.02v23.42a.62.62 38.186 0 1-.62.62h-8.07a.216.213-85.397 0 1-.21-.25q7.55-43.94 10-57.98c3.25-18.59 5.49-36.86 8.68-54a1.144 1.141-75.263 0 0-.75-1.29q-6.84-2.32-14.22-3.03a.457.453-82.53 0 0-.49.38l-21.71 131.48a.538.538 4.948 0 0 .53.63h26.4a.45.45 0 0 1 .45.45m-47.97-1.35q.07 5.17-.01 31.72c-.01 4.2-2.92 8.35-7.79 5.85q-6.69-3.43-9.4-11.13a.99.987-18.715 0 0-1.24-.61l-11.21 3.65a1.091 1.088-18.353 0 0-.7 1.39q1.2 3.51 2.39 6.4c6.41 15.6 29.59 24.17 40.1 7.64 2.24-3.52 2.9-8.34 3.12-12.68q.31-6.29.23-15.25c-.43-52.51-.04-93.51-.21-140.65q-.01-2.75-.7-5.26a.75.75 82.744 0 0-.71-.55c-15.39-.26-30.77 9.63-39.65 21.35-6.1 8.05-9.75 14.94-9.98 24.64q-.7 29.84-.22 54.48.2 10.18 5.14 17.57 10.2 15.31 29.79 10.63a.85.85 82.64 0 1 1.05.81m95.41 14.44v-39.11a2.045 2.043 78.442 0 1 1.24-1.88q22.32-9.61 22.92-34.17.17-6.81-.35-13.2c-1.28-15.75-15.21-32.31-32.66-26.26-14.74 5.11-18.29 24.14-18.19 37.51a.93.92-.311 0 0 .93.91h14.45a.81.81 89.651 0 0 .81-.82c-.1-8.42-.85-19.03 8.73-22.21 5.54-1.83 9.45 7.28 9.78 11.29.75 9.28 1.35 19.1-4.67 26.48q-2.78 3.42-5.09 4.01-7.7 2-13.28 4.32a1.827 1.82-11.428 0 0-1.12 1.68v82.76a.803.802-11.27 0 0 1.11.74c10.39-4.29 20.43-13.25 27.27-21.82 5.48-6.88 10.16-12.86 13.01-20.67a1.017 1.01 35.007 0 0-.18-1l-9.16-10.8a.816.809-53.137 0 0-1.36.2q-5.7 12.76-13.7 22.21a.279.274-25.321 0 1-.49-.17m-140.46 5.47a.972.969-83.57 0 0 1.2-.96q-.46-28.69-.07-53.56c.24-15.7-.13-28.06-.15-43.63 0-2.87-.62-5.88-2.21-7.65q-4.17-4.66-5.56-6.25a.533.533 39.078 0 0-.87.09q-4.68 8.45-8.16 14.31-.92 1.54-1.57 4.29a1.183 1.173-72.321 0 0 .69 1.35q1.64.7 2.26 2.11a2.43 2.375 33.56 0 1 .21.98l.42 84.49a1.416 1.404-83.427 0 0 1.07 1.36z"></path><path fill="#1a7a42" fill-rule="evenodd" d="M862.12 1603.37a.45.45 0 0 0-.45-.45h-26.4a.538.538 4.948 0 1-.53-.63l21.71-131.48a.457.453-82.53 0 1 .49-.38q7.38.71 14.22 3.03a1.144 1.141-75.263 0 1 .75 1.29c-3.19 17.14-5.43 35.41-8.68 54q-2.45 14.04-10 57.98a.216.213-85.397 0 0 .21.25h8.07a.62.62-10.355 0 0 .62-.62v-23.42a1.03 1.02 0 0 1 1.03-1.02h14.3a.76.75-90 0 1 .75.76v23.11a1.24 1.24-78.782 0 0 1.24 1.24h3.45a.67.67-45 0 1 .67.67v14.29a.63.62-90 0 1-.62.63h-3.85a1.19 1.18 0 0 0-1.19 1.18v50.42a1.499 1.494 85.505 0 1-1.26 1.48l-13.88 2.16a.564.558-4.425 0 1-.65-.55zM814.15 1602.02a.85.85 82.64 0 0-1.05-.81q-19.59 4.68-29.79-10.63-4.94-7.39-5.14-17.57-.48-24.64.22-54.48c.23-9.7 3.88-16.59 9.98-24.64 8.88-11.72 24.26-21.61 39.65-21.35a.75.75 82.744 0 1 .71.55q.69 2.51.7 5.26c.17 47.14-.22 88.14.21 140.65q.08 8.96-.23 15.25c-.22 4.34-.88 9.16-3.12 12.68-10.51 16.53-33.69 7.96-40.1-7.64q-1.19-2.89-2.39-6.4a1.091 1.088-18.353 0 1 .7-1.39l11.21-3.65a.99.987-18.715 0 1 1.24.61q2.71 7.7 9.4 11.13c4.87 2.5 7.78-1.65 7.79-5.85q.08-26.55.01-31.72m-.79-110.15c-12.23 6.8-19.85 16.73-19.79 31.34q.11 26.63.27 50.95c.06 8.88 7.53 14.72 16.16 12.03 4.69-1.47 4.42-5.12 4.41-9.61q-.14-46.16-.04-78.32.01-3.24-.23-5.97a.529.524 72.991 0 0-.78-.42"></path><path fill="#fff" fill-rule="evenodd" d="M813.36 1491.87a.529.524 72.991 0 1 .78.42q.24 2.73.23 5.97-.1 32.16.04 78.32c.01 4.49.28 8.14-4.41 9.61-8.63 2.69-16.1-3.15-16.16-12.03q-.16-24.32-.27-50.95c-.06-14.61 7.56-24.54 19.79-31.34"></path><path fill="#1a7a42" fill-rule="evenodd" d="M909.56 1616.46a.279.274-25.321 0 0 .49.17q8-9.45 13.7-22.21a.816.809-53.137 0 1 1.36-.2l9.16 10.8a1.017 1.01 35.007 0 1 .18 1c-2.85 7.81-7.53 13.79-13.01 20.67-6.84 8.57-16.88 17.53-27.27 21.82a.803.802-11.27 0 1-1.11-.74v-82.76a1.827 1.82-11.428 0 1 1.12-1.68q5.58-2.32 13.28-4.32 2.31-.59 5.09-4.01c6.02-7.38 5.42-17.2 4.67-26.48-.33-4.01-4.24-13.12-9.78-11.29-9.58 3.18-8.83 13.79-8.73 22.21a.81.81 89.651 0 1-.81.82h-14.45a.93.92-.311 0 1-.93-.91c-.1-13.37 3.45-32.4 18.19-37.51 17.45-6.05 31.38 10.51 32.66 26.26q.52 6.39.35 13.2-.6 24.56-22.92 34.17a2.045 2.043 78.442 0 0-1.24 1.88zM769.1 1621.93l-12.74-3.07a1.416 1.404-83.427 0 1-1.07-1.36l-.42-84.49a2.43 2.375 33.56 0 0-.21-.98q-.62-1.41-2.26-2.11a1.183 1.173-72.321 0 1-.69-1.35q.65-2.75 1.57-4.29 3.48-5.86 8.16-14.31a.533.533 39.078 0 1 .87-.09q1.39 1.59 5.56 6.25c1.59 1.77 2.21 4.78 2.21 7.65.02 15.57.39 27.93.15 43.63q-.39 24.87.07 53.56a.972.969-83.57 0 1-1.2.96" data-source="https://football-logos.cc"></path><!-- source: https://football-logos.cc --></svg>