<svg xmlns="http://www.w3.org/2000/svg" xmlns:xlink="http://www.w3.org/1999/xlink" data-name="Calque 2" viewBox="0 0 481.31 398.16"><!-- Source: https://football-logos.cc --><defs data-source="https://football-logos.cc"><linearGradient id="a" x1="39.28" x2="39.28" y1="-31.35" y2="128.51" data-name="Dégradé sans nom 7" gradientUnits="userSpaceOnUse"><stop offset="0" stop-color="#890102"></stop><stop offset="1" stop-color="#ec0203"></stop></linearGradient><linearGradient xlink:href="#a" id="b" x1="114.07" x2="114.07" y1="-31.35" y2="128.51" data-name="Dégradé sans nom 7"></linearGradient><linearGradient xlink:href="#a" id="c" x1="201.84" x2="201.84" y1="-31.35" y2="128.51" data-name="Dégradé sans nom 7"></linearGradient><linearGradient xlink:href="#a" id="d" x1="327.96" x2="327.96" y1="-31.35" y2="128.51" data-name="Dégradé sans nom 7"></linearGradient><linearGradient xlink:href="#a" id="e" x1="432.83" x2="432.83" y1="-31.35" y2="128.51" data-name="Dégradé sans nom 7"></linearGradient><linearGradient xlink:href="#a" id="f" x1="116.14" x2="116.14" y1="210.38" y2="370.71" data-name="Dégradé sans nom 7"></linearGradient><linearGradient xlink:href="#a" id="g" x1="353.91" x2="353.91" y1="210.38" y2="370.71" data-name="Dégradé sans nom 7"></linearGradient><linearGradient xlink:href="#a" id="h" x1="214.9" x2="214.9" y1="210.38" y2="370.71" data-name="Dégradé sans nom 7"></linearGradient><linearGradient xlink:href="#a" id="i" x1="214.9" x2="214.9" y1="210.38" y2="370.71" data-name="Dégradé sans nom 7"></linearGradient><linearGradient xlink:href="#a" id="j" x1="353.91" x2="353.91" y1="210.38" y2="370.71" data-name="Dégradé sans nom 7"></linearGradient></defs><g data-name="Calque 1" data-source="https://football-logos.cc"><path d="M23.55 1.29h26.49L30.91 102.22h47.65l-4.42 23.21H0z" style="fill:url(#a)"></path><path d="m139.1 1.29-23.55 124.14H89.06L112.6 1.29h26.49Z" style="fill:url(#b)"></path><path d="M242.5 119.72c-9.57 3.13-24.47 7-40.11 7-17.11 0-31.09-4.42-41.4-13.63-9.94-8.84-15.64-22.47-15.64-38.31 0-23.21 9.57-43.28 25.39-56.73C184.72 6.45 203.86 0 225.39 0c16.19 0 28.15 3.13 32.94 5.53L250.42 28c-5.7-2.58-15.27-5.16-26.31-5.16-12.33 0-23.37 3.5-31.65 9.95-10.67 8.47-17.85 23.21-17.85 40.15 0 20.81 12.33 31.31 31.83 31.31 6.07 0 10.49-.92 13.43-2.21l4.97-26.15h-19.13l4.05-21.18h45.08l-12.33 65.02Z" style="fill:url(#c)"></path><path d="m313.33 1.29-13.62 71.46c-.92 4.24-1.29 9.21-1.29 14.73 0 9.94 6.07 17.68 18.03 17.68 13.8 0 23-9.21 27.41-32.23l13.63-71.64h26.49l-13.43 70.54c-7.18 37.57-23.74 55.62-57.41 55.62-25.57 0-41.21-13.08-41.21-39.6 0-5.34.74-11.42 1.84-17.31l13.07-69.25z" style="fill:url(#d)"></path><path d="M464.94 72.75h-44.16l-5.7 30.02h49.49l-4.23 22.65h-75.99L407.9 1.29h73.41l-4.41 22.65h-46.74l-5.15 26.52h44.16z" style="fill:url(#e)"></path><circle cx="116.14" cy="301.64" r="59.89" style="fill:url(#f)"></circle><path d="M282.75 244.65s21.25-6.49 38.2-14.81c14.81-7.26 43.02-9.75 50.46-1.08-5.3 0-9.12-.1-12.61.21-1.52.13-1.8 2.23-.36 2.76 5.41 1.99 13.71 5.99 20.47 13.38 11.02 12.06 26.41 18.3 46.17 14.35 0 0-10.74 14.88-45.13 10.19-29.64-4.04-38.06-17.89-61.55-22.25-26.79-4.97-35.64-2.76-35.64-2.76Z" style="fill:url(#g)"></path><path d="M87.69 239.15s20.14-23.93 53.71-23.93 32.4-3.5 41.16-6.13 35.73-8.78 54.58 2.92c15.71 9.75 38.29 20.21 65.14-1.1 0 0-12.08 33.26-41.79 31.52-16.1-.94-47.52-10.8-47.52 5.65 0 10.45 12.2 15.7 34.97 10.83s65.57-15.22 94.17 9.59c0 0-28.13-9.04-48.85 1.18s-44.44 25.81-66.33 23.18-32.64-6.88-44.08-21.89c-14.27-18.73-33.2-37.52-51.59-40.15-16.04-2.29-25.18-1.59-43.57 8.33" style="fill:url(#h)"></path><path d="M87.69 364.12s20.14 23.93 53.71 23.93 32.4 3.5 41.16 6.13 35.73 8.78 54.58-2.92c15.71-9.75 38.29-20.21 65.14 1.1 0 0-12.08-33.26-41.79-31.52-16.1.94-47.52 10.8-47.52-5.65 0-10.45 12.2-15.7 34.97-10.83s65.57 15.22 94.17-9.59c0 0-28.13 9.04-48.85-1.18s-44.44-25.81-66.33-23.18-32.64 6.88-44.08 21.89c-14.27 18.73-33.2 37.52-51.59 40.15-16.04 2.29-25.18 1.59-43.57-8.33" style="fill:url(#i)"></path><path d="M282.75 358.62s21.25 6.49 38.2 14.81c14.81 7.26 43.02 9.75 50.46 1.08-5.3 0-9.12.1-12.61-.21-1.52-.13-1.8-2.23-.36-2.76 5.41-1.99 13.71-5.99 20.47-13.38 11.02-12.06 26.41-18.3 46.17-14.35 0 0-10.74-14.88-45.13-10.19-29.64 4.04-38.06 17.89-61.55 22.25-26.79 4.97-35.64 2.76-35.64 2.76Z" style="fill:url(#j)"></path><path d="M110.34 278.01h-.27l-17.11 7.62-.53-15.1 24.19-10.56h15.64l-16.31 86.87H97.37l12.96-68.83Z" style="fill:#fff"></path></g><!-- source: https://football-logos.cc --></svg>