<svg xmlns="http://www.w3.org/2000/svg" xml:space="preserve" viewBox="0 0 741.82 848.28"><!-- Source: https://football-logos.cc --><path d="M5459.99 5902.13s-615.94-129.95-1246.17-51.98c-630.23 77.96-997.99 228.7-1432 511.98-434.02-283.28-801.76-434.02-1432-511.98-630.234-77.97-1246.175 51.98-1246.175 51.98C8.785 5442.11-25.004 4665.04 19.18 4067.3c44.18-597.75 184.523-1166.91 363.847-1606.13 179.325-439.21 449.61-971.99 1070.753-1585.33C2074.91 262.5 2781.82.012 2781.82.012S3488.72 262.5 4109.86 875.84s891.43 1146.12 1070.75 1585.33c179.32 439.22 319.66 1008.38 363.84 1606.13 44.18 597.74 10.4 1374.81-84.46 1834.83" style="fill:#100f0d;fill-opacity:1;fill-rule:nonzero;stroke:none" transform="matrix(.13333 0 0 -.13333 0 848.28)" data-source="https://football-logos.cc"></path><path d="M199.156 5764.71s606.36-100.5 1210.334-25.78c603.97 74.72 956.4 219.18 1372.33 490.66V132.551s-677.45 251.551-1272.71 839.34C913.855 1559.67 669.23 2081.84 497.379 2502.75c-171.856 420.92-320.746 954.78-363.09 1527.62-42.34 572.84-26.039 1293.5 64.867 1734.34" style="fill:#3a86ca;fill-opacity:1;fill-rule:nonzero;stroke:none" transform="matrix(.13333 0 0 -.13333 0 848.28)"></path><path d="M5361.23 5765.68s-603.1-101.47-1207.08-26.75c-603.97 74.72-956.39 219.18-1372.33 490.66V132.551s677.45 251.551 1272.7 839.34c595.27 587.779 837.29 1099.549 1009.14 1520.469 171.85 420.91 323.34 965.17 365.69 1538.01 42.34 572.84 22.79 1294.47-68.12 1735.31" style="fill:#fffffe;fill-opacity:1;fill-rule:nonzero;stroke:none" transform="matrix(.13333 0 0 -.13333 0 848.28)"></path><path d="M4339.86 2634c-24.04 125.39-36.38 336.55-36.38 438.56s11.7 261.84 16.24 432.72c4.55 170.88-23.39 325.19-79.91 432.07-56.53 106.88-144.24 146.51-204.02 169.58-59.77 23.06-136.44 43.2-231.63 11.69-95.18-31.51-106.23-95.51-141.31-138.39s-96.81-132.54-235.86-111.1c-139.03 21.44-167.95 127.02-162.75 187.77s64 114.02 115.65 141.96 137.75 50.68 199.14 58.8c61.4 8.13 97.79.33 142.29 12.35 44.51 12.02 68.22 41.26 68.22 41.26 54.58-19.5 90.32-114.68 90.32-114.68s57.5 35.74 74.07 95.83c16.56 60.11 3.89 148.14-67.57 210.19-71.48 62.05-154 58.47-154 58.47-25.66 99.09-91.61 121.83-158.52 133.53-66.92 11.69-166.98 12.34-209.22 18.19-42.23 5.84-78.29 28.59-94.85 24.36-16.58-4.22-12.68-46.13-12.68-46.13s-109.47 3.58-150.09 9.1c-40.6 5.52-65.94 19.49-70.48-3.9-4.56-23.39 29.88-73.09 29.88-73.09s-47.1-10.73-84.14-36.39c-37.03-25.67-63.67-65.62-90.32-102.66-26.64-37.03-47.75-58.8-47.75-58.8 9.75-20.14 64.33-23.38 64.33-23.38-87.72-121.5-126.7-285.23-126.7-285.23s-38.99 163.73-126.7 285.23c0 0 54.58 3.24 64.32 23.38 0 0-21.11 21.77-47.75 58.8-26.64 37.04-53.28 76.99-90.31 102.66-37.04 25.66-84.14 36.39-84.14 36.39s34.44 49.7 29.89 73.09-29.89 9.42-70.5 3.9-150.09-9.1-150.09-9.1 3.9 41.91-12.67 46.13c-16.56 4.23-52.62-18.52-94.85-24.36-42.24-5.85-142.29-6.5-209.22-18.19-66.92-11.7-132.86-34.44-158.53-133.53 0 0-82.52 3.58-153.99-58.47s-84.14-150.08-67.57-210.19c16.57-60.09 74.07-95.83 74.07-95.83s35.73 95.18 90.31 114.68c0 0 23.72-29.24 68.23-41.26 44.5-12.02 80.88-4.22 142.29-12.35 61.39-8.12 147.48-30.86 199.14-58.8 51.65-27.94 110.45-81.21 115.65-141.96s-23.72-166.33-162.76-187.77-200.76 68.22-235.85 111.1-46.13 106.88-141.32 138.39c-95.18 31.51-171.85 11.37-231.62-11.69-59.78-23.07-147.49-62.7-204.02-169.58-56.52-106.88-84.46-261.19-79.92-432.07 4.55-170.88 16.25-330.71 16.25-432.72s-12.35-313.17-36.38-438.56c-24.05-125.4-64.33-220.91-87.07-266.39 0 0 93.56-27.29 197.52 29.24s207.26 179.97 207.26 179.97 11.7-32.49 12.34-66.27c0 0 68.88 16.89 141 92.26 72.11 75.37 90.31 120.85 90.31 120.85s11.04-17.54 9.09-49.38c0 0 31.84 4.54 86.42 48.73 54.58 44.18 103.96 137.74 103.96 137.74s133.84 73.43 207.91 191.02c74.06 117.6 57.82 211.16 95.5 217.66 37.69 6.5 73.43-105.9 74.08-159.83s-9.1-93.56-88.37-169.58-118.25-144.24-162.43-206.62c-44.18-62.37-104.6-139.04-177.37-148.78 0 0-7.8-23.39 33.78-46.14 41.58-22.73 101.36-18.18 101.36-18.18s-81.22-92.91-157.24-144.89c-76.01-51.99-100.05-58.48-157.23-28.59s-131.24 22.82-183.87-17.83c-52.63-40.64-44.19-117.31-26.64-168 0 0-13.64-84.46 16.89-138.39 30.54-53.92 83.17-68.86 103.31-68.22 0 0-13.64 42.88-.65 82.52 12.99 39.63 32.48 51.33 32.48 51.33s-3.89-72.12 20.8-106.55c24.69-34.45 72.11-76.03 120.85-74.73 48.73 1.3 75.37 16.25 86.41 25.34 0 0-55.23 30.54-49.38 96.81 5.85 66.28 53.28 118.9 68.22 121.5 14.95 2.6 72.77-24.04 83.17-39.64 10.39-15.58 18.84-37.67-9.1-76.66 0 0 62.37-24.04 115.65 17.54s49.38 114.36 37.04 152.69c-12.35 38.33-73.42 62.37-108.51 74.71 0 0-2.6 7.81 18.84 25.99 21.44 18.19 129.3 109.81 129.3 109.81s17.54-72.12 96.81-51.33c79.26 20.79 151.38 107.2 184.52 142.94s100.71 107.2 100.71 107.2 9.09-133.19-83.17-263.13c-92.26-129.95-222.85-139.04-245.59-141.64 0 0 3.24-42.88 52.62-77.97s98.76-44.18 98.76-44.18-97.46-110.46-263.14-129.95c0 0 88.37-105.9 213.11-111.75 124.75-5.85 207.27 44.83 231.96 61.07 0 0-79.92-92.26-123.45-129.95 0 0 10.4-27.28 77.96-29.23 67.58-1.95 118.26 20.79 118.26 20.79s21.44-102.01 113.05-142.29c91.61 40.28 113.05 142.29 113.05 142.29s50.68-22.74 118.26-20.79c67.56 1.95 77.96 29.23 77.96 29.23-43.53 37.69-123.45 129.95-123.45 129.95 24.69-16.24 107.21-66.92 231.95-61.07 124.75 5.85 213.12 111.75 213.12 111.75-165.69 19.49-263.15 129.95-263.15 129.95s49.39 9.09 98.76 44.18c49.39 35.09 52.63 77.97 52.63 77.97-22.74 2.6-153.33 11.69-245.6 141.64-92.25 129.94-83.16 263.13-83.16 263.13s67.57-71.46 100.7-107.2c33.15-35.74 105.27-122.15 184.53-142.94s96.81 51.33 96.81 51.33 107.85-91.62 129.3-109.81c21.43-18.18 18.83-25.99 18.83-25.99-35.08-12.34-96.16-36.38-108.5-74.71s-16.24-111.11 37.04-152.69c53.27-41.58 115.64-17.54 115.64-17.54-27.93 38.99-19.49 61.08-9.09 76.66 10.39 15.6 68.23 42.24 83.17 39.64s62.37-55.22 68.22-121.5c5.85-66.27-49.39-96.81-49.39-96.81 11.05-9.09 37.69-24.04 86.42-25.34s96.16 40.28 120.85 74.73c24.69 34.43 20.79 106.55 20.79 106.55s19.49-11.7 32.49-51.33c12.99-39.64-.65-82.52-.65-82.52 20.14-.64 72.77 14.3 103.31 68.22 30.53 53.93 16.89 138.39 16.89 138.39 17.54 50.69 25.99 127.36-26.64 168-52.63 40.65-126.7 47.72-183.88 17.83-57.17-29.89-81.21-23.4-157.23 28.59-76.02 51.98-157.23 144.89-157.23 144.89s59.78-4.55 101.36 18.18c41.58 22.75 33.78 46.14 33.78 46.14-72.77 9.74-133.19 86.41-177.37 148.78-44.18 62.38-83.17 130.6-162.44 206.62-79.26 76.02-89.01 115.65-88.36 169.58s36.39 166.33 74.07 159.83 21.44-100.06 95.51-217.66c74.07-117.59 207.91-191.02 207.91-191.02s49.38-93.56 103.96-137.74c54.58-44.19 86.42-48.73 86.42-48.73-1.96 31.84 9.09 49.38 9.09 49.38s18.19-45.48 90.31-120.85 141-92.26 141-92.26c.64 33.78 12.34 66.27 12.34 66.27s103.3-123.44 207.26-179.97 197.52-29.24 197.52-29.24c-22.74 45.48-63.02 140.99-87.07 266.39" style="fill:#100f0d;fill-opacity:1;fill-rule:nonzero;stroke:none" transform="matrix(.13333 0 0 -.13333 0 848.28)"></path><path d="M1882.27 4563.36s307.65 2.28 351.18-2.92c0 0-33.14-17.54-83.49-27.94 0 0 27.61-107.53-74.39-160.81l59.12-79.59s-82.19 19.82-179 30.21c-96.81 10.4-125.72 10.07-127.99 4.22-2.28-5.84 38.98-15.59 98.1-22.41 59.13-6.82 102.01-6.17 186.48-28.91 84.46-22.74 200.44-84.47 237.47-164.38 0 0-5.2 44.18-34.76 99.08s-80.56 98.76-114.03 120.2c0 0 97.46 2.92 197.2-71.47 0 0 3.57 25.99-23.07 82.51-26.64 56.53-62.37 80.9-62.37 80.9s94.21 2.59 151.38-58.48c0 0 3.58 35.73-30.86 82.19-34.43 46.46-79.92 62.7-79.92 62.7s52.31 21.77 133.85 14.62 119.87-25.34 119.87-25.34-6.17 29.56-64.65 56.52c-58.47 26.97-152.35 40.61-152.35 40.61s65.94 20.47 74.39 61.08c0 0-126.05-25.34-268.99-24.04 0 0 62.7 21.76 57.17 50.35 0 0-39.63-25.01-130.26-24.36-90.64.65-219.61 7.14-240.08-94.54" style="fill:#ce9119;fill-opacity:1;fill-rule:nonzero;stroke:none" transform="matrix(.13333 0 0 -.13333 0 848.28)"></path><path d="M1966.41 4520.15h20.14s-10.07-49.38 35.41-53.92c45.48-4.55 47.11 39.3 45.81 56.52l20.46-10.07s15.27-85.44-62.37-83.49-59.45 90.96-59.45 90.96M1862.94 4462.33c-7.17 0-12.99 5.09-12.99 11.37s5.82 11.37 12.99 11.37c7.18 0 13-5.09 13-11.37s-5.82-11.37-13-11.37m84.95-40.61c-24.36 27.94-50.68 101.03-50.68 101.03-109.47 5.53-208.23-32.49-234.87-100.05-26.64-67.58 0-157.56 0-157.56 23.39 58.15 75.04 91.61 171.85 102 96.81 10.4 195.89-18.19 195.89-18.19s-57.82 44.83-82.19 72.77M2534.92 4396.54s60.43-84.95 72.12-190.86c0 0 61.08-50.02 94.86-160.47 0 0-3.9 87.71-51.98 194.26-48.08 106.56-115 157.07-115 157.07M2473.2 4249.87s6.49-24.69 26.64-55.23c20.14-30.54 29.23-47.43 39.63-95.51 10.39-48.08 20.79-94.86 67.57-103.95 0 0 0 35.73-21.44 80.56s-16.89 31.84-27.29 74.07c-10.39 42.23-45.48 78.62-85.11 100.06M2391.98 4140.06s40.94-51.97 53.93-103.3 0-81.87 22.74-122.15c0 0 22.74 30.54 18.19 93.56-4.54 63.02-41.46 116.35-94.86 131.89M2154.18 3363.32s-23.39-235.85-106.23-402.51c0 0 61.4 40.93 93.57 178.35 32.15 137.42 12.66 224.16 12.66 224.16M2053.8 2581.7s57.99 48.73 115 133.51c57.02 84.8 83.33 133.04 138.88 174.94 55.55 41.91 88.69 40.93 60.43-3.41-28.27-44.34-80.9-103.79-96.49-158.37 0 0 57.99 26.31 126.21 65.3 68.22 38.98 82.84 59.45 78.46 26.31-4.39-33.14-33.63-108.67-71.64-174.93-38.01-66.28-47.75-80.42-43.85-96.98 0 0 53.6 22.41 108.66 75.53 55.07 53.11 82.84 99.89 82.84 99.89s-44.83-117.43-126.69-202.22c-81.87-84.79-122.56-102.33-122.56-102.33s2.2 109.15 5.12 152.52 23.88 85.76 36.54 101.85c0 0-38.98 6.33-118.41-28.75-79.43-35.09-99.4-65.31-172.5-62.86" style="fill:#ce9119;fill-opacity:1;fill-rule:nonzero;stroke:none" transform="matrix(.13333 0 0 -.13333 0 848.28)"></path><path d="m2213.15 2567.08 11.69-60.91s-110.13-108.19-165.19-159.35c-55.07-51.17-76.51-74.07-76.51-74.07s-1.46-16.57 24.85-24.85c26.32-8.28 73.58-15.6 103.31-38.01s39.96-66.76-24.85-133.04c0 0-4.88 56.53-65.78 85.28-60.92 28.75-96.01 38.99-138.4-5.84-42.39-44.84-60.91-101.36-58.96-149.6 1.95-48.25 17.54-62.87 17.54-62.87s-76.5 17.54-94.53 80.4c-18.03 62.87 33.62 108.68 53.6 125.73 19.98 17.06 32.65 36.06 28.26 42.88-4.38 6.82-35.57-4.87-64.32-22.41s-75.04-34.12-95.03-38.01c-19.97-3.9-38-7.79-48.24-35.09-10.23-27.28-8.77-62.37-8.77-62.37s-21.44 40.93-21.44 92.59c0 51.65 37.04 78.45 86.74 81.86s82.35.49 114.52 14.13c32.16 13.64 38.49 23.88 38.49 23.88s-51.16-.49-105.26 8.04c-54.08 8.53-98.43 23.15-151.05-27.53 0 0 16.07 92.58 73.57 94.05 57.5 1.45 105.75-34.6 171.53-37.04 65.79-2.43 113.05 42.4 165.2 78.45 52.14 36.07 139.85 140.83 167.62 166.18 27.78 25.33 61.41 37.52 61.41 37.52M2719.44 2269.34s9.26-114.03-43.85-208.07c-53.12-94.06-226.59-222.21-403-133.53 0 0 96 32.66 168.61 105.74 72.61 73.1 102.33 120.85 102.33 120.85s-132.79-31.91-188.09 14.13c0 0 78.94 36.07 156.91 97.46 77.96 61.41 89.66 81.38 89.66 81.38s-21.93-65.78-100.88-142.28c0 0 69.69 0 128.65 38 0 0-16.57-71.63-90.14-159.83-73.59-88.2-120.37-122.79-120.37-122.79s105.75-3.91 192.97 103.79c87.22 107.69 107.2 205.15 107.2 205.15M3681.37 4563.36s-307.65 2.28-351.18-2.92c0 0 33.13-17.54 83.48-27.94 0 0-27.6-107.53 74.4-160.81l-59.12-79.59s82.18 19.82 179 30.21c96.81 10.4 125.72 10.07 127.99 4.22 2.27-5.84-38.99-15.59-98.11-22.41s-102-6.17-186.47-28.91c-84.46-22.74-200.44-84.47-237.47-164.38 0 0 5.19 44.18 34.75 99.08 29.57 54.9 80.57 98.76 114.04 120.2 0 0-97.46 2.92-197.2-71.47 0 0-3.57 25.99 23.07 82.51 26.64 56.53 62.37 80.9 62.37 80.9s-94.21 2.59-151.39-58.48c0 0-3.57 35.73 30.87 82.19s79.91 62.7 79.91 62.7-52.3 21.77-133.84 14.62-119.88-25.34-119.88-25.34 6.18 29.56 64.65 56.52c58.48 26.97 152.37 40.61 152.37 40.61s-65.95 20.47-74.4 61.08c0 0 126.05-25.34 268.98-24.04 0 0-62.69 21.76-57.17 50.35 0 0 39.64-25.01 130.27-24.36 90.64.65 219.61 7.14 240.08-94.54" style="fill:#ce9119;fill-opacity:1;fill-rule:nonzero;stroke:none" transform="matrix(.13333 0 0 -.13333 0 848.28)"></path><path d="M3597.23 4520.15h-20.15s10.08-49.38-35.41-53.92c-45.48-4.55-47.1 39.3-45.8 56.52l-20.47-10.07s-15.26-85.44 62.37-83.49c77.65 1.95 59.46 90.96 59.46 90.96M3687.7 4473.7c0 6.28 5.82 11.37 12.99 11.37 7.18 0 13-5.09 13-11.37s-5.82-11.37-13-11.37c-7.17 0-12.99 5.09-12.99 11.37m-154.14-124.75s99.08 28.59 195.88 18.19c96.81-10.39 148.47-43.85 171.86-102 0 0 26.64 89.98 0 157.56-26.64 67.56-125.4 105.58-234.88 100.05 0 0-26.31-73.09-50.68-101.03-24.36-27.94-82.18-72.77-82.18-72.77M3028.71 4396.54s-60.42-84.95-72.12-190.86c0 0-61.07-50.02-94.85-160.47 0 0 3.9 87.71 51.97 194.26 48.08 106.56 115 157.07 115 157.07M3090.44 4249.87s-6.5-24.69-26.64-55.23c-20.15-30.54-29.24-47.43-39.63-95.51-10.4-48.08-20.79-94.86-67.58-103.95 0 0 0 35.73 21.45 80.56 21.43 44.83 16.89 31.84 27.28 74.07 10.4 42.23 45.48 78.62 85.12 100.06M3171.65 4140.06s-40.93-51.97-53.92-103.3 0-81.87-22.74-122.15c0 0-22.74 30.54-18.19 93.56 4.54 63.02 41.45 116.35 94.85 131.89" style="fill:#ce9119;fill-opacity:1;fill-rule:nonzero;stroke:none" transform="matrix(.13333 0 0 -.13333 0 848.28)"></path><path d="M4363.25 2402.69s-74.07 137.1-96.16 358.65c-22.09 221.56-15.58 262.49-11.69 409.33 3.9 146.84 12.99 235.85 16.9 347.61 3.89 111.75-16.25 224.15-42.24 300.82s-73.42 174.77-168.28 224.15c-94.85 49.38-250.15 64.33-319.67-44.18-69.51-108.5-113.05-178.67-308.61-199.46 0 0-57.18-1.63-103.96 28.1-46.78 29.72-58.96 53.6-79.92 48.73-20.96-4.88-11.69-40.94 40.94-82.36s111.1-59.45 217.82-50.19c106.71 9.26 204.17 72.41 248.52 133.18 44.34 60.77 53.11 116.8 135.95 121.68 82.84 4.87 177.86-35.58 234.88-115 57.01-79.43 80.41-189.56 78.94-299.69 0 0-41.58-3.41-87.06 66.76-45.49 70.17-60.11 114.02-79.92 137.74 0 0 20.79-71.79 19.49-138.39-1.3-66.59-43.2-61.07-70.5-20.79-27.28 40.28-28.26 59.77-47.75 94.86-19.49 35.08-29.24 41.58-29.24 41.58s15.27-80.89 7.8-148.79c-7.47-67.89-34.44-74.39-64.32-48.07-29.89 26.31-64.33 94.21-80.89 138.71 0 0 18.51-89.34 11.04-136.12s-49.38-50.67-81.54-19.82c-32.16 30.87-67.57 111.76-67.57 111.76s31.84-140.99-35.09-148.46c-66.92-7.48-90.63 98.11-90.63 98.11s11.37-118.26-56.2-113.06c-67.58 5.2-68.55 93.89-68.55 93.89l-35.74-76.34s-59.44 41.25-106.23 34.43c-46.78-6.82-72.44-53.6-96.15-128-23.72-74.39-26.64-128.32-42.24-197.51-15.59-69.2-25.66-102.01-58.15-169.25-32.48-67.25-80.89-107.86-80.89-107.86s-60.75 117.27-87.06 148.79c0 0-20.15-157.88-97.46-246.9-77.32 89.02-97.46 246.9-97.46 246.9-26.32-31.52-87.06-148.79-87.06-148.79s-48.41 40.61-80.89 107.86c-32.49 67.24-42.56 100.05-58.16 169.25-15.59 69.19-18.51 123.12-42.23 197.51-23.71 74.4-49.38 121.18-96.16 128s-106.23-34.43-106.23-34.43l-35.73 76.34s-.97-88.69-68.55-93.89c-67.57-5.2-56.2 113.06-56.2 113.06s-23.71-105.59-90.64-98.11c-66.92 7.47-35.08 148.46-35.08 148.46s-35.41-80.89-67.57-111.76c-32.16-30.85-74.07-26.96-81.54 19.82-7.48 46.78 11.04 136.12 11.04 136.12-16.57-44.5-51-112.4-80.89-138.71-29.89-26.32-56.85-19.82-64.32 48.07-7.47 67.9 7.79 148.79 7.79 148.79s-9.74-6.5-29.23-41.58c-19.5-35.09-20.47-54.58-47.76-94.86s-69.2-45.8-70.5 20.79c-1.29 66.6 19.5 138.39 19.5 138.39-19.82-23.72-34.44-67.57-79.92-137.74s-87.06-66.76-87.06-66.76c-1.47 110.13 21.93 220.26 78.94 299.69 57.01 79.42 152.04 119.87 234.88 115 82.83-4.88 91.61-60.91 135.95-121.68 44.35-60.77 141.8-123.92 248.52-133.18s165.2 8.77 217.82 50.19c52.63 41.42 61.89 77.48 40.94 82.36-20.96 4.87-33.14-19.01-79.92-48.73-46.78-29.73-103.96-28.1-103.96-28.1-195.56 20.79-239.1 90.96-308.62 199.46-69.52 108.51-224.8 93.56-319.66 44.18s-142.29-147.48-168.28-224.15-46.13-189.07-42.24-300.82c3.91-111.76 13-200.77 16.9-347.61s10.39-187.77-11.7-409.33c-22.09-221.55-96.16-358.65-96.16-358.65 270.94 56.53 441.17 408.68 441.17 408.68 2.6-100.71-32.49-215.06-32.49-215.06 153.42 108.42 236.5 335.26 236.5 335.26l1.95-164.38c47.43 36.39 131.25 129.94 155.93 287.18 24.7 157.23 5.85 287.83 5.85 287.83s-10.39-146.84-44.18-281.33c-33.79-134.5-80.56-173.48-80.56-173.48s.65 100.06-10.4 250.79c-11.04 150.74-22.74 241.7-22.74 241.7s-5.85-280.03-62.38-457.4c-56.52-177.38-111.1-202.72-111.1-202.72 13.65 87.72 31.19 386.59 31.19 500.29s-15.59 175.42-15.59 175.42-1.3-150.73-11.05-213.82c-9.74-63.08-23.39-231.89-103.3-403.41-79.92-171.53-163.08-208.57-163.08-208.57 80.56 181.27 124.74 467.16 126.69 611.4s-18.84 248.19-18.84 248.19c0-81.21-19.5-280.03-25.99-339.81-6.5-59.77-21.44-190.36-82.52-347.6-61.07-157.23-127.34-200.12-127.34-200.12 37.03 107.86 74.71 365.15 79.26 508.74s-8.44 179.98-16.89 270.94 0 210.51 0 210.51c51.01 10.72 96.47 48.73 96.47 48.73 5.19-17.87 26.01-61.72 66.94-64.65 40.93-2.92 86.09 43.21 86.09 43.21 13.31-30.86 37.68-76.67 73.74-75.04 36.06 1.62 66.92 36.38 66.92 36.38 13.97-26.96 41.26-58.47 79.59-61.08 38.34-2.59 69.2 44.84 69.2 44.84s30.86-61.4 77.31-63.35c46.46-1.95 72.45 53.27 72.45 53.27s29.24-52.3 72.77-54.9 71.15 46.13 71.15 46.13.65-37.03 39.3-38.33c38.66-1.3 29.89 26.31 80.57 22.42 50.68-3.9 69.52-62.38 78.62-111.11s28.59-180.62 94.86-313.17c66.27-132.54 144.88-174.12 144.88-174.12 11.05 86.41 42.89 115.65 42.89 115.65 51.98-119.55 117.6-210.51 117.6-210.51s65.62 90.96 117.6 210.51c0 0 31.83-29.24 42.89-115.65 0 0 78.61 41.58 144.88 174.12 66.27 132.55 85.76 264.44 94.86 313.17 9.09 48.73 27.94 107.21 78.62 111.11 50.68 3.89 41.91-23.72 80.56-22.42 38.66 1.3 39.31 38.33 39.31 38.33s27.62-48.73 71.15-46.13 72.76 54.9 72.76 54.9 25.99-55.22 72.46-53.27c46.45 1.95 77.31 63.35 77.31 63.35s30.86-47.43 69.19-44.84c38.34 2.61 65.62 34.12 79.6 61.08 0 0 30.86-34.76 66.91-36.38 36.07-1.63 60.43 44.18 73.75 75.04 0 0 45.16-46.13 86.09-43.21 40.93 2.93 61.76 46.78 66.94 64.65 0 0 45.46-38.01 96.47-48.73 0 0 8.44-119.55 0-210.51-8.45-90.96-21.44-127.35-16.9-270.94 4.55-143.59 42.24-400.88 79.27-508.74 0 0-66.27 42.89-127.35 200.12-61.07 157.24-76.01 287.83-82.51 347.6-6.5 59.78-25.99 258.6-25.99 339.81 0 0-20.79-103.95-18.84-248.19 1.94-144.24 46.12-430.13 126.69-611.4 0 0-83.16 37.04-163.08 208.57-79.92 171.52-93.56 340.33-103.31 403.41-9.74 63.09-11.04 213.82-11.04 213.82s-15.6-61.72-15.6-175.42 17.55-412.57 31.19-500.29c0 0-54.58 25.34-111.1 202.72-56.52 177.37-62.37 457.4-62.37 457.4s-11.7-90.96-22.75-241.7c-11.04-150.73-10.39-250.79-10.39-250.79s-46.77 38.98-80.56 173.48c-33.79 134.49-44.18 281.33-44.18 281.33s-18.85-130.6 5.84-287.83c24.69-157.24 108.5-250.79 155.93-287.18l1.96 164.38s83.08-226.84 236.49-335.26c0 0-35.08 114.35-32.48 215.06 0 0 170.23-352.15 441.16-408.68" style="fill:#ce9119;fill-opacity:1;fill-rule:nonzero;stroke:none" transform="matrix(.13333 0 0 -.13333 0 848.28)"></path><path d="M3409.45 3363.32s23.39-235.85 106.24-402.51c0 0-61.4 40.93-93.57 178.35-32.16 137.42-12.67 224.16-12.67 224.16M3509.84 2581.7s-57.99 48.73-115 133.51c-57.02 84.8-83.33 133.04-138.88 174.94-55.56 41.91-88.69 40.93-60.43-3.41 28.27-44.34 80.9-103.79 96.48-158.37 0 0-57.99 26.31-126.2 65.3-68.22 38.98-82.84 59.45-78.45 26.31 4.38-33.14 33.62-108.67 71.63-174.93 38-66.28 47.75-80.42 43.85-96.98 0 0-53.6 22.41-108.67 75.53-55.06 53.11-82.83 99.89-82.83 99.89s44.82-117.43 126.69-202.22c81.86-84.79 122.56-102.33 122.56-102.33s-2.2 109.15-5.12 152.52-23.88 85.76-36.54 101.85c0 0 38.97 6.33 118.41-28.75 79.43-35.09 99.4-65.31 172.5-62.86" style="fill:#ce9119;fill-opacity:1;fill-rule:nonzero;stroke:none" transform="matrix(.13333 0 0 -.13333 0 848.28)"></path><path d="m3350.49 2567.08-11.69-60.91s110.13-108.19 165.19-159.35c55.06-51.17 76.51-74.07 76.51-74.07s1.45-16.57-24.85-24.85c-26.32-8.28-73.59-15.6-103.31-38.01-29.73-22.41-39.97-66.76 24.85-133.04 0 0 4.87 56.53 65.78 85.28 60.92 28.75 96 38.99 138.4-5.84 42.39-44.84 60.91-101.36 58.95-149.6-1.94-48.25-17.54-62.87-17.54-62.87s76.51 17.54 94.55 80.4c18.02 62.87-33.64 108.68-53.61 125.73-19.98 17.06-32.65 36.06-28.27 42.88 4.4 6.82 35.58-4.87 64.33-22.41s75.05-34.12 95.02-38.01c19.98-3.9 38.01-7.79 48.24-35.09 10.23-27.28 8.78-62.37 8.78-62.37s21.43 40.93 21.43 92.59c0 51.65-37.03 78.45-86.73 81.86-49.71 3.41-82.36.49-114.52 14.13-32.15 13.64-38.49 23.88-38.49 23.88s51.16-.49 105.25 8.04 98.44 23.15 151.07-27.53c0 0-16.09 92.58-73.59 94.05-57.5 1.45-105.74-34.6-171.52-37.04-65.79-2.43-113.06 42.4-165.2 78.45-52.14 36.07-139.85 140.83-167.62 166.18-27.79 25.33-61.41 37.52-61.41 37.52M2870.18 2693.12c-23.39-102.66-88.36-215.06-88.36-215.06s-64.97 112.4-88.37 215.06c0 0-24.68-133.84-52.62-198.16 0 0 43.53 14.94 59.12 55.88 0 0 61.73-102.66 81.87-128 20.14 25.34 81.86 128 81.86 128 15.6-40.94 59.13-55.88 59.13-55.88-27.94 64.32-52.63 198.16-52.63 198.16M3000.13 3624.51c-76.02-53.61-128.64-203.69-128.64-203.69-35.09 172.5 105.25 345 105.25 345-159.83-78.94-194.92-247.54-194.92-247.54s-35.09 168.6-194.92 247.54c0 0 140.34-172.5 105.25-345 0 0-52.62 150.08-128.64 203.69-76.02 53.6-101.36 36.06-99.41 20.46 1.95-15.59 30.21-26.31 59.45-52.63 29.24-26.31 55.55-47.75 26.31-168.6 0 0-23.87 57.01-43.36 82.35 0 0-.98-57.5 15.59-188.09 16.57-130.6 44.83-190.05 44.83-190.05s13.16 41.91 18.03 134.5c4.88 92.58 3.9 119.38 3.9 119.38s49.71-142.78 89.17-173.47c0 0 17.68 69.81 13.65 147.16 0 0 65.78-198.33 90.15-250.47 24.36 52.14 90.14 250.47 90.14 250.47-4.02-77.35 13.66-147.16 13.66-147.16 39.46 30.69 89.17 173.47 89.17 173.47s-.98-26.8 3.89-119.38c4.88-92.59 18.04-134.5 18.04-134.5s28.26 59.45 44.82 190.05c16.58 130.59 15.6 188.09 15.6 188.09-19.49-25.34-43.37-82.35-43.37-82.35-29.24 120.85-2.92 142.29 26.32 168.6 29.24 26.32 57.5 37.04 59.44 52.63 1.96 15.6-23.39 33.14-99.4-20.46M2985.51 1805.92s-148.14 159.84-172.01 249.98c0 0 14.61-171.04-31.68-261.19-46.29 90.15-31.67 261.19-31.67 261.19-23.88-90.14-172.02-249.98-172.02-249.98 71.14 1.46 127.67 69.68 127.67 69.68s-5.36-51.65 19.01-108.17c24.36-56.54 57.01-79.44 57.01-79.44s32.64 22.9 57.01 79.44c24.36 56.52 19 108.17 19 108.17s56.54-68.22 127.68-69.68M2844.19 2269.34s-9.26-114.03 43.86-208.07c53.11-94.06 226.59-222.21 403-133.53 0 0-96.01 32.66-168.61 105.74-72.6 73.1-102.33 120.85-102.33 120.85s132.78-31.91 188.09 14.13c0 0-78.94 36.07-156.91 97.46-77.97 61.41-89.66 81.38-89.66 81.38s21.93-65.78 100.87-142.28c0 0-69.69 0-128.64 38 0 0 16.56-71.63 90.15-159.83 73.58-88.2 120.36-122.79 120.36-122.79s-105.75-3.91-192.97 103.79c-87.23 107.69-107.21 205.15-107.21 205.15M1406.86 1075.76l82.26-84.022s513.03 433.122 1292.7 433.122c779.68 0 1292.71-433.122 1292.71-433.122l82.77 82.772s-541.23 463.4-1375.48 463.4-1374.96-462.15-1374.96-462.15" style="fill:#ce9119;fill-opacity:1;fill-rule:nonzero;stroke:none" transform="matrix(.13333 0 0 -.13333 0 848.28)"></path><path d="M1489.12 991.738s622.18-625.289 1292.7-859.187c0 0 680.42 252.597 1292.71 859.187 0 0-526.03 433.122-1292.71 433.122s-1292.7-433.122-1292.7-433.122" style="fill:#fffffe;fill-opacity:1;fill-rule:nonzero;stroke:none" transform="matrix(.13333 0 0 -.13333 0 848.28)"></path><path d="M2407.57 1182.51h306.35v-152.69h-141.97v-71.14h120.53V808.27h-121.5V581.828h-163.41z" style="fill:#100f0d;fill-opacity:1;fill-rule:nonzero;stroke:none" transform="matrix(.13333 0 0 -.13333 0 848.28)"></path><path d="M2436.16 1152.62V606.852h109.16v226.75h123.45v101.359h-124.1v121.499h141.64v96.16z" style="fill:#ce9119;fill-opacity:1;fill-rule:nonzero;stroke:none" transform="matrix(.13333 0 0 -.13333 0 848.28)"></path><path d="M2750.64 1182.51V581.828h161.77v148.473l5.53 9.418 64-157.891h173.79l-137.09 344.363 121.83 256.319h-168.28l-61.08-134.17v134.17z" style="fill:#100f0d;fill-opacity:1;fill-rule:nonzero;stroke:none" transform="matrix(.13333 0 0 -.13333 0 848.28)"></path><path d="M2776.3 1154.57h109.47V921.652l102.66 232.918h109.8l-108.5-226.429 125.4-319.993h-116.95l-77.32 198.821-34.76-69.848V608.148h-109.8z" style="fill:#ce9119;fill-opacity:1;fill-rule:nonzero;stroke:none" transform="matrix(.13333 0 0 -.13333 0 848.28)"></path><path d="m414.215 5248.5 319.664 96.16 45.484-153.99-151.386-46.78 21.437-78.62 129.949 37.69 46.125-155.28-130.593-40.94 25.992-86.41 152.035 44.83 47.43-155.94-319.668-94.85z" style="fill:#100f0d;fill-opacity:1;fill-rule:nonzero;stroke:none" transform="matrix(.13333 0 0 -.13333 0 848.28)"></path><path d="m447.352 5232.26 168.929-583.46 270.282 77.97-30.536 105.9-153.984-44.83-40.285 138.39 131.246 38.99-31.188 104.61-131.894-37.04-35.082 128.65 153.336 45.48-32.492 107.2z" style="fill:#ce9119;fill-opacity:1;fill-rule:nonzero;stroke:none" transform="matrix(.13333 0 0 -.13333 0 848.28)"></path><path d="M1038.6 5148.44c-7.79-1.95-27.28-5.85-27.28-5.85l-22.101 96.16s18.841 9.75 32.491 7.15c13.64-2.6 18.84-25.99 25.34-55.23 6.5-29.23-.65-40.28-8.45-42.23m309.27-339.81-155.29 252.1s40.94 33.13 30.55 139.69c-10.4 106.55-65.63 200.76-144.25 209.86-78.61 9.1-120.845-10.4-298.868-53.28l151.386-645.83 169.572 39.64-46.77 208.56L1168.55 4769z" style="fill:#100f0d;fill-opacity:1;fill-rule:nonzero;stroke:none" transform="matrix(.13333 0 0 -.13333 0 848.28)" data-source="https://football-logos.cc"></path><path d="m989.219 5111.73-31.836 146.19c32.652 10.23 60.917 24.85 86.737 3.9 25.83-20.95 28.76-66.76 31.19-92.1 2.44-25.34-15.1-42.39-29.72-46.3-14.62-3.89-56.371-11.69-56.371-11.69m191.351-314.31 124.26 29.73-145.7 234.67s35.08 35.78 38.01 92.31c2.92 56.52-20.96 157.39-62.87 196.37-41.91 38.99-86.73 42.4-163.727 25.84-76.992-16.58-157.887-38.99-157.887-38.99l139.371-594.5 117.433 28.26-54.09 231.46 40.45 9.27z" style="fill:#ce9119;fill-opacity:1;fill-rule:nonzero;stroke:none" transform="matrix(.13333 0 0 -.13333 0 848.28)"></path><path d="M2266.19 5332.24c-8-.69-27.87-1.44-27.87-1.44l-6.56 98.44s20.15 6.64 33.21 1.9c13.06-4.72 14.48-28.64 16.26-58.54s-7.03-39.67-15.04-40.36m251.45-384.56-113.33 273.53s45.68 26.23 52.31 133.08c6.64 106.86-32.94 208.64-109.12 230.09-76.18 21.44-120.97 8.9-303.54-5.2l47.02-661.66 173.72 12.23-13.1 213.34 82.7-206.1z" style="fill:#100f0d;fill-opacity:1;fill-rule:nonzero;stroke:none" transform="matrix(.13333 0 0 -.13333 0 848.28)"></path><path d="m2211.61 5303.83-8.24 149.38c33.86 4.93 64.08 14.88 86.26-9.9 22.17-24.79 17.8-70.48 16.18-95.88-1.61-25.41-21.64-39.47-36.69-40.99-15.05-1.54-57.51-2.61-57.51-2.61m139.07-340.68 127.4 9.64-106.63 254.81s40.31 29.76 52.17 85.11c11.85 55.34 4.28 158.73-30.91 203.86-35.2 45.14-78.92 55.62-157.57 51.47-78.64-4.14-162.07-13.44-162.07-13.44l43.31-609.08 120.43 9.27-16.69 237.12 41.4 2.72z" style="fill:#ce9119;fill-opacity:1;fill-rule:nonzero;stroke:none" transform="matrix(.13333 0 0 -.13333 0 848.28)"></path><path d="M4932.77 5042.74c-7.73 2.17-26.6 8.44-26.6 8.44l28.46 94.47s21.2-.87 31.76-9.89 3.49-31.91-5.35-60.52c-8.84-28.62-20.53-34.67-28.27-32.5m100.26-448.4-9.96 295.91s51.97 8.5 95.74 106.21c43.77 97.7 42.48 206.9-21.3 253.75-63.78 46.86-110.13 50.86-286 101.82l-188.52-635.98 166.93-49.6 62.72 204.33 4.99-222.01z" style="fill:#100f0d;fill-opacity:1;fill-rule:nonzero;stroke:none" transform="matrix(.13333 0 0 -.13333 0 848.28)"></path><path d="m4871.69 5035.32 44.79 142.75c33.42-7.28 65.22-8.59 77.27-39.59s-8.1-72.23-18.54-95.45c-10.44-23.21-34.13-29.34-48.76-25.48s-54.76 17.77-54.76 17.77m10.47-367.82 122.66-35.75-10.28 276.03s48.21 13.69 78.75 61.34c30.55 47.65 59.8 147.1 42.71 201.73-17.08 54.62-54.34 79.8-129.42 103.56s-156.45 44.37-156.45 44.37l-173.53-585.44 116.02-33.65 67.7 227.86 39.72-12z" style="fill:#ce9119;fill-opacity:1;fill-rule:nonzero;stroke:none" transform="matrix(.13333 0 0 -.13333 0 848.28)"></path><path d="m4068.28 5228.68 20.46 114.51s33.62-3.4 37.04-22.41c3.41-19.01 0-123.77-57.5-92.1m230.49 125.73c-14.13 105.74-107.21 132.05-155.45 142.29-48.24 10.23-202.71 36.54-202.71 36.54l-109.64-653.95 171.52-31.19 35.58 215.88s82.35-23.88 159.34 12.67c77 36.54 115.49 172.01 101.36 277.76M1215.65 5457.22l28.27-158.37 137.9 21.44-76.99-392.75 22.9-116.96 331.36 53.12-27.77 159.83-145.22-22.9 76.5 393.25-20.95 123.28z" style="fill:#100f0d;fill-opacity:1;fill-rule:nonzero;stroke:none" transform="matrix(.13333 0 0 -.13333 0 848.28)"></path><path d="m1246.35 5436.75 18.52-109.15 149.11 26.32-84.3-430.77 15.11-87.71 283.11 50.19-18.51 108.66-157.4-28.75 83.82 431.75-14.62 90.14z" style="fill:#ce9119;fill-opacity:1;fill-rule:nonzero;stroke:none" transform="matrix(.13333 0 0 -.13333 0 848.28)"></path><path d="m1584.05 5524.47 173.96 21.44s51.65-428.82 59.45-466.83 19.49-33.14 30.7-32.16 21.44 8.77 17.06 45.32c-4.39 36.55-60.27 460.98-60.27 460.98l174.13 18.84s52.3-416.47 59.61-473c7.31-56.52-14.62-201.25-180.78-214.89-166.17-13.65-212.95 117.92-215.39 182.24s-58.47 458.06-58.47 458.06" style="fill:#100f0d;fill-opacity:1;fill-rule:nonzero;stroke:none" transform="matrix(.13333 0 0 -.13333 0 848.28)"></path><path d="m1614.75 5502.05 121.82 13.16s46.78-374.24 52.14-418.59c5.36-44.34 18.52-83.81 59.45-76.01 40.93 7.79 46.78 34.11 39.47 92.58-7.31 58.48-52.14 416.64-52.14 416.64l121.34 14.62s49.7-396.66 55.55-443.93-3.9-162.27-142.29-190.04c-138.39-27.78-194.92 86.25-202.72 162.27-7.79 76.02-52.62 429.3-52.62 429.3" style="fill:#ce9119;fill-opacity:1;fill-rule:nonzero;stroke:none" transform="matrix(.13333 0 0 -.13333 0 848.28)"></path><path d="m2488.61 5609.38 175.27 1.35s2.14-431.92 5.52-470.57c3.39-38.65 15.57-35.15 26.81-35.47 11.25-.31 22.31 6.26 22.14 43.06-.16 36.82-7 464.86-7 464.86l175.15-1.26s4.19-419.72 4.97-476.71-37.6-198.25-204.24-192.75-198.02 141.57-193.06 205.75c4.95 64.18-5.56 461.74-5.56 461.74" style="fill:#100f0d;fill-opacity:1;fill-rule:nonzero;stroke:none" transform="matrix(.13333 0 0 -.13333 0 848.28)"></path><path d="m2516.53 5583.59 122.53-.9s3.55-377.14 3.79-421.81c.24-44.66 8.79-85.38 50.34-82.33 41.56 3.05 50.39 28.52 49.83 87.45s-4.01 419.87-4.01 419.87l122.21.61s3.89-399.75 4.27-447.37c.39-47.63-22.48-160.75-163.14-172.47-140.66-11.73-183.74 108.03-182.77 184.44s-3.05 432.51-3.05 432.51" style="fill:#ce9119;fill-opacity:1;fill-rule:nonzero;stroke:none" transform="matrix(.13333 0 0 -.13333 0 848.28)"></path><path d="m2954.32 5615.11 153.5-7.31 80.4-251.45 104.77 243.16 152.04-9.26-34.11-663.2-173.48 10.23 7.8 162.27-21.93-53.61-103.8 5.85-14.13 56.04-9.26-165.68-175.43 10.23z" style="fill:#100f0d;fill-opacity:1;fill-rule:nonzero;stroke:none" transform="matrix(.13333 0 0 -.13333 0 848.28)"></path><path d="m2980.15 5586.48 107.21-5.48 95.5-300.67 126.21 290.92 107.7-6.34-31.68-608.62-121.83 5.84 17.06 314.31-76.5-202.23-60.92 1.95-57.5 210.99-14.13-316.73-121.83 7.31z" style="fill:#ce9119;fill-opacity:1;fill-rule:nonzero;stroke:none" transform="matrix(.13333 0 0 -.13333 0 848.28)"></path><path d="m3688.52 5335.24 172.17-20.8s12.99 100.39-9.74 154.64c-22.75 54.25-82.52 93.88-175.43 98.11-92.91 4.22-177.05-59.13-192.65-154.64-15.59-95.51.32-155.61 48.41-191.67 48.08-36.05 129.62-64.97 134.49-84.79 4.88-19.81 2.92-79.59-25.02-78.61-27.93.97-25.01 15.59-19.49 72.12l-174.77 19.82s-10.39-85.12 0-128.97c10.4-43.86 58.85-125.08 206.64-125.73s168.25 98.44 177.84 134.17c9.58 35.73 12.83 95.83 9.9 146.84-2.92 51-44.18 85.44-95.83 117.27-51.65 31.84-92.27 39.96-93.24 63.68-.97 23.71 4.55 50.35 22.1 48.73 17.54-1.63 20.13-10.07 19.16-27.62-.98-17.54-4.54-42.55-4.54-42.55" style="fill:#100f0d;fill-opacity:1;fill-rule:nonzero;stroke:none" transform="matrix(.13333 0 0 -.13333 0 848.28)"></path><path d="m3717.42 5356.35 121.51-12.99s10.07 86.74-24.05 134.82c-34.11 48.08-123.44 79.26-207.91 52.3-84.46-26.96-104.28-130.92-102.98-185.5 1.3-54.57 8.44-85.44 78.3-124.1 69.84-38.65 105.25-51.97 110.12-81.86 4.88-29.89 4.88-107.86-49.38-108.83-54.25-.98-52.95 34.43-51.33 75.69l-120.85 13s-9.09-68.87 9.1-113.05c18.2-44.19 79-83.82 173.18-84.79 94.19-.98 143.88 44.83 157.54 147.16 13.64 102.33 5.51 135.47-39.64 177.37-45.16 41.91-142.62 57.83-144.24 108.84-1.62 51 15.26 78.29 48.07 78.29 32.82 0 50.69-17.55 42.56-76.35M4150.15 5276.76c-7.15-65.29-34.77-79.59-49.71-80.56-14.94-.98-63.03 9.74-63.03 9.74l27.3 166.01s19.81.97 49.7-8.13c29.89-9.09 42.88-21.76 35.74-87.06m124.09 58.8c-.64 49.38-25.99 87.07-66.92 112.4-40.93 25.34-156.59 35.74-244.95 51.98l-97.98-599.69 114.22-20.15 38.99 218.31s113.67-35.1 182.58 11.7c68.89 46.8 74.71 176.07 74.06 225.45" style="fill:#ce9119;fill-opacity:1;fill-rule:nonzero;stroke:none" transform="matrix(.13333 0 0 -.13333 0 848.28)"></path><path d="M4512.69 5057.48c-36.38-129.3-44.18-142.94-62.38-139.69-18.19 3.25-22.73 24.04-7.79 104.6 14.94 80.57 47.43 193.62 58.48 219.61 11.04 25.99 27.28 19.49 27.28 19.49 26.64-4.55 20.79-74.72-15.59-204.01m203.37 181.92c-2.6 75.37-48.73 179.33-198.17 187.78 0 0-85.77-.66-125.4-44.84s-72.12-88.36-98.76-220.9c-26.64-132.55-47.34-207.27-19.44-286.54 27.89-79.26 116.25-127.99 202.02-119.54 85.76 8.44 147.48 60.42 183.22 174.77s59.12 233.9 56.53 309.27" style="fill:#100f0d;fill-opacity:1;fill-rule:nonzero;stroke:none" transform="matrix(.13333 0 0 -.13333 0 848.28)"></path><path d="M4531.53 5024.34c-26.64-98.76-40.93-136.44-82.51-131.24-41.59 5.2-48.74 38.33-37.04 105.25s29.24 163.74 53.93 232.6c24.69 68.88 54.58 57.83 54.58 57.83s40.28.65 48.73-32.49c8.45-33.13-11.04-133.19-37.69-231.95m158.54 229.36c-5.21 68.87-62.37 142.94-172.83 146.18 0 0-79.91 1.3-128.64-62.37-48.74-63.67-73.42-204.66-91.62-285.23-18.19-80.57-12.99-152.03 17.54-197.52 30.54-45.48 106.99-91.33 192.97-68.22 86 23.11 115.66 107.21 139.7 195.57 24.03 88.36 48.08 202.72 42.88 271.59" style="fill:#ce9119;fill-opacity:1;fill-rule:nonzero;stroke:none" transform="matrix(.13333 0 0 -.13333 0 848.28)" data-source="https://football-logos.cc"></path><!-- source: https://football-logos.cc --></svg>