<svg xmlns="http://www.w3.org/2000/svg" xmlns:xlink="http://www.w3.org/1999/xlink" xml:space="preserve" style="shape-rendering:geometricPrecision;text-rendering:geometricPrecision;image-rendering:optimizeQuality;fill-rule:evenodd;clip-rule:evenodd" viewBox="999.99 1000.01 27999.98 27999.98"><!-- Source: https://football-logos.cc --><defs data-source="https://football-logos.cc"><linearGradient id="id0" x1="9836.4" x2="20248.03" y1="7595.84" y2="7577.05" gradientUnits="userSpaceOnUse"><stop offset="0" style="stop-opacity:1;stop-color:#666"></stop><stop offset=".502" style="stop-opacity:1;stop-color:white"></stop><stop offset=".529" style="stop-opacity:1;stop-color:white"></stop><stop offset="1" style="stop-opacity:1;stop-color:#666"></stop></linearGradient><linearGradient id="id1" x1="19185.17" x2="19284.98" y1="16031.15" y2="11591.56" gradientUnits="userSpaceOnUse"><stop offset="0" style="stop-opacity:1;stop-color:white"></stop><stop offset=".639" style="stop-opacity:1;stop-color:#b3b3b3"></stop><stop offset="1" style="stop-opacity:1;stop-color:#666"></stop></linearGradient><linearGradient xlink:href="#id1" id="id2" x1="10774.26" x2="10670.01" y1="16029.59" y2="11726.88" gradientUnits="userSpaceOnUse"></linearGradient><linearGradient id="id3" x1="9798.76" x2="19984.86" y1="22123.26" y2="21897.74" gradientUnits="userSpaceOnUse"><stop offset="0" style="stop-opacity:1;stop-color:#666"></stop><stop offset=".502" style="stop-opacity:1;stop-color:white"></stop><stop offset=".588" style="stop-opacity:1;stop-color:white"></stop><stop offset="1" style="stop-opacity:1;stop-color:#666"></stop></linearGradient><style>.fil9{fill:#000}.fil1,.fil2{fill:#fff}</style></defs><g id="Katman_x0020_1" data-source="https://football-logos.cc"><g id="_1614598831744"><path d="M15487.13 1320.73h-.03l-5.5-.61c-3777.38-133-7251.26 1277.83-9814.12 3666.34-2561.51 2387.26-4212.71 5751.16-4347.14 9526.33h.39v.02l-.62 5.5c-133.01 3777.42 1277.83 7251.3 3666.34 9814.16 2388.41 2562.75 5754.42 4214.37 9531.85 4347.37 3777.41 133.01 7251.31-1277.83 9814.15-3666.34 2562.75-2388.41 4214.37-5754.43 4347.38-9531.85 133-3777.4-1277.83-7251.3-3666.35-9814.16-2387.26-2561.51-5751.17-4212.72-9526.35-4347.14zm-.03-312.08v-.45h.03l5.5.61c3863.7 136.04 7306.43 1825.22 9749.14 4446.24 2442.62 2620.9 3885.4 6173.89 3749.37 10037.59-136.04 3863.69-1825.23 7306.43-4446.25 9749.15-2620.9 2442.62-6173.87 3885.4-10037.59 3749.36-3863.7-136.02-7306.43-1825.22-9749.14-4446.24-2441.47-2619.68-3884-6170.51-3749.52-10032.1h-.45v-.02l.61-5.5c136.05-3863.68 1825.22-7306.39 4446.24-9749.12C8074.69 2316.73 11625.52 874.19 15487.1 1008.65" style="fill:#fff;fill-rule:nonzero"></path><path d="m11910.06 5365.4-481.75 221.61-705.4-1507.84-35.4 1075.11-414.4 189.75-857.62-648.32 699.24 1495.16-483 221.99-1072.77-2277.73 560.18-256.7 1146.23 898.99 27.77-1436.83 561.49-257.48zM13274.58 4663.77s-252.13 75.12-417.41 97.48c-114.72 15.19-187.72-12.43-230.27-101.27-18.66-39.56-35.86-132.59-18.79-178.05 55.93-148.72 189-178.22 443.29-192.35 253.84-14.45 223.18 374.19 223.18 374.19m534.82-63.02s-114.57-582.48-198.01-922.94c-83.88-340.2-301.51-393.4-512.49-413.99-211.27-20.28-1040.02 174.43-1040.02 174.43l15.3 442.17s521.3-128.65 784.83-187.57c263.73-58.94 259.1 289.91 259.1 289.91-649.96-71.5-950.51 198.95-1028.44 345.43-77.89 146.79-38.79 643.56 237.47 788.77 276.4 145.52 867.74-40.96 1230.01-125.54 362.41-84.34 252.24-390.64 252.25-390.67M20153.54 5775.86s-243.73-98.93-386.69-184.83c-99.06-59.75-138.8-127.02-116.47-223 10.18-42.51 54.93-125.89 96.61-150.7 136.65-81.13 259.02-20.88 466.27 127 207.24 147.43-59.73 431.57-59.73 431.57zm456.81 285.18s274.85-526.22 422.51-844.23c147.14-317.83 10.49-495.5-141.27-643.48-152.2-147.9-920.82-513.96-920.82-513.96l-264.44 354.62s487.24 225.5 729.9 344.32c242.56 118.75 20.97 388.3 20.97 388.3-462.69-462.22-866.31-438.97-1018.74-373.34-152.53 65.81-432.62 478.03-307.66 764.17 124.8 286.28 702.88 510.36 1038.53 670.89 335.53 160.72 441.02-147.29 441.02-147.29M15932.36 3663.73v1208.41l-542.96 9.93V3657.74c0-118.15-95.99-214.04-213.76-214.04h-219.01c-115.88 0-209.45 94.88-208.09 210.74l16.19 1239.27-547.22 10.28-21.9-1309.92c-5.32-326.64 234.99-594.13 717.21-594.13l355.71-.01c444.12 0 663.83 232.36 663.83 663.8M16847.69 5022.52l-549.1-82.56 257.93-1812.92 545.7 61.68zM16910.3 2928.01l-102.9-14.58c-144.07-20.39-244.33-153.66-223.95-297.68 20.39-144.1 153.69-244.34 297.75-223.95l102.91 14.52c144.02 20.36 244.32 153.68 223.94 297.75-20.38 144.06-153.69 244.32-297.75 223.94M17143.99 5056.29l200.16-401.27s488.69 198.34 710.53 235.46c221.93 37.24 262.42 52.7 309.43-77.02 32.9-90.76-56.15-131.38-112.5-147.53-50.79-14.72-101.17-30.06-150.43-49.19-176.28-68.08-512.76-213.32-578.51-351.96-92.85-195.75-75.45-612.9 296.24-801.89 0-.03 225.19-120.67 783.92 86.95 0-.01 414.12 138.72 590.78 168.41l-212.86 404.39-727.77-228.36s-155.55-90.54-214.36 29.92c-58.79 120.43 78.95 170.07 78.95 170.07l339.5 135.33s489.14 135.95 453.1 511.81c-36 375.91-208.59 629.4-516.65 631.65-307.95 2.24-1249.53-316.77-1249.53-316.77M5497.12 21631.21l549.88 756.48 430.65-202.82-606.21-829.22 446.32-327.6 638.24 880.79 423.06-222.8-1016.65-1396.45-1969.8 1475.38 319.17 449.37zM6145.61 23042.34l835.09-835.66 382.38 368.36-846.16 846.67c-81.66 81.72-81.63 214.34-.14 295.75l151.47 151.38c80.11 80.06 210.42 79.08 289.59-1.93l845.18-868.21 385.6 371.07-890.15 921.07c-222.05 229.51-573.11 248.44-906.57-84.83l-246.05-245.87c-307.1-306.94-298.48-619.46-.24-917.8M8741.79 23208.04l467.57 265.25-288.24 399.99 513.64 373.26-313.89 304.93-438.9-332.97-439.99 634.56s-127.26 128.32 39.84 248.71c167.11 120.31 343.28 257.98 343.28 257.98l-312.23 288.8s-473.9-309.42-602.11-491.08c-128.25-181.58-58.89-381.08 30.69-513.25 89.62-132.17 1000.34-1436.18 1000.34-1436.18M23215.01 22941.1l396.49 414.17c88.28 91.86 84.97 237.82-6.95 326.11l-149.39 142.93c-96 92.1-248.35 88.83-340.22-7.05l-404.35-422.14c-91.04-95.18-88.04-246.28 7.21-337.28l130.09-124.45c103.45-99.47 267.58-95.72 367.1 7.71zm-489.94-472.63c-334.47 217.84-412.69 537.53-412.69 537.53l-559.47-566.93-392.34 366.39s780.66 794 1330.65 1334.86c487.17 549.49 1020.6 16.84 1020.6 16.84.01 0 699.33-575.53 372.66-1046.44-357.92-516.64-781.83-726.65-781.83-726.65.02 0-235.44-138.91-577.58 84.4M12516.96 26153.87l-157.45 551.4c-34.95 122.48-162.77 193.19-285.29 158.64l-198.6-57.11c-127.9-36.56-201.91-169.77-165.74-297.45l160.71-561.87c36.42-126.61 168.33-200.37 295.01-163.94l172.96 49.54c138.23 38.99 217.77 182.68 178.4 320.79m513.71-203.46s-4.07-276.76-377.09-443.91c-344.81-154.53-780.43-170.2-780.43-170.2 6.11 1.3-471.89-108.76-689.95 993.64-14.29 68.04-18.31 138.39-15.08 208.13 25.57 584.17 549.51 658.19 549.51 658.19.01 0 839.55 306.79 1081.35-212.82 265.79-569.63 231.69-1033.02 231.69-1033.03M13858.62 27537.13l-536.44-39.68 291.34-2541.61 517.34 64.61zM16971.42 27443.43l-995.26-937.76 131.76 1065-572.19 50.74-286.98-2429.94 555.63-73.63 126.29 1019.7 721.72-1108.82 607.27-74.42-822.72 1263.2 1256.8 1133.17zM17841.33 26680.94l-368.89-1141.82 515.29-154.01 361.45 1141.14c34.8 110.13 152.56 171.19 262.32 136.46l204.24-64.74c107.87-34.21 167.16-150.28 131.74-257.83l-381.07-1150.26 507.14-171.11 386.07 1219.12c101.41 302.83-22.66 618.44-472.12 760.72l-331.59 105.09c-413.86 131.04-687.23-20.62-814.58-422.76M20670.94 26215.78l-475 252.44-1108.49-2305.63 472.18-221.1z" class="fil1"></path><path d="m10466.38 25476.18-255.49 513.32c-56.56 114.12-195.02 160.39-309.19 103.85l-185.08-92.27c-119.18-59.08-167.65-203.58-108.53-322.37l260.35-523.45c58.74-117.93 201.89-166.22 319.81-107.43l161.09 80.28c128.68 63.69 180.69 219.4 117.04 348.07m278.87-621.01c-318.15-240.96-645.47-206.37-645.47-206.37l344.05-718.34-477.52-245.08s-482.85 1003.27-805.67 1703.86c-352.14 644.43 329.62 966.03 329.62 966.03.01.01 778.3 463.31 1110.87-3.55 364.92-511.68 419.05-981.63 419.05-981.63s51.01-268.51-274.93-514.92" class="fil2"></path><path d="m20907.99 25496.74-664.67-1002.16 450.65-284.26 660.06 998.48c63.73 96.41 193.63 122.88 289.74 59.4l178.68-118.1c94.51-62.47 119.6-190.3 56.14-284.08l-681.47-1001.95 440.84-303.44 704.9 1045.84c180.41 263.48 147.87 621.86-245.45 881.94l-290.12 191.78c-362.21 239.46-666.69 168.45-899.3-183.45M20538.28 24004.69l-77.47 46.96c-108.43 65.78-249.66 31.19-315.4-77.24-65.78-108.43-31.2-249.7 77.24-315.43l77.43-47.02c108.47-65.8 249.69-31.19 315.54 77.27 65.68 108.45 31.15 249.67-77.34 315.46M21129.91 23619.51l-77.49 46.92c-108.48 65.84-249.7 31.2-315.43-77.19-65.83-108.42-31.27-249.74 77.23-315.48l77.42-47.02c108.49-65.75 249.76-31.15 315.49 77.27 65.79 108.43 31.21 249.66-77.22 315.5M24360.73 22573.54l-993.57-686.32 298.13-435.72 1002.9 689.22c94.87 65.87 225.31 42.35 290.99-52.35l122.16-175.9c64.53-93.05 40.5-221.17-53.31-284.67l-1004.51-677.66 296.77-445.3 1056.27 724.01c265.26 177.74 360.77 484.09 92.02 871.49l-198.33 285.75c-247.47 356.71-562.98 427.94-909.52 187.45M23466.73 21312.41l-53.88 72.91c-75.44 101.88-219.2 123.49-321.19 48.03-101.97-75.43-123.5-219.2-48.07-321.19l53.83-72.86c75.42-101.98 219.23-123.5 321.23-48.08 101.94 75.42 123.49 219.19 48.08 321.19M23868.11 20731.67l-53.88 72.87c-75.41 101.94-219.2 123.49-321.18 48.08-101.98-75.37-123.5-219.24-48.12-321.11l53.87-72.93c75.42-101.94 219.24-123.5 321.23-48.03 101.95 75.36 123.48 219.14 48.08 321.12" class="fil1"></path><path d="M9633.63 7432.39c1518.25-1082.63 3376.33-1719.47 5383.08-1719.47 2563.18 0 4883.8 1038.99 6563.63 2718.83 1679.83 1679.83 2718.83 4000.45 2718.83 6563.63 0 2563.19-1039 4883.81-2718.83 6563.64s-4000.45 2718.83-6563.63 2718.83c-2563.19 0-4883.8-1039-6563.64-2718.83-1679.83-1679.83-2718.82-4000.45-2718.82-6563.64 0-2563.18 1038.99-4883.8 2718.82-6563.63 364.67-364.68 759.56-699.17 1180.56-999.36" style="fill:none;fill-rule:nonzero"></path><path d="m8583.57 10237.4 6444.36 5609.88 6372.8-5532.84" style="fill:none"></path><path d="M9061.41 14626.02c0 1644.41 666.62 3133.25 1744.33 4210.97 286.52 286.53 602.1 543.99 941.94 767.59l827.42-1432.63c-212.81-147.39-411.64-313.52-594.12-496-776.83-776.84-1257.34-1850.16-1257.34-3035.72 0-752.67 193.67-1460.09 533.87-2075.13L9977.6 11450.92c-580.33 919.05-916.19 2007.88-916.19 3175.1" style="fill:url(#id2)"></path><path d="M19309.77 14640.23c0 1185.56-480.51 2258.88-1257.34 3035.72-174.64 174.64-364.26 334.3-566.77 476.89l819.71 1438.77c332.37-220.58 641.31-473.62 922.31-754.62 1077.7-1077.72 1744.32-2566.56 1744.32-4210.97 0-1158.68-330.97-2240.12-903.51-3154.93l-1282.09 1113.1c333.69 610.58 523.37 1311.14 523.37 2056.04" style="fill:url(#id1)"></path><path d="M20361.38 20450.12c-1375.49 1342.59-3256.34 2169.93-5330.47 2169.93-2071.25 0-3949.76-825.04-5324.74-2164.36l-1271.35 1085.03c6.08 6.11 12.16 12.21 18.25 18.3 1679.84 1679.83 4000.45 2718.83 6563.64 2718.83 2563.18 0 4883.8-1039 6563.63-2718.83q21.03-21.03 41.94-42.21z" style="fill:url(#id3)"></path><path d="M15030.91 7356.51c1938.1 0 3707.45 722.38 5053.42 1912.53l1246.65-1077.58c-1656.56-1538.07-3875.63-2478.54-6314.27-2478.54-2006.75 0-3864.83 636.84-5383.08 1719.47-329.21 234.74-642.46 490.46-937.77 765.2 208.64 183.2 672.16 585.2 1258.25 1092.21 1348.83-1202.51 3127.45-1933.29 5076.8-1933.29" style="fill:url(#id0)"></path><path d="M7399.15 14988.28c0-1684.08 545.43-3240.75 1469.24-4502.94l1109.21 965.58 1279.91 1114.18 3770.42 3282.18 3758.47-3263.09 1282.09-1113.1 1129.01-980.19c921.35 1261.21 1465.18 2815.77 1465.18 4497.38 0 2107.54-854.2 4015.52-2235.23 5396.54-21.89 21.9-43.92 43.66-66.07 65.3l1260.9 1066.69c1655.17-1676.39 2676.89-3979.64 2676.89-6521.43 0-2563.18-1039-4883.8-2718.83-6563.63a9343 9343 0 0 0-249.36-240.29l-1246.65 1077.58-5072.87 4384.84s-3166.54-2728.43-5057.35-4364.08c-586.09-507.01-1049.62-909.01-1258.25-1092.21a9312 9312 0 0 0-242.79 234.16c-1679.83 1679.83-2718.82 4000.45-2718.82 6563.63 0 2553.9 1031.46 4866.97 2700.57 6545.34l1271.35-1085.03a7497 7497 0 0 1-71.8-70.87c-1381.04-1381.03-2235.22-3289.02-2235.22-5396.54" class="fil2"></path><path d="M5734.25 14995.38c0-2563.18 1038.99-4883.8 2718.82-6563.63 79.5-79.5 160.45-157.58 242.79-234.16 295.31-274.74 608.56-530.46 937.77-765.2 1518.25-1082.63 3376.33-1719.47 5383.08-1719.47 2438.64 0 4657.71 940.47 6314.27 2478.54a9343 9343 0 0 1 249.36 240.29c1679.83 1679.83 2718.83 4000.45 2718.83 6563.63 0 2541.79-1021.72 4845.04-2676.89 6521.43a9276 9276 0 0 1-41.94 42.21c-1679.83 1679.83-4000.45 2718.83-6563.63 2718.83-2563.19 0-4883.8-1039-6563.64-2718.83-6.09-6.09-12.17-12.19-18.25-18.3-1669.11-1678.37-2700.57-3991.44-2700.57-6545.34m3897.48-8582.53L8558.97 4135.13l560.17-256.69 1146.24 898.97 27.76-1436.82 561.48-257.49 1055.45 2282.31-481.76 221.6-705.39-1507.84-35.41 1075.11-414.4 189.75-857.63-648.32 699.24 1495.16zm2442.44-2532.43-15.3-442.18s828.76-194.69 1040.04-174.42c210.97 20.59 428.6 73.79 512.48 413.98 83.44 340.47 198.01 922.95 198.01 922.95-.02.03 110.17 306.32-252.25 390.68-362.27 84.57-953.61 271.04-1230.01 125.53-276.25-145.21-315.36-641.97-237.47-788.77 77.94-146.48 378.48-416.92 1028.44-345.42 0 0 4.62-348.86-259.09-289.92-263.55 58.92-784.85 187.57-784.85 187.57m3407.43-2560.3c-3777.38-133-7251.26 1277.83-9814.12 3666.34-2561.51 2387.26-4212.71 5751.16-4347.14 9526.33l.39.02-.62 5.5c-133.01 3777.42 1277.83 7251.3 3666.34 9814.16 2388.41 2562.75 5754.42 4214.37 9531.85 4347.37 3777.41 133.01 7251.31-1277.83 9814.15-3666.34 2562.75-2388.41 4214.37-5754.43 4347.38-9531.85 133-3777.4-1277.83-7251.3-3666.35-9814.16-2387.26-2561.51-5751.17-4212.72-9526.35-4347.14l-.03.38zm5715.5 22543.95 440.87-303.45 704.88 1045.85c180.42 263.48 147.88 621.87-245.45 881.94l-290.1 191.77c-362.22 239.47-666.7 168.46-899.29-183.44l-664.7-1002.16 450.67-284.24 660.04 998.47c63.73 96.4 193.65 122.88 289.75 59.39l178.68-118.09c94.52-62.48 119.58-190.31 56.15-284.1zm1527.94-1395.6c342.16-223.31 577.62-84.4 577.61-84.4 0 0 423.9 210.02 781.81 726.66 326.68 470.9-372.65 1046.44-372.66 1046.44 0 0-533.44 532.64-1020.6-16.87-550-540.84-1330.64-1334.86-1330.64-1334.86l392.33-366.38 559.48 566.94s78.22-319.69 412.67-537.53m-18332.42-703.5L6362.4 20289.6l1016.66 1396.44-423.06 222.81-638.24-880.81-446.31 327.6 606.19 829.23-430.65 202.82-549.87-756.47-785.35 583.13zm15776.7-15556.6c-335.65-160.53-913.72-384.6-1038.53-670.88-124.96-286.14 155.13-698.36 307.66-764.18 152.43-65.63 556.04-88.87 1018.74 373.34 0 0 221.59-269.55-20.97-388.31-242.65-118.8-729.91-344.3-729.91-344.3l264.45-354.62s768.63 366.05 920.82 513.94c151.77 147.98 288.42 325.66 141.27 643.48-147.66 318.02-422.51 844.24-422.51 844.24s-105.49 308.02-441.02 147.29m3275.6 14323.15 53.87-72.95c75.44-101.93 219.26-123.48 321.23-48.03 101.96 75.36 123.48 219.14 48.09 321.13l-53.88 72.86c-75.41 101.93-219.2 123.5-321.18 48.09-101.97-75.36-123.5-219.24-48.13-321.1m-347.49 507.78c75.42-101.98 219.21-123.51 321.21-48.07 101.95 75.4 123.5 219.19 48.1 321.19l-53.89 72.9c-75.45 101.89-219.2 123.5-321.19 48.02-101.97-75.42-123.51-219.19-48.07-321.17zm269.72 847.92 298.14-435.73 1002.9 689.23c94.86 65.87 225.31 42.35 290.99-52.34l122.15-175.91c64.54-93.05 40.51-221.16-53.3-284.68l-1004.5-677.65 296.76-445.3 1056.27 724.01c265.27 177.74 360.78 484.09 92.03 871.49l-198.35 285.75c-247.45 356.7-562.96 427.93-909.5 187.46zm-2630.17 1702.01c-65.83-108.42-31.27-249.73 77.24-315.47l77.42-47.02c108.48-65.74 249.77-31.16 315.48 77.26 65.81 108.45 31.22 249.66-77.21 315.52l-77.48 46.9c-108.5 65.84-249.71 31.21-315.45-77.19m-591.57 385.18c-65.78-108.43-31.2-249.71 77.24-315.42l77.42-47.03c108.48-65.81 249.69-31.19 315.55 77.27 65.67 108.45 31.15 249.66-77.34 315.46l-77.48 46.95c-108.42 65.79-249.63 31.2-315.39-77.23m50.54 2493.8-1108.5-2305.62 472.18-221.09 1111.32 2274.28zM9966.33 23685.38l477.49 245.07-344.03 718.36s327.3-34.62 645.44 206.36c325.96 246.42 274.95 514.92 274.95 514.92s-54.13 469.95-419.05 981.63c-332.57 466.85-1110.87 3.55-1110.88 3.55 0 0-681.75-321.61-329.61-966.05 322.82-700.57 805.69-1703.84 805.69-1703.84m-1224.55-477.33 467.59 265.23-288.25 400.01 513.64 373.25-313.88 304.93-438.92-332.97-439.99 634.57s-127.26 128.31 39.85 248.71c167.12 120.29 343.28 257.97 343.28 257.97l-312.23 288.81s-473.9-309.43-602.11-491.1c-128.25-181.56-58.88-381.06 30.7-513.24 89.61-132.17 1000.32-1436.17 1000.32-1436.17m-1761.09-1001.36 382.39 368.35-846.16 846.68c-81.66 81.71-81.64 214.34-.14 295.74l151.46 151.38c80.12 80.07 210.44 79.08 289.61-1.93l845.16-868.23 385.62 371.08-890.16 921.09c-222.04 229.5-573.1 248.42-906.58-84.86l-246.04-245.85c-307.1-306.94-298.47-619.47-.24-917.8zm9671.71 2822.04 607.26-74.41-822.72 1263.18 1256.8 1133.17-722.31 92.76-995.26-937.76 131.75 1064.99-572.19 50.76-286.98-2429.96 555.63-73.62 126.29 1019.69zm1188.93 1652.22-368.89-1141.82 515.28-154.03 361.45 1141.16c34.82 110.12 152.57 171.18 262.33 136.46l204.24-64.75c107.87-34.2 167.15-150.27 131.75-257.83l-381.08-1150.26 507.13-171.12 386.08 1219.12c101.4 302.85-22.66 618.44-472.11 760.73l-331.59 105.08c-413.87 131.04-687.24-20.61-814.59-422.74M14217.51 4903.99l-21.9-1309.92c-5.32-326.64 234.99-594.13 717.21-594.13l355.7-.01c444.13 0 663.84 232.35 663.84 663.81v1208.4l-542.96 9.93V3657.74c0-118.15-95.99-214.04-213.77-214.04h-219c-115.88 0-209.44 94.88-208.09 210.75l16.19 1239.26zm-895.33 22593.45 291.34-2541.6 517.33 64.61-272.23 2516.69zm-1449.04-2161.15s435.64 15.69 780.43 170.22c373.03 167.13 377.09 443.9 377.09 443.9 0 .01 34.11 463.4-231.67 1033.03-241.81 519.6-1081.35 212.82-1081.36 212.82 0 0-523.94-74.01-549.51-658.19-3.24-69.75.78-140.1 15.09-208.13 218.05-1102.41 696.04-992.34 689.93-993.65m4974.55-20313.78-549.11-82.55 257.94-1812.92 545.69 61.67zm296.3 33.77 200.16-401.27s488.68 198.35 710.51 235.46c221.94 37.23 262.44 52.72 309.44-77.01 32.93-90.75-56.13-131.38-112.5-147.52-50.77-14.72-101.16-30.08-150.43-49.2-176.28-68.07-512.75-213.32-578.49-351.97-92.85-195.73-75.46-612.89 296.24-801.88 0-.03 225.19-120.67 783.91 86.94 0-.01 414.13 138.73 590.77 168.4l-212.84 404.41-727.78-228.35s-155.56-90.56-214.37 29.9c-58.79 120.44 78.96 170.08 78.96 170.08l339.51 135.34s489.13 135.93 453.09 511.79c-36 375.92-208.6 629.41-516.65 631.66-307.95 2.25-1249.53-316.78-1249.53-316.78M16910.3 2928l-102.91-14.57c-144.06-20.39-244.32-153.67-223.93-297.69 20.37-144.1 153.68-244.34 297.75-223.94l102.89 14.52c144.02 20.36 244.32 153.69 223.95 297.75-20.38 144.06-153.69 244.33-297.75 223.93" class="fil9"></path><path d="M12626.89 4659.97c42.55 88.85 115.56 116.48 230.27 101.29 165.3-22.37 417.43-97.48 417.43-97.48s30.65-388.65-223.2-374.2c-254.28 14.13-387.35 43.64-443.28 192.35-17.07 45.46.13 138.49 18.78 178.04M19650.39 5368.02c-22.34 95.99 17.41 163.26 116.47 223.01 142.94 85.9 386.69 184.83 386.69 184.86 0 0 266.96-284.13 59.72-431.57-207.25-147.85-329.63-208.13-466.27-127-41.7 24.82-86.45 108.2-96.61 150.7M10349.34 25128.11l-161.09-80.29c-117.92-58.78-261.06-10.48-319.81 107.44l-260.35 523.46c-59.11 118.79-10.64 263.28 108.52 322.35l185.08 92.28c114.17 56.54 252.64 10.26 309.21-103.85l255.48-513.33c63.64-128.66 11.62-284.37-117.04-348.06M11870.59 25947.48l-160.72 561.87c-36.15 127.68 37.83 260.9 165.75 297.45l198.6 57.12c122.53 34.55 250.34-36.17 285.3-158.65l157.43-551.4c39.38-138.1-40.16-281.79-178.4-320.79l-172.96-49.55c-126.67-36.41-258.58 37.35-295 163.95M22710.59 23395.12l404.34 422.14c91.87 95.87 244.23 99.14 340.22 7.04l149.39-142.92c91.93-88.3 95.24-234.25 6.96-326.09l-396.52-414.18c-99.51-103.44-263.63-107.19-367.1-7.73l-130.08 124.46c-95.24 91-98.25 242.1-7.21 337.28" class="fil9"></path><path d="m13327.25 19574.06-175.14-143.13s204.18-281.26 490.33-222.05c286.32 59.19 331.64 235.01 331.26 326.31-.19 66.18 12.41 189.34-170.18 344.82-182.6 155.49-315.84 254.17-315.84 254.17h486.42v209.75h-821.99v-190.03l458.87-391.66c33.55-28.66 62.64-62.69 82.9-102.01 28.52-55.22 47.09-130.97-11.29-194.72-106.08-115.99-261.53-41.99-355.34 108.55M14661 20163.8c-145.07 0-262.96-167.27-262.96-373.67.02-206.07 117.87-373.4 262.96-373.4 145.06 0 262.63 167.33 262.63 373.4.01 206.39-117.57 373.67-262.63 373.67m-.29-964.68c-277.15 0-501.89 261.74-501.89 584.79.01 322.67 224.74 584.8 501.87 584.8 276.86 0 501.59-262.11 501.59-584.8.01-323.06-224.73-584.78-501.57-584.79M15288.93 19329.78l271.43-111.02h222.06v1125.17h-239.36l7.35-900.63-207.22 71.51zM16465.98 19768.78c-117.25 0-212.33-84.7-212.33-188.61.02-104.19 95.08-188.61 212.32-188.61 116.96 0 212.03 84.42 212.03 188.61 0 103.91-95.08 188.63-212.03 188.63zm335.48-421.66c-135.75-179.59-332.76-169.54-459.22-137.93-87.26 21.82-168.2 66.67-226.32 135.23-108.45 127.8-98.82 269.14-71.52 365.39 24.62 86.98 77.87 164.66 155.59 210.86 209.65 124.62 448.4-35.83 448.4-35.83 24.88 133.24-96.19 229.54-96.19 229.54-192.49 125.76-360.11-64-360.11-64l-143.32 192.43c340.52 268.86 676.27 51.84 752.69-61.81 76.41-113.47 214.69-550.23 0-833.88" class="fil1"></path><path d="M11747.68 19604.58c-339.84-223.6-655.42-481.06-941.94-767.59-1077.71-1077.72-1744.33-2566.56-1744.33-4210.97 0-1167.22 335.86-2256.05 916.19-3175.1l-1109.21-965.58c-923.81 1262.19-1469.24 2818.86-1469.24 4502.94 0 2107.52 854.18 4015.51 2235.22 5396.54l71.8 70.87c1374.98 1339.32 3253.49 2164.36 5324.74 2164.36 2074.13 0 3954.98-827.34 5330.47-2169.93l66.07-65.3c1381.03-1381.02 2235.23-3289 2235.23-5396.54 0-1681.61-543.83-3236.17-1465.18-4497.38l-1129.01 980.19c572.54 914.81 903.51 1996.25 903.51 3154.93 0 1644.41-666.62 3133.25-1744.32 4210.97-281 281-589.94 534.04-922.31 754.62l-819.71-1438.77c202.51-142.59 392.13-302.25 566.77-476.89 776.83-776.84 1257.34-1850.16 1257.34-3035.72 0-744.9-189.68-1445.46-523.37-2056.04l-3758.47 3263.09-3770.42-3282.18c-340.2 615.04-533.87 1322.46-533.87 2075.13 0 1185.56 480.51 2258.88 1257.34 3035.72 182.48 182.48 381.31 348.61 594.12 496zm1404.43-173.66s204.18-281.25 490.32-222.04c286.33 59.2 331.66 235 331.26 326.3-.18 66.19 12.42 189.34-170.17 344.83-182.61 155.49-315.83 254.18-315.83 254.18h486.4v209.74h-821.98v-190.03l458.87-391.66c33.56-28.65 62.65-62.69 82.91-102.01 28.51-55.22 47.08-130.97-11.31-194.73-106.06-115.98-261.52-41.98-355.34 108.55zm1006.7 353c0-323.06 224.74-584.8 501.89-584.8 276.85.02 501.59 261.72 501.58 584.8 0 322.68-224.73 584.8-501.59 584.8-277.14 0-501.86-262.14-501.88-584.8m1384.25 560.01 7.36-900.63-207.23 71.51-54.25-185.03 271.42-111.02h222.07v1125.17zm501.32-634.1c-27.29-96.24-36.92-237.59 71.53-365.39 58.13-68.56 139.06-113.41 226.33-135.23 126.45-31.61 323.46-41.67 459.21 137.93 214.7 283.65 76.42 720.4 0 833.88-76.41 113.65-412.17 330.67-752.7 61.8l143.33-192.42s167.62 189.76 360.11 64c0 0 121.07-96.31 96.19-229.53 0 0-238.75 160.44-448.4 35.83-77.72-46.22-130.97-123.9-155.6-210.87" class="fil9"></path><path d="M9954.11 9289.8c1890.81 1635.65 5057.35 4364.08 5057.35 4364.08l5072.87-4384.84c-1345.97-1190.15-3115.32-1912.53-5053.42-1912.53-1949.35 0-3727.97 730.78-5076.8 1933.29M14661 19416.73c-145.09 0-262.94 167.34-262.96 373.4 0 206.4 117.89 373.68 262.96 373.68 145.06 0 262.64-167.3 262.63-373.68 0-206.06-117.57-373.4-262.63-373.4M16253.65 19580.17c0 103.91 95.08 188.61 212.32 188.62 116.95 0 212.03-84.71 212.03-188.62 0-104.2-95.07-188.61-212.03-188.61-117.24 0-212.31 84.41-212.32 188.61" class="fil9"></path></g></g><!-- source: https://football-logos.cc --></svg>