<svg xmlns="http://www.w3.org/2000/svg" viewBox="50.92 50.14 1020.47 1351.25"><!-- Source: https://football-logos.cc --><path fill="#911333" fill-rule="evenodd" d="M561.087 50.177q213.683-.027 509.654-.041a.423.414.314 0 1 .419.414q.11 7.25.1 14.7-.01 284.31.13 661.25c.02 35.76-6.94 70.61-17.71 106.75q-29.7 99.66-79.92 192.51-22.66 41.88-48.58 78.16-46.52 65.13-104.6 118.66c-26.29 24.24-55.73 48.32-84.58 69.51q-66.38 48.75-137.44 88.94-15.84 8.95-36.937 20.267-.161.086-.361.086-.201 0-.362-.086-21.1-11.311-36.942-20.257-71.071-40.172-137.463-88.905c-28.856-21.182-58.302-45.255-84.598-69.488q-58.094-53.515-104.631-118.633-25.929-36.273-48.6-78.147-50.244-92.837-79.97-192.489c-10.779-36.138-17.748-70.986-17.738-106.746q.043-376.94-.041-661.25-.012-7.45.096-14.7a.423.414-.329 0 1 .419-.415q295.972-.062 509.655-.09m.088 1321.761q.561 0 1.358-.43Q659.69 1319.1 742.92 1254.64q38.11-29.51 73.07-63.15 64.63-62.18 112.28-138.5 33.5-53.66 60.49-116.74 27.27-63.72 43.17-120.37c7.98-28.45 13.89-57.19 13.9-86.63q.02-63.56.02-652.42a.464.463-89.75 0 0-.459-.464q-242.067-.063-484.208-.065-242.141-.001-484.208.059a.464.463 89.75 0 0-.459.464q-.008 588.86.012 652.42c.009 29.44 5.919 58.18 13.898 86.63q15.9 56.65 43.169 120.371 26.989 63.08 60.488 116.74 47.649 76.321 112.279 138.502 34.959 33.64 73.069 63.151 83.229 64.461 180.385 116.87.797.43 1.359.43" data-source="https://football-logos.cc"></path><path fill="#fefefe" fill-rule="evenodd" d="M561.183 76.301q242.141.002 484.208.065a.464.463-89.75 0 1 .459.464q0 588.86-.02 652.42c-.01 29.44-5.92 58.18-13.9 86.63q-15.9 56.65-43.17 120.37-26.99 63.08-60.49 116.74-47.65 76.32-112.28 138.5-34.96 33.64-73.07 63.15-83.23 64.46-180.387 116.868-.797.43-1.358.43-.562 0-1.359-.43-97.156-52.409-180.385-116.87-38.11-29.511-73.069-63.151-64.63-62.181-112.279-138.502-33.499-53.66-60.488-116.74-27.269-63.721-43.169-120.371c-7.979-28.45-13.889-57.19-13.898-86.63q-.02-63.56-.012-652.42a.464.463 89.75 0 1 .459-.464q242.067-.06 484.208-.059m.037 1268.526q.247 0 .46-.117 83.4-45.65 158.4-102.4 41.81-31.64 79.3-67.67 58.63-56.36 102.25-124.24 35.08-54.59 61.37-114.96c18.39-42.21 34.37-85.96 46.96-130.98 5.78-20.66 9.84-39.51 11.24-60.33q.49-7.35.5-25.29.03-562.87-.01-611.09 0-1.97-.06-7.11a.453.447 1.816 0 0-.424-.447l-459.939-.019q-459.909-.017-459.939-.015a.453.447-1.812 0 0-.425.446q-.06 5.14-.06 7.11-.044 48.22-.056 611.09.008 17.94.498 25.29c1.398 20.82 5.457 39.671 11.235 60.331 12.587 45.021 28.564 88.772 46.95 130.984q26.286 60.372 61.362 114.964 43.615 67.884 102.24 124.248 37.488 36.033 79.295 67.676 74.996 56.756 158.392 102.412.213.117.461.117"></path><path fill-rule="evenodd" d="m561.267 100.174 459.939.019a.453.447 1.816 0 1 .424.447q.06 5.14.06 7.11.04 48.22.01 611.09-.01 17.94-.5 25.29c-1.4 20.82-5.46 39.67-11.24 60.33-12.59 45.02-28.57 88.77-46.96 130.98q-26.29 60.37-61.37 114.96-43.62 67.88-102.25 124.24-37.49 36.03-79.3 67.67-75 56.75-158.4 102.4-.213.117-.46.117t-.461-.117q-83.396-45.656-158.392-102.412-41.807-31.643-79.295-67.676-58.625-56.364-102.24-124.248-35.076-54.592-61.362-114.964c-18.386-42.212-34.363-85.963-46.95-130.984-5.778-20.66-9.837-39.511-11.235-60.331q-.49-7.35-.498-25.29.012-562.87.056-611.09 0-1.97.06-7.11a.453.447-1.812 0 1 .425-.446q.03-.002 459.939.015M546.73 160.49q.31-.97.33-2.72.14-9.72.02-26.35a1.03 1.03 89.719 0 0-1.03-1.02h-1.44a1.054 1.053-85.525 0 0-1.04.89c-.79 5.13-4.88 4.63-9.53 4.62q-60.39-.07-71.53-.01c-3.83.02-5.95-1.07-6.63-4.81a1.091 1.086 84.937 0 0-1.07-.9h-1.68a.76.76 0 0 0-.76.76v30.14a.77.77 44.877 0 0 .77.77h1.92a1.027 1.023-87.559 0 0 1.02-.94q.38-5.07 6.12-5.01 5.08.04 26.04.05a.35.35 38.185 0 1 .35.35q.06 44.86-.03 83.69-.01 3.05-3.84 4.51a1.137 1.134-10.519 0 0-.73 1.06v2.44a.77.76 0 0 0 .77.76h30.19a.67.66 0 0 0 .67-.66v-2.83a.951.948 7.039 0 0-.72-.92c-4.21-1.05-4.6-3.43-4.59-7.66q.07-36.33 0-80.38a.26.26 0 0 1 .26-.26q13.65-.25 27.68-.03 2.42.04 3.89 1.75a2.595 2.58-75.085 0 1 .42.73l.71 2.02a1.83 1.826 44.274 0 0 3.46-.04m320.49-4.58q1.18.08 56.32.05 5.06-.01 5.34 4.91a1.133 1.132 88.393 0 0 1.13 1.07h1.93a.9.9-75.371 0 0 .9-.9v-29.68a1.1 1.1-15.149 0 0-1.1-1.1h-1.19a1.631 1.623-83.223 0 0-1.58 1.25q-1.03 4.38-5.42 4.38-76.82-.01-82.41.06a1.06 1.06-.551 0 0-1.04 1.06v2.47a.809.807-81.118 0 0 .56.77q4.58 1.51 4.58 7.01-.02 31.97-.05 91.66-.01 3.44-4.27 5.59a1.165 1.157-13.194 0 0-.65 1.04v2.47a.673.671 1.82 0 0 .63.67q2.26.16 4.1.16 39.36-.09 78.75-.02 5.53.01 5.86 4.43a.993.986-2.182 0 0 .99.91h2.05a.99.98 0 0 0 .99-.98v-29.23a1.13 1.13 74.838 0 0-1.13-1.13h-1.19a1.446 1.438-85.282 0 0-1.42 1.21q-.81 4.85-5.74 4.87-24.19.09-57.07.12a.36.35 0 0 1-.36-.35v-27.99a.56.56 89.841 0 1 .56-.56q21.76-.05 33.73-.06 5.24 0 6.07 5.05a1.16 1.146-83.031 0 0 .68.88q1.12.48 2.37.16a.923.914 82.657 0 0 .68-.89V175.4a.796.787 4.228 0 0-.68-.78q-.99-.15-1.94.08a1.173 1.168 2.781 0 0-.83.75c-.94 2.71-2.28 5.74-4.92 5.77q-7.75.08-35.27.06a.51.5 90 0 1-.5-.51l.11-24.45a.41.402-88.046 0 1 .43-.41m-500.8 53.82q.55 4.3-3.18 8.01c-9.26 9.21-22.6 12.99-35.58 11.58q-17.64-1.9-25.9-17.89c-5.79-11.22-5.97-25.76-.53-37.14q8.6-17.96 28.59-19.41 16.43-1.18 29.51 8.29c3.46 2.51 7.46 6.41 7.32 10.86a1.362 1.359-29.122 0 0 2.54.72l13.33-23.08a1.332 1.331-52.794 0 0-.22-1.61c-1.17-1.15-2.09-1.4-3.46-.12-3.52 3.3-8.68-2.35-11.43-4.27q-22.62-15.8-50.59-10.23-20.61 4.09-32.07 21.16c-14.92 22.24-13.61 58.5 5.32 78.05 19.93 20.58 55.19 21.08 77.51 3.92 3.73-2.87 7.94-7.81 12-4.43a.942.918-33.963 0 0 .88.16q1.33-.44 2.1-1.43a.289.285-41.723 0 0 .02-.31l-13.67-23.67a1.34 1.34 26.344 0 0-2.49.84m319.227-17.376q-.016 43.058-.012 45.407.015 5.799-4.545 6.539a.801.8 85.345 0 0-.67.79l.02 3.18a.488.479 86.598 0 0 .527.477q.568.027 15.39.032 14.821.006 15.389-.02a.488.479-86.555 0 0 .528-.477l.022-3.18a.801.8-85.303 0 0-.669-.791q-4.56-.743-4.54-6.542.006-2.349.022-45.407t.011-45.407q-.015-5.799 4.545-6.539a.801.8 85.345 0 0 .67-.79l-.02-3.18a.488.479 86.598 0 0-.527-.477q-.568-.027-15.389-.032t-15.39.02a.488.479-86.555 0 0-.527.477l-.023 3.18a.801.8-85.303 0 0 .67.791q4.559.743 4.54 6.542-.006 2.349-.022 45.407m45.093 56.436h29.95a.817.808 5.594 0 0 .8-.65q.27-1.29-.01-3.14a.805.793 2.196 0 0-.62-.66q-4.41-.97-4.32-5.51.07-3.55.09-35a.52.51-89.46 0 1 .52-.52q20.36.17 33.6.1c15.64-.08 28.32-4.62 33.11-20.76 4.96-16.69.98-40.14-19.01-44.99q-6.78-1.64-13.1-1.68-21.21-.14-61.1-.06a.54.54-89.911 0 0-.54.54v3.09a.879.877-81.502 0 0 .62.84q4.15 1.25 4.24 5.26.24 11.46.13 92.66 0 5.04-4.43 6.08a.864.852-6.907 0 0-.66.83v2.85a.73.72 0 0 0 .73.72m-556.7-.71v-2.89a.847.842-81.699 0 0-.6-.81c-5.74-1.7-5.66-4.9-3.57-9.75q4.74-11.01 5.97-14.07a.68.676-79.156 0 1 .63-.43h40.91a.742.731-10.333 0 1 .69.47q.25.67 4.83 12.14c2.1 5.27 4.46 9.52-2.08 11.8a.817.814-9.561 0 0-.55.77v2.75a.75.74 90 0 0 .74.75h34.86a.86.85 90 0 0 .85-.86v-2.62a1.121 1.107-82.59 0 0-.82-1.08c-5.08-1.36-6.48-6.08-8.74-11.38q-17.52-41.16-34.3-82.02c-1.79-4.36-2.7-8.4 2.17-10.45a1.174 1.166 84.352 0 0 .7-.86q.29-1.47.08-2.73a1.034 1.033 85.423 0 0-1.02-.87h-33.67a.87.87-45 0 0-.87.87v2.47a1.096 1.09-78.723 0 0 .67 1.01q5.64 2.37 3.21 8.39-19.43 48.1-36.31 90.81-1 2.53-5.36 4.84a1.239 1.236 75.886 0 0-.65 1.09v2.7a.69.69-45 0 0 .69.69h30.81a.73.73 87.634 0 0 .73-.73m405.38-3.06a.713.712 5.373 0 0-.58-.7c-5.18-.94-4.14-5.63-2.86-9.1q2.16-5.82 5.76-14.61a.78.78 62.535 0 1 .72-.48h41.36a.787.772-11.308 0 1 .72.47q4.37 10.47 6.97 17.13c1.28 3.3-.05 5.05-2.94 6.62q-1.82.98-.89 3.95a.703.693-8.382 0 0 .67.49h34.36a.68.67-90 0 0 .67-.68v-2.9a.969.967 6.85 0 0-.74-.94q-4.56-1.08-6.99-6.7-19.4-44.85-37.54-88.62-2.59-6.23 3.23-8.72a.953.933-12.094 0 0 .57-.86v-2.77a.67.67 72.663 0 0-.67-.67h-34.76a.65.64 90 0 0-.64.65v3.05a.796.781-80.798 0 0 .53.75c4.32 1.44 4.6 5.62 3.12 9.41q-16 41.09-36.02 90.16-1.12 2.75-5.51 4.58a.996.99-11.789 0 0-.6.91v2.51a.83.83-8.916 0 0 .83.83h30.6a.63.63-78.757 0 0 .63-.63zm397.367-52.641q.008-43.049.003-45.397-.016-5.798 4.543-6.539a.801.799 85.334 0 0 .669-.79l-.02-3.179a.488.479 86.587 0 0-.528-.477q-.568-.026-15.386-.029t-15.386.024a.488.479-86.567 0 0-.527.477l-.022 3.179a.801.799-85.314 0 0 .67.79q4.558.742 4.54 6.54-.006 2.349-.013 45.397-.008 43.048-.003 45.397.016 5.798-4.543 6.538a.801.799 85.334 0 0-.669.79l.02 3.18a.488.479 86.587 0 0 .528.477q.568.026 15.386.029 14.817.002 15.386-.024a.488.479-86.567 0 0 .527-.477l.022-3.179a.801.799-85.314 0 0-.67-.79q-4.558-.742-4.54-6.54.005-2.349.013-45.397M274.33 399.18q-.62-.38-1.19-.49c-23.02-4.4-51.54-14.8-58.9-39.91a1.281 1.275-14.59 0 1 .95-1.61c23.52-5.36 42.8 3.49 56.26 22.91a.351.35 27.521 0 0 .64-.2c-.25-20.82-13.37-42.73-35.47-46.3q-13.23-2.13-27.55.65a.416.416 82.948 0 1-.5-.39q-.46-10.74 3.84-20.27a3.214 2.966-10.694 0 1 .78-1.05q1.43-1.27 4.25-2.35c16.46-6.31 37.41-5.73 53.61 1.06q8.72 3.65 16.16 8.61a.333.33-87.892 0 0 .47-.44c-6.76-12.32-15.6-22.47-28.16-29.15-19.98-10.63-44.37-12.29-66.28-7.81a1.828 1.808-83.014 0 0-1.29 1.02c-12.35 26.96-19.56 60.55.13 85.93 8.88 11.45 21.62 19.27 35.91 24.61q22.36 8.36 46.2 5.79a.331.329-32.256 0 0 .14-.61m633.61-41.07c-4.41 19.13-24.86 31.81-42.48 36.84q-7.74 2.21-16.36 4.12a.487.486-48.634 0 0 .06.96c23.74 2.19 49.59-3.87 68.72-18.2 25.92-19.42 28.57-50.42 19.84-79.78q-3.62-12.17-7.56-18.97a1.34 1.34-9.362 0 0-.88-.63q-27.36-5.4-51.73 1.62-28.61 8.22-42.8 35.3a.118.107-42.145 0 0-.01.1q.07.2.09.24a.369.364 59.417 0 0 .53.14c9.24-5.96 20.12-11.13 30.77-12.81 14.12-2.23 28.57-1.8 41.63 4.52q1.66.8 2.79 3.4 3.92 9.06 3.13 18.84a.557.556 8.199 0 1-.67.5q-8.11-1.63-17.01-1.68c-17.33-.12-32.16 8.32-40.32 23.64-3.99 7.5-4.63 15.68-5.54 23.62a.526.521-25.269 0 0 .96.34c5.8-8.82 15.88-17.74 25.81-21.46q14.54-5.45 30.57-1.41a.638.631-76.525 0 1 .46.76m-435.56-36.52a.292.289 56.461 0 0-.11.56q10.35 4.3 20.78 9.99c16.8 9.16 31.18 22.06 42.65 36.63a2.461 2.455 28.067 0 1 .52 1.7c-.95 12.83-5.02 26.98-12.79 37.47-3.36 4.53-7.73 4.44-12.99 3.26q-8.41-1.87-18.57-8.31-24.92-15.8-43.27-38.48a.494.488-51.597 0 0-.82.1q-.19.39-.08 1c4.68 26.71 24.69 51.81 45.41 68.08q10.19 8 22.2 12.08 11.15 3.79 19.06-4.16c8.73-8.78 13.49-23.63 15.98-36.37q2.51-12.81 3.65-25.39c2.48-27.53-4.12-57.63-17.46-81.09q-5.75-10.11-13.99-18.27a.274.272-76.723 0 0-.45.28q4.69 14.51 9.7 32.73 3.58 13.06 4.48 25.85a.345.345-45 0 1-.37.37q-.41-.02-.77-.26c-18.92-12.29-40.43-17.6-62.76-17.77m178.48.06q-11.39.37-21.93 1.98-22.8 3.48-41.57 16.28a.504.5 74.747 0 1-.78-.45c.28-4.29.86-9.9 1.72-13.93q4.76-22.34 12.41-44.85a.311.309-14.028 0 0-.52-.31c-20.61 21.56-31.01 52.64-32.25 81.89q-1.03 24.45 5.12 47.7c3.38 12.78 9.22 32.45 23.56 36.42 11.81 3.27 31.19-10.52 39.59-18.16q10.11-9.2 19.33-21.4 10.56-13.96 17.11-30.89 2.12-5.49 3.02-10.75a.612.612 70.043 0 0-1.07-.5q-20.63 24.42-48.76 40.87-7.28 4.25-12.55 5.51c-9.97 2.39-13.27-.28-17.56-8.79q-7.54-14.97-8.93-31.53a2.516 2.501 62.544 0 1 .56-1.79c8.82-10.65 18.49-21.33 29.44-28.89q15.81-10.92 34.19-17.75a.341.34-56.213 0 0-.13-.66m-259.19-1.92q-.38.21-.71.73-4.07 6.62-8.77 15.24-7.72 14.15-10.34 30.81-3.29 20.86 5.51 40.17a.507.503-9.519 0 1-.51.71q-17.23-1.55-33.13-7.68c-11.89-4.57-26.72-14.84-30.47-27.69q-1.35-4.61-1.87-7.54a.389.387-33.738 0 0-.71-.14c-2.6 4.06-3.74 11.45-4 15.97q-1.35 23.09 18.23 34.79 12.18 7.27 24.14 9.57 18.5 3.56 31.13 7.2c45.23 13.03 84.37 41.17 109.37 81.02q11.12 17.72 18.41 35.61a.253.252 47.368 0 0 .46.02q.22-.45.23-1.04c.21-13.7-4-28.74-9.37-40.75q-17.73-39.67-45.93-68.89c-7.73-8.01-16.09-13.36-26.31-20.12q-8.87-5.86-17.64-14.86c-12.2-12.52-18.71-28.97-20.3-46.11-1.04-11.31-.22-25.23 2.95-36.72a.26.259 83.888 0 0-.37-.3m338.79.29q-.11.32-.02.66 8.29 30.01-2.2 58.28-5.85 15.77-17.1 26.42-8.22 7.78-21.64 16.49c-6.7 4.34-12.23 8.08-16.55 12.34-14.52 14.31-27.61 30.76-37.56 48.88q-9.08 16.52-15.39 32.89c-3.94 10.21-6.67 21.18-5.63 32.16a.454.451 53.292 0 0 .87.13c7.53-18.79 18.24-38.01 30.85-53.36 12.5-15.21 28.01-29.55 45.59-40.16q14.06-8.47 23.7-12.87 18.06-8.23 37.25-12.75c11.44-2.69 24.32-4.4 36.4-9.34 8.92-3.64 17.62-9.62 22.1-17.94 6.38-11.84 5.98-25.27 0-37.11a.287.286 35.405 0 0-.54.09c-.89 6.48-2.31 12.25-6.64 17.41-14.21 16.91-37.33 22.95-58.47 25.3a.47.469 8.594 0 1-.48-.65c12.93-30.23 3.76-61.15-13.78-86.97a.431.426 37.134 0 0-.76.1M406.83 672.19q-.35-.17-.59-.13c-28.65 4.61-58 8.04-85.49 7.88q-21.86-.14-43.99-3.17-21.73-2.98-41.05-10.67c-23.16-9.21-41.1-25.88-51.45-48.34-5.93-12.87-9.65-25.67-12.6-39.93q-5.24-25.35-1.08-50.56 4.19-25.45 12.62-49.06 10.23-28.65 27.17-53.13a.345.341 28.254 0 0-.16-.52q-.16-.07-.34.08c-11.94 9.71-21.45 20.6-30.63 32.61q-31.49 41.18-40.53 92.36-4.21 23.8.93 47.84c4.34 20.33 11.74 42.42 23.46 60.42q18.2 27.91 48.04 39.76c22.65 8.98 47.66 10.44 72.1 8.73q33.66-2.35 68.16-12.35 11.99-3.48 28.16-9.38 14.1-5.15 27.27-11.75a.386.383-45.205 0 0 0-.69m26.77-30.82a.215.215-38.265 0 0 .05-.42q-3.6-1.09-5.17-1.47-33.86-8.15-46.95-11.55c-29.53-7.68-59.69-17.76-84.79-34.93q-24.75-16.92-35.93-44.79c-8.22-20.48-9.5-41.31-6.11-63.02 3.07-19.65 10.22-40.83 18.87-60.01a.311.305-73.774 0 0-.23-.43q-.4-.06-.69.22c-17.94 17.7-29.6 38.65-38.36 62.17q-9.43 25.31-7.57 52.03c1.04 14.9 5.56 28.32 12.4 41.03q7.71 14.33 17.84 22.87c19.82 16.74 45.1 25.63 71.09 30.82q52.15 10.4 105.55 7.48m281.97 31.36q.18.27.71.52 46.46 21.48 97.76 29.91c28.24 4.64 59.67 6.25 87-1.86q42.52-12.63 63.16-51.64 10.89-20.59 17.41-47.6 6.73-27.89 1.62-54.78-5.53-29.06-18.58-55.43c-9.45-19.13-22.85-37.47-37.42-53.59q-6.61-7.3-14.67-13.52a.238.237 3.333 0 0-.35.31q3.28 5.44 6.67 10.79 8.19 12.93 14.82 28.63c7.98 18.92 14.67 40.86 18.12 62.2q4.17 25.84-.93 51.23-4.12 20.5-11.77 37.97-10.79 24.67-32.75 40c-17.74 12.39-41.37 18.45-62.44 21.25-34.08 4.52-67.23 3.24-103.01-1.53q-22.47-3-24.95-3.47a.399.396 78.425 0 0-.4.61m-26.776-31.186q53.376 2.92 105.503-7.475c25.979-5.187 51.247-14.073 71.059-30.805q10.125-8.536 17.832-22.86c6.837-12.704 11.355-26.118 12.395-41.011q1.86-26.708-7.566-52.007c-8.756-23.51-20.41-44.451-38.342-62.143q-.29-.28-.689-.22a.311.305 73.775 0 0-.23.43c8.645 19.172 15.792 40.342 18.86 59.983 3.389 21.701 2.109 42.522-6.108 62.992q-11.175 27.858-35.914 44.77c-25.089 17.162-55.236 27.237-84.753 34.913q-13.084 3.398-46.929 11.544-1.569.38-5.168 1.47a.215.214 38.265 0 0 .05.419M314.46 547.53a.315.313 71.308 0 0-.27.55q20.76 17.27 47.02 22.47 20.18 3.99 38.56 2.73c16.1-1.1 26.59-1.65 37.54-.48 14.02 1.49 28.07 8.58 30.47 23.67q1.22 7.63-.85 14.76-.11.4.1.69a.38.374 54.367 0 0 .52.09q8.29-5.74 13.38-15.13c12.17-22.46 1.93-46.09-14.16-63.67q-15.59-17.04-33.65-28.85-22.93-14.99-48.16-26.29a.316.311 13.026 0 0-.44.27c-1.1 17.6.5 42.5 19.19 51.2 3.77 1.75 9.68 2.43 13.62 3.64 10.97 3.36 19.42 10.6 27.15 18.63a.533.532-36.859 0 1-.12.83q-.57.32-1.61.38-5.46.33-12.84 1.07c-7.72.77-19.68.6-28.15-1.4-13.08-3.09-24.55-8.3-33.52-18.61-8.33-9.57-13.96-22.68-17.61-34.65q-4.78-15.68-4.28-32.29a.572.571 6.749 0 0-.45-.57q-27.05-5.74-53.71-5.09a.494.491-27.74 0 0-.28.89q15.46 11.04 26.69 26.03c3.78 5.04 6.19 10.21 6.94 16.56.72 6.07 1.08 11.5 2.3 16.17q3.86 14.77 14.98 26.19a.482.482 62.832 0 1-.26.81q-14.59 2.66-28.1-.6m516.35-85.44a.366.361-81.827 0 0-.34-.46q-26.52-.84-53.52 5.04a.711.707-4.922 0 0-.55.65q-.6 10.15-1.06 14.54c-1.31 12.58-5.53 26.04-10.75 36.57q-6.09 12.32-15.84 21.06c-9.42 8.46-23.6 13.46-35.79 14.37q-16.86 1.27-34.43-1.05a.684.681-63.691 0 1-.39-1.16c7.14-7.1 15.79-14.58 25.23-17.78 4.67-1.59 12.97-2.2 17.53-4.92 16.64-9.95 18.41-32.66 17.6-50.63a.434.43-13.523 0 0-.61-.37q-19.88 9.25-37.34 19.62-18.01 10.7-28.19 19.68-14.09 12.42-23.61 25.03-8.85 11.71-11.71 25.06c-3.75 17.51 3.41 33.75 17.92 44.59a.37.368-77.391 0 0 .58-.37c-1.41-7.23-1.84-15.6 1.66-22.38 6.05-11.72 20.35-15.95 32.63-16.78 12.96-.88 25.97.61 37.67 1.05q17.3.65 35.58-3.19 25.78-5.43 45.71-22.38a.224.223 19.102 0 0-.19-.39q-14.3 3.08-28.38.65a.476.47 26.464 0 1-.27-.79q8.4-8.94 12.53-20.17c2.57-6.99 3.06-12.92 4.24-21.7q.82-6.09 2.75-9.56c7.69-13.79 18.27-24.01 31.04-33.41q.23-.17.3-.42M140.15 691.22c-5.35 23.66-4.63 48.62 5.3 70.87q11.02 24.69 35.66 36.08 14.54 6.72 29.39 8.89 55.72 8.15 107-15.07 24.67-11.18 44.91-29.43 2.94-2.65 6.2-6.14c5.11-5.47 10.27-10.66 14.58-16.2q7.81-10.02 14.56-21.58a.426.422-2.154 0 0-.61-.56c-23.23 15.84-46.92 29.6-72.77 40.78q-22.22 9.62-47.34 15.15c-40.24 8.86-80.46 4.11-109.18-27.26-9.79-10.7-17.57-24.87-21.73-38.36q-3.28-10.65-5.32-17.2a.339.336-47.4 0 0-.65.03m840.85.15q-2.44 9.99-5.02 17.86-4.77 14.57-13.09 27.21-8.1 12.32-20.73 21.89c-24.74 18.75-55.68 22.79-86.15 17.61-47.53-8.09-90.72-30.35-130.16-57.72a.435.43-87.261 0 0-.62.57q3.86 7.05 8.48 13.59 31.75 44.88 83.72 64.51 38.79 14.65 81.31 11.88 15.5-1 32.3-6.39 26.77-8.57 40.77-30.58c6.02-9.48 10.31-21.82 12.05-32.74q3.83-23.97-1.87-47.69a.51.509-44.93 0 0-.99 0m-342.98 12.95q.89 7.76-4.11 12.31c-6.54 5.95-18.49 5.02-26.67 4.18-16.26-1.65-31.48.25-45.26 8.6a.93.914 44.523 0 1-.97 0q-16.19-9.67-35.26-9.04-8.31.27-15.49.93-5.17.48-11.83-.47-14.06-2-14.46-16.18a.552.548-22.538 0 0-.93-.38c-8.15 7.74-15.97 17.86-17.41 29.1-2.91 22.7 17 41.09 38 44.57a.396.388-12.997 0 0 .39-.61c-4.28-5.96-5.59-13.4 1.19-18.31q5.36-3.89 12.03-3.37c22.56 1.75 34.41 23 39.41 42.69q2.84 11.21 3.58 14.27.21.88.73 1.85a.535.535-51.908 0 0 .99-.12q1.75-6.82 4.58-18.11c3.77-15.07 12.12-30.92 26.91-37.4q7.55-3.3 13.35-3.34c7.23-.06 16.23 4.58 16.43 12.75.08 3.22-1.86 6.46-3.91 8.93a.512.511 15.011 0 0 .48.83c23.15-3.93 40.94-24.29 35.99-48.33-2-9.68-9.31-19.38-17.02-25.75a.453.452-73.329 0 0-.74.4m-25.19 213.46q6.15-3.01 13.16-7.79 18.82-12.84 35.85-23.18a.443.434 71.693 0 1 .66.34q1.1 11.13.98 19.35c-.51 33.68-6.58 66.15-15.81 100.64q-1.44 5.36-2.23 10.44a.378.377 80.289 0 0 .55.39q4.86-2.62 8.89-6.82 10.28-10.74 16.57-24.2 8.24-17.65 12.95-36.02 8.69-33.86 9.41-68.64a.684.679-6.005 0 1 .53-.65l15.53-3.61a1.18 1.166 61.403 0 1 1.13.34q37.18 39.45 85.12 65.73c28.77 15.76 60.88 27.08 93.13 29.58q1.47.12 2.73 0a.255.253 52.26 0 0 .06-.49q-68.94-26.74-129.83-67.97c-13.01-8.81-28.37-20.34-40.31-30.95a.606.602-36.643 0 1 .15-1q8.98-4.24 17.42-11.63a.738.729 42.092 0 1 .9-.04q21.81 15.44 45.49 27.04c8.27 4.05 20.32 9.17 27.55 11.91 21.26 8.07 43.34 14.28 66.66 17.12 19.77 2.41 37.84 3.5 56.54 2.26a.338.334 53.278 0 0 .09-.65q-1.19-.45-2.38-.66-13.83-2.38-26.61-4.83-47.25-9.04-92.49-26.31-16.41-6.27-34.2-15.26-18.75-9.48-32.79-18.22a.923.922-54.622 0 1-.23-1.36q5.32-6.63 7.87-14.31a.992.986 21.906 0 1 1.37-.58q14.28 6.92 25.7 12.05 17.15 7.71 43.26 15.51 49.02 14.65 101.07 11.24 17.18-1.12 36.88-5.1.93-.19 1.37-.81a.287.285 18.047 0 0-.23-.45q-11.35-.2-23.53-.79-51.13-2.43-100.62-16.06-18.91-5.21-26.26-7.71-28.08-9.54-55.31-21.29a1.637 1.636 13.113 0 1-.99-1.59q1.85-33.88-27.18-50.18a.437.436-73.201 0 0-.65.35q-.01.09-.01.28a1.783 1.574-59.872 0 0 .11.55c5.02 13.47 8.34 26.13 7.47 40.52a.434.43-74.524 0 1-.63.36l-50.32-25.87a.279.278-86.009 0 0-.39.34q.07.22.39.53 8.14 7.72 16.96 14.29 16.22 12.09 32.09 21.76a1.08 1.08 55.985 0 1 .48 1.2q-2.09 7.87-6.78 14.2a1.36 1.354-53.894 0 1-1.89.3l-53.53-38.32a.438.438 86.752 0 0-.58.65q21.69 24.24 47.18 43.72a.933.927 46.713 0 1-.04 1.51q-8.15 5.53-19.34 7.24a.464.448 61.975 0 1-.4-.13l-40.72-38.56a.434.43-85.485 0 0-.65.56c9.28 13.78 19.35 26.04 29.96 38.6q.36.42.4.92a.382.381 85.708 0 1-.36.42q-13.46.75-27.4.18-30.45-1.25-60.79-7.12-20.31-3.93-39.83-11.26a2.056 2.032 44.282 0 0-1.45.01q-20.03 7.71-41.48 11.61c-28.93 5.26-58.3 8.4-87.06 6.62a.33.33 89.043 0 1-.32-.31q-.04-.65.58-1.31c10.49-11.23 21.13-24.57 30.04-38.44a.304.304 85.253 0 0-.46-.39q-22.96 20.68-40.38 38.47a1.292 1.278 27.44 0 1-1.16.36q-10.21-1.88-19.18-7.66a.723.718 42.77 0 1-.05-1.18c13.28-10 25.53-21.6 38.27-33.96 3.34-3.24 6.01-6.41 9.07-9.45a.349.346 6.708 0 0-.43-.54q-6.54 3.98-10 6.52-11.88 8.73-44.06 31.15a.797.792-35.969 0 1-1.09-.17q-4.72-6.2-6.8-14.2a1.312 1.29-23.388 0 1 .58-1.43c16.58-10.23 33.55-22.12 47.99-35.01q.99-.88 1.32-1.33a.321.32 3.971 0 0-.41-.47L385.3 814.8a.722.716-15.846 0 1-1.05-.58c-1.07-13.77 2.27-27.86 7.47-40.89a.43.428 86.853 0 0-.6-.54c-19.19 10.32-28.27 28.16-27.23 50.07a1.448 1.43 77.222 0 1-.87 1.4c-18.78 7.98-38.57 16.08-58.43 22.38q-58.85 18.68-118.6 22.54-17.19 1.12-29.37 1.2a.269.268 54.885 0 0-.09.52q1.27.47 3.22.85 40.18 7.74 78.76 4.49c43.35-3.65 87.68-18.12 126.85-38.46a.976.97-22.946 0 1 1.37.55q2.55 7.6 7.64 14.34a.801.795 55.481 0 1-.21 1.16c-23 14.64-47.43 26.66-73.69 36.3q-35.8 13.13-75.1 21.47-17.87 3.79-38.26 7.53a.428.427 64.669 0 0-.25.7q.2.22.37.23 46.67 1.85 91.39-9.65 26.64-6.84 54.02-19.77 26.42-12.46 49.56-29.05a1.016 1.013-42.166 0 1 1.25.06q7.52 6.63 16.8 11.55a.74.733 38.14 0 1 .15 1.2q-7.28 6.49-11.16 9.59-28.82 22.98-60.8 41.94c-30.6 18.15-64.26 34.94-97.27 46.91a.46.459 35.476 0 0 .15.89q4.11.1 9.47-.62 41.66-5.6 79.95-25.4 38.41-19.86 72.42-51.06 9.38-8.6 18.72-18.06a2.003 1.99 29.308 0 1 1.91-.53l14.81 3.72a.371.37-83.016 0 1 .28.36c.39 30.58 5.29 59.97 15.83 89.14 6.87 19.02 15.09 35.47 31.59 46.64a.408.406-76.603 0 0 .63-.39q-.53-4.27-1.16-6.79-3.45-13.94-6.86-27.91-7.59-31.16-9.38-65.32-.9-17.14 1.09-30.22a.55.546 20.442 0 1 .84-.38l48.35 31.01a.481.478-86.324 0 0 .69-.61c-5.06-10.68-9.96-21.07-9.72-32.62a.764.761-85.607 0 1 .86-.74q10.55 1.45 22.11 2.11 37.12 2.13 76.73.08 12.11-.63 21.95-2.5a.351.35 85.514 0 1 .42.36c-.51 12.04-5.52 23.33-10.39 33.42a.274.272-.528 0 0 .37.36m26.41 190.39c1.91 5.28 2.5 10.86 3 16.52 1.4 15.84-.16 31.92-7.66 45.89-5.9 10.98-14.58 17.05-24.07 24.43q-5.72 4.46-8.42 8.59c-9.27 14.2-16.12 27.47-30.97 31.76-14.04 4.05-26.79-.43-36.09-11.55q-4.75-5.69-5.35-6.59c-6.5-9.81-11-16.92-18.08-22.57q-9.34-7.46-11.7-9.54c-21.09-18.5-23.67-51.6-16.6-76.7a.406.404 78.727 0 0-.64-.43q-5.45 4.3-10.45 9.91c-11.76 13.17-13.81 32.26-11.58 49.01 1.32 9.89 4.94 17.77 10.89 25.59q7.35 9.66 17.34 20.9 3.7 4.17 7.07 9.03a.353.35-2 0 1-.47.5q-10.7-6.23-28.48-17.41-10.65-6.7-19.69-14.07c-10.87-8.86-19.62-18.53-24.3-31.97q-3.94-11.32-1.94-23.71c1.1-6.87 3.36-13.67 4.03-20.03 1.65-15.83-4.06-28.17-14.13-40.28-6.98-8.4-11.68-18.5-14.14-28.77-5.34-22.39-4.55-45.31 1.41-68.06a.468.465-19.641 0 0-.83-.39q-11.72 15.89-18.77 34.23-7.03 18.3-4.94 37.93a.308.305-73.102 0 1-.5.27c-15.64-13.07-35.9-20-56.02-23.57q-24.65-4.37-49.11-1.7a.74.74-19.667 0 0-.54 1.14q.1.15.67.22c29.36 3.7 57.75 11.88 80.65 29.5q17.04 13.12 29.17 32.52 16.21 25.95 18.7 57.73.3 3.85.24 16.16c-.05 11.88 1.32 24.1 7.23 34.51 2.49 4.39 5.87 7.23 10.48 10.68 5.95 4.45 13.95 10.53 21.84 15.74 8.34 5.51 16.23 11.18 22.46 15.16q40.46 25.83 84.1 49.71 12.38 6.77 25.18 4.36 6.74-1.28 18.92-8.05c37.35-20.77 72.76-42.25 107.48-66.64q2.13-1.5 12.65-9.52 7.3-5.57 9.93-9.73c10.08-15.92 8.52-34.42 8.79-51.86.45-28.36 14.13-56.67 33.57-77.73 24.75-26.82 59.25-37.59 94.41-42.55q.89-.13 1.33-.49a.43.429 28.871 0 0-.22-.76c-28.97-3.35-59.69 1.17-85.76 12.58q-11.51 5.04-19.69 12.57a.473.47 69.926 0 1-.79-.37c.77-16.26-1.13-30.61-8.07-45.57q-5.95-12.82-13.85-24.37-.9-1.32-2.02-2.22a.294.29 12.954 0 0-.47.29q4.95 20.66 4.52 41.32-.3 14.46-4.4 30.2c-2.16 8.27-5.65 16.1-10.64 22.77q-.48.65-7.34 9.39-1.39 1.77-4.8 8.52c-5.03 9.93-6 21.59-3.31 31.99q2.95 11.45 3.58 16.89c1.69 14.71-4.44 29.82-14.45 40.62-6.27 6.76-13.32 11.96-21.48 18.3q-4.26 3.32-10.28 7.07-14.1 8.78-28.21 17.17-.45.27-.65-.22-.09-.25.13-.56 3.05-4.35 7.94-10.04c6.24-7.27 11.96-14.27 16.46-20.08q9.48-12.23 10.63-27.74.71-9.6.39-14.53-1.7-26-22.78-41.68a.332.332-81.67 0 0-.51.38"></path><path fill="#fefefe" fill-rule="evenodd" d="M546.73 160.49a1.83 1.826 44.274 0 1-3.46.04l-.71-2.02a2.595 2.58-75.085 0 0-.42-.73q-1.47-1.71-3.89-1.75-14.03-.22-27.68.03a.26.26 0 0 0-.26.26q.07 44.05 0 80.38c-.01 4.23.38 6.61 4.59 7.66a.951.948 7.039 0 1 .72.92v2.83a.67.66 0 0 1-.67.66h-30.19a.77.76 0 0 1-.77-.76v-2.44a1.137 1.134-10.519 0 1 .73-1.06q3.83-1.46 3.84-4.51.09-38.83.03-83.69a.35.35-10.392 0 0-.35-.35q-20.96-.01-26.04-.05-5.74-.06-6.12 5.01a1.027 1.023-87.559 0 1-1.02.94h-1.92a.77.77 44.985 0 1-.77-.77v-30.14a.76.76-45 0 1 .76-.76h1.68a1.091 1.086 84.937 0 1 1.07.9c.68 3.74 2.8 4.83 6.63 4.81q11.14-.06 71.53.01c4.65.01 8.74.51 9.53-4.62a1.054 1.053-85.525 0 1 1.04-.89h1.44a1.03 1.03 89.719 0 1 1.03 1.02q.12 16.63-.02 26.35-.02 1.75-.33 2.72M867.22 155.91a.41.402-88.046 0 0-.43.41l-.11 24.45a.51.5 90 0 0 .5.51q27.52.02 35.27-.06c2.64-.03 3.98-3.06 4.92-5.77a1.173 1.168 2.781 0 1 .83-.75q.95-.23 1.94-.08a.796.787 4.228 0 1 .68.78v29.87a.923.914 82.657 0 1-.68.89q-1.25.32-2.37-.16a1.16 1.146-83.031 0 1-.68-.88q-.83-5.05-6.07-5.05-11.97.01-33.73.06a.56.56 90 0 0-.56.56v27.99a.36.35 0 0 0 .36.35q32.88-.03 57.07-.12 4.93-.02 5.74-4.87a1.446 1.438-85.282 0 1 1.42-1.21h1.19a1.13 1.13-56.25 0 1 1.13 1.13v29.23a.99.98 0 0 1-.99.98h-2.05a.993.986-2.182 0 1-.99-.91q-.33-4.42-5.86-4.43-39.39-.07-78.75.02-1.84 0-4.1-.16a.673.671 1.82 0 1-.63-.67v-2.47a1.165 1.157-13.194 0 1 .65-1.04q4.26-2.15 4.27-5.59.03-59.69.05-91.66 0-5.5-4.58-7.01a.809.807-81.118 0 1-.56-.77v-2.47a1.06 1.06-.551 0 1 1.04-1.06q5.59-.07 82.41-.06 4.39 0 5.42-4.38a1.631 1.623-83.223 0 1 1.58-1.25h1.19a1.1 1.1 33.759 0 1 1.1 1.1v29.68a.9.9-54.778 0 1-.9.9h-1.93a1.133 1.132 88.393 0 1-1.13-1.07q-.28-4.92-5.34-4.91-55.14.03-56.32-.05M366.42 209.73a1.34 1.34 26.344 0 1 2.49-.84l13.67 23.67a.289.285-41.723 0 1-.02.31q-.77.99-2.1 1.43a.942.918-33.963 0 1-.88-.16c-4.06-3.38-8.27 1.56-12 4.43-22.32 17.16-57.58 16.66-77.51-3.92-18.93-19.55-20.24-55.81-5.32-78.05q11.46-17.07 32.07-21.16 27.97-5.57 50.59 10.23c2.75 1.92 7.91 7.57 11.43 4.27 1.37-1.28 2.29-1.03 3.46.12a1.332 1.331-52.794 0 1 .22 1.61l-13.33 23.08a1.362 1.359-29.122 0 1-2.54-.72c.14-4.45-3.86-8.35-7.32-10.86q-13.08-9.47-29.51-8.29-19.99 1.45-28.59 19.41c-5.44 11.38-5.26 25.92.53 37.14q8.26 15.99 25.9 17.89c12.98 1.41 26.32-2.37 35.58-11.58q3.73-3.71 3.18-8.01M696.399 135.937q14.821.005 15.389.032a.488.479 86.598 0 1 .527.477l.02 3.18a.801.8 85.345 0 1-.67.79q-4.56.74-4.545 6.539.005 2.349-.011 45.407t-.022 45.407q-.02 5.799 4.54 6.542a.801.8-85.303 0 1 .669.791l-.022 3.18a.488.479-86.555 0 1-.528.477q-.568.026-15.389.02t-15.39-.032a.488.479 86.598 0 1-.527-.477l-.02-3.18a.801.8 85.345 0 1 .67-.79q4.56-.74 4.545-6.539-.004-2.349.012-45.407t.022-45.407q.019-5.799-4.54-6.542a.801.8-85.303 0 1-.67-.791l.023-3.18a.488.479-86.555 0 1 .527-.477q.568-.026 15.39-.02M730.01 248.07v-2.85a.864.852-6.907 0 1 .66-.83q4.43-1.04 4.43-6.08.11-81.2-.13-92.66-.09-4.01-4.24-5.26a.879.877-81.502 0 1-.62-.84v-3.09a.54.54-89.911 0 1 .54-.54q39.89-.08 61.1.06 6.32.04 13.1 1.68c19.99 4.85 23.97 28.3 19.01 44.99-4.79 16.14-17.47 20.68-33.11 20.76q-13.24.07-33.6-.1a.52.51-89.46 0 0-.52.52q-.02 31.45-.09 35-.09 4.54 4.32 5.51a.805.793 2.196 0 1 .62.66q.28 1.85.01 3.14a.817.808 5.594 0 1-.8.65h-29.95a.73.72 0 0 1-.73-.72m26.497-91.344.187 26.699a.69.69-13.264 0 0 .695.685l33.279-.232a13.47 12.53-.4 0 0 13.382-12.624l-.021-3.02a13.47 12.53-.4 0 0-13.557-12.435l-33.279.232a.69.69-76.538 0 0-.686.695M174.04 248.08a.73.73-54.496 0 1-.73.73H142.5a.69.69 45 0 1-.69-.69v-2.7a1.239 1.236 75.886 0 1 .65-1.09q4.36-2.31 5.36-4.84 16.88-42.71 36.31-90.81 2.43-6.02-3.21-8.39a1.096 1.09-78.723 0 1-.67-1.01v-2.47a.87.87 45 0 1 .87-.87h33.67a1.034 1.033 85.423 0 1 1.02.87q.21 1.26-.08 2.73a1.174 1.166 84.352 0 1-.7.86c-4.87 2.05-3.96 6.09-2.17 10.45q16.78 40.86 34.3 82.02c2.26 5.3 3.66 10.02 8.74 11.38a1.121 1.107-82.59 0 1 .82 1.08v2.62a.86.85-90 0 1-.85.86h-34.86a.75.74-90 0 1-.74-.75v-2.75a.817.814-9.561 0 1 .55-.77c6.54-2.28 4.18-6.53 2.08-11.8q-4.58-11.47-4.83-12.14a.742.731-10.333 0 0-.69-.47h-40.91a.68.676-79.156 0 0-.63.43q-1.23 3.06-5.97 14.07c-2.09 4.85-2.17 8.05 3.57 9.75a.847.842-81.699 0 1 .6.81zm8.63-45.352a.41.41 82.389 0 0 .381.561l27.955.049a.41.41-20.424 0 0 .383-.56l-13.916-35.496a.41.41-2.878 0 0-.763-.001zM578.79 248.78h-30.6a.83.83 32.676 0 1-.83-.83v-2.51a.996.99-11.789 0 1 .6-.91q4.39-1.83 5.51-4.58 20.02-49.07 36.02-90.16c1.48-3.79 1.2-7.97-3.12-9.41a.796.781-80.798 0 1-.53-.75v-3.05a.65.64 90 0 1 .64-.65h34.76a.67.67-61.321 0 1 .67.67v2.77a.953.933-12.094 0 1-.57.86q-5.82 2.49-3.23 8.72 18.14 43.77 37.54 88.62 2.43 5.62 6.99 6.7a.969.967 6.85 0 1 .74.94v2.9a.68.67-90 0 1-.67.68h-34.36a.703.693-8.382 0 1-.67-.49q-.93-2.97.89-3.95c2.89-1.57 4.22-3.32 2.94-6.62q-2.6-6.66-6.97-17.13a.787.772-11.308 0 0-.72-.47h-41.36a.78.78-77.852 0 0-.72.48q-3.6 8.79-5.76 14.61c-1.28 3.47-2.32 8.16 2.86 9.1a.713.712 5.373 0 1 .58.7v3.13a.63.63-53.175 0 1-.63.63m10.301-46.192a.55.55-14.161 0 0 .512.749h27.114a.55.55 19.828 0 0 .512-.749l-13.556-34.94a.55.55 29.922 0 0-1.026 0zM976.787 192.379q-.008 43.048-.013 45.397-.018 5.798 4.54 6.54a.801.799-85.314 0 1 .67.79l-.022 3.179a.488.479-86.567 0 1-.527.477q-.569.026-15.386.024-14.818-.003-15.386-.029a.488.479 86.587 0 1-.528-.477l-.02-3.18a.801.799 85.334 0 1 .669-.79q4.559-.74 4.543-6.538-.005-2.349.003-45.397.007-43.048.013-45.397.018-5.798-4.54-6.54a.801.799-85.314 0 1-.67-.79l.022-3.179a.488.479-86.567 0 1 .527-.477q.568-.027 15.386-.024t15.386.029a.488.479 86.587 0 1 .528.477l.02 3.179a.801.799 85.334 0 1-.669.79q-4.559.741-4.543 6.539.005 2.348-.003 45.397"></path><path fill-rule="evenodd" d="M756.507 156.726a.69.69-51.966 0 1 .686-.695l33.279-.232a13.47 12.53-.4 0 1 13.557 12.435l.021 3.02a13.47 12.53-.4 0 1-13.382 12.624l-33.279.232a.69.69 31.391 0 1-.695-.685zM182.67 202.728l14.04-35.447a.41.41-1.636 0 1 .763.001l13.916 35.496a.41.41 18.304 0 1-.383.56l-27.955-.049a.41.41-44.926 0 1-.381-.561M589.091 202.588l13.556-34.94a.55.55 78.116 0 1 1.026 0l13.556 34.94a.55.55-44.578 0 1-.512.749h-27.114a.55.55-29.188 0 1-.512-.749"></path><path fill="#feb814" fill-rule="evenodd" d="M274.33 399.18a.331.329-32.256 0 1-.14.61q-23.84 2.57-46.2-5.79c-14.29-5.34-27.03-13.16-35.91-24.61-19.69-25.38-12.48-58.97-.13-85.93a1.828 1.808-83.014 0 1 1.29-1.02c21.91-4.48 46.3-2.82 66.28 7.81 12.56 6.68 21.4 16.83 28.16 29.15a.333.33-87.892 0 1-.47.44q-7.44-4.96-16.16-8.61c-16.2-6.79-37.15-7.37-53.61-1.06q-2.82 1.08-4.25 2.35a3.214 2.966-10.694 0 0-.78 1.05q-4.3 9.53-3.84 20.27a.416.416 82.948 0 0 .5.39q14.32-2.78 27.55-.65c22.1 3.57 35.22 25.48 35.47 46.3a.351.35 27.521 0 1-.64.2c-13.46-19.42-32.74-28.27-56.26-22.91a1.281 1.275-14.59 0 0-.95 1.61c7.36 25.11 35.88 35.51 58.9 39.91q.57.11 1.19.49M907.94 358.11a.638.631-76.525 0 0-.46-.76q-16.03-4.04-30.57 1.41c-9.93 3.72-20.01 12.64-25.81 21.46a.526.521-25.269 0 1-.96-.34c.91-7.94 1.55-16.12 5.54-23.62 8.16-15.32 22.99-23.76 40.32-23.64q8.9.05 17.01 1.68a.557.556 8.199 0 0 .67-.5q.79-9.78-3.13-18.84-1.13-2.6-2.79-3.4c-13.06-6.32-27.51-6.75-41.63-4.52-10.65 1.68-21.53 6.85-30.77 12.81a.369.364 59.417 0 1-.53-.14q-.02-.04-.09-.24a.118.107-42.145 0 1 .01-.1q14.19-27.08 42.8-35.3 24.37-7.02 51.73-1.62a1.34 1.34-9.362 0 1 .88.63q3.94 6.8 7.56 18.97c8.73 29.36 6.08 60.36-19.84 79.78-19.13 14.33-44.98 20.39-68.72 18.2a.487.486-48.634 0 1-.06-.96q8.62-1.91 16.36-4.12c17.62-5.03 38.07-17.71 42.48-36.84M472.38 321.59c22.33.17 43.84 5.48 62.76 17.77q.36.24.77.26a.345.345 86.692 0 0 .37-.37q-.9-12.79-4.48-25.85-5.01-18.22-9.7-32.73a.274.272-76.723 0 1 .45-.28q8.24 8.16 13.99 18.27c13.34 23.46 19.94 53.56 17.46 81.09q-1.14 12.58-3.65 25.39c-2.49 12.74-7.25 27.59-15.98 36.37q-7.91 7.95-19.06 4.16-12.01-4.08-22.2-12.08c-20.72-16.27-40.73-41.37-45.41-68.08q-.11-.61.08-1a.494.488-51.597 0 1 .82-.1q18.35 22.68 43.27 38.48 10.16 6.44 18.57 8.31c5.26 1.18 9.63 1.27 12.99-3.26 7.77-10.49 11.84-24.64 12.79-37.47a2.461 2.455 28.067 0 0-.52-1.7c-11.47-14.57-25.85-27.47-42.65-36.63q-10.43-5.69-20.78-9.99a.292.289 56.461 0 1 .11-.56M650.86 321.65a.341.34-56.213 0 1 .13.66q-18.38 6.83-34.19 17.75c-10.95 7.56-20.62 18.24-29.44 28.89a2.516 2.501 62.544 0 0-.56 1.79q1.39 16.56 8.93 31.53c4.29 8.51 7.59 11.18 17.56 8.79q5.27-1.26 12.55-5.51 28.13-16.45 48.76-40.87a.612.612 70.043 0 1 1.07.5q-.9 5.26-3.02 10.75-6.55 16.93-17.11 30.89-9.22 12.2-19.33 21.4c-8.4 7.64-27.78 21.43-39.59 18.16-14.34-3.97-20.18-23.64-23.56-36.42q-6.15-23.25-5.12-47.7c1.24-29.25 11.64-60.33 32.25-81.89a.311.309-14.028 0 1 .52.31q-7.65 22.51-12.41 44.85c-.86 4.03-1.44 9.64-1.72 13.93a.504.5 74.747 0 0 .78.45q18.77-12.8 41.57-16.28 10.54-1.61 21.93-1.98M391.67 319.73a.26.259 83.888 0 1 .37.3c-3.17 11.49-3.99 25.41-2.95 36.72 1.59 17.14 8.1 33.59 20.3 46.11q8.77 9 17.64 14.86c10.22 6.76 18.58 12.11 26.31 20.12q28.2 29.22 45.93 68.89c5.37 12.01 9.58 27.05 9.37 40.75q-.01.59-.23 1.04a.253.252 47.368 0 1-.46-.02q-7.29-17.89-18.41-35.61c-25-39.85-64.14-67.99-109.37-81.02q-12.63-3.64-31.13-7.2-11.96-2.3-24.14-9.57-19.58-11.7-18.23-34.79c.26-4.52 1.4-11.91 4-15.97a.389.387-33.738 0 1 .71.14q.52 2.93 1.87 7.54c3.75 12.85 18.58 23.12 30.47 27.69q15.9 6.13 33.13 7.68a.507.503-9.519 0 0 .51-.71q-8.8-19.31-5.51-40.17 2.62-16.66 10.34-30.81 4.7-8.62 8.77-15.24.33-.52.71-.73M730.46 320.02a.431.426 37.134 0 1 .76-.1c17.54 25.82 26.71 56.74 13.78 86.97a.47.469 8.594 0 0 .48.65c21.14-2.35 44.26-8.39 58.47-25.3 4.33-5.16 5.75-10.93 6.64-17.41a.287.286 35.405 0 1 .54-.09c5.98 11.84 6.38 25.27 0 37.11-4.48 8.32-13.18 14.3-22.1 17.94-12.08 4.94-24.96 6.65-36.4 9.34q-19.19 4.52-37.25 12.75-9.64 4.4-23.7 12.87c-17.58 10.61-33.09 24.95-45.59 40.16-12.61 15.35-23.32 34.57-30.85 53.36a.454.451 53.292 0 1-.87-.13c-1.04-10.98 1.69-21.95 5.63-32.16q6.31-16.37 15.39-32.89c9.95-18.12 23.04-34.57 37.56-48.88 4.32-4.26 9.85-8 16.55-12.34q13.42-8.71 21.64-16.49 11.25-10.65 17.1-26.42 10.49-28.27 2.2-58.28-.09-.34.02-.66M406.83 672.19a.386.383-45.205 0 1 0 .69q-13.17 6.6-27.27 11.75-16.17 5.9-28.16 9.38-34.5 10-68.16 12.35c-24.44 1.71-49.45.25-72.1-8.73q-29.84-11.85-48.04-39.76c-11.72-18-19.12-40.09-23.46-60.42q-5.14-24.04-.93-47.84 9.04-51.18 40.53-92.36c9.18-12.01 18.69-22.9 30.63-32.61q.18-.15.34-.08a.345.341 28.254 0 1 .16.52q-16.94 24.48-27.17 53.13-8.43 23.61-12.62 49.06-4.16 25.21 1.08 50.56c2.95 14.26 6.67 27.06 12.6 39.93 10.35 22.46 28.29 39.13 51.45 48.34q19.32 7.69 41.05 10.67 22.13 3.03 43.99 3.17c27.49.16 56.84-3.27 85.49-7.88q.24-.04.59.13" data-source="https://football-logos.cc"></path><path fill="#feb814" fill-rule="evenodd" d="M433.6 641.37q-53.4 2.92-105.55-7.48c-25.99-5.19-51.27-14.08-71.09-30.82q-10.13-8.54-17.84-22.87c-6.84-12.71-11.36-26.13-12.4-41.03q-1.86-26.72 7.57-52.03c8.76-23.52 20.42-44.47 38.36-62.17q.29-.28.69-.22a.311.305-73.774 0 1 .23.43c-8.65 19.18-15.8 40.36-18.87 60.01-3.39 21.71-2.11 42.54 6.11 63.02q11.18 27.87 35.93 44.79c25.1 17.17 55.26 27.25 84.79 34.93q13.09 3.4 46.95 11.55 1.57.38 5.17 1.47a.215.215-38.265 0 1-.05.42M715.57 672.73a.399.396 78.425 0 1 .4-.61q2.48.47 24.95 3.47c35.78 4.77 68.93 6.05 103.01 1.53 21.07-2.8 44.7-8.86 62.44-21.25q21.96-15.33 32.75-40 7.65-17.47 11.77-37.97 5.1-25.39.93-51.23c-3.45-21.34-10.14-43.28-18.12-62.2q-6.63-15.7-14.82-28.63-3.39-5.35-6.67-10.79a.238.237 3.333 0 1 .35-.31q8.06 6.22 14.67 13.52c14.57 16.12 27.97 34.46 37.42 53.59q13.05 26.37 18.58 55.43 5.11 26.89-1.62 54.78-6.52 27.01-17.41 47.6-20.64 39.01-63.16 51.64c-27.33 8.11-58.76 6.5-87 1.86q-51.3-8.43-97.76-29.91-.53-.25-.71-.52"></path><path fill="#feb814" fill-rule="evenodd" d="M688.794 641.544a.215.214 38.265 0 1-.05-.419q3.599-1.09 5.168-1.47 33.845-8.146 46.929-11.544c29.517-7.676 59.664-17.751 84.753-34.913q24.739-16.912 35.914-44.77c8.217-20.47 9.497-41.291 6.108-62.992-3.068-19.641-10.215-40.811-18.86-59.983a.311.305 73.775 0 1 .23-.43q.399-.06.689.22c17.932 17.692 29.586 38.633 38.342 62.143q9.426 25.299 7.566 52.007c-1.04 14.893-5.558 28.307-12.395 41.011q-7.707 14.324-17.832 22.86c-19.812 16.732-45.08 25.618-71.059 30.805q-52.127 10.395-105.503 7.475M314.46 547.53q13.51 3.26 28.1.6a.482.482 62.832 0 0 .26-.81q-11.12-11.42-14.98-26.19c-1.22-4.67-1.58-10.1-2.3-16.17-.75-6.35-3.16-11.52-6.94-16.56q-11.23-14.99-26.69-26.03a.494.491-27.74 0 1 .28-.89q26.66-.65 53.71 5.09a.572.571 6.749 0 1 .45.57q-.5 16.61 4.28 32.29c3.65 11.97 9.28 25.08 17.61 34.65 8.97 10.31 20.44 15.52 33.52 18.61 8.47 2 20.43 2.17 28.15 1.4q7.38-.74 12.84-1.07 1.04-.06 1.61-.38a.533.532-36.859 0 0 .12-.83c-7.73-8.03-16.18-15.27-27.15-18.63-3.94-1.21-9.85-1.89-13.62-3.64-18.69-8.7-20.29-33.6-19.19-51.2a.316.311 13.026 0 1 .44-.27q25.23 11.3 48.16 26.29 18.06 11.81 33.65 28.85c16.09 17.58 26.33 41.21 14.16 63.67q-5.09 9.39-13.38 15.13a.38.374 54.367 0 1-.52-.09q-.21-.29-.1-.69 2.07-7.13.85-14.76c-2.4-15.09-16.45-22.18-30.47-23.67-10.95-1.17-21.44-.62-37.54.48q-18.38 1.26-38.56-2.73-26.26-5.2-47.02-22.47a.315.313 71.308 0 1 .27-.55"></path><path fill="#feb814" fill-rule="evenodd" d="M830.81 462.09q-.07.25-.3.42c-12.77 9.4-23.35 19.62-31.04 33.41q-1.93 3.47-2.75 9.56c-1.18 8.78-1.67 14.71-4.24 21.7q-4.13 11.23-12.53 20.17a.476.47 26.464 0 0 .27.79q14.08 2.43 28.38-.65a.224.223 19.102 0 1 .19.39q-19.93 16.95-45.71 22.38-18.28 3.84-35.58 3.19c-11.7-.44-24.71-1.93-37.67-1.05-12.28.83-26.58 5.06-32.63 16.78-3.5 6.78-3.07 15.15-1.66 22.38a.37.368-77.391 0 1-.58.37c-14.51-10.84-21.67-27.08-17.92-44.59q2.86-13.35 11.71-25.06 9.52-12.61 23.61-25.03 10.18-8.98 28.19-19.68 17.46-10.37 37.34-19.62a.434.43-13.523 0 1 .61.37c.81 17.97-.96 40.68-17.6 50.63-4.56 2.72-12.86 3.33-17.53 4.92-9.44 3.2-18.09 10.68-25.23 17.78a.684.681-63.691 0 0 .39 1.16q17.57 2.32 34.43 1.05c12.19-.91 26.37-5.91 35.79-14.37q9.75-8.74 15.84-21.06c5.22-10.53 9.44-23.99 10.75-36.57q.46-4.39 1.06-14.54a.711.707-4.922 0 1 .55-.65q27-5.88 53.52-5.04a.366.361-81.827 0 1 .34.46M140.15 691.22a.339.336-47.4 0 1 .65-.03q2.04 6.55 5.32 17.2c4.16 13.49 11.94 27.66 21.73 38.36 28.72 31.37 68.94 36.12 109.18 27.26q25.12-5.53 47.34-15.15c25.85-11.18 49.54-24.94 72.77-40.78a.426.422-2.154 0 1 .61.56q-6.75 11.56-14.56 21.58c-4.31 5.54-9.47 10.73-14.58 16.2q-3.26 3.49-6.2 6.14-20.24 18.25-44.91 29.43-51.28 23.22-107 15.07-14.85-2.17-29.39-8.89-24.64-11.39-35.66-36.08c-9.93-22.25-10.65-47.21-5.3-70.87M981 691.37a.51.509-44.93 0 1 .99 0q5.7 23.72 1.87 47.69c-1.74 10.92-6.03 23.26-12.05 32.74q-14 22.01-40.77 30.58-16.8 5.39-32.3 6.39-42.52 2.77-81.31-11.88-51.97-19.63-83.72-64.51-4.62-6.54-8.48-13.59a.435.43-87.261 0 1 .62-.57c39.44 27.37 82.63 49.63 130.16 57.72 30.47 5.18 61.41 1.14 86.15-17.61q12.63-9.57 20.73-21.89 8.32-12.64 13.09-27.21 2.58-7.87 5.02-17.86M638.02 704.32a.453.452-73.329 0 1 .74-.4c7.71 6.37 15.02 16.07 17.02 25.75 4.95 24.04-12.84 44.4-35.99 48.33a.512.511 15.011 0 1-.48-.83c2.05-2.47 3.99-5.71 3.91-8.93-.2-8.17-9.2-12.81-16.43-12.75q-5.8.04-13.35 3.34c-14.79 6.48-23.14 22.33-26.91 37.4q-2.83 11.29-4.58 18.11a.535.535-51.908 0 1-.99.12q-.52-.97-.73-1.85-.74-3.06-3.58-14.27c-5-19.69-16.85-40.94-39.41-42.69q-6.67-.52-12.03 3.37c-6.78 4.91-5.47 12.35-1.19 18.31a.396.388-12.997 0 1-.39.61c-21-3.48-40.91-21.87-38-44.57 1.44-11.24 9.26-21.36 17.41-29.1a.552.548-22.538 0 1 .93.38q.4 14.18 14.46 16.18 6.66.95 11.83.47 7.18-.66 15.49-.93 19.07-.63 35.26 9.04a.93.914 44.523 0 0 .97 0c13.78-8.35 29-10.25 45.26-8.6 8.18.84 20.13 1.77 26.67-4.18q5-4.55 4.11-12.31"></path><path fill="#feb814" fill-rule="evenodd" d="M612.83 917.78a.274.272-.528 0 1-.37-.36c4.87-10.09 9.88-21.38 10.39-33.42a.351.35 85.514 0 0-.42-.36q-9.84 1.87-21.95 2.5-39.61 2.05-76.73-.08-11.56-.66-22.11-2.11a.764.761-85.607 0 0-.86.74c-.24 11.55 4.66 21.94 9.72 32.62a.481.478-86.324 0 1-.69.61l-48.35-31.01a.55.546 20.442 0 0-.84.38q-1.99 13.08-1.09 30.22 1.79 34.16 9.38 65.32 3.41 13.97 6.86 27.91.63 2.52 1.16 6.79a.408.406-76.603 0 1-.63.39c-16.5-11.17-24.72-27.62-31.59-46.64-10.54-29.17-15.44-58.56-15.83-89.14a.371.37-83.016 0 0-.28-.36l-14.81-3.72a2.003 1.99 29.308 0 0-1.91.53q-9.34 9.46-18.72 18.06-34.01 31.2-72.42 51.06-38.29 19.8-79.95 25.4-5.36.72-9.47.62a.46.459 35.476 0 1-.15-.89c33.01-11.97 66.67-28.76 97.27-46.91q31.98-18.96 60.8-41.94 3.88-3.1 11.16-9.59a.74.733 38.14 0 0-.15-1.2q-9.28-4.92-16.8-11.55a1.016 1.013-42.166 0 0-1.25-.06q-23.14 16.59-49.56 29.05-27.38 12.93-54.02 19.77-44.72 11.5-91.39 9.65-.17-.01-.37-.23a.428.427 64.669 0 1 .25-.7q20.39-3.74 38.26-7.53 39.3-8.34 75.1-21.47c26.26-9.64 50.69-21.66 73.69-36.3a.801.795 55.481 0 0 .21-1.16q-5.09-6.74-7.64-14.34a.976.97-22.946 0 0-1.37-.55c-39.17 20.34-83.5 34.81-126.85 38.46q-38.58 3.25-78.76-4.49-1.95-.38-3.22-.85a.269.268 54.885 0 1 .09-.52q12.18-.08 29.37-1.2 59.75-3.86 118.6-22.54c19.86-6.3 39.65-14.4 58.43-22.38a1.448 1.43 77.222 0 0 .87-1.4c-1.04-21.91 8.04-39.75 27.23-50.07a.43.428 86.853 0 1 .6.54c-5.2 13.03-8.54 27.12-7.47 40.89a.722.716-15.846 0 0 1.05.58l50.35-26.12a.321.32 3.971 0 1 .41.47q-.33.45-1.32 1.33c-14.44 12.89-31.41 24.78-47.99 35.01a1.312 1.29-23.388 0 0-.58 1.43q2.08 8 6.8 14.2a.797.792-35.969 0 0 1.09.17q32.18-22.42 44.06-31.15 3.46-2.54 10-6.52a.349.346 6.708 0 1 .43.54c-3.06 3.04-5.73 6.21-9.07 9.45-12.74 12.36-24.99 23.96-38.27 33.96a.723.718 42.77 0 0 .05 1.18q8.97 5.78 19.18 7.66a1.292 1.278 27.44 0 0 1.16-.36q17.42-17.79 40.38-38.47a.304.304 85.253 0 1 .46.39c-8.91 13.87-19.55 27.21-30.04 38.44q-.62.66-.58 1.31a.33.33 89.043 0 0 .32.31c28.76 1.78 58.13-1.36 87.06-6.62q21.45-3.9 41.48-11.61a2.056 2.032 44.282 0 1 1.45-.01q19.52 7.33 39.83 11.26 30.34 5.87 60.79 7.12 13.94.57 27.4-.18a.382.381 85.708 0 0 .36-.42q-.04-.5-.4-.92c-10.61-12.56-20.68-24.82-29.96-38.6a.434.43-85.485 0 1 .65-.56l40.72 38.56a.464.448 61.975 0 0 .4.13q11.19-1.71 19.34-7.24a.933.927 46.713 0 0 .04-1.51q-25.49-19.48-47.18-43.72a.438.438 86.752 0 1 .58-.65l53.53 38.32a1.36 1.354-53.894 0 0 1.89-.3q4.69-6.33 6.78-14.2a1.08 1.08 25.736 0 0-.48-1.2q-15.87-9.67-32.09-21.76-8.82-6.57-16.96-14.29-.32-.31-.39-.53a.279.278-86.009 0 1 .39-.34l50.32 25.87a.434.43-74.524 0 0 .63-.36c.87-14.39-2.45-27.05-7.47-40.52a1.783 1.574-59.872 0 1-.11-.55q0-.19.01-.28a.437.436-73.201 0 1 .65-.35q29.03 16.3 27.18 50.18a1.637 1.636 13.113 0 0 .99 1.59q27.23 11.75 55.31 21.29 7.35 2.5 26.26 7.71 49.49 13.63 100.62 16.06 12.18.59 23.53.79a.287.285 18.047 0 1 .23.45q-.44.62-1.37.81-19.7 3.98-36.88 5.1-52.05 3.41-101.07-11.24-26.11-7.8-43.26-15.51-11.42-5.13-25.7-12.05a.992.986 21.906 0 0-1.37.58q-2.55 7.68-7.87 14.31a.923.922-54.622 0 0 .23 1.36q14.04 8.74 32.79 18.22 17.79 8.99 34.2 15.26 45.24 17.27 92.49 26.31 12.78 2.45 26.61 4.83 1.19.21 2.38.66a.338.334 53.278 0 1-.09.65c-18.7 1.24-36.77.15-56.54-2.26-23.32-2.84-45.4-9.05-66.66-17.12-7.23-2.74-19.28-7.86-27.55-11.91q-23.68-11.6-45.49-27.04a.738.729 42.092 0 0-.9.04q-8.44 7.39-17.42 11.63a.606.602-36.643 0 0-.15 1c11.94 10.61 27.3 22.14 40.31 30.95q60.89 41.23 129.83 67.97a.255.253 52.26 0 1-.06.49q-1.26.12-2.73 0c-32.25-2.5-64.36-13.82-93.13-29.58q-47.94-26.28-85.12-65.73a1.18 1.166 61.403 0 0-1.13-.34l-15.53 3.61a.684.679-6.005 0 0-.53.65q-.72 34.78-9.41 68.64-4.71 18.37-12.95 36.02-6.29 13.46-16.57 24.2-4.03 4.2-8.89 6.82a.378.377 80.289 0 1-.55-.39q.79-5.08 2.23-10.44c9.23-34.49 15.3-66.96 15.81-100.64q.12-8.22-.98-19.35a.443.434 71.693 0 0-.66-.34q-17.03 10.34-35.85 23.18-7.01 4.78-13.16 7.79"></path><path fill="#feb814" fill-rule="evenodd" d="M639.24 1108.17a.332.332-81.67 0 1 .51-.38q21.08 15.68 22.78 41.68.32 4.93-.39 14.53-1.15 15.51-10.63 27.74c-4.5 5.81-10.22 12.81-16.46 20.08q-4.89 5.69-7.94 10.04-.22.31-.13.56.2.49.65.22 14.11-8.39 28.21-17.17 6.02-3.75 10.28-7.07c8.16-6.34 15.21-11.54 21.48-18.3 10.01-10.8 16.14-25.91 14.45-40.62q-.63-5.44-3.58-16.89c-2.69-10.4-1.72-22.06 3.31-31.99q3.41-6.75 4.8-8.52 6.86-8.74 7.34-9.39c4.99-6.67 8.48-14.5 10.64-22.77q4.1-15.74 4.4-30.2.43-20.66-4.52-41.32a.294.29 12.954 0 1 .47-.29q1.12.9 2.02 2.22 7.9 11.55 13.85 24.37c6.94 14.96 8.84 29.31 8.07 45.57a.473.47 69.926 0 0 .79.37q8.18-7.53 19.69-12.57c26.07-11.41 56.79-15.93 85.76-12.58a.43.429 28.871 0 1 .22.76q-.44.36-1.33.49c-35.16 4.96-69.66 15.73-94.41 42.55-19.44 21.06-33.12 49.37-33.57 77.73-.27 17.44 1.29 35.94-8.79 51.86q-2.63 4.16-9.93 9.73-10.52 8.02-12.65 9.52c-34.72 24.39-70.13 45.87-107.48 66.64q-12.18 6.77-18.92 8.05-12.8 2.41-25.18-4.36-43.64-23.88-84.1-49.71c-6.23-3.98-14.12-9.65-22.46-15.16-7.89-5.21-15.89-11.29-21.84-15.74-4.61-3.45-7.99-6.29-10.48-10.68-5.91-10.41-7.28-22.63-7.23-34.51q.06-12.31-.24-16.16-2.49-31.78-18.7-57.73-12.13-19.4-29.17-32.52c-22.9-17.62-51.29-25.8-80.65-29.5q-.57-.07-.67-.22a.74.74-19.667 0 1 .54-1.14q24.46-2.67 49.11 1.7c20.12 3.57 40.38 10.5 56.02 23.57a.308.305-73.102 0 0 .5-.27q-2.09-19.63 4.94-37.93 7.05-18.34 18.77-34.23a.468.465-19.641 0 1 .83.39c-5.96 22.75-6.75 45.67-1.41 68.06 2.46 10.27 7.16 20.37 14.14 28.77 10.07 12.11 15.78 24.45 14.13 40.28-.67 6.36-2.93 13.16-4.03 20.03q-2 12.39 1.94 23.71c4.68 13.44 13.43 23.11 24.3 31.97q9.04 7.37 19.69 14.07 17.78 11.18 28.48 17.41a.353.35-2 0 0 .47-.5q-3.37-4.86-7.07-9.03-9.99-11.24-17.34-20.9c-5.95-7.82-9.57-15.7-10.89-25.59-2.23-16.75-.18-35.84 11.58-49.01q5-5.61 10.45-9.91a.406.404 78.727 0 1 .64.43c-7.07 25.1-4.49 58.2 16.6 76.7q2.36 2.08 11.7 9.54c7.08 5.65 11.58 12.76 18.08 22.57q.6.9 5.35 6.59c9.3 11.12 22.05 15.6 36.09 11.55 14.85-4.29 21.7-17.56 30.97-31.76q2.7-4.13 8.42-8.59c9.49-7.38 18.17-13.45 24.07-24.43 7.5-13.97 9.06-30.05 7.66-45.89-.5-5.66-1.09-11.24-3-16.52" data-source="https://football-logos.cc"></path><!-- source: https://football-logos.cc --></svg>