<svg xmlns="http://www.w3.org/2000/svg" viewBox="0 0 331.96 278.84"><!-- Source: https://football-logos.cc --><defs data-source="https://football-logos.cc"><style>.cls-1{fill:#121242}</style></defs><path d="m109.4 10.471-.065 18.42c-12.6 4.48-21.505 8.45-21.505 8.45 0 27.84 4.13 59.89 15.92 95.21.5 1.56.99 3.03 1.47 4.42-8.55-1.55-16.29-4.89-20.88-8.07-9.23-30.45-13.9-61.21-13.9-91.56v-11.28l10.29-4.6c.5-.23 12.66-5.61 28.67-10.99" class="cls-1"></path><path d="M222.79 10.51v18.4c11.19 3.98 19.53 7.61 21.16 8.32-.006 15.256-1.003 30.32-3.45 45.61-2.41 15.06-6.46 30.851-11.57 47.57-3.802 12.442-7.825 24.112-16.34 31.44-7.725 6.65-16.28 11.426-25.23 17.37l-21.368 14.18-38.39-25.5c-7.58-5.03-12.33-8.711-16.9-17.65-8.673-2.545-16.45-5.81-22.97-10.819 4.09 12.46 7.85 20.58 12.45 26.94 5.41 7.47 11.5 11.84 17.79 16.02l38.399 25.5 9.62 6.39 9.62-6.39 38.4-25.5c6.29-4.18 12.381-8.54 17.791-16.02 4.78-6.6 8.65-15.1 12.93-28.4 11.14-33.41 16.79-67.272 16.79-100.63V26.07c-14.21-6.428-25.98-11.269-38.73-15.562z" class="cls-1"></path><path d="M116.94 70.58v58.68l7.58 7.58c6.41-1.41 12.12-4.309 17.08-8.639l-6.18-6.18.01-34.62 17.99-5.56z" class="cls-1" data-source="https://football-logos.cc"></path><path d="M215.04 0h-98.1v60.301l79.622 24.59v37.15l-30.57 30.561-9.08-9.08c-3.79 2.21-7.711 4.088-11.382 5.238-2.39.75-4.81 1.382-7.24 1.862l27.701 27.699 49.05-49.05v-54.49l-79.61-24.59v-33.54h61.121V47.66l-18 5.56 36.488 11.26z" class="cls-1"></path><g transform="translate(0 -7.779)"><path d="M152.48 134.02a57.6 57.6 0 0 1-6.77 6.07c-4.11 3.17-8.65 5.87-12.98 7.63-1.24.51-2.51.94-3.82 1.3-3.54.97-7.27 1.44-11.08 1.44s-7.35-.42-10.99-1.22c-7.91-1.71-15.54-5.16-21.65-9.8a5 5 0 0 1-.11-.36c4.71 2.87 12.19 6.03 20.75 7.44 2.87.47 5.85.75 8.89.75 3.66 0 7.39-.4 11.1-1.33 5.85-1.45 11.62-4.22 16.9-8.83 2.28-1.99 4.46-4.33 6.51-7.04.91 1.46 2 2.78 3.25 3.95" class="cls-1"></path><path d="M170.87 138.84c-3.85 3.76-9.39 7.95-15.15 11.27-3.59 2.07-7.28 3.81-10.69 4.88-2.66.84-5.38 1.52-8.14 2.02-3.86.71-7.79 1.08-11.75 1.08-5.15 0-10.32-.62-15.4-1.93-8.09-2.08-15.92-5.9-22.95-11.72-.14-.39-.26-.79-.39-1.18 5.97 3.92 13.52 7.57 21.95 9.77 5.16 1.36 10.67 2.17 16.34 2.17 3.16 0 6.36-.25 9.59-.8 6.26-1.06 12.61-3.24 18.85-6.87 3.75-2.18 7.46-4.88 11.08-8.18q.93.09 1.89.09c1.64 0 3.25-.2 4.77-.58z" class="cls-1"></path><path d="M166.09 101.05c-10.205.005-18.48 8.272-18.48 18.479 0 2.76.611 5.38 1.691 7.73.37.81.8 1.59 1.29 2.33.84 1.29 1.84 2.47 2.96 3.51.35.33.72.65 1.1.94a18.3 18.3 0 0 0 9.9 3.91l7.8-1.02c.89-.32 1.75-.71 2.57-1.15 5.76-3.14 9.66-9.23 9.66-16.25 0-10.207-8.275-18.473-18.48-18.479z" style="fill:#fbf1ce"></path><circle cx="166.09" cy="119.54" r="18.485" fill="#121242" stroke-linecap="square" stroke-width=".189"></circle><g fill="#fff"><path d="M156.43 133.97c.41.15.811.319 1.201.479 2.75 1.09 5.6 2.19 8.59 2.31-3.32.68-7.111-.879-9.791-2.789M181.62 126.95c-.48 3-3.059 5.52-5.639 6.91.27-.28.55-.529.82-.789 1.87-1.8 3.729-3.731 4.819-6.121M161.43 124.25l6.46 2.46.892 3.298.859 3.181-4.941 2.68-7.3-2.228-1.95-5.442 5.914-3.904zM173.14 121.44l6.69.191.49 5.89-4.48 5.37h-5.34l-.563-1.992-1.238-4.389zM149.69 114.28c-.086.271-.16.558-.236.842-.827 3.09-1.026 6.868.476 9.68-.78-2.99-.57-6.142-.34-9.192.035-.436.072-.852.1-1.33M154.93 111.42l6.4 5.291-.19 6.76-.456.3-5.904 3.88-4.29-3.612c-.441-2.482-.213-6.652-.117-8.21.02-.313.057-1.198.057-1.198zM177.86 107.36c2.008 1.777 3.38 4.196 4.611 6.541.17.35.34.699.54 1.04-.647-2.914-2.39-6.197-5.151-7.581M172.29 107.13l5.281 1.148 4.5 7.112-2.16 5.41-6.48-.22-3.8-6zM167.06 102.94l4.33 3.8-2.92 7.55-6.34 1.71-6.67-5.449 2.54-5.22zM166.06 102.23c-3.09.007-6.581.748-8.848 2.768 2.714-1.46 5.824-1.998 8.825-2.506.44-.07.88-.131 1.32-.221a19 19 0 0 0-1.297-.041z"></path></g><path d="M155.12 112.52a169 169 0 0 0-4.309 2.951c.098 2.612.166 5.3.41 7.58.25-2.3.34-4.82.39-7.15 1.187-.795 2.45-1.672 3.47-2.39 1.72 1.36 3.449 2.68 5.289 3.9-1.66-1.73-3.45-3.32-5.25-4.89M170.29 107.28c-1.08-.74-2.2-1.64-3.21-2.46-1.96.55-4.06 1.16-6.05 1.58-.66.13-1.32.27-1.98.39-.68 1.22-1.44 2.47-2.22 3.63.52-1.41 1.14-2.85 1.76-4.2 1.27-.36 3.05-.78 4.35-1.08 1.46-.32 2.74-.75 4.22-1 1.02.98 2.2 2.08 3.13 3.14M173.53 122.02a92 92 0 0 0-3.08 3.701l-1.068 1.38c.53 1.57 1.09 3.2 1.75 4.72-.23-1.51-.591-3.061-.961-4.551l.9-1.04a105 105 0 0 0 2.799-3.45c1.76.01 3.49-.03 5.24-.19-1.85-.29-3.71-.45-5.58-.57z" class="cls-1"></path></g><path d="m42.76 249.431-10.69 1.34v-1.34q0-2.67-2.67-2.67H13.36q-2.67 0-2.67 2.67c0 2.67.89 2.67 2.67 2.67H29.4c8.91 0 13.36 4.45 13.36 13.36s-4.45 13.36-13.36 13.36H13.36c-8.91 0-13.36-4.45-13.36-13.36l10.69-1.34v1.34q0 2.67 2.67 2.67H29.4q2.67 0 2.67-2.67c0-2.67-.89-2.67-2.67-2.67H13.36c-8.91 0-13.36-4.45-13.36-13.36s4.45-13.36 13.36-13.36H29.4c8.91 0 13.36 4.45 13.36 13.36M85.66 236.051c-8.91 0-13.359 4.45-13.359 13.359v16.041c0 8.91 4.45 13.359 13.359 13.359h16.039c8.91 0 13.361-4.45 13.361-13.359v-2.67l-10.691-2.67v5.35q0 2.67-2.67 2.67H85.66q-2.67 0-2.67-2.67V249.42q0-2.67 2.67-2.67h16.04q2.67 0 2.669 2.67v5.351l10.691-2.67v-2.67c0-8.91-4.451-13.38-13.361-13.38zM165.99 233.511l-24.109 45.33h12.109l2.83-5.35h18.33l2.84 5.35h12.109zm-.01 22.762 3.469 6.52h-6.94zM289.2 236.071h29.4c8.91 0 13.36 4.45 13.36 13.36 0 3.28-.61 5.95-1.82 8.02 1.21 2.07 1.82 4.74 1.82 8.02 0 8.91-4.45 13.36-13.36 13.36h-29.4zm10.69 16.03h18.71q2.67 0 2.67-2.67c0-2.67-.89-2.67-2.67-2.67h-18.71v5.35zm0 10.69v5.35h18.71q2.67 0 2.67-2.67c0-2.67-.89-2.67-2.67-2.67h-18.71zM238.29 233.511l-24.109 45.33h12.109l2.83-5.35h18.33l2.84 5.35h12.109zm-.01 22.762 3.469 6.52h-6.94z" class="cls-1" data-source="https://football-logos.cc"></path><!-- source: https://football-logos.cc --></svg>