<svg xmlns="http://www.w3.org/2000/svg" xml:space="preserve" viewBox="117.92 50 564.16 700"><!-- Source: https://football-logos.cc --><path d="M147.885 462.722c.085-.158.208-.306.296-.465.069-.114.114-.24.188-.351zm530.913 35.506-.055-.083c-2.868-4.489-7.369-9.525-12.583-15.355-3.289-3.677-7.003-7.843-10.663-12.27-.266-.522-.716-1.705-1.027-2.53-.731-1.938-1.516-3.923-2.652-5.733-2.421-4.328-6.381-8.241-12.169-11.922l-.607-.387-.662-.289c-3.862-1.689-7.695-2.386-11.384-2.495 3.738-8.828 7.26-17.827 10.465-26.96 17.109-48.714 21.608-105.167 21.608-163.579 0-32.801-1.418-66.219-2.821-99.234l-.971-23.132c-.554-11.253-.979-20.067-7.918-26.155-6.736-5.92-14.752-5.265-24.9-4.437 0 0-2.426.195-2.687.218-71.093 4.402-144.324-23.642-207.401-50.297l-1.521-.698c-3.225-1.484-6.722-2.929-10.851-2.889-4.129-.04-7.625 1.405-10.855 2.891 0 0-1.279.585-1.516.696-63.077 26.655-136.309 54.699-207.401 50.297-.263-.023-2.647-.216-2.647-.216-10.189-.83-18.205-1.484-24.941 4.435-6.939 6.089-7.364 14.902-7.912 26.061l-.978 23.229c-1.402 33.013-2.82 66.428-2.82 99.227 0 58.414 4.499 114.871 21.612 163.589 3.195 9.122 6.717 18.121 10.461 26.954-3.69.109-7.523.806-11.384 2.495l-.662.289-.607.387c-5.789 3.679-9.749 7.591-12.169 11.922-1.141 1.81-1.921 3.795-2.652 5.733-.312.825-.761 2.013-1.027 2.532-3.635 4.4-7.364 8.579-10.663 12.267-5.215 5.83-9.715 10.865-12.589 15.355-2.192 3.506-3.328 7.44-3.328 11.273 0 1.435.157 2.857.479 4.234l.034.143.04.145c2.079 7.777 6.297 12.758 14.105 16.656l.178.089.178.082c10.396 4.658 23.217 1.841 29.859-6.325 1.472-1.498 3.562-3.954 4.944-5.993.356-.477.657-.854.918-1.161-1.452 2.971-2.123 6.211-2.593 10.404l-.104.905.074.91a55 55 0 0 1 .173 4.399c0 6.008-.893 12.141-1.827 18.558l-.035.242c-1.703 7.322-3.352 12.567-7.294 20.184-2.805 4.626-5.512 8.217-7.902 11.382-3.555 4.713-6.366 8.432-7.521 13.061l-.104.423-.069.428c-.37 2.424-.697 5.117-.697 7.972 0 2.059.168 4.198.618 6.38l.045.208.048.208c1.413 5.599 3.571 11.96 8.604 17.14 27.034 35.969 82.218 77.242 128.662 96.173l.173.063c40.053 15.43 78.476 22.945 120.929 23.666l.159.005.167-.005c42.454-.721 80.876-8.236 120.929-23.666l.168-.063c46.448-18.931 101.634-60.204 128.663-96.173 5.038-5.185 7.196-11.546 8.608-17.145l.05-.203.045-.208c.445-2.182.617-4.326.617-6.385 0-2.85-.33-5.543-.695-7.968l-.069-.428-.104-.423c-1.155-4.629-3.966-8.347-7.521-13.061-2.39-3.165-5.097-6.755-7.902-11.382-3.942-7.622-5.591-12.867-7.295-20.184l-.034-.227c-.934-6.426-1.828-12.562-1.828-18.578 0-1.471.05-2.937.173-4.394l.074-.91-.103-.9c-.47-4.198-1.141-7.438-2.594-10.409.258.307.564.687.924 1.166 1.378 2.037 3.467 4.486 4.938 5.988 6.643 8.166 19.459 10.982 29.854 6.325l.184-.082.178-.089c7.803-3.898 12.025-8.88 14.105-16.656l.039-.145.035-.143c.321-1.382.479-2.809.479-4.246-.002-3.821-1.128-7.73-3.282-11.176M550.116 595.44l-.143.102c-44.138 33.105-98.779 52.093-149.924 52.093H400c-51.16.01-105.822-18.974-149.973-52.093l-.143-.102c-16.668-12.02-27.953-21.113-40.137-32.454 3.081-2.444 7.106-5.108 8.859-6.267 0 0 1.216-.81 1.976-1.319l1.64-.765c4.227-1.936 8.687-4.089 12.578-6.61 5.156 5.986 10.391 11.805 15.74 17.189 38.383 38.718 83.532 65.038 134.188 78.22 5.808 1.539 10.411 2.497 15.276 2.492 4.855.005 9.458-.953 15.31-2.502 50.616-13.172 95.762-39.492 134.144-78.21 5.349-5.388 10.589-11.207 15.735-17.189 3.901 2.526 8.356 4.675 12.583 6.61 0 0 1.107.518 1.64.765l1.974 1.319c1.754 1.159 5.773 3.823 8.856 6.267-12.181 11.341-23.466 20.434-40.13 32.454M651.63 461.907c.075.111.114.237.189.351.089.159.212.306.297.465z" style="fill:#231815" data-source="https://football-logos.cc"></path><path d="M617.372 524.228c-5.744-8.594-18.718.876-18.718.876-9.319 8.311-21.385 13.24-21.385 13.24 13.621 5.967 26.99 19.952 26.99 19.952 9.542-6.339 14.015-18.49 14.015-18.49 3.409-12.428-.902-15.578-.902-15.578" style="fill:#ac2424"></path><path d="M622.947 498.019c-4.899-1.592-9.246-5.26-9.246-5.26-9.373-11.658 3.67-22.883 3.67-22.883 1.131-2.161 2.267-1.022 2.267-1.022 3.535 2.531 11.324 13.381 11.324 13.381 3.536 2.968 5.483-3.764 5.483-3.764 1.135-16.365-11.681-17.504-11.681-17.504-15.084-.906-33.84 16.354-33.84 16.354-20.338 17.94-22.283 42.644-22.283 42.644-.46 26.785 20.115 7.22 20.115 7.22 13.493-14.861 26.664-10.97 26.664-10.97 3.083-4.293 10.609-10.634 10.609-10.634 2.301-1.045 2.434-2.303 2.434-2.303-.938-2.178-5.516-5.259-5.516-5.259" style="fill:#ac2424"></path><path d="M616.196 486.694c7.433 6.065 13.73-.807 13.73-.807-2.958-5.83-11.517-11.166-11.517-11.166-6.297 5.42-2.213 11.973-2.213 11.973" style="fill:#ac2424"></path><path d="M665.711 502.004c-14.278-12.109-20.57-24.228-20.57-24.228-1.945-9.721-6.07-9.15-6.07-9.15 4.805 22.414-16.515 24.768-16.515 24.768 1.689 2.58 10.9 8.744 10.9 8.744 6.43 5.14 13.176 14.521 13.176 14.521 9.601 9.257 18.753-1.157 18.753-1.157 6.652-7.766.326-13.498.326-13.498" style="fill:#ac2424"></path><path d="M670.862 503.192c-4.188-6.539-13.434-15.587-22.842-27.007-1.625-2-2.726-6.899-4.182-9.084-1.817-3.437-5.225-6.327-9.211-8.863-7.077-3.096-14.347-1.634-21.389.719-15.049 6.166-25.755 16.858-36.976 28.098-2.727 5.075-15.058 18.654-12.885 44.945 0 6.704 16.673 13.223 20.668 15.229 4.707 3.25 17.774 11.053 18.847 16.683-15.928 15.389-28.453 25.534-47.299 39.125C511.762 635.91 454.74 657.009 400 656.999c-54.735.01-111.762-21.089-155.594-53.963-18.846-13.591-31.37-23.736-47.298-39.125 1.072-5.63 14.14-13.433 18.846-16.683 3.996-2.006 20.669-8.524 20.669-15.229 2.168-26.291-10.16-39.87-12.885-44.945-11.221-11.24-21.927-21.932-36.976-28.098-7.042-2.353-14.313-3.814-21.384-.719-3.991 2.536-7.399 5.426-9.216 8.863-1.457 2.185-2.559 7.085-4.183 9.084-9.407 11.42-18.652 20.468-22.841 27.007-1.814 2.904-2.169 5.974-1.615 8.323 1.452 5.449 4.178 8.173 9.245 10.704 6.874 3.082 15.566.907 19.206-4.184 1.259-1.265 3.24-3.632 4.179-5.081 2.697-3.615 5.418-6.321 9.023-5.79 4.376 0 9.245 5.613 11.062 10.153-3.245 3.082-4.153 5.067-4.869 11.423.716 8.696-.548 17.032-1.817 25.727-2.011 8.691-3.986 14.682-8.332 23.02-6.879 11.423-13.241 17.043-14.505 22.11-.553 3.615-.909 7.428-.164 11.062 1.23 4.885 2.89 9.78 6.683 13.4 27.188 36.434 82.274 76.105 125.037 93.533 38.443 14.8 75.943 22.328 117.724 23.039h.01c41.781-.711 79.281-8.239 117.723-23.039 42.765-17.428 97.851-57.099 125.038-93.533 3.793-3.62 5.451-8.514 6.682-13.4.747-3.634.391-7.448-.157-11.062-1.27-5.067-7.63-10.687-14.51-22.11-4.342-8.338-6.322-14.329-8.332-23.02-1.269-8.696-2.528-17.031-1.817-25.727-.711-6.356-1.625-8.34-4.869-11.423 1.817-4.539 6.686-10.153 11.062-10.153 3.605-.531 6.326 2.175 9.028 5.79.934 1.449 2.914 3.816 4.179 5.081 3.634 5.091 12.327 7.266 19.206 4.184 5.062-2.531 7.789-5.255 9.24-10.704.552-2.348.196-5.419-1.616-8.322m-93.594 35.151s12.066-4.929 21.385-13.24c0 0 12.974-9.47 18.718-.876 0 0 4.312 3.15.903 15.577 0 0-4.474 12.151-14.015 18.49 0 .001-13.37-13.984-26.991-19.951m-381.527 19.952c-9.543-6.339-14.016-18.49-14.016-18.49-3.408-12.427.909-15.577.909-15.577 5.739-8.594 18.713.876 18.713.876 9.319 8.311 21.384 13.24 21.384 13.24-13.622 5.966-26.99 19.951-26.99 19.951m-29.198-56.157c-6.43 5.14-13.176 14.521-13.176 14.521-9.602 9.257-18.753-1.157-18.753-1.157-6.652-7.767-.325-13.499-.325-13.499 14.277-12.109 20.569-24.228 20.569-24.228 1.947-9.721 6.069-9.15 6.069-9.15-4.805 22.414 16.516 24.768 16.516 24.768-1.69 2.581-10.9 8.745-10.9 8.745m3.536-16.251c2.953-5.83 11.512-11.166 11.512-11.166 6.297 5.42 2.211 11.973 2.211 11.973-7.426 6.065-13.723-.807-13.723-.807m3.892 19.693c-2.302-1.045-2.435-2.303-2.435-2.303.939-2.176 5.516-5.258 5.516-5.258 4.9-1.592 9.245-5.26 9.245-5.26 9.373-11.658-3.664-22.883-3.664-22.883-1.136-2.161-2.272-1.022-2.272-1.022-3.536 2.531-11.324 13.381-11.324 13.381-3.536 2.968-5.478-3.764-5.478-3.764-1.141-16.365 11.676-17.504 11.676-17.504 15.082-.906 33.84 16.354 33.84 16.354 20.341 17.94 22.283 42.644 22.283 42.644.46 26.785-20.115 7.22-20.115 7.22-13.493-14.861-26.665-10.97-26.665-10.97-3.081-4.293-10.607-10.635-10.607-10.635m467.792 91.939c4.968 7.01 1.461 16.351 1.461 16.351-6.454 13.741-22.806 28.926-22.806 28.926-44.415 47.061-106.089 71.024-106.089 71.024-40.579 16.939-80.771 22.13-114.329 22.289-33.558-.16-73.75-5.35-114.331-22.289 0 0-61.675-23.963-106.088-71.024 0 0-16.351-15.185-22.807-28.926 0 0-3.506-9.342 1.461-16.351 0 0 24.846-28.645 22.512-47.363 0 0 30.397 49.683 118.351 89.737 0 0 42.754 20.595 100.897 21.616h.01c58.143-1.021 100.897-21.616 100.897-21.616 87.954-40.054 118.351-89.737 118.351-89.737-2.336 18.718 22.51 47.363 22.51 47.363m-15.734-91.939s-7.526 6.342-10.609 10.634c0 0-13.171-3.891-26.664 10.97 0 0-20.575 19.565-20.115-7.22 0 0 1.945-24.704 22.283-42.644 0 0 18.756-17.26 33.84-16.354 0 0 12.815 1.14 11.681 17.504 0 0-1.947 6.731-5.483 3.764 0 0-7.789-10.851-11.324-13.381 0 0-1.136-1.138-2.267 1.022 0 0-13.044 11.226-3.67 22.883 0 0 4.347 3.668 9.246 5.26 0 0 4.578 3.081 5.516 5.258 0 .001-.133 1.259-2.434 2.304m3.896-19.693s-6.297 6.872-13.73.807c0 0-4.084-6.553 2.213-11.973 0 0 8.56 5.336 11.517 11.166m35.46 29.616s-9.152 10.414-18.753 1.157c0 0-6.746-9.381-13.176-14.521 0 0-9.211-6.164-10.9-8.744 0 0 21.32-2.354 16.515-24.768 0 0 4.124-.571 6.07 9.15 0 0 6.292 12.12 20.57 24.228 0-.001 6.326 5.731-.326 13.498"></path><path d="M641.763 597.519s-24.847-28.645-22.511-47.363c0 0-30.397 49.683-118.351 89.737 0 0-42.754 20.595-100.902 21.616-58.143-1.021-100.902-21.616-100.902-21.616-87.954-40.054-118.351-89.737-118.351-89.737 2.335 18.718-22.512 47.363-22.512 47.363-4.967 7.01-1.461 16.351-1.461 16.351 6.455 13.741 22.807 28.926 22.807 28.926 44.414 47.061 106.088 71.024 106.088 71.024 40.576 16.939 80.772 22.13 114.326 22.289h.011c33.553-.16 73.75-5.35 114.326-22.289 0 0 61.674-23.963 106.089-71.024 0 0 16.351-15.185 22.806-28.926-.001 0 3.506-9.342-1.463-16.351" style="fill:#ac2424"></path><path d="M182.633 524.228c5.739-8.594 18.713.876 18.713.876 9.319 8.311 21.384 13.24 21.384 13.24-13.621 5.967-26.989 19.952-26.989 19.952-9.543-6.339-14.016-18.49-14.016-18.49-3.408-12.428.908-15.578.908-15.578" style="fill:#ac2424"></path><path d="M177.053 498.019c4.9-1.592 9.245-5.26 9.245-5.26 9.373-11.658-3.664-22.883-3.664-22.883-1.136-2.161-2.272-1.022-2.272-1.022-3.536 2.531-11.324 13.381-11.324 13.381-3.536 2.968-5.478-3.764-5.478-3.764-1.141-16.365 11.676-17.504 11.676-17.504 15.082-.906 33.84 16.354 33.84 16.354 20.341 17.94 22.283 42.644 22.283 42.644.46 26.785-20.115 7.22-20.115 7.22-13.493-14.861-26.665-10.97-26.665-10.97-3.081-4.293-10.607-10.634-10.607-10.634-2.302-1.045-2.435-2.303-2.435-2.303.938-2.178 5.516-5.259 5.516-5.259" style="fill:#ac2424"></path><path d="M183.803 486.694c-7.427 6.065-13.724-.807-13.724-.807 2.953-5.83 11.512-11.166 11.512-11.166 6.298 5.42 2.212 11.973 2.212 11.973" style="fill:#ac2424" data-source="https://football-logos.cc"></path><path d="M134.289 502.004c14.277-12.109 20.569-24.228 20.569-24.228 1.947-9.721 6.069-9.15 6.069-9.15-4.805 22.414 16.516 24.768 16.516 24.768-1.69 2.58-10.9 8.744-10.9 8.744-6.43 5.14-13.176 14.521-13.176 14.521-9.602 9.257-18.753-1.157-18.753-1.157-6.652-7.766-.325-13.498-.325-13.498" style="fill:#ac2424"></path><path d="M204.032 603.747c1.363.849 3.049 2.107 4.633 3.569 1.723 1.592 2.766 2.954 3.28 4.573.553 1.563.355 3.373-.904 4.766-1.883 2.052-4.579 1.95-6.816.801l-.07.08c1.107 1.95.914 4.118-.74 5.921-1.62 1.769-3.734 2.163-5.778 1.817-2.267-.305-4.672-1.831-7.393-4.326-1.817-1.708-3.216-3.184-3.828-4.094zm-11.452 14.178c.356.433.776.815 1.293 1.304 1.887 1.718 4.288 2.557 5.972.74 1.496-1.621.588-3.358-1.037-4.849l-1.102-1.004zm8.01-5.872 1.171 1.067c1.91 1.754 3.955 2.178 5.249.781 1.077-1.161.588-2.56-.74-3.784-.588-.542-1.166-.982-1.492-1.181zM221.16 618.409l-9.992 8.278a14.4 14.4 0 0 0-1.881 1.868c-1.165 1.396-1.165 3.179.449 4.522 1.922 1.59 4.19 1.362 7.434-1.314l10.055-8.321 3.664 3.017-9.887 8.193c-5.294 4.36-9.606 4.98-14.278 1.118-3.536-2.884-4.158-6.555-1.136-10.169.583-.733 1.399-1.483 2.208-2.173l9.7-8.06zM230.538 653.014c-1.269-.28-3.116-1.12-5.259-2.712-4.732-3.513-5.739-8.725-2.238-13.431 2.983-4.036 7.107-5.809 11.128-5.592 2.795.094 5.422 1.103 7.951 2.964 1.911 1.447 3.047 2.974 3.339 3.67l-3.339 2.294c-.326-.636-1.269-1.839-2.79-2.981-1.556-1.133-3.344-1.749-5.097-1.65-2.395.143-4.9 1.457-6.747 3.925-2.138 2.855-1.945 5.967 1.2 8.289 1.235.929 2.663 1.655 3.799 1.931zM252.017 641.509l-6.169 6.281 6.683 4.445 6.169-6.279 3.955 2.661-15.798 16.141-3.926-2.632 6.622-6.826-6.717-4.442-6.652 6.809-3.961-2.628 15.834-16.158zM267.782 666.295l-6.781-4.021-3.631 4.159 7.625 4.489-2.766 3.102-11.705-6.934 14.949-16.947 11.295 6.685-2.726 3.08-7.205-4.271-3.176 3.586 6.811 4.06zM273.851 680.701c-5.132-2.642-6.1-7.752-3.738-12.328 1.822-3.55 4.967-6.361 8.375-7.426 2.756-.852 5.872-.624 8.727.857 5.22 2.708 6.163 7.641 3.729 12.347-1.847 3.562-4.93 6.436-8.308 7.474-2.721.878-5.802.632-8.756-.89zm2.4-3.191c3.403 1.73 8.204-1.861 10.12-5.565 1.264-2.47 1.625-5.285-1.492-6.884-3.536-1.844-8.308 1.703-10.248 5.456-1.432 2.771-1.24 5.512 1.58 6.973zM285.817 686.411l12.717-18.684 5.097 2.216-.681 8.945a76 76 0 0 1-1.171 7.755l.099.034c1.008-2.052 2.272-4.159 4.094-6.915l4.603-6.799 4.084 1.766-12.713 18.689-4.513-1.945.716-9.373c.287-3.182.548-5.255 1.066-7.948l-.093-.048c-1.042 1.897-2.79 4.573-4.8 7.542l-4.445 6.538zM328.122 679.373l12.402 3.927-1.951 3.615-7.853-2.485-2.562 4.658 7.369 2.325-1.947 3.562-7.339-2.311-4.307 8.023-4.514-1.427zM343.017 707.079c-5.61-1.331-7.787-6.071-6.587-11.094.943-3.881 3.314-7.334 6.36-9.216 2.494-1.462 5.552-1.96 8.694-1.2 5.713 1.365 7.783 5.938 6.553 11.094-.973 3.898-3.275 7.401-6.263 9.221-2.464 1.515-5.512 1.989-8.721 1.195zm1.556-3.666c3.695.893 7.527-3.767 8.505-7.817.641-2.691.292-5.512-3.081-6.327-3.897-.936-7.665 3.637-8.668 7.735-.716 3.032.099 5.659 3.215 6.409zM365.76 711.686c-5.679-.895-8.271-5.417-7.462-10.511.588-3.958 2.663-7.61 5.516-9.731 2.365-1.655 5.384-2.437 8.564-1.948 5.807.869 8.271 5.255 7.457 10.489-.612 3.983-2.593 7.675-5.448 9.741-2.306 1.703-5.289 2.444-8.598 1.96zm1.264-3.833c3.764.588 7.172-4.36 7.788-8.493.42-2.734-.163-5.517-3.605-6.056-3.926-.593-7.294 4.285-7.946 8.454-.489 3.082.553 5.611 3.733 6.095zM386.651 695.625l-5.838-.455 1.136-4.07 16.451 1.285-1.106 4.084-5.907-.467-4.834 17.728-4.736-.37zM399.402 692.613c1.59-.317 3.669-.494 5.837-.494 2.336.036 4.025.346 5.486 1.205 1.492.776 2.564 2.243 2.564 4.125-.034 2.783-2.113 4.503-4.543 5.19v.099c2.142.675 3.471 2.429 3.437 4.858 0 2.405-1.295 4.118-3.047 5.255-1.911 1.263-4.701 1.766-8.406 1.757-2.464-.034-4.474-.196-5.576-.445zm1.037 18.192c.553.073 1.107.073 1.817.087 2.563.014 4.9-.987 4.935-3.455.034-2.207-1.823-2.894-4.025-2.894h-1.492zm1.981-9.726h1.591c2.593.029 4.41-1.043 4.41-2.954 0-1.575-1.264-2.272-3.081-2.301-.81 0-1.527.063-1.883.128zM419.873 708.347l-2.179 5.938-5.052.334 9.275-22.884 6.069-.421 4.115 21.965-4.993.339-.844-5.725zm5.937-4.041-.742-4.755c-.197-1.2-.423-2.974-.587-4.302l-.099.019c-.484 1.379-1.002 3.112-1.492 4.44l-1.852 4.919zM435.579 690.399l4.701-.661-.844 18.348 8.435-1.186-.226 4.212-13.137 1.87zM450.049 688.105l4.666-.948.258 18.364 8.377-1.718.058 4.229-13.038 2.661zM493.485 698.727c-1.003.857-2.722 1.883-5.286 2.705-5.615 1.805-10.415-.387-12.232-5.964-1.527-4.786-.588-9.182 1.91-12.332 1.724-2.202 4.025-3.784 7.043-4.721 2.272-.752 4.153-.762 4.9-.632l-.064 4.089c-.716-.131-2.238-.06-4.026.518-1.847.602-3.373 1.718-4.312 3.208-1.298 2.032-1.689 4.817-.716 7.755 1.067 3.395 3.735 5.028 7.428 3.849 1.492-.474 2.884-1.217 3.798-2.003zM491.928 676.191l4.382-1.718 3.408 18.055 7.946-3.136.78 4.154-12.357 4.851zM508.641 669.218l3.145 12.594c.159.777.45 1.633.84 2.49.775 1.655 2.366 2.439 4.283 1.56 2.272-1.038 3.052-3.215 2.045-7.28l-3.147-12.674 4.312-1.979 3.081 12.475c1.66 6.634.327 10.786-5.15 13.32-4.153 1.945-7.694.939-9.67-3.344a18 18 0 0 1-1.008-2.954l-3.052-12.233zM522.722 662.847c1.224-1.043 2.948-2.214 4.894-3.23 2.045-1.106 3.669-1.655 5.388-1.595 1.655-.031 3.309.716 4.183 2.369 1.328 2.466.356 4.965-1.463 6.733l.064.099c2.179-.44 4.193.455 5.359 2.613 1.136 2.107.839 4.215-.163 6.063-1.042 2.008-3.28 3.794-6.524 5.546-2.207 1.2-4.055 2.016-5.091 2.303zm6.741 5.947 1.368-.748c2.301-1.234 3.373-3.046 2.429-4.699-.745-1.413-2.207-1.413-3.797-.552-.711.392-1.293.777-1.59 1.004zm2.919 9.478c.523-.198 1.047-.46 1.625-.782 2.272-1.234 3.857-3.24 2.666-5.417-1.046-1.945-2.993-1.64-4.904-.588l-1.333.702zM551.494 650.21l-.064.034-2.919 4.505-2.498-3.503 4.084-6.33 3.797-2.509 9.799 23.438-4.416 2.918zM570.311 656.307c.553-.324 1.077-.745 1.881-1.396 1.328-1.101 2.4-2.562 3.017-4.154.811-2.008.974-4.133.554-6.131l-.13-.017c-.226 1.725-1.392 3.273-2.726 4.287-3.185 2.35-6.973 1.769-9.379-1.478-3.214-4.365-2.335-10.745 2.209-14.113 4.439-3.274 8.76-1.783 11.714 2.204 3.466 4.8 4.084 10.67 2.982 14.793-.878 3.182-3.017 6.204-5.65 8.318-1.131.948-1.718 1.353-2.331 1.723zm-2.44-19.274c-1.779 1.295-1.679 4.459-.217 6.456 1.229 1.64 2.948 1.979 4.346.977 1.195-.91 1.748-2.236 1.718-3.339.03-.36-.064-.765-.29-1.268-.168-.484-.618-1.2-1.008-1.754-1.171-1.604-2.885-2.287-4.509-1.086zM586.757 643.977c.582-.356 1.042-.779 1.817-1.457a10.8 10.8 0 0 0 2.855-4.317 10.44 10.44 0 0 0 .226-6.136l-.093-.029c-.163 1.735-1.235 3.353-2.534 4.433-3.081 2.492-6.874 2.088-9.442-1.06-3.402-4.181-2.849-10.607 1.527-14.179 4.281-3.506 8.667-2.187 11.812 1.635 3.695 4.626 4.608 10.472 3.666 14.653-.682 3.179-2.727 6.327-5.221 8.565-1.077 1.007-1.689 1.433-2.242 1.815zm-3.339-19.11c-1.684 1.379-1.457 4.51.099 6.441 1.298 1.592 3.046 1.853 4.374.76 1.171-.958 1.626-2.335 1.561-3.402 0-.358-.098-.765-.36-1.268-.162-.484-.641-1.181-1.066-1.684-1.269-1.563-2.983-2.158-4.574-.881zM604.699 607.579l-6.584 5.839 1.684 3.697c.297-.324.455-.489.752-.774 1.096-.944 2.982-2.115 4.894-2.279 2.108-.29 4.188.556 5.744 2.303 4.153 4.677 2.568 10.83-2.139 15.009-2.237 1.996-4.544 3.131-5.778 3.196l-1.881-4.249c1.17-.198 3.046-1.072 4.637-2.468 2.045-1.815 3.309-4.895 1.492-6.905-1.458-1.66-3.562-1.945-7.167 1.229a43 43 0 0 0-2.178 2.168l-5.932-12.016 10.026-8.904z" style="fill:#fff"></path><path d="M636.799 135.064c-.256-4.839-.617-12.115-1.654-13.047-.84-.742-6.356-.289-11.226.098 0 0-2.82.232-2.919.248-41.682 2.595-83.553-5.186-123.704-17.311V585.23c13.7-9.649 26.733-20.648 39.025-33.039 36.176-36.46 64.336-82.95 83.672-138.103 25.537-72.707 21.576-165.848 17.749-255.896.001 0-.943-23.161-.943-23.128M163.199 135.064c.258-4.839.618-12.115 1.655-13.047.84-.742 6.356-.289 11.226.098 0 0 2.82.232 2.918.248 41.683 2.595 83.554-5.186 123.705-17.311V585.23c-13.701-9.649-26.734-20.648-39.025-33.039-36.176-36.46-64.336-82.95-83.672-138.103-25.537-72.707-21.577-165.848-17.745-255.896 0 0 .938-23.161.938-23.128" style="fill:#ac2424"></path><path d="m646.895 157.79-.979-23.136c-.489-10.002-.776-16.038-4.736-19.515-3.758-3.301-8.825-2.884-18-2.135l-2.791.226c-73.131 4.539-147.682-23.977-211.786-51.067l-1.665-.763c-3.072-1.415-4.978-2.075-6.933-2.035h-.01c-1.956-.04-3.862.619-6.935 2.035l-1.664.763c-64.104 27.091-138.653 55.607-211.785 51.067l-2.791-.226c-9.176-.749-14.243-1.166-18.002 2.135-3.961 3.477-4.248 9.513-4.736 19.515l-.977 23.136c-3.857 90.936-7.848 184.954 18.273 259.316 19.79 56.463 48.661 104.08 85.81 141.516 37.208 37.535 80.916 63.003 129.898 75.749 5.531 1.466 9.205 2.197 12.91 2.192h.009c3.704.005 7.378-.726 12.91-2.192 48.982-12.746 92.689-38.215 129.898-75.749 37.147-37.436 66.02-85.053 85.809-141.516 26.12-74.362 22.13-168.38 18.273-259.316M302.703 585.23c-13.701-9.649-26.734-20.648-39.025-33.039-36.176-36.46-64.336-82.95-83.672-138.103-25.537-72.707-21.577-165.848-17.745-255.896 0 0 .939-23.161.939-23.128.258-4.839.618-12.115 1.655-13.047.84-.742 6.356-.289 11.226.098 0 0 2.82.232 2.918.248 41.683 2.595 83.554-5.186 123.705-17.311V585.23zm317.291-171.142c-19.336 55.153-47.496 101.643-83.672 138.103-12.293 12.391-25.326 23.39-39.025 33.039V105.052c40.152 12.125 82.022 19.906 123.704 17.311.099-.016 2.919-.248 2.919-.248 4.869-.387 10.386-.84 11.226-.098 1.037.933 1.397 8.208 1.654 13.047 0-.034.944 23.128.944 23.128 3.827 90.048 7.788 183.189-17.75 255.896"></path><path d="M432.275 292.169c13.299-11.601 28.683-16.227 44.606-16.809 4.938-.204 9.897 0 14.86.501-.553-4.055-3.181-7.64-6.326-10.41-5.185-4.596-12.455-7.882-18.426-9.389h-.03c-6.977-1.723-14.179-2.276-21.349-2.083-17.809.425-35.134 5.353-43.505 9.035v8.26c10.83 3.763 18.979 10.963 27.671 18.69zm73.774-14.145c6.622 1.295 13.206 2.969 19.592 4.798h.034c1.106.327 2.439.731 3.832 1.169 6.129 1.945 14.243 4.509 19.458 3.279 4.129-.975 6.46-4.849 4.129-14.695l-1.274-5.385 4.384 3.404.49.386h.034c1.354 1.101 2.524 2.303 3.467 3.603a19 19 0 0 1 2.365 4.136c3.023 7.173 1.754 15.813-2.266 22.498l-.03.048a21.4 21.4 0 0 1-2.014 2.836c-.747.878-1.522 1.724-2.371 2.501-4.148 3.894-9.309 6.361-12.91 7.663a15 15 0 0 0-3.99 2.234c-2.954 2.305-5.225 5.773-6.362 9.636-1.13 3.857-1.194 8.142.232 12.084a17.8 17.8 0 0 0 2.722 4.944l4.445 5.664-6.712-2.661c-14.183-5.643-15.058-14.11-15.774-21.023-.351-3.421-.647-6.371-2.977-7.739h-.035l-.36-.227c-22.906-13.51-37.05-21.833-64.948-11.776 4.182 3.339 4.509 6.636 2.429 9.797-1.783 2.699-5.674 5.047-10.183 7.121 3.506-.465 7.141-.825 10.934-1.019h.034l.193-.016c4.735-.207 9.605.517 14.11 1.215 4.317.65 8.341 1.268 11.259.907 3.502-.455 5.547-2.694 4.702-9.31l-.81-6.356 4.217 4.835c5.419 6.213 7.883 11.811 7.596 17.321-.327 5.548-3.408 10.806-9.216 16.389a17 17 0 0 0-1.432 1.556c-2.301 2.918-2.982 6.193-2.365 9.506.652 3.499 2.791 7.12 6.065 10.493a37 37 0 0 0 3.802 3.42l5.933 4.706-7.463-1.234c-7.62-1.262-12.945-3.142-17.058-5.251.055.773.088 1.57.088 2.366v.017c0 11.404-5.807 22.853-14.757 33.267 4.248 2.241 8.95 4.383 13.946 6.346a143 143 0 0 0 16.195 5.296c22.802 6.005 44.542 6.43 61.313-7.405 5.384-4.45 7.888-6.154 13.917-14.581-1.032 6.534-2.855 14.337-5.932 19.171-10.322 16.384-28.165 25.857-48.216 30.076-21.024 4.44-38.74 3.066-58.751-2.405-8.861-2.398-17.004-5.617-23.943-9.438v-.017a24 24 0 0 1-1.264-.714c-7.369 4.217-14.93 7.734-22.259 10.346 1.235 6.91 3.733 12.44 7.398 17.305 3.991 5.386 9.438 10.073 16.09 15.056l4.968 3.732-6.169-.208-.356-.017h-.029c-2.376-.099-4.805-.256-7.236-.534a103 103 0 0 1-7.367-1.124c-11.35-2.254-22.156-6.833-27.934-14.646l-.197.311c-1.229 1.764-2.785 3.37-4.637 4.802-1.783 1.421-3.793 2.657-5.967 3.774-10.059 5.16-23.715 7.396-32.254 7.433l-7.137.03 6.134-3.652c3.833-2.284 8.144-5.524 11.977-10.569 3.66-4.805 6.904-11.296 8.984-20.153-8.075-2.593-16.417-6.361-24.718-10.102-15.42-6.932-30.728-13.839-43.511-12.997-1.787.133-3.604.227-5.318.294-12.979.647-20.732 1.034-32.477 19.009l-4.183 6.326.583-7.561c1.812-23.711 14.307-27.965 25.533-31.76 4.347-1.492 8.5-2.884 11.384-5.415 7.137-6.199 10.322-14.844 11.33-24.089.968-8.971-.099-18.512-1.694-26.951-3.699-.51-6.781-1.516-9.473-3.24-3.048-1.914-5.512-4.706-7.522-8.565l-2.661-5.063 5.19 2.388c12.49 5.726 23.39-2.889 33.579-10.92 9.897-7.817 19.138-15.117 29.46-10.284l5.768 2.709-6.292.995c-3.048.472-5.546 1.847-7.59 3.889-3.635 3.702-5.808 9.606-6.776 16.419-1.008 7.005-.716 14.921.42 22.414 1.812 11.483 5.645 21.919 10.317 26.506l.518.503c.064.571.094 1.153.094 1.705.163 4.8-2.232 6.489-5.611 7.59 7.108.813 14.145 2.423 21.158 4.48.938.276 1.876.583 2.785.876v-38.089c-4.706 2.918-9.274 6.492-13.398 10.707l-5.19 5.27 1.881-7.137c3.245-12.248 9.344-21.004 16.866-27.652l-.093-45.648c-3.927 1.065-8.046 2.462-12.264 3.987v.02c-7.526 2.717-15.542 6.08-23.617 9.482-35.266 14.799-71.635 30.08-84.841.65l-2.43-5.356 5.161 2.86c25.529 14.273 52.292-2.452 76.787-17.748 13.102-8.208 26.377-16.174 41.169-20.94l-.03-4.425c-4.602-.491-9.215-1.545-13.626-2.993-14.564-4.735-31.504-15.376-39.322-36.037l-2.493-6.618 5.541 4.41c28.521 22.708 56.385 13.836 87.533 3.924a495 495 0 0 1 13.696-4.218 491 491 0 0 1 12.519-3.506c22.708-6.031 50.839-11.806 72.346-10.899l.293.02c11.516.503 26.021 3.358 31.86 14.584l3.145 5.965-5.838-3.393c-3.955-2.299-9.146-2.444-13.852-1.086-4.638 1.349-9.863 4.648-11.033 9.707-.578 2.4-.123 5.121 1.689 8.055 4.869 7.838 8.989 17.636 6.553 27-.426 1.609-1.009 3.148-1.818 4.626m-96.196 142.263a47.8 47.8 0 0 1-7.749-10.3v9.487c1.293.521 2.632 1.072 4.8 1.909a92 92 0 0 0 2.949-1.096m11.813-52.238a67 67 0 0 0 2.137 4.462c3.671 7.122 8.633 13.967 14.081 19.338a20.1 20.1 0 0 0-.874-4.757c-1.458-4.829-4.673-9.501-9.019-13.721a54.4 54.4 0 0 0-6.325-5.322m-19.562-56.448v11.261a174 174 0 0 0 4.894-2.34c-1.457-3.392-3.111-6.357-4.894-8.921"></path><path d="M444.212 325.942c-1.264.115-2.559.275-3.858.423-6.005.78-11.586 1.881-16.939 3.323 16.584 6.892 39.777 17.404 45.002 35.057l.035.01c3.728 2.255 7.654 3.834 11.872 4.984-3.181-3.598-5.318-7.466-6.035-11.322-.844-4.442.064-8.793 3.112-12.653a18 18 0 0 1 1.787-1.981c5.092-4.9 7.788-9.33 8.05-13.792.159-3.143-.878-6.432-3.181-9.988-.75 4.993-3.767 7.042-8.178 7.563-3.472.451-7.723-.183-12.297-.882-3.116-.489-6.42-1-9.635-1.169-3.246-.153-6.491.117-9.735.427m30.238-46.391c-14.855.58-29.163 4.8-41.629 15.374 3.22 2.63 6.59 5.415 10.126 8.031 31.147-12.088 46.067-3.294 70.627 11.171l.361.232c4.05 2.367 4.445 6.226 4.899 10.707.513 4.786 1.101 10.447 7.818 14.956l-.069-.178c-1.684-4.756-1.65-9.879-.257-14.502 1.362-4.63 4.084-8.78 7.69-11.602 1.521-1.229 3.244-2.175 5.091-2.854 3.245-1.153 7.854-3.378 11.548-6.813.716-.679 1.363-1.4 2.016-2.135a20.5 20.5 0 0 0 1.689-2.374v-.031l.029-.035c3.408-5.674 4.544-12.976 2.016-18.947a14 14 0 0 0-1.077-2.074c.489 8.079-2.953 11.693-8.04 12.895-6.262 1.491-14.924-1.252-21.512-3.324-1.33-.422-2.564-.812-3.735-1.15h-.029c-6.811-1.965-13.823-3.734-20.891-5.047-1.754 2.175-4.055 4.186-6.974 5.986-2.147 1.331-4.647 2.58-7.531 3.684l-7.428 2.854 5.289-5.968c2.4-2.745 3.858-5.356 4.475-7.837.034-.161.064-.339.099-.507-4.901-.488-9.8-.68-14.601-.512m-8.854 92.62h-.035c0-20.862-28.872-32.798-46.655-40.13l-3.309-1.362-4.183-1.719 4.119-1.867c1.625-.728 4.317-1.622 7.462-2.699 8.237-2.756 19.923-6.685 22.807-11.06 1.008-1.501.425-3.289-2.785-5.431-6.974-4.608-12.786-9.769-18.362-14.73-8.016-7.069-15.478-13.726-25.148-17.388v29.849c3.565 3.972 6.682 9.033 9.25 15.374l.681 1.625-1.561.828c-2.628 1.394-5.417 2.708-8.37 3.989l-.256.118c-2.406 1.067-4.871 2.066-7.394 3.141-1.599.65-3.22 1.333-4.84 2.013-9.571 4.151-18.756 8.694-27.379 15.991l-3.182 2.692v-.047c-4.346 4.4-8.05 9.672-10.737 16.142 7.72-6.375 16.353-10.934 24.206-13.445 4.182-1.348 8.593-2.284 13.038-2.27 4.962.03 10.149.857 15.345 2.319 3.729.842 6.554 1.779 9.279 3.012 2.697 1.219 5.251 2.697 8.5 4.637l.647.381v.014c4.251 2.561 8.114 5.512 11.418 8.724 4.776 4.677 8.341 9.915 10.026 15.38.944 3.067 1.304 6.183.973 9.308 2.208 1.789 4.549 3.443 6.949 4.98a114 114 0 0 0 5.121 3.022c8.725-9.918 14.375-20.748 14.375-31.391m-109.269-94.83c-14.016 4.701-26.64 12.326-39.129 20.145-23.616 14.763-49.312 30.81-74.939 20.609 13.852 18.421 45.747 5.054 76.727-7.957 8.011-3.373 15.997-6.717 23.746-9.535l.034-.016v-.019c4.707-1.684 9.245-3.181 13.591-4.331zm54.147 146.19c-1.753.71-3.605 1.426-5.517 2.106l-.681.227-.681-.242c-8.564-3.344-17.523-7.283-26.54-10.964-17.873-7.317-36.404-13.903-54.889-13.903h-7.532c4.544-2.531 8.535-4.903 13.631-6.205 3.206-.823 5.769-1.487 5.808-4.667-5.002-5.401-9.056-16.32-10.875-28.131-1.229-7.877-1.525-16.186-.455-23.562 1.073-7.582 3.571-14.263 7.853-18.609a19 19 0 0 1 2.86-2.369c-6.134.664-12.426 5.648-19.014 10.836-9.635 7.62-19.853 15.685-31.958 13.282 3.635 3.978 8.632 5.013 13.724 5.514l.292 1.432c1.783 9.07 3.082 19.562 2.011 29.505-1.102 10.122-4.667 19.678-12.653 26.625-3.502 3.027-8.011 4.554-12.717 6.178-8.633 2.919-18.164 6.145-21.637 20.437 10.347-13.044 18.363-13.431 30.754-14.052 1.59-.079 3.274-.157 5.259-.29 13.755-.941 29.519 6.17 45.352 13.322 14.604 6.568 29.267 13.183 41.88 13.249h.197c12.006 0 28.027-5.318 43.313-13.854-.484-.327-.973-.645-1.428-.976a85 85 0 0 1-5.057-3.874l-.069.034-.875-.728zm96.547-198.328c3.344-.97 6.914-1.293 10.312-.778-3.334-2.967-8.005-5.012-13.656-6.262a52 52 0 0 0-5.284-.906 84 84 0 0 0-5.808-.486h-.256c-21.024-.877-48.764 4.8-71.181 10.771-4.445 1.188-8.628 2.339-12.426 3.472a562 562 0 0 0-10.673 3.245l-.227.062-2.696.862c-30.037 9.585-57.13 18.181-85.093-.175 8.075 15.021 21.799 23.177 33.8 27.086a64 64 0 0 0 7.723 2.007c2.437.489 4.669.783 6.652.948l.164.012 1.817.114v1.832l.163 76.128c10.184-7.783 20.955-12.293 32.18-16.999l3.082-1.281V260.83l1.096-.504c8.183-3.88 26.965-9.457 46.271-9.943a99 99 0 0 1 11.255.356c3.799.357 7.497.958 11.099 1.85h.034c6.489 1.625 14.371 5.228 20.046 10.249 2.756 2.438 5.033 5.23 6.39 8.31 1.399 3.183 1.852 6.686.91 10.381-.261 1.101-.682 2.203-1.2 3.341l.582-.356c5.255-3.277 8.277-7.3 9.413-11.782 1.195-4.536.514-9.668-1.525-15.016-1.136-2.924-2.661-5.906-4.544-8.925-2.435-3.923-2.987-7.654-2.203-11.033.711-3.046 2.559-5.754 5.058-7.916 2.398-2.088 5.452-3.693 8.725-4.639m-87.918 200.039c1.98 1.4 3.991 2.729 6.001 3.83 6.717 3.704 14.569 6.785 23.098 9.105 19.498 5.301 36.532 6.67 56.968 2.338 19.404-4.091 38.349-13.905 47.926-32.187-19.568 19.188-43.154 19.401-69.236 12.554-10.835-2.855-21.448-6.954-31.336-12.196l-.035-.016h-.034c-5.749-3.017-11.423-6.39-16.412-10.574l-.039-.019v-.016c-7.101-6.003-13.626-14.504-18.264-23.459a72 72 0 0 1-4.246-9.857c-2.865-1.703-5.196-3.022-7.527-4.089-2.014-.911-4.089-1.659-6.618-2.306-.652 3.02-1.24 6.051-1.689 9.084-1.818 11.792-1.461 22.19 1.136 31.144 3.407 11.601 10.701 19.842 20.307 26.664m-15.118 36.537c-3.897-5.225-6.622-11.077-7.981-18.365-3.605 1.202-6.914 2.111-10.059 2.694a59 59 0 0 1-11.028 1.039c-3.733 0-8.144-.553-12.331-1.478a45 45 0 0 1-2.466-.585l-.42-.109c-2.208 9.226-5.674 16.061-9.606 21.185a43.5 43.5 0 0 1-7.265 7.526c7.492-.824 16.545-2.923 23.686-6.585 1.94-.991 3.764-2.107 5.313-3.341 1.561-1.238 2.86-2.56 3.868-3.995a14 14 0 0 0 1.457-2.687l1.556-3.993 1.98 3.795c4.416 8.433 15.414 13.303 27.089 15.606 2.335.455 4.701.827 7.042 1.084l1.002.097c-4.7-3.826-8.656-7.641-11.837-11.888m-43.766-99.322v41.636c6.169 2.08 12.262 4.48 18.327 6.947 5.744 2.367 11.453 4.799 17.069 7.118v-16.774c-.197-.581-.356-1.151-.549-1.731-2.794-9.508-3.145-20.471-1.273-32.803v-.093l.261-1.596v-.029l.297-1.586c.351-2.081.774-4.155 1.229-6.153-4.281-1.084-8.564-1.669-12.653-1.705-4.02-.029-8.039.848-11.838 2.077a64.5 64.5 0 0 0-10.87 4.692M299.196 169.969c0 3.975-1.718 7.317-5.387 9.848-2.855 2.081-6.358 3.181-10.516 3.181-3.629 0-6.356-.797-8.074-2.388-1.304 1.288-3.996 1.899-8.114 1.899h-3.014v-4.283c1.102 0 1.916-.157 2.53-.157 1.264 0 2.074-.324 2.557-.457.297-.326.617-1.286.617-2.723v-12.073l-3.175-2.708 3.175-2.854v-9.542c0-1.585-.321-2.531-1.101-2.852-.809-.329-2.208-.487-4.603-.487v-4.282h3.014c2.691 0 4.607.161 5.743.472.944.157 1.719.629 2.371 1.427 1.718-1.596 4.445-2.383 8.436-2.383 5.382 0 9.502 1.423 12.227 4.294 2.079 2.063 3.017 4.302 3.017 6.991 0 3.672-2.074 6.522-6.356 8.728 4.442 1.916 6.653 5.402 6.653 10.349m-11.261-17.481v-3.506c0-2.061-.326-3.181-.651-3.8-.479-.481-1.428-.808-3.014-.808-1.59 0-2.567.327-2.854.808-.489.451-.815 1.269-.815 2.372v9.861h.815c2.692 0 4.603-.323 5.25-.778.785-.645 1.269-1.928 1.269-4.149m0 20.031v-3.667c0-2.699-.484-4.284-1.13-4.933-1.275-.778-3.023-1.259-5.552-1.259h-.652v12.386c0 2.077 1.27 3.181 3.507 3.181 1.748 0 2.884-.481 3.343-1.421.322-.799.484-2.245.484-4.287m51.486-28.943c-1.916 0-3.179.325-3.664.635-.458.489-.774 1.281-.774 2.566v9.679l3.175 2.711-3.175 2.854v7.786c0 5.564-1.759 9.067-5.423 10.801-2.528 1.288-5.709 1.899-9.373 1.899-5.225 0-9.053-1.101-11.745-3.327-2.078-1.734-3.017-4.765-3.017-9.213v-7.947l-3.181-2.854 3.181-2.711v-9.679c0-1.285-.326-2.245-.78-2.566-.489-.472-1.94-.635-4.317-.635v-4.294h2.376c4.148 0 6.84.484 8.133 1.748.617-.635 1.428-1.096 2.376-1.423 1.101-.168 3.012-.325 5.704-.325h1.753v4.294c-.939 0-1.585 0-2.075.163-.943.162-1.59.308-1.886.792-.321.329-.484 1.101-.484 2.245v9.679l3.181 2.711-3.181 2.854v10.497c0 3.176 1.753 4.766 5.097 4.766 3.467 0 5.255-1.591 5.255-4.766v-10.497l-3.053-2.854 3.053-2.531v-9.717c0-1.428-.198-2.22-.81-2.709-.489-.31-1.753-.635-3.669-.635v-4.294h1.264c3.506 0 6.04.484 7.334 1.748 1.264-1.264 3.793-1.748 7.462-1.748h1.264zm16.057 29.255c0 3.323 1.269 4.913 4.124 4.913 1.3 0 2.395-.459 3.181-1.419-1.265-1.437-1.881-2.865-1.881-3.965 0-1.287.454-2.227 1.59-3.021 1.101-.973 2.533-1.264 4.123-1.264 1.749 0 3.177.291 4.441 1.264 1.264.794 1.91 1.897 1.91 3.181 0 2.369-1.748 4.766-5.091 7.155-2.692 1.896-5.092 2.835-7.463 2.835-5.255 0-9.215-1.717-12.07-5.386-3.047-4.136-4.637-9.048-4.765-14.935l-3.052-2.709 3.344-2.842c.646-4.475 2.242-8.291 4.32-11.308 3.009-4.136 6.968-6.361 12.224-6.361 2.371 0 4.771.967 7.463 2.875 3.343 2.369 5.091 4.935 5.091 7.297 0 1.272-.646 2.244-1.91 3.181-1.264.797-2.692 1.269-4.441 1.269-1.59 0-3.022-.472-4.123-1.269-1.136-.937-1.59-1.909-1.59-3.181 0-1.105.616-2.363 1.881-3.959-.785-.97-1.881-1.442-3.181-1.442-2.855 0-4.124 1.753-4.124 5.074v7.824l3.185 2.842-3.185 2.709zm62 9.678h-3.012c-4.153 0-6.686-.611-7.952-1.899-1.298 1.288-3.99 1.899-8.109 1.899h-1.135v-4.283c1.753-.157 2.726-.481 3.179-.94.322-.481.652-1.279.652-2.398v-12.229h-8.895v12.229c0 1.119.163 1.916.617 2.398.327.459 1.458.783 3.047.94v4.283h-1.131c-3.961 0-6.653-.611-7.951-1.899-1.27 1.288-3.961 1.899-8.109 1.899h-3.018v-4.283c.974 0 1.916-.157 2.559-.157a6.7 6.7 0 0 0 2.375-.457c.484-.326.806-1.286.806-2.723v-11.91l-3.181-2.87 3.181-2.693v-9.702c0-1.585-.322-2.531-1.131-2.852-.617-.329-2.242-.487-4.608-.487v-4.282h3.018c4.149 0 6.839.629 8.109 1.899 1.298-1.27 3.99-1.899 7.951-1.899h1.131v4.282c-1.59.158-2.721.487-3.047.956-.454.304-.617 1.121-.617 2.383v9.702h8.895v-9.702c0-1.262-.33-2.079-.652-2.531-.454-.321-1.426-.65-3.179-.808v-4.282h1.135c4.119 0 6.811.629 8.109 1.899 1.266-1.27 3.799-1.899 7.952-1.899h3.012v4.282c-2.557 0-4.148.158-4.77.65-.642.306-.776 1.262-.776 2.689v9.702l2.988 2.693-2.988 2.87v11.91c0 1.437.133 2.398.776 2.723.622.289 2.213.457 4.77.614v4.283zm39.421-9.826c-.163 2.689-2.078 5.218-5.739 7.296-3.181 2.077-6.494 3.018-10 3.018-3.502 0-6.193-.797-7.947-2.388-1.264 1.288-3.99 1.899-8.109 1.899h-3.176v-4.283c1.101 0 1.911-.157 2.528-.157 1.299 0 2.075-.324 2.564-.457.455-.326.612-1.286.612-2.723v-11.91l-3.013-2.87 3.013-2.693v-9.702c0-1.585-.321-2.531-1.101-2.852-.647-.329-2.203-.487-4.603-.487v-4.282h3.176c2.696 0 4.608.161 5.877.472.806.306 1.58.792 2.232 1.427 1.591-1.596 4.445-2.383 8.406-2.383 3.344 0 6.677.788 10.021 2.541q4.772 2.144 4.771 7.646c0 1.099-.613 2.204-1.911 2.998-1.269.956-2.697 1.281-4.45 1.281-1.586 0-2.85-.326-3.951-1.119-1.136-.956-1.758-1.898-1.758-3.16 0-1.285.776-2.714 2.365-4.302-1.254-.792-2.692-1.119-4.113-1.119-1.586 0-2.692.327-3.181.808-.647.619-.974 1.432-.974 2.697v9.537h10.836l-.979 5.244h-9.857v11.285c0 1.751.327 2.697.647 3.178.489.778 1.269 1.103 2.533 1.103 1.463 0 3.047-.614 4.312-1.732-1.131-1.28-1.59-2.549-1.59-3.811 0-1.299.459-2.403 1.59-3.181 1.107-.956 2.533-1.427 4.282-1.427 2.079 0 3.832.61 5.26 1.894.938.961 1.427 1.896 1.427 2.714m38.313-13.515-3.536-2.711c-.617-6.195-2.661-10.824-6.163-13.997-2.855-2.693-6.199-4.121-9.863-4.121-2.69 0-5.091.804-7.462 2.225-4.933 3.012-7.946 8.418-8.761 15.893l-3.339 2.711 3.176 2.854c.331 7.155 2.405 12.72 6.367 16.531 3.012 2.692 6.188 3.956 10.019 3.956 2.692 0 5.063-.611 7.295-2.042 5.749-3.5 8.731-9.7 9.086-18.444zm-15.122 11.904c0 1.61-.157 2.711-.321 3.489-.321 1.764-1.714 2.724-4.119 2.724-2.365 0-3.831-.961-4.317-2.724-.128-.778-.128-1.879-.128-3.489v-9.05l3.181-2.854-3.181-2.711v-6.519c0-1.734 0-2.856.128-3.487.485-1.919 1.951-2.874 4.317-2.874 2.405 0 3.799.956 4.119 2.874.163.63.321 1.753.321 3.487v6.519l-3.343 2.711 3.343 2.854zm55.807 11.437h-15.734l-10.835-23.665v16.044c0 1.437.489 2.398 1.293 2.856.46.324 2.049.481 4.281.481v4.283h-1.585c-4.119 0-6.845-.611-8.114-1.899-.811.798-1.591 1.288-2.395 1.447-1.102.326-3.022.453-5.685.453h-1.753v-4.283c1.077 0 1.891-.157 2.533-.157 1.102 0 2.05-.324 2.533-.457.321-.326.647-1.286.647-2.723v-12.073l-3.181-2.708 3.181-2.854v-9.542c0-1.585-.327-2.531-1.13-2.852-.623-.329-2.213-.487-4.584-.487v-4.282h16.515l10.154 23.827v-16.206c0-1.428-.287-2.383-.775-2.689-.646-.491-2.207-.65-4.934-.65v-4.282h1.753c2.697 0 4.608.161 5.709.472.815.157 1.591.629 2.405 1.427.618-.798 1.423-1.27 2.366-1.427 1.136-.311 3.022-.472 5.744-.472h1.59v4.282c-2.563 0-4.153.158-4.608.65-.652.306-.814 1.262-.814 2.689v9.542l3.18 2.854-3.18 2.708v12.073c0 1.605.33 2.56.948 2.856.805.324 2.232.324 4.474.481zM346.46 514.758l1.333-7.657c6.094-3.244 10.806-6.976 14.144-11.275h4.254l-7.591 44.139h-7.077l5.225-30.416c-1.426 1.143-3.116 2.195-5.028 3.131-1.951.974-3.7 1.654-5.26 2.078M371.736 529.846l6.584-.653c.162 1.737.489 2.952 1.042 3.637.548.68 1.3 1.038 2.237 1.038 1.392 0 2.628-.815 3.699-2.429 1.072-1.626 1.947-4.06 2.627-7.268-1.525 1.198-3.115 1.783-4.799 1.783-2.756 0-5.033-1.137-6.845-3.38-1.818-2.274-2.727-5.449-2.727-9.499 0-4.545 1.166-8.539 3.502-11.973 2.335-3.437 5.387-5.14 9.116-5.14 1.98 0 3.699.565 5.255 1.713 1.594 1.153 2.825 2.903 3.762 5.287.915 2.393 1.368 5.604 1.368 9.659 0 8.275-1.462 15.052-4.445 20.242-2.987 5.241-6.686 7.849-11.102 7.849-2.627 0-4.794-.939-6.454-2.804-1.684-1.882-2.628-4.559-2.82-8.062m18.07-20.248c0-2.334-.391-4.018-1.141-5.127-.742-1.066-1.679-1.608-2.786-1.608-1.362 0-2.562.789-3.535 2.359-1.299 2.111-1.946 4.897-1.946 8.398 0 2.274.356 3.963 1.067 5.03.751 1.103 1.625 1.648 2.696 1.648.845 0 1.694-.382 2.564-1.132.874-.707 1.59-1.96 2.173-3.683.617-1.73.908-3.711.908-5.885M399.664 529.846l6.623-.653c.128 1.737.454 2.952 1.007 3.637.554.68 1.299 1.038 2.238 1.038 1.392 0 2.622-.815 3.698-2.429 1.067-1.626 1.946-4.06 2.623-7.268-1.516 1.198-3.112 1.783-4.796 1.783-2.761 0-5.028-1.137-6.845-3.38-1.817-2.274-2.73-5.449-2.73-9.499 0-4.545 1.175-8.539 3.476-11.973 2.336-3.437 5.419-5.14 9.152-5.14 1.941 0 3.729.565 5.285 1.713 1.556 1.153 2.796 2.903 3.733 5.287.909 2.393 1.392 5.604 1.392 9.659 0 8.275-1.492 15.052-4.479 20.242-2.979 5.241-6.648 7.849-11.093 7.849-2.633 0-4.8-.939-6.454-2.804-1.69-1.882-2.632-4.559-2.83-8.062m18.046-20.248c0-2.334-.361-4.018-1.107-5.127-.75-1.066-1.683-1.608-2.785-1.608-1.368 0-2.568.789-3.536 2.359-1.333 2.111-1.985 4.897-1.985 8.398 0 2.274.395 3.963 1.101 5.03.751 1.103 1.626 1.648 2.668 1.648.868 0 1.713-.382 2.592-1.132.875-.707 1.591-1.96 2.173-3.683.617-1.73.879-3.711.879-5.885M427.603 527.407l6.845-.776-.035.912c0 2.071.391 3.598 1.141 4.622.742 1.026 1.719 1.507 2.82 1.507 1.689 0 3.211-.956 4.608-2.92 1.358-1.931 2.045-4.607 2.045-8.077 0-2.078-.389-3.615-1.17-4.638-.775-1.038-1.748-1.541-2.954-1.541-.938 0-1.851.261-2.69.762-.88.52-1.719 1.297-2.499 2.349l-5.808-.547 5.452-22.359h18.135l-1.329 7.835h-11.977l-1.649 6.785a9.5 9.5 0 0 1 2.045-.88 7.8 7.8 0 0 1 2.04-.292c2.692 0 4.933 1.103 6.751 3.329 1.788 2.204 2.692 5.253 2.692 9.131 0 3.344-.676 6.475-2.04 9.391-1.362 2.923-3.121 5.096-5.225 6.557-2.109 1.442-4.317 2.154-6.622 2.154-3.017 0-5.478-1.178-7.522-3.552-2.018-2.384-3.025-5.629-3.054-9.752" style="fill:#fff"></path><radialGradient id="a" cx="397.421" cy="573.552" r="37.791" gradientUnits="userSpaceOnUse"><stop offset="0" style="stop-color:#bf7d0f"></stop><stop offset=".974" style="stop-color:#703209"></stop></radialGradient><path d="m407.294 575.215-.064-.109a29.3 29.3 0 0 0-2.918-3.591 23.4 23.4 0 0 0-3.349-2.899c-5.931-4.43-13.434-6.119-21.246-5.71-.356.353-.747.726-1.101 1.103-.396.436-.786.873-1.171 1.326-1.719 2.081-3.152 4.413-4.184 6.91a29 29 0 0 1 3.438-.489c1.392-.097 2.79-.097 4.118.039 6.747.614 12.53 4.195 17.29 10.169 1.719-.186 4.864-.603 7.205-1.643 2.24-.985 3.672-2.558 1.982-5.106m-4.543 30.058.098-.029a29.4 29.4 0 0 0 4.055-.59 30 30 0 0 0 3.862-1.079c6.356-2.289 11.645-6.668 15.182-12.93l.029-.029c.134-.525.263-1.014.396-1.498.065-.503.158-1.004.262-1.493.35-2.042.414-4.152.321-6.262-3.181 4.8-6.81 8.466-11.033 10.999-4.573 2.756-9.862 4.217-15.996 4.331h-.035a2.7 2.7 0 0 0-.612.145 3.6 3.6 0 0 0-1.62 1.098c-.489.554-.815 1.28-.751 2.243.035.389.099.84.262 1.314l.064.077c.163.525.389.975.651 1.37.223.37.519.711.777.968 1.426 1.394 3.181 1.575 3.995 1.365h.093m17.162-3.522c-.42.315-.81.598-1.235.895-4.539 3.116-9.862 4.863-15.868 5.309v.01l-.48.068a9 9 0 0 0-.971.179c-.519.148-.91.45-.716 1.248h.029c.168.649.489 1.033.978 1.21.519.218 1.264.218 2.174.019h.034l.03-.019c1.136-.177 2.237-.469 3.343-.784a25 25 0 0 0 3.112-1.176c3.663-1.607 6.917-4.022 9.57-6.959m-19.725-7.799h.327c1.59-.07 3.146-.227 4.671-.518a31 31 0 0 0 4.411-1.205c7.205-2.543 13.107-7.847 16.776-15.052-.104-.329-.163-.648-.261-.972-.099-.358-.197-.743-.292-1.099a27 27 0 0 0-1.916-4.776l-.128.099c-.197.148-.42.322-.617.491a19.7 19.7 0 0 1-3.349 2.023 32 32 0 0 1-1.807 2.419 27 27 0 0 1-2.208 2.173c-3.956 3.438-9.086 5.633-14.238 6.683v-.034c-.913.198-1.729.455-2.436 1.101-.751.68-1.397 1.822-1.95 3.801-.262.837-.327 1.539-.262 2.144.035.757.327 1.345.682 1.764.394.404.878.702 1.397.83.391.128.809.16 1.165.128zM376.6 577.923l-.064.097a19.3 19.3 0 0 0-1.235 2.807 19 19 0 0 0-.809 2.904c-1.037 5.062-.223 10.465 1.561 15.35v.029c.321.489.711.977 1.072 1.461.42.484.84 1.002 1.293 1.471a28.2 28.2 0 0 0 6.489 5.255c-.425-.789-.775-1.59-1.136-2.381a31 31 0 0 1-1.49-4.009c-2.045-6.983-1.719-14.379 2.266-20.487.973-1.427 1.463-2.628 1.309-3.53-.138-.849-.879-1.493-2.439-1.916h-.035l-.03-.034c-1.007-.426-2.173-.632-3.309-.278-1.166.357-2.375 1.32-3.443 3.261m-5.26 9.334c.198-3.755 1.112-7.452 2.953-10.743.227-.44.367-.9.367-1.229 0-.169 0-.312-.069-.378a.3.3 0 0 0-.164-.097c-.134-.029-.322 0-.548.097h-.064c-.623.131-1.072.392-1.433.806-.356.426-.583 1.029-.746 1.783l-.034.099c-.123.685-.263 1.348-.322 2.016a22 22 0 0 0-.192 2.078 30 30 0 0 0 .252 5.568m15.81-5.795a19.8 19.8 0 0 0-2.115 3.823c-.518 1.299-.844 2.613-1.071 3.961-1.102 6.879 1.625 14.15 5.353 20.145.425.133.814.295 1.24.426.415.126.869.266 1.328.382 2.104.559 4.282.852 6.45.914a35 35 0 0 1-.45-1.491 33 33 0 0 1-.454-2.163c-2.469-3.416-3.639-6.634-3.927-9.843-.29-3.23.258-6.426 1.264-9.828l.327-1.176v-.01c.775-2.724.944-3.24-1.205-5.367h-.03a4 4 0 0 0-.681-.619c-.942-.745-1.847-1.137-2.761-1.123-.904.017-1.812.44-2.721 1.331-.167.181-.36.392-.547.638m19.137-25.369a25.4 25.4 0 0 1 4.375 2.87c2.668 2.124 5.004 4.834 7.048 7.994.771 1.2 1.457 1.858 2.009 2.139.519.227.973.169 1.428-.087.064-.036.128-.087.197-.136a1.33 1.33 0 0 0 .543-.978c.04-.421-.093-.905-.414-1.447-.07-.138-.198-.3-.327-.46l-.029-.063a23.5 23.5 0 0 0-2.115-2.405 24 24 0 0 0-2.365-2.163 28.2 28.2 0 0 0-10.35-5.264m8.791 11.803-.059-.097c-.75-1.113-1.525-2.154-2.376-3.114a27 27 0 0 0-2.691-2.69c-4.766-4.188-10.737-6.409-17.651-6.001-.554.128-1.067.276-1.591.433-.514.15-1.032.344-1.551.52a28 28 0 0 0-6.005 3.131c1.235.051 2.435.128 3.635.261 1.525.162 3.051.455 4.509.815 7.398 1.778 13.754 5.967 18.199 12.485l.035.039c.652 1.033 1.392 1.844 2.271 2.071.875.232 1.911-.087 3.246-1.237l.029-.014.133-.094c.776-.622 1.166-1.64 1.166-2.775 0-1.169-.425-2.461-1.166-3.554l-.133-.16z" style="fill-rule:evenodd;clip-rule:evenodd;fill:url(#a)" data-source="https://football-logos.cc"></path><!-- source: https://football-logos.cc --></svg>