<svg xmlns="http://www.w3.org/2000/svg" viewBox="0 0 612.33 802.66"><!-- Source: https://football-logos.cc --><path d="M107.546 225.63c3.622-1.19 7.127-2.615 10.641-3.867 19.343-6.892 37.626-12.659 54.143-17.111 55.935-15.08 101.915-18.72 133.834-18.555 31.92-.165 77.9 3.475 133.834 18.555 16.517 4.452 34.8 10.219 54.143 17.111 3.514 1.252 7.019 2.678 10.642 3.866l1.032.392c53.664 21.145-461.982 11.895-399.507 0zm-8.822 1.332c207.438 36.859 207.438 36.859 414.882.434 3.345-.378 5.6-2.625 6.652-6.048.677-2.204.902-4.074.72-5.764-.716-6.67-6.053-8.382-6.053-8.382.577-.703 1.176-1.762 1.6-3.35.38-1.424.428-2.592.328-3.512 0 0 6.195 3.512 11.919-1.128 1.264-1.023 2.464-2.491 3.303-4.993 2.954-8.813-2.298-13.305-11.4-16.679a456 456 0 0 0-5.103-1.826l19.046-29.445s1.888.087 2.79-1.814c1.184-2.492-.164-5.097-.164-5.097l1.724-.086 15.181-23.155s7.22 4.061 10.503-2.592c3.351-6.791-2.215-9.935-2.215-9.935l9.19-6.739 14.033 1.9 26.669-18.66-13.01-6.22-6.775 4.255-8.029-3.837 2.2-6.443-11.068-5.292-4.078 5.546-6.882-3.29 1.463-6.796-11.441-5.47-2.862 6.128L547 56.354l.459-7.276-11.035-5.275-7.057 28.51 11.98 9.331-6.768 8.776c-.349-.13-1.127-.386-2.84-.856-3.327-.91-6.87.894-8.271 4.3-1.114 2.707-.526 5.682 1.126 7.853 1.162 1.526 1.654 2.045 1.654 2.045s-2.274 2.456-5.748 6.27l-.429-.154c-2.03-.833-6.248-2.536-13.434-5.32l-5.48 7.528-.298.41-2.816-1.084-.3-.083 3.213-8.959c-2.331-.892-4.891-1.867-7.695-2.928a3750 3750 0 0 0-7.524-2.838l-3.065 8.451-.17.46-2.711-1.02.054-.366 1.561-9.15c-7.808-2.92-11.811-4.373-13.546-4.995l-.507-.175c.041-5.773-.04-7.923-.04-7.923 3.192-.185 5.98-2.594 6.631-6.021.693-3.64-1.241-7.248-4.469-8.495-2.744-1.06-3.08-1.069-3.08-1.069l3.478-9.28 12.958-1.487 13.883-25.49-11.128-3.534-5.577 6.225s-3.58-1.052-8.69-2.494l1.015-8.638-11.707-3.128-2.788 8.074a451 451 0 0 0-7.424-1.898l.774-8.694-11.587-2.44-2.464 8.336a447 447 0 0 0-7.546-1.256l.378-8.582-11.95-1.857-2.22 8.384c-5.242-.74-8.933-1.218-8.933-1.218l-2.87-8.006-11.564-1.247 3.497 29.151 11.537 5.933-.303 10.666s-.312-.13-3.234-.262c-3.434-.157-6.538 2.39-7.23 6.03-.652 3.426 1.04 6.78 3.92 8.244l-2.893 7.533-.07.236a813 813 0 0 0-14.275-1.898l-3.774 9.505q-1.656-.202-3.439-.415l1.057-9.84q-3.274-.39-6.972-.813c-3.477-.396-6.617-.738-9.438-1.033l-.985 9.849q-1.489-.156-2.861-.296l-1.08-10.056c-7.348-.725-11.892-1.066-14.133-1.214l-.187-.036-1.398-8.04c3.096-.841 5.382-3.78 5.382-7.274 0-3.712-2.57-6.85-5.967-7.406-2.889-.473-3.22-.412-3.22-.412l1.801-11.88 12.31-2.074 8.861-27.863-11.57-1.166-4.308 7.257s-3.708-.292-8.986-.65l-.615-8.68-12.063-.649-1.228 8.493a448 448 0 0 0-7.635-.327L312.072 0h-11.816l-.861 8.684c-2.44.081-5.032.195-7.635.327L290.531.518l-12.062.648-.615 8.68c-5.278.358-8.986.651-8.986.651L264.56 3.24l-11.57 1.166 8.862 27.863 12.309 2.074 1.8 11.88s-.33-.061-3.22.412c-3.396.556-5.966 3.694-5.966 7.406 0 3.494 2.286 6.433 5.381 7.274l-1.354 7.796-.048.268c-2.173.141-6.763.48-14.315 1.226l-1.08 10.056q-1.372.14-2.86.296l-.986-9.85c-2.822.296-5.961.638-9.438 1.034q-3.698.421-6.972.812l1.057 9.841q-1.783.213-3.439.415l-3.774-9.505a813 813 0 0 0-14.275 1.898l-.07-.236-2.892-7.533c2.878-1.465 4.57-4.818 3.92-8.245-.693-3.639-3.797-6.186-7.231-6.03-2.922.134-3.234.263-3.234.263l-.303-10.666 11.537-5.933 3.497-29.151-11.563 1.247-2.871 8.006s-3.69.479-8.933 1.218l-2.22-8.384-11.95 1.857.378 8.582c-2.575.408-5.138.831-7.546 1.256l-2.464-8.337-11.587 2.441.774 8.694a452 452 0 0 0-7.425 1.898l-2.787-8.074-11.707 3.128 1.015 8.638c-5.11 1.442-8.69 2.494-8.69 2.494l-5.577-6.225-11.128 3.534 13.883 25.49 12.958 1.487 3.479 9.28s-.337.009-3.081 1.07c-3.228 1.246-5.162 4.854-4.47 8.494.652 3.427 3.44 5.836 6.632 6.021 0 0-.08 2.15-.04 7.923l-.507.175c-1.735.622-5.739 2.075-13.546 4.995l1.56 9.15.056.366-2.712 1.02-.17-.46-3.065-8.45c-2.254.846-4.754 1.789-7.524 2.837-2.804 1.06-5.364 2.036-7.695 2.928l3.212 8.959-.3.083-2.815 1.083-.299-.409-5.479-7.528c-7.185 2.784-11.404 4.487-13.434 5.32l-.43.154c-3.473-3.814-5.747-6.27-5.747-6.27s.492-.519 1.654-2.045c1.652-2.171 2.24-5.146 1.126-7.853-1.4-3.406-4.944-5.21-8.27-4.3-1.714.47-2.493.726-2.84.856l-6.77-8.776 11.981-9.33-7.057-28.511-11.034 5.275.458 7.276-4.848 2.317-2.86-6.127-11.442 5.47 1.464 6.794-6.883 3.29-4.078-5.545-11.068 5.292 2.2 6.443-8.028 3.838-6.776-4.256L0 80.09l26.67 18.66 14.032-1.9 9.19 6.739s-5.567 3.144-2.215 9.935c3.282 6.653 10.503 2.592 10.503 2.592l15.181 23.155 1.724.086s-1.348 2.605-.165 5.097c.903 1.9 2.79 1.815 2.79 1.815l19.047 29.444s-3.492 1.228-5.103 1.826c-9.102 3.374-14.354 7.866-11.4 16.679.84 2.502 2.04 3.97 3.303 4.993 5.723 4.64 11.919 1.128 11.919 1.128-.1.92-.052 2.089.328 3.513.424 1.587 1.023 2.646 1.6 3.35 0 0-5.337 1.712-6.053 8.382-.182 1.689.043 3.56.72 5.763 1.015 3.304 3.151 5.109 6.307 5.57z" style="fill:#000;fill-opacity:1;fill-rule:nonzero;stroke:none;stroke-width:1.18175077" data-source="https://football-logos.cc"></path><path d="M306.164 165.88c-31.92-.165-77.9 3.476-133.834 18.555-19.039 5.133-40.424 12.017-63.077 20.347-4.645 1.708-7.374.151-8.156-2.227-1.107-3.37-.246-6.48 4.445-8.124 24.816-8.7 48.439-16.012 68.67-21.294 55.935-14.601 100.033-18.044 131.952-17.883 31.92-.16 76.017 3.282 131.952 17.883 20.231 5.282 43.854 12.595 68.67 21.295 4.691 1.644 5.552 4.754 4.445 8.123-.782 2.378-3.51 3.935-8.156 2.227-22.653-8.33-44.037-15.214-63.077-20.347-55.935-15.08-101.914-18.72-133.834-18.555" style="fill:#c38d4d;fill-opacity:1;fill-rule:nonzero;stroke:none;stroke-width:1.18175077"></path><path d="M306.185 150.588c-41.671-.209-86.503 5.557-133.04 18.021-31.96 8.561-50.703 15.693-66.386 21.505-15.386 5.702-18.217 8.035-20.925 4.018-2.252-3.342-1.6-6.869 1.478-9.072 3.077-2.203 15.818-6.636 34.138-12.74 22.561-7.262 41.81-12.53 55.036-15.902 46.947-11.968 89.357-17.69 129.657-17.494h.042c40.3-.196 82.711 5.526 129.657 17.494 13.225 3.372 32.476 8.64 55.036 15.902 18.32 6.104 31.061 10.537 34.138 12.74 3.078 2.203 3.73 5.73 1.478 9.072-2.708 4.017-5.539 1.684-20.925-4.018-15.683-5.812-34.425-12.944-66.387-21.505-46.536-12.464-91.368-18.23-133.04-18.02z" style="fill:#c38d4d;fill-opacity:1;fill-rule:nonzero;stroke:none;stroke-width:1.18175077"></path><path d="M306.138 180.395c29.414-.153 76.748 2.974 135.204 18.733 15.493 4.176 32.286 9.428 49.983 15.625 14.244 4.909 23.106 9.574 24.583 2.965 1.054-4.714-5.03-5.984-14.032-9.33-22.414-8.25-43.777-14.257-62.977-19.434-57.443-15.485-103.876-18.558-132.713-18.409h-.043c-28.838-.149-75.27 2.924-132.714 18.41-19.2 5.176-40.563 11.183-62.977 19.432-9.002 3.347-15.085 4.617-14.032 9.33 1.477 6.61 10.34 1.945 24.584-2.964 17.696-6.198 34.49-11.449 49.982-15.625 58.457-15.759 105.79-18.886 135.205-18.733zM263.713 29.957l-7.405-23.281 6.972-.703 4.284 7.217 12.575-.911s.448-6.162.623-8.64l7.67-.412c.356 2.45 1.226 8.468 1.226 8.468l11.941-.512s.628-6.098.875-8.59h7.38c.248 2.492.875 8.59.875 8.59l11.94.512 1.226-8.468 7.671.412c.175 2.478.623 8.64.623 8.64l12.575.911s3.22-5.422 4.284-7.217l6.973.703-7.406 23.281zM334.122 44.583l1.61-10.626h-59.137l1.611 10.626zM273.976 59c-2.613 0-4.739-2.298-4.739-5.122v.166c0-2.825 2.126-5.122 4.74-5.122h64.375c2.613 0 4.739 2.297 4.739 5.122v-.166c0 2.824-2.126 5.122-4.739 5.122zM130.892 52.883l-11.6-21.3 6.705-2.129 5.546 6.191 12.16-3.491s-.709-6.134-.999-8.6c2.196-.588 5.207-1.392 7.446-1.99l2.779 8.05 11.613-2.968s-.521-6.11-.744-8.605l7.238-1.525c.707 2.393 2.46 8.244 2.46 8.244l11.803-1.966s-.269-6.081-.377-8.558l7.598-1.18c.635 2.395 2.222 8.343 2.222 8.343l12.5-1.704 2.856-7.962 6.968-.752-2.922 24.36zM202.658 52.677l-.4-10.753-57.988 12.219 3.56 10.087zM146.37 79.24c-2.563.54-5.076-1.274-5.602-4.043l.031.162c-.527-2.77 1.13-5.461 3.692-6.001l63.123-13.302c2.563-.54 5.076 1.275 5.602 4.044l-.03-.163c.526 2.77-1.13 5.462-3.693 6.002zM80.16 71.272l-5.9-23.836-6.82 3.26c.127 2.036.458 7.276.458 7.276l-8.573 4.098-2.86-6.127-7.441 3.557 1.463 6.795-10.482 5.01-4.078-5.544-7.23 3.456c.652 1.905 2.201 6.442 2.201 6.442L19.63 81.046l-6.775-4.256-7.796 3.727 22.208 15.54zM57.277 113.697l26.85-12.27c2.396-1.093 3.48-4.091 2.414-6.683l.063.153c-1.066-2.592-3.885-3.81-6.282-2.717l-28.214 12.878c-1.97 1.222-3.427 3.68-2.79 5.961.82 2.937 3.38 4.673 7.96 2.678M235.448 139.621q-6.749 1.012-13.85 2.264l-.142-.409c-1.695-4.575-5.635-13.383-13.326-22.288-12.755-14.767-25.109-19.82-25.109-19.82s-9.555 9.67-15.928 28.467c-4.123 12.16-4.303 22.469-4.122 26.965l.01.363a934 934 0 0 0-13.138 3.665l-.016-.495-2.366-75.047 62.408-13.217 25.448 69.192zm-76.76-51.382c-1.59.336-2.66 1.63-3.042 2.977-.822 2.904.268 8.18.268 8.18l9.413-1.982s-.923-5.312-2.744-7.66c-.843-1.088-2.304-1.85-3.895-1.515m42.727-9.003c-1.59.336-2.661 1.63-3.042 2.976-.822 2.905.267 8.182.267 8.182l9.414-1.984s-.924-5.311-2.745-7.66c-.842-1.087-2.303-1.848-3.894-1.514m17.618 62.851c-1.691-4.453-5.5-12.791-12.724-21.155-9.662-11.187-19.137-16.64-22.693-18.44-2.624 3.102-9.375 11.974-14.204 26.215-3.793 11.189-4.117 20.824-3.996 25.38l.018.415q2.85-.763 5.615-1.485l.008-.387c-.007-4.426.517-12.57 3.687-21.919 3.24-9.554 7.387-16.47 10.316-20.621 4.22 2.644 10.576 7.348 17.06 14.853 6.049 7.004 9.476 13.97 11.178 18.145l.147.295a574 574 0 0 1 5.685-1.057zM134.612 163.332a959 959 0 0 0-12.306 3.838l-.209.088c-2.47-3.404-7.298-9.331-14.6-15.2-16.657-13.392-32.987-15.38-32.987-15.38l-13.047-20.13 22.976-10.8 50.442 57.482zM84.03 119.14c-1.559-1.21-4.02-3.024-6.893-1.728-2.872 1.296-2.297 3.456-1.149 5.01 1.149 1.556 3.61 4.58 3.61 4.58l8.535-3.888s-2.544-2.765-4.103-3.974m36.023 48.747c-1.675-1.966-4.13-4.664-7.712-8.313-10.094-10.282-21.254-15.811-28.147-18.403-6.286-2.363-6.975-1.469-7.795.605-.644 1.626 1.313 2.246 6.072 3.715s16.084 6.998 24.372 15.032c4.702 4.56 7.212 7.339 8.503 8.89zM67.617 81.558 41.33 94.152l9.712 7.104 23.305-10.972ZM146.957 144.821c.355 6.144.68 11.234.878 14.258l.035.318a964 964 0 0 0-11.114 3.284l-.18-.195a1383 1383 0 0 0-8.502-10.495l-.2-.286c3.151-1.215 6.795-2.608 10.982-4.191a3384 3384 0 0 1 8.064-3.042zM93.498 111.868c4.19 4.617 9.628 10.668 14.886 16.695l.43-.16c4.252-1.664 9.88-3.834 17.147-6.585 9-3.405 15.153-5.7 19.247-7.211l.305-.144a1078.894 1078.894 0 0 1-.51-21.804l.003-.402c-1.672.6-5.185 1.877-11.569 4.259.29 1.697.988 5.793 1.53 8.981l.089.531c-1.943.728-4.108 1.541-6.517 2.45l-.125-.313-3.116-8.595-5.48 2.067-5.578 2.123c.736 2.049 2.192 6.11 3.042 8.482l.158.444a1519 1519 0 0 0-6.75 2.598l-.177-.269c-2.066-2.837-4.676-6.425-5.585-7.674a775 775 0 0 0-11.12 4.406zM266.63 93.135c-4.8.392-12.602 1.115-24.062 2.42-7.887.897-14.327 1.699-19.308 2.353l-.113-.296-7.477-19.467-.107-.315a800 800 0 0 1 11.985-1.6l3.771 9.496 7.288-.88-.245-2.314-.808-7.517 4.76-.555 7.227-.791.983 9.835 6.832-.704.205-1.877.877-8.17c5.9-.568 9.775-.864 11.906-1.009l-.035.199-3.646 20.97-.034.222zM141.399 143.644l-4.541-9.63-.144-.318c3.627-1.371 6.754-2.547 9.444-3.553l.035.423c.19 3.892.393 7.683.59 11.21l.023.263c-1.607.603-3.348 1.258-5.232 1.968zM139.045 144.48l-4.577-9.705-.088-.197a1708 1708 0 0 0-15.73 6.034l.258.292c2.542 3.04 4.99 6 7.226 8.72l.17.201a4140 4140 0 0 1 12.95-4.94zM140.734 129.715l-2.885-9.315-.171-.517c3.225-1.207 5.838-2.179 7.935-2.953l-.001.288c.126 3.393.275 6.853.434 10.27l-.003.222c-1.546.578-3.244 1.215-5.106 1.915zM110.018 130.44a630 630 0 0 1 3.798 4.424 888 888 0 0 1 3.03 3.581l.253.285c3.034-1.186 6.747-2.623 11.234-4.335l-.24-.433-5.18-7.963-.308-.427c-4.93 1.876-8.985 3.442-12.27 4.725zM125.218 124.955l5.358 8.236.193.277a2795 2795 0 0 1 7.261-2.748l.38-.149-2.945-9.508-.098-.313c-2.541.954-9.785 3.69-10.334 3.9zM246.165 111.499c-6.798.789-12.43 1.497-16.871 2.082l.053.175 4.099 10.67.339-.042c3.938-.501 8.578-1.068 13.92-1.683zM252.012 124.559l-2.394.27c-5.914.673-11.024 1.294-15.314 1.84l.138.353 4.635 12.066.364-.052a512 512 0 0 1 14.287-1.832zM251.867 108.505q-1.523.17-3.145.354-3.925.447-7.372.86l-3.663-11.253q2.45-.289 5.12-.593c3.402-.387 6.483-.723 9.26-1.014zM261.525 121.197c-3.286.334-7.065.737-11.374 1.225l-1.539-11.204.349-.04a956 956 0 0 1 14.59-1.556l.21-.01-2.014 11.58zM258.832 136.65q-1.32.136-2.658.281l-1.716-12.643c2.422-.265 4.65-.5 6.695-.71l.178.009-2.27 13.048zM264.223 106.949l1.949-11.208.046-.23c-2.87.238-6.73.587-11.688 1.093l-.194 11.63c3.752-.408 7.025-.743 9.853-1.019zM235.18 98.764c-4.244.509-7.941.976-11.085 1.387l.121.246 4.2 10.932.357-.031a990 990 0 0 1 10.06-1.275zM481.436 52.883c1.173-2.154 9.312-17.096 11.6-21.3l-6.704-2.129-5.546 6.191-12.161-3.491s.709-6.134.999-8.6l-7.445-1.99-2.78 8.05-11.613-2.968s.521-6.11.744-8.605l-7.238-1.525c-.707 2.393-2.458 8.244-2.458 8.244l-11.804-1.966.376-8.558-7.598-1.18c-.635 2.395-2.221 8.343-2.221 8.343l-12.502-1.704-2.855-7.962-6.967-.752 2.922 24.36zM409.67 52.677l.401-10.753 57.987 12.219-3.56 10.087zM465.958 79.24c2.563.54 5.076-1.274 5.602-4.043l-.031.162c.526-2.77-1.13-5.461-3.693-6.001l-63.123-13.302c-2.562-.54-5.075 1.275-5.601 4.044l.03-.163c-.526 2.77 1.13 5.462 3.693 6.002zM532.168 71.272l5.9-23.836 6.82 3.26-.457 7.276 8.572 4.098 2.86-6.127 7.442 3.557-1.464 6.795 10.482 5.01 4.078-5.544 7.229 3.456-2.2 6.442 11.268 5.387 6.775-4.256 7.795 3.727-22.207 15.54zM555.05 113.697l-26.849-12.27c-2.396-1.093-3.48-4.091-2.414-6.683l-.063.153c1.067-2.592 3.885-3.81 6.282-2.717l28.215 12.878c1.968 1.222 3.427 3.68 2.79 5.961-.822 2.937-3.381 4.673-7.96 2.678M377.01 139.261 402.46 70.07l62.408 13.217-2.367 75.047-.015.495a932 932 0 0 0-13.138-3.665l.01-.363c.181-4.496.001-14.805-4.122-26.965-6.373-18.798-15.928-28.466-15.928-28.466s-12.354 5.052-25.109 19.82c-7.69 8.904-11.63 17.712-13.326 22.287l-.142.409a550 550 0 0 0-13.85-2.264zm76.631-51.022c-1.592-.335-3.053.427-3.895 1.514-1.82 2.349-2.745 7.66-2.745 7.66l9.414 1.984s1.09-5.277.267-8.181c-.38-1.346-1.45-2.641-3.041-2.977m-42.727-9.003c-1.59-.334-3.052.427-3.895 1.515-1.82 2.348-2.744 7.66-2.744 7.66l9.414 1.983s1.09-5.277.267-8.182c-.38-1.345-1.451-2.64-3.042-2.976m-17.716 63.09q2.815.508 5.685 1.057l.147-.295c1.703-4.176 5.13-11.141 11.179-18.145 6.483-7.505 12.84-12.21 17.06-14.853 2.928 4.15 7.076 11.067 10.315 20.621 3.17 9.35 3.695 17.494 3.687 21.919l.01.388a857 857 0 0 1 5.614 1.484l.019-.415c.12-4.556-.203-14.191-3.997-25.38-4.828-14.24-11.58-23.113-14.204-26.215-3.555 1.8-13.03 7.253-22.693 18.44-7.223 8.364-11.032 16.702-12.723 21.155l-.098.239zM477.447 163.23l50.442-57.481 22.976 10.8-13.047 20.129s-16.33 1.988-32.988 15.38c-7.301 5.869-12.13 11.796-14.599 15.2l-.209-.088a960 960 0 0 0-12.306-3.838zm46.749-40.116 8.535 3.888s2.461-3.024 3.61-4.58c1.148-1.554 1.723-3.714-1.149-5.01s-5.334.519-6.893 1.728-4.103 3.974-4.103 3.974m-27.213 46.299c1.29-1.552 3.8-4.33 8.503-8.89 8.288-8.034 19.613-13.564 24.372-15.032 4.76-1.47 6.716-2.089 6.073-3.715-.82-2.074-1.51-2.968-7.796-.605-6.893 2.592-18.053 8.121-28.146 18.402-3.583 3.65-6.037 6.348-7.713 8.314zM544.71 81.558 571 94.152l-9.712 7.104-23.305-10.972zM465.371 144.821c-.354 6.144-.679 11.234-.877 14.258l-.036.318a968 968 0 0 1 11.115 3.284l.18-.195c1.336-1.667 4.455-5.548 8.501-10.495l.2-.286a1868 1868 0 0 0-10.981-4.191c-2.993-1.133-5.671-2.143-8.064-3.042zM518.83 111.868a1178 1178 0 0 0-14.886 16.695l-.429-.16a1668 1668 0 0 0-17.148-6.585c-9-3.405-15.153-5.7-19.247-7.211l-.304-.144q.055-1.654.102-3.272c.237-8.04.354-14.085.407-18.531v-.403c1.673.6 5.186 1.877 11.569 4.259-.29 1.697-.988 5.793-1.53 8.981l-.089.531c1.943.728 4.108 1.541 6.518 2.45l.124-.313c.866-2.391 2.38-6.567 3.117-8.595l5.478 2.067 5.58 2.123-3.043 8.482-.158.444c2.493.953 4.738 1.817 6.75 2.598l.177-.269c2.066-2.837 4.676-6.425 5.585-7.674a770 770 0 0 1 11.12 4.406l.309.121zM345.666 92.92l-3.683-21.189.206.028c2.17.149 5.986.444 11.701.995l.877 8.17.205 1.876 6.832.704.984-9.835 7.226.791 4.76.555-.807 7.517-.246 2.314 7.288.88 3.771-9.496c5.137.65 9.142 1.196 11.985 1.6l-.107.315-7.477 19.467-.113.296a1128 1128 0 0 0-19.308-2.354c-11.461-1.305-19.265-2.027-24.064-2.419zM470.93 143.644l4.54-9.63.144-.318c-3.626-1.371-6.754-2.547-9.444-3.553l-.035.423c-.19 3.892-.392 7.683-.59 11.21l-.022.263c1.607.603 3.347 1.258 5.231 1.968l.175-.363zM473.283 144.48l4.577-9.705.089-.197c6.5 2.46 11.682 4.456 15.73 6.034l-.259.292c-2.542 3.04-4.99 6-7.226 8.72l-.17.201a4143 4143 0 0 0-12.95-4.94zM471.594 129.715l2.885-9.315.171-.517c-3.225-1.207-5.838-2.179-7.935-2.953l.001.288c-.125 3.393-.275 6.853-.434 10.27v.222c1.547.578 3.244 1.215 5.106 1.915l.203.09zM502.311 130.44a617 617 0 0 0-3.8 4.424 887 887 0 0 0-3.028 3.581l-.254.285a1496 1496 0 0 0-11.234-4.335l.24-.433 5.18-7.963.309-.427c4.928 1.876 8.984 3.442 12.27 4.725zM487.11 124.955l-5.358 8.236-.193.277a2467 2467 0 0 0-7.261-2.748l-.379-.149 2.944-9.508.098-.313c2.541.954 9.785 3.69 10.335 3.9zM350.995 123.57l2.193 12.615.079.441q1.434.148 2.887.305l1.715-12.643c-2.414-.264-4.636-.499-6.675-.707zM350.503 120.741l-1.938-11.147.21.027a963 963 0 0 1 14.94 1.597l-1.538 11.204c-4.41-.499-8.262-.91-11.6-1.248zM366.163 111.499c6.799.789 12.43 1.497 16.871 2.082l-.053.175-4.099 10.67-.339-.042c-3.937-.501-8.578-1.068-13.92-1.683zM360.316 124.559l2.395.27c5.914.673 11.023 1.294 15.313 1.84l-.138.353-4.635 12.066-.364-.052a512 512 0 0 0-14.287-1.832zM350.027 136.305c-4.848-.465-9.53-.838-14.053-1.133l-.069-.2c-.886-4.983-3.156-14.108-8.816-24.04-9.754-17.115-20.925-24.622-20.925-24.622s-11.171 7.507-20.925 24.622c-5.65 9.914-7.922 19.025-8.81 24.014l-.052.225c-4.529.294-9.219.669-14.075 1.134l.061-.326 12.014-72.852h63.574l12.026 72.926zm-65.65-65.936c-1.622 0-2.913 1.05-3.537 2.29-1.348 2.679-1.263 8.078-1.263 8.078h9.6s.085-5.4-1.262-8.078c-.625-1.24-1.915-2.29-3.538-2.29m43.574 0c-1.622 0-2.913 1.05-3.537 2.29-1.348 2.679-1.264 8.078-1.264 8.078h9.601s.085-5.4-1.263-8.078c-.624-1.24-1.915-2.29-3.537-2.29m5.406 64.431c-.93-4.89-3.166-13.388-8.38-22.534-7.388-12.966-15.662-20.27-18.813-22.77-3.15 2.5-11.425 9.804-18.814 22.77-5.202 9.129-7.44 17.61-8.374 22.506l-.035.24q2.959-.176 5.825-.307l.052-.194c.983-4.524 3.068-11.6 7.386-19.178 4.958-8.699 10.315-14.624 13.96-18.089 3.645 3.465 9.002 9.39 13.96 18.089 4.336 7.61 6.42 14.71 7.397 19.232l.04.139q2.867.132 5.827.307zM360.46 108.505q1.525.17 3.146.354 3.924.447 7.372.86l3.663-11.253q-2.45-.289-5.12-.593c-3.401-.387-6.483-.723-9.26-1.014zM348.138 107.215c2.828.275 6.102.61 9.854 1.019l-.193-11.63a622 622 0 0 0-11.671-1.092l.048.343 1.942 11.171zM377.149 98.764c4.243.509 7.94.976 11.084 1.387l-.121.246-4.2 10.932-.357-.031c-2.85-.377-6.205-.805-10.06-1.275z" style="fill:#c38d4d;fill-opacity:1;fill-rule:nonzero;stroke:none;stroke-width:1.18175077"></path><path d="M99.354 229.691c-3.976 170.251 11.689 362.682 206.807 570.471 195.118-207.789 210.783-400.22 206.806-570.47H306.161Z" style="fill:#ed6c05;fill-opacity:1;stroke:#000;stroke-width:5;stroke-linecap:butt;stroke-linejoin:miter;stroke-miterlimit:4;stroke-dasharray:none;stroke-opacity:1"></path><path d="M123.934 254.209c-3.507 152.058 24.681 335.76 182.403 509.51 157.72-173.75 185.909-357.452 182.402-509.51H306.337Z" style="fill:#fff;fill-opacity:1;stroke:#000;stroke-width:4.43773508;stroke-linecap:butt;stroke-linejoin:miter;stroke-miterlimit:4;stroke-dasharray:none;stroke-opacity:1"></path><path d="M300 315.756c-46.81 41.546-121.494 33.314-162.209 2.69 9.282 222.535 116.976 359.46 161.613 410.706l.596.686.596-.686c44.637-51.245 152.331-188.171 161.613-410.707-40.715 30.625-115.4 38.857-162.209-2.69Z" style="fill:#ed6c05;fill-opacity:1;stroke:#000;stroke-width:5;stroke-linecap:butt;stroke-linejoin:miter;stroke-miterlimit:4;stroke-dasharray:none;stroke-opacity:1" transform="translate(6.16 4.3)"></path><path d="M306.16 702.12V342.87l-23.38 14.11-32.875 8.966-28.692 2.391-34.071-3.586-20.514-8.219 3.179 29.14 9.564 53.199 8.368 33.474 10.162 35.864 17.335 41.842 20.323 42.44 25.105 46.624 25.703 38.256z" style="fill:#ed6c05;fill-opacity:1;stroke:none;stroke-width:1px;stroke-linecap:butt;stroke-linejoin:miter;stroke-opacity:1"></path><path d="M306.16 702.12V342.87l23.38 14.11 32.877 8.966 28.692 2.391 34.071-3.586 20.514-8.219-3.18 29.14-9.563 53.199-8.369 33.474-10.161 35.864-17.335 41.842-20.323 42.44-25.106 46.624-25.703 38.256z" style="fill:#233588;fill-opacity:1;stroke:none;stroke-width:1px;stroke-linecap:butt;stroke-linejoin:miter;stroke-opacity:1"></path><path d="M306.16 342.871c-48.718 36.025-115.921 26.602-139.532 13.662C181.855 534.766 270.787 659.54 306.16 702.12c35.374-42.579 124.306-167.353 139.533-345.586-23.611 12.94-90.814 22.363-139.533-13.662z" style="fill:none;fill-opacity:1;stroke:#000;stroke-width:5;stroke-linecap:butt;stroke-linejoin:miter;stroke-miterlimit:4;stroke-dasharray:none;stroke-opacity:1"></path><path d="M30.666 412.248h8.75q-.39 5.684-4.004 8.828-3.613 3.125-9.785 3.125-6.914 0-10.879-4.043-3.965-4.062-3.965-11.113 0-7.031 3.926-11.094t10.703-4.062q6.25 0 9.824 3.027 3.594 3.008 4.024 8.613h-8.848q-.195-2.207-1.426-3.32-1.23-1.133-3.457-1.133-2.715 0-4.082 1.992-1.347 1.973-1.347 5.977 0 3.926 1.445 5.937t4.238 2.012q2.149 0 3.399-1.23 1.27-1.23 1.484-3.516" aria-label="C" style="font-style:normal;font-variant:normal;font-weight:400;font-stretch:normal;font-size:40px;line-height:1.25;font-family:&quot;Swis721 Blk BT&quot;;-inkscape-font-specification:&quot;Swis721 Blk BT, Normal&quot;;font-variant-ligatures:normal;font-variant-caps:normal;font-variant-numeric:normal;font-feature-settings:normal;text-align:start;letter-spacing:0;word-spacing:0;writing-mode:lr-tb;text-anchor:start;fill:#233588;fill-opacity:1;stroke:none" transform="matrix(2.02361 0 0 1.69719 142.606 -403.778)" data-source="https://football-logos.cc"></path><path d="M21.252 416.115h2.48q3.457 0 4.786-1.543 1.347-1.543 1.347-5.527 0-3.887-1.367-5.508t-4.648-1.621h-2.598zm-9.238 7.285v-28.77h11.172q4.257 0 6.328.391 2.09.372 3.632 1.25 2.989 1.758 4.493 4.942 1.504 3.183 1.504 7.832 0 4.883-1.875 8.223-1.856 3.32-5.489 4.941-1.406.645-3.535.918-2.11.273-6.777.273z" aria-label="D" style="font-style:normal;font-variant:normal;font-weight:400;font-stretch:normal;font-size:40px;line-height:1.25;font-family:&quot;Swis721 Blk BT&quot;;-inkscape-font-specification:&quot;Swis721 Blk BT, Normal&quot;;font-variant-ligatures:normal;font-variant-caps:normal;font-variant-numeric:normal;font-feature-settings:normal;text-align:start;letter-spacing:0;word-spacing:0;writing-mode:lr-tb;text-anchor:start;fill:#233588;fill-opacity:1;stroke:none" transform="matrix(2.02361 0 0 1.69719 254.011 -404.2)"></path><path d="M12.014 423.4v-28.77H35.02v6.895H21.252v3.829h11.64v6.601h-11.64v4.453h14.336v6.992z" aria-label="E" style="font-style:normal;font-variant:normal;font-weight:400;font-stretch:normal;font-size:40px;line-height:1.25;font-family:&quot;Swis721 Blk BT&quot;;-inkscape-font-specification:&quot;Swis721 Blk BT, Normal&quot;;font-variant-ligatures:normal;font-variant-caps:normal;font-variant-numeric:normal;font-feature-settings:normal;text-align:start;letter-spacing:0;word-spacing:0;writing-mode:lr-tb;text-anchor:start;fill:#233588;fill-opacity:1;stroke:none" transform="matrix(2.02361 0 0 1.69719 374.05 -404.2)"></path><circle cx="306.161" cy="487.301" r="85.46" style="opacity:1;fill:#000;fill-opacity:1;fill-rule:evenodd;stroke:#000;stroke-width:5.08042383;stroke-linecap:butt;stroke-linejoin:bevel;stroke-miterlimit:4;stroke-dasharray:none;stroke-opacity:1;paint-order:normal"></circle><path d="M306.16 342.871V702.12" style="fill:none;stroke:#000;stroke-width:5;stroke-linecap:butt;stroke-linejoin:miter;stroke-miterlimit:4;stroke-dasharray:none;stroke-opacity:1"></path><path d="M340.476 533.763c16.211-3.708 31.025-11.676 44.806-20.697-5.052 14.022-13.497 26.951-25.05 36.583-19.584 16.778-47.38 23.714-72.613 17.79-1.944-13.17-3.382-26.69-.466-39.85 16.04 9.08 35.572 10.334 53.323 6.174M242.338 434.19c10.632-12.639 25.325-21.67 41.252-26.18 18.014 7.017 35.653 16.899 47.4 32.534 8.687 10.905 13.01 24.446 15.42 37.946-12.413 5.483-26.033 7.898-39.58 7.989-5.236-14.393-12.962-28.555-25.62-37.816-11.077-8.74-25.121-12.408-38.872-14.473" style="opacity:1;fill:#c38d4d;fill-opacity:1;stroke:none;stroke-width:1.00741184;stroke-opacity:1"></path><path d="M224.147 498.593c-3.24-21.199 2.42-43.58 15.411-60.758 14.055 2.495 28.778 5.452 40.078 14.743-16.586 11.496-29.395 28.344-35.602 47.458-3.585 11.045-5.448 22.671-5.276 34.278-8.03-10.274-12.616-22.953-14.611-35.721" style="opacity:1;fill:#c38d4d;fill-opacity:1;stroke:none;stroke-width:1.00741184;stroke-opacity:1"></path><path d="M253.68 490.528c6.714-13.571 17.397-24.867 29.66-33.717 9.315 8.51 14.915 20.076 19.228 31.672-9.518 11.316-17.264 24.455-20.211 39.029-2.947 12.939-1.762 26.32.132 39.309-14.905-4.781-28.727-13.21-38.974-25.017-.243-17.51 2.045-35.5 10.166-51.276" style="opacity:1;fill:#c38d4d;fill-opacity:1;stroke:none;stroke-width:1.00741184;stroke-opacity:1"></path><path d="M355.696 479.37c10.52-5.612 19.533-13.49 28.13-21.608 5.467 14.994 7.057 31.541 3.382 47.137-5.387 4.73-11.838 8.218-18.004 11.886-15.29 8.51-32.504 14.734-50.264 14.213-10.633-.09-21.173-3.027-30.337-8.33 2.663-11.696 9.913-22.13 17.558-31.36 17.153-.04 34.468-3.639 49.535-11.937" style="opacity:1;fill:#c38d4d;fill-opacity:1;stroke:none;stroke-width:1.00741184;stroke-opacity:1"></path><path d="M290.891 405.333c8.313-.21 16.667-1.353 24.96-.06 28.251 3.177 53.92 21.81 65.777 47.347-9.224 8.78-18.905 17.34-30.357 23.183-2.724-16.478-9.457-32.564-21.122-44.822-10.764-11.466-24.393-20.356-39.258-25.648" style="opacity:1;fill:#c38d4d;fill-opacity:1;stroke:none;stroke-width:1.00741184;stroke-opacity:1" data-source="https://football-logos.cc"></path><!-- source: https://football-logos.cc --></svg>