<svg xmlns="http://www.w3.org/2000/svg" viewBox="138.63 24.61 745.67 978.2"><!-- Source: https://football-logos.cc --><path fill="#0b0c0d" fill-rule="evenodd" d="m387.84 112.48-16.46-75.27a.751.746-11.234 0 1 .6-.89q37.91-7.02 78.41-10.49a.587.583 83.255 0 1 .63.5l11.08 78.79a.516.512 83.457 0 0 .55.44q41.31-3.26 83.02-.53a.547.542-84.28 0 0 .57-.47l10.74-79.28a.774.768 5.187 0 1 .81-.67q37.89 2.37 76.33 9.5a.571.569-79.562 0 1 .46.67l-14.15 76.48a.612.61 11.03 0 0 .48.71q37.59 7.58 72.75 17.89a.327.32-72.741 0 0 .39-.21l28.08-78.86a.767.765 16.617 0 1 .91-.49q41.24 10.31 79.79 26.27a.526.52-68.724 0 1 .29.67l-31.33 81.71a.824.82-65.564 0 0 .38 1.02c19.14 9.9 30.17 15.41 45.23 24.46q25.4 15.27 49.98 33.93 5.78 4.39 11.62 9.81a.672.663-54.511 0 1 .13.81q-8.72 16.01-19.3 31.74a.625.615-51.21 0 0 .08.8l23.92 23.1a1.574 1.57 33.245 0 1 .36 1.72c-2.74 6.62-5.89 12.98-8.24 18.18q-35.16 78.14-55.2 119.05-5.58 11.39-7.2 15.46a4.168 3.914-34.224 0 0-.27 1.21q-1.83 30.56-2.4 36.73-3.49 38.13-11.76 85.76c-1.77 10.16-4.8 24.07-7.21 34.98-20.05 90.75-58.63 177.76-113.58 252.89q-5.64 7.72-17 21.72-34.9 43.01-77.64 79.09c-5.18 4.37-11.07 8.56-16.21 12.97q-2.23 1.91-6.6 5.05-22.36 16.04-45.36 29.34-1.62.94-7.34 3.94a.93.909 45.651 0 1-.88-.02c-6.9-3.91-13.08-8.5-21.92-14.67q-8.26-5.77-16.09-12.04-51.77-41.46-92.51-90.52-78.64-94.71-120.55-209.67-8.16-22.38-15.04-47.43-9.75-35.5-15.73-69.04c-2.77-15.55-6.55-38.66-8.83-59.33-2.42-22.01-4.31-39.86-4.45-60.84a2.52 2.439-59.126 0 0-.26-1.11q-29.53-59.54-39.55-81.41-13.82-30.13-33.6-73.96a1.583 1.576-34.004 0 1 .35-1.78l21.9-21.16a.602.598-36.519 0 0 .11-.72l-17.49-31.89a.449.447-35.005 0 1 .1-.56q5.21-4.51 11.06-8.99c23.2-17.77 46.52-33.23 71.42-46.34q6.56-3.45 27.56-13.99a.607.606 65.729 0 0 .29-.77l-32.42-79.64a.531.526-21.11 0 1 .31-.69q36.79-13.67 73.82-22.77a.625.624-17.782 0 1 .74.38l28.62 74.91a.506.502 70.964 0 0 .61.3q20.08-6.26 40.23-10.95 7.45-1.73 21.49-4.96a.48.48 32.79 0 0 .37-.57m457.3 136.9 12.83-18.4a.415.411 36.143 0 0-.09-.56q-21.94-17.34-38.66-27.86-16.4-10.32-28.5-16.99-31.03-17.12-64.87-30.36-38.73-15.15-89.55-26.72c-35.91-8.17-71.81-11.93-108.8-13.4q-52.9-2.1-105.93 5.21-14.47 2-29.9 5.26-17.92 3.79-29.6 6.78c-71.4 18.32-139.09 49.66-197.33 95.23a.494.486 55.083 0 0-.11.65l11.08 17.65a1.194 1.187-34.675 0 0 1.73.31c25.85-19.62 53.56-36.66 82.38-51.79 17.4-9.13 36.12-17.47 54.25-24.81q1.03-.41 15.57-5.79 9.38-3.47 15.68-5.49 57.66-18.41 114.09-23.58 65.52-6.01 134.57 5.85 14.15 2.44 24.48 4.82c17.08 3.94 32.94 7.75 48.74 12.51q51.7 15.58 99.11 39.83 8.58 4.39 19.12 10.51 14.88 8.65 18.7 11.18 20.96 13.81 40.79 29.99a.152.144-51.17 0 0 .22-.03m-327.75-68.4a7.57 7.57 0 0 0-7.57-7.57 7.57 7.57 0 0 0-7.57 7.57 7.57 7.57 0 0 0 7.57 7.57 7.57 7.57 0 0 0 7.57-7.57m20.74.07a7.51 7.51 0 0 0-7.51-7.51 7.51 7.51 0 0 0-7.51 7.51 7.51 7.51 0 0 0 7.51 7.51 7.51 7.51 0 0 0 7.51-7.51m-41.49.17a7.4 7.4 0 0 0-7.4-7.4 7.4 7.4 0 0 0-7.4 7.4 7.4 7.4 0 0 0 7.4 7.4 7.4 7.4 0 0 0 7.4-7.4m62.13.7a7.44 7.44 0 0 0-7.44-7.44 7.44 7.44 0 0 0-7.44 7.44 7.44 7.44 0 0 0 7.44 7.44 7.44 7.44 0 0 0 7.44-7.44m-82.21.18a7.42 7.42 0 0 0-7.42-7.42 7.42 7.42 0 0 0-7.42 7.42 7.42 7.42 0 0 0 7.42 7.42 7.42 7.42 0 0 0 7.42-7.42m103.56 1.07a7.47 7.47 0 0 0-7.47-7.47 7.47 7.47 0 0 0-7.47 7.47 7.47 7.47 0 0 0 7.47 7.47 7.47 7.47 0 0 0 7.47-7.47m-123.81.54a7.5 7.5 0 0 0-7.5-7.5 7.5 7.5 0 0 0-7.5 7.5 7.5 7.5 0 0 0 7.5 7.5 7.5 7.5 0 0 0 7.5-7.5m145.56 1.97a7.54 7.54 0 0 0-7.54-7.54 7.54 7.54 0 0 0-7.54 7.54 7.54 7.54 0 0 0 7.54 7.54 7.54 7.54 0 0 0 7.54-7.54m-166.55.88a7.41 7.41 0 0 0-7.41-7.41 7.41 7.41 0 0 0-7.41 7.41 7.41 7.41 0 0 0 7.41 7.41 7.41 7.41 0 0 0 7.41-7.41m188.13 2.93a7.49 7.49 0 0 0-7.49-7.49 7.49 7.49 0 0 0-7.49 7.49 7.49 7.49 0 0 0 7.49 7.49 7.49 7.49 0 0 0 7.49-7.49m-208.94 1.28a7.41 7.41 0 0 0-7.41-7.41 7.41 7.41 0 0 0-7.41 7.41 7.41 7.41 0 0 0 7.41 7.41 7.41 7.41 0 0 0 7.41-7.41m231.01 2.8a7.62 7.62 0 0 0-7.62-7.62 7.62 7.62 0 0 0-7.62 7.62 7.62 7.62 0 0 0 7.62 7.62 7.62 7.62 0 0 0 7.62-7.62m-251.057.316a7.53 7.3-8.2 0 0-8.494-6.151 7.53 7.3-8.2 0 0-6.412 8.299 7.53 7.3-8.2 0 0 8.494 6.151 7.53 7.3-8.2 0 0 6.412-8.299M666.7 198.4a7.56 7.56 0 0 0-7.56-7.56 7.56 7.56 0 0 0-7.56 7.56 7.56 7.56 0 0 0 7.56 7.56 7.56 7.56 0 0 0 7.56-7.56m-292.178-1.47a7.59 7.43-22.3 0 0-9.841-3.994 7.59 7.43-22.3 0 0-4.203 9.754 7.59 7.43-22.3 0 0 9.841 3.994 7.59 7.43-22.3 0 0 4.203-9.754m149.69 5.954 12.664 1.398a1.05 1.05-73.584 0 0 1.158-.929l.108-.974a7.14 7.01 6.3 0 0-6.328-7.751l-.556-.061a7.14 7.01 6.3 0 0-7.866 6.184l-.108.974a1.05 1.05-9.905 0 0 .928 1.159m-30.672 6.426a.391.39-19.842 0 0 .64.3c5.16-4.35 3.83-13.43-3.22-14.57q-6.78-1.09-9.18 4.93a.67.665 8.43 0 0 .68.91c3.49-.28 10.02-1.22 10.68 3.5q.39 2.8.4 4.93m10.098-10.527c-3.298 5.377.562 11.706 6.846 11.644 3.272-.032 3.801-2.371 5.024-4.364s3.067-3.524 1.613-6.456c-2.794-5.629-10.185-6.201-13.483-.824m-34.077 2.156q3.614-.006 6.81.231a.487.485-7.972 0 0 .493-.65c-1.14-3.152-3.946-4.943-7.311-4.938-3.366.005-6.166 1.804-7.297 4.96a.487.485 7.8 0 0 .495.648q3.195-.246 6.81-.251m75.299 4.912 10.335 2.77a2.52 2.52-18.618 0 0 3.086-1.782l.244-.908a7.92 7.77-75 0 0-5.456-9.661l-.193-.052a7.92 7.77-75 0 0-9.555 5.639l-.243.908a2.52 2.52-30.045 0 0 1.782 3.086m142.06-1.861a7.62 7.62 0 0 0-7.62-7.62 7.62 7.62 0 0 0-7.62 7.62 7.62 7.62 0 0 0 7.62 7.62 7.62 7.62 0 0 0 7.62-7.62m-242.294-4.58c-3.368 2.733-4.241 8.59-1.058 11.863a.547.546-55.648 0 0 .893-.169c.998-2.376 2.202-5.138 4.181-6.745s4.931-2.216 7.461-2.703a.547.546-22.473 0 0 .35-.84c-2.547-3.788-8.459-4.139-11.827-1.406m131.476-.848a7.65 7.52-60.8 0 0-10.296 3.009 7.65 7.52-60.8 0 0 2.832 10.347 7.65 7.52-60.8 0 0 10.296-3.009 7.65 7.52-60.8 0 0-2.832-10.347M355.91 205.8a7.53 7.53 0 0 0-7.53-7.53 7.53 7.53 0 0 0-7.53 7.53 7.53 7.53 0 0 0 7.53 7.53 7.53 7.53 0 0 0 7.53-7.53m245.72 1.58a7.79 7.79 0 0 0-7.79-7.79 7.79 7.79 0 0 0-7.79 7.79 7.79 7.79 0 0 0 7.79 7.79 7.79 7.79 0 0 0 7.79-7.79m-170.998-6.233a7.63 7.51-73.7 0 0-9.35 5.215 7.63 7.51-73.7 0 0 5.067 9.431 7.63 7.51-73.7 0 0 9.349-5.215 7.63 7.51-73.7 0 0-5.066-9.431m276.218 9.403a7.48 7.48 0 0 0-7.48-7.48 7.48 7.48 0 0 0-7.48 7.48 7.48 7.48 0 0 0 7.48 7.48 7.48 7.48 0 0 0 7.48-7.48m-98.619-.627a7.69 7.41-169 0 0 6.135 8.741 7.69 7.41-169 0 0 8.963-5.807 7.69 7.41-169 0 0-6.135-8.741 7.69 7.41-169 0 0-8.963 5.807M337.1 211.93a7.54 7.54 0 0 0-7.54-7.54 7.54 7.54 0 0 0-7.54 7.54 7.54 7.54 0 0 0 7.54 7.54 7.54 7.54 0 0 0 7.54-7.54m77.89.49a7.51 7.51 0 0 0-7.51-7.51 7.51 7.51 0 0 0-7.51 7.51 7.51 7.51 0 0 0 7.51 7.51 7.51 7.51 0 0 0 7.51-7.51m36.25 48.52a.479.478 80.918 0 0 .62.45q.19-.06.31-.21 7.35-9.19 20.18-26.24c5.62-7.47 9.8-15.91 14.2-23.51a2.228 2.221-70.319 0 0-1.56-3.31q-1.39-.23-3.75-.26-7.94-.11-17.71.11c-3.41.08-5.85.08-9.15 1.62q-3.26 1.53-3.27 5.12-.07 25.8.13 46.23m185.002-52.874a7.65 7.47-101.6 0 0-5.779 8.996 7.65 7.47-101.6 0 0 8.855 5.992 7.65 7.47-101.6 0 0 5.779-8.996 7.65 7.47-101.6 0 0-8.855-5.992M394.86 216.78a7.47 7.47 0 0 0-7.47-7.47 7.47 7.47 0 0 0-7.47 7.47 7.47 7.47 0 0 0 7.47 7.47 7.47 7.47 0 0 0 7.47-7.47m332.09 1.42a7.54 7.54 0 0 0-7.54-7.54 7.54 7.54 0 0 0-7.54 7.54 7.54 7.54 0 0 0 7.54 7.54 7.54 7.54 0 0 0 7.54-7.54M469.49 331.38l-18.68 21.03a1.127 1.091 66.232 0 0-.27.73v77.9a.48.48 87.586 0 0 .48.48q47.39.05 99.31-.11c7.82-.02 14.21-1.15 20.07-6.94 4.64-4.58 6.28-13.73 6.41-19.97.54-26.85 1.26-57.29.84-85.01q-.55-36.49-.36-67.49.03-4.79-.81-10.99c-1.78-13.18-11.76-21.76-23.98-25.55q-13.55-4.2-27.97-4.61a1.243 1.239 80.945 0 0-1.2 1.66c2.79 7.76 6.68 16.34 14.5 19.65 3.09 1.31 7.69 3 11.67 3.71 5.69 1.03 5.96 8.66 5.94 12.91q-.13 23.53-.25 145.72 0 4.39-1.94 9.32c-2.63 6.72-8.43 8.94-15.19 9q-27.55.23-59.74-.19-6.68-.08-8.45-6.75a1.213 1.081 41.709 0 1-.03-.26v-74.11a.2.199-24.5 0 0-.35-.13M318.54 218.99a7.5 7.5 0 0 0-7.5-7.5 7.5 7.5 0 0 0-7.5 7.5 7.5 7.5 0 0 0 7.5 7.5 7.5 7.5 0 0 0 7.5-7.5m347.92 1.42a7.62 7.62 0 0 0-7.62-7.62 7.62 7.62 0 0 0-7.62 7.62 7.62 7.62 0 0 0 7.62 7.62 7.62 7.62 0 0 0 7.62-7.62m-290.938-.232a7.69 7.44-9.6 0 0-8.823-6.054 7.69 7.44-9.6 0 0-6.341 8.618 7.69 7.44-9.6 0 0 8.823 6.054 7.69 7.44-9.6 0 0 6.341-8.618m311.218 6.342a7.62 7.62 0 0 0-7.62-7.62 7.62 7.62 0 0 0-7.62 7.62 7.62 7.62 0 0 0 7.62 7.62 7.62 7.62 0 0 0 7.62-7.62m59.21.23a7.45 7.45 0 0 0-7.45-7.45 7.45 7.45 0 0 0-7.45 7.45 7.45 7.45 0 0 0 7.45 7.45 7.45 7.45 0 0 0 7.45-7.45m-446.04.21a7.43 7.43 0 0 0-7.43-7.43 7.43 7.43 0 0 0-7.43 7.43 7.43 7.43 0 0 0 7.43 7.43 7.43 7.43 0 0 0 7.43-7.43m191.67-7.18a3.157 3.153-69.091 0 0-3.26 1.46l-6.08 9.98a1.815 1.815 19.466 0 0 1.31 2.74l.39.12a2.59 2.583 24.469 0 0 2.95-1.1l6.99-11.12a1.192 1.19-68.748 0 0-.79-1.8zm18.57 3.33 6.48 8.11a.976.973 34.823 0 0 1.69-.3q1.5-4.6-2.04-9.24a4.28 4.28-18.682 0 0-3.36-1.68h-1.26a1.915 1.915-19.104 0 0-1.51 3.11m-153.78 4.54a7.51 7.51 0 0 0-7.51-7.51 7.51 7.51 0 0 0-7.51 7.51 7.51 7.51 0 0 0 7.51 7.51 7.51 7.51 0 0 0 7.51-7.51m244.96 4.63a7.59 7.59 0 0 0-7.59-7.59 7.59 7.59 0 0 0-7.59 7.59 7.59 7.59 0 0 0 7.59 7.59 7.59 7.59 0 0 0 7.59-7.59m-164.69.42a7.54 7.54 0 0 0-7.54-7.54 7.54 7.54 0 0 0-7.54 7.54 7.54 7.54 0 0 0 7.54 7.54 7.54 7.54 0 0 0 7.54-7.54m7.743 3.406.054-10.4a.11.11 40.347 0 0-.109-.11h-.05a5.21 2.28-89.7 0 0-2.307 5.198l-.002.2a5.21 2.28-89.7 0 0 2.253 5.221l.05.001a.11.11-49.4 0 0 .111-.11M706.9 233.39a7.49 7.49 0 0 0-7.49-7.49 7.49 7.49 0 0 0-7.49 7.49 7.49 7.49 0 0 0 7.49 7.49 7.49 7.49 0 0 0 7.49-7.49m-369.54.57a7.47 7.47 0 0 0-7.47-7.47 7.47 7.47 0 0 0-7.47 7.47 7.47 7.47 0 0 0 7.47 7.47 7.47 7.47 0 0 0 7.47-7.47m185.98-5.81q-1.13 4.89 2.91 6.72 2.57 1.16 3.2 1.13a.261.261 69.42 0 0 .19-.42l-5.99-7.5a.178.176 31.942 0 0-.31.07m84.601 7.444a7.62 7.46-179.2 0 0 7.515 7.565 7.62 7.46-179.2 0 0 7.723-7.353 7.62 7.46-179.2 0 0-7.515-7.565 7.62 7.46-179.2 0 0-7.723 7.353m-326.391.856a7.52 7.52 0 0 0-7.52-7.52 7.52 7.52 0 0 0-7.52 7.52 7.52 7.52 0 0 0 7.52 7.52 7.52 7.52 0 0 0 7.52-7.52m133.88.24a7.45 7.45 0 0 0-7.45-7.45 7.45 7.45 0 0 0-7.45 7.45 7.45 7.45 0 0 0 7.45 7.45 7.45 7.45 0 0 0 7.45-7.45m349.59.23a7.48 7.48 0 0 0-7.48-7.48 7.48 7.48 0 0 0-7.48 7.48 7.48 7.48 0 0 0 7.48 7.48 7.48 7.48 0 0 0 7.48-7.48m-120.05 3.03a7.51 7.51 0 0 0-7.51-7.51 7.51 7.51 0 0 0-7.51 7.51 7.51 7.51 0 0 0 7.51 7.51 7.51 7.51 0 0 0 7.51-7.51m-249.64 1.07a7.45 7.45 0 0 0-7.45-7.45 7.45 7.45 0 0 0-7.45 7.45 7.45 7.45 0 0 0 7.45 7.45 7.45 7.45 0 0 0 7.45-7.45m331.67.29a7.63 7.63 0 0 0-7.63-7.63 7.63 7.63 0 0 0-7.63 7.63 7.63 7.63 0 0 0 7.63 7.63 7.63 7.63 0 0 0 7.63-7.63m-408.283-1.465a7.59 7.35-11.9 0 0-8.943-5.627 7.59 7.35-11.9 0 0-5.911 8.757 7.59 7.35-11.9 0 0 8.943 5.627 7.59 7.35-11.9 0 0 5.911-8.757m347.513 5.435a7.58 7.58 0 0 0-7.58-7.58 7.58 7.58 0 0 0-7.58 7.58 7.58 7.58 0 0 0 7.58 7.58 7.58 7.58 0 0 0 7.58-7.58m-290.52.94a7.52 7.52 0 0 0-7.52-7.52 7.52 7.52 0 0 0-7.52 7.52 7.52 7.52 0 0 0 7.52 7.52 7.52 7.52 0 0 0 7.52-7.52m-112.63.91a7.6 7.6 0 0 0-7.6-7.6 7.6 7.6 0 0 0-7.6 7.6 7.6 7.6 0 0 0 7.6 7.6 7.6 7.6 0 0 0 7.6-7.6m520.51.56a7.46 7.46 0 0 0-7.46-7.46 7.46 7.46 0 0 0-7.46 7.46 7.46 7.46 0 0 0 7.46 7.46 7.46 7.46 0 0 0 7.46-7.46m-483.39 2.14a7.47 7.47 0 0 0-7.47-7.47 7.47 7.47 0 0 0-7.47 7.47 7.47 7.47 0 0 0 7.47 7.47 7.47 7.47 0 0 0 7.47-7.47m433.963-5.967a7.51 7.31-126.5 0 0-1.409 10.385 7.51 7.31-126.5 0 0 10.343 1.689 7.51 7.31-126.5 0 0 1.409-10.385 7.51 7.31-126.5 0 0-10.343-1.689m-206.833.424 8.503 10.767a.11.11-42.423 0 0 .155.019l.055-.044a6.86 4.76 51.7 0 0-.516-8.334l-.137-.172a6.86 4.76 51.7 0 0-7.987-2.434l-.055.044a.11.11-64.486 0 0-.018.154m159.33 6.683a7.65 7.65 0 0 0-7.65-7.65 7.65 7.65 0 0 0-7.65 7.65 7.65 7.65 0 0 0 7.65 7.65 7.65 7.65 0 0 0 7.65-7.65m-77.08 601.4c27.79-29.65 50.83-63.32 70.6-99.18q3.81-6.92 6.27-12.06a2.358 2.263-33.521 0 0 .22-.98V547.49a.983.973 7.84 0 0-.72-.94q-26.38-7.37-32.51-9.46-10.36-3.52-12.2-4.82-9.99-7.05-14.65-18.07c-4.4-10.42-3.99-22.74-1.62-33.97q4.99-23.63 9.73-47.09 5.06-25.07 6.03-29.41a.551.545 23.451 0 1 .85-.33l26.74 18.64a1.918 1.912 19.733 0 1 .82 1.73c-.42 5.21-1.81 10.37-2.89 15.76q-6.27 31.11-9.06 46.69-.96 5.38.89 8.6c2.58 4.49 4.82 9.29 9.01 11.39q8.56 4.28 18.91 6.51a.521.518-83.781 0 0 .63-.51V433.8a.546.544 13.909 0 1 .8-.48q41.08 21.96 84.48 41a.838.827 12.02 0 1 .5.76q.2 15.56-1.28 32.41-1.81 20.67-3.18 30.25-5.6 39.11-17.01 78.25-7.82 26.84-11.24 35.99-17.35 46.48-36.2 82.32-26.06 49.56-60.15 94.33c-28.95 38.02-60.45 73.29-94.37 102.6q-21.31 18.41-42.94 34.11a.69.69-11.651 0 1-.82 0c-37.98-27.76-70.31-63.01-98.76-100.3-44.93-58.89-83.91-123.46-113.05-191.68q-10.61-24.86-19.54-53.4-10.85-34.66-16.15-67.1-2.87-17.51-4.72-32.51-2.18-17.71-3.12-40.85-.15-3.61-.06-7.81a.968.963 79.44 0 1 .6-.88l3.76-1.52a.516.513-11.881 0 1 .71.46q.74 22.07 3.89 45.99 3.86 29.32 5.59 38.7 8.15 44.27 24.63 88.37 8.26 22.11 14.43 35.84 9.1 20.27 21.83 46.15a.317.316 31.838 0 0 .6-.14V542.37a.708.704-2.943 0 0-.78-.7q-6.81.77-11.36 1.48-6.3.98-10.88.2-12.45-2.12-22.02-9.38-4.73-3.6-6-9.32c-2.63-11.95-4.37-21.17-7.5-32.75q-3.41-12.59-6.21-25.52a.461.459-12.185 0 1 .35-.54q2.44-.55 4.59-1.99a.319.316 65.27 0 1 .48.18q6.73 24.36 13.25 55.47.91 4.34 2.68 6.32 12.95 14.51 31.83 11.22 30.21-5.25 41.2-7.12c13.02-2.21 25.3-3.38 36.84-5.57a.489.487-10.252 0 0 .39-.56l-4.3-24.94a.638.635 81.605 0 0-.71-.53q-4.57.61-7.38 1.2c-1.54.32-3.26.36-4.05 1.73q-.6 1.03-3.02 7.56c-1.2 3.25-3.46 3.33-6.44 3.9q-41.29 7.89-45.98 8.75-6.37 1.17-11.59.05-7.55-1.61-12.3-7.51-1.95-2.43-4.47-13.02-4.9-20.58-10.41-38.33-.26-.84-1.11-4.97a.585.579-20.604 0 1 .29-.63c9.11-5.13 19.1-9.91 29.15-15.64 31.86-18.2 62.96-36.6 91.94-59.3q11.17-8.75 18.38-15.19a.108.107 68.581 0 1 .18.08v193.28a.464.456-25.683 0 0 .82.28q2.03-2.49 4.63-4.46c21.9-16.64 49.26-27.12 76.93-27.32a.62.62-.47 0 0 .61-.62v-88.33a1.05 1.05 45 0 0-1.05-1.05h-58.53a.72.72-45 0 1-.72-.72v-88.31a.848.841 68.747 0 1 .27-.62q15.9-15.13 30.09-33.17.28-.35 1.62-1.53a.316.314 69.647 0 1 .52.24q.01 28.55-.04 64.5c-.01 6.09-.51 11.82.1 17.43q.63 5.84 5.25 8.18 2.38 1.2 6.84 1.07c5.6-.17 11.75-.63 13.79-6.11q.54-1.46.51-9.06-.28-82.59-.28-92.88a.754.75 8.301 0 0-.54-.72l-6.58-2.01a.277.275 25.091 0 1-.15-.41l7.63-12.16a.642.639-49.946 0 1 1.01-.09q20.5 22.38 45.42 43.87a.357.357-69.584 0 0 .59-.27v-28.92a1.109 1.091 21.164 0 0-.37-.82q-3.06-2.73-12.22-11.82-12.52-12.41-21.98-24.51-6.61-8.45-12.05-15.89a.526.517-44.497 0 0-.84 0q-3.74 4.91-9.37 12.78-10.06 14.07-23.71 29.53-1.44 1.64-11.37 12.46c-8.16 8.9-17.18 17.56-24.38 24.53q-26.88 26.07-59.39 50.09-38.28 28.28-80.54 51.96-18.63 10.44-32.98 17.26-7.42 3.52-28.27 13.31a.787.774 78.799 0 0-.46.7q-.76 32.61 2.34 64.79c7.26 75.26 32.03 150.56 67.23 218.29q26.71 51.4 62.34 101.12 37.5 52.35 78.98 94.03 18.89 18.97 32.45 29.77 17.05 13.59 20.55 15.95 5.61 3.79 9.37 5.7a1.484 1.454 43.983 0 0 1.36-.01q16.97-9.07 33.79-21.46 21.19-15.6 40.73-33.76 47.46-44.13 85.26-96.73c59.41-82.66 102-178.28 118.58-278.37q8.23-49.64 7.65-98.14a.789.788-78.915 0 0-.49-.73q-19.16-7.8-43.62-19.34-3.96-1.87-24.59-12.6c-12.74-6.62-26.81-14.9-36.15-20.68-35.67-22.06-70.71-46.22-102.09-73.87a.458.456 20.778 0 0-.76.34v32.68a1.108 1.098-70.746 0 0 .41.86l24.74 19.58a1.902 1.898-70.858 0 1 .72 1.49V578a3.7 3.663 27.847 0 0 .66 2.1c8.82 12.68 16.19 27.32 19.3 42.68q.45 2.22 1.97 4.42 4.08 5.9 5.62 11.73c1.17 4.42 1.77 11.8 1.68 18.13q-.25 18.27-2.74 29.29-3.4 15.01-6.7 22.23-4.12 9.01-7.01 12.52-6.32 7.68-10.54 14.16c-.68 1.04-2.23 2.22-2.62 3.38a2.68 2.595 55.386 0 0-.12.72l-.73 112.89a.174.173 66.671 0 0 .3.12M356.74 252.04a7.65 7.65 0 0 0-7.65-7.65 7.65 7.65 0 0 0-7.65 7.65 7.65 7.65 0 0 0 7.65 7.65 7.65 7.65 0 0 0 7.65-7.65m191.74-6.48a1.335 1.331 60.139 0 0-1.91-.52q-5.79 3.74-4.53 10.48a6.111 6.042 18.105 0 0 1.6 3.11l1.87 1.93a2.218 2.213 25.768 0 0 3.8-1.32q.51-5.21-.37-11.44-.26-1.83-.46-2.24m-73.511 3.047a1.86 1.86 0 0 0-.306-2.612l-.095-.075a1.86 1.86 0 0 0-2.612.307l-8.565 10.846a1.86 1.86 0 0 0 .306 2.612l.095.075a1.86 1.86 0 0 0 2.612-.307zm117.041.677a7.7 7.6-100.7 0 0-6.038 8.977 7.7 7.6-100.7 0 0 8.898 6.155 7.7 7.6-100.7 0 0 6.038-8.977 7.7 7.6-100.7 0 0-8.898-6.155m-160.759.856a7.74 7.6-75.4 0 0-9.306 5.574 7.74 7.6-75.4 0 0 5.404 9.406 7.74 7.6-75.4 0 0 9.306-5.574 7.74 7.6-75.4 0 0-5.404-9.406m12.615 9.837-.032-9.22a.11.11 66.204 0 0-.11-.109h-.06a4.61 1.31 89.8 0 0-1.294 4.615v.22a4.61 1.31 89.8 0 0 1.326 4.605h.06a.11.11 44.895 0 0 .11-.111m262.794-1.907a7.46 7.46 0 0 0-7.46-7.46 7.46 7.46 0 0 0-7.46 7.46 7.46 7.46 0 0 0 7.46 7.46 7.46 7.46 0 0 0 7.46-7.46m-462.205-1.447a7.7 7.49-14.8 0 0-9.358-5.275 7.7 7.49-14.8 0 0-5.532 9.209 7.7 7.49-14.8 0 0 9.358 5.275 7.7 7.49-14.8 0 0 5.532-9.209m93.425 1.927a7.52 7.52 0 0 0-7.52-7.52 7.52 7.52 0 0 0-7.52 7.52 7.52 7.52 0 0 0 7.52 7.52 7.52 7.52 0 0 0 7.52-7.52m463.071-2.083a7.58 7.4-19.6 0 0-9.623-4.428 7.58 7.4-19.6 0 0-4.659 9.514 7.58 7.4-19.6 0 0 9.623 4.428 7.58 7.4-19.6 0 0 4.659-9.514m-518.807 2.221a7.63 7.36-3.7 0 0-8.089-6.853 7.63 7.36-3.7 0 0-7.139 7.837 7.63 7.36-3.7 0 0 8.089 6.853 7.63 7.36-3.7 0 0 7.139-7.837m325.738.863a7.62 7.43-171.1 0 0 6.378 8.52 7.62 7.43-171.1 0 0 8.678-6.162 7.62 7.43-171.1 0 0-6.378-8.52 7.62 7.43-171.1 0 0-8.678 6.162m143.558-3.076a7.5 7.35-145.9 0 0 2.089 10.291 7.5 7.35-145.9 0 0 10.331-1.881 7.5 7.35-145.9 0 0-2.089-10.291 7.5 7.35-145.9 0 0-10.331 1.881m-335.77 5.015a7.39 7.39 0 0 0-7.39-7.39 7.39 7.39 0 0 0-7.39 7.39 7.39 7.39 0 0 0 7.39 7.39 7.39 7.39 0 0 0 7.39-7.39m229.45 3.36a7.5 7.5 0 0 0-7.5-7.5 7.5 7.5 0 0 0-7.5 7.5 7.5 7.5 0 0 0 7.5 7.5 7.5 7.5 0 0 0 7.5-7.5m-258.343-6.728a7.61 7.39-100.7 0 0-5.849 8.85 7.61 7.39-100.7 0 0 8.675 6.106 7.61 7.39-100.7 0 0 5.849-8.85 7.61 7.39-100.7 0 0-8.675-6.106M318.9 266.29a7.51 7.51 0 0 0-7.51-7.51 7.51 7.51 0 0 0-7.51 7.51 7.51 7.51 0 0 0 7.51 7.51 7.51 7.51 0 0 0 7.51-7.51m392.969-.791a7.63 7.48-174.2 0 0 6.835 8.213 7.63 7.48-174.2 0 0 8.347-6.671 7.63 7.48-174.2 0 0-6.835-8.213 7.63 7.48-174.2 0 0-8.347 6.671M666.3 269.96a7.65 7.65 0 0 0-7.65-7.65 7.65 7.65 0 0 0-7.65 7.65 7.65 7.65 0 0 0 7.65 7.65 7.65 7.65 0 0 0 7.65-7.65m-403.02-2.121a7.69 7.45-17.1 0 0-9.541-4.86 7.69 7.45-17.1 0 0-5.159 9.382 7.69 7.45-17.1 0 0 9.541 4.86 7.69 7.45-17.1 0 0 5.159-9.382m112.96 2.831a7.59 7.59 0 0 0-7.59-7.59 7.59 7.59 0 0 0-7.59 7.59 7.59 7.59 0 0 0 7.59 7.59 7.59 7.59 0 0 0 7.59-7.59m-152.72-5.337a7.5 7.31-51.1 0 0-10.399 1.247 7.5 7.31-51.1 0 0 .979 10.427 7.5 7.31-51.1 0 0 10.399-1.247 7.5 7.31-51.1 0 0-.979-10.427m594.781 3.512a7.64 7.48-19.3 0 0-9.683-4.535 7.64 7.48-19.3 0 0-4.739 9.585 7.64 7.48-19.3 0 0 9.683 4.535 7.64 7.48-19.3 0 0 4.739-9.585m-35.041 2.805a7.55 7.55 0 0 0-7.55-7.55 7.55 7.55 0 0 0-7.55 7.55 7.55 7.55 0 0 0 7.55 7.55 7.55 7.55 0 0 0 7.55-7.55m-483.059.621a7.47 7.36-20.2 0 0-9.552-4.328 7.47 7.36-20.2 0 0-4.47 9.486 7.47 7.36-20.2 0 0 9.552 4.328 7.47 7.36-20.2 0 0 4.47-9.486m386.159 3.509a7.61 7.61 0 0 0-7.61-7.61 7.61 7.61 0 0 0-7.61 7.61 7.61 7.61 0 0 0 7.61 7.61 7.61 7.61 0 0 0 7.61-7.61m59.54-.18a7.46 7.46 0 0 0-7.46-7.46 7.46 7.46 0 0 0-7.46 7.46 7.46 7.46 0 0 0 7.46 7.46 7.46 7.46 0 0 0 7.46-7.46m-388.68.99a7.62 7.62 0 0 0-7.62-7.62 7.62 7.62 0 0 0-7.62 7.62 7.62 7.62 0 0 0 7.62 7.62 7.62 7.62 0 0 0 7.62-7.62m87.226 8.624 10.38-11.131a.11.11 14.147 0 0-.005-.156l-.029-.027a7.69 7.47-47 0 0-10.708.53l-.041.044a7.69 7.47-47 0 0 .219 10.718l.029.027a.11.11 38.141 0 0 .155-.005m156.534-3.754a7.59 7.59 0 0 0-7.59-7.59 7.59 7.59 0 0 0-7.59 7.59 7.59 7.59 0 0 0 7.59 7.59 7.59 7.59 0 0 0 7.59-7.59m-355.64.64a7.5 7.5 0 0 0-7.5-7.5 7.5 7.5 0 0 0-7.5 7.5 7.5 7.5 0 0 0 7.5 7.5 7.5 7.5 0 0 0 7.5-7.5m185.184-7.351a7.64 7.48-82.9 0 0-8.367 6.656 7.64 7.48-82.9 0 0 6.479 8.506 7.64 7.48-82.9 0 0 8.367-6.656 7.64 7.48-82.9 0 0-6.479-8.506m276.116 7.861a7.48 7.48 0 0 0-7.48-7.48 7.48 7.48 0 0 0-7.48 7.48 7.48 7.48 0 0 0 7.48 7.48 7.48 7.48 0 0 0 7.48-7.48m-368.32.6a7.53 7.53 0 0 0-7.53-7.53 7.53 7.53 0 0 0-7.53 7.53 7.53 7.53 0 0 0 7.53 7.53 7.53 7.53 0 0 0 7.53-7.53m462.389-1.94a7.62 7.34-16.7 0 0-9.408-4.84 7.62 7.34-16.7 0 0-5.19 9.22 7.62 7.34-16.7 0 0 9.408 4.84 7.62 7.34-16.7 0 0 5.19-9.22m-518.209 2.7a7.43 7.43 0 0 0-7.43-7.43 7.43 7.43 0 0 0-7.43 7.43 7.43 7.43 0 0 0 7.43 7.43 7.43 7.43 0 0 0 7.43-7.43m326.406-3.078a7.64 7.48-144.3 0 0 1.839 10.532 7.64 7.48-144.3 0 0 10.569-1.616 7.64 7.48-144.3 0 0-1.839-10.532 7.64 7.48-144.3 0 0-10.569 1.616m225.684 4.118a7.38 7.38 0 0 0-7.38-7.38 7.38 7.38 0 0 0-7.38 7.38 7.38 7.38 0 0 0 7.38 7.38 7.38 7.38 0 0 0 7.38-7.38m-627.082-3.955a7.56 7.35-34.8 0 0-10.403-1.72 7.56 7.35-34.8 0 0-2.013 10.35 7.56 7.35-34.8 0 0 10.403 1.72 7.56 7.35-34.8 0 0 2.013-10.35m544.37-.186a7.61 7.49-137.4 0 0 .532 10.664 7.61 7.49-137.4 0 0 10.672-.362 7.61 7.49-137.4 0 0-.532-10.664 7.61 7.49-137.4 0 0-10.672.362m-338.31-.615a7.57 7.41-52.5 0 0-10.487 1.495 7.57 7.41-52.5 0 0 1.271 10.517 7.57 7.41-52.5 0 0 10.487-1.495 7.57 7.41-52.5 0 0-1.271-10.517m231.292 9.506a7.66 7.66 0 0 0-7.66-7.66 7.66 7.66 0 0 0-7.66 7.66 7.66 7.66 0 0 0 7.66 7.66 7.66 7.66 0 0 0 7.66-7.66m-248.6.66a7.45 7.45 0 0 0-7.45-7.45 7.45 7.45 0 0 0-7.45 7.45 7.45 7.45 0 0 0 7.45 7.45 7.45 7.45 0 0 0 7.45-7.45m-76.9.4a7.55 7.55 0 0 0-7.55-7.55 7.55 7.55 0 0 0-7.55 7.55 7.55 7.55 0 0 0 7.55 7.55 7.55 7.55 0 0 0 7.55-7.55m393.828 2.752 10.298 2.245a2.52 2.52 35.723 0 0 2.999-1.925l.181-.83a7.67 7.55 12.3 0 0-5.886-9.011l-.234-.051a7.67 7.55 12.3 0 0-9.102 5.743l-.181.83a2.52 2.52 88.027 0 0 1.925 2.999m-47.148.918a7.67 7.67 0 0 0-7.67-7.67 7.67 7.67 0 0 0-7.67 7.67 7.67 7.67 0 0 0 7.67 7.67 7.67 7.67 0 0 0 7.67-7.67m-402.492-3.555a7.7 7.53-29.1 0 0-10.39-2.835 7.7 7.53-29.1 0 0-3.066 10.325 7.7 7.53-29.1 0 0 10.39 2.834 7.7 7.53-29.1 0 0 3.066-10.324m-36.388 4.115a7.44 7.44 0 0 0-7.44-7.44 7.44 7.44 0 0 0-7.44 7.44 7.44 7.44 0 0 0 7.44 7.44 7.44 7.44 0 0 0 7.44-7.44m149.87.38a7.63 7.63 0 0 0-7.63-7.63 7.63 7.63 0 0 0-7.63 7.63 7.63 7.63 0 0 0 7.63 7.63 7.63 7.63 0 0 0 7.63-7.63m441.43.98a7.45 7.45 0 0 0-7.45-7.45 7.45 7.45 0 0 0-7.45 7.45 7.45 7.45 0 0 0 7.45 7.45 7.45 7.45 0 0 0 7.45-7.45m-35.23.69a7.62 7.62 0 0 0-7.62-7.62 7.62 7.62 0 0 0-7.62 7.62 7.62 7.62 0 0 0 7.62 7.62 7.62 7.62 0 0 0 7.62-7.62m66.72 1.16a7.45 7.45 0 0 0-7.45-7.45 7.45 7.45 0 0 0-7.45 7.45 7.45 7.45 0 0 0 7.45 7.45 7.45 7.45 0 0 0 7.45-7.45m-657.26.94a7.44 7.44 0 0 0-7.44-7.44 7.44 7.44 0 0 0-7.44 7.44 7.44 7.44 0 0 0 7.44 7.44 7.44 7.44 0 0 0 7.44-7.44m108.2.07a7.44 7.44 0 0 0-7.44-7.44 7.44 7.44 0 0 0-7.44 7.44 7.44 7.44 0 0 0 7.44 7.44 7.44 7.44 0 0 0 7.44-7.44m370.17 1.99q2.65-5.77 8.75-8.03a.403.4-49.644 0 0-.06-.77c-6.61-1.32-9.29 3.05-9.2 8.69a.268.267 56.985 0 0 .51.11m67.478-2.834q3.452.842 6.448 1.817a.479.477 5.824 0 0 .623-.505c-.35-3.276-2.609-5.643-5.823-6.427s-6.309.276-8.129 3.023a.479.477 21.596 0 0 .321.736q3.108.514 6.56 1.356M343.62 297.11c7.44-1.1 8.05 4.26 10.23 9.5a1.095 1.095 55.31 0 0 1.81.33q3.75-3.99 1.53-9.02c-2.46-5.59-10.23-6.64-13.84-1.23a.272.272 12.34 0 0 .27.42m443.73 48.67 4.24-26.9a2.034 2.034 12.512 0 0-1.44-2.26q-2.55-.76-8.38-1.99-47.64-10-70.42-14.33-2.07-.39-10.74-2.22-7.6-1.59-10.84-1.11c-13.33 1.97-17.69 15.73-20.63 26.91-3.51 13.36-7.16 26.77-9.69 40.12a1.145 1.133 21.928 0 0 .51 1.18l15.31 9.61a.508.506 25.768 0 0 .75-.26q.68-2.01.94-3.08 3.11-12.38 10.25-41.97c1.85-7.66 5.56-16.64 14.74-14.67q40.72 8.71 62.73 13.03 2.78.55 4 1.32c4.5 2.84 6.92 9.67 7.28 14.78a1.35 1.341 1.877 0 0 1.16 1.23l9.35 1.26a.779.778-81.395 0 0 .88-.65m-612.3-40.63q.56-2.88-.23-5.48a2.679 2.675-8.517 0 0-2.56-1.89h-.66a.936.933 74.005 0 0-.79 1.43l3.79 6.02a.246.245 34.741 0 0 .45-.08m71.221.412a7.72 7.49-8.7 0 0-8.764-6.236 7.72 7.49-8.7 0 0-6.498 8.572 7.72 7.49-8.7 0 0 8.764 6.236 7.72 7.49-8.7 0 0 6.498-8.572m178.324-3.618q-2.313 2.255-2.247 5.645a.427.426-26.397 0 0 .761.255q1.6-2.029 3.477-3.859 1.876-1.829 3.944-3.378a.427.426-62.166 0 0-.236-.768q-3.387-.15-5.699 2.105m-91.936-1.767a3.02.64-19.4 0 0-3.062.399 3.02.64-19.4 0 0-2.636 1.607 3.02.64-19.4 0 0 3.062-.399 3.02.64-19.4 0 0 2.636-1.607m-49.799 8.343a7.38 7.38 0 0 0-7.38-7.38 7.38 7.38 0 0 0-7.38 7.38 7.38 7.38 0 0 0 7.38 7.38 7.38 7.38 0 0 0 7.38-7.38m326.868 8.488c4.196 2.45 9.089 2.797 11.68-1.616 2.899-4.937 1.32-9.675-3.459-12.465-4.778-2.79-9.68-1.837-12.555 3.115-2.57 4.425.137 8.515 4.334 10.966m-414.777-9.058a7.46 7.23-174 0 0 6.663 7.97 7.46 7.23-174 0 0 8.175-6.41 7.46 7.23-174 0 0-6.663-7.97 7.46 7.23-174 0 0-8.175 6.41m604.379 6.04 1.42-2.46a4.52 4.516-37.082 0 0 .47-3.37c-2.16-8.48-12.55-8.93-16.06-1.54a1.013 1.013 15.662 0 0 .81 1.44c4.06.44 12.06.53 11.89 5.51a.789.787-29.01 0 0 1.47.42m34.91-4.63a7.37 7.37 0 0 0-7.37-7.37 7.37 7.37 0 0 0-7.37 7.37 7.37 7.37 0 0 0 7.37 7.37 7.37 7.37 0 0 0 7.37-7.37m-236.44-1.81a.645.641 40.078 0 0 1.21-.1l.75-2.94a1.039 1.037 73.419 0 0-1.77-.96q-1.34 1.46-.19 4m-182.396-1.354a7.56 7.33-37.8 0 0-10.467-1.158 7.56 7.33-37.8 0 0-1.481 10.426 7.56 7.33-37.8 0 0 10.467 1.158 7.56 7.33-37.8 0 0 1.481-10.426M256.53 412.47l17.39-5.45a.491.485-16.12 0 0 .33-.59q-3.76-14.83-4.43-16.99-6.57-21.22-8.69-29.54c-2.14-8.42.3-12.58 8.38-15.17q13.43-4.3 24.28-7.63c12.15-3.74 23.33-7.74 35.54-10.9a5.583 5.47-50.555 0 1 1.58-.17c6.31.19 11.7 3.92 15.28 9.1a.954.953-23.249 0 0 .98.39l9.61-2.1a1.01 1.004 71.255 0 0 .69-1.41l-12.37-26.36a1.894 1.894 69.255 0 0-2.24-1.01q-36.26 10.5-68.5 21.1-4.13 1.36-10.13 3.07-8.31 2.36-10.15 2.97c-10.49 3.46-12.95 10.81-12.27 21.23q.49 7.52 3.03 17.17 5.17 19.67 8.66 31.1c1.19 3.87 1.55 6.07 2.52 10.89a.395.391-14.213 0 0 .51.3m388.5-97.84a7.6 7.6 0 0 0-7.6-7.6 7.6 7.6 0 0 0-7.6 7.6 7.6 7.6 0 0 0 7.6 7.6 7.6 7.6 0 0 0 7.6-7.6m-257.548-6.856a7.6 7.44-103.3 0 0-5.492 9.108 7.6 7.44-103.3 0 0 8.988 5.684 7.6 7.44-103.3 0 0 5.492-9.108 7.6 7.44-103.3 0 0-8.988-5.684M177.37 311q.06.81.46 1.51 3.08 5.47 5.36 10.84 1.23 2.92 3.15 5.33a.869.857-25.761 0 0 .88.3c5.83-1.4 7.83-6.64 4.67-11.68q-2.07-3.32-4.38-5.01a5.217 5.199-22.812 0 0-2.39-.97l-7.07-.96a.604.6-88.072 0 0-.68.64m486.16 3.01c-2.92-3.39-7.72-3.16-10.72-.01-3.28 3.45-2.39 9.78 2.34 11.47 6.6 2.37 8.57-5.49 8.74-10.43a1.513 1.479-64.911 0 0-.36-1.03m-399.41 6.94q1.23-2.7.06-5.42c-1.83-4.22-6.98-4.6-10.67-2.49q-4.65 2.66-4.01 8.29.48 4.15 5.08 3.28c2.8-.52 8.39-1.16 9.54-3.66m-37.621-5.092a7.56 7.37-35.7 0 0-10.44-1.573 7.56 7.37-35.7 0 0-1.838 10.397 7.56 7.37-35.7 0 0 10.44 1.573 7.56 7.37-35.7 0 0 1.838-10.397m141.875-3.076a7.66 7.43-101.8 0 0-5.707 9.017 7.66 7.43-101.8 0 0 8.839 5.979 7.66 7.43-101.8 0 0 5.707-9.017 7.66 7.43-101.8 0 0-8.839-5.979m450.086 8.538a7.6 7.6 0 0 0-7.6-7.6 7.6 7.6 0 0 0-7.6 7.6 7.6 7.6 0 0 0 7.6 7.6 7.6 7.6 0 0 0 7.6-7.6m24.807-5.85c-4.795-.483-9.538 2.717-9.632 7.77a5 4.926-61.134 0 0 .775 2.754l1.258 2.005a1.443 1.443-49.768 0 0 2.549-.213l5.143-12.165a.109.107-76.798 0 0-.093-.151m-124.596 11.195q2.25.436 3.392.154a.145.145-49.828 0 0-.024-.286q-1.314-.097-3.251-.473-1.937-.375-3.193-.776a.145.145 71.762 0 0-.129.257q.954.688 3.205 1.124M246 326.65c-2.14-1.86-5.74-.76-9.46-.05-7.02 1.32-10.45 9.81-4.78 15.07q1.18 1.1 2.83 1.22a.72.72 55.312 0 0 .72-.48q.33-.96 2.49-7.11.5-1.44 3.48-5.08a1.051.954-83.296 0 1 .31-.27l4.33-2.47a.508.506-39.629 0 0 .08-.83m383.38 14.37c2.2-5.07 1.3-13.64-5.55-14.43q-3.02-.35-4.47 1.68a1.406 1.395 56.539 0 0-.22 1.1q1.01 4.79 2.94 6.35 2.52 2.03 6.63 5.46a.431.428-58.283 0 0 .67-.16m-421.615-12.534a7.43 7.24-49.2 0 0-10.336.893 7.43 7.24-49.2 0 0 .626 10.355 7.43 7.24-49.2 0 0 10.336-.893 7.43 7.24-49.2 0 0-.626-10.355m624.107.587a7.57 7.38-46.9 0 0-10.561.484 7.57 7.38-46.9 0 0 .217 10.57 7.57 7.38-46.9 0 0 10.561-.484 7.57 7.38-46.9 0 0-.217-10.57m-34.612-1.177-2.054 13.12a.04.04-6.141 0 0 .033.046l.049.008a6.58 5.39-81.1 0 0 6.344-5.667l.03-.198a6.58 5.39-81.1 0 0-4.307-7.335l-.049-.007a.04.04 19.126 0 0-.046.033m-91.3 2.217a7.55 6.84-45.2 0 0-10.173.537 7.55 6.84-45.2 0 0-.467 10.177 7.55 6.84-45.2 0 0 10.173-.537 7.55 6.84-45.2 0 0 .467-10.177m-92.423-1.661a1.99.99-147.2 0 0 1.137 1.91 1.99.99-147.2 0 0 2.209.246 1.99.99-147.2 0 0-1.137-1.91 1.99.99-147.2 0 0-2.209-.246m132.133 2.802-14.052-2.655a.11.11-84.4 0 0-.128.087l-.01.05a7.16 5.16 10.7 0 0 6.078 6.399l.196.037a7.16 5.16 10.7 0 0 7.994-3.741l.009-.049a.11.11 50.353 0 0-.087-.128m-361.842 11.507 11.001-9.231a.14.14-34.023 0 0 .017-.197l-.045-.054a7.24 6.07-40 0 0-9.448.004l-.123.103a7.24 6.07-40 0 0-1.644 9.304l.045.053a.14.14 32.876 0 0 .197.018m264.251-6.59a7.83 7.62-20.4 0 0-9.995-4.413 7.83 7.62-20.4 0 0-4.683 9.871 7.83 7.62-20.4 0 0 9.995 4.413 7.83 7.62-20.4 0 0 4.683-9.871M324.91 334.69a.902.898 71.717 0 0-.49.98c1.27 6.68 9.71 7.95 13.9 3.32a1.348 1.347-27.861 0 0 .34-1.1q-.3-2.31-2.66-3.49-5.2-2.59-11.09.29m438.956.822-10.238-2.42a2.46 2.46 0 0 0-2.96 1.828l-.145.613a7.5 7.49 13.3 0 0 5.576 9.015l.428.101a7.5 7.49 13.3 0 0 9.022-5.564l.145-.613a2.46 2.46-82.949 0 0-1.828-2.96m-36.576 7.828a7.59 7.59 0 0 0-7.59-7.59 7.59 7.59 0 0 0-7.59 7.59 7.59 7.59 0 0 0 7.59 7.59 7.59 7.59 0 0 0 7.59-7.59m-70.986 5.489 2.482-12.537a.1.1-77.497 0 0-.079-.118l-.029-.005a6.4 4.61-78.8 0 0-5.765 5.382l-.035.177a6.4 4.61-78.8 0 0 3.279 7.173l.029.006a.1.1-19.818 0 0 .118-.078m-336.993-12.53-12.27 3.916a1.42 1.42-47.015 0 0-.921 1.784l.197.619a8.35 7.75 72.3 0 0 9.922 5.599l.21-.067a8.35 7.75 72.3 0 0 4.844-10.311l-.197-.619a1.42 1.42-47.154 0 0-1.785-.921m56.22 3.033a6.41 6.41 0 0 0-9.055-.427l-2.086 1.898a6.41 6.41 0 0 0-.427 9.055l.646.71a6.41 6.41 0 0 0 9.055.427l2.086-1.898a6.41 6.41 0 0 0 .427-9.055zm-182.803 4.018q1.478 2.979 2.19 5.393a.326.325 49.538 0 0 .606.049c.94-1.956.514-4.714-.429-6.616-.944-1.903-2.883-3.91-5.009-4.345a.326.325 77.695 0 0-.327.511q1.491 2.028 2.969 5.008m32.33-1.379a7.66 7.44-38.7 0 0-10.63-1.017 7.66 7.44-38.7 0 0-1.326 10.595 7.66 7.44-38.7 0 0 10.63 1.017 7.66 7.44-38.7 0 0 1.326-10.595m593.592 5.099a7.6 7.6 0 0 0-7.6-7.6 7.6 7.6 0 0 0-7.6 7.6 7.6 7.6 0 0 0 7.6 7.6 7.6 7.6 0 0 0 7.6-7.6m-524.302-3.263q-1.971.611-3.978 1.564a3.189 3.174 83.209 0 0-1.759 2.245c-1.182 5.782 4.184 10.289 9.585 8.616s7.281-8.423 3.037-12.525a3.189 3.174 62.373 0 0-2.72-.858q-2.194.348-4.165.958m487.372 9.323c-2.62.04-9.01-.21-10.97-2.53-1.33-1.59-1.1-4.88-1.31-6.76a.441.437-36.589 0 0-.84-.12c-1.86 4.24-.11 8.8 3.79 11.33 2.9 1.88 7.3 1.48 9.74-.97a.56.557 21.818 0 0-.41-.95m-422.66-1.25a7.71 7.71 0 0 0-7.71-7.71 7.71 7.71 0 0 0-7.71 7.71 7.71 7.71 0 0 0 7.71 7.71 7.71 7.71 0 0 0 7.71-7.71m372.055-.422a7.59 7.45-173.1 0 0 6.64 8.308 7.59 7.45-173.1 0 0 8.43-6.484 7.59 7.45-173.1 0 0-6.64-8.308 7.59 7.45-173.1 0 0-8.43 6.484m-42.145-.668-2.29 9.02a.109.106-18.91 0 0 .19.09q3.17-3.9 2.47-9.09a.189.188-41.83 0 0-.37-.02m-348.56 7.51a7.51 7.51 0 0 0-7.51-7.51 7.51 7.51 0 0 0-7.51 7.51 7.51 7.51 0 0 0 7.51 7.51 7.51 7.51 0 0 0 7.51-7.51m-142.081-2.971 4.848 10.119a1.85 1.85-24.422 0 0 2.467.869l.731-.35a6.67 6.36 64.4 0 0 2.854-8.763l-.683-1.425a6.67 6.36 64.4 0 0-8.618-3.267l-.73.35a1.85 1.85 48.218 0 0-.869 2.467m86.951 3.971a7.53 7.53 0 0 0-7.53-7.53 7.53 7.53 0 0 0-7.53 7.53 7.53 7.53 0 0 0 7.53 7.53 7.53 7.53 0 0 0 7.53-7.53m423.03.82a7.66 7.66 0 0 0-7.66-7.66 7.66 7.66 0 0 0-7.66 7.66 7.66 7.66 0 0 0 7.66 7.66 7.66 7.66 0 0 0 7.66-7.66m92.146-2.802a7.6 7.25-21.8 0 0-9.748-3.91 7.6 7.25-21.8 0 0-4.364 9.554 7.6 7.25-21.8 0 0 9.748 3.91 7.6 7.25-21.8 0 0 4.364-9.554m19.704-.018q-1.815 3.833.733 7.87a.361.361-49.467 0 0 .637-.05q.721-1.673 2.714-5.882t2.831-5.827a.361.361-79.855 0 0-.365-.524q-4.738.587-6.55 4.413m-54.98 4.94a7.55 7.55 0 0 0-7.55-7.55 7.55 7.55 0 0 0-7.55 7.55 7.55 7.55 0 0 0 7.55 7.55 7.55 7.55 0 0 0 7.55-7.55m-528.268 6.839-1.82-12.791a1.11 1.11-86.669 0 0-1.255-.942l-.763.108a7.72 7.47-8.1 0 0-6.59 8.483l.028.198a7.72 7.47-8.1 0 0 8.695 6.308l.763-.108a1.11 1.11 3.205 0 0 .942-1.256m80.877-10.206a7.7 7.45-64.8 0 0-10.02 3.795 7.7 7.45-64.8 0 0 3.463 10.139 7.7 7.45-64.8 0 0 10.019-3.795 7.7 7.45-64.8 0 0-3.462-10.139m409.759 8.022a7.62 7.37-9.4 0 0-8.722-6.026 7.62 7.37-9.4 0 0-6.314 8.516 7.62 7.37-9.4 0 0 8.722 6.026 7.62 7.37-9.4 0 0 6.314-8.516m86.362 12.815q2.81-2.36 4.11-7.55a1.825 1.816 42.82 0 0-.04-.99q-1.8-5.38-7.47-5.61c-5.97-.26-9.72 6.67-6.23 11.62q3.03 4.29 8.41 3.13a2.792 2.67-69.909 0 0 1.22-.6m-589.53-6.36a7.43 7.43 0 0 0-7.43-7.43 7.43 7.43 0 0 0-7.43 7.43 7.43 7.43 0 0 0 7.43 7.43 7.43 7.43 0 0 0 7.43-7.43m558.81.09a7.52 7.52 0 0 0-7.52-7.52 7.52 7.52 0 0 0-7.52 7.52 7.52 7.52 0 0 0 7.52 7.52 7.52 7.52 0 0 0 7.52-7.52m-479.49.32a7.53 7.53 0 0 0-7.53-7.53 7.53 7.53 0 0 0-7.53 7.53 7.53 7.53 0 0 0 7.53 7.53 7.53 7.53 0 0 0 7.53-7.53m429.479-1.653a7.54 7.34-137.3 0 0 .563 10.507 7.54 7.34-137.3 0 0 10.519-.281 7.54 7.34-137.3 0 0-.563-10.507 7.54 7.34-137.3 0 0-10.519.281m-48.989-1.337-2.16 7.06a.498.491 24.504 0 0 .21.55l5.22 3.28a1.101 1.091 31.407 0 0 1.52-.36c2.63-4.39-.31-8.83-4.03-10.84a.53.53 22.792 0 0-.76.31m-354.646 5.698q-3.729 2.426-3.672 7.433a.379.379-17.859 0 0 .596.306q1.564-1.098 5.659-3.762 4.095-2.665 5.732-3.65a.379.379-48.247 0 0-.038-.669q-4.555-2.08-8.277.342m-55.57 4.072 3.141 8.583a2.62 2.62-7.752 0 0 3.36 1.56l1.353-.494a7.24 7.11-20.1 0 0 4.355-9.166l-.055-.15a7.24 7.11-20.1 0 0-9.242-4.189l-1.352.495a2.62 2.62-2.365 0 0-1.56 3.361m420.74 6.035 7.477 4.369a2.93 2.93-57.548 0 0 4.008-1.051l.989-1.693a7.27 7.26-59.7 0 0-2.6-9.939 7.27 7.26-59.7 0 0-9.937 2.614l-.989 1.692a2.93 2.93-38.57 0 0 1.052 4.008M800.8 385.13a7.59 7.59 0 0 0-7.59-7.59 7.59 7.59 0 0 0-7.59 7.59 7.59 7.59 0 0 0 7.59 7.59 7.59 7.59 0 0 0 7.59-7.59m-50.334-.015a7.5 7.4-163.3 0 0 5.058 9.243 7.5 7.4-163.3 0 0 9.31-4.933 7.5 7.4-163.3 0 0-5.058-9.243 7.5 7.4-163.3 0 0-9.31 4.933M241.02 387.75a7.51 7.51 0 0 0-7.51-7.51 7.51 7.51 0 0 0-7.51 7.51 7.51 7.51 0 0 0 7.51 7.51 7.51 7.51 0 0 0 7.51-7.51m68.18 6.865 12.627-7.527a.47.47-15.426 0 0 .163-.644l-.082-.138a7.43 7.39 59.2 0 0-10.152-2.598l-.739.441a7.43 7.39 59.2 0 0-2.543 10.166l.082.137a.47.47-48.475 0 0 .644.163m403.187-4.495a7.58 7.22-162.1 0 0 4.994 9.201 7.58 7.22-162.1 0 0 9.432-4.541 7.58 7.22-162.1 0 0-4.994-9.201 7.58 7.22-162.1 0 0-9.432 4.541M221.16 402.2a.438.438-42.776 0 0 .78.03q3.67-6.64-1.03-12.04a8.918 8.874 78.026 0 0-4.07-2.66l-.77-.23a1.032 1.029-3.931 0 0-1.24 1.42zm581.296-7.554q-1.795 4.007.931 8.129a.374.374-50.68 0 0 .658-.065q.71-1.747 2.68-6.147t2.802-6.094a.374.374-81.068 0 0-.389-.534q-4.891.711-6.682 4.711m-509.516 9.665 11.086-6.478a1.57 1.57 71.005 0 0 .564-2.147l-.59-1.01a7.8 7.62-30.3 0 0-10.579-2.644l-.329.191a7.8 7.62-30.3 0 0-2.889 10.515l.59 1.01a1.57 1.57 54.122 0 0 2.147.563m490.21-5.691a7.59 7.59 0 0 0-7.59-7.59 7.59 7.59 0 0 0-7.59 7.59 7.59 7.59 0 0 0 7.59 7.59 7.59 7.59 0 0 0 7.59-7.59m-52.01.841a7.56 7.29-163.8 0 0 5.226 9.11 7.56 7.29-163.8 0 0 9.294-4.892 7.56 7.29-163.8 0 0-5.226-9.11 7.56 7.29-163.8 0 0-9.294 4.892M248.07 410.15l-2.85-13.05a.63.628 53.74 0 0-1.16-.18l-1.8 3.11a2.658 2.634 56.835 0 0-.34 1.66q.68 5.76 5.88 8.66a.185.184 8.301 0 0 .27-.2m39.22-3.12a.439.438-20.859 0 0 .22-.49q-1.21-5.01-6.34-6.17a.783.783 86.462 0 0-.91 1.03q1.74 4.89 1.33 8.49a.151.151-10.691 0 0 .22.15zm509.192-3.055a7.67 7.41-60.8 0 0-10.21 3.08 7.67 7.41-60.8 0 0 2.726 10.31 7.67 7.41-60.8 0 0 10.21-3.08 7.67 7.41-60.8 0 0-2.726-10.31m-45.684 3.365a7.68 7.24-144.5 0 0 2.048 10.354 7.68 7.24-144.5 0 0 10.456-1.434 7.68 7.24-144.5 0 0-2.048-10.354 7.68 7.24-144.5 0 0-10.456 1.434m-522.822 7.532c1.403 3.881 3.924 8.173 8.704 5.246 3.189-1.953 4.754-5.92 3.415-9.626s-5.079-5.755-8.78-5.218c-5.547.805-4.741 5.716-3.339 9.598m540.782 11.173 8.239 3.912a3.03 3.03-18.253 0 0 4.037-1.437l.78-1.645a7.75 7.58-64.6 0 0-3.523-10.252l-.018-.008a7.75 7.58-64.6 0 0-10.171 3.749l-.781 1.644a3.03 3.03-23.898 0 0 1.437 4.037M269.64 416.41q-.11-.13-.37-.09-3.88.6-9.7 2.48a2.068 2.049-8.862 0 0-1.43 1.94v.66a1.122 1.116 75.665 0 0 1.66.99q4.66-2.6 9.65-5.02a.624.616 56.565 0 0 .19-.96m376.69.41q-.72 5.51-2.64 13.75c-4.41 18.89-8.26 40.51-10.63 50.46-3.3 13.83-3.85 28.96 7.95 39.19q7.1 6.17 14.99 8.98 7.27 2.6 16.45 5.32 14.9 4.4 54.62 14.93 4.16 1.11 5.16 1.05a.737.735-83.14 0 0 .66-.52l7.57-24.73a.629.627 15.406 0 0-.45-.79l-13.16-3.34a1.506 1.5 25.381 0 0-1.58.56c-2.47 3.38-6.42 6.44-10.8 5.37q-17.23-4.19-38.61-10.15-5.21-1.45-11.58-3.86-12.74-4.82-14.74-15.86-.77-4.25 1.95-18 7.69-38.91 10.65-52.53a1.644 1.642 21.093 0 0-.79-1.78l-14.43-8.34a.397.397 18.762 0 0-.59.29m-390.85 7.24c-3.83-3.93-10.31-4.61-14.09-.27a5.694 5.609-21.144 0 0-1.34 2.97l-.37 2.67a1.643 1.643-9.777 0 0 2.38 1.68l13.39-6.85a.124.122-36.808 0 0 .03-.2m536.89 3.76q-5.07.58-7.19 5.22a.832.831 27.409 0 0 .34 1.07l3.18 1.83a.632.623-64.166 0 0 .9-.32l2.92-7.6a.149.147-82.308 0 0-.15-.2m-464.36 9.95q-11.11 7.22-24.79 14.91c-5.17 2.9-10.68 5.29-15.24 7.52a.675.665-21.264 0 0-.35.78q7.26 25.36 11.19 40.66c1.85 7.22 4.33 10.7 11.14 12.89q4.58 1.47 6.06 1.48 3.27.01 10.96-1.06a.898.894 86.364 0 0 .78-.89l.5-76.15a.164.162 73.886 0 0-.25-.14m177.04 101.7c-1.44-3.04-4.05-2.87-7.53-2.53q-21.44 2.07-37.21 9.16-17.05 7.65-30.37 17.36-3.75 2.72-4.3 6.22-2.3 14.32-1.82 29.6.66 21.24 5.5 40.83 6.69 27.08 19.92 51.09 1.53 2.78 4.87 3.35 2.12.36 5.81-1.31c15.1-6.8 28.34-17.96 37.72-31.6q2.39-3.47 2.63-5.15.51-3.67-1.04-8.48c-4.73-14.67-8.5-27.72-9.92-42.96q-1.08-11.58 1.51-25c2.83-14.71 7.46-26.52 14.18-38.85a1.931 1.92 46.815 0 0 .05-1.73m112.73 77.95a1.143 1.136-68.886 0 0 1.59-.71q.54-1.91-.41-4.41c-10.58-27.91-32.02-50.71-58.96-63.92-12.28-6.03-25.06-10.64-38.47-11.58q-6.09-.43-9.2 4.61-8.77 14.19-13.05 33.13c-1.14 5.08 3.34 6.73 7.91 7.01 19.63 1.23 39.58 4.9 57.6 11.2q15.15 5.31 30.73 12.46c7.21 3.31 16.55 9.44 22.26 12.21m-201.4-40.52q-1.92 1.72-3.11 3.13c-12.58 14.88-21.5 33.08-24.57 52.7q-2.05 13.18-1.67 24.01.69 19.38 5.75 38.93 2.44 9.47 11.87 9.92 12.8.61 29.98-2.9c4.24-.86 9.29-3.84 7.55-8.67-2.64-7.3-7.83-16.02-10.9-24.53q-7.29-20.2-10.27-34.75-4.86-23.68-2.76-54.74.09-1.31-1.08-3.01a.528.524-38.304 0 0-.79-.09m92.31 73.92a4.936 4.931-15.978 0 0 2.96 1.64c20.63 3.24 40.57 8.85 58.45 20.16q23.11 14.61 39.76 35.75 3.84 4.87 8.43 2.57c3.61-1.8 5.78-7.68 7.11-11.79 5.48-16.92 6.74-33.26 6.2-52.53-.07-2.38-.59-4.28-.84-6.37-1.15-9.84-11.93-16.4-19.89-20.9q-33.22-18.8-69.4-26.51-11.01-2.34-33.85-4.18c-2.86-.23-6.35-.78-8.6.39-3.34 1.74-2.88 4.33-2.84 7.58q.26 25.27 9.71 49.49 1.05 2.68 2.8 4.7m.14 10.53c-1.73 1.34-3.04 2.58-4.58 4.4-11.52 13.66-21.77 23.4-35.23 30.76q-15.28 8.37-33.14 13.08-9.86 2.6-26.77 3.06a2.025 1.988 32.538 0 0-.71.15q-4.16 1.76-2.23 5.36 2.49 4.63 6.55 9.46c13.07 15.56 28.97 29.12 47.45 36.72q6.93 2.86 11.8 3.68a6.272 6.216-42.657 0 0 1.65.06c4.54-.42 8.27-3.01 12.62-5.1q23.89-11.43 45.05-27.06 3.36-2.47 7.28-6.01c5.05-4.55 8.26-8.66 12.55-13.95 6.05-7.46 10.28-14.1 17.17-23.73 4.18-5.84 4.09-9.86-2.14-13.85-16.18-10.38-35.44-16.07-54.6-17.83a3.911 3.883 28.406 0 0-2.72.8m-19.74 110.7q1.07 1.57 2.04 1.86 5.06 1.52 11.38 1.73 24.26.8 47.57-6.05 30.44-8.95 51.69-32.27c3.66-4.02 7.17-9.06 7.32-14.47.08-3.17-2.44-7.01-4.31-9.32q-5.96-7.35-11.69-13.22c-5.1-5.22-12.09-13.19-18.15-4.82q-4.04 5.57-10.83 15.12-2.78 3.91-11.98 14.5c-4.98 5.72-12.43 12.18-17.24 15.77q-20.27 15.14-42.99 26.26c-1.47.72-4.07 3.06-2.81 4.91m-68.25-22.79v113.52a.598.535 33.668 0 0 .07.27q1.34 2.7 4.46 6.87 13.67 18.29 24.13 30.27 7.71 8.85 24.08 25.1 5.82 5.79 15.26 13.73 9.5 8 16.18 13.04a.245.241 18.582 0 0 .39-.19V784.38a.53.53.551 0 0-.52-.53q-8.07-.15-15.98-1.88c-3.08-.67-5.15-1.73-8.02-3.14q-.56-.28-5.95-1.29c-19.6-3.69-38.68-14.8-53.58-28.51a.311.311 21.089 0 0-.52.23" data-source="https://football-logos.cc"></path><path fill="#fefefe" fill-rule="evenodd" d="M845.14 249.38a.152.144-51.17 0 1-.22.03q-19.83-16.18-40.79-29.99-3.82-2.53-18.7-11.18-10.54-6.12-19.12-10.51-47.41-24.25-99.11-39.83c-15.8-4.76-31.66-8.57-48.74-12.51q-10.33-2.38-24.48-4.82-69.05-11.86-134.57-5.85-56.43 5.17-114.09 23.58-6.3 2.02-15.68 5.49-14.54 5.38-15.57 5.79c-18.13 7.34-36.85 15.68-54.25 24.81-28.82 15.13-56.53 32.17-82.38 51.79a1.194 1.187-34.675 0 1-1.73-.31l-11.08-17.65a.494.486 55.083 0 1 .11-.65c58.24-45.57 125.93-76.91 197.33-95.23q11.68-2.99 29.6-6.78 15.43-3.26 29.9-5.26 53.03-7.31 105.93-5.21c36.99 1.47 72.89 5.23 108.8 13.4q50.82 11.57 89.55 26.72 33.84 13.24 64.87 30.36 12.1 6.67 28.5 16.99 16.72 10.52 38.66 27.86a.415.411 36.143 0 1 .09.56z"></path><path fill="#fefefe" fill-rule="evenodd" d="M517.39 180.98a7.57 7.57 0 0 1-7.57 7.57 7.57 7.57 0 0 1-7.57-7.57 7.57 7.57 0 0 1 7.57-7.57 7.57 7.57 0 0 1 7.57 7.57M538.13 181.05a7.51 7.51 0 0 1-7.51 7.51 7.51 7.51 0 0 1-7.51-7.51 7.51 7.51 0 0 1 7.51-7.51 7.51 7.51 0 0 1 7.51 7.51M496.64 181.22a7.4 7.4 0 0 1-7.4 7.4 7.4 7.4 0 0 1-7.4-7.4 7.4 7.4 0 0 1 7.4-7.4 7.4 7.4 0 0 1 7.4 7.4M558.77 181.92a7.44 7.44 0 0 1-7.44 7.44 7.44 7.44 0 0 1-7.44-7.44 7.44 7.44 0 0 1 7.44-7.44 7.44 7.44 0 0 1 7.44 7.44M476.56 182.1a7.42 7.42 0 0 1-7.42 7.42 7.42 7.42 0 0 1-7.42-7.42 7.42 7.42 0 0 1 7.42-7.42 7.42 7.42 0 0 1 7.42 7.42M580.12 183.17a7.47 7.47 0 0 1-7.47 7.47 7.47 7.47 0 0 1-7.47-7.47 7.47 7.47 0 0 1 7.47-7.47 7.47 7.47 0 0 1 7.47 7.47M456.31 183.71a7.5 7.5 0 0 1-7.5 7.5 7.5 7.5 0 0 1-7.5-7.5 7.5 7.5 0 0 1 7.5-7.5 7.5 7.5 0 0 1 7.5 7.5M601.87 185.68a7.54 7.54 0 0 1-7.54 7.54 7.54 7.54 0 0 1-7.54-7.54 7.54 7.54 0 0 1 7.54-7.54 7.54 7.54 0 0 1 7.54 7.54M435.32 186.56a7.41 7.41 0 0 1-7.41 7.41 7.41 7.41 0 0 1-7.41-7.41 7.41 7.41 0 0 1 7.41-7.41 7.41 7.41 0 0 1 7.41 7.41M623.45 189.49a7.49 7.49 0 0 1-7.49 7.49 7.49 7.49 0 0 1-7.49-7.49 7.49 7.49 0 0 1 7.49-7.49 7.49 7.49 0 0 1 7.49 7.49M414.51 190.77a7.41 7.41 0 0 1-7.41 7.41 7.41 7.41 0 0 1-7.41-7.41 7.41 7.41 0 0 1 7.41-7.41 7.41 7.41 0 0 1 7.41 7.41M645.52 193.57a7.62 7.62 0 0 1-7.62 7.62 7.62 7.62 0 0 1-7.62-7.62 7.62 7.62 0 0 1 7.62-7.62 7.62 7.62 0 0 1 7.62 7.62M394.463 193.886a7.53 7.3-8.2 0 1-6.412 8.299 7.53 7.3-8.2 0 1-8.494-6.151 7.53 7.3-8.2 0 1 6.412-8.299 7.53 7.3-8.2 0 1 8.494 6.151M666.7 198.4a7.56 7.56 0 0 1-7.56 7.56 7.56 7.56 0 0 1-7.56-7.56 7.56 7.56 0 0 1 7.56-7.56 7.56 7.56 0 0 1 7.56 7.56M374.522 196.93a7.59 7.43-22.3 0 1-4.203 9.754 7.59 7.43-22.3 0 1-9.841-3.994 7.59 7.43-22.3 0 1 4.203-9.754 7.59 7.43-22.3 0 1 9.841 3.994M524.212 202.884a1.05 1.05 37.99 0 1-.928-1.159l.108-.974a7.14 7.01 6.3 0 1 7.866-6.184l.556.061a7.14 7.01 6.3 0 1 6.328 7.751l-.108.974a1.05 1.05-46.161 0 1-1.158.929zM493.54 209.31q-.01-2.13-.4-4.93c-.66-4.72-7.19-3.78-10.68-3.5a.67.665 8.43 0 1-.68-.91q2.4-6.02 9.18-4.93c7.05 1.14 8.38 10.22 3.22 14.57a.391.39-19.842 0 1-.64-.3M515.508 206.063c-1.223 1.993-1.752 4.332-5.024 4.364-6.284.062-10.144-6.267-6.846-11.644s10.689-4.805 13.483.824c1.454 2.932-.391 4.464-1.613 6.456M469.561 200.939q-3.615.005-6.81.251a.487.485 7.8 0 1-.495-.648c1.131-3.156 3.931-4.955 7.297-4.96s6.171 1.786 7.311 4.938a.487.485-7.972 0 1-.493.65q-3.196-.237-6.81-.231M544.86 205.851a2.52 2.52 60.023 0 1-1.782-3.086l.243-.908a7.92 7.77-75 0 1 9.555-5.639l.193.052a7.92 7.77-75 0 1 5.456 9.661l-.244.908a2.52 2.52 55.969 0 1-3.086 1.782zM686.92 203.99a7.62 7.62 0 0 1-7.62 7.62 7.62 7.62 0 0 1-7.62-7.62 7.62 7.62 0 0 1 7.62-7.62 7.62 7.62 0 0 1 7.62 7.62M448.642 204.359c-1.979 1.607-3.183 4.369-4.181 6.745a.547.546-55.648 0 1-.893.169c-3.183-3.273-2.31-9.13 1.058-11.863s9.28-2.382 11.827 1.406a.547.546-22.473 0 1-.35.84c-2.53.487-5.481 1.096-7.461 2.703M576.102 198.562a7.65 7.52-60.8 0 1 2.832 10.347 7.65 7.52-60.8 0 1-10.296 3.009 7.65 7.52-60.8 0 1-2.832-10.347 7.65 7.52-60.8 0 1 10.296-3.009M355.91 205.8a7.53 7.53 0 0 1-7.53 7.53 7.53 7.53 0 0 1-7.53-7.53 7.53 7.53 0 0 1 7.53-7.53 7.53 7.53 0 0 1 7.53 7.53M601.63 207.38a7.79 7.79 0 0 1-7.79 7.79 7.79 7.79 0 0 1-7.79-7.79 7.79 7.79 0 0 1 7.79-7.79 7.79 7.79 0 0 1 7.79 7.79M430.632 201.147a7.63 7.51-73.7 0 1 5.066 9.431 7.63 7.51-73.7 0 1-9.349 5.215 7.63 7.51-73.7 0 1-5.067-9.431 7.63 7.51-73.7 0 1 9.35-5.215M706.85 210.55a7.48 7.48 0 0 1-7.48 7.48 7.48 7.48 0 0 1-7.48-7.48 7.48 7.48 0 0 1 7.48-7.48 7.48 7.48 0 0 1 7.48 7.48M608.231 209.923a7.69 7.41-169 0 1 8.963-5.807 7.69 7.41-169 0 1 6.135 8.741 7.69 7.41-169 0 1-8.963 5.807 7.69 7.41-169 0 1-6.135-8.741M337.1 211.93a7.54 7.54 0 0 1-7.54 7.54 7.54 7.54 0 0 1-7.54-7.54 7.54 7.54 0 0 1 7.54-7.54 7.54 7.54 0 0 1 7.54 7.54M414.99 212.42a7.51 7.51 0 0 1-7.51 7.51 7.51 7.51 0 0 1-7.51-7.51 7.51 7.51 0 0 1 7.51-7.51 7.51 7.51 0 0 1 7.51 7.51M451.24 260.94q-.2-20.43-.13-46.23.01-3.59 3.27-5.12c3.3-1.54 5.74-1.54 9.15-1.62q9.77-.22 17.71-.11 2.36.03 3.75.26a2.228 2.221-70.319 0 1 1.56 3.31c-4.4 7.6-8.58 16.04-14.2 23.51q-12.83 17.05-20.18 26.24-.12.15-.31.21a.479.478 80.918 0 1-.62-.45M636.242 208.066a7.65 7.47-101.6 0 1 8.855 5.992 7.65 7.47-101.6 0 1-5.779 8.996 7.65 7.47-101.6 0 1-8.855-5.992 7.65 7.47-101.6 0 1 5.779-8.996M394.86 216.78a7.47 7.47 0 0 1-7.47 7.47 7.47 7.47 0 0 1-7.47-7.47 7.47 7.47 0 0 1 7.47-7.47 7.47 7.47 0 0 1 7.47 7.47M726.95 218.2a7.54 7.54 0 0 1-7.54 7.54 7.54 7.54 0 0 1-7.54-7.54 7.54 7.54 0 0 1 7.54-7.54 7.54 7.54 0 0 1 7.54 7.54M469.49 331.38a.2.199-24.5 0 1 .35.13v74.11a1.213 1.081 41.709 0 0 .03.26q1.77 6.67 8.45 6.75 32.19.42 59.74.19c6.76-.06 12.56-2.28 15.19-9q1.94-4.93 1.94-9.32.12-122.19.25-145.72c.02-4.25-.25-11.88-5.94-12.91-3.98-.71-8.58-2.4-11.67-3.71-7.82-3.31-11.71-11.89-14.5-19.65a1.243 1.239 80.945 0 1 1.2-1.66q14.42.41 27.97 4.61c12.22 3.79 22.2 12.37 23.98 25.55q.84 6.2.81 10.99-.19 31 .36 67.49c.42 27.72-.3 58.16-.84 85.01-.13 6.24-1.77 15.39-6.41 19.97-5.86 5.79-12.25 6.92-20.07 6.94q-51.92.16-99.31.11a.48.48-54.471 0 1-.48-.48v-77.9a1.127 1.091 66.232 0 1 .27-.73zM318.54 218.99a7.5 7.5 0 0 1-7.5 7.5 7.5 7.5 0 0 1-7.5-7.5 7.5 7.5 0 0 1 7.5-7.5 7.5 7.5 0 0 1 7.5 7.5M666.46 220.41a7.62 7.62 0 0 1-7.62 7.62 7.62 7.62 0 0 1-7.62-7.62 7.62 7.62 0 0 1 7.62-7.62 7.62 7.62 0 0 1 7.62 7.62M375.522 220.178a7.69 7.44-9.6 0 1-6.341 8.618 7.69 7.44-9.6 0 1-8.823-6.054 7.69 7.44-9.6 0 1 6.341-8.618 7.69 7.44-9.6 0 1 8.823 6.054M686.74 226.52a7.62 7.62 0 0 1-7.62 7.62 7.62 7.62 0 0 1-7.62-7.62 7.62 7.62 0 0 1 7.62-7.62 7.62 7.62 0 0 1 7.62 7.62M745.95 226.75a7.45 7.45 0 0 1-7.45 7.45 7.45 7.45 0 0 1-7.45-7.45 7.45 7.45 0 0 1 7.45-7.45 7.45 7.45 0 0 1 7.45 7.45M299.91 226.96a7.43 7.43 0 0 1-7.43 7.43 7.43 7.43 0 0 1-7.43-7.43 7.43 7.43 0 0 1 7.43-7.43 7.43 7.43 0 0 1 7.43 7.43M493.88 221.86l-6.99 11.12a2.59 2.583 24.469 0 1-2.95 1.1l-.39-.12a1.815 1.815 19.466 0 1-1.31-2.74l6.08-9.98a3.157 3.153-69.091 0 1 3.26-1.46l1.51.28a1.192 1.19-68.748 0 1 .79 1.8"></path><path fill="#fefefe" fill-rule="evenodd" d="M510.15 223.11a1.915 1.915-19.104 0 1 1.51-3.11h1.26a4.28 4.28 17.736 0 1 3.36 1.68q3.54 4.64 2.04 9.24a.976.973 34.823 0 1-1.69.3zM356.37 227.65a7.51 7.51 0 0 1-7.51 7.51 7.51 7.51 0 0 1-7.51-7.51 7.51 7.51 0 0 1 7.51-7.51 7.51 7.51 0 0 1 7.51 7.51M601.33 232.28a7.59 7.59 0 0 1-7.59 7.59 7.59 7.59 0 0 1-7.59-7.59 7.59 7.59 0 0 1 7.59-7.59 7.59 7.59 0 0 1 7.59 7.59M436.64 232.7a7.54 7.54 0 0 1-7.54 7.54 7.54 7.54 0 0 1-7.54-7.54 7.54 7.54 0 0 1 7.54-7.54 7.54 7.54 0 0 1 7.54 7.54M444.383 236.106a.11.11-45 0 1-.111.11l-.05-.001a5.21 2.28-89.7 0 1-2.253-5.221l.002-.2a5.21 2.28-89.7 0 1 2.307-5.198h.05a.11.11 49.4 0 1 .109.11zM706.9 233.39a7.49 7.49 0 0 1-7.49 7.49 7.49 7.49 0 0 1-7.49-7.49 7.49 7.49 0 0 1 7.49-7.49 7.49 7.49 0 0 1 7.49 7.49M337.36 233.96a7.47 7.47 0 0 1-7.47 7.47 7.47 7.47 0 0 1-7.47-7.47 7.47 7.47 0 0 1 7.47-7.47 7.47 7.47 0 0 1 7.47 7.47M523.34 228.15a.178.176 31.942 0 1 .31-.07l5.99 7.5a.261.261 69.42 0 1-.19.42q-.63.03-3.2-1.13-4.04-1.83-2.91-6.72M607.941 235.594a7.62 7.46-179.2 0 1 7.723-7.353 7.62 7.46-179.2 0 1 7.515 7.565 7.62 7.46-179.2 0 1-7.723 7.353 7.62 7.46-179.2 0 1-7.515-7.565M281.55 236.45a7.52 7.52 0 0 1-7.52 7.52 7.52 7.52 0 0 1-7.52-7.52 7.52 7.52 0 0 1 7.52-7.52 7.52 7.52 0 0 1 7.52 7.52M415.43 236.69a7.45 7.45 0 0 1-7.45 7.45 7.45 7.45 0 0 1-7.45-7.45 7.45 7.45 0 0 1 7.45-7.45 7.45 7.45 0 0 1 7.45 7.45M765.02 236.92a7.48 7.48 0 0 1-7.48 7.48 7.48 7.48 0 0 1-7.48-7.48 7.48 7.48 0 0 1 7.48-7.48 7.48 7.48 0 0 1 7.48 7.48M644.97 239.95a7.51 7.51 0 0 1-7.51 7.51 7.51 7.51 0 0 1-7.51-7.51 7.51 7.51 0 0 1 7.51-7.51 7.51 7.51 0 0 1 7.51 7.51M395.33 241.02a7.45 7.45 0 0 1-7.45 7.45 7.45 7.45 0 0 1-7.45-7.45 7.45 7.45 0 0 1 7.45-7.45 7.45 7.45 0 0 1 7.45 7.45M727 241.31a7.63 7.63 0 0 1-7.63 7.63 7.63 7.63 0 0 1-7.63-7.63 7.63 7.63 0 0 1 7.63-7.63 7.63 7.63 0 0 1 7.63 7.63M318.717 239.845a7.59 7.35-11.9 0 1-5.911 8.757 7.59 7.35-11.9 0 1-8.943-5.627 7.59 7.35-11.9 0 1 5.911-8.757 7.59 7.35-11.9 0 1 8.943 5.627M666.23 245.28a7.58 7.58 0 0 1-7.58 7.58 7.58 7.58 0 0 1-7.58-7.58 7.58 7.58 0 0 1 7.58-7.58 7.58 7.58 0 0 1 7.58 7.58M375.71 246.22a7.52 7.52 0 0 1-7.52 7.52 7.52 7.52 0 0 1-7.52-7.52 7.52 7.52 0 0 1 7.52-7.52 7.52 7.52 0 0 1 7.52 7.52M263.08 247.13a7.6 7.6 0 0 1-7.6 7.6 7.6 7.6 0 0 1-7.6-7.6 7.6 7.6 0 0 1 7.6-7.6 7.6 7.6 0 0 1 7.6 7.6M783.59 247.69a7.46 7.46 0 0 1-7.46 7.46 7.46 7.46 0 0 1-7.46-7.46 7.46 7.46 0 0 1 7.46-7.46 7.46 7.46 0 0 1 7.46 7.46M300.2 249.83a7.47 7.47 0 0 1-7.47 7.47 7.47 7.47 0 0 1-7.47-7.47 7.47 7.47 0 0 1 7.47-7.47 7.47 7.47 0 0 1 7.47 7.47M734.163 243.863a7.51 7.31-126.5 0 1 10.343 1.689 7.51 7.31-126.5 0 1-1.409 10.385 7.51 7.31-126.5 0 1-10.343-1.689 7.51 7.31-126.5 0 1 1.409-10.385M527.33 244.287a.11.11-6.027 0 1 .018-.154l.055-.044a6.86 4.76 51.7 0 1 7.987 2.434l.137.172a6.86 4.76 51.7 0 1 .516 8.334l-.055.044a.11.11-2.818 0 1-.155-.019zM686.66 250.97a7.65 7.65 0 0 1-7.65 7.65 7.65 7.65 0 0 1-7.65-7.65 7.65 7.65 0 0 1 7.65-7.65 7.65 7.65 0 0 1 7.65 7.65M609.58 852.37a.174.173 66.671 0 1-.3-.12l.73-112.89a2.68 2.595 55.386 0 1 .12-.72c.39-1.16 1.94-2.34 2.62-3.38q4.22-6.48 10.54-14.16 2.89-3.51 7.01-12.52 3.3-7.22 6.7-22.23 2.49-11.02 2.74-29.29c.09-6.33-.51-13.71-1.68-18.13q-1.54-5.83-5.62-11.73-1.52-2.2-1.97-4.42c-3.11-15.36-10.48-30-19.3-42.68a3.7 3.663 27.847 0 1-.66-2.1V385.58a1.902 1.898-70.858 0 0-.72-1.49l-24.74-19.58a1.108 1.098-70.746 0 1-.41-.86v-32.68a.458.456 20.778 0 1 .76-.34c31.38 27.65 66.42 51.81 102.09 73.87 9.34 5.78 23.41 14.06 36.15 20.68q20.63 10.73 24.59 12.6 24.46 11.54 43.62 19.34a.789.788-78.915 0 1 .49.73q.58 48.5-7.65 98.14c-16.58 100.09-59.17 195.71-118.58 278.37q-37.8 52.6-85.26 96.73-19.54 18.16-40.73 33.76-16.82 12.39-33.79 21.46a1.484 1.454 43.983 0 1-1.36.01q-3.76-1.91-9.37-5.7-3.5-2.36-20.55-15.95-13.56-10.8-32.45-29.77-41.48-41.68-78.98-94.03-35.63-49.72-62.34-101.12c-35.2-67.73-59.97-143.03-67.23-218.29q-3.1-32.18-2.34-64.79a.787.774 78.799 0 1 .46-.7q20.85-9.79 28.27-13.31 14.35-6.82 32.98-17.26 42.26-23.68 80.54-51.96 32.51-24.02 59.39-50.09c7.2-6.97 16.22-15.63 24.38-24.53q9.93-10.82 11.37-12.46 13.65-15.46 23.71-29.53 5.63-7.87 9.37-12.78a.526.517-44.497 0 1 .84 0q5.44 7.44 12.05 15.89 9.46 12.1 21.98 24.51 9.16 9.09 12.22 11.82a1.109 1.091 21.164 0 1 .37.82v28.92a.357.357-69.584 0 1-.59.27q-24.92-21.49-45.42-43.87a.642.639-49.946 0 0-1.01.09l-7.63 12.16a.277.275 25.091 0 0 .15.41l6.58 2.01a.754.75 8.301 0 1 .54.72q0 10.29.28 92.88.03 7.6-.51 9.06c-2.04 5.48-8.19 5.94-13.79 6.11q-4.46.13-6.84-1.07-4.62-2.34-5.25-8.18c-.61-5.61-.11-11.34-.1-17.43q.05-35.95.04-64.5a.316.314 69.647 0 0-.52-.24q-1.34 1.18-1.62 1.53-14.19 18.04-30.09 33.17a.848.841 68.747 0 0-.27.62v88.31a.72.72-45 0 0 .72.72h58.53a1.05 1.05 45 0 1 1.05 1.05v88.33a.62.62-.47 0 1-.61.62c-27.67.2-55.03 10.68-76.93 27.32q-2.6 1.97-4.63 4.46a.464.456-25.683 0 1-.82-.28V367a.108.107 68.581 0 0-.18-.08q-7.21 6.44-18.38 15.19c-28.98 22.7-60.08 41.1-91.94 59.3-10.05 5.73-20.04 10.51-29.15 15.64a.585.579-20.604 0 0-.29.63q.85 4.13 1.11 4.97 5.51 17.75 10.41 38.33 2.52 10.59 4.47 13.02 4.75 5.9 12.3 7.51 5.22 1.12 11.59-.05 4.69-.86 45.98-8.75c2.98-.57 5.24-.65 6.44-3.9q2.42-6.53 3.02-7.56c.79-1.37 2.51-1.41 4.05-1.73q2.81-.59 7.38-1.2a.638.635 81.605 0 1 .71.53l4.3 24.94a.489.487-10.252 0 1-.39.56c-11.54 2.19-23.82 3.36-36.84 5.57q-10.99 1.87-41.2 7.12-18.88 3.29-31.83-11.22-1.77-1.98-2.68-6.32-6.52-31.11-13.25-55.47a.319.316 65.27 0 0-.48-.18q-2.15 1.44-4.59 1.99a.461.459-12.185 0 0-.35.54q2.8 12.93 6.21 25.52c3.13 11.58 4.87 20.8 7.5 32.75q1.27 5.72 6 9.32 9.57 7.26 22.02 9.38 4.58.78 10.88-.2 4.55-.71 11.36-1.48a.708.704-2.943 0 1 .78.7v182.29a.317.316 31.838 0 1-.6.14q-12.73-25.88-21.83-46.15-6.17-13.73-14.43-35.84-16.48-44.1-24.63-88.37-1.73-9.38-5.59-38.7-3.15-23.92-3.89-45.99a.516.513-11.881 0 0-.71-.46l-3.76 1.52a.968.963 79.44 0 0-.6.88q-.09 4.2.06 7.81.94 23.14 3.12 40.85 1.85 15 4.72 32.51 5.3 32.44 16.15 67.1 8.93 28.54 19.54 53.4c29.14 68.22 68.12 132.79 113.05 191.68 28.45 37.29 60.78 72.54 98.76 100.3a.69.69-22.234 0 0 .82 0q21.63-15.7 42.94-34.11c33.92-29.31 65.42-64.58 94.37-102.6q34.09-44.77 60.15-94.33 18.85-35.84 36.2-82.32 3.42-9.15 11.24-35.99 11.41-39.14 17.01-78.25 1.37-9.58 3.18-30.25 1.48-16.85 1.28-32.41a.838.827 12.02 0 0-.5-.76q-43.4-19.04-84.48-41a.546.544 13.909 0 0-.8.48v78.41a.521.518-83.781 0 1-.63.51q-10.35-2.23-18.91-6.51c-4.19-2.1-6.43-6.9-9.01-11.39q-1.85-3.22-.89-8.6 2.79-15.58 9.06-46.69c1.08-5.39 2.47-10.55 2.89-15.76a1.918 1.912 19.733 0 0-.82-1.73l-26.74-18.64a.551.545 23.451 0 0-.85.33q-.97 4.34-6.03 29.41-4.74 23.46-9.73 47.09c-2.37 11.23-2.78 23.55 1.62 33.97q4.66 11.02 14.65 18.07 1.84 1.3 12.2 4.82 6.13 2.09 32.51 9.46a.983.973 7.84 0 1 .72.94v192.66a2.358 2.263-33.521 0 1-.22.98q-2.46 5.14-6.27 12.06c-19.77 35.86-42.81 69.53-70.6 99.18M356.74 252.04a7.65 7.65 0 0 1-7.65 7.65 7.65 7.65 0 0 1-7.65-7.65 7.65 7.65 0 0 1 7.65-7.65 7.65 7.65 0 0 1 7.65 7.65M548.48 245.56q.2.41.46 2.24.88 6.23.37 11.44a2.218 2.213 25.768 0 1-3.8 1.32l-1.87-1.93a6.111 6.042 18.105 0 1-1.6-3.11q-1.26-6.74 4.53-10.48a1.335 1.331 60.139 0 1 1.91.52M466.404 259.453a1.86 1.86 0 0 1-2.612.307l-.095-.075a1.86 1.86 0 0 1-.306-2.612l8.565-10.846a1.86 1.86 0 0 1 2.612-.307l.095.075a1.86 1.86 0 0 1 .306 2.612zM592.01 249.284a7.7 7.6-100.7 0 1 8.898 6.155 7.7 7.6-100.7 0 1-6.038 8.977 7.7 7.6-100.7 0 1-8.898-6.155 7.7 7.6-100.7 0 1 6.038-8.977M431.251 250.14a7.74 7.6-75.4 0 1 5.404 9.406 7.74 7.6-75.4 0 1-9.306 5.574 7.74 7.6-75.4 0 1-5.404-9.406 7.74 7.6-75.4 0 1 9.306-5.574M443.866 259.977a.11.11 44.9 0 1-.11.111h-.06a4.61 1.31 89.8 0 1-1.326-4.605v-.22a4.61 1.31 89.8 0 1 1.294-4.615h.06a.11.11-58.977 0 1 .11.109zM706.66 258.07a7.46 7.46 0 0 1-7.46 7.46 7.46 7.46 0 0 1-7.46-7.46 7.46 7.46 0 0 1 7.46-7.46 7.46 7.46 0 0 1 7.46 7.46M244.455 256.623a7.7 7.49-14.8 0 1-5.532 9.209 7.7 7.49-14.8 0 1-9.358-5.275 7.7 7.49-14.8 0 1 5.532-9.209 7.7 7.49-14.8 0 1 9.358 5.275M337.88 258.55a7.52 7.52 0 0 1-7.52 7.52 7.52 7.52 0 0 1-7.52-7.52 7.52 7.52 0 0 1 7.52-7.52 7.52 7.52 0 0 1 7.52 7.52M800.951 256.467a7.58 7.4-19.6 0 1-4.659 9.514 7.58 7.4-19.6 0 1-9.623-4.428 7.58 7.4-19.6 0 1 4.659-9.514 7.58 7.4-19.6 0 1 9.623 4.428M282.144 258.688a7.63 7.36-3.7 0 1-7.139 7.837 7.63 7.36-3.7 0 1-8.089-6.853 7.63 7.36-3.7 0 1 7.139-7.837 7.63 7.36-3.7 0 1 8.089 6.853M607.882 259.551a7.62 7.43-171.1 0 1 8.678-6.162 7.62 7.43-171.1 0 1 6.378 8.52 7.62 7.43-171.1 0 1-8.678 6.162 7.62 7.43-171.1 0 1-6.378-8.52M751.44 256.475a7.5 7.35-145.9 0 1 10.331-1.881 7.5 7.35-145.9 0 1 2.089 10.291 7.5 7.35-145.9 0 1-10.331 1.881 7.5 7.35-145.9 0 1-2.089-10.291M415.67 261.49a7.39 7.39 0 0 1-7.39 7.39 7.39 7.39 0 0 1-7.39-7.39 7.39 7.39 0 0 1 7.39-7.39 7.39 7.39 0 0 1 7.39 7.39M645.12 264.85a7.5 7.5 0 0 1-7.5 7.5 7.5 7.5 0 0 1-7.5-7.5 7.5 7.5 0 0 1 7.5-7.5 7.5 7.5 0 0 1 7.5 7.5M386.777 258.122a7.61 7.39-100.7 0 1 8.675 6.106 7.61 7.39-100.7 0 1-5.849 8.85 7.61 7.39-100.7 0 1-8.675-6.106 7.61 7.39-100.7 0 1 5.849-8.85M318.9 266.29a7.51 7.51 0 0 1-7.51 7.51 7.51 7.51 0 0 1-7.51-7.51 7.51 7.51 0 0 1 7.51-7.51 7.51 7.51 0 0 1 7.51 7.51M711.869 265.499a7.63 7.48-174.2 0 1 8.347-6.671 7.63 7.48-174.2 0 1 6.835 8.213 7.63 7.48-174.2 0 1-8.347 6.671 7.63 7.48-174.2 0 1-6.835-8.213M666.3 269.96a7.65 7.65 0 0 1-7.65 7.65 7.65 7.65 0 0 1-7.65-7.65 7.65 7.65 0 0 1 7.65-7.65 7.65 7.65 0 0 1 7.65 7.65M263.28 267.839a7.69 7.45-17.1 0 1-5.159 9.382 7.69 7.45-17.1 0 1-9.541-4.86 7.69 7.45-17.1 0 1 5.159-9.382 7.69 7.45-17.1 0 1 9.541 4.86M376.24 270.67a7.59 7.59 0 0 1-7.59 7.59 7.59 7.59 0 0 1-7.59-7.59 7.59 7.59 0 0 1 7.59-7.59 7.59 7.59 0 0 1 7.59 7.59M223.52 265.333a7.5 7.31-51.1 0 1 .979 10.427 7.5 7.31-51.1 0 1-10.399 1.247 7.5 7.31-51.1 0 1-.979-10.427 7.5 7.31-51.1 0 1 10.399-1.247M818.301 268.845a7.64 7.48-19.3 0 1-4.739 9.585 7.64 7.48-19.3 0 1-9.683-4.535 7.64 7.48-19.3 0 1 4.739-9.585 7.64 7.48-19.3 0 1 9.683 4.535M783.26 271.65a7.55 7.55 0 0 1-7.55 7.55 7.55 7.55 0 0 1-7.55-7.55 7.55 7.55 0 0 1 7.55-7.55 7.55 7.55 0 0 1 7.55 7.55M300.201 272.271a7.47 7.36-20.2 0 1-4.47 9.486 7.47 7.36-20.2 0 1-9.552-4.328 7.47 7.36-20.2 0 1 4.47-9.486 7.47 7.36-20.2 0 1 9.552 4.328M686.36 275.78a7.61 7.61 0 0 1-7.61 7.61 7.61 7.61 0 0 1-7.61-7.61 7.61 7.61 0 0 1 7.61-7.61 7.61 7.61 0 0 1 7.61 7.61M745.9 275.6a7.46 7.46 0 0 1-7.46 7.46 7.46 7.46 0 0 1-7.46-7.46 7.46 7.46 0 0 1 7.46-7.46 7.46 7.46 0 0 1 7.46 7.46M357.22 276.59a7.62 7.62 0 0 1-7.62 7.62 7.62 7.62 0 0 1-7.62-7.62 7.62 7.62 0 0 1 7.62-7.62 7.62 7.62 0 0 1 7.62 7.62M444.446 285.214a.11.11 83.133 0 1-.155.005l-.029-.027a7.69 7.47-47 0 1-.219-10.718l.041-.044a7.69 7.47-47 0 1 10.708-.53l.029.027a.11.11-2.563 0 1 .005.156zM600.98 281.46a7.59 7.59 0 0 1-7.59 7.59 7.59 7.59 0 0 1-7.59-7.59 7.59 7.59 0 0 1 7.59-7.59 7.59 7.59 0 0 1 7.59 7.59M245.34 282.1a7.5 7.5 0 0 1-7.5 7.5 7.5 7.5 0 0 1-7.5-7.5 7.5 7.5 0 0 1 7.5-7.5 7.5 7.5 0 0 1 7.5 7.5M430.524 274.749a7.64 7.48-82.9 0 1 6.479 8.506 7.64 7.48-82.9 0 1-8.367 6.656 7.64 7.48-82.9 0 1-6.479-8.506 7.64 7.48-82.9 0 1 8.367-6.656M706.64 282.61a7.48 7.48 0 0 1-7.48 7.48 7.48 7.48 0 0 1-7.48-7.48 7.48 7.48 0 0 1 7.48-7.48 7.48 7.48 0 0 1 7.48 7.48M338.32 283.21a7.53 7.53 0 0 1-7.53 7.53 7.53 7.53 0 0 1-7.53-7.53 7.53 7.53 0 0 1 7.53-7.53 7.53 7.53 0 0 1 7.53 7.53M800.709 281.27a7.62 7.34-16.7 0 1-5.19 9.22 7.62 7.34-16.7 0 1-9.408-4.84 7.62 7.34-16.7 0 1 5.19-9.22 7.62 7.34-16.7 0 1 9.408 4.84M282.5 283.97a7.43 7.43 0 0 1-7.43 7.43 7.43 7.43 0 0 1-7.43-7.43 7.43 7.43 0 0 1 7.43-7.43 7.43 7.43 0 0 1 7.43 7.43M608.906 280.892a7.64 7.48-144.3 0 1 10.569-1.616 7.64 7.48-144.3 0 1 1.839 10.532 7.64 7.48-144.3 0 1-10.569 1.616 7.64 7.48-144.3 0 1-1.839-10.532M834.59 285.01a7.38 7.38 0 0 1-7.38 7.38 7.38 7.38 0 0 1-7.38-7.38 7.38 7.38 0 0 1 7.38-7.38 7.38 7.38 0 0 1 7.38 7.38M207.508 281.055a7.56 7.35-34.8 0 1-2.013 10.35 7.56 7.35-34.8 0 1-10.403-1.72 7.56 7.35-34.8 0 1 2.013-10.35 7.56 7.35-34.8 0 1 10.403 1.72M751.878 280.869a7.61 7.49-137.4 0 1 10.672-.362 7.61 7.49-137.4 0 1 .532 10.664 7.61 7.49-137.4 0 1-10.672.362 7.61 7.49-137.4 0 1-.532-10.664M413.568 280.254a7.57 7.41-52.5 0 1 1.271 10.517 7.57 7.41-52.5 0 1-10.487 1.495 7.57 7.41-52.5 0 1-1.271-10.517 7.57 7.41-52.5 0 1 10.487-1.495M644.86 289.76a7.66 7.66 0 0 1-7.66 7.66 7.66 7.66 0 0 1-7.66-7.66 7.66 7.66 0 0 1 7.66-7.66 7.66 7.66 0 0 1 7.66 7.66M396.26 290.42a7.45 7.45 0 0 1-7.45 7.45 7.45 7.45 0 0 1-7.45-7.45 7.45 7.45 0 0 1 7.45-7.45 7.45 7.45 0 0 1 7.45 7.45M319.36 290.82a7.55 7.55 0 0 1-7.55 7.55 7.55 7.55 0 0 1-7.55-7.55 7.55 7.55 0 0 1 7.55-7.55 7.55 7.55 0 0 1 7.55 7.55M713.188 293.572a2.52 2.52-75.096 0 1-1.925-2.999l.181-.83a7.67 7.55 12.3 0 1 9.102-5.743l.234.051a7.67 7.55 12.3 0 1 5.886 9.011l-.181.83a2.52 2.52 54.977 0 1-2.999 1.925zM666.04 294.49a7.67 7.67 0 0 1-7.67 7.67 7.67 7.67 0 0 1-7.67-7.67 7.67 7.67 0 0 1 7.67-7.67 7.67 7.67 0 0 1 7.67 7.67M263.548 290.935a7.7 7.53-29.1 0 1-3.066 10.324 7.7 7.53-29.1 0 1-10.39-2.834 7.7 7.53-29.1 0 1 3.066-10.325 7.7 7.53-29.1 0 1 10.39 2.835M227.16 295.05a7.44 7.44 0 0 1-7.44 7.44 7.44 7.44 0 0 1-7.44-7.44 7.44 7.44 0 0 1 7.44-7.44 7.44 7.44 0 0 1 7.44 7.44M377.03 295.43a7.63 7.63 0 0 1-7.63 7.63 7.63 7.63 0 0 1-7.63-7.63 7.63 7.63 0 0 1 7.63-7.63 7.63 7.63 0 0 1 7.63 7.63M818.46 296.41a7.45 7.45 0 0 1-7.45 7.45 7.45 7.45 0 0 1-7.45-7.45 7.45 7.45 0 0 1 7.45-7.45 7.45 7.45 0 0 1 7.45 7.45M783.23 297.1a7.62 7.62 0 0 1-7.62 7.62 7.62 7.62 0 0 1-7.62-7.62 7.62 7.62 0 0 1 7.62-7.62 7.62 7.62 0 0 1 7.62 7.62M849.95 298.26a7.45 7.45 0 0 1-7.45 7.45 7.45 7.45 0 0 1-7.45-7.45 7.45 7.45 0 0 1 7.45-7.45 7.45 7.45 0 0 1 7.45 7.45M192.69 299.2a7.44 7.44 0 0 1-7.44 7.44 7.44 7.44 0 0 1-7.44-7.44 7.44 7.44 0 0 1 7.44-7.44 7.44 7.44 0 0 1 7.44 7.44M300.89 299.27a7.44 7.44 0 0 1-7.44 7.44 7.44 7.44 0 0 1-7.44-7.44 7.44 7.44 0 0 1 7.44-7.44 7.44 7.44 0 0 1 7.44 7.44M671.06 301.26a.268.267 56.985 0 1-.51-.11c-.09-5.64 2.59-10.01 9.2-8.69a.403.4-49.644 0 1 .06.77q-6.1 2.26-8.75 8.03M739.786 293.311c3.214.784 5.473 3.151 5.823 6.427a.479.477 5.824 0 1-.623.505q-2.996-.975-6.448-1.817t-6.56-1.356a.479.477 21.596 0 1-.321-.736c1.82-2.747 4.915-3.807 8.129-3.023M343.62 297.11a.272.272 12.34 0 1-.27-.42c3.61-5.41 11.38-4.36 13.84 1.23q2.22 5.03-1.53 9.02a1.095 1.095 55.31 0 1-1.81-.33c-2.18-5.24-2.79-10.6-10.23-9.5"></path><path fill="#fefefe" fill-rule="evenodd" d="m786.47 346.43-9.35-1.26a1.35 1.341 1.877 0 1-1.16-1.23c-.36-5.11-2.78-11.94-7.28-14.78q-1.22-.77-4-1.32-22.01-4.32-62.73-13.03c-9.18-1.97-12.89 7.01-14.74 14.67q-7.14 29.59-10.25 41.97-.26 1.07-.94 3.08a.508.506 25.768 0 1-.75.26l-15.31-9.61a1.145 1.133 21.928 0 1-.51-1.18c2.53-13.35 6.18-26.76 9.69-40.12 2.94-11.18 7.3-24.94 20.63-26.91q3.24-.48 10.84 1.11 8.67 1.83 10.74 2.22 22.78 4.33 70.42 14.33 5.83 1.23 8.38 1.99a2.034 2.034 12.512 0 1 1.44 2.26l-4.24 26.9a.779.778-81.395 0 1-.88.65M175.05 305.15a.246.245 34.741 0 1-.45.08l-3.79-6.02a.936.933 74.005 0 1 .79-1.43h.66a2.679 2.675-8.517 0 1 2.56 1.89q.79 2.6.23 5.48M246.271 305.562a7.72 7.49-8.7 0 1-6.498 8.572 7.72 7.49-8.7 0 1-8.764-6.236 7.72 7.49-8.7 0 1 6.498-8.572 7.72 7.49-8.7 0 1 8.764 6.236M426.586 303.985q-1.877 1.83-3.477 3.859a.427.426-26.397 0 1-.761-.255q-.066-3.39 2.247-5.645t5.699-2.105a.427.426-62.166 0 1 .236.768q-2.068 1.549-3.944 3.378M332.659 300.177a3.02.64-19.4 0 1-2.636 1.607 3.02.64-19.4 0 1-3.062.399 3.02.64-19.4 0 1 2.636-1.607 3.02.64-19.4 0 1 3.062-.399M282.86 308.52a7.38 7.38 0 0 1-7.38 7.38 7.38 7.38 0 0 1-7.38-7.38 7.38 7.38 0 0 1 7.38-7.38 7.38 7.38 0 0 1 7.38 7.38M617.949 302.927c4.779 2.79 6.358 7.528 3.459 12.465-2.591 4.413-7.484 4.066-11.68 1.616-4.197-2.451-6.904-6.541-4.334-10.966 2.875-4.952 7.777-5.905 12.555-3.115M194.951 307.95a7.46 7.23-174 0 1 8.175-6.41 7.46 7.23-174 0 1 6.663 7.97 7.46 7.23-174 0 1-8.175 6.41 7.46 7.23-174 0 1-6.663-7.97M797.86 313.57c.17-4.98-7.83-5.07-11.89-5.51a1.013 1.013 15.662 0 1-.81-1.44c3.51-7.39 13.9-6.94 16.06 1.54a4.52 4.516-37.082 0 1-.47 3.37l-1.42 2.46a.789.787-29.01 0 1-1.47-.42M834.24 309.36a7.37 7.37 0 0 1-7.37 7.37 7.37 7.37 0 0 1-7.37-7.37 7.37 7.37 0 0 1 7.37-7.37 7.37 7.37 0 0 1 7.37 7.37M597.8 307.55q-1.15-2.54.19-4a1.039 1.037 73.419 0 1 1.77.96l-.75 2.94a.645.641 40.078 0 1-1.21.1M415.404 306.196a7.56 7.33-37.8 0 1-1.481 10.426 7.56 7.33-37.8 0 1-10.467-1.158 7.56 7.33-37.8 0 1 1.481-10.426 7.56 7.33-37.8 0 1 10.467 1.158M256.53 412.47a.395.391-14.213 0 1-.51-.3c-.97-4.82-1.33-7.02-2.52-10.89q-3.49-11.43-8.66-31.1-2.54-9.65-3.03-17.17c-.68-10.42 1.78-17.77 12.27-21.23q1.84-.61 10.15-2.97 6-1.71 10.13-3.07 32.24-10.6 68.5-21.1a1.894 1.894 69.255 0 1 2.24 1.01l12.37 26.36a1.01 1.004 71.255 0 1-.69 1.41l-9.61 2.1a.954.953-23.249 0 1-.98-.39c-3.58-5.18-8.97-8.91-15.28-9.1a5.583 5.47-50.555 0 0-1.58.17c-12.21 3.16-23.39 7.16-35.54 10.9q-10.85 3.33-24.28 7.63c-8.08 2.59-10.52 6.75-8.38 15.17q2.12 8.32 8.69 29.54.67 2.16 4.43 16.99a.491.485-16.12 0 1-.33.59zM645.03 314.63a7.6 7.6 0 0 1-7.6 7.6 7.6 7.6 0 0 1-7.6-7.6 7.6 7.6 0 0 1 7.6-7.6 7.6 7.6 0 0 1 7.6 7.6M387.482 307.774a7.6 7.44-103.3 0 1 8.988 5.684 7.6 7.44-103.3 0 1-5.492 9.108 7.6 7.44-103.3 0 1-8.988-5.684 7.6 7.44-103.3 0 1 5.492-9.108M177.37 311a.604.6-88.072 0 1 .68-.64l7.07.96a5.217 5.199-22.812 0 1 2.39.97q2.31 1.69 4.38 5.01c3.16 5.04 1.16 10.28-4.67 11.68a.869.857-25.761 0 1-.88-.3q-1.92-2.41-3.15-5.33-2.28-5.37-5.36-10.84-.4-.7-.46-1.51M663.89 315.04c-.17 4.94-2.14 12.8-8.74 10.43-4.73-1.69-5.62-8.02-2.34-11.47 3-3.15 7.8-3.38 10.72.01a1.513 1.479-64.911 0 1 .36 1.03M264.12 320.95c-1.15 2.5-6.74 3.14-9.54 3.66q-4.6.87-5.08-3.28-.64-5.63 4.01-8.29c3.69-2.11 8.84-1.73 10.67 2.49q1.17 2.72-.06 5.42M226.499 315.858a7.56 7.37-35.7 0 1-1.838 10.397 7.56 7.37-35.7 0 1-10.44-1.573 7.56 7.37-35.7 0 1 1.838-10.397 7.56 7.37-35.7 0 1 10.44 1.573M368.374 312.782a7.66 7.43-101.8 0 1 8.839 5.979 7.66 7.43-101.8 0 1-5.707 9.017 7.66 7.43-101.8 0 1-8.839-5.979 7.66 7.43-101.8 0 1 5.707-9.017M818.46 321.32a7.6 7.6 0 0 1-7.6 7.6 7.6 7.6 0 0 1-7.6-7.6 7.6 7.6 0 0 1 7.6-7.6 7.6 7.6 0 0 1 7.6 7.6M843.267 315.47a.109.107-76.798 0 1 .093.151l-5.143 12.165a1.443 1.443-49.768 0 1-2.549.213l-1.258-2.005a5 4.926-61.134 0 1-.775-2.754c.094-5.053 4.837-8.253 9.632-7.77"></path><path fill="#fefefe" fill-rule="evenodd" d="M718.788 326.06q1.937.376 3.251.473a.145.145-49.828 0 1 .024.286q-1.142.282-3.392-.154t-3.205-1.124a.145.145 71.762 0 1 .129-.257q1.256.401 3.193.776M246 326.65a.508.506-39.629 0 1-.08.83l-4.33 2.47a1.051.954-83.296 0 0-.31.27q-2.98 3.64-3.48 5.08-2.16 6.15-2.49 7.11a.72.72 55.378 0 1-.72.48q-1.65-.12-2.83-1.22c-5.67-5.26-2.24-13.75 4.78-15.07 3.72-.71 7.32-1.81 9.46.05M629.38 341.02a.431.428-58.283 0 1-.67.16q-4.11-3.43-6.63-5.46-1.93-1.56-2.94-6.35a1.406 1.395 56.539 0 1 .22-1.1q1.45-2.03 4.47-1.68c6.85.79 7.75 9.36 5.55 14.43M207.765 328.486a7.43 7.24-49.2 0 1 .626 10.355 7.43 7.24-49.2 0 1-10.336.893 7.43 7.24-49.2 0 1-.626-10.355 7.43 7.24-49.2 0 1 10.336-.893M831.872 329.073a7.57 7.38-46.9 0 1 .217 10.57 7.57 7.38-46.9 0 1-10.561.484 7.57 7.38-46.9 0 1-.217-10.57 7.57 7.38-46.9 0 1 10.561-.484M797.26 327.896a.04.04 43.895 0 1 .046-.033l.049.007a6.58 5.39-81.1 0 1 4.307 7.335l-.03.198a6.58 5.39-81.1 0 1-6.344 5.667l-.049-.008a.04.04 38.919 0 1-.033-.046zM705.96 330.113a7.55 6.84-45.2 0 1-.467 10.177 7.55 6.84-45.2 0 1-10.173.537 7.55 6.84-45.2 0 1 .467-10.177 7.55 6.84-45.2 0 1 10.173-.537M613.537 328.452a1.99.99-147.2 0 1 2.209.246 1.99.99-147.2 0 1 1.137 1.91 1.99.99-147.2 0 1-2.209-.246 1.99.99-147.2 0 1-1.137-1.91M745.67 331.254a.11.11 50.349 0 1 .087.128l-.009.049a7.16 5.16 10.7 0 1-7.994 3.741l-.196-.037a7.16 5.16 10.7 0 1-6.078-6.399l.01-.05a.11.11-43.294 0 1 .128-.087zM383.828 342.761a.14.14 83.327 0 1-.197-.018l-.045-.053a7.24 6.07-40 0 1 1.644-9.304l.123-.103a7.24 6.07-40 0 1 9.448-.004l.045.054a.14.14-7.453 0 1-.017.197zM648.079 336.171a7.83 7.62-20.4 0 1-4.683 9.871 7.83 7.62-20.4 0 1-9.995-4.413 7.83 7.62-20.4 0 1 4.683-9.871 7.83 7.62-20.4 0 1 9.995 4.413M324.91 334.69q5.89-2.88 11.09-.29 2.36 1.18 2.66 3.49a1.348 1.347-27.861 0 1-.34 1.1c-4.19 4.63-12.63 3.36-13.9-3.32a.902.898 71.717 0 1 .49-.98M763.866 335.512a2.46 2.46-83.141 0 1 1.828 2.96l-.145.613a7.5 7.49 13.3 0 1-9.022 5.564l-.428-.101a7.5 7.49 13.3 0 1-5.576-9.015l.145-.613a2.46 2.46 32.447 0 1 2.96-1.828zM727.29 343.34a7.59 7.59 0 0 1-7.59 7.59 7.59 7.59 0 0 1-7.59-7.59 7.59 7.59 0 0 1 7.59-7.59 7.59 7.59 0 0 1 7.59 7.59M656.304 348.829a.1.1 51.534 0 1-.118.078l-.029-.006a6.4 4.61-78.8 0 1-3.279-7.173l.035-.177a6.4 4.61-78.8 0 1 5.765-5.382l.029.005a.1.1-49.179 0 1 .079.118z" data-source="https://football-logos.cc"></path><path fill="#fefefe" fill-rule="evenodd" d="M319.311 336.299a1.42 1.42 8.775 0 1 1.785.921l.197.619a8.35 7.75 72.3 0 1-4.844 10.311l-.21.067a8.35 7.75 72.3 0 1-9.922-5.599l-.197-.619a1.42 1.42 8.982 0 1 .921-1.784zM376.177 340.042a6.41 6.41 0 0 1-.427 9.055l-2.086 1.898a6.41 6.41 0 0 1-9.055-.427l-.646-.71a6.41 6.41 0 0 1 .427-9.055l2.086-1.898a6.41 6.41 0 0 1 9.055.427zM195.095 342.176c.943 1.902 1.369 4.66.429 6.616a.326.325 49.538 0 1-.606-.049q-.712-2.414-2.19-5.393-1.478-2.98-2.969-5.008a.326.325 77.695 0 1 .327-.511c2.126.435 4.065 2.442 5.009 4.345M225.058 341.971a7.66 7.44-38.7 0 1-1.326 10.595 7.66 7.44-38.7 0 1-10.63-1.017 7.66 7.44-38.7 0 1 1.326-10.595 7.66 7.44-38.7 0 1 10.63 1.017M818.65 347.07a7.6 7.6 0 0 1-7.6 7.6 7.6 7.6 0 0 1-7.6-7.6 7.6 7.6 0 0 1 7.6-7.6 7.6 7.6 0 0 1 7.6 7.6M298.196 356.232c-5.401 1.673-10.767-2.834-9.585-8.616a3.189 3.174 83.209 0 1 1.759-2.245q2.007-.953 3.978-1.564 1.971-.61 4.165-.958a3.189 3.174 62.373 0 1 2.72.858c4.244 4.102 2.364 10.852-3.037 12.525M781.72 353.13a.56.557 21.818 0 1 .41.95c-2.44 2.45-6.84 2.85-9.74.97-3.9-2.53-5.65-7.09-3.79-11.33a.441.437-36.589 0 1 .84.12c.21 1.88-.02 5.17 1.31 6.76 1.96 2.32 8.35 2.57 10.97 2.53M359.06 351.88a7.71 7.71 0 0 1-7.71 7.71 7.71 7.71 0 0 1-7.71-7.71 7.71 7.71 0 0 1 7.71-7.71 7.71 7.71 0 0 1 7.71 7.71M731.115 351.458a7.59 7.45-173.1 0 1 8.43-6.484 7.59 7.45-173.1 0 1 6.64 8.308 7.59 7.45-173.1 0 1-8.43 6.484 7.59 7.45-173.1 0 1-6.64-8.308M689.34 350.81q.7 5.19-2.47 9.09a.109.106-18.91 0 1-.19-.09l2.29-9.02a.189.188-41.83 0 1 .37.02M340.41 358.3a7.51 7.51 0 0 1-7.51 7.51 7.51 7.51 0 0 1-7.51-7.51 7.51 7.51 0 0 1 7.51-7.51 7.51 7.51 0 0 1 7.51 7.51M198.329 355.329a1.85 1.85-77.85 0 1 .869-2.467l.73-.35a6.67 6.36 64.4 0 1 8.618 3.267l.683 1.425a6.67 6.36 64.4 0 1-2.854 8.763l-.731.35a1.85 1.85 5.175 0 1-2.467-.869zM285.28 359.3a7.53 7.53 0 0 1-7.53 7.53 7.53 7.53 0 0 1-7.53-7.53 7.53 7.53 0 0 1 7.53-7.53 7.53 7.53 0 0 1 7.53 7.53M708.31 360.12a7.66 7.66 0 0 1-7.66 7.66 7.66 7.66 0 0 1-7.66-7.66 7.66 7.66 0 0 1 7.66-7.66 7.66 7.66 0 0 1 7.66 7.66M800.456 357.318a7.6 7.25-21.8 0 1-4.364 9.554 7.6 7.25-21.8 0 1-9.748-3.91 7.6 7.25-21.8 0 1 4.364-9.554 7.6 7.25-21.8 0 1 9.748 3.91M820.16 357.3q1.812-3.826 6.55-4.413a.361.361-79.855 0 1 .365.524q-.838 1.618-2.831 5.827t-2.714 5.882a.361.361-49.467 0 1-.637.05q-2.548-4.037-.733-7.87M765.18 362.24a7.55 7.55 0 0 1-7.55 7.55 7.55 7.55 0 0 1-7.55-7.55 7.55 7.55 0 0 1 7.55-7.55 7.55 7.55 0 0 1 7.55 7.55M236.912 369.079a1.11 1.11 25.224 0 1-.942 1.256l-.763.108a7.72 7.47-8.1 0 1-8.695-6.308l-.028-.198a7.72 7.47-8.1 0 1 6.59-8.483l.763-.108a1.11 1.11-64.815 0 1 1.255.942zM317.789 358.873a7.7 7.45-64.8 0 1 3.462 10.139 7.7 7.45-64.8 0 1-10.019 3.795 7.7 7.45-64.8 0 1-3.463-10.139 7.7 7.45-64.8 0 1 10.02-3.795M727.548 366.895a7.62 7.37-9.4 0 1-6.314 8.516 7.62 7.37-9.4 0 1-8.722-6.026 7.62 7.37-9.4 0 1 6.314-8.516 7.62 7.37-9.4 0 1 8.722 6.026M812.69 380.31q-5.38 1.16-8.41-3.13c-3.49-4.95.26-11.88 6.23-11.62q5.67.23 7.47 5.61a1.825 1.816 42.82 0 1 .04.99q-1.3 5.19-4.11 7.55a2.792 2.67-69.909 0 1-1.22.6M224.38 373.35a7.43 7.43 0 0 1-7.43 7.43 7.43 7.43 0 0 1-7.43-7.43 7.43 7.43 0 0 1 7.43-7.43 7.43 7.43 0 0 1 7.43 7.43M783.19 373.44a7.52 7.52 0 0 1-7.52 7.52 7.52 7.52 0 0 1-7.52-7.52 7.52 7.52 0 0 1 7.52-7.52 7.52 7.52 0 0 1 7.52 7.52M303.7 373.76a7.53 7.53 0 0 1-7.53 7.53 7.53 7.53 0 0 1-7.53-7.53 7.53 7.53 0 0 1 7.53-7.53 7.53 7.53 0 0 1 7.53 7.53M733.179 372.107a7.54 7.34-137.3 0 1 10.519-.281 7.54 7.34-137.3 0 1 .563 10.507 7.54 7.34-137.3 0 1-10.519.281 7.54 7.34-137.3 0 1-.563-10.507M684.95 370.46c3.72 2.01 6.66 6.45 4.03 10.84a1.101 1.091 31.407 0 1-1.52.36l-5.22-3.28a.498.491 24.504 0 1-.21-.55l2.16-7.06a.53.53 22.792 0 1 .76-.31M332.127 380.445q-4.095 2.664-5.659 3.762a.379.379-17.859 0 1-.596-.306q-.057-5.007 3.672-7.433 3.722-2.422 8.277-.342a.379.379-48.247 0 1 .038.669q-1.637.985-5.732 3.65M273.974 380.54a2.62 2.62 13.628 0 1 1.56-3.361l1.352-.495a7.24 7.11-20.1 0 1 9.242 4.189l.055.15a7.24 7.11-20.1 0 1-4.355 9.166l-1.353.494a2.62 2.62 14.071 0 1-3.36-1.56zM694.714 386.575a2.93 2.93-28.76 0 1-1.052-4.008l.989-1.692a7.27 7.26-59.7 0 1 9.937-2.614 7.27 7.26-59.7 0 1 2.6 9.939l-.989 1.693a2.93 2.93-25.08 0 1-4.008 1.051zM800.8 385.13a7.59 7.59 0 0 1-7.59 7.59 7.59 7.59 0 0 1-7.59-7.59 7.59 7.59 0 0 1 7.59-7.59 7.59 7.59 0 0 1 7.59 7.59M750.466 385.115a7.5 7.4-163.3 0 1 9.31-4.933 7.5 7.4-163.3 0 1 5.058 9.243 7.5 7.4-163.3 0 1-9.31 4.933 7.5 7.4-163.3 0 1-5.058-9.243M241.02 387.75a7.51 7.51 0 0 1-7.51 7.51 7.51 7.51 0 0 1-7.51-7.51 7.51 7.51 0 0 1 7.51-7.51 7.51 7.51 0 0 1 7.51 7.51M309.2 394.615a.47.47-15.136 0 1-.644-.163l-.082-.137a7.43 7.39 59.2 0 1 2.543-10.166l.739-.441a7.43 7.39 59.2 0 1 10.152 2.598l.082.138a.47.47-15.441 0 1-.163.644zM712.387 390.12a7.58 7.22-162.1 0 1 9.432-4.541 7.58 7.22-162.1 0 1 4.994 9.201 7.58 7.22-162.1 0 1-9.432 4.541 7.58 7.22-162.1 0 1-4.994-9.201M221.16 402.2l-6.33-13.48a1.032 1.029-3.931 0 1 1.24-1.42l.77.23a8.918 8.874 78.026 0 1 4.07 2.66q4.7 5.4 1.03 12.04a.438.438-42.776 0 1-.78-.03M802.456 394.646q1.791-4 6.682-4.711a.374.374-81.068 0 1 .389.534q-.831 1.693-2.802 6.094-1.97 4.4-2.68 6.147a.374.374-50.68 0 1-.658.065q-2.726-4.122-.931-8.129M292.94 404.311a1.57 1.57-80.277 0 1-2.147-.563l-.59-1.01a7.8 7.62-30.3 0 1 2.889-10.515l.329-.191A7.8 7.62-30.3 0 1 304 394.676l.59 1.01a1.57 1.57-80.428 0 1-.564 2.147zM783.15 398.62a7.59 7.59 0 0 1-7.59 7.59 7.59 7.59 0 0 1-7.59-7.59 7.59 7.59 0 0 1 7.59-7.59 7.59 7.59 0 0 1 7.59 7.59M731.14 399.461a7.56 7.29-163.8 0 1 9.294-4.892 7.56 7.29-163.8 0 1 5.226 9.11 7.56 7.29-163.8 0 1-9.294 4.892 7.56 7.29-163.8 0 1-5.226-9.11M248.07 410.15a.185.184 8.301 0 1-.27.2q-5.2-2.9-5.88-8.66a2.658 2.634 56.835 0 1 .34-1.66l1.8-3.11a.63.628 53.74 0 1 1.16.18zM287.29 407.03l-5.48 3.01a.151.151-10.691 0 1-.22-.15q.41-3.6-1.33-8.49a.783.783 86.462 0 1 .91-1.03q5.13 1.16 6.34 6.17a.439.438-20.859 0 1-.22.49M796.482 403.975a7.67 7.41-60.8 0 1 2.726 10.31 7.67 7.41-60.8 0 1-10.21 3.08 7.67 7.41-60.8 0 1-2.726-10.31 7.67 7.41-60.8 0 1 10.21-3.08M750.798 407.34a7.68 7.24-144.5 0 1 10.456-1.434 7.68 7.24-144.5 0 1 2.048 10.354 7.68 7.24-144.5 0 1-10.456 1.434 7.68 7.24-144.5 0 1-2.048-10.354M240.095 410.492c1.339 3.706-.226 7.673-3.415 9.626-4.78 2.927-7.301-1.365-8.704-5.246-1.402-3.882-2.208-8.793 3.339-9.598 3.701-.537 7.441 1.513 8.78 5.218M768.758 426.045a3.03 3.03 63.539 0 1-1.437-4.037l.781-1.644a7.75 7.58-64.6 0 1 10.171-3.749l.018.008a7.75 7.58-64.6 0 1 3.523 10.252l-.78 1.645a3.03 3.03 69.598 0 1-4.037 1.437zM269.64 416.41a.624.616 56.565 0 1-.19.96q-4.99 2.42-9.65 5.02a1.122 1.116 75.665 0 1-1.66-.99v-.66a2.068 2.049-8.862 0 1 1.43-1.94q5.82-1.88 9.7-2.48.26-.04.37.09M646.33 416.82a.397.397 18.762 0 1 .59-.29l14.43 8.34a1.644 1.642 21.093 0 1 .79 1.78q-2.96 13.62-10.65 52.53-2.72 13.75-1.95 18 2 11.04 14.74 15.86 6.37 2.41 11.58 3.86 21.38 5.96 38.61 10.15c4.38 1.07 8.33-1.99 10.8-5.37a1.506 1.5 25.381 0 1 1.58-.56l13.16 3.34a.629.627 15.406 0 1 .45.79l-7.57 24.73a.737.735-83.14 0 1-.66.52q-1 .06-5.16-1.05-39.72-10.53-54.62-14.93-9.18-2.72-16.45-5.32-7.89-2.81-14.99-8.98c-11.8-10.23-11.25-25.36-7.95-39.19 2.37-9.95 6.22-31.57 10.63-50.46q1.92-8.24 2.64-13.75M255.48 424.06a.124.122-36.808 0 1-.03.2l-13.39 6.85a1.643 1.643-9.777 0 1-2.38-1.68l.37-2.67a5.694 5.609-21.144 0 1 1.34-2.97c3.78-4.34 10.26-3.66 14.09.27M792.37 427.82a.149.147-82.308 0 1 .15.2l-2.92 7.6a.632.623-64.166 0 1-.9.32l-3.18-1.83a.832.831 27.409 0 1-.34-1.07q2.12-4.64 7.19-5.22M328.01 437.77a.164.162 73.886 0 1 .25.14l-.5 76.15a.898.894 86.364 0 1-.78.89q-7.69 1.07-10.96 1.06-1.48-.01-6.06-1.48c-6.81-2.19-9.29-5.67-11.14-12.89q-3.93-15.3-11.19-40.66a.675.665-21.264 0 1 .35-.78c4.56-2.23 10.07-4.62 15.24-7.52q13.68-7.69 24.79-14.91M505.05 539.47a1.931 1.92 46.815 0 1-.05 1.73c-6.72 12.33-11.35 24.14-14.18 38.85q-2.59 13.42-1.51 25c1.42 15.24 5.19 28.29 9.92 42.96q1.55 4.81 1.04 8.48-.24 1.68-2.63 5.15c-9.38 13.64-22.62 24.8-37.72 31.6q-3.69 1.67-5.81 1.31-3.34-.57-4.87-3.35-13.23-24.01-19.92-51.09-4.84-19.59-5.5-40.83-.48-15.28 1.82-29.6.55-3.5 4.3-6.22 13.32-9.71 30.37-17.36 15.77-7.09 37.21-9.16c3.48-.34 6.09-.51 7.53 2.53"></path><path fill="#fefefe" fill-rule="evenodd" d="M617.78 617.42c-5.71-2.77-15.05-8.9-22.26-12.21q-15.58-7.15-30.73-12.46c-18.02-6.3-37.97-9.97-57.6-11.2-4.57-.28-9.05-1.93-7.91-7.01q4.28-18.94 13.05-33.13 3.11-5.04 9.2-4.61c13.41.94 26.19 5.55 38.47 11.58 26.94 13.21 48.38 36.01 58.96 63.92q.95 2.5.41 4.41a1.143 1.136-68.886 0 1-1.59.71M417.17 576.99q1.17 1.7 1.08 3.01-2.1 31.06 2.76 54.74 2.98 14.55 10.27 34.75c3.07 8.51 8.26 17.23 10.9 24.53 1.74 4.83-3.31 7.81-7.55 8.67q-17.18 3.51-29.98 2.9-9.43-.45-11.87-9.92-5.06-19.55-5.75-38.93-.38-10.83 1.67-24.01c3.07-19.62 11.99-37.82 24.57-52.7q1.19-1.41 3.11-3.13a.528.524-38.304 0 1 .79.09"></path><path fill="#fefefe" fill-rule="evenodd" d="M508.69 650.82q-1.75-2.02-2.8-4.7-9.45-24.22-9.71-49.49c-.04-3.25-.5-5.84 2.84-7.58 2.25-1.17 5.74-.62 8.6-.39q22.84 1.84 33.85 4.18 36.18 7.71 69.4 26.51c7.96 4.5 18.74 11.06 19.89 20.9.25 2.09.77 3.99.84 6.37.54 19.27-.72 35.61-6.2 52.53-1.33 4.11-3.5 9.99-7.11 11.79q-4.59 2.3-8.43-2.57-16.65-21.14-39.76-35.75c-17.88-11.31-37.82-16.92-58.45-20.16a4.936 4.931-15.978 0 1-2.96-1.64"></path><path fill="#fefefe" fill-rule="evenodd" d="M508.83 661.35a3.911 3.883 28.406 0 1 2.72-.8c19.16 1.76 38.42 7.45 54.6 17.83 6.23 3.99 6.32 8.01 2.14 13.85-6.89 9.63-11.12 16.27-17.17 23.73-4.29 5.29-7.5 9.4-12.55 13.95q-3.92 3.54-7.28 6.01-21.16 15.63-45.05 27.06c-4.35 2.09-8.08 4.68-12.62 5.1a6.272 6.216-42.657 0 1-1.65-.06q-4.87-.82-11.8-3.68c-18.48-7.6-34.38-21.16-47.45-36.72q-4.06-4.83-6.55-9.46-1.93-3.6 2.23-5.36a2.025 1.988 32.538 0 1 .71-.15q16.91-.46 26.77-3.06 17.86-4.71 33.14-13.08c13.46-7.36 23.71-17.1 35.23-30.76 1.54-1.82 2.85-3.06 4.58-4.4"></path><path fill="#fefefe" fill-rule="evenodd" d="M489.09 772.05c-1.26-1.85 1.34-4.19 2.81-4.91q22.72-11.12 42.99-26.26c4.81-3.59 12.26-10.05 17.24-15.77q9.2-10.59 11.98-14.5 6.79-9.55 10.83-15.12c6.06-8.37 13.05-.4 18.15 4.82q5.73 5.87 11.69 13.22c1.87 2.31 4.39 6.15 4.31 9.32-.15 5.41-3.66 10.45-7.32 14.47q-21.25 23.32-51.69 32.27-23.31 6.85-47.57 6.05-6.32-.21-11.38-1.73-.97-.29-2.04-1.86M420.84 749.26a.311.311 21.089 0 1 .52-.23c14.9 13.71 33.98 24.82 53.58 28.51q5.39 1.01 5.95 1.29c2.87 1.41 4.94 2.47 8.02 3.14q7.91 1.73 15.98 1.88a.53.53.551 0 1 .52.53v167.49a.245.241 18.582 0 1-.39.19q-6.68-5.04-16.18-13.04-9.44-7.94-15.26-13.73-16.37-16.25-24.08-25.1-10.46-11.98-24.13-30.27-3.12-4.17-4.46-6.87a.598.535 33.668 0 1-.07-.27z" data-source="https://football-logos.cc"></path><!-- source: https://football-logos.cc --></svg>