<svg xmlns="http://www.w3.org/2000/svg" viewBox="39.81 45.61 1819.77 1600.69"><!-- Source: https://football-logos.cc --><path fill="#07cc84" fill-rule="evenodd" d="M497.8 208.91c-3.92 2.44-11.19 1.49-15.39 1.15-6.07-.49-11.18.49-16.81.4q-27.12-.4-49.66-.34c-7.57.03-14.85.69-22.31.01a1.01 1.007-12.434 0 1-.77-.49l-1.28-2.27 51.38-51.77a.822.82-49.687 0 0-.1-1.24l-1.94-1.42a1.809 1.652-2.597 0 1-.24-.2l-51.57-51.26a.926.926-2.793 0 1 0-1.32l54.19-54.19a1.237 1.23 44.837 0 1 1.75 0l54 54a.48.473-50.143 0 1 .05.61q-1.62 2.25-2.47 3.05-5.84 5.48-17.9 17.54-9.65 9.64-12.14 11.97-8.45 7.94-12.29 11.85c-3.33 3.39-5.79 6.55-8.97 9.13a1.442 1.43 47.92 0 0-.1 2.13z" data-source="https://football-logos.cc"></path><path fill="#f90402" fill-rule="evenodd" d="M1457.44 158.18q4.1 7.05 10.78 10.53l37.01 36.87 1.14 4.29a.406.4 83.537 0 1-.4.51l-10.46-.35a.228.114-18.435 0 0-.07-.01q-1.9-.41-4.25-.42-17.22-.07-34.35.35c-15.88.38-29.17-.21-44.24.31q-3.17.11-4.94-.93-2.31-1.35-2.74-4.12l39.55-39.61q4.01-1.37 6.1-5.91l3-3.22a1.182 1.174-46.245 0 0-.03-1.64l-53.11-53.12a1.388 1.383 46.246 0 1 .04-2.01l8.56-7.75q10.36-8.88 19.83-19.18.27-.3.15-.69-.02-.09-.42-.14l16.29-16.16q4.27-2.11 6.53-6.62l2.91-3.2a.632.631-46.207 0 1 .92-.02q24.79 24.57 51.78 51.56c.92.92 2.05 1.46 2.76 2.22a.921.913 46.155 0 1-.02 1.27l-54.18 54.18a.453.453 84.147 0 0 0 .64q1.4 1.37 1.86 2.37"></path><path fill="#c51417" fill-rule="evenodd" d="M1451.41 49.16q-2.26 4.51-6.53 6.62zM1428.59 71.94q.4.05.42.14.12.39-.15.69-9.47 10.3-19.83 19.18zM1468.22 168.71q-6.68-3.48-10.78-10.53zM1450.57 159.69q-2.09 4.54-6.1 5.91z"></path><path fill="#07cc84" fill-rule="evenodd" d="M1011.55 175.49q.03.42-.09.56a.198.198-39.424 0 0 .08.32q.27.09.28.2.08.78-.27 1.14-18.2 18.61-25.82 25.88-8.47 8.08-15.43 15.35-10.59 11.06-15.41 15.4-4.67 4.21-10.5 10.59c-8.74 9.58-17.86 17.52-26.34 26.47q-11.56 12.2-26.45 26.38c-1.39 1.32-2.87 3.17-4.42 4.88a.844.825-36.998 0 0-.14.92q.36.75 1.4.84-15.2.46-30.44.45-106.58-.08-211.2-.01c-5.1 0-12.67-.24-19.19-.17a.458.458-67.937 0 1-.33-.78q21.46-22.01 37.87-38.23 16.78-16.6 38.05-38.02c17.3-17.42 34.33-33.85 50.89-50.83q1.46-1.5 4.16-1.49 81.12.23 246.89 0 .66 0 3.2.21 1.65.13 3.21-.06"></path><path fill="#f90402" fill-rule="evenodd" d="M1257.26 289.67q3.6 5.88 9.16 10.52c.68.57.73 1.38 1.52 1.89a.436.432-28.544 0 1-.24.8q-5.54-.03-9.67.05-1.09.03-1.62.9a.986.983-80.622 0 1-.64.46q-.64.15-1.07.43l-111.72.09a.36.35 0 0 1-.36-.35V177.6a.809.808-22.524 0 0-1.38-.57l-127.2 127.21a2.082 2.042 22.115 0 1-1.46.6q-56.48-.32-114.08.04-5.02.03-10.06-.46-1.04-.09-1.4-.84a.844.825-36.998 0 1 .14-.92c1.55-1.71 3.03-3.56 4.42-4.88q14.89-14.18 26.45-26.38c8.48-8.95 17.6-16.89 26.34-26.47q5.83-6.38 10.5-10.59 4.82-4.34 15.41-15.4 6.96-7.27 15.43-15.35 7.62-7.27 25.82-25.88.35-.36.27-1.14-.01-.11-.28-.2a.198.198-39.475 0 1-.08-.32q.12-.14.09-.56 64.21.01 128.45-.08 2.92 0 4.85 1.93c15.34 15.35 28.29 27.59 42 41.68 15.02 15.43 32.26 32.01 49.42 49.53q10.49 10.69 20.99 21.12"></path><path fill="#c51417" fill-rule="evenodd" d="M1404.92 205.21q.43 2.77 2.74 4.12 1.77 1.04 4.94.93c15.07-.52 28.36.07 44.24-.31q17.13-.42 34.35-.35 2.35.01 4.25.42a.228.114-18.435 0 1 .07.01l10.46.35a.406.4 83.537 0 0 .4-.51l-1.14-4.29 4.43 3.88a.963.959-47.176 0 1 .05 1.4l-53.38 53.38a.628.625 22.339 0 0 .45 1.07l25.17-.18q-9.13 1.89-12.53 1.71c-11.28-.62-23.19-1.09-35.95-.42q-8.22.44-16.59-.31a1.942 1.922 20.13 0 0-1.75.8q-2.53 3.56-6.17 6.78c-6.19 5.46-11.82 11.39-18.28 16.53l23.71-24a3.72 3.706 22.162 0 1 2.65-1.11h36.28a.395.388 67.399 0 0 .27-.67l-53.23-53.23a.933.933 86.78 0 1 0-1.32z"></path><path fill="#0da668" fill-rule="evenodd" d="M497.8 208.91q.68.46.99 1.1a.855.846 51.576 0 1-.1.91q-1.03 1.26-4.14 4.37-26.9 26.95-43.72 43.29-2.53 2.45-5.36 5.88-.22.27.06.72l-3.04-.21q-.06-1.36-1.24-2.48-10.98-10.36-18.87-18.25c-10.46-10.46-22.62-21.84-33.26-33.41a.576.568 45.409 0 1 0-.77l2.46-2.69 1.28 2.27a1.01 1.007-12.434 0 0 .77.49c7.46.68 14.74.02 22.31-.01q22.54-.06 49.66.34c5.63.09 10.74-.89 16.81-.4 4.2.34 11.47 1.29 15.39-1.15"></path><path fill="#07cc84" fill-rule="evenodd" d="m442.49 264.97 3.04.21q16.69-.49 33.47-.17 3.56.07 4.62.55a2.172 1.531-1.697 0 1 .62.41l76.21 76.29-.52 1.24q-4.11-.74-8.69-.71-81.71.42-134.72.15-5.24-.03-10.33-.26a.772.771 1.415 0 0-.81.77q.01 189.51.02 208.8.01 10.24.01 22 0 .45.41 1.79l-.68 1.02a1.733 1.7-31.134 0 0-.28 1.09c.46 5.41.86 11.44.61 16.53q-.4 7.95-.39 15.06c.01 14.44-.11 24.87.31 36.34q.09 2.36 1.1 4.47a.69.689-33.959 0 0 1.08.21c7.76-6.89 16.5-15.98 32.89-32.31q1.43-1.42 4.16-3.04 7.07 7.2 14.35 14.29 10.37 10.1 14.45 14.2c31.9 32.09 62.65 62.35 93.73 93.79 15.01 15.18 28.94 28.59 42.97 42.87 16.28 16.56 32.25 32.05 49.62 49.63q13.01 13.18 26.59 26.73 74.9 74.67 99.57 99.53 11.72 11.81 22.43 22.78 6.08 6.22 20.03 19.66c10.9 10.5 23.28 24.38 35.08 35.3 2.35 2.17 4.59 5.09 6.81 7.8q1.07 1.31 1.07 4.02.05 24.41-.03 45.9c-.03 8.83.84 18.92.15 27.32a.189.189-19.842 0 0 .32.15q20.68-20.23 33.22-32.65c3.05-3.03 8.64-9.16 12.84-13.18q16.54-15.8 28.91-28.83 1.98-2.09 5.3-2.2 22.81-.78 70.22-.04 1.76.03 3.71.63-.47 1.16-.82 1.52-22.89 22.87-45.66 45.85-3.05 3.08-6.14 6.11-11.63 11.42-23.11 22.95-1.1-.15-1.41 1.36c-15.23 15.29-30.56 31.12-45.72 45.84q-9.8 9.52-23.38 23.81c-2.06 2.17-5.03 4.74-7.77 6.87a.535.532-18.835 0 1-.86-.42v-76.19a.967.963-67.058 0 0-.27-.67q-16.29-16.77-26.76-26.83c-15.04-14.45-30.94-31.64-44.73-44.89-11.17-10.73-20.37-20.42-30.79-30.8q-58.15-57.93-116.12-116.03c-22.82-22.88-44.88-44.32-63.8-63.94-10.38-10.76-23.9-23.36-35.36-34.99q-22.64-22.97-27.28-27.51c-26.57-26.03-62.26-62.4-80.06-79.78q-14.81-14.47-27.76-27.89c-12.94-13.41-30.6-30.34-45.88-46.09q-6.38-6.58-14.74-14.59-9.85-9.43-24.89-25.21c-1.13-1.19-3.68-3.21-5.13-5.17a.55.542 55.608 0 1 .14-.78q.72-.48 3.52-3.64 1.62-1.83 3.48-3.67 30.39-30.06 61.78-61.89 4.65-4.72 6.63-6.38.39-.33.37-.59-.04-.67-.66-.66c-17.84.3-49.61.74-74.89.09a.741.74.796 0 1-.72-.74q-.2-78.41-.07-150.91 0-2.8.77-5.04a2.671 2.664 76.93 0 1 .64-1.03c10.72-10.96 16.16-16.85 25.09-25.11q7.42-6.86 14.16-13.97c10.52-11.1 19.12-19.43 28.25-28.09q3.83-3.63 6.72-7.02 1.56-1.83 3.77-1.88 17.96-.39 35.99-.14"></path><path fill="#f90402" fill-rule="evenodd" d="m1481.95 265.13 10.27.25a3.026 2.992-22.297 0 1 2.04.84c2.8 2.67 5.3 5.7 8.21 8.32 15.19 13.73 30.63 30.82 44.46 44.13q12.69 12.21 22.5 22.46c1.68 1.76 1.98 2.97 1.98 5.53q.05 65.88.04 151.73a.49.48-90 0 1-.48.49l-32.12-.17q-16.47-1.56-33.19-.46a.312.311-24.493 0 0-.2.53q.26.25.25.07-5.38.17-10.77.02-.64-.02-.64.62.01.48.79 1.24c10.63 10.4 23.91 22.92 34.98 34.12q15.39 15.57 41.15 40.75a.82.813 44.753 0 1 .01 1.16q-23.47 23.58-35.15 34.91-9 8.71-19.77 20.06c-8.29 8.74-17.37 16.77-26.75 26.36q-23.34 23.86-46.79 47.18-5.98 5.94-28.79 28.71-133.58 133.33-263.25 262.75-45.71 45.62-67.92 67.83-9.11 9.1-29.89 30.36-4.98 5.08-24.66 24.35-.53.52-1.79 2.51-.9.33-1.13.56-34.23 33.51-68.33 68.16-2.42 2.46-7.39 6.54a.368.363-28.328 0 1-.58-.17q-.23-.69-.18-1.61l.49-74.02.88-1.7q11.48-11.53 23.11-22.95 3.09-3.03 6.14-6.11 22.77-22.98 45.66-45.85.35-.36.82-1.52l72.18-72.24q7.92-5.31 13.38-13.2l11.2-11.28q.2 0 .39-.01a1.093 1.049 22.44 0 0 .69-.27q9.77-8.71 22.37-21.94 2.28-2.39 13.31-13.45 17.75-17.78 20.06-19.95 10.68-9.96 20.31-19.72 9.73-9.86 18.59-18.53c2.46-2.4 5.46-6.02 8.4-8.92q12.11-11.93 24.98-24.53.64-.63 2.39-2.36 7.26-7.14 23.62-23.78c12.39-12.6 24.25-24.32 34.84-34.59 3.77-3.66 7.98-8.68 11.55-12.16q10.5-10.23 19.18-18.95.02-.02 3.78-3.35 2.99-2.65 4.36-6.04l95.66-95.82 7.08-4.82a1.263 1.256-39.79 0 1 1.58.14l34.94 33.73a.716.713 32.725 0 0 1.16-.25c.95-2.4.82-4.29.85-6.76q.4-38.2.13-62.9-.02-1.58-.68-3.95.85-1.87.85-2.71 0-175.16.02-230.99a.6.59.494 0 0-.59-.59q-16.34-.1-151.96-.02-.47 0-.69-.13a.765.753-52.231 0 1-.14-1.18l24.21-24.82q4.86-1.81 6.44-6.31l20.28-20.24c6.46-5.14 12.09-11.07 18.28-16.53q3.64-3.22 6.17-6.78a1.942 1.922 20.13 0 1 1.75-.8q8.37.75 16.59.31c12.76-.67 24.67-.2 35.95.42q3.4.18 12.53-1.71"></path><path fill="#c51417" fill-rule="evenodd" d="m1257.26 289.67 14.32 14.06a.491.489-23.033 0 1-.34.84l-16.54.15q.43-.28 1.07-.43a.986.983-80.622 0 0 .64-.46q.53-.87 1.62-.9 4.13-.08 9.67-.05a.436.432-28.544 0 0 .24-.8c-.79-.51-.84-1.32-1.52-1.89q-5.56-4.64-9.16-10.52M1370.4 310.46q-1.58 4.5-6.44 6.31z"></path><path fill="#0da668" fill-rule="evenodd" d="M752.78 342.71q.6.48.88 1.01a.726.719-36.587 0 1-.13.85c-7.47 7.41-13.65 13.16-19.86 19.74q-8.56 9.08-20.44 20.17c-6.34 5.91-13.9 14.65-21.34 21.68q-15.78 14.91-27.33 27-10.97 11.47-19.56 19.75c-13.05 12.57-19.67 18.68-27.35 27.03q-3.76 4.09-7.49 7.64-3.52 3.36-11.27 11.38c-7.27 7.54-14.57 13.59-21.45 21.11q-6.29 6.87-14.79 14.23a.695.692-37.55 0 0-.12.9l1.71 2.63-3.45-.19a.792.783-88.843 0 1-.74-.78l-.12-193.36.52-1.24q2.27.42 4.55.42 93.9-.03 187.78.03"></path><path fill="#c51417" fill-rule="evenodd" d="M1149.04 342.71c-6.57 1.01-11.04 5.43-15.39 10.77a5.134 4.79-2.412 0 1-.67.68q-5.51 4.58-6.78 5.78-3.14 2.93-16 15.24-3.84 3.68-6.64 6.89c-5.19 5.93-11.04 11.99-16.7 16.74-4.19 3.53-8.23 8.06-10.92 11.31-4.3 5.19-9.73 10.34-14.39 14.21q-3.27 2.72-5.94 5.98-.41.51-7.51 8.19c-6.04 6.53-13.43 12.38-19.1 18.88-8.03 9.23-15.88 16.72-23.87 24.14-12.03 11.19-22.73 22.81-34.18 33.72q-4.11 3.92-6.81 7.1c-4.19 4.94-8.03 9.31-9.09 15.61l-5.53-.34a.522.521 1.755 0 1-.49-.52V343.65a1.28 1.28 45 0 1 1.28-1.28z"></path><path fill="#07cc84" fill-rule="evenodd" d="m564.24 537.83-1.71-2.63a.695.692-37.55 0 1 .12-.9q8.5-7.36 14.79-14.23c6.88-7.52 14.18-13.57 21.45-21.11q7.75-8.02 11.27-11.38 3.73-3.55 7.49-7.64c7.68-8.35 14.3-14.46 27.35-27.03q8.59-8.28 19.56-19.75 11.55-12.09 27.33-27c7.44-7.03 15-15.77 21.34-21.68q11.88-11.09 20.44-20.17c6.21-6.58 12.39-12.33 19.86-19.74a.726.719-36.587 0 0 .13-.85q-.28-.53-.88-1.01l193.45-.18a1.087 1.084-76.626 0 1 .97 1.58q-1.3 2.52-3.58 4.76c-12.54 12.3-21.07 21.28-32.22 32.45q-27.75 27.78-58.6 58.73c-17.16 17.22-46.59 46.73-96.74 97.02q-1.12 1.13-4.31 1.11-65.59-.23-134.5-.23-26.55 0-53.01-.12"></path><path fill="#f90402" fill-rule="evenodd" d="M1338.51 345.45q-.31.25-.46.72a1.284 1.264 85.323 0 1-.61.73q-8.77 4.74-15.47 12.04-3.71 4.04-6.88 7.17-9.18 9.06-18.34 19.2c-4.74 5.25-11.1 10.39-16.85 16.17-26.04 26.23-36.05 36.69-52.1 51.78q-9.18 8.64-15.92 16.61-2.87 3.4-14.05 13.81-7.62 7.1-14.1 13.75-19.42 19.93-24.12 24.68-.08.08-10.22 9.57-1.04.97-1.41 2.1a2.292 2.289 4.123 0 1-1.77 1.53q-5.95 1.04-12.82.39a2.152 2.106-45.623 0 0-.46.01l-4.34.72a.75.723 16.305 0 0-.42.22l-.66.68a.274.272 21.716 0 0 .2.46l6.83.1-179.49.06c1.06-6.3 4.9-10.67 9.09-15.61q2.7-3.18 6.81-7.1c11.45-10.91 22.15-22.53 34.18-33.72 7.99-7.42 15.84-14.91 23.87-24.14 5.67-6.5 13.06-12.35 19.1-18.88q7.1-7.68 7.51-8.19 2.67-3.26 5.94-5.98c4.66-3.87 10.09-9.02 14.39-14.21 2.69-3.25 6.73-7.78 10.92-11.31 5.66-4.75 11.51-10.81 16.7-16.74q2.8-3.21 6.64-6.89 12.86-12.31 16-15.24 1.27-1.2 6.78-5.78a5.134 4.79-2.412 0 0 .67-.68c4.35-5.34 8.82-9.76 15.39-10.77l188.89-.01a.432.431 87.849 0 1 .43.4z"></path><path fill="#c51417" fill-rule="evenodd" d="m1338.51 345.45.31 192.23a.41.41-90 0 1-.41.41l-203.87-.2-6.83-.1a.274.272 21.716 0 1-.2-.46l.66-.68a.75.723 16.305 0 1 .42-.22l4.34-.72a2.152 2.106-45.623 0 1 .46-.01q6.87.65 12.82-.39a2.292 2.289 4.123 0 0 1.77-1.53q.37-1.13 1.41-2.1 10.14-9.49 10.22-9.57 4.7-4.75 24.12-24.68 6.48-6.65 14.1-13.75 11.18-10.41 14.05-13.81 6.74-7.97 15.92-16.61c16.05-15.09 26.06-25.55 52.1-51.78 5.75-5.78 12.11-10.92 16.85-16.17q9.16-10.14 18.34-19.2 3.17-3.13 6.88-7.17 6.7-7.3 15.47-12.04a1.284 1.264 85.323 0 0 .61-.73q.15-.47.46-.72M1538.85 498.71l-33.14.14q.01.18-.25-.07a.312.311-24.493 0 1 .2-.53q16.72-1.1 33.19.46" data-source="https://football-logos.cc"></path><path fill="#07cc84" fill-rule="evenodd" d="M716.3 575.89q5.6 5.55 11.32 11.21 5.55 5.51 9.31 9.71c5.93 6.64 10.1 11.04 17.12 17.38q3.83 3.46 8.93 8.53c13.1 13.03 22.34 22.68 35.78 35.96q23.9 23.61 44.73 44.84c2.54 2.59 5.99 6.65 9.33 9.75q11.07 10.28 17.3 16.63 1.4 1.43 2.37 1.55l.72 1.61a1.808 1.793 10.062 0 0 .43.61c3.64 3.48 6.94 7.14 10.65 10.8q44.61 44.05 73.84 73.63c7.94 8.04 19.28 18.75 28.65 28.68q4.59 4.86 17.9 17.6 11.49 10.99 19.04 18.9.7.74 1.48 1.34.42.85.2 1.62a.982.961-89.815 0 1-.65.66q-2.86.88-5.25.78-12.54-.54-22.3-.07l-46.24-.47q-2.16-.55-3.76-.15l-75.01.34a2.972 2.948 68.285 0 1-2.16-.94q-8.55-9.14-15.67-16.07c-16.67-16.23-29.77-29.89-46.31-45.88-10.87-10.5-31.67-32.4-45.87-46.13-8.87-8.59-15.8-16.44-24.43-24.82q-17.12-16.61-30.8-30.49-21.09-21.4-27.61-27.83-22.36-22.06-37.4-37.24c-12.27-12.4-21.55-20.98-32-32.04q-7.84-8.3-19.04-18.96c-7.4-7.03-14.72-14.84-20.02-19.94q-4.62-4.43-9.68-10.35a.337.334-20.82 0 1 .25-.55q29.92-.7 59.22-.38 24.3.27 42.16.08c12.2-.12 32.6.02 53.47.1"></path><path fill="#0da668" fill-rule="evenodd" d="M1025.56 575.93q.19 1.88-1.9 3.99-3.31 3.36-14.98 15.01-34.85 34.79-42.81 42.85c-5.17 5.24-9.34 8.79-13.77 13.58q-4.47 4.82-10.14 10.36c-13.49 13.21-23.95 24.36-36.93 36.89q-4.53 4.37-13.05 13.29-9.47 9.91-19.49 19.55-.97-.12-2.37-1.55-6.23-6.35-17.3-16.63c-3.34-3.1-6.79-7.16-9.33-9.75q-20.83-21.23-44.73-44.84c-13.44-13.28-22.68-22.93-35.78-35.96q-5.1-5.07-8.93-8.53c-7.02-6.34-11.19-10.74-17.12-17.38q-3.76-4.2-9.31-9.71-5.72-5.66-11.32-11.21z"></path><path fill="#c51417" fill-rule="evenodd" d="m1020.51 893.96 1.14-4.11a.389.384 2.251 0 0-.45-.48c-3.3.62-5.66.62-9.43-.1q-7.2-1.37-14.57-1.66 9.76-.47 22.3.07 2.39.1 5.25-.78a.982.961-89.815 0 0 .65-.66q.22-.77-.2-1.62l.8.45a1.05 1.048 37.608 0 0 1.24-.16q5.89-5.61 10.43-9.74 6.99-6.37 21.14-21.36c1.6-1.7 3.81-3.28 5.58-5.09 17.71-18.09 30.66-30.6 46.04-46.27 5.29-5.38 12.08-11.81 18.01-18.03q9.36-9.81 13.29-13.72c6.44-6.4 12.44-13.01 18.86-19q2.11-1.96 4.89-5.51a1.8 1.8 69.699 0 1 .35-.35l3.48-2.76a.928.784-6.473 0 0 .17-.18l5.63-8.61a.649.643 23.534 0 0-.39-.98l-6.72-1.65a4.266 4.063 50.796 0 0-1.03-.13c-5.21-.16-12.96.25-18.96.07q-12.64-.38-34.37-.67-14.78-.2-21.28-.08-9.23.19-21.28.28c-11.41.08-22.16-.63-33.33-.65q-1.45 0-4.83-.61a.779.778-64.392 0 1-.45-1.28q14.03-15.98 31.36-31.79c1.65-1.5 3.22-3.4 4.84-5q2.83-2.78 5.64-5.84 5.71-6.23 13.65-14.25c10.54-10.64 21.79-22.09 33.72-33.42q5.46-5.19 9.75-10.1 4.51-5.16 36.98-37.06c2.73-2.68 4.77-5.4 7.63-8.17a4.123 4.068-11.336 0 0 .98-1.45l.89-2.2a1.02 1.018-80.611 0 0-1-1.4l-9.19.51a.928.911 59.552 0 1-.52-.14l-2.46-1.61a.245.244 61.209 0 1 .13-.45l12.84-.23 159.45.03a.564.561 22.537 0 1 .4.96z"></path><path fill="#0da668" fill-rule="evenodd" d="M444.62 615.41q-2.73 1.62-4.16 3.04c-16.39 16.33-25.13 25.42-32.89 32.31a.69.689-33.959 0 1-1.08-.21q-1.01-2.11-1.1-4.47c-.42-11.47-.3-21.9-.31-36.34q-.01-7.11.39-15.06c.25-5.09-.15-11.12-.61-16.53a1.733 1.7-31.134 0 1 .28-1.09l.68-1.02z"></path><path fill="#f90402" fill-rule="evenodd" d="m1177.71 575.99-12.84.23a.245.244 61.209 0 0-.13.45l2.46 1.61a.928.911 59.552 0 0 .52.14l9.19-.51a1.02 1.018-80.611 0 1 1 1.4l-.89 2.2a4.123 4.068-11.336 0 1-.98 1.45c-2.86 2.77-4.9 5.49-7.63 8.17q-32.47 31.9-36.98 37.06-4.29 4.91-9.75 10.1c-11.93 11.33-23.18 22.78-33.72 33.42q-7.94 8.02-13.65 14.25-2.81 3.06-5.64 5.84c-1.62 1.6-3.19 3.5-4.84 5q-17.33 15.81-31.36 31.79a.779.778-64.392 0 0 .45 1.28q3.38.61 4.83.61c11.17.02 21.92.73 33.33.65q12.05-.09 21.28-.28 6.5-.12 21.28.08 21.73.29 34.37.67c6 .18 13.75-.23 18.96-.07a4.266 4.063 50.796 0 1 1.03.13l6.72 1.65a.649.643 23.534 0 1 .39.98l-5.63 8.61a.928.784-6.473 0 1-.17.18l-3.48 2.76a1.8 1.8 85.115 0 0-.35.35q-2.78 3.55-4.89 5.51c-6.42 5.99-12.42 12.6-18.86 19q-3.93 3.91-13.29 13.72c-5.93 6.22-12.72 12.65-18.01 18.03-15.38 15.67-28.33 28.18-46.04 46.27-1.77 1.81-3.98 3.39-5.58 5.09q-14.15 14.99-21.14 21.36-4.54 4.13-10.43 9.74a1.05 1.048 37.608 0 1-1.24.16l-.8-.45q-.78-.6-1.48-1.34-7.55-7.91-19.04-18.9-13.31-12.74-17.9-17.6c-9.37-9.93-20.71-20.64-28.65-28.68q-29.23-29.58-73.84-73.63c-3.71-3.66-7.01-7.32-10.65-10.8a1.808 1.793 10.062 0 1-.43-.61l-.72-1.61q10.02-9.64 19.49-19.55 8.52-8.92 13.05-13.29c12.98-12.53 23.44-23.68 36.93-36.89q5.67-5.54 10.14-10.36c4.43-4.79 8.6-8.34 13.77-13.58q7.96-8.06 42.81-42.85 11.67-11.65 14.98-15.01 2.09-2.11 1.9-3.99z"></path><path fill="#c51417" fill-rule="evenodd" d="M1492.26 577.21q.66 2.37.68 3.95.27 24.7-.13 62.9c-.03 2.47.1 4.36-.85 6.76a.716.713 32.725 0 1-1.16.25l-34.94-33.73a1.263 1.256-39.79 0 0-1.58-.14l-7.08 4.82zM1351.54 717.84q-1.37 3.39-4.36 6.04-3.76 3.33-3.78 3.35-8.68 8.72-19.18 18.95c-3.57 3.48-7.78 8.5-11.55 12.16a2081 2081 0 0 0-34.84 34.59q-16.36 16.64-23.62 23.78-1.75 1.73-2.39 2.36-12.87 12.6-24.98 24.53c-2.94 2.9-5.94 6.52-8.4 8.92q-8.86 8.67-18.59 18.53-9.63 9.76-20.31 19.72-2.31 2.17-20.06 19.95-11.03 11.06-13.31 13.45-12.6 13.23-22.37 21.94a1.093 1.049 22.44 0 1-.69.27q-.19.01-.39.01z"></path><path fill="#808180" fill-rule="evenodd" d="M950.96 887.14q-1.1-.11-1.87.34-.26-.68-1.89-.49 1.6-.4 3.76.15"></path><path fill="#f90402" fill-rule="evenodd" d="M997.2 887.61q7.37.29 14.57 1.66c3.77.72 6.13.72 9.43.1a.389.384 2.251 0 1 .45.48l-1.14 4.11-7.21 6.86q-2.62.98-5.67 4.06c-6.47 6.55-12.93 13.3-19.57 19.49q-4.77 4.43-9.1 9.49-.3.35-.09.72.13.22.34.01l-31.3 31.05-74.04 74.59a1.042 1.006-74.093 0 1-.5.29q-.86.24-2.22-.14l-.38-73.83a2.702 2.665-23.039 0 1 .79-1.92l77.53-77.15q.77-.45 1.87-.34z"></path><path fill="#c51417" fill-rule="evenodd" d="m1013.3 900.82-34.09 33.77q-.21.21-.34-.01-.21-.37.09-.72 4.33-5.06 9.1-9.49c6.64-6.19 13.1-12.94 19.57-19.49q3.05-3.08 5.67-4.06M1111.52 957.67q-5.46 7.89-13.38 13.2z"></path><path fill="#07cc84" fill-rule="evenodd" d="M871.15 1040.38q1.36.38 2.22.14a1.042 1.006-74.093 0 0 .5-.29l74.04-74.59q5.03-.93 10.09-.9 30.09.18 65.25.08 1.82-.01 3.25.12a.468.468 24.212 0 1 .3.79q-20.21 20.96-35.76 35.76c-10.42 9.91-16.24 16.2-28.05 28.16-3.36 3.39-6.84 6.42-9.9 9.43q-1.91 1.89-3.75 2.64a2.71 2.639 30.823 0 1-.88.21q-4.59.36-5.96.37-26.57.34-55.25.25-7.24-.02-14.74-.55-1.43-.1-1.36-1.62"></path><path fill="#808180" fill-rule="evenodd" d="m950.23 1119.54-.88 1.7q.01-.5-.53-.34.31-1.51 1.41-1.36"></path><path fill="#07cc84" fill-rule="evenodd" d="M1026.47 1121.78q.86 2.65.88 3.97.48 34.45.19 71.03a3.657 3.644 67.898 0 1-1.08 2.57q-24.62 24.36-41.91 41.68c-10.97 10.99-22.16 22.74-33.93 33.58a4.359 4.342 23.485 0 1-2.96 1.16H872.1a.448.447-67.862 0 1-.32-.76q15.61-16.07 31.98-32.16 8.15-8.02 11.09-11.08c10.88-11.37 23.39-22.87 33.39-33.29q.97-1.02.62-3.22-.05.92.18 1.61a.368.363-28.328 0 0 .58.17q4.97-4.08 7.39-6.54 34.1-34.65 68.33-68.16.23-.23 1.13-.56"></path><path fill-rule="evenodd" d="M1010.39 1434.41h-9.32a.49.49-53.164 0 1-.49-.49v-49.46a.49.49-72.35 0 1 .49-.49h24.95a.49.49-45 0 1 .49.49v7.48a.49.49 45 0 1-.49.49h-14.68a.49.49 74.807 0 0-.49.49v12.41a.49.49-78.749 0 0 .49.49h12.79a.49.49-54.471 0 1 .49.49v7.01a.49.49-45 0 1-.49.49h-12.76a.49.49-15.173 0 0-.49.49v19.62a.49.49-56.248 0 1-.49.49M888.73 1392.8v12.04a.58.58 19.814 0 0 .58.58h13.4a.58.58-44.995 0 1 .58.58v7.21a.58.58-45 0 1-.58.58h-13.47a.58.58 5.86 0 0-.58.58v19.25a.58.58 29.836 0 1-.58.58h-8.72a.58.58-44.995 0 1-.58-.58v-48.92a.58.58 45 0 1 .58-.58h24.9a.58.58 25.196 0 1 .58.58v6.94a.58.58 29.836 0 1-.58.58h-14.95a.58.58-44.974 0 0-.58.58M947.02 1417.24v16.5a.52.52 0 0 1-.52.52h-9.34a.39.39 44.998 0 1-.39-.39v-49.17a.58.58 44.985 0 1 .58-.58h22.68a2.587 2.565-22.517 0 1 1.81.74l4.92 4.93a3.708 3.675-68.004 0 1 1.09 2.6l.16 15.47a2.523 2.332-42.743 0 1-.03.38c-.43 2.53-5.22 8.1-8.73 8.24q-.46.02-11.57.1a.66.66-45 0 0-.66.66m10.869-24.311a.95.95 0 0 0-.945-.955l-9.06-.048a.95.95 0 0 0-.955.945l-.078 14.9a.95.95 0 0 0 .945.955l9.06.048a.95.95 0 0 0 .955-.945zM398.93 1632.78a.52.514 5.86 0 1-.51-.62l33.14-163.25a.924.917-84.232 0 1 .9-.74h47.29a1.171 1.167-5.347 0 1 1.15.95q5.71 30.01 14.58 71.33c2.71 12.65 5.37 29.12 8.44 42.49q2.28 9.9 3.71 16.92 3.4 16.73 7 31.79a.974.968-6.579 0 1-.95 1.19h-31.82a.73.73-54.032 0 1-.72-.6l-6.82-36.79a1.23 1.22 84.579 0 0-1.2-1h-36.08a.581.579 5.403 0 0-.57.47l-6.76 37.23a.775.773-84.597 0 1-.76.63zm41.804-64.428a.33.33 11.867 0 0 .326.388l28.868-.101a.33.33 65.939 0 0 .323-.39l-14.708-78.64a.33.33-77.085 0 0-.65.002zM804.12 1468.92v25.77a.74.74-56.257 0 1-.74.74h-53.87a.74.74 74.802 0 0-.74.74v38.9a.74.74 11.228 0 0 .74.74h48.76a.74.74 36.836 0 1 .74.74v26.14a.74.74-56.257 0 1-.74.74H749.6a.74.74-.017 0 0-.74.74v41.4a.74.74 11.228 0 0 .74.74h53.97a.74.74 36.836 0 1 .74.74v26.73a.74.74 33.757 0 1-.74.74h-87.65a.74.74 13.314 0 1-.74-.74v-164.86a.74.74-56.257 0 1 .74-.74h87.46a.74.74-53.159 0 1 .74.74M882.27 1633.94v-165.39a.52.52.541 0 1 .53-.52q37.53.43 78.45-.03 2.14-.02 3.87.6a1.211 1.179 76.717 0 1 .44.28l19.43 19.27a4.844 4.841-67.467 0 1 1.43 3.46q-.14 31.49-.01 59.14c.01 2.07-.8 3.59-2.35 5.13q-15.65 15.63-18.57 18.58-1.02 1.03-3.98.99-23.35-.36-44.34-.2a1.1 1.09-.265 0 0-1.09 1.09v57.52a.63.63-60.168 0 1-.63.63h-32.62a.56.55 0 0 1-.56-.55m33.74-140.84v56.44a.25.25-45 0 0 .25.25h25.09a11.9 11.87 0 0 0 11.9-11.87v-33.2a11.9 11.87 0 0 0-11.9-11.87h-25.09a.25.25 45 0 0-.25.25M1176.27 1567.18v66.51a.62.62 0 0 1-.62.62h-32.85a.31.3 90 0 1-.3-.31v-165.3a.52.52 0 0 1 .52-.52h82.36a4.856 4.849-21.981 0 1 3.49 1.48q8.26 8.55 17.81 17.71c1.43 1.37 1.89 2.78 1.88 4.91q-.03 10.45.06 51.1a3.687 3.669-23.15 0 1-1.03 2.55l-16.97 17.58a.743.728 58.729 0 0-.17.73l21.02 69.44a.613.608-8.144 0 1-.59.78h-33.48a1.13 1.13 82.244 0 1-1.09-.83l-18.12-66.45a.57.56 81.701 0 0-.54-.41h-20.98a.41.4-90 0 0-.4.41m-.174-73.518.249 47.52a1.16 1.16-45 0 0 1.166 1.153l24.639-.129a13.12 12.62-.3 0 0 13.054-12.688l-.129-24.6a13.12 12.62-.3 0 0-13.186-12.551l-24.639.129a1.16 1.16-45.011 0 0-1.154 1.166M1441.808 1634.484q-13.67.003-28.056.075-2.072.011-3.832-1.829-11.12-11.6-18.25-18.44-1.75-1.68-1.74-4.26.12-43.44.05-141.04a.75.75-45 0 1 .75-.75h32.66a.63.63 35.53 0 1 .63.63q-.11 68.56.05 127.87c.01 3.23 4.79 7.23 6.87 9.25a2.114 2.08-22.125 0 0 1.451.599l9.412-.002 9.412-.002a2.114 2.08 22.104 0 0 1.45-.599c2.079-2.021 6.858-6.022 6.867-9.253q.138-59.31.002-127.87a.63.63-56.275 0 1 .63-.63l32.66-.012a.75.75-64.849 0 1 .75.75q-.033 97.6.103 141.04.011 2.58-1.739 4.26-7.127 6.843-18.243 18.447-1.759 1.841-3.831 1.831-14.387-.067-28.056-.065M1718.524 1595.5h-37.087a.5.5 1.923 0 0-.492.411l-6.91 37.989a.5.5 36.604 0 1-.492.41h-30.361a.5.5-50.235 0 1-.49-.599l33.527-165.14a.5.5 42.585 0 1 .49-.401h47.813a.5.5-43.107 0 1 .49.4l33.725 165.1a.5.5-62.123 0 1-.489.6h-31.702a.5.5-60.877 0 1-.492-.409l-7.038-37.952a.5.5-10.696 0 0-.492-.409m-33.305-26.184a.32.32 10.315 0 0 .316.375l28.365-.049a.32.32 78.993 0 0 .315-.377l-14.322-79.453a.32.32-79.047 0 0-.63.001zM91.468 1468.31q46.786.025 51.282.168a.35.35-88.967 0 1 .34.352v27.79a.35.35 41.415 0 1-.35.35H109.1a.91.91 78.483 0 0-.91.91v134.38a.345.342-1.029 0 1-.333.342q-1.461.037-16.478.029-15.016-.009-16.478-.047a.345.342 1.09 0 1-.332-.342l.145-134.38a.91.91 5.97 0 0-.909-.911l-33.64-.036a.35.35 45.672 0 1-.35-.351l.03-27.789a.35.35 89.029 0 1 .34-.352q4.497-.138 51.283-.113M146.73 1632.74a.498.492 5.672 0 1-.49-.59l33.15-163.31a.809.805-84.32 0 1 .79-.65h47.54a.79.773 84.047 0 1 .76.63l33.36 163.33a.47.469 84.437 0 1-.46.56h-32.05a.742.73 84.806 0 1-.72-.61l-6.35-37.33a.334.326-3.963 0 0-.33-.28H184.7a.927.923 3.502 0 0-.92.81q-1.86 15.14-6.38 36.9a.686.675 5.663 0 1-.67.54zm42.123-64.516a.3.3-77.002 0 0 .295.353h28.064a.3.3 19.229 0 0 .295-.353l-14.032-78.505a.3.3 0 0 0-.59 0zM380.75 1522.74h-32.03a.52.52 25.174 0 1-.52-.52v-19.76a1.789 1.773-67.679 0 0-.52-1.26l-5.69-5.69a2.53 2.507 67.321 0 0-1.78-.74H322a3.577 3.528 24.541 0 0-2.3.84c-2.2 1.86-6.14 5.51-6.18 8.9q-.17 16.09-.04 92.94a3.472 3.466-66.855 0 0 .94 2.35q2.73 2.9 5.39 5.39 1.36 1.28 3.44 1.28 9.23-.01 16.55-.22a2.27 2.257-68.127 0 0 1.51-.65l6.57-6.58a1.837 1.835-22.266 0 0 .55-1.31v-19.45a.78.78 33.746 0 1 .78-.78h31.89a.58.58 25.144 0 1 .58.58l-.32 31.35a1.092.992 58.191 0 1-.07.38q-.36 1.11-1.93 2.83-5.7 6.23-10.58 10.83c-2.67 2.52-5.28 5.82-7.71 8.45a2.564 2.539-68.396 0 1-1.87.82h-19.52a.62.61 90 0 0-.61.62v12.43a.54.53 0 0 1-.54.53h-15.29a.2.2-55.236 0 1-.2-.2v-12.88a.53.52 90 0 0-.52-.53h-19.34a1.642 1.515 53.008 0 1-.55-.1q-1.38-.53-2.7-1.96-6.92-7.45-17-16.78-1.3-1.21-2.74-3.29a1.913 1.877 28.068 0 1-.34-1.08q-.16-95.34-.08-116.99.01-2.05 1.6-3.62 10.16-10.03 19.25-19.47 1.16-1.22 3.39-1.22 32.41-.04 53.71-.01a5.011 5.001 68.122 0 1 3.62 1.55q7.97 8.35 18.58 18.12c1.18 1.1 1.72 2.84 1.69 4.71q-.28 13.38-.12 29.45a.74.74-56.257 0 1-.74.74M687.285 1551.4q.031 49.948-.016 58.1-.019 3.27-1.499 4.75-17.91 17.84-18.27 18.24c-1.44 1.6-2.64 2.08-4.91 2.09q-9.84.04-79.57.08a.266.262.451 0 1-.266-.266q.039-41.411.014-82.931t-.114-82.931a.266.262-.521 0 1 .265-.266q69.73-.045 79.57-.017c2.27.007 3.471.486 4.913 2.084q.36.4 18.292 18.218 1.481 1.478 1.504 4.748.057 8.152.087 58.101m-70.895-56.03v111.78a.87.87-8.124 0 0 .87.87h23.09a13.64 13.26 90 0 0 13.26-13.64v-86.24a13.64 13.26-90 0 0-13.26-13.64h-23.09a.87.87 5.826 0 0-.87.87M1114.277 1551.404q-.01 53.37-.1 59.227a4.981 4.935-21.822 0 1-1.517 3.499q-9.35 9.03-19.45 19.52c-1.04 1.08-4.02.95-5.69.94q-32.41-.12-55.02.02-1.88.02-3.22-1.33-12.13-12.11-18.94-19.01-1.54-1.56-1.453-4.018.219-6.241.23-58.869.01-52.629-.207-58.869-.086-2.458 1.455-4.018 6.813-6.897 18.947-19.002 1.341-1.35 3.221-1.329 22.61.149 55.02.042c1.67-.01 4.65-.138 5.69.942q10.095 10.494 19.442 19.528a4.981 4.935 21.845 0 1 1.515 3.499q.088 5.857.077 59.228m-34.087-44.154a12.47 12.47 0 0 0-12.47-12.47h-12.86a12.47 12.47 0 0 0-12.47 12.47v88.4a12.47 12.47 0 0 0 12.47 12.47h12.86a12.47 12.47 0 0 0 12.47-12.47zM1318.043 1468.23l50.875-.06a.912.91-.012 0 1 .912.91v27.57a.49.49-54.469 0 1-.49.49H1336a.79.78 90 0 0-.78.79v136.09a.469.463-.799 0 1-.456.463q-4.452.118-16.524.132t-16.525-.093a.469.463.663 0 1-.457-.462l-.322-136.089a.79.78 89.864 0 0-.782-.789l-33.34.079a.49.49-22.331 0 1-.491-.488l-.066-27.57a.912.91-.124 0 1 .91-.912zM1569.94 1543.84h54.96a.51.51 45 0 1 .51.51v67.88a3.016 2.99-22.839 0 1-.87 2.11l-19.68 19.68a1.989 1.978-67.136 0 1-1.39.57h-59.17a3.559 3.536-21.321 0 1-2.6-1.13q-5.96-6.42-18.95-18.61c-1.42-1.33-1.92-2.26-1.93-4.3q-.17-68.49-.11-118.5a4.023 3.99 67.842 0 1 1.17-2.81l19.86-19.86a3.431 3.411 22.383 0 1 2.42-1h58.8a2.682 2.668-22.58 0 1 1.88.77l19.31 19.32a4.263 4.247 22.464 0 1 1.26 3.02v26.15a.66.65 0 0 1-.66.65h-31.98a.51.51-54.469 0 1-.51-.51v-14.87a2.729 2.724-67.716 0 0-.81-1.94l-5.27-5.28a2.997 2.974-22.508 0 0-2.1-.86h-21.01a2.44 2.43 22.617 0 0-1.71.7l-7.02 7.03a2.072 2.038 67.731 0 0-.61 1.49q.24 34.41.07 93.72c-.01 3.15 3.85 6.33 6.25 8.82q1.9 1.97 3.42 1.99 12.82.09 20.64-.03a3.126 3.089 20.528 0 0 2.21-.99l5.51-5.95a1.3 1.293 66.955 0 0 .34-.85l.31-29.59a.55.54.512 0 0-.55-.55h-22.33a.44.43 90 0 1-.43-.44v-25.56a.78.77-90 0 1 .77-.78"></path><path d="M1778.19 1468.34a.51.51 0 0 0-.51.52l.31 83.31-.03 38.32.03 43a.31.31 0 0 0 .31.31h80.55a.73.73 0 0 0 .73-.73v-26.56a.38.38 0 0 0-.38-.38h-46.83a.82.82 0 0 1-.82-.83l.16-23.47-.03-20.98-.02-91.8a.7.71 0 0 0-.7-.71z" style="fill:#000;fill-opacity:1" data-source="https://football-logos.cc"></path><!-- source: https://football-logos.cc --></svg>