<svg xmlns="http://www.w3.org/2000/svg" viewBox="14.66 154.05 565.95 533.68"><!-- Source: https://football-logos.cc --><path d="M331.168 399.425a.8.8 0 0 1-.579.247.8.8 0 0 1-.587-.228l-14.168-13.717a.8.8 0 0 1-.246-.58.8.8 0 0 1 .227-.586l1.72-1.776a.8.8 0 0 1 .58-.247.8.8 0 0 1 .586.228l14.168 13.717q.241.234.247.579a.8.8 0 0 1-.228.587zM314.238 406.523q-.238-.314-.201-.633a.9.9 0 0 1 .245-.534l1.69-1.746a.86.86 0 0 1 .57-.264.66.66 0 0 1 .576.246q.822.919 1.34 2.153.518 1.232.478 2.697-.04 1.464-.735 3.087t-2.322 3.305q-1.44 1.487-2.988 2.201-1.547.715-3.106.75a7.6 7.6 0 0 1-3.085-.586q-1.527-.622-2.904-1.788a48 48 0 0 1-1.852-1.71q-.99-.96-1.768-1.795a10.8 10.8 0 0 1-1.882-2.844 7.6 7.6 0 0 1-.685-3.065q-.015-1.56.649-3.129.663-1.57 2.104-3.057 1.626-1.68 3.227-2.428 1.6-.747 3.063-.835 1.462-.086 2.722.402t2.184 1.259a.66.66 0 0 1 .263.568.86.86 0 0 1-.245.577l-1.69 1.746a.96.96 0 0 1-.536.273q-.328.06-.65-.17a3.3 3.3 0 0 0-1.133-.512 3.6 3.6 0 0 0-1.358-.062q-.72.096-1.53.523t-1.623 1.267q-.815.84-1.16 1.716a4.3 4.3 0 0 0-.323 1.713q.024.837.409 1.648t1.01 1.5a48 48 0 0 0 1.769 1.796q.99.96 1.852 1.71.732.624 1.543.972a4.1 4.1 0 0 0 1.65.344 4.3 4.3 0 0 0 1.701-.377q.864-.375 1.678-1.215.813-.84 1.214-1.664.4-.824.483-1.556a3.5 3.5 0 0 0-.096-1.367 3.3 3.3 0 0 0-.548-1.116M287.726 412.277a.78.78 0 0 1 .574-.244.78.78 0 0 1 .582.226l1.543 1.494q.24.23.245.574a.79.79 0 0 1-.226.581l-6.714 6.935 3.617 3.558 6.293-6.5a.79.79 0 0 1 .574-.245.79.79 0 0 1 .581.226l1.544 1.495q.239.231.244.573a.79.79 0 0 1-.225.582l-6.294 6.5 5.579 5.344a.78.78 0 0 1 .245.574.78.78 0 0 1-.227.582l-1.704 1.76a.79.79 0 0 1-.574.245.79.79 0 0 1-.582-.226l-14.043-13.596a.79.79 0 0 1-.244-.574.78.78 0 0 1 .225-.581zM268.385 430.87a.8.8 0 0 1 .576-.245.79.79 0 0 1 .583.227l8.945 8.66q1.353 1.309 2.062 2.757.712 1.449.736 2.994t-.69 3.136q-.716 1.59-2.214 3.139-1.522 1.57-3.076 2.326-1.555.754-3.101.78a6.8 6.8 0 0 1-3.006-.65q-1.46-.674-2.813-1.983l-8.944-8.66a.8.8 0 0 1-.246-.575.79.79 0 0 1 .227-.583l1.711-1.767a.79.79 0 0 1 .576-.246.79.79 0 0 1 .583.227l8.835 8.553q.895.866 1.76 1.239.864.372 1.69.327a3.7 3.7 0 0 0 1.603-.477 6.4 6.4 0 0 0 1.474-1.151q.697-.72 1.113-1.521a3.7 3.7 0 0 0 .436-1.629q.018-.827-.371-1.69-.39-.863-1.284-1.73l-8.835-8.553a.8.8 0 0 1-.246-.576.79.79 0 0 1 .227-.583zM287.68 441.808a2.1 2.1 0 0 1-2.1-2.1 2.1 2.1 0 1 1 2.1 2.1M303.956 425.758a2.1 2.1 0 0 1-2.1-2.1 2.1 2.1 0 1 1 2.1 2.1M324.806 405.132a2.1 2.1 0 0 1-2.1-2.1 2.1 2.1 0 1 1 2.1 2.1M336.28 393.657a2.1 2.1 0 0 1-2.1-2.1 2.1 2.1 0 1 1 2.1 2.1" style="fill:#080705;fill-rule:evenodd" data-source="https://football-logos.cc"></path><path d="M336.495 596.255c-1.434 2.105-3.92 3.285-7.368 4.448l-1.758 5.859c1.502-.067 3.816-.583 5.3-1.366l-3.906 12.78 5.348 1.597 6.72-21.98z" style="fill:#e30016;fill-rule:evenodd"></path><path d="m286.44 596.183-1.1 5.98 8.622 1.647 1.1-5.98z" style="fill:#070208;fill-rule:evenodd"></path><path d="M267.8 597.467c.889.206 1.473 1.194 1.22 2.295l-.252 1.107c-.266 1.159-1.206 1.911-2.097 1.713-.89-.198-1.511-1.073-1.238-2.263l.251-1.097c.253-1.102 1.118-1.988 2.115-1.756m7.89-3.887.1-.44c.915-4.035-.652-6.942-5.171-7.95-5.018-1.12-8.537 1.424-9.777 7.185l-1.134 5.263c-1.234 5.734 1.917 9.095 5.94 9.977 4.085.895 7.34-1.888 8.216-5.756 1.007-4.45-.158-7.36-3.989-8.195-1.041-.227-2.217.005-3.063.43l.448-2.023c.265-1.192 1.326-2.08 2.226-1.884.97.212 1.386 1.136 1.242 1.793l-.107.48z" style="fill:#e30016;fill-rule:evenodd"></path><path d="m243.284 587.017-1.766 5.939 8.41 2.51 1.767-5.94z" style="fill:#070208;fill-rule:evenodd"></path><path d="m223.935 586.184 4.372-3.081-1.912 4.198zm7.553-11.03-12.88 8.555-1.987 4.319 7.837 3.537-2.111 4.65 4.57 2.088 2.118-4.662 1.964.867 1.915-4.255-1.94-.872 5.423-12.019zM208.673 583.555l-5.518-2.766c.78-.727 2.27-1.436 3.365-1.738 3.174-.876 5.926-2.997 7.251-5.661 1.708-3.432 1.09-6.7-3.327-8.909-4.943-2.472-9.104.945-10.806 4.332l5.291 2.666c.555-1.15 1.875-3.105 3.355-2.369 1.21.602 1.098 1.63.634 2.528-.57 1.107-2.55 1.96-4.477 2.582-1.513.488-2.958 1.101-4.421 1.718-2.772 1.169-4.566 1.999-6.496 5.689l12.854 6.542zM172.266 534.076l-15.7 16.724 10.836 10.19 3.52-3.773-6.034-5.653 12.116-13.033zM157.41 522.462l-5.033 5.941-2.416-3.207zm1.965-5.93-23.477 7.062 3.938 5.21 5.965-2.021 3.708 4.88-3.853 4.812 3.765 4.983 14.377-19.079zM145.25 498.73l1.474 3.27c.463 1.025.094 2.396-.8 2.797-.828.372-2.139-.089-2.674-1.26l-1.486-3.254zm-7.332 3.3 1.597 3.54c.525 1.164.485 2.805-.803 3.388-1.508.683-2.852-.19-3.492-1.607l-1.54-3.41zm9.554-10.678-20.893 9.45 4.053 9.04c2.056 4.586 6.108 5.63 9.93 3.98 1.775-.765 3.105-2.603 3.254-4.373 1.767.826 3.012.675 4.736-.091 3.244-1.443 5.012-4.479 2.772-9.454zM136.43 462.232l-14.093 4.965c-4.884 1.722-6.225 6.304-4.574 11.111s5.374 7.206 10.139 5.5l14.34-5.134-1.831-5.236-14.527 5.134c-1.204.425-2.733-.397-3.26-1.962-.537-1.594.413-2.913 1.621-3.337l14.34-5.037zm8.263 6.55 1.545 4.372-6.59-1.766-.826-2.388zM129.33 436.865l-4.832 1.761 1.994 5.459-16.786 6.11 1.998 5.538 16.81-6.077 1.789 4.886 4.81-1.757zM123.772 413.065l-21.865 7.003 4.786 15.074 4.916-1.559-3.215-9.902 4.188-1.326 2.885 9.128 4.503-1.46-2.873-9.09 3.502-1.142 3.12 9.892 4.87-1.533zM114.966 408.206c5.458-.422 6.926-3.275 6.523-8.44-.384-4.919-3.54-7.418-7.07-7.282-3.49.135-6.234 3.322-6.083 8.132.077 2.449-1.017 3.664-2.333 3.75-1.116.074-2.172-.491-2.318-2.548-.13-1.846.88-2.889 1.978-2.963l.95-.065-.457-6.043c-5.988.259-8.341 3.303-7.757 9.877.47 5.307 4.916 7.89 8.203 7.687 4.293-.263 6.616-4.454 6.19-9.399-.1-1.155.841-2.497 1.909-2.58 1.265-.099 2.275.512 2.428 1.884.158 1.427-.447 2.53-2.568 2.727zM311.528 601.899c-.887-.217-1.46-1.211-1.196-2.309l.265-1.104c.278-1.156 1.227-1.898 2.115-1.69s1.5 1.09 1.214 2.277l-.264 1.094c-.264 1.1-1.14 1.975-2.134 1.732m-7.933 3.799-.105.44c-.96 4.024.575 6.947 5.083 8.006 5.005 1.176 8.552-1.33 9.856-7.077l1.191-5.25c1.298-5.72-1.816-9.116-5.828-10.042-4.076-.94-7.362 1.806-8.28 5.664-1.057 4.44.076 7.361 3.898 8.24 1.039.238 2.217.02 3.068-.397l-.47 2.018c-.278 1.189-1.349 2.065-2.247 1.859-.968-.223-1.374-1.151-1.222-1.807l.112-.479z" style="fill:#e30016;fill-rule:evenodd"></path><path d="M306.469 634.938c-1.42 1.088-1.414 1.953-1.834 3.698-.433 2.579-.098 5.597.3 8.38.283 1.987.97 3.274 1.9 4.373.96 1.137 3.011 2.743 5.26 3.476 3.952 1.29 10.337-.302 16.425-1.723.454-.106 1.298-.305 3.138-.72 3.763-.847 5.042-1.125 8.9-2.778.88-.779.567-2.063-.278-3.32-.912-1.358-19.866-7.719-30.095-11.04-.713-.231-2.46-1.31-3.716-.346M82.68 373.973c-1.472.994-2.72 3.16-3.199 4.4-.473 1.224-1.795 3.693-1.401 5.465 1.193 3.56 2.25 5.286 3.736 9.12 3.513 9.054 5.96 18.473 8.775 27.714l1.358 4.44c5.372 17.157 11.642 33.892 17.46 51.043 1.486 4.38 2.787 8.707 4.086 13.034.725 2.412 1.45 4.825 1.912 6.316.177.49.452 1.261 1.071 2.979 1.92 5.321 3.826 10.607 6.211 15.677 6.674 14.183 14.183 27.055 23.445 38.689 9.2 11.556 20.156 21.895 33.782 31.095 7.279 4.914 15.074 8.947 23.21 12.408 8.272 3.52 16.857 6.45 25.594 9.11 11.232 3.421 22.718 5.625 34.18 7.823 5.85 1.122 11.694 2.243 18.004 3.645 10.946 2.431 21.618 5.107 32.13 8.52 10.622 3.447 21.754 6.31 32.35 11.795 2.515 1.302 4.433 3.402 6.747 3.609 1.676.15 3.233.018 4.579-.394l.686-.346.044.087q.2-.082.39-.172c5.215-2.466 8.874-5.612 12.104-10.402.26-.388.755-1.31 1.504-2.403 1.706-2.488 3.354-5.353 5.318-8.089.898-1.25 2.694-3.173 4.313-5.469 1.894-3.659 1.358-7.09-.588-9.678-2.406-4.3-7.084-7.04-13.216-8.81-9.052-3.915-20.012-6.329-29.826-8.68-4.278-1.026-8.568-2.054-12.193-3.03-8.192-2.204-16.303-2.721-24.591-3.25-4.555-.29-9.163-.584-13.811-1.134-9.57-1.133-18.913-2.843-28.192-5.599-9.296-2.76-18.487-6.57-27.72-11.898-14.233-8.215-26.605-17.852-37.486-28.968-10.875-11.109-20.27-23.694-28.558-37.811-9.941-16.933-14.407-36.366-18.845-55.675-2.31-10.053-4.613-20.072-7.637-29.474-2.68-8.335-6.591-19.335-10.233-28.604-2.822-7.184-5.414-13.18-7.007-15.77-2.452-2.136-6.827-2.956-11.662-2.798-6.143.2-12.75 2.022-17.372 4.816-1.223.739-3.07 1.82-4.655 2.747-2.125 1.244-3.021 2.682-4.804 3.912zm.463 45.07c2.428-4.32-1.977-17.295-4.957-24.979-1.53-3.941-5.965-6.41-7.3-10.433l-.092-.277-.025-.106a21 21 0 0 1-.124-.574c-3.311 3.379-6.923 8.13-8.85 12.825-1.081 6.263-3.548 12.119-3.246 19.602.126 3.11.252 5.776.899 8.324.543 2.137 1.875 4.636 3.66 6.169 1.093.938 2.298 1.497 3.268 1.444 1.128-.061 3.03-.784 4.265-1.928 1.79-1.657 3.808-3.637 6.342-5.563 1.808-1.375 5.706-.32 6.16-4.504m-6.363-52.29q.27-.196.55-.385l.001.001c1.919-1.319 3.55-2.274 5.86-3.626.944-.553 2.051-1.2 4.556-2.715 5.778-3.49 13.95-5.765 21.49-6.011 7.179-.234 13.986 1.381 18.176 5.501l.303.298.245.367c1.95 2.914 4.956 9.735 8.118 17.783 3.662 9.322 7.64 20.522 10.4 29.103 3.16 9.83 5.494 19.984 7.836 30.171 4.296 18.694 8.62 37.507 17.881 53.283 7.932 13.511 16.913 25.544 27.296 36.15 10.376 10.6 22.145 19.774 35.66 27.573 8.59 4.958 17.18 8.514 25.892 11.101 8.728 2.593 17.624 4.214 26.796 5.3 4.589.543 8.993.824 13.346 1.101 8.736.557 17.283 1.102 26.252 3.516 4.4 1.184 7.96 2.991 11.736 3.896 10.174 2.438 21.067 5.98 30.021 8.92s13.52 6.181 17.012 10.826c4.023 5.348 5.127 10.327 1.285 17.458l-1.006 1.603c-.706 1.002-1.698 3.04-3.153 5.068-1.75 2.436-3.934 4.777-5.937 7.698-.096.14-.216 1.061-.795 1.92-3.87 5.74-8.555 11.652-15.899 15.125-.475.224-.215.351-.717.531l-.666.337c-7.75 3.918-17.004 8.597-26.083 10.641l-2.903.176c-7.199 1.68-14.657 3.474-20.864 1.449-3.357-1.917-3.2-4.999-7.463-5.805-2.046-2.419-3.656-4.381-4.165-7.946-.527-3.695-.942-7.347-.057-11.029.473-1.968 1.856-4.372 2.959-6.282-6.835-1.909-14.69-3.099-21.666-4.648-5.594-1.243-11.68-2.41-17.772-3.579-11.597-2.224-23.218-4.453-35.043-8.055-9.074-2.763-17.96-5.793-26.458-9.409-8.635-3.674-16.91-7.954-24.639-13.172-14.368-9.701-25.939-20.627-35.675-32.856-9.673-12.15-17.511-25.585-24.474-40.383-2.54-5.396-4.518-10.883-6.51-16.408-.076-.209-.185-.512-1.103-3.029l-.066-.199c-.875-2.822-1.427-4.66-1.98-6.499-1.29-4.296-2.581-8.592-3.987-12.735-5.654-16.665-10.103-32.808-15.285-49.32-.165-.523-.217-1.46-1.244-1.312-1.31.044-2.966.533-3.868 1.22-2.274 1.728-3.331 3.673-4.96 5.18-2.703 2.504-5.66 3.864-8.83 4.037-3.132.171-6.218-.876-9.064-3.32-3.33-2.86-5.068-6.218-6.009-9.921-.837-3.295-.985-6.758-1.131-10.385-.354-8.741 1.07-16.62 3.876-23.456 3.016-7.345 7.623-13.467 13.344-18.157 4.017-3.293 6.507-5.232 8.581-6.692z" style="fill:none"></path><path d="M68.729 385.653c-3.514.513-8.097 9.186-8.672 15.094-.693 7.117-2.386 14.313-.976 21.374.733 3.67 2.742 8.693 6.45 9.188 2.35.314 5.061-2.075 7.126-3.975 1.706-1.57 1.459-3.771.937-6.037-.83-3.61-1.45-9.625-1.35-14.438.026-1.23.592-2.351 1.782-3.393 1.185-1.039 1.861-1.18 1.875-4.22.014-3.112.339-6.729-1.819-9.937-1.23-1.828-2.601-4.058-5.353-3.656M78.62 405.284c-1.996.102-2.769 3.355-3 5.4-.329 2.896.294 5.077.375 7.425.043 1.276.823 2.483 1.406 3.619.713 1.387 2.23 1.227 3.168.731.872-.46.514-1.559 2.27-3.684.614-.745.403-1.974.374-2.935-.045-1.515-.12-2.923-.169-4.35-.036-1.039-.26-2.421-.824-3.318-.793-1.26-2.792-2.93-3.6-2.888" style="fill:none"></path><path d="M78.62 405.284c-1.996.102-2.769 3.355-3 5.4-.329 2.896.294 5.077.375 7.425.043 1.276.823 2.483 1.406 3.619.713 1.387 2.23 1.227 3.168.731.872-.46.514-1.559 2.27-3.684.614-.745.403-1.974.374-2.935-.045-1.515-.12-2.923-.169-4.35-.036-1.039-.26-2.421-.824-3.318-.793-1.26-2.792-2.93-3.6-2.888M73.594 421.297c-.83-3.61-1.45-9.625-1.35-14.438.026-1.23.592-2.351 1.782-3.393 1.185-1.039 1.861-1.18 1.875-4.22.014-3.112.339-6.729-1.819-9.937-1.23-1.828-2.601-4.058-5.353-3.656-3.514.513-8.097 9.186-8.672 15.094-.693 7.117-2.386 14.313-.976 21.374.733 3.67 2.742 8.693 6.45 9.188 2.35.314 5.061-2.075 7.126-3.975 1.706-1.57 1.459-3.771.937-6.037M137.918 502.03l-4.238 1.911 1.54 3.41c.64 1.417 1.984 2.29 3.492 1.607 1.288-.583 1.328-2.224.803-3.389zM141.764 500.284l1.486 3.253c.535 1.171 1.846 1.632 2.674 1.26.894-.401 1.263-1.772.8-2.797l-1.473-3.27zM157.41 522.462l-7.45 2.734 2.417 3.207zM228.307 583.103l-4.372 3.08 2.46 1.118zM265.684 599.222l-.252 1.097c-.272 1.19.35 2.065 1.24 2.264.89.197 1.83-.555 2.095-1.715l.254-1.106c.252-1.101-.332-2.089-1.222-2.295-.997-.233-1.862.653-2.115 1.755M310.332 599.59c-.265 1.098.309 2.092 1.196 2.309.994.243 1.87-.633 2.134-1.732l.264-1.094c.286-1.187-.326-2.07-1.214-2.277s-1.837.534-2.115 1.69z" style="fill:#ff0;fill-rule:evenodd"></path><path d="m266.812 594.094.448-2.023c.265-1.192 1.326-2.08 2.226-1.884.97.212 1.387 1.136 1.242 1.793l-.107.48 5.069 1.12.1-.44c.914-4.035-.651-6.942-5.171-7.95-5.018-1.12-8.537 1.424-9.778 7.185l-1.133 5.263c-1.234 5.734 1.917 9.096 5.94 9.977 4.085.895 7.34-1.888 8.216-5.756 1.008-4.45-.158-7.36-3.989-8.195-1.04-.227-2.217.005-3.063.43m-1.128 5.128c.252-1.102 1.118-1.988 2.115-1.756.89.207 1.474 1.195 1.222 2.296l-.254 1.106c-.265 1.16-1.205 1.912-2.095 1.714s-1.512-1.073-1.24-2.263zM312.478 605.282l-.471 2.018c-.277 1.189-1.348 2.065-2.246 1.859-.968-.223-1.374-1.151-1.222-1.807l.112-.479-5.056-1.175-.105.44c-.96 4.024.575 6.947 5.083 8.006 5.005 1.176 8.552-1.33 9.856-7.077l1.191-5.25c1.298-5.72-1.816-9.116-5.828-10.042-4.076-.94-7.362 1.806-8.28 5.664-1.057 4.44.076 7.361 3.898 8.24 1.039.238 2.216.02 3.068-.397m-.95-3.383c-.887-.217-1.46-1.211-1.196-2.31l.265-1.103c.278-1.156 1.227-1.898 2.115-1.69s1.5 1.09 1.214 2.277l-.264 1.094c-.265 1.1-1.14 1.975-2.134 1.732M332.669 605.195l-3.906 12.782 5.348 1.596 6.72-21.98-4.336-1.338c-1.434 2.104-3.92 3.285-7.368 4.448l-1.757 5.859c1.5-.067 3.815-.584 5.299-1.367M354.134 607.016c-2.476 1.861-4.914 4.94-6.54 7.328-1.653 2.425-2.815 5.228-3.758 7.98l5.073 1.859c2.124-5.824 6.365-12.08 11.132-15.057l1.729-4.65-13.162-4.847-1.677 4.774zM230.999 594.508l1.915-4.255-1.94-.873 5.423-12.018-4.91-2.208-12.88 8.555-1.986 4.319 7.837 3.537-2.111 4.65 4.57 2.088 2.118-4.662zm-4.605-7.207-2.46-1.117 4.373-3.081zM206.378 588.17l2.295-4.615-5.518-2.766c.78-.727 2.27-1.436 3.365-1.738 3.174-.876 5.926-2.997 7.251-5.661 1.708-3.432 1.09-6.7-3.327-8.909-4.943-2.472-9.104.945-10.806 4.332l5.292 2.666c.554-1.15 1.874-3.105 3.354-2.369 1.21.601 1.097 1.63.634 2.528-.57 1.107-2.55 1.96-4.477 2.581-1.513.489-2.958 1.102-4.421 1.719-2.772 1.168-4.566 1.999-6.496 5.69zM167.402 560.99l3.52-3.773-6.034-5.653 12.116-13.033-4.738-4.455-15.7 16.724zM149.421 541.458l14.377-19.079-4.423-5.847-23.477 7.062 3.938 5.21 5.965-2.02 3.708 4.879-3.853 4.812zm.54-16.262 7.45-2.734-5.034 5.941zM140.562 513.823c1.775-.766 3.105-2.604 3.253-4.374 1.768.826 3.013.675 4.737-.091 3.244-1.444 5.012-4.478 2.772-9.454l-3.852-8.552-20.893 9.45 4.053 9.04c2.056 4.586 6.108 5.63 9.93 3.98m5.362-9.026c-.828.372-2.14-.089-2.674-1.26l-1.486-3.254 3.487-1.553 1.473 3.27c.463 1.025.094 2.396-.8 2.797m-12.244-.856 4.238-1.91 1.597 3.538c.525 1.165.485 2.806-.803 3.39-1.508.682-2.852-.19-3.492-1.608zM117.763 478.308c1.651 4.807 5.375 7.206 10.139 5.5l14.34-5.134-1.831-5.236-14.527 5.134c-1.204.425-2.733-.397-3.26-1.962-.537-1.594.413-2.913 1.621-3.337l14.34-5.037-2.156-6.004-14.092 4.965c-4.884 1.722-6.225 6.304-4.574 11.11" style="fill:#070208;fill-rule:evenodd"></path><path d="m139.647 471.388 6.591 1.767-1.545-4.373-5.871.218zM111.704 455.734l16.81-6.078 1.789 4.886 4.81-1.757-5.783-15.92-4.832 1.762 1.994 5.458-16.786 6.11zM106.693 435.142l4.916-1.559-3.215-9.902 4.188-1.326 2.885 9.128 4.503-1.46-2.873-9.09 3.502-1.142 3.12 9.893 4.87-1.534-4.817-15.085-21.866 7.003zM98.399 402.624c.47 5.307 4.916 7.89 8.203 7.687 4.293-.263 6.617-4.453 6.19-9.399-.1-1.155.841-2.497 1.909-2.58 1.264-.099 2.276.513 2.428 1.884.158 1.427-.447 2.53-2.568 2.727l.405 5.262c5.459-.421 6.926-3.274 6.523-8.439-.384-4.919-3.54-7.418-7.07-7.282-3.49.135-6.234 3.322-6.083 8.133.078 2.447-1.017 3.664-2.333 3.75-1.116.073-2.172-.492-2.318-2.549-.13-1.846.88-2.889 1.979-2.963l.95-.065-.458-6.043c-5.988.259-8.341 3.303-7.757 9.877" style="fill:#070208;fill-rule:evenodd"></path><path d="M203.127 596.353c-8.136-3.461-15.931-7.494-23.21-12.408-13.627-9.2-24.582-19.539-33.782-31.095-9.262-11.634-16.771-24.506-23.445-38.69-2.385-5.07-4.292-10.355-6.21-15.676l-1.072-2.979a999 999 0 0 1-1.912-6.316c-1.299-4.327-2.6-8.654-4.086-13.034-5.818-17.151-12.088-33.886-17.46-51.043l-1.358-4.44c-2.815-9.241-5.262-18.66-8.775-27.714-1.487-3.834-2.543-5.56-3.736-9.12-.394-1.772.928-4.241 1.401-5.465.48-1.24 1.727-3.405 3.2-4.4l-.008-.01c1.783-1.23 2.68-2.668 4.804-3.912a446 446 0 0 0 4.655-2.747c4.623-2.794 11.23-4.616 17.372-4.816 4.836-.158 9.21.662 11.662 2.798 1.593 2.59 4.185 8.586 7.007 15.77 3.642 9.269 7.553 20.27 10.233 28.604 3.024 9.402 5.327 19.421 7.637 29.474 4.438 19.31 8.904 38.742 18.845 55.675 8.287 14.117 17.683 26.702 28.558 37.81 10.881 11.117 23.253 20.754 37.487 28.969 9.232 5.328 18.424 9.138 27.719 11.898 9.28 2.756 18.623 4.466 28.192 5.6 4.648.55 9.256.843 13.81 1.133 8.29.529 16.4 1.046 24.592 3.25 3.625.976 7.915 2.004 12.193 3.03 9.814 2.351 20.774 4.765 29.826 8.68 6.132 1.77 10.81 4.51 13.216 8.81 1.946 2.587 2.482 6.02.588 9.678-1.62 2.296-3.415 4.22-4.313 5.47-1.964 2.736-3.612 5.6-5.318 8.088-.75 1.092-1.243 2.015-1.504 2.402-3.23 4.79-6.889 7.937-12.103 10.403l-.391.172-.044-.087-.686.346c-1.346.412-2.903.543-4.58.394-2.313-.207-4.231-2.307-6.746-3.609-10.596-5.485-21.728-8.347-32.35-11.796-10.512-3.412-21.184-6.088-32.13-8.52-6.31-1.4-12.154-2.522-18.004-3.644-11.462-2.198-22.948-4.402-34.18-7.823-8.737-2.66-17.322-5.59-25.594-9.11m58.179 25.271c6.092 1.168 12.178 2.336 17.772 3.578 6.976 1.55 14.83 2.74 21.666 4.648-1.103 1.91-2.486 4.314-2.959 6.283-.885 3.682-.47 7.333.057 11.029.51 3.564 2.12 5.527 4.165 7.946 4.263.806 4.106 3.887 7.463 5.804 6.207 2.026 13.665.232 20.864-1.449l2.903-.175c9.08-2.045 18.332-6.723 26.083-10.642l.666-.336c.502-.18.242-.307.717-.532 7.344-3.473 12.03-9.385 15.9-15.125.578-.858.698-1.78.794-1.92 2.003-2.92 4.188-5.261 5.937-7.698 1.455-2.027 2.447-4.066 3.153-5.067l1.007-1.604c3.841-7.13 2.737-12.11-1.286-17.458-3.492-4.644-8.057-7.885-17.012-10.826-8.954-2.94-19.847-6.482-30.021-8.92-3.776-.904-7.335-2.712-11.736-3.896-8.968-2.414-17.516-2.958-26.252-3.515-4.353-.277-8.757-.558-13.345-1.101-9.173-1.087-18.068-2.708-26.797-5.3-8.713-2.587-17.302-6.144-25.893-11.102-13.514-7.799-25.283-16.973-35.66-27.572-10.382-10.606-19.363-22.64-27.295-36.15-9.261-15.777-13.585-34.59-17.881-53.283-2.342-10.188-4.675-20.342-7.837-30.172-2.76-8.58-6.737-19.781-10.399-29.102-3.162-8.049-6.168-14.87-8.118-17.784l-.245-.366-.303-.298c-4.19-4.12-10.997-5.736-18.175-5.502-7.54.246-15.713 2.52-21.49 6.012a327 327 0 0 1-4.557 2.714c-2.31 1.353-3.941 2.308-5.86 3.625l-.55.384c-2.075 1.46-4.565 3.4-8.582 6.692-5.72 4.69-10.328 10.812-13.344 18.158-2.807 6.836-4.23 14.714-3.876 23.456.146 3.627.294 7.09 1.131 10.384.94 3.704 2.68 7.062 6.01 9.921 2.845 2.444 5.93 3.492 9.063 3.32 3.17-.173 6.127-1.533 8.83-4.036 1.629-1.507 2.686-3.453 4.96-5.181.902-.686 2.558-1.175 3.868-1.22 1.027-.148 1.08.79 1.244 1.313 5.183 16.512 9.631 32.655 15.285 49.32 1.406 4.142 2.697 8.439 3.987 12.734.553 1.839 1.105 3.678 1.98 6.5l.066.199 1.103 3.029c1.992 5.524 3.97 11.011 6.51 16.407 6.963 14.799 14.801 28.233 24.475 40.384 9.735 12.228 21.306 23.154 35.674 32.855 7.729 5.218 16.004 9.499 24.639 13.172 8.497 3.616 17.384 6.646 26.458 9.41 11.825 3.601 23.446 5.83 35.043 8.055m43.33 17.012c.419-1.745.413-2.61 1.833-3.698 1.256-.964 3.003.115 3.716.347 10.229 3.32 29.182 9.681 30.095 11.04.845 1.256 1.158 2.54.279 3.32-3.86 1.652-5.138 1.93-8.9 2.777-1.841.415-2.685.614-3.139.72-6.088 1.421-12.473 3.013-16.426 1.724-2.248-.734-4.298-2.34-5.26-3.477-.929-1.099-1.616-2.386-1.9-4.373-.397-2.783-.732-5.801-.299-8.38M78.185 394.064c2.981 7.684 7.386 20.659 4.958 24.98-.21 1.93-1.153 2.745-2.285 3.198a1.1 1.1 0 0 1-.29.217c-.477.252-1.104.418-1.699.337-.711.172-1.38.366-1.886.75a55 55 0 0 0-3.793 3.194q-.227.31-.534.594a43 43 0 0 1-1.9 1.67l-.115.106c-.347.321-.746.61-1.166.859-1.315.897-2.682 1.509-3.945 1.34-3.708-.495-5.717-5.519-6.45-9.188-.464-2.323-.592-4.661-.53-7.006v-.014c-.138-3.4.296-6.464.912-9.383.218-1.66.433-3.318.594-4.971.517-5.313 4.276-12.864 7.584-14.703a49 49 0 0 1 3.005-3.37l.124.574.025.105.092.277c1.335 4.024 5.77 6.493 7.3 10.434" style="fill:#070208;fill-rule:evenodd"></path><path d="M75.995 418.11c-.08-2.35-.704-4.53-.375-7.426.231-2.045 1.004-5.298 3-5.4.808-.041 2.807 1.628 3.6 2.888.564.897.788 2.28.824 3.319.05 1.426.124 2.834.17 4.35.028.96.24 2.19-.376 2.934-1.523 1.844-1.455 2.915-1.98 3.467 1.133-.453 2.077-1.268 2.286-3.199 2.428-4.32-1.977-17.295-4.957-24.979-1.53-3.941-5.965-6.41-7.3-10.433l-.092-.277-.025-.106-.124-.574a49 49 0 0 0-3.005 3.37c.37-.205.734-.34 1.088-.391 2.752-.402 4.123 1.828 5.353 3.656 2.158 3.208 1.833 6.825 1.819 9.938-.014 3.04-.69 3.18-1.875 4.219-1.19 1.042-1.756 2.163-1.782 3.393-.1 4.813.52 10.829 1.35 14.438.459 1.993.706 3.936-.403 5.443a55 55 0 0 1 3.793-3.193c.505-.385 1.175-.58 1.886-.751-.574-.079-1.12-.387-1.47-1.068-.583-1.135-1.362-2.343-1.405-3.619" style="fill:#070208;fill-rule:evenodd"></path><path d="M286.845 579.085c-9.57-1.133-18.913-2.843-28.192-5.599-9.296-2.76-18.487-6.57-27.72-11.898-14.233-8.215-26.605-17.852-37.486-28.968-10.875-11.109-20.27-23.694-28.558-37.811-9.941-16.933-14.407-36.366-18.845-55.675-2.31-10.053-4.613-20.072-7.637-29.474-2.68-8.335-6.591-19.335-10.233-28.604-2.822-7.184-5.414-13.18-7.007-15.77-2.452-2.136-6.827-2.956-11.662-2.798-6.143.2-12.75 2.022-17.372 4.816-1.223.739-3.07 1.82-4.655 2.747-2.125 1.244-3.021 2.682-4.804 3.912l.007.01c-1.472.994-2.72 3.16-3.199 4.4-.473 1.224-1.795 3.693-1.401 5.465 1.193 3.56 2.25 5.286 3.736 9.12 3.513 9.054 5.96 18.473 8.775 27.714l1.358 4.44c5.372 17.156 11.642 33.892 17.46 51.043 1.486 4.38 2.787 8.707 4.086 13.034.725 2.412 1.45 4.825 1.912 6.316l1.071 2.979c1.92 5.321 3.826 10.607 6.211 15.677 6.674 14.183 14.183 27.055 23.445 38.689 9.2 11.556 20.155 21.895 33.782 31.095 7.279 4.914 15.074 8.947 23.21 12.408 8.272 3.52 16.857 6.45 25.594 9.11 11.232 3.421 22.718 5.625 34.18 7.823 5.85 1.122 11.694 2.243 18.004 3.645 10.946 2.431 21.618 5.107 32.13 8.52 10.622 3.447 21.754 6.31 32.35 11.795 2.515 1.302 4.433 3.402 6.747 3.609 1.676.15 3.233.018 4.579-.394l.686-.346.044.087.39-.172c5.215-2.466 8.874-5.612 12.104-10.402.26-.388.755-1.31 1.504-2.403 1.706-2.488 3.354-5.353 5.318-8.089.898-1.25 2.694-3.173 4.313-5.469 1.894-3.659 1.358-7.09-.588-9.678-2.406-4.3-7.084-7.04-13.216-8.81-9.052-3.915-20.012-6.329-29.826-8.68-4.278-1.026-8.568-2.054-12.193-3.03-8.192-2.204-16.303-2.721-24.591-3.25-4.555-.29-9.163-.584-13.811-1.134M129.33 436.865l5.783 15.92-4.81 1.757-1.789-4.886-16.81 6.078-1.998-5.539 16.786-6.11-1.994-5.458zm-9.36-6.842-4.503 1.46-2.885-9.128-4.188 1.326 3.215 9.902-4.916 1.559-4.787-15.074 21.866-7.003 4.817 15.085-4.87 1.533-3.12-9.892-3.502 1.142zm24.723 38.758 1.545 4.373-6.59-1.766-.826-2.388zm6.63 31.123c2.241 4.976.473 8.01-2.77 9.454-1.725.766-2.97.917-4.737.09-.149 1.77-1.48 3.609-3.254 4.375-3.822 1.648-7.874.605-9.93-3.98l-4.053-9.042 20.893-9.45zm-23.421-16.096c-4.764 1.706-8.488-.693-10.139-5.5s-.31-9.389 4.574-11.11l14.093-4.966 2.155 6.004-14.34 5.037c-1.208.424-2.158 1.743-1.621 3.337.527 1.565 2.057 2.387 3.26 1.962l14.527-5.134 1.832 5.236zm49.102 54.723-12.116 13.033 6.034 5.653-3.52 3.772-10.835-10.189 15.7-16.724zm-17.629-21.999 4.423 5.847-14.377 19.08-3.765-4.984 3.853-4.812-3.708-4.88-5.965 2.022-3.938-5.21zM270.62 585.19c4.52 1.01 6.085 3.916 5.17 7.95l-.1.441-5.068-1.12.107-.48c.144-.657-.272-1.58-1.243-1.793-.9-.196-1.96.692-2.225 1.884l-.448 2.023c.846-.425 2.022-.657 3.063-.43 3.831.835 4.997 3.744 3.989 8.195-.875 3.868-4.131 6.651-8.217 5.755-4.022-.88-7.173-4.242-5.939-9.976l1.133-5.263c1.241-5.76 4.76-8.306 9.778-7.186m-27.335 1.828 8.411 2.51-1.766 5.938-8.41-2.509zm-6.887-9.655-5.423 12.018 1.94.873-1.915 4.255-1.964-.867-2.118 4.662-4.57-2.089 2.111-4.65-7.837-3.536 1.987-4.32 12.88-8.554zm-27.724 6.193-2.295 4.614-12.854-6.542c1.93-3.69 3.724-4.52 6.496-5.69 1.463-.616 2.908-1.23 4.42-1.718 1.929-.62 3.908-1.474 4.478-2.581.463-.899.575-1.927-.634-2.528-1.48-.736-2.8 1.218-3.354 2.37l-5.292-2.667c1.702-3.387 5.863-6.804 10.806-4.332 4.416 2.21 5.035 5.477 3.327 8.909-1.325 2.664-4.077 4.785-7.25 5.66-1.096.303-2.585 1.012-3.366 1.739zM106.602 410.311c-3.287.203-7.732-2.38-8.204-7.687-.583-6.574 1.77-9.618 7.758-9.877l.457 6.043-.95.065c-1.098.074-2.109 1.117-1.978 2.963.146 2.057 1.202 2.622 2.318 2.549 1.316-.086 2.41-1.302 2.333-3.75-.151-4.811 2.592-7.998 6.082-8.133 3.531-.136 6.687 2.363 7.07 7.282.404 5.165-1.064 8.018-6.522 8.44l-.405-5.263c2.121-.197 2.726-1.3 2.568-2.727-.153-1.371-1.164-1.983-2.428-1.884-1.068.083-2.009 1.425-1.909 2.58.427 4.946-1.897 9.136-6.19 9.4m198.91 187.128c.918-3.858 4.204-6.604 8.28-5.664 4.012.926 7.126 4.321 5.828 10.041l-1.19 5.25c-1.305 5.747-4.852 8.254-9.857 7.078-4.508-1.059-6.042-3.982-5.083-8.007l.105-.439 5.056 1.175-.112.48c-.152.655.254 1.583 1.222 1.806.898.206 1.969-.67 2.246-1.86l.471-2.017c-.851.416-2.03.635-3.068.396-3.822-.878-4.955-3.799-3.898-8.239m21.858 9.123 1.757-5.86c3.448-1.163 5.934-2.343 7.368-4.447l4.336 1.338-6.72 21.98-5.348-1.596 3.906-12.782c-1.484.783-3.798 1.3-5.3 1.367m20.223 7.782c1.627-2.388 4.065-5.467 6.541-7.328l-7.203-2.613 1.677-4.775 13.162 4.848-1.73 4.65c-4.766 2.976-9.007 9.233-11.13 15.057l-5.074-1.86c.943-2.75 2.105-5.554 3.757-7.979m-61.152-18.161 8.621 1.646-1.1 5.98-8.622-1.645zM340.28 646.324c-.912-1.358-19.866-7.719-30.095-11.04-.713-.231-2.46-1.31-3.716-.346-1.42 1.088-1.414 1.953-1.834 3.698-.433 2.579-.098 5.597.3 8.38.283 1.987.97 3.274 1.9 4.373.96 1.137 3.011 2.743 5.26 3.476 3.952 1.29 10.337-.302 16.425-1.723.454-.106 1.298-.305 3.138-.72 3.763-.847 5.042-1.125 8.9-2.778.88-.779.567-2.063-.278-3.32" style="fill:#ff0;fill-rule:evenodd"></path><path d="M376.757 619.136c-1.964 2.737-3.612 5.6-5.318 8.089-.75 1.092-1.243 2.015-1.504 2.402-3.23 4.79-6.889 7.937-12.103 10.403l-.391.172-.044-.087-.686.346c-1.346.412-2.903.543-4.58.394-2.313-.207-4.231-2.307-6.746-3.609-10.596-5.485-21.728-8.347-32.35-11.796-10.512-3.412-21.184-6.088-32.13-8.52-6.31-1.4-12.154-2.522-18.004-3.644-11.462-2.198-22.948-4.402-34.18-7.823-8.737-2.66-17.322-5.59-25.594-9.11-8.136-3.461-15.931-7.494-23.21-12.408-13.626-9.2-24.581-19.539-33.782-31.095-9.262-11.634-16.771-24.506-23.445-38.69-2.385-5.07-4.292-10.355-6.21-15.676l-1.072-2.979a999 999 0 0 1-1.912-6.316c-1.299-4.327-2.6-8.654-4.086-13.034-5.818-17.151-12.088-33.886-17.46-51.043l-1.358-4.44c-2.815-9.241-5.262-18.66-8.774-27.714-1.488-3.834-2.544-5.56-3.737-9.12-.394-1.772.928-4.241 1.401-5.465.48-1.24 1.728-3.405 3.2-4.4l-.008-.01c1.783-1.23 2.68-2.668 4.804-3.912a446 446 0 0 0 4.655-2.747c4.623-2.794 11.23-4.616 17.372-4.816 4.836-.158 9.21.662 11.662 2.798 1.593 2.59 4.185 8.586 7.007 15.77 3.642 9.269 7.553 20.27 10.233 28.604 3.024 9.402 5.327 19.421 7.637 29.474 4.438 19.31 8.904 38.742 18.845 55.675 8.287 14.117 17.683 26.702 28.558 37.81 10.881 11.117 23.253 20.754 37.487 28.969 9.232 5.328 18.424 9.138 27.719 11.898 9.28 2.756 18.623 4.466 28.192 5.6 4.648.55 9.256.843 13.81 1.133 8.29.529 16.4 1.046 24.592 3.25 3.625.976 7.915 2.004 12.193 3.03 9.814 2.351 20.774 4.765 29.826 8.68 6.132 1.77 10.81 4.51 13.216 8.81 1.946 2.587 2.482 6.02.588 9.678-1.62 2.296-3.415 4.22-4.313 5.47m-70.288 15.802c1.256-.964 3.003.115 3.716.347 10.229 3.32 29.182 9.681 30.095 11.04.845 1.256 1.158 2.54.279 3.32-3.86 1.652-5.138 1.93-8.9 2.777-1.841.415-2.685.614-3.139.72-6.088 1.421-12.473 3.013-16.426 1.724-2.248-.734-4.298-2.34-5.26-3.477-.929-1.099-1.616-2.386-1.9-4.373-.397-2.783-.732-5.801-.299-8.38.42-1.745.414-2.61 1.834-3.698m-8.626 12.224c.398 2.79 1.47 4.598 2.899 6.412h.222c.658 0 1.137-.146 1.74-.362.541.095 1.089.237 1.635.237h.589l.205.169c.211.275.477.526.724.773l1.125 1.124.204.192q.058.214.14.424c.07.601.237.982.488 1.512q.027.314.106.625c.002.426.023.838.13 1.268q.007.183.029.365c.394.358.846.7 1.391 1.011 6.208 2.026 13.665.232 20.864-1.449l2.903-.175c9.08-2.045 18.333-6.723 26.083-10.642l.666-.336c.502-.18.242-.307.717-.532 7.344-3.473 12.03-9.385 15.9-15.125.578-.858.698-1.78.794-1.92 2.003-2.92 4.188-5.261 5.937-7.698 1.455-2.027 2.447-4.066 3.153-5.067l1.007-1.604c1.544-2.867 2.29-5.386 2.366-7.721l-.837-.26-.857-.442a4 4 0 0 0-.546-.58l-2.36-1.61-1.18-.774c-.003-.041-.036-.067-.076-.067l.025-1.02c-3.331-1.506-1.747-3.904-5.15-4.007.727 2.542.714.33 1.975 3.25a1.3 1.3 0 0 1-.162-.202l-.027-.028a.08.08 0 0 0-.022-.044v.021c0-.05-.162-.23-.162-.238l-.02-.016-.631-.65c-.006-.066-.421-.456-.516-.517v.023a.5.5 0 0 0-.144-.163l-.564-.498-.046-.021-.688-.421c-.007-.03-.017-.064-.043-.082-.007-.045-.09-.19-.152-.169l-1.343-1.028c-.018-.06-.08-.067-.12-.043l-.038-.025-.754-.47-.292-.274v-1.055c.426-.769.75-1.556.75-2.449 0-.974.5-1.184.5-2.5v-1.338c-2.036-1.007-4.398-1.95-7.184-2.866-8.954-2.94-19.847-6.482-30.021-8.92-3.776-.904-7.335-2.712-11.736-3.896-8.968-2.414-17.516-2.958-26.252-3.515-4.353-.277-8.757-.558-13.345-1.101-9.173-1.087-18.068-2.708-26.797-5.3-8.713-2.587-17.302-6.144-25.893-11.102-13.514-7.799-25.283-16.973-35.66-27.572-10.382-10.606-19.363-22.64-27.295-36.15-9.261-15.777-13.585-34.59-17.881-53.283-2.342-10.188-4.675-20.342-7.837-30.172-2.76-8.58-6.737-19.781-10.399-29.102-3.162-8.049-6.168-14.87-8.118-17.784l-.245-.366-.303-.298c-4.19-4.12-10.997-5.736-18.175-5.502-7.54.246-15.713 2.52-21.49 6.012a327 327 0 0 1-4.557 2.714c-2.31 1.353-3.941 2.308-5.86 3.625l-.55.384c-2.075 1.46-4.565 3.4-8.582 6.692-5.72 4.69-10.328 10.812-13.344 18.158-2.807 6.836-4.23 14.714-3.876 23.456.146 3.627.294 7.09 1.131 10.384.94 3.704 2.68 7.062 6.01 9.921 2.845 2.444 5.93 3.492 9.063 3.32 3.17-.173 6.127-1.533 8.83-4.036 1.629-1.507 2.686-3.453 4.96-5.181.902-.686 2.558-1.175 3.868-1.22 1.027-.148 1.08.79 1.244 1.313 5.183 16.512 9.631 32.655 15.285 49.32 1.406 4.142 2.697 8.438 3.987 12.734.553 1.839 1.105 3.678 1.98 6.5l.066.199 1.103 3.029c1.992 5.524 3.97 11.011 6.51 16.407 6.963 14.799 14.801 28.233 24.475 40.384 9.735 12.228 21.306 23.154 35.674 32.855 7.729 5.218 16.004 9.499 24.639 13.172 8.497 3.616 17.384 6.646 26.458 9.41 11.825 3.601 23.446 5.83 35.043 8.055 6.092 1.168 12.178 2.336 17.772 3.578 6.976 1.55 14.83 2.74 21.666 4.648-1.103 1.91-2.486 4.314-2.959 6.283-.885 3.682-.47 7.333.058 11.029M58.55 415.115v-.014zm22.018 7.344c-.477.252-1.104.418-1.699.337-.711.172-1.38.366-1.886.75a55 55 0 0 0-3.793 3.194q-.227.31-.534.594a43 43 0 0 1-1.9 1.67l-.115.106c-.347.321-.746.61-1.166.859-1.315.897-2.682 1.509-3.945 1.34-3.708-.495-5.717-5.519-6.45-9.188-.464-2.323-.592-4.661-.53-7.006v-.014c-.138-3.4.296-6.464.912-9.383.218-1.66.433-3.318.594-4.971.517-5.313 4.276-12.864 7.584-14.703a49 49 0 0 1 3.005-3.37l.124.574.025.105.092.277c1.335 4.024 5.77 6.493 7.3 10.434 2.98 7.683 7.385 20.659 4.957 24.98-.21 1.93-1.153 2.745-2.285 3.198a1.1 1.1 0 0 1-.29.217" style="fill:#061606;fill-rule:evenodd"></path><path d="M83.144 419.043c2.428-4.32-1.977-17.295-4.957-24.979-1.53-3.941-5.965-6.41-7.3-10.433l-.092-.277-.025-.106-.124-.574a49 49 0 0 0-3.005 3.37c.37-.205.734-.34 1.088-.391 2.752-.402 4.123 1.828 5.353 3.656 2.158 3.208 1.833 6.825 1.819 9.938-.014 3.04-.69 3.18-1.875 4.219-1.19 1.042-1.756 2.163-1.782 3.393-.1 4.813.52 10.829 1.35 14.438.459 1.993.706 3.936-.403 5.443a55 55 0 0 1 3.793-3.193c.505-.385 1.175-.58 1.886-.751-.574-.079-1.12-.387-1.47-1.068-.583-1.135-1.362-2.343-1.405-3.619-.08-2.348-.704-4.528-.375-7.425.231-2.045 1.004-5.298 3-5.4.808-.041 2.807 1.628 3.6 2.888.564.897.788 2.28.824 3.319.05 1.426.124 2.834.17 4.35.028.96.24 2.19-.376 2.934-1.523 1.844-1.455 2.915-1.98 3.467 1.133-.453 2.077-1.268 2.286-3.199M297.071 552.703c34.389 0 65.452-13.58 87.84-35.726 22.255-22.014 36.012-52.532 36.012-86.625 0-34.031-13.684-64.328-35.835-86.14-22.4-22.057-53.505-35.524-87.954-35.524-34.462 0-65.604 13.473-88.033 35.54-22.174 21.815-35.88 52.105-35.88 86.124 0 34.093 13.755 64.61 36.01 86.625 22.389 22.147 53.452 35.726 87.84 35.726m108.968-14.481c-27.905 27.603-66.45 44.528-108.968 44.528s-81.062-16.925-108.967-44.529c-27.767-27.467-44.931-65.473-44.931-107.87 0-42.366 17.16-80.176 44.918-107.485 27.911-27.46 66.493-44.225 109.043-44.225 42.544 0 81.087 16.76 108.963 44.209 27.738 27.313 44.873 65.13 44.873 107.502 0 42.396-17.164 80.402-44.931 107.87" style="fill:#061606;fill-rule:evenodd"></path><path d="M487.97 343.799c-.705-8.169 5.108-9.564 10.518-13.495 4.778-3.47 8.953-6.176 13.688-9.829 2.707-2.088 24.002-20.08 26.47-21.002-2.954 9.564-13.411 27.9-18.752 34.781-3.486 4.491-23.546 26.49-29.76 21.138-5.855-5.042 6.455-8.423 17.425-18.324 1.821-1.644 3.095-3.4 4.807-5.038 3.96-3.793 10.787-10.622 11.839-16.12l-10.09 10.296c-8.178 7.864-10.53 13.248-18.331 16.228 1.357-4.737 2.42-2.61 3.594-7.334-7.906 1.678-4.497 8.613-11.407 8.699M454.043 338.29l22.206 10.856c.484 6.49 1.097 7.747-5.815 7.378-3.974-.212-7.916-.747-11.652-1.767-7.712-2.105-12.21-5.492-17.088-9.462-5.738-4.67-17.859-22.188-20.048-33.1 5.254 1.427 10.807 4.61 16.292 6.539 12.296 4.323 21.743 2.789 32.232 11.733 4.26 3.634 6.925 7.67 6.69 16.054-3.271-1.043-15.663-6.883-18.618-11.744-4.034-6.631-7.206-11.483-16.87-12.117 2.299 4.996 5.06 2.651 11.163 9.117l-4.791 1.517c.223 3.311.155 2.328 6.299 4.996M489.921 322.994c-.04-.102-1.39.009-.106-2.829.023-.049 1.426-1.646 1.44-1.66 1.88-1.69 6.062-2.958 4.613 1.448-.297.901-2.37 4-5.947 3.04M477.506 328.263c-5.336.754-4.778-3.069-4.067-7.812 2.957.839 5.053 4.426 4.067 7.812M498.873 398.02c.066-3.566-.162-7.464-.017-10.931.166-4.005 1.618-5.198 3.366-7.545 13.51-18.118 25.692-14.538 38.343-23.117-.016 7.233-11.514 28.705-15.103 33.446-3.602 4.756-7.22 8.21-11.92 12.351-3.197 2.816-10.288 9.745-14.671 8.774-1.231-6.092-.81-8.654 2.964-11.38 5.291-3.82 21.393-16.738 22.144-22.04-2.182 3.364-10.851 9.104-14.907 11.256-3.524-2.19.384-1.48-3.033-3-1.417 2.14-.903 6.02-4.238 9.92-1.881 2.202-.201.97-2.928 2.267M500.326 366.325c-.204-4.143 4.216-7.391 8.95-7.404-.32 3.081-1.077 4.474-2.902 5.81-1.64 1.202-3.527 2.15-6.048 1.594M475.903 399.843c4.875 1.92 9.4 4.07 13.494 5.924.086 5.525 2.07 8.744-3.75 8.639-18.28-.33-43.4-21.936-45.038-40.496 6.842 2.79 4.658 3.363 15 5.261 5.925 1.089 9.965 1.318 15.612 3.354 5.833 2.105 8.195 3.735 12.594 7.12 5.047 3.886 5.674 4.926 5.405 13.653-2.524-.894-5.393-3.461-7.823-5.128-9.81-6.728-13.22-1.77-16.846-8.976-1.487-2.953-2.444-4.604-8.74-3.112-.508 3.878 2.422 4.206 6.397 5.553-1.444 3.685-1.217-.187-1.395 3.583 2.895 2.271 10.604 2.857 15.09 4.625M468.858 437.21c-1.035.528-.785.301-1.579.683-1.593.766-1.138.595-1.482.835 5.942 7.448 11.753 12.172 17.62 18.84 5.06 5.751 3.488 11.157.46 12.923-8.925 5.204-35.102-35.994-35.779-54.319 13.611 5.767 29.482 14.07 36.958 26.108 2.443 3.936 4.466 7.503 3.544 12.28-.57 2.958-1.52 3.395-1.524 3.4-3.244-1.433-7.763-8.487-10.645-11.635-2.795-3.052-2.537-2.834-3.825-7.53-.763-2.787-1.257-5.713-3.735-6.94-.886 1.369-.27-.309-.403 1.488zM507.604 425.317c2.4-4.042 14.783-8.148 12.324-2.312-.57 1.352-2.863 2.6-4.57 3.033-2.973.752-5.528.185-7.754-.721M495.53 459.908c-.078-8.706 1.698-11.566 6.397-15.459 3.658-3.03 8.222-6.042 13.11-8.104 7.446-3.142 25.578-6.639 34.122-8.252-2.597 10.09-28.208 33.304-35.403 37.308-7.668 4.265-23.385 9.288-19.167-1.66 1.686-4.373 7.83-3.33 14.956-7.856 4.17-2.65 4.94-4.879 7.893-7.249 5.3-4.252 9.734.898 10.42-4.7l-6.043-.62c-.103-3.094 1.282-5.11.942-5.965-1.382-3.473-4.396 6.345-8.506 11.873-2.458 3.304-12.334 10.577-18.72 10.684M490.865 487.923c1.73-3.124 6.555-6.247 10.753-3.684-.893 4.808-6.025 4.946-10.753 3.684M466.88 528.232c.675-3.652 6.189-12.197 8.281-14.962 9.099-12.016 16.499-14.54 31.627-15.055 8.07-.275 13.49-1.754 20.726-2.526-1.776 4.01-11.983 13.82-15.47 16.536-8.962 6.98-38.62 25.25-45.164 16.007M436.32 522.152c.87 4.02.527 3.453-.317 4.728-1.321-2.783-4.472-5.727-2.782-8.622 2.816.532 2.365.501 3.098 3.894M417.935 513.88c1.275-.507-.196-.702 1.349.307.143.094.826.765 1.056 1.015 10.635 11.517 17.282 27.206 13.735 43.386-.974 4.442-5.586 10.438-10.287 9.513-1.792-11.356 3.815-7.838 5.4-16.811-4.634.128-1.127 2.468-5.713 3.302-1.542-5.113 1.794-15.542-1.632-18.675-2.168 3.047-1.36 29.348-1.549 35.591-11.111 1.33-9.027-18.94-7.284-27.137 1.045-4.907 2.771-9.382 3.586-14.568.659-4.188.066-12.567 1.339-15.924M468.07 544.149c4.622-1.568 9.871-2.628 15.614-2.436-.956 1.73.227.498-1.567 2.029l-5.628 2.153-7.023-.832c-2.213-.937-.398-.184-1.396-.914M443.353 561.371c16.267-16.181 40.527-5.494 50.69 10.097-1.886 1.348-5.25 1.39-7.568 1.71-2.323.319-4.908.805-7.167 1.148-12.734 1.938-33.448 3.02-41.545-7.41 1.042-1.864 1.849-3.118 3.177-4.278 7.184 2.52 1.5 5.94 27.203 6.37 5.026.085 6.824 1.004 6.879-3.747-4.574.358-16.822 5.388-21.225.235 3.552-1.662 6.82-.998 9.606-3.13-4.747-3.657-11.481 4.476-20.05-.995M390.63 591.098c-4.22 2.225-15.737 11.19-13.8.677 2.884-15.639 15.685-47.945 25.158-51.997 1.664 7.965 1.939 20.118 1.394 28.482-.674 10.349-.622 17.58-9.337 20.376-.854-5.933 1.625-5.158 3.64-8.824-1.505-4.6-2.36-.023-2.112-5.76.137-3.145.946-3.475-2.104-4.907zM405.788 600.42c6.139 5.407 7.667 5.719 16.81 6.274l7.145-1.093c-1.431-1.227-1.82-1.26-4.753-1.691-4.224-.623-11.268-.928-14.274-2.966 1.823-3.651 2.084.542 2.63-3.122.43-2.891-1.404-1.334-2.354-.904-5.353 2.42-3.802.866-8.243-.895 1.292-3.57 6.221-6.528 11.586-6.992 7.907-.686 19.032 6.85 25.674 10.549 2.268 1.263 3.578 2.25 5.696 3.39l5.097 3.39c-14.568 10.742-53.822 7.7-64.588-.582.484-2.978 1.437-3.236 3.664-4.842 5.9-4.257 9.976-5.743 15.91-.517M298.999 652.726c-1.38.63-2.38 1.333-4.15 1.95-3.514 1.214-16.193 4.237-20.3 2.491-2.572-1.093-6.164-.516-8.37 1.202-2.698 2.1-2.964 3.504-5.154 6.4-1.77 2.342-2.704 4.323-4.465 7.067-1.132 1.75-3.196 6.196-4.015 8.104-2.642 22.661 44.647-11.087 47.274-13.522 6.26-4.63 7.313-4.724 9.91-5.89.142-.86.359-1.547.627-2.367.013-.617.072-1.185.165-1.74q-.28-.374-.533-.771c-3.109-.39-5.476-1.933-7.025-4.667-.055-.024-1.925-.842-1.058-.557q-.565-.144-1.123-.318c-.7.119 1.137 1.284.472 1.588z" style="fill:#000;fill-rule:evenodd"></path><path d="M373.058 592.957c.505 1.225.806 2.488.915 3.751q.183.927.23 1.849a13 13 0 0 1 .352 2.025l.029.108c3.785 2.465 5.365 5.052 5.249 8.142l.114.061c.835.251 1.634.584 2.386.992 1.819.607 3.503 1.45 4.975 2.7a37 37 0 0 0 .603-3.138c3.583.822 7.71 2.948 11.634 4.04 4.34 1.207 8.449 1.542 13.203 2.143 8.292.102 16.214-.53 23.69-2.342 6.738-1.634 13.215-4.383 19.412-5.74.571-.696.448-.558.13-1.372-17.207-7.193-22.936-16.608-41.014-20.105.782-1.078.256-.436 1.157-1.365l2.922-2.408c20.478-15.752 6.994-13.448 31.317-5.804 28.26 3.851 27.916-2.454 48.68-2.51-6.72-10.164-16.456-20.686-29.538-22.074-6.16-.654-11.106 1.44-14.806 1.115-1.685-10.808 7.623-5.06 14.909-5.035 7.068.023 15.98-.52 16.783-6.865-3.41-2.47-8.804-1.486-12.746-.455-19.102 4.998-11.039-6.446-10.057-6.98 8.267-1.148 11.86-.376 19.915-3.072 6.054-2.026 18.388-7.325 23.184-10.799 6.077-4.404 13.986-9.588 18.175-15.373 1.617-2.535 3.064-4.071 4.897-6.382 2.137-2.69 2.512-4.351 4.26-6.724-3.478.003-7.427 2.445-12.27 3.336-12.334 2.27-18.73 1.167-27.987 3.096-4.396.917-8.409 4.104-11.012 3.688-1.818-17.53 16.53-4.977 24.921-14.948-.72-2.64-.653-2.985-2.636-4.25-7.425-4.738-10.402 3.898-13.991.262-1.826-1.849-2.245-6.931 5.527-8.601 10.418-2.237 17.638-6.5 26.222-12.381l4.297-3.236c1.905-2.707 4.274-4.021 6.708-6.662l11.452-12.527c2.394-2.73 4.795-5.252 6.755-8.34l5.617-8.506-9.568 3.58c-5.16.815-9.44 2.107-14.417 3.334-14.38 3.544-9.88.242-25.984 8.155-8.17 4.014-5.255 5.358-9.908 6.586-.802-.88-.946-.481-1.125-2.189-.142-1.354 1.751-12.522 9.522-13.791 2.14-.35 13.782 2.518 18.099-6.667-3.513-7.832-12.91-1.544-17.13 1.11-1.239.778-1.617.825-2.95 1.536-6 3.202-4.703 3.396-6.312 1.594-.836-1.084.387-8.811 1-10.646 2.514-2.747 4.831-2.748 8.276-4.65 12.468-6.883 17.689-15.563 24.212-25.839 6.863-10.811 10.733-22.45 14.923-34.405-.654-.926 1.134-1.769-.977-.56-2.413 3.023-7.78 6.293-12.297 8.546-4.325 2.157-9.422 3.587-13.9 5.858-18.15 9.206-16.031 15.172-21.531 18.628-1.576-1.912-2.963-6.98-2.908-9.025.041-1.558.101-.92.338-1.905.999-4.167 17.553.79 17.848-14.728-9.52-3.853-14.22 7.998-19.842 9.09-3.116-5.229-1.56-6.792 3.974-9.03 5.334-2.156 5.839-3.381 9.838-6.123a35 35 0 0 0 4.585-3.717l14.455-16.633c5.431-7.78 16.134-28.507 16.357-38.096l-7.048 6.25c-.08.052-.396.35-.455.218-.06-.133-.306.146-.466.199-2.728 4.6-23.324 19.61-28.2 23.746-2.212 1.878-3.314 2.19-5.847 3.946-3.91 2.709-8.174 6.439-12.647 8.174l-1.09-6.14c2.325-2.015 6.446-1.22 12.969-9.697 1.322-1.718 1.915-2.495.445-4.474-4.993-3.41-11.527 4.849-13.887 6.435-.074 1.513-.03 2.384-.755 4.359-1.275 3.466.637 1.06-1.932 2.695-4.934-.296-2.473-3.525-4.888-8.087-1.33-2.513-3.285-5.478-5.93-5.14-4.374 3.168-.33 6.677-1.701 12.89-2.558-.4-5.675-3.004-7.743-4.568-3.224.013-28.904-7.295-34.95-10.425-3.72-1.925-5.647-3.696-9.423-5.117 1.085 4.838 2.64 8.105 3.98 12.579 5.588 11.59 9.566 21.673 21.405 29.641 26.51 17.843 37.396 1.466 40.329 8.994 1.036 5.029 2.105 10.076 3.058 15.119 1.002 5.3 3.5 13.05 2.483 18.449-5.943-5.552-9.672-11.147-20.915-13.614-10.054-2.206-19.919-1.515-27.231-6.865-1.151-.842-2.314-2.197-3.482-3.868l.005.733c.13 9.26 3.423 17.773 9.727 26.354l.024.086c2.54 3.268 4.68 5.706 7.606 8.228 5.741 4.948 14.559 9.574 22.21 11.209 2.577.55 12.04 1.827 13.624 2.923 1.678 1.7-1.379 27.269-1.59 27.814-8.045-8.6-12.386-18.348-23.372-23.213-3.922-1.736-8.45-2.847-11.882-5.194-2.775-1.281-6.211-3.01-8.976-4.283.898 7.98 1.808 15.439 6.137 23.406l.003-.011c9.556 16.447 9.624 27.089 32.329 38.073.243 4.829.019 9.062-1.334 13.419-.593 1.908-1.305 3.35-2.045 4.86l-2.77 4.23c-.654-.42-3.4-4.32-5.895-9.28-1.684-3.348-2.38-8.512-4.138-11.07-2.611-3.803-5.533-3.652-6.232-3.361-.595.247-.313 3.978.526 5.593 1.884 3.627 4.808 4.804 8.307 10.179 4.763 7.318 4.316 19.513-.11 19.68-2.478-4.245.29-6.872-5.058-16.894-5.783-10.833-6.357-12.191-7.436-13.804-1.639-1.86-1.817-2.13-2.765-3.648-1.54-2.469-2.685-3.382-5.115-6.849-1.368-2.204-2.308-2.814-3.767-3.766-.691 6.617-2.346 11.96-3.038 18.577l-.04.092.004-.005c-.14 13.112-.42 25.803 2.902 37.038 1.654 5.6 3.307 9.387 6.14 13.636 3.495 5.244 2.183 10.085-3.867 11.686-5.632-.354-9.554-18.953-11.09-24.833-1.858-7.118-6.336-6.377-6.448-1.23-.06 2.752 1.65 5.396 3.177 7.58 5.857 8.378 12.58 24.764 5.258 31.975-7.002-3.329 1.17-14.87-8.834-32.262-2.358-4.099-3.987-6.145-4.889-7.41l-.002.003-.043-.066a11 11 0 0 1-.377-.56c-2.25-3.25-4.915-5.538-7.935-7.378-2.762 6.475-1.54 13.421-3.202 20.475l-.185.21c-.153 3.422-1.638 7.227-2.194 11.447-.422 3.194-1.018 8.791-1.078 12.392-.27 16.016 6.141 18.927 4.399 22.772-1.43 1.682-7.788 5.374-10.363 5.879-.295-4.237 1.151-11.122 1.23-15.705l-1.452-23.612c-.111-.863-.206-1.525-.263-2.057l-.02.02c-.196-3.446-.66-3.811-.977-5.688-5.104 2.267-9.088 7.438-13.91 16.242l-.034.06c-.79 2.437-6.17 10.077-9.184 17.12-1.878 4.388-5.515 15.59-5.76 20.92a27 27 0 0 1-1.912-.437c.354.878.604 1.777.754 2.68zm89.715-118.515c3.428.604 3.925 2.513 4.615 6.326-3.248-1.225-4.938-2.382-4.615-6.326M257.087 683.802c-2.332-6.148 9.156-21.599 13.372-22.41 4.974-.958 11.092.184 17.214-1.125 5.379-1.15 9.8-5.123 14.118-1.546-.197 3.118-1.374 3.181-3.426 4.69-7.99 5.878-32 23.803-41.278 20.39" style="fill:#000;fill-rule:evenodd"></path><path d="m476.249 349.146-22.206-10.856c-6.144-2.668-6.076-1.685-6.3-4.996l4.792-1.517c-6.103-6.466-8.864-4.121-11.163-9.117 9.664.634 12.836 5.486 16.87 12.117 2.955 4.86 15.347 10.7 18.618 11.745.235-8.384-2.43-12.421-6.69-16.055-10.489-8.944-19.936-7.41-32.232-11.733-5.485-1.929-11.038-5.112-16.292-6.538 2.19 10.91 14.31 28.429 20.048 33.1 4.878 3.969 9.376 7.356 17.088 9.461 3.736 1.02 7.678 1.555 11.652 1.767 6.912.37 6.3-.889 5.815-7.378M495.53 459.908c6.387-.107 16.263-7.38 18.72-10.684 4.11-5.528 7.125-15.346 8.507-11.873.34.855-1.045 2.871-.942 5.965l6.043.62c-.686 5.598-5.12.449-10.42 4.7-2.953 2.37-3.722 4.6-7.893 7.249-7.126 4.525-13.27 3.483-14.956 7.856-4.218 10.948 11.5 5.925 19.167 1.66 7.195-4.004 32.806-27.218 35.403-37.308-8.544 1.613-26.676 5.11-34.123 8.252-4.887 2.062-9.45 5.073-13.11 8.104-4.698 3.893-6.474 6.753-6.396 15.46M498.873 398.02c2.727-1.296 1.047-.064 2.928-2.265 3.335-3.902 2.822-7.782 4.238-9.921 3.417 1.52-.491.81 3.033 3 4.056-2.152 12.725-7.892 14.907-11.256-.75 5.302-16.852 18.22-22.144 22.04-3.774 2.726-4.195 5.288-2.964 11.38 4.384.97 11.474-5.958 14.67-8.774 4.702-4.14 8.32-7.595 11.92-12.351 3.59-4.74 15.088-26.213 15.104-33.446-12.651 8.58-24.833 4.999-38.343 23.117-1.748 2.347-3.2 3.54-3.366 7.545-.145 3.467.083 7.365.017 10.932M465.797 438.728c.344-.24-.11-.07 1.482-.835.794-.382.544-.155 1.579-.683l-.39-3.867c.133-1.796-.483-.12.403-1.487 2.478 1.226 2.972 4.152 3.735 6.94 1.288 4.695 1.03 4.477 3.825 7.529 2.882 3.148 7.402 10.202 10.645 11.636.004-.005.955-.443 1.524-3.4.36-1.862.278-3.219-.099-5.058-.51-2.49-2.268-5.328-3.445-7.223-7.476-12.038-23.346-20.341-36.958-26.108.677 18.326 26.854 59.523 35.78 54.319 3.027-1.766 4.6-7.172-.461-12.923-5.867-6.668-11.678-11.392-17.62-18.84M489.397 405.767c-4.093-1.854-8.618-4.003-13.494-5.924-4.486-1.768-12.195-2.354-15.09-4.625.178-3.77-.049.102 1.395-3.583-3.975-1.347-6.905-1.676-6.398-5.553 6.297-1.493 7.254.159 8.741 3.112 3.627 7.205 7.037 2.248 16.846 8.976 2.43 1.667 5.299 4.234 7.823 5.128.27-8.727-.358-9.768-5.405-13.653-4.4-3.385-6.76-5.015-12.594-7.12-5.647-2.036-9.687-2.265-15.612-3.354-10.342-1.898-8.158-2.472-15-5.261 1.638 18.56 26.757 40.166 45.039 40.495 5.82.106 3.835-3.113 3.749-8.638M402.749 596.023c4.441 1.761 2.89 3.316 8.243.895.95-.43 2.784-1.987 2.354.904-.546 3.664-.807-.53-2.63 3.122 3.006 2.038 10.05 2.343 14.274 2.966 2.933.431 3.322.464 4.753 1.691l-7.144 1.093c-9.144-.555-10.672-.867-16.811-6.275-5.934-5.225-10.01-3.74-15.91.517-2.227 1.606-3.18 1.864-3.664 4.842 10.766 8.283 50.02 11.324 64.588.582l-5.097-3.39c-2.118-1.14-3.428-2.127-5.696-3.39-6.642-3.7-17.767-11.235-25.674-10.55-5.365.465-10.294 3.424-11.586 6.993M474.87 523.681c1.369-2.97 7.174-4.08 9.66-5.588 8.382-5.085 11.626-12.243 14.91-14.09 3.592-2.021 2.187.297 2.11 2.319-.146 3.913 1.167 3.584 1.554 5.156-7.927 1.454-24.494 13.998-28.234 12.203m-7.99 4.551c6.544 9.242 36.202-9.028 45.163-16.006 3.488-2.717 13.695-12.527 15.471-16.537-7.237.772-12.656 2.25-20.726 2.526-15.128.515-22.528 3.04-31.627 15.055-2.093 2.765-7.606 11.31-8.281 14.962M456.25 478.035c-2.33-1.883-1.381-1.166-2.435-3.883-3.718-2.33-2.148-3.733-5.949-5.574-1.647 9.084-2.969 22.15-2.608 31.605.289 7.563 2.782 23.287 6.628 28.34 3.54 4.651 7.78 1.907 9.756-2.286 2.22-4.71-4.342-12.036-8.722-23.759-1.83-4.9-4.126-7.43-2.849-13.047 1.291 2.586 1.313 8.476 4.52 9.806 1.686-2.583.239-3.3 2.902-4.764 2.34 3.167-5.921 11.299 7.586 23.92 9.256-11.587-8.025-37.093-8.829-40.358M417.935 513.88c-1.273 3.356-.68 11.734-1.339 15.923-.815 5.186-2.541 9.661-3.586 14.568-1.743 8.196-3.827 28.466 7.284 27.137.189-6.243-.62-32.544 1.55-35.59 3.425 3.132.09 13.561 1.63 18.674 4.587-.834 1.08-3.174 5.715-3.302-1.586 8.973-7.193 5.455-5.401 16.811 4.701.925 9.313-5.07 10.287-9.513 3.547-16.18-3.1-31.869-13.735-43.386-.23-.25-.913-.92-1.056-1.015-1.545-1.01-.074-.814-1.35-.308M390.63 591.098l2.839-21.953c3.05 1.432 2.242 1.762 2.105 4.907-.25 5.737.606 1.16 2.11 5.76-2.014 3.666-4.493 2.891-3.639 8.824 8.715-2.796 8.663-10.027 9.337-20.376.545-8.364.27-20.517-1.394-28.482-9.473 4.053-22.274 36.358-25.157 51.997-1.938 10.514 9.578 1.548 13.799-.677M487.97 343.799c6.91-.086 3.502-7.021 11.408-8.7-1.174 4.726-2.237 2.598-3.594 7.335 7.801-2.98 10.153-8.364 18.33-16.228l10.09-10.295c-1.051 5.497-7.878 12.326-11.838 16.119-1.712 1.638-2.986 3.394-4.807 5.038-10.97 9.9-23.28 13.282-17.426 18.324 6.215 5.353 26.275-16.647 29.76-21.138 5.342-6.88 15.799-25.217 18.752-34.78-2.467.92-23.762 18.913-26.47 21.001-4.734 3.653-8.909 6.36-13.687 9.83-5.41 3.93-11.223 5.325-10.517 13.494M443.353 561.371c8.569 5.471 15.302-2.662 20.05.994-2.786 2.133-6.054 1.469-9.606 3.13 4.403 5.154 16.651.123 21.224-.234-.054 4.75-1.852 3.832-6.878 3.748-25.702-.431-20.019-3.852-27.203-6.371-1.328 1.16-2.135 2.414-3.177 4.279 8.097 10.43 28.811 9.347 41.545 7.41 2.259-.344 4.843-.83 7.166-1.15 2.318-.319 5.683-.361 7.57-1.71-10.164-15.59-34.424-26.277-50.691-10.096M257.087 683.802c9.278 3.412 33.289-14.513 41.278-20.39 2.052-1.51 3.23-1.573 3.426-4.691-4.318-3.577-8.74.396-14.118 1.546-6.122 1.309-12.24.167-17.214 1.124-4.216.812-15.704 16.262-13.372 22.41" style="fill:#2e9449;fill-rule:evenodd"></path><path d="M474.87 523.681c3.74 1.795 20.307-10.749 28.234-12.203-.387-1.572-1.7-1.243-1.554-5.156.077-2.022 1.482-4.34-2.11-2.319-3.284 1.847-6.528 9.005-14.91 14.09-2.486 1.507-8.291 2.618-9.66 5.588" style="fill:#010301;fill-rule:evenodd"></path><path d="M507.604 425.317c2.226.906 4.781 1.473 7.755.72 1.706-.431 3.999-1.68 4.569-3.032 2.459-5.836-9.924-1.73-12.324 2.312M500.326 366.325c2.52.556 4.408-.392 6.048-1.594 1.825-1.336 2.582-2.729 2.902-5.81-4.734.013-9.154 3.26-8.95 7.404M490.865 487.923c4.728 1.262 9.86 1.124 10.753-3.684-4.198-2.563-9.023.56-10.753 3.684M468.07 544.149c.998.73-.817-.023 1.396.914l7.023.832 5.628-2.153c1.794-1.531.61-.298 1.567-2.03-5.743-.191-10.992.869-15.614 2.437M489.921 322.994c3.576.958 5.65-2.14 5.947-3.04 1.449-4.407-2.733-3.14-4.612-1.45-.015.015-1.418 1.612-1.44 1.661-1.284 2.838.065 2.727.105 2.829M477.506 328.263c.986-3.386-1.11-6.973-4.067-7.812-.711 4.743-1.27 8.566 4.067 7.812M436.003 526.88c.844-1.275 1.187-.707.316-4.728-.734-3.393-.282-3.362-3.098-3.894-1.69 2.895 1.46 5.839 2.782 8.622M467.388 480.768c-.69-3.813-1.187-5.722-4.615-6.326-.324 3.944 1.367 5.1 4.615 6.326" style="fill:#2d8b48;fill-rule:evenodd" data-source="https://football-logos.cc"></path><path d="M297.099 343.67c-24.605 0-46.822 9.655-62.846 25.46-15.895 15.68-25.705 37.436-25.705 61.842 0 24.392 9.762 46.063 25.606 61.663 15.984 15.74 38.171 25.324 62.789 25.324 24.644 0 46.968-9.634 63.07-25.432 15.934-15.632 25.793-37.315 25.793-61.68 0-24.383-9.833-46.094-25.745-61.742-16.063-15.796-38.335-25.434-62.962-25.434m-67.8 20.422c17.312-17.077 41.283-27.508 67.8-27.508 26.534 0 50.56 10.415 67.917 27.483 17.23 16.944 27.876 40.427 27.876 66.78 0 26.338-10.673 49.794-27.923 66.718-17.4 17.07-41.48 27.481-68.026 27.481-26.527 0-50.467-10.36-67.744-27.372-17.162-16.9-27.737-40.343-27.737-66.702 0-26.37 10.623-49.9 27.837-66.88" style="fill:#061606;fill-rule:evenodd"></path><path d="M238.788 360.952H357.84v75.3c0 4.567-.066 8.948-.493 13.154-.433 4.266-1.243 8.244-2.738 11.856-4.317 10.437-12.073 18.91-22.032 26.395-9.783 7.35-21.661 13.73-34.475 20.096l-1.045.52-1.078-.46c-3.92-1.672-9.022-3.996-14.677-7.077-5.65-3.08-11.82-6.901-17.848-11.556-8.706-6.723-15.444-12.65-20.078-19.976-4.694-7.419-7.139-16.098-7.139-28.18v-80.072zm113.95 5.102H241.338v74.97c0 11.045 2.172 18.88 6.342 25.47 4.228 6.683 10.602 12.265 18.883 18.66 5.8 4.479 11.735 8.155 17.17 11.117 4.936 2.69 9.493 4.804 13.164 6.396 12.189-6.082 23.446-12.176 32.629-19.076 9.268-6.965 16.451-14.77 20.379-24.263 1.286-3.11 1.992-6.616 2.378-10.42.393-3.867.453-8.148.453-12.656z" style="fill:#061606;fill-rule:evenodd"></path><path d="m325.116 365.275-84.375 84.25-2.591-2.605 84.375-84.25z" style="fill:#061606;fill-rule:evenodd"></path><path d="M293.699 377.98c-3.873 0-7.636.459-11.232 1.326.253 1.2.444 2.39.477 3.553.03 1.071-.072 2.106-.374 3.086l10.738 7.47-1.617 2.326-10.464-7.28c-1.831 2.504-4.058 4.813-6.457 6.891-2.982 2.582-6.231 4.806-9.312 6.6-.863.501-1.809.885-2.787 1.144q-.642.17-1.292.268l7.413 14.964-2.536 1.25-7.992-16.131a20 20 0 0 1-2.461-.326 18.5 18.5 0 0 1-3.009-.854c-3.16 6.08-4.945 13.01-4.945 20.437 0 12.564 5.087 23.78 13.307 31.87 8.294 8.162 19.785 13.154 32.467 13.154 3.137 0 6.2-.306 9.156-.89a39.6 39.6 0 0 1 1.816-6.57 40 40 0 0 1 2.411-5.31l-13.44-5.213 1.018-2.635 13.893 5.387c1.75-2.713 3.898-5.434 6.27-7.94 2.29-2.416 4.797-4.64 7.37-6.474l-5.904-11.668 2.524-1.274 5.792 11.447c3.964-1.942 9.056-2.051 13.16-2.033a45.4 45.4 0 0 0 1.559-11.851c0-12.558-5.027-23.695-13.184-31.71-8.238-8.094-19.676-13.014-32.366-13.014m-13.96 2.071c-7.108 2.175-13.468 5.976-18.604 10.99a44.3 44.3 0 0 0-6.938 8.73c.689.236 1.41.427 2.148.571 1.086.212 2.202.319 3.304.319.773 0 1.555-.102 2.302-.3a8.5 8.5 0 0 0 2.09-.856c2.945-1.715 6.045-3.836 8.88-6.29 2.388-2.068 4.588-4.375 6.346-6.876.678-.965.89-2.13.854-3.402-.026-.91-.177-1.884-.382-2.886m26.065 86.085a45.47 45.47 0 0 0 20.191-11.543 44.4 44.4 0 0 0 10.83-17.216c-4.103.009-8.998.26-12.189 2.4-2.72 1.824-5.403 4.156-7.84 6.73-2.518 2.658-4.765 5.567-6.514 8.433a36.5 36.5 0 0 0-3.03 6.302 38 38 0 0 0-1.448 4.894m-47.034-77.527c8.936-8.724 21.307-14.03 34.929-14.03 13.603 0 25.883 5.292 34.743 13.997 8.79 8.636 14.207 20.624 14.207 34.128 0 13.518-5.448 25.593-14.275 34.308-8.874 8.761-21.16 14.117-34.75 14.117-13.6 0-25.933-5.364-34.846-14.137-8.852-8.712-14.33-20.779-14.33-34.288 0-13.487 5.478-25.46 14.322-34.095" style="fill:#061606;fill-rule:evenodd"></path><path d="m257.928 479.773 95.938-91.813 2.534 2.65-95.938 91.812z" style="fill:#061606;fill-rule:evenodd"></path><path d="m219.457 383.344 69.816 39.791-41.054-69.581 4.872-2.879 41.184 69.801.055-79.042h5.647l-.055 79.09 40.673-69.423 4.872 2.857-40.833 69.696L376.2 383.03l2.79 4.916-70.433 39.98 80.349.055v5.647l-81.316-.055 70.212 40.018-2.79 4.917-70.054-39.927 40.51 68.657-4.873 2.879-40.686-68.958-.055 80.022h-5.648l.055-79.822-40.606 69.309-4.872-2.857 40.34-68.852-70.008 39.738-2.79-4.916 70.857-40.222-82.027-.055v-5.647l81.084.055-69.571-39.653Z" style="fill:#061606;fill-rule:evenodd"></path><path d="m294.796 418.882 1.543 1.494q.238.232.244.574a.79.79 0 0 1-.225.582l-6.293 6.5 5.578 5.344q.24.231.245.574a.79.79 0 0 1-.226.582l-1.705 1.76a.79.79 0 0 1-.574.245.79.79 0 0 1-.582-.226l-14.043-13.596a.79.79 0 0 1-.244-.574.78.78 0 0 1 .226-.581l8.987-9.283a.78.78 0 0 1 .573-.245.78.78 0 0 1 .582.227l1.543 1.494q.24.23.245.574a.78.78 0 0 1-.226.58l-6.714 6.936 3.617 3.558 6.293-6.5a.79.79 0 0 1 .574-.245.79.79 0 0 1 .582.226m3.462-16.014q.663-1.57 2.104-3.057 1.626-1.68 3.227-2.428 1.6-.747 3.062-.834 1.463-.087 2.722.4a7.8 7.8 0 0 1 2.185 1.26.66.66 0 0 1 .263.568.86.86 0 0 1-.245.577l-1.69 1.745a.96.96 0 0 1-.537.274q-.327.06-.65-.17a3.3 3.3 0 0 0-1.132-.511 3.6 3.6 0 0 0-1.358-.063q-.72.096-1.53.523t-1.624 1.267q-.813.84-1.16 1.716a4.3 4.3 0 0 0-.322 1.713q.024.838.409 1.648t1.01 1.5a49 49 0 0 0 1.769 1.797q.99.96 1.852 1.709.732.624 1.543.972a4.1 4.1 0 0 0 1.65.345 4.3 4.3 0 0 0 1.701-.378q.864-.375 1.678-1.215.813-.84 1.214-1.664.4-.824.483-1.556a3.5 3.5 0 0 0-.096-1.367 3.3 3.3 0 0 0-.548-1.116q-.238-.314-.201-.633a.9.9 0 0 1 .246-.534l1.69-1.746a.86.86 0 0 1 .568-.263.66.66 0 0 1 .577.245q.82.92 1.34 2.152.518 1.233.478 2.698t-.735 3.087-2.322 3.305q-1.44 1.487-2.988 2.201-1.548.715-3.106.75a7.6 7.6 0 0 1-3.085-.586q-1.528-.622-2.904-1.788-.86-.75-1.852-1.71a48 48 0 0 1-1.768-1.795 10.8 10.8 0 0 1-1.882-2.844 7.6 7.6 0 0 1-.685-3.065q-.015-1.56.649-3.129m31.744-3.424-14.167-13.717a.8.8 0 0 1-.247-.58.8.8 0 0 1 .228-.586l1.72-1.776a.8.8 0 0 1 .578-.247.8.8 0 0 1 .587.228l14.168 13.717q.241.234.247.579a.8.8 0 0 1-.228.587l-1.72 1.776a.8.8 0 0 1-.579.247.8.8 0 0 1-.587-.228m6.279-5.787a2.1 2.1 0 1 1 0-4.2 2.1 2.1 0 0 1 0 4.2m-77.431 85.235 93.887-89.851v-22.987h-28.401l-82.613 82.49c.792 7.264 2.803 12.963 5.958 17.95 2.803 4.43 6.55 8.377 11.169 12.398m9.535-48.021a.79.79 0 0 1 .576-.246.79.79 0 0 1 .583.227l8.945 8.66q1.352 1.309 2.062 2.757a7 7 0 0 1 .736 2.994q.025 1.546-.69 3.136-.716 1.59-2.214 3.138-1.522 1.572-3.076 2.327t-3.101.78a6.8 6.8 0 0 1-3.007-.65q-1.46-.674-2.812-1.983l-8.944-8.66a.79.79 0 0 1-.246-.575.79.79 0 0 1 .227-.584l1.711-1.766a.79.79 0 0 1 .576-.246.8.8 0 0 1 .583.227l8.835 8.553q.895.865 1.76 1.239.865.372 1.69.326a3.7 3.7 0 0 0 1.603-.476 6.4 6.4 0 0 0 1.474-1.151 6.5 6.5 0 0 0 1.113-1.522 3.7 3.7 0 0 0 .436-1.628q.018-.827-.371-1.69-.39-.863-1.285-1.73l-8.834-8.553a.8.8 0 0 1-.246-.576.79.79 0 0 1 .227-.583zm54.32-27.839a2.1 2.1 0 1 1 4.2 0 2.1 2.1 0 0 1-4.2 0m-20.85 20.626a2.1 2.1 0 1 1 4.2 0 2.1 2.1 0 0 1-4.2 0m-16.275 16.05a2.1 2.1 0 1 1 4.2 0 2.1 2.1 0 0 1-4.2 0" style="fill:#fff;fill-rule:evenodd"></path><path d="m249.664 435.423 16.352-16.329-7.752-15.647a20 20 0 0 1-2.461-.326 18.5 18.5 0 0 1-3.009-.854c-3.16 6.08-4.944 13.01-4.944 20.437 0 4.433.633 8.699 1.814 12.719M261.379 403.364l6.748 13.622 22.216-22.183-9.116-6.342c-1.831 2.504-4.058 4.814-6.457 6.891-2.982 2.582-6.231 4.806-9.312 6.6-.863.501-1.809.885-2.787 1.144q-.642.17-1.292.268M264.04 399.505c2.946-1.715 6.046-3.836 8.881-6.29 2.388-2.068 4.588-4.375 6.346-6.876.678-.965.89-2.13.854-3.402-.026-.91-.177-1.884-.382-2.886-7.108 2.175-13.468 5.976-18.604 10.99a44.3 44.3 0 0 0-6.938 8.73c.689.236 1.41.427 2.148.571 1.086.212 2.202.319 3.304.319.773 0 1.555-.102 2.302-.3a8.5 8.5 0 0 0 2.09-.856M282.57 385.945l9.81 6.825 13.293-13.274a47.6 47.6 0 0 0-11.974-1.516c-3.873 0-7.636.459-11.232 1.326.253 1.2.444 2.39.477 3.553.03 1.071-.072 2.106-.374 3.086M337.153 409.029l-17.9 17.13 5.277 10.429c3.963-1.942 9.055-2.051 13.16-2.033a45.4 45.4 0 0 0 1.558-11.851 45.1 45.1 0 0 0-2.096-13.675M322.118 438.083l-5-9.88-20.558 19.673 11.917 4.621c1.75-2.713 3.898-5.434 6.27-7.94 2.29-2.416 4.797-4.64 7.37-6.474M307.006 454.958l-12.7-4.925-15.874 15.191a46.9 46.9 0 0 0 15.191 2.504c3.138 0 6.2-.306 9.156-.89a39.6 39.6 0 0 1 1.816-6.57 40 40 0 0 1 2.411-5.31M316.796 446.507c-2.518 2.658-4.765 5.567-6.514 8.433a36.5 36.5 0 0 0-3.03 6.302 38 38 0 0 0-1.448 4.894 45.47 45.47 0 0 0 20.191-11.543 44.4 44.4 0 0 0 10.83-17.216c-4.103.009-8.998.26-12.189 2.4-2.72 1.824-5.403 4.156-7.84 6.73" style="fill:#ff0;fill-rule:evenodd"></path><path d="M328.374 457.012c-8.086 7.982-19.004 13.138-31.16 13.992v31.505c12.068-6.03 23.21-12.078 32.313-18.918 9.268-6.965 16.451-14.77 20.378-24.263 1.287-3.11 1.993-6.616 2.38-10.42.392-3.867.452-8.147.452-12.655v-42.14l-12.872 12.32c1.804 5.055 2.784 10.526 2.784 16.27 0 13.519-5.448 25.594-14.275 34.309M308.432 376.741l10.703-10.687h-21.921v8.643c3.884.263 7.64.96 11.218 2.044" style="fill:#061606;fill-rule:evenodd"></path><path d="M258.77 388.609c8.936-8.724 21.307-14.03 34.929-14.03q1.773 0 3.515.118v-8.643H241.34v74.97q0 1.365.044 2.666l5.569-5.56a48.3 48.3 0 0 1-2.505-15.426c0-13.487 5.478-25.46 14.322-34.095M293.623 471.13c-6.323 0-12.372-1.16-17.931-3.283l-14.025 13.422a210 210 0 0 0 4.897 3.885c5.8 4.479 11.735 8.155 17.17 11.117 4.936 2.69 9.493 4.804 13.164 6.396l.317-.158v-31.505a51 51 0 0 1-3.592.125" style="fill:#fff;fill-rule:evenodd"></path><path d="M201.462 430.972c0-26.37 10.623-49.9 27.837-66.88 17.312-17.077 41.283-27.508 67.8-27.508 26.534 0 50.56 10.415 67.917 27.483 17.23 16.944 27.876 40.427 27.876 66.78 0 26.338-10.673 49.794-27.923 66.718-17.4 17.07-41.48 27.481-68.026 27.481-26.527 0-50.467-10.36-67.744-27.372-17.162-16.9-27.737-40.343-27.737-66.702m7.77 86.005c22.388 22.147 53.45 35.726 87.84 35.726 34.388 0 65.451-13.58 87.84-35.726 22.255-22.014 36.01-52.532 36.01-86.625 0-34.031-13.683-64.328-35.835-86.14-22.4-22.057-53.504-35.524-87.953-35.524-34.462 0-65.604 13.473-88.033 35.54-22.174 21.815-35.88 52.105-35.88 86.124 0 34.093 13.755 64.61 36.01 86.625" style="fill:#fff;fill-rule:evenodd"></path><path d="M243.84 360.952h8.744l-2.481-4.205a88 88 0 0 0-6.263 4.205M236.237 392.907v-25.672a86.44 86.44 0 0 0-14.465 17.428zM236.237 399.414l-17.315-9.869c-6.165 11.41-9.842 24.4-10.32 38.315l27.635.019zM236.237 433.526l-27.653-.018c.394 14.129 4.072 27.291 10.302 38.819l20.363-11.559c-1.99-5.545-3.012-11.933-3.012-19.744zM241.522 465.979l-19.784 11.23a85.8 85.8 0 0 0 12.416 15.426 87 87 0 0 0 16.173 12.54l10.551-18.01c-7.469-5.92-13.336-11.375-17.502-17.96a44 44 0 0 1-1.854-3.226M265.388 490.641l-10.13 17.292c11.648 6.031 24.872 9.58 38.95 9.987l.007-10.87a168 168 0 0 1-12.913-6.314c-5.048-2.751-10.51-6.094-15.915-10.095zM328.905 490.306c-8.551 5.93-18.455 11.27-29.043 16.57l-.008 11.038c14.189-.438 27.544-4.074 39.304-10.229zM333.499 486.956l10.588 17.946a88 88 0 0 0 15.927-12.375 86.4 86.4 0 0 0 12.492-15.445l-19.991-11.395c-4.358 8.144-10.926 15.052-19.016 21.269M354.898 460.539l20.474 11.67c6.246-11.473 9.956-24.554 10.39-38.582l-27.922-.019v2.644c0 4.567-.066 8.948-.493 13.154-.405 3.983-1.138 7.715-2.45 11.133M357.84 427.96l27.92.02c-.44-13.839-4.055-26.757-10.142-38.12l-17.778 10.093zM357.84 393.452l14.946-8.484a86.4 86.4 0 0 0-14.946-17.972zM341.37 360.952h9.107a88 88 0 0 0-6.548-4.369zM334.824 360.952l4.18-7.135c-11.684-6.081-24.94-9.671-39.029-10.102l-.012 17.237zM294.316 360.952l.012-17.24c-14.208.42-27.559 4.064-39.303 10.241l4.13 6.999z" style="fill:#fff;fill-rule:evenodd"></path><path d="M296.961 166.345c-6.906 0-13.16 2.8-17.685 7.325a24.93 24.93 0 0 0-7.326 17.686c0 6.907 2.8 13.16 7.326 17.686a24.93 24.93 0 0 0 17.685 7.325c6.907 0 13.16-2.8 17.686-7.325a24.93 24.93 0 0 0 7.326-17.686c0-6.907-2.8-13.16-7.326-17.686a24.93 24.93 0 0 0-17.686-7.325" style="fill:#ff0;fill-rule:evenodd"></path><path d="M332.163 283.554c-.168-7.234-4.953-14.221-8.111-19.053-1.763-2.696-5.046-5.525-5.228-6.7-.38-2.438-.183-7.986-.04-10.033.087-1.245.247-2.852 3.238-.256 3.09 2.68 9.14 4.646 10.833 5.132.744.213 2.907.596 3.737.316.838-.282.845-1.024 1.253-1.228.066-.033.62-.48 1.68.007 4.041 1.854 6.972 3.064 13.123 3.71 1.579.164 3.99.583 5.75-.06.919-.335 1.816-.905 2.637-1.488.47-.334 1.755-.764 2.184-.522 2.987 1.683 5.096 2.464 8.325 3.467 4.773 1.483 9.792 2.347 15.237 2.947 1.334.147 3.424.563 4.725-.141 1.046-.566 2.114-1.228 2.69-2.38.34-.677.55-1.833.587-2.646 10.436 3.26 21.518 5.96 34.092 5.539 1.876-.063 5.082-.056 5.788-.712.614-.57 1.168-.976 1.68-1.669 3.112.718 6.102 1.046 9.29.819 3.19-.228 6.515-.63 9.62-1.78 2.026-.75 4.929-1.229 5.957-3.387.331-.695 1.471-1.08 2.577-.783 9.522 2.04 17.413 3.043 28.579 1.75q.91-.105 1.859-.268c4.103-.7 8.978-2.957 12.376-4.979 1.856-1.103 5.946-5.943 5.975-8.53 8.476.1 15.854-1.129 22.35-2.99 21.398-6.127 31.84-20.206 45.579-36.003-24.249 8.022-39.476 12.118-66.118 11.177-17.318-.611-35.743-4.144-53.077-12.221-15.106-7.04-23.926-15.129-33.327-23.75-3.647-3.345-7.38-6.768-11.536-10.21-4.947-4.097-10.335-7.398-15.992-9.524-5.325-2.001-10.747-3.27-16.375-2.872-4.654.33-9.117 1.995-13.19 3.95-3.977 1.909-7.638 4.352-11.072 6.95a49.4 49.4 0 0 0-7.289 6.796c-2.158 2.461-3.889 5.27-5.449 8.082-4.145 7.471-8.607 14.316-13.307 20.015-4.532 5.496-9.22 9.908-14.842 12.336-.3.13-.572-.017-.917-.134a20 20 0 0 1-2.258-.927l-3.108 5.483c1.144.554 2.818 1.202 4.062 1.51 1.59.394 3.4.438 5.012-.259 6.648-2.87 11.9-7.616 17.069-13.884 5.002-6.066 9.756-13.314 14.062-21.076 1.336-2.407 2.704-4.744 4.566-6.867a43 43 0 0 1 6.321-5.88c3.173-2.4 6.492-4.627 9.952-6.288 3.365-1.615 6.93-2.732 10.722-3 4.66-.33 9.285.474 13.75 2.152 4.941 1.857 9.707 4.79 14.132 8.454 4.113 3.406 7.739 6.73 11.281 9.98 9.8 8.988 18.997 17.422 34.982 24.871 18.166 8.466 37.465 12.167 55.6 12.807 17.173.607 31.383-2.231 45.785-5.056-6.898 8.34-15.69 13.942-26.8 17.124-6.32 1.81-14.56 2.888-23.615 3.566-8.599.643-27.141-3.35-43.725-7.296-1.703-.405-3.81-.793-4.033-.28-.278.643 1.882 1.981 3.695 2.816 4.533 2.088 12.185 4.03 19.936 5.556 6.45 1.27 12.944 2.273 17.994 2.655.802.06 2.971.305 2.756 1.329-.336 1.592-1.774 3.276-3.35 4.371l.003.006c-2.69 1.865-6.363 3.057-9.676 3.623-.512.087-1.016.16-1.502.216-10.236.998-19.637.916-28.52-1.895-9.024-2.856-15.533-6.204-26.635-12.171-5.937-3.191-7.349-1.27-1.077 3.225 4 2.867 6.929 4.41 9.7 6.154 2.978 1.875 5.514 3.22 8.934 4.837.42.198 1.374.795 1.241 1.263-.238.834-1.08 1.45-1.947 1.77-2.305.853-5.608 1.422-8.337 1.617-5.159.368-10.494-1.318-15.34-3.74-5.766-2.884-10.544-5.52-15.38-9.984-6.433-5.94-5.573-1.938-3.32.815 4.388 5.368 9.817 9.219 16.047 12.443 2.192 1.135 1.508 2.494.01 2.436-11.436-.442-22.133-3.027-32.22-7.295-9.771-3.886-19.864-9.286-25.147-15.842-3.627-4.5-5.859-3.083-2.654 2.015 3.658 5.817 11.868 10.719 17.576 16.534.499.508 1.675 1.804 1.778 2.489.139.922.126 1.952-1.65 1.406-5.027-1.545-7.401-1.99-11.67-3.316-4.216-1.31-8.234-2.977-12.07-5.689-3.2-2.262-6.516-5.032-9.005-8.728-2.44-3.624-4.074-5.75-5.07-9.295-1.903-6.768-4.515-4.005-3.217.713 1.455 5.29 2.656 7.483 5.513 11.724 2.4 3.562 3.916 4.587 6.57 7.321.86.886 1.287 1.726.938 2.581-.26.636-2.277.551-3.052.47-5.362-.562-8.702-1.723-11.46-3.896-2.832-2.228-5.902-5.314-8.427-10.205-2.246-4.351-3.73-1.062-2.732 1.702.992 2.747 3.03 4.503 3.828 5.78 1.494 2.393 1.264 3.51.115 3.327-2.134-.338-9.71-4.062-15.101-11.104-3.219-4.203-6.458-11.045-5.853-18.042l-2.556-.81c-.751 8.676-1.016 29.17-.666 39.698-3.301-1.552-4.372-2.877-7.298-4.469-1.743-.948-3.651-1.669-5.463-2.768-5.015-3.044-9.568-7.119-12.116-11.782-.71-1.297-1.758-2.805-1.948-4.273-.532-4.108.534-14.29.392-15.936l-3.057.624c.606 6.996-2.633 13.838-5.852 18.042-5.392 7.042-12.968 10.765-15.101 11.104-1.15.182-1.38-.935.114-3.327.798-1.277 2.837-3.033 3.829-5.78.998-2.765-.486-6.054-2.732-1.702-2.525 4.89-5.596 7.976-8.426 10.205-2.76 2.172-6.1 3.333-11.46 3.896-.776.08-2.794.165-3.053-.47-.35-.855.077-1.696.937-2.581 2.655-2.735 4.172-3.76 6.57-7.322 2.858-4.24 4.059-6.434 5.514-11.723 1.297-4.718-1.314-7.482-3.217-.713-.996 3.544-2.63 5.67-5.07 9.294-2.49 3.696-5.805 6.467-9.006 8.729-3.835 2.711-7.853 4.378-12.069 5.688-4.27 1.326-6.644 1.771-11.671 3.316-1.776.546-1.788-.484-1.65-1.406.103-.684 1.28-1.98 1.78-2.489 5.707-5.815 13.916-10.716 17.574-16.534 3.206-5.097.974-6.515-2.653-2.015-5.283 6.556-15.376 11.956-25.147 15.842-10.087 4.268-20.785 6.853-32.22 7.295-1.498.058-2.182-1.3.01-2.435 6.23-3.225 11.658-7.075 16.048-12.443 2.251-2.754 3.112-6.755-3.322-.815-4.835 4.464-9.613 7.1-15.38 9.983-4.845 2.422-10.18 4.108-15.34 3.74-2.729-.194-6.032-.763-8.336-1.616-.867-.32-1.71-.936-1.947-1.77-.134-.469.822-1.066 1.24-1.264 3.42-1.617 5.956-2.962 8.935-4.837 2.77-1.744 5.7-3.287 9.7-6.153 6.272-4.496 4.86-6.417-1.078-3.226-11.102 5.968-17.61 9.316-26.635 12.172-8.882 2.81-18.283 2.892-28.52 1.894q-.73-.084-1.502-.216c-3.312-.566-6.985-1.757-9.676-3.622l.004-.006c-1.576-1.095-3.014-2.779-3.35-4.372-.216-1.023 1.954-1.268 2.755-1.328 5.05-.383 11.546-1.385 17.995-2.655 7.751-1.526 15.403-3.468 19.936-5.556 1.813-.835 3.973-2.174 3.695-2.816-.222-.514-2.33-.125-4.033.28-16.584 3.946-35.126 7.939-43.725 7.295-9.054-.677-17.295-1.756-23.615-3.566-11.11-3.181-19.902-8.783-26.8-17.123 14.402 2.824 28.612 5.662 45.786 5.056 18.134-.64 37.433-4.342 55.6-12.807 15.984-7.45 25.18-15.883 34.98-24.872 3.543-3.249 7.169-6.573 11.282-9.98 4.425-3.664 9.191-6.597 14.133-8.454 4.464-1.678 9.089-2.481 13.75-2.152 3.792.268 7.355 1.386 10.721 3 3.46 1.661 6.779 3.889 9.952 6.288a43 43 0 0 1 6.321 5.88c1.862 2.124 3.23 4.46 4.566 6.867 4.306 7.762 9.06 15.011 14.062 21.077 5.17 6.268 10.42 11.013 17.069 13.884 1.612.696 3.422.652 5.012.26 1.244-.31 2.918-.958 4.062-1.512l-3.108-5.482c-.824.398-1.636.717-2.258.927-.345.116-.617.263-.917.134-5.623-2.428-10.31-6.84-14.842-12.337-4.7-5.698-9.162-12.544-13.307-20.015-1.56-2.812-3.291-5.62-5.45-8.081a49.4 49.4 0 0 0-7.288-6.797c-3.434-2.597-7.095-5.04-11.073-6.95-4.072-1.954-8.535-3.62-13.19-3.95-5.628-.397-11.05.871-16.375 2.873-5.656 2.125-11.044 5.426-15.99 9.523-4.158 3.442-7.89 6.865-11.537 10.21-9.4 8.622-18.221 16.711-33.327 23.75-17.334 8.078-35.759 11.61-53.077 12.222-26.642.94-41.87-3.155-66.118-11.177 13.738 15.796 24.18 29.876 45.578 36.003 6.497 1.861 13.875 3.09 22.35 2.99.03 2.587 4.12 7.426 5.976 8.53 3.398 2.021 8.273 4.278 12.376 4.979q.95.161 1.859.267c11.166 1.294 19.057.29 28.579-1.75 1.106-.297 2.246.088 2.577.784 1.028 2.158 3.931 2.636 5.958 3.387 3.104 1.15 6.428 1.551 9.62 1.78 3.187.227 6.177-.101 9.288-.82.513.694 1.067 1.1 1.68 1.67.707.655 3.913.649 5.789.711 12.574.422 23.656-2.278 34.092-5.539.037.814.248 1.97.587 2.647.576 1.152 1.644 1.814 2.69 2.38 1.301.703 3.391.287 4.725.14 5.445-.6 10.464-1.464 15.237-2.946 3.23-1.004 5.338-1.785 8.325-3.467.43-.242 1.714.187 2.184.522.82.583 1.718 1.152 2.638 1.488 1.76.643 4.17.224 5.749.059 6.15-.645 9.082-1.856 13.122-3.71 1.062-.487 1.615-.04 1.681-.007.408.205.728.477 1.566.76.83.28 1.899.24 2.643.027 1.675-.48 2.823-.883 3.933-1.51.79-.445 1.981-.38 2.378.248 1.866 2.952 5.077 5.692 7.975 8.953.25 4.146.458 11.67.006 20.727" style="fill:none;stroke:#1b1918;stroke-width:.21600001;stroke-linecap:butt;stroke-linejoin:miter;stroke-dasharray:none"></path><path d="M277.26 236.523c1.37-2.152 3.22-1.218 3.969.406 1.975 4.286 4.379 7.13 7.5 10.094 2.785 2.646 6.01 4.519 9.5 6.125 3.776 1.737 7.455 3.533 10.438 6.125 4.408 3.83 8.233 8.43 11.437 13.312 2.14 3.262 5.168 10.09 3.5 10.875-3.164 1.491-7.397.876-11.375-1-1.896-.894-2.308-4.4-3.5-6.125-2.4-3.472-5.613-6.65-8.938-9.25-4.233-3.31-8.274-5.345-13.187-8.437-3.441-2.166-6.36-4.953-9.25-7.813-1.194-1.181-2.586-2.582-3.25-4.125-.594-1.377-.826-2.892 0-4.5.975-1.897 2.01-3.889 3.156-5.687zM283.791 263.617c-.005-2.356 1.146-1.858 2.563-1.031 4.544 2.652 7.422 4.881 11.031 7.469 4.342 3.112 6.917 6.229 8.688 9.25-7.584.395-14.917.98-22.5 1.375.156-5.625.231-11.003.218-17.063z" style="fill:none;stroke:#1b1918;stroke-width:.56690001;stroke-linecap:butt;stroke-linejoin:miter;stroke-dasharray:none"></path><path d="M214.92 196.253c-.42.454-.809.92-1.107 1.382-.371.573-.604 1.14-.525 1.637.494 3.08 2.486 4.939 5.433 5.997 3.44 1.234 8.14 1.48 13.383 1.26l.188 4.8c-5.786.243-11.074-.065-15.19-1.543-4.608-1.654-7.742-4.668-8.557-9.761-.298-1.86.277-3.519 1.24-5.006.4-.619.86-1.194 1.34-1.733a37 37 0 0 1-3.522-3.688l3.69-3.087c2.306 2.763 4.78 4.877 7.23 6.323 2.427 1.431 4.798 2.196 6.916 2.271 1.923.07 3.637-.441 4.964-1.549a7.3 7.3 0 0 0 1.599-1.912c.398-.675.474-1.812.36-3.052a13.9 13.9 0 0 0-.936-3.839c-2.94-.864-5.56-1.755-8.097-2.88-2.853-1.266-5.587-2.828-8.535-4.98l-1.728-1.263 1.041-1.853.601-1.07 1.312-2.337 2.18 1.555c5.94 4.239 10.636 6.414 14.28 7.364 4.79 1.249 7.47.352 8.697-.583l2.917 3.821c-1.446 1.101-3.942 2.212-7.62 2.16.321 1.109.561 2.303.67 3.472.198 2.15-.041 4.305-1 5.932a12 12 0 0 1-2.654 3.155c-2.27 1.894-5.107 2.771-8.22 2.66-2.92-.105-6.074-1.091-9.193-2.93a27 27 0 0 1-1.156-.723M383.959 192.66c.48.54.94 1.115 1.34 1.734.963 1.487 1.537 3.146 1.24 5.006-.816 5.093-3.95 8.107-8.558 9.761-4.116 1.478-9.403 1.786-15.19 1.544l.189-4.8c5.243.219 9.943-.027 13.382-1.261 2.947-1.058 4.94-2.917 5.433-5.997.08-.497-.153-1.064-.524-1.637-.299-.462-.688-.928-1.108-1.382q-.577.381-1.156.722c-3.12 1.84-6.273 2.826-9.193 2.93-3.114.112-5.951-.765-8.22-2.66a12 12 0 0 1-2.654-3.155c-.96-1.626-1.199-3.78-1-5.93.108-1.17.348-2.364.669-3.472-3.678.052-6.173-1.06-7.62-2.16l2.918-3.822c1.227.935 3.906 1.832 8.697.583 3.644-.95 8.339-3.125 14.28-7.364l2.179-1.555 1.312 2.336.601 1.07 1.041 1.854-1.728 1.262c-2.947 2.153-5.682 3.715-8.534 4.98-2.538 1.126-5.157 2.017-8.098 2.881a13.9 13.9 0 0 0-.935 3.84c-.115 1.239-.038 2.377.36 3.05.454.77.992 1.408 1.598 1.913 1.327 1.108 3.042 1.618 4.965 1.55 2.117-.076 4.488-.84 6.915-2.272 2.45-1.446 4.924-3.56 7.23-6.323l3.69 3.087a37 37 0 0 1-3.521 3.688" style="fill:#090502;fill-rule:evenodd"></path><path d="M313.992 217.377c.911.37 1.906.716 2.718.917 1.59.394 3.4.438 5.012-.259 6.649-2.87 11.9-7.616 17.069-13.884 5.002-6.066 9.756-13.314 14.062-21.076l.037-.067a9.4 9.4 0 0 1-1.9-1.106l2.917-3.82c.363.276.853.549 1.487.764a27 27 0 0 1 2.025-2.638 43 43 0 0 1 6.321-5.88c3.173-2.4 6.492-4.627 9.952-6.288 3.365-1.615 6.93-2.732 10.722-3 4.66-.33 9.285.474 13.75 2.151 4.941 1.857 9.707 4.79 14.132 8.454 4.113 3.407 7.739 6.732 11.281 9.98 9.8 8.99 18.997 17.423 34.982 24.872 18.166 8.466 37.465 12.167 55.6 12.807 17.173.606 31.383-2.231 45.785-5.056-6.898 8.34-15.69 13.942-26.8 17.123-6.32 1.81-14.56 2.89-23.615 3.567-8.599.643-27.141-3.35-43.725-7.296-1.703-.405-3.81-.793-4.033-.28-.278.643 1.882 1.981 3.695 2.816 4.533 2.088 12.185 4.03 19.936 5.556 6.45 1.27 12.944 2.273 17.994 2.655.802.06 2.971.305 2.756 1.329-.336 1.592-1.774 3.276-3.35 4.371l.003.006c-2.69 1.865-6.363 3.057-9.676 3.623-.512.087-1.016.16-1.502.216-10.236.998-19.637.916-28.52-1.895-9.024-2.856-15.533-6.204-26.635-12.171-5.937-3.191-7.349-1.27-1.077 3.225 4 2.867 6.929 4.41 9.7 6.154 2.978 1.875 5.514 3.22 8.934 4.837.42.198 1.374.795 1.241 1.263-.238.834-1.08 1.45-1.947 1.77-2.305.853-5.608 1.422-8.337 1.616-5.159.368-10.494-1.317-15.34-3.74-5.766-2.883-10.544-5.519-15.38-9.983-6.433-5.94-5.573-1.938-3.32.815 4.388 5.368 9.817 9.219 16.047 12.443 2.192 1.134 1.508 2.494.01 2.436-11.436-.442-22.133-3.028-32.22-7.295-9.771-3.886-19.864-9.286-25.147-15.842-3.627-4.501-5.859-3.083-2.654 2.014 3.658 5.818 11.868 10.72 17.576 16.534.499.509 1.675 1.805 1.778 2.49.139.922.126 1.951-1.65 1.406-5.027-1.545-7.401-1.99-11.67-3.316-4.216-1.31-8.234-2.977-12.07-5.689-3.2-2.262-6.516-5.032-9.005-8.728-2.44-3.624-4.074-5.75-5.07-9.295-1.903-6.769-4.515-4.005-3.217.713 1.455 5.29 2.656 7.483 5.513 11.724 2.4 3.562 3.916 4.587 6.57 7.321.86.886 1.287 1.726.938 2.58-.26.637-2.277.552-3.052.47-5.362-.561-8.702-1.723-11.46-3.895-2.832-2.229-5.902-5.314-8.427-10.205-2.246-4.351-3.73-1.062-2.732 1.702.992 2.747 3.03 4.503 3.828 5.78 1.494 2.393 1.264 3.51.115 3.327-2.134-.338-9.71-4.062-15.101-11.104-3.215-4.2-6.451-11.03-5.855-18.019zm-.25-.103.252.08-.002.023zm-32.344.34a25 25 0 0 0 .465-.197 30.2 30.2 0 0 1-6.758-5.345c-5.08-2.516-9.407-6.675-13.603-11.763-4.7-5.698-9.162-12.544-13.307-20.015-1.56-2.812-3.29-5.62-5.449-8.081a49.4 49.4 0 0 0-7.289-6.797c-3.434-2.597-7.094-5.04-11.072-6.95-4.073-1.954-8.536-3.62-13.19-3.95-5.628-.397-11.05.871-16.375 2.872-5.657 2.126-11.045 5.427-15.992 9.524-4.156 3.442-7.889 6.865-11.535 10.21-9.402 8.621-18.222 16.711-33.327 23.75-17.335 8.078-35.76 11.61-53.078 12.222-26.642.94-41.869-3.155-66.118-11.178 13.739 15.797 24.181 29.876 45.578 36.004 6.497 1.86 13.875 3.09 22.351 2.99.029 2.587 4.12 7.426 5.975 8.53 3.398 2.021 8.274 4.278 12.376 4.979.632.107 1.255.197 1.86.267 11.166 1.294 19.056.29 28.578-1.75 1.106-.297 2.246.088 2.578.784 1.028 2.158 3.93 2.636 5.957 3.386 3.104 1.15 6.428 1.552 9.62 1.78 3.187.228 6.178-.1 9.288-.819.514.693 1.068 1.1 1.68 1.669.707.656 3.914.65 5.789.712 12.575.422 23.656-2.278 34.092-5.54.038.815.248 1.97.587 2.648.576 1.151 1.645 1.814 2.69 2.379 1.301.704 3.392.288 4.726.141 5.444-.6 10.463-1.464 15.237-2.947 3.229-1.003 5.337-1.784 8.325-3.466.429-.242 1.713.187 2.183.521.821.584 1.719 1.153 2.638 1.489 1.76.643 4.17.224 5.75.059 6.15-.645 9.081-1.856 13.121-3.71 1.062-.487 1.615-.04 1.681-.007.408.205.728.477 1.566.76.83.28 1.9.24 2.643.027 1.675-.48 2.823-.884 3.933-1.51.79-.445 1.981-.381 2.379.248 1.865 2.952 5.076 5.692 7.974 8.953.24 3.965.44 11.018.062 19.547q3.785-.506 7.625-.83c.13-5.1.191-10.063.18-15.593-.006-2.356 1.145-1.858 2.562-1.031 4.544 2.652 7.422 4.881 11.031 7.469 4.136 2.964 6.668 5.933 8.43 8.82q2.1.113 4.182.28c-.398-1.037-.763-2.088-1.268-2.82-2.4-3.472-5.613-6.65-8.938-9.25-4.233-3.31-8.274-5.345-13.187-8.437-3.441-2.166-6.36-4.953-9.25-7.813-1.194-1.181-2.586-2.582-3.25-4.125-.594-1.377-.826-2.892 0-4.5.975-1.897 2.01-3.889 3.155-5.688 1.37-2.152 3.221-1.217 3.97.407 1.975 4.285 4.379 7.129 7.5 10.093 2.785 2.647 6.01 4.52 9.5 6.126 3.776 1.737 7.455 3.533 10.438 6.124 4.408 3.831 8.233 8.43 11.437 13.313 1.403 2.139 3.188 5.811 3.78 8.308q4.152.707 8.224 1.63c-.565-6.864-5.049-13.42-8.056-18.022-1.763-2.696-5.046-5.525-5.228-6.7-.38-2.439-.183-7.986-.04-10.033.087-1.246.247-2.852 3.238-.257 3.09 2.681 9.14 4.647 10.833 5.132.744.214 2.907.597 3.737.317.838-.282.845-1.024 1.253-1.228.066-.033.62-.48 1.68.007 4.041 1.853 6.972 3.064 13.123 3.71 1.579.164 3.99.583 5.75-.06.919-.336 1.816-.905 2.637-1.488.47-.335 1.755-.764 2.184-.522 2.987 1.683 5.096 2.464 8.325 3.467 4.773 1.483 9.792 2.347 15.237 2.947 1.334.147 3.424.562 4.725-.141 1.046-.566 2.114-1.228 2.69-2.38.34-.678.55-1.833.587-2.647 10.436 3.261 21.518 5.961 34.092 5.54 1.875-.063 5.082-.057 5.788-.712.614-.57 1.168-.976 1.68-1.67 3.112.719 6.102 1.047 9.29.82 3.19-.228 6.515-.63 9.62-1.78 2.026-.75 4.929-1.229 5.957-3.387.331-.695 1.471-1.08 2.577-.784 9.522 2.04 17.412 3.044 28.579 1.75q.91-.106 1.859-.267c4.103-.701 8.978-2.957 12.376-4.979 1.856-1.103 5.946-5.943 5.975-8.53 8.476.1 15.854-1.129 22.35-2.99 21.398-6.127 31.84-20.207 45.579-36.003-24.249 8.022-39.476 12.117-66.118 11.177-17.318-.611-35.743-4.144-53.077-12.221-15.106-7.04-23.926-15.13-33.327-23.751-3.647-3.345-7.38-6.768-11.536-10.21-4.947-4.097-10.335-7.397-15.992-9.523-5.325-2.001-10.747-3.27-16.375-2.872-4.654.33-9.117 1.995-13.19 3.95-3.977 1.909-7.638 4.352-11.072 6.95a49.4 49.4 0 0 0-7.289 6.796c-2.158 2.461-3.889 5.27-5.449 8.081-4.145 7.472-8.607 14.317-13.307 20.016-4.532 5.496-9.22 9.908-14.842 12.336a.67.67 0 0 1-.421.03l-.255.257a30.2 30.2 0 0 1-5.349 4.257c.26.122.543.245.836.368l-.945-.3q-.718.445-1.461.85c-.673 9.274-.899 28.377-.564 38.418-3.302-1.553-4.373-2.877-7.298-4.47-1.744-.948-3.652-1.668-5.463-2.767-5.016-3.045-9.57-7.12-12.117-11.782-.71-1.298-1.758-2.805-1.948-4.273-.434-3.355.197-10.759.366-14.258a30 30 0 0 1-2.318-1.2zm-.114.047-.002-.024.116-.023q-.057.022-.114.047m-59.7-53.337c3.46 1.66 6.778 3.887 9.951 6.287a43 43 0 0 1 6.321 5.88 27 27 0 0 1 2.171 2.855 5 5 0 0 0 1.15-.64l2.917 3.821a9 9 0 0 1-1.597.966c4.287 7.711 9.015 14.91 13.988 20.942 5.168 6.268 10.42 11.012 17.068 13.883 1.612.697 3.423.653 5.012.26.812-.201 1.807-.548 2.719-.918.596 6.99-2.64 13.82-5.855 18.02-5.392 7.042-12.967 10.765-15.101 11.104-1.15.182-1.38-.935.115-3.327.797-1.278 2.836-3.034 3.828-5.78.999-2.765-.486-6.054-2.732-1.702-2.525 4.89-5.595 7.976-8.426 10.204-2.76 2.173-6.1 3.334-11.46 3.896-.776.081-2.794.166-3.053-.47-.349-.854.077-1.695.938-2.58 2.654-2.735 4.17-3.76 6.57-7.322 2.857-4.24 4.058-6.434 5.513-11.724 1.298-4.718-1.314-7.481-3.216-.713-.997 3.545-2.63 5.672-5.07 9.295-2.49 3.696-5.806 6.466-9.006 8.728-3.836 2.712-7.854 4.379-12.07 5.689-4.269 1.326-6.643 1.771-11.67 3.316-1.776.546-1.789-.484-1.65-1.406.103-.685 1.28-1.98 1.778-2.49 5.708-5.814 13.918-10.716 17.576-16.533 3.205-5.098.973-6.516-2.654-2.015-5.283 6.556-15.376 11.956-25.147 15.842-10.087 4.268-20.784 6.853-32.22 7.295-1.498.058-2.182-1.301.01-2.436 6.23-3.224 11.659-7.075 16.048-12.442 2.251-2.754 3.112-6.755-3.322-.815-4.835 4.463-9.613 7.1-15.38 9.982-4.845 2.423-10.18 4.109-15.339 3.74-2.73-.194-6.032-.762-8.337-1.615-.867-.321-1.71-.937-1.947-1.771-.133-.468.822-1.065 1.24-1.263 3.42-1.617 5.957-2.962 8.935-4.837 2.771-1.744 5.7-3.287 9.7-6.154 6.272-4.495 4.86-6.416-1.077-3.225-11.102 5.968-17.611 9.316-26.635 12.171-8.883 2.812-18.284 2.893-28.52 1.895-.486-.056-.99-.129-1.502-.216-3.313-.566-6.986-1.758-9.676-3.623l.004-.006c-1.577-1.094-3.015-2.778-3.35-4.371-.216-1.024 1.953-1.268 2.755-1.329 5.05-.382 11.545-1.385 17.994-2.654 7.752-1.527 15.403-3.469 19.937-5.557 1.812-.834 3.972-2.173 3.694-2.816-.222-.513-2.33-.125-4.032.28-16.584 3.947-35.127 7.94-43.726 7.296-9.054-.677-17.294-1.756-23.614-3.566-11.11-3.182-19.902-8.784-26.8-17.124 14.401 2.825 28.611 5.663 45.785 5.057 18.134-.64 37.433-4.342 55.6-12.807 15.985-7.45 25.18-15.883 34.981-24.872 3.543-3.249 7.168-6.574 11.282-9.98 4.424-3.664 9.19-6.597 14.132-8.454 4.464-1.678 9.09-2.482 13.75-2.152 3.792.268 7.356 1.385 10.721 3" style="fill:#090502;fill-rule:evenodd"></path><path d="M275.43 235.68c3.214-4.2 6.45-11.03 5.854-18.02-.912.37-1.907.717-2.72.918-1.588.393-3.399.437-5.011-.26-6.648-2.87-11.9-7.615-17.068-13.883-4.973-6.031-9.701-13.23-13.988-20.942-1.46.7-3.453 1.23-6.022 1.195.32 1.108.56 2.302.668 3.471.2 2.15-.04 4.305-1 5.932a12 12 0 0 1-2.653 3.155c-2.27 1.894-5.107 2.771-8.22 2.66-2.92-.105-6.075-1.091-9.193-2.93a27 27 0 0 1-1.156-.723c-.42.454-.81.92-1.109 1.382-.37.573-.603 1.14-.524 1.637.494 3.08 2.486 4.939 5.433 5.997 3.44 1.234 8.14 1.48 13.383 1.26l.188 4.8c-5.786.243-11.074-.065-15.19-1.543-4.608-1.654-7.742-4.668-8.557-9.761-.298-1.86.277-3.519 1.24-5.006.4-.619.86-1.194 1.34-1.733a37 37 0 0 1-3.522-3.688l3.69-3.087c2.306 2.763 4.78 4.877 7.23 6.323 2.427 1.431 4.798 2.196 6.916 2.271 1.923.07 3.637-.441 4.964-1.549a7.3 7.3 0 0 0 1.599-1.912c.398-.675.474-1.812.36-3.052a13.9 13.9 0 0 0-.936-3.839c-2.94-.864-5.56-1.755-8.097-2.88-2.853-1.266-5.587-2.828-8.535-4.98l-1.728-1.263 1.041-1.853.601-1.07 1.312-2.337 2.18 1.555c5.94 4.239 10.636 6.414 14.28 7.364 3.636.948 6.055.66 7.547.057a27 27 0 0 0-2.17-2.855 43 43 0 0 0-6.322-5.88c-3.173-2.4-6.491-4.627-9.952-6.287-3.365-1.616-6.929-2.733-10.722-3-4.66-.33-9.284.473-13.75 2.15-4.94 1.858-9.707 4.79-14.131 8.455-4.114 3.406-7.74 6.731-11.282 9.98-9.8 8.989-18.996 17.422-34.982 24.872-18.166 8.465-37.465 12.167-55.599 12.807-17.174.606-31.384-2.232-45.786-5.057 6.899 8.34 15.69 13.942 26.8 17.124 6.32 1.81 14.56 2.889 23.615 3.566 8.599.644 27.142-3.35 43.726-7.296 1.702-.405 3.81-.793 4.032-.28.278.643-1.882 1.982-3.694 2.816-4.534 2.088-12.185 4.03-19.937 5.557-6.449 1.27-12.944 2.272-17.994 2.654-.802.061-2.971.305-2.755 1.329.335 1.593 1.773 3.277 3.35 4.371l-.004.006c2.69 1.865 6.363 3.057 9.676 3.623.512.087 1.016.16 1.502.216 10.236.998 19.637.917 28.52-1.895 9.024-2.855 15.533-6.203 26.635-12.17 5.937-3.192 7.349-1.271 1.077 3.224-4 2.867-6.929 4.41-9.7 6.154-2.978 1.875-5.514 3.22-8.934 4.837-.42.198-1.374.795-1.241 1.263.238.834 1.08 1.45 1.947 1.77 2.305.854 5.608 1.422 8.337 1.617 5.159.368 10.494-1.318 15.34-3.74 5.766-2.884 10.544-5.52 15.38-9.983 6.433-5.94 5.573-1.939 3.32.815-4.389 5.367-9.817 9.218-16.047 12.442-2.192 1.135-1.508 2.494-.01 2.436 11.435-.442 22.133-3.027 32.22-7.295 9.771-3.886 19.864-9.286 25.147-15.842 3.627-4.5 5.859-3.083 2.654 2.015-3.658 5.817-11.868 10.719-17.576 16.534-.499.508-1.675 1.804-1.778 2.49-.139.921-.127 1.95 1.65 1.405 5.027-1.545 7.401-1.99 11.67-3.316 4.216-1.31 8.234-2.977 12.07-5.689 3.2-2.262 6.515-5.032 9.005-8.728 2.44-3.623 4.074-5.75 5.07-9.295 1.903-6.768 4.515-4.005 3.217.713-1.455 5.29-2.656 7.483-5.513 11.724-2.4 3.562-3.916 4.587-6.57 7.321-.86.886-1.287 1.727-.938 2.581.26.636 2.277.551 3.052.47 5.362-.562 8.702-1.723 11.46-3.896 2.832-2.228 5.902-5.314 8.427-10.204 2.246-4.352 3.73-1.063 2.732 1.701-.992 2.747-3.03 4.503-3.828 5.78-1.494 2.393-1.264 3.51-.115 3.328 2.133-.34 9.71-4.062 15.101-11.105M343.654 227.696c-1.297-4.718 1.314-7.482 3.217-.713.996 3.545 2.63 5.671 5.07 9.295 2.49 3.695 5.805 6.466 9.006 8.728 3.835 2.711 7.853 4.379 12.069 5.688 4.27 1.326 6.644 1.772 11.671 3.317 1.776.545 1.788-.484 1.65-1.406-.104-.685-1.28-1.981-1.779-2.49-5.708-5.815-13.917-10.716-17.575-16.534-3.206-5.097-.974-6.515 2.653-2.014 5.283 6.556 15.376 11.955 25.147 15.842 10.087 4.267 20.785 6.853 32.22 7.295 1.498.057 2.182-1.302-.01-2.436-6.23-3.225-11.658-7.075-16.048-12.443-2.251-2.753-3.112-6.754 3.322-.815 4.835 4.464 9.613 7.1 15.38 9.983 4.845 2.423 10.18 4.108 15.34 3.74 2.729-.194 6.031-.763 8.336-1.616.867-.32 1.71-.936 1.947-1.77.134-.468-.822-1.066-1.24-1.263-3.42-1.618-5.956-2.962-8.935-4.837-2.77-1.745-5.7-3.287-9.7-6.154-6.272-4.496-4.86-6.417 1.077-3.225 11.103 5.967 17.612 9.315 26.636 12.171 8.882 2.811 18.283 2.893 28.52 1.894q.73-.084 1.502-.216c3.312-.565 6.985-1.757 9.676-3.622l-.004-.006c1.576-1.095 3.014-2.779 3.35-4.372.216-1.023-1.954-1.268-2.755-1.328-5.05-.383-11.545-1.385-17.994-2.655-7.752-1.526-15.403-3.468-19.937-5.556-1.812-.835-3.973-2.173-3.695-2.816.222-.514 2.33-.125 4.033.28 16.584 3.946 35.127 7.94 43.726 7.296 9.054-.678 17.294-1.757 23.614-3.567 11.11-3.181 19.902-8.783 26.8-17.123-14.401 2.824-28.611 5.662-45.785 5.056-18.135-.64-37.433-4.342-55.6-12.807-15.985-7.45-25.18-15.883-34.982-24.871-3.542-3.25-7.167-6.574-11.28-9.98-4.426-3.665-9.192-6.598-14.133-8.455-4.465-1.678-9.09-2.481-13.75-2.152-3.792.269-7.356 1.386-10.722 3.001-3.46 1.66-6.779 3.888-9.951 6.287a43 43 0 0 0-6.322 5.88c-.744.85-1.409 1.731-2.025 2.639 1.51.512 3.836.697 7.21-.182 3.644-.95 8.339-3.126 14.28-7.364l2.18-1.555 1.311 2.336.602 1.07 1.04 1.854-1.727 1.262c-2.948 2.153-5.682 3.715-8.535 4.98-2.538 1.126-5.157 2.016-8.097 2.881a13.9 13.9 0 0 0-.936 3.84c-.115 1.238-.038 2.376.36 3.05.454.77.993 1.408 1.599 1.913 1.326 1.107 3.04 1.618 4.964 1.55 2.117-.077 4.488-.84 6.915-2.272 2.45-1.446 4.924-3.56 7.23-6.323l3.69 3.087a37 37 0 0 1-3.521 3.688c.48.539.94 1.114 1.34 1.733.963 1.487 1.538 3.146 1.24 5.006-.816 5.093-3.95 8.107-8.558 9.761-4.115 1.477-9.403 1.786-15.19 1.543l.189-4.8c5.244.22 9.943-.026 13.382-1.26 2.947-1.058 4.94-2.917 5.433-5.997.08-.497-.153-1.064-.524-1.637-.299-.462-.688-.928-1.108-1.382q-.577.38-1.156.722c-3.119 1.84-6.273 2.826-9.193 2.93-3.114.112-5.95-.765-8.22-2.66a12 12 0 0 1-2.654-3.155c-.959-1.626-1.199-3.78-1-5.93.108-1.17.349-2.364.669-3.472-2.395.033-4.289-.427-5.718-1.055l-.037.066c-4.307 7.762-9.061 15.011-14.063 21.077-5.169 6.268-10.42 11.013-17.068 13.884-1.613.696-3.423.652-5.012.26-.813-.202-1.808-.548-2.719-.918-.596 6.988 2.64 13.82 5.854 18.019 5.392 7.042 12.968 10.765 15.102 11.104 1.149.182 1.379-.935-.115-3.327-.797-1.277-2.836-3.033-3.829-5.78-.998-2.765.486-6.054 2.733-1.702 2.525 4.89 5.595 7.976 8.426 10.205 2.759 2.172 6.099 3.334 11.46 3.896.776.08 2.793.165 3.053-.47.349-.855-.078-1.695-.938-2.581-2.654-2.735-4.171-3.76-6.57-7.322-2.857-4.24-4.058-6.434-5.513-11.723zM310.772 256.242c-.335-10.04-.11-29.144.564-38.418a30 30 0 0 1-14.375 3.646c-4.517 0-8.803-.995-12.649-2.778-.169 3.5-.8 10.903-.366 14.258.19 1.468 1.239 2.975 1.948 4.273 2.548 4.663 7.1 8.738 12.117 11.782 1.811 1.099 3.72 1.82 5.463 2.768 2.925 1.592 3.996 2.917 7.298 4.469" style="fill:#ff0;fill-rule:evenodd"></path><path d="M296.961 166.345c-6.906 0-13.16 2.8-17.685 7.325a24.93 24.93 0 0 0-7.326 17.686c0 6.907 2.8 13.16 7.326 17.686a24.93 24.93 0 0 0 17.685 7.325c6.907 0 13.16-2.8 17.686-7.325a24.93 24.93 0 0 0 7.326-17.686c0-6.907-2.8-13.16-7.326-17.686a24.93 24.93 0 0 0-17.686-7.325m-21.668 3.093c5.45-5.45 13.228-8.57 21.543-8.57 8.316 0 16.344 3.12 21.794 8.57s9.07 13.853 9.07 22.168-3.746 15.844-9.195 21.293c-5.45 5.45-12.978 9.07-21.293 9.07-8.316 0-16.344-3.495-21.794-8.945-5.45-5.449-9.32-13.353-9.32-21.668s3.746-16.469 9.195-21.918" style="fill:#110a02;fill-rule:evenodd"></path><path d="M308.667 259.273c-2.983-2.592-6.662-4.388-10.438-6.125-3.49-1.606-6.715-3.48-9.5-6.125-3.121-2.965-5.525-5.808-7.5-10.094-.749-1.624-2.6-2.558-3.97-.406-1.145 1.798-2.18 3.79-3.155 5.687-.826 1.608-.594 3.123 0 4.5.664 1.543 2.056 2.944 3.25 4.125 2.89 2.86 5.809 5.647 9.25 7.813 4.913 3.092 8.954 5.127 13.187 8.437 3.325 2.6 6.538 5.778 8.938 9.25.505.732.87 1.783 1.268 2.82 4.692.378 9.324.96 13.888 1.738-.592-2.497-2.378-6.17-3.781-8.308-3.204-4.883-7.029-9.482-11.437-13.312M297.385 270.055c-3.609-2.587-6.487-4.817-11.031-7.47-1.417-.826-2.568-1.324-2.563 1.032.012 5.53-.05 10.492-.18 15.593a160 160 0 0 1 22.204-.336c-1.762-2.886-4.294-5.855-8.43-8.82" style="fill:#ff0;fill-rule:evenodd" data-source="https://football-logos.cc"></path><!-- source: https://football-logos.cc --></svg>