<svg xmlns="http://www.w3.org/2000/svg" xml:space="preserve" viewBox="102.54 36.56 12863.4 13748.55"><!-- Source: https://football-logos.cc --><path d="M1444.5 899.78c-.28-.29-.77-.03-.68.36a671 671 0 0 1 14.38 111.68c.08 1.81-.16 4.09.33 6.22.07.26.1.53.1.8-.01 13.48.44 19.69-.36 26.48-.05.36-.1 2.58-.17 6.67-.11 6.54-1.58 26.48-4.43 59.81q-.165 2.025 2.19 3.48c.59.37 8.23 4.61 22.91 12.72 10.48 5.8 21.86 13.27 33.01 19.62 11.9 6.79 21.6 12.32 29.09 16.6 5.91 3.37 15.46 9.14 28.66 17.31q20.91 12.93 38.7 22.83c6.21 3.45 9.36 7 11.9 12.99 5.14 12.12 6.21 26 4.89 39.16-2.79 27.61-15.16 52.72-32.95 74.19-.46.56-.32 1.39.29 1.77 7.62 4.69 11.49 11.53 11.6 20.53.03 2.39-.39 5.28-1.28 8.68-.56 2.17-1.59 4.91-3.09 8.23-8.83 19.45-19 38.66-30.52 57.65-6.18 10.19-12.87 20.59-20.07 31.19-27.04 39.85-56.91 77.19-89.61 112.03-2.03 2.17-3.52 3.26-4.78 5.05q-.675.96-2.16 2.43c-10.37 10.33-16.99 17.43-25.79 25.39-2.15 1.95-5.01 4.59-8.58 7.93-1.95 1.81-4.4 4.03-7.35 6.65a746 746 0 0 1-41.5 34.25c-43.19 33.11-89.12 62.42-137.2 86.05-43.66 21.46-89 39.04-136.01 52.75-43.5 12.69-87.41 22.01-131.73 27.97-15.07 2.03-30.59 3.4-46.54 4.1-7.08.31-11.51.43-13.29.34-.21-.01-.5.04-.89.15-2.65.75-8.85.36-16.32.29-.39 0-.98.12-1.76.36-.16.05-.32.07-.49.07h-33c-.47 0-1.26-.11-2.35-.33-.24-.05-.48-.07-.73-.07h-15c-.18 0-.37-.04-.54-.13-.11-.05-.19-.1-.26-.14a.6.6 0 0 0-.19-.06q-21.9-.555-45.18-2.64c-100.71-9.02-196.63-35.25-287.77-78.68q-52.11-24.825-100.08-56.16c-68.42-44.69-129.92-101.04-182.15-164.62-33.3-40.53-62.48-82.16-86.6-127.61-4.92-9.27-9.07-17.54-12.44-24.82a56.6 56.6 0 0 1-4.03-12.19c-1.9-9.04.34-16.53 6.73-22.48.99-.91 2.26-1.96 3.81-3.13.67-.51.8-1.48.29-2.15a205 205 0 0 1-15.94-24.17c-7.56-13.46-12.75-27.7-15.56-42.71-.49-2.61-.84-6.24-1.04-10.89q-.015-.24-.15-.63-.135-.405-.15-.63c-.37-10.31 1.05-20.53 4.27-30.66 1.64-5.17 4.42-9.46 8.33-12.88 1.42-1.25 4.82-3.44 10.2-6.56 18.59-10.78 36.73-21.61 54.44-32.48 10.7-6.57 20.42-11.39 31.17-17.97 22.09-13.49 44.44-26.6 67.06-39.32 1.08-.61 1.66-1.53 1.75-2.74.01-.11-.11-1.23-.35-3.36-1.51-13.47-2.59-27-3.25-40.59-.13-2.65-.18-4.65-.14-6 .1-3.06-.52-5.09-.44-8.01.02-.69.02-9.34 0-25.94-.01-2.19.1-4.22.31-6.09.37-3.4-.37-7.61.44-10.9.39-1.57.1-3.92.24-6.42 1.23-21.83 3.72-43.95 7.49-66.35 1.53-9.13 3.2-18.47 5-28.02.05-.27.03-.47-.07-.6-.21-.31-.48-.37-.8-.16-2.73 1.73-6.25 4.45-9.43 5.82-5.95 2.55-11.65 3.89-17.1 4.01-6.18.15-12.18-1.58-18.01-5.17-12.05-7.43-17.92-18.42-17.59-32.98.28-12.7 5.94-29.02 16.35-37.28 8.08-6.4 20.64-8.79 30.69-6.64q18.195 3.915 28.23 20.85c.2.34.66.4.94.14.17-.16.3-.4.4-.73 10.98-36.2 25.15-70.95 42.51-104.24 19.31-37.04 42.35-71.67 69.1-103.88 7.94-9.56 16.95-19.64 27.02-30.23 4.13-4.35 9.24-9.49 15.33-15.43 32.95-32.15 68.72-60.03 107.32-83.65 46.35-28.37 95.48-50.58 147.41-66.63.55-.17.64-.9.15-1.2a691 691 0 0 1-29.88-19.29 469 469 0 0 1-70.01-58.55c-1.27-1.3-2.54-3-4.09-4.59-24.06-24.69-43.37-54.49-54.26-87.23a187 187 0 0 1-8.83-42.36c-.25-2.82-.38-4.99-.37-6.5.02-4.25-.69-7.75-.28-12.02.13-1.29.22-3.13.29-5.52.15-5.85.72-13.51 1.69-22.97.14-1.37 1.73-15.04 4.76-41.03.32-2.79.24-5.23.24-8.5 0-.3.05-.6.15-.88.46-1.33.47-2.66.03-4-.09-.26-.13-.53-.13-.79q-.105-22.785-14.07-38.7c-10.39-11.83-23.21-19.88-38.44-24.15-.59-.17-.68-.97-.14-1.25 1.14-.59 3.26-1.62 6.36-3.07 10.83-5.08 21.56-11.85 32.2-20.31 5.25-4.18 11.3-10.17 15.3-13.99q3.21-3.075 3.75-3.6c14.03-13.66 30.99-21.4 50.89-23.22 5.01-.45 8.89-.66 11.63-.63 2.85.03 6.72.32 11.59.86 25.74 2.82 46.74 17.6 57.38 41.11 5.77 12.75 12.15 28.36 19.16 46.85a92 92 0 0 0 9.1 17.91c2.69 4.11 5.77 7.7 9.23 10.77 5.57 4.95 12.51 7.78 20.8 8.47 3.91.33 9.4-.42 16.46-2.23 2.45-.63 7.88-1.85 16.29-3.67 12.42-2.68 24.48-4.6 36.19-5.75q1.68-.165 2.73-.12c1.33.06 2.37-.5 3.86-.45 2.44.08 4.07.05 4.88-.08 2.27-.35 3.88-.49 4.82-.4.71.07 8.47.08 23.26.03 3.85-.01 8.09.7 12.27.44.38-.03.76.02 1.12.14.95.31 1.92.42 2.93.33.83-.07 1.84-.05 3.04.06 47.19 4.69 90.96 18.45 131.32 41.3 25.82 14.62 50.13 32.96 72.93 55.03 1.01.97 1.87 1.77 2.6 2.38 1.51 1.28 2.57 2.88 4 4.33 6.64 6.79 12.26 12.9 16.85 18.33 15.52 18.33 29.92 38.88 43.19 61.67 6.77 11.62 12.16 21.39 16.17 29.3q24.87 48.99 41.94 85.23c1.11 2.34.61 4.36-1.5 6.05-1.76 1.41-3.9 3.23-6.41 5.44-.43.37-.51 1-.21 1.47a934 934 0 0 1 46.53 80.57c7.22 14.07 13.33 27.22 18.32 39.47 3.59 8.82 6.55 18.3 8.88 28.43.45 1.97.94 3.4 1.45 4.31 1.49 2.63 3.88 4.23 6.76 6.91 71.71 66.82 123.71 146.33 155.98 238.53 1.06 3.03 1.83 5.06 2.31 6.1.21.46.89.4 1.02-.09l30.97-117.9c.17-.66-.33-1.3-1.01-1.28-6.61.12-13.44-.12-17.88-5.73-3.31-4.18-4.88-8.52-4.7-13.03.14-3.51 1.08-8.09 2.83-13.76q6.855-22.185 14.46-45.69c1.47-4.56 2.85-7.9 4.14-10.03 5.74-9.49 16.26-11.97 26.28-14.33 11.66-2.73 23.1-4.34 34.32-4.82 5.75-.24 15.26-.28 28.51-.11.24 0 .47.03.7.1 1.68.47 3.29.2 5.21.35 15.37 1.19 30.13 3.95 44.28 8.3 22 6.77 43.16 18.6 58.9 35.13 9.23 9.69 16.47 20.74 21.71 33.14 5.77 13.67 8.95 28.07 9.52 43.21.05 1.27.15 2.82.32 4.67.26 2.85-.25 5.86-.35 8.43-.22 5.6-.5 9.67-.83 12.2-2.25 17.07-6.39 34.01-12.43 50.84a175 175 0 0 1-19.24 38.18c-.14.21-.1.49.09.65.18.17.47.17.66.01 4.24-3.56 9.17-6.06 14.8-7.5 1.69-.43 3.19-.34 4.65-.9.32-.12.66-.18 1-.18 14.67.16 26.58 5.6 35.74 16.32 3.61 4.22 6.07 9.15 7.4 14.8 2.57 10.93-1.26 22.4-7.09 31.79-6.63 10.68-15.72 17.28-27.25 19.81-2.46.54-4.71.75-6.74.63-2.11-.12-6.1.24-8.98-.46-8.49-2.09-15.09-6.13-19.79-12.14-5.8-7.41-9.07-15.99-9.82-25.73q-.27-3.6-.03-4.47c.13-.48.21-.87.21-.99q.015-4.875 2.43-13.44c.11-.4-.39-.67-.67-.37-27.65 29.34-60.76 49.52-99.33 60.55-5.24 1.49-10.57 2.62-15.98 3.37-7.27 1.01-12.72 1.56-16.36 1.63q-2.535.045-5.34.27c-4.95.39-11.2.32-18.74-.2-8.16-.56-15.27-3.52-21.33-8.87-4.89-4.33-7.84-7.07-8.84-8.24-2.85-3.31-5.37-6.09-7.57-8.34m31.66-201.12c-.27 2.39-.64 4.5-1.13 6.34-18.74 70.93-29.81 112.87-33.22 125.82-2.71 10.31-5.93 21.77-4.97 32.17.13 1.43.65 2.79 1.5 3.94 7.61 10.31 15.66 20 24.16 29.09 6.94 7.42 13.59 13.68 24.24 14.13 30.95 1.31 60.08-5.78 87.4-21.28 14.13-8.02 26.98-17 38.55-26.93 29.19-25.09 46.94-62.48 53.48-99.98 3.93-22.55 3.25-44.46-4.06-66.07-6.23-18.41-18.96-35.73-35.13-46.87-25.56-17.62-52.88-24.57-84.81-26.36-19.58-1.09-38.93.53-58.06 4.86-8.48 1.92-15.16 3.25-18.02 11.32-6.15 17.31-11.99 35.72-17.54 55.21-.55 1.93.03 4.02 2.29 4.05q6.255.075 24.84.03c.29 0 .51.25.48.53" style="fill:#0c0d0d;fill-opacity:1;fill-rule:nonzero;stroke:none" transform="matrix(7.55356 0 0 7.55547 0 -.29)" data-source="https://football-logos.cc"></path><path d="M542.3 64.04c1.97-1.67 5.17-4.02 9.62-7.06 18.12-12.37 39.51-24.56 62.02-16.31 16.27 5.97 29.94 18.26 42.98 30.17.56.51.25 1.43-.5 1.52-.78.09-1.66.04-2.65-.15-6.29-1.25-11.97-3.65-17.04-7.19-7.97-5.57-12.87-8.9-14.7-9.98-13.59-8.02-27.26-7.45-40.56.22-12.62 7.27-23.84 13.33-39.02 9.41a.366.366 0 0 1-.15-.63" style="fill:#fff;fill-opacity:1;fill-rule:nonzero;stroke:none" transform="matrix(7.55356 0 0 7.55547 0 -.29)"></path><path d="M614.267 73.914c.103 3.556-3.607 6.556-8.287 6.683-4.68.133-8.55-2.647-8.647-6.21-.103-3.557 3.607-6.557 8.287-6.684 4.68-.133 8.55 2.647 8.647 6.21" style="fill:#fff;fill-opacity:1;fill-rule:nonzero;stroke:none" transform="matrix(7.55356 0 0 7.55547 0 -.29)"></path><path d="M656.4 83.38c.21.03.29.3.12.43-8.24 6.21-16.88 13.05-25.91 20.53-6.06 5.02-13.97 9.98-21.6 10.64-2.93.25-6.96.35-12.1.28-.79-.01-1.37.74-1.17 1.5 1.81 6.97 4.61 13.35 8.42 19.14.6.92 1.42 1.68 2.38 2.22 4.33 2.4 8.33 3.86 9.94 8.06 3.88 10.15 1.5 20.18-5.01 29.17-12.13 16.77-30.86 26.22-50.7 31.1-.41.1-.83-.16-.91-.58-.37-1.98-.48-4.34-.12-6.49 1.64-9.67 3.08-21.38 4.31-35.13 2.75-30.72-1.55-62.94-21.17-87.73-.4-.51.03-1.25.67-1.16 7.86 1.15 15.23 3.34 22.1 6.55 12.18 5.7 20.13 14.66 32.6 17.21 22.58 4.6 38.93-18.35 58.15-15.74M643.69 127.02c1.93.81 3.59 2.08 4.99 3.83 10.48 13.05 13.72 28.54 9.56 45.24-2.83 11.35-7.91 21.52-15.25 30.52a5.5 5.5 0 0 0-1.18 2.63c-1.55 9.57-3.95 19.16-7.21 28.78-.12.37-.44.65-.83.72l-5.24.94c-1.54.28-2.85 1.3-3.49 2.74-1.81 4.11-3.5 7.54-5.05 10.3-7.99 14.21-20.94 25.17-37.4 26.45-4.94.39-8.06-1.17-8.15-6.37q-.225-13.455 7.47-22.83c1.91-2.33 5.01-4.87 9.32-7.63 17.76-11.39 37.42-25.28 41.96-47.11 1.32-6.36 1.65-9.08 4.07-14.07 4.78-9.87 7.35-16.08 8.91-25.45 1.66-9.97.69-19.38-2.92-28.25-.11-.28.16-.56.44-.44M819.21 223.94c21.32 3.83 37.1 16.56 47.17 35.25 2.59 4.8 4.36 10.08 5.33 15.83.49 2.89 0 5.4-1.47 7.54-.69 1.01-2.26.65-2.45-.56-.55-3.41-1.25-6.31-2.1-8.69-8.46-23.53-24.65-38.46-46.71-48.64a.384.384 0 0 1-.21-.47c.06-.18.25-.29.44-.26M788.29 234.16c-.14-.34.29-.62.55-.36 6.42 6.5 11.64 13.16 12.72 22.45q1.125 9.735-1.62 18.42c-1.35 4.26-5.93 8.9-9.42 12.29-.33.31-.48.77-.41 1.22 1.57 10.62 3.39 23.16 3.24 33.39q-.255 16.47-5.07 32.34c-.28.94.75 1.72 1.58 1.2 2.19-1.39 5.63-3.52 10.3-6.37 2.53-1.55 5.06-4.18 7.6-7.89 6.9-10.1 4.13-24.39.61-35.15-.18-.54.51-.93.88-.51 13.45 15.38 20.32 36.52 21.74 56.58.48 6.75.97 14.92 1.48 24.49.12 2.21.78 4.55 1.98 7.01.26.52.78.85 1.36.85 6.47-.02 8.68-3.29 11.86-8.87q3.915-6.84 4.86-15.27c.09-.77 1.13-.95 1.47-.25q5.76 11.91 8.43 24.75c2.07 9.95 1.59 22.9 2.24 33.29.28 4.51.68 7.54 1.21 9.09.41 1.2 1.33 1.64 2.76 1.31.18-.04.35-.1.51-.19 9.75-5.53 16.57-13.58 20.46-24.14.26-.69 1.12-.93 1.7-.47 8.85 7.04 16.67 16.56 18.18 27.88 1.07 8.01-.08 15.27-1.18 25.24-.02.19.04.37.17.55.37.48 1.09.49 1.48.02 1.35-1.65 2.47-2.96 3.36-3.94.33-.36.73-.65 1.17-.85 1.79-.82 3.18-1.52 4.18-2.1 7.59-4.46 9.47-14.87 8.83-23.42-.69-9.14-1.16-16.39-1.4-21.74-.04-.79.98-1.14 1.44-.49 9.54 13.54 8.61 28.44 7.66 44.72-.14 2.41 2.39 3.06 4.3 2.27 7.24-2.96 8.97-20.9 9.53-27.19.03-.39.17-.7.41-.92.66-.6 1.71-.38 2.13.43 3.9 7.49 3.4 17.21 2.86 25.42-.01.25.02.57.1.96.18.87 1.06 1.41 1.92 1.16 2.62-.78 4-1.91 5.56-4.36 3.85-6.05 8.46-11.84 13.84-17.38.27-.28.5-.59.69-.94l4.87-8.91c.15-.28.5-.38.78-.23l.35.19c.12.06.19.18.2.3.59 6.14.18 11.79-1.24 16.96-4.7 17.11-7.93 29.62-9.68 37.55-.91 4.13-1.55 8.18-1.9 12.13-.09 1.08 1.11 1.79 2 1.18 4.09-2.75 10.28-6.62 18.57-11.6 1.23-.74 2.82-2.16 4.79-4.25 9.44-10.03 9.82-25.42 11.18-39.4a1.707 1.707 0 0 1 2.51-1.33l.54.3c.94.51 1.57 1.46 1.68 2.52.37 3.49.51 12.08.41 25.77-.01 1 .35 1.71 1.06 2.14.77.46 1.77.31 2.43-.35 1.73-1.77 3.79-4.07 6.18-6.91 5.26-6.29 7.24-11.18 7.63-19.07.03-.62.22-5.57.57-14.84.02-.41.5-.61.8-.33 7.2 6.66 13.23 12.51 18.08 17.55 6.23 6.46 10.58 10.33 13.06 11.62 11.45 5.93 24.42 5.38 35.96-.21 1.12-.54 2.48-.2 3.21.81 5.71 7.83 13.87 17.57 24.18 17.22 1.72-.06 3.69-.07 5.91-.02 1.16.03 2.27.46 3.14 1.23a453 453 0 0 0 40.26 31.79c.33.23.43.68.22 1.02l-.02.03c-.2.34-.65.44-.99.24-33.96-20.16-69.98-35.68-108.9-42.89-4.01-.74-7.01-1.6-8.99-2.59-5.96-2.97-11.53-7.67-16.57-11.31-.7-.5-1.69-.11-1.84.74-1.97 10.78-7.2 20.69-17.47 25.08-4.28 1.83-9.48 2.12-14.48 2.73-.5.06-.93.4-1.11.88l-2.07 5.61c-.03.07-.06.14-.11.21-10.22 14.11-18.24 29.33-24.05 45.65a4.07 4.07 0 0 1-2.87 2.59c-15.84 3.89-30.53-1.23-46.58-6.39-1.47-.48-16.32-5.83-44.53-16.04-17.61-6.38-37.67-15.25-60.16-26.61-22.2-11.21-48.94-24.89-80.23-41.04-55.82-28.81-107.75-67.67-140.86-120.37-.25-.4-.17-.93.19-1.23 14.89-12.75 29.01-25.92 41.45-40.69 6.58-7.81 11.6-16.45 15.05-25.91 1.72-4.7 3.29-9.28 4.71-13.75 2.01-6.33 5.03-11.64 8.6-16.99.69-1.03 1.26-1.69 1.7-1.96.7-.43 1.6.04 1.65.86l.91 16.57c.02.38.31.69.68.74 9.56 1.4 16.87 6.56 25 12.59 5.91 4.39 10.91 9.42 14.98 15.07 4.82 6.7 7.05 13.9 7.09 22.65.05 8.89-1.54 17.71-4.79 26.47-.15.38-.23.79-.25 1.19l-.22 3.57c-.03.54.44.97.97.9 4.89-.69 9.96-1.93 15.23-3.73 9.22-3.15 15.15-9.38 17.79-18.7 3.72-13.11 5.21-25.63 18.18-31.03 18.83-7.85 24.89-21.12 16.91-40.5" style="fill:#fff;fill-opacity:1;fill-rule:nonzero;stroke:none" transform="matrix(7.55356 0 0 7.55547 0 -.29)"></path><path d="M877.57 235.97c-.29-.42.2-.94.63-.67q9.015 5.67 18.21 14.37c26.54 25.09 41.08 59.66 44.54 96.09.03.36-.01.74-.14 1.14a.56.56 0 0 1-1.06.03c-6.2-16.35-13.63-33.16-23.27-48.18-.51-.8-1.75-.34-1.62.6 1.27 8.97 1.5 18.43.69 28.36-.05.6-.53 1.07-1.13 1.1l-8.69.45c-.77.04-1.42-.56-1.46-1.33-.83-16.48-6.27-30.85-13.37-45.57-2.22-4.62-1.69-10.36-1.95-17.14-.39-10.35-5.41-20.68-11.38-29.25" style="fill:#fff;fill-opacity:1;fill-rule:nonzero;stroke:none" transform="matrix(7.55356 0 0 7.55547 0 -.29)"></path><path d="M690.4 270.72c-4.91 1.85-11.91 3.04-16.27-.31-3.88-2.99-1.63-6.24 1.79-8.2 1.15-.67 2.39-1.53 3.7-2.6a2.7 2.7 0 0 1 3.09-.24q6 3.525 8.76 8.4c.63 1.1.12 2.5-1.07 2.95M687.39 279.85c-.17-1.47.47-2.49 1.91-3.06 5.63-2.21 12.18-2.5 17.63.16 1.21.59 2 1.42 2.38 2.47 1.79 5.03-7.71 7.14-11.08 7.86-.82.17-1.67-.02-2.34-.53l-8.06-6.13c-.24-.19-.4-.46-.44-.77M768.06 292.15a.78.78 0 0 1 1.35-.39c10.68 11.85 15.16 26 13.45 42.43-.39 3.74-1.25 8.77-2.6 15.08-1.22 5.75 4.12 11.02 6.51 14.38.46.65.79 1.39.95 2.18 1.81 8.67.48 20.04-5.78 26.77-.29.31-.62.58-.97.81-7.11 4.66-11.92 7.45-15.4 13.91-3.89 7.22-6.74 13.59-14.9 17.1-5.96 2.56-12.26 3.6-18.91 3.12-.56-.05-.98-.17-1.27-.37-.64-.46-.77-1.37-.27-1.99 6.48-8.08 13.82-15.59 21.38-23.16 7.86-7.85 11.71-18.77 11.89-29.79.07-3.81.3-16.52.7-38.15.26-14.23 1.55-28.21 3.87-41.93M691.32 334.79c-.65.45-1.52-.08-1.41-.86 1.55-10.76 6.03-26.57 15.92-32.47.31-.18.67-.28 1.03-.27q1.695.015 2.28 1.89c.05.15.05.31.01.45l-4.78 17.15c-.14.48-.35.95-.62 1.37-3.16 4.9-7.3 9.15-12.43 12.74" style="fill:#0c0d0d;fill-opacity:1;fill-rule:nonzero;stroke:none" transform="matrix(7.55356 0 0 7.55547 0 -.29)"></path><path d="M1006.07 332.48c-.28-.25-.11-.71.26-.73 5.65-.25 11.29-.09 16.92.5 20.25 2.11 39.98 5.62 59.2 10.55a315 315 0 0 1 22.69 6.74c.29.1.48.38.46.68v.02c-.02.28-.27.48-.54.43-26.51-4.7-57.38-9.88-92.59-15.53-2.24-.35-4.74-1.15-6.4-2.66" style="fill:#fff;fill-opacity:1;fill-rule:nonzero;stroke:none" transform="matrix(7.55356 0 0 7.55547 0 -.29)"></path><path d="M696.64 411.85c-.62-1.37-.33-2.42.88-3.17 9.87-6.08 19.62-11.76 25.91-21.46 2.97-4.58 5.74-10.5 8.29-17.77q5.415-15.39 6.24-30.69c.06-1.2.98-1.84 2.77-1.93 6.85-.33 11.11 2.13 12.76 7.39.81 2.55.65 6.76-.48 12.61-1.02 5.32-2.41 12.4-4.16 21.25-2.98 15-15.61 20.95-28.36 25.98-7.48 2.95-15.11 5.69-22.88 8.22a.785.785 0 0 1-.97-.43M708.7 343.1c.23-.48.75-.75 1.27-.65 5.08.99 11.72 2.77 11.15 9.25-.18 1.99-1.11 6.27-2.8 12.85-3.05 11.94-9.93 20.53-20.81 26.11-.89.46-1.95-.19-1.94-1.19.03-4.55.65-9.4 1.86-14.54 2.53-10.78 6.29-21.39 11.27-31.83M815.78 343.5a.771.771 0 0 1 1.32.29c2.74 9.5 5.18 21.91 4.65 30.43-.86 13.62-11.15 25.09-22.4 32.39-.49.32-.84.49-1.05.52-.57.06-1.08-.38-1.11-.98-.63-13.19 1.31-25.95 2.99-40.01.12-.99.75-1.85 1.67-2.27 8.16-3.7 11.08-11.05 13.45-19.73.03-.09.07-.17.13-.24z" style="fill:#0c0d0d;fill-opacity:1;fill-rule:nonzero;stroke:none" transform="matrix(7.55356 0 0 7.55547 0 -.29)"></path><path d="M981.64 344.37a.502.502 0 0 1 .39-.79c3.71-.21 7.39.53 11.06 2.2 2.49 1.14 1.34 4.54-1.63 4.26-4.19-.39-7.46-2.28-9.82-5.67M1114.3 373.84c-7.05-.13-14.48-.58-22.29-1.37-27.5-2.75-55.07-8.02-81.3-16.71a9.8 9.8 0 0 1-4.57-3.15.536.536 0 0 1 .33-.87 8 8 0 0 1 2.29-.01c35.45 5.33 70.6 12.35 105.43 21.08q.285.075.48.42a.41.41 0 0 1-.37.61" style="fill:#fff;fill-opacity:1;fill-rule:nonzero;stroke:none" transform="matrix(7.55356 0 0 7.55547 0 -.29)"></path><path d="M683.57 354.5a.8.8 0 0 1 .62.65c1.13 7.7.28 14.96-2.53 21.77a3.37 3.37 0 0 1-3.02 2.09c-2.73.08-5.02.1-6.88.05-2.49-.06-3.53-1.43-3.69-3.85-.63-9.36 2.59-18.25 12.33-20.57 1.17-.28 2.22-.33 3.17-.14" style="fill:#0c0d0d;fill-opacity:1;fill-rule:nonzero;stroke:none" transform="matrix(7.55356 0 0 7.55547 0 -.29)"></path><path d="M996.09 374.78c-.35.94-1.4 1.41-2.34 1.06l-1.39-.53c-12.39-4.68-21.71-10.38-20.82-12.74l.1-.24c.89-2.36 11.65-.48 24.03 4.2l1.39.53c.95.36 1.42 1.41 1.06 2.35zM1012.9 372.51c.09.04.15.08.2.12 1.83 1.64 6.08 7.08 3.76 9.5-1.83 1.91-5.78.85-7.95-.06s-5.7-2.98-5.63-5.63c.09-3.34 6.95-4.14 9.41-3.99q.09.015.21.06M1137 391.48c-.93.91-2.11 1.44-3.52 1.59-32.79 3.4-65.51 1.28-98.18-6.35-3.7-.87-10.46-3.48-9.93-8.03.05-.42.44-.7.85-.61 29.02 6.65 58.62 10.71 88.79 12.16 6.21.29 13.47.54 21.79.75.25 0 .38.31.2.49" style="fill:#fff;fill-opacity:1;fill-rule:nonzero;stroke:none" transform="matrix(7.55356 0 0 7.55547 0 -.29)"></path><path d="M836.33 433.32c-.45.26-1-.11-.93-.62 1.19-9.28 2.64-18.3-.08-26.92-.51-1.64-.65-2.81-.42-3.52.47-1.39 1.28-2.21 2.45-2.46 6.45-1.41 11.1-2.85 12.48 4.94 2.25 12.71-2.25 22.24-13.5 28.58M820.67 401.06c.32.23.66.66 1.01 1.29 3.9 6.92 1.95 12.71-.15 20.17q-.435 1.56-.24 3.48c.63 5.94.97 9.35 1.02 10.22.43 8.45-2.24 15.72-8.02 21.81-6.63 6.98-17.4 7.32-26.2 6.6-1.22-.1-2-1.34-1.56-2.48 1.61-4.08 3.21-8.19 4.82-12.32 3.91-10.03 6.28-20.37 7.09-31.03.08-1.06.78-1.98 1.78-2.33 7.71-2.72 13.89-7.69 18.56-14.91.44-.68 1.3-.91 1.89-.5M781 407.98c1.45-.17 2.71.98 3.03 2.32.8 3.34 1.47 6.65 2.01 9.92 3.51 21.44-11.81 33.01-31.86 30.65-9.36-1.11-1.56-10.04 1.22-13.23 4.97-5.72 7.56-8.7 7.76-8.95 5.4-6.71 5.61-19.26 17.84-20.71M855.34 431.98c-.39 4.45-.66 7.88-.32 11.64.39 4.39.88 8.94.25 12.83-1.6 9.83-7.6 22.75-17.49 26.69-4.93 1.96-11.29.78-16.54-.11-1.18-.2-1.95-.5-2.32-.9a2.6 2.6 0 0 1-.34-3.02c7.07-12.62 14.52-25.52 22.34-38.7.97-1.65 2.14-2.82 3.49-3.5 3.53-1.79 6.47-3.78 8.82-5.96.84-.79 2.21-.12 2.11 1.03M854.01 496.93a.44.44 0 0 1-.36-.67c9.22-14.56 15.55-30.57 19-48.04.06-.31.23-.6.47-.81.85-.75 1.9-1.23 3.17-1.46 6.19-1.09 10.15 4.39 12.7 9.32q3.39 6.54 5.79 12.69c4.17 10.7 2.48 25.19-10.02 29.42-2.75.93-6.94 1.14-12.56.64-5.95-.53-12.01-.9-18.19-1.09M962.6 463.69c.33 0 .59.29.56.62q-.585 6.465-2.22 16.38c-1.12 6.79-1.76 11.47-6.02 15.94-4.07 4.26-13.52-4.28-15.14-8.13-1.39-3.3.27-7.68 2.41-10.08 5.12-5.73 9.05-10.55 11.79-14.47a.64.64 0 0 1 .5-.26z" style="fill:#0c0d0d;fill-opacity:1;fill-rule:nonzero;stroke:none" transform="matrix(7.55356 0 0 7.55547 0 -.29)"></path><path d="M391.44 1075.35c-.02.53-.49.93-1.01.86-23.91-3.05-49.91-.53-72.05 8.91-10.01 4.27-19.9 9.12-29.66 14.57-.61.34-1.37-.01-1.51-.69-.53-2.56-.92-5.56-1.19-9-1.36-17.75-1.91-37.67-1.64-59.74 1.15-96.68 25.23-193.88 71.17-278.84C433.58 607.1 567.1 506.95 725.79 464.25c1.3-.36 3.89.44 5.36 1.24 29.34 16.09 58.83 31.64 88.19 44.69q12.48 5.535 17.46 18.03c3.42 8.57 5.65 17.84 6.7 27.8.17 1.61-.49 2.46-1.99 2.55C740.2 564.71 643.57 600.84 565.27 665c-20.65 16.92-38.96 34.02-56.24 54.43-77.49 91.48-120.18 206.82-118.01 327.37.32 17.71.46 27.22.42 28.55" style="fill:#c81b20;fill-opacity:1;fill-rule:nonzero;stroke:none" transform="matrix(7.55356 0 0 7.55547 0 -.29)"></path><path d="M927.61 464.89c.32-.78 1.42-.77 1.72.02 3.5 9.21 3.17 17.77-.57 27.47-2.15 5.59-4.72 10.55-7.7 14.88-5.05 7.35-12.05 8.35-20.31 8.76a.906.906 0 0 1-.92-1.13l9.25-35.23c.16-.6.66-1.04 1.28-1.12q12.375-1.62 17.25-13.65" style="fill:#0c0d0d;fill-opacity:1;fill-rule:nonzero;stroke:none" transform="matrix(7.55356 0 0 7.55547 0 -.29)"></path><path d="M1333.71 1075.81c-.73.04-1.33-.56-1.29-1.29 1.36-23.77 1.24-47.78-.35-72.03-5.84-88.66-33.49-169.29-82.96-241.88-47.26-69.36-115.95-124.47-192.76-160.45-8.75-4.1-16.58-7.63-23.48-10.58-7.3-3.14-10.75-6.02-15.86-12.01-17.65-20.7-21.61-51.61-1.88-72.44 6.19-6.54 14.3-11.26 23.7-12.91 15.87-2.77 32.85.73 48.21 5.71 38.97 12.64 76.33 33.32 105.65 61.63 7.13 6.88 13.47 12.95 19.03 18.2 1.96 1.85 6.36 5.04 13.2 9.58 2.93 1.94 6.16 3.62 9.67 5.04 8.4 3.38 14.86 6.92 21.19 12.87 27.91 26.25 52.18 53.74 72.79 82.49 28.63 39.91 52.07 82.95 70.34 129.12 35.75 90.34 47.27 188.29 37.96 285.18-.07.67-.18 1.22-.34 1.67-.21.6-.9.86-1.46.56-12.82-7.03-25.37-13.74-36.15-18.54-16.59-7.39-34.15-10.86-52.69-10.42-4.45.11-8.63.27-12.52.5" style="fill:#c81b20;fill-opacity:1;fill-rule:nonzero;stroke:none" transform="matrix(7.55356 0 0 7.55547 0 -.29)"></path><path d="M944.69 500.15c9.33 4.4 2.26 18.55-5.54 20.25-1.05.23-2.05-.58-2.03-1.66.07-4.53.35-8.25.85-11.16.46-2.72 2.16-5.14 5.1-7.27.47-.35 1.09-.41 1.62-.16M982.9 508.61c-2.63 3.87-5.37 8.63-8.23 14.27-1.78 3.51-4.69 5.5-8.74 5.97-1.15.13-2.22-.59-2.53-1.7-1.83-6.63-1.35-13.07 1.46-19.31a2.73 2.73 0 0 1 2.5-1.62h14.28c1.23 0 1.95 1.37 1.26 2.39" style="fill:#0c0d0d;fill-opacity:1;fill-rule:nonzero;stroke:none" transform="matrix(7.55356 0 0 7.55547 0 -.29)"></path><path d="m865.28 530.17 29.55 10.37c.69.24 1.1.94.97 1.65-2.11 11.82-8.59 20.2-19.45 25.14-4.12 1.87-9 3.57-11.4-1.91-.11-.24-.16-.49-.16-.75v-34.16c0-.25.25-.43.49-.34M1052.89 620.16c.04-.01.13-.03.27-.04.07-.01.14.01.21.04 62.56 29.03 115.8 70.19 159.73 123.49 75.96 92.17 109.54 212.44 101.98 331.12-.16 2.61-.74 3.31-3.34 3.95-51.21 12.67-80.38 69.46-90.07 116.73-3.06 14.9-.93 30.28.58 47.3.55 6.14.53 12.39-.04 18.75-2.69 29.92-13.31 58.3-32.22 81.77-5.58 6.94-15.41 16.22-21.01 21.88-6.22 6.28-10.56 12.18-11.58 20.01-.36 2.74-.65 4.73-.86 5.98a6.3 6.3 0 0 1-1.63 3.24c-1.48 1.55-3.36 3.18-5.65 4.89-21.61 16.23-42.58 30.17-62.93 41.81-51.32 29.36-106.42 47.67-165.31 54.94-67.7 8.35-136.16 2.93-200.53-18.04-39.93-13.01-77.9-31.19-113.93-54.56a731 731 0 0 1-43.6-30.6c-.59-.44-.96-1.12-1.01-1.86-.59-9.07-4.2-16.76-10.84-23.09-6.66-6.35-10.25-9.78-10.76-10.28-10.9-10.7-20.42-22.27-27.48-36.5-9.37-18.9-15.22-38.7-17.55-59.39-1.62-14.44.48-26.7 2.3-44.68.52-5.15.09-11.82-.74-17.24-5.93-39.03-23.39-75.83-52.51-102.34-9.89-9-21.38-15.18-34.47-18.53-.71-.18-1.22-.8-1.26-1.53q-9.81-162.06 77.07-297.15c31.22-48.54 71.21-89.57 119.97-123.08q101.82-69.99 225.84-81.18c3.64-.33 7.34-.38 11.09-.14.6.04 1.05.58.98 1.18-2.27 19.01-7.97 36.72-17.12 53.12q-4.785 8.595-14.67 13.89c-13.56 7.27-31.44 2.72-46.08-.49-29.09-6.39-57.76 7.47-72.93 32.78-.7 1.16-1.92 3.3-3.65 6.43a6.23 6.23 0 0 1-2.5 2.46c-3.57 1.91-10.4 5.74-20.49 11.47-58.36 33.19-105.02 78.68-139.97 136.48-18.64 30.82-32.32 63.46-41.03 97.91-20.38 80.6-16.47 159.53 11.74 236.8 12.03 32.95 29.41 65.23 52.15 96.86 15.41 21.43 32.74 40.62 52.01 57.59 57.58 50.72 129.12 84.42 204.83 96.3 71.17 11.16 145.77.08 211.8-30.2 70.57-32.36 132.51-85.25 172.34-152.1 86.78-145.68 74.7-329.21-36.41-458.54-36.32-42.28-80.63-75.12-132.93-98.53a.906.906 0 0 1-.19-1.54c5.2-4.04 9.67-8.27 11.6-14.84.82-2.8 2.62-9.85 5.39-21.15 1.51-6.18 6.61-6.36 11.79-7.32 3.17-.58 4.79-1.98 4.76-5.15-.03-2.19-.52-4.98-1.48-8.37a.58.58 0 0 1 .34-.71" style="fill:#fff;fill-opacity:1;fill-rule:nonzero;stroke:none" transform="matrix(7.55356 0 0 7.55547 0 -.29)"></path><path d="M905.85 578.33c.5-.63 1.45-.85 2.23-.77 26.53 2.66 49.91 7.06 70.16 13.21 6.12 1.85 9.42 6.84 11.65 13.42 2.26 6.68 3.87 13.37 4.82 20.06 1.25 8.88-11.3 17.45-17.91 19.54-17.58 5.55-30.25 9.98-38.01 13.28-1.34.57-3.16.66-5.45.25-20.31-3.56-39.12-5.92-56.45-7.08-.42-.03-3.29-.62-8.6-1.79-.36-.09-.71-.24-1.01-.46-6.83-4.93-5.39-10.59-1.11-17.28 3.88-6.09 7.04-10.69 9.48-13.81 9.19-11.75 19.25-24.6 30.2-38.57" style="fill:#fff;fill-opacity:1;fill-rule:nonzero;stroke:none" transform="matrix(7.55356 0 0 7.55547 0 -.29)"></path><path d="M223.27 732.01c-.3.02-.53.27-.52.57v.02c.01.21.18.39.39.4 2.89.14 7.09.2 12.61.18.8 0 1.77.41 2.88.44 7.55.25 13.49 3.39 17.8 9.43.19.27.35.57.48.88.63 1.55 1.05 2.71 1.26 3.49.47 1.72.76 3.51.89 5.36.19 2.84 0 6.33-.56 10.47-.94 6.87-2.71 15.45-5.3 25.76-1.65 6.52-3.73 12-6.26 16.43-4.03 7.08-9.54 12.27-16.52 15.57-2.87 1.36-4.66 3.13-5.37 5.3-6.86 20.93-16.98 40.23-30.35 57.89-15.62 20.62-36.28 33.21-61.99 37.78-6.99 1.24-14.36 1.76-22.12 1.55-7.51-.21-14.86-1.1-22.06-2.68-16.14-3.55-30.07-10.74-41.8-21.55-26.19-24.15-34.14-60.23-33.06-94.8.21-6.65.77-13.65 1.69-20.99 4.35-34.97 14.47-69.92 31-101.15 7.38-13.94 15.54-26.31 24.47-37.12 11.93-14.42 26.97-25.05 45.14-31.88 12.57-4.73 25.74-7.71 39.5-8.94 1.87-.17 3.43-.23 4.7-.2 3.07.09 5.7-.69 8.86-.38 2.03.19 3.44.3 4.23.32 11.79.3 23.45 2.43 34.96 6.39 27.35 9.4 47.07 29.82 52.54 58.73 1.25 6.63 1.81 13.7 1.67 21.22-.27 14.9-5.69 28.68-19.2 35.95-5.93 3.19-12.59 5.05-19.96 5.56m-102.08 19.72-.43.93c-.13.27.14.56.42.45.33-.13.54-.48.63-1.06 1.07-2.21 2.26-4.37 3.56-6.46 3.99-6.44 9.62-10.36 16.89-11.75 1.55-.29 3.02-.21 4.76-.57.66-.13 1.33-.19 2-.18l29.73.42c.17 0 .31-.12.34-.29s-.08-.32-.24-.37c-1.95-.54-4.55-.93-6.1-1.58-11.16-4.66-16.86-14.34-16.26-26.4.14-2.86.41-5.06.8-6.59.24-.94-.61-1.8-1.55-1.57q-3.18.78-6.36 3.45c-2.17 1.81-4.4 4.32-6.69 7.51-9.62 13.42-16.79 28.11-21.5 44.06m-9.46 63.16a.385.385 0 0 0-.61.33c.31 6.1 1.48 11.85 3.53 17.25.29.77 1.28.99 1.86.41 2.6-2.59 4.58-5.75 5.95-9.49.11-.32 0-.68-.27-.88z" style="fill:#0c0d0d;fill-opacity:1;fill-rule:nonzero;stroke:none" transform="matrix(7.55356 0 0 7.55547 0 -.29)"></path><path d="M145.34 807.4q-12.27-.09-12.69-.09c-3.98-.05-7.84-1.34-7.5-5.74.28-3.69 1.12-8.49 2.51-14.39 1.58-6.7 3.98-14.89 7.2-24.56 2.39-7.17 5.23-12.43 13.4-12.53 30.35-.34 58.34-.51 83.99-.52q3.315 0 7.5.33c3.93.31 3.85 2.99 3.49 6.1q-1.47 12.465-5.13 28.62c-3.03 13.38-8.66 22.06-23.61 22.9-.87.05-1.6.66-1.81 1.5-.85 3.42-1.28 7.83-2.57 11.84-6.41 19.8-15.96 37.82-28.67 54.06-4.69 5.99-10.17 10.96-16.5 15.84-7.08 5.46-13.43 9.18-19.04 11.17-44.75 15.86-92.7.57-109.02-46.57-8.43-24.37-8.04-51.56-4.45-76.88 5.43-38.3 18.46-73.76 39.09-106.37 6.62-10.47 12.88-18.36 18.77-23.69 24.19-21.88 57.49-30.5 89.7-27.92 39.57 3.16 70.73 31.45 66.01 73.32-.65 5.73-1.95 9.91-3.92 12.53q-4.275 5.685-10.74 7.59-22.47 6.645-46.5 3.96c-4.19-.47-9.2-1.85-11.18-5.84-.57-1.15-.84-3.23-.79-6.22.17-10.13.84-19.54-10.85-23.39-22.26-7.35-39.67 24.6-46.46 40.38q-17.4 40.425-19.86 84.18c-.75 13.48.21 45.07 21.7 42.02 8.11-1.15 13.66-8.7 17.48-15.63 4.53-8.23 8.13-16.74 10.78-25.55.07-.22-.1-.44-.33-.45M1476.16 698.66a.48.48 0 0 0-.48-.53q-18.585.045-24.84-.03c-2.26-.03-2.84-2.12-2.29-4.05 5.55-19.49 11.39-37.9 17.54-55.21 2.86-8.07 9.54-9.4 18.02-11.32 19.13-4.33 38.48-5.95 58.06-4.86 31.93 1.79 59.25 8.74 84.81 26.36 16.17 11.14 28.9 28.46 35.13 46.87 7.31 21.61 7.99 43.52 4.06 66.07-6.54 37.5-24.29 74.89-53.48 99.98-11.57 9.93-24.42 18.91-38.55 26.93-27.32 15.5-56.45 22.59-87.4 21.28-10.65-.45-17.3-6.71-24.24-14.13-8.5-9.09-16.55-18.78-24.16-29.09a7.8 7.8 0 0 1-1.5-3.94c-.96-10.4 2.26-21.86 4.97-32.17 3.41-12.95 14.48-54.89 33.22-125.82.49-1.84.86-3.95 1.13-6.34m31.91-11.72c-.44.19-.41.82.04.98 8.28 2.87 15.83 5.73 22.65 8.59 5.35 2.25 9.48 4.36 12.41 6.35 3.22 2.18 2.08 6.48 1.3 9.37-13.12 48.43-23.7 87.76-31.75 118-.73 2.75-2.33 8.79-1.26 10.78 1.16 2.17 3.44 1.21 6.15.72 9.27-1.67 18.13-4.86 26.56-9.57 28.47-15.91 47.08-42.65 51.3-75.42 2.7-20.93-2.48-43.89-19.11-57.66-16.55-13.7-44.97-18.29-65.36-13.09-1.23.31-2.2.63-2.93.95" style="fill:#c81b20;fill-opacity:1;fill-rule:nonzero;stroke:none" transform="matrix(7.55356 0 0 7.55547 0 -.29)"></path><path d="M547.14 827.59c.15-.81.56-1.7 1.23-2.68 20.59-30.13 44.26-56.23 70.99-78.3 29.41-24.28 61.36-43.49 95.84-57.63 13.05-5.35 26.53-9.7 40.44-13.03.56-.13.91.58.46.94-10.65 8.55-20.3 18.07-28.94 28.75-.86 1.07-2.17 1.87-3.92 2.4-50.95 15.51-95.51 45.42-124.02 90.93-.95 1.51-2.16 2.64-3.63 3.37-21.89 10.86-32.76 15.55-47.98 25.56a.306.306 0 0 1-.47-.31" style="fill:#fff;fill-opacity:1;fill-rule:nonzero;stroke:none" transform="matrix(7.55356 0 0 7.55547 0 -.29)"></path><path d="M1508.07 686.94c.73-.32 1.7-.64 2.93-.95 20.39-5.2 48.81-.61 65.36 13.09 16.63 13.77 21.81 36.73 19.11 57.66-4.22 32.77-22.83 59.51-51.3 75.42-8.43 4.71-17.29 7.9-26.56 9.57-2.71.49-4.99 1.45-6.15-.72-1.07-1.99.53-8.03 1.26-10.78 8.05-30.24 18.63-69.57 31.75-118 .78-2.89 1.92-7.19-1.3-9.37-2.93-1.99-7.06-4.1-12.41-6.35-6.82-2.86-14.37-5.72-22.65-8.59-.45-.16-.48-.79-.04-.98m23.31 133.61c-.13.51.4.93.87.69 14.35-7.4 26.84-18.49 35.35-32.33 7.71-12.53 11.8-26.56 12.27-42.07.27-8.54-.79-15.44-3.17-20.69-3.01-6.65-7.49-12.01-13.42-16.06a2.085 2.085 0 0 0-3.2 1.19z" style="fill:#0c0d0d;fill-opacity:1;fill-rule:nonzero;stroke:none" transform="matrix(7.55356 0 0 7.55547 0 -.29)"></path><path d="M1175 830.36c.17.27-.15.58-.41.39-13.63-9.93-28.47-17.05-44.53-21.38-1.87-.5-3.3-2.33-4.29-4.21-24.81-47.1-67.48-81.67-117.87-98.26-1.69-.56-3.01-1.48-3.96-2.77-5.9-8-10.9-14.24-18.43-19.09-.43-.28-.17-.95.34-.87 9.31 1.52 19.27 4.52 28.83 8.77 37.38 16.59 70.76 37.89 100.71 66.08q34.5 32.475 59.61 71.34" style="fill:#fff;fill-opacity:1;fill-rule:nonzero;stroke:none" transform="matrix(7.55356 0 0 7.55547 0 -.29)" data-source="https://football-logos.cc"></path><path d="M866.25 742.52c2.01-2.14 4.49-2.39 6.82-3.24 34.94-12.82 69.67-23.58 106.6-28.42 6.77-.89 12.64-1.08 17.63-.59 4.25.43 9.91 1.97 17 4.62 45.58 17.07 83.14 48.67 106.23 91.65.27.49.48 1.01.64 1.56 4.54 15.67 7 31.12 7.39 46.35.12 4.65-.32 12.75-1.31 24.3-1.21 14.25-2.46 27.13-3.74 38.65a2.68 2.68 0 0 1-1.93 2.28l-125.96 35.83c-1.01.29-2.1.07-2.92-.58-39.88-31.57-82.76-59.51-127.08-84.95a3.54 3.54 0 0 1-1.78-3.04c-.41-40.83.17-81.77 1.75-122.82.02-.59.25-1.16.66-1.6M855.32 741.33c1 .5 1.64 1.52 1.64 2.65v121.37c0 .37-.09.73-.26 1.06-1.25 2.32-2.93 4.08-5.05 5.27-42.71 24.09-84.11 50.94-124.21 80.53-1.65 1.21-3.57 1.5-5.78.85-.33-.1-39.7-12.12-118.13-36.07-1.57-.48-2.49-2.26-2.9-3.95-7.68-31.64-7.47-66.34-.55-98.36q2.115-9.765 4.8-14.73c2.19-4.03 5.07-8.34 8.66-12.91 28.93-36.91 70.15-62.77 115-74.96q11.88-3.225 25.65-1.17c25.96 3.89 51.54 10.84 76.11 19.73 8.51 3.08 16.85 6.64 25.02 10.69M121.19 751.73l.62.32c-.09.58-.3.93-.63 1.06a.33.33 0 0 1-.42-.45z" style="fill:#fff;fill-opacity:1;fill-rule:nonzero;stroke:none" transform="matrix(7.55356 0 0 7.55547 0 -.29)"></path><path d="M268.38 851.02c30.49 17.23-1.55 59.99-26.07 46.13-24.53-13.87-4.41-63.36 26.07-46.13M1685.06 851.68c32.89 12.87 8 59.45-19.11 48.84-27.12-10.61-13.77-61.71 19.11-48.84" style="fill:#c81b20;fill-opacity:1;fill-rule:nonzero;stroke:none" transform="matrix(7.55356 0 0 7.55547 0 -.29)"></path><path d="M601.19 924.13c.5-.35 1.13-.44 1.71-.25 15.34 4.9 33.63 10.43 54.86 16.58 23.71 6.86 43.56 12.08 61.88 19.67.47.19.9.49 1.26.87 1.52 1.64 2.53 3.42 3.02 5.33 6.14 23.99 11.76 49.13 18.48 70.63 7.99 25.54 18.29 50.32 30.91 74.34.58 1.09.6 2.4.06 3.51q-4.185 8.67-9 16.56-32.445 53.19-66.51 103.26c-1.66 2.44-3.93 3.31-6.8 2.61-22.7-5.52-43.23-11.25-61.6-17.2-18.47-5.98-34.36-12.15-47.68-18.52-6.11-2.92-10.16-5.18-12.16-6.77-1.86-1.48-3.94-4.18-6.24-8.09-23.99-40.88-36-89.06-37.32-136.42-.16-5.78.38-10.39 1.63-13.84.53-1.45 2.44-5.7 5.74-12.77 14.95-32.05 33.42-62.76 56.83-89.61 3.41-3.91 7.06-7.21 10.93-9.89M1018.32 1238.64c-.62-.09-1.16-.48-1.45-1.04q-23.43-44.715-50.04-87.18c-11.78-18.8-19.05-30.38-21.8-34.73-2.13-3.37-2.42-5.67-.38-9.37 24.39-44.22 41.59-91.57 51.59-142.06.25-1.27 1-2.1 2.26-2.49 31.73-10.03 70.73-21.45 117.01-34.27 2.22-.61 4.52-.87 6.89-.77.52.02 1.02.17 1.46.44 1.44.86 2.74 1.95 3.91 3.26 27.69 31.18 49.71 68.48 65.59 107.32q.78 1.905.63 6.24c-1.36 39.35-9.3 77.07-23.81 113.18-4.55 11.33-10.04 22-16.47 32.03-4.64 7.25-8.48 12.18-15.95 16.57-8.87 5.2-18.62 9.7-29.27 13.51-17.33 6.2-33.96 10.72-49.88 13.55-13.13 2.34-26.06 4.26-38.79 5.75q-1.065.135-1.5.06" style="fill:#fff;fill-opacity:1;fill-rule:nonzero;stroke:none" transform="matrix(7.55356 0 0 7.55547 0 -.29)"></path><path d="M568.15 1266.5c-.02.31-.42.43-.61.18-52.09-67.41-79.23-143.71-81.41-228.9-.35-13.65.94-28.05 1.67-41.04.03-.44.65-.52.79-.1 5.63 16.81 15.72 30.11 30.29 39.92 1.21.82 1.82 2.06 1.82 3.71-.03 42.66 7.86 82.84 23.68 120.54 5.56 13.26 12.41 25.89 20.55 37.9.71 1.05 1 2.33.8 3.58-.43 2.68-.98 6.76-1.64 12.23-2.05 17-.79 33.69 3.79 50.07.21.77.3 1.41.27 1.91M1149.32 1270.27c-.2.11-.44-.07-.37-.29 6.57-21.48 7.47-43.3 2.7-65.47-.27-1.24.08-2.59 1.06-4.06 25.5-38.16 39.41-82.78 44.31-128.2a736 736 0 0 0 2.74-31.99c.12-1.79 1.37-3.41 2.8-4.68 12.15-10.79 22.16-22.31 28.29-37.49.17-.42.78-.36.87.08q.255 1.305.39 2.97c7.54 96.65-21.62 192.41-81.91 268.31-.33.4-.62.67-.88.82M480.82 1490.28c.81-23.88-1.59-47.15-7.22-69.82-9.69-38.99-23.18-76.01-40.49-111.08-26.77-54.22-60.44-104.13-101.03-149.72-6.31-7.08-12.81-14.52-14-23.85q-2.775-21.765 7.56-40.44c1.11-2.01 3.08-3.46 5.9-4.35 26-8.23 57.57-9.08 82.35 1.4 32.17 13.6 53.52 45.52 64.47 77.75 6.42 18.91 10.44 35.7 8.36 54.88q-1.14 10.47-1.29 13.92c-1.32 30.38 4.72 59.3 18.13 86.77 9.84 20.16 24.46 35.13 40.98 51.7 3.55 3.56 5.73 8.15 6.56 13.77 2.14 14.51 1.31 28.9-2.49 43.16-7.69 28.91-25.51 48.76-53.44 59.54-4.46 1.73-8.83 1.28-13.11-1.33-.8-.48-1.27-1.36-1.24-2.3M1236.19 1491.26c-4.58 5.3-10.93 4.09-17.27 1.2-13.69-6.25-24.84-14.84-33.44-25.79-16.77-21.36-21.81-50.87-17.92-78.08.91-6.31 4.96-11.95 10.19-16.96.85-.81 5.08-5.19 12.71-13.15 8.37-8.73 15.3-17.93 20.79-27.59 5.04-8.85 9.53-19.46 13.46-31.85 6.53-20.52 9.26-42.2 6.92-63.61-1.86-17.03-1.39-33.02 3.23-49.51 7.25-25.87 19.97-51.97 38.83-71.27 29.31-29.96 70.93-36.23 110.43-24.03 5.71 1.77 8.34 4.76 10.5 9.81 5.3 12.4 8.14 31.46 2.29 44.63-1.41 3.19-4.02 6.92-7.83 11.18-4.36 4.88-11.49 13.19-21.38 24.94-58 68.83-101.09 149.47-123.73 237.31q-8.925 34.635-7.11 70.83c.04.71-.2 1.41-.67 1.94" style="fill:#fff;fill-opacity:1;fill-rule:nonzero;stroke:none" transform="matrix(7.55356 0 0 7.55547 0 -.29)"></path><path d="M317.47 1097.1c.34-.14.68.2.53.54-7.17 16.28-9.83 35.77-1.3 51.92 1.13 2.13 3.45 5.18 6.97 9.14 17.37 19.56 33.97 39.71 49.09 60.91.53.74.42 1.76-.26 2.37a860 860 0 0 0-61.65 61.5c-.61.68-1.52 1.01-2.43.9-7.85-.99-15.43-1.84-22.74-2.53-36.4-3.46-69.64 5.8-104.64 20.19-15.33 6.3-30.25 13.75-44.76 22.34-.5.3-1.14.18-1.51-.27-15.54-19.35-27.76-43.02-30.85-67.84q-1.425-11.52.96-25.32c1.49-8.61 5.84-14.96 13.03-19.06q15.33-8.745 30.6-17.61c.96-.56 2.18-.3 2.84.6l41.29 56.48c.92 1.27 2.67 1.6 3.99.76l1.24-.78c1.11-.7 1.39-2.2.62-3.26l-41.53-56.79c-.59-.81-.37-1.95.48-2.49l20.45-12.94c.65-.41 1.5-.24 1.95.37l44.09 60.31c.68.92 1.98 1.09 2.87.38l2.06-1.64c.86-.68 1.03-1.92.38-2.8L186 1173.33a1.17 1.17 0 0 1 .36-1.7l19.48-11.25c1.01-.58 2.28-.34 3 .57l43.91 55.04c.95 1.2 2.64 1.51 3.97.75l1.29-.74c1.1-.64 1.38-2.11.58-3.11l-44.55-55.86c-.59-.73-.39-1.82.43-2.29l25.35-14.63c.81-.48 1.85-.27 2.43.47l40.98 53.12a3.104 3.104 0 0 0 4.46.47l.4-.33a2.817 2.817 0 0 0 .3-4.08c-.17-.18-13.28-17.16-39.33-50.93-1.07-1.38-1.57-2.25-1.52-2.62.19-1.32 1.67-1.79 2.78-2.47 22.69-13.95 44.08-26.77 67.15-36.64M1400.55 1098.94c-.02-.46.47-.77.87-.55l67.2 36.71c.64.35.81 1.19.37 1.77l-40.76 53.6a2.46 2.46 0 0 0 .51 3.47l1.44 1.04c1.05.79 2.55.52 3.27-.58.23-.36 13.83-18.25 40.8-53.66.95-1.26 2.18-1.41 3.69-.46 17.05 10.79 34.18 20.73 51.41 29.84 1.53.81 1.84 1.86.91 3.15-20.95 28.98-35.54 48.98-43.77 60.01a1.6 1.6 0 0 0 .49 2.34l3.04 1.75c.8.46 1.81.25 2.35-.49l44.09-60.51c.5-.68 1.44-.88 2.17-.46l21.35 12.33c1.22.71 1.56 2.32.73 3.46l-41.49 56.93c-.85 1.18-.5 2.83.76 3.56l1.27.74c1.26.73 2.86.39 3.72-.79l42.03-57.68c.47-.63 1.34-.8 2-.37a535 535 0 0 0 28.65 17.31q7.275 4.095 9.78 6.99c3.13 3.63 5.17 8.34 6.12 14.15 5.51 33.85-8.67 67.93-31.02 92.78-.19.21-.5.26-.74.12-16.8-9.97-33.98-18.43-51.55-25.38-33.72-13.35-67.98-22.09-104.74-17.79-6.64.78-12.65 1.52-18.02 2.23-.66.08-1.32-.16-1.77-.65a963 963 0 0 0-60.69-61.39c-.79-.72-.91-1.93-.28-2.8a586 586 0 0 1 36.74-45.93c9.77-11.04 15.1-17.12 15.98-18.23 5.47-6.87 8.05-14.58 8.5-23.89.5-10.38-1.17-20.58-5-30.59-.23-.61-.37-1.31-.41-2.08M936.33 1117.04c.44-.04.86.17 1.11.54 25.83 38.97 50.08 79.04 72.77 120.21 1.73 3.14 1.79 6.5.17 10.08-16.5 36.48-39.9 67.6-67.98 95.53-3.58 3.56-8.36 5.92-13.57 7.31-45.77 12.23-91.7 12.69-137.78 1.38-8.73-2.14-13.48-5.05-19.68-11.31-28.31-28.63-52.85-61.63-68.34-98.56-.87-2.07-.61-4.13.79-6.16 26.34-38.48 51.81-77.77 76.41-117.88.38-.6 1.05-.95 1.76-.9 51.52 3.76 103.05 4.12 154.34-.24" style="fill:#fff;fill-opacity:1;fill-rule:nonzero;stroke:none" transform="matrix(7.55356 0 0 7.55547 0 -.29)"></path><path d="M1462.94 1216.66a2.363 2.363 0 0 1-3.32.35l-1.367-1.108a2.357 2.357 0 0 1-.35-3.32l43.877-54.182a2.363 2.363 0 0 1 3.32-.35l1.367 1.108a2.357 2.357 0 0 1 .35 3.32z" style="fill:#0c0d0d;fill-opacity:1;fill-rule:nonzero;stroke:none" transform="matrix(7.55356 0 0 7.55547 0 -.29)"></path><path d="M377.58 1226.75c34.65 49.01 61.37 101.85 80.16 158.5 11.14 33.57 18.96 67.68 17.65 102.24-.03.63-.05 1.01-.08 1.14-.16.77-.96 1.22-1.7.96-4.66-1.6-10.29-4.21-16.9-7.82-40.66-22.22-74.34-56.61-98.5-96.48-18.63-30.75-32.96-63.34-43-97.79-.1-.33-.02-.69.22-.94 18.77-20.19 38.84-40.19 60.19-60.01.58-.54 1.5-.45 1.96.2M1243.35 1489.36a.85.85 0 0 1-.95-.79c-.84-12.16-.5-24.03 1.03-35.62 2.21-16.78 5.61-33.06 10.21-48.84 18.63-63.93 47.34-122.95 86.13-177.05.44-.62 1.33-.7 1.88-.18 19.89 18.9 39.53 38.73 58.91 59.49.87.93.3 2.83-.09 4.12-17.02 56.25-46.3 110.12-87.43 151.04-20.16 20.05-42.99 35.89-68.49 47.51-.35.16-.75.27-1.2.32" style="fill:#fff;fill-opacity:1;fill-rule:nonzero;stroke:none" transform="matrix(7.55356 0 0 7.55547 0 -.29)"></path><path d="M1410.18 1290.44c27.93-5.2 56.5-1.43 83.79 6.86 31.16 9.47 61.35 22.22 88.26 39.97q2.7 1.77 5.73 4.11c12.16 9.35 1.35 27.51-3.61 37.6-11.85 24.08-26.2 48.53-43.03 73.35-28 41.27-59.25 80.02-93.74 116.25a716 716 0 0 1-51.65 49.1c-75.43 64.89-164.27 117.16-257.85 149.66-47.33 16.43-95.85 29-145.57 37.69-25.55 4.47-49.97 7.34-73.25 8.6-6.2.33-14.99.14-22.34.58q-31.485 1.905-61.14-.03c-3.11-.21-6.82-.34-11.13-.4-12.66-.19-25.39-1.66-38.03-2.8-127.05-11.49-245.62-50.46-355.7-116.92-60.77-36.69-115.06-80.37-162.89-131.02-24.27-25.71-47.33-52.66-68.2-80.55-28.5-38.08-50.72-73.02-69.99-113.31-3.52-7.37-8.22-17.03-3.38-24.8.93-1.47 2.78-3.24 5.56-5.29 9.6-7.06 18.43-11.53 30.91-17.93q32.67-16.74 67.02-26.19c25.17-6.93 49.72-9.23 74.99-4.8 1.07.19 1.93.97 2.23 2 8.4 28.61 19.59 55.89 33.57 81.85 16.24 30.17 35.72 56.75 60.82 79.94 22.9 21.15 48.78 37.41 77.63 48.77 2.8 1.11 7.15 3.64 13.05 7.6 9.87 6.63 21.28 14.04 34.23 22.25 81.71 51.8 170.62 83.29 266.72 94.48 6.6.77 14.04 1.41 22.31 1.94 12.66.81 19.01 1.44 30.01 1.67 79.32 1.62 155.52-11.57 228.6-39.56 40.6-15.55 80.21-35.3 118.84-59.23 11.5-7.13 27.01-18.11 36.48-24.45 5.36-3.58 10.96-5.76 20.76-10.25 47.67-21.81 85.63-59.4 113.77-104.2 20.09-31.97 35.29-65.97 45.61-101.99.08-.28.32-.49.61-.55" style="fill:#fff;fill-opacity:1;fill-rule:nonzero;stroke:none" transform="matrix(7.55356 0 0 7.55547 0 -.29)"></path><path d="M722.57 1381.09c-.25-.1-.22-.48.05-.53 19.56-3.9 37.21-11.99 52.94-24.26 2.15-1.69 5.42-1.32 8.29-.56 50.79 13.47 101.4 13.01 151.81-1.38 1.27-.36 2.62-.15 3.72.56 18.22 11.74 38.5 21.96 59.95 24.25.29.03.47.09.55.19.42.49.25 1.25-.34 1.49-45.08 18.85-91.72 28.2-139.93 28.05-46.71-.15-93.77-10.18-137.04-27.81" style="fill:#fff;fill-opacity:1;fill-rule:nonzero;stroke:none" transform="matrix(7.55356 0 0 7.55547 0 -.29)"></path><path d="m243.6 1440.67 64.38-32.89a.9.9 0 0 1 1.07.2l14.26 15.67a.92.92 0 0 1-.31 1.46l-95.28 42.38c-.39.18-.86.09-1.16-.23l-14.03-14.68a.72.72 0 0 1-.1-.86l52.77-91.41a.906.906 0 0 1 1.44-.17l13.8 14.45c.22.23.26.58.1.85-13.52 22.76-26.11 43.88-37.76 63.35-.29.48-.37.94-.26 1.39.12.47.64.71 1.08.49M1448.71 1468.03l12.01-16.48c.47-.65 1.25-.99 2.05-.89 3.2.4 5.53.64 7 .71 7.27.36 13.67-5.14 18.44-10.6 5.63-6.45 7.79-14.19 1.41-20.65-3.86-3.9-8.71-4.01-12.99-.73q-5.805 4.455-21.99 16.92c-8.87 6.83-22.11 11.13-32.3 5.01-2.83-1.7-5.6-4.08-8.29-7.13-19.16-21.67-2.79-49.24 18.83-60.22 10.59-5.37 21.26-5.02 32.02 1.05.63.35.85 1.15.49 1.78l-9.47 16.39c-.43.75-1.4.98-2.12.51-8.9-5.72-17.09-.88-23.29 6.02-5.79 6.44-6.93 14.49-.04 20.78q3.435 3.15 8.67.36c8.44-4.49 13.84-9.68 21.77-15.77 10.43-8.01 21.68-13.42 33.91-7.76 7.86 3.63 13.34 9.35 16.43 17.15 7.93 20.01-9.64 41.43-25.38 52.31-12.38 8.56-24.25 10.7-37.01 2.09a.6.6 0 0 1-.15-.85" style="fill:#0c0d0d;fill-opacity:1;fill-rule:nonzero;stroke:none" transform="matrix(7.55356 0 0 7.55547 0 -.29)"></path><path d="M561.85 1416.86c.03-.7.84-1.07 1.39-.65 20.33 15.5 42.74 30.98 65.59 42.95 33.19 17.39 65.56 30.8 97.1 40.22 60.65 18.11 122.87 23.68 186.65 16.71 54.66-5.98 108.56-20.31 157.88-44.66 12.3-6.07 28.12-15.49 39.33-22.14a408 408 0 0 0 45.4-31.3.903.903 0 0 1 1.46.59c.53 3.95.88 6.43 1.03 7.43 5.7 35.64 24.75 60.92 57.16 75.84.27.13.37.46.2.71-.25.38-.59.71-1 .99-18.58 12.75-36.78 24.2-54.6 34.36-78.18 44.55-166.05 73.9-255.74 79.94-98.85 6.65-193.51-9.7-283.97-49.06-40.14-17.46-78.34-39.08-114.61-64.85-.57-.41-1.02-.8-1.35-1.18a.797.797 0 0 1 .29-1.26c34.15-14.55 55.98-47.72 57.79-84.64" style="fill:#c81b20;fill-opacity:1;fill-rule:nonzero;stroke:none" transform="matrix(7.55356 0 0 7.55547 0 -.29)"></path><path d="M1408.74 1461.85c.58-.55 1.49-.53 2.04.04l10.71 11.22c.61.63.58 1.64-.05 2.24-11.95 11.43-23.05 22.02-33.32 31.79-1.24 1.18-1.36 2.29-.37 3.32 3.47 3.61 8.41 8.75 14.82 15.43.57.59 1.5.62 2.11.07l39.72-36.16c.64-.58 1.63-.55 2.23.07 1.48 1.53 4.91 5.11 10.28 10.76 1.61 1.69.36 2.5-.85 3.65-17.85 17.06-35.63 34.04-53.36 50.95-.62.6-1.61.57-2.21-.05l-69.14-72.38a1.7 1.7 0 0 1 .06-2.39l53.9-51.49c.63-.6 1.63-.58 2.23.05l10.55 11.05c.58.61.56 1.58-.05 2.16l-38.3 36.58c-.64.61-.66 1.63-.05 2.27l12.67 13.27c.64.66 1.69.69 2.35.06zM284.47 1521.848c-.64.722-1.75.782-2.471.138l-13.344-11.93a1.745 1.745 0 0 1-.138-2.472l63.813-71.372a1.75 1.75 0 0 1 2.471-.138l13.344 11.93c.725.646.785 1.756.139 2.472zM363.29 1464.16c.43-.2.94-.14 1.31.17l13.75 11.48c.75.62.88 1.72.29 2.5l-46.41 61.01c-.59.78-.47 1.88.28 2.51l35.01 29.21c.78.64.82 1.82.09 2.52l-11.4 10.89c-.7.67-1.8.7-2.53.06-31.85-27.77-47.77-41.66-47.78-41.66q-1.74-1.485-.24-3.45c30.86-40.55 49.83-65.48 56.91-74.81.08-.11.32-.25.72-.43M1327.94 1588.29l42.45-31.03a.96.96 0 0 1 1.32.17l11.11 13.93c.28.35.21.86-.15 1.12l-65.76 48.07c-.25.19-.61.13-.8-.12-3.67-4.98-6.7-9.13-9.09-12.44-1.1-1.53-1.38-3.4-1.3-5.41.68-17.58 1.68-43.27 3-77.06.02-.55-.6-.88-1.05-.56l-37.77 27.62c-.52.38-1.25.27-1.62-.25l-10.36-14.16a.78.78 0 0 1 .17-1.08l61.95-45.29c.38-.28.92-.21 1.22.15 2.59 3.07 4.78 6.22 6.56 9.46 2.42 4.43 1.84 9.63 1.51 15.84-1.23 23.31-1.79 46.94-1.67 70.9 0 .14.16.23.28.14M450.69 1647.95c-4.39-2.79-9.48-6.12-15.25-9.98-1.23-.83-1.99-1.75-2.3-2.78-.07-.27-.1-.55-.09-.83.33-6.33 1.5-12.66 3.52-19 .26-.82-.05-1.72-.77-2.19l-28.05-18.44c-.41-.27-.95-.25-1.33.06l-16.98 13.54c-.67.53-1.61.55-2.3.05l-15.4-11.22a.91.91 0 0 1-.03-1.45c18.41-14.69 45.48-36.28 81.21-64.78 1.82-1.45 3.09-1.68 5.13-.33 3.44 2.28 8.74 5.77 15.89 10.46.78.51 1.16 1.46.96 2.38l-23.26 104.12a.63.63 0 0 1-.95.39M1296.521 1629.98c.529.86.259 1.98-.592 2.505l-15.519 9.584c-.85.531-1.98.261-2.504-.592l-51.927-84.077a1.82 1.82 0 0 1 .592-2.505l15.519-9.584a1.82 1.82 0 0 1 2.504.592z" style="fill:#0c0d0d;fill-opacity:1;fill-rule:nonzero;stroke:none" transform="matrix(7.55356 0 0 7.55547 0 -.29)"></path><path d="m420.66 1582.73 31.02-27.1c.43-.38 1.08.04.93.58l-11.32 39.61a.58.58 0 0 1-.86.33l-19.7-12.51a.568.568 0 0 1-.07-.91" style="fill:#fff;fill-opacity:1;fill-rule:nonzero;stroke:none" transform="matrix(7.55356 0 0 7.55547 0 -.29)"></path><path d="M556.3 1642.67c-.43.01-.64.53-.33.83 9.6 9.44 3.8 18.87-.2 29.41-3.53 9.28-6.08 14.72-3.3 22.7.2.59-.4 1.14-.97.87-1.43-.67-7.99-3.85-19.68-9.52q-2.295-1.125-2.37-3.3c-.01-.23.01-.45.07-.66 2.05-7.37 5.04-15.95 8.95-25.72 3.54-8.84-2.45-13.36-9.52-16.91-5.17-2.59-10.89-5.27-17.16-8.05-.44-.19-.95 0-1.14.44l-15.46 35.54c-.15.34-.55.49-.88.33l-17.54-8.52c-.6-.29-.86-1-.6-1.61l40.09-92.17c.27-.63 1.01-.89 1.62-.58 14.39 7.51 28.77 14.59 43.13 21.26 7.46 3.47 14.71 8.74 18.1 15.33 4.94 9.63 2.69 21.98-3.68 30.57-4.67 6.31-11.05 9.57-19.13 9.76M1136.29 1604.29a.67.67 0 0 1 .32-.9c9.92-4.72 22.79-10.95 38.6-18.68 13.99-6.84 31.39-7.19 43.24 4.1 22.62 21.54 34.91 66.14 2.45 86.37-3.68 2.29-7.71 4.5-12.1 6.63-4.75 2.31-14.35 6.83-28.8 13.55-.51.23-1.11.01-1.35-.49z" style="fill:#0c0d0d;fill-opacity:1;fill-rule:nonzero;stroke:none" transform="matrix(7.55356 0 0 7.55547 0 -.29)"></path><path d="M528.41 1593.09c.3-.61 1.02-.86 1.62-.56l22.79 11.06c5.99 2.91 8.55 10 5.71 15.85l-1.02 2.08c-2.83 5.85-9.99 8.22-15.98 5.31l-22.79-11.06c-.6-.29-.85-1.02-.56-1.62zM1164.45 1612.67c-.65-1.42-.03-3.1 1.39-3.75l12.33-5.68c12.85-5.91 28.12-.16 34.1 12.84l5.86 12.74c5.98 13 .41 28.33-12.44 34.24l-12.34 5.67c-1.42.66-3.1.04-3.75-1.38z" style="fill:#fff;fill-opacity:1;fill-rule:nonzero;stroke:none" transform="matrix(7.55356 0 0 7.55547 0 -.29)"></path><path d="M1121.54 1664.66c-.3.23-.15.71.23.73 7.53.43 12.76 4.05 15.71 10.88 2.51 5.81 5.28 12.55 8.29 20.21 1.37 3.47 3.56 6.26 6.57 8.35a.83.83 0 0 1-.17 1.45c-5.51 2.18-11.52 4.37-18.04 6.58-4.07 1.39-5.85-.68-7.14-4.51-2.57-7.57-5.39-14.52-8.48-20.83-2.86-5.84-6.53-9.79-13.67-7.6-7.17 2.21-14.23 4.62-21.19 7.23a1.84 1.84 0 0 0-1.1 2.32l11.64 34.03c.36 1.08-.21 2.25-1.29 2.62l-17.27 5.9a1.43 1.43 0 0 1-1.82-.89l-31.91-93.33c-.23-.68.12-1.42.79-1.67 17.86-6.57 32.84-11.98 44.95-16.23 16.78-5.89 31.71-2.8 39.23 14.66 4.47 10.4 4.07 22.6-5.33 30.1" style="fill:#0c0d0d;fill-opacity:1;fill-rule:nonzero;stroke:none" transform="matrix(7.55356 0 0 7.55547 0 -.29)"></path><path d="M1068.35 1648.14c-.37-1.03.17-2.16 1.19-2.52l23.01-8.29c6.14-2.21 12.82.74 14.93 6.59l1.38 3.84c2.11 5.85-1.16 12.39-7.3 14.6l-23.01 8.28a1.97 1.97 0 0 1-2.52-1.18z" style="fill:#fff;fill-opacity:1;fill-rule:nonzero;stroke:none" transform="matrix(7.55356 0 0 7.55547 0 -.29)"></path><path d="M680.08 1727.44c.11-.41-.39-.71-.7-.42-7.95 7.31-18.72 8.23-28.38 3.77-15.02-6.92-19.48-21.78-17.27-37.56 1.74-12.43 8.34-27.28 18.8-34.86 14.68-10.64 34.72-5.97 41.15 11.57.13.36.64.34.74-.03l7.88-30c.24-.92 1.17-1.48 2.1-1.25 2.79.69 7.99 2.06 15.6 4.09 2.25.6 1.46 2.57.92 4.62-8.54 32.53-16.63 63.3-24.26 92.32-.15.56-.72.89-1.28.74l-16.02-4.2a1.526 1.526 0 0 1-1.09-1.87zM988.69 1731.79l51.79-9.3c.77-.14 1.5.37 1.64 1.14l2.71 15.1c.14.77-.37 1.5-1.14 1.64l-72.91 13.09c-.77.14-1.5-.37-1.64-1.14l-17.56-97.82c-.14-.77.37-1.5 1.14-1.64l69.65-12.51c.77-.14 1.5.37 1.64 1.14l2.77 15.46c.14.77-.37 1.5-1.14 1.64l-48.42 8.69c-.77.14-1.28.87-1.14 1.64l3.2 17.8c.14.77.87 1.28 1.64 1.14l45.63-8.19c.77-.14 1.5.37 1.64 1.14l2.67 14.86c.14.77-.37 1.5-1.14 1.64l-45.74 8.21c-.77.14-1.28.87-1.14 1.64l4.21 23.49c.14.77.87 1.28 1.64 1.14M858.72 1658.27a.59.59 0 0 1 .57-.63c12.89-.41 27.62-1.06 44.2-1.95 1.75-.09 4.6.07 8.57.5 21 2.28 28.59 23.79 25.06 41.93-2.32 11.93-9.31 19.34-20.98 22.23-2.72.67-7.04 1.1-12.96 1.28-10.49.33-16.85.42-19.08.29a.94.94 0 0 0-.99.99l1.76 34.13c.02.48-.34.88-.81.9l-18.84.97c-.72.04-1.34-.51-1.37-1.23z" style="fill:#0c0d0d;fill-opacity:1;fill-rule:nonzero;stroke:none" transform="matrix(7.55356 0 0 7.55547 0 -.29)"></path><path d="M676.412 1671.772c8.878 2.168 13.568 14.188 10.477 26.855-3.089 12.673-12.789 21.183-21.66 19.021-8.879-2.168-13.569-14.188-10.478-26.855 3.089-12.673 12.789-21.183 21.66-19.021" style="fill:#fff;fill-opacity:1;fill-rule:nonzero;stroke:none" transform="matrix(7.55356 0 0 7.55547 0 -.29)"></path><path d="M784.44 1732.96c.72.16 1.1.96.76 1.62-7.08 13.73-20.03 20.12-35.38 17.94-14.77-2.1-27.9-11.48-30.48-27.37-3.64-22.39 4.49-49.48 30.73-52.52 15.95-1.85 32.18 4.97 37.88 20.72 2.95 8.14 2.63 19.76 1.27 28.62-.09.62-.67 1.04-1.29.94-7.67-1.23-23.09-3.72-46.25-7.45-.87-.14-1.68.02-2.44.48-3.98 2.42-1.13 6.48.64 10.26 2.33 4.94 5.22 7.66 10.63 9.28 7.84 2.35 10.33-1.92 15.91-5.76.55-.38 1.23-.51 1.88-.36z" style="fill:#0c0d0d;fill-opacity:1;fill-rule:nonzero;stroke:none" transform="matrix(7.55356 0 0 7.55547 0 -.29)"></path><path d="M881.14 1675.63c-.01-.35.26-.66.61-.67l18.87-.96c7.98-.4 14.76 5.47 15.15 13.12l.1 1.9c.38 7.65-5.77 14.18-13.75 14.58l-18.87.96a.645.645 0 0 1-.67-.61zM741.62 1701.36c-.15-.03-.25-.17-.22-.31l.03-.18c1.28-7.65 8.44-12.83 15.99-11.57l1.07.18c7.55 1.26 12.64 8.49 11.36 16.15l-.03.17c-.02.15-.16.25-.31.22z" style="fill:#fff;fill-opacity:1;fill-rule:nonzero;stroke:none" transform="matrix(7.55356 0 0 7.55547 0 -.29)" data-source="https://football-logos.cc"></path><!-- source: https://football-logos.cc --></svg>