<svg xmlns="http://www.w3.org/2000/svg" viewBox="34.93 18.6 630.15 862.81"><!-- Source: https://football-logos.cc --><path d="M118.773 623.104V405.739c0-92.56 78.937-167.595 176.311-167.595s176.312 75.036 176.312 167.594v217.366z" style="fill:#000;fill-opacity:1;fill-rule:nonzero;stroke:none" transform="matrix(1.33333 0 0 -1.33333 -49.95 1023.13)" data-source="https://football-logos.cc"></path><path d="M290.78 614.497V478.1h-163.4v136.397zM127.38 405.74v63.754h163.4v-222.69c-43.263 1.024-83.759 17.504-114.437 46.665-31.574 30.014-48.963 69.885-48.963 112.27M462.788 405.738c0-42.384-17.389-82.255-48.963-112.27-30.679-29.16-71.174-45.64-114.437-46.664v367.693h163.4z" style="fill:#fff;fill-opacity:1;fill-rule:nonzero;stroke:none" transform="matrix(1.33333 0 0 -1.33333 -49.95 1023.13)"></path><path d="m82.229 630.13-11.83 27.376c-.625 1.394-1.514 2.43-2.343 3.25-1.059 1.05-2.324-.412-2.743-.927l-1.657 1.642c2.67 3.248 2.598 6.03 2.398 7.393l1.394 1.409 35.38-14.734c6.202-2.577 8.131-2.471 9.49-2.111l1.657-1.641-11.083-11.194-1.658 1.642c1.597 1.52.567 3.703-.492 4.751-.369.365-1.514.957-1.776 1.062l-4.194 1.75-12.36-12.485 1.707-3.707c.626-1.395 2.156-5.005 6.42-2.173l1.658-1.641-7.595-7.671-1.658 1.642c.952 2.157-.19 5.148-.715 6.367m-1.279 10.956.184-.182 10.075 10.176-.139.136-17.658 7.492-.154-.158zM85.926 687.997c1.354.077 2.324.517 3.408 1.274l20.585 14.38c1.173.82 1.829 1.516 2.415 2.794l1.76 1.23 6.676-9.56-1.625-1.135c-4.317 2.91-8.029 3.32-11.188 1.113l-2.98-2.081 20.695-29.635c.964-1.381 1.94-2.201 4.371-1.45l1.335-1.913-11.24-7.852-1.335 1.911c1.126 1.657 1.508 2.555.098 4.573l-20.695 29.636-2.528-1.767c-1.85-1.293-5.54-4.186-3.258-11.205l-1.625-1.136-6.676 9.56zM136.845 715.501c-.993-.606-2.083-2.045-.932-4.51l6.033-12.913 17.362 8.11-6.035 12.914c-.712 1.525-1.846 2.783-4.006 2.203l-.988 2.112 12.422 5.804.987-2.113c-1.659-1.133-1.81-2.632-.931-4.51l14.095-30.17c1.042-2.23 2.01-2.35 4.007-2.203l.988-2.114-12.372-5.78-.989 2.113c1.396 1.438 1.924 2.257.882 4.488l-6.608 14.145-17.36-8.11 6.608-14.145c.713-1.527 1.533-2.503 4.057-2.18l.987-2.114-12.421-5.803-.988 2.113c1.517 1.566 1.787 2.55.882 4.487l-14.094 30.17c-.276.587-1.421 2.91-4.008 2.203l-.987 2.113 12.421 5.804zM184.45 736.788l.666-2.235c-2.403-1.19-1.845-3.255-1.364-4.87l10.088-33.84 11.98 3.574c3.905 1.164 6.267 5.384 5.621 10.06l1.9.566 3.275-10.99-32.457-9.68-.666 2.234c2.388 1.05 2.023 3.24 1.523 4.917l-9.18 30.797c-.593 1.988-1.338 3.524-3.967 3.28l-.666 2.235zM252.52 728.252c2.153-12.581-4.11-24.3-15.239-26.203-11.128-1.903-20.932 7.07-23.085 19.65-2.217 12.964 4.23 24.583 15.197 26.458 10.963 1.874 20.91-6.942 23.128-19.905m-29.313-5.012c2.753-16.093 7.36-18.855 13.494-17.805 6.134 1.047 9.56 5.183 6.808 21.275-2.787 16.285-7.405 19.11-13.538 18.062-6.135-1.048-9.551-5.248-6.764-21.532M270.046 752.26l21.62-27.95.605.025-.945 22.528c-.055 1.295-.254 3.427-3.411 3.813l-.099 2.33 9.41.395.097-2.33c-3.008-.58-3.132-2.854-3.08-4.085l1.635-39.036-2.916-.122-26.283 34.044-.55-.023 1.208-28.807c.04-.971.253-3.426 3.41-3.813l.099-2.331-9.408-.395-.098 2.33c3.114.65 3.12 3.115 3.08 4.086l-1.373 32.757c-.068 1.618-.451 4.197-3.302 3.817l-.098 2.33zM334.804 751.1c1.537-.117 2.15-.033 2.613.971l1.372-.103-.872-11.566-1.976.15c-.835 5.78-3.263 7.262-8.316 7.643l-9.169.69-1.232-16.347 6.095-.459c2.635-.198 4.831.351 5.034 3.78l1.977-.149-.875-11.63-1.976.149c.016 3.897-2.385 4.272-3.319 4.343l-7.194.54-1.403-18.608 13.18-.991c4.064-.306 7.777 2.794 8.84 7.392l1.978-.149-.863-11.437-34.484 2.596.175 2.326c2.604.128 3.046 2.305 3.176 4.05l2.415 32.048c.146 1.938.017 3.897-2.535 4.48l.176 2.326zM370.194 747.243c.954-.965 1.926-1.402 3.21-1.714l24.403-5.933c1.39-.338 2.345-.37 3.69.036l2.089-.508-2.755-11.33-1.927.468c-.672 5.164-2.819 8.219-6.566 9.13l-3.53.859-8.54-35.127c-.398-1.637-.368-2.91 1.802-4.239l-.551-2.265-13.324 3.238.552 2.268c1.988.249 2.912.558 3.494 2.95l8.538 35.126-2.996.729c-2.192.533-6.804 1.387-10.557-4.967l-1.927.469 2.755 11.33zM438.746 700.426c-4.629-11.894-16.031-18.72-26.553-14.628-10.52 4.092-14.311 16.827-9.681 28.722 4.77 12.256 16.28 18.901 26.647 14.87 10.368-4.034 14.358-16.707 9.587-28.964m-27.714 10.78c-5.923-15.215-3.394-19.953 2.406-22.208 5.8-2.256 10.867-.473 16.789 14.742 5.992 15.396 3.486 20.194-2.313 22.45-5.799 2.255-10.89.412-16.882-14.984M465.757 711.905l-1.22-1.989c-1.227.524-2.458.519-3.372-.973-.475-.774-.599-1.61-.845-2.75l-5.335-25.68.375-.23 8.251 6.191 3.353 16.333c.823 3.978.137 5.386-.735 6.073l1.217 1.989 20.665-12.659-1.218-1.99c-2.09.597-3.612.01-6.04-1.845l-8.534-6.549-3.198-15.972.282-.173 21.088 16.182c.412.355 1.397 1.119 1.701 1.616 1.186 1.934-.368 3.721-1.638 4.498l1.22 1.99 9.298-5.697-1.218-1.99c-2.418.798-4.291-.257-6.41-1.923l-32.22-24.862-2.395 1.467 3.835 18.698-.282.173-15.247-11.708-2.536 1.554 8.236 40.01c.612 2.894.43 4.6-1.165 6.11l1.219 1.988zm13.403-15.126c2.018 1.5 2.426 2.693.359 3.959l-1.69 1.035c-2.442 1.497-2.959-1.454-3.15-2.4l-1.442-7.096zM517.108 674.913l-6.08-34.813.425-.43 16.009 15.88c.92.912 2.36 2.496.518 5.09l1.656 1.642 6.633-6.686-1.658-1.642c-2.455 1.83-4.22.39-5.093-.476l-27.739-27.517-2.054 2.072 7.44 42.367-.39.39-20.47-20.305c-.69-.685-2.36-2.497-.517-5.091l-1.655-1.643-6.634 6.687 1.655 1.643c2.58-1.865 4.406-.208 5.095.477l23.278 23.088c1.15 1.142 2.795 3.163.594 5.014l1.655 1.642zM275.463 682.658c1.502 0 2.093.126 2.469 1.135h1.34v-11.296h-1.931c-1.235 5.553-3.701 6.816-8.638 6.816h-8.96v-15.966h5.955c2.576 0 4.668.694 4.615 4.038h1.931v-11.359h-1.932c-.268 3.786-2.627 3.975-3.54 3.975h-7.029V644.92c0-2.02-.321-3.092 2.574-4.165v-2.272h-13.412v2.272c2.522.315 2.79 2.46 2.79 4.165v31.301c0 1.893-.268 3.786-2.79 4.166v2.272zM287.64 647.633c2.254 0 4.078-2.146 4.078-4.797s-1.824-4.795-4.078-4.795c-2.253 0-4.077 2.145-4.077 4.795s1.824 4.797 4.077 4.797M331.473 645.36c-5.528-5.49-9.927-7.572-14.808-7.572-11.375 0-18.778 10.223-18.778 23.034 0 13.38 7.886 22.53 17.81 22.53 2.149 0 3.866-.252 5.956-.947 1.825-.63 2.738-.82 3.542-.82.429 0 .859.315 1.235.63.16.126.32.253.428.443h1.932v-10.413h-1.932c-1.394 4.48-5.685 7.761-10.301 7.761-2.252 0-3.863-1.009-4.935-1.893-4.454-3.596-4.829-9.907-4.829-18.048 0-6.437.535-17.733 11.534-17.733 3.757 0 7.352 1.64 11.483 5.49zM341.716 647.633c2.255 0 4.08-2.146 4.08-4.797s-1.825-4.795-4.08-4.795c-2.253 0-4.077 2.145-4.077 4.795s1.824 4.797 4.077 4.797M498.075 227.662l-35.192 40.93c-3.411 4.105-9.078 7.557-18.809 7.46-8.486-.052-17.44-4.47-24.579-10.268-7.054-5.882-12.538-13.017-12.69-20.352-.012-2.225.406-4.13 1.21-5.713.804-1.582 1.82-2.719 2.82-3.896l26.092-30.344a209 209 0 0 0-23.984-16.953c-30.793-18.73-70.983-32.75-117.861-32.8-46.874.05-87.062 14.07-117.857 32.8a209 209 0 0 0-23.985 16.953l26.091 30.344c1.004 1.177 2.019 2.314 2.822 3.896.806 1.583 1.222 3.488 1.21 5.713-.15 7.335-5.636 14.47-12.69 20.352-7.14 5.797-16.093 10.216-24.576 10.268-9.732.097-15.399-3.355-18.81-7.46l-35.195-40.93c-2.914-3.31-6.144-7.222-6.068-13.788.007-7.968 3.831-15.424 10.269-23 6.46-7.605 15.657-15.52 27.167-24.603 37.522-29.61 95.156-59.977 171.626-59.977 76.466 0 134.1 30.366 171.622 59.977 11.509 9.083 20.706 16.998 27.167 24.602 6.438 7.577 10.263 15.033 10.27 23.001.076 6.566-3.152 10.478-6.07 13.788" style="fill:#000;fill-opacity:1;fill-rule:nonzero;stroke:none" transform="matrix(1.33333 0 0 -1.33333 -49.95 1023.13)"></path><path d="M413.304 242.374c-.344.712-.572 1.462-.581 3.058-.152 3.953 4.118 10.646 10.518 15.771 6.316 5.212 14.516 8.983 20.833 8.93 8.58-.099 11.62-2.399 14.322-5.4l14.858-17.28c-3.205-6.136-7.728-12.78-13.45-19.584l-24.666 28.688-.71-6.83c-.908-8.109-4.33-11.601-7.726-13.62-2.475-1.433-5.07-1.903-6.542-2.047l-4.835 5.623c-1.03 1.19-1.673 1.981-2.021 2.691" style="fill:#fff;fill-opacity:1;fill-rule:nonzero;stroke:none" transform="matrix(1.33333 0 0 -1.33333 -49.95 1023.13)"></path><path d="M424.606 228.888a22.2 22.2 0 0 1 5.038 2.084c3.72 2.078 7.44 5.907 9.406 11.954l16.817-19.557c-4.264-4.685-9.08-9.412-14.42-14.068zM134.3 223.37l16.816 19.557c1.965-6.048 5.685-9.878 9.405-11.956a22.2 22.2 0 0 1 5.042-2.083L148.72 209.3c-5.34 4.656-10.154 9.383-14.42 14.068" style="fill:#fff;fill-opacity:1;fill-rule:nonzero;stroke:none" transform="matrix(1.33333 0 0 -1.33333 -49.95 1023.13)"></path><path d="M131.771 264.733c2.705 3.001 5.743 5.301 14.326 5.4 6.316.053 14.514-3.718 20.83-8.93 6.4-5.125 10.67-11.818 10.52-15.771-.013-1.596-.238-2.346-.583-3.058-.35-.71-.99-1.502-2.02-2.691l-4.836-5.625c-1.473.146-4.067.613-6.544 2.048-3.398 2.019-6.818 5.51-7.724 13.62l-.71 6.832-24.668-28.689c-5.72 6.805-10.242 13.45-13.448 19.584z" style="fill:#fff;fill-opacity:1;fill-rule:nonzero;stroke:none" transform="matrix(1.33333 0 0 -1.33333 -49.95 1023.13)"></path><path d="M489.362 194.701c-5.966-7.036-14.922-14.798-26.318-23.787-36.795-29.016-93.105-58.698-167.958-58.702-74.857.004-131.167 29.686-167.962 58.702-11.396 8.99-20.352 16.751-26.32 23.787-5.993 7.066-8.871 13.213-8.865 19.173.078 4.691 1.64 6.355 4.641 9.929l16.208 18.851c10.627-19.035 31.795-41.18 61.362-59.186 31.614-19.23 72.862-33.61 120.932-33.658 48.073.047 89.321 14.428 120.937 33.658 29.566 18.006 50.736 40.151 61.36 59.186l16.209-18.851c3-3.574 4.564-5.238 4.638-9.929.01-5.96-2.869-12.107-8.864-19.173" style="fill:#fff;fill-opacity:1;fill-rule:nonzero;stroke:none" transform="matrix(1.33333 0 0 -1.33333 -49.95 1023.13)"></path><path d="m165.11 149.805 14.365 27.248 15.879-8.371-2.431-4.61-11.202 5.906-3.4-6.45 9.67-5.096-2.431-4.613-9.67 5.099-6.105-11.58zM190.206 153.72q1.785 4.357 4.105 6.857a14.8 14.8 0 0 0 3.857 2.984q2.14 1.143 4.184 1.28 2.725.2 5.685-1.012 5.353-2.197 6.966-7.42 1.612-5.226-1.241-12.187-2.831-6.902-7.617-9.493-4.79-2.589-10.126-.402-5.404 2.215-7.004 7.402t1.191 11.99m5.12-1.87q-1.985-4.841-1.108-8.12.875-3.276 3.8-4.475 2.925-1.2 5.818.509 2.892 1.712 4.925 6.669 2.008 4.898 1.17 8.057-.837 3.16-3.862 4.402-3.023 1.238-5.875-.443-2.851-1.68-4.868-6.598M221.114 158.107l5.08-1.466-4.632-16.03q-1.103-3.815-1.24-5-.2-1.91.71-3.365.908-1.455 3.036-2.07 2.161-.624 3.56.097a4.45 4.45 0 0 1 2.06 2.172q.661 1.45 1.675 4.963l4.73 16.37 5.08-1.466-4.491-15.544q-1.54-5.33-2.588-7.41-1.048-2.083-2.592-3.277-1.546-1.194-3.657-1.556-2.113-.364-5.098.5-3.603 1.041-5.183 2.558-1.578 1.516-2.208 3.394-.627 1.876-.475 3.69.237 2.69 1.673 7.654zM238.77 121.277l5.398 30.327 5.063-.9 6.948-22.132 3.603 20.253 4.837-.86-5.398-30.328-5.223.93-6.873 21.626-3.52-19.777zM267.675 147.572l9.637-.692q3.26-.233 4.93-.943 2.238-.963 3.734-3.113 1.492-2.15 2.135-5.156.644-3.006.333-7.324-.27-3.794-1.27-6.482-1.22-3.283-3.187-5.226-1.485-1.475-3.882-2.187-1.792-.525-4.714-.315l-9.923.714zm4.9-5.576-1.462-20.35 3.938-.285q2.208-.157 3.21.066 1.31.284 2.22 1.126.912.84 1.594 2.866.683 2.026.938 5.589.256 3.563-.14 5.51-.399 1.944-1.284 3.082-.886 1.137-2.337 1.622-1.083.373-4.308.604zM292.438 115.254l-.789 30.793 19.408.498.132-5.21-14.122-.361.175-6.827 13.142.336.132-5.187-13.141-.338.214-8.38 14.623.374.133-5.188zM313.6 146.696l9.587 1.202q3.243.405 5.017.036 2.385-.506 4.27-2.325 1.883-1.817 3.102-4.642 1.216-2.822 1.755-7.116.472-3.776.017-6.606-.556-3.459-2.106-5.748-1.17-1.734-3.38-2.901-1.658-.864-4.563-1.229l-9.871-1.236zm5.891-4.513 2.536-20.244 3.917.49q2.198.274 3.136.688 1.23.537 1.958 1.538.729 1.002 1.005 3.123.274 2.119-.17 5.664t-1.213 5.374q-.77 1.83-1.86 2.777-1.089.942-2.609 1.133-1.133.154-4.341-.248zM365.104 124.877l-4.857-1.269-5.624 21.53q-1.896-3.622-5.142-5.97l-1.354 5.186q1.709 1.228 3.406 3.854 1.696 2.625 1.813 5.566l3.941 1.029zM371.235 144.102q-2.156.27-3.548 1.578-1.392 1.307-2.053 3.212-1.136 3.253.056 6.05t4.751 4.035q3.524 1.23 6.212-.216 2.689-1.446 3.822-4.699.705-2.025.36-3.913a6.33 6.33 0 0 0-1.672-3.287q2.395-.255 4.117-1.747 1.72-1.493 2.572-3.933 1.4-4.029.095-7.31t-4.933-4.543q-3.375-1.175-6.341.127-3.506 1.537-5 5.823-.82 2.362-.515 4.683.31 2.32 2.077 4.14m-.977 5.956q.58-1.668 1.706-2.32 1.125-.654 2.459-.191 1.35.47 1.829 1.695.483 1.226-.098 2.892-.545 1.566-1.677 2.231-1.128.664-2.443.205-1.367-.476-1.845-1.71-.478-1.236.069-2.802m3.901-12.615q.802-2.301 2.254-3.242 1.455-.94 2.954-.417 1.47.511 1.998 2.086.53 1.575-.286 3.918-.714 2.042-2.122 2.942-1.41.9-2.912.377-1.738-.606-2.098-2.311a6.13 6.13 0 0 1 .212-3.353M389.357 150.86q-2.169.103-3.66 1.297-1.489 1.195-2.3 3.042-1.382 3.156-.414 6.037.97 2.88 4.422 4.395 3.42 1.496 6.211.267t4.176-4.385q.861-1.964.666-3.873a6.3 6.3 0 0 0-1.412-3.407q2.407-.07 4.24-1.421 1.831-1.355 2.87-3.722 1.715-3.905.668-7.278-1.047-3.374-4.563-4.915-3.271-1.436-6.332-.368-3.615 1.258-5.439 5.415-1.005 2.291-.88 4.628.126 2.339 1.747 4.288m-1.44 5.863q.709-1.616 1.883-2.181 1.173-.564 2.467.004 1.307.572 1.692 1.832.384 1.259-.324 2.873-.667 1.522-1.845 2.095t-2.454.013q-1.325-.58-1.704-1.848-.381-1.27.285-2.788m4.876-12.272q.978-2.232 2.5-3.055 1.524-.825 2.978-.187 1.422.625 1.829 2.236.405 1.613-.592 3.883-.87 1.981-2.345 2.768-1.477.787-2.933.148-1.685-.737-1.91-2.468a6.14 6.14 0 0 1 .473-3.325M399.183 164.273l-2.575 4.842 15.153 8.062 2.013-3.784q-.722-3.171-.499-8.262.221-5.096 1.637-10.21 1.416-5.113 3.347-8.703l-4.273-2.275q-2.89 5.699-4.14 12.554-1.252 6.856-.586 13.137zM398.584 455.559c22.703 23.308 36.974 52.042 36.98 80.376.001 16.315-4.749 32.486-15.333 47.325-.563.757-1.456 1.328-2.527 1.33-.879.005-1.81-.4-2.637-1.237-2.909-2.672-4.37-7.893-7.717-14.577h-52.52c-3.346 6.684-4.81 11.905-7.75 14.604-.8.81-1.728 1.213-2.607 1.21-1.074-.002-1.964-.573-2.518-1.318-10.592-14.85-15.347-31.022-15.345-47.337.005-28.334 14.278-57.066 36.984-80.376l-.264-24.628-22.327-17.758v-70.06l26.191-7.17h27.787l26.194 7.166v70.064l-22.327 17.758z" style="fill:#000;fill-opacity:1;fill-rule:nonzero;stroke:none" transform="matrix(1.33333 0 0 -1.33333 -49.95 1023.13)"></path><path d="M388.997 536.308a67 67 0 0 0-7.907-.416 67 67 0 0 0-7.91.416l.246 8.928-.27.23c-9.17 7.81-14.225 15.413-17.572 21.828h51.01c-3.345-6.415-8.4-14.018-17.573-21.829l-.27-.231z" style="fill:#f6d304;fill-opacity:1;fill-rule:nonzero;stroke:none" transform="matrix(1.33333 0 0 -1.33333 -49.95 1023.13)"></path><path d="M328.092 535.935c.003 16.027 4.653 31.867 15.061 46.464.32.425.793.71 1.313.71h.007c.427-.002.956-.177 1.589-.804 2.463-2.161 4.091-7.417 7.458-14.229 3.356-6.755 8.542-15.044 18.405-23.508l-.225-8.062c-2.423.364-4.29.868-5.042 1.46l-1.178.864v-24.448c-10.35 3.946-13.38 21.165-13.852 32.436l-.032.706h-3.6v-30.331c.008-4.216 1.896-10.128 5.008-15.099 3.066-4.87 7.362-8.898 12.476-9.038V468.5c.038-2.446 2.234-3.859 5.042-4.678 2.858-.84 6.624-1.173 10.568-1.175 3.941.002 7.708.336 10.568 1.175 2.806.82 5.002 2.232 5.042 4.678v24.557c5.113.14 9.408 4.167 12.475 9.037 3.11 4.97 4.998 10.882 5.01 15.098v30.332h-3.603l-.033-.706c-.47-11.27-3.501-28.487-13.849-32.435v24.45l-1.181-.868c-.75-.591-2.618-1.095-5.042-1.46l-.222 8.063c9.861 8.464 15.047 16.753 18.404 23.508 3.367 6.812 4.995 12.068 7.432 14.203.655.653 1.184.825 1.613.83.519.002 1-.284 1.33-.722 10.394-14.583 15.045-30.423 15.048-46.452.004-27.911-14.147-56.424-36.771-79.56l-.216-.22.005-.306.263-24.537h-32.547l.265 24.845-.213.218c-22.628 23.139-36.78 51.649-36.776 79.56zM364.324 429.828h33.53l5.633-4.48-22.397-25.706-22.399 25.706zM380.349 391.986l-3.996-2.339-25.6 29.384 6.777 5.393 22.819-26.187zM375.05 388.886l-7.598-4.447-24.639 28.278 6.78 5.393zM368.038 383.067l13.052 7.635 13.049-7.635.003-45.64h-26.104zM394.725 384.44l-7.597 4.446 25.459 29.225 6.778-5.393zM385.826 389.647l-3.995 2.34v6.25l22.817 26.187 6.778-5.389zM342.487 410.835l24.068-27.623v-45.556l-24.068 6.588zM395.623 337.656v45.555l24.07 27.625v-66.592z" style="fill:#f6d304;fill-opacity:1;fill-rule:nonzero;stroke:none" transform="matrix(1.33333 0 0 -1.33333 -49.95 1023.13)"></path><path d="M354.259 502.883c-2.979 4.73-4.792 10.523-4.782 14.31v28.849h.71c.663-11.555 3.532-29.037 15.292-33.23v-18.274c-4.268.092-8.29 3.661-11.22 8.345M407.919 502.88c-2.93-4.68-6.95-8.246-11.219-8.343v18.277c11.759 4.195 14.627 21.674 15.291 33.228h.708l.003-28.85c.01-3.786-1.802-9.58-4.783-14.312M366.962 536.143c2.957-1.233 8.47-1.703 14.128-1.736 5.654.033 11.167.503 14.127 1.734v-22.202c.022-1.31-1.314-2.444-3.978-3.235-2.624-.774-6.294-1.115-10.15-1.113-3.856-.002-7.526.339-10.15 1.113-2.68.796-4.016 1.938-3.977 3.257z" style="fill:#f6d304;fill-opacity:1;fill-rule:nonzero;stroke:none" transform="matrix(1.33333 0 0 -1.33333 -49.95 1023.13)"></path><path d="M366.962 511.012c.904-.761 2.156-1.319 3.56-1.728 2.858-.842 6.624-1.173 10.568-1.175 3.941.002 7.708.333 10.568 1.175 1.404.41 2.654.967 3.559 1.73V491.21c.022-1.31-1.314-2.446-3.978-3.234-2.624-.777-6.294-1.117-10.15-1.115-3.856-.002-7.526.338-10.15 1.115-2.68.793-4.016 1.936-3.977 3.257z" style="fill:#f6d304;fill-opacity:1;fill-rule:nonzero;stroke:none" transform="matrix(1.33333 0 0 -1.33333 -49.95 1023.13)"></path><path d="M391.24 465.244c-2.625-.777-6.295-1.118-10.15-1.115-3.857-.002-7.527.338-10.152 1.115-2.678.794-4.015 1.936-3.976 3.256v19.783c.904-.762 2.156-1.32 3.56-1.729 2.858-.84 6.624-1.174 10.568-1.176 3.941.002 7.708.336 10.568 1.176 1.404.41 2.654.967 3.559 1.729V468.5c.04-1.32-1.299-2.462-3.978-3.256" style="fill:#f6d304;fill-opacity:1;fill-rule:nonzero;stroke:none" transform="matrix(1.33333 0 0 -1.33333 -49.95 1023.13)"></path><path d="M251.273 336.78c-1.815.517-5.836 1.199-5.985 3.809 0 .415.122.852.353 1.267.806 2.03 2.048 2.586 3.227 2.557.778-.002 1.528-.175 2.228-.175 1.804 0 4.033.791 4.492 2.718.214.576.298.959.298 1.281.026.825-.647 1.62-1.654 4.411-1.142 4.105-1.191 7.493-8.84 8.607-7.162 1.016-9.047 7.826-9.392 9.401a12.4 12.4 0 0 1-2.1-.312c-1.374-.327-3.057-.982-4.305-2.23-2.429-2.954-9.458-11.944-19.365-12.51a37 37 0 0 0-1.884-.051c-7.294-.002-11.158 2.462-12.123 3.177-1.119-.865-6.144-4.85-7.748-8.323-1.054-1.843-1.995-4.327-3.014-6.369-1.03-2.018-2.096-3.723-3.764-3.77-1.48 0-4.513 0-7.391.238-2.892.264-5.57.642-6.608 1.773-.863 1.03-1.557 1.965-1.574 2.935-.007.9.706 1.594 2.088 1.982.342.033.665.043.965.043 2.384-.007 3.669-.837 4.918-.85 1.27.535 4.352 2.901 5.086 6.407.494 3.705 2.086 8.017 2.391 8.826-.223.583-1.186 3.035-2.32 4.622-.795 1.057-1.447 1.707-1.896 2.092a7 7 0 0 1-.336.272 45 45 0 0 0-1.35-2.724c-.913-1.555-1.72-3.153-2.847-3.286-1.164.007-7.845.8-11.721 2.725-1.488.697-2.612.963-3.498.963-1.458-.005-2.346-.702-3.32-1.67-.85-.885-1.102-5.44-4.292-5.544-.458 0-.962.104-1.523.327-2.222.95-3.318 3.059-3.31 5.197 0 1.752.718 3.55 2.132 4.833 2.938 2.678 6.549 6.285 13.16 6.553 6.473.114 7.856-.004 9.315 8.818.363 3.088.48 4.929.517 5.8-.55-.257-1.407-.595-2.183-.605a1.637 1.637 0 0 0-1.248.512c-.3-.325-.786-.68-1.495-.695-.322 0-.672.08-1.064.278-.611.355-.866.909-.856 1.379.005.336.1.629.205.854-.39.136-.865.43-.938 1.105.003.32.145.64.388.936.49.815.773 1.631.913 2.12-.492.018-1.36.16-1.418 1.094 0 .236.07.482.2.753.19.942.482 1.952.48 2.958 0 .464-.058.92-.224 1.434-.232 1.04-.503.988-1.375 1.05-.278 0-.6-.017-.948-.017-.67-.014-1.11.5-1.262 1.05-.179.558-.206 1.238-.206 1.946 0 .556.02 1.122.02 1.643q-.036.211-.035.416c.019 1.488 1.174 3.033 1.18 3.064l.466.652.197-.778c.005 0 .053-.222.24-.597.18-.36.482-.845.958-1.334a.8.8 0 0 1 .294-.06c.68-.048 1.902 1.077 3.245 2.68.572.665.78 1.194.775 1.513-.002.47-.434.814-1.569.838-1.457-.002-2.34.24-2.79.415l-1.199-2.4-.354.533c-.027.038-.57.872-1.103 2.984a2 2 0 0 0-.328-.039c-.723.022-1.452.583-2.379 3.062-.19.569-.285 1.04-.288 1.454.022 1.539 1.371 1.865 2.955 2.246 2.704.808 4.377 1.593 4.589 3.23.15.618.3 1.308.298 1.838.004.395-.087.665-.202.772l-.063.061-.026.082c-.12.365-.257.755-.26 1.179-.019.533.3 1.102.943 1.4.641.427 1.978 1.377 2.484 1.734a4.3 4.3 0 0 0-.065.743c-.002.725.184 1.748 1.023 2.589 1.163 1.165 1.994 1.397 2.298 1.442.322.18 1.67.896 4.05 1.612.957.263 2.225.355 3.595.355 3.146-.002 6.794-.502 8.131-.885 1.89-.398 2.116-1.98 3.794-2.159 2.294-.586 4.188-2.504 5.973-3.517 1.763-.794 4.26-.976 5.018-2.833.354-.41.428-.963.433-1.538-.006-1.169-.357-2.605-.35-3.561-.004-.393.068-.68.155-.784.508-.621.771-.68 1.119-.783.347-.084.866-.224 1.273-.801.229-.221.339-.52.335-.796-.036-.708-.535-1.296-.868-1.624.722-.736 2.593-2.849 3.056-5.575.465-2.57.532-6.267.542-7.315.178-.052.421-.132.67-.244.462-.22 1.068-.522 1.112-1.226 0-.226-.087-.452-.275-.691-.88-.871-2.02-1.24-2.568-1.379.036-.738.204-2.837 1.055-5.813.659-3.27 5.353-5.656 12.231-5.648q.547 0 1.114.02c8.452.249 12.177 4.79 20.12 6.181 4.289.757 10.175 1.041 10.983 1.078.548.324 4.356 2.623 4.31 5.823.006 3.15-.802 5.05-.806 9.148 0 1.207.08 2.29.08 3.245-.031 2.089-.304 3.416-2.54 4.478-.283.115-.59.167-.932.167-2.448.038-6.196-2.9-9.614-3.412-2.401-.48-5.808-.748-6.6-.805-.408-.496-1.94-1.98-5.403-1.974-.928 0-1.99.106-3.193.353-1.814.328-6.032 3.28-6.067 3.289l-.367.253 1.732 1.731c-.319.572-1.12 2.055-1.753 3.536-1.494 2.99-1.668 5.167-1.668 6.01 0 .24.014.372.016.386l.058.509 3.316-1.532q-.013.16-.013.341c-.002.628.148 1.462.721 2.171.153.283.46.483.762.472.817-.06 1.398-.847 2.063-1.643.626-.8 1.234-1.698 1.555-2.022.66-.924 1.73-.965 4.218-2.604 2.127-1.425 3.423-3.594 3.785-4.25.216-.009.588-.02 1.06-.02 1.49-.003 3.973.135 5.288.805 1.436.598 6.037 4.166 10.457 4.173 1.035.003 2.067-.199 3.026-.681 3.461-1.597 5.623-5.44 5.618-10.474 0-.3-.007-.602-.021-.894-.025-1.83 1.632-5.1 1.638-9.322 0-.3-.007-.607-.028-.941-.863-7.358-2.778-10.114-3.57-10.966.493-.47 1.365-1.55 1.943-3.68.825-2.772 1.625-10.55 1.897-12.708.256-2.303 1.532-4.645 4.713-7.829 3.251-2.737 6.093-3.823 6.064-9.643 0-.28-.005-.575-.017-.865-.067-6.276-2.283-13.307-5.354-14.065-1.525-.553-2.78-.693-3.66-.693-.48 0-.849.039-1.088.078a13.2 13.2 0 0 1-.925-3.614c-.003-2.56-1.481-3.594-2.522-3.596-.78.048-5.054-2.158-7.675-2.172-.147 0-.293.007-.485.03z" style="fill:#000;fill-opacity:1;fill-rule:nonzero;stroke:none" transform="matrix(1.33333 0 0 -1.33333 -49.95 1023.13)"></path><path d="M248.868 343.67c-.98-.028-1.74-.247-2.557-2.134-.203-.368-.282-.678-.282-.947-.146-1.631 3.53-2.673 5.373-3.08q.165-.017.356-.018c2.361-.015 6.41 2.13 7.675 2.174.568.008 1.768.576 1.783 2.897.276 2.486 1.1 4.135 1.112 4.16l.137.274.296-.084c.003.01.408-.116 1.207-.116.802 0 1.968.127 3.46.665 2.252.3 4.88 7.262 4.812 13.369q.019.442.018.848c-.027 5.526-2.39 6.173-5.825 9.098-3.254 3.25-4.665 5.754-4.949 8.288-.263 2.15-1.082 9.972-1.872 12.59-.39 1.439-.907 2.332-1.314 2.865s-.67.68-.67.683l-.49.294.467.327c-.004.007.119.075.366.372.25.295.601.791.996 1.573.782 1.566 1.716 4.282 2.249 8.802q.024.446.023.875c.008 4.052-1.617 7.145-1.638 9.34q.02.447.021.876c-.005 4.837-2.047 8.355-5.195 9.806-.858.431-1.77.607-2.708.61-4.068.007-8.541-3.397-10.142-4.106-1.56-.77-4.063-.866-5.603-.872-.78 0-1.304.03-1.308.03l-.217.012-.093.191c-.014 0-1.32 2.62-3.641 4.157-2.357 1.593-3.437 1.553-4.36 2.738-.399.404-.964 1.268-1.583 2.05-.583.79-1.32 1.42-1.48 1.36-.04-.01-.036.018-.15-.15-.474-.592-.591-1.236-.591-1.753a2.8 2.8 0 0 1 .115-.857l.271-.816-3.758 1.736c.032-.886.277-2.823 1.593-5.465.795-1.856 1.86-3.724 1.863-3.726l.141-.246-1.495-1.497c1.084-.715 4.238-2.75 5.412-2.923 1.171-.242 2.184-.341 3.056-.341 1.916 0 3.143.473 3.894.928.751.454 1 .863 1 .863l.102.16.187.012c.007 0 4.025.269 6.695.804 3.16.426 6.833 3.387 9.74 3.424a3.2 3.2 0 0 0 1.226-.229c2.536-1.135 3.016-3.022 2.988-5.157-.004-.994-.082-2.072-.082-3.245-.002-3.977.802-5.842.806-9.148-.048-4.086-4.756-6.483-4.768-6.516l-.077-.038-.081-.006c-.013-.003-6.446-.269-10.98-1.071-7.659-1.297-11.465-5.897-20.224-6.19q-.58-.02-1.138-.02c-6.998.009-12.083 2.346-12.95 6.205-1.087 3.807-1.09 6.262-1.09 6.289v.316l.31.051c0 .013 1.529.266 2.453 1.2.08.109.091.17.091.21.04.084-.242.375-.67.548-.402.182-.817.274-.817.274l-.29.064v.295c-.004.008-.004 4.564-.533 7.477-.5 3.058-3.1 5.432-3.11 5.43l-.318.288.33.274c-.003.006.95.88.897 1.333-.002.107-.025.175-.152.31-.365.465-.518.456-.909.573-.391.096-.94.306-1.51 1.043-.256.35-.306.777-.312 1.238.006 1.1.353 2.53.35 3.561.006.535-.105.923-.273 1.077l-.062.064-.027.085c-.357 1.292-2.656 1.658-4.675 2.483-1.941 1.122-3.813 2.968-5.786 3.454-2.124.363-2.436 2.01-3.815 2.164-1.243.357-4.913.869-7.968.866-1.335 0-2.561-.098-3.389-.326-2.657-.801-3.946-1.579-3.95-1.582l-.086-.052h-.104c0-.005 0 .003-.07-.013a1.7 1.7 0 0 1-.35-.12c-.323-.148-.824-.456-1.47-1.1-.656-.657-.805-1.459-.805-2.066-.003-.48.091-.802.091-.804l.073-.249-.211-.154c-.003 0-1.885-1.34-2.74-1.91-.508-.274-.558-.46-.575-.76-.005-.23.085-.537.196-.87.284-.34.351-.778.354-1.224 0-.656-.166-1.38-.314-1.978-.334-2.165-2.43-2.991-5.118-3.803-1.734-.45-2.428-.633-2.409-1.533 0-.295.074-.695.245-1.206.923-2.451 1.51-2.588 1.68-2.57.1-.004.2.048.435.058.228.035.539-.222.587-.486.262-1.054.525-1.77.716-2.225l.934 1.867.35-.233c.003.01.131-.095.566-.219.436-.124 1.14-.255 2.186-.255 1.229-.002 2.296-.482 2.31-1.578-.004-.61-.325-1.256-.951-1.997-1.4-1.59-2.528-2.887-3.81-2.935-.232 0-.463.051-.674.156l-.055.03-.04.04a6.1 6.1 0 0 0-1.15 1.586c-.305-.546-.686-1.361-.675-2.02 0-.108.007-.21.03-.301l.007-.034v-.044c0-.55-.022-1.13-.022-1.68-.003-.682.038-1.313.17-1.72.156-.417.265-.52.557-.533.324 0 .64.016.948.016.893.06 1.933-.292 2.093-1.616.18-.544.247-1.086.247-1.61-.003-1.163-.328-2.246-.504-3.153l-.013-.05-.018-.043c-.113-.22-.147-.378-.144-.465.01-.152.038-.174.204-.26.163-.071.427-.1.623-.1.173 0 .288.013.288.013l.502.056-.097-.495c-.006-.024-.279-1.402-1.15-2.85-.21-.26-.255-.431-.253-.514-.01-.118.109-.245.353-.36a1.9 1.9 0 0 1 .472-.142l.641-.09-.407-.51c.009-.007-.339-.448-.326-.857.011-.25.071-.475.472-.729.278-.14.51-.187.706-.187.753-.03 1.216.82 1.216.826l.703-.166c.02 0-.007-.02.048-.111.059-.09.171-.23.48-.335q.121-.031.296-.032c.914-.014 2.385.79 2.388.8l.554.32v-.642c0-.018 0-1.913-.543-6.51-1.23-8.923-3.613-9.574-10.033-9.46-6.317-.268-9.703-3.66-12.679-6.362a5.81 5.81 0 0 1-1.887-4.285c.005-1.902.937-3.687 2.852-4.51.484-.194.893-.271 1.24-.271 2.288-.103 2.684 3.82 3.74 5.296 1.012 1.023 2.138 1.922 3.873 1.917 1.035 0 2.26-.308 3.819-1.039 3.645-1.837 10.41-2.658 11.4-2.651.225-.117 1.426 1.363 2.195 2.901.83 1.529 1.497 3.062 1.5 3.064l.156.358.35-.175c.055-.027 1.176-.607 2.825-2.804 1.39-1.955 2.46-4.921 2.467-4.933l.047-.13-.05-.132c0-.01-1.874-4.824-2.404-8.819-.864-3.942-4.14-6.395-5.606-6.993l-.063-.025h-.074c-1.597.02-2.753.86-4.99.851-.282 0-.578-.013-.82-.03-1.212-.381-1.486-.799-1.493-1.257-.017-.563.547-1.472 1.399-2.452.579-.75 3.281-1.31 6.103-1.518 2.836-.233 5.856-.236 7.331-.236 1.025-.044 2.113 1.343 3.1 3.36.997 1.993 1.938 4.486 3.02 6.38 1.971 4.189 8.17 8.729 8.186 8.752l.24.178.226-.197c.01.006.876-.775 2.817-1.577s4.92-1.61 9.06-1.61q.885 0 1.846.05c9.458.507 16.415 9.271 18.853 12.266 2.844 2.824 7.22 2.791 7.258 2.801h.313l.051-.312c.017-.01 1.327-8.108 8.83-9.11 7.95-1.039 8.443-5.18 9.443-9.12.95-2.697 1.66-3.402 1.687-4.632 0-.455-.117-.926-.33-1.502-.632-2.412-3.241-3.236-5.201-3.236-.807.002-1.558.172-2.214.172z" style="fill:#f6d304;fill-opacity:1;fill-rule:nonzero;stroke:none" transform="matrix(1.33333 0 0 -1.33333 -49.95 1023.13)"></path><path d="M165.562 429.145s.538.27 2.152-.268c.806-.272 1.074-.81 1.074-.81s-2.688-.536-3.226-.536c-.539-.27 0 1.614 0 1.614M169.597 392.558c4.034.81 5.647 2.69 6.455 4.035 1.074 1.078 2.42 1.614 2.42 1.614s0-3.499 1.344-4.035c1.616-.27 1.883 2.42 1.883 2.42s4.035-4.034 6.993-4.573c2.69-.806 4.036 0 4.036 0s-2.96.539-4.036 3.229c-.805 2.69-.267 4.573-2.42 5.11-2.42.809-2.69-2.96-3.765-2.42-1.614.539-2.69 4.573-4.034 4.305-1.347-.537-1.077-3.766-2.421-3.766-1.614 0-3.767 6.187-5.112 5.918-1.343 0 .539-5.65-.267-5.65-1.076-.268-2.96-2.152-.538-2.152 2.42 0-.538-4.035-.538-4.035M192.728 406.28c1.344-1.616 2.42-2.962 2.152-5.113 0-1.884-.808-2.69 1.345-4.574 2.152-1.614 5.11-3.226 6.723-2.421 1.614.536.808 2.152.808 2.152l2.42-1.345s.268 1.614-1.076 3.228c-1.614 1.614-2.152 0-2.69-.536-.538-.541.538-1.885-.538-1.885-1.074.27-4.571 2.151-4.571 3.228-.27 1.075-.27 3.767-1.614 5.65-1.345 1.882-2.96 1.616-2.96 1.616M172.555 429.145s.538.807 2.15 1.343c1.885.809 1.347-1.074 3.23-1.883 1.881-.807 3.764 1.883 5.647.81 1.884-1.348 4.573-3.498 4.305-4.307-.27-.805 2.688.538-1.885 4.306-1.612 1.074-3.765 2.689-5.11 2.689-1.076-.268-2.152-1.883-3.496-.806-1.614 1.344-2.152 1.076-3.228.538-1.075-.81-1.613-2.69-1.613-2.69M197.3 428.067c-1.075-.27-2.69-1.881-1.882-2.959.807-1.343 2.42-2.69.807-3.765-1.077-1.078-1.615-4.036-.538-4.841 1.076-1.077 2.42.535 2.69 1.883.268 1.344-.27 2.958.806 2.69 1.615-.54 2.69-.271 1.615 2.148-1.347 2.155-.809 0-1.615.274-1.344.806-1.077 1.88-1.077 3.226 0 1.344-.805 1.344-.805 1.344M177.396 424.303c-.806-1.08 1.344-3.5 1.882-4.304 1.345-2.156 1.615-1.346 1.076-3.232-.538-1.609-1.881-1.609-2.958-2.42-1.344-.806-2.152-2.15-1.076-3.765 1.344-1.88 1.344-1.346.27-2.96-1.076-1.076-1.885-2.152-1.885-2.152s.54-1.075 2.153 0c1.344.81 1.882 3.231 2.69 4.303 1.075 1.347 2.42-.266 2.959-2.419.537-2.15 1.883-1.884 2.42-.539.539 1.616 1.344 2.692-.537 4.305-1.883 1.348-4.574 2.96-3.767 3.228.538.81 1.076 1.885 2.152 1.885 1.077.269 1.077 1.074 1.345 1.881.27 1.076 1.882.27 2.69-1.347 1.077-1.342-.27-3.496.807-2.688 1.075.269 1.882 1.346 1.075 2.958-.805 1.616-2.958 4.306-4.035 4.038-1.075 0-4.034-2.151-3.764 0 .806 1.881 2.959 2.422.806 3.495-2.42.808-3.764.538-4.303-.267M162.064 369.69c1.616.272 4.036.54 5.38-.536 1.076-1.078 1.615-1.346 2.958.536 1.077 1.617 2.153 3.498 4.035 4.846 2.96 1.88 6.186 0 6.456-1.616 2.15-9.953-2.958-1.077-3.767-1.346-.806-.536-2.15-2.69-2.958-4.571-.807-1.617-.807-3.498-4.571-2.423-2.421.806-3.497 0-6.188 1.885-3.497 2.42-8.338 1.343-8.338 1.343s2.96 1.346 6.993 1.882M179.548 344.676c.537 1.073 1.613 2.15 2.42 5.108.807 2.96 2.422 4.845 4.572 7.266 1.885 2.151 1.885 3.763 4.035 4.84 2.153 1.077 1.614 1.882 4.843 2.152 3.495.269 5.38.538 7.262-.537 1.882-.81.806-1.614 3.764-1.885 2.69-.807 5.38-.268 8.34 2.152 2.689 2.693 6.186 1.886 7.799 4.843 1.884 2.692 1.346 5.11 4.304 5.65 2.959.271 6.186 1.346 8.877 1.078 3.226 0 4.572-.807 2.688-1.886-1.612-1.342-.806-.806-5.379-1.614-4.303-.536-4.303-3.228-8.068-6.457-3.767-2.957-5.917-6.457-12.372-7.802-5.38-1.342-9.415 0-14.527 2.423 0 0-2.42 2.153-6.993-2.957-2.688-2.963-3.226-3.498-5.379-7.533-1.344-2.961-1.882-6.998-4.035-7.53-4.303-.54-6.723.532-6.723.532s2.959 0 4.572 2.157M260.509 363.772c1.883-1.343 2.42-2.42 3.497-4.57.806-2.152 2.69-1.078 1.613-4.573-.537-2.155-1.346-3.23-1.883-5.112-.539-1.886-1.344-2.422.537-1.886 1.883.271 2.96-1.075 4.574 1.345 1.344 2.692 1.882 2.962 2.69 8.343 1.075 4.841.268 7.53-1.076 7.261-2.958-1.075-2.69-6.726-3.496-5.111-1.614 2.96-6.456 4.303-6.456 4.303M252.44 398.477s1.881-.27 3.228-1.079c1.344-.805 1.344-1.342 1.344-1.342s1.076 1.074 1.344 1.615c0 .536-1.344 1.074-2.42 1.074-1.344 0-3.497-.268-3.497-.268M220.7 430.22s.538-2.422 1.346-4.034l1.883-3.768-1.076-1.343s2.959-2.422 4.84-2.422c1.615 0 4.306.537 4.842 1.346.538.805-2.959.266-4.034 1.076-1.346.806-.808 3.495-.808 3.495s-1.076-1.073-2.42.538c-1.344 1.885 2.153 2.96 2.153 2.96s-2.153 3.229-3.229 3.767-.806-2.958-.806-2.958z" style="fill:#b58549;fill-opacity:1;fill-rule:nonzero;stroke:none" transform="matrix(1.33333 0 0 -1.33333 -49.95 1023.13)"></path><path d="M207.22 546.77c-14.13-1.62-20.171-10.376-23.093-13.569-3.978-4.24-3.491-4.53-12.565-12.378a64 64 0 0 0-.028 1.837c0 5.297.62 10.536 1.085 17.416 1.086-.51 2.454-.807 3.859-.81h.077c2.931 0 6.11 1.44 6.57 5.214 3.514.767 5.143 2.307 5.147 4.218-.029 1.318-.776 2.684-1.99 3.965.618-.122 1.269-.199 1.953-.199.773 0 1.587.094 2.439.305 2.366.758 4.407 3.887 4.428 7.107.006 2.029-.865 4.116-3.047 5.548.1.92.148 1.76.148 2.53-.003 2.192-.384 3.793-1.106 4.882-.72 1.094-1.817 1.628-3.044 1.62-.797-.01-1.66-.225-2.56-.604.109.397.194.833.194 1.355 0 .339-.036.714-.118 1.127-.245 3.025-3.59 7.363-7.69 7.415-1.235 0-2.525-.422-3.753-1.4-2.065.987-3.772 1.432-5.179 1.434-1.725.007-3.01-.704-3.794-1.857-.468-.682-.757-1.516-.926-2.428-1.355.689-3.04 1.097-4.738 1.099-3.431-.006-6.981-1.715-6.989-6.076q.001-.365.037-.751c-3.16-1.95-4.525-4.216-4.523-6.447.005-2.212 1.318-4.267 3.26-5.91-1.079-.286-2.149-.856-3.17-1.83-.829-.823-1.213-1.922-1.21-3.097.015-3.469 3.223-7.72 8.671-9.044.705-3.725 3.069-5.483 5.671-5.483h.04c1.43.002 2.914.502 4.257 1.401.774-7.09 1.108-12.448 1.108-17.596 0-1.372-.024-2.732-.069-4.108-7.73 7.009-7.533 7.33-11.49 11.548-2.918 3.19-8.959 11.946-23.09 13.566l-.967.111.65-.726c6.883-7.572 4.419-20.266 12.985-25.888 3.767-2.375 7.55-3.257 11.313-3.257 3.454.002 6.886.738 10.302 1.726q-.047-3.848-.8-9.136l-.044-.294.279-.104a3.3 3.3 0 0 1 1.186-.21c1.341.014 2.493.655 3.558.641.456-.002.894-.1 1.378-.399l.667-.419-.104.783c-.5 3.738-.533 6.787-.755 9.387 3.81-1.158 7.641-2.041 11.458-2.041 3.852 0 7.696.905 11.455 3.32 8.567 5.625 6.102 18.319 12.987 25.891l.652.728z" style="fill:#000;fill-opacity:1;fill-rule:nonzero;stroke:none" transform="matrix(1.33333 0 0 -1.33333 -49.95 1023.13)" data-source="https://football-logos.cc"></path><path d="m182.71 545.151-.269-.056-.026-.276c-.317-3.549-3.095-4.787-5.937-4.813-1.789-.005-3.547.544-4.49 1.307-2.272 1.885-2.98 3.596-2.987 5.45-.005 1.748.674 3.66 1.447 5.845.236.022.47.077.683.197 3.25 2.164 4.864 3.242 6.197 4.04l.128.077.007.024c5.36-1.6 10.147-5.518 10.07-8.248.004-1.43-1.218-2.793-4.822-3.547z" style="fill:#ed1c24;fill-opacity:1;fill-rule:nonzero;stroke:none" transform="matrix(1.33333 0 0 -1.33333 -49.95 1023.13)"></path><path d="M163.652 557.468c-.339.438-.46.822-.462 1.2-.104 1.923 3.714 4.072 4.588 6.89.607.471 1.769.757 3 .751 2.174.022 4.442-.878 4.65-2.223.472-1.87 1.47-4.037 1.462-5.842a4.3 4.3 0 0 0-.081-.848c-1.33-.804-2.945-1.88-6.063-3.958a1 1 0 0 0-.472-.11c-1.602-.07-4.576 3.251-6.622 4.14" style="fill:#bc1f25;fill-opacity:1;fill-rule:nonzero;stroke:none" transform="matrix(1.33333 0 0 -1.33333 -49.95 1023.13)"></path><path d="M191.46 567.953q.002-1.198-.165-2.678l-.03-.233.203-.124c2.11-1.314 2.885-3.159 2.892-5.042.02-2.905-1.986-5.839-3.882-6.393a9.3 9.3 0 0 0-2.243-.277c-1.124 0-2.154.211-3.1.518-1.979 1.653-4.688 3.079-7.535 3.95q.03.283.03.57c-.006 1.99-.984 4.117-1.435 5.843 3.945 5.834 8.83 9.666 11.858 9.627 1.99-.011 3.367-1.514 3.408-5.76" style="fill:#ed1c24;fill-opacity:1;fill-rule:nonzero;stroke:none" transform="matrix(1.33333 0 0 -1.33333 -49.95 1023.13)"></path><path d="M168.947 583.04c1.292.002 2.97-.432 5.068-1.46l.215-.106.185.155c1.175.988 2.342 1.377 3.465 1.377 3.535.052 6.8-4.12 6.957-6.771.079-.417.11-.74.11-1.028 0-.697-.172-1.212-.361-1.785h.003c-2.815-1.498-5.93-4.537-8.703-8.486-.838 1.495-3.09 2.099-5.109 2.115-.921-.003-1.8-.147-2.54-.433-2.016 3.065-3.459 7.453-3.455 10.912.04 3.264 1.163 5.496 4.165 5.51z" style="fill:#ed1c24;fill-opacity:1;fill-rule:nonzero;stroke:none" transform="matrix(1.33333 0 0 -1.33333 -49.95 1023.13)"></path><path d="M148.756 567.323c0 1.947 1.185 4.02 4.363 5.93l.205.126-.028.236a8 8 0 0 0-.054.906c.012 3.862 2.994 5.301 6.247 5.335 1.672 0 3.36-.43 4.614-1.122q-.06-.585-.061-1.205c.004-3.628 1.46-8.049 3.533-11.246-.122-.075-.258-.14-.364-.229l-.089-.079-.028-.114c-.5-2.287-4.015-4.225-4.572-6.661-2.71.321-6.015 2.424-9.435 2.444a8 8 0 0 1-.86-.054c-2.109 1.62-3.479 3.675-3.471 5.733M156.253 547.81l-.043.245-.241.053c-5.3 1.17-8.35 5.316-8.333 8.378 0 1.02.321 1.904.984 2.566 1.47 1.388 2.947 1.844 4.467 1.848 3.134.021 6.392-2.069 9.382-2.438.046-.513.254-1.035.663-1.535l.063-.077.094-.035c1.632-.565 4.216-3.578 6.4-4.133-.67-1.9-1.282-3.639-1.404-5.34l-.079.042c-1.603-2.939-4.453-4.692-6.93-4.685-2.323.019-4.368 1.448-5.023 5.111" style="fill:#ed1c24;fill-opacity:1;fill-rule:nonzero;stroke:none" transform="matrix(1.33333 0 0 -1.33333 -49.95 1023.13)"></path><path d="M170.454 510.374c-1.327-.014-2.476-.655-3.558-.642-.215 0-.43.022-.645.076.512 3.645.768 6.782.768 9.423v.497l-.477-.14c-3.544-1.05-7.067-1.835-10.57-1.835-3.646 0-7.27.844-10.912 3.137-7.863 4.981-5.864 16.98-12.22 25.024 13.175-1.87 18.772-10.02 21.7-13.212 4.018-4.286 3.786-4.597 12.127-12.132l.59-.532.028.795c.064 1.657.099 3.284.099 4.93 0 5.29-.35 10.786-1.161 18.116a10.5 10.5 0 0 1 2.068 2.253c.16-1.844 1.078-3.632 3.23-5.395a5 5 0 0 1 .383-.27c-.463-7.03-1.11-12.36-1.11-17.807 0-.875.016-1.75.054-2.637v-.019l-.054.017.056-.555c.254-2.512.268-5.542.722-9.284a3.2 3.2 0 0 1-1.118.192" style="fill:#00a650;fill-opacity:1;fill-rule:nonzero;stroke:none" transform="matrix(1.33333 0 0 -1.33333 -49.95 1023.13)"></path><path d="M194.152 520.89c-3.637-2.336-7.315-3.203-11.053-3.203-3.815-.002-7.692.912-11.588 2.114 9.634 8.298 9.159 8.632 13.158 12.896 2.933 3.197 8.53 11.347 21.703 13.217-6.354-8.044-4.356-20.043-12.22-25.024" style="fill:#00a650;fill-opacity:1;fill-rule:nonzero;stroke:none" transform="matrix(1.33333 0 0 -1.33333 -49.95 1023.13)"></path><path d="M286.161 546.77c-14.13-1.62-20.172-10.376-23.094-13.569-3.977-4.24-3.49-4.53-12.564-12.378a64 64 0 0 0-.027 1.837c0 5.297.62 10.536 1.084 17.416 1.086-.51 2.454-.807 3.858-.81h.077c2.93 0 6.11 1.44 6.57 5.214 3.514.767 5.144 2.307 5.148 4.218-.03 1.318-.776 2.684-1.991 3.965.619-.122 1.268-.199 1.954-.199.772 0 1.587.094 2.44.305 2.364.758 4.405 3.887 4.425 7.107.007 2.029-.863 4.116-3.046 5.548.1.92.148 1.76.148 2.53-.002 2.192-.382 3.793-1.106 4.882-.718 1.094-1.816 1.628-3.045 1.62-.796-.01-1.659-.225-2.56-.604.11.397.197.833.195 1.355 0 .339-.035.714-.117 1.127-.245 3.025-3.59 7.363-7.69 7.415-1.236 0-2.525-.422-3.754-1.4-2.066.987-3.771 1.432-5.178 1.434-1.725.007-3.01-.704-3.795-1.857-.468-.682-.756-1.516-.925-2.428-1.356.689-3.04 1.097-4.74 1.099-3.43-.006-6.98-1.715-6.987-6.076q0-.365.036-.751c-3.159-1.95-4.524-4.216-4.522-6.447.004-2.212 1.318-4.267 3.258-5.91-1.077-.286-2.148-.856-3.17-1.83-.826-.823-1.212-1.922-1.21-3.097.018-3.469 3.226-7.72 8.672-9.044.706-3.725 3.07-5.483 5.672-5.483h.04c1.43.002 2.915.502 4.257 1.401.774-7.09 1.108-12.448 1.108-17.596 0-1.372-.023-2.732-.068-4.108-7.732 7.009-7.535 7.33-11.49 11.548-2.919 3.19-8.962 11.946-23.091 13.566l-.966.111.647-.726c6.884-7.572 4.42-20.266 12.986-25.888 3.767-2.375 7.551-3.257 11.313-3.257 3.454.002 6.887.738 10.302 1.726q-.046-3.848-.801-9.136l-.042-.294.278-.104c.403-.154.804-.21 1.187-.21 1.34.014 2.492.655 3.557.641.456-.002.894-.1 1.378-.399l.667-.419-.104.783c-.498 3.738-.532 6.787-.755 9.387 3.81-1.158 7.642-2.041 11.459-2.041 3.852 0 7.695.905 11.454 3.32 8.567 5.625 6.103 18.319 12.986 25.891l.654.728z" style="fill:#000;fill-opacity:1;fill-rule:nonzero;stroke:none" transform="matrix(1.33333 0 0 -1.33333 -49.95 1023.13)"></path><path d="m261.652 545.151-.27-.056-.027-.276c-.317-3.549-3.095-4.787-5.937-4.813-1.79-.005-3.547.544-4.49 1.307-2.273 1.885-2.98 3.596-2.987 5.45-.004 1.748.674 3.66 1.448 5.845.236.022.47.077.682.197 3.251 2.164 4.865 3.242 6.198 4.04l.128.077.006.024c5.36-1.6 10.148-5.518 10.07-8.248.005-1.43-1.217-2.793-4.82-3.547z" style="fill:#ed1c24;fill-opacity:1;fill-rule:nonzero;stroke:none" transform="matrix(1.33333 0 0 -1.33333 -49.95 1023.13)"></path><path d="M242.592 557.468c-.337.438-.46.822-.461 1.2-.105 1.923 3.714 4.072 4.588 6.89.607.471 1.768.757 2.998.751 2.177.022 4.443-.878 4.652-2.223.472-1.87 1.47-4.037 1.46-5.842q.001-.44-.08-.848c-1.33-.804-2.944-1.88-6.062-3.958a1 1 0 0 0-.472-.11c-1.603-.07-4.575 3.251-6.623 4.14" style="fill:#bc1f25;fill-opacity:1;fill-rule:nonzero;stroke:none" transform="matrix(1.33333 0 0 -1.33333 -49.95 1023.13)"></path><path d="M270.401 567.953q.001-1.198-.167-2.678l-.028-.233.202-.124c2.11-1.314 2.885-3.159 2.892-5.042.021-2.905-1.986-5.839-3.882-6.393a9.3 9.3 0 0 0-2.242-.277c-1.124 0-2.154.211-3.1.518-1.98 1.653-4.688 3.079-7.536 3.95q.03.283.031.57c-.007 1.99-.984 4.117-1.434 5.843 3.943 5.834 8.829 9.666 11.855 9.627 1.991-.011 3.37-1.514 3.41-5.76" style="fill:#ed1c24;fill-opacity:1;fill-rule:nonzero;stroke:none" transform="matrix(1.33333 0 0 -1.33333 -49.95 1023.13)"></path><path d="M247.888 583.04c1.292.002 2.97-.432 5.067-1.46l.216-.106.184.155c1.175.988 2.342 1.377 3.465 1.377 3.534.052 6.801-4.12 6.956-6.771.08-.417.11-.74.11-1.028 0-.697-.17-1.212-.36-1.785h.003c-2.814-1.498-5.93-4.537-8.703-8.486-.838 1.495-3.09 2.099-5.11 2.115-.92-.003-1.797-.147-2.538-.433-2.017 3.065-3.46 7.453-3.455 10.912.04 3.264 1.163 5.496 4.165 5.51z" style="fill:#ed1c24;fill-opacity:1;fill-rule:nonzero;stroke:none" transform="matrix(1.33333 0 0 -1.33333 -49.95 1023.13)"></path><path d="M227.696 567.323c0 1.947 1.187 4.02 4.365 5.93l.203.126-.028.236q-.053.479-.053.906c.011 3.862 2.994 5.301 6.246 5.335 1.673 0 3.36-.43 4.614-1.122q-.06-.585-.06-1.205c.003-3.628 1.46-8.049 3.532-11.246-.121-.075-.257-.14-.363-.229l-.09-.079-.028-.114c-.499-2.287-4.015-4.225-4.571-6.661-2.711.321-6.016 2.424-9.435 2.444a8 8 0 0 1-.86-.054c-2.108 1.62-3.478 3.675-3.472 5.733M235.193 547.81l-.042.245-.242.053c-5.3 1.17-8.35 5.316-8.333 8.378 0 1.02.322 1.904.985 2.566 1.47 1.388 2.947 1.844 4.467 1.848 3.133.021 6.392-2.069 9.38-2.438.046-.513.254-1.035.664-1.535l.064-.077.093-.035c1.631-.565 4.217-3.578 6.4-4.133-.67-1.9-1.28-3.639-1.402-5.34l-.08.042c-1.603-2.939-4.454-4.692-6.93-4.685-2.323.019-4.368 1.448-5.024 5.111" style="fill:#ed1c24;fill-opacity:1;fill-rule:nonzero;stroke:none" transform="matrix(1.33333 0 0 -1.33333 -49.95 1023.13)"></path><path d="M249.395 510.374c-1.329-.014-2.476-.655-3.558-.642-.217 0-.43.022-.646.076.511 3.645.768 6.782.768 9.423v.497l-.477-.14c-3.544-1.05-7.067-1.835-10.569-1.835-3.645 0-7.27.844-10.913 3.137-7.862 4.981-5.863 16.98-12.219 25.024 13.174-1.87 18.772-10.02 21.698-13.212 4.019-4.286 3.788-4.597 12.128-12.132l.59-.532.029.795c.063 1.657.098 3.284.098 4.93 0 5.29-.35 10.786-1.161 18.116a10.5 10.5 0 0 1 2.068 2.253c.16-1.844 1.079-3.632 3.23-5.395.118-.094.25-.183.384-.27-.464-7.03-1.11-12.36-1.11-17.807 0-.875.016-1.75.053-2.637l.001-.019-.055.017.057-.555c.254-2.512.268-5.542.722-9.284a3.2 3.2 0 0 1-1.119.192z" style="fill:#00a650;fill-opacity:1;fill-rule:nonzero;stroke:none" transform="matrix(1.33333 0 0 -1.33333 -49.95 1023.13)"></path><path d="M273.092 520.89c-3.636-2.336-7.315-3.203-11.053-3.203-3.814-.002-7.691.912-11.588 2.114 9.634 8.298 9.16 8.632 13.16 12.896 2.931 3.197 8.528 11.347 21.701 13.217-6.354-8.044-4.356-20.043-12.22-25.024" style="fill:#00a650;fill-opacity:1;fill-rule:nonzero;stroke:none" transform="matrix(1.33333 0 0 -1.33333 -49.95 1023.13)" data-source="https://football-logos.cc"></path><!-- source: https://football-logos.cc --></svg>