<svg xmlns="http://www.w3.org/2000/svg" viewBox="1.7 2.11 312 312"><!-- Source: https://football-logos.cc --><circle cx="157.704" cy="158.107" r="156" style="display:inline;fill:#fff;fill-opacity:1;stroke-width:16.8616;paint-order:markers fill stroke" data-source="https://football-logos.cc"></circle><path fill="#f08b22" fill-rule="evenodd" d="M157.702 2.283c76.094-.012 141.889 55.208 153.969 130.809a.244.237-4.834 0 1-.241.278h-66.41a.68.673-8.038 0 1-.651-.485c-11.35-38.501-46.579-64.969-86.657-64.963s-75.298 26.486-86.636 64.99a.68.673 8.02 0 1-.651.486l-66.41.02a.244.237 4.815 0 1-.242-.277C15.83 57.536 81.608 2.295 157.702 2.283m.035 59.978q18.261.001 33.578 6.027Q233.49 84.88 248.94 128.11a.52.52 4.379 0 0 .49.35h55.71a.297.295 84.352 0 0 .289-.354C291.697 58.287 229.255 7.44 157.741 7.435S23.777 58.267 10.034 128.083a.297.295-84.343 0 0 .29.355l55.71.008a.52.52-78.213 0 0 .49-.35q15.456-43.227 57.634-59.813 15.318-6.024 33.579-6.022"></path><path fill="#0d924a" fill-rule="evenodd" d="M157.741 7.435c71.514.005 133.956 50.852 147.688 120.671a.297.295 84.352 0 1-.289.354h-55.71a.52.52 25.096 0 1-.49-.35q-15.45-43.23-57.625-59.822-15.317-6.026-33.578-6.027t-33.579 6.022Q81.98 84.869 66.524 128.096a.52.52 88.007 0 1-.49.35l-55.71-.008a.297.295-84.343 0 1-.29-.355C23.777 58.267 86.227 7.429 157.741 7.435m.78 24.866c-1.258 9.16 1.168 19.374 11.925 20.851s15.846-7.704 17.104-16.865-1.168-19.373-11.925-20.85-15.846 7.704-17.104 16.864m-12.402 3.452q3.893-2.129 4.779-4.231c2.851-6.806-.576-16.738-9.577-15.652q-7.532.902-15.107 1.999a.471.465-8.467 0 0-.395.524l5.048 35.682a.427.421-8.033 0 0 .486.361l5.172-.735a.507.499 82.691 0 0 .427-.563l-1.988-14.061a.609.605-12.383 0 1 .429-.666q4.323-1.269 7.019 2.361.499.68 8.005 10.751a.377.361 66.223 0 0 .355.147l6.813-.958a.166.16 69.642 0 0 .109-.249q-3.997-6.089-8.397-11.496c-.876-1.07-2.598-1.852-3.274-2.484a.452.45-37.596 0 1 .096-.73m52.856 24.373q2.232.901 2.564.991a.879.875-63.297 0 0 .921-.307l23.24-29.39a.213.21-60.684 0 0-.09-.33l-5.69-2.21a.342.337-59.923 0 0-.4.11q-8.3 10.78-16.403 21.485-.121.16-.284.094t-.139-.265q1.602-13.33 3.114-26.85a.342.337-76.102 0 0-.211-.357l-5.629-2.361a.213.21-75.341 0 0-.294.175l-3.683 37.287a.879.875-72.728 0 0 .45.861q.301.166 2.534 1.067m-92.015-14.5-2.568-4.462a.576.576 61.933 0 0-.787-.205l-12.16 7.072a.57.57-25.96 0 1-.774-.212l-3.465-6.057a.58.58 16.562 0 1 .219-.793l13.163-7.597a.554.554 77.842 0 0 .204-.756l-2.605-4.477a.53.53-1.643 0 0-.725-.203L78.813 38.682a.418.412-30.247 0 0-.155.572l18.011 31.139a.454.446 60.043 0 0 .609.17l19.102-11.032a.51.51 52.8 0 0 .183-.7l-2.635-4.509a.54.54-32.267 0 0-.738-.198l-13.716 7.952a.476.476 69.461 0 1-.65-.174l-4.493-7.811a.49.49 11.058 0 1 .182-.668l12.225-6.994a.596.588-29.901 0 0 .222-.803m120.401 12.037a.45.45-12.635 0 1 .632-.073l11.284 8.93a.45.45 44.473 0 0 .632-.074l3.323-4.213a.45.45 23.966 0 0-.075-.632l-11.144-8.812a.45.45 40.997 0 1-.074-.632l4.472-5.654a.45.45-14.273 0 1 .632-.074l12.194 9.642a.45.45 44.963 0 0 .632-.074l3.362-4.254a.45.45 14.891 0 0-.074-.632l-17.084-13.502a.45.45-53.408 0 0-.632.074l-22.312 28.214a.45.45-83.309 0 0 .074.632l17.224 13.622a.45.45 57.213 0 0 .632-.074l3.312-4.184a.45.45-73.621 0 0-.074-.632l-12.474-9.862a.45.45 79.572 0 1-.074-.632zM63.045 50.289a.32.32-30.129 0 0-.095.27l2.42 19.17a.32.32-42.663 0 1-.547.263l-10.5-10.832a.32.32 49.127 0 0-.453-.007l-3.961 3.844a.32.32 25.55 0 0-.006.453l25.174 25.98a.32.32-2.289 0 0 .453.007l3.951-3.834a.32.32-32.596 0 0 .007-.453l-7.294-7.533a.32.32 57.576 0 1-.087-.183l-.95-7.531a.32.32 35.461 0 1 .434-.338l17.338 6.741a.32.32 18.003 0 0 .338-.069l5.301-5.127a.32.32-11.677 0 0-.124-.534l-23.261-7.553a.32.32 59.893 0 1-.218-.265L68.79 45.436a.32.32 42.289 0 0-.54-.19zM257.5 86.22q3.78 2.31 6.04 2.03c7.31-.92 14.2-8.83 8.78-16.08q-4.53-6.07-9.25-12.08a.47.464 51.629 0 0-.65-.08l-28.37 22.13a.426.42 52.063 0 0-.07.6l3.21 4.11a.506.498-37.214 0 0 .7.09l11.18-8.72a.608.604 47.712 0 1 .79.04q3.25 3.11 1.45 7.25-.34.77-5.32 12.28a.376.361-53.681 0 0 .05.38l4.22 5.42a.166.16-50.263 0 0 .27-.03q3.28-6.49 5.77-12.99c.49-1.29.31-3.17.52-4.07a.451.449 22.5 0 1 .68-.28M71.902 95.176a.46.46 0 0 0-.112-.641L42.369 73.858a.46.46 0 0 0-.641.112l-2.99 4.254a.46.46 0 0 0 .112.641l29.421 20.677a.46.46 0 0 0 .641-.112zM59.61 115.81l-11.42-5.82a.645.638 28.6 0 1-.27-.9q2.73-4.71 3.76-8.15c1.78-5.95-3.63-10.86-8.8-12.61q-8.86-3-12.79 5.31-.34.73-5.5 10.73a.447.438 27.994 0 0 .19.6l32.08 16.34a.44.44 75.572 0 0 .59-.19l2.37-4.65a.497.488-63.175 0 0-.21-.66m199.93-17.84c-7.81 5.06-8.96 12.1-3.59 19.58 4.73 6.58 13.85 4.57 18.49-.9 2.86-3.37 2.02-8.85 1.29-13.38-.29-1.81-.34-4.21 1.43-5.41 4.33-2.94 9.37 6.43 4.15 9.4q-.28.16-.5.36a.487.476 58.397 0 0-.12.53l1.86 4.64a.785.775 64.784 0 0 1.09.4q5.57-2.97 6.23-7.76c1-7.12-5.19-16.34-13.52-13.6q-8.72 2.87-7.95 11.97c.28 3.39 1.3 7.79.1 9.65-1.6 2.48-5.24 2.52-7.25.31-3.06-3.38-2.64-8.22 1.44-10.31a.711.703-24.979 0 0 .33-.89l-1.6-3.99a1.281 1.277 62.613 0 0-1.88-.6"></path><path fill="#fff" fill-rule="evenodd" d="M175.625 15.437c10.757 1.477 13.183 11.69 11.925 20.85s-6.347 18.342-17.104 16.865-13.183-11.691-11.925-20.851 6.347-18.341 17.104-16.864m-10.78 17.629c-.818 5.826.05 12.78 6.446 13.679 6.397.898 9.147-5.547 9.966-11.373s-.05-12.78-6.446-13.679c-6.396-.898-9.147 5.547-9.966 11.373M146.119 35.753a.452.45-37.596 0 0-.096.73c.676.632 2.398 1.414 3.274 2.484q4.4 5.407 8.397 11.496a.166.16 69.642 0 1-.109.249l-6.813.958a.377.361 66.223 0 1-.355-.147q-7.506-10.071-8.005-10.751-2.696-3.63-7.019-2.361a.609.605-12.383 0 0-.429.666l1.988 14.061a.507.499 82.691 0 1-.427.563l-5.172.735a.427.421-8.033 0 1-.486-.361l-5.048-35.682a.471.465-8.467 0 1 .395-.524q7.575-1.097 15.107-1.999c9.001-1.086 12.428 8.846 9.577 15.652q-.886 2.102-4.779 4.231m-13.371-12.05 1.21 8.394a.39.39 69.416 0 0 .441.33l7.671-1.105a4.2 4.2 3.652 0 0 3.558-4.756l-.122-.852a4.2 4.2 2.014 0 0-4.757-3.558l-7.67 1.106a.39.39 63.085 0 0-.331.441M202.833 50.569q.163.066.284-.094Q211.22 39.77 219.52 28.99a.342.337-59.923 0 1 .4-.11l5.69 2.21a.213.21-60.684 0 1 .09.33l-23.24 29.39a.879.875-63.297 0 1-.921.307q-.332-.09-2.564-.991t-2.534-1.067a.879.875-72.728 0 1-.45-.861l3.683-37.287a.213.21-75.341 0 1 .294-.175l5.629 2.361a.342.337-76.102 0 1 .211.357q-1.512 13.52-3.114 26.85-.024.199.139.265"></path><path fill="#0d924a" fill-rule="evenodd" d="M174.811 21.693c6.396.899 7.264 7.853 6.446 13.679s-3.569 12.271-9.966 11.373-7.264-7.853-6.446-13.679 3.57-12.271 9.966-11.373M132.748 23.703a.39.39 62.11 0 1 .331-.441l7.67-1.106a4.2 4.2-46.37 0 1 4.757 3.558l.122.852a4.2 4.2 27.181 0 1-3.558 4.756l-7.671 1.105a.39.39-63.911 0 1-.441-.33z"></path><path fill="#fff" fill-rule="evenodd" d="M106.96 45.626a.596.588-29.901 0 1-.222.803l-12.225 6.994a.49.49-45 0 0-.182.668l4.493 7.811a.476.476 59.338 0 0 .65.174l13.716-7.952a.54.54-54.494 0 1 .738.198l2.635 4.509a.51.51 84.017 0 1-.183.7L97.278 70.563a.454.446 60.043 0 1-.609-.17L78.658 39.254a.418.412-30.247 0 1 .155-.572l18.649-10.746a.53.53 0 0 1 .725.203l2.605 4.477a.554.554 49.532 0 1-.204.756l-13.163 7.597a.58.58 19.547 0 0-.219.793l3.465 6.057a.57.57-31.777 0 0 .774.212l12.16-7.072a.576.576 74.384 0 1 .787.205zM227.361 57.663l-5.612 7.104a.45.45 71.051 0 0 .074.632l12.474 9.862a.45.45-25.536 0 1 .074.632l-3.312 4.184a.45.45 72.407 0 1-.632.074l-17.224-13.622a.45.45-17.083 0 1-.074-.632l22.312-28.214a.45.45-20.238 0 1 .632-.074l17.084 13.502a.45.45 73.285 0 1 .074.632l-3.362 4.254a.45.45 73.024 0 1-.632.074l-12.194-9.642a.45.45-51.311 0 0-.632.074l-4.472 5.654a.45.45 59.15 0 0 .074.632l11.144 8.812a.45.45 39.609 0 1 .075.632l-3.323 4.213a.45.45-3.462 0 1-.632.074l-11.284-8.93a.45.45-35.382 0 0-.632.073M63.045 50.289l5.205-5.043a.32.32-86.173 0 1 .54.19l2.175 17.322a.32.32 56.986 0 0 .218.265l23.261 7.553a.32.32-25.517 0 1 .124.534l-5.301 5.127a.32.32-3.103 0 1-.338.069l-17.338-6.741a.32.32 19.744 0 0-.434.338l.95 7.531a.32.32 12.056 0 0 .087.183l7.294 7.533a.32.32-47.57 0 1-.007.453l-3.951 3.834a.32.32-2.433 0 1-.453-.007L49.903 63.45a.32.32 78.674 0 1 .006-.453l3.961-3.844a.32.32 78.957 0 1 .453.007l10.5 10.832a.32.32 83.414 0 0 .547-.263l-2.42-19.17a.32.32 13.195 0 1 .095-.27M256.82 86.5c-.21.9-.03 2.78-.52 4.07q-2.49 6.5-5.77 12.99a.166.16-50.263 0 1-.27.03l-4.22-5.42a.376.361-53.681 0 1-.05-.38q4.98-11.51 5.32-12.28 1.8-4.14-1.45-7.25a.608.604 47.712 0 0-.79-.04l-11.18 8.72a.506.498-37.214 0 1-.7-.09l-3.21-4.11a.426.42 52.063 0 1 .07-.6l28.37-22.13a.47.464 51.629 0 1 .65.08q4.72 6.01 9.25 12.08c5.42 7.25-1.47 15.16-8.78 16.08q-2.26.28-6.04-2.03a.451.449 22.5 0 0-.68.28m4.416-17.817-6.635 5.184a.39.39-15.524 0 0-.067.548l4.722 6.044a4.16 3.82 52 0 0 5.571.926l1.229-.96a4.16 3.82 52 0 0 .449-5.63l-4.722-6.044a.39.39 47.855 0 0-.547-.068"></path><path fill="#0d924a" fill-rule="evenodd" d="M261.236 68.683a.39.39 86.954 0 1 .547.068l4.722 6.044a4.16 3.82 52 0 1-.449 5.63l-1.229.96a4.16 3.82 52 0 1-5.571-.926l-4.722-6.044a.39.39 2.405 0 1 .067-.548z"></path><path fill="#fff" fill-rule="evenodd" d="M68.912 99.43a.46.46 0 0 1-.641.112L38.85 78.865a.46.46 0 0 1-.112-.641l2.99-4.254a.46.46 0 0 1 .641-.112L71.79 94.535a.46.46 0 0 1 .112.641z"></path><path fill="rgba(29,31,30,1.00)" fill-rule="evenodd" d="M162.53 88.09q-.57 7.15-.24 14.66c.03.53.3 1.04.69 1.34q-.28.08-.47.31-.18.23-.17.53.08 2.46.01 5.15a.761.76 1.909 0 0 .73.78q10.67.47 20.68 4.36a.266.263-34.181 0 1-.1.51h-50.79a.32.319 35.016 0 1-.11-.62q13.58-4.91 27.27-4.38a.541.54 1.023 0 0 .56-.54V85.78a.941.937-61.319 0 1 1.73-.51q.65 1.03.21 2.82m-4.339 26.496q14.463-.018 18.644.225a.317.315 66.174 0 0 .215-.561q-.24-.19-.916-.36-7.997-2.027-17.947-2.015t-17.942 2.058q-.675.172-.915.362a.317.315-66.312 0 0 .217.561q4.181-.253 18.644-.27"></path><path fill="#0d924a" fill-rule="evenodd" d="M174.23 86.49q.27.33.67.29l-.21 13.23a.857.854-72.599 0 0 .38.73q.15.1.41.23.58.3-.21.61-.53.21-1.23.1-.6-.12-1.25-.03l-2.7.59a.735.722 85.979 0 0-.58.68l-.11 2.27-.11-2.07a.53.529 80.985 0 0-.66-.48l-5.65 1.45c-.39-.3-.66-.81-.69-1.34q-.33-7.51.24-14.66z"></path><path fill="rgba(29,31,30,1.00)" fill-rule="evenodd" d="M175.21 86.71q-.15.03-.31.07-.4.04-.67-.29z"></path><path fill="#fff" fill-rule="evenodd" d="M175.21 86.71q1.05.19 1.54 1.04-.2 1.73.59 2.69l.72 11.74-8.66 3.01.11-2.27a.735.722 85.979 0 1 .58-.68l2.7-.59 1.25.03q.7.11 1.23-.1.79-.31.21-.61-.26-.13-.41-.23a.857.854-72.599 0 1-.38-.73l.21-13.23q.16-.04.31-.07M59.61 115.81a.497.488-63.175 0 1 .21.66l-2.37 4.65a.44.44 74.826 0 1-.59.19l-32.08-16.34a.447.438 27.994 0 1-.19-.6q5.16-10 5.5-10.73 3.93-8.31 12.79-5.31c5.17 1.75 10.58 6.66 8.8 12.61q-1.03 3.44-3.76 8.15a.645.638 28.6 0 0 .27.9zm-26.319-13.399 8.269 4.213a.53.53-80.394 0 0 .713-.231l2.406-4.722a4.85 4.75-63 0 0-2.03-6.478l-.749-.382a4.85 4.75-63 0 0-6.434 2.165l-2.406 4.723a.53.53 40.182 0 0 .231.712"></path><path fill="rgba(68,69,68,1.00)" fill-rule="evenodd" d="m178.19 88.77-.85 1.67q-.79-.96-.59-2.69.49 1.08 1.44 1.02"></path><path fill="#f08b22" fill-rule="evenodd" d="m178.06 102.18-.72-11.74.85-1.67c2.52-.53 11.14-1.67 10.25 2.99q-.88 4.69-.32 9.34a.491.486-5.427 0 1-.46.55z"></path><path fill="#fff" fill-rule="evenodd" d="M259.54 97.97a1.281 1.277 62.613 0 1 1.88.6l1.6 3.99a.711.703-24.979 0 1-.33.89c-4.08 2.09-4.5 6.93-1.44 10.31 2.01 2.21 5.65 2.17 7.25-.31 1.2-1.86.18-6.26-.1-9.65q-.77-9.1 7.95-11.97c8.33-2.74 14.52 6.48 13.52 13.6q-.66 4.79-6.23 7.76a.785.775 64.784 0 1-1.09-.4l-1.86-4.64a.487.476 58.397 0 1 .12-.53q.22-.2.5-.36c5.22-2.97.18-12.34-4.15-9.4-1.77 1.2-1.72 3.6-1.43 5.41.73 4.53 1.57 10.01-1.29 13.38-4.64 5.47-13.76 7.48-18.49.9-5.37-7.48-4.22-14.52 3.59-19.58"></path><path fill="#0d924a" fill-rule="evenodd" d="M33.291 102.411a.53.53 68.31 0 1-.231-.712l2.406-4.723a4.85 4.75-63 0 1 6.434-2.165l.749.382a4.85 4.75-63 0 1 2.03 6.478l-2.406 4.722a.53.53-34.427 0 1-.713.231z"></path><path fill="#90492f" fill-rule="evenodd" d="m174.04 101.68-1.25-.03q.65-.09 1.25.03"></path><path fill="rgba(29,31,30,1.00)" fill-rule="evenodd" d="M108.551 111.526q3.268-.001 3.602.026a.884.873-7.24 0 1 .887.678l.6 2.55a.767.759 83.254 0 0 .74.59h2.12a.79.786-84.14 0 0 .77-.63l.23-1.13a.842.837-84.06 0 1 .82-.67h5.33a.566.562-84.147 0 1 .55.68l-1.91 9.18a.354.35-83.885 0 1-.343.28q-4.522-.007-13.392-.004-8.871.003-13.393.012a.354.35 83.85 0 1-.343-.28l-1.916-9.178a.566.562 84.112 0 1 .55-.681l5.33-.003a.842.837 84.025 0 1 .82.669l.231 1.13a.79.786 84.105 0 0 .77.63l2.12-.001a.767.759-83.289 0 0 .74-.591l.599-2.55a.884.873 7.205 0 1 .886-.679q.334-.027 3.602-.028m.018 10.337q11.152-.011 12.048-.034a.858.856-84.824 0 0 .813-.679l1.29-6.18a.694.691 5.768 0 0-.68-.83h-2.71a1.112 1.11 5.704 0 0-1.09.89l-.14.67a1.032 1.029 5.838 0 1-1.01.82h-3.65a.747.737-5.672 0 1-.73-.59l-.52-2.48a1.035 1.022-4.823 0 0-.986-.822q-.47-.009-2.644-.007t-2.644.012a1.035 1.022 4.715 0 0-.985.824l-.515 2.481a.747.737 5.564 0 1-.729.591l-3.65.007a1.032 1.029-5.946 0 1-1.011-.818l-.142-.67a1.112 1.11-5.812 0 0-1.091-.888l-2.71.005a.694.691-5.876 0 0-.679.832l1.302 6.177a.858.856 84.716 0 0 .814.678q.896.021 12.049.011M207.468 123.08q-8.864 0-13.382.008a.354.35 83.866 0 1-.344-.279l-1.911-9.173a.566.562 84.128 0 1 .549-.68l5.326-.002a.842.836 84.04 0 1 .82.67l.23 1.129a.789.785 84.121 0 0 .77.629l2.118-.001a.767.758-83.273 0 0 .739-.59l.599-2.548a.883.872 7.221 0 1 .886-.678q.334-.027 3.6-.027t3.599.027a.883.872-7.224 0 1 .886.678l.599 2.548a.767.758 83.27 0 0 .739.59l2.119.001a.789.785-84.124 0 0 .769-.63l.23-1.129a.842.836-84.044 0 1 .82-.669l5.326.001a.566.562-84.131 0 1 .55.68l-1.912 9.173a.354.35-83.869 0 1-.343.279q-4.518-.007-13.382-.007m.004-1.222q11.229-.014 12.131-.037a.864.862-84.84 0 0 .818-.684l1.297-6.223a.698.696 5.752 0 0-.685-.835h-2.728a1.12 1.118 5.688 0 0-1.098.897l-.14.674a1.039 1.036 5.822 0 1-1.017.826l-3.675.001a.752.742-5.688 0 1-.735-.594l-.524-2.496a1.043 1.029-4.839 0 0-.993-.827q-.473-.01-2.662-.007t-2.662.013a1.043 1.029 4.699 0 0-.991.83l-.518 2.498a.752.742 5.548 0 1-.734.595l-3.675.008a1.039 1.036-5.962 0 1-1.018-.823l-.143-.674a1.12 1.118-5.828 0 0-1.099-.894l-2.729.006a.698.696-5.893 0 0-.682.837l1.312 6.219a.864.862 84.7 0 0 .82.683q.902.02 12.13.007"></path><path fill="#fff" fill-rule="evenodd" d="M158.187 111.875q9.95-.012 17.947 2.015.676.17.916.36a.317.315 66.174 0 1-.215.561q-4.181-.243-18.644-.225t-18.644.27a.317.315-66.312 0 1-.217-.561q.24-.19.915-.362 7.993-2.046 17.942-2.058M108.56 112.621q2.174-.002 2.644.007a1.035 1.022-4.823 0 1 .986.822l.52 2.48a.747.737-5.672 0 0 .73.59h3.65a1.032 1.029 5.838 0 0 1.01-.82l.14-.67a1.112 1.11 5.704 0 1 1.09-.89h2.71a.694.691 5.768 0 1 .68.83l-1.29 6.18a.858.856-84.824 0 1-.813.679q-.896.023-12.048.034-11.153.01-12.049-.011a.858.856 84.716 0 1-.814-.678l-1.302-6.177a.694.691-5.876 0 1 .679-.832l2.71-.005a1.112 1.11-5.812 0 1 1.091.888l.142.67a1.032 1.029-5.946 0 0 1.011.818l3.65-.007a.747.737 5.564 0 0 .729-.591l.515-2.481a1.035 1.022 4.715 0 1 .985-.824q.469-.01 2.644-.012M207.472 121.858q-11.228.013-12.13-.007a.864.862 84.7 0 1-.82-.683l-1.312-6.219a.698.696-5.893 0 1 .682-.837l2.729-.006a1.12 1.118-5.828 0 1 1.099.894l.143.674a1.039 1.036-5.962 0 0 1.018.823l3.675-.008a.752.742 5.548 0 0 .734-.595l.518-2.498a1.043 1.029 4.699 0 1 .991-.83q.473-.01 2.662-.013t2.662.007a1.043 1.029-4.839 0 1 .993.827l.524 2.496a.752.742-5.688 0 0 .735.594l3.675-.001a1.039 1.036 5.822 0 0 1.017-.826l.14-.674a1.12 1.118 5.688 0 1 1.098-.897h2.728a.698.696 5.752 0 1 .685.835l-1.297 6.223a.864.862-84.84 0 1-.818.684q-.902.023-12.131.037"></path><path fill="rgba(29,31,30,1.00)" fill-rule="evenodd" d="M158.241 117.794q26.227.003 26.705.032a.873.865-10.98 0 1 .724.484c1.41 2.9 2.98 6.71 3.71 7.03q.45.2 1.45.05a.608.608-63.209 0 1 .69.69l-1.13 8.1a.524.524-86.508 0 1-.514.455q-1.679.001-31.637-.004l-31.637-.005a.524.524 86.525 0 1-.514-.455l-1.128-8.1a.608.608-72.596 0 1 .69-.69q1 .15 1.45-.05c.73-.32 2.302-4.129 3.712-7.029a.873.865 10.996 0 1 .724-.483q.478-.029 26.705-.025M135.49 127.85l-.47-1.18a.748.744-11.167 0 0-.69-.46h-6.85a1.13 1.13 87.519 0 0-1.13 1.13v1.79a1.17 1.17-.243 0 0 1.18 1.17l5.89-.09a.22.22 88.635 0 1 .22.21v.01a.3.3 89.076 0 1-.3.31q-1.02-.03-1.45.17a1.169 1.137 42.946 0 1-.92.02q-1.06-.43-3.31-.19a1.139 1.133-3.82 0 0-1.02 1.16q.04 1.69.9 1.69 39.78.12 57.29-.05a.771.766-83.948 0 0 .75-.61q.19-.88-.16-1.81a.834.83 67.016 0 0-1.13-.46q-1 .47-.76-.25a.361.351 8.956 0 1 .34-.24h5.2a.868.864 3.78 0 0 .86-.75l.27-1.91a.941.936-83.303 0 0-.84-1.07q-3.83-.38-6.86-.13a.787.63-23.435 0 0-.62 1.17q.3.24-.01.37a.143.14-21.469 0 1-.19-.08l-.57-1.42a.419.415-10.887 0 1 .39-.57h5.79a.513.51 82.208 0 0 .49-.65q-.71-2.65-3.25-2.75 1.03.22 1.11.08a2.479 2.396 14.44 0 0-2.19-3.57q-9.96-.1-50.57-.02a1.937 1.934-77.011 0 0-1.74 1.09l-.59 1.25a.803.801 14.853 0 0 .67 1.15q.79.04 3.02 0 .86-.02.73-1.89a.131.129-63.09 0 1 .24-.08q.28.49.13 1.18a.535.535-88.269 0 0 .48.64l1.57.11a.221.219-8.373 0 1 .19.14.2.192-2.606 0 1-.2.21l-6.55-.07a1.545 1.535 12.842 0 0-1.41.88l-.56 1.17a.686.686-76.5 0 0 .6.98l5.74.19a.682.68 85.093 0 1 .64.54q.08.38-.25 1.48a.056.051-47.855 0 1-.1.01m54.11 3.511a.71.71 0 0 0-.681-.738l-2.078-.084a.71.71 0 0 0-.738.681l-.063 1.559a.71.71 0 0 0 .681.738l2.078.084a.71.71 0 0 0 .738-.681z"></path><path fill="#fff" fill-rule="evenodd" d="M135.59 127.84q.33-1.1.25-1.48a.682.68 85.093 0 0-.64-.54l-5.74-.19a.686.686-76.5 0 1-.6-.98l.56-1.17a1.545 1.535 12.842 0 1 1.41-.88l6.55.07a.2.192-2.606 0 0 .2-.21.221.219-8.373 0 0-.19-.14l-1.57-.11a.535.535-49.635 0 1-.48-.64q.15-.69-.13-1.18a.131.129-63.09 0 0-.24.08q.13 1.87-.73 1.89-2.23.04-3.02 0a.803.801 14.853 0 1-.67-1.15l.59-1.25a1.937 1.934-77.011 0 1 1.74-1.09q40.61-.08 50.57.02a2.479 2.396 14.44 0 1 2.19 3.57q-.08.14-1.11-.08 2.54.1 3.25 2.75a.513.51 82.208 0 1-.49.65h-5.79a.419.415-10.887 0 0-.39.57l.57 1.42a.143.14-21.469 0 0 .19.08q.31-.13.01-.37a.787.63-23.435 0 1 .62-1.17q3.03-.25 6.86.13a.941.936-83.303 0 1 .84 1.07l-.27 1.91a.868.864 3.78 0 1-.86.75h-5.2a.361.351 8.956 0 0-.34.24q-.24.72.76.25a.834.83 67.016 0 1 1.13.46q.35.93.16 1.81a.771.766-83.948 0 1-.75.61q-17.51.17-57.29.05-.86 0-.9-1.69a1.139 1.133-3.82 0 1 1.02-1.16q2.25-.24 3.31.19a1.169 1.137 42.946 0 0 .92-.02q.43-.2 1.45-.17a.3.3 89.076 0 0 .3-.31v-.01a.22.22 88.635 0 0-.22-.21l-5.89.09a1.17 1.17-.243 0 1-1.18-1.17v-1.79a1.13 1.13-54.371 0 1 1.13-1.13h6.85a.748.744-11.167 0 1 .69.46l.47 1.18a.056.051-47.855 0 0 .1-.01m46.77-6.5q.1-.24.03-.62a.288.288 47.01 0 0-.56-.02q-.07.26.04.61a.262.26 48.236 0 0 .49.03m-20.78 1.55q.45-.22.65-.31a.405.403-57.587 0 0-.17-.77h-4.34a.18.18 45 0 0-.18.18v.27a.27.266-5.403 0 0 .32.26q1.76-.3 2.97.35a.867.866-43.441 0 0 .75.02m21.35-.69q-2.02-.21-2.86.15a.172.172-57.093 0 0 .07.33q2.61-.06 2.85-.17a.165.164-56.08 0 0-.06-.31m-22.23 1.26v.86a.59.59 89.659 0 1-.59.59h-2.7a.2.2-45.049 0 0-.2.2v.36a.17.17-10.378 0 0 .17.17l7.48-.03a.738.636 49.265 0 1 .2.03q1.26.37.87 2.38a.203.199 5.767 0 0 .2.24h.26a.1.09 0 0 0 .1-.09v-2.46a.76.75 0 0 0-.76-.75h-3.52a.805.798-8.229 0 1-.77-.57l-.29-.99a.231.228 37.099 0 0-.45.06m-29.24 8.95q.04-.34.03-.35a.172.172 79.021 0 0-.33.09q.05.28.09.32a.124.118 27.615 0 0 .21-.06"></path><path fill="rgba(68,69,68,1.00)" fill-rule="evenodd" d="M181.87 121.31q-.11-.35-.04-.61a.288.288 47.01 0 1 .56.02q.07.38-.03.62a.262.26 48.236 0 1-.49-.03M160.83 122.87q-1.21-.65-2.97-.35a.27.266-5.403 0 1-.32-.26v-.27a.18.18-45 0 1 .18-.18h4.34a.405.403-57.587 0 1 .17.77q-.2.09-.65.31a.867.866-43.441 0 1-.75-.02M182.99 122.51q-.24.11-2.85.17a.172.172-57.093 0 1-.07-.33q.84-.36 2.86-.15a.165.164-56.08 0 1 .06.31M161.15 123.4l.29.99a.805.798-8.229 0 0 .77.57h3.52a.76.75 0 0 1 .76.75v2.46a.1.09 0 0 1-.1.09h-.26a.203.199 5.767 0 1-.2-.24q.39-2.01-.87-2.38a.738.636 49.265 0 0-.2-.03l-7.48.03a.17.17 38.18 0 1-.17-.17v-.36a.2.2 45.012 0 1 .2-.2h2.7a.59.59 90 0 0 .59-.59v-.86a.231.228 37.099 0 1 .45-.06M96.211 124.88h25.541a.37.37-52.876 0 1 .365.315l6.419 42.65a.37.37-66.233 0 1-.366.425H87.335a.37.37 40.399 0 1-.362-.445l8.876-42.65a.37.37 39.171 0 1 .362-.295m-4.301 25.76q-.66.43-.13 1.09-.73 1.53-.98 3.57-.44.57-.22 1.15l-.88 3.9q-.6.49.03 1.12-1.03 2.48-1.11 4.93a.52.511 1.061 0 0 .52.53h37.43a.528.528-5.028 0 0 .52-.62l-.76-4.39q.39-.76.05-1.1-2.33-14.79-4.48-29.85a1.017.982-23.232 0 0-1.61-.61q-.73.55-1.25.02a.411.41-22.45 0 0-.29-.12h-3.27a.07.07-45.004 0 1-.07-.07v-.25a.3.3 45 0 1 .3-.3h5.1a.817.817 84.232 0 0 .8-.98l-.39-1.83a1.048 1.039 84.232 0 0-1.02-.84H97.69a.903.902-81.18 0 0-.86.63l-.63 1.93a.798.793 9.002 0 0 .76 1.04h3.44a.249.248-60.863 0 1 .13.46q-.77.47-1.34 2.16a.165.163-35.853 0 1-.32-.05v-.82a.922.916 9.276 0 0-.63-.87l-.98-.32a.936.933-72.054 0 0-1.17.6l-.71 2.18a.669.664 9.276 0 0 .63.87l6.5.06a.01.01 45 0 1 .01.01l.03.27a.329.325 85.458 0 1-.32.38h-6.26a1.073 1.07 8.96 0 0-1.02.74l-.39 1.22a.67.665-80.813 0 0 .63.88h3.64a.524.52 8.896 0 1 .5.68L98.04 142a.874.859 8.634 0 1-.83.6h-2.76a1.092 1.087 8.729 0 0-1.04.76l-.54 1.67a.634.632-80.96 0 0 .6.83h3.87a.8.8 32.805 0 1 .8.8v1.89a.315.315 8.799 0 1-.41.3l-.31-.1a.089.079-80.333 0 1-.05-.08v-1.26a.76.76 44.83 0 0-.76-.76h-3.15a.991.977-78.872 0 0-.91.62q-.64 1.62-.64 3.37m2.264-9.093 3.538.124a.25.25 43.393 0 0 .258-.241l.06-1.719a1.31.9-88 0 0-.853-1.341l-2.239-.078a1.31.9-88 0 0-.945 1.278l-.06 1.719a.25.25 9.9 0 0 .241.258"></path><path fill="rgba(29,31,30,1.00)" fill-rule="evenodd" d="m213.39 125.26-18.42.58-.53 3.11a.66.659-85.203 0 0 .65.77h5.39a.188.185-50.165 0 1 .03.37q-.8.15-2.93.13a.888.887-3.38 0 0-.89 1l.27 2.19a.084.082 84.233 0 1-.08.1h-.27a.293.291-87.31 0 1-.29-.32q.13-1.2.04-2a1.167 1.147 61.91 0 0-2.04-.64q-.18.22-.26.76-2 13.95-4.53 29.85a.196.193-84.993 0 0 .19.23h3.1a.448.425-80.604 0 0 .41-.31q.95-3.09-.86-3.59a.113.112-37.579 0 1 .03-.22l7.69-.2a.09.09-45 0 1 .09.09v.28a.18.17 0 0 1-.18.17h-5.37a.75.75 45 0 0-.75.75v1.97a.876.874 5.129 0 0 .72.86q1.42.26 2.65.03a.276.276-75.052 0 1 .26.45q-.53.62-.47 1.85a.31.301-1.737 0 1-.31.32h-.01a.302.301-85.388 0 1-.28-.33l.1-.96a.799.795-87.065 0 0-.79-.88h-5.51a.684.683-84.336 0 0-.67.55l-.75 3.8q-.59 1.07-1.12.76l6.22-41.27a.601.583-84.947 0 1 .59-.51z"></path><path fill="rgba(68,69,68,1.00)" fill-rule="evenodd" d="M187.7 166.78q.53.31 1.12-.76-.09.39.16.73a.47.46 72.162 0 0 .38.2h37.46a.743.736 84.232 0 0 .72-.89l-.82-3.91a1.25 1.25 83.416 0 0-1.26-1l-7.3.22a.03.03 45 0 1-.03-.03V161a.38.38-45 0 1 .38-.38h6.94a.753.746 84.296 0 0 .73-.9l-.56-2.66a1.19 1.19-6.625 0 0-1.2-.95q-1.47.04-3.32.05-1.34 0-1.46.66-.07.39.27 1.73a.26.259 73.187 0 1-.16.3l-.31.12a.248.246 78.884 0 1-.34-.23v-2.42a.8.79 90 0 1 .79-.8h4.47a.754.752-5.641 0 0 .74-.9l-.5-2.38a1.097 1.086 83.044 0 0-1.1-.87l-5.91.22a.144.134-4.785 0 1-.14-.11l-.05-.26a.326.325-5.768 0 1 .32-.39h5.64a.785.777 84.232 0 0 .76-.94l-.54-2.56a.893.888 84.79 0 0-.86-.72l-3.34-.07a.873.867-81.784 0 0-.85.64q-.1.4.2 1.27a.175.165 59.97 0 1-.04.17l-.21.2a.33.329-27.719 0 1-.55-.17q-.21-1.03.1-2.25a.701.696 6.836 0 1 .68-.53h3.64a.817.817 84.232 0 0 .8-.98l-.28-1.36a1.381 1.374-5.925 0 0-1.35-1.09h-3.05a.215.212 85.203 0 1-.21-.18l-.07-.31a.177.174 84.511 0 1 .17-.21h3.36a.602.598-5.847 0 0 .59-.72l-.44-2.14a.798.789-5.768 0 0-.78-.63h-2.61a.722.716 86.454 0 0-.71.81l.19 1.51a.325.322-7.603 0 1-.27.35h-.01a.303.302-88.309 0 1-.31-.33q.19-1.79-.48-2.61a.25.249 70.048 0 1 .19-.41h3.71a.703.701-5.7 0 0 .69-.84l-.31-1.46a1.061 1.057-5.634 0 0-1.04-.85h-6.44a.11.11 45 0 1-.11-.11v-.27a.26.26 0 0 1 .26-.26h6.06a.795.794-5.648 0 0 .78-.95l-.37-1.75a1.144 1.132 79.83 0 0-1.28-.9l-3.04.46a.067.054 69.699 0 1-.05-.03l-.51-.7a.222.216 71.744 0 1 .17-.35h3.46a.724.717 84.099 0 0 .7-.87l-.39-1.85a1.052 1.048-5.7 0 0-1.03-.84l-23.37-.16 18.42-.58q2.89-.79 6.27-.23a.774.765-1.064 0 1 .62.59l8.74 42.05a.482.48 84.132 0 1-.47.58h-40.53a.499.498-84.718 0 1-.49-.59z"></path><path fill="#fff" fill-rule="evenodd" d="M126.38 160.82q-1.59.71-3.03.18a.808.792-84.901 0 1-.5-.61q-.39-2.21 1.23-2.87a.244.243-55.938 0 0-.09-.47h-8.12a.4.39 0 0 0-.4.39v.27a.2.2 44.951 0 0 .2.2h5.82a.64.64-56.742 0 1 .64.64v1.68a.83.83-57.902 0 1-.83.83h-2.62a.404.403 70.279 0 0-.31.66q.64.76.58 1.98a.271.261-87.953 0 0 .26.29h.29a.23.23-84.159 0 0 .23-.23v-1.15a.69.69 45 0 1 .69-.69h5.91l.76 4.39a.528.528-5.028 0 1-.52.62H89.14a.52.511 1.061 0 1-.52-.53q.08-2.45 1.11-4.93l7.84-.06a.42.42-.699 0 0 .41-.42v-.25a.26.26-72.412 0 0-.26-.26l-8.02-.13.88-3.9 4.94-.07a.72.708 84.25 0 1 .71.59q.1.58-.16 1.6a.42.417-71.33 0 0 .24.49l.09.04a.444.442-72.948 0 0 .6-.32q.23-1.2.02-2.43a1.267 1.259-4.528 0 0-1.25-1.06l-4.97.01q.25-2.04.98-3.57l6.73.02a.3.3.924 0 0 .31-.3v-.32a.48.48 11.265 0 0-.48-.48l-6.43-.01q0-1.75.64-3.37a.991.977-78.872 0 1 .91-.62h3.15a.76.76-44.959 0 1 .76.76v1.26a.089.079-80.333 0 0 .05.08l.31.1a.315.315 8.799 0 0 .41-.3v-1.89a.8.8 17.706 0 0-.8-.8h-3.87a.634.632-80.96 0 1-.6-.83l.54-1.67a1.092 1.087 8.729 0 1 1.04-.76h2.76a.874.859 8.634 0 0 .83-.6l1.29-3.96a.524.52 8.896 0 0-.5-.68h-3.64a.67.665-80.813 0 1-.63-.88l.39-1.22a1.073 1.07 8.96 0 1 1.02-.74h6.26a.329.325 85.458 0 0 .32-.38l-.03-.27a.01.01 45 0 0-.01-.01l-6.5-.06a.669.664 9.276 0 1-.63-.87l.71-2.18a.936.933-72.054 0 1 1.17-.6l.98.32a.922.916 9.276 0 1 .63.87v.82a.165.163-35.853 0 0 .32.05q.57-1.69 1.34-2.16a.249.248-60.863 0 0-.13-.46h-3.44a.798.793 9.002 0 1-.76-1.04l.63-1.93a.903.902-81.18 0 1 .86-.63h22.51a1.048 1.039 84.232 0 1 1.02.84l.39 1.83a.817.817 84.232 0 1-.8.98h-5.1a.3.3 45 0 0-.3.3v.25a.07.07 45.017 0 0 .07.07h3.27a.411.41-22.45 0 1 .29.12q.52.53 1.25-.02a1.017.982-23.232 0 1 1.61.61q2.15 15.06 4.48 29.85m-6.75-27.49q.13-1.64.06-1.95a.19.187-41.471 0 0-.36-.02q-.32.83-.2 1.97a.253.249 44.556 0 0 .5 0m-9.98 16.304q.505-.001.847-.331a.69.685-28.751 0 0 .193-.653q-.63-2.53-.32-5.99a.634.631-85.708 0 1 .66-.57q.6.03 1.63.5a.93.926-64.549 0 0 1.23-.44l.11-.23a.988.987 27.265 0 0-.41-1.28q-.72-.41-2.18.17a.867.865-7.013 0 1-1.18-.92q.12-.9.4-1.96.12-.46-.231-.857-.309-.348-.838-.347-.48.002-.787.351-.349.4-.226.859.286 1.058.411 1.958a.867.865 6.692 0 1-1.175.926q-1.463-.572-2.181-.158a.988.987-27.585 0 0-.403 1.283l.111.229a.93.926 64.229 0 0 1.233.433q1.027-.476 1.627-.509a.634.631 85.387 0 1 .663.566q.33 3.459-.286 5.992a.69.685 28.43 0 0 .196.652q.345.328.906.326M194.97 125.84l23.37.16a1.052 1.048-5.7 0 1 1.03.84l.39 1.85a.724.717 84.099 0 1-.7.87h-3.46a.222.216 71.744 0 0-.17.35l.51.7a.067.054 69.699 0 0 .05.03l3.04-.46a1.144 1.132 79.83 0 1 1.28.9l.37 1.75a.795.794-5.648 0 1-.78.95h-6.06a.26.26 0 0 0-.26.26v.27a.11.11 45 0 0 .11.11h6.44a1.061 1.057-5.634 0 1 1.04.85l.31 1.46a.703.701-5.7 0 1-.69.84h-3.71a.25.249 70.048 0 0-.19.41q.67.82.48 2.61a.303.302-88.309 0 0 .31.33h.01a.325.322-7.603 0 0 .27-.35l-.19-1.51a.722.716 86.454 0 1 .71-.81h2.61a.798.789-5.768 0 1 .78.63l.44 2.14a.602.598-5.847 0 1-.59.72h-3.36a.177.174 84.511 0 0-.17.21l.07.31a.215.212 85.203 0 0 .21.18h3.05a1.381 1.374-5.925 0 1 1.35 1.09l.28 1.36a.817.817 84.232 0 1-.8.98h-3.64a.701.696 6.836 0 0-.68.53q-.31 1.22-.1 2.25a.33.329-27.719 0 0 .55.17l.21-.2a.175.165 59.97 0 0 .04-.17q-.3-.87-.2-1.27a.873.867-81.784 0 1 .85-.64l3.34.07a.893.888 84.79 0 1 .86.72l.54 2.56a.785.777 84.232 0 1-.76.94h-5.64a.326.325-5.768 0 0-.32.39l.05.26a.144.134-4.785 0 0 .14.11l5.91-.22a1.097 1.086 83.044 0 1 1.1.87l.5 2.38a.754.752-5.641 0 1-.74.9h-4.47a.8.79 90 0 0-.79.8v2.42a.248.246 78.884 0 0 .34.23l.31-.12a.26.259 73.187 0 0 .16-.3q-.34-1.34-.27-1.73.12-.66 1.46-.66 1.85-.01 3.32-.05a1.19 1.19-6.625 0 1 1.2.95l.56 2.66a.753.746 84.296 0 1-.73.9h-6.94a.38.38 0 0 0-.38.38v.34a.03.03 45 0 0 .03.03l7.3-.22a1.25 1.25 83.416 0 1 1.26 1l.82 3.91a.743.736 84.232 0 1-.72.89h-37.46a.47.46 72.162 0 1-.38-.2q-.25-.34-.16-.73l.75-3.8a.684.683-84.336 0 1 .67-.55h5.51a.799.795-87.065 0 1 .79.88l-.1.96a.302.301-85.388 0 0 .28.33h.01a.31.301-1.737 0 0 .31-.32q-.06-1.23.47-1.85a.276.276-75.052 0 0-.26-.45q-1.23.23-2.65-.03a.876.874 5.129 0 1-.72-.86v-1.97a.75.75-45 0 1 .75-.75H200a.18.17 0 0 0 .18-.17v-.28a.09.09-45 0 0-.09-.09l-7.69.2a.113.112-37.579 0 0-.03.22q1.81.5.86 3.59a.448.425-80.604 0 1-.41.31h-3.1a.196.193-84.993 0 1-.19-.23q2.53-15.9 4.53-29.85.08-.54.26-.76a1.167 1.147 61.91 0 1 2.04.64q.09.8-.04 2a.293.291-87.31 0 0 .29.32h.27a.084.082 84.233 0 0 .08-.1l-.27-2.19a.888.887-3.38 0 1 .89-1q2.13.02 2.93-.13a.188.185-50.165 0 0-.03-.37h-5.39a.66.659-85.203 0 1-.65-.77zm22.08 6.05q.13-.21.06-.58a.147.146-46.77 0 0-.29.01l-.07.47a.163.16-25.98 0 0 .3.1m-10.613 17.705q.559 0 .9-.326a.686.681-28.565 0 0 .194-.649q-.618-2.517-.299-5.956a.63.628-85.522 0 1 .658-.565q.597.032 1.619.502a.925.921-64.363 0 0 1.225-.433l.11-.228a.982.981 27.451 0 0-.404-1.274q-.714-.41-2.168.162a.862.861-6.827 0 1-1.17-.919q.122-.894.404-1.947.121-.457-.227-.853-.306-.347-.783-.347-.526-.001-.833.346-.348.396-.227.853.281 1.053.402 1.948a.862.861 6.878 0 1-1.171.917q-1.453-.573-2.168-.164a.982.981-27.399 0 0-.404 1.274l.109.228a.925.921 64.415 0 0 1.224.435q1.023-.47 1.62-.501a.63.628 85.574 0 1 .657.565q.317 3.439-.304 5.956a.686.681 28.616 0 0 .193.649q.342.327.843.327M189.537 132.92a.71.71 0 0 1-.738.681l-2.078-.084a.71.71 0 0 1-.681-.738l.063-1.559a.71.71 0 0 1 .738-.681l2.078.084a.71.71 0 0 1 .681.738z"></path><path fill="rgba(68,69,68,1.00)" fill-rule="evenodd" d="M119.63 133.33a.253.249 44.556 0 1-.5 0q-.12-1.14.2-1.97a.19.187-41.471 0 1 .36.02q.07.31-.06 1.95M217.05 131.89a.163.16-25.98 0 1-.3-.1l.07-.47a.147.146-46.77 0 1 .29-.01q.07.37-.06.58M131.25 132.47q-.04-.04-.09-.32a.172.172-20.9 0 1 .33-.09q.01.01-.03.35a.124.118 27.615 0 1-.21.06"></path><path fill="rgba(29,31,30,1.00)" fill-rule="evenodd" d="M39.3 178.29q-8.99-7.56-12.34-16.98-.34-.95-.63-3.97a.858.855-13.622 0 0-1.17-.71l-3.76 1.51a1.158 1.145-13.507 0 0-.72 1.16q.58 7.01 3.82 13.44c.95 1.88 2 2.84 3.95 3.36q2.85.75 5.38 2.17a22.317 22.299-13.84 0 1-15.51-9.37 22.323 22.296 33.553 0 1-3.53-17.38 22.318 22.314-82.884 0 1 22.72-17.68 22.32 22.307 81.497 0 1 20.18 14.94 22.327 22.323-28.954 0 1-7.13 24.78 22.4 22.4-67.786 0 1-11.26 4.73m-17.71-36.63q9.18-2.54 17.77.22a.553.551-75.52 0 0 .71-.42l1.2-5.78a.669.663 10.897 0 0-.54-.79q-11.28-1.85-19.56 6.02a.445.441-74.466 0 0 .42.75m20.1-5.98c-.61 6.64-3.14 14.65-6.9 20.52a.998.986 46.446 0 0-.02 1.04l2.16 3.74a.637.637-35.709 0 0 .98.16q9.09-8.18 13.3-19.69a1.503 1.497-60.512 0 0-.46-1.67q-3.68-3.02-8.28-4.61a.59.59-78.171 0 0-.78.51m-25.24 14.308q10.405-5.076 20.262-2.016a1.301 1.298-72.279 0 0 1.626-.841l1.054-3.255a1.222 1.216 17.616 0 0-.801-1.537q-8.829-2.752-18.607.457a2.183 2.172-85.569 0 0-1.267 1.09L15.9 149.43a.414.412-89.739 0 0 .55.558m26.671 17.698a.149.145-35.571 0 1 .039-.221q8.499-5.472 14.184-13.79a2.39 2.376 57.259 0 0 .378-1.766q-1.003-5.727-4.993-10.236a.58.578-56.519 0 0-.983.203q-4.014 11.856-13.391 19.698a.882.876 49.646 0 0-.099 1.254l9.159 10.65a1.348 1.34 50.673 0 0 1.836.187q9.058-6.998 8.938-18.466a.535.535 62.054 0 0-.973-.299q-5.555 7.996-13.754 13.016a.115.106-35.252 0 1-.15-.02zm-26.509-8.451c4.993-2.501 10.601-4.604 16.169-3.094a1.346 1.34-68.862 0 0 1.538-.684l2.84-5.578a.927.921 21.467 0 0-.575-1.31q-10.411-2.96-20.179 2.308a2.382 2.379-14.185 0 0-1.251 2.094l-.001 5.36a1.009 1.006 76.688 0 0 1.459.904M47.13 173.54q-7.2-6.84-13.04-15.63a1.84 1.828 82.343 0 0-.95-.73q-2.54-.85-5.33-.69a1 .999-7.311 0 0-.92 1.19q2.4 12.19 12.59 19.23a2.476 2.456 51.129 0 0 2.33.26l5.01-2.01a.982.976 56.006 0 0 .31-1.62m-23.84-.59a.395.39 72.725 0 0 .29-.56q-3.23-6.44-3.46-12.81a.708.704 77.817 0 0-.97-.63L16.52 160a1.377 1.368-19.989 0 0-.8 1.7q2.03 6.24 6.89 11.05.16.16.31.18.21.05.37.02M281.73 178.4q.64-1.34-.44-2.18-9.41-7.3-11.58-18.94a.063.063 22.503 0 1 .04-.08l.3-.12a.245.24-15.745 0 1 .33.18q2.47 12.69 12.85 19.71a2.37 2.335-38.604 0 0 2.2.23l5.16-2.07a.9.896-34.019 0 0 .29-1.48q-6.58-6.32-10.07-11.44-2.93-4.31-3.41-4.81a1.716 1.674-14.109 0 0-.86-.5q-5.73-1.37-11.52 1.11a1.225 1.224-14.119 0 0-.73 1.22q.63 7.32 4.08 13.92 1.12 2.13 3.44 2.78 3.02.85 5.8 2.35a22.33 22.319 74.95 0 1-15.16-8.74 22.335 22.322 28.998 0 1-4.39-15.29 22.307 22.251-20.745 0 1 6.13-13.56 22.311 22.295-72.666 0 1 12.54-6.58 22.317 22.315-13.823 0 1 24.71 14.95 22.323 22.31 61.798 0 1-7.44 24.67 22.372 22.346-65.805 0 1-12.27 4.67m-16.362-36.786q9.136-2.533 17.688.21a.55.549-75.55 0 0 .707-.418l1.191-5.754a.666.66 10.867 0 0-.538-.786q-11.229-1.836-19.466 6.002a.443.439-74.496 0 0 .418.746m20.027-5.89c-.634 6.628-3.19 14.616-6.966 20.462a.997.985 46.661 0 0-.024 1.039l2.143 3.742a.636.636-35.493 0 0 .978.163q9.106-8.133 13.353-19.609a1.5 1.495-60.297 0 0-.453-1.669q-3.663-3.029-8.25-4.634a.588.588-77.955 0 0-.781.506M260.11 150q10.43-5.07 20.3-1.99a1.303 1.3-72.196 0 0 1.63-.84l1.06-3.26a1.224 1.218 17.7 0 0-.8-1.54q-8.84-2.77-18.64.43a2.187 2.175-85.486 0 0-1.27 1.09l-2.83 5.55a.415.412-89.656 0 0 .55.56m26.69 17.66a.149.145-35.474 0 1 .04-.22q8.48-5.44 14.16-13.72a2.382 2.368 57.356 0 0 .38-1.76q-.99-5.71-4.96-10.21a.578.576-56.422 0 0-.98.2q-4.02 11.81-13.38 19.61a.879.874 49.743 0 0-.1 1.25l9.11 10.63a1.343 1.336 50.77 0 0 1.83.19q9.04-6.96 8.94-18.39a.534.533 62.151 0 0-.97-.3q-5.55 7.96-13.73 12.95a.114.106-35.155 0 1-.15-.02zm-26.6-8.33c5.03-2.52 10.68-4.64 16.29-3.12a1.356 1.35-68.873 0 0 1.55-.69l2.86-5.62a.934.928 21.455 0 0-.58-1.32q-10.49-2.98-20.33 2.33a2.4 2.397-14.197 0 0-1.26 2.11v5.4a1.017 1.014 76.677 0 0 1.47.91m6.698 13.443a.39.386 72.289 0 0 .282-.556q-3.24-6.34-3.515-12.633a.7.696 77.381 0 0-.964-.615l-2.591 1.057a1.361 1.352-20.425 0 0-.778 1.686q2.054 6.151 6.893 10.868.159.157.307.176.208.048.366.017"></path><path fill="#90492f" fill-rule="evenodd" d="M265.368 141.614a.443.439-74.496 0 1-.418-.746q8.237-7.838 19.466-6.002a.666.66 10.867 0 1 .538.786l-1.191 5.754a.55.549-75.55 0 1-.707.418q-8.552-2.743-17.688-.21M21.59 141.66a.445.441-74.466 0 1-.42-.75q8.28-7.87 19.56-6.02a.669.663 10.897 0 1 .54.79l-1.2 5.78a.553.551-75.52 0 1-.71.42q-8.59-2.76-17.77-.22"></path><path fill="#90492f" fill-rule="evenodd" d="M41.69 135.68a.59.59-78.171 0 1 .78-.51q4.6 1.59 8.28 4.61a1.503 1.497-60.512 0 1 .46 1.67q-4.21 11.51-13.3 19.69a.637.637-35.709 0 1-.98-.16l-2.16-3.74a.998.986 46.446 0 1 .02-1.04c3.76-5.87 6.29-13.88 6.9-20.52M285.395 135.724a.588.588-77.955 0 1 .781-.506q4.587 1.605 8.25 4.634a1.5 1.495-60.297 0 1 .453 1.669q-4.247 11.476-13.353 19.609a.636.636-35.493 0 1-.978-.163l-2.143-3.742a.997.985 46.661 0 1 .024-1.039c3.776-5.846 6.332-13.834 6.966-20.462"></path><path fill="rgba(68,69,68,1.00)" fill-rule="evenodd" d="M109.561 136.726q.529-.001.838.347.351.397.231.857-.28 1.06-.4 1.96a.867.865-7.013 0 0 1.18.92q1.46-.58 2.18-.17a.988.987 27.265 0 1 .41 1.28l-.11.23a.93.926-64.549 0 1-1.23.44q-1.03-.47-1.63-.5a.634.631-85.708 0 0-.66.57q-.31 3.46.32 5.99a.69.685-28.751 0 1-.193.653q-.342.33-.847.331-.561.002-.906-.326a.69.685 28.43 0 1-.196-.652q.616-2.533.286-5.992a.634.631 85.387 0 0-.663-.566q-.6.033-1.627.509a.93.926 64.229 0 1-1.233-.433l-.111-.229a.988.987-27.585 0 1 .403-1.283q.718-.414 2.181.158a.867.865 6.692 0 0 1.175-.926q-.125-.9-.411-1.958-.123-.459.226-.859.307-.349.787-.351"></path><path fill="rgba(29,31,30,1.00)" fill-rule="evenodd" d="M206.437 149.595q-.501 0-.843-.327a.686.681 28.616 0 1-.193-.649q.621-2.517.304-5.956a.63.628 85.574 0 0-.657-.565q-.597.031-1.62.501a.925.921 64.415 0 1-1.224-.435l-.109-.228a.982.981-27.399 0 1 .404-1.274q.715-.409 2.168.164a.862.861 6.878 0 0 1.171-.917q-.121-.895-.402-1.948-.121-.457.227-.853.307-.347.833-.346.477 0 .783.347.348.396.227.853-.282 1.053-.404 1.947a.862.861-6.827 0 0 1.17.919q1.454-.572 2.168-.162a.982.981 27.451 0 1 .404 1.274l-.11.228a.925.921-64.363 0 1-1.225.433q-1.022-.47-1.619-.502a.63.628-85.522 0 0-.658.565q-.319 3.439.299 5.956a.686.681-28.565 0 1-.194.649q-.341.326-.9.326M158.236 137.568q15.779-.006 30.816.048a.333.33 4.09 0 1 .328.374l-4.3 30.8a1.539 1.506 64.362 0 1-.19.56l-4.96 8.59a.448.446-28.897 0 0-.07.24v13.66a.61.61-44.979 0 1-.61.61h-3.87a.61.6 0 0 1-.61-.6v-22.88a1.152 1.147-75.625 0 0-.593-1.007c-4.632-2.563-11.49-3.317-15.931-3.315-4.44.001-11.297.761-15.928 3.327a1.152 1.147 75.58 0 0-.592 1.008l.018 22.88a.61.6-.045 0 1-.609.6l-3.87.004a.61.61 19.232 0 1-.611-.61l-.011-13.66a.448.446 28.852 0 0-.07-.24l-4.967-8.586a1.539 1.506-64.407 0 1-.19-.56l-4.324-30.797a.333.33-4.135 0 1 .327-.373q15.037-.067 30.817-.073m24.514 8.772h3.64a.95.936 3.807 0 0 .94-.81l.3-2.19a.998.993.646 0 0-1.11-1.13l-5.08.64a.463.453 82.489 0 1-.51-.4l-.05-.36a.141.131 87.957 0 1 .13-.15h6.07a.86.845 3.831 0 0 .85-.73l.26-1.85a.726.724 3.808 0 0-.72-.82h-58.4a.751.746 86.582 0 0-.74.84l.23 1.77a.815.81 87.912 0 0 .77.72l6.48.28a.205.202-83.771 0 1 .19.24v.05a.201.191 2.934 0 1-.21.18l-6.38-.28a.58.578 88.281 0 0-.6.64q.25 2.35.81 3.19a.721.717 43.724 0 1 .02.79q-.41.68.2 2.73a.713.701-8.219 0 0 .68.5h5.65a.404.404-71.214 0 1 .32.65q-.7.89-.32 2.27a.232.226 77.551 0 1-.18.29h-.01a.294.288-4.822 0 1-.35-.29l.01-1.85a.67.67 87.59 0 0-.67-.67h-4.02a.815.808 86.253 0 0-.8.92l.3 2.39a.766.76-3.378 0 0 .76.67h5.23a.183.17 86.179 0 1 .17.16l.04.28a.101.1 87.392 0 1-.1.11h-5.33a.564.56-3.59 0 0-.56.63l.31 2.48a.793.786 86.253 0 0 .78.69h7.12a.082.081 85.894 0 1 .08.07l.03.29a.233.232 86.687 0 1-.23.26h-6.69a.766.763-3.632 0 0-.76.86l.34 2.68a.727.723 84.118 0 0 .77.63l4.81-.32a.014.012-14.872 0 1 .02.01l.32.62a.116.114 75.865 0 1-.1.17h-4.83a.725.722-3.502 0 0-.72.81l.26 2.08a.898.894-3.636 0 0 .89.78h3.9a.09.09 86.41 0 1 .09.08l.04.28a.243.242 86.81 0 1-.24.27h-3.68a.495.495 75.194 0 0-.43.74l4.65 8.06a1.917 1.853-61.128 0 1 .26.96v12.19a.98.98 45 0 0 .98.98h.99a.99.98 0 0 0 .99-.98V168.8a2.039 2.025 76.806 0 1 1.12-1.82q5.52-2.74 11.56-2.94a.526.523 85.477 0 0 .5-.59l-.39-3.08a1.203 1.194-9.867 0 1 .93-1.31q3.09-.71 6.58-.27c2.85.36 2.46 1.77 1.71 3.95a.972.967-79.334 0 0 .87 1.28q6.45.3 11.64 3.22a1.395 1.385 14.796 0 1 .71 1.21v21.94a1.06 1.05 0 0 0 1.06 1.05h.79a.96.96 87.474 0 0 .96-.96v-12.31a.707.679-31.322 0 1 .09-.34l5.02-8.69a.454.452-75 0 0-.39-.68h-3.15a.082.081 85.894 0 1-.08-.07l-.04-.29a.204.202 86.253 0 1 .2-.23h3.22a.95.94 0 0 0 .95-.94v-2.11a.61.61 45 0 0-.61-.61h-4.14a.15.15 65.347 0 1-.12-.24l.59-.76a.066.041-58.283 0 1 .04-.02l3.7.63a.699.697 8.531 0 0 .8-.59l.43-3.08a.591.586-86.14 0 0-.58-.67h-2.71a.748.746-7.913 0 0-.72.95q.19.65.04 1.79a.236.235 31.792 0 1-.43.1q-.1-.16.09-1.97a.671.666-86.974 0 0-.67-.75l-1.86.03a.33.33-.843 0 1-.34-.33v-.01a.311.3-87.953 0 1 .3-.29l6.4-.11a.813.81 3.38 0 0 .78-.69l.32-2.29a.655.653 3.831 0 0-.65-.74h-4.06a.409.406 11.075 0 1-.38-.56q.9-2.13-.22-3.91a.283.28-17.192 0 1 .23-.43l4.78-.15a.181.171-1.59 0 1 .19.17v.01a.233.223 86.558 0 1-.22.26l-3.53.07a.611.61-.971 0 0-.59.61v2.98a.43.43-44.94 0 0 .43.43h3.41a.96.959 4.156 0 0 .95-.82l.87-6.26a.783.78 6.148 0 0-.72-.89l-3.52-.23a.056.054 45.927 0 1 0-.11m-20.454 14.186a1.09 1.09 0 0 0-1.093-1.086l-5.9.02a1.09 1.09 0 0 0-1.086 1.094l.007 2a1.09 1.09 0 0 0 1.093 1.086l5.9-.02a1.09 1.09 0 0 0 1.086-1.094z"></path><path fill="#fff" fill-rule="evenodd" d="M94.174 141.547a.25.25 36.182 0 1-.241-.258l.06-1.719a1.31.9-88 0 1 .945-1.278l2.239.078a1.31.9-88 0 1 .853 1.341l-.06 1.719a.25.25-42.079 0 1-.258.241zM182.75 146.45l3.52.23a.783.78 6.148 0 1 .72.89l-.87 6.26a.96.959 4.156 0 1-.95.82h-3.41a.43.43 44.985 0 1-.43-.43v-2.98a.611.61-.971 0 1 .59-.61l3.53-.07a.233.223 86.558 0 0 .22-.26v-.01a.181.171-1.59 0 0-.19-.17l-4.78.15a.283.28-17.192 0 0-.23.43q1.12 1.78.22 3.91a.409.406 11.075 0 0 .38.56h4.06a.655.653 3.831 0 1 .65.74l-.32 2.29a.813.81 3.38 0 1-.78.69l-6.4.11a.311.3-87.953 0 0-.3.29v.01a.33.33-.843 0 0 .34.33l1.86-.03a.671.666-86.974 0 1 .67.75q-.19 1.81-.09 1.97a.236.235 31.792 0 0 .43-.1q.15-1.14-.04-1.79a.748.746-7.913 0 1 .72-.95h2.71a.591.586-86.14 0 1 .58.67l-.43 3.08a.699.697 8.531 0 1-.8.59l-3.7-.63a.066.041-58.283 0 0-.04.02l-.59.76a.15.15-45 0 0 .12.24h4.14a.61.61 45 0 1 .61.61v2.11a.95.94 0 0 1-.95.94h-3.22a.204.202 86.253 0 0-.2.23l.04.29a.082.081 85.894 0 0 .08.07h3.15a.454.452-75 0 1 .39.68l-5.02 8.69a.707.679-31.322 0 0-.09.34v12.31a.96.96-54.486 0 1-.96.96h-.79a1.06 1.05 0 0 1-1.06-1.05v-21.94a1.395 1.385 14.796 0 0-.71-1.21q-5.19-2.92-11.64-3.22a.972.967-79.334 0 1-.87-1.28c.75-2.18 1.14-3.59-1.71-3.95q-3.49-.44-6.58.27a1.203 1.194-9.867 0 0-.93 1.31l.39 3.08a.526.523 85.477 0 1-.5.59q-6.04.2-11.56 2.94a2.039 2.025 76.806 0 0-1.12 1.82v21.64a.99.98 0 0 1-.99.98h-.99a.98.98 45 0 1-.98-.98v-12.19a1.917 1.853-61.128 0 0-.26-.96l-4.65-8.06a.495.495 75.194 0 1 .43-.74h3.68a.243.242 86.81 0 0 .24-.27l-.04-.28a.09.09 86.41 0 0-.09-.08h-3.9a.898.894-3.636 0 1-.89-.78l-.26-2.08a.725.722-3.502 0 1 .72-.81h4.83a.116.114 75.865 0 0 .1-.17l-.32-.62a.014.012-14.872 0 0-.02-.01l-4.81.32a.727.723 84.118 0 1-.77-.63l-.34-2.68a.766.763-3.632 0 1 .76-.86h6.69a.233.232 86.687 0 0 .23-.26l-.03-.29a.082.081 85.894 0 0-.08-.07h-7.12a.793.786 86.253 0 1-.78-.69l-.31-2.48a.564.56-3.59 0 1 .56-.63h5.33a.101.1 87.392 0 0 .1-.11l-.04-.28a.183.17 86.179 0 0-.17-.16h-5.23a.766.76-3.378 0 1-.76-.67l-.3-2.39a.815.808 86.253 0 1 .8-.92h4.02a.67.67-54.498 0 1 .67.67l-.01 1.85a.294.288-4.822 0 0 .35.29h.01a.232.226 77.551 0 0 .18-.29q-.38-1.38.32-2.27a.404.404-71.214 0 0-.32-.65h-5.65a.713.701-8.219 0 1-.68-.5q-.61-2.05-.2-2.73a.721.717 43.724 0 0-.02-.79q-.56-.84-.81-3.19a.58.578 88.281 0 1 .6-.64l6.38.28a.201.191 2.934 0 0 .21-.18v-.05a.205.202-83.771 0 0-.19-.24l-6.48-.28a.815.81 87.912 0 1-.77-.72l-.23-1.77a.751.746 86.582 0 1 .74-.84h58.4a.726.724 3.808 0 1 .72.82l-.26 1.85a.86.845 3.831 0 1-.85.73h-6.07a.141.131 87.957 0 0-.13.15l.05.36a.463.453 82.489 0 0 .51.4l5.08-.64a.998.993.646 0 1 1.11 1.13l-.3 2.19a.95.936 3.807 0 1-.94.81h-3.64a.056.054 45.927 0 0 0 .11m-19.08-4.14-5.25-.01a.23.23 45 0 0-.23.23v.01a.28.271-1.023 0 0 .29.27q1.21-.08 3.99.14.78.06 1.29-.43a.125.123 22.211 0 0-.09-.21m-28.851 1.18a.75.25-91.6 0 0-.229.757.75.25-91.6 0 0 .271.743.75.25-91.6 0 0 .229-.757.75.25-91.6 0 0-.271-.743m22.131 5.78q.03-.04-.28-1.92a.908.904 85.158 0 1 .89-1.06h5.48a.25.25 29.453 0 0 .15-.45q-1.35-.99-1.99-.22a.568.561-69.586 0 1-.43.2h-3.61a.78.78-45 0 0-.78.78l.01 2.51a.303.303-28.977 0 0 .56.16m23.84-2.65h1.14a.238.234 84.857 0 0 .23-.28q-.08-.57-1.41.1a.095.094-57.927 0 0 .04.18m-47.06-.37q-2.52-.24-3.4.03a.221.219-51.981 0 0 .05.43q3.07.18 3.44-.04a.227.224-57.497 0 0-.09-.42m1.52.49q1.06.07 1.2.01a.225.223 39.816 0 0-.04-.42q-1.25-.33-1.37-.22a.365.359-63.906 0 0 .21.63m.6 15.92a.219.217-37.897 0 0 .42.05q.34-.86.01-2.3a.201.2-44.825 0 0-.39 0q-.2.87-.04 2.25"></path><path fill="#90492f" fill-rule="evenodd" d="M16.45 149.988a.414.412-89.739 0 1-.55-.558l2.817-5.544a2.183 2.172-85.569 0 1 1.267-1.09q9.778-3.209 18.607-.457a1.222 1.216 17.616 0 1 .801 1.537l-1.054 3.255a1.301 1.298-72.279 0 1-1.626.841q-9.857-3.06-20.262 2.016M260.11 150a.415.412-89.656 0 1-.55-.56l2.83-5.55a2.187 2.175-85.486 0 1 1.27-1.09q9.8-3.2 18.64-.43a1.224 1.218 17.7 0 1 .8 1.54l-1.06 3.26a1.303 1.3-72.196 0 1-1.63.84q-9.87-3.08-20.3 1.99M43.121 167.686l.191.21a.115.106-35.252 0 0 .15.02q8.199-5.02 13.754-13.016a.535.535 62.054 0 1 .973.299q.12 11.468-8.938 18.466a1.348 1.34 50.673 0 1-1.836-.187l-9.159-10.65a.882.876 49.646 0 1 .099-1.254q9.377-7.842 13.391-19.698a.58.578-56.519 0 1 .983-.203q3.99 4.509 4.993 10.236a2.39 2.376 57.259 0 1-.378 1.766q-5.685 8.318-14.184 13.79a.149.145-35.571 0 0-.039.221M287.14 167.89q8.18-4.99 13.73-12.95a.534.533 62.151 0 1 .97.3q.1 11.43-8.94 18.39a1.343 1.336 50.77 0 1-1.83-.19l-9.11-10.63a.879.874 49.743 0 1 .1-1.25q9.36-7.8 13.38-19.61a.578.576-56.422 0 1 .98-.2q3.97 4.5 4.96 10.21a2.382 2.368 57.356 0 1-.38 1.76q-5.68 8.28-14.16 13.72a.149.145-35.474 0 0-.04.22l.19.21a.114.106-35.155 0 0 .15.02"></path><path fill="rgba(29,31,30,1.00)" fill-rule="evenodd" d="M163.76 142.52q-.51.49-1.29.43-2.78-.22-3.99-.14a.28.271-1.023 0 1-.29-.27v-.01a.23.23 45 0 1 .23-.23l5.25.01a.125.123 22.211 0 1 .09.21"></path><path fill="rgba(68,69,68,1.00)" fill-rule="evenodd" d="M134.819 143.49a.75.25-91.6 0 1 .271.743.75.25-91.6 0 1-.229.757.75.25-91.6 0 1-.271-.743.75.25-91.6 0 1 .229-.757"></path><path fill="rgba(29,31,30,1.00)" fill-rule="evenodd" d="m156.39 149.11-.01-2.51a.78.78-45 0 1 .78-.78h3.61a.568.561-69.586 0 0 .43-.2q.64-.77 1.99.22a.25.25-79.362 0 1-.15.45h-5.48a.908.904 85.158 0 0-.89 1.06q.31 1.88.28 1.92a.303.303-28.977 0 1-.56-.16M180.75 146.44q1.33-.67 1.41-.1a.238.234 84.857 0 1-.23.28h-1.14a.095.094-57.927 0 1-.04-.18"></path><path fill="#90492f" fill-rule="evenodd" d="M133.82 146.67q-.37.22-3.44.04a.221.219-51.981 0 1-.05-.43q.88-.27 3.4-.03a.227.224-57.497 0 1 .09.42"></path><path fill="rgba(68,69,68,1.00)" fill-rule="evenodd" d="M135.04 146.11q.12-.11 1.37.22a.225.223 39.816 0 1 .04.42q-.14.06-1.2-.01a.365.359-63.906 0 1-.21-.63"></path><path fill="#90492f" fill-rule="evenodd" d="M16.612 159.235a1.009 1.006 76.688 0 1-1.459-.904l.001-5.36a2.382 2.379-14.185 0 1 1.251-2.094q9.768-5.268 20.179-2.308a.927.921 21.467 0 1 .575 1.31l-2.84 5.578a1.346 1.34-68.862 0 1-1.538.684c-5.568-1.51-11.176.593-16.169 3.094M260.2 159.33a1.017 1.014 76.677 0 1-1.47-.91v-5.4a2.4 2.397-14.197 0 1 1.26-2.11q9.84-5.31 20.33-2.33a.934.928 21.455 0 1 .58 1.32l-2.86 5.62a1.356 1.35-68.873 0 1-1.55.69c-5.61-1.52-11.26.6-16.29 3.12M91.78 151.73q-.53-.66.13-1.09l6.43.01a.48.48 36.874 0 1 .48.48v.32a.3.3.924 0 1-.31.3zM90.58 156.45q-.22-.58.22-1.15l4.97-.01a1.267 1.259-4.528 0 1 1.25 1.06q.21 1.23-.02 2.43a.444.442-72.948 0 1-.6.32l-.09-.04a.42.417-71.33 0 1-.24-.49q.26-1.02.16-1.6a.72.708 84.25 0 0-.71-.59z"></path><path fill="#90492f" fill-rule="evenodd" d="M281.73 178.4a22.773 22.119 45.834 0 1-4.12-.12q-2.78-1.5-5.8-2.35-2.32-.65-3.44-2.78-3.45-6.6-4.08-13.92a1.225 1.224-14.119 0 1 .73-1.22q5.79-2.48 11.52-1.11a1.716 1.674-14.109 0 1 .86.5q.48.5 3.41 4.81 3.49 5.12 10.07 11.44a.9.896-34.019 0 1-.29 1.48l-5.16 2.07a2.37 2.335-38.604 0 1-2.2-.23q-10.38-7.02-12.85-19.71a.245.24-15.745 0 0-.33-.18l-.3.12a.063.063 22.498 0 0-.04.08q2.17 11.64 11.58 18.94 1.08.84.44 2.18M47.13 173.54a.982.976 56.006 0 1-.31 1.62l-5.01 2.01a2.476 2.456 51.129 0 1-2.33-.26q-10.19-7.04-12.59-19.23a1 .999-7.311 0 1 .92-1.19q2.79-.16 5.33.69a1.84 1.828 82.343 0 1 .95.73q5.84 8.79 13.04 15.63"></path><path fill="#90492f" fill-rule="evenodd" d="M39.3 178.29a22.29 22.045-44.474 0 1-5.47-.02q-2.53-1.42-5.38-2.17c-1.95-.52-3-1.48-3.95-3.36q-3.24-6.43-3.82-13.44a1.158 1.145-13.507 0 1 .72-1.16l3.76-1.51a.858.855-13.622 0 1 1.17.71q.29 3.02.63 3.97 3.35 9.42 12.34 16.98M126.38 160.82q.34.34-.05 1.1h-5.91a.69.69-45.126 0 0-.69.69v1.15a.23.23-60.21 0 1-.23.23h-.29a.271.261-87.953 0 1-.26-.29q.06-1.22-.58-1.98a.404.403 70.279 0 1 .31-.66h2.62a.83.83 84.672 0 0 .83-.83v-1.68a.64.64-88.187 0 0-.64-.64h-5.82a.2.2-44.988 0 1-.2-.2v-.27a.4.39 0 0 1 .4-.39h8.12a.244.243-55.938 0 1 .09.47q-1.62.66-1.23 2.87a.808.792-84.901 0 0 .5.61q1.44.53 3.03-.18" data-source="https://football-logos.cc"></path><path fill="#90492f" fill-rule="evenodd" d="M23.29 172.95q-.16.03-.37-.02-.15-.02-.31-.18-4.86-4.81-6.89-11.05a1.377 1.368-19.989 0 1 .8-1.7l2.63-1.05a.708.704 77.817 0 1 .97.63q.23 6.37 3.46 12.81a.395.39 72.725 0 1-.29.56M266.898 172.773q-.158.031-.366-.017-.148-.019-.307-.176-4.839-4.717-6.893-10.868a1.361 1.352-20.425 0 1 .778-1.686l2.591-1.057a.7.696 77.381 0 1 .964.615q.275 6.293 3.515 12.633a.39.386 72.289 0 1-.282.556"></path><path fill="#fff" fill-rule="evenodd" d="M162.303 162.526a1.09 1.09 0 0 1-1.086 1.094l-5.9.02a1.09 1.09 0 0 1-1.093-1.086l-.007-2a1.09 1.09 0 0 1 1.086-1.094l5.9-.02a1.09 1.09 0 0 1 1.093 1.086z"></path><path fill="#90492f" fill-rule="evenodd" d="M89.73 161.47q-.63-.63-.03-1.12l8.02.13a.26.26-57.165 0 1 .26.26v.25a.42.42-.699 0 1-.41.42z"></path><path fill="rgba(68,69,68,1.00)" fill-rule="evenodd" d="M135.85 162.66q-.16-1.38.04-2.25a.201.2-44.825 0 1 .39 0q.33 1.44-.01 2.3a.219.217-37.897 0 1-.42-.05"></path><path fill="rgba(29,31,30,1.00)" fill-rule="evenodd" d="M157.813 167.374q6.93-.003 12.724 2.41a1.424 1.413 11.462 0 1 .873 1.306l-.02 19.5a.74.73-89.221 0 1-.74.73h-.03a.742.741-1.86 0 1-.78-.73l-.05-5.82a.6.6 81.817 0 0-.6-.6h-3.17a.67.67-45 0 0-.67.67v5.81a.65.65 35.532 0 1-.65.65h-.39a.61.61 0 0 1-.61-.61v-5.91a.59.59-84.159 0 0-.59-.59h-3.75a.679.678 88.662 0 0-.677.71q.28 6.499-.859 6.499-1.138.001-.865-6.498a.679.678-88.716 0 0-.678-.71l-3.75.004a.59.59-84.22 0 0-.589.591l.006 5.91a.61.61-49.468 0 1-.61.61l-.39.001a.65.65-58.69 0 1-.65-.65l-.006-5.81a.67.67 11.196 0 0-.671-.669l-3.17.003a.6.6 81.804 0 0-.599.6l-.045 5.82a.742.741 1.806 0 1-.779.731h-.03a.74.73 89.166 0 1-.741-.729l-.038-19.5a1.424 1.413-11.516 0 1 .871-1.307q5.792-2.418 12.723-2.422m-.893 1.84a.26.26 0 0 0-.263-.257l-4.42.046a.26.26 0 0 0-.257.263l.06 5.76a.26.26 0 0 0 .263.257l4.42-.046a.26.26 0 0 0 .257-.263zm2.088 6.051 4.28.03a.42.42 45.033 0 0 .423-.417l.034-4.86a1.02.71-89.6 0 0-.703-1.025l-3.7-.026a1.02.71-89.6 0 0-.717 1.015l-.034 4.86a.42.42-69.841 0 0 .417.423M146.44 171a.947.936-11.196 0 0-.59.87v2.86a.57.57-84.148 0 0 .57.57h3.4a.5.5 45 0 0 .5-.5v-4.63a.488.486-11.012 0 0-.67-.45zm22.801-.02-3.188-1.262a.484.482 10.871 0 0-.663.448l.011 4.593a.496.496 84.867 0 0 .497.495l3.373-.008a.565.565 0 0 0 .564-.567l-.007-2.838a.94.929 11.055 0 0-.587-.861m-18.926 6.184a.41.41 0 0 0-.41-.411l-3.64-.006a.41.41 0 0 0-.41.409l-.01 5.22a.41.41 0 0 0 .41.411l3.64.006a.41.41 0 0 0 .41-.409zm6.654-.065a.34.34 0 0 0-.339-.341l-4.319-.016a.34.34 0 0 0-.342.339l-.018 5.34a.34.34 0 0 0 .339.341l4.319.016a.34.34 0 0 0 .342-.339zm6.786.067a.42.42 0 0 0-.42-.42l-4.28.008a.42.42 0 0 0-.42.42l.01 5.18a.42.42 0 0 0 .42.42l4.28-.008a.42.42 0 0 0 .42-.42zm6.075.044a.47.47 0 0 0-.47-.47h-3.5a.47.47 0 0 0-.47.47v5.1a.47.47 0 0 0 .47.47h3.5a.47.47 0 0 0 .47-.47z"></path><path fill="rgba(68,69,68,1.00)" fill-rule="evenodd" d="m128.832 170.771 4.47 5.73a.34.34 12.628 0 1-.268.549H82.352a.34.34-53.302 0 1-.267-.551l4.523-5.73a.34.34 57.559 0 1 .267-.129h41.689a.34.34 17.492 0 1 .268.131m-44.298 4.44a.4.4 10.215 0 0 .314.649h45.874a.4.4 59.354 0 0 .315-.646l-2.647-3.4a.4.4 1.565 0 0-.316-.154H87.543a.4.4-18.454 0 0-.313.151z"></path><path fill="rgba(29,31,30,1.00)" fill-rule="evenodd" d="m229.209 170.755 4.923 5.73a.33.33 16.365 0 1-.251.545h-50.329a.33.33-43.579 0 1-.285-.495l3.318-5.73a.33.33-32.398 0 1 .285-.165h42.088a.33.33-33.866 0 1 .251.115m-20.951 5.089q18.768.005 22.788.1a.507.505-18.114 0 0 .414-.814l-2.24-2.87a1.547 1.526-18.218 0 0-1.192-.591q-1.768-.019-19.769-.023t-19.769.014a1.547 1.526 18.244 0 0-1.192.591l-2.241 2.869a.507.505 18.139 0 0 .414.814q4.019-.094 22.787-.09"></path><path fill="#fff" fill-rule="evenodd" d="m84.534 175.211 2.696-3.4a.4.4 63.625 0 1 .313-.151h40.531a.4.4 15.656 0 1 .316.154l2.647 3.4a.4.4-76.811 0 1-.315.646H84.848a.4.4 54.875 0 1-.314-.649M208.259 171.646q18.001.004 19.769.023a1.547 1.526-18.218 0 1 1.192.591l2.24 2.87a.507.505-18.114 0 1-.414.814q-4.02-.095-22.788-.1-18.768-.004-22.787.09a.507.505 18.139 0 1-.414-.814l2.241-2.869a1.547 1.526 18.244 0 1 1.192-.591q1.768-.018 19.769-.014"></path><path fill="rgba(29,31,30,1.00)" fill-rule="evenodd" d="m104.04 178.82-.2.27a.3.294-55.001 0 0 .07.42q.29.2.7.12-4.46.02-8.91.28l-13.42-.04a.77.77 5.927 0 0-.77.77v10.09a.86.85 0 0 0 .86.85h49.37a.8.79 0 0 0 .8-.79l.01-10.24q.24-.62.96-.34l.05 11.81a.59.59 89.523 0 1-.59.6h-51.7a.78.78 36.843 0 1-.78-.78v-12.58a.47.47 33.809 0 1 .47-.47z"></path><path fill="rgba(68,69,68,1.00)" fill-rule="evenodd" d="M133.51 180.21q-.72-.28-.96.34-.23-.55-.58-.55-18.13-.06-36.27-.09 4.45-.26 8.91-.28-.41.08-.7-.12a.3.294-55.001 0 1-.07-.42l.2-.27 28.99.04a.544.542-87.569 0 1 .54.59z"></path><path fill="rgba(29,31,30,1.00)" fill-rule="evenodd" d="M235.56 192.13a.49.49 0 0 1-.49.49h-52.04a.49.49 0 0 1-.49-.49v-12.84a.49.49 0 0 1 .49-.49h52.04a.49.49 0 0 1 .49.49zm-1-11.58a.66.66 0 0 0-.66-.66h-49.66a.66.66 0 0 0-.66.66v10.36a.66.66 0 0 0 .66.66h49.66a.66.66 0 0 0 .66-.66z"></path><path fill="#f08b22" fill-rule="evenodd" d="M157.727 248.392c39.89.001 74.747-26.217 86.332-64.098q1.261-4.124 1.431-4.624a.736.72 9.539 0 1 .69-.48h65.51a.506.503 4.387 0 1 .5.58c-10.03 70.96-67.27 126.46-138.84 133.528-5.048.498-9.228.42-15.626.42s-10.578.078-15.626-.421C70.529 306.223 13.293 250.719 3.269 179.758a.506.503-4.383 0 1 .5-.58l65.51.005a.736.72-9.534 0 1 .69.48q.17.5 1.431 4.624c11.581 37.882 46.436 64.103 86.327 64.105m-.018 60.385c39.799.002 77.316-15.345 105.685-43.216q33.426-32.841 42.826-80.681a.637.633-84.383 0 0-.62-.76h-54.98a.673.658-81.493 0 0-.633.48c-12.204 41.035-49.218 69.448-92.275 69.446s-80.069-28.418-92.269-69.455a.673.658 81.498 0 0-.633-.48l-54.98-.005a.637.633 84.389 0 0-.62.76q9.396 47.841 42.818 80.685c28.367 27.874 65.882 43.224 105.681 43.226"></path><path fill="#fff" fill-rule="evenodd" d="M95.7 179.91q18.14.03 36.27.09.35 0 .58.55l-.01 10.24a.8.79 0 0 1-.8.79H82.37a.86.85 0 0 1-.86-.85v-10.09a.77.77 30.029 0 1 .77-.77zM234.56 190.91a.66.66 0 0 1-.66.66h-49.66a.66.66 0 0 1-.66-.66v-10.36a.66.66 0 0 1 .66-.66h49.66a.66.66 0 0 1 .66.66z"></path><path fill="#0d924a" fill-rule="evenodd" d="M157.712 254.046c43.057.002 80.071-28.411 92.275-69.446a.673.658-81.493 0 1 .633-.48h54.98a.637.633-84.383 0 1 .62.76q-9.4 47.84-42.826 80.681c-28.369 27.871-65.886 43.218-105.685 43.216s-77.314-15.352-105.681-43.226Q18.606 232.707 9.21 184.866a.637.633 84.389 0 1 .62-.76l54.98.005a.673.658 81.498 0 1 .633.48c12.2 41.037 49.211 69.453 92.269 69.455M64.53 205.365a.55.55-34.112 0 0 .305-.715l-5.66-14.109a.55.55 80.657 0 0-.715-.306l-34.56 13.87a.55.55-42.628 0 0-.306.715l1.862 4.649a.55.55-79.862 0 0 .715.306l13.779-5.521a.55.55 56.524 0 1 .715.306l3.06 7.63a.55.55 83.665 0 0 .715.306l4.819-1.931a.55.55-35.082 0 0 .306-.716l-3.06-7.628a.55.55-75.654 0 1 .306-.716l8.059-3.23a.55.55 20.112 0 1 .715.305l3.38 8.429a.55.55 76.877 0 0 .716.306zM249.39 209l34.97 16.73a.389.385-64.109 0 0 .51-.18q4.67-9.84 5.39-11.33 2.35-4.92-1.03-8.7c-3.81-4.23-9.81-6.79-15.28-3.96a.542.538-25.447 0 1-.74-.26c-3.13-7.09-13.87-10.66-18.55-2.66q-2.32 3.96-5.46 9.76a.435.434-62.592 0 0 .19.6m-200.511 8.435c-6.989 5.006-14.932 13.855-9.289 21.731 5.642 7.876 16.575 3.203 23.564-1.804 6.988-5.006 14.931-13.854 9.288-21.731-5.642-7.876-16.575-3.202-23.563 1.804m219.349 21.576c-2.452 3.504-5.95 2.468-9.063.314Q248.72 232.1 239.61 225.65a.472.47 36.993 0 0-.65.09l-2.92 3.69a.592.586 36.587 0 0 .13.85q9.32 6.54 18.88 13.146c6.338 4.377 13.122 7.07 18.535-.667 5.413-7.736.559-13.187-5.726-17.641q-9.482-6.717-18.82-13.231a.592.586 33.371 0 0-.843.169l-2.466 4.007a.472.47 32.965 0 0 .139.642q9.181 6.348 19.548 13.685c3.091 2.186 5.263 5.117 2.811 8.621m-202.304 1.502c-5.8 6.345-11.738 16.646-4.587 23.183s16.879-.3 22.679-6.645 11.738-16.646 4.587-23.183-16.879.3-22.679 6.645m161.286-3.794a.46.46-28.38 0 0-.649-.049l-3.472 2.98a.46.46-45.374 0 0-.05.649l24.682 28.762a.46.46-36.083 0 0 .648.05l12.651-10.851a.46.46 47.256 0 0 .05-.649l-3.83-4.453a.46.46-44.337 0 0-.649-.049l-8.482 7.281a.46.46-8.158 0 1-.649-.049zM85.408 280.336q2.122 1.266 2.322 1.375a.423.422-59.953 0 0 .56-.151l16.09-26.97a.709.705 30.821 0 1 .96-.24l4.84 2.79a.559.551-60.003 0 0 .76-.21l2.7-4.67a.477.474 30.695 0 0-.166-.642q-3.989-2.371-8.062-4.784-4.057-2.441-8.036-4.829a.477.474 30.987 0 0-.644.159l-2.83 4.592a.559.551-58.314 0 0 .175.769l4.752 2.937a.709.705 30.862 0 1 .244.959l-16.11 26.958a.423.422-58.365 0 0 .133.565q.191.125 2.312 1.392M229.55 265.97c1.12 2.98 1.6 7.65-1.56 9.57-2.67 1.63-5.8.19-7.62-1.92q-5.67-6.57-7.5-15.12c-.94-4.42 3.35-9.83 8.12-6.49q1.81 1.27 2.28 2.18a.745.743-35.783 0 0 1.18.19l2.87-2.77a1.328 1.32 48.374 0 0 .1-1.78q-1.57-1.96-4.04-3.61c-7.02-4.71-15.14-.18-16.17 7.77-.85 6.5 2.18 13.84 5.99 19.86 3.65 5.76 10.74 11.47 17.73 7.84 6.19-3.21 6.28-9.9 4.6-15.93a.491.482-7.839 0 0-.47-.35h-5.13a.415.409 79.576 0 0-.38.56m-114.849-13.749-12.825 36.592a.389.385 19.638 0 0 .235.488q10.292 3.571 11.852 4.124 5.148 1.801 8.538-1.971c3.791-4.249 5.682-10.494 2.273-15.624a.542.538 58.3 0 1 .178-.764c6.708-3.885 9.088-14.952.624-18.734q-4.191-1.875-10.299-4.366a.435.434 21.155 0 0-.576.255m63.375 8.1 9.071 37.091a.375.369-13.316 0 0 .454.276l16.151-4.146a.546.538 76.05 0 0 .388-.656l-1.355-5.553a.561.553 75.841 0 0-.678-.411l-10.629 2.853a.516.502-14.147 0 1-.624-.361l-7.476-30.418a.333.325-13.713 0 0-.396-.235l-4.635 1.115a.37.37 70.545 0 0-.271.445m-30.316 40.074a.36.36 1.687 0 0 .358.315h5.004a.36.36 82.936 0 0 .357-.405l-4.947-39.19a.36.36 10.432 0 0-.284-.307l-4.59-.956a.36.36-35.323 0 0-.408.222l-14.306 36.78a.36.36 19.894 0 0 .262.483l4.616.961a.36.36-.89 0 0 .409-.222l3.749-9.632a.36.36-35.953 0 1 .408-.222l7.8 1.616a.36.36 49.228 0 1 .284.307zm11.181-38.121 2.637 38.067a.375.369-3.536 0 0 .401.348l16.609-1.342a.545.538 85.83 0 0 .493-.579l-.392-5.699a.56.553 85.621 0 0-.598-.52l-10.951 1.006a.516.502-4.367 0 1-.554-.462l-2.198-31.224a.333.325-3.934 0 0-.351-.299l-4.754.311a.37.37-10.743 0 0-.342.393"></path><path fill="#fff" fill-rule="evenodd" d="m64.53 205.365-4.849 1.95a.55.55-77.746 0 1-.716-.306l-3.38-8.429a.55.55 14.076 0 0-.715-.305l-8.059 3.23a.55.55 58.452 0 0-.306.716l3.06 7.628a.55.55-58.658 0 1-.306.716l-4.819 1.931a.55.55-74.642 0 1-.715-.306l-3.06-7.63a.55.55 51.858 0 0-.715-.306l-13.779 5.521a.55.55-70.012 0 1-.715-.306l-1.862-4.649a.55.55 19.789 0 1 .306-.715l34.56-13.87a.55.55-76.768 0 1 .715.306l5.66 14.109a.55.55 13.997 0 1-.305.715M249.39 209a.435.434-62.592 0 1-.19-.6q3.14-5.8 5.46-9.76c4.68-8 15.42-4.43 18.55 2.66a.542.538-25.447 0 0 .74.26c5.47-2.83 11.47-.27 15.28 3.96q3.38 3.78 1.03 8.7-.72 1.49-5.39 11.33a.389.385-64.109 0 1-.51.18zm8.014-1.836 8.115 4.117a.33.33 13.485 0 0 .444-.145l2.334-4.602a4.45 4.06-63.1 0 0-1.607-5.805l-1.463-.742a4.45 4.06-63.1 0 0-5.634 2.131l-2.334 4.602a.33.33 3.594 0 0 .145.444m14.708 7.02 8.614 4.146a.34.34-74.57 0 0 .454-.159l2.776-5.767a4.34 4.24 25.7 0 0-2.072-5.703l-1.406-.676a4.34 4.24 25.7 0 0-5.749 1.938l-2.776 5.767a.34.34-83.965 0 0 .159.454"></path><path fill="rgba(29,31,30,1.00)" fill-rule="evenodd" d="M84.04 194.53q-.76.37-1.29.94.24-1.25 1.29-.94"></path><path fill="#ed2026" fill-rule="evenodd" d="M90.04 194.52q.32.16.67.04.17-.01.33-.03.33.14.67.03.17-.01.33-.03.33.15.67.03.66-.14 1.33-.03.4.19.68-.02l16.07-.02-.08.22q.22.75 1.06.56-1.35 2.64-1.25 4.7.09.09.19.18l-9.77-.04-19.75-.07-.25.07a.04.04-55.732 0 1-.05-.05l1.86-4.59q.53-.57 1.29-.94z"></path><path fill="rgba(29,31,30,1.00)" fill-rule="evenodd" d="M90.71 194.56q-.35.12-.67-.04zM91.71 194.56q-.34.11-.67-.03zM92.71 194.56q-.34.12-.67-.03zM94.72 194.51q-.28.21-.68.02.35.05.68-.02M112.54 194.53q-.23.2-.5.32-.67-.25-1.33-.14l.08-.22z"></path><path fill="#f08b22" fill-rule="evenodd" d="M134.94 194.52q1.19.46 2.33.39a.73.728-81.489 0 1 .73.99l-1.12 2.87a1.386 1.38 11.974 0 1-1.36.88q-12.19-.6-25 .32-.1-2.06 1.25-4.7.01-.19.27-.42.27-.12.5-.32z"></path><path fill="#90492f" fill-rule="evenodd" d="M140.4 194.49q-2.73.45-2.65 5.67l-27.04-.01q-.1-.09-.19-.18 12.81-.92 25-.32a1.386 1.38 11.974 0 0 1.36-.88l1.12-2.87a.73.728-81.489 0 0-.73-.99q-1.14.07-2.33-.39z"></path><path fill="#ed2026" fill-rule="evenodd" d="M169.47 194.48q1.21.75.92 1.49-.51 1.31.02 2.16-.38.37-.3 1.14-1.34.78-1.86.78-15 .06-30 .08l-.5.03q-.08-5.22 2.65-5.67z"></path><path fill="#90492f" fill-rule="evenodd" d="M172.46 194.57q-1.41.58-2.05 3.56-.53-.85-.02-2.16.29-.74-.92-1.49z"></path><path fill="#f08b22" fill-rule="evenodd" d="M202.68 194.57q-.2 2.06-1.14 4.11a1.608 1.593-76.946 0 1-1.46.92q-14.1-.06-28.57.32-1.2.03-1.4-.65-.08-.77.3-1.14.64-2.98 2.05-3.56z"></path><path fill="#90492f" fill-rule="evenodd" d="M204.41 194.54q-2 2.8-2.6 4.7-.22.71.98.77-.8.28-1.83.12l-3.25.01-59.46-.01q15-.02 30-.08.52 0 1.86-.78.2.68 1.4.65 14.47-.38 28.57-.32a1.608 1.593-76.946 0 0 1.46-.92q.94-2.05 1.14-4.11.92-.21 1.73-.03"></path><path fill="#ed2026" fill-rule="evenodd" d="m206.07 194.58 5.11.01 2.86.02q.34.11.67.01l5.33-.06q.35.09.67-.02l14.64-.17a.541.54 10.513 0 1 .51.74l-1.87 4.56-18.79.25-9.35.15-3.06-.06q-1.2-.06-.98-.77.6-1.9 2.6-4.7z"></path><path fill="rgba(29,31,30,1.00)" fill-rule="evenodd" d="m211.18 194.59-5.11-.01zM214.71 194.62q-.33.1-.67-.01.31-.17.67.01M220.71 194.54q-.32.11-.67.02z"></path><path fill="#90492f" fill-rule="evenodd" d="M112.04 194.85q-.26.23-.27.42-.84.19-1.06-.56.66-.11 1.33.14M233.99 199.67q-4.64.95-10.03.37l-8.76-.12z"></path><path fill="#0d924a" fill-rule="evenodd" d="M257.404 207.164a.33.33 38.649 0 1-.145-.444l2.334-4.602a4.45 4.06-63.1 0 1 5.634-2.131l1.463.742a4.45 4.06-63.1 0 1 1.607 5.805l-2.334 4.602a.33.33 13.288 0 1-.444.145z"></path><path fill="rgba(29,31,30,1.00)" fill-rule="evenodd" d="m100.94 200.11-19.75-.07zM200.96 200.13l-3.25.01zM215.2 199.92l8.76.12-18.11.03z"></path><path fill="#0d924a" fill-rule="evenodd" d="M272.112 214.184a.34.34-55.267 0 1-.159-.454l2.776-5.767a4.34 4.24 25.7 0 1 5.749-1.938l1.406.676a4.34 4.24 25.7 0 1 2.072 5.703l-2.776 5.767a.34.34-34.712 0 1-.454.159z"></path><path fill="#fff" fill-rule="evenodd" d="M48.879 217.435c6.988-5.006 17.921-9.68 23.563-1.804 5.643 7.877-2.3 16.725-9.288 21.731s-17.922 9.68-23.564 1.804c-5.643-7.876 2.3-16.725 9.289-21.731m18.289 2.063a13.59 7.12-35.4 0 0-15.202 2.068 13.59 7.12-35.4 0 0-6.954 13.676 13.59 7.12-35.4 0 0 15.202-2.068 13.59 7.12-35.4 0 0 6.954-13.676M273.585 242.759c-5.413 7.737-12.197 5.044-18.535.667q-9.56-6.606-18.88-13.146a.592.586 36.587 0 1-.13-.85l2.92-3.69a.472.47 36.993 0 1 .65-.09q9.11 6.45 19.555 13.675c3.113 2.154 6.611 3.19 9.063-.314s.28-6.435-2.811-8.621q-10.367-7.337-19.548-13.685a.472.47 32.965 0 1-.139-.642l2.466-4.007a.592.586 33.371 0 1 .843-.169q9.338 6.514 18.82 13.231c6.285 4.454 11.139 9.905 5.726 17.641"></path><path fill="#f08b22" fill-rule="evenodd" d="M124.48 224a.442.437 80.591 0 1-.58-.42v-2.9a.896.886-11.471 0 1 .55-.82q3.92-1.66 5.85-5.14a1.09 1.09-75.514 0 1 .95-.56h2.29a.67.66-90 0 1 .66.67v22.27a.34.34-64.795 0 1-.34.34h-3.83a.35.35-45 0 1-.35-.35v-15.63a.353.347-21.557 0 0-.59-.25q-2.09 1.93-4.61 2.79M150.73 228.46q-1.77 1.7-4.52 1.08c-6.19-1.41-7.27-9.69-2.95-13.58 2.65-2.37 7.25-2.31 9.9.13q2.13 1.96 2.68 5.32c1.14 6.99.45 16.98-9.11 16.39q-4.23-.25-5.41-4.99a.689.681 79.61 0 1 .58-.85l2.87-.37a.78.765-14.318 0 1 .81.47c.19.44.25.97.5 1.22q2.31 2.26 4.55-.8a1.991 1.968 69.671 0 0 .33-.73l.59-2.84a.491.489-16.103 0 0-.82-.45m-2.905-10.559a4.27 3.07-94.1 0 0-2.757 4.479 4.27 3.07-94.1 0 0 3.367 4.039 4.27 3.07-94.1 0 0 2.757-4.478 4.27 3.07-94.1 0 0-3.367-4.04M165.38 226.94a.465.463 1.751 0 1-.52-.55l.47-2.28a1.003.988-87.433 0 1 .84-.78c6.63-.95.26-9.88-2.44-2.87a.79.788-73.75 0 1-.89.49l-2.75-.58a.59.585 12.32 0 1-.46-.71c1.06-4.39 4.79-6.11 8.96-5.21 4.88 1.05 7.05 6.81 2.38 10.13a.418.41 38.387 0 0 .09.72q3.77 1.53 3.52 5.64c-.53 8.52-13.09 9.57-15.33 1.07a.624.62 78.682 0 1 .51-.77l3.08-.46a.769.759 79.071 0 1 .86.59c.71 3.07 4.05 3.82 5.65 1.12q1.83-3.07-1.17-5.53a1.33 1.33-29.55 0 0-1.05-.29zM185.072 214.235c2.445-.018 5.143.699 6.33 3.094q2.098 4.231-1.762 7.281a.459.456 39.884 0 0 .07.76q3.46 1.9 3.079 6.114c-.378 4.171-3.538 6.34-7.538 6.371-3.999.03-7.192-2.091-7.634-6.255q-.445-4.208 2.986-6.161a.459.456-40.756 0 0 .058-.761q-3.906-2.991-1.872-7.253c1.15-2.413 3.837-3.171 6.283-3.19m2.828 6.295a2.77 2.77 0 0 0-2.77-2.77 2.77 2.77 0 0 0-2.77 2.77 2.77 2.77 0 0 0 2.77 2.77 2.77 2.77 0 0 0 2.77-2.77m-2.869 6.314a3.72 3.23-92.6 0 0-3.058 3.863 3.72 3.23-92.6 0 0 3.396 3.569 3.72 3.23-92.6 0 0 3.058-3.863 3.72 3.23-92.6 0 0-3.396-3.569"></path><path fill="#0d924a" fill-rule="evenodd" d="M67.168 219.498a13.59 7.12-35.4 0 1-6.954 13.676 13.59 7.12-35.4 0 1-15.202 2.068 13.59 7.12-35.4 0 1 6.954-13.676 13.59 7.12-35.4 0 1 15.202-2.068"></path><path fill="#fff" fill-rule="evenodd" d="M88.603 233.868c7.151 6.537 1.213 16.838-4.587 23.183s-15.528 13.182-22.679 6.645-1.213-16.838 4.587-23.183 15.528-13.182 22.679-6.645m-4.408 4.858a13.61 7.1-47.5 0 0-14.43 5.237 13.61 7.1-47.5 0 0-3.96 14.831 13.61 7.1-47.5 0 0 14.43-5.237 13.61 7.1-47.5 0 0 3.96-14.831M227.21 236.719l20.25 23.622a.46.46-40.618 0 0 .649.049l8.482-7.281a.46.46-5.989 0 1 .649.049l3.83 4.453a.46.46 83.011 0 1-.05.649l-12.651 10.851a.46.46-2.039 0 1-.648-.05l-24.682-28.762a.46.46-7.048 0 1 .05-.649l3.472-2.98a.46.46-3.572 0 1 .649.049"></path><path fill="#0d924a" fill-rule="evenodd" d="M84.195 238.726a13.61 7.1-47.5 0 1-3.96 14.831 13.61 7.1-47.5 0 1-14.43 5.237 13.61 7.1-47.5 0 1 3.96-14.831 13.61 7.1-47.5 0 1 14.43-5.237"></path><path fill="#fff" fill-rule="evenodd" d="M105.412 246.834q4.073 2.413 8.062 4.784a.477.474 30.695 0 1 .166.642l-2.7 4.67a.559.551-60.003 0 1-.76.21l-4.84-2.79a.709.705 30.821 0 0-.96.24l-16.09 26.97a.423.422-59.953 0 1-.56.151q-.2-.109-2.322-1.375t-2.312-1.392a.423.422-58.365 0 1-.133-.565l16.11-26.958a.709.705 30.862 0 0-.244-.959l-4.752-2.937a.559.551-58.314 0 1-.175-.769l2.83-4.592a.477.474 30.987 0 1 .644-.159q3.979 2.388 8.036 4.829M229.55 265.97a.415.409 79.576 0 1 .38-.56h5.13a.491.482-7.839 0 1 .47.35c1.68 6.03 1.59 12.72-4.6 15.93-6.99 3.63-14.08-2.08-17.73-7.84-3.81-6.02-6.84-13.36-5.99-19.86 1.03-7.95 9.15-12.48 16.17-7.77q2.47 1.65 4.04 3.61a1.328 1.32 48.374 0 1-.1 1.78l-2.87 2.77a.745.743-35.783 0 1-1.18-.19q-.47-.91-2.28-2.18c-4.77-3.34-9.06 2.07-8.12 6.49q1.83 8.55 7.5 15.12c1.82 2.11 4.95 3.55 7.62 1.92 3.16-1.92 2.68-6.59 1.56-9.57M114.701 252.221a.435.434 21.155 0 1 .576-.255q6.108 2.491 10.299 4.366c8.464 3.782 6.084 14.849-.624 18.734a.542.538 58.3 0 0-.178.764c3.409 5.13 1.518 11.375-2.273 15.624q-3.39 3.772-8.538 1.971-1.56-.553-11.852-4.124a.389.385 19.638 0 1-.235-.488zm2.645 7.832-3.095 8.366a.43.43-68.693 0 0 .254.552l4.69 1.735a4.51 4.05 20.3 0 0 5.635-2.234l.583-1.576a4.51 4.05 20.3 0 0-2.825-5.363l-4.69-1.734a.43.43 3.645 0 0-.552.254m-5.372 15.487-3.058 8.635a.54.54 87.002 0 0 .329.689l5.816 2.06a4.33 4.27-70.5 0 0 5.47-2.657l.528-1.489a4.33 4.27-70.5 0 0-2.58-5.507l-5.816-2.06a.54.54 35.377 0 0-.689.329M178.076 260.321a.37.37-69.139 0 1 .271-.445l4.635-1.115a.333.325-13.713 0 1 .396.235l7.476 30.418a.516.502-14.147 0 0 .624.361l10.629-2.853a.561.553 75.841 0 1 .678.411l1.355 5.553a.546.538 76.05 0 1-.388.656l-16.151 4.146a.375.369-13.316 0 1-.454-.276z"></path><path fill="#0d924a" fill-rule="evenodd" d="M117.346 260.053a.43.43 52.44 0 1 .552-.254l4.69 1.734a4.51 4.05 20.3 0 1 2.825 5.363l-.583 1.576a4.51 4.05 20.3 0 1-5.635 2.234l-4.69-1.735a.43.43-57.144 0 1-.254-.552z"></path><path fill="#fff" fill-rule="evenodd" d="m147.76 300.395-1.288-10.25a.36.36-45.266 0 0-.284-.307l-7.8-1.616a.36.36-75.568 0 0-.408.222l-3.749 9.632a.36.36 44.897 0 1-.409.222l-4.616-.961a.36.36 53.659 0 1-.262-.483l14.306-36.78a.36.36-30.669 0 1 .408-.222l4.59.956a.36.36 35.066 0 1 .284.307l4.947 39.19a.36.36-72.072 0 1-.357.405h-5.004a.36.36 34.21 0 1-.358-.315m-7.24-18.733a.36.36 70.639 0 0 .291.476l4.475.605a.36.36-78.415 0 0 .407-.382l-.778-11.091a.36.36-58.988 0 0-.699-.094zM158.941 262.274a.37.37 15.748 0 1 .342-.393l4.754-.311a.333.325-3.934 0 1 .351.299l2.198 31.224a.516.502-4.367 0 0 .554.462l10.951-1.006a.56.553 85.621 0 1 .598.52l.392 5.699a.545.538 85.83 0 1-.493.579l-16.609 1.342a.375.369-3.536 0 1-.401-.348z"></path><path fill="#0d924a" fill-rule="evenodd" d="m140.52 281.662 3.696-10.486a.36.36.942 0 1 .699.094l.778 11.091a.36.36-46.336 0 1-.407.382l-4.475-.605a.36.36-36.822 0 1-.291-.476M111.974 275.54a.54.54 1.593 0 1 .689-.329l5.816 2.06a4.33 4.27-70.5 0 1 2.58 5.507l-.528 1.489a4.33 4.27-70.5 0 1-5.47 2.657l-5.816-2.06a.54.54 69.981 0 1-.329-.689z" data-source="https://football-logos.cc"></path><!-- source: https://football-logos.cc --></svg>